<svg xmlns="http://www.w3.org/2000/svg" viewBox="0 0 268.888 212.448"><path d="M121.745 2.26v207.832a.393.393 0 0 1-.393.393H86.138s-16.887.785-23.695.785-23.695-.785-23.695-.785H3.535a.393.393 0 0 1-.393-.393V2.26c0-.217.176-.393.393-.393h117.818c.217 0 .392.176.392.393z" fill="#9a9999"/><path d="M40.647 79.216v55.571c0 .217.176.393.393.393h44.378a.393.393 0 0 0 .393-.393V79.216a.393.393 0 0 0-.393-.393H41.04a.394.394 0 0 0-.393.393z" fill="#aeadad"/><path d="M41.674 79.216v55.571c0 .217.176.393.393.393h42.325a.393.393 0 0 0 .393-.393V79.216a.393.393 0 0 0-.393-.393H42.066a.394.394 0 0 0-.392.393z" fill="#b8b8b8"/><path d="M42.7 79.216v55.571c0 .217.176.393.393.393h40.272a.393.393 0 0 0 .393-.393V79.216a.393.393 0 0 0-.393-.393H43.093a.394.394 0 0 0-.393.393z" fill="#cdcccc"/><path d="M41.006 203.619s-.089.001-.139-.037-.082-.129-.082-.129l-.139-.403H85.76l-.139.403s-.032.092-.082.129c-.05.038-.139.037-.139.037H41.006z" fill="#808181"/><path d="M40.647 138.126v64.735c0 .217.176.393.393.393h44.378a.393.393 0 0 0 .393-.393v-64.735a.393.393 0 0 0-.393-.393H41.04a.393.393 0 0 0-.393.393z" fill="#aeadad"/><path d="M41.665 201.871l.145.408s.049.071.117.12c.081.059.179.042.179.042h42.196s.098.017.179-.042c.068-.049.117-.12.117-.12l.145-.408H41.665z" fill="#9a9999"/><path d="M41.674 138.126v63.571c0 .217.176.393.393.393h42.325a.393.393 0 0 0 .393-.393v-63.571a.393.393 0 0 0-.393-.393H42.066a.393.393 0 0 0-.392.393z" fill="#b8b8b8"/><path d="M63.204 201.475H43.122s-.136-.021-.203-.07c-.068-.049-.087-.115-.087-.115l-.158-.335h41.061l-.158.335s-.019.066-.087.115a.592.592 0 0 1-.203.07H63.204" fill="#aeadad"/><path d="M42.7 137.865v62.987c0 .201.163.364.364.363l40.328-.057a.366.366 0 0 0 .366-.367v-62.926a.132.132 0 0 0-.132-.132H42.832a.132.132 0 0 0-.132.132z" fill="#cdcccc"/><path d="M40.647 2.26v74.108c0 .217.176.393.393.393h44.378a.393.393 0 0 0 .393-.393V2.26a.393.393 0 0 0-.393-.393H41.04a.393.393 0 0 0-.393.393z" fill="#aeadad"/><path d="M41.674 2.26v74.108c0 .217.176.393.393.393h42.325a.393.393 0 0 0 .393-.393V2.26a.393.393 0 0 0-.393-.393H42.066a.393.393 0 0 0-.392.393z" fill="#b8b8b8"/><path d="M42.7 2.26v74.108c0 .217.176.393.393.393h40.272a.393.393 0 0 0 .393-.393V2.26a.393.393 0 0 0-.393-.393H43.093a.393.393 0 0 0-.393.393z" fill="#cdcccc"/><path d="M33.382 19.226v191.651a1.57 1.57 0 0 1-1.571 1.571h1.571c2.293 0 3.87-.826 4.695-1.407.421-.297.673-.775.673-1.585V20.11" fill="#bdbdbc"/><path d="M38.749 20.404a1.57 1.57 0 0 1 1.571-1.571h15.581c.256 0 .509-.063.735-.183l1.045-.553a1.57 1.57 0 0 0 .836-1.388v-.625a1.57 1.57 0 0 1-1.571 1.571H34.953a1.57 1.57 0 0 0-1.571 1.571" fill="#9a9999"/><path d="M56.945 0H1.571A1.57 1.57 0 0 0 0 1.571v.296A1.57 1.57 0 0 1 1.571.296h55.375a1.57 1.57 0 0 1 1.571 1.571v-.296A1.572 1.572 0 0 0 56.945 0z" fill="#e9e8e8"/><path d="M57.24.296h-.295a1.57 1.57 0 0 1 1.571 1.571v14.217a1.57 1.57 0 0 1-1.571 1.571h.295a1.57 1.57 0 0 0 1.571-1.571V1.867A1.57 1.57 0 0 0 57.24.296z" fill="#9a9999"/><path d="M.295 210.877V1.867A1.57 1.57 0 0 1 1.866.296h-.295A1.57 1.57 0 0 0 0 1.867V210.877a1.57 1.57 0 0 0 1.571 1.571h.295a1.57 1.57 0 0 1-1.571-1.571z" fill="#d1d1d1"/><path d="M58.516 16.084V1.867A1.57 1.57 0 0 0 56.945.296H1.865A1.57 1.57 0 0 0 .294 1.867V210.877a1.57 1.57 0 0 0 1.571 1.571H31.81a1.57 1.57 0 0 0 1.571-1.571V19.226a1.57 1.57 0 0 1 1.571-1.571H56.945a1.57 1.57 0 0 0 1.571-1.571z" fill="#d1d1d1"/><path d="M92.796 19.226v191.651a1.57 1.57 0 0 0 1.571 1.571h-1.571c-2.293 0-3.87-.826-4.695-1.407a1.577 1.577 0 0 1-.673-1.29V20.404" fill="#bdbdbc"/><path d="M87.429 20.404a1.57 1.57 0 0 0-1.571-1.571H70.277a1.57 1.57 0 0 1-.735-.183l-1.045-.553a1.57 1.57 0 0 1-.836-1.388v-.625a1.57 1.57 0 0 0 1.571 1.571h21.993a1.57 1.57 0 0 1 1.571 1.571" fill="#9a9999"/><path d="M69.233 0h55.375a1.57 1.57 0 0 1 1.571 1.571v.296a1.57 1.57 0 0 0-1.571-1.571H69.233a1.57 1.57 0 0 0-1.571 1.571v-.296A1.57 1.57 0 0 1 69.233 0z" fill="#e9e8e8"/><path d="M68.938.296h.295a1.57 1.57 0 0 0-1.571 1.571v14.217a1.57 1.57 0 0 0 1.571 1.571h-.295a1.57 1.57 0 0 1-1.571-1.571V1.867A1.57 1.57 0 0 1 68.938.296z" fill="#9a9999"/><path d="M69.233.296h55.375a1.57 1.57 0 0 1 1.571 1.571V210.877a1.57 1.57 0 0 1-1.571 1.571h-30.24a1.57 1.57 0 0 1-1.571-1.571V19.226a1.57 1.57 0 0 0-1.571-1.571H69.233a1.57 1.57 0 0 1-1.571-1.571V1.867A1.57 1.57 0 0 1 69.233.296z" fill="#d1d1d1"/><path d="M52.756 63.369V37.004c0-.347.281-.628.628-.628h19.427c.347 0 .628.281.628.628v26.365a.628.628 0 0 1-.628.628H53.385a.629.629 0 0 1-.629-.628z" fill="#494547"/><path fill="#d2d2d2" d="M52.756 56.339H73.44v8.113H52.756z"/><path d="M71.636 55.424H54.542a.616.616 0 0 1-.616-.616V37.907c0-.34.276-.616.616-.616h17.094c.34 0 .616.276.616.616v16.901c0 .34-.276.616-.616.616z" fill="#9d9d9c"/><path d="M71.055 54.637H55.123a.628.628 0 0 1-.628-.628V38.165c0-.347.281-.628.628-.628h15.933c.347 0 .628.281.628.628v15.843a.628.628 0 0 1-.629.629z" fill="#cfcfcf"/><path d="M57.157 31.724c.269 0 .537-.016.789-.113.676-.233 1.123-.947 1.101-1.652a1.782 1.782 0 0 0-.346-.965c-.311-.44-.853-.689-1.387-.676h-1.202v1.016l-.003.014h.003v3.712h.489v-1.336m-.004-2.967c.275-.001.551-.006.826.006.409.027.807.256 1.008.618.251.429.222 1.01-.087 1.402a1.202 1.202 0 0 1-.93.483c-.27.004-.535.002-.811.002l-.006-2.511z" fill="#949399"/><g fill="#949399"><path d="M64.364 31.045v-.921h-.72a2.013 2.013 0 0 1 .041.921h.679z"/><path d="M63.509 31.57a2.018 2.018 0 1 1-.096-1.97h.507a2.461 2.461 0 0 0-4.68 1.072 2.463 2.463 0 0 0 4.755.899l-.486-.001z"/></g><path fill="#949399" d="M67.122 29.259v-.94H64.75v4.742h.9v-2.016h1.404v-.921H65.65v-.865z"/><path fill="#949399" d="M70.898 33.061l-1.409-2.464 1.303-2.278h-1.084l-.761 1.33-.76-1.33h-1.084l1.302 2.278-1.409 2.464h1.084l.867-1.516.867 1.516z"/><path d="M57.525 22.891h.896c.205 0 .445.19.554.295l1.57 1.74v-2.039h.534v2.779h-.934a.687.687 0 0 1-.52-.229l-1.569-1.744v1.973h-.53V22.89zM68.653 25.693c-.64.089-1.287.097-1.934.042-.38-.035-.752-.112-1.093-.29-.43-.221-.566-.725-.562-1.179.004-.418.128-.864.504-1.108.244-.159.507-.213.783-.263.76-.136 1.519-.105 2.26-.024v.396c-.873-.17-1.795-.128-2.11.275-.197.248-.224.496-.224.705 0 .376.128.95.895 1.058.5.074.992.02 1.477-.07v.458zM63.182 25.261c.077 0 1.279.008 1.693 0v.415c-.833.031-1.631.047-2.472.012-.713-.031-.837-.388-.85-.733v-2.062h3.283v.396h-2.123v.709h1.934v.387h-1.934c0 .21.007.446.007.489.012.267.136.368.462.387" fill="#e3e3e2"/><path d="M57.528 23.076h.895c.206 0 .446.19.555.295l1.57 1.74v-2.039h.534v2.787h-.934a.687.687 0 0 1-.52-.229l-1.569-1.744v1.973h-.53v-2.783zM68.652 25.878c-.64.089-1.287.096-1.934.042-.38-.035-.752-.112-1.093-.29-.43-.221-.566-.725-.562-1.179.004-.418.128-.864.504-1.108.244-.159.507-.213.783-.264.76-.135 1.519-.104 2.259-.023v.396c-.872-.171-1.794-.128-2.108.275-.198.248-.225.496-.225.705 0 .376.128.95.895 1.058.5.074.992.02 1.477-.07v.458zM63.18 25.446c.078 0 1.28.008 1.694 0v.415c-.833.031-1.631.046-2.472.012-.714-.031-.838-.388-.85-.733v-2.062h3.283v.396h-2.123v.709h1.934v.387h-1.934c0 .21.007.446.007.489.012.267.136.368.462.387" fill="#949399"/><path d="M57.528 22.987h.895c.206 0 .446.19.555.294l1.57 1.74v-2.038h.534v2.779h-.934a.687.687 0 0 1-.52-.229L58.06 23.79v1.973h-.53v-2.775zM68.652 25.785c-.64.089-1.287.096-1.934.042-.38-.035-.752-.112-1.093-.29-.43-.221-.566-.725-.562-1.179.004-.418.128-.864.504-1.108.244-.159.507-.213.783-.264.76-.135 1.519-.104 2.259-.023v.396c-.872-.171-1.794-.128-2.108.275-.198.248-.225.496-.225.705 0 .376.128.95.895 1.058.5.074.992.02 1.477-.07v.458zM63.18 25.353c.078 0 1.28.008 1.694 0v.415c-.833.031-1.631.046-2.472.012-.714-.031-.838-.388-.85-.733v-2.062h3.283v.396h-2.123v.709h1.934v.387h-1.934c0 .21.007.446.007.489.012.271.136.368.462.387" fill="#d9d9d9"/><path fill="#72c1a8" d="M62.151 65.699h1.893v1.893h-1.893z"/><path fill="#c14e97" d="M62.151 72.599h1.893v1.893h-1.893z"/><path d="M71.995 143.607H54.894a.571.571 0 0 0-.571.571v50.272c0 .315.256.571.571.571h17.101a.571.571 0 0 0 .571-.571v-50.272a.57.57 0 0 0-.571-.571z" fill="#6b6b6b"/><path d="M70.475 188.592h-14.06a.657.657 0 0 1-.657-.657V147.9c0-.363.294-.657.657-.657h14.06c.363 0 .657.294.657.657v40.035a.657.657 0 0 1-.657.657z" fill="#7d7d7e"/><path d="M72.139 191.961l-1.079-2.783a.371.371 0 0 0-.353-.294H56.041a.371.371 0 0 0-.353.294l-1.079 2.783" fill="#c5c5c4"/><path d="M54.607 191.961l-.219 2.585c-.06.249.114.492.353.492h17.262c.239 0 .413-.243.353-.492l-.219-2.585" fill="#b4b4b4"/><path fill="#9d9d9c" d="M52.756 56.339h1.281l-1.281 7.658zM73.44 56.339h-1.281l1.281 7.658z"/><path d="M72.059 145.832l.442-1.856c.06-.179-.114-.354-.353-.354H54.741c-.239 0-.413.175-.353.354l.443 1.859" fill="#b4b4b4"/><path d="M54.831 145.836l.855 1.008c.042.063.187.106.353.106h15.092c.166 0 .927-1.116.927-1.116M54.337 72.599h1.893v1.893h-1.893z" fill="#9d9d9c"/><path fill="#d9d9d9" d="M56.23 74.492l-.059-.257H54.54l-.203.257z"/><path fill="#878787" d="M56.171 74.235v-1.636h.059v1.893z"/><path fill="#767676" d="M54.337 74.492l.203-.257v-1.636h-.203z"/><path fill="#9d9d9c" d="M54.337 65.699h1.893v1.893h-1.893z"/><path fill="#d9d9d9" d="M56.23 67.592l-.059-.257H54.54l-.203.257z"/><path fill="#878787" d="M56.171 67.335v-1.636h.059v1.893z"/><path fill="#767676" d="M54.337 67.592l.203-.257v-1.636h-.203z"/><path fill="#9d9d9c" d="M54.337 82.193h1.893v1.893h-1.893z"/><path fill="#d9d9d9" d="M56.23 84.087l-.059-.257H54.54l-.203.257z"/><path fill="#878787" d="M56.171 83.83v-1.637h.059v1.894z"/><path fill="#767676" d="M54.337 84.087l.203-.257v-1.637h-.203z"/><path fill="#9d9d9c" d="M54.337 89.094h1.893v1.893h-1.893z"/><path fill="#d9d9d9" d="M56.23 90.987l-.059-.257H54.54l-.203.257z"/><path fill="#878787" d="M56.171 90.73v-1.636h.059v1.893z"/><path fill="#767676" d="M54.337 90.987l.203-.257v-1.636h-.203z"/><path fill="#9d9d9c" d="M54.337 95.994h1.893v1.893h-1.893z"/><path fill="#d9d9d9" d="M56.23 97.887l-.059-.257H54.54l-.203.257z"/><path fill="#878787" d="M56.171 97.63v-1.636h.059v1.893z"/><path fill="#767676" d="M54.337 97.887l.203-.257v-1.636h-.203z"/><path fill="#9d9d9c" d="M54.337 102.894h1.893v1.893h-1.893z"/><path fill="#d9d9d9" d="M56.23 104.787l-.059-.257H54.54l-.203.257z"/><path fill="#878787" d="M56.171 104.53v-1.636h.059v1.893z"/><path fill="#767676" d="M54.337 104.787l.203-.257v-1.636h-.203z"/><g><path fill="#9d9d9c" d="M54.337 109.794h1.893v1.893h-1.893z"/><path fill="#d9d9d9" d="M56.23 111.688l-.059-.257H54.54l-.203.257z"/><path fill="#878787" d="M56.171 111.431v-1.637h.059v1.894z"/><path fill="#767676" d="M54.337 111.688l.203-.257v-1.637h-.203z"/></g><g><path fill="#9d9d9c" d="M54.337 116.694h1.893v1.893h-1.893z"/><path fill="#d9d9d9" d="M56.23 118.588l-.059-.257H54.54l-.203.257z"/><path fill="#878787" d="M56.171 118.331v-1.637h.059v1.894z"/><path fill="#767676" d="M54.337 118.588l.203-.257v-1.637h-.203z"/></g><g><path fill="#9d9d9c" d="M54.337 123.595h1.893v1.893h-1.893z"/><path fill="#d9d9d9" d="M56.23 125.488l-.059-.257H54.54l-.203.257z"/><path fill="#878787" d="M56.171 125.231v-1.636h.059v1.893z"/><path fill="#767676" d="M54.337 125.488l.203-.257v-1.636h-.203z"/></g><g><path fill="#9d9d9c" d="M54.337 130.495h1.893v1.893h-1.893z"/><path fill="#d9d9d9" d="M56.23 132.388l-.059-.257H54.54l-.203.257z"/><path fill="#878787" d="M56.171 132.131v-1.636h.059v1.893z"/><path fill="#767676" d="M54.337 132.388l.203-.257v-1.636h-.203z"/></g><g><path fill="#9d9d9c" d="M71.86 67.592h-1.894V65.7h1.893z"/><path fill="#d9d9d9" d="M69.966 67.592l.06-.257h1.63l.203.257z"/><path fill="#878787" d="M70.026 67.335v-1.636h-.06v1.893z"/><path fill="#767676" d="M71.859 67.592l-.203-.257v-1.636h.203z"/></g><g><path fill="#9d9d9c" d="M71.86 74.493h-1.894V72.6h1.893z"/><path fill="#d9d9d9" d="M69.966 74.492l.06-.257h1.63l.203.257z"/><path fill="#878787" d="M70.026 74.235v-1.636h-.06v1.893z"/><path fill="#767676" d="M71.859 74.492l-.203-.257v-1.636h.203z"/></g><g><path fill="#9d9d9c" d="M71.86 84.087h-1.894v-1.893h1.893z"/><path fill="#d9d9d9" d="M69.966 84.087l.06-.257h1.63l.203.257z"/><path fill="#878787" d="M70.026 83.83v-1.637h-.06v1.894z"/><path fill="#767676" d="M71.859 84.087l-.203-.257v-1.637h.203z"/></g><g><path fill="#9d9d9c" d="M71.86 90.987h-1.894v-1.893h1.893z"/><path fill="#d9d9d9" d="M69.966 90.987l.06-.257h1.63l.203.257z"/><path fill="#878787" d="M70.026 90.73v-1.636h-.06v1.893z"/><path fill="#767676" d="M71.859 90.987l-.203-.257v-1.636h.203z"/></g><g><path fill="#9d9d9c" d="M71.86 97.887h-1.894v-1.893h1.893z"/><path fill="#d9d9d9" d="M69.966 97.887l.06-.257h1.63l.203.257z"/><path fill="#878787" d="M70.026 97.63v-1.636h-.06v1.893z"/><path fill="#767676" d="M71.859 97.887l-.203-.257v-1.636h.203z"/></g><g><path fill="#9d9d9c" d="M71.86 104.787h-1.894v-1.893h1.893z"/><path fill="#d9d9d9" d="M69.966 104.787l.06-.257h1.63l.203.257z"/><path fill="#878787" d="M70.026 104.53v-1.636h-.06v1.893z"/><path fill="#767676" d="M71.859 104.787l-.203-.257v-1.636h.203z"/></g><g><path fill="#9d9d9c" d="M71.86 111.688h-1.894v-1.893h1.893z"/><path fill="#d9d9d9" d="M69.966 111.688l.06-.257h1.63l.203.257z"/><path fill="#878787" d="M70.026 111.431v-1.637h-.06v1.894z"/><path fill="#767676" d="M71.859 111.688l-.203-.257v-1.637h.203z"/></g><g><path fill="#9d9d9c" d="M71.86 118.588h-1.894v-1.893h1.893z"/><path fill="#d9d9d9" d="M69.966 118.588l.06-.257h1.63l.203.257z"/><path fill="#878787" d="M70.026 118.331v-1.637h-.06v1.894z"/><path fill="#767676" d="M71.859 118.588l-.203-.257v-1.637h.203z"/></g><g><path fill="#9d9d9c" d="M71.86 125.488h-1.894v-1.893h1.893z"/><path fill="#d9d9d9" d="M69.966 125.488l.06-.257h1.63l.203.257z"/><path fill="#878787" d="M70.026 125.231v-1.636h-.06v1.893z"/><path fill="#767676" d="M71.859 125.488l-.203-.257v-1.636h.203z"/></g><g><path fill="#9d9d9c" d="M71.86 132.388h-1.894v-1.893h1.893z"/><path fill="#d9d9d9" d="M69.966 132.388l.06-.257h1.63l.203.257z"/><path fill="#878787" d="M70.026 132.131v-1.636h-.06v1.893z"/><path fill="#767676" d="M71.859 132.388l-.203-.257v-1.636h.203z"/></g><g><path fill="#9d9d9c" d="M62.151 82.193h1.893v1.893h-1.893z"/><path fill="#d9d9d9" d="M64.045 84.087l-.109-.257h-1.683l-.102.257z"/><path fill="#767676" d="M63.936 83.83v-1.637h.109v1.894zM62.151 84.087l.102-.257v-1.637h-.102z"/></g><g><path fill="#9d9d9c" d="M62.151 89.094h1.893v1.893h-1.893z"/><path fill="#d9d9d9" d="M64.045 90.987l-.109-.257h-1.683l-.102.257z"/><path fill="#767676" d="M63.936 90.73v-1.636h.109v1.893zM62.151 90.987l.102-.257v-1.636h-.102z"/></g><g><path fill="#9d9d9c" d="M62.151 95.994h1.893v1.893h-1.893z"/><path fill="#d9d9d9" d="M64.045 97.887l-.109-.257h-1.683l-.102.257z"/><path fill="#767676" d="M63.936 97.63v-1.636h.109v1.893zM62.151 97.887l.102-.257v-1.636h-.102z"/></g><g><path fill="#9d9d9c" d="M62.151 102.894h1.893v1.893h-1.893z"/><path fill="#d9d9d9" d="M64.045 104.787l-.109-.257h-1.683l-.102.257z"/><path fill="#767676" d="M63.936 104.53v-1.636h.109v1.893zM62.151 104.787l.102-.257v-1.636h-.102z"/></g><g><path fill="#9d9d9c" d="M62.151 109.794h1.893v1.893h-1.893z"/><path fill="#d9d9d9" d="M64.045 111.688l-.109-.257h-1.683l-.102.257z"/><path fill="#767676" d="M63.936 111.431v-1.637h.109v1.894zM62.151 111.688l.102-.257v-1.637h-.102z"/></g><g><path fill="#9d9d9c" d="M62.151 116.694h1.893v1.893h-1.893z"/><path fill="#d9d9d9" d="M64.045 118.588l-.109-.257h-1.683l-.102.257z"/><path fill="#767676" d="M63.936 118.331v-1.637h.109v1.894zM62.151 118.588l.102-.257v-1.637h-.102z"/></g><g><path fill="#9d9d9c" d="M62.151 123.595h1.893v1.893h-1.893z"/><path fill="#d9d9d9" d="M64.045 125.488l-.109-.257h-1.683l-.102.257z"/><path fill="#767676" d="M63.936 125.231v-1.636h.109v1.893zM62.151 125.488l.102-.257v-1.636h-.102z"/></g><g><path fill="#9d9d9c" d="M62.151 130.495h1.893v1.893h-1.893z"/><path fill="#d9d9d9" d="M64.045 132.388l-.109-.257h-1.683l-.102.257z"/><path fill="#767676" d="M63.936 132.131v-1.636h.109v1.893zM62.151 132.388l.102-.257v-1.636h-.102z"/></g><path d="M54.542 37.925s-.308-.172-.308-.317.158-.317.158-.317H71.844s.123.118.123.317-.284.317-.284.317H54.542z" fill="#d9d9d9"/><g><path d="M69.695 42.822c0-.378-.142-.739-.396-1.01-.394-.42-1.1-1.069-2.193-1.731-1.464-.887-3.293-1.351-3.743-1.351-.608 0-1.12.412-1.298.981a.895.895 0 0 1-.409.532l-4.063 2.192a.846.846 0 0 0-.437.747v2.745h12.539v-3.105z" fill="#5e5a5b"/><path d="M57.156 45.928v3.694c0 .507.256.976.675 1.237l4.854 3.025c.439.273.987.275 1.426.003l4.905-3.028c.421-.26.679-.731.679-1.24v-3.69l-12.539-.001z" fill="#e3e3e6"/><path d="M63.4 53.715a1.3 1.3 0 0 1-.668-.185l-4.854-2.914a1.303 1.303 0 0 1-.629-1.112v-6.203c0-.269.148-.513.387-.637l4.063-2.112a.953.953 0 0 0 .455-.566c.172-.526.658-.88 1.209-.88.432 0 2.262.451 3.695 1.289 1.078.629 1.777 1.245 2.173 1.651.238.245.369.567.369.907V49.5c0 .455-.243.881-.633 1.114l-4.905 2.917a1.276 1.276 0 0 1-.662.184z" fill="#c3c2c2"/><path d="M63.363 39.199c.424 0 2.228.447 3.648 1.276 1.069.624 1.761 1.234 2.153 1.636.221.227.343.526.343.842V49.5c0 .422-.225.818-.588 1.034l-4.905 2.918a1.2 1.2 0 0 1-1.234-.003l-4.854-2.914a1.209 1.209 0 0 1-.584-1.031v-6.203c0-.234.129-.446.336-.554l4.063-2.112c.232-.121.41-.341.501-.62.16-.488.61-.816 1.121-.816m0-.187c-.608 0-1.12.397-1.298.945a.863.863 0 0 1-.409.512l-4.063 2.112a.81.81 0 0 0-.437.72v6.203c0 .488.256.941.675 1.192l4.854 2.914a1.39 1.39 0 0 0 1.427.003l4.905-2.918c.421-.251.679-.705.679-1.195v-6.547c0-.364-.142-.712-.396-.973-.394-.405-1.1-1.03-2.193-1.667-1.465-.854-3.294-1.301-3.744-1.301z" fill="#919191"/><g><path d="M64.112 40.647c-.172-.224.076-.519.325-.427 1.075.165 2.158.52 3.01 1.216.517.43.95 1.054.915 1.755.023.926-.57 1.713-1.217 2.312-.192.427-.352.886-.712 1.21-.336.26-.36.723-.647 1.02-.314.34-.255.126-.389.528-.242.434-.629.683-1.02.907-.149.044-.471.211-.568-.069-.034-.151.614-.533.076-.362-.907.084-2.049.023-2.614-.804-.109-.25-.094-.328-.094-.473-.409-.295-.699-.748-.663-1.271-.454-.315-.885-.764-.905-1.35-.078-.574.368-1.039.821-1.314.874-.523 1.923-.654 2.924-.652 1.041.062 2.123.292 2.971.935.33.24.553.586.765.928l.019-.019c.558-.537.94-1.434.574-2.177-.429-.757-1.243-1.196-2.034-1.486-.492-.211-1.045-.205-1.537-.407zm-3.707 3.581c-.516.414-.135 1.257.398 1.422.711-.581 1.655-.749 2.55-.744.802.051 1.63.233 2.278.734.126.145.282-.024.414-.06.194-.123.386-.251.572-.386-.082-.306-.21-.607-.457-.818-.748-.687-1.807-.921-2.796-.937-1.024-.023-2.145.113-2.959.789zm3.577 2.021c.379-.053.881-.145 1.029-.199.199-.06.122-.092.055-.144-.506-.316-1.111-.407-1.697-.442-.641-.002-1.313.065-1.88.386-.058.035-.244.07.001.14.551.192 1.912.269 2.03.275.12.006.462-.016.462-.016zm-2.927.206a.882.882 0 0 0 .368.456c.089-.059.225-.127.339-.187.074-.03.153-.083.229-.109-.037-.003-.093-.009-.202-.014-.263-.032-.486-.086-.734-.146zm3.593.215a.975.975 0 0 1 .524.318c.275-.077.581-.255.407-.576-.308.091-.62.175-.931.258zm-2.563.527c.175.104.415.098.602.136a7.569 7.569 0 0 0 1.759-.073c-.114-.168-.334-.168-.512-.219-.593-.141-1.277-.06-1.849.156zm-.27.542c.38.404.981.449 1.501.474.581-.013 1.214-.126 1.663-.525a6.023 6.023 0 0 1-3.164.051z" fill="#21254e"/><circle cx="63.37" cy="40.385" r=".419" fill="#21254e"/><path fill="#21254e" d="M63.37 52.645l-5.191-2.955v-2.664l5.191 2.955z"/><path fill="#e51929" d="M63.37 52.645l5.19-2.955v-2.664l-5.19 2.955z"/><path fill="#fcc00d" d="M58.172 49.586l5.191-2.798v-5.907l-5.191 2.798z"/><path d="M64.112 40.647c-.172-.224.076-.519.325-.427 1.075.165 2.158.52 3.01 1.216.517.43.95 1.054.915 1.755.023.926-.57 1.713-1.217 2.312-.192.427-.352.886-.712 1.21-.336.26-.36.723-.647 1.02-.314.34-.255.126-.389.528-.242.434-.629.683-1.02.907-.149.044-.471.211-.568-.069-.034-.151.614-.533.076-.362-.907.084-2.049.023-2.614-.804-.109-.25-.094-.328-.094-.473-.409-.295-.699-.748-.663-1.271-.454-.315-.885-.764-.905-1.35-.078-.574.368-1.039.821-1.314.874-.523 1.923-.654 2.924-.652 1.041.062 2.123.292 2.971.935.33.24.553.586.765.928l.019-.019c.558-.537.94-1.434.574-2.177-.429-.757-1.243-1.196-2.034-1.486-.492-.211-1.045-.205-1.537-.407zm-3.707 3.581c-.516.414-.135 1.257.398 1.422.711-.581 1.655-.749 2.55-.744.802.051 1.63.233 2.278.734.126.145.282-.024.414-.06.194-.123.386-.251.572-.386-.082-.306-.21-.607-.457-.818-.748-.687-1.807-.921-2.796-.937-1.024-.023-2.145.113-2.959.789zm3.577 2.021c.379-.053.881-.145 1.029-.199.199-.06.122-.092.055-.144-.506-.316-1.111-.407-1.697-.442-.641-.002-1.313.065-1.88.386-.058.035-.244.07.001.14.551.192 1.912.269 2.03.275.12.006.462-.016.462-.016zm-2.927.206a.882.882 0 0 0 .368.456c.089-.059.225-.127.339-.187.074-.03.153-.083.229-.109-.037-.003-.093-.009-.202-.014-.263-.032-.486-.086-.734-.146zm3.593.215a.975.975 0 0 1 .524.318c.275-.077.581-.255.407-.576-.308.091-.62.175-.931.258zm-2.563.527c.175.104.415.098.602.136a7.569 7.569 0 0 0 1.759-.073c-.114-.168-.334-.168-.512-.219-.593-.141-1.277-.06-1.849.156zm-.27.542c.38.404.981.449 1.501.474.581-.013 1.214-.126 1.663-.525a6.023 6.023 0 0 1-3.164.051z" fill="#5d3174"/><circle cx="63.37" cy="40.385" r=".419" fill="#5d3174"/><path fill="#5d3174" d="M63.37 52.645l-5.191-2.955v-2.664l5.191 2.955z"/><path fill="#e51929" d="M63.37 52.645l5.19-2.955v-2.664l-5.19 2.955z"/></g></g><path fill="#9d9d9c" d="M52.756 56.339H73.44v1.276H52.756z"/><g><path d="M65.654 169.975c.735 0 1.458.308 2 .891.53.571.828 1.345.828 2.152v9.586c0 .807-.298 1.581-.828 2.152a2.73 2.73 0 0 1-2 .891c-.399 0-.802-.091-1.181-.279l-3.967-1.964c-1.003-.497-1.646-1.576-1.646-2.764v-5.658c0-1.188.643-2.268 1.646-2.764l3.967-1.964a2.649 2.649 0 0 1 1.181-.279" fill="#1c1c1d"/><path d="M68.68 170.153c-1.243-1.338-3.213-1.717-4.823-.92l-3.967 1.964c-1.491.739-2.454 2.345-2.454 4.093v5.658c0 1.748.963 3.354 2.454 4.093l3.967 1.964a4.014 4.014 0 0 0 1.796.423c1.147 0 2.222-.477 3.027-1.343a4.639 4.639 0 0 0 1.225-3.173v-9.586a4.628 4.628 0 0 0-1.225-3.173z" fill="#9c9ca3"/><path d="M68.68 169.504c-1.243-1.338-3.213-1.717-4.823-.92l-3.967 1.964c-1.491.739-2.454 2.345-2.454 4.093v5.658c0 1.748.963 3.354 2.454 4.093l3.967 1.964a4.014 4.014 0 0 0 1.796.423c1.147 0 2.222-.477 3.027-1.343a4.639 4.639 0 0 0 1.225-3.173v-9.586a4.631 4.631 0 0 0-1.225-3.173z" fill="#6b6b6b"/><path d="M68.68 169.846c-1.243-1.338-3.213-1.717-4.823-.92l-3.967 1.964c-1.491.739-2.454 2.345-2.454 4.093v5.658c0 1.748.963 3.354 2.454 4.093l3.967 1.964a4.014 4.014 0 0 0 1.796.423c1.147 0 2.222-.477 3.027-1.343a4.639 4.639 0 0 0 1.225-3.173v-9.586a4.631 4.631 0 0 0-1.225-3.173z" fill="#242426"/><path d="M65.654 169.288c-.503 0-.99.115-1.448.341l-3.967 1.964c-1.226.607-2.017 1.937-2.017 3.388v5.658c0 1.452.792 2.782 2.017 3.388l3.967 1.964c.458.227.945.341 1.448.341.926 0 1.797-.388 2.451-1.092a3.85 3.85 0 0 0 1.015-2.637v-9.586c0-.996-.361-1.933-1.015-2.637-.654-.703-1.525-1.092-2.451-1.092z" fill="#3d3d40" stroke="#868686" stroke-width=".265" stroke-miterlimit="10"/><path d="M64.433 170.632l-3.768 1.866c-.953.472-1.564 1.497-1.564 2.626v5.376c0 1.129.611 2.154 1.564 2.626l3.769 1.866c1.021.506 2.227.273 3.022-.582a3.004 3.004 0 0 0 .787-2.044v-9.107c0-.767-.283-1.502-.787-2.044-.796-.857-2.002-1.089-3.023-.583z" fill="#949494"/><path d="M65.411 171.12c-.738 0-1.339.643-1.339 1.432 0 .79.601 1.433 1.339 1.433.739 0 1.339-.643 1.339-1.433s-.601-1.432-1.339-1.432zm0 2.628c-.608 0-1.103-.537-1.103-1.197s.495-1.196 1.103-1.196c.609 0 1.104.536 1.104 1.196-.001.66-.496 1.197-1.104 1.197zM65.411 174.544c-.738 0-1.339.643-1.339 1.433 0 .789.601 1.432 1.339 1.432.739 0 1.339-.643 1.339-1.432 0-.79-.601-1.433-1.339-1.433zm0 2.629c-.608 0-1.103-.536-1.103-1.196 0-.66.495-1.197 1.103-1.197.609 0 1.104.537 1.104 1.197-.001.66-.496 1.196-1.104 1.196zM65.411 177.97c-.738 0-1.339.643-1.339 1.432s.601 1.432 1.339 1.432c.739 0 1.339-.643 1.339-1.432s-.601-1.432-1.339-1.432zm0 2.628c-.608 0-1.103-.536-1.103-1.196 0-.66.495-1.196 1.103-1.196.609 0 1.104.536 1.104 1.196-.001.66-.496 1.196-1.104 1.196zM65.411 181.395c-.738 0-1.339.643-1.339 1.432 0 .79.601 1.433 1.339 1.433.739 0 1.339-.643 1.339-1.433 0-.789-.601-1.432-1.339-1.432zm0 2.629c-.608 0-1.103-.537-1.103-1.197s.495-1.196 1.103-1.196c.609 0 1.104.536 1.104 1.196-.001.66-.496 1.197-1.104 1.197zM62.154 172.832c-.739 0-1.339.643-1.339 1.432 0 .79.601 1.433 1.339 1.433s1.339-.643 1.339-1.433c0-.789-.601-1.432-1.339-1.432zm0 2.629c-.609 0-1.104-.537-1.104-1.197s.495-1.196 1.104-1.196c.608 0 1.103.536 1.103 1.196s-.495 1.197-1.103 1.197zM62.154 176.257c-.739 0-1.339.643-1.339 1.432 0 .79.601 1.433 1.339 1.433s1.339-.643 1.339-1.433c0-.789-.601-1.432-1.339-1.432zm0 2.629c-.609 0-1.104-.537-1.104-1.197s.495-1.196 1.104-1.196c.608 0 1.103.536 1.103 1.196 0 .66-.495 1.197-1.103 1.197zM62.154 179.682c-.739 0-1.339.643-1.339 1.433 0 .789.601 1.432 1.339 1.432s1.339-.643 1.339-1.432c0-.79-.601-1.433-1.339-1.433zm0 2.629c-.609 0-1.104-.536-1.104-1.196 0-.66.495-1.197 1.104-1.197.608 0 1.103.537 1.103 1.197s-.495 1.196-1.103 1.196z" fill="#3d3d40" stroke="#868686" stroke-width=".265" stroke-miterlimit="10"/><path d="M65.411 171.36c-.738 0-1.339.643-1.339 1.432 0 .79.601 1.433 1.339 1.433.739 0 1.339-.643 1.339-1.433 0-.789-.601-1.432-1.339-1.432zm0 2.629c-.608 0-1.103-.537-1.103-1.197s.495-1.196 1.103-1.196c.609 0 1.104.536 1.104 1.196-.001.66-.496 1.197-1.104 1.197zM65.411 174.785c-.738 0-1.339.643-1.339 1.433 0 .789.601 1.432 1.339 1.432.739 0 1.339-.643 1.339-1.432 0-.791-.601-1.433-1.339-1.433zm0 2.628c-.608 0-1.103-.536-1.103-1.196s.495-1.197 1.103-1.197c.609 0 1.104.537 1.104 1.197s-.496 1.196-1.104 1.196zM65.411 178.21c-.738 0-1.339.643-1.339 1.432 0 .789.601 1.432 1.339 1.432.739 0 1.339-.643 1.339-1.432 0-.789-.601-1.432-1.339-1.432zm0 2.628c-.608 0-1.103-.536-1.103-1.196 0-.66.495-1.196 1.103-1.196.609 0 1.104.536 1.104 1.196-.001.66-.496 1.196-1.104 1.196zM65.411 181.635c-.738 0-1.339.643-1.339 1.432 0 .79.601 1.433 1.339 1.433.739 0 1.339-.643 1.339-1.433 0-.789-.601-1.432-1.339-1.432zm0 2.629c-.608 0-1.103-.537-1.103-1.197s.495-1.196 1.103-1.196c.609 0 1.104.536 1.104 1.196s-.496 1.197-1.104 1.197zM62.154 173.073c-.739 0-1.339.643-1.339 1.432 0 .79.601 1.433 1.339 1.433s1.339-.643 1.339-1.433-.601-1.432-1.339-1.432zm0 2.628c-.609 0-1.104-.537-1.104-1.197s.495-1.196 1.104-1.196c.608 0 1.103.536 1.103 1.196 0 .66-.495 1.197-1.103 1.197zM62.154 176.498c-.739 0-1.339.643-1.339 1.432 0 .79.601 1.433 1.339 1.433s1.339-.643 1.339-1.433-.601-1.432-1.339-1.432zm0 2.628c-.609 0-1.104-.537-1.104-1.197s.495-1.196 1.104-1.196c.608 0 1.103.536 1.103 1.196 0 .66-.495 1.197-1.103 1.197zM62.154 179.922c-.739 0-1.339.643-1.339 1.433 0 .789.601 1.432 1.339 1.432s1.339-.643 1.339-1.432c0-.79-.601-1.433-1.339-1.433zm0 2.629c-.609 0-1.104-.536-1.104-1.196 0-.66.495-1.197 1.104-1.197.608 0 1.103.537 1.103 1.197s-.495 1.196-1.103 1.196z" fill="#a8a8a8"/><g><ellipse cx="65.411" cy="172.674" rx="1.221" ry="1.314" fill="#3d3e3e"/><ellipse cx="65.411" cy="176.099" rx="1.221" ry="1.314" fill="#3d3e3e"/><ellipse cx="65.411" cy="179.524" rx="1.221" ry="1.314" fill="#3d3e3e"/><ellipse cx="65.411" cy="182.949" rx="1.221" ry="1.314" fill="#3d3e3e"/></g><g><ellipse cx="62.154" cy="174.386" rx="1.221" ry="1.314" fill="#3d3e3e"/><ellipse cx="62.154" cy="177.812" rx="1.221" ry="1.314" fill="#3d3e3e"/><ellipse cx="62.154" cy="181.237" rx="1.221" ry="1.314" fill="#3d3e3e"/></g></g><g><path d="M65.654 149.553c.735 0 1.458.308 2 .891.53.571.828 1.345.828 2.152v9.586c0 .807-.298 1.581-.828 2.152a2.73 2.73 0 0 1-2 .891c-.399 0-.802-.091-1.181-.279l-3.967-1.964c-1.003-.497-1.646-1.576-1.646-2.764v-5.658c0-1.188.643-2.268 1.646-2.764l3.967-1.964a2.662 2.662 0 0 1 1.181-.279" fill="#1c1c1d"/><path d="M68.68 149.731c-1.243-1.338-3.213-1.717-4.823-.92l-3.967 1.964c-1.491.739-2.454 2.345-2.454 4.093v5.658c0 1.748.963 3.354 2.454 4.093l3.967 1.964a4.014 4.014 0 0 0 1.796.423c1.147 0 2.222-.477 3.027-1.343a4.639 4.639 0 0 0 1.225-3.173v-9.586a4.628 4.628 0 0 0-1.225-3.173z" fill="#9c9ca3"/><path d="M68.68 149.083c-1.243-1.338-3.213-1.717-4.823-.92l-3.967 1.964c-1.491.739-2.454 2.345-2.454 4.093v5.658c0 1.748.963 3.354 2.454 4.093l3.967 1.964a4.014 4.014 0 0 0 1.796.423c1.147 0 2.222-.477 3.027-1.343a4.639 4.639 0 0 0 1.225-3.173v-9.586a4.628 4.628 0 0 0-1.225-3.173z" fill="#6b6b6b"/><path d="M68.68 149.424c-1.243-1.338-3.213-1.717-4.823-.92l-3.967 1.964c-1.491.739-2.454 2.345-2.454 4.093v5.658c0 1.748.963 3.354 2.454 4.093l3.967 1.964a4.014 4.014 0 0 0 1.796.423c1.147 0 2.222-.477 3.027-1.343a4.639 4.639 0 0 0 1.225-3.173v-9.586a4.631 4.631 0 0 0-1.225-3.173z" fill="#242426"/><path d="M65.654 148.867c-.503 0-.99.115-1.448.341l-3.967 1.964c-1.226.607-2.017 1.937-2.017 3.388v5.658c0 1.452.792 2.782 2.017 3.388l3.967 1.964c.458.227.945.341 1.448.341.926 0 1.797-.388 2.451-1.092a3.85 3.85 0 0 0 1.015-2.637v-9.586c0-.996-.361-1.933-1.015-2.637-.654-.704-1.525-1.092-2.451-1.092z" fill="#3d3d40" stroke="#868686" stroke-width=".265" stroke-miterlimit="10"/><path d="M64.433 150.21l-3.768 1.866c-.953.472-1.564 1.497-1.564 2.626v5.376c0 1.129.611 2.154 1.564 2.626l3.769 1.866c1.021.506 2.227.273 3.022-.582a3.004 3.004 0 0 0 .787-2.044v-9.107c0-.767-.283-1.502-.787-2.044-.796-.856-2.002-1.089-3.023-.583z" fill="#949494"/><path d="M65.411 150.698c-.738 0-1.339.643-1.339 1.432 0 .79.601 1.433 1.339 1.433.739 0 1.339-.643 1.339-1.433s-.601-1.432-1.339-1.432zm0 2.628c-.608 0-1.103-.537-1.103-1.197s.495-1.196 1.103-1.196c.609 0 1.104.536 1.104 1.196-.001.66-.496 1.197-1.104 1.197zM65.411 154.123c-.738 0-1.339.643-1.339 1.433 0 .789.601 1.432 1.339 1.432.739 0 1.339-.643 1.339-1.432 0-.791-.601-1.433-1.339-1.433zm0 2.628c-.608 0-1.103-.536-1.103-1.196s.495-1.197 1.103-1.197c.609 0 1.104.537 1.104 1.197s-.496 1.196-1.104 1.196zM65.411 157.548c-.738 0-1.339.643-1.339 1.432s.601 1.432 1.339 1.432c.739 0 1.339-.643 1.339-1.432s-.601-1.432-1.339-1.432zm0 2.628c-.608 0-1.103-.536-1.103-1.196 0-.66.495-1.196 1.103-1.196.609 0 1.104.536 1.104 1.196-.001.66-.496 1.196-1.104 1.196zM65.411 160.973c-.738 0-1.339.643-1.339 1.432 0 .79.601 1.433 1.339 1.433.739 0 1.339-.643 1.339-1.433 0-.789-.601-1.432-1.339-1.432zm0 2.629c-.608 0-1.103-.537-1.103-1.197s.495-1.196 1.103-1.196c.609 0 1.104.536 1.104 1.196-.001.66-.496 1.197-1.104 1.197zM62.154 152.411c-.739 0-1.339.643-1.339 1.432 0 .79.601 1.433 1.339 1.433s1.339-.643 1.339-1.433-.601-1.432-1.339-1.432zm0 2.628c-.609 0-1.104-.537-1.104-1.197s.495-1.196 1.104-1.196c.608 0 1.103.536 1.103 1.196 0 .66-.495 1.197-1.103 1.197zM62.154 155.835c-.739 0-1.339.643-1.339 1.432 0 .79.601 1.433 1.339 1.433s1.339-.643 1.339-1.433c0-.789-.601-1.432-1.339-1.432zm0 2.629c-.609 0-1.104-.537-1.104-1.197s.495-1.196 1.104-1.196c.608 0 1.103.536 1.103 1.196 0 .66-.495 1.197-1.103 1.197zM62.154 159.26c-.739 0-1.339.643-1.339 1.433 0 .789.601 1.432 1.339 1.432s1.339-.643 1.339-1.432c0-.79-.601-1.433-1.339-1.433zm0 2.629c-.609 0-1.104-.536-1.104-1.196 0-.66.495-1.197 1.104-1.197.608 0 1.103.537 1.103 1.197s-.495 1.196-1.103 1.196z" fill="#3d3d40" stroke="#868686" stroke-width=".265" stroke-miterlimit="10"/><path d="M65.411 150.938c-.738 0-1.339.643-1.339 1.432 0 .79.601 1.433 1.339 1.433.739 0 1.339-.643 1.339-1.433 0-.789-.601-1.432-1.339-1.432zm0 2.629c-.608 0-1.103-.537-1.103-1.197s.495-1.196 1.103-1.196c.609 0 1.104.536 1.104 1.196-.001.66-.496 1.197-1.104 1.197zM65.411 154.363c-.738 0-1.339.643-1.339 1.433 0 .789.601 1.432 1.339 1.432.739 0 1.339-.643 1.339-1.432 0-.79-.601-1.433-1.339-1.433zm0 2.629c-.608 0-1.103-.536-1.103-1.196 0-.66.495-1.197 1.103-1.197.609 0 1.104.537 1.104 1.197-.001.659-.496 1.196-1.104 1.196zM65.411 157.789c-.738 0-1.339.643-1.339 1.432 0 .789.601 1.432 1.339 1.432.739 0 1.339-.643 1.339-1.432 0-.79-.601-1.432-1.339-1.432zm0 2.627c-.608 0-1.103-.536-1.103-1.196 0-.66.495-1.196 1.103-1.196.609 0 1.104.536 1.104 1.196-.001.66-.496 1.196-1.104 1.196zM65.411 161.213c-.738 0-1.339.643-1.339 1.432 0 .79.601 1.433 1.339 1.433.739 0 1.339-.643 1.339-1.433 0-.789-.601-1.432-1.339-1.432zm0 2.629c-.608 0-1.103-.537-1.103-1.197s.495-1.196 1.103-1.196c.609 0 1.104.536 1.104 1.196s-.496 1.197-1.104 1.197zM62.154 152.651c-.739 0-1.339.643-1.339 1.432 0 .79.601 1.433 1.339 1.433s1.339-.643 1.339-1.433c0-.789-.601-1.432-1.339-1.432zm0 2.629c-.609 0-1.104-.537-1.104-1.197s.495-1.196 1.104-1.196c.608 0 1.103.536 1.103 1.196 0 .66-.495 1.197-1.103 1.197zM62.154 156.076c-.739 0-1.339.643-1.339 1.432 0 .79.601 1.433 1.339 1.433s1.339-.643 1.339-1.433-.601-1.432-1.339-1.432zm0 2.628c-.609 0-1.104-.537-1.104-1.197s.495-1.196 1.104-1.196c.608 0 1.103.536 1.103 1.196 0 .66-.495 1.197-1.103 1.197zM62.154 159.501c-.739 0-1.339.643-1.339 1.433 0 .789.601 1.432 1.339 1.432s1.339-.643 1.339-1.432c0-.791-.601-1.433-1.339-1.433zm0 2.628c-.609 0-1.104-.536-1.104-1.196 0-.66.495-1.197 1.104-1.197.608 0 1.103.537 1.103 1.197s-.495 1.196-1.103 1.196z" fill="#a8a8a8"/><g><ellipse cx="65.411" cy="152.252" rx="1.221" ry="1.314" fill="#3d3e3e"/><ellipse cx="65.411" cy="155.677" rx="1.221" ry="1.314" fill="#3d3e3e"/><ellipse cx="65.411" cy="159.102" rx="1.221" ry="1.314" fill="#3d3e3e"/><ellipse cx="65.411" cy="162.527" rx="1.221" ry="1.314" fill="#3d3e3e"/></g><g><ellipse cx="62.154" cy="153.965" rx="1.221" ry="1.314" fill="#3d3e3e"/><ellipse cx="62.154" cy="157.39" rx="1.221" ry="1.314" fill="#3d3e3e"/><ellipse cx="62.154" cy="160.815" rx="1.221" ry="1.314" fill="#3d3e3e"/></g></g><g><path fill="#d9d9d9" d="M79.513 111.688H77.62v-1.893h1.893z"/></g><path fill="#9d9d9c" d="M77.619 111.688l-.053.091h1.879l.068-.091z"/><path fill="#ababab" d="M77.619 109.794l-.053.06v1.925l.053-.091z"/><g><g fill="#9b9b9a"><path d="M77.723 175.763h-1.499a.268.268 0 0 0-.268.268v2.151c0 .05.03.101.079.112a.345.345 0 0 1 0 .672c-.049.012-.079.062-.079.112v2.151c0 .148.12.268.268.268h1.499c.575 0 1.042-.466 1.042-1.042v-3.653c0-.572-.466-1.039-1.042-1.039zm-.362.699a.23.23 0 1 1 0 .46.23.23 0 0 1 0-.46zm0 .74a.23.23 0 1 1 0 .46.23.23 0 0 1 0-.46zm0 .74a.23.23 0 1 1 0 .46.23.23 0 0 1 0-.46zm.207 3.177a1.06 1.06 0 1 1-.413-2.08 1.06 1.06 0 0 1 .413 2.08zM75.456 178.922h.311a.189.189 0 0 0 .189-.189v-.202a.189.189 0 0 0-.189-.189h-.311a.189.189 0 0 0-.189.189v.202c0 .104.084.189.189.189zM75.171 178.155v.954c0 .118-.113.19-.201.128l-.675-.477c-.083-.059-.083-.198 0-.257l.675-.477c.087-.062.201.01.201.129z"/></g><g fill="#ebebeb"><path d="M77.591 175.621h-1.499a.268.268 0 0 0-.268.268v2.151c0 .05.03.101.079.112a.345.345 0 0 1 0 .672c-.049.012-.079.062-.079.112v2.151c0 .148.12.268.268.268h1.499c.575 0 1.042-.466 1.042-1.042v-3.653a1.04 1.04 0 0 0-1.042-1.039zm-.362.698a.23.23 0 1 1 0 .46.23.23 0 0 1 0-.46zm0 .74a.23.23 0 1 1 0 .46.23.23 0 0 1 0-.46zm0 .741a.23.23 0 1 1 0 .46.23.23 0 0 1 0-.46zm.207 3.176a1.06 1.06 0 1 1-.413-2.08 1.06 1.06 0 0 1 .413 2.08zM75.324 178.779h.311a.189.189 0 0 0 .189-.189v-.202a.189.189 0 0 0-.189-.189h-.311a.189.189 0 0 0-.189.189v.202c0 .105.085.189.189.189zM75.039 178.012v.954c0 .118-.113.19-.201.128l-.675-.477c-.083-.059-.083-.198 0-.257l.675-.477c.087-.061.201.011.201.129z"/></g><path d="M77.681 175.704h-1.499a.268.268 0 0 0-.268.268v2.151c0 .05.03.101.079.112a.345.345 0 0 1 0 .672c-.049.012-.079.062-.079.112v2.151c0 .148.12.268.268.268h1.499c.575 0 1.042-.466 1.042-1.042v-3.653c0-.573-.467-1.039-1.042-1.039zm-.363.698a.23.23 0 1 1 0 .46.23.23 0 0 1 0-.46zm0 .74a.23.23 0 1 1 0 .46.23.23 0 0 1 0-.46zm0 .741a.23.23 0 1 1 0 .46.23.23 0 0 1 0-.46zm.208 3.176a1.06 1.06 0 1 1-.413-2.08 1.06 1.06 0 0 1 .413 2.08zM75.414 178.862h.311a.189.189 0 0 0 .189-.189v-.202a.189.189 0 0 0-.189-.189h-.311a.189.189 0 0 0-.189.189v.202a.188.188 0 0 0 .189.189zM75.128 178.095v.954c0 .118-.113.19-.201.128l-.675-.477c-.083-.059-.083-.198 0-.257l.675-.477c.088-.062.201.011.201.129z" fill="#d5d5d4"/></g><g><g fill="#9b9b9a"><path d="M77.723 154.242h-1.499a.268.268 0 0 0-.268.268v2.151c0 .05.03.101.079.112a.345.345 0 0 1 0 .672c-.049.012-.079.062-.079.112v2.151c0 .148.12.268.268.268h1.499c.575 0 1.042-.466 1.042-1.042v-3.653a1.04 1.04 0 0 0-1.042-1.039zm-.362.698a.23.23 0 1 1 0 .46.23.23 0 0 1 0-.46zm0 .741a.23.23 0 1 1 0 .46.23.23 0 0 1 0-.46zm0 .74a.23.23 0 1 1 0 .46.23.23 0 0 1 0-.46zm.207 3.176a1.06 1.06 0 1 1-.413-2.08 1.06 1.06 0 0 1 .413 2.08zM75.456 157.401h.311a.189.189 0 0 0 .189-.189v-.202a.189.189 0 0 0-.189-.189h-.311a.189.189 0 0 0-.189.189v.202c0 .104.084.189.189.189zM75.171 156.633v.954c0 .118-.113.19-.201.128l-.675-.477c-.083-.059-.083-.198 0-.256l.675-.477c.087-.062.201.01.201.128z"/></g><g fill="#ebebeb"><path d="M77.591 154.099h-1.499a.268.268 0 0 0-.268.268v2.151c0 .05.03.101.079.112a.345.345 0 0 1 0 .672c-.049.012-.079.062-.079.112v2.151c0 .148.12.268.268.268h1.499c.575 0 1.042-.466 1.042-1.042v-3.653c0-.572-.466-1.039-1.042-1.039zm-.362.699a.23.23 0 1 1 0 .46.23.23 0 0 1 0-.46zm0 .74a.23.23 0 1 1 0 .46.23.23 0 0 1 0-.46zm0 .74a.23.23 0 1 1 0 .46.23.23 0 0 1 0-.46zm.207 3.176a1.06 1.06 0 1 1-.413-2.08 1.06 1.06 0 0 1 .413 2.08zM75.324 157.258h.311a.189.189 0 0 0 .189-.189v-.202a.189.189 0 0 0-.189-.189h-.311a.189.189 0 0 0-.189.189v.202a.19.19 0 0 0 .189.189zM75.039 156.49v.954c0 .118-.113.19-.201.128l-.675-.477c-.083-.059-.083-.198 0-.257l.675-.477c.087-.061.201.011.201.129z"/></g><path d="M77.681 154.182h-1.499a.268.268 0 0 0-.268.268v2.151c0 .05.03.101.079.112a.345.345 0 0 1 0 .672c-.049.012-.079.062-.079.112v2.151c0 .148.12.268.268.268h1.499c.575 0 1.042-.466 1.042-1.042v-3.653c0-.572-.467-1.039-1.042-1.039zm-.363.698a.23.23 0 1 1 0 .46.23.23 0 0 1 0-.46zm0 .741a.23.23 0 1 1 0 .46.23.23 0 0 1 0-.46zm0 .74a.23.23 0 1 1 0 .46.23.23 0 0 1 0-.46zm.208 3.176a1.06 1.06 0 1 1-.413-2.08 1.06 1.06 0 0 1 .413 2.08zM75.414 157.341h.311a.189.189 0 0 0 .189-.189v-.202a.189.189 0 0 0-.189-.189h-.311a.189.189 0 0 0-.189.189v.202a.188.188 0 0 0 .189.189zM75.128 156.573v.954c0 .118-.113.19-.201.128l-.675-.477c-.083-.059-.083-.198 0-.257l.675-.477c.088-.061.201.011.201.129z" fill="#d5d5d4"/></g><g><g fill="#9a9999"><path d="M114.376 195.813c.548 0 .489-.143.506-.293.003-.028.006-.083.008-.147h-.295a1.488 1.488 0 0 1-.003.07c-.008.075 0 .11-.216.11s-.207-.035-.216-.11a4.11 4.11 0 0 1 0-.44c.009-.075 0-.11.216-.11s.207.035.216.11l.003.075h.295a2.489 2.489 0 0 0-.008-.152c-.017-.15.042-.293-.506-.293s-.489.143-.506.293a4.301 4.301 0 0 0 0 .594c.018.15-.041.293.506.293zM110.373 194.948l.288.842h.289l.286-.842v.842h.288v-1.13l-.431.002-.289.842-.288-.842-.431-.002v1.13h.288zM114.955 194.66v.288h.27v.842h.288v-.842h.27v-.288zM113.096 195.538l-.005.018h.378l.068.234h.288l-.331-1.131h-.43l-.331 1.131h.288l.075-.252zm.318-.166h-.27l.136-.461.134.461zM109.897 195.52c.006-.049.01-.173.01-.297a3.3 3.3 0 0 0-.01-.297c-.017-.15.042-.293-.506-.293s-.489.143-.506.293a4.301 4.301 0 0 0 0 .594c.017.15-.042.293.506.293s.489-.143.506-.293zm-.29-.077c-.009.075 0 .11-.216.11s-.207-.035-.216-.11a4.11 4.11 0 0 1 0-.44c.008-.075 0-.11.216-.11s.207.035.216.11a4.11 4.11 0 0 1 0 .44zM108.199 195.813c.548 0 .489-.143.506-.293.003-.028.006-.083.008-.147h-.295a1.488 1.488 0 0 1-.003.07c-.008.075 0 .11-.216.11s-.207-.035-.216-.11a4.11 4.11 0 0 1 0-.44c.009-.075 0-.11.216-.11s.207.035.216.11l.003.075h.295a2.489 2.489 0 0 0-.008-.152c-.017-.15.042-.293-.506-.293s-.489.143-.506.293a4.301 4.301 0 0 0 0 .594c.018.15-.041.293.506.293zM112.733 194.953c-.02-.149.04-.293-.508-.293h-.463v1.129h.289v-.257h.175c.548 0 .494-.142.508-.292.002-.026.002-.108.002-.143 0-.045 0-.126-.003-.144zm-.29.209c-.009.075-.002.11-.218.11l-.175.001v-.353h.175c.216 0 .209.035.218.11.003.024.002.003.002.065 0 .063.001.043-.002.067zM107.064 194.657h-.868a.246.246 0 0 0-.246.245l.001 1.101a.103.103 0 0 1-.103.103l-1.031-.002a.72.72 0 0 0-.72.72v2.746c0 .398.323.72.72.72l1.795-.001h.451c.136 0 .246-.11.246-.246v-5.142a.245.245 0 0 0-.245-.244zm-.098 5.389h-.346l-1.804-.002a.473.473 0 0 1-.473-.473v-2.746c0-.261.212-.473.473-.473l1.129-.001c.136 0 .246-.11.246-.245l.003-1.098c0-.057.046-.103.103-.103h.662c.057 0 .103.046.103.103l.007 4.935a.103.103 0 0 1-.103.103z"/><path d="M106.195 197.258a.515.515 0 1 0-1.03 0v1.918a.515.515 0 1 0 1.03 0v-1.918zm-.245 1.918a.27.27 0 0 1-.54 0v-1.918a.27.27 0 0 1 .54 0v1.918zM108.768 196.107h-.868a.245.245 0 0 0-.245.246l-.001 3.691c0 .136.109.246.245.246h.87c.136 0 .246-.11.246-.245v-3.692a.247.247 0 0 0-.247-.246zm-.097 3.938h-.673a.103.103 0 0 1-.103-.103l.004-3.485c0-.057.046-.103.103-.103h.662c.057 0 .103.046.103.103l.007 3.485a.103.103 0 0 1-.103.103zM111.454 197.04zM111.723 197.604l-.996.003a.163.163 0 0 1 0-.326h.719l.008-.242-.727-.001a.405.405 0 1 0 0 .81l.996.003c.261 0 .473.212.473.473l-.003 1.24a.473.473 0 0 1-.473.473l-1.978.004a.103.103 0 0 1-.103-.103v-.48c0-.057.046-.103.103-.103l1.348-.004a.405.405 0 1 0 0-.81l-.976-.004a.473.473 0 0 1-.473-.473v-1.239c0-.261.212-.473.473-.473l1.833-.009c.057 0 .103.046.103.103v.491a.103.103 0 0 1-.103.103l-.493-.001-.008.242h.603a.244.244 0 0 0 .245-.245l.001-.688a.246.246 0 0 0-.245-.246l-1.935.001a.72.72 0 0 0-.72.72v1.239c0 .398.323.72.72.72l.976-.002a.163.163 0 0 1 0 .326h-1.453a.245.245 0 0 0-.245.246v.687c0 .136.11.245.245.245h2.082a.72.72 0 0 0 .72-.72l.003-1.24a.72.72 0 0 0-.72-.72zM114.739 197.969h.796c.136 0 .246-.11.246-.246v-.899a.72.72 0 0 0-.72-.72h-1.562a.72.72 0 0 0-.72.72v2.746c0 .398.323.72.72.72h1.562a.72.72 0 0 0 .72-.72v-.86a.246.246 0 0 0-.246-.246h-.796a.246.246 0 0 0-.246.246l.003.465c0 .149-.069.27-.218.27s-.218-.121-.218-.27v-1.918c0-.149.069-.27.218-.27s.218.121.218.27l-.003.465c0 .137.11.247.246.247zm-.461-1.225c-.284 0-.463.23-.463.515v1.918c0 .284.179.515.463.515.284 0 .463-.23.463-.515l-.003-.36c0-.057.046-.103.103-.103h.589c.057 0 .103.046.103.103l-.001.755a.473.473 0 0 1-.473.473h-1.562a.473.473 0 0 1-.473-.473v-2.746c0-.261.212-.473.473-.473h1.562c.261 0 .473.212.473.473l.001.794a.103.103 0 0 1-.103.103h-.589a.103.103 0 0 1-.103-.103l.003-.36c0-.286-.179-.516-.463-.516z"/></g><g fill="#ebebeb"><path d="M114.25 195.626c.548 0 .489-.143.506-.293.003-.028.006-.083.008-.147h-.295a1.488 1.488 0 0 1-.003.07c-.009.075 0 .11-.216.11s-.207-.035-.216-.11a4.11 4.11 0 0 1 0-.44c.009-.075 0-.11.216-.11s.207.035.216.11l.003.075h.295a2.489 2.489 0 0 0-.008-.152c-.017-.15.042-.293-.506-.293s-.489.143-.506.293a4.301 4.301 0 0 0 0 .594c.017.15-.042.293.506.293zM110.247 194.761l.288.842h.288l.286-.842v.842h.288v-1.13l-.431.002-.288.842-.288-.842-.432-.002v1.13h.289zM114.828 194.473v.288h.27v.842h.289v-.842h.27v-.288zM112.969 195.352l-.005.018h.378l.068.234h.288l-.331-1.131h-.43l-.331 1.131h.288l.075-.252zm.319-.166h-.27l.136-.461.134.461zM109.77 195.333c.006-.049.01-.173.01-.297a3.3 3.3 0 0 0-.01-.297c-.017-.15.042-.293-.506-.293s-.489.143-.506.293a4.301 4.301 0 0 0 0 .594c.017.15-.042.293.506.293s.489-.143.506-.293zm-.29-.077c-.009.075 0 .11-.216.11s-.207-.035-.216-.11a4.11 4.11 0 0 1 0-.44c.008-.075 0-.11.216-.11s.207.035.216.11a4.11 4.11 0 0 1 0 .44zM108.073 195.626c.548 0 .489-.143.506-.293.003-.028.006-.083.008-.147h-.295a1.488 1.488 0 0 1-.003.07c-.008.075 0 .11-.216.11s-.207-.035-.216-.11a4.11 4.11 0 0 1 0-.44c.009-.075 0-.11.216-.11s.207.035.216.11l.003.075h.295a2.489 2.489 0 0 0-.008-.152c-.017-.15.042-.293-.506-.293s-.489.143-.506.293a4.327 4.327 0 0 0 0 .594c.017.15-.042.293.506.293zM112.607 194.766c-.02-.149.04-.293-.508-.293h-.463v1.129h.289v-.257h.175c.548 0 .494-.142.508-.292.002-.026.002-.108.002-.143-.001-.044-.001-.126-.003-.144zm-.29.21c-.009.075-.002.11-.218.11l-.175.001v-.353h.175c.216 0 .209.035.218.11.003.024.002.003.002.065s0 .042-.002.067zM106.937 194.471h-.868a.246.246 0 0 0-.246.245l.001 1.101a.103.103 0 0 1-.103.103l-1.031-.002a.72.72 0 0 0-.72.72v2.746c0 .398.323.72.72.72l1.795-.001h.451c.136 0 .245-.11.245-.246v-5.142a.242.242 0 0 0-.244-.244zm-.097 5.388h-.346l-1.804-.002a.473.473 0 0 1-.473-.473v-2.746c0-.261.212-.473.473-.473l1.129-.001c.136 0 .246-.11.246-.246l.003-1.098c0-.057.046-.103.103-.103h.662c.057 0 .103.046.103.103l.007 4.935a.103.103 0 0 1-.103.104z"/><path d="M106.069 197.072a.515.515 0 1 0-1.03 0v1.918a.515.515 0 1 0 1.03 0v-1.918zm-.246 1.917a.27.27 0 0 1-.54 0v-1.918a.27.27 0 0 1 .54 0v1.918zM108.642 195.92h-.868a.246.246 0 0 0-.246.246l-.001 3.691c0 .136.109.246.245.246h.87c.136 0 .245-.11.245-.245v-3.692a.246.246 0 0 0-.245-.246zm-.098 3.939h-.673a.103.103 0 0 1-.103-.103l.004-3.485c0-.057.046-.103.103-.103h.662c.057 0 .103.046.103.103l.007 3.485a.103.103 0 0 1-.103.103zM111.327 196.853zM111.596 197.418l-.996.003a.163.163 0 0 1 0-.326h.719l.008-.242-.727-.001a.405.405 0 1 0 0 .81l.996.003c.261 0 .473.212.473.473l-.003 1.24a.473.473 0 0 1-.473.473l-1.978.004a.103.103 0 0 1-.103-.103v-.48c0-.057.046-.103.103-.103l1.348-.004a.405.405 0 1 0 0-.81l-.976-.004a.473.473 0 0 1-.473-.473v-1.239c0-.261.212-.473.473-.473l1.833-.009c.057 0 .103.046.103.103v.491a.103.103 0 0 1-.103.103l-.493-.001-.008.242h.603a.245.245 0 0 0 .246-.245l.001-.688a.246.246 0 0 0-.246-.246l-1.935.001a.72.72 0 0 0-.72.72v1.239c0 .398.323.72.72.72l.976-.002a.163.163 0 0 1 0 .326h-1.453a.245.245 0 0 0-.245.246v.687c0 .136.11.245.245.245h2.082a.72.72 0 0 0 .72-.72l.003-1.24a.72.72 0 0 0-.72-.72zM114.612 197.782h.796c.136 0 .245-.11.245-.246v-.899a.72.72 0 0 0-.72-.72h-1.562a.72.72 0 0 0-.72.72v2.746c0 .398.323.72.72.72h1.562a.72.72 0 0 0 .72-.72v-.86a.246.246 0 0 0-.245-.246h-.796a.246.246 0 0 0-.246.246l.003.465c0 .149-.069.27-.218.27s-.218-.121-.218-.27v-1.918c0-.149.069-.27.218-.27s.218.121.218.27l-.003.465a.247.247 0 0 0 .246.247zm-.46-1.225c-.284 0-.463.23-.463.515v1.918c0 .284.179.515.463.515.284 0 .463-.23.463-.515l-.003-.36c0-.057.046-.103.103-.103h.589c.057 0 .103.046.103.103l-.001.755a.473.473 0 0 1-.473.473h-1.562a.473.473 0 0 1-.473-.473v-2.746c0-.261.212-.473.473-.473h1.562c.261 0 .473.212.473.473l.001.794a.103.103 0 0 1-.103.103h-.589a.103.103 0 0 1-.103-.103l.003-.36c0-.286-.179-.516-.463-.516z"/></g><g fill="#d5d5d4"><path d="M114.282 195.734c.548 0 .489-.143.506-.293.003-.028.006-.083.008-.147h-.295a1.488 1.488 0 0 1-.003.07c-.009.075 0 .11-.216.11s-.207-.035-.216-.11a4.11 4.11 0 0 1 0-.44c.008-.075 0-.11.216-.11s.207.035.216.11l.003.075h.295a2.489 2.489 0 0 0-.008-.152c-.017-.15.042-.293-.506-.293s-.489.143-.506.293a4.301 4.301 0 0 0 0 .594c.018.149-.041.293.506.293zM110.279 194.869l.289.842h.288l.286-.842v.842h.288v-1.13l-.431.002-.288.842-.289-.842-.431-.002v1.13h.288zM114.861 194.581v.288h.27v.842h.288v-.842h.27v-.288zM113.002 195.459l-.005.018h.378l.068.234h.288l-.331-1.131h-.43l-.331 1.131h.288l.075-.252zm.318-.166h-.27l.136-.461.134.461zM109.803 195.441c.006-.049.01-.173.01-.297a3.3 3.3 0 0 0-.01-.297c-.017-.15.042-.293-.506-.293s-.489.143-.506.293a4.301 4.301 0 0 0 0 .594c.017.15-.042.293.506.293s.489-.144.506-.293zm-.29-.078c-.009.075 0 .11-.216.11s-.207-.035-.216-.11a4.11 4.11 0 0 1 0-.44c.009-.075 0-.11.216-.11s.207.035.216.11a4.11 4.11 0 0 1 0 .44zM108.105 195.734c.548 0 .489-.143.506-.293.003-.028.006-.083.008-.147h-.295a1.488 1.488 0 0 1-.003.07c-.008.075 0 .11-.216.11s-.207-.035-.216-.11a4.11 4.11 0 0 1 0-.44c.009-.075 0-.11.216-.11s.207.035.216.11l.003.075h.295a2.489 2.489 0 0 0-.008-.152c-.017-.15.042-.293-.506-.293s-.489.143-.506.293a4.301 4.301 0 0 0 0 .594c.018.149-.041.293.506.293zM112.639 194.874c-.02-.149.04-.293-.508-.293h-.463v1.129h.289v-.257h.175c.548 0 .494-.142.508-.292.002-.026.002-.108.002-.143 0-.045 0-.127-.003-.144zm-.29.209c-.009.075-.002.11-.218.11l-.175.001v-.353h.175c.216 0 .209.035.218.11.003.024.002.003.002.065.001.063.001.043-.002.067zM106.97 194.578h-.868a.246.246 0 0 0-.246.245l.001 1.101a.103.103 0 0 1-.103.103l-1.031-.002a.72.72 0 0 0-.72.72v2.746c0 .398.323.72.72.72l1.795-.001h.451c.136 0 .245-.11.245-.246v-5.142a.242.242 0 0 0-.244-.244zm-.097 5.388h-.346l-1.804-.002a.473.473 0 0 1-.473-.473v-2.746c0-.261.212-.473.473-.473l1.129-.001c.136 0 .246-.11.246-.245l.003-1.098c0-.057.046-.103.103-.103h.662c.057 0 .103.046.103.103l.007 4.935a.104.104 0 0 1-.103.103z"/><path d="M106.101 197.179a.515.515 0 1 0-1.03 0v1.918a.515.515 0 1 0 1.03 0v-1.918zm-.245 1.917a.27.27 0 0 1-.54 0v-1.918a.27.27 0 0 1 .54 0v1.918zM108.674 196.028h-.868a.246.246 0 0 0-.246.246l-.001 3.691c0 .136.109.246.245.246h.87c.136 0 .245-.11.245-.245v-3.692a.244.244 0 0 0-.245-.246zm-.097 3.938h-.673a.103.103 0 0 1-.103-.103l.004-3.485c0-.057.046-.103.103-.103h.662c.057 0 .103.046.103.103l.007 3.485a.103.103 0 0 1-.103.103zM111.36 196.961zM111.629 197.525l-.996.003a.163.163 0 0 1 0-.326h.719l.008-.242-.727-.001a.405.405 0 1 0 0 .81l.996.003c.261 0 .473.212.473.473l-.003 1.24a.473.473 0 0 1-.473.473l-1.978.004a.103.103 0 0 1-.103-.103v-.48c0-.057.046-.103.103-.103l1.348-.004a.405.405 0 1 0 0-.81l-.976-.004a.473.473 0 0 1-.473-.473v-1.239c0-.261.212-.473.473-.473l1.833-.009c.057 0 .103.046.103.103v.491a.103.103 0 0 1-.103.103l-.493-.001-.008.242h.603a.245.245 0 0 0 .246-.245l.001-.688a.246.246 0 0 0-.246-.246l-1.935.001a.72.72 0 0 0-.72.72v1.239c0 .398.323.72.72.72l.976-.002a.163.163 0 0 1 0 .326h-1.453a.245.245 0 0 0-.245.246v.687c0 .136.11.245.245.245h2.082a.72.72 0 0 0 .72-.72l.003-1.24a.72.72 0 0 0-.72-.72zM114.645 197.89h.796c.136 0 .245-.11.245-.246v-.899a.72.72 0 0 0-.72-.72h-1.562a.72.72 0 0 0-.72.72v2.746c0 .398.323.72.72.72h1.562a.72.72 0 0 0 .72-.72v-.86a.246.246 0 0 0-.245-.246h-.796a.245.245 0 0 0-.245.246l.003.465c0 .149-.069.27-.218.27s-.218-.121-.218-.27v-1.918c0-.149.069-.27.218-.27s.218.121.218.27l-.003.465a.245.245 0 0 0 .245.247zm-.461-1.226c-.284 0-.463.23-.463.515v1.918c0 .284.179.515.463.515.284 0 .463-.23.463-.515l-.003-.36c0-.057.046-.103.103-.103h.589c.057 0 .103.046.103.103l-.001.755a.473.473 0 0 1-.473.473h-1.562a.473.473 0 0 1-.473-.473v-2.746c0-.261.212-.473.473-.473h1.562c.261 0 .473.212.473.473l.001.794a.103.103 0 0 1-.103.103h-.589a.103.103 0 0 1-.103-.103l.003-.36c0-.285-.179-.516-.463-.516z"/></g></g><g><path d="M81.512 181.219v.196h-1.016l.566-.679a1.19 1.19 0 0 0 .154-.224.382.382 0 0 0 .049-.175.237.237 0 0 0-.067-.178.25.25 0 0 0-.183-.064.237.237 0 0 0-.171.064.261.261 0 0 0-.076.171h-.237c0-.136.046-.245.137-.326a.534.534 0 0 1 .368-.121c.146 0 .262.037.347.112a.392.392 0 0 1 .126.308.597.597 0 0 1-.073.28 2.377 2.377 0 0 1-.309.41l-.193.225h.578z" fill="#9d9d9c"/><path d="M81.388 181.061v.196h-1.016l.566-.679a1.19 1.19 0 0 0 .154-.224.382.382 0 0 0 .049-.175.237.237 0 0 0-.067-.178.25.25 0 0 0-.183-.064.237.237 0 0 0-.171.064.261.261 0 0 0-.076.171h-.237c0-.136.046-.245.137-.326a.534.534 0 0 1 .368-.121c.146 0 .262.037.347.112a.392.392 0 0 1 .126.308.597.597 0 0 1-.073.28 2.377 2.377 0 0 1-.309.41l-.193.225h.578z" fill="#d2d2d2"/></g><g><g fill="#9d9d9c"><path d="M60.079 64.66v.681h-.231v-1.516h.373c.11 0 .191.006.244.018a.383.383 0 0 1 .136.06.35.35 0 0 1 .112.143.489.489 0 0 1 0 .396.344.344 0 0 1-.112.143c-.039.027-.084.047-.136.059s-.133.018-.244.018H60.079zm.015-.201h.063c.137 0 .228-.016.273-.045.046-.029.068-.082.068-.157 0-.081-.024-.138-.073-.171-.049-.033-.138-.05-.269-.05h-.063v.423zM62.488 64.586a.774.774 0 0 1-.237.563.833.833 0 0 1-.573.233.81.81 0 0 1-.751-.489.785.785 0 0 1-.06-.307.785.785 0 0 1 .236-.565.799.799 0 0 1 .575-.231.81.81 0 0 1 .749.491.766.766 0 0 1 .061.305zm-.256 0a.584.584 0 0 0-.163-.403.551.551 0 0 0-.904.183.602.602 0 0 0 0 .438.58.58 0 0 0 .299.307.547.547 0 0 0 .604-.124.594.594 0 0 0 .121-.184.553.553 0 0 0 .043-.217zM62.548 63.825h.244l.287.765.047.133.034.106a7.2 7.2 0 0 1 .075-.235l.007-.02.305-.81.321.825c.015.04.03.08.043.12.014.04.026.081.038.121.007-.031.017-.065.028-.103s.027-.081.045-.132l.285-.771h.246l-.587 1.574-.346-.864a3.88 3.88 0 0 1-.075-.212l-.035.114c-.012.035-.023.069-.036.102l-.34.86-.586-1.573zM64.677 65.34v-1.516h.846v.209h-.6v.38h.6v.217h-.6v.489h.6v.221h-.846zM65.995 64.662v.679h-.231v-1.516h.344c.101 0 .179.006.235.02a.354.354 0 0 1 .251.207.474.474 0 0 1 .038.19c0 .121-.029.217-.088.285s-.145.11-.26.124l.522.689h-.279l-.504-.679h-.028zm.015-.192h.044c.13 0 .217-.015.26-.045.042-.03.064-.085.064-.162 0-.083-.023-.143-.069-.177s-.131-.051-.255-.051h-.044v.435z"/></g><g fill="#d2d2d2"><path d="M59.955 64.501v.681h-.231v-1.516h.373c.11 0 .191.006.244.018a.383.383 0 0 1 .136.06c.048.035.085.083.112.143s.041.125.041.197a.489.489 0 0 1-.041.199.344.344 0 0 1-.112.143c-.039.027-.084.047-.136.059s-.133.018-.244.018H59.955zm.015-.202h.063c.137 0 .228-.016.273-.045.046-.029.068-.082.068-.157 0-.081-.024-.138-.073-.171-.049-.033-.138-.05-.269-.05h-.062v.423zM62.364 64.426a.774.774 0 0 1-.237.563.833.833 0 0 1-.573.233.81.81 0 0 1-.751-.489.785.785 0 0 1-.06-.307.785.785 0 0 1 .236-.565.799.799 0 0 1 .575-.231.81.81 0 0 1 .749.491.77.77 0 0 1 .061.305zm-.256 0a.584.584 0 0 0-.163-.403.551.551 0 0 0-.904.183.602.602 0 0 0 0 .438.58.58 0 0 0 .299.307.547.547 0 0 0 .604-.124.594.594 0 0 0 .121-.184.546.546 0 0 0 .043-.217zM62.424 63.666h.244l.287.765.047.133.034.106a7.2 7.2 0 0 1 .075-.235l.007-.02.305-.81.321.825c.015.04.03.08.043.12.014.04.026.081.038.121.007-.031.017-.065.028-.103s.027-.081.045-.132l.285-.771h.246l-.587 1.574-.346-.864a3.88 3.88 0 0 1-.075-.212l-.035.114c-.012.035-.023.069-.036.102l-.34.86-.586-1.573zM64.553 65.181v-1.516h.846v.209h-.6v.38h.6v.217h-.6v.489h.6v.221h-.846zM65.871 64.503v.679h-.231v-1.516h.344c.101 0 .179.006.235.02a.354.354 0 0 1 .251.207.474.474 0 0 1 .038.19c0 .121-.029.217-.088.285s-.145.11-.26.124l.522.689h-.279l-.504-.679h-.028zm.015-.192h.044c.13 0 .217-.015.26-.045.042-.03.064-.085.064-.162 0-.083-.023-.143-.069-.177s-.131-.051-.255-.051h-.044v.435z"/></g></g><g><g fill="#9d9d9c"><path d="M60.853 72.41v-1.516h.382c.109 0 .189.006.242.018a.33.33 0 0 1 .242.194.433.433 0 0 1 .039.186.35.35 0 0 1-.056.202.283.283 0 0 1-.163.113.314.314 0 0 1 .209.121.4.4 0 0 1 .076.252c0 .062-.011.12-.032.175a.382.382 0 0 1-.091.141.344.344 0 0 1-.154.089 1.252 1.252 0 0 1-.31.026h-.384zm.241-.876h.094a.482.482 0 0 0 .249-.048c.049-.032.073-.087.073-.162 0-.083-.022-.142-.067-.175s-.13-.05-.255-.05h-.094v.435zm0 .67h.085c.086 0 .151-.004.194-.011s.077-.019.102-.036a.2.2 0 0 0 .07-.08.246.246 0 0 0 .025-.112.253.253 0 0 0-.03-.126.205.205 0 0 0-.086-.084.269.269 0 0 0-.08-.026.753.753 0 0 0-.12-.008h-.16v.483zM62.026 70.894h.243v.92c0 .137.032.239.095.309.063.068.158.103.283.103.125 0 .219-.034.282-.103.063-.069.095-.172.095-.309v-.92h.247v.943c0 .205-.052.358-.155.46-.104.102-.26.152-.468.152s-.364-.051-.467-.152c-.103-.101-.154-.255-.154-.46v-.943zM63.481 72.106l.197-.091a.276.276 0 0 0 .103.155c.05.035.113.053.19.053a.25.25 0 0 0 .175-.061.216.216 0 0 0 .064-.164c0-.089-.074-.168-.222-.238l-.047-.022c-.167-.082-.278-.155-.334-.222a.357.357 0 0 1-.083-.241c0-.124.042-.224.126-.301a.473.473 0 0 1 .33-.114c.112 0 .206.021.281.064s.127.105.156.186l-.192.1c-.031-.048-.064-.082-.1-.104s-.078-.033-.125-.033a.233.233 0 0 0-.158.052.176.176 0 0 0-.059.139c0 .091.086.176.257.255l.031.015a.94.94 0 0 1 .309.202.368.368 0 0 1 .084.247.442.442 0 0 1-.136.342.514.514 0 0 1-.367.127c-.129 0-.235-.029-.317-.089s-.138-.147-.163-.257zM65.015 72.41v-.693l-.51-.822h.259l.318.515.028.052c.012.021.023.044.035.069a.864.864 0 0 1 .065-.128l.326-.508h.247l-.522.822v.693h-.246z"/></g><g fill="#d2d2d2"><path d="M60.729 72.251v-1.516h.382c.109 0 .189.006.242.018a.33.33 0 0 1 .242.194.433.433 0 0 1 .039.186.35.35 0 0 1-.056.202.283.283 0 0 1-.163.113.314.314 0 0 1 .209.121.4.4 0 0 1 .076.252c0 .062-.011.12-.032.175a.382.382 0 0 1-.091.141.344.344 0 0 1-.154.089 1.252 1.252 0 0 1-.31.026h-.384zm.241-.876h.094a.482.482 0 0 0 .249-.048c.049-.032.073-.087.073-.162 0-.083-.022-.142-.067-.175s-.13-.05-.255-.05h-.094v.435zm0 .67h.085c.086 0 .151-.004.194-.011s.077-.019.102-.036a.2.2 0 0 0 .07-.08.246.246 0 0 0 .025-.112.253.253 0 0 0-.03-.126.205.205 0 0 0-.086-.084.269.269 0 0 0-.08-.026.753.753 0 0 0-.12-.008h-.16v.483zM61.902 70.735h.243v.92c0 .137.032.239.095.309.063.068.158.103.283.103.125 0 .219-.034.282-.103.063-.069.095-.172.095-.309v-.92h.247v.943c0 .205-.052.358-.155.46-.104.102-.26.152-.468.152s-.364-.051-.467-.152c-.103-.101-.154-.255-.154-.46v-.943zM63.357 71.947l.197-.091a.276.276 0 0 0 .103.155c.05.035.113.053.19.053a.25.25 0 0 0 .175-.061.216.216 0 0 0 .064-.164c0-.089-.074-.168-.222-.238l-.047-.022c-.167-.082-.278-.155-.334-.222a.357.357 0 0 1-.083-.241c0-.124.042-.224.126-.301a.473.473 0 0 1 .33-.114c.112 0 .206.021.281.064s.127.105.156.186l-.192.1a.323.323 0 0 0-.1-.104.236.236 0 0 0-.125-.033c-.066 0-.119.018-.158.052s-.059.081-.059.139c0 .091.086.176.257.255l.031.015a.94.94 0 0 1 .309.202.368.368 0 0 1 .084.247.442.442 0 0 1-.136.342.514.514 0 0 1-.367.127c-.129 0-.235-.029-.317-.089s-.138-.147-.163-.257zM64.891 72.251v-.693l-.51-.822h.259l.318.515.028.052c.012.021.023.044.035.069a.864.864 0 0 1 .065-.128l.326-.508h.247l-.522.822v.693h-.246z"/></g></g><g><path d="M81.011 160.078v-1.307h-.313l.095-.195h.443v1.502h-.225z" fill="#9d9d9c"/><path d="M80.887 159.92v-1.307h-.313l.095-.195h.443v1.502h-.225z" fill="#d2d2d2"/></g><g><g fill="#9d9d9c"><path d="M76.431 102.748v.681H76.2v-1.516h.373c.11 0 .191.006.244.018a.383.383 0 0 1 .136.06c.048.035.085.083.112.143s.041.125.041.197a.489.489 0 0 1-.041.199.344.344 0 0 1-.112.143c-.039.027-.084.047-.136.059s-.133.018-.244.018H76.431zm.015-.201h.063c.137 0 .228-.016.273-.045.046-.029.068-.082.068-.157 0-.081-.024-.138-.073-.171-.049-.033-.138-.05-.269-.05h-.063v.423zM77.28 101.913h.243v.92c0 .137.032.239.095.309.063.068.158.103.283.103.125 0 .219-.034.282-.103.063-.069.095-.172.095-.309v-.92h.247v.943c0 .205-.052.358-.155.46-.104.102-.26.152-.468.152s-.364-.051-.467-.152c-.103-.101-.154-.255-.154-.46v-.943zM78.735 103.125l.197-.091a.276.276 0 0 0 .103.155c.05.035.113.053.19.053a.25.25 0 0 0 .175-.061.216.216 0 0 0 .064-.164c0-.089-.074-.168-.222-.238l-.047-.022c-.167-.082-.278-.155-.334-.222a.357.357 0 0 1-.083-.241c0-.124.042-.224.126-.301a.473.473 0 0 1 .33-.114c.112 0 .206.021.281.064s.127.105.156.186l-.192.1c-.031-.048-.064-.082-.1-.104s-.078-.033-.125-.033c-.066 0-.119.018-.158.052s-.059.081-.059.139c0 .091.086.176.257.255l.031.015a.94.94 0 0 1 .309.202.368.368 0 0 1 .084.247.442.442 0 0 1-.136.342.514.514 0 0 1-.367.127c-.129 0-.235-.029-.317-.089s-.138-.147-.163-.257zM79.943 103.428v-1.516h.247v.559h.746v-.559h.247v1.516h-.247v-.736h-.746v.736h-.247zM77.584 105.218a.774.774 0 0 1-.237.563.833.833 0 0 1-.573.233.81.81 0 0 1-.751-.489.785.785 0 0 1-.06-.307.785.785 0 0 1 .236-.565.799.799 0 0 1 .575-.231.81.81 0 0 1 .749.491c.04.096.061.198.061.305zm-.257 0a.584.584 0 0 0-.163-.403.551.551 0 0 0-.904.183.602.602 0 0 0 0 .438.58.58 0 0 0 .299.307.547.547 0 0 0 .604-.124.594.594 0 0 0 .121-.184.546.546 0 0 0 .043-.217zM78.055 105.293v.681h-.231v-1.516h.373c.11 0 .191.006.244.018a.383.383 0 0 1 .136.06c.048.035.085.083.112.143s.041.125.041.197a.489.489 0 0 1-.041.199.344.344 0 0 1-.112.143c-.039.027-.084.047-.136.059s-.133.018-.244.018H78.055zm.015-.202h.063c.137 0 .228-.016.273-.045.046-.029.068-.082.068-.157 0-.081-.024-.138-.073-.171-.049-.033-.138-.05-.269-.05h-.062v.423zM78.91 105.973v-1.516h.846v.209h-.6v.38h.6v.217h-.6v.489h.6v.221h-.846zM79.997 105.973v-1.576l.963.927.08.084c.027.029.055.063.085.101v-1.051h.228v1.574l-.982-.943a1.155 1.155 0 0 1-.146-.169v1.054h-.228z"/></g><g fill="#d2d2d2"><path d="M76.306 102.589v.681h-.231v-1.516h.373c.11 0 .191.006.244.018a.383.383 0 0 1 .136.06c.048.035.085.083.112.143s.041.125.041.197a.489.489 0 0 1-.041.199.344.344 0 0 1-.112.143c-.039.027-.084.047-.136.059s-.133.018-.244.018H76.306zm.016-.202h.063c.137 0 .228-.016.273-.045.046-.029.068-.082.068-.157 0-.081-.024-.138-.073-.171-.049-.033-.138-.05-.269-.05h-.063v.423zM77.156 101.754h.243v.92c0 .137.032.239.095.309.063.068.158.103.283.103.125 0 .219-.034.282-.103.063-.069.095-.172.095-.309v-.92h.246v.943c0 .205-.052.358-.155.46-.104.102-.26.152-.468.152s-.364-.051-.467-.152c-.103-.101-.154-.255-.154-.46v-.943zM78.61 102.965l.197-.091a.276.276 0 0 0 .103.155c.05.035.113.053.19.053a.25.25 0 0 0 .175-.061.216.216 0 0 0 .064-.164c0-.089-.074-.168-.222-.238l-.047-.022c-.167-.082-.278-.155-.334-.222a.357.357 0 0 1-.083-.241c0-.124.042-.224.126-.301a.473.473 0 0 1 .33-.114c.112 0 .206.021.281.064s.127.105.156.186l-.192.1c-.031-.048-.064-.082-.1-.104s-.078-.033-.125-.033c-.066 0-.119.018-.158.052s-.059.081-.059.139c0 .091.086.176.257.255l.031.015a.94.94 0 0 1 .309.202.368.368 0 0 1 .084.247.442.442 0 0 1-.136.342.514.514 0 0 1-.367.127c-.129 0-.235-.029-.317-.089s-.137-.146-.163-.257zM79.819 103.269v-1.516h.247v.559h.746v-.559h.247v1.516h-.247v-.736h-.746v.736h-.247zM77.459 105.059a.774.774 0 0 1-.237.563.833.833 0 0 1-.573.233.81.81 0 0 1-.751-.489.785.785 0 0 1-.06-.307.785.785 0 0 1 .236-.565.799.799 0 0 1 .575-.231.81.81 0 0 1 .749.491.77.77 0 0 1 .061.305zm-.256 0a.584.584 0 0 0-.163-.403.551.551 0 0 0-.904.183.602.602 0 0 0 0 .438.58.58 0 0 0 .299.307.547.547 0 0 0 .604-.124.568.568 0 0 0 .164-.401zM77.93 105.133v.681h-.231v-1.516h.373c.11 0 .191.006.244.018a.383.383 0 0 1 .136.06c.048.035.085.083.112.143s.041.125.041.197a.489.489 0 0 1-.041.199.344.344 0 0 1-.112.143c-.039.027-.084.047-.136.059s-.133.018-.244.018H77.93zm.016-.201h.063c.137 0 .228-.016.273-.045.046-.029.068-.082.068-.157 0-.081-.024-.138-.073-.171-.049-.033-.138-.05-.269-.05h-.063v.423zM78.786 105.814v-1.516h.846v.209h-.6v.38h.6v.217h-.6v.489h.6v.221h-.846zM79.872 105.814v-1.576l.963.927.08.084c.027.029.055.063.085.101v-1.051h.228v1.574l-.982-.943a1.155 1.155 0 0 1-.146-.169v1.054h-.228z"/></g></g><g><path d="M210.17 131.147c-12.472 0-22.583 10.111-22.583 22.583 0 12.472 10.111 22.583 22.583 22.583 12.472 0 22.583-10.111 22.583-22.583-.001-12.472-10.111-22.583-22.583-22.583zm0 29.791a7.208 7.208 0 1 1 0-14.416 7.208 7.208 0 0 1 0 14.416z" fill="#b6b6b5"/><path d="M210.17 95.012c-32.429 0-58.718 26.289-58.718 58.718s26.289 58.718 58.718 58.718 58.718-26.289 58.718-58.718-26.289-58.718-58.718-58.718zm0 81.301c-12.472 0-22.583-10.111-22.583-22.583 0-12.472 10.111-22.583 22.583-22.583 12.472 0 22.583 10.111 22.583 22.583-.001 12.472-10.111 22.583-22.583 22.583z" fill="#fcc00d"/><path d="M247.524 155.919c.267 0 .534-.016.785-.112.672-.232 1.117-.942 1.095-1.643a1.765 1.765 0 0 0-.344-.959c-.309-.437-.848-.685-1.379-.672h-1.195v1.01l-.003.014h.003v3.691h.486v-1.328m-.005-2.952c.274-.001.548-.006.821.006.407.027.803.254 1.002.615.25.427.221 1.004-.087 1.394a1.197 1.197 0 0 1-.925.48c-.269.004-.532.002-.806.002l-.005-2.497z" fill="#927d4c"/><g fill="#927d4c"><path d="M254.691 155.244v-.916h-.716a1.99 1.99 0 0 1 .04.916h.676z"/><path d="M253.841 155.765a2.007 2.007 0 1 1-.096-1.958h.505a2.448 2.448 0 0 0-4.654 1.065 2.45 2.45 0 0 0 4.729.894h-.484v-.001z"/></g><path fill="none" stroke="#927d4c" stroke-width=".243" stroke-miterlimit="10" d="M239.8 150.175l-3.827 2.063v4.731"/><path d="M240.632 149.807c-.138-.179.061-.416.261-.342.861.132 1.728.417 2.411.974.414.344.761.844.733 1.405.018.741-.457 1.372-.975 1.852-.154.342-.282.71-.57.969-.269.208-.288.579-.518.817-.251.272-.204.101-.311.423-.194.347-.504.547-.817.726-.119.035-.377.169-.455-.055-.027-.121.491-.427.061-.29-.726.067-1.641.018-2.093-.644-.087-.201-.075-.263-.076-.379-.328-.237-.559-.599-.531-1.018-.364-.252-.709-.612-.725-1.081-.062-.46.295-.832.657-1.053.7-.419 1.54-.524 2.342-.522.833.05 1.7.234 2.379.749.264.193.443.469.613.743l.015-.015c.447-.43.753-1.149.46-1.743-.344-.606-.995-.958-1.629-1.19-.395-.169-.838-.165-1.232-.326zm-2.969 2.868c-.413.331-.108 1.007.319 1.139.569-.466 1.326-.6 2.042-.596.642.041 1.306.187 1.825.588.101.116.226-.019.331-.048.155-.099.309-.201.458-.309-.066-.245-.169-.486-.366-.655-.599-.55-1.447-.738-2.24-.75-.819-.019-1.717.089-2.369.631zm2.865 1.618c.304-.042.706-.116.824-.159.159-.048.098-.074.044-.115-.405-.253-.89-.326-1.359-.354-.513-.002-1.052.052-1.506.309-.046.028-.196.056.001.112.441.154 1.531.216 1.626.22.096.005.37-.013.37-.013zm-2.344.165a.712.712 0 0 0 .294.365c.071-.047.18-.102.272-.15.059-.024.123-.066.183-.087-.03-.002-.074-.007-.162-.011a4.618 4.618 0 0 1-.587-.117zm2.877.172a.785.785 0 0 1 .42.255c.22-.061.466-.204.326-.462-.247.074-.497.141-.746.207zm-2.052.423c.14.083.332.078.482.109.467.031.944.021 1.409-.058-.091-.134-.267-.134-.41-.175-.476-.114-1.023-.049-1.481.124zm-.217.434c.305.324.785.359 1.202.379.466-.011.972-.101 1.331-.421a4.817 4.817 0 0 1-2.533.042z" fill="#927d4c"/><circle cx="240.037" cy="149.597" r=".335" fill="#927d4c"/><path fill="#927d4c" d="M240.037 159.415l-4.157-2.366v-2.133l4.157 2.366z"/><path d="M243.951 155.334v1.574l-3.671 2.089v-1.574l3.671-2.089m.244-.418l-4.157 2.366v2.133l4.157-2.366v-2.133z" fill="#937d4c"/><path fill="#927d4c" d="M257.433 153.467v-.935h-2.359v4.716h.896v-2.004h1.396v-.916h-1.396v-.861z"/><path fill="#927d4c" d="M261.188 157.248l-1.401-2.45 1.296-2.266h-1.078l-.757 1.323-.756-1.323h-1.078l1.295 2.266-1.401 2.45h1.078l.862-1.507.862 1.507z"/><g><path d="M210.17 96.908c31.332 0 56.822 25.49 56.822 56.822s-25.49 56.822-56.822 56.822-56.822-25.49-56.822-56.822 25.49-56.822 56.822-56.822m0-1.896c-32.429 0-58.718 26.289-58.718 58.718s26.289 58.718 58.718 58.718 58.718-26.289 58.718-58.718-26.289-58.718-58.718-58.718z" fill="#020203"/></g><g><path d="M210.17 133.359c11.233 0 20.371 9.138 20.371 20.371 0 11.233-9.138 20.371-20.371 20.371s-20.371-9.138-20.371-20.371c0-11.233 9.138-20.371 20.371-20.371m0-2.212c-12.472 0-22.583 10.111-22.583 22.583 0 12.472 10.111 22.583 22.583 22.583 12.472 0 22.583-10.111 22.583-22.583-.001-12.472-10.111-22.583-22.583-22.583z" fill="#020203"/></g><g><path d="M210.17 135.602c9.996 0 18.128 8.132 18.128 18.128s-8.132 18.128-18.128 18.128-18.128-8.132-18.128-18.128 8.132-18.128 18.128-18.128m0-.063c-10.046 0-18.191 8.144-18.191 18.191 0 10.046 8.144 18.191 18.191 18.191 10.046 0 18.191-8.144 18.191-18.191 0-10.047-8.145-18.191-18.191-18.191z" fill="#020203"/></g><g><path d="M210.17 146.547a7.19 7.19 0 0 1 7.183 7.183 7.19 7.19 0 0 1-7.183 7.183 7.19 7.19 0 0 1-7.183-7.183 7.19 7.19 0 0 1 7.183-7.183m0-.025a7.208 7.208 0 1 0 0 14.416 7.208 7.208 0 0 0 0-14.416z" fill="#020203"/></g><g><path d="M194.004 180.69h2.566c.585 0 1.279.546 1.585.848l4.5 4.988v-5.837h1.526v7.964h-2.674c-.477-.015-.945-.112-1.488-.65l-4.492-4.996v5.646h-1.519v-7.964zM225.862 188.707c-1.83.248-3.682.275-5.538.12-1.086-.097-2.151-.318-3.124-.83-1.233-.639-1.624-2.073-1.608-3.37.015-1.202.372-2.481 1.441-3.179.702-.46 1.45-.612 2.248-.755 2.174-.384 4.352-.299 6.472-.066v1.135c-2.5-.484-5.143-.364-6.042.783-.562.713-.64 1.426-.64 2.023 0 1.077.369 2.717 2.562 3.035 1.43.209 2.849.05 4.229-.202v1.306zM210.198 187.47c.217.004 3.662.019 4.848 0v1.19c-2.383.092-4.674.131-7.08.03-2.043-.085-2.395-1.112-2.434-2.096v-5.903h9.402v1.136h-6.08v2.027h5.541v1.108h-5.542c0 .6.02 1.28.027 1.4.027.767.388 1.053 1.318 1.108" fill="#2068b1"/></g><g fill="#927d4c"><path d="M177.336 145.863a1.408 1.408 0 0 1-.005.109c-.013.116 0 .171-.334.171s-.321-.055-.334-.171a7.085 7.085 0 0 1 0-.682c.013-.116 0-.171.334-.171s.321.055.334.171c.002.016.003.061.005.116h.457a3.39 3.39 0 0 0-.013-.235c-.026-.232.065-.454-.783-.454-.847 0-.756.222-.783.454-.009.075-.017.267-.016.46s.007.385.016.46c.026.232-.065.454.783.454.848 0 .756-.222.783-.454a3.4 3.4 0 0 0 .012-.228h-.456zM171.915 144.763l-.446 1.304-.446-1.304-.668-.003v1.749h.447v-1.303l.446 1.303h.446l.442-1.303v1.303h.446v-1.749zM177.893 144.76h1.282v.446h-.418v1.303h-.446v-1.303h-.418zM174.454 146.509l.512-1.751h.665l.513 1.751h-.446l-.106-.362h-.585l.083-.284h.418l-.207-.713-.401 1.359zM169.281 145.12c.334 0 .321.055.334.171a7.085 7.085 0 0 1 0 .682c-.013.116 0 .171-.334.171s-.321-.055-.334-.171a7.085 7.085 0 0 1 0-.682c.013-.117 0-.171.334-.171l.001-.403c-.847 0-.756.222-.783.454-.009.075-.017.267-.016.46s.007.385.016.46c.026.232-.065.454.782.454.848 0 .756-.222.783-.454.009-.075.015-.267.016-.46s-.007-.385-.016-.46c-.026-.232.065-.454-.783-.454v.403zM167.775 145.863a1.408 1.408 0 0 1-.005.109c-.013.116 0 .171-.334.171s-.321-.055-.334-.171a7.085 7.085 0 0 1 0-.682c.013-.116 0-.171.334-.171s.321.055.334.171c.002.016.003.061.005.116h.457a3.39 3.39 0 0 0-.013-.235c-.026-.232.065-.454-.783-.454-.847 0-.756.222-.783.454a4.829 4.829 0 0 0-.016.46c.001.193.007.385.016.46.026.232-.065.454.783.454.848 0 .756-.222.783-.454a3.4 3.4 0 0 0 .012-.228h-.456zM173.668 146.109h-.271v-.399l.271-.002c.334 0 .324-.055.337-.171.004-.038.003-.007.003-.103 0-.097.001-.063-.003-.101-.013-.116-.003-.171-.337-.171l-.271.001v1.344h-.447v-1.747h.717c.848 0 .755.223.786.454.004.027.004.154.004.222 0 .055 0 .181-.004.221-.02.232.063.452-.785.452zM164.994 153.095l-2.792-.003a.731.731 0 0 1-.731-.731v-4.25a.73.73 0 0 1 .731-.731l1.747-.002c.21 0 .38-.17.38-.38l.005-1.699c0-.088.071-.159.159-.159h1.024c.088 0 .159.071.159.159l.01 7.638a.159.159 0 0 1-.159.159l-.533-.001-.013.379h.699c.21 0 .38-.17.38-.38v-7.959a.38.38 0 0 0-.38-.38h-1.344a.38.38 0 0 0-.38.38l.002 1.703a.159.159 0 0 1-.159.159l-1.596-.003c-.616 0-1.115.499-1.115 1.115v4.25c0 .616.499 1.115 1.115 1.115l2.779-.001.012-.378z"/><path d="M163.955 151.531v-2.749a.417.417 0 0 0-.834 0v2.968a.417.417 0 0 0 .834 0v-.219l.379.013v.205a.796.796 0 0 1-1.593 0v-2.968a.796.796 0 0 1 1.593 0v2.762l-.379-.012zM167.647 153.095h-.523a.159.159 0 0 1-.159-.159l.006-5.394c0-.088.071-.159.159-.159h1.024c.088 0 .159.071.159.159l.011 5.394a.159.159 0 0 1-.159.159h-.518v.378l.67.001c.21 0 .38-.17.38-.38v-5.714a.38.38 0 0 0-.38-.38h-1.344a.38.38 0 0 0-.38.38l-.001 5.713c0 .21.169.38.379.38l.676.001v-.379zM172.474 148.444l-1.125-.002a.627.627 0 0 0 0 1.254l1.542.004c.404 0 .731.328.731.731l-.005 1.92a.731.731 0 0 1-.731.731l-3.061.006a.159.159 0 0 1-.159-.159v-.743c0-.088.071-.159.159-.159l2.086-.007a.627.627 0 0 0 0-1.254l-1.51-.006a.731.731 0 0 1-.731-.731v-1.918c0-.404.328-.731.731-.731l2.837-.013c.088 0 .159.071.159.159v.76a.159.159 0 0 1-.159.159l-.764-.001-.013.374h.933c.21 0 .38-.169.38-.379l.001-1.065a.38.38 0 0 0-.38-.38l-2.995.001c-.616 0-1.115.499-1.115 1.115v1.918c0 .616.499 1.115 1.115 1.115l1.51-.003a.252.252 0 0 1 0 .504h-2.248a.38.38 0 0 0-.38.38v1.063c0 .21.17.38.38.38l3.223-.001c.616 0 1.115-.499 1.115-1.115l.005-1.92c0-.616-.499-1.115-1.115-1.115l-1.542.004a.252.252 0 0 1 0-.504h1.112l.014-.372zM178.145 149.499h.483a.159.159 0 0 0 .159-.159l-.002-1.229a.73.73 0 0 0-.731-.731h-2.418a.731.731 0 0 0-.732.731v4.25a.73.73 0 0 0 .732.731h2.418a.731.731 0 0 0 .731-.731l.002-1.168a.159.159 0 0 0-.159-.159h-.912a.159.159 0 0 0-.159.159l.005.557c0 .44-.277.796-.717.796-.44 0-.717-.357-.717-.796v-2.968c0-.44.277-.796.717-.796.44 0 .717.357.717.796l-.005.558c0 .088.071.159.159.159h.429l-.013.383h-.574a.38.38 0 0 1-.38-.38l.005-.72c0-.23-.107-.417-.338-.417-.23 0-.338.187-.338.417v2.968c0 .23.107.417.338.417.23 0 .338-.187.338-.417l-.005-.719c0-.21.17-.38.38-.38h1.232c.21 0 .38.17.38.38l-.001 1.33c0 .616-.499 1.115-1.115 1.115h-2.418a1.115 1.115 0 0 1-1.115-1.115v-4.25c0-.616.499-1.115 1.115-1.115h2.418c.616 0 1.115.499 1.115 1.115l.001 1.391c0 .21-.17.38-.38.38h-.658l.013-.383z"/></g><g fill="#2068b1"><path d="M189.704 200.427a.99.99 0 0 1 .724.302c.202.201.303.443.303.726s-.1.525-.301.727a.987.987 0 0 1-.726.303.995.995 0 0 1-.728-.302.99.99 0 0 1-.303-.728c0-.284.101-.526.303-.727a.995.995 0 0 1 .728-.301zm-.003 1.889a.825.825 0 0 0 .606-.253c.169-.169.253-.371.253-.608s-.084-.438-.252-.606a.827.827 0 0 0-.607-.252.826.826 0 0 0-.606.252c-.168.168-.252.37-.252.606s.084.439.252.608.37.253.606.253zm.491-.644c-.062.25-.224.375-.485.375-.163 0-.294-.053-.393-.16s-.149-.25-.149-.43c0-.178.049-.319.148-.423a.529.529 0 0 1 .403-.155c.122 0 .225.03.31.091s.137.145.156.253h-.19c-.027-.129-.121-.194-.282-.194-.113 0-.2.039-.263.117s-.094.184-.094.316c0 .127.033.229.098.306.065.077.15.115.254.115.167 0 .267-.071.299-.213h.188zM191.778 202.46h-.256v-1.572c-.104.069-.264.104-.481.104v-.202c.314 0 .494-.121.54-.363h.198v2.033zM193.451 201.538a.602.602 0 0 1-.455.218.56.56 0 0 1-.422-.182.646.646 0 0 1-.173-.463.72.72 0 0 1 .171-.485.57.57 0 0 1 .455-.2c.216 0 .385.083.505.25.12.166.18.406.18.72 0 .732-.236 1.098-.708 1.098a.591.591 0 0 1-.38-.125.55.55 0 0 1-.189-.372h.265c.022.197.128.296.319.296.123 0 .222-.065.297-.194.076-.13.121-.317.135-.561zm.003-.197c-.004-.23-.043-.406-.119-.528s-.176-.183-.303-.183c-.111 0-.2.045-.266.134-.066.089-.1.2-.1.333 0 .135.034.245.102.331a.328.328 0 0 0 .272.129c.142-.002.28-.074.414-.216zM195.005 201.538a.602.602 0 0 1-.456.218.56.56 0 0 1-.422-.182.646.646 0 0 1-.173-.463c0-.19.057-.352.171-.485s.266-.2.455-.2c.216 0 .385.083.505.25.12.166.18.406.18.72 0 .732-.236 1.098-.708 1.098a.591.591 0 0 1-.38-.125.55.55 0 0 1-.189-.372h.265c.022.197.128.296.319.296.123 0 .222-.065.297-.194.076-.13.121-.317.136-.561zm.002-.197c-.004-.23-.043-.406-.119-.528-.075-.122-.176-.183-.303-.183-.111 0-.2.045-.266.134-.066.089-.1.2-.1.333 0 .135.034.245.102.331a.328.328 0 0 0 .272.129c.142-.002.28-.074.414-.216zM195.777 201.382a.598.598 0 0 1 .454-.217c.167 0 .308.061.423.182a.646.646 0 0 1 .173.463.72.72 0 0 1-.171.485.57.57 0 0 1-.455.2.586.586 0 0 1-.505-.25c-.12-.167-.18-.407-.18-.719 0-.732.235-1.098.706-1.098.15 0 .277.042.38.125a.554.554 0 0 1 .19.372h-.265c-.023-.197-.129-.296-.319-.296-.123 0-.222.065-.298.194-.075.13-.12.316-.133.559zm-.003.199c.004.229.043.405.119.528.075.123.176.184.303.184.111 0 .2-.045.266-.134.066-.089.1-.2.1-.333a.517.517 0 0 0-.102-.331.33.33 0 0 0-.272-.13c-.142 0-.28.072-.414.216zM199.479 202.46h-.271l-1.047-1.578v1.578h-.251v-1.999h.27l1.047 1.578v-1.578h.252v1.999zM201.417 202.46h-1.491v-1.999h1.444v.237h-1.18v.611h1.103v.237h-1.103v.676h1.226v.238zM202.627 202.494c-.283 0-.508-.093-.677-.279-.169-.186-.253-.438-.253-.755s.084-.569.253-.755c.169-.186.394-.279.677-.279.217 0 .402.059.555.176a.64.64 0 0 1 .258.464h-.273c-.011-.126-.066-.227-.164-.301s-.223-.112-.373-.112a.598.598 0 0 0-.481.209c-.118.14-.177.339-.177.598 0 .258.059.457.176.597s.276.21.477.21c.156 0 .283-.038.379-.115s.151-.185.164-.327h.273c-.019.213-.103.377-.251.494s-.337.175-.563.175zM206.118 202.46h-.266v-.941h-1.039v.941h-.265v-1.999h.265v.821h1.039v-.821h.266v1.999zM207.118 200.981c.206 0 .371.066.494.198s.185.318.185.559c0 .24-.062.426-.185.558a.643.643 0 0 1-.494.198.643.643 0 0 1-.493-.198c-.123-.132-.185-.318-.185-.558 0-.241.062-.427.185-.559a.641.641 0 0 1 .493-.198zm0 1.312a.37.37 0 0 0 .299-.14c.076-.093.115-.232.115-.415 0-.185-.038-.323-.115-.417-.076-.093-.176-.14-.299-.14s-.222.047-.299.14c-.076.093-.115.232-.115.417 0 .184.038.322.115.415.076.093.176.14.299.14zM210.04 202.46h-.258v-.936c0-.12-.017-.205-.052-.256-.035-.051-.092-.076-.173-.076-.125 0-.247.077-.367.232v1.036h-.256v-.936c0-.12-.017-.205-.052-.256-.035-.051-.093-.076-.175-.076-.125 0-.246.077-.365.232v1.036h-.258v-1.447h.258v.184c.122-.145.257-.217.405-.217.212 0 .347.087.405.262a.794.794 0 0 1 .245-.216.484.484 0 0 1 .198-.046c.296 0 .445.178.445.533v.947zM211.026 202.494c-.213 0-.384-.067-.513-.2s-.194-.319-.194-.557c0-.236.063-.422.188-.556a.639.639 0 0 1 .49-.201c.206 0 .371.066.494.198s.185.318.185.559v.061h-1.09c.011.167.057.291.138.372a.41.41 0 0 0 .301.121c.09 0 .171-.023.243-.069a.233.233 0 0 0 .114-.196h.266a.48.48 0 0 1-.203.345.688.688 0 0 1-.419.123zm.379-.897a.528.528 0 0 0-.14-.312.375.375 0 0 0-.267-.104.374.374 0 0 0-.265.103.511.511 0 0 0-.14.313h.812zM213.489 202.46h-1.491v-1.999h1.444v.237h-1.18v.611h1.103v.237h-1.103v.676h1.226v.238zM214.085 202.46h-.258v-1.999h.258v1.999zM215.079 202.494c-.213 0-.384-.067-.513-.2s-.194-.319-.194-.557c0-.236.063-.422.188-.556a.639.639 0 0 1 .49-.201c.206 0 .371.066.494.198s.185.318.185.559v.061h-1.09c.011.167.057.291.138.372a.41.41 0 0 0 .301.121c.09 0 .171-.023.243-.069a.233.233 0 0 0 .114-.196h.266a.48.48 0 0 1-.203.345.688.688 0 0 1-.419.123zm.379-.897a.528.528 0 0 0-.14-.312.375.375 0 0 0-.267-.104.374.374 0 0 0-.265.103.511.511 0 0 0-.14.313h.812zM216.604 202.494a.643.643 0 0 1-.493-.198c-.123-.132-.185-.318-.185-.558 0-.241.062-.427.185-.559a.643.643 0 0 1 .493-.198c.158 0 .29.04.396.12.106.08.168.195.188.346h-.265c-.004-.086-.036-.152-.098-.198s-.135-.068-.222-.068a.37.37 0 0 0-.299.14c-.076.093-.115.232-.115.417 0 .184.038.322.115.415.076.093.176.14.299.14.086 0 .16-.023.222-.068s.094-.111.098-.196h.265a.488.488 0 0 1-.188.346.644.644 0 0 1-.396.119zM217.976 202.463a.963.963 0 0 1-.184.016c-.105 0-.183-.019-.232-.057a.233.233 0 0 1-.091-.145 1.272 1.272 0 0 1-.018-.241v-.821h-.179v-.202h.179v-.36h.256v.36h.235v.202h-.235v.835c0 .099.012.162.037.189.025.027.059.04.103.04a.753.753 0 0 0 .128-.011v.195zM218.941 201.248a.575.575 0 0 0-.157-.016c-.131 0-.243.069-.337.206v1.023h-.258v-1.447h.258v.202c.108-.156.234-.235.376-.235.036 0 .075.004.117.011v.256zM219.706 200.981c.206 0 .371.066.494.198s.185.318.185.559c0 .24-.062.426-.185.558a.643.643 0 0 1-.494.198.643.643 0 0 1-.493-.198c-.123-.132-.185-.318-.185-.558 0-.241.062-.427.185-.559a.644.644 0 0 1 .493-.198zm0 1.312a.37.37 0 0 0 .299-.14c.076-.093.115-.232.115-.415 0-.185-.038-.323-.115-.417-.076-.093-.176-.14-.299-.14s-.222.047-.299.14c-.076.093-.115.232-.115.417 0 .184.038.322.115.415.077.093.177.14.299.14zM220.931 201.197c.128-.145.272-.217.432-.217.326 0 .49.178.49.533v.946h-.258v-.936c0-.118-.021-.203-.063-.255-.042-.052-.112-.078-.208-.078-.131 0-.262.077-.393.232v1.036h-.258v-1.447h.258v.186zM222.484 200.739h-.258v-.278h.258v.278zm0 1.721h-.258v-1.447h.258v1.447zM223.45 202.494a.643.643 0 0 1-.493-.198c-.123-.132-.185-.318-.185-.558 0-.241.062-.427.185-.559a.643.643 0 0 1 .493-.198c.158 0 .29.04.396.12.106.08.168.195.188.346h-.265c-.004-.086-.036-.152-.098-.198s-.135-.068-.222-.068a.37.37 0 0 0-.299.14c-.076.093-.115.232-.115.417 0 .184.038.322.115.415.076.093.176.14.299.14.086 0 .16-.023.222-.068s.094-.111.098-.196h.265a.488.488 0 0 1-.188.346.644.644 0 0 1-.396.119zM224.777 202.494c-.395 0-.602-.155-.621-.466h.258c.002.176.122.265.36.265.106 0 .188-.022.243-.066s.084-.099.084-.166c0-.065-.027-.112-.082-.138s-.167-.062-.338-.104a1.256 1.256 0 0 1-.374-.143c-.079-.053-.118-.145-.118-.278 0-.12.049-.219.147-.298a.605.605 0 0 1 .392-.118c.379 0 .573.135.581.405h-.256c-.009-.136-.111-.205-.307-.205-.086 0-.158.016-.215.049s-.085.08-.085.143c0 .056.022.097.065.122.044.025.153.059.328.101.175.042.305.092.39.148.085.056.128.154.128.292 0 .132-.053.241-.158.328s-.245.129-.422.129zM225.995 202.46a.513.513 0 0 1-.071.286.234.234 0 0 1-.209.108v-.131c.092 0 .138-.088.138-.263h-.138v-.28h.28v.28zM228.445 202.46h-1.237v-1.999h.265v1.762h.972v.237zM229.29 202.463a.963.963 0 0 1-.184.016c-.105 0-.183-.019-.232-.057-.049-.038-.08-.086-.091-.145s-.018-.14-.018-.241v-.821h-.179v-.202h.179v-.36h.256v.36h.235v.202h-.235v.835c0 .099.012.162.038.189.025.027.059.04.103.04a.753.753 0 0 0 .128-.011v.195zM230.42 202.287a.52.52 0 0 1-.413.207.521.521 0 0 1-.439-.202c-.104-.135-.155-.316-.155-.544 0-.236.058-.423.174-.561s.262-.207.437-.207c.156 0 .289.048.397.145v-.664h.256v1.999h-.256v-.173zm0-.243v-.687a.512.512 0 0 0-.38-.176.307.307 0 0 0-.264.143c-.066.095-.099.237-.099.425 0 .178.031.313.093.406a.294.294 0 0 0 .258.138c.144 0 .275-.083.392-.249zM231.395 202.46h-.28v-.28h.28v.28z"/></g><g fill="#927d4c"><path d="M157.585 156.768l.013.293a3.107 3.107 0 0 1-.649.038h-.471c-.509.008-.768-.174-.776-.547 0-.178.047-.348.14-.509l.229.127a.688.688 0 0 0-.102.369c0 .119.042.195.127.229.076.042.204.06.382.051h.471c.178 0 .39-.016.636-.051zm-.165-1.96v.28h-1.553v-.28h1.553zM160.112 155.063c.178.212.267.467.267.764 0 .272-.055.505-.165.7-.144.246-.386.45-.726.611l-.204-.267c.509-.178.772-.492.789-.942.025-.356-.051-.611-.229-.764-.144-.127-.348-.191-.611-.191a.848.848 0 0 0-.636.305 1.22 1.22 0 0 0-.28.776c0 .204.025.361.076.471.051.093.11.14.178.14.136 0 .25-.131.344-.395.093-.246.178-.649.255-1.209l.28.025c-.093.772-.233 1.303-.42 1.591-.119.195-.276.293-.471.293-.119 0-.225-.068-.318-.204-.153-.212-.216-.484-.191-.815.025-.288.127-.551.305-.789.246-.305.551-.458.916-.458.357.01.637.129.841.358zM162.594 156.243l.309.078c-.065.253-.181.447-.349.58a.964.964 0 0 1-.617.2c-.251 0-.456-.051-.613-.153a.972.972 0 0 1-.36-.445 1.591 1.591 0 0 1-.123-.625c0-.243.046-.455.139-.636a.956.956 0 0 1 .396-.412c.171-.094.36-.141.566-.141.233 0 .43.059.589.178a.93.93 0 0 1 .333.501l-.304.072a.728.728 0 0 0-.235-.371.63.63 0 0 0-.388-.116.757.757 0 0 0-.45.129.684.684 0 0 0-.254.346 1.388 1.388 0 0 0-.073.448c0 .198.029.372.087.519a.647.647 0 0 0 .27.332c.122.073.254.11.396.11.173 0 .319-.05.439-.15a.768.768 0 0 0 .242-.444zM163.43 157.061v-2.332h.803c.181 0 .32.011.415.033a.784.784 0 0 1 .342.167.95.95 0 0 1 .276.399c.061.162.091.346.091.554 0 .177-.021.334-.062.471s-.094.25-.159.34a.818.818 0 0 1-.213.211.87.87 0 0 1-.278.117c-.109.027-.234.04-.375.04h-.84zm.308-.275h.498c.154 0 .274-.014.362-.043a.525.525 0 0 0 .209-.121.742.742 0 0 0 .171-.295 1.44 1.44 0 0 0 .061-.45c0-.244-.04-.431-.12-.562a.603.603 0 0 0-.292-.263 1.201 1.201 0 0 0-.399-.048h-.49v1.782zM166.174 155.788c.008.407.059.836.153 1.286l-.267.102a5.919 5.919 0 0 1-.153-1.286c-.009-.373.042-.823.153-1.349l.255.102a4.67 4.67 0 0 0-.141 1.145zm1.541.56c.187.093.369.229.547.407l-.153.229a1.637 1.637 0 0 0-.407-.356c-.043.34-.212.518-.509.535-.221.017-.386-.034-.496-.153a.473.473 0 0 1 0-.624.51.51 0 0 1 .407-.178c.119 0 .238.017.356.051v-.891h-.853v-.242h.853v-.624h.255v.624h.484v.242h-.484v.98zm-.586.586c.204 0 .314-.144.331-.433a1.146 1.146 0 0 0-.318-.076.314.314 0 0 0-.242.076c-.06.051-.089.115-.089.191s.03.136.089.178a.293.293 0 0 0 .229.064zM169.632 157.223l-.215.216a2.739 2.739 0 0 0-.547-.493l.215-.215c.187.127.369.291.547.492zM175.072 155.419v.242h-2.889v-.242h.904l-.204-.471h-.407v-.242h1.031v-.305h.242c.068.009.072.034.013.076v.229h1.044v.242h-.407l-.216.471h.889zm-.534 1.859h-.255v-.102h-1.286v.165h-.255v-1.464h1.795v1.401zm-.255-.891v-.267h-1.286v.267h1.286zm0 .547v-.305h-1.286v.305h1.286zm-.942-1.515h.598l.165-.471h-.942l.179.471zM177.052 154.77h.535v1.196h-.216v-.051h-.191v.242h1.247v.242h-1.107c.348.28.742.45 1.184.509l-.076.293c-.569-.136-.984-.356-1.247-.662v.789h-.255v-.713c-.297.272-.696.484-1.196.636l-.115-.28a2.818 2.818 0 0 0 1.222-.573h-1.158v-.242h1.247v-.242h-.191v.076h-.216v-1.222h.331l.076-.344.28.051c.034.009.021.034-.038.076l-.116.219zm-1.222 1.209l-.153-.255c.22-.11.424-.25.611-.42l.14.216a4.407 4.407 0 0 1-.535.433c-.008.052-.029.06-.063.026zm.394-.776a6.21 6.21 0 0 0-.433-.28l.153-.229c.178.085.327.165.445.242l-.165.267zm.51-.229v.267h.636v-.267h-.636zm0 .738h.636v-.267h-.636v.267zm1.132-.522l-.204-.178c.178-.153.327-.293.445-.42l.229.204c.008.043-.013.055-.064.038-.1.093-.236.212-.406.356zm.37.713a3.57 3.57 0 0 0-.573-.407l.165-.216c.17.076.369.204.598.382l-.19.241zM181.462 156.272h-.827v.967h-.255v-.967h-.764c-.017.441-.149.793-.395 1.056l-.204-.204a1.29 1.29 0 0 0 .344-.891v-1.629h2.355v2.431c0 .136-.068.204-.204.204h-.356l-.064-.28h.318c.034 0 .051-.017.051-.051v-.636zm-1.845-1.426v.471h.764v-.471h-.764zm0 .713v.471h.764v-.471h-.764zm1.018-.713v.471h.827v-.471h-.827zm0 .713v.471h.827v-.471h-.827zM182.615 157.201a4.914 4.914 0 0 1-.153-1.247c0-.467.055-.933.165-1.4l.242.102c-.093.399-.14.819-.14 1.26 0 .433.047.823.14 1.171l-.254.114zm.751-1.158l.191.153a.575.575 0 0 0-.115.267c-.034.195.072.293.318.293h.904v.28h-.751c-.255 0-.437-.038-.547-.115-.127-.093-.187-.238-.178-.433a.843.843 0 0 1 .178-.445zm-.064-.891v-.28h1.273v.28h-1.273zM156.261 159.278v1.986h-.255v-1.629c-.076.153-.161.28-.255.382l-.165-.267c.297-.305.496-.768.598-1.387l.28.076c.076.025.068.055-.025.089a5.272 5.272 0 0 1-.191.675c.085.008.09.033.013.075zm1.299-.941c.068.009.072.034.013.076v.318h.904v.242h-.904v.28h.726v.967h-.255v-.102h-.471c0 .17-.034.335-.102.496.212.144.568.259 1.069.344l-.089.28c-.45-.06-.819-.195-1.107-.407-.212.22-.513.369-.904.445l-.089-.242c.356-.06.624-.178.802-.356a1.386 1.386 0 0 1-.356-.458l.153-.102h-.356v-.866h.726v-.28h-.866v-.242h.866v-.395h.24zm-.242 1.578v-.458h-.471v.458h.471zm0 .204H157c.068.119.157.233.267.344a1.09 1.09 0 0 0 .051-.344zm.725-.204v-.458h-.471v.458h.471zM161.512 160.182h-.827v.967h-.255v-.967h-.764c-.017.441-.149.793-.395 1.056l-.204-.204a1.29 1.29 0 0 0 .344-.891v-1.629h2.355v2.431c0 .136-.068.204-.204.204h-.356l-.064-.28h.318c.034 0 .051-.017.051-.051v-.636zm-1.846-1.425v.471h.764v-.471h-.764zm0 .712v.471h.764v-.471h-.764zm1.019-.712v.471h.827v-.471h-.827zm0 .712v.471h.827v-.471h-.827zM164.217 159.915l.28.127c-.11.696-.445 1.044-1.006 1.044-.272.008-.463-.055-.573-.191-.102-.127-.157-.344-.165-.649v-1.757h.255v1.757c0 .212.038.361.115.445.076.076.233.11.471.102a.512.512 0 0 0 .433-.255c.092-.135.156-.343.19-.623zM164.987 159.113v-.28h.547c.025-.161.051-.331.076-.509l.267.051-.076.458h.522v.28h-.573a6.772 6.772 0 0 1-.547 1.731l-.242-.153c.229-.441.403-.967.522-1.578h-.496zm1.655.433h.255v.815c.136.076.271.161.407.255l-.153.242a3.22 3.22 0 0 0-.267-.191.542.542 0 0 1-.216.407c-.102.076-.242.115-.42.115s-.323-.042-.433-.127c-.11-.085-.165-.212-.165-.382 0-.161.059-.293.178-.395.093-.076.225-.115.395-.115.136 0 .276.025.42.076v-.7zm-.395.865c-.229 0-.344.089-.344.267 0 .17.119.255.356.255.11 0 .204-.038.28-.115.068-.068.102-.165.102-.293a.714.714 0 0 0-.394-.114zm.242-1.476c.271.051.539.136.802.255l-.089.267a3.225 3.225 0 0 0-.789-.267l.076-.255zM168.812 160.271l.229.178c-.068.238-.157.412-.267.522a.334.334 0 0 1-.318.127c-.28-.034-.424-.42-.433-1.158 0-.416.021-.836.064-1.26l.293.038a8.3 8.3 0 0 0-.089 1.235c.008.518.072.789.191.815.118.025.229-.14.33-.497zm1.273-.7a3.2 3.2 0 0 1 .191.84l-.293.089a3.697 3.697 0 0 0-.178-.802 2.546 2.546 0 0 0-.344-.7l.242-.153c.153.204.28.446.382.726zM172.892 158.655v.255c-.399.009-.721.119-.967.331a.955.955 0 0 0-.344.738c0 .28.089.492.267.636.17.136.428.204.776.204l-.076.28c-.399 0-.709-.106-.929-.318-.195-.187-.297-.441-.305-.764 0-.187.055-.382.165-.585.127-.229.301-.407.522-.535h-1.336v-.242h2.227zm-.152.534v.496h-.216v-.496h.216zm.343 0v.496h-.216v-.496h.216zM174.363 160.449c.195.212.344.386.445.522l-.242.229a7.737 7.737 0 0 0-.84-1.006c-.153-.153-.229-.284-.229-.395 0-.076.064-.182.191-.318a5.35 5.35 0 0 0 .84-1.082l.229.191c-.348.475-.641.823-.878 1.044-.076.076-.115.136-.115.178 0 .034.025.072.076.115.145.137.319.31.523.522zM176.889 158.858v.242h-.84a6.765 6.765 0 0 1-.573 1.744l-.229-.165a5.42 5.42 0 0 0 .535-1.578h-.509v-.242h.547c.034-.178.055-.356.064-.535l.28.051a8.906 8.906 0 0 1-.064.484h.789zm.624 1.986v.28h-.827a.69.69 0 0 1-.433-.127.419.419 0 0 1-.165-.395.857.857 0 0 1 .178-.407l.191.14a.508.508 0 0 0-.115.331c.017.119.14.178.369.178h.802zm-.076-1.362v.242h-1.107v-.242h1.107zm-.204-1.158v.496h-.216v-.496h.216zm.344 0v.496h-.216v-.496h.216zM179.875 158.807l.038.242a6.269 6.269 0 0 1-.636.102 3 3 0 0 0 .611.853l-.191.242c-.195-.161-.454-.25-.776-.267-.195 0-.335.047-.42.14a.367.367 0 0 0-.115.267c0 .161.064.276.191.344.178.102.509.153.993.153l-.051.28c-.56 0-.951-.085-1.171-.255-.144-.102-.221-.259-.229-.471a.602.602 0 0 1 .216-.496.66.66 0 0 1 .484-.204c.238.009.424.038.56.089a6.602 6.602 0 0 1-.369-.636c-.373.06-.683.093-.929.102l-.025-.267c.238-.017.522-.047.853-.089-.06-.17-.119-.344-.178-.522l.255-.076c.059.212.119.399.178.56a8.27 8.27 0 0 0 .711-.091zM181.319 160.271l.229.178c-.068.238-.157.412-.267.522a.334.334 0 0 1-.318.127c-.28-.034-.424-.42-.433-1.158 0-.416.021-.836.064-1.26l.293.038a8.3 8.3 0 0 0-.089 1.235c.008.518.072.789.191.815.118.025.229-.14.33-.497zm1.273-.7a3.2 3.2 0 0 1 .191.84l-.293.089a3.697 3.697 0 0 0-.178-.802 2.546 2.546 0 0 0-.344-.7l.242-.153c.153.204.28.446.382.726zM183.67 160.607c.101 0 .186.036.257.108a.35.35 0 0 1 .106.254.348.348 0 0 1-.111.262.356.356 0 0 1-.507 0 .346.346 0 0 1-.112-.262c0-.102.036-.188.107-.257a.357.357 0 0 1 .26-.105zm.011.557c.05 0 .091-.02.125-.06a.196.196 0 0 0 0-.262.175.175 0 0 0-.139-.059.172.172 0 0 0-.133.057.193.193 0 0 0-.052.132c0 .05.018.094.053.134a.191.191 0 0 0 .146.058z"/></g></g></svg>