<svg xmlns="http://www.w3.org/2000/svg" viewBox="0 0 85 85"><path d="M9.117 54.736s.045 10.536 7.969 10.402l2.63.001-.969-12.363s-9.196-4.432-9.63 1.96z" fill="#cecece"/><g fill="#ececec"><path d="M75.883 54.736s-.045 10.536-7.969 10.402l-2.63.001.969-12.363c.001 0 9.196-4.432 9.63 1.96z"/><path d="M68.522 59.203c-.744 6.093-.574 12.394-3.337 17.242C62.299 81.516 56.204 85 42.5 85c-26.81 0-24.496-13.332-26.022-25.797-1.621-13.238-.907-22.395 3.686-28.075 4.06-5.016 11.148-7.317 22.334-7.317 23.852 0 29.077 10.461 26.024 35.392z"/></g><g fill="#cecece"><path d="M19.848 59.203c-1.621-13.238-.907-22.395 3.686-28.075 3.851-4.757 10.429-7.071 20.64-7.297a76.443 76.443 0 0 0-1.676-.02c-11.186 0-18.274 2.301-22.334 7.317-4.594 5.68-5.308 14.836-3.686 28.075C18.004 71.668 15.69 85 42.5 85c.575 0 1.135-.007 1.683-.019-25.024-.554-22.842-13.581-24.335-25.778z"/><path d="M37.132 54.736s3.032.237 3.126 5.588c.094 5.351 0 7.14 0 7.14s-3.037-2.501-3.126-5.545c-.09-3.045 0-7.183 0-7.183z"/></g><path d="M53.525 8.267c0 .853-.172 1.677-.492 2.451-1.394 3.37-5.583 5.818-10.533 5.818s-9.139-2.448-10.533-5.818a6.392 6.392 0 0 1-.492-2.451C31.475 3.702 36.412 0 42.5 0s11.025 3.702 11.025 8.267z" fill="#474747"/><path d="M35.188 10.719a6.392 6.392 0 0 1-.492-2.451c0-4.155 4.09-7.594 9.414-8.179A14.668 14.668 0 0 0 42.5 0c-6.088 0-11.025 3.702-11.025 8.267 0 .853.172 1.677.492 2.451 1.394 3.37 5.583 5.818 10.533 5.818.547 0 1.085-.032 1.611-.089-4.231-.465-7.683-2.731-8.923-5.728z" fill="#535353"/><path d="M68.577 54.735h-.76a.716.716 0 0 1-.715-.673c-.249-4.361-2.466-28.168-20.969-19.829a7.447 7.447 0 0 1-2.951.658 7.291 7.291 0 0 1-2.833-.522C20.221 26.277 18.11 49.717 17.892 54.056a.714.714 0 0 1-.715.678H15.69c.591-11.395-13.124-27.028-5.125-31.608 1.585-.909 4.028-1.382 7.605-1.301C22.497 13.363 32.2 9.044 42.493 9.044h.007c10.297-.002 20.001 4.318 24.33 12.782 21.233-.482 2.451 18.571 2.462 32.189 0 .397-.318.72-.715.72z" fill="#474747"/><g fill="#535353"><path d="M64.956 23.127s-9.896 1.514-14.137 6.31c0 0 5.547-1.432 9.663-2.774s4.474-3.536 4.474-3.536zM20.106 23.127s9.896 1.514 14.137 6.31c0 0-5.547-1.432-9.663-2.774s-4.474-3.536-4.474-3.536z"/><path d="M13.786 23.127c1.585-.909 4.028-1.382 7.605-1.301C25.493 13.805 34.424 9.508 44.11 9.082a35.94 35.94 0 0 0-1.611-.038h-.007c-10.293 0-19.996 4.32-24.322 12.782-3.577-.081-6.02.392-7.605 1.301-7.999 4.579 5.716 20.212 5.125 31.608h1.488a.715.715 0 0 0 .715-.678c.043-.867.163-2.496.486-4.483-2.39-10.523-11.436-22.529-4.593-26.447zM54.852 32.583c10.54 1.487 12.047 17.927 12.25 21.478a.715.715 0 0 0 .715.673h.76a.715.715 0 0 0 .714-.72c-.001-1.421.203-2.901.544-4.412-1.098-6.952-4.501-18.359-14.983-17.019z"/></g><g fill="#535353"><path d="M32.511 54.177c-.865 0-1.859-.061-2.901-.245-2.928-.516-4.942-2.445-5.026-2.526a1.342 1.342 0 0 1 1.866-1.929c.039.037 1.548 1.446 3.625 1.812 2.59.457 4.846.011 4.869.006a1.343 1.343 0 0 1 .533 2.631c-.074.015-1.27.251-2.966.251zM52.489 54.177c-1.696 0-2.891-.236-2.966-.251a1.342 1.342 0 0 1 .533-2.631c.02.004 2.303.446 4.869-.006 2.091-.368 3.607-1.794 3.622-1.808a1.342 1.342 0 0 1 1.87 1.926c-.084.082-2.098 2.01-5.026 2.526a16.882 16.882 0 0 1-2.902.244z"/></g></svg>