<svg id="Layer_1" data-name="Layer 1" xmlns="http://www.w3.org/2000/svg" viewBox="0 0 105 105"><title>icon_filled</title><path d="M40.18,86.49056a13.56741,13.56741,0,0,1-3.28053-2.25285,11.18014,11.18014,0,0,1-3.41777-4.81033,9.778,9.778,0,0,1,.33809-6.95607c.73645-1.74738,1.52311-3.47467,2.27629-5.21537a.69309.69309,0,0,0,.03013-.50882,12.96376,12.96376,0,0,1-1.4026-5.39278,54.34022,54.34022,0,0,1,.22763-9.44993c.04687-.41843.10377-.83687.19081-1.24861.05691-.26445-.02009-.34479-.27449-.38831-2.08213-.33809-4.16092-.68958-6.243-1.031a55.28859,55.28859,0,0,1-8.1511-1.90471q-1.82151-.59574-3.65879-1.14149a1.1047,1.1047,0,0,0-.713.02678,8.99709,8.99709,0,0,0-1.57666.867,7.95014,7.95014,0,0,1-4.40193,1.58A10.049,10.049,0,0,1,5.6441,48.1017,9.103,9.103,0,0,1,.00028,39.96062a8.45839,8.45839,0,0,1,.69627-4.20777C2.40711,32.6966,4.86416,30.73163,8.533,30.6446a8.77858,8.77858,0,0,1,4.00023.56572,9.00243,9.00243,0,0,1,5.597,7.04309,7.74776,7.74776,0,0,0,.52556,1.60344.70019.70019,0,0,0,.37492.31132,39.08406,39.08406,0,0,0,9.79136,2.89557c2.63782.37157,5.28567.65276,7.93018.97412l.11716.01c.70632.07364.71636.0703,1.07119-.60255-1.02433-.20419-2.06539-.36153-3.07968-.61928a16.432,16.432,0,0,1-7.75275-4.30486,16.89525,16.89525,0,0,1-3.23367-4.07388,3.12638,3.12638,0,0,1-.33474-1.18835.9557.9557,0,0,1,1.2486-1.05445c1.32895.27784,2.64116.63267,3.97681.87369a23.36669,23.36669,0,0,0,3.40773.40169,2.9314,2.9314,0,0,0,3.2227-2.60776q.00441-.04174.00761-.08361a5.14075,5.14075,0,0,0-2.28967-5.06473,7.73973,7.73973,0,0,0-3.05625-.87034A13.744,13.744,0,0,0,23.369,25.928a7.87052,7.87052,0,0,1-1.1281.35483c-.58915.14059-.88708-.067-.9306-.67954q-.06519-.98775-.04017-1.97836c.0067-.31131-.087-.42513-.395-.48873a20.4243,20.4243,0,0,1-4.894-1.51306,9.76013,9.76013,0,0,1-4.28477-3.69227,7.49509,7.49509,0,0,1,1.15488-8.94445A6.0845,6.0845,0,0,1,15.74346,7.1453a6.8889,6.8889,0,0,1,5.86143,1.15823q1.71223,1.34067,3.37761,2.74158c.30127.25441.46195.21759.70966-.05021a18.9062,18.9062,0,0,1,6.3736-4.65634,20.74433,20.74433,0,0,1,6.71838-1.68043,24.38891,24.38891,0,0,1,6.85563.3314,17.34413,17.34413,0,0,1,8.11429,3.699,18.55836,18.55836,0,0,1,5.64049,8.94781,24.87423,24.87423,0,0,1,.7331,9.4901,18.16578,18.16578,0,0,1-2.3834,7.5586A16.98331,16.98331,0,0,1,49.158,41.96577l-.69962.27449c-.02009.0067-.03013.04017-.06026.08369a2.5011,2.5011,0,0,0,1.57666.71971,58.7596,58.7596,0,0,0,6.60458-.17072,9.91185,9.91185,0,0,0,5.38608-2.16582c.8034-.64272,1.57332-1.329,2.33654-2.01518.55234-.49543.549-.66949.308-1.35237-1.71056-4.8438,0-9.65413,4.83709-11.89024A9.06156,9.06156,0,0,1,79.63,27.28039a8.71352,8.71352,0,0,1,2.54743,6.14931,8.50877,8.50877,0,0,1-1.14483,4.894,8.90011,8.90011,0,0,1-5.75431,4.31155,13.46343,13.46343,0,0,1-4.017.09039c-.56907-.05356-1.12475-.36153-1.71056-.1406a3.008,3.008,0,0,0-.81009.385C67.42508,44.00441,66.143,45.0823,64.8174,46.11a13.48787,13.48787,0,0,1-7.38119,2.74493c-1.04776.08369-2.09552.17407-3.20019.2678l.53895.86365a41.00706,41.00706,0,0,1,3.36086,6.31.393.393,0,0,0,.45526.26779c1.83107-.09372,3.66214-.23432,5.49321-.26445,2.08213-.03347,4.171-.03012,6.24974.07365a27.87483,27.87483,0,0,1,7.77619,1.87124,1.20283,1.20283,0,0,0,1.69047-.65946c.24437-.44855.43517-.93059.65946-1.39255a19.81028,19.81028,0,0,1,5.279-6.73512,8.31923,8.31923,0,0,1,5.60032-2.02188,9.14524,9.14524,0,0,1,4.83042,1.108,8.65733,8.65733,0,0,1,3.41777,3.69561A6.3441,6.3441,0,0,1,99.822,56.052a8.04368,8.04368,0,0,1-1.4528,3.34748q-4.24361,5.98673-8.54276,11.93375a8.00535,8.00535,0,0,1-1.47624,1.47624,2.29637,2.29637,0,0,1-1.14149.46865,7.78629,7.78629,0,0,1-5.63715-1.61349,12.0297,12.0297,0,0,1-2.07209-2.31645A32.85883,32.85883,0,0,0,77.2031,66.533a11.26511,11.26511,0,0,0-6.7451-3.17346q-1.80441-.23927-3.62532-.308a13.46018,13.46018,0,0,0-7.61216,2.01183A5.586,5.586,0,0,0,57.51665,66.573a13.46867,13.46867,0,0,1-7.13347,4.91745,19.27259,19.27259,0,0,1-6.35351.57911,1.19184,1.19184,0,0,0-.626.154c-.81009.49208-1.61683.99421-2.3968,1.5298a4.09805,4.09805,0,0,0-1.5164,2.21267,2.12236,2.12236,0,0,0,.164,1.426,7.04148,7.04148,0,0,0,2.99265,3.66214,28.90292,28.90292,0,0,0,6.869,3.083c.7264.22427,1.50971.2611,2.23277.48538a7.617,7.617,0,0,1,5.19863,6.90919,3.00552,3.00552,0,0,1-1.05111,2.44365c-1.69717,1.42267-3.391,2.852-5.13168,4.21782-1.85785,1.45615-3.73913,2.88887-5.66728,4.24795a13.674,13.674,0,0,1-4.61617,2.206,9.5866,9.5866,0,0,1-4.817.08034,4.15077,4.15077,0,0,1-1.59006-.83353,7.79237,7.79237,0,0,1-2.96586-5.10824,9.79121,9.79121,0,0,1,1.0578-6.40038,10.5059,10.5059,0,0,1,3.76256-3.48807C37.31124,88.084,38.71049,87.31739,40.18,86.49056Z" fill="#bf5b01"/></svg>