<svg xmlns="http://www.w3.org/2000/svg" viewBox="0 0 1000 114"><title>logo</title><g id="Layer_2" data-name="Layer 2"><rect x="440.28" y="56.6" width="253.54" height="31.85" fill="#fff"/></g><g id="Capa_1" data-name="Capa 1"><path d="M440.13,92.57a24.9,24.9,0,0,1-3.2-.28,31.47,31.47,0,0,0-4-.21,18.51,18.51,0,0,0-2.66.16,18.47,18.47,0,0,1-2.8.25c-3.42,0-5-2.37-5-4.57a4.33,4.33,0,0,1,2.35-4,6.53,6.53,0,0,1,2.13-.63l1.14-.14a1.6,1.6,0,0,0,.47-.73c.35-.93.74-2.11,1.16-3.52l13.14-42.66.06-.17.56-1.51a4.31,4.31,0,0,1,4.13-2.77,4.62,4.62,0,0,1,4.57,3.78c.14.61.39,1.45.74,2.49l12.49,39.38c.57,1.81,1.08,3.26,1.53,4.3A2.75,2.75,0,0,0,468.06,83l.12.08a2.14,2.14,0,0,0,.59.34,4.31,4.31,0,0,1,3.94,4.33c0,2.24-1.64,4.66-5.24,4.66a23.41,23.41,0,0,1-3.27-.29,26.32,26.32,0,0,0-3.67-.21c-2.19,0-3.95.07-5.23.19-1.55.15-2.59.22-3.28.22-3.37,0-4.9-2.32-4.9-4.49A4.73,4.73,0,0,1,451.88,83c-.09-.34-.19-.76-.33-1.26l-2.65-8.69h-6.72l-1.48,5.51c-.57,2.23-.85,3.58-1,4.39a12,12,0,0,1,2.28.62,4.75,4.75,0,0,1,3,4.49C445,90.24,443.5,92.57,440.13,92.57Zm5.62-29.64-.46-1.47-.39,1.47Z" fill="#009ddc"/><path d="M447.64,35.29c.61,0,1,.35,1.16,1.07s.44,1.65.83,2.81L462.1,78.5h0c.61,1.92,1.16,3.47,1.65,4.62a6.22,6.22,0,0,0,2.4,2.81,4.78,4.78,0,0,0,2.11.95c.63.08.95.37.95.87,0,.77-.58,1.16-1.74,1.16a20.94,20.94,0,0,1-2.77-.25,28.67,28.67,0,0,0-4.17-.25c-2.31,0-4.17.07-5.57.21s-2.39.2-2.94.2c-.93,0-1.4-.33-1.4-1q0-1.32,1.65-1.32A6,6,0,0,0,455,86.1a1.71,1.71,0,0,0,.66-1.57,16.1,16.1,0,0,0-.75-3.72l-3.22-10.58c-.11-.44-.52-.66-1.24-.66H440.21a.92.92,0,0,0-.54.21.89.89,0,0,0-.37.54l-2,7.35A33.93,33.93,0,0,0,436.08,84a2.09,2.09,0,0,0,.49,1.65,3.31,3.31,0,0,0,1.65.58,12,12,0,0,1,2.48.58,1.23,1.23,0,0,1,.83,1.24c0,.66-.47,1-1.4,1a21.27,21.27,0,0,1-2.73-.25,34.87,34.87,0,0,0-4.46-.24,22.7,22.7,0,0,0-3.18.2,15.48,15.48,0,0,1-2.28.21c-1,0-1.48-.36-1.48-1.07a.88.88,0,0,1,.41-.87,3.14,3.14,0,0,1,1-.29l1.33-.17a2.79,2.79,0,0,0,1.36-.58,4.89,4.89,0,0,0,1.73-2.35c.39-1,.8-2.27,1.24-3.76l13.14-42.63c.22-.61.4-1.09.54-1.45a.81.81,0,0,1,.86-.53M441.2,66.43h8.26a.84.84,0,0,0,.5-.2.6.6,0,0,0,.24-.46A4.71,4.71,0,0,0,450,65l-4.46-14.38c-.17-.5-.33-.74-.5-.74h0c-.22,0-.38.22-.49.66L440.7,65.11a2.25,2.25,0,0,0-.08.58v.25c0,.33.19.49.58.49m6.44-38.14a7.84,7.84,0,0,0-7.4,5c-.15.38-.34.9-.58,1.56,0,.11-.08.22-.11.33L426.41,77.84l0,.07c-.22.75-.44,1.43-.64,2a9.69,9.69,0,0,0-2.45.83,7.87,7.87,0,0,0-4.3,7.14c0,4.6,3.65,8.07,8.48,8.07a21.41,21.41,0,0,0,3.32-.29,16.58,16.58,0,0,1,2.14-.12,27.47,27.47,0,0,1,3.51.18,28.47,28.47,0,0,0,3.68.31,8.62,8.62,0,0,0,6.08-2.36A8.65,8.65,0,0,0,452,95.82c.82,0,1.93-.07,3.62-.24,1.17-.11,2.82-.17,4.89-.17a24.3,24.3,0,0,1,3.16.17,26.11,26.11,0,0,0,3.78.33c5.74,0,8.74-4.11,8.74-8.16a7.74,7.74,0,0,0-6.13-7.64c-.28-.7-.72-1.86-1.3-3.71L456.3,37.05l0-.1c-.41-1.22-.58-1.88-.65-2.17a8.13,8.13,0,0,0-8-6.49Zm-2.78,48.28h1.45l1.27,4.19A8.37,8.37,0,0,0,446,82a8.58,8.58,0,0,0-2.15-1.46c.08-.34.18-.71.28-1.12l.77-2.87Z" fill="#fff"/><path d="M481.68,110.5a29.14,29.14,0,0,1-4-.28,27.26,27.26,0,0,0-3.51-.21,23.56,23.56,0,0,0-3.25.2,21.51,21.51,0,0,1-3.32.29,4.69,4.69,0,0,1-5-4.82,4.39,4.39,0,0,1,4.41-4.66,1.69,1.69,0,0,0,.45-.1c0-.13,0-.27,0-.45V63.13a6.76,6.76,0,0,0,0-.69,4.13,4.13,0,0,1-3.69-4.35,5,5,0,0,1,3.61-4.75A10.8,10.8,0,0,0,469.77,52a14.94,14.94,0,0,0,2.82-2.31A6,6,0,0,1,477,47.24a4.18,4.18,0,0,1,3.86,2.61,13.86,13.86,0,0,1,1.52-.88,14.21,14.21,0,0,1,6.44-1.49,14.43,14.43,0,0,1,6.85,1.74,16.63,16.63,0,0,1,5.44,4.69,22.42,22.42,0,0,1,3.44,6.94,29.45,29.45,0,0,1,1.23,8.72,30.67,30.67,0,0,1-1.41,9.52,24.11,24.11,0,0,1-4.09,7.68A19.49,19.49,0,0,1,493.78,92a19.17,19.17,0,0,1-12.43,1.44l-.05,7.06c0,.14,0,.27,0,.38.57.06,1.06.12,1.45.18a5.32,5.32,0,0,1,2.42,1,4.52,4.52,0,0,1,1.74,3.79C486.92,108.09,485.28,110.5,481.68,110.5Zm2.76-50.4c-.79,0-1.83.11-2.23.65s-.83,1.48-.83,4.07V80.27c0,2.29.52,3.2.83,3.54h0c.19.21.7.77,2.31.77a5,5,0,0,0,2.64-.69,7.2,7.2,0,0,0,2.32-2.23,12.93,12.93,0,0,0,1.75-4,21.65,21.65,0,0,0,.67-5.53c0-4.11-.81-7.26-2.4-9.33A6,6,0,0,0,484.44,60.1Z" fill="#009ddc"/><path d="M477,50.74c.55,0,.83.57.83,1.73v4.05h0c0,.38.08.58.25.58s.38-.14.66-.42l.82-1a14.72,14.72,0,0,1,4.38-3.59,11,11,0,0,1,10.08.21,13.18,13.18,0,0,1,4.3,3.71,19,19,0,0,1,2.89,5.87,25.74,25.74,0,0,1,1.07,7.68A26.94,26.94,0,0,1,501,78a20.59,20.59,0,0,1-3.48,6.57,15.91,15.91,0,0,1-5.31,4.3,15.11,15.11,0,0,1-6.79,1.52,14.24,14.24,0,0,1-7.22-1.9l-.33.25-.08,11.73a7.33,7.33,0,0,0,.25,2.23,2,2,0,0,0,1.24,1.16,4.67,4.67,0,0,0,1.61.5c.52,0,1,.11,1.32.16a2,2,0,0,1,.87.33,1.2,1.2,0,0,1,.33,1c0,.77-.58,1.16-1.74,1.16a25.61,25.61,0,0,1-3.5-.25,30.85,30.85,0,0,0-4-.25,26.25,26.25,0,0,0-3.77.25,18.69,18.69,0,0,1-2.8.25c-1,0-1.49-.44-1.49-1.32s.3-1.16.91-1.16a6,6,0,0,0,2.15-.49,2.55,2.55,0,0,0,1.44-1.16,5.7,5.7,0,0,0,.37-2.4V63.13a5.33,5.33,0,0,0-.57-3,2.67,2.67,0,0,0-1.28-.95,6.14,6.14,0,0,0-1.29-.24q-.57,0-.57-.87c0-.66.42-1.14,1.28-1.45a14.39,14.39,0,0,0,3.18-1.77,19.18,19.18,0,0,0,3.47-2.9c.71-.82,1.29-1.23,1.73-1.23m7.55,37.34a8.61,8.61,0,0,0,4.4-1.16,10.84,10.84,0,0,0,3.45-3.28,16.48,16.48,0,0,0,2.24-5.07,25.14,25.14,0,0,0,.79-6.44q0-7.39-3.12-11.46a9.5,9.5,0,0,0-7.84-4.07c-2.32,0-4,.68-5,2s-1.54,3.42-1.54,6.18V80.27q0,4,1.74,5.9h0a6.33,6.33,0,0,0,4.9,1.91M477,43.74c-3.86,0-6.24,2.75-7,3.65a12.49,12.49,0,0,1-2.15,1.71,10,10,0,0,1-1.56.95,8.47,8.47,0,0,0-5.93,8A7.76,7.76,0,0,0,464,64.9V98.1a8,8,0,0,0-4.87,7.58,8.22,8.22,0,0,0,8.49,8.32,25.74,25.74,0,0,0,3.84-.33,19.22,19.22,0,0,1,2.73-.17,23.59,23.59,0,0,1,3,.19,32.93,32.93,0,0,0,4.43.31c5.74,0,8.74-4.1,8.74-8.16a8,8,0,0,0-3.12-6.58A8.5,8.5,0,0,0,484.82,98v-.58h.61a22,22,0,0,0,9.91-2.26A22.88,22.88,0,0,0,503,89a27.53,27.53,0,0,0,4.69-8.79,34,34,0,0,0,1.59-10.61,33.06,33.06,0,0,0-1.38-9.75,26,26,0,0,0-4-8,20.09,20.09,0,0,0-6.58-5.67,18,18,0,0,0-15.56-.73A7.64,7.64,0,0,0,477,43.74Zm7.94,37.31q0-.31,0-.78V64.82c0-.48,0-.88.06-1.19a2.81,2.81,0,0,1,1.78,1.3c1.1,1.43,1.68,3.92,1.68,7.2a18.26,18.26,0,0,1-.55,4.63,9.68,9.68,0,0,1-1.25,2.92,4.08,4.08,0,0,1-1.2,1.19,1.53,1.53,0,0,1-.49.18Z" fill="#fff"/><path d="M574.05,94a17.3,17.3,0,0,1-7.7-1.73,17,17,0,0,1-6-4.92A22.11,22.11,0,0,1,556.73,80a32.37,32.37,0,0,1-1.21-9.17,30,30,0,0,1,1.37-9.31,22,22,0,0,1,4-7.4,18.68,18.68,0,0,1,6.25-4.87A18.14,18.14,0,0,1,575,47.48a17.68,17.68,0,0,1,6.8,1.3,16.57,16.57,0,0,1,5.35,3.53,15.9,15.9,0,0,1,3.44,5.19,16.39,16.39,0,0,1,1.22,6.29,4.8,4.8,0,0,1-2.61,4.54,8.17,8.17,0,0,1-3.7.69H569.79c0,4.25.89,7.58,2.58,9.89a7,7,0,0,0,8.25,2.58,8.8,8.8,0,0,0,2-1.16,8.5,8.5,0,0,0,1.26-1.19,4.73,4.73,0,0,1,3.56-2,4.15,4.15,0,0,1,4.16,4.41A7.81,7.81,0,0,1,590,85.89a16.28,16.28,0,0,1-3.62,3.75,22.71,22.71,0,0,1-5.21,3A18.43,18.43,0,0,1,574.05,94Zm-.74-34.52a12.86,12.86,0,0,0,4.22-.48,3,3,0,0,0,.05-.56c0-.19,0-.64-.7-1.36a2.34,2.34,0,0,0-1.84-.68,3.33,3.33,0,0,0-2.52,1.16,6.89,6.89,0,0,0-1.29,1.92Z" fill="#009ddc"/><path d="M575,51a14.24,14.24,0,0,1,5.46,1,13.07,13.07,0,0,1,4.21,2.77,12.37,12.37,0,0,1,2.69,4,13,13,0,0,1,1,5,1.4,1.4,0,0,1-.67,1.4,5.09,5.09,0,0,1-2.14.33H567.28c-.44,0-.72.09-.83.25a2.3,2.3,0,0,0-.16,1.08v2q0,7.68,3.26,12.14A10,10,0,0,0,578,85.44a9.86,9.86,0,0,0,4-.75,11.89,11.89,0,0,0,2.8-1.65,12.94,12.94,0,0,0,1.74-1.65q.61-.75.87-.75c.44,0,.66.31.66.91a4.78,4.78,0,0,1-1,2.4,12.77,12.77,0,0,1-2.85,2.93,19.07,19.07,0,0,1-4.42,2.52,14.79,14.79,0,0,1-5.79,1.07,13.68,13.68,0,0,1-6.15-1.36,13.42,13.42,0,0,1-4.75-3.92,18.35,18.35,0,0,1-3.06-6.2A28.69,28.69,0,0,1,559,70.81a26.4,26.4,0,0,1,1.19-8.22,18.62,18.62,0,0,1,3.35-6.24,15,15,0,0,1,5.08-4A14.6,14.6,0,0,1,575,51m-7.1,12h5.37a14.19,14.19,0,0,0,5.91-.91c1.24-.6,1.85-1.81,1.85-3.63a5.32,5.32,0,0,0-1.69-3.8A5.79,5.79,0,0,0,575,52.88a6.8,6.8,0,0,0-5,2.23,10.92,10.92,0,0,0-2.81,5.62L567,62.05v.17c0,.5.33.74,1,.74M575,44a21.72,21.72,0,0,0-9.42,2.09,22.17,22.17,0,0,0-7.42,5.78,25.44,25.44,0,0,0-4.64,8.57A33.35,33.35,0,0,0,552,70.81,35.75,35.75,0,0,0,553.38,81a25.52,25.52,0,0,0,4.23,8.49,20.48,20.48,0,0,0,7.19,5.92,20.78,20.78,0,0,0,9.25,2.08,21.91,21.91,0,0,0,8.49-1.61,26.91,26.91,0,0,0,6-3.45,19.92,19.92,0,0,0,4.37-4.58,11.25,11.25,0,0,0,2.17-6.28,7.71,7.71,0,0,0-7.66-7.91,8.11,8.11,0,0,0-6.25,3.27,7.25,7.25,0,0,1-.77.7,5,5,0,0,1-1.21.67,3,3,0,0,1-1.19.16,3.11,3.11,0,0,1-2.82-1.6,10,10,0,0,1-1.64-4.32h12a11.48,11.48,0,0,0,5.28-1.07,8.31,8.31,0,0,0,4.53-7.66,20,20,0,0,0-1.48-7.62,19.31,19.31,0,0,0-4.21-6.34,19.85,19.85,0,0,0-6.47-4.28A21.17,21.17,0,0,0,575,44Z" fill="#fff"/><path d="M519.27,110.5a29.25,29.25,0,0,1-4-.28,27.26,27.26,0,0,0-3.51-.21,23.56,23.56,0,0,0-3.25.2,21.41,21.41,0,0,1-3.32.29,4.69,4.69,0,0,1-5-4.82,4.39,4.39,0,0,1,4.41-4.66,1.79,1.79,0,0,0,.46-.1c0-.13,0-.27,0-.45V63.13c0-.29,0-.51,0-.69a4.14,4.14,0,0,1-3.7-4.35A5,5,0,0,1,505,53.34,10.8,10.8,0,0,0,507.36,52a15.54,15.54,0,0,0,2.83-2.31,6,6,0,0,1,4.38-2.44,4.18,4.18,0,0,1,3.85,2.61,13.86,13.86,0,0,1,1.52-.88,14.21,14.21,0,0,1,6.44-1.49,14.43,14.43,0,0,1,6.85,1.74,16.53,16.53,0,0,1,5.44,4.69,22.65,22.65,0,0,1,3.45,6.94,29.83,29.83,0,0,1,1.23,8.72,30.66,30.66,0,0,1-1.42,9.52,23.92,23.92,0,0,1-4.09,7.68A19.46,19.46,0,0,1,531.38,92,18.56,18.56,0,0,1,523,93.89a18.35,18.35,0,0,1-4.08-.45l-.05,7.06c0,.14,0,.27,0,.38.57.06,1.06.12,1.46.18a5.43,5.43,0,0,1,2.41,1,4.56,4.56,0,0,1,1.74,3.8C524.51,108.09,522.87,110.5,519.27,110.5ZM522,60.1a3,3,0,0,0-2.23.65c-.31.41-.83,1.48-.83,4.07V80.27c0,2.29.52,3.2.83,3.54a2.77,2.77,0,0,0,2.32.77,5,5,0,0,0,2.63-.69,7.1,7.1,0,0,0,2.32-2.23,12.93,12.93,0,0,0,1.75-4,21.65,21.65,0,0,0,.67-5.53c0-4.11-.81-7.26-2.39-9.33A6.07,6.07,0,0,0,522,60.1Z" fill="#009ddc"/><path d="M514.57,50.74c.55,0,.82.57.82,1.73v4.05h0c0,.38.08.58.25.58s.38-.14.66-.42l.83-1a14.48,14.48,0,0,1,4.38-3.59,11,11,0,0,1,10.07.21,13.08,13.08,0,0,1,4.3,3.71,18.82,18.82,0,0,1,2.89,5.87,25.73,25.73,0,0,1,1.08,7.68A26.94,26.94,0,0,1,538.6,78a20.59,20.59,0,0,1-3.48,6.57,16,16,0,0,1-5.3,4.3,15.19,15.19,0,0,1-6.8,1.52,14.21,14.21,0,0,1-7.21-1.9l-.34.25-.08,11.73a7.33,7.33,0,0,0,.25,2.23,2,2,0,0,0,1.24,1.16,4.74,4.74,0,0,0,1.61.5c.52,0,1,.11,1.32.16a2,2,0,0,1,.87.33,1.2,1.2,0,0,1,.33,1c0,.77-.58,1.16-1.74,1.16a25.72,25.72,0,0,1-3.5-.25,30.73,30.73,0,0,0-4-.25,26.35,26.35,0,0,0-3.77.25,18.69,18.69,0,0,1-2.8.25c-1,0-1.49-.44-1.49-1.32s.3-1.16.91-1.16a5.94,5.94,0,0,0,2.15-.49,2.55,2.55,0,0,0,1.44-1.16,5.67,5.67,0,0,0,.38-2.4V63.13a5.31,5.31,0,0,0-.58-3,2.63,2.63,0,0,0-1.28-.95,6.17,6.17,0,0,0-1.28-.24c-.39,0-.58-.32-.58-.87s.43-1.14,1.28-1.45a14.39,14.39,0,0,0,3.18-1.77,19.18,19.18,0,0,0,3.47-2.9c.72-.82,1.29-1.23,1.74-1.23m7.54,37.34a8.58,8.58,0,0,0,4.4-1.16A10.84,10.84,0,0,0,530,83.64a16.48,16.48,0,0,0,2.24-5.07,24.7,24.7,0,0,0,.79-6.44q0-7.39-3.11-11.46A9.52,9.52,0,0,0,522,56.6c-2.32,0-4,.68-5,2s-1.54,3.42-1.54,6.18V80.27c0,2.66.59,4.63,1.75,5.9a6.29,6.29,0,0,0,4.89,1.91m-7.54-44.34c-3.86,0-6.25,2.75-7,3.65a12.49,12.49,0,0,1-2.15,1.71,9.47,9.47,0,0,1-1.56.95,8.47,8.47,0,0,0-5.93,8,7.75,7.75,0,0,0,3.72,6.81V98.1a8,8,0,0,0-4.88,7.58,8.22,8.22,0,0,0,8.49,8.32,26,26,0,0,0,3.85-.33,19,19,0,0,1,2.72-.17,23.47,23.47,0,0,1,3,.19,32.93,32.93,0,0,0,4.43.31c5.74,0,8.74-4.1,8.74-8.16a8,8,0,0,0-3.12-6.58A8.5,8.5,0,0,0,522.41,98v-.58H523a22.07,22.07,0,0,0,9.92-2.26A22.84,22.84,0,0,0,540.56,89a27.55,27.55,0,0,0,4.7-8.79,34.31,34.31,0,0,0,1.59-10.61,33.06,33.06,0,0,0-1.39-9.75,25.76,25.76,0,0,0-4-8,20.09,20.09,0,0,0-6.58-5.67,18,18,0,0,0-15.56-.73,7.63,7.63,0,0,0-4.75-1.66Zm7.94,37.31c0-.21,0-.47,0-.78V64.82c0-.48,0-.88.06-1.19a2.85,2.85,0,0,1,1.79,1.3c1.09,1.43,1.67,3.92,1.67,7.2a18.32,18.32,0,0,1-.55,4.63,9.68,9.68,0,0,1-1.25,2.92,3.86,3.86,0,0,1-1.2,1.19,1.46,1.46,0,0,1-.48.18Z" fill="#fff"/><path d="M556.54,92.57a27,27,0,0,1-3.69-.28,25.65,25.65,0,0,0-3.38-.21,23.08,23.08,0,0,0-3.3.21,23.28,23.28,0,0,1-3.35.28,4.69,4.69,0,0,1-5-4.82,4.35,4.35,0,0,1,4.33-4.66,1.68,1.68,0,0,0,.38-.07V40.86c-.33-.13-.65-.26-1-.41A4.25,4.25,0,0,1,539,36.52a4.66,4.66,0,0,1,3.73-4.58,21.14,21.14,0,0,0,2.21-.74,16,16,0,0,0,3.46-1.63A6.68,6.68,0,0,1,552.16,28a4.24,4.24,0,0,1,4.07,2.62,6.58,6.58,0,0,1,.42,2.45c0,.82,0,1.73-.14,2.79-.07.84-.11,1.79-.11,2.83V82.54c0,.15,0,.28,0,.39.38,0,.76.07,1.11.12a5.17,5.17,0,0,1,2.64,1.19,4.68,4.68,0,0,1,1.53,3.67C561.69,90.16,560.08,92.57,556.54,92.57Z" fill="#009ddc"/><path d="M552.16,31.48c.44,0,.71.14.82.42a3.17,3.17,0,0,1,.17,1.15c0,.72,0,1.55-.13,2.48s-.12,2-.12,3.14V82.54h0c0,1.82.52,3,1.57,3.47a3.31,3.31,0,0,0,1.32.38c.44,0,.84.07,1.2.12a1.73,1.73,0,0,1,.87.37,1.34,1.34,0,0,1,.33,1c0,.78-.55,1.16-1.65,1.16a23.33,23.33,0,0,1-3.22-.25,29.24,29.24,0,0,0-3.85-.24,27.36,27.36,0,0,0-3.81.24,19.39,19.39,0,0,1-2.84.25c-1,0-1.49-.44-1.49-1.32s.28-1.16.83-1.16a6.54,6.54,0,0,0,2.23-.49,2.08,2.08,0,0,0,1.4-1.12A5.89,5.89,0,0,0,546,83v-43a2.07,2.07,0,0,0-.53-1.57,3.59,3.59,0,0,0-1.24-.75,13.31,13.31,0,0,1-1.24-.49.81.81,0,0,1-.54-.75c0-.6.37-1,1.11-1.19a26.36,26.36,0,0,0,2.6-.87,19.48,19.48,0,0,0,4.21-2,4.74,4.74,0,0,1,1.75-.95m0-7a9.86,9.86,0,0,0-5.78,2.23,13.61,13.61,0,0,1-2.64,1.2l-.08,0a17.78,17.78,0,0,1-1.81.61,8.24,8.24,0,0,0-6.36,8A7.71,7.71,0,0,0,539,43V80.22a8,8,0,0,0-4.71,7.53,8.22,8.22,0,0,0,8.49,8.32,26.07,26.07,0,0,0,3.86-.32,18.87,18.87,0,0,1,2.79-.17,21.69,21.69,0,0,1,2.9.18,30.73,30.73,0,0,0,4.17.31,8.31,8.31,0,0,0,6-14.43l0,0a8.34,8.34,0,0,0-2.55-1.52V38.67c0-.94,0-1.79.1-2.52.1-1.15.15-2.17.15-3.1a10.05,10.05,0,0,0-.66-3.74,7.69,7.69,0,0,0-7.33-4.83Z" fill="#fff"/><path d="M654.65,94a19.82,19.82,0,0,1-8.3-1.75,19.4,19.4,0,0,1-6.54-4.85,21.79,21.79,0,0,1-4.17-7.2,26.38,26.38,0,0,1-1.46-8.88,27.41,27.41,0,0,1,1.62-9.49,23.83,23.83,0,0,1,4.53-7.65,21,21,0,0,1,7-5.16,21.2,21.2,0,0,1,8.86-1.87,24.57,24.57,0,0,1,6.63.91,16.57,16.57,0,0,1,2.54,1,7.07,7.07,0,0,1,2.14,1.54c1.23,1.32,1.63,3.35,1.63,8.15,0,4.09-2.69,5.18-4.28,5.18a4.43,4.43,0,0,1-4.24-3.2c-.17-.49-.39-1.09-.68-1.81-1.07-2.69-2.6-3.06-4.1-3.06a5.43,5.43,0,0,0-2.91.82,8.91,8.91,0,0,0-2.7,2.76,16.59,16.59,0,0,0-2.05,4.93,28.22,28.22,0,0,0-.79,6.93,22.94,22.94,0,0,0,.79,6.26,15.55,15.55,0,0,0,2,4.51,8.23,8.23,0,0,0,2.61,2.53,5.25,5.25,0,0,0,2.72.76,3.76,3.76,0,0,0,1.26-.14l.09-.06a1.82,1.82,0,0,0,.17-.63,18.35,18.35,0,0,0,.12-2.2V75.69l-.8-.09a4.81,4.81,0,0,1-2.12-.82,4.11,4.11,0,0,1-1.68-3.42A4.29,4.29,0,0,1,657.1,67a19.2,19.2,0,0,1,2.66.28,23.06,23.06,0,0,0,3.55.2,27.69,27.69,0,0,0,3.81-.19,16,16,0,0,1,2.46-.29,4.32,4.32,0,0,1,3,7.53,4.67,4.67,0,0,1-2.2,1l-.49.08v8.6A7.56,7.56,0,0,1,668.17,89a10.84,10.84,0,0,1-3.71,2.92,18.87,18.87,0,0,1-4.57,1.55A25.3,25.3,0,0,1,654.65,94Z" fill="#009ddc"/><path d="M656.2,50.63a19.71,19.71,0,0,1,3,.22,20.73,20.73,0,0,1,2.6.55,13.5,13.5,0,0,1,2,.74,3.47,3.47,0,0,1,1.1.76q.72.72.72,5.79,0,1.68-.78,1.68c-.44,0-.74-.27-.92-.81s-.43-1.2-.75-2q-2.09-5.27-7.35-5.26a8.88,8.88,0,0,0-4.75,1.35,12.12,12.12,0,0,0-3.79,3.82,19.88,19.88,0,0,0-2.51,6,31.3,31.3,0,0,0-.9,7.8,26.07,26.07,0,0,0,.93,7.23A18.73,18.73,0,0,0,647.33,84a11.78,11.78,0,0,0,3.7,3.56,8.8,8.8,0,0,0,4.51,1.25,6.52,6.52,0,0,0,2.75-.48A3.57,3.57,0,0,0,659.85,87a5.22,5.22,0,0,0,.68-2.06,21.38,21.38,0,0,0,.15-2.64V75.19h0a4.9,4.9,0,0,0-.27-2,2.26,2.26,0,0,0-1.46-.78,9.11,9.11,0,0,0-1.17-.14c-.3,0-.59,0-.89-.09a1.4,1.4,0,0,1-.6-.21.66.66,0,0,1-.21-.57q0-.84,1-.84a16.18,16.18,0,0,1,2.12.24,27.47,27.47,0,0,0,4.09.24,29.62,29.62,0,0,0,4.36-.24,16.46,16.46,0,0,1,1.91-.24q.9,0,.9.78a.75.75,0,0,1-.21.6,1.12,1.12,0,0,1-.54.24c-.25,0-.51.07-.77.09a6.63,6.63,0,0,0-1,.15c-.72.16-1.17.4-1.34.74a5.12,5.12,0,0,0-.27,2.06v9.08a4,4,0,0,1-.93,2.54,7.26,7.26,0,0,1-2.54,2A15.4,15.4,0,0,1,659.16,90a21.76,21.76,0,0,1-4.51.45A16.19,16.19,0,0,1,647.81,89a15.84,15.84,0,0,1-5.38-4A18.24,18.24,0,0,1,638.94,79a22.76,22.76,0,0,1-1.26-7.71A23.5,23.5,0,0,1,639.09,63a20.36,20.36,0,0,1,3.85-6.55,17.49,17.49,0,0,1,5.85-4.3,17.72,17.72,0,0,1,7.41-1.55m0-7a24.47,24.47,0,0,0-18.49,8.2,27.43,27.43,0,0,0-5.19,8.77,30.68,30.68,0,0,0-1.84,10.7,29.89,29.89,0,0,0,1.66,10,25.37,25.37,0,0,0,4.84,8.35,22.86,22.86,0,0,0,7.72,5.71,23.3,23.3,0,0,0,9.75,2.07,29.52,29.52,0,0,0,6-.6A22.5,22.5,0,0,0,666,95a14.23,14.23,0,0,0,4.89-3.87,11,11,0,0,0,2.45-6.9V78.21a8.07,8.07,0,0,0,1.45-1,7.81,7.81,0,0,0-3.47-13.51,9.48,9.48,0,0,0,1.3-5c0-5-.41-8.2-2.55-10.51a10.19,10.19,0,0,0-3.18-2.32,18.87,18.87,0,0,0-3.09-1.17,26.19,26.19,0,0,0-3.52-.76,27.08,27.08,0,0,0-4.1-.3ZM651.45,65.7l.12-.52a13.06,13.06,0,0,1,1.6-3.89,5.28,5.28,0,0,1,1.59-1.68,1.89,1.89,0,0,1,1.08-.31,2.39,2.39,0,0,1,.41,0,3.23,3.23,0,0,1,.44.82c.27.68.47,1.22.61,1.62a8.22,8.22,0,0,0,.83,1.8c-.38,0-.72,0-1,0a8.08,8.08,0,0,0-5.65,2.18Zm2.23,15.07a6.57,6.57,0,0,1-.58-.74,11.18,11.18,0,0,1-1.32-2.75,5.32,5.32,0,0,0,.47.36,7.43,7.43,0,0,0,1.43.81v2.32Z" fill="#fff"/><path d="M687.21,94a17.27,17.27,0,0,1-8-1.64,7.54,7.54,0,0,1-4.36-6.94c0-.74,0-1.47.07-2.19,0-.56.05-1.08.05-1.58,0-.32,0-.57,0-.77,0-.39,0-.66,0-.78,0-4.22,2.77-5.35,4.4-5.35A4.1,4.1,0,0,1,683,76.88a6,6,0,0,1,.65,2l.21,1.35a9.43,9.43,0,0,0,.27,1.18,5.91,5.91,0,0,0,1.77,3,3.07,3.07,0,0,0,2,.86,2.68,2.68,0,0,0,2-.88,3.64,3.64,0,0,0,.7-1.19,4.25,4.25,0,0,0,.27-1.61,4.29,4.29,0,0,0-1-2.78,13.52,13.52,0,0,0-4.06-3.2c-1.17-.66-2.32-1.34-3.47-2a16.31,16.31,0,0,1-3.5-2.83,13,13,0,0,1-2.55-4.09A15.33,15.33,0,0,1,675.4,61a15,15,0,0,1,1-5.52,12.71,12.71,0,0,1,7.44-7.41,15.69,15.69,0,0,1,5.65-1,16.43,16.43,0,0,1,5.64.92,8,8,0,0,1,4,2.44c.87,1.1,1.18,2.52,1.18,8.62,0,3.27-2.21,4.76-4.27,4.76a4.36,4.36,0,0,1-4.26-3.43,14.76,14.76,0,0,0-.7-1.88,9.28,9.28,0,0,0-1.46-2.66,1.29,1.29,0,0,0-.63-.1c-1.16,0-1.52.38-1.65.52a3.09,3.09,0,0,0-.59,2.12,2,2,0,0,0,.44,1.52,11.71,11.71,0,0,0,3.23,2.22A45.72,45.72,0,0,1,695,64.89a18.49,18.49,0,0,1,3.85,3.41,14,14,0,0,1,2.58,4.55,17,17,0,0,1,.85,5.54,16.78,16.78,0,0,1-1.11,6.1A15.35,15.35,0,0,1,698,89.43a14.57,14.57,0,0,1-4.79,3.33A14.93,14.93,0,0,1,687.21,94Z" fill="#009ddc"/><path d="M689.48,50.63a13,13,0,0,1,4.45.71,5.81,5.81,0,0,1,2.36,1.26q.47.6.47,6.51c0,.84-.26,1.26-.77,1.26s-.73-.27-.87-.81a20.19,20.19,0,0,0-.86-2.36,12.12,12.12,0,0,0-2.1-3.64,4.1,4.1,0,0,0-3.22-1.26,5.47,5.47,0,0,0-4.21,1.64,6.33,6.33,0,0,0-1.53,4.5,5.56,5.56,0,0,0,1.35,3.87,14.94,14.94,0,0,0,4.21,3A44.06,44.06,0,0,1,693,67.79a14.9,14.9,0,0,1,3.14,2.77A10.74,10.74,0,0,1,698.08,74a13.46,13.46,0,0,1,.66,4.41,13,13,0,0,1-.87,4.82A11.63,11.63,0,0,1,695.48,87a11,11,0,0,1-3.64,2.53,11.43,11.43,0,0,1-4.63.93,14,14,0,0,1-6.4-1.26,4.07,4.07,0,0,1-2.45-3.82c0-.68,0-1.34.06-2s.06-1.24.06-1.8,0-.78,0-1,0-.43,0-.51c0-1.23.3-1.85.9-1.85a.63.63,0,0,1,.6.33,2.85,2.85,0,0,1,.27.89l.21,1.35a13,13,0,0,0,.35,1.61,9.45,9.45,0,0,0,2.9,4.72,6.59,6.59,0,0,0,4.27,1.67,6,6,0,0,0,2.51-.54,6.12,6.12,0,0,0,2.06-1.49,7.24,7.24,0,0,0,1.38-2.28,8.09,8.09,0,0,0-1.2-7.8,16.52,16.52,0,0,0-5.11-4.1c-1.13-.64-2.25-1.3-3.37-2a12.29,12.29,0,0,1-2.75-2.21,9.62,9.62,0,0,1-1.85-3A11.92,11.92,0,0,1,678.9,61a11.56,11.56,0,0,1,.75-4.25h0a9.22,9.22,0,0,1,5.43-5.41,12.16,12.16,0,0,1,4.4-.75m0-7a19.07,19.07,0,0,0-6.91,1.22,16.17,16.17,0,0,0-9.44,9.4A18.45,18.45,0,0,0,671.9,61,18.7,18.7,0,0,0,673.08,68a16.8,16.8,0,0,0,2.44,4.25c-2.34,1.33-4.1,4-4.1,7.84,0,.29,0,.62.06,1.07h0v.49c0,.4,0,.86,0,1.37-.05.77-.08,1.58-.08,2.4a11,11,0,0,0,6.26,10,20.69,20.69,0,0,0,9.59,2A18.47,18.47,0,0,0,694.63,96a18.09,18.09,0,0,0,5.93-4.13,18.78,18.78,0,0,0,3.82-6.07,20,20,0,0,0,1.36-7.38,20.5,20.5,0,0,0-1-6.69A17.42,17.42,0,0,0,701.48,66L701,65.5a8.13,8.13,0,0,0,2.75-6.39c0-6.21-.28-8.68-2-10.81a11.7,11.7,0,0,0-5.48-3.54,20,20,0,0,0-6.85-1.13Z" fill="#fff"/><path d="M635.86,94a27.42,27.42,0,0,1-3.13-.28,50.74,50.74,0,0,0-9.44,0,25,25,0,0,1-3.13.28,6.56,6.56,0,0,1-.9-.07,6.86,6.86,0,0,1-.92.07,27.29,27.29,0,0,1-3.12-.28,50.85,50.85,0,0,0-9.45,0,25,25,0,0,1-3.12.28c-3.6,0-5.24-2.5-5.24-4.83a4.47,4.47,0,0,1,1.52-3.49,5,5,0,0,1,2.38-1.11,10.33,10.33,0,0,1,1.62-.14h0l.24,0,.08,0q0-.69,0-1.65V44.87c0-.21,0-.39,0-.55a10.36,10.36,0,0,1-1.62-.12,5.35,5.35,0,0,1-2.33-.91,4.34,4.34,0,0,1-1.74-3.71,4.54,4.54,0,0,1,4.74-4.66,20.76,20.76,0,0,1,3.21.38,32.27,32.27,0,0,0,5,.29,32,32,0,0,0,5-.29,20.83,20.83,0,0,1,3.22-.38,4.22,4.22,0,0,0,1.16,0,20.83,20.83,0,0,1,3.22.38,32,32,0,0,0,5,.29,32.12,32.12,0,0,0,5-.29,20.83,20.83,0,0,1,3.22-.38,4.55,4.55,0,0,1,4.74,4.66,4.31,4.31,0,0,1-1.52,3.48,5,5,0,0,1-2.41,1,14.41,14.41,0,0,1-1.5.16l-.26,0c0,.16,0,.35,0,.57V82.71c0,.67,0,1.23,0,1.69h.11a11.39,11.39,0,0,1,1.73.13,5,5,0,0,1,2.68,1.34,4.7,4.7,0,0,1,1.32,3.44C641.09,91.56,639.46,94,635.86,94ZM617.74,84.4h.11a11.93,11.93,0,0,1,1.38.08,10,10,0,0,1,1.21-.08h0l.23,0,.09,0c0-.46,0-1,0-1.65V44.87c0-.21,0-.39,0-.55a11.59,11.59,0,0,1-1.61-.12l-.13,0c-.33,0-.68.07-1.06.09l-.26,0c0,.16,0,.35,0,.57V82.71C617.71,83.38,617.72,83.94,617.74,84.4Zm-.61-.2Zm0,0Z" fill="#009ddc"/><path d="M636.19,38.42c.83,0,1.24.39,1.24,1.16a1,1,0,0,1-.25.79,1.65,1.65,0,0,1-.74.29c-.33.05-.72.09-1.16.12a9.32,9.32,0,0,0-1.4.21q-1.57.33-1.86,1.11a8.86,8.86,0,0,0-.29,2.77V82.71h0c0,.88,0,1.6,0,2.15a4.46,4.46,0,0,0,.25,1.36,1.9,1.9,0,0,0,.66.87,4.4,4.4,0,0,0,1.28.58,4.53,4.53,0,0,0,1.4.24,6.59,6.59,0,0,1,1.16.09,1.36,1.36,0,0,1,.78.37,1.27,1.27,0,0,1,.29.95c0,.77-.57,1.16-1.73,1.16-.5,0-1.39-.09-2.69-.25a53.38,53.38,0,0,0-10.32,0c-1.3.16-2.19.25-2.69.25a2.54,2.54,0,0,1-.89-.15,2.7,2.7,0,0,1-.93.15c-.49,0-1.39-.09-2.68-.25a53.48,53.48,0,0,0-10.33,0c-1.29.16-2.19.25-2.68.25-1.16,0-1.74-.44-1.74-1.33a1,1,0,0,1,.29-.82,1.44,1.44,0,0,1,.74-.33,5.52,5.52,0,0,1,1-.09H603a4.14,4.14,0,0,0,1.15-.16,5.77,5.77,0,0,0,1.53-.58,2,2,0,0,0,.79-.87,3.76,3.76,0,0,0,.28-1.4c0-.58,0-1.31,0-2.19V44.87a8.32,8.32,0,0,0-.29-2.69A2.35,2.35,0,0,0,605,41.07a5.34,5.34,0,0,0-1.57-.25,8.72,8.72,0,0,1-1.2-.08,2,2,0,0,1-.83-.29,1,1,0,0,1-.28-.87c0-.77.41-1.16,1.24-1.16a20.91,20.91,0,0,1,2.64.34,35.69,35.69,0,0,0,5.53.33,35.74,35.74,0,0,0,5.54-.33,20.91,20.91,0,0,1,2.64-.34,1.63,1.63,0,0,1,.58.1,1.67,1.67,0,0,1,.58-.1,20.91,20.91,0,0,1,2.64.34,35.83,35.83,0,0,0,5.54.33,35.6,35.6,0,0,0,5.53-.33,21.21,21.21,0,0,1,2.65-.34m-17,49.64a1.55,1.55,0,0,1,.23-.06,5.33,5.33,0,0,1,1-.09h0a4.27,4.27,0,0,0,1.16-.16,5.77,5.77,0,0,0,1.53-.58,2,2,0,0,0,.78-.87,3.75,3.75,0,0,0,.29-1.4c0-.58,0-1.31,0-2.19V44.87a8.32,8.32,0,0,0-.29-2.69,2.33,2.33,0,0,0-1.53-1.11,5.29,5.29,0,0,0-1.57-.25,8.46,8.46,0,0,1-1.19-.08,2.42,2.42,0,0,1-.55-.15l-.24.07c-.33.05-.71.09-1.15.12a9.44,9.44,0,0,0-1.41.21q-1.58.33-1.86,1.11a9.18,9.18,0,0,0-.29,2.77V82.71h0c0,.88,0,1.6,0,2.15a4.46,4.46,0,0,0,.25,1.36,1.9,1.9,0,0,0,.66.87,4.4,4.4,0,0,0,1.28.58,4.64,4.64,0,0,0,1.41.24A6.47,6.47,0,0,1,619,88a1.28,1.28,0,0,1,.23.06m17-56.64a24.49,24.49,0,0,0-3.79.43,28,28,0,0,1-4.39.24,27.7,27.7,0,0,1-4.38-.24,24.71,24.71,0,0,0-3.8-.43l-.58,0-.58,0a24.27,24.27,0,0,0-3.78.43,28.29,28.29,0,0,1-4.4.24,27.81,27.81,0,0,1-4.38-.24,24.49,24.49,0,0,0-3.79-.43,8,8,0,0,0-8.24,8.16,7.92,7.92,0,0,0,3.22,6.57,8.27,8.27,0,0,0,2.48,1.2v34a8.31,8.31,0,0,0-3.15,1.7,7.89,7.89,0,0,0-2.72,6.12c0,4.75,3.76,8.33,8.74,8.33a30.2,30.2,0,0,0,3.57-.31,48.19,48.19,0,0,1,8.55,0,30.37,30.37,0,0,0,3.57.31c.31,0,.62,0,.92,0s.6,0,.9,0a30,30,0,0,0,3.57-.31,48.3,48.3,0,0,1,8.56,0,30.37,30.37,0,0,0,3.57.31c5.73,0,8.73-4.11,8.73-8.16a8.22,8.22,0,0,0-2.32-5.88l0,0a8.4,8.4,0,0,0-3.51-2.07v-34a8.1,8.1,0,0,0,2.93-1.55,7.82,7.82,0,0,0,2.77-6.17,8,8,0,0,0-8.24-8.16Z" fill="#fff"/><path d="M342.21,34.36a3.5,3.5,0,0,1-3.33-2.86c-1.09-6,1-12.9,5.68-18.56,4.27-5.21,11.34-9,17.57-9.43h.24a3.5,3.5,0,0,1,3.46,3c.92,6.22-1.08,13.06-5.5,18.76-4.31,5.54-11.2,9.12-17.57,9.12Z" fill="#009ddc"/><path d="M362.37,7c.89,6-1.57,11.93-4.81,16.11-3.39,4.36-9.16,7.76-14.8,7.76h-.44c-1.05-5.77,1.66-11.71,4.94-15.71,3.62-4.41,9.81-7.8,15.11-8.16m0-7-.48,0c-7.14.49-15.19,4.79-20,10.7-5.29,6.45-7.68,14.45-6.41,21.41a7,7,0,0,0,6.67,5.73h.65c7.41,0,15.39-4.11,20.33-10.47s7.26-14.26,6.2-21.42a7,7,0,0,0-6.92-6Z" fill="#fff"/><path d="M301.91,71.72a3.51,3.51,0,0,1-3.46-3,52.27,52.27,0,0,1-.52-12.15,3.56,3.56,0,0,1-.15-1.38,34.17,34.17,0,0,1,4.66-14.33,3.59,3.59,0,0,1,1-1c5.62-8.09,14.36-13.12,23-13.12a32.85,32.85,0,0,1,11.58,2.48c2.65.95,4.93,1.77,7.36,1.77a17.73,17.73,0,0,0,6.41-1.61,32.65,32.65,0,0,1,12.48-2.65c7.91,0,16,4.26,21.71,11.38a3.5,3.5,0,0,1,.7,2.87A3.45,3.45,0,0,1,385,43.35a21.93,21.93,0,0,0-1.92,1.21,3.32,3.32,0,0,1-.75.89,17.94,17.94,0,0,0-6.22,10.67,3.51,3.51,0,0,1-.43,1.2,19.23,19.23,0,0,0,1.54,9.49,3.5,3.5,0,0,1-3.2,4.91Z" fill="#009ddc"/><path d="M364.33,30.22c6.74,0,13.89,3.69,19,10.06a23.49,23.49,0,0,0-3.66,2.51h.4a21.37,21.37,0,0,0-7.4,12.77h-.28A22.56,22.56,0,0,0,374,68.22h-72.1a48.57,48.57,0,0,1-.37-12.66h-.28a30.73,30.73,0,0,1,4.13-12.78h.34l0,0c5.11-7.9,13.17-12.52,20.75-12.52s12.57,4.25,18.94,4.25c6.19,0,10-4.26,18.89-4.26m0-7a35.65,35.65,0,0,0-13.72,2.88c-2.32.88-3.71,1.38-5.17,1.38a19.25,19.25,0,0,1-6.18-1.57,36.42,36.42,0,0,0-12.76-2.68c-9.59,0-19.23,5.37-25.55,14.14A7.09,7.09,0,0,0,299.48,39a37.5,37.5,0,0,0-5.19,15.88,7,7,0,0,0,.11,2A55.58,55.58,0,0,0,295,69.3a7,7,0,0,0,6.91,5.92H374a7,7,0,0,0,6.4-9.83,15.8,15.8,0,0,1-1.3-7.14,6.91,6.91,0,0,0,.45-1.57,14.41,14.41,0,0,1,5-8.56,6.94,6.94,0,0,0,1-1c.36-.24.72-.45,1.09-.65a7,7,0,0,0,3.5-4.77,7,7,0,0,0-1.39-5.74c-6.35-8-15.49-12.7-24.45-12.7Z" fill="#fff"/><path d="M328.42,109.69c-8.69-.08-14.86-7.63-19.26-14.2l-.65-1a68.15,68.15,0,0,1-6.39-12.35,63.44,63.44,0,0,1-3.67-13.4,3.5,3.5,0,0,1,3.46-4H374a3.49,3.49,0,0,1,3.2,2.09,18.12,18.12,0,0,0,10.22,9.69,3.5,3.5,0,0,1,1.95,4.71l-.5,1.11a70,70,0,0,1-6.18,11.4c-.39.6-.79,1.19-1.19,1.79-4.46,6.55-10.65,14.09-19,14.17h-.16a18.59,18.59,0,0,1-8.41-2.17,17.33,17.33,0,0,0-8.23-2h-.12a18.35,18.35,0,0,0-8.48,2,19.4,19.4,0,0,1-8.49,2.14Z" fill="#009ddc"/><path d="M301.91,68.22H374a21.5,21.5,0,0,0,12.18,11.55l-.5,1.12h0a68,68,0,0,1-5.92,10.92l-1.15,1.73c-4.07,6-9.54,12.58-16.17,12.64h-.13c-6.33,0-8-4.18-16.64-4.18h-.14c-8.72,0-10.59,4.19-17,4.19h-.14c-6.92-.06-12.29-6.53-16.39-12.65h0c-.22-.31-.43-.63-.64-1a65.27,65.27,0,0,1-6.06-11.71h0a60.44,60.44,0,0,1-3.46-12.66m0-7A7,7,0,0,0,295,69.3a66,66,0,0,0,3.86,14.14,71.57,71.57,0,0,0,6.72,13c.22.35.44.68.66,1,4.89,7.29,11.82,15.67,22.15,15.76h.2a22.62,22.62,0,0,0,9.92-2.45,15,15,0,0,1,7.07-1.74h.1a13.82,13.82,0,0,1,6.76,1.69,21.93,21.93,0,0,0,9.88,2.49h.19c10.12-.1,17.34-9,21.9-15.71.41-.6.82-1.22,1.22-1.84a73.87,73.87,0,0,0,6.44-11.86l0-.09.47-1a7,7,0,0,0-3.91-9.41,14.66,14.66,0,0,1-8.26-7.84,7,7,0,0,0-6.4-4.17Z" fill="#fff"/><text id="_Group_" data-name="&lt;Group&gt;" transform="translate(307.14 51.71)" font-size="7.06" fill="red" font-family="ArialMT, Arial" style="isolation:isolate">B<tspan x="4.71" y="0" letter-spacing="-0.07em">A</tspan><tspan x="8.89" y="0" letter-spacing="-0.02em">T</tspan><tspan x="13.07" y="0">OCER</tspan><tspan x="33.46" y="0" letter-spacing="-0.06em">A</tspan><tspan x="37.77" y="0" xml:space="preserve"> SUCKS!</tspan></text><path d="M462.1,78.5c.61,1.92,1.16,3.47,1.65,4.62a6.22,6.22,0,0,0,2.4,2.81,4.78,4.78,0,0,0,2.11.95c.63.08.95.37.95.87,0,.77-.58,1.16-1.74,1.16a20.94,20.94,0,0,1-2.77-.25,28.67,28.67,0,0,0-4.17-.25c-2.31,0-4.17.07-5.57.21s-2.39.2-2.94.2c-.93,0-1.4-.33-1.4-1q0-1.32,1.65-1.32A6,6,0,0,0,455,86.1a1.71,1.71,0,0,0,.66-1.57,16.1,16.1,0,0,0-.75-3.72l-3.22-10.58c-.11-.44-.52-.66-1.24-.66H440.21a.92.92,0,0,0-.54.21.89.89,0,0,0-.37.54l-2,7.35A33.93,33.93,0,0,0,436.08,84a2.09,2.09,0,0,0,.49,1.65,3.31,3.31,0,0,0,1.65.58,12,12,0,0,1,2.48.58,1.23,1.23,0,0,1,.83,1.24c0,.66-.47,1-1.4,1a21.27,21.27,0,0,1-2.73-.25,34.87,34.87,0,0,0-4.46-.24,22.7,22.7,0,0,0-3.18.2,15.48,15.48,0,0,1-2.28.21c-1,0-1.48-.36-1.48-1.07a.88.88,0,0,1,.41-.87,3.14,3.14,0,0,1,1-.29l1.33-.17a2.79,2.79,0,0,0,1.36-.58,4.89,4.89,0,0,0,1.73-2.35c.39-1,.8-2.27,1.24-3.76l13.14-42.63c.22-.61.4-1.09.54-1.45a.81.81,0,0,1,.86-.53c.61,0,1,.35,1.16,1.07s.44,1.65.83,2.81L462.1,78.5Zm-17-28.67c-.22,0-.38.22-.49.66L440.7,65.11a2.25,2.25,0,0,0-.08.58v.25c0,.33.19.49.58.49h8.26a.84.84,0,0,0,.5-.2.6.6,0,0,0,.24-.46A4.71,4.71,0,0,0,450,65l-4.46-14.38c-.17-.5-.33-.74-.5-.74Z" fill="#040404"/><path d="M477.8,56.52c0,.38.08.58.25.58s.38-.14.66-.42l.82-1a14.72,14.72,0,0,1,4.38-3.59,11,11,0,0,1,10.08.21,13.18,13.18,0,0,1,4.3,3.71,19,19,0,0,1,2.89,5.87,25.74,25.74,0,0,1,1.07,7.68A26.94,26.94,0,0,1,501,78a20.59,20.59,0,0,1-3.48,6.57,15.91,15.91,0,0,1-5.31,4.3,15.11,15.11,0,0,1-6.79,1.52,14.24,14.24,0,0,1-7.22-1.9l-.33.25-.08,11.73a7.33,7.33,0,0,0,.25,2.23,2,2,0,0,0,1.24,1.16,4.67,4.67,0,0,0,1.61.5c.52,0,1,.11,1.32.16a2,2,0,0,1,.87.33,1.2,1.2,0,0,1,.33,1c0,.77-.58,1.16-1.74,1.16a25.61,25.61,0,0,1-3.5-.25,30.85,30.85,0,0,0-4-.25,26.25,26.25,0,0,0-3.77.25,18.69,18.69,0,0,1-2.8.25c-1,0-1.49-.44-1.49-1.32s.3-1.16.91-1.16a6,6,0,0,0,2.15-.49,2.55,2.55,0,0,0,1.44-1.16,5.7,5.7,0,0,0,.37-2.4V63.13a5.33,5.33,0,0,0-.57-3,2.67,2.67,0,0,0-1.28-.95,6.14,6.14,0,0,0-1.29-.24q-.57,0-.57-.87c0-.66.42-1.14,1.28-1.45a14.39,14.39,0,0,0,3.18-1.77,19.18,19.18,0,0,0,3.47-2.9c.71-.82,1.29-1.23,1.73-1.23s.83.57.83,1.73v4.05Zm1.82,29.65a6.33,6.33,0,0,0,4.9,1.91,8.61,8.61,0,0,0,4.4-1.16,10.84,10.84,0,0,0,3.45-3.28,16.48,16.48,0,0,0,2.24-5.07,25.14,25.14,0,0,0,.79-6.44q0-7.39-3.12-11.46a9.5,9.5,0,0,0-7.84-4.07c-2.32,0-4,.68-5,2s-1.54,3.42-1.54,6.18V80.27q0,4,1.74,5.9Zm35.77-29.65c0,.38.08.58.25.58s.38-.14.66-.42l.83-1a14.48,14.48,0,0,1,4.38-3.59,11,11,0,0,1,10.07.21,13.08,13.08,0,0,1,4.3,3.71,18.82,18.82,0,0,1,2.89,5.87,25.73,25.73,0,0,1,1.08,7.68A26.94,26.94,0,0,1,538.6,78a20.59,20.59,0,0,1-3.48,6.57,16,16,0,0,1-5.3,4.3,15.19,15.19,0,0,1-6.8,1.52,14.21,14.21,0,0,1-7.21-1.9l-.34.25-.08,11.73a7.33,7.33,0,0,0,.25,2.23,2,2,0,0,0,1.24,1.16,4.74,4.74,0,0,0,1.61.5c.52,0,1,.11,1.32.16a2,2,0,0,1,.87.33,1.2,1.2,0,0,1,.33,1c0,.77-.58,1.16-1.74,1.16a25.72,25.72,0,0,1-3.5-.25,30.73,30.73,0,0,0-4-.25,26.35,26.35,0,0,0-3.77.25,18.69,18.69,0,0,1-2.8.25c-1,0-1.49-.44-1.49-1.32s.3-1.16.91-1.16a5.94,5.94,0,0,0,2.15-.49,2.55,2.55,0,0,0,1.44-1.16,5.67,5.67,0,0,0,.38-2.4V63.13a5.31,5.31,0,0,0-.58-3,2.63,2.63,0,0,0-1.28-.95,6.17,6.17,0,0,0-1.28-.24c-.39,0-.58-.32-.58-.87s.43-1.14,1.28-1.45a14.39,14.39,0,0,0,3.18-1.77,19.18,19.18,0,0,0,3.47-2.9c.72-.82,1.29-1.23,1.74-1.23s.82.57.82,1.73v4.05Zm1.83,29.65a6.29,6.29,0,0,0,4.89,1.91,8.58,8.58,0,0,0,4.4-1.16A10.84,10.84,0,0,0,530,83.64a16.48,16.48,0,0,0,2.24-5.07,24.7,24.7,0,0,0,.79-6.44q0-7.39-3.11-11.46A9.52,9.52,0,0,0,522,56.6c-2.32,0-4,.68-5,2s-1.54,3.42-1.54,6.18V80.27c0,2.66.59,4.63,1.75,5.9Zm35.68-3.63c0,1.82.52,3,1.57,3.47a3.31,3.31,0,0,0,1.32.38c.44,0,.84.07,1.2.12a1.73,1.73,0,0,1,.87.37,1.34,1.34,0,0,1,.33,1c0,.78-.55,1.16-1.65,1.16a23.33,23.33,0,0,1-3.22-.25,29.24,29.24,0,0,0-3.85-.24,27.36,27.36,0,0,0-3.81.24,19.39,19.39,0,0,1-2.84.25c-1,0-1.49-.44-1.49-1.32s.28-1.16.83-1.16a6.54,6.54,0,0,0,2.23-.49,2.08,2.08,0,0,0,1.4-1.12A5.89,5.89,0,0,0,546,83v-43a2.07,2.07,0,0,0-.53-1.57,3.59,3.59,0,0,0-1.24-.75,13.31,13.31,0,0,1-1.24-.49.81.81,0,0,1-.54-.75c0-.6.37-1,1.11-1.19a26.36,26.36,0,0,0,2.6-.87,19.48,19.48,0,0,0,4.21-2,4.74,4.74,0,0,1,1.75-.95c.44,0,.71.14.82.42a3.17,3.17,0,0,1,.17,1.15c0,.72,0,1.55-.13,2.48s-.12,2-.12,3.14V82.54Zm14.38-17c-.44,0-.72.09-.83.25a2.3,2.3,0,0,0-.16,1.08v2q0,7.68,3.26,12.14A10,10,0,0,0,578,85.44a9.86,9.86,0,0,0,4-.75,11.89,11.89,0,0,0,2.8-1.65,12.94,12.94,0,0,0,1.74-1.65q.61-.75.87-.75c.44,0,.66.31.66.91a4.78,4.78,0,0,1-1,2.4,12.77,12.77,0,0,1-2.85,2.93,19.07,19.07,0,0,1-4.42,2.52,14.79,14.79,0,0,1-5.79,1.07,13.68,13.68,0,0,1-6.15-1.36,13.42,13.42,0,0,1-4.75-3.92,18.35,18.35,0,0,1-3.06-6.2A28.69,28.69,0,0,1,559,70.81a26.4,26.4,0,0,1,1.19-8.22,18.62,18.62,0,0,1,3.35-6.24,15,15,0,0,1,5.08-4A14.6,14.6,0,0,1,575,51a14.24,14.24,0,0,1,5.46,1,13.07,13.07,0,0,1,4.21,2.77,12.37,12.37,0,0,1,2.69,4,13,13,0,0,1,1,5,1.4,1.4,0,0,1-.67,1.4,5.09,5.09,0,0,1-2.14.33Zm11.94-3.47c1.24-.6,1.85-1.81,1.85-3.63a5.32,5.32,0,0,0-1.69-3.8A5.79,5.79,0,0,0,575,52.88a6.8,6.8,0,0,0-5,2.23,10.92,10.92,0,0,0-2.81,5.62L567,62.05v.17c0,.5.33.74,1,.74h5.37a14.19,14.19,0,0,0,5.91-.91Z" fill="#040404"/><path d="M660.68,75.19a4.9,4.9,0,0,0-.27-2,2.26,2.26,0,0,0-1.46-.78,9.11,9.11,0,0,0-1.17-.14c-.3,0-.59,0-.89-.09a1.4,1.4,0,0,1-.6-.21.66.66,0,0,1-.21-.57q0-.84,1-.84a16.18,16.18,0,0,1,2.12.24,27.47,27.47,0,0,0,4.09.24,29.62,29.62,0,0,0,4.36-.24,16.46,16.46,0,0,1,1.91-.24q.9,0,.9.78a.75.75,0,0,1-.21.6,1.12,1.12,0,0,1-.54.24c-.25,0-.51.07-.77.09a6.63,6.63,0,0,0-1,.15c-.72.16-1.17.4-1.34.74a5.12,5.12,0,0,0-.27,2.06v9.08a4,4,0,0,1-.93,2.54,7.26,7.26,0,0,1-2.54,2A15.4,15.4,0,0,1,659.16,90a21.76,21.76,0,0,1-4.51.45A16.19,16.19,0,0,1,647.81,89a15.84,15.84,0,0,1-5.38-4A18.24,18.24,0,0,1,638.94,79a22.76,22.76,0,0,1-1.26-7.71A23.5,23.5,0,0,1,639.09,63a20.36,20.36,0,0,1,3.85-6.55,17.49,17.49,0,0,1,5.85-4.3,17.72,17.72,0,0,1,7.41-1.55,19.71,19.71,0,0,1,3,.22,20.73,20.73,0,0,1,2.6.55,13.5,13.5,0,0,1,2,.74,3.47,3.47,0,0,1,1.1.76q.72.72.72,5.79,0,1.68-.78,1.68c-.44,0-.74-.27-.92-.81s-.43-1.2-.75-2q-2.09-5.27-7.35-5.26a8.88,8.88,0,0,0-4.75,1.35,12.12,12.12,0,0,0-3.79,3.82,19.88,19.88,0,0,0-2.51,6,31.3,31.3,0,0,0-.9,7.8,26.07,26.07,0,0,0,.93,7.23A18.73,18.73,0,0,0,647.33,84a11.78,11.78,0,0,0,3.7,3.56,8.8,8.8,0,0,0,4.51,1.25,6.52,6.52,0,0,0,2.75-.48A3.57,3.57,0,0,0,659.85,87a5.22,5.22,0,0,0,.68-2.06,21.38,21.38,0,0,0,.15-2.64V75.19Zm19-18.4a9.22,9.22,0,0,1,5.43-5.41,12.16,12.16,0,0,1,4.4-.75,13,13,0,0,1,4.45.71,5.81,5.81,0,0,1,2.36,1.26q.47.6.47,6.51c0,.84-.26,1.26-.77,1.26s-.73-.27-.87-.81a20.19,20.19,0,0,0-.86-2.36,12.12,12.12,0,0,0-2.1-3.64,4.1,4.1,0,0,0-3.22-1.26,5.47,5.47,0,0,0-4.21,1.64,6.33,6.33,0,0,0-1.53,4.5,5.56,5.56,0,0,0,1.35,3.87,14.94,14.94,0,0,0,4.21,3A44.06,44.06,0,0,1,693,67.79a14.9,14.9,0,0,1,3.14,2.77A10.74,10.74,0,0,1,698.08,74a13.46,13.46,0,0,1,.66,4.41,13,13,0,0,1-.87,4.82A11.63,11.63,0,0,1,695.48,87a11,11,0,0,1-3.64,2.53,11.43,11.43,0,0,1-4.63.93,14,14,0,0,1-6.4-1.26,4.07,4.07,0,0,1-2.45-3.82c0-.68,0-1.34.06-2s.06-1.24.06-1.8,0-.78,0-1,0-.43,0-.51c0-1.23.3-1.85.9-1.85a.63.63,0,0,1,.6.33,2.85,2.85,0,0,1,.27.89l.21,1.35a13,13,0,0,0,.35,1.61,9.45,9.45,0,0,0,2.9,4.72,6.59,6.59,0,0,0,4.27,1.67,6,6,0,0,0,2.51-.54,6.12,6.12,0,0,0,2.06-1.49,7.24,7.24,0,0,0,1.38-2.28,8.09,8.09,0,0,0-1.2-7.8,16.52,16.52,0,0,0-5.11-4.1c-1.13-.64-2.25-1.3-3.37-2a12.29,12.29,0,0,1-2.75-2.21,9.62,9.62,0,0,1-1.85-3A11.92,11.92,0,0,1,678.9,61a11.56,11.56,0,0,1,.75-4.25Z" fill="#040404"/><path d="M614.21,82.71c0,.88,0,1.6,0,2.15a4.46,4.46,0,0,0,.25,1.36,1.9,1.9,0,0,0,.66.87,4.4,4.4,0,0,0,1.28.58,4.64,4.64,0,0,0,1.41.24A6.47,6.47,0,0,1,619,88a1.39,1.39,0,0,1,.79.37,1.32,1.32,0,0,1,.29.95c0,.77-.58,1.16-1.74,1.16-.49,0-1.39-.09-2.68-.25a53.48,53.48,0,0,0-10.33,0c-1.29.16-2.19.25-2.68.25-1.16,0-1.74-.44-1.74-1.33a1,1,0,0,1,.29-.82,1.44,1.44,0,0,1,.74-.33,6,6,0,0,1,1-.09,4.14,4.14,0,0,0,1.15-.16,5.77,5.77,0,0,0,1.53-.58,2,2,0,0,0,.79-.87,3.76,3.76,0,0,0,.28-1.4c0-.58,0-1.31,0-2.19V44.87a8.32,8.32,0,0,0-.29-2.69A2.35,2.35,0,0,0,605,41.07a5.34,5.34,0,0,0-1.57-.25,8.72,8.72,0,0,1-1.2-.08,2,2,0,0,1-.83-.29,1,1,0,0,1-.28-.87c0-.77.41-1.16,1.24-1.16a20.91,20.91,0,0,1,2.64.34,35.69,35.69,0,0,0,5.53.33,35.74,35.74,0,0,0,5.54-.33,20.91,20.91,0,0,1,2.64-.34c.83,0,1.24.39,1.24,1.16a1,1,0,0,1-.24.79,1.75,1.75,0,0,1-.75.29c-.33.05-.71.09-1.15.12a9.44,9.44,0,0,0-1.41.21q-1.58.33-1.86,1.11a9.18,9.18,0,0,0-.29,2.77V82.71Z" fill="#040404"/><path d="M631.73,82.71c0,.88,0,1.6,0,2.15a4.46,4.46,0,0,0,.25,1.36,1.9,1.9,0,0,0,.66.87,4.4,4.4,0,0,0,1.28.58,4.53,4.53,0,0,0,1.4.24,6.59,6.59,0,0,1,1.16.09,1.36,1.36,0,0,1,.78.37,1.27,1.27,0,0,1,.29.95c0,.77-.57,1.16-1.73,1.16-.5,0-1.39-.09-2.69-.25a53.38,53.38,0,0,0-10.32,0c-1.3.16-2.19.25-2.69.25-1.16,0-1.73-.44-1.73-1.33a1,1,0,0,1,.28-.82,1.48,1.48,0,0,1,.75-.33,5.89,5.89,0,0,1,1-.09,4.27,4.27,0,0,0,1.16-.16,5.77,5.77,0,0,0,1.53-.58,2,2,0,0,0,.78-.87,3.75,3.75,0,0,0,.29-1.4c0-.58,0-1.31,0-2.19V44.87a8.32,8.32,0,0,0-.29-2.69,2.33,2.33,0,0,0-1.53-1.11,5.29,5.29,0,0,0-1.57-.25,8.46,8.46,0,0,1-1.19-.08,2,2,0,0,1-.83-.29,1,1,0,0,1-.29-.87c0-.77.41-1.16,1.24-1.16a20.91,20.91,0,0,1,2.64.34,35.83,35.83,0,0,0,5.54.33,35.6,35.6,0,0,0,5.53-.33,21.21,21.21,0,0,1,2.65-.34c.83,0,1.24.39,1.24,1.16a1,1,0,0,1-.25.79,1.65,1.65,0,0,1-.74.29c-.33.05-.72.09-1.16.12a9.32,9.32,0,0,0-1.4.21q-1.57.33-1.86,1.11a8.86,8.86,0,0,0-.29,2.77V82.71Z" fill="#040404"/><path d="M305.65,42.9l.1-.15c5.11-7.9,13.17-12.52,20.75-12.52s12.57,4.25,18.94,4.25c6.19,0,10-4.26,18.89-4.26,6.74,0,13.89,3.69,19,10.06a22.78,22.78,0,0,0-3.81,2.62Z" fill="#61bb46" stroke="#61bb46" stroke-miterlimit="2.61" stroke-width="1.15"/><path d="M357.56,23.11C360.8,18.93,363.26,13,362.37,7c-5.3.36-11.49,3.75-15.11,8.16-3.28,4-6,9.94-4.94,15.71,5.79.18,11.77-3.29,15.24-7.76Z" fill="#61bb46" stroke="#61bb46" stroke-miterlimit="2.61" stroke-width="1.15"/><path d="M305.39,42.78a30.73,30.73,0,0,0-4.13,12.78h71.39a21.37,21.37,0,0,1,7.4-12.77Z" fill="#fdb827"/><path d="M301.91,68.22a48.57,48.57,0,0,1-.37-12.66h70.83A22.56,22.56,0,0,0,374,68.22Z" fill="#f5821f" stroke="#f5821f" stroke-miterlimit="2.61" stroke-width="1.15"/><path d="M305.37,80.88a60.44,60.44,0,0,1-3.46-12.66H374a21.5,21.5,0,0,0,12.18,11.55l-.5,1.12Z" fill="#e03a3e" stroke="#e03a3e" stroke-miterlimit="2.61" stroke-width="1.15"/><path d="M385.69,80.88a67.65,67.65,0,0,1-5.92,10.93l-1.15,1.73H312.07c-.22-.31-.43-.63-.64-1a65.27,65.27,0,0,1-6.06-11.71Z" fill="#963d97" stroke="#963d97" stroke-miterlimit="2.61" stroke-width="1.15"/><path d="M378.62,93.54c-4.07,6-9.54,12.58-16.17,12.64-6.47.06-8.13-4.23-16.91-4.18s-10.62,4.25-17.09,4.19c-6.92-.06-12.29-6.53-16.39-12.65Z" fill="#009ddc" stroke="#009ddc" stroke-miterlimit="2.61" stroke-width="1.15"/></g></svg>