<svg id="Layer_1" data-name="Layer 1" xmlns="http://www.w3.org/2000/svg" viewBox="0 0 1000 114"><title>logo_right</title><path d="M784.56,106.34c-5.64,0-9.42-3.53-9.42-8.77a3.49,3.49,0,0,1,1.73-3,7.26,7.26,0,0,1-1.31-4.42c0-3.9,3.09-7.85,9-7.85a9,9,0,0,1,6.64,2.55,8,8,0,0,1,2.25,5.86,3.47,3.47,0,0,1-1.13,2.51A7.22,7.22,0,0,1,794,98.11C794,103,790.19,106.34,784.56,106.34Z"/><path d="M784.56,85.78c3.61,0,5.44,2.2,5.39,4.84h-1.41c0-2.47-1.94-3.53-4-3.53-3.15,0-4.25,1.91-4,3.58.69,4.18,9.91,1.16,9.91,7.44,0,3-2.2,4.73-5.92,4.73-3.41,0-5.92-1.75-5.92-5.27h1.52c.26,2.9,2.14,4,4.66,4,2.88,0,4.08-1.57,4.08-3.35,0-5-9.84-1.69-9.84-8.05,0-2.26,1.83-4.35,5.5-4.35m0-7c-8.12,0-12.5,5.85-12.5,11.35a11.94,11.94,0,0,0,.58,3.82,7,7,0,0,0-1,3.62c0,7.22,5.31,12.27,12.92,12.27s12.92-4.83,12.92-11.73a11.57,11.57,0,0,0-1-4.92,7.25,7.25,0,0,0,.48-2.43,11.55,11.55,0,0,0-3.25-8.38,12.63,12.63,0,0,0-9.14-3.6Z" fill="#fff"/><path d="M815.36,106.23c-3.37,0-5.54-2.29-5.54-5.82V94.83a3.49,3.49,0,0,1-1.63-3V90.76a3.49,3.49,0,0,1,1.63-3v-.29a3.5,3.5,0,0,1,3.5-3.5h1.36a3.5,3.5,0,0,1,3.5,3.5v0a3.5,3.5,0,0,1,2.15,3.23v1.12a3.51,3.51,0,0,1-2.15,3.23v3a3.82,3.82,0,0,1,.92.52,3.52,3.52,0,0,1,1.33,2.75v1.1a3.5,3.5,0,0,1-2.75,3.42l-.1,0A8.62,8.62,0,0,1,815.36,106.23Z"/><path d="M814.68,87.51v3.25h2.15v1.12h-2.15v8c0,1.15,0,1.64,1.15,1.64a4.57,4.57,0,0,0,1.1-.16v1.1h0a6.19,6.19,0,0,1-1.57.28c-1.31,0-2-.59-2-2.32V91.88h-1.63V90.76h1.63V87.51h1.36m0-7h-1.36a7,7,0,0,0-6.86,5.6,7,7,0,0,0-1.77,4.65v1.12a6.94,6.94,0,0,0,1.63,4.48v4c0,5.48,3.72,9.32,9,9.32a11.56,11.56,0,0,0,3.11-.45h0a7,7,0,0,0,5.42-6.81v-1.1a7,7,0,0,0-1.9-4.8,7,7,0,0,0,1.8-4.68V90.76a7,7,0,0,0-2.47-5.34,7,7,0,0,0-6.68-4.91Z" fill="#fff"/><path d="M768.89,110.5a8.35,8.35,0,0,1-2.08-.26,3.48,3.48,0,0,1-2.67-3.4v-1.26a3.49,3.49,0,0,1,1.26-2.69,3.43,3.43,0,0,1,1.74-.77L763.22,92a3.51,3.51,0,0,1,3.26-4.77H768a3.52,3.52,0,0,1,3.28,2.27l.47,1.26.46-1.24a3.5,3.5,0,0,1,3.28-2.29H777A3.5,3.5,0,0,1,780.23,92l-4.34,11.5C774.71,106.61,773.25,110.5,768.89,110.5Z"/><path d="M777,90.75h0m0,0-4.35,11.5c-1.1,2.93-1.83,4.75-3.72,4.75a5.13,5.13,0,0,1-1.25-.16v-1.26h0a5.81,5.81,0,0,0,1.1.14c1.57,0,1.78-2.21,2.3-3.22l-4.56-11.75H768l3.77,10,3.72-10H777m0-7h-1.48a7,7,0,0,1-7.49,0h-1.52A7,7,0,0,0,760,93.29l2.81,7.25a7,7,0,0,0-2.13,5v1.26a7,7,0,0,0,5.34,6.81,12.65,12.65,0,0,0,2.91.35c6.78,0,9.05-6,10.27-9.28l4.27-11.27a7.1,7.1,0,0,0,.53-2.7,7,7,0,0,0-7-7Z" fill="#fff"/><path d="M932.76,106.23c-5.29,0-8.85-3.86-8.85-9.6s3.72-9.69,8.85-9.69,8.63,3.91,8.63,10a3.7,3.7,0,0,1-.19,1.15,3.63,3.63,0,0,1-.07,1.82C939.86,104,936.89,106.23,932.76,106.23Z"/><path d="M932.76,90.44c3.19,0,5.13,2.28,5.13,6.46h-9.06c0,2.51,1.36,4.61,3.93,4.61a3.39,3.39,0,0,0,3.51-2.68h1.52c-.69,2.2-2,3.9-5,3.9-3.72,0-5.35-2.66-5.35-6.1s2-6.19,5.35-6.19m-3.93,5.33h7.59c0-2.27-1.25-4.11-3.66-4.11s-3.67,1.91-3.93,4.11m3.93-12.33c-7,0-12.35,5.67-12.35,13.19,0,7.71,5.08,13.1,12.35,13.1a11.86,11.86,0,0,0,11.71-8.83,6.88,6.88,0,0,0,.29-2.66,6.69,6.69,0,0,0,.13-1.34c0-7.93-5-13.46-12.13-13.46Z" fill="#fff"/><path d="M803.31,106.23c-4.3,0-7.43-2.89-7.43-6.86a7,7,0,0,1,1-3.49,3.5,3.5,0,0,1-.37-1.86c.33-4.3,3.57-7.08,8.25-7.08s7.75,2.79,7.75,7.12v4.43a3.51,3.51,0,0,1,1.41,2.82v1a3.51,3.51,0,0,1-2.43,3.34,7,7,0,0,1-2.11.39,6,6,0,0,1-1.28-.13,4.86,4.86,0,0,1-1.26-.4A9.3,9.3,0,0,1,803.31,106.23Z"/><path d="M804.72,90.44c2.36,0,4.25.92,4.25,3.62v6.34c0,.75.13,1.09.6,1.09a2.6,2.6,0,0,0,.81-.18v1a3.74,3.74,0,0,1-1,.23,2.7,2.7,0,0,1-.63-.07c-.89-.13-1.05-.92-1.05-1.73a5.79,5.79,0,0,1-4.35,1.94c-2,0-3.93-1.11-3.93-3.36,0-2,1.36-3.15,4.09-3.51l1.88-.24h0a7.66,7.66,0,0,0,1.79-.39c.41-.2.47-.81.47-1.21,0-1.37-.79-2.36-2.89-2.36-1.88,0-3.14.6-3.4,2.63H800c.21-2.75,2.25-3.85,4.76-3.85m-1.36,11.07c2.15,0,4.25-1,4.25-3.4V96.29h0a11.18,11.18,0,0,1-3.46.65c-2,.16-3.3.9-3.3,2.47a2.24,2.24,0,0,0,2.51,2.1m1.36-18.07c-6.55,0-11.27,4.14-11.74,10.31a6.93,6.93,0,0,0,.11,1.88,10.31,10.31,0,0,0-.71,3.74c0,5.9,4.7,10.36,10.93,10.36a12.84,12.84,0,0,0,3.46-.47l.62.14a10.48,10.48,0,0,0,2,.19,10.28,10.28,0,0,0,3.19-.56,7,7,0,0,0,4.85-6.67v-1A7.07,7.07,0,0,0,816,97.08v-3c0-6.26-4.63-10.62-11.25-10.62Z" fill="#fff"/><path d="M795.92,106.23c-3.36,0-5.54-2.29-5.54-5.82V94.87a3.53,3.53,0,0,1-1.68-3V90.76a3.5,3.5,0,0,1,1.68-3v-.26a3.5,3.5,0,0,1,3.5-3.5h1.36a3.5,3.5,0,0,1,3.5,3.5v0a3.49,3.49,0,0,1,2.15,3.23v1.12a3.5,3.5,0,0,1-2.15,3.23v3a3.64,3.64,0,0,1,.92.52,3.53,3.53,0,0,1,1.34,2.75v1.1a3.5,3.5,0,0,1-2.76,3.42l-.1,0A8.54,8.54,0,0,1,795.92,106.23Z"/><path d="M795.24,87.51v3.25h2.15v1.12h-2.15v8c0,1.15,0,1.64,1.16,1.64a4.72,4.72,0,0,0,1.1-.16v1.1h0a6.28,6.28,0,0,1-1.58.28c-1.31,0-2-.59-2-2.32V91.88H792.2V90.76h1.68V87.51h1.36m0-7h-1.36A7,7,0,0,0,787,86a7,7,0,0,0-1.84,4.73v1.12a7,7,0,0,0,1.68,4.54v4c0,5.48,3.72,9.32,9,9.32a11.41,11.41,0,0,0,3.11-.45h0a7,7,0,0,0,5.43-6.82v-1.1a7,7,0,0,0-1.9-4.79,7,7,0,0,0,1.79-4.68V90.76a7,7,0,0,0-2.46-5.34,7,7,0,0,0-6.69-4.91Z" fill="#fff"/><path d="M737.41,105.91a3.5,3.5,0,0,1-3.5-3.5V86.21a3.5,3.5,0,0,1,3.5-3.5h5.92c5.5,0,8.79,3,8.79,8,0,3.87-2.55,8-9.69,8v3.66a3.5,3.5,0,0,1-3.5,3.5Z"/><path d="M743.33,86.21c4.19,0,5.29,2.09,5.29,4.52,0,3.62-3.25,4.52-6.23,4.52h-3.46v7.16h-1.52V86.21h5.92M738.93,94h3.51c2.88,0,4.61-.59,4.61-3.33,0-2-1.26-3.11-4.14-3.11h-4V94m4.4-14.74h-5.92a7,7,0,0,0-7,7v16.2a7,7,0,0,0,7,7h1.52a7,7,0,0,0,7-7v-.48c6.66-1.29,9.69-6.26,9.69-11.2,0-6.89-4.94-11.52-12.29-11.52Z" fill="#fff"/><path d="M686.65,63.34a3.5,3.5,0,0,1-3.5-3.5V31.53a3.5,3.5,0,0,1,3.5-3.5h88.17V14.27H686.65a3.5,3.5,0,0,1-3.5-3.5V7a3.5,3.5,0,0,1,3.5-3.5h95.44a3.5,3.5,0,0,1,3.5,3.5V35.3a3.49,3.49,0,0,1-3.5,3.5H693.92v21a3.5,3.5,0,0,1-3.5,3.5Z"/><path d="M782.09,7V35.3H690.42V59.84h-3.77V31.53h91.67V10.77H686.65V7h95.44m0-7H686.65a7,7,0,0,0-7,7v3.77a7,7,0,0,0,7,7h84.67v6.76H686.65a7,7,0,0,0-7,7V59.84a7,7,0,0,0,7,7h3.77a7,7,0,0,0,7-7V42.3h84.67a7,7,0,0,0,7-7V7a7,7,0,0,0-7-7Z" fill="#fff"/><path d="M900,106.23c-4.3,0-7.43-2.89-7.43-6.86a7,7,0,0,1,1-3.49,3.5,3.5,0,0,1-.37-1.86c.33-4.3,3.57-7.08,8.26-7.08s7.74,2.79,7.74,7.12v4.43a3.52,3.52,0,0,1,1.42,2.82v1a3.5,3.5,0,0,1-2.44,3.34,6.72,6.72,0,0,1-2.11.39,6,6,0,0,1-1.28-.13,5,5,0,0,1-1.26-.4A9.3,9.3,0,0,1,900,106.23Z"/><path d="M901.38,90.44c2.35,0,4.24.92,4.24,3.62v6.34c0,.75.13,1.09.6,1.09a2.71,2.71,0,0,0,.82-.18v1a3.82,3.82,0,0,1-1,.23,2.7,2.7,0,0,1-.63-.07c-.89-.13-1.05-.92-1.05-1.73a5.79,5.79,0,0,1-4.35,1.94c-2,0-3.93-1.11-3.93-3.36,0-2,1.37-3.15,4.09-3.51l1.89-.24h0a7.58,7.58,0,0,0,1.78-.39c.42-.2.47-.81.47-1.21,0-1.37-.79-2.36-2.88-2.36-1.89,0-3.15.6-3.41,2.63h-1.36c.21-2.75,2.25-3.85,4.77-3.85M900,101.51c2.14,0,4.24-1,4.24-3.4V96.29h0a11.13,11.13,0,0,1-3.46.65c-2,.16-3.3.9-3.3,2.47a2.24,2.24,0,0,0,2.52,2.1m1.36-18.07c-6.56,0-11.28,4.14-11.75,10.31a6.93,6.93,0,0,0,.11,1.88,10.31,10.31,0,0,0-.71,3.74c0,5.9,4.7,10.36,10.93,10.36a12.91,12.91,0,0,0,3.47-.47l.61.14a10.48,10.48,0,0,0,2,.19,10.28,10.28,0,0,0,3.19-.56,7,7,0,0,0,4.86-6.67v-1a7,7,0,0,0-1.42-4.22v-3c0-6.26-4.62-10.62-11.24-10.62Z" fill="#fff"/><rect x="747.16" y="82.71" width="8.31" height="23.2" rx="3.5"/><path d="M752,86.21v16.2h-1.31V86.21H752m0-7h-1.31a7,7,0,0,0-7,7v16.2a7,7,0,0,0,7,7H752a7,7,0,0,0,7-7V86.21a7,7,0,0,0-7-7Z" fill="#fff"/><path d="M897.55,63.34a3.5,3.5,0,0,1-3.5-3.5V31.53a3.5,3.5,0,0,1,3.5-3.5h88.18V14.27H897.55a3.5,3.5,0,0,1-3.5-3.5V7a3.5,3.5,0,0,1,3.5-3.5H993A3.5,3.5,0,0,1,996.5,7V35.3a3.5,3.5,0,0,1-3.5,3.5H904.83v21a3.5,3.5,0,0,1-3.5,3.5Z"/><path d="M993,7V35.3H901.33V59.84h-3.78V31.53h91.68V10.77H897.55V7H993m0-7H897.55a7,7,0,0,0-7,7v3.77a7,7,0,0,0,7,7h84.68v6.76H897.55a7,7,0,0,0-7,7V59.84a7,7,0,0,0,7,7h3.78a7,7,0,0,0,7-7V42.3H993a7,7,0,0,0,7-7V7a7,7,0,0,0-7-7Z" fill="#fff"/><path d="M758.63,106.23c-4.28,0-7.38-2.89-7.38-6.86a6.85,6.85,0,0,1,.93-3.44,3.49,3.49,0,0,1-.4-1.91c.33-4.3,3.59-7.08,8.31-7.08s7.69,2.79,7.69,7.12v4.47a3.51,3.51,0,0,1,1.42,2.78v1a3.5,3.5,0,0,1-2.13,3.22,6.45,6.45,0,0,1-2.42.51,5.62,5.62,0,0,1-1.22-.13,4.79,4.79,0,0,1-1.3-.41A9.36,9.36,0,0,1,758.63,106.23Z"/><path d="M760.09,90.44c2.36,0,4.19.92,4.19,3.62v6.34c0,.75.16,1.09.63,1.09a2.45,2.45,0,0,0,.79-.18v1a3,3,0,0,1-1.05.23,2.3,2.3,0,0,1-.58-.07c-.94-.13-1.1-.92-1.1-1.73a5.71,5.71,0,0,1-4.34,1.94c-2,0-3.88-1.11-3.88-3.36,0-2,1.36-3.15,4.09-3.51l1.83-.24h0a6.62,6.62,0,0,0,1.78-.39c.47-.2.52-.81.52-1.21,0-1.37-.83-2.36-2.93-2.36-1.83,0-3.14.6-3.4,2.63h-1.37c.21-2.75,2.26-3.85,4.82-3.85m-1.41,11.07c2.15,0,4.29-1,4.29-3.4V96.29a11.38,11.38,0,0,1-3.51.65c-2,.16-3.3.9-3.3,2.47a2.24,2.24,0,0,0,2.52,2.1m1.41-18.07c-6.58,0-11.33,4.14-11.8,10.31a7.19,7.19,0,0,0,.13,2,10.43,10.43,0,0,0-.67,3.65c0,5.9,4.67,10.36,10.88,10.36a13,13,0,0,0,3.48-.48c.21.06.43.11.65.15a9.32,9.32,0,0,0,1.89.19,10.08,10.08,0,0,0,3.83-.8,7,7,0,0,0,4.22-6.43v-1a7,7,0,0,0-1.42-4.22v-3c0-6.26-4.6-10.62-11.19-10.62Z" fill="#fff"/><path d="M915.1,106.22a8.25,8.25,0,0,1-2.88-.52,3.4,3.4,0,0,1-1.2.21h-1.37a3.5,3.5,0,0,1-3.5-3.5V86.21a3.5,3.5,0,0,1,3.5-3.5H911a3.5,3.5,0,0,1,3.5,3.5V87c.21,0,.42,0,.64,0,5.11,0,8.68,4,8.68,9.68S920.41,106.22,915.1,106.22ZM915,98c.12,0,.46,0,.48-1.13a2.91,2.91,0,0,0-.31-1.72h-.23a2.08,2.08,0,0,0-.37,1.37,2.55,2.55,0,0,0,.32,1.48H915Z"/><path d="M911,86.21v6.41a4.81,4.81,0,0,1,4.14-2.19c3.56,0,5.18,2.91,5.18,6.18,0,3.43-1.47,6.11-5.24,6.11a4.76,4.76,0,0,1-4.08-2.36v2h-1.37V86.21H911m3.93,15.3c2.25,0,3.92-1.65,4-4.57s-1.21-5.28-4-5.28c-2.47,0-3.93,2.24-3.93,4.87,0,2.82,1.36,5,3.93,5M911,79.21h-1.37a7,7,0,0,0-7,7v16.2a7,7,0,0,0,7,7H911a7.88,7.88,0,0,0,1.09-.08,11.52,11.52,0,0,0,3,.39c7.32,0,12.24-5.27,12.24-13.11,0-6.75-4-11.86-9.8-13A7,7,0,0,0,911,79.21Z" fill="#fff"/><rect x="816.16" y="87.26" width="8.31" height="18.66" rx="3.5"/><path d="M821,90.76v11.65h-1.32V90.76H821m0-7h-1.32a7,7,0,0,0-7,7v11.65a7,7,0,0,0,7,7H821a7,7,0,0,0,7-7V90.76a7,7,0,0,0-7-7Z" fill="#fff"/><path d="M881.84,105.91a3.5,3.5,0,0,1-3.5-3.5V90.76a3.5,3.5,0,0,1,3.5-3.5h1.36a3.42,3.42,0,0,1,1,.13,8.58,8.58,0,0,1,2.86-.45,3.49,3.49,0,0,1,3.5,3.5V91.9a3.52,3.52,0,0,1-1,2.51,3.48,3.48,0,0,1-2.45,1h-.19a4.89,4.89,0,0,0-.13,1.29v5.72a3.5,3.5,0,0,1-3.5,3.5Z"/><path d="M887,90.44V91.9h-.13c-2.93,0-3.69,2.22-3.69,4.79v5.72h-1.36V90.76h1.36v2.18h0a3.49,3.49,0,0,1,3.77-2.5m0-7a12.58,12.58,0,0,0-3.06.36,6.34,6.34,0,0,0-.76,0h-1.36a7,7,0,0,0-7,7v11.65a7,7,0,0,0,7,7h1.36a7,7,0,0,0,7-7V98.15a7.22,7.22,0,0,0,1.73-1.24,7,7,0,0,0,2.09-5V90.44a7,7,0,0,0-7-7Z" fill="#fff"/><path d="M857.22,105.91a3.48,3.48,0,0,1-3.5-3.5V86.21a3.5,3.5,0,0,1,3.5-3.5h5.92c5.5,0,8.79,3,8.79,8,0,3.87-2.55,8-9.69,8v3.66a3.5,3.5,0,0,1-3.5,3.5Z"/><path d="M863.14,86.21c4.19,0,5.29,2.09,5.29,4.52,0,3.62-3.2,4.52-6.24,4.52h-3.45v7.16h-1.52V86.21h5.92M858.73,94h3.51c2.89,0,4.67-.59,4.67-3.33,0-2-1.31-3.11-4.19-3.11h-4V94m4.41-14.74h-5.92a7,7,0,0,0-7,7v16.2a7,7,0,0,0,7,7h1.52a7,7,0,0,0,7-7v-.48c6.66-1.29,9.69-6.26,9.69-11.2,0-6.89-4.94-11.52-12.29-11.52ZM863,94.52Z" fill="#fff"/><path d="M893.05,106.23c-3.4,0-5.6-2.29-5.6-5.82V94.83a3.5,3.5,0,0,1-1.62-3V90.76a3.51,3.51,0,0,1,1.62-3v-.29A3.5,3.5,0,0,1,891,84h1.37a3.51,3.51,0,0,1,3.5,3.5A3.49,3.49,0,0,1,898,90.76v1.12a3.51,3.51,0,0,1-2.19,3.25v3a3.84,3.84,0,0,1,.86.48,3.51,3.51,0,0,1,1.39,2.78v1.1a3.5,3.5,0,0,1-2.76,3.42l-.1,0A8.36,8.36,0,0,1,893.05,106.23Z"/><path d="M892.31,87.51v3.25h2.2v1.12h-2.2v8c0,1.15.06,1.64,1.16,1.64a4.29,4.29,0,0,0,1.1-.16v1.1h0a6.27,6.27,0,0,1-1.52.28c-1.36,0-2.1-.59-2.1-2.32V91.88h-1.62V90.76H891V87.51h1.36m0-7H891a7,7,0,0,0-6.86,5.6,7,7,0,0,0-1.76,4.65v1.12A7,7,0,0,0,884,96.36v4c0,5.48,3.74,9.32,9.1,9.32a11.22,11.22,0,0,0,3.05-.45h0a7,7,0,0,0,5.42-6.82v-1.1a7,7,0,0,0-1.88-4.76,7,7,0,0,0,1.82-4.71V90.76a7,7,0,0,0-2.53-5.4,7,7,0,0,0-6.67-4.85Z" fill="#fff"/><path d="M874.4,106.22c-5.21-.08-8.84-4-8.84-9.64s3.65-9.64,8.89-9.64,8.9,3.87,8.9,9.64c0,5.59-3.74,9.64-8.9,9.64ZM874.28,98h.17a.8.8,0,0,0,.2,0,2.85,2.85,0,0,0,.28-1.41,3.34,3.34,0,0,0-.25-1.41h-.23a.71.71,0,0,0-.2,0,2.8,2.8,0,0,0-.28,1.4,2.49,2.49,0,0,0,.3,1.42Z"/><path d="M874.45,90.43c3.67,0,5.4,2.73,5.4,6.15,0,3.69-2.15,6.14-5.4,6.14-3,0-5.39-2.06-5.39-6.14,0-3.39,1.78-6.15,5.39-6.15m0,11.08c2.83,0,4-2.43,4-4.93,0-2.75-1.1-4.92-4-4.92s-4,2.4-4,4.92c0,2.9,1.41,4.93,4,4.93m0-18.08c-7.18,0-12.39,5.53-12.39,13.15s5.16,13,12.28,13.14h.11c7.18,0,12.4-5.52,12.4-13.14s-5.22-13.15-12.4-13.15Zm-3,12.94Z" fill="#fff"/><path d="M828.87,106.22c-5.2-.08-8.84-4-8.84-9.64s3.66-9.64,8.9-9.64,9,4,9,9.64-3.68,9.64-9,9.64Zm.06-8.21a.59.59,0,0,0,.19,0,2.8,2.8,0,0,0,.29-1.41,3.28,3.28,0,0,0-.23-1.4l-.25,0h-.19a3.58,3.58,0,0,0-.24,1.41,2.69,2.69,0,0,0,.28,1.43h.15Z"/><path d="M828.93,90.43c3.66,0,5.45,2.73,5.45,6.15,0,3.69-2.15,6.14-5.45,6.14-2.94,0-5.4-2.06-5.4-6.14,0-3.39,1.84-6.15,5.4-6.15m0,11.08c2.83,0,4-2.43,4-4.93,0-2.75-1.1-4.92-4-4.92S825,94.06,825,96.58c0,2.9,1.36,4.93,3.93,4.93m0-18.08c-7.18,0-12.4,5.53-12.4,13.15s5.17,13,12.29,13.14h.11c7.21,0,12.45-5.52,12.45-13.14s-5.24-13.15-12.45-13.15Z" fill="#fff"/><rect x="919.83" y="82.71" width="8.36" height="23.2" rx="3.5"/><path d="M924.69,86.21v16.2h-1.36V86.21h1.36m0-7h-1.36a7,7,0,0,0-7,7v16.2a7,7,0,0,0,7,7h1.36a7,7,0,0,0,7-7V86.21a7,7,0,0,0-7-7Z" fill="#fff"/><rect x="816.05" y="82.71" width="8.52" height="9" rx="3.5"/><path d="M821.07,86.21v2h-1.52v-2h1.52m0-7h-1.52a7,7,0,0,0-7,7v2a7,7,0,0,0,7,7h1.52a7,7,0,0,0,7-7v-2a7,7,0,0,0-7-7Z" fill="#fff"/><path d="M782.09,63.34a3.5,3.5,0,0,1-3.5-3.5V56.06a3.5,3.5,0,0,1,3.5-3.5h45.17V7a3.5,3.5,0,0,1,3.5-3.5h52.65a3.5,3.5,0,0,1,3.5,3.5v3.77a3.5,3.5,0,0,1-3.5,3.5H838.24V59.84a3.5,3.5,0,0,1-3.5,3.5Z"/><path d="M883.41,7v3.77H834.74V59.84H782.09V56.06h48.67V7h52.65m0-7H830.76a7,7,0,0,0-7,7V49.06H782.09a7,7,0,0,0-7,7v3.78a7,7,0,0,0,7,7h52.65a7,7,0,0,0,7-7V17.77h41.67a7,7,0,0,0,7-7V7a7,7,0,0,0-7-7Z" fill="#fff"/><path d="M836.26,105.91a3.5,3.5,0,0,1-3.5-3.5V90.76a3.5,3.5,0,0,1,3.5-3.5h1.36a3.58,3.58,0,0,1,1,.15,7.63,7.63,0,0,1,2.68-.47,7.39,7.39,0,0,1,6.45,3.18A7.8,7.8,0,0,1,849,94.78v7.63a3.5,3.5,0,0,1-3.5,3.5h-1.36a3.5,3.5,0,0,0-6.55,0Zm5.15-10.73"/><path d="M841.34,90.44a4,4,0,0,1,3.57,1.66,4.42,4.42,0,0,1,.62,2.68v7.63h-1.36V94.8c0-2.09-.89-3.14-3-3.14a3.37,3.37,0,0,0-3.24,2.26,6.05,6.05,0,0,0-.27,2.21v6.28h-1.36V90.76h1.36v1.61a4.91,4.91,0,0,1,3.72-1.93m0-7a11,11,0,0,0-2.87.37,5.89,5.89,0,0,0-.85,0h-1.36a7,7,0,0,0-7,7v11.65a7,7,0,0,0,7,7h1.36a7,7,0,0,1,6.55,0h1.36a7,7,0,0,0,7-7V94.78a11.28,11.28,0,0,0-1.85-6.64,11,11,0,0,0-9.34-4.7Z" fill="#fff"/><path d="M742.44,94c2.88,0,4.61-.59,4.61-3.33,0-2-1.26-3.11-4.14-3.11h-4V94Zm-5,8.46V86.21h5.92c4.19,0,5.29,2.09,5.29,4.52,0,3.62-3.25,4.52-6.23,4.52h-3.46v7.16h-1.52m13.25,0H752V86.21h-1.31ZM763,96.29a11.38,11.38,0,0,1-3.51.65c-2,.16-3.3.9-3.3,2.47a2.24,2.24,0,0,0,2.52,2.1c2.15,0,4.29-1,4.29-3.4Zm-2.3-.67a6.62,6.62,0,0,0,1.78-.39c.47-.2.52-.81.52-1.21,0-1.37-.83-2.36-2.93-2.36-1.83,0-3.14.6-3.4,2.63h-1.37c.21-2.75,2.26-3.85,4.82-3.85,2.36,0,4.19.92,4.19,3.62v6.34c0,1.06.32,1.31,1.42.91v1a3,3,0,0,1-1.05.23,2.3,2.3,0,0,1-.58-.07c-.94-.13-1.1-.92-1.1-1.73a5.71,5.71,0,0,1-4.34,1.94c-2,0-3.88-1.11-3.88-3.36,0-2,1.36-3.15,4.09-3.51l1.83-.24m7,10a5.81,5.81,0,0,0,1.1.14c1.57,0,1.78-2.21,2.3-3.22l-4.56-11.75H768l3.77,10,3.72-10H777l-4.35,11.5c-1.1,2.93-1.83,4.75-3.72,4.75a5.13,5.13,0,0,1-1.25-.16v-1.26m12.52-8c.26,2.9,2.14,4,4.66,4,2.88,0,4.08-1.57,4.08-3.35,0-5-9.84-1.69-9.84-8.05,0-2.26,1.83-4.35,5.5-4.35S790,88,790,90.62h-1.41c0-2.47-1.94-3.53-4-3.53-3.15,0-4.25,1.91-4,3.58.69,4.18,9.91,1.16,9.91,7.44,0,3-2.2,4.73-5.92,4.73-3.41,0-5.92-1.75-5.92-5.27h1.52m17.34,4.88a6.28,6.28,0,0,1-1.58.28c-1.31,0-2-.59-2-2.32V91.88H792.2V90.76h1.68V87.51h1.36v3.25h2.15v1.12h-2.15v8c0,1.15,0,1.64,1.16,1.64a4.72,4.72,0,0,0,1.1-.16v1.1m10.11-6.16a11.18,11.18,0,0,1-3.46.65c-2,.16-3.3.9-3.3,2.47a2.24,2.24,0,0,0,2.51,2.1c2.15,0,4.25-1,4.25-3.4V96.29Zm-2.26-.67a7.66,7.66,0,0,0,1.79-.39c.41-.2.47-.81.47-1.21,0-1.37-.79-2.36-2.89-2.36-1.88,0-3.14.6-3.4,2.63H800c.21-2.75,2.25-3.85,4.76-3.85s4.25.92,4.25,3.62v6.34c0,1.06.26,1.31,1.41.91v1a3.74,3.74,0,0,1-1,.23,2.7,2.7,0,0,1-.63-.07c-.89-.13-1.05-.92-1.05-1.73a5.79,5.79,0,0,1-4.35,1.94c-2,0-3.93-1.11-3.93-3.36,0-2,1.36-3.15,4.09-3.51l1.88-.24m11.58,6.83a6.19,6.19,0,0,1-1.57.28c-1.31,0-2-.59-2-2.32V91.88h-1.63V90.76h1.63V87.51h1.36v3.25h2.15v1.12h-2.15v8c0,1.15,0,1.64,1.15,1.64a4.57,4.57,0,0,0,1.1-.16v1.1m4,0h-1.32V90.76H821Zm-1.42-14.2v-2h1.52v2h-1.52m9.38,3.45c-2.83,0-3.93,2.4-3.93,4.92,0,2.9,1.36,4.93,3.93,4.93,2.83,0,4-2.43,4-4.93C832.91,93.83,831.81,91.66,828.93,91.66Zm-5.4,4.92c0-3.39,1.84-6.15,5.4-6.15s5.45,2.73,5.45,6.15c0,3.69-2.15,6.14-5.45,6.14-2.94,0-5.4-2.06-5.4-6.14m14.09,5.83h-1.36V90.76h1.36v1.61a4.91,4.91,0,0,1,3.72-1.93,4,4,0,0,1,3.57,1.66,4.42,4.42,0,0,1,.62,2.68v7.63h-1.36V94.8c0-2.09-.89-3.14-3-3.14a3.37,3.37,0,0,0-3.24,2.26,6.05,6.05,0,0,0-.27,2.21v6.28M862.24,94c2.89,0,4.67-.59,4.67-3.33,0-2-1.31-3.11-4.19-3.11h-4V94Zm-5,8.46V86.21h5.92c4.19,0,5.29,2.09,5.29,4.52,0,3.62-3.2,4.52-6.24,4.52h-3.45v7.16h-1.52m17.23-10.75c-2.83,0-4,2.4-4,4.92,0,2.9,1.41,4.93,4,4.93,2.83,0,4-2.43,4-4.93C878.38,93.83,877.33,91.66,874.45,91.66Zm-5.39,4.92c0-3.39,1.78-6.15,5.39-6.15s5.4,2.73,5.4,6.15c0,3.69-2.15,6.14-5.4,6.14-3,0-5.39-2.06-5.39-6.14m14.14,5.83h-1.36V90.76h1.36v2.18h0a3.49,3.49,0,0,1,3.77-2.5V91.9c-3-.06-3.82,2.18-3.82,4.79v5.72m11.37,0a6.27,6.27,0,0,1-1.52.28c-1.36,0-2.1-.59-2.1-2.32V91.88h-1.62V90.76H891V87.51h1.36v3.25h2.2v1.12h-2.2v8c0,1.15.06,1.64,1.16,1.64a4.29,4.29,0,0,0,1.1-.16v1.1m9.69-6.16a11.13,11.13,0,0,1-3.46.65c-2,.16-3.3.9-3.3,2.47a2.24,2.24,0,0,0,2.52,2.1c2.14,0,4.24-1,4.24-3.4V96.29ZM902,95.62a7.58,7.58,0,0,0,1.78-.39c.42-.2.47-.81.47-1.21,0-1.37-.79-2.36-2.88-2.36-1.89,0-3.15.6-3.41,2.63h-1.36c.21-2.75,2.25-3.85,4.77-3.85,2.35,0,4.24.92,4.24,3.62v6.34c0,1.06.26,1.31,1.42.91v1a3.82,3.82,0,0,1-1,.23,2.7,2.7,0,0,1-.63-.07c-.89-.13-1.05-.92-1.05-1.73a5.79,5.79,0,0,1-4.35,1.94c-2,0-3.93-1.11-3.93-3.36,0-2,1.37-3.15,4.09-3.51l1.89-.24M915,101.51c2.25,0,3.92-1.65,4-4.57s-1.21-5.28-4-5.28c-2.47,0-3.93,2.24-3.93,4.87C911,99.35,912.38,101.51,915,101.51Zm-3.93.9h-1.37V86.21H911v6.41a4.81,4.81,0,0,1,4.14-2.19c3.56,0,5.18,2.91,5.18,6.18,0,3.43-1.47,6.11-5.24,6.11a4.76,4.76,0,0,1-4.08-2.36v2m12.31,0h1.36V86.21h-1.36Zm13.09-6.64c0-2.27-1.25-4.11-3.66-4.11s-3.67,1.91-3.93,4.11Zm-7.59,1.13c0,2.51,1.36,4.61,3.93,4.61a3.39,3.39,0,0,0,3.51-2.68h1.52c-.69,2.2-2,3.9-5,3.9-3.72,0-5.35-2.66-5.35-6.1s2-6.19,5.35-6.19c3.19,0,5.13,2.28,5.13,6.46h-9.06M686.65,7h95.44V35.3H690.42V59.84h-3.77V31.53h91.67V10.77H686.65V7M901.33,35.3V59.84h-3.78V31.53h91.68V10.77H897.55V7H993V35.3H901.33M830.76,7V56.06H782.09v3.78h52.65V10.77h48.67V7H830.76"/></svg>