<svg xmlns="http://www.w3.org/2000/svg" viewBox="0 0 1000 113.99997"><title>logo</title><g id="Layer_2" data-name="Layer 2"><rect x="477.92568" y="22.42499" width="34.63018" height="34.63018" fill="#fff"/></g><g id="Calque_1" data-name="Calque 1"><path d="M506.00377,80.57544a42.51876,42.51876,0,0,1-6.23828-.59375l-.61133-.08887a42.78763,42.78763,0,0,1-7.27246-1.81933,65.00619,65.00619,0,0,1-12.84082-6.0127,71.70017,71.70017,0,0,1-7.54981-5.18945,59.72218,59.72218,0,0,1-7.79687-7.28906,45.66821,45.66821,0,0,1-7.97168-11.7295,29.39629,29.39629,0,0,1-2.3374-7.55468,16.89887,16.89887,0,0,1-.146-3.57618,3.49946,3.49946,0,0,1,3.24023-3.30273c.08593-.00684.17237-.00977.25733-.00977a3.5001,3.5001,0,0,1,3.42822,2.80664c.08057.39844.15576.7959.23047,1.19336.09912.52442.19727,1.04688.31055,1.56739a13.08013,13.08013,0,0,0,2.042,4.05175,23.87088,23.87088,0,0,0,2.604,3.14454l.4253.46093a23.24786,23.24786,0,0,0,3.07714,2.66016q.56983.43066,1.11915.81152a54.03759,54.03759,0,0,1-3.68262-5.47949,37.41012,37.41012,0,0,1-4.12744-10.86035,20.3274,20.3274,0,0,1-.40528-4.81152c0-.29688,0-.59278-.00341-.88965a22.67965,22.67965,0,0,1,4.52539-13.73682A23.32566,23.32566,0,0,1,476.578,6.50806a41.51133,41.51133,0,0,1,6.92578-2.14063,24.82167,24.82167,0,0,1,4.48828-.63476,3.4871,3.4871,0,0,1,1.25488-.23291h8.14942a3.49735,3.49735,0,0,1,1.57129.37255l.03613.00049a8.44978,8.44978,0,0,1,1.19336.083,50.55518,50.55518,0,0,1,12.18164,3.57568,67.44975,67.44975,0,0,1,11.01367,5.92579,64.20985,64.20985,0,0,1,6.80957,5.16357c.49317.43164.97266.87891,1.45215,1.32764.63867.59619,1.24121,1.15918,1.85644,1.65918A21.14975,21.14975,0,0,1,536.285,24.47c.2334.27539.4668.54981.7041.81738a48.77594,48.77594,0,0,1,4.03418,5.23633A35.25462,35.25462,0,0,1,546.37975,42.717a11.12681,11.12681,0,0,1,.14746,5.335,3.50139,3.50139,0,0,1-3.40039,2.67676c-.07227,0-.14454-.002-.2168-.00684a3.50071,3.50071,0,0,1-3.2627-3.09375l-.05175-.46484a11.63087,11.63087,0,0,0-.40039-2.34863,16.65136,16.65136,0,0,0-2.45411-4.39356,24.44565,24.44565,0,0,0-3.27246-3.68847,36.78173,36.78173,0,0,0-3.51855-2.79688,50.21233,50.21233,0,0,1,3.00488,4.28613A36.16211,36.16211,0,0,1,537.452,49.02173a26.33551,26.33551,0,0,1,.45606,9.9707,23.639,23.639,0,0,1-3.88379,10.02735,22.8051,22.8051,0,0,1-7.749,6.96679,33.65673,33.65673,0,0,1-9.376,3.5,34.40078,34.40078,0,0,1-4.38086.65528l-.46875.04394c-1.77539.165-3.61231.33692-5.48439.38281C506.37779,80.57349,506.19127,80.57544,506.00377,80.57544ZM495.06139,28.24438a14.863,14.863,0,0,0-3.34766.5127,8.012,8.012,0,0,0-5.3623,4.25684,9.562,9.562,0,0,0-.6211,6.31152,18.206,18.206,0,0,0,2.47266,6.127,26.54259,26.54259,0,0,0,5.72168,6.63574c.583.47071,1.14061.90137,1.68066,1.29786a13.79588,13.79588,0,0,1-1.585-10.37012,10.14769,10.14769,0,0,1,3.93945-5.81152,11.45715,11.45715,0,0,1,6.99707-2.11133,23.64083,23.64083,0,0,1,2.59375.16015,16.935,16.935,0,0,1,5.68457,1.74121,28.18,28.18,0,0,0-2.873-2.71191,32.51378,32.51378,0,0,0-4.84082-3.23535,23.2871,23.2871,0,0,0-6.61426-2.39258,18.88848,18.88848,0,0,0-3.49121-.416Q495.23862,28.23853,495.06139,28.24438Z" fill="#262223"/><path d="M497.39592,7c.68036.51706,1.52618.3009,2.27142.41525A47.34441,47.34441,0,0,1,511.011,10.753a63.80018,63.80018,0,0,1,10.442,5.61722,61.19114,61.19114,0,0,1,6.442,4.88275c1.14856,1.00632,2.216,2.10321,3.40833,3.07126a27.91429,27.91429,0,0,1,3.067,3.28491,45.11913,45.11913,0,0,1,3.744,4.86124,32.06047,32.06047,0,0,1,4.84662,10.99432,7.82082,7.82082,0,0,1,.16431,3.76386,16.36177,16.36177,0,0,0-.63031-3.581,20.13925,20.13925,0,0,0-2.94971-5.322,28.09351,28.09351,0,0,0-3.74615-4.20379,36.594,36.594,0,0,0-6.02936-4.44364,27.42156,27.42156,0,0,0-6.76184-2.75635,17.56484,17.56484,0,0,0-4.50519-.62686q-.70844,0-1.42572.07013c.0011.34067.27832.48743.51587.64746a41.7447,41.7447,0,0,1,4.539,3.636,40.9588,40.9588,0,0,1,3.07,3.07345,45.696,45.696,0,0,1,4.78686,6.35776,32.55988,32.55988,0,0,1,4.06012,9.75781,22.74989,22.74989,0,0,1,.39526,8.65186,20.10514,20.10514,0,0,1-3.30914,8.55557,19.23566,19.23566,0,0,1-6.57916,5.89368,30.36715,30.36715,0,0,1-8.41742,3.13229,31.56563,31.56563,0,0,1-3.942.58591c-1.90417.17648-3.80713.3656-5.71661.41284q-.23831.00591-.47614.00583a44.45663,44.45663,0,0,1-6.34912-.64667,38.88,38.88,0,0,1-6.67288-1.67892A61.73246,61.73246,0,0,1,480.832,69.0542a68.10655,68.10655,0,0,1-7.182-4.9371,56.05361,56.05361,0,0,1-7.33853-6.85856,43.16018,43.16018,0,0,1-7.39679-10.84011,25.96882,25.96882,0,0,1-2.07138-6.66132,13.47273,13.47273,0,0,1-.10892-2.84763c.1897.939.34845,1.878.55093,2.8108a16.10133,16.10133,0,0,0,2.55051,5.251,30.816,30.816,0,0,0,3.36551,4.03192,26.34558,26.34558,0,0,0,3.54218,3.08344,27.52541,27.52541,0,0,0,5.306,3.22623,20.95373,20.95373,0,0,0,8.37073,2.20556c.50009.00479.94931.27313,1.45127.27313a1.30682,1.30682,0,0,0,.24206-.02215c.29675-.05576.613.006.781-.35886a44.4543,44.4543,0,0,1-8.363-7.30624,44.9036,44.9036,0,0,1-5.23169-7.26682,34.6764,34.6764,0,0,1-3.7312-9.879,22.4966,22.4966,0,0,1-.31467-4.93634,19.23582,19.23582,0,0,1,3.86643-11.65012,19.80465,19.80465,0,0,1,8.79364-6.6293,38.24341,38.24341,0,0,1,6.34769-1.95822,20.38451,20.38451,0,0,1,4.179-.56183l.00626,0c.12878,0,.27795.04257.41727.04257A.37681.37681,0,0,0,489.2469,7h8.149m12.15857,54.96558q.53412,0,1.07556-.02573a10.74212,10.74212,0,0,0,3.89764-.86484,5.98449,5.98449,0,0,0-.878-.06164q-.14411,0-.28778.00561-.20709.00788-.41229.00784a13.85616,13.85616,0,0,1-6.0379-1.54977,18.46086,18.46086,0,0,1-8.02667-7.40518,10.56532,10.56532,0,0,1-1.47638-8.17993,6.66939,6.66939,0,0,1,2.61254-3.85923,8.04905,8.04905,0,0,1,4.93653-1.44006,20.40385,20.40385,0,0,1,2.212.13965,14.43623,14.43623,0,0,1,5.68921,2.03806,18.4348,18.4348,0,0,1,6.378,5.94122c1.53888,2.41678,2.58173,5.00741,2.14533,7.97641a2.81216,2.81216,0,0,0,.053.54651,10.80462,10.80462,0,0,0,1.32477-4.86676,12.94666,12.94666,0,0,0-.44928-3.95972,24.63781,24.63781,0,0,0-6.32416-11.59659,32.64737,32.64737,0,0,0-3.43427-3.25842,35.71342,35.71342,0,0,0-5.36547-3.58389,26.7535,26.7535,0,0,0-7.60962-2.75043,21.91021,21.91021,0,0,0-4.15726-.48047q-.24618,0-.49149.00928a18.37724,18.37724,0,0,0-4.14071.63418,11.47778,11.47778,0,0,0-7.56357,6.05936,12.99616,12.99616,0,0,0-.925,8.57886,21.75838,21.75838,0,0,0,2.94342,7.3002,30.06727,30.06727,0,0,0,6.48309,7.49048,36.912,36.912,0,0,0,5.31565,3.65948,25.62791,25.62791,0,0,0,12.51306,3.49552M497.39592,0h-8.149a6.99508,6.99508,0,0,0-1.88318.25772,29.10258,29.10258,0,0,0-4.61758.69287,44.93047,44.93047,0,0,0-7.50461,2.32248,26.77078,26.77078,0,0,0-11.8034,9.01111,26.1125,26.1125,0,0,0-5.18348,15.82513c.00348.28177.00333.56418.00336.84662,0,.355.00006.72977.00592,1.12152a6.9761,6.9761,0,0,0-1.52447-.16821q-.25612,0-.515.01883a7,7,0,0,0-6.48007,6.6069,20.25122,20.25122,0,0,0,.18289,4.30329,32.84643,32.84643,0,0,0,2.603,8.45065,48.99606,48.99606,0,0,0,8.54712,12.61774,63.22019,63.22019,0,0,0,8.253,7.71878,75.44282,75.44282,0,0,0,7.92023,5.4433,68.44021,68.44021,0,0,0,13.52923,6.32592,45.93481,45.93481,0,0,0,7.873,1.96216l.606.08826a45.96414,45.96414,0,0,0,6.74462.63037q.324,0,.64863-.00794c1.992-.04928,3.88946-.22616,5.72448-.39724l.46564-.04331a38.41357,38.41357,0,0,0,4.81671-.72323,37.12825,37.12825,0,0,0,10.33685-3.86881,26.28654,26.28654,0,0,0,8.91785-8.0397A27.1095,27.1095,0,0,0,541.371,59.4975a29.85928,29.85928,0,0,0,.2926-5.4227,7.0259,7.0259,0,0,0,1.03137.1405q.218.01345.43421.0134a7.00016,7.00016,0,0,0,6.79968-5.35379,14.47191,14.47191,0,0,0-.11969-6.86072,38.73891,38.73891,0,0,0-5.87763-13.43732,52.2752,52.2752,0,0,0-4.32647-5.61508c-.22254-.25061-.44007-.5076-.65833-.76455a24.42027,24.42027,0,0,0-3.23181-3.30787c-.52087-.42285-1.0813-.94668-1.67462-1.50128-.48364-.452-.98377-.91952-1.53229-1.40011a67.737,67.737,0,0,0-7.17584-5.44465,71.01287,71.01287,0,0,0-11.58631-6.234A54.04391,54.04391,0,0,0,500.72893.49622c-.37622-.05774-.72339-.08731-1.02039-.10315A6.9992,6.9992,0,0,0,497.39592,0Zm-6.85483,42.50632a14.55754,14.55754,0,0,1-1.3807-3.874,6.11012,6.11012,0,0,1,.317-4.0451,4.526,4.526,0,0,1,3.162-2.4549,11.32878,11.32878,0,0,1,2.558-.39q.11111-.00426.22275-.00412a15.789,15.789,0,0,1,2.816.3508q.70679.138,1.40668.33136a14.0258,14.0258,0,0,0-3.74323,1.95447,13.75114,13.75114,0,0,0-5.26837,7.76639q-.0471.18228-.09006.36508Z" fill="#fff"/><path d="M392.70494,110.48267c-3.668-.03907-7.5625-.05664-12.62646-.05664-2.30469,0-11.53125.01367-13.83985.01367a3.50018,3.50018,0,0,1-3.5-3.5c0-.48926,0-.73438,2.24219-10.55762,2.478-10.85449,2.478-10.85449,3.80469-11.66992a9.96345,9.96345,0,0,0,1.3916-1.18262c1.38574-1.3125,3.48-3.2959,6.82178-3.2959l.20459.002c.375.00878.75.01171,1.13183.01171l2.18946-.00878a3.49838,3.49838,0,0,1,2.749,1.334c.06543.083.12695.169.18408.25684a7.94888,7.94888,0,0,1,4.29981-1.58106l.39209.002c.40429,0,.80908-.00781,1.21435-.0166.45459-.00879.91016-.01855,1.36621-.01855a19.49927,19.49927,0,0,1,2.99365.19629,3.4994,3.4994,0,0,1,2.34327,1.45312,4.85448,4.85448,0,0,1,3.80566-1.66992c.273,0,.55078.01855.82715.042.08056.00684.16113.01563.23974.01758.54786-.02148,1.12989-.02832,1.71631-.02832l2.41114.0127a3.50077,3.50077,0,0,1,3.3955,4.3496l-1.1499,4.58106c-1.05566,4.20019-2.08984,8.31445-3.09131,12.43555l-.04687.19531a6.78313,6.78313,0,0,1-2.23,3.75683l-.353.37793a3.44446,3.44446,0,0,1-.28223.27149l-1.95605,1.67871a9.75221,9.75221,0,0,1-6.53613,2.59766Z" fill="#262223"/><path d="M399.873,83.6947c.35214,0,.71652.05963,1.06275.05963.035,0,.07-.00061.10467-.00195.53613-.02081,1.07279-.027,1.61356-.027.79214,0,1.593.01328,2.41339.01328-1.45752,5.82351-2.88233,11.42434-4.24689,17.03982-.30588,1.25888-.17981,1.04169-1.79053,2.77185l-1.9559,1.67856a6.19124,6.19124,0,0,1-4.25766,1.75424l-.07348-.00039c-4.22336-.04529-8.44614-.0571-12.67-.0571-4.61105,0-9.2233.0141-13.83438.0141,0-.47348,4.28583-19.18875,4.37924-19.246,2.13358-1.30851,3.448-3.96085,6.38169-3.96079q.05909,0,.11914.00144c.407.00985.814.01293,1.22818.01293.69522,0,1.41049-.00869,2.17813-.00869-1.49185,6.20556-2.9281,12.1799-4.37915,18.21591,3.36615-1.17331,3.28189-1.26166,4.35522-4.60547,1.0705-3.33487,1.95889-6.708,2.79483-10.10251.36032-1.463,2.96588-3.49872,4.46247-3.49859l.02182.00015q.18273.00243.36547.00235c.85889,0,1.72-.03559,2.58414-.03559a16.443,16.443,0,0,1,2.47073.1572c-1.42407,5.97-2.8283,11.85687-4.3233,18.12418,2.29929-1.3245,3.96048-2.51978,4.37637-5.01425.47526-2.85032,1.238-5.65232,1.86576-8.4776.448-2.01636,2.40237-2.77933,3.51022-4.24643a1.41724,1.41724,0,0,1,1.24353-.5633m0-7a8.70646,8.70646,0,0,0-3.74869.81729,6.99681,6.99681,0,0,0-1.87622-.561,23.52718,23.52718,0,0,0-3.51837-.23606c-.481,0-.96109.00943-1.44052.01932-.38174.00788-.76294.01627-1.14359.01627l-.27185-.00174c-.03122-.0004-.08425-.00076-.11547-.00076a10.10054,10.10054,0,0,0-3.88559.8431,6.99847,6.99847,0,0,0-3.34778-.85244c-.40781,0-.80139.00232-1.18518.00464-.33795.002-.66776.004-.993.004-.35709,0-.708-.00238-1.05887-.01089-.09665-.00229-.19107-.00345-.28458-.00348-4.74042-.00012-7.6629,2.76828-9.233,4.25552-.28845.27326-.6835.6475-.83853.755-2.49579,1.528-2.8931,3.22281-3.853,7.31738-.41748,1.78089-.96533,4.15491-1.51019,6.54209-2.33014,10.20813-2.33014,10.38043-2.33014,11.33682a7,7,0,0,0,7,7q3.46366,0,6.92792-.007,3.45336-.00527,6.90646-.00705c5.05423,0,8.93866.01749,12.595.05667l.14853.00082a13.1271,13.1271,0,0,0,8.81647-3.44226l.97787-.8392.978-.83929a6.99449,6.99449,0,0,0,.56473-.54233l.34915-.37406a10.10623,10.10623,0,0,0,3.07611-5.33242l.04388-.18238c.99411-4.09091,2.00489-8.11233,3.075-12.3699l1.16037-4.623a7,7,0,0,0-6.79056-8.69958c-.39429,0-.78388-.00327-1.17005-.00647-.41763-.00345-.83163-.00678-1.24337-.00678-.62339,0-1.15644.00769-1.65662.02408l-.00552-.00046c-.25882-.02163-.65-.05432-1.11884-.05432Z" fill="#fff"/><path d="M609.5985,110.03638a8.58458,8.58458,0,0,1-3.66309-.73438,3.49907,3.49907,0,0,1-1.96289-3.88476c.50683-2.46192,2.27441-8.0127,3.44433-11.68555.44336-1.39258.78711-2.46582.90137-2.87793a3.50027,3.50027,0,0,1,3.37305-2.56543h13.0459c.49511,0,.99121.00684,1.48633.0127.46484.00683.92871.01269,1.39355.01269.54492,0,1.08984-.00879,1.63281-.03809.1709-.00976.33692-.01464.5-.01464a8.8182,8.8182,0,0,1,6.55664,3.01855,3.4988,3.4988,0,0,1,.95508,2.40234,104.1425,104.1425,0,0,1-2.14551,13.05274,3.50055,3.50055,0,0,1-3.39355,2.6416h-8.63574a3.49955,3.49955,0,0,1-3.47071-3.0459,8.45075,8.45075,0,0,1-7.21875,3.61719l-.43164-.00586c-.32031,0-.64355.02148-.96777.041C610.53111,110.01,610.06432,110.03638,609.5985,110.03638Z" fill="#262223"/><path d="M629.75157,91.76144a5.35583,5.35583,0,0,1,4.00989,1.92051,106.05783,106.05783,0,0,1-2.03857,12.194h-8.63575c.61646-2.28458,1.23084-4.5929,1.8631-6.89643.8064-2.93786.11463-3.87249-2.89294-3.87692-.2649-.00043-.52979-.00055-.80231-.00055-.45422,0-.92969.00037-1.462.00037-.70849,2.437-1.37878,4.89554-2.14147,7.32522a5.1342,5.1342,0,0,1-5.254,4.01935c-.06763,0-.13617-.00088-.205-.00265-.07495-.00193-.14984-.00281-.2251-.00281-.78173,0-1.579.09488-2.36883.09488a5.12723,5.12723,0,0,1-2.19843-.41355c.66291-3.21829,3.88227-12.85757,4.291-14.33493h13.04626c.96222,0,1.92566.02576,2.88782.02576.60687,0,1.21332-.01025,1.81836-.04367q.15619-.00866.30786-.00861m0-7q-.342,0-.69385.01926c-.40783.02252-.863.033-1.43237.033-.44989,0-.90008-.00626-1.35028-.01227-.51263-.00683-1.02527-.01349-1.53754-.01349H611.69127a6.99994,6.99994,0,0,0-6.74652,5.1334c-.08637.31076-.50165,1.61483-.86811,2.76541-1.57513,4.94589-3.03051,9.58716-3.53247,12.02392a7.00006,7.00006,0,0,0,3.92469,7.76886,11.99783,11.99783,0,0,0,5.12982,1.05689c.60541,0,1.16192-.03336,1.60913-.06015.29791-.01785.57935-.0347.7597-.0347.17414.00378.303.00543.43006.00543a12.43356,12.43356,0,0,0,6.67773-1.83472,6.999,6.999,0,0,0,4.01184,1.26368h8.63575a7.00009,7.00009,0,0,0,6.78649-5.28424c.63074-2.49506,2.25208-11.28614,2.25208-13.90979a6.99993,6.99993,0,0,0-1.90991-4.80533,12.28892,12.28892,0,0,0-9.1-4.11518Z" fill="#fff"/><path d="M490.73521,110.44556q-1.57031-.01026-3.14355-.00879l-3.5625.002c-1.23633,0-2.47266-.002-3.709-.01269l-.18165-.001a7.44936,7.44936,0,0,1-3.27343-.61231c-2.13477-.96972-6.11524-2.77832-4.2041-8.97851.13964-.45215.25585-.91016.373-1.36621.54785-2.12989,1.22949-4.78028,3.68848-6.835.81152-.67774,1.63476-1.29981,2.43066-1.90235.60352-.45605,1.209-.91211,1.79688-1.38867a4.88684,4.88684,0,0,1,3.15137-1.083c.23046,0,.46191.01368.6914.03223l.16113.01074c2.37012-.01465,4.76075-.01855,7.15235-.01855l6.10351.00586c2.61914.0039,4.40625.76465,5.42871,2.34961.05079-.0293.10157-.05957.15235-.08887.55859-.3252,1.11035-.64551,1.64648-.99121a8.29529,8.29529,0,0,1,4.64649-1.292l.16113.001q2.77.03956,5.54.03809,2.74512,0,5.49023-.03418l.14453-.001a9.28571,9.28571,0,0,1,5.02442,1.39649,6.62325,6.62325,0,0,1,3.28906,4.26757,6.16312,6.16312,0,0,1-1.18848,4.877,8.82957,8.82957,0,0,1-4.86914,3.50586,16.24072,16.24072,0,0,1-4.375.63379h0a13.6512,13.6512,0,0,1-4.65722-.81446,3.49791,3.49791,0,0,1-1.48535-1.03515c-.21779,1.07519-.51758,2.05468-.80664,3.0039a20.3457,20.3457,0,0,0-.71778,2.78907,3.50009,3.50009,0,0,1-3.46094,2.97656H499.328a3.49975,3.49975,0,0,1-2.71875-1.2959c-.01953-.02344-.03809-.04785-.05762-.07227a9.62193,9.62193,0,0,1-5.74512,1.94239Z" fill="#262223"/><path d="M484.10124,91.75885c.28024,0,.56189.04349.83731.04349l.01544-.00006q3.55958-.02129,7.11908-.01847,3.06557,0,6.13138.00592c2.40357.00324,2.91242.52692,2.9776,3.03128.01227.47156.00177.94376.00177,1.8053,1.99494-1.87747,4.1706-2.84958,6.14972-4.12652a4.88868,4.88868,0,0,1,2.75122-.73261q.05566,0,.1117.00076,2.789.03878,5.57818.03791,2.77122,0,5.54248-.034c.03388-.00043.06739-.00061.101-.00061a5.76621,5.76621,0,0,1,3.18658.87384c1.81543,1.122,2.27356,2.44955,1.07568,4.15479a5.31352,5.31352,0,0,1-2.94842,2.14779,12.68652,12.68652,0,0,1-3.43079.504,10.08628,10.08628,0,0,1-3.466-.60568c.08191-.42054.09869-.57227.14142-.71616.26147-.879,1.45355-1.61633.44647-2.68573a2.11983,2.11983,0,0,0-1.39825-.33746,6.13949,6.13949,0,0,0-2.14411.366c-2.12549.90943-2.74969,2.81522-3.1192,4.76209-.398,2.09714-1.27148,4.03891-1.58874,6.137h-8.84473c.65893-3.12311,1.29706-6.14749,1.967-9.32248a6.38132,6.38132,0,0,0-2.37671,1.87165,10.61071,10.61071,0,0,1-7.64984,2.93118,16.92947,16.92947,0,0,1-1.76764-.09668,14.99233,14.99233,0,0,0-1.56622-.07178c-.87329,0-1.741.04788-2.57526.04788a1.98278,1.98278,0,0,0-.11566,1.82566h11.461c-1.63358,1.841-3.33069,3.38885-5.89933,3.38885l-.04446-.00015q-1.58986-.011-3.17966-.00931-1.80124,0-3.60211.0025-1.81453,0-3.62942-.01278a4.58423,4.58423,0,0,1-2.03373-.29755c-2.31384-1.05258-3.279-1.621-2.30987-4.76449.72122-2.33979.929-4.84867,2.96088-6.54587,1.35476-1.13169,2.80911-2.14347,4.1831-3.25336a1.42251,1.42251,0,0,1,.95114-.306m4.92258,6.7269c2.09213,0,2.82574-.74417,5.01657-3.34223-.63934-.01467-1.22583-.02288-1.76514-.02288-4.793.00006-5.80951.64749-6.15756,3.12921a27.64792,27.64792,0,0,0,2.90613.2359m-4.922-13.72693h-.00061a8.40283,8.40283,0,0,0-5.35,1.86087c-.52863.427-1.09955.85855-1.704,1.31546-.831.62817-1.69031,1.27774-2.56794,2.0108-3.3255,2.77777-4.23419,6.31293-4.83551,8.65219-.11361.442-.22091.85938-.32714,1.204-.39771,1.29-1.60837,5.21692.64825,8.89148a11.34592,11.34592,0,0,0,5.45252,4.30668,10.8549,10.8549,0,0,0,4.71353.92489l.15945.00067q1.8441.01561,3.68869.01306l1.80841-.00128,1.7937-.00125q1.56559,0,3.13108.00919l.093.0003a12.72479,12.72479,0,0,0,5.53217-1.24521,6.99823,6.99823,0,0,0,2.99051.67093h8.84473a7,7,0,0,0,6.92132-5.95337,11.29514,11.29514,0,0,1,.33814-1.40558,17.18039,17.18039,0,0,0,3.869.43894,19.75267,19.75267,0,0,0,5.32044-.76386,12.29867,12.29867,0,0,0,6.7868-4.86428,9.57379,9.57379,0,0,0,1.75379-7.5925,10.0149,10.0149,0,0,0-4.87738-6.54047,12.68945,12.68945,0,0,0-6.86658-1.91931l-.18482.00113q-2.729.03268-5.45874.03354c-1.85894,0-3.703-.01252-5.481-.03723l-.209-.00144a11.9681,11.9681,0,0,0-6.00451,1.522,10.90083,10.90083,0,0,0-5.86634-1.49945l-.73034-.001q-2.7052-.0037-5.4105-.00492-3.50545,0-7.01059.01767c-.20684-.01608-.55087-.04266-.96063-.04269Z" fill="#fff"/><path d="M544.15025,110.46216q-10.2246-.03809-20.44922-.02735l-8.18261-.00293a4.1775,4.1775,0,0,1-1.49414-.291l-.1836-.06348a3.50042,3.50042,0,0,1-1.42578-5.8125l1.35742-1.34961c1.082-1.07324,2.1045-2.08593,3.08887-3.126a5.00977,5.00977,0,0,1,3.78906-1.56446c.13965,0,.56153.0127.56153.0127.9082.02051,1.81445.02832,2.72168.02832q1.2041,0,2.40918-.01465a8.89116,8.89116,0,0,1-.75489-4.4668,14.6884,14.6884,0,0,1,6.502-11.376,6.78285,6.78285,0,0,1,3.95312-1.249c3.40039.02539,6.74512.03125,10.15039.03125l9.14551-.00488a3.49966,3.49966,0,0,1,2.49707,5.95215c-.42578.43359-.83105.84082-1.2207,1.23242-.86914.8711-1.61817,1.623-2.31836,2.39649A5.05061,5.05061,0,0,1,552.8485,91.885a8.99579,8.99579,0,0,1,.69335.81152c2.06934,2.73243,1.48633,5.95313,1.20606,7.5a12.37716,12.37716,0,0,1-6.84961,9.3418,8.36772,8.36772,0,0,1-3.7207.92383Z" fill="#262223"/><path d="M536.04308,84.65924l.02807.00009c3.3606.025,6.7207.03083,10.14209.03083,2.98212,0,6.01087-.00443,9.12512-.00443-1.38171,1.40765-2.55041,2.53241-3.63678,3.73175a1.72535,1.72535,0,0,1-1.42755.53311c-.16559,0-.33307-.00619-.50116-.00619l-.017,0q-.60727.0016-1.21418.00146c-1.21142,0-2.42321-.00357-3.63464-.00357q-1.36294,0-2.726.009c-2.49329.01929-3.47406.88822-4.0755,3.78363,1.65747,0,3.2962.00968,4.92755.00968,1.09765,0,2.19208-.00437,3.28613-.01907.03149-.00043.06268-.00065.09406-.00065a5.2028,5.2028,0,0,1,4.33825,2.08448c1.07,1.41244.83148,3.22143.55188,4.76449a8.95256,8.95256,0,0,1-4.93817,6.81778,4.86166,4.86166,0,0,1-2.186.57053l-.01606,0c-9.54724-.03592-19.09478-.02371-28.64221-.03018a3.22722,3.22722,0,0,1-.63006-.19327c1.56335-1.56494,3.07061-3.022,4.51074-4.54251a1.5557,1.5557,0,0,1,1.24817-.472c.15942,0,.32092.00852.48327.01221.93463.02133,1.86866.0293,2.80353.0293,2.76947,0,5.53986-.07,8.30945-.07,2.42749,0,4.855.0538,7.28046.25568.08508.00708.16681.01077.24578.01077,1.1355,0,1.65436-.76129,2.14808-3.07178-1.65192,0-3.28858-.06583-4.91224-.06583-1.02441,0-2.04382.02622-3.0578.1117q-.29167.02459-.57043.0245c-2.72583,0-4.51752-1.74945-4.30011-4.938a11.20531,11.20531,0,0,1,5.04053-8.76291,3.26478,3.26478,0,0,1,1.92267-.60059m0-7a10.25283,10.25283,0,0,0-5.98218,1.89795,18.27061,18.27061,0,0,0-7.96478,13.98935q-.04157.60982-.03107,1.20627-.38608-.00577-.7721-.0145l-.10156-.0032c-.18127-.00608-.36163-.01084-.54047-.01087a8.48271,8.48271,0,0,0-6.33123,2.65814c-.95179,1.00495-1.95948,2.004-3.02643,3.06177q-.67.66422-1.35449,1.34729a7,7,0,0,0,2.84985,11.62412l.03967.01477a7.61479,7.61479,0,0,0,2.68787.50168l8.01483.0025c6.7558.00091,13.74164.0018,20.606.02762a11.83062,11.83062,0,0,0,5.29352-1.27716,15.94994,15.94994,0,0,0,8.76092-11.8631,13.6529,13.6529,0,0,0-.71173-8.339c.48755-.51187,1.01892-1.045,1.60681-1.635.39789-.39932.81238-.81537,1.24744-1.25858a7,7,0,0,0-4.99555-11.9035l-4.66662.00223-4.4585.0022c-2.78107,0-6.44122-.00348-10.09-.03061l-.08013-.00034Z" fill="#fff"/><path d="M572.162,110.43579q-10.60254,0-21.20508-.01367a4.05707,4.05707,0,0,1-1.85839-.47168,3.50042,3.50042,0,0,1-2.125-3.80664c.40332-2.46094.95312-4.89453,1.48535-7.248.2207-.97754.4414-1.9541.65136-2.93262.56055-2.60742,2.46485-4.1914,3.85547-5.34765.39453-.32813.7666-.6377,1.04981-.919a5.16351,5.16351,0,0,1,3.73437-1.48242c.35059,0,.709.03125,1.06739.06738.11718.0127.23339.0293.34863.03125.36328-.0332.79-.04589,1.24023-.04589.28028,0,.57129.00488.87891.00976.30371.00586.62695.01172.97851.01172a3.50067,3.50067,0,0,1,2.57813,1.13281c.07812.08594.15234.17481.2207.2666a8.26711,8.26711,0,0,1,4.48535-1.39843l1.01465-.001q1.75782,0,3.51758.01563a4.16532,4.16532,0,0,1,1.7627.43261,3.49689,3.49689,0,0,1,1.52441,1.24219c.00977-.01074.02051-.02148.03027-.0332a5.29626,5.29626,0,0,1,4.02832-1.71094c.33008,0,.665.02539.999.05469.125.01172.249.02734.37207.02734a11.6638,11.6638,0,0,1,1.17969-.05176c.26562,0,.53417.00586.80566.0127.21973.00488.44238.01074.668.01074a3.49938,3.49938,0,0,1,3.4834,3.84082,36.20658,36.20658,0,0,1-1.11133,5.60059,30.251,30.251,0,0,0-.85156,4.05371c-.293,2.62695-2.85059,4.38867-5.5586,6.25488-.4834.333-1.13965.78516-1.35742.9707a4.69715,4.69715,0,0,1-3.5293,1.42871Z" fill="#262223"/><path d="M557.74925,91.71417c.46558,0,.9516.09842,1.416.09842.07861,0,.15661-.00281.23376-.0094.33038-.02823.66236-.03686,1.0119-.03686.553,0,1.14984.02163,1.85273.02163-.33222,3.87464-1.6341,7.42862-2.392,11.00357a.44115.44115,0,0,0,.29144.15509c.144,0,.2345-.13589.35028-.17153,3.35864-1.03284,3.64716-3.95234,4.10742-6.73462a5.30479,5.30479,0,0,1,4.93292-4.25141q.47856-.00092.95691-.00094,1.76734,0,3.53479.016a1.42253,1.42253,0,0,1,.438.15838c-.63763,3.39261-2.16693,10.62082-2.01806,10.62082l.00586-.003a6.72314,6.72314,0,0,0,4.17529-4.87368c.68414-3.06489,1.83539-3.76645,3.33026-5.39527a1.81532,1.81532,0,0,1,1.4483-.57684c.4524,0,.92035.08255,1.37128.08255a2.9544,2.9544,0,0,0,.29645-.01392,8.82592,8.82592,0,0,1,.88806-.03879c.47992,0,.9682.02356,1.4693.02356-.334,3.41553-1.60114,6.41324-1.9577,9.6081-.17316,1.55154-5.04963,4.20385-5.94593,5.1705a1.2412,1.2412,0,0,1-1.02307.37161c-.088,0-.17688-.00195-.26623-.00195q-1.388.00018-2.77484.00018-11.25971,0-22.5207-.01449a1.92327,1.92327,0,0,1-.53363-.21164c.54914-3.35324,1.38831-6.67868,2.10425-10.01133.42163-1.96264,2.51508-3.09692,3.94672-4.51611a1.68469,1.68469,0,0,1,1.27026-.46866m.00031-7-.00031,7,.00031-7a8.5976,8.5976,0,0,0-6.19849,2.49723c-.17474.17312-.50464.44754-.82367.71289-1.58008,1.31417-4.22461,3.51367-5.039,7.30441-.207.96384-.4248,1.927-.64246,2.89053-.54357,2.40592-1.10566,4.89374-1.52587,7.45978a7.00006,7.00006,0,0,0,4.07653,7.53308,7.58163,7.58163,0,0,0,3.35651.80982q11.263.01551,22.52924.01446l2.77581-.00015.056.00055.20923.0014a8.161,8.161,0,0,0,5.853-2.30191c.2301-.17071.67963-.48041,1.02118-.71567,3.0849-2.12524,6.58136-4.534,7.05163-8.74817a27.58655,27.58655,0,0,1,.764-3.57464,39.54658,39.54658,0,0,0,1.20367-6.12845,7,7,0,0,0-6.96673-7.68137c-.19641,0-.39026-.00531-.582-.00991-.29871-.00721-.59424-.01365-.88721-.01365-.43353,0-.83545.01374-1.21844.04178l-.025-.00229c-.30755-.02758-.77234-.0693-1.31207-.06933a9.0078,9.0078,0,0,0-3.98712.882c-.05054-.02347-.101-.04624-.15229-.06861a7.58552,7.58552,0,0,0-3.16894-.74344q-1.80633-.01767-3.60645-.01635l-.97027.001a11.42192,11.42192,0,0,0-4.0777.77259,6.9987,6.9987,0,0,0-3.199-.77372c-.32789,0-.62952-.00567-.91315-.01068-.32929-.00586-.64-.011-.93958-.011-.44928,0-.84869.01111-1.22985.03454l-.00251-.00024a13.38747,13.38747,0,0,0-1.42895-.08646Z" fill="#fff"/><path d="M455.72691,110.43774a7.75893,7.75893,0,0,1-6.19384-2.52636,7.6117,7.6117,0,0,1-1.49122-6.39258,25.04163,25.04163,0,0,1,1.37745-4.83008,8.65534,8.65534,0,0,1,2.90576-4.28809A8.39844,8.39844,0,0,1,453.391,91.596c.28125-.18164.84277-.54785,2.3789-1.62207.05762-.041.1167-.0791.17725-.11621,1.76855-1.085,2.62109-1.60743,4.1499-1.60743.1416,0,.29785.00489.48291.0127l.24707.00977c.6084.01855,1.21436.02343,1.8208.02343l2.56641-.00976c.4956,0,.9917.00293,1.48681.01367h.00489c.8789-1.22656,1.1709-1.64356,1.31933-1.85645.17969-.25586.17871-.25683.57813-.78711l.0869-.11718a5.30424,5.30424,0,0,1,4.34474-2.46192c1.14355.00586,2.25976.00782,3.40723.00782l4.66992-.00293a3.49951,3.49951,0,0,1,2.85058,5.53027c-.3916.55078-.748,1.0791-1.08984,1.585a30.12094,30.12094,0,0,1-2.58106,3.45215,6.27617,6.27617,0,0,0-1.09179,3.01758c-.0586.27929-.11719.55957-.17969.83886-.53027,2.373-1.0957,4.73633-1.67578,7.16407l-.73242,3.07519a3.50032,3.50032,0,0,1-3.40625,2.69434l-14.4502.0039Q457.24108,110.4436,455.72691,110.43774Z" fill="#262223"/><path d="M473.03569,86.57727l.00855,0c1.12323.00586,2.24621.00751,3.40051.00751,1.48263,0,3.01678-.00272,4.66775-.00272a53.81844,53.81844,0,0,1-3.41794,4.72223c-1.4349,1.58884-1.66113,3.51846-2.09066,5.44049-.74747,3.34409-1.56513,6.6724-2.39777,10.19492h-9.426q-2.46822,0-4.9365.00357-1.5508,0-3.10159-.006c-3.20435-.0141-4.74207-1.71262-4.24307-4.87238a21.56559,21.56559,0,0,1,1.19748-4.14773,5.30536,5.30536,0,0,1,1.878-2.83463,37.22472,37.22472,0,0,1,3.20224-2.24167c1.54309-.94641,1.77029-1.09109,2.31881-1.09109.16462,0,.35825.01306.625.02136.63623.01977,1.27283.02545,1.90964.02545.85913,0,1.71851-.01034,2.57773-.01034.47415,0,.94833.00314,1.42227.01293q.095.002.1871.002A2.80828,2.80828,0,0,0,469.445,90.4859c1.95566-2.72577,1.25647-1.796,1.95566-2.72577.38782-.516.7923-1.18286,1.635-1.18286m-10.84161,16.97192c2.50586,0,4.09881-.77319,5.19424-3.43563a13.45986,13.45986,0,0,0,.97211-4.73865,6.78222,6.78222,0,0,0-2.03147-.29233c-.4338,0-.83175.02927-1.22653.03388a4.01341,4.01341,0,0,0-3.97238,2.93762c-.41421,1.55081-1.13629,3.549-.51059,5.4151.56192.0506,1.08542.08,1.57462.08m18.91842-16.9671h.005m-8.08182-7.00482a8.631,8.631,0,0,0-7.16806,3.89227l-.06271.08493c-.44666.594-.44544.59488-.64658.88236-.05466.07812-.129.18439-.24591.34982q-.51777.00125-1.03561.005c-.41562.0025-.83121.005-1.24674.005-.5643,0-1.12842-.00455-1.69223-.02209l-.2048-.008c-.24423-.01047-.45081-.01669-.63758-.01669-2.51568-.00009-4.01257.91809-5.90771,2.08053l-.07086.04346q-.18082.11087-.35465.23257c-1.50091,1.05072-2.02533,1.39118-2.27737,1.55478a11.62952,11.62952,0,0,0-1.40933,1.0586,12.14807,12.14807,0,0,0-3.93378,5.74041,28.24313,28.24313,0,0,0-1.55716,5.51279,10.99859,10.99859,0,0,0,2.28314,9.20627,11.14029,11.14029,0,0,0,8.84342,3.758q1.56609.0069,3.13241.006l2.4758-.00177,2.4607-.00177h9.426a7.00006,7.00006,0,0,0,6.81229-5.38971q.37043-1.5672.73544-3.08835c.58917-2.46475,1.14566-4.79285,1.68146-7.18988.06653-.29764.12884-.59506.19076-.89166a14.38861,14.38861,0,0,1,.35956-1.49128,33.96181,33.96181,0,0,0,2.78208-3.72473c.3034-.44912.61886-.91708.96231-1.40261a6.99964,6.99964,0,0,0-5.61252-11.17942h-.005l-2.46563.00141-2.20212.00131c-1.14194,0-2.25287-.00162-3.36405-.00742l-.045-.00012Z" fill="#fff"/><path d="M410.23131,110.50024c-1.79248,0-3.27393-.03711-4.66211-.11523-3.48145-.19629-5.28662-1.75488-6.188-3.02734a7.28307,7.28307,0,0,1-.82031-6.50586c.08594-.29688.166-.60059.2456-.90332a22.05921,22.05921,0,0,1,.75342-2.44629l.07617-.19532a10.20736,10.20736,0,0,1,3.69434-5.19238c1.25879-.96582,1.67529-1.30566,1.88525-1.47754a8.34926,8.34926,0,0,1,.97315-.7041,9.07992,9.07992,0,0,1,5.16357-1.69726c.10254,0,.20654.001.311.00488,1.48437.05176,3.11377.07519,5.12646.07519,1.10791,0,2.21631-.00683,3.32471-.01367,1.123-.00683,2.24609-.01367,3.36865-.01367h.13086c3.36719.00195,5.145,1.45605,6.04395,2.67578.894,1.21289,1.75293,3.32617.76855,6.50977-.19678.63574-.92773,3.2666-1.09424,3.95605a7.94444,7.94444,0,0,1-3.47656,4.93653c-.6748.44042-1.3584.86914-2.0415,1.29687-.91309.57227-1.82666,1.14258-2.71582,1.749a6.30578,6.30578,0,0,1-3.77979,1.02735h-.1123c-1.22022,0-2.35108.01465-3.48145.03027C412.55992,110.48462,411.39537,110.50024,410.23131,110.50024Z" fill="#262223"/><path d="M411.35429,91.735q.09234,0,.18677.00327c1.749.0607,3.4989.07764,5.25006.07764,2.22129,0,4.44412-.02732,6.66547-.02732l.15631.00006c3.02823.00177,4.37506,1.72324,3.47009,4.65079-.21875.70767-.9722,3.42108-1.153,4.17a4.48213,4.48213,0,0,1-1.988,2.82666c-1.59649,1.04235-3.24209,2.0111-4.81616,3.08538a2.94915,2.94915,0,0,1-1.805.41852l-.19413-.00021c-2.29568.00006-4.59454.06024-6.89022.06024-1.49207,0-2.98294-.02542-4.47025-.10934-3.34244-.18848-4.69131-2.14347-3.84427-5.06308.29608-1.02063.52436-2.09961.89566-3.04642a7.15346,7.15346,0,0,1,2.57129-3.83441c2.74646-2.106,1.788-1.4636,2.74646-2.106a5.56213,5.56213,0,0,1,3.21887-1.10578m-.001,11.81537c5.09454-.0025,6.86447-3.41168,6.74594-8.31369a10.56678,10.56678,0,0,0-1.67557-.143c-3.8031.00033-5.98743,2.51147-5.07037,8.45666m.00116-18.81537h-.00013a12.48989,12.48989,0,0,0-7.11657,2.29133,12.90827,12.90827,0,0,0-1.23893.90191c-.18319.14994-.55752.45636-1.74017,1.36457a13.60869,13.60869,0,0,0-4.88306,6.74154l-.0747.19122a24.86782,24.86782,0,0,0-.87754,2.82715c-.073.27631-.14535.553-.22415.82459a10.87652,10.87652,0,0,0,1.3255,9.502,11.14534,11.14534,0,0,0,8.84751,4.50022c1.45648.08218,3.00222.12045,4.86435.12045,1.1788,0,2.35843-.01526,3.538-.03073,1.11768-.01465,2.23538-.02948,3.3523-.02951l.08612.00009.10791.00012a9.73764,9.73764,0,0,0,5.75107-1.63681c.81485-.55612,1.68481-1.10083,2.60586-1.67752.7-.43823,1.39975-.87689,2.09107-1.32825a11.48725,11.48725,0,0,0,4.96539-7.04437c.13788-.5712.84491-3.12659,1.03647-3.74631A10.118,10.118,0,0,0,423.617,84.7886l-.1604,0c-1.125,0-2.2504.00687-3.37579.01377-1.09671.00674-2.19339.01355-3.28971.01355-1.97226,0-3.56335-.02335-5.00729-.07346-.14432-.005-.28775-.00748-.42938-.00748Zm6.83191,15.75559h0Z" fill="#fff"/><path d="M596.47545,109.49927q-4.25684,0-8.52344-.02344c-3.69433-.02246-6.61816-3.83105-6.93066-7.23535-.47168-5.14551,1.77832-9.22266,6.6875-12.11621a13.08192,13.08192,0,0,1,6.81347-1.87207l.27442.00293c2.30566.042,4.60937.05371,6.91992.05371q2.26171,0,4.53125-.01074,2.29248-.00734,4.59473-.00977a3.49942,3.49942,0,0,1,3.44824,4.09766c-.32227,1.85937-3.8711,13.04882-4.41309,14.69824a3.49983,3.49983,0,0,1-3.32519,2.4082Z" fill="#262223"/><path d="M594.52245,91.75244q.10473,0,.21063.00192c2.31878.04206,4.63708.054,6.96124.054,3.0376,0,6.08441-.02036,9.14813-.02036-.2323,1.34195-3.26349,11.07822-4.28961,14.20459q-5.00683,0-10.04919.007-4.25848,0-8.52777-.02353c-1.579-.01034-3.29889-2.20263-3.469-4.055-.37659-4.10281,1.59363-6.786,4.97962-8.78192a9.52979,9.52979,0,0,1,5.036-1.38669m3.01373,12.3667c.64276,0,1.0108-.469,1.22381-1.28247.62885-2.40183,1.42566-4.7597,2.23346-7.39041a9.81613,9.81613,0,0,0-2.41064-.39447,3.651,3.651,0,0,0-2.9967,1.46466,20.13465,20.13465,0,0,0-1.90284,2.60312,2.46156,2.46156,0,0,0-.051,2.92782,6.16237,6.16237,0,0,0,3.51953,2.02314,1.671,1.671,0,0,0,.3844.04861M610.84245,91.788h.005m-16.32495-7.03552h-.00006a16.48233,16.48233,0,0,0-8.59058,2.35639c-7.695,4.53585-8.81293,10.90646-8.39569,15.452.45917,5,4.74518,10.378,10.3938,10.415q4.289.02793,8.57367.02368,2.52748,0,5.04821-.00354,2.505-.00261,5.001-.00348a7,7,0,0,0,6.65088-4.817c.03772-.11484,3.601-11.17423,4.409-14.59342a7.0053,7.0053,0,0,0-6.76526-8.79413h-.005q-2.31445,0-4.61706.01026-2.26987.00755-4.53107.0101c-2.67657,0-4.8482-.01679-6.83429-.05283q-.17039-.00306-.33752-.003Z" fill="#fff"/><path d="M428.78258,109.967c-2.07276,0-4.21631,0-5.645-1.791-1.42383-1.78418-.981-3.7295-.42041-6.19043l.05664-.25c.01709-.07422,1.7251-7.52149,2.59717-9.76075a5.21014,5.21014,0,0,1,5.17236-3.69726l2.1167.0039c1.28369,0,6.43359-.01464,7.72412-.01464,2.82227,0,4.99756.01757,7.0542.05957a7.38911,7.38911,0,0,1,5.292,2.16894,6.88216,6.88216,0,0,1,1.82813,5.11914,29.1867,29.1867,0,0,1-1.2334,6.8125c-.21094.78809-.42285,1.57617-.6001,2.37207l.00147-.00195a.57835.57835,0,0,1-.00391.11719,5.98789,5.98789,0,0,1-.83057,2.82226,3.49963,3.49963,0,0,1-2.981,1.666h-7.936a3.49924,3.49924,0,0,1-3.47461-3.9209,9.25841,9.25841,0,0,1-8.188,4.48437Z" fill="#262223"/><path d="M440.38576,91.76666c2.32773,0,4.6557.01221,6.98248.05887,2.18668.04395,3.768,1.26737,3.69235,3.68009-.09359,2.97976-1.12256,5.70434-1.75232,8.53332a5.06508,5.06508,0,0,1-.39706,1.86408h-7.93646c.38961-2.18656.634-4.29819,1.19308-6.32288a7.95128,7.95128,0,0,0,.28687-2.28531,1.91112,1.91112,0,0,0-2.10288-2.18307c-.42062-.01752-.84164-.02289-1.26657-.02289-.68158,0-1.37311.01385-2.088.01385-.62726,2.41379-1.17746,4.76938-1.85761,7.08692a5.70739,5.70739,0,0,1-5.83212,4.27661c-.17892.00027-.34937.00058-.5127.00058-3.58929,0-3.47311-.14777-2.60794-3.95581.30136-1.3266,1.76975-7.53061,2.44519-9.26545.43644-1.12109.84644-1.46838,1.9134-1.46835l.02038,0q1.07685.00444,2.1528.00412c2.55554,0,5.11176-.01471,7.66715-.01471m0-7q-1.9266,0-3.85361.00739-1.90686.00549-3.81354.00732-1.06238,0-2.12375-.00406a8.66666,8.66666,0,0,0-8.486,5.929c-.9938,2.55255-2.73065,10.1774-2.74808,10.25412l-.05639.24777c-.61365,2.69507-1.37735,6.04916,1.09768,9.15112,2.47953,3.10755,6.038,3.10755,8.39277,3.10755l.44143-.00046.08185-.00012a13.28531,13.28531,0,0,0,7.2999-2.0842,7.00025,7.00025,0,0,0,4.35675,1.521h7.93646a7,7,0,0,0,5.96612-3.33866,9.38824,9.38824,0,0,0,1.32721-4.28229c.14454-.61715.31833-1.26632.50092-1.94839a32.47544,32.47544,0,0,0,1.35168-7.60828,10.48959,10.48959,0,0,0-2.78884-7.64023,10.8602,10.8602,0,0,0-7.75937-3.25824c-2.07926-.04168-4.276-.06027-7.12317-.06027Z" fill="#fff"/><path d="M497.396,7c.68029.51708,1.52611.30091,2.27133.41526A47.34642,47.34642,0,0,1,511.011,10.753a63.80785,63.80785,0,0,1,10.442,5.61723,61.20731,61.20731,0,0,1,6.4419,4.88271c1.14861,1.00636,2.216,2.1033,3.40841,3.07125a27.90968,27.90968,0,0,1,3.067,3.285,45.12036,45.12036,0,0,1,3.744,4.86124,32.05948,32.05948,0,0,1,4.84657,10.99426,7.8215,7.8215,0,0,1,.16435,3.76386,16.36023,16.36023,0,0,0-.63031-3.581,20.1392,20.1392,0,0,0-2.94973-5.322,28.0956,28.0956,0,0,0-3.74611-4.20375,36.60116,36.60116,0,0,0-6.02937-4.44367,27.4231,27.4231,0,0,0-6.76191-2.75635,16.60022,16.60022,0,0,0-5.9308-.55671c.00109.34069.27821.48741.51579.64744a41.75164,41.75164,0,0,1,4.539,3.63592,40.97291,40.97291,0,0,1,3.07,3.07351,45.6966,45.6966,0,0,1,4.78682,6.35773,32.56306,32.56306,0,0,1,4.06019,9.75782,22.74989,22.74989,0,0,1,.39524,8.65182,20.10523,20.10523,0,0,1-3.30915,8.55559,19.2368,19.2368,0,0,1-6.57915,5.89373,30.36521,30.36521,0,0,1-8.41745,3.13224,31.55646,31.55646,0,0,1-3.94194.586c-1.90419.1764-3.80713.36561-5.71662.41283a40.69126,40.69126,0,0,1-6.82529-.64088,38.8776,38.8776,0,0,1-6.67289-1.67892,61.7278,61.7278,0,0,1-12.14948-5.6957,68.09615,68.09615,0,0,1-7.182-4.937,56.06154,56.06154,0,0,1-7.33854-6.85858,43.16033,43.16033,0,0,1-7.39674-10.84009,25.96621,25.96621,0,0,1-2.0714-6.66137,13.47116,13.47116,0,0,1-.10892-2.84755c.18969.93893.34846,1.87795.55092,2.81078a16.10021,16.10021,0,0,0,2.5505,5.251,30.82161,30.82161,0,0,0,3.36551,4.0319,26.3429,26.3429,0,0,0,3.54218,3.0834,27.52077,27.52077,0,0,0,5.306,3.22627,20.95516,20.95516,0,0,0,8.37075,2.20562c.57891.0055,1.09.36432,1.69324.25093.29679-.05578.613.006.78107-.35884a44.45442,44.45442,0,0,1-8.36294-7.30625,44.90535,44.90535,0,0,1-5.23172-7.26684,34.67657,34.67657,0,0,1-3.73121-9.879,22.49507,22.49507,0,0,1-.31464-4.93636,19.23613,19.23613,0,0,1,3.86638-11.65009,19.80526,19.80526,0,0,1,8.79363-6.62928,38.25018,38.25018,0,0,1,6.34778-1.95825,20.3927,20.3927,0,0,1,4.179-.56183c.2706-.00288.63424.19013.806-.2227Zm24.03936,48.23447a10.8051,10.8051,0,0,0,1.32485-4.86672,12.94735,12.94735,0,0,0-.44938-3.95974,24.63679,24.63679,0,0,0-6.32413-11.59652,32.63982,32.63982,0,0,0-3.43428-3.25845,35.71927,35.71927,0,0,0-5.36543-3.58391,26.751,26.751,0,0,0-7.60966-2.7504,20.44614,20.44614,0,0,0-4.64872-.47125,18.37875,18.37875,0,0,0-4.14077.63423,11.47771,11.47771,0,0,0-7.56352,6.05936,12.99627,12.99627,0,0,0-.925,8.57881,21.75809,21.75809,0,0,0,2.94341,7.30022,30.0655,30.0655,0,0,0,6.48308,7.49045,36.91416,36.91416,0,0,0,5.31566,3.65954A25.23223,25.23223,0,0,0,510.63,61.93989a10.74321,10.74321,0,0,0,3.89764-.86487,6.29018,6.29018,0,0,0-1.16572-.056,13.56612,13.56612,0,0,1-6.45023-1.5419,18.4598,18.4598,0,0,1-8.0266-7.40519,10.56505,10.56505,0,0,1-1.47647-8.17992,6.6699,6.6699,0,0,1,2.61254-3.85923c2.19709-1.60057,4.70189-1.568,7.14857-1.30042a14.43755,14.43755,0,0,1,5.68922,2.038,18.43565,18.43565,0,0,1,6.378,5.94126c1.53886,2.41673,2.58172,5.00737,2.1453,7.97639A2.81837,2.81837,0,0,0,521.43533,55.23448Z" fill="#e72835"/><path d="M370.6178,87.69379c2.16216-1.32606,3.48323-4.03231,6.50081-3.95935,1.09006.02637,2.1813.00423,3.40631.00423-1.49184,6.20554-2.92809,12.17986-4.37918,18.21588,3.36622-1.17329,3.28193-1.26162,4.35526-4.60547,1.07045-3.33485,1.9589-6.708,2.79483-10.10248.362-1.47014,2.9913-3.51846,4.48425-3.49842a39.125,39.125,0,0,1,5.42042.12395l-4.32334,18.12418c2.29928-1.32454,3.96052-2.51983,4.37641-5.01426.47521-2.85028,1.23795-5.65236,1.86572-8.47761.448-2.01633,2.40238-2.77933,3.5102-4.24644.64554-.85489,1.58952-.47362,2.411-.50554,1.32153-.05136,2.64652-.01379,4.02689-.01379-1.45746,5.82348-2.88229,11.42437-4.24688,17.03987-.3059,1.25881-.17976,1.0416-1.7905,2.77177l-1.956,1.6786a6.17856,6.17856,0,0,1-4.33107,1.75389c-8.83393-.09477-17.66943-.043-26.50437-.043C366.2386,106.46628,370.52441,87.751,370.6178,87.69379Z" fill="#262223"/><path d="M631.7229,105.876h-8.63573c.61648-2.28459,1.23077-4.593,1.86307-6.89639.80642-2.93794.11459-3.87251-2.893-3.877-.70628-.00106-1.41259-.00016-2.26426-.00016-.70844,2.43693-1.37874,4.89557-2.1414,7.32521a5.15386,5.15386,0,0,1-5.459,4.01671c-1.58865-.0408-3.25095.38927-4.7923-.32148.6629-3.2183,3.88228-12.85762,4.291-14.33489h13.04629c1.569,0,3.14185.06845,4.70613-.018a5.30262,5.30262,0,0,1,4.31778,1.91194A106.06625,106.06625,0,0,1,631.7229,105.876Z" fill="#262223"/><path d="M501.18377,96.6263c1.995-1.87741,4.17069-2.84952,6.14971-4.12647a4.95277,4.95277,0,0,1,2.863-.73185q5.5595.07729,11.12063.00386a5.80127,5.80127,0,0,1,3.28764.8732c1.81543,1.12207,2.27349,2.44953,1.07569,4.15477a5.31318,5.31318,0,0,1-2.94849,2.14784,10.9931,10.9931,0,0,1-6.89674-.10169c.08183-.42054.09862-.57224.14144-.71617.26144-.879,1.45345-1.61637.44642-2.68575-.50152-.53259-2.61816-.36686-3.54233.02856-2.12547.90939-2.74968,2.8152-3.11919,4.762-.398,2.09717-1.27156,4.03892-1.58872,6.137h-8.84478c.65893-3.12309,1.29706-6.14754,1.96694-9.32248a6.38264,6.38264,0,0,0-2.37668,1.87165c-2.69676,2.54679-5.85988,3.20818-9.41746,2.83445a39.26329,39.26329,0,0,0-4.14153-.0239,1.98267,1.98267,0,0,0-.11558,1.82571h11.461c-1.64292,1.8515-3.35051,3.40665-5.94381,3.38866-3.47027-.02409-6.941.00981-10.41117-.01958a4.58458,4.58458,0,0,1-2.0337-.2975c-2.3139-1.05265-3.27906-1.621-2.31-4.76449.72131-2.33979.929-4.84873,2.96088-6.5459,1.35483-1.1317,2.80919-2.14349,4.18315-3.25334.57928-.46794,1.20663-.259,1.80383-.26259,4.41672-.02642,8.83369-.01851,13.25056-.01259,2.40354.00321,2.91241.527,2.97752,3.03127C501.19429,95.29259,501.18377,95.76477,501.18377,96.6263Zm-7.14342-1.48277c-6.32159-.14528-7.53544.34542-7.92261,3.10632C490.77809,98.78085,491.06353,98.67369,494.04035,95.14353Z" fill="#262223"/><path d="M514.891,106.73873c1.56335-1.565,3.07058-3.022,4.51073-4.54255a1.97738,1.97738,0,0,1,1.73145-.45969c6.13018.13988,12.2667-.295,18.39338.215,1.30926.109,1.86586-.59,2.39393-3.06107-2.69417,0-5.34883-.17512-7.9701.04585-3.04282.25649-5.10277-1.50717-4.87049-4.91352a11.20526,11.20526,0,0,1,5.04056-8.76286,3.26888,3.26888,0,0,1,1.95074-.60057c6.28972.04679,12.58.02642,19.26715.02642-1.38172,1.40767-2.55036,2.53248-3.63679,3.7318-.575.63472-1.25622.52516-1.94558.52695-2.52493.00656-5.05-.01261-7.57481.00692-2.49332.01928-3.47409.88812-4.07553,3.78362,2.77277,0,5.49369.02711,8.21374-.00945a5.219,5.219,0,0,1,4.43228,2.08385c1.06991,1.41249.8314,3.22144.55184,4.7645a8.95229,8.95229,0,0,1-4.9382,6.81773,4.85254,4.85254,0,0,1-2.202.57053c-9.54732-.03592-19.09479-.02368-28.64224-.03017A3.2278,3.2278,0,0,1,514.891,106.73873Z" fill="#262223"/><path d="M572.47115,102.58041a6.72359,6.72359,0,0,0,4.17538-4.87373c.68413-3.06493,1.83534-3.76646,3.33018-5.39527.88606-.96548,2.069-.40253,3.116-.50823.76507-.07725,1.54423-.01515,2.3574-.01515-.33411,3.41551-1.60119,6.41323-1.95769,9.608-.17314,1.55158-5.04959,4.20392-5.946,5.17052a1.4965,1.4965,0,0,1-1.28926.3697q-12.64779.00169-25.29557-.01435a1.92233,1.92233,0,0,1-.53362-.21164c.54908-3.3532,1.38834-6.67867,2.10429-10.0113.42163-1.96264,2.515-3.0969,3.94666-4.51609.82788-.82068,1.94022-.296,2.92-.37967.85319-.07289,1.71753-.01518,2.86459-.01518-.33219,3.87462-1.634,7.42856-2.392,11.00356.34534.33045.46361.03831.64176-.01647,3.35862-1.03285,3.64714-3.95238,4.10742-6.73462a5.30483,5.30483,0,0,1,4.933-4.25138q2.24581-.00427,4.4916.01505a1.41923,1.41923,0,0,1,.43809.15836C573.83841,95.39448,572.28083,102.75175,572.47115,102.58041Z" fill="#262223"/><path d="M481.11246,86.58215a53.85016,53.85016,0,0,1-3.41788,4.72223c-1.43492,1.58881-1.6611,3.51838-2.09069,5.44046-.74741,3.34407-1.56514,6.67243-2.39772,10.19493h-9.4261c-2.67937,0-5.35879.00938-8.03812-.00244-3.20432-.01413-4.742-1.71258-4.243-4.87233a21.568,21.568,0,0,1,1.19748-4.14774,5.305,5.305,0,0,1,1.878-2.83467,37.22206,37.22206,0,0,1,3.20222-2.24168c2.00619-1.23043,1.7883-1.10572,2.94383-1.06975,1.96822.06122,3.94033-.0125,5.90963.02813a2.879,2.879,0,0,0,2.81492-1.31336c1.95561-2.7258,1.25648-1.79594,1.95561-2.7258.38919-.51765.79512-1.18728,1.64364-1.18285C475.61018,86.59072,478.1762,86.58215,481.11246,86.58215Zm-12.75207,8.79278a9.09822,9.09822,0,0,0-3.25791-.25841,4.01334,4.01334,0,0,0-3.97243,2.93762c-.41427,1.55075-1.13632,3.54894-.51056,5.4151,3.44022.30976,5.45957-.17349,6.7688-3.35564A13.45962,13.45962,0,0,0,468.36039,95.37493Z" fill="#262223"/><path d="M425.93,100.60942a4.482,4.482,0,0,1-1.98793,2.82669c-1.59652,1.04229-3.24208,2.01111-4.81615,3.08537a3.23122,3.23122,0,0,1-1.9991.41826c-3.78777.00008-7.58478.16392-11.36054-.049-3.34242-.18853-4.69126-2.14352-3.84424-5.06308.29612-1.02066.52432-2.09967.89564-3.04648a7.15375,7.15375,0,0,1,2.57128-3.83436c2.74648-2.106,1.78808-1.46357,2.74648-2.106a5.49961,5.49961,0,0,1,3.40568-1.10252c4.01966.13952,8.04728.048,12.07178.0504,3.0283.00177,4.37512,1.7232,3.47015,4.65075C426.86426,97.14707,426.11082,99.86047,425.93,100.60942Zm-14.57673,2.94089c5.09458-.00243,6.8645-3.41162,6.746-8.31367C413.28689,94.46206,410.30867,96.7785,411.35323,103.55031Z" fill="#262223"/><path d="M606.55282,105.99257c-6.1585,0-12.36793.02387-18.577-.01656-1.579-.01027-3.29888-2.20257-3.46895-4.055-.37665-4.10275,1.59365-6.786,4.97962-8.78189a9.55454,9.55454,0,0,1,5.24657-1.38473c5.34926.097,10.70143.03359,16.10936.03359C610.61015,93.12989,607.579,102.86625,606.55282,105.99257Zm-5.55938-10.54629c-2.1123-.54931-3.87433-.78308-5.40728,1.07023a20.12332,20.12332,0,0,0-1.90285,2.60306,2.46151,2.46151,0,0,0-.051,2.92788,6.16234,6.16234,0,0,0,3.51952,2.023c.88621.20991,1.35591-.2703,1.60821-1.23383C599.38888,100.43485,600.18568,98.077,600.99344,95.44628Z" fill="#262223"/><path d="M428.632,93.24554c.4392-1.12817.85172-1.47268,1.93377-1.46821,5.601.0231,11.20365-.064,16.80249.04827,2.18666.04389,3.768,1.26735,3.69227,3.68-.09353,2.9798-1.1225,5.70434-1.7523,8.53334a5.06448,5.06448,0,0,1-.39707,1.86406h-7.93644c.38963-2.18656.634-4.29815,1.1931-6.32286a7.94978,7.94978,0,0,0,.28683-2.28535,1.911,1.911,0,0,0-2.10282-2.183c-1.09529-.04563-2.194-.00906-3.35467-.00906-.62721,2.41377-1.17739,4.76941-1.85756,7.0869a5.7074,5.7074,0,0,1-5.83216,4.27663c-4.11157.00645-4.02517.02607-3.12065-3.95522C426.48821,101.18441,427.95663,94.98042,428.632,93.24554Z" fill="#262223"/></g></svg>