<svg id="Layer_1" data-name="Layer 1" xmlns="http://www.w3.org/2000/svg" viewBox="0 0 105 105"><title>icon_filled</title><path d="M88.70773,69.15176H11.3266a4.81327,4.81327,0,0,0-4.81339,4.81313v4.21627a1.89486,1.89486,0,0,0,1.89515,1.89436H91.62674a1.89469,1.89469,0,0,0,1.89436-1.89436v-4.216A4.81278,4.81278,0,0,0,88.709,69.15176Z" fill="#912c2c"/><path d="M88.70773,69.15176H82.22426V80.07622h9.40248a1.89436,1.89436,0,0,0,1.89436-1.89437v-4.2167A4.81278,4.81278,0,0,0,88.709,69.15176Z" fill="#7c1e1e"/><path d="M91.94487,63.40149A4.67613,4.67613,0,0,1,96.566,68.09585c.00229,3.73155-4.25186,5.706-9.19346,4.98276-4.61579-.67519-4.67376-2.79921-9.3483-2.79921-4.67376,0-4.67376,2.79921-9.3483,2.79921-4.67375,0-4.67375-2.79921-9.34753-2.79921s-4.67375,2.79921-9.34753,2.79921c-4.67452,0-4.67377-2.79921-9.3483-2.79921-4.67375,0-4.67375,2.79921-9.34753,2.79921s-4.67373-2.79929-9.34825-2.79929c-4.67378,0-4.73251,2.12326-9.34753,2.79922-4.94233.72328-9.19571-1.25121-9.19346-4.98276a4.675,4.675,0,0,1,4.62036-4.69436Z" fill="#a0e557"/><path d="M96.566,68.09585a4.67613,4.67613,0,0,0-4.62113-4.69436H84.93119v9.07364a11.91,11.91,0,0,0,2.44139.60343C92.31415,73.80189,96.5683,71.8274,96.566,68.09585Z" fill="#93cc4a"/><path d="M94.59229,79.10583H5.4077a3.94063,3.94063,0,0,0-3.94058,3.9406,20.4864,20.4864,0,0,0,20.48634,20.48645h56.093A20.48639,20.48639,0,0,0,98.53286,83.04653v-.0001A3.94111,3.94111,0,0,0,94.59229,79.10583Z" fill="#efa335"/><path d="M94.59229,79.10583H87.25584v7.882A16.54626,16.54626,0,0,1,70.71,103.53366h7.33646A20.487,20.487,0,0,0,98.53286,83.04643,3.94111,3.94111,0,0,0,94.59229,79.10583Z" fill="#fd8f31"/><path d="M88.69017,58.38516H11.30982A4.81275,4.81275,0,0,1,6.49644,53.573V49.35578A1.89484,1.89484,0,0,1,8.3908,47.46064H91.60919a1.89485,1.89485,0,0,1,1.89437,1.89514v4.216a4.81276,4.81276,0,0,1-4.81212,4.81339Z" fill="#fc4e51"/><path d="M91.60919,47.46064H82.24105v8.00628A2.91814,2.91814,0,0,1,79.323,58.38516h9.368a4.81324,4.81324,0,0,0,4.81339-4.81309V49.35578A1.896,1.896,0,0,0,91.60919,47.46064Z" fill="#ea3942"/><path d="M92.75511,57.47041H7.33569a3.53029,3.53029,0,0,0-3.54611,3.51441l0,.00732a3.45557,3.45557,0,0,0,3.45537,3.38973H61.51733a3.69466,3.69466,0,0,1,2.404.88882l7.70263,6.6002a5.63442,5.63442,0,0,0,7.68509-.33035l5.94712-6.05317a3.69282,3.69282,0,0,1,2.63519-1.1055h4.7737A3.52916,3.52916,0,0,0,96.21046,60.869l0-.00884A3.45558,3.45558,0,0,0,92.75511,57.47041Z" fill="#fccf3f"/><path d="M50,13.05664C4.81262,13.07343,1.46714,42.88223,1.46714,47.10358A3.94061,3.94061,0,0,0,5.4077,51.04423H94.59229a3.94061,3.94061,0,0,0,3.94058-3.94057C98.53286,42.88223,95.18738,13.07343,50,13.05664Z" fill="#efa335"/><path d="M98.53211,46.99143l-.00076-.03814-.00154-.087-.00153-.04272-.003-.09461-.00153-.045-.00458-.10758-.00228-.03968c-.00153-.04349-.00457-.08781-.00688-.1335l-.00151-.02365c-.01681-.28535-.04425-.61722-.08468-.98877v-.00153C97.59522,37.77283,91.13312,13.0719,50,13.05664q-2.93655.00116-5.6389.16627c27.375,1.64029,37.38327,15.12222,40.96528,24.70474a6.18418,6.18418,0,0,1-5.812,8.32444H5.4077a3.94218,3.94218,0,0,1-3.62014-2.38342,20.80427,20.80427,0,0,0-.32044,3.23486,3.94061,3.94061,0,0,0,3.94052,3.9407H94.59229a3.94061,3.94061,0,0,0,3.94058-3.94057Z" fill="#fd8f31"/><path d="M92.75511,57.47041H84.93119v8.34731l.32507-.33035a3.6928,3.6928,0,0,1,2.63518-1.1055h4.77371A3.52965,3.52965,0,0,0,96.21052,60.868l0-.00787A3.45557,3.45557,0,0,0,92.75511,57.47041Z" fill="#efc03c"/><path d="M94.98824,77.65473V73.96515a6.33,6.33,0,0,0-.03891-.65994,7.17256,7.17256,0,0,0,1.00861-.72487A5.77767,5.77767,0,0,0,98.03238,68.095a6.20984,6.20984,0,0,0-1.51215-4.04892,4.85874,4.85874,0,0,0,1.15661-3.21349,4.95076,4.95076,0,0,0-3.31878-4.55705,6.237,6.237,0,0,0,.61264-2.70386v-1.075a5.41407,5.41407,0,0,0,5.02922-5.39322A33.55659,33.55659,0,0,0,92.35,27.57844,38.95809,38.95809,0,0,0,77.22542,16.44182a69.22818,69.22818,0,0,0-27.22619-4.85231c-13.32015.00458-24.31945,2.58026-32.69271,7.65382a1.46682,1.46682,0,1,0,1.50568,2.51778l.01409-.00853c7.9094-4.792,18.39753-7.22428,31.173-7.22885A66.34326,66.34326,0,0,1,76.06812,19.138,36.05815,36.05815,0,0,1,90.07263,29.42856a30.36625,30.36625,0,0,1,6.99318,17.675,2.47591,2.47591,0,0,1-2.47352,2.47351H5.4077a2.4759,2.4759,0,0,1-2.47351-2.47351A26.39134,26.39134,0,0,1,4.66,38.741a32.0056,32.0056,0,0,1,8.87146-13.086,1.467,1.467,0,0,0-1.94123-2.2l-.01335.01194A34.014,34.014,0,0,0,0,47.10355a5.41407,5.41407,0,0,0,5.02845,5.39326v1.075A6.24192,6.24192,0,0,0,5.65178,56.297,5.09744,5.09744,0,0,0,3.7307,57.52153,4.8362,4.8362,0,0,0,2.32308,61.0196a4.89313,4.89313,0,0,0,1.117,3.02887A6.2108,6.2108,0,0,0,1.92947,68.095a5.77764,5.77764,0,0,0,2.07444,4.48533,7.25679,7.25679,0,0,0,1.0765.76371c-.02055.206-.03432.41274-.03432.621V77.6516a5.4147,5.4147,0,0,0-5.046,5.39476A21.97853,21.97853,0,0,0,21.95358,105H78.04642A21.97853,21.97853,0,0,0,100,83.04643,5.414,5.414,0,0,0,94.98824,77.65473Zm-.949-7.29371a8.38921,8.38921,0,0,1-6.45447,1.26648,10.52419,10.52419,0,0,1-3.88336-1.342c-.23881-.12588-.47988-.25407-.73166-.37841l3.33253-3.392a2.23994,2.23994,0,0,1,1.58919-.666h4.77289a4.93564,4.93564,0,0,0,1.34124-.18462,3.26685,3.26685,0,0,1,1.09329,2.433A2.88876,2.88876,0,0,1,94.03916,70.361ZM7.96284,52.51215H92.0372v1.05972a3.34286,3.34286,0,0,1-1.445,2.7504c-.02442.01756-.04961.03362-.07473.0496-.06255.04119-.12665.08011-.1915.11673l-.06714.03814c-.08315.04426-.16784.08546-.25482.12284l-.01448.00686c-.0969.04044-.19616.07706-.29755.10835l-.03434.00992q-.127.03894-.25863.06638l-.08164.01682c-.07553.01373-.15182.02593-.22888.03508l-.08621.00992c-.103.00992-.20676.016-.312.016H11.30906A3.3505,3.3505,0,0,1,7.9628,53.57268ZM5.82508,59.577a2.13377,2.13377,0,0,1,1.51062-.63934h.71259a6.24669,6.24669,0,0,0,3.26158.91477h77.3803c.13048,0,.2594-.00534.38758-.013.04119-.00229.08164-.0061.12206-.00917.09-.00762.18006-.01681.26933-.02823.04349-.00532.0878-.0099.13122-.016.11445-.01681.22812-.03586.34027-.05875.0473-.00992.09384-.02136.14115-.032.07706-.01755.1541-.03585.2304-.05646.05791-.01526.116-.032.17319-.04884.0618-.0183.12283-.03889.18387-.05873.05875-.01908.11672-.03815.17471-.05876.09995-.03736.19914-.07628.29678-.11749.05876-.02516.11673-.05263.17472-.07934q.08239-.03774.16254-.07782c.05722-.029.11445-.05722.1709-.0878.0641-.03432.12741-.071.19075-.10758.03815-.02212.077-.042.11519-.06484h.80033a1.96642,1.96642,0,0,1,.8232,3.76205h-.00074a2.07847,2.07847,0,0,1-.91324.21591H87.89062a5.19125,5.19125,0,0,0-3.682,1.54418l-5.9471,6.05314a4.17858,4.17858,0,0,1-5.30624.52871c-.03587-.02442-.071-.04884-.10606-.074-.09154-.06563-.18233-.13429-.27008-.20906l-.00152-.00153L64.875,64.15679a5.16593,5.16593,0,0,0-3.35769-1.24131H7.24488a1.965,1.965,0,0,1-.872-.20523H6.37207a1.98051,1.98051,0,0,1-1.11532-1.74559A1.92425,1.92425,0,0,1,5.825,59.57687Zm-.96131,8.51975a3.263,3.263,0,0,1,1.08261-2.42233,4.87689,4.87689,0,0,0,1.29854.1747H61.51733a2.23276,2.23276,0,0,1,1.44959.5356l6.09131,5.22c-.12207.00458-.24949.00688-.38147.00688a6.48733,6.48733,0,0,1-3.92-1.19094,9.96368,9.96368,0,0,0-10.85586,0,7.04681,7.04681,0,0,1-7.84,0,9.96368,9.96368,0,0,0-10.85586,0,7.0468,7.0468,0,0,1-7.84,0,9.32337,9.32337,0,0,0-5.42831-1.60829,10.49481,10.49481,0,0,0-5.67856,1.47323,10.51151,10.51151,0,0,1-3.88184,1.34127,8.39,8.39,0,0,1-6.45371-1.26573,2.88615,2.88615,0,0,1-1.059-2.2645ZM78.04642,102.0665H21.95358A19.0414,19.0414,0,0,1,2.93419,83.04643,2.47591,2.47591,0,0,1,5.4077,80.57291H71.17539a1.46714,1.46714,0,0,0,0-2.93426H7.98036V74.426a12.96925,12.96925,0,0,0,2.64433.26551,15.12957,15.12957,0,0,0,2.17744-.161,13.32441,13.32441,0,0,0,4.83016-1.65176,7.7192,7.7192,0,0,1,4.30527-1.13213,6.48707,6.48707,0,0,1,3.92,1.191,9.32359,9.32359,0,0,0,5.42833,1.60828,9.3226,9.3226,0,0,0,5.42754-1.60828,7.04677,7.04677,0,0,1,7.84,0,9.9637,9.9637,0,0,0,10.85585,0,7.04676,7.04676,0,0,1,7.84,0,10.08669,10.08669,0,0,0,8.88215,1.01165,7.1256,7.1256,0,0,0,8.22447-1.38015l.41047-.41733a11.43612,11.43612,0,0,1,1.564.72786,13.32583,13.32583,0,0,0,4.83016,1.651,15.02084,15.02084,0,0,0,2.17743.161,12.9458,12.9458,0,0,0,2.71683-.28078v3.228H78.00216a1.46714,1.46714,0,1,0-.0109,2.93426h16.601a2.47655,2.47655,0,0,1,2.47422,2.47351A19.04255,19.04255,0,0,1,78.04642,102.0665Z"/></svg>