<svg xmlns="http://www.w3.org/2000/svg" viewBox="0 0 1000 114"><title>logo</title><g id="Layer_2" data-name="Layer 2"><rect x="486.76017" y="51.99979" width="32.09191" height="37.20513" fill="#fff"/><rect x="523.18541" y="51.99979" width="20.4703" height="26.24911" fill="#fff"/><rect x="609.06736" y="59.33312" width="30.92801" height="30.92801" fill="#fff"/><rect x="584.50449" y="40.97167" width="111.39512" height="54.69478" fill="#fff"/><rect x="558.68464" y="51.99979" width="17.75231" height="9.22222" fill="#fff"/><rect x="635.45551" y="38.55535" width="21.15964" height="9.95009" fill="#fff"/><rect x="687.16316" y="23.22201" width="16.68892" height="8.44444" fill="#fff"/><rect x="654.29652" y="18.37386" width="22.05358" height="17.71996" fill="#fff"/><rect x="433.40763" y="59.33312" width="90.43113" height="36.33333" fill="#fff"/><rect x="576.61066" y="55.44423" width="107.68586" height="35.51279" fill="#fff"/></g><g id="Capa_1" data-name="Capa 1"><path d="M631.801,21.774a4.79952,4.79952,0,0,1-.66113-.04687,4.65914,4.65914,0,0,1-.68457-.14893,4.31291,4.31291,0,0,1-2.07715-1.37451,4.17448,4.17448,0,0,1-.96289-2.66943l.06152-4.689a4.13321,4.13321,0,0,1,2.57422-3.8042l-.00488-1.1792a4.13361,4.13361,0,0,1,.46-1.91553,4.02062,4.02062,0,0,1,.57422-.85058,4.43655,4.43655,0,0,1,3.375-1.4624h4.63085a4.28074,4.28074,0,0,1,4.40918,4.23974,4.12451,4.12451,0,0,1-.85449,2.53125,4.19115,4.19115,0,0,1,.15625,4.85254,4.16529,4.16529,0,0,1,.69824,2.32617,4.26942,4.26942,0,0,1-4.40918,4.21534Z"/><path d="M634.45545,7.13337h.005m-.005,0-.00006.00018h4.6308c.497,0,.90918.26812.90918.73944,0,.47082-.41218.72736-.90918.72736h-1.20014c-.497,0-.897.256-.897.72734l-.04853,2.1214a.68884.68884,0,0,0,.14551.44856.88692.88692,0,0,0,.5697.2788,1.31992,1.31992,0,0,0,.18189.01208l1.2486.01216a1.292,1.292,0,0,1,.18182.01208.75413.75413,0,0,1,.72736.72736.69677.69677,0,0,1-.55768.67882,1.17978,1.17978,0,0,1-.16974.03638,1.41974,1.41974,0,0,1-.18183.01216l-5.649-.01216c-.497,0-.8971.244-.8971.71528l-.06067,1.73346a.80873.80873,0,0,0,.90924.75164l5.69751-.02428a.80865.80865,0,0,1,.90925.75158c0,.47126-.41224.7152-.90925.7152l-7.27343-.02428a1.29342,1.29342,0,0,1-.18183-.01208,1.15082,1.15082,0,0,1-.16974-.03638.79913.79913,0,0,1-.38787-.25458.66274.66274,0,0,1-.1576-.4364l.06067-4.64294c0-.47108.4-.71522.897-.71522l.9577-.0243c.47131,0,.72735-.40038.72735-.897l-.01208-3.40644a.64477.64477,0,0,1,.07269-.303.69843.69843,0,0,1,.08484-.13336.97932.97932,0,0,1,.75159-.2788m.005-7h-.005a7.95419,7.95419,0,0,0-6.0567,2.712,7.65762,7.65762,0,0,0-1.02051,1.5296,7.57874,7.57874,0,0,0-.798,2.74481,7.59707,7.59707,0,0,0-2.6036,5.70484l-.06034,4.61839q-.00063.04575-.00061.09148a7.69721,7.69721,0,0,0,1.77643,4.91334,7.7887,7.7887,0,0,0,3.72931,2.47386,8.17194,8.17194,0,0,0,1.21057.26852,8.34515,8.34515,0,0,0,1.18073.08372l7.25009.02424a7.73653,7.73653,0,0,0,7.93259-7.71516,7.8344,7.8344,0,0,0-.34989-2.32961,7.80768,7.80768,0,0,0-.07132-4.84092,7.75869,7.75869,0,0,0-7.488-10.27893h-4.57535l-.05039-.00018Zm-.005,14h0Z" fill="#fff"/><path d="M592.00312,21.774a4.75692,4.75692,0,0,1-.66114-.04687,4.32734,4.32734,0,0,1-.67285-.14893,4.2308,4.2308,0,0,1-3.05176-4.04394l.06055-4.688a4.13378,4.13378,0,0,1,2.583-3.8086v-1.189a4.26316,4.26316,0,0,1,4.39648-4.21533H599.3a4.27478,4.27478,0,0,1,4.39746,4.23974,4.13151,4.13151,0,0,1-.85156,2.53028,4.19566,4.19566,0,0,1,.15332,4.85156,4.17168,4.17168,0,0,1,.69824,2.32812A4.26342,4.26342,0,0,1,599.3,21.79846Z"/><path d="M594.65747,7.13337h.005m-.005,0-.00012.00018h4.643c.49664,0,.897.26812.897.73944,0,.47082-.40039.72736-.897.72736h-1.20014c-.49682,0-.90918.256-.90918.72734l-.04852,2.1214a.69643.69643,0,0,0,.15765.44856.856.856,0,0,0,.55762.2788,1.31953,1.31953,0,0,0,.18182.01208l1.26075.01216a1.29282,1.29282,0,0,1,.18188.01208.74321.74321,0,0,1,.71521.72736.69682.69682,0,0,1-.55768.67882,1.0193,1.0193,0,0,1-.15753.03638,1.42139,1.42139,0,0,1-.18188.01216l-5.66114-.01216c-.49646,0-.89709.244-.89709.71528l-.0484,1.73346a.79772.79772,0,0,0,.897.75164l5.70972-.02428a.79774.79774,0,0,1,.897.75158c0,.47126-.40039.7152-.897.7152l-7.28565-.02428a1.29136,1.29136,0,0,1-.18182-.01208.99369.99369,0,0,1-.15759-.03638.716.716,0,0,1-.55762-.691l.06061-4.64294c0-.47108.40063-.71522.89709-.71522l.96979-.0243c.47162,0,.71521-.40038.71521-.897V7.84857c0-.47132.40021-.7152.897-.7152m.005-7h-.005A7.73519,7.73519,0,0,0,586.79465,7.109a7.597,7.597,0,0,0-2.616,5.716l-.06027,4.61815q-.00064.04569-.00061.09138a7.703,7.703,0,0,0,5.51813,7.38728,7.98553,7.98553,0,0,0,1.19818.26844,8.33908,8.33908,0,0,0,1.18072.08372l7.26233.02424a7.73025,7.73025,0,0,0,7.92035-7.71516,7.84251,7.84251,0,0,0-.34967-2.33064,7.8156,7.8156,0,0,0-.07086-4.84037A7.76005,7.76005,0,0,0,599.3003.13355h-4.58744l-.05038-.00018Zm-.005,14h0Z" fill="#fff"/><path d="M602.75507,21.798a4.26332,4.26332,0,0,1-4.39746-4.21485l.09766-9.72119a4.23586,4.23586,0,1,1,8.46679.03516v3.605l.26758-.001a4.27249,4.27249,0,0,1,4.41113,4.22705v1.79444a4.27444,4.27444,0,0,1-4.39648,4.23925S602.76484,21.798,602.75507,21.798Z"/><path d="M602.69434,7c.4718,0,.72736.40008.72736.89709v6.40065c0,.47124.41265.7152.90918.7152l2.873-.01208c.49658,0,.8971.25591.8971.72736v1.79412c0,.47126-.40052.73944-.8971.73944l-4.44891.03638c-.49762,0-.897-.2439-.897-.71522l.09693-9.68585c0-.497.26861-.89709.7395-.89709m0-7A7.73427,7.73427,0,0,0,594.955,7.85l-.09668,9.66294-.00037.07a7.72465,7.72465,0,0,0,7.897,7.71522l.05725-.00024,4.43-.03622a7.7345,7.7345,0,0,0,7.85877-7.73936V15.72822a7.63375,7.63375,0,0,0-4.67926-7.08111v-.75A7.73047,7.73047,0,0,0,602.69434,0Z" fill="#fff"/><path d="M624.51484,21.79846a4.85468,4.85468,0,0,1-.64454-.043,4.68332,4.68332,0,0,1-.68457-.145,4.57289,4.57289,0,0,1-.69433-.26563,4.144,4.144,0,0,1-2.38574-3.76172l.10937-9.72558a4.30026,4.30026,0,0,1,3.293-4.2461,4.16542,4.16542,0,0,1,.94629-.11132,4.26289,4.26289,0,0,1,4.21484,4.397l.00684,3.605.26074-.001a4.27274,4.27274,0,0,1,4.41211,4.22705v1.79444a4.27469,4.27469,0,0,1-4.39746,4.23925S624.5246,21.79846,624.51484,21.79846Z"/><path d="M624.45411,7h.005m-.005,0-.00007.00012c.47181,0,.71521.4.71521.897l.01215,6.40064c0,.47132.40051.71528.897.71528l2.873-.01216c.4975,0,.897.256.897.72736v1.79414c0,.4713-.39953.73944-.897.73944l-4.43683.03636a1.39916,1.39916,0,0,1-.18182-.01208,1.204,1.204,0,0,1-.16974-.03638,1.04377,1.04377,0,0,1-.15753-.06066.64354.64354,0,0,1-.40009-.60608l.10913-9.68592a.81616.81616,0,0,1,.56977-.8728A.76787.76787,0,0,1,624.45411,7m.005-7h-.01645a7.67436,7.67436,0,0,0-1.7211.201,7.79107,7.79107,0,0,0-6.00677,7.6389l-.10889,9.66428-.00043.07886a7.618,7.618,0,0,0,4.38861,6.92518,8.04288,8.04288,0,0,0,1.25324.4743,8.25179,8.25179,0,0,0,1.16888.24336,8.43966,8.43966,0,0,0,1.09845.07236l.05738-.00024,4.41809-.03621a7.73487,7.73487,0,0,0,7.85839-7.73935V15.72827a7.63369,7.63369,0,0,0-4.67782-7.08052l-.00147-.76388A7.72306,7.72306,0,0,0,624.62693.002c-.05585-.00132-.11167-.002-.16782-.002Zm-.005,14h0Z" fill="#fff"/><path d="M652.95429,21.798a4.18156,4.18156,0,0,1-3.34961-1.65967,4.55019,4.55019,0,0,1-.87793-2.73731l.0293-3.916A4.17993,4.17993,0,0,1,645.842,9.50939V7.7882a4.1906,4.1906,0,0,1,2.32422-3.75586,4.57788,4.57788,0,0,1,.7002-.27929,4.71468,4.71468,0,0,1,1.38476-.20459h5.4668a4.27478,4.27478,0,0,1,4.39746,4.23974V9.50939a4.18,4.18,0,0,1-2.92187,3.981V17.401a4.32609,4.32609,0,0,1-3.30371,4.29737A4.0865,4.0865,0,0,1,652.95429,21.798Z"/><path d="M655.71808,7.04853c.497,0,.8971.26818.8971.73944V9.50941c0,.4713-.40009.7152-.8971.7152H654.5907a1.40269,1.40269,0,0,0-.18182.01208.71921.71921,0,0,0-.71521.70314v6.46124a.83915.83915,0,0,1-.58185.88494.67285.67285,0,0,1-.15759.01208.77445.77445,0,0,1-.16974-.01208.61022.61022,0,0,1-.26672-.13336.71607.71607,0,0,1-.10907-.10908,1.08814,1.08814,0,0,1-.18189-.6425l.0484-6.46124c0-.47132-.40051-.71522-.897-.71522H650.2508c-.497,0-.90918-.244-.90918-.71528V7.788a.68459.68459,0,0,1,.4-.63038,1.01444,1.01444,0,0,1,.15759-.06066,1.21662,1.21662,0,0,1,.35157-.0484h5.46728m0-7h-5.46716a8.20206,8.20206,0,0,0-2.38718.35088,8.03784,8.03784,0,0,0-1.27969.5108A7.67331,7.67331,0,0,0,642.34162,7.788V9.50933a7.59467,7.59467,0,0,0,2.89908,6.01327l-.01368,1.826-.00021.05244a8.00848,8.00848,0,0,0,1.56067,4.814,7.61564,7.61564,0,0,0,6.16675,3.083,7.53741,7.53741,0,0,0,1.7113-.18668,7.80828,7.80828,0,0,0,6.02814-7.71034V15.54373a7.59847,7.59847,0,0,0,2.92151-6.03432V7.788a7.73625,7.73625,0,0,0-7.8971-7.73944Z" fill="#fff"/><path d="M643.97089,21.798c-.1084,0-.21582-.00489-.32129-.01465l-1.23437-.00928a4.71513,4.71513,0,0,1-.64454-.04687,4.59163,4.59163,0,0,1-.71289-.15821,4.27547,4.27547,0,0,1-2.04882-1.36523,4.13755,4.13755,0,0,1-.96289-2.66943l.04882-9.8125a4.27169,4.27169,0,0,1,4.40918-4.20948l5.27344.03614A4.27462,4.27462,0,0,1,652.1623,7.7882V9.50939a4.188,4.188,0,0,1-3.07911,4.02735,4.199,4.199,0,0,1-.07128,8.07959,4.65274,4.65274,0,0,1-.69141.14257,4.77022,4.77022,0,0,1-.61621.03907Z"/><path d="M642.50434,7.01208l5.249.03638c.497,0,.90912.2682.90912.7395V9.50934c0,.47132-.41211.7152-.90912.7152h-3.68524c-.497,0-.897.2439-.897.71522l-.06067,5.16418a.78938.78938,0,0,0,.86065.75152v-.02422h3.73371a.7978.7978,0,0,1,.897.75152.67334.67334,0,0,1-.54547.66676,1.18122,1.18122,0,0,1-.16974.03636,1.43066,1.43066,0,0,1-.18182.01216h-3.73371v-.01216l-1.5274-.01208a1.29161,1.29161,0,0,1-.18183-.01208,1.13862,1.13862,0,0,1-.16973-.03638.799.799,0,0,1-.38794-.25458.66306.66306,0,0,1-.1576-.4364l.0484-9.79492c0-.47126.41224-.7273.90925-.7273l.00012-.00006m-.00083-7A7.737,7.737,0,0,0,634.595,7.73944l-.04834,9.76034a7.7327,7.7327,0,0,0,5.50641,7.422,8.18555,8.18555,0,0,0,1.22715.27076,8.26828,8.26828,0,0,0,1.12429.08116l1.0954.00867q.23355.01559.47119.01567h3.73371a8.45779,8.45779,0,0,0,1.07461-.06932,8.2609,8.2609,0,0,0,1.19968-.24844,7.71908,7.71908,0,0,0,4.5256-11.39572,7.63426,7.63426,0,0,0,1.15781-4.07522V7.788a7.74242,7.74242,0,0,0-7.90912-7.7395l-5.2005-.03622-.04935-.00016Z" fill="#fff"/><path d="M613.76288,21.774a4.74623,4.74623,0,0,1-.66113-.04687,4.65942,4.65942,0,0,1-.68457-.14893,4.34377,4.34377,0,0,1-2.0791-1.36133,4.15185,4.15185,0,0,1-.97266-2.68261l.06055-4.688a4.1342,4.1342,0,0,1,2.582-3.80811V7.84875a4.11978,4.11978,0,0,1,.46-1.90235,4.04859,4.04859,0,0,1,.54-.812,4.39585,4.39585,0,0,1,3.39746-1.501H621.048a4.27478,4.27478,0,0,1,4.39746,4.23974,4.12755,4.12755,0,0,1-.85254,2.53076,4.2057,4.2057,0,0,1,.15625,4.85352,4.17114,4.17114,0,0,1,.69629,2.32568,4.26342,4.26342,0,0,1-4.39746,4.21534Z"/><path d="M616.40516,7.13337h.005m-.005,0-.00007.00018H621.048c.4975,0,.89709.26812.89709.73944,0,.47082-.39959.72736-.89709.72736h-1.20014c-.497,0-.897.256-.897.72734l-.06067,2.1214a.69639.69639,0,0,0,.15759.44856.85623.85623,0,0,0,.55762.2788,1.31953,1.31953,0,0,0,.18182.01208l1.26075.01216a1.29076,1.29076,0,0,1,.18182.01208.74286.74286,0,0,1,.71521.72736.68578.68578,0,0,1-.54547.67882,1.18327,1.18327,0,0,1-.16974.03638,1.42118,1.42118,0,0,1-.18182.01216l-5.64911-.01216c-.49652,0-.90912.244-.90912.71528l-.04846,1.73346a.79794.79794,0,0,0,.89709.75164l5.70966-.02428a.79734.79734,0,0,1,.89709.75158c0,.47126-.39959.7152-.89709.7152l-7.27344-.02428a1.29136,1.29136,0,0,1-.18182-.01208,1.15027,1.15027,0,0,1-.16974-.03638.83515.83515,0,0,1-.4-.25458.6631.6631,0,0,1-.15759-.4364l.06067-4.64294c0-.47108.40051-.71522.897-.71522l.96979-.0243c.47186,0,.71527-.40038.71527-.897V7.84857a.64548.64548,0,0,1,.07269-.303.69625.69625,0,0,1,.0849-.13336.95128.95128,0,0,1,.73945-.2788m.005-7h-.005a7.94023,7.94023,0,0,0-6.04541,2.713,7.72407,7.72407,0,0,0-1.81666,4.262,7.59713,7.59713,0,0,0-2.61679,5.71632L605.866,17.443q-.00064.04575-.00061.09148a7.69773,7.69773,0,0,0,1.77506,4.9117,7.80792,7.80792,0,0,0,3.7449,2.47614,8.177,8.177,0,0,0,1.2095.268,8.34188,8.34188,0,0,0,1.17972.08358l7.25006.02424a7.73028,7.73028,0,0,0,7.92047-7.71516,7.84535,7.84535,0,0,0-.34912-2.32887,7.82789,7.82789,0,0,0-.07135-4.84195A7.76007,7.76007,0,0,0,621.048.13355h-4.58744l-.05038-.00018Zm-.005,14h0Z" fill="#fff"/><path d="M694.32441,21.774a4.4231,4.4231,0,0,1-3.41211-1.561,4.14693,4.14693,0,0,1-.96973-2.67871l.06055-9.81641a4.12677,4.12677,0,0,1,.43359-1.86524,4.37847,4.37847,0,0,1,3.96387-2.34033l5.27344.03614a4.27461,4.27461,0,0,1,4.38476,4.23974V9.50939a4.18988,4.18988,0,0,1-3.085,4.0293,4.211,4.211,0,0,1,3.02441,4.04443,4.26332,4.26332,0,0,1-4.39746,4.21485C699.59589,21.798,694.32441,21.774,694.32441,21.774Z"/><path d="M694.40033,7.01214l5.2489.03638c.49708,0,.90925.2682.90925.7395V9.5094c0,.47132-.41224.7152-.90925.7152H695.964c-.497,0-.897.244-.897.71522l-.06055,5.16418a.80889.80889,0,0,0,.90918.75158l3.68524-.02422a.79781.79781,0,0,1,.897.75152c0,.47168-.40052.71522-.897.71522l-5.26117-.02424a.94267.94267,0,0,1-.73944-.3031.66341.66341,0,0,1-.15759-.4364l.06061-9.79492a.69451.69451,0,0,1,.06061-.31512.90041.90041,0,0,1,.83648-.41218m0-7a7.85422,7.85422,0,0,0-7.07708,4.24122,7.61913,7.61913,0,0,0-.82,3.48608l-.06049,9.75162a7.72666,7.72666,0,0,0,1.774,4.9539,7.9169,7.9169,0,0,0,6.12286,2.8289l5.22889.02416a7.74248,7.74248,0,0,0,6.83215-11.71344,7.63448,7.63448,0,0,0,1.15778-4.07518V7.788a7.74251,7.74251,0,0,0-7.90925-7.7395L694.44886.0123l-.04853-.00016Z" fill="#fff"/><path d="M701.88007,21.798a4.55853,4.55853,0,0,1-2.78711-.92823,4.19715,4.19715,0,0,1-.13281-6.50048,4.18845,4.18845,0,0,1-.31348-1.59913l-.06055-4.90283A4.25728,4.25728,0,0,1,702.30683,3.632a4.9722,4.9722,0,0,1,.67676-.04687l5.29687-.03662A4.27536,4.27536,0,0,1,712.70234,7.776a4.16961,4.16961,0,0,1-.53711,2.061,4.10843,4.10843,0,0,1,1.167,2.88477l-.06055,4.90429a4.107,4.107,0,0,1-1.67969,3.30029,4.5126,4.5126,0,0,1-2.71679.87159Z"/><path d="M708.30512,7.0484c.497,0,.897.256.897.72736s-.4.73944-.897.73944l-3.74585-.01208c-.49756,0-.90924.26862-.90924.73944l.06067,2.0487c0,.4715.40008.71522.89709.71522h4.31555c.49707,0,.90924.2442.90924.71526l-.0606,4.86108a.63823.63823,0,0,1-.26673.5334,1.04949,1.04949,0,0,1-.63031.18181h-6.99463a1.05276,1.05276,0,0,1-.64251-.194.6601.6601,0,0,1-.25452-.54552.72917.72917,0,0,1,.71521-.71522,1.43451,1.43451,0,0,1,.18182-.01208l3.70948-.01214a1.39841,1.39841,0,0,0,.18182-.0121,1.20988,1.20988,0,0,0,.16974-.02429.73244.73244,0,0,0,.47278-.36365.69679.69679,0,0,0,.07269-.31519l.06061-1.80627a.79787.79787,0,0,0-.8971-.75158l-2.60632-.0484c-.49652,0-.897-.25592-.897-.72736l-.06061-4.94592a.7436.7436,0,0,1,.71521-.72736,1.32041,1.32041,0,0,1,.18188-.01208l5.32172-.03638-.00006-.00012m0-7-.048.00016-5.32165.0365h-.003a8.16,8.16,0,0,0-1.09992.07932,7.72563,7.72563,0,0,0-6.74615,7.66l.00049.08578.06036,4.92415q.00239.3.02673.59412a7.7286,7.7286,0,0,0,1.76258,10.19829,8.07249,8.07249,0,0,0,4.94378,1.67135h6.99463a7.98824,7.98824,0,0,0,4.80573-1.56345,7.5935,7.5935,0,0,0,3.09106-6.08612L716.832,12.809l.00054-.08726a7.67512,7.67512,0,0,0-.78161-3.4,7.90719,7.90719,0,0,0,.15118-1.54593,7.73045,7.73045,0,0,0-7.897-7.72736Z" fill="#fff"/><path d="M659.49823,21.87365c-.14746,0-.29687-.00439-.45019-.01025l-.21681-.00586c-.03221.001-.15624.00244-.18944.00244a4.92766,4.92766,0,0,1-1.82227-.33106,4.42813,4.42813,0,0,1-2.19726-1.86962,4.19135,4.19135,0,0,1-.53028-1.47461,4.798,4.798,0,0,1-.05078-1.00879c.00586-.10791.0293-.36573.0293-.36573a.78439.78439,0,0,1,.00293.08106c-.0293-2.02051-.00781-4.04883.01269-6.01026q.01318-1.21947.02247-2.436V7.73937a4.23352,4.23352,0,0,1,3.76855-4.18506,5.04712,5.04712,0,0,1,.64063-.042h5.66113a4.269,4.269,0,0,1,4.39746,4.22705s.00391,1.126.00781,2.18213a4.31061,4.31061,0,0,1,1.56836,3.38233V17.4132a4.32607,4.32607,0,0,1-3.30566,4.29785,4.23913,4.23913,0,0,1-3.89942-1.13232,4.53987,4.53987,0,0,1-2.39843,1.20166,5.89351,5.89351,0,0,1-.7461.08691Q659.65058,21.8739,659.49823,21.87365Z"/><path d="M664.17914,7.01208c.49652,0,.897.25605.897.72737,0,0,.01214,3.26829.01214,3.89128a.37128.37128,0,0,0,.1333.291,1.6223,1.6223,0,0,0,.35156.2182c.45887.22871,1.07892.45747,1.07892,1.16377v4.1095a.839.839,0,0,1-.58191.88494.78363.78363,0,0,1-.16973.0121c-.47132,0-.71521-.4-.71521-.897l-.03638-2.99427c0-.47126-.4-.73943-.897-.73943h-2.42449c-.49659,0-.8971.26817-.8971.73943l-.12122,3.18823a1.08357,1.08357,0,0,1-.8728.72736,2.31727,2.31727,0,0,1-.291.03638c-.04831.00213-.097.003-.14624.003-.215,0-.43851-.0166-.671-.0166q-.05774,0-.11618.00151-.03617.001-.07239.001a1.44947,1.44947,0,0,1-.53369-.0859.94037.94037,0,0,1-.47278-.4.67371.67371,0,0,1-.0849-.24244,1.31363,1.31363,0,0,1-.01209-.26672c.00891-.18066.039-.36262.03638-.53338-.04022-2.78322.019-5.58112.03638-8.36452.002-.24536-.00061-.482,0-.72734a.73989.73989,0,0,1,.72741-.71522,1.43467,1.43467,0,0,1,.18183-.01208V7.01208h5.66119m-4.121,5.17633h2.56995c.49658,0,.90918-.26818.90918-.73944l-.06067-2.1093c0-.47084-.4-.71522-.897-.71522h-2.473c-.497,0-.897.24438-.897.71522l-.0484,2.1093c0,.47126.4.73944.897.73944m4.121-12.17633H658.518A8.49819,8.49819,0,0,0,657.44657.081a7.70466,7.70466,0,0,0-6.83786,7.65846l.00036.32039-.00015.351c-.00516.82484-.01385,1.63872-.02255,2.45312-.02017,1.88781-.041,3.837-.017,5.7929-.0108.12757-.01916.24562-.025.36338a8.29308,8.29308,0,0,0,.08725,1.6901,7.67,7.67,0,0,0,.98138,2.73577,7.8865,7.8865,0,0,0,3.9093,3.33358,8.40643,8.40643,0,0,0,3.117.58q.0996,0,.19922-.00206l.07827.00327c.19779.00734.39182.01288.58213.01288q.23007,0,.456-.00986a9.25323,9.25323,0,0,0,1.20374-.1371,8.344,8.344,0,0,0,1.7518-.5107,7.71326,7.71326,0,0,0,2.98993.594,7.60331,7.60331,0,0,0,1.718-.18546,7.81011,7.81011,0,0,0,6.03369-7.71158v-4.1095a7.97875,7.97875,0,0,0-1.57293-4.74916c-.00174-.49217-.003-.841-.003-.841a7.7251,7.7251,0,0,0-7.897-7.70137Z" fill="#fff"/><path d="M587.69843,21.798a4.15437,4.15437,0,0,1-3.18945-1.47071,4.11087,4.11087,0,0,1-3.18653,1.47071,4.269,4.269,0,0,1-4.22754-4.397l.0293-3.916a4.17993,4.17993,0,0,1-2.91406-3.97559V7.7882a4.28074,4.28074,0,0,1,4.40918-4.23974h11.7832A4.27455,4.27455,0,0,1,594.799,7.7882V9.50939a4.17855,4.17855,0,0,1-2.91407,3.97852l.0293,3.88672a4.27187,4.27187,0,0,1-3.25781,4.32177A4.19664,4.19664,0,0,1,587.69843,21.798Z"/><path d="M590.4021,7.04853c.4972,0,.897.26818.897.73944V9.50941c0,.4713-.39984.7152-.897.7152h-1.12738a1.402,1.402,0,0,0-.18182.01208.72993.72993,0,0,0-.72736.70314l.0484,6.46124a.81919.81919,0,0,1-.54553.88494.7776.7776,0,0,1-.16968.01208c-.47149,0-.7395-.4002-.7395-.897V10.93983c0-.47132-.40057-.71522-.897-.71522h-3.10333a1.40284,1.40284,0,0,0-.18183.01208.71872.71872,0,0,0-.71521.70314v6.46124a.83905.83905,0,0,1-.58191.88494.67259.67259,0,0,1-.15759.01208c-.47162,0-.72736-.4002-.72736-.897l.04853-6.46124c0-.47132-.40064-.71522-.8971-.71522H578.619c-.49719,0-.90918-.244-.90918-.71528V7.788c0-.47132.412-.73944.90918-.73944H590.4021m0-7h-11.783A7.74247,7.74247,0,0,0,570.70984,7.788V9.50933a7.5946,7.5946,0,0,0,2.899,6.01324l-.01373,1.82594-.00019.05256a7.73043,7.73043,0,0,0,7.72736,7.897,7.5364,7.5364,0,0,0,1.71243-.18694,7.70214,7.70214,0,0,0,1.46686-.493,7.74312,7.74312,0,0,0,3.19711.67991,7.59218,7.59218,0,0,0,1.74216-.191,7.79582,7.79582,0,0,0,5.97305-7.706l-.00018-.05244-.01367-1.82253a7.59839,7.59839,0,0,0,2.899-6.01669V7.788a7.73622,7.73622,0,0,0-7.897-7.73944Z" fill="#fff"/><path d="M574.95527,21.8551a8.8009,8.8009,0,0,1-1.64551-.11622,5.02878,5.02878,0,0,1-.94532-.27441,4.15065,4.15065,0,0,1-2.01464-1.65088,4.22428,4.22428,0,0,1-1.63086,1.54053,4.03711,4.03711,0,0,1-.998.3623,4.12331,4.12331,0,0,1-.90918.09375l-1.85352-.0122a4.17608,4.17608,0,0,1-3.99511-3.04639c-.08008.00293-.15137.00391-.21289.00391H559.1623a4.36219,4.36219,0,0,1-.44043-.02246,4.24175,4.24175,0,0,1-3.09864,2.91748,4.04018,4.04018,0,0,1-.93457.09912,4.26818,4.26818,0,0,1-4.22656-4.397L550.51,9.26574s-.04785-1.46338-.04785-1.50195a4.28636,4.28636,0,0,1,4.40918-4.25147h3.17578a4.48975,4.48975,0,0,1,2.85352.99219,4.04408,4.04408,0,0,1,2.6748-.956h1.69727a4.04738,4.04738,0,0,1,2.64648.95556,4.33223,4.33223,0,0,1,2.82031-.9917h4.80079a4.26875,4.26875,0,0,1,4.39648,4.22705l-.02441,9.90088a4.02626,4.02626,0,0,1-1.19825,2.853,4.81127,4.81127,0,0,1-3.34375,1.36621C575.33905,21.85949,574.95527,21.8551,574.95527,21.8551Z"/><path d="M554.871,7.01215l.00024.00018h3.17609a.79724.79724,0,0,1,.897.75158s.92072,5.05256.98193,5.37024a.21281.21281,0,0,0,.21488.19686.28172.28172,0,0,0,.0397-.00288.35506.35506,0,0,0,.15753-.07276.44327.44327,0,0,0,.13336-.1455c.11915-.2273,2.12146-5.16414,2.12146-5.16414.33674-.58142.51062-.89708.98194-.89708h1.69714c.47119,0,.67883.46068.67883.9577,0,0,.01209,7.44012.01209,7.80682,0,.17927.134.24431.27924.24431a.54972.54972,0,0,0,.12085-.014.482.482,0,0,0,.1939-.0849.16889.16889,0,0,0,.04847-.06066c.07952-.1814,3.23669-8.15838,3.23669-8.15838a.86075.86075,0,0,1,.897-.72736h4.80054c.49664,0,.897.256.897.72736l-.02429,9.8919c.00073.45325-.6246.72763-1.042.72763l-.02475-.00033a9.73466,9.73466,0,0,1-1.3941-.06068,1.56106,1.56106,0,0,1-.291-.08484.5917.5917,0,0,1-.42425-.60614l-.12122-3.18816c0-.47132-.3999-.7395-.89709-.7395h-2.26691c-.37561.00854-.67468.30646-.897.7395l-1.36982,2.9942c-.2337.41132-.34216.712-.58191.83642a.54562.54562,0,0,1-.13336.04852.72311.72311,0,0,1-.15759.01208l-1.83045-.01208c-.47161,0-.71527-.4124-.71527-.90918l-.02423-.9577V9.92145a.27215.27215,0,0,0-.27832-.28953.38149.38149,0,0,0-.34.24113c-.0763.16582-1.9032,4.53374-1.9032,4.53374-.23029.44588-.43567.764-.80011.8365a.914.914,0,0,1-.16974.01208h-1.588c-.47107,0-.71521-.4-.71521-.897l-.60614-3.40642c0-.47132-.40045-.73944-.8971-.73944h-.61822c-.49646,0-.897.26812-.897.73944v6.40062a.83919.83919,0,0,1-.58191.885.67259.67259,0,0,1-.15759.01208c-.47107,0-.72735-.4002-.72735-.897l.04846-8.13414-.04846-1.45466a.80826.80826,0,0,1,.90918-.75158m16.16,5.17626h2.97c.49683,0,.89709-.26818.89709-.73944l-.06066-2.10932c0-.47082-.40064-.7152-.8971-.7152h-2.00012c-.49664,0-.65534.304-.8971.7152l-.83642,1.879c-.06195.24078-.1955.9552.82434.96978M554.871.01215a7.74824,7.74824,0,0,0-7.90918,7.75158q0,.11655.00387.23306l.04389,1.31724-.04764,7.9968a7.74041,7.74041,0,0,0,7.72723,7.93874,7.53571,7.53571,0,0,0,1.713-.18708,7.6433,7.6433,0,0,0,3.4068-1.75757,7.59972,7.59972,0,0,0,5.17227,1.99317l1.78425.01192h.00259a7.74459,7.74459,0,0,0,1.723-.17934,7.52934,7.52934,0,0,0,1.846-.67318l.074-.03892q.32341.16416.66675.30066a8.55557,8.55557,0,0,0,1.59918.4618,12.10762,12.10762,0,0,0,2.27878.17416l.20154.001c.05808.00144.1553.00286.21341.00286a8.27,8.27,0,0,0,5.81955-2.39268,7.50744,7.50744,0,0,0,2.22244-5.34606l.02426-9.86358a7.734,7.734,0,0,0-7.897-7.74456h-4.80054A8.06485,8.06485,0,0,0,567.91193.514a7.62129,7.62129,0,0,0-2.63965-.46535h-1.69714a7.72482,7.72482,0,0,0-2.67642.46618,8.21325,8.21325,0,0,0-2.85141-.5025h-3.17609L554.871.01215Z" fill="#fff"/><path d="M669.21015,21.774a4.55576,4.55576,0,0,1-2.0791-.4873,4.262,4.262,0,0,1-.69434-.439,4.17286,4.17286,0,0,1-1.624-3.31347l.04883-9.8125a4.22946,4.22946,0,0,1,3.76855-4.16749,5.00106,5.00106,0,0,1,.64062-.042h6.13379a4.269,4.269,0,0,1,4.39746,4.22705l.04786,9.77784a4.2779,4.2779,0,0,1-4.39649,4.25683Z"/><path d="M675.40461,7.01209c.497,0,.89709.25605.89709.72734l.0484,9.79493c0,.47107-.40051.7395-.89709.7395H669.21a1.09261,1.09261,0,0,1-.497-.10913.82764.82764,0,0,1-.13331-.08483.66885.66885,0,0,1-.26672-.54554l.0484-9.79493a.74021.74021,0,0,1,.72736-.71519,1.43229,1.43229,0,0,1,.18182-.01209l.00018-.00006h6.13392M670.653,15.25537h3.35791c.49652,0,.89709-.2682.89709-.73943l-.0484-5.17629c0-.47081-.40057-.71519-.89709-.71519h-3.261c-.49609,0-.89709.24438-.89709.71519l-.04847,5.17629c0,.47123.40052.73943.897.73943M675.40461.01209h-6.13392a8.50137,8.50137,0,0,0-1.07418.06922,7.7044,7.7044,0,0,0-6.83518,7.65812l-.04831,9.76034a7.65816,7.65816,0,0,0,2.97031,6.10658,7.86346,7.86346,0,0,0,1.273.80626,8.14217,8.14217,0,0,0,3.65359.86125h6.243a7.73629,7.73629,0,0,0,7.89709-7.7395l-.04846-9.8295a7.72333,7.72333,0,0,0-7.897-7.69277Z" fill="#fff"/><path d="M678.799,21.74963a4.05825,4.05825,0,0,1-.96094-.10547,4.31728,4.31728,0,0,1-3.25489-4.29151l.04883-8.08593s-.04883-1.46387-.04883-1.50293a4.20251,4.20251,0,0,1,2.31934-3.76514,4.51061,4.51061,0,0,1,1.40527-.43994,4.95,4.95,0,0,1,.67286-.04639h6.24316A4.28636,4.28636,0,0,1,689.633,7.76379l-.0127,2.49121.0127,7.06689a4.32771,4.32771,0,0,1-3.30762,4.30469,4.22738,4.22738,0,0,1-4.21191-1.49072,4.11442,4.11442,0,0,1-3.31445,1.61377Z"/><path d="M685.2237,7.01209a.80836.80836,0,0,1,.90918.75158l-.01209,2.473.01209,7.09156a.839.839,0,0,1-.58191.88494.78085.78085,0,0,1-.16968.01216c-.4704,0-.71527-.40028-.71527-.8971l-.03638-6.3764c0-.47132-.39953-.73944-.897-.73944h-3.28516c-.49609,0-.89709.26812-.89709.73944v6.40062a.83953.83953,0,0,1-.58185.885.78557.78557,0,0,1-.16974.01208.66973.66973,0,0,1-.15759-.01208.82751.82751,0,0,1-.55762-.885l.0484-8.13408-.0484-1.45472a.70265.70265,0,0,1,.4-.64246.99565.99565,0,0,1,.31518-.097,1.31827,1.31827,0,0,1,.18182-.01208l.00007-.00006h6.243m0-7h-6.243a8.37526,8.37526,0,0,0-1.15189.07968,8.01585,8.01585,0,0,0-2.50284.7821,7.68485,7.68485,0,0,0-4.24237,6.8898q0,.1164.00388.23276l.04382,1.31722-.04758,7.99716a7.81492,7.81492,0,0,0,5.9812,7.7469,7.99028,7.99028,0,0,0,3.44938.007,4.664,4.664,0,0,1,4.867.16066,7.60031,7.60031,0,0,0,1.72339-.18676,7.808,7.808,0,0,0,6.0282-7.71034l-.01209-7.10348.012-2.4269A7.75533,7.75533,0,0,0,685.2237.01209Z" fill="#fff"/><path d="M688.14472,21.774a4.80047,4.80047,0,0,1-2.00293-.4331,4.4913,4.4913,0,0,1-.667-.38282,4.12043,4.12043,0,0,1-1.81153-3.42382V15.8131a4.12922,4.12922,0,0,1,2.12891-3.60693l-.03125-4.25879a5.05837,5.05837,0,0,1,.042-.6709,4.60041,4.60041,0,0,1,.41016-1.37793A4.14986,4.14986,0,0,1,689.98749,3.524a4.27489,4.27489,0,0,1,4.24024,4.39746v4.82129a4.17293,4.17293,0,0,1,1.21582,2.32178,4.56544,4.56544,0,0,1,.05664.74853v1.7212a4.27478,4.27478,0,0,1-4.39746,4.23974Z"/><path d="M689.98774,7.02423c.4718,0,.7395.4.7395.8971v6.46124c0,.38116.1192.54486.29089.63038a1.24843,1.24843,0,0,0,.33942.097c.27972.04987.56488.10157.63037.50917a1.20487,1.20487,0,0,1,.01214.194v1.72138c0,.47124-.40057.73943-.89709.73943h-2.95789a1.30082,1.30082,0,0,1-.53338-.10907.9569.9569,0,0,1-.14545-.0849.65079.65079,0,0,1-.3031-.54546V15.81305c0-.47132.48541-.71526.98193-.71526h.33942c.04144,0,.08337.00344.12341.00344a.433.433,0,0,0,.05841-.00344.99279.99279,0,0,0,.1576-.03638.65847.65847,0,0,0,.48492-.67884l-.0484-6.46124a1.40089,1.40089,0,0,1,.01209-.18188,1.11372,1.11372,0,0,1,.097-.32728.65024.65024,0,0,1,.61823-.38794m0-7a7.62149,7.62149,0,0,0-6.93738,4.37653,8.07651,8.07651,0,0,0-.71784,2.42395,8.44349,8.44349,0,0,0-.07208,1.09662l.00018.05244.01917,2.55557a7.56063,7.56063,0,0,0-2.11664,5.28371v1.72138a7.67518,7.67518,0,0,0,3.31238,6.29646,7.989,7.989,0,0,0,1.20709.6916,8.33,8.33,0,0,0,3.46246.75137H691.103a7.73624,7.73624,0,0,0,7.89709-7.73943V15.81305a8.12464,8.12464,0,0,0-.10278-1.31664,7.73387,7.73387,0,0,0-1.17-3.0041v-3.571a7.7363,7.7363,0,0,0-7.7395-7.8971Z" fill="#fff"/><path d="M462.62226,75.76574c-.458,0-.93213-.02441-1.4917-.07715A14.97778,14.97778,0,0,1,447.44648,60.4464c0-3.23828.10254-35.24218.10254-35.24218a3.5,3.5,0,0,1,3.5-3.48877h15.0288a3.49985,3.49985,0,0,1,3.5,3.5V61.38781c0,.47559.46973.52734.67139.52734h6.46094a3.50018,3.50018,0,0,1,3.5,3.5v6.85059a3.50017,3.50017,0,0,1-3.5,3.5Z"/><path d="M466.0777,25.21563V61.38734a4.02964,4.02964,0,0,0,4.17127,4.02813h6.46142v6.85H462.62207c-.39508,0-.77893-.02466-1.16552-.06134a11.47238,11.47238,0,0,1-10.51-11.75734c0-3.23777.10223-35.23114.10223-35.23114H466.0777m0-7H451.04877a7,7,0,0,0-7,6.97764c-.00418,1.30679-.10226,32.04148-.10226,35.2535a18.42006,18.42006,0,0,0,16.84964,18.72611c.66525.06314,1.24572.09257,1.82589.09257h14.08832a7,7,0,0,0,7-7v-6.85a7,7,0,0,0-7-7H473.0777V25.21563a7,7,0,0,0-7-7Z" fill="#fff"/><path d="M543.55292,36.649a3.5,3.5,0,0,1-3.5-3.5c0-3.23877.09863-7.93262.10352-8.13086a3.49926,3.49926,0,0,1,3.499-3.42529h15.0293a3.50017,3.50017,0,0,1,3.5,3.5v8.01562a3.5003,3.5003,0,0,1-3.49024,3.5Z"/><path d="M558.68439,25.093v8.01538l-15.13116.04089c0-3.239.10223-8.05627.10223-8.05627h15.02893m0-7H543.65546a7,7,0,0,0-6.99841,6.85145c-.00424.19975-.10382,4.92919-.10382,8.20482a7,7,0,0,0,7,7l.01892,0,15.13116-.0409a7,7,0,0,0,6.98108-7V25.093a7,7,0,0,0-7-7Z" fill="#fff"/><path d="M290.16718,75.8673a3.5,3.5,0,0,1-3.5-3.5c0-3.2373.12305-57.50586.12305-57.50586a3.50007,3.50007,0,0,1,3.5-3.49218H305.319a3.49985,3.49985,0,0,1,3.5,3.5V72.3468a3.50038,3.50038,0,0,1-3.49511,3.5Z"/><path d="M305.319,14.8692v57.478l-15.15157.02045c0-3.2381.12268-57.49848.12268-57.49848H305.319m0-7H290.2901a7,7,0,0,0-7,6.98417c-.00124.54269-.12271,54.30543-.12271,57.51431a7,7,0,0,0,7,7h.00944l15.15156-.02045a7,7,0,0,0,6.99056-7V14.8692a7,7,0,0,0-7-7Z" fill="#fff"/><path d="M543.5539,75.8673a3.49923,3.49923,0,0,1-3.5-3.5c0-3.15136.09668-34.53711.10156-36.21435a3.56041,3.56041,0,0,1,3.5-3.55908h15.0293a3.50017,3.50017,0,0,1,3.5,3.5V72.3468a3.50071,3.50071,0,0,1-3.49512,3.5Z"/><path d="M558.68464,36.09382V72.34723l-15.13117.02037c0-3.23791.10223-36.2711.10223-36.27378h15.02894m0-7H543.6557a7.00024,7.00024,0,0,0-7,6.97913l-.00022.07544c-.01047,3.38393-.10205,33.14956-.10205,36.21921a7,7,0,0,0,7,7h.00943l15.1312-.02037a7,7,0,0,0,6.99057-7V36.09382a7,7,0,0,0-7-7Z" fill="#fff"/><path d="M343.96943,76.62023c-3.03467,0-6.04786-1.31543-7.499-3.27246-.376-.50781-2.88867-4.30762-8.53271-12.85644-1.69629-2.56836-3.5708-5.40723-5.19385-7.86036V71.632a3.50017,3.50017,0,0,1-3.5,3.5h-7.811a3.49976,3.49976,0,0,1-3.5-3.49512c-.00048-.33007-.04736-33.04882-.0205-38.62744.03711-7.62988,6.01709-11.105,11.55761-11.105a11.3404,11.3404,0,0,1,8.71729,3.562c2.22314,2.66016,6.57226,8.67237,9.90576,13.35791V25.318a3.49985,3.49985,0,0,1,3.5-3.5h7.811a3.50047,3.50047,0,0,1,3.25732,2.21923L372.0788,11.653a3.50008,3.50008,0,0,1,5.38232,2.95068l.00049,7.13233h7.562a3.49985,3.49985,0,0,1,3.5,3.5v5.88916a3.49952,3.49952,0,0,1-3.45654,3.49951s-4.86133.06054-7.20166.06152a.28154.28154,0,0,0-.021.05615l.00537,26.64453c0,.46.40771.52832.65088.52832h6.48193a3.50018,3.50018,0,0,1,3.5,3.5v6.85059a3.50017,3.50017,0,0,1-3.5,3.5H370.89423a15.331,15.331,0,0,1-15.666-15.31934c0-2.47656.07569-18.61425.1084-25.06494H352.906s.01855,27.63916.01855,31.1792C352.9245,73.98547,348.10028,76.62023,343.96943,76.62023Z"/><path d="M373.96143,14.60335V23.866a1.33649,1.33649,0,0,0,1.37,1.36992h9.69214v5.88892s-4.91475.06129-7.21795.06129A3.50376,3.50376,0,0,0,374.35,34.66224v26.725a4.01239,4.01239,0,0,0,4.15086,4.02819h6.48183v6.84992H370.89435a11.90453,11.90453,0,0,1-12.16627-11.81866c0-3.13629.11616-26.91053.12269-27.66547a3.678,3.678,0,0,0-1.81982-.89966h-7.62689c.00407,9.96918.0204,28.44124.0204,34.679,0,4.98787-2.769,6.55967-5.4551,6.55967a6.29966,6.29966,0,0,1-4.68689-1.8568c-.75373-1.01813-17.48559-26.49542-17.87115-26.92931a2.4165,2.4165,0,0,0-1.51949-.90591c-.37538,0-.64793.26559-.64793.9468V71.63153h-7.811s-.04822-32.97332-.02045-38.605c.02612-5.44767,4.15144-7.62248,8.05722-7.62207a8.03532,8.03532,0,0,1,6.0311,2.30572c3.76867,4.50964,14.1701,19.42516,14.1701,19.42516a1.24375,1.24375,0,0,0,.98567.66039.996.996,0,0,0,.93638-.86486v-21.613h7.811s-.00066,1.91918,0,4.94832L373.96137,14.6034l.00006,0m.0003-7a6.996,6.996,0,0,0-3.76449,1.09821L353.28191,19.4902a7.00033,7.00033,0,0,0-3.878-1.17233h-7.811a7,7,0,0,0-7,7v2.71238c-1.4562-1.95785-2.77211-3.67354-3.72086-4.80883-2.5184-3.01521-6.78119-4.81647-11.40169-4.81692h-.002c-8.68372-.0002-15.01528,6.13491-15.05583,14.58847-.02756,5.58885.0184,37.30153.02037,38.6488a7,7,0,0,0,7,6.98976h7.811a7,7,0,0,0,7-7V64.27871c5.7471,8.70254,7.04634,10.65514,7.41252,11.14977,2.11217,2.85089,6.15964,4.69173,10.313,4.69173a12.0618,12.0618,0,0,0,11.618-8.21556,19.14978,19.14978,0,0,0,15.30693,7.36067h14.08832a7,7,0,0,0,7-7V65.4154a7,7,0,0,0-7-7H381.35V38.16486c1.88692-.01729,3.64-.039,3.76086-.04054a7,7,0,0,0,6.91272-6.99945V25.236a7,7,0,0,0-7-7h-4.06213v-3.6326a7,7,0,0,0-6.9997-7Z" fill="#fff"/><path d="M398.33515,75.62219c-8.02,0-13.62158-6.40821-13.62158-15.584V36.95275a19.4438,19.4438,0,0,1,.85937-5.88428c.145-.45849.29395-.90234.47461-1.334a12.77382,12.77382,0,0,1,12.2876-8.10059h22.69678a3.49987,3.49987,0,0,1,3.5,3.5V31.984a3.49986,3.49986,0,0,1-3.5,3.5H407.51581c-.20166,0-.6709.05127-.6709.52783l.02491,5.58838,12.06543.03174a3.49977,3.49977,0,0,1,3.49072,3.5v6.8291a3.50017,3.50017,0,0,1-3.5,3.5h-12.02v5.53809a.8661.8661,0,0,0,.23242.62793.50442.50442,0,0,0,.37744.166h13.51612a3.50018,3.50018,0,0,1,3.5,3.5v6.82911a3.50018,3.50018,0,0,1-3.5,3.5Z"/><path d="M421.03186,25.1338v6.85H407.516a4.02942,4.02942,0,0,0-4.17131,4.02814l.04088,9.07872,15.54016.04089V51.961h-15.5197v9.03777a4.187,4.187,0,0,0,4.10994,4.294H421.0318v6.82946H398.335c-6.3216,0-10.12153-5.03014-10.12153-12.08452V36.95252a15.97474,15.97474,0,0,1,.69518-4.82564c.11414-.35968.227-.70647.36806-1.04283a9.32714,9.32714,0,0,1,9.05829-5.95021l.00006,0h22.69677m0-7H398.33509a16.334,16.334,0,0,0-15.51352,10.24267c-.2533.60408-.43477,1.15971-.585,1.63317a22.93988,22.93988,0,0,0-1.02305,6.94288V60.03773c0,11.23668,7.04064,19.08452,17.12153,19.08452H421.0318a7,7,0,0,0,7-7V65.29279a7.00111,7.00111,0,0,0-6.212-6.95614,7.00143,7.00143,0,0,0,4.106-6.37565V45.13152a7,7,0,0,0-3.808-6.23148,7.00147,7.00147,0,0,0,5.914-6.91627v-6.85a7,7,0,0,0-7-7Z" fill="#fff"/><path d="M435.79511,75.76574c-.46533,0-.96-.02539-1.51221-.07715A14.6558,14.6558,0,0,1,421.30146,65.1632a16.22388,16.22388,0,0,1-.70264-4.7168c0-3.207.12207-34.92431.12305-35.24462a3.49978,3.49978,0,0,1,3.5-3.48633H439.5163a3.49985,3.49985,0,0,1,3.5,3.5V61.38781c0,.459.40772.52734.65088.52734H449.883a3.50018,3.50018,0,0,1,3.5,3.5v6.85059a3.50017,3.50017,0,0,1-3.5,3.5Z"/><path d="M439.51636,25.21563V61.38734a4.01276,4.01276,0,0,0,4.15082,4.02813h6.21606v6.85H435.79493c-.39508,0-.79944-.02466-1.186-.06134a11.39831,11.39831,0,0,1-9.56944-6.93171,11.88574,11.88574,0,0,1-.38851-1.12463,12.664,12.664,0,0,1-.55207-3.701c0-3.23777.12269-35.23114.12269-35.23114h15.29474m0-7H424.22162a7,7,0,0,0-6.99995,6.97316c-.005,1.30688-.12274,32.04375-.12274,35.258a19.71651,19.71651,0,0,0,.8544,5.736,18.15184,18.15184,0,0,0,15.99519,12.99016c.64691.06139,1.26843.09257,1.84641.09257h14.08831a7,7,0,0,0,7-7v-6.85a7,7,0,0,0-7-7h-3.36688V25.21563a7,7,0,0,0-7-7Z" fill="#fff"/><path d="M519.923,75.84289c-5.36914-.001-10.01563-3.35938-12.74805-9.21289-.52832-1.13574-7.10351-22.582-12.52685-40.37354a3.50045,3.50045,0,0,1,3.34814-4.5205h15.82617a3.49892,3.49892,0,0,1,3.35938,2.51953c2.05469,7.03711,4.98633,16.97216,7.02539,23.688,2.43945-9.32128,6.66308-25.52539,9.78418-37.51416a3.49913,3.49913,0,0,1,3.38672-2.61816h7.25879a3.50022,3.50022,0,0,1,3.38867,4.37647c-.457,1.76513-11.21192,43.32324-13.80664,52.33593-1.88965,6.5586-7.90137,11.31934-14.29395,11.31934Z"/><path d="M544.637,11.31128s-11.17011,43.1728-13.78162,52.24347c-1.456,5.05409-6.141,8.78771-10.93167,8.78771-3.5629,0-7.18488-2.06693-9.57724-7.19281-.53491-1.14825-12.35034-39.91357-12.35034-39.91357h15.82641s8.68689,29.7643,9.48761,31.36652c.28824.66615.692.95333,1.08738.95333.49655,0,.97967-.45338,1.20278-1.17825.30677-.99908,11.77778-45.06632,11.77778-45.06632v-.00008H544.637m0-7h-7.25891a7.00049,7.00049,0,0,0-6.77457,5.23782c-.72894,2.80162-3.80393,14.6099-6.62393,25.41664-1.19132-4.02335-2.3971-8.12638-3.43741-11.69084a7,7,0,0,0-6.71964-5.03882H497.9961a7,7,0,0,0-6.69586,9.04087c11.95858,39.23513,12.44149,40.2717,12.70089,40.82858,3.33377,7.1429,9.13654,11.23692,15.92255,11.23692,7.91992,0,15.34625-5.82475,17.65814-13.84995,2.60813-9.05892,13.37491-50.66127,13.832-52.42785A7,7,0,0,0,544.637,4.31128Zm0,14h0Z" fill="#fff"/><path d="M601.50214,75.8673a3.49923,3.49923,0,0,1-3.5-3.5c0-3.15136.09668-34.53711.10156-36.21435a3.56041,3.56041,0,0,1,3.5-3.55908H616.633a3.50017,3.50017,0,0,1,3.5,3.5V72.3468a3.5007,3.5007,0,0,1-3.49512,3.5Z"/><path d="M616.63294,36.09382V72.34723l-15.13117.02037c0-3.23791.10224-36.2711.10224-36.27378h15.02893m0-7H601.604a7.00025,7.00025,0,0,0-7,6.97913l-.00022.07544c-.01046,3.38393-.10205,33.14956-.10205,36.21921a7,7,0,0,0,7,7h.00943l15.1312-.02037a7,7,0,0,0,6.99057-7V36.09382a7,7,0,0,0-7-7Z" fill="#fff"/><path d="M479.18427,36.649a3.50006,3.50006,0,0,1-3.5-3.5c0-3.24609.11865-7.94678.12353-8.145a3.50006,3.50006,0,0,1,3.499-3.41113h15.02929a3.49985,3.49985,0,0,1,3.5,3.5v8.01562a3.50039,3.50039,0,0,1-3.49072,3.5Z"/><path d="M494.33594,25.093v8.01538l-15.15155.04089c0-3.239.12268-8.05627.12268-8.05627h15.02887m0-7H479.30707a7,7,0,0,0-6.99774,6.8218c-.0051.20031-.12494,4.94417-.12494,8.23447a7,7,0,0,0,7,7l.01892,0,15.15155-.0409a7,7,0,0,0,6.98111-7V25.093a7,7,0,0,0-7-7Z" fill="#fff"/><polygon points="543.656 36.094 543.656 36.094 543.656 36.094 543.656 36.094"/><polyline points="543.656 36.094 543.656 36.094 543.656 36.094 543.656 36.094" fill="#fff"/><path d="M601.50116,36.649a3.50006,3.50006,0,0,1-3.5-3.5c0-3.23877.09864-7.93262.10352-8.13086a3.49926,3.49926,0,0,1,3.499-3.42529H616.633a3.50017,3.50017,0,0,1,3.5,3.5v8.01562a3.50029,3.50029,0,0,1-3.49023,3.5Z"/><path d="M616.63269,25.093v8.01538l-15.13116.04089c0-3.239.10223-8.05627.10223-8.05627h15.02893m0-7H601.60376a7,7,0,0,0-6.99841,6.85145c-.00424.19975-.10382,4.92919-.10382,8.20482a7,7,0,0,0,7,7l.01892,0,15.13117-.0409a7,7,0,0,0,6.98107-7V25.093a7,7,0,0,0-7-7Z" fill="#fff"/><path d="M563.93964,75.47961a3.50049,3.50049,0,0,1-3.5-3.5V65.129a3.50088,3.50088,0,0,1,3.5-3.5c.00488,0,16.26953.06153,16.26953.06153a1.59058,1.59058,0,0,0,1.43457-1.48926c0-1.40039-1.93262-2.54492-3.7373-2.73535-8.86914-.93457-19.22559-5.85547-19.22559-16.64893,0-10.99414,8.458-19.28516,19.67383-19.28516H593.4455a3.50017,3.50017,0,0,1,3.5,3.5v6.82959a3.49921,3.49921,0,0,1-3.5,3.5l-11.03418-.041a3.26381,3.26381,0,0,0-1.10449.17138c-.06153.02344-.11524.04981-.168.07471a.90445.90445,0,0,0-.32715.2168,7.07715,7.07715,0,0,0,2.09961,1.14111l.29395.07764c8.70019,2.30029,16.21484,4.28711,18.20117,13.50586.082.38379.1455.68164.19629.998a27.20162,27.20162,0,0,1,.31152,4.38086,19.74809,19.74809,0,0,1-18.9707,19.56836c-.33985.01661-.668.02442-1.01075.02442Z"/><path d="M578.35492,25.03162v.00011h15.09027v6.82948l-11.0213-.04089a6.74686,6.74686,0,0,0-2.331.38854c-.14612.054-.29.11907-.42938.184a3.88114,3.88114,0,0,0-2.41284,3.61921c0,2.81793,4.68249,4.2735,4.68249,4.2735,8.83051,2.33637,14.49445,3.735,16.05127,10.95989.05768.26759.11725.53393.16357.81793a23.86581,23.86581,0,0,1,.26581,3.82368,16.2484,16.2484,0,0,1-15.64227,16.07177c-.28119.0138-.55365.02039-.83838.02039H563.93933v-6.85l16.25586.06127a5.07678,5.07678,0,0,0,4.94831-4.98918c0-3.42945-3.37219-5.84765-6.87036-6.216-5.561-.58561-16.09229-3.623-16.09229-13.16821,0-9.26817,7.06427-15.78551,16.17407-15.78551m0-7c-13.21139,0-23.17407,9.79563-23.17407,22.78551,0,8.72765,5.3306,14.271,11.93567,17.32407l-3.15079-.01188-.02636-.00005a7,7,0,0,0-7,7v6.85a7,7,0,0,0,7,7h17.99384c.40125,0,.78516-.00936,1.1814-.0288a23.24335,23.24335,0,0,0,22.29925-23.06336,30.66508,30.66508,0,0,0-.35715-4.95082c-.061-.37413-.13467-.728-.21093-1.08034l-.01834-.08493a16.884,16.884,0,0,0-8.26117-11.64407,7,7,0,0,0,3.879-6.26572V25.03173a7,7,0,0,0-7-7H578.35492v-.00011Z" fill="#fff"/><polygon points="601.604 36.094 601.604 36.094 601.604 36.094 601.604 36.094"/><polyline points="601.604 36.094 601.604 36.094 601.604 36.094 601.604 36.094" fill="#fff"/><path d="M704.37226,76.629a11.07049,11.07049,0,0,1-3.48731-.57617,10.17788,10.17788,0,0,1-1.10937-.457,7.51531,7.51531,0,0,1-2.87793-2.25c-.374-.50586-2.88672-4.30078-8.53125-12.83985-1.70313-2.57617-3.58594-5.42382-5.21485-7.88281V71.632a3.50048,3.50048,0,0,1-3.5,3.5H671.841a3.50007,3.50007,0,0,1-3.5-3.49512c0-.33007-.04688-33.04882-.02051-38.62695.03809-7.63037,6.02441-11.10547,11.57031-11.10547a11.35079,11.35079,0,0,1,8.72363,3.56153c2.22266,2.65869,6.55958,8.66259,9.88672,13.34619V25.318a3.50017,3.50017,0,0,1,3.5-3.5h7.81055a3.49934,3.49934,0,0,1,3.5,3.49756s.02051,32.54.02051,41.24511a10.31293,10.31293,0,0,1-2.76172,7.64551,8.71376,8.71376,0,0,1-6.19824,2.42285Z"/><path d="M709.8122,25.31786s.02038,32.53774.02038,41.24262c0,4.99392-2.77435,6.56849-5.46093,6.56849a7.52508,7.52508,0,0,1-2.37049-.39332,7.05789,7.05789,0,0,1-.73614-.30669,4.09064,4.09064,0,0,1-1.554-1.16553c-.75329-1.01819-17.50635-26.49512-17.8916-26.92938a2.41836,2.41836,0,0,0-1.51974-.90592c-.37528,0-.64768.26558-.64768.94681V71.63146h-7.811s-.04657-32.97326-.02039-38.60491c.0271-5.44765,4.15946-7.62248,8.0708-7.62209,2.45813.00025,4.82965.85965,6.038,2.30574,3.76892,4.5096,14.14972,19.42511,14.14972,19.42511a1.24447,1.24447,0,0,0,.986.66025.99556.99556,0,0,0,.93609-.86472v-21.613h7.811m0-7h-7.811a7.00006,7.00006,0,0,0-7,7v2.68875c-1.44744-1.94793-2.75567-3.65463-3.70068-4.78537-2.51953-3.01536-6.78454-4.81626-11.40839-4.81676h-.00192c-8.69012-.00016-15.02746,6.13444-15.06952,14.58728-.026,5.59089.01841,37.30238.0203,38.6496a7,7,0,0,0,7,6.99012h7.811a7,7,0,0,0,7-7V64.25983c5.76642,8.7214,7.0669,10.67383,7.43164,11.16689a11.02838,11.02838,0,0,0,4.212,3.34126,13.71224,13.71224,0,0,0,1.47388.60241,14.61349,14.61349,0,0,0,4.60211.75857c6.00158,0,12.46093-4.246,12.46093-13.56848,0-8.70581-.02038-41.247-.02038-41.247a7,7,0,0,0-7-6.99562Z" fill="#fff"/><polygon points="479.307 36.094 479.307 36.094 479.307 36.094 479.307 36.094"/><polyline points="479.307 36.094 479.307 36.094 479.307 36.094 479.307 36.094" fill="#fff"/><path d="M644.62519,76.23547a29.19688,29.19688,0,0,1-7.04-.85938l-.28028-.06933c-.36035-.08789-.71972-.17774-1.07226-.28418a28.20478,28.20478,0,0,1-17.11035-14.3252c-.19824-.39746-.38282-.80469-.56446-1.21875a26.75305,26.75305,0,0,1-2.25586-10.76855,27.093,27.093,0,0,1,6.52149-17.54541c.28711-.33741.58105-.67627.88476-1.001a28.89464,28.89464,0,0,1,40.91407-.95947,26.94629,26.94629,0,0,1,8.34668,19.50586C672.96894,63.88781,660.25409,76.23547,644.62519,76.23547Zm0-42.44922a2.89861,2.89861,0,0,0-2.60742,1.26318c-.06055.08252-.126.17237-.18848.27051-1.29688,2.0249-1.97949,5.81006-2.08887,11.57471-.00976.59375-.01855,1.20019-.01855,1.81543,0,5.86425.80664,10.49316,2.27148,13.03515.03906.06739.08887.13867.13574.21l.08985.13672a5.09248,5.09248,0,0,0,.627.78614c.05273.05371.11426.11523.18066.17285a2.23275,2.23275,0,0,0,1.585.582c2.43066-.00488,4.93847-5.58789,4.93847-14.92285,0-8.92627-1.97949-14.92334-4.9248-14.92334Z"/><path d="M644.62513,24.6839c13.713,0,24.84381,10.75566,24.84381,24.02588s-11.13086,24.02588-24.84381,24.02588a25.579,25.579,0,0,1-6.19556-.75652c-.39667-.09877-.79724-.18972-1.186-.30672a24.66519,24.66519,0,0,1-14.988-12.53431c-.17439-.35014-.33374-.7039-.49078-1.06328a23.34829,23.34829,0,0,1,3.72143-24.63929c.253-.29669.50989-.59479.777-.87927A25.10176,25.10176,0,0,1,644.62519,24.684l-.00006-.00011M644.61069,67.133l.01468,0c5.59528-.01214,8.42438-8.24993,8.42438-18.42321,0-10.17388-2.40711-18.42317-8.42438-18.42317v-.00016a6.361,6.361,0,0,0-5.41864,2.67864c-.114.15381-.22113.30481-.32715.47028-1.90771,2.97936-2.53235,7.81969-2.63769,13.39319-.01166.61927-.02045,1.24529-.02045,1.88115,0,6.04035.803,11.42309,2.74,14.78357.10193.17688.21887.34564.32715.51124a8.51733,8.51733,0,0,0,1.06329,1.32909c.12769.12929.254.2516.38849.36805a5.71459,5.71459,0,0,0,3.87033,1.43135m.01444-49.44911H644.625a32.27363,32.27363,0,0,0-23.46429,10.08037c-.3794.404-.71555.79472-1.00079,1.12927a30.59677,30.59677,0,0,0-7.358,19.81636,30.21,30.21,0,0,0,2.54871,12.168c.16183.37038.38083.86214.6391,1.38079A31.72635,31.72635,0,0,0,635.226,78.37533c.47686.14352.91568.25052,1.26825.33652l.24417.0599a32.66931,32.66931,0,0,0,7.88675.96391c17.55874,0,31.84381-13.91814,31.84381-31.02588S662.18387,17.6839,644.62513,17.6839Zm-.0933,41.21369c-.56378-1.53678-1.31039-4.62362-1.31039-10.18788,0-.59129.00836-1.17343.01919-1.74929.1-5.28863.69227-7.84422,1.19083-9.06727.69177,1.485,1.61829,4.81709,1.61829,10.81663,0,5.23522-.81558,8.46253-1.51792,10.18781Z" fill="#fff"/><path d="M479.18476,75.8673a3.5,3.5,0,0,1-3.5-3.5c0-3.06836.10986-32.833.12256-36.21679a3.5602,3.5602,0,0,1,3.5-3.55664h15.0288a3.49985,3.49985,0,0,1,3.5,3.5V72.3468a3.50038,3.50038,0,0,1-3.49511,3.5Z"/><path d="M494.33619,36.09382V72.34723l-15.15162.02037c0-3.23791.12268-36.2711.12268-36.27378h15.02894m0-7H479.30725a7.00026,7.00026,0,0,0-7,6.97491l-.00028.07535c-.01251,3.38416-.12244,33.15179-.12244,36.22352a7,7,0,0,0,7,7h.00943l15.15161-.02037a7,7,0,0,0,6.99061-7V36.09382a7,7,0,0,0-7-7Z" fill="#fff"/><rect x="401.2536" y="71.21008" width="10.19824" height="31.80469" rx="3.5"/><path d="M407.95173,74.7102V99.51428H404.7536V74.7102h3.19813m0-7H404.7536a7,7,0,0,0-7,7V99.51428a7,7,0,0,0,7,7h3.19813a7,7,0,0,0,7-7V74.7102a7,7,0,0,0-7-7Z" fill="#fff"/><path d="M424.52167,103.01476a3.50017,3.50017,0,0,1-3.5-3.5V87.23254c-.03955-.00391-.08594-.00586-.14014-.00586a.93748.93748,0,0,0-.84179.35937,2.24671,2.24671,0,0,0-.49024,1.61914V99.51476a3.50017,3.50017,0,0,1-3.5,3.5h-2.85742a3.50017,3.50017,0,0,1-3.5-3.5V81.65148a3.50018,3.50018,0,0,1,3.5-3.5h2.85742a3.49953,3.49953,0,0,1,1.31446.25489,10.06859,10.06859,0,0,1,3.96-.76563,9.67648,9.67648,0,0,1,7.38281,2.77148,8.07354,8.07354,0,0,1,2.17334,5.66211V99.51476a3.50017,3.50017,0,0,1-3.5,3.5Z"/><path d="M421.3238,81.14093a6.33551,6.33551,0,0,1,4.83136,1.66712,4.56245,4.56245,0,0,1,1.22491,3.26648V99.51429h-2.85815V86.51673a2.48485,2.48485,0,0,0-1.05433-1.92206,3.93906,3.93906,0,0,0-2.586-.86774,4.41618,4.41618,0,0,0-3.471,1.54822,5.73429,5.73429,0,0,0-1.361,3.92974v10.3094h-2.85753V81.65149h2.85753v2.31378a5.92151,5.92151,0,0,1,5.27419-2.82434m0-7a13.88129,13.88129,0,0,0-4.119.60543,7.04363,7.04363,0,0,0-1.15518-.09487h-2.85753a7,7,0,0,0-7,7v17.8628a7,7,0,0,0,7,7h2.85753a6.96994,6.96994,0,0,0,4.23616-1.42683,6.96991,6.96991,0,0,0,4.23615,1.42683h2.85815a7,7,0,0,0,7-7V86.07453a11.51682,11.51682,0,0,0-3.1416-8.079c-1.64063-1.7472-4.7117-3.85464-9.91467-3.85464Z" fill="#fff"/><path d="M435.95478,103.83117a6.90837,6.90837,0,0,1-4.794-1.78223,5.73412,5.73412,0,0,1-1.939-4.30371v-10.124a3.50152,3.50152,0,0,1-2.4834-3.34961V81.65148a3.50152,3.50152,0,0,1,2.4834-3.34961V76.82043a3.50017,3.50017,0,0,1,3.5-3.5h2.8584a3.50017,3.50017,0,0,1,3.5,3.5v1.39648a3.5009,3.5009,0,0,1,2.82373,3.43457V84.2716a3.5009,3.5009,0,0,1-2.82373,3.43457v6.40137a3.49979,3.49979,0,0,1,2.82373,3.43359v2.55176a3.50009,3.50009,0,0,1-2.85157,3.43945A16.79,16.79,0,0,1,435.95478,103.83117Z"/><path d="M435.5802,76.82013v4.83136h2.82367v2.61982H435.5802V96.86059q0,.85017,1.25879.85052a10.83428,10.83428,0,0,0,1.56488-.17v2.55146a13.1915,13.1915,0,0,1-2.44922.23834,3.41444,3.41444,0,0,1-2.416-.85046,2.29118,2.29118,0,0,1-.81665-1.73554V84.27131h-2.4837V81.65149h2.4837V76.82013h2.85821m0-7H432.722a7.00037,7.00037,0,0,0-6.98,6.46609,6.98465,6.98465,0,0,0-2.50375,5.36527v2.61982a6.9844,6.9844,0,0,0,2.4837,5.34838v8.12524a9.281,9.281,0,0,0,3.08652,6.89558,10.32648,10.32648,0,0,0,7.14614,2.69042,20.264,20.264,0,0,0,3.74817-.35992,7,7,0,0,0,5.70105-6.87842V97.54113a7.00007,7.00007,0,0,0-2.4627-5.33038q-.17639-.15014-.361-.28731V89.88953a6.98917,6.98917,0,0,0,2.82367-5.61822V81.65149a6.99022,6.99022,0,0,0-2.87143-5.65348,7.00136,7.00136,0,0,0-6.95224-6.17788Z" fill="#fff"/><path d="M448.91767,103.76281c-7.522,0-11.83594-4.79785-11.83594-13.16309a13.50635,13.50635,0,0,1,3.126-9.08691,11.48606,11.48606,0,0,1,16.61865-.61035c2.19678,2.32422,3.31982,5.59863,3.34863,9.74121,0,.57031-.01709,1.01563-.04492,1.36035a3.49273,3.49273,0,0,1-.3999,1.36621,3.50614,3.50614,0,0,1-.01856,1.48731C458.38642,100.59972,454.55292,103.76281,448.91767,103.76281Z"/><path d="M448.71326,81.14093a7.34919,7.34919,0,0,1,5.58026,2.17768q2.34823,2.48436,2.38147,7.3496,0,.646-.03387,1.05432H443.64356a5.0993,5.0993,0,0,0-.03388.68048,5.463,5.463,0,0,0,1.47608,3.7771,4.58116,4.58116,0,0,0,3.51245,1.63324q3.52816,0,4.78473-3.74322h2.91827q-1.42914,6.19371-7.38348,6.19244-8.33688,0-8.33618-9.66272a10.07206,10.07206,0,0,1,2.2799-6.80524,7.36469,7.36469,0,0,1,5.85181-2.65368m-4.96747,8.064h9.90106q-.54729-5.74986-4.81408-5.75018-4.43875,0-5.087,5.75018m4.96747-15.064a14.30063,14.30063,0,0,0-11.16238,5.09322,16.90938,16.90938,0,0,0-3.96933,11.3657c0,12.28542,7.92221,16.66272,15.33618,16.66272,7.21557,0,12.52557-4.3434,14.20425-11.6186a6.99554,6.99554,0,0,0,.17691-1.75569,7.00814,7.00814,0,0,0,.31864-1.59169c.03866-.46986.05746-1.00252.05746-1.62838-.035-5.106-1.47973-9.18028-4.29431-12.158a14.32119,14.32119,0,0,0-10.66742-4.36928Zm-2.01492,17.82868Z" fill="#fff"/><rect x="456.95185" y="71.21008" width="9.8584" height="31.80469" rx="3.5"/><path d="M463.31025,74.7102V99.51428H460.452V74.7102h2.85822m0-7H460.452a7,7,0,0,0-7,7V99.51428a7,7,0,0,0,7,7h2.85822a7,7,0,0,0,7-7V74.7102a7,7,0,0,0-7-7Z" fill="#fff"/><rect x="464.50507" y="71.21008" width="9.85791" height="31.80469" rx="3.5"/><path d="M470.863,74.7102V99.51428h-2.85815V74.7102H470.863m0-7h-2.85815a7,7,0,0,0-7,7V99.51428a7,7,0,0,0,7,7H470.863a7,7,0,0,0,7-7V74.7102a7,7,0,0,0-7-7Z" fill="#fff"/><rect x="471.99042" y="71.21008" width="9.85742" height="10.53906" rx="3.5"/><path d="M478.34809,74.71021V78.2489h-2.85755V74.71021h2.85755m0-7h-2.85755a7,7,0,0,0-7,7V78.2489a7,7,0,0,0,7,7h2.85755a7,7,0,0,0,7-7V74.71021a7,7,0,0,0-7-7Z" fill="#fff"/><rect x="471.99042" y="78.15148" width="9.85742" height="24.86328" rx="3.5"/><path d="M478.34809,81.65149v17.8628h-2.85755V81.65149h2.85755m0-7h-2.85755a7,7,0,0,0-7,7v17.8628a7,7,0,0,0,7,7h2.85755a7,7,0,0,0,7-7V81.65149a7,7,0,0,0-7-7Z" fill="#fff"/><path d="M489.406,110.50012a11.10361,11.10361,0,0,1-7.33008-2.44629,8.20575,8.20575,0,0,1-3.17871-6.58692,3.4966,3.4966,0,0,1,1.40234-2.748,14.7049,14.7049,0,0,1-2.01562-7.84668,14.40572,14.40572,0,0,1,2.89746-9.35743,10.28655,10.28655,0,0,1,8.22461-3.874,9.5951,9.5951,0,0,1,3.84521.77148,3.485,3.485,0,0,1,1.32666-.26074h2.85791a3.50049,3.50049,0,0,1,3.5,3.5V97.99523c0,6.333-2.83007,9.40332-5.20459,10.86426A12.08127,12.08127,0,0,1,489.406,110.50012Zm-.03418-22.72852a.52554.52554,0,0,0-.16406.01758.9247.9247,0,0,0-.23389.27441,5.93392,5.93392,0,0,0-.66113,3.2168,4.14557,4.14557,0,0,0,.62646,2.49219.77278.77278,0,0,0,.773.37011c.207,0,.37109,0,.68164-.42382a4.49227,4.49227,0,0,0,.68408-2.67676C491.07782,87.7716,490.21064,87.7716,489.37177,87.7716Z"/><path d="M489.40577,81.14092a6.06533,6.06533,0,0,1,5.17193,2.78981V81.65149h2.85816V97.99543q0,5.70777-3.5387,7.88317A8.582,8.582,0,0,1,489.40577,107a7.673,7.673,0,0,1-5.087-1.63324,4.77791,4.77791,0,0,1-1.92206-3.8448h2.92591a2.62079,2.62079,0,0,0,1.66711,2.34766,5.36267,5.36267,0,0,0,2.48376.61212q5.03577,0,5.03583-5.7221,0-.20406.03388-.6607c.02234-.30476.03448-.54762.03448-.7284q-3.18978,2.92713-5.6333,2.92652a6.25243,6.25243,0,0,1-4.92017-2.38214,10.556,10.556,0,0,1-2.24029-7.04292,10.99037,10.99037,0,0,1,2.10992-7.14509,6.77448,6.77448,0,0,1,5.51191-2.586m.30609,16.50179a4.16722,4.16722,0,0,0,3.50482-1.85432,7.81914,7.81914,0,0,0,1.361-4.7464q0-6.7697-5.20581-6.77068a3.78986,3.78986,0,0,0-3.33484,1.88823,9.32128,9.32128,0,0,0-1.2243,5.12078,7.45426,7.45426,0,0,0,1.32654,4.593,4.23451,4.23451,0,0,0,3.57257,1.76936m-.30609-23.50179a13.68223,13.68223,0,0,0-10.93622,5.1614A17.7847,17.7847,0,0,0,474.78394,90.872a19.22343,19.22343,0,0,0,1.3862,7.44846,6.97183,6.97183,0,0,0-.77255,3.0922,11.78811,11.78811,0,0,0,4.435,9.32751A14.69581,14.69581,0,0,0,489.40577,114a15.50183,15.50183,0,0,0,8.08886-2.11654l.06958-.04224c3.1348-1.92791,6.87165-5.895,6.87165-13.84579V81.65149a7,7,0,0,0-7-7H494.5777a7.04955,7.04955,0,0,0-1.16232.09605,13.2724,13.2724,0,0,0-4.00961-.60662Z" fill="#fff"/><path d="M509.4123,103.76281c-7.52149,0-11.83594-4.79785-11.83594-13.16309a13.50662,13.50662,0,0,1,3.125-9.08593,11.48561,11.48561,0,0,1,16.62012-.61035c2.19629,2.32421,3.32031,5.59765,3.34863,9.74023,0,.57227-.01758,1.01953-.0459,1.36621a3.48428,3.48428,0,0,1-.39941,1.35938,3.49478,3.49478,0,0,1-.01857,1.48828C518.88105,100.6007,515.04706,103.76281,509.4123,103.76281Z"/><path d="M509.20789,81.14093a7.3491,7.3491,0,0,1,5.58026,2.17768q2.34833,2.48436,2.38153,7.3496,0,.646-.03387,1.05432H504.13819a5.21645,5.21645,0,0,0-.03388.68048,5.46332,5.46332,0,0,0,1.47608,3.7771,4.58128,4.58128,0,0,0,3.51251,1.63324q3.52817,0,4.78473-3.74322h2.91821q-1.42905,6.19371-7.38348,6.19244-8.33679,0-8.33618-9.66272a10.07236,10.07236,0,0,1,2.2799-6.80524,7.36571,7.36571,0,0,1,5.85181-2.65368m-4.96747,8.064h9.90112q-.54638-5.74986-4.81347-5.75018-4.43876,0-5.08765,5.75018m4.96747-15.064A14.30264,14.30264,0,0,0,498.04651,79.233a16.91049,16.91049,0,0,0-3.97033,11.36684c0,12.28542,7.92218,16.66272,15.33618,16.66272,7.2157,0,12.52572-4.34344,14.20428-11.6187a6.996,6.996,0,0,0,.17691-1.75539,7.01035,7.01035,0,0,0,.31879-1.59341c.0386-.4701.05734-1.00226.05734-1.62686-.03509-5.1062-1.47992-9.18052-4.29449-12.15812a14.32109,14.32109,0,0,0-10.6673-4.36916Z" fill="#fff"/><path d="M532.31073,103.01476a3.50049,3.50049,0,0,1-3.5-3.5V87.23254c-.04-.00391-.08593-.00586-.14062-.00586a.93862.93862,0,0,0-.84277.36035,2.24639,2.24639,0,0,0-.48829,1.61816V99.51476a3.50048,3.50048,0,0,1-3.5,3.5h-2.85839a3.50048,3.50048,0,0,1-3.5-3.5V81.65148a3.50049,3.50049,0,0,1,3.5-3.5h2.85839a3.50138,3.50138,0,0,1,1.31446.25489,10.062,10.062,0,0,1,3.959-.76563,9.68026,9.68026,0,0,1,7.38281,2.77051,8.07316,8.07316,0,0,1,2.17383,5.66308V99.51476a3.50048,3.50048,0,0,1-3.5,3.5Z"/><path d="M529.11292,81.14093a6.33575,6.33575,0,0,1,4.83142,1.66712,4.56271,4.56271,0,0,1,1.22491,3.26648V99.51429H532.311V86.51673a2.48364,2.48364,0,0,0-1.05493-1.92206,3.93656,3.93656,0,0,0-2.586-.86774,4.416,4.416,0,0,0-3.47034,1.54822,5.73428,5.73428,0,0,0-1.361,3.92974v10.3094h-2.85816V81.65149h2.85816v2.31378a5.92146,5.92146,0,0,1,5.27417-2.82434m0-7a13.881,13.881,0,0,0-4.119.60543,7.04381,7.04381,0,0,0-1.15518-.09487h-2.85816a7,7,0,0,0-7,7v17.8628a7,7,0,0,0,7,7h2.85816a6.96988,6.96988,0,0,0,4.23614-1.42683,6.96993,6.96993,0,0,0,4.23615,1.42683h2.85821a7,7,0,0,0,7-7V86.07453a11.51715,11.51715,0,0,0-3.14141-8.07876c-1.641-1.74748-4.7121-3.85484-9.91492-3.85484Z" fill="#fff"/><path d="M543.74335,103.83117a6.91053,6.91053,0,0,1-4.793-1.78125,5.738,5.738,0,0,1-1.93945-4.30469v-10.124a3.50093,3.50093,0,0,1-2.4834-3.34961V81.65148a3.50093,3.50093,0,0,1,2.4834-3.34961V76.82043a3.50048,3.50048,0,0,1,3.5-3.5h2.8584a3.50049,3.50049,0,0,1,3.5,3.5v1.39648a3.50126,3.50126,0,0,1,2.82324,3.43457V84.2716a3.50126,3.50126,0,0,1-2.82324,3.43457v6.40137a3.49734,3.49734,0,0,1,2.82324,3.43359v2.55176a3.49961,3.49961,0,0,1-2.85156,3.43945A16.7821,16.7821,0,0,1,543.74335,103.83117Z"/><path d="M543.36933,76.82013v4.83136H546.193v2.61982h-2.82367V96.86059q0,.85017,1.25879.85052a10.84291,10.84291,0,0,0,1.56488-.17v2.55146a13.19242,13.19242,0,0,1-2.44983.23834,3.41415,3.41415,0,0,1-2.41541-.85046,2.29132,2.29132,0,0,1-.81659-1.73554V84.27131h-2.48376V81.65149h2.48376V76.82013h2.85816m0-7h-2.85816a7.00029,7.00029,0,0,0-6.97992,6.466,6.98485,6.98485,0,0,0-2.50384,5.36534v2.61982a6.98468,6.98468,0,0,0,2.48376,5.34845v8.12517a9.28111,9.28111,0,0,0,3.08618,6.89532,10.32634,10.32634,0,0,0,7.14582,2.69068,20.26706,20.26706,0,0,0,3.74878-.35992,7,7,0,0,0,5.70105-6.87842V97.54113a7,7,0,0,0-2.46271-5.33038q-.17637-.15014-.361-.28731V89.88953a6.9892,6.9892,0,0,0,2.82367-5.61822V81.65149a6.99024,6.99024,0,0,0-2.87143-5.65348,7.00137,7.00137,0,0,0-6.95224-6.17788Z" fill="#fff"/><path d="M565.31464,103.01476a3.50048,3.50048,0,0,1-3.5-3.5V81.0343h-4.666a3.5005,3.5005,0,0,1-3.5-3.5V74.71008a3.50049,3.50049,0,0,1,3.5-3.5h19.46192a3.50048,3.50048,0,0,1,3.5,3.5V77.5343a3.50049,3.50049,0,0,1-3.5,3.5h-4.59766V99.51476a3.50048,3.50048,0,0,1-3.5,3.5Z"/><path d="M576.61066,74.7102v2.82428h-8.0979v21.9798h-3.19812V77.53448h-8.1662V74.7102h19.46222m0-7H557.14844a7,7,0,0,0-7,7v2.82428a7,7,0,0,0,7,7h1.1662v14.9798a7,7,0,0,0,7,7h3.19812a7,7,0,0,0,7-7V84.53448h1.0979a7,7,0,0,0,7-7V74.7102a7,7,0,0,0-7-7Z" fill="#fff"/><path d="M586.95429,103.76281c-7.52149,0-11.83594-4.79785-11.83594-13.16309a13.5081,13.5081,0,0,1,3.126-9.08691,11.48547,11.48547,0,0,1,16.61914-.60937c2.19629,2.32421,3.32031,5.59765,3.34863,9.74023,0,.57227-.01758,1.01953-.0459,1.36621a3.48428,3.48428,0,0,1-.39941,1.35938,3.49493,3.49493,0,0,1-.01856,1.48828C596.423,100.6007,592.58905,103.76281,586.95429,103.76281Z"/><path d="M586.75006,81.14093a7.34921,7.34921,0,0,1,5.58027,2.17768q2.34823,2.48436,2.38147,7.3496,0,.646-.03388,1.05432H581.68036a5.20608,5.20608,0,0,0-.03387.68048,5.463,5.463,0,0,0,1.47607,3.7771,4.58118,4.58118,0,0,0,3.51245,1.63324q3.52818,0,4.78473-3.74322H594.338q-1.42914,6.19371-7.38349,6.19244-8.33688,0-8.33618-9.66272a10.07207,10.07207,0,0,1,2.27991-6.80524,7.36552,7.36552,0,0,1,5.8518-2.65368m-4.96746,8.064h9.90106q-.5463-5.74986-4.81348-5.75018-4.43865,0-5.08758,5.75018m4.96746-15.064a14.30256,14.30256,0,0,0-11.16143,5.09214,16.91013,16.91013,0,0,0-3.97028,11.36678c0,12.28542,7.92221,16.66272,15.33618,16.66272,7.21558,0,12.52558-4.3434,14.20426-11.6186a6.996,6.996,0,0,0,.17691-1.75569,7.00813,7.00813,0,0,0,.31863-1.59169c.03867-.46986.05747-1.00252.05747-1.62838-.035-5.106-1.47974-9.18028-4.29432-12.158a14.32118,14.32118,0,0,0-10.66742-4.36928Zm-2.01492,17.82868Z" fill="#fff"/><rect x="594.98847" y="71.21008" width="9.8584" height="31.80469" rx="3.5"/><path d="M601.34638,74.7102V99.51428h-2.85816V74.7102h2.85816m0-7h-2.85816a7,7,0,0,0-7,7V99.51428a7,7,0,0,0,7,7h2.85816a7,7,0,0,0,7-7V74.7102a7,7,0,0,0-7-7Z" fill="#fff"/><path d="M613.425,103.76281c-7.52148,0-11.83594-4.79785-11.83594-13.16309a13.50667,13.50667,0,0,1,3.125-9.08593,11.48561,11.48561,0,0,1,16.62012-.61035c2.19629,2.32421,3.32031,5.59765,3.34863,9.74023,0,.57227-.01757,1.01953-.04589,1.36621a3.48446,3.48446,0,0,1-.39942,1.35938,3.49509,3.49509,0,0,1-.01855,1.48828C622.89374,100.6007,619.05976,103.76281,613.425,103.76281Z"/><path d="M613.22065,81.14093a7.34921,7.34921,0,0,1,5.58026,2.17768q2.34832,2.48436,2.38153,7.3496,0,.646-.03388,1.05432H608.15094a5.21679,5.21679,0,0,0-.03387.68048,5.46331,5.46331,0,0,0,1.47607,3.7771,4.58121,4.58121,0,0,0,3.51252,1.63324q3.52817,0,4.78472-3.74322h2.91822q-1.429,6.19371-7.38349,6.19244-8.33679,0-8.33618-9.66272a10.07237,10.07237,0,0,1,2.27991-6.80524,7.36571,7.36571,0,0,1,5.85181-2.65368m-4.96747,8.064h9.90106q-.5463-5.74986-4.81348-5.75018-4.43865,0-5.08758,5.75018m4.96747-15.064A14.30264,14.30264,0,0,0,602.05927,79.233a16.91049,16.91049,0,0,0-3.97034,11.36684c0,12.28542,7.92218,16.66272,15.33618,16.66272,7.2157,0,12.52573-4.34344,14.20429-11.6187a6.99644,6.99644,0,0,0,.17691-1.75539,7.01089,7.01089,0,0,0,.31879-1.59341c.0386-.4701.05734-1.00226.05734-1.62686-.0351-5.1062-1.47992-9.18052-4.2945-12.15812a14.32106,14.32106,0,0,0-10.66729-4.36916Z" fill="#fff"/><path d="M629.24628,103.01476a3.49957,3.49957,0,0,1-3.30273-2.34277l-6.25977-17.86328a3.50024,3.50024,0,0,1,3.30274-4.65723h3.19824a3.50024,3.50024,0,0,1,3.333,2.43067l1.47851,4.61035,1.69238-4.72168a3.50026,3.50026,0,0,1,3.29493-2.31934h3.19824a3.49971,3.49971,0,0,1,3.26855,4.751l-6.83886,17.86328a3.5,3.5,0,0,1-3.26856,2.249Z"/><path d="M639.182,81.65149h.005m-.005,0L632.343,99.51429H629.2464l-6.26013-17.8628h3.19812L630.812,96.07783l5.17127-14.42634H639.182m.005-7h-3.2038a6.99752,6.99752,0,0,0-4.89941,2.00017,6.997,6.997,0,0,0-4.89942-2.00017h-3.19812a7,7,0,0,0-6.606,9.31514l6.26013,17.8628a6.99994,6.99994,0,0,0,6.606,4.68486H632.343a7,7,0,0,0,6.53723-4.49712l6.75693-17.64832a7.0031,7.0031,0,0,0-6.4501-9.71736Zm-.005,14h0Z" fill="#fff"/><rect x="638.40448" y="71.21008" width="9.85742" height="10.53906" rx="3.5"/><path d="M644.7616,74.71021V78.2489h-2.85754V74.71021h2.85754m0-7h-2.85754a7,7,0,0,0-7,7V78.2489a7,7,0,0,0,7,7h2.85754a7,7,0,0,0,7-7V74.71021a7,7,0,0,0-7-7Z" fill="#fff"/><rect x="638.40448" y="78.15148" width="9.85742" height="24.86328" rx="3.5"/><path d="M644.7616,81.65149v17.8628h-2.85754V81.65149h2.85754m0-7h-2.85754a7,7,0,0,0-7,7v17.8628a7,7,0,0,0,7,7h2.85754a7,7,0,0,0,7-7V81.65149a7,7,0,0,0-7-7Z" fill="#fff"/><path d="M655.6496,103.76281c-3.6123,0-6.25488-.833-8.0791-2.54785a9.51889,9.51889,0,0,1-2.69922-6.82031,3.50069,3.50069,0,0,1,1.74805-3.18555,8.59237,8.59237,0,0,1-1.27539-4.76367,8.0826,8.0826,0,0,1,3.26074-6.63867,11.47525,11.47525,0,0,1,7.14648-2.166,10.29041,10.29041,0,0,1,6.8545,2.24023,8.677,8.677,0,0,1,2.97363,6.68165,3.50252,3.50252,0,0,1-.99219,2.5332c-.06055.06152-.12207.12012-.18652.17676a7.80746,7.80746,0,0,1,1.92773,5.34179,8.35,8.35,0,0,1-3.42773,6.9375A11.81611,11.81611,0,0,1,655.6496,103.76281Z"/><path d="M655.75086,81.14093a6.88921,6.88921,0,0,1,4.59369,1.41216A5.26229,5.26229,0,0,1,662.08,86.65283h-2.82428q-.10162-2.85819-3.98089-2.85822a4.51452,4.51452,0,0,0-2.586.78278,2.31809,2.31809,0,0,0-1.15656,1.97382q0,1.6323,2.51764,2.24542l4.6275,1.12268q4.15018,1.02081,4.15088,4.69526a4.88566,4.88566,0,0,1-2.02435,4.1342,8.37769,8.37769,0,0,1-5.15466,1.5138q-3.98154,0-5.6825-1.59876a6.19994,6.19994,0,0,1-1.59875-4.423H651.124a3.17106,3.17106,0,0,0,1.46264,2.78978,5.27741,5.27741,0,0,0,3.02881.85048,6.18883,6.18883,0,0,0,3.18085-.73292,2.36661,2.36661,0,0,0,1.24219-2.1668q0-1.91025-2.30994-2.45624l-4.45947-1.0473a6.209,6.209,0,0,1-3.57386-1.97194,4.95011,4.95011,0,0,1-.85107-3.06006,4.61518,4.61518,0,0,1,1.88818-3.85948,8.0495,8.0495,0,0,1,5.01856-1.44538m0-7a14.87872,14.87872,0,0,0-9.2703,2.88454,11.61467,11.61467,0,0,0-4.63644,9.42032,13.22219,13.22219,0,0,0,.60147,4.06338,7.00012,7.00012,0,0,0-1.07074,4.04036c.17355,3.9312,1.46,7.03962,3.82346,9.23888,2.44479,2.29742,5.96942,3.47416,10.451,3.47416a15.23568,15.23568,0,0,0,9.345-2.90656,12.29151,12.29151,0,0,0,3.59948-15.13974,6.99807,6.99807,0,0,0,.484-2.74318,12.085,12.085,0,0,0-4.20886-9.26138,13.68167,13.68167,0,0,0-9.118-3.07078Z" fill="#fff"/><rect x="662.96894" y="78.15148" width="9.85742" height="24.86328" rx="3.5"/><path d="M669.32679,81.65149v17.8628h-2.85755V81.65149h2.85755m0-7h-2.85755a7,7,0,0,0-7,7v17.8628a7,7,0,0,0,7,7h2.85755a7,7,0,0,0,7-7V81.65149a7,7,0,0,0-7-7Z" fill="#fff"/><rect x="662.96894" y="71.21008" width="9.85742" height="10.53906" rx="3.5"/><path d="M669.32679,74.71021V78.2489h-2.85755V74.71021h2.85755m0-7h-2.85755a7,7,0,0,0-7,7V78.2489a7,7,0,0,0,7,7h2.85755a7,7,0,0,0,7-7V74.71021a7,7,0,0,0-7-7Z" fill="#fff"/><path d="M681.06464,103.76281a10.67893,10.67893,0,0,1-8.7998-3.94824c-1.83106-2.294-2.76368-5.44336-2.76368-9.35059a13.70064,13.70064,0,0,1,2.916-9.09375,11.89124,11.89124,0,0,1,17.29687.001,13.701,13.701,0,0,1,2.915,9.09277,15.20245,15.20245,0,0,1-2.40527,8.88477A10.61842,10.61842,0,0,1,681.06464,103.76281Zm0-16.26367a1.046,1.046,0,0,0-.94434.40527,3.93537,3.93537,0,0,0-.69238,2.55957,5.1122,5.1122,0,0,0,.71777,3.001,1.12924,1.12924,0,0,0,1.83887,0,5.12156,5.12156,0,0,0,.71778-3.001,3.92972,3.92972,0,0,0-.69922-2.5664A1.04091,1.04091,0,0,0,681.06464,87.49914Z"/><path d="M681.065,81.14093a7.3739,7.3739,0,0,1,5.97131,2.48376,10.29159,10.29159,0,0,1,2.09265,6.83906,11.77347,11.77347,0,0,1-1.76935,6.87292,8.27065,8.27065,0,0,1-12.351.306q-2.008-2.517-2.00769-7.17894a10.2916,10.2916,0,0,1,2.09271-6.83906,7.37382,7.37382,0,0,1,5.97132-2.48376m0,16.298a4.40671,4.40671,0,0,0,3.74249-1.90546,8.39538,8.39538,0,0,0,1.395-5.0697,7.21575,7.21575,0,0,0-1.531-4.83136,4.7983,4.7983,0,0,0-7.21289,0,7.21543,7.21543,0,0,0-1.531,4.83136,8.39121,8.39121,0,0,0,1.3949,5.0697,4.40607,4.40607,0,0,0,3.74256,1.90546m0-23.298a14.20353,14.20353,0,0,0-11.32462,4.97352,17.08771,17.08771,0,0,0-3.73941,11.3493c0,4.71954,1.18961,8.60364,3.53574,11.54444a14.06232,14.06232,0,0,0,11.52829,5.25438,14.22512,14.22512,0,0,0,12.00433-5.87634,18.59976,18.59976,0,0,0,3.05963-10.92248,17.08691,17.08691,0,0,0-3.73853-11.3483A14.20391,14.20391,0,0,0,681.065,74.14093Z" fill="#fff"/><path d="M704.37226,103.01476a3.50048,3.50048,0,0,1-3.5-3.5V87.23351a1.263,1.263,0,0,0-.1416-.00683.93674.93674,0,0,0-.84082.35937,2.249,2.249,0,0,0-.49024,1.61914V99.51476a3.50048,3.50048,0,0,1-3.5,3.5h-2.8584a3.50049,3.50049,0,0,1-3.5-3.5V81.65148a3.5005,3.5005,0,0,1,3.5-3.5h2.8584a3.50137,3.50137,0,0,1,1.31445.25489,10.07041,10.07041,0,0,1,3.96-.76563c3.17285,0,5.65721.93262,7.38281,2.77148a8.07269,8.07269,0,0,1,2.17285,5.66211V99.51476a3.50048,3.50048,0,0,1-3.5,3.5Z"/><path d="M701.17377,81.14093a6.33575,6.33575,0,0,1,4.83142,1.66712,4.56272,4.56272,0,0,1,1.22492,3.26648V99.51429h-2.85822V86.51673a2.48364,2.48364,0,0,0-1.05493-1.92206,3.93656,3.93656,0,0,0-2.586-.86774,4.416,4.416,0,0,0-3.47034,1.54822,5.73433,5.73433,0,0,0-1.361,3.92974v10.3094h-2.85815V81.65149h2.85815v2.31378a5.92147,5.92147,0,0,1,5.27417-2.82434m0-7a13.88146,13.88146,0,0,0-4.119.60542,7.04391,7.04391,0,0,0-1.15515-.09486h-2.85815a7,7,0,0,0-7,7v17.8628a7,7,0,0,0,7,7h2.85815a6.97,6.97,0,0,0,4.23615-1.42682,6.96993,6.96993,0,0,0,4.23614,1.42682h2.85822a7,7,0,0,0,7-7V86.07453a11.517,11.517,0,0,0-3.14148-8.07882c-1.64093-1.74742-4.712-3.85478-9.91486-3.85478Z" fill="#fff"/><path d="M602.69433,7c-.47087,0-.73946.4-.73946.89705l-.097,9.68586c0,.47129.39941.71522.89706.71522l4.44893-.03638c.49653,0,.89706-.26817.89706-.73946V15.72821c0-.47142-.40053-.72735-.89706-.72735l-2.873.0121c-.49653,0-.90917-.24395-.90917-.71522V7.89708c0-.497-.25554-.89705-.72735-.89705ZM624.4541,7a.76685.76685,0,0,0-.16973.02428.81612.81612,0,0,0-.56978.87281l-.1091,9.68586a.6435.6435,0,0,0,.4.60612,1.04764,1.04764,0,0,0,.15759.06066,1.20734,1.20734,0,0,0,.16973.03638,1.39646,1.39646,0,0,0,.18183.0121l4.4368-.03638c.49749,0,.89705-.26817.89705-.73946V15.72829c0-.47142-.39956-.72735-.89705-.72735l-2.873.0121c-.49653,0-.89706-.24395-.89706-.71522l-.0121-6.40066c0-.497-.24341-.89705-.71522-.89705Zm-69.58311.0121a.80825.80825,0,0,0-.90917.75158l.04842,1.45469-.04842,8.13415c0,.49681.25627.89705.72734.89705a.67377.67377,0,0,0,.15759-.0121.83921.83921,0,0,0,.58188-.88495V10.95191c0-.47131.40062-.73947.89707-.73947h.61824c.49663,0,.89708.26816.89708.73947l.60611,3.40641c0,.497.24418.89706.71523.89706h1.588a.91208.91208,0,0,0,.16971-.0121c.36446-.07251.56985-.39062.80009-.83646,0,0,1.8269-4.36794,1.90321-4.53378.164-.35689.61826-.29822.61826.04843v6.50974l.02428.95768c0,.49681.24362.90919.71523.90919l1.83049.01211a.72018.72018,0,0,0,.15759-.01211.54478.54478,0,0,0,.13335-.04848c.23974-.12448.34821-.42516.58188-.83643l1.36982-2.99425c.22239-.433.52145-.73094.89706-.73946h2.2669c.49721,0,.89707.26819.89707.73946l.12123,3.18822a.59174.59174,0,0,0,.42429.60612,1.56637,1.56637,0,0,0,.29093.08486,9.74028,9.74028,0,0,0,1.39409.06067c.41692.01118,1.0675-.265,1.06679-.72733l.02428-9.89189c0-.47131-.40037-.72734-.89706-.72734h-4.8005a.86073.86073,0,0,0-.897.72734s-3.15717,7.977-3.2367,8.15841a.16908.16908,0,0,1-.04842.06066.4822.4822,0,0,1-.194.08486c-.18145.0413-.4-.00131-.4-.23031,0-.36674-.0121-7.80684-.0121-7.80684,0-.497-.20765-.95768-.67886-.95768h-1.69715c-.47127,0-.64515.31566-.98192.897,0,0-2.00228,4.93684-2.12143,5.16416a.44348.44348,0,0,1-.13335.14547.35524.35524,0,0,1-.15759.07275.21406.21406,0,0,1-.25455-.194c-.06119-.31765-.98193-5.37023-.98193-5.37023a.79724.79724,0,0,0-.89705-.75158h-3.17608Zm87.6332,0c-.497,0-.90919.256-.90919.72734l-.0484,9.79491a.66283.66283,0,0,0,.15759.43638.79868.79868,0,0,0,.3879.25456,1.1415,1.1415,0,0,0,.16973.03638,1.2875,1.2875,0,0,0,.18183.0121l1.52742.0121v.0121h3.73371a1.43291,1.43291,0,0,0,.18183-.0121,1.185,1.185,0,0,0,.16973-.03638.67336.67336,0,0,0,.54549-.66674.79784.79784,0,0,0-.897-.75157h-3.73371v.02429a.78942.78942,0,0,1-.86068-.75157l.06067-5.16416c0-.47131.4-.71523.89705-.71523h3.68523c.497,0,.90916-.24389.90916-.71522V7.78793c0-.47131-.41215-.73946-.90916-.73946l-5.249-.03638Zm16.01374,0a1.42976,1.42976,0,0,0-.18184.0121.73991.73991,0,0,0-.72736.71522c-.00064.24537.002.482,0,.72735-.01741,2.7834-.0766,5.58127-.03638,8.36449.00263.17077-.02748.35272-.03639.5334a1.30807,1.30807,0,0,0,.01211.26669.67284.67284,0,0,0,.08486.24246.94063.94063,0,0,0,.47277.4,1.54059,1.54059,0,0,0,.60612.08487c.3284-.00891.639.02512.93344.0121a2.32065,2.32065,0,0,0,.29093-.03638,1.08348,1.08348,0,0,0,.87282-.72737l.12124-3.1882c0-.47127.40053-.73946.89706-.73946h2.42451c.497,0,.89706.26819.89706.73946l.03638,2.99423c0,.497.24389.89706.71522.89706a.78178.78178,0,0,0,.16973-.01211.83893.83893,0,0,0,.58188-.88495V13.30364c0-.70626-.62006-.93506-1.07889-1.16376a1.62136,1.62136,0,0,1-.35156-.21819.37131.37131,0,0,1-.13335-.29094c0-.623-.0121-3.8913-.0121-3.8913,0-.47131-.40052-.72734-.89705-.72734H658.518Zm10.7526,0a1.43071,1.43071,0,0,0-.18183.0121.74025.74025,0,0,0-.72737.71522l-.0484,9.79493a.66883.66883,0,0,0,.2667.54549.82235.82235,0,0,0,.13335.08487,1.09283,1.09283,0,0,0,.497.1091h6.243c.49653,0,.89706-.26841.89706-.73946l-.0484-9.79493c0-.47131-.4-.72734-.89706-.72734h-6.13394Zm9.71006,0a1.32068,1.32068,0,0,0-.18183.0121.99605.99605,0,0,0-.31518.097.7027.7027,0,0,0-.4.6425l.0484,1.45469-.0484,8.13413a.8274.8274,0,0,0,.55763.88495.66868.66868,0,0,0,.15759.0121.78284.78284,0,0,0,.16973-.0121.83944.83944,0,0,0,.58188-.88495V10.95187c0-.47131.401-.73947.897-.73947h3.28519c.49749,0,.897.26816.897.73947l.03638,6.37639c0,.49682.24485.89706.71523.89706a.7827.7827,0,0,0,.16973-.0121.83908.83908,0,0,0,.58187-.885l-.0121-7.09159.0121-2.473a.80835.80835,0,0,0-.90919-.75158h-6.243Zm15.41972,0a.90041.90041,0,0,0-.83644.41216.69414.69414,0,0,0-.06066.31518l-.06058,9.79491a.66346.66346,0,0,0,.15759.43638.94257.94257,0,0,0,.73946.30308l5.26113.02428c.49653,0,.897-.24357.897-.71522a.79784.79784,0,0,0-.897-.75157l-3.68523.02428a.80891.80891,0,0,1-.9092-.7516l.06059-5.16416c0-.47131.4-.71523.89705-.71523h3.68523c.497,0,.9092-.24391.9092-.71522V7.788c0-.47131-.41215-.73946-.9092-.73946l-5.249-.03638Zm-4.41256.0121a.65019.65019,0,0,0-.61822.38792,1.11224,1.11224,0,0,0-.097.3273,1.39748,1.39748,0,0,0-.0121.18185l.0484,6.46126a.65844.65844,0,0,1-.48491.67886.9992.9992,0,0,1-.15759.03639,1.4282,1.4282,0,0,1-.18183,0h-.33942c-.49653,0-.98192.24395-.98192.71522v1.72139a.65089.65089,0,0,0,.30308.54549.95808.95808,0,0,0,.14545.08487,1.30076,1.30076,0,0,0,.53339.1091h2.9579c.49653,0,.89706-.26821.89706-.73946V15.813a1.2054,1.2054,0,0,0-.0121-.194c-.06554-.40757-.35065-.45929-.63036-.50913a1.24916,1.24916,0,0,1-.33942-.097c-.17169-.0855-.29094-.24918-.29094-.63038V7.9213c0-.497-.26766-.897-.73947-.897ZM578.619,7.04851c-.49721,0-.90917.26815-.90917.73946V9.50936c0,.47131.412.71522.90917.71522h1.12739c.49643,0,.89706.24392.89706.71523l-.04849,6.46126c0,.49681.25574.89705.72735.89705a.67381.67381,0,0,0,.15759-.0121.83909.83909,0,0,0,.58188-.88495V10.93981a.71868.71868,0,0,1,.71522-.7031,1.39341,1.39341,0,0,1,.18183-.01211h3.10333c.49643,0,.89706.24392.89706.71523v6.46124c0,.49681.268.89705.73946.89705a.77918.77918,0,0,0,.16971-.0121.81919.81919,0,0,0,.54552-.88495l-.04842-6.46126a.72987.72987,0,0,1,.72734-.7031,1.39341,1.39341,0,0,1,.18183-.01211h1.12739c.49721,0,.89708-.24391.89708-.71522V7.788c0-.47131-.39985-.73946-.89708-.73946h-11.783Zm71.63177,0a1.21606,1.21606,0,0,0-.35156.04842,1.01192,1.01192,0,0,0-.15759.06067.68456.68456,0,0,0-.4.63037V9.50936c0,.47131.41218.71522.90919.71522h1.12737c.49653,0,.89706.24392.89706.71523l-.0484,6.46126a1.08817,1.08817,0,0,0,.18183.6425.7192.7192,0,0,0,.1091.10911.61114.61114,0,0,0,.2667.13334.777.777,0,0,0,.16973.0121.67373.67373,0,0,0,.15759-.0121.83918.83918,0,0,0,.58188-.88495V10.93981a.71917.71917,0,0,1,.71522-.7031,1.39388,1.39388,0,0,1,.18183-.01211h1.12737c.497,0,.89706-.24391.89706-.71522V7.788c0-.47131-.4-.73946-.89706-.73946h-5.4672Zm58.05437,0-5.32174.03638a1.32157,1.32157,0,0,0-.18184.0121.74362.74362,0,0,0-.71522.72735l.06058,4.94594c0,.47141.40053.72735.89706.72735l2.60634.04842a.79786.79786,0,0,1,.89706.75159l-.06059,1.80625a.69656.69656,0,0,1-.07272.31518.7324.7324,0,0,1-.47277.36366,1.20911,1.20911,0,0,1-.16973.02428,1.39693,1.39693,0,0,1-.18183.0121l-3.70947.0121a1.43463,1.43463,0,0,0-.18183.0121.72917.72917,0,0,0-.71523.71523.66012.66012,0,0,0,.25456.54553,1.05278,1.05278,0,0,0,.6425.194h6.99461a1.0496,1.0496,0,0,0,.63036-.18183.63828.63828,0,0,0,.2667-.53339l.06058-4.8611c0-.471-.41215-.71522-.9092-.71522h-4.31558c-.497,0-.89706-.24376-.89706-.71523l-.06066-2.04869c0-.47083.41166-.73946.90919-.73946l3.74585.0121c.497,0,.89706-.26816.89706-.73947s-.4-.72734-.89706-.72734Zm-113.64769.08484c-.49683,0-.89705.24392-.89705.71523V11.255c0,.49663-.24362.89707-.71523.89707l-.96978.02429c-.49643,0-.89705.24413-.89705.71522l-.06067,4.64289a.7159.7159,0,0,0,.55764.691.98607.98607,0,0,0,.15759.03638,1.28738,1.28738,0,0,0,.18185.0121l7.28561.02428c.49663,0,.89706-.24393.89706-.71522a.7978.7978,0,0,0-.89706-.75157l-5.70967.02428a.79771.79771,0,0,1-.89706-.7516l.04843-1.73351c0-.47127.40062-.71522.897-.71522l5.66117.0121a1.43144,1.43144,0,0,0,.18183-.0121,1.02589,1.02589,0,0,0,.15759-.03639.69686.69686,0,0,0,.55764-.67884.74319.74319,0,0,0-.71523-.72736,1.29018,1.29018,0,0,0-.18183-.0121l-1.26074-.0121a1.323,1.323,0,0,1-.18185-.0121.8562.8562,0,0,1-.55763-.27882.69631.69631,0,0,1-.15761-.44853l.04848-2.12143c0-.47131.41235-.72735.90918-.72735h1.20013c.49663,0,.89706-.25651.89706-.72734,0-.47131-.40043-.73947-.89706-.73947h-4.64291Zm21.74767,0a.95151.95151,0,0,0-.73947.27882.69853.69853,0,0,0-.08486.13335.64528.64528,0,0,0-.07273.30306V11.255c0,.49663-.24341.89707-.71522.89707l-.9698.02429c-.49653,0-.89706.24413-.89706.71522l-.06066,4.64289a.66294.66294,0,0,0,.15759.43642.83515.83515,0,0,0,.4.25456,1.14055,1.14055,0,0,0,.16972.03638,1.2874,1.2874,0,0,0,.18183.0121l7.27345.02428c.49749,0,.897-.24393.897-.71522a.79733.79733,0,0,0-.897-.75157l-5.70968.02428a.79788.79788,0,0,1-.89707-.7516l.04842-1.73351c0-.47127.41265-.71522.90918-.71522l5.64907.0121a1.43206,1.43206,0,0,0,.18183-.0121,1.18908,1.18908,0,0,0,.16973-.03639.68579.68579,0,0,0,.54549-.67884.7428.7428,0,0,0-.71522-.72736,1.28967,1.28967,0,0,0-.18183-.0121l-1.26072-.0121a1.32257,1.32257,0,0,1-.18183-.0121.85643.85643,0,0,1-.55764-.27882.69646.69646,0,0,1-.15759-.44853l.06067-2.12143c0-.47131.4-.72735.89705-.72735H621.048c.49749,0,.897-.25651.897-.72734,0-.47131-.39956-.73947-.897-.73947h-4.64291Zm18.0503,0a.97931.97931,0,0,0-.75157.27882.69906.69906,0,0,0-.08487.13335.64492.64492,0,0,0-.07272.30306l.0121,3.40641c0,.49663-.256.89707-.72736.89707l-.95768.02429c-.497,0-.89706.24413-.89706.71522l-.06066,4.64289a.66273.66273,0,0,0,.15759.43642.79924.79924,0,0,0,.3879.25456,1.14286,1.14286,0,0,0,.16973.03638,1.2883,1.2883,0,0,0,.18183.0121l7.27345.02428c.497,0,.9092-.24393.9092-.71522a.80863.80863,0,0,0-.9092-.75157l-5.69755.02428a.80865.80865,0,0,1-.9092-.7516l.06067-1.73351c0-.47127.4-.71522.897-.71522l5.649.0121a1.43144,1.43144,0,0,0,.18183-.0121,1.18731,1.18731,0,0,0,.16973-.03639.69674.69674,0,0,0,.55764-.67884.754.754,0,0,0-.72733-.72736,1.29038,1.29038,0,0,0-.18183-.0121l-1.24861-.0121a1.32229,1.32229,0,0,1-.18184-.0121.88718.88718,0,0,1-.56973-.27882.68884.68884,0,0,1-.14549-.44853l.04848-2.12143c0-.47131.40005-.72735.89706-.72735h1.20013c.497,0,.9092-.25651.9092-.72734,0-.47131-.41219-.73947-.9092-.73947h-4.63076ZM571.94007,8.62443h2.0002c.49643,0,.89706.24439.89706.71522L574.898,11.449c0,.47125-.40024.73947-.89707.73947h-2.97c-1.0198-.0146-.88629-.72905-.82433-.96978l.83645-1.879c.24172-.41119.40043-.71522.89706-.71522Zm88.16645,0h2.473c.497,0,.89705.24439.89705.71522l.06066,2.10931c0,.47125-.41262.73947-.90915.73947h-2.57c-.497,0-.89706-.2682-.89706-.73947l.04841-2.10931C659.20947,8.86882,659.60951,8.62443,660.10652,8.62443Zm10.595,0h3.26094c.49653,0,.89706.24439.89706.71522l.0484,5.17628c0,.47127-.40053.73947-.89706.73947H670.653c-.49654,0-.89706-.2682-.89706-.73947l.04848-5.17628c0-.47083.401-.71522.89706-.71522Z"/><path d="M537.37805,11.31134S525.907,55.3786,525.60027,56.3777c-.40076,1.30193-1.63989,1.72781-2.29012.22492-.80073-1.60226-9.48765-31.36651-9.48765-31.36651H497.99611s11.8154,38.76532,12.35031,39.91358c5.60917,12.018,17.97014,7.218,20.50891-1.59491C533.46688,54.48406,544.637,11.3113,544.637,11.3113h-7.25891ZM373.96139,14.60339,349.40394,30.2662c-.00066-3.02911,0-4.9483,0-4.9483h-7.811v21.613c0,.54-1.01412,1.52981-1.92207.20447,0,0-10.40141-14.91551-14.1701-19.42515-3.1297-3.747-14.04579-3.555-14.08832,5.31636-.02781,5.63165.02045,38.60493.02045,38.60493h7.811V44.375c0-1.50869,1.33638-.97857,2.16744-.0409.38556.43391,17.11743,25.91117,17.87114,26.92936,1.70574,2.30226,10.142,4.00292,10.142-4.70293,0-6.23778-.0163-24.70985-.02042-34.679h7.6269a3.67767,3.67767,0,0,1,1.81983.8997c-.00655.75492-.12269,24.52912-.12269,27.66546a11.90458,11.90458,0,0,0,12.16631,11.81868H384.9827v-6.85h-6.48187A4.01234,4.01234,0,0,1,374.35,61.38722v-26.725a3.50372,3.50372,0,0,1,3.45564-3.47608c2.30321,0,7.218-.0613,7.218-.0613V25.236h-9.69213a1.33654,1.33654,0,0,1-1.37-1.37V14.60331Zm-83.67129.26582s-.12269,54.2604-.12269,57.49845l15.15159-.0204v-57.478H290.2901ZM644.62519,24.684a25.10161,25.10161,0,0,0-18.36189,7.87226c-.26713.28447-.524.58256-.777.87925a23.34829,23.34829,0,0,0-3.72145,24.63931c.157.35935.31642.71311.49074,1.06327a24.66505,24.66505,0,0,0,14.988,12.5343c.38874.117.7893.20795,1.186.30671a25.57993,25.57993,0,0,0,6.1956.75656c13.71294,0,24.84379-10.75572,24.84379-24.02589S658.33813,24.6839,644.62515,24.6839Zm-66.27029.34761c-9.10977,0-16.174,6.51729-16.174,15.78549,0,9.54517,10.53129,12.58258,16.09224,13.16821,3.49817.36838,6.87037,2.78658,6.87037,6.21605a5.07677,5.07677,0,0,1-4.9483,4.9892l-16.25583-.0613v6.85h17.99383c.28471,0,.55719-.00659.83835-.02041a16.2484,16.2484,0,0,0,15.64232-16.07176,23.86831,23.86831,0,0,0-.26582-3.82368c-.04633-.28395-.10591-.55033-.16358-.81791-1.55683-7.22488-7.22075-8.62354-16.05127-10.95987,0,0-4.68248-1.45561-4.68248-4.27353a3.88117,3.88117,0,0,1,2.4128-3.61922c.13936-.06489.28327-.13.4294-.184a6.7479,6.7479,0,0,1,2.331-.3885l11.02126.0409V25.03175H578.3549Zm-99.04783.0613s-.12269,4.81727-.12269,8.05633l15.15158-.04089V25.09293H479.30707Zm64.34841,0s-.10223,4.81727-.10223,8.05633l15.13117-.04089V25.09293H543.65548Zm57.9483,0s-.10223,4.81727-.10223,8.05633l15.13117-.04089V25.09293H601.60378Zm-203.26873.0409a9.32709,9.32709,0,0,0-9.05829,5.95023c-.14107.33635-.25392.68316-.36805,1.04282a15.9731,15.9731,0,0,0-.69522,4.82562V60.03772c0,7.05436,3.8,12.08453,10.12156,12.08453h22.69676V65.29278H407.516a4.187,4.187,0,0,1-4.11-4.294V51.961h15.51971V45.13151l-15.54012-.04089-.0409-9.0787a4.02943,4.02943,0,0,1,4.1713-4.02817h13.51579v-6.85H398.33508Zm25.88657.08179s-.12269,31.99336-.12269,35.23113a12.66277,12.66277,0,0,0,.55209,3.701,11.888,11.888,0,0,0,.3885,1.12461,11.39827,11.39827,0,0,0,9.56945,6.93175c.38653.03667.79085.06131,1.18595.06131h14.08831v-6.85h-6.21605a4.01282,4.01282,0,0,1-4.15085-4.02816V25.21566H424.22158Zm26.82716,0s-.10224,31.99336-.10224,35.23113a11.47242,11.47242,0,0,0,10.51,11.75737c.38655.03667.77042.06131,1.16551.06131h14.08831v-6.85H470.249a4.0297,4.0297,0,0,1-4.1713-4.02816V25.21566h-15.029Zm250.95238.10224v21.613c0,.54-1.0134,1.52949-1.92207.20447,0,0-10.3808-14.91551-14.14969-19.42515-3.13091-3.74705-14.06463-3.555-14.1088,5.31636-.02616,5.63165.02041,38.60493.02041,38.60493h7.811V44.375c0-1.50869,1.33563-.97857,2.16743-.0409.38523.43423,17.13831,25.91117,17.89163,26.92936a4.08963,4.08963,0,0,0,1.554,1.16551,7.04767,7.04767,0,0,0,.73612.30671c3.08773,1.03871,7.83144.35424,7.83144-6.17515,0-8.7049-.02041-41.24263-.02041-41.24263h-7.811Zm-57.37577,4.96875c6.01728,0,8.42438,8.2493,8.42438,18.42318,0,10.17325-2.82911,18.41109-8.42438,18.42319a5.71636,5.71636,0,0,1-3.885-1.43133c-.13443-.11646-.26079-.23874-.38851-.36806a8.51921,8.51921,0,0,1-1.06327-1.32909c-.10827-.16557-.2252-.33431-.32716-.51118-1.93692-3.36051-2.74-8.74324-2.74-14.78361,0-.63587.00879-1.26191.02041-1.88117.10535-5.57347.73-10.41378,2.63773-13.39317.106-.1655.2131-.31646.32716-.4703a6.361,6.361,0,0,1,5.4186-2.67862Zm-165.31812,5.8071s-.12269,33.0359-.12269,36.27391l15.15158-.0204V36.09379h-15.029Zm64.34841,0s-.10223,33.0359-.10223,36.27391l15.13117-.0204V36.09379h-15.029Zm57.9483,0s-.10223,33.0359-.10223,36.27391l15.13117-.0204V36.09379h-15.029Z"/><path d="M407.95174,99.51431h-3.19812V74.71018h3.19812Z"/><path d="M427.38009,99.51431h-2.85818V86.51671a2.4848,2.4848,0,0,0-1.05433-1.92207,3.939,3.939,0,0,0-2.586-.86774,4.41615,4.41615,0,0,0-3.471,1.54826,5.73422,5.73422,0,0,0-1.361,3.92976V99.51431h-2.85754V81.65148h2.85754v2.31376a5.92158,5.92158,0,0,1,5.27419-2.82431,6.3356,6.3356,0,0,1,4.83137,1.66711,4.56262,4.56262,0,0,1,1.22493,3.26649Z"/><path d="M438.40387,100.09259a13.18884,13.18884,0,0,1-2.44923.23835,3.41456,3.41456,0,0,1-2.416-.85049A2.29113,2.29113,0,0,1,432.722,97.745V84.27132h-2.48374V81.65148H432.722V76.82011h2.85818v4.83137h2.82368v2.61984h-2.82368V96.86061q0,.85017,1.2588.85049a10.83115,10.83115,0,0,0,1.56488-.17Z"/><path d="M456.675,90.6682q0,.646-.03386,1.05433h-12.9976a5.09983,5.09983,0,0,0-.03387.68051,5.463,5.463,0,0,0,1.47606,3.77705,4.58111,4.58111,0,0,0,3.5125,1.63324q3.52815,0,4.78472-3.74317h2.91825q-1.4291,6.19368-7.38348,6.1924-8.33683,0-8.3362-9.66273a10.0722,10.0722,0,0,1,2.2799-6.8052,7.9921,7.9921,0,0,1,11.43208-.476Q456.64179,85.803,456.675,90.6682Zm-3.02815-1.46328q-.54729-5.7499-4.81411-5.75023-4.43872,0-5.087,5.75023Z"/><path d="M463.31024,99.51431h-2.85819V74.71018h2.85819Z"/><path d="M470.863,99.51431h-2.85818V74.71018H470.863Z"/><path d="M478.34812,78.24888h-2.85755v-3.5387h2.85755Zm0,21.26543h-2.85755V81.65148h2.85755Z"/><path d="M497.43588,97.99544q0,5.70774-3.5387,7.88317A8.58215,8.58215,0,0,1,489.40576,107a7.67269,7.67269,0,0,1-5.087-1.63325,4.77788,4.77788,0,0,1-1.92206-3.84478h2.92591a2.62078,2.62078,0,0,0,1.66711,2.34764,5.36276,5.36276,0,0,0,2.48374.61214q5.03584,0,5.03584-5.72211c0-.1361.0115-.35591.03387-.66071s.0345-.54761.0345-.72844q-3.18981,2.92719-5.63329,2.92655a6.25261,6.25261,0,0,1-4.92019-2.38214,10.55617,10.55617,0,0,1-2.24028-7.04289,10.99043,10.99043,0,0,1,2.10993-7.14514,6.77456,6.77456,0,0,1,5.51189-2.586,6.06537,6.06537,0,0,1,5.17194,2.78981V81.65148h2.85818ZM494.5777,91.042q0-6.76974-5.20581-6.77069a3.79,3.79,0,0,0-3.33486,1.8882,9.32166,9.32166,0,0,0-1.2243,5.12083,7.45469,7.45469,0,0,0,1.32653,4.593,4.23473,4.23473,0,0,0,3.57257,1.76935,4.16716,4.16716,0,0,0,3.50483-1.85433A7.81886,7.81886,0,0,0,494.5777,91.042Z"/><path d="M517.16967,90.6682q0,.646-.03387,1.05433H504.1382a5.21376,5.21376,0,0,0-.03386.68051,5.463,5.463,0,0,0,1.47605,3.77705,4.58114,4.58114,0,0,0,3.5125,1.63324q3.52816,0,4.78473-3.74317h2.91824q-1.42909,6.19368-7.38347,6.1924-8.33685,0-8.33621-9.66273a10.07226,10.07226,0,0,1,2.2799-6.8052,7.99211,7.99211,0,0,1,11.43209-.476Q517.13644,85.803,517.16967,90.6682Zm-3.02815-1.46328q-.54633-5.7499-4.81348-5.75023-4.43871,0-5.0876,5.75023Z"/><path d="M535.16925,99.51431h-2.85819V86.51671a2.48377,2.48377,0,0,0-1.055-1.92207,3.93664,3.93664,0,0,0-2.586-.86774,4.41576,4.41576,0,0,0-3.47033,1.54826,5.73422,5.73422,0,0,0-1.361,3.92976V99.51431h-2.85818V81.65148h2.85818v2.31376a5.92156,5.92156,0,0,1,5.27418-2.82431,6.33559,6.33559,0,0,1,4.83137,1.66711,4.56263,4.56263,0,0,1,1.22494,3.26649Z"/><path d="M546.193,100.09259a13.19023,13.19023,0,0,1-2.44987.23835,3.414,3.414,0,0,1-2.41536-.85049,2.29111,2.29111,0,0,1-.81663-1.73549V84.27132h-2.48373V81.65148h2.48373V76.82011h2.85818v4.83137H546.193v2.61984h-2.82368V96.86061q0,.85017,1.25881.85049a10.83981,10.83981,0,0,0,1.56487-.17Z"/><path d="M576.61064,77.5345h-8.09786V99.51431h-3.19812V77.5345h-8.16624V74.71018h19.46222Z"/><path d="M594.71181,90.6682q0,.646-.03386,1.05433h-12.9976a5.21163,5.21163,0,0,0-.03387.68051,5.463,5.463,0,0,0,1.47606,3.77705,4.58112,4.58112,0,0,0,3.5125,1.63324q3.52815,0,4.78472-3.74317H594.338q-1.4291,6.19368-7.38348,6.1924-8.33683,0-8.3362-9.66273a10.0722,10.0722,0,0,1,2.2799-6.8052,7.99211,7.99211,0,0,1,11.43209-.476Q594.67859,85.803,594.71181,90.6682Zm-3.02815-1.46328q-.54633-5.7499-4.81347-5.75023-4.43871,0-5.0876,5.75023Z"/><path d="M601.3464,99.51431h-2.85818V74.71018h2.85818Z"/><path d="M621.18242,90.6682q0,.646-.03387,1.05433H608.151a5.21376,5.21376,0,0,0-.03386.68051,5.46308,5.46308,0,0,0,1.476,3.77705,4.58114,4.58114,0,0,0,3.51251,1.63324q3.52815,0,4.78472-3.74317h2.91824q-1.42908,6.19368-7.38347,6.1924-8.33685,0-8.3362-9.66273a10.07225,10.07225,0,0,1,2.27989-6.8052,7.99211,7.99211,0,0,1,11.43209-.476Q621.1492,85.803,621.18242,90.6682Zm-3.02815-1.46328q-.54633-5.7499-4.81348-5.75023-4.43871,0-5.0876,5.75023Z"/><path d="M639.182,81.65148l-6.83906,17.86283h-3.09653l-6.26013-17.86283h3.19812l4.62753,14.42637,5.17131-14.42637Z"/><path d="M644.76162,78.24888h-2.85755v-3.5387h2.85755Zm0,21.26543h-2.85755V81.65148h2.85755Z"/><path d="M662.82829,94.61457a4.88589,4.88589,0,0,1-2.02431,4.13424,8.378,8.378,0,0,1-5.15469,1.51375q-3.98152,0-5.6825-1.59874a6.20012,6.20012,0,0,1-1.59874-4.42305H651.124a3.1711,3.1711,0,0,0,1.46264,2.78981,5.27759,5.27759,0,0,0,3.02879.85049,6.18908,6.18908,0,0,0,3.18087-.73292,2.36667,2.36667,0,0,0,1.24219-2.1668q0-1.91025-2.30993-2.45626l-4.45948-1.0473a6.20892,6.20892,0,0,1-3.57385-1.9719,4.95008,4.95008,0,0,1-.85113-3.06011,4.61512,4.61512,0,0,1,1.88821-3.85947,8.0496,8.0496,0,0,1,5.01859-1.44538,6.88918,6.88918,0,0,1,4.59366,1.41216A5.26225,5.26225,0,0,1,662.08,86.65282h-2.82432q-.10159-2.85819-3.98088-2.85819a4.51444,4.51444,0,0,0-2.586.78276,2.31808,2.31808,0,0,0-1.15657,1.97383q0,1.63228,2.51761,2.24539l4.62753,1.1227Q662.82766,90.94009,662.82829,94.61457Z"/><path d="M669.32677,78.24888h-2.85754v-3.5387h2.85754Zm0,21.26543h-2.85754V81.65148h2.85754Z"/><path d="M689.12892,90.46372a11.77362,11.77362,0,0,1-1.76935,6.87293,8.27067,8.27067,0,0,1-12.35094.30607q-2.008-2.517-2.0077-7.179a10.29165,10.29165,0,0,1,2.09268-6.83906,8.41991,8.41991,0,0,1,11.94264,0A10.29165,10.29165,0,0,1,689.12892,90.46372Zm-2.92655,0a7.21568,7.21568,0,0,0-1.531-4.83136,4.79837,4.79837,0,0,0-7.21287,0,7.21573,7.21573,0,0,0-1.531,4.83136,8.3911,8.3911,0,0,0,1.3949,5.06971,4.62811,4.62811,0,0,0,7.48507,0A8.3954,8.3954,0,0,0,686.20237,90.46372Z"/><path d="M707.2301,99.51431h-2.85818V86.51671a2.48375,2.48375,0,0,0-1.055-1.92207,3.93662,3.93662,0,0,0-2.586-.86774,4.41576,4.41576,0,0,0-3.47033,1.54826,5.73422,5.73422,0,0,0-1.361,3.92976V99.51431h-2.85818V81.65148h2.85818v2.31376a5.92157,5.92157,0,0,1,5.27419-2.82431,6.33556,6.33556,0,0,1,4.83136,1.66711,4.56259,4.56259,0,0,1,1.22494,3.26649Z"/></g></svg>