<svg id="Capa_1" data-name="Capa 1" xmlns="http://www.w3.org/2000/svg" viewBox="0 0 1000 114"><title>logo_right</title><path d="M688.48029,110.49968a33.51584,33.51584,0,0,1-22.89795-9.02832,33.502,33.502,0,1,1-32.50342-56.61572,33.1168,33.1168,0,0,1-.94629-7.85547,33.5,33.5,0,0,1,67,0,34.13358,34.13358,0,0,1-.89746,7.85449,33.5556,33.5556,0,0,1-9.75488,65.645Z"/><path d="M665.63245,7a30.10925,30.10925,0,0,1,28.2119,40.33112,35.14109,35.14109,0,0,0-5.36419-.46362,30.03832,30.03832,0,0,0-22.81474,10.49335l.0303.03325a30.13894,30.13894,0,0,1,22.78444-10.46032,28.37041,28.37041,0,0,1,5.36419.46357A30.29833,30.29833,0,0,1,680.4295,63.20216a29.9408,29.9408,0,0,0,13.41485-15.80481,30.0431,30.0431,0,1,1-28.2119,49.07281,30.25713,30.25713,0,0,0,5.44575-29.81941c-.02748.00525-.054.01294-.08151.01807-.00646-.01832-.01421-.03607-.02068-.05432a36.48762,36.48762,0,0,1-5.34356.45172,28.36624,28.36624,0,0,1-5.36426-.46363l.00488-.01281c-.90472-.15931-1.7895-.37206-2.6635-.61047.87253.24175,1.75531.45959,2.65862.62328-.00884.02413-.01631.04878-.02509.07294a28.4259,28.4259,0,0,0,5.32312.45691,36.77978,36.77978,0,0,0,5.43047-.46362,30.26729,30.26729,0,0,1-5.43047,29.86755l-.02588-.03143a30.01176,30.01176,0,1,1-28.1198-49.10759,29.5972,29.5972,0,0,1,5.43047-.52979,29.94529,29.94529,0,0,1,6.62456.73828,30.7641,30.7641,0,0,0-6.55834-.80456,29.598,29.598,0,0,0-5.43047.52984A29.95539,29.95539,0,0,1,665.63245,7m-6.55152,63.71064q-.03238.14982-.06311.30051.03085-.15045.06311-.30051c.06005-.27769.12416-.55328.19036-.82777q-.10122.41217-.19036.82777m-.29211,1.55517q-.02319.14254-.04448.286-.06337.42095-.1147.84506c.03589-.28286.073-.56506.1147-.84506q.02156-.14316.04448-.286M665.63245,0a37.0419,37.0419,0,0,0-37,37,36.533,36.533,0,0,0,.42536,5.55991,37.00208,37.00208,0,1,0,36.511,63.50739,37.04121,37.04121,0,1,0,36.6646-63.51453A38.365,38.365,0,0,0,702.63245,37a37.0419,37.0419,0,0,0-37-37Z" fill="#fff"/><path d="M741.79865,88.66667c-.71924,0-2.77149.02735-6.10938.082h-.05664a3.49948,3.49948,0,0,1-3.48975-3.76562l.74561-9.80957,1.02881-21.63037.4956-15.71387c.02539-1.36865.03955-2.79541.03955-4.23584q0-1.59961-.041-4.79834a3.49971,3.49971,0,0,1,3.49951-3.54443l.05518.00048c3.47607.05469,6.354.08252,8.55322.08252,1.7207,0,4.16894-.0415,7.27539-.123,3.16064-.083,5.71191-.12549,7.58349-.12549a33.78,33.78,0,0,1,9.43116.98291,17.05338,17.05338,0,0,1,6.32519,3.60449,16.24579,16.24579,0,0,1,4.1626,5.94776,20.93264,20.93264,0,0,1,1.50244,7.90722,21.77543,21.77543,0,0,1-3.1831,11.53174,19.98711,19.98711,0,0,1-8.92237,7.87793A28.52861,28.52861,0,0,1,758.76984,65.405a37.2088,37.2088,0,0,1-6.62842-.63672,3.39917,3.39917,0,0,1-.458-.11621l-.12695,4.06739c-.16309,5.54-.24561,9.65527-.24561,12.22558q0,1.47217.041,4.252a3.49907,3.49907,0,0,1-3.49951,3.55175C747.83624,88.7487,741.79865,88.66667,741.79865,88.66667Zm10.35742-38.69531a21.03093,21.03093,0,0,0,3.6206.3208,12.22957,12.22957,0,0,0,4.61572-.772,4.98809,4.98809,0,0,0,2.38086-2.01319,6.14688,6.14688,0,0,0,.94043-3.40039,4.539,4.539,0,0,0-.33837-1.8125,2.03733,2.03733,0,0,0-.65772-.87793,3.25934,3.25934,0,0,0-1.26709-.57422,16.64833,16.64833,0,0,0-3.32227-.23c-1.498,0-3.02685.02686-4.543.08057q-.50465.01758-.98877.03174C752.42072,43.88493,752.27325,46.9782,752.15607,49.97136Z"/><path d="M761.37811,28.5852a31.02586,31.02586,0,0,1,8.40233.82783,13.48848,13.48848,0,0,1,5.00765,2.856,12.71056,12.71056,0,0,1,3.26989,4.67719,17.353,17.353,0,0,1,1.2417,6.58113A18.2419,18.2419,0,0,1,776.63,53.23339a16.46651,16.46651,0,0,1-7.38824,6.519,24.93821,24.93821,0,0,1-10.47186,2.15236,33.58313,33.58313,0,0,1-6.00165-.57947q-.911-4.30435-2.0696-8.07124a24.61332,24.61332,0,0,0,5.07816.5381,15.58472,15.58472,0,0,0,5.94542-1.03474,8.45292,8.45292,0,0,0,4.00519-3.37334,9.62833,9.62833,0,0,0,1.48614-5.27735,8.03,8.03,0,0,0-.61957-3.18707,5.50626,5.50626,0,0,0-1.79657-2.31786,6.75066,6.75066,0,0,0-2.60119-1.17965,20.30411,20.30411,0,0,0-4.06793-.31042q-2.31271,0-4.66614.08276-2.35346.08343-4.17079.08279-.49371,8.11292-.73986,15.52152l-.4934,15.81123q-.24738,8.403-.24707,12.33446,0,1.49.04138,4.30464l-6.00617-.08276q-1.16025,0-6.2138.08276l.74566-9.80964,1.03545-21.7301.49734-15.7699q.0407-2.15167.04139-4.346,0-1.61426-.04139-4.84272,5.29769.0834,8.60865.08277,2.64833,0,7.36688-.12415t7.49168-.12421m0-7c-1.89943,0-4.48193.04259-7.67578.12665-3.06993.08075-5.48657.12171-7.18278.12171-2.187,0-5.04634-.02755-8.49849-.08191-.03668-.00057-.07367-.00086-.11031-.00086a7,7,0,0,0-6.99931,7.08827q.04,3.16968.04085,4.75445c0,1.374-.01323,2.77643-.0393,4.169l-.49417,15.66984-1.02809,21.5756-.73814,9.71065a7,7,0,0,0,6.97964,7.53058q.05722,0,.11447-.00094c3.25824-.0532,5.29412-.0807,6.05394-.0818l5.95533.08207q.04831.00066.09663.00066a7,7,0,0,0,6.999-7.10367q-.04066-2.74646-.04061-4.201c0-2.54762.0821-6.62824.244-12.12845l.00319-.10206c1.27234.12689,2.51273.19079,3.71163.19079A31.99268,31.99268,0,0,0,772.14716,66.121a23.41991,23.41991,0,0,0,10.45532-9.23672,25.22379,25.22379,0,0,0,3.6972-13.357,24.39749,24.39749,0,0,0-1.75424-9.21039,19.73974,19.73974,0,0,0-5.06192-7.23955,20.50678,20.50678,0,0,0-7.57532-4.33311l-.07037-.02205a36.45341,36.45341,0,0,0-10.45972-1.137Zm-5.457,22.54645c.742-.01323,1.47963-.0199,2.20714-.0199,1.02533,0,1.68739.042,2.08442.08172a2.58574,2.58574,0,0,1-.3928,1.43544,1.47712,1.47712,0,0,1-.75682.65326,8.93438,8.93438,0,0,1-3.26912.51q.05994-1.31956.12718-2.66052Z" fill="#fff"/><path d="M815.55841,89.74284a47.048,47.048,0,0,1-13.75-2.01562,30.98537,30.98537,0,0,1-11.835-6.584,26.43791,26.43791,0,0,1-7.25195-10.51269,35.57881,35.57881,0,0,1-2.12061-12.36817,37.46114,37.46114,0,0,1,2.62647-13.873,28.39186,28.39186,0,0,1,7.97851-11.30762,35.29362,35.29362,0,0,1,11.9834-6.62207,46.16719,46.16719,0,0,1,14.39648-2.20215,44.75493,44.75493,0,0,1,12.84082,1.84375A30.41988,30.41988,0,0,1,841.783,32.34245a28.79419,28.79419,0,0,1,7.52637,10.14991A32.93663,32.93663,0,0,1,851.83966,55.779a39.10433,39.10433,0,0,1-2.32129,13.38379,29.26033,29.26033,0,0,1-7.4209,11.36132,31.17375,31.17375,0,0,1-12.12793,7.02442A47.32189,47.32189,0,0,1,815.55841,89.74284Zm1.36524-49.66894a16.65351,16.65351,0,0,0-9.04,2.35058,14.53426,14.53426,0,0,0-5.65088,6.376,21.72155,21.72155,0,0,0-2.00733,9.29639,18.31733,18.31733,0,0,0,1.88867,8.353,11.71137,11.71137,0,0,0,5.38672,5.35352,18.33825,18.33825,0,0,0,8.5127,1.999,18.55063,18.55063,0,0,0,6.585-1.18164,13.38324,13.38324,0,0,0,5.127-3.41015A15.25388,15.25388,0,0,0,831.033,63.5612a22.94293,22.94293,0,0,0,1.18262-7.32715,21.96712,21.96712,0,0,0-1.05176-6.78564,13.2455,13.2455,0,0,0-2.999-5.15039,12.16905,12.16905,0,0,0-4.83106-3.12744A18.87712,18.87712,0,0,0,816.92365,40.0739Z"/><path d="M817.58612,27.75745a41.07617,41.07617,0,0,1,11.83771,1.697,26.812,26.812,0,0,1,10.058,5.52562,25.19024,25.19024,0,0,1,6.6225,8.91968,29.33977,29.33977,0,0,1,2.23511,11.87915,35.4439,35.4439,0,0,1-2.1109,12.18958,25.69294,25.69294,0,0,1-6.53974,10.01655,27.59479,27.59479,0,0,1-10.78229,6.22929,44.68479,44.68479,0,0,1-26.07617.1656,27.40347,27.40347,0,0,1-10.51324-5.83612,22.87592,22.87592,0,0,1-6.31214-9.12665A31.93457,31.93457,0,0,1,784.101,58.2624a33.8173,33.8173,0,0,1,2.38-12.58278,24.81708,24.81708,0,0,1,6.995-9.93378,31.65833,31.65833,0,0,1,10.803-5.96025,42.48469,42.48469,0,0,1,13.30713-2.02814m-1.57288,49.54467a21.9459,21.9459,0,0,0,7.82288-1.40728,16.95823,16.95823,0,0,0,6.43622-4.284,18.61553,18.61553,0,0,0,4.077-6.93292,26.27873,26.27873,0,0,0,1.3659-8.44372A25.355,25.355,0,0,0,834.4942,48.37a16.83628,16.83628,0,0,0-3.78723-6.47766,15.72882,15.72882,0,0,0-6.18793-4.0149,22.253,22.253,0,0,0-7.59521-1.30377,20.22215,20.22215,0,0,0-10.88574,2.87665,18.09958,18.09958,0,0,0-6.97431,7.8642,25.07815,25.07815,0,0,0-2.33862,10.78227,21.92936,21.92936,0,0,0,2.2558,9.91311,15.21816,15.21816,0,0,0,6.933,6.91227,21.9433,21.9433,0,0,0,10.0993,2.38m1.57288-56.54467a49.66053,49.66053,0,0,0-15.487,2.37619,38.76615,38.76615,0,0,0-13.1629,7.28393,31.85584,31.85584,0,0,0-8.96237,12.68175A40.94345,40.94345,0,0,0,777.101,58.2624a39.05265,39.05265,0,0,0,2.33789,13.58109,29.90329,29.90329,0,0,0,8.19147,11.89983,34.47381,34.47381,0,0,0,13.15753,7.33205,51.68238,51.68238,0,0,0,30.24655-.1923,34.65741,34.65741,0,0,0,13.47165-7.81933,32.74784,32.74784,0,0,0,8.3024-12.70694,42.58434,42.58434,0,0,0,2.53092-14.57788,36.38794,36.38794,0,0,0-2.82557-14.693,32.25176,32.25176,0,0,0-8.42892-11.3794,33.89,33.89,0,0,0-12.65335-6.9579,48.26379,48.26379,0,0,0-13.84546-1.99112Zm-1.57288,49.54467a14.90644,14.90644,0,0,1-6.92388-1.61827,8.21342,8.21342,0,0,1-3.8415-3.79263,14.895,14.895,0,0,1-1.5227-6.79443,18.00235,18.00235,0,0,1,1.67651-7.81054,11.14212,11.14212,0,0,1,4.32773-4.88831,13.27224,13.27224,0,0,1,7.19443-1.82427,15.16846,15.16846,0,0,1,5.22455.89012,8.74378,8.74378,0,0,1,3.476,2.24185,9.8368,9.8368,0,0,1,2.21118,3.82376,18.48274,18.48274,0,0,1,.87967,5.70485,19.41487,19.41487,0,0,1-.99985,6.20972,11.60312,11.60312,0,0,1-2.53747,4.36617,9.95724,9.95724,0,0,1-3.81467,2.536,14.86982,14.86982,0,0,1-5.35.956Z" fill="#fff"/><path d="M887.2088,88.7487a3.50024,3.50024,0,0,1-3.23047-2.15429l-4.55371-10.93067q-1.17919-2.47851-2.834-5.83691l-3.71582-7.47559-.57715,22.98535a3.5,3.5,0,0,1-3.49805,3.41211c-.01562,0-6.46777-.082-6.46777-.082-.9668,0-3.03223.02735-6.15039.08106-.02051.001-.04.001-.06055.001a3.50048,3.50048,0,0,1-3.48242-3.85254c.82129-8.11035,1.44531-17.57714,1.85742-28.13574.41211-10.58349.62109-20.00732.62109-28.00976a3.49977,3.49977,0,0,1,3.5-3.5l.0586.00048c3.25683.05469,6.03515.08252,8.25879.08252,2.34277,0,4.67383-.041,6.92968-.12158,2.333-.08447,4.833-.127,7.42872-.127a65.36746,65.36746,0,0,1,9.07812.57275,19.66876,19.66876,0,0,1,8.16406,3.03028,16.0877,16.0877,0,0,1,5.54395,6.03466,17.43465,17.43465,0,0,1,1.8164,8.05957,21.19406,21.19406,0,0,1-.64843,5.28028,19.34129,19.34129,0,0,1-1.94532,4.7998,17.78672,17.78672,0,0,1-3.123,4.01758,18.07454,18.07454,0,0,1-3.57324,2.71143,20.7301,20.7301,0,0,1-3.90918,1.6748c-.27442.08789-.56641.17774-.876.27246l.85547,1.66113c.8916,1.7002,2.61426,4.81446,5.11035,9.23633l4.17285,7.3125c.15527.27246.53711.97168,2.05274,3.88575a3.50019,3.50019,0,0,1-3.10547,5.11425h-.05664q-5.02149-.082-6.626-.082-1.97607,0-6.957.082ZM873.28009,50.55388a25.53829,25.53829,0,0,0,4.4375.44189,14.21074,14.21074,0,0,0,5.21973-.915,5.79556,5.79556,0,0,0,2.86328-2.23242,6.00565,6.00565,0,0,0,1.00879-3.36914,4.155,4.155,0,0,0-.36524-1.771,2.55723,2.55723,0,0,0-1.0039-1.03663,5.85094,5.85094,0,0,0-2.41016-.79931,31.52265,31.52265,0,0,0-4.02051-.26026q-1.21728,0-3.32812.04053-.91553.01758-2.01172.02783L873.241,50.547Z"/><path d="M881.29291,28.5852a61.56979,61.56979,0,0,1,8.58532.53809,16.11607,16.11607,0,0,1,6.72406,2.48346,12.57249,12.57249,0,0,1,4.36542,4.71857,13.91772,13.91772,0,0,1,1.428,6.45691,17.63218,17.63218,0,0,1-.53809,4.40814,15.78282,15.78282,0,0,1-1.5935,3.93214A14.22223,14.22223,0,0,1,897.76,54.351a14.61286,14.61286,0,0,1-2.87665,2.19372,17.16857,17.16857,0,0,1-3.24921,1.38659q-1.82179.58008-4.88409,1.40728l2.81458,5.46357q1.36587,2.60762,5.17382,9.35432l4.18048,7.32616q.33078.58008,1.98676,3.76655-5.06388-.0825-6.682-.08276-1.99255,0-7.01446.08276l-4.58661-11.01q-1.199-2.52422-2.89282-5.96026L874.72986,58.221q-.744-1.40661-2.06629-4.22186a28.89321,28.89321,0,0,0,5.05359.49669A17.58952,17.58952,0,0,0,884.22,53.33691a9.25358,9.25358,0,0,0,4.51544-3.58033,9.49508,9.49508,0,0,0,1.57416-5.27733,7.65473,7.65473,0,0,0-.683-3.22846,5.969,5.969,0,0,0-2.29718-2.52483,9.24694,9.24694,0,0,0-3.84931-1.32448,34.81553,34.81553,0,0,0-4.47021-.28973q-1.24173,0-3.394.04138-2.15268.04169-5.298.04138l-.7392,17.01159-.78,31.04305-6.422-.08276q-1.53277,0-6.25586.08276,1.2476-12.33383,1.87231-28.35267.62376-16.01814.62409-28.14569,4.965.0834,8.317.08277,3.6,0,7.05518-.12415,3.45447-.12414,7.30353-.12421m0-7c-2.63617,0-5.178.04331-7.55493.12874-2.20945.07938-4.4986.11962-6.80378.11962-2.21011,0-4.96878-.02753-8.1994-.08179-.03918-.00066-.07852-.001-.11764-.001a7,7,0,0,0-6.99991,7c0,7.95139-.20819,17.32931-.61878,27.87332-.409,10.48623-1.02877,19.88023-1.84207,27.92056a7,7,0,0,0,6.96421,7.70448q.06124,0,.12249-.00107c3.05625-.0534,5.10425-.08086,6.08918-.08167l6.37622.08217.092.00059a6.99992,6.99992,0,0,0,6.996-6.82419l.22049-8.77565q.10693.2238.20984.44007L880.74747,87.941a7.00007,7.00007,0,0,0,6.46093,4.30812c.03858,0,.07709-.00031.11579-.001,3.30426-.05429,5.62555-.08181,6.89944-.08181,1.02521,0,3.235.02752,6.568.08183.03808.00062.07644.00094.11444.00094a7,7,0,0,0,6.21106-10.22763c-1.5127-2.91112-1.91925-3.65893-2.11747-4.0065l-4.18142-7.32788c-1.7294-3.0633-3.08454-5.49393-4.0437-7.25281q.80817-.37482,1.55313-.79571a21.65354,21.65354,0,0,0,4.27273-3.231,21.2811,21.2811,0,0,0,3.73737-4.8051,22.8532,22.8532,0,0,0,2.2987-5.66657,24.71791,24.71791,0,0,0,.75922-6.15373,20.89029,20.89029,0,0,0-2.20447-9.6613,19.53705,19.53705,0,0,0-6.72293-7.34976,23.13131,23.13131,0,0,0-9.60452-3.57816,68.82009,68.82009,0,0,0-9.57086-.60781ZM877.0231,44.13q1.18818-.01791,1.98685-.01822a27.9532,27.9532,0,0,1,3.57229.2319,3.46918,3.46918,0,0,1,.72727.1627,2.51063,2.51063,0,0,1-.44354,1.436,2.27723,2.27723,0,0,1-1.21088.88145,10.73574,10.73574,0,0,1-3.93793.67207q-.40324,0-.83929-.0233L877.0231,44.13Z" fill="#fff"/><path d="M921.7254,88.7487a3.50033,3.50033,0,0,1-3.49023-3.76172l.90721-12.08593.90138-17.91895.457-14.02783-4.46972.0708s-9.56836.29053-9.60352.29053a3.49873,3.49873,0,0,1-3.49414-3.69434c.2168-3.90576.33984-6.90625.36621-8.917a3.50073,3.50073,0,0,1,3.499-3.45361h.02539c7.89843.05566,16.28515.08349,24.92578.08349l14.84375-.0415s7.94824-.042,7.9541-.042a3.49947,3.49947,0,0,1,3.49121,3.74463c-.26856,3.82812-.4043,6.79541-.4043,8.82031a3.50078,3.50078,0,0,1-3.5,3.5c-.05761,0-.11621-.00147-.17383-.0044-4.87695-.24267-9.61914-.36621-14.09668-.36816l-.27929,4.28906L938.40021,74.236l-.0791,4.791c-.02735,1.98535-.041,4.06348-.041,6.22168a3.49907,3.49907,0,0,1-3.5,3.5c-.01562,0-6.3457-.082-6.3457-.082-.63965,0-2.875.02735-6.65918.082Z"/><path d="M954.548,28.7508h.005m-.005,0q-.41427,5.89039-.41394,9.06458-7.492-.37254-14.36254-.37251h-3.18708l-.49218,7.56152L934.903,74.09309l-.08215,4.87566q-.04074,3.017-.04071,6.28039l-6.2998-.08277q-1.03611,0-6.75513.08277l.90741-12.08612.90668-18.00493.57751-17.71522h-2.89282l-2.68646.04138-2.563.04138-9.547.28975q.33078-5.96029.3725-9.06458,11.91567.0834,24.94958.08343l14.85407-.04138,7.94445-.042m-47.74911-7a7,7,0,0,0-6.99838,6.90611c-.02628,1.96114-.14823,4.912-.36237,8.77059a7,7,0,0,0,6.989,7.38789c.07087,0,.14155-.00106.21262-.00322l9.49728-.28823.74555-.012L916.545,54.86806l-.89923,17.85676-.90094,12.00024a7,7,0,0,0,6.9802,7.52407c.03378,0,.06726-.00024.10107-.00073,3.69336-.05326,5.91626-.08082,6.61047-.082l6.25159.08213.09207.00061a7.00007,7.00007,0,0,0,6.99988-7c0-2.13579.01349-4.217.04007-6.18584l.08035-4.76748,1.1825-28.92167.05914-.90852c3.432.04565,6.99875.15984,10.64429.3411q.17423.00867.34793.00865a7,7,0,0,0,6.99972-7c0-1.91132.12873-4.72734.38266-8.3726q.03355-.34159.03379-.692a6.99786,6.99786,0,0,0-6.9975-7h-.00494l-.03711.0001-7.94446.042-14.83652.0413c-8.60953,0-16.9873-.028-24.8811-.08328l-.05-.00018Zm47.74911,14h0Z" fill="#fff"/><path d="M972.51154,89.74284a52.38324,52.38324,0,0,1-6.61622-.48535c-2.44335-.3164-5.668-.91894-9.584-1.793a3.5,3.5,0,0,1-2.7334-3.23144c-.21582-4.08692-.5-7.44531-.84277-9.98047a3.49982,3.49982,0,0,1,4.916-3.65527,32.85109,32.85109,0,0,0,13.28711,3.37011,11.41863,11.41863,0,0,0,3.78614-.6084,3.73619,3.73619,0,0,0,1.75-1.06835,1.865,1.865,0,0,0,.40136-1.19727,2.50437,2.50437,0,0,0-.16894-.97852,8.50131,8.50131,0,0,0-1.834-2.1289c-.03027-.02735-.05957-.05469-.08886-.082-1.51758-1.46094-4.3086-3.93653-8.29493-7.3584-2.01855-1.75879-3.374-2.98145-4.165-3.75488a32.48644,32.48644,0,0,1-4.22364-4.73145,17.076,17.076,0,0,1-2.38281-4.71777A17.05084,17.05084,0,0,1,957.7,33.14275a17.8247,17.8247,0,0,1,8.02832-6.65821,30.44864,30.44864,0,0,1,12.33008-2.227,73.96431,73.96431,0,0,1,13.999,1.51367,3.50019,3.50019,0,0,1,2.82422,3.26709c.13282,2.77735.40625,6.01709.81055,9.6294a3.49985,3.49985,0,0,1-4.7373,3.65527,30.00951,30.00951,0,0,0-10.63868-2.249,7.83471,7.83471,0,0,0-4.59765,1.19092c-.73926.52783-1.11426,1.01025-1.11426,1.43457a2.26377,2.26377,0,0,0,.07617.541,2.75216,2.75216,0,0,0,.23828.61914,7.90034,7.90034,0,0,0,.86719,1.16162,17.77952,17.77952,0,0,0,2.251,2.12012c1.12695.93213,2.08789,1.68506,2.85644,2.23926a3.51214,3.51214,0,0,1,.30469.24756l5.05078,4.58545c1.34766,1.12256,2.5752,2.2373,3.64941,3.31347a35.82816,35.82816,0,0,1,2.91016,3.2627,18.88434,18.88434,0,0,1,2.10352,3.3164,15.73831,15.73831,0,0,1,1.58789,6.98731,17.47413,17.47413,0,0,1-2.01367,8.18359,17.00855,17.00855,0,0,1-5.81348,6.37207,22.82717,22.82717,0,0,1-7.81641,3.252A40.31934,40.31934,0,0,1,972.51154,89.74284Z"/><path d="M978.058,27.75745a70.17307,70.17307,0,0,1,13.32776,1.44867q.20673,4.30526.82782,9.851a33.30121,33.30121,0,0,0-11.89721-2.4834,11.15057,11.15057,0,0,0-6.63025,1.84185,5.24725,5.24725,0,0,0-2.58179,4.28395,5.72991,5.72991,0,0,0,.17981,1.3866,6.24623,6.24623,0,0,0,.54,1.40728,10.9682,10.9682,0,0,0,1.28241,1.7798,21.43023,21.43023,0,0,0,2.70074,2.5662q1.77723,1.4697,3.03772,2.38l5.10724,4.63572q1.94111,1.61427,3.47034,3.1457a32.17364,32.17364,0,0,1,2.62317,2.93873,15.286,15.286,0,0,1,1.71447,2.69042,12.48957,12.48957,0,0,1,.93,2.62831A12.61594,12.61594,0,0,1,993,71.09349a13.94285,13.94285,0,0,1-1.61426,6.56043A13.4899,13.4899,0,0,1,986.75,82.72429a19.21564,19.21564,0,0,1-6.6225,2.75251,36.56853,36.56853,0,0,1-7.6159.76569,48.84426,48.84426,0,0,1-6.16724-.45527q-3.51846-.45592-9.27148-1.7384-.3318-6.291-.86921-10.26488,8.11194,3.68435,14.73505,3.68378a14.81962,14.81962,0,0,0,4.94623-.80713,6.96615,6.96615,0,0,0,3.394-2.2765,5.36774,5.36774,0,0,0,1.09686-3.2906,5.84318,5.84318,0,0,0-.52777-2.52482,11.67118,11.67118,0,0,0-2.63733-3.18708q-2.36608-2.27583-8.44244-7.4917-2.89572-2.5242-3.99676-3.601a29.58259,29.58259,0,0,1-3.808-4.24255,13.52075,13.52075,0,0,1-1.90393-3.74585,13.54669,13.54669,0,0,1,1.59351-11.279,14.33787,14.33787,0,0,1,6.49835-5.33942A26.90568,26.90568,0,0,1,978.058,27.75745m0-7a33.86346,33.86346,0,0,0-13.75259,2.52932,21.26428,21.26428,0,0,0-9.55789,7.9766,20.54521,20.54521,0,0,0-2.37116,17.1188,20.54317,20.54317,0,0,0,2.86273,5.6928,35.94134,35.94134,0,0,0,4.67649,5.25588c.8414.81976,2.23361,2.07531,4.25308,3.83569l.04083.0353c3.87393,3.32473,6.5947,5.73556,8.08936,7.16781a8.9572,8.9572,0,0,1-1.36011.09807,29.46415,29.46415,0,0,1-11.84033-3.0572,7,7,0,0,0-9.83154,7.3117c.33108,2.448.60556,5.71.81576,9.69528a7,7,0,0,0,5.46607,6.46337c4.07238.90852,7.30944,1.51312,9.89614,1.8483a56.00447,56.00447,0,0,0,7.06678.51332,43.74077,43.74077,0,0,0,9.07126-.91865,26.27677,26.27677,0,0,0,9.01278-3.75052A20.47154,20.47154,0,0,0,997.58759,80.9,20.935,20.935,0,0,0,1000,71.09349a19.21777,19.21777,0,0,0-1.93646-8.508,22.32408,22.32408,0,0,0-2.49118-3.94212,39.3112,39.3112,0,0,0-3.19528-3.5876c-1.13688-1.1383-2.42414-2.30909-3.82938-3.48307l-4.998-4.53655a6.99945,6.99945,0,0,0-.60666-.49183c-.71228-.51433-1.61218-1.22067-2.67483-2.0994-.38632-.3191-.69785-.59079-.94733-.81812a8.75033,8.75033,0,0,1,.99543-.05313,26.58207,26.58207,0,0,1,9.38012,2.0152,7,7,0,0,0,9.47363-7.3105c-.39587-3.53647-.66247-6.70178-.79241-9.408a7,7,0,0,0-5.649-6.53423A77.44849,77.44849,0,0,0,978.058,20.75745Zm-.48336,23.49694Z" fill="#fff"/><path d="M665.63246,57.39732a30.03994,30.03994,0,0,1,22.84768-10.5298,35.14192,35.14192,0,0,1,5.36424.46358,30.03317,30.03317,0,1,0-56.35762,0,29.59712,29.59712,0,0,1,5.43047-.52981A30.48606,30.48606,0,0,1,665.63246,57.39732Z" fill="red"/><path d="M693.84438,47.39732a30.00964,30.00964,0,0,1-22.78146,19.2053,30.26744,30.26744,0,0,1-5.43047,29.86755,30.03231,30.03231,0,1,0,28.21192-49.07285Z" fill="blue"/><path d="M660.26822,66.60262a30.10567,30.10567,0,0,1-22.84769-19.2053A30.01158,30.01158,0,1,0,665.63246,96.404a29.8141,29.8141,0,0,1-5.36424-29.80133Z" fill="lime"/><path d="M660.26822,66.60262a28.371,28.371,0,0,0,5.36423.46358,36.78,36.78,0,0,0,5.43047-.46358,31.97321,31.97321,0,0,0-5.36424-9.2053A28.18657,28.18657,0,0,0,660.26822,66.60262Z" fill="#fff"/><path d="M693.84438,47.39732a28.37191,28.37191,0,0,0-5.36424-.46357,30.14471,30.14471,0,0,0-22.84768,10.5298,29.21355,29.21355,0,0,1,5.36424,9.2053,30.3115,30.3115,0,0,0,22.84768-19.27153" fill="#f0f"/><path d="M660.202,66.66885a28.372,28.372,0,0,0,5.36424.46357,36.78134,36.78134,0,0,0,5.43046-.46357,30.26746,30.26746,0,0,1-5.43046,29.86755A29.81979,29.81979,0,0,1,658.34768,77,32.5069,32.5069,0,0,1,660.202,66.66885" fill="aqua"/><path d="M637.42054,47.39732a29.598,29.598,0,0,1,5.43046-.5298,30.14474,30.14474,0,0,1,22.84768,10.5298,29.21364,29.21364,0,0,0-5.36423,9.2053,29.86851,29.86851,0,0,1-22.91391-19.2053" fill="#ff0"/><path d="M735.63246,85.24914l.74568-9.8096,1.03541-21.73013.49734-15.76987q.04074-2.15167.04139-4.346,0-1.61424-.04139-4.84271,5.29769.08343,8.60862.08278,2.64837,0,7.36691-.12417t7.49172-.12418a31.02535,31.02535,0,0,1,8.40232.82782,13.48807,13.48807,0,0,1,5.00763,2.856,12.7095,12.7095,0,0,1,3.26986,4.67715,17.352,17.352,0,0,1,1.24172,6.58113A18.24208,18.24208,0,0,1,776.63,53.23341a16.46651,16.46651,0,0,1-7.38825,6.519,24.93817,24.93817,0,0,1-10.47186,2.15232,33.58114,33.58114,0,0,1-6.00165-.57947q-.91092-4.30431-2.06953-8.07119a24.61378,24.61378,0,0,0,5.07812.53808,15.58448,15.58448,0,0,0,5.94539-1.03477,8.45264,8.45264,0,0,0,4.0052-3.37334,9.6281,9.6281,0,0,0,1.48618-5.27732,8.03107,8.03107,0,0,0-.61956-3.18709,5.50693,5.50693,0,0,0-1.79662-2.31788,6.75119,6.75119,0,0,0-2.60115-1.17963,20.30479,20.30479,0,0,0-4.06793-.31044q-2.3127,0-4.66616.08279-2.35344.08343-4.17076.08278-.49378,8.1129-.73986,15.52152l-.49345,15.81126q-.24738,8.403-.24706,12.33444,0,1.49006.0414,4.30463l-6.00619-.08278Q740.686,85.16636,735.63246,85.24914Z"/><path d="M817.5861,27.75742a41.07793,41.07793,0,0,1,11.83775,1.697,26.81213,26.81213,0,0,1,10.05794,5.52566,25.19,25.19,0,0,1,6.62252,8.9197,29.33922,29.33922,0,0,1,2.2351,11.87914,35.44415,35.44415,0,0,1-2.11092,12.18957,25.6926,25.6926,0,0,1-6.53974,10.01656,27.59547,27.59547,0,0,1-10.78228,6.22931,44.68453,44.68453,0,0,1-26.07616.16556,27.40481,27.40481,0,0,1-10.51325-5.83609,22.87613,22.87613,0,0,1-6.31209-9.12666,31.93372,31.93372,0,0,1-1.904-11.1548,33.81656,33.81656,0,0,1,2.38-12.58278,24.81724,24.81724,0,0,1,6.995-9.93378,31.659,31.659,0,0,1,10.803-5.96026A42.48586,42.48586,0,0,1,817.5861,27.75742Zm-.66225,8.81623a20.2222,20.2222,0,0,0-10.88576,2.87665,18.09969,18.09969,0,0,0-6.97434,7.86424,25.07809,25.07809,0,0,0-2.33857,10.78228A21.92934,21.92934,0,0,0,798.981,68.0099a15.21807,15.21807,0,0,0,6.933,6.91226,22.54392,22.54392,0,0,0,17.92218.97268,16.95855,16.95855,0,0,0,6.43626-4.28394,18.61537,18.61537,0,0,0,4.077-6.933,26.27816,26.27816,0,0,0,1.3659-8.44371,25.3555,25.3555,0,0,0-1.221-7.86424,16.83647,16.83647,0,0,0-3.78726-6.47765,15.72871,15.72871,0,0,0-6.18791-4.0149A22.25308,22.25308,0,0,0,816.92385,36.57365Z"/><path d="M856.12087,85.24914q1.24755-12.33378,1.87229-28.35265.62376-16.0182.62409-28.14569,4.965.08343,8.317.08278,3.6,0,7.05518-.12417,3.45451-.12417,7.30352-.12418a61.57014,61.57014,0,0,1,8.58535.53808,16.11551,16.11551,0,0,1,6.72405,2.48345,12.57292,12.57292,0,0,1,4.36543,4.71854,13.91836,13.91836,0,0,1,1.428,6.45695,17.63428,17.63428,0,0,1-.53807,4.40812,15.78362,15.78362,0,0,1-1.59354,3.93212,14.22033,14.22033,0,0,1-2.50415,3.22847,14.61317,14.61317,0,0,1-2.87665,2.19371,17.16807,17.16807,0,0,1-3.24918,1.38659q-1.82182.58013-4.8841,1.40729l2.81457,5.46357q1.36589,2.60762,5.17384,9.35431l4.18046,7.32616q.33081.58011,1.98676,3.76655-5.06389-.08245-6.682-.08278-1.99258,0-7.01444.08278l-4.58661-11.00993q-1.199-2.52419-2.89282-5.96027L874.72989,58.221q-.74407-1.40664-2.06631-4.22186a28.89209,28.89209,0,0,0,5.05355.49669A17.58914,17.58914,0,0,0,884.22,53.33689a9.25365,9.25365,0,0,0,4.51547-3.5803,9.49516,9.49516,0,0,0,1.57414-5.27732,7.65492,7.65492,0,0,0-.68294-3.22847,5.96927,5.96927,0,0,0-2.29719-2.52484,9.24694,9.24694,0,0,0-3.84933-1.3245,34.81481,34.81481,0,0,0-4.4702-.28974q-1.24173,0-3.394.0414-2.15265.04171-5.298.04139l-.73921,17.01159-.78,31.043-6.422-.08278Q860.84395,85.16636,856.12087,85.24914Z"/><path d="M921.72518,85.24914l.90736-12.08609.90672-18.005.57753-17.71523H921.224l-2.68651.04139-2.563.04139-9.547.28974q.33081-5.96027.37252-9.06457,11.91569.08343,24.94956.08343l14.85409-.0414,7.94443-.042q-.41422,5.89041-.41391,9.06457-7.492-.37253-14.36257-.37252h-3.1871l-.49215,7.56157L934.903,74.09305l-.08213,4.8757q-.04074,3.017-.04075,6.28039l-6.29979-.08278Q927.44422,85.16636,921.72518,85.24914Z"/><path d="M957.07286,84.04881q-.33177-6.29106-.86921-10.2649,8.11194,3.68442,14.7351,3.68378a14.81978,14.81978,0,0,0,4.9462-.80712,6.966,6.966,0,0,0,3.394-2.27649,5.36745,5.36745,0,0,0,1.09684-3.29057,5.84378,5.84378,0,0,0-.52772-2.52483,11.6719,11.6719,0,0,0-2.63736-3.18709q-2.36607-2.27585-8.44242-7.49172-2.89573-2.52419-3.99679-3.601a29.583,29.583,0,0,1-3.808-4.24255,13.52029,13.52029,0,0,1-1.904-3.74586,13.54658,13.54658,0,0,1,1.59354-11.279,14.33743,14.33743,0,0,1,6.49835-5.3394A26.905,26.905,0,0,1,978.058,27.75742a70.17365,70.17365,0,0,1,13.32782,1.44868q.20664,4.30527.82781,9.851a33.30018,33.30018,0,0,0-11.89724-2.48344,11.15064,11.15064,0,0,0-6.63027,1.84188,5.24723,5.24723,0,0,0-2.58176,4.28394,5.72992,5.72992,0,0,0,.1798,1.38659,6.247,6.247,0,0,0,.54,1.40729,10.969,10.969,0,0,0,1.28247,1.7798,21.42665,21.42665,0,0,0,2.70074,2.56622q1.77722,1.4697,3.03769,2.38l5.10723,4.63576q1.94116,1.61424,3.47035,3.1457a32.16259,32.16259,0,0,1,2.62314,2.93874,15.28428,15.28428,0,0,1,1.71448,2.6904,12.4896,12.4896,0,0,1,.93,2.62831A12.61514,12.61514,0,0,1,993,71.09351a13.943,13.943,0,0,1-1.61425,6.56043A13.49036,13.49036,0,0,1,986.75,82.72431a19.21673,19.21673,0,0,1-6.62252,2.75248,36.568,36.568,0,0,1-7.61589.76573,48.84028,48.84028,0,0,1-6.16721-.4553Q962.82586,85.33128,957.07286,84.04881Z"/></svg>