<svg id="Layer_1" data-name="Layer 1" xmlns="http://www.w3.org/2000/svg" viewBox="0 0 470.29406 247.66267"><title>controller</title><path d="M235.147,196.97614c45.70406-.46224,75.84555,4.41667,99.09555,21.16667,18.93494,13.6413,39.39545,30.17044,67.75,29.5a65.17514,65.17514,0,0,0,30.66321-8.04548c6.88175-3.84667,13.765-9.69988,20.17013-18.78786,44.16666-62.66666-8.846-123.64841-13.01307-129.47867C375.63649,1.53939,281.24258-.0158,235.147,0,189.05148-.01591,94.65758,1.53928,30.48122,91.33069c-4.167,5.83026-57.17974,66.812-13.01307,129.47867,6.40508,9.088,13.28838,14.94119,20.17012,18.78785a65.17506,65.17506,0,0,0,30.66321,8.04549c28.35456.67044,48.81507-15.8587,67.75-29.5C159.30148,201.3927,189.443,196.51378,235.147,196.97614Z" transform="translate(0 0.00011)" fill="#1b1d1f"/><path d="M317.76709,8.37586C285.31288.29269,255.515-.007,235.147,0c-20.368-.007-50.16588.29269-82.62009,8.37586l.00079.00207c4.08629,9.57673,6.21215,13.9961,10.27379,18.43143.928,1.01335,3.50556.8565,6.5.16668,20.64693-6.85854,51.01555-6.97733,65.84551-6.97612,14.83-.00121,45.19858.11758,65.84551,6.97612,2.99445.68982,5.572.84667,6.5-.16668,4.06165-4.43533,6.1875-8.8547,10.27379-18.43143" transform="translate(0 0.00011)" fill="#111"/><ellipse cx="346.95089" cy="123.89939" rx="73.34426" ry="94.69781" transform="translate(49.40771 341.14138) rotate(-55.786)" fill="#111"/><ellipse cx="341.63643" cy="122.10888" rx="59.90948" ry="74.87653" transform="translate(48.56215 335.96291) rotate(-55.78601)" fill="#090909"/><circle cx="294.05965" cy="108.33429" r="14.5" fill="#6a6a6d"/><circle cx="332.26709" cy="91.94488" r="14.5" fill="#6a6a6d"/><circle cx="371.92453" cy="79.33429" r="14.5" fill="#6a6a6d"/><circle cx="309.18026" cy="153.92903" r="19" fill="#262626"/><circle cx="355.09625" cy="134.55551" r="19" fill="#262626"/><circle cx="401.01429" cy="118.1837" r="19" fill="#262626"/><ellipse cx="116.59205" cy="117.67834" rx="84.95311" ry="69.28551" transform="translate(-45.99177 85.92312) rotate(-34.21398)" fill="#191818"/><ellipse cx="118.46672" cy="113.36036" rx="63.70848" ry="54.78387" transform="translate(-43.23939 86.22991) rotate(-34.21397)" fill="#0f0f0f"/><circle cx="119.21754" cy="111.14801" r="47.5"/><circle cx="119.21754" cy="111.14801" r="41.75" fill="#373737"/><polygon points="95.782 86.329 99.111 93.266 102.734 89.651 95.782 86.329" fill="#1f1f1f"/><polygon points="95.782 134.605 102.734 131.283 99.111 127.668 95.782 134.605" fill="#1f1f1f"/><polygon points="144.024 134.858 140.694 127.921 137.071 131.535 144.024 134.858" fill="#1f1f1f"/><polygon points="144.53 86.654 137.577 89.976 141.2 93.591 144.53 86.654" fill="#1f1f1f"/><path d="M160.96758,111.1479c-.00164,2.02012-.01188,4.04369-.07586,6.05389-.09517,3.05842-1.68491,4.4356-4.7978,4.66355a80.73824,80.73824,0,0,0-12.01359,1.56721c-6.79693,1.53868-11.11875,5.96484-12.63238,12.737a84.25414,84.25414,0,0,0-1.53262,11.24573c-.35222,4.09368-1.21852,5.25248-5.21666,5.38541q-2.73608.09579-5.48106.09722-2.74288-.00353-5.481-.09722c-3.99814-.13293-4.86445-1.29173-5.21667-5.38541a84.25414,84.25414,0,0,0-1.53262-11.24573c-1.51362-6.77215-5.83545-11.19831-12.63238-12.737a80.73789,80.73789,0,0,0-12.01359-1.56721c-3.11289-.228-4.70263-1.60513-4.7978-4.66355-.064-2.0102-.07422-4.03377-.07586-6.05389.00164-2.02012.01189-4.04369.07586-6.05389.09517-3.05842,1.68491-4.4356,4.7978-4.66354a80.73922,80.73922,0,0,0,12.01359-1.56722c6.79693-1.53868,11.11876-5.96484,12.63238-12.737a84.25414,84.25414,0,0,0,1.53262-11.24573c.35222-4.09368,1.21853-5.25248,5.21667-5.38541q2.73606-.09579,5.481-.09722,2.74289.00352,5.48106.09722c3.99814.13293,4.86444,1.29173,5.21666,5.38541A84.25414,84.25414,0,0,0,131.448,86.12626c1.51363,6.77215,5.83545,11.19831,12.63238,12.737a80.73957,80.73957,0,0,0,12.01359,1.56722c3.11289.22794,4.70263,1.60512,4.7978,4.66354C160.9557,107.10421,160.96594,109.12778,160.96758,111.1479Z" transform="translate(0 0.00011)" fill="#181818"/><polygon points="103.956 119.69 79.621 119.69 79.621 101.879 103.956 101.879 110.312 95.976 110.312 71.641 128.123 71.641 128.123 95.976 134.612 102.343 158.947 102.343 158.947 120.154 134.612 120.154 128.256 126.058 128.256 150.393 110.445 150.393 110.445 126.058 103.956 119.69" fill="#2c2c2c"/><path d="M127.98974,111.14317a8.77224,8.77224,0,1,1-8.76747-8.74778A8.7615,8.7615,0,0,1,127.98974,111.14317Z" transform="translate(0 0.00011)" fill="#242424"/><path d="M119.21832,119.9004a8.76568,8.76568,0,0,1-7.72513-4.61191v-.01711a8.79879,8.79879,0,0,1,7.71556-4.48694h-.005a8.79878,8.79878,0,0,1,7.71556,4.48694v.01711a8.76568,8.76568,0,0,1-7.72512,4.61191" transform="translate(0 0.00011)" fill="#404040"/><path d="M362.09619,131.77787c.85065-.43756,1.23017-.939,1.16608-1.50849l-.148-.47556c-.34291-.91669-1.90446-.86408-4.66044.14317l-12.45454,4.55188.31095.91108,1.36976,3.6617.36918.90708,12.45454-4.55188c2.756-1.00726,3.97462-1.97655,3.6336-2.88816l-.20056-.45633C363.64653,131.69482,363.04157,131.59353,362.09619,131.77787Zm-1.748,2.6653-1.61421.59-8.67864,3.16037-.51342-1.3725,8.77995-3.2089,1.51291-.54141q1.575-.57563,1.82882.103Q361.92217,133.86506,360.34815,134.44317Zm-.86011-2.29929L349.199,135.90432l-.51343-1.37251,10.28907-3.76044q1.575-.57561,1.83451.11823C360.97964,131.34542,360.538,131.76013,359.488,132.14388Z" transform="translate(0 0.00011)" fill="#141415"/><circle cx="357.79596" cy="145.14412" r="1.06869" fill="#191818"/><path d="M317.4989,152.36967l-2.18815.80759-2.58858-.84616-8.29943,3.06308-1.27751,2.273-2.28361.84281,4.53017-7.97314,3.22174-1.189Zm-5.97877-.59532-3.49951-1.22276-1.41205.52115-1.60119,3.10528Z" transform="translate(0 0.00011)" fill="#141415"/><path d="M403.75085,115.52292l-6.00037,2.11082c-4.01973,1.40719-3.45171,1.8937-3.02359,3.11375s.28369,1.95322,4.29328.54625l10.609-3.72271.3211.91509-10.59442,3.7226c-5.60561,1.97035-6.36622,1.21392-7.00834-.616-.64222-1.83019-.54368-2.8981,5.01919-4.85706l10.65711-3.7396.31841.90743Z" transform="translate(0 0.00011)" fill="#141415"/><path d="M300.31548,109.88787l-3.25338-.50982c-1.31112-.17024-2.13923-.28972-2.94316-.43983l-.0624.02271c-.457.609-.92368,1.18837-1.81036,2.1814l-2.01129,2.41457-3.15035,1.14664,5.24391-5.785-7.45383-1.07192,3.18156-1.158,3.38063.56535c.94835.15574,1.6715.27809,2.37022.43324l.0936-.03407c.45328-.61912.87505-1.12494,1.506-1.84407l2.32083-2.64052,3.15036-1.14663-5.26014,5.64331,7.87934,1.06463Z" transform="translate(0 0.00011)" fill="#484849"/><path d="M331.90745,95.90629l-1.04476-2.87046-8.12751-1.45235,3.11915-1.13528,3.67189.77735c1.00493.21413,1.78534.3967,2.61865.62756l.06332-.023c.43767-.65917,1.00072-1.365,1.63382-2.17534l2.37647-2.97877,3.11824-1.135-5.70543,6.4757,1.04844,2.88056Z" transform="translate(0 0.00011)" fill="#484849"/><path d="M365.22,85.02515l9.7836-9.77869-.01069-.02937L364.2186,79.13863l-.26687-.73321,14.334-5.21715.19372.53225L368.75181,83.456l.011.03029,11.87555-4.32235.26654.7323-15.49851,5.641Z" transform="translate(0 0.00011)" fill="#484849"/><path d="M215.603,125.10614a2.69048,2.69048,0,0,1-1.11839-.21254,2.21257,2.21257,0,0,1-.80141-.60314,2.65137,2.65137,0,0,1-.48664-.91909,4.28266,4.28266,0,0,1-.18305-1.17183h1.08267a2.18664,2.18664,0,0,0,.154.71229,1.55012,1.55012,0,0,0,.32369.49975,1.2535,1.2535,0,0,0,.4487.293,1.54009,1.54009,0,0,0,.54245.09191,1.85873,1.85873,0,0,0,.49335-.07468,1.12071,1.12071,0,0,0,.384-.201.85311.85311,0,0,0,.24555-.31594.9866.9866,0,0,0,.08706-.41933.913.913,0,0,0-.08259-.40784.88483.88483,0,0,0-.27458-.29871,2.24244,2.24244,0,0,0-.49334-.24125c-.20538-.06894-.4554-.14361-.75453-.21829a4.50749,4.50749,0,0,1-.88177-.34465,2.07643,2.07643,0,0,1-.60719-.45954,1.76677,1.76677,0,0,1-.35047-.61464,2.47807,2.47807,0,0,1-.11162-.79845,2.4453,2.4453,0,0,1,.15626-.89036,2.05125,2.05125,0,0,1,.44647-.70655,2.184,2.184,0,0,1,.68979-.46528,2.50544,2.50544,0,0,1,1.826.01148,2.10378,2.10378,0,0,1,.73.517,2.41757,2.41757,0,0,1,.48.82717,3.4294,3.4294,0,0,1,.18528,1.1029h-1.06928c-.0759-.87313-.48665-1.30969-1.22778-1.30969a1.29384,1.29384,0,0,0-.83043.23551.80289.80289,0,0,0-.28573.64911.57469.57469,0,0,0,.26118.517,1.52309,1.52309,0,0,0,.35494.18956,5.12049,5.12049,0,0,0,.52236.17233c.17859.046.35941.09191.54692.14935a3.98938,3.98938,0,0,1,.55139.21254,2.87043,2.87043,0,0,1,.50673.29295,1.8809,1.8809,0,0,1,.41745.42508,1.9399,1.9399,0,0,1,.2835.58591,2.65508,2.65508,0,0,1,.10492.787,2.69928,2.69928,0,0,1-.16965.97078,2.30291,2.30291,0,0,1-.471.75824,2.13544,2.13544,0,0,1-.71881.494A2.24767,2.24767,0,0,1,215.603,125.10614Z" transform="translate(0 0.00011)" fill="#d5d5d5"/><path d="M223.40276,118.60938h-1.85507l-.00669,6.37039h-1.11616l.00669-6.36465h-1.84836l.00223-1.32692h4.81736Z" transform="translate(0 0.00011)" fill="#d5d5d5"/><path d="M229.37869,124.974h-1.24117l-.65184-2.2h-2.08722l-.62282,2.2-1.17867.00575,2.29706-7.69732h1.06259Zm-2.23679-3.42358-.721-2.42982-.68532,2.43557Z" transform="translate(0 0.00011)" fill="#d5d5d5"/><path d="M235.19166,124.96828h-1.19875l-.567-2.09666a1.9564,1.9564,0,0,0-.1652-.39635,1.36118,1.36118,0,0,0-.23886-.31594,1.11563,1.11563,0,0,0-.29913-.20679.90558.90558,0,0,0-.35047-.07467h-1.1943l-.00223,3.09041h-1.11393l.0067-7.69157h2.67432c.1585,0,.3103.00574.4554.01149a1.96057,1.96057,0,0,1,.41521.06318,1.91629,1.91629,0,0,1,.38173.16084,1.32006,1.32006,0,0,1,.346.28722,1.64827,1.64827,0,0,1,.25672.36189,2.372,2.372,0,0,1,.18081.41933,2.87427,2.87427,0,0,1,.10939.46528,2.90935,2.90935,0,0,1,.03795.47678,2.58908,2.58908,0,0,1-.26565,1.212,1.85828,1.85828,0,0,1-.72774.76973,2.755,2.755,0,0,1,.62059,1.18906Zm-4.01148-4.4116h1.48226a2.5279,2.5279,0,0,0,.5112-.05744.80581.80581,0,0,0,.35048-.17233.72219.72219,0,0,0,.19867-.32168,1.595,1.595,0,0,0,.06251-.48251,1.00318,1.00318,0,0,0-.24556-.7525,1.08346,1.08346,0,0,0-.76345-.23552h-1.59611Z" transform="translate(0 0.00011)" fill="#d5d5d5"/><path d="M240.614,118.59215h-1.85506l-.00669,6.37039h-1.11616l.0067-6.36465h-1.84837l.00223-1.32693H240.614Z" transform="translate(0 0.00011)" fill="#d5d5d5"/><circle cx="329.73346" cy="101.2815" r="1.06869" fill="#484849"/><circle cx="339.65858" cy="98.01912" r="1.06869" fill="#484849"/><g id="SEGA"><path d="M252.91779,65.94666h-7.71046v-1.9934h5.285c-.38429-1.2848-.70232-2.33018-1.00984-3.37966-.76652-2.616-1.48267-5.2536-2.32484-7.83656a2.48353,2.48353,0,0,0-1.25669-1.52921c-.84676-.21763-1.1216.75369-1.3567,1.55752-1.17233,4.0084-2.37837,8.004-3.51264,12.02663-.26642.94483-.65559,1.2637-1.51586,1.23779-2.36541-.07123-4.73361-.00647-7.10045-.03-2.39788-.02382-3.966-1.75815-4.01833-4.50162q-.07066-3.70676.0006-7.41652c.0583-2.7871,1.57607-4.48253,3.99871-4.52059,2.13325-.03352,4.26721-.007,6.47637-.007v2.09862c-1.83355,0-3.65667.00038-5.47978-.00009-2.57194-.00066-3.16214.68613-3.16273,3.68327-.00037,1.86535-.00761,3.73076.00212,5.596.01041,1.99513.83253,2.96777,2.53144,2.98765,1.37908.01614,2.75842.00328,4.20835.00328V57.41645H233.462v-2.0244h5.46932v8.57168l.29867.03869q1.73532-5.91124,3.46979-11.82283c.65959-2.25342,1.87415-3.16938,3.83319-2.83673a2.764,2.764,0,0,1,2.25437,2.08053c1.41672,4.73245,2.79073,9.482,4.17551,14.22711A.8961.8961,0,0,1,252.91779,65.94666Z" transform="translate(0 0.00011)" fill="#d5d5d5"/><path d="M204.59762,65.99023V63.91538c2.05712,0,4.07435.02479,6.09088-.00764a3.10442,3.10442,0,0,0,3.0098-3.15265,3.17834,3.17834,0,0,0-2.848-3.34349c-.67393-.05229-1.35678.0196-2.027-.06046a2.31041,2.31041,0,0,1-1.78292-2.44069c.001-1.25977.7454-2.38539,1.78616-2.41894,2.20574-.0711,4.41439-.02168,6.68015-.02168v2.05273h-6.48489l-.00611.69042c.61836.03038,1.23648.07323,1.85512.08892,2.33149.05915,4.01548,1.56117,4.5968,4.11153.70981,3.11414-1.31221,6.42839-4.0971,6.55635C209.16124,66.07129,206.94575,65.99023,204.59762,65.99023Z" transform="translate(0 0.00011)" fill="#d5d5d5"/><path d="M204.57917,63.10132V60.9579h6.50759l.002-.60231c-.66353-.02964-1.32685-.07353-1.99062-.0862a4.32824,4.32824,0,0,1-4.06569-2.91809,5.874,5.874,0,0,1,.39209-5.64131,3.86588,3.86588,0,0,1,3.098-2.08955c2.28617-.08116,4.57605-.02262,6.954-.02262V51.6537c-2.05394,0-4.10917-.0383-6.16283.01081a3.19072,3.19072,0,0,0-2.74745,4.2733,3.02864,3.02864,0,0,0,2.78372,2.21963c.63715.04157,1.28054-.01089,1.9142.06073a2.32709,2.32709,0,0,1,1.819,2.41225c.01164,1.22525-.76557,2.41834-1.7696,2.44959C209.10654,63.14871,206.89673,63.10132,204.57917,63.10132Z" transform="translate(0 0.00011)" fill="#d5d5d5"/><path d="M227.44588,49.62459v2.02792c-2.03415,0-4.04843-.0018-6.06271.00049-2.118.00241-2.85616.82981-2.87,3.25323-.0111,1.95035-.00468,3.901.00851,5.85134.01523,2.25154.79731,3.1584,2.71815,3.1641,2.01948.006,4.039.00134,6.13463.00134v2.08225c-1.507,0-2.99108.00341-4.47515-.00123-.93833-.00293-1.87967.03423-2.81427-.03875A4.00078,4.00078,0,0,1,216.75224,62.06q-.096-4.28756-.00083-8.57991c.03756-1.83053,1.43657-3.71548,3.02006-3.81352C222.30488,49.50974,224.8509,49.62459,227.44588,49.62459Z" transform="translate(0 0.00011)" fill="#d5d5d5"/><path d="M241.31983,65.90006c1.30819-4.46673,2.57966-8.83688,3.88228-13.19462a1.27466,1.27466,0,0,1,.642-.7414c.14309-.05738.54481.28405.61985.5308,1.0624,3.49326,2.08873,7.00114,3.15282,10.60374H245.1999l-.13649-1.44-.18971-.0761c-.2517.80862-.50982,1.61465-.75384,2.42634C243.47249,66.16216,243.47491,66.16313,241.31983,65.90006Zm3.77547-5.16h1.54951l-.6502-2.22772-.267.01866Z" transform="translate(0 0.00011)" fill="#d5d5d5"/><path d="M234.75409,60.5303,233.4513,60.109V58.266h2.86446v4.82791a40.91285,40.91285,0,0,1-4.35757-.06261c-.37334-.04014-.96067-.83583-.97852-1.30821-.09815-2.59789-.0694-5.20341-.04158-7.80571.00975-.91251.49286-1.44726,1.28963-1.45575,2.17589-.02319,4.35208-.008,6.62508-.008v2.0635c-1.6366,0-3.24289.051-4.84523-.01885-.98284-.04283-1.36239.35409-1.29995,1.49968.06594,1.20994.00425,2.42855.01773,3.64308C232.74144,61.09021,233.34694,61.43891,234.75409,60.5303Z" transform="translate(0 0.00011)" fill="#d5d5d5"/><path d="M221.16842,60.88008c2.02151.41688,4.116-.01959,6.21183.24213v1.96833c-2.3973,0-4.748.06416-7.0907-.06555-.37392-.0207-.93371-.86465-1.01875-1.409a22.46319,22.46319,0,0,1-.04748-3.33571h6.67006v1.946h-4.66319Z" transform="translate(0 0.00011)" fill="#d5d5d5"/><path d="M227.4464,52.4732v1.95528c-2.0801.32694-4.21306-.20914-6.25657.29049l.0208.5377h4.68615v2.04275H219.244a31.37041,31.37041,0,0,1,.04974-3.66275A1.57422,1.57422,0,0,1,220.33,52.52491C222.68145,52.42281,225.03789,52.4732,227.4464,52.4732Z" transform="translate(0 0.00011)" fill="#d5d5d5"/></g><rect x="201.61398" y="96.76781" width="48.8125" height="18.3125" rx="6.75046" fill="#191818"/><rect x="206.71217" y="101.73196" width="37.72559" height="8.46113" rx="3.11899" fill="#b7b7b7"/></svg>