<svg xmlns="http://www.w3.org/2000/svg" viewBox="0 0 192.6 236.7"><path fill-rule="evenodd" clip-rule="evenodd" fill="#1D1D1D" d="M0 0h192.6v236.7H0z"/><path fill-rule="evenodd" clip-rule="evenodd" fill="#D1E0EB" d="M184.7 222c0 2.5-2 4.5-4.5 4.5H15.5c-2.5 0-4.5-2-4.5-4.5V16.2c0-2.5 2-4.5 4.5-4.5h164.7c2.5 0 4.5 2 4.5 4.5V222z"/><path fill-rule="evenodd" clip-rule="evenodd" fill="#DA1E3D" d="M10.9 91.5h173.8v20.4H10.9z"/><path fill-rule="evenodd" clip-rule="evenodd" fill="#1D1D1D" d="M32.8 111.9h124.6v85H32.8z"/><linearGradient id="a" gradientUnits="userSpaceOnUse" x1="10.931" y1="90.071" x2="184.609" y2="90.071"><stop offset=".016" stop-color="#fcdc05"/><stop offset=".059" stop-color="#f7ac12"/><stop offset=".116" stop-color="#f06824"/><stop offset=".306" stop-color="#e92429"/><stop offset=".343" stop-color="#d32735"/><stop offset=".42" stop-color="#9a2e53"/><stop offset=".531" stop-color="#3f3983"/><stop offset=".557" stop-color="#293c8f"/><stop offset=".676" stop-color="#293e90"/><stop offset=".719" stop-color="#294595"/><stop offset=".75" stop-color="#29509e"/><stop offset=".774" stop-color="#2861ab"/><stop offset=".796" stop-color="#2877bb"/><stop offset=".814" stop-color="#2792cf"/><stop offset=".826" stop-color="#27a7df"/><stop offset=".83" stop-color="#1fa6c1"/><stop offset=".836" stop-color="#17a5a2"/><stop offset=".843" stop-color="#10a386"/><stop offset=".85" stop-color="#0aa370"/><stop offset=".859" stop-color="#05a25f"/><stop offset=".87" stop-color="#02a154"/><stop offset=".885" stop-color="#00a14d"/><stop offset=".927" stop-color="#00a14b"/><stop offset="1" stop-color="#89be6a"/></linearGradient><path fill-rule="evenodd" clip-rule="evenodd" fill="url(#a)" d="M10.9 88.7h173.7v2.8H10.9z"/><path d="M108.9 63.2V51.9c0-3.3 1.7-5.1 4.8-5.2 1.3 0 2.5-.1 3.8 0 5 .2 8.9 4.5 8.4 9.7-.3 3.2-2 5.5-4.6 7.1-1.5.9-1.5.9-.6 2.5 1.8 3.1 3.7 6.1 5.5 9.2.6 1.1.6 1.2-.6 1.2-4 .1-4 .1-6.1-3.4-1.3-2.2-2.7-4.5-4.1-6.7-1.6-2.7-.6-5.4 2.3-6.4 2.5-.8 3.7-3.2 2.7-5.6-.6-1.4-1.6-2.3-3.2-2.4-3.7-.3-3.7-.3-3.7 3.5v19.3c0 1.7 0 1.7-1.6 1.7-3.3 0-3.2 0-3.2-3.3.2-3.3.2-6.6.2-9.9zm-4.2 13.2c-2.8-.1-2.4.4-3.3-2.6-.4-1.3-.7-2.5-1-3.8-.2-.7-.5-1-1.2-1h-6.5c-.7 0-1 .4-1.1 1.1l-1.5 5.1c-.2.8-.6 1.2-1.5 1.2h-2.7c-.9 0-1.1-.3-.8-1.2.8-2.8 1.6-5.7 2.5-8.5 1.6-5.6 3.3-11.1 4.9-16.7.4-1.4 1.1-2.6 2.5-3.1 1.8-.7 3.8.1 4.4 2.1 1.1 3.3 2 6.7 3 10l4.5 15.9c.4 1.4.3 1.5-1.1 1.5h-1.1zm-8.5-20.8c-.1 0-.3 0-.4-.1-.8 2.7-1.6 5.4-2.3 8.1-.2.6.3.7.7.7h3.6c.6 0 .8-.2.6-.8-.6-2.7-1.2-5.4-2.2-7.9zM72.6 76.5c-2.3 0-2.3 0-2.9-2.6-.3-1.3-.7-2.5-1-3.8-.2-.7-.6-1-1.3-1-1.9 0-3.9.1-5.8 0-.9 0-1.3.4-1.6 1.2-.4 1.7-1 3.3-1.4 5-.2.9-.7 1.2-1.5 1.1h-2.2c-1.2 0-1.3-.2-1-1.3l6.6-22.8c.3-1.1.6-2.1 1-3.1.6-1.6 2.1-2.7 3.6-2.6 1.5.1 2.6 1.2 3.1 3 2.1 7.7 4.1 15.5 6.1 23.2.2.9.4 1.7.7 2.6.3.9 0 1.2-.8 1.2-.5-.2-1-.1-1.6-.1zm-8.1-21.1c-1 2.7-1.7 5.5-2.5 8.2-.2.6.2.8.7.8h3.4c.9 0 1-.4.8-1.2l-1.8-6.9c-.1-.3-.1-.7-.6-.9zm18.1 19.7c0 1-.3 1.4-1.3 1.4h-2.1c-1.5 0-1.5 0-1.5-1.7.1-4.7.1-9.4.2-14.1 0-2.6 0-5.1.1-7.7 0-.9-.3-1.3-1.2-1.3-1.3.1-2.6 0-3.9 0-.7 0-1.1-.3-1-1.1.1-1 .1-2 .1-2.9 0-.7.3-1 1.1-1 4.9 0 9.8 0 14.7-.1 1 0 1.4.4 1.3 1.4-.1.9-.1 1.8-.1 2.7 0 .6-.3.9-.9.9-1.4 0-2.8.1-4.3 0-.8 0-1.1.3-1.1 1.2.2 3.9-.1 18.6-.1 22.3zm45.9-13.6V48c0-.9.3-1.3 1.2-1.3h2.6c1-.1 1.2.5 1.2 1.4V75c0 1.1-.3 1.6-1.4 1.5-.6-.1-1.2 0-1.8 0-1.8 0-1.8 0-1.8-2v-13zm12.9-6.1c3.1 1.9 4 3.5 3.3 5.8-.5 1.8-2.4 3.1-4.1 3-2-.1-3.7-1.8-4-3.8-.3-2 .9-3.7 3.7-4.9-2.6-1.1-4.5-2.7-3.4-5.9.6-1.9 2.5-3 4.4-2.7 1.8.2 3.2 1.7 3.5 3.4.3 2.3-.6 3.7-3.4 5.1zm2 4.5c0-1.6-1.1-2.9-2.6-2.9-1.4 0-2.7 1.3-2.7 2.8 0 1.6 1.3 2.8 2.9 2.8 1.3.1 2.3-1 2.4-2.7zm-.1-8.8c0-1.7-1-2.8-2.6-2.9-1.5 0-2.7 1.2-2.7 2.8 0 1.5 1.3 2.8 2.8 2.8 1.4.1 2.5-1.1 2.5-2.7zm-.1 22.2c.2-.6.1-1.2.1-1.7s.2-.9.8-.9c.6 0 .8.3.8.9v3.8c0 .9-.8 1.1-1.5.5-.7-.6-1.3-1.4-2-2-.4-.4-.7-.8-1.1-1.2-.6-.5-1.3-.6-1.8.1s-.2 1.4.5 1.8c.1.1.2.1.3.2.5.2.6.6.4 1-.2.6-.6.4-1 .3-1.1-.3-1.7-1.1-1.9-2.3-.2-1.2.3-2.1 1.3-2.7 1-.7 2-.6 3 .1.5.4.9.9 1.4 1.4 0 .3.2.6.7.7zm-1.2-3c-.6.1-1.1-.2-1.7-.5-1-.7-2.1-1.4-3.1-2.1-.4-.2-.7-.5-.7-1 0-.3 0-.5.2-.7.2-.2.5 0 .7.1.1.1.2.1.3.2.9.8 1.4.8 1.9-.5.5-1.2 2.2-1.7 3.4-1.2 1.3.5 2.1 1.9 1.8 3.2-.2 1.6-1.3 2.5-2.8 2.5zm1.5-2.8c0-.9-.6-1.5-1.4-1.5-.8 0-1.5.7-1.4 1.5 0 .8.7 1.5 1.5 1.5.7 0 1.3-.6 1.3-1.5z" fill-rule="evenodd" clip-rule="evenodd" fill="#DE1E26"/></svg>