<svg baseProfile="tiny" xmlns="http://www.w3.org/2000/svg" viewBox="0 0 85 85"><path fill="#1D1D1D" d="M67.8 49.1c-6.2-6.7-12.8-4.9-15.2 2.8-.8-.2-1.8-.3-2.5-.7.4-1.8.5-5-.8-5.8-1.2-.7-1.9 1.2-2.2 0-.4 1-.8.2-.9.2 1.1-1.4 4-3.5 6.7-3 .8.1.6-.6 0-.9-2.5-.5-6.1 2.4-7.3 3.8 0-2.4 1.1-5.5 4.3-6.4.5-.5-.1-1.2-.6-.9-2.3 1.4-4 3.8-4.2 6.8-.7-.5-1.5-1-2.2-1.2 1.1-1.5 2.9-4.1 3-9.4.1-11.3-7.2-11-7.5-33.6-3-.9-4.8 5.3-2.8 13.3-2.5-.9-3.3 2.8-.3 10.7-1.7.9-1.9 4.1 1.2 7.7-1.8.9-1.9 2.9 1.2 6.6-.9 1-.6 2.7.9 4-2.9.1-5.3.9-7.3 2.7.7-4.6 2.5-9.4-3.4-16.7-6.6-8.3-13.4-15-18-29C4.4-1.4 5 9.3 14.2 19.8c-1.2-.7-2.8-3.4-3.7-1.3-1.2 3 1.8 6.9 4.4 9.9-1-.6-2-1.3-2.9.4-1.1 3 .8 4.9 3 7.2-1.8 2.8-.2 5.5 4.6 8.4 0 2.9.9 4.7 2.6 5.9-.5 3.3 2 4.9 4.8 3.4-.1 2.8.6 5.3 2 7.4-4.1-.4-5.9.8-6.3 2.4 1.1-.4 2.4-.7 3.3-.3-5.4.8-6.3 4.7-4.5 11.2.5-3.9.7-3.8 1.5-4.8-1.1 4.1 1 7.3 8.3 9.5-1.8-1.4-2.3-2.1-3.1-3.3 3.7 2.1 9.2 3 10.6-.2.8.5 1.1.6 2 .6 0 .1.5 1.5.5 1.5.3 1.8 2.3 4.4 4.6 5.6.1.1-.2-1.8-.2-1.7.3.7 1.2 2.7 2 3.1.5.2.1-2.9.5-2.5.7.7 1.6 1.5 2.7 1.9 1.3.5 3 0 4.1-.8 1.3-1 2.6-2.5 3.2-3.6 1.6-.9 2.6-2 3.7-3.4-.3.6-.7 1.3-1 2.5 1.1-.7 2.2-1.5 3.1-2.5 0 0 .1.2.2.2 4.4-2.6 5.7-6.6 3.8-10.2 4.2-6 3.8-11.8-.2-17.2z"/><path fill="#C4C4C4" d="M60.4 70.7c2.3-.2 4.6-1.1 6.8-2.8 1.3 3.4-.1 6-2.8 8.2.1-.6 0-.9 0-1.4-.5 1.2-1.2 2.3-2.2 3.2 1.2-2.2.4-4.6-1.8-7.2zM45.8 82.9c0-.7-.1-1.4-.1-2.1.5 1.5 1.2 2.8 2.2 3.8-.6-5 2.2-9.7 7.5-14.3-1.5-.6-2.9-1.2-4.2-2.2-2.2 2.6-5 2.4-7 1.6-3.1 5.4-3.1 10.2 1.6 13.2zM38.6 75.3c-.7-1.2-1-2.4-.9-3.7-3.2 4.2-10.5 1.6-11.7-2.1-1-2.9.5-7.3 4.7-7.5-2.6-.9-5.2-.3-7.1.8 1.3-.2 2.6-.3 3.4.3-4.8 1.8-5.9 3.8-5.4 7.8.5-.8 1.1-1.6 2.1-1.7-.7 3.3.7 6.3 5.8 8.8-1.4-1.5-2.7-2.8-2.6-4.3 2.2 3.4 10.5 4.4 11.7 1.6zM31.8 61.8c-.3-2.2 0-4.6 1.6-7 1.4.2 3.3 1.6 5.6 3.3-.9-.2-1.8-.3-2.6-.2 2.2 1.9 4.2 3.8 4.6 5.9-1.1-1.3-1.9-1.9-2.4-1.9.8 1.9 1.1 3.5.9 4.5-.5-1.2-1-2.4-1.5-2.7-.2.1-.3.2-.2.6-2-2.1-4-2.5-6-2.5z"/><path fill="#494949" d="M54.4 78.4c.7-1.5-.6-2.8-2.3-3.6-.4-.1.7 1.5.9 2.2-.4-.6-1.1-1.8-1.3-1.5-.5.4-.9 1.3-1.3 2.1 1.6 1.1 3 1.9 4 .8z"/><path fill="#C6C6C6" d="M45.2 45.5c-5.3-2.4-10-2.3-14.1 1.1l-1.2 2.7c2.1-.1 2.2 5.9.5 6.7-1.8.7-2.2-2.2-2.2-4.6l-.3.3c-.2 1.3-.1 2.7.2 4.1.5 2.3 1.6 4.5 3.4 6-.7-2.5.3-7.1 4.2-11.1 0-.4 0-.8-.1-1.1h.4c0 .3 0 .7.1 1 .3-.1.6-.2.8-.3-1.1-3.8.9-4.7 4.3-4.1 1 .3 1-.1.1-1.1.6.1 1.3.6 2 1.7.3-.1.6-.1.8-.1v-.4c.3.2.7.3 1.1.3v-1.1z"/><path fill="#C4C4C4" d="M50.4 51.8c.6.2 1.3.5 1.9.8-.1.4-.2.9-.2 1.3-.8-.7-1.6-1.4-1.7-2.1z"/><path fill="#BBB" d="M59.6 70.8c-.8-.1-1.6-.1-2.4-.1-.2.7-.6 1-1.2 1.2-.8.4-.9 2-1 3.5-.1 1.2.3 2.7-.2 3.4 1-.2 1.9-.5 2.5-1.7h.3c-.8 2.8-5.3 3.5-7.6.9-.8 1.2-1.5 2.8-1.6 3.8 1.8 2 3.9 2.9 6.1 1.5 2.1-1.6 3.2-3.8 3.4-6.3h.3c.1.7.1 1.4-.1 2.1 1.3-1 2.3-2.2 3.3-3.6.9-1.1-.5-3-1.8-4.7z"/><path fill="#BBB" d="M55.4 71l.5-.5c.3.1.7.1 1 .2-.3 1-1 .9-1.5.3z"/><path fill="#FFF" d="M51.3 57.1c.3-1.1-2.5-6.2-3.6-5.8-.4.2.3 2 1.3 4.2 1-.7 2.2 1.9 2.3 1.6z"/><path fill="#FFF" d="M49.4 56c0-.3.2-.3.5 0 .3.2.5.7.5.9 0 .3-.2.3-.5 0-.2-.2-.5-.6-.5-.9zM43.2 56.7c0-.4.5-.4 1-.1.6.4 1 1 1 1.4s-.5.4-1 .1-1-1-1-1.4z"/><path fill="#FFF" d="M42.5 57c-1.4-3.1-2.1-5.5-.9-6.1 1.7-.7 7 5.4 7.2 11.2-.5-.4-1-.6-1.6-.6-.4-4.8-4.2-7.2-4.4-4.5-.1.2-.2.2-.3 0z"/><path fill="#BBB" d="M54.3 49.7c1.2-2.4 3-4.3 5.8-4.2 5.4.6 9.3 5.5 9.8 10.9v2.7c-.4 3.8-2.6 7.6-7.1 9.9-.5 0-1-.1-1.5-.1 0 .2.2.3.5.5-.4.3-1.1.2-1.8 0 0 .1 0 .4-.1.5-.4-.1-.9-.2-1.2-.4v.5c-.5-.1-.9-.3-1.3-.6v.4c-.6 0-1.2-.3-1.8-.9 0 .2.1.4.1.6-.5-.1-1-.2-1.4-.3V56.9c.2-1 .5-1.9.8-2.8.1-.3-.2-.3-.3-.1-.2.5-.3.9-.4 1.4v-5.7h-.1z"/><path fill="#BBB" d="M53.6 51.3c.2-.6.5-1.1.7-1.6v5.7c-.3 1-.5 2.1-.7 3.2v-1.7c0-.1 0-.1.1-.2 0 0 0-.1-.1-.1v-5.3zM54.3 69.3V56.9c-.2.7-.3 1.4-.4 2.1 0 .2-.2.3-.3.2V69c.2.1.5.2.7.3zM53 52.9c.2-.5.4-1.1.6-1.6v5.3c-.1-.1-.2-.1-.2 0l-.3 1.5-.1-5.2z"/><path fill="#BBB" d="M53.6 69v-9.9s-.1-.1-.1-.2 0-.2.1-.3v-1.7l-.6 2.7v9c.2.1.4.3.6.4zM50.7 58.7c.8-.6 1.4-3.1 2.3-5.8V58c-.3 1.2-.5 2.5-.6 3.8 0 .2.3.2.3 0 .1-.8.2-1.6.3-2.3v9c-.6-.4-1.1-.8-1.6-1.3.3-2.1-.4-3.6-2.2-5v-.1c-.4-4.8-3.4-9.7-5.9-11.2v-2.5c1-.2 1.1-.8.1-2.2.3 0 .5-.1.8-.1.5.2 1 .4 1.4.4.5-.1.5-.2.2-.4s-.3-.3 0-.3c.2.1.3.2.5.4s.3.2.4-.3h.3c0 .6 0 1.1-.1 1.7-.1.8.1 1.1.6.8 1.6-1.3 2 .8 2.3 3.5.6 1 1.2 1.8 2.1 2.5-.1.4-.2 1-.4 1.4-.1.2-.2.2-.3 0-.9-2.6-2.5-5.5-3.9-4.9-.1-.5-.1-.9-.2-1.3-.1-.2-.3-.1-.3.1.5 3.7 1.8 6.5 3.9 9z"/><path fill="#BBB" d="M43.3 58.9v1.4c.5.2 1 .5 1.5.9h-.2c-.5-.2-.9-.4-1.3-.5v6c.3-.2.6-.3 1-.3.7 0 1.1.6.7.8l-1.2.3c-.2.2-.1.5.1.7.3.4.7.7 1.2 1-.1-.3 0-.4.2-.4.2.4.6.6 1 .6-.1-.2 0-.4.1-.4.3.4.6.6 1 .5 0-.1 0-.3.1-.4.2-.1.3.1.6.3 2.9-.5 4.1-2.9 2.4-5.4-1.7-2.3-3.9-2.5-6.2-2.1l-.1-.1c.3-.3.7-.5 1.5-.4.1 0 .2-.2 0-.3-1.1-.5-1.8-1.3-2.4-2.2zM43.3 68.3v1.9c.2-.3.5-.6.8-1-.4-.2-.6-.5-.8-.9zM43.3 51.1c-.7-.4-1.3-.6-1.9-.4-1.8.8-.3 5.2 1.9 8.3v1.4c-.5-.2-.9-.2-1.3-.1-.3.2-.4.5 0 .4s.9 0 1.3.1v6c-1.2.7-1.6 2.1-2.1 3.5.7-1 1.4-2.2 1.9-2.2.1.1.1.2.2.3v1.9c-1.1 1.5-1.7 3.1-2.1 5-2-.4-2.8-1.3-3.3-4.4 0-.2 0-.5-.1-.8h-.3c0 .3-.1.6-.3.9v-4.7c.2.2.3.3.4.6.2.2.4 0 .3-.2-.2-.3-.5-.6-.7-.8v-.4c.3.3.6.6.9.8v-.1c.1-.7.2-1.1-.2-1.8.1 0 .2-.1.2-.3.8 1.1 1 2.3 1.3 3.9.8-1.4.9-3.1.3-5 .6.5 1.1 1.1 1.9 2.7.2-.1.3-.4 0-1-.2-2.9-1.8-4.9-4-6.3.7-.1 2.1.6 3.6 1.4 0 0 .1 0 .1-.1-.4-.6-.8-.9-1.5-1.3-.9-.9-1.7-1.6-2.5-2.1v-3.5c.1 0 .1.1.2.1 0-.1-.1-.2-.2-.2v-1.4c.6 1.3 1.2 2.6 1.9 3.8.3.5.7.4.4-.1-1.2-2.9-3.4-6.6 2.2-6.2.6.1 1.1.1 1.5 0v2.3z"/><path fill="#BBB" d="M37.2 64.5v.6c.2.2.4.3.6.5.1-.2-.1-.7-.6-1.1zM37.2 71c-.1.2-.2.3-.4.5v-3.4l.2.2c.1.1.2 0 0-.4 0-.1-.1-.2-.2-.2v-1.8c.2.1.3.2.4.4V71zM36.8 64.2c.2.1.3.2.4.3v.6l-.4-.4v-.5zM36.8 65.1v.4c.2.1.3.2.4.4v-.4c-.2-.1-.3-.3-.4-.4zM37.2 56.1c-.1-.1-.3-.2-.4-.3v-3.5c.2.1.3.2.4.3v3.5zM37.2 52.5v-1.4c-.1-.4-.3-.7-.4-1v1.8c.1.2.2.4.4.6zM36.8 71.5c-.5.5-1.4.9-2.5 1.2-.3.1-.6.1-1 .2v-1.7c.4.1.8.1 1.1 0 .4-.2.2-.5-.1-.4s-.7.1-1.1 0V69c.6.7 1.6 1.1 2.3.7.3-.3.2-.7-.1-.6-.8.3-1.7 0-2.2-.8v-.5c.2-.4.3-1.3.6-1.2 1.1.2 2.2.8 2.8 1.5v3.4h.2zM33.3 62.7v3.2c1.4.3 2.7.9 3.4 1.8v-1.8l-.2-.2c-.1-.2-.1-.3.1-.3l.1.1v-.4l-.4-.4c-.2-.2-.1-.4.2-.2l.2.2v-.6c-.8-.6-2-1.1-3.4-1.4zM36.8 55.8c-1.4-1-2.5-1.4-3.4-1.3.5-1.1 1.2-2.5 2.2-3.6.4.6.7 1.1 1.2 1.5v3.4zM36.8 51.9V50c-.2.1-.5.2-.7.4 0 .4.3.9.7 1.5z"/><path fill="#BBB" d="M33.3 72.9c-.4 0-.7.1-1 0v-1.8c.3.1.4-.1.2-.2-.1 0-.1-.1-.2-.1v-.3c.3.3.7.5 1 .6v1.8zM32.3 62.5c.3 0 .7.1 1 .2v3.2c-.3-.1-.7-.1-1-.2v-3.2zM33.3 67.8v.5c-.1-.1-.1-.2-.2-.3.1-.1.2-.1.2-.2zM33.3 69c-.2-.2-.4-.5-.5-.8-.2 0-.4-.1-.6-.1v2.2s.1 0 .1.1c.4.3.7.4 1 .5V69zM32.3 72.9h-.5v-2c.1.1.2.2.4.2h.1v1.8zM31.8 62.5h.5v3.2h-.5v-3.2z"/><path fill="#BBB" d="M32.3 68v2.2c-.3-.2-.5-.1-.2.2.1 0 .1.1.2.1v.3c-.2-.1-.3-.2-.5-.3v-2.8c.1.2.3.2.5.3zM31.8 72.9c-.4 0-.7-.1-1.1-.2v-2.2c.4.1.4 0 .2-.2l-.2-.2v-.3c.3.4.7.7 1.1 1v2.1zM30.7 62.5h1.1v3.2h-1.1v-3.2z"/><path fill="#BBB" d="M31.8 67.7c-.3-.4-.4-1-.2-1.5h-.9v3.1c.3.4.7.8 1.1 1.2v-2.8zM30.7 72.7c-.2-.1-.5-.1-.7-.2V70c.2.2.4.4.7.5v2.2zM30 62.6c.2-.1.5-.1.7-.1v3.2c-.2 0-.5 0-.7.1v-3.2zM30.7 66.3c-.2 0-.5 0-.7.1v3.2c.2.2.4.5.7.7V70c-.1-.1-.2-.2-.3-.4-.1-.3.2-.4.3-.2v-3.1zM30 72.5c-1.3-.5-2.4-1.4-3.3-2.5-1.8-3-.3-6.6 3.3-7.4v3.2c-1.4.2-2.6.7-3.3 1.4-.6.8.6 1.5 1.1.5.2-.8.7-1.2 2.2-1.4v3.2c-.6-.8-.7-1.5-.5-2.4.1-.4-.3-.3-.4-.1-.4 1.1-.1 2.1.9 2.9v2.6z"/><path fill="#DBDDDB" d="M43.1 42.6c1.3-2.4 1.9-5.1 2-8v-1.2c-.1-1.6-.2-3.2-.6-4.9-.4-1.1-.9-2.3-1.4-3.6v4.7c.3 1.1.5 2.5.7 5 .1.5-.1.7-.3.4 0 1.2-.1 2.4-.2 3.6 0 .1-.1.2-.1.2v3.8h-.1zm0-9.4v-1.8c.1.6.1 1.2.2 1.8-.1-.1-.1-.1-.2 0zm-3.5 9.9c.9 0 1.7.1 3 .5.2-.3.4-.6.6-1v-3.8c-.2.3-.3.1-.2-.4.1-1.5.2-3 .1-4.5 0-.3 0-.6.1-.6v-1.8c-.1-.8-.3-1.6-.7-2.4-.1-.2.1-.4.4-.1.1.2.2.4.2.6v-4.7c-2.6-6-6.3-14.1-5.2-23.8-4.1.9-3.1 12.5 2.5 25.3.2.4-.3.2-.4 0-1.4-3.9-2.8-7.8-4.2-11.6-.9-.9-1.4-.4-1.6 1.4.1 6 2.2 9.8 4.6 12.6.3-.5.6-.9 1.2-.9.3 0 .8.2 1.5.7.1.1.1.2.2.3.1.2-.2.3-.3.1-3.1-2.8-3.1 3.7.2 8 .2.4.1.5 0 .5-.3-.4-.6-.7-.8-1.1-2.1.9-1.3 2.8.5 5.2.2.2 0 .5-.3.3-.2-.3-.4-.5-.6-.7-.6-.9-1.2-1.8-1.4-2.9 0-1.1.4-2.1 1.5-2.2-1.5-2-2.3-4.8-1.8-6.9-1.3-1-2.1-2.5-3-3.9-.8 1.1-1 2.6 1.3 7.3.6 1.1 1.5 2.1 2.6 3.1.3.3.2.5-.2.3-1.4-.8-2.3-3-2.7-2.8-.8.4-1.2 2.5 1.2 5.4.5.5.9 1 1.4 1.5 0 .1-.1.2-.1.2-.3-.3-.7-.5-1-.9-.4 1.1.2 2.4 1.4 3.7zM29.6 53.4c.2 0 .4-.4.4-1s-.2-1-.4-1-.4.5-.4 1 .2 1 .4 1z"/><path fill="#DBDDDB" d="M29.6 48.6c1.4-3.8 2.2-10.3 0-15.7v15.7zm0 6.7c.2.1.4.1.7 0 .4-.2.8-1.5.8-2.9 0-1.7-.9-3.2-1.3-2.8-.1.1-.2.1-.2.2v1c.3 0 .6.7.6 1.7 0 .9-.3 1.6-.6 1.6v1.2zm-.5-5.5c.2-.3.3-.7.5-1.1V33c-.1-.3-.3-.6-.4-.9-1.5-2.1-3-3.9-4.5-5.5-.6-.6-1.1-1.3-1.8-2v5c.8.9 1.6 1.7 2.4 2.6 1.2 1.2 2.5 3.6 2.8 6.2 0 .3-.1.4-.2.4.6 1.7.8 3.5.8 5.4 0 .5-.5.7-.5.1 0-2.2-.3-4.4-1.1-6.5-.3-.6-.2-.7.3-.5-.3-1.6-1.1-2.9-1.9-4.1-.9-1-1.8-1.9-2.7-2.9V39c.9.9 1.9 1.7 3.1 2.2.4.3.2.6-.4.4-1.1-.5-2.1-1-2.8-1.7v5.3c.8.9 1.9 1.5 3.1 1.7.6 0 .5.4 0 .5-1 0-2-.5-3.1-1.4v3.7c1.4 1.2 3.3 1.8 5.2 1.3.4-.1.5-.2.5.7-.1 1.4.1 3.4 1 3.7V54c-.4 0-.6-.7-.6-1.6 0-.9.3-1.7.6-1.7v-1c-.5.7-.3.2-.3.1zM23 24.6C18 18.8 11.1 9 9.5.6c-1.4 0-1.9.6-2.2 1.6v1.2c.2 4.8 3.4 10.5 7.4 16.4.6.9 1.7 2.1 1.5 2.8 1 1.2 1.9 2.4 2.8 3.7v.3c-3-2.5-7-9-7.7-8.2-1 1.9.7 7.4 7.4 13.2.6.5.3.6-.2.5-1.4-.9-2.7-2.2-4.1-3.3-1.2-1.4-2 .1-1.9 1.5.5 3.5 3.5 6.7 9.6 9.3-1 2.1-.5 4.2.8 5.5v-5.3l-.6-.6c-2.3-2.8-3.4-5.6-2.2-8 .5-.8 1.4-.9 2.6-.6.3.3 0 .5-.4.4-3.1-.2-2.6 4.6.6 7.9v-8.7c-2-2.2-4-4.5-5.8-6.8-.4-.4-.3-.6.1-.4 1.9 2.2 3.8 4.4 5.8 6.6v-5zm0 21.3v3.7c-1.4-1.2-2.4-3-2.8-5 .6.3 1.2.3 1.8.3.3.4.6.7 1 1z"/><path fill="#DBDDDB" d="M22.9 50.8c-.9 1.1 2.3 4.8 4.6.9-3.3.8-4.2-1.4-4.6-.9zM21.5 39.8c-1.9-.6-4-1.7-5.7-3.2-.4-.5-.6-.2-.6.5 0 3.8 2.2 6 6.5 7.5-.8-1.6-.9-3.2-.2-4.8z"/></svg>