<svg xmlns="http://www.w3.org/2000/svg" viewBox="0 0 1000 114"><title>logo_right</title><g id="Layer_3" data-name="Layer 3"><rect x="880.38" y="72.2" width="70.5" height="14.5" fill="#fff"/><rect x="897.38" y="79.45" width="46.5" height="18.75" fill="#fff"/><rect x="935.77" y="19.36" width="31.61" height="14.2" fill="#fff"/><rect x="953.88" y="25.36" width="35.83" height="19.17" fill="#fff"/><rect x="519.05" y="25.86" width="68.83" height="19.33" fill="#fff"/><rect x="509.72" y="60.7" width="81" height="26.67" fill="#fff"/></g><g id="Layer_2" data-name="Layer 2"><rect x="265.11" y="34.82" width="69.27" height="50.41" fill="#fff"/><rect x="631.28" y="34.82" width="59.19" height="50.07" fill="#fff"/><rect x="915.84" y="33.56" width="39.87" height="51.32" fill="#fff"/></g><g id="Layer_1" data-name="Layer 1"><path d="M411.69,106.9a3.52,3.52,0,0,1-3.12-1.91L384,57v46.31a3.49,3.49,0,0,1-3.5,3.5H354.07a3.5,3.5,0,0,1-3.5-3.5V9.72a3.5,3.5,0,0,1,3.5-3.5h41.58a3.51,3.51,0,0,1,3.1,1.88l25.4,48.73L448.62,8a3.48,3.48,0,0,1,3.12-1.93H493a3.5,3.5,0,0,1,3.5,3.5v93.66a3.5,3.5,0,0,1-3.5,3.5H466.88a3.5,3.5,0,0,1-3.5-3.5V57.34L439.87,105a3.51,3.51,0,0,1-3.14,2Z"/><path d="M493,9.58v93.66H466.88V45.72l-1.43-.46c-9.54,19.3-19.07,38.6-28.72,58.14h-25L382.07,45.45l-1.53.56v57.3H354.07V9.72h41.58c9.22,17.71,18.67,35.82,28.56,54.8,9.43-18.83,18.48-36.89,27.53-54.94H493m0-7H451.74a7,7,0,0,0-6.25,3.86L432.76,31.83l-8.67,17.31L409.94,22,401.85,6.49a7,7,0,0,0-6.2-3.77H354.07a7,7,0,0,0-7,7v93.59a7,7,0,0,0,7,7h26.47a7,7,0,0,0,7-7V71.54l1.54,3,16.38,32a7,7,0,0,0,6.23,3.82h25a7,7,0,0,0,6.27-3.9l7.78-15.75,9.1-18.42v30.91a7,7,0,0,0,7,7H493a7,7,0,0,0,7-7V9.58a7,7,0,0,0-7-7Z" fill="#fff"/><path d="M792.68,106.87a3.51,3.51,0,0,1-2.87-1.5l-38-54.48v52.37a3.5,3.5,0,0,1-3.5,3.5H721.65a3.5,3.5,0,0,1-3.5-3.5V9.9a3.5,3.5,0,0,1,3.5-3.5h43.93a3.51,3.51,0,0,1,2.85,1.47L807.85,63.1V9.75a3.5,3.5,0,0,1,3.5-3.5h25.23a3.5,3.5,0,0,1,3.5,3.5v93.62a3.5,3.5,0,0,1-3.5,3.5Z"/><path d="M836.58,9.75v93.62h-43.9L749.46,41.42l-1.16.28v61.56H721.65V9.9h43.93C780,30.14,795,51.06,809.89,72l1.46-.47V9.75h25.23m0-7H811.35a7,7,0,0,0-7,7V52.17l-6.2-8.68L771.27,5.84a7,7,0,0,0-5.69-2.94H721.65a7,7,0,0,0-7,7v93.36a7,7,0,0,0,7,7H748.3a7,7,0,0,0,7-7V62l12.54,18,19.1,27.38a7,7,0,0,0,5.74,3h43.9a7,7,0,0,0,7-7V9.75a7,7,0,0,0-7-7Z" fill="#fff"/><path d="M121.07,108a3.5,3.5,0,0,1-3.5-3.5V8.85a3.5,3.5,0,0,1,3.5-3.5h32.06a3.5,3.5,0,0,1,3.5,3.5V35.31h43.59V8.73a3.49,3.49,0,0,1,3.5-3.5H235a3.49,3.49,0,0,1,3.5,3.5v95.68a3.5,3.5,0,0,1-3.5,3.5H203.79a3.5,3.5,0,0,1-3.5-3.5V74.57H156.94v29.92a3.5,3.5,0,0,1-3.5,3.5Z"/><path d="M235,8.73v95.68H203.79V71.07H153.44v33.42H121.07V8.85h32.06v30h50.59V8.73H235m0-7H203.72a7,7,0,0,0-7,7V31.81H160.13v-23a7,7,0,0,0-7-7H121.07a7,7,0,0,0-7,7v95.64a7,7,0,0,0,7,7h32.37a7,7,0,0,0,7-7V78.07h36.35v26.34a7,7,0,0,0,7,7H235a7,7,0,0,0,7-7V8.73a7,7,0,0,0-7-7Z" fill="#fff"/><path d="M661.07,108.86c-3.38-.17-6.68-.29-9.92-.41-7.2-.27-14-.52-20.87-1.21-17.16-1.73-24.68-8.42-27.73-24.67a139.67,139.67,0,0,1,.24-51.79c2.54-13.51,10.9-21.5,24.17-23.12A280.14,280.14,0,0,1,660.85,5.6,285.78,285.78,0,0,1,695,7.67c14,1.69,22.91,10.44,25.19,24.66,3.1,19.35,2.91,36.31-.58,51.83-3.26,14.51-11,21.34-25.83,22.85-7.74.78-15.46,1.11-22.93,1.42-3.19.13-6.34.27-9.41.43h-.36ZM649.65,37.08c-2.67,0-4.87.05-6.91.16-6.16.32-7.32,2.29-7.61,6.57a255.06,255.06,0,0,0,0,26.81c.12,3.34,1.82,5.07,5.05,5.13l2.79.06c7.28.15,14.8.3,22.18.3,5.58,0,10.58-.08,15.26-.26,4.08-.16,6.19-1.36,6.38-7.48.23-7.26.22-14.86,0-22.61-.19-6.4-2-8.24-8.28-8.55-2-.1-4.07-.15-6.63-.15-1.81,0-3.62,0-5.43,0s-3.39,0-5.08,0a3.15,3.15,0,0,1-.44,0c-1.89,0-3.79,0-5.68,0S651.52,37.08,649.65,37.08Z"/><path d="M660.85,9.1a280.22,280.22,0,0,1,33.72,2c12.68,1.54,20.14,9.19,22.15,21.74,2.7,16.84,3.23,33.77-.53,50.51-2.91,12.92-9.49,18.79-22.78,20.14-10.93,1.1-22,1.29-32.17,1.84-10.76-.54-20.73-.62-30.61-1.62-15.4-1.54-21.85-7-24.64-21.83a135.86,135.86,0,0,1,.23-50.49c2.25-11.92,9.41-18.86,21.17-20.3a275.93,275.93,0,0,1,33.46-2m.08,24.58c-3.76,0-7.52-.1-11.28-.1-2.37,0-4.73,0-7.1.17-7.1.37-10.45,3-10.91,9.82a262,262,0,0,0,0,27.17c.18,5.08,3.29,8.41,8.48,8.51,8.35.17,16.7.36,25,.36,5.14,0,10.27-.07,15.4-.27,6.85-.26,9.52-3.87,9.74-10.86.24-7.6.22-15.22,0-22.82-.25-8.2-3.5-11.55-11.61-11.95-2.26-.11-4.53-.15-6.8-.15-3.65,0-7.3.09-11,.09v0M660.85,2.1a283,283,0,0,0-34.31,2.09c-14.72,1.79-24.38,11-27.19,25.94a143.17,143.17,0,0,0-.24,53.08c3.32,17.67,12.24,25.64,30.82,27.51,7,.7,13.84,1,21.1,1.23,3.21.12,6.52.24,9.86.41h.73c3-.17,6.12-.3,9.37-.43,7.52-.32,15.29-.65,23.13-1.44,16.16-1.64,25.34-9.76,28.9-25.57,3.58-16,3.78-33.34.61-53.15-2.54-15.89-12.57-25.68-28.22-27.58A288.63,288.63,0,0,0,660.85,2.1Zm.7,38.55c1.66,0,3.33,0,4.94,0,1.78,0,3.61,0,5.39,0,2.5,0,4.55,0,6.45.14,3.24.16,4,.86,4.08.94s.78.89.89,4.23c.23,7.68.24,15.21,0,22.39-.09,2.87-.68,3.59-.7,3.62a4.43,4.43,0,0,1-2.31.47c-4.64.18-9.59.26-15.13.26-7.34,0-14.85-.15-22.1-.3l-2.8-.06c-1.1,0-1.56,0-1.63-1.76a259.27,259.27,0,0,1,0-26.45,4.82,4.82,0,0,1,.59-2.53s.74-.62,3.71-.77c2-.11,4.12-.16,6.73-.16,1.84,0,3.73,0,5.55.05s3.81,0,5.73,0c.21,0,.42,0,.62,0Z" fill="#fff"/><path d="M295.21,108.86c-3.44-.17-6.78-.29-10-.4-7.22-.27-14-.51-20.89-1.21-17.7-1.79-25-8.53-28.06-25.75a138.34,138.34,0,0,1,.53-51.12c2.6-13.08,10.62-20.86,23.18-22.49A268.65,268.65,0,0,1,294.5,5.61a253.47,253.47,0,0,1,35.9,2.56c11.57,1.67,19.28,9,21.71,20.77a141.74,141.74,0,0,1,.17,56.16c-2.5,12.76-11.23,20.53-24.61,21.87-7.74.78-15.44,1.12-22.89,1.45-3.14.14-6.21.28-9.2.44h-.37ZM283.06,38.32c-3,0-5.51,0-7.82.14-5.06.21-6,1.55-6.26,5.46-.58,8.76-.36,17.77-.09,26.26.08,2.5,1.08,5.51,5.39,5.58,6.56.12,13.12.17,19.48.17,7.25,0,14.49-.07,21.52-.22,4.11-.09,5.1-3.25,5.2-5.88.37-9.5.35-17.91-.05-25.7-.21-4-1.76-5.46-6.13-5.64-2.16-.09-4.48-.13-7.31-.13-1.91,0-3.83,0-5.75,0l-5.83,0a4.07,4.07,0,0,1-.5,0c-1.9,0-3.81,0-5.71,0S285.11,38.32,283.06,38.32Z"/><path d="M294.5,9.11a247.61,247.61,0,0,1,35.4,2.53c10.38,1.49,16.69,7.89,18.78,18a137.84,137.84,0,0,1,.16,54.78c-2.3,11.76-10,17.91-21.52,19.06-10.92,1.1-21.93,1.32-31.94,1.88-10.93-.54-20.89-.6-30.76-1.6-16-1.62-22.2-7.11-25-22.88a134.9,134.9,0,0,1,.52-49.83c2.23-11.18,8.76-18.22,20.2-19.7A264.23,264.23,0,0,1,294.5,9.11m-.76,70.32q10.81,0,21.61-.22c5.53-.12,8.43-4.07,8.63-9.24.33-8.66.39-17.37-.06-26-.31-6-3.43-8.7-9.47-9-2.48-.1-5-.13-7.46-.13-3.86,0-7.72.07-11.58.07v0c-4.12,0-8.23-.08-12.35-.08-2.65,0-5.31,0-8,.14-6.29.26-9.2,2.54-9.61,8.73-.59,8.83-.38,17.74-.1,26.6.17,5.35,3.41,8.88,8.83,9q9.75.17,19.52.17m.76-77.32a273.83,273.83,0,0,0-35,2.3c-14,1.82-23.28,10.8-26.16,25.28a141.84,141.84,0,0,0-.55,52.41c3.28,18.66,12,26.69,31.15,28.63,7,.71,13.84,1,21.11,1.22,3.25.12,6.61.24,10,.41h.73c3-.17,6-.3,9.15-.44,7.5-.33,15.26-.68,23.11-1.47,15-1.51,24.87-10.28,27.68-24.68a145.06,145.06,0,0,0-.18-57.53C352.79,15,344,6.6,330.9,4.71a256.2,256.2,0,0,0-36.4-2.6ZM272.78,42.35a8.33,8.33,0,0,1,2.61-.39c2.26-.1,4.7-.14,7.67-.14,2,0,4.07,0,6.11,0l5.53,0c.24,0,.47,0,.71,0,1.95,0,3.91,0,5.86,0s3.82,0,5.72,0c2.78,0,5.06,0,7.17.13a5,5,0,0,1,2.43.47,4.82,4.82,0,0,1,.34,1.85c.4,7.69.41,16,.05,25.39-.09,2.47-1,2.49-1.78,2.51-7,.15-14.23.22-21.46.22-6.34,0-12.87-.05-19.4-.17-1.13,0-1.88,0-1.95-2.19-.27-8.4-.48-17.32.09-25.91a6.45,6.45,0,0,1,.3-1.81Z" fill="#fff"/><path d="M542.58,107.17a226.73,226.73,0,0,1-23.42-1c-16.39-1.74-22.21-7.7-23.95-24.52a47.77,47.77,0,0,1-.11-6.11c0-1,0-2,0-3a3.5,3.5,0,0,1,3.5-3.5h23.41a66.82,66.82,0,0,1-8-1.05c-12-2.43-17.38-8-18.5-19.38A88.07,88.07,0,0,1,496.66,25c1.56-8.88,8.16-14.74,18.6-16.51a209.36,209.36,0,0,1,35.29-2.83,286.42,286.42,0,0,1,30.87,1.75c11.36,1.23,17.1,6.85,19.19,18.81a69,69,0,0,1,.78,9.09c.06,1.44.12,2.94.22,4.51a3.51,3.51,0,0,1-3.49,3.73h-.19l-16-.84.8.07c14.38,1.34,21.2,8.36,22.1,22.78a100.2,100.2,0,0,1-1,20.3c-1.78,12.33-8.32,18.64-20.58,19.85-11.53,1.15-23.08,1.34-33.91,1.43C547.11,107.15,544.84,107.17,542.58,107.17Zm-18.25-38a3.49,3.49,0,0,1,2.45,2.7c1,5.35,4.38,6.22,12,6.22h23.51c.91,0,2,0,2.9-.07,7.06-.55,7.13-2.41,7.18-3.64,0-1,.15-3.85-7-4.13s-14.45-.42-21.51-.57c-5.64-.11-11.47-.23-17.21-.42C525.85,69.25,525.08,69.22,524.33,69.18ZM547,41.36c2.81,0,5,0,7,.08l4.36.13c4.43.12,8.95.25,13.48.46a3.5,3.5,0,0,1-2.34-2.93c-.41-3.8-1.89-5.74-8.79-5.74h-.91c-8.63.17-17.84.38-27.13.89a5.22,5.22,0,0,0-3.4,1,3.29,3.29,0,0,0-.43,2.21c.15,1.92.63,3.66,4.82,3.78,1.92.06,4,.08,6.7.08Z"/><path d="M550.55,9.16A285.57,285.57,0,0,1,581,10.89c10,1.09,14.36,5.82,16.13,15.93.71,4.08.62,8.29,1,13.23L573,38.72c-.83-7.59-6.2-8.86-12.27-8.86h-1c-9.09.18-18.18.4-27.26.9-4.12.22-7.51,1.88-7.12,7s3.76,6.89,8.21,7c2.26.07,4.53.08,6.79.08H547c2.28,0,4.56,0,6.83.08,9.52.29,19.07.44,28.55,1.32,12.72,1.18,18.13,6.71,18.92,19.51a95.81,95.81,0,0,1-.94,19.58c-1.54,10.67-6.58,15.79-17.46,16.87-11.13,1.11-22.38,1.31-33.59,1.41-2.25,0-4.5,0-6.75,0a218.66,218.66,0,0,1-23.06-1c-14.95-1.59-19.29-6.46-20.84-21.4-.28-2.7,0-5.46,0-8.74h24.69c1.64,8.53,8.39,9.06,15.44,9.06h23.51c1.06,0,2.12,0,3.18-.08,7.13-.56,10.23-2.66,10.4-7,.17-4.64-3.24-7.48-10.36-7.75-12.91-.5-25.84-.58-38.75-1a71.65,71.65,0,0,1-12-1.22c-10.17-2-14.71-6.14-15.71-16.28a85.24,85.24,0,0,1,1-22.66c1.44-8.2,7.93-12.35,15.73-13.67a207.87,207.87,0,0,1,34.71-2.78m0-7A213.23,213.23,0,0,0,514.67,5C502.84,7,495,14.1,493.22,24.4A90.53,90.53,0,0,0,492.12,49c.72,7.37,3.2,12.79,7.73,16.59h-1.2a7,7,0,0,0-7,7c0,1,0,2,0,2.9a51.85,51.85,0,0,0,.13,6.56c1.92,18.49,9,25.72,27.06,27.64a229.6,229.6,0,0,0,23.8,1c2.27,0,4.54,0,6.81,0,10.92-.09,22.55-.28,34.22-1.44,13.93-1.38,21.68-8.85,23.7-22.84a102.91,102.91,0,0,0,1-21c-.52-8.36-2.9-14.61-7.29-18.92a7,7,0,0,0,4.07-6.83c-.1-1.51-.16-3-.22-4.41a71.14,71.14,0,0,0-.82-9.56c-2.34-13.4-9.42-20.29-22.27-21.68a290.71,290.71,0,0,0-31.24-1.77ZM533,37.75c9.15-.5,18.26-.71,26.81-.88h.84c3.8,0,4.77.41,5.11,1.43-2.47-.09-4.93-.15-7.36-.22L554.07,38c-2-.06-4.21-.09-7-.09h-6.71c-2.67,0-4.7,0-6.58-.08a6.85,6.85,0,0,1-.71,0ZM550.7,74.61H538.78c-5.67,0-7.38-.55-8.06-1.71,4.39.12,8.78.21,13.06.3,7.05.15,14.33.3,21.46.57a13.65,13.65,0,0,1,2.75.35,20.85,20.85,0,0,1-3.07.43c-.8.06-1.73.06-2.63.06Z" fill="#fff"/><path d="M935.11,110.5a25.35,25.35,0,0,1-10.24-2.3c-11.13-4.84-22.64-9.37-33.77-13.76q-6.83-2.68-13.64-5.4a3.51,3.51,0,0,1-2.2-3.25v-23a3.5,3.5,0,0,1,3.5-3.5,3.28,3.28,0,0,1,1.07.17l6.22,2V52.13l-5.92,2.08a3.58,3.58,0,0,1-1.16.2,3.5,3.5,0,0,1-3.5-3.5V27.63a3.51,3.51,0,0,1,2.25-3.27l11.62-4.43c13.72-5.23,27.9-10.64,42-15.85a10.19,10.19,0,0,1,3.5-.58,14.86,14.86,0,0,1,4.95.89C953.8,9.51,967.47,14.62,982,20l12.27,4.58a3.5,3.5,0,0,1,2.28,3.28V51a3.5,3.5,0,0,1-3.5,3.5,3.45,3.45,0,0,1-1.14-.19l-6.44-2.22v9.23l6.38-2.08a3.7,3.7,0,0,1,1.09-.17,3.51,3.51,0,0,1,3.5,3.5v23a3.52,3.52,0,0,1-2.22,3.26q-7,2.73-13.95,5.43c-11.42,4.43-23.22,9-34.69,13.84A26.66,26.66,0,0,1,935.11,110.5Zm-8.18-13.66V89L886.29,73.62v7.77Zm8.24-15.73,17-6.74V40.28l-17.05-6.73-15.82,6.53V74.53Zm51.05-40V33.21L945.57,17.73v7.82Z"/><path d="M934.82,7a11.29,11.29,0,0,1,3.75.68c18,6.59,36,13.35,54.43,20.21V51l-11.08-3.82v19l11-3.57v23C976.7,92,960.29,98.17,944.17,105a23.05,23.05,0,0,1-9.06,2,21.75,21.75,0,0,1-8.84-2c-15.68-6.81-31.68-12.86-47.51-19.2v-23l10.79,3.45v-19L879,50.91V27.63C896.65,20.9,914.55,14,932.53,7.36A6.75,6.75,0,0,1,934.82,7m54.9,39.17V30.79L942.07,12.65V28l47.65,18.21M935.14,84.88l20.57-8.13V37.89l-20.58-8.12-19.29,8V76.86l19.3,8m-4.71,17V86.57l-47.64-18V83.81l47.64,18.1M934.82,0h0a13.55,13.55,0,0,0-4.72.8C916,6,901.79,11.44,888.05,16.68l-11.57,4.41A7,7,0,0,0,872,27.63V50.91a7,7,0,0,0,2.95,5.71l.21.14-.49.34a7,7,0,0,0-2.88,5.65v23a7,7,0,0,0,4.4,6.5c4.55,1.82,9.19,3.65,13.67,5.41,11.1,4.38,22.57,8.9,33.65,13.71A28.83,28.83,0,0,0,935.11,114a30,30,0,0,0,11.78-2.58c11.43-4.82,23.23-9.4,34.64-13.82,4.57-1.77,9.29-3.6,13.92-5.42a7,7,0,0,0,4.44-6.52v-23A7,7,0,0,0,997,57l-.12-.09.18-.12A7,7,0,0,0,1000,51V27.89a7,7,0,0,0-4.55-6.56l-12.21-4.55C968.74,11.36,955,6.24,941,1.1A18.34,18.34,0,0,0,934.82,0Zm14.25,23.14V22.8l5,1.89,28.69,10.93V36L949.07,23.14ZM922.84,42.42l12.35-5.1,13.52,5.34V72l-2.83,1.12-10.67,4.22-12.37-5.14V42.42ZM889.79,79v-.3l33.64,12.73v.36L889.79,79Z" fill="#fff"/><path d="M52.9,107.9a3.5,3.5,0,0,1-3.5-3.5V40.21H17.77a3.5,3.5,0,0,1-3.5-3.5v-28a3.5,3.5,0,0,1,3.5-3.5H117.83a3.5,3.5,0,0,1,3.5,3.5V36.2a3.5,3.5,0,0,1-3.5,3.5H88v64.7a3.5,3.5,0,0,1-3.5,3.5Z"/><path d="M117.83,8.72V36.2H84.52v68.2H52.9V36.71H17.77v-28H117.83m0-7H17.77a7,7,0,0,0-7,7v28a7,7,0,0,0,7,7H45.9V104.4a7,7,0,0,0,7,7H84.52a7,7,0,0,0,7-7V43.2h26.31a7,7,0,0,0,7-7V8.72a7,7,0,0,0-7-7Z" fill="#fff"/><path d="M424.21,64.52c-9.89-19-19.34-37.09-28.56-54.8H354.07v93.59h26.47V46l1.53-.56,29.62,58h25c9.65-19.54,19.18-38.84,28.72-58.14l1.43.46v57.52H493V9.58H451.74C442.69,27.63,433.64,45.69,424.21,64.52Z"/><path d="M811.35,71.51l-1.46.47C795,51.06,780,30.14,765.58,9.9H721.65v93.36H748.3V41.7l1.16-.28,43.22,62h43.9V9.75H811.35Z"/><path d="M203.72,38.81H153.13v-30H121.07v95.64h32.37V71.07h50.35v33.34H235V8.73H203.72Z"/><path d="M694.57,11.14a278.58,278.58,0,0,0-67.18,0c-11.76,1.44-18.92,8.38-21.17,20.3A135.86,135.86,0,0,0,606,81.92c2.79,14.84,9.24,20.29,24.64,21.83,9.88,1,19.85,1.08,30.61,1.62,10.21-.55,21.24-.74,32.17-1.84,13.29-1.35,19.87-7.22,22.78-20.14,3.76-16.74,3.23-33.67.53-50.51C714.71,20.33,707.25,12.68,694.57,11.14Zm-4.26,57.34c-.22,7-2.89,10.6-9.74,10.86-13.46.52-27,.18-40.44-.09-5.19-.1-8.3-3.43-8.48-8.51a262,262,0,0,1,0-27.17c.46-6.83,3.81-9.45,10.91-9.82,6.11-.32,12.25-.07,18.38-.07v0c5.92,0,11.85-.23,17.75.06,8.11.4,11.36,3.75,11.61,11.95C690.53,53.26,690.55,60.88,690.31,68.48Z"/><path d="M329.9,11.64a254.57,254.57,0,0,0-69.53-.28c-11.44,1.48-18,8.52-20.2,19.7a134.9,134.9,0,0,0-.52,49.83c2.77,15.77,9,21.26,25,22.88,9.87,1,19.83,1.06,30.76,1.6,10-.56,21-.78,31.94-1.88,11.47-1.15,19.22-7.3,21.52-19.06a137.84,137.84,0,0,0-.16-54.78C346.59,19.53,340.28,13.13,329.9,11.64ZM324,70c-.2,5.17-3.1,9.12-8.63,9.24q-20.55.44-41.13.05c-5.42-.09-8.66-3.62-8.83-9-.28-8.86-.49-17.77.1-26.6.41-6.19,3.32-8.47,9.61-8.73,6.76-.28,13.54-.06,20.31-.06v0c6.35,0,12.7-.2,19,.06,6,.26,9.16,2.95,9.47,9C324.37,52.6,324.31,61.31,324,70Z"/><path d="M582.41,46.26c-9.48-.88-19-1-28.55-1.32-6.77-.2-13.56.05-20.33-.15-4.45-.13-7.82-1.94-8.21-7s3-6.78,7.12-7c9.08-.5,18.17-.72,27.26-.9,6.46-.12,12.38.85,13.25,8.85l25.17,1.33c-.33-4.94-.24-9.15-1-13.23C595.4,16.71,591.08,12,581,10.89c-21.74-2.34-43.54-2.61-65.2,1-7.8,1.32-14.29,5.47-15.73,13.67a85.24,85.24,0,0,0-1,22.66c1,10.14,5.54,14.23,15.71,16.28a71.65,71.65,0,0,0,12,1.22c12.92.42,25.84.5,38.75,1,7.12.27,10.53,3.11,10.36,7.75-.17,4.34-3.27,6.44-10.4,7-1.06.08-2.12.08-3.18.08q-11.76,0-23.51,0c-7,0-13.8-.53-15.44-9.06H498.65c0,3.28-.24,6,0,8.74,1.55,14.94,5.89,19.81,20.84,21.4a262.15,262.15,0,0,0,29.81.95c11.21-.1,22.46-.3,33.59-1.41,10.88-1.08,15.92-6.2,17.46-16.87a95.81,95.81,0,0,0,.94-19.58C600.54,53,595.13,47.44,582.41,46.26Z"/><path d="M993,51V27.89C974.6,21,956.62,14.27,938.57,7.68a9.52,9.52,0,0,0-6-.32C914.55,14,896.65,20.9,879,27.63V50.91l10.58-3.72v19l-10.79-3.45v23c15.83,6.34,31.83,12.39,47.51,19.2,6.32,2.75,11.63,2.62,17.9,0,16.12-6.8,32.53-12.94,48.72-19.31v-23l-11,3.57v-19Zm-62.57,50.87-47.64-18.1V68.55l47.64,18Zm25.28-25.16-20.57,8.13-19.3-8V37.73l19.29-8,20.58,8.12ZM942.07,28V12.65l47.65,18.14V46.17Z"/><path d="M17.77,36.71H52.9V104.4H84.52V36.2h33.31V8.72H17.77Z"/></g></svg>