<svg xmlns="http://www.w3.org/2000/svg" viewBox="0 0 1000 114.00001"><title>logo_right</title><g id="Layer_2" data-name="Layer 2"><rect x="265.11436" y="34.81862" width="69.26943" height="50.41361" fill="#fff"/><rect x="631.28239" y="34.81862" width="59.19451" height="50.06584" fill="#fff"/><rect x="915.83887" y="33.56379" width="39.86951" height="51.32067" fill="#fff"/></g><g id="Layer_1" data-name="Layer 1"><path d="M411.69092,106.89606a3.4989,3.4989,0,0,1-3.11621-1.90723L384.04248,57.00006v46.313a3.50017,3.50017,0,0,1-3.5,3.5h-26.4707a3.50017,3.50017,0,0,1-3.5-3.5V9.72125a3.49986,3.49986,0,0,1,3.5-3.5H395.645a3.49975,3.49975,0,0,1,3.10352,1.88233L424.147,56.82965,448.61523,8.00836a3.49933,3.49933,0,0,1,3.12891-1.93164h41.26367a3.49986,3.49986,0,0,1,3.5,3.5v93.667a3.50017,3.50017,0,0,1-3.5,3.5H466.88428a3.50017,3.50017,0,0,1-3.5-3.5V57.3443l-23.51807,47.60156a3.49957,3.49957,0,0,1-3.13769,1.9502Z"/><path d="M493.008,9.57664v93.66694H466.88434V45.71747q-.717-.22833-1.43427-.45661c-9.53515,19.29985-19.07025,38.59967-28.72162,58.13479H411.69086q-14.79813-28.94766-29.622-57.946-.76318.27921-1.52637.55845v57.30469H354.07172V9.72144H395.6452L424.208,64.51929c9.43445-18.82465,18.4859-36.885,27.536-54.94265H493.008m0-7H451.7439a7,7,0,0,0-6.25806,3.86361l-12.72485,25.39-8.67536,17.31L409.94006,22.00186,401.8526,6.4859a7.0001,7.0001,0,0,0-6.2074-3.76446H354.07172a7,7,0,0,0-7,7v93.59135a7,7,0,0,0,7,7h26.47076a7,7,0,0,0,7-7v-31.777l1.53552,3.00379,16.38,32.04235a7.0001,7.0001,0,0,0,6.23285,3.81376h25.03759a7,7,0,0,0,6.27588-3.8994L450.7818,90.754l9.10254-18.42424v30.91385a7,7,0,0,0,7,7H493.008a7,7,0,0,0,7-7V9.57664a7,7,0,0,0-7-7Z" fill="#fff"/><path d="M792.68262,106.87067a3.50133,3.50133,0,0,1-2.87012-1.49707L751.79688,50.88531v52.3711a3.50049,3.50049,0,0,1-3.5,3.5H721.65332a3.50048,3.50048,0,0,1-3.5-3.5V9.90485a3.50017,3.50017,0,0,1,3.5-3.5h43.92383a3.5,3.5,0,0,1,2.84863,1.46679l39.42188,55.231V9.753a3.50017,3.50017,0,0,1,3.5-3.5h25.22949a3.50017,3.50017,0,0,1,3.5,3.5v93.61768a3.50049,3.50049,0,0,1-3.5,3.5Z"/><path d="M836.57764,9.75285v93.6182H792.68243c-14.26019-20.43941-28.73956-41.193-43.219-61.94666l-1.16693.27237v61.55941H721.65363V9.905h43.92376c14.4408,20.23229,29.37488,41.15551,44.309,62.07885q.73032-.23925,1.46088-.47854V9.75285h25.23041m0-7H811.34723a7,7,0,0,0-7,7V52.17407l-6.20038-8.687L771.275,5.83833A7,7,0,0,0,765.57739,2.905H721.65363a7,7,0,0,0-7,7v93.35119a7,7,0,0,0,7,7h26.64288a7,7,0,0,0,7-7V62.01884l12.54718,17.98407,19.0979,27.37345a7,7,0,0,0,5.74084,2.99469h43.89521a7,7,0,0,0,7-7V9.75285a7,7,0,0,0-7-7Z" fill="#fff"/><path d="M121.06641,107.98688a3.50017,3.50017,0,0,1-3.5-3.5V8.85358a3.49985,3.49985,0,0,1,3.5-3.5h32.062a3.49986,3.49986,0,0,1,3.5,3.5V35.30621h43.58691V8.72711a3.49987,3.49987,0,0,1,3.5-3.5h31.24854a3.49987,3.49987,0,0,1,3.5,3.5v95.6836a3.50018,3.50018,0,0,1-3.5,3.5H203.793a3.50017,3.50017,0,0,1-3.5-3.5V74.57477H156.94385v29.91211a3.50018,3.50018,0,0,1-3.5,3.5Z"/><path d="M234.96362,8.72731v95.68353H203.793V71.07458H153.44373v33.4121H121.06665V8.85359H153.1283V38.80646h50.58715V8.72731h31.24817m0-7H203.71545a7,7,0,0,0-7,7V31.80646H160.1283V8.85359a7,7,0,0,0-7-7H121.06665a7,7,0,0,0-7,7v95.63309a7,7,0,0,0,7,7h32.37708a7,7,0,0,0,7-7V78.07458H196.793v26.33626a7,7,0,0,0,7,7h31.17065a7,7,0,0,0,7-7V8.72731a7,7,0,0,0-7-7Z" fill="#fff"/><path d="M661.06543,108.86285c-3.375-.168-6.67188-.291-9.91406-.41211-7.19824-.26953-13.99805-.52343-20.876-1.21484-17.16016-1.72461-24.67383-8.41113-27.72266-24.66992a139.56477,139.56477,0,0,1,.23243-51.78223c2.54882-13.50927,10.9082-21.50537,24.17675-23.12451a280.84686,280.84686,0,0,1,33.89063-2.05957,285.3233,285.3233,0,0,1,34.13281,2.06738c13.96973,1.68994,22.916,10.44678,25.19141,24.65869,3.09863,19.35694,2.91015,36.31055-.57617,51.83008-3.26172,14.51172-10.98731,21.34668-25.835,22.85157-7.73243.78417-15.45508,1.10839-22.92286,1.42187-3.19629.13477-6.34277.2666-9.415.43262-.0625.00293-.126.00488-.18847.00488C661.18164,108.86676,661.12305,108.86578,661.06543,108.86285ZM649.65234,37.08453c-2.6748,0-4.87207.04981-6.916.15723-6.15235.32275-7.31934,2.28662-7.60742,6.56543a258.66333,258.66333,0,0,0,.0166,26.81006c.12207,3.34228,1.82324,5.06982,5.05762,5.13623l2.7871.05664c7.27637.14941,14.80079.30371,22.18165.30371,5.583,0,10.57519-.08691,15.26171-.2666,4.07813-.15723,6.18457-1.35645,6.376-7.478.22754-7.25488.22168-14.86084-.01562-22.60693-.19532-6.4043-1.97754-8.24365-8.28809-8.55615-1.96094-.09717-4.06445-.14209-6.62305-.14209-1.80957,0-3.62109.022-5.43261.04443-1.69336.02051-3.38672.0415-5.07911.04443a3.53883,3.53883,0,0,1-.43945.02735c-1.89453,0-3.78906-.02393-5.68457-.04834C653.38184,37.10846,651.5166,37.08453,649.65234,37.08453Z"/><path d="M660.85376,9.0999a280.59384,280.59384,0,0,1,33.712,2.04164c12.68635,1.53453,20.145,9.18675,22.15461,21.73747,2.69671,16.84139,3.22735,33.76657-.53461,50.509-2.90424,12.92531-9.48773,18.79031-22.77258,20.13728-10.93451,1.10859-21.963,1.29053-32.17371,1.84137-10.75787-.53375-20.73169-.62037-30.61438-1.61321-15.392-1.54635-21.84894-6.98982-24.63147-21.83307a135.71184,135.71184,0,0,1,.23078-50.48762c2.24975-11.92259,9.40124-18.86432,21.16137-20.2992a276.18022,276.18022,0,0,1,33.468-2.03364m.078,24.58021c-3.75757,0-7.51935-.09558-11.27691-.09558-2.37006,0-4.7389.03806-7.10242.16211-7.09985.37262-10.45618,2.99243-10.91577,9.82563a262.85224,262.85224,0,0,0,.01129,27.17231c.18512,5.07065,3.29333,8.40268,8.48431,8.50762,8.34406.16867,16.69513.36168,25.04151.36168,5.13421,0,10.2677-.07309,15.39355-.26984,6.84772-.26274,9.52161-3.87787,9.74048-10.86559.238-7.60118.21741-15.22143-.01538-22.82337-.25092-8.19341-3.49921-11.54265-11.61346-11.94469-2.2624-.11206-4.52784-.14661-6.79578-.14661-3.649,0-7.30335.08948-10.95233.08948l.00091.02685m-.078-31.58023A284.41663,284.41663,0,0,0,626.538,4.18507c-14.71643,1.79557-24.37347,11.01136-27.19226,25.9497a143.04633,143.04633,0,0,0-.2323,53.07531c3.31293,17.67278,12.23975,25.64247,30.81189,27.50828,6.99073.70231,13.847.95869,21.10584,1.2301,3.20447.11981,6.518.24371,9.86139.40959q.17331.00859.3468.0086.18869,0,.37714-.01017c3.04535-.16427,6.12066-.29349,9.37658-.43025,7.51789-.31581,15.29169-.64237,23.1261-1.43665,16.16321-1.63881,25.34516-9.76291,28.89624-25.567,3.58624-15.96035,3.788-33.346.61682-53.15035-2.54455-15.89134-12.56872-25.68616-28.22589-27.58a288.84594,288.84594,0,0,0-34.55261-2.09232Zm.7,38.55257c1.66113-.00429,3.32459-.02466,4.939-.04443,1.77417-.02175,3.60876-.04422,5.39044-.04422,2.5,0,4.5484.04384,6.44946.138,3.23755.1604,4.00482.85838,4.08161.93744.07946.08178.77929.89521.88147,4.23.235,7.67688.24029,15.21.0155,22.39011-.09,2.87164-.67725,3.58852-.70221,3.61765a4.4453,4.4453,0,0,1-2.31012.47212c-4.63977.1781-9.58722.26466-15.12512.26466-7.34418,0-14.84937-.15413-22.10749-.30319l-2.79254-.057c-1.10846-.02242-1.5672-.0317-1.63049-1.76448a255.88731,255.88731,0,0,1-.0224-26.44722,4.88793,4.88793,0,0,1,.58417-2.52938c.02893-.0252.74267-.61958,3.71429-.77556,1.98218-.104,4.12244-.15249,6.73554-.15249,1.83429,0,3.723.024,5.54943.04721,1.87024.02379,3.8042.04838,5.72748.04838q.31275,0,.62195-.02766Z" fill="#fff"/><path d="M295.21289,108.86285c-3.43945-.168-6.78271-.28906-10.05664-.40722-7.21387-.26172-14.02783-.50782-20.89111-1.2041C246.57128,105.4566,239.229,98.71637,236.207,81.49567a138.38645,138.38645,0,0,1,.53418-51.11914c2.60108-13.08008,10.6167-20.85694,23.18018-22.49073a269.10169,269.10169,0,0,1,34.57715-2.27148,252.56445,252.56445,0,0,1,35.90429,2.55762c11.57031,1.66748,19.27783,9.04492,21.70264,20.773a141.712,141.712,0,0,1,.17236,56.15234c-2.49414,12.76074-11.23193,20.52832-24.603,21.874-7.7456.7793-15.44677,1.12012-22.89453,1.44922-3.13769.13867-6.21484.27539-9.20312.44043-.06445.00391-.1294.00586-.19385.00586C295.32666,108.86676,295.26953,108.86578,295.21289,108.86285ZM283.0625,38.31842c-3.02441,0-5.50928.04492-7.81885.14111-5.05908.21-6.00049,1.54883-6.26025,5.46534-.58106,8.751-.36426,17.76757-.09277,26.25293.08056,2.50537,1.08007,5.50732,5.38818,5.58349,6.56152.11426,13.1167.17285,19.4834.17285,7.251,0,14.48974-.07519,21.51562-.22461,4.11475-.08789,5.09961-3.24463,5.20117-5.877.36719-9.50537.34961-17.9126-.05322-25.70264-.20849-4.03418-1.75342-5.45752-6.12158-5.63916-2.15967-.09033-4.48193-.13183-7.30957-.13183-1.91943,0-3.83936.01855-5.75928.0376-1.94287.019-3.88574.03808-5.82764.03808a3.49331,3.49331,0,0,1-.501-.03613c-1.90137-.00293-3.80322-.02149-5.70508-.04C287.15479,38.33844,285.1084,38.31842,283.0625,38.31842Z"/><path d="M294.4982,9.11441A247.91347,247.91347,0,0,1,329.90314,11.636c10.37573,1.4955,16.68207,7.89322,18.77478,18.01715a137.74694,137.74694,0,0,1,.16467,54.77326c-2.299,11.76291-10.05542,17.90859-21.51813,19.06209-10.92193,1.099-21.93182,1.32288-31.941,1.87809-10.93268-.53343-20.89645-.59652-30.76519-1.5974-16.001-1.62278-22.19715-7.11266-24.96393-22.87769a134.63582,134.63582,0,0,1,.51947-49.83228c2.2232-11.17841,8.75793-18.21487,20.199-19.70294a264.4068,264.4068,0,0,1,34.12546-2.2419M293.743,79.4343q10.80611,0,21.60895-.22617c5.53-.11763,8.42474-4.06635,8.62457-9.24054.33454-8.66252.392-17.365-.05548-26.01849-.31061-6.00775-3.43152-8.704-9.4715-8.95557-2.48278-.10342-4.96762-.13486-7.45468-.13486-3.861,0-7.7261.07582-11.58713.07582l.00113-.03555c-4.11413,0-8.231-.08031-12.34512-.08031-2.65692,0-5.313.03351-7.96539.14377-6.285.26135-9.19593,2.53447-9.6073,8.73059-.58637,8.83149-.38208,17.73651-.09833,26.59679.17145,5.35419,3.40259,8.87563,8.82489,8.97072q9.76026.17123,19.52539.1738m.75522-77.31989A272.66034,272.66034,0,0,0,259.47,4.41478c-13.99045,1.81963-23.28152,10.79726-26.16174,25.279a141.88961,141.88961,0,0,0-.54856,52.40771c3.27536,18.66294,12.00965,26.69056,31.15229,28.632,6.97406.70731,13.84045.95588,21.11,1.21906,3.24829.1176,6.60721.23922,10.02033.40575q.17042.00831.34106.00831.194,0,.38779-.01075c2.9574-.164,5.966-.29712,9.15118-.438,7.50009-.33179,15.2555-.67485,23.103-1.46447,15.03918-1.51341,24.87207-10.27979,27.68732-24.68423a145.19146,145.19146,0,0,0-.17963-57.533c-2.74481-13.27885-11.49237-21.63478-24.63117-23.52853A256.05606,256.05606,0,0,0,294.4982,2.11441ZM272.78281,42.349a8.54663,8.54663,0,0,1,2.60632-.39259c2.26071-.094,4.69934-.13776,7.67459-.13776,2.0343,0,4.06928.02,6.10425.03982,1.84509.018,3.69034.03592,5.53494.03975a6.85906,6.85906,0,0,0,.7048.0363c1.9534,0,3.90784-.01905,5.86228-.03823,1.90863-.01873,3.8172-.03757,5.72485-.03757,2.77884,0,5.0539.04091,7.16339.12878a5.14736,5.14736,0,0,1,2.42737.46865,4.79217,4.79217,0,0,1,.34476,1.85438c.39746,7.686.41424,15.99007.05136,25.387-.09564,2.47644-.95123,2.49463-1.77866,2.51226-7.00869.149-14.22894.22456-21.46011.22456-6.34259,0-12.87054-.05809-19.40259-.17271-1.1333-.01989-1.882-.033-1.95126-2.19582-.26895-8.399-.48383-17.318.08655-25.909a6.62215,6.62215,0,0,1,.30716-1.80775Z" fill="#fff"/><path d="M542.57715,107.16559a225.47018,225.47018,0,0,1-23.417-1.00879c-16.38623-1.73828-22.20557-7.69629-23.94873-24.51953a46.95852,46.95852,0,0,1-.10791-6.10742c.02441-.95313.0498-1.94532.0498-2.99414a3.49985,3.49985,0,0,1,3.5-3.5h23.41113a64.13083,64.13083,0,0,1-7.96191-1.0503c-12.0249-2.42724-17.38525-8.04052-18.50195-19.37549a87.549,87.549,0,0,1,1.064-23.605c1.55322-8.88183,8.15576-14.7456,18.59131-16.51171a209.46083,209.46083,0,0,1,35.29785-2.8379A285.53224,285.53224,0,0,1,581.417,7.41412c11.36426,1.22657,17.10547,6.8501,19.19531,18.80274a68.55266,68.55266,0,0,1,.77344,9.09717c.05957,1.43945.12012,2.93359.22461,4.501a3.49974,3.49974,0,0,1-3.49219,3.73242c-.06152,0-.12207-.00146-.18457-.00488l-16.00586-.84326c.26758.02344.53418.04785.80176.07275,14.38379,1.33448,21.19922,8.35938,22.09864,22.77686a99.44069,99.44069,0,0,1-.97071,20.30322c-1.78125,12.32813-8.32031,18.63672-20.57812,19.85156-11.53321,1.14454-23.0752,1.332-33.90821,1.42676C547.10938,107.15,544.84375,107.16559,542.57715,107.16559ZM524.332,69.1778a3.49992,3.49992,0,0,1,2.44922,2.6997c1.02539,5.35156,4.37695,6.21778,11.999,6.22559q5.877.00585,11.75391.00586l11.75488-.00489c.915,0,1.94922,0,2.90332-.07519,7.06153-.55371,7.13184-2.41113,7.17871-3.63965.03907-1.05371.14551-3.85254-6.998-4.126-7.15918-.2749-14.458-.42529-21.5166-.5708-5.63672-.11621-11.46485-.23632-17.20508-.41943Q525.45459,69.23493,524.332,69.1778Zm22.68164-27.81934c2.80567,0,4.9502.02685,6.95508.08643l4.36133.12353c4.43164.12207,8.94629.24658,13.47656.46191a3.50028,3.50028,0,0,1-2.33789-2.93066c-.41309-3.80371-1.88574-5.73535-8.78418-5.73535-.30371,0-.61035.00342-.917.00976-8.63184.17041-17.83789.37989-27.13086.88819a5.21128,5.21128,0,0,0-3.39453,1.04,3.22449,3.22449,0,0,0-.42969,2.20752c.14551,1.92334.625,3.66015,4.82129,3.7832,1.91894.05664,3.9834.08154,6.69238.08154C541.43652,41.37457,545.89551,41.35846,547.01367,41.35846Z"/><path d="M550.554,9.15518a284.16768,284.16768,0,0,1,30.48663,1.73866c10.03967,1.08368,14.35577,5.81351,16.12482,15.926.71337,4.0772.62493,8.29462.95324,13.22741-8.74963-.461-16.715-.88062-25.17016-1.32608-.82611-7.59411-6.19635-8.85692-12.26392-8.85692-.32666,0-.65625.00367-.98633.01021-9.08758.17994-18.17944.39637-27.25329.89309-4.12769.22588-7.51239,1.882-7.12262,7.0072.3858,5.07221,3.76172,6.88642,8.20935,7.01709,2.26294.06653,4.52643.083,6.79132.083,2.23388,0,4.46875-.01606,6.70263-.01606,2.28016,0,4.56031.01675,6.83851.08444,9.52063.28291,19.06842.43458,28.54223,1.31367,12.724,1.1807,18.12982,6.71237,18.92859,19.51a96.07105,96.07105,0,0,1-.94165,19.58435c-1.54181,10.66929-6.5882,15.79229-17.45972,16.87041-11.137,1.10444-22.38739,1.3113-33.59253,1.40906q-3.37315.02943-6.75317.035a218.89363,218.89363,0,0,1-23.05847-.98967c-14.9538-1.58577-19.28809-6.45477-20.83649-21.39891-.27978-2.7005-.03985-5.455-.03985-8.74154h24.69055c1.63531,8.53542,8.39093,9.06063,15.43371,9.06751q5.9632.00591,11.92621.00563,5.79391,0,11.58814-.00435c1.05871-.00073,2.12121-.003,3.17553-.08588,7.13434-.56011,10.237-2.65724,10.40137-6.99737.17584-4.64539-3.237-7.48248-10.36206-7.75557-12.90808-.49484-25.83154-.57964-38.74359-.99065a72.32855,72.32855,0,0,1-11.96838-1.22026c-10.1764-2.05432-14.711-6.14015-15.71106-16.288a84.807,84.807,0,0,1,1.029-22.65889c1.4339-8.20015,7.9245-12.34308,15.7276-13.66359a207.58735,207.58735,0,0,1,34.71387-2.789m.00006-7a212.9012,212.9012,0,0,0-35.8819,2.88714c-11.83374,2.0026-19.65381,9.059-21.455,19.35971a91.04966,91.04966,0,0,0-1.09985,24.55124c.726,7.3663,3.20422,12.78784,7.73578,16.58238h-1.2a7,7,0,0,0-7,7c0,.9905-.02466,1.96376-.04847,2.905a50.3727,50.3727,0,0,0,.12561,6.55794c1.91584,18.49045,8.9972,25.723,27.061,27.6385a228.95211,228.95211,0,0,0,23.79663,1.02871q3.4108,0,6.81421-.03529c10.91394-.09524,22.54645-.28509,34.22229-1.443,13.92468-1.38088,21.676-8.85032,23.697-22.83509a102.98558,102.98558,0,0,0,1.00006-21.02154c-.522-8.36272-2.899-14.61377-7.291-18.918a7.00007,7.00007,0,0,0,4.07275-6.83052c-.10052-1.51033-.16119-2.98626-.21985-4.41359a71.284,71.284,0,0,0-.82269-9.55542c-2.34479-13.40355-9.4209-20.29228-22.26886-21.6791A288.99893,288.99893,0,0,0,550.554,2.15517Zm-17.52655,35.591c9.15545-.497,18.26184-.70385,26.80938-.87309.28357-.0056.5669-.00883.84772-.00883,3.79059,0,4.76337.4057,5.10156,1.42317-2.46881-.0829-4.92279-.1506-7.35132-.21761q-2.182-.06021-4.36279-.12347c-2.03778-.06053-4.21094-.08752-7.04645-.08752q-1.688,0-3.37646.00808-1.66315.006-3.32611.008c-2.67182,0-4.70288-.02468-6.58563-.08-.276-.00811-.51117-.02594-.7099-.0487ZM550.70355,74.6088q-5.9598,0-11.91925-.00565c-5.66937-.00554-7.38373-.54962-8.06323-1.70914,4.38623.11865,8.78039.20931,13.06366.29769,7.04321.14529,14.32629.29553,21.45367.56877a13.81376,13.81376,0,0,1,2.755.34619,21.00309,21.00309,0,0,1-3.074.43336c-.80371.06316-1.7334.0638-2.63251.06441q-5.79162.00413-11.58325.00437Z" fill="#fff"/><path d="M935.1123,110.50055a25.38645,25.38645,0,0,1-10.23925-2.29883c-11.13282-4.83789-22.64063-9.374-33.77051-13.75976q-6.83057-2.69092-13.63965-5.4043a3.5011,3.5011,0,0,1-2.19824-3.249V62.74957a3.50059,3.50059,0,0,1,4.56738-3.33349l6.22266,1.99267V52.12653l-5.92578,2.083a3.49983,3.49983,0,0,1-4.66114-3.30175V27.63043a3.5,3.5,0,0,1,2.25489-3.271l11.61328-4.42627c13.7207-5.23389,27.9082-10.646,41.97949-15.853a10.10845,10.10845,0,0,1,3.50879-.58008,14.81663,14.81663,0,0,1,4.94824.88818c14.02734,5.12305,27.70117,10.23194,42.17774,15.64112l12.27246,4.58252A3.50021,3.50021,0,0,1,996.5,27.89117V51.0401a3.50038,3.50038,0,0,1-4.64062,3.30908L985.415,52.128v9.2334l6.38769-2.0791a3.49984,3.49984,0,0,1,4.583,3.32812V85.66266a3.50231,3.50231,0,0,1-2.21972,3.25781q-6.95068,2.73194-13.94239,5.43067c-11.41992,4.42675-23.22754,9.00585-34.69726,13.84082A26.58543,26.58543,0,0,1,935.1123,110.50055Zm-8.18066-13.66016V88.98785L886.28613,73.61578v7.77637ZM935.17285,81.108,952.208,74.36871V40.27643l-17.05078-6.72754-15.81836,6.52734V74.52887Zm51.043-40.02344v-7.8789L945.56738,17.72516v7.82666Z"/><path d="M934.82446,7a11.30425,11.30425,0,0,1,3.74756.67642c18.04736,6.59082,36.03162,13.35388,54.428,20.215V51.04c-3.721-1.28241-7.21582-2.48688-11.08459-3.82025V66.18129c3.703-1.20528,7.14855-2.32678,10.97058-3.57082V85.663c-16.18677,6.36253-32.59107,12.50481-48.71875,19.30363A23.05272,23.05272,0,0,1,935.1134,107a21.896,21.896,0,0,1-8.84533-2.0087c-15.67517-6.81213-31.6803-12.8651-47.50318-19.20319V62.74951c3.6919,1.182,7.02222,2.24828,10.7898,3.45453V47.18648c-3.56214,1.252-6.804,2.39134-10.5874,3.72119V27.63045c17.68359-6.72963,35.58081-13.614,53.56335-20.2676A6.67628,6.67628,0,0,1,934.82446,7m54.89136,39.169V30.7935c-15.76636-6.00444-31.42212-11.96664-47.6488-18.14633V27.96088c15.8114,6.042,31.42444,12.00822,47.6488,18.20813m-54.575,38.71544c6.99512-2.76713,13.82092-5.46741,20.5675-8.13628V37.89461c-6.85888-2.70619-13.67309-5.39467-20.58044-8.11989-6.43945,2.65735-12.84106,5.29907-19.28906,7.95991v39.13c6.4768,2.691,12.874,5.349,19.302,8.01981m-4.709,17.02987V86.57025c-15.8164-5.98193-31.49475-11.91156-47.64611-18.02008V83.80573c15.75207,5.98675,31.4519,11.95372,47.64611,18.10859M934.82471,0h-.00025a13.57535,13.57535,0,0,0-4.7229.79782c-14.102,5.21781-28.31238,10.63847-42.05481,15.88066q-5.7984,2.2119-11.56921,4.40969a7,7,0,0,0-4.51025,6.54228V50.90767a7,7,0,0,0,2.95336,5.71178q.10548.07473.21326.14532-.25341.15389-.49573.33049a7,7,0,0,0-2.87329,5.65425V85.78813a6.99986,6.99986,0,0,0,4.3971,6.49806c4.55053,1.82279,9.18469,3.64913,13.66626,5.41535,11.09887,4.37409,22.57568,8.89712,33.64978,13.70975A28.81284,28.81284,0,0,0,935.1134,114a29.9912,29.9912,0,0,0,11.77307-2.58309c11.43567-4.82088,23.23389-9.39507,34.64356-13.81866,4.56555-1.77013,9.28662-3.60047,13.91675-5.42043A7.00006,7.00006,0,0,0,999.886,85.663V62.61047a7.00011,7.00011,0,0,0-2.887-5.66418q-.0575-.04173-.11572-.08223.09118-.0608.18079-.12471A6.99988,6.99988,0,0,0,1000,51.04V27.89142a7.00007,7.00007,0,0,0-4.55383-6.55869q-6.13019-2.28635-12.20459-4.55728c-14.50574-5.41987-28.207-10.53917-42.26831-15.67425A18.39045,18.39045,0,0,0,934.82471,0ZM949.067,23.14214v-.3387l4.96484,1.89079,28.684,10.92387v.3823L949.067,23.14214ZM922.83887,42.41858l12.3479-5.09552,13.5216,5.33487V71.98949l-2.82678,1.11827-10.67615,4.22333L922.83887,72.1929V42.41858Zm-33.0531,36.55908v-.29613l33.64611,12.72519v.35862L889.78577,78.97766Z" fill="#fff"/><path d="M52.89551,107.89606a3.50017,3.50017,0,0,1-3.5-3.5V40.20856H17.76758a3.49986,3.49986,0,0,1-3.5-3.5V8.72076a3.49986,3.49986,0,0,1,3.5-3.5h100.0581a3.49986,3.49986,0,0,1,3.5,3.5V36.2027a3.49986,3.49986,0,0,1-3.5,3.5H88.02246v64.69336a3.50017,3.50017,0,0,1-3.5,3.5Z"/><path d="M117.8255,8.72083V36.20294H84.52234v68.19294H52.89563V36.7085H17.76756V8.72083H117.8255m0-7H17.76756a7,7,0,0,0-7,7V36.7085a7,7,0,0,0,7,7H45.89563v60.68738a7,7,0,0,0,7,7H84.52234a7,7,0,0,0,7-7V43.20294H117.8255a7,7,0,0,0,7-7V8.72083a7,7,0,0,0-7-7Z" fill="#fff"/><path d="M424.20792,64.51927c-9.89172-18.97732-19.333-37.09064-28.5627-54.79781H354.07169v93.59132H380.5425V46.00815l1.52634-.55849q14.81751,28.98567,29.622,57.94594h25.03759c9.65137-19.535,19.18647-38.83485,28.72165-58.13473l1.43427.45657v57.52612H493.008V9.57663H451.74391C442.69386,27.63426,433.64239,45.69467,424.20792,64.51927Z"/><path d="M811.34723,71.50531q-.73051.23922-1.46088.47851C794.95228,51.0605,780.0182,30.13725,765.57737,9.905H721.65364v93.3512h26.64284V41.69675l1.167-.27236c14.47945,20.75362,28.95884,41.50724,43.219,61.94664h43.89524V9.75287H811.34723Z"/><path d="M203.71543,38.80648H153.1283V8.85356H121.06665v95.63316h32.37708V71.07459H203.793v33.33622h31.1706V8.7273H203.71543Z"/><path d="M694.56573,11.14153a277.88443,277.88443,0,0,0-67.18-.008c-11.76017,1.43488-18.91163,8.37658-21.16142,20.29915a135.71142,135.71142,0,0,0-.23073,50.48762c2.7825,14.84329,9.23944,20.28676,24.63144,21.83309,9.8827.99288,19.85649,1.07946,30.61437,1.61322,10.21068-.55082,21.23921-.73277,32.17371-1.84139,13.28486-1.347,19.86836-7.212,22.77261-20.13727,3.76193-16.7424,3.23133-33.66758.53459-50.509C714.71067,20.32828,707.25205,12.67606,694.56573,11.14153Zm-4.258,57.337c-.21886,6.98769-2.89275,10.60284-9.74043,10.86559-13.45869.51654-26.95827.18052-40.43507-.09184-5.191-.10492-8.29924-3.437-8.48435-8.50765a262.84943,262.84943,0,0,1-.01127-27.17231c.45958-6.83317,3.81589-9.453,10.91579-9.82566,6.11077-.32069,12.25169-.06651,18.3793-.06651l-.00091-.02683c5.917,0,11.8457-.23524,17.74814.05712,8.11421.402,11.36252,3.75125,11.61346,11.94467C690.5252,53.257,690.5458,60.87729,690.30778,68.47848Z"/><path d="M329.90314,11.636a255.00161,255.00161,0,0,0-69.53039-.27973c-11.44106,1.488-17.97579,8.52456-20.199,19.703a134.63551,134.63551,0,0,0-.51948,49.83226c2.76679,15.765,8.96286,21.25491,24.96393,22.87767,9.86872,1.00085,19.83251,1.064,30.76521,1.59744,10.00918-.55525,21.01907-.77914,31.941-1.87814,11.46271-1.1535,19.21909-7.29914,21.51811-19.062a137.74627,137.74627,0,0,0-.16466-54.77331C346.58519,19.52923,340.27886,13.13151,329.90314,11.636ZM323.9765,69.96762c-.19984,5.17418-3.09455,9.12287-8.62459,9.24049q-20.56007.43717-41.13432.05238c-5.42227-.09507-8.65345-3.6165-8.82488-8.97068-.28379-8.86028-.48806-17.76535.0983-26.59684.41141-6.19608,3.32234-8.46924,9.60733-8.73056,6.75937-.281,13.53941-.06351,20.3105-.06351l-.00113.03563c6.34812,0,12.70473-.205,19.0418.059,6.04.25162,9.1609,2.94783,9.47152,8.95557C324.36851,52.60262,324.311,61.30508,323.9765,69.96762Z"/><path d="M582.4064,46.25691c-9.47385-.8791-19.02166-1.03076-28.54225-1.31365-6.77305-.20126-13.55933.04773-20.33245-.15144-4.44765-.13069-7.82358-1.94488-8.20936-7.01708-.38975-5.12518,2.99489-6.78131,7.1226-7.00723,9.07387-.49671,18.16571-.71315,27.25333-.89308,6.46145-.128,12.3796.84378,13.25021,8.84668,8.45519.44552,16.42051.86512,25.17016,1.32612-.32828-4.93278-.23983-9.15023-.95321-13.22743-1.76909-10.11245-6.08514-14.84224-16.12484-15.92591-21.74012-2.34652-43.54457-2.61445-65.20051,1.0503-7.80306,1.32049-14.29368,5.46346-15.72757,13.66357a84.8067,84.8067,0,0,0-1.029,22.6589c1.0001,10.14792,5.53471,14.23369,15.71111,16.288a72.327,72.327,0,0,0,11.96835,1.2203c12.91208.411,25.83551.4958,38.74361.99063,7.12508.27312,10.53791,3.11018,10.36205,7.75556-.16437,4.34018-3.267,6.43725-10.40135,6.99739-1.05436.08282-2.11684.08515-3.17556.0859q-11.75724.00836-23.51433-.00127c-7.04278-.00692-13.79839-.53211-15.43371-9.06756H498.65305c0,3.28657-.23989,6.041.03991,8.74153,1.54836,14.94415,5.88268,19.8132,20.83644,21.39891a261.59932,261.59932,0,0,0,29.81164.95471c11.20514-.09778,22.4556-.30469,33.59258-1.4091,10.87152-1.07811,15.91786-6.20111,17.45968-16.87039a96.06989,96.06989,0,0,0,.94163-19.58435C600.53618,52.96931,595.13036,47.43761,582.4064,46.25691Z"/><path d="M993,51.04V27.89144c-18.39635-6.86113-36.38055-13.62418-54.42789-20.215a9.54031,9.54031,0,0,0-6.04148-.31363c-17.98255,6.65363-35.87979,13.538-53.56337,20.26759v23.2772c3.78349-1.3298,7.02534-2.46917,10.58743-3.72119V66.204c-3.76756-1.20626-7.09795-2.27249-10.78983-3.45454V85.78816c15.82295,6.338,31.82807,12.391,47.50318,19.20315,6.32136,2.7471,11.63413,2.61655,17.89928-.02465,16.1277-6.79883,32.532-12.94109,48.71875-19.30364V62.61046c-3.82213,1.244-7.26773,2.36553-10.97066,3.5708V47.21973C985.78412,48.55308,989.279,49.7576,993,51.04Zm-62.56817,50.8743c-16.19414-6.15482-31.894-12.12182-47.64605-18.10858V68.55018c16.15137,6.10852,31.82964,12.03817,47.64605,18.02Zm25.27658-25.1661c-6.7466,2.66886-13.57241,5.36914-20.56746,8.1363-6.42809-2.67089-12.82521-5.32885-19.302-8.01988v-39.13L935.128,29.7747c6.90728,2.72523,13.72151,5.4137,20.58039,8.11992ZM942.067,27.96089V12.64713c16.22676,6.17969,31.88248,12.14195,47.64883,18.14638V46.169C973.49147,39.96915,957.87844,34.0029,942.067,27.96089Z"/><path d="M17.76759,36.70851h35.128v67.68734H84.52233V36.20293h33.30315V8.72083H17.76759Z"/></g></svg>