<svg id="Layer_1" data-name="Layer 1" xmlns="http://www.w3.org/2000/svg" viewBox="0 0 105 105"><title>icon_empty</title><path d="M100,54.97937a23.16169,23.16169,0,0,0-4.36554-13.54962h.02283a25.88509,25.88509,0,0,0-6.01044-7.89191A42.6093,42.6093,0,0,0,66.33706,15.41455C58.74551,10.451,48.017,6.36817,33.20827,6.36817c0,0,14.24976,5.8482,14.62043,11.30279,0,0-17.16474-4.89178-32.84681,2.06842l15.42127,3.0293L2.85543,42.01551h13.719L0,53.6615l.01367.08692L16.5881,65.38983H2.86916L30.17892,84.47644c.59027.43476,1.18975.86035,1.80749,1.25843l1.21338.84893-2.57245.50556c.63672.28265,1.27661.53576,1.91724.77514L13.38027,91.63343c15.68665,6.96472,32.84222,2.06378,32.84222,2.06378C45.85183,99.14728,31.60659,105,31.60659,105c14.6889,0,25.363-4.016,32.94342-8.92419A42.91557,42.91557,0,0,0,87.76089,78.60993a26.449,26.449,0,0,0,6.88519-8.66236l-.10529.01831A23.20718,23.20718,0,0,0,100,54.97937Z" fill="#fff"/></svg>