<svg id="Layer_1" data-name="Layer 1" xmlns="http://www.w3.org/2000/svg" viewBox="0 0 105 105"><title>icon_filled</title><path d="M.33265,70.38087c.68513-8.918,3.78167-17.06006,8.05558-24.806A69.19963,69.19963,0,0,1,23.04472,27.29362C29.004,21.98022,35.7348,17.87734,43.65052,16.24a31.71861,31.71861,0,0,1,21.94877,3.47657c11.07846,5.94835,19.06489,14.98473,25.3809,25.62889a66.08253,66.08253,0,0,1,8.08669,20.823c.30352,1.51423.39978,3.07.59159,4.60665L100,72.358v3.90625c-1.14377,3.0286-3.42355,4.10919-6.52735,3.89583-1.29379-.08894-2.59965-.00218-3.9.0047a8.752,8.752,0,0,0-.55273-1.8271c-.89468-1.60936-1.59556-3.47074-2.88749-4.68558-2.88244-2.71048-7.68361-2.637-9.60927,1.79346a8.34908,8.34908,0,0,0-.41221,4.69793l-7.20452.29235a4.97711,4.97711,0,0,0-1.10486-.25547c-3.75727-.00464-7.51454.01762-11.27182.03238-3.99781-.023-7.99561-.05408-11.99342-.05552a4.40532,4.40532,0,0,0-1.09862.29051,4.60613,4.60613,0,0,0-1.07982-.26689c-3.748-.00593-7.4961.0159-11.24417.03L23.88939,80.146c.07265-.43721.12869-.878.22063-1.31107.65217-3.07231-2.28407-6.7306-5.40206-6.93957-3.69908-.24791-6.40866,2.62408-7.366,5.2109-.37433,1.01147-.6609,2.05542-.98745,3.08457-1.16095-.01609-2.32872-.12052-3.48158-.03161C3.50424,80.41894,1.1997,79.05252,0,75.87365V71.9674Zm29.45361,3.435H70.28854a11.88557,11.88557,0,0,1,1.31637-2.44074c1.36806-1.53074,2.66325-3.29723,4.37564-4.31781C81.22267,63.933,88.33293,65.979,92.059,70.60123c.43838.54379.89433,1.07341,1.34213,1.60959l.4642-.26584c-.66851-2.94091-1.18435-5.92665-2.03231-8.81488A67.87516,67.87516,0,0,0,73.475,33.168C68.11143,27.97047,62.0913,23.82132,54.5589,22.384a26.60589,26.60589,0,0,0-18.67752,3.40938A55.8553,55.8553,0,0,0,19.8568,39.73283,63.45138,63.45138,0,0,0,6.71042,68.1c-.26475,1.42983-.2889,2.90423-.42446,4.358,5.199-8.44715,18.55154-10.35055,23.5003,1.35783Z" fill="#41c6a9"/><path d="M.33265,70.38087,0,71.9674V70.4049A2.20187,2.20187,0,0,1,.33265,70.38087Z" fill="#c0f2e6"/><path d="M100,72.358l-.34153-1.583q.17088.0084.34153.02045Z" fill="#c0f2e6"/><path d="M10.35447,80.1908c.32655-1.02915.61312-2.07309.98745-3.08457.95738-2.58682,3.667-5.45881,7.366-5.2109,3.118.209,6.05423,3.86726,5.40206,6.93957-.09194.43311-.148.87385-.22063,1.31107a8.83424,8.83424,0,0,1-1.06013,1.992,14.29834,14.29834,0,0,0-3.70061,9.64253c-.13949,4.34345-.369,8.684-.55406,12.90116C13.35832,99.64945,8.80714,89.54443,10.35447,80.1908Z" fill="#665d0a"/><path d="M76.11091,80.14351a8.3491,8.3491,0,0,1,.41222-4.69793c1.92566-4.43049,6.72683-4.50394,9.60927-1.79346,1.29193,1.21485,1.99281,3.07622,2.88749,4.68558a8.75221,8.75221,0,0,1,.55273,1.8271A26.20123,26.20123,0,0,1,87.9362,94.20646,38.52305,38.52305,0,0,1,81.39988,105c-.06651-.73659-.13186-1.20113-.14687-1.6673-.13144-4.0811-.20092-8.165-.3956-12.243a13.16564,13.16564,0,0,0-3.5123-8.78717A10.26791,10.26791,0,0,1,76.11091,80.14351Z" fill="#665d0a"/><path d="M31.11368,80.21089c3.74807-.01412,7.49615-.03595,11.24418-.03a4.6064,4.6064,0,0,1,1.07981.26688c-2.70282,2.29544-3.6667,5.51735-4.32178,8.763-.73439,3.63862-1.07131,7.35741-1.58555,11.04071a6.518,6.518,0,0,1-.19161.67735C31.63359,94.98292,30.03522,88.00319,31.11368,80.21089Z" fill="#665d0a"/><path d="M56.52971,80.21277c3.75728-.01475,7.51456-.037,11.27182-.03237a4.97709,4.97709,0,0,1,1.10486.25546c1.03629,7.69521-.62075,14.57244-6.35245,20.61149-.30119-2.75865-.5132-5.2144-.84895-7.6531a29.40584,29.40584,0,0,0-2.88546-10.101A25.37368,25.37368,0,0,0,56.52971,80.21277Z" fill="#665d0a"/><path d="M29.78626,73.81583C24.8375,62.10745,11.485,64.01085,6.286,72.458c.13556-1.45376.15971-2.92816.42446-4.358A63.45121,63.45121,0,0,1,19.8568,39.73283,55.85545,55.85545,0,0,1,35.88142,25.79335,26.60589,26.60589,0,0,1,54.55894,22.384c7.5324,1.43735,13.55253,5.5865,18.91612,10.784a67.87514,67.87514,0,0,1,18.358,29.9621c.848,2.88823,1.3638,5.874,2.03231,8.81488l-.4642.26583c-.4478-.53618-.90375-1.06581-1.34213-1.60959-3.7261-4.6222-10.83636-6.66826-16.07849-3.54395-1.71238,1.02057-3.00757,2.78707-4.37564,4.31781a11.88557,11.88557,0,0,0-1.31637,2.44074Zm30.7777-38.587c-.1352-.62875-.30369-1.25244-.39991-1.88711a10.86163,10.86163,0,0,0-4.2242-7.38413c-5.67638-4.23647-13.24887-1.657-15.63235,5.31063a34.647,34.647,0,0,0-.87283,3.9543,15.40736,15.40736,0,0,0-8.13838,14.47334A12.241,12.241,0,0,0,25.37734,63.273c1.8388,7.61047,10.31144,10.95078,16.2001,6.13579,1.3967-1.142,2.24566-2.954,3.34657-4.45774q5.07747.00236,10.15493.00474c.26525.51365.51189,1.038.79863,1.53933,2.83552,4.958,9.096,6.74821,13.70681,3.79348a11.23264,11.23264,0,0,0,5.37217-9.17943c.278-5.03121-1.95995-8.81352-6.24454-11.41282a15.41762,15.41762,0,0,0-8.148-14.46747Z" fill="#c0f2e6"/><path d="M31.29629,49.69591a15.40735,15.40735,0,0,1,8.13839-14.47334,23.80388,23.80388,0,0,1,1.11791,3.64359c.5797,4.02079,4.52909,7.39344,7.5607,7.6891,4.8526.47327,8.66947-1.13151,10.58613-5.72561.75555-1.811,1.25077-3.73061,1.86454-5.60077a15.41763,15.41763,0,0,1,8.148,14.46748,11.43923,11.43923,0,0,0-7.90581.022c-3.9791,1.51979-6.23038,5.91589-6.44393,9.557a30.01825,30.01825,0,0,0,.71667,5.68041L44.924,64.951c.2597-1.89727.59433-3.78789.76332-5.69321.34131-3.84809-3.82328-8.27891-6.86867-9.67422C36.30288,48.431,33.79142,48.81807,31.29629,49.69591Z" fill="#bf3a2b"/><path d="M55.07894,64.9558a30.01987,30.01987,0,0,1-.71667-5.68041c.21355-3.64115,2.46483-8.03725,6.44393-9.557a11.43923,11.43923,0,0,1,7.90581-.022c4.28459,2.59931,6.5225,6.38161,6.24454,11.41281a11.23266,11.23266,0,0,1-5.37217,9.17944c-4.61082,2.95473-10.87129,1.16454-13.70681-3.79348C55.59083,65.99377,55.34419,65.46946,55.07894,64.9558Z" fill="#e54c3c"/><path d="M31.29629,49.69591c2.49513-.87784,5.00659-1.26494,7.52237-.11228,3.04539,1.39531,7.21,5.82612,6.86867,9.67422-.169,1.90531-.50362,3.79594-.76332,5.69321-1.10091,1.50377-1.94987,3.31569-3.34657,4.45774-5.88866,4.815-14.3613,1.47468-16.2001-6.13579A12.241,12.241,0,0,1,31.29629,49.69591Z" fill="#e54c3c"/><path d="M60.564,35.22888c-.61377,1.87016-1.109,3.78976-1.86454,5.60077-1.91665,4.5941-5.73353,6.19888-10.58613,5.72561-3.0316-.29566-6.981-3.66831-7.5607-7.6891a23.80388,23.80388,0,0,0-1.11791-3.64359,34.647,34.647,0,0,1,.87282-3.9543c2.38348-6.96761,9.956-9.5471,15.63235-5.31063a10.86163,10.86163,0,0,1,4.2242,7.38413C60.26027,33.97643,60.42876,34.60013,60.564,35.22888Z" fill="#e54c3c"/></svg>