<svg xmlns="http://www.w3.org/2000/svg" xmlns:xlink="http://www.w3.org/1999/xlink" viewBox="0 0 441.89364 168.32181"><defs><linearGradient id="linear-gradient" x1="672.55561" y1="1164.9995" x2="632.73275" y2="1125.17665" gradientTransform="translate(-1019.50863 1122.35204) rotate(-103.30782)" gradientUnits="userSpaceOnUse"><stop offset="0" stop-color="#a6a8ab"/><stop offset="1" stop-color="#e6e7e8"/></linearGradient><linearGradient id="linear-gradient-2" x1="65.13819" y1="382.23379" x2="104.8026" y2="342.56938" gradientTransform="translate(306.94051 138.61869) rotate(90)" gradientUnits="userSpaceOnUse"><stop offset="0" stop-color="#231f20" stop-opacity="0"/><stop offset="0.03087" stop-color="#231f20" stop-opacity="0.14232"/><stop offset="0.16638" stop-color="#231f20" stop-opacity="0.62275"/><stop offset="0.31496" stop-color="#231f20" stop-opacity="0.90883"/><stop offset="0.5" stop-color="#231f20"/><stop offset="0.68504" stop-color="#231f20" stop-opacity="0.90883"/><stop offset="0.83362" stop-color="#231f20" stop-opacity="0.62275"/><stop offset="0.96913" stop-color="#231f20" stop-opacity="0.14232"/><stop offset="1" stop-color="#231f20" stop-opacity="0"/></linearGradient><linearGradient id="linear-gradient-3" x1="65.1384" y1="382.23342" x2="104.80291" y2="342.56892" gradientTransform="translate(306.94051 138.61869) rotate(90)" gradientUnits="userSpaceOnUse"><stop offset="0" stop-color="#fff" stop-opacity="0"/><stop offset="0.5" stop-color="#fff"/><stop offset="1" stop-color="#fff" stop-opacity="0"/></linearGradient></defs><title>controller</title><g style="isolation:isolate"><g id="Calque_1" data-name="Calque 1"><circle cx="338.33354" cy="118.15305" r="33.29818" fill="#c0392b"/><circle cx="338.33354" cy="118.15306" r="26.53093" fill="#c0392b" opacity="0.3" style="mix-blend-mode:multiply"/><path d="M173.87139,256.69541a25.7669,25.7669,0,1,1,25.7671,25.76681A25.767,25.767,0,0,1,173.87139,256.69541Z" transform="translate(138.61869 -138.61869)" fill="#c0392b"/><path d="M173.87139,256.69541a25.7669,25.7669,0,1,1,25.7671,25.76681A25.767,25.767,0,0,1,173.87139,256.69541Z" transform="translate(138.61869 -138.61869)" fill="#c0392b"/><path d="M199.63849,282.46222a25.7669,25.7669,0,1,0-25.7671-25.76681A25.76669,25.76669,0,0,0,199.63849,282.46222Zm.31787-50.14641a24.69737,24.69737,0,1,1-24.69759,24.69744A24.6973,24.6973,0,0,1,199.95636,232.31581Z" transform="translate(138.61869 -138.61869)" fill="#c0392b" opacity="0.2" style="mix-blend-mode:multiply"/><path d="M199.63849,289.86107a33.16568,33.16568,0,1,0-33.1657-33.16566A33.16553,33.16553,0,0,0,199.63849,289.86107Zm.40877-64.54566a31.789,31.789,0,1,1-31.78874,31.78906A31.78921,31.78921,0,0,1,200.04726,225.31541Z" transform="translate(138.61869 -138.61869)" fill="#c0392b" opacity="0.15" style="mix-blend-mode:multiply"/><circle cx="-55.3964" cy="223.71823" r="83.2222" transform="translate(-35.79922 -112.26431) rotate(-45)" fill="#231f20"/><g opacity="0.1"><polygon points="6.116 85.099 22.438 101.995 22.438 93.742 41.113 93.742 41.113 76.456 22.438 76.456 22.438 68.204 6.116 85.099" fill="#84849b"/><polygon points="28.699 139.622 52.188 140.027 46.353 134.192 59.558 120.987 47.334 108.764 34.13 121.969 28.295 116.133 28.699 139.622" fill="#84849b"/><polygon points="83.221 162.206 100.117 145.884 91.865 145.883 91.865 127.209 74.579 127.209 74.579 145.883 66.326 145.884 83.221 162.206" fill="#84849b"/><polygon points="137.744 139.623 138.149 116.134 132.314 121.969 119.11 108.764 106.886 120.987 120.091 134.192 114.256 140.028 137.744 139.623" fill="#84849b"/><polygon points="160.329 85.1 144.006 68.205 144.006 76.457 125.332 76.457 125.331 93.743 144.006 93.743 144.006 101.995 160.329 85.1" fill="#84849b"/><polygon points="137.745 30.578 114.257 30.173 120.091 36.007 106.886 49.212 119.11 61.436 132.314 48.231 138.15 54.066 137.745 30.578" fill="#84849b"/><polygon points="83.223 7.993 66.328 24.316 74.579 24.316 74.579 42.99 91.865 42.991 91.865 24.316 100.118 24.316 83.223 7.993" fill="#84849b"/><polygon points="28.7 30.577 28.295 54.065 34.13 48.23 47.335 61.435 59.558 49.212 46.353 36.008 52.188 30.172 28.7 30.577" fill="#84849b"/></g><path d="M-138.60682,222.77962A83.21818,83.21818,0,0,1-55.39636,140.496a83.21821,83.21821,0,0,1,83.21029,82.28361c.00338-.31293.01187-.62486.01187-.93859a83.22235,83.22235,0,0,0-83.22216-83.22234A83.22241,83.22241,0,0,0-138.61869,221.841C-138.61869,222.15476-138.61021,222.46669-138.60682,222.77962Z" transform="translate(138.61869 -138.61869)" fill="#6d6e70"/><circle cx="-55.3964" cy="223.65368" r="28.15908" transform="translate(-121.67443 -20.35506) rotate(-76.69218)" fill="url(#linear-gradient)"/><circle cx="83.2223" cy="85.03502" r="22.43625" fill="#231f20" opacity="0.3" style="mix-blend-mode:multiply"/><path d="M-55.46114,251.6361a28.047,28.047,0,0,0,28.047-28.04714,28.04687,28.04687,0,0,0-28.047-28.04684A28.04685,28.04685,0,0,0-83.508,223.589,28.04692,28.04692,0,0,0-55.46114,251.6361Zm.34616-54.58388A26.88281,26.88281,0,0,1-28.23227,223.935,26.88275,26.88275,0,0,1-55.115,250.81783,26.88288,26.88288,0,0,1-81.99785,223.935,26.88294,26.88294,0,0,1-55.115,197.05222Z" transform="translate(138.61869 -138.61869)" opacity="0.15" fill="url(#linear-gradient-2)" style="mix-blend-mode:multiply"/><path d="M-55.46056,195.54252A28.04667,28.04667,0,0,0-83.5077,223.58937a28.04692,28.04692,0,0,0,28.04714,28.04687,28.04688,28.04688,0,0,0,28.047-28.04687A28.04691,28.04691,0,0,0-55.46056,195.54252Zm-.346,54.58345a26.88262,26.88262,0,0,1-26.88273-26.88259,26.88247,26.88247,0,0,1,26.88273-26.88274,26.883,26.883,0,0,1,26.88273,26.88274A26.88316,26.88316,0,0,1-55.80655,250.126Z" transform="translate(138.61869 -138.61869)" opacity="0.4" fill="url(#linear-gradient-3)"/><circle cx="268.07134" cy="118.48576" r="33.29818" fill="#c0392b"/><circle cx="268.07133" cy="118.48577" r="26.53093" fill="#c0392b" opacity="0.3" style="mix-blend-mode:multiply"/><path d="M103.60918,257.02812a25.7669,25.7669,0,1,1,25.7671,25.76681A25.767,25.767,0,0,1,103.60918,257.02812Z" transform="translate(138.61869 -138.61869)" fill="#c0392b"/><path d="M103.60918,257.02812a25.7669,25.7669,0,1,1,25.7671,25.76681A25.767,25.767,0,0,1,103.60918,257.02812Z" transform="translate(138.61869 -138.61869)" fill="#c0392b"/><path d="M129.37628,282.79493a25.7669,25.7669,0,1,0-25.7671-25.76681A25.76669,25.76669,0,0,0,129.37628,282.79493Zm.31787-50.14641A24.69738,24.69738,0,1,1,104.99656,257.346,24.6973,24.6973,0,0,1,129.69415,232.64852Z" transform="translate(138.61869 -138.61869)" fill="#c0392b" opacity="0.2" style="mix-blend-mode:multiply"/><path d="M129.37628,290.19379a33.16568,33.16568,0,1,0-33.16569-33.16567A33.16554,33.16554,0,0,0,129.37628,290.19379Zm.40877-64.54567a31.789,31.789,0,1,1-31.78874,31.78906A31.78922,31.78922,0,0,1,129.78505,225.64812Z" transform="translate(138.61869 -138.61869)" fill="#c0392b" opacity="0.15" style="mix-blend-mode:multiply"/><circle cx="408.59546" cy="117.66786" r="33.29818" fill="#c0392b"/><circle cx="408.59545" cy="117.66787" r="26.53093" fill="#c0392b" opacity="0.3" style="mix-blend-mode:multiply"/><path d="M244.13331,256.21022a25.7669,25.7669,0,1,1,25.7671,25.76681A25.767,25.767,0,0,1,244.13331,256.21022Z" transform="translate(138.61869 -138.61869)" fill="#c0392b"/><path d="M269.90041,281.977a25.7669,25.7669,0,1,0-25.7671-25.76681A25.76669,25.76669,0,0,0,269.90041,281.977Zm.31787-50.14642a24.69738,24.69738,0,1,1-24.69759,24.69745A24.6973,24.6973,0,0,1,270.21828,231.83061Z" transform="translate(138.61869 -138.61869)" fill="#c0392b" opacity="0.2" style="mix-blend-mode:multiply"/><path d="M269.90041,289.37588a33.16568,33.16568,0,1,0-33.1657-33.16566A33.16553,33.16553,0,0,0,269.90041,289.37588Zm.40877-64.54566a31.789,31.789,0,1,1-31.78874,31.78906A31.78921,31.78921,0,0,1,270.30918,224.83022Z" transform="translate(138.61869 -138.61869)" fill="#c0392b" opacity="0.15" style="mix-blend-mode:multiply"/><circle cx="302.71738" cy="54.04897" r="33.29818" fill="#c0392b"/><circle cx="302.71737" cy="54.04897" r="26.53093" fill="#c0392b" opacity="0.3" style="mix-blend-mode:multiply"/><path d="M138.25523,192.59133a25.7669,25.7669,0,1,1,25.76709,25.7668A25.767,25.767,0,0,1,138.25523,192.59133Z" transform="translate(138.61869 -138.61869)" fill="#c0392b"/><path d="M138.25523,192.59133a25.7669,25.7669,0,1,1,25.76709,25.7668A25.767,25.767,0,0,1,138.25523,192.59133Z" transform="translate(138.61869 -138.61869)" fill="#c0392b"/><path d="M164.02232,218.35813a25.7669,25.7669,0,1,0-25.76709-25.7668A25.76669,25.76669,0,0,0,164.02232,218.35813Zm.31788-50.14641a24.69738,24.69738,0,1,1-24.6976,24.69745A24.6973,24.6973,0,0,1,164.3402,168.21172Z" transform="translate(138.61869 -138.61869)" fill="#c0392b" opacity="0.2" style="mix-blend-mode:multiply"/><path d="M164.02232,225.757a33.16568,33.16568,0,1,0-33.16569-33.16566A33.16553,33.16553,0,0,0,164.02232,225.757Zm.40877-64.54566a31.789,31.789,0,1,1-31.78874,31.78906A31.78921,31.78921,0,0,1,164.43109,161.21133Z" transform="translate(138.61869 -138.61869)" fill="#c0392b" opacity="0.15" style="mix-blend-mode:multiply"/><circle cx="372.9793" cy="53.56377" r="33.29818" fill="#c0392b"/><circle cx="372.97929" cy="53.56378" r="26.53093" fill="#c0392b" opacity="0.3" style="mix-blend-mode:multiply"/><path d="M208.51715,192.10613a25.76689,25.76689,0,1,1,25.76709,25.76681A25.767,25.767,0,0,1,208.51715,192.10613Z" transform="translate(138.61869 -138.61869)" fill="#c0392b"/><path d="M208.51715,192.10613a25.76689,25.76689,0,1,1,25.76709,25.76681A25.767,25.767,0,0,1,208.51715,192.10613Z" transform="translate(138.61869 -138.61869)" fill="#c0392b"/><path d="M234.28424,217.87294a25.7669,25.7669,0,1,0-25.76709-25.76681A25.76668,25.76668,0,0,0,234.28424,217.87294Zm.31787-50.14641A24.69738,24.69738,0,1,1,209.90452,192.424,24.6973,24.6973,0,0,1,234.60211,167.72653Z" transform="translate(138.61869 -138.61869)" fill="#c0392b" opacity="0.2" style="mix-blend-mode:multiply"/><path d="M234.28424,225.2718a33.16568,33.16568,0,1,0-33.16569-33.16567A33.16554,33.16554,0,0,0,234.28424,225.2718Zm.40877-64.54567a31.78905,31.78905,0,1,1-31.78874,31.78906A31.78922,31.78922,0,0,1,234.693,160.72613Z" transform="translate(138.61869 -138.61869)" fill="#c0392b" opacity="0.15" style="mix-blend-mode:multiply"/><circle cx="231.77316" cy="53.48735" r="33.29818" fill="#c0392b"/><circle cx="231.77315" cy="53.48736" r="26.53093" fill="#c0392b" opacity="0.3" style="mix-blend-mode:multiply"/><path d="M67.311,192.02971A25.7669,25.7669,0,1,1,93.0781,217.79652,25.767,25.767,0,0,1,67.311,192.02971Z" transform="translate(138.61869 -138.61869)" fill="#c0392b"/><path d="M67.311,192.02971A25.7669,25.7669,0,1,1,93.0781,217.79652,25.767,25.767,0,0,1,67.311,192.02971Z" transform="translate(138.61869 -138.61869)" fill="#c0392b"/><path d="M93.0781,217.79652A25.7669,25.7669,0,1,0,67.311,192.02971,25.76669,25.76669,0,0,0,93.0781,217.79652Zm.31788-50.14641a24.69737,24.69737,0,1,1-24.69759,24.69744A24.69729,24.69729,0,0,1,93.396,167.65011Z" transform="translate(138.61869 -138.61869)" fill="#c0392b" opacity="0.2" style="mix-blend-mode:multiply"/><path d="M93.0781,225.19538a33.16568,33.16568,0,1,0-33.16569-33.16567A33.16554,33.16554,0,0,0,93.0781,225.19538Zm.40878-64.54567a31.789,31.789,0,1,1-31.78875,31.78906A31.78921,31.78921,0,0,1,93.48688,160.64971Z" transform="translate(138.61869 -138.61869)" fill="#c0392b" opacity="0.15" style="mix-blend-mode:multiply"/><circle cx="83.54139" cy="105.90718" r="38.97658" fill="#c0392b"/></g></g></svg>