<svg id="Layer_1" data-name="Layer 1" xmlns="http://www.w3.org/2000/svg" xmlns:xlink="http://www.w3.org/1999/xlink" viewBox="0 0 1000 114"><defs><linearGradient id="linear-gradient" x1="580.7" y1="34.98" x2="598.52" y2="34.98" gradientUnits="userSpaceOnUse"><stop offset="0" stop-color="#30678c"/><stop offset="1" stop-color="#1f668e"/></linearGradient><linearGradient id="linear-gradient-2" x1="509.47" y1="57" x2="593.32" y2="57" xlink:href="#linear-gradient"/><linearGradient id="linear-gradient-3" x1="416.27" y1="61.07" x2="509.26" y2="61.07" xlink:href="#linear-gradient"/><linearGradient id="linear-gradient-4" x1="404.97" y1="54.38" x2="432.87" y2="54.38" xlink:href="#linear-gradient"/><linearGradient id="linear-gradient-5" x1="401.47" y1="26.18" x2="429.87" y2="26.18" xlink:href="#linear-gradient"/><linearGradient id="linear-gradient-6" x1="437.08" y1="25.87" x2="457.27" y2="25.87" xlink:href="#linear-gradient"/><linearGradient id="linear-gradient-7" x1="584.78" y1="221.49" x2="592.02" y2="217.31" gradientTransform="matrix(1, 0, 0, -1, 0, 254)" gradientUnits="userSpaceOnUse"><stop offset="0" stop-color="#535758"/><stop offset="0.19" stop-color="#515455"/><stop offset="0.39" stop-color="#4b4d4d"/><stop offset="0.59" stop-color="#424241"/><stop offset="0.8" stop-color="#353433"/><stop offset="1" stop-color="#222"/></linearGradient><linearGradient id="linear-gradient-8" x1="533.9" y1="204.37" x2="575.78" y2="180.19" gradientTransform="matrix(1, 0, 0, -1, 0, 254)" gradientUnits="userSpaceOnUse"><stop offset="0" stop-color="#898c90"/><stop offset="0.15" stop-color="#87898d"/><stop offset="0.31" stop-color="#7c7e82"/><stop offset="0.48" stop-color="#6c6e71"/><stop offset="0.65" stop-color="#57585a"/><stop offset="0.82" stop-color="#40403f"/><stop offset="0.99" stop-color="#252424"/><stop offset="1" stop-color="#222"/></linearGradient><linearGradient id="linear-gradient-9" x1="583.51" y1="205.2" x2="589.68" y2="201.64" xlink:href="#linear-gradient-7"/><linearGradient id="linear-gradient-10" x1="417.5" y1="217.77" x2="508.71" y2="175.24" gradientTransform="matrix(1, 0, 0, -1, 0, 254)" gradientUnits="userSpaceOnUse"><stop offset="0" stop-color="#c77538"/><stop offset="0.6" stop-color="#d2c14e"/><stop offset="0.72" stop-color="#e2d78c"/><stop offset="0.86" stop-color="#f3eecc"/><stop offset="0.95" stop-color="#fdfcf3"/><stop offset="1" stop-color="#fff"/></linearGradient><linearGradient id="linear-gradient-11" x1="419.3" y1="180.54" x2="433.88" y2="173.74" gradientTransform="matrix(1, 0, 0, -1, 0, 254)" gradientUnits="userSpaceOnUse"><stop offset="0" stop-color="#cb8c3e"/><stop offset="1" stop-color="#ca9b41"/></linearGradient><linearGradient id="linear-gradient-12" x1="406.1" y1="202.79" x2="428.48" y2="192.35" gradientTransform="matrix(1, 0, 0, -1, 0, 254)" gradientUnits="userSpaceOnUse"><stop offset="0" stop-color="#c77539"/><stop offset="1" stop-color="#ca8e3f"/></linearGradient><linearGradient id="linear-gradient-13" x1="406.51" y1="233.4" x2="426.18" y2="224.23" gradientTransform="matrix(1, 0, 0, -1, 0, 254)" gradientUnits="userSpaceOnUse"><stop offset="0" stop-color="#c36738"/><stop offset="1" stop-color="#ca7d3a"/></linearGradient><linearGradient id="linear-gradient-14" x1="439.59" y1="231.37" x2="451.64" y2="225.75" gradientTransform="matrix(1, 0, 0, -1, 0, 254)" gradientUnits="userSpaceOnUse"><stop offset="0" stop-color="#cb883d"/><stop offset="1" stop-color="#cb9641"/></linearGradient><linearGradient id="linear-gradient-15" x1="450.22" y1="189.54" x2="456.9" y2="189.54" gradientTransform="matrix(1, 0, 0, -1, 0, 254)" gradientUnits="userSpaceOnUse"><stop offset="0" stop-color="#1b6192"/><stop offset="1" stop-color="#2f668f"/></linearGradient><radialGradient id="radial-gradient" cx="543.54" cy="122.37" r="8.82" gradientTransform="matrix(0.42, 0, 0, -0.38, 235.85, 110.42)" gradientUnits="userSpaceOnUse"><stop offset="0" stop-color="#5e7188"/><stop offset="1" stop-color="#31678e"/></radialGradient><radialGradient id="radial-gradient-2" cx="561.96" cy="122.26" r="11.04" gradientTransform="matrix(0.42, 0, 0, -0.38, 235.85, 110.43)" gradientUnits="userSpaceOnUse"><stop offset="0.2" stop-color="#5e7188"/><stop offset="1" stop-color="#31678e"/></radialGradient><radialGradient id="radial-gradient-3" cx="553.25" cy="51.41" r="9.64" gradientTransform="matrix(0.42, 0, 0, -0.84, 235.85, 107.4)" gradientUnits="userSpaceOnUse"><stop offset="0" stop-color="#787b84"/><stop offset="1" stop-color="#3e6da5"/></radialGradient><linearGradient id="linear-gradient-16" x1="475.37" y1="189.54" x2="482.34" y2="189.54" gradientTransform="matrix(1, 0, 0, -1, 0, 254)" gradientUnits="userSpaceOnUse"><stop offset="0" stop-color="#2c668f"/><stop offset="1" stop-color="#1b6192"/></linearGradient><linearGradient id="linear-gradient-17" x1="467.26" y1="184.84" x2="474.22" y2="184.84" gradientTransform="matrix(1, 0, 0, -1, 0, 254)" gradientUnits="userSpaceOnUse"><stop offset="0" stop-color="#808387"/><stop offset="1" stop-color="#7e98ac"/></linearGradient><linearGradient id="linear-gradient-18" x1="474.45" y1="184.84" x2="478.61" y2="184.84" gradientTransform="matrix(1, 0, 0, -1, 0, 254)" gradientUnits="userSpaceOnUse"><stop offset="0" stop-color="#7e98ac"/><stop offset="1" stop-color="#97b6d9"/></linearGradient><linearGradient id="linear-gradient-19" x1="450.24" y1="199.77" x2="457.74" y2="199.77" gradientTransform="matrix(1, 0, 0, -1, 0, 254)" gradientUnits="userSpaceOnUse"><stop offset="0" stop-color="#7f8387"/><stop offset="1" stop-color="#7f8b96"/></linearGradient><linearGradient id="linear-gradient-20" x1="459.51" y1="199.77" x2="466.49" y2="199.77" gradientTransform="matrix(1, 0, 0, -1, 0, 254)" gradientUnits="userSpaceOnUse"><stop offset="0" stop-color="#7d8c98"/><stop offset="1" stop-color="#7f94a6"/></linearGradient><linearGradient id="linear-gradient-21" x1="467.99" y1="199.77" x2="473.61" y2="199.77" xlink:href="#linear-gradient-20"/><linearGradient id="linear-gradient-22" x1="475.11" y1="199.77" x2="482.34" y2="199.77" gradientTransform="matrix(1, 0, 0, -1, 0, 254)" gradientUnits="userSpaceOnUse"><stop offset="0" stop-color="#7e9eb6"/><stop offset="1" stop-color="#80a6c3"/></linearGradient><radialGradient id="radial-gradient-4" cx="548.01" cy="84.76" r="15.35" gradientTransform="matrix(0.42, 0, 0, -0.42, 235.85, 110.15)" gradientUnits="userSpaceOnUse"><stop offset="0" stop-color="#7b7e84"/><stop offset="0.24" stop-color="#757c88"/><stop offset="0.62" stop-color="#637792"/><stop offset="1" stop-color="#48709e"/></radialGradient><linearGradient id="linear-gradient-23" x1="450.24" y1="179.46" x2="457.41" y2="179.46" gradientTransform="matrix(1, 0, 0, -1, 0, 254)" gradientUnits="userSpaceOnUse"><stop offset="0" stop-color="#1f668e"/><stop offset="0.55" stop-color="#32688d"/><stop offset="1" stop-color="#426b8b"/></linearGradient><radialGradient id="radial-gradient-5" cx="557.5" cy="85.51" r="13.71" xlink:href="#radial-gradient-4"/><linearGradient id="linear-gradient-24" x1="476.77" y1="179.46" x2="482.34" y2="179.46" gradientTransform="matrix(1, 0, 0, -1, 0, 254)" xlink:href="#linear-gradient"/></defs><path d="M585.23,44.33a4.26,4.26,0,0,1-4.3-2.75,4.09,4.09,0,0,1,.73-4c0-.19.09-.43.13-.65a28.44,28.44,0,0,0-.09-3v-.16c-.08-1.53-.22-4.09,2.16-5.51a4.19,4.19,0,0,1,2.15-.57,7.51,7.51,0,0,1,1.73.24l.63.15.35-.32A6.32,6.32,0,0,1,593,25.63a4.57,4.57,0,0,1,.83.07,5.27,5.27,0,0,1,3,1.84c1.82,2,2.11,4.49.76,6.27a4.15,4.15,0,0,1-2.61,1.59c-.16.1-.41.29-.61.43A9,9,0,0,1,592,41.07a9.4,9.4,0,0,1-6.69,3.26Z" fill="url(#linear-gradient)"/><path d="M593,29.13l.22,0a1.82,1.82,0,0,1,1.06.74c.11.12,1,1.19.57,1.81a.76.76,0,0,1-.55.27,4.46,4.46,0,0,0-2,1.08,3.15,3.15,0,0,0-1.24,1.35,2.21,2.21,0,0,0-.12.82c0,.1,0,.21,0,.33a5.45,5.45,0,0,1-1.57,3.2,6,6,0,0,1-4.1,2.08h-.07c-.23,0-.85,0-1-.43s.18-.67.32-.82c.37-.37.47-.91.68-2a17.33,17.33,0,0,0,0-3.86v-.16c-.07-1.28-.11-2,.44-2.3a.72.72,0,0,1,.37-.09,4.92,4.92,0,0,1,1,.15c.45.1.74.19,1,.26a2.28,2.28,0,0,0,.77.15,2.72,2.72,0,0,0,.94-.18,2,2,0,0,0,.77-.6c.16-.16.36-.37.64-.62.77-.7,1.33-1.2,2-1.2m0-7a9,9,0,0,0-5.67,2.14,9.91,9.91,0,0,0-1.37-.1,7.63,7.63,0,0,0-3.92,1c-4.23,2.51-4,7-3.88,8.72v.17c.06,1.14.08,1.81.09,2.19a7.45,7.45,0,0,0-.66,6.47,7.74,7.74,0,0,0,7.59,5.06h.11a13.61,13.61,0,0,0,12.23-9.58,7.54,7.54,0,0,0,2.9-2.33c2.38-3.13,2-7.43-.93-10.71a8.73,8.73,0,0,0-5-2.95,7.82,7.82,0,0,0-1.45-.13Z" fill="#fff"/><path d="M523,110.5a4,4,0,0,1-3.25-1.69c-1.2-1.7-5.25-7.45-6.83-9.92-.13-.2-.39-.5-.65-.83-1.61-2-3-3.77-2.72-5.93a3.89,3.89,0,0,1,3.87-3.4,4,4,0,0,1,.78.08,8.77,8.77,0,0,1,.78-.77,41.74,41.74,0,0,0,8-11.22,9.12,9.12,0,0,1,.46-4.16s0-.1.05-.17a10.12,10.12,0,0,1,.26-3.85c.2-.93.37-1.75.51-2.48.77-3.76,1.55-7.64,5.68-7.64h.21a3.45,3.45,0,0,1,.72.07,51.94,51.94,0,0,1,3.83-4.3,68.18,68.18,0,0,1,1.27-7.6c1.06-5.4,2.26-11.5,5.74-17.51,2.12-3.66,4.8-6.31,9.65-11.12.3-.31,5.35-4.57,8.29-7,9-7.53,9.26-7.53,10.75-7.53h.14a3.52,3.52,0,0,1,2.21.79l.19.15c1.32,1.15,2.37,3.27-.18,6.84-1,1.4-2.7,3.43-5.68,6.94s-6.49,7.63-8.22,10.26A33.4,33.4,0,0,0,555,36.25l.53-.15.11-.07c.26-.16.49-.34.7-.49A7.69,7.69,0,0,1,559,34.16a7.08,7.08,0,0,1,2.7-3.57A6.49,6.49,0,0,1,565,29.46h.38a8.77,8.77,0,0,1,2.58-3.6,9.13,9.13,0,0,1,10.25-.17,8,8,0,0,1,3.45-1c2.21,0,4.63.28,5.78,2.39a4,4,0,0,1-.18,4.08,4.26,4.26,0,0,1-.85,1,13.16,13.16,0,0,1,.82,5.8c0,.15,0,.29,0,.43a3.52,3.52,0,0,1,2,1.65s.18.34.2.39a6.46,6.46,0,0,1,.51,2.86,4,4,0,0,1,2.62,6.4l0,.22a12.29,12.29,0,0,1-.12,3.8,6.45,6.45,0,0,1-2.1,3.92,5.9,5.9,0,0,1-2.95,1.27,4.68,4.68,0,0,1,0,.53c-.21,4.18-4.22,5.86-6.37,6.77a65.12,65.12,0,0,1-6.18,2.17l-1.14.33a7,7,0,0,1-.72,1.61,8.24,8.24,0,0,1-5,3.52,33,33,0,0,0-5.76,2.53c-1,.54-2.1,1.08-3.21,1.6.13,1,.17,1.63.2,2.29a29.59,29.59,0,0,0,.3,3.09h0c2,.53,4.09,1.08,4.93,3.16l.06.15a3.5,3.5,0,0,1,0,2.64l-.07.18c0,.08-.07.15-.1.23-.38.76-1,2-6,3.46-.35.09-1.35.45-2.1.76a4,4,0,0,0-1,.64l-.62.48-.28.2c-.9.66-2.07,1.45-3.32,2.29-3.2,2.17-5.21,3.62-6.46,4.59a4.53,4.53,0,0,1,2.16,2,3.91,3.91,0,0,1,.27,3c-.91,2.86-3.88,2.86-4.85,2.86s-2-.06-2.82-.11l-1,0c-.25,0-.55,0-.93,0-2.14-.16-5-.38-6.66-2.62l-.42-.09a4.5,4.5,0,0,1-1.26,1l-.2.11a3.6,3.6,0,0,1-1.65.41,3.12,3.12,0,0,1-.86-.11,5.09,5.09,0,0,1-.31.45A4,4,0,0,1,523,110.5Zm6-13.89c0,.19.09.42.14.61a3.42,3.42,0,0,1,.16-.33c1.14-2.23,3.57-2.41,5.19-2.45.94-1,2-2,3.16-3,.48-.44,1.59-1.45,2.44-2.31-.51.24-.88.44-1,.51A45,45,0,0,0,529,96.61Z" fill="url(#linear-gradient-2)"/><path d="M570.49,7l.1.09c.69.59-.56,2.21-6.22,8.86a132.51,132.51,0,0,0-8.48,10.61,36.84,36.84,0,0,0-6.15,19.05l.58-.28a2.63,2.63,0,0,0,1.25-.86l0-.07v0a4.14,4.14,0,0,1,.51-1.38,7.94,7.94,0,0,1,2.46-2.65,5.33,5.33,0,0,1,1.77-.82,3.69,3.69,0,0,0,1.1-.48c.36-.22.67-.45,1-.66a3.21,3.21,0,0,1,1.91-.87,1.86,1.86,0,0,1,1,.3,1.76,1.76,0,0,1,.49.49v0a4.71,4.71,0,0,1,.25-2.28,4.06,4.06,0,0,1,1.56-2.48,3,3,0,0,1,1.55-.53h.11a2.86,2.86,0,0,1,1.4.39l.25.12a1,1,0,0,0,.31,0,1,1,0,0,0,.34,0,1,1,0,0,0,.62-.49.93.93,0,0,1,0-.13c0-.15,0-.32,0-.54a5.92,5.92,0,0,1,1.95-3.73,4.51,4.51,0,0,1,2.88-.87s2.58,0,3,.78c.19.37-.13.66-.41.92a2.08,2.08,0,0,0-.67.9c-.05.17-.39,2.07-.44,2.57,0,.11,0,.25,0,.42-.05.6-.11,1.41-.21,1.9-.26,1.31-.8,4-3,4.85a5,5,0,0,0,1.51.26h.28a4.07,4.07,0,0,0,.86-.17,9.09,9.09,0,0,1,.2-3.71,12.11,12.11,0,0,1,1.6-4.12c1.15-1.86,4.37-4.07,5.94-4.07.9,0,2.43.07,2.7.57a.46.46,0,0,1,0,.49,2.72,2.72,0,0,1-1.28.76,3.13,3.13,0,0,0-.78.38,1.78,1.78,0,0,0-.08.84,2.29,2.29,0,0,0,.34.92c.05.1.11.2.16.31l.11.2L583,33a9.57,9.57,0,0,1,.76,4.63,8.48,8.48,0,0,1-2.58,5.68h.4a9.07,9.07,0,0,1,1,.09,14.17,14.17,0,0,0,1.44.11c.21-.05.79-.79,1-1.11.42-.53.56-.71.81-.71h.22l.12.22c.53,1.13-.26,4.42-.63,5l-.21.34c-.76,1.22-1.71,2.75-3.46,3.24a5.94,5.94,0,0,1-1.09.19,1,1,0,0,0-.57.14,1.8,1.8,0,0,0-.51.44A7.62,7.62,0,0,0,578,54.63h0c.07,0,.27-.17.77-.88a2.15,2.15,0,0,1,1.72-1.17h.32l.33.14a1.27,1.27,0,0,1,.22.13.6.6,0,0,1,0-.27c.06-.36.38-.46.7-.56a5.28,5.28,0,0,0,.75-.28,7.08,7.08,0,0,0,2-1.67c.66-.68,1-1.1,1.26-1.4a4.41,4.41,0,0,1,1-.94,5.26,5.26,0,0,1,2.26-1,.54.54,0,0,1,.46.2c.21.29,0,.58-.19.84a3.82,3.82,0,0,0-.28.42,3.06,3.06,0,0,0-.23,2.06A8.73,8.73,0,0,1,589,53a2.91,2.91,0,0,1-.9,1.89,2.55,2.55,0,0,1-1.65.54h0a3.48,3.48,0,0,1-.45,0,3.23,3.23,0,0,1-1.29-.55l-.07,0a20.26,20.26,0,0,0-2.11-1.16c-.25-.13-.45-.23-.62-.34a2.06,2.06,0,0,1,.27,1.25v.06a6.37,6.37,0,0,0,1,2.6c.2.41.32.62.4.75a2.09,2.09,0,0,1,.35,1.25c-.08,1.67-1.55,2.59-4.23,3.72a56.89,56.89,0,0,1-5.82,2l-.79.23a9.5,9.5,0,0,0-2.51.92,1.31,1.31,0,0,0,0,.37,3.67,3.67,0,0,1-.52,2,4.76,4.76,0,0,1-2.92,2,36,36,0,0,0-6.42,2.79c-1.16.6-2.36,1.22-3.59,1.76-.73.33-1.57.71-1.77,1.28,0,.09,0,.12.08.83,0,.18.07.39.11.62a20.75,20.75,0,0,1,.28,2.7,33.4,33.4,0,0,0,.37,3.72c.19,1.25.26,1.42.33,1.5a7.63,7.63,0,0,0,2.18,1.06c2.06.54,2.51.8,2.63,1.09l.06.15-.08.18c-.29.6-3.79,1.64-3.82,1.65-.56.15-1.74.59-2.5.9a6.56,6.56,0,0,0-1.8,1.13l-.52.4-.27.2c-.86.62-2,1.41-3.25,2.24-2.52,1.7-9.2,6.22-9.47,7.5a1.55,1.55,0,0,1,0,.21,1.93,1.93,0,0,0,.22,1.29c0,.08.1.16.14.24s.16.3.21.37.56.19.93.3c1.68.51,2.41.78,2.6,1.15a.45.45,0,0,1,0,.36c-.1.32-.46.42-1.52.42-.79,0-1.8-.06-2.62-.11l-1.14,0-.67,0c-2.2-.17-3.79-.29-4.43-1.76a2.28,2.28,0,0,1-.18-.68l-.26,0h-.71l-4.25-.9a.43.43,0,0,1-.28-.21c.39,1,.54,1.88-.15,2.25l-.2.11-.19-.14c-.06,0-1.59-1.2-1.91-1.46l-.66-.57c-.54-.48-1.29-1.13-1.81-1.55a43.76,43.76,0,0,0,.74,5,.44.44,0,0,1-.09.41.49.49,0,0,1-.39.19h0a.47.47,0,0,1-.39-.21c-1.2-1.69-5.21-7.38-6.74-9.79-.17-.25-.51-.68-.87-1.14-1.25-1.57-2.06-2.64-2-3.29a.39.39,0,0,1,.4-.34,5.53,5.53,0,0,1,1.34.43l.94.33a5.61,5.61,0,0,1,1.61-2.35c4-3.61,9.48-12.17,9.19-13.85a5.76,5.76,0,0,1,.28-3.11,3.27,3.27,0,0,1,.47-1c-.61-.85-.34-2.14-.09-3.3.21-.94.38-1.78.52-2.51.7-3.43,1-4.84,2.25-4.84h.21l.1.18c.09.15.63,1.15,1,1.89a44.12,44.12,0,0,1,7-8.35v0c-.25-1.09.11-3,1.16-8.35s2.14-10.92,5.33-16.42c1.89-3.26,4.29-5.65,9.08-10.4C553.91,20.4,569.63,7,570.35,7h.14m-9.28,36.26a6.76,6.76,0,0,0,.51-.62c.84-1.17,1.17-2.23,1-2.57a1.24,1.24,0,0,0-.15-.21,5.66,5.66,0,0,1-.42-.63c0,.09,0,.18,0,.24a3.65,3.65,0,0,1-.41,2,8.45,8.45,0,0,0-.55,1.8M532,75.31l1.59-1.73c.77-.83,1.19-1.22,1.45-1.46a.86.86,0,0,0,.14-.14,1.18,1.18,0,0,0,.16-.69,5.58,5.58,0,0,1,.4-1.93c.09-.21.21-.52.38-.86a10.73,10.73,0,0,0-1.59,1.73c-.24.32-.42.6-.56.81a3.26,3.26,0,0,1-1.62,1.52,4.07,4.07,0,0,1-1.25.28,2,2,0,0,1,.47.37,2.12,2.12,0,0,1,.46,1.92l0,.18m-4.42,27.36a.23.23,0,0,1,0-.12.43.43,0,0,1,.36-.41c3.09-.47,4.68-.77,4.88-.85a1.33,1.33,0,0,0,.64-.92l0-.09-.35-.27c-.49-.38-1.11-.85-.76-1.52.24-.48,1.18-.53,2.46-.56a4.3,4.3,0,0,0,.58,0,5.42,5.42,0,0,0,.79-.19,3.15,3.15,0,0,0,.35-.37l.06-.07A40.6,40.6,0,0,1,540,94c1.57-1.42,4.19-3.81,4.36-4.78A2.71,2.71,0,0,1,545.77,87L546,87c-.63-.6-1.2-1.24-1.75-1.87s-1.07-1.21-1.63-1.74c-.07-.07-.18-.18-.31-.33a6.25,6.25,0,0,1-2.2,2.25,2.42,2.42,0,0,1-.49.22l-.64.26c-.79.36-1.38.67-1.6.79-4.79,2.57-9.21,5.72-11.26,8a2.54,2.54,0,0,0-.51.76,4.4,4.4,0,0,0,.1,2.74,16.6,16.6,0,0,0,.77,2.35,8.12,8.12,0,0,0,.37.75c.25.47.52,1,.74,1.52M570.49,0h-.14c-3,0-4.13,1-13,8.34-1.53,1.28-8,6.7-8.51,7.23-5.07,5-7.86,7.79-10.22,11.86-3.77,6.51-5,12.92-6.14,18.58-.58,3-1,5.06-1.21,6.72-.64.68-1.35,1.46-2.08,2.32a8.35,8.35,0,0,0-7.13,5.47,27.47,27.47,0,0,0-1.29,4.94c-.14.72-.3,1.53-.5,2.44a14.28,14.28,0,0,0-.4,4.3,12,12,0,0,0-.51,4,41.33,41.33,0,0,1-6.58,9A7.41,7.41,0,0,0,506,91.7c-.45,3.62,1.62,6.22,3.45,8.51.2.26.38.48.5.65,1.61,2.5,5.33,7.79,6.87,10a7.49,7.49,0,0,0,11.09,1.28,7.14,7.14,0,0,0,2.4-.68,14.76,14.76,0,0,0,6.86,1.86c.43,0,.8,0,1.14,0l.76,0c.93.05,2.06.12,3.06.12,5.66,0,7.56-3.32,8.19-5.3a7.54,7.54,0,0,0-.45-5.63c.86-.6,1.87-1.3,3.07-2.11s2.49-1.69,3.45-2.38l.28-.21.72-.56.24-.19c.6-.24,1.37-.52,1.61-.59,5.71-1.59,7.32-3.48,8.21-5.28a4.28,4.28,0,0,0,.2-.44l.08-.19a7,7,0,0,0,0-5.28l-.06-.15a8.06,8.06,0,0,0-5-4.53l0-.58v0l1.11-.57A30.22,30.22,0,0,1,569,77.19a11.51,11.51,0,0,0,7-5.06c.11-.18.21-.36.31-.54a63.47,63.47,0,0,0,6.1-2.17c2.18-.91,7-2.92,8.21-7.85a9.13,9.13,0,0,0,2-1.24,9.76,9.76,0,0,0,3.33-5.94,15.46,15.46,0,0,0,.24-3.93,7.46,7.46,0,0,0-2.94-9.68,8.83,8.83,0,0,0-.61-1.84,3.65,3.65,0,0,0-.18-.34l-.11-.22a7,7,0,0,0-1.46-1.86,16.49,16.49,0,0,0-.47-3.6,7.45,7.45,0,0,0,.21-7.46c-2.3-4.24-7.24-4.24-8.86-4.24a10,10,0,0,0-3.11.54,13.2,13.2,0,0,0-5.49-1.06,12.26,12.26,0,0,0-4.11.67l.74-.88c3.12-3.66,4.79-5.67,5.87-7.17,4.7-6.58.51-10.75-.38-11.52L575,1.67l-.11-.09A7,7,0,0,0,570.49,0Z" fill="#fff"/><path d="M485.2,108.06a8.78,8.78,0,0,1-2.1-.27c-4-.94-6.47-4.54-7.53-6.07-1.63-2.38-3.19-4.88-4.61-7.45a4.81,4.81,0,0,1,3.44-7.08l-.07,0a14,14,0,0,0-2.42-.16,55.45,55.45,0,0,0-7.14.58c-1.44.2-3,.45-4.67.71a99.82,99.82,0,0,1-14.49,1.6,23.18,23.18,0,0,1-4.77-.43c-3.61-.74-6-2.49-6.9-4.88-1.41.37-3,.74-3.88.91a22.08,22.08,0,0,1-4.19.49,9.75,9.75,0,0,1-4.18-.9,9,9,0,0,1-5.24-6.43,33,33,0,0,1,.34-9c.7-5.11,4.4-5.37,5.14-5.37a4.73,4.73,0,0,1,3.75,1.84,11.26,11.26,0,0,1,.86,1.3,75.14,75.14,0,0,1-.29-8.36c0-.86,0-1.57,0-2.18a12.25,12.25,0,0,0-.18-3.35A9.39,9.39,0,0,0,424.19,49a15.23,15.23,0,0,0-2.72-2.13c-1.19-.79-4.83-3.21-3.06-7.09a4.91,4.91,0,0,1,3-2.65A33.32,33.32,0,0,1,428,35.52c-.21-.26-.43-.51-.67-.78a20.94,20.94,0,0,1-4.08-6.33c-1.11-2.52-4.47-10.17.26-13.4a5.33,5.33,0,0,1,3-.93A8.31,8.31,0,0,1,431,15.71a32.74,32.74,0,0,0,3.82,2.06,15.67,15.67,0,0,0,3,1.08,12.36,12.36,0,0,1,3.68,1.54c4.09,2.52,6,6,7.83,9.34a7.73,7.73,0,0,1,.37.69c.1-.23.2-.46.31-.69,1.81-3.81,4.44-5.91,7.41-5.91h.35a6.71,6.71,0,0,1,5.12,3.24l.14.2a6.46,6.46,0,0,1,1.94-.9,5.28,5.28,0,0,1,1.45-.2,4.86,4.86,0,0,1,1.14.13,5.49,5.49,0,0,1,4,3.84c1.73-3.51,4.82-7.19,8.8-7.19a6,6,0,0,1,1.47.18,6.87,6.87,0,0,1,5,6.1,6.28,6.28,0,0,1-1,3.81c.13.25.28.53.38.7.77,1.38,1.56,2.73,2.33,4A94.78,94.78,0,0,1,493,46.3a18.56,18.56,0,0,1,1.69,5.51,13.47,13.47,0,0,1,3.54,3.32c2.6,3.49,4.16,9.1,1.46,13.18a7.19,7.19,0,0,1-.91,1.11c-.06.06-.13.13-.25.27a8.08,8.08,0,0,0-1.06,1.58c3.5,2.18,6.73,5.12,6.4,9.22,0,.12,0,.28-.05.49a7.35,7.35,0,0,0-.06,1.84l.47.18.57.2a5.64,5.64,0,0,1,4.33,4.27,5.36,5.36,0,0,1-1.61,4.85c-7.05,7.16-11.27,8.74-12.05,9-1,.3-1.71.47-2.26.59a3,3,0,0,0-1.15.39,7.7,7.7,0,0,0-1.13.8,5.4,5.4,0,0,1-1.26,3A5.82,5.82,0,0,1,485.2,108.06Z" fill="url(#linear-gradient-3)"/><path d="M426.51,17.58a5.41,5.41,0,0,1,2.64,1.13A38.8,38.8,0,0,0,433.33,21a20.59,20.59,0,0,0,3.52,1.28,8.69,8.69,0,0,1,2.74,1.14c3.31,2,4.91,4.94,6.61,8a26.7,26.7,0,0,1,1.89,4.25,26.44,26.44,0,0,0,1.84,4.19,36.68,36.68,0,0,0,2.9,4.61l-.12-1a56.81,56.81,0,0,1-.51-8.38,9.34,9.34,0,0,1,.9-3.84c.69-1.46,2.17-3.92,4.25-3.92h.14A3.34,3.34,0,0,1,460,29.12a7,7,0,0,0,2.48,2.34,3.35,3.35,0,0,0,1,.44,3.35,3.35,0,0,0,.4-.51,3.56,3.56,0,0,1,2-1.65,2,2,0,0,1,.52-.07,1.39,1.39,0,0,1,.35,0c1.75.4,1.95,3.31,1.54,5.14A7.38,7.38,0,0,1,467,37.49a12.55,12.55,0,0,1-2,2.33,21.5,21.5,0,0,0-1.95,2,6.28,6.28,0,0,0-.95,1.34,1.86,1.86,0,0,0,.61,1.11,3,3,0,0,0,1.87,1l.22,0a1.12,1.12,0,0,0,.35-.23l.06-.05a17.46,17.46,0,0,1,6.26-3,10.45,10.45,0,0,1,2.43-.39h0c-.05-.12-.1-.25-.14-.37a11.24,11.24,0,0,1,0-7.28c1.09-3.6,4-7.46,6.55-7.46a3.18,3.18,0,0,1,.62.07,3.39,3.39,0,0,1,2.33,2.95,3.17,3.17,0,0,1-.7,2.08,3,3,0,0,0-.37.64c-.38,1,.39,2.36.89,3.26.78,1.4,1.59,2.77,2.37,4.1a87.44,87.44,0,0,1,4.46,8.2c.77,1.7,1.78,4.38,1.35,6.15a10,10,0,0,1,4.27,3.32c1.94,2.62,3,6.6,1.34,9.16a3.44,3.44,0,0,1-.48.57c-.09.1-.21.22-.42.46a11.83,11.83,0,0,0-2.14,3.71v2c4.72,2.58,6.83,4.84,6.65,7.07,0,.08,0,.2,0,.34a11.26,11.26,0,0,0,0,3.17,2.78,2.78,0,0,0,.27,1.09,4.62,4.62,0,0,0,2.39,1.47c.27.11.53.19.75.26.82.26,1.74.55,1.93,1.57a2,2,0,0,1-.66,1.76c-6.72,6.81-10.46,8-10.61,8.1-.83.26-1.47.4-2,.52a6.15,6.15,0,0,0-2.18.8c-1.95,1.17-2.8,2.29-2.8,2.88v.06a2.09,2.09,0,0,1-2.31,2.33h0a5.9,5.9,0,0,1-1.29-.17c-2.68-.64-4.56-3.35-5.46-4.66-1.57-2.28-3.06-4.69-4.43-7.16a1.31,1.31,0,0,1,0-1.3,1.34,1.34,0,0,1,1.13-.64,1.25,1.25,0,0,1,.43.07,23.59,23.59,0,0,0,6.35.93,8.53,8.53,0,0,0,2.27-.25c.7-.25,2.38-1.3,2.54-1.83a2.92,2.92,0,0,0-1.39-1.34c-5.77-2.6-9.59-4.32-10.22-4.46a17.72,17.72,0,0,0-3.23-.24,57.62,57.62,0,0,0-7.62.62c-1.47.2-3.08.45-4.78.72a95.94,95.94,0,0,1-13.9,1.55,19.79,19.79,0,0,1-4.06-.36c-1.24-.25-4.17-1.07-4.43-3.09a3.11,3.11,0,0,1,0-.81,8.39,8.39,0,0,0,.05-1.27l-.15,0-.24,0h0a2.47,2.47,0,0,1-1.39-.5,1.23,1.23,0,0,1-.37.21,56.15,56.15,0,0,1-5.64,1.44,19.57,19.57,0,0,1-3.53.43,6.39,6.39,0,0,1-2.81-.62,5.62,5.62,0,0,1-3.15-3.71,30.15,30.15,0,0,1,.35-8c.21-1.56.77-2.35,1.67-2.35a1.25,1.25,0,0,1,1,.49,14.81,14.81,0,0,1,.89,1.4A19.61,19.61,0,0,0,429.14,76a11.27,11.27,0,0,0,4.32,2.2,25.63,25.63,0,0,1-3.17-9.2,58.87,58.87,0,0,1-.54-10c0-.84,0-1.53,0-2.13a15.33,15.33,0,0,0-.26-4.15,12.57,12.57,0,0,0-2.75-6.13A17.9,17.9,0,0,0,423.41,44c-1.26-.84-2.34-1.56-1.81-2.72a1.34,1.34,0,0,1,.89-.76c3.12-1,4.94-1.5,6.27-1.5a3,3,0,0,1,1.82.52,4.65,4.65,0,0,1,1.64,2.66c1,3.4,1.78,5.92,2.33,8.09.68-2.55.33-9-2.1-14.13a13.94,13.94,0,0,0-2.53-3.71A17.65,17.65,0,0,1,426.43,27c-1.5-3.42-2.89-7.78-1-9.1a1.88,1.88,0,0,1,1.05-.32M438.3,60.47h0a2.81,2.81,0,0,0,1.22-.3,8.86,8.86,0,0,1,1.94-.62l.71-.11a4,4,0,0,0-2.36-1.09h-.27l-.87,0-1,0a6.46,6.46,0,0,1-1.74-.26,2.89,2.89,0,0,0,1,2,3,3,0,0,0,1.41.33M426.51,10.58a8.78,8.78,0,0,0-5,1.54c-4.74,3.23-5.24,9.19-1.5,17.7a27.63,27.63,0,0,0,1.84,3.53l-1.42.44a8.43,8.43,0,0,0-5.21,4.54,8.21,8.21,0,0,0,1.25,8.9,13.42,13.42,0,0,0,3.06,2.56,12.93,12.93,0,0,1,2.06,1.57,6.49,6.49,0,0,1,1.07,2.89,8.48,8.48,0,0,1,.11,2.52c0,.64,0,1.37,0,2.25V60.8c-.27,0-.55,0-.82,0-3.44,0-7.76,2.2-8.6,8.4a36.26,36.26,0,0,0-.35,10,12.55,12.55,0,0,0,7.33,9.16,13.34,13.34,0,0,0,5.56,1.18,25.69,25.69,0,0,0,4.85-.55l1.53-.33c1.44,1.76,3.85,3.46,7.88,4.29a27.3,27.3,0,0,0,5.48.5,102,102,0,0,0,15-1.63c1.67-.27,3.24-.52,4.64-.71l1.69-.21a8.32,8.32,0,0,0,1,5.13c1.48,2.66,3.09,5.26,4.79,7.72,1.29,1.87,4.3,6.24,9.61,7.5a12.86,12.86,0,0,0,2.9.36,9.26,9.26,0,0,0,7.16-3.19,8.94,8.94,0,0,0,1.7-3.06c.58-.13,1.43-.33,2.51-.67,1.28-.4,6-2.31,13.49-9.86a8.91,8.91,0,0,0,2.55-8,8.59,8.59,0,0,0-5.19-6.38c.22-4.38-2.26-7.64-5-9.93l.19-.26c3.65-5.53,1.84-12.63-1.57-17.21a17.22,17.22,0,0,0-3.14-3.24,25.06,25.06,0,0,0-1.72-4.95A94.66,94.66,0,0,0,491.43,36c-.6-1-1.2-2-1.8-3.08a9.48,9.48,0,0,0,.55-3.93,10.3,10.3,0,0,0-7.6-9.25,9.66,9.66,0,0,0-2.33-.29c-3.59,0-6.7,1.95-9.06,4.71a8.55,8.55,0,0,0-2.89-1.27,8.64,8.64,0,0,0-1.95-.22A8.91,8.91,0,0,0,464,23h0a9.34,9.34,0,0,0-6-2.66l-.55,0a10.35,10.35,0,0,0-7.58,3.42,21.45,21.45,0,0,0-6.51-6.33,15.56,15.56,0,0,0-4.6-1.93,13.45,13.45,0,0,1-2.43-.89,31.15,31.15,0,0,1-3.45-1.87,11.64,11.64,0,0,0-6.27-2.14Zm66.78,95.14Z" fill="#fff"/><path d="M416.88,69.42c-3.49,0-6.27-3.54-8-6.52-1-1.72-2.25-4.37-3.17-9.65-1.1-6.07-1-10.09.34-11.92a4.78,4.78,0,0,1,3.18-1.94h.11a3.25,3.25,0,0,1,.44,0h.13c3.45,0,4.54,2.93,5.33,5.06.43,1.15.77,2,1,2.56a8,8,0,0,1,3.06-.58,11.12,11.12,0,0,1,4,.8c2.23.87,3.92,2.45,5.66,5.28,4.53,7.35,5.09,12.41,1.66,15.05a6.06,6.06,0,0,1-3.72,1.19,14.64,14.64,0,0,1-5.77-1.57A5,5,0,0,1,419,69,5.17,5.17,0,0,1,416.88,69.42Z" fill="url(#linear-gradient-4)"/><path d="M409.92,42.84c1,0,1.32.82,2.06,2.78.56,1.53,1.9,5.11,3,5.48a2.78,2.78,0,0,0,.89.16H416a1.56,1.56,0,0,0,.47-.32c.15-.13.32-.27.53-.42a4.21,4.21,0,0,1,2.33-.64,7.64,7.64,0,0,1,2.72.56c1.48.58,2.62,1.7,4,3.86,1.21,2,5,8.53,2.49,10.43a2.52,2.52,0,0,1-1.58.47,13.47,13.47,0,0,1-5.52-1.88l-.06,0a2.72,2.72,0,0,0-1.27-.47.82.82,0,0,0-.22,0,1.57,1.57,0,0,0-.71.43,2,2,0,0,0-.55,1.05,2,2,0,0,1-1.05,1.47,1.56,1.56,0,0,1-.68.14c-2.1,0-4.5-4-5-4.77a24.18,24.18,0,0,1-2.75-8.5c0-.07-1.33-7.82-.28-9.27a1.27,1.27,0,0,1,.85-.52h.18m0-7h-.15a5.82,5.82,0,0,0-.93.07h-.08a8.18,8.18,0,0,0-5.53,3.34c-.93,1.28-2.84,3.92-1,14.6a31,31,0,0,0,3.58,10.78c2.18,3.78,5.87,8.27,11,8.27a8.54,8.54,0,0,0,3.53-.75,8.66,8.66,0,0,0,1.6-.92,15.15,15.15,0,0,0,4.93,1,9.47,9.47,0,0,0,5.85-1.92c2.12-1.62,5.25-5.5,2.44-13.16A38.93,38.93,0,0,0,432,50.63a15.25,15.25,0,0,0-7.36-6.71,14.53,14.53,0,0,0-5.27-1c-.31,0-.61,0-.91,0a15.86,15.86,0,0,0-1.53-3.25,8.24,8.24,0,0,0-7-3.82Z" fill="#fff"/><path d="M420.55,38.39a15.06,15.06,0,0,1-2.29-.16,7.73,7.73,0,0,1-6.18-4.7,10.78,10.78,0,0,0-1.15-1.85,13.11,13.11,0,0,0-3.65-2.63A18.22,18.22,0,0,1,402.94,26a5.19,5.19,0,0,1-.94-5.88c1.36-2.72,5.31-4.46,8.63-5a7.59,7.59,0,0,1,1.22-.09,16.74,16.74,0,0,1,3.26.39,5.07,5.07,0,0,1,1.33-.92,5.38,5.38,0,0,1,2.35-.52,6.41,6.41,0,0,1,4.57,2,6.92,6.92,0,0,1,1.79,5c0,1.45-.09,2.57-.15,3.56a10.52,10.52,0,0,0,0,2.75c0,.09.06.29.1.43l.1.08a5,5,0,0,1,1.48,9.62A18.53,18.53,0,0,1,420.55,38.39Z" fill="url(#linear-gradient-5)"/><path d="M418.79,17.47a2.91,2.91,0,0,1,2,.94,3.51,3.51,0,0,1,.84,2.54c0,1.36-.08,2.43-.15,3.37a13.45,13.45,0,0,0,.07,3.69,4,4,0,0,0,.69,1.81,4.27,4.27,0,0,0,2.33,1.48h.19a1.49,1.49,0,0,1,.55,2.9,15.28,15.28,0,0,1-4.78.7,12.3,12.3,0,0,1-1.79-.12c-2.23-.32-2.89-1.56-3.59-2.88a13.38,13.38,0,0,0-1.5-2.38A15.48,15.48,0,0,0,409,26a15.48,15.48,0,0,1-3.54-2.46,1.67,1.67,0,0,1-.34-1.9c.64-1.29,3.35-2.67,6-3.08a4.65,4.65,0,0,1,.69-.05,14.73,14.73,0,0,1,4.5.87,3.21,3.21,0,0,0,.7-.81l.15-.22a1.67,1.67,0,0,1,.75-.71,2,2,0,0,1,.84-.18m0-7a9,9,0,0,0-3.86.86l-.69.37a19,19,0,0,0-2.39-.18,11,11,0,0,0-1.76.13c-3.9.6-9.17,2.76-11.22,6.87a8.71,8.71,0,0,0,1.53,9.86,21.2,21.2,0,0,0,5.14,3.71,12.14,12.14,0,0,1,2.65,1.77,8.58,8.58,0,0,1,.8,1.3,11.19,11.19,0,0,0,8.78,6.54,20.35,20.35,0,0,0,2.78.19A21.89,21.89,0,0,0,428,40.65a8.49,8.49,0,0,0,4.7-11.13,8.32,8.32,0,0,0-4.26-4.43c0-.1,0-.21,0-.31.06-1,.14-2.2.16-3.76a10.35,10.35,0,0,0-2.73-7.4,9.86,9.86,0,0,0-7.13-3.15Z" fill="#fff"/><path d="M449.84,37.62c-3.6,0-5.85-4.17-7.1-7.67a17.25,17.25,0,0,1-1-4c0-.12,0-.22,0-.31a13.41,13.41,0,0,0-2-2.09c-1.25-1.13-2.67-2.4-2.63-4.72a4.77,4.77,0,0,1,4.81-4.67c1.37,0,10.89,1.94,14.1,6.74.73,1.09,2.34,5,.23,8.28A6.22,6.22,0,0,1,455,30.51a2.22,2.22,0,0,0-.23.22c-.21.2-.37.37-.48.49a4.8,4.8,0,0,1-2.55,6l-.23.1a3.59,3.59,0,0,1-1.37.3Z" fill="url(#linear-gradient-6)"/><path d="M441.89,17.62c1.17,0,9,1.93,11.19,5.18.25.39,1.31,2.7.19,4.46a2.78,2.78,0,0,1-.56.63,4.87,4.87,0,0,0-.37.35,6.86,6.86,0,0,0-1.54,2,2.83,2.83,0,0,0,.12,1.84c.31,1,.12,1.62-.57,1.93l-.23.1h-.28c-1.84,0-3.78-5.29-3.8-5.35a13.33,13.33,0,0,1-.79-3.3,3.51,3.51,0,0,0-.56-1.76,15.07,15.07,0,0,0-2.64-2.81c-1-.91-1.48-1.33-1.47-2a1.26,1.26,0,0,1,.45-.94,1.28,1.28,0,0,1,.86-.29m0-7a8.27,8.27,0,0,0-8.31,8.11c-.07,3.92,2.35,6.08,3.8,7.38.25.23.68.61,1,.95a20.9,20.9,0,0,0,1.06,4.1c1.63,4.53,4.76,10,10.38,10h.38A6.85,6.85,0,0,0,453,40.5l.23-.1a8.09,8.09,0,0,0,4.85-7.94A10.06,10.06,0,0,0,459.17,31c3-4.75,1.14-10-.27-12.12-4.11-6.13-15-8.29-17-8.29Z" fill="#fff"/><text transform="translate(586.83 34.81)" font-size="0.42" fill="#c33a34" font-family="ArialMT, Arial" style="isolation:isolate">I don’t like bugs!</text><path d="M585.23,40.83c-.23,0-.85,0-1-.43s.18-.67.32-.82c.37-.37.47-.91.68-2a17.33,17.33,0,0,0,0-3.86v-.16c-.07-1.28-.11-2,.44-2.3a.64.64,0,0,1,.37-.09,4.92,4.92,0,0,1,1,.15c.45.1.74.19,1,.26a2.28,2.28,0,0,0,.77.15,2.72,2.72,0,0,0,.94-.18,2,2,0,0,0,.77-.6c.16-.16.36-.37.64-.62.77-.7,1.33-1.2,2-1.2l.22,0a1.82,1.82,0,0,1,1.06.74c.11.12,1,1.19.57,1.81a.76.76,0,0,1-.55.27,4.46,4.46,0,0,0-2,1.08,3.15,3.15,0,0,0-1.24,1.35,2.21,2.21,0,0,0-.12.82c0,.1,0,.21,0,.33a5.45,5.45,0,0,1-1.57,3.2,6,6,0,0,1-4.1,2.08Z" fill="url(#linear-gradient-7)"/><path d="M589.78,31.87a2.83,2.83,0,0,1-1.07.21,9.12,9.12,0,0,1-1.83-.41c-.88-.2-1-.14-1.07-.11-.38.23-.33.91-.26,2.14a18.61,18.61,0,0,1,0,3.94c-.22,1.17-.33,1.75-.75,2.17-.09.1-.33.31-.27.47s.56.2.73.2a5.62,5.62,0,0,0,3.84-2,5.19,5.19,0,0,0,1.49-3,3.29,3.29,0,0,1,.15-1.25,3.53,3.53,0,0,1,1.36-1.52,4.85,4.85,0,0,1,2.17-1.15.4.4,0,0,0,.31-.13c.21-.28-.2-1-.55-1.35a1.53,1.53,0,0,0-.86-.63c-.57-.1-1.08.35-1.9,1.1S590.4,31.62,589.78,31.87Z" fill="#38669e"/><path d="M523,107a.47.47,0,0,1-.39-.21c-1.2-1.69-5.21-7.38-6.74-9.79-.17-.25-.51-.68-.87-1.14-1.25-1.57-2.06-2.64-2-3.29a.39.39,0,0,1,.4-.34,5.53,5.53,0,0,1,1.34.43l.94.33a5.61,5.61,0,0,1,1.61-2.35c4-3.61,9.48-12.17,9.19-13.85a5.76,5.76,0,0,1,.28-3.11,3.27,3.27,0,0,1,.47-1c-.61-.85-.34-2.14-.09-3.3.21-.94.38-1.78.52-2.51.7-3.43,1-4.84,2.25-4.84h.21l.1.18c.09.15.63,1.15,1,1.89a44.12,44.12,0,0,1,7-8.35v0c-.25-1.09.11-3,1.16-8.35s2.14-10.92,5.33-16.42c1.89-3.26,4.29-5.65,9.08-10.4C553.91,20.4,569.63,7,570.35,7h.14l.1.09c.69.59-.56,2.21-6.22,8.86a132.51,132.51,0,0,0-8.48,10.61,36.84,36.84,0,0,0-6.15,19.05l.58-.28a2.63,2.63,0,0,0,1.25-.86l0-.07v0a4.14,4.14,0,0,1,.51-1.38,7.94,7.94,0,0,1,2.46-2.65,5.33,5.33,0,0,1,1.77-.82,3.69,3.69,0,0,0,1.1-.48c.36-.22.67-.45,1-.66a3.21,3.21,0,0,1,1.91-.87,1.86,1.86,0,0,1,1,.3,1.76,1.76,0,0,1,.49.49v0a4.71,4.71,0,0,1,.25-2.28,4.06,4.06,0,0,1,1.56-2.48,3,3,0,0,1,1.55-.53h.11a2.86,2.86,0,0,1,1.4.39l.25.12a1,1,0,0,0,.31,0,1,1,0,0,0,.34,0,1,1,0,0,0,.62-.49.93.93,0,0,1,0-.13c0-.15,0-.32,0-.54a5.92,5.92,0,0,1,1.95-3.73,4.51,4.51,0,0,1,2.88-.87s2.58,0,3,.78c.19.37-.13.66-.41.92a2.08,2.08,0,0,0-.67.9c-.05.17-.39,2.07-.44,2.57,0,.11,0,.25,0,.42-.05.6-.11,1.41-.21,1.9-.26,1.31-.8,4-3,4.85a5,5,0,0,0,1.51.26h.28a4.07,4.07,0,0,0,.86-.17,9.09,9.09,0,0,1,.2-3.71,12.11,12.11,0,0,1,1.6-4.12c1.15-1.86,4.37-4.07,5.94-4.07.9,0,2.43.07,2.7.57a.46.46,0,0,1,0,.49,2.72,2.72,0,0,1-1.28.76,3.13,3.13,0,0,0-.78.38,1.78,1.78,0,0,0-.08.84,2.29,2.29,0,0,0,.34.92c.05.1.11.2.16.31l.11.2L583,33a9.57,9.57,0,0,1,.76,4.63,8.48,8.48,0,0,1-2.58,5.68h.4a9.07,9.07,0,0,1,1,.09,14.17,14.17,0,0,0,1.44.11c.21-.05.79-.79,1-1.11.42-.53.56-.71.81-.71h.22l.12.22c.53,1.13-.26,4.42-.63,5l-.21.34c-.76,1.22-1.71,2.75-3.46,3.24a5.94,5.94,0,0,1-1.09.19,1,1,0,0,0-.57.14,1.8,1.8,0,0,0-.51.44A7.62,7.62,0,0,0,578,54.63h0c.07,0,.27-.17.77-.88a2.15,2.15,0,0,1,1.72-1.17h.32l.33.14a1.74,1.74,0,0,1,1,1.86v.06a6.37,6.37,0,0,0,1,2.6c.2.41.32.62.4.75a2.09,2.09,0,0,1,.35,1.25c-.08,1.67-1.55,2.59-4.23,3.72a56.89,56.89,0,0,1-5.82,2l-.79.23a9.5,9.5,0,0,0-2.51.92,1.31,1.31,0,0,0,0,.37,3.67,3.67,0,0,1-.52,2,4.76,4.76,0,0,1-2.92,2,36,36,0,0,0-6.42,2.79c-1.16.6-2.36,1.22-3.59,1.77-.73.32-1.57.7-1.77,1.27,0,.09,0,.12.08.83,0,.18.07.39.11.62a20.75,20.75,0,0,1,.28,2.7,33.4,33.4,0,0,0,.37,3.72c.19,1.25.26,1.42.33,1.5a7.63,7.63,0,0,0,2.18,1.06c2.06.54,2.51.8,2.63,1.09l.06.15-.08.18c-.29.6-3.79,1.64-3.82,1.65-.56.15-1.74.59-2.5.9a6.56,6.56,0,0,0-1.8,1.13l-.52.4-.27.2c-.86.62-2,1.41-3.25,2.24-2.52,1.7-9.2,6.22-9.47,7.5a1.55,1.55,0,0,1,0,.21,1.93,1.93,0,0,0,.22,1.29c0,.08.1.16.14.24s.16.3.21.37.56.19.93.3c1.68.51,2.41.78,2.6,1.15a.45.45,0,0,1,0,.36c-.1.32-.46.42-1.52.42-.79,0-1.8-.06-2.62-.11l-1.14,0-.67,0c-2.2-.17-3.79-.29-4.43-1.76a2.28,2.28,0,0,1-.18-.68l-.26,0h-.71l-4.25-.9a.43.43,0,0,1-.28-.21c.39,1,.54,1.88-.15,2.25l-.2.11-.19-.14c-.06,0-1.59-1.2-1.91-1.46l-.65-.57c-.55-.48-1.3-1.13-1.82-1.55a43.76,43.76,0,0,0,.74,5,.44.44,0,0,1-.09.41.49.49,0,0,1-.39.19Zm19.33-24a6.25,6.25,0,0,1-2.2,2.25,2.42,2.42,0,0,1-.49.22l-.64.26c-.79.36-1.38.67-1.6.79-4.79,2.57-9.21,5.72-11.26,8a2.54,2.54,0,0,0-.51.76,4.4,4.4,0,0,0,.1,2.74,16.6,16.6,0,0,0,.77,2.35,8.12,8.12,0,0,0,.37.75c.25.47.52,1,.74,1.52a.23.23,0,0,1,0-.12.43.43,0,0,1,.36-.41c3.09-.47,4.68-.77,4.88-.85a1.33,1.33,0,0,0,.64-.92l0-.09-.35-.27c-.49-.38-1.11-.85-.76-1.52.24-.48,1.18-.53,2.46-.56a4.3,4.3,0,0,0,.58,0,5.42,5.42,0,0,0,.79-.19,3.15,3.15,0,0,0,.35-.37l.06-.07A40.6,40.6,0,0,1,540,94c1.57-1.42,4.19-3.81,4.36-4.78A2.71,2.71,0,0,1,545.77,87L546,87c-.63-.6-1.2-1.24-1.75-1.87s-1.07-1.21-1.63-1.74c-.07-.07-.18-.18-.31-.33Zm-11.2-10.17a2,2,0,0,1,.47.37,2.12,2.12,0,0,1,.46,1.92l0,.18,1.59-1.73c.77-.83,1.19-1.22,1.45-1.46a.86.86,0,0,0,.14-.14,1.18,1.18,0,0,0,.16-.69,5.58,5.58,0,0,1,.4-1.93c.09-.21.21-.52.38-.86a10.73,10.73,0,0,0-1.59,1.73c-.24.32-.42.6-.56.81a3.26,3.26,0,0,1-1.62,1.52,4.07,4.07,0,0,1-1.25.28Zm31-33.61c0,.09,0,.18,0,.24a3.65,3.65,0,0,1-.41,2,8.45,8.45,0,0,0-.55,1.8,6.76,6.76,0,0,0,.51-.62c.84-1.17,1.17-2.23,1-2.57a1.24,1.24,0,0,0-.15-.21A5.66,5.66,0,0,1,562.14,39.23Z" fill="url(#linear-gradient-8)"/><path d="M538.4,106l-.65,0c-2.15-.16-3.57-.27-4.13-1.54a2.06,2.06,0,0,1-.14-1,1.3,1.3,0,0,1-.62.16h-.67l-4.22-.89a.08.08,0,0,1,0-.15c1.22-.19,4.71-.73,5-.89.85-.48.77-1.24.93-1.41-.57-.57-1.51-1-1.22-1.54s2.38-.32,2.78-.39a6.43,6.43,0,0,0,.89-.22,2.61,2.61,0,0,0,.52-.53,40.37,40.37,0,0,1,3.34-3.26c1.8-1.64,4.27-3.89,4.46-5a2.44,2.44,0,0,1,1.25-1.91,1.74,1.74,0,0,1,.7-.16h.19a23.19,23.19,0,0,1-2.3-2.36c-.53-.6-1.08-1.23-1.65-1.77a2.45,2.45,0,0,1-.59-.77A6,6,0,0,1,539.91,85a1.89,1.89,0,0,1-.43.19c-.09,0-.25.09-.66.28-.81.36-1.41.68-1.63.8-4.83,2.59-9.28,5.77-11.36,8.09a3.06,3.06,0,0,0-.57.86,4.77,4.77,0,0,0,.08,3,17.24,17.24,0,0,0,.79,2.4c.31.79,2.17,3.66,1.17,4.19,0,0-1.59-1.19-1.9-1.45-.56-.48-2.41-2.12-3-2.51a.07.07,0,0,0-.12.06,38.28,38.28,0,0,0,.78,5.66.14.14,0,0,1-.24.11c-1.28-1.8-5.21-7.39-6.73-9.78-.57-.89-2.9-3.41-2.8-4.2,0-.19,2.54,1,2.59.77a5,5,0,0,1,1.59-2.47c3.9-3.5,9.63-12.24,9.3-14.18a5.37,5.37,0,0,1,.27-3,2.65,2.65,0,0,1,.61-1.11c-.76-.69-.48-2-.22-3.22,1.09-5.06,1.22-7.08,2.42-7.08,0,0,1.07,1.94,1.25,2.49a42.15,42.15,0,0,1,7.43-9,.7.7,0,0,0,0-.27c-.24-1,.16-3.13,1.16-8.2,1-5.34,2.13-10.87,5.28-16.31,1.87-3.22,4.26-5.6,9-10.33.1-.1,16.08-13.66,16.34-13.43.92.79-10.76,12.9-14.77,19a36.79,36.79,0,0,0-4.44,9.23,37.55,37.55,0,0,0-1.78,10.63,9.22,9.22,0,0,1,1.11-.58,2.87,2.87,0,0,0,1.39-1,.42.42,0,0,0,.09-.24,3.86,3.86,0,0,1,.47-1.27,7.57,7.57,0,0,1,2.35-2.52,4.94,4.94,0,0,1,1.67-.78,3.84,3.84,0,0,0,1.19-.52c.36-.22.69-.46,1-.67a3,3,0,0,1,1.7-.8,1.4,1.4,0,0,1,.8.24,1.73,1.73,0,0,1,.69,1.42,3.24,3.24,0,0,1-.37,1.79,10.61,10.61,0,0,0-.75,3,7.5,7.5,0,0,0,1.31-1.4c.74-1,1.34-2.33,1-2.94a1.52,1.52,0,0,0-.19-.27,3.14,3.14,0,0,1-.69-1.45,4.29,4.29,0,0,1,.24-2.12,3.76,3.76,0,0,1,1.41-2.28,2.69,2.69,0,0,1,1.37-.48h.1a2.48,2.48,0,0,1,1.24.35,2.38,2.38,0,0,0,.29.13,1.21,1.21,0,0,0,.43.07,2.15,2.15,0,0,0,.43,0,1.38,1.38,0,0,0,.86-.71.52.52,0,0,0,0-.25c0-.14,0-.3,0-.51a5.51,5.51,0,0,1,1.81-3.49,4.2,4.2,0,0,1,2.66-.8c.9,0,2.46.23,2.65.59s-.87.72-1.11,1.56c-.06.22-.4,2.14-.45,2.64s-.12,1.67-.24,2.29c-.27,1.38-.82,3.91-2.89,4.63a3.32,3.32,0,0,1-.95.17,6.26,6.26,0,0,0,2.71.72h.31a3.73,3.73,0,0,0,1.26-.31,8,8,0,0,1,.12-3.86,11.81,11.81,0,0,1,1.55-4c1.06-1.73,4.18-3.91,5.64-3.91.32,0,2.67.06,2.38.51s-1.84.73-2.08,1.18a2,2,0,0,0-.11,1,3.61,3.61,0,0,0,.53,1.36c.08.15.2.35.28.52a9.25,9.25,0,0,1,.73,4.45,8.09,8.09,0,0,1-2.56,5.53,7.11,7.11,0,0,1-.9.65,6,6,0,0,1,1.63-.12c.53,0,1.58.2,2.44.21.57,0,1.78-2,1.88-1.81.47,1-.3,4.16-.61,4.65-.78,1.24-1.69,2.93-3.47,3.43a4.76,4.76,0,0,1-1,.17,1.38,1.38,0,0,0-.72.19,2,2,0,0,0-.6.53c-1.27,1.48-2,3.5-1.77,3.83A.51.51,0,0,0,578,55h.05c.33-.05.79-.71,1-1s.71-1,1.43-1h.25l.26.11a1.39,1.39,0,0,1,.76,1.51v.06c0,.65.28,1.32,1,2.77.21.43.33.64.42.79a1.75,1.75,0,0,1,.3,1.05c-.08,1.47-1.47,2.33-4,3.4a58,58,0,0,1-5.79,2l-.79.23c-1.87.55-2.59.79-2.73,1.13a1.23,1.23,0,0,0-.07.5,3.23,3.23,0,0,1-.46,1.77,4.44,4.44,0,0,1-2.72,1.82,36.11,36.11,0,0,0-6.48,2.82c-1.16.59-2.35,1.21-3.57,1.75-.8.36-1.71.76-2,1.48-.06.19-.06.27.07,1,0,.19.07.39.11.62a19.81,19.81,0,0,1,.27,2.66c0,.85.1,1.82.38,3.76.21,1.37.29,1.53.41,1.68a7.63,7.63,0,0,0,2.36,1.16c.53.14,2.27.59,2.39.89s-2.59,1.22-3.61,1.49c-.58.16-1.77.61-2.54.93a10,10,0,0,0-2.4,1.56l-.27.2c-.85.62-2,1.41-3.24,2.24-3,2-9.31,6.3-9.61,7.72a1.7,1.7,0,0,1,0,.22,2.25,2.25,0,0,0,.27,1.52,3.17,3.17,0,0,0,.45.74c.44.23,3.57,1,3.43,1.4s-4.12,0-4.94,0Zm-8.57-33.07H530a1.85,1.85,0,0,1,1.35.55,1.76,1.76,0,0,1,.37,1.62,6.52,6.52,0,0,0-.08.67c0,.17,0,.41,0,.61.37-.47,1-1.19,2.28-2.54.76-.82,1.18-1.21,1.43-1.44s.19-.17.23-.27a1.57,1.57,0,0,0,.19-.8,5.11,5.11,0,0,1,.37-1.82,6.38,6.38,0,0,1,2.4-3.17,6.69,6.69,0,0,1,.66-.36,1.51,1.51,0,0,0,.3-.17.11.11,0,0,0,0-.08h-.05c-.43,0-1,.35-2.08,1.27a17.14,17.14,0,0,0-3.09,3c-.25.33-.43.61-.57.83a3,3,0,0,1-1.46,1.38,3.86,3.86,0,0,1-1.49.27,2.15,2.15,0,0,0-1.05.21l.14.16,0,0Z" fill="#3b5e88"/><path d="M538.4,105.27l-.59,0c-2-.16-3.15-.24-3.54-1.12a2.56,2.56,0,0,1,0-1.43c.05-.24.11-.45.16-.61-.37.15-.83.4-1,.5-.35.19-.43.23-.57.23h-.27l-.24-.4,0-.2c.05-.2.17-.27.46-.43,1.66-1,1.87-1.46,1.85-1.67a1,1,0,0,0-.31-.43c-.17-.17-.5-.5-.29-.9a.63.63,0,0,1,.61-.33,3.65,3.65,0,0,1,.51.06,4.89,4.89,0,0,0,.81.09,1.8,1.8,0,0,0,.79-.16,1.77,1.77,0,0,0,.57-.48,40.59,40.59,0,0,1,3.28-3.19c2.08-1.9,4.44-4,4.68-5.38a1.79,1.79,0,0,1,.85-1.4.93.93,0,0,1,.4-.09,1,1,0,0,1,.24,0h.26c.44-.08.77-.52.75-.7s-.14-.19-.2-.24A20.35,20.35,0,0,1,545,84.38c-.54-.62-1.1-1.25-1.69-1.81a1.57,1.57,0,0,1-.49-.72,1.6,1.6,0,0,1,.12-1.2c0-.12.11-.25.09-.3a1,1,0,0,0-.79-.35.59.59,0,0,0-.19,0,.49.49,0,0,1,0,.14,5.36,5.36,0,0,1-2.53,4.16,1.5,1.5,0,0,1-.32.15,5.88,5.88,0,0,0-.71.29c-.83.37-1.45.7-1.68.82-4.89,2.63-9.42,5.87-11.55,8.25a3.74,3.74,0,0,0-.69,1,5.31,5.31,0,0,0,0,3.41,17.64,17.64,0,0,0,.82,2.49c.29.77.46,1.19,0,1.43l-.1,0h-.14a.86.86,0,0,1-.61-.38c-.88-1-1.86-2.05-2.76-2.14h-.15a.6.6,0,0,0-.3,0s0,.12.07.46a10,10,0,0,0,.26,1,.63.63,0,0,1-.11.77l-.13.09h-.19c-.7,0-3.29-2.49-4.44-5.75a4.53,4.53,0,0,1-.27-2.81A4.3,4.3,0,0,1,518,91.44c3.56-3.19,10-12.32,9.53-14.83a4.68,4.68,0,0,1,.25-2.62c.09-.29.3-1,.87-1h0a.74.74,0,0,1,.62.34.76.76,0,0,0,.67.3A1,1,0,0,1,531,75a6.63,6.63,0,0,0-.09.72c0,.83-.07,1.31.16,1.57a.76.76,0,0,0,.51.24l.1,0c.07,0,.12-.15.14-.2a19.53,19.53,0,0,1,2.57-3,19.49,19.49,0,0,1,1.39-1.4,1.41,1.41,0,0,0,.39-.48,2.32,2.32,0,0,0,.26-1.09,4.16,4.16,0,0,1,.32-1.59,5.77,5.77,0,0,1,2.12-2.83,6.35,6.35,0,0,1,.6-.33c.35-.17.5-.25.62-.48a.92.92,0,0,0,0-.91.79.79,0,0,0-.56-.2h-.1c-.63,0-1.29.37-2.54,1.43a18.06,18.06,0,0,0-3.2,3.16c-.26.36-.45.65-.6.88a2.38,2.38,0,0,1-1.13,1.11,3.37,3.37,0,0,1-1.24.21,2.75,2.75,0,0,0-1.4.31l-.08,0a1.17,1.17,0,0,1-.57.19.82.82,0,0,1-.31-.07c-.67-.34-.42-1.47-.17-2.67,1-4.54,1.08-5,1.71-5h.06c.6.06.66.8.77,2.14,0,.15,0,.34,0,.53,1.69-4.32,7.36-10.16,8.25-10.79a.48.48,0,0,0,.17-.16,1.06,1.06,0,0,0,.07-.84c-.2-.88.24-3.18,1.16-7.9,1-5.29,2.11-10.75,5.21-16.09,1.82-3.13,4.19-5.49,8.91-10.17s10.81-10,11.78-10a.51.51,0,0,1,.39.16c.4.42.15.68-1.44,2.39a89.45,89.45,0,0,0-10.07,12.6,35.3,35.3,0,0,0-4.71,8.9,36.63,36.63,0,0,0-1.78,12.31,6.23,6.23,0,0,1,2.09-1.39A3.45,3.45,0,0,0,552.47,45a1,1,0,0,0,.19-.5,3,3,0,0,1,.39-1.05,7,7,0,0,1,2.13-2.28,4.56,4.56,0,0,1,1.46-.68,5,5,0,0,0,1.37-.59c.39-.24.73-.49,1-.71.54-.4.9-.67,1.28-.67a.74.74,0,0,1,.41.13,1.09,1.09,0,0,1,.38.89,2.6,2.6,0,0,1-.3,1.4c-.53,1-1.1,3.93-.79,4.46a5.74,5.74,0,0,0,2.56-2.17c.41-.56,1.68-2.5,1.08-3.68a2.33,2.33,0,0,0-.26-.38,2.42,2.42,0,0,1-.55-1.14,3.64,3.64,0,0,1,.22-1.79,3.06,3.06,0,0,1,1.13-1.89,1.86,1.86,0,0,1,1-.36h.07a1.88,1.88,0,0,1,.9.26,2,2,0,0,0,.39.18,2,2,0,0,0,.66.11,2.44,2.44,0,0,0,.62-.08,2.11,2.11,0,0,0,1.33-1.12,1.29,1.29,0,0,0,.08-.49c0-.13,0-.28,0-.46a5,5,0,0,1,1.52-3.13,3.73,3.73,0,0,1,2.24-.83,1.43,1.43,0,0,1,1.13.43c.39.45.24,1,0,1.73-.06.21-.13.47-.2.76a8.71,8.71,0,0,0-.3,2,5.89,5.89,0,0,1-.23,1.56c-.34,1.24-1,3.53-2.69,4.12a2.63,2.63,0,0,1-.86.14c-.23,0-.46,0-.68,0a5.12,5.12,0,0,0-.7-.05,3.41,3.41,0,0,0-.89.12,2.34,2.34,0,0,1,.41.27,8.61,8.61,0,0,0,4.71,1.85l.36,0c1-.07,1.9-.44,2-.79a.49.49,0,0,0,0-.26,7,7,0,0,1,.09-3.69,11.24,11.24,0,0,1,1.45-3.75c1.2-1.94,3.23-3.78,4.19-3.78a.71.71,0,0,1,.43.13c.35.26.27.66.21,1a3.75,3.75,0,0,0-.09,1.16,4.14,4.14,0,0,0,.51,1.59l.22.45a8.35,8.35,0,0,1,.59,4.17,7.38,7.38,0,0,1-2.32,5,7.2,7.2,0,0,1-1.33.88,3.81,3.81,0,0,0-1.55,1.25c-.22.31-.8,1.11-.59,1.52a1.09,1.09,0,0,0,.85.43.24.24,0,0,0,.13,0,4.32,4.32,0,0,1,2.18-2.16,4.08,4.08,0,0,1,1.51-.12l2.07,0c.5,0,1.12,0,1.42.51s0,1.11-.39,1.7c-.75,1.19-1.53,2.43-3,2.86a4.22,4.22,0,0,1-.9.14,2.11,2.11,0,0,0-1,.28,2.75,2.75,0,0,0-.79.68c-1,1.22-2.53,3.85-1.77,4.75a1.14,1.14,0,0,0,.88.37h.16c.62-.09,1.14-.83,1.49-1.32s.49-.71.84-.71h.11l.13.05c.36.17.34.59.32.81v.06c-.05.84.3,1.56,1.06,3.13.22.45.36.69.45.84a1.07,1.07,0,0,1,.2.65c0,1-1,1.68-3.58,2.79a57.94,57.94,0,0,1-5.71,2l-.8.23c-2.2.64-2.91.88-3.18,1.53a2,2,0,0,0-.12.76,2.59,2.59,0,0,1-.36,1.42,3.68,3.68,0,0,1-2.3,1.5,37.45,37.45,0,0,0-6.62,2.88c-1.14.59-2.33,1.2-3.53,1.73-.89.4-2,.89-2.35,1.89a2.49,2.49,0,0,0,0,1.38c0,.18.07.38.11.61a19.76,19.76,0,0,1,.26,2.58,37.13,37.13,0,0,0,.39,3.82c.21,1.44.31,1.73.57,2a3.23,3.23,0,0,0,1.76.91c.48.13,1,.26,1,.77s-.57.73-1.53,1a17.62,17.62,0,0,0-2.16.7,12.52,12.52,0,0,0-2.74,1.63l-.27.2c-.84.61-2,1.39-3.22,2.22-3.8,2.57-9.55,6.46-9.9,8.17a2.52,2.52,0,0,0,0,1.07,2.27,2.27,0,0,0,.52.83c.22.26.5.58.32,1s-.74.44-1,.44Z" fill="#465d76"/><path d="M521.35,101.64c.06,0-.12-.31-.32-1.29-.1-.48-.11-.67,0-.82.22-.31.79-.26.89-.25,1.08.11,2.11,1.25,3.05,2.29.1.11.23.26.29.23s-.62-1.47-1.07-3.4a5.69,5.69,0,0,1,0-3.69,4.06,4.06,0,0,1,.77-1.19c2.08-2.33,6.54-5.59,11.68-8.34.3-.17.9-.48,1.71-.84s.75-.28,1-.42a4.93,4.93,0,0,0,2.29-3.73.67.67,0,0,1,.14-.5,1.34,1.34,0,0,1,1.75.5c.17.47-.42.87-.21,1.51a1.17,1.17,0,0,0,.36.52c1.49,1.41,2.67,3.15,4.29,4.41a.89.89,0,0,1,.38.55c.06.49-.51,1.11-1.13,1.23-.38.07-.53-.1-.8,0-.45.21-.54.88-.57,1-.42,2.3-5.75,6.11-8.05,8.78a2.15,2.15,0,0,1-.75.61c-1.11.54-2.35-.16-2.5.14s.59.51.65,1.07c.11,1.08-2.35,2.21-2.32,2.27s1.9-1.14,2.19-.81c.12.14-.14.44-.29,1.25a2.09,2.09,0,0,0,0,1.15c.27.62,1.26.69,3.13.83.69.06,1,0,1.1-.13s-.6-.63-.86-1.48a2.74,2.74,0,0,1,0-1.31c.51-2.46,9.67-8,13.31-10.68a14,14,0,0,1,3.1-1.87c1.83-.77,3.4-.88,3.4-1.26s-1.67-.23-2.64-1.38c-.36-.42-.47-.84-.68-2.27-.55-3.74-.25-4-.65-6.4-.19-1.19-.34-1.58-.12-2.21a4.27,4.27,0,0,1,2.6-2.17C559.8,72.09,563,70,566.58,69a3.33,3.33,0,0,0,2.06-1.31c.49-.8.13-1.35.44-2.11.42-1,1.54-1.22,4.28-2a55.33,55.33,0,0,0,5.67-2c2.43-1,3.25-1.65,3.29-2.38,0-.26-.1-.21-.6-1.25-.78-1.6-1.17-2.4-1.11-3.37,0-.17,0-.37-.05-.41-.29-.14-1,1.83-2.3,2a1.71,1.71,0,0,1-1.48-.53c-1.07-1.28.88-4.31,1.78-5.36a3.55,3.55,0,0,1,.91-.78c.79-.45,1.22-.24,2-.47,1.34-.38,2.07-1.52,2.78-2.65.47-.73.49-1,.38-1.21s-.57-.27-1-.28a21.52,21.52,0,0,0-3.37.06,4,4,0,0,0-1.94,1.86.47.47,0,0,1-.14.24c-.37.31-1.4,0-1.7-.56s.32-1.59.63-2c1-1.33,1.84-1.25,2.95-2.22a7.13,7.13,0,0,0,2.16-4.73,8,8,0,0,0-.55-3.93,6,6,0,0,1-.77-2.19c-.09-1.11.3-1.65.07-1.81-.45-.34-2.59,1.33-3.93,3.51a10.59,10.59,0,0,0-1.39,3.58,6.55,6.55,0,0,0-.12,3.43.94.94,0,0,1,.06.56c-.18.74-1.53,1.08-2.4,1.15-2.6.2-5.12-1.7-5.4-1.93a1.68,1.68,0,0,0-.34-.23c-.6-.28-1.17-.06-1.2-.17s.31-.34.9-.57c1.63-.63,2.43.08,3.5-.29,1.48-.51,2.06-2.61,2.38-3.79.39-1.4,0-1.52.53-3.57.3-1.22.56-1.73.28-2.07-.44-.51-1.86-.25-2.72.45a4.6,4.6,0,0,0-1.35,2.82,2.94,2.94,0,0,1-.15,1.08A2.51,2.51,0,0,1,568,34.94a2.62,2.62,0,0,1-1.57,0c-.5-.17-.7-.44-1.18-.42a1.59,1.59,0,0,0-.77.28,2.72,2.72,0,0,0-.94,1.64,3.2,3.2,0,0,0-.2,1.56c.12.7.51.91.76,1.39.79,1.54-.85,3.82-1.11,4.18-1,1.31-2.63,2.68-3.2,2.3-.76-.5.12-4.11.62-5.08a2.21,2.21,0,0,0,.25-1.15c0-.24,0-.45-.18-.54-.34-.23-1.05.56-2.21,1.26-1.42.86-1.61.45-2.8,1.26a6.27,6.27,0,0,0-2,2.12c-.5.9-.19.93-.6,1.57-1,1.59-2.77,1.26-4.15,3.11-.13.17-.17.25-.24.24-.55-.09-.53-7.15,1.54-13.41,1.14-3.45,2.58-5.68,4.77-9,6-9.15,11.84-14.1,11.55-14.41s-5.77,4.16-11.48,9.83c-4.71,4.66-7.06,7-8.84,10.08-3.06,5.27-4.1,10.58-5.15,15.94-.79,4-1.36,6.89-1.18,7.69a1.57,1.57,0,0,1-.13,1.23,1.13,1.13,0,0,1-.28.28c-.83.58-6.8,6.71-8.23,11,0,.16-.25.75-.44.74-.46,0-.3-3.46-.73-3.5-.25,0-.58,1.53-1.25,4.64-.2.93-.42,2-.08,2.14.14.08.31,0,.52-.15,1.12-.59,1.83-.19,2.68-.54.64-.27.68-.68,1.53-1.83a18.53,18.53,0,0,1,3.27-3.24c1.33-1.13,2.12-1.6,3-1.54a1.22,1.22,0,0,1,.89.36,1.36,1.36,0,0,1,.06,1.44c-.29.55-.76.59-1.39,1a5.21,5.21,0,0,0-1.93,2.61c-.53,1.33,0,1.62-.6,2.71-.28.56-.32.33-1.85,2a23.48,23.48,0,0,0-2.48,2.84.81.81,0,0,1-.39.45,1.08,1.08,0,0,1-1.15-.34c-.38-.41-.34-1-.28-1.91s.23-1.18,0-1.41-.85,0-1.35-.42c-.23-.2-.28-.4-.44-.39s-.36.41-.44.68a4.19,4.19,0,0,0-.24,2.4c.5,2.87-6.29,12.23-9.65,15.24a4,4,0,0,0-1.26,1.91,4.16,4.16,0,0,0,.26,2.53c1.18,3.34,3.82,5.59,4,5.43Z" fill="#3e72b2"/><path d="M586.42,55.46a3.48,3.48,0,0,1-.45,0,3.23,3.23,0,0,1-1.29-.55l-.07,0a20.26,20.26,0,0,0-2.11-1.16c-.78-.39-1.21-.61-1.13-1.09s.38-.46.7-.56a5.28,5.28,0,0,0,.75-.28,7.08,7.08,0,0,0,2-1.67c.66-.68,1-1.1,1.26-1.4a4.41,4.41,0,0,1,1-.94,5.26,5.26,0,0,1,2.26-1,.54.54,0,0,1,.46.2c.21.29,0,.58-.19.84a3.82,3.82,0,0,0-.28.42,3.12,3.12,0,0,0-.24,2.06A8.39,8.39,0,0,1,589,53a2.91,2.91,0,0,1-.9,1.89,2.55,2.55,0,0,1-1.65.54Z" fill="url(#linear-gradient-9)"/><path d="M581.72,52.65c-.07.39,1,.6,3.08,1.89a3.08,3.08,0,0,0,1.22.54,2.45,2.45,0,0,0,1.83-.43,2.67,2.67,0,0,0,.77-1.69c.47-2.39-.47-3.5.34-4.93.27-.46.59-.74.49-.87s-1.31.23-2.23.87-.68.75-2.19,2.3a7.68,7.68,0,0,1-2,1.74c-.77.37-1.22.33-1.26.58Z" fill="#38669e"/><path d="M586.86,32.55c-.71.48.72,2.46.13,5.15-.1.46-.24.84-.08,1,.34.25,1.84-.65,2.51-2,.45-.94.13-1.31.78-2.64.26-.53.46-.8.34-1s-.9,0-2.27-.21C587.21,32.63,587.09,32.4,586.86,32.55Z" fill="#3e72b2"/><path d="M586.42,53.92h-.21a1.8,1.8,0,0,1-.71-.33l-.08,0c-.49-.31-.93-.56-1.31-.76a14.6,14.6,0,0,0,1.77-1.62c.7-.72,1.07-1.16,1.34-1.48a3.21,3.21,0,0,1,.22-.25c0,.34,0,.67.06,1a7.24,7.24,0,0,1,0,2.31,2.12,2.12,0,0,1-.37,1,1.1,1.1,0,0,1-.67.18Z" fill="#3e72b2"/><path d="M485.2,104.56a5.9,5.9,0,0,1-1.29-.17c-2.68-.64-4.56-3.35-5.46-4.66-1.57-2.28-3.06-4.69-4.43-7.16a1.31,1.31,0,0,1,0-1.3,1.34,1.34,0,0,1,1.13-.64,1.25,1.25,0,0,1,.43.07,23.59,23.59,0,0,0,6.35.93,8.53,8.53,0,0,0,2.27-.25c.7-.25,2.38-1.3,2.54-1.83a2.92,2.92,0,0,0-1.39-1.34c-5.77-2.6-9.59-4.32-10.22-4.46a17.72,17.72,0,0,0-3.23-.24,57.62,57.62,0,0,0-7.62.62c-1.47.2-3.08.45-4.78.72a95.94,95.94,0,0,1-13.9,1.55,19.79,19.79,0,0,1-4.06-.36c-1.24-.25-4.17-1.07-4.43-3.09a3.11,3.11,0,0,1,0-.81,8.39,8.39,0,0,0,.05-1.27l-.15,0-.24,0c-2.53,0-5.45-5.35-6.51-11.91a58.87,58.87,0,0,1-.54-10c0-.84,0-1.53,0-2.13a15.33,15.33,0,0,0-.26-4.15,12.57,12.57,0,0,0-2.75-6.13A17.9,17.9,0,0,0,423.41,44c-1.26-.84-2.34-1.56-1.81-2.72a1.34,1.34,0,0,1,.89-.76c3.12-1,4.94-1.5,6.27-1.5a3,3,0,0,1,1.82.52,4.65,4.65,0,0,1,1.64,2.66c1,3.4,1.78,5.92,2.33,8.09.68-2.55.33-9-2.1-14.13a13.94,13.94,0,0,0-2.53-3.71A17.65,17.65,0,0,1,426.43,27c-1.5-3.42-2.89-7.78-1-9.1a1.88,1.88,0,0,1,1.05-.32,5.41,5.41,0,0,1,2.64,1.13A38.8,38.8,0,0,0,433.33,21a20.59,20.59,0,0,0,3.52,1.28,8.69,8.69,0,0,1,2.74,1.14c3.31,2,4.91,4.94,6.61,8a26.7,26.7,0,0,1,1.89,4.25,26.44,26.44,0,0,0,1.84,4.19,36.68,36.68,0,0,0,2.9,4.61l-.12-1a56.81,56.81,0,0,1-.51-8.38,9.34,9.34,0,0,1,.9-3.84c.69-1.46,2.17-3.92,4.25-3.92h.14A3.34,3.34,0,0,1,460,29.12a7,7,0,0,0,2.48,2.34,3.35,3.35,0,0,0,1,.44,3.35,3.35,0,0,0,.4-.51,3.56,3.56,0,0,1,2-1.65,2,2,0,0,1,.52-.07,1.39,1.39,0,0,1,.35,0c1.75.4,1.95,3.31,1.54,5.14A7.38,7.38,0,0,1,467,37.49a12.55,12.55,0,0,1-2,2.33,21.5,21.5,0,0,0-1.95,2,6.28,6.28,0,0,0-.95,1.34,1.86,1.86,0,0,0,.61,1.11,3,3,0,0,0,1.87,1l.22,0a1.12,1.12,0,0,0,.35-.23l.06-.05a17.46,17.46,0,0,1,6.26-3,10.45,10.45,0,0,1,2.43-.39h0c-.05-.12-.1-.25-.14-.37a11.24,11.24,0,0,1,0-7.28c1.09-3.6,4-7.46,6.55-7.46a3.18,3.18,0,0,1,.62.07,3.39,3.39,0,0,1,2.33,2.95,3.17,3.17,0,0,1-.7,2.08,3,3,0,0,0-.37.64c-.38,1,.39,2.36.89,3.26.78,1.4,1.59,2.77,2.37,4.1a87.44,87.44,0,0,1,4.46,8.2c.77,1.7,1.78,4.38,1.35,6.15a10,10,0,0,1,4.27,3.32c1.94,2.62,3,6.6,1.34,9.16a3.44,3.44,0,0,1-.48.57c-.09.1-.21.22-.42.46a11.83,11.83,0,0,0-2.14,3.71v2c4.72,2.58,6.83,4.84,6.65,7.07,0,.08,0,.2,0,.34a11.26,11.26,0,0,0,0,3.17,2.78,2.78,0,0,0,.27,1.09,4.62,4.62,0,0,0,2.39,1.47c.27.11.53.19.75.26.82.26,1.74.55,1.93,1.57a2,2,0,0,1-.66,1.76c-6.72,6.81-10.46,8-10.61,8.1-.83.26-1.47.4-2,.52a6.15,6.15,0,0,0-2.18.8c-1.95,1.17-2.8,2.29-2.8,2.88v.06a2.09,2.09,0,0,1-2.31,2.33ZM435.9,58.09a2.89,2.89,0,0,0,1,2,3,3,0,0,0,1.41.33h0a2.81,2.81,0,0,0,1.22-.3,8.86,8.86,0,0,1,1.94-.62l.71-.11a4,4,0,0,0-2.36-1.09h-.27l-.87,0-1,0A6.46,6.46,0,0,1,435.9,58.09Z" fill="#bb8135"/><path d="M425.87,82.49a6.39,6.39,0,0,1-2.81-.62,5.62,5.62,0,0,1-3.15-3.71,30.15,30.15,0,0,1,.35-8c.21-1.56.78-2.35,1.67-2.35a1.25,1.25,0,0,1,1,.49,14.81,14.81,0,0,1,.89,1.4A19.61,19.61,0,0,0,429.14,76c2,1.47,3.75,2.28,5,2.28a1.62,1.62,0,0,0,.31,0h.15a1.22,1.22,0,0,1,.42,2.36,56.15,56.15,0,0,1-5.64,1.44,19.57,19.57,0,0,1-3.53.43Z" fill="#bb8135"/><path d="M416.88,65.92c-2.1,0-4.5-4-5-4.77a24.18,24.18,0,0,1-2.75-8.5c0-.07-1.33-7.82-.28-9.27a1.27,1.27,0,0,1,.85-.52h.18c1,0,1.32.82,2.06,2.78.56,1.53,1.9,5.11,3,5.48a2.78,2.78,0,0,0,.89.16H416a1.56,1.56,0,0,0,.47-.32c.15-.13.32-.27.53-.42a4.21,4.21,0,0,1,2.33-.64,7.64,7.64,0,0,1,2.72.56c1.48.58,2.62,1.7,4,3.86,1.21,2,5,8.53,2.49,10.43a2.52,2.52,0,0,1-1.58.47,13.47,13.47,0,0,1-5.52-1.88l-.06,0a2.72,2.72,0,0,0-1.27-.47.82.82,0,0,0-.22,0,1.57,1.57,0,0,0-.71.43,2,2,0,0,0-.55,1.05,2,2,0,0,1-1.05,1.47A1.56,1.56,0,0,1,416.88,65.92Z" fill="#bb8135"/><path d="M420.55,34.89a12.3,12.3,0,0,1-1.79-.12c-2.23-.32-2.89-1.56-3.59-2.88a13.38,13.38,0,0,0-1.5-2.38A15.48,15.48,0,0,0,409,26a15.48,15.48,0,0,1-3.54-2.46,1.67,1.67,0,0,1-.34-1.9c.64-1.29,3.35-2.67,6-3.08a4.65,4.65,0,0,1,.69-.05,14.73,14.73,0,0,1,4.5.87,3.21,3.21,0,0,0,.7-.81l.15-.22a1.67,1.67,0,0,1,.75-.71,2,2,0,0,1,.84-.18,2.91,2.91,0,0,1,2,.94,3.51,3.51,0,0,1,.84,2.54c0,1.36-.08,2.43-.15,3.37a13.45,13.45,0,0,0,.07,3.69,4,4,0,0,0,.69,1.81,4.27,4.27,0,0,0,2.33,1.48h.19a1.49,1.49,0,0,1,.55,2.9A15.28,15.28,0,0,1,420.55,34.89Z" fill="#bb8135"/><path d="M449.84,34.12c-1.84,0-3.78-5.29-3.8-5.35a13.33,13.33,0,0,1-.79-3.3,3.51,3.51,0,0,0-.56-1.76,15.07,15.07,0,0,0-2.64-2.81c-1-.91-1.48-1.33-1.47-2a1.26,1.26,0,0,1,.45-.94,1.28,1.28,0,0,1,.86-.29c1.17,0,9,1.93,11.19,5.18.25.39,1.31,2.7.19,4.46a2.78,2.78,0,0,1-.56.63,4.87,4.87,0,0,0-.37.35,6.86,6.86,0,0,0-1.54,2,2.83,2.83,0,0,0,.12,1.84c.31,1,.12,1.62-.57,1.93l-.23.1Z" fill="#bb8135"/><path d="M474.76,92.23a.23.23,0,0,1,.27-.33c1.94.6,6.66,1.33,9.09.62.39-.11,3.64-1.67,3.39-3.13a3.82,3.82,0,0,0-2.08-2.26c-6.54-2.95-9.81-4.42-10.49-4.54-1-.18-3.91-.64-11.22.36-6.92,1-16.86,3.07-22.35,1.93-.19,0-3.32-.71-3.49-2.08-.05-.37.11-.78.07-2,0-.63-.07-.92-.28-1.09-.36-.29-.92,0-1.2,0-1.41.18-4.32-4-5.43-10.91a57.36,57.36,0,0,1-.52-9.76c0-3.3.2-4.36-.27-6.53a13.52,13.52,0,0,0-3-6.68c-2.12-2.32-5.21-3.59-5-4.11a.26.26,0,0,1,.17-.12c4.05-1.24,6.09-1.85,7.05-1.15a3.57,3.57,0,0,1,1.2,2C432.62,49,433.6,52.28,434,56c.25,2.2.39,4.29,1.85,5.18a4.51,4.51,0,0,0,2,.51c1.31,0,1.67-.6,3.39-.94s2.24,0,2.4-.32c.33-.73-2.08-3.27-4.33-3.23a18.48,18.48,0,0,1-2,0,3.5,3.5,0,0,1-1.67-.32c-.25-.18-.77-.69-.73-3.08a10.43,10.43,0,0,1,.37-3.18c.79-2.92.35-9.7-2.17-15-2.06-4.34-3.71-3.86-6-9.09-.14-.31-2.88-6.63-1.39-7.64.86-.59,2.27,1.13,6.71,3.15,3.76,1.72,4.09,1.1,6.13,2.35,3,1.87,4.54,4.6,6.19,7.6,2,3.62,1.62,4.49,3.73,8.43,1.7,3.16,4.22,6.84,5,6.5s-.66-5.44-.5-11.8a8.15,8.15,0,0,1,.79-3.37c.16-.33,1.58-3.33,3.26-3.23,1.45.08,1.56,2.41,4.46,4,.72.39,1.38.74,2,.5.9-.37,1.08-1.79,2.27-2.12a.47.47,0,0,1,.28,0c.71.16,1,2.16.66,3.73a6.3,6.3,0,0,1-1.07,2.24c-1.18,1.78-2.1,2.09-3.92,4.28-1.17,1.42-1.22,1.81-1.23,2,0,1.76,2.54,3.7,4.21,3.24a2.22,2.22,0,0,0,.83-.5,16.3,16.3,0,0,1,5.8-2.79,5.13,5.13,0,0,1,3.6,0c.42.21.47.49,1.8,1.61.3.25,2,1.66,2.17,1.47s-3.18-2-4.44-5.38a10.21,10.21,0,0,1,0-6.52c1.05-3.5,3.95-7,5.74-6.58a2.22,2.22,0,0,1,1.44,1.88c.06.9-.65,1.32-1,2.22-.55,1.48.32,3.09,1,4.26,2.41,4.3,4.95,8.18,6.79,12.21,0,0,2.29,5,.88,6-.13.1-.69.38-.65.47s.32,0,.37,0c.65-.11,3.29.73,5.14,3.21,1.62,2.18,2.7,5.7,1.3,7.81a9.29,9.29,0,0,1-.81.91,12.94,12.94,0,0,0-1.84,2.85,5.94,5.94,0,0,0-.58,2.59v.75a1.74,1.74,0,0,0,.88,1.5c4.85,2.7,5.87,4.55,5.77,5.78a13.43,13.43,0,0,0,0,3.78,3.67,3.67,0,0,0,.43,1.53,5.55,5.55,0,0,0,3,2c1.08.41,1.84.49,1.93.94.05.3-.22.58-.34.71-6.59,6.68-10.13,7.8-10.13,7.8-2.13.67-2.84.49-4.41,1.44-.49.29-3.4,2-3.37,3.91a1.18,1.18,0,0,1-.18.86c-.46.54-1.59.27-2,.19-2.17-.52-3.85-2.87-4.75-4.18C477.8,97.3,476.32,95,474.76,92.23Z" fill="url(#linear-gradient-10)"/><path d="M434.22,79.5s0-.07,0-.06c-1.83.23-4.16-1-6.19-2.49-4-3-5.52-6.79-6.44-8-.12-.16-.41.24-.55,1.29a29,29,0,0,0-.35,7.72,4.5,4.5,0,0,0,2.43,2.79c1.19.5,2,.82,5.66.12a55.93,55.93,0,0,0,5.46-1.4Z" fill="url(#linear-gradient-11)"/><path d="M416.67,64.7c.51-.23.23-1.31,1.25-2.3a2.82,2.82,0,0,1,1.29-.73,3.4,3.4,0,0,1,2.4.63c1.57.93,4.79,2.25,5.77,1.5,1.35-1-1.17-6.27-2.78-8.88-1.34-2.17-2.31-3-3.38-3.37-.37-.15-2.52-1-4,0-.47.31-.71.71-1.4.91a3.49,3.49,0,0,1-1.68-.2c-2.49-.85-4.12-8.27-4.68-8.19-.4.06-.38,3.88.41,8.42a23.45,23.45,0,0,0,2.61,8.11c1.46,2.52,3.37,4.49,4.15,4.14Z" fill="url(#linear-gradient-12)"/><path d="M405.91,22.73a.52.52,0,0,1-.14-.56c.37-.73,2.6-2,5.15-2.43a12.14,12.14,0,0,1,4.6.76.93.93,0,0,0,.43.1c.72,0,1.34-.89,1.65-1.33s.26-.47.44-.55a1.48,1.48,0,0,1,1.49.5,2.45,2.45,0,0,1,.52,1.72c0,3.57-.48,5.22-.05,7.31a5,5,0,0,0,.91,2.29,4.88,4.88,0,0,0,3.42,1.93c.07,0,.36,0,.41.15.12.28-.2.45-.28.48a15.34,15.34,0,0,1-5.95.5c-2.55-.37-2.11-2-4.33-4.83C411.81,25.79,407.78,24.7,405.91,22.73Z" fill="url(#linear-gradient-13)"/><path d="M445.27,23.08c1.08,1.72.35,2.24,1.46,5.29,1,2.76,2.45,4.67,2.72,4.56s-.76-1.54-.18-3.1a7.85,7.85,0,0,1,1.81-2.43c.48-.47.6-.5.77-.77.76-1.19-.05-3-.18-3.17-1.94-2.91-10-4.86-10.3-4.64S443.94,21,445.27,23.08Z" fill="url(#linear-gradient-14)"/><path d="M449.89,69.3V59.61h3.2a9.6,9.6,0,0,1,2.13.18,2.4,2.4,0,0,1,1.3.81,3,3,0,0,1,.51,1.92,1.91,1.91,0,0,1-.4,1.36,1.46,1.46,0,0,1-.3.22,1.61,1.61,0,0,1,.47.37,2.36,2.36,0,0,1,.44,1.54v.83a3,3,0,0,1-.31,1.53,1.65,1.65,0,0,1-1,.76,10.17,10.17,0,0,1-2.38.17ZM453.43,67a.53.53,0,0,0,.23-.06,1.26,1.26,0,0,0,0-.4v-.83a1.38,1.38,0,0,0,0-.43l-.23,0Zm0-3.89.22,0a4.11,4.11,0,0,0,.05-.75,1,1,0,0,0-.05-.41c0-.05,0-.05,0-.05l-.17,0Z" fill="#1e3e63"/><path d="M457.45,69.3V59.61h5.8v2.51h-2v1h1.91v2.42h-1.91V66.8h2.24v2.5Z" fill="#1e3e63"/><path d="M470.86,69.3V62.12h-1.38V59.61h5.63v2.51h-1.38V69.3Z" fill="#1e3e63"/><path d="M450.22,60h2.87a8.85,8.85,0,0,1,2.05.17,2,2,0,0,1,1.13.69,2.66,2.66,0,0,1,.43,1.69,1.57,1.57,0,0,1-.3,1.1,2.31,2.31,0,0,1-1.2.48,2.3,2.3,0,0,1,1.35.6A2,2,0,0,1,456.9,66v.83a2.79,2.79,0,0,1-.25,1.35,1.33,1.33,0,0,1-.82.6,10.64,10.64,0,0,1-2.29.16h-3.32V60Zm2.87,1.53v2h.29c.28,0,.46-.05.54-.16a2.51,2.51,0,0,0,.11-1,1.36,1.36,0,0,0-.09-.59.44.44,0,0,0-.25-.22A3.11,3.11,0,0,0,453.09,61.5Zm0,3.4v2.51a1.48,1.48,0,0,0,.78-.15c.11-.1.16-.32.16-.69v-.83c0-.39,0-.62-.15-.7a1.58,1.58,0,0,0-.79-.14Z" fill="url(#linear-gradient-15)"/><path d="M457.8,60h5.09v1.79h-2v1.71h1.9v1.71h-1.9v2h2.24V69h-5.3V60Z" fill="url(#radial-gradient)"/><path d="M474.84,60v1.79h-1.39V69h-2.32V61.76h-1.38V60Z" fill="url(#radial-gradient-2)"/><path d="M467.27,69.3l-.15-1.61h-.41l-.17,1.61H463l1.53-9.69h4.54l1.72,9.69Zm-.3-3.91c0-.28-.08-.58-.11-.89-.05.33-.09.63-.11.89Z" fill="#1e3e63"/><path d="M468.81,60l1.58,9h-2.83l-.15-1.62h-1L466.25,69h-2.86l1.41-9Zm-1.47,5.77c-.14-1-.28-2.27-.42-3.77-.29,1.72-.46,3-.54,3.77Z" fill="url(#radial-gradient-3)"/><path d="M479,69.49a5.92,5.92,0,0,1-2.22-.38A2.38,2.38,0,0,1,475.41,68a3.84,3.84,0,0,1-.31-1.71v-.95h2.51l0,0a12.81,12.81,0,0,1-1.55-.86,2.34,2.34,0,0,1-.73-.85,3.57,3.57,0,0,1,.13-3,2.62,2.62,0,0,1,1.29-.88,6,6,0,0,1,2-.29,6.43,6.43,0,0,1,2.14.32,2.28,2.28,0,0,1,1.3.89,3.45,3.45,0,0,1,.32,1.7V63H479.7a8,8,0,0,1,2.37,1.46,3.12,3.12,0,0,1,.62,2.15,2.94,2.94,0,0,1-.35,1.61,2.49,2.49,0,0,1-1.31.9,6,6,0,0,1-2.08.33Zm-.25-2.24h.14c.09,0,.15,0,.17-.05s.07-.11.07-.32c0-.6-.13-.75-.16-.77a2,2,0,0,0-.27-.19v.89a1.47,1.47,0,0,0,0,.43Zm.08-5.6c-.11,0-.13,0-.14.05s-.06.09-.06.29a1,1,0,0,0,.09.48.72.72,0,0,0,.23.17V62a1.59,1.59,0,0,0,0-.36Z" fill="#1e3e63"/><path d="M482.08,62.68h-2.83V62a1,1,0,0,0-.11-.59.43.43,0,0,0-.36-.13.54.54,0,0,0-.42.17.83.83,0,0,0-.14.52,1.16,1.16,0,0,0,.16.68,2.34,2.34,0,0,0,.86.55,8.66,8.66,0,0,1,2.57,1.52,2.83,2.83,0,0,1,.53,1.91,2.66,2.66,0,0,1-.3,1.42,2.21,2.21,0,0,1-1.13.76,5.8,5.8,0,0,1-2,.31,5.47,5.47,0,0,1-2.09-.36,2.06,2.06,0,0,1-1.13-.9,3.64,3.64,0,0,1-.27-1.56v-.59h2.83v1.09a1.12,1.12,0,0,0,.12.65.52.52,0,0,0,.43.15.53.53,0,0,0,.45-.19.83.83,0,0,0,.15-.54,1.39,1.39,0,0,0-.28-1,9.88,9.88,0,0,0-1.43-.81,16.86,16.86,0,0,1-1.51-.84,2.07,2.07,0,0,1-.61-.72,2.55,2.55,0,0,1-.24-1.18,2.61,2.61,0,0,1,.34-1.51,2.22,2.22,0,0,1,1.11-.74,5.62,5.62,0,0,1,1.86-.27,6.25,6.25,0,0,1,2,.29,2,2,0,0,1,1.11.74,3.12,3.12,0,0,1,.28,1.52v.35Z" fill="url(#linear-gradient-16)"/><path d="M470.74,74.2a5.84,5.84,0,0,1-1.78-.26,3,3,0,0,1-1.34-.8,2.23,2.23,0,0,1-.63-1.21,15,15,0,0,1-.09-2V68.39a14.63,14.63,0,0,1,.09-2,2.24,2.24,0,0,1,.6-1.22,3,3,0,0,1,1.32-.81,5.64,5.64,0,0,1,1.83-.27,5.73,5.73,0,0,1,1.77.25,3.24,3.24,0,0,1,1.34.8,2.22,2.22,0,0,1,.63,1.22,14.93,14.93,0,0,1,.09,2v1.53a15.28,15.28,0,0,1-.08,2,2.25,2.25,0,0,1-.61,1.22,3.25,3.25,0,0,1-1.31.81,5.68,5.68,0,0,1-1.83.27ZM470.67,72h.15s0-.16,0-.85V67a2.29,2.29,0,0,0-.05-.62h-.06a.15.15,0,0,0-.09,0h0a3.73,3.73,0,0,0,0,.6v4.19a3.55,3.55,0,0,0,.05.79Z" fill="#4874ab"/><path d="M474.69,74V68h-.6V66.11h.6a3.51,3.51,0,0,1,.07-.7,1.24,1.24,0,0,1,.45-.63,2,2,0,0,1,.85-.35,7,7,0,0,1,1.5-.11H479V68h-.69v6Z" fill="#4874ab"/><path d="M474.22,69.93a16.5,16.5,0,0,1-.08,1.92,2,2,0,0,1-.52,1,2.73,2.73,0,0,1-1.17.71,5.22,5.22,0,0,1-1.71.25,5.71,5.71,0,0,1-1.67-.23,2.87,2.87,0,0,1-1.19-.71,2,2,0,0,1-.54-1,16.42,16.42,0,0,1-.08-1.94V68.39a16.18,16.18,0,0,1,.08-1.91,1.9,1.9,0,0,1,.51-1,2.84,2.84,0,0,1,1.17-.72,5.57,5.57,0,0,1,1.72-.25,5.43,5.43,0,0,1,1.67.24,2.77,2.77,0,0,1,1.19.71,1.81,1.81,0,0,1,.53,1,14.08,14.08,0,0,1,.09,1.94v1.54Zm-3-3a2.13,2.13,0,0,0-.09-.8.37.37,0,0,0-.37-.18.46.46,0,0,0-.36.15,1.63,1.63,0,0,0-.12.83v4.19a3.07,3.07,0,0,0,.08,1c0,.12.18.18.38.18a.38.38,0,0,0,.4-.21,3.82,3.82,0,0,0,.08-1V67Z" fill="url(#linear-gradient-17)"/><path d="M478.61,64.67v1.14a4.86,4.86,0,0,0-1.05.06c-.11,0-.16.17-.16.37v.23h1.21v1.17h-.68v6H475v-6h-.59V66.47H475a4.08,4.08,0,0,1,.07-1,.8.8,0,0,1,.31-.44,2.05,2.05,0,0,1,.71-.29,8,8,0,0,1,1.43-.1Z" fill="url(#linear-gradient-18)"/><path d="M454,59.27A6.86,6.86,0,0,1,452.1,59a3.36,3.36,0,0,1-1.43-.8A2.12,2.12,0,0,1,450,57a13.08,13.08,0,0,1-.1-2V53.46a14.81,14.81,0,0,1,.09-2,2.15,2.15,0,0,1,.66-1.22,3.48,3.48,0,0,1,1.4-.81A6.77,6.77,0,0,1,454,49.2a6.57,6.57,0,0,1,1.9.25,3.48,3.48,0,0,1,1.43.79,2.3,2.3,0,0,1,.68,1.23,14.93,14.93,0,0,1,.09,2V55a14.71,14.71,0,0,1-.09,2,2.25,2.25,0,0,1-.65,1.23,3.35,3.35,0,0,1-1.4.8A6.49,6.49,0,0,1,454,59.27Zm-.1-2.24H454a.24.24,0,0,0,.12,0,6.43,6.43,0,0,0,0-.84V52.05a3.06,3.06,0,0,0,0-.62H454s-.11,0-.13,0h0a3.65,3.65,0,0,0,0,.59v4.19a3.55,3.55,0,0,0,.05.79Z" fill="#3970b2"/><path d="M459.16,59.08V49.39h3.62a10.49,10.49,0,0,1,2.11.16,2.78,2.78,0,0,1,1.21.5,1.67,1.67,0,0,1,.6.85,4.63,4.63,0,0,1,.15,1.36V53a2.74,2.74,0,0,1-.3,1.44,1.92,1.92,0,0,1-1.1.75,5.87,5.87,0,0,1-1.83.23h-.51v3.62Zm3.95-5.87a.48.48,0,0,0,.26-.06.75.75,0,0,0,.06-.39V52c0-.25-.05-.31-.05-.31a.67.67,0,0,0-.27-.06Z" fill="#3970b2"/><path d="M467.64,59.08V49.39h6.11V51.9h-2.16v1h2v2.42h-2v1.26H474v2.51Z" fill="#3970b2"/><path d="M479.26,59.08l-1.09-2.65v2.65h-3.42V49.39H478l1.24,2.74V49.39h3.41v9.69Z" fill="#3970b2"/><path d="M457.65,51.52a1.84,1.84,0,0,0-.58-1,3,3,0,0,0-1.28-.71,6.23,6.23,0,0,0-1.8-.24,6.3,6.3,0,0,0-1.84.25,3.07,3.07,0,0,0-1.26.72,1.86,1.86,0,0,0-.56,1,13.83,13.83,0,0,0-.09,1.92V55a13.54,13.54,0,0,0,.1,1.94,1.84,1.84,0,0,0,.57,1,3.16,3.16,0,0,0,1.28.71,6.66,6.66,0,0,0,1.8.23,6.09,6.09,0,0,0,1.85-.25A3,3,0,0,0,457.1,58a1.87,1.87,0,0,0,.55-1,14,14,0,0,0,.09-1.92V53.47A14.15,14.15,0,0,0,457.65,51.52Zm-3.15,4.66a3.28,3.28,0,0,1-.09,1c-.06.14-.21.21-.43.21s-.35-.06-.41-.18a3,3,0,0,1-.09-1V52.05a1.45,1.45,0,0,1,.14-.83.5.5,0,0,1,.39-.15.39.39,0,0,1,.39.18,1.91,1.91,0,0,1,.1.8Z" fill="url(#linear-gradient-19)"/><path d="M466.37,51a1.38,1.38,0,0,0-.49-.68,2.55,2.55,0,0,0-1.07-.44,10.42,10.42,0,0,0-2-.15h-3.27v9h3.24V55.11h.87a5.79,5.79,0,0,0,1.72-.21,1.63,1.63,0,0,0,.91-.61,2.48,2.48,0,0,0,.24-1.25v-.78A4.73,4.73,0,0,0,466.37,51Zm-2.59,1.74c0,.34,0,.56-.17.66a.89.89,0,0,1-.62.16h-.24V51.28a1.65,1.65,0,0,1,.83.14c.14.09.2.29.2.6Z" fill="url(#linear-gradient-20)"/><path d="M468,49.74h5.4v1.8h-2.16v1.7h2V55h-2v2h2.38v1.79H468Z" fill="url(#linear-gradient-21)"/><path d="M482.34,49.74v9H479.5l-1.69-4.08v4.08h-2.7v-9h2.7l1.82,4v-4Z" fill="url(#linear-gradient-22)"/><path d="M454.07,79.39V76.05a1.55,1.55,0,0,0-.07-.66h0l-.19,0v4h-3.92V69.7h2.63a23.71,23.71,0,0,1,3.13.13,2.6,2.6,0,0,1,1.51.76,2.68,2.68,0,0,1,.6,1.92,2.29,2.29,0,0,1-.46,1.65,1,1,0,0,1-.33.24l.19.14a1.68,1.68,0,0,1,.51.69,5.76,5.76,0,0,1,.09,1.44v2.72Zm-.26-6.17a1,1,0,0,0,.22,0,1.32,1.32,0,0,0,0-.39v-.5c0-.21,0-.26,0-.26a.63.63,0,0,0-.22,0v1.25Z" fill="#213e5f"/><path d="M463,79.39l-.17-1.61h-.51l-.19,1.61H458l1.76-9.69H465l2,9.69Zm-.35-3.92c0-.31-.09-.65-.14-1-.06.38-.11.71-.15,1Z" fill="#213e5f"/><path d="M470.68,79.58a4.56,4.56,0,0,1-1.65-.31,3,3,0,0,1-1.2-.81,2.17,2.17,0,0,1-.54-1,7.55,7.55,0,0,1-.1-1.45V73.29a6.79,6.79,0,0,1,.21-2A2.4,2.4,0,0,1,468.66,70a5.33,5.33,0,0,1,2.51-.53,6,6,0,0,1,2.48.45A2.73,2.73,0,0,1,475,71.13a4.31,4.31,0,0,1,.32,1.84v.75h-3.92V72.54a3,3,0,0,0-.06-.8h-.11c-.08,0-.11,0-.12,0a4.14,4.14,0,0,0,0,.65v1.45h4.25v5.53h-2.6l-.18-.39a2.59,2.59,0,0,1-.58.34,3.38,3.38,0,0,1-1.32.24Zm.5-2.24h.11a.25.25,0,0,0,.17,0,1.55,1.55,0,0,0,.08-.67v-.71h-.43v.79a1.89,1.89,0,0,0,.06.62Z" fill="#213e5f"/><path d="M476.42,79.39V69.7h6.06v2.51h-2.14v1h2v2.42h-2v1.26h2.35v2.51Z" fill="#213e5f"/><path d="M464.73,70.05l1.83,9h-3.28l-.17-1.61H462L461.77,79h-3.32l1.64-9ZM463,75.83c-.16-1-.33-2.28-.49-3.77-.33,1.72-.53,3-.62,3.77Z" fill="url(#radial-gradient-4)"/><path d="M450.25,70.05h2.27a24.48,24.48,0,0,1,3.07.13,2.27,2.27,0,0,1,1.31.65,2.35,2.35,0,0,1,.51,1.68,2,2,0,0,1-.36,1.4,2.2,2.2,0,0,1-1.41.44,2.76,2.76,0,0,1,1.28.46,1.29,1.29,0,0,1,.41.53,6.34,6.34,0,0,1,.08,1.33V79h-3v-3a1.48,1.48,0,0,0-.16-.89c-.1-.12-.37-.17-.82-.17v4h-3.21v-9Zm3.2,1.54v2a1.89,1.89,0,0,0,.76-.11c.15-.07.22-.31.22-.7v-.5a.63.63,0,0,0-.21-.56A1.56,1.56,0,0,0,453.45,71.59Z" fill="url(#linear-gradient-23)"/><path d="M475,73.36h-3.21v-.82a3,3,0,0,0-.09-1c-.06-.13-.2-.19-.43-.19a.45.45,0,0,0-.41.16,2.1,2.1,0,0,0-.1.86v4.31a2,2,0,0,0,.1.79.45.45,0,0,0,.43.19.53.53,0,0,0,.48-.21,2,2,0,0,0,.12-.85V75.58h-.65V74.21H475V79h-2l-.3-.64a2,2,0,0,1-.83.62,3,3,0,0,1-1.18.21,4,4,0,0,1-1.51-.28,2.74,2.74,0,0,1-1.07-.71,1.86,1.86,0,0,1-.46-.89,7.76,7.76,0,0,1-.09-1.38V73.29a6.48,6.48,0,0,1,.19-1.87,2,2,0,0,1,1.09-1.07,5,5,0,0,1,2.34-.49,5.53,5.53,0,0,1,2.34.43,2.32,2.32,0,0,1,1.21,1A3.89,3.89,0,0,1,475,73v.39Z" fill="url(#radial-gradient-5)"/><path d="M476.77,70.05h5.36v1.8H480v1.7h2v1.71h-2v2h2.36V79h-5.56v-9Z" fill="url(#linear-gradient-24)"/></svg>