<svg xmlns="http://www.w3.org/2000/svg" viewBox="0 0 1000 114"><g id="Layer_2" data-name="Layer 2"><rect x="468.24" y="26.78" width="63.83" height="65.87" fill="#fff"/></g><g id="Layer_1" data-name="Layer 1"><path d="M451.39,110.5a3.46,3.46,0,0,1-2.77-1.37l-.4-.5c-1.13-1.48-1.13-1.81-1.13-10.18V90.93a3.52,3.52,0,0,1,1.07-2.52l.44-.42.42-.44a3.49,3.49,0,0,1,2.53-1.08h4.36c-.22-3.21-.22-8.69-.21-18.51V67c-.21,0-.42,0-.63,0a6.73,6.73,0,0,1-5.41-2.86c-1.11-1.47-1.11-1.47-1.05-14.68.05-12.39.05-12.62.67-14.31a10.5,10.5,0,0,1,5.17-5.76,8,8,0,0,1,4.43-1.11h1.41a3.52,3.52,0,0,1,3.15,2L467,37.68l3.46-7.24a3.5,3.5,0,0,1,3.16-2h1.74a8.17,8.17,0,0,1,4.44,1,10.84,10.84,0,0,1,4.84,5.07c.82,1.77.83,2.31,1,8.94.1,3.59.14,9.11.12,12.37-.07,6.3-.07,7-1.16,8.42a6.75,6.75,0,0,1-5.44,2.86c-.21,0-.41,0-.62,0v1.5c0,9.38-.06,14.74-.28,17.93H480v-.19c0-3.78,0-4.93,1.18-6.4l.35-.45a3.48,3.48,0,0,1,2.78-1.37h4.64c-.14-2.91-.14-9.09-.14-23.64V32.72a10.71,10.71,0,0,1-6.68-7.45c-.25-1.06-.36-2.68-.36-9,0-8.46,0-10,3.2-11.88a6.4,6.4,0,0,1,3.25-.9,6.73,6.73,0,0,1,5.42,2.85c1.07,1.39,1.08,1.86,1.19,9.64,0,1.52,0,2.88.07,4a3.48,3.48,0,0,1,1.88,1.74s3,6.29,3.28,6.89l1-2,2.3-4.87a3.5,3.5,0,0,1,2.29-1.88c0-1,0-2.33,0-3.8,0-7.73,0-9.13,2.66-11.17a6.4,6.4,0,0,1,3.92-1.33,6.63,6.63,0,0,1,5.6,3.13c1.18,1.88,1.13,3.72.9,12.55-.12,5.39-.13,6.09-1,7.88a11.07,11.07,0,0,1-6.09,5.62V54.5c0,14.33,0,20.57-.14,23.56,4.74,0,5.56.06,7,1.35l.45.41A3.51,3.51,0,0,1,520,82.4V94.89h1.5l-.07-19.3-.63,0a6.6,6.6,0,0,1-5.9-3.81l-.41-.85a3.59,3.59,0,0,1-.36-1.58L514.32,57c.15-13.15.16-13.67,2.65-16.49l.09-.1a10.21,10.21,0,0,1,7.42-3.61l1.59-.08h.17a3.48,3.48,0,0,1,3.17,2S530,40,530,40c.23.53,1.27,2.7,2.1,4.45l.21.44c.21.43.41.83.58,1.19l1.06-2.16c1.21-2.49,2.07-4.36,2.21-4.69a3.26,3.26,0,0,0-.22,1.19c0-.38.13-3.64,4.33-3.64l1,0a9.43,9.43,0,0,1,4,1,11.17,11.17,0,0,1,5,5c.88,1.76.93,2.74,1.06,5.65.06,1.75.14,7.22.14,12.26,0,9.38,0,9.74-.72,11.28a6.72,6.72,0,0,1-5.89,3.65c-.2,0-.41,0-.61,0V94.89c4.49,0,5.39.06,6.79,1.18l.45.35a3.46,3.46,0,0,1,1.37,2.77v3.47c0,3.62,0,4.84-1.4,6.31l-.35.39a3.51,3.51,0,0,1-2.59,1.14Z" fill="#333"/><path d="M488.18,7a3.26,3.26,0,0,1,2.6,1.43c.39.51.41.86.51,7.61.06,3.89.14,7.1.16,7.12a4.81,4.81,0,0,0,1.09.06h1l2.29,4.8c1.25,2.62,2.27,4.85,2.27,5a1.33,1.33,0,0,1-.41.55A3.31,3.31,0,0,0,500,39.23a3.35,3.35,0,0,0,2.41-5.62l-.61-.64,2.33-4.87,2.31-4.88,1.21.06c.26,0,.46,0,.62,0,.53,0,.63-.08.69-.35s.12-3.33.12-6.91c0-7.26,0-7.42,1.29-8.39A3,3,0,0,1,512.18,7a3.06,3.06,0,0,1,2.61,1.47c.57.9.61,2.21.4,10.62-.12,5.29-.14,5.4-.65,6.5A7.58,7.58,0,0,1,509,29.8l-.92.14V54.5c0,24.16,0,24.54-.39,25.3a4,4,0,0,1-1.12,1.27l-.74.49h4.89c4.74,0,4.88,0,5.33.43l.45.41v16h5.24c4.85,0,5.19,0,4.72-.31a4.37,4.37,0,0,1-1-1l-.47-.71L525,71.7c-.1-24.52-.1-24.68-.49-24.68s-.39.16-.49,11.45c-.08,8.45-.15,11.56-.33,11.86a4.34,4.34,0,0,1-2.29,1.74,2.92,2.92,0,0,1-.5.05,3.14,3.14,0,0,1-2.75-1.81l-.43-.88.14-11.59c.15-13.4.12-13.11,1.88-15.11a6.68,6.68,0,0,1,5-2.42l1.56-.08.53,1.13c.28.65,1.35,2.9,2.37,5s1.88,3.94,1.88,4a1.38,1.38,0,0,1-.41.53,2.88,2.88,0,0,0-.92,2.64,3,3,0,0,0,2,2.82,3.53,3.53,0,0,0,1.27.25,3.29,3.29,0,0,0,2.37-5.51,3.36,3.36,0,0,1-.58-.76c0-.06,1-2.29,2.34-4.94s2.35-4.93,2.35-5,.3-.14.83-.14l.8,0a6,6,0,0,1,2.7.62,7.73,7.73,0,0,1,3.42,3.39c.53,1.06.57,1.35.71,4.27.06,1.72.13,7.16.13,12.09,0,8.65,0,9-.37,9.74a3.15,3.15,0,0,1-2.74,1.69,2.82,2.82,0,0,1-.86-.14,3.56,3.56,0,0,1-2-2.29c-.14-.49-.22-4.68-.22-11.72,0-9.16,0-11-.27-11.1l-.13,0A.51.51,0,0,0,541,47c-.16.16-.22,6.87-.22,24.7v24.5l-.57.84a4.1,4.1,0,0,1-1,1.1c-.39.21.27.25,4.34.27,4.58,0,4.85,0,5.34.41l.51.39v3.47c0,3.26,0,3.46-.43,3.89l-.41.45H451.39l-.39-.51c-.39-.51-.41-.72-.41-8V90.93l.49-.47.47-.49h9.7l-.7-.58c-1.45-1.2-1.35.84-1.35-26.26,0-13.74-.08-24.45-.18-24.6a.4.4,0,0,0-.35-.18.34.34,0,0,0-.14,0c-.27.12-.31,1.23-.31,11.27,0,12.59,0,12.29-1.43,13.35a2.92,2.92,0,0,1-1.72.58,3.29,3.29,0,0,1-2.6-1.44c-.42-.55-.42-.65-.36-12.59,0-11.64.06-12,.45-13.11a7,7,0,0,1,3.49-3.85,4.63,4.63,0,0,1,2.83-.73h1.41L462.78,37l2.48,5.11-.56.57A3.32,3.32,0,0,0,467,48.29a3.8,3.8,0,0,0,1.55-.45,3.31,3.31,0,0,0,.71-5.3l-.51-.45L471.21,37,473.64,32h1.74a4.89,4.89,0,0,1,2.88.59A7.37,7.37,0,0,1,481.49,36c.49,1.06.51,1.14.64,7.54.1,3.54.14,9.08.12,12.27-.06,5.54-.08,5.83-.47,6.36a3.31,3.31,0,0,1-2.63,1.44,2.91,2.91,0,0,1-1.62-.5c-1.46-1-1.39-.41-1.5-13.21-.1-11.29-.1-11.45-.49-11.45s-.39.16-.49,24.66c-.12,27.41,0,25.28-1.41,26.4L473,90h10.47V86.28c0-3.43,0-3.72.41-4.21l.4-.51h10.25l-.72-.51a4.24,4.24,0,0,1-1.14-1.35c-.39-.8-.39-1.13-.39-25.28V29.94l-.9-.14a7.25,7.25,0,0,1-5.87-5.32c-.2-.85-.27-2.94-.27-8.18,0-8,0-8,1.48-8.87A2.94,2.94,0,0,1,488.18,7m9.08,74.54h5.83l-.7-.55a4.37,4.37,0,0,1-1.12-1.33c-.37-.76-.39-1.13-.39-14.32V51.81h-1.37v13.6c0,13.23,0,13.64-.39,14.39A4,4,0,0,1,498,81.07l-.74.49M464.38,90h5.48l-.7-.58c-1.41-1.16-1.35-.37-1.35-15.54V60.23h-1.37v13.6c0,13.17,0,13.64-.39,14.36a4.61,4.61,0,0,1-1,1.28l-.65.5m71.24,8.42L535,98a3.52,3.52,0,0,1-1-1.23c-.41-.81-.41-1.1-.41-14.37V68.84h-1.37V96.1l-.49.84a3.54,3.54,0,0,1-1,1.14c-.49.27-.32.29,2.21.29l2.74,0M488.18,0a10,10,0,0,0-5,1.37c-4.94,2.93-4.94,6.19-4.94,14.91a67.22,67.22,0,0,0,.29,8.92,14.58,14.58,0,0,0-3.14-.27h-1.74a7,7,0,0,0-6.31,4l-.34.69-.4-.83a7,7,0,0,0-6.3-3.94h-1.41a11.29,11.29,0,0,0-6,1.51A13.94,13.94,0,0,0,446,34c-.84,2.28-.84,2.53-.89,15.53,0,6,0,9.08,0,10.78a9.44,9.44,0,0,0,1.75,6,10.39,10.39,0,0,0,5.33,3.81c0,6.1,0,10.08,0,12.83h-.69a7,7,0,0,0-5.05,2.16l-.37.38-.39.37a7,7,0,0,0-2.15,5.05v7.52c0,8.76,0,9.89,1.86,12.31l.39.51a7,7,0,0,0,5.55,2.73h97.18a7,7,0,0,0,5.17-2.28l.37-.41c2.3-2.45,2.3-4.8,2.3-8.65V99.19a7,7,0,0,0-2.73-5.55l-.47-.36a8.33,8.33,0,0,0-5.41-1.83V78.67a10.25,10.25,0,0,0,6.06-5,1.42,1.42,0,0,0,.08-.18c1.11-2.26,1.11-2.86,1.08-12.83,0-5.06-.08-10.59-.14-12.31v-.09c-.15-3.09-.22-4.64-1.44-7.07a14.71,14.71,0,0,0-6.59-6.53,12.79,12.79,0,0,0-5.42-1.34c-.43,0-.82,0-1.17,0-4.22,0-6.46,2.31-7.36,4.67v0l-.31-.66a7,7,0,0,0-6.35-4h-.35l-1.56.08a13.55,13.55,0,0,0-9.21,4.06V34.9a14.65,14.65,0,0,0,5.77-6.33c1.14-2.45,1.17-3.63,1.29-9.28.25-9.43.3-11.7-1.44-14.49A10.17,10.17,0,0,0,512.18,0a9.91,9.91,0,0,0-6,2c-4,3.11-4,6.07-4,14v1.71a7,7,0,0,0-2,2.48l-.11.24-.12-.24a7,7,0,0,0-1.57-2.13c0-.67,0-1.39,0-2.14-.12-8.1-.14-9.39-1.92-11.73A10.2,10.2,0,0,0,488.18,0ZM482,70.15a10.12,10.12,0,0,0,3.26-1.68c0,2.61,0,4.58,0,6.09h-1a6.93,6.93,0,0,0-2.27.38c0-1.44,0-3,0-4.79Z" fill="#fff"/><path d="M492.47,13.24c-1.12,0-3.7-.47-3.7-4.87s2.58-4.87,3.7-4.87,3.69.47,3.69,4.87S493.58,13.24,492.47,13.24Z" fill="#333"/><path d="M492.47,7c.11,0,.19.59.19,1.37s-.08,1.37-.19,1.37-.2-.59-.2-1.37.08-1.37.2-1.37m0-7c-.3,0-7.2.1-7.2,8.37s6.9,8.37,7.2,8.37,7.19-.1,7.19-8.37S492.76,0,492.47,0Z" fill="#fff"/><path d="M500.21,25a9.51,9.51,0,0,1-7.23-3.3A9.58,9.58,0,0,1,493.88,8a9.94,9.94,0,0,1,2.86-1.81,8.37,8.37,0,0,1,3.2-.53h.66a8.69,8.69,0,0,1,6.55,2.79,9.39,9.39,0,0,1,2.53,9.06A9.72,9.72,0,0,1,500.22,25Z" fill="#333"/><path d="M499.94,9.2h.55A5.29,5.29,0,0,1,504.68,11a5.93,5.93,0,0,1,1.6,5.74,6.22,6.22,0,0,1-6.07,4.78,6.18,6.18,0,0,1-4-10.83A7.1,7.1,0,0,1,498,9.5a5.15,5.15,0,0,1,2-.3m0-7a12,12,0,0,0-4.49.77,13.74,13.74,0,0,0-3.94,2.49,13.18,13.18,0,0,0,8.7,23,13.21,13.21,0,0,0,12.87-10.13,13,13,0,0,0-3.42-12.31,12.26,12.26,0,0,0-8.89-3.83h-.83Z" fill="#fff"/><path d="M467.14,33.46a9.58,9.58,0,0,1-9.63-9,9,9,0,0,1,1.6-6.08,9.48,9.48,0,0,1,7.95-4.32,10.08,10.08,0,0,1,8.62,5,7.59,7.59,0,0,1,1,4.61,8.21,8.21,0,0,1-.87,4.47,9.74,9.74,0,0,1-8.68,5.26Z" fill="#333"/><path d="M467.06,17.59a6.57,6.57,0,0,1,5.6,3.3c.47.81.53,1.08.53,2.84s-.06,2.08-.45,2.8a6.26,6.26,0,0,1-5.6,3.43A6,6,0,0,1,461,24.24a5.42,5.42,0,0,1,1-3.85,6.16,6.16,0,0,1,3.11-2.47,5.75,5.75,0,0,1,1.95-.33m0-7a12.75,12.75,0,0,0-4.28.73l-.06,0a13.11,13.11,0,0,0-6.52,5.12A12.39,12.39,0,0,0,454,24.67v.07A13,13,0,0,0,467.14,37a13.2,13.2,0,0,0,11.77-7.13,11.55,11.55,0,0,0,1.28-6.1,10.86,10.86,0,0,0-1.49-6.37,13.61,13.61,0,0,0-11.64-6.77Z" fill="#fff"/><path d="M500.1,35.94c-2.34,0-2.75-.86-5.41-6.46-.71-1.5-1.35-2.84-1.76-3.68l-.4-.85h0a1.59,1.59,0,0,1-.12-.27h0a3.49,3.49,0,0,1,.27-3.14c1.1-1.8,2.17-1.8,7.3-1.8,1.24,0,2.37,0,3.2,0,1.17,0,4.72.1,4.72,3.57,0,.9,0,.93-2.19,5.44-1,2.16-1.85,3.92-2,4.22C502.85,35.42,501.26,35.94,500.1,35.94Z" fill="#333"/><path d="M500,23.24c2.43,0,4.42,0,4.42.1s-.82,1.82-1.84,3.91-1.95,4.13-2.09,4.51a1.67,1.67,0,0,1-.37.68c-.08,0-1.08-2-2.25-4.46s-2.16-4.5-2.19-4.6a31.84,31.84,0,0,1,4.32-.14m0-7c-1.22,0-2.38,0-3.25,0-1.75.06-5,.15-7,3.41a7.06,7.06,0,0,0-.54,6.3c.1.25.13.32.62,1.33.4.84,1,2.17,1.74,3.65.61,1.29,1.18,2.46,1.61,3.31.84,1.67,2.6,5.16,7,5.16a7.32,7.32,0,0,0,6.9-5.16c.17-.41.93-2.05,1.86-4,2.3-4.73,2.54-5.23,2.54-7a7,7,0,0,0-7-7l-1.17,0c-.86,0-2,0-3.27,0Z" fill="#fff"/><path d="M532.89,41.94a9.44,9.44,0,0,1-4.24-.88,10.48,10.48,0,0,1-4.32-4.23,7.53,7.53,0,0,1-1-4.49,7.64,7.64,0,0,1,1-4.39,10,10,0,0,1,6.93-5.2,8.83,8.83,0,0,1,1.7-.17,9.75,9.75,0,0,1,6,2.1,9.61,9.61,0,0,1,3.69,8.46,10,10,0,0,1-5.43,7.92A9.56,9.56,0,0,1,532.89,41.94Z" fill="#333"/><path d="M532.89,26.08a6.18,6.18,0,1,1,0,12.36,6.19,6.19,0,0,1-2.62-.48,7,7,0,0,1-2.87-2.82,4.2,4.2,0,0,1-.59-2.8,4.41,4.41,0,0,1,.53-2.74,6.57,6.57,0,0,1,4.54-3.42,4.81,4.81,0,0,1,1-.1m0-7a12.16,12.16,0,0,0-2.35.23,13.53,13.53,0,0,0-9.37,7,11.15,11.15,0,0,0-1.36,6.05,10.84,10.84,0,0,0,1.49,6.23A13.84,13.84,0,0,0,527,44.16a12.88,12.88,0,0,0,5.86,1.28,13.1,13.1,0,0,0,5.84-1.26,13.53,13.53,0,0,0,7.33-10.72,13.1,13.1,0,0,0-5-11.53,13.24,13.24,0,0,0-8.15-2.85Z" fill="#fff"/><path d="M467,44.94c-2.31,0-3.19-1.84-3.89-3.33-.35-.75-1.35-2.87-2.26-4.75-2-4.11-2-4.16-2-5.05,0-3.48,3.51-3.52,4.84-3.54H467c5.64,0,6.36,0,7.49,1.56A3.5,3.5,0,0,1,475,33c0,.09-.06.18-.1.27-.39.9-2.34,4.9-2.56,5.35-.55,1.14-1.1,2.25-1.51,3.07C470,43.42,469.2,44.94,467,44.94Z" fill="#333"/><path d="M467,31.76c2.58,0,4.67,0,4.65.11-.47,1.1-4.6,9.57-4.67,9.57a6.11,6.11,0,0,1-.73-1.33c-.33-.72-1.35-2.88-2.27-4.77s-1.68-3.49-1.68-3.53,2.11,0,4.7,0m0-7h-3.4l-1.15,0a7,7,0,0,0-7.15,7c0,1.76.32,2.41,2.39,6.6.89,1.84,1.88,3.93,2.2,4.62l0,.08c.75,1.59,2.52,5.33,7.05,5.33a7,7,0,0,0,6.41-4.14c.14-.26.32-.62.55-1.07.41-.83,1-1.94,1.52-3.09s2.23-4.57,2.63-5.51c.07-.18.14-.36.2-.54a7,7,0,0,0-1-6.31c-2.18-3-4.57-3-10.33-3Z" fill="#fff"/><path d="M533.1,53.37c-2.51,0-3.26-1.58-5.75-6.8s-2.57-5.35-2.57-6.24c0-3.49,3.62-3.53,4.81-3.55h3.29c1.29,0,2.46,0,3.31,0,1.19,0,4.79.09,4.79,3.57,0,1,0,1-3.66,8.51-.37.77-.62,1.33-.74,1.61a2.56,2.56,0,0,1-.12.46,3.62,3.62,0,0,1-3.36,2.42Z" fill="#333"/><path d="M532.88,40.27c2.52,0,4.6,0,4.6.1s-.81,1.82-3.31,7a17.43,17.43,0,0,0-1,2.31c0,.13,0,.2-.07.2-.22,0-1-1.38-2.59-4.8-1.23-2.56-2.23-4.69-2.23-4.73s2.07-.06,4.6-.06m0-7h-3.33l-1.13,0a7,7,0,0,0-7.14,7c0,1.69,0,1.69,2.92,7.77.89,1.86,1.5,3.09,2,4,.71,1.31,2.59,4.79,6.93,4.79a7,7,0,0,0,6.83-5.3c.12-.26.3-.67.54-1.16,4-8.26,4-8.26,4-10a7,7,0,0,0-7-7l-1.2,0c-.9,0-2.1,0-3.39,0Z" fill="#fff"/><path d="M486.71,7.43c-1.48.88-1.48.9-1.48,8.87,0,5.24.07,7.33.27,8.18a7.25,7.25,0,0,0,5.87,5.32l.9.14V54.42c0,24.15,0,24.48.39,25.28a4.24,4.24,0,0,0,1.14,1.35l.72.51H484.27l-.4.51c-.39.49-.41.78-.41,4.21V90H473l.65-.5c1.41-1.12,1.29,1,1.41-26.4.1-24.5.1-24.66.49-24.66s.39.16.49,11.45c.11,12.8,0,12.21,1.5,13.21a3.06,3.06,0,0,0,4.25-.94c.39-.53.41-.82.47-6.36,0-3.19,0-8.73-.12-12.27C482,37.1,482,37,481.49,36a7.37,7.37,0,0,0-3.23-3.42,4.89,4.89,0,0,0-2.88-.59h-1.74L471.21,37l-2.42,5.07.51.45a3.31,3.31,0,0,1-.71,5.3,3.8,3.8,0,0,1-1.54.45,3.32,3.32,0,0,1-2.35-5.65l.56-.57L462.78,37l-2.49-5.11h-1.41a4.63,4.63,0,0,0-2.83.73,7,7,0,0,0-3.49,3.85c-.39,1.06-.41,1.47-.45,13.11-.06,11.94-.06,12,.36,12.59a3,3,0,0,0,4.32.86c1.47-1.06,1.43-.76,1.43-13.35,0-10,0-11.15.31-11.27a.42.42,0,0,1,.49.16c.1.15.18,10.86.18,24.6,0,27.1-.1,25.06,1.35,26.26l.7.58h-9.7l-.47.49-.49.47v7.52c0,7.32,0,7.53.41,8l.39.51h97.18l.41-.45c.41-.43.43-.63.43-3.89V99.19l-.51-.39c-.49-.39-.76-.41-5.34-.41-4.07,0-4.73-.06-4.34-.27a4.1,4.1,0,0,0,1-1.1l.57-.84V71.68c0-17.83.06-24.54.22-24.7a.51.51,0,0,1,.49-.12c.23.08.27,1.94.27,11.1,0,7,.08,11.23.22,11.72a3.56,3.56,0,0,0,2,2.29,3.06,3.06,0,0,0,3.6-1.55c.37-.76.39-1.09.37-9.74,0-4.93-.07-10.37-.13-12.09-.14-2.92-.18-3.21-.71-4.27a7.73,7.73,0,0,0-3.42-3.39,6,6,0,0,0-2.7-.62c-1-.06-1.63,0-1.63.11s-1,2.37-2.35,5-2.34,4.88-2.34,4.94a3.36,3.36,0,0,0,.58.76,3.28,3.28,0,0,1-3.64,5.26,3,3,0,0,1-2-2.82,2.88,2.88,0,0,1,.92-2.64,1.38,1.38,0,0,0,.41-.53c0-.09-.84-1.91-1.88-4s-2.09-4.38-2.37-5l-.53-1.13-1.56.08a6.68,6.68,0,0,0-5,2.42c-1.76,2-1.73,1.71-1.88,15.11l-.14,11.59.43.88a3.07,3.07,0,0,0,3.25,1.76,4.34,4.34,0,0,0,2.29-1.74c.18-.3.25-3.41.33-11.86.1-11.29.1-11.45.49-11.45s.39.16.49,24.68l.1,24.65.47.71a4.37,4.37,0,0,0,1,1c.47.27.13.29-4.72.31h-5.24v-16l-.45-.41c-.45-.41-.59-.43-5.33-.43h-4.89l.74-.49a4,4,0,0,0,1.12-1.27c.39-.76.39-1.14.39-25.3V29.94l.92-.14a7.58,7.58,0,0,0,5.5-4.17c.51-1.1.53-1.21.65-6.5.21-8.41.17-9.72-.4-10.62a3,3,0,0,0-4.4-.86c-1.27,1-1.29,1.13-1.29,8.39,0,3.58-.06,6.69-.12,6.91s-.23.39-1.31.33l-1.21-.06-2.31,4.88L501.82,33l.61.64a3.33,3.33,0,0,1-4.23,5.07,3.42,3.42,0,0,1-.47-5.14,1.33,1.33,0,0,0,.41-.55c0-.1-1-2.33-2.27-5l-2.29-4.8h-1a4.81,4.81,0,0,1-1.09-.06s-.1-3.23-.16-7.12c-.1-6.75-.12-7.1-.51-7.61A3.05,3.05,0,0,0,486.71,7.43Zm14.17,57.93c0,13.19,0,13.56.39,14.32A4.37,4.37,0,0,0,502.39,81l.7.55h-5.83l.74-.49a4,4,0,0,0,1.12-1.27c.37-.75.39-1.16.39-14.39V51.81h1.37Zm-33.07,8.49c0,15.17-.06,14.38,1.35,15.54l.7.58h-5.48l.65-.5a4.61,4.61,0,0,0,1-1.28c.37-.72.39-1.19.39-14.36V60.23h1.37Zm65.75,8.53c0,13.27,0,13.56.41,14.37A3.52,3.52,0,0,0,535,98l.63.41-2.74,0c-2.53,0-2.7,0-2.21-.29a3.54,3.54,0,0,0,1-1.14l.49-.84V68.84h1.37Z" fill="#333"/><path d="M492.27,8.37c0,.78.08,1.37.2,1.37s.19-.59.19-1.37S492.58,7,492.47,7,492.27,7.59,492.27,8.37Z" fill="#333"/><path d="M498,9.5a7.1,7.1,0,0,0-1.76,1.16,6.08,6.08,0,0,0-.58,8.73,6.18,6.18,0,0,0,10.66-2.68,5.93,5.93,0,0,0-1.6-5.74,5.29,5.29,0,0,0-4.19-1.76A6,6,0,0,0,498,9.5Z" fill="#333"/><path d="M465.11,17.92A6.16,6.16,0,0,0,462,20.39a5.42,5.42,0,0,0-1,3.85c.45,6.28,8.75,7.89,11.74,2.29.39-.72.45-1.13.45-2.8s-.06-2-.53-2.84A6.39,6.39,0,0,0,465.11,17.92Z" fill="#333"/><path d="M495.66,23.38c0,.1,1,2.15,2.19,4.6s2.17,4.46,2.25,4.46a1.67,1.67,0,0,0,.37-.68c.14-.38,1.08-2.41,2.09-4.51s1.84-3.85,1.84-3.91-2-.1-4.42-.1A31.84,31.84,0,0,0,495.66,23.38Z" fill="#333"/><path d="M531.88,26.18a6.57,6.57,0,0,0-4.54,3.42,4.41,4.41,0,0,0-.53,2.74,4.2,4.2,0,0,0,.59,2.8A7,7,0,0,0,530.27,38a7.42,7.42,0,0,0,5.25,0,6.21,6.21,0,0,0,1.19-10.53A6.08,6.08,0,0,0,531.88,26.18Z" fill="#333"/><path d="M462.33,31.81s.74,1.63,1.68,3.53,1.94,4,2.27,4.77a6.11,6.11,0,0,0,.73,1.33c.07,0,4.2-8.47,4.67-9.57,0-.06-2.07-.11-4.65-.11S462.33,31.77,462.33,31.81Z" fill="#333"/><path d="M528.28,40.33s1,2.17,2.23,4.73c2,4.19,2.66,5.33,2.66,4.6a17.43,17.43,0,0,1,1-2.31c2.5-5.16,3.31-6.89,3.31-7s-2.08-.1-4.6-.1S528.28,40.29,528.28,40.33Z" fill="#333"/></g></svg>