<svg xmlns="http://www.w3.org/2000/svg" viewBox="0 0 162.596 89.911"><path d="M16.115 88.641L3.807 88.11C1.912 88.151 0 85.938 0 84.459L.016 2.818A2.696 2.696 0 0 1 2.704.13h94.705a2.695 2.695 0 0 1 2.688 2.688l.016 81.641c0 1.479-1.911 3.692-3.808 3.651l-12.308.53-13.818.596-20.122.175-20.123-.175-13.819-.595z" fill="#595959"/><path d="M50.06 89.911l-20.13-.175-13.836-.596c-3.057 0-3.655-4.387-3.943-6.495L12.146.135h1v82.443c.353 2.554 1.014 5.563 2.969 5.563l13.84.596 20.104.175 20.114-.175 13.8-.596c1.978 0 2.639-3.009 2.997-5.63L86.966.135h1v82.443c-.292 2.176-.891 6.563-3.97 6.563l-2.138.093-11.659.503-20.139.174zM0 50.381h12.148v1H0zM87.966 50.381h12.146v1H87.966z" fill="#4d4d4d"/><circle cx="2.328" cy="3.1" r=".385" fill="#666"/><path d="M2.328 3.535a.435.435 0 1 1 0-.87.435.435 0 0 1 0 .87zm0-.771a.335.335 0 1 0 0 .67.335.335 0 0 0 0-.67z" fill="#3d3d3d"/><path d="M6.752 3.199a.385.385 0 1 1-.385-.385c.213 0 .385.172.385.385z" fill="#666"/><path d="M6.367 3.634a.435.435 0 1 1 0-.87.435.435 0 0 1 0 .87zm0-.77a.335.335 0 1 0 0 .67.335.335 0 0 0 0-.67z" fill="#3d3d3d"/><path d="M10.791 3.299a.385.385 0 1 1-.77 0 .385.385 0 0 1 .77 0z" fill="#666"/><path d="M10.405 3.734a.435.435 0 1 1 0-.87.435.435 0 0 1 0 .87zm0-.771a.335.335 0 1 0 0 .67.335.335 0 0 0 0-.67z" fill="#3d3d3d"/><circle cx="2.328" cy="9.719" r=".385" fill="#666"/><path d="M2.328 10.154a.435.435 0 1 1 0-.87.435.435 0 0 1 0 .87zm0-.771a.335.335 0 1 0 0 .67.335.335 0 0 0 0-.67z" fill="#3d3d3d"/><path d="M6.752 9.818a.385.385 0 1 1-.385-.385c.213 0 .385.172.385.385z" fill="#666"/><path d="M6.367 10.253a.435.435 0 1 1 0-.87.435.435 0 0 1 0 .87zm0-.77a.335.335 0 1 0 0 .67.335.335 0 0 0 0-.67z" fill="#3d3d3d"/><path d="M10.791 9.918a.385.385 0 1 1-.77 0 .385.385 0 0 1 .77 0z" fill="#666"/><path d="M10.405 10.353a.435.435 0 1 1 0-.87.435.435 0 0 1 0 .87zm0-.77a.335.335 0 1 0 0 .67.335.335 0 0 0 0-.67z" fill="#3d3d3d"/><path d="M2.713 16.338a.385.385 0 1 1-.77 0 .385.385 0 1 1 .77 0z" fill="#666"/><path d="M2.328 16.773a.435.435 0 1 1 0-.87.435.435 0 0 1 0 .87zm0-.771a.335.335 0 1 0 0 .67.335.335 0 0 0 0-.67z" fill="#3d3d3d"/><path d="M6.752 16.438a.385.385 0 1 1-.385-.386c.213 0 .385.173.385.386z" fill="#666"/><path d="M6.367 16.873a.435.435 0 1 1 0-.87.435.435 0 0 1 0 .87zm0-.771a.335.335 0 1 0 0 .67.335.335 0 0 0 0-.67z" fill="#3d3d3d"/><path d="M10.791 16.537a.385.385 0 1 1-.77 0 .385.385 0 0 1 .77 0z" fill="#666"/><path d="M10.405 16.972a.435.435 0 1 1 0-.87.435.435 0 0 1 0 .87zm0-.77a.335.335 0 1 0 0 .67.335.335 0 0 0 0-.67z" fill="#3d3d3d"/><path d="M2.713 22.957a.385.385 0 1 1-.77 0 .385.385 0 1 1 .77 0z" fill="#666"/><path d="M2.328 23.392a.435.435 0 1 1 0-.87.435.435 0 0 1 0 .87zm0-.77a.335.335 0 1 0 0 .67.335.335 0 0 0 0-.67z" fill="#3d3d3d"/><path d="M6.752 23.057a.385.385 0 1 1-.385-.386c.213 0 .385.173.385.386z" fill="#666"/><path d="M6.367 23.492a.435.435 0 1 1 0-.87.435.435 0 0 1 0 .87zm0-.771a.335.335 0 1 0 0 .67.335.335 0 0 0 0-.67z" fill="#3d3d3d"/><circle cx="2.328" cy="29.625" r=".385" fill="#666"/><path d="M2.328 30.061a.435.435 0 1 1 0-.87.435.435 0 0 1 0 .87zm0-.771a.335.335 0 1 0 0 .67.335.335 0 0 0 0-.67z" fill="#3d3d3d"/><circle cx="97.783" cy="3.098" r=".385" fill="#666"/><path d="M97.348 3.098a.436.436 0 1 1 .871.001.436.436 0 0 1-.871-.001zm.099 0a.335.335 0 1 0 .67 0 .335.335 0 0 0-.67 0z" fill="#3d3d3d"/><path d="M93.359 3.197a.385.385 0 1 0 .77 0 .385.385 0 0 0-.77 0z" fill="#666"/><path d="M93.31 3.197a.436.436 0 1 1 .871.001.436.436 0 0 1-.871-.001zm.099 0a.335.335 0 1 0 .67 0 .335.335 0 0 0-.67 0z" fill="#3d3d3d"/><path d="M89.321 3.297a.385.385 0 1 0 .385-.385.385.385 0 0 0-.385.385z" fill="#666"/><path d="M89.271 3.297a.435.435 0 1 1 .87 0 .435.435 0 0 1-.87 0zm.1 0a.335.335 0 1 0 .67 0 .335.335 0 0 0-.67 0z" fill="#3d3d3d"/><path d="M97.397 9.717a.385.385 0 1 0 .77 0 .385.385 0 0 0-.77 0z" fill="#666"/><path d="M97.348 9.717a.436.436 0 1 1 .871.001.436.436 0 0 1-.871-.001zm.099 0a.335.335 0 1 0 .67 0 .335.335 0 0 0-.67 0z" fill="#3d3d3d"/><path d="M93.359 9.816a.385.385 0 1 0 .77 0 .385.385 0 0 0-.77 0z" fill="#666"/><path d="M93.31 9.816a.436.436 0 1 1 .871.001.436.436 0 0 1-.871-.001zm.099 0a.335.335 0 1 0 .67 0 .335.335 0 0 0-.67 0z" fill="#3d3d3d"/><path d="M89.321 9.916a.385.385 0 1 0 .385-.386.385.385 0 0 0-.385.386z" fill="#666"/><path d="M89.271 9.916a.435.435 0 1 1 .87 0 .435.435 0 0 1-.87 0zm.1 0a.335.335 0 1 0 .67 0 .335.335 0 0 0-.67 0z" fill="#3d3d3d"/><path d="M97.397 16.336a.385.385 0 1 0 .77 0 .385.385 0 0 0-.77 0z" fill="#666"/><path d="M97.348 16.336a.436.436 0 1 1 .871.001.436.436 0 0 1-.871-.001zm.099 0a.335.335 0 1 0 .67 0 .335.335 0 0 0-.67 0z" fill="#3d3d3d"/><path d="M93.359 16.436a.385.385 0 1 0 .77 0 .385.385 0 0 0-.77 0z" fill="#666"/><path d="M93.31 16.436a.436.436 0 1 1 .871.001.436.436 0 0 1-.871-.001zm.099 0a.335.335 0 1 0 .67 0 .335.335 0 0 0-.67 0z" fill="#3d3d3d"/><path d="M89.321 16.535a.385.385 0 1 0 .385-.386.385.385 0 0 0-.385.386z" fill="#666"/><path d="M89.271 16.535a.435.435 0 1 1 .87 0 .435.435 0 0 1-.87 0zm.1 0a.335.335 0 1 0 .67 0 .335.335 0 0 0-.67 0z" fill="#3d3d3d"/><path d="M97.397 22.955a.386.386 0 1 0 .772 0 .386.386 0 0 0-.772 0z" fill="#666"/><path d="M97.348 22.955a.436.436 0 1 1 .871.001.436.436 0 0 1-.871-.001zm.099 0a.335.335 0 1 0 .67 0 .335.335 0 0 0-.67 0z" fill="#3d3d3d"/><path d="M93.359 23.054a.386.386 0 1 0 .772 0 .386.386 0 0 0-.772 0z" fill="#666"/><path d="M93.31 23.054a.436.436 0 1 1 .871.001.436.436 0 0 1-.871-.001zm.099 0a.335.335 0 1 0 .67 0 .335.335 0 0 0-.67 0z" fill="#3d3d3d"/><circle cx="97.783" cy="29.624" r=".385" fill="#666"/><path d="M97.348 29.624a.436.436 0 1 1 .871.001.436.436 0 0 1-.871-.001zm.099 0a.335.335 0 1 0 .67 0 .335.335 0 0 0-.67 0z" fill="#3d3d3d"/><path d="M50.019 78.932h-3.467c-1.13 0-2.235-.104-3.285-.309-11.244-2.198-22.25-5.763-22.604-22.719l-.956-13.82c-.572-16.925 2.338-18.547 7.984-19.355.523-.075 9.982-2.083 19.387-2.083.982 0 1.934-.045 2.94-.036 1.012-.005 2.032.036 3.015.036 9.404 0 18.864 2.008 19.388 2.083 5.646.808 8.556 2.43 7.984 19.355l-.956 13.82c-.354 16.956-11.361 20.521-22.604 22.719-1.05.205-2.155.309-3.285.309h-3.467M29.547 24.001c-5.839 1.067-9.334-.51-8.709 18.004l.958 13.875c.32 15.345 9.164 19.181 21.688 21.629 1.01.197 2.039.288 3.067.288h6.934a16.02 16.02 0 0 0 3.067-.288c12.524-2.448 21.367-6.284 21.688-21.629l.958-13.875c.625-18.514-2.87-16.937-8.709-18.004 0 0-9.759-1.11-20.472-1.354-10.074-.046-20.47 1.354-20.47 1.354z" fill="#424142"/><path d="M50.054 81.631c-15.45 0-26.631-4.254-36.91-8.675v-.817c10.208 4.391 21.603 8.742 36.91 8.742 15.307 0 26.706-4.352 36.914-8.742v.816c-10.28 4.421-21.465 8.676-36.914 8.676z" fill="#4d4d4d"/><path d="M13.143 72.961c10.279 4.421 21.46 8.675 36.911 8.675 15.449 0 26.634-4.256 36.914-8.677v9.553c-.358 2.621-1.02 5.63-2.997 5.63l-13.8.596-20.114.175-20.104-.175-13.84-.596c-1.955 0-2.616-3.009-2.969-5.563v-9.618z" fill="#131316"/><path fill="#7cba1c" d="M34.534 86.631h-2.247l-.064-.064v-.914l.064-.064h2.247l.064.064v.914z"/><path fill="#f98b38" d="M67.824 86.631h-2.247l-.064-.064v-.914l.064-.064h2.247l.064.064v.914z"/><g fill="#464749"><path d="M50.579 36.045a.327.327 0 0 1-.327-.327V34.68c0-.18.146-.326.326-.326h1.074v-.327h-1.077a.653.653 0 0 0-.653.653v1.038c0 .361.295.653.656.653l1.074.001v-1.538h-.923v.326h.597v.885h-.747M46.078 36.374l1.04-.001a.77.77 0 0 0 0-1.54l-.27.001-.039-.039.039-.039h1.037v-.325h-1.038a.363.363 0 1 0 0 .727l.271.003a.44.44 0 1 1 0 .881h-1.04v.332"/><path d="M46.078 35.967h1.04a.364.364 0 1 0 0-.727l-.271-.003a.44.44 0 1 1 0-.881h1.038v-.328h-1.037a.77.77 0 0 0 0 1.54h.269l.038.038-.038.037-1.038.001-.001.323M48.693 36.046a.328.328 0 0 1-.328-.328v-1.041c0-.177.147-.323.328-.323h1.109v-.327h-1.109a.653.653 0 0 0-.653.653v1.038c0 .361.292.653.653.653l1.104.001v-.327l-1.104.001"/><path d="M48.444 34.679c0-.138.111-.249.249-.249h1.109v.326h-.956l-.077.077h.797v.326h-1.122v-.48M48.693 35.967a.249.249 0 0 1-.249-.249v-.48h1.122v.327h-.797l.077.076h.951v.326h-1.104M50.329 35.718a.25.25 0 0 0 .249.251h.671v-.732h-.519v.328h.192l.001.076h-.192l-.077-.076-.001-.731.077-.077h.922l-.001-.326-1.074.001a.248.248 0 0 0-.249.249v1.037M52.662 34.425l.1-.072.101.073.521 1.544h-.763v-.363h.256l-.116-.343-.373 1.107h-.386l.66-1.946"/><path d="M53.49 36.045h-.868v.326h1.32l-.687-2.038a.509.509 0 0 0-.494-.344.508.508 0 0 0-.493.344l-.693 2.038h.346l.672-1.981.168-.111.167.111.562 1.655"/></g><path d="M50.035 82.798h7.219v1.535c0 1.149-.891 1.774-2.04 1.774l-5.179.315h.04l-5.177-.315c-1.149 0-2.041-.625-2.041-1.774v-1.535h7.218" fill="#005ad1"/><path d="M50.075 86.673v-.002l-.015.002-.005-.001-.005.001v-.001l-5.168-.314h-.001c-1.355 0-2.275-.813-2.275-2.024v-1.785h14.897v1.785c0 1.211-.921 2.024-2.291 2.024l-5.137.315zm-6.968-3.625v1.285c0 1.124.925 1.524 1.791 1.524l5.158.313 5.142-.313c.882 0 1.807-.4 1.807-1.524v-1.285H43.107z" fill="#2b2629"/><g fill="#034572"><path d="M48.85 84.422c0 .395-.188.713-.611.713-.408 0-.593-.317-.593-.715 0-.346.186-.696.611-.696.403 0 .593.319.593.698zm-.953-.002c0 .29.117.52.353.52.254 0 .352-.218.352-.518 0-.273-.098-.503-.354-.503-.246 0-.351.223-.351.501zM49.106 83.742h.49c.257 0 .471.133.471.4 0 .279-.203.422-.494.422h-.224v.551h-.243v-1.373zm.243.629h.21c.159 0 .262-.058.262-.224 0-.147-.104-.211-.255-.211h-.216v.435zM51.123 84.5h-.603v.415h.666l-.031.2h-.873v-1.373h.867v.202h-.629v.353h.603zM51.395 85.115v-1.373h.313c.455.884.524 1.018.546 1.082h.004a8.231 8.231 0 0 1-.016-.617v-.465h.224v1.373h-.297a39.284 39.284 0 0 1-.56-1.122h-.002c.011.175.011.41.011.656v.466h-.223z"/></g><path d="M22.648 85.709a1.938 1.938 0 0 0 3.05-2.234c.229-.249.432-.5.602-.75.864-1.268.606-2.042.375-2.392-.205-.311-.638-.68-1.537-.68-1.07 0-2.52.536-3.878 1.435-2.045 1.351-3.67 3.394-2.819 4.684.205.311.638.68 1.536.68.755-.001 1.701-.268 2.671-.743z" fill="#2b2629"/><path d="M19.977 86.576c-.954 0-1.419-.4-1.641-.735-.897-1.359.757-3.473 2.854-4.857 1.378-.911 2.854-1.455 3.947-1.455.955 0 1.419.4 1.641.735.248.376.528 1.204-.376 2.531a6.791 6.791 0 0 1-.56.705 2.065 2.065 0 0 1-3.214 2.357c-.967.464-1.906.719-2.651.719zm5.161-6.798c-1.046 0-2.47.528-3.81 1.414-1.994 1.316-3.59 3.288-2.783 4.51.188.285.588.624 1.432.624.726 0 1.655-.259 2.616-.729l.075-.036.063.055a1.812 1.812 0 0 0 3.003-1.368c0-.252-.051-.495-.15-.724l-.034-.074.055-.061c.227-.246.426-.494.59-.735.823-1.206.588-1.929.375-2.253-.187-.284-.589-.623-1.432-.623z" fill="#110d0e"/><g fill="#abb0ab"><path d="M30.272 84.067c0 .077-.055.116-.165.116h-.436v.453h-.27v-1.25h.706c.11 0 .165.038.165.114v.567zM30 84.023v-.477h-.329v.477H30zM31.857 84.522c0 .076-.054.114-.163.114h-.585c-.107 0-.16-.038-.16-.114v-1.021c0-.076.053-.114.16-.114h.585c.109 0 .163.038.163.114v1.021zm-.269-.045v-.93h-.37v.93h.37zM33.89 83.387l-.264 1.252h-.264l-.162-.709a2.18 2.18 0 0 0-.009-.114c0 .025-.003.063-.009.114l-.16.709h-.265l-.264-1.252h.273l.14.741.009.114c.001-.025.004-.063.011-.114l.155-.741h.221l.155.741.01.114a2.18 2.18 0 0 1 .009-.114l.14-.741h.274zM35.274 84.637h-.747v-1.25h.74v.165h-.471v.365h.405v.162h-.405v.393h.478v.165zM36.867 84.637h-.281l-.297-.581v-.112h.265v-.396h-.339v1.09h-.27v-1.25h.715c.108 0 .163.038.163.114v.455c0 .053-.026.087-.077.103a.79.79 0 0 1-.175.012l.296.565z"/></g><g fill="#abb0ab"><path d="M63.752 84.637h-.268l-.054-.237h-.338l-.054.237h-.266v-.003l.349-1.249h.283l.348 1.252zm-.359-.398l-.131-.564-.133.564h.264zM65.276 84.522c0 .076-.055.114-.165.114h-.561c-.107 0-.16-.038-.16-.114v-1.021c0-.076.053-.114.16-.114h.562c.11 0 .165.038.165.114v.293h-.269v-.247h-.349v.93h.349v-.264h.269v.309zM66.861 84.522c0 .076-.055.114-.165.114h-.562c-.107 0-.16-.038-.16-.114v-1.021c0-.076.053-.114.16-.114h.562c.11 0 .165.038.165.114v.293h-.269v-.247h-.349v.93h.349v-.264h.269v.309zM68.307 84.637h-.747v-1.25h.74v.165h-.471v.365h.405v.162h-.405v.393h.478v.165zM69.841 84.522c0 .076-.055.114-.163.114h-.543c-.107 0-.162-.038-.162-.114v-.298h.27v.255h.329v-.245l-.54-.355c-.039-.025-.059-.059-.059-.1v-.278c0-.076.055-.114.162-.114h.543c.108 0 .163.037.163.113v.279h-.27v-.235h-.329v.226l.54.354c.039.025.059.06.059.102v.296zM71.405 84.522c0 .076-.055.114-.163.114h-.543c-.107 0-.162-.038-.162-.114v-.298h.27v.255h.329v-.245l-.54-.355c-.039-.025-.059-.059-.059-.1v-.278c0-.076.055-.114.162-.114h.543c.108 0 .163.037.163.113v.279h-.27v-.235h-.329v.226l.54.354c.039.025.059.06.059.102v.296z"/></g><path d="M77.648 85.705a1.94 1.94 0 0 0 3.049-2.234c.229-.249.432-.501.603-.75.864-1.268.605-2.043.375-2.393-.205-.311-.638-.68-1.536-.68-1.07 0-2.52.537-3.879 1.436-2.045 1.35-3.67 3.393-2.818 4.684.205.311.638.68 1.536.68.754-.001 1.701-.269 2.67-.743z" fill="#2b2629"/><path d="M74.977 86.572c-.953 0-1.418-.4-1.64-.735-.896-1.36.757-3.474 2.854-4.857 1.38-.912 2.855-1.456 3.948-1.456.954 0 1.419.4 1.641.735.248.377.528 1.206-.377 2.532-.16.234-.348.471-.56.705a2.065 2.065 0 0 1-3.213 2.357c-.971.464-1.91.719-2.653.719zm5.162-6.799c-1.045 0-2.47.529-3.81 1.415-1.994 1.315-3.59 3.287-2.783 4.511.188.284.589.623 1.431.623.725 0 1.654-.259 2.617-.729l.074-.036.063.055a1.815 1.815 0 0 0 2.853-2.092l-.033-.074.056-.061c.226-.244.424-.492.59-.735.823-1.206.589-1.93.375-2.254-.189-.284-.591-.623-1.433-.623z" fill="#110d0e"/><path d="M23.543 84.544c-2.012 1.329-4.085 1.739-4.629.915-.544-.824.646-2.569 2.658-3.898 2.013-1.33 4.085-1.739 4.629-.915.545.823-.645 2.569-2.658 3.898z" fill="#005ad1"/><g fill="#034572"><path d="M21.039 83.941l.095.248-.079.19-.214.167.241.309-.154.12-.675-.865.352-.274.222-.055.212.16zm-.158.106l-.091-.067-.093.021-.175.137.203.259.179-.14.027-.096-.05-.114zM21.962 83.484a.643.643 0 0 1 .156.405.404.404 0 0 1-.164.326.397.397 0 0 1-.373.076.67.67 0 0 1-.341-.249.668.668 0 0 1-.157-.378.408.408 0 0 1 .17-.359.39.39 0 0 1 .368-.071c.126.037.24.12.341.25zm-.147.116a.472.472 0 0 0-.229-.176l-.22.045-.093.198a.466.466 0 0 0 .111.26.472.472 0 0 0 .232.176l.226-.046.084-.198-.111-.259zM22.61 82.271l.466 1.028-.138.107-.637-.561.39.754-.138.108-.885-.702.163-.127.621.558-.394-.735.163-.127.622.567-.396-.744zM23.937 82.627l-.559.436-.675-.866.541-.423.116.149-.387.303.153.197.358-.279.116.147-.358.279.175.224.404-.315zM24.675 82.051l-.166.129-.099-.084-.102-.13-.073-.066-.103.024-.183.143.267.342-.154.12-.675-.865.42-.328.164-.04.208.137c.072.092.09.189.053.294l.169.048.172.204.075.04.027.032zm-.635-.495l-.167-.032-.215.168.177.227.212-.166.032-.089-.039-.108z"/></g><path d="M78.543 84.539c-2.012 1.33-4.084 1.739-4.629.915-.544-.823.646-2.569 2.658-3.898 2.013-1.329 4.085-1.738 4.629-.915.545.824-.645 2.569-2.658 3.898z" fill="#005ad1"/><g fill="#034572"><path d="M76.897 84.22l-.166.13-.099-.085-.102-.13-.073-.065-.103.023-.183.143.267.342-.153.12-.676-.865.42-.328.164-.039.207.137a.29.29 0 0 1 .053.293l.17.049.173.203.075.04.026.032zm-.634-.494l-.168-.033-.215.167.177.227.212-.165.032-.09-.038-.106zM77.583 83.685l-.559.435-.674-.865.541-.422.115.148-.387.303.153.197.358-.279.116.148-.357.279.174.224.405-.317zM78.078 82.888c.07.09.097.181.08.272a.424.424 0 0 1-.174.254.376.376 0 0 1-.271.092.407.407 0 0 1-.253-.139l.148-.116c.084.085.177.088.277.01l.088-.117-.023-.115-.197-.038-.214.103-.182.018-.159-.105-.079-.257.15-.234a.394.394 0 0 1 .275-.099l.237.144-.144.112-.124-.063-.142.052-.045.214.163.023.188-.085.209-.049.192.123zM78.95 82.617l-.558.437-.676-.866.541-.422.116.148-.388.303.155.197.357-.279.116.147-.358.28.175.223.404-.316zM79.047 81.388l-.218.171.56.716-.154.121-.559-.717-.227.176-.116-.148.599-.468z"/></g><path d="M50.074 4.506H32.256v1.25h-4.74v4.512c0 .646.529 1.175 1.175 1.175H71.42c.646 0 1.175-.529 1.175-1.175V5.756h-4.739v-1.25H50.037" fill="#232323"/><path d="M71.42 11.693H28.691a1.426 1.426 0 0 1-1.425-1.425V5.506h4.739v-1.25h36.1v1.25h4.739v4.762a1.425 1.425 0 0 1-1.424 1.425zM27.767 6.006v4.262c0 .51.415.925.925.925H71.42c.51 0 .925-.415.925-.925V6.006h-4.739v-1.25h-35.1v1.25h-4.739z" fill="#191517"/><path fill="#2d2d2d" d="M32.506 4.756h35.1v6.438h-35.1z"/><path d="M62.599 9.483H37.513c-.853 0-1.551-.698-1.551-1.551s.698-1.551 1.551-1.551h25.086c.853 0 1.551.698 1.551 1.551s-.699 1.551-1.551 1.551z" fill="#282627"/><path d="M42.963 8.062a.511.511 0 0 1-.188.373.623.623 0 0 1-.392.115.519.519 0 0 1-.421-.187c-.103-.125-.155-.294-.155-.508 0-.198.051-.359.153-.482a.548.548 0 0 1 .448-.196c.16 0 .291.043.395.129a.435.435 0 0 1 .16.337h-.257l-.093-.173-.197-.068a.299.299 0 0 0-.253.125.549.549 0 0 0-.093.336c0 .14.031.251.092.334a.292.292 0 0 0 .245.123l.205-.071.09-.187h.261zM44.294 8.51h-.276l-.092-.263h-.486l-.09.263h-.274l.457-1.312h.312l.449 1.312zm-.432-.488l-.173-.511-.162.511h.335zM45.546 8.51h-.292l-.036-.151v-.198l-.023-.115-.133-.054h-.32v.518h-.27V7.198h.738l.212.083a.36.36 0 0 1 .11.281.341.341 0 0 1-.192.317c.093.05.142.107.144.169l.014.32.049.092v.05zm-.272-.932c0-.103-.052-.155-.155-.155h-.378v.344h.373l.111-.06.049-.129zM46.703 7.423h-.383V8.51h-.27V7.423h-.398v-.225h1.051zM47.946 8.51h-.292l-.036-.151v-.198l-.023-.115-.133-.054h-.32v.518h-.27V7.198h.738l.212.083a.36.36 0 0 1 .11.281.341.341 0 0 1-.192.317c.093.05.142.107.144.169l.014.32.049.092v.05zm-.272-.932c0-.103-.052-.155-.155-.155h-.378v.344h.373l.111-.06.049-.129zM48.142 7.198h.27V8.51h-.27zM49.752 7.808a.844.844 0 0 1-.147.502c-.094.133-.203.2-.328.2h-.612V7.198h.632c.104 0 .202.05.293.149a.656.656 0 0 1 .162.461zm-.271.022c0-.107-.022-.2-.067-.279l-.176-.126h-.302v.86h.249l.214-.122a.59.59 0 0 0 .082-.333zM51.109 8.516h-.163l-.032-.162a.49.49 0 0 1-.416.196c-.162 0-.3-.06-.412-.18a.695.695 0 0 1-.182-.497c0-.211.058-.38.173-.507a.597.597 0 0 1 .46-.19c.166 0 .299.041.398.121a.495.495 0 0 1 .174.317h-.247c-.049-.144-.157-.216-.324-.216a.34.34 0 0 0-.274.123.501.501 0 0 0-.103.33c0 .139.036.254.108.345a.335.335 0 0 0 .274.137l.229-.086.112-.218h-.303v-.224h.527v.711zM52.35 8.51h-.981V7.198h.95v.225h-.68v.299h.629v.225h-.629v.338h.711zM53.043 7.198h.27V8.51h-.27zM54.618 8.51h-.267l-.531-.916v.916h-.269V7.198h.265l.532.9v-.9h.27zM55.867 7.618a.44.44 0 0 1-.108.303.322.322 0 0 1-.248.122h-.376v.467h-.271V7.198h.618c.127 0 .223.037.287.111a.451.451 0 0 1 .098.309zm-.261-.017l-.044-.129-.12-.049h-.308v.395h.314l.112-.07.046-.147zM57.105 8.14a.366.366 0 0 1-.124.275c-.1.091-.238.137-.416.137a.508.508 0 0 1-.354-.131.394.394 0 0 1-.146-.299v-.924h.271v.927l.067.136.168.055c.177 0 .265-.063.265-.191v-.927h.271v.942zM58.304 7.423h-.383V8.51h-.271V7.423h-.397v-.225h1.051z" fill="#191718"/><path d="M50.056 15.193c8.906 0 17.187.666 23.409 2.013a.41.41 0 0 0 .461-.224c.762-1.61 1.147-3.52 1.469-5.577.813-5.205 2.4-9.478 3.612-11.405-1.185 1.883-2.316 6.348-3.118 11.482-.339 2.17-.713 4.26-1.561 5.968a.678.678 0 0 1-.609.376l-.15-.017c-6.207-1.365-14.558-2.116-23.513-2.116-8.956 0-17.306.751-23.513 2.116l-.15.017a.677.677 0 0 1-.609-.376c-.848-1.708-1.222-3.798-1.561-5.968C23.42 6.348 22.289 1.883 21.104 0c1.212 1.927 2.799 6.2 3.612 11.405.321 2.058.708 3.967 1.469 5.577a.41.41 0 0 0 .461.224c6.223-1.347 14.504-2.013 23.41-2.013z" fill="#3f3f3f"/><ellipse cx="50.056" cy="47.646" rx="25.875" ry="3.234" fill="#454545"/><path d="M48.261 50.873c.765-.494 7.897-6.371 15.492-5.968 7.293.572 12.141 1.586 12.141 2.742 0 1.786-11.585 3.234-25.875 3.234-.591 0-1.177-.003-1.758-.008z" fill="#1c1c1c"/><path d="M47.388 74.352c-.676.776-1.375 1.275-1.562 1.112-.187-.162.209-.924.885-1.701.675-.776 1.375-1.275 1.562-1.112.186.162-.21.923-.885 1.701zM50.388 74.352c-.676.776-1.375 1.275-1.562 1.112-.187-.162.209-.924.885-1.701.676-.776 1.375-1.275 1.562-1.112.186.162-.21.923-.885 1.701zM53.4 74.352c-.676.776-1.375 1.275-1.562 1.112-.187-.162.209-.924.885-1.701.676-.776 1.375-1.275 1.562-1.112.187.162-.209.923-.885 1.701z" fill="#4c4c4c"/><g fill="#abb0ab"><path d="M38.297 54.826a6.024 6.024 0 0 0-.419.225c-.288.172-.523.352-.68.564-.157.212-.226.506-.096.752.111.209.348.28.561.282.213.002.447-.047.71-.121.526-.148 1.16-.408 1.785-.658s1.242-.49 1.692-.598c.224-.054.409-.07.505-.057l.074.023.007.015c.022.092.012.151-.046.241s-.175.2-.354.314a3.203 3.203 0 0 1-.193.113 2.019 2.019 0 0 1-.198.641c.25-.11.469-.223.654-.341.215-.137.388-.282.503-.462a.801.801 0 0 0 .11-.619.526.526 0 0 0-.187-.29.65.65 0 0 0-.301-.118c-.209-.03-.434.004-.688.065-.509.122-1.133.369-1.759.62-.627.251-1.257.506-1.737.641-.24.068-.444.104-.572.103-.128-.001-.133-.022-.133-.022-.037-.069-.035-.108.056-.232.088-.119.267-.27.508-.417.063-.362.109-.483.198-.664z"/><path d="M39.975 53.799l-.064.003c.125.114.24.219.287.267.09.093.441.414.553.531.076.077.303.298.409.398.092.087.06.018.18.137.196.195.342.357.52.53l-.009-.162c-.074-.139-.23-.228-.341-.322-.069-.059-.13-.086-.18-.138l-.167-.172c-.017-.023-.639-.647-1.049-1.066l-.139-.006zm-.201.011l-.186.029c.171.159.363.329.427.396.089.093.444.392.556.509.076.077.258.251.364.35.093.087.103.087.223.207.234.232.398.437.627.648l.05.048c.012-.066.019-.133.023-.2-.186-.161-.398-.346-.582-.503-.069-.059-.13-.086-.18-.138l-.167-.172c-.019-.025-.758-.765-1.155-1.174zm.557.024c.148.146.582.559.684.664.075.077.339.321.444.421.092.087-.003-.017.117.102.086.085.161.163.234.24l-.049-.174-.029-.023c-.069-.059-.13-.086-.18-.138l-.02-.044c-.015-.02-.554-.554-.992-.994a1.83 1.83 0 0 0-.209-.054zm-.859.035l-.151.049c.187.177.432.393.506.47.089.093.444.393.556.509.076.077.219.203.325.302.092.087.065.101.185.22.234.232.475.472.703.683l.17.166.05-.184a48.113 48.113 0 0 0-.732-.638c-.069-.059-.102-.114-.152-.166l-.191-.138c-.021-.027-.904-.898-1.269-1.273zm-.252.088l-.168.083c.189.185.484.432.568.519.09.093.453.412.565.529.076.077.108.083.214.182.092.087.183.166.303.285.234.232.468.527.697.738.093.086.18.183.247.266.034-.065.065-.133.091-.201-.221-.201-.58-.525-.856-.759-.069-.059-.086-.114-.137-.166l-.246-.15c-.022-.028-.974-1.003-1.278-1.326zm1.659.075c.152.146.303.292.358.349.054.055.206.186.328.293a1.879 1.879 0 0 0-.686-.642zm-1.898.052l-.137.094c.188.186.422.389.507.478.09.093.49.412.602.529.076.077.077.072.183.171.092.087.214.177.334.296.234.232.468.527.697.738.167.154.309.297.366.356l.077-.124a51.018 51.018 0 0 1-1.164-1.143l-.209-.115c-.023-.031-1.016-1.022-1.256-1.28zm-.191.135l-.128.114.039.093c.184.171.448.389.533.478.09.093.49.412.602.529.075.077.077.072.183.171.272.255.704.701 1.017 1.03.139.145.266.261.333.32l.118-.143c-.059-.051-1.051-.915-1.4-1.28l-.207-.187c-.021-.03-.796-.815-1.09-1.125zm-.187.172l-.12.141c.181.171.486.443.578.538.089.093.304.261.416.378.075.077.216.219.322.319.272.255.71.716 1.024 1.045.173.182.294.305.331.343l.161-.143a69.276 69.276 0 0 1-1.475-1.436l-.09-.039c-.022-.032-.941-.922-1.147-1.146zm-.153.188l-.109.169c.165.142.523.478.618.577.079.083.127.122.19.187l.152.152c.075.077.026.012.132.111.42.394 1.422 1.385 1.544 1.506l.157-.11c-.132-.126-1.131-1.077-1.467-1.429l-.199-.118c-.022-.029-.788-.797-1.018-1.045zm-.127.199a1.74 1.74 0 0 0-.107.227c.152.133.531.5.642.59.099.08.114.099.177.164.054.077.169.128.21.165.42.395 1.381 1.368 1.494 1.484a1.86 1.86 0 0 0 .203-.106c-.157-.142-1.3-1.172-1.636-1.523l-.273-.277c-.023-.031-.529-.525-.71-.724zm-.118.258a2.2 2.2 0 0 0-.064.214c.133.118.54.544.659.633.115.087.031.038.094.104l-.018-.096c.075.077.181.201.287.301a115.11 115.11 0 0 1 1.347 1.303l.169-.059a82.06 82.06 0 0 1-1.621-1.579l-.106-.069c-.002-.026-.578-.563-.747-.752zm-.07.243c-.03.133-.046.27-.047.407.001.938.69 1.732 1.618 1.866-.349-.329-.937-.888-1.173-1.148l-.202.006c-.006-.219-.043-.319-.028-.319.011.001.053.062.163.176.186.193.929.922 1.307 1.292.067.008.134.012.202.013l.135-.007a69.093 69.093 0 0 1-1.283-1.268l-.355-.244-.334-.395c.051.024.247.218.384.321.115.086.179.119.242.184l.115.116c.075.077.172.188.28.285.357.321.832.793 1.033.995.084-.01.167-.026.249-.047-.189-.176-1.295-1.209-1.625-1.554l-.111-.047c-.001-.024-.395-.434-.559-.619l-.011-.013z"/><path d="M38.866 56.916c-.649.106-1.048.087-1.048.087a.245.245 0 0 0-.022.488s.558.024 1.415-.143c-.07-.117-.217-.258-.345-.432zM41.599 53.973a6.643 6.643 0 0 0-.725.055c.237.136.316.258.504.441.482-.028.781.015.781.015a.245.245 0 1 0 .07-.484s-.238-.034-.63-.027z"/><g><path d="M44.023 56.638l-.327-.595c-.003-.057.014-.085.05-.085l.324.243c.085.064.187.124.305.18a.785.785 0 0 0 .349.08.544.544 0 0 0 .32-.109c.09-.09.1-.178.031-.265a1.089 1.089 0 0 0-.336-.255 4.82 4.82 0 0 1-.497-.313c-.176-.125-.284-.222-.324-.291a.454.454 0 0 1-.045-.272c.011-.113.103-.221.275-.322.096-.048.203-.079.322-.095.12-.015.239-.022.358-.022s.238.007.358.019l.595.058a.113.113 0 0 1 .081.045l.107.479c.003.035-.011.035-.04 0a.867.867 0 0 0-.386-.269 3.557 3.557 0 0 0-.43-.116 1.463 1.463 0 0 0-.456-.019.187.187 0 0 0-.121.119c-.021.058.001.123.065.194.063.071.182.144.354.215.171.071.329.163.472.275.144.112.242.223.296.331a.545.545 0 0 1 .045.35c-.024.124-.056.204-.095.241a.937.937 0 0 1-.559.236c-.256 0-.411-.007-.463-.021a1.18 1.18 0 0 0-.284-.013c-.138.004-.224.013-.26.026s-.064.004-.084-.029z"/><path d="M45.903 55.026c0-.191-.057-.303-.17-.336-.03-.015-.045-.031-.045-.049 0-.019.023-.033.071-.045h1.845c.048 0 .079.014.094.04.11.164.181.372.211.622 0 .036-.016.036-.045 0a8.154 8.154 0 0 0-.224-.243.911.911 0 0 0-.263-.168 1.338 1.338 0 0 0-.472-.107h-.144c-.191 0-.286.071-.286.215v.537a.141.141 0 0 0 .089.04.76.76 0 0 0 .237-.063c.123-.045.253-.13.39-.255.048 0 .072.023.072.071v.627c0 .048-.024.071-.072.071a1.222 1.222 0 0 0-.39-.255.792.792 0 0 0-.237-.063.139.139 0 0 0-.089.04v.608c0 .126.095.188.286.188h.144a1.25 1.25 0 0 0 .472-.116c.121-.063.209-.122.263-.177.054-.056.137-.133.25-.231.03-.032.045-.029.045.01a1.378 1.378 0 0 1-.237.645c-.015.026-.046.04-.094.04h-1.845c-.048-.012-.071-.027-.071-.045s.015-.034.045-.049c.113-.033.17-.073.17-.121v-1.431z"/><path d="M47.515 55.671c0-.294.118-.55.355-.767s.549-.325.934-.325c.176.023.275.038.298.044a.406.406 0 0 0 .333-.057c.058-.015.095-.006.112.026.107.212.155.414.144.604-.024.03-.05.021-.076-.026-.17-.209-.309-.333-.415-.372a1.187 1.187 0 0 0-.396-.058c-.206.012-.353.093-.44.244-.089.15-.133.379-.133.687 0 .257.044.477.133.658a.453.453 0 0 0 .44.273c.155-.03.257-.08.305-.15s.077-.153.087-.248a.274.274 0 0 0-.083-.24.396.396 0 0 0-.228-.113c-.054-.051-.051-.087.009-.107h.842c.048 0 .071.012.071.035 0 .024-.021.048-.063.072-.065.34-.179.58-.338.721a.816.816 0 0 1-.603.192c-.354 0-.652-.108-.896-.325a1.09 1.09 0 0 1-.392-.768z"/><path d="M49.194 56.674c-.042-.036-.048-.064-.019-.085a.442.442 0 0 0 .197-.175l1.008-1.894a.093.093 0 0 1 .066-.031c.024 0 .05.011.076.031l.837 1.867c.03.068.098.134.202.196.063.019.07.048.022.09h-.708c-.065-.036-.054-.068.036-.099a.29.29 0 0 0 .13-.085c.021-.029.023-.07.009-.121l-.461-1.038-.578 1.065-.005.045c-.018.035.021.083.117.143.054.024.06.054.019.09h-.948z"/><path d="M51.154 54.955c-.048-.287-.048-.525 0-.717.036-.19.156-.381.362-.57s.464-.31.774-.36c.042 0 .06.021.054.063-.232.149-.396.319-.492.511a.971.971 0 0 0-.071.645l.071.286.43 1.146c.236.492.212.97-.071 1.432-.23.29-.547.511-.949.663-.054.006-.078-.012-.071-.054.37-.37.566-.683.591-.938.023-.256-.072-.623-.287-1.104l-.341-1.003z"/><path d="M52.238 56.674c-.042-.036-.048-.064-.019-.085a.442.442 0 0 0 .197-.175l1.008-1.894a.093.093 0 0 1 .066-.031c.024 0 .05.011.076.031l.837 1.867c.03.068.098.134.202.196.063.019.07.048.022.09h-.708c-.065-.036-.054-.068.036-.099a.29.29 0 0 0 .13-.085c.021-.029.023-.07.009-.121l-.461-1.038-.577 1.065-.005.045c-.018.035.021.083.116.143.054.024.06.054.019.09h-.948z"/><path d="M54.62 56.584c.143-.048.215-.119.215-.215V54.74h-.144c-.286.032-.501.089-.645.17-.09.048-.138.051-.144.009l.184-.277c.021-.03.056-.045.104-.045h1.934c.048 0 .082.015.103.045l.184.277c-.006.042-.054.039-.143-.009-.144-.081-.358-.138-.645-.17h-.144v1.629c0 .096.071.167.215.215.054.019.054.048 0 .09H54.62c-.054-.042-.054-.071 0-.09z"/><path d="M56.223 56.029v-1.146c0-.095-.072-.155-.215-.179-.054-.03-.054-.065 0-.107h1.038c.054.042.054.077 0 .107-.143.023-.215.084-.215.179v1.146a.47.47 0 0 0 .156.34c.098.09.216.135.354.135a.487.487 0 0 0 .348-.135c.095-.089.144-.261.145-.515v-.972c0-.095-.071-.155-.215-.179-.048-.03-.048-.065 0-.107h.743c.042.026.048.065.018.116-.196.019-.295.075-.295.17v1.214c.006.143-.072.284-.233.423s-.379.208-.653.208c-.305-.006-.542-.075-.713-.207s-.259-.295-.263-.491z"/><path d="M58.366 56.566c.144-.036.215-.102.215-.197v-1.414c0-.144-.08-.224-.241-.242-.051-.036-.054-.074-.009-.116h1.396c.285 0 .486.057.604.169s.176.247.176.404a.538.538 0 0 1-.601.546c.012.021.03.039.054.054a.927.927 0 0 1 .152.206c.149.274.369.491.658.649l.103.04c.024.023.036.048.036.071 0 .024-.023.047-.071.067h-.095c-.325-.036-.577-.1-.756-.192a1.067 1.067 0 0 1-.438-.438 1.343 1.343 0 0 1-.197-.533c-.021-.102-.002-.133.058-.094l.104.018c.09.018.178-.014.264-.095a.396.396 0 0 0 .13-.299c0-.158-.039-.274-.116-.348a.393.393 0 0 0-.277-.109.345.345 0 0 0-.239.052.168.168 0 0 0-.048.118v1.486c0 .096.072.161.215.197.054.018.054.054 0 .107h-1.074c-.056-.053-.056-.089-.003-.107z"/><path d="M62.593 56.745l-1.504-1.227v1.012c0 .096.065.161.196.197.054.018.054.048 0 .09h-.645c-.054-.042-.054-.072 0-.09.132-.036.197-.102.197-.197v-1.289a1.14 1.14 0 0 0-.109-.293.811.811 0 0 0-.154-.199c-.058-.051-.089-.09-.095-.116 0-.024.016-.036.045-.036.313.009.943.418 1.89 1.227v-.914c0-.096-.054-.164-.161-.206-.045-.023-.045-.051 0-.081h.563c.048.03.048.058 0 .081-.107.042-.161.11-.161.206v1.786c0 .045-.02.062-.062.049z"/></g></g><g><path d="M135.915 89.911c-14.728 0-26.681-11.953-26.681-26.681s11.953-26.681 26.681-26.681 26.681 11.953 26.681 26.681-11.953 26.681-26.681 26.681zm3.922-26.681c0-2.161-1.761-3.922-3.922-3.922s-3.922 1.788-3.922 3.922a3.911 3.911 0 0 0 3.922 3.922 3.91 3.91 0 0 0 3.922-3.922z" fill="#f5ec3a"/><path d="M159.545 50.84c-4.467-8.492-13.378-14.29-23.63-14.29-14.723 0-26.681 11.957-26.681 26.681 0 14.723 11.957 26.681 26.681 26.681 14.723 0 26.681-11.958 26.681-26.681 0-4.329-1.034-8.418-2.867-12.035m0-.001c-.06-.119-.122-.238-.184-.356M156.17 78.74c-4.664 6.074-11.985 10.005-20.255 10.005s-15.564-3.904-20.255-10.005c-3.308-4.284-5.26-9.68-5.26-15.509 0-14.1 11.415-25.515 25.515-25.515 14.1 0 25.515 11.415 25.515 25.515 0 5.829-1.952 11.225-5.26 15.509z" fill="#efe23f"/><path fill="#030306" d="M156.363 78.486h-40.896M112.149 72.539h47.532"/><path d="M110.905 72.539a26.64 26.64 0 0 0 3.125 5.947h43.77a26.66 26.66 0 0 0 3.123-5.945l-.005-.002h-50.013" fill="#030407"/><path d="M121.247 76.89c-.234 0-.424-.211-.424-.472v-1.497c0-.259.189-.47.423-.47h1.394v-.471h-1.397c-.468 0-.848.421-.848.942v1.497c0 .521.383.942.851.942l1.394.002v-2.217h-1.198v.47h.774v1.275h-.969M115.407 77.364l1.349-.001c.551 0 .998-.497.998-1.109 0-.614-.447-1.109-.998-1.109l-.35.001-.05-.056.05-.056h1.345l.001-.469h-1.346c-.261 0-.473.234-.473.524s.212.525.473.525l.352.004c.316 0 .572.285.572.637 0 .35-.256.635-.572.635h-1.349l-.002.474" fill="#7a7a62"/><path d="M115.408 76.777h1.349c.261 0 .473-.235.473-.523 0-.29-.212-.525-.473-.525l-.352-.004c-.316 0-.572-.284-.572-.636 0-.35.256-.635.572-.635h1.346l-.001-.473h-1.345c-.551 0-.998.497-.998 1.109 0 .613.447 1.109.998 1.109h.348l.049.055-.049.053-1.347.001.002.469M118.799 76.891c-.234 0-.425-.208-.425-.473v-1.501c0-.255.191-.466.425-.466h1.439v-.471h-1.439c-.468 0-.848.421-.848.942v1.497c0 .521.379.942.848.942l1.433.002v-.473l-1.433.001" fill="#7a7a62"/><path d="M118.477 74.921c0-.198.144-.359.322-.359h1.439v.47h-1.24l-.1.111h1.034v.47h-1.456l.001-.692M118.799 76.777c-.178 0-.322-.16-.322-.359l-.001-.693h1.456v.472h-1.034l.1.11h1.234v.47h-1.433M120.923 76.418c0 .198.144.362.323.362h.87v-1.056h-.673v.473h.25l.001.11h-.249l-.1-.11-.001-1.054.1-.111h1.197l-.001-.47-1.394.002c-.179 0-.323.16-.323.359v1.495M123.949 74.554l.13-.103.131.105.676 2.227h-.99v-.524h.332l-.15-.494-.485 1.595h-.5l.856-2.806" fill="#7a7a62"/><path d="M125.022 76.89h-1.126v.47h1.713l-.891-2.938a.668.668 0 0 0-.64-.496.667.667 0 0 0-.64.496l-.899 2.938h.449l.872-2.856.218-.161.217.161.727 2.386M125.355 74.224h-.141l-.001.4h-.098l-.002-.406h-.146l.002-.144h.384zM125.873 74.624h-.099v-.447l-.085.447h-.099l-.086-.445v.445h-.098v-.55h.144l.09.421.089-.421h.144zM154.323 74.49l-.002.041c-.005.043 0 .063-.124.063s-.119-.02-.124-.063a2.1 2.1 0 0 1 0-.254c.005-.043 0-.063.124-.063s.119.02.124.063l.002.043h.17a1.08 1.08 0 0 0-.005-.087c-.01-.086.024-.169-.291-.169s-.281.082-.291.169a2.07 2.07 0 0 0 0 .342c.01.086-.024.169.291.169s.281-.083.291-.169c.002-.016.003-.047.004-.085h-.169zM152.309 74.081l-.166.485-.165-.485-.248-.001v.65h.165v-.484l.166.484h.166l.164-.484v.484h.166v-.65zM154.53 74.08h.476v.166h-.155v.484h-.166v-.484h-.155zM153.252 74.73l.19-.651h.248l.19.651h-.166l-.039-.134h-.217l.03-.106h.156l-.077-.265-.149.505zM151.331 74.214c.124 0 .119.02.124.063a2.1 2.1 0 0 1 0 .254c-.005.043 0 .063-.124.063s-.119-.02-.124-.063a2.1 2.1 0 0 1 0-.254c.004-.043-.001-.063.124-.063v-.15c-.315 0-.281.082-.291.169a2.07 2.07 0 0 0 0 .342c.01.086-.024.169.291.169s.281-.083.291-.169a2.654 2.654 0 0 0 0-.342c-.01-.086.024-.169-.291-.169v.15zM150.771 74.49l-.002.041c-.005.043 0 .063-.124.063s-.119-.02-.124-.063a2.1 2.1 0 0 1 0-.254c.005-.043 0-.063.124-.063s.119.02.124.063l.002.043h.17a1.08 1.08 0 0 0-.005-.087c-.01-.086.024-.169-.291-.169s-.281.082-.291.169a2.07 2.07 0 0 0 0 .342c.01.086-.024.169.291.169s.281-.083.291-.169c.002-.016.003-.047.004-.085h-.169zM152.96 74.581h-.101v-.148l.101-.001c.124 0 .12-.02.125-.063.002-.014.001-.003.001-.039s.001-.023-.001-.038c-.005-.043-.001-.063-.125-.063h-.101v.499h-.166v-.648h.267c.315 0 .28.083.292.169l.001.082-.001.082c-.008.087.023.168-.292.168zM149.738 77.177l-1.037-.001a.272.272 0 0 1-.272-.272v-1.579c0-.15.122-.272.272-.272l.649-.001a.14.14 0 0 0 .141-.141l.002-.631a.06.06 0 0 1 .059-.059h.381a.06.06 0 0 1 .059.059l.004 2.838a.06.06 0 0 1-.059.059h-.199l-.005.141h.26a.14.14 0 0 0 .141-.141V74.22a.14.14 0 0 0-.141-.141h-.499a.14.14 0 0 0-.141.141l.001.633a.06.06 0 0 1-.059.059l-.593-.001a.414.414 0 0 0-.414.414v1.579c0 .229.186.414.414.414h1.033l.003-.141z" fill="#7a7a62"/><path d="M149.352 76.596v-1.021a.155.155 0 0 0-.31 0v1.103a.155.155 0 0 0 .31 0v-.082l.141.005v.076a.297.297 0 0 1-.592 0v-1.103a.297.297 0 0 1 .592 0V76.6l-.141-.004zM150.723 77.177h-.194a.06.06 0 0 1-.059-.059l.002-2.004a.06.06 0 0 1 .059-.059h.381a.06.06 0 0 1 .059.059l.004 2.004a.06.06 0 0 1-.059.059h-.193v.14h.249a.14.14 0 0 0 .141-.141v-2.123a.14.14 0 0 0-.141-.141h-.499a.14.14 0 0 0-.141.141v2.122a.14.14 0 0 0 .141.141h.251v-.139zM152.517 75.449l-.418-.001a.233.233 0 1 0 0 .466l.573.002c.15 0 .272.122.272.272l-.002.713c0 .15-.122.272-.272.272l-1.137.002a.06.06 0 0 1-.059-.059v-.276a.06.06 0 0 1 .059-.059l.775-.002a.233.233 0 1 0 0-.466l-.561-.002a.272.272 0 0 1-.272-.272v-.712c0-.15.122-.272.272-.272l1.054-.005c.033 0 .059.026.059.059v.282a.06.06 0 0 1-.059.059l-.284-.001-.005.139h.347a.14.14 0 0 0 .141-.141v-.396a.14.14 0 0 0-.141-.141l-1.113.001a.414.414 0 0 0-.414.414v.712c0 .229.186.414.414.414l.561-.001a.094.094 0 1 1 0 .188h-.835a.14.14 0 0 0-.141.141v.395a.14.14 0 0 0 .141.141h1.198a.414.414 0 0 0 .414-.414l.002-.713a.414.414 0 0 0-.414-.414l-.573.002a.094.094 0 1 1 0-.188h.413l.005-.139zM154.624 75.84h.18a.058.058 0 0 0 .059-.059l-.001-.456a.272.272 0 0 0-.272-.272h-.898a.272.272 0 0 0-.272.272v1.579c0 .15.122.272.272.272h.898c.15 0 .272-.122.272-.272l.001-.434a.06.06 0 0 0-.059-.059h-.339a.058.058 0 0 0-.059.059l.002.207c0 .163-.103.296-.266.296-.163 0-.266-.133-.266-.296v-1.103c0-.163.103-.296.266-.296.164 0 .266.133.266.296l-.002.207a.06.06 0 0 0 .059.059h.159l-.005.143h-.213a.14.14 0 0 1-.141-.141l.002-.268c0-.085-.04-.155-.126-.155-.085 0-.125.07-.125.155v1.103c0 .085.04.155.125.155.086 0 .126-.069.126-.155l-.002-.267a.14.14 0 0 1 .141-.141h.458a.14.14 0 0 1 .141.141v.494a.414.414 0 0 1-.414.414h-.898a.414.414 0 0 1-.414-.414v-1.579c0-.229.186-.414.414-.414h.898c.229 0 .414.185.414.414v.517a.14.14 0 0 1-.141.141h-.244l.004-.143z" fill="#7a7a62"/><path d="M150.426 40.844a26.537 26.537 0 0 0-14.511-4.294c-13.074 0-23.966 9.428-26.244 21.849h40.754l.001-17.555" fill="#030408"/><path d="M160.923 72.541a26.506 26.506 0 0 0 1.293-4.804h-52.602a26.483 26.483 0 0 0 1.292 4.802l-.001.001h50.018M157.8 78.486h-43.77c4.825 6.905 12.832 11.425 21.885 11.425s17.06-4.52 21.885-11.425z" fill="#7a7a62"/><path d="M123.098 80.618a5.762 5.762 0 0 0-.409.208c-.281.159-.511.326-.665.522-.154.197-.221.469-.094.697.108.193.34.259.548.261.208.002.437-.044.693-.112.514-.138 1.134-.378 1.744-.61.611-.231 1.213-.454 1.653-.554.219-.05.4-.065.493-.053l.072.021.007.014c.022.086.011.14-.045.223-.056.083-.171.185-.346.291-.057.034-.12.069-.188.104-.03.271-.153.516-.194.594.244-.102.458-.207.639-.316.21-.126.379-.261.492-.428a.711.711 0 0 0 .107-.574.484.484 0 0 0-.183-.269.647.647 0 0 0-.294-.109c-.204-.028-.424.004-.672.061-.497.113-1.107.342-1.719.574-.613.232-1.228.468-1.697.594a2.349 2.349 0 0 1-.559.095c-.125-.001-.13-.02-.13-.02-.036-.064-.034-.1.055-.214.086-.11.261-.25.497-.386.062-.334.107-.446.195-.614z" fill="#040409"/><path d="M124.737 79.666l-.063.003c.122.106.235.203.28.248.088.086.431.384.54.492.074.071.297.276.4.368.09.08.059.017.176.127.192.18.334.331.508.491l-.008-.15c-.072-.128-.225-.211-.333-.298-.067-.054-.127-.079-.176-.128l-.163-.159c-.016-.021-.624-.599-1.025-.988l-.136-.006zm-.196.011l-.182.027c.167.148.354.305.417.367.087.086.434.363.543.472.074.071.252.233.356.324.091.081.1.081.218.192.228.215.388.405.613.601l.049.044a1.89 1.89 0 0 0 .023-.186c-.181-.15-.389-.321-.569-.466-.067-.054-.127-.079-.176-.128l-.163-.159c-.019-.023-.741-.71-1.129-1.088zm.544.023c.145.135.569.517.668.615.073.071.331.298.434.39.09.08-.003-.016.115.095.084.079.157.151.229.222l-.048-.162-.028-.022c-.067-.054-.127-.08-.176-.128l-.02-.04c-.015-.019-.541-.514-.97-.921a1.686 1.686 0 0 0-.204-.049zm-.839.032l-.148.045c.182.164.422.364.494.435.087.086.434.364.543.472.074.071.214.188.318.28.09.081.063.093.181.204.229.215.464.437.687.633l.167.154.048-.17a48.531 48.531 0 0 0-.715-.591c-.067-.054-.1-.105-.149-.153l-.186-.128c-.021-.027-.884-.835-1.24-1.181zm-.246.081l-.164.077c.184.172.473.4.555.481.087.087.442.382.552.49.074.071.105.077.209.169.09.08.178.154.296.264.229.215.457.488.681.683.091.08.176.17.242.246a1.78 1.78 0 0 0 .089-.187 34.169 34.169 0 0 0-.837-.703c-.067-.054-.084-.106-.134-.154l-.24-.139c-.022-.024-.953-.928-1.249-1.227zm1.62.07c.148.135.297.271.35.323.053.051.201.172.32.271a1.79 1.79 0 0 0-.67-.594zm-1.854.048l-.134.087c.184.172.412.36.495.443.088.086.479.382.588.49.074.071.075.067.178.159.09.08.209.164.326.274.229.215.457.488.681.684.163.142.302.275.358.329l.075-.114a49.284 49.284 0 0 1-1.138-1.059l-.204-.107c-.021-.029-.991-.947-1.225-1.186zm-.186.125l-.125.105.038.086c.18.158.437.36.521.443.088.086.479.382.588.49.073.071.075.066.178.158.266.237.688.65.994.954.135.134.26.242.325.296l.115-.133c-.058-.047-1.027-.847-1.368-1.186l-.202-.174c-.02-.025-.778-.752-1.064-1.039zm-.183.159l-.117.13c.177.158.475.41.565.499.087.086.297.242.406.35.073.071.211.203.315.295.266.237.693.664 1.001.968.169.168.287.283.323.318l.157-.133a63.83 63.83 0 0 1-1.441-1.331l-.088-.036c-.023-.027-.92-.852-1.121-1.06zm-.15.174l-.107.157c.161.131.511.443.604.535.078.077.124.113.186.173l.149.141c.073.071.026.011.129.103.41.365 1.389 1.283 1.509 1.395l.154-.102a62.875 62.875 0 0 1-1.433-1.324l-.194-.109c-.024-.028-.772-.738-.997-.969zm-.124.185c-.04.068-.075.138-.105.21.148.123.519.464.628.547.097.074.111.092.173.152.053.071.165.119.205.153a76.545 76.545 0 0 1 1.46 1.375c.069-.029.135-.062.199-.099-.154-.131-1.271-1.086-1.598-1.411l-.267-.256c-.023-.029-.519-.487-.695-.671zm-.115.239a1.745 1.745 0 0 0-.062.198c.13.109.528.504.644.587.112.08.03.035.092.096l-.017-.089c.073.071.177.186.28.278.402.358 1.189 1.088 1.316 1.207l.165-.055c-.146-.133-1.256-1.137-1.584-1.463l-.104-.064c-.003-.022-.565-.52-.73-.695zm-.069.224c-.03.124-.045.25-.046.377.001.869.675 1.605 1.581 1.729-.341-.305-.915-.823-1.146-1.064l-.198.006c-.006-.203-.042-.296-.028-.295.011.001.052.058.16.163.182.179.908.854 1.277 1.197.065.007.131.011.197.012l.132-.006a65.99 65.99 0 0 1-1.254-1.175l-.347-.226-.327-.367c.05.022.241.202.375.297.112.08.175.11.237.17l.113.107c.073.071.168.175.273.264.349.297.813.735 1.009.922a1.82 1.82 0 0 0 .243-.044c-.185-.163-1.266-1.12-1.588-1.44l-.109-.044c-.001-.022-.386-.402-.546-.574l-.008-.009z" fill="#040409"/><path d="M123.654 82.555c-.634.098-1.024.081-1.024.081-.133-.007-.247.09-.253.216a.231.231 0 0 0 .232.236s.545.022 1.383-.132c-.07-.11-.213-.24-.338-.401zM126.324 79.828a6.471 6.471 0 0 0-.708.051c.231.126.308.239.492.409.471-.026.763.014.763.014a.239.239 0 0 0 .275-.191.23.23 0 0 0-.206-.258s-.233-.032-.616-.025zM128.691 82.432l-.367-.632c-.003-.06.015-.09.056-.09l.363.259c.095.069.209.132.342.191a.93.93 0 0 0 .391.085.629.629 0 0 0 .359-.116c.101-.095.112-.189.035-.281a1.226 1.226 0 0 0-.377-.271 5.159 5.159 0 0 1-.557-.333c-.197-.133-.319-.236-.363-.309a.464.464 0 0 1-.05-.29c.012-.12.115-.235.309-.343.107-.051.228-.084.361-.101a3.4 3.4 0 0 1 .402-.024c.134 0 .267.007.402.02l.667.061c.037.003.068.02.091.048l.12.51c.003.037-.012.037-.045 0a.982.982 0 0 0-.433-.286 4.206 4.206 0 0 0-.482-.123 1.693 1.693 0 0 0-.511-.02.206.206 0 0 0-.136.127c-.023.061.001.131.073.207.071.076.204.153.396.229.192.076.369.173.529.293.161.12.272.237.332.352.06.116.077.24.05.372-.027.132-.062.217-.106.256a1.1 1.1 0 0 1-.627.25c-.287 0-.461-.007-.519-.022-.059-.013-.165-.019-.319-.013a1.2 1.2 0 0 0-.291.028c-.04.011-.072.001-.095-.034z" fill="#040409"/><path d="M130.799 80.719c0-.203-.063-.322-.19-.357-.034-.016-.05-.033-.05-.052 0-.02.026-.035.08-.048h2.068c.054 0 .089.014.105.042.124.174.203.396.237.661 0 .039-.018.039-.05 0-.107-.114-.19-.2-.251-.258a1.017 1.017 0 0 0-.295-.178 1.59 1.59 0 0 0-.529-.114h-.161c-.215 0-.321.076-.321.229v.571c.026.025.06.039.1.042a.91.91 0 0 0 .266-.066c.138-.048.284-.138.437-.271.054 0 .081.025.081.076v.666c0 .051-.027.076-.081.076a1.373 1.373 0 0 0-.437-.271c-.137-.048-.226-.07-.266-.066a.162.162 0 0 0-.1.042v.647c0 .134.106.2.321.2h.161a1.44 1.44 0 0 0 .529-.124c.136-.067.234-.13.295-.188.06-.059.153-.141.28-.246.034-.034.05-.031.05.01a1.425 1.425 0 0 1-.266.685c-.016.028-.051.042-.105.042h-2.068c-.054-.013-.08-.029-.08-.048s.016-.036.05-.052c.127-.035.19-.078.19-.129v-1.521z" fill="#040409"/><path d="M132.607 81.404c0-.313.132-.585.399-.815.266-.231.615-.346 1.047-.346.197.025.309.04.334.047a.473.473 0 0 0 .373-.061c.065-.016.106-.006.126.028.121.225.174.44.161.643-.027.032-.056.023-.085-.028-.19-.222-.346-.354-.465-.396a1.38 1.38 0 0 0-.443-.061c-.231.013-.395.099-.494.26-.1.16-.149.403-.149.73 0 .273.049.507.149.7.098.193.263.291.494.291.174-.032.288-.085.342-.16a.534.534 0 0 0 .097-.264.286.286 0 0 0-.093-.256.456.456 0 0 0-.255-.12c-.06-.054-.057-.092.01-.114h.944c.054 0 .08.013.08.037 0 .026-.023.051-.07.077-.073.361-.2.617-.379.766-.18.149-.404.217-.676.205-.396 0-.731-.115-1.005-.346-.276-.231-.423-.503-.442-.817z" fill="#040409"/><path d="M134.489 82.47c-.047-.038-.054-.069-.021-.09a.485.485 0 0 0 .221-.186l1.131-2.013a.106.106 0 0 1 .074-.033c.027 0 .056.011.085.033l.938 1.985c.034.073.109.142.227.209.07.02.079.051.025.095h-.794c-.073-.038-.06-.073.041-.105.073-.028.123-.058.146-.09.023-.031.026-.075.01-.129l-.517-1.104-.648 1.133-.005.048c-.02.037.023.088.131.152.06.026.067.057.021.095h-1.065z" fill="#040409"/><path d="M136.687 80.643c-.054-.305-.054-.559 0-.762.04-.202.175-.405.406-.606.231-.201.52-.329.868-.383.047 0 .067.022.06.066-.261.159-.445.34-.552.543a.985.985 0 0 0-.08.685l.08.304.482 1.219c.265.523.238 1.031-.08 1.522-.258.308-.613.543-1.064.705-.06.006-.088-.013-.08-.057.415-.393.635-.726.662-.997.026-.272-.081-.662-.322-1.173l-.38-1.066z" fill="#040409"/><path d="M137.903 82.47c-.047-.038-.054-.069-.021-.09a.485.485 0 0 0 .221-.186l1.13-2.013a.107.107 0 0 1 .075-.033c.027 0 .056.011.085.033l.938 1.985c.034.073.11.142.227.209.07.02.079.051.025.095h-.794c-.073-.038-.06-.073.041-.105a.332.332 0 0 0 .146-.09c.023-.031.026-.075.01-.129l-.517-1.104-.647 1.133-.005.048c-.02.037.023.088.13.152.06.026.067.057.021.095h-1.065z" fill="#040409"/><path d="M140.573 82.375c.16-.051.241-.127.241-.229v-1.732h-.161c-.321.034-.562.095-.723.181-.101.051-.154.054-.161.009l.206-.295c.024-.032.062-.048.116-.048h2.168c.054 0 .092.015.115.048l.206.295c-.007.045-.06.041-.16-.009-.161-.086-.402-.146-.723-.181h-.161v1.732c0 .102.08.177.241.229.06.02.06.051 0 .095h-1.205c-.059-.045-.059-.076.001-.095z" fill="#040409"/><path d="M142.37 81.785v-1.219c0-.101-.081-.165-.241-.19-.06-.032-.06-.07 0-.114h1.164c.06.045.06.082 0 .114-.16.025-.241.089-.241.19v1.219a.488.488 0 0 0 .175.361.58.58 0 0 0 .397.143.565.565 0 0 0 .39-.143c.106-.095.161-.277.162-.547v-1.033c0-.101-.08-.165-.241-.19-.054-.032-.054-.07 0-.114h.833c.047.028.054.07.02.124-.22.02-.331.08-.331.181v1.291c.007.152-.081.302-.262.45-.181.147-.425.221-.732.221-.342-.006-.608-.08-.799-.22-.191-.142-.29-.317-.294-.524z" fill="#040409"/><path d="M144.773 82.356c.161-.039.241-.108.241-.21v-1.503c0-.153-.09-.238-.27-.257-.057-.039-.06-.079-.01-.124h1.566c.32 0 .545.06.677.18a.562.562 0 0 1 .197.43.56.56 0 0 1-.188.425.627.627 0 0 1-.485.155.165.165 0 0 0 .06.057c.027.016.084.089.171.219.168.292.414.522.738.69l.115.042c.028.025.041.051.041.076 0 .026-.026.05-.08.072h-.106c-.365-.038-.647-.106-.848-.205a1.17 1.17 0 0 1-.492-.466 1.392 1.392 0 0 1-.221-.567c-.024-.108-.002-.141.065-.1l.116.019c.101.019.199-.015.296-.101a.412.412 0 0 0 .146-.318c0-.168-.044-.292-.13-.37a.453.453 0 0 0-.311-.116.407.407 0 0 0-.268.055.174.174 0 0 0-.054.126v1.58c0 .102.081.171.241.21.06.019.06.057 0 .114h-1.205c-.062-.056-.062-.094-.002-.113z" fill="#040409"/><path d="M149.512 82.546l-1.686-1.304v1.076c0 .102.073.171.22.21.06.019.06.051 0 .096h-.723c-.06-.045-.06-.077 0-.096.148-.038.221-.108.221-.21v-1.37a1.188 1.188 0 0 0-.122-.312.875.875 0 0 0-.173-.212c-.065-.054-.1-.095-.106-.123 0-.026.017-.038.05-.038.351.009 1.058.444 2.119 1.304v-.971c0-.102-.06-.175-.181-.219-.051-.025-.051-.054 0-.086h.632c.054.032.054.061 0 .086-.12.045-.181.117-.181.219v1.899c.001.047-.022.064-.07.051z" fill="#040409"/><path fill="#030408" d="M140.618 57.454h9.808v10.283h-9.808zM121.492 57.454h9.383v10.283h-9.383z"/><path d="M135.915 56.213a7.009 7.009 0 0 0-7.017 7.017c0 3.895 3.122 7.017 7.017 7.017s7.017-3.122 7.017-7.017a7.009 7.009 0 0 0-7.017-7.017zm0 10.94c-2.161 0-3.922-1.734-3.922-3.922s1.734-3.922 3.922-3.922a3.911 3.911 0 0 1 3.922 3.922 3.912 3.912 0 0 1-3.922 3.922z" fill="#d6d7d8"/><path d="M135.915 56.213v-.307a7.31 7.31 0 0 0-5.176 2.137 7.297 7.297 0 0 0-2.148 5.186 7.303 7.303 0 0 0 7.324 7.324 7.303 7.303 0 0 0 7.324-7.324 7.295 7.295 0 0 0-2.148-5.186 7.309 7.309 0 0 0-5.176-2.137v.614c3.7 0 6.71 2.985 6.71 6.71a6.684 6.684 0 0 1-6.71 6.71 6.684 6.684 0 0 1-6.71-6.71 6.7 6.7 0 0 1 6.71-6.71v-.307zm0 10.94v-.307a3.604 3.604 0 0 1-3.615-3.615c0-1.012.4-1.913 1.051-2.565a3.606 3.606 0 0 1 2.565-1.051 3.604 3.604 0 0 1 3.615 3.615 3.604 3.604 0 0 1-3.615 3.615v.615a4.226 4.226 0 0 0 2.988-1.23 4.213 4.213 0 0 0 1.241-2.999 4.226 4.226 0 0 0-1.23-2.988 4.213 4.213 0 0 0-2.999-1.241 4.216 4.216 0 0 0-2.998 1.23 4.213 4.213 0 0 0-1.23 2.998c0 1.177.475 2.237 1.241 2.999a4.223 4.223 0 0 0 2.988 1.23v-.306z" fill="#3b3a3c"/><path d="M135.915 55.173c-4.456 0-8.058 3.629-8.058 8.058s3.602 8.058 8.058 8.058c4.456 0 8.058-3.629 8.058-8.058 0-4.43-3.602-8.058-8.058-8.058zm0 15.528c-4.136 0-7.471-3.362-7.471-7.471s3.362-7.471 7.471-7.471 7.471 3.362 7.471 7.471-3.335 7.471-7.471 7.471z" fill="#bbbdbf"/><path d="M109.614 67.737h12.355v-1.001h-12.506c.044.336.095.669.151 1.001M109.453 66.736h.01M162.596 63.23c0 1.536-.13 3.041-.38 4.506h-12.668V63.23h13.048z" fill="#030408"/><path d="M159.547 50.839h-38.055v.356h38.238l-.002.001c-.06-.119-.121-.238-.184-.356M132.306 77.807h-.106v-.733l-.241.733h-.101l-.241-.733v.733h-.106v-.861h.168l.229.718.23-.718h.168zM133.191 77.807h-.126l-.098-.262h-.354l-.094.262h-.119l.325-.861h.121l.345.861zm-.258-.352l-.149-.399-.142.399h.291zM133.284 76.946h.269c.288 0 .431.142.431.426 0 .29-.144.435-.431.435h-.269v-.861zm.113.759h.154c.123 0 .206-.029.251-.087a.393.393 0 0 0 .067-.246.374.374 0 0 0-.067-.239c-.044-.056-.128-.084-.251-.084h-.154v.656zM134.769 77.807h-.631v-.861h.612v.102h-.5v.263h.467v.102h-.467v.292h.519zM135.255 76.946h.113v.861h-.113zM136.234 77.807h-.115l-.443-.68v.68h-.106v-.861h.114l.443.679v-.679h.107zM137.139 77.531c0 .106-.02.18-.06.224-.04.044-.099.066-.177.066a.218.218 0 0 1-.166-.065.241.241 0 0 1-.061-.172v-.023h.113c0 .105.038.158.115.158.04 0 .071-.012.093-.035.022-.023.032-.072.032-.147v-.592h.112v.586zM138.024 77.807h-.127l-.098-.262h-.354l-.094.262h-.118l.325-.861h.121l.345.861zm-.258-.352l-.149-.399-.142.399h.291zM138.118 76.946h.316a.66.66 0 0 1 .174.02.184.184 0 0 1 .111.085.272.272 0 0 1 .041.146c0 .087-.027.153-.082.198a.36.36 0 0 1-.236.068h-.213v.344h-.112v-.861zm.112.415h.214c.072 0 .123-.014.154-.041.031-.027.046-.067.046-.119a.17.17 0 0 0-.025-.092.109.109 0 0 0-.064-.051.459.459 0 0 0-.112-.01h-.212v.313zM139.601 77.807h-.127l-.098-.262h-.355l-.094.262h-.118l.325-.861h.121l.346.861zm-.257-.352l-.149-.399-.142.399h.291zM140.359 77.807h-.114l-.444-.68v.68h-.106v-.861h.114l.444.679v-.679h.106z" fill="#7a7a62"/></g></svg>