<svg id="Layer_1" data-name="Layer 1" xmlns="http://www.w3.org/2000/svg" viewBox="0 0 105 105"><title>icon_filled</title><path d="M42.81,1.85c-4.89,1-9.83,1.82-14.66,3.07C20.9,6.81,14.05,9.64,8.36,14.71A24.19,24.19,0,0,0,6.44,49.44c.66.74,1.24,1.55,1.85,2.32l11.39,6.51,6.48,2.48,3.79,1a145.39,145.39,0,0,0,29,3.56c.92,0,1.85,0,2.77,0V.72l-16.37,1-2.12.14Z" fill="#e04444"/><path d="M76.84,31V.89L63,.71V65.26l13.82-.11V31Z" fill="#e04444"/><path d="M19.68,54.27,8.29,47.76C7.48,52.84,6.52,57.9,5.9,63A143.94,143.94,0,0,0,5,91.07c.26,3.56.69,7.12,1.2,10.66C6.51,103.93,7.8,105,10,105c4.22,0,8.45.06,12.67,0,2.81,0,4-1.81,2.78-4.29-3.31-6.81-4.59-14.13-5.36-21.54-.59-5.54-.76-11.14-.92-16.71C19.13,59.7,19.51,57,19.68,54.27Z" fill="#dc4849"/><path d="M81.89,36.26c2.16,5.62,7.18,7,10.7,6.28a9.23,9.23,0,1,0-10.18-13c-.25.51-.43,1.05-.65,1.58C81.8,32.86,81.84,34.56,81.89,36.26Z" fill="#e8dd70"/><path d="M63,65.26V.71H61.73v64.5Z" fill="#c93030"/><path d="M30,61.71l-3.79-1c.38,2.86.82,5.67,2.86,8,1.06,1.2,2.16,1.86,4.05.8C31.19,67.24,29.39,64.89,30,61.71Z" fill="#dd804f"/><path d="M81.89,36.26c0-1.7-.09-3.4-.13-5.1L76.84,31v5.34Z" fill="#c53a39"/></svg>