<svg xmlns="http://www.w3.org/2000/svg" width="563.053" height="648.513" viewBox="0 0 148.974 171.586"><path d="M53.889 66.793c-8.23 0-14.98-6.69-14.98-14.98 0-8.288 6.69-14.978 14.98-14.978 8.288 0 14.979 6.69 14.979 14.979 0 8.288-6.69 14.979-14.98 14.979zm0-23.8c-4.855 0-8.822 3.966-8.822 8.82 0 4.855 3.967 8.822 8.822 8.822 4.854 0 8.821-3.967 8.821-8.821 0-4.855-3.967-8.822-8.821-8.822z" class="st0" fill="red"/><path d="M103.976 67.74h-.414l-22.735-2.96c-.829-.119-1.54-.533-2.013-1.185-.474-.65-.71-1.48-.592-2.25l2.96-22.734c.237-1.658 1.776-2.901 3.434-2.664l22.735 2.96c.829.118 1.54.533 2.013 1.184.474.651.71 1.48.592 2.25l-2.96 22.735c-.178 1.539-1.48 2.664-3.02 2.664zm-19.241-8.703l16.577 2.19 2.19-16.577-16.577-2.19z" class="st1" fill="#ff5ddc"/><path d="M54.303 29.375c-.178 0-.414 0-.651-.06-1.658-.355-2.724-1.953-2.368-3.61l4.854-23.268C56.494.779 58.092-.287 59.75.068c1.658.356 2.723 1.954 2.368 3.612l-4.855 23.267c-.236 1.421-1.539 2.428-2.96 2.428z" class="st2" fill="#027fe1"/><path d="M68.394 20.139c-.178 0-.415 0-.651-.06l-23.268-4.854c-1.658-.355-2.723-1.954-2.368-3.611.355-1.658 1.954-2.724 3.611-2.369L68.986 14.1c1.658.355 2.723 1.954 2.368 3.612a3.036 3.036 0 0 1-2.96 2.427z" class="st2" fill="#027fe1"/><path d="M84.38 27.717c-.77 0-1.48-.296-2.014-.77a2.974 2.974 0 0 1-.947-2.9l4.204-20.012c.236-1.066 1.006-1.954 2.013-2.25a3.096 3.096 0 0 1 3.019.592l15.334 13.5a2.974 2.974 0 0 1 .947 2.9c-.236 1.066-1.006 1.954-2.013 2.31L85.386 27.54c-.355.118-.71.177-1.007.177zm6.097-17.288l-2.013 9.65 9.414-3.137z" class="st3" fill="#8aee49"/><path d="M148.854 134.346c-.237-11.072-.533-14.565-1.54-18.828-3.493-14.564-9.354-25.754-18.176-34.516-11.781-11.723-25.813-12.789-42.627-3.197l-4.678 2.664s-15.452-.178-16.755-1.125c-.888-.592-3.433-2.013-5.683-3.138-11.427-5.684-21.67-6.335-30.728-1.894-12.196 5.98-22.912 22.498-27.352 42.094-1.244 5.625-1.362 7.401-1.303 21.788.06 16.163.355 18.886 2.723 23.564 2.132 4.322 5.388 7.163 10.184 9.058 7.756 3.02 20.78-5.27 31.497-20.13l3.611-4.973h52.752l3.612 4.973c8.466 11.723 20.425 20.9 27.234 20.9 5.624 0 11.604-4.145 14.505-10.184 2.546-5.21 3.138-10.834 2.724-27.056zM54.895 113.15h-7.993v7.993c0 2.486-2.072 4.559-4.558 4.559-2.487 0-4.56-2.073-4.56-4.56v-7.992h-7.992c-2.486 0-4.559-2.072-4.559-4.559 0-2.486 2.073-4.558 4.56-4.558h7.992V96.04c0-2.487 2.072-4.559 4.559-4.559 2.486 0 4.558 2.072 4.558 4.559v7.993h7.993c2.487 0 4.559 2.072 4.559 4.558-.06 2.546-2.072 4.56-4.559 4.56zm58.85-24.984c3.848 0 6.986 3.137 6.986 6.986 0 3.848-3.138 6.986-6.986 6.986s-6.986-3.138-6.986-6.986c.06-3.849 3.138-6.986 6.986-6.986zm-22.676 13.498c0-3.848 3.138-6.986 6.987-6.986 3.848 0 6.986 3.138 6.986 6.986 0 3.849-3.138 6.987-6.986 6.987-3.849 0-6.987-3.138-6.987-6.987zm14.506 23.623c-3.849 0-6.986-3.138-6.986-6.986s3.137-6.986 6.986-6.986c3.848 0 6.986 3.138 6.986 6.986s-3.138 6.986-6.986 6.986zm14.683-6.986c-3.849 0-6.987-3.138-6.987-6.986 0-3.849 3.138-6.986 6.987-6.986 3.848 0 6.986 3.137 6.986 6.986a6.961 6.961 0 0 1-6.986 6.986z" class="st4" fill="gray"/></svg>