<svg xmlns="http://www.w3.org/2000/svg" xmlns:xlink="http://www.w3.org/1999/xlink" viewBox="0 0 388.271 250"><g fill="#7942ba"><path d="M130.755 179.231s.628 16.936 79.037 20.701h7.909c78.409-3.765 79.036-20.701 79.036-20.701v-260.33s0-7.526-8.155-6.901H138.91c-8.153-.625-8.155 6.901-8.155 6.901v260.33z"/><path d="M135.394-62.138c0 .469-.219.847-.492.847h-4.411c-.272 0-.49-.379-.49-.847 0-.468.218-.847.49-.847h4.411c.273 0 .492.379.492.847zM135.394-52.686c0 .468-.219.847-.492.847h-4.411c-.272 0-.49-.379-.49-.847 0-.468.218-.847.49-.847h4.411c.273 0 .492.378.492.847zM135.394-43.235c0 .468-.219.847-.492.847h-4.411c-.272 0-.49-.379-.49-.847 0-.469.218-.847.49-.847h4.411c.273 0 .492.379.492.847zM135.394-33.783c0 .469-.219.848-.492.848h-4.411c-.272 0-.49-.38-.49-.848 0-.469.218-.846.49-.846h4.411c.273 0 .492.377.492.846zM297.333-62.138c0 .469-.218.847-.488.847h-4.416c-.27 0-.491-.379-.491-.847 0-.468.221-.847.491-.847h4.416c.271 0 .488.379.488.847zM297.333-52.686c0 .468-.218.847-.488.847h-4.416c-.27 0-.491-.379-.491-.847 0-.468.221-.847.491-.847h4.416c.271 0 .488.378.488.847zM297.333-43.235c0 .468-.218.847-.488.847h-4.416c-.27 0-.491-.379-.491-.847 0-.469.221-.847.491-.847h4.416c.271 0 .488.379.488.847zM297.333-33.783c0 .469-.218.848-.488.848h-4.416c-.27 0-.491-.38-.491-.848 0-.469.221-.846.491-.846h4.416c.271 0 .488.377.488.846z"/></g><path d="M269.472-87.898h-111.61V152.57c0 4.469 2.23 8.403 5.61 10.702v.002s6.268 3.419 50.92 3.419c28.104 0 40.577.173 45.963-1.777 5.246-1.534 9.088-6.477 9.088-12.344v-2.806h.03l-.001-237.664z" fill="#7042b2"/><path d="M213.67-79.318h61.863c12.765-.086 11.79 5.381 11.79 5.381V41.224s1.115 6.391-6.873 8.153c-7.805 1.721-10.994 2.766-66.692 4.656-55.698-1.89-58.887-2.934-66.692-4.656-7.988-1.762-6.873-8.153-6.873-8.153V-73.937s-.976-5.467 11.79-5.381h61.863-.176z" fill="#333"/><path d="M213.757 56.013l-.067-.003c-53.328-1.809-58.637-2.929-65.985-4.477l-1.042-.218c-6.735-1.401-8.472-7.223-8.45-10.107V-71.958c-.003-.43.046-4.407 2.705-7.086 1.485-1.495 3.432-2.253 5.786-2.253h134.281c2.355 0 4.302.758 5.786 2.253 2.659 2.679 2.708 6.655 2.705 7.1V41.224c.023 2.868-1.714 8.691-8.45 10.091l-.972.203c-7.387 1.554-12.724 2.677-66.231 4.492l-.066.003zM146.704-77.339c-1.279 0-2.253.355-2.977 1.084-1.286 1.295-1.561 3.584-1.556 4.283V41.224c.003.526.181 5.152 5.297 6.215l1.053.221c7.149 1.507 12.316 2.595 65.236 4.392 53.099-1.803 58.295-2.895 65.484-4.408l.981-.206c5.116-1.063 5.294-5.69 5.297-6.213V-71.958c-.002-.903-.231-5.381-4.533-5.381H146.704z" fill="#272727"/><path fill="#8e827b" d="M165.053-62.279h97.228v85.311h-97.228z"/><g fill="#2b2b2b"><path d="M170.551 120.469a1.98 1.98 0 0 1-1.982 1.982h-9.208a1.98 1.98 0 0 1-1.982-1.982V82.407c0-1.097.888-1.986 1.982-1.986h9.208c1.095 0 1.982.889 1.982 1.986v38.062z"/><path d="M182.996 94.852a1.98 1.98 0 0 1 1.982 1.982v9.207a1.98 1.98 0 0 1-1.982 1.983h-38.063a1.98 1.98 0 0 1-1.981-1.983v-9.207a1.98 1.98 0 0 1 1.981-1.982h38.063z"/></g><path d="M168.821 101.779a4.708 4.708 0 1 1-9.416-.002 4.708 4.708 0 0 1 9.416.002zM175.333 96.811l8.285 4.47-8.285 4.473zM152.372 105.754l-8.284-4.469 8.284-4.474zM159.389 90.301l4.472-8.28 4.474 8.28zM168.335 113.254l-4.472 8.283-4.474-8.283z" fill="#3a3a3a"/><g fill="#c1c1c1"><path d="M176.282 40.949c-.637.187-1.707.43-2.858.43-1.291 0-2.344-.302-3.081-.919-.735-.593-1.068-1.453-1.068-2.348 0-1.398.666-2.712 1.875-3.583 1.027-.733 2.427-1.152 3.995-1.152 1.18 0 2.025.209 2.36.36l-.5 1.142c-.445-.187-1.137-.325-1.984-.325-.999 0-1.916.265-2.609.766a3.33 3.33 0 0 0-1.375 2.688c0 1.407.917 2.221 2.665 2.221.5 0 .917-.081 1.194-.175l.443-1.965h-1.652l.265-1.094h3.217l-.887 3.954z"/><path d="M178.572 39.065l-1.278 2.233h-1.719l4.689-7.84h2.025l1.18 7.84h-1.692l-.263-2.233h-2.942zm2.844-1.047l-.263-1.955c-.041-.419-.098-1.023-.139-1.49h-.028c-.25.467-.498 1.025-.762 1.49l-1.139 1.955h2.331z"/><path d="M190.314 41.298l.621-3.686a46.34 46.34 0 0 1 .57-2.875h-.041a47.695 47.695 0 0 1-1.556 2.758l-2.302 3.71h-1.25l-.484-3.653a42.842 42.842 0 0 1-.251-2.814h-.026c-.251.895-.53 2.083-.764 2.875l-1.069 3.686h-1.499l2.375-7.84h2.135l.501 3.663c.069.7.167 1.513.179 2.257h.058c.332-.745.775-1.57 1.178-2.245l2.262-3.675h2.166l-1.235 7.84h-1.568zM197.722 37.808h-3.358l-.529 2.339h3.775l-.264 1.151h-5.397l1.775-7.84h5.19l-.263 1.152h-3.568l-.471 2.059h3.373l-.263 1.139zM203.119 33.586a12.706 12.706 0 0 1 2.248-.187c.969 0 1.677.142 2.248.479.54.277.902.744.902 1.337 0 .989-.916 1.661-1.943 1.897v.033c.873.222 1.498.826 1.498 1.721 0 .825-.526 1.443-1.206 1.839-.778.467-1.889.638-3.304.638-.943 0-1.721-.045-2.163-.115l1.72-7.642zm.07 6.655c.264.024.554.033.86.033 1.207 0 2.318-.406 2.318-1.452 0-.838-.848-1.152-1.832-1.152h-.763l-.583 2.571zm.831-3.572h.749c1.209 0 2.083-.477 2.083-1.281 0-.639-.596-.916-1.484-.916-.376 0-.695.021-.862.057l-.486 2.14z"/><path d="M216.844 36.575c0 1.396-.598 2.839-1.695 3.746-.845.696-1.982 1.103-3.344 1.103-2.413 0-3.677-1.477-3.677-3.231 0-1.398.625-2.864 1.75-3.771.845-.687 2.025-1.094 3.289-1.094 2.497.001 3.677 1.457 3.677 3.247zm-5.719-1.431c-.818.687-1.29 1.968-1.29 2.978 0 1.187.639 2.163 2.207 2.163.679 0 1.331-.244 1.817-.662.806-.676 1.264-2.011 1.264-3 0-1.036-.431-2.151-2.152-2.151-.721 0-1.346.253-1.846.672z"/><path d="M217.497 41.298l.735-3.222-1.819-4.618h1.72l.734 2.234c.209.675.307 1.022.391 1.372h.026c.251-.371.555-.815.972-1.396l1.68-2.21h1.913l-4.01 4.594-.736 3.246h-1.606z"/></g><path d="M230.763 38.565a.888.888 0 0 1 .51-.233c.192-.022.364.002.525.067a.767.767 0 0 1 .368.323c.089.144.11.316.065.517a1.38 1.38 0 0 1-.324.558 5.863 5.863 0 0 1-.476.472 3.532 3.532 0 0 1-1.207.759c-.441.163-.889.24-1.341.233a3.57 3.57 0 0 1-1.326-.29 3.447 3.447 0 0 1-1.166-.825 3.896 3.896 0 0 1-.518-.693 3.262 3.262 0 0 1-.32-.764 3.982 3.982 0 0 1-.151-1.23c.007-.424.081-.838.222-1.24a4.33 4.33 0 0 1 .592-1.135c.258-.354.571-.659.942-.907.27-.184.544-.343.817-.479.275-.132.564-.259.873-.376.176-.064.357-.129.543-.194.187-.062.378-.108.573-.146.196-.031.392-.043.586-.036.196.009.39.048.574.112.13.051.261.122.391.209a2.46 2.46 0 0 1 .656.656c.083.126.143.249.182.366a.9.9 0 0 1 .02.331.703.703 0 0 1-.109.308.81.81 0 0 1-.249.233.89.89 0 0 1-.348.117c-.215.026-.377.004-.495-.06a.894.894 0 0 1-.28-.254l-.203-.292a.52.52 0 0 0-.276-.209.732.732 0 0 0-.17.012c-.318.075-.637.18-.955.309-.323.127-.62.285-.893.469a3.389 3.389 0 0 0-.721.639 2.354 2.354 0 0 0-.448.816 2.871 2.871 0 0 0-.124 1.09c.026.369.139.713.335 1.038.113.195.258.362.445.503.187.144.393.249.617.321.223.072.45.096.683.074.233-.022.455-.094.668-.218.189-.118.353-.261.504-.433.153-.172.287-.344.409-.518z" fill="#ff004f"/><path d="M239.498 37.853a7.665 7.665 0 0 1-.563 1.269 4.88 4.88 0 0 1-.833 1.11c-.33.326-.71.589-1.147.79-.435.201-.933.302-1.494.302a5.685 5.685 0 0 1-.859-.089 2.701 2.701 0 0 1-.612-.192 2.372 2.372 0 0 1-.913-.447 2.829 2.829 0 0 1-.641-.714c-.17-.27-.304-.56-.395-.864a4.31 4.31 0 0 1-.174-.888 4.492 4.492 0 0 1 .143-1.535c.139-.517.356-.996.658-1.434a4.496 4.496 0 0 1 1.137-1.127c.46-.314.982-.517 1.565-.617a4.41 4.41 0 0 1 .919-.048c.312.014.613.069.905.162.242.076.465.165.674.266.208.101.404.231.595.385a2.976 2.976 0 0 1 1.008 1.52c.096.363.136.723.129 1.08a7.436 7.436 0 0 1-.102 1.071zm-3.351 1.959a2.37 2.37 0 0 0 .682-.403c.192-.165.364-.349.51-.551a3.4 3.4 0 0 0 .366-.644c.101-.229.19-.457.266-.692a5.34 5.34 0 0 0 .084-.904 1.851 1.851 0 0 0-.211-.883 1.669 1.669 0 0 0-.55-.599 2.372 2.372 0 0 0-.81-.345 2.419 2.419 0 0 0-.885-.042 1.697 1.697 0 0 0-.795.313 3.356 3.356 0 0 0-.797.831 3.663 3.663 0 0 0-.46 1.016 3.789 3.789 0 0 0-.141.929c-.007.325.048.634.17.929.091.217.232.417.418.593a2.1 2.1 0 0 0 1.372.589 1.95 1.95 0 0 0 .781-.137z" fill="#7942ba"/><path d="M252.503 37.612a8.133 8.133 0 0 1-.603 1.359 5.197 5.197 0 0 1-.891 1.187 4.275 4.275 0 0 1-1.226.843c-.462.215-.996.323-1.596.323a6.45 6.45 0 0 1-.919-.091 3.687 3.687 0 0 1-.655-.206 2.54 2.54 0 0 1-.975-.481 3.056 3.056 0 0 1-.684-.761 3.545 3.545 0 0 1-.421-.927 4.675 4.675 0 0 1-.187-.95 4.696 4.696 0 0 1 .151-1.638 4.892 4.892 0 0 1 .706-1.532 4.647 4.647 0 0 1 1.219-1.206 4.157 4.157 0 0 1 1.67-.663c.323-.049.649-.068.982-.049.333.015.655.075.969.173.257.081.498.177.718.287.22.103.436.24.637.407a3.221 3.221 0 0 1 1.076 1.627c.101.388.146.774.137 1.154a7.608 7.608 0 0 1-.108 1.144zm-3.583 2.096c.277-.109.519-.25.727-.428.208-.179.387-.376.548-.591.155-.215.284-.443.392-.689.108-.242.2-.491.283-.74.055-.313.084-.637.088-.964a1.957 1.957 0 0 0-.224-.946 1.743 1.743 0 0 0-.589-.639 2.527 2.527 0 0 0-.861-.373 2.695 2.695 0 0 0-.951-.043c-.318.04-.6.153-.85.337a3.597 3.597 0 0 0-.849.885 3.86 3.86 0 0 0-.491 1.087 3.825 3.825 0 0 0-.153.994c-.009.349.051.677.181.99a1.9 1.9 0 0 0 .45.634 2.233 2.233 0 0 0 1.465.627c.28.013.559-.035.834-.141z" fill="#f9e52d"/><path d="M254.485 40.458a.773.773 0 0 1-.294.512c-.167.134-.35.219-.546.259a.893.893 0 0 1-.536-.055c-.163-.077-.249-.227-.261-.455a62.552 62.552 0 0 1-.068-2.989v-3.079a.642.642 0 0 1-.469-.555.826.826 0 0 1 .048-.374.92.92 0 0 1 .214-.325c.1-.101.239-.191.413-.273.18-.086.374-.162.581-.232a9.294 9.294 0 0 1 1.139-.297 4.736 4.736 0 0 1 1.772.006 4.408 4.408 0 0 1 1.569.606c.452.294.789.674 1.013 1.143.223.47.247 1.004.069 1.607a3.83 3.83 0 0 1-.208.501 2.977 2.977 0 0 1-.292.464 2.825 2.825 0 0 1-.561.574 5.72 5.72 0 0 1-.698.465c.176.168.347.343.503.526.16.185.335.35.531.503.075.058.184.149.328.273.144.126.287.26.419.404.133.141.253.28.357.419.101.136.148.251.138.345a.824.824 0 0 1-.146.431.976.976 0 0 1-.32.302.812.812 0 0 1-.86-.03 3 3 0 0 1-.474-.415 12.026 12.026 0 0 0-.433-.437 54.781 54.781 0 0 1-.899-.908 27.347 27.347 0 0 0-.903-.899 4.575 4.575 0 0 1-.564.072c-.19.011-.379.026-.563.043V40.458zm2.499-6.071a2.957 2.957 0 0 0-1.224-.338 3.456 3.456 0 0 0-1.276.164v2.833c.416-.023.826-.074 1.233-.145.404-.069.78-.227 1.123-.467.189-.136.34-.293.457-.474.115-.177.184-.362.209-.551a1.047 1.047 0 0 0-.084-.55c-.079-.18-.225-.338-.438-.472z" fill="#00b3dd"/><path d="M245.034 39.357c.223.076.393.177.514.311a.673.673 0 0 1 .197.419.652.652 0 0 1-.15.429c-.106.138-.276.25-.513.335a1.61 1.61 0 0 1-.385.076c-.168.017-.4.039-.695.06l-1.13.091c-.455.034-1.014.086-1.68.146-.165.021-.337.038-.514.052a.687.687 0 0 1-.472-.127.703.703 0 0 1-.275-.364 2.557 2.557 0 0 1-.139-.531 6.326 6.326 0 0 1-.059-.565c-.01-.186-.019-.342-.029-.469-.019-.25-.041-.537-.062-.862-.021-.324-.043-.659-.062-.997-.025-.337-.048-.668-.074-.992-.024-.324-.048-.613-.067-.863-.034-.443-.057-.8-.07-1.07a3.72 3.72 0 0 1 .013-.642c.019-.157.062-.274.132-.349a.996.996 0 0 1 .294-.209.772.772 0 0 1 .364-.068c.137 0 .26.024.383.067.12.046.223.113.312.203a.5.5 0 0 1 .14.307c.101 1 .178 1.991.237 2.976.058.986.127 1.967.203 2.951.584-.048 1.169-.096 1.748-.155.577-.058 1.163-.118 1.754-.182l.085.022z" fill="#aae000"/><circle cx="242.472" cy="107.658" r="9.976" fill="#2b2b2b"/><path d="M240.272 112.616h-2.438v-9.178h2.308c1.455 0 2.544.722 2.544 2.425 0 .748-.34 1.561-1.075 1.902.774.276 1.233 1.088 1.233 2.085-.001 1.835-1.051 2.766-2.572 2.766zm-.092-7.932h-1.075v2.492h1.049c.682 0 1.219-.393 1.219-1.272 0-.905-.498-1.22-1.193-1.22zm-.052 3.723h-1.023v2.964h1.155c.772 0 1.271-.419 1.271-1.521-.001-1.023-.603-1.443-1.403-1.443z" fill="#414042"/><circle cx="271.957" cy="98.569" r="9.976" fill="#2b2b2b"/><path d="M271.738 103.601l-.539-2.425h-1.993l-.524 2.425h-1.364l2.255-9.177h1.324l2.242 9.177h-1.401zm-1.141-5.192c-.132-.603-.328-1.665-.394-2.006-.065.341-.262 1.39-.393 2.006l-.34 1.547h1.468l-.341-1.547z" fill="#414042"/><g fill="#bac2c5"><path d="M146.538-30.773h.867c.135 0 .263.013.386.039a.95.95 0 0 1 .325.132c.095.061.17.144.227.247a.78.78 0 0 1 .084.382c0 .159-.03.292-.091.396s-.138.187-.233.247a.914.914 0 0 1-.312.128c-.113.024-.22.037-.322.037h-.586v1.311h-.347c.002.002.002-2.919.002-2.919zm.346 1.287h.586a.703.703 0 0 0 .423-.118c.108-.078.163-.2.163-.366 0-.165-.055-.287-.163-.365a.706.706 0 0 0-.423-.118h-.586v.967zM150.259-27.778c-.223 0-.427-.039-.612-.116a1.43 1.43 0 0 1-.8-.807 1.62 1.62 0 0 1-.113-.612c0-.22.038-.424.113-.613a1.43 1.43 0 0 1 .8-.807c.185-.077.39-.116.612-.116.222 0 .427.039.613.116a1.423 1.423 0 0 1 .801.807c.076.189.113.393.113.613 0 .22-.037.424-.113.612a1.433 1.433 0 0 1-.801.807c-.186.077-.39.116-.613.116zm0-.322c.17 0 .327-.031.468-.094a1.13 1.13 0 0 0 .603-.645c.056-.147.085-.305.085-.472 0-.167-.029-.325-.085-.472a1.164 1.164 0 0 0-.237-.385 1.104 1.104 0 0 0-.834-.355 1.122 1.122 0 0 0-1.071.74 1.318 1.318 0 0 0-.085.472c0 .167.029.325.085.472.056.148.136.276.237.385a1.104 1.104 0 0 0 .834.354zM151.921-30.773h.384l.664 2.426h.008l.717-2.426h.388l.714 2.426h.008l.677-2.426h.363l-.858 2.921h-.375l-.722-2.475h-.007l-.726 2.475h-.38l-.855-2.921zM156.233-30.773h1.836v.322h-1.49v.916h1.39v.322h-1.39v1.039h1.564v.322h-1.91v-2.921zM158.68-30.773h.747c.14 0 .279.008.418.025.139.017.263.053.374.108.11.055.199.135.268.241.069.106.103.249.103.431a.71.71 0 0 1-.194.52c-.129.132-.308.216-.537.252l.829 1.345h-.425l-.792-1.311h-.445v1.311h-.347l.001-2.922zm.346 1.287h.309c.096 0 .196-.002.299-.008.103-.005.198-.023.285-.053a.5.5 0 0 0 .214-.142c.056-.064.085-.157.085-.279a.45.45 0 0 0-.062-.252.41.41 0 0 0-.163-.146.7.7 0 0 0-.227-.068 1.946 1.946 0 0 0-.254-.016h-.487l.001.964z"/></g><circle cx="148.947" cy="-34.66" r="2.706" fill="#e50016"/><path d="M152.068-37.089l-.061.003c.547.658.877 1.504.877 2.426 0 .922-.329 1.768-.877 2.426l.061.003a2.429 2.429 0 1 0 0-4.858zM155.301-37.089l-.061.003c.547.658.877 1.504.877 2.426 0 .922-.329 1.768-.877 2.426l.061.003a2.429 2.429 0 1 0 0-4.858zM158.556-37.089l-.061.003c.547.658.877 1.504.877 2.426 0 .922-.329 1.768-.877 2.426l.061.003a2.429 2.429 0 1 0 0-4.858z" fill="#bac2c5"/><g fill="#2b2b2b"><path d="M253.315 158.93a.993.993 0 0 1-.995.993.99.99 0 0 1-.988-.993.992.992 0 0 1 1.983 0zM258.269 162.896c0 .549-.443.989-.991.989s-.991-.44-.991-.989a.99.99 0 1 1 1.982 0zM258.269 157.939c0 .55-.443.991-.991.991a.989.989 0 1 1 0-1.979c.548 0 .991.442.991.988zM258.269 152.984c0 .545-.443.993-.991.993a.993.993 0 0 1 0-1.984.99.99 0 0 1 .991.991zM263.224 151.993a.99.99 0 1 1-1.98.002.99.99 0 0 1 1.98-.002zM268.179 155.797c0 .545-.44.988-.99.988a.991.991 0 1 1 0-1.983c.55 0 .99.445.99.995zM268.179 150.838c0 .549-.44.991-.99.991a.988.988 0 0 1-.989-.991c0-.546.441-.989.989-.989.55 0 .99.444.99.989zM273.138 149.849a.992.992 0 1 1-1.986 0 .994.994 0 0 1 1.986 0zM278.092 183.544a.994.994 0 0 1-.992.994.992.992 0 0 1-.99-.994.99.99 0 0 1 .99-.988.99.99 0 0 1 .992.988zM278.092 178.591a.992.992 0 1 1-1.983-.001.992.992 0 0 1 1.983.001zM278.092 173.636a.99.99 0 1 1-1.981-.003.99.99 0 0 1 1.981.003zM278.092 168.679a.992.992 0 0 1-1.982 0c0-.548.443-.989.99-.989.549 0 .992.441.992.989zM278.092 163.724a.991.991 0 0 1-1.982 0c0-.546.443-.994.99-.994a.995.995 0 0 1 .992.994zM278.092 158.769a.99.99 0 1 1-1.981-.003.99.99 0 0 1 1.981.003zM278.092 153.813a.989.989 0 0 1-.992.989.99.99 0 0 1 0-1.979.99.99 0 0 1 .992.99zM278.092 148.856a.995.995 0 0 1-.992.993.993.993 0 0 1 0-1.984c.549 0 .992.446.992.991zM283.047 147.865a.99.99 0 1 1-1.981 0 .991.991 0 0 1 1.981 0zM283.047 152.823a.99.99 0 0 1-1.981 0c0-.548.443-.994.99-.994.549 0 .991.446.991.994zM288.005 151.829a.995.995 0 0 1-.991.994.994.994 0 0 1-.993-.994c0-.545.445-.991.993-.991.545 0 .991.446.991.991zM288.005 156.785a.99.99 0 0 1-.991.99.99.99 0 1 1 0-1.978.99.99 0 0 1 .991.988zM288.005 161.743a.99.99 0 0 1-.991.988.99.99 0 1 1 0-1.98c.545 0 .991.442.991.992zM288.005 166.696a.995.995 0 0 1-.991.994.994.994 0 0 1 0-1.988c.545.001.991.45.991.994zM288.005 171.652a.993.993 0 0 1-1.984 0 .99.99 0 0 1 .993-.989.99.99 0 0 1 .991.989zM288.005 176.61a.991.991 0 0 1-1.984 0 .992.992 0 0 1 1.984 0zM283.047 157.775a.992.992 0 0 1-.991.994.992.992 0 0 1 0-1.984.99.99 0 0 1 .991.99zM283.047 162.731a.992.992 0 0 1-.991.994.992.992 0 0 1 0-1.982.99.99 0 0 1 .991.988zM283.047 167.69a.99.99 0 0 1-1.981 0c0-.547.443-.994.99-.994.549 0 .991.447.991.994zM283.047 172.643a.992.992 0 1 1 0 0zM283.047 177.598a.992.992 0 0 1-.991.993.99.99 0 1 1 0-1.981c.549 0 .991.442.991.988zM283.047 182.556a.987.987 0 0 1-.991.988.99.99 0 1 1 .991-.988zM273.138 154.802a.995.995 0 0 1-.991.995.993.993 0 1 1 .991-.995zM273.138 159.758a.992.992 0 1 1-1.986 0 .994.994 0 0 1 1.986 0zM273.138 164.715a.99.99 0 0 1-.991.987.99.99 0 0 1-.995-.987.992.992 0 0 1 1.986 0zM273.138 169.67a.996.996 0 0 1-.991.993.996.996 0 0 1-.995-.993.994.994 0 0 1 1.986 0zM273.138 174.625a.996.996 0 0 1-.991.994.997.997 0 0 1-.995-.994.993.993 0 0 1 1.986 0zM273.138 179.582a.99.99 0 0 1-.991.989.991.991 0 0 1-.995-.989.994.994 0 0 1 1.986 0zM273.138 184.537a.993.993 0 0 1-1.986 0c0-.547.446-.994.995-.994a.997.997 0 0 1 .991.994zM268.179 160.751a.99.99 0 1 1-1.979 0 .99.99 0 1 1 1.979 0zM268.179 165.703a.99.99 0 1 1-1.98.008.99.99 0 0 1 1.98-.008zM268.179 170.663a.989.989 0 1 1-1.979 0 .99.99 0 1 1 1.979 0zM268.179 175.619a.99.99 0 1 1-1.979 0 .99.99 0 0 1 1.979 0zM268.179 180.571a.99.99 0 1 1-1.979 0c0-.546.441-.989.989-.989.55 0 .99.443.99.989zM268.179 185.527a.989.989 0 1 1-1.979 0 .99.99 0 1 1 1.979 0zM263.224 156.951a.99.99 0 1 1-.988-.995c.545 0 .988.447.988.995zM263.224 161.905a.99.99 0 1 1-1.981 0 .991.991 0 0 1 1.981 0zM263.224 166.858a.992.992 0 0 1-.988.993.991.991 0 1 1 .988-.993zM263.224 171.818a.99.99 0 1 1-.988-.994c.545 0 .988.445.988.994zM263.224 176.773a.991.991 0 1 1-.988-.994c.545 0 .988.445.988.994zM263.224 181.726a.992.992 0 0 1-.988.993.99.99 0 1 1 .988-.993zM263.224 186.683a.99.99 0 1 1-.988-.991.99.99 0 0 1 .988.991zM258.269 167.851c0 .546-.443.995-.991.995a.994.994 0 0 1 0-1.988c.548 0 .991.448.991.993zM258.269 172.806a.99.99 0 0 1-1.982 0c0-.548.443-.988.991-.988s.991.44.991.988zM258.269 177.764c0 .545-.443.988-.991.988a.99.99 0 1 1 0-1.979.99.99 0 0 1 .991.991zM258.269 182.719a.991.991 0 1 1-1.983 0 .991.991 0 0 1 1.983 0zM258.269 187.674c0 .545-.443.992-.991.992a.992.992 0 0 1 0-1.983.99.99 0 0 1 .991.991zM253.315 163.885a.99.99 0 1 1 0 0zM253.315 168.845a.991.991 0 0 1-1.983 0 .991.991 0 1 1 1.983 0zM253.315 173.796a.993.993 0 0 1-.995.994.99.99 0 0 1-.988-.994.993.993 0 0 1 1.983 0zM253.315 178.752a.991.991 0 1 1 0 0zM253.315 183.71a.99.99 0 0 1-.995.989.987.987 0 0 1-.988-.989c0-.548.441-.991.988-.991a.99.99 0 0 1 .995.991z"/></g><g fill-rule="evenodd" clip-rule="evenodd" fill="#593e9b"><path d="M230.423 68.677h-33.512c-3.546-.008-5.929 2.569-5.929 5.66 0 3.09 2.377 5.638 5.934 5.639h33.501c3.558-.001 5.935-2.549 5.935-5.639 0-3.091-2.383-5.668-5.929-5.66zm-.017 9.912h-33.478c-2.827.01-4.545-1.908-4.545-4.261 0-2.354 1.729-4.257 4.545-4.262h33.478c2.817.005 4.546 1.908 4.546 4.262 0 2.353-1.719 4.272-4.546 4.261z"/><path d="M199.39 75.366l-2.268-3.709h-1.639v5.319h1.629v-3.709l2.28 3.709h1.623v-5.319h-1.626zM212.299 73.445v-.525h-.857v-.716h-1.583l.001.717H209v.524h.859v3.531h1.585l-.002-3.531zM201.921 73.439h1.582v3.537h-1.582zM201.918 71.656h1.586v1.088h-1.586zM229.648 73.197c-1.277 0-2.312.889-2.312 1.987 0 1.096 1.035 1.985 2.312 1.985 1.278 0 2.312-.889 2.312-1.985.001-1.097-1.034-1.987-2.312-1.987zm.635 2.731c0 .563-.329.797-.647.797-.317 0-.648-.233-.648-.797l.001-.763.001-.737c0-.561.33-.792.646-.792.315 0 .647.231.647.792l.001.753-.001.747zM225.259 73.614c-.253-.143-.52-.282-.896-.315-1.14-.101-2.012.918-2.012 1.852 0 1.23.94 1.686 1.082 1.754a1.883 1.883 0 0 0 1.822-.133l.001.203h1.564v-5.318h-1.562l.001 1.957zm.012 1.576v.627c0 .547-.373.689-.62.689-.252 0-.621-.143-.621-.689l.001-.629-.001-.631c0-.547.369-.686.621-.686.247 0 .62.139.62.686v.633zM207.208 73.276a1.9 1.9 0 0 0-1.262.533c-.002-.087 0-.372 0-.372l-1.572.001.001 3.537h1.571l-.002-2.323c0-.308.32-.651.752-.651.431 0 .723.343.723.651v2.323h1.572s-.001-1.676.001-1.924c.008-1.401-1.193-1.792-1.784-1.775zM220.066 73.276a1.9 1.9 0 0 0-1.262.533c-.002-.087 0-.372 0-.372l-1.57.001-.001 3.537h1.571l-.002-2.323c0-.308.321-.651.752-.651s.723.343.723.651v2.323h1.572s-.001-1.676.001-1.924c.008-1.401-1.193-1.792-1.784-1.775zM216.754 75.223c0-1.097-1.047-2.006-2.334-2.006-1.286 0-2.33.889-2.33 1.985 0 1.097 1.044 1.987 2.33 1.987 1.068 0 1.969-.616 2.245-1.452l-1.577.001.001.214c0 .647-.421.792-.654.792-.234 0-.663-.144-.663-.792l.002-.73h2.98zm-2.876-1.246a.645.645 0 0 1 .557-.322h-.001.001a.64.64 0 0 1 .556.322c.101.178.106.385.104.694h-1.321c-.004-.309.003-.516.104-.694zM232.768 72.055c0-.238-.14-.344-.423-.344h-.457v1.211h.182v-.525h.208l.317.525h.202l-.34-.533c.177-.023.311-.117.311-.334zm-.697.186v-.375h.248c.125 0 .26.028.26.178 0 .187-.137.197-.291.197h-.217z"/><path d="M232.29 71.266c-.571 0-1.055.445-1.055 1.047 0 .609.484 1.053 1.055 1.053.567 0 1.049-.444 1.049-1.053a1.04 1.04 0 0 0-1.049-1.047zm0 1.925c-.475 0-.846-.372-.846-.878 0-.497.371-.872.846-.872.471 0 .84.375.84.872 0 .506-.369.878-.84.878z"/></g><g fill="#593e9b"><path d="M174.655-82.703c-.2.092-.601.185-1.116.185-1.19 0-2.087-.696-2.087-1.976 0-1.223.897-2.052 2.207-2.052.526 0 .858.104 1.002.174l-.131.411a2.127 2.127 0 0 0-.853-.162c-.99 0-1.648.585-1.648 1.611 0 .956.596 1.57 1.623 1.57.332 0 .67-.064.89-.162l.113.401zM178.813-84.569c0 1.344-.884 2.057-1.962 2.057-1.116 0-1.899-.8-1.899-1.982 0-1.24.833-2.052 1.962-2.052 1.153.001 1.899.818 1.899 1.977zm-3.278.064c0 .835.489 1.582 1.347 1.582.865 0 1.354-.736 1.354-1.623 0-.776-.439-1.588-1.348-1.588-.902 0-1.353.771-1.353 1.629zM183.076-84.291c-.032-.545-.069-1.2-.063-1.687h-.019c-.143.458-.319.945-.532 1.484l-.746 1.895h-.414l-.683-1.86c-.2-.551-.369-1.055-.489-1.519h-.012a46.62 46.62 0 0 1-.081 1.727l-.113 1.675h-.52l.294-3.906h.696l.721 1.889c.176.481.32.91.427 1.316h.019c.106-.394.257-.823.445-1.316l.752-1.889h.696l.263 3.906h-.533l-.108-1.715zM188.109-84.291c-.032-.545-.069-1.2-.063-1.687h-.019a21.98 21.98 0 0 1-.532 1.484l-.746 1.895h-.414l-.683-1.86c-.2-.551-.369-1.055-.489-1.519h-.012a46.62 46.62 0 0 1-.081 1.727l-.113 1.675h-.52l.294-3.906h.696l.721 1.889c.176.481.32.91.427 1.316h.019c.106-.394.257-.823.445-1.316l.752-1.889h.696l.263 3.906h-.533l-.108-1.715zM161.865-82.656h5.315l-2.658-3.745z"/></g><path d="M207.963 150.84c0 1.097-.831 1.983-1.856 1.983h-10.659c-1.027 0-1.858-.886-1.858-1.983v-.493c0-1.099.831-1.987 1.858-1.987h10.659c1.025 0 1.856.888 1.856 1.987v.493zM233.744 150.84c0 1.097-.829 1.983-1.852 1.983h-10.663c-1.023 0-1.852-.886-1.852-1.983v-.493c0-1.099.829-1.987 1.852-1.987h10.663c1.024 0 1.852.888 1.852 1.987v.493z" fill="#2b2b2b"/><g fill="#593e9b"><path d="M192.372 157.598c-.393-.373-.772-.481-1.083-.481-.427 0-.73.224-.73.548 0 .887 1.996.873 1.996 2.342 0 .724-.547 1.252-1.292 1.252-.501 0-.907-.136-1.293-.427v-.84c.338.433.764.67 1.218.67.514 0 .751-.325.751-.581 0-.955-1.997-1.063-1.997-2.328 0-.752.555-1.233 1.402-1.233.352 0 .704.109 1.029.325v.753zM195.897 157.178h-1.956v1.394h1.889v.596h-1.889v1.435h2.017v.596h-2.68v-4.616h2.62v.595zM197.317 160.603h2.085v.596h-2.748v-4.616h.663v4.02zM202.594 157.178h-1.956v1.394h1.888v.596h-1.888v1.435h2.017v.596h-2.68v-4.616h2.62v.595zM207.289 157.611c-.568-.332-1.056-.48-1.59-.48-1.056 0-1.841.751-1.841 1.767 0 1.035.758 1.753 1.868 1.753.522 0 1.09-.183 1.611-.521v.724a3.38 3.38 0 0 1-1.671.407c-1.733 0-2.492-1.334-2.492-2.302 0-1.408 1.063-2.437 2.532-2.437.474 0 .954.115 1.584.379v.71zM211.612 157.178h-1.597v4.02h-.663v-4.02h-1.598v-.596h3.858v.596z"/></g><g fill="#593e9b"><path d="M220.121 157.601c-.393-.373-.772-.481-1.083-.481-.427 0-.73.224-.73.548 0 .887 1.997.873 1.997 2.342 0 .724-.549 1.252-1.293 1.252-.5 0-.908-.136-1.293-.427v-.84c.338.433.764.67 1.217.67.515 0 .753-.325.753-.581 0-.955-1.997-1.063-1.997-2.328 0-.752.555-1.233 1.401-1.233.351 0 .704.109 1.029.325v.753zM224.493 157.181h-1.599v4.02h-.663v-4.02h-1.597v-.596h3.858v.596zM228.443 161.201h-.678l-.615-1.361h-1.963l-.581 1.361h-.678l1.984-4.643h.466l2.065 4.643zm-2.999-1.956h1.436l-.746-1.671-.69 1.671zM230.127 156.585c.934 0 1.516.494 1.516 1.293 0 .534-.277.933-.772 1.13.419.277.678.704 1.029 1.28.196.318.311.474.63.914h-.793l-.61-.948c-.608-.948-.885-1.056-1.225-1.056h-.277v2.004h-.663v-4.616h1.165zm-.502 2.017h.427c.712 0 .914-.365.908-.751-.008-.433-.264-.697-.908-.697h-.427v1.448zM235.891 157.181h-1.599v4.02h-.663v-4.02h-1.597v-.596h3.858v.596z"/></g><g><path d="M313.212 50.785h70.963a3.778 3.778 0 0 1 3.778 3.779v34.63a3.778 3.778 0 0 1-3.778 3.779h-70.963a3.778 3.778 0 0 1-3.778-3.778V54.564a3.778 3.778 0 0 1 3.778-3.779z" fill="#f1f1f1" fill-opacity=".8" stroke="#35495e" stroke-width=".63438868"/><path d="M370 75.31h-6.492l-1.458 4.044h-2.107l5.917-15.496h1.788l5.928 15.496h-2.096L370 75.31zm-5.875-1.682h5.269l-2.64-7.248-2.629 7.248z" fill="#35495e"/><g transform="matrix(.99188 0 0 -.99188 311.892 90.459)"><defs><path id="a" d="M.15.15h36.76v36.76H.15z"/></defs><clipPath id="b"><use xlink:href="#a" overflow="visible"/></clipPath><g clip-path="url(#b)"><path d="M30.23 14.114a5.119 5.119 0 1 0 .002 10.238 5.119 5.119 0 0 0-.002-10.238M19.46 22.51a5.118 5.118 0 1 0 .001 10.236 5.118 5.118 0 0 0 0-10.236M17.615 4.197a5.118 5.118 0 1 0 0 10.236 5.118 5.118 0 0 0 0-10.236m-10.639 8.61a5.118 5.118 0 1 0 0 10.236 5.118 5.118 0 0 0 0-10.235M18.6 37.06C8.384 37.06.102 28.78.102 18.563.102 8.347 8.384.065 18.6.065s18.498 8.282 18.498 18.498c0 10.217-8.282 18.498-18.498 18.498" fill="#35495e"/><path d="M21.235 9.315a3.62 3.62 0 1 0-7.24.002 3.62 3.62 0 0 0 7.24-.002M10.79 17.926a3.813 3.813 0 1 0-3.812 3.812 3.812 3.812 0 0 0 3.811-3.812M23.073 27.526a3.62 3.62 0 1 0-7.238 0 3.62 3.62 0 0 0 7.238 0" fill="#35495e"/></g></g></g><g><path d="M313.212 106.346h70.963a3.778 3.778 0 0 1 3.778 3.778v34.63a3.778 3.778 0 0 1-3.778 3.78h-70.963a3.778 3.778 0 0 1-3.778-3.78v-34.63a3.778 3.778 0 0 1 3.778-3.778z" fill="#f1f1f1" fill-opacity=".8" stroke="#35495e" stroke-width=".63438868"/><path d="M361.443 134.914v-15.496h5.066c1.682 0 2.945.348 3.79 1.043.85.696 1.276 1.724 1.276 3.087a3.17 3.17 0 0 1-.617 1.926c-.412.553-.972.983-1.682 1.288.838.234 1.497.681 1.98 1.34.49.654.734 1.434.734 2.342 0 1.391-.45 2.484-1.351 3.278-.901.795-2.175 1.192-3.821 1.192h-5.375zm2.044-7.248v5.577h3.374c.95 0 1.699-.244 2.245-.734.554-.497.83-1.178.83-2.043 0-1.866-1.014-2.8-3.043-2.8h-3.406zm0-1.639h3.086c.894 0 1.607-.223 2.14-.67.539-.447.808-1.054.808-1.82 0-.852-.248-1.469-.745-1.852-.496-.39-1.252-.586-2.267-.586h-3.022v4.928z" fill="#35495e"/><g transform="matrix(1.01304 0 0 -1.01304 311.253 146.317)"><defs><path id="c" d="M-.241-.242h37.544v37.544H-.241z"/></defs><clipPath id="d"><use xlink:href="#c" overflow="visible"/></clipPath><g clip-path="url(#d)"><path d="M30.23 14.114a5.119 5.119 0 1 0 .002 10.238 5.119 5.119 0 0 0-.002-10.238M19.46 22.51a5.118 5.118 0 1 0 .001 10.236 5.118 5.118 0 0 0 0-10.236M17.615 4.197a5.118 5.118 0 1 0 0 10.236 5.118 5.118 0 0 0 0-10.236m-10.639 8.61a5.118 5.118 0 1 0 0 10.236 5.118 5.118 0 0 0 0-10.235M18.6 37.06C8.384 37.06.102 28.78.102 18.563.102 8.347 8.384.065 18.6.065s18.498 8.282 18.498 18.498c0 10.217-8.282 18.498-18.498 18.498" fill="#35495e"/><path d="M33.885 19.232a3.654 3.654 0 1 0-7.309-.001 3.654 3.654 0 0 0 7.309.001M10.79 17.926a3.813 3.813 0 1 0-3.812 3.812 3.812 3.812 0 0 0 3.811-3.812M23.073 27.526a3.62 3.62 0 1 0-7.238 0 3.62 3.62 0 0 0 7.238 0" fill="#35495e"/></g></g></g><g><path d="M82.41 207.593h127.183a3.761 3.761 0 0 1 3.76 3.76v34.471a3.761 3.761 0 0 1-3.76 3.761H82.41a3.761 3.761 0 0 1-3.761-3.76v-34.471a3.761 3.761 0 0 1 3.76-3.761z" fill="#f1f1f1" fill-opacity=".8" stroke="#35495e" stroke-width=".82921847"/><path d="M113.242 228.835h-28.7c-2.074 0-3.756 1.731-3.756 3.866s1.682 3.866 3.757 3.866h28.699c2.074 0 3.756-1.73 3.756-3.866s-1.682-3.866-3.756-3.866zM113.77 225.347h1.158v-5.935h2.075v-1.104h-5.308v1.103h2.074v5.936zm-2.836-4.438c-.123-1.518-1.115-2.798-3.016-2.798-2.175 0-3.09 1.732-3.09 3.718 0 1.98.957 3.717 2.952 3.717 2.274 0 2.993-1.486 3.155-2.89h-1.25c-.098.74-.5 1.787-1.704 1.787-1.148 0-1.942-1.019-1.942-2.488 0-1.834.794-2.744 1.864-2.744.976 0 1.665.631 1.781 1.697l1.25.001zm-11.917 4.438h4.86v-1.103h-3.7v-1.952h3.491v-1.103h-3.491v-1.777h3.636v-1.104h-4.795v7.04zm-5.55 0h4.52v-1.16h-3.359v-5.879h-1.16v7.04zm-6.121 0h4.86v-1.103h-3.7v-1.952h3.49v-1.103h-3.49v-1.777h3.641v-1.104h-4.801v7.04zm-6.415-5.058c0 2.887 4.072 1.366 4.072 3.113 0 .774-.658 1.04-1.363 1.04-.954 0-1.555-.446-1.587-1.375H80.8c.015 1.48.812 2.477 2.802 2.477 1.177 0 2.653-.473 2.653-2.29 0-3.006-4.116-1.421-4.116-3.073 0-.662.511-.969 1.283-.969.967 0 1.356.591 1.395 1.137h1.255c-.149-2.044-1.853-2.238-2.704-2.238-1.345 0-2.437.61-2.437 2.178" fill="#35495e"/><g fill="#35495e"><path d="M135.127 229.157c-1.753-.504-3.03-1.121-3.832-1.852-.794-.738-1.191-1.646-1.191-2.725 0-1.22.486-2.228 1.458-3.022.98-.802 2.25-1.203 3.81-1.203 1.064 0 2.012.206 2.842.617.837.412 1.483.98 1.937 1.703a4.33 4.33 0 0 1 .692 2.373h-2.055c0-.936-.298-1.67-.894-2.203-.596-.54-1.437-.809-2.522-.809-1.008 0-1.795.224-2.363.67-.56.44-.84 1.054-.84 1.842 0 .632.266 1.167.798 1.607.539.433 1.45.83 2.735 1.192 1.291.362 2.299.763 3.023 1.203.73.432 1.27.94 1.617 1.521.355.582.532 1.267.532 2.055 0 1.255-.49 2.263-1.468 3.022-.98.752-2.289 1.128-3.928 1.128a7.335 7.335 0 0 1-2.98-.606c-.922-.412-1.635-.972-2.139-1.682-.497-.71-.745-1.515-.745-2.416h2.054c0 .937.345 1.678 1.033 2.225.695.54 1.62.809 2.777.809 1.079 0 1.906-.22 2.48-.66.575-.44.862-1.04.862-1.799s-.266-1.344-.798-1.756c-.532-.418-1.497-.83-2.895-1.234zM152.262 228.901h-6.716v5.492h7.801v1.671h-9.844v-15.496h9.738v1.682h-7.695v4.98h6.716v1.671zM157.945 234.393h7.344v1.671h-9.398v-15.496h2.054v13.825zM176.4 228.901h-6.715v5.492h7.8v1.671h-9.844v-15.496h9.738v1.682h-7.694v4.98h6.715v1.671zM191.428 231.147c-.191 1.64-.798 2.906-1.82 3.8-1.014.887-2.366 1.33-4.055 1.33-1.83 0-3.299-.656-4.406-1.969-1.1-1.313-1.65-3.069-1.65-5.268v-1.49c0-1.44.256-2.707.767-3.8.518-1.092 1.249-1.93 2.192-2.512.944-.588 2.037-.883 3.279-.883 1.646 0 2.965.461 3.959 1.384.993.915 1.572 2.185 1.735 3.81h-2.055c-.177-1.235-.564-2.129-1.16-2.682-.589-.553-1.415-.83-2.48-.83-1.305 0-2.33.482-3.075 1.447-.738.965-1.107 2.338-1.107 4.12v1.5c0 1.682.351 3.019 1.054 4.012s1.685 1.49 2.948 1.49c1.135 0 2.004-.255 2.607-.766.61-.518 1.015-1.416 1.213-2.693h2.054zM204.615 222.25h-4.981v13.814H197.6V222.25h-4.97v-1.682h11.984v1.682z"/></g></g><g><path d="M223.964 207.577h117.06a3.764 3.764 0 0 1 3.764 3.764v34.497a3.764 3.764 0 0 1-3.764 3.763h-117.06a3.764 3.764 0 0 1-3.764-3.763V211.34a3.764 3.764 0 0 1 3.764-3.764z" fill="#f1f1f1" fill-opacity=".8" stroke="#35495e" stroke-width=".7977532999999999"/><path d="M255.568 225.346h1.435v-6.063h2.557v-1.127h-6.548v1.127h2.557v6.063zm-8.694-3.966v-2.097h2.476c.754 0 1.224.292 1.224 1.037 0 .806-.431 1.06-1.224 1.06h-2.476zm-1.43 3.966h1.43v-2.84h2.438c1.05 0 1.185.726 1.185 1.752 0 .525.068.888.173 1.088h1.549c-.28-.394-.29-1.196-.29-1.542 0-1.017-.179-1.762-.991-1.94v-.022c.641-.21 1.125-.795 1.125-1.733 0-1.116-.561-1.95-2.3-1.95h-4.317l-.003 7.187zm-8.865 0h1.547l.706-1.782h3.21l.716 1.782h1.6l-3.038-7.19h-1.7l-3.041 7.19zm2.684-2.909l1.185-3.035 1.165 3.035h-2.35zm-6.715 2.91h1.43v-6.064h2.562v-1.127h-6.553v1.127h2.56v6.063zm-9.783-5.169c0 2.95 5.025 1.397 5.025 3.18 0 .791-.811 1.062-1.68 1.062-1.177 0-1.92-.454-1.959-1.403h-1.546c.02 1.512 1.002 2.532 3.46 2.532 1.452 0 3.273-.485 3.273-2.34 0-3.072-5.081-1.45-5.081-3.14 0-.675.63-.986 1.585-.986 1.193 0 1.672.602 1.722 1.158h1.548c-.185-2.088-2.285-2.287-3.338-2.287-1.663 0-3.009.622-3.009 2.224M255.72 228.908h-29.305c-2.118 0-3.836 1.768-3.836 3.948s1.718 3.948 3.836 3.948h29.305c2.118 0 3.835-1.767 3.835-3.948s-1.717-3.948-3.835-3.948z" fill="#35495e"/><g fill="#35495e"><path d="M276.694 229.157c-1.753-.504-3.03-1.121-3.832-1.852-.794-.738-1.191-1.646-1.191-2.725 0-1.22.485-2.228 1.458-3.022.979-.802 2.249-1.203 3.81-1.203 1.064 0 2.011.206 2.842.617.837.412 1.483.98 1.937 1.703a4.33 4.33 0 0 1 .691 2.373h-2.054c0-.936-.298-1.67-.894-2.203-.596-.54-1.437-.809-2.522-.809-1.008 0-1.795.224-2.363.67-.56.44-.84 1.054-.84 1.842 0 .632.266 1.167.798 1.607.539.433 1.45.83 2.735 1.192 1.291.362 2.299.763 3.022 1.203.731.432 1.27.94 1.618 1.522.355.582.532 1.266.532 2.054 0 1.256-.49 2.263-1.468 3.022-.98.752-2.289 1.128-3.928 1.128a7.335 7.335 0 0 1-2.98-.606c-.922-.412-1.635-.972-2.139-1.682-.497-.71-.745-1.515-.745-2.416h2.054c0 .937.344 1.678 1.033 2.225.695.54 1.62.809 2.777.809 1.079 0 1.905-.22 2.48-.66.575-.44.862-1.04.862-1.799s-.266-1.344-.798-1.756c-.532-.418-1.497-.83-2.895-1.234zM295.777 222.25h-4.98v13.814h-2.034V222.25h-4.97v-1.681h11.984v1.681zM305.803 232.02h-6.493l-1.458 4.044h-2.107l5.917-15.496h1.788l5.929 15.496h-2.097l-1.48-4.044zm-5.876-1.682h5.269l-2.64-7.248-2.629 7.248zM317.148 229.795h-3.64v6.27h-2.054v-15.497h5.13c1.745 0 3.086.397 4.023 1.192.944.794 1.416 1.95 1.416 3.47 0 .964-.263 1.805-.788 2.522-.518.717-1.242 1.252-2.171 1.607l3.64 6.577v.128h-2.193l-3.363-6.269zm-3.64-1.67h3.14c1.014 0 1.82-.263 2.416-.788.603-.525.904-1.228.904-2.107 0-.958-.287-1.693-.862-2.204-.567-.51-1.39-.77-2.469-.777h-3.13v5.875zM334.73 222.25h-4.98v13.814h-2.033V222.25h-4.97v-1.681h11.983v1.681z"/></g></g><g><path d="M4.16 80h114.435a3.764 3.764 0 0 1 3.765 3.764v34.503a3.764 3.764 0 0 1-3.765 3.765H4.16a3.764 3.764 0 0 1-3.764-3.765V83.764a3.765 3.765 0 0 1 3.764-3.765z" fill="#f1f1f1" fill-opacity=".8" stroke="#35495e" stroke-width=".78948972"/><path d="M24.878 119.896h-7.2c-2.318 0-3.159-1.89-3.159-3.16v-8.842H5.675c-2.319 0-3.16-1.89-3.16-3.16v-7.2c0-2.318 1.89-3.16 3.16-3.16h8.844v-8.843c0-2.319 1.889-3.16 3.158-3.16h7.201c2.319 0 3.16 1.89 3.16 3.16v8.843h8.841c1.217 0 2.182.532 2.718 1.499.21.38.462 1.126.435 1.66h.008v7.2c0 2.318-1.89 3.16-3.16 3.16h-8.842v8.842c0 2.32-1.89 3.161-3.16 3.161zM5.675 95.892c-.38.006-1.641.141-1.641 1.64v7.2c.006.381.14 1.642 1.641 1.642h10.362v10.36c.005.381.14 1.642 1.64 1.642h7.197c.389-.006 1.645-.144 1.645-1.641v-10.36h10.36c.38-.006 1.64-.142 1.64-1.642v-7.21c-.004-.291-.113-1.63-1.64-1.63H26.521V85.531c-.007-.38-.141-1.641-1.642-1.641h-7.2c-.381.006-1.64.14-1.64 1.641v10.361H5.675z" fill="#35495e"/><path d="M21.28 104.831c-2.038 0-3.696-1.658-3.696-3.697s1.658-3.696 3.695-3.696a3.7 3.7 0 0 1 3.696 3.696 3.7 3.7 0 0 1-3.696 3.697zm0-5.874a2.18 2.18 0 0 0-2.177 2.177c0 1.202.976 2.179 2.176 2.179 1.201 0 2.177-.978 2.177-2.179s-.977-2.177-2.177-2.177z" fill="#35495e"/><g fill="#35495e"><path d="M21.278 85.594l-3.043 4.743h6.088l-3.045-4.743z"/><path d="M24.322 91.097h-6.088a.761.761 0 0 1-.639-1.17l3.043-4.743c.28-.436 1-.435 1.278 0l3.045 4.743a.76.76 0 0 1-.639 1.17zm-4.697-1.52h3.308l-1.655-2.576-1.653 2.577z"/></g><g fill="#35495e"><path d="M5.68 101.134l4.742 3.042v-6.085l-4.743 3.043z"/><path d="M10.422 104.936a.759.759 0 0 1-.41-.12l-4.743-3.043a.757.757 0 0 1 0-1.277l4.743-3.044a.761.761 0 0 1 1.17.639v6.085a.76.76 0 0 1-.76.76zm-3.336-3.802l2.577 1.653v-3.306l-2.577 1.653z"/></g><g fill="#35495e"><path d="M36.82 101.133l-4.743-3.042v6.085l4.744-3.043z"/><path d="M32.078 104.936a.76.76 0 0 1-.76-.76v-6.085a.758.758 0 0 1 1.17-.64l4.745 3.044a.76.76 0 0 1 0 1.277l-4.745 3.043a.762.762 0 0 1-.41.12zm.76-5.456v3.307l2.577-1.654-2.578-1.653z"/></g><g fill="#35495e"><path d="M21.278 116.674l3.045-4.743h-6.088l3.043 4.743z"/><path d="M21.278 117.433a.76.76 0 0 1-.639-.349l-3.043-4.743a.761.761 0 0 1 .64-1.17h6.087a.758.758 0 0 1 .64 1.17l-3.046 4.743a.76.76 0 0 1-.639.35zm-1.653-4.743l1.653 2.577 1.655-2.577h-3.308z"/></g><g fill="#35495e"><path d="M52.327 108.49V92.994H56.7c1.348 0 2.54.299 3.576.895s1.834 1.443 2.395 2.543c.567 1.1.855 2.363.862 3.789v.99c0 1.461-.284 2.742-.852 3.842a5.912 5.912 0 0 1-2.416 2.533c-1.043.589-2.26.89-3.65.904h-4.29zm2.044-13.814v12.144h2.15c1.575 0 2.798-.49 3.671-1.47.88-.978 1.32-2.372 1.32-4.182v-.904c0-1.76-.415-3.126-1.245-4.098-.824-.98-1.994-1.476-3.512-1.49H54.37zM70.42 102.711h-5.194v-1.607h5.194v1.607zM74.677 102.424v6.066h-2.043V92.994h5.715c1.696 0 3.023.433 3.98 1.299.966.866 1.448 2.011 1.448 3.437 0 1.505-.472 2.665-1.416 3.48-.936.81-2.28 1.214-4.033 1.214h-3.65zm0-1.67h3.672c1.093 0 1.93-.256 2.512-.767.582-.518.873-1.263.873-2.235 0-.923-.291-1.66-.873-2.214-.582-.553-1.38-.84-2.395-.862h-3.788v6.077zM93.494 104.446h-6.492l-1.459 4.045h-2.107l5.917-15.497h1.789l5.928 15.497h-2.097l-1.48-4.045zm-5.875-1.681h5.268l-2.64-7.248-2.628 7.248zM99.156 108.49V92.994h4.374c1.349 0 2.54.299 3.576.895 1.036.595 1.835 1.443 2.395 2.543.568 1.1.855 2.363.862 3.789v.99c0 1.461-.284 2.742-.852 3.842a5.912 5.912 0 0 1-2.415 2.533c-1.044.589-2.26.89-3.651.904h-4.289zm2.043-13.814v12.144h2.15c1.575 0 2.8-.49 3.672-1.47.88-.978 1.32-2.372 1.32-4.182v-.904c0-1.76-.415-3.126-1.245-4.098-.824-.98-1.994-1.476-3.512-1.49h-2.385z"/></g></g><ellipse cx="275.058" cy="97.943" rx="2.453" ry="2.4" fill="#434547"/><ellipse cx="243.528" cy="108.148" rx="2.453" ry="2.4" fill="#434547"/><ellipse cx="226.326" cy="150.502" rx="2.453" ry="2.4" fill="#434547"/><ellipse cx="200.684" cy="150.63" rx="2.453" ry="2.4" fill="#434547"/><ellipse cx="164.071" cy="101.642" rx="2.453" ry="2.4" fill="#434547"/><path d="M165.948 101.704l-43.236.068" fill="#434547" stroke="#434547" stroke-width=".852"/><path d="M226.192 149.585l.068 57.671" fill="#434547" stroke="#434547" stroke-width=".983"/><path d="M200.435 149.766l.068 57.491" fill="#434547" stroke="#434547" stroke-width=".981"/><path d="M274.874 68.466l.106 29.93" fill="#434547" stroke="#434547" stroke-width=".886"/><path d="M243.474 108.148l.106 29.419" fill="#434547" stroke="#434547" stroke-width=".878"/><path d="M309.135 68.785l-34.718.068" fill="#434547" stroke="#434547" stroke-width=".761"/><path d="M309.103 137.499l-65.958.068" fill="#434547" stroke="#434547" stroke-width="1.05"/></svg>