<svg xmlns="http://www.w3.org/2000/svg" viewBox="0 0 1000 114"><g id="Layer_2" data-name="Layer 2"><rect x="457.26" y="19.19" width="83.74" height="71.74" fill="#fff"/></g><g id="Layer_1" data-name="Layer 1"><path d="M500.49,110.5a67.26,67.26,0,0,1-6.83-.31,53.7,53.7,0,0,1-26.18-10.56,72.09,72.09,0,0,1-10.11-10.11A53.19,53.19,0,0,1,446.48,57a52,52,0,0,1,3.89-20.23,50,50,0,0,1,11.8-17.61,50.05,50.05,0,0,1,17.6-11.79,54.39,54.39,0,0,1,13.7-3.57,57.59,57.59,0,0,1,6.4-.29,58.77,58.77,0,0,1,6.44.29,53.73,53.73,0,0,1,26.2,10.55,70.36,70.36,0,0,1,10.13,10.14A52.59,52.59,0,0,1,553.52,57a53.15,53.15,0,0,1-10.88,32.52,71.56,71.56,0,0,1-10.11,10.11,54.39,54.39,0,0,1-26.91,10.67A50.67,50.67,0,0,1,500.49,110.5ZM475.64,90.56c3.25.61,14.55,2.61,18.83,3.33.93-1.2,2.37-3.2,3.26-4.43l.49-.67-.8-1.39c-4.23-7.33-6.64-11.49-7.69-13.22-3.58-.51-10.81-2-13.72-2.68l-.45-.11c-.61.91-1.56,2.36-3,4.68l-3.22,5.07.41.72A78.66,78.66,0,0,0,475.64,90.56Zm54.17-2.29c.82-.78,1.57-1.54,2.09-2.12A43.51,43.51,0,0,0,541.79,68l-2.19,1.15-5,9.37-4.9,9.15Zm-26.9-12.09,4.33,7.47H508c1.41,0,3.64-.13,4.87-.24,2-.19,5.78-.69,7.75-1,.88-1.56,2.55-4.59,4.7-8.62l4.48-8.31-.42-.79c-1.57-3-3.25-5.85-5.47-9.26-.13-.2-.4-.62-.67-1-3.91.4-14.09,1.48-18.21,1.93l-1.14,2.2c-1,2-2.91,5.57-4.15,7.86l-1.19,2.23Zm-43.76-5.29a36.33,36.33,0,0,0,2.86,2.4l6-9.4-.16-.85a91.63,91.63,0,0,1-1.45-14.72l-3.63-2.15-3-1.78a28.45,28.45,0,0,0-1.69,2.83c-.8,1.62-1.61,8.45-1.1,13.79A38.13,38.13,0,0,0,459.15,70.89Zm36.48-35c1,1,6.47,7.16,8.91,10,1.58-.12,4.56-.42,9-.86l1.59-.17,7.16-.76.91-2.3c1.13-2.82,2-5.17,2.46-6.58-1.17-1.39-3.31-3.86-6.1-7-3-3.37-5.65-6.35-6.66-7.34h-.31c-.67,0-1.76.05-3.66.16s-6.2.49-8.61.75c-.53,1.46-1.37,3.86-2.43,7l-2.33,7Zm-30.87-.61c2,1.19,5,3,6.87,4l1-.58a119.28,119.28,0,0,1,12.84-6.49l.39-.16c.45-1.26,1.27-3.62,2.34-6.87l2-6a39,39,0,0,0-4.82-2.45l-.62-.24-1.21.48a43.82,43.82,0,0,0-13.93,9.24A8.63,8.63,0,0,0,467.05,30c-.73,1.5-1.74,3.91-2.27,5.3Z" fill="#333"/><path d="M499.87,7a59.46,59.46,0,0,1,6,.26,50,50,0,0,1,24.52,9.89,67.63,67.63,0,0,1,9.42,9.42A49.38,49.38,0,0,1,550,57a49.33,49.33,0,0,1-10.18,30.42,69.88,69.88,0,0,1-9.42,9.42,50.69,50.69,0,0,1-25.18,10c-1.2.13-2.94.19-4.75.19a62.17,62.17,0,0,1-6.43-.29,50.25,50.25,0,0,1-24.48-9.88,69.88,69.88,0,0,1-9.42-9.42A49.46,49.46,0,0,1,450,57a48.59,48.59,0,0,1,3.64-18.93,46.69,46.69,0,0,1,11-16.44,47,47,0,0,1,16.43-11,51.8,51.8,0,0,1,12.81-3.34,58.33,58.33,0,0,1,6-.26M471.61,43.31a27.08,27.08,0,0,0,2.81-1.58,118.37,118.37,0,0,1,12.29-6.21,13.81,13.81,0,0,0,1.88-.88c.14-.12,1.45-3.87,2.91-8.33L494.28,18c.15-.45-4.73-3.3-7.64-4.45a12.75,12.75,0,0,0-1.95-.69h0c-.12,0-1.23.43-2.48.94a47.41,47.41,0,0,0-15,10c-1.88,1.84-2,2-3.27,4.71-.76,1.57-1.81,4.07-2.38,5.55-1,2.58-1,2.76-.66,3,.7.51,10.59,6.31,10.76,6.31m70.78-6h0a39.07,39.07,0,0,0-2.5-4.67A46.66,46.66,0,0,0,520.4,15c-1.29-.62-2.41-1.15-2.46-1.15-.26,0-.32,1.87-.08,2.15s3.46,3.89,7.34,8.3l7.12,8,1.56.63a53.2,53.2,0,0,1,7.19,3.69,9.93,9.93,0,0,0,1.32.77m-38.87,12.1c1,0,3.58-.25,10.35-.93,6-.63,10.85-1.13,10.87-1.17l1.7-4.24a75.47,75.47,0,0,0,3.06-8.66c0-.14-3.3-4-7.34-8.56-7-7.89-7.41-8.28-8.17-8.42a8.14,8.14,0,0,0-1.42-.1c-.77,0-1.88.05-3.86.16-2.93.16-10.49.9-10.9,1.06-.14,0-1.6,4.16-3.26,9.1l-3,9,1.52,1.62c1.47,1.52,9.25,10.3,9.75,11,.07.1.2.15.69.15M463,78.25l4.36-6.82,4.36-6.82-.41-2.21a89.18,89.18,0,0,1-1.39-14.11v-2l-5.35-3.16c-2.95-1.74-5.49-3.23-5.65-3.29h0c-.39,0-2.91,3.67-4,5.79-1.27,2.58-2,10.25-1.45,15.69.49,5,1.95,10.72,3,11.82a38.45,38.45,0,0,0,5,4.08l1.46,1m42.25,8.92,2.81,0c1.52,0,3.85-.14,5.14-.26,2.79-.25,9.28-1.15,9.63-1.35.14-.07,2.66-4.61,5.59-10.1l5.35-9.94-1.29-2.44c-1.62-3.11-3.34-6-5.62-9.54-1.48-2.24-1.88-2.75-2.25-2.75h0c-.49,0-21.73,2.26-21.79,2.3s-.91,1.74-2,3.87-2.95,5.63-4.12,7.8l-2.11,4,5.33,9.24,5.36,9.24m22.35,7.55.7-.53a51.93,51.93,0,0,0,6.23-5.73,46.55,46.55,0,0,0,11.59-23.95c.37-2.23.55-3.11.11-3.11a6.18,6.18,0,0,0-1.89,1.06c-1.13.74-3.24,1.95-4.69,2.7L537,66.52l-5.54,10.32L526,87.17l.58,2.45c.33,1.35.67,2.79.73,3.22s.17,1,.23,1.33l.1.55m-31.91,2.91c.39,0,1.17-1,4.89-6.12l1.81-2.5-1.93-3.36C492,71,491.91,70.86,491.5,70.86c-1.25,0-10.67-1.78-14.65-2.75-1.29-.34-2.48-.63-2.64-.67h0c-.24,0-1.64,2-4.62,6.76l-4.36,6.86,1.49,2.56c2.52,4.32,6.54,10,7.27,10.18.56.17,21.31,3.83,21.7,3.83m5.79,6.05-1-.37c-.57-.21-2-.84-3.13-1.36l-2.09-1-8.5-1.49c-4.67-.82-8.71-1.52-9-1.58h0c-.18,0,.64.47,1.88,1.08a44.17,44.17,0,0,0,18.66,4.63l3.23.07M499.87,0a65,65,0,0,0-6.81.31A58.57,58.57,0,0,0,478.48,4.1a53.53,53.53,0,0,0-18.8,12.58,53.45,53.45,0,0,0-12.56,18.77A55.58,55.58,0,0,0,443,57,56.61,56.61,0,0,0,454.56,91.6a75.14,75.14,0,0,0,10.8,10.82,57.28,57.28,0,0,0,27.89,11.25,69.7,69.7,0,0,0,7.24.33c1.53,0,3.72,0,5.49-.23a57.8,57.8,0,0,0,28.63-11.33,75.28,75.28,0,0,0,10.82-10.82A56.62,56.62,0,0,0,557,57a56.75,56.75,0,0,0-11.57-34.61,72.61,72.61,0,0,0-10.84-10.84A57.29,57.29,0,0,0,506.71.31,65.87,65.87,0,0,0,499.87,0ZM469.15,33.83c.36-.85.73-1.68,1-2.3l0-.06c.3-.64.72-1.52.85-1.73s.66-.66,1-1a40.48,40.48,0,0,1,12.67-8.44l1.21.58-1.07,3.2c-.73,2.23-1.35,4-1.8,5.36-3.06,1.32-8.32,4-11.46,5.81l-2.45-1.44Zm33.71-8.78c2.18-.21,4.76-.44,6.23-.52l2.33-.12c1.29,1.4,3.42,3.8,5.5,6.14,1.93,2.18,3.55,4,4.75,5.43-.46,1.26-1,2.83-1.74,4.55l-.13.34-4.91.51-1.75.19c-2.68.27-5.28.53-7.12.7-2-2.34-4.82-5.45-6.51-7.31l1.68-5.05c.64-1.91,1.21-3.55,1.67-4.86Zm-41.21,42.3a43.64,43.64,0,0,1-1.2-6.69,41.51,41.51,0,0,1,.62-11.43L463,50.34a102.84,102.84,0,0,0,1.37,12.83l-2.67,4.18Zm45.63-7.74c3.94-.43,10.22-1.09,14.2-1.51,1.72,2.69,3.07,5,4.35,7.36l-3.59,6.65c-1.61,3-2.92,5.44-3.83,7.08-1.92.27-4.38.59-5.86.72-.81.07-2.15.15-3.32.19l-3.29-5.68-3.39-5.87.29-.54c1.21-2.24,3.11-5.84,4.16-7.86l.28-.54Zm-33.86,21.6L475.49,78c.66-1,1.2-1.9,1.66-2.61,2.77.61,7.13,1.49,10.41,2,1.24,2.09,3.35,5.75,6.49,11.19-.34.48-.73,1-1.1,1.51-4.45-.77-11.79-2.06-15.38-2.72-1.06-1.42-2.71-3.79-4.15-6.15Z" fill="#fff"/><path d="M493.88,7.26a51.8,51.8,0,0,0-12.81,3.34,47,47,0,0,0-16.43,11,46.69,46.69,0,0,0-11,16.44A48.59,48.59,0,0,0,450,57a49.46,49.46,0,0,0,10.18,30.42,69.88,69.88,0,0,0,9.42,9.42,50.25,50.25,0,0,0,24.48,9.88,66.41,66.41,0,0,0,11.18.1,50.69,50.69,0,0,0,25.18-10,69.88,69.88,0,0,0,9.42-9.42A49.33,49.33,0,0,0,550,57a49.38,49.38,0,0,0-10.18-30.42,67.63,67.63,0,0,0-9.42-9.42A50,50,0,0,0,505.9,7.26,68.93,68.93,0,0,0,493.88,7.26Zm-7.24,6.28c2.91,1.15,7.79,4,7.64,4.45l-2.78,8.32c-1.46,4.46-2.77,8.21-2.91,8.33a13.81,13.81,0,0,1-1.88.88,118.37,118.37,0,0,0-12.29,6.21,27.08,27.08,0,0,1-2.81,1.58c-.17,0-10.06-5.8-10.76-6.31-.34-.23-.3-.41.66-3,.57-1.48,1.62-4,2.38-5.55,1.31-2.75,1.39-2.87,3.27-4.71a47.41,47.41,0,0,1,15-10c1.25-.51,2.36-.94,2.48-.94A10.92,10.92,0,0,1,486.64,13.54ZM520.4,15a46.66,46.66,0,0,1,19.5,17.72,39.07,39.07,0,0,1,2.5,4.67,7.47,7.47,0,0,1-1.33-.76,53.2,53.2,0,0,0-7.19-3.69l-1.56-.63-7.12-8c-3.88-4.41-7.21-8.15-7.34-8.3s-.18-2.15.08-2.15C518,13.81,519.11,14.34,520.4,15ZM514,17.48c.76.14,1.15.53,8.17,8.42,4,4.58,7.34,8.42,7.34,8.56a75.47,75.47,0,0,1-3.06,8.66l-1.7,4.24s-4.91.54-10.87,1.17c-10,1-10.82,1.07-11,.78-.5-.7-8.28-9.48-9.75-11l-1.52-1.62,3-9c1.66-4.94,3.12-9,3.26-9.1.41-.16,8-.9,10.9-1.06A25.92,25.92,0,0,1,514,17.48ZM464.56,43.16l5.35,3.16v2A89.18,89.18,0,0,0,471.3,62.4l.41,2.21-4.36,6.82L463,78.25l-1.46-1a38.45,38.45,0,0,1-5-4.08c-1.06-1.1-2.52-6.84-3-11.82-.53-5.44.18-13.11,1.45-15.69,1.07-2.15,3.65-5.9,4-5.79C459.07,39.93,461.61,41.42,464.56,43.16Zm62.29,10.35c2.28,3.52,4,6.43,5.62,9.54l1.29,2.44-5.35,9.94c-2.93,5.49-5.45,10-5.59,10.1-.35.2-6.84,1.1-9.63,1.35-1.29.12-3.62.24-5.14.26l-2.81,0-5.36-9.24-5.33-9.24,2.11-4c1.17-2.17,3-5.69,4.12-7.8s2-3.85,2-3.87,21.3-2.28,21.79-2.3S525.34,51.22,526.85,53.51Zm19.26,11a46.55,46.55,0,0,1-11.59,23.95,51.93,51.93,0,0,1-6.23,5.73l-.7.53-.1-.55c-.06-.29-.16-.9-.23-1.33s-.4-1.87-.73-3.22L526,87.17l5.53-10.33L537,66.52l2.62-1.36c1.45-.75,3.56-2,4.69-2.7C546.81,60.84,546.74,60.76,546.11,64.51Zm-69.26,3.6c4,1,13.4,2.75,14.65,2.75.41,0,.47.1,8.95,14.79L502.38,89l-1.81,2.5c-3.72,5.14-4.5,6.12-4.89,6.12S474.54,94,474,93.8c-.73-.22-4.75-5.86-7.27-10.18l-1.49-2.56,4.36-6.86c3-4.79,4.41-6.82,4.63-6.76S475.56,67.77,476.85,68.11Zm9.86,31.37,8.5,1.49,2.09,1c1.16.52,2.56,1.15,3.13,1.36l1,.37-3.23-.07A44.17,44.17,0,0,1,479.58,99c-1.29-.63-2.13-1.12-1.85-1.08S482,98.66,486.71,99.48Z" fill="#333"/></g></svg>