<svg id="Layer_1" data-name="Layer 1" xmlns="http://www.w3.org/2000/svg" viewBox="0 0 1000 114"><path d="M930.4,110.5a3.49,3.49,0,0,1-3.49-3.76c.58-7.9-.8-11.18-2.06-12.54a4.61,4.61,0,0,0-3.73-1.35c-3.62,0-9,2-15.94,5.93a3.47,3.47,0,0,1-1.72.46,3.5,3.5,0,0,1-2.84-5.55c6.92-9.6,7.53-14.36,6.83-16.65-1-3.2-5.65-4.91-10.58-6.72-1.23-.45-2.45-.89-3.63-1.37a3.49,3.49,0,0,1-.28-6.36c6.35-3.24,10.26-7.31,11.32-11.75.85-3.59-.2-7.43-3.12-11.42A3.5,3.5,0,0,1,902.94,34a41.62,41.62,0,0,1,4.4-1c3.34-.64,7.14-1.37,8-3.45.76-1.86.64-7-8.7-20.57a3.5,3.5,0,0,1,5.44-4.37c9.8,10.48,17.66,15.8,23.37,15.8,4.93,0,8.9-4.23,13.26-14.14a3.5,3.5,0,0,1,3.2-2.09l.44,0a3.49,3.49,0,0,1,3,2.89c1.7,10.14,4.48,16.19,7.44,16.19,1.17,0,3.85-.76,8.57-5.91a3.53,3.53,0,0,1,2.58-1.13,3.51,3.51,0,0,1,3.5,3.64c-.22,5.53-.21,13.48,2.45,18.78,1.47,2.94,4.45,6.89,13.25,7.24a3.5,3.5,0,0,1,2.2,6.1c-5.46,4.92-9.11,9.15-9.13,13.81,0,4.2,3,9.14,9.06,14.67a3.5,3.5,0,0,1-2.37,6.08,3.56,3.56,0,0,1-1.38-.29C988,84.75,985,84,982.82,84a4.12,4.12,0,0,0-3.4,1.22C978.22,86.55,977,90,978,98.43a3.51,3.51,0,0,1-1.65,3.38,3.43,3.43,0,0,1-1.83.52,3.56,3.56,0,0,1-1.93-.57A26.59,26.59,0,0,0,957.82,97c-10.45,0-19.33,6.77-24.93,12.44A3.51,3.51,0,0,1,930.4,110.5Zm4.16-35a5.18,5.18,0,0,0,1.63-4L917.9,63.27a7.06,7.06,0,0,0-2.12,3.83Zm26.29-3.89a3.82,3.82,0,0,0,2.87,1.47l9.55-16.54a5.65,5.65,0,0,0-2.62-1.91Zm-12.44-7.09A3.42,3.42,0,0,0,951.28,66l11.87-21.16a5.16,5.16,0,0,0-2.61-1.95Zm-12.65-6.48a3.41,3.41,0,0,0,2.87,1.48L950.7,38.08a5.15,5.15,0,0,0-2.6-1.95Zm-13-5.73a3.42,3.42,0,0,0,2.89,1.46l10.45-18.12a5.05,5.05,0,0,0-2.6-1.93Z" fill="#333"/><path d="M909.52,7h0m0,0c11.41,12.22,19.66,16.91,25.92,16.91,7.77,0,12.5-7.21,16.46-16.23,2.23,13.35,6,19.11,10.89,19.11,3.25,0,7-2.52,11.15-7-.63,15.77,1.79,29,19.06,29.66-10,9-17,18.18-.1,33.66-4.09-1.76-7.42-2.6-10.08-2.6-7.56,0-9.67,6.77-8.33,18.36a29.94,29.94,0,0,0-16.67-5.31c-10,0-19.49,5.45-27.42,13.48.94-12.69-2.7-17.65-9.28-17.65-4.63,0-10.71,2.45-17.67,6.39,17-23.58,2.22-25.57-8.9-30,12.94-6.6,17.65-17.14,9.43-28.35,8.24-2.55,26.21-.29,5.54-30.35m16.71,50.32c.45,0,.93,0,1.42-.07L940.26,35.4c-1.93-2.64-3.94-5.15-7.35-5.23h-.33a8.28,8.28,0,0,0-1.18.12L918.79,52.13c1.22,3.68,3.84,5.19,7.44,5.19m13.06,5.75a13.91,13.91,0,0,0,1.42-.07l14.18-25.22c-1.93-2.65-3.94-5.16-7.35-5.23h-.33a8.23,8.23,0,0,0-1.18.11L931.85,57.89c1.22,3.67,3.84,5.18,7.44,5.18m12.65,6.48a13.72,13.72,0,0,0,1.41-.07l14-24.91c-1.93-2.65-3.94-5.16-7.35-5.23h-.33a10,10,0,0,0-1.18.11l-14,24.92c1.22,3.67,3.84,5.18,7.44,5.18M969.8,51h0a8.79,8.79,0,0,0-1.11.08L956.88,71.51c1.35,3.66,4.12,5.15,7.86,5.15l1,0,11.78-20.4c-2-2.65-4.15-5.17-7.71-5.19h0M934.87,79.51c4.07-2.14,5.3-5.77,4.66-10.36L917.1,59.08h0c-2.9,2.84-5.61,5.78-4.65,10.36l22.42,10.07M909.51,0a7,7,0,0,0-5.76,11c8.14,11.84,8.4,16.23,8.35,17.11-1,.62-3.83,1.18-5.43,1.48a46.79,46.79,0,0,0-4.76,1.1,7,7,0,0,0-3.58,10.83c2.29,3.12,3.15,6,2.54,8.54-.8,3.37-4.17,6.72-9.5,9.44a7,7,0,0,0,.57,12.73c1.25.5,2.5,1,3.72,1.41,3.17,1.16,8,2.92,8.44,4.45.11.35.83,3.66-6.32,13.58a7,7,0,0,0,9.12,10.19c8.43-4.77,12.53-5.48,14.22-5.48.22,0,1,0,1.17.23s1.72,2,1.13,9.9a7,7,0,0,0,12,5.44c5.13-5.2,13.2-11.4,22.44-11.4a23.16,23.16,0,0,1,12.82,4.16A7,7,0,0,0,981.44,98c-.91-7.92.36-10.17.57-10.47a2.72,2.72,0,0,1,.81-.09c1,0,3.22.27,7.32,2a7.07,7.07,0,0,0,2.76.57,7,7,0,0,0,4.73-12.16c-5.19-4.77-7.93-8.94-7.92-12.07,0-3.58,3.84-7.51,8-11.23a7,7,0,0,0-4.4-12.2c-6.84-.27-9-2.84-10.27-5.31-2.29-4.58-2.28-11.93-2.07-17.07a7,7,0,0,0-4.33-6.75,7.1,7.1,0,0,0-2.67-.53A7,7,0,0,0,968.79,15c-3.16,3.43-5,4.4-5.71,4.68-.7-.79-2.7-3.76-4.27-13.17a7,7,0,0,0-6-5.8,8.46,8.46,0,0,0-.87,0,7,7,0,0,0-6.41,4.18c-4.69,10.68-7.84,12.05-10,12.05-2.65,0-8.87-1.91-20.81-14.69A7,7,0,0,0,909.51,0Zm0,14Zm0,0Z" fill="#fff"/><path d="M909.52,7c20.67,30.06,2.7,27.8-5.54,30.35,8.22,11.21,3.51,21.75-9.43,28.35,11.12,4.47,25.91,6.46,8.9,30C920.32,86.19,932,85.39,930.4,107c12.25-12.4,28.19-18.64,44.09-8.17-1.81-15.66,2.68-22.52,18.41-15.76C976,67.59,983,58.41,993,49.41c-17.27-.69-19.69-13.89-19.06-29.66-10.42,11.34-18.33,10.12-22-12.07C944.74,24,935.09,34.36,909.52,7Zm23.39,23.17c3.41.08,5.42,2.59,7.35,5.23L927.65,57.25c-4.33.42-7.49-1-8.86-5.12L931.4,30.29a8.28,8.28,0,0,1,1.18-.12Zm14.63,2.38c3.41.07,5.42,2.58,7.35,5.23L940.71,63c-4.33.42-7.49-1-8.86-5.11L946,32.66a8.23,8.23,0,0,1,1.18-.11ZM960,39.34c3.41.07,5.42,2.58,7.35,5.23l-14,24.91c-4.32.42-7.48-1-8.85-5.11l14-24.92a10,10,0,0,1,1.18-.11ZM969.8,51c3.56,0,5.67,2.54,7.71,5.19l-11.78,20.4c-4.24.27-7.38-1.14-8.85-5.12l11.77-20.39A9.41,9.41,0,0,1,969.8,51Zm-52.7,8,22.43,10.07c.64,4.59-.59,8.22-4.66,10.36L912.45,69.44c-1-4.58,1.75-7.52,4.65-10.36Z" fill="#333"/></svg>