<svg xmlns="http://www.w3.org/2000/svg" viewBox="0 0 1000 114"><g id="Layer_2" data-name="Layer 2"><rect x="915.83" y="30.6" width="56.43" height="54.89" fill="#fff"/></g><g id="Layer_1" data-name="Layer 1"><path d="M943,110.5c-3,0-4.18,0-5.7-.93-3.17-1.93-3.44-4.52-3.44-8.53-1.86-.41-3.92-1-5-1.39a49.6,49.6,0,0,1-10.08-4.76,45.14,45.14,0,0,1-18.36-23.62c-.38-1.15-1-3.23-1.4-5.11-4,0-6.6-.27-8.54-3.45-.92-1.5-.92-2.65-.92-5.71s0-4.2.93-5.72c1.93-3.17,4.52-3.44,8.54-3.44.41-1.84,1-3.9,1.39-5.09a48.91,48.91,0,0,1,4.74-10,45,45,0,0,1,23.64-18.37c1.2-.39,3.26-1,5.1-1.39,0-4,.27-6.61,3.45-8.55,1.51-.92,2.65-.92,5.71-.92s4.21,0,5.72.93C951.9,6.37,952.16,9,952.16,13a47.45,47.45,0,0,1,15.11,6.13,45.18,45.18,0,0,1,18.39,23.7c.37,1.14,1,3.19,1.37,5,4,0,6.61.27,8.55,3.45.92,1.51.92,2.65.92,5.71s0,4.21-.93,5.72c-1.93,3.17-4.52,3.44-8.54,3.44-.41,1.84-1,3.88-1.37,5a50.16,50.16,0,0,1-4.77,10.1,45.21,45.21,0,0,1-23.7,18.38c-1.14.38-3.21,1-5.06,1.38,0,.11,0,.22,0,.33-.06,3.11-.08,4.16-1,5.74C949.2,110.5,946.46,110.5,943,110.5ZM917.83,66.06a26.89,26.89,0,0,0,16.11,16.11c.16-2.38.65-4,2.78-5.63l.67-.53a3.55,3.55,0,0,1,2.15-.73h6.92a3.55,3.55,0,0,1,2.15.73l.7.55c2.09,1.58,2.59,3.27,2.75,5.6a27.3,27.3,0,0,0,16.1-16.1c-2.33-.16-4-.67-5.62-2.79l-.53-.66a3.55,3.55,0,0,1-.73-2.15V53.54a3.55,3.55,0,0,1,.73-2.15l.55-.7c1.6-2.1,3.23-2.59,5.61-2.75a26.89,26.89,0,0,0-16.11-16.11c-.16,2.34-.67,4-2.79,5.63l-.66.53a3.55,3.55,0,0,1-2.15.73h-6.92a3.55,3.55,0,0,1-2.15-.73l-.7-.55c-2.1-1.6-2.59-3.22-2.75-5.58-.66.24-1.33.5-1.92.76A27.33,27.33,0,0,0,918.1,47.19l-.27.75c2.34.16,4,.67,5.63,2.79l.53.66a3.55,3.55,0,0,1,.73,2.15v6.92a3.55,3.55,0,0,1-.73,2.15l-.55.7C921.85,65.4,920.17,65.9,917.83,66.06Z" fill="#333"/><path d="M943,7c2.91,0,3.28,0,3.89.41,1.5.92,1.77,1.78,1.77,5.68v2.8l2.43.45A44.21,44.21,0,0,1,965.36,22a41.55,41.55,0,0,1,17,21.87,40,40,0,0,1,1.68,7c0,.39.09.41,2.85.41,3.94,0,4.8.27,5.72,1.77.37.61.41,1,.41,3.89s0,3.28-.41,3.89c-.92,1.5-1.78,1.77-5.72,1.77-2.76,0-2.85,0-2.85.41a40,40,0,0,1-1.68,7A47.28,47.28,0,0,1,978,79.36a41.55,41.55,0,0,1-21.87,17,39.59,39.59,0,0,1-7,1.68c-.35,0-.37.17-.44,3.26s-.1,3.34-.53,4.08c-.82,1.44-1.43,1.64-5.12,1.64-2.89,0-3.26,0-3.87-.41-1.5-.92-1.77-1.78-1.77-5.72,0-2.76,0-2.85-.41-2.85a37.51,37.51,0,0,1-7-1.68A46.75,46.75,0,0,1,920.64,92a41.55,41.55,0,0,1-17-21.8,38,38,0,0,1-1.7-7.09c0-.39-.09-.41-2.85-.41-3.94,0-4.8-.27-5.72-1.77-.37-.61-.41-1-.41-3.89s0-3.28.41-3.89c.92-1.5,1.78-1.77,5.72-1.77,2.76,0,2.85,0,2.85-.41a40.09,40.09,0,0,1,1.7-7.09,45.71,45.71,0,0,1,4.36-9.2,41.45,41.45,0,0,1,21.8-17,40.09,40.09,0,0,1,7.09-1.7c.39,0,.41-.09.41-2.85,0-3.94.27-4.8,1.77-5.72.61-.37,1-.41,3.89-.41m-3.46,28.22-.7-.54c-1.23-.94-1.39-1.45-1.46-4.59-.06-1.92-.14-2.76-.29-2.76h0a31.48,31.48,0,0,0-6.48,2.09,31,31,0,0,0-15.74,16.47,38.14,38.14,0,0,0-1.43,4.68l-.12.73,2.78.08c3.14.07,3.67.25,4.59,1.46l.54.7v6.92l-.54.7c-.92,1.21-1.45,1.39-4.59,1.47l-2.78.07.12.73c.08.39.33,1.36.57,2.16A30.52,30.52,0,0,0,934.41,86c.8.24,1.77.49,2.18.57l.71.14.08-2.8c.07-3.14.23-3.65,1.46-4.59l.7-.54h6.92l.7.54c1.21.92,1.39,1.45,1.47,4.59l.07,2.78.73-.12c.39-.08,1.36-.33,2.16-.57A30.6,30.6,0,0,0,972,65.59c.24-.8.49-1.77.57-2.16l.12-.73-2.78-.07c-3.14-.08-3.67-.26-4.59-1.47l-.54-.7V53.54l.54-.7c.94-1.23,1.45-1.39,4.59-1.46l2.8-.08-.14-.71c-.08-.41-.33-1.38-.57-2.18A30.52,30.52,0,0,0,951.59,28c-.8-.24-1.77-.49-2.16-.57l-.73-.12-.07,2.78c-.08,3.14-.26,3.67-1.47,4.59l-.7.54h-6.92M943,0c-3.24,0-5.19,0-7.54,1.44-3.88,2.37-4.82,5.66-5.05,8.78-1.55.42-2.71.8-2.74.81A48.42,48.42,0,0,0,902.18,30.8,52.47,52.47,0,0,0,897,41.64s-.39,1.21-.82,2.77c-3.12.23-6.41,1.17-8.78,5.06C886,51.81,886,53.76,886,57s0,5.19,1.44,7.54c2.37,3.88,5.66,4.82,8.77,5,.44,1.58.82,2.76.83,2.79a48.61,48.61,0,0,0,19.75,25.43A53.4,53.4,0,0,0,927.71,103c.46.16,1.48.47,2.7.81.23,3.11,1.18,6.41,5.06,8.77C937.81,114,939.75,114,943,114c3.68,0,8.25,0,11.19-5.16a10.3,10.3,0,0,0,1.38-5c1.55-.42,2.71-.8,2.73-.81A48.65,48.65,0,0,0,983.82,83.2,53.28,53.28,0,0,0,989,72.3s.38-1.18.8-2.71c3.12-.23,6.41-1.17,8.78-5.06C1000,62.19,1000,60.24,1000,57s0-5.19-1.44-7.54c-2.37-3.88-5.66-4.82-8.78-5.05-.42-1.52-.78-2.65-.79-2.68A48.7,48.7,0,0,0,969.2,16.18a51.85,51.85,0,0,0-13.62-6c-.23-3.06-1.19-6.42-5.05-8.77C948.19,0,946.24,0,943,0ZM922.77,45.59a24.4,24.4,0,0,1,8.83-8.82,10.2,10.2,0,0,0,3,3.45l.69.53a7,7,0,0,0,4.29,1.47h6.92a7,7,0,0,0,4.29-1.47l.68-.53a10,10,0,0,0,3-3.45,23.87,23.87,0,0,1,8.82,8.83,10.27,10.27,0,0,0-3.44,3l-.53.69a7,7,0,0,0-1.47,4.29v6.92a7,7,0,0,0,1.47,4.29l.53.68a10.11,10.11,0,0,0,3.44,3,23.92,23.92,0,0,1-8.82,8.82,10.11,10.11,0,0,0-3-3.44l-.68-.53a7,7,0,0,0-4.29-1.47h-6.92a7,7,0,0,0-4.29,1.47l-.69.53a10.2,10.2,0,0,0-3,3.45,23.8,23.8,0,0,1-8.82-8.83,10.11,10.11,0,0,0,3.44-3l.53-.68a7,7,0,0,0,1.47-4.29V53.54a7,7,0,0,0-1.47-4.29l-.53-.68a10.28,10.28,0,0,0-3.45-3Z" fill="#fff"/><path d="M943,67.2a8.53,8.53,0,0,1-4.24-.91,10.73,10.73,0,0,1-5.09-5,8.42,8.42,0,0,1-.91-4.42,8.93,8.93,0,0,1,.88-4.36,11.33,11.33,0,0,1,5.64-5.24,10.73,10.73,0,0,1,3.71-.63,10.58,10.58,0,0,1,3.69.63,11.28,11.28,0,0,1,5.65,5.18,8.92,8.92,0,0,1,.91,4.38,8.5,8.5,0,0,1-.89,4.43,10.77,10.77,0,0,1-5.06,5A8.64,8.64,0,0,1,943,67.2Z" fill="#333"/><path d="M943,50.17a7.08,7.08,0,0,1,2.45.4A7.77,7.77,0,0,1,949.19,54a5.46,5.46,0,0,1,.55,2.87,5,5,0,0,1-.55,2.87,7.2,7.2,0,0,1-3.42,3.34,6.8,6.8,0,0,1-5.54,0,7.2,7.2,0,0,1-3.42-3.34,5,5,0,0,1-.55-2.87,5.46,5.46,0,0,1,.55-2.87,7.91,7.91,0,0,1,3.71-3.46,7.4,7.4,0,0,1,2.47-.4m0-7a14.1,14.1,0,0,0-4.93.85,14.92,14.92,0,0,0-7.53,6.92l-.06.12a12.36,12.36,0,0,0-1.21,5.75v.09a11.82,11.82,0,0,0,1.24,5.9l0,.07a14.2,14.2,0,0,0,6.66,6.55l.1,0a13.87,13.87,0,0,0,11.42,0l.1,0a14.2,14.2,0,0,0,6.66-6.55l0-.07a11.82,11.82,0,0,0,1.24-5.9v-.09a12.36,12.36,0,0,0-1.21-5.75l-.06-.12A14.61,14.61,0,0,0,947.89,44a13.93,13.93,0,0,0-4.9-.85Z" fill="#fff"/><path d="M939.11,7.41c-1.5.92-1.77,1.78-1.77,5.72,0,2.76,0,2.85-.41,2.85a40.09,40.09,0,0,0-7.09,1.7,41.45,41.45,0,0,0-21.8,17,45.71,45.71,0,0,0-4.36,9.2,40.09,40.09,0,0,0-1.7,7.09c0,.39-.09.41-2.85.41-3.94,0-4.8.27-5.72,1.77-.37.61-.41,1-.41,3.89s0,3.28.41,3.89c.92,1.5,1.78,1.77,5.72,1.77,2.76,0,2.85,0,2.85.41a38,38,0,0,0,1.7,7.09,41.55,41.55,0,0,0,17,21.8,46.75,46.75,0,0,0,9.27,4.38,37.51,37.51,0,0,0,7,1.68c.39,0,.41.09.41,2.85,0,3.94.27,4.8,1.77,5.72.61.37,1,.41,3.87.41,3.69,0,4.3-.2,5.12-1.64.43-.74.47-1.06.53-4.08s.09-3.26.44-3.26a39.59,39.59,0,0,0,7-1.68,41.55,41.55,0,0,0,21.87-17,47.28,47.28,0,0,0,4.38-9.27,40,40,0,0,0,1.68-7c0-.39.09-.41,2.85-.41,3.94,0,4.8-.27,5.72-1.77.37-.61.41-1,.41-3.89s0-3.28-.41-3.89c-.92-1.5-1.78-1.77-5.72-1.77-2.76,0-2.85,0-2.85-.41a40,40,0,0,0-1.68-7,41.55,41.55,0,0,0-17-21.87,44.21,44.21,0,0,0-14.27-5.7l-2.43-.45v-2.8c0-3.9-.27-4.76-1.77-5.68C946.28,7,945.91,7,943,7S939.72,7,939.11,7.41Zm-1.73,22.68c.07,3.14.23,3.65,1.46,4.59l.7.54h6.92l.7-.54c1.21-.92,1.39-1.45,1.47-4.59l.07-2.78.73.12c.39.08,1.36.33,2.16.57A30.52,30.52,0,0,1,972,48.41c.24.8.49,1.77.57,2.18l.14.71-2.8.07c-3.14.08-3.65.24-4.59,1.47l-.54.7v6.92l.54.7c.92,1.21,1.45,1.39,4.59,1.46l2.78.08-.12.73c-.08.39-.33,1.36-.57,2.16A30.6,30.6,0,0,1,951.59,86c-.8.24-1.77.49-2.16.57l-.73.12-.07-2.78c-.08-3.14-.26-3.67-1.47-4.59l-.7-.54h-6.92l-.7.54c-1.23.94-1.39,1.45-1.46,4.59l-.08,2.8-.71-.14c-.41-.08-1.38-.33-2.18-.57A30.52,30.52,0,0,1,914,65.59c-.24-.8-.49-1.77-.57-2.16l-.12-.73,2.78-.08c3.14-.07,3.67-.25,4.59-1.46l.54-.7V53.54l-.54-.7c-.92-1.21-1.45-1.39-4.59-1.47l-2.78-.07.12-.73a38.14,38.14,0,0,1,1.43-4.68A31,31,0,0,1,930.6,29.42a31.48,31.48,0,0,1,6.48-2.09C937.24,27.31,937.32,28.15,937.38,30.09Z" fill="#333"/><path d="M940.52,50.57A7.91,7.91,0,0,0,936.81,54a5.46,5.46,0,0,0-.55,2.87,5,5,0,0,0,.55,2.87,7.2,7.2,0,0,0,3.42,3.34,6.8,6.8,0,0,0,5.54,0,7.2,7.2,0,0,0,3.42-3.34,5,5,0,0,0,.55-2.87,5.46,5.46,0,0,0-.55-2.87,6.88,6.88,0,0,0-8.67-3.46Z" fill="#333"/></g></svg>