<svg id="Calque_2" data-name="Calque 2" xmlns="http://www.w3.org/2000/svg" viewBox="0 0 1000 114"><title>logo_right</title><path d="M802.48,68.38h0m0,0c-.09.76-.18,1.51-.25,2.13.07-.62.16-1.37.25-2.13h0m0-7a7,7,0,0,0-2,.28,6.77,6.77,0,0,0-2.7,1.5,7,7,0,0,0-1.8,2.51,7.07,7.07,0,0,0-.51,2l-.2,1.79,0,.26a7,7,0,0,0,13.91,1.57l0-.16.2-1.76a8.12,8.12,0,0,0,.07-1,7,7,0,0,0-6.72-7Zm0,14Z" fill="#fff"/><path d="M769.58,89.85h0m0-7a7,7,0,0,0-7,7h0a7,7,0,1,0,7-7Z" fill="#fff"/><path d="M821.56,110.5c-3.56,0-8.51-.66-11.34-6.11-7.61,5.51-16.27,6-24,6h-.6q-13.87,0-27.73,0H734.18l-20.31,0H709a3.5,3.5,0,0,1-3-5.37l22.68-35.85A32.35,32.35,0,0,1,710.55,48c-2.66-10.09-.07-20.74,7.1-29.22C726.23,8.65,736.84,3.5,749.2,3.5a50.26,50.26,0,0,1,12.41,1.64l.93.25a10.7,10.7,0,0,0,2.49.5,1.62,1.62,0,0,0,1-.31A3.47,3.47,0,0,1,768,5h.16l4.5.19c3.82.15,7.77.31,11.68.6a21.29,21.29,0,0,1,4.53,1c.52.16,1,.32,1.57.45a3.15,3.15,0,0,1,1,.4,3.49,3.49,0,0,1,3.15-2h13.1q41.75,0,83.48,0h6.4c.13,0,.38-.12.57-.19s.69-.25,1-.35a3.14,3.14,0,0,1,.61-.12,15,15,0,0,1,1.77-.1c5.58,0,9.62,2.83,12.92,6,4.32-3,9.22-6,15.39-6,.42,0,.84,0,1.27,0a2.33,2.33,0,0,1,.38,0c.48.09,1,.2,1.44.3a10,10,0,0,0,2,.33q12.55,0,25.11,0,13.74,0,27.49,0a20,20,0,0,1,4,.52l1.39.27a3.5,3.5,0,0,1,2.42,5.3c-1.79,2.89-3.58,5.87-5.3,8.75-4.06,6.76-8.25,13.75-12.94,20.31-3.37,4.72-3.95,9.91-4.61,15.91-.07.62-.13,1.24-.21,1.86h19a3.5,3.5,0,0,1,3.5,3.5v44.72a3.5,3.5,0,0,1-3.5,3.5H948.07c-11.19,0-26,0-41,.11h-.17A16.76,16.76,0,0,1,895,106.18c-.87-.77-1.77-1.51-2.73-2.26v3a3.5,3.5,0,0,1-3.5,3.5h-4.31l-16.45,0-16.45,0c-11.87,0-21,0-29.65.16ZM808.14,77.31a3.45,3.45,0,0,1,1.4.29,9.21,9.21,0,0,1,4.36,4c1.45,2.38,2.88,4.77,4.31,7.16l3.4,5.66c.58,1,1.17,1.29,1.53,1.29s1.1-.54,1.58-1.38q6.42-11,12.77-22.08l.51-.88h-.16c-1.07,0-1.13,0-3.57,4.43l-7.78,14.11a3.51,3.51,0,0,1-3,1.81h0a3.5,3.5,0,0,1-3-1.74c-.85-1.46-1.75-2.89-2.61-4.27a64,64,0,0,1-5.27-9.56c-1.74-4.22-4-4.8-6.23-4.8l-.65,0a3.54,3.54,0,0,1-1.57,2.16,3.44,3.44,0,0,1-1.84.52,3.57,3.57,0,0,1-1.2-.21c-4.52-1.66-9.42-2.4-15.89-2.4-2.77,0-5.62.13-8.37.26-1.44.06-2.9.13-4.37.18a3.2,3.2,0,0,0-.1.67c0,1.22.09,2.45.14,3.67.11,2.37.25,4.73.4,7.1l.24,4.1v2.37a3.58,3.58,0,0,1-3.37,3.6l-1.87.06a3.52,3.52,0,0,1-3-1.66l-3.77-6.11Q757,79.1,753,72.54a3,3,0,0,0-2.55-1.26,2.75,2.75,0,0,0-2.35,1.15c-4.5,7.55-9,15.25-13.45,22.74h5.08a3.4,3.4,0,0,1-1.49-1.37,3.49,3.49,0,0,1,0-3.48l8.85-15.91a3.51,3.51,0,0,1,3.05-1.8h0a3.5,3.5,0,0,1,3,1.77c1,1.79,2,3.55,3,5.29,3,5.22,5.74,10.16,8.62,15.06a3,3,0,0,0,.53.63h4.18c8.43,0,17.14-.06,25.6-.72,5.72-.44,9.21-3.72,9.82-9.24a13.08,13.08,0,0,0-.11-2.66c0-.58-.11-1.15-.14-1.73a3.5,3.5,0,0,1,1.49-3.07A3.55,3.55,0,0,1,808.14,77.31Zm67.78,16.17a3.47,3.47,0,0,1-.64,2h2.18V80.34a3.51,3.51,0,0,1,5.69-2.74c2.07,1.66,4.1,3.26,6.1,4.84,4.91,3.88,9.55,7.54,14.11,11.44a5.67,5.67,0,0,0,2.92,1.47V71.78h-.92V86a3.5,3.5,0,0,1-5.49,2.88l-1.58-1.07c-.9-.6-1.6-1.08-2.31-1.63l-4.35-3.36c-4.08-3.13-8.3-6.38-12.32-9.79a5.28,5.28,0,0,0-3.39-1.42Zm-8.06,1.91,1.68.07-.12-.18L865.06,88c-3.33-5.55-6.46-10.76-9.62-16a2.76,2.76,0,0,0-2.19-.76,2.88,2.88,0,0,0-2.31.83c-4.14,7-8.5,14.34-13.59,23h5.1A3.58,3.58,0,0,1,841,93.79a3.49,3.49,0,0,1,0-3.47l8.77-15.91a3.49,3.49,0,0,1,3-1.81h0a3.51,3.51,0,0,1,3.05,1.78l3,5.4c2.86,5.1,5.55,9.91,8.34,14.71A5,5,0,0,0,867.86,95.39Zm112.34-.24V95H959.69a3.5,3.5,0,0,1-3.5-3.5V86.06a3.5,3.5,0,0,1,2.6-3.39,3.49,3.49,0,0,1-2.56-3.37V75a3.5,3.5,0,0,1,2.07-3.2h-3.82V95.15Zm-48.89-23.5c-4.38,0-8.78.08-12.88.17-1.14,0-1.86.37-1.89,2-.12,6.41-.11,12.94,0,19.41,0,1.44.64,1.73,1.68,1.75,3.94.09,8,.13,12.2.13,3.8,0,7.76,0,11.78-.1.69,0,1.64,0,1.89-2.38a20.78,20.78,0,0,0,.08-2.12h-2l-.08.94a3.5,3.5,0,0,1-3.49,3.21H921.91a3.5,3.5,0,0,1-3.5-3.5V75.41a3.5,3.5,0,0,1,3.5-3.5h16.65A3.48,3.48,0,0,1,942,75l.09.68h2c0-2.35-.41-3.13-.59-3.35a2.49,2.49,0,0,0-1.57-.46C938.69,71.71,935.21,71.65,931.31,71.65Zm.77-52.35a14.11,14.11,0,0,0-8.18,2.79,22.28,22.28,0,0,0-7.83,24.72c2.12,6.39,7,10.36,12.67,10.36a15.18,15.18,0,0,0,10.65-4.94c4-4.11,6-9.33,6.42-17.4-.12-.44-.25-.95-.39-1.5a35.16,35.16,0,0,0-2.17-6.53C940.94,22,936.86,19.3,932.08,19.3Zm-182.17-1c-8.13,0-16.07,3.54-20.73,9.25a19.61,19.61,0,0,0-4.06,17.24,15.41,15.41,0,0,0,9.47,10.73,18.36,18.36,0,0,0,6.63,1.26,22.39,22.39,0,0,0,9.29-2.2,3.41,3.41,0,0,1,1.46-.32,3.49,3.49,0,0,1,2.45,1c.39.38.71.77,1,1.07l.07.09a11.23,11.23,0,0,0,2.06.24c1,0,1.72,0,3.3-3.47.26-.59.51-1.18.76-1.77a35.3,35.3,0,0,1,2.16-4.49,7.75,7.75,0,0,1,5.4-3.63c1.16-.11,2.42-.16,4-.16l2.44,0,2.39,0A3.49,3.49,0,0,1,781.36,46l1.94,10.12H793l6.67-20.72A3.5,3.5,0,0,1,803,33h.28l.65,0a3.51,3.51,0,0,1,3.16,2.78l4.27,20.53h.13c.62,0,1.1,0,1.51-1.83a10.84,10.84,0,0,1,.85-2.27c.08-.16.16-.32.23-.48l8.44-19.41a3.49,3.49,0,0,1,3.21-2.1,3.39,3.39,0,0,1,1.17.2l.55.19a3.5,3.5,0,0,1,2.33,3.14l1,22.19h1.9l-1.56-36.56-1.07,0a20.5,20.5,0,0,1-3-.19,4.68,4.68,0,0,0-.6-.05,1,1,0,0,0-.39.05s-.31.19-.82,1.5c-1.81,4.65-3.79,9.23-5.89,14.09-.88,2-1.77,4.09-2.69,6.25a3.5,3.5,0,0,1-3.22,2.13,2.36,2.36,0,0,1-.38,0,3.48,3.48,0,0,1-3.06-2.83l-3.94-21a16.84,16.84,0,0,0-2.59-.3,3.3,3.3,0,0,0-.47,0,22.07,22.07,0,0,0-1.71,4.27c-.16.46-.3.94-.44,1.41s-.3,1-.46,1.5l-8,24.49a3.49,3.49,0,0,1-3.32,2.41,2.36,2.36,0,0,1-.38,0L788,53.1a3.49,3.49,0,0,1-3.07-2.89l-5.22-30.77-1.58,0a21.48,21.48,0,0,1-2.94-.17,4.66,4.66,0,0,0-.61,0c-.48,0-.72,0-1.37,1.55-3,7.29-6.29,14.6-9.44,21.66q-1.46,3.26-2.89,6.51c-.41.91-.86,1.73-1.3,2.53l-.54,1a3.49,3.49,0,0,1-3.09,1.87,3.53,3.53,0,0,1-1.6-.39l-.74-.38a3.5,3.5,0,0,1-1.84-3.66l1.27-8h-9.5l-.13,1H746a3.49,3.49,0,0,1,3.47,4L749,51a3.48,3.48,0,0,1-2.88,3l-.47.08a34.59,34.59,0,0,1-5.87.67,11.58,11.58,0,0,1-9.9-4.83,15.61,15.61,0,0,1-1.71-16.24,20.69,20.69,0,0,1,16.52-12.43,41.6,41.6,0,0,1,5.92-.36c1.51,0,3,.05,4.54.1l1.47.05.24-1.84A26.66,26.66,0,0,0,749.91,18.29ZM887.26,56.23c2.31,0,4.59,0,6.87.06h.32a11.86,11.86,0,0,0,11.23-6.76c1.28-2.36,1.87-5.19-2.41-9.86A3.5,3.5,0,0,1,903,35.3l1.1-1.52a28.18,28.18,0,0,0,1.84-2.69,7.7,7.7,0,0,0,.1-7.46,7.22,7.22,0,0,0-5.92-3.91c-1.85-.14-3.86-.21-6.32-.21-1.74,0-3.49,0-5.27.07l-2.65,0-5.78,36.64h1.72Zm-28-.18.34-2.08H848.1a3.5,3.5,0,0,1-3.46-4l1.28-8.11a3.5,3.5,0,0,1,3.46-3H860l.33-2.32h-9.64a3.49,3.49,0,0,1-3.46-4l1.19-7.85a3.5,3.5,0,0,1,3.46-3h12.71l.3-2.14H847.12l-5.79,36.5ZM957.44,56c1.13-9.53,2.78-18.75,9.3-26.89a83.81,83.81,0,0,0,6.37-9.75l0,0a6.07,6.07,0,0,0-.81-.06c-1,0-1.86.16-2.81,2.06a67.75,67.75,0,0,1-4.28,7.14c-.62.95-1.24,1.9-1.84,2.86a3.47,3.47,0,0,1-3,1.65,3.52,3.52,0,0,1-1.84-.52l-.19-.11a4.06,4.06,0,0,1-2-2.07c-.58-1.42-1.14-2.84-1.7-4.26l-.45-1.13c-2.24-5.68-2.24-5.68-3.94-5.68h-.69l.48,1.05c2.11,4.5,4.28,9.16,6.22,13.87a19.14,19.14,0,0,1,1.25,8.94c-.41,4.06-1.09,8.14-1.75,12.08,0,.28-.09.57-.14.85Z" fill="#2307cb"/><path d="M749.2,7a46.57,46.57,0,0,1,11.54,1.53,17.75,17.75,0,0,0,4.29.86,5.06,5.06,0,0,0,3-.92c5.36.25,10.73.4,16.08.79a32.69,32.69,0,0,1,5.51,1.32c.51,2.22,1,4.43,1.68,7.37,1.25-3.37,2.27-6.1,3.28-8.83q48,0,96,.06h7.11a9.43,9.43,0,0,0,2.46-.68,13.63,13.63,0,0,1,1.41-.08c5.25,0,8.92,3.27,12.49,7.12,4.89-3.43,9.63-7.08,15.82-7.08.34,0,.69,0,1,0a23.35,23.35,0,0,0,4,.68c17.53.05,35.07,0,52.6.07a31.26,31.26,0,0,1,4.85.74c-6,9.66-11.52,19.65-18.11,28.87-5.11,7.15-4.66,15.06-6,23.31h23v44.72h-4.32l-38.81,0q-20.52,0-41.06.11h-.15a13.29,13.29,0,0,1-9.56-3.4c-2.52-2.25-5.32-4.2-8.56-6.72v10h-4.31c-11,0-21.93,0-32.9,0-9.9,0-19.8,0-29.69.16h-.31c-4.23,0-7-1.15-8.65-5.11A17.6,17.6,0,0,0,811,99.14c-7.06,6.88-15.74,7.78-24.78,7.78h-.58q-13.87,0-27.77,0-22,0-44,0H709l24.67-39c-.47-.42-.7-.78-1-.89-19.68-7.31-26-29.82-12.33-46C728.28,11.65,738.05,7,749.2,7m-8,53.27A25.9,25.9,0,0,0,752,57.75c.8.78,1.34,1.78,2.06,1.94a17,17,0,0,0,3.49.45c3.1,0,4.69-1.57,6.49-5.52a56.39,56.39,0,0,1,2.73-5.9,4.28,4.28,0,0,1,2.73-1.94c1.21-.12,2.42-.15,3.64-.15,1.58,0,3.19,0,4.82,0,.86,4.53,1.67,8.75,2.48,13h15.15Q799.31,48,803,36.51l.66.05c1.6,7.66,3.19,15.32,4.75,22.81a11,11,0,0,0,3.09.52c2.53,0,4.2-1.38,4.92-4.56a11.49,11.49,0,0,1,.87-2.13q4.22-9.71,8.44-19.4l.56.19q.59,12.76,1.19,25.53h8.9c-.63-14.65-1.24-29-1.87-43.63-1.6,0-3,.09-4.43.09a18.36,18.36,0,0,1-2.48-.15,7.29,7.29,0,0,0-1.1-.09c-2.37,0-3.53,1.35-4.47,3.78-2.54,6.51-5.42,12.89-8.54,20.24-1.59-8.48-3-16-4.38-23.37a32.08,32.08,0,0,0-5.59-.8c-3.08,0-3.84,1.66-5.5,6.7-.32,1-.59,2-.91,2.93l-8,24.48-.78-.08c-1.91-11.22-3.81-22.43-5.73-33.74-1.66,0-3.13.09-4.52.09a18.67,18.67,0,0,1-2.5-.14,7.82,7.82,0,0,0-1.05-.07c-2.35,0-3.57,1.24-4.6,3.71-3.92,9.44-8.16,18.74-12.3,28.09-.5,1.13-1.15,2.19-1.73,3.29l-.73-.38c.63-3.94,1.26-7.89,1.92-12H740.43l-1,8H746c-.22,1.65-.39,2.87-.55,4.07a34.8,34.8,0,0,1-5.75.7,8.16,8.16,0,0,1-7.09-3.43,12,12,0,0,1-1.32-12.71A17.14,17.14,0,0,1,745.14,24.7a39,39,0,0,1,5.43-.33c2.95,0,6,.2,9.08.2.32-2.48.68-5.2,1-7.8a29.39,29.39,0,0,0-10.76-2c-9,0-18,3.85-23.44,10.54C717,37,720.35,53.71,733.32,58.77a21.7,21.7,0,0,0,7.89,1.5m210.31-.78h8.93c.16-1,.31-1.75.4-2.51,1.07-9.16,2.52-18.08,8.62-25.69,3.62-4.51,6.29-9.79,9.82-15.41-1.49,0-2.69.07-3.76.07a13.56,13.56,0,0,1-1.83-.1,11.19,11.19,0,0,0-1.37-.1c-2.68,0-4.55,1.22-5.94,4-1.68,3.39-3.95,6.48-6,9.71-.45-.28-.77-.36-.85-.54-.73-1.77-1.42-3.56-2.12-5.34-2.52-6.36-3.12-7.89-7.2-7.89-1.29,0-2.94.15-5.1.35a5.72,5.72,0,0,0-.76.34c2.91,6.34,6,12.62,8.64,19.07a15.73,15.73,0,0,1,1,7.26c-.56,5.56-1.63,11.08-2.51,16.78m-22.79,1.18c4.49,0,9.17-1.93,13.16-6,5-5.09,7-11.42,7.45-20.26-.61-2-1.3-5.79-2.94-9.15-3-6.18-8.47-9.48-14.32-9.48a17.66,17.66,0,0,0-10.22,3.45,25.74,25.74,0,0,0-9.11,28.67c2.74,8.26,9.13,12.76,16,12.76M876,59.76c3.9,0,7.61,0,11.25,0,2.3,0,4.57,0,6.83.06h.39a15.27,15.27,0,0,0,14.31-8.6c2.87-5.32.78-9.86-2.91-13.88,1.09-1.55,2.23-2.94,3.11-4.49,4-7-.52-16-8.59-16.59-2.18-.16-4.37-.22-6.58-.22-3.57,0-7.19.14-10.92.14C880.57,30.69,878.31,45,876,59.76m-38.75-.21h25c.5-3,1-5.84,1.5-9.08H848.1c.45-2.87.84-5.32,1.28-8.11h13.67c.45-3.22.85-6.06,1.31-9.32H850.69c.42-2.76.78-5.12,1.19-7.85h15.75l1.29-9.14H844.13c-2.33,14.7-4.6,29-6.9,43.5M728.82,98.68H750V92h-8.68l8.85-15.92c4,7.15,7.77,13.82,11.64,20.4.61,1,1.94,2.36,2.93,2.36h0c10.22-.06,20.47,0,30.65-.75,7.71-.59,12.27-5.47,13-12.34a30.76,30.76,0,0,0-.24-5,5.73,5.73,0,0,1,2.77,2.57c2.59,4.26,5.13,8.54,7.71,12.81a5.42,5.42,0,0,0,4.52,3c1.7,0,3.4-1,4.61-3.12q6.93-11.92,13.81-23.89c.68-1.17,1.29-2.38,2-3.7a45.53,45.53,0,0,0-5.72-.63c-3.2,0-4,1.44-6.63,6.24-2.5,4.52-5,9.05-7.78,14.11-2.81-4.8-5.81-8.87-7.67-13.4-2-4.92-5.17-7-9.47-7a18.22,18.22,0,0,0-3.1.3,5.15,5.15,0,0,0-.71.27h0c-.09.76-.18,1.51-.25,2.13a48.6,48.6,0,0,0-17.09-2.61c-5.16,0-10.3.43-15.43.51a17.56,17.56,0,0,0-.9,4.19c0,1.25.08,2.5.14,3.74.17,3.75.42,7.49.63,11.23v2.28h0l-1.74.06Q761.92,80.31,756,70.7a6.43,6.43,0,0,0-5.53-2.92,6.11,6.11,0,0,0-5.35,2.86q-7.56,12.66-15,25.4c-.48.82-.83,1.72-1.27,2.64m102.9,0h20.87V92H844l8.78-15.91c4,7.06,7.61,13.64,11.38,20.14.63,1.09,1.82,2.54,2.82,2.6,2.13.14,4.27.17,6.45.17,2.45,0,4.94,0,7.52,0V80.34C888,86,894.71,91.08,901.08,96.54A8.84,8.84,0,0,0,907,98.9a12.19,12.19,0,0,0,2.75-.35V68.28h-7.92V86c-1.75-1.2-2.78-1.84-3.73-2.58-5.55-4.32-11.2-8.52-16.56-13.06a8.75,8.75,0,0,0-5.93-2.26,14.06,14.06,0,0,0-3.22.41v25c-5.06-8.41-9.49-15.84-14-23.23a6,6,0,0,0-5.18-2.44,6.12,6.12,0,0,0-5.32,2.54q-7.74,13-15.39,26.08a13.06,13.06,0,0,0-.82,2.22m98.72,0q5.92,0,11.84-.11c3.36-.05,5-2.38,5.31-5.51a59.58,59.58,0,0,0,0-6H939c-.13,1.53-.24,2.78-.36,4.15H921.91V75.41h16.65c.17,1.32.31,2.44.47,3.75h8.32c1-7.23-.46-10.6-5.23-10.8-3.6-.16-7.2-.21-10.81-.21-4.32,0-8.64.08-13,.18-3.23.07-5.25,2.13-5.31,5.43-.12,6.51-.11,13,0,19.55a4.9,4.9,0,0,0,5.1,5.18q6.14.14,12.28.13m20.54,0H983.7V91.51h-24V86.06h13.66V79.3H959.73V75h23.63v-6.7H951V98.65M749.2,0C736,0,724.12,5.72,715,16.55c-7.91,9.36-10.76,21.16-7.81,32.37a35.47,35.47,0,0,0,16.58,21.6l-.84,1.32-19.82,31.32A7,7,0,0,0,709,113.9h4.87l20.5,0H757.9c10.63,0,19.45,0,27.75,0h.6c7.74,0,15.75-.69,23-4.76,2.86,3.21,7,4.84,12.3,4.84h.4c8.61-.11,17.74-.16,29.6-.16l16.45,0,16.45,0h4.31a7,7,0,0,0,6-3.41,20.44,20.44,0,0,0,12.11,3.5h.19c15.06-.1,29.83-.11,41-.11h43.13a7,7,0,0,0,7-7V62.16a7,7,0,0,0-7-7H976.14c.56-4.8,1.25-8.73,3.75-12.23,4.77-6.68,9-13.74,13.1-20.56,1.72-2.87,3.49-5.83,5.27-8.7a7,7,0,0,0-4.84-10.6c-.42-.06-.83-.15-1.25-.24a23.09,23.09,0,0,0-4.69-.59c-9.16,0-18.47,0-27.47,0q-12.57,0-25.13,0a11.92,11.92,0,0,1-1.21-.24c-.47-.11-1-.23-1.59-.33a6.76,6.76,0,0,0-.77-.1c-.5,0-1-.05-1.5-.05-6.09,0-10.89,2.36-15.09,5.08A20.15,20.15,0,0,0,901.5,1.41a19.19,19.19,0,0,0-2.14.12,6.42,6.42,0,0,0-1.22.24c-.47.13-.89.29-1.21.4h-6.41c-28.15,0-56.77,0-84.45-.05H794.54a7,7,0,0,0-4.22,1.41l-.46-.14a23.9,23.9,0,0,0-5.28-1.11c-4-.29-7.92-.45-11.76-.61l-4.51-.19H768a7,7,0,0,0-3.34.85L763.45,2l-1-.26A53.75,53.75,0,0,0,749.2,0ZM928.73,53.67c-4.19,0-7.68-3-9.34-8a18.72,18.72,0,0,1,6.54-20.77,10.7,10.7,0,0,1,6.15-2.15c3.39,0,6.32,2,8,5.54A32.69,32.69,0,0,1,942,34.2c.08.34.17.67.25,1-.46,6.91-2,11.18-5.39,14.58a11.68,11.68,0,0,1-8.16,3.9Zm-160-13.86c2.47-5.55,5-11.22,7.34-16.9l.62,0,2.88,16.94a7,7,0,0,0-1.66-.2l-2.32,0-2.5,0c-1.66,0-3,.06-4.3.18ZM888.86,23.07c1.7,0,3.32-.06,4.93-.06,2.36,0,4.28.07,6.05.2a3.77,3.77,0,0,1,3.09,2.06,4.17,4.17,0,0,1,0,4.08,22.49,22.49,0,0,1-1.62,2.35l-1.14,1.59a7,7,0,0,0,.57,8.75c3.18,3.47,2.51,4.73,1.91,5.83-1.86,3.45-4.29,4.92-8.15,4.92h-.26c-2.07,0-4.28-.06-7-.06h-3.05l4.68-29.67Zm-62.22,3.78c.42-1,.83-2,1.23-3l.14,3.33a7.35,7.35,0,0,0-1.37-.32Zm-23.55,2.66.69-2.12.18-.56.52,2.78-.25,0-.44,0-.22,0-.48,0ZM775.9,75.2l1,0c2.84-.13,5.52-.25,8.21-.25,6,0,10.57.67,14.68,2.18a7,7,0,0,0,2.15.43,7,7,0,0,0-.82,3.69c0,.68.1,1.32.16,1.88a12.08,12.08,0,0,1,.11,1.92c-.42,3.82-2.58,5.83-6.61,6.14-6.07.47-12.32.62-18.5.67a7,7,0,0,0,.27-2V87.56c0-.12,0-.25,0-.38L776.33,83c-.14-2.31-.28-4.69-.39-7,0-.28,0-.55,0-.82Z" fill="#fff"/><path d="M891.09,12.67q-41.72,0-83.42,0H794.54a3.5,3.5,0,0,1-1-6.87c.22-.06.43-.14.64-.22a8.75,8.75,0,0,1,3.06-.66q27.74,0,55.47,0H899a7.42,7.42,0,0,1,1.32.13l.24,0a3.5,3.5,0,0,1,.55,6.84c-.18.05-.36.12-.54.19a8.06,8.06,0,0,1-2.9.63Z" fill="#1000c7"/><path d="M852.23,8.34H899a8.72,8.72,0,0,1,1.13.14,9.43,9.43,0,0,1-2.46.68h-7.07q-48,0-96-.06a10.84,10.84,0,0,1,2.75-.75q27.47,0,54.94,0m0-7-55,0a12.33,12.33,0,0,0-4.26.87l-.4.14a7,7,0,0,0,1.91,13.74h11.53c27.69,0,56.33.05,84.5.05h7.07a11.43,11.43,0,0,0,4.11-.85l.33-.12A7,7,0,0,0,901,1.54l-.12,0A12,12,0,0,0,899,1.35Z" fill="#fff"/><path d="M992.31,13.48a3.52,3.52,0,0,1-.56,0c-.56-.09-1.11-.2-1.67-.32a14.86,14.86,0,0,0-2.63-.38q-13.74,0-27.47,0-12.57,0-25.13,0a15.86,15.86,0,0,1-3.51-.5l-1.11-.24A3.5,3.5,0,0,1,930.84,5l10.94,0q24.68-.06,49.35-.1h.24c.24,0,.5,0,.74,0a4.09,4.09,0,0,1,4,2.3c.75,1.6.36,3.32-1.14,5.11A3.49,3.49,0,0,1,992.31,13.48Z" fill="#1101c8"/><path d="M992.11,8.32c.8,0,1.41.21.2,1.66a31.26,31.26,0,0,0-4.85-.74c-17.53-.06-35.07,0-52.6-.07a23.35,23.35,0,0,1-4-.68q30.14-.08,60.28-.13c.28,0,.65,0,1,0m0-7c-.31,0-.63,0-.93,0h-.12c-16.81,0-33.89.06-50.42.1l-9.81,0a7,7,0,0,0-1.21,13.89l1,.2a18.61,18.61,0,0,0,4.27.59q12.58,0,25.16,0c9,0,18.3,0,27.44,0a13.28,13.28,0,0,1,1.93.31c.55.11,1.17.24,1.83.34a7,7,0,0,0,6.47-2.41c3.22-3.84,2.4-7.19,1.63-8.84a7.63,7.63,0,0,0-7.19-4.32Z" fill="#fff"/><path d="M789.58,14.08a3.53,3.53,0,0,1-.85-.1c-.62-.16-1.24-.34-1.87-.53a15,15,0,0,0-3-.7c-3.8-.28-7.69-.44-11.46-.59L767.83,12A3.5,3.5,0,0,1,768,5l5.29,0c4.54,0,9.23-.05,13.84-.13h.27A5.82,5.82,0,0,1,792,6.62a5.32,5.32,0,0,1,1,4.57,3.49,3.49,0,0,1-3.45,2.89Z" fill="#1000c7"/><path d="M787.37,8.31c1.58,0,2.55.36,2.21,2.27a32.69,32.69,0,0,0-5.51-1.32c-5.35-.39-10.72-.54-16.08-.79,6.39,0,12.78-.05,19.17-.16h.21m0-7H787c-4.61.08-9.31.11-13.86.13l-5.24,0a7,7,0,0,0-.27,14l4.58.2c3.73.15,7.58.31,11.31.58a14.27,14.27,0,0,1,2.3.57c.61.18,1.3.38,2,.56a7,7,0,0,0,8.6-5.57,8.73,8.73,0,0,0-1.78-7.43,9.07,9.07,0,0,0-7.33-3.06Z" fill="#fff"/><path d="M741.22,63.77A25.22,25.22,0,0,1,732.05,62a22.56,22.56,0,0,1-13.7-15.47,26.57,26.57,0,0,1,5.41-23.44c6-7.41,15.82-11.83,26.15-11.83a32.7,32.7,0,0,1,12,2.22,3.5,3.5,0,0,1,2.2,3.71l-1,7.8a3.5,3.5,0,0,1-3.47,3.05c-1.63,0-3.23-.05-4.78-.1s-2.9-.1-4.3-.1a35.21,35.21,0,0,0-4.94.29,13.73,13.73,0,0,0-11.1,8.35,8.52,8.52,0,0,0,.92,9.2c.15.19.29.37.44.53,0-.08,0-.15,0-.23L737,38a3.49,3.49,0,0,1,3.47-3H757.1a3.45,3.45,0,0,1,2,.66c2.56-5.76,5.14-11.63,7.57-17.45.6-1.46,2.44-5.87,7.83-5.87a11.22,11.22,0,0,1,1.5.1,16.87,16.87,0,0,0,2.05.11c.63,0,1.28,0,1.95,0,.82,0,1.67,0,2.57,0a3.5,3.5,0,0,1,3.45,2.92l3.63,21.39,4.11-12.56c.15-.44.28-.89.42-1.34s.32-1.07.49-1.6c1.55-4.68,3-9.1,8.83-9.1a35.84,35.84,0,0,1,6.27.86,3.51,3.51,0,0,1,2.76,2.8l2.26,12.08c1.4-3.25,2.72-6.41,3.95-9.58.58-1.49,2.34-6,7.74-6a11.19,11.19,0,0,1,1.6.12,14,14,0,0,0,2,.12c.62,0,1.26,0,1.93,0s1.62-.06,2.49-.06a3.5,3.5,0,0,1,3.5,3.36l1.86,43.63A3.5,3.5,0,0,1,836.4,63h-8.9a3.51,3.51,0,0,1-3.5-3.34l-.55-11.83-2.93,6.75-.33.7a6,6,0,0,0-.34.8c-1.43,6.34-5.84,7.29-8.34,7.29a14.2,14.2,0,0,1-4.08-.67A3.49,3.49,0,0,1,805,60.08L802.69,49,798.9,60.72a3.51,3.51,0,0,1-3.34,2.43H780.41A3.5,3.5,0,0,1,777,60.3L775,50.15l-1.93,0c-1.2,0-2.17,0-3,.11a1.64,1.64,0,0,0-.33.3,28.64,28.64,0,0,0-1.7,3.59c-.27.65-.55,1.3-.84,1.94-1.79,3.94-4.2,7.58-9.67,7.58a20.35,20.35,0,0,1-4.24-.54A4.91,4.91,0,0,1,751,61.92a28.13,28.13,0,0,1-9.82,1.85Z" fill="#f8f7fa"/><path d="M749.91,14.79a29.39,29.39,0,0,1,10.76,2c-.34,2.6-.7,5.32-1,7.8-3.11,0-6.13-.2-9.08-.2a39,39,0,0,0-5.43.33,17.14,17.14,0,0,0-13.81,10.39,12,12,0,0,0,1.32,12.71,8.16,8.16,0,0,0,7.09,3.43,34.8,34.8,0,0,0,5.75-.7c.16-1.2.33-2.42.55-4.07h-6.66l1-8H757.1c-.66,4.16-1.29,8.11-1.92,12l.73.38c.58-1.1,1.23-2.16,1.73-3.29,4.14-9.35,8.38-18.65,12.3-28.09,1-2.47,2.25-3.71,4.6-3.71a7.82,7.82,0,0,1,1.05.07,18.67,18.67,0,0,0,2.5.14c1.39,0,2.86-.09,4.52-.09,1.92,11.31,3.82,22.52,5.73,33.74l.78.08,8-24.48c.32-1,.59-2,.91-2.93,1.66-5,2.42-6.7,5.5-6.7a32.08,32.08,0,0,1,5.59.8c1.39,7.4,2.79,14.89,4.38,23.37,3.12-7.35,6-13.73,8.54-20.24.94-2.43,2.1-3.78,4.47-3.78a7.29,7.29,0,0,1,1.1.09,18.36,18.36,0,0,0,2.48.15c1.38,0,2.83-.09,4.43-.09.63,14.6,1.24,29,1.87,43.63h-8.9q-.6-12.77-1.19-25.53l-.56-.19q-4.23,9.71-8.44,19.4a11.49,11.49,0,0,0-.87,2.13c-.72,3.18-2.39,4.56-4.92,4.56a11,11,0,0,1-3.09-.52c-1.56-7.49-3.15-15.15-4.75-22.81l-.66-.05q-3.72,11.55-7.46,23.14H780.41c-.81-4.22-1.62-8.44-2.48-13-1.63,0-3.24,0-4.82,0-1.22,0-2.43,0-3.64.15a4.28,4.28,0,0,0-2.73,1.94,56.39,56.39,0,0,0-2.73,5.9c-1.8,4-3.39,5.52-6.49,5.52a17,17,0,0,1-3.49-.45c-.72-.16-1.26-1.16-2.06-1.94a25.9,25.9,0,0,1-10.76,2.52,21.7,21.7,0,0,1-7.89-1.5c-13-5.06-16.36-21.78-6.85-33.44,5.46-6.69,14.44-10.54,23.44-10.54M771.22,38h5.41c-.48-2.64-.9-5-1.33-7.3l-.83-.25c-1.06,2.48-2.13,5-3.25,7.55M749.91,7.79c-11.37,0-22.17,4.9-28.87,13.12A30.13,30.13,0,0,0,715,47.45a26,26,0,0,0,15.82,17.84,28.66,28.66,0,0,0,10.43,2,31.33,31.33,0,0,0,9.31-1.47,8.56,8.56,0,0,0,2,.73,23.18,23.18,0,0,0,5,.61c8.48,0,11.55-6.74,12.86-9.62.3-.67.59-1.35.88-2s.53-1.28.8-1.85h.07l1.4,7.32a7,7,0,0,0,6.88,5.69h15.15a7,7,0,0,0,6.5-4.39,7,7,0,0,0,4.36,3.81,17.67,17.67,0,0,0,5.1.82A11.21,11.21,0,0,0,821,62.13a7,7,0,0,0,6.5,4.39h8.9a7,7,0,0,0,7-7.3l-.75-17.54-1.11-26.09a7,7,0,0,0-7-6.7c-.94,0-1.82,0-2.6,0-.63,0-1.24,0-1.83,0a11.6,11.6,0,0,1-1.48-.08,14,14,0,0,0-2.1-.16c-3.31,0-7.68,1.24-10.41,6.88l-.1-.52a7,7,0,0,0-5.53-5.58,37.2,37.2,0,0,0-6.94-.93c-8.35,0-10.55,6.65-12.15,11.5-.19.56-.36,1.13-.53,1.7l-.09.32-1.26-7.4a7,7,0,0,0-6.9-5.83c-1,0-1.87,0-2.66,0s-1.26,0-1.86,0a13.53,13.53,0,0,1-1.6-.08,14.62,14.62,0,0,0-2-.13,10.93,10.93,0,0,0-8.39,3.65,7,7,0,0,0-2.93-2.16,36.2,36.2,0,0,0-13.31-2.46Zm-1.47,23.63c.65,0,1.35-.05,2.13-.05s1.8,0,2.74.05Z" fill="#fff"/><path d="M823.14,102.67A8.88,8.88,0,0,1,815.62,98l-3.41-5.68L811,90.25c-2.2,6.54-7.79,10.78-15.35,11.36-8.72.68-17.56.71-26.12.74l-4.78,0c-2.83,0-5.09-2.57-6-4.09-2.89-4.91-5.66-9.82-8.6-15l-2.92,5.26H750a3.5,3.5,0,0,1,3.5,3.5v6.64a3.5,3.5,0,0,1-3.5,3.5H728.82a3.5,3.5,0,0,1-3.16-5c.13-.27.25-.54.37-.81a20.39,20.39,0,0,1,1-2.1l.56-.94c4.72-8,9.61-16.33,14.47-24.48a9.58,9.58,0,0,1,8.36-4.56A9.86,9.86,0,0,1,759,68.87q3.57,5.8,7.16,11.61l.08-12.1a3.51,3.51,0,0,1,3.45-3.47c2.24,0,4.55-.14,6.78-.25,2.84-.13,5.77-.26,8.7-.26a56.13,56.13,0,0,1,14.7,1.68,3.51,3.51,0,0,1,1.36-1,6.26,6.26,0,0,1,1.37-.45,20.76,20.76,0,0,1,3.72-.36c5.93,0,10.2,3.07,12.7,9.13a53.81,53.81,0,0,0,4.27,7.78l4.88-8.84c2.76-5,4.43-8,9.7-8a46.8,46.8,0,0,1,6.22.67,3.5,3.5,0,0,1,2.58,5.12L846,71.34c-.47.89-.92,1.74-1.39,2.57l-1,1.8q-6.39,11.06-12.79,22.1c-1.79,3.09-4.57,4.86-7.63,4.86ZM782.32,88.3l1.16-.07a90,90,0,0,0,10.19-1c.78-.13,2.6-.44,2.27-4.87-.25-3.35-2.19-3.49-2.83-3.54-1.6-.12-3.33-.18-5.47-.18-1.42,0-2.85,0-4.29,0l-1,0Z" fill="#f6f5f9"/><path d="M750.46,67.78A6.43,6.43,0,0,1,756,70.7q5.91,9.61,11.85,19.21l1.74,3.19V89.85h0V87.57q.07-9.58.13-19.16c5.13-.08,10.27-.51,15.43-.51a48.6,48.6,0,0,1,17.09,2.61c.07-.62.16-1.37.25-2.13h0a5.15,5.15,0,0,1,.71-.27,18.22,18.22,0,0,1,3.1-.3c4.3,0,7.44,2,9.47,7,1.86,4.53,4.86,8.6,7.67,13.4,2.78-5.06,5.28-9.59,7.78-14.11,2.64-4.8,3.43-6.24,6.63-6.24a45.53,45.53,0,0,1,5.72.63c-.71,1.32-1.32,2.53-2,3.7q-6.88,12-13.81,23.89c-1.21,2.08-2.91,3.12-4.61,3.12a5.42,5.42,0,0,1-4.52-3c-2.58-4.27-5.12-8.55-7.71-12.81a5.73,5.73,0,0,0-2.77-2.57,30.76,30.76,0,0,1,.24,5c-.76,6.87-5.32,11.75-13,12.34-10.18.79-20.43.69-30.65.75h0c-1,0-2.32-1.33-2.93-2.36-3.87-6.58-7.59-13.25-11.64-20.4L741.27,92H750v6.65H728.82c.44-.92.79-1.82,1.27-2.64q7.49-12.72,15-25.4a6.08,6.08,0,0,1,5.35-2.86M778.83,92c5.36-.41,10.47-.44,15.44-1.3,3.93-.68,5.51-3.93,5.16-8.58-.28-3.77-2.35-6.49-6.06-6.77-1.9-.14-3.8-.19-5.72-.19-2.91,0-5.84.1-8.82.1V92M750.46,60.78h0a13,13,0,0,0-11.37,6.27c-4.91,8.23-9.84,16.62-14.62,24.73l-.41.71a22.34,22.34,0,0,0-1.23,2.44c-.1.24-.21.48-.33.73a7,7,0,0,0,6.32,10H750a7,7,0,0,0,6.53-4.49c1.32,1.76,4.11,4.68,8.21,4.68h0l4.79,0c8.61,0,17.52-.06,26.36-.75,6.52-.5,11.82-3.29,15.26-7.74l1.48,2.45a12.29,12.29,0,0,0,10.51,6.36,12.46,12.46,0,0,0,10.66-6.6c4.4-7.56,8.83-15.25,13.13-22.7l.7-1.21c.52-.91,1-1.81,1.45-2.68l.64-1.2a7,7,0,0,0-5.16-10.24,48.9,48.9,0,0,0-6.72-.71c-7.33,0-10,4.79-12.77,9.86l-1.9,3.45c-.35-.68-.66-1.35-.94-2-3.85-9.34-10.8-11.3-15.94-11.3a24.12,24.12,0,0,0-4.35.42,8.66,8.66,0,0,0-2,.64l.06,0a7.9,7.9,0,0,0-.93.44,61.36,61.36,0,0,0-13.9-1.38c-3,0-6,.13-8.85.27-2.32.1-4.5.2-6.68.24a7,7,0,0,0-6.89,6.87L762,67a13.33,13.33,0,0,0-11.49-6.26Zm35.37,21.43,1.82,0c1.84,0,3.37,0,4.76.14a2.66,2.66,0,0,1,0,.34,7.51,7.51,0,0,1,0,1.27c-2.11.33-4.32.5-6.62.65V82.21Z" fill="#fff"/><path d="M873.45,102.51c-2.67,0-4.73-.05-6.68-.17-2.8-.17-4.72-2.79-5.62-4.33-2.8-4.82-5.49-9.63-8.34-14.71l-2.87,5.21h2.65a3.5,3.5,0,0,1,3.5,3.5v6.64a3.5,3.5,0,0,1-3.5,3.5H831.72a3.5,3.5,0,0,1-3.29-4.69c.06-.15.1-.32.15-.49a10.58,10.58,0,0,1,.94-2.31c5.88-10,10.77-18.31,15.41-26.1a9.55,9.55,0,0,1,8.32-4.25,9.31,9.31,0,0,1,8.17,4.12c2.48,4.08,4.94,8.17,7.5,12.43V68.47a3.5,3.5,0,0,1,2.72-3.41,17.42,17.42,0,0,1,4-.5,12.26,12.26,0,0,1,8.19,3.09c3.9,3.3,8,6.5,12.07,9.59l2.46,1.89V68.28a3.49,3.49,0,0,1,3.5-3.5h7.92a3.49,3.49,0,0,1,3.5,3.5V98.55a3.5,3.5,0,0,1-2.68,3.4,15.31,15.31,0,0,1-3.57.45,12.29,12.29,0,0,1-8.22-3.2c-4.45-3.81-9-7.43-13.9-11.26l-.45-.36V99a3.5,3.5,0,0,1-3.5,3.5l-3.82,0Z" fill="#f6f5f9"/><path d="M853.25,67.81a6,6,0,0,1,5.18,2.44c4.5,7.39,8.93,14.82,14,23.23v-25a14.06,14.06,0,0,1,3.22-.41,8.75,8.75,0,0,1,5.93,2.26c5.36,4.54,11,8.74,16.56,13.06,1,.74,2,1.38,3.73,2.58V68.28h7.92V98.55a12.19,12.19,0,0,1-2.75.35,8.84,8.84,0,0,1-5.95-2.36C894.71,91.08,888,86,881,80.34V99c-2.58,0-5.07,0-7.52,0-2.18,0-4.32,0-6.45-.17-1-.06-2.19-1.51-2.82-2.6-3.77-6.5-7.41-13.08-11.38-20.14L844,92h8.58v6.64H831.72a13.06,13.06,0,0,1,.82-2.22q7.66-13.05,15.39-26.08a6.12,6.12,0,0,1,5.32-2.54m0-7a13,13,0,0,0-11.33,6c-4.67,7.85-9.57,16.15-15.42,26.12A14,14,0,0,0,825.23,96a3,3,0,0,1-.1.32,7,7,0,0,0,6.59,9.37h20.87a7,7,0,0,0,6.5-4.4c1.49,2,3.95,4.36,7.47,4.58,2,.13,4.14.18,6.88.18l3.72,0,3.8,0a7,7,0,0,0,7-7V94.82c2.94,2.34,5.79,4.66,8.57,7a15.86,15.86,0,0,0,10.5,4,18.58,18.58,0,0,0,4.39-.55,7,7,0,0,0,5.36-6.8V68.28a7,7,0,0,0-7-7h-7.92a7,7,0,0,0-7,7V72c-3-2.29-6-4.64-8.77-7a15.82,15.82,0,0,0-10.45-3.92,21,21,0,0,0-4.79.59,7,7,0,0,0-5.42,6.63l-1-1.67a12.78,12.78,0,0,0-11.16-5.8Z" fill="#fff"/><path d="M894,63.28c-2.24,0-4.48-.05-6.75-.05l-5.42,0H876a3.48,3.48,0,0,1-3.46-4l6.88-43.62a3.5,3.5,0,0,1,3.46-2.95c1.86,0,3.7,0,5.51-.07s3.62-.07,5.4-.07c2.64,0,4.82.08,6.85.23a14.28,14.28,0,0,1,11.57,7.6,14.68,14.68,0,0,1-.2,14.22,29,29,0,0,1-1.73,2.62c3.84,5.22,4.37,10.49,1.57,15.68a18.8,18.8,0,0,1-17.39,10.43Zm-3.47-15.36a26.17,26.17,0,0,0,5.32-.56,3.2,3.2,0,0,0,.59-.55,3.54,3.54,0,0,0-1.21-.84,8.78,8.78,0,0,0-2.22-.23c-.71,0-1.44,0-2.19.08Zm3.08-19.31c-.1.41-.2.94-.31,1.48a10.32,10.32,0,0,0,2.79-.4,2.9,2.9,0,0,0,.42-.54,2.25,2.25,0,0,0-.59-.27C895.08,28.76,894.24,28.65,893.61,28.61Z" fill="#f8f8fa"/><path d="M893.79,16c2.21,0,4.4.06,6.58.22,8.07.61,12.58,9.6,8.59,16.59-.88,1.55-2,2.94-3.11,4.49,3.69,4,5.78,8.56,2.91,13.88a15.27,15.27,0,0,1-14.31,8.6h-.39c-2.27,0-4.53-.06-6.83-.06-3.64,0-7.35,0-11.25,0,2.33-14.75,4.59-29.07,6.89-43.61,3.73,0,7.35-.14,10.92-.14m-4.55,17.75c3.11-.25,5.91.05,8.24-.86,1.43-.55,2.87-2.92,2.93-4.53,0-1-2.44-2.75-3.95-2.95a27.81,27.81,0,0,0-3.37-.34c-2.42,0-2.63,1.16-3.4,5.29-.16.85-.23,1.73-.45,3.39M886.5,51.59c3.9-.26,7.28-.06,10.4-.89,1.49-.39,3.62-3,3.38-4.13-.33-1.6-2.43-3.51-4.13-4a12,12,0,0,0-3.14-.35c-1.64,0-3.39.18-5.25.18-.44,3.17-.82,5.95-1.26,9.17M893.79,9c-1.83,0-3.68,0-5.47.07s-3.63.07-5.45.07A7,7,0,0,0,876,15.06l-6.89,43.61A7,7,0,0,0,876,66.76h5.85l5.4,0c2.6,0,4.73,0,6.71,0h.51c9.07,0,16.14-4.24,20.47-12.27a16.78,16.78,0,0,0-.43-17.31c.19-.3.37-.6.55-.92a18.13,18.13,0,0,0,.25-17.59A17.79,17.79,0,0,0,900.9,9.25c-2.13-.16-4.39-.24-7.11-.24Z" fill="#fff"/><path d="M928.73,64.17c-8.8,0-16.2-5.81-19.31-15.15a29.08,29.08,0,0,1,10.41-32.63,21.09,21.09,0,0,1,12.25-4.09c7.46,0,14,4.27,17.47,11.44a41,41,0,0,1,2.65,7.85c.18.7.33,1.31.48,1.8a3.48,3.48,0,0,1,.16,1.2c-.49,10.12-3.1,17.07-8.45,22.54a22.09,22.09,0,0,1-15.65,7ZM924.14,41.5a11.34,11.34,0,0,0,.2,1.94c.8,3.45,1.86,4.39,3.42,4.86a3.77,3.77,0,0,0,1.1.18c.73,0,1.91-.24,3.7-2.28,4-4.53,5-9.61,3.13-15.11-.7-2.05-2-3.22-3.53-3.22a5.41,5.41,0,0,0-3.52,1.68c-2.81,2.65-4.25,6.21-4.54,11.17C924.11,41,924.13,41.22,924.14,41.5Z" fill="#f7f7fa"/><path d="M932.08,15.79c5.85,0,11.32,3.3,14.32,9.48,1.64,3.36,2.33,7.19,2.94,9.15-.42,8.84-2.46,15.17-7.45,20.26-4,4.06-8.67,6-13.16,6-6.85,0-13.24-4.51-16-12.76a25.74,25.74,0,0,1,9.11-28.67,17.66,17.66,0,0,1,10.22-3.45M928.86,52c2.59,0,4.64-1.54,6.34-3.48,4.72-5.39,6.15-11.7,3.8-18.55-1.26-3.65-3.9-5.58-6.84-5.58A8.71,8.71,0,0,0,926.24,27c-3.83,3.61-5.37,8.26-5.65,13.75a22.47,22.47,0,0,0,.34,3.48c.78,3.34,2.14,6.3,5.82,7.41a7.06,7.06,0,0,0,2.11.33m3.22-43.19a24.54,24.54,0,0,0-14.28,4.76,32.58,32.58,0,0,0-11.7,36.57c3.54,10.66,12.43,17.55,22.63,17.55a25.54,25.54,0,0,0,18.16-8.09c6-6.12,8.91-13.78,9.44-24.82a6.78,6.78,0,0,0-.31-2.41c-.11-.37-.27-1-.43-1.63a44.32,44.32,0,0,0-2.89-8.51c-4.09-8.4-11.79-13.42-20.62-13.42Zm-4.47,31.93c.25-4,1.32-6.63,3.43-8.62a3.24,3.24,0,0,1,1-.67,3.09,3.09,0,0,1,.39.8c1.49,4.34.71,8.05-2.45,11.66A5.37,5.37,0,0,1,928.78,45h0l-.21-.08a5.42,5.42,0,0,1-.81-2.23,10.06,10.06,0,0,1-.11-1.31c0-.21,0-.42,0-.61Z" fill="#fff"/><path d="M837.23,63.05a3.5,3.5,0,0,1-3.45-4l6.89-43.5a3.5,3.5,0,0,1,3.46-2.95h24.79a3.49,3.49,0,0,1,2.65,1.2,3.53,3.53,0,0,1,.82,2.79l-1.3,9.14a3.5,3.5,0,0,1-3.46,3H854.89l-.13.85h9.6a3.49,3.49,0,0,1,3.46,4l-1.31,9.33a3.49,3.49,0,0,1-3.46,3H852.37L852.19,47h11.56A3.5,3.5,0,0,1,867.2,51l-1.5,9.08a3.5,3.5,0,0,1-3.45,2.93Z" fill="#f8f7fa"/><path d="M868.92,16.05l-1.29,9.14H851.88c-.41,2.73-.77,5.09-1.19,7.85h13.67c-.46,3.26-.86,6.1-1.31,9.32H849.38c-.44,2.79-.83,5.24-1.28,8.11h15.65c-.54,3.24-1,6.07-1.5,9.08h-25c2.3-14.47,4.57-28.8,6.9-43.5h24.79m-5.17,34.42h0m5.17-41.42H844.13a7,7,0,0,0-6.91,5.9l-3,18.79-3.92,24.71a7,7,0,0,0,6.91,8.1h25a7,7,0,0,0,6.91-5.86l1.3-7.9.16-.95a7.67,7.67,0,0,0,.13-1.37,7,7,0,0,0-1.68-4.55,7,7,0,0,0,.91-2.58l.18-1.3,1.13-8a6.93,6.93,0,0,0-.17-2.76,7,7,0,0,0,3.44-5.08l.54-3.79.75-5.35a7,7,0,0,0-6.93-8Zm0,14h0Z" fill="#fff"/><path d="M951,102.15a3.5,3.5,0,0,1-3.5-3.5V68.26a3.5,3.5,0,0,1,3.5-3.5h32.38a3.5,3.5,0,0,1,3.5,3.5V75a3.5,3.5,0,0,1-3.5,3.5h-6.61a3.86,3.86,0,0,1,.1.84v6.76a3.46,3.46,0,0,1-.6,2h7.45a3.5,3.5,0,0,1,3.5,3.5v7.14a3.5,3.5,0,0,1-3.5,3.5Z" fill="#f3f1f9"/><path d="M983.36,68.26V75H959.73V79.3h13.62v6.76H959.69v5.45h24v7.14H951V68.26h32.38m0-7H951a7,7,0,0,0-7,7V98.65a7,7,0,0,0,7,7H983.7a7,7,0,0,0,7-7V91.51a7,7,0,0,0-7-7h-3.35V82h3a7,7,0,0,0,7-7v-6.7a7,7,0,0,0-7-7Z" fill="#fff"/><path d="M930.45,102.12c-4.21,0-8.37,0-12.36-.13a8.34,8.34,0,0,1-8.52-8.61c-.14-6.55-.15-13.18,0-19.68.1-5.19,3.61-8.76,8.74-8.87,4.13-.1,8.58-.18,13-.18,4,0,7.58.06,11,.21a8.71,8.71,0,0,1,6.63,3c2.09,2.49,2.68,6.14,1.92,11.81a3.5,3.5,0,0,1-3.47,3H939a3.49,3.49,0,0,1-3.47-3.06l-.09-.69H925.41v8.76h10l.08-1a3.5,3.5,0,0,1,3.49-3.2h8.67a3.5,3.5,0,0,1,3.5,3.5q0,.89,0,1.77a33.72,33.72,0,0,1-.09,4.58c-.55,5.24-3.89,8.56-8.72,8.64C938.29,102.09,934.28,102.12,930.45,102.12Z" fill="#f7f6fa"/><path d="M931.31,68.15c3.61,0,7.21,0,10.81.21,4.77.2,6.2,3.57,5.23,10.8H939c-.16-1.31-.3-2.43-.47-3.75H921.91V91.17H938.6c.12-1.37.23-2.62.36-4.15h8.67a59.58,59.58,0,0,1,0,6c-.33,3.13-2,5.46-5.31,5.51q-5.91.1-11.84.11-6.13,0-12.28-.13a4.9,4.9,0,0,1-5.1-5.18c-.13-6.51-.14-13,0-19.55.06-3.3,2.08-5.36,5.31-5.43,4.32-.1,8.64-.18,13-.18m0-7h0c-4.47,0-8.95.08-13.11.18-7,.16-12,5.22-12.16,12.3-.12,6.56-.11,13.23,0,19.82a11.81,11.81,0,0,0,11.94,12c4,.09,8.2.13,12.43.13,3.86,0,7.88,0,12-.11,6.64-.11,11.4-4.74,12.14-11.78a37.77,37.77,0,0,0,.11-5q0-.84,0-1.68a7,7,0,0,0-1.36-4.13,6.88,6.88,0,0,0,1-2.79c.57-4.18.9-10.23-2.69-14.53a12.17,12.17,0,0,0-9.17-4.21c-3.43-.14-7.06-.21-11.11-.21Zm-2.4,21.26h3.92a6.5,6.5,0,0,0,.37.63,6.54,6.54,0,0,0-.63,1.13h-3.66V82.41Z" fill="#fff"/><path d="M951.52,63a3.5,3.5,0,0,1-3.46-4c.26-1.66.53-3.32.81-5,.66-4,1.29-7.8,1.68-11.63a12.17,12.17,0,0,0-.75-5.58c-1.88-4.56-4-9.14-6.09-13.57q-1.26-2.68-2.5-5.37A3.5,3.5,0,0,1,943,13.17l.36-.17a4.14,4.14,0,0,1,1.5-.44c2.2-.21,3.95-.37,5.41-.37,6.46,0,7.88,3.59,10.45,10.11l.07.17a47.79,47.79,0,0,0,2.48-4.28c2-3.94,5-5.94,9.07-5.94a14.56,14.56,0,0,1,1.82.13,10.49,10.49,0,0,0,1.38.07l1.47,0c.69,0,1.44,0,2.29,0a3.5,3.5,0,0,1,3,5.36c-1.1,1.75-2.13,3.49-3.12,5.17a88.44,88.44,0,0,1-6.94,10.57c-5.5,6.86-6.82,14.89-7.88,23.91-.06.56-.16,1.11-.27,1.75l-.15.91A3.49,3.49,0,0,1,960.45,63Z" fill="#f7f7fa"/><path d="M950.26,15.69c4.08,0,4.68,1.53,7.2,7.89.7,1.78,1.39,3.57,2.12,5.34.08.18.4.26.85.54,2-3.23,4.28-6.32,6-9.71,1.39-2.78,3.26-4,5.94-4a11.19,11.19,0,0,1,1.37.1,13.56,13.56,0,0,0,1.83.1c1.07,0,2.27-.07,3.76-.07-3.53,5.62-6.2,10.9-9.82,15.41-6.1,7.61-7.55,16.53-8.62,25.69-.09.76-.24,1.5-.4,2.51h-8.93c.88-5.7,2-11.22,2.51-16.78a15.73,15.73,0,0,0-1-7.26c-2.66-6.45-5.73-12.73-8.64-19.07a5.72,5.72,0,0,1,.76-.34c2.16-.2,3.81-.35,5.1-.35m29,.19h0m-29-7.19h0c-1.62,0-3.44.17-5.75.38a7.72,7.72,0,0,0-2.68.78l-.26.12A7,7,0,0,0,938,19.3c.83,1.8,1.67,3.59,2.51,5.39,2.05,4.39,4.18,8.94,6,13.43a8.66,8.66,0,0,1,.51,3.88c-.38,3.73-1,7.47-1.66,11.42-.27,1.66-.55,3.32-.81,5a7,7,0,0,0,6.92,8.07h8.93a7,7,0,0,0,6.91-5.88c0-.32.1-.61.14-.88.11-.64.22-1.25.3-1.93,1-8.48,2.21-16,7.13-22.13a91.48,91.48,0,0,0,7.22-11c1-1.62,1.94-3.29,3-4.95A7,7,0,0,0,979.3,8.88h0c-.88,0-1.66,0-2.38,0l-1.38,0a7.41,7.41,0,0,1-.93,0,18,18,0,0,0-2.27-.16,12.8,12.8,0,0,0-11.16,6.05c-2.09-3.61-5.06-6.11-10.91-6.11Z" fill="#fff"/><path d="M769.58,91.07a3.5,3.5,0,0,1-3.49-3.31l-.24-4.06c-.15-2.4-.29-4.8-.4-7.19-.06-1.27-.11-2.54-.14-3.81a12.43,12.43,0,0,1,.69-4c.11-.37.22-.74.3-1.11a3.5,3.5,0,0,1,3.41-2.71,2.82,2.82,0,0,1,.41,0,3.5,3.5,0,0,1,3.09,3.5l-.13,19.16a3.5,3.5,0,0,1-3.41,3.48Z" fill="#1a0ac9"/><path d="M769.71,68.41h0m0,0q-.06,9.57-.13,19.16c-.21-3.74-.46-7.48-.63-11.23-.06-1.24-.11-2.49-.14-3.74a17.56,17.56,0,0,1,.9-4.19m0-7a7.69,7.69,0,0,0-1.27.11A7,7,0,0,0,763.62,65a7,7,0,0,0-.75,2c0,.21-.14.5-.23.8a15.71,15.71,0,0,0-.83,5.06c0,1.22.08,2.49.14,3.88.12,2.42.26,4.86.4,7.21q.14,2,.24,4.08a7,7,0,0,0,7,6.61h.17a7,7,0,0,0,6.83-6.95l.07-9.58.06-9.4a1.69,1.69,0,0,0,0-.23,7,7,0,0,0-6.75-7Zm0,14h0Z" fill="#fff"/><path d="M769.58,96.6a3.52,3.52,0,0,1-3.07-1.82l-1.74-3.19a3.5,3.5,0,0,1,3-5.18l1.85-.06a3.5,3.5,0,0,1,3.5,3.5V93.1a3.49,3.49,0,0,1-2.63,3.39A3.24,3.24,0,0,1,769.58,96.6Z" fill="#1a0ac9"/><path d="M769.58,89.85V93.1l-1.74-3.19,1.74-.06m0-7h-.22l-1.69,0h0a7,7,0,0,0-5.92,10.35l.48.89,1.26,2.31a7,7,0,0,0,6.14,3.64,6.78,6.78,0,0,0,1.73-.22,7,7,0,0,0,5.27-6.78V89.85a7,7,0,0,0-7-7Z" fill="#fff"/><path d="M771.22,41.48A3.49,3.49,0,0,1,768,36.6l3.25-7.55a3.5,3.5,0,0,1,3.21-2.12,3.46,3.46,0,0,1,1,.15l.83.24a3.52,3.52,0,0,1,2.45,2.73l1.33,7.3a3.51,3.51,0,0,1-3.45,4.13Z" fill="#3b29cc"/><path d="M774.47,30.43l.83.25c.43,2.33.85,4.66,1.33,7.3h-5.41c1.12-2.59,2.19-5.07,3.25-7.55m0-7A7,7,0,0,0,768,27.67L767,30.19l-2.17,5A7,7,0,0,0,771.22,45h5.41a7,7,0,0,0,6.89-8.25l-1.33-7.31a7,7,0,0,0-4.9-5.45l-.41-.13-.42-.12a7.2,7.2,0,0,0-2-.29Z" fill="#fff"/><path d="M778.82,95.53a3.51,3.51,0,0,1-3.5-3.5V75.29a3.5,3.5,0,0,1,3.5-3.5c1.49,0,3,0,4.41-.05s2.95,0,4.41,0c2.31,0,4.22.07,6,.2,5.22.39,8.87,4.31,9.29,10,.5,6.74-2.51,11.33-8.06,12.29a95.81,95.81,0,0,1-11,1c-1.57.09-3.16.18-4.78.3Z" fill="#2104cb"/><path d="M787.65,75.19c1.92,0,3.82,0,5.72.19,3.71.28,5.78,3,6.06,6.77.35,4.65-1.23,7.9-5.16,8.58-5,.86-10.08.89-15.44,1.3V75.29c3,0,5.91-.1,8.82-.1m0-7c-1.51,0-3,0-4.47,0s-2.91.05-4.35.05a7,7,0,0,0-7,7V92a7,7,0,0,0,7,7l.54,0c1.57-.12,3.16-.21,4.7-.3a98,98,0,0,0,11.39-1.08c5.8-1,11.73-5.73,11-16-.55-7.39-5.58-12.7-12.52-13.22-1.86-.14-3.85-.21-6.24-.21Z" fill="#fff"/><path d="M886.5,55.09a3.5,3.5,0,0,1-3.47-4l1.26-9.17a3.5,3.5,0,0,1,3.47-3c.87,0,1.76,0,2.62-.09s1.75-.09,2.63-.09a14.93,14.93,0,0,1,4.06.48c2.69.73,6,3.48,6.64,6.65.7,3.42-3.13,7.48-5.91,8.22a34.83,34.83,0,0,1-7.79.85c-1.06,0-2.15.07-3.28.14Z" fill="#290fcb"/><path d="M893,42.24a12,12,0,0,1,3.14.35c1.7.47,3.8,2.38,4.13,4,.24,1.16-1.89,3.74-3.38,4.13-3.12.83-6.5.63-10.4.89.44-3.22.82-6,1.26-9.17,1.86,0,3.61-.18,5.25-.18m0-7c-1,0-1.91,0-2.81.1s-1.66.08-2.44.08a7,7,0,0,0-6.94,6l-.9,6.56-.36,2.61a7,7,0,0,0,6.94,8,3.77,3.77,0,0,0,.47,0c1-.07,2.12-.1,3.15-.13a37.87,37.87,0,0,0,8.57-1c4.14-1.09,9.62-6.56,8.45-12.3-1-4.71-5.44-8.32-9.15-9.33a18.47,18.47,0,0,0-5-.6Z" fill="#fff"/><path d="M889.24,37.26a3.49,3.49,0,0,1-3.47-3.94c.08-.58.13-1.06.18-1.47.1-.82.17-1.46.3-2.12.78-4.2,1.52-8.15,6.84-8.15a29.69,29.69,0,0,1,3.84.37c2.44.33,7.12,2.95,7,6.56-.11,2.78-2.21,6.51-5.16,7.66a19.55,19.55,0,0,1-6.64,1c-.84,0-1.72,0-2.58.11Z" fill="#2b13cb"/><path d="M893.09,25.08a27.81,27.81,0,0,1,3.37.34c1.51.2,4,2,3.95,2.95-.06,1.61-1.5,4-2.93,4.53-2.33.91-5.13.61-8.24.86.22-1.66.29-2.54.45-3.39.77-4.13,1-5.29,3.4-5.29m0-7a9.16,9.16,0,0,0-8.42,4.67,19.65,19.65,0,0,0-1.86,6.33c-.15.78-.23,1.5-.33,2.34-.05.41-.1.88-.18,1.45a7,7,0,0,0,6.94,7.89,5.43,5.43,0,0,0,.57,0c.77-.06,1.56-.08,2.4-.11a22.39,22.39,0,0,0,7.8-1.2c4.43-1.72,7.24-6.83,7.39-10.78.24-6.11-6.51-9.69-10-10.17a33.51,33.51,0,0,0-4.31-.4Z" fill="#fff"/><path d="M928.86,55.48a10.61,10.61,0,0,1-3.12-.48c-5.68-1.71-7.41-6.51-8.22-10a17.57,17.57,0,0,1-.37-3.19c0-.28,0-.54,0-.77a4,4,0,0,1,0-.49c.35-6.9,2.55-12.17,6.73-16.12a12.32,12.32,0,0,1,8.33-3.59c4.57,0,8.46,3,10.15,8,2.72,7.92,1.18,15.53-4.48,22-2.75,3.14-5.68,4.67-9,4.67Z" fill="#2205cb"/><path d="M932.16,24.37c2.94,0,5.58,1.93,6.84,5.58,2.35,6.85.92,13.16-3.8,18.55-1.7,1.94-3.75,3.48-6.34,3.48a7.06,7.06,0,0,1-2.11-.33c-3.68-1.11-5-4.07-5.82-7.41a22.47,22.47,0,0,1-.34-3.48c.28-5.49,1.82-10.14,5.65-13.75a8.71,8.71,0,0,1,5.92-2.64m0-7a15.74,15.74,0,0,0-10.73,4.55c-4.87,4.6-7.43,10.64-7.83,18.49a6.44,6.44,0,0,0,0,1c0,.18,0,.39,0,.62a21.55,21.55,0,0,0,.46,3.82c.58,2.48,2.35,10,10.62,12.52a14.09,14.09,0,0,0,4.13.63c4.29,0,8.2-2,11.6-5.87,6.44-7.35,8.27-16.38,5.16-25.43-2.19-6.36-7.34-10.31-13.46-10.31Z" fill="#fff"/><path d="M992.31,10c-6,9.66-11.52,19.65-18.11,28.87-5.11,7.15-4.66,15.06-6,23.31h23v44.72h-4.32c-26.62,0-53.25-.08-79.87.09a13.39,13.39,0,0,1-9.71-3.4c-2.52-2.25-5.32-4.2-8.56-6.72v10h-4.31c-20.86,0-41.73-.14-62.59.12-4.4,0-7.27-1-9-5.11A17.6,17.6,0,0,0,811,99.14c-7.21,7-16.11,7.81-25.36,7.77-23.93-.09-47.87,0-71.81,0H709l24.67-39c-.47-.42-.7-.78-1-.89-19.68-7.31-26-29.82-12.33-46,10.6-12.55,24.42-16.63,40.42-12.54,2.51.64,4.84,1.58,7.25-.06,5.36.25,10.73.4,16.08.79a32.69,32.69,0,0,1,5.51,1.32c.51,2.22,1,4.43,1.68,7.37,1.25-3.37,2.27-6.1,3.28-8.83q51.54,0,103.09.05a9.43,9.43,0,0,0,2.46-.68c6-.64,10,2.86,13.9,7,5.16-3.62,10.15-7.48,16.86-7a23.35,23.35,0,0,0,4,.68c17.53.05,35.07,0,52.6.07A31.26,31.26,0,0,1,992.31,10ZM769.58,89.85l-1.74.06Q761.92,80.31,756,70.7c-2.37-3.84-8.58-3.92-10.88-.06q-7.56,12.66-15,25.4c-.48.82-.83,1.72-1.27,2.64H750V92h-8.68l8.85-15.92c4,7.15,7.77,13.82,11.64,20.4.61,1,1.94,2.36,2.94,2.36,10.22-.06,20.47,0,30.65-.75,7.71-.59,12.27-5.47,13-12.34a30.76,30.76,0,0,0-.24-5,5.73,5.73,0,0,1,2.77,2.57c2.59,4.26,5.13,8.54,7.71,12.81,2.44,4,6.74,4,9.13-.14q6.93-11.92,13.81-23.89c.68-1.17,1.29-2.38,2-3.7-8.58-1.24-8.58-1.24-12.35,5.61-2.5,4.52-5,9.05-7.78,14.11-2.81-4.8-5.81-8.87-7.67-13.4-2.49-6-6.63-7.74-12.57-6.67a5.15,5.15,0,0,0-.71.27c-.09.76-.18,1.51-.25,2.13-10.85-4-21.74-2.27-32.52-2.1a17.56,17.56,0,0,0-.9,4.19c.13,5,.49,10,.77,15Zm43.93-50.09c-1.59-8.48-3-16-4.38-23.37-8.19-1.6-8.71-1.32-11.09,5.9-.32,1-.59,2-.91,2.93l-8,24.48-.78-.08c-1.91-11.22-3.81-22.43-5.73-33.74a57.7,57.7,0,0,1-7-.05c-3.05-.39-4.48.82-5.65,3.64-3.92,9.44-8.16,18.74-12.3,28.09-.5,1.13-1.15,2.19-1.73,3.29l-.73-.38c.63-3.94,1.26-7.89,1.92-12H740.43l-1,8H746c-.22,1.65-.39,2.87-.55,4.07-4.82.82-9.47,1.79-12.84-2.73a12,12,0,0,1-1.32-12.71A17.14,17.14,0,0,1,745.14,24.7c4.65-.66,9.47-.13,14.51-.13.32-2.48.68-5.2,1-7.8-11.86-4.65-26.52-.86-34.2,8.56C717,37,720.35,53.71,733.32,58.77c6.45,2.51,12.8,1.66,18.65-1,.8.78,1.34,1.78,2.06,1.94,5.59,1.22,7.61.14,10-5.07a56.39,56.39,0,0,1,2.73-5.9,4.28,4.28,0,0,1,2.73-1.94c2.77-.27,5.58-.1,8.46-.1.86,4.53,1.67,8.75,2.48,13h15.15Q799.31,48,803,36.51l.66.05c1.6,7.66,3.19,15.32,4.75,22.81,4.29,1.28,7,.29,8-4a11.49,11.49,0,0,1,.87-2.13q4.22-9.71,8.44-19.4l.56.19q.59,12.76,1.19,25.53h8.9c-.63-14.65-1.24-29-1.87-43.63a52.27,52.27,0,0,1-6.91-.06c-3.13-.46-4.49.9-5.57,3.69C819.51,26,816.63,32.41,813.51,39.76Zm88.35,28.52V86c-1.75-1.2-2.78-1.84-3.73-2.58-5.55-4.32-11.2-8.52-16.56-13.06-2.76-2.33-5.53-2.69-9.15-1.85v25c-5.06-8.41-9.49-15.84-14-23.23-2-3.31-8.51-3.24-10.5.1q-7.74,13-15.39,26.08a13.06,13.06,0,0,0-.82,2.22h20.87V92H844l8.78-15.91c4,7.06,7.61,13.64,11.38,20.14.63,1.09,1.82,2.54,2.82,2.6,4.54.28,9.1.13,14,.13V80.34C888,86,894.71,91.08,901.08,96.54a9,9,0,0,0,8.7,2V68.28Zm4-31c1.09-1.55,2.23-2.94,3.11-4.49,4-7-.52-16-8.59-16.59-5.7-.43-11.46-.08-17.5-.08C880.57,30.69,878.31,45,876,59.76c6.36,0,12.22-.08,18.08,0a15.31,15.31,0,0,0,14.7-8.6C911.63,45.87,909.54,41.33,905.85,37.31Zm43.49-2.89c-.61-2-1.3-5.79-2.94-9.15-4.76-9.79-15.69-12.34-24.54-6a25.74,25.74,0,0,0-9.11,28.67c4.53,13.65,19,17,29.14,6.77C946.88,49.59,948.92,43.26,949.34,34.42ZM844.13,16.05c-2.33,14.7-4.6,29-6.9,43.5h25c.5-3,1-5.84,1.5-9.08H848.1c.45-2.87.84-5.32,1.28-8.11h13.67c.45-3.22.85-6.06,1.31-9.32H850.69l1.19-7.85h15.75l1.29-9.14ZM983.36,68.26H951V98.65H983.7V91.51h-24V86.06h13.66V79.3H959.73V75h23.63ZM939,79.16h8.32c1-7.23-.46-10.6-5.23-10.8-7.91-.34-15.84-.21-23.77,0-3.23.07-5.25,2.13-5.31,5.43-.12,6.51-.11,13,0,19.55a4.9,4.9,0,0,0,5.1,5.18c8,.18,16.08.17,24.12,0,3.36-.05,5-2.38,5.31-5.51a59.58,59.58,0,0,0,0-6H939c-.13,1.53-.24,2.78-.36,4.15H921.91V75.41h16.65C938.73,76.73,938.87,77.85,939,79.16Zm21.4-49.7c-.45-.28-.77-.36-.85-.54-.73-1.77-1.42-3.56-2.12-5.34-3.31-8.38-3.31-8.38-12.3-7.54a5.72,5.72,0,0,0-.76.34c2.91,6.34,6,12.62,8.64,19.07a15.73,15.73,0,0,1,1,7.26c-.56,5.56-1.62,11.08-2.51,16.78h8.93c.16-1,.31-1.75.4-2.51,1.07-9.16,2.52-18.08,8.62-25.69,3.62-4.51,6.29-9.79,9.82-15.41a50.39,50.39,0,0,1-5.59,0c-3.43-.45-5.7.67-7.31,3.9C964.71,23.14,962.44,26.23,960.43,29.46Z" fill="#2307cb"/><path d="M900.09,8.49a9.43,9.43,0,0,1-2.46.68q-51.55,0-103.09-.05a10.84,10.84,0,0,1,2.75-.75q50.84-.06,101.67,0A8.72,8.72,0,0,1,900.09,8.49Z" fill="#1000c7"/><path d="M992.31,10a31.26,31.26,0,0,0-4.85-.74c-17.53-.06-35.07,0-52.6-.07a23.35,23.35,0,0,1-4-.68q30.14-.08,60.28-.13C992.07,8.36,994,7.93,992.31,10Z" fill="#1101c8"/><path d="M789.58,10.58a32.69,32.69,0,0,0-5.51-1.32c-5.35-.39-10.72-.54-16.08-.79,6.39,0,12.78-.05,19.17-.16C788.87,8.28,789.93,8.59,789.58,10.58Z" fill="#1000c7"/><path d="M813.51,39.76c3.12-7.35,6-13.73,8.54-20.24,1.08-2.79,2.44-4.15,5.57-3.69a52.27,52.27,0,0,0,6.91.06c.63,14.6,1.24,29,1.87,43.63h-8.9q-.6-12.77-1.19-25.53l-.56-.19q-4.23,9.71-8.44,19.4a11.49,11.49,0,0,0-.87,2.13c-1,4.33-3.72,5.32-8,4-1.56-7.49-3.15-15.15-4.75-22.81l-.66-.05q-3.72,11.55-7.46,23.14H780.41c-.81-4.22-1.62-8.44-2.48-13-2.88,0-5.69-.17-8.46.1a4.28,4.28,0,0,0-2.73,1.94,56.39,56.39,0,0,0-2.73,5.9c-2.37,5.21-4.39,6.29-10,5.07-.72-.16-1.26-1.16-2.06-1.94-5.85,2.68-12.2,3.53-18.65,1-13-5.06-16.36-21.78-6.85-33.44,7.68-9.42,22.34-13.21,34.2-8.56-.34,2.6-.7,5.32-1,7.8-5,0-9.86-.53-14.51.13a17.14,17.14,0,0,0-13.81,10.39,12,12,0,0,0,1.32,12.71c3.37,4.52,8,3.55,12.84,2.73.16-1.2.33-2.42.55-4.07h-6.66l1-8H757.1c-.66,4.16-1.29,8.11-1.92,12l.73.38c.58-1.1,1.23-2.16,1.73-3.29,4.14-9.35,8.38-18.65,12.3-28.09,1.17-2.82,2.6-4,5.65-3.64a57.7,57.7,0,0,0,7,.05c1.92,11.31,3.82,22.52,5.73,33.74l.78.08,8-24.48c.32-1,.59-2,.91-2.93,2.38-7.22,2.9-7.5,11.09-5.9C810.52,23.79,811.92,31.28,813.51,39.76ZM775.3,30.68l-.83-.25c-1.06,2.48-2.13,5-3.25,7.55h5.41C776.15,35.34,775.73,33,775.3,30.68Z" fill="#f8f7fa"/><path d="M769.71,68.41c10.78-.17,21.67-1.88,32.52,2.1.07-.62.16-1.37.25-2.13a5.15,5.15,0,0,1,.71-.27c5.94-1.07,10.08.64,12.57,6.67,1.86,4.53,4.86,8.6,7.67,13.4,2.78-5.06,5.28-9.59,7.78-14.11,3.77-6.85,3.77-6.85,12.35-5.61-.71,1.32-1.32,2.53-2,3.7q-6.88,12-13.81,23.89c-2.39,4.11-6.69,4.17-9.13.14-2.58-4.27-5.12-8.55-7.71-12.81a5.73,5.73,0,0,0-2.77-2.57,30.76,30.76,0,0,1,.24,5c-.76,6.87-5.32,11.75-13,12.34-10.18.79-20.43.69-30.65.75-1,0-2.33-1.32-2.94-2.36-3.87-6.58-7.59-13.25-11.64-20.4L741.27,92H750v6.65H728.82c.44-.92.79-1.82,1.27-2.64q7.49-12.72,15-25.4c2.3-3.86,8.51-3.78,10.88.06q5.91,9.61,11.85,19.21l1.74,3.19V87.57Q769.66,78,769.71,68.41ZM778.83,92c5.36-.41,10.47-.44,15.44-1.3,3.93-.68,5.51-3.93,5.16-8.58-.28-3.77-2.35-6.49-6.06-6.77-4.77-.36-9.59-.09-14.54-.09Z" fill="#f6f5f9"/><path d="M901.86,68.28h7.92V98.55a9,9,0,0,1-8.7-2C894.71,91.08,888,86,881,80.34V99c-4.87,0-9.43.15-14-.13-1-.06-2.19-1.51-2.82-2.6-3.77-6.5-7.41-13.08-11.38-20.14L844,92h8.58v6.64H831.72a13.06,13.06,0,0,1,.82-2.22q7.66-13.05,15.39-26.08c2-3.34,8.49-3.41,10.5-.1,4.5,7.39,8.93,14.82,14,23.23v-25c3.62-.84,6.39-.48,9.15,1.85,5.36,4.54,11,8.74,16.56,13.06,1,.74,2,1.38,3.73,2.58Z" fill="#f6f5f9"/><path d="M905.85,37.31c3.69,4,5.78,8.56,2.91,13.88a15.31,15.31,0,0,1-14.7,8.6c-5.86-.11-11.72,0-18.08,0,2.33-14.75,4.59-29.07,6.89-43.61,6,0,11.8-.35,17.5.08,8.07.61,12.58,9.6,8.59,16.59C908.08,34.37,906.94,35.76,905.85,37.31Zm-18.09,5.11c-.44,3.17-.82,5.95-1.26,9.17,3.9-.26,7.28-.06,10.4-.89,1.49-.39,3.62-3,3.38-4.13-.33-1.6-2.43-3.51-4.13-4C893.67,41.92,890.88,42.42,887.76,42.42Zm1.48-8.66c3.11-.25,5.91.05,8.24-.86,1.43-.55,2.87-2.92,2.93-4.53,0-1-2.44-2.75-3.95-2.95-5.71-.78-5.74-.59-6.77,4.95C889.53,31.22,889.46,32.1,889.24,33.76Z" fill="#f8f8fa"/><path d="M949.34,34.42c-.42,8.84-2.46,15.17-7.45,20.26C931.8,65,917.28,61.56,912.75,47.91a25.74,25.74,0,0,1,9.11-28.67c8.85-6.31,19.78-3.76,24.54,6C948,28.63,948.73,32.46,949.34,34.42Zm-28.75,6.34a22.47,22.47,0,0,0,.34,3.48c.78,3.34,2.14,6.3,5.82,7.41s6.32-.71,8.45-3.15c4.72-5.39,6.15-11.7,3.8-18.55-2.09-6.08-8-7.4-12.76-2.94C922.41,30.62,920.87,35.27,920.59,40.76Z" fill="#f7f7fa"/><path d="M844.13,16.05h24.79l-1.29,9.14H851.88L850.69,33h13.67c-.46,3.26-.86,6.1-1.31,9.32H849.38c-.44,2.79-.83,5.24-1.28,8.11h15.65c-.54,3.24-1,6.07-1.5,9.08h-25C839.53,45.08,841.8,30.75,844.13,16.05Z" fill="#f8f7fa"/><path d="M983.36,68.26V75H959.73V79.3h13.62v6.76H959.69v5.45h24v7.14H951V68.26Z" fill="#f3f1f9"/><path d="M939,79.16c-.16-1.31-.3-2.43-.47-3.75H921.91V91.17H938.6c.12-1.37.23-2.62.36-4.15h8.67a59.58,59.58,0,0,1,0,6c-.33,3.13-2,5.46-5.31,5.51-8,.15-16.08.16-24.12,0a4.9,4.9,0,0,1-5.1-5.18c-.13-6.51-.14-13,0-19.55.06-3.3,2.08-5.36,5.31-5.43,7.93-.18,15.86-.31,23.77,0,4.77.2,6.2,3.57,5.23,10.8Z" fill="#f7f6fa"/><path d="M960.43,29.46c2-3.23,4.28-6.32,6-9.71,1.61-3.23,3.88-4.35,7.31-3.9a50.39,50.39,0,0,0,5.59,0c-3.53,5.62-6.2,10.9-9.82,15.41-6.1,7.61-7.55,16.53-8.62,25.69-.09.76-.24,1.5-.4,2.51h-8.93c.89-5.7,2-11.22,2.51-16.78a15.73,15.73,0,0,0-1-7.26c-2.66-6.45-5.73-12.73-8.64-19.07a5.72,5.72,0,0,1,.76-.34c9-.84,9-.84,12.3,7.54.7,1.78,1.39,3.57,2.12,5.34C959.66,29.1,960,29.18,960.43,29.46Z" fill="#f7f7fa"/><path d="M769.71,68.41q-.06,9.57-.13,19.16c-.28-5-.64-10-.77-15A17.56,17.56,0,0,1,769.71,68.41Z" fill="#1a0ac9"/><path d="M769.58,89.85V93.1l-1.74-3.19Z" fill="#1a0ac9"/><path d="M775.3,30.68c.43,2.33.85,4.66,1.33,7.3h-5.41c1.12-2.59,2.19-5.07,3.25-7.55Z" fill="#3b29cc"/><path d="M778.83,92V75.29c4.95,0,9.77-.27,14.54.09,3.71.28,5.78,3,6.06,6.77.35,4.65-1.23,7.9-5.16,8.58C789.3,91.59,784.19,91.62,778.83,92Z" fill="#2104cb"/><path d="M887.76,42.42c3.12,0,5.91-.5,8.39.17,1.7.47,3.8,2.38,4.13,4,.24,1.16-1.89,3.74-3.38,4.13-3.12.83-6.5.63-10.4.89C886.94,48.37,887.32,45.59,887.76,42.42Z" fill="#290fcb"/><path d="M889.24,33.76c.22-1.66.29-2.54.45-3.39,1-5.54,1.06-5.73,6.77-4.95,1.51.2,4,2,3.95,2.95-.06,1.61-1.5,4-2.93,4.53C895.15,33.81,892.35,33.51,889.24,33.76Z" fill="#2b13cb"/><path d="M920.59,40.76c.28-5.49,1.82-10.14,5.65-13.75C931,22.55,936.91,23.87,939,30c2.35,6.85.92,13.16-3.8,18.55-2.13,2.44-4.83,4.24-8.45,3.15s-5-4.07-5.82-7.41A22.47,22.47,0,0,1,920.59,40.76Z" fill="#2205cb"/></svg>