<svg id="Layer_1" data-name="Layer 1" xmlns="http://www.w3.org/2000/svg" viewBox="0 0 1000 114"><path d="M470.11,110.5c-3.39,0-4.64,0-6.06-.7a7.9,7.9,0,0,1-4.12-4.71c-.22-.75-.35-1.18-.29-13.73.07-11.48.08-12.42.61-14.74a35.3,35.3,0,0,1,33.59-28.2c3.44-.19,5.07-.53,7-1.43a14.29,14.29,0,0,0,8.12-10.14,22.1,22.1,0,0,0,.3-4.92v-.35c-3.66,0-6.3,0-8.07-2.94a6.23,6.23,0,0,1-.45-6c.22-.46.53-1.13,7.74-9.49,7.37-8.56,7.74-8.74,8.48-9.1a6.56,6.56,0,0,1,2.72-.56,6.66,6.66,0,0,1,3.45.9c1.74,1,15.46,17.59,15.54,17.72a6.52,6.52,0,0,1-.34,6.79c-2,2.67-4.38,2.67-8,2.67h0l0,1.78c-.08,4.46-.15,5.85-.58,7.86a35.51,35.51,0,0,1-24.82,26.83,38.15,38.15,0,0,1-9.23,1.42c-3.58.2-4.86.55-6.69,1.43a14.42,14.42,0,0,0-8,10.43c-.19,1.11-.24,3.6-.24,11.57,0,11-.13,11.43-.36,12.18a7.89,7.89,0,0,1-4,4.65C474.72,110.5,473.56,110.5,470.11,110.5Z" fill="#333"/><path d="M519.64,7a3.15,3.15,0,0,1,1.57.35c.65.39,13.78,15.49,14.42,16.57a3.06,3.06,0,0,1-.19,3c-.79,1.05-1.39,1.19-5.16,1.19h-3.46l-.1,5.21c-.07,4.42-.15,5.55-.5,7.19a31.92,31.92,0,0,1-9.36,16.74,31.33,31.33,0,0,1-13,7.47A35.17,35.17,0,0,1,495.39,66c-3.79.21-5.59.6-8,1.77a17.92,17.92,0,0,0-9.92,13c-.24,1.38-.3,3.69-.3,12.17,0,7.26-.06,10.66-.21,11.19a4.4,4.4,0,0,1-2.19,2.5c-.76.37-1.19.41-4.65.41-3.24,0-3.91-.06-4.57-.37a4.47,4.47,0,0,1-2.25-2.5c-.15-.53-.19-4.28-.15-12.76.07-11.56.09-12.09.52-14A31.79,31.79,0,0,1,494,51.91c3.87-.21,5.94-.64,8.28-1.76a17.8,17.8,0,0,0,10.05-12.6,25.42,25.42,0,0,0,.37-5.62V28.08h-3.44c-3.85,0-4.48-.16-5.14-1.25a2.76,2.76,0,0,1-.27-2.7c.43-.9,14-16.62,14.57-16.92a3.07,3.07,0,0,1,1.2-.21m0-7a9.71,9.71,0,0,0-4.19.89l-.06,0c-1.46.71-1.76.86-9.61,10-7.5,8.71-7.81,9.35-8.23,10.23l0,.07a9.69,9.69,0,0,0,.65,9.3A9.16,9.16,0,0,0,505.65,35a6.75,6.75,0,0,1-.15,1.14v.06a10.83,10.83,0,0,1-6.14,7.66c-1.33.63-2.45.93-5.72,1.11a38.8,38.8,0,0,0-36.8,31c-.61,2.66-.61,3.62-.69,15.44-.06,13,.05,13.48.44,14.78a11.39,11.39,0,0,0,6.06,6.9c2.17,1,4.06,1,7.47,1,3.72,0,5.42,0,7.72-1.12a11.39,11.39,0,0,0,5.81-6.73l0-.07c.37-1.24.5-1.7.5-13.18,0-6.39,0-10,.2-11a11,11,0,0,1,6.05-7.82c1.35-.66,2.16-.92,5.38-1.1a41.31,41.31,0,0,0,10-1.57A39,39,0,0,0,533.05,42a33,33,0,0,0,.64-7,9.48,9.48,0,0,0,7.37-3.92l.09-.12a10,10,0,0,0,.52-10.55l0-.06c-.3-.51-.8-1.34-7.93-9.54-7.35-8.45-7.82-8.78-8.82-9.39A10,10,0,0,0,519.64,0Z" fill="#fff"/><path d="M464.42,46.93a8.73,8.73,0,0,1-1.8-.24c-1.79-.4-2.77-1.28-4.63-3.09-2.56-2.44-4.25-4.27-4.25-7.16a7.63,7.63,0,0,1,.68-3.15c.19-.38.55-1.09,4.2-4.78l.81-.82-.83-.84c-3.7-3.7-4.11-4.66-4.29-5.07a7.36,7.36,0,0,1,.18-6c.8-1.56,5.55-6.44,7.67-7a6.72,6.72,0,0,1,2-.34,7,7,0,0,1,1.94.32c1.57.44,2.77,1.53,5.78,4.55l1,1,1-1c3.12-3.07,4.26-4.1,5.77-4.53a7.81,7.81,0,0,1,2.13-.33c2.69,0,4.54,1.81,6.33,3.56,2.77,2.66,5.16,5.41,3.67,9.47l0,.1c-.19.48-.49,1.22-4.44,5.18l-1,1,1,1c4,4,4.23,4.67,4.44,5.2l.05.11a7.36,7.36,0,0,1-.05,4.88c-.63,1.73-5.73,6.65-7,7.3a6.72,6.72,0,0,1-3.06.68,7.27,7.27,0,0,1-3.16-.67l-.1-.05c-.32-.17-1.08-.57-4.76-4.17l-.82-.82-1,1c-3.55,3.55-4.49,4.21-5.7,4.49l-.62.15A4,4,0,0,1,464.42,46.93Z" fill="#333"/><path d="M481.78,11.88c1.06,0,1.92.65,3.88,2.56,2.87,2.76,3.48,4,2.83,5.77a37,37,0,0,1-3.67,4l-3.46,3.48,3.46,3.46a38.33,38.33,0,0,1,3.67,4,3.72,3.72,0,0,1,0,2.42,33.84,33.84,0,0,1-5.33,5.47,3.3,3.3,0,0,1-1.44.28,3.8,3.8,0,0,1-1.63-.32,40.59,40.59,0,0,1-3.94-3.57l-3.27-3.25-3.47,3.44c-2.42,2.43-3.64,3.48-4.05,3.58s-.68.15-.8.19l-.12,0a5.57,5.57,0,0,1-1-.15c-.8-.18-1.21-.47-3-2.19-2.56-2.44-3.18-3.36-3.18-4.65a4.11,4.11,0,0,1,.31-1.58A42.6,42.6,0,0,1,461.1,31l3.25-3.28-3.26-3.3a29,29,0,0,1-3.56-4,3.8,3.8,0,0,1,.08-3c.55-1.07,4.69-5,5.51-5.27a3.41,3.41,0,0,1,1-.21,3.6,3.6,0,0,1,1,.19c.62.17,1.46.88,4.24,3.65l3.47,3.44,3.48-3.44c2.76-2.71,3.64-3.48,4.26-3.65a4.69,4.69,0,0,1,1.18-.2m0-7h0a11.37,11.37,0,0,0-3,.45c-2.12.6-3.65,1.85-5.88,4-2.28-2.22-3.76-3.41-5.83-4a9.5,9.5,0,0,0-6,.06h0c-3.47,1.09-8.71,6.83-9.71,8.8a10.75,10.75,0,0,0-.32,8.85l.05.11c.29.68.7,1.65,3.43,4.53-2.57,2.7-2.93,3.4-3.24,4a11.16,11.16,0,0,0-1.05,4.71c0,4.61,3,7.44,5.35,9.71,1.82,1.77,3.43,3.32,6.28,4a12.53,12.53,0,0,0,2.55.32,7.78,7.78,0,0,0,2-.27l.12,0L467,50c1.85-.46,3.21-1.43,5.86-4,2.66,2.52,3.38,2.9,3.93,3.19l.19.09a10.89,10.89,0,0,0,4.7,1,10.23,10.23,0,0,0,4.63-1.05l.06,0c.64-.33,1.6-.84,4.65-4,2.77-2.84,3.52-4,4-5.23a10.86,10.86,0,0,0,.05-7.27l-.09-.22c-.36-.91-.66-1.65-3.77-4.89,3.11-3.21,3.43-4,3.77-4.87,0-.07.05-.13.08-.19,2.39-6.53-2.27-11-4.54-13.21-2.07-2-4.65-4.53-8.75-4.53Z" fill="#fff"/><path d="M523.59,109.3a20.2,20.2,0,0,1-7-1.21,21.83,21.83,0,0,1-7.73-4.61,22.36,22.36,0,0,1-.72-32.28,23,23,0,0,1,12.88-6.41l.15,0a17.09,17.09,0,0,1,1.94-.07l1.59,0A21.62,21.62,0,0,1,540,71.4,21.21,21.21,0,0,1,546.24,86a22.25,22.25,0,0,1-21.15,23.24Zm.25-25.74a6.46,6.46,0,0,0-1.73.68,3.23,3.23,0,0,0-1.45,3A3.29,3.29,0,0,0,522.52,90a3.46,3.46,0,0,0,1.52.36,3.41,3.41,0,0,0,3.05-2.07c.18-.37.18-.37.2-1.26a2.1,2.1,0,0,0-.23-1.32,3.6,3.6,0,0,0-2.53-2C524.25,83.62,524,83.58,523.84,83.56Z" fill="#333"/><path d="M523.15,68.2l1.48,0a18.09,18.09,0,0,1,12.82,5.61,17.62,17.62,0,0,1,5.29,12.37,18.72,18.72,0,0,1-17.81,19.57l-1.34,0a16.46,16.46,0,0,1-5.85-1,18.6,18.6,0,0,1-6.49-3.86,18.88,18.88,0,0,1-.6-27.24,19.56,19.56,0,0,1,11-5.43c.21,0,.8,0,1.55,0M524,93.85a6.9,6.9,0,0,0,6.2-4,5.07,5.07,0,0,0,.55-2.74,5.22,5.22,0,0,0-.57-2.87,7,7,0,0,0-5-3.94,8.75,8.75,0,0,0-1.4-.2h-.07a8.74,8.74,0,0,0-3.59,1.25A6.83,6.83,0,0,0,521,93.13a6.93,6.93,0,0,0,3.06.72m-.89-32.65a18.08,18.08,0,0,0-2.36.09l-.3,0a26.5,26.5,0,0,0-14.78,7.38,25.83,25.83,0,0,0,9.78,42.69,23.55,23.55,0,0,0,8.1,1.4c.53,0,1.08,0,1.67,0a25.74,25.74,0,0,0,24.48-26.87,25.65,25.65,0,0,0-24.89-24.66l-1.7,0Z" fill="#fff"/><path d="M518.44,7.21c-.61.3-14.14,16-14.57,16.92a2.76,2.76,0,0,0,.27,2.7c.66,1.09,1.29,1.25,5.14,1.25h3.44v3.85a25.42,25.42,0,0,1-.37,5.62,17.8,17.8,0,0,1-10.05,12.6c-2.34,1.12-4.41,1.55-8.28,1.76A31.79,31.79,0,0,0,463.66,77.4c-.43,1.88-.45,2.41-.52,14,0,8.48,0,12.23.15,12.76a4.47,4.47,0,0,0,2.25,2.5c.66.31,1.33.37,4.57.37,3.46,0,3.89,0,4.65-.41a4.4,4.4,0,0,0,2.19-2.5c.15-.53.21-3.93.21-11.19,0-8.48.06-10.79.3-12.17a17.92,17.92,0,0,1,9.92-13c2.42-1.17,4.22-1.56,8-1.77a35.17,35.17,0,0,0,8.46-1.29,31.33,31.33,0,0,0,13-7.47,31.92,31.92,0,0,0,9.36-16.74c.35-1.64.43-2.77.5-7.19l.1-5.21h3.46c3.77,0,4.37-.14,5.16-1.19a3.06,3.06,0,0,0,.19-3C535,22.84,521.86,7.74,521.21,7.35A3.59,3.59,0,0,0,518.44,7.21Z" fill="#333"/><path d="M463.12,12.1c-.82.23-5,4.2-5.51,5.27a3.8,3.8,0,0,0-.08,3,29,29,0,0,0,3.56,4l3.26,3.3L461.1,31a42.6,42.6,0,0,0-3.55,3.89,4.11,4.11,0,0,0-.31,1.58c0,1.29.62,2.21,3.18,4.65,1.78,1.72,2.19,2,3,2.19a3.89,3.89,0,0,0,1.13.13c.12,0,.49-.11.8-.19s1.63-1.15,4.05-3.58l3.47-3.44,3.27,3.25A40.59,40.59,0,0,0,480.07,43a4.08,4.08,0,0,0,3.07,0,33.84,33.84,0,0,0,5.33-5.47,3.72,3.72,0,0,0,0-2.42,38.33,38.33,0,0,0-3.67-4l-3.46-3.46,3.46-3.48a37,37,0,0,0,3.67-4c.65-1.76,0-3-2.83-5.77-2.62-2.56-3.28-2.85-5.06-2.36-.62.17-1.5.94-4.26,3.65l-3.48,3.44-3.47-3.44c-2.78-2.77-3.62-3.48-4.24-3.65A2.74,2.74,0,0,0,463.12,12.1Z" fill="#333"/><path d="M521.6,68.24a19.56,19.56,0,0,0-11,5.43,18.88,18.88,0,0,0,.6,27.24,18.6,18.6,0,0,0,6.49,3.86,17,17,0,0,0,7.19,1A18.72,18.72,0,0,0,542.74,86.2a17.62,17.62,0,0,0-5.29-12.37,18.09,18.09,0,0,0-12.82-5.61C523.28,68.18,521.94,68.2,521.6,68.24Zm3.66,12a7,7,0,0,1,5,3.94,5.22,5.22,0,0,1,.57,2.87,5.07,5.07,0,0,1-.55,2.74,6.84,6.84,0,1,1-10-8.5,8.74,8.74,0,0,1,3.59-1.25A7.57,7.57,0,0,1,525.26,80.26Z" fill="#333"/></svg>