<svg xmlns="http://www.w3.org/2000/svg" viewBox="0 0 1000 114"><title>logo_right</title><g id="Layer_2" data-name="Layer 2"><rect x="778.78" y="52.81" width="34.27" height="39.82" fill="#fff"/><rect x="825.67" y="58.64" width="17.84" height="33.99" fill="#fff"/><rect x="837.23" y="78.21" width="146.44" height="17.94" fill="#fff"/><rect x="881.01" y="58.58" width="21.72" height="14.14" fill="#fff"/></g><g id="Layer_1" data-name="Layer 1"><path d="M751.48,62.14a3.5,3.5,0,0,1-3.5-3.5V51.46a3.5,3.5,0,0,1,3.5-3.5H774a6,6,0,1,0,0-12.06h-5.89a11.42,11.42,0,0,1,0-22.84h22.51a3.48,3.48,0,0,1,3.5,3.53l0,7a3.5,3.5,0,0,1-3.5,3.47h-3A20.15,20.15,0,0,1,774,62.14Z" fill="#fff"/><path d="M790.62,16.56l0,7H768.11a.89.89,0,0,0-.85.91.88.88,0,0,0,.85.85H774a16.66,16.66,0,1,1,0,33.31H751.48V51.46H774a9.53,9.53,0,1,0,0-19.06h-5.89a7.92,7.92,0,0,1,0-15.84h22.51m0-7H768.11a14.92,14.92,0,0,0,0,29.84H774A2.59,2.59,0,0,1,776.55,42,2.53,2.53,0,0,1,774,44.46H751.48a7,7,0,0,0-7,7v7.18a7,7,0,0,0,7,7H774a23.66,23.66,0,0,0,20.17-36.06,7,7,0,0,0,3.4-5.95l0-7a7,7,0,0,0-7-7.06Zm0,14h0Z" fill="#fff"/><path d="M751.48,53.32a3.5,3.5,0,0,1-3.5-3.5V42.75a3.5,3.5,0,0,1,3.5-3.5h3a20.16,20.16,0,0,1,13.6-35h22.46a3.5,3.5,0,0,1,3.5,3.47l0,7.12a3.48,3.48,0,0,1-3.5,3.53H768.11a6.06,6.06,0,0,0,0,12.12H774a11.42,11.42,0,0,1,0,22.84Z" fill="#fff"/><path d="M790.57,7.74l0,7.12H768.11a9.48,9.48,0,0,0-9.5,9.5,9.59,9.59,0,0,0,9.5,9.62H774a7.92,7.92,0,0,1,0,15.84H751.48V42.75h22.46a.85.85,0,1,0,0-1.7h-5.83a16.66,16.66,0,0,1,0-33.31h22.46m0-7H768.11a23.65,23.65,0,0,0-20.17,36,7,7,0,0,0-3.46,6v7.07a7,7,0,0,0,7,7H774A14.92,14.92,0,0,0,774,27h-5.89a2.6,2.6,0,0,1-2.5-2.62,2.48,2.48,0,0,1,2.5-2.5h22.51a7,7,0,0,0,7-7l0-7.13a7,7,0,0,0-7-6.94Z" fill="#fff"/><path d="M808.1,62.08a17.66,17.66,0,0,1-17.64-17.64V21.93A17.67,17.67,0,0,1,808.1,4.29h24a3.5,3.5,0,0,1,3.5,3.5v7.07a3.5,3.5,0,0,1-3.5,3.5h-24a3.57,3.57,0,0,0-3.57,3.46V44.44A3.53,3.53,0,0,0,808.1,48H832a3.5,3.5,0,0,1,3.5,3.5v7.07a3.5,3.5,0,0,1-3.5,3.5Z" fill="#fff"/><path d="M832.14,7.79v7.07h-24a7.05,7.05,0,0,0-7.07,7V44.44a7,7,0,0,0,7.07,7.07H832v7.07H808.1A14.15,14.15,0,0,1,794,44.44V21.93A14.15,14.15,0,0,1,808.1,7.79h24m0-7h-24A21.17,21.17,0,0,0,787,21.93V44.44A21.17,21.17,0,0,0,808.1,65.58H832a7,7,0,0,0,7-7V51.51a7,7,0,0,0-7-7H808a.22.22,0,0,1,0-.06V21.89a.15.15,0,0,1,.07,0h24a7,7,0,0,0,7-7V7.79a7,7,0,0,0-7-7Z" fill="#fff"/><path d="M802.84,35.78a3.5,3.5,0,0,1-3.5-3.48L799.29,22A8.92,8.92,0,0,1,808.16,13h24a3.5,3.5,0,0,1,3.5,3.5v7.07a3.5,3.5,0,0,1-3.5,3.5h-1.54v5.21a3.49,3.49,0,0,1-3.5,3.5Z" fill="#fff"/><path d="M832.2,16.5v7.07H811.5a1.61,1.61,0,0,0-1.64,1.64h17.3v7.07H802.84l-.05-10.35a5.42,5.42,0,0,1,5.37-5.43h24m0-7h-24a12.42,12.42,0,0,0-12.37,12.43l.05,10.39a7,7,0,0,0,7,7h24.32a7,7,0,0,0,7-7v-2a7,7,0,0,0,5-6.72V16.5a7,7,0,0,0-7-7Z" fill="#fff"/><path d="M808.1,53.32a8.88,8.88,0,0,1-8.87-8.88V34a3.5,3.5,0,0,1,3.5-3.5h24.32a3.5,3.5,0,0,1,3.5,3.5v5.21H832a3.5,3.5,0,0,1,3.5,3.5v7a3.5,3.5,0,0,1-3.49,3.5Z" fill="#fff"/><path d="M827.05,34v7.07H809.74a1.61,1.61,0,0,0,1.64,1.64H832v7l-23.87.06a5.41,5.41,0,0,1-5.37-5.38V34h24.32m0-7H802.73a7,7,0,0,0-7,7v10.4A12.39,12.39,0,0,0,808.1,56.82L832,56.76a7,7,0,0,0,7-7v-7a7,7,0,0,0-4.92-6.69V34a7,7,0,0,0-7-7Z" fill="#fff"/><path d="M879.76,62.08a3.5,3.5,0,0,1-3.31-4.63l14.4-42.23a5.8,5.8,0,0,1,5.43-3.86,5.67,5.67,0,0,1,5.48,4L913,48.81a3.5,3.5,0,0,1-3.31,4.62H893.53l-2.14,6.28a3.49,3.49,0,0,1-3.31,2.37Z" fill="#fff"/><path d="M896.28,14.86a2.18,2.18,0,0,1,2.15,1.59l11.26,33.48H893.17V43.6l-5.09,15h-8.32l14.37-42.13a2.31,2.31,0,0,1,2.15-1.59m-2.59,27.21h5l-2.49-7.47-2.53,7.47m2.59-34.21a9.27,9.27,0,0,0-8.7,6.13,1.18,1.18,0,0,0-.07.2L873.14,56.32a7,7,0,0,0,6.62,9.26h8.32a7,7,0,0,0,6.63-4.75l1.32-3.9h13.66a7,7,0,0,0,6.63-9.23L905.09,14.3a9.15,9.15,0,0,0-8.81-6.44Z" fill="#fff"/><path d="M849,53.37a8.93,8.93,0,0,1-8.93-8.93L840,22.05a8.93,8.93,0,0,1,8.93-8.93h23.3a3.5,3.5,0,0,1,3.5,3.5v7.07a3.5,3.5,0,0,1-3.5,3.5h-18.1v3.35h9.39A3.5,3.5,0,0,1,867,34V49.87a3.5,3.5,0,0,1-3.5,3.5Z" fill="#fff"/><path d="M872.24,16.62v7.07h-20a1.61,1.61,0,0,0-1.64,1.64V41.16a1.67,1.67,0,0,0,1.64,1.64h4.18V41.16h-4.18V34h11.25V49.87H849a5.47,5.47,0,0,1-5.43-5.43h0l-.06-22.39a5.47,5.47,0,0,1,5.43-5.43h23.3m0-7h-23.3a12.44,12.44,0,0,0-12.43,12.43l.06,22.41A12.43,12.43,0,0,0,849,56.87h14.53a7,7,0,0,0,7-7V34a7,7,0,0,0-.85-3.35h2.56a7,7,0,0,0,7-7V16.62a7,7,0,0,0-7-7Z" fill="#fff"/><path d="M893.23,62.08a3.49,3.49,0,0,1-3.5-3.5V51.51a3.5,3.5,0,0,1,3.5-3.5h14L896.7,17a.36.36,0,0,0-.36-.23.45.45,0,0,0-.43.26L881.44,59.71a3.5,3.5,0,0,1-3.32,2.37H849a17.69,17.69,0,0,1-17.7-17.64V21.93A17.66,17.66,0,0,1,848.94,4.29H872.3a3.5,3.5,0,0,1,3.5,3.5v7.07a3.5,3.5,0,0,1-3.5,3.5H849a3.57,3.57,0,0,0-3.57,3.57V44.44A3.6,3.6,0,0,0,849.05,48h12.68V35.84h-9.45a3.5,3.5,0,0,1-3.5-3.5V25.27a3.5,3.5,0,0,1,3.5-3.5h20a3.5,3.5,0,0,1,3.5,3.5v7.07l6.46-19a14.88,14.88,0,0,1,28,0l14.86,44.07a3.49,3.49,0,0,1-3.31,4.61Z" fill="#fff"/><path d="M896.28,7A11,11,0,0,1,907,14.47l14.88,44.11H893.23V51.51h18.83L900,15.65a3.89,3.89,0,0,0-3.62-2.43,4,4,0,0,0-3.68,2.43L878.12,58.58H849a14.19,14.19,0,0,1-14.2-14.14V21.93A14.15,14.15,0,0,1,848.94,7.79H872.3v7.07H849a7.07,7.07,0,0,0-7.07,7.07V44.44a7.11,7.11,0,0,0,7.12,7.07h16.18V32.34h-13V25.27h20V53.44l13.29-39A11,11,0,0,1,896.28,7m0-7a18.16,18.16,0,0,0-17,11.26V7.79a7,7,0,0,0-7-7H848.94A21.17,21.17,0,0,0,827.8,21.93V44.44A21.19,21.19,0,0,0,849,65.58h29.12a7,7,0,0,0,6.63-4.75l1.48-4.35v2.1a7,7,0,0,0,7,7h28.62a7,7,0,0,0,6.63-9.23l-14.85-44A18.07,18.07,0,0,0,896.28,0ZM890,45.29l6.28-18.57,6,17.79h-9.08a6.92,6.92,0,0,0-3.21.78Zm-41-.78a.17.17,0,0,1-.13-.08V38.49a7,7,0,0,0,3.36.85h6v5.17Z" fill="#fff"/><path d="M902.73,110.44c-7.44,0-11.7-4.26-11.7-11.7V78.21c0-7.44,4.26-11.7,11.7-11.7H933.5c7.43,0,11.7,4.26,11.7,11.7V98.74c0,7.44-4.27,11.7-11.7,11.7ZM930,95.24V81.71H906.23V95.24Z" fill="#fff"/><path d="M933.5,70c5.48,0,8.2,2.71,8.2,8.2V98.74c0,5.49-2.72,8.2-8.2,8.2H902.73c-5.49,0-8.2-2.71-8.2-8.2V78.21c0-5.49,2.71-8.2,8.2-8.2H933.5M902.73,98.74H933.5V78.21H902.73V98.74M933.5,63H902.73c-9.38,0-15.2,5.82-15.2,15.2V98.74c0,9.38,5.82,15.2,15.2,15.2H933.5c9.37,0,15.2-5.82,15.2-15.2V78.21c0-9.38-5.83-15.2-15.2-15.2Zm-23.77,22.2H926.5v6.53H909.73V85.21Z" fill="#fff"/><path d="M954,110.44c-7.44,0-11.7-4.26-11.7-11.7V78.21c0-7.44,4.26-11.7,11.7-11.7H984.8c7.44,0,11.7,4.26,11.7,11.7V98.74c0,7.44-4.26,11.7-11.7,11.7Zm27.27-15.2V81.71H957.53V95.24Z" fill="#fff"/><path d="M984.8,70c5.49,0,8.2,2.71,8.2,8.2V98.74c0,5.49-2.71,8.2-8.2,8.2H954c-5.49,0-8.2-2.71-8.2-8.2V78.21c0-5.49,2.71-8.2,8.2-8.2H984.8M954,98.74H984.8V78.21H954V98.74M984.8,63H954c-9.38,0-15.2,5.82-15.2,15.2V98.74c0,9.38,5.82,15.2,15.2,15.2H984.8c9.38,0,15.2-5.82,15.2-15.2V78.21c0-9.38-5.82-15.2-15.2-15.2ZM961,85.21H977.8v6.53H961V85.21Z" fill="#fff"/><path d="M687.46,110.5A3.5,3.5,0,0,1,684,107V98.8a3.5,3.5,0,0,1,3.5-3.5h3.18c-4.26-1.6-6.68-5.41-6.68-10.87V78.27c0-7.44,4.26-11.7,11.7-11.7h36.93a3.49,3.49,0,0,1,3.5,3.5v8.2a3.5,3.5,0,0,1-3.5,3.5H729.5c4.25,1.58,6.59,5.35,6.59,10.86V98.8c0,7.44-4.26,11.7-11.7,11.7Z" fill="#fff"/><path d="M732.59,70.07v8.2H695.66v6.16h28.73c5.49,0,8.2,2.72,8.2,8.2V98.8c0,5.49-2.71,8.2-8.2,8.2H687.46V98.8h36.93V92.63H695.66c-5.43,0-8.2-2.77-8.2-8.2V78.27c0-5.49,2.71-8.2,8.2-8.2h36.93m0-7H695.66c-9.38,0-15.2,5.82-15.2,15.2v6.16a16.21,16.21,0,0,0,2.47,9,7,7,0,0,0-2.47,5.34V107a7,7,0,0,0,7,7h36.93c9.38,0,15.2-5.82,15.2-15.2V92.63a16.41,16.41,0,0,0-2.42-9.06,7,7,0,0,0,2.42-5.3v-8.2a7,7,0,0,0-7-7Z" fill="#fff"/><path d="M804.37,110.44a3.5,3.5,0,0,1-3.5-3.5v-8.2a3.5,3.5,0,0,1,3.5-3.5h8.83V81.71h-8.83a3.5,3.5,0,0,1-3.5-3.5V70a3.5,3.5,0,0,1,3.5-3.5h22.57a3.5,3.5,0,0,1,3.5,3.5V95.24h8.83a3.5,3.5,0,0,1,3.5,3.5v8.2a3.5,3.5,0,0,1-3.5,3.5Z" fill="#fff"/><path d="M826.94,70V98.74h12.33v8.2h-34.9v-8.2H816.7V78.21H804.37V70h22.57m0-7H804.37a7,7,0,0,0-7,7v8.2a7,7,0,0,0,7,7h5.33v6.53h-5.33a7,7,0,0,0-7,7v8.2a7,7,0,0,0,7,7h34.9a7,7,0,0,0,7-7v-8.2a7,7,0,0,0-7-7h-5.33V70a7,7,0,0,0-7-7Z" fill="#fff"/><rect x="782.37" y="80.93" width="21.37" height="15.2" rx="3.5" fill="#fff"/><path d="M800.24,84.43v8.2H785.87v-8.2h14.37m0-7H785.87a7,7,0,0,0-7,7v8.2a7,7,0,0,0,7,7h14.37a7,7,0,0,0,7-7v-8.2a7,7,0,0,0-7-7Z" fill="#fff"/><path d="M744.87,110.44c-7.44,0-11.7-4.26-11.7-11.7V78.21c0-7.44,4.26-11.7,11.7-11.7H781.8a3.5,3.5,0,0,1,3.5,3.5v8.2a3.49,3.49,0,0,1-1.84,3.08,3.49,3.49,0,0,1,1.84,3.09v22.56a3.5,3.5,0,0,1-3.5,3.5Zm10.06-15.2a3.47,3.47,0,0,1-1.23-2.66v-8.2a3.47,3.47,0,0,1,1.23-2.67h-6.56V95.24Z" fill="#fff"/><path d="M781.8,70v8.2H744.87V98.74H773.6V92.58H757.2v-8.2h24.6v22.56H744.87c-5.43,0-8.2-2.71-8.2-8.2V78.21c0-5.49,2.71-8.2,8.2-8.2H781.8m0-7H744.87c-9.38,0-15.2,5.82-15.2,15.2V98.74c0,9.38,5.82,15.2,15.2,15.2H781.8a7,7,0,0,0,7-7V84.38a7.08,7.08,0,0,0-.71-3.09,7,7,0,0,0,.71-3.08V70a7,7,0,0,0-7-7Z" fill="#fff"/><path d="M851.48,110.44c-7.43,0-11.7-4.26-11.7-11.7V78.21c0-7.44,4.27-11.7,11.7-11.7h30.77c7.44,0,11.71,4.26,11.71,11.7V98.74c0,7.44-4.27,11.7-11.71,11.7Zm27.27-15.2V81.71H855V95.24Z" fill="#fff"/><path d="M882.25,70c5.49,0,8.2,2.71,8.2,8.2V98.74c0,5.49-2.71,8.2-8.2,8.2H851.48c-5.48,0-8.2-2.71-8.2-8.2V78.21c0-5.49,2.72-8.2,8.2-8.2h30.77M851.48,98.74h30.77V78.21H851.48V98.74M882.25,63H851.48c-9.37,0-15.2,5.82-15.2,15.2V98.74c0,9.38,5.83,15.2,15.2,15.2h30.77c9.38,0,15.2-5.82,15.2-15.2V78.21c0-9.38-5.82-15.2-15.2-15.2Zm-23.77,22.2h16.77v6.53H858.48V85.21Z" fill="#fff"/><path d="M751.48,58.64H774a16.66,16.66,0,1,0,0-33.31h-5.89a.88.88,0,0,1-.85-.85.89.89,0,0,1,.85-.91h22.46l0-7H768.11a7.92,7.92,0,0,0,0,15.84H774a9.53,9.53,0,1,1,0,19.06H751.48v7.18Z" fill="#17569b"/><path d="M751.48,49.82H774A7.92,7.92,0,0,0,774,34h-5.89a9.59,9.59,0,0,1-9.5-9.62,9.48,9.48,0,0,1,9.5-9.5h22.51l0-7.12H768.11a16.66,16.66,0,0,0,0,33.31h5.83a.85.85,0,1,1,0,1.7H751.48v7.07Zm56.62,1.69A7,7,0,0,1,801,44.44V21.82a7.05,7.05,0,0,1,7.07-7h24V7.79h-24A14.15,14.15,0,0,0,794,21.93V44.44A14.15,14.15,0,0,0,808.1,58.58H832V51.51Z" fill="#17569b"/><path d="M802.79,21.93a5.42,5.42,0,0,1,5.37-5.43h24v7.07H811.5a1.61,1.61,0,0,0-1.64,1.64h17.3v7.07H802.84l-.05-10.35Zm5.31,27.89a5.41,5.41,0,0,1-5.37-5.38V34h24.32v7.07H809.74a1.61,1.61,0,0,0,1.64,1.64H832v7l-23.87.06Zm40.95,1.69a7.11,7.11,0,0,1-7.12-7.07V21.93A7.07,7.07,0,0,1,849,14.86h23.3V7.79H848.94A14.15,14.15,0,0,0,834.8,21.93V44.44A14.19,14.19,0,0,0,849,58.58h23.3V25.27h-20v7.07h13V51.51Z" fill="#17569b"/><path d="M843.57,44.44A5.47,5.47,0,0,0,849,49.87h14.53V34H852.28v7.12h4.18V42.8h-4.18a1.67,1.67,0,0,1-1.64-1.64V25.33a1.61,1.61,0,0,1,1.64-1.64h20V16.62h-23.3a5.47,5.47,0,0,0-5.43,5.43l.06,22.39Zm50.56-28a2.31,2.31,0,0,1,2.15-1.59,2.18,2.18,0,0,1,2.15,1.59l11.26,33.48H893.17V42.07h5.54l-2.49-7.47-8.14,24h-8.32Z" fill="#17569b"/><path d="M912.06,51.51H893.23v7.07h28.62L907,14.47a11.38,11.38,0,0,0-21.38,0l-15,44.11h7.57l14.54-42.93a4,4,0,0,1,3.68-2.43A3.89,3.89,0,0,1,900,15.65l12.1,35.86Z" fill="#17569b"/><path d="M687.46,84.43V78.27c0-5.49,2.71-8.2,8.2-8.2h36.93v8.2H695.66v6.16h28.73c5.49,0,8.2,2.72,8.2,8.2V98.8c0,5.49-2.71,8.2-8.2,8.2H687.46V98.8h36.93V92.63H695.66C690.23,92.63,687.46,89.86,687.46,84.43Zm49.21,14.31V78.21c0-5.49,2.71-8.2,8.2-8.2H781.8v8.2H744.87V98.74H773.6V92.58H757.2v-8.2h24.6v22.56H744.87c-5.43,0-8.2-2.71-8.2-8.2Zm49.2-6.11v-8.2h14.37v8.2Zm18.5,14.31v-8.2H816.7V78.21H804.37V70h22.57V98.74h12.33v8.2Zm86.08-8.2c0,5.49-2.71,8.2-8.2,8.2H851.48c-5.48,0-8.2-2.71-8.2-8.2V78.21c0-5.49,2.72-8.2,8.2-8.2h30.77c5.49,0,8.2,2.71,8.2,8.2Zm-8.2,0V78.21H851.48V98.74Zm59.45,0c0,5.49-2.72,8.2-8.2,8.2H902.73c-5.49,0-8.2-2.71-8.2-8.2V78.21c0-5.49,2.71-8.2,8.2-8.2H933.5c5.48,0,8.2,2.71,8.2,8.2Zm-8.2,0V78.21H902.73V98.74Zm59.5,0c0,5.49-2.71,8.2-8.2,8.2H954c-5.49,0-8.2-2.71-8.2-8.2V78.21c0-5.49,2.71-8.2,8.2-8.2H984.8c5.49,0,8.2,2.71,8.2,8.2Zm-8.2,0V78.21H954V98.74Z" fill="red"/></g></svg>