<svg id="Calque_1" data-name="Calque 1" xmlns="http://www.w3.org/2000/svg" xmlns:xlink="http://www.w3.org/1999/xlink" viewBox="0 0 387.98452 169.61107"><defs><linearGradient id="Dégradé_sans_nom_143" x1="5.98642" y1="82.01426" x2="381.99848" y2="82.01426" gradientUnits="userSpaceOnUse"><stop offset="0" stop-color="#545454"/><stop offset="1" stop-color="#3b3b3b"/></linearGradient><linearGradient id="Dégradé_sans_nom_71" x1="329.90556" y1="65.89248" x2="320.9107" y2="41.90619" gradientUnits="userSpaceOnUse"><stop offset="0" stop-color="#383838"/><stop offset="1" stop-color="#242424"/></linearGradient><linearGradient id="Dégradé_sans_nom_71-2" x1="336.27854" y1="96.98771" x2="331.48128" y2="77.19902" xlink:href="#Dégradé_sans_nom_71"/></defs><title>controller</title><path d="M193.99226,169.61107c34.746,0,72.76453-4.617,102.1055-9.37332,23.61753-3.8285,41.346-7.70383,49.258-9.66579,13.40348-3.32371,24.79634-7.29513,26.235-8.09538,3.79984-2.11364,7.21076-5.73428,10.19418-8.84494,7.19234-7.49912,6.14649-18.88921,6.14649-18.88921s-1.49915-13.49229-4.79726-34.78012S367.54309,27.079,367.54309,27.079A30.42157,30.42157,0,0,0,359.44771,14c-2.25248-2.14523-8.89927-8.17773-16.34066-8.17773h-64.763c-5.69675,0-9.002,6.07428-10.04426,7.8779-1.16534,2.01653-2.90582,6.43852-2.24872,10.55977,1.20262,7.54269,6.18247,15.88378,7.3458,19.39315,1.37749,4.15541,3.45816,11.63333,4.3575,14.90923a1.51666,1.51666,0,0,1-1.20828,1.89977c-8.05373,1.37613-44.42914,7.20723-82.55385,7.20723s-74.50011-5.8311-82.55385-7.20723a1.51666,1.51666,0,0,1-1.20828-1.89977c.89934-3.2759,2.98-10.75382,4.3575-14.90923,1.16334-3.50937,6.14318-11.85046,7.3458-19.39315.6571-4.12125-1.08338-8.54324-2.24871-10.55977-1.04229-1.80362-4.34752-7.8779-10.04426-7.8779h-64.763c-7.44138,0-14.08817,6.0325-16.34066,8.17773a30.4216,30.4216,0,0,0-8.09537,13.079S8.14846,58.67448,4.85035,79.96231.05309,114.74243.05309,114.74243s-1.04585,11.39009,6.14649,18.88921c2.98341,3.11066,6.39433,6.7313,10.19417,8.84494,1.43867.80025,12.83153,4.77167,26.235,8.09538,7.912,1.962,25.64048,5.83729,49.258,9.66579C121.22773,164.994,159.2463,169.61107,193.99226,169.61107Z" fill="#323333"/><path d="M358.35886,21.04305c-5.45957-8.34191-16.85072-10.89455-17.33267-10.99879l-.23014-.05036L316.30438,8.606l-30.16791-.19793-.1101-.00118-.11009.00762c-.29515.01991-7.28022.54754-10.78563,5.85778a13.47111,13.47111,0,0,0-1.88447,10.67613l.05036.15167c.03455.096,3.49312,9.70461,7.12971,20.20154,1.3709,3.9575,2.40156,7.93023,3.39767,11.77237.48664,1.87686.95512,3.68286,1.447,5.42737C279.5783,63.91445,262.07,66.193,238.8748,68.0043c-21.81839,1.70293-43.25555,2.44489-44.88235,2.49994-1.62681-.055-23.06456-.797-44.88236-2.49994-23.19514-1.81068-40.7035-4.08985-46.39614-5.50291.4919-1.74568.961-3.55285,1.44819-5.43147.99611-3.841,2.02619-7.81252,3.3965-11.76886,3.63542-10.49458,7.09516-20.10491,7.12971-20.20037l.05037-.15225a13.47115,13.47115,0,0,0-1.88447-10.67613c-3.50542-5.31024-10.49108-5.83787-10.78622-5.85778l-.1101-.00762-30.12809.19442L47.42367,9.981l-.23483.01289-.23014.05036c-.48195.10424-11.87309,2.65688-17.33326,10.99879-5.29443,8.08835-23.639,65.20044-23.639,96.15423,0,6.65479,3.45154,11.568,9.46919,13.48058C39.227,138.2333,73.774,144.19181,83.796,145.83794c.97269.15987,1.97114.32208,2.98716.48664l4.289.68691a651.98877,651.98877,0,0,0,102.92029,8.61012,651.96837,651.96837,0,0,0,102.92613-8.61129l4.28837-.68633c1.01075-.164,2.00862-.32618,2.98131-.48605,10.02259-1.64613,44.57023-7.60522,68.33985-15.16008,6.01882-1.912,9.47037-6.82579,9.47037-13.48058C381.99848,86.24407,363.6533,29.132,358.35886,21.04305Z" fill="url(#Dégradé_sans_nom_143)"/><path d="M354.0508,22.36454c-4.79726-7.52639-15.29126-9.86368-15.29126-9.86368l-23.98629-1.396-29.683-.19606s-5.69674.39279-8.3952,4.59039a10.81,10.81,0,0,0-1.49914,8.29228s3.41919,9.74868,7.06222,20.54771c2.3725,7.03272,3.73161,14.07211,5.53058,20.03208.58224,1.929-24.99821,5.1062-49.1839,7.04528-22.663,1.817-44.61251,2.54924-44.61251,2.54924s-21.94953-.73223-44.6125-2.54924c-24.18569-1.93908-49.76614-5.1163-49.1839-7.04528,1.799-5.96,3.15808-12.99936,5.53058-20.03208,3.643-10.799,7.06222-20.54771,7.06222-20.54771a10.81005,10.81005,0,0,0-1.49914-8.29228c-2.69846-4.1976-8.39521-4.59039-8.39521-4.59039l-29.683.19606L49.225,12.50086s-10.494,2.33729-15.29127,9.86368S11.041,86.85046,11.041,118.34038c0,3.093.87822,8.69752,7.30163,10.79383,20.02366,6.53474,49.2142,12.264,67.16161,15.29126.95951.16184,1.94461.32655,2.94189.49242l4.23511.69632a624.14326,624.14326,0,0,0,101.311,8.7056,624.14315,624.14315,0,0,0,101.311-8.7056l4.23516-.69632c.99728-.16587,1.98233-.33058,2.94184-.49242,17.94741-3.02728,47.138-8.75652,67.16162-15.29126,6.42341-2.09631,7.30166-7.70083,7.30166-10.79383C376.94355,86.85046,358.84806,29.89093,354.0508,22.36454Z" fill="#444544"/><line x1="283.69882" y1="66.53385" x2="287.68092" y2="65.20687" fill="#444544"/><path d="M294.66584,120.4973c-.245-3.30573-.565-6.78132-.97993-10.33293" fill="#444544"/><path d="M94.29862,110.16437c-.415,3.55161-.735,7.0272-.97994,10.33293" fill="#444544"/><circle cx="56.7207" cy="67.86922" r="28.78355" fill="#1b1c1c"/><circle cx="56.12632" cy="67.07495" r="26.31055" fill="#636363"/><circle cx="56.72597" cy="68.27426" r="26.31055" fill="#3a3b3a"/><path d="M44.87747,5.82228V2.90635A1.23521,1.23521,0,0,1,46.2267,1.55712L104.8432.909a1.54467,1.54467,0,0,1,1.64906,1.37251V5.82228Z" fill="#232423"/><path d="M343.10705,5.82228V2.90635a1.23521,1.23521,0,0,0-1.34923-1.34923L283.14132.909a1.54465,1.54465,0,0,0-1.649,1.37251V5.82228Z" fill="#232423"/><path d="M355.33755,48.01065a12.236,12.236,0,0,0-16.97933-11.27377l-.00008-.00026-31.218,9.30318a12.23053,12.23053,0,1,0,5.15125,23.31172l.00827.00779,32.54905-9.24374-.00336-.012A12.22281,12.22281,0,0,0,355.33755,48.01065Z" fill="url(#Dégradé_sans_nom_71)"/><circle cx="307.1401" cy="58.2703" r="11.30421" fill="#18c49b"/><circle cx="307.1401" cy="58.2703" r="10.17379" fill="#47deba"/><circle cx="343.10705" cy="48.01064" r="11.00745" fill="#e6a604"/><circle cx="343.10705" cy="48.01064" r="9.9067" fill="#ffdf46"/><path d="M366.13142,83.50374a12.22063,12.22063,0,0,0-17.87757-10.84236l-.0022-.00447-25.50256,6.84365a15.21738,15.21738,0,1,0,6.83047,23.86h0l26.13706-7.77571a12.12725,12.12725,0,0,0,3.29446-.98012l.067-.01991-.00491-.01A12.2207,12.2207,0,0,0,366.13142,83.50374Z" fill="url(#Dégradé_sans_nom_71-2)"/><circle cx="353.90088" cy="83.50374" r="11.00745" fill="#005e9c"/><circle cx="353.90088" cy="83.50374" r="9.9067" fill="#4a9be4"/><circle cx="317.70104" cy="93.85574" r="14.10857" fill="#da2b27"/><circle cx="317.70104" cy="93.85574" r="12.69771" fill="#ff5853"/><path d="M189.79485,68.83545a.61051.61051,0,0,1,.06851-.01416c0,.65924,8.28277.65924,8.28277,0,.01727,0,.02759.0086.04392.00984V36.42157l-.03163-.51592c-.07788-.65-1.74216-16.08358,11.69508-30.09413L203.79485,0c-15.39667,16.05313-14.26353,34.0001-14,36.64937Z" fill="#1c1c1c"/><path d="M189.20749,68.55009v-.829a.66344.66344,0,0,1,.65587-.69876c0,.65924,8.28277.65924,8.28277,0,.38591,0,.5247.31285.5247.69876v.829C198.67083,69.83751,189.20749,69.83751,189.20749,68.55009Z" fill="#393b39"/><path d="M65.12549,38.52637,61.689,37.76611a.60429.60429,0,0,1-.31591-.99756l2.37744-2.59667a.59519.59519,0,0,1,.44385-.19581.60206.60206,0,0,1,.57714.42188l1.06006,3.35644a.59783.59783,0,0,1-.08789.53858.60485.60485,0,0,1-.48584.24756Z" fill="#4f4f4f"/><path d="M64.19445,34.21569a.36294.36294,0,0,1,.34866.2547l1.06,3.35625a.36459.36459,0,0,1-.34549.47426.37231.37231,0,0,1-.0805-.00891l-3.43662-.76015a.36423.36423,0,0,1-.19-.60159l2.37659-2.5961a.35923.35923,0,0,1,.26733-.11846m0-.47973a.84454.84454,0,0,0-.62118.27426l-2.37659,2.5961a.844.844,0,0,0,.44024,1.39393l3.43659.76014a.84132.84132,0,0,0,.86349-.32576.835.835,0,0,0,.12357-.75246l-1.06-3.35626a.84173.84173,0,0,0-.80612-.59Z" fill="#333"/><path d="M75.28125,20.7793a.80183.80183,0,0,1-.40137-.10889l-4.72217-2.72656a.80373.80373,0,0,1,0-1.39209l4.72217-2.72608a.80246.80246,0,0,1,1.20606.6958v5.45264A.80584.80584,0,0,1,75.28125,20.7793Z" fill="#4a4a4a"/><path d="M75.28109,13.95655a.56492.56492,0,0,1,.56512.5651v5.4525a.56312.56312,0,0,1-.8464.48867l-4.722-2.72625a.56427.56427,0,0,1,0-.97733l4.722-2.72626a.56.56,0,0,1,.28128-.07643m.00006-.47973h-.00006a1.04449,1.04449,0,0,0-.52115.1407l-4.722,2.72627a1.044,1.044,0,0,0,0,1.80823l4.722,2.72626a1.04288,1.04288,0,0,0,1.566-.90413v-5.4525a1.046,1.046,0,0,0-1.0448-1.04483Z" fill="#333"/><path d="M249.19434,137.61621a.80925.80925,0,0,1-.80371-.74805l-.38575-5.43847a.79456.79456,0,0,1,.21289-.60449.80042.80042,0,0,1,.94141-.17579l4.90234,2.38477a.80513.80513,0,0,1,.09961,1.38965l-4.51758,3.05371A.8015.8015,0,0,1,249.19434,137.61621Z" fill="#4a4a4a"/><path d="M248.807,130.80732a.56207.56207,0,0,1,.24689.05771l4.90319,2.38513a.56428.56428,0,0,1,.06916.97489l-4.51715,3.05368a.55794.55794,0,0,1-.3144.09753.56456.56456,0,0,1-.56445-.525l-.386-5.43882a.56517.56517,0,0,1,.56275-.60507m0-.47973h0a1.05023,1.05023,0,0,0-.76544.33465,1.03128,1.03128,0,0,0-.27582.78412l.386,5.43881a1.04306,1.04306,0,0,0,1.626.791l4.51715-3.05371a1.044,1.044,0,0,0-.128-1.80371l-4.9032-2.38514a1.03591,1.03591,0,0,0-.45672-.106Z" fill="#333"/><path d="M48.584,101.7627a.6025.6025,0,0,1-.57714-.42237l-1.06006-3.35644a.59516.59516,0,0,1,.08789-.53809.60532.60532,0,0,1,.48584-.24805l.13232.01416,3.437.76026a.6042.6042,0,0,1,.31495.998l-2.377,2.5962A.5949.5949,0,0,1,48.584,101.7627Z" fill="#4a4a4a"/><path d="M47.52081,97.43756a.37226.37226,0,0,1,.0805.00889l3.43662.76015a.36423.36423,0,0,1,.19.60159l-2.37659,2.59612a.35929.35929,0,0,1-.26733.11845.363.363,0,0,1-.34867-.25471l-1.06-3.35625a.36457.36457,0,0,1,.34549-.47424m0-.47974a.846.846,0,0,0-.67939.346.83491.83491,0,0,0-.12356.75244l1.06,3.35626a.8438.8438,0,0,0,1.42731.31569l2.37659-2.5961a.844.844,0,0,0-.44025-1.39394l-3.43658-.76013a.85424.85424,0,0,0-.18411-.02023Z" fill="#333"/><path d="M86.09668,77.63818a.60458.60458,0,0,1-.58838-.73486l.76025-3.43652a.60365.60365,0,0,1,.998-.31494l2.59619,2.37646a.60372.60372,0,0,1-.22607,1.021l-3.35645,1.06006A.60589.60589,0,0,1,86.09668,77.63818Z" fill="#4a4a4a"/><path d="M86.86,73.23251a.35919.35919,0,0,1,.24444.09587l2.5961,2.3766a.36424.36424,0,0,1-.13623.616L86.208,77.381a.36857.36857,0,0,1-.111.01736.36471.36471,0,0,1-.35428-.44336l.76013-3.4366a.36366.36366,0,0,1,.35715-.28587m0-.47972a.83988.83988,0,0,0-.82553.662l-.76011,3.4366a.84438.84438,0,0,0,.82267,1.02667.84774.84774,0,0,0,.25549-.03961l3.35629-1.06a.844.844,0,0,0,.31568-1.42729l-2.5961-2.3766a.84024.84024,0,0,0-.56839-.22174Z" fill="#333"/><path d="M25.99268,63.32422a.601.601,0,0,1-.40674-.15918l-2.59619-2.37647a.60334.60334,0,0,1,.22607-1.021l3.35645-1.06006a.60412.60412,0,0,1,.772.706L26.584,62.8501A.60185.60185,0,0,1,25.99268,63.32422Z" fill="#4a4a4a"/><path d="M26.75533,58.91856a.36473.36473,0,0,1,.35431.44336l-.76016,3.4366a.36365.36365,0,0,1-.35712.28586.3592.3592,0,0,1-.24447-.09586l-2.5961-2.3766a.36424.36424,0,0,1,.13626-.616l3.35623-1.06a.36794.36794,0,0,1,.11105-.01736m.00006-.47974a.848.848,0,0,0-.25555.03963l-3.35626,1.06a.844.844,0,0,0-.31571,1.42731l2.5961,2.3766a.84364.84364,0,0,0,1.39392-.44025l.76014-3.4366a.84443.84443,0,0,0-.82264-1.0267Z" fill="#333"/><path d="M81.61621,20.7793a.80491.80491,0,0,1-.40185-.10889l-4.72217-2.72656a.80372.80372,0,0,1,0-1.39209l4.72217-2.72608a.80284.80284,0,0,1,1.20654.6958v5.45264A.80584.80584,0,0,1,81.61621,20.7793Z" fill="#4a4a4a"/><path d="M81.61584,13.95655a.56491.56491,0,0,1,.56509.5651v5.4525a.5631.5631,0,0,1-.84637.48867l-4.722-2.72625a.56427.56427,0,0,1,0-.97733l4.722-2.72626a.5599.5599,0,0,1,.28128-.07643m0-.47973h0a1.04423,1.04423,0,0,0-.52115.14071l-4.722,2.72626a1.044,1.044,0,0,0,0,1.80823l4.722,2.72626a1.04285,1.04285,0,0,0,1.566-.90413v-5.4525a1.046,1.046,0,0,0-1.0448-1.04483Z" fill="#333"/><path d="M317.501,20.17969a.80636.80636,0,0,1-.80567-.80518V13.92188a.80455.80455,0,0,1,1.207-.69678l4.72168,2.72705a.80464.80464,0,0,1,0,1.39258l-4.72168,2.72607A.80177.80177,0,0,1,317.501,20.17969Z" fill="#4a4a4a"/><path d="M317.50069,13.35688a.55969.55969,0,0,1,.28125.07645l4.722,2.72624a.56428.56428,0,0,1,0,.97734l-4.722,2.72624a.56308.56308,0,0,1-.84637-.48866V13.922a.565.565,0,0,1,.56512-.56511m0-.47972a1.046,1.046,0,0,0-1.04486,1.04483v5.4525a1.04285,1.04285,0,0,0,1.566.90413l4.722-2.72624a1.044,1.044,0,0,0,0-1.80826l-4.722-2.72624a1.04415,1.04415,0,0,0-.52112-.14072Z" fill="#333"/><path d="M311.166,20.17969a.80636.80636,0,0,1-.80567-.80518V13.92188a.80455.80455,0,0,1,1.207-.69678l4.72168,2.72705a.80318.80318,0,0,1-.001,1.39258l-4.72071,2.72607A.8018.8018,0,0,1,311.166,20.17969Z" fill="#4a4a4a"/><path d="M311.166,13.35688a.55972.55972,0,0,1,.28125.07645l4.722,2.72624a.56424.56424,0,0,1,0,.97734l-4.722,2.72624a.56309.56309,0,0,1-.84638-.48866V13.922a.565.565,0,0,1,.56513-.56511m0-.47972a1.046,1.046,0,0,0-1.04486,1.04483v5.4525a1.04285,1.04285,0,0,0,1.566.90413l4.722-2.72626a1.044,1.044,0,0,0,0-1.80824l-4.722-2.72624a1.04418,1.04418,0,0,0-.52112-.14072Z" fill="#333"/><path d="M238.51465,138.80664a.979.979,0,0,1-.98145-.94824l-.20605-5.87061a.9841.9841,0,0,1,.94726-1.01758l.7627-.02685a.98667.98667,0,0,1,1.01562.94824l.20606,5.87061a.98411.98411,0,0,1-.94727,1.01758Z" fill="#4a4a4a"/><path d="M239.07034,131.18281a.74385.74385,0,0,1,.74292.71771l.20654,5.86981a.744.744,0,0,1-.71729.76957l-.76049.02676-.02662.00046a.74389.74389,0,0,1-.743-.71771l-.20648-5.86982a.74382.74382,0,0,1,.71723-.76956l.76055-.02676.02662-.00046m0-.47974H239.062l-.035.00077-.76068.02676a1.22352,1.22352,0,0,0-1.17981,1.26587l.20648,5.86981a1.21893,1.21893,0,0,0,1.22241,1.18057l.804-.02752a1.22514,1.22514,0,0,0,1.17987-1.26581l-.20654-5.86987a1.21889,1.21889,0,0,0-1.22235-1.18058Z" fill="#333"/><path d="M242.41113,138.66992a.97959.97959,0,0,1-.98242-.94873l-.207-5.8706a.9859.9859,0,0,1,.94824-1.01758l.7627-.02637a.98668.98668,0,0,1,1.01562.94824l.20606,5.87012a.98411.98411,0,0,1-.94727,1.01758Z" fill="#4a4a4a"/><path d="M242.96566,131.04576a.74387.74387,0,0,1,.743.71771l.20648,5.86981a.74384.74384,0,0,1-.71722.76956l-.7605.02677-.02661.00045a.74389.74389,0,0,1-.743-.71771l-.20654-5.86981a.74389.74389,0,0,1,.71728-.76956l.7605-.02677.02661-.00045m0-.47974h-.0083l-.035.00076-.76062.02677a1.22507,1.22507,0,0,0-1.17988,1.2658l.20655,5.86988a1.21892,1.21892,0,0,0,1.22241,1.18057l.804-.02753a1.225,1.225,0,0,0,1.17981-1.26587l-.20648-5.86981a1.21892,1.21892,0,0,0-1.22241-1.18057Z" fill="#333"/><path d="M321.07813,117.33594a.60572.60572,0,0,1-.58692-.47266l-.22168-1.02a.601.601,0,0,1,.459-.71484l5.06933-1.104.10254-.0083a.60285.60285,0,0,1,.58691.47315l.22266,1.019a.60257.60257,0,0,1-.46.71533l-5.06934,1.104Z" fill="#4a4a4a"/><path d="M325.90084,114.25582a.36121.36121,0,0,1,.35242.28429l.222,1.01935a.361.361,0,0,1-.27594.42961l-5.04406,1.09859a.3607.3607,0,0,1-.42963-.27594l-.222-1.01935a.36106.36106,0,0,1,.27594-.4296l5.04407-1.0986a.36316.36316,0,0,1,.07721-.00835m0-.47973a.843.843,0,0,0-.17932.01936l-5.04407,1.09859a.84173.84173,0,0,0-.64258,1.00039l.222,1.01937a.8403.8403,0,0,0,1.00049.64258l5.04406-1.09856a.8408.8408,0,0,0,.64252-1.00057L326.722,114.438a.84546.84546,0,0,0-.82117-.66194Z" fill="#333"/><path d="M323.06934,114.53662a.55172.55172,0,0,1-.36817-.14062l-1.2959-1.15479a.41993.41993,0,0,1,.19043-.72412l.21289-.04639-.50293-2.50586.06641-.165a.34892.34892,0,0,1,.22266-.15527l1.09472-.23828.02344-.00049a.36278.36278,0,0,1,.39551.26758l.4834,2.41113.209-.04785.041-.001a.43314.43314,0,0,1,.40039.18262.41922.41922,0,0,1,.03222.39844l-.69824,1.58935A.55539.55539,0,0,1,323.06934,114.53662Z" fill="#4a4a4a"/><path d="M322.76418,109.63793a.1121.1121,0,0,1,.10938.08826l.50854,2.53241a.1119.1119,0,0,0,.13336.08566l.33619-.07321a.18536.18536,0,0,1,.03955-.00432.18041.18041,0,0,1,.16382.25292l-.69861,1.58993a.31325.31325,0,0,1-.49543.10791l-1.2965-1.15541a.18024.18024,0,0,1,.08154-.31065l.33618-.07321a.11211.11211,0,0,0,.08569-.1334l-.50854-2.53239a.11211.11211,0,0,1,.08569-.13338l1.09516-.23852a.112.112,0,0,1,.024-.0026m0-.47973h-.05163l-.0744.01358-1.09522.23854a.59184.59184,0,0,0-.45233.70424l.43616,2.1721a.66.66,0,0,0-.2815,1.13355l1.29657,1.15544a.793.793,0,0,0,1.25379-.27309l.6986-1.58993a.6601.6601,0,0,0-.603-.92562h-.05164l-.06085.01035-.43482-2.16562a.59726.59726,0,0,0-.57971-.47354Z" fill="#333"/><path d="M297.90332,43.93408a1.01944,1.01944,0,0,1-.52637-.12256c-.27441-.165-.374-.41406-.48144-.87646a.37607.37607,0,0,1,.28515-.45264l.96582-.21.06543.21045a1.20219,1.20219,0,0,0,.06446.22314,3.18646,3.18646,0,0,1,.6748-.17236c.16113-.03515.5791-.13867.65235-.16406.002-.01807-.00293-.02783-.03516-.02783a4.16269,4.16269,0,0,0-.45606.08252l-.43359.09375-.02441.00048a.38785.38785,0,0,1-.42188-.28906l-.085-.38769a.37757.37757,0,0,1,.28613-.44727l.57325-.124a1.11049,1.11049,0,0,0,.35156-.10645c-.11426.01563-.36133.06739-.64844.12989a6.1714,6.1714,0,0,0-.71484.17675c.01367.0083.02148.04248.02734.07227l.05078.23437-.21972.11963-.75489.16407-.02539.00048a.387.387,0,0,1-.42187-.28515c-.24121-1.1128.30273-1.33008,1.91308-1.68018a6.00885,6.00885,0,0,1,1.17383-.18555.96959.96959,0,0,1,.38281.06788.98793.98793,0,0,1,.55957.80371.94061.94061,0,0,1-.05566.70117c.25879.06445.34766.35742.416.67334a.89505.89505,0,0,1-.39649,1.11865,6.74437,6.74437,0,0,1-1.75586.51514A4.84054,4.84054,0,0,1,297.90332,43.93408Z" fill="#4a4a4a"/><path d="M299.73837,40.15072a.7431.7431,0,0,1,.29193.04955c.221.09091.33606.26722.41577.6334.06122.28151.04742.45415-.07111.58481a.13506.13506,0,0,0,.06909.21858c.20777.06141.28577.21492.363.57058.09869.45309.02252.67576-.28686.86282a6.82207,6.82207,0,0,1-1.68219.48585,4.73821,4.73821,0,0,1-.93445.13764.78524.78524,0,0,1-.40711-.09042c-.17718-.10656-.25818-.2542-.36725-.723a.13636.13636,0,0,1,.1034-.1639l.74969-.163.01648.05391c.05377.24717.09888.2997.23395.30386.05688-.00278.45349-.07466.76929-.14336.16943-.03683.61035-.14711.68158-.17227.18719-.06469.23376-.13714.196-.311-.02991-.13731-.08594-.19694-.18817-.20355l-.01648-.00017a4.41609,4.41609,0,0,0-.644.1151l-.40283.08755a.13565.13565,0,0,1-.16156-.10385l-.0846-.38907a.13581.13581,0,0,1,.10388-.16154l.57221-.12447c.45764-.09956.553-.16825.50714-.37872-.02759-.127-.0603-.1862-.21118-.1862a4.13524,4.13524,0,0,0-.69489.11963c-.94281.20506-.94281.20506-.87109.53457l.01489.0687-.75525.16426a.13566.13566,0,0,1-.16156-.10381l-.011-.0504c-.17413-.801.05622-.97575,1.74054-1.3421a6.04168,6.04168,0,0,1,1.12269-.17987m0-.47972a6.19191,6.19191,0,0,0-1.22468.19084c-1.39868.3042-2.40924.524-2.1073,1.91277l.011.05061a.61971.61971,0,0,0,.55115.48245.61724.61724,0,0,0-.30652.68155,1.39019,1.39019,0,0,0,.58728,1.02542,1.25379,1.25379,0,0,0,.6543.15905A5.0587,5.0587,0,0,0,298.94,44.0251a6.756,6.756,0,0,0,1.82764-.54363,1.14353,1.14353,0,0,0,.50824-1.376,1.33749,1.33749,0,0,0-.34552-.73376,1.38966,1.38966,0,0,0-.0155-.64,1.23167,1.23167,0,0,0-.702-.97513,1.211,1.211,0,0,0-.47442-.0856Z" fill="#333"/><path d="M302.18457,40.44971a.376.376,0,0,1-.36621-.29688l-.39746-1.82324-.53711.69775a.3771.3771,0,0,1-.29785.14649h-.08008l-.14648-.07617-.42872-.3252a.37594.37594,0,0,1-.07226-.52539L300.709,37.125l.165-.06982,1.28907-.28028.02441-.00049a.38786.38786,0,0,1,.42188.28907l.60644,2.78662a.37708.37708,0,0,1-.28613.44678l-.665.144Z" fill="#4a4a4a"/><path d="M302.24258,37.00631a.13581.13581,0,0,1,.13256.10695l.60627,2.78755a.13577.13577,0,0,1-.10382.16155l-.66376.14436a.13566.13566,0,0,1-.16156-.10382l-.43305-1.99112a.13571.13571,0,0,0-.16156-.10384l-.0614.01336a.13589.13589,0,0,0-.07867.04982l-.6239.80983a.13578.13578,0,0,1-.1897.02528l-.42755-.32452a.13576.13576,0,0,1-.02612-.19016l.79644-1.05141a.13591.13591,0,0,1,.07941-.05069l1.28741-.28a.13576.13576,0,0,1,.029-.00313m0-.47973h-.0517l-.07953.01416-1.28711.27995a.6156.6156,0,0,0-.35968.22957l-.79663,1.05162a.61621.61621,0,0,0,.11853.862l.42749.3245a.61908.61908,0,0,0,.37207.12524.61127.61127,0,0,0,.48773-.24l.2226-.289.28717,1.32018a.6189.6189,0,0,0,.60132.48473h.05145l.07928-.01406.66395-.14441a.61545.61545,0,0,0,.47064-.73219l-.60627-2.78761a.61891.61891,0,0,0-.60131-.48474Z" fill="#333"/><path d="M305.05762,42.13379a.37722.37722,0,0,1-.36133-.2749c-.01953-.06836-.03223-.123-.05176-.21289a3.278,3.278,0,0,1-.13183-1.002.80916.80916,0,0,1,.16894-.42871l-.02246.00049a.38729.38729,0,0,1-.42188-.28564c-.09472-.438-.15332-.854.17188-1.15772a3.36376,3.36376,0,0,1,1.52539-.54736,8.567,8.567,0,0,1,1.457-.25977.86122.86122,0,0,1,.33692.064c.35742.1333.48925.44336.5957.9331a1.41551,1.41551,0,0,1,.00586.85254.9676.9676,0,0,1-.56055.51319l.49707-.10792.02539-.00048a.38729.38729,0,0,1,.42188.28564l.09375.437a.37292.37292,0,0,1-.28809.44678l-3.38183.73584Zm.52148-2.60742a.74665.74665,0,0,1,.03125.1372l.01563.06788,1.01367-.30713a2.3023,2.3023,0,0,0,.39062-.13868l-.06738-.10742a3.45209,3.45209,0,0,1-.59277.14795A7.91994,7.91994,0,0,0,305.5791,39.52637Z" fill="#4a4a4a"/><path d="M307.392,38.20533a.63219.63219,0,0,1,.24994.04738c.23486.08794.34277.27536.4483.76056a1.20863,1.20863,0,0,1,.0166.71539c-.0899.2257-.35186.38813-.863.52808a11.41617,11.41617,0,0,0-1.49274.45413c-.10443.0706-.12353.13706-.09521.28911l.007.03206,2.65467-.57739a.13566.13566,0,0,1,.16156.10382l.0946.4349a.13578.13578,0,0,1-.10382.16155l-3.38324.73585a.1358.1358,0,0,1-.15985-.09675c-.01923-.06926-.03119-.12412-.05237-.22139a3.111,3.111,0,0,1-.12353-.89827c.03442-.30474.20636-.46193.66845-.62958.03565-.0125.46338-.13916,1.29071-.391.53119-.15866.56739-.19052.51355-.43765-.03881-.17853-.08471-.23559-.20617-.24277a.35891.35891,0,0,0-.03858-.002,4.18155,4.18155,0,0,0-.65948.12027,3.561,3.561,0,0,0-.91718.257c-.0719.04435-.07226.13077-.027.36058l.02289.1053-.7644.16626a.13565.13565,0,0,1-.16156-.10385h0c-.20111-.92458-.03382-1.08083,1.51318-1.41733a8.87315,8.87315,0,0,1,1.4068-.25429m0-.47973a8.48945,8.48945,0,0,0-1.50879.26525c-1.4508.31559-2.19336.54737-1.87994,1.98806a.6181.6181,0,0,0,.31787.41469,1.21118,1.21118,0,0,0-.047.22691,3.27647,3.27647,0,0,0,.13147,1.054c.02368.109.03736.1703.0589.2478a.618.618,0,0,0,.5932.45125h.05158l.07922-.01406,3.38324-.73585a.6162.6162,0,0,0,.47064-.73224l-.0946-.435a.61973.61973,0,0,0-.43586-.46173.972.972,0,0,0,.04059-.08858,1.65667,1.65667,0,0,0,.00647-.99494,1.31077,1.31077,0,0,0-.74884-1.10781,1.09984,1.09984,0,0,0-.41815-.07785Z" fill="#333"/><path d="M335.20117,32.83447a1.52485,1.52485,0,0,1-1.46-1.07422l-.99316-3.1792a1.53379,1.53379,0,0,1,.98925-1.9121l.61719-.19922-.084-.26709a.39432.39432,0,0,1,.05859-.35645.40013.40013,0,0,1,.32129-.16357l2.89844.63086a.40017.40017,0,0,1,.207.66211l-1.94238,2.12207a.39982.39982,0,0,1-.67676-.14942l-.01758-.04394.48047,1.37158,4.07227-1.43848-.45118-1.3125c.01368.04541-.03222.05274-.08007.05274a.43283.43283,0,0,1-.41016-.29444l-.55567-1.63769a.43389.43389,0,0,1,.27247-.54981l.999-.33886a1.52843,1.52843,0,0,1,1.957,1.00927l.92578,3.08594a1.52988,1.52988,0,0,1-.95312,1.88135l-5.66211,2.01221a1.53485,1.53485,0,0,1-.5127.08886Z" fill="#4a4a4a"/><path d="M339.93819,24.915a1.29076,1.29076,0,0,1,1.23554.91983l.92584,3.086a1.29016,1.29016,0,0,1-.80377,1.58644l-5.66248,2.01227a1.28876,1.28876,0,0,1-1.66345-.83086l-.99347-3.1789a1.29016,1.29016,0,0,1,.83484-1.61254l.84345-.27248-.156-.49374a.16051.16051,0,0,1,.1521-.20885.16315.16315,0,0,1,.03546.00392l2.81055.62166a.16041.16041,0,0,1,.08368.26492l-1.94367,2.12314a.1603.1603,0,0,1-.27124-.06l-.08685-.275-.23395.07558a.19319.19319,0,0,0-.125.24145l.45172,1.43056a.19306.19306,0,0,0,.24915.12442l4.12823-1.40833a.19324.19324,0,0,0,.12037-.23755l-.41913-1.37194a.193.193,0,0,0-.24713-.12745.193.193,0,0,1-.245-.12086l-.55591-1.6384a.19326.19326,0,0,1,.12091-.245l1.00043-.33943a1.28879,1.28879,0,0,1,.41473-.0688m0-.47974a1.76737,1.76737,0,0,0-.56884.09424l-1.00043.33945a.67376.67376,0,0,0-.42114.85327l.556,1.63856a.67247.67247,0,0,0,.554.45163l.27143.8884-3.58826,1.22408-.14581-.4618a.64137.64137,0,0,0,.39556-.2034l1.94367-2.12312a.64014.64014,0,0,0-.33392-1.05727l-2.81049-.62164-.05121-.01134-.08789-.00392a.64027.64027,0,0,0-.6095.83321l.01233.03912-.38989.126a1.77542,1.77542,0,0,0-1.14526,2.21214l.99347,3.1789a1.7685,1.7685,0,0,0,2.282,1.1398l5.66247-2.01229a1.76859,1.76859,0,0,0,1.1026-2.17633l-.92584-3.086a1.78132,1.78132,0,0,0-1.695-1.26172Z" fill="#333"/><path d="M359.05664,106.84375a.52034.52034,0,0,1-.49609-.37207l-1.77442-6.08838a.51627.51627,0,0,1,.35254-.64111l5.7002-1.66162.1123-.01123a.52036.52036,0,0,1,.4961.37207l1.77441,6.08886a.51731.51731,0,0,1-.35156.64112l-5.70117,1.66113Z" fill="#4a4a4a"/><path d="M362.95089,98.30929a.27736.27736,0,0,1,.26611.19974l1.77442,6.088a.27731.27731,0,0,1-.1886.34377l-5.668,1.652a.27689.27689,0,0,1-.34375-.1886l-1.77442-6.088a.27724.27724,0,0,1,.1886-.34376l5.668-1.652a.27742.27742,0,0,1,.0777-.01114m.00006-.47974a.75748.75748,0,0,0-.212.03031l-5.668,1.652a.75783.75783,0,0,0-.515.93854l1.77442,6.088a.75669.75669,0,0,0,.9386.51491l5.668-1.652a.75787.75787,0,0,0,.515-.93854l-1.77442-6.088a.76086.76086,0,0,0-.72662-.54523Z" fill="#333"/><circle cx="37.53167" cy="62.87208" r="4.46083" fill="#232423" stroke="#131413" stroke-miterlimit="10" stroke-width="0.59966"/><circle cx="61.18153" cy="48.71359" r="4.46083" fill="#232423" stroke="#131413" stroke-miterlimit="10" stroke-width="0.59966"/><circle cx="76.28452" cy="72.92794" r="4.46083" fill="#232423" stroke="#131413" stroke-miterlimit="10" stroke-width="0.59966"/><circle cx="51.95739" cy="88.01252" r="4.46083" fill="#232423" stroke="#131413" stroke-miterlimit="10" stroke-width="0.59966"/><path d="M90.87991,145.41663c-.18212-3.36839.20514-12.4356.61506-20.65043.2196-4.39847.4269-8.55332.53524-11.78409.2969-8.83616,7.11332-44.5839,8.777-47.91129l1.60923.37147c-1.42009,2.83959-8.2693,38.10166-8.58845,47.60072-.10892,3.24483-.31622,7.40671-.53641,11.81278-.407,8.16858-.76767,17.584-.59023,20.85868Z" fill="#323333"/><path d="M92.07922,145.41663c-.18212-3.36839.20514-12.4356.61506-20.65043.2196-4.39847.42691-8.55332.53524-11.78409.29691-8.83616,7.11332-44.5839,8.777-47.91129l1.60924.37147c-1.42009,2.83959-8.2693,38.10166-8.58845,47.60072-.10893,3.24483-.31623,7.40671-.53642,11.81278-.407,8.16858-.76767,17.584-.59023,20.85868Z" fill="#4b4d4b"/><path d="M91.47957,145.41663c-.18213-3.36839.20513-12.4356.61506-20.65043.2196-4.39847.4269-8.55332.53524-11.78409.2969-8.83616,7.11331-44.5839,8.777-47.91129l1.60924.37147c-1.42009,2.83959-8.2693,38.10166-8.58845,47.60072-.10892,3.24483-.31623,7.40671-.53641,11.81278-.407,8.16858-.76767,17.584-.59024,20.85868Z" fill="#444544"/><path d="M92.41849,160.32368c-.00644-.08959-.66662-9.86208-.93892-14.907l1.82145.29784c.27172,5.03267.93186,14.811.93772,14.90115Z" fill="#1e1f1f"/><path d="M107.54166,62.992c-.0287.00586-3.25478-.0918-4.52554,2.4503l-1.60924-.37147C103.08815,61.70887,107.54166,62.992,107.54166,62.992Z" fill="#393b3b"/><path d="M297.10462,145.41663c.18212-3.36839-.20514-12.4356-.61506-20.65043-.2196-4.39847-.42691-8.55332-.53524-11.78409-.2969-8.83616-7.11332-44.5839-8.777-47.91129l-1.60924.37147c1.42009,2.83959,8.2693,38.10166,8.58846,47.60072.10892,3.24483.31622,7.40671.53641,11.81278.407,8.16858.76767,17.584.59023,20.85868Z" fill="#323333"/><path d="M295.9053,145.41663c.18213-3.36839-.20514-12.4356-.61506-20.65043-.2196-4.39847-.4269-8.55332-.53524-11.78409-.2969-8.83616-7.11332-44.5839-8.777-47.91129l-1.60924.37147c1.42009,2.83959,8.2693,38.10166,8.58845,47.60072.10892,3.24483.31623,7.40671.53641,11.81278.407,8.16858.76767,17.584.59024,20.85868Z" fill="#4b4d4b"/><path d="M296.505,145.41663c.18212-3.36839-.20514-12.4356-.61506-20.65043-.2196-4.39847-.4269-8.55332-.53524-11.78409-.2969-8.83616-7.11332-44.5839-8.777-47.91129l-1.60923.37147c1.42008,2.83959,8.26929,38.10166,8.58845,47.60072.10892,3.24483.31622,7.40671.53641,11.81278.407,8.16858.76767,17.584.59023,20.85868Z" fill="#444544"/><path d="M295.566,160.32368c.00644-.08959.66661-9.86208.93892-14.907l-1.82146.29784c-.27172,5.03267-.93185,14.811-.93771,14.90115Z" fill="#1e1f1f"/><path d="M280.44287,62.992c.02869.00586,3.25478-.0918,4.52554,2.4503l1.60923-.37147C284.89638,61.70887,280.44287,62.992,280.44287,62.992Z" fill="#393b3b"/><path d="M93.31868,120.4973A572.05272,572.05272,0,0,0,193.99226,129.434a572.053,572.053,0,0,0,100.67358-8.93674l-.18666-1.1651a572.2379,572.2379,0,0,1-100.48692,8.90252A572.23757,572.23757,0,0,1,93.50534,119.3322Z" fill="#585959"/><path d="M293.68591,110.16437c-15.72182,2.56791-58.03514,8.77566-99.69365,8.77566s-83.97178-6.20775-99.69364-8.77566v1.19932c15.72186,2.5679,58.03514,8.77566,99.69364,8.77566s83.97183-6.20776,99.69365-8.77566Z" fill="#2f3030"/><path d="M293.68591,111.36369c-15.72182,2.5679-58.03514,8.77566-99.69365,8.77566s-83.97178-6.20776-99.69364-8.77566c-.31725,2.71511-.57814,5.38418-.79328,7.96851a572.23757,572.23757,0,0,0,100.48692,8.90252,572.2379,572.2379,0,0,0,100.48692-8.90252C294.26405,116.74787,294.00316,114.0788,293.68591,111.36369Z" fill="#404040"/><path d="M263.17637,115.92286h-.00007a3.41449,3.41449,0,0,1,3.43587,2.66153,4.00708,4.00708,0,0,1,.00462,1.35666,3.38448,3.38448,0,0,1-3.024,2.6717c-13.20074,1.56462-26.65547,2.70051-39.99038,3.37607-.0661.00337-.13206.005-.19728.005a3.60784,3.60784,0,0,1-3.00919-1.58512,3.099,3.099,0,0,1-.31483-2.94232l.03835-.09158a3.459,3.459,0,0,1,3.02318-1.98559c12.61147-.71279,25.93539-1.87071,39.60161-3.44159a3.79813,3.79813,0,0,1,.4321-.02478m-.00022-1.19931a5.58516,5.58516,0,0,0-.63728.03652c-11.63417,1.3373-25.20845,2.62508-39.49774,3.4327a5.25111,5.25111,0,0,0-4.57663,3.07646q-.02416.05666-.04729.113a5.1848,5.1848,0,0,0,4.98794,7.01022c.09531,0,.19172-.00242.28834-.00732,15.08374-.76418,28.66526-2.02966,40.11108-3.38629a5.18216,5.18216,0,0,0,4.58689-4.16352,5.82889,5.82889,0,0,0-.0063-1.956,5.19515,5.19515,0,0,0-5.209-4.15584Z" fill="#1e1f1f"/><path d="M92.84212,110.16437h1.4565l-.97994,10.33293h-1.013A60.32441,60.32441,0,0,1,92.84212,110.16437Z" fill="#282929"/><path d="M295.14241,110.16437h-1.4565l.97993,10.33293h1.013A60.32569,60.32569,0,0,0,295.14241,110.16437Z" fill="#282929"/><path d="M61.97816,37.397l2.3766-2.59612a.35076.35076,0,0,1,.13567-.08553l-.11935-.37786a.36424.36424,0,0,0-.616-.13627l-2.3766,2.59613a.36424.36424,0,0,0,.19.60159l.367.08118A.33438.33438,0,0,1,61.97816,37.397Z" fill="#636363"/><path d="M70.70544,17.226l4.722-2.72624a.55394.55394,0,0,1,.24673-.07119v-.03982a.56425.56425,0,0,0-.84638-.48865l-4.722,2.72624a.56427.56427,0,0,0,0,.97734l.32724.18893A.557.557,0,0,1,70.70544,17.226Z" fill="#636363"/><path d="M248.67178,131.87912a.56429.56429,0,0,1,.80974-.54735l4.61821,2.24652a.55795.55795,0,0,0-.31476-.46106l-4.9031-2.38512a.56429.56429,0,0,0-.80974.54736l.38605,5.43882a.56489.56489,0,0,0,.59424.52422Z" fill="#636363"/><path d="M47.60293,98.37854a.36427.36427,0,0,1,.426-.46537l3.06962.679a.35579.35579,0,0,0-.23271-.51848l-3.43657-.76015a.36427.36427,0,0,0-.426.46537l1.06,3.35624a.3587.3587,0,0,0,.4803.2218Z" fill="#636363"/><path d="M86.93044,73.98511a.36421.36421,0,0,1,.60156-.19L89.60408,75.692a.34577.34577,0,0,0-.07561-.11994l-2.59613-2.3766a.36421.36421,0,0,0-.60156.19l-.76015,3.43661a.36424.36424,0,0,0,.46534.426l.18571-.05867Z" fill="#636363"/><path d="M23.71568,60.46266l3.17052-1.00134.05139-.23234a.36423.36423,0,0,0-.46533-.426L23.116,59.863a.36422.36422,0,0,0-.13626.616l.524.47971A.35684.35684,0,0,1,23.71568,60.46266Z" fill="#636363"/><path d="M77.04016,17.226l4.722-2.72624a.55388.55388,0,0,1,.24676-.07119v-.03982a.56428.56428,0,0,0-.84642-.48865l-4.722,2.72624a.56427.56427,0,0,0,0,.97734l.32724.18893A.55705.55705,0,0,1,77.04016,17.226Z" fill="#636363"/><path d="M317.36321,14.38871a.56426.56426,0,0,1,.84642-.48865l4.39473,2.53731a.55251.55251,0,0,0-.27238-.41073l-4.722-2.72623a.56425.56425,0,0,0-.84641.48865V16.7798a.56127.56127,0,0,1,0,.67033v1.79144a.56192.56192,0,0,0,.59965.55983Z" fill="#636363"/><path d="M311.02847,14.38871a.56426.56426,0,0,1,.84641-.48865l4.39473,2.53731a.55251.55251,0,0,0-.27238-.41073l-4.722-2.72623a.56425.56425,0,0,0-.84641.48865v5.45251a.56193.56193,0,0,0,.59966.55983Z" fill="#636363"/><path d="M238.2,138.31614l-.20642-5.86982a.74377.74377,0,0,1,.71721-.76956l.76056-.02675a.70745.70745,0,0,1,.14757.02444.73526.73526,0,0,0-.74723-.6241l-.76055.02675a.74378.74378,0,0,0-.71722.76956l.20643,5.86983a.7334.7334,0,0,0,.62191.69276A.68882.68882,0,0,1,238.2,138.31614Z" fill="#636363"/><path d="M242.09546,138.17907l-.20657-5.86982a.74393.74393,0,0,1,.71729-.76956l.76048-.02675a.70734.70734,0,0,1,.14772.02445.73545.73545,0,0,0-.74738-.62411l-.76048.02676a.74392.74392,0,0,0-.71729.76955l.20658,5.86983a.73334.73334,0,0,0,.62191.6928A.69083.69083,0,0,1,242.09546,138.17907Z" fill="#636363"/><path d="M320.93122,116.25912a.361.361,0,0,1,.276-.42961l4.94908-1.07792-.075-.3444a.361.361,0,0,0-.42961-.27593l-5.04409,1.09859a.361.361,0,0,0-.276.42961l.22209,1.01932a.361.361,0,0,0,.42954.276l.09509-.02071Z" fill="#636363"/><path d="M323.786,112.60737l.09692-.22066a.17846.17846,0,0,0-.191-.24778Z" fill="#636363"/><path d="M322.07366,113.21816l.33621-.0732a.11212.11212,0,0,0,.08564-.13341l-.50852-2.5324a.1121.1121,0,0,1,.08571-.13338l.74723-.16276-.11843-.58973a.11211.11211,0,0,0-.13338-.08569l-1.09507.23853a.11208.11208,0,0,0-.08572.13337l.50852,2.5324a.11212.11212,0,0,1-.08564.13341l-.33621.0732a.18025.18025,0,0,0-.08155.31066l.54564.48624A.17609.17609,0,0,1,322.07366,113.21816Z" fill="#636363"/><path d="M299.99284,41.59267c-.05065-.23347-.1188-.23779-.90607-.06657a2.35564,2.35564,0,0,0-.85059.25206l.05841.26865a.13579.13579,0,0,0,.16148.10387l.4029-.08759a3.55343,3.55343,0,0,1,.66041-.11492c.00893.00059.01289.0078.02108.00919C299.94233,41.86516,300.03647,41.79277,299.99284,41.59267Z" fill="#636363"/><path d="M297.6038,41.22429c.04663-.111.24793-.15954.84525-.28951.17473-.04373.3709-.08886.59424-.13747a4.84008,4.84008,0,0,1,1.20854-.17593.70116.70116,0,0,0-.39353-.55406c-.22121-.09091-.53129-.06181-1.41467.13034-1.68434.36636-1.91463.54109-1.74048,1.34209l.011.0504a.13583.13583,0,0,0,.16155.10383l.39836-.08663A.59251.59251,0,0,1,297.6038,41.22429Z" fill="#636363"/><path d="M297.55688,43.34725a.13634.13634,0,0,1,.10336-.1639l.74972-.163.01647.05391c.0538.24716.09889.29968.23395.30386.05687-.00279.45347-.07467.76926-.14337.0926-.02013.26528-.062.41534-.1001a3.05969,3.05969,0,0,0,.40406-.145.21123.21123,0,0,0,.05827-.23823c-.02986-.13733-.08594-.19695-.18827-.20357a3.55225,3.55225,0,0,0-.66041.11492l-.4029.08759a.1358.1358,0,0,1-.16148-.10388l-.00541-.0247-.05886.01329c-.31578.06869-.71238.14058-.76926.14336-.13506-.00417-.18015-.0567-.23395-.30386l-.01647-.05391-.74972.16306a.13633.13633,0,0,0-.10336.16389c.10907.46881.19.61646.36718.723a.699.699,0,0,0,.28738.08356C297.59377,43.49032,297.57591,43.42923,297.55688,43.34725Z" fill="#636363"/><path d="M302.04684,38.5785a.13582.13582,0,0,0-.16155-.10383l-.06141.01336a.13539.13539,0,0,0-.07862.04981l-.13762.17861.2726,1.25352a.13583.13583,0,0,0,.16155.10383l.31535-.06859Z" fill="#636363"/><path d="M301.1456,37.93818a.13284.13284,0,0,1,.05637-.03568l.07246-.09564a.13589.13589,0,0,1,.07935-.05069l.9721-.2114-.12283-.56442a.1357.1357,0,0,0-.16148-.10383l-1.28744.28a.13583.13583,0,0,0-.07935.05069l-.79657,1.05142a.1358.1358,0,0,0,.02621.19017l.42756.32453a.1358.1358,0,0,0,.18966-.02529Z" fill="#636363"/><path d="M305.18092,39.29257a.115.115,0,0,1,.04919-.07682,3.55876,3.55876,0,0,1,.91713-.257,3.7335,3.7335,0,0,1,.66517-.1184,4.84437,4.84437,0,0,1,1.052-.16561c-.09165-.32743-.19837-.48152-.39455-.5549-.23014-.089-.38416-.06983-1.65667.2069-1.547.3365-1.71428.49275-1.5132,1.41734a.13588.13588,0,0,0,.16163.10388l.37522-.08162A.56676.56676,0,0,1,305.18092,39.29257Z" fill="#636363"/><path d="M306.17871,41.17759c-.10445.0706-.12356.13707-.09523.2891l.007.03207,2.21431-.48159a.13422.13422,0,0,0,.09685-.15672l-.08923-.41011a2.01029,2.01029,0,0,1-.641.27311A11.41348,11.41348,0,0,0,306.17871,41.17759Z" fill="#636363"/><path d="M305.17844,41.14105c-.04714-.27333-.30715-.74931.31491-.46285a.22177.22177,0,0,1,.0857-.10027,11.41294,11.41294,0,0,1,1.49271-.45413,2.352,2.352,0,0,0,.56942-.22217.26855.26855,0,0,0,.01-.21875c-.0388-.17854-.0847-.2356-.20621-.24277a2.88689,2.88689,0,0,0-.698.11825,3.55945,3.55945,0,0,0-.91712.257,3.52162,3.52162,0,0,1-.9732.28863.57052.57052,0,0,0-.2778.43738,3.11161,3.11161,0,0,0,.12356.89827c.02116.09729.03309.15215.05234.2214a.13617.13617,0,0,0,.15987.09677l.31593-.0687C305.17865,41.413,305.19762,41.25232,305.17844,41.14105Z" fill="#636363"/><path d="M339.57689,28.9315l-3.94726,1.34659.1696.537a.19314.19314,0,0,0,.249.12444l4.12828-1.40834a.19319.19319,0,0,0,.12034-.23754l-.41907-1.372a.19323.19323,0,0,0-.24712-.12744.19324.19324,0,0,1-.24508-.12085l-.0019-.00582.31352,1.02642A.19318.19318,0,0,1,339.57689,28.9315Z" fill="#636363"/><path d="M334.39745,32.15535l-.9934-3.17887a1.29022,1.29022,0,0,1,.83485-1.61257l.84341-.27245-.15592-.49377a.16037.16037,0,0,1,.18754-.20492l2.12662.47038.16792-.18344a.16042.16042,0,0,0-.08367-.26495l-2.81052-.62165a.16037.16037,0,0,0-.18754.20492l.15591.49378-.84341.27245a1.29022,1.29022,0,0,0-.83485,1.61256l.9934,3.17888a1.2843,1.2843,0,0,0,.67608.77746A1.2903,1.2903,0,0,1,334.39745,32.15535Z" fill="#636363"/><path d="M339.031,27.19457a.1913.1913,0,0,1,.21565.06924l-.417-1.22885a.19323.19323,0,0,1,.12093-.245l1.00043-.33943a1.28218,1.28218,0,0,1,.97158.06145,1.28684,1.28684,0,0,0-1.57124-.66111l-1.00043.33943a.19323.19323,0,0,0-.12093.245l.55589,1.63841A.19324.19324,0,0,0,339.031,27.19457Z" fill="#636363"/><path d="M357.44429,100.783a.27722.27722,0,0,1,.18856-.34378l5.54259-1.61546-.13045-.44762a.27727.27727,0,0,0-.34375-.1886l-5.668,1.652a.27724.27724,0,0,0-.18856.34379l1.77438,6.088a.27724.27724,0,0,0,.34374.1886l.12547-.03656Z" fill="#636363"/><path d="M196.63827,99.57605a1.93128,1.93128,0,0,0-2.02761,1.58248q-.02543.45749-.05106.915l.00967.00047-.07364,1.3227q3.76176-.13708,7.5187-.33812.0393-.709.07876-1.41818-2.707.14532-5.417.25745c-.68782-.15266.10988-.76345.46673-.82076q1.62691-.06924,3.2531-.15006a2.01463,2.01463,0,0,0,1.84106-1.88316l.051-.91679a1.55516,1.55516,0,0,0-1.64152-1.70184q-1.91382.09646-3.829.17638a2,2,0,0,0-2.04558,1.64583q-.02548.45748-.051.915.94725-.035,1.894-.074l.01039-.18582a.82925.82925,0,0,1,.79225-.80162q1.21713-.05232,2.43391-.11156a.647.647,0,0,1,.7069.68589.83236.83236,0,0,1-.7872.75839q-1.56663.07632-3.13407.14157Z" fill="#da2b27"/><path d="M192.34277,100.12224c.73207-.0788,1.2791-.32864,1.32478-1.146q.02557-.45786.051-.91577c.0553-.98846-.70628-1.31559-1.66879-1.28584q-1.70219.05261-3.40521.09227a1.95817,1.95817,0,0,0-2.0481,1.60814q-.02553.457-.05106.91413.94884-.01746,1.89739-.03924l.01036-.18563a.8104.8104,0,0,1,.79243-.787q1.00374-.02475,2.00733-.05391c.417-.01215.7219.05732.7207.4754a.81276.81276,0,0,1-.7887.74317q-.8156.02421-1.63164.04531-.03458.62136-.06932,1.24272.92353-.02322,1.847-.05033a.662.662,0,0,1,.70781.69936c-.04553.41937-.35875.50721-.77578.51921q-1.11117.03234-2.2228.05929a.67065.67065,0,0,1-.7066-.75078l.01039-.18636q-.94861.02134-1.89742.03883-.02559.45743-.05113.91486c-.05494.98776.90977,1.54789,1.87327,1.52608q1.81087-.04058,3.62089-.09593a1.69253,1.69253,0,0,0,1.83111-1.62388l.03846-.69134c.05018-.8963-.58059-1.06444-1.41533-1.0658Z" fill="#da2b27"/><g id="g6391"><path d="M115.30646,104.273a.31514.31514,0,0,0-.0915-.27387.68741.68741,0,0,0-.275-.12342q-.58958-.18276-.684-.5609a3.08908,3.08908,0,0,1-.05585-.94168l.03624-7.82523a2.66137,2.66137,0,0,0-.03759-.71356q-.06319-.29394-.52346-.372a.71743.71743,0,0,0-.62528.15786,4.6212,4.6212,0,0,0-.42306.50461q-2.66529,3.13705-5.32832,6.24227-.44942.52463-.89876,1.048a4.90536,4.90536,0,0,1-.57506.61664,1.10409,1.10409,0,0,1-.766.27838,1.87182,1.87182,0,0,0-.489.021q-.2302.04206-.26213.34086a.26728.26728,0,0,0,.112.254.66841.66841,0,0,0,.27275.09238q.42838.06528.86731.09589.43932.03075.879.096.39287.06829.78379.16535.39128.09729.78383.16394a.63732.63732,0,0,0,.33786-.02709.27384.27384,0,0,0,.17557-.25287.40264.40264,0,0,0-.32882-.39005c-.213-.0654-.42665-.14211-.63845-.23025a.51778.51778,0,0,1-.32121-.5255,3.06278,3.06278,0,0,1,.61017-1.1013q.52874-.69361.76622-.9717,1.54159.24183,3.08393.47284-.00219.49509-.00549.9956-.00285.501-.02869.99219-.0638.68115-.40107.74932a2.15,2.15,0,0,1-.66824.03176q-.33144-.03645-.37764.3335a.27677.27677,0,0,0,.08776.237.458.458,0,0,0,.23571.09487q.63717.09168,1.28269.14662.645.05517,1.28294.14289.42807.06654.85454.15584t.85458.15416a.69079.69079,0,0,0,.33515-.0131q.14346-.047.16247-.2614Zm-3.58715-4.52407q-1.28785-.19287-2.57522-.3932,1.32732-1.61383,2.65508-3.23545Q111.75921,97.93458,111.71931,99.74895Z" fill="#da2b27"/><path d="M138.22695,96.95939a.271.271,0,0,0-.079-.21894.35055.35055,0,0,0-.21451-.09q-.20814-.01763-.411-.01779-.20268.00039-.4123.00531-.515.0084-1.042-.02877-.5271-.03755-1.05024-.09091-.38254-.04144-.76374-.1061-.38139-.06507-.76366-.1075a.53748.53748,0,0,0-.33244.07046.34949.34949,0,0,0-.16968.28683q.0453.35976.507.38467a.46775.46775,0,0,1,.5031.45432,1.23212,1.23212,0,0,1-.0426.239c-.023.08063-.04916.15932-.07741.23549q-1.16619,3.31268-2.332,6.61914a5.86047,5.86047,0,0,1-.29592.8025.762.762,0,0,1-.65818.3989,5.40046,5.40046,0,0,0-.53765.054.37025.37025,0,0,0-.35437.32047.2737.2737,0,0,0,.11072.2435.52183.52183,0,0,0,.259.0948q.49949.04627,1.01032.04538.51062-.001,1.022.04429.5456.06165,1.09559.15141.54982.09009,1.09566.14867a2.67491,2.67491,0,0,0,.5172.03111.32189.32189,0,0,0,.05446-.64112,3.18636,3.18636,0,0,1-.55332-.14494q-.27538-.09843-.271-.55683a1.704,1.704,0,0,1,.06983-.3775c.03733-.1262.08059-.25034.12781-.37182q1.167-3.32916,2.33425-6.66445a1.66775,1.66775,0,0,1,.2898-.59084.90947.90947,0,0,1,.59548-.22169,2.02806,2.02806,0,0,0,.47672-.08015.369.369,0,0,0,.292-.32088Z" fill="#da2b27"/><path d="M148.40023,97.83553q-.01856-.25479-.48814-.39331a5.68355,5.68355,0,0,0-.993-.19537q-.52359-.05721-.70342-.06518a11.89942,11.89942,0,0,0-4.10347.48407,9.57571,9.57571,0,0,0-3.74463,2.00243,5.16628,5.16628,0,0,0-1.77145,3.57555,3.68129,3.68129,0,0,0,.66986,2.38055,4.883,4.883,0,0,0,1.87144,1.53113,6.80035,6.80035,0,0,0,2.394.64947,12.64954,12.64954,0,0,0,3.037-.121,2.31681,2.31681,0,0,0,.48982-.11035.5963.5963,0,0,0,.32831-.34639q.23766-.5726.43243-1.16289.19473-.59063.39832-1.17754.32715-.83333.71934-.95373a1.78815,1.78815,0,0,1,.68808-.09223q.29547.02887.33346-.3544a.26249.26249,0,0,0-.11082-.239.50278.50278,0,0,0-.25931-.08447q-.58008-.03321-1.1655-.02683-.58578.00671-1.17706-.03071-.55686-.04687-1.11133-.13081-.55472-.08365-1.11133-.13351a.83177.83177,0,0,0-.36161.03989.29747.29747,0,0,0-.20009.27622.312.312,0,0,0,.29229.31927,3.2567,3.2567,0,0,1,.56716.15928q.282.10689.28.5374a5.24415,5.24415,0,0,1-.33668,1.18588q-.28653.74862-.46563,1.199a1.06863,1.06863,0,0,1-.27044.49033.72012.72012,0,0,1-.54.10351,2.64249,2.64249,0,0,1-2.00554-1.0602,3.46057,3.46057,0,0,1-.57488-2.24868,6.035,6.035,0,0,1,.63652-2.33407A6.39181,6.39181,0,0,1,141.496,99.5949a7.35528,7.35528,0,0,1,2.14492-1.28371,5.79527,5.79527,0,0,1,2.45869-.44741q.56817.035.68571.27253a1.50908,1.50908,0,0,1,.06353.76952c-.00677.09373-.017.18684-.03125.28025s-.02482.18662-.03119.28028a.98409.98409,0,0,0,.05161.42925.3585.3585,0,0,0,.331.22527.48275.48275,0,0,0,.43587-.25818,2.46251,2.46251,0,0,0,.22791-.49633q.07059-.17525.30184-.77585a7.72518,7.72518,0,0,0,.26575-.755Z" fill="#da2b27"/><path d="M156.72,108.20161a.28937.28937,0,0,0-.09179-.26531.62625.62625,0,0,0-.27571-.09783q-.59129-.128-.68585-.49718a3.02064,3.02064,0,0,1-.05607-.93652q.01827-3.91434.03634-7.82864a2.61842,2.61842,0,0,0-.03766-.71q-.06324-.28812-.525-.32318a.77558.77558,0,0,0-.62711.216,5.3282,5.3282,0,0,0-.42441.544q-2.6736,3.38537-5.34725,6.73872-.45123.56634-.90238,1.13178a5.651,5.651,0,0,1-.57751.67022,1.2223,1.2223,0,0,1-.76916.34983,1.93149,1.93149,0,0,0-.49121.06665.37235.37235,0,0,0-.2633.36527.24289.24289,0,0,0,.11258.24361.62875.62875,0,0,0,.27395.06694q.43016.02536.871.015.44106-.00977.88268.01409.39429.03174.78694.09231t.78694.09091a.66347.66347,0,0,0,.33914-.05863.308.308,0,0,0,.17623-.26923.35939.35939,0,0,0-.33006-.35938,6.45169,6.45169,0,0,1-.641-.17074.46487.46487,0,0,1-.32245-.4956,3.41536,3.41536,0,0,1,.61265-1.15818q.53084-.743.76912-1.0431,1.54737.0981,3.0948.18556-.00264.495-.00553.99615-.00258.50085-.02876.99479-.06451.68724-.40239.78672a2.24206,2.24206,0,0,1-.67055.094q-.332-.00565-.379.36863a.25283.25283,0,0,0,.08806.2289.42372.42372,0,0,0,.23655.07287q.63975.03212,1.287.02712t1.287.02339q.42927.02679.85707.07627t.857.0746a.71066.71066,0,0,0,.33613-.04429.29546.29546,0,0,0,.16291-.27652Zm-3.59794-4.19006q-1.292-.0729-2.58416-.15331,1.33221-1.73737,2.66431-3.48277Q153.162,102.1935,153.122,104.01155Z" fill="#da2b27"/><path d="M131.66948,96.38474a.26884.26884,0,0,0-.08059-.22612.39286.39286,0,0,0-.22828-.08872q-.488-.04859-.983-.08107t-.98293-.08319q-.25766-.04151-.77311-.11489a1.12735,1.12735,0,0,0-.70052.04491.67853.67853,0,0,0-.068.10219.65793.65793,0,0,1-.068.10215q-2.30773,3.00232-4.61429,5.98094.09448-3.19738.189-6.39478a1.23969,1.23969,0,0,0,.0041-.31531c-.01207-.09015-.08747-.14563-.22582-.16719q-.534-.06231-1.07469-.11474c-.36048-.03517-.71747-.0821-1.07319-.14073q-.30063-.05335-.59823-.11467c-.198-.04117-.39415-.07521-.58732-.1023a1.01452,1.01452,0,0,0-.38141.00465.26385.26385,0,0,0-.20917.26261q.05253.37953.56609.44356.51377.06363.56621.44279a1.6701,1.6701,0,0,1-.13623.51968q-.11326.25991-.21594.48576-.65287,1.50471-1.30319,3.011t-1.337,2.99075a2.91947,2.91947,0,0,1-.49458.87555,1.39719,1.39719,0,0,1-.9382.25975.871.871,0,0,0-.34613.0691.30856.30856,0,0,0-.17144.28175.27448.27448,0,0,0,.12111.26619.72285.72285,0,0,0,.29434.09051q.40665.054.81933.09073.41324.03651.81944.08923.38112.05721.75228.14146.37047.08455.74083.13861a.614.614,0,0,0,.333-.044.299.299,0,0,0,.18213-.26425.38008.38008,0,0,0-.34053-.3985,3.9346,3.9346,0,0,1-.66291-.1979q-.32973-.13044-.32647-.64848a8.52177,8.52177,0,0,1,.639-2.11853q.56421-1.38672,1.17534-2.68.61082-1.29339.82515-1.74144-.12391,3.71872-.24778,7.43745a1.50271,1.50271,0,0,0,.04084.55259q.06648.21027.44217.26305a.74649.74649,0,0,0,.61539-.19,3.66856,3.66856,0,0,0,.435-.50783q2.67782-3.35737,5.35749-6.747-.99379,3.00936-1.98746,6.01417a4.87964,4.87964,0,0,1-.26751.78028.69451.69451,0,0,1-.60965.43295,4.20579,4.20579,0,0,0-.56269.01412.36322.36322,0,0,0-.35967.34438.29555.29555,0,0,0,.10406.258.50986.50986,0,0,0,.26461.101q.53467.05732,1.07729.0672.54324.01022,1.0774.06463.55554.073,1.10914.19117.55344.11775,1.10924.18838a.78987.78987,0,0,0,.373-.029.29755.29755,0,0,0,.18908-.285.33816.33816,0,0,0-.26217-.3563,4.17445,4.17445,0,0,1-.51394-.18245.48188.48188,0,0,1-.254-.50234,2.91537,2.91537,0,0,1,.09806-.56763q.07883-.285.167-.54805.96784-3.10027,1.93575-6.20468a2.18309,2.18309,0,0,1,.25152-.63392.68167.68167,0,0,1,.59047-.23307,1.49474,1.49474,0,0,0,.4635-.04908.34487.34487,0,0,0,.2577-.33Z" fill="#da2b27"/></g><path d="M160.38088,100.7395q-.14586,2.59915-.29174,5.1983a2.48713,2.48713,0,0,0,2.36713,2.681q2.75424.08229,5.50771.13178a2.6875,2.6875,0,0,0,2.65773-2.56412q.03679-.66486.07378-1.32964-1.24584-.01508-2.492-.03677l-.02806.50026a1.11427,1.11427,0,0,1-1.14231,1.09788q-1.71238-.03413-3.425-.08114a1.03172,1.03172,0,0,1-1.01625-1.1483q.093-1.65535.18573-3.31089a1.10307,1.10307,0,0,1,1.14163-1.08742q1.60076.04277,3.20125.0745a1.0214,1.0214,0,0,1,1.01709,1.1383l-.01513.26956q1.24612.02194,2.49205.03719.03765-.66543.07541-1.33086a2.43825,2.43825,0,0,0-2.36614-2.63881q-2.64214-.04543-5.285-.12113a2.64161,2.64161,0,0,0-2.65882,2.52049Z" fill="#e3e7e6"/><path d="M174.58687,106.51711q.162-2.89327.32389-5.7866,2.20407.0065,4.40748-.00815a1.31773,1.31773,0,0,1,1.31246,1.43758q-.08092,1.44767-.16185,2.89533a1.53493,1.53493,0,0,1-1.47443,1.458q-2.20333.013-4.40763.005Zm-2.5846,2.29794q4.0086.0369,8.01409.00443a3.05633,3.05633,0,0,0,2.89128-2.86829q.13262-2.3747.26531-4.74934a2.59906,2.59906,0,0,0-2.574-2.80434q-4.00524.03769-8.01364.00572-.29145,5.20605-.58306,10.41182Z" fill="#e3e7e6"/></svg>