<?xml version="1.0" encoding="utf-8"?>
<!-- Generator: Adobe Illustrator 22.0.0, SVG Export Plug-In . SVG Version: 6.00 Build 0)  -->
<svg version="1.1" id="Capa_1" xmlns="http://www.w3.org/2000/svg" xmlns:xlink="http://www.w3.org/1999/xlink" x="0px" y="0px"
	 viewBox="0 0 85 85" style="enable-background:new 0 0 85 85;" xml:space="preserve">
<g>
	<circle style="fill:#9D9D9D;" cx="42.505" cy="42.495" r="42.495"/>
	<path style="fill:#4D4D4D;" d="M74.844,17.984C70.567,10.546,63.966,4.79,55.637,2.081C47.305-0.625,38.582,0.154,30.75,3.656
		l6.274,2.037c6.11-4.06,12.654-5.548,18.613-3.612C61.597,4.02,66.015,9.067,68.57,15.943L74.844,17.984z M59.241,12.914
		c0.009-6.048-1.169-10.042-3.604-10.834c-2.435-0.789-5.738,1.748-9.285,6.646L59.241,12.914z M52.883,45.864
		c2.032-6.256,3.595-12.304,4.658-17.803l-18.715-6.083c-2.373,5.078-4.662,10.887-6.699,17.148L52.883,45.864z M27.469,56.929
		c-1.12,5.778-1.696,10.958-1.7,15.147l12.889,4.188c2.457-3.392,5.039-7.921,7.527-13.252L27.469,56.929z M7.111,66.014
		c5.118,7.713,12.778,13.814,22.262,16.895c9.484,3.082,19.269,2.648,27.942-0.584l-3.055-0.991
		c-7.832,3.502-16.555,4.281-24.887,1.576c-8.328-2.709-14.93-8.465-19.207-15.904L7.111,66.014z M16.44,69.047
		c2.555,6.876,6.973,11.923,12.933,13.862c5.959,1.935,12.503,0.448,18.613-3.612l-9.329-3.033
		c-3.546,4.897-6.849,7.434-9.285,6.646c-2.435-0.792-3.613-4.786-3.604-10.834L16.44,69.047z M4.809,49.57
		c0.54,6.314,2.39,12.277,5.357,17.435l6.274,2.042c-1.771-4.769-2.648-10.418-2.519-16.52L4.809,49.57z M54.26,81.334
		c5.433-2.426,10.436-6.168,14.584-10.958l-9.112-2.962c-3.484,5.012-7.509,9.064-11.746,11.884L54.26,81.334z M2.09,29.363
		c-2.032,6.261-2.537,12.65-1.713,18.764l4.432,1.443c-0.514-6.017,0.164-12.349,2.196-18.609L2.09,29.363z M73.277,71.814
		c4.259-4.463,7.607-9.927,9.643-16.188l-4.915-1.598c-2.037,6.261-5.211,11.782-9.16,16.347L73.277,71.814z M17.109,34.241
		c-2.032,6.261-3.064,12.481-3.188,18.286l13.548,4.401c1.063-5.499,2.626-11.547,4.658-17.803L17.109,34.241z M59.733,67.413
		c3.311-4.768,6.132-10.409,8.169-16.665l-15.018-4.884c-2.037,6.261-4.326,12.07-6.699,17.148L59.733,67.413z M78.005,54.029
		c2.032-6.261,2.71-12.592,2.196-18.609l-9.112-2.958c-0.124,5.805-1.156,12.025-3.188,18.286L78.005,54.029z M16.166,14.614
		c-3.949,4.565-7.124,10.086-9.16,16.347l10.103,3.28c2.037-6.256,4.857-11.896,8.169-16.665L16.166,14.614z M71.089,32.462
		c0.128-6.101-0.748-11.751-2.519-16.52l-9.329-3.028c-0.004,4.193-0.58,9.369-1.7,15.147L71.089,32.462z M37.024,5.693
		c-4.237,2.816-8.262,6.872-11.746,11.884l13.548,4.401c2.488-5.331,5.065-9.86,7.527-13.252L37.024,5.693z M84.633,36.862
		c-0.863-6.424-3.188-12.543-6.734-17.887l-3.055-0.991c2.966,5.158,4.817,11.122,5.357,17.435L84.633,36.862z M27.695,2.665
		c-6.013,2.24-11.489,5.822-15.961,10.511l4.432,1.439c4.149-4.79,9.152-8.532,14.584-10.958L27.695,2.665z"/>
</g>
</svg>
