<svg xmlns="http://www.w3.org/2000/svg" viewBox="0 0 1000 114"><title>logo</title><g id="Layer_2" data-name="Layer 2"><rect x="279.03" y="72.97" width="21.11" height="16.22" fill="#fff"/></g><g id="Layer_1" data-name="Layer 1"><path d="M490.26,14.14v6.5h-13V40.12h13v6.5H470.77v-6.5h-6.48V20.64h6.48v-6.5h19.49m0-7H470.77a7,7,0,0,0-7,6.52,7,7,0,0,0-6.5,7V40.12a7,7,0,0,0,6.5,7,7,7,0,0,0,7,6.52h19.49a7,7,0,0,0,7-7v-6.5a7,7,0,0,0-7-7h-6V27.64h6a7,7,0,0,0,7-7v-6.5a7,7,0,0,0-7-7Z" fill="#fff"/><path d="M574.67,20.64v6.5h-6.49v-6.5h6.49m0-7h-6.49a7,7,0,0,0-7,7v6.5a7,7,0,0,0,7,7h6.49a7,7,0,0,0,7-7v-6.5a7,7,0,0,0-7-7Z" fill="#fff"/><path d="M613.64,20.64V40.12h-6.5V20.64h6.5m0-7h-6.5a7,7,0,0,0-7,7V40.12a7,7,0,0,0,7,7h6.5a7,7,0,0,0,7-7V20.64a7,7,0,0,0-7-7Z" fill="#fff"/><path d="M314.93,73.89v13h6.5v6.5h-26v-6.5h6.49V80.38h-6.49V73.89h19.48m0-7H295.45a7,7,0,0,0-7,7v6.49a7,7,0,0,0,.8,3.25,6.94,6.94,0,0,0-.8,3.24v6.5a7,7,0,0,0,7,7h26a7,7,0,0,0,7-7v-6.5a7,7,0,0,0-6.5-7v-6a7,7,0,0,0-7-7Z" fill="#fff"/><path d="M269.48,60.9v6.49h13v6.5h-13v13h13v6.5H263v-6.5h-6.49v-13H250v-6.5h6.49V60.9h13m0-7h-13a7,7,0,0,0-7,6.51,7,7,0,0,0-6.5,7v6.5a7,7,0,0,0,6.49,7v6a7,7,0,0,0,6.51,7,7,7,0,0,0,7,6.51h19.48a7,7,0,0,0,7-7v-6.5a7,7,0,0,0-4.37-6.49,7,7,0,0,0,4.37-6.49v-6.5a7,7,0,0,0-7-7h-6a7,7,0,0,0-7-6.49Z" fill="#fff"/><path d="M314.93,60.9v6.49h-13V60.9h13m0-7h-13a7,7,0,0,0-7,7v6.49a7,7,0,0,0,7,7h13a7,7,0,0,0,7-7V60.9a7,7,0,0,0-7-7Z" fill="#fff"/><path d="M496.75,33.62v6.5h-6.49v-6.5h6.49m0-7h-6.49a7,7,0,0,0-7,7v6.5a7,7,0,0,0,7,7h6.49a7,7,0,0,0,7-7v-6.5a7,7,0,0,0-7-7Z" fill="#fff"/><path d="M496.75,20.64v6.5h-6.49v-6.5h6.49m0-7h-6.49a7,7,0,0,0-7,7v6.5a7,7,0,0,0,7,7h6.49a7,7,0,0,0,7-7v-6.5a7,7,0,0,0-7-7Z" fill="#fff"/><path d="M574.67,33.62v6.5h-6.49v-6.5h6.49m0-7h-6.49a7,7,0,0,0-7,7v6.5a7,7,0,0,0,7,7h6.49a7,7,0,0,0,7-7v-6.5a7,7,0,0,0-7-7Z" fill="#fff"/><path d="M360.39,73.89V93.37h-6.5V73.89h6.5m0-7h-6.5a7,7,0,0,0-7,7V93.37a7,7,0,0,0,7,7h6.5a7,7,0,0,0,7-7V73.89a7,7,0,0,0-7-7Z" fill="#fff"/><path d="M607.14,14.14v6.5h-13V40.12h13v6.5H587.66v-6.5h-6.49V20.64h6.49v-6.5h19.48m0-7H587.66a7,7,0,0,0-7,6.52,7,7,0,0,0-6.51,7V40.12a7,7,0,0,0,6.51,7,7,7,0,0,0,7,6.52h19.48a7,7,0,0,0,7-7v-6.5a7,7,0,0,0-7-7h-6V27.64h6a7,7,0,0,0,7-7v-6.5a7,7,0,0,0-7-7Z" fill="#fff"/><path d="M529.22,27.14v6.48H509.74V27.14h19.48m0-7H509.74a7,7,0,0,0-7,7v6.48a7,7,0,0,0,7,7h19.48a7,7,0,0,0,7-7V27.14a7,7,0,0,0-7-7Z" fill="#fff"/><path d="M568.18,14.14v6.5h-13v6.5h13v6.48h-13v6.5h13v6.5H548.7v-6.5h-6.49v-6.5h6.49V27.14h-6.49v-6.5h6.49v-6.5h19.48m0-7H548.7a7,7,0,0,0-7,6.52,7,7,0,0,0-6.5,7v6.5a6.94,6.94,0,0,0,.8,3.24,6.94,6.94,0,0,0-.8,3.24v6.5a7,7,0,0,0,6.5,7,7,7,0,0,0,7,6.52h19.48a7,7,0,0,0,7-7v-6.5a7,7,0,0,0-.8-3.25,7,7,0,0,0,.8-3.25V27.14a7,7,0,0,0-.8-3.25,7,7,0,0,0,.8-3.25v-6.5a7,7,0,0,0-7-7Z" fill="#fff"/><path d="M509.74,67.39v6.5h-13v13h13v6.5H490.26v-6.5h-6.49v-13h6.49v-6.5h19.48m0-7H490.26a7,7,0,0,0-7,6.52,7,7,0,0,0-6.5,7v13a7,7,0,0,0,6.5,7,7,7,0,0,0,7,6.51h19.48a7,7,0,0,0,7-7v-6.5a7,7,0,0,0-4.38-6.49,7,7,0,0,0,4.38-6.49v-6.5a7,7,0,0,0-7-7Z" fill="#fff"/><path d="M633.12,67.39v26h-26v-6.5h13V67.39h13m0-7h-13a7,7,0,0,0-7,7V79.87h-6a7,7,0,0,0-7,7v6.5a7,7,0,0,0,7,7h26a7,7,0,0,0,7-7v-26a7,7,0,0,0-7-7Z" fill="#fff"/><path d="M607.14,67.39V86.87h-6.49V67.39h6.49m0-7h-6.49a7,7,0,0,0-7,7V86.87a7,7,0,0,0,7,7h6.49a7,7,0,0,0,7-7V67.39a7,7,0,0,0-7-7Z" fill="#fff"/><path d="M659.09,60.9v6.49h13v6.5h-13v13h13v6.5H652.6v-6.5h-6.5v-13h-6.49v-6.5h6.49V60.9h13m0-7h-13a7,7,0,0,0-7,6.51,7,7,0,0,0-6.51,7v6.5a7,7,0,0,0,6.49,7v6a7,7,0,0,0,6.51,7,7,7,0,0,0,7,6.51h19.48a7,7,0,0,0,7-7v-6.5a7,7,0,0,0-4.38-6.49,7,7,0,0,0,4.38-6.49v-6.5a7,7,0,0,0-7-7h-6a7,7,0,0,0-7-6.49Z" fill="#fff"/><path d="M594.15,73.89v13h-6.49v-13h6.49m0-7h-6.49a7,7,0,0,0-7,7v13a7,7,0,0,0,7,7h6.49a7,7,0,0,0,7-7v-13a7,7,0,0,0-7-7Z" fill="#fff"/><path d="M587.66,67.39v6.5h-13v13h13v6.5h-13v6.49h-13V67.39h26m0-7h-26a7,7,0,0,0-7,7V99.86a7,7,0,0,0,7,7h13a7,7,0,0,0,7-6.49h6a7,7,0,0,0,7-7v-6.5a7,7,0,0,0-4.38-6.49,7,7,0,0,0,4.38-6.49v-6.5a7,7,0,0,0-7-7Z" fill="#fff"/><path d="M750,73.89v6.49h-6.5V73.89H750m0-7h-6.5a7,7,0,0,0-7,7v6.49a7,7,0,0,0,7,7H750a7,7,0,0,0,7-7V73.89a7,7,0,0,0-7-7Z" fill="#fff"/><path d="M743.5,67.39v6.5h-13V93.37h-13v-26h26m0-7h-26a7,7,0,0,0-7,7v26a7,7,0,0,0,7,7h13a7,7,0,0,0,7-7V80.89h6a7,7,0,0,0,7-7v-6.5a7,7,0,0,0-7-7Z" fill="#fff"/><path d="M704.54,67.39v6.5H711v6.49h-13V73.89h-6.49v6.49h6.49v6.49h6.49v6.5H685.06v-6.5h-6.49v-13h6.49v-6.5h19.48m0-7H685.06a7,7,0,0,0-7,6.52,7,7,0,0,0-6.51,7v13a7,7,0,0,0,6.51,7,7,7,0,0,0,7,6.51h19.48a7,7,0,0,0,7-7v-6a7,7,0,0,0,6.5-7V73.89a7,7,0,0,0-6.51-7,7,7,0,0,0-7-6.52Z" fill="#fff"/><path d="M373.37,67.39v13h-6.49v-13h6.49m0-7h-6.49a7,7,0,0,0-7,7v13a7,7,0,0,0,7,7h6.49a7,7,0,0,0,7-7v-13a7,7,0,0,0-7-7Z" fill="#fff"/><path d="M399.35,67.39v26h-6.5v6.49H373.37V93.37h13v-6.5h-13V80.38h13v-13h13m0-7h-13a7,7,0,0,0-7,7v6h-6a7,7,0,0,0-7,7v6.49a7,7,0,0,0,.8,3.25,7,7,0,0,0-.8,3.25v6.49a7,7,0,0,0,7,7h19.48a7,7,0,0,0,7-6.51,7,7,0,0,0,6.52-7v-26a7,7,0,0,0-7-7Z" fill="#fff"/><path d="M418.83,14.14v6.5h-6.5v26h-13v-26h-6.5v-6.5h26m0-7h-26a7,7,0,0,0-7,7v6.5a7,7,0,0,0,6.5,7v19a7,7,0,0,0,7,7h13a7,7,0,0,0,7-7v-19a7,7,0,0,0,6.5-7v-6.5a7,7,0,0,0-7-7Z" fill="#fff"/><path d="M353.89,67.39v6.5h-13V93.37h-13v-26h26m0-7h-26a7,7,0,0,0-7,7v26a7,7,0,0,0,7,7h13a7,7,0,0,0,7-7V80.89h6a7,7,0,0,0,7-7v-6.5a7,7,0,0,0-7-7Z" fill="#fff"/><path d="M548.7,67.39v6.5h6.49V93.37H548.7v-13h-6.49v13h-6.5v-13h-6.49v13h-6.49v-26h13v6.5h6.5v-6.5h6.49m0-7h-6.49a7,7,0,0,0-3.25.8,7,7,0,0,0-3.25-.8h-13a7,7,0,0,0-7,7v26a7,7,0,0,0,7,7h6.49a6.94,6.94,0,0,0,3.24-.8,7,7,0,0,0,3.25.8h6.5a6.94,6.94,0,0,0,3.24-.8,7,7,0,0,0,3.25.8h6.49a7,7,0,0,0,7-7V73.89a7,7,0,0,0-6.51-7,7,7,0,0,0-7-6.52Z" fill="#fff"/><path d="M516.23,73.89v13h-6.49v-13h6.49m0-7h-6.49a7,7,0,0,0-7,7v13a7,7,0,0,0,7,7h6.49a7,7,0,0,0,7-7v-13a7,7,0,0,0-7-7Z" fill="#fff"/><path d="M457.79,14.14v6.5h-6.5V40.12h6.5v6.5h-26v-6.5h6.5V20.64h-6.5v-6.5h26m0-7h-26a7,7,0,0,0-7,7v6.5a7,7,0,0,0,6.5,7v5.52a7,7,0,0,0-6.5,7v6.5a7,7,0,0,0,7,7h26a7,7,0,0,0,7-7v-6.5a7,7,0,0,0-6.5-7V27.62a7,7,0,0,0,6.5-7v-6.5a7,7,0,0,0-7-7Z" fill="#fff"/><path d="M477.27,67.39v6.5h-13v13h13v6.5h-26v-6.5h-6.48v-13h6.48v-6.5h26m0-7h-26a7,7,0,0,0-7,6.52,7,7,0,0,0-6.5,7v13a7,7,0,0,0,6.5,7,7,7,0,0,0,7,6.51h26a7,7,0,0,0,7-7v-6.5a7,7,0,0,0-4.38-6.49,7,7,0,0,0,4.38-6.49v-6.5a7,7,0,0,0-7-7Z" fill="#fff"/><path d="M399.35,46.62v-26h-6.5v-6.5h26v6.5h-6.5v26Zm32.46,0v-6.5h6.5V20.64h-6.5v-6.5h26v6.5h-6.5V40.12h6.5v6.5Zm39,0v-6.5h-6.48V20.64h6.48v-6.5h19.49v6.5h-13V40.12h13v6.5Zm19.49-19.48v-6.5h6.49v6.5Zm0,13v-6.5h6.49v6.5Zm19.48-6.5V27.14h19.48v6.48Zm39,13v-6.5h-6.49v-6.5h6.49V27.14h-6.49v-6.5h6.49v-6.5h19.48v6.5h-13v6.5h13v6.48h-13v6.5h13v6.5Zm19.48-19.48v-6.5h6.49v6.5Zm0,13v-6.5h6.49v6.5Zm19.48,6.5v-6.5h-6.49V20.64h6.49v-6.5h19.48v6.5h-13V40.12h13v6.5Zm19.48-6.5V20.64h6.5V40.12ZM263,93.37v-6.5h-6.49v-13H250v-6.5h6.49V60.9h13v6.49h13v6.5h-13v13h13v6.5Zm32.47,0v-6.5h6.49V80.38h-6.49V73.89h19.48v13h6.5v6.5Zm6.49-26V60.9h13v6.49Zm26,26v-26h26v6.5h-13V93.37Zm26,0V73.89h6.5V93.37Zm13-13v-13h6.49v13Zm6.49,19.48V93.37h13v-6.5h-13V80.38h13v-13h13v26h-6.5v6.49Zm77.92-6.49v-6.5h-6.48v-13h6.48v-6.5h26v6.5h-13v13h13v6.5Zm39,0v-6.5h-6.49v-13h6.49v-6.5h19.48v6.5h-13v13h13v6.5Zm19.48-6.5v-13h6.49v13Zm13,6.5v-26h13v6.5h6.5v-6.5h6.49v6.5h6.49V93.37H548.7v-13h-6.49v13h-6.5v-13h-6.49v13Zm39,6.49V67.39h26v6.5h-13v13h13v6.5h-13v6.49Zm26-13v-13h6.49v13Zm13,0V67.39h6.49V86.87Zm6.49,6.5v-6.5h13V67.39h13v26Zm45.46,0v-6.5h-6.5v-13h-6.49v-6.5h6.49V60.9h13v6.49h13v6.5h-13v13h13v6.5Zm32.46,0v-6.5h-6.49v-13h6.49v-6.5h19.48v6.5H711v6.49h-13V73.89h-6.49v6.49h6.49v6.49h6.49v6.5Zm32.48,0v-26h26v6.5h-13V93.37Zm26-13V73.89H750v6.49Z" fill="#d7e6d0"/></g></svg>