<svg xmlns="http://www.w3.org/2000/svg" viewBox="0 0 1000 114"><title>logo_right</title><g id="Layer_2" data-name="Layer 2"><rect x="522.03" y="72.97" width="21.11" height="16.22" fill="#fff"/></g><g id="Layer_1" data-name="Layer 1"><path d="M733.26,14.14v6.5h-13V40.12h13v6.5H713.77v-6.5h-6.48V20.64h6.48v-6.5h19.49m0-7H713.77a7,7,0,0,0-7,6.52,7,7,0,0,0-6.5,7V40.12a7,7,0,0,0,6.5,7,7,7,0,0,0,7,6.52h19.49a7,7,0,0,0,7-7v-6.5a7,7,0,0,0-7-7h-6V27.64h6a7,7,0,0,0,7-7v-6.5a7,7,0,0,0-7-7Z" fill="#fff"/><path d="M817.67,20.64v6.5h-6.49v-6.5h6.49m0-7h-6.49a7,7,0,0,0-7,7v6.5a7,7,0,0,0,7,7h6.49a7,7,0,0,0,7-7v-6.5a7,7,0,0,0-7-7Z" fill="#fff"/><path d="M856.64,20.64V40.12h-6.5V20.64h6.5m0-7h-6.5a7,7,0,0,0-7,7V40.12a7,7,0,0,0,7,7h6.5a7,7,0,0,0,7-7V20.64a7,7,0,0,0-7-7Z" fill="#fff"/><path d="M557.93,73.89v13h6.5v6.5h-26v-6.5h6.49V80.38h-6.49V73.89h19.48m0-7H538.45a7,7,0,0,0-7,7v6.49a7,7,0,0,0,.8,3.25,6.94,6.94,0,0,0-.8,3.24v6.5a7,7,0,0,0,7,7h26a7,7,0,0,0,7-7v-6.5a7,7,0,0,0-6.5-7v-6a7,7,0,0,0-7-7Z" fill="#fff"/><path d="M512.48,60.9v6.49h13v6.5h-13v13h13v6.5H506v-6.5h-6.49v-13H493v-6.5h6.49V60.9h13m0-7h-13a7,7,0,0,0-7,6.51,7,7,0,0,0-6.5,7v6.5a7,7,0,0,0,6.49,7v6a7,7,0,0,0,6.51,7,7,7,0,0,0,7,6.51h19.48a7,7,0,0,0,7-7v-6.5a7,7,0,0,0-4.37-6.49,7,7,0,0,0,4.37-6.49v-6.5a7,7,0,0,0-7-7h-6a7,7,0,0,0-7-6.49Z" fill="#fff"/><path d="M557.93,60.9v6.49h-13V60.9h13m0-7h-13a7,7,0,0,0-7,7v6.49a7,7,0,0,0,7,7h13a7,7,0,0,0,7-7V60.9a7,7,0,0,0-7-7Z" fill="#fff"/><path d="M739.75,33.62v6.5h-6.49v-6.5h6.49m0-7h-6.49a7,7,0,0,0-7,7v6.5a7,7,0,0,0,7,7h6.49a7,7,0,0,0,7-7v-6.5a7,7,0,0,0-7-7Z" fill="#fff"/><path d="M739.75,20.64v6.5h-6.49v-6.5h6.49m0-7h-6.49a7,7,0,0,0-7,7v6.5a7,7,0,0,0,7,7h6.49a7,7,0,0,0,7-7v-6.5a7,7,0,0,0-7-7Z" fill="#fff"/><path d="M817.67,33.62v6.5h-6.49v-6.5h6.49m0-7h-6.49a7,7,0,0,0-7,7v6.5a7,7,0,0,0,7,7h6.49a7,7,0,0,0,7-7v-6.5a7,7,0,0,0-7-7Z" fill="#fff"/><path d="M603.39,73.89V93.37h-6.5V73.89h6.5m0-7h-6.5a7,7,0,0,0-7,7V93.37a7,7,0,0,0,7,7h6.5a7,7,0,0,0,7-7V73.89a7,7,0,0,0-7-7Z" fill="#fff"/><path d="M850.14,14.14v6.5h-13V40.12h13v6.5H830.66v-6.5h-6.49V20.64h6.49v-6.5h19.48m0-7H830.66a7,7,0,0,0-7,6.52,7,7,0,0,0-6.51,7V40.12a7,7,0,0,0,6.51,7,7,7,0,0,0,7,6.52h19.48a7,7,0,0,0,7-7v-6.5a7,7,0,0,0-7-7h-6V27.64h6a7,7,0,0,0,7-7v-6.5a7,7,0,0,0-7-7Z" fill="#fff"/><path d="M772.22,27.14v6.48H752.74V27.14h19.48m0-7H752.74a7,7,0,0,0-7,7v6.48a7,7,0,0,0,7,7h19.48a7,7,0,0,0,7-7V27.14a7,7,0,0,0-7-7Z" fill="#fff"/><path d="M811.18,14.14v6.5h-13v6.5h13v6.48h-13v6.5h13v6.5H791.7v-6.5h-6.49v-6.5h6.49V27.14h-6.49v-6.5h6.49v-6.5h19.48m0-7H791.7a7,7,0,0,0-7,6.52,7,7,0,0,0-6.5,7v6.5a6.94,6.94,0,0,0,.8,3.24,6.94,6.94,0,0,0-.8,3.24v6.5a7,7,0,0,0,6.5,7,7,7,0,0,0,7,6.52h19.48a7,7,0,0,0,7-7v-6.5a7,7,0,0,0-.8-3.25,7,7,0,0,0,.8-3.25V27.14a7,7,0,0,0-.8-3.25,7,7,0,0,0,.8-3.25v-6.5a7,7,0,0,0-7-7Z" fill="#fff"/><path d="M752.74,67.39v6.5h-13v13h13v6.5H733.26v-6.5h-6.49v-13h6.49v-6.5h19.48m0-7H733.26a7,7,0,0,0-7,6.52,7,7,0,0,0-6.5,7v13a7,7,0,0,0,6.5,7,7,7,0,0,0,7,6.51h19.48a7,7,0,0,0,7-7v-6.5a7,7,0,0,0-4.38-6.49,7,7,0,0,0,4.38-6.49v-6.5a7,7,0,0,0-7-7Z" fill="#fff"/><path d="M876.12,67.39v26h-26v-6.5h13V67.39h13m0-7h-13a7,7,0,0,0-7,7V79.87h-6a7,7,0,0,0-7,7v6.5a7,7,0,0,0,7,7h26a7,7,0,0,0,7-7v-26a7,7,0,0,0-7-7Z" fill="#fff"/><path d="M850.14,67.39V86.87h-6.49V67.39h6.49m0-7h-6.49a7,7,0,0,0-7,7V86.87a7,7,0,0,0,7,7h6.49a7,7,0,0,0,7-7V67.39a7,7,0,0,0-7-7Z" fill="#fff"/><path d="M902.09,60.9v6.49h13v6.5h-13v13h13v6.5H895.6v-6.5h-6.5v-13h-6.49v-6.5h6.49V60.9h13m0-7h-13a7,7,0,0,0-7,6.51,7,7,0,0,0-6.51,7v6.5a7,7,0,0,0,6.49,7v6a7,7,0,0,0,6.51,7,7,7,0,0,0,7,6.51h19.48a7,7,0,0,0,7-7v-6.5a7,7,0,0,0-4.38-6.49,7,7,0,0,0,4.38-6.49v-6.5a7,7,0,0,0-7-7h-6a7,7,0,0,0-7-6.49Z" fill="#fff"/><path d="M837.15,73.89v13h-6.49v-13h6.49m0-7h-6.49a7,7,0,0,0-7,7v13a7,7,0,0,0,7,7h6.49a7,7,0,0,0,7-7v-13a7,7,0,0,0-7-7Z" fill="#fff"/><path d="M830.66,67.39v6.5h-13v13h13v6.5h-13v6.49h-13V67.39h26m0-7h-26a7,7,0,0,0-7,7V99.86a7,7,0,0,0,7,7h13a7,7,0,0,0,7-6.49h6a7,7,0,0,0,7-7v-6.5a7,7,0,0,0-4.38-6.49,7,7,0,0,0,4.38-6.49v-6.5a7,7,0,0,0-7-7Z" fill="#fff"/><path d="M993,73.89v6.49h-6.5V73.89H993m0-7h-6.5a7,7,0,0,0-7,7v6.49a7,7,0,0,0,7,7H993a7,7,0,0,0,7-7V73.89a7,7,0,0,0-7-7Z" fill="#fff"/><path d="M986.5,67.39v6.5h-13V93.37h-13v-26h26m0-7h-26a7,7,0,0,0-7,7v26a7,7,0,0,0,7,7h13a7,7,0,0,0,7-7V80.89h6a7,7,0,0,0,7-7v-6.5a7,7,0,0,0-7-7Z" fill="#fff"/><path d="M947.54,67.39v6.5H954v6.49h-13V73.89h-6.49v6.49h6.49v6.49h6.49v6.5H928.06v-6.5h-6.49v-13h6.49v-6.5h19.48m0-7H928.06a7,7,0,0,0-7,6.52,7,7,0,0,0-6.51,7v13a7,7,0,0,0,6.51,7,7,7,0,0,0,7,6.51h19.48a7,7,0,0,0,7-7v-6a7,7,0,0,0,6.5-7V73.89a7,7,0,0,0-6.51-7,7,7,0,0,0-7-6.52Z" fill="#fff"/><path d="M616.37,67.39v13h-6.49v-13h6.49m0-7h-6.49a7,7,0,0,0-7,7v13a7,7,0,0,0,7,7h6.49a7,7,0,0,0,7-7v-13a7,7,0,0,0-7-7Z" fill="#fff"/><path d="M642.35,67.39v26h-6.5v6.49H616.37V93.37h13v-6.5h-13V80.38h13v-13h13m0-7h-13a7,7,0,0,0-7,7v6h-6a7,7,0,0,0-7,7v6.49a7,7,0,0,0,.8,3.25,7,7,0,0,0-.8,3.25v6.49a7,7,0,0,0,7,7h19.48a7,7,0,0,0,7-6.51,7,7,0,0,0,6.52-7v-26a7,7,0,0,0-7-7Z" fill="#fff"/><path d="M661.83,14.14v6.5h-6.5v26h-13v-26h-6.5v-6.5h26m0-7h-26a7,7,0,0,0-7,7v6.5a7,7,0,0,0,6.5,7v19a7,7,0,0,0,7,7h13a7,7,0,0,0,7-7v-19a7,7,0,0,0,6.5-7v-6.5a7,7,0,0,0-7-7Z" fill="#fff"/><path d="M596.89,67.39v6.5h-13V93.37h-13v-26h26m0-7h-26a7,7,0,0,0-7,7v26a7,7,0,0,0,7,7h13a7,7,0,0,0,7-7V80.89h6a7,7,0,0,0,7-7v-6.5a7,7,0,0,0-7-7Z" fill="#fff"/><path d="M791.7,67.39v6.5h6.49V93.37H791.7v-13h-6.49v13h-6.5v-13h-6.49v13h-6.49v-26h13v6.5h6.5v-6.5h6.49m0-7h-6.49a7,7,0,0,1-6.5,0h-13a7,7,0,0,0-7,7v26a7,7,0,0,0,7,7h6.49a6.94,6.94,0,0,0,3.24-.8,7,7,0,0,0,3.25.8h6.5a7,7,0,0,1,6.49,0h6.49a7,7,0,0,0,7-7V73.89a7,7,0,0,0-6.51-7,7,7,0,0,0-7-6.52Z" fill="#fff"/><path d="M759.23,73.89v13h-6.49v-13h6.49m0-7h-6.49a7,7,0,0,0-7,7v13a7,7,0,0,0,7,7h6.49a7,7,0,0,0,7-7v-13a7,7,0,0,0-7-7Z" fill="#fff"/><path d="M700.79,14.14v6.5h-6.5V40.12h6.5v6.5h-26v-6.5h6.5V20.64h-6.5v-6.5h26m0-7h-26a7,7,0,0,0-7,7v6.5a7,7,0,0,0,6.5,7v5.52a7,7,0,0,0-6.5,7v6.5a7,7,0,0,0,7,7h26a7,7,0,0,0,7-7v-6.5a7,7,0,0,0-6.5-7V27.62a7,7,0,0,0,6.5-7v-6.5a7,7,0,0,0-7-7Z" fill="#fff"/><path d="M720.27,67.39v6.5h-13v13h13v6.5h-26v-6.5h-6.48v-13h6.48v-6.5h26m0-7h-26a7,7,0,0,0-7,6.52,7,7,0,0,0-6.5,7v13a7,7,0,0,0,6.5,7,7,7,0,0,0,7,6.51h26a7,7,0,0,0,7-7v-6.5a7,7,0,0,0-4.38-6.49,7,7,0,0,0,4.38-6.49v-6.5a7,7,0,0,0-7-7Z" fill="#fff"/><path d="M642.35,46.62v-26h-6.5v-6.5h26v6.5h-6.5v26Zm32.46,0v-6.5h6.5V20.64h-6.5v-6.5h26v6.5h-6.5V40.12h6.5v6.5Zm39,0v-6.5h-6.48V20.64h6.48v-6.5h19.49v6.5h-13V40.12h13v6.5Zm19.49-19.48v-6.5h6.49v6.5Zm0,13v-6.5h6.49v6.5Zm19.48-6.5V27.14h19.48v6.48Zm39,13v-6.5h-6.49v-6.5h6.49V27.14h-6.49v-6.5h6.49v-6.5h19.48v6.5h-13v6.5h13v6.48h-13v6.5h13v6.5Zm19.48-19.48v-6.5h6.49v6.5Zm0,13v-6.5h6.49v6.5Zm19.48,6.5v-6.5h-6.49V20.64h6.49v-6.5h19.48v6.5h-13V40.12h13v6.5Zm19.48-6.5V20.64h6.5V40.12ZM506,93.37v-6.5h-6.49v-13H493v-6.5h6.49V60.9h13v6.49h13v6.5h-13v13h13v6.5Zm32.47,0v-6.5h6.49V80.38h-6.49V73.89h19.48v13h6.5v6.5Zm6.49-26V60.9h13v6.49Zm26,26v-26h26v6.5h-13V93.37Zm26,0V73.89h6.5V93.37Zm13-13v-13h6.49v13Zm6.49,19.48V93.37h13v-6.5h-13V80.38h13v-13h13v26h-6.5v6.49Zm77.92-6.49v-6.5h-6.48v-13h6.48v-6.5h26v6.5h-13v13h13v6.5Zm39,0v-6.5h-6.49v-13h6.49v-6.5h19.48v6.5h-13v13h13v6.5Zm19.48-6.5v-13h6.49v13Zm13,6.5v-26h13v6.5h6.5v-6.5h6.49v6.5h6.49V93.37H791.7v-13h-6.49v13h-6.5v-13h-6.49v13Zm39,6.49V67.39h26v6.5h-13v13h13v6.5h-13v6.49Zm26-13v-13h6.49v13Zm13,0V67.39h6.49V86.87Zm6.49,6.5v-6.5h13V67.39h13v26Zm45.46,0v-6.5h-6.5v-13h-6.49v-6.5h6.49V60.9h13v6.49h13v6.5h-13v13h13v6.5Zm32.46,0v-6.5h-6.49v-13h6.49v-6.5h19.48v6.5H954v6.49h-13V73.89h-6.49v6.49h6.49v6.49h6.49v6.5Zm32.48,0v-26h26v6.5h-13V93.37Zm26-13V73.89H993v6.49Z" fill="#d7e6d0"/></g></svg>