<svg xmlns="http://www.w3.org/2000/svg" viewBox="0 0 30.000001 30.000001">
  <path fill="#4d4d4d" d="M.52108646 14.95970352c0-6.90288044 5.5971201-12.50000054 12.50000054-12.50000054 6.90288044 0 12.50000053 5.5971201 12.50000053 12.50000054 0 6.90288044-5.5971201 12.50000053-12.50000053 12.50000053-6.90288044 0-12.50000054-5.59675008-12.50000054-12.50000053"/>
  <path fill="#666" d="M17.85499035 11.12641442c-.22029572-.04865613-.41803572-.2497558-.41803572-.2497558l.08329634-.2497558.25146524-.16650388s.2497559.02076673.3329634.08325194c.0832964.06243895.1665483.33300774.1665483.33300774l-.1873168.16650387s-.0416259.1248335-.2289428.0832519zm1.4152829-1.41705893l.33471717-.4995487h.41633368s.35377262.5203061.35377262.603669c0 .0832519-.27056878.4803451-.27056878.4803451l-.54295062-.0207668-.29133738-.5637081zm0 4.1659268c.28273097.1804236.58276354.1769085.8741823.1734415.48737534-.0052264.95558422-.1578531 1.29203304-.5480568.2723707-.3953912.2793565-.6417799.4388672-1.0891573.0936565-.2619661.2081298-.4110796.2081298-.4110796s.0936566.3538207.0832519.7717639c-.0069377.2793121-.0572108.5741053-.2289428.8534248-.3330078.5428396-.6469231.7509324-.8758104.7925584-.228991.0415815-.8741824.1248779-1.290553-.0623909-.3259776-.1474485-.5011767-.4804562-.5011767-.4804562zm-1.83331863-7.1648465l-1.99974848 2.9155197 1.41698494 3.0837256 2.49926008 3.1671256 1.91657054.6659785 2.4177842-2.9172218-.33300774-2.4993341-2.50096213-3.5000963-3.41684442-.9157343M3.0220967 15.7922228l.2497558-6.66533492.8325934-1.00072527 3.25026654 2.4178212.83255633-4.9377647.16650387 1.4378164.4179247-.7510434.08325193.6678285.58280055-.7510434.09712727 8.7640237-4.6794988-3.5972236s-1.8332446 4.3742417-1.8332446 4.4156826"/>
  <path fill="#666" d="M10.27018406 5.79311046l5.6404111-1.5836368s-1.1395525.6676805-1.05622655.6676805c.0832076 0 .7492305.08325195.7492305.08325195l-1.3320679.8325564 1.4985718-.0832075-3.999423 2.3326822v.1665964l4.3342808-.2498002-4.3342807 3.0838367v.9157343l3.2642159-.4023844s-1.077095.6122163-1.0130095.5706273c.0625315-.0433354.7909304-.0294619.7909304-.0294619l-.4578856.2792159h.7908934l-4.7905014 3.4151054-.0850095-9.9991124M9.8539244 18.376363l-1.377135-3.01446006s-.76314275-.688586-2.11770724-.63996687c-.29836754.01040646-2.7629652.0294619-2.9208109 3.8207088-.14050706 3.3907958 2.11948327 4.99326603 2.11948327 4.99326603s1.09444844.8082468 1.90439726 1.2991002c.8099488.49251844 2.3085206 1.20715305 2.3085206 1.20715305l-1.1655641-7.41645237-2.5010361.7493044.5012876.08329635-.8342214.66779153.7492304.08315942-.4994746.4995486 1.333733.08325193.4994746 1.9164966s-1.0163397-.3191324-1.8714665-1.1689311c-.7006113-.6972442-1.2642454-1.8333926-1.2955111-2.7473508-.0294853-.9139582.3988692-2.067423 1.6667407-2.0830004 1.2696475-.0155866 3.5000963 1.6668148 3.5000963 1.6668148"/>
  <path fill="#666" d="M9.1879089 20.45951135l4.74869038-6.5006811 3.00047373 2.4177842s-.3746707-.09546222-.4162226-.08320753c-.0416259.01036024.6659785.99898622.6659785.99898622l-.9157343-.33305214.4994746.66597847-3.0837256-1.08220115-.2497558.2497114 1.9997485 3.3336295-4.0826749-.16650388 2.2496153 4.3324307-.8325933-.16654088.3920241.98000478-.7041633-.61232723.5618951 1.0493444L9.18802 20.459319"/>
  <path fill="#666" d="M16.27135354 22.3757859l.2497558-.4162597.74923042-.33296333.5845396.74923042h.4995116l.66601548-.2497559.4995116 1.0822751-1.24877902.5844656h-.58446558l-.2498002-.4994746h-.83248236l-.33300774-.9175104zm4.3324307-2.2494673s.30354765-.13533064.33305214-.08329633c.02941568.05027677.41625968.08329633.41625968.08329633v.41625968l-.33305215.2497114-.4162596-.2497114v-.41625968zm-1.74995567-.41633367l-.33310025-.50117665.33310025-.66605248.8342214-.08325194.2498002.4995116-.2498002.66779153-.8342214.0832075zM15.1037914 21.2918087l-.08320753 3.00054773 1.333807 1.0839772 2.34837058-.4942945 3.90063067-3.42198753.2497558-4.2510288h-4.49893457l-3.25034054 4.0826749"/>
</svg>
