<svg id="Calque_1" data-name="Calque 1" xmlns="http://www.w3.org/2000/svg" viewBox="0 0 320.76281 165.4272"><title>controller</title><path d="M10.8827,0H309.88011a10.8827,10.8827,0,0,1,10.8827,10.8827V154.5445a10.8827,10.8827,0,0,1-10.8827,10.8827H10.88282A10.88282,10.88282,0,0,1,0,154.54438V10.8827A10.8827,10.8827,0,0,1,10.8827,0Z" fill="#333"/><path d="M264.94781,68.4438a7.18033,7.18033,0,0,1-2.25511,1.7264,8.03883,8.03883,0,0,1-2.7564.8042,12.63019,12.63019,0,0,1-1.2997.0805,10.56856,10.56856,0,0,1-2.5315-.3366,12.08082,12.08082,0,0,1-2.46429-.9138,10.6524,10.6524,0,0,1-1.97121-1.2174c-.51479-.4188-1.037-.8329-1.5162-1.2907-1.987-1.8977-3.959-3.8107-5.93659-5.7182-.05991-.0578-.11981-.1155-.18851-.1819.3723-.3859.7332-.7601,1.1179-1.159l.17061.1646c1.459,1.4073,2.90659,2.8266,4.38349,4.215a18.38027,18.38027,0,0,0,1.5263,1.1939,10.12232,10.12232,0,0,0,2.0386,1.1392,10.39613,10.39613,0,0,0,3.4255.933,12.83447,12.83447,0,0,0,1.9729.0479,7.90391,7.90391,0,0,0,4.0855-1.4163,1.27426,1.27426,0,0,1,.1245-.0715Z" transform="translate(0)" fill="#a6a8ab" fill-rule="evenodd"/><path d="M243.4589,61.9072l14.3562,13.8479c-.5579.5784-1.1086,1.1493-1.6771,1.7386q-7.17825-6.92415-14.35619-13.8479Q242.62031,62.7767,243.4589,61.9072Z" transform="translate(0)" fill="#a6a8ab" fill-rule="evenodd"/><path d="M277.06981,54.5161q-4.58237-2.339-9.17331-4.6859c-1.5106-.78-3.00469-1.577-4.53169-2.323a17.96261,17.96261,0,0,0-2.78711-1.169,3.13918,3.13918,0,0,0-3.5203,1.5432,3.25965,3.25965,0,0,0,.2159,3.1155c1.40951,2.6314,2.8523,5.2455,4.2866,7.8513.7998,1.4653,1.6163,2.9136,2.4077,4.3706.6526,1.2243,1.2885,2.4487,1.9328,3.6815l.1541.1486c.9409-.9755,1.8818-1.9509,2.823-2.9095a.46981.46981,0,0,0,.0974-.6661c-.5809-.9732-1.112-1.981-1.6685-2.9966,1.2711-1.3178,2.52541-2.6352,3.7971-3.9193a.53269.53269,0,0,1,.5037-.0428c1.0265.5113,2.0369,1.0564,3.0387,1.5932l3.1197-3.2343C277.5111,54.7436,277.2905,54.6298,277.06981,54.5161ZM265.311,57.0485q-2.23035-3.39015-4.4435-6.7638c.0164-.0171.0414-.026.058-.0431,2.2539,1.4307,4.5077,2.8615,6.7954,4.3084Z" transform="translate(0)" fill="#a6a8ab" fill-rule="evenodd"/><path d="M305.8054,26.0031c-4.7014-4.535-9.4031-9.0702-14.1614-13.66,1.042-1.0804,2.0643-2.1402,3.0866-3.2q7.0806,6.83,14.1615,13.6601Q307.34875,24.403,305.8054,26.0031Z" transform="translate(0)" fill="#a6a8ab" fill-rule="evenodd"/><path d="M249.118,84.8547c-.6757-.6518-1.3278-1.2775-1.9726-1.9108a.22135.22135,0,0,1-.0331-.2088,6.52918,6.52918,0,0,0,.93351-2.0912,12.4837,12.4837,0,0,0,.31049-1.8175,9.4962,9.4962,0,0,0-.2579-3.1376,10.25837,10.25837,0,0,0-.8811-2.4306c-.3773-.7035-.79549-1.3863-1.2256-2.0593a5.17439,5.17439,0,0,0-.7248-.886c-1.6475-1.6245-3.3066-3.2367-4.962-4.8531-.0297-.0289-.0596-.0576-.1-.0966l1.1178-1.1589.1794.173c2.1601,2.0837,4.3278,4.1595,6.4738,6.2577a13.53753,13.53753,0,0,1,1.1422,1.3786,12.076,12.076,0,0,1,2.2754,5.451,13.46381,13.46381,0,0,1,.1165,1.6948,8.41559,8.41559,0,0,1-.663,3.1747,7.05646,7.05646,0,0,1-1.5858,2.3723C249.2172,84.7494,249.1755,84.7951,249.118,84.8547Z" transform="translate(0)" fill="#a6a8ab" fill-rule="evenodd"/><path d="M287.0322,22.5677c3.8083,3.6734,7.5524,7.285,11.3288,10.9277-.9678,1.0033-1.9234,1.9941-2.93219,3.0399-.144-.1389-.29841-.2879-.45241-.4364-3.8649-3.7281-7.7043-7.4829-11.614-11.1641a3.1151,3.1151,0,0,1-.0703-3.9319c.938-.9738,1.84871-1.9753,2.8212-2.9126a6.17769,6.17769,0,0,1,7.09351-1.1925,5.00361,5.00361,0,0,1,2.60709,5.2159c-.1142.6185-.2573,1.2322-.39609,1.8905q4.833,1.1466,9.837,2.334a3.64031,3.64031,0,0,1-.247.3278c-1.00041,1.0417-1.99861,2.086-3.01411,3.1126a.62381.62381,0,0,1-.4932.1783c-2.8178-.7754-5.6279-1.58-8.4442-2.3624-2.1476-.5969-2.20749-1.8522-1.5739-3.5657a6.5799,6.5799,0,0,0,.4392-1.783c.0804-1.1613-.6579-1.6029-1.5631-1.7265a2.06188,2.06188,0,0,0-2.1108.7693A14.29227,14.29227,0,0,1,287.0322,22.5677Z" transform="translate(0)" fill="#a6a8ab" fill-rule="evenodd"/><path d="M294.361,36.5901c-3.0548-1.5593-6.118-3.1099-9.17319-4.686-1.84991-.942-3.70011-1.9008-5.54171-2.8513a4.97113,4.97113,0,0,0-2.5861-.7437,2.93132,2.93132,0,0,0-2.77719,4.0606,26.1614,26.1614,0,0,0,1.33429,2.6581c1.9653,3.6135,3.9386,7.2017,5.9122,10.8066.5912,1.0824,1.1909,2.1731,1.7999,3.3056.9987-1.0353,1.9564-2.0111,2.8967-3.0202a.51625.51625,0,0,0,.0331-.4966c-.5313-1.0247-1.0959-2.0318-1.6613-3.0726,1.2629-1.3092,2.517-2.6265,3.7887-3.9106a.56062.56062,0,0,1,.50341-.0596c1.027.528,2.03729,1.0731,3.04739,1.6014l3.1115-3.2257C294.811,36.8258,294.5903,36.7121,294.361,36.5901Zm-11.7585,2.5493c-1.4869-2.2601-2.95669-4.5038-4.435-6.7556.0165-.0172.0499-.0346.0664-.0517q3.368,2.13375,6.7785,4.3088Z" transform="translate(0)" fill="#a6a8ab" fill-rule="evenodd"/><path d="M278.9882,53.5861c-3.7812-3.6472-7.5339-7.2671-11.316-10.9152-.8942.927-1.7633,1.8281-2.6639,2.7618-.9122-.8799-1.7959-1.7323-2.7078-2.612q4.11675-4.26795,8.2787-8.5826c.8828.8515,1.7665,1.704,2.67961,2.5847-.85421.8855-1.69771,1.76-2.58021,2.6749,3.7911,3.6568,7.5533,7.2858,11.34421,10.9425C281.0029,51.4975,280.022,52.5144,278.9882,53.5861Z" transform="translate(0)" fill="#a6a8ab" fill-rule="evenodd"/><path d="M163.18381,4.1012c-6.21961.0383-12.43911.278-18.63931.2972-45.0482.1341-90.0868.0671-135.135.0671H7.1814A3.60115,3.60115,0,0,0,5.7186,5.961V160.0108c.3875.4027.76521.8054,1.1238,1.1888A4.13315,4.13315,0,0,0,10.95,160.03c4.9891-4.8221,9.7943-9.8072,14.9191-14.5048,7.0721-6.4806,13.5726-13.5557,20.6544-20.0555,7.15931-6.5765,13.747-13.7474,20.9159-20.324,7.0237-6.4518,13.48541-13.479,20.5188-19.9404,7.2077-6.6245,13.8341-13.8337,21.0515-20.4582,6.9849-6.404,13.3982-13.3927,20.38311-19.8063,7.25619-6.6628,13.92139-13.92,21.17749-20.5924,5.28951-4.8605,10.2593-10.0757,15.3648-15.1375.436-.4314.8429-.8916,1.1916-1.2559V5.8651C166.1579,4.3504,164.7436,4.0916,163.18381,4.1012ZM55.7172,90.6314c-23.07639-.2684-41.9482-18.5408-41.764-42.201.1744-22.922,18.9589-41.4053,42.3937-41.3765,23.1538.0287,42.1516,18.8859,42.045,41.7408A41.91449,41.91449,0,0,1,55.7172,90.6314Z" transform="translate(0)" fill="#2b2a2b"/><path d="M247.2537,165.3725q-21.5442.0273-43.0792.0456c-5.6868,0-11.3736-.0365-17.0512-.0638-.1368-1.2121-5.1309-5.5592-6.3248-6.7531q-8.0928-8.13375-16.231-16.222c-1.2759-1.2667-2.6612-2.4332-3.9826-3.6635-.4192-.3828-.9204-.7473-.9113-1.4217a6.73255,6.73255,0,0,1,1.13921.401,21.76466,21.76466,0,0,0,14.27159,2.816c8.512-1.3123,14.2261-6.0786,17.4613-13.8706a19.66,19.66,0,0,0,1.358-10.599,37.4917,37.4917,0,0,0-2.56089-8.3023c1.95939.8293,3.18059,2.5518,4.49289,4.0554,3.54511,4.0647,7.63711,7.5916,11.25511,11.5741,4.41089,4.8484,9.28659,9.2502,13.69749,14.0803,3.8276,4.2013,8.07451,7.9834,11.8657,12.1938C236.2902,153.6982,247.2446,165.3087,247.2537,165.3725Z" transform="translate(0)" fill="#4a4a4c"/><path d="M317.8187,161.9366a10.94222,10.94222,0,0,1-7.4721,3.4906c-17.0786,0-32.1163-.0091-49.1949-.0091-.1731,0-7.39089-7.3455-9.4415-9.4234-5.6959-5.7596-11.70939-11.2165-17.3611-17.033-.4891-.5034,0,0-2.76529-2.9994,1.22889.643,2.59219,1.6415,3.03869,1.9149a19.78873,19.78873,0,0,0,9.9519,2.8799,22.15174,22.15174,0,0,0,22.5193-26.4199c-1.3704-5.4396-2.7142-6.3092-3.7648-8.2696,6.0067,5.7269,4.7035,4.2233,6.0067,5.7269,3.1077,3.5817,6.6529,6.7349,9.89721,10.1707,6.425,6.7986,13.18719,13.26,19.603,20.0495C303.7024,147.1547,317.3995,161.2531,317.8187,161.9366Z" transform="translate(0)" fill="#4a4a4c"/><path d="M267.0937,114.3372a22.65824,22.65824,0,0,0-4.5385-9.4597c-5.81439-6.9263-13.2327-9.4415-22.04539-7.8103a20.93436,20.93436,0,0,0-11.95691,7.0812c-4.9212,5.4589-6.1697,11.7108-4.903,18.6279a22.27947,22.27947,0,0,0,6.9901,12.4672,38.393,38.393,0,0,0,3.9825,2.6337,19.78873,19.78873,0,0,0,9.9519,2.8799,22.15174,22.15174,0,0,0,22.5193-26.4199Zm-22.6833,24.7066c-10.9817-.1185-19.7945-9.5054-19.6577-20.9427.1184-10.8177,9.405-19.6942,20.4505-19.5666a20.05023,20.05023,0,0,1,20.0587,20.4597C265.1161,130.4498,256.0482,139.1622,244.4104,139.0438Z" transform="translate(0)" fill="#1f1718"/><path d="M193.9037,116.0414a37.4917,37.4917,0,0,0-2.56089-8.3023c-.46481-1.1757-1.522-1.8865-2.26021-2.8343a21.55872,21.55872,0,0,0-16.9692-8.3753c-7.4457-.2642-13.5334,2.9437-18.0172,8.6669-5.2859,6.7349-5.5775,14.3628-2.5245,22.173,1.6222,4.1466,4.821,7.0903,8.1019,9.9246a6.73255,6.73255,0,0,1,1.13921.401,21.76466,21.76466,0,0,0,14.27159,2.816c8.512-1.3123,14.2261-6.0786,17.4613-13.8706A19.66,19.66,0,0,0,193.9037,116.0414Zm-22.4373,23.0024a20.26835,20.26835,0,1,1,.0911-40.5366c11.1731-.1094,20.58731,9.4415,20.1954,20.3047C192.0719,129.3835,183.1316,139.062,171.4664,139.0438Z" transform="translate(0)" fill="#1f1718"/><path d="M265.2602,118.9906c-.1483,11.4607-9.2101,20.1761-20.8512,20.054-10.9774-.1152-19.7943-9.509-19.6605-20.947.1264-10.8108,9.4079-19.6874,20.4584-19.5661A20.05154,20.05154,0,0,1,265.2602,118.9906Z" transform="translate(0)" fill="#b82c31"/><path d="M191.75281,118.811c.32009,10.5751-8.61971,20.2544-20.28921,20.2353a20.27136,20.27136,0,1,1,.0957-40.5426C182.7343,98.3981,192.142,107.9481,191.75281,118.811Z" transform="translate(0)" fill="#b82c31"/><path d="M56.3469,7.0539C32.9121,7.0251,14.1276,25.5084,13.9532,48.4304c-.1842,23.6602,18.68761,41.9326,41.764,42.201A41.91449,41.91449,0,0,0,98.3919,48.7947C98.4985,25.9398,79.5007,7.0826,56.3469,7.0539Zm31.4756,52.152c-4.1076,0-8.409.1918-12.6909-.0575A6.27585,6.27585,0,0,0,68.4567,65.84c.0968,3.758.029,7.516.0193,11.2836-.0096,2.1187-.3391,2.4446-2.5091,2.4542-6.4133.0096-12.8266,0-19.0462,0a3.62154,3.62154,0,0,1-1.5985-1.4572c0-4.2086.0097-8.5226-.0097-12.8271-.00969-3.8634-2.2185-6.0588-6.113-6.078-3.9235-.0192-7.847,0-11.7706-.0096-2.2767-.0096-3.0323-.7478-3.042-2.9814-.0194-5.4262.0097-10.8427-.0097-16.2688-.0097-1.7352.6298-2.8569,2.5673-2.8857,5.1539.3068,10.3368,1.1505,15.3841-.7669.1164-.0096.2229-.0096.3489-.0191a.8174.8174,0,0,1,.746-.3739c.2615-.2589.5037-.5081.7556-.7669.2325-.2397.465-.4698.6975-.7095,1.4629-2.6843,1.6469-5.5891,1.5597-8.561-.0774-2.646,0-5.2823-.0194-7.9282-.0097-1.045.31-1.9558,1.46291-1.9654,6.326-.0575,12.65229-.0287,18.77489-.0287a3.00427,3.00427,0,0,1,1.0754,2.6747c-.0194,2.8856.029,5.7809-.0194,8.6665a28.46021,28.46021,0,0,0,.4068,5.2918v.0096a.81623.81623,0,0,1,.3682.7382.78544.78544,0,0,1,.3778.7382c.126.1246.2519.2397.3779.3739a1.22378,1.22378,0,0,1,.7362.7286c.1163.115.2325.2397.3488.3547a12.90942,12.90942,0,0,0,7.1883,1.8886c3.1873-.2109,9.8816-.1342,10.0269-.0288a1.62456,1.62456,0,0,1,1.8697,1.7928V57.6721A3.31918,3.31918,0,0,1,87.8225,59.2059Z" transform="translate(0)" fill="#59585a"/><path d="M87.5416,37.3864c-.1453-.1054-6.8396-.1821-10.0269.0288a12.90942,12.90942,0,0,1-7.1883-1.8886c-.1163-.115-1.9279-2.7706-2.2089-2.9336l-.0096-.0096h.0096a28.46021,28.46021,0,0,1-.4068-5.2918c.0484-2.8856,0-5.7809.0194-8.6665a3.00427,3.00427,0,0,0-1.0754-2.6747c-6.1226,0-12.44889-.0288-18.77489.0287-1.15291.0096-1.47261.9204-1.46291,1.9654.0194,2.6459-.058,5.2822.0194,7.9282.0872,2.9719-.0968,5.8767-1.5597,8.561a28.42782,28.42782,0,0,1-2.548,1.8694c-5.0473,1.9174-10.2302,1.0737-15.3841.7669-1.9375.0288-2.577,1.1505-2.5673,2.8857.0194,5.4261-.0097,10.8426.0097,16.2688.0097,2.2336.7653,2.9718,3.042,2.9814,3.9236.0096,7.8471-.0096,11.7706.0096,3.8945.0192,6.10331,2.2146,6.113,6.078.0194,4.3045.0097,8.6185.0097,12.8271a3.62154,3.62154,0,0,0,1.5985,1.4572c6.2196,0,12.6329.0096,19.0462,0,2.17-.0096,2.4995-.3355,2.5091-2.4542.0097-3.7676.0775-7.5256-.0193-11.2836a6.27585,6.27585,0,0,1,6.6749-6.6916c4.2819.2493,8.5833.0575,12.6909.0575a3.31918,3.31918,0,0,0,1.5888-1.5338V39.1792A1.62456,1.62456,0,0,0,87.5416,37.3864ZM56.8894,63.0215A15.87742,15.87742,0,0,1,41.4762,47.1841c.1162-7.8899,7.4402-15.4059,16.1882-15.0608,7.80841.2972,15.3746,7.0367,14.929,15.4539C73.0971,56.0135,65.2016,63.1653,56.8894,63.0215Z" transform="translate(0)" fill="#6e6d6e"/><path d="M57.8201,28.2406c-10.9474-.4319-20.1125,8.9736-20.258,18.8471-.1576,10.8931,9.0439,19.6509,19.288,19.8188,10.4019.18,20.2823-8.7697,19.652-19.3269C77.0597,37.0463,67.5914,28.6125,57.8201,28.2406ZM57.129,58.7007c-6.41319,0-11.0563-3.851-11.2746-10.9772-.1819-6.1664,4.0249-10.9171,11.1535-11.493,6.8011.5639,11.323,4.4149,11.40791,11.2771C68.4885,54.1059,64.08781,58.7127,57.129,58.7007Z" transform="translate(0)" fill="#363638"/><path d="M56.9182,30.0238c10.5814.8734,17.6077,6.8593,17.7332,17.5182.1209,10.274-6.7185,17.4261-17.53059,17.4136C47.1403,64.9442,39.9135,58.9593,39.5812,47.8764,39.29381,38.2916,45.8402,30.9106,56.9182,30.0238Z" transform="translate(0)" fill="#4f4e4f"/></svg>