<svg id="Capa_1" data-name="Capa 1" xmlns="http://www.w3.org/2000/svg" viewBox="0 0 105 105"><title>icon_empty</title><circle cx="15.81482" cy="44.78856" r="15.81245" fill="#fff"/><circle cx="25.62075" cy="28.96779" r="15.81244" fill="#fff"/><circle cx="84.18162" cy="44.78856" r="15.81244" fill="#fff"/><circle cx="74.38401" cy="28.96779" r="15.81245" fill="#fff"/><circle cx="49.98454" cy="25.03043" r="22.2542" fill="#fff"/><path d="M23.4184,56.6137l12.11293,24.34-.80389-3.25953.80389,3.25953-2.00257-24.34,8.38843,25.83838,4.90772,3.55444,3.54136-31.5916L53.715,86.00652l4.84945-3.94568,9.81068-24.50769L64.546,81.32l1.37231-3.143L64.546,81.32,76.28074,56.76473,68.37511,35.35841H27.72678Z" fill="#fff"/><path d="M90.13105,30.13437c.02973-.38649.05827-.773.05827-1.16658A15.78319,15.78319,0,0,0,69.29911,14.00441a22.22729,22.22729,0,0,0-38.62675-.0107A15.78973,15.78973,0,0,0,9.80593,28.96779c0,.39361.03091.7801.06064,1.16658A15.81,15.81,0,1,0,31.62489,44.78023c0-.39361-.03092-.78009-.05708-1.16657a15.78043,15.78043,0,0,0,3.56633-2.03706,22.1617,22.1617,0,0,0,29.7127-.0107A15.73637,15.73637,0,0,0,68.431,43.616c-.02973.38648-.05827.773-.05827,1.16658A15.81363,15.81363,0,1,0,90.13223,30.13437" fill="#fff"/><path d="M18.82819,105H14.95148l12.874-5.13248L18.82819,82.67206l17.93274,9.93555L33.87124,82.45207,49.736,91.97021l15.791-9.51814L63.3235,91.72049l19.46321-9.26842L74.34,99.066,83.33016,105Z" fill="#fff"/><path d="M18.82819,105h60.592l-8.03525-5.13248,8.03525-14.7624L60.32441,95.31892l2.93726-9.71555L49.85611,94.44606,36.45175,85.60337l2.571,9.71555-15.4224-7.9532,8.26119,13.4115Z" fill="#fff"/><path d="M30.15031,105l5.1408-2.62926L30.15031,93.44l11.86915,6.12544-1.95382-8.21125,9.07815,5.99344,10.38506-6.72715-2.57694,8.329,16.56043-8.329-6.88888,10.39933L74.33525,105Z" fill="#fff"/><path d="M41.77449,105l-5.50231-5.934,9.42421,3.55443L43.61652,97.1122l5.532,3.95162L55.488,97.1122l-1.7124,5.37625,11.75141-3.90763L59.77383,105Z" fill="#fff"/></svg>