<svg id="Layer_1" data-name="Layer 1" xmlns="http://www.w3.org/2000/svg" viewBox="0 0 1000 114"><path d="M972.13,53.65c-2.77,0-4.52-2.08-8.73-7.11-3-3.57-5-5.93-3.46-9.3a5.72,5.72,0,0,1,5-3.31,5.27,5.27,0,0,1,3.23,1.14,6.15,6.15,0,0,1,1-1.25,5.46,5.46,0,0,1,3.5-1.69,5,5,0,0,1-.4-2.08,5.25,5.25,0,0,1,1.2-3.41,5.88,5.88,0,0,1-1-.9,5.28,5.28,0,0,1-1.08-1.84,5.57,5.57,0,0,1-2.77.68,5.39,5.39,0,0,1-3.15-.94,5.37,5.37,0,0,1-1.18,1.6,5.48,5.48,0,0,1-3.9,1.62,5.54,5.54,0,0,1-5.11-3.49c-.86-2.12.84-15.53,2.18-17.31a5.71,5.71,0,0,1,8.36-.72c.21.19.69.63,3.47,4.64l.54.77,2.06-1.64c2.19-1.76,5.07-4,5.72-4.47a6.09,6.09,0,0,1,3.47-1.14A5.7,5.7,0,0,1,985,5.15c2.68,2.74,1.7,5.58-.07,10.73,0,.11-.07.23-.11.34h1c4.15,0,5.87,0,7.25.41,3.4,1,3.4,4.05,3.4,5.2a5.45,5.45,0,0,1-1.62,4.46l-.08.07c-.62.49-4,2.55-5.47,3.41l-2.58,1.56c.54.62,1.19,1.33,1.92,2.14,5,5.42,5.2,6.27,5.41,7a5.6,5.6,0,0,1-.82,4.95,5.8,5.8,0,0,1-4.69,2.38c-.84,0-1.33-.09-10.5-2.65a28.67,28.67,0,0,1-.61,4.6h0A5.35,5.35,0,0,1,972.13,53.65Z" fill="#333"/><path d="M981.07,7a2.12,2.12,0,0,1,1.51.66c1,1,.88,1.79-.94,7.08-.86,2.55-1.59,4.71-1.59,4.8a44.8,44.8,0,0,0,5.8.18c7.17,0,7.15,0,7.15,2.13,0,1.07-.09,1.52-.39,1.77s-2.49,1.62-5.06,3.14c-5.47,3.29-5.91,3.59-5.91,3.93,0,.16,2,2.45,4.43,5.13a42.18,42.18,0,0,1,4.66,5.61,2.2,2.2,0,0,1-2.16,2.82c-.48,0-3-.68-11-2.91a10.29,10.29,0,0,0-2.24-.49.41.41,0,0,0-.3.08,22.37,22.37,0,0,0-.48,3.66,28.61,28.61,0,0,1-.5,4.13,1.88,1.88,0,0,1-2,1.43c-.93,0-2-1-6-5.86-3.07-3.65-3.48-4.45-3-5.61A2.25,2.25,0,0,1,965,37.43c.77,0,1.59.66,3.29,2.66a11,11,0,0,0,2,2h0a4.93,4.93,0,0,0,.34-1.66c.27-3.18.36-3.5,1-4.18a2,2,0,0,1,1.27-.63,41.53,41.53,0,0,1,4.45,1c2,.53,3.66.94,3.92.94h0a20.23,20.23,0,0,0-2.12-2.65c-3.18-3.64-3.47-4.07-3.47-4.89,0-1.09.66-1.75,3.43-3.43,3.47-2.13,3.47-2.13.63-2.13s-4-.25-4.67-1-.66-1.39.38-4.55a17.87,17.87,0,0,0,.8-2.81l0,0c-.2,0-.91.52-4.27,3.11-2.16,1.68-2.54,1.88-3.38,1.88-1.14,0-1.66-.48-3.66-3.36A5.92,5.92,0,0,0,963.48,16h0a19.11,19.11,0,0,0-.57,3.13c-.36,2.66-.45,3-1,3.57a2.09,2.09,0,0,1-1.48.64A2,2,0,0,1,958.5,22c-.39-1,1.14-13,1.75-13.87a2.11,2.11,0,0,1,1.7-.82,2.18,2.18,0,0,1,1.48.57c.25.23,1.59,2.06,3,4.06a34,34,0,0,0,2.75,3.66c.12,0,2.34-1.7,4.93-3.79s5.07-4,5.5-4.32A2.64,2.64,0,0,1,981.07,7m0-7a9.7,9.7,0,0,0-5.46,1.75c-.71.49-3.15,2.41-5.06,4a16.76,16.76,0,0,0-2.4-3A9.19,9.19,0,0,0,954.63,4c-1,1.28-1.6,2.47-2.57,10.19s-.65,9,0,10.49a9,9,0,0,0,14.58,3.22,9.81,9.81,0,0,0,2,.2H969a8.76,8.76,0,0,0-.21,1.67,10.18,10.18,0,0,0-1.45,1,8.32,8.32,0,0,0-2.34-.33,9.26,9.26,0,0,0-8.12,5.2.89.89,0,0,1-.08.17c-2.42,5.37.83,9.24,4,13,4.66,5.57,7,8.36,11.41,8.36a8.86,8.86,0,0,0,8.63-6.26,8.62,8.62,0,0,0,.32-1.32c5.86,1.62,6.37,1.68,7.49,1.68a9.28,9.28,0,0,0,7.52-3.83,9.13,9.13,0,0,0,1.33-8.06c-.34-1.13-.71-2.19-5.23-7.22,1.48-.89,4.07-2.47,4.8-3.05l.15-.12a8.88,8.88,0,0,0,2.86-7.12c0-6-3.7-7.93-5.91-8.58a16,16,0,0,0-4.47-.53c.94-3.62,1-6.91-2-10l-.12-.13A9.15,9.15,0,0,0,981.07,0Z" fill="#fff"/><path d="M925.38,79.5a15.9,15.9,0,0,1-9.68-3.19,19,19,0,0,1-5.09-6.49,12.64,12.64,0,0,0-3.79-4.67c-4-3.27-7.35-4.67-14.82-6.26-2.92-.7-3.58-2.58-3.72-3.64a3.92,3.92,0,0,1,.53-2.57,5.42,5.42,0,0,1-4.48-2.59,5.7,5.7,0,0,1-.16-6.47c2.14-3.53,8.38-5.17,13.93-5.59a8.36,8.36,0,0,1,3.3-4c.52-.29,1.28-.74,13.72-4,16.59-4.31,24.58-6.4,26.26-6.91l.37-.11,1.36-1.91a32.42,32.42,0,0,1,2.93-3.8A7.52,7.52,0,0,1,948.65,16l.07,0a6.39,6.39,0,0,1,2.08-.43,4.23,4.23,0,0,1,2.8,1.11l.18.15a6.91,6.91,0,0,1,1.65,2.82l.34,0a4.21,4.21,0,0,1,2.93,1.14c0,.06.11.11.17.17.66.7.88.94,3.07,9.18C964,38,964,38.74,964,39.2a4.47,4.47,0,0,1-2.14,4c-.47.28-.79.44-5.06,1.53C951.54,46,946.15,47.41,943,48.28c.2.81.45,1.79.74,2.91,1.52,5.8,1.71,6.69,1.71,9.36a16.87,16.87,0,0,1-2.16,8.8c-2.85,5.62-8.14,9.08-15.28,10A19.37,19.37,0,0,1,925.38,79.5Zm6-18.77A11,11,0,0,1,932.78,62a6.16,6.16,0,0,0,.27-1.59C932.58,60.47,932,60.58,931.39,60.73Z" fill="#333"/><path d="M950.8,19.08c.22,0,.34.11.61.34a5.71,5.71,0,0,1,.94,2.09,9.38,9.38,0,0,0,.65,1.91.65.65,0,0,0,.35.06,6.72,6.72,0,0,0,1.24-.15,7,7,0,0,1,1.18-.19.71.71,0,0,1,.55.21c.36.39,4.2,14.81,4.2,15.85a1,1,0,0,1-.41.94c-.22.13-2.11.63-4.15,1.15-7.84,2-16.9,4.37-17.08,4.52a50.91,50.91,0,0,0,1.43,6.27c1.47,5.66,1.59,6.25,1.59,8.47a13.44,13.44,0,0,1-1.77,7.2c-2.32,4.57-6.68,7.36-12.61,8.11a17.72,17.72,0,0,1-2.14.14,12.33,12.33,0,0,1-7.62-2.52,15.2,15.2,0,0,1-4-5.27A15.81,15.81,0,0,0,909,62.44c-4.47-3.63-8.29-5.27-16.3-7-.66-.16-.93-.34-1-.68s.25-.66,1.36-1.34c1.78-1.12,3.14-2.32,3.14-2.82s-1.16-1.59-2-1.75a3.15,3.15,0,0,0-.62,0,20.94,20.94,0,0,0-2.4.18,16.36,16.36,0,0,1-2,.18,2,2,0,0,1-2-1.07,2.22,2.22,0,0,1-.07-2.7c1.27-2.09,6.43-3.73,12.38-4l1.36,0,.12-.91a5.08,5.08,0,0,1,2.15-3.41c.55-.32,5.64-1.75,12.84-3.63C933.2,29,940.67,27,942.4,26.51l1.5-.43L946,23.17c1.12-1.61,2.21-3,2.39-3.2a8.14,8.14,0,0,1,2.45-.89M914.49,45.69a50.42,50.42,0,0,0,5.85-1.33c4.82-1.25,5.86-1.59,6.3-2.07.63-.72.63-.88-.07-1.56a1.65,1.65,0,0,0-1-.55h0c-.79,0-11.36,2.89-11.58,3.11a4.18,4.18,0,0,0,.5,2.39h.07m2,7.64c.07,0,1.88-.48,4-1s4.75-1.25,5.7-1.5a7.38,7.38,0,0,0,2.21-.89,1.23,1.23,0,0,0,.06-1.86,1.18,1.18,0,0,0-.92-.33,30.59,30.59,0,0,0-5.48,1.19c-6.77,1.77-6.36,1.64-6.36,2.3a4.83,4.83,0,0,0,.75,2.13m11.89,14a8.78,8.78,0,0,1-4.83-1.72,12,12,0,0,1-3-2.79l-1.2-1.34-.54.52c-1.18,1.12-.57,4,1.27,6a7.26,7.26,0,0,0,5.61,2.38,12,12,0,0,0,3-.41,9.15,9.15,0,0,0,4.93-2.68A9.91,9.91,0,0,0,936.42,59c-.09-.55-.18-1.07-.2-1.18a1.7,1.7,0,0,0-.45-.62,2.08,2.08,0,0,0-1.51-.44,24.64,24.64,0,0,0-5.31,1c-2.86.74-3.77,1.06-3.81,1.36-.09.45,2.22,3,4.06,4.38,2.21,1.68,2.34,3.2.37,3.7a4.83,4.83,0,0,1-1.15.13M950.8,12.08a9.72,9.72,0,0,0-3.16.59l-.07,0a10.73,10.73,0,0,0-3.83,2c-.33.29-1.09,1-3.51,4.45l-.62.88c-2.9.8-11.79,3.12-25.37,6.65-12.91,3.39-13.69,3.84-14.59,4.37a11.39,11.39,0,0,0-3.76,3.68c-4.86.58-11.79,2.26-14.71,7.06A9.21,9.21,0,0,0,881.41,52a9.39,9.39,0,0,0,3.35,3.13c0,.17,0,.34,0,.51v.06a7.79,7.79,0,0,0,6.27,6.56l.19,0c7.59,1.62,10.15,3,13.35,5.56a9,9,0,0,1,2.84,3.49l0,.07a21.68,21.68,0,0,0,6.15,7.72A19.34,19.34,0,0,0,925.38,83a24.09,24.09,0,0,0,3-.19c8.24-1,14.62-5.26,18-11.89a20.35,20.35,0,0,0,2.53-10.37c0-3.08-.3-4.42-1.7-9.78,2.92-.78,6.63-1.73,10.45-2.68,4.22-1.08,5-1.33,6-1.91a8,8,0,0,0,3.88-7c0-.86,0-1.68-2.2-10-2.35-8.84-2.63-9.32-3.9-10.68l-.35-.34a7.7,7.7,0,0,0-3.26-1.81,7.75,7.75,0,0,0-1.67-2.14l-.24-.21,0,0a7.7,7.7,0,0,0-5.05-1.93Z" fill="#fff"/><path d="M968.88,41.4c-1.74,0-3.2-1.08-4.52-2.25a5.49,5.49,0,0,1-1.38.19c-3.44,0-4-1.86-5.82-8.05-1.16-3.91-1.65-5.54-.59-7.25a4.22,4.22,0,0,1,3.2-2c.28-3.21.85-4,1.15-4.37l.15-.18A3.88,3.88,0,0,1,964,16c2,0,3.32,1.37,4.42,2.82,2.21-1.59,3.46-2.29,4.94-2.29a4,4,0,0,1,4,3.67,4.15,4.15,0,0,1-.14,1.71,4.18,4.18,0,0,1,3.61,2.45,4.33,4.33,0,0,1-.63,4.6,6.87,6.87,0,0,1-2,1.44c1.12,1.34,1.84,2.6,1.62,4.17a4.09,4.09,0,0,1-4.28,3.59,12,12,0,0,1-2.75-.41,4.1,4.1,0,0,1-.56,1.75A3.91,3.91,0,0,1,968.88,41.4Zm-7.17-19.51Z" fill="#333"/><path d="M964,19.49c.46,0,1,.59,2.18,2.18a13,13,0,0,0,1.55,1.91c.07,0,1.25-.82,2.61-1.84,1.62-1.18,2.53-1.72,3-1.72.3,0,.43.21.48.61A7.07,7.07,0,0,1,973,23c-.77,1.52-.86,1.82-.56,2a26.3,26.3,0,0,0,4.58.39.77.77,0,0,1,.5,1.27,13.1,13.1,0,0,1-2.4,1.38c-1.48.71-2.12,1.14-2.12,1.43a9.33,9.33,0,0,0,1.73,2.25c1.23,1.34,1.68,2,1.63,2.36s-.25.56-.8.56a14,14,0,0,1-2.81-.51,17.09,17.09,0,0,0-2.66-.51H970c-.2.07-.36.73-.47,2a13,13,0,0,1-.28,2.07.39.39,0,0,1-.36.19c-.44,0-1.18-.46-2.2-1.38s-1.69-1.33-2.16-1.33a.76.76,0,0,0-.59.31,1.47,1.47,0,0,1-.95.34c-.82,0-.85-.06-2.46-5.54-.91-3-1.16-4.13-1-4.43s.63-.38,1.74-.43c.94,0,1.57-.18,1.62-.34s.2-1.34.34-2.63a10.56,10.56,0,0,1,.47-2.68,1.65,1.65,0,0,1,.32-.3m0-7a7.27,7.27,0,0,0-5.63,2.74l-.29.36a8.26,8.26,0,0,0-1.53,3.86,7.24,7.24,0,0,0-3,2.82c-1.83,3-1,5.82.26,10A53.88,53.88,0,0,0,955.64,38,7.78,7.78,0,0,0,963,42.84h.35a9.13,9.13,0,0,0,5.55,2.06A7.38,7.38,0,0,0,975,41.63l.53,0A7.57,7.57,0,0,0,983.32,35a7.43,7.43,0,0,0-.48-3.76h0A7.82,7.82,0,0,0,984,22.89a7.7,7.7,0,0,0-3.23-3.51A7.45,7.45,0,0,0,973.4,13h0A8.86,8.86,0,0,0,969,14.28,7.71,7.71,0,0,0,964,12.49Z" fill="#fff"/><path d="M884.35,110.5a9.41,9.41,0,0,1-9-5.55c-1.74-3.26-1.92-5.11-1.92-11.55,0-5.12,0-6.05.71-8.45.9-3.08,2.81-6.77,6-11.58,1.1-1.69,1.79-2.88,2.1-3.47a9,9,0,0,0-.19-1.19c-.77-3.68-.44-6.77.92-9a10.76,10.76,0,0,1,6.22-4.33,11.09,11.09,0,0,1,2.58-.25,22.68,22.68,0,0,1,5.46.68,35.14,35.14,0,0,1,13.88,8c1.76,1.82,2.73,3.3,2.73,5.84,0,1.94-.83,4.53-4.76,5.84a5.19,5.19,0,0,0-.58.24c-.14.48-.17,2,.85,6.51,1.7,7.58,2,11.62,1,15.45-1.34,5.17-4.28,7.84-10.15,9.23-.94.22-4.24,1.07-7.47,1.95-4.79,1.26-6.45,1.62-8.25,1.62Z" fill="#333"/><path d="M891.76,58.65a19.73,19.73,0,0,1,4.58.56c3.88,1,9.7,4.36,12.22,7,1.45,1.5,1.77,2.14,1.77,3.43s-.66,2-2.36,2.52c-3.36,1.12-3.75,3.23-2.05,10.84,1.57,7,1.84,10.53,1,13.8-1,3.87-2.95,5.61-7.56,6.7-1.07.25-4.47,1.14-7.59,2-4.49,1.18-6,1.5-7.33,1.5h-.09a6,6,0,0,1-5.89-3.66c-1.34-2.52-1.52-3.72-1.52-9.94,0-5.18,0-5.61.57-7.45.8-2.73,2.59-6.18,5.54-10.66a28.36,28.36,0,0,0,2.66-4.63,8.54,8.54,0,0,0-.25-2.7c-.57-2.73-.41-4.95.48-6.38a7.15,7.15,0,0,1,4-2.77,8,8,0,0,1,1.78-.16m3.51,14.88a3,3,0,0,0,2.14-1,2.08,2.08,0,0,0,.77-1.93c0-1-.07-1.23-1-2a2.29,2.29,0,0,0-2-.89,2.08,2.08,0,0,0-1.93.89,2.16,2.16,0,0,0-.88,2.06,2,2,0,0,0,.75,1.93,3,3,0,0,0,2.13,1m-3.51-21.88a14.85,14.85,0,0,0-3.4.34A14.14,14.14,0,0,0,880,57.88c-1.86,3-2.33,6.83-1.41,11.37-.32.54-.78,1.28-1.38,2.21-3.37,5.1-5.41,9.08-6.41,12.53-.85,2.86-.85,4.11-.85,9.41,0,6.52.19,9.17,2.33,13.2a13,13,0,0,0,12.08,7.4h.09c2.3,0,4.43-.5,9.11-1.73,3.26-.88,6.5-1.72,7.4-1.93,4.82-1.14,10.61-3.5,12.75-11.76,1.29-5,.63-10.08-1-17.1-.35-1.57-.55-2.68-.67-3.45a9.17,9.17,0,0,0,5.25-8.37c0-4.08-1.92-6.41-3.72-8.28-3.42-3.58-10.36-7.58-15.49-8.94a26.7,26.7,0,0,0-6.36-.79Z" fill="#fff"/><path d="M979.58,7.52c-.43.3-2.91,2.23-5.5,4.32s-4.81,3.79-4.93,3.79A34,34,0,0,1,966.4,12c-1.38-2-2.72-3.83-3-4.06a2.2,2.2,0,0,0-3.18.25c-.61.82-2.14,12.92-1.75,13.87a2,2,0,0,0,3.36.69c.57-.55.66-.91,1-3.57a19.11,19.11,0,0,1,.57-3.13c.12-.12.77.65,1.5,1.7,2,2.88,2.52,3.36,3.66,3.36.84,0,1.22-.2,3.38-1.88,3.75-2.89,4.2-3.21,4.32-3.09a17.87,17.87,0,0,1-.8,2.81c-1,3.16-1.09,3.75-.38,4.55s1.77,1,4.67,1,2.84,0-.63,2.13c-2.77,1.68-3.43,2.34-3.43,3.43,0,.82.29,1.25,3.47,4.89a20.23,20.23,0,0,1,2.12,2.65,31,31,0,0,1-4-.93,41.53,41.53,0,0,0-4.45-1,2,2,0,0,0-1.27.63c-.66.68-.75,1-1,4.18a4.93,4.93,0,0,1-.34,1.66,9.48,9.48,0,0,1-2-2c-1.7-2-2.52-2.66-3.29-2.66a2.25,2.25,0,0,0-1.82,1.25c-.52,1.16-.11,2,3,5.61,4.08,4.89,5.11,5.86,6,5.86a1.88,1.88,0,0,0,2-1.43,28.61,28.61,0,0,0,.5-4.13,22.37,22.37,0,0,1,.48-3.66c.16-.18.86-.07,2.54.41,8,2.23,10.47,2.91,11,2.91a2.2,2.2,0,0,0,2.16-2.82,42.18,42.18,0,0,0-4.66-5.61c-2.43-2.68-4.4-5-4.43-5.13,0-.34.44-.64,5.91-3.93,2.57-1.52,4.84-3,5.06-3.14s.39-.7.39-1.77c0-2.13,0-2.13-7.15-2.13a44.8,44.8,0,0,1-5.8-.18c0-.09.73-2.25,1.59-4.8,1.82-5.29,1.91-6.08.94-7.08A2.2,2.2,0,0,0,979.58,7.52Z" fill="#333"/><path d="M949.67,19.38a4.77,4.77,0,0,0-1.32.59c-.18.16-1.27,1.59-2.39,3.2l-2.06,2.91-1.5.43c-1.73.52-9.2,2.47-26.39,7-7.2,1.88-12.29,3.31-12.84,3.63A5.08,5.08,0,0,0,901,40.5l-.12.91-1.36,0c-5.95.25-11.11,1.89-12.38,4a2.22,2.22,0,0,0,.07,2.7c.75,1.11,1.34,1.25,4,.89a13.83,13.83,0,0,1,3-.14c.86.16,2,1.16,2,1.75s-1.36,1.7-3.14,2.82c-1.11.68-1.4,1-1.36,1.34s.32.52,1,.68c8,1.7,11.83,3.34,16.3,7a15.81,15.81,0,0,1,4.68,5.77,15.2,15.2,0,0,0,4,5.27,12.77,12.77,0,0,0,9.76,2.38c5.93-.75,10.29-3.54,12.61-8.11a13.44,13.44,0,0,0,1.77-7.2c0-2.22-.12-2.81-1.59-8.47a50.91,50.91,0,0,1-1.43-6.27c.18-.15,9.24-2.56,17.08-4.52,2-.52,3.93-1,4.15-1.15a1,1,0,0,0,.41-.94c0-1-3.84-15.46-4.2-15.85s-.54-.27-1.73,0a3.32,3.32,0,0,1-1.59.09,9.38,9.38,0,0,1-.65-1.91,5.71,5.71,0,0,0-.94-2.09C950.87,19,950.94,19,949.67,19.38Zm-23.1,21.35c.7.68.7.84.07,1.56-.44.48-1.48.82-6.3,2.07a39.68,39.68,0,0,1-5.92,1.32,4.18,4.18,0,0,1-.5-2.39c.22-.22,10.79-3.06,11.58-3.11A1.64,1.64,0,0,1,926.57,40.73Zm2,7.31a1.23,1.23,0,0,1-.06,1.86,7.38,7.38,0,0,1-2.21.89c-.95.25-3.52.91-5.7,1.5s-4,1-4,1a4.83,4.83,0,0,1-.75-2.13c0-.66-.41-.53,6.36-2.3C927.27,47.56,927.93,47.47,928.54,48Zm7.23,9.15a1.7,1.7,0,0,1,.45.62c0,.11.11.63.2,1.18a9.91,9.91,0,0,1-2.79,8.26,9.15,9.15,0,0,1-4.93,2.68c-3.61.94-6.56.25-8.58-2-1.84-2-2.46-4.88-1.27-6l.54-.52,1.2,1.34a12,12,0,0,0,3,2.79,7.82,7.82,0,0,0,6,1.59c2-.5,1.84-2-.37-3.7-1.84-1.43-4.15-3.93-4.06-4.38,0-.3,1-.62,3.81-1.36C933.25,56.62,935,56.47,935.77,57.19Z" fill="#333"/><path d="M963.72,19.79a10.56,10.56,0,0,0-.47,2.68c-.14,1.29-.27,2.47-.34,2.63s-.68.3-1.62.34c-1.11,0-1.59.16-1.74.43s.06,1.39,1,4.43c1.61,5.48,1.64,5.54,2.46,5.54a1.47,1.47,0,0,0,.95-.34c.5-.61,1.18-.36,2.75,1,1.41,1.25,2.27,1.66,2.56,1.19a13,13,0,0,0,.28-2.07c.11-1.27.27-1.93.47-2a12.37,12.37,0,0,1,2.77.5c2.82.68,3.52.68,3.61,0,0-.34-.4-1-1.63-2.36A9.33,9.33,0,0,1,973,29.48c0-.29.64-.72,2.12-1.43a13.1,13.1,0,0,0,2.4-1.38.77.77,0,0,0-.5-1.27,26.3,26.3,0,0,1-4.58-.39c-.3-.18-.21-.48.56-2a7.07,7.07,0,0,0,.87-2.38c-.12-1.05-.87-.8-3.5,1.11-1.36,1-2.54,1.84-2.61,1.84a13,13,0,0,1-1.55-1.91c-1.16-1.59-1.72-2.18-2.18-2.18A1.65,1.65,0,0,0,963.72,19.79Z" fill="#333"/><path d="M890,58.81a7.15,7.15,0,0,0-4,2.77c-.89,1.43-1.05,3.65-.48,6.38a8.54,8.54,0,0,1,.25,2.7,28.36,28.36,0,0,1-2.66,4.63c-2.95,4.48-4.74,7.93-5.54,10.66-.54,1.84-.57,2.27-.57,7.45,0,6.22.18,7.42,1.52,9.94a6,6,0,0,0,6,3.66c1.36,0,2.84-.32,7.33-1.5,3.12-.84,6.52-1.73,7.59-2,4.61-1.09,6.56-2.83,7.56-6.7.84-3.27.57-6.83-1-13.8-1.7-7.61-1.31-9.72,2.05-10.84,1.7-.57,2.36-1.27,2.36-2.52s-.32-1.93-1.77-3.43c-2.52-2.66-8.34-6-12.22-7A16.69,16.69,0,0,0,890,58.81Zm7.24,9.72c.89.81,1,1,1,2a2.08,2.08,0,0,1-.77,1.93,2.76,2.76,0,0,1-4.27,0,2,2,0,0,1-.75-1.93,2.16,2.16,0,0,1,.88-2.06,2.08,2.08,0,0,1,1.93-.89A2.29,2.29,0,0,1,897.22,68.53Z" fill="#333"/></svg>