<svg id="Layer_1" data-name="Layer 1" xmlns="http://www.w3.org/2000/svg" xmlns:xlink="http://www.w3.org/1999/xlink" viewBox="0 0 1000 114"><defs><linearGradient id="linear-gradient" x1="978.67" y1="34.98" x2="996.5" y2="34.98" gradientUnits="userSpaceOnUse"><stop offset="0" stop-color="#30678c"/><stop offset="1" stop-color="#1f668e"/></linearGradient><linearGradient id="linear-gradient-2" x1="907.45" y1="57" x2="991.3" y2="57" xlink:href="#linear-gradient"/><linearGradient id="linear-gradient-3" x1="814.24" y1="61.07" x2="907.23" y2="61.07" xlink:href="#linear-gradient"/><linearGradient id="linear-gradient-4" x1="802.94" y1="54.38" x2="830.85" y2="54.38" xlink:href="#linear-gradient"/><linearGradient id="linear-gradient-5" x1="799.45" y1="26.18" x2="827.85" y2="26.18" xlink:href="#linear-gradient"/><linearGradient id="linear-gradient-6" x1="835.06" y1="25.87" x2="855.24" y2="25.87" xlink:href="#linear-gradient"/><linearGradient id="linear-gradient-7" x1="982.75" y1="221.49" x2="989.99" y2="217.31" gradientTransform="matrix(1, 0, 0, -1, 0, 254)" gradientUnits="userSpaceOnUse"><stop offset="0" stop-color="#535758"/><stop offset="0.19" stop-color="#515455"/><stop offset="0.39" stop-color="#4b4d4d"/><stop offset="0.59" stop-color="#424241"/><stop offset="0.8" stop-color="#353433"/><stop offset="1" stop-color="#222"/></linearGradient><linearGradient id="linear-gradient-8" x1="931.87" y1="204.37" x2="973.75" y2="180.19" gradientTransform="matrix(1, 0, 0, -1, 0, 254)" gradientUnits="userSpaceOnUse"><stop offset="0" stop-color="#898c90"/><stop offset="0.15" stop-color="#87898d"/><stop offset="0.31" stop-color="#7c7e82"/><stop offset="0.48" stop-color="#6c6e71"/><stop offset="0.65" stop-color="#57585a"/><stop offset="0.82" stop-color="#40403f"/><stop offset="0.99" stop-color="#252424"/><stop offset="1" stop-color="#222"/></linearGradient><linearGradient id="linear-gradient-9" x1="981.49" y1="205.2" x2="987.66" y2="201.64" xlink:href="#linear-gradient-7"/><linearGradient id="linear-gradient-10" x1="815.47" y1="217.77" x2="906.68" y2="175.24" gradientTransform="matrix(1, 0, 0, -1, 0, 254)" gradientUnits="userSpaceOnUse"><stop offset="0" stop-color="#c77538"/><stop offset="0.6" stop-color="#d2c14e"/><stop offset="0.72" stop-color="#e2d78c"/><stop offset="0.86" stop-color="#f3eecc"/><stop offset="0.95" stop-color="#fdfcf3"/><stop offset="1" stop-color="#fff"/></linearGradient><linearGradient id="linear-gradient-11" x1="817.28" y1="180.54" x2="831.85" y2="173.74" gradientTransform="matrix(1, 0, 0, -1, 0, 254)" gradientUnits="userSpaceOnUse"><stop offset="0" stop-color="#cb8c3e"/><stop offset="1" stop-color="#ca9b41"/></linearGradient><linearGradient id="linear-gradient-12" x1="804.07" y1="202.79" x2="826.46" y2="192.35" gradientTransform="matrix(1, 0, 0, -1, 0, 254)" gradientUnits="userSpaceOnUse"><stop offset="0" stop-color="#c77539"/><stop offset="1" stop-color="#ca8e3f"/></linearGradient><linearGradient id="linear-gradient-13" x1="804.48" y1="233.4" x2="824.15" y2="224.23" gradientTransform="matrix(1, 0, 0, -1, 0, 254)" gradientUnits="userSpaceOnUse"><stop offset="0" stop-color="#c36738"/><stop offset="1" stop-color="#ca7d3a"/></linearGradient><linearGradient id="linear-gradient-14" x1="837.56" y1="231.37" x2="849.62" y2="225.75" gradientTransform="matrix(1, 0, 0, -1, 0, 254)" gradientUnits="userSpaceOnUse"><stop offset="0" stop-color="#cb883d"/><stop offset="1" stop-color="#cb9641"/></linearGradient><linearGradient id="linear-gradient-15" x1="848.2" y1="189.54" x2="854.88" y2="189.54" gradientTransform="matrix(1, 0, 0, -1, 0, 254)" gradientUnits="userSpaceOnUse"><stop offset="0" stop-color="#1b6192"/><stop offset="1" stop-color="#2f668f"/></linearGradient><radialGradient id="radial-gradient" cx="941.52" cy="122.37" r="8.82" gradientTransform="matrix(0.42, 0, 0, -0.38, 467.63, 110.42)" gradientUnits="userSpaceOnUse"><stop offset="0" stop-color="#5e7188"/><stop offset="1" stop-color="#31678e"/></radialGradient><radialGradient id="radial-gradient-2" cx="959.93" cy="122.26" r="11.04" gradientTransform="matrix(0.42, 0, 0, -0.38, 467.63, 110.43)" gradientUnits="userSpaceOnUse"><stop offset="0.2" stop-color="#5e7188"/><stop offset="1" stop-color="#31678e"/></radialGradient><radialGradient id="radial-gradient-3" cx="951.22" cy="51.41" r="9.64" gradientTransform="matrix(0.42, 0, 0, -0.84, 467.63, 107.4)" gradientUnits="userSpaceOnUse"><stop offset="0" stop-color="#787b84"/><stop offset="1" stop-color="#3e6da5"/></radialGradient><linearGradient id="linear-gradient-16" x1="873.34" y1="189.54" x2="880.31" y2="189.54" gradientTransform="matrix(1, 0, 0, -1, 0, 254)" gradientUnits="userSpaceOnUse"><stop offset="0" stop-color="#2c668f"/><stop offset="1" stop-color="#1b6192"/></linearGradient><linearGradient id="linear-gradient-17" x1="865.23" y1="184.84" x2="872.19" y2="184.84" gradientTransform="matrix(1, 0, 0, -1, 0, 254)" gradientUnits="userSpaceOnUse"><stop offset="0" stop-color="#808387"/><stop offset="1" stop-color="#7e98ac"/></linearGradient><linearGradient id="linear-gradient-18" x1="872.42" y1="184.84" x2="876.59" y2="184.84" gradientTransform="matrix(1, 0, 0, -1, 0, 254)" gradientUnits="userSpaceOnUse"><stop offset="0" stop-color="#7e98ac"/><stop offset="1" stop-color="#97b6d9"/></linearGradient><linearGradient id="linear-gradient-19" x1="848.22" y1="199.77" x2="855.71" y2="199.77" gradientTransform="matrix(1, 0, 0, -1, 0, 254)" gradientUnits="userSpaceOnUse"><stop offset="0" stop-color="#7f8387"/><stop offset="1" stop-color="#7f8b96"/></linearGradient><linearGradient id="linear-gradient-20" x1="857.49" y1="199.77" x2="864.47" y2="199.77" gradientTransform="matrix(1, 0, 0, -1, 0, 254)" gradientUnits="userSpaceOnUse"><stop offset="0" stop-color="#7d8c98"/><stop offset="1" stop-color="#7f94a6"/></linearGradient><linearGradient id="linear-gradient-21" x1="865.97" y1="199.77" x2="871.58" y2="199.77" xlink:href="#linear-gradient-20"/><linearGradient id="linear-gradient-22" x1="873.08" y1="199.77" x2="880.31" y2="199.77" gradientTransform="matrix(1, 0, 0, -1, 0, 254)" gradientUnits="userSpaceOnUse"><stop offset="0" stop-color="#7e9eb6"/><stop offset="1" stop-color="#80a6c3"/></linearGradient><radialGradient id="radial-gradient-4" cx="945.98" cy="84.76" r="15.35" gradientTransform="matrix(0.42, 0, 0, -0.42, 467.63, 110.15)" gradientUnits="userSpaceOnUse"><stop offset="0" stop-color="#7b7e84"/><stop offset="0.24" stop-color="#757c88"/><stop offset="0.62" stop-color="#637792"/><stop offset="1" stop-color="#48709e"/></radialGradient><linearGradient id="linear-gradient-23" x1="848.22" y1="179.46" x2="855.38" y2="179.46" gradientTransform="matrix(1, 0, 0, -1, 0, 254)" gradientUnits="userSpaceOnUse"><stop offset="0" stop-color="#1f668e"/><stop offset="0.55" stop-color="#32688d"/><stop offset="1" stop-color="#426b8b"/></linearGradient><radialGradient id="radial-gradient-5" cx="955.47" cy="85.51" r="13.71" xlink:href="#radial-gradient-4"/><linearGradient id="linear-gradient-24" x1="874.75" y1="179.46" x2="880.31" y2="179.46" gradientTransform="matrix(1, 0, 0, -1, 0, 254)" xlink:href="#linear-gradient"/></defs><path d="M983.21,44.33a4.25,4.25,0,0,1-4.3-2.75,4.07,4.07,0,0,1,.73-4c0-.19.09-.43.13-.65,0,0,0-.58-.09-3v-.16c-.09-1.53-.23-4.09,2.15-5.51a4.22,4.22,0,0,1,2.15-.57,7.52,7.52,0,0,1,1.74.24l.63.15.34-.32A6.37,6.37,0,0,1,991,25.63a4.54,4.54,0,0,1,.82.07,5.27,5.27,0,0,1,3.06,1.84c1.81,2,2.11,4.49.76,6.27A4.21,4.21,0,0,1,993,35.4c-.16.1-.4.29-.61.43A9,9,0,0,1,990,41.07a9.42,9.42,0,0,1-6.7,3.26Z" fill="url(#linear-gradient)"/><path d="M991,29.13l.22,0a1.85,1.85,0,0,1,1.06.74c.11.12,1,1.19.57,1.81a.77.77,0,0,1-.55.27,4.41,4.41,0,0,0-2,1.08,3.15,3.15,0,0,0-1.24,1.35,2,2,0,0,0-.12.82c0,.1,0,.21,0,.33a5.51,5.51,0,0,1-1.58,3.2,6,6,0,0,1-4.1,2.08h-.06c-.24,0-.85,0-1-.43s.18-.67.33-.82c.36-.37.47-.91.68-2a19,19,0,0,0,0-3.86v-.16c-.07-1.28-.11-2,.45-2.3a.66.66,0,0,1,.36-.09,5,5,0,0,1,1,.15c.44.1.74.19,1,.26a2.33,2.33,0,0,0,.78.15,2.71,2.71,0,0,0,.93-.18,2,2,0,0,0,.78-.6c.16-.16.36-.37.63-.62.77-.7,1.33-1.2,2-1.2m0-7a9,9,0,0,0-5.68,2.14,9.8,9.8,0,0,0-1.37-.1,7.56,7.56,0,0,0-3.91,1c-4.23,2.51-4,7-3.89,8.72v.17c.07,1.14.09,1.81.09,2.19a7.48,7.48,0,0,0-.66,6.47,7.77,7.77,0,0,0,7.6,5.06h.11a13,13,0,0,0,9.3-4.45,13,13,0,0,0,2.93-5.13,7.61,7.61,0,0,0,2.9-2.33c2.37-3.13,2-7.43-.94-10.71a8.73,8.73,0,0,0-5-2.95,7.71,7.71,0,0,0-1.44-.13Z" fill="#fff"/><path d="M920.94,110.5a4,4,0,0,1-3.26-1.69c-1.2-1.7-5.25-7.45-6.83-9.92-.13-.2-.38-.5-.64-.83-1.62-2-3-3.77-2.73-5.93a3.91,3.91,0,0,1,3.87-3.4,4,4,0,0,1,.78.08,10.41,10.41,0,0,1,.78-.77c3.15-2.83,7.29-9.22,8-11.22a9,9,0,0,1,.47-4.16s0-.1,0-.17a9.73,9.73,0,0,1,.26-3.85c.2-.93.36-1.75.51-2.48.76-3.76,1.55-7.64,5.68-7.64h.21a3.35,3.35,0,0,1,.71.07,53.83,53.83,0,0,1,3.83-4.3,68.92,68.92,0,0,1,1.28-7.6c1.06-5.4,2.26-11.5,5.73-17.51,2.13-3.66,4.8-6.31,9.65-11.12.3-.31,5.35-4.57,8.29-7,9-7.53,9.26-7.53,10.76-7.53h.13a3.48,3.48,0,0,1,2.21.79l.19.15c1.33,1.15,2.37,3.27-.18,6.84-1,1.4-2.69,3.43-5.67,6.94a128.8,128.8,0,0,0-8.22,10.26A33.4,33.4,0,0,0,953,36.25l.53-.15s0,0,.1-.07c.27-.16.5-.34.71-.49a7.69,7.69,0,0,1,2.62-1.38,7,7,0,0,1,2.7-3.57A6.49,6.49,0,0,1,963,29.46h.39a8.68,8.68,0,0,1,2.58-3.6,9.13,9.13,0,0,1,10.25-.17,8,8,0,0,1,3.45-1c2.21,0,4.62.28,5.77,2.39a4,4,0,0,1-.17,4.08,4.51,4.51,0,0,1-.85,1,13.31,13.31,0,0,1,.82,5.8c0,.15,0,.29-.05.43a3.52,3.52,0,0,1,2,1.65l.21.39a6.6,6.6,0,0,1,.5,2.86,4,4,0,0,1,2.63,6.4,1.64,1.64,0,0,0,0,.22,11.91,11.91,0,0,1-.11,3.8,6.51,6.51,0,0,1-2.11,3.92,5.87,5.87,0,0,1-2.94,1.27c0,.17,0,.35,0,.53-.21,4.18-4.21,5.86-6.37,6.77a63.18,63.18,0,0,1-6.18,2.17l-1.13.33a7,7,0,0,1-.72,1.61,8.24,8.24,0,0,1-5,3.52,33.13,33.13,0,0,0-5.77,2.53c-1,.54-2.09,1.08-3.2,1.6.13,1,.16,1.63.2,2.29a29.59,29.59,0,0,0,.3,3.09h0c2,.53,4.08,1.08,4.92,3.16l.07.15a3.5,3.5,0,0,1,0,2.64l-.08.18a2.29,2.29,0,0,1-.1.23c-.38.76-1,2-6,3.46-.35.09-1.35.45-2.1.76a3.75,3.75,0,0,0-1,.64l-.62.48-.29.2c-.9.66-2.07,1.45-3.31,2.29-3.21,2.17-5.21,3.62-6.47,4.59a4.51,4.51,0,0,1,2.17,2,4,4,0,0,1,.27,3c-.91,2.86-3.88,2.86-4.86,2.86s-2-.06-2.82-.11l-.94,0c-.25,0-.56,0-.93,0-2.15-.16-5-.38-6.66-2.62l-.42-.09a4.65,4.65,0,0,1-1.27,1l-.2.11a3.57,3.57,0,0,1-1.65.41,3.12,3.12,0,0,1-.86-.11,2.77,2.77,0,0,1-.31.45A4,4,0,0,1,920.94,110.5Zm6-13.89.13.61c.06-.12.11-.24.16-.33,1.15-2.23,3.57-2.41,5.19-2.45.94-1,2-2,3.16-3,.48-.44,1.59-1.45,2.45-2.31-.52.24-.89.44-1,.51A45.07,45.07,0,0,0,926.93,96.61Z" fill="url(#linear-gradient-2)"/><path d="M968.46,7l.11.09c.69.59-.57,2.21-6.23,8.86a134.79,134.79,0,0,0-8.48,10.61,36.79,36.79,0,0,0-4.4,9.15,37.23,37.23,0,0,0-1.75,9.9c.21-.1.4-.2.59-.28a2.59,2.59,0,0,0,1.24-.86l0-.07a.18.18,0,0,1,0,0,4,4,0,0,1,.5-1.38,8.12,8.12,0,0,1,2.47-2.65,5.21,5.21,0,0,1,1.76-.82,3.62,3.62,0,0,0,1.11-.48c.35-.22.67-.45,1-.66a3.27,3.27,0,0,1,1.92-.87,1.83,1.83,0,0,1,1,.3,1.76,1.76,0,0,1,.49.49v0A4.6,4.6,0,0,1,960,36a4.15,4.15,0,0,1,1.56-2.48,3,3,0,0,1,1.55-.53h.11a2.94,2.94,0,0,1,1.41.39,1.79,1.79,0,0,0,.24.12,1.07,1.07,0,0,0,.32,0,1,1,0,0,0,.33,0,1,1,0,0,0,.63-.49v-.13c0-.15,0-.32,0-.54a5.89,5.89,0,0,1,1.94-3.73A4.52,4.52,0,0,1,971,27.7s2.58,0,3,.78c.19.37-.13.66-.41.92a2.16,2.16,0,0,0-.67.9c0,.17-.39,2.07-.44,2.57q0,.16,0,.42c-.05.6-.12,1.41-.22,1.9-.26,1.31-.79,4-3,4.85a4.93,4.93,0,0,0,1.5.26H971a4.18,4.18,0,0,0,.87-.17,8.92,8.92,0,0,1,.2-3.71,12.13,12.13,0,0,1,1.59-4.12c1.15-1.86,4.38-4.07,5.95-4.07.89,0,2.43.07,2.7.57a.48.48,0,0,1,0,.49A2.72,2.72,0,0,1,981,30a3.32,3.32,0,0,0-.78.38,1.78,1.78,0,0,0-.08.84,2.31,2.31,0,0,0,.35.92l.15.31.11.2A3.48,3.48,0,0,1,981,33a9.48,9.48,0,0,1,.77,4.63,8.53,8.53,0,0,1-2.59,5.68h.41a9.49,9.49,0,0,1,1,.09,14,14,0,0,0,1.43.11c.21-.05.8-.79,1-1.11.42-.53.56-.71.8-.71h.23l.11.22c.54,1.13-.26,4.42-.62,5l-.22.34c-.76,1.22-1.7,2.75-3.45,3.24a6.17,6.17,0,0,1-1.1.19,1,1,0,0,0-.57.14,2,2,0,0,0-.51.44A7.73,7.73,0,0,0,976,54.63h0c.07,0,.27-.17.77-.88a2.11,2.11,0,0,1,1.72-1.17h.32l.32.14a1.34,1.34,0,0,1,.23.13.48.48,0,0,1,0-.27c.06-.36.39-.46.7-.56a5.34,5.34,0,0,0,.76-.28,7.32,7.32,0,0,0,2-1.67c.66-.68,1-1.1,1.27-1.4a4.35,4.35,0,0,1,1-.94,5.31,5.31,0,0,1,2.26-1,.53.53,0,0,1,.46.2c.21.29,0,.58-.18.84a3.82,3.82,0,0,0-.28.42,3.12,3.12,0,0,0-.24,2.06,8.73,8.73,0,0,1-.07,2.76,2.92,2.92,0,0,1-.89,1.89,2.57,2.57,0,0,1-1.65.54h0a3.68,3.68,0,0,1-.46,0,3.19,3.19,0,0,1-1.28-.55l-.08,0a21.42,21.42,0,0,0-2.1-1.16c-.25-.13-.45-.23-.63-.34a2,2,0,0,1,.27,1.25v.06a6.3,6.3,0,0,0,1,2.6c.21.41.33.62.41.75a2.09,2.09,0,0,1,.35,1.25c-.09,1.67-1.55,2.59-4.23,3.72a56.89,56.89,0,0,1-5.82,2l-.8.23a9.38,9.38,0,0,0-2.5.92,1.18,1.18,0,0,0,0,.37,3.64,3.64,0,0,1-.51,2,4.78,4.78,0,0,1-2.93,2,36,36,0,0,0-6.41,2.79c-1.17.6-2.36,1.22-3.59,1.76-.74.33-1.57.71-1.77,1.28,0,.09-.05.12.08.83,0,.18.07.39.11.62a20.47,20.47,0,0,1,.27,2.7,37,37,0,0,0,.38,3.72c.18,1.25.26,1.42.33,1.5a7.38,7.38,0,0,0,2.18,1.06c2,.54,2.5.8,2.62,1.09l.06.15-.07.18c-.3.6-3.79,1.64-3.83,1.65-.55.15-1.74.59-2.49.9a6.79,6.79,0,0,0-1.81,1.13l-.52.4-.27.2c-.86.62-2,1.41-3.25,2.24-2.52,1.7-9.19,6.22-9.46,7.5a1.55,1.55,0,0,0,0,.21,1.93,1.93,0,0,0,.22,1.29l.14.24a3.75,3.75,0,0,0,.21.37c.14.06.56.19.93.3,1.67.51,2.4.78,2.6,1.15a.45.45,0,0,1,0,.36c-.1.32-.45.42-1.52.42-.79,0-1.8-.06-2.61-.11l-1.15,0-.67,0c-2.2-.17-3.78-.29-4.42-1.76a2,2,0,0,1-.18-.68l-.26,0h-.71l-4.25-.9a.42.42,0,0,1-.29-.21c.39,1,.54,1.88-.15,2.25l-.2.11-.18-.14c-.07,0-1.6-1.2-1.91-1.46l-.66-.57c-.55-.48-1.29-1.13-1.81-1.55a43.76,43.76,0,0,0,.74,5,.5.5,0,0,1-.09.41.51.51,0,0,1-.39.19h0a.49.49,0,0,1-.4-.21c-1.19-1.69-5.2-7.38-6.74-9.79-.16-.25-.51-.68-.87-1.14-1.24-1.57-2.06-2.64-2-3.29a.38.38,0,0,1,.39-.34,5.68,5.68,0,0,1,1.35.43l.94.33a5.43,5.43,0,0,1,1.61-2.35c4-3.61,9.47-12.17,9.18-13.85a5.76,5.76,0,0,1,.28-3.11,3.62,3.62,0,0,1,.48-1c-.62-.85-.34-2.14-.09-3.3.2-.94.37-1.78.52-2.51.69-3.43,1-4.84,2.25-4.84h.21l.1.18c.08.15.63,1.15,1,1.89a43.8,43.8,0,0,1,7-8.35v0c-.24-1.09.11-3,1.16-8.35s2.15-10.92,5.33-16.42c1.89-3.26,4.3-5.65,9.09-10.4C951.88,20.4,967.6,7,968.33,7h.13m-9.27,36.26a6.73,6.73,0,0,0,.5-.62c.85-1.17,1.17-2.23,1-2.57l-.15-.21a3.79,3.79,0,0,1-.42-.63c0,.09,0,.18,0,.24a3.57,3.57,0,0,1-.41,2,8,8,0,0,0-.54,1.8M930,75.31c.38-.43.89-1,1.58-1.73s1.2-1.22,1.45-1.46l.15-.14a1.26,1.26,0,0,0,.16-.69,5.35,5.35,0,0,1,.4-1.93,7.45,7.45,0,0,1,.38-.86,11.28,11.28,0,0,0-1.6,1.73c-.24.32-.41.6-.55.81a3.33,3.33,0,0,1-1.63,1.52,4.07,4.07,0,0,1-1.25.28,2,2,0,0,1,.48.37,2.11,2.11,0,0,1,.45,1.92,1.1,1.1,0,0,1,0,.18m-4.43,27.36a.41.41,0,0,1,0-.12.44.44,0,0,1,.37-.41c3.09-.47,4.68-.77,4.88-.85a1.4,1.4,0,0,0,.64-.92.29.29,0,0,1,0-.09l-.34-.27c-.5-.38-1.11-.85-.77-1.52.25-.48,1.18-.53,2.47-.56a4.06,4.06,0,0,0,.57,0,5.11,5.11,0,0,0,.79-.19,3.15,3.15,0,0,0,.35-.37l.06-.07A42.51,42.51,0,0,1,937.93,94c1.57-1.42,4.18-3.81,4.36-4.78A2.73,2.73,0,0,1,943.74,87L944,87c-.63-.6-1.19-1.24-1.74-1.87s-1.07-1.21-1.63-1.74a3.64,3.64,0,0,1-.31-.33,6.28,6.28,0,0,1-2.21,2.25,2.16,2.16,0,0,1-.48.22l-.64.26c-.8.36-1.39.67-1.61.79-4.79,2.57-9.21,5.72-11.26,8a2.51,2.51,0,0,0-.5.76,4.32,4.32,0,0,0,.09,2.74,18,18,0,0,0,.77,2.35c.06.16.21.43.37.75a16.48,16.48,0,0,1,.74,1.52M968.46,0h-.13c-3,0-4.13,1-13,8.34-1.53,1.28-8,6.7-8.51,7.23-5.07,5-7.86,7.79-10.21,11.86-3.77,6.51-5,12.92-6.15,18.58-.58,3-1,5.06-1.2,6.72-.65.68-1.36,1.46-2.08,2.32A8.36,8.36,0,0,0,920,60.52a28.42,28.42,0,0,0-1.28,4.94c-.15.72-.31,1.53-.51,2.44a14.61,14.61,0,0,0-.4,4.3,12.28,12.28,0,0,0-.51,4,41.6,41.6,0,0,1-6.57,9A7.4,7.4,0,0,0,904,91.7c-.45,3.62,1.62,6.22,3.44,8.51l.51.65c1.6,2.5,5.33,7.79,6.87,10a7.49,7.49,0,0,0,11.09,1.28,7,7,0,0,0,2.39-.68,14.77,14.77,0,0,0,6.87,1.86c.42,0,.79,0,1.13,0l.76,0c.94.05,2.06.12,3.06.12,5.67,0,7.57-3.32,8.19-5.3a7.49,7.49,0,0,0-.45-5.63l3.07-2.11c1.28-.87,2.49-1.69,3.45-2.38l.28-.21c.27-.2.5-.38.72-.56l.25-.19c.59-.24,1.37-.52,1.6-.59,5.71-1.59,7.33-3.48,8.22-5.28.07-.15.14-.29.2-.44l.07-.19a7,7,0,0,0,0-5.28l-.06-.15a8,8,0,0,0-5-4.53c0-.2,0-.39,0-.58v0l1.11-.57a30.22,30.22,0,0,1,5.13-2.29,11.48,11.48,0,0,0,7-5.06,5,5,0,0,0,.31-.54,62.52,62.52,0,0,0,6.1-2.17c2.18-.91,7-2.92,8.22-7.85a9.39,9.39,0,0,0,2-1.24,9.75,9.75,0,0,0,3.32-5.94,14.59,14.59,0,0,0,.24-3.93,7.46,7.46,0,0,0-2.94-9.68,7.8,7.8,0,0,0-.61-1.84,3.59,3.59,0,0,0-.17-.34l-.12-.22a6.84,6.84,0,0,0-1.46-1.86,16.43,16.43,0,0,0-.46-3.6,7.45,7.45,0,0,0,.2-7.46c-2.3-4.24-7.23-4.24-8.85-4.24a10,10,0,0,0-3.12.54A13.12,13.12,0,0,0,971,20.7a12.32,12.32,0,0,0-4.12.67l.75-.88c3.11-3.66,4.79-5.67,5.86-7.17,4.7-6.58.51-10.75-.38-11.52L973,1.67l-.11-.09A7,7,0,0,0,968.46,0Z" fill="#fff"/><path d="M883.18,108.06a8.7,8.7,0,0,1-2.1-.27c-4-.94-6.47-4.54-7.53-6.07-1.64-2.38-3.19-4.88-4.62-7.45a4.81,4.81,0,0,1,3.44-7.08l-.06,0a14.1,14.1,0,0,0-2.43-.16,55.45,55.45,0,0,0-7.14.58c-1.44.2-3,.45-4.66.71a100,100,0,0,1-14.5,1.6,23,23,0,0,1-4.76-.43c-3.61-.74-6.06-2.49-6.91-4.88-1.4.37-3,.74-3.87.91a22.16,22.16,0,0,1-4.19.49,9.8,9.8,0,0,1-4.19-.9,9,9,0,0,1-5.24-6.43,33,33,0,0,1,.35-9c.7-5.11,4.4-5.37,5.13-5.37a4.73,4.73,0,0,1,3.76,1.84,12.73,12.73,0,0,1,.86,1.3,70.6,70.6,0,0,1-.29-8.36c0-.86,0-1.57,0-2.18a12.18,12.18,0,0,0-.19-3.35A9.39,9.39,0,0,0,822.16,49a14.83,14.83,0,0,0-2.71-2.13c-1.2-.79-4.83-3.21-3.06-7.09a4.88,4.88,0,0,1,3.05-2.65A33.43,33.43,0,0,1,826,35.52c-.21-.26-.43-.51-.67-.78a21.13,21.13,0,0,1-4.08-6.33c-1.1-2.52-4.47-10.17.27-13.4a5.31,5.31,0,0,1,3-.93,8.37,8.37,0,0,1,4.45,1.63,31.93,31.93,0,0,0,3.82,2.06,15.67,15.67,0,0,0,3,1.08,12.43,12.43,0,0,1,3.67,1.54c4.1,2.52,6,6,7.84,9.34.13.23.25.46.37.69q.14-.34.3-.69c1.81-3.81,4.45-5.91,7.41-5.91h.36a6.69,6.69,0,0,1,5.11,3.24l.15.2a6.39,6.39,0,0,1,1.93-.9,5.35,5.35,0,0,1,1.46-.2,4.92,4.92,0,0,1,1.14.13,5.48,5.48,0,0,1,3.95,3.84c1.73-3.51,4.83-7.19,8.81-7.19a6,6,0,0,1,1.46.18,6.85,6.85,0,0,1,5,6.1,6.36,6.36,0,0,1-1,3.81c.12.25.28.53.37.7.77,1.38,1.57,2.73,2.33,4A90,90,0,0,1,891,46.3a18.92,18.92,0,0,1,1.7,5.51,13.62,13.62,0,0,1,3.54,3.32c2.59,3.49,4.16,9.1,1.45,13.18a6.65,6.65,0,0,1-.91,1.11c0,.06-.13.13-.24.27a7.66,7.66,0,0,0-1.06,1.58c3.49,2.18,6.73,5.12,6.39,9.22,0,.12,0,.28,0,.49a8.46,8.46,0,0,0-.06,1.84l.48.18.56.2c1.05.33,3.76,1.19,4.33,4.27a5.38,5.38,0,0,1-1.6,4.85c-7,7.16-11.28,8.74-12.06,9-1,.3-1.71.47-2.26.59a3,3,0,0,0-1.15.39,7.46,7.46,0,0,0-1.12.8,5.54,5.54,0,0,1-1.26,3A5.82,5.82,0,0,1,883.18,108.06Z" fill="url(#linear-gradient-3)"/><path d="M824.49,17.58a5.43,5.43,0,0,1,2.63,1.13A39.14,39.14,0,0,0,831.31,21a20.27,20.27,0,0,0,3.51,1.28,8.64,8.64,0,0,1,2.75,1.14c3.3,2,4.91,4.94,6.6,8a25.81,25.81,0,0,1,1.89,4.25,27.67,27.67,0,0,0,1.85,4.19,38,38,0,0,0,2.89,4.61c0-.33-.07-.67-.11-1a56.64,56.64,0,0,1-.52-8.38,9.5,9.5,0,0,1,.9-3.84c.7-1.46,2.18-3.92,4.25-3.92h.15A3.33,3.33,0,0,1,858,29.12a7.14,7.14,0,0,0,2.48,2.34,3.39,3.39,0,0,0,1,.44,3.42,3.42,0,0,0,.39-.51,3.59,3.59,0,0,1,2-1.65,2.09,2.09,0,0,1,.53-.07,1.27,1.27,0,0,1,.34,0c1.75.4,2,3.31,1.54,5.14A7.38,7.38,0,0,1,865,37.49a12.53,12.53,0,0,1-2,2.33,20.31,20.31,0,0,0-2,2,6.15,6.15,0,0,0-1,1.34,1.86,1.86,0,0,0,.61,1.11,3,3,0,0,0,1.87,1l.22,0a1,1,0,0,0,.35-.23l.06-.05a17.46,17.46,0,0,1,6.26-3,10.53,10.53,0,0,1,2.43-.39h0l-.15-.37a11.24,11.24,0,0,1,0-7.28c1.08-3.6,4-7.46,6.55-7.46a3,3,0,0,1,.61.07,3.36,3.36,0,0,1,2.33,2.95,3.11,3.11,0,0,1-.69,2.08,3.08,3.08,0,0,0-.38.64c-.37,1,.39,2.36.9,3.26.78,1.4,1.59,2.77,2.37,4.1a89.82,89.82,0,0,1,4.46,8.2c.77,1.7,1.77,4.38,1.34,6.15a9.89,9.89,0,0,1,4.27,3.32c1.95,2.62,3,6.6,1.34,9.16a3,3,0,0,1-.47.57,6,6,0,0,0-.42.46,12.06,12.06,0,0,0-2.15,3.71v2c4.72,2.58,6.84,4.84,6.66,7.07,0,.08,0,.2,0,.34a10.8,10.8,0,0,0,0,3.17,2.56,2.56,0,0,0,.28,1.09A4.59,4.59,0,0,0,901,86.28c.28.11.53.19.76.26.81.26,1.73.55,1.92,1.57a1.91,1.91,0,0,1-.66,1.76c-6.71,6.81-10.45,8-10.61,8.1-.83.26-1.46.4-2,.52a6.2,6.2,0,0,0-2.19.8c-1.94,1.17-2.8,2.29-2.79,2.88v.06a2.24,2.24,0,0,1-.46,1.59,2.3,2.3,0,0,1-1.84.74h0a5.9,5.9,0,0,1-1.29-.17c-2.68-.64-4.55-3.35-5.45-4.66-1.57-2.28-3.07-4.69-4.44-7.16a1.34,1.34,0,0,1,0-1.3,1.31,1.31,0,0,1,1.12-.64,1.21,1.21,0,0,1,.43.07,23.66,23.66,0,0,0,6.35.93,8.61,8.61,0,0,0,2.28-.25,6.23,6.23,0,0,0,2.54-1.83,2.92,2.92,0,0,0-1.39-1.34c-5.78-2.6-9.59-4.32-10.22-4.46a18,18,0,0,0-3.24-.24,57.49,57.49,0,0,0-7.61.62c-1.48.2-3.08.45-4.79.72a95.79,95.79,0,0,1-13.9,1.55,19.69,19.69,0,0,1-4.05-.36c-1.25-.25-4.17-1.07-4.43-3.09a3.12,3.12,0,0,1,0-.81,9.56,9.56,0,0,0,.06-1.27l-.16,0-.24,0h0a2.52,2.52,0,0,1-1.39-.5,1.23,1.23,0,0,1-.37.21,55.23,55.23,0,0,1-5.63,1.44,19.57,19.57,0,0,1-3.53.43,6.4,6.4,0,0,1-2.82-.62,5.61,5.61,0,0,1-3.14-3.71,29.73,29.73,0,0,1,.35-8c.21-1.56.77-2.35,1.66-2.35a1.26,1.26,0,0,1,1,.49,13.17,13.17,0,0,1,.88,1.4A19.74,19.74,0,0,0,827.11,76a11.34,11.34,0,0,0,4.32,2.2,25.63,25.63,0,0,1-3.17-9.2,58.83,58.83,0,0,1-.53-10c0-.84,0-1.53,0-2.13a15.73,15.73,0,0,0-.27-4.15,12.45,12.45,0,0,0-2.74-6.13A18.22,18.22,0,0,0,821.39,44c-1.26-.84-2.35-1.56-1.82-2.72a1.39,1.39,0,0,1,.9-.76c3.11-1,4.93-1.5,6.26-1.5a3,3,0,0,1,1.83.52,4.65,4.65,0,0,1,1.64,2.66c1,3.4,1.77,5.92,2.33,8.09.68-2.55.33-9-2.11-14.13a13.49,13.49,0,0,0-2.53-3.71A17.86,17.86,0,0,1,824.41,27c-1.51-3.42-2.9-7.78-1-9.1a1.83,1.83,0,0,1,1-.32m11.79,42.89h0a2.77,2.77,0,0,0,1.21-.3,9.24,9.24,0,0,1,1.94-.62c.26,0,.5-.08.72-.11a4,4,0,0,0-2.37-1.09h-.26l-.88,0-1,0a6.6,6.6,0,0,1-1.74-.26,2.94,2.94,0,0,0,1,2,3,3,0,0,0,1.41.33M824.49,10.58a8.81,8.81,0,0,0-5,1.54c-4.73,3.23-5.23,9.19-1.49,17.7a29.06,29.06,0,0,0,1.83,3.53l-1.42.44a8.46,8.46,0,0,0-5.21,4.54,8.25,8.25,0,0,0,1.25,8.9,13.64,13.64,0,0,0,3.06,2.56,13,13,0,0,1,2.07,1.57,6.74,6.74,0,0,1,1.07,2.89,8.87,8.87,0,0,1,.11,2.52c0,.64,0,1.37,0,2.25,0,.58,0,1.17,0,1.78-.27,0-.54,0-.82,0-3.43,0-7.75,2.2-8.6,8.4a35.79,35.79,0,0,0-.34,10,12.53,12.53,0,0,0,7.33,9.16,13.29,13.29,0,0,0,5.56,1.18,25.69,25.69,0,0,0,4.85-.55l1.53-.33c1.44,1.76,3.85,3.46,7.88,4.29a27.12,27.12,0,0,0,5.47.5,102,102,0,0,0,15-1.63c1.67-.27,3.24-.52,4.65-.71l1.68-.21a8.4,8.4,0,0,0,1,5.13c1.48,2.66,3.09,5.26,4.79,7.72,1.28,1.87,4.3,6.24,9.6,7.5a12.86,12.86,0,0,0,2.9.36,9.23,9.23,0,0,0,7.16-3.19,8.94,8.94,0,0,0,1.71-3.06c.57-.13,1.42-.33,2.5-.67,1.28-.4,6.05-2.31,13.49-9.86a8.91,8.91,0,0,0,2.55-8,8.56,8.56,0,0,0-5.19-6.38c.23-4.38-2.25-7.64-4.95-9.93l.18-.26c3.66-5.53,1.85-12.63-1.56-17.21a17.27,17.27,0,0,0-3.15-3.24,25.64,25.64,0,0,0-1.71-4.95A94.75,94.75,0,0,0,889.4,36c-.59-1-1.2-2-1.79-3.08a9.49,9.49,0,0,0,.54-3.93,10.3,10.3,0,0,0-7.6-9.25,9.58,9.58,0,0,0-2.32-.29c-3.6,0-6.7,1.95-9.07,4.71a8.38,8.38,0,0,0-2.89-1.27,8.62,8.62,0,0,0-1.94-.22A8.86,8.86,0,0,0,862,23h0a9.37,9.37,0,0,0-6-2.66l-.55,0a10.35,10.35,0,0,0-7.57,3.42,21.61,21.61,0,0,0-6.52-6.33,15.52,15.52,0,0,0-4.59-1.93,12.93,12.93,0,0,1-2.43-.89,31.43,31.43,0,0,1-3.46-1.87,11.6,11.6,0,0,0-6.26-2.14Zm66.77,95.14Z" fill="#fff"/><path d="M814.86,69.42c-3.5,0-6.28-3.54-8-6.52a27.66,27.66,0,0,1-3.17-9.65c-1.1-6.07-1-10.09.34-11.92a4.78,4.78,0,0,1,3.18-1.94h.12a3.15,3.15,0,0,1,.44,0h.13c3.45,0,4.54,2.93,5.33,5.06.43,1.15.77,2,1,2.56a8.06,8.06,0,0,1,3.06-.58,11.13,11.13,0,0,1,4,.8c2.22.87,3.91,2.45,5.66,5.28,4.53,7.35,5.08,12.41,1.65,15.05a6,6,0,0,1-3.72,1.19,14.74,14.74,0,0,1-5.77-1.57A5,5,0,0,1,817,69,5.2,5.2,0,0,1,814.86,69.42Z" fill="url(#linear-gradient-4)"/><path d="M807.9,42.84c1,0,1.32.82,2.05,2.78.57,1.53,1.9,5.11,3,5.48a2.83,2.83,0,0,0,.9.16H814a1.7,1.7,0,0,0,.47-.32,4.46,4.46,0,0,1,.53-.42,4.15,4.15,0,0,1,2.32-.64,7.69,7.69,0,0,1,2.73.56c1.47.58,2.62,1.7,4,3.86,1.21,2,5,8.53,2.5,10.43a2.57,2.57,0,0,1-1.59.47,13.47,13.47,0,0,1-5.51-1.88l-.07,0a2.72,2.72,0,0,0-1.26-.47.78.78,0,0,0-.22,0,1.62,1.62,0,0,0-.72.43,2,2,0,0,0-.54,1.05,2,2,0,0,1-1.05,1.47,1.56,1.56,0,0,1-.68.14c-2.11,0-4.51-4-5-4.77a24.18,24.18,0,0,1-2.75-8.5c0-.07-1.33-7.82-.27-9.27a1.24,1.24,0,0,1,.85-.52h.18m0-7h-.16a5.62,5.62,0,0,0-.92.07h-.09a8.2,8.2,0,0,0-5.53,3.34c-.92,1.28-2.84,3.92-1,14.6,1,5.8,2.44,8.81,3.58,10.78,2.18,3.78,5.86,8.27,11,8.27A8.69,8.69,0,0,0,820,71.25a15.2,15.2,0,0,0,4.93,1,9.45,9.45,0,0,0,5.85-1.92c2.12-1.62,5.26-5.5,2.44-13.16A38.25,38.25,0,0,0,830,50.63a15.28,15.28,0,0,0-7.37-6.71,14.49,14.49,0,0,0-5.27-1c-.3,0-.61,0-.91,0a15.83,15.83,0,0,0-1.52-3.25,8.24,8.24,0,0,0-7-3.82Z" fill="#fff"/><path d="M818.52,38.39a14.83,14.83,0,0,1-2.28-.16,7.73,7.73,0,0,1-6.18-4.7,11.55,11.55,0,0,0-1.16-1.85,13,13,0,0,0-3.65-2.63A18.22,18.22,0,0,1,800.91,26a5.21,5.21,0,0,1-.94-5.88c1.36-2.72,5.32-4.46,8.63-5a7.59,7.59,0,0,1,1.22-.09,16.84,16.84,0,0,1,3.27.39,5,5,0,0,1,1.32-.92,5.45,5.45,0,0,1,2.35-.52,6.41,6.41,0,0,1,4.58,2,6.92,6.92,0,0,1,1.79,5c0,1.45-.09,2.57-.16,3.56a10.4,10.4,0,0,0,0,2.75c0,.09.06.29.09.43l.11.08a5,5,0,0,1,1.47,9.62A18.49,18.49,0,0,1,818.52,38.39Z" fill="url(#linear-gradient-5)"/><path d="M816.76,17.47a2.89,2.89,0,0,1,2,.94,3.58,3.58,0,0,1,.85,2.54c0,1.36-.09,2.43-.15,3.37a13.07,13.07,0,0,0,.07,3.69,4,4,0,0,0,.69,1.81,4.24,4.24,0,0,0,2.33,1.48h.19a1.49,1.49,0,0,1,.55,2.9,15.3,15.3,0,0,1-4.79.7,12.5,12.5,0,0,1-1.79-.12c-2.23-.32-2.88-1.56-3.58-2.88a14.12,14.12,0,0,0-1.51-2.38A15.31,15.31,0,0,0,807,26a15.26,15.26,0,0,1-3.54-2.46,1.65,1.65,0,0,1-.34-1.9c.64-1.29,3.34-2.67,6-3.08a4.5,4.5,0,0,1,.68-.05,14.62,14.62,0,0,1,4.5.87,3.21,3.21,0,0,0,.7-.81c.07-.09.11-.16.15-.22a1.78,1.78,0,0,1,.75-.71,2,2,0,0,1,.84-.18m0-7a8.92,8.92,0,0,0-3.85.86c-.25.12-.48.25-.7.37a18.87,18.87,0,0,0-2.39-.18,11,11,0,0,0-1.76.13c-3.89.6-9.17,2.76-11.22,6.87a8.71,8.71,0,0,0,1.54,9.86,21.35,21.35,0,0,0,5.13,3.71,11.89,11.89,0,0,1,2.65,1.77,7.23,7.23,0,0,1,.8,1.3,11.23,11.23,0,0,0,8.79,6.54,20.2,20.2,0,0,0,2.77.19A21.85,21.85,0,0,0,826,40.65a8.48,8.48,0,0,0,4.71-11.13,8.37,8.37,0,0,0-4.27-4.43c0-.1,0-.21,0-.31.07-1,.15-2.2.17-3.76a10.4,10.4,0,0,0-2.74-7.4,9.86,9.86,0,0,0-7.13-3.15Z" fill="#fff"/><path d="M847.81,37.62c-3.6,0-5.84-4.17-7.09-7.67a16.26,16.26,0,0,1-1-4c0-.12,0-.22,0-.31a12.91,12.91,0,0,0-2-2.09c-1.26-1.13-2.68-2.4-2.63-4.72a4.73,4.73,0,0,1,1.71-3.57,4.79,4.79,0,0,1,3.09-1.1c1.37,0,10.89,1.94,14.1,6.74.73,1.09,2.35,5,.23,8.28A5.73,5.73,0,0,1,853,30.51l-.23.22c-.21.2-.36.37-.47.49a4.82,4.82,0,0,1-2.55,6l-.23.1a3.59,3.59,0,0,1-1.37.3Z" fill="url(#linear-gradient-6)"/><path d="M839.86,17.62c1.17,0,9,1.93,11.19,5.18.26.39,1.32,2.7.19,4.46a2.56,2.56,0,0,1-.56.63l-.37.35a6.84,6.84,0,0,0-1.53,2,2.76,2.76,0,0,0,.12,1.84c.31,1,.11,1.62-.58,1.93l-.23.1h-.28c-1.83,0-3.78-5.29-3.8-5.35a13.82,13.82,0,0,1-.79-3.3,3.41,3.41,0,0,0-.56-1.76A15.07,15.07,0,0,0,840,20.9c-1-.91-1.48-1.33-1.46-2a1.23,1.23,0,0,1,.45-.94,1.25,1.25,0,0,1,.85-.29m0-7a8.25,8.25,0,0,0-8.3,8.11c-.08,3.92,2.35,6.08,3.79,7.38.26.23.69.61,1,.95a20.9,20.9,0,0,0,1.06,4.1c1.63,4.53,4.76,10,10.38,10h.39A6.92,6.92,0,0,0,851,40.5l.23-.1A8.1,8.1,0,0,0,856,32.46,9.39,9.39,0,0,0,857.14,31c3-4.75,1.15-10-.27-12.12-4.1-6.13-15-8.29-17-8.29Z" fill="#fff"/><text transform="translate(984.8 34.81)" font-size="0.42" fill="#c33a34" font-family="ArialMT, Arial" style="isolation:isolate">I don’t like bugs!</text><path d="M983.21,40.83c-.24,0-.85,0-1-.43s.18-.67.33-.82c.36-.37.47-.91.68-2a19,19,0,0,0,0-3.86v-.16c-.07-1.28-.11-2,.45-2.3a.59.59,0,0,1,.36-.09,5,5,0,0,1,1,.15c.44.1.74.19,1,.26a2.33,2.33,0,0,0,.78.15,2.71,2.71,0,0,0,.93-.18,2,2,0,0,0,.78-.6c.16-.16.36-.37.63-.62.77-.7,1.33-1.2,2-1.2l.22,0a1.85,1.85,0,0,1,1.06.74c.11.12,1,1.19.57,1.81a.77.77,0,0,1-.55.27,4.41,4.41,0,0,0-2,1.08,3.15,3.15,0,0,0-1.24,1.35,2,2,0,0,0-.12.82c0,.1,0,.21,0,.33a5.51,5.51,0,0,1-1.58,3.2,6,6,0,0,1-4.1,2.08Z" fill="url(#linear-gradient-7)"/><path d="M987.76,31.87a2.83,2.83,0,0,1-1.07.21,8.84,8.84,0,0,1-1.83-.41c-.88-.2-1-.14-1.07-.11-.39.23-.33.91-.26,2.14a17.15,17.15,0,0,1,0,3.94c-.22,1.17-.33,1.75-.75,2.17-.09.1-.32.31-.26.47s.56.2.73.2a5.59,5.59,0,0,0,3.83-2,5.13,5.13,0,0,0,1.49-3,3.52,3.52,0,0,1,.16-1.25,3.41,3.41,0,0,1,1.36-1.52,4.87,4.87,0,0,1,2.16-1.15.42.42,0,0,0,.32-.13c.21-.28-.2-1-.55-1.35a1.6,1.6,0,0,0-.86-.63c-.57-.1-1.09.35-1.91,1.1S988.37,31.62,987.76,31.87Z" fill="#38669e"/><path d="M920.94,107a.49.49,0,0,1-.4-.21c-1.19-1.69-5.2-7.38-6.74-9.79-.16-.25-.51-.68-.87-1.14-1.24-1.57-2.06-2.64-2-3.29a.38.38,0,0,1,.39-.34,5.68,5.68,0,0,1,1.35.43l.94.33a5.43,5.43,0,0,1,1.61-2.35c4-3.61,9.47-12.17,9.18-13.85a5.76,5.76,0,0,1,.28-3.11,3.62,3.62,0,0,1,.48-1c-.62-.85-.34-2.14-.09-3.3.2-.94.37-1.78.52-2.51.69-3.43,1-4.84,2.25-4.84h.21l.1.18c.08.15.63,1.15,1,1.89a43.8,43.8,0,0,1,7-8.35v0c-.24-1.09.11-3,1.16-8.35s2.15-10.92,5.33-16.42c1.89-3.26,4.3-5.65,9.09-10.4C951.88,20.4,967.6,7,968.33,7h.13l.11.09c.69.59-.57,2.21-6.23,8.86a134.79,134.79,0,0,0-8.48,10.61,36.79,36.79,0,0,0-4.4,9.15,37.23,37.23,0,0,0-1.75,9.9c.21-.1.4-.2.59-.28a2.59,2.59,0,0,0,1.24-.86l0-.07a.18.18,0,0,1,0,0,4,4,0,0,1,.5-1.38,8.12,8.12,0,0,1,2.47-2.65,5.21,5.21,0,0,1,1.76-.82,3.62,3.62,0,0,0,1.11-.48c.35-.22.67-.45,1-.66a3.27,3.27,0,0,1,1.92-.87,1.83,1.83,0,0,1,1,.3,1.76,1.76,0,0,1,.49.49v0A4.6,4.6,0,0,1,960,36a4.15,4.15,0,0,1,1.56-2.48,3,3,0,0,1,1.55-.53h.11a2.94,2.94,0,0,1,1.41.39,1.79,1.79,0,0,0,.24.12,1.07,1.07,0,0,0,.32,0,1,1,0,0,0,.33,0,1,1,0,0,0,.63-.49v-.13c0-.15,0-.32,0-.54a5.89,5.89,0,0,1,1.94-3.73A4.52,4.52,0,0,1,971,27.7s2.58,0,3,.78c.19.37-.13.66-.41.92a2.16,2.16,0,0,0-.67.9c0,.17-.39,2.07-.44,2.57q0,.16,0,.42c-.05.6-.12,1.41-.22,1.9-.26,1.31-.79,4-3,4.85a4.93,4.93,0,0,0,1.5.26H971a4.18,4.18,0,0,0,.87-.17,8.92,8.92,0,0,1,.2-3.71,12.13,12.13,0,0,1,1.59-4.12c1.15-1.86,4.38-4.07,5.95-4.07.89,0,2.43.07,2.7.57a.48.48,0,0,1,0,.49A2.72,2.72,0,0,1,981,30a3.32,3.32,0,0,0-.78.38,1.78,1.78,0,0,0-.08.84,2.31,2.31,0,0,0,.35.92l.15.31.11.2A3.48,3.48,0,0,1,981,33a9.48,9.48,0,0,1,.77,4.63,8.53,8.53,0,0,1-2.59,5.68h.41a9.49,9.49,0,0,1,1,.09,14,14,0,0,0,1.43.11c.21-.05.8-.79,1-1.11.42-.53.56-.71.8-.71h.23l.11.22c.54,1.13-.26,4.42-.62,5l-.22.34c-.76,1.22-1.7,2.75-3.45,3.24a6.17,6.17,0,0,1-1.1.19,1,1,0,0,0-.57.14,2,2,0,0,0-.51.44A7.73,7.73,0,0,0,976,54.63h0c.07,0,.27-.17.77-.88a2.11,2.11,0,0,1,1.72-1.17h.32l.32.14a1.73,1.73,0,0,1,1,1.86v.06a6.46,6.46,0,0,0,1,2.6c.21.41.33.62.41.75a2.09,2.09,0,0,1,.35,1.25c-.09,1.67-1.55,2.59-4.23,3.72a56.89,56.89,0,0,1-5.82,2l-.8.23a9.38,9.38,0,0,0-2.5.92,1.18,1.18,0,0,0,0,.37,3.64,3.64,0,0,1-.51,2,4.78,4.78,0,0,1-2.93,2,36,36,0,0,0-6.41,2.79c-1.17.6-2.36,1.22-3.59,1.77-.74.32-1.57.7-1.77,1.27,0,.09-.05.12.08.83,0,.18.07.39.11.62a20.47,20.47,0,0,1,.27,2.7,37,37,0,0,0,.38,3.72c.18,1.25.26,1.42.33,1.5a7.38,7.38,0,0,0,2.18,1.06c2,.54,2.5.8,2.62,1.09l.06.15-.07.18c-.3.6-3.79,1.64-3.83,1.65-.55.15-1.74.59-2.49.9a6.79,6.79,0,0,0-1.81,1.13l-.52.4-.27.2c-.86.62-2,1.41-3.25,2.24-2.52,1.7-9.19,6.22-9.46,7.5a1.55,1.55,0,0,0,0,.21,1.93,1.93,0,0,0,.22,1.29l.14.24a3.75,3.75,0,0,0,.21.37c.14.06.56.19.93.3,1.67.51,2.4.78,2.6,1.15a.45.45,0,0,1,0,.36c-.1.32-.45.42-1.52.42-.79,0-1.8-.06-2.61-.11l-1.15,0-.67,0c-2.2-.17-3.78-.29-4.42-1.76a2,2,0,0,1-.18-.68l-.26,0h-.71l-4.25-.9a.42.42,0,0,1-.29-.21c.39,1,.54,1.88-.15,2.25l-.2.11-.18-.14c-.07,0-1.6-1.2-1.91-1.46l-.66-.57c-.55-.48-1.29-1.13-1.81-1.55a43.76,43.76,0,0,0,.74,5,.5.5,0,0,1-.09.41.51.51,0,0,1-.39.19Zm19.33-24a6.28,6.28,0,0,1-2.21,2.25,2.16,2.16,0,0,1-.48.22l-.64.26c-.8.36-1.39.67-1.61.79-4.79,2.57-9.21,5.72-11.26,8a2.51,2.51,0,0,0-.5.76,4.32,4.32,0,0,0,.09,2.74,18,18,0,0,0,.77,2.35c.06.16.21.43.37.75a16.48,16.48,0,0,1,.74,1.52.41.41,0,0,1,0-.12.44.44,0,0,1,.37-.41c3.09-.47,4.68-.77,4.88-.85a1.4,1.4,0,0,0,.64-.92.29.29,0,0,1,0-.09l-.34-.27c-.5-.38-1.11-.85-.77-1.52.25-.48,1.18-.53,2.47-.56a4.06,4.06,0,0,0,.57,0,5.11,5.11,0,0,0,.79-.19,3.15,3.15,0,0,0,.35-.37l.06-.07A42.51,42.51,0,0,1,937.93,94c1.57-1.42,4.18-3.81,4.36-4.78A2.73,2.73,0,0,1,943.74,87L944,87c-.63-.6-1.19-1.24-1.74-1.87s-1.07-1.21-1.63-1.74a3.64,3.64,0,0,1-.31-.33ZM929.06,72.84a2,2,0,0,1,.48.37,2.11,2.11,0,0,1,.45,1.92,1.1,1.1,0,0,1,0,.18c.38-.43.89-1,1.58-1.73s1.2-1.22,1.45-1.46l.15-.14a1.26,1.26,0,0,0,.16-.69,5.35,5.35,0,0,1,.4-1.93,7.45,7.45,0,0,1,.38-.86,11.28,11.28,0,0,0-1.6,1.73c-.24.32-.41.6-.55.81a3.33,3.33,0,0,1-1.63,1.52,4.07,4.07,0,0,1-1.25.28Zm31.06-33.61c0,.09,0,.18,0,.24a3.57,3.57,0,0,1-.41,2,8,8,0,0,0-.54,1.8,6.73,6.73,0,0,0,.5-.62c.85-1.17,1.17-2.23,1-2.57l-.15-.21A3.79,3.79,0,0,1,960.12,39.23Z" fill="url(#linear-gradient-8)"/><path d="M936.37,106l-.64,0c-2.15-.16-3.58-.27-4.13-1.54a2.07,2.07,0,0,1-.15-1,1.25,1.25,0,0,1-.62.16h-.67l-4.21-.89a.08.08,0,0,1,0-.15c1.22-.19,4.72-.73,5-.89.84-.48.76-1.24.93-1.41-.57-.57-1.52-1-1.22-1.54s2.37-.32,2.78-.39a5.92,5.92,0,0,0,.88-.22,2.66,2.66,0,0,0,.53-.53,40.12,40.12,0,0,1,3.33-3.26c1.8-1.64,4.27-3.89,4.47-5a2.42,2.42,0,0,1,1.25-1.91,1.71,1.71,0,0,1,.7-.16h.18a23.19,23.19,0,0,1-2.3-2.36c-.53-.6-1.08-1.23-1.65-1.77a2.46,2.46,0,0,1-.58-.77A6.11,6.11,0,0,1,937.89,85a2.37,2.37,0,0,1-.43.19c-.1,0-.25.09-.67.28-.8.36-1.4.68-1.63.8-4.82,2.59-9.28,5.77-11.35,8.09a3.06,3.06,0,0,0-.57.86,4.63,4.63,0,0,0,.08,3,17.42,17.42,0,0,0,.78,2.4c.31.79,2.17,3.66,1.17,4.19,0,0-1.59-1.19-1.89-1.45-.57-.48-2.42-2.12-3-2.51,0,0-.11,0-.11.06a36.92,36.92,0,0,0,.77,5.66.13.13,0,0,1-.24.11c-1.27-1.8-5.21-7.39-6.73-9.78-.57-.89-2.89-3.41-2.79-4.2,0-.19,2.54,1,2.58.77a5,5,0,0,1,1.6-2.47c3.89-3.5,9.63-12.24,9.29-14.18a5.37,5.37,0,0,1,.27-3,2.65,2.65,0,0,1,.61-1.11c-.76-.69-.47-2-.22-3.22,1.09-5.06,1.22-7.08,2.43-7.08,0,0,1.06,1.94,1.25,2.49a42.15,42.15,0,0,1,7.43-9,1.21,1.21,0,0,0,0-.27c-.23-1,.16-3.13,1.16-8.2,1.05-5.34,2.13-10.87,5.29-16.31,1.86-3.22,4.26-5.6,9-10.33.1-.1,16.08-13.66,16.34-13.43.91.79-10.77,12.9-14.78,19a36.79,36.79,0,0,0-4.44,9.23,37.55,37.55,0,0,0-1.78,10.63,9.22,9.22,0,0,1,1.11-.58,2.9,2.9,0,0,0,1.4-1,.42.42,0,0,0,.09-.24,3.76,3.76,0,0,1,.46-1.27,7.63,7.63,0,0,1,2.36-2.52,4.92,4.92,0,0,1,1.66-.78,3.75,3.75,0,0,0,1.19-.52c.37-.22.69-.46,1-.67a3,3,0,0,1,1.71-.8,1.44,1.44,0,0,1,.8.24,1.76,1.76,0,0,1,.69,1.42,3.33,3.33,0,0,1-.37,1.79,11,11,0,0,0-.76,3,7.52,7.52,0,0,0,1.32-1.4c.73-1,1.34-2.33,1-2.94a2.09,2.09,0,0,0-.18-.27,3.14,3.14,0,0,1-.7-1.45,4.41,4.41,0,0,1,.24-2.12,3.78,3.78,0,0,1,1.42-2.28,2.61,2.61,0,0,1,1.37-.48h.09a2.48,2.48,0,0,1,1.24.35,2.48,2.48,0,0,0,.3.13,1.18,1.18,0,0,0,.43.07,2.12,2.12,0,0,0,.42,0,1.35,1.35,0,0,0,.86-.71c0-.06,0-.06,0-.25s0-.3,0-.51a5.53,5.53,0,0,1,1.82-3.49,4.18,4.18,0,0,1,2.66-.8c.9,0,2.46.23,2.65.59s-.88.72-1.11,1.56c-.06.22-.4,2.14-.45,2.64s-.12,1.67-.24,2.29c-.28,1.38-.82,3.91-2.89,4.63a3.39,3.39,0,0,1-1,.17,6.3,6.3,0,0,0,2.71.72h.31a3.6,3.6,0,0,0,1.26-.31,8,8,0,0,1,.12-3.86,12,12,0,0,1,1.55-4c1.07-1.73,4.18-3.91,5.65-3.91.31,0,2.67.06,2.37.51s-1.84.73-2.07,1.18a2,2,0,0,0-.12,1,3.8,3.8,0,0,0,.54,1.36c.07.15.2.35.27.52a9.3,9.3,0,0,1,.74,4.45,8.14,8.14,0,0,1-2.57,5.53,7.07,7.07,0,0,1-.89.65,5.85,5.85,0,0,1,1.63-.12c.52,0,1.58.2,2.44.21.57,0,1.77-2,1.87-1.81.47,1-.29,4.16-.6,4.65-.79,1.24-1.69,2.93-3.47,3.43a4.84,4.84,0,0,1-1,.17,1.34,1.34,0,0,0-.71.19,2.14,2.14,0,0,0-.61.53c-1.27,1.48-2,3.5-1.76,3.83A.51.51,0,0,0,976,55h0c.32-.05.79-.71,1-1s.71-1,1.43-1h.25l.25.11a1.4,1.4,0,0,1,.77,1.51v.06a6.54,6.54,0,0,0,1,2.77c.21.43.34.64.42.79a1.62,1.62,0,0,1,.3,1.05c-.07,1.47-1.47,2.33-4,3.4a57.16,57.16,0,0,1-5.79,2l-.79.23c-1.87.55-2.59.79-2.73,1.13a1.27,1.27,0,0,0-.06.5,3.26,3.26,0,0,1-.47,1.77,4.42,4.42,0,0,1-2.71,1.82,36.11,36.11,0,0,0-6.48,2.82c-1.16.59-2.36,1.21-3.58,1.75-.8.36-1.71.76-2,1.48-.06.19-.07.27.07,1,0,.19.07.39.11.62a21.62,21.62,0,0,1,.27,2.66,32.59,32.59,0,0,0,.38,3.76c.2,1.37.28,1.53.41,1.68a7.53,7.53,0,0,0,2.36,1.16c.52.14,2.26.59,2.38.89s-2.58,1.22-3.6,1.49c-.58.16-1.78.61-2.54.93a9.77,9.77,0,0,0-2.4,1.56l-.27.2c-.85.62-2,1.41-3.24,2.24-3,2-9.31,6.3-9.61,7.72a1.7,1.7,0,0,0,0,.22,2.24,2.24,0,0,0,.26,1.52,3.11,3.11,0,0,0,.46.74c.43.23,3.57,1,3.42,1.4s-4.12,0-4.94,0Zm-8.56-33.07h.12a1.87,1.87,0,0,1,1.35.55,1.75,1.75,0,0,1,.36,1.62c0,.17,0,.39-.07.67s0,.41,0,.61c.37-.47,1-1.19,2.27-2.54.77-.82,1.18-1.21,1.43-1.44s.19-.17.24-.27a1.56,1.56,0,0,0,.18-.8,5,5,0,0,1,.38-1.82,6.34,6.34,0,0,1,2.39-3.17c.26-.16.48-.27.66-.36a1.65,1.65,0,0,0,.31-.17l0-.08h-.06c-.42,0-1,.35-2.07,1.27a17.14,17.14,0,0,0-3.09,3c-.25.33-.43.61-.57.83a3,3,0,0,1-1.46,1.38,3.86,3.86,0,0,1-1.49.27,2.19,2.19,0,0,0-1.06.21,1,1,0,0,1,.15.16l0,0Z" fill="#3b5e88"/><path d="M936.37,105.27l-.59,0c-2-.16-3.15-.24-3.53-1.12a2.39,2.39,0,0,1,0-1.43,4.53,4.53,0,0,1,.15-.61c-.36.15-.82.4-1,.5s-.42.23-.57.23h-.27l-.24-.4,0-.2c.06-.2.17-.27.46-.43,1.66-1,1.87-1.46,1.85-1.67s-.17-.29-.3-.43-.51-.5-.3-.9a.64.64,0,0,1,.61-.33,3.49,3.49,0,0,1,.51.06,5,5,0,0,0,.82.09,1.75,1.75,0,0,0,.78-.16,1.83,1.83,0,0,0,.58-.48,38.75,38.75,0,0,1,3.27-3.19c2.09-1.9,4.45-4,4.69-5.38a1.81,1.81,0,0,1,.84-1.4,1,1,0,0,1,.41-.09l.24,0h.26c.44-.08.77-.52.75-.7s-.15-.19-.2-.24A19.16,19.16,0,0,1,943,84.38a24.25,24.25,0,0,0-1.7-1.81,1.52,1.52,0,0,1-.37-1.92.56.56,0,0,0,.09-.3,1,1,0,0,0-.79-.35.57.57,0,0,0-.18,0v.14a5.32,5.32,0,0,1-2.52,4.16,1.76,1.76,0,0,1-.32.15,5.68,5.68,0,0,0-.72.29c-.83.37-1.44.7-1.67.82-4.89,2.63-9.43,5.87-11.55,8.25a3.74,3.74,0,0,0-.69,1,5.31,5.31,0,0,0,0,3.41,17.81,17.81,0,0,0,.81,2.49c.3.77.46,1.19,0,1.43l-.11,0h-.13a.88.88,0,0,1-.62-.38c-.87-1-1.86-2.05-2.76-2.14h-.15a.69.69,0,0,0-.3,0s0,.12.08.46a7.76,7.76,0,0,0,.26,1,.64.64,0,0,1-.12.77l-.13.09h-.19c-.7,0-3.29-2.49-4.44-5.75a4.68,4.68,0,0,1-.27-2.81A4.3,4.3,0,0,1,916,91.44c3.56-3.19,9.95-12.32,9.52-14.83a4.68,4.68,0,0,1,.25-2.62c.09-.29.3-1,.87-1h0a.77.77,0,0,1,.63.34.64.64,0,0,0,.14.15.7.7,0,0,0,.52.15,1.16,1.16,0,0,1,.87.32,1.1,1.1,0,0,1,.18,1,7.08,7.08,0,0,0-.08.72c-.06.83-.08,1.31.16,1.57a.74.74,0,0,0,.51.24l.09,0c.07,0,.12-.15.15-.2a18.83,18.83,0,0,1,2.57-3c.74-.81,1.14-1.18,1.38-1.4a1.3,1.3,0,0,0,.39-.48,2.1,2.1,0,0,0,.26-1.09,4.43,4.43,0,0,1,.33-1.59,5.73,5.73,0,0,1,2.11-2.83c.23-.14.43-.24.6-.33.36-.17.51-.25.62-.48a.9.9,0,0,0,0-.91.81.81,0,0,0-.57-.2h-.1c-.62,0-1.29.37-2.53,1.43a18.06,18.06,0,0,0-3.2,3.16c-.27.36-.45.65-.6.88a2.38,2.38,0,0,1-1.13,1.11,3.42,3.42,0,0,1-1.25.21,2.7,2.7,0,0,0-1.39.31l-.08,0a1.21,1.21,0,0,1-.57.19.78.78,0,0,1-.31-.07c-.67-.34-.43-1.47-.17-2.67,1-4.54,1.08-5,1.71-5h0c.61.06.67.8.78,2.14,0,.15,0,.34,0,.53,1.69-4.32,7.37-10.16,8.26-10.79a.73.73,0,0,0,.17-.16,1.07,1.07,0,0,0,.06-.84c-.2-.88.24-3.18,1.17-7.9,1-5.29,2.11-10.75,5.2-16.09,1.82-3.13,4.19-5.49,8.92-10.17s10.81-10,11.77-10a.51.51,0,0,1,.39.16c.4.42.16.68-1.44,2.39a90.32,90.32,0,0,0-10.06,12.6,35.66,35.66,0,0,0-4.72,8.9,36.55,36.55,0,0,0-1.77,12.31,6.2,6.2,0,0,1,2.08-1.39,3.52,3.52,0,0,0,1.7-1.26,1.16,1.16,0,0,0,.19-.5,3,3,0,0,1,.39-1.05,6.9,6.9,0,0,1,2.13-2.28,4.46,4.46,0,0,1,1.46-.68,4.83,4.83,0,0,0,1.36-.59c.39-.24.73-.49,1-.71.55-.4.91-.67,1.29-.67a.73.73,0,0,1,.4.13,1.06,1.06,0,0,1,.38.89,2.59,2.59,0,0,1-.29,1.4c-.54,1-1.1,3.93-.79,4.46a5.79,5.79,0,0,0,2.56-2.17c.4-.56,1.68-2.5,1.07-3.68a1.78,1.78,0,0,0-.25-.38,2.52,2.52,0,0,1-.56-1.14,3.76,3.76,0,0,1,.22-1.79,3.1,3.1,0,0,1,1.13-1.89,1.86,1.86,0,0,1,1-.36h.08a1.8,1.8,0,0,1,.89.26,2.32,2.32,0,0,0,.39.18,2.09,2.09,0,0,0,.67.11,2.44,2.44,0,0,0,.62-.08,2.07,2.07,0,0,0,1.32-1.12,1.13,1.13,0,0,0,.09-.49,4.21,4.21,0,0,1,0-.46,5,5,0,0,1,1.52-3.13,3.7,3.7,0,0,1,2.23-.83,1.46,1.46,0,0,1,1.14.43c.38.45.24,1,0,1.73-.06.21-.13.47-.2.76a9.11,9.11,0,0,0-.29,2,6.34,6.34,0,0,1-.23,1.56c-.34,1.24-1,3.53-2.69,4.12a2.72,2.72,0,0,1-.86.14c-.23,0-.46,0-.68,0a5.36,5.36,0,0,0-.7-.05,3.42,3.42,0,0,0-.9.12,2.34,2.34,0,0,1,.41.27,8.61,8.61,0,0,0,4.71,1.85l.37,0c1-.07,1.89-.44,2-.79a.42.42,0,0,0-.05-.26,7,7,0,0,1,.09-3.69,11,11,0,0,1,1.46-3.75c1.2-1.94,3.23-3.78,4.18-3.78a.71.71,0,0,1,.43.13c.36.26.28.66.21,1a3.76,3.76,0,0,0,.43,2.75l.21.45a8.4,8.4,0,0,1,.6,4.17,7.42,7.42,0,0,1-2.32,5,7.24,7.24,0,0,1-1.34.88,3.94,3.94,0,0,0-1.55,1.25c-.22.31-.8,1.11-.59,1.52a1.11,1.11,0,0,0,.85.43.24.24,0,0,0,.13,0A4.38,4.38,0,0,1,978,44.51a4,4,0,0,1,1.51-.12l2.06,0c.5,0,1.13,0,1.42.51s0,1.11-.38,1.7c-.76,1.19-1.54,2.43-3.06,2.86a4.24,4.24,0,0,1-.89.14,2.12,2.12,0,0,0-1,.28,3.06,3.06,0,0,0-.79.68c-1,1.22-2.52,3.85-1.77,4.75a1.18,1.18,0,0,0,.89.37h.15c.63-.09,1.15-.83,1.49-1.32s.5-.71.85-.71h.11l.12.05c.37.17.34.59.33.81v.06c0,.84.3,1.56,1.06,3.13.22.45.36.69.45.84a1,1,0,0,1,.2.65c0,1-1,1.68-3.58,2.79a57.94,57.94,0,0,1-5.71,2l-.79.23c-2.2.64-2.91.88-3.19,1.53a2,2,0,0,0-.11.76,2.59,2.59,0,0,1-.36,1.42,3.7,3.7,0,0,1-2.31,1.5,37,37,0,0,0-6.61,2.88c-1.15.59-2.34,1.2-3.54,1.73-.88.4-2,.89-2.34,1.89a2.4,2.4,0,0,0,0,1.38c0,.18.07.38.1.61a20,20,0,0,1,.27,2.58,33.67,33.67,0,0,0,.38,3.82c.22,1.44.32,1.73.57,2a3.26,3.26,0,0,0,1.76.91c.49.13,1,.26,1,.77s-.57.73-1.53,1a17,17,0,0,0-2.15.7,12.29,12.29,0,0,0-2.74,1.63l-.27.2c-.84.61-2,1.39-3.22,2.22-3.8,2.57-9.55,6.46-9.91,8.17a2.52,2.52,0,0,0,0,1.07,2.27,2.27,0,0,0,.52.83c.23.26.5.58.32,1s-.74.44-1,.44Z" fill="#465d76"/><path d="M919.32,101.64c.06,0-.12-.31-.31-1.29-.1-.48-.11-.67,0-.82.22-.31.78-.26.88-.25,1.08.11,2.11,1.25,3.06,2.29.09.11.23.26.29.23s-.62-1.47-1.07-3.4a5.62,5.62,0,0,1,0-3.69,4.27,4.27,0,0,1,.77-1.19c2.09-2.33,6.55-5.59,11.68-8.34.31-.17.9-.48,1.71-.84s.75-.28,1-.42a4.91,4.91,0,0,0,2.29-3.73.67.67,0,0,1,.14-.5,1.34,1.34,0,0,1,1.75.5c.17.47-.41.87-.21,1.51a1.18,1.18,0,0,0,.37.52c1.49,1.41,2.66,3.15,4.29,4.41a.93.93,0,0,1,.38.55c.06.49-.52,1.11-1.14,1.23-.38.07-.52-.1-.79,0-.45.21-.55.88-.58,1-.41,2.3-5.74,6.11-8,8.78a2.1,2.1,0,0,1-.74.61c-1.11.54-2.36-.16-2.51.14s.6.51.65,1.07c.11,1.08-2.35,2.21-2.32,2.27s1.9-1.14,2.19-.81c.13.14-.13.44-.28,1.25-.11.6-.17.89-.06,1.15.27.62,1.26.69,3.14.83.69.06,1,0,1.09-.13s-.6-.63-.86-1.48a2.91,2.91,0,0,1,0-1.31c.51-2.46,9.67-8,13.31-10.68a14,14,0,0,1,3.11-1.87c1.83-.77,3.4-.88,3.39-1.26s-1.67-.23-2.64-1.38c-.35-.42-.46-.84-.67-2.27-.55-3.74-.26-4-.65-6.4-.2-1.19-.35-1.58-.13-2.21a4.3,4.3,0,0,1,2.6-2.17c3.41-1.52,6.6-3.6,10.18-4.62a3.33,3.33,0,0,0,2.06-1.31c.49-.8.13-1.35.45-2.11.41-1,1.53-1.22,4.28-2a54.52,54.52,0,0,0,5.66-2c2.43-1,3.26-1.65,3.29-2.38,0-.26-.09-.21-.6-1.25-.78-1.6-1.16-2.4-1.11-3.37,0-.17,0-.37-.05-.41-.29-.14-1,1.83-2.3,2a1.69,1.69,0,0,1-1.47-.53c-1.08-1.28.88-4.31,1.77-5.36a3.44,3.44,0,0,1,.92-.78c.78-.45,1.21-.24,2-.47,1.34-.38,2.06-1.52,2.78-2.65.46-.73.48-1,.37-1.21s-.56-.27-1-.28a21.45,21.45,0,0,0-3.37.06,4,4,0,0,0-1.94,1.86.62.62,0,0,1-.15.24c-.37.31-1.39,0-1.7-.56s.32-1.59.63-2c1-1.33,1.85-1.25,3-2.22a7.24,7.24,0,0,0,2.16-4.73,7.88,7.88,0,0,0-.56-3.93,6.13,6.13,0,0,1-.77-2.19c-.09-1.11.3-1.65.07-1.81-.45-.34-2.58,1.33-3.93,3.51a10.59,10.59,0,0,0-1.39,3.58,6.55,6.55,0,0,0-.12,3.43.86.86,0,0,1,.07.56c-.19.74-1.53,1.08-2.4,1.15-2.61.2-5.12-1.7-5.41-1.93a1.68,1.68,0,0,0-.34-.23c-.59-.28-1.16-.06-1.2-.17s.31-.34.9-.57c1.64-.63,2.44.08,3.5-.29,1.48-.51,2.06-2.61,2.39-3.79.39-1.4,0-1.52.52-3.57.3-1.22.57-1.73.28-2.07-.44-.51-1.86-.25-2.71.45a4.54,4.54,0,0,0-1.35,2.82,3.43,3.43,0,0,1-.15,1.08A2.53,2.53,0,0,1,966,34.94a2.59,2.59,0,0,1-1.56,0c-.5-.17-.71-.44-1.19-.42a1.5,1.5,0,0,0-.76.28,2.63,2.63,0,0,0-.94,1.64,3.1,3.1,0,0,0-.21,1.56c.13.7.52.91.77,1.39.78,1.54-.86,3.82-1.12,4.18-.94,1.31-2.62,2.68-3.2,2.3-.75-.5.12-4.11.63-5.08a2.24,2.24,0,0,0,.24-1.15c0-.24,0-.45-.17-.54-.34-.23-1.06.56-2.21,1.26-1.42.86-1.62.45-2.81,1.26a6.51,6.51,0,0,0-2,2.12c-.5.9-.19.93-.59,1.57-1,1.59-2.78,1.26-4.15,3.11-.13.17-.18.25-.24.24-.55-.09-.53-7.15,1.54-13.41,1.14-3.45,2.58-5.68,4.76-9,6-9.15,11.85-14.1,11.56-14.41s-5.77,4.16-11.49,9.83c-4.7,4.66-7.05,7-8.84,10.08-3,5.27-4.09,10.58-5.15,15.94-.79,4-1.35,6.89-1.17,7.69a1.67,1.67,0,0,1-.13,1.23,1.11,1.11,0,0,1-.29.28c-.82.58-6.8,6.71-8.23,11,0,.16-.24.75-.44.74-.46,0-.29-3.46-.73-3.5-.24,0-.58,1.53-1.25,4.64-.2.93-.41,2-.08,2.14.14.08.32,0,.52-.15,1.12-.59,1.83-.19,2.68-.54.65-.27.69-.68,1.54-1.83a18.19,18.19,0,0,1,3.27-3.24c1.32-1.13,2.11-1.6,3-1.54a1.24,1.24,0,0,1,.9.36,1.38,1.38,0,0,1,.05,1.44c-.28.55-.75.59-1.38,1a5.21,5.21,0,0,0-1.93,2.61c-.53,1.33-.06,1.62-.6,2.71-.28.56-.32.33-1.86,2a24.59,24.59,0,0,0-2.48,2.84.83.83,0,0,1-.38.45,1.09,1.09,0,0,1-1.16-.34c-.37-.41-.33-1-.28-1.91s.24-1.18,0-1.41-.84,0-1.35-.42c-.22-.2-.28-.4-.43-.39s-.36.41-.45.68a4.27,4.27,0,0,0-.23,2.4c.49,2.87-6.3,12.23-9.66,15.24A4,4,0,0,0,915,93.68a4.16,4.16,0,0,0,.26,2.53c1.18,3.34,3.81,5.59,4,5.43Z" fill="#3e72b2"/><path d="M984.4,55.46a3.68,3.68,0,0,1-.46,0,3.19,3.19,0,0,1-1.28-.55l-.08,0a21.42,21.42,0,0,0-2.1-1.16c-.79-.39-1.22-.61-1.14-1.09s.39-.46.7-.56a5.34,5.34,0,0,0,.76-.28,7.32,7.32,0,0,0,2-1.67c.66-.68,1-1.1,1.27-1.4a4.35,4.35,0,0,1,1-.94,5.31,5.31,0,0,1,2.26-1,.53.53,0,0,1,.46.2c.21.29,0,.58-.18.84a3.82,3.82,0,0,0-.28.42,3.12,3.12,0,0,0-.24,2.06,8.73,8.73,0,0,1-.07,2.76,2.92,2.92,0,0,1-.89,1.89,2.57,2.57,0,0,1-1.65.54Z" fill="url(#linear-gradient-9)"/><path d="M979.69,52.65c-.06.39,1,.6,3.08,1.89a3.19,3.19,0,0,0,1.23.54,2.43,2.43,0,0,0,1.82-.43c.2-.16.54-.52.77-1.69.48-2.39-.46-3.5.35-4.93.26-.46.58-.74.49-.87s-1.32.23-2.23.87-.69.75-2.19,2.3A7.46,7.46,0,0,1,981,52.07c-.77.37-1.22.33-1.26.58Z" fill="#38669e"/><path d="M984.83,32.55c-.71.48.72,2.46.13,5.15-.1.46-.24.84-.07,1,.33.25,1.83-.65,2.5-2,.45-.94.14-1.31.78-2.64.26-.53.47-.8.34-1s-.9,0-2.27-.21C985.19,32.63,985.07,32.4,984.83,32.55Z" fill="#3e72b2"/><path d="M984.4,53.92h-.22a1.77,1.77,0,0,1-.7-.33l-.08,0c-.49-.31-.94-.56-1.32-.76a14.46,14.46,0,0,0,1.78-1.62c.7-.72,1.07-1.16,1.33-1.48l.22-.25c0,.34,0,.67.07,1a7,7,0,0,1-.05,2.31,2.3,2.3,0,0,1-.36,1,1.13,1.13,0,0,1-.67.18Z" fill="#3e72b2"/><path d="M883.18,104.56a6,6,0,0,1-1.3-.17c-2.68-.64-4.55-3.35-5.45-4.66-1.57-2.28-3.07-4.69-4.44-7.16a1.34,1.34,0,0,1,0-1.3,1.31,1.31,0,0,1,1.12-.64,1.21,1.21,0,0,1,.43.07,23.66,23.66,0,0,0,6.35.93,8.61,8.61,0,0,0,2.28-.25,6.23,6.23,0,0,0,2.54-1.83,2.92,2.92,0,0,0-1.39-1.34c-5.78-2.6-9.59-4.32-10.22-4.46a18,18,0,0,0-3.24-.24,57.49,57.49,0,0,0-7.61.62c-1.48.2-3.08.45-4.79.72a95.79,95.79,0,0,1-13.9,1.55,19.69,19.69,0,0,1-4.05-.36c-1.25-.25-4.17-1.07-4.43-3.09a3.12,3.12,0,0,1,0-.81,9.56,9.56,0,0,0,.06-1.27l-.16,0-.24,0c-2.52,0-5.44-5.35-6.51-11.91a58.83,58.83,0,0,1-.53-10c0-.84,0-1.53,0-2.13a15.73,15.73,0,0,0-.27-4.15,12.45,12.45,0,0,0-2.74-6.13A18.22,18.22,0,0,0,821.39,44c-1.26-.84-2.35-1.56-1.82-2.72a1.39,1.39,0,0,1,.9-.76c3.11-1,4.93-1.5,6.26-1.5a3,3,0,0,1,1.83.52,4.65,4.65,0,0,1,1.64,2.66c1,3.4,1.77,5.92,2.33,8.09.68-2.55.33-9-2.11-14.13a13.49,13.49,0,0,0-2.53-3.71A17.86,17.86,0,0,1,824.41,27c-1.51-3.42-2.9-7.78-1-9.1a1.83,1.83,0,0,1,1-.32,5.43,5.43,0,0,1,2.63,1.13A39.14,39.14,0,0,0,831.31,21a20.27,20.27,0,0,0,3.51,1.28,8.73,8.73,0,0,1,2.75,1.14c3.3,2,4.91,4.94,6.6,8a25.81,25.81,0,0,1,1.89,4.25,27.67,27.67,0,0,0,1.85,4.19,38,38,0,0,0,2.89,4.61c0-.33-.07-.67-.11-1a56.64,56.64,0,0,1-.52-8.38,9.5,9.5,0,0,1,.9-3.84c.7-1.46,2.18-3.92,4.25-3.92h.15A3.33,3.33,0,0,1,858,29.12a7.14,7.14,0,0,0,2.48,2.34,3.39,3.39,0,0,0,1,.44,3.42,3.42,0,0,0,.39-.51,3.59,3.59,0,0,1,2-1.65,2.09,2.09,0,0,1,.53-.07,1.27,1.27,0,0,1,.34,0c1.75.4,2,3.31,1.54,5.14A7.38,7.38,0,0,1,865,37.49a12.53,12.53,0,0,1-2,2.33,20.31,20.31,0,0,0-2,2,6.15,6.15,0,0,0-1,1.34,1.86,1.86,0,0,0,.61,1.11,3,3,0,0,0,1.87,1l.22,0a1,1,0,0,0,.35-.23l.06-.05a17.46,17.46,0,0,1,6.26-3,10.53,10.53,0,0,1,2.43-.39h0l-.15-.37a11.24,11.24,0,0,1,0-7.28c1.08-3.6,4-7.46,6.55-7.46a3,3,0,0,1,.61.07,3.36,3.36,0,0,1,2.33,2.95,3.11,3.11,0,0,1-.69,2.08,3.08,3.08,0,0,0-.38.64c-.37,1,.39,2.36.9,3.26.78,1.4,1.59,2.77,2.37,4.1a92.32,92.32,0,0,1,4.46,8.2c.77,1.7,1.77,4.38,1.34,6.15a9.89,9.89,0,0,1,4.27,3.32c1.95,2.62,3,6.6,1.34,9.16a3,3,0,0,1-.47.57,6,6,0,0,0-.42.46,12.06,12.06,0,0,0-2.15,3.71v2c4.72,2.58,6.84,4.84,6.66,7.07,0,.08,0,.2,0,.34a10.8,10.8,0,0,0,0,3.17,2.56,2.56,0,0,0,.28,1.09A4.59,4.59,0,0,0,901,86.28c.28.11.53.19.76.26.81.26,1.73.55,1.92,1.57a1.91,1.91,0,0,1-.66,1.76c-6.71,6.81-10.45,8-10.61,8.1-.83.26-1.46.4-2,.52a6.2,6.2,0,0,0-2.19.8c-1.94,1.17-2.8,2.29-2.79,2.88v.06a2.24,2.24,0,0,1-.46,1.59,2.3,2.3,0,0,1-1.84.74ZM833.87,58.09a2.94,2.94,0,0,0,1,2,3,3,0,0,0,1.41.33h0a2.81,2.81,0,0,0,1.21-.3,9.24,9.24,0,0,1,1.94-.62c.26,0,.5-.08.72-.11a4,4,0,0,0-2.37-1.09h-.26l-.88,0-1,0A6.6,6.6,0,0,1,833.87,58.09Z" fill="#bb8135"/><path d="M823.85,82.49a6.4,6.4,0,0,1-2.82-.62,5.61,5.61,0,0,1-3.14-3.71,29.73,29.73,0,0,1,.35-8c.21-1.56.77-2.35,1.66-2.35a1.26,1.26,0,0,1,1,.49,13.17,13.17,0,0,1,.88,1.4A19.74,19.74,0,0,0,827.11,76c2,1.47,3.76,2.28,5,2.28a1.51,1.51,0,0,0,.31,0h.16a1.21,1.21,0,0,1,.41,2.36,55.23,55.23,0,0,1-5.63,1.44,19.57,19.57,0,0,1-3.53.43Z" fill="#bb8135"/><path d="M814.86,65.92c-2.11,0-4.51-4-5-4.77a24.18,24.18,0,0,1-2.75-8.5c0-.07-1.33-7.82-.27-9.27a1.24,1.24,0,0,1,.85-.52h.18c1,0,1.32.82,2.05,2.78.57,1.53,1.9,5.11,3,5.48a2.83,2.83,0,0,0,.9.16H814a1.7,1.7,0,0,0,.47-.32,4.46,4.46,0,0,1,.53-.42,4.15,4.15,0,0,1,2.32-.64,7.69,7.69,0,0,1,2.73.56c1.47.58,2.62,1.7,4,3.86,1.21,2,5,8.53,2.5,10.43a2.57,2.57,0,0,1-1.59.47,13.47,13.47,0,0,1-5.51-1.88l-.07,0a2.72,2.72,0,0,0-1.26-.47.78.78,0,0,0-.22,0,1.62,1.62,0,0,0-.72.43,2,2,0,0,0-.54,1.05,2,2,0,0,1-1.05,1.47A1.56,1.56,0,0,1,814.86,65.92Z" fill="#bb8135"/><path d="M818.52,34.89a12.5,12.5,0,0,1-1.79-.12c-2.23-.32-2.88-1.56-3.58-2.88a14.12,14.12,0,0,0-1.51-2.38A15.31,15.31,0,0,0,807,26a15.26,15.26,0,0,1-3.54-2.46,1.65,1.65,0,0,1-.34-1.9c.64-1.29,3.34-2.67,6-3.08a4.5,4.5,0,0,1,.68-.05,14.62,14.62,0,0,1,4.5.87,3.21,3.21,0,0,0,.7-.81c.07-.09.11-.16.15-.22a1.78,1.78,0,0,1,.75-.71,2,2,0,0,1,.84-.18,2.89,2.89,0,0,1,2,.94,3.58,3.58,0,0,1,.85,2.54c0,1.36-.09,2.43-.15,3.37a13.07,13.07,0,0,0,.07,3.69,4,4,0,0,0,.69,1.81,4.24,4.24,0,0,0,2.33,1.48h.19a1.49,1.49,0,0,1,.55,2.9A15.3,15.3,0,0,1,818.52,34.89Z" fill="#bb8135"/><path d="M847.81,34.12c-1.83,0-3.78-5.29-3.8-5.35a13.82,13.82,0,0,1-.79-3.3,3.41,3.41,0,0,0-.56-1.76A15.07,15.07,0,0,0,840,20.9c-1-.91-1.48-1.33-1.46-2a1.23,1.23,0,0,1,.45-.94,1.25,1.25,0,0,1,.85-.29c1.17,0,9,1.93,11.19,5.18.26.39,1.32,2.7.19,4.46a2.56,2.56,0,0,1-.56.63l-.37.35a6.84,6.84,0,0,0-1.53,2,2.76,2.76,0,0,0,.12,1.84c.31,1,.11,1.62-.58,1.93l-.23.1Z" fill="#bb8135"/><path d="M872.74,92.23a.23.23,0,0,1,.26-.33c2,.6,6.67,1.33,9.1.62.38-.11,3.64-1.67,3.38-3.13a3.81,3.81,0,0,0-2.07-2.26c-6.54-2.95-9.81-4.42-10.5-4.54-1-.18-3.91-.64-11.22.36-6.91,1-16.85,3.07-22.34,1.93-.19,0-3.32-.71-3.5-2.08-.05-.37.12-.78.08-2,0-.63-.08-.92-.29-1.09s-.92,0-1.2,0c-1.4.18-4.31-4-5.43-10.91a58.41,58.41,0,0,1-.52-9.76c0-3.3.21-4.36-.26-6.53a13.55,13.55,0,0,0-3-6.68c-2.11-2.32-5.21-3.59-5-4.11a.22.22,0,0,1,.17-.12c4-1.24,6.08-1.85,7.05-1.15a3.57,3.57,0,0,1,1.2,2c2,6.52,2.93,9.78,3.34,13.47.24,2.2.38,4.29,1.84,5.18a4.54,4.54,0,0,0,2,.51c1.31,0,1.67-.6,3.39-.94s2.25,0,2.41-.32c.33-.73-2.09-3.27-4.34-3.23a18.25,18.25,0,0,1-2,0,3.5,3.5,0,0,1-1.67-.32c-.26-.18-.78-.69-.73-3.08a10.75,10.75,0,0,1,.36-3.18c.8-2.92.35-9.7-2.17-15-2.06-4.34-3.7-3.86-6-9.09-.14-.31-2.87-6.63-1.38-7.64.85-.59,2.26,1.13,6.71,3.15,3.75,1.72,4.08,1.1,6.13,2.35,3,1.87,4.54,4.6,6.19,7.6,2,3.62,1.61,4.49,3.73,8.43,1.7,3.16,4.22,6.84,5,6.5s-.66-5.44-.49-11.8a8.26,8.26,0,0,1,.78-3.37c.16-.33,1.59-3.33,3.26-3.23,1.46.08,1.57,2.41,4.47,4,.72.39,1.37.74,2,.5.9-.37,1.08-1.79,2.27-2.12a.5.5,0,0,1,.29,0c.7.16,1,2.16.65,3.73a6.3,6.3,0,0,1-1.07,2.24c-1.18,1.78-2.1,2.09-3.91,4.28-1.17,1.42-1.23,1.81-1.23,2,0,1.76,2.54,3.7,4.2,3.24a2.26,2.26,0,0,0,.84-.5,16.2,16.2,0,0,1,5.79-2.79c1.3-.31,2.47-.59,3.6,0,.42.21.47.49,1.8,1.61.3.25,2,1.66,2.17,1.47s-3.18-2-4.44-5.38a10.28,10.28,0,0,1,0-6.52c1.06-3.5,4-7,5.75-6.58a2.21,2.21,0,0,1,1.43,1.88c.06.9-.65,1.32-1,2.22-.56,1.48.31,3.09,1,4.26,2.4,4.3,5,8.18,6.78,12.21,0,0,2.3,5,.89,6-.14.1-.69.38-.65.47s.32,0,.36,0c.65-.11,3.29.73,5.14,3.21,1.62,2.18,2.7,5.7,1.31,7.81a10.93,10.93,0,0,1-.81.91,13.39,13.39,0,0,0-1.85,2.85,6.09,6.09,0,0,0-.58,2.59v.75a1.72,1.72,0,0,0,.89,1.5c4.85,2.7,5.87,4.55,5.77,5.78a12.89,12.89,0,0,0,0,3.78,3.82,3.82,0,0,0,.43,1.53,5.62,5.62,0,0,0,3,2c1.09.41,1.85.49,1.93.94.06.3-.21.58-.34.71-6.59,6.68-10.12,7.8-10.12,7.8-2.13.67-2.84.49-4.42,1.44-.48.29-3.39,2-3.36,3.91a1.19,1.19,0,0,1-.19.86c-.45.54-1.58.27-2,.19-2.17-.52-3.85-2.87-4.75-4.18C875.77,97.3,874.3,95,872.74,92.23Z" fill="url(#linear-gradient-10)"/><path d="M832.19,79.5s0-.07,0-.06c-1.82.23-4.15-1-6.18-2.49-4-3-5.52-6.79-6.44-8-.13-.16-.42.24-.56,1.29a29,29,0,0,0-.35,7.72,4.51,4.51,0,0,0,2.44,2.79c1.18.5,2,.82,5.65.12a55.2,55.2,0,0,0,5.46-1.4Z" fill="url(#linear-gradient-11)"/><path d="M814.64,64.7c.51-.23.23-1.31,1.25-2.3a2.82,2.82,0,0,1,1.29-.73,3.4,3.4,0,0,1,2.4.63c1.58.93,4.8,2.25,5.78,1.5,1.34-1-1.18-6.27-2.79-8.88-1.33-2.17-2.3-3-3.37-3.37-.38-.15-2.53-1-4,0-.47.31-.71.71-1.39.91a3.54,3.54,0,0,1-1.69-.2C809.66,51.37,808,44,807.47,44c-.4.06-.37,3.88.42,8.42a23.22,23.22,0,0,0,2.61,8.11c1.45,2.52,3.36,4.49,4.14,4.14Z" fill="url(#linear-gradient-12)"/><path d="M803.89,22.73a.52.52,0,0,1-.14-.56c.37-.73,2.59-2,5.15-2.43a12.06,12.06,0,0,1,4.59.76,1,1,0,0,0,.44.1c.71,0,1.33-.89,1.64-1.33s.27-.47.45-.55a1.46,1.46,0,0,1,1.48.5,2.35,2.35,0,0,1,.52,1.72c0,3.57-.48,5.22,0,7.31a5.06,5.06,0,0,0,.92,2.29,4.86,4.86,0,0,0,3.42,1.93c.07,0,.36,0,.41.15.11.28-.2.45-.28.48a15.36,15.36,0,0,1-6,.5c-2.55-.37-2.12-2-4.34-4.83C809.78,25.79,805.76,24.7,803.89,22.73Z" fill="url(#linear-gradient-13)"/><path d="M843.25,23.08c1.08,1.72.35,2.24,1.46,5.29,1,2.76,2.45,4.67,2.71,4.56s-.75-1.54-.17-3.1a7.85,7.85,0,0,1,1.81-2.43c.47-.47.59-.5.76-.77.76-1.19-.05-3-.17-3.17-1.95-2.91-10-4.86-10.3-4.64S841.92,21,843.25,23.08Z" fill="url(#linear-gradient-14)"/><path d="M847.86,69.3V59.61h3.2a9.47,9.47,0,0,1,2.13.18,2.46,2.46,0,0,1,1.31.81,3,3,0,0,1,.51,1.92,1.91,1.91,0,0,1-.41,1.36,1.69,1.69,0,0,1-.29.22,1.56,1.56,0,0,1,.46.37,2.36,2.36,0,0,1,.44,1.54v.83a3.11,3.11,0,0,1-.3,1.53,1.67,1.67,0,0,1-1,.76,10.07,10.07,0,0,1-2.37.17ZM851.4,67a.7.7,0,0,0,.24-.06,3,3,0,0,0,0-.4v-.83a2.19,2.19,0,0,0,0-.43l-.24,0Zm0-3.89.22,0a3.26,3.26,0,0,0,0-.75,1.22,1.22,0,0,0,0-.41c0-.05,0-.05,0-.05l-.18,0Z" fill="#1e3e63"/><path d="M855.42,69.3V59.61h5.8v2.51h-2v1h1.9v2.42h-1.9V66.8h2.24v2.5Z" fill="#1e3e63"/><path d="M868.83,69.3V62.12h-1.37V59.61h5.62v2.51H871.7V69.3Z" fill="#1e3e63"/><path d="M848.2,60h2.86a9,9,0,0,1,2.06.17,2,2,0,0,1,1.12.69,2.66,2.66,0,0,1,.43,1.69,1.57,1.57,0,0,1-.3,1.1,2.27,2.27,0,0,1-1.2.48,2.24,2.24,0,0,1,1.35.6,2,2,0,0,1,.36,1.31v.83a2.78,2.78,0,0,1-.26,1.35,1.33,1.33,0,0,1-.81.6,10.71,10.71,0,0,1-2.29.16H848.2V60Zm2.87,1.53v2h.28c.29,0,.47-.05.54-.16a2.26,2.26,0,0,0,.12-1,1.2,1.2,0,0,0-.1-.59.39.39,0,0,0-.25-.22A3.07,3.07,0,0,0,851.07,61.5Zm0,3.4v2.51a1.46,1.46,0,0,0,.77-.15,1,1,0,0,0,.17-.69v-.83c0-.39,0-.62-.15-.7a1.58,1.58,0,0,0-.79-.14Z" fill="url(#linear-gradient-15)"/><path d="M855.78,60h5.09v1.79h-2v1.71h1.91v1.71h-1.91v2h2.24V69h-5.29V60Z" fill="url(#radial-gradient)"/><path d="M872.81,60v1.79h-1.38V69H869.1V61.76h-1.37V60Z" fill="url(#radial-gradient-2)"/><path d="M865.24,69.3l-.14-1.61h-.42l-.16,1.61H861l1.52-9.69h4.55l1.71,9.69Zm-.3-3.91c0-.28-.07-.58-.11-.89,0,.33-.08.63-.11.89Z" fill="#1e3e63"/><path d="M866.78,60l1.59,9h-2.83l-.15-1.62h-1L864.23,69h-2.87l1.42-9Zm-1.47,5.77c-.14-1-.28-2.27-.42-3.77-.28,1.72-.46,3-.53,3.77Z" fill="url(#radial-gradient-3)"/><path d="M876.93,69.49a6,6,0,0,1-2.23-.38A2.38,2.38,0,0,1,873.38,68a4,4,0,0,1-.3-1.71v-.95h2.51l-.05,0a13.69,13.69,0,0,1-1.55-.86,2.42,2.42,0,0,1-.72-.85A2.8,2.8,0,0,1,873,62.3a2.86,2.86,0,0,1,.41-1.71,2.59,2.59,0,0,1,1.28-.88,6.06,6.06,0,0,1,2-.29,6.54,6.54,0,0,1,2.15.32,2.28,2.28,0,0,1,1.29.89,3.32,3.32,0,0,1,.33,1.7V63h-2.74a8.15,8.15,0,0,1,2.37,1.46,3.12,3.12,0,0,1,.62,2.15,3,3,0,0,1-.35,1.61,2.49,2.49,0,0,1-1.31.9,6.05,6.05,0,0,1-2.08.33Zm-.26-2.24h.14a.26.26,0,0,0,.18-.05.54.54,0,0,0,.07-.32c0-.6-.13-.75-.16-.77a2.43,2.43,0,0,0-.28-.19v.89a1.26,1.26,0,0,0,0,.43Zm.08-5.6c-.1,0-.13,0-.14.05a.49.49,0,0,0-.06.29.82.82,0,0,0,.1.48.74.74,0,0,0,.22.17V62a1.59,1.59,0,0,0,0-.36Z" fill="#1e3e63"/><path d="M880.06,62.68h-2.83V62a1,1,0,0,0-.11-.59.46.46,0,0,0-.37-.13.51.51,0,0,0-.41.17.77.77,0,0,0-.14.52,1.16,1.16,0,0,0,.16.68,2.25,2.25,0,0,0,.86.55,8.57,8.57,0,0,1,2.56,1.52,2.78,2.78,0,0,1,.53,1.91,2.67,2.67,0,0,1-.29,1.42,2.25,2.25,0,0,1-1.13.76,5.88,5.88,0,0,1-2,.31,5.4,5.4,0,0,1-2.09-.36,2.09,2.09,0,0,1-1.14-.9,3.64,3.64,0,0,1-.27-1.56v-.59h2.84v1.09a1.12,1.12,0,0,0,.12.65.51.51,0,0,0,.42.15.54.54,0,0,0,.46-.19.89.89,0,0,0,.14-.54,1.39,1.39,0,0,0-.28-1A9.31,9.31,0,0,0,875.7,65a16.22,16.22,0,0,1-1.5-.84,2.09,2.09,0,0,1-.62-.72,2.55,2.55,0,0,1-.24-1.18,2.61,2.61,0,0,1,.35-1.51,2.17,2.17,0,0,1,1.11-.74,5.6,5.6,0,0,1,1.85-.27,6.32,6.32,0,0,1,2,.29,2,2,0,0,1,1.11.74,3.14,3.14,0,0,1,.27,1.52v.35Z" fill="url(#linear-gradient-16)"/><path d="M868.71,74.2a5.73,5.73,0,0,1-1.77-.26,3,3,0,0,1-1.34-.8,2.23,2.23,0,0,1-.63-1.21,15,15,0,0,1-.09-2V68.39a17.21,17.21,0,0,1,.08-2,2.25,2.25,0,0,1,.61-1.22,3,3,0,0,1,1.31-.81,5.68,5.68,0,0,1,1.83-.27,5.8,5.8,0,0,1,1.78.25,3.24,3.24,0,0,1,1.34.8,2.29,2.29,0,0,1,.63,1.22,14.93,14.93,0,0,1,.09,2v1.53a14.81,14.81,0,0,1-.09,2,2.24,2.24,0,0,1-.6,1.22,3.22,3.22,0,0,1-1.32.81,5.64,5.64,0,0,1-1.83.27ZM868.64,72h.15a6.79,6.79,0,0,0,0-.85V67a3.37,3.37,0,0,0,0-.62h-.06s-.08,0-.1,0h0a5.86,5.86,0,0,0,0,.6v4.19a4,4,0,0,0,0,.79Z" fill="#4874ab"/><path d="M872.66,74V68h-.59V66.11h.6a2.84,2.84,0,0,1,.07-.7,1.16,1.16,0,0,1,.44-.63,2.08,2.08,0,0,1,.85-.35,7.09,7.09,0,0,1,1.5-.11h1.41V68h-.68v6Z" fill="#4874ab"/><path d="M872.19,69.93a14.49,14.49,0,0,1-.08,1.92,1.93,1.93,0,0,1-.51,1,2.73,2.73,0,0,1-1.17.71,5.24,5.24,0,0,1-1.72.25,5.76,5.76,0,0,1-1.67-.23,2.87,2.87,0,0,1-1.19-.71,1.93,1.93,0,0,1-.53-1,14,14,0,0,1-.09-1.94V68.39a13.76,13.76,0,0,1,.09-1.91,1.83,1.83,0,0,1,.51-1,2.84,2.84,0,0,1,1.17-.72,5.5,5.5,0,0,1,1.71-.25,5.39,5.39,0,0,1,1.67.24,2.71,2.71,0,0,1,1.19.71,1.89,1.89,0,0,1,.54,1,14.55,14.55,0,0,1,.08,1.94v1.54Zm-3-3a2.13,2.13,0,0,0-.09-.8.38.38,0,0,0-.37-.18.43.43,0,0,0-.36.15,1.48,1.48,0,0,0-.13.83v4.19a3.43,3.43,0,0,0,.08,1,.39.39,0,0,0,.39.18.38.38,0,0,0,.39-.21,3.28,3.28,0,0,0,.09-1V67Z" fill="url(#linear-gradient-17)"/><path d="M876.59,64.67v1.14a4.91,4.91,0,0,0-1.06.06c-.1,0-.16.17-.16.37v.23h1.22v1.17h-.69v6H873v-6h-.6V66.47h.6a5,5,0,0,1,.06-1,.82.82,0,0,1,.32-.44,2,2,0,0,1,.71-.29,7.83,7.83,0,0,1,1.42-.1Z" fill="url(#linear-gradient-18)"/><path d="M852,59.27a6.94,6.94,0,0,1-1.9-.25,3.49,3.49,0,0,1-1.43-.8A2.24,2.24,0,0,1,848,57a15,15,0,0,1-.09-2V53.46a14.81,14.81,0,0,1,.09-2,2.19,2.19,0,0,1,.65-1.22,3.48,3.48,0,0,1,1.4-.81,6.79,6.79,0,0,1,2-.26,6.5,6.5,0,0,1,1.89.25,3.35,3.35,0,0,1,1.43.79,2.18,2.18,0,0,1,.68,1.23,13,13,0,0,1,.1,2V55a14.71,14.71,0,0,1-.09,2,2.2,2.2,0,0,1-.66,1.23,3.35,3.35,0,0,1-1.4.8A6.43,6.43,0,0,1,852,59.27ZM851.86,57h.1a.21.21,0,0,0,.11,0,4.75,4.75,0,0,0,0-.84V52.05a2.1,2.1,0,0,0,0-.62H852a.21.21,0,0,0-.13,0h0a3.65,3.65,0,0,0,0,.59v4.19a3.55,3.55,0,0,0,.05.79Z" fill="#3970b2"/><path d="M857.13,59.08V49.39h3.62a10.36,10.36,0,0,1,2.11.16,2.88,2.88,0,0,1,1.22.5,1.8,1.8,0,0,1,.6.85,4.69,4.69,0,0,1,.14,1.36V53a2.74,2.74,0,0,1-.3,1.44,1.93,1.93,0,0,1-1.09.75,5.87,5.87,0,0,1-1.83.23h-.52v3.62Zm4-5.87a.55.55,0,0,0,.27-.06.87.87,0,0,0,0-.39V52c0-.25,0-.31,0-.31a.67.67,0,0,0-.27-.06Z" fill="#3970b2"/><path d="M865.61,59.08V49.39h6.11V51.9h-2.16v1h2v2.42h-2v1.26h2.38v2.51Z" fill="#3970b2"/><path d="M877.24,59.08l-1.1-2.65v2.65h-3.41V49.39H876l1.23,2.74V49.39h3.42v9.69Z" fill="#3970b2"/><path d="M855.62,51.52a1.78,1.78,0,0,0-.58-1,3,3,0,0,0-1.28-.71,6.2,6.2,0,0,0-1.79-.24,6.37,6.37,0,0,0-1.85.25,3.07,3.07,0,0,0-1.26.72,1.84,1.84,0,0,0-.55,1,13.83,13.83,0,0,0-.09,1.92V55a14,14,0,0,0,.09,1.94,1.86,1.86,0,0,0,.58,1,3.1,3.1,0,0,0,1.28.71,6.61,6.61,0,0,0,1.8.23,6,6,0,0,0,1.84-.25,3,3,0,0,0,1.26-.71,1.81,1.81,0,0,0,.55-1,14,14,0,0,0,.09-1.92V53.47A14.15,14.15,0,0,0,855.62,51.52Zm-3.15,4.66a3.28,3.28,0,0,1-.09,1q-.09.21-.42.21c-.22,0-.35-.06-.41-.18a3,3,0,0,1-.09-1V52.05a1.48,1.48,0,0,1,.13-.83.5.5,0,0,1,.39-.15.42.42,0,0,1,.4.18,2.17,2.17,0,0,1,.09.8Z" fill="url(#linear-gradient-19)"/><path d="M864.34,51a1.36,1.36,0,0,0-.48-.68,2.61,2.61,0,0,0-1.07-.44,10.61,10.61,0,0,0-2-.15h-3.26v9h3.24V55.11h.87a5.79,5.79,0,0,0,1.72-.21,1.57,1.57,0,0,0,.9-.61,2.37,2.37,0,0,0,.25-1.25v-.78A4.26,4.26,0,0,0,864.34,51Zm-2.58,1.74a.65.65,0,0,1-.79.82h-.24V51.28a1.65,1.65,0,0,1,.83.14.7.7,0,0,1,.2.6Z" fill="url(#linear-gradient-20)"/><path d="M866,49.74h5.4v1.8h-2.16v1.7h2V55h-2v2h2.37v1.79H866Z" fill="url(#linear-gradient-21)"/><path d="M880.31,49.74v9h-2.84l-1.68-4.08v4.08h-2.71v-9h2.71l1.82,4v-4Z" fill="url(#linear-gradient-22)"/><path d="M852.05,79.39V76.05a1.8,1.8,0,0,0-.07-.66h0l-.2,0v4h-3.92V69.7h2.63a23.61,23.61,0,0,1,3.13.13,2.6,2.6,0,0,1,1.51.76,2.64,2.64,0,0,1,.61,1.92,2.29,2.29,0,0,1-.46,1.65,1,1,0,0,1-.34.24,1.56,1.56,0,0,1,.19.14,1.59,1.59,0,0,1,.51.69,4.94,4.94,0,0,1,.1,1.44v2.72Zm-.27-6.17a.9.9,0,0,0,.22,0,.91.91,0,0,0,0-.39v-.5c0-.21,0-.26,0-.26a.55.55,0,0,0-.22,0v1.25Z" fill="#213e5f"/><path d="M860.94,79.39l-.17-1.61h-.52l-.19,1.61H856l1.77-9.69H863l2,9.69Zm-.35-3.92c-.05-.31-.1-.65-.14-1-.06.38-.11.71-.15,1Z" fill="#213e5f"/><path d="M868.66,79.58a4.48,4.48,0,0,1-1.65-.31,3.06,3.06,0,0,1-1.21-.81,2.23,2.23,0,0,1-.53-1,7.55,7.55,0,0,1-.1-1.45V73.29a6.79,6.79,0,0,1,.21-2A2.37,2.37,0,0,1,866.64,70a5.26,5.26,0,0,1,2.5-.53,6.06,6.06,0,0,1,2.49.45A2.7,2.7,0,0,1,873,71.13a4.16,4.16,0,0,1,.32,1.84v.75h-3.92V72.54a4.19,4.19,0,0,0,0-.8h-.12c-.08,0-.11,0-.11,0a2.86,2.86,0,0,0,0,.65v1.45h4.24v5.53h-2.6l-.18-.39a2.21,2.21,0,0,1-.58.34,3.29,3.29,0,0,1-1.31.24Zm.49-2.24h.11a.25.25,0,0,0,.17,0,1.55,1.55,0,0,0,.08-.67v-.71h-.42v.79a1.89,1.89,0,0,0,.06.62Z" fill="#213e5f"/><path d="M874.39,79.39V69.7h6.07v2.51h-2.15v1h2v2.42h-2v1.26h2.36v2.51Z" fill="#213e5f"/><path d="M862.7,70.05l1.84,9h-3.28l-.17-1.61h-1.15L859.75,79h-3.32l1.64-9ZM861,75.83c-.16-1-.32-2.28-.49-3.77-.32,1.72-.53,3-.61,3.77Z" fill="url(#radial-gradient-4)"/><path d="M848.22,70.05h2.27a24.68,24.68,0,0,1,3.08.13,2.3,2.3,0,0,1,1.31.65,2.39,2.39,0,0,1,.5,1.68,2.07,2.07,0,0,1-.35,1.4,2.2,2.2,0,0,1-1.41.44,2.81,2.81,0,0,1,1.28.46,1.34,1.34,0,0,1,.4.53,5.67,5.67,0,0,1,.08,1.33V79h-3v-3a1.59,1.59,0,0,0-.15-.89c-.11-.12-.38-.17-.82-.17v4h-3.21v-9Zm3.21,1.54v2a1.92,1.92,0,0,0,.76-.11c.14-.07.21-.31.21-.7v-.5a.63.63,0,0,0-.21-.56A1.51,1.51,0,0,0,851.43,71.59Z" fill="url(#linear-gradient-23)"/><path d="M873,73.36h-3.21v-.82a3,3,0,0,0-.09-1c-.06-.13-.21-.19-.44-.19a.43.43,0,0,0-.4.16,2,2,0,0,0-.11.86v4.31a1.9,1.9,0,0,0,.11.79.43.43,0,0,0,.42.19.5.5,0,0,0,.48-.21,1.83,1.83,0,0,0,.13-.85V75.58h-.65V74.21H873V79h-2l-.3-.64a1.93,1.93,0,0,1-.82.62,3.07,3.07,0,0,1-1.18.21,4,4,0,0,1-1.52-.28,2.74,2.74,0,0,1-1.07-.71,2,2,0,0,1-.46-.89,7.76,7.76,0,0,1-.09-1.38V73.29a6.86,6.86,0,0,1,.19-1.87,2.07,2.07,0,0,1,1.1-1.07,4.94,4.94,0,0,1,2.33-.49,5.53,5.53,0,0,1,2.34.43,2.28,2.28,0,0,1,1.21,1A3.87,3.87,0,0,1,873,73v.39Z" fill="url(#radial-gradient-5)"/><path d="M874.75,70.05h5.35v1.8H878v1.7h2v1.71h-2v2h2.35V79h-5.56v-9Z" fill="url(#linear-gradient-24)"/></svg>