<svg xmlns="http://www.w3.org/2000/svg" viewBox="0 0 1000 113.99998"><title>logo_right</title><g id="Layer_2" data-name="Layer 2"><rect x="865.21527" y="26.72301" width="24" height="24" fill="#fff"/><rect x="973.21527" y="14.72301" width="12" height="87" fill="#fff"/></g><g id="Calque_1" data-name="Calque 1"><path d="M669.51086,7a14.14733,14.14733,0,0,1,9.92023,3.87688,20.97328,20.97328,0,0,1,5.92926,9.57806l25.3136,86.203H689.57928L684.33417,87.8438H655.82788l-5.4732,18.81414H629.146l26.33976-87.34327a19.344,19.344,0,0,1,5.24518-8.66588A12.056,12.056,0,0,1,669.51086,7M660.845,69.59978h17.7879l-8.4378-42.64537L660.845,69.59978M669.51086,0a19.03731,19.03731,0,0,0-13.66975,5.63939,26.49616,26.49616,0,0,0-7.0601,11.66376l-26.33689,87.33374a7,7,0,0,0,6.70188,9.02105h21.20868a7,7,0,0,0,6.72135-5.0447l4.00565-13.76944h17.93706l3.81769,13.694a7,7,0,0,0,6.74285,5.12017H710.674a7,7,0,0,0,6.7164-8.97226l-25.31357-86.203-.01721-.05771A28.03545,28.03545,0,0,0,684.1705,5.72537,21.03393,21.03393,0,0,0,669.51086,0Zm.03516,62.59978.29758-1.35727.26855,1.35727Z" fill="#fff"/><path d="M801.78,7a14.14754,14.14754,0,0,1,9.92023,3.87682,20.97386,20.97386,0,0,1,5.92926,9.57812l25.31359,86.203H821.84839L816.60327,87.8438H788.097l-5.4732,18.81414H761.4151l26.33978-87.34327a19.34369,19.34369,0,0,1,5.24518-8.66588A12.056,12.056,0,0,1,801.78,7m-8.6659,62.59978H810.902l-8.43787-42.64537-9.35,42.64537M801.78,0a19.03724,19.03724,0,0,0-13.66974,5.63939,26.4962,26.4962,0,0,0-7.06012,11.66376l-26.33688,87.33374a7,7,0,0,0,6.70187,9.02105h21.20868a7,7,0,0,0,6.72134-5.0447L793.3508,94.8438h17.937l3.81769,13.694a7,7,0,0,0,6.74286,5.12017h21.09466a7,7,0,0,0,6.7164-8.97226l-25.31356-86.203-.01722-.05771a28.03585,28.03585,0,0,0-7.889-12.69959A21.03424,21.03424,0,0,0,801.78,0Zm.03512,62.59978.29761-1.35727.26856,1.35727Z" fill="#fff"/><path d="M945.56561,8.82439V107H924.699V8.82439h20.86657m0-7H924.699a7,7,0,0,0-7,7V107a7,7,0,0,0,7,7h20.86657a7,7,0,0,0,7-7V8.82439a7,7,0,0,0-7-7Z" fill="#fff"/><path d="M764.94989,8.48235V27.1824h-18.472v79.47554H725.72528V27.1824H707.02515v-18.7h57.92474m0-7H707.02515a7,7,0,0,0-7,7V27.1824a7,7,0,0,0,7,7h11.70013v72.47554a7,7,0,0,0,7,7h20.75256a7,7,0,0,0,7-7V34.1824h11.472a7,7,0,0,0,7-7v-18.7a7,7,0,0,0-7-7Z" fill="#fff"/><path d="M881.14142,8.8244a28.64374,28.64374,0,0,1,20.41052,8.43785c5.81525,5.70124,8.77991,12.20069,8.77991,19.61231a23.2659,23.2659,0,0,1-5.01709,15.05133A38.3649,38.3649,0,0,1,891.5177,62.18816l25.42761,44.46978H893.00006L872.81763,68.0034a47.7147,47.7147,0,0,1-2.28052-5.1311,11.414,11.414,0,0,1-.91223-3.53479c0-4.333,3.30676-7.86774,10.14825-10.60431,6.72748-2.73663,10.14826-6.27142,10.14826-10.37628a12.20247,12.20247,0,0,0-2.85065-7.5257c-1.93842-2.39453-3.99091-3.64879-6.27136-3.64879H868.94073v79.47551H848.87231V21.82323c0-2.96459,1.36829-5.92926,4.10492-8.77991S858.45044,8.8244,861.187,8.8244h19.95441m0-7H861.187c-4.7399,0-9.20105,2.14359-13.25952,6.3712-5.00464,5.21321-6.05518,10.28821-6.05518,13.62763v84.83471a7,7,0,0,0,7,7h20.06842a7,7,0,0,0,7-7V89.10915l10.85419,20.7886a7,7,0,0,0,6.20514,3.76019h23.94525a7,7,0,0,0,6.07672-10.47467L901.11157,64.86455a40.7956,40.7956,0,0,0,9.65448-8.54737,30.16447,30.16447,0,0,0,6.5658-19.44262c0-9.253-3.66037-17.53334-10.87943-24.61081l-.05072-.04923A35.463,35.463,0,0,0,881.14142,1.8244Zm-5.20069,32.358h4.63562a5.1497,5.1497,0,0,1,1.00382.99208,5.04374,5.04374,0,0,1,1.34122,3.18241c0,.23913-1.067,1.97265-5.78586,3.89221q-.61346.24535-1.1948.49908V34.18243Z" fill="#fff"/><path d="M979.08893,8.82439a14.135,14.135,0,0,1,9.57812,3.76281,12.09384,12.09384,0,0,1,4.10492,9.57813,14.80128,14.80128,0,0,1-3.6488,9.92016,11.8317,11.8317,0,0,1-9.57807,4.21894,13.33493,13.33493,0,0,1-9.92022-4.10492A13.37808,13.37808,0,0,1,965.52,22.50743a13.12736,13.12736,0,0,1,4.10492-9.57812,13.06487,13.06487,0,0,1,9.46405-4.10492m.45617,21.77881a7.20717,7.20717,0,0,0,5.7013-2.50855,8.46719,8.46719,0,0,0,2.16644-5.92932,7.94267,7.94267,0,0,0-2.28052-5.58722,8.89071,8.89071,0,0,0-6.04327-2.16649H979.089a7.53409,7.53409,0,0,0-5.47321,2.39452,7.5341,7.5341,0,0,0-2.39453,5.4732,7.67835,7.67835,0,0,0,2.50861,5.92932,8.29673,8.29673,0,0,0,5.81524,2.39454m-.45617-28.77881A20.08638,20.08638,0,0,0,964.67511,7.9796a20.35542,20.35542,0,0,0-.0517,29.1178,20.23492,20.23492,0,0,0,14.92169,6.207A18.86052,18.86052,0,0,0,994.43658,36.643,21.72985,21.72985,0,0,0,999.772,22.16533a19.1117,19.1117,0,0,0-6.4953-14.84613,20.98953,20.98953,0,0,0-14.18774-5.49481Zm.45617,21.77881c-.21856,0-.49053,0-1.03894-.51183-.21887-.2043-.28491-.266-.28491-.812,0-.0626,0-.17917.34442-.52356.34412-.34416.4607-.34416.52332-.34416a2.20518,2.20518,0,0,1,1.176.25111.75381.75381,0,0,1,.14789.5026,1.74157,1.74157,0,0,1-.29608,1.16623q-.08157.08788-.16016.17854a.56.56,0,0,1-.07171.07277l-.00354-.00119a2.88246,2.88246,0,0,1-.33625.02152Z" fill="#fff"/><path d="M992.658,90.01024v14.25317a2.19617,2.19617,0,0,1-1.14026,1.71033,4.01693,4.01693,0,0,1-2.39453.79822c-1.25427,0-2.85059-.91223-4.90308-2.73664-1.93841-1.8244-3.99084-3.6488-5.92932-5.58722-1.93841-1.8244-3.53473-2.85064-4.675-2.85064a2.376,2.376,0,0,0-1.71038.79822,2.34879,2.34879,0,0,0-.79822,1.93841,2.74787,2.74787,0,0,0,.79822,2.05243,2.83856,2.83856,0,0,0,2.16644.79816v5.4732a8.02232,8.02232,0,0,1-5.92932-2.50854,8.48057,8.48057,0,0,1-2.50855-5.92926,7.60582,7.60582,0,0,1,2.50855-5.81531,7.91724,7.91724,0,0,1,5.8153-2.39453,9.93618,9.93618,0,0,1,6.8415,3.30676c2.28051,2.16644,4.447,4.21893,6.49945,6.27136l.114-9.57812H992.658m0-7h-5.24518a6.98551,6.98551,0,0,0-5.315,2.44452,15.49249,15.49249,0,0,0-8.14-2.44452,14.91339,14.91339,0,0,0-10.67962,4.36A14.5983,14.5983,0,0,0,958.634,98.22008a15.53186,15.53186,0,0,0,4.39118,10.7055q.0823.08822.16766.17353a14.91446,14.91446,0,0,0,10.879,4.55877,6.99943,6.99943,0,0,0,6.21234-3.77087c2.27972,1.92416,5.25073,3.885,8.839,3.885a11.07443,11.07443,0,0,0,6.46319-2.10211,8.97024,8.97024,0,0,0,4.0716-7.40644V90.01024a7,7,0,0,0-7-7Z" fill="#fff"/><path d="M979.08893,38.699a14.135,14.135,0,0,1,9.57812,3.76282A12.0939,12.0939,0,0,1,992.772,52.0399a14.80127,14.80127,0,0,1-3.6488,9.92017A11.83172,11.83172,0,0,1,979.5451,66.179,14.01805,14.01805,0,0,1,965.52,52.382a13.12733,13.12733,0,0,1,4.10492-9.57812,13.06491,13.06491,0,0,1,9.46405-4.10492m.45617,21.77881a7.20736,7.20736,0,0,0,5.7013-2.50855,8.46719,8.46719,0,0,0,2.16644-5.92932,7.94269,7.94269,0,0,0-2.28052-5.58722,8.89047,8.89047,0,0,0-6.04327-2.1665H979.089a8.19718,8.19718,0,0,0-7.86774,7.86774,7.67835,7.67835,0,0,0,2.50861,5.92932,8.29676,8.29676,0,0,0,5.81524,2.39453M979.08893,31.699a20.08638,20.08638,0,0,0-14.41382,6.15521,20.35542,20.35542,0,0,0-.0517,29.1178,20.23492,20.23492,0,0,0,14.92169,6.207,18.86052,18.86052,0,0,0,14.89148-6.66141A21.72989,21.72989,0,0,0,999.772,52.0399a19.11171,19.11171,0,0,0-6.4953-14.84613A20.98958,20.98958,0,0,0,979.08893,31.699Zm.45617,21.77881c-.21856,0-.49053,0-1.03894-.51184-.21887-.20429-.28491-.26593-.28491-.812,0-.0626,0-.17917.34442-.52356.34412-.34418.4607-.34418.52332-.34418a2.205,2.205,0,0,1,1.176.2511.75382.75382,0,0,1,.14789.50262,1.74161,1.74161,0,0,1-.29608,1.16623q-.08148.08784-.16.17844a.55675.55675,0,0,1-.07184.07281l-.00348-.00116a2.87622,2.87622,0,0,1-.33631.02155Z" fill="#fff"/><path d="M983.764,68.3455a8.64065,8.64065,0,0,1,6.6134,2.85059A9.54968,9.54968,0,0,1,993,78.03764a7.66835,7.66835,0,0,1-2.96466,6.15735,10.45623,10.45623,0,0,1-6.72742,2.50855c-1.02624,0-2.85064-.57013-5.58728-1.8244s-5.47314-2.50855-8.09576-3.8769-3.99085-2.05243-3.99085-2.05243V72.67845l9.80616,4.675a9.15042,9.15042,0,0,1,2.39453-6.49939A7.90588,7.90588,0,0,1,983.764,68.3455m.11407,12.6568a3.18748,3.18748,0,0,0,3.53473-3.53479,3.43506,3.43506,0,0,0-1.02624-2.62262,3.68011,3.68011,0,0,0-2.39453-.91217,3.612,3.612,0,0,0-2.62256,1.02625,3.662,3.662,0,0,0-1.14026,2.50854,3.23374,3.23374,0,0,0,1.14026,2.50855,3.74113,3.74113,0,0,0,2.5086,1.02624M983.764,61.3455a14.90135,14.90135,0,0,0-11.059,4.74549,15.60084,15.60084,0,0,0-1.29675,1.58551l-2.762-1.31671A7,7,0,0,0,958.634,72.67845v6.27136a7.00113,7.00113,0,0,0,3.86884,6.26065c.0133.00666,1.36041.68122,3.884,1.99787,2.78113,1.451,5.64606,2.76416,8.41663,4.034,3.7641,1.72518,6.30731,2.46118,8.50439,2.46118a17.44121,17.44121,0,0,0,11.17737-4.105A14.57171,14.57171,0,0,0,1000,78.03764a16.43827,16.43827,0,0,0-4.52515-11.63907A15.71633,15.71633,0,0,0,983.764,61.3455Z" fill="#fff"/><path d="M710.674,106.65793H689.57931l-5.24516-18.81414H655.82788l-5.4732,18.81414H629.146l26.3398-87.34321a19.34305,19.34305,0,0,1,5.24515-8.66591A12.056,12.056,0,0,1,669.51089,7a14.14748,14.14748,0,0,1,9.92019,3.87685,20.97378,20.97378,0,0,1,5.9293,9.57811ZM678.6329,69.59978,670.195,26.9544,660.845,69.59978Zm86.317-42.41733H746.47782v79.47548H725.72525V27.18245h-18.7001V8.48234h57.92474V27.18245ZM842.943,106.65793H821.8484l-5.24516-18.81414H788.097l-5.47321,18.81414H761.41511l26.3398-87.34321a19.343,19.343,0,0,1,5.24516-8.66591A12.056,12.056,0,0,1,801.78,7a14.14741,14.14741,0,0,1,9.92018,3.87685,20.97378,20.97378,0,0,1,5.9293,9.57811ZM810.902,69.59978,802.46414,26.9544l-9.35005,42.64538H810.902Zm106.04333,37.05815H893.00005L872.81761,68.00342a47.7162,47.7162,0,0,1-2.2805-5.13113,11.41335,11.41335,0,0,1-.9122-3.53477c0-4.33295,3.30672-7.86773,10.14822-10.60433,6.72747-2.73661,10.14823-6.27138,10.14823-10.37629a12.20248,12.20248,0,0,0-2.85063-7.52565c-1.93842-2.39453-3.99088-3.64881-6.27138-3.64881h-11.8586v79.47549H848.87233V21.82327c0-2.96465,1.36829-5.9293,4.10491-8.77993s5.4732-4.21893,8.2098-4.21893h19.95441a28.64348,28.64348,0,0,1,20.41048,8.43786c5.81529,5.70125,8.77993,12.20068,8.77993,19.61231a23.26572,23.26572,0,0,1-5.0171,15.05131,38.365,38.365,0,0,1-13.797,10.26226ZM945.56562,107H924.699V8.82441h20.86658Z" fill="#ed1c24"/><path d="M992.658,90.12429V104.2634a2.19631,2.19631,0,0,1-1.14025,1.71038,4.017,4.017,0,0,1-2.39453.79817c-1.25428,0-2.85063-.9122-4.90306-2.7366-1.93845-1.8244-3.99088-3.6488-5.92932-5.58723-1.93844-1.8244-3.53479-2.85063-4.675-2.85063a2.376,2.376,0,0,0-1.71037.79817,2.34892,2.34892,0,0,0-.79819,1.93843,2.74786,2.74786,0,0,0,.79819,2.05245,2.83859,2.83859,0,0,0,2.16646.79817v5.47321a8.02225,8.02225,0,0,1-5.92931-2.50855,8.48054,8.48054,0,0,1-2.50857-5.9293,7.60562,7.60562,0,0,1,2.50857-5.81528,7.91723,7.91723,0,0,1,5.81528-2.39452,9.93632,9.93632,0,0,1,6.84151,3.30673c2.2805,2.16648,4.447,4.21892,6.49944,6.27138l.114-9.57811H992.658ZM983.764,68.3455a8.64074,8.64074,0,0,1,6.61344,2.85063A9.54953,9.54953,0,0,1,993,78.03763a7.66846,7.66846,0,0,1-2.96466,6.15736,10.45619,10.45619,0,0,1-6.72748,2.50855c-1.02622,0-2.85062-.57013-5.58722-1.8244s-5.47319-2.50855-8.09579-3.87686-3.99087-2.05245-3.99087-2.05245V72.67845l9.80616,4.675a9.15066,9.15066,0,0,1,2.39453-6.49943A7.906,7.906,0,0,1,983.764,68.3455Zm.22807,5.58723a3.61219,3.61219,0,0,0-2.62257,1.02623,3.66212,3.66212,0,0,0-1.14025,2.50855,3.23362,3.23362,0,0,0,1.14025,2.50856,3.741,3.741,0,0,0,2.50857,1.02622,3.18747,3.18747,0,0,0,3.53475-3.53478,3.435,3.435,0,0,0-1.02622-2.62257,3.67982,3.67982,0,0,0-2.39453-.9122ZM992.772,52.03992a14.80137,14.80137,0,0,1-3.64882,9.92018,11.83177,11.83177,0,0,1-9.5781,4.21893A14.018,14.018,0,0,1,965.52,52.382a13.12725,13.12725,0,0,1,4.10491-9.57811A13.06507,13.06507,0,0,1,979.089,38.699a14.13492,14.13492,0,0,1,9.5781,3.76282,12.09375,12.09375,0,0,1,4.10491,9.57811Zm-13.683-7.75371a8.1972,8.1972,0,0,0-7.86773,7.86773,7.67827,7.67827,0,0,0,2.50857,5.9293,8.29691,8.29691,0,0,0,5.81528,2.39453,7.2071,7.2071,0,0,0,5.70126-2.50855,8.46716,8.46716,0,0,0,2.16647-5.92931,7.94274,7.94274,0,0,0-2.2805-5.58723A8.89076,8.89076,0,0,0,979.089,44.2862Zm13.683-22.12086a14.80137,14.80137,0,0,1-3.64882,9.92018,11.8318,11.8318,0,0,1-9.5781,4.21893,13.335,13.335,0,0,1-9.9202-4.10491A13.37812,13.37812,0,0,1,965.52,22.50742a13.12728,13.12728,0,0,1,4.10491-9.57811,13.06507,13.06507,0,0,1,9.46407-4.1049,14.13493,14.13493,0,0,1,9.5781,3.76283,12.09373,12.09373,0,0,1,4.10491,9.5781Zm-13.683-7.75371a7.53386,7.53386,0,0,0-5.47319,2.39453,7.5339,7.5339,0,0,0-2.39454,5.4732,7.67826,7.67826,0,0,0,2.50857,5.9293,8.29691,8.29691,0,0,0,5.81528,2.39453,7.20706,7.20706,0,0,0,5.70126-2.50855,8.46713,8.46713,0,0,0,2.16647-5.92931,7.94277,7.94277,0,0,0-2.2805-5.58723,8.89076,8.89076,0,0,0-6.04332-2.16647Z" fill="#ed1c24"/></g></svg>