<svg xmlns="http://www.w3.org/2000/svg" viewBox="0 0 1000 114"><title>logo</title><g id="Layer_2" data-name="Layer 2"><rect x="345.09" y="18.76" width="63" height="71.16" fill="#fff"/><rect x="465.42" y="20.43" width="38" height="29.78" fill="#fff"/></g><g id="Capa_1" data-name="Capa 1"><path d="M491.28,9.14a1.08,1.08,0,0,0,.49.15h.36A42.94,42.94,0,0,1,514,15.37q9.94,5.94,10.66,19.39a29,29,0,0,1-.67,6.36h0a24,24,0,0,1-5.11,10.44,31.08,31.08,0,0,1-15.1,9.8l6.91,11.52h0L520.89,90c.28.57.55,1,.78,1.43s.5.76.79,1.14a16,16,0,0,0,2.8,3.15,12,12,0,0,0,4.22,2.14v6.73H502.29L483.5,72.88l-5.39-9.08h-7.86v9.08h0V90.12a10.38,10.38,0,0,0,1.21,5.51c.81,1.29,2.41,2,4.79,2.21v6.73H440.2V97.7c2.2-.09,3.74-.81,4.65-2.15a9.22,9.22,0,0,0,1.36-5.29V41.12h0V23.74c0-2.48-.41-4.27-1.21-5.37s-2.42-1.83-4.8-2.21v-7h51.08m-21,41.06h12.39a25.76,25.76,0,0,0,11.64-2.65,9.56,9.56,0,0,0,5.07-6.44,17.22,17.22,0,0,0,.51-4.36q0-8-5-11a23.25,23.25,0,0,0-12.16-3H470.25V50.2m37.88,22.68h0M491.28,2.14H440.2a7,7,0,0,0-7,7v7a7,7,0,0,0,5.9,6.91l.09,0c0,.19,0,.4,0,.65V90.26c0,.2,0,.37,0,.52a7,7,0,0,0-6,6.92v6.87a7,7,0,0,0,7,7h36.05a7,7,0,0,0,7-7V97.84a7,7,0,0,0-6-6.92c0-.23,0-.49,0-.8V76.06l.23.4,18.79,31.68a7,7,0,0,0,6,3.43h27.19a7,7,0,0,0,7-7V97.84a7,7,0,0,0-4.91-6.68,5.6,5.6,0,0,1-1.76-.78,9.15,9.15,0,0,1-1.6-1.82,2,2,0,0,0-.17-.23c-.14-.19-.28-.39-.42-.61s-.25-.44-.49-.9a3.75,3.75,0,0,0-.24-.44L516.64,69.29l-2.8-4.66a36.93,36.93,0,0,0,10.35-8.58,31.1,31.1,0,0,0,6.49-13c0-.13.07-.26.1-.39a36.58,36.58,0,0,0,.83-7.87c0-.13,0-.25,0-.38-.76-14.2-8.07-21.44-14.06-25A50,50,0,0,0,492.73,2.3a7,7,0,0,0-1.45-.16Zm-14,27.6h5.44a16.31,16.31,0,0,1,8.57,2c1.06.63,1.6,2.32,1.6,5a10.8,10.8,0,0,1-.28,2.59,2.57,2.57,0,0,1-1.44,1.95,18.66,18.66,0,0,1-8.5,1.91h-5.39V29.74Z" fill="#fff"/><path d="M635.34,7a55.61,55.61,0,0,1,22.59,4.51,46.92,46.92,0,0,1,18,14.23L661.3,41.12h0l-3.22,3.36-5.41-3.36-1-.64a10.79,10.79,0,0,0,1.22-2.22,9.6,9.6,0,0,0,.65-2.5q0-7.3-5.44-10.87a21.61,21.61,0,0,0-12.17-3.58q-13.73,0-20.1,8.94A32.94,32.94,0,0,0,611,40.14l-.26,1h0a42.28,42.28,0,0,0-1.31,10.8,42.3,42.3,0,0,0,5.4,20.92h0a48.61,48.61,0,0,0,4.46,6.62q9.87,12.38,25.9,12.37c.75,0,1.57,0,2.43-.07s1.72-.12,2.58-.21a25.18,25.18,0,0,0,9.08-2.86,12,12,0,0,0,5.79-7.3l7.72-.14v23.32a62.47,62.47,0,0,1-6.64,1.35c-2.25.34-4.51.6-6.8.79-1.53.1-3,.17-4.51.22s-3,.07-4.5.07h-3.15c-1.05,0-2.1,0-3.14-.14a103.24,103.24,0,0,1-22.54-3.65,55,55,0,0,1-20.1-10.37,50.86,50.86,0,0,1-13.66-17.31c-.42-.88-.82-1.76-1.19-2.65h0v0a48.25,48.25,0,0,1-3.73-18.77,48.47,48.47,0,0,1,1.66-13h0A40.47,40.47,0,0,1,599,19.73,57.33,57.33,0,0,1,635.34,7m0-7a64.38,64.38,0,0,0-40.67,14.23A47.43,47.43,0,0,0,577.84,39c0,.1-.06.2-.09.3A57,57,0,0,0,580,75.31c.07.18.14.35.22.52.4.94.82,1.87,1.26,2.77A58.06,58.06,0,0,0,597,98.25,62.33,62.33,0,0,0,619.66,110a110.85,110.85,0,0,0,23.93,3.88c1.24.11,2.46.16,3.62.16h3.15c1.6,0,3.15,0,4.72-.07,1.73-.06,3.27-.14,4.74-.23H660c2.4-.2,4.84-.48,7.25-.84a70.09,70.09,0,0,0,7.39-1.51,7,7,0,0,0,5.22-6.77V81.25a7,7,0,0,0-7-7h-.13l-7.72.14a7,7,0,0,0-6.55,4.91A5,5,0,0,1,656,82.54a18.49,18.49,0,0,1-6.53,2.06c-.8.08-1.51.14-2.16.17s-1.43.06-2.06.06c-8.52,0-15.2-3.18-20.43-9.73A42.2,42.2,0,0,1,621,69.44a35,35,0,0,1-4.52-17.52,35.65,35.65,0,0,1,1-8.77l.06-.21.24-.9a26,26,0,0,1,3.74-7.73c2.87-4,7.58-6,14.39-6a14.68,14.68,0,0,1,8.32,2.42c1.12.74,2.16,1.81,2.28,4.53a2.42,2.42,0,0,1-.1.32,4.42,4.42,0,0,1-.47.86,7,7,0,0,0,2,10l1,.64,5.41,3.37a7,7,0,0,0,8.77-1.11l3.21-3.38h0L681,30.57a7,7,0,0,0,.41-9.18,54.1,54.1,0,0,0-20.7-16.3A62.9,62.9,0,0,0,635.34,0Z" fill="#fff"/><path d="M377.26,7A53.58,53.58,0,0,1,414,20.88a44.79,44.79,0,0,1,13.41,20.23,50.58,50.58,0,0,1,2.27,15.39,53.89,53.89,0,0,1-2.39,16.35A45.26,45.26,0,0,1,414.17,93q-15.45,14-37.34,14T339.42,93.55a43.11,43.11,0,0,1-13.26-20.62A55.59,55.59,0,0,1,324,57.21v-.14a51.42,51.42,0,0,1,2.38-16h25.17a46.14,46.14,0,0,0-2.8,16c0,5.4,2.51,15,2.69,15.73h0a44,44,0,0,0,4.09,8.36q6.8,10.88,21.52,10.87,13.17,0,20-9.87A44.13,44.13,0,0,0,402,72.88h0a43.4,43.4,0,0,0,2.71-12.37,11.18,11.18,0,0,0,.14-1.72V57.07c0-.66,0-1.33-.07-2s-.07-1.34-.07-2a44.39,44.39,0,0,0-2.71-12h0a45,45,0,0,0-4.94-9.37Q390.42,22,377.26,22q-14.88,0-21.67,11a44.5,44.5,0,0,0-4,8.14H326.42A45,45,0,0,1,339.85,21,54.67,54.67,0,0,1,377.26,7m0-7a61.75,61.75,0,0,0-42,15.7A52.22,52.22,0,0,0,319.75,39V39a58.63,58.63,0,0,0-2.7,18v.14a62.59,62.59,0,0,0,2.41,17.7,50.15,50.15,0,0,0,15.37,23.91c11.51,10.07,25.64,15.18,42,15.18s30.46-5.33,42.05-15.84a52.33,52.33,0,0,0,15-23.2,61,61,0,0,0,2.72-18.46A57.72,57.72,0,0,0,434,39,52,52,0,0,0,418.6,15.64,60.63,60.63,0,0,0,377.26,0Zm-19.1,43.54a38.42,38.42,0,0,1,3.37-6.88c3.24-5.21,8.24-7.64,15.73-7.64,6.46,0,10.92,2.13,14,6.68a38.3,38.3,0,0,1,4.17,7.92c0,.09.07.18.11.28a37.38,37.38,0,0,1,2.15,9.5c0,.72,0,1.44.09,2.15,0,.5.05,1,.05,1.52v1.72a4.3,4.3,0,0,1-.05.61c0,.2-.06.4-.07.6a36.82,36.82,0,0,1-2.22,10.26l-.06.14a37,37,0,0,1-4.16,7.88c-3.21,4.67-7.72,6.84-14.2,6.84-7.4,0-12.35-2.41-15.59-7.58a38.08,38.08,0,0,1-3.37-6.84c-1-3.84-2.34-10.31-2.36-13.58a39.17,39.17,0,0,1,2.37-13.58h0Z" fill="#fff"/><path d="M572.25,9.14V16l-1.73.29a4.05,4.05,0,0,0-3.13,2.15,11.79,11.79,0,0,0-1.15,3.72V41.12h0v49a10.38,10.38,0,0,0,1.21,5.51c.81,1.29,2.41,2,4.8,2.21v6.73H536.19V97.7q3.3-.14,4.66-2.15a9.38,9.38,0,0,0,1.35-5.29V72.84h0V23.74q0-3.72-1.21-5.37t-4.8-2.21v-7h36.06m0-7H536.19a7,7,0,0,0-7,7v7a7,7,0,0,0,5.9,6.91l.1,0c0,.19,0,.4,0,.65V90.26c0,.2,0,.37,0,.52a7,7,0,0,0-6,6.92v6.87a7,7,0,0,0,7,7h36.06a7,7,0,0,0,7-7V97.84a7,7,0,0,0-6-6.92c0-.23,0-.49,0-.8v-49h0V23l.16,0A7,7,0,0,0,579.25,16V9.14a7,7,0,0,0-7-7Z" fill="#fff"/><path d="M510.63,72.88H483.5l18.79,31.69h27.19V97.84a12,12,0,0,1-4.22-2.14,16,16,0,0,1-2.8-3.15c-.29-.38-.55-.76-.79-1.14s-.5-.86-.78-1.43Z" fill="#79796e"/><path d="M470.25,72.88h-24V90.26a9.22,9.22,0,0,1-1.36,5.29c-.91,1.34-2.45,2.06-4.65,2.15v6.87h36.05V97.84c-2.38-.19-4-.92-4.79-2.21a10.38,10.38,0,0,1-1.21-5.51Z" fill="#79796e"/><path d="M351.5,72.89a44,44,0,0,0,4.09,8.36q6.8,10.88,21.52,10.87,13.17,0,20-9.87A44.13,44.13,0,0,0,402,72.88l25.22,0A45.26,45.26,0,0,1,414.17,93q-15.45,14-37.34,14T339.42,93.55a43.11,43.11,0,0,1-13.26-20.62Z" fill="#79796e"/><path d="M542.2,72.84h24V90.12a10.38,10.38,0,0,0,1.21,5.51c.81,1.29,2.41,2,4.8,2.21v6.73H536.19V97.7q3.3-.14,4.66-2.15a9.38,9.38,0,0,0,1.35-5.29Z" fill="#79796e"/><path d="M614.85,72.84H586.56c.37.9.78,1.8,1.21,2.69a50.86,50.86,0,0,0,13.66,17.31,55,55,0,0,0,20.1,10.37,103.24,103.24,0,0,0,22.54,3.65c1,.09,2.09.14,3.14.14h3.15c1.53,0,3,0,4.5-.07s3-.12,4.51-.22c2.29-.19,4.55-.45,6.8-.79a62.47,62.47,0,0,0,6.64-1.35V81.25l-7.72.14a12,12,0,0,1-5.79,7.3,25.18,25.18,0,0,1-9.08,2.86c-.86.09-1.73.17-2.58.21s-1.68.07-2.43.07q-16,0-25.9-12.37A48.61,48.61,0,0,1,614.85,72.84Z" fill="#79796e"/><path d="M351.59,41.11a44.5,44.5,0,0,1,4-8.14Q362.39,22,377.26,22q13.17,0,19.81,9.73A45,45,0,0,1,402,41.12h25.35A44.79,44.79,0,0,0,414,20.88,53.58,53.58,0,0,0,377.26,7a54.67,54.67,0,0,0-37.41,14,45,45,0,0,0-13.43,20.16Z" fill="#bcb8b3"/><path d="M566.24,41.12h-24V23.74q0-3.72-1.21-5.37t-4.8-2.21v-7h36.06V16l-1.73.29a4.05,4.05,0,0,0-3.13,2.15,11.79,11.79,0,0,0-1.15,3.72V41.12Z" fill="#bcb8b3"/><path d="M611,40.14a32.94,32.94,0,0,1,4.77-9.89q6.38-8.94,20.1-8.94a21.61,21.61,0,0,1,12.17,3.58q5.43,3.57,5.44,10.87a9.6,9.6,0,0,1-.65,2.5,10.79,10.79,0,0,1-1.22,2.22l1,.64h8.63L676,25.74a46.92,46.92,0,0,0-18-14.23A55.61,55.61,0,0,0,635.34,7,57.33,57.33,0,0,0,599,19.73,40.5,40.5,0,0,0,584.5,41.12h26.27Z" fill="#bcb8b3"/><path d="M470.25,41.12V22.74h12.44a23.25,23.25,0,0,1,12.16,3q5,3,5,11a17.22,17.22,0,0,1-.51,4.36h24.59a29,29,0,0,0,.67-6.36Q523.89,21.31,514,15.37a42.94,42.94,0,0,0-21.82-6.08h-.36a1.08,1.08,0,0,1-.49-.15H440.2v7q3.57.57,4.8,2.21c.8,1.1,1.21,2.89,1.21,5.37V41.12Z" fill="#bcb8b3"/><polygon points="661.3 41.12 652.67 41.12 658.08 44.48 661.3 41.12" fill="#a29e91"/><path d="M351.5,72.93H326.16A55.59,55.59,0,0,1,324,57.21v-.14a51.42,51.42,0,0,1,2.38-16h25.17a46.19,46.19,0,0,0-2.8,16.1v-.14C348.79,62.67,351.5,72.93,351.5,72.93Z" fill="#a29e91"/><path d="M402,72.89a43.54,43.54,0,0,0,2.71-12.38,11.18,11.18,0,0,0,.14-1.72V57.07c0-.66,0-1.33-.07-2s-.07-1.34-.07-2a44.3,44.3,0,0,0-2.71-12h25.34a50.58,50.58,0,0,1,2.27,15.39,53.89,53.89,0,0,1-2.39,16.35Z" fill="#a29e91"/><polygon points="566.24 41.12 566.24 72.84 542.2 72.84 542.2 41.12 566.24 41.12" fill="#a29e91"/><path d="M610.76,41.11H584.49a48.47,48.47,0,0,0-1.66,13,48.25,48.25,0,0,0,3.73,18.77v0h28.29v0a42.3,42.3,0,0,1-5.4-20.92A42.36,42.36,0,0,1,610.76,41.11Z" fill="#a29e91"/><path d="M523.94,41.12a24.13,24.13,0,0,1-5.12,10.44,31.08,31.08,0,0,1-15.1,9.8l6.91,11.52H483.5l-5.39-9.08h-7.86v9.08h-24V41.12h24V50.2H482a25.82,25.82,0,0,0,12.3-2.64,9.56,9.56,0,0,0,5.07-6.44Z" fill="#a29e91"/></g></svg>