<svg xmlns="http://www.w3.org/2000/svg" viewBox="0 0 1000 114"><title>logo_right</title><g id="Layer_2" data-name="Layer 2"><rect x="678.15" y="11.51" width="306.08" height="87.77" fill="#fff"/></g><g id="Layer_1" data-name="Layer 1"><path d="M846.68,110.49h-63.4a3.5,3.5,0,0,1-2.48-1l-2.35-2.37a3.53,3.53,0,0,1-1-2.47V9.35a3.5,3.5,0,0,1,1-2.48l2.37-2.36a3.5,3.5,0,0,1,2.47-1h95.18a3.53,3.53,0,0,1,2.42,1l2.24,2.13a3.52,3.52,0,0,1,1.08,2.54v95.49a3.48,3.48,0,0,1-1,2.49l-.85.84-.36.38-1.11,1.12a3.5,3.5,0,0,1-2.49,1ZM837.35,87.8V82.7H824.5v5.1Zm0-17.77V65.39a3.56,3.56,0,0,1-.93-2.08c0-.12,0-.24,0-.36a4,4,0,0,1,1.35-2.87l.52-.54,1.11-1.13a3.5,3.5,0,0,1,2.49-1h10.86l2.94-2.95c1.71-1.71,2.87-2.87,3.79-3.63V31.23l-6.73-6.74H808.94L802.39,31V44h12.72l0-2.52c0-1.61,0-3.07-.05-4a3.67,3.67,0,0,1-.7-1.86,4.69,4.69,0,0,1,1.83-3.79l1.1-1.12a3.54,3.54,0,0,1,2.49-1H841.9l.43,0a3.25,3.25,0,0,1,.43.08,3.5,3.5,0,0,1,1.64.93l1.12,1.14.68.7.44.44a3.51,3.51,0,0,1,.74,3.81,3.56,3.56,0,0,1-.76,1.14v9.67a3.48,3.48,0,0,1-1,2.42l-1,1.06a3.51,3.51,0,0,1-2.53,1.08H831.24l-6.74,6.74V70Z" fill="#342725"/><path d="M878.49,7l2.24,2.14v.21h0v95.28l-.89.89-.34.35L878.38,107h-95.1l-1.17-1.19-1.18-1.19V9.35L783.31,7h95.18M818.64,47.45l0-6.05c-.05-5.47-.06-6-.36-6H818c-.1,0-.16-.05-.16-.11s.24-.44.81-1l.13-.14,1-1h22.15L843,34.22c.29.29.5.5.64.66l.48.49h-.63c-.33,0-.39.12-.39.59,0,.15,0,.25,0,.33V47.52l-.51.53-.51.53H829.79L821,57.37V73.53h19.85V63.14h-.49c-.25,0-.46-.06-.46-.13h0v0h0a2.33,2.33,0,0,1,.4-.47c.13-.15.29-.31.46-.48l.13-.14,1-1h12.31l4-4c2.82-2.83,4.09-4,4.39-4H863V29.78L854.18,21H807.49l-8.6,8.59V47.45h19.75M821,91.3h19.85V80.36l-1-1.16h-18l-.45.48-.45.49V91.3M878.49,0H783.31a7,7,0,0,0-4.93,2L776,4.38a7,7,0,0,0-2.08,5v95.26a7,7,0,0,0,2,4.93l1.18,1.19,1.17,1.18a7,7,0,0,0,5,2.08h95.1a7,7,0,0,0,5-2.08l1.11-1.13.37-.37.82-.81a7,7,0,0,0,2.07-5V9.14a7,7,0,0,0-2.17-5.07l-2.24-2.13A7,7,0,0,0,878.49,0ZM846.71,28h4.57L856,32.68V49.23c-.81.76-1.71,1.66-2.77,2.72l-1.91,1.92h-4.59a4.89,4.89,0,0,0,.46-.45l.51-.53.51-.53a7,7,0,0,0,2-4.84V39a7,7,0,0,0,.5-1,7,7,0,0,0-1.49-7.61l-.41-.41c-.17-.19-.41-.43-.71-.74l-1.13-1.13a1.37,1.37,0,0,0-.17-.17Zm-36.32,0H815l-.18.17-1,1-.13.13a8,8,0,0,0-2.8,6.61,6.93,6.93,0,0,0,.69,2.44c0,.62,0,1.35,0,2.11h-5.69v-8l4.5-4.49Zm22.3,27.59h4.6l-.4.37-1,1-.16.16q-.3.3-.54.57A7.47,7.47,0,0,0,832.9,63v.13a7.74,7.74,0,0,0,.1,1.08,7,7,0,0,0,.85,2.33v0H828V60.27l4.69-4.69Z" fill="#fff"/><path d="M895.57,110.49a3.53,3.53,0,0,1-2.5-1l-.6-.61-1.55-1.53a3.33,3.33,0,0,1-.25-.28,3.51,3.51,0,0,1-1-2.42V9.35a3.5,3.5,0,0,1,1-2.48l2.37-2.36a3.5,3.5,0,0,1,2.47-1h95.26a3.5,3.5,0,0,1,2.49,1l2.16,2.18a3.5,3.5,0,0,1,1,2.46v95.45a3.52,3.52,0,0,1-1,2.51l-1.2,1.19-1.09,1.1a3.75,3.75,0,0,1-2.54,1.07Zm54-22.69V82.7H936.77V87.8ZM949.52,70v-4.7a3.55,3.55,0,0,1-.8-1.73,4,4,0,0,1-.05-.6,3.41,3.41,0,0,1,.24-1.27,3.77,3.77,0,0,1,.55-1,9.46,9.46,0,0,1,.64-.76l.56-.59,1-1a3.46,3.46,0,0,1,2.49-1H965l2.94-2.95c1.71-1.71,2.88-2.87,3.79-3.63V31.23L965,24.49H921.2l-6.56,6.56L914.58,44h12.79c0-.69,0-1.53,0-2.56v-2.2c0-.42,0-1.17,0-1.81a3.73,3.73,0,0,1-.7-1.8,3.81,3.81,0,0,1,.84-2.74c.07-.1.18-.22.29-.35l.18-.21.63-.66,1-1a3.52,3.52,0,0,1,2.49-1h22.14a4.55,4.55,0,0,1,.52,0,3.61,3.61,0,0,1,2,1l1.12,1.14c.3.3.53.53.69.71l.43.43a3.53,3.53,0,0,1,.49,4.31,4,4,0,0,1-.51.64v9.67a3.48,3.48,0,0,1-1,2.42l-1,1.06a3.49,3.49,0,0,1-2.53,1.08H943.51l-6.74,6.74V70Z" fill="#342725"/><path d="M990.84,7,993,9.18h0v.16h0v95.28h0l-1.2,1.18,0,0-1.1,1.11h0l0,0H895.55l-.59-.61-.48-.47h0l-1.09-1.08v0l-.19-.19h0V9.35h0L895.58,7h95.26M930.75,47.45a50.84,50.84,0,0,0,.1-6.09v-2.2c0-3.39-.09-3.77-.34-3.81h-.13c-.16,0-.27,0-.27-.11s0-.15.14-.28.09-.11.14-.18,0,0,0,0l.08-.09c.14-.16.32-.34.54-.57l1-1h22.15l1.12,1.14.65.67.47.48h-.57a.56.56,0,0,0-.36.08.52.52,0,0,0-.09.37s0,0,0,.07V47.52h0l-1,1.06H942.06l-8.79,8.79V73.53H953V63.14h-.37a1.15,1.15,0,0,1-.36,0c-.06,0-.11,0-.11-.07h0a.33.33,0,0,1,.08-.13,5.42,5.42,0,0,1,.42-.49l.49-.52,1-1h12.3l4-4c2.82-2.83,4.09-4,4.4-4h.42V29.78L966.45,21H919.76l-8.61,8.61,0,8.92-.05,8.93h19.69m2.52,43.85h19.85V85.78h0V80.26l-.51-.53-.51-.53H934.31l-.52.46-.52.46V91.3M990.84,0H895.58a7,7,0,0,0-4.93,2l-2.37,2.35a7,7,0,0,0-2.08,5v95.26a7,7,0,0,0,1.85,4.74c.13.15.27.3.41.44l1,1a1.59,1.59,0,0,1,.13.13l.45.45.58.58a7,7,0,0,0,5,2.08h95.08a7.13,7.13,0,0,0,5-2.11l1.1-1.11,0,0,1.15-1.14a7,7,0,0,0,2.07-5V9.16a7,7,0,0,0-2-4.9l-2.17-2.18a7,7,0,0,0-5-2.08ZM959,28h4.57l4.68,4.69V49.23c-.81.76-1.71,1.66-2.77,2.72l-1.91,1.92H959a4.89,4.89,0,0,0,.46-.45l1-1.06a7,7,0,0,0,1.95-4.84V39a8,8,0,0,0,.51-1,7,7,0,0,0,0-5.19,7.1,7.1,0,0,0-1.54-2.39l-.4-.39c-.18-.2-.41-.44-.72-.76l-1.13-1.13A1.37,1.37,0,0,0,959,28Zm-36.32,0h4.57l-.18.17-1,1-.72.76a1.08,1.08,0,0,0-.13.15l-.15.17c-.16.18-.31.36-.42.51a7.24,7.24,0,0,0-1.5,5.23,7,7,0,0,0,.68,2.39c0,.27,0,.56,0,.87v1.21H918.1V38.56l0-6.05L922.66,28ZM945,55.58h4.6l-.4.37-1,1c-.25.25-.47.48-.67.7a11.93,11.93,0,0,0-.89,1.06,7.14,7.14,0,0,0-1.36,3.19,6.8,6.8,0,0,0-.09,1.1,7.12,7.12,0,0,0,.14,1.39,7,7,0,0,0,.71,2v.17h-5.75V60.27L945,55.58Z" fill="#fff"/><path d="M733.75,110.49H671.39a3.5,3.5,0,0,1-2.48-1l-2.36-2.38a3.48,3.48,0,0,1-1-2.46V9.37a3.49,3.49,0,0,1,1-2.46l2.35-2.37a3.46,3.46,0,0,1,2.48-1h95.29a3.46,3.46,0,0,1,2.48,1l2.17,2.18a3.54,3.54,0,0,1,1,2.46v95.47a3.5,3.5,0,0,1-1,2.48l-1.24,1.23-1.09,1.1a3.46,3.46,0,0,1-2.48,1ZM725.46,87.8V82.7H712.61v5.1Zm0-17.77V65.4a3.59,3.59,0,0,1-1-2.37V63a3.51,3.51,0,0,1,.52-1.84l.13-.19a6.22,6.22,0,0,1,.73-.87l.62-.66,1-1a3.5,3.5,0,0,1,2.49-1h10.85l2.95-2.95c1.64-1.64,2.78-2.77,3.67-3.53,0-1.64.06-4.8.07-9.5l.05-10.15-6.75-6.75H697.06l-2.75,2.75-3.81,3.85V44h12.65V41.4c0-1.66,0-3.09,0-4a3.51,3.51,0,0,1-.43-.75c-1-2.31.69-4,1.68-5l1-1a3.52,3.52,0,0,1,2.49-1H730a3.5,3.5,0,0,1,2.48,1l1.13,1.14.56.58.57.56a3.52,3.52,0,0,1,.74,3.81,3.45,3.45,0,0,1-.76,1.14v9.67a3.51,3.51,0,0,1-1,2.42l-.71.74-.12.15a3.5,3.5,0,0,1-2.69,1.27H719.35l-6.74,6.73V70Z" fill="#342725"/><path d="M766.68,7l2.16,2.18v.19h0v95.28l-1.24,1.23,0,0L766.49,107h-95.1l-1.17-1.19L669,104.61V9.37L671.39,7h95.29M687,47.45h19.65V41.4c0-5.92,0-6-.38-6-.55,0-.47-.17.61-1.27l1-1H730l1.12,1.14c.22.22.38.38.51.53l.62.62h-.54c-.4,0-.49.09-.49.47V47.39h0v.13l-.79.83-.2.25H717.9l-8.79,8.78V73.53H729V63.13h-.48c-.26,0-.47-.06-.47-.13v0h0l0,0a3.11,3.11,0,0,1,.41-.49c.16-.18.35-.37.56-.59l1-1h12.3l4-4c2.82-2.81,4-3.92,4.33-3.92h.07c.32,0,.33-.69.37-11.58l.05-10.83v-.78l-8.8-8.8H695.61l-3.78,3.77L687,29.65v17.8M709.11,91.3H729V80.36l-.49-.58-.1-.12h0l-.43-.45H710.17l-.53.51-.53.51V91.3M766.68,0H671.39a7,7,0,0,0-5,2.07l-2.35,2.37a7,7,0,0,0-2,4.93v95.24a7,7,0,0,0,2,4.93l1.17,1.18,1.18,1.19a7,7,0,0,0,5,2.08h95.1a7,7,0,0,0,5-2.08l1.08-1.09,0,0,1.2-1.18a7,7,0,0,0,2.07-5V9.17a7,7,0,0,0-2-4.91l-2.16-2.18a7,7,0,0,0-5-2.08ZM734.81,28h4.56l4.69,4.69,0,8.69c0,3.41,0,6.13,0,7.94-.79.74-1.66,1.62-2.68,2.64l-1.92,1.92h-4.55a8.65,8.65,0,0,0,.79-.81l0-.05.62-.65a7,7,0,0,0,1.94-4.8c0-.06,0-.11,0-.17V39a8,8,0,0,0,.49-1,7,7,0,0,0-1.48-7.62l-.57-.57-.57-.58L735,28.16c-.06-.06-.11-.12-.17-.17Zm-36.3,0h4.56l-.18.17-1,1c-1.06,1.07-4.28,4.34-2.42,8.8,0,.12.11.25.17.37v2.12H694V32.53l2.81-2.84,1.7-1.7ZM720.8,55.6h4.58L725,56l-1,1c-.26.25-.49.5-.69.72a8.53,8.53,0,0,0-1.43,1.88A7,7,0,0,0,721,63v.12a7.07,7.07,0,0,0,1,3.41v0h-5.85V60.28l4.69-4.68Z" fill="#fff"/><path d="M670.22,105.8,669,104.61V9.37L671.39,7h95.29l2.16,2.18v95.45L766.46,107H671.39Zm58.74-20V80.36l-.49-.58L728,79.2H710.17l-.53.51-.53.51V91.3H729Zm0-17.5v-5.2h-.48c-.26,0-.47-.06-.47-.13a6.71,6.71,0,0,1,1-1.14l1-1h12.3l4-4c2.86-2.86,4.08-4,4.35-3.92s.38-.07.42-11.57l.05-11.62L742.28,21H695.57L687,29.65v17.8h19.65V41.4c0-5.92,0-6-.38-6-.55,0-.47-.17.61-1.27l1-1H730l1.12,1.14c1.07,1.08,1.1,1.13.61,1.13h-.52V47.52l-1,1.06H717.9l-8.79,8.79V73.53H729Zm53.15,37.47-1.18-1.19V9.35L783.31,7h95.18l2.24,2.14v95.49L878.36,107H783.28Zm58.74-20V80.36l-1-1.16h-18l-.45.48-.45.49V91.3h19.85Zm0-17.5v-5.2h-.47c-.26,0-.48-.06-.48-.13a6.71,6.71,0,0,1,1-1.14l1-1h12.31l4-4c2.82-2.83,4.09-4,4.4-4H863V29.78L854.18,21H807.49l-8.6,8.59V47.45h19.75l0-6.05c-.05-5.88-.07-6-.43-6-.55,0-.47-.17.61-1.27l1-1H841.9L843,34.22c1.07,1.08,1.1,1.13.61,1.13h-.51V47.52l-.51.53-.51.53H829.79L821,57.37V73.53h19.85Zm53.53,37.47-1.18-1.19V9.35L895.58,7h95.26L993,9.18v95.45L990.63,107H895.55Zm58.74-20V80.26l-.51-.53-.51-.53H934.31l-.52.46-.52.46V91.3h19.85Zm0-17.45v-5.2h-.47c-.26,0-.48-.06-.48-.13a6.71,6.71,0,0,1,1-1.14l1-1h12.3l4-4c2.82-2.83,4.09-4,4.4-4h.42V29.78L966.45,21H919.76l-8.61,8.61,0,8.92-.05,8.93h19.85l0-6.05c-.05-5.88-.07-6-.43-6-.55,0-.47-.17.61-1.27l1-1h22.14l1.12,1.14c1.07,1.08,1.1,1.13.61,1.13h-.51V47.52l-1,1.06H942.06l-8.79,8.79V73.53h19.85Z" fill="#f1ca00"/><path d="M670.22,105.8,669,104.61V9.37L671.39,7h95.29l2.16,2.18v95.45L766.46,107H671.39Zm58.74-20V80.36l-.49-.58L728,79.2H710.17l-.53.51-.53.51V91.3H729Zm0-17.5v-5.2h-.48c-.26,0-.47-.06-.47-.13a6.71,6.71,0,0,1,1-1.14l1-1h12.3l4-4c2.86-2.86,4.08-4,4.35-3.92s.38-.07.42-11.57l.05-11.62L742.28,21H695.57L687,29.65v17.8h19.65V41.4c0-5.92,0-6-.38-6-.55,0-.47-.17.61-1.27l1-1H730l1.12,1.14c1.07,1.08,1.1,1.13.61,1.13h-.52V47.52l-1,1.06H717.9l-8.79,8.79V73.53H729Zm53.24,37.56-1.08-1.09V9.27h2.08v95.26h95.26V7.11l1.14,1.12,1.13,1.12v95.28L878.36,107H783.29Zm112.18-.09-1.18-1.19V9.35L895.58,7h95.26L993,9.19v95.44L990.63,107H895.55Zm58.74-20V80.26l-.51-.53-.51-.53H934.31l-.52.46-.52.46V91.3h19.85Zm0-17.45V63.14h-.47c-.26,0-.48-.07-.48-.14a6.43,6.43,0,0,1,1-1.13l1-1h12.3l4-4c2.82-2.83,4.09-4,4.4-4h.42V29.78L966.45,21H919.76l-8.61,8.61,0,8.92-.05,8.93h19.85l0-6.05c-.05-5.88-.07-6-.43-6-.55,0-.47-.17.61-1.27l1-1h22.14l1.12,1.14c1.07,1.08,1.1,1.13.61,1.13h-.51V47.52l-1,1.06H942.06l-8.79,8.79V73.53h19.85Zm-165.6,33.2a4.35,4.35,0,0,1,.51-7.59,3.62,3.62,0,0,1,2.17-.34,4,4,0,0,1,3.49,2.13,3,3,0,0,1,.55,2.07c0,1.23-.55,2.65-.83,2.2-.1-.18-.4,0-1.11.52a3.94,3.94,0,0,1-3.27.91c-.47-.09-.54-.07-.37.14s.11.5-.16.5a5.34,5.34,0,0,1-1-.54Zm82.34.24a4.36,4.36,0,0,1,3.79-7.85A5.34,5.34,0,0,1,876,96.39c.49,1.19,0,4.09-.64,3.58-.2-.16-.42-.07-1,.4a3.69,3.69,0,0,1-3.09,1.08c-.57,0-.93-.06-.8,0s.33.63.09.63a3.4,3.4,0,0,1-.71-.3ZM822,93.52a4.72,4.72,0,0,1-.87-1.42l-.29-.8h20l0-5.53c0-4.85,0-5.45.26-4.87s.26,2.06.27,6.34l0,5.68-.63.61-.62.6H822.59l-.59-.61Zm0-17.77a4.72,4.72,0,0,1-.87-1.42l-.29-.8h20V63.13h-.47c-.26,0-.47-.06-.47-.14a5.89,5.89,0,0,1,1-1.14l1-1h12.28l4-4c2.83-2.83,4.09-4,4.4-4H863l0-11.58c0-10.24,0-11.5.29-11s.27,2.57.27,12.47V54.72l-8.88,8.89-12,0-.62.58-.61.58V75.14l-.58.61-.58.62H822.59l-.59-.62Zm-22.21-26a6,6,0,0,1-1.08-2.24s4.49-.07,10-.07h10l0-6.05c-.05-5.88-.06-6-.43-6-.56,0-.46-.21.63-1.28l1-1H841.9L843,34.22c1.08,1.08,1.1,1.13.61,1.13s-.51.07-.51.6,0,.58-.35.28-1.38-.31-11.4-.31h-11l-1,1.06V49.07l-1.24,1.21H800.28Zm-12-30.12a4.35,4.35,0,0,1-.76-7.07,4.49,4.49,0,0,1,6.67,1.13,3,3,0,0,1,.55,2.07c0,1.36-.51,2.54-.92,2.2-.19-.17-.37-.1-.75.28a4.08,4.08,0,0,1-3.21,1.16c-.53-.06-.87-.05-.77,0s.34.61.14.61a5.11,5.11,0,0,1-1-.4Zm82.08.09A4,4,0,0,1,868,17.68a4.33,4.33,0,1,1,8.15-.86c-.25,1-.66,1.69-.66,1.18s-.48-.24-1,.34a3.81,3.81,0,0,1-3,1.09c-.74-.08-.82-.05-.73.26s-.06.43-.81,0Z" fill="#006af0"/><path d="M670.22,105.8,669,104.61V9.37L671.39,7h95.29l2.16,2.18v95.45L766.46,107H671.39Zm58.74-20V80.36l-.49-.58L728,79.2H710.17l-.53.51-.53.51V91.3H729Zm0-17.5v-5.2h-.48c-.26,0-.47-.06-.47-.13a6.71,6.71,0,0,1,1-1.14l1-1h12.3l4-4c2.86-2.86,4.08-4,4.35-3.92s.38-.07.42-11.57l.05-11.62L742.28,21H695.57L687,29.65v17.8h19.65V41.4c0-5.92,0-6-.38-6-.55,0-.47-.17.61-1.27l1-1H730l1.12,1.14c1.07,1.08,1.1,1.13.61,1.13h-.52V47.52l-1,1.06H717.9l-8.79,8.79V73.53H729Zm53.24,37.56-1.08-1.09V9.27h2.08v95.26h95.26V7.11l1.14,1.12,1.13,1.12v95.28L878.36,107H783.29Zm112.28,0-1.09-1.08V9.27h2.08v95.26h95.26V7.11L993,9.35v95.28L990.63,107l-95.06,0-1.09-1.08Zm-107-4.36a4.35,4.35,0,0,1,.51-7.59,3.58,3.58,0,0,1,2.16-.34,4,4,0,0,1,3.5,2.13,3,3,0,0,1,.55,2.07c0,1.23-.55,2.65-.83,2.2-.11-.18-.41,0-1.12.53a3.94,3.94,0,0,1-3.26.9c-.47-.09-.54-.07-.37.14s.11.5-.16.5a5.34,5.34,0,0,1-1-.54Zm82.34.24a4.36,4.36,0,0,1,3.78-7.85A5.36,5.36,0,0,1,876,96.39c.49,1.19,0,4.09-.64,3.58-.2-.16-.42-.07-1,.4a3.69,3.69,0,0,1-3.09,1.08c-.57,0-.93-.06-.8,0s.33.63.09.63a2.75,2.75,0,0,1-.71-.3Zm30.93-.56a1.37,1.37,0,0,0-.85-.15c-.12.07-.15.06-.08,0s-.11-.44-.42-.79a2.64,2.64,0,0,1-.57-.85c0-.12,0-.17-.1-.11s0,.36.18.67.23.62.15.7,0,.1.13.07.28.1.32.31c.12.79-1.21-1-1.52-2a4.22,4.22,0,0,1,3.86-5.42,4.14,4.14,0,0,1,4.47,3.13,2.64,2.64,0,0,1,0,2.08L906,99.9l-.13-.66c-.07-.37-.14-.52-.16-.34,0,.52-1.36,1.87-2.19,2.25a3.28,3.28,0,0,1-2.72.06Zm82.15.11a3.68,3.68,0,0,1-2-1.67c-.2-.39-.37-.6-.38-.49a3.07,3.07,0,0,0,.46.9c.26.38.38.69.26.69s-.11.12,0,.33.15.23-.19,0A4.81,4.81,0,0,1,980,96.46a4.37,4.37,0,0,1,4.1-2.89A4.05,4.05,0,0,1,988,96.12a3.42,3.42,0,0,1,.24,2.83c-.2.73-.22.74-.38.3l-.18-.47-.28.56a3.93,3.93,0,0,1-4.47,2ZM822,93.52a4.75,4.75,0,0,1-.88-1.42l-.28-.8h20V85.77c0-4.85,0-5.45.27-4.87s.26,2.06.27,6.34v5.68l-.62.61-.62.6H822.6l-.6-.61Zm112.37.07a3,3,0,0,1-1-1.83l-.12-.46h19.89V85.86c0-4.93,0-5.37.28-4.79s.27,1.74.27,6.24v5.62l-.57.55-.58.56H934.92l-.55-.46ZM822,75.75a4.75,4.75,0,0,1-.88-1.42l-.28-.8h20V63.14h-.48c-.26,0-.47-.07-.47-.15a6.5,6.5,0,0,1,1-1.14l1-1h12.28l4-4c2.82-2.83,4.09-4,4.39-4H863l0-11.58c0-10.24,0-11.5.28-11s.28,2.57.27,12.47V54.72l-8.88,8.89-12,0-.61.58-.62.58V75.14l-.57.61-.58.62H822.6l-.6-.62Zm112.29,0a4,4,0,0,1-1-2.06c0-.09,4.47-.16,9.92-.16h9.93V63.14h-.48c-.26,0-.47-.07-.47-.15a6.5,6.5,0,0,1,1-1.14l1-1h12.28l4-4c2.82-2.83,4.09-4,4.39-4h.43l0-11.58c0-9.92,0-11.48.26-10.91s.26,3,.27,12.47l0,11.82L967,63.51H954.86l-1.17,1V75.16l-.62.6-.62.61H934.87l-.58-.62Zm-134.5-26a6,6,0,0,1-1.08-2.24s4.48-.07,10-.07h10l0-6.05c-.06-5.88-.07-6-.43-6-.56,0-.46-.2.63-1.28l1-1h22.12L843,34.22c1.07,1.08,1.1,1.13.61,1.13s-.52.08-.52.6,0,.58-.34.28-1.38-.31-11.4-.31h-11l-1,1.06v12.1l-1.25,1.2H800.29Zm112.38-.09A5.78,5.78,0,0,1,911,47.52s4.48-.07,10-.07h10l0-6.05c0-5.88-.07-6-.43-6-.56,0-.46-.2.63-1.28l1-1h22.12l1.12,1.14c1.07,1.08,1.1,1.13.61,1.13s-.51.09-.51.47-.29.66-.42.28c0-.12-3.78-.19-11.2-.19H932.64l-.53.51-.53.51V49.08l-1.25,1.2H912.75l-.58-.61Zm-124.39-30a4.35,4.35,0,0,1-.75-7.07,4.48,4.48,0,0,1,6.66,1.13,3.06,3.06,0,0,1,.56,2.08c0,1.35-.51,2.53-.92,2.19-.2-.16-.37-.1-.75.28a4.08,4.08,0,0,1-3.21,1.16c-.53-.06-.88-.05-.77,0s.33.61.14.61a5.39,5.39,0,0,1-1-.4Zm82.09.09A3.92,3.92,0,0,1,868,17.68a4.33,4.33,0,1,1,8.15-.86c-.26,1-.66,1.69-.66,1.18s-.49-.24-1,.34a3.81,3.81,0,0,1-3,1.09c-.74-.08-.82-.05-.74.26s0,.43-.8,0Zm31-.53A3.31,3.31,0,0,1,899,17.68c-.19-.31-.35-.48-.35-.37a1.73,1.73,0,0,0,.3.61c.16.23.24.51.18.61s0,.14.16.08a.32.32,0,0,1,.39.1c.07.11,0,.2-.08.2s-.16.1-.09.23-.18-.07-.55-.46a4.24,4.24,0,0,1-1.06-3.77,4.29,4.29,0,0,1,4.19-3.37,4.22,4.22,0,0,1,4.24,3.16,2.69,2.69,0,0,1,0,2.08c-.31,1-.34,1.06-.45.52s-.13-.53-.26-.16a5.32,5.32,0,0,1-2.51,2.13,2.91,2.91,0,0,1-2.21-.07Zm81.79-.07A4.84,4.84,0,0,1,981.32,18c-.33-.4-.6-.63-.6-.51a.47.47,0,0,0,.2.35.33.33,0,0,1,.1.4c-.06.15,0,.22.07.16s.45.22.51.66c0,.15-.28-.07-.67-.51a4,4,0,0,1,0-5.57,4.3,4.3,0,0,1,7.06.76,4.14,4.14,0,0,1,.32,3.33c-.2.72-.22.73-.38.31l-.17-.45-.43.63a3.8,3.8,0,0,1-4.59,1.53Z" fill="#ac8e00"/><path d="M670.32,105.78l-1.09-1.17V9.2L671.39,7h95.1l2.35,2.38v95.25L766.46,107l-95.06,0Zm58.64-20V80.27l-.61-.62-.6-.63H710.21l-.65.65-.64.64v11h20Zm0-17.56V62.92l-.48.09c-.26.05-.47,0-.47,0a6.89,6.89,0,0,1,1-1.11l1-1h12.18L746.16,57c3.16-3.17,4-3.88,4.39-3.88h.52V29.79l-9-9H695.79l-9,9V47.43l1.18.12c.65.07,5.14.09,10,.06l8.79,0V35.27l-.47,0c-.42,0-.33-.09.65-1.08l1.13-1.14h22l1.12,1.13c1.07,1.09,1.1,1.13.61,1.13h-.51v12l-1,1.21H717.9l-9,9v16h20Zm53.32,37.62-1-1.11,49.59,0c27.28,0,49.63,0,49.68,0a6.19,6.19,0,0,1-1,1.18L878.38,107l-95.08,0Zm112.2.05-1.09-1.08V9.28h2.08v95.26h95.26V7.12L993,9.37v95.28L990.63,107H895.57l-1.09-1.08Zm6.31-4.67a1.37,1.37,0,0,0-.85-.15c-.12.06-.15,0-.08,0s-.11-.44-.42-.8a2.53,2.53,0,0,1-.57-.85c0-.12,0-.17-.1-.11s0,.36.18.67.23.62.15.7,0,.1.13.07.28.11.32.31c.12.79-1.21-1-1.52-2a3.87,3.87,0,0,1,.48-3.45,3.92,3.92,0,0,1,3.38-2,4.15,4.15,0,0,1,4.47,3.13,2.64,2.64,0,0,1,0,2.08L906,99.91l-.13-.66c-.07-.37-.14-.51-.16-.33,0,.51-1.36,1.86-2.2,2.24a3.25,3.25,0,0,1-2.71.07Zm82.15.1a3.65,3.65,0,0,1-2-1.67c-.2-.38-.37-.6-.38-.49a3.07,3.07,0,0,0,.46.9c.26.38.38.69.26.69s-.11.12,0,.33.15.24-.19,0A4.81,4.81,0,0,1,980,96.47a4.38,4.38,0,0,1,4.1-2.89A4.07,4.07,0,0,1,988,96.13a3.48,3.48,0,0,1,.24,2.84c-.2.72-.22.73-.38.29l-.18-.46-.28.55a3.9,3.9,0,0,1-4.47,2ZM786.69,99.16a3.22,3.22,0,0,1,0-2.55c.28-.8.24-1.25-.1-1-.1.06-.18,0-.18-.08a3,3,0,0,1,.77-.84,4.24,4.24,0,0,1,5.63.13c.62.56,1.27,1.84.79,1.54-.22-.13-.47.74-.3,1,.07.11.06.2,0,.2s-.26-.18-.4-.39A3.74,3.74,0,0,0,790.29,96,3.26,3.26,0,0,0,787.08,99a3.06,3.06,0,0,1-.06.83,2.49,2.49,0,0,1-.33-.65Zm82,.17a5,5,0,0,1,.06-3c.26-.64.2-.76-.34-.67s.75-1.17,1.4-1.5a4.23,4.23,0,0,1,4.52.3c.84.57,1.45,1.54,1.16,1.84a1.35,1.35,0,0,0-.21.8v.6l-.74-.7a3.22,3.22,0,0,0-3.81-.56,3.37,3.37,0,0,0-1.76,2.64,7.51,7.51,0,0,1,0,.76,4.18,4.18,0,0,1-.24-.49Zm65.7-5.73a2.92,2.92,0,0,1-1-1.83l-.12-.46h19.89V85.88c0-4.94,0-5.38.28-4.8s.27,1.74.27,6.25v5.61l-.57.56-.58.55-17.62,0-.55-.47ZM821.47,91.88l-.54-.57h9.86c5.43,0,9.87,0,9.87.1a2.31,2.31,0,0,1-.52.56l-.52.46H822ZM934.28,75.76a4,4,0,0,1-1-2.06c0-.09,4.41-.16,9.88-.15H953V63.05l-.42,0c-.24,0-.43,0-.43-.07a13.59,13.59,0,0,1,1.08-1.1l1.08-1h12.11L970.31,57c3.17-3.16,4-3.87,4.4-3.87h.52V41.46c0-10,0-11.58.27-11s.26,3.05.27,12.48l0,11.81L967,63.53H954.85l-1.17,1V75.17l-.62.6-.62.61H934.86l-.58-.62Zm-112.81-1.6-.56-.52,9.81,0c5.39,0,9.85,0,9.9,0s-.1.31-.34.57l-.45.47H822ZM839.9,63a7.29,7.29,0,0,1,1-1.1l1-1h12.18L858,57c3-3,4-3.87,4.35-3.87s-.29.76-4,4.44L854,62H841.86l-.43.46c-.39.42-1.53.78-1.53.48Zm72.25-13.27a6.31,6.31,0,0,1-1.18-2.1s4.39,0,9.75,0,9.86,0,10,0,.2-1.81.16-6.23l-.05-6.15-.42.1c-.31.08-.12-.2.71-1.06l1.13-1.15h21.95l1.12,1.13c1.07,1.08,1.1,1.13.61,1.13s-.52.09-.52.48-.28.65-.41.28c0-.13-3.78-.2-11.2-.2H932.63l-.53.51-.53.51V49.09l-1.25,1.2H912.74l-.59-.61ZM799.26,48.12c-.24-.26-.4-.49-.36-.52s4.45,0,9.79,0l9.71.06-.43.46-.44.46H799.71Zm19.59-13.91L820,33.1H841.9l2.24,2.26h-.57a1.55,1.55,0,0,1-1.12-.56l-.54-.57H819.75l-.52.54a1.66,1.66,0,0,1-1,.55c-.44,0-.39-.09.62-1.11Zm82-15A3.31,3.31,0,0,1,899,17.69c-.19-.31-.35-.48-.35-.37a1.57,1.57,0,0,0,.3.61c.16.23.24.51.18.61s0,.14.15.08a.34.34,0,0,1,.4.1c.07.11,0,.2-.08.2s-.16.11-.09.24-.18-.08-.55-.46a4.23,4.23,0,0,1-1.06-3.77,4.29,4.29,0,0,1,4.19-3.38,4.23,4.23,0,0,1,4.24,3.16,2.69,2.69,0,0,1,0,2.08c-.32,1-.34,1.06-.45.52s-.13-.53-.26-.16a5.32,5.32,0,0,1-2.51,2.13,2.91,2.91,0,0,1-2.21-.07Zm81.79-.07a4.84,4.84,0,0,1-1.37-1.09c-.33-.4-.6-.63-.6-.51a.47.47,0,0,0,.2.35.34.34,0,0,1,.1.4c-.06.15,0,.22.07.16s.45.22.51.66c0,.15-.28-.07-.67-.51a4,4,0,0,1,0-5.57,4.3,4.3,0,0,1,7.06.76,4.14,4.14,0,0,1,.32,3.33c-.2.72-.23.73-.38.31L987.7,17l-.43.63a3.81,3.81,0,0,1-4.59,1.53Zm-196-2a3.63,3.63,0,0,1,.6-3.63c.48-.64.6-1.12.23-.89-.14.08-.16.05-.07-.11a4.23,4.23,0,0,1,2.39-.95,4.44,4.44,0,0,1,3.58,1.94c.32.53.32.6.05.8a.69.69,0,0,0-.21.73,1,1,0,0,1,0,.5,5.94,5.94,0,0,1-.6-.55,3.41,3.41,0,0,0-3.79-.61A3.26,3.26,0,0,0,787,17.24c.1.72,0,.69-.34-.11Zm82,0a4.07,4.07,0,0,1,.72-3.85c.47-.6.49-.9,0-.74-.2.07-.14,0,.14-.25,1.83-1.44,5.23-.57,6,1.54.15.39.14.51,0,.47s-.27.25-.33.62c-.1.63-.11.64-.33.26a3.75,3.75,0,0,0-2.67-1.2,3,3,0,0,0-2.45,1.22,3,3,0,0,0-.84,2l-.07.47Z" fill="#034aa3"/><path d="M670.32,105.78l-1.09-1.17V9.2L671.39,7h95.1l2.35,2.38v95.25L766.46,107l-95.06,0Zm58.64-20V80.27l-.61-.62-.6-.63H710.21l-.65.65-.64.64v11h20Zm0-17.56V62.92l-.48.09c-.26.05-.47,0-.47,0a6.89,6.89,0,0,1,1-1.11l1-1h12.18L746.16,57c3.16-3.17,4-3.88,4.39-3.88h.52V29.79l-9-9H695.79l-9,9V47.43l1.18.12c.65.07,5.14.09,10,.06l8.79,0V35.27l-.47,0c-.42,0-.33-.09.65-1.08l1.13-1.14h22l1.12,1.13c1.07,1.09,1.1,1.13.61,1.13h-.51v12l-1,1.21H717.9l-9,9v16h20Zm53.32,37.62-1-1.11,49.59,0c27.28,0,49.63,0,49.68,0a6.19,6.19,0,0,1-1,1.18L878.38,107l-95.08,0Zm112.33,0-1.11-1.12.94,0c.87,0,.89,0,.26.14L894,105l1.44,1.49v-1.76l48.62,0c26.74,0,48.66,0,48.71,0a5.83,5.83,0,0,1-1,1.16l-1.1,1.12h-95l-1.11-1.13ZM786.69,99.16a3.18,3.18,0,0,1,0-2.55c.28-.8.23-1.25-.11-1-.1.06-.18,0-.18-.08a2.88,2.88,0,0,1,.78-.84,4.23,4.23,0,0,1,5.62.13c.62.56,1.27,1.84.79,1.54-.22-.13-.47.74-.29,1,.06.11.05.2,0,.2s-.26-.18-.39-.39A3.77,3.77,0,0,0,790.29,96,3.26,3.26,0,0,0,787.08,99a3.06,3.06,0,0,1-.06.83,2.49,2.49,0,0,1-.33-.65Zm82,.17a5,5,0,0,1,.06-3c.26-.64.2-.77-.34-.67s.75-1.17,1.4-1.5a4.25,4.25,0,0,1,4.53.3c.83.57,1.45,1.54,1.15,1.84a1.35,1.35,0,0,0-.21.8v.6l-.74-.7a3.21,3.21,0,0,0-3.81-.56,3.37,3.37,0,0,0-1.76,2.64,7.51,7.51,0,0,1,0,.76,4.18,4.18,0,0,1-.24-.49Zm30.37,0a3.78,3.78,0,0,1,.43-3.52c.29-.41.31-.53.1-.71s-.29-.18-.34-.16a3.38,3.38,0,0,1,.47-.46,4.26,4.26,0,0,1,3.1-.82,4.5,4.5,0,0,1,2.92,1.86c.16.31.13.34-.23.22s-.45-.08-.08,1.23l.14.47-.43-.44a3.57,3.57,0,0,0-2.66-1,3.14,3.14,0,0,0-3.2,2.83c-.08.6-.14.74-.22.47Zm81.79-.53a3.82,3.82,0,0,1,.44-2.79c.37-.5.37-1.24,0-1-.09,0-.12,0,0-.18a4.58,4.58,0,0,1,2.3-1.16,4.18,4.18,0,0,1,3.34,1.08,3.39,3.39,0,0,1,.86,1c0,.12-.1.12-.26,0-.43-.35-.53.24-.19,1.06l.3.71-.45-.4a3.86,3.86,0,0,0-2.6-1,3.12,3.12,0,0,0-2.63,1.25,2.9,2.9,0,0,0-.84,1.89c0,.26-.12.15-.22-.34ZM821.48,91.88l-.55-.57h9.87c5.42,0,9.86,0,9.86.1a2.1,2.1,0,0,1-.52.56l-.52.46H822Zm112.27,0-.55-.57H953l-.54.57-.54.56H934.29ZM821.48,74.16l-.56-.52,9.8,0c5.4,0,9.85,0,9.91,0s-.1.31-.35.57l-.44.47H822Zm112.27,0-.55-.57H943c5.37,0,9.77.07,9.76.15a1.69,1.69,0,0,1-.36.56l-.35.43H934.29ZM839.9,63a7.05,7.05,0,0,1,1.05-1.1l1-1h12.19L858.05,57c3-3,4-3.88,4.34-3.88s-.28.76-4,4.44L854,62H841.86l-.43.46c-.39.42-1.53.78-1.53.48ZM952.17,63a14.71,14.71,0,0,1,1.09-1.1l1.08-1h12.11L970.32,57c3-3,4-3.88,4.34-3.88s-.28.76-4,4.44L966.26,62H954.13l-.43.46c-.34.36-1.53.79-1.53.55Zm-152.9-14.9c-.25-.26-.41-.49-.37-.52s4.45,0,9.8,0l9.71.06-.44.46-.43.46H799.71Zm112.27,0c-.25-.26-.41-.49-.37-.52s4.45,0,9.8,0l9.71.06-.87.92H912l-.44-.47ZM818.85,34.21,820,33.1H841.9l2.25,2.26h-.58a1.53,1.53,0,0,1-1.11-.56l-.55-.57H819.75l-.52.54a1.64,1.64,0,0,1-1,.55c-.44,0-.39-.09.63-1.11Zm112.27,0,1.1-1.11h21.95l1.12,1.13,1.13,1.13h-.58a1.53,1.53,0,0,1-1.11-.56l-.55-.57h-11.1c-7.32,0-11.15.07-11.23.19a.23.23,0,0,1-.32.07c-.11-.07-.15,0-.08.07s-.22.54-.89.66c-.5.09-.46,0,.56-1ZM786.69,17.13a3.62,3.62,0,0,1,.6-3.63c.47-.64.6-1.12.23-.89-.14.08-.17.05-.07-.11a4.23,4.23,0,0,1,2.39-.95,4.43,4.43,0,0,1,3.57,1.94c.32.53.33.6.06.8a.69.69,0,0,0-.21.73,1.21,1.21,0,0,1,0,.5,4.93,4.93,0,0,1-.6-.55,3.41,3.41,0,0,0-3.79-.61A3.24,3.24,0,0,0,787,17.24c.1.73,0,.69-.34-.11Zm82,0a4.09,4.09,0,0,1,.71-3.85c.48-.6.5-.89.06-.74-.2.07-.14,0,.14-.25,1.83-1.44,5.23-.57,6,1.54.15.39.14.51,0,.48s-.27.24-.33.61c-.1.63-.12.64-.33.26a3.75,3.75,0,0,0-2.67-1.2,3,3,0,0,0-2.45,1.22,2.93,2.93,0,0,0-.84,2l-.07.47ZM980.92,17a3.66,3.66,0,0,1,1-3.74c.53-.48.65-.95.26-1-.13,0,0-.15.33-.33a4.28,4.28,0,0,1,3.73.2c.83.48,1.47,1.15,1.47,1.51,0,.09-.09.11-.19,0-.4-.25-.54.12-.27.76.38.92.34,1-.25.44A3.39,3.39,0,0,0,981.44,16a1.9,1.9,0,0,0-.26,1.18c.16.65,0,.55-.26-.15ZM899,17.31c-.58-1-.23-2.71.81-4,.81-1,.91-1.28.41-1.12-.19,0-.08-.05.23-.24a4.36,4.36,0,0,1,5.25,1.54c.18.34.17.35-.11.12s-.33-.21-.44.06a1.27,1.27,0,0,0,.1.79c.35.77.24.91-.28.39a3.4,3.4,0,0,0-2.81-.84,3.13,3.13,0,0,0-2.9,2.64c-.08.45-.19.73-.26.62Z" fill="#f00000"/><path d="M670.32,105.78l-1.09-1.17V9.28h2.08l0,47.63,0,47.63h95.35l0-47.67c0-26.23,0-48.12,0-48.67v-1l2.18,2.16v95.28L766.46,107l-95.06,0Zm.28-1.37a2.43,2.43,0,0,0-.85,0c-.23,0,0,.08.43.08s.65,0,.42-.08Zm111.68,1.44-1-1.11,49.59,0c27.28,0,49.63,0,49.68,0a6.19,6.19,0,0,1-1,1.18L878.38,107l-95.08,0Zm112.33,0-1.11-1.12.94,0c.87,0,.89,0,.26.14L894,105l1.44,1.5v-1.77l48.62,0c26.74,0,48.66,0,48.71,0a5.83,5.83,0,0,1-1,1.16l-1.1,1.12h-95l-1.11-1.13Zm-217.89-4.61a3.41,3.41,0,0,1-2-1.86c-.28-.62-.34-.67-.43-.33s0,.35,0,.31.13.13.13.38a1,1,0,0,1,0,.45,4.28,4.28,0,0,1-.35-.7,4.4,4.4,0,0,1,2.33-5.66,5.66,5.66,0,0,1,3.21,0,4.18,4.18,0,0,1,2.61,4.88c-.15.5-.27.67-.27.43,0-.6-.33-.7-.47-.16a4.54,4.54,0,0,1-2.1,2.21,3.16,3.16,0,0,1-2.61.07Zm81.59-.19a3.64,3.64,0,0,1-2-2.44c-.12-.48-.13-.43-.08.31,0,.51,0,.9-.12.9s-.15-.11-.11-.24a.54.54,0,0,0-.17-.48c-.37-.37-.31-2.08.11-3a4.35,4.35,0,0,1,8,.35c.34.89.27,2.45-.11,2.68-.1.07-.16,0-.13-.11a.27.27,0,0,0-.14-.29c-.1,0-.36.29-.57.73a3.62,3.62,0,0,1-2.83,2,2.75,2.75,0,0,1-1.93-.39Zm28.38-1.89a3.18,3.18,0,0,1,0-2.55c.28-.8.23-1.25-.11-1-.1.06-.18,0-.18-.07a2.75,2.75,0,0,1,.78-.85,4.23,4.23,0,0,1,5.62.13c.62.56,1.27,1.84.79,1.54-.22-.13-.47.74-.29,1,.06.11.05.2,0,.2s-.27-.18-.4-.39A3.81,3.81,0,0,0,790.29,96,3.26,3.26,0,0,0,787.08,99a3.16,3.16,0,0,1-.06.84,2.9,2.9,0,0,1-.33-.66Zm82,.17a5,5,0,0,1,.06-3c.26-.64.2-.76-.34-.67s.75-1.17,1.4-1.5a4.23,4.23,0,0,1,4.53.31c.84.56,1.45,1.53,1.15,1.83a1.37,1.37,0,0,0-.21.8v.6l-.74-.7a3.21,3.21,0,0,0-3.81-.56,3.39,3.39,0,0,0-1.76,2.64,7.26,7.26,0,0,1,0,.76,4.18,4.18,0,0,1-.24-.49Zm30.37,0a3.78,3.78,0,0,1,.43-3.52c.29-.41.31-.53.1-.71s-.29-.18-.34-.16a4.45,4.45,0,0,1,.47-.46,4.26,4.26,0,0,1,3.1-.82,4.47,4.47,0,0,1,2.92,1.87c.17.3.13.33-.23.21s-.45-.08-.07,1.23l.13.47-.43-.44a3.57,3.57,0,0,0-2.66-1,3.15,3.15,0,0,0-3.2,2.83c-.08.6-.14.74-.22.47Zm81.79-.53a3.82,3.82,0,0,1,.44-2.79c.37-.5.37-1.24,0-1-.09.06-.11,0,0-.18a4.58,4.58,0,0,1,2.3-1.16,4.22,4.22,0,0,1,3.34,1.08,3.39,3.39,0,0,1,.86,1c0,.12-.1.12-.26,0-.43-.35-.53.24-.19,1.06l.3.71-.45-.4a3.91,3.91,0,0,0-2.6-1,3.12,3.12,0,0,0-2.63,1.25,2.91,2.91,0,0,0-.84,1.9c0,.25-.12.14-.22-.35ZM710,93.44a2.78,2.78,0,0,1-.63-1.09,2.86,2.86,0,0,0-.32-.8c-.15-.19,1.85-.24,9.85-.24h10l0-5.43c0-4.77,0-5.36.27-4.78s.25,2.05.26,6.23l0,5.57-1,1.06h-18Zm111.46-1.56-.54-.57h9.86c5.43,0,9.86,0,9.86.1a2.33,2.33,0,0,1-.51.57l-.52.45-17.61,0Zm112.27,0-.54-.57H953l-.55.57-.54.57H934.3Zm-223.53-16a3,3,0,0,1-1-1.84l-.12-.47H729V62.92l-.48.09c-.26.05-.47,0-.47,0a6.89,6.89,0,0,1,1.05-1.11l1-1h12.18L746.17,57c3.16-3.17,4-3.88,4.39-3.88h.52l0-11.57c0-10,0-11.5.27-11s.26,2.77.27,12.38V54.74l-8.79,8.79H730.55l-1,1.06V75.17l-.58.56-.58.56-17.59,0-.56-.47Zm111.27-1.69-.56-.52,9.8,0c5.4,0,9.85,0,9.91,0s-.11.31-.35.57l-.44.47h-17.8Zm112.26,0-.54-.57H943c5.37,0,9.77.07,9.76.15a1.69,1.69,0,0,1-.36.56l-.35.43H934.3ZM839.91,63A6.46,6.46,0,0,1,841,61.85l1-1h12.19L858.06,57c3-3,4-3.88,4.34-3.88s-.29.76-4,4.44L854,62H841.87l-.43.45c-.39.42-1.53.78-1.53.49ZM952.18,63s.49-.53,1.08-1.1l1.09-1h12.11L970.33,57c3-3,4-3.88,4.34-3.88s-.29.76-4,4.44L966.27,62H954.14l-.43.45c-.34.36-1.53.79-1.53.55ZM688,49.68a4.71,4.71,0,0,1-.86-1.37l-.27-.75h19.89V35.27l-.47,0c-.41,0-.33-.09.66-1.08l1.13-1.14H730l1.13,1.13c1.07,1.09,1.1,1.14.61,1.14s-.52.08-.52.47,0,.46-.42.21-2.18-.27-11.3-.27H708.64l-1.22.93V49l-1.18,1.34H688.59l-.6-.62Zm111.28-1.56c-.24-.26-.4-.49-.36-.52s4.45,0,9.79,0l9.71.06-.43.46-.44.47H799.72Zm112.27,0c-.24-.26-.4-.49-.36-.52s4.45,0,9.79,0l9.71.06-.87.93H912l-.45-.48ZM818.86,34.21,820,33.1h21.95l2.24,2.26h-.57a1.55,1.55,0,0,1-1.12-.56l-.54-.57H819.76l-.52.54a1.66,1.66,0,0,1-1,.55c-.44,0-.39-.09.62-1.11Zm112.27,0,1.1-1.11h21.95l1.12,1.13,1.12,1.14h-.57a1.57,1.57,0,0,1-1.12-.57l-.54-.57H943.08c-7.31,0-11.14.07-11.22.19a.23.23,0,0,1-.32.07c-.12-.07-.16,0-.09.07s-.22.54-.88.66c-.5.09-.46,0,.56-1ZM676.92,19.3a3.93,3.93,0,0,1-2.16-1.88c-.32-.65-.4-.71-.48-.39s0,.33.09.26.16,0,.12.11c-.17.51-.46.24-.67-.63a4.23,4.23,0,0,1,4.2-5.22c2.79,0,4.93,2.63,4.16,5.12-.16.49-.27.67-.28.42,0-.6-.33-.7-.46-.16a4.5,4.5,0,0,1-2.1,2.21,3.32,3.32,0,0,1-2.42.16Zm81.84-.09a3.66,3.66,0,0,1-2.39-2.79l-.16-.81,0,1c0,.54.09.94.17.89s.09.05,0,.23c-.23.6-.71-.68-.71-1.91a4.16,4.16,0,0,1,4.38-4.25,4.23,4.23,0,0,1,4.12,5c-.13.69-.14.7-.36.29s-.24-.41-.56.32A4,4,0,0,1,761,19.29a2.91,2.91,0,0,1-2.19-.08Zm27.93-2.08a3.62,3.62,0,0,1,.6-3.63c.47-.64.59-1.12.23-.89-.14.09-.17.05-.07-.11a4.2,4.2,0,0,1,2.38-.95,4.42,4.42,0,0,1,3.58,1.95c.32.52.33.59.05.79a.69.69,0,0,0-.2.73,1.21,1.21,0,0,1,0,.5,4.93,4.93,0,0,1-.6-.55,3.41,3.41,0,0,0-3.79-.6A3.25,3.25,0,0,0,787,17.25q.16,1.08-.33-.12Zm82,0a4.1,4.1,0,0,1,.72-3.85c.47-.6.49-.89,0-.74-.19.07-.13,0,.14-.25,1.84-1.43,5.24-.56,6,1.54.14.39.14.51,0,.48s-.27.24-.33.61c-.1.63-.12.64-.34.26a3.77,3.77,0,0,0-2.66-1.2,3,3,0,0,0-2.45,1.22,3,3,0,0,0-.85,2l-.06.47ZM980.92,17a3.59,3.59,0,0,1,1-3.73c.52-.49.65-1,.26-1-.13,0,0-.15.33-.33a4.26,4.26,0,0,1,3.72.2c.83.49,1.48,1.15,1.48,1.51,0,.09-.09.11-.19,0-.41-.25-.54.12-.27.76.38.92.34,1-.25.44A3.39,3.39,0,0,0,981.44,16a1.92,1.92,0,0,0-.27,1.18c.17.65,0,.55-.25-.15ZM899,17.31c-.59-1-.23-2.7.8-4,.81-1,.92-1.27.41-1.12-.18,0-.07-.05.24-.24a4.34,4.34,0,0,1,5.24,1.54c.19.34.17.36-.1.13s-.33-.22-.44.05a1.26,1.26,0,0,0,.09.79c.35.77.25.91-.27.39a3.42,3.42,0,0,0-2.82-.84,3.14,3.14,0,0,0-2.9,2.64c-.07.45-.19.73-.25.62Z" fill="#a10303"/><path d="M670.38,105.84l-1-1.11,48.56,0c26.7,0,49,0,49.64-.08a2.52,2.52,0,0,1,1.09.08,9.43,9.43,0,0,1-1.08,1.21L766.49,107l-95.09,0Zm.87-.23c0-.43,0-.63-.24-.63s-.27.07-.27.16.1.16.22.16.16.06.08.14-.24,0-.36-.14a1,1,0,0,0-.48-.34c-.14,0,0,.24.38.61l.64.67s0-.28,0-.63Zm111,.24-1-1.11,49.59,0c27.28,0,49.63,0,49.68,0a6.19,6.19,0,0,1-1,1.18L878.38,107l-95.08,0Zm112.33,0-1.11-1.12.94,0c.87,0,.89,0,.26.14L894,105l1.44,1.49v-1.77l48.62,0c26.75,0,48.66,0,48.71,0a6,6,0,0,1-1,1.17l-1.1,1.11h-95l-1.11-1.12ZM786.69,99.16a3.18,3.18,0,0,1,0-2.55c.28-.79.23-1.25-.11-1-.1.06-.18,0-.18-.07a2.75,2.75,0,0,1,.78-.85,4.23,4.23,0,0,1,5.62.13c.62.56,1.27,1.84.79,1.54-.22-.13-.47.74-.29,1,.06.11.05.2,0,.2s-.27-.18-.4-.39A3.81,3.81,0,0,0,790.29,96,3.26,3.26,0,0,0,787.08,99a3.16,3.16,0,0,1-.06.84,2.9,2.9,0,0,1-.33-.66Zm82,.18a5,5,0,0,1,.06-3c.27-.63.2-.76-.34-.67s.75-1.17,1.4-1.5a4.23,4.23,0,0,1,4.53.31c.84.56,1.45,1.53,1.15,1.83a1.38,1.38,0,0,0-.21.81v.59l-.74-.7a3.2,3.2,0,0,0-3.8-.56,3.38,3.38,0,0,0-1.77,2.64,7.26,7.26,0,0,1,0,.76,4.54,4.54,0,0,1-.24-.48Zm-193.93-.45a3.52,3.52,0,0,1,.38-2.82c.39-.68.32-1.07-.18-.9-.17.06,0-.18.42-.54a4.24,4.24,0,0,1,5.86.47c.53.63.69,1.14.24.77s-.5-.06-.3.48a2.78,2.78,0,0,1,.18.81c0,.27-.13.22-.67-.29a3.21,3.21,0,0,0-2.82-.79,3.32,3.32,0,0,0-2.75,2.86l-.12.78ZM899,99.35a3.8,3.8,0,0,1,.43-3.53c.29-.41.31-.53.1-.7s-.29-.19-.34-.17a6.43,6.43,0,0,1,.47-.46,4.26,4.26,0,0,1,3.1-.82,4.47,4.47,0,0,1,2.92,1.87c.17.3.13.33-.23.21s-.45-.08-.07,1.23l.13.48-.43-.45a3.57,3.57,0,0,0-2.66-1,3.15,3.15,0,0,0-3.2,2.83c-.08.6-.14.74-.22.48Zm-142.35-.16a4.5,4.5,0,0,1,.31-3c.38-.77.4-.89.14-1.07s-.23-.25.18-.59a5.49,5.49,0,0,1,1.49-.69,3.87,3.87,0,0,1,3.92.92,2.79,2.79,0,0,1,.82,1.07c0,.26,0,.27-.18,0s-.19-.22-.19,0-.1.19-.24.11-.19-.08,0,.13a2.72,2.72,0,0,1,.34.93l.12.66-.43-.51a3.9,3.9,0,0,0-4-.88A4,4,0,0,0,757,99c-.1.46-.15.5-.26.22Zm224.13-.38a3.82,3.82,0,0,1,.45-2.79c.37-.5.37-1.24,0-1-.09.06-.12,0-.06-.18a4.62,4.62,0,0,1,2.31-1.16,4.19,4.19,0,0,1,3.33,1.08,3.22,3.22,0,0,1,.86,1c0,.12-.09.12-.26,0-.42-.35-.52.24-.18,1.06l.29.72-.44-.41a3.92,3.92,0,0,0-2.61-1,3.13,3.13,0,0,0-2.63,1.25,3,3,0,0,0-.84,1.9c0,.25-.12.14-.22-.35ZM709.59,91.88l-.55-.57h20L728,92.45H710.13Zm111.89,0-.54-.57h9.86c5.43,0,9.86,0,9.86.11a2.28,2.28,0,0,1-.52.56l-.52.45-17.6,0Zm112.27,0-.54-.57H953l-.55.57-.54.57H934.29ZM709.59,74.11l-.54-.56h9.86c5.43,0,9.87.07,9.87.15a1.56,1.56,0,0,1-.44.57c-.44.41-.46.41-9.32.41h-8.89Zm111.9,0-.56-.52,9.8,0c5.4,0,9.85,0,9.91,0s-.11.31-.35.57l-.44.47h-17.8Zm112.26,0-.54-.56H943c5.37,0,9.77.06,9.76.14a1.7,1.7,0,0,1-.36.57l-.35.42H934.3ZM728,63a6.6,6.6,0,0,1,1-1.1l1-1h12.19L746.16,57c3-3,4-3.88,4.34-3.88s-.28.76-4,4.45L742.1,62H730l-.43.45c-.39.42-1.53.78-1.53.49Zm111.9,0a6.8,6.8,0,0,1,1-1.1l1-1h12.18L858.05,57c3-3,4-3.88,4.34-3.88s-.28.76-4,4.45L854,62H841.86l-.42.45c-.4.42-1.53.78-1.53.49ZM952.18,63a13.47,13.47,0,0,1,1.08-1.1l1.08-1h12.11L970.32,57c3-3,4-3.88,4.34-3.88s-.28.76-4,4.45L966.26,62H954.13l-.42.45c-.35.37-1.53.8-1.53.55ZM687.38,48.13c-.25-.26-.41-.5-.37-.52s4.49,0,9.89,0l9.8.06-.87.93h-18Zm111.89,0c-.25-.26-.41-.5-.37-.52s4.45,0,9.8,0l9.71.06-.44.46-.44.47H799.71Zm112.27,0c-.25-.26-.41-.5-.37-.52s4.45,0,9.8,0l9.71.06-.88.93H912l-.44-.47ZM707,34.22l1.12-1.12H730l2.24,2.27h-.57a1.53,1.53,0,0,1-1.12-.57l-.54-.57H707.91l-.53.51a2.18,2.18,0,0,1-1,.55c-.47.05-.42,0,.6-1.07Zm111.91,0L820,33.1h21.95l2.24,2.27h-.57a1.53,1.53,0,0,1-1.12-.57l-.54-.57H819.76l-.52.55a1.69,1.69,0,0,1-1,.54c-.44,0-.39-.09.62-1.11Zm112.27,0,1.1-1.11h21.95l1.12,1.13,1.12,1.14h-.57a1.53,1.53,0,0,1-1.12-.57l-.54-.57H943.08c-7.31,0-11.14.07-11.22.2a.23.23,0,0,1-.32.06c-.12-.07-.15,0-.09.07s-.21.54-.88.66c-.5.09-.46,0,.56-1ZM786.69,17.13a3.64,3.64,0,0,1,.61-3.63c.47-.63.59-1.12.23-.89-.15.09-.17.05-.08-.1a4.1,4.1,0,0,1,2.39-.95,4.4,4.4,0,0,1,3.58,1.94c.32.52.32.6.05.8a.65.65,0,0,0-.2.72,1.21,1.21,0,0,1,0,.5,4.93,4.93,0,0,1-.6-.55,3.41,3.41,0,0,0-3.79-.6A3.26,3.26,0,0,0,787,17.25c.11.72,0,.68-.34-.12Zm-111.94-.19a5.71,5.71,0,0,1-.22-1,4.45,4.45,0,0,1,1-2.46c.72-.87.84-1.23.33-1.06-.27.1-.26.07,0-.17,1.39-1.07,4-.64,5.27.86.56.66.68,1.13.18.73-.22-.18-.27-.19-.18,0s0,.24-.06.24-.15.11,0,.37c.44.83.21,1-.56.37a2.89,2.89,0,0,0-1.69-.7,2.77,2.77,0,0,0-2.57.74,3.06,3.06,0,0,0-1.23,2.15l-.11.76Zm82,.07a3.35,3.35,0,0,1,.53-3.28,8.84,8.84,0,0,0,.7-.94c.35-.55.35-.56,0-.42s-.37.13,0-.16a3.94,3.94,0,0,1,4.32.1c.91.58,1.67,1.64,1.16,1.64-.14,0-.21-.1-.15-.21s.05-.14-.11,0-.17.35,0,.72c.32.86.23.92-.52.32a3.47,3.47,0,0,0-4.32-.11,3.4,3.4,0,0,0-1.3,2.56c.2.62,0,.42-.26-.22Zm111.9.15a4.07,4.07,0,0,1,.72-3.85c.47-.6.49-.89.05-.74-.19.07-.14,0,.14-.25,1.84-1.43,5.24-.56,6,1.55.15.38.14.5,0,.47s-.28.25-.33.61c-.1.63-.12.65-.34.26a3.77,3.77,0,0,0-2.66-1.2,3,3,0,0,0-2.46,1.22,3,3,0,0,0-.84,2l-.06.48ZM980.93,17a3.62,3.62,0,0,1,1-3.74c.53-.49.66-1,.27-1-.13,0,0-.15.33-.32a4.23,4.23,0,0,1,3.72.19c.83.49,1.47,1.15,1.47,1.51,0,.09-.08.11-.18.05-.41-.25-.54.12-.28.75.39.92.35,1-.24.44A3.4,3.4,0,0,0,981.44,16a2,2,0,0,0-.26,1.18c.17.65,0,.55-.25-.14ZM899,17.32c-.59-1-.24-2.71.8-4,.81-1,.92-1.27.41-1.12-.18.06-.07-.05.24-.23a4.33,4.33,0,0,1,5.24,1.54c.18.33.17.35-.11.12s-.33-.21-.43.06a1.17,1.17,0,0,0,.09.78c.35.77.25.92-.27.39a3.45,3.45,0,0,0-2.82-.84,3.13,3.13,0,0,0-2.9,2.65c-.08.44-.19.72-.25.62Z" fill="#342725"/></g></svg>