<svg xmlns="http://www.w3.org/2000/svg" width="86.850838" height="200">
  <defs>
    <clipPath id="a">
      <path d="M0 420.083h182.423V0H0v420.083z"/>
    </clipPath>
  </defs>
  <g clip-path="url(#a)" transform="matrix(0.47609639,0,0,-0.47609639,0,200)">
    <path fill="#fff" d="M1.8808 0C.8418 0-.0002.958-.0002 2.139v415.804c0 1.182.842 2.14 1.881 2.14h178.662c1.038 0 1.88-.958 1.88-2.14V2.139c0-1.181-.842-2.139-1.88-2.139H1.8808z"/>
    <path fill="#333" d="M11.9238 166.5781V13.6621c0-1.111.65-2.012 1.451-2.012h137.889c.802 0 1.451.901 1.451 2.012v391.023c0 1.112-.649 2.012-1.451 2.012H13.3748c-.801 0-1.451-.9-1.451-2.012v-238.107z"/>
    <path fill="#212121" d="M39.7197 165.3115c-3.512 0-6.358 2.314-6.358 5.169v108.025c0 2.856 2.846 5.17 6.358 5.17h27.98c3.511 0 6.359-2.314 6.359-5.17v-108.025c0-2.855-2.848-5.169-6.359-5.169h-27.98z"/>
    <path fill="#fff" d="M41.1279 171.1367c-1.287 0-2.33 1.043-2.33 2.33v102.054c0 1.286 1.043 2.329 2.33 2.329h25.164c1.287 0 2.33-1.043 2.33-2.329v-102.054c0-1.287-1.043-2.33-2.33-2.33h-25.164z"/>
    <path fill="#666" d="M148.9873 165.7773c2.059 0 3.728 1.67 3.728 3.729v109.975c0 2.06-1.669 3.728-3.728 3.728h-11.301c-2.058 0-3.727-1.668-3.727-3.728v-109.975c0-2.059 1.669-3.729 3.727-3.729h11.301zm-25.6201 0c2.059 0 3.729 1.67 3.729 3.729v109.975c0 2.06-1.67 3.728-3.729 3.728h-11.301c-2.058 0-3.727-1.668-3.727-3.728v-109.975c0-2.059 1.669-3.729 3.727-3.729h11.301zm-26.5059 0c2.06 0 3.729 1.67 3.729 3.729v109.975c0 2.06-1.669 3.728-3.729 3.728h-11.3c-2.059 0-3.728-1.668-3.728-3.728v-109.975c0-2.059 1.669-3.729 3.728-3.729h11.3zm-72.5293 3.7286v109.975c0 2.06-1.669 3.728-3.727 3.728h-8.681v-117.432h8.681c2.058 0 3.727 1.67 3.727 3.729"/>
    <path fill="#fff" d="M57.1943 328.1445v-20.241c0-2.059 1.669-3.728 3.729-3.728h27.726c2.06 0 3.729 1.669 3.729 3.728v20.241h20.242c2.058 0 3.727 1.67 3.727 3.728v27.727c0 2.06-1.669 3.729-3.727 3.729h-20.242v20.242c0 2.058-1.669 3.728-3.729 3.728h-27.726c-2.06 0-3.729-1.67-3.729-3.728v-20.242h-20.241c-2.059 0-3.729-1.669-3.729-3.729v-27.727c0-2.058 1.67-3.728 3.729-3.728h20.241zm-22.96-227.039c-1.287 0-2.33 1.043-2.33 2.33v38.912c0 1.286 1.043 2.329 2.33 2.329h39.377c1.287 0 2.33-1.043 2.33-2.329v-38.912c0-1.287-1.043-2.33-2.33-2.33h-39.377z"/>
    <path fill="#cd3332" d="M53.9228 105.5332c-9.587 0-17.358 7.771-17.358 17.357 0 9.588 7.771 17.36 17.358 17.36s17.358-7.772 17.358-17.36c0-9.586-7.771-17.357-17.358-17.357"/>
    <path fill="#fff" d="M34.2343 46.4395c-1.287 0-2.33 1.043-2.33 2.33v38.911c0 1.286 1.043 2.329 2.33 2.329h39.377c1.287 0 2.33-1.043 2.33-2.329v-38.911c0-1.287-1.043-2.33-2.33-2.33h-39.377z"/>
    <path fill="#cd3332" d="M53.9228 50.8672c-9.587 0-17.358 7.771-17.358 17.357 0 9.588 7.771 17.36 17.358 17.36s17.358-7.772 17.358-17.36c0-9.586-7.771-17.357-17.358-17.357"/>
    <path fill="#212121" d="M47.9043 262.958c0 3.323 2.694 6.019 6.019 6.019s6.019-2.696 6.019-6.019v-21.94c0-3.325-2.694-6.02-6.019-6.02s-6.019 2.695-6.019 6.02v21.94zm0-54.9883c0 3.325 2.694 6.02 6.019 6.02s6.019-2.695 6.019-6.02v-21.94c0-3.325-2.694-6.02-6.019-6.02s-6.019 2.695-6.019 6.02v21.94zM60.3398 331.291v-24.058h28.893v24.058h24.057v28.893h-24.057v24.056h-28.893v-24.056h-24.057v-28.893h24.057z"/>
    <path d="M92.9599 345.7363v-6h6.933v-2.563l8.446 8.563-8.446 8.563v-2.563h-6.933v-6zm-36.3476 0v6h-6.932v2.563l-8.446-8.563 8.446-8.563v2.563h6.932v6zm17.9541-18.1738h-6v-6.932h-2.564l8.564-8.445 8.563 8.445h-2.564v6.932h-5.999zm0 36.3477h5.999v6.932h2.564l-8.563 8.447-8.564-8.447h2.564v-6.932h6zm0-26.0762c-4.364 0-7.902 3.539-7.902 7.902 0 4.366 3.538 7.903 7.902 7.903 4.363 0 7.902-3.537 7.902-7.903 0-4.363-3.539-7.902-7.902-7.902"/>
    <path fill="#cd3332" d="M119.791 132.5527c.08.115.173.176.267.234 2.855 1.764 5.71 3.53 8.568 5.287.172.107.243.213.24.42-.011 1.162-.005 2.323-.005 3.483 0 .092-.009.183-.013.289h-13.087v-4.008h9.045c.006-.023.014-.046.02-.068-.089-.059-.179-.119-.268-.176-2.852-1.77-5.703-3.542-8.558-5.306-.191-.118-.262-.245-.26-.471.012-1.132.006-2.264.006-3.397v-.295h13.094v4.008h-9.049zm-1.5342-64.5586c-.848.033-1.414.732-1.385 1.563.03.85.614 1.467 1.462 1.501.611.025 1.227.004 1.839.004v.005c.565 0 1.132.013 1.697-.003.926-.026 1.51-.605 1.541-1.501.03-.873-.518-1.539-1.423-1.575-1.242-.049-2.489-.043-3.731.006m5.763-.004c.4.733.716 1.44.775 2.236.057.788-.057 1.54-.396 2.256-.343.723-.839 1.319-1.475 1.798-1.576 1.19-3.724 1.33-5.291.208-2.378-1.702-2.657-3.937-1.436-6.486-.148-.01-.293-.021-.432-.03v-3.849h13.081v3.867h-4.826zm-.512 41.7326c1.673 1.627 1.79 4.392.265 6.199-.062.074-.12.153-.227.287h.88v3.858h-8.671v-3.843c.128-.007.248-.019.368-.018 1.708.002 3.415.013 5.122.003.276-.002.575-.045.82-.158.777-.36 1.186-1.329.972-2.205-.203-.832-.886-1.35-1.787-1.35h-5.482v-3.868c.048-.009.075-.018.102-.018 1.614 0 3.227-.019 4.839.008 1.06.017 2.02.348 2.799 1.105m-2.4033-33.1543c1.046.037 1.942.512 2.638 1.314 1.463 1.69 1.472 4.238.027 5.954-.064.075-.127.15-.246.293h.911v3.868h-8.667v-3.87h.388c1.726.002 3.453.002 5.179.005.363 0 .688-.097.978-.312.667-.498.947-1.406.68-2.203-.262-.781-.882-1.201-1.78-1.203-1.697 0-3.395 0-5.093-.001-.119-.001-.237-.015-.352-.023v-3.837c.058-.01.094-.023.131-.023 1.735.007 3.473-.023 5.206.038m-.9356-21.125v.029c-.745 0-1.491-.033-2.234.008-.991.057-1.624.767-1.587 1.701.029.736.595 1.336 1.404 1.474.222.038.449.056.675.056 1.161.005 2.32.005 3.48-.002.244-.001.492-.019.731-.069.856-.181 1.405-.847 1.363-1.628-.045-.828-.679-1.448-1.57-1.538-.131-.013-.263-.029-.395-.029-.623-.004-1.245-.002-1.867-.002m3.417-2.502c1.969 2.264 1.941 6.008-.06 8.273-1.834 2.079-4.799 2.114-6.67.069-1.095-1.197-1.569-2.635-1.583-4.141.007-1.582.424-2.926 1.363-4.086 1.87-2.308 5.001-2.357 6.95-.115m-2.1836 41.416c0 .669.012 1.338-.006 2.008-.006.256.079.334.325.306.308-.037.624-.019.927-.078.774-.15 1.309-.821 1.304-1.591-.005-.778-.568-1.456-1.354-1.582-.377-.061-.763-.061-1.196-.092v1.029zm1.818-3.759c1.086 1.087 1.645 2.419 1.753 3.942.126 1.78-.331 3.383-1.523 4.737-.797.903-1.794 1.463-3.015 1.547-1.585.109-2.863-.528-3.826-1.744-1.436-1.817-1.723-3.881-1.065-6.065.459-1.523 1.379-2.711 2.86-3.398.113-.053.234-.086.355-.129v3.844c-.358.027-.697.033-1.032.081-.823.117-1.405.739-1.433 1.506-.032.838.453 1.54 1.299 1.665.803.117 1.628.086 2.488.123v-7.455c.142 0 .244-.01.344 0 1.094.111 2.025.574 2.795 1.346m2.5238 9.7786v2.109h1.748v3.942h-1.751c0 .128.001.229 0 .33-.001.519.004 1.038-.011 1.556-.002.084-.087.233-.142.236-.364.02-.731.011-1.127.011v-2.149h-8.698v-3.933h8.706v-2.102h1.275zm-9.9851 21.941h8.675v3.891h-8.675v-3.891zm13.083 3.909h-2.612v-3.908h2.612v3.908zm-3.7737-75.7807c-.002 1.208.928 2.125 2.166 2.138 1.221.011 2.172-.916 2.177-2.125.004-1.191-.933-2.114-2.151-2.118-1.242-.005-2.191.907-2.192 2.105m4.753.001c.004 1.455-1.121 2.603-2.561 2.613-1.457.01-2.59-1.129-2.591-2.603-.001-1.453 1.131-2.602 2.568-2.608 1.43-.004 2.58 1.153 2.584 2.598"/>
    <path fill="#cd3332" d="M127.417 50.8477c.001.057.002.164.002.164l.958.004.003-.928c-.008-.22-.266-.379-.502-.369-.232.009-.425.143-.451.387-.029.252-.014.489-.01.742m-1.624-1.176v-.433c.428.273.841.536 1.264.806.024-.093.048-.166.072-.234.13-.375.425-.567.831-.537.399.029.683.24.715.635.04.494.009.993.009 1.511h-2.904v-.412h1.254v-.553s-.204-.132-.31-.193l-.931-.59z"/>
  </g>
</svg>
