<svg xmlns="http://www.w3.org/2000/svg" xmlns:xlink="http://www.w3.org/1999/xlink" viewBox="0 0 1000 114"><defs><linearGradient id="Degradado_sin_nombre" x1="1390.3" y1="1411" x2="1755.88" y2="1411" gradientTransform="translate(-298.24 -891.69) scale(0.67)" gradientUnits="userSpaceOnUse"><stop offset="0" stop-color="#f50019"/><stop offset="0.28" stop-color="#f66d19"/><stop offset="0.48" stop-color="#fbfa35"/><stop offset="0.68" stop-color="#74b719"/><stop offset="0.79" stop-color="#17710a"/><stop offset="0.88" stop-color="#226887"/><stop offset="1" stop-color="#3262d9"/></linearGradient></defs><path d="M988.71,20.71c2.37,0,4.29,2.29,4.29,5.11V88.18c0,2.82-1.92,5.11-4.29,5.11H497.29c-2.37,0-4.29-2.29-4.29-5.11V25.82c0-2.82,1.92-5.11,4.29-5.11H988.71m0-7H497.29c-6.22,0-11.29,5.43-11.29,12.11V88.18c0,6.68,5.07,12.11,11.29,12.11H988.71c6.22,0,11.29-5.43,11.29-12.11V25.82c0-6.68-5.07-12.11-11.29-12.11Z" fill="#fff"/><path id="background" d="M993,88.18c0,2.82-1.92,5.11-4.29,5.11H497.29c-2.37,0-4.29-2.29-4.29-5.11V25.82c0-2.82,1.92-5.11,4.29-5.11H988.71c2.37,0,4.29,2.29,4.29,5.11V88.18Z"/><path id="dragon" d="M636,36.87h19.8c13.05,0,17.66,9.65,17.66,19.53,0,12-6.37,19.63-20,19.63H636V36.87ZM648.06,66h4.72c7.51,0,8.61-6.09,8.61-9.77,0-2.46-.77-9.32-9.49-9.32h-3.84V66Zm29.51-29.13h23c6.86,0,12.78,3.79,12.78,11.19,0,4.06-1.87,8.34-5.87,9.82,3.29,1.26,5.32,4.88,5.76,9.76.16,1.92.22,6.58,1.32,8.39H702.47a28.76,28.76,0,0,1-1-6c-.33-3.73-.66-7.62-5.43-7.62h-6.42V76H677.57V36.87ZM689.64,54h6.3c2.25,0,5.32-.38,5.32-3.89,0-2.47-1.37-3.89-6-3.89h-5.64V54Zm41.62-17.11h11.8L757.32,76H744.81l-1.64-5.59H730.71L729,76H716.84l14.42-39.16Zm9.49,25.18L737.24,50h-.11l-3.78,12.07Zm46.84,10C784.9,75.48,780.73,77,776.46,77c-11.58,0-18.71-9-18.71-20.12,0-14.92,10.48-20.9,19.31-20.9,10,0,16.29,5.43,18,14.64H783.53a5.73,5.73,0,0,0-5.7-4.88c-8.28,0-8,8.72-8,11.41,0,3.67,1.48,10.09,8.83,10.09,2.8,0,5.65-1.42,6.25-4.33h-5.32V54.48h16V76H788l-.38-4Zm33.78-36.09c11.91,0,19.86,8.56,19.86,20.51S833.27,77,821.37,77s-19.85-8.56-19.85-20.52S809.47,35.94,821.37,35.94Zm0,31.26c3.07,0,7.79-2,7.79-10.75s-4.72-10.75-7.79-10.75-7.79,2-7.79,10.75S818.3,67.2,821.37,67.2Zm25-30.33h12.34l11.41,21h.11v-21h11.41V76H869.91l-12-21.39h-.11V76H846.38V36.87Z" fill="url(#Degradado_sin_nombre)"/><path id="_32" data-name="32" d="M892.94,50.58a12.1,12.1,0,0,1,4.78-10,18.75,18.75,0,0,1,11.13-3.18c11.08,0,14.75,6.58,14.75,9.82,0,8-5,8-5,8.17v.11c0,.44,6.25.44,6.25,8.94,0,4.66-3.51,12-16,12-17.16,0-17.22-12.06-16.94-14.92h10.42a5.81,5.81,0,0,0,1.48,4.56c1,1.26,2.63,1.7,4.55,1.7,3.13,0,5.1-1.15,5.1-4.28,0-3.35-2.58-4-5.1-4a18.85,18.85,0,0,0-3.18.27V52.39a31.39,31.39,0,0,0,3.18.22c2.31,0,5.21-.49,5.21-3.45,0-2.42-2.74-3.35-5-3.35-3,0-5.37,1.59-5.26,4.77Zm34.17,3.35c-.6-10.48,5.93-16.51,16.18-16.51,9.27,0,15.58,3.89,15.58,12,0,9.76-9.54,12.84-16.73,17.22v.06h17.28V76H926.35a14.33,14.33,0,0,1,2.74-9.43c3.18-4.44,8.66-7.35,13.54-10.31,2-1.21,5.16-2.74,5.16-5.54,0-3.46-2-4.66-4.61-4.66-4.39,0-5.87,3.18-5.76,7.84Z" fill="#fff"/><path id="data_ltd" data-name="data ltd" d="M826.87,80.93h3.48c2.29,0,3.1,1.69,3.1,3.43,0,2.11-1.12,3.44-3.52,3.44h-3.06V80.93ZM829,86h.83c1.32,0,1.51-1.07,1.51-1.71a1.51,1.51,0,0,0-1.66-1.64H829V86Zm7.28-5.11h2.07l2.5,6.87h-2.19l-.29-1h-2.18l-.31,1h-2.13l2.53-6.87Zm1.67,4.42-.62-2.12h0l-.66,2.12Zm4.33-2.66h-1.92V80.93h6v1.76h-1.92V87.8h-2.12V82.69Zm6-1.76h2.07l2.5,6.87h-2.19l-.29-1h-2.19l-.31,1h-2.12l2.53-6.87ZM850,85.35l-.61-2.12h0l-.66,2.12Zm12-4.42h2.12V86h3V87.8h-5.16V80.93Zm6.43,1.76h-1.92V80.93h6v1.76h-1.93V87.8h-2.12V82.69Zm4.83-1.76h3.47c2.29,0,3.1,1.69,3.1,3.43,0,2.11-1.11,3.44-3.51,3.44H873.2V80.93ZM875.32,86h.82c1.32,0,1.51-1.07,1.51-1.71A1.51,1.51,0,0,0,876,82.69h-.67V86Zm5.43-.14h2v1.9h-2Z" fill="#dedede"/><path id="logo" d="M561,58h-5.94L569.2,33.54a15.33,15.33,0,0,1,13.28-7.69H611.7l-3,5.14H582.48a10.19,10.19,0,0,0-8.83,5.12ZM576.91,38a6.44,6.44,0,0,1,5.58-3.24h24.07l1.29-2.22H582.49A8.67,8.67,0,0,0,575,36.87L562.76,58h2.57Zm2.25,9.45h20.08l3.47-6,1.06-1.83,1.91-3.31H582.49a4.92,4.92,0,0,0-4.26,2.47L567.1,58H573Zm-45.64,0v.06a12.71,12.71,0,0,1-1,1.88,19.93,19.93,0,0,0-3.24,10.57,15.34,15.34,0,0,0,15.32,15.32h58.35l-6.06,10.49h5.94l4.76-8.24a4.9,4.9,0,0,0-4.22-7.39H544.58A10.2,10.2,0,0,1,534.4,59.94,14.65,14.65,0,0,1,536.92,52c1.4-2.36,1.75-3.17,1.75-4.83a4.89,4.89,0,0,0-4.89-4.89H516.54l3,5.14Zm69.83,18.94H544.58a6.44,6.44,0,0,1-6.42-6.43,11,11,0,0,1,2-6c1.55-2.61,2.29-4.13,2.29-6.75a8.66,8.66,0,0,0-8.66-8.65H510.08l-.84-1.45-5.62,2.54,8.7,2.79-1-1.65h22.41a6.43,6.43,0,0,1,6.43,6.42c0,2-.44,3-2,5.61a13.13,13.13,0,0,0-2.3,7.15,8.67,8.67,0,0,0,8.65,8.65h58.77A6.44,6.44,0,0,1,609.78,75a6.36,6.36,0,0,1-.91,3.28l-4.3,7.45h2.57l3.65-6.32a8.65,8.65,0,0,0-7.44-13.06ZM550.08,76.93h-5.93l-5.1,8.82H545Zm-.76,8.82,5.1-8.82h-2.57l-5.09,8.82Zm12.8-8.82h-5.94l-5.09,8.82H557Zm41.23-17.24H544.84a5.9,5.9,0,0,1,1-2.35c1.83-3.07,3.23-5.76,3.23-10.16a15.34,15.34,0,0,0-15.33-15.32h-.4L530,35.25l-3.38-3.39H510.52l3,5.14h20.28A10.19,10.19,0,0,1,544,47.18c0,3.11-.94,4.92-2.5,7.53a9.58,9.58,0,0,0-1.76,5.23,4.9,4.9,0,0,0,4.89,4.9h58.77a10.18,10.18,0,0,1,8.77,15.35l-3.21,5.56h5.94l1.71-3a15.33,15.33,0,0,0-13.21-23.09ZM535.06,31.21,530,26.13l-5.08,5.08h2.36L530,28.49l2.73,2.72Z" fill="#f50019"/></svg>