<svg xmlns="http://www.w3.org/2000/svg" viewBox="0 0 1000 114"><title>logo_right</title><g id="Layer_2" data-name="Layer 2"><rect x="510" y="35.5" width="71.5" height="44.83" fill="#fff"/></g><g id="Layer_1" data-name="Layer 1"><rect x="809.22" y="26" width="113.33" height="63.11" fill="#fff"/><path d="M548.74,12.54a63.67,63.67,0,0,1,21,3.69C568.6,24.61,567,33.5,567,33.5a38.71,38.71,0,0,0-15.93-3.08c-10.43,0-21.87,3.26-29.66,10.06-15,13.15-11.72,27.41-8.16,33.8,3.88,7,11.35,9.68,18.16,9.68a23.13,23.13,0,0,0,8.43-1.53l1.55-8.53H527.88l2.51-16H562.8l-4.87,31,32.62-74h21.53l11.46,68.69L645.85,14.9h17.27l8.54,46.58,19.8-46.58h21l3.68,85H698.63L696.3,47.28,673.6,99.86H662l-9.71-47.54L637.13,99.86h-29.7L603,74.45H582.8L571.34,99.86H553.1l2.55-5.8-.62.37a45.93,45.93,0,0,1-23,6.32c-19.65,0-36.84-13.1-38.63-31-2.13-21.34,5.87-37,22.51-47.34h0c8.28-5.15,19.34-9.92,32.92-9.92m41,45.41h10.58l-3.21-16.5L589.77,58m-41-52.41h0c-12.52,0-24.8,3.66-36.49,10.88l-.1.07c-19.22,11.89-28.13,30.56-25.79,54a39.33,39.33,0,0,0,15.24,27A49,49,0,0,0,532,107.75a52.19,52.19,0,0,0,16.44-2.69,7,7,0,0,0,4.7,1.8h18.24a7,7,0,0,0,6.38-4.12l9.6-21.29h9.79l3.43,19.62a7,7,0,0,0,6.89,5.79h29.7A7,7,0,0,0,643.8,102l7-21.92,4.33,21.2a7,7,0,0,0,6.86,5.59H673.6a7,7,0,0,0,6.42-4.22L690.66,78l1,22.16a7,7,0,0,0,7,6.69h17.46a7,7,0,0,0,7-7.3l-3.68-85a7,7,0,0,0-7-6.7h-21A7,7,0,0,0,685,12.13L674.34,37.25,670,13.61a7,7,0,0,0-6.89-5.74H645.85a7,7,0,0,0-6.66,4.84L625.73,54.16,619,13.72a7,7,0,0,0-6.91-5.85H590.55a7,7,0,0,0-6.41,4.18L573.53,36.13a7,7,0,0,0,.41-1.42c.06-.37,1.59-9.11,2.76-17.51a7,7,0,0,0-4.64-7.58,71.19,71.19,0,0,0-23.31-4.08ZM567,40.5a7,7,0,0,0,6.32-4L566.53,52a7,7,0,0,0-3.73-1H530.39a7,7,0,0,0-6.91,5.91l-2.51,16v.18A10.3,10.3,0,0,1,519.44,71c-1.7-3-6.23-13.85,6.65-25.12,6-5.21,15.34-8.33,25-8.33a32,32,0,0,1,13,2.44,7.06,7.06,0,0,0,2.93.64Z" fill="#fff"/><path d="M779.35,14.87h0m0,0-2.91,18.24H746l-2.33,15.14h26.78l-2.91,18.24H741l-2.4,15.13h30.47l-2.91,18.24H717.45l13.58-85h48.32m0-7H731a7,7,0,0,0-6.91,5.9l-13.58,85a7,7,0,0,0,5.82,8,6.59,6.59,0,0,0,1.09.09h48.71A7,7,0,0,0,773,101l3-18.24a7,7,0,0,0-6.92-8.11H746.81l.18-1.13h20.53a7,7,0,0,0,6.91-5.9l2.91-18.24a7,7,0,0,0-5.81-8,6.71,6.71,0,0,0-1.1-.09H751.81l.17-1.14h24.46a7,7,0,0,0,6.91-5.9l2.87-18a6.59,6.59,0,0,0,.13-1.33,7,7,0,0,0-7-7Z" fill="#fff"/><path d="M993,14.87h0m0,0L961.56,64.35,956.2,99.86H938.73l6.33-40.17L924.5,14.87h20l10.87,27.75,17.27-27.75H993m0-7H972.62a7,7,0,0,0-5.94,3.3l-9.9,15.91L951,12.32a7,7,0,0,0-6.52-4.45h-20a7,7,0,0,0-6.36,9.92l19.68,42.9-6,38.08a7,7,0,0,0,5.83,8,6.68,6.68,0,0,0,1.09.09H956.2a7,7,0,0,0,6.92-6l5.14-34,30.55-48.09A7,7,0,0,0,993,7.87Z" fill="#fff"/><path d="M901,14.84a30.23,30.23,0,0,1,6.77.77c19.35,4.47,30.64,27.16,25.23,50.64-4.79,20.75-21,35.21-38.13,35.21a30.23,30.23,0,0,1-6.77-.77c-19.4-4.47-30.65-27.14-25.22-50.64h0c4.79-20.75,21-35.21,38.09-35.21m-6.61,69.92c8,0,16.34-7.55,20.21-19.19,4.7-14.13,1-28.95-8.19-33.09a12.28,12.28,0,0,0-5-1.08c-8,0-16.33,7.56-20.21,19.2-4.71,14.14-1.06,28.94,8.19,33.08a12.39,12.39,0,0,0,5,1.08M901,7.84c-20.37,0-39.09,16.75-44.74,39.93-.08.23-.15.47-.21.71-3,13-1.61,26.14,3.86,37.14,5.71,11.48,15.16,19.25,26.61,21.89a37.26,37.26,0,0,0,8.35.95c20.61,0,39.52-17.09,45-40.64,6.28-27.21-7.39-53.69-30.48-59A37.13,37.13,0,0,0,901,7.84Zm-6.61,69.92a5.36,5.36,0,0,1-2.19-.47c-5.2-2.29-8.3-12.94-4.45-24.48,3.12-9.36,9.32-14.41,13.57-14.41a5.32,5.32,0,0,1,2.19.47c5.16,2.31,8.14,13.27,4.41,24.49-3.12,9.35-9.32,14.4-13.57,14.4Z" fill="#fff"/><path d="M825.79,15.27c4.85,0,9.53,0,12.68.07,11.75.19,33.7,18.1,11.56,41,21.54,19.48-2.12,43.33-18.29,43.33H792.46l13.47-84.34h-.2s10.36-.07,20.06-.07M818.25,49h12.11c11.71,0,14.25-15.79,1.93-15.79H820.92L818.25,49m-5.39,34.23h15.4c15.41,0,15.79-16.9,1.93-16.9H815.53l-2.67,16.9m12.93-75c-9.62,0-20,.07-20.11.07a7,7,0,0,0-6.95,7v.52L785.54,98.58a7,7,0,0,0,6.92,8.11h39.28c12.72,0,27.08-10.4,32-23.19,3.63-9.41,2-19.08-4.35-27.32,9.58-12.78,7.5-23.6,5.15-29.27-4.75-11.44-16.93-18.42-26-18.57-2.82,0-7.12-.07-12.79-.07Zm1.05,32h5.45a4.27,4.27,0,0,1,1.07.1,1.89,1.89,0,0,1-.41.73,3.3,3.3,0,0,1-2.59,1h-3.82l.3-1.79Zm-5.33,33.12h8.68c2.13,0,3,.68,3,1a1.16,1.16,0,0,1-.51.78c-.41.35-1.67,1.17-4.45,1.17H821l.45-2.9Z" fill="#fff"/><g id="Capa_1" data-name="Capa 1"><path d="M600.35,58l-3.21-16.5L589.77,58h10.58M716.09,99.86H698.63L696.3,47.28,673.6,99.86H662l-9.71-47.54L637.13,99.86h-29.7L603,74.45H582.8L571.34,99.86H553.1l37.45-85h21.53l11.46,68.69,22.31-68.69h17.27l8.54,46.58,19.8-46.58h21l3.68,85" fill="#3c3f8b"/><polyline points="766.16 99.86 769.08 81.63 738.6 81.63 741.02 66.49 767.52 66.49 770.43 48.25 743.65 48.25 745.98 33.11 776.44 33.11 779.35 14.87 731.03 14.87 717.45 99.86 766.16 99.86" fill="#3c3f8b"/><polyline points="993 14.87 972.62 14.87 955.35 42.62 944.48 14.87 924.5 14.87 945.06 59.69 938.73 99.86 956.2 99.86 961.56 64.35 993 14.87" fill="#3c3f8b"/><path d="M889.3,83.68c9.24,4.13,20.55-4,25.26-18.11s1.05-28.95-8.19-33.09-20.55,4-25.26,18.12-1.06,28.94,8.19,33.08M862.87,50.05c5.43-23.48,25.51-38.91,44.86-34.44S938.37,42.77,933,66.25s-25.51,38.91-44.9,34.44-30.65-27.14-25.22-50.64" fill="#3c3f8b"/><path d="M515.84,22.44c-16.64,10.3-24.64,26-22.51,47.34,2.48,24.77,34.54,40.36,61.7,24.65,2.38-1.38,1.45-1.16,2.33-2L562.8,58H530.39l-2.51,16h13.55l-1.55,8.53c-7.76,3.12-21,2-26.59-8.15-3.56-6.39-6.87-20.65,8.16-33.8,12.21-10.67,33.37-12.61,45.59-7,0,0,1.56-8.89,2.72-17.27C546.28,8.17,528,15,515.82,22.54" fill="#3c3f8b"/><path d="M805.93,15.35,792.46,99.69h39.28c16.17,0,39.83-23.85,18.29-43.33,22.14-22.92.19-40.83-11.56-41-9.44-.16-32.74,0-32.74,0h.19m9.63,51h14.64c13.86,0,13.48,16.9-1.93,16.9h-15.4l2.67-16.9m5.39-33.12h11.37c12.32,0,9.78,15.79-1.93,15.79H818.25l2.67-15.79" fill="#3c3f8b"/></g></g></svg>