<svg id="Layer_1" data-name="Layer 1" xmlns="http://www.w3.org/2000/svg" viewBox="0 0 1000 114"><path d="M528.81,48.41C522.86,48.4,516.89,43,514,35a23.83,23.83,0,0,1-1.24-12.61c.87-4.38,3.33-7.61,6.73-8.85a9.34,9.34,0,0,1,3.16-.55c5.94,0,11.91,5.41,14.84,13.45C541,36,538.55,45.45,532,47.85a9.15,9.15,0,0,1-3.16.56Z" fill="#fff"/><path d="M522.61,16.44c4.28,0,9.14,4.52,11.56,11.15,2.79,7.67,1.27,15.27-3.4,17a5.7,5.7,0,0,1-2,.35c-4.29,0-9.14-4.52-11.56-11.16-2.8-7.67-1.28-15.27,3.4-17a5.65,5.65,0,0,1,2-.34m0-7a12.86,12.86,0,0,0-4.36.76c-4.58,1.67-7.84,5.84-9,11.46a27.48,27.48,0,0,0,1.39,14.49c3.44,9.42,10.73,15.76,18.14,15.76a12.63,12.63,0,0,0,4.36-.77C541.74,48,545,36.86,540.74,25.19,537.31,15.77,530,9.44,522.61,9.44Z" fill="#fff"/><path d="M569.53,85.52a3.61,3.61,0,0,1-.91-.12l-4.77-1.28c-21.63-5.79-35.92-9.62-55.6-22.43-8.37-5.46-14.23-12.31-17-19.84-1-2.73-3.63-10,.27-15.6a12.19,12.19,0,0,1,4.24-3.75,21.06,21.06,0,0,1,9.64-2,50.22,50.22,0,0,1,9.25,1l.52.09a3.5,3.5,0,0,1-.55,7,3.4,3.4,0,0,1-.45,0,21.53,21.53,0,0,0-2.68-.18c-2.74,0-4.12.67-4.49,1.29-.62,1,.12,3.94,3.19,7.86,3.58,4.57,9.24,9.28,15.93,13.27,8.27,4.93,17.09,8,23,8.09a3.53,3.53,0,0,1,2.48,1,3.49,3.49,0,0,1,1,2.5c0,1.52,1.08,4.93,8.72,10.66a61.92,61.92,0,0,0,9.73,5.8,3.5,3.5,0,0,1-1.57,6.63Z" fill="#fff"/><path d="M505.44,24a50.64,50.64,0,0,1,9.22,1,25,25,0,0,0-3.13-.21c-3.61,0-6.28,1-7.49,3-3.36,5.62,5.75,17.23,20.33,25.93,9.21,5.5,18.41,8.52,24.78,8.58-.07,4.72,4.86,9.56,10.12,13.51A66.94,66.94,0,0,0,569.53,82c-23.85-6.43-38.74-9.83-59.37-23.27-2.78-1.81-11.91-8-15.58-18.09-.84-2.3-3-8.3-.15-12.41a8.65,8.65,0,0,1,3-2.64,17.83,17.83,0,0,1,8-1.57m0-7a24.41,24.41,0,0,0-11.24,2.35,15.72,15.72,0,0,0-5.51,4.86c-4.94,7.08-1.74,15.9-.69,18.8,3,8.24,9.33,15.7,18.34,21.57,20.15,13.12,35.44,17.21,56.6,22.88l4.77,1.28a7.19,7.19,0,0,0,1.83.24,7,7,0,0,0,3.12-13.26,60,60,0,0,1-9.19-5.47c-7-5.23-7.32-7.79-7.32-7.82a7,7,0,0,0-6.93-7.09c-4.2,0-12-2.06-21.27-7.59-10.44-6.24-15.76-12.79-17.2-15.9l.78,0a18.42,18.42,0,0,1,2.24.15,6.77,6.77,0,0,0,.89.06,7,7,0,0,0,1.11-13.91l-.44-.08A53.25,53.25,0,0,0,505.44,17Z" fill="#fff"/><path d="M550.46,54.32a148.2,148.2,0,0,1-18.22-1.4,3.5,3.5,0,0,1,.44-7H533c10.23,0,13-1.54,13.63-2-.13-1.35-2.17-5-10.72-7.55l2-6.71c27.07,8,29.35,14,28.32,18.33C564.9,53.6,557.1,54.32,550.46,54.32Z" fill="#fff"/><path d="M536.92,33.06c15.06,4.44,26.93,9.83,25.89,14.18-.6,2.55-5.3,3.58-12.35,3.58a145.61,145.61,0,0,1-17.78-1.37H533c11.58,0,16.58-1.87,17.07-4.65.34-1.87-.74-8.08-13.17-11.74m2-6.71-2,6.71-2,6.72a24.4,24.4,0,0,1,5.56,2.29,61.12,61.12,0,0,1-7.48.38h-.34a7,7,0,0,0-.88,13.94,151.22,151.22,0,0,0,18.66,1.43c4.66,0,17,0,19.16-9,2-8.41-7.41-13.28-10.5-14.88-6.15-3.19-14.39-5.91-20.23-7.62Z" fill="#fff"/><path d="M758.78,101.06a3.47,3.47,0,0,1-2.13-.72,3.51,3.51,0,0,1-1.3-3.48L757,88.51h-76.8a3.49,3.49,0,0,1-3.41-2.71l-1-4.36h-1.1l-2.67,5.18a3.5,3.5,0,0,1-3.11,1.89H641.85a3.49,3.49,0,0,1-3.42-4.22l.58-2.76h-1.85l-.88,4.2a3.5,3.5,0,0,1-3.43,2.78h-33a11.47,11.47,0,0,1-11.32-13.36L593,47.68H577.8a3.5,3.5,0,0,1-2.44-6l12.8-12.45a3.52,3.52,0,0,1,2.44-1h4.64l-4.94-7.34a3.5,3.5,0,0,1,2.9-5.46H658a11.56,11.56,0,0,1,6.53,2,12.18,12.18,0,0,1,6.76-2h124A3.5,3.5,0,0,1,798,21.21l-10.6,12.3a3.48,3.48,0,0,1-2.65,1.22h-6.46l-2.13,12a3.6,3.6,0,0,1-.73,1.6h4a3.51,3.51,0,0,1,2.81,1.4L785.44,54l1.35-9.45a3.47,3.47,0,0,1,1.94-2.66l15.32-7.37a3.5,3.5,0,0,1,5,3.64l-1.4,10.13h48.76l6.82-30a3.51,3.51,0,0,1,3.42-2.72h25.42a3.49,3.49,0,0,1,3.21,4.89L875.73,65.4h1.41l17.41-13.08,21.28-29.13A3.44,3.44,0,0,1,917.4,22l16-6.18a3.6,3.6,0,0,1,1.26-.23H993A3.5,3.5,0,0,1,995,22L968.14,40.13a3.44,3.44,0,0,1-2,.61H950.81a14.67,14.67,0,0,1,2.31,2.07,13.59,13.59,0,0,1,3.52,7.38A14.53,14.53,0,0,1,954.1,60a17.35,17.35,0,0,1-4.06,4.4h1.16a3.5,3.5,0,0,1,3.18,5l-7.74,17.1a3.51,3.51,0,0,1-3.19,2.06H826.64a3.42,3.42,0,0,1-1.51-.35,13.33,13.33,0,0,1-3,.35H804.36a11.55,11.55,0,0,1-3.47-.54,3.55,3.55,0,0,1-1.87.54H785a3.51,3.51,0,0,1-2.77-1.37l-2-2.56-.95,5.12a3.49,3.49,0,0,1-1.89,2.49l-17.1,8.49A3.47,3.47,0,0,1,758.78,101.06Z" fill="#fff"/><path d="M795.3,18.93l-10.6,12.3h-9.4l-2.64,14.88-10.75,5.71h17.51l8.29,11.12,2.54-17.87,15.32-7.36L803.45,53h0a8.68,8.68,0,0,1,4.41-1.18h51.32l7.45-32.74h25.42l-21,48.28.86,1.54h6.39l18.76-14.09,21.59-29.56,16-6.17H993L966.18,37.24H945.1L938,40.7c5.68,0,9.89,1.53,12.5,4.45a10.17,10.17,0,0,1,2.66,5.5,11,11,0,0,1-2,7.47c-1.77,2.77-4,4.17-6.6,5.79A33,33,0,0,1,940.69,66c-2.27,1-5.94,2.86-11.12,5.52H940.1c1.62,0,2.81-1.57,3.38-2.32l.21-.26.8-1h6.71L943.45,85H826.64l.13-1.21A9.38,9.38,0,0,1,822.08,85H804.36a8,8,0,0,1-5.09-1.84h0L799,85H785l-6.75-8.75-2.39,12.79-17.11,8.5L761.33,85H680.24l-1.63-7.07h-6L668.94,85H641.85l1.47-7h-9l-1.47,7h-33A8,8,0,0,1,592,75.73l5.11-31.55H577.8l12.8-12.45h9.06l.43-2.57L593.2,18.93H658a8,8,0,0,1,6.17,2.89c.1.12.29.39.29.39a8.7,8.7,0,0,1,6.83-3.28h124m197.7.15h0M795.3,11.93h-124a15.67,15.67,0,0,0-6.73,1.5,15,15,0,0,0-6.56-1.5H593.2a7,7,0,0,0-5.81,10.91L588.82,25a6.91,6.91,0,0,0-3.1,1.75l-12.8,12.45a7,7,0,0,0,4.88,12h11.07l-3.8,23.43A15,15,0,0,0,599.85,92h33a7,7,0,0,0,4.5-1.63,7,7,0,0,0,4.5,1.63h27.09a7,7,0,0,0,5.65-2.86A7,7,0,0,0,680.24,92h72.52l-.84,4.16a7,7,0,0,0,10,7.66L779,95.33a6.94,6.94,0,0,0,3.44-3.81A7.1,7.1,0,0,0,785,92h14a6.74,6.74,0,0,0,2.16-.35,14.76,14.76,0,0,0,3.18.35h17.72a17.1,17.1,0,0,0,2.78-.23,7.06,7.06,0,0,0,1.78.23H943.45a7,7,0,0,0,6.38-4.12l7.74-17.1a7,7,0,0,0-.49-6.68,7.25,7.25,0,0,0-.84-1.06c.28-.37.54-.76.81-1.17a18,18,0,0,0,3.06-12.15,16.46,16.46,0,0,0-1.75-5.5h7.82A7,7,0,0,0,970.1,43L996.81,25A7,7,0,0,0,993,12.08H934.63a7,7,0,0,0-2.52.47l-16,6.17a7,7,0,0,0-3.13,2.4L892,49.84l-8.49,6.37,14.93-34.34a7,7,0,0,0-6.42-9.79H866.63a7,7,0,0,0-6.83,5.45l-6.2,27.29h-42l.85-6.15a7,7,0,0,0-10-7.27l-15.31,7.36a7,7,0,0,0-3.9,5.33l-.25,1.75a7,7,0,0,0-3.07-1l1.17-6.61h3.53A7,7,0,0,0,790,35.8l10.6-12.3a7,7,0,0,0-5.3-11.57Zm0,14Z" fill="#fff"/><ellipse cx="525.71" cy="30.67" rx="9" ry="14.79" transform="translate(21.27 181.85) rotate(-20.02)" fill="#40256c"/><path d="M549.15,62.38c-.07,4.72,4.86,9.56,10.12,13.51A66.94,66.94,0,0,0,569.53,82c-23.85-6.43-38.74-9.83-59.37-23.27-2.78-1.81-11.91-8-15.58-18.09-.84-2.3-3-8.3-.15-12.41a8.65,8.65,0,0,1,3-2.64c5.88-3,15.71-.78,17.25-.53-5.18-.66-9.09.21-10.62,2.79-3.36,5.62,5.75,17.23,20.33,25.93C533.58,59.3,542.78,62.32,549.15,62.38Z" fill="#c12a2b"/><path d="M536.92,33.06c12.43,3.66,13.51,9.87,13.17,11.74-.5,2.8-5.59,4.69-17.41,4.65,16.18,2.07,29.1,2.13,30.13-2.21S552,37.5,536.92,33.06Z" fill="#c12a2b"/><text transform="translate(926.36 57)" font-size="1.18" fill="#c12e3a" font-family="ArialMT, Arial" style="isolation:isolate">I hate bugs!</text><path d="M937.83,40.79l7.27-3.55h21.08L993,19.08H934.63l-16,6.17L897.07,54.81,878.31,68.9h-6.39l-.86-1.54,21-48.28H866.63l-7.45,32.74H807.86A8.73,8.73,0,0,0,803.44,53h0l2.12-15.29-15.32,7.36-2.54,17.87-8.29-11.12H761.91l10.75-5.71,2.64-14.88h9.4l10.6-12.3h-124a8.7,8.7,0,0,0-6.83,3.28s-.19-.27-.29-.39A8,8,0,0,0,658,18.93H593.2l6.89,10.23-.43,2.57H590.6L577.8,44.18h19.29L592,75.73A8,8,0,0,0,599.85,85h33l1.47-7h9l-1.47,7h27.09l3.65-7.07h6L680.24,85h81.09l-2.55,12.55,17.11-8.5,2.39-12.79L785,85h14l.25-1.84A8,8,0,0,0,804.36,85h17.72a9.38,9.38,0,0,0,4.69-1.21L826.64,85H943.45l7.75-17.11h-6.71l-.8,1-.21.26c-.57.75-1.76,2.32-3.38,2.32H929.57c5.18-2.66,8.85-4.48,11.12-5.52a33,33,0,0,0,3.86-2.08c2.59-1.62,4.83-3,6.6-5.79a11,11,0,0,0,2-7.47,10.17,10.17,0,0,0-2.66-5.5c-2.65-3-6.93-4.45-12.73-4.45" fill="#40256c"/><path d="M629.53,21.61H598.24l4.67,6.94-1,5.86H591.69L584.4,41.5h15.9l-2.36,13,10.78-5,1.13-8h17.23a4.3,4.3,0,0,0,4.24-3.6l2-11.86A3.8,3.8,0,0,0,629.53,21.61ZM626,30.1l-.31,2.13a2.64,2.64,0,0,1-2.62,2.28H610.69l1-5.91h13.06A1.32,1.32,0,0,1,626,30.1Z" fill="#fff"/><path d="M701.73,28.57H677.06a3.43,3.43,0,0,0-3.52,2.52l-1.65,8.31c-.32,1.62,1.16,3.09,3.1,3.09h9.51l3.71,7H667.79a5.3,5.3,0,0,1-5.22-6.17l2.76-16.63a6,6,0,0,1,6-5h36Z" fill="#fff"/><path d="M663.26,27.92A5.34,5.34,0,0,0,658,21.61H634.54a3.61,3.61,0,0,1,.58,1,4,4,0,0,1,.2,1.88c-.65,5.33-3,18.63-3,18.63a5.35,5.35,0,0,0,5.26,6.31H661a3.82,3.82,0,0,1-.77-2.9c.65-5.34,3-18.63,3-18.63Zm-7.48,3.36-1.54,9.26A2.32,2.32,0,0,1,652,42.47H642a2.31,2.31,0,0,1-2.28-2.69l1.54-9.26a2.31,2.31,0,0,1,2.28-1.93h9.91a2.32,2.32,0,0,1,2.29,2.69Z" fill="#fff"/><path d="M635.15,61.46h-26A3.43,3.43,0,0,0,605.6,64L604,72.29c-.31,1.62,1.16,3.09,3.1,3.09h9.51l3.71,7H599.85a5.3,5.3,0,0,1-5.22-6.17l2.77-16.63a6,6,0,0,1,6-5h37.37Z" fill="#fff"/><path d="M699.17,49.45h-9.08L692.3,31h9.09Z" fill="#fff"/><path d="M702.31,35.53l9,13.92h11.67l-9-13.92,11.86-13.92H714.18Z" fill="#fff"/><path d="M733.92,42.43h17.72l3.89,7H724.71l3-27.84h27.23l-4.31,6.92H735.42l-.4,3.71h14.21l-3.2,6H734.37Z" fill="#fff"/><path d="M746.87,75.32h12.6l3.89,7h-25.7l3-27.85h27.23l-4.31,6.92H748.37l-.4,3.72h14.21l-3.2,6H747.32Z" fill="#fff"/><path d="M838.83,75.32h16.81l3.89,7H829.62l3-27.85h31.43l-4.31,6.92H840.34l-.41,3.72h14.21l-3.2,6H839.29Z" fill="#fff"/><path d="M752.45,28.55l4.21-6.94h32.79l-6,6.94H773.06l-2.81,15.8-9.6,5.1,3.77-20.9Z" fill="#fff"/><path d="M633.83,67.32l.76-3.62h-8.93l-3.92,18.64h8.94l1.46-7h14.48l-1.47,7h8.94l5.85-27.85H651l-2.69,12.83Z" fill="#fff"/><path d="M685.47,54.49H672.92L656.6,82.34h10.71L671,75.26h9.78l1.63,7.08h10.71ZM673.78,69.78l3.94-7.63,1.76,7.63Z" fill="#fff"/><path d="M703.86,75.22l7.46.08,2.76,7h-19.3l4.43-27.85h7.95Z" fill="#fff"/><path d="M725.28,75.22l7.46.08,2.75,7h-19.3l4.44-27.85h8Z" fill="#fff"/><path d="M770.25,54.49,762.5,92.72l11-5.46,3.25-17.36,9.6,12.44h10.34l5.54-40.05-9.53,4.57-3.25,22.9L778.08,54.49Z" fill="#fff"/><path d="M821.07,71.53a3.85,3.85,0,0,1-3.85,3.85h-5.66c-1.94,0-3.42-1.47-3.1-3.09L810.1,64a3.45,3.45,0,0,1,3.53-2.52H838.3l5.58-7h-36a6,6,0,0,0-6,5l-2.76,16.63a5.3,5.3,0,0,0,5.22,6.17h17.72c4.36,0,6.85-3.52,7.15-7.89l.74-10H818.74l-4.18,5.37h6.51v1.67Z" fill="#fff"/><path d="M907.53,59.05h17.14a4,4,0,0,1-1.11-3.47,4.1,4.1,0,0,1,2.1-2.44,6.55,6.55,0,0,1,2.25-.74,14.57,14.57,0,0,1,4.69-.13c2,.25,2.48.67,2.66.84a2.92,2.92,0,0,1,.93,1.84c0,.3,0,1.47-1.76,3-4.92,4.21-24.23,11.67-26.63,12.6A50.91,50.91,0,0,0,902,73.45c-3.26,1.85-4.25,2.83-4.91,3.69a11.72,11.72,0,0,0-2.07,5.2h46.75L947,70.59h-1.25c-.6.76-2.49,3.6-5.69,3.6H918.61c11.32-5.94,17.72-9.15,21-10.64a29.21,29.21,0,0,0,3.55-1.92c2.43-1.51,4.32-2.7,5.76-4.94A8.48,8.48,0,0,0,950.51,51a7.52,7.52,0,0,0-2-4.06c-5.81-6.47-21.14-2.24-22.75-1.77a31.28,31.28,0,0,0-7.16,2.8c-5.35,3-9.43,8.66-11.08,11.08Z" fill="#fff"/><path d="M903,61.86h10.56L910,66.36c-3.68,1.19-16.51,5.73-17.83,14.48a10.38,10.38,0,0,0-.11,1.5h-28l-6.62-10.76,11.32-49.82H888L868.07,67.51l2.27,4.07h8.86L899,56.71l21.37-29.24,14.77-5.71h49.13l-18.9,12.8H944.48L930.8,41.25c-3,.23-14.87,1.45-22.68,11.08A34,34,0,0,0,903,61.86Z" fill="#fff"/></svg>