<svg xmlns="http://www.w3.org/2000/svg" viewBox="0 0 1000 114"><g id="Layer_2" data-name="Layer 2"><rect x="503.91" y="35.68" width="37.89" height="41.05" fill="#fff" stroke="#fff" stroke-linecap="round" stroke-linejoin="round" stroke-width="7"/><rect x="649.48" y="56.2" width="31.97" height="23.85" fill="#fff" stroke="#fff" stroke-linecap="round" stroke-linejoin="round" stroke-width="7"/><rect x="790.74" y="32.31" width="59.48" height="47.74" fill="#fff" stroke="#fff" stroke-linecap="round" stroke-linejoin="round" stroke-width="7"/></g><g id="Layer_1" data-name="Layer 1"><path d="M983.19,92.75a3.48,3.48,0,0,1-2.73-1.31L952.93,57.05v32.2a3.5,3.5,0,0,1-3.5,3.5H936.35a3.5,3.5,0,0,1-3.5-3.5V24.75a3.5,3.5,0,0,1,3.5-3.5h9.81a3.5,3.5,0,0,1,2.76,1.34l27.51,35.24V24.75a3.5,3.5,0,0,1,3.5-3.5H993a3.5,3.5,0,0,1,3.5,3.5v64.5a3.5,3.5,0,0,1-3.5,3.5Z" fill="#fff"/><path d="M993,24.75v64.5h-9.81L949.43,47.07V89.25H936.35V24.75h9.81L979.93,68V24.75H993m0-7H979.93a7,7,0,0,0-7,7V47.66L951.68,20.44a7,7,0,0,0-5.52-2.69h-9.81a7,7,0,0,0-7,7v64.5a7,7,0,0,0,7,7h13.08a7,7,0,0,0,7-7V67l21.29,26.61a7,7,0,0,0,5.47,2.62H993a7,7,0,0,0,7-7V24.75a7,7,0,0,0-7-7Z" fill="#fff"/><path d="M876.15,92.47a3.51,3.51,0,0,1-3.1-5.13l23.44-44.81a3.5,3.5,0,0,1,6.2,0l23.44,44.81a3.5,3.5,0,0,1-3.1,5.13Z" fill="#fff"/><path d="M899.59,44.15,923,89H876.15l23.44-44.82m0-7h0a7,7,0,0,0-6.2,3.76L870,85.72A7,7,0,0,0,876.15,96H923a7,7,0,0,0,6.2-10.25L905.79,40.91a7,7,0,0,0-6.2-3.76Z" fill="#fff"/><path d="M874.42,85.35a3.47,3.47,0,0,1-2.79-1.4,40.49,40.49,0,0,1-8-24.22c0-21.22,16-38.48,35.64-38.48a34.15,34.15,0,0,1,25.3,11.37A39.89,39.89,0,0,1,935,59.73a40.07,40.07,0,0,1-7.59,23.75,3.49,3.49,0,0,1-2.83,1.44h-.25A3.51,3.51,0,0,1,921.43,83l-8.27-15.82a3.52,3.52,0,0,1-.25-2.66,19.8,19.8,0,0,0,.88-5.93c0-9.52-6.49-17.27-14.47-17.27s-14.48,7.75-14.48,17.27a20,20,0,0,0,1.06,6.48,3.54,3.54,0,0,1-.21,2.76l-8.16,15.6a3.5,3.5,0,0,1-2.82,1.87Z" fill="#fff"/><path d="M899.32,24.75c17.74,0,32.13,15.66,32.13,35a36.85,36.85,0,0,1-6.92,21.69L916.26,65.6a23.74,23.74,0,0,0,1-7c0-11.47-8-20.77-18-20.77s-18,9.3-18,20.77a23.4,23.4,0,0,0,1.25,7.61l-8.17,15.61a36.83,36.83,0,0,1-7.24-22.13h0c0-19.31,14.39-35,32.14-35m0-7c-21.58,0-39.14,18.83-39.14,42a44,44,0,0,0,8.65,26.33,7,7,0,0,0,5.59,2.8l.57,0a7,7,0,0,0,5.64-3.74l8.16-15.6a7,7,0,0,0,.42-5.51,16.71,16.71,0,0,1-.87-5.35c0-7.59,4.93-13.77,11-13.77s11,6.18,11,13.77a16.55,16.55,0,0,1-.72,4.9,7,7,0,0,0,.48,5.31l8.28,15.82A7,7,0,0,0,924,88.4l.51,0a7,7,0,0,0,5.67-2.89,43.55,43.55,0,0,0,8.25-25.8,43.33,43.33,0,0,0-11.26-29.47,37.57,37.57,0,0,0-27.87-12.51Z" fill="#fff"/><rect x="844.62" y="21.25" width="20.07" height="71.49" rx="3.5" fill="#fff"/><path d="M861.19,24.75V89.24H848.12V24.75h13.07m0-7H848.12a7,7,0,0,0-7,7V89.24a7,7,0,0,0,7,7h13.07a7,7,0,0,0,7-7V24.75a7,7,0,0,0-7-7Z" fill="#fff"/><path d="M514.61,92.74c-9.31,0-18.44-4.83-24.42-12.92a3.49,3.49,0,0,1,.31-4.53l7.63-7.76a3.46,3.46,0,0,1,2.49-1H501a3.52,3.52,0,0,1,2.59,1.58c3,4.58,7.52,6.63,10.69,6.63,3.66,0,4.09-2.42,4.09-4.24,0-2.38-2.79-3.76-8.72-6.13-7.79-3.13-18.45-7.4-18.45-20.87,0-13.19,8.35-21.48,22.35-22.19l1.06,0a28.86,28.86,0,0,1,18.82,7.64,3.5,3.5,0,0,1,.32,4.78l-6.42,7.85a3.51,3.51,0,0,1-2.44,1.28h-.27a3.51,3.51,0,0,1-2.34-.9c-3.1-2.78-5.67-3.36-7.29-3.36-2.34,0-3.82,1.23-4,2.39-.29,1.62,1.69,3.49,5.05,4.75,9,3.39,21.34,8,21.34,23.74,0,7.1-2.38,13.1-6.88,17.34a22.87,22.87,0,0,1-15.83,6Z" fill="#fff"/><path d="M514.58,24.75A25.54,25.54,0,0,1,531,31.45l-6.42,7.86c-3.41-3.06-6.78-4.26-9.63-4.26-8,0-11.85,9.54-.22,13.91,10.72,4,19.08,8.1,19.08,20.47,0,13-9,19.81-19.21,19.81-7.6,0-15.88-3.76-21.61-11.5L500.62,70c3.49,5.34,9.07,8.22,13.63,8.22,4.23,0,7.59-2.47,7.59-7.74,0-11.54-27.17-7.38-27.17-27,0-11.91,7.58-18.11,19-18.69.29,0,.58,0,.88,0m0-7h0q-.62,0-1.23,0c-15.84.79-25.68,10.64-25.68,25.68,0,10.27,5.43,16.06,11.36,19.7a7.05,7.05,0,0,0-3.4,1.91L488,72.83a7,7,0,0,0-.64,9.07c6.65,9,16.83,14.34,27.24,14.34a26.32,26.32,0,0,0,18.23-6.93c5.22-4.91,8-11.79,8-19.88,0-12.94-7.23-19.37-14.79-23.27a7,7,0,0,0,4-2.42l6.42-7.86a7,7,0,0,0-.65-9.55,32.43,32.43,0,0,0-21.2-8.58Zm-.33,53.45c-2,0-4.93-1.4-7.07-4.08l1.14.45c2.23.9,5.53,2.22,6.51,3.15a3,3,0,0,1-.05.43,2.3,2.3,0,0,1-.53,0Z" fill="#fff"/><rect x="778.17" y="21.25" width="20.07" height="71.49" rx="3.5" fill="#fff"/><path d="M794.74,24.75V89.24H781.67V24.75h13.07m0-7H781.67a7,7,0,0,0-7,7V89.24a7,7,0,0,0,7,7h13.07a7,7,0,0,0,7-7V24.75a7,7,0,0,0-7-7Z" fill="#fff"/><path d="M746.81,92.74a3.5,3.5,0,0,1-3.26-2.23L718.5,26a3.49,3.49,0,0,1,3.26-4.76h14.16a3.49,3.49,0,0,1,3.3,2.33l11.4,32.15L762,23.58a3.5,3.5,0,0,1,3.3-2.33h14.16A3.49,3.49,0,0,1,782.75,26l-25,64.5a3.5,3.5,0,0,1-3.26,2.23Z" fill="#fff"/><path d="M779.49,24.75h0m0,0-25,64.49h-7.63l-25-64.49h14.16l14.7,41.45,14.71-41.45h14.16m0-7H765.33a7,7,0,0,0-6.6,4.66l-8.1,22.85-8.11-22.85a7,7,0,0,0-6.6-4.66H721.76a7,7,0,0,0-6.52,9.53l25,64.49a7,7,0,0,0,6.52,4.47h7.63A7,7,0,0,0,761,91.77l25-64.28a7,7,0,0,0-6.43-9.74Zm0,14h0Z" fill="#fff"/><path d="M709.78,92.74a3.5,3.5,0,0,1-3-1.74L698,76V89.24a3.5,3.5,0,0,1-3.5,3.5H681.45a3.5,3.5,0,0,1-3.5-3.5V24.75a3.5,3.5,0,0,1,3.5-3.5h21.32c9.41,0,19,7.77,21,17a38.75,38.75,0,0,1,.85,6.76,39,39,0,0,1-.82,6.77,21.91,21.91,0,0,1-10,14L729,87.22a3.5,3.5,0,0,1-2.86,5.52Zm-10.9-42a6.32,6.32,0,0,0,6.3-6.34c0-3.87-3.39-5.24-6.3-5.24H698V50.76Z" fill="#fff"/><path d="M702.77,24.75c7.68,0,16,6.63,17.6,14.2a33.26,33.26,0,0,1,.78,6,37.24,37.24,0,0,1-.75,6.09,18.55,18.55,0,0,1-11.87,13.33l17.59,24.85H709.78l-14-24h-1.25v24H681.45V24.75h21.32m-8.25,29.51h4.36a9.82,9.82,0,0,0,9.8-9.84c0-5.43-4.38-8.74-9.8-8.74h-4.36V54.26m8.25-36.51H681.45a7,7,0,0,0-7,7V89.24a7,7,0,0,0,7,7h13.07a7,7,0,0,0,7-7V89l2.21,3.78a7,7,0,0,0,6,3.48h16.34a7,7,0,0,0,5.71-11L718.64,66.56a25.14,25.14,0,0,0,8.62-14.14,41.77,41.77,0,0,0,.89-7.45,40.5,40.5,0,0,0-.94-7.51c-2.3-10.68-13.5-19.71-24.44-19.71Zm-1.25,27.62V43.71a1.43,1.43,0,0,1,.16.71,2.71,2.71,0,0,1-.16.95Z" fill="#fff"/><path d="M640.06,92.74a3.5,3.5,0,0,1-3.5-3.5V24.75a3.49,3.49,0,0,1,3.5-3.5h32.68a3.5,3.5,0,0,1,3.5,3.5V35.68a3.5,3.5,0,0,1-3.5,3.5H656.63v7.21h16.11a3.5,3.5,0,0,1,3.5,3.5V60.82a3.5,3.5,0,0,1-3.5,3.5H656.63V74.81h17.2a3.5,3.5,0,0,1,3.5,3.5V89.24a3.5,3.5,0,0,1-3.5,3.5Z" fill="#fff"/><path d="M672.74,24.75V35.68H653.13V49.89h19.61V60.82H653.13V78.31h20.7V89.24H640.06V24.75h32.68m0-7H640.06a7,7,0,0,0-7,7V89.24a7,7,0,0,0,7,7h33.77a7,7,0,0,0,7-7V78.31a7,7,0,0,0-7-7h-13.7V67.82h12.61a7,7,0,0,0,7-7V49.89a7,7,0,0,0-7-7H660.13v-.21h12.61a7,7,0,0,0,7-7V24.75a7,7,0,0,0-7-7Z" fill="#fff"/><path d="M595.4,92.74a3.5,3.5,0,0,1-3.5-3.5V24.75a3.49,3.49,0,0,1,3.5-3.5h21.31c9.42,0,19,7.77,21,17A37.28,37.28,0,0,1,638.6,45a39.84,39.84,0,0,1-.83,6.78c-1.84,9.33-10.8,16.94-20,16.94H612V89.24a3.5,3.5,0,0,1-3.5,3.5Zm17.42-42a6.33,6.33,0,0,0,6.31-6.34c0-3.87-3.4-5.24-6.31-5.24H612V50.76Z" fill="#fff"/><path d="M616.71,24.75c7.69,0,16,6.63,17.61,14.2a34.19,34.19,0,0,1,.78,6,37,37,0,0,1-.76,6.09c-1.49,7.54-8.88,14.13-16.54,14.13h-9.33v24H595.4V24.75h21.31m-8.24,29.51h4.35a9.83,9.83,0,0,0,9.81-9.84c0-5.43-4.39-8.74-9.81-8.74h-4.35V54.26m8.24-36.51H595.4a7,7,0,0,0-7,7V89.24a7,7,0,0,0,7,7h13.07a7,7,0,0,0,7-7v-17h2.33c10.76,0,21.26-8.87,23.41-19.78A42,42,0,0,0,642.1,45a40.5,40.5,0,0,0-.94-7.51c-2.3-10.68-13.5-19.71-24.45-19.71Zm-1.24,27.62V43.71a1.55,1.55,0,0,1,.16.71,3,3,0,0,1-.16.95Z" fill="#fff"/><path d="M822.74,92.74c-9.31,0-18.44-4.83-24.42-12.92a3.48,3.48,0,0,1,.31-4.53l7.62-7.76a3.5,3.5,0,0,1,2.5-1h.35a3.52,3.52,0,0,1,2.58,1.58c3,4.58,7.53,6.63,10.7,6.63,3.66,0,4.09-2.42,4.09-4.24,0-2.38-2.8-3.76-8.72-6.13-7.79-3.13-18.46-7.4-18.46-20.87,0-13.19,8.36-21.48,22.36-22.19.35,0,.7,0,1.06,0a28.83,28.83,0,0,1,18.82,7.64,3.49,3.49,0,0,1,.32,4.77l-6.42,7.86A3.55,3.55,0,0,1,833,42.8h-.27a3.49,3.49,0,0,1-2.34-.9c-3.1-2.78-5.68-3.37-7.29-3.37-2.34,0-3.82,1.24-4,2.4-.3,1.62,1.68,3.49,5,4.75,9,3.39,21.35,8,21.35,23.74,0,7.1-2.38,13.1-6.88,17.34a22.87,22.87,0,0,1-15.83,6Z" fill="#fff"/><path d="M822.71,24.75a25.59,25.59,0,0,1,16.43,6.7l-6.42,7.86c-3.41-3.06-6.79-4.27-9.63-4.27-8,0-11.85,9.55-.22,13.92C833.59,53,842,57.06,842,69.43c0,13-9,19.81-19.21,19.81-7.61,0-15.88-3.76-21.61-11.5L808.75,70c3.49,5.34,9.07,8.22,13.63,8.22,4.23,0,7.59-2.47,7.59-7.74,0-11.54-27.18-7.38-27.18-27,0-11.91,7.59-18.12,19-18.69.29,0,.58,0,.88,0m0-7h0q-.62,0-1.23,0c-15.84.79-25.69,10.64-25.69,25.68,0,10.27,5.44,16.06,11.37,19.7a7.05,7.05,0,0,0-3.4,1.91l-7.63,7.76a7,7,0,0,0-.63,9.07c6.65,9,16.83,14.34,27.24,14.34A26.34,26.34,0,0,0,841,89.31c5.22-4.91,8-11.79,8-19.88,0-12.94-7.23-19.37-14.79-23.27a7.07,7.07,0,0,0,4-2.42l6.42-7.86a7,7,0,0,0-.65-9.56,32.47,32.47,0,0,0-21.2-8.57Zm-.33,53.45c-2,0-4.93-1.4-7.07-4.08l1.14.45c2.22.9,5.52,2.22,6.51,3.15a3,3,0,0,1-.05.43,2.3,2.3,0,0,1-.53,0Z" fill="#fff"/><path d="M563.05,92.74a27.83,27.83,0,0,1-27.8-27.8V24.75a3.5,3.5,0,0,1,3.5-3.5h13.07a3.49,3.49,0,0,1,3.5,3.5V66.44a7.72,7.72,0,0,0,15.44,0V24.75a3.5,3.5,0,0,1,3.5-3.5h13.09a3.5,3.5,0,0,1,3.5,3.5V64.94A27.83,27.83,0,0,1,563.05,92.74Z" fill="#fff"/><path d="M587.35,24.75V64.94a24.3,24.3,0,0,1-48.6,0V24.75h13.07V66.44a11.22,11.22,0,0,0,22.44,0V24.75h13.09m0-7H574.26a7,7,0,0,0-7,7V66.44a4.22,4.22,0,0,1-8.44,0V24.75a7,7,0,0,0-7-7H538.75a7,7,0,0,0-7,7V64.94a31.3,31.3,0,0,0,62.6,0V24.75a7,7,0,0,0-7-7Z" fill="#fff"/><path d="M936.35,89.25h13.08V47.07l33.76,42.18H993V24.75H979.93V68L946.16,24.75h-9.81Z" fill="#010101"/><text transform="translate(890.97 83.37)" font-size="1.86" fill="#ed1c24" font-family="ArialMT, Arial" style="isolation:isolate">I don’t like bugs!</text><path d="M899.59,44.15,923,89H876.15Z" fill="#ed2224"/><path d="M867.18,59.73a36.82,36.82,0,0,0,7.24,22.12l8.17-15.61a23.4,23.4,0,0,1-1.25-7.61c0-11.47,8-20.77,18-20.77s18,9.3,18,20.77a23.74,23.74,0,0,1-1,7l8.27,15.82a36.85,36.85,0,0,0,6.92-21.69c0-19.32-14.39-35-32.13-35s-32.14,15.66-32.14,35Z" fill="#010101"/><path d="M848.12,24.75h13.07V89.24H848.12Z" fill="#010101"/><path d="M500.62,70,493,77.74c13.43,18.13,40.82,14.42,40.82-8.31,0-12.37-8.36-16.44-19.08-20.47C499,43,511.58,27.62,524.59,39.31L531,31.45c-4.36-4.06-11.19-7-17.31-6.68-11.45.57-19,6.78-19,18.69,0,19.62,27.17,15.46,27.17,27C521.84,81.4,507.34,80.28,500.62,70Z" fill="#010101"/><path d="M781.67,24.75h13.07V89.24H781.67Z" fill="#010101"/><path d="M779.49,24.75H765.33L750.62,66.2l-14.7-41.45H721.76l25,64.49h7.63Z" fill="#010101"/><path d="M708.53,64.39A18.55,18.55,0,0,0,720.4,51.06a37.24,37.24,0,0,0,.75-6.09,33.26,33.26,0,0,0-.78-6c-1.63-7.57-9.92-14.2-17.6-14.2H681.45V89.24h13.07v-24h1.25l14,24h16.34Zm-9.65-10.13h-4.36V35.68h4.36c5.42,0,9.8,3.31,9.8,8.74A9.82,9.82,0,0,1,698.88,54.26Z" fill="#010101"/><path d="M640.06,24.75V89.24h33.77V78.31h-20.7V60.82h19.61V49.89H653.13V35.68h19.61V24.75Z" fill="#010101"/><path d="M595.4,24.75V89.24h13.07v-24h9.33c7.66,0,15.05-6.59,16.54-14.13A37,37,0,0,0,635.1,45a34.19,34.19,0,0,0-.78-6c-1.63-7.57-9.92-14.2-17.61-14.2Zm13.07,29.51V35.68h4.35c5.42,0,9.81,3.31,9.81,8.74a9.83,9.83,0,0,1-9.81,9.84Z" fill="#010101"/><path d="M808.75,70l-7.62,7.76C814.55,95.87,842,92.16,842,69.43,842,57.06,833.59,53,822.87,49c-15.76-5.92-3.16-21.34,9.85-9.65l6.42-7.86c-4.37-4.07-11.19-7-17.31-6.68-11.45.57-19,6.78-19,18.69,0,19.62,27.18,15.46,27.18,27C830,81.4,815.47,80.28,808.75,70Z" fill="#010101"/><path d="M574.26,24.75V66.44a11.22,11.22,0,0,1-22.44,0V24.75H538.75V64.94a24.3,24.3,0,0,0,48.6,0V24.75Z" fill="#010101"/></g></svg>