<svg id="Capa_1" data-name="Capa 1" xmlns="http://www.w3.org/2000/svg" viewBox="0 0 1000 114.00024"><title>logo</title><g id="Layer_2" data-name="Layer 2"><rect x="619.82902" y="27.66052" width="26.8095" height="75.50135" stroke-width="7" stroke="#fff" stroke-linecap="round" stroke-linejoin="round" fill="#fff"/><rect x="634.90945" y="12.72282" width="23.15218" height="82.9377" stroke-width="7" stroke="#fff" stroke-linecap="round" stroke-linejoin="round" fill="#fff"/><rect x="551.7283" y="21.62476" width="23.33333" height="30.53052" stroke-width="7" stroke="#fff" stroke-linecap="round" stroke-linejoin="round" fill="#fff"/><rect x="487.7283" y="48.92369" width="14" height="16.07016" stroke-width="7" stroke="#fff" stroke-linecap="round" stroke-linejoin="round" fill="#fff"/><rect x="370.39496" y="52.15445" width="14.52314" height="11.18702" stroke-width="7" stroke="#fff" stroke-linecap="round" stroke-linejoin="round" fill="#fff"/><rect x="620.84878" y="83.66052" width="21.21285" height="16.66667" stroke-width="7" stroke="#fff" stroke-linecap="round" stroke-linejoin="round" fill="#fff"/><rect x="575.7283" y="42.66052" width="36.1803" height="54.89108" fill="#fff"/></g><path d="M627.90322,11.86249a.684.684,0,0,1,.77454.77453,1.01138,1.01138,0,0,1-.2464.65131.71955.71955,0,0,1-.5545.29486h-1.866v-1.7207h1.89233m0-7h-1.89233a7,7,0,0,0-7,7v1.7207a7,7,0,0,0,7,7h1.866a7.73043,7.73043,0,0,0,5.90222-2.778l.05939-.07123a8.05211,8.05211,0,0,0,1.83929-5.09693,7.69183,7.69183,0,0,0-7.77454-7.77453Z" fill="#fff"/><path d="M649.28024,10.437A11.36557,11.36557,0,0,1,660.80471,21.8894c0,6.02271-5.16986,10.92316-11.52447,10.92316-6.42059,0-11.64484-4.90045-11.64484-10.92316A11.29589,11.29589,0,0,1,649.28024,10.437m0-7A18.352,18.352,0,0,0,630.6354,21.8894c0,9.88288,8.364,17.92316,18.64484,17.92316,10.21441,0,18.52447-8.04028,18.52447-17.92316A18.29188,18.29188,0,0,0,649.28024,3.437Z" fill="#fff"/><path d="M649.28024,40.96741a11.36561,11.36561,0,0,1,11.52447,11.45245c0,6.02277-5.16986,10.92163-11.52447,10.92163-6.42059,0-11.64484-4.89886-11.64484-10.92163a11.29734,11.29734,0,0,1,11.64484-11.45245m0-7A18.352,18.352,0,0,0,630.6354,52.41986c0,9.882,8.364,17.92163,18.64484,17.92163,10.21441,0,18.52447-8.03961,18.52447-17.92163a18.29187,18.29187,0,0,0-18.52447-18.45245Z" fill="#fff"/><path d="M491.11441,30.3457c3.623,12.37946,7.31768,24.7428,10.95385,37.12384q-5.50562,0-11.00857.00122-5.45459,0-10.91074-.006c3.63281-12.3811,7.316-24.74438,10.96546-37.119m-.00007-7a6.99966,6.99966,0,0,0-6.71405,5.02q-2.19012,7.42631-4.39108,14.84912Q476.71163,54.351,473.43212,65.4939a7,7,0,0,0,6.70755,8.97082q5.46072.00723,10.92.006l5.50467-.00061,5.5039-.00061A7,7,0,0,0,508.7846,65.497q-2.48186-8.45051-4.9877-16.89319-2.993-10.11044-5.96429-20.22424a7,7,0,0,0-6.71094-5.03388Z" fill="#fff"/><path d="M373.9205,30.389q5.50872,18.53165,10.99762,37.06256-6.12309,0-12.24668.00677-4.88012,0-9.76175-.01971c3.68152-12.34637,7.30866-24.70972,11.01081-37.04962m-.00009-7a6.99974,6.99974,0,0,0-6.70469,4.98846c-2.14987,7.166-4.30831,14.45392-6.39566,21.50189q-2.30447,7.781-4.6185,15.559a7,7,0,0,0,6.675,9.00018q4.89816.02316,9.79483.01977,3.06506,0,6.12961-.00341,3.05859-.00248,6.1171-.00336a7,7,0,0,0,6.71-8.99414q-2.68625-9.03882-5.36389-18.07727-2.81448-9.49274-5.63388-18.98572a7,7,0,0,0-6.701-5.00543Z" fill="#fff"/><path d="M627.19473,9.34082a4.99048,4.99048,0,1,1-4.99048,4.99048,4.99213,4.99213,0,0,1,4.99048-4.99048m-2.53485,7.96539h1.351V14.70978h1.60632a.72669.72669,0,0,1,.66449.27282,1.07355,1.07355,0,0,1,.11884.57654v.99018a2.16187,2.16187,0,0,0,.18042.75689h1.45666v-.25079a.567.567,0,0,1-.242-.4621l-.07044-1.60186c-.01318-.3125-.25524-.59852-.72174-.84937a1.70762,1.70762,0,0,0,.96381-1.58429,1.80412,1.80412,0,0,0-.55011-1.40826,1.51194,1.51194,0,0,0-1.06061-.4137h-3.69665v6.57037m2.53485-14.96539A11.99048,11.99048,0,1,0,639.18521,14.3313,12.00406,12.00406,0,0,0,627.19473,2.34082Z" fill="#fff"/><path d="M351.43191,109.59851q-3.18237-.01026-6.36377-.0083l-9.208.00049a3.5,3.5,0,0,1-3.353-4.49266q12.60864-42.62625,25.26757-85.24123c.01221-.0415.02539-.08252.03955-.12353.228-.6753.42774-1.40137.63917-2.16993C359.1365,15.079,359.90994,12.267,362.033,9.87a15.45051,15.45051,0,0,1,11.97315-5.46875,14.88933,14.88933,0,0,1,9.7085,3.45654,15.99526,15.99526,0,0,1,5.10693,7.90088q5.76855,19.42162,11.56055,38.86621,7.51024,25.23267,15.00439,50.4707a3.5,3.5,0,0,1-3.35254,4.49512l-10.105-.00195c-1.85107,0-5.55957.00683-5.563.00683a3.50025,3.50025,0,0,1-3.35254-2.49463q-2.52391-8.41771-4.99365-16.84765l-1.57031-5.32276c-3.4624-.00488-16.67236-.00537-16.67236-.00537l-8.39209.00049c-2.01172,6.7041-4.12647,13.82226-6.58448,22.1626a3.50055,3.50055,0,0,1-3.35742,2.51025Zm21.188-45.64014,7.6084-.00439c-1.36426-4.59522-5.57324-18.792-6.31592-21.29492-1.01856,3.42871-5.22315,17.62646-6.31348,21.29492Q370.10965,63.95911,372.6199,63.95837Z" fill="#1b6db7"/><path d="M374.00622,7.90125a11.391,11.391,0,0,1,7.43234,2.6156,12.66927,12.66927,0,0,1,4.02375,6.22442q13.27085,44.68031,26.56884,89.34937-1.20977.0011-2.41943.001-3.84257,0-7.68564-.00286-2.78008,0-5.56015.00665c-2.46289-8.2132-4.86725-16.44006-7.29877-24.66052q-6.4682-.01292-12.933-.01075-6.38035,0-12.76041.00208-2.29485,0-4.59159-.001-3.70791,12.32455-7.33918,24.6734-3.22481-.01053-6.44963-.00879-3.24914,0-6.498.00177-1.31564,0-2.63187-.00109,12.60789-42.62412,25.26612-85.23627c1.00426-2.969,1.38359-6.29059,3.57353-8.719a11.92508,11.92508,0,0,1,9.30313-4.23406m-1.33487,59.55712q6.12333,0,12.24677-.00677Q379.41068,48.91987,373.9205,30.389c-3.70215,12.3399-7.32929,24.70325-11.01079,37.04962q4.88226.02307,9.76164.01971M374.00619.90131a18.98352,18.98352,0,0,0-14.642,6.704c-2.62387,2.98956-3.54346,6.33282-4.28492,9.02838-.1977.71875-.38447,1.39764-.58064,1.97766q-.0417.12331-.07876.248c-7.26909,24.44891-15.06231,50.73962-25.26892,85.24572a7,7,0,0,0,6.70594,8.98548l2.63845.00109,3.25206-.00091,3.246-.00086q3.21348,0,6.42673.00873l.02311.00006a6.9998,6.9998,0,0,0,6.71411-5.02075c2.16137-7.33209,4.05165-13.70154,5.83248-19.65179l5.76616-.00092,6.3782-.001q3.84942,0,7.69867.00318.413,1.40085.82574,2.80188c1.6298,5.53088,3.31507,11.25012,5.00235,16.87683a7.00016,7.00016,0,0,0,6.70481,4.98938l.01965-.00006q2.76979-.0076,5.54071-.00659l3.83911.0014,3.8465.00146,2.42584-.001a7,7,0,0,0,6.70471-8.9903Q411.23771,78.796,403.69992,53.50281,397.93256,34.127,392.17254,14.74823a19.5151,19.5151,0,0,0-6.23248-9.59229A18.39667,18.39667,0,0,0,374.00619.90131Zm-1.71893,59.557q.8133-2.74282,1.62555-5.486.813,2.74209,1.62674,5.48511-1.43409.00082-2.8682.00091Z" fill="#fff"/><path d="M453.11306,109.60925a3.49889,3.49889,0,0,1-3.35742-4.4873c6.43457-21.8877,13.03613-44.12354,19.41992-65.62793l5.95117-20.05029c.01465-.04834.0293-.09569.0459-.14307.21875-.63525.40821-1.32275.6084-2.05127a18.27176,18.27176,0,0,1,2.82031-6.53223A15.59221,15.59221,0,0,1,491.18045,4.3905a14.96713,14.96713,0,0,1,3.67285.45362,15.51832,15.51832,0,0,1,11.15429,11.01953q6.605,22.24072,13.25782,44.59179,6.64012,22.31618,13.27148,44.63526a3.501,3.501,0,0,1-3.3291,4.49609q-2.91651.022-5.83008.01856l-6.28418-.0044c-1.19336,0-3.59082.00586-3.59472.00586a3.50057,3.50057,0,0,1-3.35645-2.50732q-1.41357-4.77759-2.81836-9.55811-1.856-6.30176-3.7207-12.60254L487.55447,84.934q-4.47657,0-8.95606.00732-1.43554,4.87134-2.88964,9.7378-1.84717,6.2014-3.67481,12.40869a3.50068,3.50068,0,0,1-3.35644,2.5166Zm44.27735-45.63916q-1.84131-6.24683-3.69239-12.48974-1.29637-4.3799-2.59179-8.76123l-1.00782,3.40429q-2.64111,8.92091-5.27343,17.84571C486.9197,63.97058,497.39041,63.97009,497.39041,63.97009Z" fill="#1b6db7"/><path d="M491.18118,7.89056a11.43164,11.43164,0,0,1,2.85119.35621,12.03024,12.03024,0,0,1,8.60315,8.55523q13.2573,44.64771,26.54584,89.28479-2.90648.022-5.81088.01843-3.12278,0-6.24518-.00439-1.81275,0-3.62656.00616c-2.43151-8.21966-4.83587-16.44818-7.28552-24.66857q-1.60573.00072-3.21.00073-7.74966,0-15.4978-.00495-5.76306,0-11.52783.01227c-2.40931,8.22528-4.89441,16.432-7.30286,24.65808q-1.75863.00165-3.51569.00147-3.15,0-6.29934-.00116-2.87229,0-5.74637.00452,12.60049-42.85776,25.36835-85.67029c.8872-2.57856,1.231-5.4209,2.93945-7.64923a12.06208,12.06208,0,0,1,9.76-4.8993m-.10568,59.5802q5.49536,0,10.99276-.00122c-3.63617-12.381-7.33087-24.74438-10.95385-37.12384-3.64942,12.37464-7.33265,24.73792-10.96546,37.119q5.46479.00723,10.92655.006m.10568-66.5802a19.151,19.151,0,0,0-15.40253,7.75525,21.50771,21.50771,0,0,0-3.37158,7.67231c-.18585.67437-.36142,1.31134-.5445,1.84356q-.049.14236-.09185.28687l-5.86786,19.77136c-6.41162,21.59735-13.04154,43.93-19.50525,65.915a7,7,0,0,0,6.71576,8.97449h.013q2.86707-.00541,5.73334-.00446l3.14764.00055,3.15173.00055,3.52219-.00147a7,7,0,0,0,6.71149-5.03308q1.81389-6.19538,3.66653-12.38086,1.08-3.6264,2.156-7.25329,3.14515-.00348,6.29013-.00312l7.745.00245,5.73926.00183q1.50412,5.08118,2.99774,10.16327,1.39746,4.74645,2.79877,9.491a7.00032,7.00032,0,0,0,6.71216,5.01428l.0274-.00006q1.79938-.007,3.59946-.006l3.11508.00214,3.1301.00219q2.932,0,5.8638-.01861a7,7,0,0,0,6.65756-8.99219q-6.70705-22.59009-13.431-45.1748-6.55335-22.02686-13.09918-44.05713A19.05756,19.05756,0,0,0,495.6759,1.442a18.45445,18.45445,0,0,0-4.49472-.5514ZM489.50466,60.4707q.79948-2.70876,1.60083-5.4176.80178,2.70886,1.60245,5.41748l-1.63244.00018q-.78529,0-1.57084-.00006Z" fill="#fff"/><path d="M424.01443,109.5033a3.50017,3.50017,0,0,1-3.5-3.5V86.494q-.00147-30.02124.00391-60.04492c-1.33008-.001-17.36328-.00049-17.36328-.00049a3.50007,3.50007,0,0,1-3.49756-3.50049s-.002-11.85352.001-14.95459a3.49986,3.49986,0,0,1,3.5-3.49707h56.66065a3.50017,3.50017,0,0,1,3.5,3.5V22.94861a3.49986,3.49986,0,0,1-3.49707,3.5s-16.03126-.00049-17.36133.00049l.001,19.60156q.00146,29.97729-.00391,59.95361a3.50028,3.50028,0,0,1-3.5,3.499Z" fill="#1b6db7"/><path d="M459.81924,7.99646V22.94879q-1.80492.00129-3.60818.00116-4.88988,0-9.77784-.00226-3.73586,0-7.47213.00592,0,41.5254-.0033,83.04987H424.01486q0-41.52292.00409-83.04987-3.73875-.007-7.47531-.00592-4.8891,0-9.7786.00226-1.80358,0-3.60754-.00116.00118-7.47655.00079-14.95233h56.66095m0-7H403.15829a7,7,0,0,0-7,6.99426q-.00384,4.688-.00128,9.37006l.00049,5.58691a6.99994,6.99994,0,0,0,6.99521,7.0011L406.765,29.95l4.89185-.0011,4.88675-.00116h.47348q-.00622,27.61112-.00278,55.22058l.00052,20.83521a7,7,0,0,0,7,7h14.94293a7,7,0,0,0,7-6.99793q.009-30.1875.004-60.37756l-.00052-15.6803h.47192l4.88547.00116,4.8924.0011,3.61294-.00116a7,7,0,0,0,6.99521-7V7.99646a7,7,0,0,0-7-7Z" fill="#fff"/><path d="M580.83084,109.51453a3.49942,3.49942,0,0,1-2.89356-1.53125q-7.05029-10.36158-14.041-20.76465-4.51173-6.6936-9.03028-13.38037a15.1857,15.1857,0,0,1-.92187-1.49561q.00292,16.83618-.00391,33.67041a3.50006,3.50006,0,0,1-3.5,3.49805l-15.05566-.0044a3.5,3.5,0,0,1-3.49707-3.499q-.00586-18.45191-.002-36.90527.00294-24.60132-.00781-49.20264a15.88242,15.88242,0,0,1,11.0166-14.6333,16.13668,16.13668,0,0,1,5.14453-.78125c.1543,0,.30957.002.46387.00537,2.40527.00732,4.87793.00977,7.35156.00977l10.43652-.00245A31.3844,31.3844,0,0,1,593.37185,21.557c2.87891,5.49218,3.86817,12.44629,2.89942,20.59033a29.04345,29.04345,0,0,1-9.74707,19.86572,36.79625,36.79625,0,0,1-5.70606,3.86572c-1.23535.727-2.40527,1.41455-3.46973,2.17823a1.333,1.333,0,0,0,.07227.71875c5.34082,8.062,10.919,16.17871,16.31543,24.03174q3.854,5.60887,7.69336,11.22558a3.49993,3.49993,0,0,1-2.88574,5.47168l-11.27735-.00049q-3.21093,0-6.42187.01026ZM553.94705,26.35q-.01026,15.56469-.00489,31.07031a14.72774,14.72774,0,0,1,7.4629-6.00684c5.74511-2.14551,9.74414-5.05664,11.90429-8.65967,1.86231-3.06591,1.42774-7.0083.73633-9.7788a8.8926,8.8926,0,0,0-8.30957-6.647l-.23828.00391c-1.10449.0083-2.11621.01074-3.12891.01074l-4.875-.00537Q555.72,26.33728,553.94705,26.35Z" fill="#1b6db7"/><path d="M548.038,7.98535q.19225,0,.38458.00446,3.71151.01254,7.42288.01062,4.30705,0,8.61329-.003.91475,0,1.8298.00048a27.74093,27.74093,0,0,1,23.94189,15.10242c3.00537,5.73547,3.31458,12.40607,2.55768,18.69824-.52356,6.58667-3.34674,13.1734-8.52069,17.53974-2.73248,2.3825-6.137,3.82745-9.06323,5.95013-1.60706,1.19568-1.68781,3.52167-.85669,5.1861,7.90393,11.93976,16.12036,23.69311,24.19006,35.53039q-1.74152.00284-3.48211.00257-3.89863,0-7.79764-.0033-3.21309,0-6.427.01044c-7.725-11.35486-15.37177-22.767-23.06629-34.13794a12.395,12.395,0,0,1-1.52209-11.21607,10.73161,10.73161,0,0,1,6.405-5.97509c5.38007-2.00892,10.68512-5.16352,13.66413-10.13251,2.26745-3.73309,2.14953-8.339,1.13043-12.42468a12.3362,12.3362,0,0,0-11.70587-9.3c-.11725,0-.23538.00189-.35291.00574q-1.48974.0096-2.97857.00842c-1.63437,0-3.26761-.00543-4.90076-.00543q-1.8458,0-3.69128.01391l-.06818-.00079a3.32079,3.32079,0,0,0-3.2959,3.17474q-.02847,39.99325-.00824,79.98645-2.78178-.00531-5.56082-.00445-3.04051,0-6.08118.0011-1.70466,0-3.41067-.00147-.01483-43.05377-.00989-86.10925A12.32151,12.32151,0,0,1,543.94039,8.6062a12.778,12.778,0,0,1,4.0976-.62085m0-7a19.78961,19.78961,0,0,0-6.2645.96436,19.202,19.202,0,0,0-13.39572,17.90283q.0168,24.66861.008,49.239-.00183,18.45886.0018,36.91742a7,7,0,0,0,6.99331,6.99756l3.41736.00147,3.04276-.00055,3.03839-.00061q2.77341,0,5.54742.00451h.01343a6.99991,6.99991,0,0,0,7-6.99566q.00682-11.05244.00556-22.1045,1.78065,2.64,3.56033,5.28077c4.58975,6.809,9.33575,13.84973,14.03711,20.76013a7.00037,7.00037,0,0,0,5.7875,3.0625l.02689-.00006q3.19995-.01227,6.40021-.01038l3.89447.00165,3.90314.00165q1.74732,0,3.49368-.00257a7,7,0,0,0,5.77234-10.94293q-3.84348-5.638-7.71665-11.25928c-4.84045-7.04376-9.82763-14.30114-14.65121-21.53045q.31622-.18714.64017-.37732a40.4068,40.4068,0,0,0,6.23162-4.24372,32.56424,32.56424,0,0,0,10.929-22.15448c1.03668-8.79138-.06708-16.38208-3.28091-22.56359A34.94881,34.94881,0,0,0,566.41522.999q-.06144-.0011-.123-.00116L564.45874.99738,560.14886.9989l-4.30341.00153q-3.669,0-7.3377-.01038Q548.273.98539,548.038.98535Zm14.36658,28.85712q1.51162,0,3.024-.00861.092-.00054.18393-.0036l.12357-.002a5.35452,5.35452,0,0,1,4.87744,3.84027q.0174.07718.03653.15393c.43372,1.73871.96866,4.97272-.32138,7.09662-1.76325,2.94079-5.16443,5.35455-10.12991,7.20868a20.17875,20.17875,0,0,0-2.75733,1.28985q-.00014-9.7901.00464-19.58056h.05774l2.43784.00268,2.463.00275Z" fill="#fff"/><path d="M614.22732,109.4989l-10.24219.00195a3.50017,3.50017,0,0,1-3.49707-3.5V7.99451a3.50017,3.50017,0,0,1,3.5-3.5h15.83985a3.5009,3.5009,0,0,1,3.5,3.50049V43.61755q.00146,31.19458-.00977,62.38965a3.50007,3.50007,0,0,1-3.5,3.49805C619.81521,109.50525,616.08865,109.4989,614.22732,109.4989Z" fill="#1b6db7"/><path d="M619.82827,7.99445h.005m-.005,0q-.00741,49.00789-.01,98.011-2.8081-.00768-5.617-.00665-3.88279,0-7.76715.00287-1.22259,0-2.44595-.001V7.99445h15.84008m.005-7H603.98819a7,7,0,0,0-7,7v98.00622a7,7,0,0,0,6.99365,7l2.4523.001,3.88818-.00147,3.87894-.0014q2.79982,0,5.59784.00665h.01929a6.9999,6.9999,0,0,0,6.99993-6.99572q.019-31.21079.00977-62.41822-.00118-17.70309.00012-35.40728.00257-.09468.00257-.18982a6.99787,6.99787,0,0,0-6.99753-7Zm-.005,14h0Z" fill="#fff"/><path d="M659.117,110.49988a3.49806,3.49806,0,0,1-2.52246-1.07227l-2.50391-2.6001a3.50045,3.50045,0,0,1,1.36133-5.73,3.53079,3.53079,0,0,0,1.90918-2.8955,3.4002,3.4002,0,0,0-3.51953-3.25733,3.36458,3.36458,0,0,0-3.291,3.17969,3.22977,3.22977,0,0,0,1.17383,2.45752,3.49989,3.49989,0,0,1,1.36914,2.77685v.66993a3.49987,3.49987,0,0,1-4.48535,3.35839l-14.68359-4.30664a3.49994,3.49994,0,0,1-2.51465-3.35839V88.5116a3.50017,3.50017,0,0,1,3.5-3.5h3.26172a3.50017,3.50017,0,0,1,3.5,3.5v3.28125a13.82449,13.82449,0,0,1,25.95312,6.668,13.15593,13.15593,0,0,1-6.89844,11.64648A3.49258,3.49258,0,0,1,659.117,110.49988Z" fill="#1b6db7"/><path d="M653.95614,88.10321a9.98581,9.98581,0,0,1,10.16815,10.35767A9.66017,9.66017,0,0,1,659.11611,107l-2.50415-2.60034a6.98069,6.98069,0,0,0,4.24964-6.19776,6.90812,6.90812,0,0,0-13.81085-.07745,6.74585,6.74585,0,0,0,2.54284,5.23444v.66967l-14.68414-4.3067V88.51147h3.26263v8.79889h.00257l5.88135,1.74433-.11457-1.96778c0-5.41925,4.74268-8.9837,10.01471-8.9837m0-7a17.81359,17.81359,0,0,0-10.23993,3.13416,6.98849,6.98849,0,0,0-5.54413-2.7259h-3.26263a7,7,0,0,0-7,7V99.72186a7,7,0,0,0,5.03,6.717l14.68414,4.30671a6.99921,6.99921,0,0,0,4.993-.40339l1.4574,1.51337a6.99889,6.99889,0,0,0,8.26276,1.3595,16.68887,16.68887,0,0,0,8.78753-14.75421c0-9.89551-7.38073-17.35767-17.16815-17.35767Z" fill="#fff"/><path d="M663.51931,89.32605a3.49682,3.49682,0,0,1-2.18261-.76318l-15.36719-12.252c-.59278-.47363-2.15625-1.72363-2.93945-1.72363a2.08326,2.08326,0,0,0-1.96192,1.99365,2.027,2.027,0,0,0,1.96094,1.8916,3.4994,3.4994,0,0,1,3.27441,3.49268V85.454a3.49923,3.49923,0,0,1-3.5,3.5,3.55051,3.55051,0,0,1-.37988-.02051c-7.05957-.77148-11.62012-5.62012-11.62012-12.35254a12.07628,12.07628,0,0,1,12.0752-12.33349,13.02112,13.02112,0,0,1,8.05762,2.83593l5.81835,4.66016V67.74744a3.50017,3.50017,0,0,1,3.5-3.5h3.26368a3.50017,3.50017,0,0,1,3.5,3.5V85.82605a3.50025,3.50025,0,0,1-3.499,3.5Z" fill="#1b6db7"/><path d="M663.51828,67.74725V85.82593l-15.36683-12.252c-1.43963-1.15045-3.22393-2.48651-5.12115-2.48651a5.58275,5.58275,0,0,0-5.46253,5.49347,5.52025,5.52025,0,0,0,5.23572,5.38452V85.454c-5.084-.55585-8.50012-3.78626-8.50012-8.87311a8.63652,8.63652,0,0,1,8.5752-8.83362,9.61645,9.61645,0,0,1,5.88134,2.07672l11.49482,9.2071V67.74725h3.26355m0-7h-3.261a7.00509,7.00509,0,0,0-6.41156,4.18164l-.70966-.56842a16.56,16.56,0,0,0-10.25744-3.61322,15.72378,15.72378,0,0,0-15.5752,15.83362c0,8.50556,5.92328,14.8678,14.73938,15.83167a7,7,0,0,0,7.76074-6.95856V83.84369l9.351,7.4555a7,7,0,0,0,11.36384-5.47326V67.74725a7,7,0,0,0-7-7Z" fill="#fff"/><path d="M649.28006,70.27917A18.12592,18.12592,0,1,1,667.6365,52.24255,18.28057,18.28057,0,0,1,649.28006,70.27917Zm0-25.812a7.786,7.786,0,0,0-8.14454,7.95264c0,4.09228,3.65332,7.42187,8.14454,7.42187,4.4248,0,8.02441-3.32959,8.02441-7.42187A7.90355,7.90355,0,0,0,649.28006,44.46716Z" fill="#1b6db7"/><path d="M649.22085,37.53131a14.62746,14.62746,0,1,1-14.91577,14.71106,14.65616,14.65616,0,0,1,14.91577-14.71106m.05939,25.81018c6.35461,0,11.52447-4.89886,11.52447-10.92163a11.58542,11.58542,0,0,0-23.16931,0c0,6.02277,5.22425,10.92163,11.64484,10.92163m-.05939-32.81018a21.62556,21.62556,0,1,0,21.91577,21.71106,21.58208,21.58208,0,0,0-21.91577-21.71106Zm.05939,25.81018c-2.51776,0-4.64484-1.7959-4.64484-3.92163a4.309,4.309,0,0,1,4.64484-4.45245,4.3904,4.3904,0,0,1,4.52447,4.45245c0,2.16242-2.02966,3.92163-4.52447,3.92163Z" fill="#fff"/><path d="M649.28006,39.74792A18.12592,18.12592,0,1,1,667.6365,21.7113,18.28057,18.28057,0,0,1,649.28006,39.74792Zm0-25.811a7.786,7.786,0,0,0-8.14454,7.95264c0,4.09277,3.65332,7.42285,8.14454,7.42285,4.4248,0,8.02441-3.33008,8.02441-7.42285A7.90354,7.90354,0,0,0,649.28006,13.93689Z" fill="#1b6db7"/><path d="M649.22091,7a14.62745,14.62745,0,1,1-14.91583,14.71106A14.65712,14.65712,0,0,1,649.22091,7m.05933,25.81256c6.35461,0,11.52447-4.90045,11.52447-10.92316a11.58542,11.58542,0,0,0-23.16931,0c0,6.02271,5.22425,10.92316,11.64484,10.92316M649.22091,0a21.62555,21.62555,0,1,0,21.91571,21.71106A21.5821,21.5821,0,0,0,649.22091,0Zm.05933,25.81256c-2.51776,0-4.64484-1.79657-4.64484-3.92316a4.309,4.309,0,0,1,4.64484-4.45245,4.3904,4.3904,0,0,1,4.52447,4.45245c0,2.16327-2.02966,3.92316-4.52447,3.92316Z" fill="#fff"/><path d="M364.70308,12.1353c3.89509-4.87547,11.95654-5.70889,16.73551-1.61844a12.66934,12.66934,0,0,1,4.02372,6.22443q13.27083,44.68031,26.56887,89.34932c-5.22094.00484-10.44433-.00969-15.66527.00484-2.46287-8.21318-4.86721-16.44007-7.29875-24.6605-10.09722-.02017-20.18865-.00484-30.285-.00968q-3.70791,12.32459-7.33915,24.6734c-5.1929-.01694-10.38579-.00322-15.57952-.00807q12.6079-42.62419,25.26611-85.23628c1.00427-2.969,1.38356-6.29057,3.57352-8.719M373.92051,30.389c-3.70215,12.33993-7.32927,24.70326-11.0108,37.04965,7.33833.03469,14.67337.0129,22.00839.0129Q379.41067,48.91991,373.92051,30.389Z" fill="#1b6db7"/><path d="M481.42118,12.78983a11.94535,11.94535,0,0,1,21.21437,4.0122q13.25721,44.64764,26.54579,89.28477c-5.22919.03953-10.45505,0-15.68258.02017-2.43155-8.21962-4.83587-16.44813-7.28556-24.66856-10.0799.00484-20.15731-.017-30.23557.00807-2.40928,8.22527-4.89442,16.432-7.30287,24.65807-5.18878.00484-10.3726-.00484-15.56137.00484q12.60048-42.85776,25.36835-85.67033c.88717-2.57852,1.231-5.42086,2.93944-7.64923m-1.27226,54.67488q10.96175.01454,21.91936.00484c-3.63619-12.38107-7.3309-24.7444-10.9539-37.12386C487.465,42.72031,483.78179,55.08364,480.14892,67.46471Z" fill="#1b6db7"/><path d="M403.1583,7.99646h56.661V22.94879c-6.95658.00484-13.90655-.00807-20.85817.00484q0,41.52534-.0033,83.04986h-14.943q0-41.52291.00413-83.04986c-6.95575-.01291-13.90654,0-20.86146-.00484Q403.1587,15.47222,403.1583,7.99646Z" fill="#1b6db7"/><path d="M543.94042,8.60619a13.05729,13.05729,0,0,1,4.48215-.61639c5.95559.02017,11.912.00484,17.86595.00807a27.741,27.741,0,0,1,23.94191,15.1024c3.0054,5.7355,3.3146,12.40608,2.55768,18.69828-.52358,6.58667-3.34676,13.17334-8.52069,17.53972-2.73249,2.38247-6.137,3.82744-9.06325,5.95011-1.607,1.19567-1.68782,3.52166-.85669,5.18608,7.904,11.93976,16.12041,23.69315,24.19011,35.53045-5.902.00968-11.804-.01291-17.70682.00968-7.725-11.35483-15.37174-22.76695-23.06627-34.13791a12.39491,12.39491,0,0,1-1.52209-11.21607,10.7314,10.7314,0,0,1,6.405-5.97512c5.38006-2.00892,10.68508-5.16349,13.66412-10.13254,2.26746-3.733,2.14955-8.339,1.13044-12.42464A12.31886,12.31886,0,0,0,565.38317,22.834c-3.86047.025-7.7168-.01694-11.57064.01694a3.32106,3.32106,0,0,0-3.36408,3.17394q-.02846,39.99323-.00825,79.98646c-5.01976-.00968-10.0329,0-15.05266-.00484q-.01483-43.05381-.00989-86.10923A12.32149,12.32149,0,0,1,543.94042,8.60619Z" fill="#1b6db7"/><path d="M603.98819,7.99444h15.84007q-.00739,49.008-.00991,98.01107c-5.2737-.01452-10.55153,0-15.83018-.00484Q603.9882,56.99272,603.98819,7.99444Z" fill="#1b6db7"/><path d="M638.17463,97.31037l5.88138,1.7443-.11459-1.96778c0-5.41924,4.74271-8.98366,10.01475-8.98366a9.98576,9.98576,0,0,1,10.1681,10.35763A9.66014,9.66014,0,0,1,659.11609,107l-2.5041-2.6003a6.98078,6.98078,0,0,0,4.24963-6.1978,6.90815,6.90815,0,0,0-13.8109-.07745,6.74613,6.74613,0,0,0,2.54284,5.23448v.66964l-14.68409-4.30667V88.51146h3.26264v8.79891Z" fill="#1b6db7"/><path d="M660.25721,67.74726h3.261V85.82592l-15.36681-12.252c-1.43961-1.15049-3.2239-2.48655-5.12116-2.48655a5.58274,5.58274,0,0,0-5.46252,5.49347,5.52027,5.52027,0,0,0,5.23575,5.38455V85.454c-5.08407-.55589-8.50011-3.78629-8.50011-8.87314a8.63649,8.63649,0,0,1,8.57514-8.83359,9.61675,9.61675,0,0,1,5.88138,2.07669l11.49478,9.20714V67.74726Z" fill="#1b6db7"/><path d="M634.30511,52.2424a14.91719,14.91719,0,1,0,14.91574-14.7111A14.77746,14.77746,0,0,0,634.30511,52.2424Zm14.97513-11.275A11.36559,11.36559,0,0,1,660.8047,52.41989c0,6.02272-5.16982,10.92158-11.52446,10.92158-6.42062,0-11.64485-4.89886-11.64485-10.92158A11.29733,11.29733,0,0,1,649.28024,40.96744Z" fill="#1b6db7"/><path d="M634.30511,21.71108A14.91719,14.91719,0,1,0,649.2209,7,14.77746,14.77746,0,0,0,634.30511,21.71108Zm14.97513-11.27416A11.36559,11.36559,0,0,1,660.8047,21.88938c0,6.02272-5.16982,10.9232-11.52446,10.9232-6.42062,0-11.64485-4.90048-11.64485-10.9232A11.2959,11.2959,0,0,1,649.28024,10.43692Z" fill="#1b6db7"/></svg>