<svg id="Calque_1" data-name="Calque 1" xmlns="http://www.w3.org/2000/svg" xmlns:xlink="http://www.w3.org/1999/xlink" viewBox="0 0 238.05604 222.62737"><defs><linearGradient id="Dégradé_sans_nom_377" x1="-355.23519" y1="218.38432" x2="-145.06594" y2="218.38432" gradientTransform="matrix(-1, 0, 0, 1, -130.62255, 0)" gradientUnits="userSpaceOnUse"><stop offset="0" stop-color="#262626"/><stop offset="1" stop-color="#2a2e33"/></linearGradient><linearGradient id="Dégradé_sans_nom_96" x1="158.31285" y1="98.86287" x2="163.51634" y2="106.37903" gradientUnits="userSpaceOnUse"><stop offset="0" stop-color="#cb2626"/><stop offset="0.19734" stop-color="#ce292b"/><stop offset="0.43408" stop-color="#d7333a"/><stop offset="0.69101" stop-color="#e64452"/><stop offset="0.96058" stop-color="#fc5a73"/><stop offset="1" stop-color="#ff5e79"/></linearGradient><linearGradient id="Dégradé_sans_nom_96-2" x1="173.03096" y1="80.76878" x2="179.1204" y2="87.81972" xlink:href="#Dégradé_sans_nom_96"/><linearGradient id="Dégradé_sans_nom_96-3" x1="189.20119" y1="64.57899" x2="193.97068" y2="73.75109" xlink:href="#Dégradé_sans_nom_96"/><linearGradient id="Dégradé_sans_nom_17" x1="37.11135" y1="83.62737" x2="37.11135" y2="79.29404" gradientUnits="userSpaceOnUse"><stop offset="0" stop-color="#262626"/><stop offset="1" stop-color="#1f2326"/></linearGradient><linearGradient id="Dégradé_sans_nom_377-2" x1="82.51648" y1="83.44797" x2="82.51648" y2="79.11464" gradientTransform="matrix(1, 0, 0, 1, 0, 0)" xlink:href="#Dégradé_sans_nom_377"/><linearGradient id="Dégradé_sans_nom_377-3" x1="59.69469" y1="101.98813" x2="59.69469" y2="97.6548" gradientTransform="matrix(1, 0, 0, 1, 0, 0)" xlink:href="#Dégradé_sans_nom_377"/><linearGradient id="Dégradé_sans_nom_377-4" x1="59.97249" y1="64.71471" x2="59.97249" y2="60.93698" gradientTransform="matrix(1, 0, 0, 1, 0, 0)" xlink:href="#Dégradé_sans_nom_377"/><linearGradient id="Dégradé_sans_nom_28" x1="119.02802" y1="54.18987" x2="119.02802" y2="41.43552" gradientUnits="userSpaceOnUse"><stop offset="0" stop-color="#454649"/><stop offset="0.78137" stop-color="#2a2e33"/><stop offset="1" stop-color="#44474d"/></linearGradient><linearGradient id="Dégradé_sans_nom_14" x1="119.02802" y1="64.42292" x2="119.02802" y2="57.24463" gradientUnits="userSpaceOnUse"><stop offset="0" stop-color="#454649"/><stop offset="1" stop-color="#2a2e33"/></linearGradient><linearGradient id="Dégradé_sans_nom_14-2" x1="119.02802" y1="79.4911" x2="119.02802" y2="72.91256" xlink:href="#Dégradé_sans_nom_14"/><linearGradient id="Dégradé_sans_nom_14-3" x1="66.06173" y1="68.59864" x2="59.56173" y2="79.09864" xlink:href="#Dégradé_sans_nom_14"/><linearGradient id="Dégradé_sans_nom_14-4" x1="119.02802" y1="73.28663" x2="119.02802" y2="67.10682" xlink:href="#Dégradé_sans_nom_14"/><linearGradient id="Dégradé_sans_nom_156" x1="112.52802" y1="38.58571" x2="124.86135" y2="38.58571" gradientUnits="userSpaceOnUse"><stop offset="0" stop-color="#1b1e21"/><stop offset="0.5" stop-color="#4a4a4d"/><stop offset="1" stop-color="#1b1e21"/></linearGradient><linearGradient id="Dégradé_sans_nom_156-2" x1="112.87973" y1="32.43601" x2="124.50964" y2="32.43601" xlink:href="#Dégradé_sans_nom_156"/><linearGradient id="Dégradé_sans_nom_156-3" x1="113.05667" y1="29.18717" x2="124.3327" y2="29.18717" xlink:href="#Dégradé_sans_nom_156"/><linearGradient id="Dégradé_sans_nom_156-4" x1="113.24968" y1="25.93839" x2="124.13969" y2="25.93839" xlink:href="#Dégradé_sans_nom_156"/><linearGradient id="Dégradé_sans_nom_156-5" x1="113.40518" y1="22.68937" x2="123.98419" y2="22.68937" xlink:href="#Dégradé_sans_nom_156"/></defs><title>controller</title><path d="M13.86135,219.919H224.19469s15.77939-29.83333,13.66666-78.5c-.98886-22.77836-7.34679-43.66971-12-54.5-2.62111-6.10062-16.09214-26.83729-34.66666-33.33333C160.23715,42.759,119.028,43.75237,119.028,43.75237s-41.20913-.9934-72.16667,9.83334C28.28683,60.08175,14.8158,80.81842,12.19469,86.919c-4.65321,10.83029-11.01115,31.72164-12,54.5C-1.918,190.08571,13.86135,219.919,13.86135,219.919Z" fill="#2b2d30"/><path d="M180.22838,219.58427v.03043l10.633-4.66666s13-26.33334,15.66667-47.33334-2.33333-46.25-2.33333-46.25-.5-2.91666-2.16667-4.25a10.43887,10.43887,0,0,0-4.5-1.66666h-157a10.43887,10.43887,0,0,0-4.5,1.66666c-1.66667,1.33334-2.16667,4.25-2.16667,4.25s-5,25.25-2.33333,46.25S47.19469,214.948,47.19469,214.948l10.633,4.66666v-.03043Z" fill="#313131"/><path d="M170.30136,214.69761l1.19043-.73242a.24986.24986,0,0,0,.11914-.21289V133.82066a5.82443,5.82443,0,0,0-5.81739-5.81836H73.26327a5.82526,5.82526,0,0,0-5.81836,5.81836V213.7523a.24986.24986,0,0,0,.11914.21289l1.19043.73242H47.35116C46.33065,212.597,34.3077,187.517,31.776,167.58335c-2.63086-20.71777,2.28076-45.918,2.33056-46.16992.00635-.03515.50635-2.84619,2.07764-4.10351a10.25515,10.25515,0,0,1,4.373-1.61377l156.9707.00195a10.27061,10.27061,0,0,1,4.34375,1.61182c1.57422,1.25927,2.07227,4.06836,2.07715,4.09668.05078.25879,4.96191,25.459,2.331,46.17675-2.53125,19.9336-14.55468,45.01368-15.57519,47.11426Z" fill="#393b3f"/><path d="M197.49649,115.948a9.84988,9.84988,0,0,1,4.21917,1.55713c1.49561,1.19647,1.98151,3.91711,1.98853,3.95669.0498.25171,4.95331,25.414,2.32782,46.08991-2.47949,19.52588-14.092,44.01492-15.48352,46.89627H171.185l.43842-.26981a.5.5,0,0,0,.238-.42584V133.82054a6.075,6.075,0,0,0-6.06817-6.06818H73.2629a6.07506,6.07506,0,0,0-6.06823,6.06818v79.93182a.50011.50011,0,0,0,.23791.42584l.43848.26981H47.50753c-1.39148-2.881-13.00366-27.36716-15.48346-46.89627-2.62554-20.67594,2.2779-45.8382,2.33008-46.10257.0047-.02728.48529-2.74332,1.98627-3.944A9.88361,9.88361,0,0,1,40.5599,115.948H197.49649m.03155-.5h-157a10.43864,10.43864,0,0,0-4.5,1.66669c-1.66669,1.33331-2.16669,4.25-2.16669,4.25s-5,25.25-2.33331,46.25S47.19467,214.948,47.19467,214.948H69.6376l-1.94293-1.19565V133.82054a5.5682,5.5682,0,0,1,5.56823-5.56818h92.53028a5.56819,5.56819,0,0,1,5.56817,5.56818v79.93182l-1.94293,1.19565h21.44293s13-26.33331,15.66669-47.33331-2.33337-46.25-2.33337-46.25-.5-2.91669-2.16663-4.25a10.43889,10.43889,0,0,0-4.5-1.66669Z" fill="#212123"/><path d="M119.528,217.75237h45.33333l6.5-4v-79.9318a5.56819,5.56819,0,0,0-5.56819-5.5682H73.26288a5.56819,5.56819,0,0,0-5.56819,5.5682v79.9318l6.5,4Z" fill="#3e4346"/><polygon points="67.695 212.252 171.361 212.252 171.361 213.752 164.861 217.752 74.195 217.752 67.695 213.752 67.695 212.252" fill="#262626"/><path d="M181.22838,219.6147l10.133-3.61233s7.875-.25,16.125,0,17.25,2.5,17.125,3.61233-3,1.26267-3,1.26267H17.44469s-2.875-.15034-3-1.26267,8.875-3.36233,17.125-3.61233,16.125,0,16.125,0l10.133,3.61233Z" fill="url(#Dégradé_sans_nom_377)"/><path d="M119.528,220.87737H221.61135a17.1839,17.1839,0,0,1-5.2443,1.02831c-6.36378.5152-16.94474.72169-21.6307.72169-7.375,0-22.875-.875-22.875-.875l-1.3125-.4375H68.50719l-1.3125.4375s-15.5.875-22.875.875c-4.686,0-15.26692-.20649-21.6307-.72169a17.1839,17.1839,0,0,1-5.2443-1.02831H119.528" fill="#6e727d"/><path d="M193.89488,54.56487c12.96647,7.9375,26.46647,16.23911,30.21647,31.58831s-6.5,27.11722-13.5,27.11722H28.44469c-7,0-17.25-11.768-13.5-27.11722s17.25-23.65081,30.21647-31.58831c6.48323-3.96875,40.425-9.45312,74.36676-9.45313S187.41164,50.59611,193.89488,54.56487Z" fill="#3d4144"/><rect x="40.19469" y="119.16701" width="158.66667" height="4.12949" rx="2.06474" fill="#151515"/><rect x="40.19469" y="119.87492" width="158.66667" height="4.12949" rx="2.06474" fill="#424242"/><rect x="40.19469" y="119.02097" width="158.66667" height="4.12949" rx="2.06474" fill="#242424"/><rect x="79.8956" y="136.55204" width="20.5" height="9.25" rx="4.625" fill="#0e0e0e"/><rect x="81.02362" y="137.76798" width="18.24398" height="6.81813" rx="3.40906" fill="#212121"/><rect x="82.72894" y="139.42704" width="14.83333" height="3.5" rx="1.75" fill="#313131"/><rect x="96.65519" y="93.61062" width="16.66256" height="7.51847" rx="3.6284" transform="translate(-36.82215 117.20322) rotate(-50.80618)" fill="#0e0e0e"/><rect x="97.43378" y="94.25513" width="15.21759" height="5.68711" rx="2.67448" transform="translate(-36.59134 117.1469) rotate(-50.80618)" fill="#212121"/><rect x="98.75262" y="94.87424" width="12.73056" height="3.00384" rx="1.37291" transform="translate(-36.00365 116.93936) rotate(-50.80618)" fill="#313131"/><rect x="114.62505" y="93.61062" width="16.66256" height="7.51847" rx="3.6284" transform="translate(-30.20827 131.1301) rotate(-50.80618)" fill="#0e0e0e"/><rect x="115.40365" y="94.25513" width="15.21759" height="5.68711" rx="2.67448" transform="translate(-29.97745 131.07377) rotate(-50.80618)" fill="#212121"/><rect x="116.72249" y="94.87424" width="12.73056" height="3.00384" rx="1.37291" transform="translate(-29.38977 130.86623) rotate(-50.80618)" fill="#313131"/><rect x="108.79294" y="136.55204" width="20.5" height="9.25" rx="4.625" fill="#0e0e0e"/><rect x="109.92096" y="137.76798" width="18.24398" height="6.81813" rx="3.40906" fill="#212121"/><rect x="111.62628" y="139.42704" width="14.83333" height="3.5" rx="1.75" fill="#313131"/><rect x="139.3956" y="136.55204" width="20.5" height="9.25" rx="4.625" fill="#0e0e0e"/><rect x="140.52362" y="137.76798" width="18.24398" height="6.81813" rx="3.40906" fill="#212121"/><rect x="142.22894" y="139.42704" width="14.83333" height="3.5" rx="1.75" fill="#313131"/><rect x="79.8956" y="156.05204" width="20.5" height="9.25" rx="4.625" fill="#0e0e0e"/><rect x="81.02362" y="157.26798" width="18.24398" height="6.81813" rx="3.40906" fill="#212121"/><rect x="82.72894" y="158.92704" width="14.83333" height="3.5" rx="1.75" fill="#313131"/><rect x="108.79294" y="156.05204" width="20.5" height="9.25" rx="4.625" fill="#0e0e0e"/><rect x="109.92096" y="157.26798" width="18.24398" height="6.81813" rx="3.40906" fill="#212121"/><rect x="111.62628" y="158.92704" width="14.83333" height="3.5" rx="1.75" fill="#313131"/><rect x="139.3956" y="156.05204" width="20.5" height="9.25" rx="4.625" fill="#0e0e0e"/><rect x="140.52362" y="157.26798" width="18.24398" height="6.81813" rx="3.40906" fill="#212121"/><rect x="142.22894" y="158.92704" width="14.83333" height="3.5" rx="1.75" fill="#313131"/><rect x="79.8956" y="175.55204" width="20.5" height="9.25" rx="4.625" fill="#0e0e0e"/><rect x="81.02362" y="176.76798" width="18.24398" height="6.81813" rx="3.40906" fill="#212121"/><rect x="82.72894" y="178.42704" width="14.83333" height="3.5" rx="1.75" fill="#313131"/><rect x="108.79294" y="175.55204" width="20.5" height="9.25" rx="4.625" fill="#0e0e0e"/><rect x="109.92096" y="176.76798" width="18.24398" height="6.81813" rx="3.40906" fill="#212121"/><rect x="111.62628" y="178.42704" width="14.83333" height="3.5" rx="1.75" fill="#313131"/><rect x="139.3956" y="175.55204" width="20.5" height="9.25" rx="4.625" fill="#0e0e0e"/><rect x="140.52362" y="176.76798" width="18.24398" height="6.81813" rx="3.40906" fill="#212121"/><rect x="142.22894" y="178.42704" width="14.83333" height="3.5" rx="1.75" fill="#313131"/><rect x="79.8956" y="195.05204" width="20.5" height="9.25" rx="4.625" fill="#0e0e0e"/><rect x="81.02362" y="196.26798" width="18.24398" height="6.81813" rx="3.40906" fill="#212121"/><rect x="82.72894" y="197.92704" width="14.83333" height="3.5" rx="1.75" fill="#313131"/><rect x="108.79294" y="195.05204" width="20.5" height="9.25" rx="4.625" fill="#0e0e0e"/><rect x="109.92096" y="196.26798" width="18.24398" height="6.81813" rx="3.40906" fill="#212121"/><rect x="111.62628" y="197.92704" width="14.83333" height="3.5" rx="1.75" fill="#313131"/><rect x="139.3956" y="195.05204" width="20.5" height="9.25" rx="4.625" fill="#0e0e0e"/><rect x="140.52362" y="196.26798" width="18.24398" height="6.81813" rx="3.40906" fill="#212121"/><rect x="142.22894" y="197.92704" width="14.83333" height="3.5" rx="1.75" fill="#313131"/><path d="M167.49355,107.79349l4.04351-5.31375a2.781,2.781,0,0,0-.838-4.14206L158.728,91.61329c-1.73908-.9686-4.42535-1.51625-5.63727.063l-8.59673,11.202a4.01383,4.01383,0,0,0,3.18422,6.4575H164.331A4.01384,4.01384,0,0,0,167.49355,107.79349Z" fill="none" stroke="#030405" stroke-miterlimit="10"/><path d="M160.76948,81.88158l5.68138-5.76074c2.36535-2.62983,5.1959-2.85589,8.35956-1.27407l8.40489,4.20245c3.07285,1.53643,4.242,5.12934,1.81853,7.56442l-4.63632,4.65844a7.07827,7.07827,0,0,1-7.86381,1.08956l-10.934-5.90331A2.94133,2.94133,0,0,1,160.76948,81.88158Z" fill="none" stroke="#030405" stroke-miterlimit="10"/><path d="M178.363,70.5823l11.03562,5.73279a5.60264,5.60264,0,0,0,6.66816-.88874L201.9686,70.189a4.01625,4.01625,0,0,0-.866-6.59439l-9.44106-4.58807a7.18624,7.18624,0,0,0-8.43938,1.06946l-5.5604,5.00086A3.37566,3.37566,0,0,0,178.363,70.5823Z" fill="none" stroke="#030405" stroke-miterlimit="10"/><path d="M167.4,107.79349l4.54351-5.81375a2.781,2.781,0,0,0-.838-4.14206l-12.97106-7.22439a4.01383,4.01383,0,0,0-5.13728,1.063l-8.59673,11.202a4.01383,4.01383,0,0,0,3.18422,6.4575h16.65278A4.01382,4.01382,0,0,0,167.4,107.79349Z" fill="#bf181a"/><path d="M160.67588,81.88158l5.18138-5.76074a7.86045,7.86045,0,0,1,9.35956-1.77407l8.4049,4.20245a5.04074,5.04074,0,0,1,1.31852,8.06442l-4.63632,4.65844a6.27515,6.27515,0,0,1-7.34206,1.1412l-11.45572-5.95495A2.94134,2.94134,0,0,1,160.67588,81.88158Z" fill="#bf181a"/><path d="M178.26937,70.5823,189.305,76.31509a6.37319,6.37319,0,0,0,7.16816-.88874L202.375,70.189a4.01625,4.01625,0,0,0-.866-6.59439l-9.42554-4.72487a8.0181,8.0181,0,0,0-8.9549,1.20626l-5.5604,5.00086A3.37566,3.37566,0,0,0,178.26937,70.5823Z" fill="#bf181a"/><ellipse cx="158.61135" cy="99.29404" rx="8" ry="6.45833" fill="url(#Dégradé_sans_nom_96)"/><ellipse cx="173.56969" cy="81.39257" rx="7.95833" ry="6.27647" fill="url(#Dégradé_sans_nom_96-2)"/><ellipse cx="190.02802" cy="66.16904" rx="8.08333" ry="6.08333" fill="url(#Dégradé_sans_nom_96-3)"/><ellipse cx="59.84604" cy="82.20611" rx="28.29438" ry="23.41207" fill="#262626"/><ellipse cx="59.69469" cy="81.77321" rx="27.66667" ry="22.97917" fill="#3b3d3f"/><ellipse cx="59.69469" cy="81.19797" rx="19.5" ry="16.17188" fill="#030301"/><ellipse cx="59.36135" cy="80.86304" rx="18.5" ry="15.51312" fill="#242424"/><ellipse cx="37.11135" cy="81.75237" rx="2.16667" ry="1.83333" fill="url(#Dégradé_sans_nom_17)"/><ellipse cx="37.13392" cy="81.70794" rx="1.63362" ry="1.22524" fill="#151515"/><ellipse cx="82.51648" cy="81.19797" rx="2.16667" ry="1.83333" fill="url(#Dégradé_sans_nom_377-2)"/><ellipse cx="82.53904" cy="81.15354" rx="1.63362" ry="1.22524" fill="#151515"/><ellipse cx="59.69469" cy="100.19647" rx="2.16667" ry="2.02151" fill="url(#Dégradé_sans_nom_377-3)"/><ellipse cx="59.71725" cy="100.14747" rx="1.63362" ry="1.351" fill="#212121"/><ellipse cx="59.97249" cy="62.71471" rx="1.88886" ry="1.59827" fill="url(#Dégradé_sans_nom_377-4)"/><ellipse cx="59.99216" cy="62.67597" rx="1.42416" ry="1.06814" fill="#151515"/><ellipse cx="44.22366" cy="69.01491" rx="0.9375" ry="0.76888" fill="#151515"/><ellipse cx="43.72366" cy="94.87737" rx="0.9375" ry="0.76888" fill="#212121"/><ellipse cx="75.69981" cy="94.87737" rx="0.9375" ry="0.76888" fill="#212121"/><ellipse cx="75.58655" cy="68.92202" rx="0.82424" ry="0.67599" fill="#151515"/><path d="M52.73465,67.61166l.23638,4.582A1.171,1.171,0,0,1,51.80134,73.419H44.00815a1.16316,1.16316,0,0,0-1.07117.69749,18.759,18.759,0,0,0-1.1115,4.79952,19.60154,19.60154,0,0,0,.72678,6.09274,1.1681,1.1681,0,0,0,1.142.91025h6.81933A1.171,1.171,0,0,1,51.681,87.1798l-.00874,5.61353a1.1663,1.1663,0,0,0,.70319,1.1656,19.70726,19.70726,0,0,0,6.98586,1.62678,22.173,22.173,0,0,0,6.98587-1.12678,1.16631,1.16631,0,0,0,.70318-1.1656l-.00873-6.11353c-.05232-.68008.98541-1.26076,1.6675-1.26076H75.0285a1.16809,1.16809,0,0,0,1.14194-.91025,28.93132,28.93132,0,0,0,.51006-6.0064,17.58772,17.58772,0,0,0-.89477-4.88586,1.16317,1.16317,0,0,0-1.07118-.69749H66.92137a1.171,1.171,0,0,1-1.16969-1.22535l.23637-4.582a1.16822,1.16822,0,0,0-.81887-1.17218,24.889,24.889,0,0,0-11.61565,0A1.16824,1.16824,0,0,0,52.73465,67.61166Z" fill="#151515"/><path d="M164.11135,57.33191c1.21931-.0871,3.90447-.64214,4.8413-1.97,1.43845-2.03887.79146-7.92549.2837-8.73453-.91322-1.45509-2.625-2.125-10.375-3.625s-39.83333-1.875-39.83333-1.875-32.08333.375-39.83333,1.875-9.46178,2.16991-10.375,3.625c-.50776.809-1.15475,6.69566.2837,8.73453.93683,1.32787,3.622,1.88291,4.8413,1.97C77.44469,57.58191,160.61135,57.58191,164.11135,57.33191Z" fill="#282828"/><path d="M153.61135,66.56487c1.05982-.32609,7.53532-5.76184,9.5528-7.79023a.44336.44336,0,0,0-.31748-.75523H75.20937a.44336.44336,0,0,0-.31748.75523c2.01748,2.02839,8.493,7.46414,9.5528,7.79023C86.06969,67.06487,151.98635,67.06487,153.61135,66.56487Z" fill="#282828"/><path d="M119.02328,81.22474c8.65643-.28754,16.99521-3.62542,20.5581-5.24187.35059-.15906.26374-.86677-.10564-.86677H98.57083c-.36938,0-.45623.70771-.10564.86677C102.02808,77.59932,110.36686,80.9372,119.02328,81.22474Z" fill="#282828"/><path d="M164.11135,54.62737c1.21931-.08709,3.90447-.64213,4.8413-1.97,1.43845-2.03887.79146-5.22095.2837-6.03-.91322-1.45509-2.625-2.125-10.375-3.625s-39.83333-1.875-39.83333-1.875-32.08333.375-39.83333,1.875-9.46178,2.16991-10.375,3.625c-.50776.809-1.15475,3.99112.2837,6.03.93683,1.32788,3.622,1.88292,4.8413,1.97C77.44469,54.87737,160.61135,54.87737,164.11135,54.62737Z" fill="url(#Dégradé_sans_nom_28)"/><path d="M153.61135,63.75237c1.30461-.40141,6.47648-3.85343,8.46519-5.19907a.29218.29218,0,0,0-.16491-.53389H76.14441a.29218.29218,0,0,0-.16491.53389c1.98871,1.34564,7.16058,4.79766,8.46519,5.19907C86.06969,64.25237,151.98635,64.25237,153.61135,63.75237Z" fill="url(#Dégradé_sans_nom_14)"/><path d="M119.028,79.12737a67.55665,67.55665,0,0,0,18.46033-3.4421.29226.29226,0,0,0-.09486-.56917H100.66255a.29226.29226,0,0,0-.09486.56917A67.55665,67.55665,0,0,0,119.028,79.12737Z" fill="url(#Dégradé_sans_nom_14-2)"/><path d="M53.73465,67.61166l.23638,5.082A1.171,1.171,0,0,1,52.80134,73.919H44.50815a1.16316,1.16316,0,0,0-1.07117.69749,11.27031,11.27031,0,0,0-.89728,4.39007,20.91735,20.91735,0,0,0,.51256,4.50219,1.1681,1.1681,0,0,0,1.142.91025h7.81933A1.171,1.171,0,0,1,53.181,85.6798l-.50874,6.61353a1.1663,1.1663,0,0,0,.70319,1.1656,16.46294,16.46294,0,0,0,11.97173,0,1.16631,1.16631,0,0,0,.70318-1.1656l-.50873-6.61353a1.171,1.171,0,0,1,1.1675-1.26076H74.5285a1.16809,1.16809,0,0,0,1.14194-.91025A20.91659,20.91659,0,0,0,76.183,79.0066a11.27049,11.27049,0,0,0-.89728-4.39007,1.16317,1.16317,0,0,0-1.07118-.69749H65.92137a1.171,1.171,0,0,1-1.16969-1.22535l.23637-5.082a1.16822,1.16822,0,0,0-.81887-1.17218,17.16414,17.16414,0,0,0-9.61565,0A1.16824,1.16824,0,0,0,53.73465,67.61166Z" fill="url(#Dégradé_sans_nom_14-3)"/><path d="M140.00617,74.206a12.47548,12.47548,0,0,0,4.48285-.87.24529.24529,0,0,0,.06077-.0375l6.19634-5.00317c.26467-.2137.154-.76931-.15318-.76931H87.46309c-.30721,0-.41785.55561-.15318.76931l6.19634,5.00317a.24529.24529,0,0,0,.06077.0375,12.47548,12.47548,0,0,0,4.48285.87C100.75811,74.2259,137.29793,74.2259,140.00617,74.206Z" fill="#282828"/><path d="M139.36135,72.25237a15.98755,15.98755,0,0,0,4.34506-.61553.26476.26476,0,0,0,.0589-.02653l6.00588-3.53991a.2924.2924,0,0,0-.14848-.54431H88.43333a.2924.2924,0,0,0-.14848.54431l6.00588,3.53991a.26476.26476,0,0,0,.0589.02653,15.98755,15.98755,0,0,0,4.34506.61553C101.31969,72.26643,136.73635,72.26643,139.36135,72.25237Z" fill="url(#Dégradé_sans_nom_14-4)"/><circle cx="119.21703" cy="133.12737" r="2.95833" fill="#5b5b5b"/><circle cx="149.81969" cy="133.12737" r="2.95833" fill="#5b5b5b"/><circle cx="90.31969" cy="152.62737" r="2.95833" fill="#5b5b5b"/><circle cx="119.21703" cy="152.62737" r="2.95833" fill="#5b5b5b"/><circle cx="149.81969" cy="152.62737" r="2.95833" fill="#5b5b5b"/><circle cx="90.31969" cy="172.12737" r="2.95833" fill="#5b5b5b"/><circle cx="119.21703" cy="172.12737" r="2.95833" fill="#5b5b5b"/><circle cx="149.81969" cy="172.12737" r="2.95833" fill="#5b5b5b"/><circle cx="90.31969" cy="191.62737" r="2.95833" fill="#5b5b5b"/><circle cx="119.21703" cy="191.62737" r="2.95833" fill="#5b5b5b"/><circle cx="149.81969" cy="191.62737" r="2.95833" fill="#5b5b5b"/><circle cx="90.31969" cy="133.12737" r="2.95833" fill="#5b5b5b"/><g id="letters_and_numbers"><path d="M113.00644,99.79478a2.33822,2.33822,0,0,1-.68946-.71924,1.32937,1.32937,0,0,1-.19433-.71045,1.22492,1.22492,0,0,1,.25293-.668,1.17953,1.17953,0,0,1,.92382-.50927,1.9546,1.9546,0,0,1,1.249.45166,1.99,1.99,0,0,1,.82715,1.085,1.2638,1.2638,0,0,1-1.09571,1.51367A1.95884,1.95884,0,0,1,113.00644,99.79478Zm.31542-.47314a1.40983,1.40983,0,0,0,.82618.33056.6574.6574,0,0,0,.55078-.269.6499.6499,0,0,0,.08691-.604,1.46209,1.46209,0,0,0-.583-.68848,1.43094,1.43094,0,0,0-.8164-.33594.65022.65022,0,0,0-.54395.27783.65789.65789,0,0,0-.0957.60889A1.43025,1.43025,0,0,0,113.32186,99.32164Z" fill="#cccec6"/><path d="M116.149,98.27037l-2.69433-1.96.52148-.7168a2.619,2.619,0,0,1,.4209-.4961.726.726,0,0,1,.501-.13085,1.20706,1.20706,0,0,1,.61914.25488,1.2258,1.2258,0,0,1,.40918.46679.78988.78988,0,0,1,.07812.47754,1.78406,1.78406,0,0,1-.33594.62793l-.21191.292,1.0166.73925ZM114.235,96.19615l.7666.55859.17969-.24707a1.28519,1.28519,0,0,0,.209-.36377.36818.36818,0,0,0-.01855-.23828.50252.50252,0,0,0-.18262-.21973.514.514,0,0,0-.26953-.10644.35447.35447,0,0,0-.22851.05615,1.61657,1.61657,0,0,0-.29786.34375Z" fill="#cccec6"/><path d="M118.00936,95.71324l-2.23828-1.62891-.47754.65625-.456-.331,1.27734-1.75537.45606.331-.47656.6543,2.23828,1.6289Z" fill="#cccec6"/><path d="M119.00936,94.33873l-2.69433-1.96.32324-.44531,2.69434,1.96Z" fill="#cccec6"/><path d="M118.24765,92.58873a2.33731,2.33731,0,0,1-.68946-.71875,1.32894,1.32894,0,0,1-.19433-.71,1.22213,1.22213,0,0,1,.25293-.668,1.18,1.18,0,0,1,.92382-.50977,1.9546,1.9546,0,0,1,1.249.45166,1.99074,1.99074,0,0,1,.82715,1.08447,1.26233,1.26233,0,0,1-1.09571,1.51416A1.95421,1.95421,0,0,1,118.24765,92.58873Zm.31543-.47266a1.41408,1.41408,0,0,0,.82617.33105.65775.65775,0,0,0,.55078-.26953.64913.64913,0,0,0,.08691-.60351,1.463,1.463,0,0,0-.583-.689,1.431,1.431,0,0,0-.81543-.33594.67564.67564,0,0,0-.64063.88672A1.42586,1.42586,0,0,0,118.56308,92.11607Z" fill="#cccec6"/><path d="M121.39511,91.05943l-2.69434-1.96.31543-.43408,2.45606.40429-1.79883-1.30859.30273-.41553,2.69434,1.96-.32617.44873-2.4043-.38867,1.75683,1.27832Z" fill="#cccec6"/><path d="M97.03085,99.92955,94.42538,97.8524l.55273-.69287a2.65743,2.65743,0,0,1,.44239-.47657.73068.73068,0,0,1,.50683-.10888,1.21365,1.21365,0,0,1,.60743.28174,1.23137,1.23137,0,0,1,.38867.48486.79614.79614,0,0,1,.05566.48047,1.78381,1.78381,0,0,1-.3623.6123l-.22461.28272.98242.78369Zm-1.82031-2.15577.74121.59131.19043-.23877a1.34609,1.34609,0,0,0,.22558-.354.36805.36805,0,0,0-.00976-.23926.57262.57262,0,0,0-.43555-.34521.3546.3546,0,0,0-.23144.04541,1.64165,1.64165,0,0,0-.31348.33007Z" fill="#cccec6"/><path d="M99.982,96.22984l-.37305.46728-.73925-.2832-.68164.855.44824.64746-.36524.4585L96.3287,95.46568l.36426-.457Zm-1.66308-.02832-1.20215-.47608.73535,1.06055Z" fill="#cccec6"/><path d="M97.55331,93.93052l.34277-.43017,1.41114,1.125a4.51365,4.51365,0,0,0,.4414.32568.56064.56064,0,0,0,.376.07617.61505.61505,0,0,0,.44824-.50586.43124.43124,0,0,0-.082-.27685,2.926,2.926,0,0,0-.48047-.43946l-1.4414-1.14892.34375-.42969,1.36816,1.09082a4.63323,4.63323,0,0,1,.71387.66016.8292.8292,0,0,1,.17675.5542,1.09129,1.09129,0,0,1-.26855.63379,1.231,1.231,0,0,1-.53516.42578.87249.87249,0,0,1-.55468.00293,3.27823,3.27823,0,0,1-.87012-.55567Z" fill="#cccec6"/><path d="M100.943,93.28062l.28613-.46045q.55665.32739.87012-.06738a.55821.55821,0,0,0,.14355-.38867.42165.42165,0,0,0-.16308-.314.36357.36357,0,0,0-.18262-.08154.37955.37955,0,0,0-.19727.0376,4.63242,4.63242,0,0,0-.44335.28125,1.691,1.691,0,0,1-.502.25878.87469.87469,0,0,1-.41894-.00146,1.00575,1.00575,0,0,1-.40235-.19678.97067.97067,0,0,1-.30566-.40234.81909.81909,0,0,1-.04492-.47266,1.18788,1.18788,0,0,1,.249-.49072.9475.9475,0,0,1,1.4375-.18359l-.32227.45019a.59945.59945,0,0,0-.39062-.11084.496.496,0,0,0-.29688.20166.55415.55415,0,0,0-.1416.32666.27814.27814,0,0,0,.10547.23828.28858.28858,0,0,0,.2461.05713,1.56972,1.56972,0,0,0,.47363-.26562,2.053,2.053,0,0,1,.57324-.31153.86216.86216,0,0,1,.44434-.00781,1.20924,1.20924,0,0,1,.46.24219,1.0444,1.0444,0,0,1,.40332.66357,1.17345,1.17345,0,0,1-1.88086.998Z" fill="#cccec6"/><path d="M103.46737,91.85777l-2.60547-2.07715,1.26465-1.58545.44141.35156-.92188,1.15528.57813.46.85547-1.07324.43847.35009-.85644,1.07373.709.56446.95215-1.19434.44043.35059Z" fill="#cccec6"/><path d="M89.29159,132.91343l.13867-.8125a4.53847,4.53847,0,0,0,1.49707-1.19726h.45215l-.80469,4.68164h-.75l.55567-3.22461a3.0191,3.0191,0,0,1-.53516.333A3.08459,3.08459,0,0,1,89.29159,132.91343Z" fill="#333"/><path d="M118.94979,132.38316l-.73339-.13379a1.75242,1.75242,0,0,1,.42187-1.001,1.15516,1.15516,0,0,1,1.63184.00489,1.28709,1.28709,0,0,1,.31443.91113,1.78094,1.78094,0,0,1-.23143.86621,6.07873,6.07873,0,0,1-.69921.91113,7.35291,7.35291,0,0,0-.65332.8125h1.32324l-.14258.83106h-2.31641a2.46972,2.46972,0,0,1,.33008-.98731,9.16845,9.16845,0,0,1,.85938-1.10058,7.72106,7.72106,0,0,0,.6289-.79395,1.08713,1.08713,0,0,0,.17774-.5459.59707.59707,0,0,0-.11621-.38867.35592.35592,0,0,0-.28418-.1416Q119.07089,131.6273,118.94979,132.38316Z" fill="#333"/><path d="M148.43612,134.36949l.71387-.1045a1.03607,1.03607,0,0,0,.16113.51465.38611.38611,0,0,0,.31153.14258.52394.52394,0,0,0,.416-.20508.80811.80811,0,0,0,.17088-.53808.67763.67763,0,0,0-.1406-.46094.45716.45716,0,0,0-.36329-.16113.669.669,0,0,0-.11816.01269l.12988-.75781.07617.00586a.57081.57081,0,0,0,.45118-.17871.748.748,0,0,0,.1582-.50977.53445.53445,0,0,0-.10742-.3584.33907.33907,0,0,0-.27149-.12695c-.23437,0-.39746.21192-.49023.6377l-.68262-.165a1.89474,1.89474,0,0,1,.40332-.835,1.08911,1.08911,0,0,1,.8252-.36817.98928.98928,0,0,1,.77246.3291,1.2666,1.2666,0,0,1,.29687.88379,1.23493,1.23493,0,0,1-.17871.66309,1.05574,1.05574,0,0,1-.47461.41894.99039.99039,0,0,1,.34864.38575,1.14691,1.14691,0,0,1,.124.53808,1.61781,1.61781,0,0,1-.33984.999,1.22576,1.22576,0,0,1-1.01563.5332,1.05252,1.05252,0,0,1-.78711-.32813A1.616,1.616,0,0,1,148.43612,134.36949Z" fill="#333"/><path d="M90.30819,154.13609h-1.499l.12988-.76172,2.06641-2.94141h.6416l-.50195,2.92871H91.608l-.13281.77442h-.4629l-.16308.94922h-.7041Zm.13282-.77442.25-1.45019-1.00586,1.45019Z" fill="#333"/><path d="M117.88339,153.7523l.72656-.0791-.00293.09472a.81035.81035,0,0,0,.12012.48731.3616.3616,0,0,0,.30078.16016.60617.60617,0,0,0,.48437-.30762,1.462,1.462,0,0,0,.21778-.85645.808.808,0,0,0-.123-.49218.37951.37951,0,0,0-.31641-.16211.55232.55232,0,0,0-.28613.082.97213.97213,0,0,0-.26465.251l-.61523-.05664.58008-2.37793h1.9209l-.14258.832h-1.26758l-.17188.71778a1.01171,1.01171,0,0,1,.21778-.09082.79.79,0,0,1,.21679-.03028.88284.88284,0,0,1,.71192.35254,1.49408,1.49408,0,0,1,.28613.96778,2.32653,2.32653,0,0,1-.2168.99707,1.67915,1.67915,0,0,1-.55468.69336,1.2228,1.2228,0,0,1-.70117.22949,1.0041,1.0041,0,0,1-.79688-.37793A1.56015,1.56015,0,0,1,117.88339,153.7523Z" fill="#333"/><path d="M151.22909,151.56871l-.69922.06933a.73794.73794,0,0,0-.10937-.38867.28349.28349,0,0,0-.23242-.10938.4805.4805,0,0,0-.39551.25879,2.36107,2.36107,0,0,0-.28125.77637.80471.80471,0,0,1,.51074-.19336.89384.89384,0,0,1,.72559.36133,1.56949,1.56949,0,0,1,.29,1.00781,2.17227,2.17227,0,0,1-.376,1.27344,1.1225,1.1225,0,0,1-.95313.54.92889.92889,0,0,1-.5664-.18555,1.22449,1.22449,0,0,1-.40039-.56152,2.86117,2.86117,0,0,1-.14746-1.02246,4.32288,4.32288,0,0,1,.47265-2.14746,1.36981,1.36981,0,0,1,1.17774-.834.86528.86528,0,0,1,.67285.28223A1.47927,1.47927,0,0,1,151.22909,151.56871Zm-1.91406,2.14648a.97.97,0,0,0,.11914.54395.34918.34918,0,0,0,.29687.17187.44309.44309,0,0,0,.374-.25,1.64811,1.64811,0,0,0,.21-.88672.97052.97052,0,0,0-.11817-.53711.33929.33929,0,0,0-.28515-.17285.43059.43059,0,0,0-.27149.11524.87031.87031,0,0,0-.23144.3916A1.9308,1.9308,0,0,0,149.315,153.71519Z" fill="#333"/><path d="M89.21542,170.96226l.14258-.8418h2.5166l-.11133.64844a3.24184,3.24184,0,0,0-.415.52637,6.996,6.996,0,0,0-.53711.97461,11.15912,11.15912,0,0,0-.48242,1.26269,9.9726,9.9726,0,0,0-.30078,1.17774H89.317a7.63544,7.63544,0,0,1,.29492-1.19922,9.90811,9.90811,0,0,1,.53614-1.36328,8.469,8.469,0,0,1,.69824-1.18555Z" fill="#333"/><path d="M118.68612,172.14585a1.09668,1.09668,0,0,1-.30176-.37109,1.05889,1.05889,0,0,1-.10156-.46875,1.34121,1.34121,0,0,1,.16406-.64844,1.132,1.132,0,0,1,1.03321-.61914,1.03776,1.03776,0,0,1,.7832.3086,1.27306,1.27306,0,0,1,.1377,1.43945,1.20411,1.20411,0,0,1-.48633.42969,1.10207,1.10207,0,0,1,.35058.42285,1.33992,1.33992,0,0,1,.11622.57031,1.70781,1.70781,0,0,1-.32325,1.02441,1.23086,1.23086,0,0,1-1.0459.55567,1.02824,1.02824,0,0,1-.80371-.35254,1.34637,1.34637,0,0,1-.31543-.93555,1.62334,1.62334,0,0,1,.2168-.84472A1.18647,1.18647,0,0,1,118.68612,172.14585Zm-.04785,1.3711a.63049.63049,0,0,0,.12012.41406.37583.37583,0,0,0,.30273.14453.48653.48653,0,0,0,.4336-.29687,1.41226,1.41226,0,0,0,.16308-.69043.58239.58239,0,0,0-.123-.38965.38167.38167,0,0,0-.30274-.14649.50917.50917,0,0,0-.41211.25977A1.21461,1.21461,0,0,0,118.63827,173.517Zm.33008-2.15039a.53084.53084,0,0,0,.11328.35644.35727.35727,0,0,0,.28125.13086.455.455,0,0,0,.34863-.18066.64588.64588,0,0,0,.15528-.43653.55723.55723,0,0,0-.11231-.36718.35319.35319,0,0,0-.28418-.13575.44909.44909,0,0,0-.35058.17872A.67987.67987,0,0,0,118.96835,171.36656Z" fill="#333"/><path d="M148.50253,173.638l.69824-.07031a.73173.73173,0,0,0,.10938.38574.28756.28756,0,0,0,.2373.10938.47978.47978,0,0,0,.39649-.25879,2.34281,2.34281,0,0,0,.28125-.77246.82074.82074,0,0,1-.51172.19043.89871.89871,0,0,1-.72657-.36036,1.56205,1.56205,0,0,1-.291-1.00781,2.20016,2.20016,0,0,1,.37207-1.26953,1.126,1.126,0,0,1,.96875-.5459.9169.9169,0,0,1,.55957.18262,1.22539,1.22539,0,0,1,.39551.56152,2.88566,2.88566,0,0,1,.14746,1.02344,4.32226,4.32226,0,0,1-.47266,2.15234,1.37231,1.37231,0,0,1-1.17969.83106.87929.87929,0,0,1-.68554-.29785A1.353,1.353,0,0,1,148.50253,173.638Zm1.91992-2.15234a.97169.97169,0,0,0-.11914-.541.353.353,0,0,0-.29785-.17285.45152.45152,0,0,0-.37891.251,1.67585,1.67585,0,0,0-.207.8916.97415.97415,0,0,0,.11621.53418.33922.33922,0,0,0,.28516.17383.43212.43212,0,0,0,.27539-.11817.87887.87887,0,0,0,.23242-.39355A1.937,1.937,0,0,0,150.42245,171.4857Z" fill="#333"/><path d="M89.72811,193.38023l-.6875-.59668.833-1.06348-1.11718-.3164.25781-.957,1.03125.61816-.11914-1.418h.80078l-.12305,1.418,1.0957-.585.24122.95019-1.11719.29.77344,1.06348-.65528.59668-.60156-1.24121Z" fill="#333"/><path d="M117.88339,192.57164a5.20629,5.20629,0,0,1,.28711-1.72559,2.75435,2.75435,0,0,1,.68066-1.16895.99117.99117,0,0,1,.67285-.26367.90931.90931,0,0,1,.76075.40821,2.00432,2.00432,0,0,1,.29978,1.19433,5.235,5.235,0,0,1-.28416,1.72363,2.72565,2.72565,0,0,1-.67773,1.168.99749.99749,0,0,1-.67579.25684.91693.91693,0,0,1-.75878-.40332A1.953,1.953,0,0,1,117.88339,192.57164Zm.7334.18359a1.017,1.017,0,0,0,.09961.52734.29747.29747,0,0,0,.25586.15235.454.454,0,0,0,.35839-.21875,3.11313,3.11313,0,0,0,.37012-1.12891,7.48646,7.48646,0,0,0,.15625-1.28711.93862.93862,0,0,0-.10156-.50293.29914.29914,0,0,0-.25684-.15332.42215.42215,0,0,0-.33886.21484,3.39109,3.39109,0,0,0-.41016,1.248A6.52051,6.52051,0,0,0,118.61679,192.75523Z" fill="#333"/><path d="M148.55624,192.9271h-.3457v-.70117h.46289l.15722-.93359h-.62011v-.70117h.7373l.208-1.23828h.584l-.207,1.23828h.57617l.20508-1.23828h.60059l-.21,1.23828h.3623v.70117h-.48144l-.15821.93359h.63965v.70117h-.75879l-.21,1.23438h-.58105l.2041-1.23438h-.57813l-.20605,1.23438h-.58789Zm.85937-1.63476-.15527.93359h.57715l.15527-.93359Z" fill="#333"/><path d="M148.9078,89.558l.49219-.4663a1.77081,1.77081,0,0,1,.665.86083,1.238,1.238,0,0,1-.08887.89747,1.25834,1.25834,0,0,1-.87988.71826,2.36038,2.36038,0,0,1-1.56738-.24317,2.47565,2.47565,0,0,1-1.2334-1.08984,1.29752,1.29752,0,0,1,.00976-1.1748,1.22692,1.22692,0,0,1,.72754-.66407,1.611,1.611,0,0,1,.8711-.00976l-.10645.665a.88381.88381,0,0,0-.55078.0122.621.621,0,0,0-.34082.32032.69341.69341,0,0,0,.03125.66357,1.8014,1.8014,0,0,0,.834.64746,1.91352,1.91352,0,0,0,1.05371.25488.67094.67094,0,0,0,.53125-.38281.59754.59754,0,0,0,.01172-.48975A1.27994,1.27994,0,0,0,148.9078,89.558Z" fill="#cccec6"/><path d="M159.50351,72.99595l.55664-1.17138a1.994,1.994,0,0,1,.4082-.63331.82467.82467,0,0,1,.46484-.18261,1.1125,1.1125,0,0,1,.97657.44043.82718.82718,0,0,1,.166.44433.87187.87187,0,0,1,.51074-.25634,1.06612,1.06612,0,0,1,.61426.11181,1.24244,1.24244,0,0,1,.56934.5.84083.84083,0,0,1,.12109.59961,5.02407,5.02407,0,0,1-.34668.84619l-.47266.99561Zm.873-.30713.8252.39209.18554-.38916a4.74159,4.74159,0,0,0,.19239-.439.40254.40254,0,0,0-.01563-.29737.465.465,0,0,0-.24023-.21826.47255.47255,0,0,0-.28906-.05224.31951.31951,0,0,0-.20313.10888,4.03207,4.03207,0,0,0-.293.55469Zm1.41895.67383.95215.45215.26074-.54834A1.86642,1.86642,0,0,0,163.19,72.785a.37234.37234,0,0,0-.06641-.24218.566.566,0,0,0-.24609-.20215.57727.57727,0,0,0-.3252-.063.42154.42154,0,0,0-.248.12354,2.06582,2.06582,0,0,0-.28125.48339Z" fill="#cccec6"/><path d="M180.5494,56.56822l-.30371.64013-.92968-.12744-.55567,1.1709.69238.626-.29785.62793-3.02636-2.833.29687-.626Zm-1.92675.416-1.51563-.22461,1.13574,1.02491Z" fill="#cccec6"/></g><rect x="108.06283" y="46.15183" width="1.17392" height="5.69273" fill="#585858"/><path d="M107.16034,46.21345a5.99077,5.99077,0,0,1-.69729,3.34372,3.58188,3.58188,0,0,1-2.37175,1.31706l-.06328.00817V51.85l.082-.00572a4.63174,4.63174,0,0,0,3.15079-1.63008c.50451-.767.59325-1.3655.59325-4.00266v-.05975h-.69611Z" fill="#585858"/><path d="M113.20836,50.87423a3.58152,3.58152,0,0,1-2.37175-1.31706,5.99075,5.99075,0,0,1-.69737-3.34372l.00243-.06162h-.69611v.05975c0,2.63705.08873,3.23553.59325,4.00266a4.63191,4.63191,0,0,0,3.15086,1.63008l.082.00572V50.8824Z" fill="#585858"/><polygon points="133.912 51.935 133.912 46.212 132.831 46.212 132.831 51.935 133.912 51.935 133.912 51.935 133.912 51.935" fill="#585858" fill-rule="evenodd"/><polygon points="118.316 46.212 118.316 47.069 119.816 47.069 119.816 51.935 120.896 51.935 120.896 47.069 122.396 47.069 122.396 46.212 118.316 46.212 118.316 46.212 118.316 46.212" fill="#585858" fill-rule="evenodd"/><path d="M128.77557,47.33142V51.9353h-1.08079V47.06877h0c0-.5945.29635-.85719,1.06332-.85719h1.168a1.78537,1.78537,0,0,1,1.93495,1.67288,1.62094,1.62094,0,0,1-1.22025,1.61756c-.24407.13825-.19174.24886-.08714.42858h0l1.69087,2.0047-1.26382-.00695-1.656-1.977h0a.58189.58189,0,0,1,.1656-.94706c.24873-.1038,1.29-.33179,1.29-1.06455a.84287.84287,0,0,0-.95876-.871h-.73212c-.20922,0-.31378.06912-.31378.26265Z" fill="#585858" fill-rule="evenodd"/><path d="M125.28922,46.77841a.95354.95354,0,0,0-1.74321,0h0l-1.83033,5.15689h1.11564l.50552-1.43784h2.16155l.50551,1.43784h1.11565l-1.83033-5.15689Zm-1.656,2.88951.7844-2.17057.78445,2.17057Z" fill="#585858" fill-rule="evenodd"/><path d="M117.2472,46.77841a.95354.95354,0,0,0-1.74321,0h0l-1.83034,5.15689h1.11565l.50552-1.43784h2.16155l.50551,1.43784h1.11565l-1.83033-5.15689Zm-1.656,2.88951.78444-2.17057.78445,2.17057Z" fill="#585858" fill-rule="evenodd"/><rect x="108.06283" y="45.65183" width="1.17392" height="5.69273" fill="#313131" stroke="#0c0c0c" stroke-miterlimit="10" stroke-width="0.1"/><path d="M107.16034,45.71345a5.99077,5.99077,0,0,1-.69729,3.34372,3.58188,3.58188,0,0,1-2.37175,1.31706l-.06328.00817V51.35l.082-.00572a4.63174,4.63174,0,0,0,3.15079-1.63008c.50451-.767.59325-1.3655.59325-4.00266v-.05975h-.69611Z" fill="#313131" stroke="#0c0c0c" stroke-miterlimit="10" stroke-width="0.1"/><path d="M113.20836,50.37423a3.58152,3.58152,0,0,1-2.37175-1.31706,5.99075,5.99075,0,0,1-.69737-3.34372l.00243-.06162h-.69611v.05975c0,2.63705.08873,3.23553.59325,4.00266a4.63191,4.63191,0,0,0,3.15086,1.63008l.082.00572V50.3824Z" fill="#313131" stroke="#0c0c0c" stroke-miterlimit="10" stroke-width="0.1"/><polygon points="133.912 51.435 133.912 45.712 132.831 45.712 132.831 51.435 133.912 51.435 133.912 51.435 133.912 51.435" fill="#313131" stroke="#0c0c0c" stroke-miterlimit="10" stroke-width="0.1" fill-rule="evenodd"/><polygon points="118.316 45.712 118.316 46.569 119.816 46.569 119.816 51.435 120.896 51.435 120.896 46.569 122.396 46.569 122.396 45.712 118.316 45.712 118.316 45.712 118.316 45.712" fill="#313131" stroke="#0c0c0c" stroke-miterlimit="10" stroke-width="0.1" fill-rule="evenodd"/><path d="M128.77557,46.83142V51.4353h-1.08079V46.56877h0c0-.5945.29635-.85719,1.06332-.85719h1.168a1.78537,1.78537,0,0,1,1.93495,1.67288,1.62094,1.62094,0,0,1-1.22025,1.61756c-.24407.13825-.19174.24886-.08714.42858h0l1.69087,2.0047-1.26382-.00695-1.656-1.977h0a.58189.58189,0,0,1,.1656-.94706c.24873-.1038,1.29-.33179,1.29-1.06455a.84287.84287,0,0,0-.95876-.871h-.73212c-.20922,0-.31378.06912-.31378.26265Z" fill="#313131" stroke="#0c0c0c" stroke-miterlimit="10" stroke-width="0.1" fill-rule="evenodd"/><path d="M125.28922,46.27841a.95354.95354,0,0,0-1.74321,0h0l-1.83033,5.15689h1.11564l.50552-1.43784h2.16155l.50551,1.43784h1.11565l-1.83033-5.15689Zm-1.656,2.88951.7844-2.17057.78445,2.17057Z" fill="#313131" stroke="#0c0c0c" stroke-miterlimit="10" stroke-width="0.1" fill-rule="evenodd"/><path d="M117.2472,46.27841a.95354.95354,0,0,0-1.74321,0h0l-1.83034,5.15689h1.11565l.50552-1.43784h2.16155l.50551,1.43784h1.11565l-1.83033-5.15689Zm-1.656,2.88951.78444-2.17057.78445,2.17057Z" fill="#313131" stroke="#0c0c0c" stroke-miterlimit="10" stroke-width="0.1" fill-rule="evenodd"/><path d="M118.69469,22.68937c.11221-1.45619.63705-9.9799-5.40509-15.54233A17.79225,17.79225,0,0,0,101.528,2.75237C87.14711,3.09873,82.72217,22.98265,67.86136,24.5857c-5.51511.59493-10.22847-1.56947-13-3.16665" fill="none" stroke="#211e1e" stroke-miterlimit="10" stroke-width="5.5"/><path d="M124.48027,39.02186a1.43724,1.43724,0,0,1-.67575,1.30464c-1.22781.76406-3.721,2.20066-5.10983,2.20066s-3.882-1.4366-5.10984-2.20066a1.43726,1.43726,0,0,1-.67575-1.30464l.93219-16.386a1.43955,1.43955,0,0,1,1.06876-1.3114,14.35162,14.35162,0,0,1,7.56927,0,1.43955,1.43955,0,0,1,1.06876,1.3114Z" fill="#202020"/><path d="M124.86135,41.25432a.62427.62427,0,0,1-.48629.61041,18.61935,18.61935,0,0,1-11.36075,0,.62427.62427,0,0,1-.48629-.61041V35.45255a.62356.62356,0,0,1,.53169-.61917,38.52467,38.52467,0,0,1,11.27,0,.62355.62355,0,0,1,.53169.61917Z" fill="url(#Dégradé_sans_nom_156)"/><path d="M124.50924,33.47908a.28365.28365,0,0,1-.331.29466,30.4752,30.4752,0,0,0-10.96721,0,.28365.28365,0,0,1-.331-.29466l.08548-1.6231a.28376.28376,0,0,1,.23507-.2647,30.60939,30.60939,0,0,1,10.988,0,.28375.28375,0,0,1,.23506.2647Z" fill="url(#Dégradé_sans_nom_156-2)"/><path d="M124.33229,30.15017a.28339.28339,0,0,1-.32832.2951,30.44923,30.44923,0,0,0-10.61857,0,.28339.28339,0,0,1-.32832-.2951l.07864-1.49328a.28293.28293,0,0,1,.23574-.26484,30.58744,30.58744,0,0,1,10.64645,0,.28293.28293,0,0,1,.23574.26484Z" fill="url(#Dégradé_sans_nom_156-3)"/><path d="M124.13929,26.81685a.28294.28294,0,0,1-.32613.29542,30.42066,30.42066,0,0,0-10.23695,0,.28293.28293,0,0,1-.32612-.29542l.07141-1.3561a.27941.27941,0,0,1,.23383-.2646,30.56483,30.56483,0,0,1,10.27872,0,.27941.27941,0,0,1,.23382.2646Z" fill="url(#Dégradé_sans_nom_156-4)"/><path d="M123.98378,23.50181a.28261.28261,0,0,1-.32443.29565,30.39867,30.39867,0,0,0-9.92932,0,.28261.28261,0,0,1-.32444-.29565l.06577-1.249a.27949.27949,0,0,1,.23517-.26483,30.54491,30.54491,0,0,1,9.97632,0,.27949.27949,0,0,1,.23516.26483Z" fill="url(#Dégradé_sans_nom_156-5)"/></svg>