<svg xmlns="http://www.w3.org/2000/svg" viewBox="0 0 1000 114"><g id="Layer_3" data-name="Layer 3"><polygon points="615.16 43.31 538.97 43.31 543.94 27.44 497.16 12.79 483.28 57.09 383.85 57.09 383.85 33.35 355.52 33.35 355.52 57.09 353.98 57.09 353.98 82.37 475.37 82.37 472.67 90.96 519.45 105.61 525.77 85.43 615.16 85.43 615.16 43.31" fill="#fff"/></g><g id="Capa_1" data-name="Capa 1"><text id="_Group_" data-name="&lt;Group&gt;" stroke-linecap="round" font-size="0.72" fill="#e13132" stroke="#fff" transform="translate(645.36 68.52)" stroke-linejoin="round" stroke-width="7" font-family="ArialMT, Arial" style="isolation:isolate">I don’t like bugs!</text><path d="M347.22,73.68a3.5,3.5,0,0,1-3.5-3.5L343.55,9a3.51,3.51,0,0,1,2-3.17,3.38,3.38,0,0,1,1.49-.34,3.5,3.5,0,0,1,2.23.81l41.12,34-.13-31.76A3.5,3.5,0,0,1,393.77,5h10.14a3.5,3.5,0,0,1,3.5,3.5v61a3.5,3.5,0,0,1-2,3.16,3.46,3.46,0,0,1-1.5.34,3.55,3.55,0,0,1-2.21-.78L359.53,38V70.18a3.5,3.5,0,0,1-3.5,3.5Z" fill="#fff"/><path d="M403.91,8.5v61L356,30.61V70.18h-8.81L347.05,9l46.88,38.74L393.77,8.5h10.14m0-7H393.77a7,7,0,0,0-7,7l.1,24.28L351.51,3.6A7,7,0,0,0,340.05,9l.17,61.18a7,7,0,0,0,7,7H356a7,7,0,0,0,7-7V45.32L399.5,74.94a7,7,0,0,0,11.41-5.43V8.5a7,7,0,0,0-7-7Z" fill="#fff"/><path d="M466.42,74a3.49,3.49,0,0,1-3.1-1.88l-6-11.42H431.08l-6.32,11.48A3.49,3.49,0,0,1,421.7,74H410.39a3.5,3.5,0,0,1-3-5.28l4.72-8h-1a3.5,3.5,0,0,1-3.5-3.5V47.9a3.5,3.5,0,0,1,3.5-3.5h9.73L441.24,7.3a3.54,3.54,0,0,1,3.06-1.81h0a3.48,3.48,0,0,1,3.05,1.8L481.61,68.8A3.5,3.5,0,0,1,478.55,74Zm-17.2-29.78-5.08-9.31-5.08,9.31Z" fill="#fff"/><path d="M444.31,9l34.24,61.52H466.42l-7-13.3H429l-7.31,13.3H410.39l7.81-13.3h-7.14V47.9h11.8L444.31,9M433.17,47.73h21.94l-11-20.11-11,20.11M444.31,2h0a7,7,0,0,0-6.11,3.63L418.73,40.9h-7.67a7,7,0,0,0-7,7v9.31a7,7,0,0,0,2.75,5.57L404.36,67a7,7,0,0,0,6,10.55H421.7a7,7,0,0,0,6.13-3.63l5.32-9.67H455.2l5,9.55a7,7,0,0,0,6.2,3.75h12.13a7,7,0,0,0,6.12-10.41L450.42,5.59A7,7,0,0,0,444.31,2Z" fill="#fff"/><path d="M612.88,74a3.51,3.51,0,0,1-3.5-3.49l-.11-23.79-17.47,21A3.5,3.5,0,0,1,589.12,69h0a3.52,3.52,0,0,1-2.68-1.25L568.84,46.86V70.51a3.5,3.5,0,0,1-3.5,3.5h-10a3.5,3.5,0,0,1-3.5-3.5V9.16a3.5,3.5,0,0,1,2.28-3.28,3.49,3.49,0,0,1,3.87,1l31.25,36.3,31.6-37.12a3.51,3.51,0,0,1,2.66-1.23,3.36,3.36,0,0,1,1.21.22A3.48,3.48,0,0,1,627,8.33V70.51a3.5,3.5,0,0,1-3.5,3.5Z" fill="#fff"/><path d="M623.52,8.33V70.51H612.88l-.16-33.42L589.11,65.52,565.34,37.26V70.51h-10V9.16l33.92,39.4L623.52,8.33m0-7a7,7,0,0,0-5.33,2.46l-28.94,34L560.67,4.6a7,7,0,0,0-5.31-2.44,6.91,6.91,0,0,0-2.44.44,7,7,0,0,0-4.56,6.56V70.51a7,7,0,0,0,7,7h10a7,7,0,0,0,7-7V56.45L583.75,70a7,7,0,0,0,5.36,2.49h0A7,7,0,0,0,594.49,70l11.32-13.63.07,14.18a7,7,0,0,0,7,7h10.64a7,7,0,0,0,7-7V8.33a7,7,0,0,0-7-7Z" fill="#fff"/><rect x="639.47" y="4.16" width="16.97" height="69.84" rx="3.5" fill="#fff"/><path d="M653,7.66V70.51H643V7.66h10m0-7H643a7,7,0,0,0-7,7V70.51a7,7,0,0,0,7,7h10a7,7,0,0,0,7-7V7.66a7,7,0,0,0-7-7Z" fill="#fff"/><path d="M511.64,77.33a36.92,36.92,0,1,1,36.91-36.91A37,37,0,0,1,511.64,77.33Zm0-56.69a19.86,19.86,0,1,0,19.94,19.78A19.8,19.8,0,0,0,511.64,20.64Z" fill="#fff"/><path d="M511.64,7a33.42,33.42,0,1,1-33.42,33.42A33.41,33.41,0,0,1,511.64,7m0,56.86a23.36,23.36,0,1,0-23.28-23.44,23.42,23.42,0,0,0,23.28,23.44m0-63.86a40.42,40.42,0,1,0,40.41,40.42A40.46,40.46,0,0,0,511.64,0Zm0,56.86a16.36,16.36,0,1,1,16.44-16.44,16.38,16.38,0,0,1-16.44,16.44Z" fill="#fff"/><rect x="343.55" y="77.02" width="312.9" height="33.48" rx="3.5" fill="#fff"/><path d="M653,80.52V107H347.05V80.52H653m0-7H347.05a7,7,0,0,0-7,7V107a7,7,0,0,0,7,7H653a7,7,0,0,0,7-7V80.52a7,7,0,0,0-7-7Z" fill="#fff"/><text id="_Group_2" data-name="&lt;Group&gt;" transform="translate(645.36 68.52)" font-size="0.72" fill="#e13132" font-family="ArialMT, Arial" style="isolation:isolate">I don’t like bugs!</text><polyline points="403.91 69.51 403.91 8.5 393.77 8.5 393.93 47.73 347.05 8.99 347.22 70.17 356.03 70.17 356.03 30.61 403.91 69.51" fill="#020101"/><path d="M410.39,70.51l7.81-13.3h-7.14V47.9h11.8L444.31,9l34.24,61.52H466.42l-7-13.3H429l-7.31,13.3H410.39m22.78-22.78h21.94l-11-20.11-11,20.11" fill="#020101"/><polyline points="565.34 70.51 555.36 70.51 555.36 9.16 589.28 48.56 623.52 8.33 623.52 70.51 612.88 70.51 612.72 37.09 589.11 65.52 565.34 37.26 565.34 70.51" fill="#020101"/><rect x="642.97" y="7.66" width="9.97" height="62.84" fill="#020101"/><path d="M478.22,40.42a33.42,33.42,0,1,1,33.42,33.41,33.42,33.42,0,0,1-33.42-33.41m33.42,23.44a23.36,23.36,0,1,0-23.28-23.44,23.42,23.42,0,0,0,23.28,23.44" fill="#e5542e"/><rect x="347.05" y="80.52" width="305.9" height="26.48" fill="#e5542e"/><path d="M367.57,91.41v0a1.72,1.72,0,0,0-.7-1.6,7.21,7.21,0,0,0-3.17-.43h-3c-1.76,0-2.89.21-3.38.63s-.74,1.32-.74,2.69V95a3.11,3.11,0,0,0,.83,2.5,5.63,5.63,0,0,0,3.31.68h3a8.11,8.11,0,0,0,3.06-.4,1.42,1.42,0,0,0,.84-1.39,4,4,0,0,0-.05-.45v-.06H361.5V92.47h11.4V98a3.57,3.57,0,0,1-1.76,3.38c-1.17.66-3.21,1-6.12,1h-5.73a19.13,19.13,0,0,1-3.89-.29,5.21,5.21,0,0,1-2.13-1,4.62,4.62,0,0,1-1.48-2,8.11,8.11,0,0,1-.46-3v-4.6q0-3.61,1.71-5t6.23-1.43H365a25,25,0,0,1,4.1.25,4.92,4.92,0,0,1,2.09.84,3.63,3.63,0,0,1,1.17,1.64,7.72,7.72,0,0,1,.38,2.6c0,.25,0,.44,0,.58s0,.26,0,.37Z" fill="#fff"/><path d="M396.41,86.69c-1.16-.9-3-1.35-5.61-1.35H376v16.84h16.28a6.47,6.47,0,0,0,4.46-1.29,5.37,5.37,0,0,0,1.4-4.1V91A5.08,5.08,0,0,0,396.41,86.69ZM393,95.33a2.63,2.63,0,0,1-.76,2.09,3.58,3.58,0,0,1-2.4.67h-8.71v-8.6h8.07a4.85,4.85,0,0,1,2.88.69,2.57,2.57,0,0,1,.92,2.18Z" fill="#fff"/><rect x="401.28" y="93.98" width="7.63" height="4.31" fill="#fff"/><path d="M429.23,95.53a3.26,3.26,0,0,0,2.16-1.43,6.37,6.37,0,0,0,.65-3.24c0-2.1-.48-3.54-1.45-4.34s-2.78-1.18-5.45-1.18H411.6v16.84h5.16V97.87h7.67a3.16,3.16,0,0,1,1.85.38,1.62,1.62,0,0,1,.47,1.36v2.57h5.15V98.73a3.13,3.13,0,0,0-.67-2.08A3.53,3.53,0,0,0,429.23,95.53Zm-2.84-2.36a1.85,1.85,0,0,1-1.45.48h-8.18V89.53h8.18a1.9,1.9,0,0,1,1.42.46,2,2,0,0,1,.44,1.44A2.77,2.77,0,0,1,426.39,93.17Z" fill="#fff"/><path d="M457.28,88.25a4.09,4.09,0,0,0-1.38-1.94,5.4,5.4,0,0,0-2.26-.91,24.86,24.86,0,0,0-4.29-.27H443.3a24.8,24.8,0,0,0-4.28.27,5.47,5.47,0,0,0-2.25.91,4,4,0,0,0-1.41,2,10.62,10.62,0,0,0-.43,3.34v4.6a9.35,9.35,0,0,0,.43,3.1,4,4,0,0,0,1.41,1.9,5.36,5.36,0,0,0,2.23.91,24.62,24.62,0,0,0,4.32.27h6a24.81,24.81,0,0,0,4.31-.27,5.35,5.35,0,0,0,2.24-.91,4.19,4.19,0,0,0,1.38-1.94,9.6,9.6,0,0,0,.43-3.16v-4.7A9.72,9.72,0,0,0,457.28,88.25ZM452.49,95a3,3,0,0,1-.89,2.54c-.59.46-1.8.69-3.62.69h-3.27a6.65,6.65,0,0,1-3.63-.68,3,3,0,0,1-.91-2.5V92.66A3.23,3.23,0,0,1,441,90c.58-.46,1.79-.69,3.65-.69H448c1.82,0,3,.23,3.62.69a3,3,0,0,1,.89,2.54Z" fill="#fff"/><polygon points="465.82 102.18 460.82 102.18 460.82 85.34 468.41 85.34 474.42 95.86 480.53 85.34 488.02 85.34 488.02 102.18 483.04 102.18 483.04 90.18 476.09 102.18 472.73 102.18 465.82 90.18 465.82 102.18" fill="#fff"/><path d="M505.88,96.58H511v.31a1.48,1.48,0,0,0,.47,1.28,3.77,3.77,0,0,0,1.94.33h6.46a2.18,2.18,0,0,0,1.36-.32,1.28,1.28,0,0,0,.41-1.07,1.23,1.23,0,0,0-.47-1.08,4.53,4.53,0,0,0-2-.44L511,95.39c-2-.06-3.39-.44-4.1-1.15s-1.07-2-1.07-3.87a8.42,8.42,0,0,1,.28-2.39,3.69,3.69,0,0,1,.91-1.56,4.09,4.09,0,0,1,1.92-1,17.55,17.55,0,0,1,3.87-.3h7.85a6.61,6.61,0,0,1,4.21,1.07,4.23,4.23,0,0,1,1.28,3.45V90c0,.12,0,.31,0,.58h-5v-.06a1.71,1.71,0,0,0-.42-1.26,1.76,1.76,0,0,0-1.28-.42h-5.93a4.14,4.14,0,0,0-1.95.3,1.1,1.1,0,0,0-.48,1,1.23,1.23,0,0,0,.43,1,3.2,3.2,0,0,0,1.59.41l8.46.14c1.93,0,3.29.49,4.08,1.3s1.18,2.21,1.18,4.18a6.93,6.93,0,0,1-.43,2.71,4,4,0,0,1-1.47,1.64,4.94,4.94,0,0,1-1.85.62,23.32,23.32,0,0,1-3.37.19h-6.85q-4.23,0-5.65-1c-.95-.63-1.42-1.8-1.42-3.52,0-.1,0-.27,0-.49S505.86,96.91,505.88,96.58Z" fill="#fff"/><polygon points="542.48 102.18 537.33 102.18 537.33 96.13 528.04 85.34 534.36 85.34 539.89 92.03 545.69 85.34 551.79 85.34 542.48 96.13 542.48 102.18" fill="#fff"/><path d="M553.4,96.58h5.09v.31a1.48,1.48,0,0,0,.46,1.28,3.77,3.77,0,0,0,1.94.33h6.47a2.16,2.16,0,0,0,1.35-.32,1.25,1.25,0,0,0,.41-1.07,1.23,1.23,0,0,0-.47-1.08,4.53,4.53,0,0,0-2-.44l-8.08-.19c-2-.06-3.39-.44-4.1-1.15s-1.07-2-1.07-3.87a8.8,8.8,0,0,1,.28-2.39,3.79,3.79,0,0,1,.91-1.56,4.09,4.09,0,0,1,1.92-1,17.62,17.62,0,0,1,3.87-.3h7.86a6.6,6.6,0,0,1,4.2,1.07,4.23,4.23,0,0,1,1.28,3.45V90c0,.12,0,.31,0,.58h-5v-.06a1.71,1.71,0,0,0-.42-1.26,1.76,1.76,0,0,0-1.28-.42h-5.92a4.19,4.19,0,0,0-2,.3,1.1,1.1,0,0,0-.48,1,1.23,1.23,0,0,0,.43,1,3.2,3.2,0,0,0,1.59.41l8.46.14c1.93,0,3.29.49,4.08,1.3s1.18,2.21,1.18,4.18a6.75,6.75,0,0,1-.43,2.71,3.88,3.88,0,0,1-1.47,1.64,5,5,0,0,1-1.84.62,23.42,23.42,0,0,1-3.37.19h-6.86c-2.81,0-4.7-.32-5.65-1s-1.42-1.8-1.42-3.52c0-.1,0-.27,0-.49S553.38,96.91,553.4,96.58Z" fill="#fff"/><polygon points="588.92 102.18 583.78 102.18 583.78 89.47 576.73 89.47 576.73 85.34 595.97 85.34 595.97 89.47 588.92 89.47 588.92 102.18" fill="#fff"/><polygon points="617.84 89.44 604.57 89.44 604.57 91.99 617.07 91.99 617.07 95.53 604.57 95.53 604.57 98.11 618.04 98.11 618.04 102.18 599.43 102.18 599.43 85.34 617.84 85.34 617.84 89.44" fill="#fff"/><polygon points="626.47 102.18 621.47 102.18 621.47 85.34 629.06 85.34 635.07 95.86 641.18 85.34 648.67 85.34 648.67 102.18 643.7 102.18 643.7 90.18 636.74 102.18 633.38 102.18 626.47 90.18 626.47 102.18" fill="#fff"/></g></svg>