<svg id="Layer_1" data-name="Layer 1" xmlns="http://www.w3.org/2000/svg" viewBox="0 0 1000 114"><path d="M501.48,110.5a34,34,0,0,1-8.85-1.17,34.42,34.42,0,0,1-25.28-30.26l-22.44,29.21a3.5,3.5,0,0,1-2.78,1.37H416.8a3.5,3.5,0,0,1-3.5-3.5V99.87a3.51,3.51,0,0,1,2.24-3.27l16.57-6.43L454.9,60.91a28.69,28.69,0,0,1,1.43-40.16l-5.21-8.46a3.51,3.51,0,0,1,1.15-4.82L457.88,4a3.5,3.5,0,0,1,4.82,1.15L468.12,14a28.63,28.63,0,0,1,14.56-.36l100.78,7.7a3.49,3.49,0,0,1,3.23,3.49v34a3.49,3.49,0,0,1-3.24,3.49L548,64.85v7.53a3.49,3.49,0,0,1-3.5,3.5h-8.7a33.94,33.94,0,0,1-1.16,9.22A34.33,34.33,0,0,1,501.48,110.5Zm-1.35-13.63c.48,0,.95,0,1.42,0a20.52,20.52,0,0,0,11.35-3.43,3.42,3.42,0,0,1-1.77.49,3.5,3.5,0,0,1-2.48-1L505,89.32l-1.33,5a3.5,3.5,0,0,1-3.38,2.6Zm-7.57-2a21,21,0,0,0,7.41,2,3.78,3.78,0,0,1-.57-.1L493,95.05A4.34,4.34,0,0,1,492.56,94.89ZM483,85.55c.18.35.37.69.56,1a20.47,20.47,0,0,0,8.69,8.16,3.43,3.43,0,0,1-1.35-1.32,3.46,3.46,0,0,1-.35-2.65l1.33-5-5,1.33a3.47,3.47,0,0,1-2.65-.35A3.62,3.62,0,0,1,483,85.55Zm35.25,2.74L513.6,93a2.28,2.28,0,0,1-.33.29,20.87,20.87,0,0,0,5.15-5.12Zm0-5a3.52,3.52,0,0,1,.66,4,20.72,20.72,0,0,0,2.55-5.8,20.45,20.45,0,0,0,.69-6.18,3.51,3.51,0,0,1-2.57,3l-5,1.33ZM480.88,78.1A20.53,20.53,0,0,0,482.75,85c0-.12-.08-.23-.11-.35l-1.71-6.37C480.91,78.23,480.9,78.16,480.88,78.1ZM484,65.2a21.24,21.24,0,0,0-2.46,5.68,21,21,0,0,0-.7,6.23A3.51,3.51,0,0,1,483.4,74l5-1.33L484.74,69A3.52,3.52,0,0,1,484,65.2Zm38.08,8.89h0a20.45,20.45,0,0,0-1.68-6.24ZM511.3,58a3.52,3.52,0,0,1,1.14,3.59l-1.33,5,5-1.33a3.61,3.61,0,0,1,.91-.12,3.51,3.51,0,0,1,2.7,1.28A20.7,20.7,0,0,0,511.3,58Zm-21.86,1.36a20.49,20.49,0,0,0-4.71,4.72Zm2.43-1a3.48,3.48,0,0,1,2.47,1L498,63.06l1.33-5a3.52,3.52,0,0,1,2.79-2.55h-.65V52l0,3.5-.77,0a20.57,20.57,0,0,0-10.2,3.14A3.52,3.52,0,0,1,491.87,58.4Zm17.89-1.13a21.25,21.25,0,0,0-2.91-1,20.23,20.23,0,0,0-3.05-.58Z" fill="#333"/><path d="M459.72,7l6.89,11.21a25.19,25.19,0,0,1,15.52-1.13l101.06,7.73v34l-38.73,2.81V72.38H532a30.77,30.77,0,1,1-61,0h-2.9l-25.94,33.77H416.81V99.87l17.47-6.78,25.3-32.49a25.2,25.2,0,0,1,1.3-39.13l-6.78-11L459.72,7h0m41.69,45h0l-.89,0a24.19,24.19,0,0,0-5.28,47.53,24.59,24.59,0,0,0,6.31.83,24.19,24.19,0,0,0-.1-48.38h0m0,0h0m1.27,7,6.37,1.71-2.9,10.82L517,68.63l1.7,6.37-10.82,2.9,7.92,7.92-4.66,4.66-7.92-7.92-2.9,10.82-6.36-1.71,2.9-10.82L486,83.75l-1.71-6.36,10.82-2.9-7.92-7.93,4.66-4.66,7.92,7.93L502.69,59h0m-43-59a6.9,6.9,0,0,0-3.66,1l-5.61,3.45a7,7,0,0,0-2.3,9.63l3.78,6.15A32.21,32.21,0,0,0,450.41,61L429.94,87.26l-15.67,6.08a7,7,0,0,0-4.46,6.53v6.28a7,7,0,0,0,7,7h25.32a7,7,0,0,0,5.55-2.73l17.74-23.09a37.92,37.92,0,0,0,26.3,25.38A37.76,37.76,0,0,0,538,86a38.69,38.69,0,0,0,1.16-6.63h5.32a7,7,0,0,0,7-7V68.1l32.24-2.34a7,7,0,0,0,6.49-7v-34a7,7,0,0,0-6.46-7L483.21,10.15A32.05,32.05,0,0,0,469.77,10l-4.09-6.65a7,7,0,0,0-6-3.33Zm41.7,59h0Z" fill="#fff"/><path d="M459.72,7l-5.62,3.45,6.78,11a25.2,25.2,0,0,0-1.3,39.13l-25.3,32.49-17.47,6.78v6.28h25.32l25.94-33.77H471a30.77,30.77,0,1,0,61,0h12.44V61.59l38.73-2.81v-34L482.13,17.08a25.19,25.19,0,0,0-15.52,1.13L459.72,7Zm41.69,45a24.53,24.53,0,0,1,6.35.84,24.13,24.13,0,1,1-7.24-.82l.89,0Zm1.28,7-2.9,10.83-7.92-7.93-4.66,4.66,7.92,7.93-10.82,2.9L486,83.75l10.82-2.9-2.9,10.82,6.36,1.71,2.9-10.82,7.92,7.92,4.66-4.66-7.92-7.92L518.68,75,517,68.63l-10.82,2.9,2.9-10.82L502.69,59Z" fill="#333"/></svg>