<svg xmlns="http://www.w3.org/2000/svg" viewBox="0 0 184.697 184.696"><path d="M92.349 0C41.428 0 0 41.427 0 92.348s41.428 92.349 92.349 92.349 92.349-41.428 92.349-92.349S143.27 0 92.349 0zm0 108.782c-9.062 0-16.435-7.373-16.435-16.435 0-9.062 7.373-16.434 16.435-16.434s16.435 7.373 16.435 16.434c-.001 9.063-7.374 16.435-16.435 16.435z" fill="#efece6"/><path d="M92.349 2.834c-49.357 0-89.514 40.156-89.514 89.514s40.156 89.514 89.514 89.514 89.514-40.155 89.514-89.514c-.001-49.358-40.156-89.514-89.514-89.514zm0 105.948c-9.062 0-16.435-7.373-16.435-16.435 0-9.062 7.373-16.434 16.435-16.434s16.435 7.373 16.435 16.434c-.001 9.063-7.374 16.435-16.435 16.435z" fill="#1f9dba"/><path d="M92.349 108.782c-9.062 0-16.435-7.373-16.435-16.435 0-9.062 7.373-16.434 16.435-16.434s16.435 7.373 16.435 16.434c-.001 9.063-7.374 16.435-16.435 16.435zm15.074-16.434c0-8.312-6.762-15.074-15.074-15.074-8.312 0-15.073 6.762-15.073 15.074 0 8.312 6.762 15.074 15.073 15.074 8.312 0 15.074-6.762 15.074-15.074z" fill="#efede8"/><path d="M92.349 103.436v-.15a10.9 10.9 0 0 1-7.73-3.207 10.908 10.908 0 0 1-3.208-7.731c0-3.016 1.227-5.749 3.208-7.73a10.902 10.902 0 0 1 7.73-3.207 10.9 10.9 0 0 1 7.73 3.207 10.907 10.907 0 0 1 3.208 7.73c0 3.016-1.227 5.749-3.208 7.731a10.902 10.902 0 0 1-7.73 3.207v.3c6.196 0 11.238-5.041 11.238-11.238 0-6.196-5.041-11.237-11.238-11.237-6.196 0-11.238 5.041-11.238 11.237 0 6.197 5.041 11.238 11.238 11.238v-.15z" fill="#bcbcbc"/><path d="M92.349 7.31c-46.89 0-85.038 38.148-85.038 85.038 0 46.891 38.148 85.038 85.038 85.038 46.89 0 85.038-38.147 85.038-85.038 0-46.89-38.148-85.038-85.038-85.038zm0 101.472c-9.062 0-16.435-7.373-16.435-16.435 0-9.062 7.373-16.434 16.435-16.434s16.435 7.373 16.435 16.434c-.001 9.063-7.374 16.435-16.435 16.435z" fill="#fff"/><path d="M28.564 29.605c15.287 7.627 38.187 12.474 63.784 12.474s48.498-4.847 63.785-12.474C139.885 13.089 117.292 2.834 92.348 2.834c-24.943 0-47.536 10.255-63.784 26.771z" fill="#fff"/><path d="M28.564 29.605c15.287 7.627 38.187 12.474 63.784 12.474s48.498-4.847 63.785-12.474" fill="none" stroke="#999" stroke-miterlimit="10"/><g fill="#888c88"><path d="M113.375 17.286v-.131h.934v.131h-.389v1.037h-.155v-1.037h-.39zM114.654 17.155l.368.982.37-.982h.213v1.168h-.147v-.972h-.003l-.365.972h-.132l-.365-.972h-.003v.972h-.147v-1.168h.211z"/></g><g fill="#1f9dba"><path d="M104.231 21.6c0 2.968 3.504 2.544 3.504.468v-4.913h-3.504V21.6z"/><path d="M99.399 24.717c0 1.465 1.01 2.338 2.494 2.338h8.417c1.253 0 2.263-.86 2.263-2.107v-6.154c0-.748-.555-1.559-1.247-1.559h-1.951v5.062c0 3.847-6.702 3.816-6.702.081v-5.225h-1.484c-.966 0-1.796.611-1.796 1.559l.006 6.005z"/></g><g fill="#888c88"><path d="M87.747 18.626c0 .798.673 1.471 1.515 1.471.885 0 1.577-.655 1.577-1.471 0-.823-.692-1.471-1.577-1.471-.842-.006-1.515.648-1.515 1.471zM90.608 29.992V21.55h-2.606v8.442h2.606zM93.034 18.626c0 .798.692 1.471 1.54 1.471.86 0 1.559-.655 1.559-1.471 0-.823-.692-1.471-1.559-1.471-.848-.006-1.54.648-1.54 1.471zM95.895 29.992V21.55h-2.612v8.442h2.612zM83.85 17.866l-2.276 8.947s-1.746-6.715-2.045-7.687c-.274-.948-.86-1.365-1.683-1.365-.842 0-1.409.424-1.708 1.365-.274.966-2.02 7.687-2.02 7.687l-2.288-8.947h-2.737s2.631 9.539 2.993 10.655c.274.86.948 1.559 1.914 1.559 1.135 0 1.665-.823 1.895-1.559.256-.761 1.958-7.051 1.958-7.051s1.708 6.297 1.939 7.051c.256.736.779 1.559 1.895 1.559.991 0 1.64-.692 1.939-1.559.355-1.116 2.993-10.655 2.993-10.655H83.85z"/></g><g fill="#cdd4d4"><path d="M82.434 159.625c-2.105-.001-3.513-1.536-3.513-3.4 0-1.862 1.41-3.417 3.51-3.411h19.837c2.099-.006 3.509 1.549 3.509 3.411 0 1.863-1.407 3.399-3.512 3.4H82.434zm.006-5.973c-1.667.003-2.69 1.151-2.69 2.569 0 1.419 1.017 2.575 2.69 2.569h19.817c1.674.006 2.69-1.15 2.69-2.569 0-1.418-1.023-2.566-2.69-2.569H82.44z"/><path d="M81.585 154.611h.971l1.343 2.236v-2.236h.962v3.207H83.9l-1.349-2.236v2.236h-.965l-.001-3.207zM90.095 154.941h.938v.432h.507v.317h-.507l.001 2.128h-.939v-2.128h-.509v-.316l.509-.001v-.432zM85.396 155.685h.937v2.133h-.937v-2.133zM85.394 154.61h.939v.656h-.939v-.656zM101.809 155.54c-.756 0-1.369.535-1.369 1.197 0 .661.613 1.197 1.369 1.197s1.368-.536 1.368-1.197c0-.662-.612-1.197-1.368-1.197m.376 1.194l-.001.452c0 .34-.195.48-.383.48s-.384-.14-.384-.48v-.46l.001-.444c0-.339.197-.478.383-.478.187 0 .383.139.383.478l.001.452zM99.217 156.741v-.382c0-.33-.221-.413-.367-.413-.149 0-.367.083-.367.413v.76c0 .33.218.415.367.415.145 0 .367-.085.367-.415v-.378zm-.006-2.13h.924v3.206h-.926v-.123a1.103 1.103 0 0 1-1.078.081 1.14 1.14 0 0 1-.64-1.058c0-.563.515-1.177 1.19-1.116.222.02.38.104.53.191v-1.181zM88.526 155.587c.351-.01 1.06.225 1.055 1.069v1.161h-.93v-1.4c0-.186-.173-.392-.428-.392s-.445.206-.445.392l.001 1.4h-.93l-.001-2.132.93-.001v.224a1.12 1.12 0 0 1 .748-.321M96.136 155.587c.35-.01 1.061.225 1.056 1.069v1.161h-.931v-1.4c0-.186-.173-.392-.428-.392s-.444.206-.444.392l.001 1.4h-.93v-2.132l.93-.001v.224c.179-.175.437-.312.746-.321M93.19 157.071v.13c0 .39-.249.477-.387.477s-.392-.087-.392-.477l.001-.44s1.764.001 1.764-.001c0-.661-.62-1.208-1.382-1.208s-1.379.535-1.379 1.197.617 1.197 1.379 1.197c.632 0 1.166-.371 1.329-.875h-.933zm-.778-.643c-.002-.187.002-.311.062-.418a.38.38 0 0 1 .33-.195.38.38 0 0 1 .329.195c.06.107.063.231.062.418h-.783zM103.371 154.963c.091 0 .173-.006.173-.119 0-.09-.08-.107-.155-.107h-.146v.225h.128zm-.128.41h-.107v-.73h.269c.168 0 .251.063.251.208 0 .131-.08.187-.184.201l.201.321h-.12l-.187-.317h-.123v.317z"/><path d="M103.372 155.536c.279 0 .498-.224.498-.529 0-.3-.219-.525-.498-.525-.281 0-.501.225-.501.525 0 .305.22.529.501.529m-.624-.529a.623.623 0 1 1 1.245 0 .623.623 0 0 1-.621.635.624.624 0 0 1-.624-.635"/></g><g><path d="M133.674 86.974c4.23 0 7.66 2.389 7.66 5.335 0 2.947-3.43 5.336-7.66 5.336s-7.66-2.389-7.66-5.336c0-2.946 3.43-5.335 7.66-5.335z" fill="#fff"/><g fill="#a08554"><path d="M132.026 95.46h.237v.012c0 .074.023.131.069.169.046.039.113.058.201.058.068 0 .12-.014.157-.042a.14.14 0 0 0 .055-.119c0-.043-.012-.075-.036-.095a.323.323 0 0 0-.147-.047l-.164-.023c-.12-.018-.209-.056-.265-.116-.057-.059-.085-.144-.085-.252 0-.129.041-.233.122-.314a.44.44 0 0 1 .324-.121.48.48 0 0 1 .339.114.406.406 0 0 1 .122.313v.011h-.231a.207.207 0 0 0-.065-.148c-.038-.033-.092-.049-.162-.049a.247.247 0 0 0-.151.04.129.129 0 0 0-.054.111c0 .038.01.067.031.084.021.018.073.033.155.046l.172.026a.427.427 0 0 1 .262.121.38.38 0 0 1 .084.263c0 .146-.042.257-.126.333-.084.076-.206.114-.368.114-.154 0-.272-.04-.355-.12-.083-.08-.124-.194-.124-.341l.003-.028zM133.924 95.596a.493.493 0 0 1-.148.261.376.376 0 0 1-.256.092.365.365 0 0 1-.303-.141.604.604 0 0 1-.112-.383c0-.161.037-.289.112-.382a.366.366 0 0 1 .304-.14c.133 0 .236.049.308.146.072.097.108.235.108.415v.042h-.591a.29.29 0 0 0 .049.171.15.15 0 0 0 .125.064.155.155 0 0 0 .105-.037.212.212 0 0 0 .063-.105l.236-.003zm-.572-.296l.346.001a.228.228 0 0 0-.052-.143.153.153 0 0 0-.121-.052.155.155 0 0 0-.121.053.221.221 0 0 0-.052.141zM134.843 95.757c0 .038.003.068.008.088a.1.1 0 0 0 .025.047v.022h-.236l-.011-.107a.361.361 0 0 1-.126.107.364.364 0 0 1-.162.035.292.292 0 0 1-.225-.088.332.332 0 0 1-.082-.237c0-.093.025-.162.074-.208.049-.046.134-.076.254-.09l.066-.006c.138-.014.207-.051.207-.113 0-.037-.013-.065-.04-.083a.214.214 0 0 0-.119-.027c-.053 0-.093.013-.118.039-.025.026-.038.067-.039.123l-.224.001v-.004c0-.115.034-.203.101-.263s.164-.091.292-.091c.063 0 .118.009.166.026a.295.295 0 0 1 .121.078c.025.027.042.06.052.101.01.04.015.102.015.184l.001.466zm-.208-.314a.351.351 0 0 1-.153.047l-.021.004a.375.375 0 0 0-.152.043c-.021.017-.032.044-.032.08a.13.13 0 0 0 .032.091.108.108 0 0 0 .084.034.227.227 0 0 0 .177-.074.273.273 0 0 0 .068-.192v-.021a.03.03 0 0 1-.003-.012zM135.034 95.914v-1.309h.212v1.309h-.212z"/></g><path d="M142.247 92.313l.916.981-1.309.786.368 1.519-1.408.039-.097 1.654-1.57-.432-.265 1.562-1.453-.577-.757 1.377-1.135-.982-.989 1.395-1.09-1.184-1.191 1.106-.777-1.302-1.404.826-.485-1.458-1.626.641-.239-1.437-1.454.091.218-1.464-1.488-.006.348-1.598-1.154-.648.918-1.043-.824-1.45 1.341-.424-.353-1.551 1.47-.019.17-1.539 1.33.441.44-1.5 1.343.727.556-1.327 1.164.809.817-1.261 1.099 1.099.971-1.004.851 1.266 1.33-.855.528 1.397 1.337-.633.344 1.458 1.584-.282-.048 1.427 1.601.173-.454 1.378 1.395.598-.869 1.226zm-.913-.004c0-2.946-3.43-5.335-7.66-5.335s-7.66 2.389-7.66 5.335c0 2.947 3.43 5.336 7.66 5.336 4.231-.001 7.66-2.39 7.66-5.336z" fill="#a08554"/><g fill="#a08554"><path d="M131.138 89.563c0-.354.201-.442.344-.442.143 0 .344.088.344.442s-.201.442-.344.442c-.143 0-.344-.088-.344-.442zm-.264 0c0 .593.44.665.607.665.167 0 .607-.072.607-.665 0-.593-.44-.665-.607-.665-.167 0-.607.072-.607.665zM132.531 90.195h-.247v-.759h-.136v-.177h.136v-.076c0-.194.106-.268.275-.268.072 0 .106.002.127.004v.199h-.069c-.084 0-.086.027-.086.105v.037h.16v.177h-.16v.758zM133.082 90.195h-.247v-.759h-.135v-.177h.136v-.076c0-.194.106-.268.275-.268.072 0 .106.002.127.004v.199h-.069c-.084 0-.086.027-.086.105v.037h.16v.177h-.16l-.001.758zM133.602 89.259v.936h-.246v-.936h.246zm0-.113h-.246v-.228h.246v.228zM134.609 89.854a.402.402 0 0 1-.429.366c-.353 0-.434-.269-.434-.465 0-.302.132-.518.45-.518.148 0 .391.067.414.359h-.25c-.011-.061-.049-.158-.164-.151-.155 0-.196.154-.196.27 0 .102.004.303.19.303.125 0 .168-.119.168-.163l.251-.001zM135 89.259v.936h-.247v-.936H135zm0-.113h-.247v-.228H135v.228zM135.718 89.86c0 .113-.111.183-.22.183-.048 0-.114-.026-.114-.112 0-.102.076-.124.167-.14.102-.016.142-.032.167-.051v.12zm.241-.354c0-.231-.241-.271-.373-.271-.191 0-.391.041-.419.328h.238c.007-.055.028-.13.151-.13.063 0 .162.005.162.109 0 .053-.047.068-.086.074l-.221.033c-.157.023-.273.116-.273.299 0 .192.145.272.285.272a.38.38 0 0 0 .302-.136.403.403 0 0 0 .023.112h.266v-.037c-.03-.011-.055-.035-.055-.146v-.507zM136.398 90.195h-.247v-1.264h.247z"/></g><path d="M133.674 97.203c3.958 0 7.178-2.195 7.178-4.894 0-2.698-3.22-4.894-7.178-4.894-3.958 0-7.178 2.195-7.178 4.894 0 2.698 3.22 4.894 7.178 4.894zm-7.001-4.894c0-2.601 3.141-4.717 7.001-4.717 3.861 0 7.002 2.116 7.002 4.717s-3.141 4.717-7.002 4.717c-3.861 0-7.001-2.116-7.001-4.717z" fill="#a08554"/><g fill="#a08554"><path d="M138.189 93.956c.838 0 1.521-.682 1.521-1.521s-.682-1.521-1.521-1.521h-9.105c-.839 0-1.521.682-1.521 1.521s.682 1.521 1.521 1.521h9.105zm-9.106-.395a1.127 1.127 0 0 1 0-2.252h9.105a1.127 1.127 0 0 1 0 2.252h-9.105z"/><path d="M128.693 93.161v-1.432h.448l.597.929.002-.928h.464v1.432h-.464c-.04-.088-.575-.924-.575-.924v.924l-.472-.001zM131.517 92.204c.015.018.04.038.051.047.043-.029.078-.055.125-.071.353-.121.536.082.572.115.161.149.112.554.122.865h-.469s.008-.583.001-.662c-.006-.069-.105-.153-.162-.155-.097-.004-.217.046-.222.156-.011.223.004.661.004.661h-.459v-.958l.437.002zM132.609 92.094v-.136h.459v.136h.219l-.002.129-.217-.001v.939h-.459v-.939h-.208v-.128zM133.249 92.68c-.008-.314.283-.511.53-.524.117-.006.237-.015.342.034.067.032.143.042.198.094.109.103.18.235.18.403l-.785-.003c0 .123-.069.405.146.41.082.002.129-.013.159-.084a.38.38 0 0 0 .018-.175c.079.005.412-.005.453-.004-.09.25-.361.359-.623.359-.108 0-.605-.049-.618-.51zm.466-.15l.316-.001c0-.054 0-.084-.006-.128-.008-.059-.056-.143-.155-.139-.135.006-.155.082-.155.166v.102zM137.523 92.884c-.082-.108-.094-.321-.018-.479.067-.138.24-.239.331-.269.123-.04.324-.051.492-.011.125.03.28.104.376.279a.507.507 0 0 1-.023.479c-.055.075-.176.204-.311.24-.118.031-.36.049-.488.009a.636.636 0 0 1-.359-.248zm.585.165c.13.001.159-.1.162-.164.005-.146-.003-.327-.003-.479 0-.079-.044-.182-.162-.182-.169 0-.163.133-.165.182-.003.084-.003.371-.002.479.001.035.018.163.17.164zM137.3 93.161h-.413c-.002 0-.009-.055-.009-.055-.116.09-.58.134-.759-.243-.016-.034-.063-.279.005-.43.109-.245.362-.299.542-.288.072.004.21.078.21.078l.001-.524h.423s.005 1.462 0 1.462zm-.432-.241c.013-.042.007-.317.007-.451a.247.247 0 0 0-.037-.107c-.035-.043-.062-.065-.133-.062a.157.157 0 0 0-.146.134c-.011.134-.018.272.003.444a.15.15 0 0 0 .061.106c.101.071.22.016.245-.064zM130.871 93.161v-.968h-.474v.968zM130.871 92.03v-.301h-.474v.301zM135.102 92.197c.015.018.04.038.051.047.043-.029.078-.055.125-.071.353-.121.536.082.572.115.161.149.112.554.122.865h-.469s.008-.583.001-.662c-.006-.069-.105-.153-.162-.155-.097-.004-.217.046-.222.156-.011.223-.006.669-.006.669h-.444v-.966l.432.002zM138.482 92.041h-.031v-.145h.054c.037 0 .059.011.059.044 0 .027-.016.036-.035.038l.037.063h-.037l-.033-.061h-.015l.001.061zm.028-.085c.014 0 .022-.003.022-.019 0-.015-.016-.016-.028-.016h-.022v.035h.028zm-.005.147c-.071 0-.135-.049-.135-.134s.064-.134.135-.134c.071 0 .135.049.135.134a.13.13 0 0 1-.135.134zm0-.237c-.053 0-.096.041-.096.103 0 .062.043.103.096.103.052 0 .096-.042.096-.103s-.044-.103-.096-.103z"/></g></g><g><path fill="#050800" d="M154.034 83.971h11.695v16.755h-11.695z"/><path fill="#fff" d="M154.651 86.73h10.452v10.393h-10.452zM155.185 98.157c0 .018 0 .035-.006.053-.012.171-.065.3-.271.3-.3 0-.318-.182-.318-.43v-.135c.006-.235.029-.412.318-.412.159 0 .253.082.265.241.006.024.006.047.006.071h-.177c-.006-.059 0-.171-.088-.171-.141 0-.129.165-.129.235v.259c0 .076.006.2.129.2.1 0 .088-.153.094-.212h.177v.001zM155.32 97.946c.006-.235.029-.412.318-.412s.306.177.318.412v.135c0 .247-.018.43-.318.43-.294 0-.318-.182-.318-.43v-.135zm.183.223c0 .076.006.2.129.2.129 0 .129-.129.129-.218v-.235c0-.076.006-.241-.129-.241-.141 0-.129.165-.129.235v.259zM156.55 97.557h.182v.93h-.188l-.141-.33a2.99 2.99 0 0 1-.129-.371l.018.265c.006.094.012.182.012.259v.177h-.182v-.93h.188l.141.341c.047.106.088.218.129.371l-.018-.265a3.92 3.92 0 0 1-.012-.259v-.188zM156.84 97.558h.603v.136h-.211v.793h-.181v-.793h-.211zM157.546 98.487v-.929h.509v.136h-.328v.234h.302v.137h-.302v.286h.328v.136zM158.627 97.557h.182v.93h-.188l-.141-.33a2.99 2.99 0 0 1-.129-.371l.018.265c.006.094.012.182.012.259v.177h-.182v-.93h.188l.141.341c.047.106.082.218.129.371l-.018-.265a3.92 3.92 0 0 1-.012-.259v-.188zM158.92 97.558h.602v.136h-.211v.793h-.18v-.793h-.211zM160.134 98.087v.4h-.182v-.93h.341c.159 0 .277.053.277.224 0 .1-.024.206-.147.224v.006c.106.012.141.076.141.171 0 .035-.006.265.041.294v.018h-.2c-.024-.059-.018-.177-.018-.235 0-.059 0-.135-.065-.153-.047-.012-.1-.012-.153-.012h-.035v-.007zm0-.136h.141c.059-.006.106-.041.106-.135 0-.106-.047-.124-.112-.124h-.135v.259zM160.663 98.487l.229-.93h.241l.218.93h-.194l-.047-.235h-.212l-.047.235h-.188zm.271-.371h.153l-.047-.265c-.012-.041-.012-.082-.018-.129 0-.024-.006-.041-.006-.065-.006.018-.006.041-.006.065a6.812 6.812 0 0 0-.018.129l-.058.265zM161.394 97.558h.602v.136h-.21v.793h-.181v-.793h-.211zM162.1 98.487v-.929h.508v.136h-.327v.234h.301v.137h-.301v.286h.327v.136zM162.758 98.487v-.93h.377c.041 0 .129.018.188.106.041.065.053.171.053.324 0 .182 0 .394-.147.483-.041.024-.088.024-.135.024h-.335v-.007zm.259-.135c.159 0 .171-.082.171-.353 0-.224-.024-.306-.129-.306h-.118v.659h.076zM163.858 98.487v-.93h.288c.076 0 .153.006.206.071a.246.246 0 0 1 .047.165c0 .082-.018.159-.118.194.1.012.141.094.141.218 0 .035 0 .076-.012.112-.041.118-.106.165-.235.165h-.318v.005zm.218-.135c.035 0 .076.006.112-.012.047-.024.053-.082.053-.129 0-.1-.024-.141-.129-.141h-.071v.282h.035zm-.006-.418c.047 0 .1 0 .129-.035.018-.024.018-.053.018-.1 0-.071-.018-.1-.1-.106h-.082v.241h.035zM164.806 97.798a.626.626 0 0 1 .041.141h.006a.68.68 0 0 1 .059-.177l.088-.211h.2l-.253.535v.394h-.182v-.394l-.253-.535h.194l.1.247zM154.627 100.136v-1.374h1.951v.321h-1.167v.197h.988v.32h-.988v.215h1.213v.321zM158.586 99.164c-.012-.047-.059-.076-.112-.094a.681.681 0 0 0-.2-.024c-.171 0-.247.029-.247.082 0 .206 1.377.076 1.377.577 0 .318-.465.477-1.118.477-.63 0-1.042-.212-1.059-.459h.753a.189.189 0 0 0 .129.106.675.675 0 0 0 .224.035c.194 0 .324-.035.324-.1 0-.206-1.377-.065-1.377-.588 0-.294.441-.441 1.036-.441.665 0 .965.194 1.024.435h-.753v-.006zM160.828 99.658v.477h-.783v-1.377h1.13c.794 0 1.059.124 1.059.394 0 .159-.124.288-.4.335.253.053.406.088.406.365 0 .177-.012.241.082.241v.041h-.794a.557.557 0 0 1-.041-.241c0-.182-.053-.235-.418-.235h-.241zm0-.3h.306c.241 0 .371-.035.371-.129s-.129-.141-.318-.141h-.365v.271h.006zM162.993 100.135v-1.377h1.142c.541 0 .965.076.965.347 0 .141-.159.247-.312.3.259.035.4.165.4.312 0 .306-.406.412-1.03.412h-1.165v.006zm.789-.571v.253h.341c.194 0 .341-.024.341-.124 0-.118-.182-.129-.435-.129h-.247zm0-.483v.229h.324c.153 0 .271-.041.271-.118 0-.106-.153-.106-.318-.106h-.277v-.005z"/><path d="M154.961 87.66c0-.3.271-.547.606-.547s.6.247.6.547c0 .306-.271.553-.6.553-.341 0-.606-.247-.606-.553m1.095 0c0-.247-.218-.453-.494-.453-.277 0-.5.2-.5.453s.224.453.5.453.494-.2.494-.453m-.624.035v.277h-.112v-.642h.229c.129 0 .265.029.265.182 0 .076-.047.135-.141.153.094.018.106.059.118.129.012.059.018.129.041.188h-.141c-.006-.035-.018-.076-.024-.118-.006-.053-.006-.106-.041-.135-.029-.024-.065-.024-.106-.024h-.088m.118-.11c.106 0 .129-.041.129-.094 0-.047-.024-.076-.112-.076h-.135v.165h.118v.005z" fill="#050800"/><path fill="#fff" d="M164.648 85.901v-.364h.532V85.2h-.532v-.312h.549v-.34h-.975v1.689h.979v-.336zM163.55 85.493h-.007l-.329-.945h-.438v1.689h.404l-.039-.94.005-.005.33.945h.436v-1.689h-.403zM161.952 84.518c-.371 0-.583.182-.583.5v.688c0 .382.147.577.583.577.43 0 .571-.2.571-.577v-.683c0-.323-.2-.505-.571-.505m.141 1.224c0 .1-.012.241-.147.241-.135 0-.153-.141-.153-.241v-.694c0-.106.018-.229.153-.229.141 0 .147.124.147.229v.694zM160.544 85.101h-.006l-.214-.553h-.43l.429.98v.709h.425v-.709l.438-.98h-.425zM159.739 85.624c-.006-.118-.094-.194-.212-.218V85.4c.177-.071.224-.206.224-.382 0-.335-.177-.471-.524-.471h-.618v1.689h.424v-.665h.141c.1.006.129.076.147.182.012.106 0 .241.012.394 0 .035.012.065.024.094h.465v-.024a.098.098 0 0 1-.041-.059c-.024-.11-.03-.399-.042-.534m-.559-.359h-.147v-.412c.206-.006.3.006.3.206 0 .106-.029.206-.153.206M157.786 85.537h.533V85.2h-.533v-.312h.551v-.34h-.976v1.689h1.003v-.336h-.578zM156.506 85.734h-.005l-.218-1.186h-.426l.394 1.69h.501l.398-1.69h-.426zM155.106 85.537h.537V85.2h-.537v-.312h.555v-.34h-.983v1.689h1.011v-.336h-.583z"/><path fill="#050800" d="M155.84 88.737l6.462-1.636.592 2.091-3.81.966.244.856 3.809-.964.594 2.092-3.811.964.255.902 3.811-.965.592 2.092-6.461 1.637z"/></g></svg>