<svg xmlns="http://www.w3.org/2000/svg" baseProfile="tiny" viewBox="-290 382 30 30">
  <g fill="gray">
    <path d="M-269.4 386.7h2.6v2.6h-2.6v-2.6z"/>
    <path d="M-263.2 397h-1.1v-2.6h-2.5v-2.6h-2.6v-2.6h-2.6v2.6h-7.7v-2.6h-2.6v2.6h-2.6v2.6h-2.6v2.5l-2.6.1v7.7h2.6v-5.1h2.6v5.2h2.6v-2.6h12.9v2.6h2.6v-5.2h2.6v5.1h2.6V397h-1.6z"/>
    <path d="M-274.6 404.7v2.6h5.2v-2.6h-5.2zm-10.2-18h2.6v2.6h-2.6v-2.6zm5.1 18h-2.6v2.6h5.2v-2.6h-2.6"/>
  </g>
  <path fill="#4D4D4D" d="M-272 394.4h2.6v2.6h-2.6v-2.6zm-10.3 0h2.6v2.6h-2.6v-2.6z"/>
</svg>
