<svg xmlns="http://www.w3.org/2000/svg" viewBox="0 0 462 342.561"><path fill="#2d2a2a" d="M148.089 342.561H462V0H0v342.561z"/><path fill="#231e1e" d="M20 0v214.329L9 234.371v108.19H0V0zM442 0l-.135 214.071 11.135 20.3v108.19h9V0z"/><path d="M432.603 221.763c-11.593.698-26.661-.33-29.228 3.357-15.985 22.208-55.171 62.226-119.587 62.226s-90.619-29.406-116.635-57.083c-5.652-6.747-6.359-8.699-15.151-8.505l-.004-.013H27.134c-3.923 0-7.133-3.21-7.133-7.133V0h421.865v212.496c0 5.088-4.17 9.25-9.266 9.25" fill="#312f2f"/><ellipse cx="283.833" cy="143.688" rx="140.5" ry="141.025" fill="#1b1818"/><ellipse cx="283.202" cy="140.506" rx="121.2" ry="116.724" fill="#2c2929"/><linearGradient id="a" gradientUnits="userSpaceOnUse" x1="283.202" y1="115.006" x2="283.202" y2="77.381"><stop offset="0" stop-color="#4e4e4e"/><stop offset=".141" stop-color="#434141"/><stop offset=".442" stop-color="#2f2c2c"/><stop offset=".733" stop-color="#241e1e"/><stop offset="1" stop-color="#201a1a"/></linearGradient><path d="M369.889 115.006H196.514c-10.347 0-18.812-8.466-18.812-18.812 0-10.347 8.466-18.812 18.812-18.812h173.375c10.347 0 18.812 8.466 18.812 18.812.001 10.347-8.465 18.812-18.812 18.812z" fill="url(#a)"/><path d="M282.871 110.781h83.221c5.577 0 10.098-4.32 10.098-18.99h-10.098v-7.56h.333-166.447.333v7.56h-10.098c0 14.67 4.521 18.99 10.098 18.99h83.221"/><linearGradient id="b" gradientUnits="userSpaceOnUse" x1="283.202" y1="109.798" x2="283.202" y2="85.215"><stop offset="0" stop-color="#484848"/><stop offset="1" stop-color="#241e1e"/></linearGradient><path d="M282.874 109.798h82.415c5.523 0 10-4 10-17.583h-10v-7h.33-164.835.33v7h-10c0 13.583 4.477 17.583 10 17.583h82.415" fill="url(#b)"/><path fill="#010102" d="M191.611 98.702h183.181v.892H191.611z"/><path d="M212.989 87.804h-1.75c0-.393.394-.714.875-.714s.875.321.875.714z" fill="#363636"/><path d="M212.989 95.833h-1.75c0 .393.394.714.875.714.481.001.875-.321.875-.714z" fill="#464646"/><path fill="#353535" d="M211.239 87.804h1.75v8.029h-1.75z"/><path d="M212.989 101.769h-1.75c0-.316.394-.575.875-.575s.875.259.875.575z" fill="#363636"/><path d="M212.989 108.236h-1.75c0 .316.394.575.875.575s.875-.259.875-.575z" fill="#464646"/><path fill="#353535" d="M211.239 101.769h1.75v6.467h-1.75z"/><path d="M353.414 87.804h1.75c0-.393-.394-.714-.875-.714s-.875.321-.875.714z" fill="#363636"/><path d="M353.414 95.833h1.75c0 .393-.394.714-.875.714-.481.001-.875-.321-.875-.714z" fill="#464646"/><path fill="#353535" d="M355.165 95.833h-1.75v-8.029h1.75z"/><path d="M353.414 101.769h1.75c0-.316-.394-.575-.875-.575s-.875.259-.875.575z" fill="#363636"/><path d="M353.414 108.236h1.75c0 .316-.394.575-.875.575s-.875-.259-.875-.575z" fill="#464646"/><path fill="#353535" d="M355.165 108.236h-1.75v-6.467h1.75z"/><path d="M233.035 276.528v-29.736c15.288 6.704 32.276 10.439 50.169 10.439 17.892 0 34.878-3.734 50.165-10.437v-.002 29.552-.771c-15.67 5.537-32.56 9.14-50.166 9.14-17.606 0-34.497-4.094-50.168-9.632" fill="#dbdbdb"/><ellipse cx="283.202" cy="270.321" rx="3.31" ry="3.51" fill="#631418"/><ellipse cx="283.202" cy="270.254" rx="2.288" ry="2.333" fill="#f95d5d"/><g fill="#391516"><path d="M256.132 266.237c.565.08.848.12 1.414.196.126.017.25.04.369.07.119.03.23.069.333.117.104.048.197.106.28.172.083.066.152.145.206.236s.093.196.115.314c.023.118.024.251.005.399-.05.39-.207.669-.472.835-.265.165-.637.216-1.112.152-.307-.041-.461-.062-.768-.105l-.191 1.381-.701-.098.522-3.669zm.457 1.758l.778.106c.128.017.237.02.33.009a.577.577 0 0 0 .233-.074.409.409 0 0 0 .145-.15.62.62 0 0 0 .069-.225.49.49 0 0 0-.025-.261.431.431 0 0 0-.137-.173.678.678 0 0 0-.22-.103 2.128 2.128 0 0 0-.273-.054l-.758-.104-.142 1.029zM261.32 266.844c.257.03.491.102.698.216s.382.263.522.446c.139.183.241.396.306.64s.081.507.051.792c-.03.282-.1.534-.213.758s-.259.411-.438.561a1.69 1.69 0 0 1-.615.328 1.852 1.852 0 0 1-.748.057 1.891 1.891 0 0 1-.717-.223 1.7 1.7 0 0 1-.527-.457 1.743 1.743 0 0 1-.298-.646 2.2 2.2 0 0 1-.036-.791c.035-.286.113-.54.231-.763.118-.223.266-.406.445-.553.178-.147.383-.251.611-.315a1.95 1.95 0 0 1 .728-.05zm-.369 3.187c.16.018.31.006.452-.038a.975.975 0 0 0 .375-.217c.109-.1.199-.227.27-.38.071-.153.117-.332.139-.534a1.723 1.723 0 0 0-.021-.553 1.192 1.192 0 0 0-.18-.428c-.084-.12-.188-.216-.313-.288s-.263-.116-.417-.134a1.077 1.077 0 0 0-.444.037.982.982 0 0 0-.374.212c-.11.098-.202.225-.274.376a1.68 1.68 0 0 0-.146.529c-.024.202-.018.387.017.552.035.164.094.309.177.431a.997.997 0 0 0 .739.435zM268.265 267.572a301.402 301.402 0 0 1-1.338 3.61l-.627-.053a293.812 293.812 0 0 1-.524-2.772c-.398 1.054-.6 1.581-1.006 2.633l-.629-.06a292.078 292.078 0 0 1-.666-3.792l.727.074c.146 1.017.221 1.525.374 2.542.374-.966.559-1.449.926-2.417l.735.067c.186 1.016.282 1.525.475 2.541.334-.971.499-1.457.826-2.43l.727.057zM271.431 271.506c-1.156-.07-1.734-.109-2.89-.195l.278-3.696c1.101.083 1.652.12 2.754.187l-.039.637c-.828-.05-1.242-.078-2.07-.137l-.06.835c.778.056 1.167.081 1.946.129l-.039.631c-.781-.048-1.171-.074-1.952-.13l-.069.96c.871.062 1.307.091 2.178.143l-.037.636zM275.439 271.706c-.304-.012-.457-.018-.761-.032-.127-.409-.19-.614-.315-1.023a.86.86 0 0 0-.095-.198.697.697 0 0 0-.546-.314l-.752-.038-.078 1.487-.706-.039.209-3.7c.665.037.998.055 1.663.086.1.005.195.011.284.019.09.008.175.023.257.044.081.02.16.049.235.086a.925.925 0 0 1 .362.328c.043.066.079.136.106.209s.047.149.06.226c.013.078.016.155.013.231-.009.226-.071.417-.188.575s-.275.275-.473.352c.155.128.277.324.368.589.14.445.212.667.357 1.112zm-2.437-2.242c.372.02.557.029.929.047.125.006.233.003.324-.01a.543.543 0 0 0 .223-.074.33.33 0 0 0 .132-.149.62.62 0 0 0 .05-.229c.007-.164-.04-.287-.139-.369s-.257-.128-.471-.138c-.399-.019-.598-.029-.996-.05l-.052.972zM304.8 266.877c.257-.029.501-.011.729.054.228.065.431.17.609.317.177.147.324.332.442.554.118.223.194.476.228.76a2.18 2.18 0 0 1-.037.787c-.059.243-.16.458-.3.645-.139.186-.315.339-.526.458s-.45.194-.716.224c-.267.03-.518.011-.749-.056a1.698 1.698 0 0 1-.616-.326 1.753 1.753 0 0 1-.436-.562 2.2 2.2 0 0 1-.213-.762c-.03-.287-.011-.552.053-.795s.167-.455.309-.638a1.66 1.66 0 0 1 .524-.445c.21-.114.442-.186.699-.215zm.358 3.188c.16-.018.304-.064.432-.139a.984.984 0 0 0 .317-.295c.084-.122.143-.266.177-.431a1.73 1.73 0 0 0 .015-.552 1.702 1.702 0 0 0-.145-.534 1.194 1.194 0 0 0-.272-.376.972.972 0 0 0-.37-.211 1.074 1.074 0 0 0-.436-.037c-.156.018-.298.063-.424.136s-.232.169-.317.29c-.085.12-.146.265-.183.428a1.671 1.671 0 0 0-.023.549c.022.202.069.381.14.534.071.152.161.28.269.38.109.1.233.173.373.217s.288.059.447.041zM310.793 269.906l-.661.093a173.339 173.339 0 0 1-1.998-2.232l.32 2.458-.677.087-.465-3.677.652-.084c.784.9 1.18 1.348 1.98 2.24l-.341-2.46.668-.094.522 3.669zM301.41 269.271l.02.709c.004.067-3.076.304-6.88.531s-6.89.355-6.894.289l-.02-.709c.004.067 3.091-.062 6.894-.289s6.884-.464 6.88-.531z"/></g><path d="M334.648 175.52v71.152c-15.745 6.781-33.241 10.558-51.67 10.558-18.43 0-35.928-3.778-51.674-10.56v-71.15c0-6.677 5.562-12.139 12.36-12.139h78.623c6.799 0 12.361 5.463 12.361 12.139z"/><linearGradient id="c" gradientUnits="userSpaceOnUse" x1="283.089" y1="257.231" x2="283.089" y2="164.458"><stop offset="0" stop-color="#191816"/><stop offset="1" stop-color="#282627"/></linearGradient><path d="M333.143 176.458l.225 70.758c-15.286 6.703-32.497 10.015-50.389 10.015-17.894 0-34.656-3.126-49.944-9.83l-.225-70.943c0-6.6 5.4-12 12-12h76.333c6.6 0 12 5.4 12 12z" fill="url(#c)"/><path d="M74.227 40.996H0V198.86h74.227c3.358 0 6.106-2.748 6.106-6.106V47.101c0-3.358-2.747-6.105-6.106-6.105z" fill="#1e1b1b"/><path d="M75.095 52.283H0v-6.176h75.095c.532 0 .963.431.963.963v4.249a.962.962 0 0 1-.963.964z" fill="#070606"/><path d="M74.735 51.2H19.952v-6h54.783c.532 0 .963.431.963.963v4.073a.963.963 0 0 1-.963.964z" fill="#282424"/><path fill="#1e1b1b" d="M0 45.2h19.952v6H0z"/><path fill="#252222" d="M0 45.2h19.952v.875H0z"/><path d="M75.699 46.107H19.952v-.94h54.807a.94.94 0 0 1 .94.94z" fill="#3c3939"/><path d="M75.095 62.008H0v-6.176h75.095c.532 0 .963.431.963.963v4.249a.963.963 0 0 1-.963.964z" fill="#070606"/><path d="M74.735 60.924H19.952v-6h54.783c.532 0 .963.431.963.963v4.073a.962.962 0 0 1-.963.964z" fill="#282424"/><path fill="#1e1b1b" d="M0 54.924h19.952v6H0z"/><path fill="#252222" d="M0 54.924h19.952v.875H0z"/><path d="M75.699 55.832H19.952v-.94h54.807a.94.94 0 0 1 .94.94z" fill="#3c3939"/><path d="M75.095 71.7H0v-6.176h75.095c.532 0 .963.431.963.963v4.249a.963.963 0 0 1-.963.964z" fill="#070606"/><path d="M74.735 70.616H19.952v-6h54.783c.532 0 .963.431.963.963v4.073a.962.962 0 0 1-.963.964z" fill="#282424"/><path fill="#1e1b1b" d="M0 64.616h19.952v6H0z"/><path fill="#252222" d="M0 64.616h19.952v.875H0z"/><path d="M75.699 65.524H19.952v-.94h54.807a.94.94 0 0 1 .94.94z" fill="#3c3939"/><path d="M75.095 81.392H0v-6.176h75.095c.532 0 .963.431.963.963v4.249a.962.962 0 0 1-.963.964z" fill="#070606"/><path d="M74.735 80.308H19.952v-6h54.783c.532 0 .963.431.963.963v4.073a.962.962 0 0 1-.963.964z" fill="#282424"/><path fill="#1e1b1b" d="M0 74.308h19.952v6H0z"/><path fill="#252222" d="M0 74.308h19.952v.875H0z"/><path d="M75.699 75.216H19.952v-.94h54.807a.94.94 0 0 1 .94.94z" fill="#3c3939"/><g><path d="M75.095 91.084H0v-6.176h75.095c.532 0 .963.431.963.963v4.249a.962.962 0 0 1-.963.964z" fill="#070606"/><path d="M74.735 90.001H19.952v-6h54.783c.532 0 .963.431.963.963v4.073a.963.963 0 0 1-.963.964z" fill="#282424"/><path fill="#1e1b1b" d="M0 84.001h19.952v6H0z"/><path fill="#252222" d="M0 84.001h19.952v.875H0z"/><path d="M75.699 84.908H19.952v-.94h54.807a.94.94 0 0 1 .94.94z" fill="#3c3939"/></g><g><path d="M75.095 100.776H0V94.6h75.095c.532 0 .963.431.963.963v4.249a.962.962 0 0 1-.963.964z" fill="#070606"/><path d="M74.735 99.693H19.952v-6h54.783c.532 0 .963.431.963.963v4.073a.963.963 0 0 1-.963.964z" fill="#282424"/><path fill="#1e1b1b" d="M0 93.693h19.952v6H0z"/><path fill="#252222" d="M0 93.693h19.952v.875H0z"/><path d="M75.699 94.6H19.952v-.94h54.807a.94.94 0 0 1 .94.94z" fill="#3c3939"/></g><g><path d="M75.095 110.468H0v-6.176h75.095c.532 0 .963.431.963.963v4.249a.962.962 0 0 1-.963.964z" fill="#070606"/><path d="M74.735 109.385H19.952v-6h54.783c.532 0 .963.431.963.963v4.073a.962.962 0 0 1-.963.964z" fill="#282424"/><path fill="#1e1b1b" d="M0 103.385h19.952v6H0z"/><path fill="#252222" d="M0 103.385h19.952v.875H0z"/><path d="M75.699 104.292H19.952v-.94h54.807a.94.94 0 0 1 .94.94z" fill="#3c3939"/></g><g><path d="M75.095 120.16H0v-6.176h75.095c.532 0 .963.431.963.963v4.249a.962.962 0 0 1-.963.964z" fill="#070606"/><path d="M74.735 119.077H19.952v-6h54.783c.532 0 .963.431.963.963v4.073a.962.962 0 0 1-.963.964z" fill="#282424"/><path fill="#1e1b1b" d="M0 113.077h19.952v6H0z"/><path fill="#252222" d="M0 113.077h19.952v.875H0z"/><path d="M75.699 113.984H19.952v-.94h54.807a.94.94 0 0 1 .94.94z" fill="#3c3939"/></g><g><path d="M75.095 129.852H0v-6.176h75.095c.532 0 .963.431.963.963v4.249a.962.962 0 0 1-.963.964z" fill="#070606"/><path d="M74.735 128.769H19.952v-6h54.783c.532 0 .963.431.963.963v4.073a.962.962 0 0 1-.963.964z" fill="#282424"/><path fill="#1e1b1b" d="M0 122.769h19.952v6H0z"/><path fill="#252222" d="M0 122.769h19.952v.875H0z"/><path d="M75.699 123.676H19.952v-.94h54.807a.94.94 0 0 1 .94.94z" fill="#3c3939"/></g><g><path d="M75.095 139.544H0v-6.176h75.095c.532 0 .963.431.963.963v4.249a.962.962 0 0 1-.963.964z" fill="#070606"/><path d="M74.735 138.461H19.952v-6h54.783c.532 0 .963.431.963.963v4.073a.962.962 0 0 1-.963.964z" fill="#282424"/><path fill="#1e1b1b" d="M0 132.461h19.952v6H0z"/><path fill="#252222" d="M0 132.461h19.952v.875H0z"/><path d="M75.699 133.369H19.952v-.94h54.807c.519 0 .94.42.94.94z" fill="#3c3939"/></g><g><path d="M75.095 149.237H0v-6.176h75.095c.532 0 .963.431.963.963v4.249a.963.963 0 0 1-.963.964z" fill="#070606"/><path d="M74.735 148.153H19.952v-6h54.783c.532 0 .963.431.963.963v4.073a.962.962 0 0 1-.963.964z" fill="#282424"/><path fill="#1e1b1b" d="M0 142.153h19.952v6H0z"/><path fill="#252222" d="M0 142.153h19.952v.875H0z"/><path d="M75.699 143.061H19.952v-.94h54.807a.94.94 0 0 1 .94.94z" fill="#3c3939"/></g><g><path d="M75.095 158.929H0v-6.176h75.095c.532 0 .963.431.963.963v4.249a.963.963 0 0 1-.963.964z" fill="#070606"/><path d="M74.735 157.845H19.952v-6h54.783c.532 0 .963.431.963.963v4.073a.962.962 0 0 1-.963.964z" fill="#282424"/><path fill="#1e1b1b" d="M0 151.845h19.952v6H0z"/><path fill="#252222" d="M0 151.845h19.952v.875H0z"/><path d="M75.699 152.753H19.952v-.94h54.807a.94.94 0 0 1 .94.94z" fill="#3c3939"/></g><g><path d="M75.095 168.621H0v-6.176h75.095c.532 0 .963.431.963.963v4.249a.963.963 0 0 1-.963.964z" fill="#070606"/><path d="M74.735 167.537H19.952v-6h54.783c.532 0 .963.431.963.963v4.073a.962.962 0 0 1-.963.964z" fill="#282424"/><path fill="#1e1b1b" d="M0 161.537h19.952v6H0z"/><path fill="#252222" d="M0 161.537h19.952v.875H0z"/><path d="M75.699 162.445H19.952v-.94h54.807a.94.94 0 0 1 .94.94z" fill="#3c3939"/></g><g><path d="M75.095 178.313H0v-6.176h75.095c.532 0 .963.431.963.963v4.249a.962.962 0 0 1-.963.964z" fill="#070606"/><path d="M74.735 177.229H19.952v-6h54.783c.532 0 .963.431.963.963v4.073a.962.962 0 0 1-.963.964z" fill="#282424"/><path fill="#1e1b1b" d="M0 171.229h19.952v6H0z"/><path fill="#252222" d="M0 171.229h19.952v.875H0z"/><path d="M75.699 172.137H19.952v-.94h54.807a.94.94 0 0 1 .94.94z" fill="#3c3939"/></g><g><path d="M75.095 188.005H0v-6.176h75.095c.532 0 .963.431.963.963v4.249a.962.962 0 0 1-.963.964z" fill="#070606"/><path d="M74.735 186.922H19.952v-6h54.783c.532 0 .963.431.963.963v4.073a.963.963 0 0 1-.963.964z" fill="#282424"/><path fill="#1e1b1b" d="M0 180.922h19.952v6H0z"/><path fill="#252222" d="M0 180.922h19.952v.875H0z"/><path d="M75.699 181.829H19.952v-.94h54.807a.94.94 0 0 1 .94.94z" fill="#3c3939"/></g><g><path d="M75.095 197.697H0v-6.176h75.095c.532 0 .963.431.963.963v4.249a.962.962 0 0 1-.963.964z" fill="#070606"/><path d="M74.735 196.614H19.952v-6h54.783c.532 0 .963.431.963.963v4.073a.963.963 0 0 1-.963.964z" fill="#282424"/><path fill="#1e1b1b" d="M0 190.614h19.952v6H0z"/><path fill="#252222" d="M0 190.614h19.952v.875H0z"/><path d="M75.699 191.521H19.952v-.94h54.807a.94.94 0 0 1 .94.94z" fill="#3c3939"/></g><g fill="#d4aa6f"><path d="M254.26 218.411v-2.537c2.545-.626 4.205-1.463 4.982-2.51h2.502v10.257l-.022 2.257h-3.335l-.029-2.257v-7.052c-1.755.89-3.121 1.504-4.098 1.842zM275.074 216.659l-2.965.668c-.28-1.264-1.014-1.896-2.2-1.896-1.725 0-2.588 1.375-2.588 4.124.697-.944 1.797-1.415 3.3-1.415 1.373 0 2.494.375 3.364 1.124.87.749 1.305 1.636 1.305 2.659 0 1.089-.48 2.053-1.44 2.889-.96.837-2.241 1.255-3.844 1.255-1.581 0-2.83-.34-3.747-1.02-.917-.68-1.538-1.49-1.865-2.429-.327-.939-.491-1.851-.491-2.736 0-1.89.509-3.449 1.526-4.677 1.017-1.228 2.525-1.842 4.523-1.842 1.445 0 2.606.318 3.483.953.877.635 1.424 1.416 1.639 2.343zm-5.37 7.34c.625 0 1.147-.175 1.564-.527.417-.351.625-.849.625-1.491 0-.57-.225-1.023-.674-1.356a2.466 2.466 0 0 0-1.504-.5c-.582 0-1.098.18-1.547.54-.449.36-.674.832-.674 1.415 0 .546.208 1.003.625 1.369.417.368.946.55 1.585.55zM276.25 219.258h5.154v2.17h-5.154v-2.17zM283.151 213.553h6.858c1.229 0 2.153.126 2.771.379a3.936 3.936 0 0 1 1.531 1.082c.403.469.604 1.041.604 1.715 0 1.365-.884 2.276-2.653 2.733 1.021.193 1.786.576 2.297 1.147.51.573.766 1.196.766 1.87 0 .922-.417 1.719-1.251 2.39-.834.672-2.189 1.007-4.065 1.007h-6.858v-12.323zm3.439 2.176v2.7h2.609c.956 0 1.558-.158 1.806-.474.248-.316.372-.618.372-.907a1.16 1.16 0 0 0-.307-.808c-.205-.226-.43-.367-.674-.424-.244-.057-.726-.086-1.445-.086h-2.361zm0 4.894v2.97h2.647c.904 0 1.542-.132 1.915-.397s.559-.635.559-1.111c0-.397-.179-.74-.538-1.029-.359-.289-.954-.433-1.786-.433h-2.797zM299.594 213.553v12.324h-3.44v-12.324h3.44zM311.243 213.553v2.438h-3.645v9.887h-3.494v-9.887h-3.666v-2.438h10.805z"/></g><path d="M143.333 221.741h9.291c8.778-.194 9.483 1.757 15.125 8.505 25.972 27.678 52.131 57.083 116.437 57.083s103.229-40 119.188-62.208c2.562-3.687 17.802-2.677 29.375-3.375 4.551 0 8.362-3.331 9.115-7.675l11.135 20.3c-3.917 6.125-41.566 5.181-51.875 6.125-8.34.764-9.563 3.688-14.96 10.061-22.563 26.833-60.465 44.439-103.415 44.439-42.951 0-80.852-17.606-103.415-44.439-8.46-9.269-3.21-11.186-18.71-10.936h-9.291c-5.745-1.71-8.25-6.687-8.333-13.757v-.201H32.875c-.083 7.451-2.588 12.697-8.333 14.5-4.847 1.521-12.255-1.452-15.542-5.792l11-20.042c.752 4.346 4.698 7.417 9.25 7.417h114.083" fill="#181515"/><g><linearGradient id="d" gradientUnits="userSpaceOnUse" x1="4.5" y1="342.561" x2="4.5" y2="327.166"><stop offset="0" stop-color="#544b4c"/><stop offset=".019" stop-color="#514849"/><stop offset=".188" stop-color="#3d3636"/><stop offset=".379" stop-color="#2f2828"/><stop offset=".612" stop-color="#272020"/><stop offset="1" stop-color="#241e1e"/></linearGradient><path fill="url(#d)" d="M0 327.166h9v15.395H0z"/><linearGradient id="e" gradientUnits="userSpaceOnUse" x1="457.5" y1="342.561" x2="457.5" y2="327.166"><stop offset="0" stop-color="#544b4c"/><stop offset=".019" stop-color="#514849"/><stop offset=".188" stop-color="#3d3636"/><stop offset=".379" stop-color="#2f2828"/><stop offset=".612" stop-color="#272020"/><stop offset="1" stop-color="#241e1e"/></linearGradient><path fill="url(#e)" d="M453 327.166h9v15.395h-9z"/></g><linearGradient id="f" gradientUnits="userSpaceOnUse" x1="231" y1="342.561" x2="231" y2="327.166"><stop offset="0" stop-color="#5b5857"/><stop offset=".005" stop-color="#5a5756"/><stop offset=".177" stop-color="#464343"/><stop offset=".371" stop-color="#383535"/><stop offset=".607" stop-color="#302d2c"/><stop offset="1" stop-color="#2d2a2a"/></linearGradient><path fill="url(#f)" d="M9 327.166h444v15.395H9z"/><g><path d="M37.167 317.496l-10.915-78.038c3.223-1.604 5.14-4.528 6.021-8.495l4.894 86.533zM139.667 317.496L143 225.864c.083 7.07 2.588 12.047 8.333 13.757l-11.666 77.875z" fill="#181515"/><path d="M70.135 313.075h-19.26v-69.527h19.26z"/><path fill="#1b1818" d="M51.588 244.221h6.521v68.855h-6.521zM62.901 244.221h6.521v68.855h-6.521z"/><path fill="#2b2828" d="M53.422 248.043h14.167v6.875H53.422z"/><path fill="#3f3f3e" d="M53.422 267.23h14.167v10.063H53.422z"/><path fill="#333030" d="M53.422 254.918h14.167v7.5H53.422z"/><path fill="#5d1314" d="M53.422 249.063h14.167v.833H53.422z"/><linearGradient id="g" gradientUnits="userSpaceOnUse" x1="60.505" y1="267.23" x2="60.505" y2="262.418"><stop offset="0" stop-color="#3f3f3e"/><stop offset=".139" stop-color="#4f4f4e"/><stop offset=".361" stop-color="#707070"/><stop offset=".429" stop-color="#5e5d5d"/><stop offset=".526" stop-color="#4b4949"/><stop offset=".637" stop-color="#3d3b3b"/><stop offset=".773" stop-color="#353333"/><stop offset="1" stop-color="#333030"/></linearGradient><path fill="url(#g)" d="M53.422 262.418h14.167v4.813H53.422z"/><path fill="#0d0d0c" d="M70.135 243.549h-19.26l-2.469-3.72h24.198z"/><path fill="#4e4b4a" d="M70.135 313.076h-19.26l-2.469 3.719h24.198z"/><path fill="#211e1d" d="M50.875 313.076l-2.469 3.719v-76.966l2.469 3.72zM70.135 313.076l2.469 3.719v-76.966l-2.469 3.72z"/><g><path fill="#414748" d="M101.347 247.97h9.167v7.625h-9.167z"/><path fill="#262323" d="M110.514 247.97h-9.167l-10.625-4.146h30.417z"/><path fill="#33302f" d="M101.347 255.595l-10.625 4.145v-15.916l10.625 4.146z"/><path fill="#262323" d="M110.514 255.595h-9.167l-10.625 4.145h30.417z"/><path d="M105.968 257.782h-.075a.38.38 0 0 1-.379-.379v-11.242a.38.38 0 0 1 .379-.379h.075a.38.38 0 0 1 .379.379v11.242a.38.38 0 0 1-.379.379z" fill="#5d1314"/><path fill="#33302f" d="M110.514 255.595l10.625 4.145v-15.916l-10.625 4.146z"/><path fill="#282828" d="M121.139 243.824h7.694v15.917h-7.694z"/><path fill="#0d0d0c" d="M128.833 243.824H90.722l-2.847-2.731h43.806z"/><path fill="#4e4b4a" d="M128.833 259.74H90.722l-2.847 2.731h43.806z"/><path fill="#211e1d" d="M87.875 262.471l2.847-2.731v-15.916l-2.847-2.731zM131.681 262.471l-2.848-2.731v-15.916l2.848-2.731z"/><g fill="#c4c4c4"><path d="M87.309 265.874c0-.438.065-.805.196-1.102.098-.219.231-.415.4-.589s.354-.303.555-.387c.268-.113.576-.17.926-.17.633 0 1.139.196 1.519.589s.57.938.57 1.638c0 .693-.188 1.236-.565 1.628s-.881.587-1.512.587c-.639 0-1.146-.195-1.523-.585-.377-.388-.566-.925-.566-1.609zm.894-.029c0 .486.112.855.337 1.105.225.252.51.377.855.377s.629-.125.851-.373c.222-.25.333-.623.333-1.121 0-.492-.108-.859-.324-1.102s-.502-.363-.86-.363-.646.123-.864.367c-.219.246-.328.616-.328 1.11zM92.161 267.995V263.7h.844l1.758 2.868V263.7h.806v4.295h-.87l-1.731-2.801v2.801h-.807z"/></g><g fill="#c4c4c4"><path d="M120.344 265.874c0-.438.065-.805.196-1.102.098-.219.231-.415.4-.589s.354-.303.555-.387c.268-.113.576-.17.926-.17.633 0 1.139.196 1.519.589s.57.938.57 1.638c0 .693-.188 1.236-.565 1.628s-.881.586-1.512.586c-.639 0-1.146-.194-1.523-.584-.377-.388-.566-.925-.566-1.609zm.894-.029c0 .486.112.855.337 1.105.225.252.51.377.855.377s.629-.125.851-.373c.222-.25.333-.623.333-1.121 0-.492-.108-.859-.324-1.102s-.502-.363-.86-.363-.646.123-.864.367c-.219.246-.328.616-.328 1.11zM125.193 267.995V263.7h2.944v.727h-2.077v1.017h1.793v.727h-1.793v1.825h-.867zM128.858 267.995V263.7h2.944v.727h-2.077v1.017h1.793v.727h-1.793v1.825h-.867z"/></g></g><g><g fill="#c4c4c4"><path d="M43.594 246.183H46.5v.965h-2.906zM43.594 249.571H46.5v.965h-2.906zM43.594 252.971H46.5v.965h-2.906zM43.594 255.877H46.5v.965h-2.906zM43.594 259.266H46.5v.965h-2.906zM43.594 262.668H46.5v.965h-2.906zM43.535 266.018h2.906v.965h-2.906zM43.617 269.218h2.906v.965h-2.906zM43.617 272.36h2.906v.965h-2.906zM43.617 275.736h2.906v.965h-2.906zM43.617 279.149h2.906v.965h-2.906z"/></g><g fill="#c4c4c4"><path d="M39.676 248.397h-.686v-2.586c-.25.234-.546.408-.886.521v-.622c.179-.059.374-.17.583-.334.21-.163.354-.354.432-.572h.557v3.593zM41.861 244.803c.347 0 .618.124.813.371.233.293.349.779.349 1.457s-.117 1.164-.352 1.461c-.194.244-.464.365-.811.365-.348 0-.629-.134-.842-.401s-.32-.745-.32-1.432c0-.674.117-1.159.352-1.455.194-.244.464-.366.811-.366zm0 .568c-.083 0-.157.027-.222.08s-.116.147-.151.284c-.047.178-.071.476-.071.896s.021.709.063.866.096.262.16.313c.064.052.138.078.221.078s.157-.026.222-.079.116-.147.151-.284c.047-.176.071-.475.071-.895s-.021-.708-.063-.865-.096-.262-.16-.314a.338.338 0 0 0-.221-.08z"/></g><path d="M40.597 263.904l.684-.071c.02.154.077.277.173.367a.468.468 0 0 0 .696-.039c.099-.116.149-.292.149-.526 0-.219-.049-.384-.147-.494a.496.496 0 0 0-.385-.164c-.197 0-.374.087-.53.261l-.557-.081.352-1.862h1.814v.642h-1.294l-.107.608c.153-.076.309-.114.469-.114.304 0 .563.11.774.332.211.221.317.508.317.861 0 .295-.085.558-.256.789-.233.315-.556.473-.969.473-.331 0-.6-.088-.808-.266s-.334-.417-.375-.716zM41.747 277.772c.347 0 .618.124.813.371.233.293.349.779.349 1.457s-.117 1.164-.352 1.461c-.194.244-.464.365-.811.365-.348 0-.629-.134-.842-.401s-.32-.745-.32-1.432c0-.674.117-1.159.352-1.455.194-.244.464-.366.811-.366zm0 .568c-.083 0-.157.027-.222.08s-.116.147-.151.284c-.047.178-.071.476-.071.896s.021.709.063.866.096.262.16.313c.064.052.138.078.221.078s.157-.026.222-.079.116-.147.151-.284c.047-.176.071-.475.071-.895s-.021-.708-.063-.865-.096-.262-.16-.314a.343.343 0 0 0-.221-.08z" fill="#c4c4c4"/></g><g><path d="M41.758 322.992c0-1.024-.63-2.23-1.178-2.23-.548 0-1.142.973-1.142 1.997s.915 2.08 1.464 2.08c.548 0 .856-.823.856-1.847z" fill="#c4c4c4"/><path d="M47.929 322.782l-.599-.349c.33-.626.504-1.336.504-2.054 0-2.366-1.86-4.291-4.148-4.295-2.288.004-4.148 1.929-4.148 4.295 0 .717.174 1.428.504 2.054l-.599.349a5.158 5.158 0 0 1-.591-2.403c0-2.761 2.164-5.008 4.826-5.016h.014c2.663.008 4.826 2.255 4.826 5.016.002.84-.203 1.67-.589 2.403z" fill="#c4c4c4"/><path d="M45.614 322.992c0-1.024.63-2.23 1.178-2.23.548 0 1.142.973 1.142 1.997s-.915 2.08-1.464 2.08c-.548 0-.856-.823-.856-1.847z" fill="#c4c4c4"/></g><g fill="#c4c4c4"><path d="M52.143 322.712l-1.363-3.814h.835l.965 2.823.934-2.823h.817l-1.366 3.814h-.822zM54.568 320.828c0-.389.058-.715.174-.978a1.8 1.8 0 0 1 .355-.523c.15-.154.314-.269.493-.343.238-.101.512-.151.822-.151.562 0 1.012.174 1.349.523.337.349.506.833.506 1.454 0 .616-.167 1.098-.502 1.446-.335.348-.782.521-1.343.521-.567 0-1.018-.173-1.353-.52-.334-.345-.501-.822-.501-1.429zm.793-.026c0 .432.1.76.299.982.199.224.453.335.76.335s.559-.111.756-.331c.197-.222.295-.553.295-.996 0-.437-.096-.763-.287-.978s-.446-.323-.764-.323a.984.984 0 0 0-.768.326c-.193.218-.291.546-.291.985zM58.889 322.712v-3.783h.77v3.14h1.915v.643h-2.685zM62.118 318.897h.77v2.066c0 .328.01.54.029.637a.616.616 0 0 0 .235.376c.124.095.294.142.509.142.219 0 .383-.044.494-.134a.525.525 0 0 0 .2-.33c.023-.13.034-.346.034-.648v-2.11h.77v2.003c0 .458-.021.781-.062.97a1.077 1.077 0 0 1-.23.479 1.16 1.16 0 0 1-.449.311c-.187.076-.432.115-.734.115-.364 0-.64-.043-.829-.126a1.177 1.177 0 0 1-.446-.328 1.06 1.06 0 0 1-.216-.423c-.05-.219-.075-.541-.075-.968v-2.032zM65.961 322.712v-3.814h1.153l.692 2.602.684-2.602h1.155v3.814h-.715v-3.002l-.757 3.002h-.742l-.755-3.002v3.002h-.715zM70.41 322.712v-3.814h2.828v.645H71.18v.846h1.915v.643H71.18v1.038h2.131v.643H70.41z"/></g><g><path d="M92.778 297.746h35.278v15.66H92.778z"/><path fill="#dbdbdb" d="M93.292 298.326h34.25v14.5h-34.25z"/><g fill="#ceccce"><path d="M100.417 304.912c-.688 0-1.25-.563-1.25-1.25 0-.688.563-1.25 1.25-1.25.688 0 1.25.563 1.25 1.25 0 .688-.563 1.25-1.25 1.25zM120.417 304.912c-.688 0-1.25-.563-1.25-1.25 0-.688.563-1.25 1.25-1.25.688 0 1.25.563 1.25 1.25 0 .688-.563 1.25-1.25 1.25zM120.417 308.662c-.688 0-1.25-.563-1.25-1.25 0-.688.563-1.25 1.25-1.25.688 0 1.25.563 1.25 1.25 0 .688-.563 1.25-1.25 1.25zM100.417 308.662c-.688 0-1.25-.563-1.25-1.25 0-.688.563-1.25 1.25-1.25.688 0 1.25.563 1.25 1.25 0 .688-.563 1.25-1.25 1.25zM103.75 308.662c-.688 0-1.25-.563-1.25-1.25 0-.688.563-1.25 1.25-1.25.688 0 1.25.563 1.25 1.25 0 .688-.562 1.25-1.25 1.25zM107.083 308.662c-.688 0-1.25-.563-1.25-1.25 0-.688.563-1.25 1.25-1.25.688 0 1.25.563 1.25 1.25 0 .688-.562 1.25-1.25 1.25zM110.417 308.662c-.688 0-1.25-.563-1.25-1.25 0-.688.563-1.25 1.25-1.25.688 0 1.25.563 1.25 1.25 0 .688-.563 1.25-1.25 1.25zM113.75 308.662c-.688 0-1.25-.563-1.25-1.25 0-.688.562-1.25 1.25-1.25s1.25.563 1.25 1.25c0 .688-.563 1.25-1.25 1.25zM117.083 308.662c-.688 0-1.25-.563-1.25-1.25 0-.688.563-1.25 1.25-1.25.688 0 1.25.563 1.25 1.25 0 .688-.562 1.25-1.25 1.25zM103.75 304.912c-.688 0-1.25-.563-1.25-1.25 0-.688.563-1.25 1.25-1.25.688 0 1.25.563 1.25 1.25 0 .688-.562 1.25-1.25 1.25zM107.083 304.912c-.688 0-1.25-.563-1.25-1.25 0-.688.563-1.25 1.25-1.25.688 0 1.25.563 1.25 1.25 0 .688-.562 1.25-1.25 1.25zM110.417 304.912c-.688 0-1.25-.563-1.25-1.25 0-.688.563-1.25 1.25-1.25.688 0 1.25.563 1.25 1.25 0 .688-.563 1.25-1.25 1.25zM113.75 304.912c-.688 0-1.25-.563-1.25-1.25 0-.688.562-1.25 1.25-1.25s1.25.563 1.25 1.25c0 .688-.563 1.25-1.25 1.25zM117.083 304.912c-.688 0-1.25-.563-1.25-1.25 0-.688.563-1.25 1.25-1.25.688 0 1.25.563 1.25 1.25 0 .688-.562 1.25-1.25 1.25z"/></g><path fill="#0d0d0c" d="M128.055 297.746H92.778l-3.278-2.5h41.833z"/><path fill="#4e4b4a" d="M131.333 315.906H89.5l3.278-2.5h35.277z"/><path fill="#211e1d" d="M92.778 313.406l-3.278 2.5v-20.66l3.278 2.5zM131.333 315.906l-3.278-2.5v-15.66l3.278-2.5z"/><g fill="#c4c4c4"><path d="M103.455 321.121V317.9h1.369c.344 0 .595.028.75.086a.748.748 0 0 1 .375.309.926.926 0 0 1 .141.508.861.861 0 0 1-.213.599c-.142.158-.354.257-.637.298a1.5 1.5 0 0 1 .348.271c.092.099.215.272.37.522l.394.629h-.778l-.47-.701a4.644 4.644 0 0 0-.343-.474.53.53 0 0 0-.195-.134 1.082 1.082 0 0 0-.328-.036h-.132v1.345h-.651zm.65-1.86h.481c.313 0 .507-.013.585-.039a.344.344 0 0 0 .182-.137.415.415 0 0 0 .066-.241.388.388 0 0 0-.087-.263.405.405 0 0 0-.245-.126 5.198 5.198 0 0 0-.475-.011h-.507v.817zM106.702 321.121V317.9h2.389v.545h-1.738v.714h1.617v.542h-1.617v.877h1.8v.543h-2.451zM109.539 320.073l.633-.062c.038.212.115.368.232.468.116.1.273.149.471.149.209 0 .367-.044.474-.133a.396.396 0 0 0 .159-.311.292.292 0 0 0-.067-.195.539.539 0 0 0-.234-.139 7.894 7.894 0 0 0-.521-.141c-.349-.087-.593-.193-.734-.319a.837.837 0 0 1-.296-.647.83.83 0 0 1 .139-.461.867.867 0 0 1 .402-.326c.175-.074.386-.112.634-.112.404 0 .708.089.913.267a.937.937 0 0 1 .322.709l-.65.029c-.028-.166-.087-.285-.179-.357-.091-.072-.229-.109-.412-.109-.189 0-.337.039-.444.117a.233.233 0 0 0-.103.199c0 .077.032.142.097.196.082.068.281.141.598.215.316.075.55.152.702.232a.9.9 0 0 1 .356.327c.085.139.128.31.128.513a.948.948 0 0 1-.589.878 1.83 1.83 0 0 1-.701.117c-.408 0-.72-.094-.938-.282-.22-.187-.35-.462-.392-.822zM112.705 321.121V317.9h2.389v.545h-1.738v.714h1.617v.542h-1.617v.877h1.8v.543h-2.451zM116.432 321.121v-2.676h-.956v-.545h2.56v.545h-.953v2.676h-.651z"/></g></g></g><g fill="#c2c2c2"><path d="M439.01 320.299h-7.109v-1.663h4.873c-.354-1.071-.647-1.943-.932-2.818-.706-2.183-1.367-4.383-2.144-6.537-.188-.521-.695-1.167-1.158-1.275-.781-.182-1.034.629-1.251 1.3-1.081 3.343-2.192 6.676-3.238 10.031-.246.788-.604 1.054-1.397 1.032-2.182-.06-4.365-.006-6.547-.025-2.211-.02-3.656-1.467-3.705-3.755-.043-2.061-.047-4.125.001-6.186.054-2.325 1.453-3.739 3.687-3.771 1.967-.028 3.935-.006 5.971-.006v1.75h-5.052c-2.371 0-2.916.572-2.916 3.072 0 1.556-.007 3.111.002 4.668.01 1.664.768 2.475 2.334 2.491 1.271.014 2.543.003 3.88.003v-5.427h-3.236v-1.688h5.043v7.149l.275.032c1.066-3.287 2.135-6.573 3.199-9.861.607-1.879 1.728-2.644 3.534-2.366 1.005.155 1.749.741 2.078 1.735 1.306 3.947 2.573 7.909 3.85 11.867.018.06-.023.14-.042.248zM394.459 320.336v-1.73c1.896 0 3.757.021 5.615-.007 1.557-.022 2.72-1.152 2.775-2.629.055-1.445-1.097-2.682-2.626-2.789-.621-.044-1.251.017-1.869-.051-.95-.103-1.645-.999-1.644-2.035.001-1.051.688-1.99 1.646-2.018 2.034-.06 4.07-.019 6.159-.019v1.712H398.536l-.006.576c.57.025 1.14.062 1.71.074 2.15.05 3.703 1.302 4.238 3.43.654 2.597-1.21 5.361-3.777 5.469-2.035.084-4.077.017-6.242.017z"/><path d="M394.442 317.926v-1.788h6l.002-.503c-.611-.024-1.223-.061-1.835-.071-1.718-.03-2.995-.853-3.749-2.435-.767-1.61-.648-3.225.362-4.705.693-1.016 1.649-1.704 2.856-1.743 2.107-.067 4.219-.019 6.411-.019v1.715c-1.894 0-3.789-.032-5.682.009-1.881.041-3.102 1.796-2.533 3.564.342 1.064 1.316 1.777 2.566 1.852.587.034 1.181-.009 1.765.051.947.097 1.666.989 1.677 2.012s-.706 2.018-1.631 2.043c-2.035.057-4.072.018-6.209.018zM415.525 306.685v1.691h-5.59c-1.952.003-2.633.692-2.646 2.714-.011 1.627-.005 3.254.008 4.881.014 1.878.735 2.634 2.506 2.639 1.862.005 3.724.001 5.656.001v1.737c-1.39 0-2.758.003-4.126-.001-.865-.003-1.733.028-2.595-.032-1.588-.112-3.032-1.598-3.073-3.258a151.078 151.078 0 0 1-.001-7.156c.035-1.526 1.325-3.099 2.785-3.181 2.336-.131 4.683-.035 7.076-.035zM428.317 320.26c1.206-3.726 2.378-7.371 3.579-11.006.085-.257.351-.53.592-.618.132-.048.503.237.571.442.979 2.914 1.926 5.84 2.907 8.845h-4.072l-.126-1.201-.175-.063c-.232.675-.47 1.347-.695 2.024-.597 1.796-.595 1.797-2.581 1.577zm3.48-4.303h1.429l-.6-1.858-.246.016-.583 1.842zM422.263 315.782l-1.201-.352v-1.537h2.641v4.026c-1.35 0-2.692.077-4.018-.052-.344-.034-.886-.697-.901-1.092-.091-2.166-.064-4.34-.039-6.511.009-.761.455-1.207 1.189-1.214 2.006-.02 4.013-.007 6.108-.007v1.722c-1.509 0-2.99.042-4.468-.016-.906-.036-1.256.295-1.198 1.251.061 1.009.004 2.025.017 3.038.014 1.211.573 1.502 1.87.744z"/><path d="M409.737 316.073c1.863.348 3.795-.016 5.727.202v1.642c-2.21 0-4.377.054-6.537-.055-.345-.017-.861-.721-.939-1.175-.15-.871-.044-1.791-.044-2.782h6.15v1.623h-4.3l-.057.545zM415.526 309.061v1.631c-1.918.272-3.885-.175-5.769.242l.019.448h4.321v1.704h-6.134c0-.999-.086-2.043.046-3.055.047-.362.61-.914.955-.928 2.168-.084 4.341-.042 6.562-.042z"/></g><path d="M320.978 317.516v-.951h8.563c.423 0 .634.317.634.951h-9.197zm0 2.854v-2.537h1.586v2.537h-1.586zm3.806 0v-2.537h1.586v2.537h-1.586zm3.805 0v-2.537h1.586v2.537h-1.586zm2.221-.952v-1.586h1.586c0 .211.106.317.317.317h3.806v.951h-4.123c0 .211.106.317.317.317h4.123v.951h-5.392c-.423.002-.634-.315-.634-.95zm0-1.902v-.951h6.026v.951h-6.026zm6.66 0c0-.634.211-.951.634-.951h5.709v.951h-6.343zm0 1.902v-1.586h1.586v1.586h3.172c.211 0 .317-.053.317-.159 0-.106-.106-.159-.317-.159h-1.903v-.951h2.854c.634 0 .951.317.951.951v.317c0 .634-.211.951-.634.951h-5.392c-.423.002-.634-.315-.634-.95zm7.294.952v-2.537h1.586v2.537h-1.586zm5.075 0v-.634h-3.172v-.951h3.172v-.951h1.586v2.537h-1.586zm-5.075-2.854c0-.634.211-.951.634-.951h5.392c.423 0 .634.317.634.951h-6.66zm9.615 2.854v-2.537h1.586v2.537h-1.586zm6.026 0h-4.123v-.951h3.172v-1.586h1.586v1.586c-.001.634-.212.951-.635.951zm-6.026-2.854v-.951h6.026c.423 0 .634.317.634.951h-6.66zm7.294 2.854v-2.537h1.586v2.537h-1.586zm0-2.854c0-.634.211-.951.634-.951h5.392c.423 0 .634.317.634.951h-6.66zm1.903 2.22v-.951h2.854c.211 0 .317-.106.317-.317v-.634h1.586v.951c0 .634-.211.951-.634.951l.951.634h-1.586l-.951-.634h-2.537zm5.709.634v-2.537h1.586v2.537h-1.586zm0-2.854v-.951h1.586v.951h-1.586zm2.854 0l-.634-.951h1.903l.634.951h-1.903zm1.903 2.854l-1.586-2.537h1.903l.951 1.522.951-1.522h1.903l-1.586 2.537h-2.536zm2.492-2.854l.634-.951h1.903l-.634.951h-1.903zm3.172 1.902v-1.586h1.586c0 .211.106.317.317.317h3.806v.951h-4.123c0 .211.106.317.317.317h4.123v.951h-5.392c-.423.002-.634-.315-.634-.95zm0-1.902v-.951h6.026v.951h-6.026z" fill="#c2c2c2"/><path fill="#c4c4c4" d="M89.387 318.853h13.109v.658H89.387zM118.33 318.932h13.109v.658H118.33zM89.387 273.853h13.109v.658H89.387zM118.684 273.932h12.755v.658h-12.755zM103.424 272.739h1.072a2 2 0 0 1 .281.019c.091.013.178.034.26.065l.225.122.176.188a.952.952 0 0 1 .115.27c.028.103.042.223.042.358 0 .356-.09.625-.27.804-.18.18-.448.269-.804.269h-.575v1.264h-.521v-3.359zm.522 1.519h.584a.865.865 0 0 0 .245-.031l.165-.095.093-.152.03-.21a.524.524 0 0 0-.044-.232l-.119-.139-.173-.066-.207-.017h-.573v.942zM107.347 272.686c.195 0 .375.041.54.124.165.082.306.199.425.351.119.15.212.333.279.546s.1.449.1.709a2.4 2.4 0 0 1-.098.704 1.696 1.696 0 0 1-.277.547c-.119.153-.261.271-.426.356s-.346.127-.543.127-.379-.042-.543-.126-.307-.202-.426-.354a1.691 1.691 0 0 1-.277-.548 2.41 2.41 0 0 1-.099-.707c0-.261.034-.498.101-.711s.16-.396.28-.547c.12-.15.262-.268.426-.35.165-.08.344-.121.538-.121zm-.002 2.906c.119 0 .229-.026.329-.08s.186-.132.258-.232a1.16 1.16 0 0 0 .167-.369c.04-.146.06-.311.06-.495a1.86 1.86 0 0 0-.061-.496c-.041-.146-.097-.268-.168-.367s-.157-.176-.256-.229a.681.681 0 0 0-.322-.078.687.687 0 0 0-.327.079.767.767 0 0 0-.26.23c-.073.101-.13.223-.17.368s-.061.31-.061.492c0 .185.02.35.061.495.041.145.097.268.169.369a.75.75 0 0 0 .256.232.659.659 0 0 0 .325.081zM112.598 272.739l-.778 3.358h-.464l-.569-2.46-.564 2.46h-.466l-.776-3.358h.549l.463 2.259.519-2.259h.555l.517 2.257.465-2.257zM115.151 276.097h-2.137v-3.358h2.077v.577h-1.555v.759h1.455v.573h-1.455v.872h1.615zM118.114 276.097h-.562l-.267-.914-.077-.175-.112-.137-.141-.091-.164-.033h-.56v1.35h-.521v-3.358h1.253l.213.006.195.028.179.068.163.125.12.158.085.186.052.202.018.209c0 .205-.042.381-.124.527a.847.847 0 0 1-.341.338c.119.108.216.281.291.518l.3.993zm-1.883-1.927h.694c.093 0 .174-.008.241-.023l.164-.076.093-.14.029-.21c0-.149-.039-.259-.116-.329-.078-.069-.197-.104-.357-.104h-.748v.882zM105.347 263.917h.965v5.168h-.965zM113.067 263.917h.965v5.168h-.965z"/></svg>