<svg xmlns="http://www.w3.org/2000/svg" width="400" height="249.61749">
  <path fill="#2d2a2a" d="M0 0h400v249.61749H0z"/>
  <path fill="#231e1e" d="M14.571949 0v156.13844l-8.014572 14.64481v78.83424H0V0m385.42805 0l-.0729 155.99272 8.08743 14.79053v78.83424h6.55738V0"/>
  <path fill="#181515" d="M174.57195 161.53006H21.275046c-3.351549 0-6.120219-2.40437-6.630237-5.6102l-8.087432 14.86339c2.4043716 3.13296 7.067395 5.31876 10.564663 4.22586 4.153006-1.31147 6.047359-5.10018 6.047359-10.56466h80.291441v.14572c.0729 5.17304 1.89435 8.74317 6.04736 10.05464h65.06375c11.29326-.21858 13.33333 1.23862 19.45355 7.94171 16.4663 19.52642 44.08015 32.34973 75.33698 32.34973 31.32969 0 58.94353-12.82331 75.33697-32.34973 3.93443-4.66302 4.80875-6.77595 10.92897-7.35883 7.50455-.65574 34.97267 0 37.8142-4.44444l-8.08743-14.79053c-.58288 3.13297-3.35155 5.6102-6.63024 5.6102-8.45173.51002-19.52641-.21858-21.42076 2.47723-11.65756 16.17486-40 45.31876-86.84882 45.31876-46.84881 0-65.93807-21.42076-84.80874-41.60291-4.15301-4.95447-4.66302-6.41166-11.07468-6.26594"/>
  <path fill="#312f2f" d="M378.57923 161.60292c-8.45173.51002-21.56648-.21858-23.46083 2.47723-11.65756 16.17486-38.03279 45.31876-84.95447 45.31876-46.92167 0-66.01092-21.42076-84.95446-41.60291-4.153-4.88161-4.66302-6.3388-11.07468-6.19308H20.619308c-3.715847 0-6.775956-3.06011-6.775956-6.77596V0H385.35519v154.82696c0 3.71585-3.06011 6.7031-6.77596 6.77596"/>
  <path fill="#181515" d="M26.375228 231.32969l-7.941713-56.8306c2.331512-1.16575 3.788707-3.27869 4.444445-6.19308l3.497268 63.02368zm74.681242 0l2.40437-66.73952c.0729 5.17304 1.89435 8.74317 6.04736 10.05464l-8.45173 56.68488z"/>
  <path d="M36.357013 177.41348h14.061931v50.63753H36.357013z"/>
  <path fill="#1b1818" d="M36.867031 177.9235h4.735883v50.20037h-4.735883zm8.233151 0h4.735884v50.20037h-4.735884z"/>
  <path fill="#2b2828" d="M38.178506 180.69217H48.52459v5.02732H38.178506z"/>
  <path fill="#3c3b3b" d="M38.178506 191.18397H48.52459v.29144H38.178506z"/>
  <path fill="#3f3f3e" d="M38.178506 194.68124H48.52459v7.35884H38.178506z"/>
  <path fill="#333030" d="M38.178506 185.71949H48.52459v5.46448H38.178506z"/>
  <path fill="#5d1314" d="M38.178506 181.49363H48.52459v.58288H38.178506z"/>
  <path fill="#414040" d="M38.178506 191.54827H48.52459v.65574H38.178506z"/>
  <path fill="#464646" d="M38.178506 192.13115H48.52459v.29144H38.178506z"/>
  <path fill="#535353" d="M38.178506 192.49545H48.52459v.29144H38.178506z"/>
  <path fill="#5f5f5f" d="M38.178506 192.78689H48.52459v.29144H38.178506z"/>
  <path fill="#6a6a6a" d="M38.178506 193.07833H48.52459v.29144H38.178506z"/>
  <path fill="#707070" d="M38.178506 193.44263H48.52459v.29144H38.178506z"/>
  <path fill="#6a6969" d="M38.178506 193.73407H48.52459v.29143H38.178506z"/>
  <path fill="#5a5a5a" d="M38.178506 194.09836H48.52459v.29144H38.178506z"/>
  <path fill="#484848" d="M38.178506 194.3898H48.52459v.29144H38.178506z"/>
  <path fill="#0d0d0c" d="M50.346084 177.41348H36.357013l-1.821494-2.69581h17.632058"/>
  <path fill="#4e4b4a" d="M50.346084 228.12387H36.357013l-1.821494 2.69581h17.632058"/>
  <path fill="#211e1d" d="M36.357013 228.12387l-1.821494 2.69581v-56.10201l1.821494 2.69581m13.989071 50.71039l1.821493 2.69581v-56.10201l-1.821493 2.69581"/>
  <path fill="#414748" d="M73.078324 180.69217h6.703097v5.53734h-6.703097z"/>
  <path fill="#262323" d="M79.781421 180.69217h-6.703097l-7.723133-3.06011h22.149363"/>
  <path fill="#33302f" d="M73.078324 186.22951l-7.723133 2.98725v-11.5847l7.723133 3.06011"/>
  <path fill="#262323" d="M79.781421 186.22951h-6.703097l-7.723133 2.98725h22.149363"/>
  <path fill="#5d1314" d="M76.502732 187.83243c-.218579 0-.364298-.14572-.364298-.29144v-8.16029c0-.14572.145719-.29144.291438-.29144h.07286c.14572 0 .291439.14572.291439.29144v8.16029c-.07286.14572-.145719.29144-.291439.29144z"/>
  <path fill="#33302f" d="M79.781421 186.22951l7.723133 2.98725v-11.5847l-7.723133 3.06011"/>
  <path fill="#282828" d="M87.504554 177.63206h5.6102v11.5847h-5.6102z"/>
  <path fill="#0d0d0c" d="M93.114754 177.63206H65.355191l-2.040073-1.96721h31.912569"/>
  <path fill="#4e4b4a" d="M93.114754 189.21676H65.355191l-2.040073 2.04007h31.912569"/>
  <path fill="#211e1d" d="M63.315118 191.25683l2.040073-2.04007v-11.5847l-2.040073-1.96721m31.912569 15.59198l-2.112933-2.04007v-11.5847l2.112933-1.96721"/>
  <path fill="#c4c4c4" d="M62.87796 193.73407c0-.29144.07286-.58288.145719-.80146.07286-.14572.14572-.29144.291439-.43716.14572-.14572.291439-.21858.437159-.29144.218579-.0729.437158-.14572.655738-.14572.437158 0 .801457.14572 1.092896.43716.291439.29144.437158.65574.437158 1.16576 0 .51001-.145719.87431-.437158 1.16575-.291439.29144-.655738.43716-1.092896.43716-.437159 0-.801458-.14572-1.092897-.43716-.291439-.21858-.437158-.58288-.437158-1.09289zm.655738-.0729c0 .36429.07286.65573.218579.80145.145719.21858.364299.29144.655738.29144.291439 0 .437158-.0729.655737-.29144.14572-.21858.21858-.43716.21858-.80145 0-.3643-.07286-.65574-.21858-.80146-.145719-.14572-.364298-.29144-.655737-.29144s-.437159.0729-.655738.29144c-.14572.21858-.218579.51002-.218579.80146zm2.914389 1.60291v-3.13297h.582878l1.311476 2.11293v-2.11293h.582878v3.13297h-.655738l-1.238616-2.04007v2.04007h-.582878zm20.473589-1.53005c0-.29144.07286-.58288.145719-.80146.07286-.14572.14572-.29144.291439-.43716.14572-.14572.291439-.21858.437159-.29144.218579-.0729.437158-.14572.655737-.14572.437159 0 .801458.14572 1.092897.43716.291439.29144.437158.65574.437158 1.16576 0 .51001-.145719.87431-.437158 1.16575-.291439.29144-.655738.43716-1.092897.43716-.437158 0-.801457-.14572-1.092896-.43716-.291439-.21858-.437158-.58288-.437158-1.09289zm.655737-.0729c0 .36429.07286.65573.21858.80145.145719.21858.364298.29144.655737.29144s.437159-.0729.655738-.29144c.14572-.21858.218579-.43716.218579-.80145 0-.3643-.07286-.65574-.218579-.80146-.145719-.14572-.364299-.29144-.655738-.29144-.291439 0-.437158.0729-.655737.29144-.14572.21858-.21858.51002-.21858.80146zm2.91439 1.60291v-3.13297h2.112933v.51002h-1.530055v.7286h1.311476v.51002h-1.311476v1.31147h-.582878zm2.695811 0v-3.13297h2.112932v.51002h-1.530054v.7286h1.311475v.51002h-1.311475v1.31147h-.582878zm-62.149363-15.88342h2.112933v.72859h-2.112933zm0 2.47723h2.112933v.72859h-2.112933zm0 2.47723h2.112933v.7286h-2.112933zm0 2.11293h2.112933v.7286h-2.112933zm0 2.47723h2.112933v.7286h-2.112933zm0 2.47723h2.112933v.7286h-2.112933zm-.07286 2.40438h2.112932v.72859h-2.112932zm.07286 2.33151h2.112933v.72859h-2.112933zm0 2.33151h2.112933v.7286h-2.112933zm0 2.40437h2.112933v.7286h-2.112933zm0 2.47723h2.112933v.7286h-2.112933zm-2.84153-22.36794h-.510018v-1.89435c-.218579.14572-.364299.29144-.655738.3643v-.43716l.437159-.21858c.145719-.14572.291439-.29144.291439-.43716h.437158v2.62295zm1.602915-2.62295c.218579 0 .437158.0729.582878.29144.145719.21858.218579.58288.218579 1.09289 0 .51002-.07286.87432-.291439 1.0929-.14572.14572-.364299.29144-.582878.29144-.218579 0-.437159-.0729-.582878-.29144-.145719-.21858-.218579-.51002-.218579-1.02004 0-.51001.07286-.87431.291439-1.09289.07286-.29144.291439-.3643.582878-.3643zm0 .43716c-.07286 0-.14572 0-.14572.0729s-.07286.0729-.145719.21858c0 .14572-.07286.3643-.07286.65573 0 .29144 0 .51002.07286.65574.07286.14572.07286.21858.145719.21858.07286.0729.07286.0729.14572.0729s.145719 0 .145719-.0729.07286-.0729.14572-.21858c0-.14572.07286-.3643.07286-.65574 0-.29143 0-.51001-.07286-.65573-.07286-.14572-.07286-.21858-.14572-.21858-.07286-.0729-.145719-.0729-.145719-.0729zm-.947177 13.47905l.510018-.0729c0 .14572.07286.21858.14572.29144.07286.0729.145719.0729.218579.0729.07286 0 .218579-.0729.291439-.14572.07286-.0729.07286-.21858.07286-.3643 0-.14572 0-.29144-.07286-.3643-.07286-.0729-.14572-.14572-.291439-.14572-.14572 0-.291439.0729-.364299.21858l-.437158-.0729.291439-1.38433h1.311475v.43716h-.947177l-.07286.43715c.145719-.0729.218579-.0729.364298-.0729.21858 0 .437159.0729.582878.21858.14572.14572.21858.3643.21858.65574 0 .21858-.07286.43716-.21858.58288-.145719.21858-.437158.3643-.728597.3643-.218579 0-.437159-.0729-.582878-.21858-.145719-.14572-.291439-.21858-.291439-.43716zm.801457 10.12751c.218579 0 .437159.0729.582878.29143.14572.21858.218579.58288.218579 1.0929s-.07286.87432-.291439 1.0929c-.145719.14572-.364298.29144-.582878.29144-.218579 0-.437158-.0729-.582877-.29144-.14572-.21858-.21858-.51002-.21858-1.02004s.07286-.87432.291439-1.0929c.14572-.29144.364299-.36429.582878-.36429zm0 .36429c-.07286 0-.145719 0-.145719.0729s-.07286.0729-.14572.21858c0 .14572-.07286.3643-.07286.65574s0 .51002.07286.65574c.07286.14572.07286.21858.14572.21858.07286.0729.07286.0729.145719.0729.07286 0 .14572 0 .14572-.0729s.07286-.0729.145719-.21858c0-.14572.07286-.3643.07286-.65574s0-.51002-.07286-.65574c-.07286-.14572-.07286-.21858-.145719-.21858 0 0-.07286-.0729-.14572-.0729z"/>
  <path fill="#1e1b1b" d="M51.36612 29.872496H0V144.91804h51.36612c2.404372 0 4.371585-1.96722 4.371585-4.37159V34.244076c0-2.40437-1.967213-4.37158-4.371585-4.37158z"/>
  <path fill="#070606" d="M52.094718 38.105646H0v-4.5173h52.094718c.364298 0 .655737.29144.655737.65573v3.13297c0 .43716-.291439.7286-.655737.7286z"/>
  <path fill="#282424" d="M51.803279 37.304186H13.843352v-4.37158h37.959927c.364298 0 .655737.29144.655737.65574v2.98725c.07286.43715-.218579.72859-.655737.72859z"/>
  <path fill="#1e1b1b" d="M0 32.932606h13.843352v4.37158H0z"/>
  <path fill="#252222" d="M0 32.932606h13.843352v.65574H0z"/>
  <path fill="#3c3939" d="M52.531876 33.588346H13.843352v-.65574h37.959927c.437158 0 .728597.29144.728597.65574z"/>
  <ellipse cx="270.16394" cy="104.69945" fill="#1b1818" rx="102.36794" ry="102.73224"/>
  <ellipse cx="269.72678" cy="102.36794" fill="#2c2929" rx="88.306007" ry="85.027321"/>
  <path fill="#181515" d="M332.89617 83.788706H206.55738c-7.50456 0-13.69764-6.19308-13.69764-13.69763 0-7.50456 6.19308-13.69763 13.69764-13.69763h126.33879c7.50456 0 13.69764 6.19307 13.69764 13.69763 0 7.50455-6.19308 13.69763-13.69764 13.69763z"/>
  <path d="M269.5082 80.728596h60.6193c4.08015 0 7.35884-3.13297 7.35884-13.84335h-7.35884v-5.53734h.21858-121.23861.21858v5.53734h-7.35884c0 10.71038 3.27869 13.84335 7.35884 13.84335h60.61931"/>
  <path fill="#282424" d="M269.5082 79.999996h60.03643c4.00728 0 7.28597-2.91439 7.28597-12.82331h-7.28597v-5.10018h.21858-120.07286.21858v5.10018h-7.28598c0 9.90892 3.27869 12.82331 7.28598 12.82331h60.03643"/>
  <path fill="#010102" d="M202.98725 71.912566H336.4663v.65574H202.98725z"/>
  <path fill="#363636" d="M218.57923 63.970856h-1.31147c0-.29144.29144-.51002.65574-.51002s.65573.21858.65573.51002z"/>
  <path fill="#464646" d="M218.57923 69.799636h-1.31147c0 .29144.29144.51002.65574.51002s.65573-.21858.65573-.51002z"/>
  <path fill="#424141" d="M217.26776 63.970856h1.31147v5.82878h-1.31147z"/>
  <path fill="#363636" d="M218.57923 74.171216h-1.31147c0-.21858.29144-.43715.65574-.43715s.65573.21857.65573.43715z"/>
  <path fill="#464646" d="M218.57923 78.834246h-1.31147c0 .21858.29144.43716.65574.43716s.65573-.14572.65573-.43716z"/>
  <path fill="#424141" d="M217.26776 74.171216h1.31147v4.73589h-1.31147z"/>
  <path fill="#363636" d="M320.87432 63.970856h1.31147c0-.29144-.29144-.51002-.65574-.51002-.36429 0-.65573.21858-.65573.51002z"/>
  <path fill="#464646" d="M320.87432 69.799636h1.31147c0 .29144-.29144.51002-.65574.51002-.36429 0-.65573-.21858-.65573-.51002z"/>
  <path fill="#424141" d="M320.87432 63.970856h1.31147v5.82878h-1.31147z"/>
  <path fill="#363636" d="M320.87432 74.171216h1.31147c0-.21858-.29144-.43715-.65574-.43715-.36429 0-.65573.21857-.65573.43715z"/>
  <path fill="#464646" d="M320.87432 78.834246h1.31147c0 .21858-.29144.43716-.65574.43716-.36429 0-.65573-.14572-.65573-.43716z"/>
  <path fill="#424141" d="M320.87432 74.171216h1.31147v4.73589h-1.31147z"/>
  <path fill="#dbdbdb" d="M233.15118 201.4572v-21.63935c11.14754 4.88161 23.5337 7.57742 36.5756 7.57742 13.04189 0 25.42805-2.69581 36.57559-7.57742v21.56649-.58288c-11.43898 4.00729-23.75228 6.63024-36.57559 6.63024-12.82332 0-25.13662-2.98725-36.5756-6.99454"/>
  <ellipse cx="269.72678" cy="196.93988" fill="#631418" rx="2.4043715" ry="2.550091"/>
  <circle cx="269.72678" cy="196.93988" r="1.6757741" fill="#f95d5d"/>
  <path fill="#391516" d="M249.98179 193.95264c.43715.0729.58287.0729 1.02003.14572.0729 0 .21858 0 .29144.0729.0729 0 .14572.0729.21858.0729.0729 0 .14572.0729.21858.14572.0729.0729.14572.0729.14572.14572 0 .0729.0729.14572.0729.21858v.29144c0 .29144-.14572.51002-.3643.58288-.21858.14572-.43716.14572-.80146.14572-.21858 0-.3643-.0729-.58288-.0729-.0729.43716-.0729.58288-.14572 1.02004-.21857 0-.29143-.0729-.51001-.0729.21858-1.0929.29144-1.60292.43716-2.69582zm.36429 1.31148c.21858 0 .3643.0729.58288.0729h.21858c.0729 0 .14572 0 .14572-.0729.0729 0 .0729-.0729.0729-.14572 0-.0729.0729-.0729.0729-.14572v-.21858c0-.0729-.0729-.0729-.0729-.14572-.0729 0-.0729-.0729-.14572-.0729-.0729 0-.14572 0-.21858-.0729-.21858 0-.3643-.0729-.58288-.0729 0 .43716-.0729.58288-.0729.87432zm3.42441-.87432c.21858 0 .3643.0729.51002.14572.14572.0729.29144.21858.3643.29144l.21858.43716s.0729.3643.0729.58288c0 .21858-.0729.3643-.14572.58288-.0729.21858-.21858.29144-.29144.43715-.14572.0729-.29144.21858-.43716.21858-.14572.0729-.3643.0729-.51002.0729-.21858 0-.3643-.0729-.51002-.14572-.14572-.0729-.29143-.21858-.36429-.36429l-.21858-.43716c-.0729-.14572-.0729-.3643 0-.58288 0-.21858.0729-.3643.14572-.58288.0729-.14572.21858-.29144.29143-.43716.14572-.0729.29144-.21858.43716-.21858h.43716zm-.21858 2.33152h.3643c.0729 0 .21858-.0729.29144-.14572.0729-.0729.14572-.14572.21858-.29144.0729-.14572.0729-.21858.0729-.3643v-.43716c0-.14572-.0729-.21858-.14572-.29144l-.21858-.21858s-.21858-.0729-.29144-.0729h-.29144c-.0729 0-.21858.0729-.29144.14572-.0729.0729-.14572.14572-.21858.29144-.0729.14572-.0729.21858-.0729.3643v.43716c0 .14572.0729.21858.14572.29144l.21858.21858c0 .0729.0729.0729.21858.0729zm5.31876-1.74864c-.36429 1.02004-.58287 1.60292-.94717 2.62295-.21858 0-.29144 0-.43716-.0729-.14572-.80145-.21858-1.23861-.3643-2.04007-.29144.80146-.43716 1.16576-.7286 1.89435-.21858 0-.29144 0-.43716-.0729-.21858-1.09289-.29143-1.67577-.51001-2.76867.21858 0 .29143 0 .51001.0729.0729.7286.14572 1.0929.29144 1.8215.29144-.7286.43716-1.02004.65574-1.74864.21858 0 .29144 0 .51002.0729l.3643 1.8215c.21858-.7286.3643-1.0929.58288-1.74864.14572.0729.29143.0729.51001.14572zm2.25866 2.84153c-.87432-.0729-1.23862-.0729-2.11294-.14572.0729-1.09289.14572-1.60291.21858-2.69581.80146.0729 1.23862.0729 2.04008.14572v.43716c-.58288-.0729-.87432-.0729-1.53006-.0729 0 .21858 0 .3643-.0729.58288.58288.0729.87432.0729 1.38434.0729v.43716c-.58288 0-.87432-.0729-1.4572-.0729 0 .29143 0 .43715-.0729.72859.65574.0729.94718.0729 1.60292.0729.0729.21858 0 .3643 0 .51002zm2.91439.14572h-.58288c-.0729-.29144-.14572-.43716-.21858-.7286 0-.0729-.0729-.0729-.0729-.14572 0-.0729-.0729-.0729-.0729-.14572-.0729 0-.0729-.0729-.14572-.0729h-.7286c0 .43716 0 .65574-.0729 1.0929h-.51002c.0729-1.0929.0729-1.60291.14572-2.69581.51002 0 .7286.0729 1.23862.0729h.43716c.0729 0 .14572 0 .14572.0729.0729 0 .0729.0729.14572.0729l.14572.14572c0 .0729.0729.0729.0729.14572 0 .0729 0 .0729.0729.14572v.14572c0 .14572-.0729.29144-.14572.43716-.0729.14572-.21858.21858-.3643.29143.14572.0729.21858.21858.29144.43716.0729.21858.14572.43716.21858.7286zm-1.74864-1.60291h.87432c.0729 0 .14572 0 .14572-.0729.0729 0 .0729-.0729.0729-.0729v-.14572c0-.14572 0-.21858-.0729-.29144-.0729-.0729-.21858-.0729-.3643-.0729h-.7286c.0729.21858.0729.3643.0729.65574zm23.1694-1.89436c.21858 0 .3643 0 .51002.0729l.43716.21858c.14572.0729.21858.21858.29144.43716.0729.14572.14572.3643.14572.58288v.58288c-.0729.14572-.14572.3643-.21858.43715-.0729.14572-.21858.21858-.3643.3643-.14572.14572-.29144.14572-.51002.14572-.21858 0-.3643 0-.51002-.0729l-.43716-.21858c-.14572-.0729-.21858-.21858-.29144-.43715-.0729-.14572-.14572-.3643-.14572-.58288 0-.21858 0-.43716.0729-.58288.0729-.14572.14572-.3643.21858-.43716.0729-.14572.21858-.21858.3643-.29144.0729-.14572.21858-.21858.43716-.21858zm.29144 2.33151c.14572 0 .21858-.0729.29144-.0729l.21858-.21858c.0729-.0729.0729-.21858.14572-.29144v-.43716c0-.14572-.0729-.29144-.0729-.3643-.0729-.14572-.14572-.21858-.21858-.29144-.0729-.0729-.14572-.14572-.29144-.14572-.0729 0-.21858-.0729-.29144 0-.14572 0-.21858.0729-.29144.0729-.0729 0-.14572.14572-.21858.21858-.0729.0729-.0729.21858-.14572.29144v.3643c0 .14572.0729.29144.0729.3643.0729.14572.14572.21858.21858.29144.0729.0729.14572.14572.29144.14572s.14572.0729.29144.0729zm4.08015-.14571c-.21858 0-.29144.0729-.51002.0729-.58288-.65574-.87432-.94718-1.4572-1.60292.0729.7286.14572 1.0929.21858 1.82149-.21858 0-.29144.0729-.51002.0729-.14572-1.09289-.21858-1.60291-.3643-2.69581.21858 0 .29144 0 .51002-.0729.58288.65574.87432.94718 1.4572 1.60292-.0729-.7286-.14572-1.0929-.21858-1.8215.21858 0 .29144-.0729.51002-.0729.14572 1.0929.21858 1.60292.3643 2.69582zm-6.84882-.43716v.51002c0 .0729-2.25865.21857-5.02732.36429-2.76867.14572-5.02733.29144-5.02733.21858v-.51002c0 .0729 2.25866-.0729 5.02733-.21857 2.76867-.14572 5.02732-.3643 5.02732-.3643z"/>
  <path d="M307.39526 127.86886v51.87613c-11.43898 4.95447-24.18943 7.72314-37.66848 7.72314-13.4062 0-26.15665-2.76867-37.66849-7.72314v-51.87613c0-4.88161 4.08014-8.81603 9.03461-8.81603h57.26776c4.95446 0 9.0346 3.93442 9.0346 8.81603z"/>
  <path fill="#211f1f" d="M305.93807 128.59745v51.2204c-11.14754 4.88161-23.5337 7.57742-36.57559 7.57742-13.0419 0-25.42805-2.69581-36.57559-7.57742v-51.2204c0-4.80874 3.93442-8.74317 8.74316-8.74317h55.59199c4.8816 0 8.81603 3.93443 8.81603 8.74317z"/>
  <path fill="#070606" d="M52.094718 45.173046H0v-4.51731h52.094718c.364298 0 .655737.29144.655737.65574v3.13297c0 .43716-.291439.7286-.655737.7286z"/>
  <path fill="#282424" d="M51.803279 44.371586H13.843352v-4.37159h37.959927c.364298 0 .655737.29144.655737.65574v3.06011c.07286.3643-.218579.65574-.655737.65574z"/>
  <path fill="#1e1b1b" d="M0 39.999996h13.843352v4.37159H0z"/>
  <path fill="#252222" d="M0 39.999996h13.843352v.65574H0z"/>
  <path fill="#3c3939" d="M52.531876 40.655736H13.843352v-.65574h37.959927c.437158 0 .728597.29144.728597.65574z"/>
  <path fill="#070606" d="M52.094718 52.240436H0v-4.5173h52.094718c.364298 0 .655737.29144.655737.65573v3.13297c0 .43716-.291439.7286-.655737.7286z"/>
  <path fill="#282424" d="M51.803279 51.438976H13.843352v-4.37158h37.959927c.364298 0 .655737.29144.655737.65574v2.98725c.07286.43715-.218579.72859-.655737.72859z"/>
  <path fill="#1e1b1b" d="M0 47.067396h13.843352v4.37158H0z"/>
  <path fill="#252222" d="M0 47.067396h13.843352v.65574H0z"/>
  <path fill="#3c3939" d="M52.531876 47.723136H13.843352v-.65574h37.959927c.437158 0 .728597.29144.728597.65574z"/>
  <path fill="#070606" d="M52.094718 59.307836H0v-4.51731h52.094718c.364298 0 .655737.29144.655737.65574v3.13297c0 .43716-.291439.7286-.655737.7286z"/>
  <path fill="#282424" d="M51.803279 58.506376H13.843352v-4.37159h37.959927c.364298 0 .655737.29144.655737.65574v2.98725c.07286.43716-.218579.7286-.655737.7286z"/>
  <path fill="#1e1b1b" d="M0 54.134786h13.843352v4.37159H0z"/>
  <path fill="#252222" d="M0 54.134786h13.843352v.65574H0z"/>
  <path fill="#3c3939" d="M52.531876 54.790526H13.843352v-.65574h37.959927c.437158 0 .728597.29144.728597.65574z"/>
  <path fill="#070606" d="M52.094718 66.375226H0v-4.5173h52.094718c.364298 0 .655737.29144.655737.65573v3.13297c0 .43716-.291439.7286-.655737.7286z"/>
  <path fill="#282424" d="M51.803279 65.573766H13.843352v-4.37158h37.959927c.364298 0 .655737.29144.655737.65574v2.98725c.07286.43716-.218579.72859-.655737.72859z"/>
  <path fill="#1e1b1b" d="M0 61.202186h13.843352v4.37158H0z"/>
  <path fill="#252222" d="M0 61.202186h13.843352v.65574H0z"/>
  <path fill="#3c3939" d="M52.531876 61.857926H13.843352v-.65574h37.959927c.437158 0 .728597.29144.728597.65574z"/>
  <path fill="#070606" d="M52.094718 73.442626H0v-4.51731h52.094718c.364298 0 .655737.29144.655737.65574v3.13297c0 .43716-.291439.7286-.655737.7286z"/>
  <path fill="#282424" d="M51.803279 72.641166H13.843352v-4.37159h37.959927c.364298 0 .655737.29144.655737.65574v2.98725c.07286.43716-.218579.7286-.655737.7286z"/>
  <path fill="#1e1b1b" d="M0 68.269576h13.843352v4.37159H0z"/>
  <path fill="#252222" d="M0 68.269576h13.843352v.65574H0z"/>
  <path fill="#3c3939" d="M52.531876 68.925316H13.843352v-.65574h37.959927c.437158 0 .728597.29144.728597.65574z"/>
  <path fill="#070606" d="M52.094718 80.510016H0v-4.5173h52.094718c.364298 0 .655737.29144.655737.65574v3.13296c0 .3643-.291439.7286-.655737.7286z"/>
  <path fill="#282424" d="M51.803279 79.708556H13.843352v-4.37158h37.959927c.364298 0 .655737.29144.655737.65574v2.98725c.07286.43716-.218579.72859-.655737.72859z"/>
  <path fill="#1e1b1b" d="M0 75.336976h13.843352v4.37158H0z"/>
  <path fill="#252222" d="M0 75.336976h13.843352v.65574H0z"/>
  <path fill="#3c3939" d="M52.531876 75.992716H13.843352v-.65574h37.959927c.437158 0 .728597.29144.728597.65574z"/>
  <path fill="#070606" d="M52.094718 87.577416H0v-4.51731h52.094718c.364298 0 .655737.29144.655737.65574v3.13297c0 .3643-.291439.7286-.655737.7286z"/>
  <path fill="#282424" d="M51.803279 86.775956H13.843352v-4.37158h37.959927c.364298 0 .655737.29143.655737.65573v2.98725c.07286.43716-.218579.7286-.655737.7286z"/>
  <path fill="#1e1b1b" d="M0 82.404376h13.843352v4.37158H0z"/>
  <path fill="#252222" d="M0 82.404376h13.843352v.65573H0z"/>
  <path fill="#3c3939" d="M52.531876 83.060106H13.843352v-.72859h37.959927c.437158 0 .728597.36429.728597.72859z"/>
  <path fill="#070606" d="M52.094718 94.644806H0v-4.5173h52.094718c.364298 0 .655737.29144.655737.65574v3.13296c0 .3643-.291439.7286-.655737.7286z"/>
  <path fill="#282424" d="M51.803279 93.843356H13.843352v-4.37159h37.959927c.364298 0 .655737.29144.655737.65574v2.98725c.07286.3643-.218579.7286-.655737.7286z"/>
  <path fill="#1e1b1b" d="M0 89.471766h13.843352v4.37159H0z"/>
  <path fill="#252222" d="M0 89.471766h13.843352v.65574H0z"/>
  <path fill="#3c3939" d="M52.531876 90.127506H13.843352v-.65574h37.959927c.437158-.0729.728597.29144.728597.65574z"/>
  <path fill="#070606" d="M52.094718 101.63935H0v-4.517314h52.094718c.364298 0 .655737.29144.655737.65574v3.132974c0 .43716-.291439.7286-.655737.7286z"/>
  <path fill="#282424" d="M51.803279 100.91075H13.843352v-4.371584h37.959927c.364298 0 .655737.29143.655737.65573v2.987254c.07286.3643-.218579.7286-.655737.7286z"/>
  <path fill="#1e1b1b" d="M0 96.539166h13.843352v4.371584H0z"/>
  <path fill="#252222" d="M0 96.539166h13.843352v.65573H0z"/>
  <path fill="#3c3939" d="M52.531876 97.194896H13.843352v-.65573h37.959927c.437158-.0729.728597.21858.728597.65573z"/>
  <path fill="#070606" d="M52.094718 108.70674H0v-4.5173h52.094718c.364298 0 .655737.29144.655737.65574v3.13297c0 .43715-.291439.72859-.655737.72859z"/>
  <path fill="#282424" d="M51.803279 107.97815H13.843352v-4.37159h37.959927c.364298 0 .655737.29144.655737.65574v2.98725c.07286.3643-.218579.7286-.655737.7286z"/>
  <path fill="#1e1b1b" d="M0 103.60656h13.843352v4.37159H0z"/>
  <path fill="#252222" d="M0 103.60656h13.843352v.65574H0z"/>
  <path fill="#3c3939" d="M52.531876 104.2623H13.843352v-.65574h37.959927c.437158-.0729.728597.21858.728597.65574z"/>
  <path fill="#070606" d="M52.094718 115.77414H0v-4.51731h52.094718c.364298 0 .655737.29144.655737.65574v3.13297c0 .43716-.291439.7286-.655737.7286z"/>
  <path fill="#282424" d="M51.803279 114.97268H13.843352v-4.37158h37.959927c.364298 0 .655737.29144.655737.65573v2.98725c.07286.43716-.218579.7286-.655737.7286z"/>
  <path fill="#1e1b1b" d="M0 110.6011h13.843352v4.37158H0z"/>
  <path fill="#252222" d="M0 110.6011h13.843352v.65573H0z"/>
  <path fill="#3c3939" d="M52.531876 111.32969H13.843352v-.65573h37.959927c.437158-.0729.728597.21858.728597.65573z"/>
  <path fill="#070606" d="M52.094718 122.84153H0v-4.5173h52.094718c.364298 0 .655737.29144.655737.65574v3.13297c0 .43715-.291439.72859-.655737.72859z"/>
  <path fill="#282424" d="M51.803279 122.04008H13.843352v-4.37159h37.959927c.364298 0 .655737.29144.655737.65574v2.98725c.07286.43716-.218579.7286-.655737.7286z"/>
  <path fill="#1e1b1b" d="M0 117.66849h13.843352v4.37159H0z"/>
  <path fill="#252222" d="M0 117.66849h13.843352v.65574H0z"/>
  <path fill="#3c3939" d="M52.531876 118.32423H13.843352v-.65574h37.959927c.437158 0 .728597.29144.728597.65574z"/>
  <path fill="#070606" d="M52.094718 129.90893H0v-4.51731h52.094718c.364298 0 .655737.29144.655737.65574v3.13297c0 .43716-.291439.7286-.655737.7286z"/>
  <path fill="#282424" d="M51.803279 129.10747H13.843352v-4.37158h37.959927c.364298 0 .655737.29144.655737.65573v2.98725c.07286.43716-.218579.7286-.655737.7286z"/>
  <path fill="#1e1b1b" d="M0 124.73589h13.843352v4.37158H0z"/>
  <path fill="#252222" d="M0 124.73589h13.843352v.65573H0z"/>
  <path fill="#3c3939" d="M52.531876 125.39162H13.843352v-.65573h37.959927c.437158 0 .728597.29144.728597.65573z"/>
  <path fill="#070606" d="M52.094718 136.97632H0v-4.5173h52.094718c.364298 0 .655737.29144.655737.65574v3.13297c0 .43716-.291439.72859-.655737.72859z"/>
  <path fill="#282424" d="M51.803279 136.17487H13.843352v-4.37159h37.959927c.364298 0 .655737.29144.655737.65574v2.98725c.07286.43716-.218579.7286-.655737.7286z"/>
  <path fill="#1e1b1b" d="M0 131.80328h13.843352v4.37159H0z"/>
  <path fill="#252222" d="M0 131.80328h13.843352v.65574H0z"/>
  <path fill="#3c3939" d="M52.531876 132.45902H13.843352v-.65574h37.959927c.437158 0 .728597.29144.728597.65574z"/>
  <path fill="#070606" d="M52.094718 144.04372H0v-4.5173h52.094718c.364298 0 .655737.29143.655737.65573v3.13297c0 .43716-.291439.7286-.655737.7286z"/>
  <path fill="#282424" d="M51.803279 143.24226H13.843352v-4.37158h37.959927c.364298 0 .655737.29144.655737.65574v2.98724c.07286.43716-.218579.7286-.655737.7286z"/>
  <path fill="#1e1b1b" d="M0 138.87068h13.843352v4.37158H0z"/>
  <path fill="#252222" d="M0 138.87068h13.843352v.65574H0z"/>
  <path fill="#3c3939" d="M52.531876 139.52642H13.843352v-.65574h37.959927c.437158 0 .728597.29144.728597.65574z"/>
  <path fill="#323030" d="M6.557377 238.39709H393.44262v1.23861H6.557377z"/>
  <path fill="#383736" d="M6.557377 239.6357H393.44262v2.47724H6.557377z"/>
  <path fill="#3f3e3d" d="M6.557377 242.11294H393.44262v1.23861H6.557377z"/>
  <path fill="#444241" d="M6.557377 243.35155H393.44262v1.23862H6.557377z"/>
  <path fill="#4a4747" d="M6.557377 244.59017H393.44262v1.23861H6.557377z"/>
  <path fill="#504d4c" d="M6.557377 245.82878H393.44262v1.23862H6.557377z"/>
  <path fill="#565252" d="M6.557377 247.0674H393.44262v1.23861H6.557377z"/>
  <path fill="#5b5857" d="M6.557377 248.37887H393.44262v1.23862H6.557377z"/>
  <path fill="#292424" d="M0 238.39709h6.557377v1.23861H0z"/>
  <path fill="#302a2b" d="M0 239.6357h6.557377v2.47724H0z"/>
  <path fill="#363031" d="M0 242.11294h6.557377v1.23861H0z"/>
  <path fill="#3c3636" d="M0 243.35155h6.557377v1.23862H0z"/>
  <path fill="#423b3c" d="M0 244.59017h6.557377v1.23861H0z"/>
  <path fill="#484141" d="M0 245.82878h6.557377v1.23862H0z"/>
  <path fill="#4e4646" d="M0 247.0674h6.557377v1.23861H0z"/>
  <path fill="#544b4c" d="M0 248.37887h6.557377v1.23862H0z"/>
  <path fill="#292424" d="M393.44262 238.39709H400v1.23861h-6.55738z"/>
  <path fill="#302a2b" d="M393.44262 239.6357H400v2.47724h-6.55738z"/>
  <path fill="#363031" d="M393.44262 242.11294H400v1.23861h-6.55738z"/>
  <path fill="#3c3636" d="M393.44262 243.35155H400v1.23862h-6.55738z"/>
  <path fill="#423b3c" d="M393.44262 244.59017H400v1.23861h-6.55738z"/>
  <path fill="#484141" d="M393.44262 245.82878H400v1.23862h-6.55738z"/>
  <path fill="#4e4646" d="M393.44262 247.0674H400v1.23861h-6.55738z"/>
  <path fill="#544b4c" d="M393.44262 248.37887H400v1.23862h-6.55738z"/>
  <g fill="#c4c4c4">
    <path d="M41.31147542 239.7814208c0-1.02003644-.6557377-2.2586521-1.23861567-2.2586521-.58287796 0-1.23861566.94717668-1.23861566 2.04007286 0 1.02003643.94717663 2.1129326 1.5300546 2.1129326s.9471767-.87431693.9471767-1.89435336z"/>
    <path d="M47.86885247 239.56284156l-.6557377-.36429872c.36429872-.6557377.5100182-1.38433516.5100182-2.04007286 0-2.4043716-1.9672131-4.3715847-4.44444444-4.3715847-2.40437158 0-4.44444444 1.9672131-4.44444444 4.3715847 0 .72859744.2185792 1.4571949.5100182 2.04007285l-.6557377.36429873c-.4371585-.72859745-.6557377-1.6029144-.6557377-2.40437158 0-2.76867032 2.3315118-5.0273224 5.1001821-5.10018216 2.84153006 0 5.10018215 2.2586521 5.10018215 5.10018216.29143897.87431693.07285974 1.67577413-.36429873 2.40437158z"/>
    <path d="M45.39162113 239.7814208c0-1.02003644.6557377-2.2586521 1.23861567-2.2586521.58287796 0 1.23861566.94717668 1.23861566 2.04007286 0 1.02003643-.94717668 2.1129326-1.53005464 2.1129326-.58287796 0-.9471767-.87431693-.9471767-1.89435336z"/>
  </g>
  <path fill="#c4c4c4" d="M35.118397 245.90164l-1.092896-3.13297h.655738l.801457 2.33152.801457-2.33152h.655738l-1.092896 3.13297h-.728598zm1.967213-1.53005c0-.29144.07286-.58288.14572-.80146.07286-.14572.145719-.29144.291439-.43716.145719-.14572.291439-.21858.437158-.29144.218579-.0729.437159-.14572.655738-.14572.437158 0 .801457.14572 1.092896.43716.291439.29144.437158.65574.437158 1.16576 0 .51002-.145719.87432-.437158 1.16575-.291439.29144-.655738.43716-1.092896.43716-.437159 0-.801457-.14572-1.092896-.43716-.291439-.21857-.437159-.58287-.437159-1.09289zm.655738-.0729c0 .3643.07286.65574.218579.80146.14572.21858.364299.29143.655738.29143.291439 0 .437158-.0728.655738-.29143.145719-.21858.218579-.43716.218579-.80146 0-.3643-.07286-.65574-.218579-.80146-.14572-.14572-.364299-.29144-.655738-.29144-.291439 0-.437159.0729-.655738.29144-.145719.21858-.218579.51002-.218579.80146zm2.91439 1.60291v-3.13297h.655737v2.5501h1.602915v.51001h-2.258652zm2.622951-3.13297h.655737v2.1858c0 .14572.07286.21858.218579.29144.07286.0729.21858.14571.437159.14571.145719 0 .291439 0 .437158-.14571.14572-.14572.14572-.14572.14572-.29144v-2.25866h.655738v1.67578c0 .3643 0 .65574-.07286.80146-.07286.14572-.07286.29143-.218579.36429-.14572.0729-.21858.21858-.364299.29144-.14572.0729-.364299.0729-.582878.0729-.291439 0-.510018 0-.655738-.0729-.145719-.0729-.291439-.14572-.364298-.29144-.07286-.14572-.14572-.21857-.14572-.36429-.07286-.14572-.07286-.43716-.07286-.80146v-1.60292zm3.205828 3.13297v-3.13297h.947177l.582878 2.11294.582878-2.11294h.947177v3.13297h-.582878v-2.47723l-.655738 2.47723h-.582878l-.582878-2.47723v2.47723h-.655738zm3.642988 0v-3.13297h2.331511v.51002h-1.675774v.7286h1.602915v.51002h-1.602915v.87431h1.675774v.51002h-2.331511z"/>
  <path d="M66.885246 216.90346h25.71949v11.43898h-25.71949z"/>
  <path fill="#dbdbdb" d="M67.249545 217.34062h24.990892v10.56467H67.249545z"/>
  <path fill="#ceccce" d="M72.422587 222.14937c-.510019 0-.947177-.43716-.947177-.87432 0-.51002.437158-.94718.947177-.94718.510018 0 .947176.43716.947176.94718 0 .43716-.437158.87432-.947176.87432zm14.571949 0c-.510019 0-.947177-.43716-.947177-.87432 0-.51002.437158-.94718.947177-.94718.510018 0 .947176.43716.947176.94718 0 .43716-.437158.87432-.947176.87432zm0 2.76867c-.510019 0-.947177-.43716-.947177-.87432 0-.51002.437158-.94718.947177-.94718.510018 0 .947176.43716.947176.94718 0 .43716-.437158.87432-.947176.87432zm-14.571949 0c-.510019 0-.947177-.43716-.947177-.87432 0-.51002.437158-.94718.947177-.94718.510018 0 .947176.43716.947176.94718 0 .43716-.437158.87432-.947176.87432zm2.477231 0c-.510018 0-.947177-.43716-.947177-.87432 0-.51002.437159-.94718.947177-.94718.510018 0 .947177.43716.947177.94718-.07286.43716-.510019.87432-.947177.87432zm2.404371 0c-.510018 0-.947176-.43716-.947176-.87432 0-.51002.437158-.94718.947176-.94718.510019 0 .947177.43716.947177.94718-.07286.43716-.437158.87432-.947177.87432zm2.404372 0c-.510018 0-.947177-.43716-.947177-.87432 0-.51002.437159-.94718.947177-.94718.510018 0 .947177.43716.947177.94718 0 .43716-.437159.87432-.947177.87432zm2.404372 0c-.510019 0-.947177-.43716-.947177-.87432 0-.51002.437158-.94718.874317-.94718.510018 0 .947177.43716.947177.94718.07286.43716-.364299.87432-.874317.87432zm2.477231 0c-.510018 0-.947177-.43716-.947177-.87432 0-.51002.437159-.94718.947177-.94718.510018 0 .947177.43716.947177.94718-.07286.43716-.437159.87432-.947177.87432zm-9.690346-2.76867c-.510018 0-.947177-.43716-.947177-.87432 0-.51002.437159-.94718.947177-.94718.510018 0 .947177.43716.947177.94718-.07286.43716-.510019.87432-.947177.87432zm2.404371 0c-.510018 0-.947176-.43716-.947176-.87432 0-.51002.437158-.94718.947176-.94718.510019 0 .947177.43716.947177.94718-.07286.43716-.437158.87432-.947177.87432zm2.404372 0c-.510018 0-.947177-.43716-.947177-.87432 0-.51002.437159-.94718.947177-.94718.510018 0 .947177.43716.947177.94718 0 .43716-.437159.87432-.947177.87432zm2.404372 0c-.510019 0-.947177-.43716-.947177-.87432 0-.51002.437158-.94718.874317-.94718.510018 0 .947177.43716.947177.94718.07286.43716-.364299.87432-.874317.87432zm2.477231 0c-.510018 0-.947177-.43716-.947177-.87432 0-.51002.437159-.94718.947177-.94718.510018 0 .947177.43716.947177.94718-.07286.43716-.437159.87432-.947177.87432z"/>
  <path fill="#0d0d0c" d="M92.604736 216.90346h-25.71949l-2.404372-1.82149h30.455374"/>
  <path fill="#4e4b4a" d="M94.936248 230.16394H64.480874l2.404372-1.8215h25.71949"/>
  <path fill="#211e1d" d="M66.885246 228.34244l-2.404372 1.8215v-15.08197l2.404372 1.82149m28.051002 13.26048l-2.331512-1.8215v-11.43898l2.331512-1.82149"/>
  <path fill="#c4c4c4" d="M74.681239 233.95264v-2.33151h1.020036c.218579 0 .437159 0 .582878.0729s.218579.14572.291439.21858c.07286.0729.07286.21858.07286.3643 0 .14572-.07286.29144-.14572.43716-.07286.14572-.291439.21858-.437158.21858.07286.0729.218579.14572.218579.21858.07286.0729.145719.21858.291439.3643l.291439.43715h-.582878l-.364299-.51001c-.145719-.21858-.218579-.29144-.218579-.3643-.07286-.0729-.07286-.0729-.145719-.0729h-.291439v.94717h-.582878zm.437158-1.31147h.801457c.07286 0 .07286-.0729.14572-.0729 0-.0729.07286-.0729.07286-.14572 0-.0729 0-.14572-.07286-.21858-.07286-.0729-.07286-.0729-.14572-.0729h-.728597v.51002zm1.894353 1.31147v-2.33151h1.748634v.3643h-1.238615v.51002h1.165756v.3643h-1.165756v.65574h1.311475v.3643H77.01275zm2.040073-.72859l.437159-.0729c0 .14572.07286.29144.145719.3643.07286.0729.21858.0729.364299.0729s.291439 0 .364299-.0729c.07286-.0729.145719-.14572.145719-.21858 0-.0729 0-.0729-.07286-.14572 0-.0729-.07286-.0729-.145719-.0729-.07286 0-.14572-.0729-.364299-.0729-.218579-.0729-.437158-.14572-.510018-.21858-.145719-.14572-.218579-.29144-.218579-.43716 0-.14572 0-.21858.07286-.3643.07286-.0729.145719-.21858.291439-.21858.145719-.0729.291439-.0729.437158-.0729.291439 0 .510018.0729.655738.21858.145719.14572.218579.29144.218579.51002h-.510018c0-.14572-.07286-.21858-.14572-.29144-.07286-.0729-.145719-.0729-.291439-.0729-.145719 0-.218579 0-.291439.0729-.07286 0-.07286.0729-.07286.14572 0 .0729 0 .0729.07286.14572.07286.0729.21858.0729.437159.14572.218579.0729.437158.14572.510018.14572.145719.0729.218579.14572.291439.21858.07286.0729.07286.21858.07286.3643 0 .14572-.07286.29144-.14572.3643-.07286.0729-.145719.21858-.291439.29143-.145719.0729-.291439.0729-.510018.0729-.291439 0-.510018-.0729-.655738-.21857-.145719-.14572-.218579-.3643-.291439-.58288zm2.331512.72859v-2.33151h1.748634v.3643h-1.238616v.51002h1.165756v.3643h-1.165756v.65574h1.311476v.3643h-1.821494zm2.695811 0v-1.96721h-.728598v-.3643h1.894354v.3643h-.728598v1.96721h-.437158z"/>
  <path fill="#d4aa6f" d="M248.67031 159.12569v-1.8215c1.82149-.43716 3.06011-1.09289 3.64299-1.82149h1.82149v9.18033h-2.40437v-6.84882c-1.38434.65574-2.40437 1.0929-3.06011 1.31148zm15.15483-1.23862l-2.1858.51002c-.21857-.94718-.72859-1.38434-1.60291-1.38434-1.23862 0-1.89435 1.02004-1.89435 2.98725.51001-.65573 1.31147-1.02003 2.40437-1.02003 1.02003 0 1.82149.29144 2.47723.80145.65574.51002.94718 1.16576.94718 1.96722 0 .80145-.3643 1.53005-1.02004 2.11293-.7286.58288-1.60291.94718-2.76867.94718-1.16576 0-2.04007-.21858-2.69581-.7286-.65574-.51002-1.0929-1.0929-1.38434-1.74863-.21858-.65574-.3643-1.38434-.3643-1.96722 0-1.38433.3643-2.47723 1.0929-3.42441.7286-.87431 1.82149-1.31147 3.27869-1.31147 1.02004 0 1.89435.21858 2.55009.7286.58288.29144 1.02004.80145 1.16576 1.53005zm-3.93443 5.31876c.43716 0 .80146-.14572 1.16576-.3643.29144-.29144.43715-.58287.43715-1.09289 0-.43716-.14571-.7286-.51001-1.02004-.29144-.21858-.7286-.3643-1.0929-.3643-.43716 0-.80146.14572-1.0929.3643-.29143.29144-.51001.58288-.51001 1.02004 0 .3643.14572.72859.43715 1.02003.29144.29144.7286.43716 1.16576.43716zm4.73588-3.42441h3.78871v1.60292h-3.78871v-1.60292zm5.10019-4.153h5.02732c.87432 0 1.60291.0729 2.04007.29144.43716.21858.80146.43716 1.0929.80146.29144.36429.43716.72859.43716 1.23861 0 1.02004-.65574 1.67577-1.96722 1.96721.7286.14572 1.31148.43716 1.67578.80146.3643.43716.58287.87432.58287 1.38434 0 .65573-.29143 1.23861-.94717 1.74863-.58288.51002-1.60292.7286-2.98725.7286h-5.02732v-8.96175zm2.47723 1.53005v1.96722h1.89435c.7286 0 1.16576-.14572 1.31148-.3643.14572-.21858.29144-.43716.29144-.65574s-.0729-.43716-.21858-.58288c-.14572-.14572-.29144-.29144-.51002-.29144-.14572-.0729-.51002-.0729-1.02004-.0729h-1.74863zm0 3.57013v2.18579h1.89435c.65574 0 1.0929-.0729 1.38434-.29144.29143-.21857.43715-.43715.43715-.80145 0-.29144-.14572-.51002-.36429-.7286-.29144-.21858-.7286-.29144-1.31148-.29144h-2.04007zm9.47176-5.10018v8.96175h-2.47723v-8.96175h2.47723zm8.45173 0v1.74863h-2.62295v7.21312h-2.55009v-7.21312h-2.69581v-1.74863h7.86885z"/>
  <path fill="#c2c2c2" d="M383.24226 233.22405h-5.17304v-1.23861h3.57012c-.29143-.80146-.43715-1.38434-.65573-2.04007-.51002-1.60292-1.02004-3.20583-1.53006-4.73589-.14572-.3643-.51002-.87431-.87432-.94717-.58287-.14572-.72859.43715-.94717.94717-.80146 2.40437-1.60292 4.88161-2.33151 7.28598-.14572.58288-.43716.80145-1.02004.72859-1.60291-.0729-3.20583 0-4.73588 0-1.60292 0-2.69581-1.09289-2.69581-2.76867v-4.5173c.0729-1.67577 1.09289-2.69581 2.69581-2.76867h4.37158v1.31148h-3.71585c-1.74863 0-2.11293.43715-2.11293 2.25865v3.42441c0 1.23861.58288 1.82149 1.67578 1.82149h2.84153v-3.93443h-2.33152v-1.23861h3.64299v5.17304h.21858c.80146-2.40437 1.53006-4.80874 2.33151-7.21312.43716-1.38433 1.23862-1.89435 2.55009-1.74863.7286.14572 1.23862.51002 1.53006 1.23862.94717 2.84153 1.89435 5.75592 2.76867 8.67031 0 .14572-.0729.21857-.0729.29143zm-32.42259 0v-1.23861h4.08015c1.16575 0 1.96721-.87432 2.04007-1.89435.0729-1.02004-.80146-1.96722-1.89435-2.04008-.43716 0-.94718 0-1.38434-.0729-.7286-.0729-1.16575-.72859-1.16575-1.45719 0-.80146.51001-1.4572 1.16575-1.4572 1.4572-.0729 2.98725 0 4.51731 0v1.23862h-4.37159v.43716c.43716 0 .80146.0729 1.23862.0729 1.53005 0 2.69581.94717 3.06011 2.47723.51001 1.89435-.87432 3.93442-2.76867 4.00728-1.4572 0-2.98725-.0729-4.51731-.0729z"/>
  <path fill="#c2c2c2" d="M350.74681 231.47542v-1.31147h4.37159v-.3643c-.43716 0-.87432-.0729-1.31148-.0729-1.23861 0-2.18579-.65574-2.69581-1.74864-.58288-1.16575-.43716-2.33151.29144-3.4244.51002-.7286 1.23862-1.23862 2.11293-1.23862 1.53006-.0729 3.06011 0 4.66303 0v1.23862h-4.15301c-1.38433 0-2.25865 1.31147-1.82149 2.62295.21858.80145.94717 1.31147 1.89435 1.38433.43716 0 .87432 0 1.31148.0729.65573.0729 1.23861.7286 1.23861 1.4572 0 .72859-.51002 1.45719-1.16575 1.45719-1.67578 0-3.13297-.0729-4.73589-.0729zm15.37341-8.16029v1.23862h-4.08015c-1.45719 0-1.89435.51001-1.89435 1.96721v3.57013c0 1.38433.51002 1.89435 1.82149 1.89435h4.15301v1.23861h-4.8816c-1.16576-.0729-2.1858-1.16575-2.25866-2.40437-.0729-1.74863-.0729-3.49726 0-5.2459 0-1.09289.94718-2.25865 2.04008-2.33151 1.67577 0 3.35154.0729 5.10018.0729zm9.32605 9.90892c.87431-2.69581 1.74863-5.39162 2.62295-8.01457.0729-.21858.29144-.3643.43716-.43716.0729 0 .36429.14572.43715.29144.7286 2.11294 1.38434 4.22587 2.11294 6.41166h-2.98725c0-.29144-.0729-.58288-.0729-.87432-.0729 0-.0729 0-.14572-.0729-.14572.51002-.3643.94718-.51002 1.4572-.43716 1.38433-.43716 1.38433-1.89435 1.23861zm2.55009-3.13296h1.02003c-.14572-.51002-.29144-.94718-.43716-1.38434h-.14571c-.14572.43716-.29144.87432-.43716 1.38434zm-6.92168-.14572c-.3643-.14572-.58288-.14572-.87432-.29144v-1.0929h1.89436v2.91439c-1.02004 0-1.96722.0729-2.91439-.0729-.21858 0-.65574-.51002-.65574-.80146-.0729-1.60291-.0729-3.13297 0-4.73588 0-.58288.3643-.87432.87432-.87432h4.44444v1.23862h-3.27869c-.65573 0-.94717.21858-.87431.94718.0729.72859 0 1.45719 0 2.18579 0 .94717.43715 1.09289 1.38433.58288z"/>
  <path fill="#c2c2c2" d="M361.89435 230.16395c1.38434.21857 2.76867 0 4.15301.14571v1.16576c-1.60292 0-3.20583.0729-4.73588-.0729-.21858 0-.65574-.51002-.65574-.87432-.14572-.65573 0-1.31147 0-2.04007h4.44444v1.16576h-3.13297c0 .21858 0 .3643-.0729.51002zm4.22587-5.10019v1.16576c-1.38434.21858-2.84153-.14572-4.22587.14572v.29144h3.13297v1.23861h-4.44444c0-.72859-.0729-1.45719 0-2.25865 0-.29144.43716-.65574.7286-.65574 1.60291 0 3.20582.0729 4.80874.0729z"/>
  <path fill="#c2c2c2" d="M297.19489 231.35823v-.6948h6.25319q.4632 0 .4632.6948h-6.71639zm0 2.08439v-1.85279h1.158v1.85279h-1.158zm2.7792 0v-1.85279h1.158v1.85279h-1.158zm2.77919 0v-1.85279h1.158v1.85279h-1.158zm1.6212-.6948v-1.15799h1.15799q0 .23159.2316.23159h2.77919v.6948h-3.01079q0 .2316.2316.2316h3.01079v.6948h-3.93718q-.4632 0-.4632-.6948zm0-1.38959v-.6948h4.40038v.6948h-4.40038zm4.86358 0q0-.6948.4632-.6948h4.16879v.6948h-4.63199zm0 1.38959v-1.15799h1.158v1.15799h2.31599q.2316 0 .2316-.11579 0-.11581-.2316-.11581h-1.38959v-.6948h2.08439q.6948 0 .6948.6948v.2316q0 .6948-.4632.6948h-3.93719q-.4632 0-.4632-.6948zm5.32679.6948v-1.85279h1.15799v1.85279h-1.15799zm3.70559 0v-.4632h-2.316v-.6948h2.316v-.69479h1.158v1.85279h-1.158zm-3.70559-2.08439q0-.6948.46319-.6948h3.9372q.4632 0 .4632.6948h-4.86359zm7.02077 2.08439v-1.85279h1.15799v1.85279h-1.15799zm4.40038 0h-3.01079v-.6948h2.316v-1.15799h1.15799v1.15799q0 .6948-.4632.6948zm-4.40038-2.08439v-.6948h4.40038q.4632 0 .4632.6948h-4.86358zm5.32678 2.08439v-1.85279h1.158v1.85279h-1.158zm0-2.08439q0-.6948.4632-.6948h3.93719q.4632 0 .4632.6948h-4.86359zm1.3896 1.62119v-.6948h2.08439q.2316 0 .2316-.2316v-.46319h1.158v.69479q0 .6948-.4632.6948l.69479.4632h-1.15799l-.6948-.4632H328.302zm4.16878.4632v-1.85279h1.15801v1.85279h-1.15801zm0-2.08439v-.6948h1.15801v.6948h-1.15801zm2.0844 0l-.4632-.6948h1.3896l.4632.6948h-1.3896zm1.3896 2.08439l-1.158-1.85279h1.3896l.6948 1.11167.69479-1.11167h1.3896l-1.158 1.85279h-1.85279zm1.81971-2.08439l.4632-.6948h1.38959l-.4632.6948h-1.38959zm2.31599 1.38959v-1.15799h1.158q0 .23159.2316.23159h2.77919v.6948h-3.01079q0 .2316.2316.2316h3.01079v.6948h-3.93719q-.4632 0-.4632-.6948zm0-1.38959v-.6948h4.40039v.6948h-4.40039z" style="-inkscape-font-specification:NiseMegaDriveEU" font-size="4.64998579" letter-spacing="0" word-spacing="0" font-family="NiseMegaDriveEU"/>
</svg>
