<svg id="Calque_1" data-name="Calque 1" xmlns="http://www.w3.org/2000/svg" viewBox="0 0 257.8739 151.73505"><title>controller</title><path d="M251.69844,49.7424c-4.40709-8.57215-11.20429-14.85-19.12594-20.04872-13.66-8.96042-28.56544-15.21306-44.06085-20.14455A201.23165,201.23165,0,0,0,149.352,1.12825C143.22045.45759,137.01825.39709,130.85133.029c-1.1295-.06556-8.30993-.00505-9.36887.0353a202.27885,202.27885,0,0,0-89.826,24.19362C23.27087,28.781,15.556,34.24194,9.96891,42.21909A53.11492,53.11492,0,0,0,.51939,69.87184c-.06556,1.0589-.09647,1.2018-.09647,1.2018C.19031,72.14877,0,73.11918,0,73.23011s.18643,1.08217.41429,2.15832c0,0,.00424.02.0244,1.01338.21682,12.69686,3.82218,24.52641,9.43442,35.766,5.89966,11.79929,13.7003,22.17664,24.14825,30.3807,4.5382,3.565,9.47978,6.31816,15.34414,7.16529a20.26642,20.26642,0,0,0,21.15806-11.43121c2.8389-6.31314,6.25769-12.1775,11.47156-16.872a34.91412,34.91412,0,0,1,11.32533-6.83755,95.90041,95.90041,0,0,1,50.374-4.92644,86.52086,86.52086,0,0,1,22.67079,6.99891c9.28315,4.42724,15.14246,12.05646,18.93941,21.37488,1.60854,3.94319,3.53478,7.5334,7.24595,9.89831,7.45779,4.74495,15.14751,4.98193,23.01881,1.1749,6.71146-3.24229,12.20773-8.083,17.19465-13.49863,12.16747-13.2011,20.35135-28.52508,23.7449-46.19883C259.136,75.72106,258.19815,62.37374,251.69844,49.7424Zm-155.292-34.808v.00505l.00252.005-.00252-.005Zm8.87219-.38828c-.00139,0-.00139-.00453,0-.01008s.00365-.01563.005-.01008A.03544.03544,0,0,1,105.27861,14.54617Zm14.92058.40592c-.00693-.00139-.00921-.00479-.005-.00756a.05265.05265,0,0,1,.02017-.00756c.00139.00139.00868.00593.01007.01008S120.20612,14.95347,120.19919,14.95209Z" fill="#3b3b3c"/><path d="M98.72457,70.97131c-.03876,22.13273-17.38889,41.11057-40.98192,41.14362C34.59121,112.14736,16.81541,93.9067,16.5545,71.1366c-.25766-22.48782,18.413-41.21508,40.91782-41.29938A41.186,41.186,0,0,1,98.72457,70.97131ZM57.748,31.21248A39.77776,39.77776,0,0,0,17.89677,70.92532c-.036,21.94027,17.85881,40.04446,39.68407,39.91162,22.14143-.13477,39.86342-17.32543,39.80837-39.94644A39.49831,39.49831,0,0,0,57.748,31.21248Z" fill="#4a494a"/><path d="M228.67027,40.311a48.85617,48.85617,0,0,0-14.4466.33783c-21.61694,3.0154-39.53777,13.26666-55.013,28.20742-6.22238,6.00556-9.04109,13.22129-7.66451,22.06572,1.81526,11.71358,12.76746,20.0084,24.38019,17.7393a39.49262,39.49262,0,0,0,9.3386-3.59526c4.59369-2.21361,8.92513-5.01219,13.58939-7.05437,11.01267-4.82057,22.12118-9.43439,33.26-13.94738,9.85793-3.99865,14.7138-10.811,14.91545-21.47576C247.2466,51.10178,239.75859,42.05564,228.67027,40.311Zm5.33494,41.98841a12.95012,12.95012,0,0,1-1.5632.73116c-6.40388,2.52122-12.91369,4.78527-19.17642,7.609-8.9957,4.0491-17.825,8.46625-26.65433,12.87839-4.518,2.259-8.86459,4.7046-14.17429,4.66425-10.67484-.08571-19.07557-7.97711-20.24037-18.62173-1.0135-9.263,2.91959-16.17111,9.44451-21.99007,10.19076-9.0915,21.22867-16.88208,34.2432-21.53123,6.47959-2.30941,18.78309-5.36513,27.15858-5.21386,5.90979-.31263,11.10851,1.58333,16.33752,5.73325,4.25074,3.37339,6.13156,9.89326,6.63082,14.83485.03527.36809.05041.73621.05041,1.1043C246.03641,67.98386,245.30528,76.00637,234.00521,82.29936Z" fill="#151515"/><path d="M246.06164,62.49769c-.02523,5.48617-.75636,13.50868-12.05643,19.80167a12.95012,12.95012,0,0,1-1.5632.73116c-6.40388,2.52122-12.91369,4.78527-19.17642,7.609-8.9957,4.0491-17.825,8.46625-26.65433,12.87839-4.518,2.259-8.86459,4.7046-14.17429,4.66425-10.67484-.08571-19.07557-7.97711-20.24037-18.62173-1.0135-9.263,2.91959-16.17111,9.44451-21.99007,10.19076-9.0915,21.22867-16.88208,34.2432-21.53123,6.47959-2.30941,18.78309-5.36513,27.15858-5.21386,5.90979-.31263,11.10851,1.58333,16.33752,5.73325,4.25074,3.37339,6.13156,9.89326,6.63082,14.83485C246.0465,61.76148,246.06164,62.1296,246.06164,62.49769Z" fill="#191919"/><path d="M194.48755,38.44019c-5.71811,2.65738-11.50682,5.1685-17.29052,7.68471a8.22162,8.22162,0,0,1-2.02707.43364c-3.807-.0353-6.36356-2.16323-7.08967-5.45593a5.92517,5.92517,0,0,1,3.65075-7.21573c5.37523-2.44055,10.7656-4.86092,16.20638-7.16027,4.92648-2.08253,9.258.0807,9.9992,4.83572A6.29116,6.29116,0,0,1,194.48755,38.44019Z" fill="#191919"/><path d="M57.748,31.21248a39.49831,39.49831,0,0,1,39.64123,39.678c.055,22.621-17.66694,39.81167-39.80837,39.94644-21.82526.13284-39.72012-17.97135-39.68407-39.91162A39.77776,39.77776,0,0,1,57.748,31.21248ZM57.713,38.756a32.31506,32.31506,0,0,0-32.284,32.14c-.03853,17.68163,14.52956,32.51971,32.07272,32.41437,17.13485-.10289,32.38591-13.08245,32.34928-32.49931A32.01724,32.01724,0,0,0,57.713,38.756Zm-2.75961-1.88549.41763.648,3.8148-.293-1.92836-4.67222-.64288.03288ZM19.23617,71.33864l.05443.77386,4.98422,1.75934-.29159-4.34561Zm72.12364-1.77936v4.35341l4.80657-1.911-.00989-.67077ZM54.84809,104.92966l1.83072,4.83453.64934-.05506,1.77211-4.77947ZM30.85354,98.65518l.60411.50581a6.62144,6.62144,0,0,0,1.594-.91556c.15225-.15042-.06291-.95044-.33847-1.17871-.28052-.23238-1.10294-.31092-1.22974-.132A6.44142,6.44142,0,0,0,30.85354,98.65518ZM82.049,98.44973l.67016.69689a6.30782,6.30782,0,0,0,1.62927-.80928c.17228-.15476.02983-.9431-.21944-1.20408-.24826-.25993-1.02683-.43568-1.19173-.2697A6.29182,6.29182,0,0,0,82.049,98.44973ZM30.8544,46.99717l.52837.53441a6.71,6.71,0,0,0,1.64574-.77564c.15809-.13079.00709-.92884-.24453-1.17844-.25072-.24871-1.051-.39006-1.17893-.23118A6.68075,6.68075,0,0,0,30.8544,46.99717Zm53.69986-1.05444c-.79121-.47639-1.30278-1.02767-1.6879-.95022a1.53765,1.53765,0,0,0-.97325,1.16679A1.52771,1.52771,0,0,0,83.029,47.16272C83.42574,47.17494,83.84216,46.54745,84.55426,45.94273Z" fill="#0f0f0f"/><path d="M54.95338,36.87055l1.66119-4.28435.64288-.03288,1.92836,4.67222-3.8148.293Z" fill="#9a4353"/><path d="M19.23617,71.33864l4.74706-1.81241.29159,4.34561L19.2906,72.1125Z" fill="#9a4353"/><path d="M91.35981,69.55928l4.79668,1.7716.00989.67077-4.80657,1.911Z" fill="#9a4353"/><path d="M54.84809,104.92966h4.25217l-1.77211,4.77947-.64934.05506Z" fill="#9a4353"/><path d="M231.45371,78.1595c-7.98223,3.18683-16.10054,6.06607-23.93141,9.58064-8.32507,3.73647-16.42326,7.99229-24.54662,12.16236-6.3081,3.18683-8.39063,3.04061-13.2213,2.20355-3.50952-.61012-9.0209-4.00875-11.20428-8.61751a15.61171,15.61171,0,0,1-1.47744-8.15867c.61517-6.3686,3.91294-10.095,8.073-12.81791,15.28363-10.00923,31.86819-17.25016,48.952-23.47255a45.71956,45.71956,0,0,1,9.026-2.71788c10.05964-1.422,18.294,5.71814,18.71248,15.90892C242.15375,70.06135,238.81061,75.2248,231.45371,78.1595Z" fill="#111"/><path d="M193.73057,30.985c.83515,1.54424.457,3.37213-1.89189,4.38946-5.07542,2.42845-10.18476,4.78619-15.28971,7.15258a6.052,6.052,0,0,1-1.51722.506,3.2526,3.2526,0,0,1-3.54735-2.03146,2.927,2.927,0,0,1,1.2525-3.50605c.371-.277,11.15484-5.0638,16.12739-7.23576C191.6348,28.93647,193.16632,29.94164,193.73057,30.985Z" fill="#b7b7b7"/><path d="M32.59882,70.92578a25.104,25.104,0,0,1,50.20771.06283,25.10406,25.10406,0,1,1-50.20771-.06283Zm25.12581-23.6386A23.74683,23.74683,0,1,0,81.43248,70.96631,23.39394,23.39394,0,0,0,57.72463,47.28718Z" fill="#0a0a0a"/><path d="M79.651,67.77209c-.0353-1.99177-.52945-2.375-2.56153-2.53636a49.23939,49.23939,0,0,1-5.587-.66561c-4.32137-.86728-6.73669-3.686-7.51324-7.9267a47.0603,47.0603,0,0,1-.4639-4.99708c-.15127-2.11278-.74122-2.7834-2.82375-2.849-2.012-.0605-4.034-.06555-6.04592.00505-2.1178.07057-2.57668.68577-2.76324,2.85906a44.82533,44.82533,0,0,1-.81183,5.97023,8.3889,8.3889,0,0,1-6.69133,6.76193,42.67587,42.67587,0,0,1-6.36355.832c-1.64889.121-2.491.85215-2.54138,2.47583-.04035,1.2707-.04035,2.55147-.04035,3.82722-.00505,5.08781,0,5.08781,4.997,5.36514,6.99891.38827,10.16053,3.28263,11.164,10.27145a33.29072,33.29072,0,0,0,.38323,3.79192c.21178.77652.94294,1.96656,1.50264,2.00187,3.04061.19663,6.10642.09577,9.53023.09577.20171-1.63879.46389-2.98007.50929-4.33648.26221-7.4023,3.333-10.8463,10.58912-11.74888.92779-.116,1.88587-.01515,2.81369-.13111a27.38776,27.38776,0,0,0,2.72795-.66056C79.66111,73.12716,79.69641,70.44962,79.651,67.77209Zm-.96309,8.01241H62.58237V92.02117H52.99163c-.08066-5.32987-.15631-10.50843-.242-16.13581H36.73986V66.35012c5.24415-.09581,10.35716-.19162,15.71223-.29247.16136-1.38163.38323-2.48592.39837-3.59022.05546-3.22717.00505-6.45432.04032-9.67644.01009-.84713.1866-1.68921.31266-2.76325H62.3605c.0706,5.27437.13615,10.44792.21177,16.06016,5.51643.07565,10.695.15127,16.11565.22692Z" fill="#151515"/><path d="M46.966,57.03909l-2.59715,2.45554L42.87425,56.2293l.36011-.56Z" fill="#151515"/><path d="M71.53182,60.00227l-1.76574-1.702.20906-.72652,3.15205-1.38036.43335.43407L72.2964,59.75048Z" fill="#151515"/><path d="M42.5274,85.697l1.41506-3.44386L46.53753,84.601l-3.54992,1.558Z" fill="#151515"/><path d="M71.31465,82.64062l1.5021,3.54462-.40851.46045L68.87607,85.2601Z" fill="#151515"/><path d="M57.93144,74.99557a4.13616,4.13616,0,1,0-4.13615-4.13616A4.13616,4.13616,0,0,0,57.93144,74.99557Z" fill="#fff"/><path d="M162.42637,86.44665A11.46767,11.46767,0,1,1,173.894,97.91431,11.46766,11.46766,0,0,1,162.42637,86.44665ZM173.894,96.655a10.20839,10.20839,0,1,0-10.20839-10.20839A10.20839,10.20839,0,0,0,173.894,96.655Z" fill="#121212"/><path d="M188.79416,73.4114a11.46767,11.46767,0,1,1,11.46766,11.46766A11.46766,11.46766,0,0,1,188.79416,73.4114Zm11.46766,10.20838A10.20839,10.20839,0,1,0,190.05343,73.4114,10.20839,10.20839,0,0,0,200.26182,83.61978Z" fill="#121212"/><path d="M215.86122,62.56492a11.46767,11.46767,0,1,1,11.46767,11.46766A11.46766,11.46766,0,0,1,215.86122,62.56492Zm11.46767,10.20839A10.20839,10.20839,0,1,0,217.1205,62.56492,10.20839,10.20839,0,0,0,227.32889,72.77331Z" fill="#121212"/><path d="M178.20685,85.97656l-.85475.408-1.37768-.896-3.242,1.5474-.13254,1.61682-.89205.42577.48773-5.66666,1.25851-.60068Zm-2.9055-1.02946-1.87852-1.27164-.55159.26327-.114,2.22265Z" fill="#a9362c"/><path d="M202.61466,72.24078a.88323.88323,0,0,0,.11341-1.01114l-.17258-.38715c-.35594-.75389-.9744-.9203-1.84906-.50734l-3.95272,1.86621.3417.74531,1.42178,3.01142.36428.74995,3.95271-1.86621c.87467-.413,1.13719-1.00043.78322-1.75015l-.18925-.37925A.87149.87149,0,0,0,202.61466,72.24078Zm-.07423,1.828-.5123.24187-2.75707,1.29154-.53293-1.12876,2.7865-1.3156.48289-.21779c.33323-.15733.58833-.04858.76335.32212C202.94983,73.64117,202.87367,73.91142,202.54043,74.06875Zm-.89278-1.891-3.26545,1.54173-.53293-1.12876,3.26545-1.54173c.33323-.15733.59031-.04439.76926.33463C202.061,71.75852,201.98088,72.02045,201.64765,72.17778Z" fill="#a9362c"/><path d="M227.63892,60.78408l-1.91936.79074c-1.28723.5243-.96355.99179-.543,2.01846s.51547,1.58491,1.79876,1.05931l3.39547-1.3907.3154.77006-3.38977,1.39274c-1.79342.73746-2.24856.02853-2.87927-1.51138-.63079-1.54011-.813-2.36957.966-3.10428l3.41087-1.397.31275.76361Z" fill="#a9362c"/><g id="SEGA"><path d="M148.38535,69.43822h-6.43667V67.93278h4.41189c-.32081-.97029-.5863-1.75977-.843-2.55235-.6399-1.9756-1.23773-3.96758-1.94077-5.91825a1.93622,1.93622,0,0,0-1.04909-1.15488c-.70687-.16436-.93631.56919-1.13256,1.17626-.97866,3.02718-1.98546,6.0447-2.93235,9.08263a1.09866,1.09866,0,0,1-1.26543.93479c-1.97464-.05379-3.95161-.00488-5.92744-.02264a3.21218,3.21218,0,0,1-3.35449-3.39967c-.03933-1.86625-.04266-3.735.0005-5.601a3.191,3.191,0,0,1,3.33811-3.414c1.78083-.02531,3.56226-.00529,5.40646-.00529v1.5849c-1.53064,0-3.05258.00028-4.57451-.00007-2.14705-.0005-2.63974.51817-2.64024,2.78164-.0003,1.40874-.00635,2.81751.00178,4.2262.00869,1.50674.695,2.24129,2.11323,2.2563,1.15126.01219,2.30272.00248,3.51313.00248V62.99611h-2.93022V61.46727h4.56577v6.47342l.24933.02922q1.44864-4.46424,2.89657-8.92873c.55062-1.70181,1.56454-2.39355,3.19994-2.14233a2.235,2.235,0,0,1,1.88194,1.57124c1.18268,3.574,2.32969,7.16087,3.48571,10.74446C148.44014,69.26792,148.40326,69.34032,148.38535,69.43822Z" fill="#d6d6d6"/><path d="M108.04781,69.47112v-1.567c1.71727,0,3.40125.01872,5.08464-.00577a2.45392,2.45392,0,0,0,.135-4.90595c-.5626-.03949-1.13265.0148-1.69216-.04566a1.78084,1.78084,0,0,1-1.48838-1.84323,1.70619,1.70619,0,0,1,1.49108-1.82681c1.84134-.0537,3.68512-.01638,5.57657-.01638v1.55025H111.741l-.0051.52141c.51621.02294,1.03221.0553,1.54865.06716a3.85686,3.85686,0,0,1,3.83739,3.10506,3.96754,3.96754,0,0,1-3.42024,4.95143C111.8575,69.53234,110.008,69.47112,108.04781,69.47112Z" fill="#d6d6d6"/><path d="M108.0324,67.28939V65.67066h5.43252l.00171-.45488c-.55391-.02238-1.10765-.05553-1.66176-.06509a3.60965,3.60965,0,0,1-3.394-2.20378,4.07405,4.07405,0,0,1,.32732-4.26038,3.25492,3.25492,0,0,1,2.58623-1.578c1.90848-.0613,3.82007-.01709,5.80518-.01709V58.644c-1.71463,0-3.43033-.02892-5.14472.00817a2.4345,2.4345,0,0,0-2.29356,3.22724,2.48907,2.48907,0,0,0,2.32384,1.67628c.53189.0314,1.069-.00822,1.598.04587a1.79982,1.79982,0,0,1,1.51847,1.82176,1.751,1.751,0,0,1-1.47725,1.85C111.81184,67.32517,109.9671,67.28939,108.0324,67.28939Z" fill="#d6d6d6"/><path d="M127.12147,57.11162v1.53151c-1.6981,0-3.37962-.00136-5.06113.00037-1.76806.00181-2.38432.62668-2.39583,2.45687-.00926,1.47292-.00391,2.946.00711,4.419.01271,1.70039.66559,2.38526,2.2691,2.38956,1.68586.00453,3.37174.001,5.12117.001v1.57254c-1.258,0-2.49694.00257-3.73584-.00094-.78331-.00221-1.56915.02586-2.34934-.02926a3.138,3.138,0,0,1-2.78226-2.9493c-.05344-2.15867-.04967-4.32074-.00069-6.47964a3.00669,3.00669,0,0,1,2.52113-2.88C122.82977,57.02489,124.95519,57.11162,127.12147,57.11162Z" fill="#d6d6d6"/><path d="M138.70341,69.403c1.09207-3.37333,2.15349-6.67371,3.24091-9.96472a.99951.99951,0,0,1,.53591-.55991c.11945-.04334.4548.21451.51745.40086.88688,2.63815,1.74367,5.28733,2.632,8.00806h-3.68717l-.11395-1.08749-.15836-.05746c-.21012.61067-.4256,1.2194-.62931,1.83239C140.50044,69.601,140.50246,69.6017,138.70341,69.403Zm3.15175-3.89687h1.29352l-.54278-1.6824-.2229.0141Z" fill="#d6d6d6"/><path d="M133.22235,65.34773l-1.08757-.31816V63.63769H134.526v3.64609c-1.22258,0-2.43843.06936-3.6377-.04729a1.33472,1.33472,0,0,1-.81686-.988c-.08193-1.962-.05794-3.92967-.03471-5.895a1.01081,1.01081,0,0,1,1.07658-1.09941c1.81642-.0175,3.6331-.006,5.5306-.006v1.55838c-1.36623,0-2.70716.03849-4.04479-.01424-.82047-.03235-1.13732.26741-1.0852,1.13257.055.91377.00355,1.83407.01481,2.7513C131.54219,65.77058,132.04766,66.03392,133.22235,65.34773Z" fill="#d6d6d6"/><path d="M121.88106,65.61188c1.68756.31483,3.436-.01479,5.18562.18286v1.4865c-2.00126,0-3.96363.04846-5.91929-.0495-.31215-.01563-.77946-.653-.85045-1.06408a15.35218,15.35218,0,0,1-.03964-2.51916h5.56814v1.46966h-3.89281Z" fill="#d6d6d6"/><path d="M127.1219,59.26292v1.47665c-1.73646.24691-3.517-.15795-5.223.21938l.01736.40607h3.912v1.54271h-5.55377a21.43789,21.43789,0,0,1,.04153-2.76615,1.248,1.248,0,0,1,.86508-.83961C123.14413,59.22486,125.11129,59.26292,127.1219,59.26292Z" fill="#d6d6d6"/></g><circle cx="31.97784" cy="46.14084" r="1.26061" fill="#fff"/><circle cx="82.80659" cy="45.9238" r="1.26061" fill="#fff"/><circle cx="83.2232" cy="97.99879" r="1.26061" fill="#fff"/><circle cx="31.9738" cy="97.99879" r="1.26061" fill="#fff"/><path d="M78.68792,66.31482V75.7845H62.58237V92.02117H52.99163c-.08066-5.32987-.15631-10.50843-.242-16.13581H36.73986V66.35012c5.24415-.09581,10.35716-.19162,15.71223-.29247.16136-1.38163.38323-2.48592.39837-3.59022.05546-3.22717.00505-6.45432.04032-9.67644.01009-.84713.1866-1.68921.31266-2.76325H62.3605c.0706,5.27437.13615,10.44792.21177,16.06016C68.0887,66.16355,73.2673,66.23917,78.68792,66.31482Z" fill="#212121"/><path d="M62.57732,70.85806a4.64661,4.64661,0,1,1-4.6441-4.6441A4.64616,4.64616,0,0,1,62.57732,70.85806Z" fill="#151515"/><path d="M175.17454,30.55859a1.50041,1.50041,0,0,1-.48047.124.97.97,0,0,1-.40234-.05176.84265.84265,0,0,1-.32031-.20313,1.13814,1.13814,0,0,1-.22852-.33691l.43555-.18506a.61613.61613,0,0,0,.15625.19727.59087.59087,0,0,0,.19726.10058.61013.61013,0,0,0,.22168.01465.98818.98818,0,0,0,.4209-.17041.64145.64145,0,0,0,.12891-.12842.35436.35436,0,0,0,.05664-.1416.28673.28673,0,0,0-.02148-.147.25241.25241,0,0,0-.0879-.11231.30781.30781,0,0,0-.15039-.0459.96642.96642,0,0,0-.23144.00879c-.09277.0127-.2041.03125-.335.05909a2.48931,2.48931,0,0,1-.40039.04345.9735.9735,0,0,1-.30664-.03955.56641.56641,0,0,1-.22266-.13232.66391.66391,0,0,1-.15234-.23047.654.654,0,0,1-.05567-.30615.701.701,0,0,1,.08594-.29834.97247.97247,0,0,1,.2168-.2627,1.40519,1.40519,0,0,1,.73925-.30859.93974.93974,0,0,1,.36329.03613.81314.81314,0,0,1,.30273.17627.92567.92567,0,0,1,.22363.31592l-.43164.18262a.47163.47163,0,0,0-.6709-.20118.68394.68394,0,0,0-.30371.21631.24965.24965,0,0,0-.03027.25244.17855.17855,0,0,0,.06445.08008.25993.25993,0,0,0,.11133.03613.664.664,0,0,0,.168-.00048,2.35045,2.35045,0,0,0,.23242-.0376c.0791-.01563.16016-.0293.24219-.04395a2.45676,2.45676,0,0,1,.25-.03027,1.44205,1.44205,0,0,1,.24414.00586.81156.81156,0,0,1,.22559.06152.63353.63353,0,0,1,.19238.13379.71124.71124,0,0,1,.14648.229.75088.75088,0,0,1,.0625.33349.79673.79673,0,0,1-.08984.31787.98479.98479,0,0,1-.22266.27832A1.33833,1.33833,0,0,1,175.17454,30.55859Z" fill="#d6d6d6"/><path d="M177.45775,27.1914l-.74805.31836.8457,1.99317-.45117.1914-.8457-1.99316-.7461.31641-.17578-.415,1.94531-.82617Z" fill="#d6d6d6"/><path d="M180.71849,28.16015l-.501.2129-.55664-.57715-.8418.35791.041.79492-.47559.20166-.09668-2.80078.42774-.18164Zm-1.3584-.68652-.61621-.63965.04785.88086Z" fill="#d6d6d6"/><path d="M183.06517,27.16406l-.48438.20508-.50781-.55762a.60463.60463,0,0,0-.11914-.09668.492.492,0,0,0-.28711-.0708.43886.43886,0,0,0-.15137.03565l-.48242.20459.41113.96777-.44921.19092-1.02247-2.40821,1.07911-.458c.06445-.02735.126-.05274.18554-.07422a1.22488,1.22488,0,0,1,.17578-.05078.88669.88669,0,0,1,.17481-.01514.58121.58121,0,0,1,.17871.02978.64382.64382,0,0,1,.15137.06983.71.71,0,0,1,.12988.10058.879.879,0,0,1,.18555.27051.71158.71158,0,0,1,.05273.42237.7371.7371,0,0,1-.18945.36767.89366.89366,0,0,1,.4082.26416Zm-2.208-.69385.59766-.25341a1.14069,1.14069,0,0,0,.20019-.1045.39708.39708,0,0,0,.11817-.11474.249.249,0,0,0,.03808-.13379.44706.44706,0,0,0-.03906-.16113.29628.29628,0,0,0-.2002-.19385.554.554,0,0,0-.33886.05566l-.64453.27295Z" fill="#d6d6d6"/><path d="M184.405,24.24316l-.749.31739.84668,1.99316-.45117.19141-.84571-1.99317-.74609.31641-.17578-.415,1.94531-.8252Z" fill="#d6d6d6"/><path d="M185.87864,54.66992l-.749.31738.84766,1.99414-.45117.19141-.84766-1.99414-.74512.31641-.17578-.41407,1.94531-.82519Z" fill="#d6d6d6"/><path d="M189.16868,55.627l-.48438.20508-.5078-.55762a.6106.6106,0,0,0-.12012-.09668.48675.48675,0,0,0-.28613-.0708.44414.44414,0,0,0-.15235.03565l-.48242.20459.41211.96777-.44922.19092-1.02344-2.40821,1.08008-.458c.06445-.02735.125-.05274.18555-.07422a1.1905,1.1905,0,0,1,.17578-.05078.87688.87688,0,0,1,.17383-.01514.587.587,0,0,1,.17969.02979.61938.61938,0,0,1,.15039.06982.71692.71692,0,0,1,.13086.10059.85431.85431,0,0,1,.18457.2705.71237.71237,0,0,1,.05371.42237.73541.73541,0,0,1-.19043.36718.90156.90156,0,0,1,.40918.26465Zm-2.209-.69385.59766-.25341a1.15361,1.15361,0,0,0,.20117-.1045.39272.39272,0,0,0,.11718-.11474.24075.24075,0,0,0,.03809-.13379.42465.42465,0,0,0-.03809-.16113.29814.29814,0,0,0-.20019-.19385.55966.55966,0,0,0-.33984.05517l-.64356.27344Z" fill="#d6d6d6"/><path d="M190.06517,55.24658l-.44727.18994-1.02344-2.4082.44727-.18994Z" fill="#d6d6d6"/><path d="M191.68821,54.60156a1.35409,1.35409,0,0,1-.51464.11426,1.15581,1.15581,0,0,1-.47559-.09668,1.236,1.236,0,0,1-.4043-.29053,1.72218,1.72218,0,0,1-.43554-1.02539,1.22482,1.22482,0,0,1,.07226-.49072,1.1146,1.1146,0,0,1,.26172-.40332,1.33054,1.33054,0,0,1,.43359-.28809,1.43889,1.43889,0,0,1,.42774-.10937,1.12841,1.12841,0,0,1,.4043.03613.99076.99076,0,0,1,.3457.17578.97424.97424,0,0,1,.25781.31445l-.46094.19629a.547.547,0,0,0-.13867-.1748.48586.48586,0,0,0-.18554-.09473.62844.62844,0,0,0-.22461-.01416.9265.9265,0,0,0-.252.07031.77734.77734,0,0,0-.26172.17725.63821.63821,0,0,0-.15332.25684.79576.79576,0,0,0-.03222.32422,1.24956,1.24956,0,0,0,.09961.38037,1.21468,1.21468,0,0,0,.20215.33154.846.846,0,0,0,.25683.2041.67538.67538,0,0,0,.293.07178.76.76,0,0,0,.3125-.06348,1.1072,1.1072,0,0,0,.35742-.23.7082.7082,0,0,0,.18067-.31885l-.10645-.25293-.59668.25342-.17578-.41308,1.04-.4419.55273,1.29883-.3457.14648-.13086-.14843a.91238.91238,0,0,1-.23144.28369A1.41228,1.41228,0,0,1,191.68821,54.60156Z" fill="#d6d6d6"/><path d="M194.37962,53.46a1.37127,1.37127,0,0,1-.51562.11377,1.16508,1.16508,0,0,1-.47657-.09668,1.25659,1.25659,0,0,1-.40429-.29053,1.729,1.729,0,0,1-.43457-1.02539,1.2082,1.2082,0,0,1,.07324-.49072,1.10538,1.10538,0,0,1,.25976-.40332,1.33216,1.33216,0,0,1,.4336-.2876,1.40707,1.40707,0,0,1,.42969-.10937,1.12306,1.12306,0,0,1,.40332.03564.96848.96848,0,0,1,.60449.49072l-.46192.1958a.557.557,0,0,0-.13964-.17529.47673.47673,0,0,0-.1836-.09424.62063.62063,0,0,0-.22461-.01416.92643.92643,0,0,0-.25195.07031.77957.77957,0,0,0-.26367.17676.65769.65769,0,0,0-.15235.25781.79323.79323,0,0,0-.03222.32374,1.17377,1.17377,0,0,0,.10058.38037,1.21353,1.21353,0,0,0,.20117.33154.84825.84825,0,0,0,.25684.20459.67571.67571,0,0,0,.29395.07129.75554.75554,0,0,0,.31152-.06348,1.10136,1.10136,0,0,0,.35644-.22949.70261.70261,0,0,0,.18165-.31934l-.10743-.25293-.5957.25293-.17578-.41308,1.041-.44141.55079,1.29883-.34571.14648-.12988-.14843a.91227.91227,0,0,1-.23145.28369A1.43578,1.43578,0,0,1,194.37962,53.46Z" fill="#d6d6d6"/><path d="M197.82493,51.95215l-1.83984.78125-1.02344-2.40821,1.78906-.75879.17579.41407-1.33985.56836.23145.54394,1.25293-.53222.17383.41113-1.252.53222.26465.625,1.3916-.59082Z" fill="#d6d6d6"/><path d="M200.37571,50.86914l-.48339.20557-.50879-.55762a.57779.57779,0,0,0-.11914-.09668.507.507,0,0,0-.13868-.05811.4826.4826,0,0,0-.14843-.01269.44427.44427,0,0,0-.15137.03564l-.48145.20459.41016.96778-.44922.19043-1.02148-2.40821,1.07812-.458c.06446-.02734.127-.05224.18555-.07421a1.33,1.33,0,0,1,.17578-.0503.85519.85519,0,0,1,.17578-.01513.56078.56078,0,0,1,.17774.02978.64967.64967,0,0,1,.15234.06983.7153.7153,0,0,1,.12891.10058.8541.8541,0,0,1,.10644.12647.84469.84469,0,0,1,.0791.144.71069.71069,0,0,1,.05371.42187.7348.7348,0,0,1-.19043.36768.89015.89015,0,0,1,.40821.26465Zm-2.207-.69336.59766-.25391a1.165,1.165,0,0,0,.19922-.10449.38484.38484,0,0,0,.11816-.11426.24191.24191,0,0,0,.03809-.13379.42767.42767,0,0,0-.03906-.16113.29772.29772,0,0,0-.19922-.19433.56516.56516,0,0,0-.33985.05566l-.64453.27344Z" fill="#d6d6d6"/><path d="M97.31679,12.81418c-.2425.03814-.36374.0574-.60614.09634-.13666-.85049-.205-1.27579-.34156-2.12634-.15487.8974-.23065,1.3461-.37887,2.24347-.20966.03451-.31449.05191-.52408.087-.42835-.80169-.644-1.202-1.07852-2.00161.14538.84909.21808,1.27365.36352,2.12268-.24133.04132-.36194.06216-.60315.10427-.23141-1.32528-.34692-1.988-.57828-3.31341.3295-.05753.49427-.08591.82392-.142.47552.89185.7113,1.33841,1.17926,2.23276.15555-.9978.23535-1.49674.3988-2.4946.32883-.05319.49326-.07941.82224-.13116C97.0031,10.82065,97.10756,11.48517,97.31679,12.81418Z" fill="#d6d6d6"/><path d="M100.69529,12.31326c-1.02487.14264-1.53692.21744-2.56027.374-.20349-1.32989-.30508-1.99484-.50854-3.32486,1.01159-.15472,1.51776-.22876,2.53079-.37014l.07993.57254c-.75644.10559-1.13447.16024-1.89011.27328l.11246.75183c.70471-.10541,1.05731-.15649,1.76275-.2554l.07965.56812c-.70337.09863-1.0549.14956-1.75753.25467l.12921.86386c.77633-.11615,1.16473-.17221,1.94195-.2804Z" fill="#d6d6d6"/><path d="M102.85753,12.07843a1.76335,1.76335,0,0,1-.68161-.03778,1.49989,1.49989,0,0,1-.56131-.28116,1.60456,1.60456,0,0,1-.40549-.49759,2.1786,2.1786,0,0,1-.19254-1.41852,1.555,1.555,0,0,1,.26291-.58529,1.48329,1.48329,0,0,1,.47315-.41245,1.77978,1.77978,0,0,1,.65152-.20746,1.84194,1.84194,0,0,1,.58212.01364,1.48321,1.48321,0,0,1,.49692.18558,1.26745,1.26745,0,0,1,.3717.33948,1.24218,1.24218,0,0,1,.20893.47943c-.26044.03122-.39063.047-.651.0791a.695.695,0,0,0-.11175-.26416.61922.61922,0,0,0-.19815-.182.81252.81252,0,0,0-.278-.0946,1.21913,1.21913,0,0,0-.34283-.00128,1.03653,1.03653,0,0,0-.39548.12918.87089.87089,0,0,0-.2847.26617,1.05727,1.05727,0,0,0-.155.39182,1.72216,1.72216,0,0,0,.1307.98593,1.09171,1.09171,0,0,0,.25015.34024.89278.89278,0,0,0,.34211.19019,1.00124,1.00124,0,0,0,.41195.02816,1.43493,1.43493,0,0,0,.52613-.15893.93192.93192,0,0,0,.34149-.33158l-.04291-.34939c-.33481.04111-.5022.062-.83688.10464l-.073-.57394c.58554-.07453.87848-.11066,1.46442-.18073.08618.7208.12924,1.08118.21542,1.80194-.19269.023-.28906.0347-.48172.05823l-.10935-.2301a1.19709,1.19709,0,0,1-.38855.27039A1.91069,1.91069,0,0,1,102.85753,12.07843Z" fill="#d6d6d6"/><path d="M107.96654,11.44205c-.28016.02816-.4202.04248-.70026.07168-.18717-.36731-.28107-.55084-.46967-.91772-.473.05023-.70941.07605-1.18216.12921-.09747.3981-.14587.5972-.24191.99539-.26578.03036-.39865.04578-.66437.07709.3588-1.39694.54288-2.0951.92-3.49063.2435-.027.36529-.04035.60885-.06659C106.93834,9.51816,107.28419,10.15848,107.96654,11.44205Zm-1.42209-1.35581c-.20993-.40628-.31537-.60928-.5271-1.015-.10993.44088-.16446.66137-.27268,1.10241C106.06453,10.138,106.2245,10.12054,106.54445,10.08624Z" fill="#d6d6d6"/><path d="M112.37288,9.34567a1.52349,1.52349,0,0,1-1.59064,1.83423c-.44354.038-.66528.05765-1.10864.09821-.12259-1.33979-.18387-2.00965-.30652-3.34949.45111-.04129.67673-.06128,1.128-.09995C111.66218,7.72867,112.2881,8.23962,112.37288,9.34567Zm-.64743.05069a1.87858,1.87858,0,0,0-.08686-.451.78037.78037,0,0,0-.20367-.326.80038.80038,0,0,0-.3555-.1849,1.61555,1.61555,0,0,0-.53891-.02954c-.19363.0166-.29047.025-.48407.04211.07761.87952.11639,1.31931.194,2.19879.19141-.01687.28714-.02521.47858-.04159a1.57063,1.57063,0,0,0,.5184-.12067.79808.79808,0,0,0,.3168-.24741.84155.84155,0,0,0,.14774-.36511A1.96575,1.96575,0,0,0,111.72545,9.39636Z" fill="#d6d6d6"/><path d="M116.07158,10.80011c-.27106.01571-.40656.0238-.67762.04046-.15127-.35739-.22723-.536-.37976-.89306a.70638.70638,0,0,0-.10559-.16895.63532.63532,0,0,0-.32-.20782.5878.5878,0,0,0-.20129-.02005c-.27209.018-.40811.02731-.68014.04629.03765.53928.05648.8089.09411,1.34818-.25134.01755-.377.02652-.62829.04489-.09806-1.34183-.14713-2.0127-.2453-3.35452.61453-.04492.92187-.0662,1.53665-.1063.09164-.006.17944-.00967.26233-.01153a1.59464,1.59464,0,0,1,.23986.0137,1.09236,1.09236,0,0,1,.22339.05512.79855.79855,0,0,1,.20768.11254.91126.91126,0,0,1,.15676.14954.97114.97114,0,0,1,.11536.17853,1.03227,1.03227,0,0,1,.10861.40637.90962.90962,0,0,1-.11929.53626.963.963,0,0,1-.3934.3623,1.14281,1.14281,0,0,1,.38424.49612C115.81932,10.21676,115.90364,10.41116,116.07158,10.80011Zm-2.40473-1.78028c.33808-.02362.50714-.03506.84531-.05719a1.64234,1.64234,0,0,0,.29123-.04183.52.52,0,0,0,.19494-.08915.30679.30679,0,0,0,.10511-.14651.55182.55182,0,0,0,.02258-.21222.38015.38015,0,0,0-.16238-.31958.73341.73341,0,0,0-.4437-.0773c-.36594.02383-.54886.03616-.9147.06174Z" fill="#d6d6d6"/><path d="M117.32716,10.73147c-.25076.01288-.37613.01954-.62686.03324-.07333-1.34342-.11008-2.01508-.18356-3.35846.25512-.014.38269-.02072.63781-.03385C117.22365,8.71606,117.25819,9.38782,117.32716,10.73147Z" fill="#d6d6d6"/><path d="M120.80354,7.21905c-.491,1.36219-.73181,2.044-1.20441,3.40915-.23242.00919-.34866.014-.58105.02384-.58151-1.32187-.87692-1.98169-1.47681-3.29911.27472-.01358.41208-.02014.6868-.03274.42249.9859.63132,1.4794,1.04413,2.46753.33325-1.01874.50226-1.52774.84524-2.545C120.39186,7.23273,120.5291,7.228,120.80354,7.21905Z" fill="#d6d6d6"/><path d="M123.911,10.50622c-1.03216.01761-1.54818.02988-2.58011.06134-.04092-1.34478-.06146-2.01715-.1025-3.36193,1.02-.03113,1.53015-.04337,2.55044-.06116l.0101.578c-.76187.01328-1.14276.02179-1.90451.04254l.02069.75992c.71042-.01935,1.06571-.0274,1.77625-.04022l.01034.57358c-.70843.01278-1.06265.02081-1.771.0401l.02374.87314c.78259-.02131,1.174-.03,1.9567-.04331Z" fill="#d6d6d6"/><path d="M128.11705,8.27554a.69972.69972,0,0,0-.07123-.2713.66237.66237,0,0,0-.16315-.2067.71318.71318,0,0,0-.2373-.13153.92094.92094,0,0,0-.29245-.04586.98963.98963,0,0,0-.39795.07623.79781.79781,0,0,0-.29974.22665,1.02944,1.02944,0,0,0-.19037.36972,1.7452,1.7452,0,0,0-.0644.50315,1.7205,1.7205,0,0,0,.06913.50262,1.07354,1.07354,0,0,0,.19043.3685.80385.80385,0,0,0,.29467.22745.92607.92607,0,0,0,.38746.07852.93839.93839,0,0,0,.298-.045.67031.67031,0,0,0,.2355-.13455.65472.65472,0,0,0,.16138-.21857.91185.91185,0,0,0,.07828-.29993c.25848.00122.38775.00208.64624.00418a1.50175,1.50175,0,0,1-.146.534,1.2426,1.2426,0,0,1-.3034.39252,1.29967,1.29967,0,0,1-.432.24255,1.63858,1.63858,0,0,1-.53162.08331,1.69558,1.69558,0,0,1-.658-.12246,1.40544,1.40544,0,0,1-.50006-.34717,1.56966,1.56966,0,0,1-.32211-.54538,2.19057,2.19057,0,0,1-.11667-.71692,2.13369,2.13369,0,0,1,.10883-.71851,1.56308,1.56308,0,0,1,.31976-.55072,1.41829,1.41829,0,0,1,.50684-.352,1.7026,1.7026,0,0,1,.6643-.12359,1.53971,1.53971,0,0,1,.52463.089,1.39826,1.39826,0,0,1,.43652.24908,1.306,1.306,0,0,1,.311.38629,1.27858,1.27858,0,0,1,.14609.50061C128.50862,8.27765,128.37806,8.27679,128.11705,8.27554Z" fill="#d6d6d6"/><path d="M130.96672,7.098a1.72835,1.72835,0,0,1,.66073.13794,1.51,1.51,0,0,1,.51358.364,1.59378,1.59378,0,0,1,.32758.55564,1.96922,1.96922,0,0,1,.10239.71347,1.9961,1.9961,0,0,1-.13877.701,1.61761,1.61761,0,0,1-.35089.53927,1.52022,1.52022,0,0,1-.523.34442,1.77417,1.77417,0,0,1-1.31228-.02438,1.51988,1.51988,0,0,1-.51023-.36194,1.61624,1.61624,0,0,1-.32876-.5524,2.01031,2.01031,0,0,1-.11255-.70926,1.97938,1.97938,0,0,1,.1308-.71093,1.60474,1.60474,0,0,1,.34967-.543,1.51287,1.51287,0,0,1,.52816-.34241A1.73009,1.73009,0,0,1,130.96672,7.098Zm-.05808,2.91083a.98162.98162,0,0,0,.39981-.07245.88354.88354,0,0,0,.31708-.22592,1.07754,1.07754,0,0,0,.21268-.36518,1.56727,1.56727,0,0,0,.08508-.49316,1.53825,1.53825,0,0,0-.06222-.49918,1.05882,1.05882,0,0,0-.19782-.3724.88212.88212,0,0,0-.308-.23538.98065.98065,0,0,0-.39234-.08661.99171.99171,0,0,0-.40234.07269.89976.89976,0,0,0-.32187.22519,1.05508,1.05508,0,0,0-.214.36542,1.52341,1.52341,0,0,0-.08136.492,1.54029,1.54029,0,0,0,.067.4961,1.09639,1.09639,0,0,0,.1994.37313.88585.88585,0,0,0,.30612.238A.9568.9568,0,0,0,130.90864,10.00882Z" fill="#d6d6d6"/><path d="M135.89546,10.67557c-.23749-.01078-.35623-.016-.59375-.026-.564-.92417-.84958-1.38526-1.42792-2.30521-.03088.899-.04632,1.34851-.07733,2.2475-.243-.00833-.36459-.01233-.60767-.01993.04209-1.34479.063-2.01712.10492-3.36188.24292.0076.36441.01157.60733.01993.579.92169.86506,1.38364,1.42984,2.30954.03794-.90048.05689-1.35074.09479-2.25122.24884.0105.37329.01593.6221.02722C135.98692,8.65954,135.95653,9.33151,135.89546,10.67557Z" fill="#d6d6d6"/><path d="M139.32847,8.07113c-.4255-.02655-.6383-.03924-1.06393-.06344-.06323,1.11233-.09485,1.66852-.15826,2.78088-.25226-.01434-.37842-.0213-.63071-.03482.05972-1.11261.08954-1.66888.14911-2.78143-.42414-.02274-.63617-.03354-1.06037-.054l.02774-.57739c1.10929.05341,1.66379.084,2.7724.15323Z" fill="#d6d6d6"/><path d="M142.5753,11.09518c-.27078-.02176-.40613-.03238-.67694-.05319-.10071-.37479-.1514-.56213-.25333-.93683a.70774.70774,0,0,0-.08136-.18185.6357.6357,0,0,0-.28845-.24991.58868.58868,0,0,0-.19662-.04752c-.272-.01959-.408-.02914-.68006-.04776l-.09231,1.3483c-.25138-.01718-.377-.02557-.62845-.042.08755-1.34256.13125-2.0138.21863-3.35635.61474.04.92211.06127,1.53665.10614.09161.00671.17907.0151.26144.02465a1.59857,1.59857,0,0,1,.23578.0466,1.09568,1.09568,0,0,1,.21371.0853.79981.79981,0,0,1,.19028.14008.91262.91262,0,0,1,.13474.16967.97188.97188,0,0,1,.08972.19269,1.03131,1.03131,0,0,1,.0517.41748.90926.90926,0,0,1-.192.51474.96332.96332,0,0,1-.43967.30472,1.14264,1.14264,0,0,1,.31244.54428C142.40562,10.48266,142.46242,10.68683,142.5753,11.09518ZM140.438,9.00091c.33811.02314.50714.0351.84519.0597a1.6404,1.6404,0,0,0,.29425-.00138.52.52,0,0,0,.20541-.06149.30676.30676,0,0,0,.12427-.13062.55189.55189,0,0,0,.0516-.20712.3802.3802,0,0,0-.11691-.33887.73367.73367,0,0,0-.42892-.1376c-.36579-.02676-.54868-.0397-.91456-.06473Z" fill="#d6d6d6"/><path d="M144.96669,7.87115a1.73126,1.73126,0,0,1,.64981.185,1.511,1.511,0,0,1,.48672.3999,1.59259,1.59259,0,0,1,.28727.5777,1.96665,1.96665,0,0,1,.05108.719,1.99322,1.99322,0,0,1-.18878.68924,1.61733,1.61733,0,0,1-.389.51267,1.52162,1.52162,0,0,1-.54684.306,1.7777,1.7777,0,0,1-1.30841-.11844,1.52105,1.52105,0,0,1-.48343-.39758,1.616,1.616,0,0,1-.28864-.57456,2.00948,2.00948,0,0,1-.06152-.71548,1.97906,1.97906,0,0,1,.18152-.69974,1.605,1.605,0,0,1,.388-.51654,1.51334,1.51334,0,0,1,.55182-.30365A1.73362,1.73362,0,0,1,144.96669,7.87115Zm-.2666,2.89914a.9838.9838,0,0,0,.40435-.04358.8849.8849,0,0,0,.3328-.2026,1.07763,1.07763,0,0,0,.23852-.349,1.5661,1.5661,0,0,0,.1203-.48578,1.53641,1.53641,0,0,0-.02636-.50235,1.05814,1.05814,0,0,0-.17081-.38565.88339.88339,0,0,0-.29068-.25687.98319.98319,0,0,0-.3855-.11453.99418.99418,0,0,0-.40692.04367.90013.90013,0,0,0-.33746.20151,1.05432,1.05432,0,0,0-.23981.34915,1.52189,1.52189,0,0,0-.11649.48489,1.53915,1.53915,0,0,0,.03128.49961,1.09594,1.09594,0,0,0,.17234.3865.88581.88581,0,0,0,.28857.25928A.95787.95787,0,0,0,144.70009,10.77029Z" fill="#d6d6d6"/><path d="M149.09675,11.73105c-.86721-.09952-1.301-.14679-2.16906-.23642.1383-1.33826.20745-2.00739.34555-3.34571.25558.0264.38336.03983.63888.06705-.118,1.10791-.17709,1.66187-.29522,2.76972.61849.06591.92767.10012,1.54577.171Z" fill="#d6d6d6"/><path d="M151.38258,8.61722c.52411.06533.78607.0989,1.30988.16778a3.05643,3.05643,0,0,1,.34042.0643,1.73436,1.73436,0,0,1,.30841.10691,1.27437,1.27437,0,0,1,.25784.15817.783.783,0,0,1,.188.217.85074.85074,0,0,1,.10352.28586,1.15276,1.15276,0,0,1,.001.36291.982.982,0,0,1-.43637.75263,1.53412,1.53412,0,0,1-1.00808.13656c-.27768-.03656-.4166-.05459-.69437-.09018-.0643.50193-.09644.7529-.16071,1.25476-.25027-.032-.37539-.04782-.62576-.079C151.13289,10.61984,151.2162,9.95233,151.38258,8.61722Zm.44342,1.59048c.28336.03626.425.05466.70825.092a1.20338,1.20338,0,0,0,.30027.00729.53921.53921,0,0,0,.21319-.06652.365.365,0,0,0,.1326-.13636.572.572,0,0,0,.06363-.20373.44436.44436,0,0,0-.02209-.238.37962.37962,0,0,0-.12571-.15631.61557.61557,0,0,0-.20263-.09405,1.82336,1.82336,0,0,0-.24973-.0503c-.27911-.03677-.41867-.05487-.69787-.09063Z" fill="#d6d6d6"/><path d="M157.0395,12.81067c-.27865-.04383-.418-.06546-.69674-.10825-.08823-.40274-.13269-.60412-.22239-1.00683-.47091-.07132-.70648-.10627-1.17773-.17472-.19531.36042-.29263.54074-.48657.90158-.26505-.038-.39759-.05676-.66275-.09381.70138-1.2604,1.05664-1.8891,1.77551-3.14352.24268.03561.364.05359.6066.09C156.531,10.68884,156.70363,11.396,157.0395,12.81067Zm-1.03415-1.67212c-.10037-.44623-.151-.66934-.25326-1.11551-.21823.39865-.327.59811-.54355.99731C155.52733,11.067,155.68672,11.09061,156.00535,11.13855Z" fill="#d6d6d6"/><path d="M160.52287,11.66574a1.52573,1.52573,0,0,1-1.9986,1.38434c-.44024-.07276-.66049-.10849-1.10107-.17868.21167-1.32859.31766-1.99289.52917-3.32163.44828.07141.67237.10779,1.12034.18183A1.50555,1.50555,0,0,1,160.52287,11.66574Zm-.64175-.11087a1.876,1.876,0,0,0,.027-.45853.77933.77933,0,0,0-.11746-.36621.80289.80289,0,0,0-.29977-.26706,1.62353,1.62353,0,0,0-.5163-.16177c-.1922-.03177-.28833-.04752-.48059-.0788-.14175.87152-.21268,1.30728-.35449,2.17871.19009.03092.28515.04651.47516.07791a1.57831,1.57831,0,0,0,.53347.0112.80071.80071,0,0,0,.36893-.16149.84092.84092,0,0,0,.23371-.31727A1.96151,1.96151,0,0,0,159.88112,11.55487Z" fill="#d6d6d6"/></svg>