<svg xmlns="http://www.w3.org/2000/svg" viewBox="0 0 117.59569 199.99999">
  <path fill="#1b1d1f" d="M33.690941 101.55092c.07755-.853.07755-2.248834 0-3.101844 0 0-.310184-6.04858-1.008098-9.92588-1.008097-6.04859-2.791655-12.01963-5.428218-17.60294-3.412023-7.13423-9.383063-11.70944-16.594839-14.65619-3.0242935-1.24073-5.8159487-2.71411-7.6770522-5.58331-3.6446609-5.81595-3.87729885-11.709441-.9305517-17.835573 2.5590173-5.273126 6.2812242-9.460609 10.4687069-13.337908 10.236069-9.460609 22.17815-15.8193788 35.826242-18.4559428C58.97093-.96486276 69.362091-.26694876 79.132884 4.7735392c6.668954 3.412023 11.476805 8.6851498 15.509195 14.8112818 6.979141 10.623799 11.786991 22.17815 15.586741 34.197775 3.17939 9.92589 5.42822 20.00686 6.51387 30.39802.54282 4.73031.54282 9.53816.853 14.34601v2.946754c-.31018 4.80785-.31018 9.6157-.853 14.346-1.16319 10.31362-3.41203 20.47214-6.51387 30.39803-3.79975 12.01962-8.68515 23.57397-15.586741 34.19777-4.03239 6.12613-8.917787 11.39926-15.509195 14.81128-9.770793 5.04049-20.161954 5.73841-30.785753 3.72221-13.725638-2.63656-25.590173-8.99533-35.826242-18.3784-4.1874827-3.87729-7.9872356-8.14232-10.4687069-13.3379-2.94674715-6.12614-2.7916552-12.09718.9305517-17.83558 1.8611035-2.8692 4.6527587-4.34257 7.6770522-5.58331 7.211776-2.94675 13.10527-7.52196 16.594839-14.65619 2.636563-5.58331 4.420121-11.55435 5.428218-17.60294.620368-3.95484 1.008098-10.00343 1.008098-10.00343zm73.048309-26.753364zm.31019 6.82405s.0775 0 0 0zm-.31019 11.63189c0-.0775 0-.0775 0 0z"/>
  <path fill="#151515" d="M87.12012 177.31334c.620367-3.79975.232638-7.44441-.232638-11.16662-2.32638-16.74993-10.313615-30.63066-21.867966-42.65028-4.652759-4.80786-10.236069-6.97914-17.137661-5.97105-9.072879 1.39583-15.509196 9.92589-13.725638 18.92122.465276 2.48147 1.628465 4.8854 2.791655 7.21178 1.706012 3.56711 3.877299 6.90159 5.505765 10.54625 3.722206 8.53006 7.289321 17.13766 10.77889 25.82281 3.10184 7.67705 8.374966 11.39926 16.672386 11.55435 8.840241.1551 15.819379-5.66085 17.215207-14.26846zm-32.569311 4.18749c-.232638-.38773-.38773-.77546-.542822-1.24074-1.938649-4.96294-3.722207-10.00343-5.893494-14.88883-3.101839-6.97914-6.591408-13.80318-10.003431-20.70477-1.783558-3.48957-3.644661-6.9016-3.644661-11.01153.07755-8.29742 6.203678-14.81128 14.423552-15.66429 7.211776-.77546 12.562448 2.24883 17.060115 7.28932 7.056684 7.90969 13.10527 16.43975 16.672385 26.52073 1.783557 5.04049 4.187483 14.57864 4.032391 21.0925.232638 4.57522-1.240736 8.60761-4.420121 12.64-2.636563 3.33447-7.677052 4.7303-11.476805 5.11803-.310184 0-.542821.0776-.853005.0776-4.265029.0775-10.468707-.46528-15.354104-9.22797z"/>
  <path fill="#181a1c" d="M69.904913 190.80634c-4.265029 0-10.468707-.62036-15.354104-9.38306-.232638-.38773-.38773-.77546-.542822-1.24074-1.938649-4.96294-3.722207-10.00343-5.893494-14.88882-3.101839-6.97914-6.591408-13.80319-10.003431-20.70478-1.783558-3.48957-3.644661-6.90159-3.644661-11.01153.07755-8.29742 6.203678-14.81128 14.423552-15.66429 7.211776-.77546 12.562448 2.24884 17.060115 7.28933 7.056684 7.90969 13.10527 16.43974 16.672385 26.52072 1.783557 5.04049 4.187483 14.57864 4.032391 21.09251.232638 4.57521-1.240736 8.6076-4.420121 12.63999-2.636563 3.33448-7.677052 4.73031-11.476805 5.11804-.310184.23263-.620367.23263-.853005.23263z"/>
  <path fill="#191919" d="M88.515947 150.79262c-2.093741-4.42012-4.032391-8.91779-5.97104-13.41545-.232638-.62037-.310184-1.31829-.310184-1.55092 0-2.94675 1.706012-4.96295 4.265029-5.50577 2.481471-.54282 4.497667.38773 5.58331 2.8692 1.861104 4.18749 3.799753 8.37497 5.583311 12.56245 1.628465 3.79975-.07755 7.21178-3.722207 7.7546-2.32638.31018-4.420121-.62037-5.428219-2.71411z"/>
  <path fill="#b7b7b7" d="M94.331896 150.2498c-1.16319.62037-2.636564.38773-3.412023-1.47338l-5.583311-11.86453c-.155092-.38773-.310184-.77546-.38773-1.16319-.155092-1.16319.542822-2.40393 1.55092-2.71411 1.163189-.38773 2.016195.0776 2.714109 1.0081.232638.31018 3.954845 8.68515 5.58331 12.4849 1.085644 2.09374.310184 3.25693-.465275 3.72221z"/>
  <path fill="#a7a6a6" d="M94.642079 135.82625c-.07755-.1551-.07755-.23264-.07755-.38773 0-.0776 0-.23264.07755-.31019 0-.0775.07755-.15509.155092-.23264.07755-.0775.155092-.15509.232638-.15509l.155092.31019c-.07755 0-.07755.0775-.155092.15509 0 .0775-.07755.0775-.07755.15509v.15509c0 .0776 0 .15509.07755.15509 0 .0776.07755.0776.07755.1551 0 .0775.07755.0775.07755.0775s.07755 0 .07755.0776h.07755l.07755-.0776v-.31018c0-.0776 0-.15509-.07755-.23264v-.54282c0-.0776.07755-.15509.07755-.15509l.155092-.1551c.07755 0 .155092-.0775.232638-.0775.07755 0 .155092 0 .232638.0775.07755.0776.155092.0776.232638.1551.07755.0775.07755.15509.155092.23263.07755.0776.07755.23264.07755.31019v.31018c0 .0776-.07755.15509-.155092.23264-.07755.0776-.155092.15509-.232638.15509l-.155092-.31018c.232638-.0776.232638-.31019.155092-.54282-.07755-.0776-.07755-.1551-.155092-.23264-.07755-.0776-.155092-.0776-.232638 0 0 0-.07755 0-.07755.0775v.93056c0 .0775 0 .15509-.07755.15509 0 .0775-.07755.0775-.07755.15509-.07755.0776-.07755.0776-.155092.0776-.07755 0-.155092.0775-.232638.0775-.07755 0-.155092 0-.232638-.0775-.07755-.0776-.155092-.0776-.232638-.1551.07755 0 .07755-.0775 0-.23263zm2.636564 1.78355l-.232638-.54282-1.55092.62037-.155092-.38773 1.55092-.62037-.232638-.54282.310184-.15509.620368 1.47337-.310184.15509zm-.77546 2.55902l-.155092-.38773.465276-.46528-.310184-.62036h-.620368l-.155092-.38773 2.171288-.0776.155091.31018-1.550919 1.62847zm.542822-1.08564l.465276-.46528h-.697914l.232638.46528zm.232638 2.8692l-.155092-.38773.465276-.38773.07755-.0776s0-.0775.07755-.0775v-.23264l-.155092-.38773-.77546.31018-.155092-.31018 1.861103-.77546.38773.853c0 .0776.07755.0776.07755.1551 0 .0775 0 .0775.07755.15509v.31018c0 .0776 0 .0776-.07755.15509l-.07755.0776-.07755.0776-.07755.0775c-.07755.0776-.232638.0776-.310184.0776-.07755 0-.232638-.0776-.310184-.15509 0 .0775-.07755.23263-.232637.31018l-.620368.23264zm.542822-1.70601l.232637.46527c0 .0776.07755.0776.07755.15509 0 .0776.07755.0776.07755.0776h.232638c.07755 0 .155092-.0776.155092-.15509 0-.0776 0-.15509-.07755-.23264l-.232638-.46528-.465275.1551zm1.706011 2.79165l-.232638-.54282-1.550919.62037-.155092-.38773 1.550919-.62037-.232638-.54282.310184-.15509.620368 1.47337-.310184.15509z"/>
  <path fill="#191919" d="M63.313505 75.495466c-17.060116 0-30.8633-13.80318-30.8633-30.78575 0-16.982567 13.803184-30.785751 30.8633-30.785751 17.060115 0 30.863299 13.803184 30.863299 30.785751 0 16.98257-13.88073 30.78575-30.863299 30.78575zm24.969804-30.78575c0-13.803182-11.244166-24.969803-25.04735-24.969803-13.803184 0-24.969805 11.166621-24.969805 24.969803 0 13.80319 11.244167 24.96981 25.047351 24.96981s24.969804-11.16662 24.969804-24.96981z"/>
  <g fill="#a4a4a4" transform="matrix(0.77545978,0,0,0.77545978,0.03598668,0.12078124)">
    <path d="M120.7 57.5l-6.2-2.9v5.7"/>
    <circle cx="106" cy="31.299999" r="1.3"/>
    <circle cx="106" cy="83.599998" r="1.3"/>
    <circle cx="57.099998" cy="83.599998" r="1.3"/>
    <circle cx="57.099998" cy="31.299999" r="1.3"/>
    <path d="M81.5 18.3l-2.8 6.2h5.7m-42.1 33l6.2 2.8v-5.7m33.2 42.1l2.9-6.2h-5.7"/>
  </g>
  <path fill="#a9a8a9" d="M81.846993 73.867006l-2.093741 3.25693v45.752134l2.093741 3.25693h4.497667l1.938649-3.10184v-15.04392l4.265029-2.71411V94.416686l-4.265029-2.63656v-14.88883l-1.938649-3.02429"/>
  <g fill="#1b1d1f">
    <path d="M89.29140736 97.82871352c-.23263794 0-.3877299.15509196-.3877299.3877299V99.689817h.46527588v-1.3958276h.15509195v1.08564367h.4652758V97.8287135h-.6979138zm1.7060115.07754598c.23263795 0 .3877299.15509195.3877299.3877299v1.47337357h-.46527586v-1.3958276h-.15509196v1.0856437h-.46527587V97.9062595h.6979138zm-6.35877018 9.8483392v4.65275868h-2.0937414l-1.24073566-1.7060115v-5.11803456l1.24073565 1.70601152v3.02429314h.77545978v-4.73030466h2.01619543l1.31828163 1.7835575v5.11803454l-1.2407356-1.7060115v-3.02429316m1.2407357 5.2731265v2.0937414h-5.3506725v-2.0937414m3.3344771 5.04048858v4.65275868h-2.0937414l-1.2407356-1.70601152v-5.11803455l1.24073565 1.7060115v3.0242931h.77545977v-4.6527587h2.01619546l1.31828164 1.7060115v5.1180345l-1.24073566-1.7060115v-3.0242932"/>
    <path d="M82.54490727 101.0856446h.77545978v2.01619542l1.31828163 1.70601152v-3.72220694h.77545978v3.02429314l1.24073565 1.7060115v-5.04048856l-1.2407356-1.7835575h-4.1099368v5.04048858l1.2407357 1.7835575m0-19.3864945h.7754598v1.93864944l1.31828168 1.70601152v-3.64466097h.77545978v3.02429315l1.24073567 1.62846553v-4.9629426l-1.24073563-1.86110346h-4.1099369v5.11803455l1.24073564 1.7060115m.5428218 5.19558054l1.7835575-2.55901727h-3.567115v-2.0937415h5.3506725v2.0937414l-1.55091953 2.5590173h1.55091957v2.0937414h-5.3506725v-2.0937414m4.10993684-17.2152071h-2.8692012v2.5590173h.7754598v-2.0937414l1.3182816 1.7060115v2.4814713h-2.1712874l-1.16318963-1.5509196v-5.1955805h4.03239084l1.31828163 1.7060115v5.7384024l-1.2407356-1.7060115m6.59140812 15.4316496c0-.4652759-.4652759-.9305518-1.00809775-.9305518h-1.7835575c-.54282186 0-1.0080977.3877299-1.0080977.9305517v1.5509196h.46527584v-1.4733736c0-.23263795.31018393-.4652759.54282186-.4652759h1.6284655c.3101839 0 .54282184.23263795.54282184.4652759v1.4733736h.46527587l.155092-1.5509195zm-2.5590173 2.9467471h1.4733736v1.47337353h.46527584v-1.55091956c0-.23263794-.15509198-.3877299-.3877299-.3877299h-1.6284656c-.23263795 0-.3877299.15509196-.3877299.3877299v.93055173h1.16318967v-.6979138h-.46527587v.23263796h-.15509196l-.077546-.3877299zm2.5590173-4.2650288v-1.4733736c0-.6203678-.54282188-1.0856437-1.24073568-1.0856437s-1.2407356.4652759-1.2407356 1.0856437v.46527584h-.15509197v-1.5509196h-.4652759v1.4733736c0 .31018393.2326379.54282186.5428218.54282186.31018396 0 .5428219-.23263793.5428219-.54282185v-.38772983c0-.3877299.3101839-.6979138.6979138-.6979138s.6979138.3101839.6979138.6979138v1.4733736h.62036783z"/>
    <path d="M90.84232692 96.8206158v-1.55091955h-.15509196v.46527586c0 .6203679-.54282184 1.0856437-1.24073565 1.0856437-.6979138 0-1.2407356-.4652758-1.2407356-1.0856437v-1.4733735h.4652759v1.4733736c0 .3877299.3101839.6979138.6979138.6979138s.6979138-.3101839.6979138-.6979138v-.3877299c0-.3101839.232638-.5428218.5428219-.5428218.3101839 0 .5428219.232638.5428219.5428219v1.4733736h-.3101839zm.62036782 7.36686792s.07754598 0 0 0c.07754598-.15509196 0-.15509196 0-.15509196l-3.1793851-.93055174v.46527587l1.7835575.5428218-.62036783.1550919v-.3101839h-.4652758v1.0080977l2.4814713-.7754598z"/>
    <path d="M88.28330964 100.93055264c0-.46527587.46527587-.93055174 1.00809772-.93055174h1.7835575c.54282184 0 1.0080977.3877299 1.0080977.93055174v1.62846554h-.54282184v-1.55091956c0-.23263794-.23263793-.46527587-.54282185-.46527587h-1.62846553c-.31018392 0-.54282185.23263793-.54282185.46527587v1.0856437h1.4733735v-.85300577h.4652758v1.31828163h-2.3263793l3.1793851.93055173c.3101839.077546.5428218.3877299.5428218.6979139 0 .3101839-.23263796.6203678-.54282187.6979138l-3.2569311.9305518v-1.86110344h.4652759v1.16318967l2.7141092-.7754598c.15509193-.077546.15509193-.15509196.15509193-.23263794 0-.077546-.07754598-.15509197-.15509196-.23263795l-3.2569311-.9305517v-2.01619543z"/>
  </g>
  <path fill="#151617" d="M57.730194 179.48463c-2.481471-6.20368-4.730305-12.4849-7.444414-18.53349-2.869201-6.43631-6.203678-12.71754-9.460609-18.99876-2.481471-4.8854-2.326379-6.51386-1.706011-10.23607.465275-2.71411 3.101839-6.97914 6.668954-8.68515 1.938649-.93055 4.187482-1.31828 6.35877-1.16319 4.962942.46528 7.832143 3.02429 9.925885 6.28122 7.754598 11.86454 13.415454 24.73717 18.223305 37.99753.853005 2.24884 1.783557 4.65276 2.093741 6.97914 1.085644 7.83214-4.420121 14.19091-12.32981 14.5011-6.048587.15509-10.003432-2.40393-12.329811-8.14233z"/>
  <path fill="#aaabab" d="M65.174608 131.71631l-.310184-.62037.620368-.93055-1.085644-2.24883-1.163189-.0776-.310184-.62037 3.954844.31019.38773.853-2.093741 3.33448zm.697914-2.0162l.853006-1.31828-.155092-.38773-1.55092-.0775.853006 1.78355zm11.244167 20.08441c.155091.15509.387729.15509.697913.0776l.232638-.15509c.542822-.23264.620368-.69792.38773-1.31829l-1.318281-2.79165-.542822.23264-2.093742 1.00809-.542822.23264 1.318282 2.79166c.310184.62037.697914.77546 1.240736.54282l.232638-.15509c.310184 0 .465276-.23264.38773-.46528zm-1.240736-.0775l-.155092-.38773-.930552-1.93865.77546-.38773.930552 1.93865.155092.31018c.07755.23264 0 .38773-.232638.54282-.232638.23264-.465276.15509-.542822-.0775zm1.318282-.62037l-1.085644-2.24884.77546-.38773 1.085643 2.24884c.07755.23264 0 .38773-.232638.54282-.232638.15509-.465276.0776-.542821-.15509zm8.142327 19.92931l-.542822-1.31828c-.38773-.93055-.697913-.69791-1.395827-.38773-.697914.31019-1.085644.38773-.77546 1.24074l1.008098 2.40392-.542822.23264-1.008098-2.40392c-.542822-1.24074 0-1.55092 1.085644-2.0162 1.085643-.46528 1.628465-.54282 2.171287.69791l1.008098 2.40393-.542822.23264-.465276-1.08565z"/>
  <circle cx="61.452396" cy="155.29028" r="8.9177876" fill="#121212"/>
  <circle cx="61.452396" cy="155.29028" r="7.6770515" fill="#262626"/>
  <path fill="#141515" d="M62.305407 157.15139c.155092.15509.465276.23264.77546.0776l.310183-.1551c.620368-.31018.697914-.77546.38773-1.39582l-1.473373-3.10184-.542822.23263-2.326379 1.08565-.542822.31018 1.473373 3.10184c.310184.69792.77546.85301 1.395828.62037l.310184-.15509c.155092-.15509.310184-.38773.232638-.62037zm-1.395828-.0776l-.155092-.38773-1.008097-2.17128.853005-.38773 1.008098 2.17128.155092.38773c.155092.23264 0 .46528-.232638.62037-.310184.0776-.465276 0-.620368-.23264zm1.473374-.69791l-1.16319-2.55902.853006-.38773 1.16319 2.55902c.155091.23264 0 .46528-.232638.62037-.310184.0775-.465276 0-.620368-.23264z"/>
  <circle cx="57.342464" cy="157.30647" r=".85300577" fill="#191919"/>
  <circle cx="51.293877" cy="134.97324" r="8.9177876" fill="#121212"/>
  <circle cx="51.293877" cy="134.97324" r="7.6770515" fill="#262626"/>
  <path fill="#141515" d="M51.681608 138.23017l-.310184-.69791.697914-1.08565-1.16319-2.48147-1.240736-.0775-.310183-.69792 4.42012.38773.465276 1.0081-2.559017 3.64466zm.77546-2.24883l1.008097-1.47338-.232638-.46527-1.706011-.0776.930552 2.0162z"/>
  <circle cx="69.82737" cy="175.52979" r="8.9177876" fill="#121212"/>
  <circle cx="69.82737" cy="175.52979" r="7.6770515" fill="#262626"/>
  <path fill="#141515" d="M71.223194 176.53788l-.620368-1.47337c-.387729-1.0081-.775459-.77546-1.550919-.38773-.77546.38773-1.240736.38773-.853006 1.39583l1.085644 2.63656-.620368.23264-1.085644-2.63656c-.542822-1.39583 0-1.70602 1.16319-2.24884 1.16319-.46527 1.861103-.62037 2.403925.77546l1.085644 2.63657-.620368.23263-.38773-1.16319z"/>
  <path fill="#a7a6a6" d="M41.755723 158.93495l-.310184-.69792-1.93865.85301-.232638-.46528 1.93865-.853-.310184-.69792.38773-.15509.853006 1.8611-.38773.1551zm-.77546 3.17938l-.232638-.46527.542822-.54283s.07755-.0775.07755-.15509c0-.0775.07755-.0775.07755-.15509v-.31018l-.232638-.46528-.930552.46528-.232638-.46528 2.32638-1.08564.465275 1.00809c0 .0776.07755.1551.07755.1551 0 .0775.07755.0775.07755.15509v.31018c0 .0776 0 .0776-.07755.15509 0 .0775-.07755.0775-.07755.1551 0 0-.07755.0775-.155092.0775-.07755 0-.07755.0776-.155091.0776-.155092.0775-.310184.0775-.38773.0775-.155092 0-.232638-.0775-.38773-.15509 0 .15509-.07755.23264-.232638.38773l-.542822.77546zm.620368-2.17129l.232638.54283c0 .0775.07755.15509.07755.15509 0 .0775.07755.0775.07755.0775h.155092c.07755 0 .07755 0 .155092-.0775.07755-.0776.155092-.0776.155092-.23264 0-.0776 0-.23264-.07755-.31018l-.310184-.62037-.465276.46527zm-.232638 3.10184l-.232638-.46527 2.326379-1.08565.232638.46528-2.326379 1.08564zm.697914 1.55092c-.07755-.15509-.155092-.31018-.155092-.46527s0-.31019.07755-.46528.155092-.31018.310184-.38773c.155092-.0775.310183-.23264.465275-.31018.155092-.0776.38773-.15509.542822-.15509s.310184 0 .465276.0775c.155092.0776.310184.15509.38773.23264.155092.0776.232638.23264.310184.38773.07755.15509.07755.31018.155092.38773v.38773c0 .15509-.07755.23264-.155092.31018-.07755.0776-.155092.1551-.310184.23264l-.232638-.46527c.07755-.0776.155092-.0776.155092-.1551 0-.0775.07755-.15509.07755-.15509v-.23264c0-.0775 0-.15509-.07755-.23263-.07755-.0776-.07755-.1551-.155092-.23264-.07755-.0776-.155092-.0776-.232638-.15509h-.310184c-.07755 0-.232638.0775-.38773.0775-.155092.0776-.232638.15509-.310184.23264-.07755.0776-.155091.15509-.155091.23264 0 .0775-.07755.15509-.07755.31018s0 .23264.07755.31019c.07755.15509.155091.23263.232637.31018.07755.0776.232638.15509.310184.15509l.232638-.0775-.232638-.54283.38773-.15509.465276 1.0081-1.240736.54282-.155091-.31018.155091-.15509c-.07755-.0776-.232637-.1551-.310183-.23264-.232638-.0776-.310184-.15509-.310184-.31019zm1.163189 2.55902c-.07755-.15509-.155092-.31018-.155092-.46528 0-.15509 0-.31018.07755-.46527s.155092-.31019.310184-.38773c.155092-.15509.310184-.23264.465276-.31019.155092-.0775.38773-.15509.542822-.15509s.310184 0 .465276.0775.310184.15509.38773.23264c.155092.0775.232638.23263.310184.38773.07755.15509.07755.31018.155092.38773v.38773c0 .15509-.07755.23263-.155092.31018-.07755.0776-.155092.15509-.310184.23264l-.232638-.46528c.07755-.0775.155092-.0775.155092-.15509.07755-.0776.07755-.0776.07755-.15509v-.23264c0-.0776 0-.15509-.07755-.23264-.07755-.0775-.07755-.15509-.155092-.23264-.07755-.0775-.155092-.0775-.232638-.15509-.07755-.0775-.232638 0-.310184 0-.07755 0-.232638.0776-.38773.0776-.155092.0775-.232638.15509-.310184.23264-.07755.0775-.155092.15509-.155092.23263-.07755.0776-.07755.1551-.07755.31019 0 .15509 0 .23264.07755.31018.07755.15509.155092.23264.232638.31019.07755.0775.232638.15509.310184.15509l.232638-.0776-.232638-.54282.38773-.15509.38773 1.0081-1.240736.54282-.155092-.31019.155092-.15509c-.07755-.0775-.232638-.15509-.310184-.23264-.07755 0-.155092-.15509-.232638-.31018zm1.55092 3.33448l-.853006-1.78356 2.326379-1.08564.77546 1.70601-.38773.15509-.620367-1.31828-.542822.23264.542822 1.24073-.38773.15509-.542822-1.24073-.620368.31018.620368 1.31828-.310184.31019zm1.16319 2.48147l-.232638-.46528.542821-.54282s.07755-.0775.07755-.15509c0-.0776.07755-.0776.07755-.15509v-.15509s0-.0776-.07755-.1551l-.232638-.46527-.930551.46527-.232638-.46527 2.326379-1.08565.465276 1.0081c0 .0776.07755.15509.07755.15509s.07755.0776.07755.1551v.31018c0 .0776 0 .0776-.07755.15509 0 .0776-.07755.0776-.07755.15509 0 .0776-.07755.0776-.155092.0776-.07755 0-.07755.0776-.155092.0776-.155092.0775-.310184.0775-.38773.0775-.155092 0-.232638-.0775-.38773-.15509 0 .15509-.07755.23264-.232638.38773l-.465275.77546zm.620367-2.17129l.232638.54282c0 .0776.07755.1551.07755.1551 0 .0775.07755.0775.07755.0775h.155092c.07755 0 .07755 0 .155092-.0775.07755-.0776.155092-.0776.155092-.23264 0-.0776 0-.23264-.07755-.31019l-.310184-.62036-.465276.46527z"/>
  <ellipse cx="63.391048" cy="44.787254" fill="#1b1d1f" rx="25.04735" ry="24.969805"/>
  <path fill="#0a0a0a" d="M63.313505 25.323223c10.856436 0 19.386494 8.68515 19.386494 19.541583 0 10.6238-8.762696 19.3865-19.46404 19.3865-10.778891 0-19.541587-8.84024-19.541587-19.54159.07755-10.778889 8.840242-19.464039 19.619133-19.386493zm18.378396 19.464043c0-10.313617-7.987235-18.378399-18.300851-18.455945-10.391161-.07755-18.533488 8.064782-18.533488 18.300855 0 10.31361 8.142327 18.45594 18.455943 18.45594 10.236069.0775 18.378396-8.06478 18.378396-18.30085z"/>
  <path fill="#313336" d="M81.846993 44.709716c0-10.313613-7.987236-18.378395-18.300851-18.455941-10.391161 0-18.533488 8.064782-18.533488 18.378401 0 10.31361 8.142327 18.45594 18.455942 18.45594 10.158524 0 18.300851-8.14233 18.378397-18.3784z"/>
  <path fill="#242629" d="M75.100493 33.388005l-2.791655 1.395828 1.473373 1.473373m-21.790419-2.869201l1.318281 2.869201 1.473374-1.473373M51.8367 56.496706l2.869201-1.31828-1.473374-1.55092m21.79042 3.10184l-1.395827-2.8692-1.473374 1.47337"/>
  <path fill="#181818" d="M63.235959 61.847376h-2.481472c-1.240735-.0775-1.861103-.69791-1.938649-1.93865-.155092-1.62846-.310184-3.33447-.620368-4.96294-.620368-2.79165-2.481471-4.57521-5.273126-5.19558-1.55092-.31018-3.10184-.46528-4.652759-.62037-1.706012-.15509-2.171288-.46527-2.248833-2.17128 0-.77546-.07755-1.47338-.07755-2.24884s0-1.47337.07755-2.24883c.07755-1.628467.542821-2.016197 2.248833-2.171289 1.550919-.155092 3.101839-.310184 4.652759-.620368 2.791655-.620368 4.575212-2.403925 5.273126-5.19558.38773-1.628466.542822-3.256931.620368-4.962943.07755-1.240735.697914-1.938649 1.938649-1.938649h4.962943c1.240735.07755 1.861103.697914 1.938649 1.938649.155092 1.628466.310184 3.334477.620368 4.962943.620368 2.791655 2.481471 4.575212 5.273127 5.19558 1.550919.310184 3.101839.465276 4.652758.620368 1.706012.155092 2.171288.465276 2.248834 2.171289 0 .77546.07755 1.47337.07755 2.24883 0 .77546 0 1.47338-.07755 2.24884-.07755 1.62846-.542822 2.01619-2.248834 2.17128-1.550919.15509-3.101839.31019-4.652758.62037-2.791656.62037-4.575213 2.40393-5.273127 5.19558-.38773 1.62847-.542822 3.25693-.620368 4.96294-.07755 1.24074-.697914 1.93865-1.938649 1.93865h-2.481471z"/>
  <g fill="#212121">
    <path d="M59.59129778 28.4250632h7.28932194V60.916828h-7.28932194z"/>
    <path d="M47.02884935 40.98751165h32.49176478v7.28932193H47.02884935z"/>
  </g>
  <circle cx="63.235958" cy="44.709717" r="3.5671148" fill="#151617"/>
</svg>
