<svg xmlns="http://www.w3.org/2000/svg" width="400" height="186.76004">
  <defs>
    <clipPath id="a">
      <path d="M0 236.681h506.92V0H0v236.681z"/>
    </clipPath>
  </defs>
  <path fill="#444141" d="M317.82845 180.101H84.483548V6.4775499H317.82845V180.101z"/>
  <path fill="#f57a14" d="M228.29354 24.29756l-7.47732 2.71285h7.52545l2.86199-1.58052-2.91012-1.13233zm-6.98225-7.82451h8.88267l11.82671 5.99621h-4.6382l-3.26048-1.50004-2.01136.81749-10.79934-5.31366zm16.54368 2.74639l7.4781-2.7097h-7.52545l-2.8612 1.57816 2.90855 1.13154z"/>
  <path fill="#f57a14" d="M244.838 27.04474h-8.88266l-11.82672-5.99621h4.63821l3.26047 1.50004 2.00979-.81828 10.80091 5.31445zm-79.58747-10.64373h5.88732v7.19403h-5.88732v-7.19403zm0 8.07465h15.08641v2.20232h-15.08641v-2.20232zm9.56751-8.07505h6.99203l4.7834 4.03614-3.45775 2.53768-8.31768-6.57382zm8.83169 6.97381v3.30308h5.51961v-3.30308l10.6715-6.97388h-5.15189l-10.67072 6.97388h-.3685zm16.9274-5.87343l5.88811 3.67079v5.5062h-5.88811v-9.17699zm.7359-1.10038l15.08798 10.27697h3.31098V16.39904h-2.86988V23.627L206.098 16.40061h-4.78497z"/>
  <g clip-path="url(#a)" transform="matrix(0.78907914,0,0,-0.78907914,0,186.76004)">
    <path fill="#4f4c4d" d="M339.499 44.0713c9.165 0 16.596 33.251 16.596 74.27 0 41.016-7.431 74.268-16.596 74.268H168.351c-9.166 0-16.596-33.252-16.596-74.268 0-41.019 7.43-74.27 16.596-74.27h171.148z"/>
    <path fill="#393536" d="M335.801 65.11H170.694v106.427h165.107V65.11z"/>
    <path fill="#444141" d="M331.8564 175.2188h-156.809c-4.124 0-7.477-3.355-7.477-7.479v-98.572c0-4.123 3.353-7.478 7.477-7.478h156.809c4.124 0 7.479 3.355 7.479 7.478v98.572c0 4.124-3.355 7.479-7.479 7.479m0-5.439c1.122 0 2.039-.917 2.039-2.04v-98.572c0-1.122-.917-2.039-2.039-2.039h-156.809c-1.121 0-2.039.917-2.039 2.039v98.572c0 1.123.918 2.04 2.039 2.04h156.809M133.9336 8.166L108.8946.111c-.231-.072-.473-.111-.714-.111h-82.646c-.924 0-1.76.546-2.134 1.391C8.0916 36.15-.0004 76.59-.0004 118.34c0 41.752 8.092 82.191 23.401 116.949.374.846 1.21 1.392 2.134 1.392h82.646c.241 0 .483-.038.714-.112l25.039-8.053c-13.945-31.663-22.058-69.448-22.058-110.174 0-40.729 8.113-78.515 22.058-110.176"/>
    <path fill="#4f4c4d" d="M131.8662 12.3906l-24.08-7.745c-.222-.07-.452-.107-.686-.107h-79.475c-.89 0-1.695.524-2.053 1.338-14.722 33.426-22.504 72.315-22.504 112.463 0 40.151 7.782 79.039 22.504 112.465.358.813 1.163 1.338 2.053 1.338h79.475c.234 0 .464-.037.686-.107l24.08-7.746c-13.409-30.446-21.213-66.783-21.213-105.948 0-39.166 7.804-75.504 21.213-105.951"/>
    <path fill="#444141" d="M372.9854 8.166l25.04-8.055c.231-.072.472-.111.714-.111h82.646c.924 0 1.761.546 2.134 1.391 15.31 34.759 23.401 75.199 23.401 116.949 0 41.752-8.091 82.191-23.401 116.949-.373.846-1.21 1.392-2.134 1.392h-82.646c-.242 0-.483-.038-.714-.112l-25.04-8.053c13.946-31.663 22.059-69.448 22.059-110.174 0-40.729-8.113-78.515-22.059-110.176"/>
    <path fill="#4f4c4d" d="M374.9316 12.3906l24.079-7.745c.222-.07.454-.107.687-.107h79.476c.889 0 1.694.524 2.051 1.338 14.723 33.426 22.505 72.315 22.505 112.463 0 40.151-7.782 79.039-22.505 112.465-.357.813-1.162 1.338-2.051 1.338h-79.476c-.233 0-.465-.037-.687-.107l-24.079-7.746c13.41-30.446 21.212-66.783 21.212-105.948 0-39.166-7.802-75.504-21.212-105.951"/>
    <path fill="#444141" d="M99.3296 69.8184c-.656 0-1.233.475-1.341 1.143-2.491 15.433-3.755 31.375-3.755 47.38 0 15.88 1.246 31.711 3.703 47.053.119.741.813 1.248 1.557 1.127.742-.119 1.247-.816 1.128-1.557-2.434-15.2-3.668-30.886-3.668-46.623 0-15.861 1.251-31.656 3.72-46.947.119-.741-.384-1.439-1.126-1.558-.073-.012-.146-.018-.218-.018m6.8291 1.9589c-.66 0-1.239.48-1.342 1.152-2.285 14.812-3.444 30.09-3.444 45.412 0 15.216 1.141 30.385 3.392 45.084.113.743.81 1.25 1.549 1.139.743-.113 1.252-.807 1.138-1.549-2.229-14.564-3.359-29.595-3.359-44.674 0-15.183 1.147-30.322 3.411-44.997.114-.743-.394-1.436-1.136-1.551-.07-.011-.14-.016-.209-.016"/>
    <path fill="#5a5758" d="M384.8818 108.5977c0-1.502-1.219-2.72-2.72-2.72h-6.797c-1.502 0-2.72 1.218-2.72 2.72v19.941c0 1.501 1.218 2.719 2.72 2.719h6.797c1.501 0 2.72-1.218 2.72-2.719v-19.941zM382.1758 72.5c-.157-1.492-1.496-2.576-2.989-2.42l-6.761.711c-1.493.157-2.577 1.496-2.42 2.989l2.083 19.831c.157 1.494 1.496 2.576 2.989 2.42l6.761-.711c1.493-.156 2.577-1.494 2.42-2.988l-2.083-19.832zm0 92.3613c-.157 1.493-1.496 2.576-2.989 2.42l-6.761-.71c-1.493-.157-2.577-1.495-2.42-2.989l2.083-19.832c.157-1.493 1.496-2.576 2.989-2.419l6.761.71c1.493.157 2.577 1.496 2.42 2.988l-2.083 19.832zm-258.6162-56.2636c0-1.502 1.218-2.72 2.719-2.72h6.799c1.5 0 2.718 1.218 2.718 2.72v19.941c0 1.501-1.218 2.719-2.718 2.719h-6.799c-1.501 0-2.719-1.218-2.719-2.719v-19.941zm2.706-36.0977c.157-1.492 1.495-2.576 2.988-2.42l6.762.711c1.493.157 2.577 1.496 2.42 2.989l-2.084 19.831c-.157 1.494-1.495 2.576-2.99 2.42l-6.76-.711c-1.493-.156-2.576-1.494-2.42-2.988l2.084-19.832zm0 92.3613c.157 1.493 1.495 2.576 2.988 2.42l6.762-.71c1.493-.157 2.577-1.495 2.42-2.989l-2.084-19.832c-.157-1.493-1.495-2.576-2.99-2.419l-6.76.71c-1.493.157-2.576 1.496-2.42 2.988l2.084 19.832z"/>
    <path fill="#f1512a" d="M150.0068 210.7949c0-1.877-1.521-3.398-3.399-3.398-1.877 0-3.399 1.521-3.399 3.398 0 1.878 1.522 3.399 3.399 3.399 1.878 0 3.399-1.521 3.399-3.399"/>
    <path fill="#393536" d="M428.584 188.2295c.385-1.415-.451-2.878-1.868-3.262l-25.968-7.058c-1.416-.386-2.876.45-3.262 1.868l-7.059 25.967c-.384 1.418.451 2.877 1.868 3.262l25.968 7.058c1.416.386 2.876-.449 3.26-1.867l7.061-25.968z"/>
    <path fill="#5a5758" d="M422.3291 200.4736c1.926-7.083-2.255-14.385-9.338-16.311-7.082-1.924-14.385 2.256-16.31 9.339-1.925 7.082 2.257 14.385 9.339 16.309 7.081 1.926 14.384-2.255 16.309-9.337"/>
    <path fill="#393536" d="M470.7324 200.126c.385-1.415-.452-2.878-1.869-3.262l-25.967-7.058c-1.416-.385-2.877.45-3.263 1.868l-7.057 25.968c-.385 1.417.451 2.876 1.867 3.261l25.968 7.059c1.416.385 2.875-.451 3.261-1.867l7.06-25.969z"/>
    <path fill="#5a5758" d="M464.4766 212.3701c1.926-7.083-2.254-14.385-9.337-16.31-7.083-1.924-14.385 2.256-16.31 9.338-1.925 7.083 2.257 14.385 9.338 16.308 7.082 1.927 14.384-2.253 16.309-9.336"/>
    <path fill="#393536" d="M432.5752 18.6172c-.386-1.416.452-2.878 1.868-3.262l25.968-7.058c1.416-.385 2.875.45 3.262 1.867l7.058 25.969c.385 1.416-.451 2.876-1.868 3.261l-25.967 7.059c-1.416.385-2.877-.451-3.261-1.867l-7.06-25.969z"/>
    <path fill="#5a5758" d="M438.8301 30.8613c-1.926-7.084 2.254-14.385 9.338-16.311 7.081-1.923 14.385 2.256 16.309 9.339 1.925 7.082-2.256 14.384-9.339 16.308-7.081 1.926-14.382-2.254-16.308-9.336"/>
    <path fill="#393536" d="M390.4268 30.5137c-.386-1.416.451-2.877 1.868-3.262l25.968-7.058c1.416-.385 2.876.451 3.262 1.867l7.059 25.969c.384 1.416-.451 2.876-1.868 3.261l-25.968 7.059c-1.416.385-2.876-.451-3.26-1.867l-7.061-25.969z"/>
    <path fill="#5a5758" d="M396.6816 42.7578c-1.926-7.084 2.255-14.385 9.338-16.311 7.082-1.923 14.385 2.256 16.31 9.339 1.924 7.083-2.258 14.384-9.339 16.308-7.082 1.926-14.384-2.254-16.309-9.336"/>
    <path fill="#393536" d="M89.8867 128.625c0 2.243-1.836 4.078-4.079 4.078h-11.729c-2.244 0-4.08 1.836-4.08 4.079v11.73c0 2.244-1.835 4.078-4.078 4.078h-21.291c-2.244 0-4.08-1.834-4.08-4.078v-11.73c0-2.243-1.836-4.079-4.078-4.079h-11.73c-2.243 0-4.08-1.835-4.08-4.078v-21.292c0-2.243 1.837-4.079 4.08-4.079h11.73c2.242 0 4.078-1.836 4.078-4.079V87.446c0-2.243 1.836-4.079 4.08-4.079h21.291c2.243 0 4.078 1.836 4.078 4.079v11.729c0 2.243 1.836 4.079 4.08 4.079h11.729c2.243 0 4.079 1.836 4.079 4.079v21.292z"/>
    <path fill="#5a5758" d="M86.6563 117.9981c0-6.523-5.287-11.792-11.81-11.792l-4.614.038c-1.751 0-3.184-1.434-3.184-3.185v-4.575c0-6.523-5.289-11.81-11.811-11.81-6.523 0-11.753 5.287-11.753 11.81l.018 4.575c0 1.751-1.433 3.185-3.185 3.185l-4.614-.038c-6.522 0-11.809 5.269-11.809 11.792 0 6.521 5.287 11.791 11.809 11.791l4.614-.037c1.752 0 3.185 1.432 3.185 3.183l-.018 4.577c0 6.522 5.23 11.81 11.753 11.81 6.522 0 11.811-5.288 11.811-11.81v-4.577c0-1.751 1.433-3.183 3.184-3.183l4.614.037c6.523 0 11.81-5.27 11.81-11.791"/>
    <path fill="#7b7979" fill-rule="evenodd" d="M271.543 34.961H273v-8.474h-1.457v8.474zm-16.674-1.449v1.442h5.085v-1.442h-1.808l-.006-7.025h-1.456v7.018l-1.815.007zm14.342-3.526c.968.371 1.652 1.306 1.652 2.403 0 1.421-1.151 2.572-2.573 2.572l-.996.006c-.923.004-1.457-.484-1.457-1.458v-6.972h1.457v7.017h.898c.684 0 1.238-.555 1.238-1.24 0-.609-.439-1.114-1.018-1.218-.102-.025-.205-.055-.301-.112-.507-.306-.671-.966-.365-1.472l1.831-3.025h1.539l-1.99 3.274c-.044.071-.021.163.051.206.012.008.028.012.041.015l-.007.004zm-17.656-1.47l-.553-2.016h-1.529l2.135 7.746c.134.447.55.775 1.044.775.492 0 .911-.328 1.046-.775l2.343-7.759-1.519.013-.615 2.012-2.352.004zm1.941 1.348l-.828 2.701-.739-2.696 1.567-.005zm7.432-1.348l-.554-2.016h-1.53l2.137 7.746c.133.447.55.775 1.043.775.494 0 .912-.328 1.045-.775l2.344-7.759-1.518.013-.615 2.012-2.352.004zm1.94 1.348l-.827 2.701-.74-2.696 1.567-.005zm-21.166 5.317h1.335v-8.693h-1.335v8.693zm-.219 0h-.933v-2.625c0-2.204-1.513-4.056-3.556-4.574l-.004-1.491c2.552.423 4.498 2.644 4.496 5.31l-.003 3.38zm1.777 0h.933v-2.625c0-2.204 1.511-4.056 3.556-4.574l.002-1.491c-2.551.423-4.497 2.644-4.495 5.31l.004 3.38z"/>
    <path fill="#444141" d="M462.7822 54.1035c-.097 0-.195.01-.295.031-.732.162-1.195.889-1.033 1.621 4.449 20.128 6.705 41.185 6.705 62.586 0 21.285-2.232 42.235-6.635 62.267-.161.733.303 1.459 1.036 1.62.739.158 1.459-.303 1.62-1.036 4.445-20.224 6.698-41.37 6.698-62.851 0-21.597-2.278-42.852-6.77-63.172-.139-.634-.702-1.066-1.326-1.066m-13.7715 3.9502c-.091 0-.183.009-.274.028-.737.151-1.21.87-1.059 1.606 3.892 18.928 5.865 38.662 5.865 58.654 0 19.889-1.951 39.516-5.798 58.334-.15.736.325 1.454 1.06 1.605.737.155 1.454-.326 1.604-1.06 3.884-18.997 5.853-38.807 5.853-58.879 0-20.176-1.991-40.095-5.92-59.202-.133-.644-.699-1.086-1.331-1.086m-14.4726 4.1514c-.085 0-.17.008-.256.024-.737.14-1.222.852-1.082 1.589 3.349 17.65 5.047 35.993 5.047 54.524 0 18.41-1.678 36.646-4.987 54.201-.14.738.345 1.449 1.084 1.588.734.14 1.448-.346 1.587-1.084 3.341-17.721 5.035-36.127 5.035-54.705 0-18.699-1.714-37.215-5.094-55.03-.124-.652-.694-1.107-1.334-1.107m-10.332 2.9639c-.08 0-.16.007-.241.021-.739.132-1.232.839-1.1 1.578 2.989 16.73 4.505 34.082 4.505 51.574 0 17.385-1.496 34.629-4.445 51.252-.131.738.362 1.444 1.101 1.576.733.131 1.445-.362 1.576-1.102 2.977-16.779 4.487-34.181 4.487-51.726 0-17.652-1.529-35.164-4.546-52.053-.118-.658-.691-1.12-1.337-1.12m-10.3643 2.9726c-.075 0-.15.007-.227.019-.74.125-1.24.826-1.116 1.566 2.651 15.811 3.994 32.168 3.994 48.615 0 16.334-1.326 32.582-3.939 48.292-.124.741.377 1.441 1.117 1.565.748.116 1.442-.378 1.565-1.119 2.638-15.856 3.976-32.253 3.976-48.738 0-16.597-1.356-33.105-4.031-49.064-.111-.665-.688-1.136-1.339-1.136"/>
    <path fill="#444141" d="M407.999 69.8184c-.072 0-.146.006-.219.018-.741.119-1.245.817-1.125 1.558 2.468 15.291 3.72 31.086 3.72 46.947 0 15.749-1.234 31.436-3.669 46.622-.118.742.386 1.439 1.128 1.558.731.115 1.438-.385 1.558-1.127 2.457-15.329 3.702-31.16 3.702-47.053 0-16.005-1.263-31.947-3.755-47.38-.108-.668-.685-1.143-1.34-1.143m-6.8291 1.9589c-.069 0-.139.005-.209.016-.742.115-1.251.808-1.137 1.551 2.265 14.673 3.413 29.812 3.413 44.997 0 15.081-1.131 30.112-3.361 44.673-.114.743.396 1.437 1.138 1.55.751.111 1.436-.396 1.55-1.137 2.251-14.699 3.392-29.868 3.392-45.086 0-15.324-1.159-30.603-3.444-45.412-.104-.672-.683-1.152-1.342-1.152"/>
    <path fill="#393536" d="M453.4199 126.7793c.049-1.717.085-3.438.103-5.16l2.718.058c-.019 1.757-.054 3.512-.104 5.265l-2.717-.163zm-26.3476 4.9063l2.707.291c-.058 1.285-.134 2.567-.208 3.85l-2.699-.438c.07-1.233.145-2.467.2-3.703m-10.8252-1.1622l2.708.29c-.045 1.091-.108 2.177-.166 3.267l-2.7-.438c.053-1.04.116-2.078.158-3.119m13.5176-26.0878l-2.707.291c-.056-1.236-.13-2.469-.202-3.703l2.7-.438c.076 1.284.15 2.565.209 3.85m23.7568 10.3554c-.021-1.723-.06-3.442-.109-5.16l2.715-.162c.052 1.752.091 3.507.113 5.263l-2.719.059zm-12.9317-11.5176l-2.708.291c-.07-1.432-.151-2.859-.242-4.287l2.696-.437c.096 1.476.18 2.953.254 4.433m15.209-1.6328l-2.707.29c-.094-1.704-.2-3.405-.321-5.104l2.695-.436c.127 1.746.236 3.496.333 5.25m10.0635 53.6787c.254-2.021.488-4.045.7-6.077l2.676.572c-.218 2.076-.463 4.145-.724 6.209l-2.652-.704zm-28.206-18.1836c.089-1.427.17-2.856.239-4.288l2.708.291c-.072 1.479-.156 2.958-.251 4.434l-2.696-.437zm-7.6524-11.7568l-2.715-.163c.031-1.382.039-2.767.052-4.149l2.719.057c-.013 1.419-.023 2.838-.056 4.255m-10.8193-9.8633l-2.721.059c-.011-1.245-.017-2.487-.043-3.729l2.715-.163c.027 1.277.036 2.556.049 3.833m-2.7168 5.3213l2.719.058c-.01 1.277-.017 2.556-.043 3.833l-2.715-.163c.024-1.241.029-2.485.039-3.728m21.6826 5.0283c.038-1.521.064-3.044.081-4.568l2.717.056c-.015 1.561-.043 3.119-.083 4.675l-2.715-.163zm2.7969-10.8086l-2.719.057c-.015-1.524-.047-3.047-.085-4.569l2.716-.162c.04 1.557.071 3.113.088 4.674m-10.8916.2295l-2.718.058c-.015-1.383-.025-2.768-.058-4.149l2.715-.162c.035 1.416.047 2.835.061 4.253m-11.1123-9.6884l-2.709.291c-.043-1.041-.106-2.079-.159-3.118l2.699-.438c.059 1.089.121 2.175.169 3.265m50.2675-18.9961l-2.676.572c-.215-2.031-.451-4.055-.706-6.074l2.651-.703c.264 2.062.51 4.129.731 6.205m-14.3115 3.0625l-2.678.573c-.169-1.797-.35-3.592-.552-5.38l2.654-.705c.21 1.833.399 3.67.576 5.512m-15.0058 3.2129l-2.681.572c-.129-1.551-.272-3.097-.424-4.642l2.663-.707c.16 1.589.306 3.181.442 4.777m27.7236 7.4941c-.117-1.965-.247-3.928-.403-5.884l2.691-.436c.162 2.005.298 4.015.419 6.029l-2.707.291zM452.79 139.5869c.12-1.698.226-3.4.317-5.106l2.706.291c-.093 1.754-.203 3.504-.327 5.252l-2.696-.437zm15.2207-11.9346c.058-1.904.103-3.813.125-5.725l2.718.059c-.023 1.946-.068 3.889-.128 5.829l-2.715-.163zm.1231-13.1699c-.024-1.912-.073-3.82-.133-5.725l2.715-.162c.063 1.94.112 3.883.136 5.828l-2.718.059zm-.8994 27.4434c.154-1.956.283-3.92.399-5.885l2.706.291c-.119 2.014-.25 4.026-.411 6.031l-2.694-.437zm-40.71-1.2539l2.685.575c-.11 1.42-.217 2.839-.345 4.254l-2.664-.706c.121-1.371.222-2.748.324-4.123m10.711 2.2929l2.68.574c-.134 1.596-.28 3.188-.439 4.778l-2.664-.706c.153-1.546.295-3.094.423-4.646m-8.0489-47.7968l-2.684.574c-.102-1.374-.206-2.749-.327-4.119l2.662-.707c.13 1.414.24 2.832.349 4.252m22.5137 56.3926c.201-1.789.379-3.584.548-5.383l2.677.573c-.174 1.843-.362 3.681-.571 5.515l-2.654-.705zm-35.8867-13.1817l2.686.576c-.086 1.242-.167 2.485-.267 3.725l-2.676-.709c.094-1.196.176-2.394.257-3.592m2.665-40.9189l-2.685.574c-.08-1.196-.162-2.394-.257-3.588l2.674-.71c.102 1.239.183 2.483.268 3.724"/>
  </g>
</svg>
