<svg xmlns="http://www.w3.org/2000/svg" viewBox="0 0 105 105"><title>icon_empty</title><g id="Layer_1" data-name="Layer 1"><path d="M87.45069,8.33148q-37.44982-.19308-74.90118,0C1.39564,8.389.01435,9.71277.00282,20.75635-.02666,48.8374.18409,76.9187.29865,104.99988q49.70124,0,99.40247.00012c.11469-28.08118.3255-56.16241.29608-84.24347C99.98567,9.71283,98.60444,8.389,87.45069,8.33148Zm-44.022,43.52564q-.01127-.416.00085-.80561a8.79587,8.79587,0,0,1,.29279-2.094,8.79587,8.79587,0,0,0-.29279,2.094q-.01217.38956-.00085.80567-2.93921.36391-5.8783.728Z" fill="#fff"/></g></svg>