<svg xmlns="http://www.w3.org/2000/svg" viewBox="0 0 1000 114"><g id="Layer_2" data-name="Layer 2"><rect x="458.54" y="24.73" width="79.15" height="72" fill="#fff"/></g><g id="Layer_1" data-name="Layer 1"><path d="M497.2,110.5a8.76,8.76,0,0,1-7.9-5,3.63,3.63,0,0,1-1.39.28,4,4,0,0,1-.6-.05l-27.76-4.63a3.48,3.48,0,0,1-2.07-1.16,6.72,6.72,0,0,1-4,1.32,6.79,6.79,0,0,1-4.36-12,3.51,3.51,0,0,1-.64-2.29c1.18-15.61,2.39-31.76,7.52-47.73a3.39,3.39,0,0,1,1.25-1.74,8.73,8.73,0,0,1,13.53-11,3.48,3.48,0,0,1,1.74-.85,224.27,224.27,0,0,0,37.91-10.15,3.64,3.64,0,0,1,1.17-.2h.33a12.61,12.61,0,1,1,23.57,7,3.5,3.5,0,0,1,1.36,1.26,64.55,64.55,0,0,1,8.44,20.81,3.43,3.43,0,0,1-.29,2.27,8.74,8.74,0,0,1,.87,14.94,3.41,3.41,0,0,1,.56,1.73,74.44,74.44,0,0,0,2.87,17.21,3.44,3.44,0,0,1-.06,2.15,6.93,6.93,0,0,1-2.84,13.24,7.06,7.06,0,0,1-1.54-.16,3.52,3.52,0,0,1-1.64,2c-12.61,7-26.21,8.59-36.64,9.2h-.2a3.52,3.52,0,0,1-1.82-.51A8.72,8.72,0,0,1,497.2,110.5ZM535.46,66c-13.07,11-21.9,20.27-28.31,29.81,9-.58,20.26-2.06,30.39-7.61a3.44,3.44,0,0,1,1.68-.43l.37,0a6.83,6.83,0,0,1,.63-1.93,3.49,3.49,0,0,1-1.5-2A84.19,84.19,0,0,1,535.46,66ZM489.12,94.8a3.45,3.45,0,0,1,1.8.89,8.77,8.77,0,0,1,5.56-2.64A3.5,3.5,0,0,1,497,91c6.85-10.56,15.76-19.72,24.16-27.27a73.13,73.13,0,0,1-8.4.5h-1.2a3.55,3.55,0,0,1-2.31-.92,7,7,0,0,1-4.78,1.83h-.11a3.5,3.5,0,0,1-1,2.19c-9.64,9.41-21.34,17-33.72,24.28ZM466.61,42.45a3,3,0,0,1-.09.38c-4.32,13.55-5.65,27.75-6.72,41.59C472.2,77.25,484,70,493.5,61.33c-12.26-4-20.15-12-26.56-18.5A3.9,3.9,0,0,1,466.61,42.45ZM504.51,51a7,7,0,0,1,5.55,2.66,3.5,3.5,0,0,1,1.95-.59h.57a70.18,70.18,0,0,0,11-1A195.5,195.5,0,0,0,480,40.17c5.07,4.74,10.77,9,18.56,11.13a3.57,3.57,0,0,1,1.71,1.07A7.09,7.09,0,0,1,504.51,51Zm-8.87-19.19A184.27,184.27,0,0,1,534,44.57a52.65,52.65,0,0,0-6.39-14.86,3.4,3.4,0,0,1-.47-1.25,12.3,12.3,0,0,1-2.59.27,12.55,12.55,0,0,1-8.9-3.69,3.44,3.44,0,0,1-1.39.91C507.79,28.22,501.62,30.18,495.64,31.83Z" fill="#333"/><path d="M524.51,7a9.12,9.12,0,1,1-9.11,9.11A9.07,9.07,0,0,1,524.51,7M511.6,18.84h0m0,0a12.47,12.47,0,0,0,1.45,3.81,248,248,0,0,1-34.26,9.62c20.3,3.07,38.8,8.29,55,16.1A9.88,9.88,0,0,0,531.91,52c-17.08-8.18-36.81-13.44-58.72-16.38a8.52,8.52,0,0,0,.55-3.09,9.28,9.28,0,0,0-.64-3.38,228.38,228.38,0,0,0,38.5-10.3m22.27,6.57a60.91,60.91,0,0,1,8,19.68c-.3,0-.62-.05-.94-.05a9.64,9.64,0,0,0-3.14.55,55.73,55.73,0,0,0-7.24-17.72,13.57,13.57,0,0,0,3.32-2.46M464.4,27.28a5.24,5.24,0,1,1-5.24,5.24,5.21,5.21,0,0,1,5.24-5.24m7.9,10.16c7.16,7.26,14.1,14.16,25.38,17.24a7.64,7.64,0,0,0-.8,3.37c0,.21,0,.43,0,.64-12.41-3.3-20.16-10.89-27.47-18.32a9.34,9.34,0,0,0,2.87-2.93m-13,2.89a9.11,9.11,0,0,0,3.86,1.43c-4.72,14.83-5.94,30.23-7.13,45.81a6.92,6.92,0,0,0-2.58-.48,6.85,6.85,0,0,0-1.51.16c1.18-15.67,2.4-31.48,7.36-46.92h0m81.61,8.81h0a5.24,5.24,0,1,1-5.24,5.24,5.21,5.21,0,0,1,5.24-5.24m-9.34,5.06v.18a8.92,8.92,0,0,0,.85,3.83,95,95,0,0,1-19.64,2.47h-1.14a7.21,7.21,0,0,0,.48-2.62,7.85,7.85,0,0,0-.13-1.46h.57a94.66,94.66,0,0,0,19-2.4m-27.08.32A3.53,3.53,0,1,1,501,58.05a3.49,3.49,0,0,1,3.53-3.53m28.06,4h0a9.43,9.43,0,0,0,2.58,3.16c-12.44,10.28-23.67,21-31.62,33.24A9.09,9.09,0,0,0,500,92.85C508.29,80,519.91,69,532.57,58.53M498,62a7.72,7.72,0,0,0,3,2.82c-11.39,11.12-25.78,19.66-40.27,28a7.49,7.49,0,0,0-2.06-3.56C473,80.9,487,72.51,498,62m40.86,1.52a9.32,9.32,0,0,0,2.12.25,8.43,8.43,0,0,0,2-.23,76.9,76.9,0,0,0,3,18,7.53,7.53,0,0,0-3.87,1.37,80.94,80.94,0,0,1-3.26-19.41m7.59,22.12A3.42,3.42,0,1,1,543,89a3.39,3.39,0,0,1,3.42-3.42m-92.93,5.6a3.29,3.29,0,1,1-3.29,3.28,3.26,3.26,0,0,1,3.29-3.28m85.75.07a7.57,7.57,0,0,0,2.31,3.44c-11,6.13-23.06,8.06-35.15,8.77a10.55,10.55,0,0,0,.16-1.71,9.5,9.5,0,0,0-.32-2.39c11.64-.68,22.82-2.53,33-8.11M460.8,93.63l27.74,4.62a9.62,9.62,0,0,0-.68,3.51,4.52,4.52,0,0,0,0,.52l-27.75-4.62a7.46,7.46,0,0,0,.72-3.19,7.58,7.58,0,0,0-.05-.84m36.4,2.89a5.24,5.24,0,1,1-5.24,5.24,5.21,5.21,0,0,1,5.24-5.24M524.51,0a16.15,16.15,0,0,0-15.68,12.39,221.18,221.18,0,0,1-36.91,9.85c-.22,0-.44.09-.65.15a12.23,12.23,0,0,0-18.19,14.77,7.21,7.21,0,0,0-.43,1c-5.25,16.37-6.48,32.72-7.67,48.54a7.21,7.21,0,0,0,.1,1.8,10.28,10.28,0,0,0,8.39,16.24,10.14,10.14,0,0,0,3.79-.72,7.14,7.14,0,0,0,1.72.52l27.75,4.62c.27,0,.55.07.82.09a12.22,12.22,0,0,0,18.26,1.17l.57,0h.41c10.8-.63,24.9-2.3,38.13-9.64a7.16,7.16,0,0,0,1.78-1.4,10.42,10.42,0,0,0,6.22-18.54,7,7,0,0,0-.26-1.33,70.74,70.74,0,0,1-2.73-16.4c0-.14,0-.29,0-.44a12.22,12.22,0,0,0-1-17.64,6.76,6.76,0,0,0-.15-1.41,67.78,67.78,0,0,0-8.9-21.94,1.37,1.37,0,0,0-.13-.2A16.12,16.12,0,0,0,524.51,0ZM511.6,25.84Zm0,0Zm-2.88,5.69q3.22-1.07,6.54-2.23a16,16,0,0,0,9.25,2.93H525a53.5,53.5,0,0,1,3.08,6,183.87,183.87,0,0,0-19.36-6.64Zm-8.17,16.76a7.39,7.39,0,0,0-1-.36c-.74-.21-1.47-.43-2.17-.67,1.19.29,2.37.59,3.53.9l-.33.13ZM463.84,78a175.54,175.54,0,0,1,4.49-28.83c4.89,4.77,10.73,9.75,18.47,13.3a191.35,191.35,0,0,1-23,15.53ZM507,68.29a10.57,10.57,0,0,0,2.53-1,7,7,0,0,0,2,.34h.32A130.69,130.69,0,0,0,494.1,89.05a7.81,7.81,0,0,0-.55,1,12.11,12.11,0,0,0-3.06,1.45,5.45,5.45,0,0,0-.8-.18l-10.14-1.69c9.55-6,18.51-12.33,26.25-19.88A6.88,6.88,0,0,0,507,68.29Zm7.63,23.29A147.79,147.79,0,0,1,532.71,73a88.62,88.62,0,0,0,2.65,11.9l.15.44a61.09,61.09,0,0,1-20.92,6.27Z" fill="#fff"/><path d="M524.51,7a9.12,9.12,0,1,0,9.11,9.11A9.07,9.07,0,0,0,524.51,7ZM511.6,18.84a228.38,228.38,0,0,1-38.5,10.3,9.28,9.28,0,0,1,.64,3.38,8.52,8.52,0,0,1-.55,3.09c21.91,2.94,41.64,8.2,58.72,16.38a9.88,9.88,0,0,1,1.89-3.62c-16.21-7.81-34.71-13-55-16.1a248,248,0,0,0,34.26-9.62,12.47,12.47,0,0,1-1.45-3.81Zm22.27,6.57a13.57,13.57,0,0,1-3.32,2.46,55.73,55.73,0,0,1,7.24,17.72,9.64,9.64,0,0,1,3.14-.55c.32,0,.64,0,.94.05a60.91,60.91,0,0,0-8-19.68ZM464.4,27.28a5.24,5.24,0,1,0,5.24,5.24A5.21,5.21,0,0,0,464.4,27.28Zm7.9,10.16a9.34,9.34,0,0,1-2.87,2.93c7.31,7.43,15.06,15,27.47,18.32,0-.21,0-.43,0-.64a7.64,7.64,0,0,1,.8-3.37c-11.28-3.08-18.22-10-25.38-17.24Zm-13,2.89c-5,15.44-6.18,31.25-7.36,46.92a6.85,6.85,0,0,1,1.51-.16,6.92,6.92,0,0,1,2.58.48c1.19-15.58,2.41-31,7.13-45.81a9.11,9.11,0,0,1-3.86-1.43Zm81.61,8.81a5.24,5.24,0,1,0,5.24,5.24,5.22,5.22,0,0,0-5.24-5.24Zm-9.34,5.06c-6.46,1.32-12.89,2.46-19.58,2.39a7.85,7.85,0,0,1,.13,1.46,7.21,7.21,0,0,1-.48,2.62c7.29.14,14.13-1.07,20.78-2.46a8.92,8.92,0,0,1-.85-3.83Zm-27.08.32A3.53,3.53,0,1,0,508,58.05,3.49,3.49,0,0,0,504.51,54.52Zm28.06,4C519.91,69,508.29,80,500,92.85a9.09,9.09,0,0,1,3.55,2.08c8-12.19,19.18-23,31.62-33.24a9.43,9.43,0,0,1-2.58-3.16ZM498,62c-10.91,10.56-25,19-39.37,27.21a7.49,7.49,0,0,1,2.06,3.56c14.49-8.29,28.88-16.83,40.27-27.95A7.72,7.72,0,0,1,498,62Zm40.86,1.52a80.94,80.94,0,0,0,3.26,19.41,7.53,7.53,0,0,1,3.87-1.37,76.9,76.9,0,0,1-3-18,8.43,8.43,0,0,1-2,.23A9.32,9.32,0,0,1,538.81,63.47Zm7.59,22.12A3.42,3.42,0,1,0,549.82,89,3.39,3.39,0,0,0,546.4,85.59Zm-92.93,5.6a3.29,3.29,0,1,0,3.28,3.28A3.27,3.27,0,0,0,453.47,91.19Zm85.75.07c-10.18,5.58-21.36,7.43-33,8.11a9.5,9.5,0,0,1,.32,2.39,10.55,10.55,0,0,1-.16,1.71c12.09-.71,24.1-2.64,35.15-8.77A7.57,7.57,0,0,1,539.22,91.26ZM460.8,93.63a7.58,7.58,0,0,1,.05.84,7.46,7.46,0,0,1-.72,3.19l27.75,4.62a4.52,4.52,0,0,1,0-.52,9.62,9.62,0,0,1,.68-3.51Zm36.4,2.89a5.24,5.24,0,1,0,5.24,5.24,5.21,5.21,0,0,0-5.24-5.24Z" fill="#333"/></g></svg>