<svg xmlns="http://www.w3.org/2000/svg" viewBox="0 0 354 223"><path fill="#a9a79b" d="M0 0h354v223H0z"/><path d="M348.417 220.333H5.583a3.008 3.008 0 0 1-2.999-2.999V5.666c0-1.65 1.35-2.999 2.999-2.999h342.835c1.65 0 2.999 1.35 2.999 2.999v211.668c0 1.65-1.35 2.999-3 2.999z" fill="#bfb8a8"/><path fill="#207ea4" d="M5.167 48h343.667v2.938H5.167zM5.167 54h343.667v2.938H5.167z"/><path d="M2.583 66h348.833v133.333H2.583z"/><path fill="#b3afa4" d="M38.484 82.015v11.906H19.515V82.015z"/><path fill="#2b2a28" d="M36.925 83.574v8.788h-15.85v-8.788z"/><path fill="#bfb6a5" d="M21.499 84h15v7.938h-15z"/><path fill="#b3afa4" d="M62.484 82.015v11.906H43.515V82.015z"/><path fill="#2b2a28" d="M60.925 83.574v8.788h-15.85v-8.788z"/><path fill="#bfb6a5" d="M45.499 84h15v7.938h-15z"/><path fill="#b3afa4" d="M86.484 82.015v11.906H67.515V82.015z"/><path fill="#2b2a28" d="M84.925 83.575v8.788h-15.85v-8.788z"/><path fill="#bfb6a5" d="M69.5 84h15v7.938h-15z"/><path fill="#b3afa4" d="M110.484 82.016v11.906H91.515V82.016z"/><path fill="#2b2a28" d="M108.925 83.575v8.788h-15.85v-8.788z"/><path fill="#bfb6a5" d="M93.5 84h15v7.938h-15z"/><path fill="#b3afa4" d="M134.484 82.016v11.906h-18.969V82.016z"/><path fill="#2b2a28" d="M132.925 83.575v8.788h-15.85v-8.788z"/><path fill="#bfb6a5" d="M117.5 84h15v7.938h-15z"/><g><path fill="#b3afa4" d="M158.485 82.016v11.906h-18.97V82.016z"/><path fill="#2b2a28" d="M156.926 83.575v8.788h-15.851v-8.788z"/><path fill="#bfb6a5" d="M141.5 84h15v7.938h-15z"/></g><g><path fill="#b3afa4" d="M182.485 82.016v11.906h-18.97V82.016z"/><path fill="#2b2a28" d="M180.926 83.575v8.788h-15.851v-8.788z"/><path fill="#bfb6a5" d="M165.5 84h15v7.938h-15z"/></g><g><path fill="#b3afa4" d="M206.485 82.016v11.906h-18.97V82.016z"/><path fill="#2b2a28" d="M204.926 83.575v8.788h-15.851v-8.788z"/><path fill="#bfb6a5" d="M189.5 84h15v7.938h-15z"/></g><g><path fill="#b3afa4" d="M230.485 82.016v11.906h-18.97V82.016z"/><path fill="#2b2a28" d="M228.926 83.575v8.788h-15.851v-8.788z"/><path fill="#bfb6a5" d="M213.5 84h15v7.938h-15z"/></g><g><path fill="#b3afa4" d="M254.485 82.015v11.906h-18.969V82.015z"/><path fill="#2b2a28" d="M252.926 83.574v8.788h-15.851v-8.788z"/><path fill="#bfb6a5" d="M237.5 84h15v7.938h-15z"/></g><g><path fill="#b3afa4" d="M278.485 82.015v11.906h-18.969V82.015z"/><path fill="#2b2a28" d="M276.926 83.574v8.788h-15.85v-8.788z"/><path fill="#bfb6a5" d="M261.5 84h15v7.938h-15z"/></g><g><path fill="#b3afa4" d="M302.485 82.015v11.906h-18.969V82.015z"/><path fill="#2b2a28" d="M300.926 83.574v8.788h-15.85v-8.788z"/><path fill="#bfb6a5" d="M285.5 84h15v7.938h-15z"/></g><g><path fill="#b3afa4" d="M326.485 82.015v11.906h-18.969V82.015z"/><path fill="#2b2a28" d="M324.926 83.574v8.788h-15.85v-8.788z"/><path fill="#bfb6a5" d="M309.501 84h15v7.938h-15z"/></g><g><path fill="#b3afa4" d="M27.484 106.046v11.906H8.514v-11.906z"/><path fill="#2b2a28" d="M25.925 107.605v8.788H10.074v-8.788z"/><path fill="#bfb6a5" d="M10.499 108.031h15v7.938h-15z"/><path fill="#b3afa4" d="M51.484 106.046v11.906h-18.97v-11.906z"/><path fill="#2b2a28" d="M49.925 107.605v8.788H34.074v-8.788z"/><path fill="#bfb6a5" d="M34.499 108.031h15v7.938h-15z"/><path fill="#b3afa4" d="M75.484 106.046v11.906h-18.97v-11.906z"/><path fill="#2b2a28" d="M73.925 107.606v8.788H58.074v-8.788z"/><path fill="#bfb6a5" d="M58.5 108.031h15v7.938h-15z"/><path fill="#b3afa4" d="M99.484 106.047v11.906h-18.97v-11.906z"/><path fill="#2b2a28" d="M97.925 107.606v8.788H82.074v-8.788z"/><path fill="#bfb6a5" d="M82.5 108.031h15v7.938h-15z"/><path fill="#b3afa4" d="M123.484 106.047v11.906h-18.97v-11.906z"/><path fill="#2b2a28" d="M121.925 107.606v8.788h-15.851v-8.788z"/><path fill="#bfb6a5" d="M106.5 108.031h15v7.938h-15z"/><g><path fill="#b3afa4" d="M147.484 106.047v11.906h-18.97v-11.906z"/><path fill="#2b2a28" d="M145.925 107.606v8.788h-15.851v-8.788z"/><path fill="#bfb6a5" d="M130.5 108.031h15v7.938h-15z"/></g><g><path fill="#b3afa4" d="M171.484 106.047v11.906h-18.97v-11.906z"/><path fill="#2b2a28" d="M169.925 107.606v8.788h-15.851v-8.788z"/><path fill="#bfb6a5" d="M154.5 108.031h15v7.938h-15z"/></g><g><path fill="#b3afa4" d="M195.484 106.047v11.906h-18.969v-11.906z"/><path fill="#2b2a28" d="M193.925 107.606v8.788h-15.85v-8.788z"/><path fill="#bfb6a5" d="M178.5 108.031h15v7.938h-15z"/></g><g><path fill="#b3afa4" d="M219.484 106.047v11.906h-18.969v-11.906z"/><path fill="#2b2a28" d="M217.925 107.606v8.788h-15.85v-8.788z"/><path fill="#bfb6a5" d="M202.5 108.031h15v7.938h-15z"/></g><g><path fill="#b3afa4" d="M243.484 106.047v11.906h-18.969v-11.906z"/><path fill="#2b2a28" d="M241.925 107.606v8.788h-15.85v-8.788z"/><path fill="#bfb6a5" d="M226.5 108.031h15v7.938h-15z"/></g><g><path fill="#b3afa4" d="M267.484 106.047v11.906h-18.969v-11.906z"/><path fill="#2b2a28" d="M265.925 107.606v8.788h-15.85v-8.788z"/><path fill="#bfb6a5" d="M250.5 108.031h15v7.938h-15z"/></g><g><path fill="#b3afa4" d="M291.484 106.047v11.906h-18.969v-11.906z"/><path fill="#2b2a28" d="M289.925 107.606v8.788h-15.85v-8.788z"/><path fill="#bfb6a5" d="M274.5 108.031h15v7.938h-15z"/></g><g><path fill="#b3afa4" d="M315.484 106.047v11.906h-18.969v-11.906z"/><path fill="#2b2a28" d="M313.925 107.606v8.788h-15.85v-8.788z"/><path fill="#bfb6a5" d="M298.501 108.031h15v7.938h-15z"/></g><g><path fill="#b3afa4" d="M339.485 106.046v11.906h-18.97v-11.906z"/><path fill="#2b2a28" d="M337.926 107.606v8.788h-15.851v-8.788z"/><path fill="#bfb6a5" d="M322.501 108.031h15v7.938h-15z"/></g></g><g><path fill="#b3afa4" d="M33.984 130.078v11.906h-18.97v-11.906z"/><path fill="#2b2a28" d="M32.425 131.637v8.788H16.574v-8.788z"/><path fill="#bfb6a5" d="M16.999 132.063h15V140h-15z"/><path fill="#b3afa4" d="M57.984 130.078v11.906h-18.97v-11.906z"/><path fill="#2b2a28" d="M56.425 131.637v8.788H40.574v-8.788z"/><path fill="#bfb6a5" d="M40.999 132.063h15V140h-15z"/><path fill="#b3afa4" d="M81.984 130.078v11.906h-18.97v-11.906z"/><path fill="#2b2a28" d="M80.425 131.638v8.788H64.574v-8.788z"/><path fill="#bfb6a5" d="M65 132.063h15V140H65z"/><path fill="#b3afa4" d="M105.984 130.079v11.906h-18.97v-11.906z"/><path fill="#2b2a28" d="M104.425 131.638v8.788H88.574v-8.788z"/><path fill="#bfb6a5" d="M89 132.063h15V140H89z"/><path fill="#b3afa4" d="M129.984 130.078v11.906h-18.969v-11.906z"/><path fill="#2b2a28" d="M128.425 131.637v8.788h-15.851v-8.788z"/><path fill="#bfb6a5" d="M113 132.063h15V140h-15z"/><g><path fill="#b3afa4" d="M153.984 130.078v11.906h-18.969v-11.906z"/><path fill="#2b2a28" d="M152.425 131.637v8.788h-15.85v-8.788z"/><path fill="#bfb6a5" d="M137 132.063h15V140h-15z"/></g><g><path fill="#b3afa4" d="M177.984 130.078v11.906h-18.969v-11.906z"/><path fill="#2b2a28" d="M176.425 131.637v8.788h-15.85v-8.788z"/><path fill="#bfb6a5" d="M161 132.063h15V140h-15z"/></g><g><path fill="#b3afa4" d="M201.984 130.078v11.906h-18.969v-11.906z"/><path fill="#2b2a28" d="M200.425 131.637v8.788h-15.85v-8.788z"/><path fill="#bfb6a5" d="M185 132.063h15V140h-15z"/></g><g><path fill="#b3afa4" d="M225.984 130.078v11.906h-18.969v-11.906z"/><path fill="#2b2a28" d="M224.425 131.637v8.788h-15.85v-8.788z"/><path fill="#bfb6a5" d="M209 132.063h15V140h-15z"/></g><g><path fill="#b3afa4" d="M249.984 130.078v11.906h-18.969v-11.906z"/><path fill="#2b2a28" d="M248.425 131.637v8.788h-15.85v-8.788z"/><path fill="#bfb6a5" d="M233 132.063h15V140h-15z"/></g><g><path fill="#b3afa4" d="M273.985 130.078v11.906h-18.97v-11.906z"/><path fill="#2b2a28" d="M272.426 131.637v8.788h-15.851v-8.788z"/><path fill="#bfb6a5" d="M257 132.063h15V140h-15z"/></g><g><path fill="#b3afa4" d="M297.985 130.078v11.906h-18.97v-11.906z"/><path fill="#2b2a28" d="M296.426 131.637v8.788h-15.851v-8.788z"/><path fill="#bfb6a5" d="M281 132.063h15V140h-15z"/></g><path fill="#b3afa4" d="M343.967 130.078v11.906h-40.951v-11.906z"/><path fill="#2b2a28" d="M342.408 131.638v8.787h-37.832v-8.787z"/><path fill="#bfb6a5" d="M305.001 132.063h36.982V140h-36.982z"/></g><g><path fill="#b3afa4" d="M44.484 154.109v11.906H25.515v-11.906z"/><path fill="#2b2a28" d="M42.925 155.668v8.788H27.074v-8.788z"/><path fill="#bfb6a5" d="M27.499 156.094h15v7.938h-15z"/><path fill="#b3afa4" d="M68.484 154.109v11.906H49.515v-11.906z"/><path fill="#2b2a28" d="M66.925 155.668v8.788H51.074v-8.788z"/><path fill="#bfb6a5" d="M51.499 156.094h15v7.938h-15z"/><path fill="#b3afa4" d="M92.484 154.109v11.906H73.515v-11.906z"/><path fill="#2b2a28" d="M90.925 155.669v8.788h-15.85v-8.788z"/><path fill="#bfb6a5" d="M75.5 156.094h15v7.938h-15z"/><path fill="#b3afa4" d="M116.484 154.11v11.906H97.515V154.11z"/><path fill="#2b2a28" d="M114.925 155.669v8.788h-15.85v-8.788z"/><path fill="#bfb6a5" d="M99.5 156.094h15v7.938h-15z"/><g><path fill="#b3afa4" d="M140.484 154.11v11.906h-18.969V154.11z"/><path fill="#2b2a28" d="M138.925 155.669v8.788h-15.85v-8.788z"/><path fill="#bfb6a5" d="M123.5 156.094h15v7.938h-15z"/></g><g><path fill="#b3afa4" d="M164.484 154.11v11.906h-18.969V154.11z"/><path fill="#2b2a28" d="M162.925 155.669v8.788h-15.85v-8.788z"/><path fill="#bfb6a5" d="M147.5 156.094h15v7.938h-15z"/></g><g><path fill="#b3afa4" d="M188.484 154.11v11.905h-18.969V154.11z"/><path fill="#2b2a28" d="M186.925 155.668v8.788h-15.85v-8.788z"/><path fill="#bfb6a5" d="M171.5 156.094h15v7.938h-15z"/></g><g><path fill="#b3afa4" d="M212.485 154.11v11.905h-18.97V154.11z"/><path fill="#2b2a28" d="M210.926 155.668v8.788h-15.851v-8.788z"/><path fill="#bfb6a5" d="M195.5 156.094h15v7.938h-15z"/></g><g><path fill="#b3afa4" d="M236.485 154.11v11.905h-18.97V154.11z"/><path fill="#2b2a28" d="M234.926 155.668v8.788h-15.851v-8.788z"/><path fill="#bfb6a5" d="M219.5 156.094h15v7.938h-15z"/></g><g><path fill="#b3afa4" d="M260.485 154.11v11.905h-18.97V154.11z"/><path fill="#2b2a28" d="M258.926 155.668v8.788h-15.851v-8.788z"/><path fill="#bfb6a5" d="M243.5 156.094h15v7.938h-15z"/></g><g><path fill="#b3afa4" d="M284.485 154.11v11.905h-18.97V154.11z"/><path fill="#2b2a28" d="M282.926 155.668v8.788h-15.851v-8.788z"/><path fill="#bfb6a5" d="M267.5 156.094h15v7.938h-15z"/></g><g><path fill="#b3afa4" d="M308.485 154.11v11.905h-18.97V154.11z"/><path fill="#2b2a28" d="M306.926 155.668v8.788h-15.851v-8.788z"/><path fill="#bfb6a5" d="M291.5 156.094h15v7.938h-15z"/></g></g><g><path fill="#b3afa4" d="M93.484 178.14v11.906H74.515V178.14z"/><path fill="#2b2a28" d="M91.925 179.7v8.788h-15.85V179.7z"/><path fill="#bfb6a5" d="M76.5 180.125h15v7.938h-15z"/><path fill="#b3afa4" d="M117.484 178.141v11.906H98.515v-11.906z"/><path fill="#2b2a28" d="M115.925 179.7v8.788h-15.85V179.7z"/><path fill="#bfb6a5" d="M100.5 180.125h15v7.938h-15z"/><g><path fill="#b3afa4" d="M237.485 178.14v11.907h-114.97V178.14z"/><path fill="#2b2a28" d="M235.925 179.7v8.787h-111.85V179.7z"/><path fill="#bfb6a5" d="M124.5 180.125h111v7.938h-111z"/></g><g><path fill="#b3afa4" d="M261.485 178.14v11.906h-18.969V178.14z"/><path fill="#2b2a28" d="M259.926 179.7v8.787h-15.851V179.7z"/><path fill="#bfb6a5" d="M244.5 180.125h15v7.938h-15z"/></g><g><path fill="#b3afa4" d="M285.485 178.14v11.906h-18.969V178.14z"/><path fill="#2b2a28" d="M283.926 179.7v8.787h-15.85V179.7z"/><path fill="#bfb6a5" d="M268.5 180.125h15v7.938h-15z"/></g></g><path d="M327.441 26.667h-50.083a2.465 2.465 0 0 1-2.458-2.458V12.792a2.465 2.465 0 0 1 2.458-2.458h50.083a2.465 2.465 0 0 1 2.458 2.458v11.417a2.466 2.466 0 0 1-2.458 2.458z" fill="#0c0a0b"/><g fill="#bab7b2"><path d="M282.771 18.506c0-1.256.448-2.278 1.343-3.068.896-.79 1.954-1.185 3.178-1.185 1.19 0 2.229.393 3.116 1.179s1.331 1.794 1.331 3.025c0 1.272-.438 2.305-1.313 3.098-.875.794-1.932 1.191-3.172 1.191-1.247 0-2.307-.381-3.177-1.142-.871-.761-1.307-1.79-1.307-3.086v-.012zm2.102 0c0 .753.192 1.438.577 2.053s.994.923 1.828.923c.745 0 1.311-.279 1.695-.838s.602-1.174.65-1.847a.899.899 0 0 0 .012-.146v-.146c0-.057-.002-.114-.006-.17s-.006-.113-.006-.17c-.058-.656-.273-1.26-.65-1.811s-.938-.826-1.683-.826c-.843 0-1.456.31-1.841.93s-.577 1.306-.577 2.059v-.011zM295.189 21.313c0 .203.034.358.103.468.069.109.205.172.407.188v.571h-3.062v-.583c.187-.008.317-.069.395-.183a.785.785 0 0 0 .115-.449v-5.65c0-.211-.034-.363-.103-.456-.069-.093-.205-.156-.407-.188v-.596h4.338c.016.008.03.012.042.012h.03c.673.008 1.29.181 1.854.517.563.336.864.885.905 1.646 0 .559-.164 1.035-.492 1.427-.328.393-.756.67-1.282.833l1.458 2.43c.024.048.047.089.066.122.021.032.043.065.067.097.073.105.151.194.237.267.085.073.204.134.358.182v.571h-2.309l-2.054-3.463h-.668v2.237zm.996-3.39c.381.008.729-.067 1.045-.225.315-.158.474-.464.474-.917s-.142-.766-.425-.936c-.284-.17-.628-.255-1.033-.255h-1.057v2.333h.996zM303.852 14.436v.583l-.146.024c-.129.024-.219.085-.267.182a1.04 1.04 0 0 0-.098.316v5.772c0 .203.034.358.104.468.068.109.204.172.407.188v.571h-3.063v-.583c.187-.008.318-.069.396-.183a.793.793 0 0 0 .115-.449v-5.65c0-.211-.034-.363-.104-.456-.068-.093-.204-.156-.407-.188v-.596h3.063zM312.393 22.54c-.187.049-.374.087-.564.115s-.383.051-.577.067a12.04 12.04 0 0 1-.766.025h-.268a2.98 2.98 0 0 1-.267-.012 8.768 8.768 0 0 1-1.914-.31 4.665 4.665 0 0 1-1.707-.881 4.316 4.316 0 0 1-1.16-1.47 4.112 4.112 0 0 1-.42-1.823c0-1.223.458-2.195 1.373-2.916.916-.721 1.944-1.082 3.087-1.082.696 0 1.336.127 1.919.383.584.255 1.094.658 1.531 1.209l-1.519 1.592-.547-.34a.828.828 0 0 0 .159-.4c0-.413-.154-.721-.462-.923s-.652-.304-1.033-.304c-.777 0-1.347.253-1.707.759s-.54 1.12-.54 1.841c0 .858.279 1.638.838 2.339s1.292 1.051 2.199 1.051a3.821 3.821 0 0 0 .426-.024c.274-.033.532-.114.771-.243.238-.129.402-.336.491-.62l.656-.012v1.979zM316.92 17.723v1.519h-3.859v-1.519h3.859zM317.399 16.477v-.851c.445-.082.839-.211 1.179-.387s.651-.444.936-.804l1.409-.012v6.45c0 .422.092.696.273.822.183.126.46.188.832.188v.656h-4.203v-.656a.107.107 0 0 0 .048.012h.049c.259-.024.496-.085.711-.183.215-.097.322-.304.322-.621V16.111a3.02 3.02 0 0 1-1.326.365.584.584 0 0 1-.115.012h-.115v-.011z"/></g><g><g fill="#78786e"><path d="M320.922 19.831h-1.968v1.243c0 .317-.107.524-.322.621a2.214 2.214 0 0 1-.711.183h-.049a.107.107 0 0 1-.048-.012v.656h4.203v-.656c-.372 0-.649-.063-.832-.188-.182-.125-.273-.399-.273-.822v-1.025zM298.619 19.831h-2.304l1.596 2.691h2.309v-.571a1.005 1.005 0 0 1-.358-.182 1.376 1.376 0 0 1-.237-.267 1.408 1.408 0 0 1-.133-.219l-.873-1.452zM295.189 19.831h-2.042v1.476a.785.785 0 0 1-.115.449c-.077.114-.208.174-.395.183v.583h3.062v-.571c-.202-.016-.338-.079-.407-.188-.068-.109-.103-.265-.103-.468v-1.464zM285.103 19.831c.09.246.205.483.348.71.385.616.994.923 1.828.923.745 0 1.311-.279 1.695-.838a3.84 3.84 0 0 0 .42-.795l2.142-.003a3.854 3.854 0 0 1-1.11 1.71c-.875.794-1.932 1.191-3.172 1.191-1.247 0-2.307-.381-3.177-1.142a3.654 3.654 0 0 1-1.126-1.752l2.152-.004zM301.3 19.827h2.041v1.468c0 .203.034.358.104.468.068.109.204.172.407.188v.571h-3.063v-.583c.187-.008.318-.069.396-.183a.793.793 0 0 0 .115-.449v-1.48zM307.47 19.828h-2.403a4.316 4.316 0 0 0 1.263 1.698c.51.413 1.079.707 1.707.881a8.828 8.828 0 0 0 1.914.31c.089.008.178.012.267.012h.268a12.04 12.04 0 0 0 .766-.025c.194-.016.387-.039.577-.067s.378-.066.564-.115v-1.98l-.656.012a1.02 1.02 0 0 1-.491.62c-.239.129-.497.21-.771.243a4.038 4.038 0 0 1-.426.024c-.907 0-1.641-.35-2.199-1.051a4.143 4.143 0 0 1-.38-.562z"/></g><g fill="#bab7b2"><path d="M320.922 17.133h-1.968v-1.039a3.02 3.02 0 0 1-1.326.365.584.584 0 0 1-.115.012h-.115v-.863c.445-.082.839-.211 1.179-.387s.651-.444.936-.804l1.409-.012v2.728zM285.111 17.133c.088-.239.202-.47.34-.692.385-.62.998-.93 1.841-.93.745 0 1.306.275 1.683.826.174.254.313.519.419.796h2.153a3.807 3.807 0 0 0-1.139-1.719 4.55 4.55 0 0 0-3.116-1.179c-1.224 0-2.282.395-3.178 1.185a3.832 3.832 0 0 0-1.141 1.713h2.138zM303.341 17.133H301.3v-1.476c0-.211-.034-.363-.104-.456-.068-.093-.204-.156-.407-.188v-.596h3.063V15l-.146.024c-.129.024-.219.085-.267.182a1.04 1.04 0 0 0-.098.316v1.611zM307.146 17.05c.09-.307.225-.587.405-.84.36-.506.93-.759 1.707-.759.381 0 .726.101 1.033.304s.462.51.462.923a.874.874 0 0 1-.159.4l.087.054h.733l1.246-1.306c-.438-.551-.947-.954-1.531-1.209a4.738 4.738 0 0 0-1.919-.383c-1.143 0-2.171.361-3.087 1.082-.621.49-1.032 1.095-1.231 1.816h2.231l.023-.082zM295.189 17.133v-1.561h1.057c.405 0 .749.085 1.033.255.283.17.425.482.425.936 0 .137-.014.261-.043.371h2.089c.038-.171.057-.351.057-.54-.041-.761-.343-1.311-.905-1.646a3.649 3.649 0 0 0-1.854-.517h-.03a.097.097 0 0 1-.042-.012h-4.338v.596c.202.032.338.095.407.188.068.093.103.245.103.456v1.476l2.041-.002z"/></g><g fill="#a09e91"><path d="M316.92 17.723v1.519h-3.859v-1.519h3.859zM311.415 17.133h-.733l.46.286zM285.103 19.835h-2.152a4.715 4.715 0 0 1-.181-1.335v-.012c0-.487.067-.939.202-1.355h2.138a3.918 3.918 0 0 0-.238 1.367v-.012c.001.475.231 1.347.231 1.347zM289.394 19.831c.127-.333.204-.684.231-1.051a.899.899 0 0 0 .012-.146v-.146c0-.057-.002-.114-.006-.17s-.006-.113-.006-.17a3.758 3.758 0 0 0-.231-1.015h2.153c.128.403.192.839.192 1.307 0 .5-.068.963-.203 1.388l-2.142.003zM301.3 17.133h2.041v2.695H301.3zM318.954 17.133h1.968v2.698h-1.968zM307.123 17.133h-2.231a4.127 4.127 0 0 0-.142 1.1c0 .556.105 1.088.317 1.595v.004h2.403v-.004a3.59 3.59 0 0 1-.459-1.777c0-.329.037-.635.112-.918zM299.748 17.133a2.046 2.046 0 0 1-.435.887c-.328.393-.756.67-1.282.833l.587.979h-2.304l-.458-.772h-.668v.772h-2.042v-2.698h2.042v.772h.996c.381.008.729-.067 1.045-.225a.807.807 0 0 0 .43-.547l2.089-.001z"/></g></g><g><path d="M39.319 101.381c0-.841.242-1.543.727-2.108.234-.271.521-.486.859-.647s.722-.241 1.148-.238c.831 0 1.495.289 1.992.866.497.578.746 1.286.746 2.124 0 .653-.147 1.229-.441 1.729a2.11 2.11 0 0 1-.367.461l.734.644-.488.543-.832-.728a2.554 2.554 0 0 1-1.285.342c-.466 0-.868-.078-1.207-.234-.675-.315-1.141-.847-1.398-1.595a3.543 3.543 0 0 1-.188-1.159zm3.977 1.585c.331-.396.496-.907.496-1.534s-.145-1.155-.434-1.585c-.289-.429-.723-.644-1.301-.644-.581 0-1.017.216-1.309.647-.292.433-.437.943-.434 1.534s.147 1.1.434 1.526.722.64 1.305.64c.239 0 .453-.046.641-.137l-.574-.503.48-.551.696.607z" fill="#c3c1c4"/><g fill="#c3c1c4"><path d="M13.61 101.165h2.568v.54h-1.943v.935h1.799v.511h-1.799v1.045h1.98v.539H13.61v-3.57zM17.171 103.545c0 .261.084.453.252.576.167.126.381.188.641.188s.452-.052.575-.154a.476.476 0 0 0 .188-.374c.001-.146-.029-.25-.091-.315a.519.519 0 0 0-.246-.143 33.75 33.75 0 0 1-.403-.112l-.551-.151a1.636 1.636 0 0 1-.45-.183.851.851 0 0 1-.407-.758c0-.328.129-.584.388-.766.26-.183.573-.273.941-.273.369 0 .686.1.951.3.264.2.396.48.396.84h-.625c-.029-.42-.286-.63-.771-.63-.279 0-.477.081-.593.242-.042.063-.063.148-.063.257s.039.199.117.271a.752.752 0 0 0 .304.166c.391.098.734.188 1.031.272a.973.973 0 0 1 .515.353c.119.163.18.347.182.549.003.372-.146.659-.444.859-.261.174-.597.261-1.008.261s-.747-.103-1.01-.306c-.289-.223-.438-.546-.444-.97h.625zM21.481 104.31c.293 0 .517-.087.671-.261.154-.175.247-.399.276-.674h.625c-.027.434-.181.781-.462 1.042-.281.269-.639.403-1.074.403-.52 0-.935-.18-1.245-.537-.31-.358-.464-.801-.464-1.328s.152-.968.456-1.321a1.62 1.62 0 0 1 1.212-.553c.447 0 .812.108 1.091.326.28.219.44.517.48.895h-.639c-.087-.338-.27-.557-.547-.66a1.247 1.247 0 0 0-.389-.051.896.896 0 0 0-.449.115.983.983 0 0 0-.337.307c-.174.256-.259.568-.254.938 0 .17.021.337.062.501.089.352.266.6.529.745.14.074.293.113.458.113z"/></g><path d="M63.062 98.523h1.016l1.035 4.367h.016l1.152-4.367h1.026l1.117 4.366h.02l1.063-4.366h1.016l-1.574 5.711h-1.022l-1.142-4.367-.032-.005-1.17 4.372h-1.016l-1.505-5.711zM88.125 98.523h4.109v.863h-3.109v1.496h2.879v.816h-2.879v1.672h3.168v.863h-4.168v-5.71zM116.7 102.73c0 .773.104 1.274.313 1.504h-1.071c-.075-.122-.119-.258-.132-.406s-.02-.323-.02-.523c0-.489-.079-.851-.238-1.082s-.458-.345-.898-.34h-1.469v2.352h-1v-5.711h2.72c.629 0 1.1.136 1.414.406s.472.645.472 1.121-.133.852-.397 1.125c-.105.109-.21.188-.313.234s-.178.079-.224.098v.016c.365.044.618.261.758.648.057.148.085.335.085.558zm-1.879-1.609c.651 0 .977-.304.977-.91 0-.489-.206-.77-.617-.84a2.173 2.173 0 0 0-.375-.031h-1.621v1.781h1.636zM135.637 98.523h4.625v.863h-1.816v4.848h-1v-4.848h-1.809v-.863zM162.839 104.234h-1v-2.238l-2.145-3.473h1.16l1.512 2.559 1.488-2.559h1.117l-2.133 3.473v2.238zM183.951 98.523h1v3.328c0 .192.009.388.027.586.039.419.227.726.563.918.183.102.435.152.758.152.573 0 .957-.181 1.152-.543.089-.156.142-.333.16-.531s.027-.392.027-.582v-3.328h1v3.656c0 .703-.214 1.251-.641 1.645-.406.364-.972.547-1.695.547-.727 0-1.301-.188-1.723-.563s-.632-.918-.629-1.629v-3.656zM209.534 98.523h1v5.711h-1v-5.711zM234.055 98.387c.831 0 1.495.289 1.992.867s.746 1.288.746 2.129c0 .844-.247 1.552-.742 2.125-.495.57-1.159.856-1.992.859s-1.499-.282-1.996-.855c-.495-.573-.742-1.281-.742-2.125s.242-1.548.727-2.113c.234-.271.521-.487.859-.648s.721-.242 1.148-.239zm-1.305 4.527c.286.427.722.641 1.305.641s1.019-.215 1.305-.645c.289-.43.434-.94.434-1.531s-.145-1.102-.434-1.531-.723-.645-1.301-.645c-.581 0-1.017.216-1.309.648s-.437.944-.434 1.535.148 1.101.434 1.528zM255.208 98.523h2.52c.731 0 1.259.204 1.582.613.239.308.359.692.359 1.156s-.12.844-.359 1.141c-.317.406-.845.609-1.582.609h-1.52v2.191h-1v-5.71zm1 2.704h1.461c.435 0 .738-.164.91-.492.06-.12.09-.272.09-.457-.003-.344-.091-.586-.266-.727s-.413-.211-.715-.211h-1.48v1.887zM54.75 79.813h-3.822c.01-.858.42-1.565 1.23-2.12.182-.132.372-.261.57-.386.732-.464 1.106-.947 1.119-1.452 0-.266-.047-.463-.141-.593-.097-.131-.205-.229-.325-.297s-.275-.102-.466-.102-.346.036-.466.109c-.321.194-.49.624-.509 1.289h-.91c0-.638.169-1.157.506-1.559s.812-.602 1.422-.602 1.082.197 1.414.591c.257.315.385.692.385 1.131 0 .575-.262 1.084-.784 1.526-.244.21-.503.401-.775.573-.271.172-.476.309-.611.41-.311.231-.499.452-.567.663h2.73v.819zM27.256 75.637c.656 0 1.132-.165 1.426-.494a.865.865 0 0 0 .203-.432h.746v5.602h-1V76.36h-1.375v-.723zM78.59 75.581c0 .607-.264 1.004-.789 1.189v.017c.318.065.568.226.747.48.179.258.269.544.269.858-.003.57-.197 1.013-.585 1.327-.388.315-.854.473-1.401.473-.934 0-1.544-.384-1.83-1.152a2.483 2.483 0 0 1-.137-.801h.91c-.008.341.077.625.254.852.178.227.433.34.764.34s.601-.086.807-.258c.205-.172.309-.419.309-.742 0-.391-.155-.661-.466-.813-.219-.106-.553-.153-1.002-.141v-.723c.556.019.935-.126 1.136-.433.07-.114.105-.271.105-.471 0-.2-.081-.37-.243-.509a.817.817 0 0 0-.556-.213c-.509-.003-.827.238-.955.724a1.421 1.421 0 0 0-.047.417h-.91c.021-.544.195-.997.522-1.359.328-.362.771-.543 1.331-.543.463 0 .874.128 1.233.383.356.258.534.624.534 1.098zM102.293 78.484h-.672v1.328h-.91v-1.328h-2.355v-.902l2.355-3.371h.91v3.551h.672v.722zm-1.582-.722v-2.465h-.02l-1.68 2.465h1.7zM123.586 76.469c.249-.284.609-.426 1.083-.426a1.7 1.7 0 0 1 .676.141c.43.185.727.515.891.988.078.229.117.466.117.711 0 .536-.151.995-.453 1.375-.356.445-.832.668-1.426.668s-1.073-.147-1.438-.441-.558-.716-.578-1.266h.91c.026.308.13.542.313.703s.422.242.719.242c.683 0 1.03-.41 1.043-1.23 0-.526-.196-.884-.59-1.074a1.051 1.051 0 0 0-.477-.094c-.477 0-.777.171-.902.512h-.914l.602-3.066h2.895v.816h-2.215l-.27 1.43.014.011zM148.602 76.129c.528 0 .952.178 1.27.532.32.355.48.808.48 1.358 0 .547-.172 1.001-.516 1.363s-.793.543-1.348.543c-1.102 0-1.753-.594-1.953-1.781-.128-.758-.116-1.495.035-2.211s.481-1.239.992-1.57c.269-.175.614-.262 1.039-.262s.8.144 1.125.43c.328.286.501.652.52 1.098h-.91a.873.873 0 0 0-.246-.552.697.697 0 0 0-.516-.214c-.477-.003-.806.225-.988.683a2.994 2.994 0 0 0-.176.705c-.023.229-.04.405-.051.53l.016.016c.122-.226.292-.393.508-.503s.456-.165.719-.165zm.571 2.703c.172-.222.262-.5.27-.836 0-.508-.185-.856-.555-1.047a.904.904 0 0 0-.43-.098c-.31 0-.556.108-.738.324-.18.216-.27.488-.27.816s.089.605.266.832.422.34.734.34c.309.001.551-.109.723-.331zM170.624 74.211h3.832v.762c-.933 1.047-1.555 2.185-1.867 3.414a8.152 8.152 0 0 0-.223 1.426h-1c.091-1.281.542-2.526 1.352-3.734.25-.372.52-.723.809-1.051h-2.902v-.817zM194.256 78.164c0-.357.092-.658.275-.902s.432-.407.744-.489v-.017a1.273 1.273 0 0 1-.622-.442 1.174 1.174 0 0 1-.214-.703c0-.471.159-.84.477-1.107.32-.268.76-.401 1.318-.401s.996.133 1.313.397.475.636.475 1.111c0 .27-.071.504-.213.703a1.245 1.245 0 0 1-.619.442v.017c.313.081.561.243.744.484.184.239.275.516.275.831-.003.585-.188 1.037-.558 1.357-.37.32-.844.48-1.421.48-.575 0-1.049-.157-1.421-.473-.368-.316-.553-.746-.553-1.288zm1.211.766c.204.183.458.273.764.273s.56-.091.764-.273c.203-.183.305-.433.305-.75 0-.323-.102-.57-.305-.742-.204-.172-.458-.258-.764-.258s-.56.087-.764.262c-.203.175-.304.421-.301.738-.003.317.098.567.301.75zm.764-4.106a.945.945 0 0 0-.622.213c-.173.142-.259.344-.259.607s.084.466.251.607a.96.96 0 0 0 .63.205.966.966 0 0 0 .634-.205c.165-.137.247-.337.247-.6 0-.264-.085-.469-.255-.615a.962.962 0 0 0-.626-.212zM219.054 78.953c.141.141.333.211.578.211s.438-.065.582-.195c.146-.13.259-.293.34-.488s.136-.403.164-.625c.028-.221.052-.424.07-.609l-.02-.02c-.122.221-.29.388-.504.503s-.45.173-.711.173c-.521.003-.944-.17-1.271-.516-.327-.348-.489-.802-.486-1.365s.173-1.023.512-1.38c.339-.36.812-.54 1.418-.54 1.06 0 1.69.594 1.891 1.781.128.766.116 1.504-.035 2.215s-.483 1.231-.996 1.563c-.269.177-.612.266-1.031.266s-.794-.145-1.125-.434-.507-.653-.527-1.094h.91c.019.229.1.414.241.554zm-.344-2.947c0 .512.181.871.543 1.076a.923.923 0 0 0 .438.098c.328-.003.579-.117.754-.343.172-.227.258-.501.258-.823 0-.319-.089-.592-.266-.815s-.426-.335-.746-.335-.563.11-.73.331c-.168.221-.251.492-.251.811zM245.746 74.941c.433.563.648 1.251.648 2.066s-.247 1.508-.742 2.078-1.16.858-1.996.863c-.706 0-1.297-.219-1.773-.656l-.609.68-.336-.289.633-.719c-.433-.552-.648-1.234-.648-2.047s.242-1.501.727-2.066c.234-.271.521-.487.859-.648s.722-.241 1.148-.238c.708 0 1.301.216 1.777.648l.598-.672.348.285-.634.715zm-.906.344c-.292-.336-.687-.504-1.184-.504-.578 0-1.013.216-1.305.648s-.437.923-.434 1.473.101.997.293 1.344l2.63-2.961zm-1.184 3.848c.583 0 1.019-.215 1.305-.645.289-.43.434-.921.434-1.473s-.099-1.001-.297-1.348l-2.625 2.961c.312.337.707.505 1.183.505zM268.591 77.207h2.328v.863h-2.328v-.863zM295.883 77.054h-4.031v-.816h4.031v.816zm0 1.617h-4.031v-.816h4.031v.816zM316.918 79.616h-.871l-2.297-5.984h.871l2.297 5.984zM46.922 122.222h1.063l2.199 5.711h-1.07l-.535-1.512h-2.281l-.535 1.512h-1.031l2.19-5.711zm-.351 3.437h1.742l-.855-2.453h-.023l-.864 2.453z" fill="#c3c1c4"/><g fill="#c3c1c4"><path d="M18.863 128.008c.293 0 .517-.087.671-.261.154-.175.247-.399.276-.674h.625c-.027.434-.181.781-.462 1.042-.281.269-.639.403-1.074.403-.52 0-.935-.18-1.245-.537-.31-.358-.464-.801-.464-1.328s.152-.968.456-1.321a1.62 1.62 0 0 1 1.212-.553c.447 0 .812.108 1.091.326.28.219.44.517.48.895h-.639c-.087-.338-.27-.557-.547-.66a1.247 1.247 0 0 0-.389-.051.896.896 0 0 0-.449.115.983.983 0 0 0-.337.307c-.174.256-.259.568-.254.938 0 .17.021.337.062.501.089.352.266.6.529.745a.959.959 0 0 0 .458.113zM20.647 124.863h2.891v.54h-1.135v3.029h-.625v-3.029h-1.131v-.54zM26.775 127.493c0 .482.065.796.195.939h-.669c-.048-.076-.075-.161-.083-.254s-.012-.202-.012-.327c0-.306-.05-.531-.149-.677-.1-.145-.286-.215-.562-.212h-.918v1.47h-.625v-3.569h1.7c.393 0 .688.085.884.254s.295.403.295.7c0 .299-.083.533-.249.703-.065.068-.131.117-.195.146l-.14.062v.01c.229.027.387.163.474.405.036.093.054.21.054.35zm-1.174-1.006c.406 0 .609-.19.609-.569 0-.306-.128-.481-.385-.524a1.274 1.274 0 0 0-.234-.02h-1.014v1.113h1.024zM27.47 124.863h.625v3.03h1.814v.539H27.47v-3.569z"/></g><path d="M70.056 126.03c0 .417.134.724.402.922.268.2.609.301 1.025.301s.723-.082.92-.246a.767.767 0 0 0 .301-.6c.003-.231-.046-.4-.145-.504a.811.811 0 0 0-.395-.229 247.123 247.123 0 0 1-1.526-.422c-.319-.088-.56-.186-.721-.292-.435-.281-.652-.685-.652-1.211s.207-.935.622-1.227c.414-.292.916-.438 1.505-.438.591 0 1.098.16 1.522.48.421.32.632.769.632 1.344h-1c-.047-.672-.458-1.008-1.232-1.008-.447 0-.763.129-.947.388-.067.1-.102.237-.102.411s.063.318.189.435c.123.116.285.204.485.265.625.156 1.175.302 1.648.437.358.114.633.302.824.563.19.262.287.555.29.878.005.597-.231 1.055-.711 1.376-.416.277-.953.416-1.611.416s-1.196-.163-1.615-.488c-.464-.356-.7-.874-.711-1.551h1.003zM93.896 122.222h2.367c.849 0 1.488.278 1.918.836.401.508.602 1.181.602 2.02s-.2 1.512-.602 2.02c-.44.558-1.079.836-1.918.836h-2.367v-5.712zm1 4.894h.984c.719 0 1.231-.195 1.539-.586.242-.317.363-.804.363-1.457s-.121-1.137-.363-1.449c-.297-.391-.81-.586-1.539-.586h-.984v4.078zM117.955 122.222h3.941v.863h-2.941v1.496h2.582v.816h-2.582v2.535h-1v-5.71zM146.935 127.933h-.641l-.15-.672c-.268.305-.535.516-.8.633-.266.117-.593.176-.98.176a2.624 2.624 0 0 1-1.09-.238c-.677-.317-1.143-.849-1.397-1.594a3.516 3.516 0 0 1-.188-1.156c0-.841.242-1.544.726-2.109.234-.271.521-.487.859-.648a2.395 2.395 0 0 1 1.062-.238c1.074 0 1.829.368 2.264 1.105.144.245.233.527.27.848h-1c-.049-.356-.211-.636-.484-.836s-.581-.301-.922-.301c-.611 0-1.06.215-1.344.645-.286.43-.43.94-.43 1.531s.145 1.102.434 1.531.723.645 1.301.645c.503.011.892-.122 1.168-.398s.421-.665.434-1.168h-1.523v-.762h2.434v3.006zM166.098 122.222h1v2.273h2.598v-2.273h1v5.711h-1v-2.574h-2.598v2.574h-1v-5.711zM192.866 126.093c0 .602-.108 1.055-.324 1.359-.286.411-.805.617-1.555.617-.57 0-.999-.167-1.285-.5-.284-.333-.423-.777-.418-1.332v-.305h1v.297c0 .328.055.581.164.758s.315.266.617.266c.45 0 .707-.211.77-.633a3.18 3.18 0 0 0 .031-.473v-3.926h1v3.872zM214.222 122.222h1v2.598l2.543-2.598h1.23l-2.277 2.277 2.438 3.434h-1.246l-1.871-2.727-.816.805v1.922h-1v-5.711zM237.396 122.222h1v4.848h2.902v.863h-3.902v-5.711zM260.92 123.886h1.113v1.078h-1.113v-1.078zm0 2.968h1.113v1.078c-.005.331-.106.608-.305.832s-.456.368-.773.434v-.488c.177-.044.31-.142.398-.293s.129-.313.121-.484h-.555v-1.079zM58.043 146.602h4.344v.758l-3.328 4.09h3.406v.863h-4.68v-.816l3.328-4.031h-3.07v-.864z" fill="#c3c1c4"/><g fill="#c3c1c4"><path d="M29.608 151.623c0 .261.084.453.252.576.167.126.381.188.641.188s.452-.052.575-.154a.476.476 0 0 0 .188-.374c.001-.146-.029-.25-.091-.315a.519.519 0 0 0-.246-.143 33.75 33.75 0 0 1-.403-.112l-.551-.151a1.636 1.636 0 0 1-.45-.183.851.851 0 0 1-.407-.758c0-.328.129-.584.388-.766.26-.183.573-.273.941-.273.369 0 .686.1.951.3.264.2.396.48.396.84h-.625c-.029-.42-.286-.63-.771-.63-.279 0-.477.081-.593.242-.042.063-.063.148-.063.257s.039.199.117.271a.752.752 0 0 0 .304.166c.391.098.734.188 1.031.272a.973.973 0 0 1 .515.353c.119.163.18.347.182.549.003.372-.146.659-.444.859-.261.174-.597.261-1.008.261s-.747-.103-1.01-.306c-.289-.223-.438-.546-.444-.97h.625zM32.422 149.243h.625v1.421h1.624v-1.421h.625v3.569h-.625v-1.609h-1.624v1.609h-.625v-3.569zM36.044 149.243h.625v3.569h-.625v-3.569zM37.433 149.243h2.463v.54h-1.838v.935h1.613v.511h-1.613v1.584h-.625v-3.57zM40.055 149.243h2.891v.54h-1.135v3.029h-.625v-3.029h-1.131v-.54z"/></g><path d="M81.715 146.602h1.191l1.297 2.016 1.352-2.016h1.117l-1.887 2.75 2.023 2.961h-1.215l-1.426-2.184-1.445 2.184h-1.145l2.023-2.961-1.885-2.75zM109.082 151.633c.469 0 .827-.14 1.074-.418s.395-.638.441-1.078h1c-.043.695-.289 1.251-.738 1.668-.449.43-1.022.645-1.719.645-.831 0-1.495-.286-1.992-.859-.495-.573-.742-1.281-.742-2.125s.243-1.548.729-2.113c.235-.271.523-.487.863-.648a2.441 2.441 0 0 1 1.075-.238c.717 0 1.299.175 1.746.523s.704.825.77 1.43h-1.023c-.138-.539-.43-.891-.875-1.055a1.915 1.915 0 0 0-.621-.082c-.261 0-.5.062-.719.184s-.398.286-.539.492c-.278.409-.414.909-.406 1.5 0 .271.032.538.098.801.144.563.426.96.848 1.191.223.12.467.182.73.182zM130.122 146.602h1.037l1.436 4.52.021.002 1.456-4.521h.907l-1.841 5.711h-1.202l-1.814-5.712zM158.497 150.719c0 .737-.384 1.227-1.152 1.469a3.215 3.215 0 0 1-.953.125h-2.621v-5.711h2.773c.513 0 .925.117 1.234.352.31.233.464.588.461 1.062 0 .58-.271.985-.813 1.217v.016c.349.076.614.243.797.501.183.257.274.58.274.969zm-3.727-1.731h1.629c.239 0 .44-.067.602-.203.159-.135.238-.339.238-.611s-.071-.466-.215-.58-.352-.173-.625-.176h-1.629v1.57zm0 2.508h1.766c.305 0 .542-.078.711-.234.167-.156.25-.378.25-.664s-.083-.505-.25-.656c-.169-.151-.406-.228-.711-.23h-1.766v1.784zM177.894 146.602h1.016l2.609 4.207h.016v-4.207h.91v5.711h-1.012l-2.605-4.199h-.023v4.199h-.91v-5.711zM201.588 146.602h1.367l1.576 4.473h.02l1.537-4.473h1.348v5.711h-.91v-4.406h-.016l-1.584 4.406h-.824l-1.588-4.406h-.016v4.406h-.91v-5.711zM227.062 151.234h1.113v1.078c-.005.331-.106.608-.305.832s-.456.368-.773.434v-.488c.177-.044.31-.142.398-.293s.129-.313.121-.484h-.555v-1.079zM250.152 151.234h1.113v1.078h-1.113v-1.078zM278.306 146.465h.871l-2.297 5.984h-.871l2.297-5.984z" fill="#c3c1c4"/><g fill="#c3c1c4"><path d="M293.045 151.123c0 .261.084.453.252.576.168.126.381.188.641.188s.453-.052.576-.154.186-.228.188-.374c.002-.146-.029-.25-.09-.315a.529.529 0 0 0-.246-.143 33.103 33.103 0 0 1-.404-.112l-.551-.151a1.614 1.614 0 0 1-.449-.183.852.852 0 0 1-.408-.758c0-.328.129-.584.389-.766.26-.183.572-.273.941-.273s.686.1.951.3c.264.2.395.48.395.84h-.625c-.029-.42-.285-.63-.77-.63-.279 0-.477.081-.594.242-.041.063-.063.148-.063.257s.039.199.117.271c.078.073.18.128.305.166.391.098.734.188 1.031.272a.975.975 0 0 1 .514.353c.119.163.18.347.182.549.004.372-.145.659-.443.859-.262.174-.598.261-1.008.261-.412 0-.748-.103-1.01-.306-.289-.223-.438-.546-.445-.97h.624zM295.859 148.743h.625v1.421h1.623v-1.421h.625v3.569h-.625v-1.609h-1.623v1.609h-.625v-3.569zM299.481 148.743h.625v3.569h-.625v-3.569zM300.871 148.743h2.463v.54h-1.838v.935h1.613v.511h-1.613v1.584h-.625v-3.57zM303.492 148.743h2.891v.54h-1.135v3.029h-.625v-3.029h-1.131v-.54z"/></g><path d="M57.607 70.717c.309 0 .536.146.684.436l.097-.345.419-.001-.435 1.579a.979.979 0 0 0-.053.291c0 .082.042.123.127.123a.465.465 0 0 0 .267-.1c.198-.141.342-.368.433-.683.047-.158.07-.339.07-.542a1.337 1.337 0 0 0-.472-1.025c-.303-.258-.693-.387-1.172-.387-.477 0-.876.173-1.198.519s-.483.79-.483 1.333c0 .545.167.99.501 1.336.334.348.759.521 1.274.521.264 0 .514-.053.75-.158s.437-.251.601-.437h.422c-.193.313-.448.555-.765.727s-.645.258-.984.258a2.401 2.401 0 0 1-.917-.173 2.14 2.14 0 0 1-1.187-1.207 2.385 2.385 0 0 1-.176-.914 2.078 2.078 0 0 1 .656-1.564c.199-.195.432-.35.697-.463s.541-.169.826-.167c.285 0 .548.043.788.129.494.176.854.482 1.081.92.109.217.164.464.164.741s-.051.529-.152.756c-.102.223-.226.408-.372.557s-.302.26-.466.334-.299.11-.404.108c-.105.002-.192-.026-.261-.085s-.106-.146-.114-.264h-.012c-.078.092-.178.172-.299.24s-.244.103-.369.103c-.248 0-.457-.092-.627-.275s-.255-.389-.255-.615c0-.225.032-.429.097-.612.139-.398.366-.685.683-.858.162-.091.341-.136.536-.136zm-.346 2.048c.238 0 .441-.123.609-.369a1.346 1.346 0 0 0 .234-.73.499.499 0 0 0-.138-.343c-.092-.104-.202-.155-.331-.155s-.244.034-.346.103-.188.153-.261.255-.128.214-.167.337-.059.253-.059.39c0 .139.042.259.126.36.09.101.201.152.333.152zM31.761 73.81h.806v.75h-.806v-.75zm.033-3.533h.75v1.236l-.199 1.852h-.355l-.196-1.852v-1.236zM83.086 72.8h-.573l-.176 1.26h-.479l.176-1.26h-.666l-.176 1.26h-.479l.176-1.26h-.563v-.451h.626l.108-.779h-.565v-.451h.629l.176-1.26h.479l-.176 1.26h.666l.176-1.26h.479l-.176 1.26h.516v.451h-.579l-.108.779h.51v.451zm-1.547-1.23l-.108.779h.666l.109-.779h-.667zM105.17 69.674v-.466h.258v.466c.6 0 1.003.218 1.21.653.07.148.105.32.105.516h-.683c-.008-.202-.061-.356-.158-.464-.098-.106-.256-.161-.475-.163v1.265c.452.123.779.262.982.416.292.218.438.533.438.945 0 .41-.133.728-.397.954-.266.229-.606.351-1.023.366v.469h-.258v-.469c-.437-.008-.79-.134-1.058-.378-.27-.244-.4-.586-.393-1.025h.683c-.008.563.248.85.768.861v-1.449c-.412-.113-.721-.246-.926-.398-.293-.219-.438-.521-.437-.905.002-.386.137-.681.404-.886s.589-.308.96-.308zm0 .542c-.217 0-.384.045-.501.135s-.176.231-.176.425c0 .192.071.342.214.447.096.074.25.139.463.193v-1.2zm.258 3.405c.217-.016.395-.078.533-.188s.207-.284.205-.523c0-.289-.155-.489-.466-.601a3.751 3.751 0 0 0-.272-.085v1.397zM128.171 72.165c-.344 0-.602-.118-.773-.354-.152-.205-.229-.485-.229-.841 0-.539.183-.905.548-1.099a1.01 1.01 0 0 1 .454-.094c.338.002.593.12.765.354.158.207.237.486.237.838 0 .551-.18.917-.539 1.099a1.034 1.034 0 0 1-.463.097zm-.463-1.196c0 .381.081.628.243.741.059.043.13.064.214.064.303 0 .459-.269.469-.806 0-.367-.08-.612-.24-.735a.35.35 0 0 0-.229-.067c-.305.001-.457.268-.457.803zm2.862-1.254h.457l-2.323 4.488h-.469l2.335-4.488zm.612 4.43c-.344 0-.602-.118-.773-.354-.152-.205-.229-.485-.229-.841 0-.545.183-.911.548-1.099a1.01 1.01 0 0 1 .454-.094c.336.002.587.112.753.331.166.221.249.508.249.861 0 .551-.18.917-.539 1.099a1.018 1.018 0 0 1-.463.097zm-.463-1.195c0 .381.081.628.243.741.059.043.13.064.214.064.23 0 .378-.163.442-.489.018-.098.026-.233.026-.407s-.025-.313-.076-.419a.65.65 0 0 0-.164-.226.35.35 0 0 0-.229-.067c-.303 0-.456.268-.456.803zM175.587 70.727c0-.307.102-.563.305-.767a1.01 1.01 0 0 1 .744-.286c.471 0 .797.197.979.593.061.132.091.285.091.46 0 .439-.258.798-.773 1.077l.665.795c.066-.193.11-.383.132-.569h.601c-.043.406-.155.753-.337 1.039l.823.991h-.841l-.39-.48a1.48 1.48 0 0 1-1.201.565c-.396 0-.722-.113-.976-.34-.252-.228-.376-.535-.372-.925 0-.491.327-.9.981-1.23a2.99 2.99 0 0 1-.325-.481.94.94 0 0 1-.106-.442zm.132 2.165c0 .23.065.406.196.528s.296.183.495.183c.301 0 .533-.108.697-.325l.111-.147-.841-1.036a6.487 6.487 0 0 1-.211.116c-.3.158-.449.385-.447.681zm1.254-2.536c-.08-.093-.186-.14-.316-.14s-.239.043-.325.128-.13.204-.132.356c0 .153.087.33.261.531.047.057.09.109.129.16.16-.11.271-.199.331-.265a.597.597 0 0 0 .173-.409.54.54 0 0 0-.121-.361zM200.867 70.635h.615v1.077l.98-.387.215.588-1.027.339.633.849-.479.352-.638-.884-.61.884-.505-.352.628-.849-.997-.339.197-.588.988.387v-1.077zM223.319 72.44c0-.957.287-1.879.861-2.766h.56c-.496.891-.743 1.828-.741 2.813s.249 1.891.741 2.719h-.56c-.272-.439-.463-.813-.569-1.119-.109-.307-.185-.585-.228-.835s-.064-.521-.064-.812zM248.809 72.417c0-.982-.246-1.896-.738-2.742h.557c.27.432.458.804.565 1.116s.185.595.231.847.069.521.067.809c0 .965-.288 1.885-.864 2.76h-.557a5.612 5.612 0 0 0 .739-2.79zM271.024 73.828a1.348 1.348 0 0 1-.886.335c-.145 0-.271-.011-.378-.032l-.29-.059c-.256-.078-.451-.117-.584-.117-.27 0-.486.067-.652.202l-.316-.485a1.55 1.55 0 0 0 .586-.695 1.034 1.034 0 0 0-.064-.829h-.554v-.39h.381c-.189-.23-.284-.522-.284-.877 0-.164.04-.324.12-.479.157-.301.413-.515.766-.64.168-.059.34-.088.515-.088.461 0 .826.123 1.096.369s.407.617.413 1.113h-.683c-.037-.607-.307-.911-.809-.911a.66.66 0 0 0-.472.179c-.131.12-.196.295-.196.523 0 .142.03.283.09.424.061.14.122.269.184.386h.887v.39h-.74a.795.795 0 0 1 .093.372 1.004 1.004 0 0 1-.154.563c-.104.15-.252.301-.446.451l.012.012c.092-.035.181-.071.269-.106a.867.867 0 0 1 .31-.056c.118 0 .245.006.381.017l.438.143c.1.032.127.049.082.049a.85.85 0 0 0 .581-.229l.304.465zM293.531 70.608h.612v1.21h1.204v.612h-1.204v1.213h-.612V72.43h-1.207v-.612h1.207v-1.21zM153.672 73.969l-1.024-2.532-1.024 2.532-.927-.375 1.604-3.969h.675l.144.313 1.478 3.656zM317.983 68.917h.958v2.25h-.958zM317.983 71.979h.958v2.25h-.958zM230.053 149.225l-5.083-2.246v-.723l5.083-2.251v1.021l-3.74 1.592 3.74 1.587v1.02zM248.64 148.203l3.74-1.587-3.74-1.592v-1.021l5.083 2.251v.723l-5.083 2.246v-1.02zM273.719 145.39c0-.443.127-.798.382-1.063.254-.268.581-.401.981-.401.399 0 .723.108.969.325.248.217.371.506.369.868-.002.361-.114.643-.337.844-.064.059-.132.118-.202.179s-.138.12-.202.179a.917.917 0 0 0-.17.202c-.098.152-.146.361-.146.626h-.683c0-.341.037-.592.11-.752.073-.162.199-.317.377-.465.067-.057.15-.123.249-.199a.67.67 0 0 0 .251-.551c0-.231-.062-.402-.184-.512s-.25-.167-.382-.173c-.24 0-.418.081-.53.242-.113.162-.17.379-.17.651h-.682zm.955 2.171h.75v.75h-.75v-.75z" fill="#c3c1c4"/><g fill="#c3c1c4"><path d="M324.882 101.165h1.479c.53 0 .931.174 1.198.522.251.317.377.738.377 1.262s-.126.945-.377 1.263c-.274.349-.674.522-1.198.522h-1.479v-3.569zm.625 3.06h.615c.449 0 .77-.123.962-.367.151-.198.228-.502.228-.91s-.076-.711-.228-.906c-.186-.244-.506-.365-.962-.365h-.615v2.548zM328.49 101.165h2.568v.54h-1.943v.935h1.799v.511h-1.799v1.045h1.98v.539h-2.605v-3.57zM331.64 101.165h.625v3.03h1.814v.539h-2.439v-3.569z"/></g><g fill="#c3c1c4"><path d="M316.703 127.493c0 .482.065.796.195.939h-.669c-.048-.076-.075-.161-.083-.254s-.012-.202-.012-.327c0-.306-.05-.531-.149-.677-.1-.145-.286-.215-.562-.212h-.918v1.47h-.625v-3.569h1.7c.393 0 .688.085.884.254s.295.403.295.7c0 .299-.083.533-.249.703-.065.068-.131.117-.195.146l-.14.062v.01c.229.027.387.163.474.405.037.093.054.21.054.35zm-1.174-1.006c.406 0 .609-.19.609-.569 0-.306-.128-.481-.385-.524a1.274 1.274 0 0 0-.234-.02h-1.014v1.113h1.024zM317.399 124.863h2.568v.54h-1.943v.935h1.799v.511h-1.799v1.045h1.98v.539h-2.605v-3.57zM320.207 124.863h2.891v.54h-1.135v3.029h-.625v-3.029h-1.131v-.54zM323.471 124.863h.625v2.08c0 .12.005.242.017.366.024.262.142.453.352.574.114.063.271.095.474.095.358 0 .598-.113.721-.339a.837.837 0 0 0 .1-.332c.012-.124.018-.245.018-.364v-2.08h.625v2.285c0 .439-.134.782-.4 1.028-.254.228-.607.342-1.061.342s-.813-.117-1.076-.352-.395-.574-.393-1.019v-2.284zM329.943 127.493c0 .482.065.796.195.939h-.669c-.048-.076-.075-.161-.083-.254s-.012-.202-.012-.327c0-.306-.05-.531-.149-.677-.1-.145-.286-.215-.562-.212h-.918v1.47h-.625v-3.569h1.7c.393 0 .688.085.884.254s.295.403.295.7c0 .299-.083.533-.249.703-.065.068-.131.117-.195.146l-.14.062v.01c.229.027.387.163.474.405.037.093.054.21.054.35zm-1.173-1.006c.406 0 .609-.19.609-.569 0-.306-.128-.481-.385-.524a1.274 1.274 0 0 0-.234-.02h-1.014v1.113h1.024zM330.611 124.863h.636l1.63 2.63h.01v-2.63h.569v3.569h-.633l-1.628-2.625h-.015v2.625h-.569v-3.569z"/></g><path d="M266.363 122.025h.835v.809h-.835v-.809zm0 2.227h.835v.809h-.835v-.809zM284.078 123h1.185v3.25h-1.185zM287.908 119.281h1.185v3.25h-1.185zM289.703 119.281h1.185v3.25h-1.185zM278.673 97.387h1.785v.723h-.875v5.93h.875v.723h-1.785v-7.376zM282.777 98.632c.275 0 .483-.099.626-.297a.443.443 0 0 0 .081-.288V96.4c0-.329.116-.594.348-.795s.457-.302.676-.302h.73v.723h-.42c-.171.003-.284.056-.338.16a.816.816 0 0 0-.086.401v1.557a.75.75 0 0 1-.34.653 1.12 1.12 0 0 1-.533.188v.016c.366.029.623.172.771.43a.894.894 0 0 1 .103.457v1.508c0 .262.065.432.197.51a.439.439 0 0 0 .227.051h.42v.723h-.73c-.222 0-.446-.1-.676-.298-.231-.198-.348-.465-.348-.799v-1.581c0-.229-.081-.394-.243-.494a.872.872 0 0 0-.464-.152v-.724zM304.277 104.762h-1.785v-.723h.875v-5.93h-.875v-.723h1.785v7.376zM306.359 101.956c.284 0 .426-.187.426-.561V99.84c0-.281.114-.498.342-.652.138-.091.315-.153.535-.188v-.016c-.223-.016-.391-.063-.506-.141-.253-.172-.376-.421-.371-.747v-1.51c.003-.169-.016-.288-.056-.358-.074-.133-.197-.2-.37-.203h-.418v-.723h.73c.224 0 .45.098.68.294s.344.464.344.803v1.584c0 .234.079.4.238.499a.873.873 0 0 0 .465.148v.723a.719.719 0 0 0-.389.09c-.215.124-.319.289-.314.494v1.644c0 .332-.114.598-.344.799-.229.198-.456.298-.68.298h-.73v-.723h.418zM83.635 175.172l-6.521-1.986 6.521-1.986zM83.635 172.242h7.25v1.888h-7.25zM110.074 169.71l-1.986 6.52-1.986-6.52zM107.144 169.71v-2.47h1.888v2.47z" fill="#c3c1c4"/><g><path fill="#c3c1c4" d="M275.91 175.089l6.52-1.986-6.52-1.986zM275.91 174.047h-7.25v-1.888h7.25z"/></g><g><path fill="#c3c1c4" d="M249.471 173.677l1.986-6.521 1.986 6.521zM252.4 173.677v2.47h-1.887v-2.47z"/></g></g></svg>