<svg id="Layer_1" data-name="Layer 1" xmlns="http://www.w3.org/2000/svg" viewBox="0 0 105 105"><title>icon_empty</title><polygon points="92.319 81.805 92.319 74.124 84.639 74.124 84.639 66.444 76.959 66.444 76.959 58.763 69.278 58.763 69.278 51.237 76.959 51.237 76.959 43.556 84.639 43.556 84.639 35.876 92.319 35.876 92.319 28.041 84.485 28.041 84.485 31.958 84.485 35.722 76.805 35.722 76.805 39.639 76.805 43.402 69.278 43.402 69.278 35.722 61.598 35.722 61.444 35.722 53.917 35.722 53.917 28.041 46.083 28.041 46.083 31.958 46.083 35.722 38.556 35.722 38.402 35.722 30.722 35.722 30.722 39.639 30.722 43.402 23.195 43.402 23.195 35.722 15.515 35.722 15.515 28.041 7.68 28.041 7.68 31.958 7.68 35.876 15.361 35.876 15.361 39.639 15.361 43.556 23.041 43.556 23.041 47.319 23.041 51.237 30.722 51.237 30.722 55 30.722 58.763 23.041 58.763 23.041 62.68 23.041 66.444 15.361 66.444 15.361 70.361 15.361 74.124 7.68 74.124 7.68 78.041 7.68 81.805 7.68 81.805 0 81.805 0 85.722 0 89.485 0 89.639 0 93.402 0 97.166 0 97.319 0 101.083 0 105 7.68 105 7.68 105 15.361 105 15.515 105 23.195 105 23.195 97.319 23.195 97.166 23.195 89.639 30.876 89.639 30.876 81.959 30.876 81.805 30.876 74.278 38.402 74.278 38.402 78.041 38.402 81.805 38.402 81.959 38.402 85.722 38.402 89.485 38.402 89.639 38.402 93.402 38.402 97.319 46.083 97.319 46.083 101.083 46.083 105 53.917 105 53.917 97.319 61.598 97.319 61.598 89.639 61.598 89.485 61.598 81.959 61.598 81.805 61.598 74.278 69.124 74.278 69.124 78.041 69.124 81.805 69.124 81.959 69.124 85.722 69.124 89.639 76.805 89.639 76.805 93.402 76.805 97.166 76.805 97.319 76.805 101.083 76.805 105 84.485 105 84.639 105 92.166 105 92.319 105 100 105 100 97.319 100 97.166 100 89.639 100 89.485 100 81.805 92.319 81.805" fill="#fff"/></svg>