<svg xmlns="http://www.w3.org/2000/svg" viewBox="0 0 400.00001 492.50449">
  <path fill="#fbb040" d="M286.46812 492.5045h-29.98201c-2.23866 0-3.9976-1.8389-3.9976-3.9976v-31.58105c0-2.23866 1.83889-3.9976 3.9976-3.9976h29.98201c2.23866 0 3.9976 1.83889 3.9976 3.9976v31.58105c0 2.23866-1.75894 3.9976-3.9976 3.9976z"/>
  <path fill="#aa1c41" d="M48.930642 489.30642c-8.714772 0-15.75055-6.95583-15.990406-15.59065l-3.997602-47.25165V15.99041C28.942634 7.19569 36.138317 0 44.93304 0h312.61243c8.79473 0 15.99041 7.19569 15.99041 15.99041v411.03338l-3.9976 46.69198c-.23986 8.63482-7.27564 15.59065-15.99041 15.59065H48.930642z"/>
  <path fill="#c0a987" d="M353.54787 475.71457H48.930642c-4.397362 0-7.995203-3.59784-7.995203-7.9952l-3.997602-47.1717V10.39377c0-4.39737 3.597842-7.99521 7.995203-7.99521h312.61243c4.39736 0 7.99521 3.59784 7.99521 7.99521v410.71357l-3.99761 46.61203c0 4.39736-3.59784 7.9952-7.9952 7.9952z"/>
  <path fill="#fff" d="M36.937837 419.42835H365.54068v2.39856H36.937837zm209.874073-3.27804H155.6666c-2.87827 0-5.19688-2.31861-5.19688-5.19688V257.44554c0-2.87828 2.31861-5.19689 5.19688-5.19689h91.14531c2.87828 0 5.19688 2.31861 5.19688 5.19689v153.50789c0 2.87827-2.3186 5.19688-5.19688 5.19688zm-91.14531-161.5031c-1.51909 0-2.79832 1.27924-2.79832 2.79833v153.50789c0 1.51909 1.27923 2.79832 2.79832 2.79832h91.14531c1.51909 0 2.79832-1.27923 2.79832-2.79832V257.44554c0-1.51909-1.27923-2.79833-2.79832-2.79833H155.6666z"/>
  <path fill="#fff" d="M204.51729 253.44793h2.39856v94.3434h-2.39856zm-7.9952 0h2.39856v94.3434h-2.39856zM134.95902 73.39597c-.63961 0-1.19928-.55967-1.19928-1.19929V3.19808c0-.63961.55967-1.19928 1.19928-1.19928.63962 0 1.19929.55967 1.19929 1.19928v68.9986c0 .71957-.47972 1.19929-1.19929 1.19929zm11.35319 0c-.63961 0-1.19928-.55967-1.19928-1.19929V3.19808c0-.63961.55967-1.19928 1.19928-1.19928.63962 0 1.19928.55967 1.19928 1.19928v68.9986c0 .71957-.47971 1.19929-1.19928 1.19929zm11.35319 0c-.63962 0-1.19928-.55967-1.19928-1.19929V3.19808c0-.63961.55966-1.19928 1.19928-1.19928.63962 0 1.19928.55967 1.19928 1.19928v68.9986c0 .71957-.47971 1.19929-1.19928 1.19929zm11.35319 0c-.63962 0-1.19928-.55967-1.19928-1.19929V3.19808c0-.63961.55966-1.19928 1.19928-1.19928.63962 0 1.19928.55967 1.19928 1.19928v68.9986c0 .71957-.55966 1.19929-1.19928 1.19929zm11.35319 0c-.63962 0-1.19928-.55967-1.19928-1.19929V3.19808c0-.63961.55966-1.19928 1.19928-1.19928.63961 0 1.19928.55967 1.19928 1.19928v68.9986c0 .71957-.55967 1.19929-1.19928 1.19929zm11.35319 0c-.63962 0-1.19929-.55967-1.19929-1.19929V3.19808c0-.63961.55967-1.19928 1.19929-1.19928.63961 0 1.19928.55967 1.19928 1.19928v68.9986c0 .71957-.55967 1.19929-1.19928 1.19929zm11.35318 0c-.63961 0-1.19928-.55967-1.19928-1.19929V3.19808c0-.63961.55967-1.19928 1.19928-1.19928.63962 0 1.19928.55967 1.19928 1.19928v68.9986c0 .71957-.55966 1.19929-1.19928 1.19929zm11.35319 0c-.63962 0-1.19928-.55967-1.19928-1.19929V3.19808c0-.63961.55966-1.19928 1.19928-1.19928.63962 0 1.19928.55967 1.19928 1.19928v68.9986c0 .71957-.55966 1.19929-1.19928 1.19929zm11.35319 0c-.63962 0-1.19928-.55967-1.19928-1.19929V3.19808c0-.63961.55966-1.19928 1.19928-1.19928.63962 0 1.19928.55967 1.19928 1.19928v68.9986c0 .71957-.55966 1.19929-1.19928 1.19929zm11.35319 0c-.63962 0-1.19928-.55967-1.19928-1.19929V3.19808c0-.63961.55966-1.19928 1.19928-1.19928.63961 0 1.19928.55967 1.19928 1.19928v68.9986c0 .71957-.55967 1.19929-1.19928 1.19929zm11.35319 0c-.63962 0-1.19928-.55967-1.19928-1.19929V3.19808c0-.63961.55966-1.19928 1.19928-1.19928.63961 0 1.19928.55967 1.19928 1.19928v68.9986c0 .71957-.55967 1.19929-1.19928 1.19929zm11.35318 0c-.63961 0-1.19928-.55967-1.19928-1.19929V3.19808c0-.63961.55967-1.19928 1.19928-1.19928.63962 0 1.19928.55967 1.19928 1.19928v68.9986c0 .71957-.55966 1.19929-1.19928 1.19929zm11.35319 0c-.63961 0-1.19928-.55967-1.19928-1.19929V3.19808c0-.63961.55967-1.19928 1.19928-1.19928.63962 0 1.19928.55967 1.19928 1.19928v68.9986c0 .71957-.55966 1.19929-1.19928 1.19929zM33.419948 65.96043h78.352992v2.39856H33.419948zm263.042172 0h78.35299v2.39856h-78.35299z"/>
  <path fill="#aa1c41" d="M243.61383 378.97262h-84.74915c-2.23866 0-3.9976-1.8389-3.9976-3.9976V334.999c0-2.23865 1.8389-3.9976 3.9976-3.9976h84.74915c2.23866 0 3.9976 1.8389 3.9976 3.9976v39.97602c0 2.23865-1.83889 3.9976-3.9976 3.9976z"/>
  <path d="M394.0036 233.22007H400v62.04277h-5.9964zm0-105.85649H400v31.74096h-5.9964zm0-51.56905H400v31.74095h-5.9964zM0 85.30882h6.1563062v62.04277H0zm0 136.1583h6.1563062v31.74096H0zm0 51.56906h6.1563062v31.74096H0z"/>
  <path fill="#aa1c41" d="M302.45852 406.15631h-29.98201c-2.23865 0-3.9976-1.8389-3.9976-3.9976v-31.58105c0-2.23866 1.8389-3.99761 3.9976-3.99761h29.98201c2.23866 0 3.99761 1.8389 3.99761 3.99761v31.58105c0 2.23865-1.75895 3.9976-3.99761 3.9976zm-171.4971 0h-29.98201c-2.238654 0-3.997599-1.8389-3.997599-3.9976v-31.58105c0-2.23866 1.838897-3.99761 3.997599-3.99761h29.98201c2.23866 0 3.9976 1.8389 3.9976 3.99761v31.58105c0 2.23865-1.75894 3.9976-3.9976 3.9976zm216.67 50.60963H52.368579c-2.238657 0-3.997602-1.83889-3.997602-3.9976l-1.59904-15.43074c0-2.23866 1.838896-3.9976 3.997601-3.9976H349.23046c2.23866 0 3.9976 1.8389 3.9976 3.9976l-1.59904 15.43074c0 2.23866-1.75894 3.9976-3.9976 3.9976zm-15.9904-258.48491H68.358985c-2.238657 0-3.997602-1.83889-3.997602-3.9976v-57.00579l-1.59904-7.99521c0-2.23865 1.838896-3.9976 3.997601-3.9976H333.24006c2.23865 0 3.9976 1.8389 3.9976 3.9976l-1.59904 6.95583v58.04517c0 2.23866-1.75895 3.9976-3.9976 3.9976z"/>
  <path fill="#fff" d="M297.42155 116.57006H110.57366V2.39856h2.39856V114.1715h182.05077V2.39856h2.39856"/>
  <path fill="#aa1c41" d="M9.9940036 46.37218H52.368579c2.238657 0 3.997601 1.8389 3.997601 3.9976v279.8321c0 2.23866-1.838896 3.9976-3.997601 3.9976H9.9940036c-2.1587048 0-3.9976014-1.83889-3.9976014-3.9976V50.36978c0-2.1587 1.8388966-3.9976 3.9976014-3.9976zM347.63142 334.19948H390.006c2.23865 0 3.9976-1.83889 3.9976-3.9976V50.36978c0-2.23866-1.8389-3.9976-3.9976-3.9976h-42.37458c-2.23866 0-3.9976 1.8389-3.9976 3.9976v279.8321c0 2.23866 1.8389 3.9976 3.9976 3.9976z"/>
  <path fill="#fff" d="M138.95663 416.15031H61.163302c-2.878273 0-5.196882-2.31861-5.196882-5.19688v-49.57026c0-2.87827 2.318609-5.19688 5.196882-5.19688h77.793328c2.87827 0 5.19688 2.31861 5.19688 5.19688v49.57026c0 2.87827-2.31861 5.19688-5.19688 5.19688zm-77.793328-57.56546c-1.519089 0-2.798321 1.27923-2.798321 2.79832v49.57026c0 1.51909 1.279232 2.79832 2.798321 2.79832h77.793328c1.51908 0 2.79832-1.27923 2.79832-2.79832v-49.57026c0-1.51909-1.27924-2.79832-2.79832-2.79832H61.163302zm281.191288 57.56546h-77.79333c-2.87827 0-5.19688-2.31861-5.19688-5.19688v-49.57026c0-2.87827 2.31861-5.19688 5.19688-5.19688h77.79333c2.87827 0 5.19688 2.31861 5.19688 5.19688v49.57026c0 2.87827-2.31861 5.19688-5.19688 5.19688zm-77.87328-57.56546c-1.51909 0-2.79832 1.27923-2.79832 2.79832v49.57026c0 1.51909 1.27923 2.79832 2.79832 2.79832h77.79333c1.51908 0 2.79832-1.27923 2.79832-2.79832v-49.57026c0-1.51909-1.27924-2.79832-2.79832-2.79832h-77.79333zM56.36618 214.35139h287.26764v2.39856H56.36618z"/>
  <path fill="#59001d" d="M133.35998 389.60624H98.580851c-.879472 0-1.59904.71957-1.59904 1.59904v7.43554c0 .87947.719568 1.59904 1.59904 1.59904h34.779129c.87948 0 1.59904-.71957 1.59904-1.59904v-7.43554c0-.87947-.71956-1.59904-1.59904-1.59904zm112.65241-17.5095h-89.54627c-.87947 0-1.59904-.71956-1.59904-1.59904v-31.18129c0-.87947.71957-1.59904 1.59904-1.59904h89.54627c.87947 0 1.59904.71957 1.59904 1.59904v31.18129c0 .87948-.71957 1.59904-1.59904 1.59904zm85.62863-173.81571H68.358985c-2.238657 0-3.997602-1.83889-3.997602-3.9976 0-2.23865 1.838897-3.9976 3.997602-3.9976H331.64102c2.23865 0 3.9976 1.8389 3.9976 3.9976 0 2.23866-1.75895 3.9976-3.9976 3.9976zm1.59904-65.001H66.759944c-2.238657 0-3.997601-1.83889-3.997601-3.9976 0-2.23865 1.838896-3.9976 3.997601-3.9976H333.24006c2.23865 0 3.9976 1.8389 3.9976 3.9976 0 2.15871-1.75895 3.9976-3.9976 3.9976z"/>
  <g fill="#c0a987">
    <path d="M117.2096745 435.97841414h8.7947232v2.63841695h-5.67659405v3.1980811h5.67659405v2.718369h-5.67659405v5.676594h-3.11812914m18.7887269 0h-2.958225v-2.2386568h-5.8364981l-1.6789926 2.2386568h-3.5178893l11.5930442-14.1515092h2.4785129l-.079952 14.1515091zm-2.958225-4.8770738v-4.1575055l-3.5178893 4.1575055h3.5178893zm4.1575055-9.3543874h3.4379373l4.9570258 9.5942435 4.8770738-9.5942435h3.5178893v14.2314611h-3.0381771v-7.1956826l-3.8376974 7.1956826h-3.1181291l-3.6777933-7.1956826v7.1956826h-3.1181292m74.435339-14.2314612h3.5178893l4.8770738 9.5942434 4.9570258-9.59424347h3.43793728V450.209875H225.38477v-7.1956826l-3.8376974 7.1956826h-3.11812913l-3.67779334-7.1956826v7.1956826H211.633021m-56.6859886-14.2314611h3.19808117v14.1515091h-3.19808118zm4.0775535 0h3.19808117v11.5930442h4.23745754v2.63841693h-7.4355387m3.8376974-14.2314612h3.5978413l3.3579853 5.8364981 3.1980812-5.8364981h3.5978413l-5.35678592 9.03457924v5.1968819h-3.1181292v-5.1968819m25.82450534-5.1169299c-1.43913652-2.31860882-4.23745753-3.8376974-7.4355387-3.8376974-4.6372177 0-8.39496304 3.1980812-8.39496304 7.19568264 0 3.99760146 3.7577454 7.1956826 8.3949631 7.1956826 3.2780332 0 6.0763542-1.5990406 7.4355387-3.9176494h-3.8376974c-.95942436.7195683-2.1587048 1.19928045-3.5978413 1.19928045-2.87827306 0-5.2768339-1.99880075-5.2768339-4.47731364 0-2.4785129 2.3186088-4.4773136 5.2768339-4.4773136 1.3591845 0 2.5584649.4797122 3.51788925 1.19928044l3.9176494-.07995208z"/>
    <path d="M202.27863337 450.52968342c-4.63721768 0-8.47491507-3.2780332-8.47491507-7.19568262 0-3.99760144 3.75774536-7.1956826 8.47491507-7.1956826 4.63721768 0 8.47491507 3.27803318 8.47491507 7.1956826 0 3.91764943-3.8376974 7.19568262-8.47491507 7.19568262zm5.35678594-7.27563464c0-2.55846493-2.3985608-4.55726566-5.3567859-4.55726566s-5.3567859 2.07875276-5.3567859 4.55726566c0 2.55846492 2.3985609 4.55726565 5.356786 4.55726565s5.356786-1.99880073 5.356786-4.55726565zm27.423546-7.1956826c2.798321.15990404 5.0369779 2.2386568 5.0369779 4.63721767 0 2.4785129-2.2386568 4.47731362-5.0369778 4.63721768h-2.3985608v4.87707377h-3.1181291v-14.15150913h5.51669zm-2.3985608 2.71836897v3.8376974h2.3985609c1.0393764-.15990406 1.8388967-.95942435 1.8388967-1.9188487s-.7995203-1.75894464-1.8388966-1.9188487h-2.3985609zm41.4951031 11.5930442h-3.1181291V436.1383182h6.6360185c2.798321.15990405 5.0369778 2.2386568 5.0369778 4.63721768 0 1.99880072-1.4391365 3.67779333-3.5178893 4.3973616l3.5978413 5.19688188h-3.3579852l-5.0369778-7.35558667h-.3198081l.079952 7.3555866zm3.5978413-7.67539478c1.0393764-.15990405 1.8388967-.95942434 1.8388967-1.9188487 0-.95942434-.7995202-1.75894463-1.8388966-1.9188487h-3.5978413v3.8376974h3.5978413zm-33.6598042 1.51908855v2.07875276c.1599041.87947232 1.1193284 1.59904058 2.2386568 1.59904058s2.0787528-.71956826 2.2386568-1.59904058V436.1383182h3.1980812v10.15390768c-.2398561 2.39856087-2.5584649 4.31740956-5.4367379 4.31740956-2.87827303 0-5.1968819-1.9188487-5.436738-4.31740956V436.1383182h3.1980812v8.07515492zm10.873476 6.15630624h3.1181292v-11.51309218h2.79832105v-2.71836898h-8.63481914v2.71836898h2.71836894m15.27083754 11.51309218h-8.6348192V436.1383182h8.6348191v2.63841695h-5.51669v3.35798522h5.51669v2.63841696h-5.51669v2.95822507h5.51669m-221.7069764 6.0763542c-.079952-.3198081-.15990404-.63961623-.15990404-.95942434v-.39976015H294.543275v1.3591845H48.5308816zm303.178094 0v-1.3591845h-21.7469519v1.3591845h21.7469519z"/>
  </g>
  <g fill="#c0a987">
    <path d="M296.70197962 450.04997124h1.3591845l1.9188487 3.11812913v-3.11812913h1.35918448v4.47731362h-1.3591845l-1.9188487-3.11812913v3.11812913h-1.35918448v-4.47731362zm11.99280435.47971217h1.3591845v.6396163h.71956825v.4797122h-.71956826v2.9582251h-1.3591845v-2.958225h-.71956825v-.4797121h.7195683v-.6396162zm-6.6360184 1.0393764h1.3591845l-e-8 3.0381771h-1.3591845v-3.0381771zm0-1.5190885h1.3591845l-e-8.9594244h-1.3591845v-.9594243zm23.10613637 1.3591845c-1.03937637 0-1.9188487.7195683-1.9188487 1.6789926 0 .9594244.87947233 1.6789926 1.9188487 1.6789926 1.03937638 0 1.9188487-.7195682 1.9188487-1.6789926 0-.9594243-.7995203-1.6789926-1.9188487-1.6789926m.5596642 1.6789926v.6396163c0 .4797122-.23985608.6396163-.5596642.6396163-.23985608 0-.5596642-.159904-.5596642-.6396162v-1.2792324c0-.47971214.2398561-.6396162.5596642-.6396162.2398561 0 .5596642.1599041.5596642.6396163v.63961624zm-4.1575055 0v-.5596642c0-.4797121-.31980812-.5596642-.47971218-.5596642-.23985608 0-.47971217.0799521-.47971217.5596642v1.1193284c0 .4797122.3198081.5596642.4797121.5596642.2398561 0 .4797122-.079952.4797122-.5596642v-.5596642zm-.07995203-3.0381771h1.2792325v4.4773136h-1.2792324v-.159904c-.4797121.3198081-1.0393763.3198081-1.5190885.0799521-.079952-.079952-.8794723-.4797122-.8794723-1.5190885 0-.7995203.7195683-1.6789926 1.6789926-1.5990405.3198082 0 .5596642.15990407.7195683.2398561v-1.51908855zm-15.0309814 1.3591845c.4797122 0 1.5190886.3198081 1.5190886 1.5190886v1.5990406h-1.2792324v-1.9988007c0-.2398561-.2398561-.5596642-.6396162-.5596642-.3198081 0-.6396162.3198081-.6396162.5596642v1.9988007h-1.2792324v-3.0381771h1.2792325v.3198082c.2398561-.1599041.63961623-.3198081 1.0393764-.3997601m10.71357186 0c.4797122 0 1.51908856.3198081 1.51908856 1.51908857v1.5990406h-1.27923244v-1.9988007c0-.2398561-.2398561-.5596642-.6396162-.5596642-.31980812 0-.63961623.3198081-.63961623.5596642v1.9988007h-1.2792325v-3.0381771h1.27923247v.3198081c.2398561-.1599041.63961622-.31980813 1.03937636-.39976016"/>
    <path d="M313.01219353 453.56786052v.15990405c0 .5596642-.3198081.63961624-.5596642.63961624-.15990406 0-.5596642-.159904-.5596642-.6396162v-.6396162h2.4785129c0-.9594243-.87947232-1.6789926-1.9188487-1.6789926-1.03937638 0-1.9188487.7195683-1.9188487 1.6789926 0 .9594244.87947232 1.6789926 1.9188487 1.6789926.87947232 0 1.6789926-.5596642 1.83889667-1.1992804h-1.27923247zm-1.03937637-.95942435c0-.2398561 0-.39976015.07995203-.5596642.079952-.15990406.3198081-.2398561.4797121-.2398561s.3997601.07995204.4797121.2398561c.079952.15990405.079952.3198081.079952.5596642h-1.1193284zm15.4307416-2.07875276c.15990405 0 .23985608 0 .23985608-.159904s-.07995203-.159904-.23985608-.159904h-.2398561v.3198081h.2398561zm-.2398561.6396163h-.15990405v-1.0393764h.3997602c.2398561 0 .3198081.0799521.3198081.3198081 0 .1599041-.079952.2398561-.2398561.3198081l.3198081.4797122h-.159904l-.2398561-.4797122h-.159904v.3997602h-.079952z"/>
    <path d="M327.40355876 451.3292037c.39976014 0 .71956826-.3198081.71956826-.71956826 0-.39976014-.31980812-.71956826-.71956827-.71956826-.39976014 0-.71956826.31980812-.71956826.71956826 0 .47971218.3198081.71956827.7195682.71956827m-.8794723-.7195682c0-.4797121.3997601-.8794723.8794723-.8794723s.8794723.3997602.8794723.8794723c0 .4797122-.3997602.8794723-.8794723.8794723-.4797122 0-.8794724-.3198081-.8794724-.8794723"/>
  </g>
  <g fill="#c0a987" transform="scale(0.79952029,0.79952029)">
    <circle cx="93.900002" cy="547.70001" r="2.3"/>
    <path d="M90.5 547.2v-.3c0-.8-.7-1.5-1.5-1.5-.7 0-1.2.4-1.4 1l-4.8 14.7c-.1.2-.1.3-.1.5 0 .8.7 1.5 1.5 1.5.7 0 1.2-.4 1.4-1l4.9-14.9z"/>
    <circle cx="92.099998" cy="553.20001" r="2.3"/>
    <circle cx="104.2" cy="547.70001" r="2.3"/>
    <path d="M100.9 547.2v-.3c0-.8-.7-1.5-1.5-1.5-.7 0-1.2.4-1.4 1l-4.8 14.7c-.1.2-.1.3-.1.5 0 .8.7 1.5 1.5 1.5.7 0 1.2-.4 1.4-1l4.9-14.9z"/>
    <circle cx="102.4" cy="553.20001" r="2.3"/>
  </g>
</svg>
