<svg xmlns="http://www.w3.org/2000/svg" width="88.555855" height="200">
  <path fill="#59001d" d="M88.555858 189.10082V10.89918C88.555858 4.90463 83.651226 0 77.656676 0H10.899183C4.9046322 0 0 4.90463 0 10.89918v178.20164C0 195.09537 4.9046322 200 10.899183 200h66.757493c5.99455 0 10.899182-4.90463 10.899182-10.89918z"/>
  <path fill="#aa1c41" d="M84.196185 187.9564V13.3515c0-5.99455-4.904632-10.89918-10.899182-10.89918H11.444142C5.4495913 2.45232.54495913 7.35695.54495913 13.3515v173.297c0 5.99455 4.90463217 10.89918 10.89918287 10.89918h61.852861c5.99455 0 10.899182-5.83106 10.899182-9.59128z"/>
  <path fill="#c0a987" d="M46.757493 190.24523V81.90736c0-1.58038 1.525886-1.3624 1.525886-1.3624H74.00545c1.19891 0 2.179836-.98093 2.179836-2.17984v-67.9564c0-1.19891-.980926-2.17984-2.179836-2.17984H8.6103542c-1.1989101 0-2.1798365.98093-2.1798365 2.17984v179.78202c0 1.19891.9809264 2.17983 2.1798365 2.17983H44.577657c1.19891.0545 2.179836-.92643 2.179836-2.12534z"/>
  <path fill="#414042" d="M20.708447 8.17439h1.634877v184.14169h-1.634877zm-3.923706 0h1.634878v184.14169h-1.634878z"/>
  <path fill="#aa1c41" d="M13.351499 112.31608V76.34877c0-5.66757 4.632152-10.35422 10.354223-10.35422 5.667575 0 10.354224 4.63215 10.354224 10.35422v35.96731c0 5.66757-4.632153 10.35422-10.354224 10.35422-5.722071 0-10.354223-4.68665-10.354223-10.35422z"/>
  <circle cx="23.869209" cy="142.67029" r="11.553134" fill="#aa1c41"/>
  <circle cx="23.869209" cy="169.20981" r="11.716621" fill="#aa1c41"/>
  <circle cx="23.869209" cy="142.67029" r="10.081744" fill="#414042"/>
  <circle cx="23.869209" cy="169.20981" r="10.081744" fill="#414042"/>
  <path fill="#aa1c41" d="M40.653951 55.20436V45.3406h10.517711c.599455 0 1.089918-.49046 1.089918-1.08992V28.61035c0-.59945-.490463-1.08991-1.089918-1.08991H40.653951v-9.91826c0-.59946-.490463-1.08992-1.089918-1.08992H24.959128c-.599455 0-1.089918.49046-1.089918 1.08992v9.91826H13.351499c-.599455 0-1.089919.49046-1.089919 1.08991v15.64033c0 .59946.490464 1.08992 1.089919 1.08992H23.86921v9.91826c0 .59945.490463 1.08991 1.089918 1.08991h14.604905c.599455-.0545 1.089918-.54496 1.089918-1.14441z"/>
  <path fill="#414042" d="M37.929155 53.56948V42.6158h11.60763V30.24523h-11.60763V19.23706h-11.33515v11.00817H14.986376V42.6158h11.607629v10.95368m-5.231607 32.86104V75.91281c0-1.3624 1.089918-2.45232 2.452316-2.45232 1.362398 0 2.452316 1.08992 2.452316 2.45232v10.51771c0 1.3624-1.089918 2.45231-2.452316 2.45231-1.362398 0-2.452316-1.08991-2.452316-2.45231zm0 26.15804v-10.51772c0-1.36239 1.089918-2.45231 2.452316-2.45231 1.362398 0 2.452316 1.08992 2.452316 2.45231v10.51772c0 1.36239-1.089918 2.45231-2.452316 2.45231-1.362398 0-2.452316-1.08992-2.452316-2.45231zm19.019073 31.44414c.0545-.16349.0545-.49047.0545-.98093v-.92643h-1.253406v1.03542c0 .38147 0 .65395.0545.76295 0 .16348.108992.32697.163488.43596.0545.10899.217984.16349.381471.16349.163488 0 .27248-.0545.381472-.10899.108992-.0545.163487-.21798.217983-.38147zm.871935-.38147c0 .21798.0545.32697.163488.43596.108992.109.217983.16349.381471.16349s.27248-.0545.326976-.16349c.108991-.10899.163487-.21798.163487-.43596v-1.63488H41.19891v.76294c.0545.49046.0545.76294.0545.87194z"/>
  <path fill="#414042" d="M43.814714 145.77657v-6.04905c0-1.68937-1.416894-3.10627-3.106267-3.10627-1.689373 0-3.106267 1.4169-3.106267 3.10627v6.04905c0 1.68937 1.416894 3.10626 3.106267 3.10626 1.689373 0 3.106267-1.36239 3.106267-3.10626zm-4.632153-.27248c-.217983-.10899-.381471-.27248-.490463-.49047-.108992-.21798-.217984-.43596-.217984-.76294 0-.16349-.0545-.65395-.0545-1.3624v-1.90735h4.686648v2.23433c0 .43597 0 .76294-.0545.98093-.0545.21798-.108992.43596-.217984.59945-.108991.16349-.217983.32698-.381471.43597-.163488.10899-.326975.16349-.544959.16349-.217984 0-.435967-.0545-.599455-.21799-.163488-.16349-.326976-.32697-.435967-.59945-.108992.32697-.217984.59945-.435968.76294-.217983.16349-.435967.27248-.708447.27248-.163487.0545-.381471 0-.544959-.10899zm1.089919 23.21526v1.52588l1.743869-.76294"/>
  <path fill="#414042" d="M43.814714 172.20708v-5.99455c0-1.68937-1.416894-3.10626-3.106267-3.10626-1.689373 0-3.106267 1.36239-3.106267 3.10626v5.99455c0 1.68938 1.416894 3.10627 3.106267 3.10627 1.689373 0 3.106267-1.3624 3.106267-3.10627zm-5.395095-1.14441l1.089918-.49046v-2.17984l-1.089918-.43597v-1.19891l4.686648 2.17984v1.19891l-4.686648 2.23433v-1.3079zM74.386921 10.29973H60.599455v13.78746h13.787466V10.29973zm-11.008174 7.84741c-.0545.16349-.163488.43597-.217984.81744 0 .10899-.108992.16349-.27248.16349-.0545 0-.163487 0-.272479-.0545 0-.32698.0545-.65395.0545-.98093v-1.85286s-.0545-.65395-.0545-.92643c.108992 0 .163488-.0545.272479-.0545.163488 0 .217984.0545.27248.16348.0545.38147.163488.65395.217984.81744.108991.16349.217983.21799.435967.21799h7.847411c.217984 0 .326976-.0545.435968-.21799.108991-.16349.163487-.43597.217983-.81744 0-.0545.0545-.10899.108992-.10899.0545 0 .108992-.0545.163488-.0545.0545 0 .163488 0 .272479.0545 0 .32698-.0545.65395-.0545.98093v1.79836c0 .32698.0545.65395.0545.98093-.108991 0-.163487.0545-.272479.0545-.163488 0-.217984-.0545-.27248-.16349-.0545-.38147-.163487-.65395-.217983-.81744-.108992-.16349-.217984-.21798-.435968-.21798h-7.847411c-.217984 0-.326976.0545-.435967.21798z"/>
  <circle cx="32.261581" cy="36.403275" r="4.8501358" fill="#282829"/>
  <path d="M47.356948 36.45777l-3.32425-3.97821v.81744h-3.923706v6.32153h3.923706v.70845"/>
  <path fill="#282829" d="M47.356948 36.45777l-3.32425-3.97821v.81744h-3.923706v6.32153h3.923706v.70845M32.316076 21.3079l-3.978201 3.32425h.817438v3.9782h6.321526v-3.9782h.708447M17.166213 36.34877l3.32425 3.97821v-.81744h3.923706v-6.32153h-3.923706v-.70845m11.716621 19.01908l3.978202-3.32425h-.817439v-3.92371h-6.321525v3.92371h-.708447"/>
</svg>
