<svg xmlns="http://www.w3.org/2000/svg" viewBox="0 0 30 30"><path d="M12.07 24.475a4.066 4.066 0 0 1-.98-.673c-.445-.405-.834-.85-1.021-1.437a2.916 2.916 0 0 1 .101-2.078c.22-.522.455-1.038.68-1.558.019-.044.029-.113.009-.152-.27-.504-.383-1.048-.419-1.611a16.233 16.233 0 0 1 .068-2.823c.014-.125.031-.25.057-.373.017-.079-.006-.103-.082-.116-.622-.101-1.243-.206-1.865-.308a16.517 16.517 0 0 1-2.435-.569 41.86 41.86 0 0 0-1.093-.341.33.33 0 0 0-.213.008c-.165.07-.323.157-.471.259-.393.29-.831.447-1.315.472-.455.024-.908.011-1.338-.168-.805-.336-1.696-1.23-1.686-2.432.003-.433-.008-.87.208-1.257.511-.913 1.245-1.5 2.341-1.526.408-.01.819-.006 1.195.169.904.421 1.515 1.081 1.672 2.104.025.164.096.323.157.479.016.04.068.075.112.093.942.399 1.908.722 2.925.865.788.111 1.579.195 2.369.291l.035.003c.211.022.214.021.32-.18-.306-.061-.617-.108-.92-.185-.884-.223-1.665-.637-2.316-1.286-.37-.369-.723-.75-.966-1.217a.921.921 0 0 1-.1-.355c-.014-.23.147-.362.373-.315.397.083.789.189 1.188.261.336.06.677.11 1.018.12.504.014.872-.24.965-.804.093-.567-.193-1.232-.684-1.513-.283-.162-.593-.224-.913-.26-.698-.079-1.356.067-1.998.321-.11.044-.222.079-.337.106-.176.042-.265-.02-.278-.203a6.476 6.476 0 0 1-.012-.591c.002-.093-.026-.127-.118-.146-.501-.105-.998-.224-1.462-.452-.523-.257-.979-.597-1.28-1.103-.44-.738-.423-1.948.345-2.672.256-.241.511-.48.864-.55.627-.124 1.227-.063 1.751.346.341.267.678.541 1.009.819.09.076.138.065.212-.015C8.286 1.336 8.905.85 9.646.531a6.197 6.197 0 0 1 2.007-.502c.687-.051 1.372-.043 2.048.099.889.187 1.731.497 2.424 1.105a5.54 5.54 0 0 1 1.685 2.673c.271.93.313 1.877.219 2.835-.079.802-.301 1.562-.712 2.258-.602 1.02-1.467 1.737-2.565 2.175l-.209.082c-.006.002-.009.012-.018.025.14.109.264.211.471.215.659.011 1.316.012 1.973-.051a2.963 2.963 0 0 0 1.609-.647c.24-.192.47-.397.698-.602.165-.148.164-.2.092-.404-.511-1.447 0-2.884 1.445-3.552.927-.428 2.193-.322 3.042.547.504.517.745 1.123.761 1.837.011.52-.06 1.017-.342 1.462-.408.645-.948 1.126-1.719 1.288-.397.083-.798.064-1.2.027-.17-.016-.336-.108-.511-.042-.083.031-.173.061-.242.115-.393.309-.776.631-1.172.938-.648.502-1.392.756-2.205.82-.313.025-.626.052-.956.08l.161.258c.377.606.737 1.221 1.004 1.885.028.07.072.083.136.08.547-.028 1.094-.07 1.641-.079.622-.01 1.246-.009 1.867.022.807.04 1.567.295 2.323.559.238.083.383.028.505-.197.073-.134.13-.278.197-.416a5.918 5.918 0 0 1 1.577-2.012c.485-.4 1.034-.615 1.673-.604.508.009 1.003.058 1.443.331.439.272.8.629 1.021 1.104.171.367.133.757.07 1.139-.06.367-.221.7-.434 1a471.09 471.09 0 0 1-2.552 3.565c-.121.167-.28.311-.441.441a.69.69 0 0 1-.341.14 2.325 2.325 0 0 1-1.684-.482c-.256-.193-.426-.449-.619-.692-.225-.284-.433-.586-.686-.841-.553-.556-1.244-.848-2.015-.948a11.544 11.544 0 0 0-1.083-.092 4.015 4.015 0 0 0-2.274.601c-.199.12-.365.255-.509.451-.536.732-1.265 1.202-2.131 1.469-.622.191-1.258.193-1.898.173a.36.36 0 0 0-.187.046c-.242.147-.483.297-.716.457s-.366.396-.453.661c-.049.149-.001.288.049.426.169.47.471.828.894 1.094a8.638 8.638 0 0 0 2.052.921c.217.067.451.078.667.145.782.241 1.563 1.094 1.553 2.064-.003.302-.091.542-.314.73-.507.425-1.013.852-1.533 1.26-.555.435-1.117.863-1.693 1.269-.419.295-.876.537-1.379.659-.475.115-.961.154-1.439.024a1.226 1.226 0 0 1-.475-.249c-.466-.405-.822-.891-.886-1.526-.067-.661-.052-1.32.316-1.912.279-.448.673-.78 1.124-1.042.413-.243.831-.472 1.27-.719z" fill="#939292"/></svg>