<svg id="Layer_1" data-name="Layer 1" xmlns="http://www.w3.org/2000/svg" viewBox="0 0 1000 114"><title>logo</title><g id="Layer_3" data-name="Layer 3"><polygon points="429.33 39.01 429.33 48.01 461.02 48.01 461.02 43.51 468.33 43.51 468.33 50.01 492.68 50.01 492.68 43.51 498.5 43.51 498.5 17.68 495.33 17.68 495.33 12.68 492.68 12.68 492.68 10.84 468.33 10.84 468.33 12.68 391 12.68 391 22.68 395.5 22.68 395.5 51.01 414.83 51.01 414.83 22.68 434.83 22.68 434.83 39.01 429.33 39.01" fill="#fff"/><rect x="507.18" y="25.18" width="26.67" height="10.17" fill="#fff"/><polygon points="547.5 50.01 570.67 50.01 570.67 44.34 585.5 44.34 585.5 51.01 610.39 51.01 610.39 44.34 615.17 44.34 615.17 33.63 616.17 33.63 616.17 19.26 610.39 19.26 610.39 10.84 585.5 10.84 585.5 19.26 571.42 19.26 571.42 12.68 545.17 12.68 545.17 19.26 539.84 19.26 539.84 32.51 537.5 32.51 537.5 44.34 547.5 44.34 547.5 50.01" fill="#fff"/><polygon points="402.83 65.5 359.18 65.5 359.18 64.16 326.5 64.16 326.5 65.5 319.68 65.5 319.68 70.23 318 70.23 318 59.68 300.14 59.68 300.14 70.23 291.33 70.23 291.33 72.98 286.68 72.98 286.68 66.9 274 66.9 274 58.68 253.18 58.68 253.18 66.9 248.18 66.9 248.18 74.84 251.84 74.84 251.84 84.84 254.68 84.84 254.68 91.45 262.83 91.45 262.83 95.51 286 95.51 286 84.84 291.33 84.84 291.33 96.84 335.33 96.84 335.33 95.51 371 95.51 371 103.68 395.5 103.68 395.5 95.51 403.68 95.51 403.68 78.91 402.83 78.91 402.83 65.5" fill="#fff"/><polygon points="748.34 70.23 748.34 65.51 662.67 65.51 662.67 58.18 644.5 58.18 644.5 65.51 444.89 65.51 444.89 74.84 442.68 74.84 442.68 83.64 442 83.64 442 91.45 448.18 91.45 448.18 95.51 519.49 95.51 519.49 96.84 557.84 96.84 557.84 102.34 563.84 102.34 568.18 102.34 578.67 102.34 578.67 96.84 590.9 96.84 590.9 89.18 604.11 89.18 604.11 95.51 636.17 95.51 636.17 89.18 648.17 89.18 648.17 95.51 732.5 95.51 732.5 89.18 734.67 89.18 734.67 77.14 739.17 77.14 739.17 82.01 752.5 82.01 752.5 70.23 748.34 70.23" fill="#fff"/></g><rect x="279.04" y="72.98" width="21.11" height="16.22" fill="#fff"/><path d="M490.27,14.15v6.5h-13V40.13h13v6.5H470.78v-6.5H464.3V20.65h6.48v-6.5h19.49m0-7H470.78a7,7,0,0,0-7,6.52,7,7,0,0,0-6.5,7V40.13a7,7,0,0,0,6.5,7,7,7,0,0,0,7,6.52h19.49a7,7,0,0,0,7-7v-6.5a7,7,0,0,0-7-7h-6v-5.5h6a7,7,0,0,0,7-7v-6.5a7,7,0,0,0-7-7Z" fill="#fff"/><path d="M574.68,20.65v6.5h-6.49v-6.5h6.49m0-7h-6.49a7,7,0,0,0-7,7v6.5a7,7,0,0,0,7,7h6.49a7,7,0,0,0,7-7v-6.5a7,7,0,0,0-7-7Z" fill="#fff"/><path d="M613.65,20.65V40.13h-6.5V20.65h6.5m0-7h-6.5a7,7,0,0,0-7,7V40.13a7,7,0,0,0,7,7h6.5a7,7,0,0,0,7-7V20.65A7,7,0,0,0,613.65,13.65Z" fill="#fff"/><path d="M314.94,73.9v13h6.5v6.5h-26V86.9h6.49V80.39h-6.49V73.9h19.47m0-7H295.46a7,7,0,0,0-7,7v6.49a6.83,6.83,0,0,0,.8,3.25,6.79,6.79,0,0,0-.8,3.24v6.5a7,7,0,0,0,7,7h26a7,7,0,0,0,7-7h0v-6.5a7,7,0,0,0-6.5-7v-6a7,7,0,0,0-7-7Z" fill="#fff"/><path d="M269.48,60.91V67.4h13v6.5h-13v13h13v6.5H263V86.9h-6.49v-13H250V67.4h6.49V60.91h13m0-7h-13a7,7,0,0,0-7,6.51,7,7,0,0,0-6.5,7v6.5a7,7,0,0,0,6.48,7v6a7,7,0,0,0,6.52,7,7,7,0,0,0,7,6.51h19.47a7,7,0,0,0,7-7h0v-6.5a7,7,0,0,0-4.37-6.49A7,7,0,0,0,289.47,74V67.5a7,7,0,0,0-7-7h-6a7,7,0,0,0-7-6.49Z" fill="#fff"/><path d="M314.94,60.91V67.4h-13V60.91h13m0-7h-13a7,7,0,0,0-7,7V67.4a7,7,0,0,0,7,7h13a7,7,0,0,0,7-7V60.91A7,7,0,0,0,314.94,53.91Z" fill="#fff"/><path d="M496.76,33.63v6.5h-6.49v-6.5h6.49m0-7h-6.49a7,7,0,0,0-7,7v6.5a7,7,0,0,0,7,7h6.49a7,7,0,0,0,7-7v-6.5a7,7,0,0,0-7-7Z" fill="#fff"/><path d="M496.76,20.65v6.5h-6.49v-6.5h6.49m0-7h-6.49a7,7,0,0,0-7,7v6.5a7,7,0,0,0,7,7h6.49a7,7,0,0,0,7-7v-6.5a7,7,0,0,0-7-7Z" fill="#fff"/><path d="M574.68,33.63v6.5h-6.49v-6.5h6.49m0-7h-6.49a7,7,0,0,0-7,7v6.5a7,7,0,0,0,7,7h6.49a7,7,0,0,0,7-7v-6.5a7,7,0,0,0-7-7Z" fill="#fff"/><path d="M360.4,73.9V93.38h-6.5V73.9h6.5m0-7h-6.5a7,7,0,0,0-7,7V93.38a7,7,0,0,0,7,7h6.5a7,7,0,0,0,7-7h0V73.9A7,7,0,0,0,360.4,66.9Z" fill="#fff"/><path d="M607.15,14.15v6.5h-13V40.13h13v6.5H587.66v-6.5h-6.48V20.65h6.48v-6.5h19.48m0-7H587.66a7,7,0,0,0-7,6.52,7,7,0,0,0-6.51,7V40.13a7,7,0,0,0,6.51,7,7,7,0,0,0,7,6.52h19.48a7,7,0,0,0,7-7v-6.5a7,7,0,0,0-7-7h-6v-5.5h6a7,7,0,0,0,7-7v-6.5a7,7,0,0,0-7-7Z" fill="#fff"/><path d="M529.22,27.15v6.48H509.75V27.15h19.47m0-7H509.75a7,7,0,0,0-7,7v6.48a7,7,0,0,0,7,7h19.47a7,7,0,0,0,7-7V27.15A7,7,0,0,0,529.22,20.15Z" fill="#fff"/><path d="M568.19,14.15v6.5h-13v6.5h13v6.48h-13v6.5h13v6.5H548.71v-6.5h-6.49v-6.5h6.49V27.15h-6.49v-6.5h6.49v-6.5h19.48m0-7H548.71a7,7,0,0,0-7,6.52,7,7,0,0,0-6.5,7v6.5a6.79,6.79,0,0,0,.8,3.24,6.79,6.79,0,0,0-.8,3.24v6.5a7,7,0,0,0,6.5,7,7,7,0,0,0,7,6.52h19.48a7,7,0,0,0,7-7v-6.5a7.07,7.07,0,0,0-.8-3.25,7.07,7.07,0,0,0,.8-3.25V27.15a7.07,7.07,0,0,0-.8-3.25,7.07,7.07,0,0,0,.8-3.25v-6.5A7,7,0,0,0,568.19,7.15Z" fill="#fff"/><path d="M509.75,67.4v6.5h-13v13h13v6.5H490.27V86.9h-6.49v-13h6.49V67.4h19.48m0-7H490.27a7,7,0,0,0-7,6.52,7,7,0,0,0-6.5,7v13a7,7,0,0,0,6.5,7,7,7,0,0,0,7,6.51h19.48a7,7,0,0,0,7-7h0v-6.5a7,7,0,0,0-4.38-6.49A7,7,0,0,0,516.75,74V67.5a7,7,0,0,0-7-7Z" fill="#fff"/><path d="M633.13,67.4v26h-26V86.9h13V67.4h13m0-7h-13a7,7,0,0,0-7,7V79.88h-6a7,7,0,0,0-7,7v6.5a7,7,0,0,0,7,7h26a7,7,0,0,0,7-7h0v-26a7,7,0,0,0-7-7Z" fill="#fff"/><path d="M607.15,67.4V86.88h-6.49V67.4h6.49m0-7h-6.49a7,7,0,0,0-7,7V86.88a7,7,0,0,0,7,7h6.49a7,7,0,0,0,7-7V67.4A7,7,0,0,0,607.15,60.4Z" fill="#fff"/><path d="M659.1,60.91V67.4h13v6.5h-13v13h13v6.5H652.6V86.9h-6.5v-13h-6.48V67.4h6.48V60.91h13m0-7h-13a7,7,0,0,0-7,6.51,7,7,0,0,0-6.51,7v6.5a7,7,0,0,0,6.49,7v6a7,7,0,0,0,6.51,7,7,7,0,0,0,7,6.51h19.48a7,7,0,0,0,7-7h0v-6.5a7,7,0,0,0-4.38-6.49A7,7,0,0,0,679.08,74V67.5a7,7,0,0,0-7-7h-6a7,7,0,0,0-7-6.49Z" fill="#fff"/><path d="M594.16,73.9v13h-6.49v-13h6.49m0-7h-6.49a7,7,0,0,0-7,7v13a7,7,0,0,0,7,7h6.49a7,7,0,0,0,7-7h0v-13A7,7,0,0,0,594.16,66.9Z" fill="#fff"/><path d="M587.66,67.4v6.5h-13v13h13v6.5h-13v6.49h-13V67.4h26m0-7h-26a7,7,0,0,0-7,7V99.87a7,7,0,0,0,7,7h13a7,7,0,0,0,7-6.49h6a7,7,0,0,0,7-7v-6.5a7,7,0,0,0-4.38-6.49,7,7,0,0,0,4.38-6.49V67.4A7,7,0,0,0,587.66,60.4Z" fill="#fff"/><path d="M750,73.9v6.49h-6.5V73.9H750m0-7h-6.5a7,7,0,0,0-7,7v6.49a7,7,0,0,0,7,7H750a7,7,0,0,0,7-7V73.9A7,7,0,0,0,750,66.9Z" fill="#fff"/><path d="M743.51,67.4v6.5h-13V93.38h-13v-26h26m0-7h-26a7,7,0,0,0-7,7v26a7,7,0,0,0,7,7h13a7,7,0,0,0,7-7h0V80.9h6a7,7,0,0,0,7-7V67.4a7,7,0,0,0-7-7Z" fill="#fff"/><path d="M704.54,67.4v6.5H711v6.49H698V73.9h-6.49v6.49H698v6.49h6.49v6.5H685.07v-6.5h-6.49v-13h6.49v-6.5h19.47m0-7H685.07a7,7,0,0,0-7,6.52,7,7,0,0,0-6.51,7v13a7,7,0,0,0,6.51,7,7,7,0,0,0,7,6.51h19.47a7,7,0,0,0,7-7v-6a7,7,0,0,0,6.5-7V73.9a7,7,0,0,0-6.51-7,7,7,0,0,0-7-6.52Z" fill="#fff"/><path d="M373.38,67.4v13h-6.49v-13h6.49m0-7h-6.49a7,7,0,0,0-7,7v13a7,7,0,0,0,7,7h6.49a7,7,0,0,0,7-7v-13A7,7,0,0,0,373.38,60.4Z" fill="#fff"/><path d="M399.35,67.4v26h-6.5v6.49H373.38V93.38h13v-6.5h-13V80.39h13v-13h13m0-7h-13a7,7,0,0,0-7,7v6h-6a7,7,0,0,0-7,7v6.49a6.83,6.83,0,0,0,.8,3.25,6.83,6.83,0,0,0-.8,3.25v6.49a7,7,0,0,0,7,7h19.47a7,7,0,0,0,7-6.51,7,7,0,0,0,6.53-7v-26a7,7,0,0,0-7-7Z" fill="#fff"/><path d="M418.84,14.15v6.5h-6.5v26h-13v-26h-6.5v-6.5h26m0-7h-26a7,7,0,0,0-7,7v6.5a7,7,0,0,0,6.5,7v19a7,7,0,0,0,7,7h13a7,7,0,0,0,7-7v-19a7,7,0,0,0,6.5-7v-6.5a7,7,0,0,0-7-7Z" fill="#fff"/><path d="M353.9,67.4v6.5h-13V93.38h-13v-26h26m0-7h-26a7,7,0,0,0-7,7v26a7,7,0,0,0,7,7h13a7,7,0,0,0,7-7h0V80.9h6a7,7,0,0,0,7-7V67.4a7,7,0,0,0-7-7Z" fill="#fff"/><path d="M548.71,67.4v6.5h6.49V93.38h-6.49v-13h-6.49v13h-6.5v-13h-6.49v13h-6.49v-26h13v6.5h6.5v-6.5h6.49m0-7h-6.49a7,7,0,0,1-6.5,0h-13a7,7,0,0,0-7,7v26a7,7,0,0,0,7,7h6.49a7,7,0,0,1,6.49,0h6.5a7,7,0,0,1,6.49,0h6.49a7,7,0,0,0,7-7h0V73.9a7,7,0,0,0-6.51-7,7,7,0,0,0-7-6.52Z" fill="#fff"/><path d="M516.23,73.9v13h-6.48v-13h6.48m0-7h-6.48a7,7,0,0,0-7,7v13a7,7,0,0,0,7,7h6.48a7,7,0,0,0,7-7h0v-13A7,7,0,0,0,516.23,66.9Z" fill="#fff"/><path d="M457.79,14.15v6.5h-6.5V40.13h6.5v6.5h-26v-6.5h6.5V20.65h-6.5v-6.5h26m0-7h-26a7,7,0,0,0-7,7v6.5a7,7,0,0,0,6.5,7v5.52a7,7,0,0,0-6.5,7v6.5a7,7,0,0,0,7,7h26a7,7,0,0,0,7-7v-6.5a7,7,0,0,0-6.5-7V27.63a7,7,0,0,0,6.5-7v-6.5a7,7,0,0,0-7-7Z" fill="#fff"/><path d="M477.28,67.4v6.5h-13v13h13v6.5h-26V86.9H444.8v-13h6.48V67.4h26m0-7h-26a7,7,0,0,0-7,6.52,7,7,0,0,0-6.5,7v13a7,7,0,0,0,6.5,7,7,7,0,0,0,7,6.51h26a7,7,0,0,0,7-7h0v-6.5a7,7,0,0,0-4.38-6.49A7,7,0,0,0,484.28,74V67.5a7,7,0,0,0-7-7Z" fill="#fff"/><path d="M399.35,46.63v-26h-6.5v-6.5h26v6.5h-6.5v26Zm32.47,0v-6.5h6.5V20.65h-6.5v-6.5h26v6.5h-6.5V40.13h6.5v6.5Zm39,0v-6.5h-6.48V20.65h6.48v-6.5h19.49v6.5h-13V40.13h13v6.5Zm19.49-19.48v-6.5h6.48v6.5Zm0,13v-6.5h6.48v6.5Zm19.47-6.5v-6.5h19.48v6.48Zm39,13v-6.5h-6.49v-6.5h6.49v-6.5h-6.49v-6.5h6.49v-6.5h19.48v6.5h-13v6.5h13v6.48h-13v6.5h13v6.5Zm19.48-19.48v-6.5h6.49v6.5Zm0,13v-6.5h6.49v6.5Zm19.48,6.5v-6.5h-6.49V20.65h6.49v-6.5h19.48v6.5h-13V40.13h13v6.5Zm19.48-6.5V20.65h6.5V40.13ZM263,93.38v-6.5h-6.49v-13H250v-6.5h6.49V60.91h13V67.4h13v6.5h-13v13h13v6.5Zm32.46,0v-6.5H302V80.39h-6.49V73.9H315v13h6.5v6.5Zm6.49-26V60.91h13V67.4Zm26,26v-26h26v6.5H341v19.5Zm26,0V73.9h6.5V93.38Zm13-13v-13h6.49v13Zm6.49,19.48V93.38h13v-6.5h-13V80.39h13v-13h13v26H393v6.49Zm77.92-6.49v-6.5h-6.48v-13h6.48v-6.5h26v6.5h-13v13h13v6.5Zm39,0v-6.5h-6.49v-13h6.49v-6.5h19.48v6.5h-13v13h13v6.5Zm19.48-6.5v-13h6.49v13Zm13,6.5v-26h13v6.5h6.5v-6.5h6.49v6.5h6.49V93.38h-6.62v-13h-6.49v13h-6.5v-13h-6.49v13Zm39,6.49V67.4h26v6.5h-13v13h13v6.5h-13v6.49Zm26-13v-13h6.49v13Zm13,0V67.4h6.49V86.88Zm6.49,6.5v-6.5h13V67.4h13v26Zm45.46,0v-6.5h-6.5v-13h-6.49v-6.5h6.49V60.91h13V67.4h13v6.5h-13v13h13v6.5Zm32.46,0v-6.5h-6.49v-13h6.49v-6.5h19.48v6.5H711v6.49H698V73.9h-6.49v6.49H698v6.49h6.49v6.5Zm32.48,0v-26h26v6.5h-13V93.38Zm26-13V73.9H750v6.49Z" fill="#30346d"/></svg>