<svg xmlns="http://www.w3.org/2000/svg" viewBox="0 0 1000 114"><title>logo_right</title><g id="Layer_3" data-name="Layer 3"><polygon points="672.33 39.01 672.33 48.01 704.02 48.01 704.02 43.51 711.33 43.51 711.33 50.01 735.67 50.01 735.67 43.51 741.5 43.51 741.5 17.68 738.33 17.68 738.33 12.68 735.67 12.68 735.67 10.84 711.33 10.84 711.33 12.68 634 12.68 634 22.68 638.5 22.68 638.5 51.01 657.83 51.01 657.83 22.68 677.83 22.68 677.83 39.01 672.33 39.01" fill="#fff"/><rect x="750.17" y="25.18" width="26.67" height="10.17" fill="#fff"/><polygon points="790.5 50.01 813.67 50.01 813.67 44.34 828.5 44.34 828.5 51.01 853.39 51.01 853.39 44.34 858.17 44.34 858.17 33.63 859.17 33.63 859.17 19.26 853.39 19.26 853.39 10.84 828.5 10.84 828.5 19.26 814.42 19.26 814.42 12.68 788.17 12.68 788.17 19.26 782.83 19.26 782.83 32.51 780.5 32.51 780.5 44.34 790.5 44.34 790.5 50.01" fill="#fff"/><polygon points="645.83 65.5 602.17 65.5 602.17 64.16 569.49 64.16 569.49 65.5 562.67 65.5 562.67 70.23 561 70.23 561 59.68 543.14 59.68 543.14 70.23 534.33 70.23 534.33 72.98 529.67 72.98 529.67 66.9 517 66.9 517 58.68 496.17 58.68 496.17 66.9 491.17 66.9 491.17 74.84 494.83 74.84 494.83 84.84 497.67 84.84 497.67 91.45 505.83 91.45 505.83 95.51 529 95.51 529 84.84 534.33 84.84 534.33 96.84 578.33 96.84 578.33 95.51 614 95.51 614 103.68 638.5 103.68 638.5 95.51 646.67 95.51 646.67 78.91 645.83 78.91 645.83 65.5" fill="#fff"/><polygon points="991.33 70.23 991.33 65.51 905.67 65.51 905.67 58.18 887.5 58.18 887.5 65.51 687.89 65.51 687.89 74.84 685.67 74.84 685.67 83.64 685 83.64 685 91.45 691.17 91.45 691.17 95.51 762.48 95.51 762.48 96.84 800.83 96.84 800.83 102.34 806.83 102.34 811.18 102.34 821.67 102.34 821.67 96.84 833.9 96.84 833.9 89.18 847.1 89.18 847.1 95.51 879.17 95.51 879.17 89.18 891.17 89.18 891.17 95.51 975.5 95.51 975.5 89.18 977.67 89.18 977.67 77.14 982.17 77.14 982.17 82.01 995.5 82.01 995.5 70.23 991.33 70.23" fill="#fff"/></g><g id="Layer_1" data-name="Layer 1"><rect x="522.03" y="72.98" width="21.11" height="16.22" fill="#fff"/><path d="M733.26,14.15v6.5h-13V40.13h13v6.5H713.77v-6.5h-6.48V20.65h6.48v-6.5h19.49m0-7H713.77a7,7,0,0,0-7,6.52,7,7,0,0,0-6.5,7V40.13a7,7,0,0,0,6.5,7,7,7,0,0,0,7,6.52h19.49a7,7,0,0,0,7-7v-6.5a7,7,0,0,0-7-7h-6v-5.5h6a7,7,0,0,0,7-7v-6.5A7,7,0,0,0,733.26,7.15Z" fill="#fff"/><path d="M817.67,20.65v6.5h-6.49v-6.5h6.49m0-7h-6.49a7,7,0,0,0-7,7v6.5a7,7,0,0,0,7,7h6.49a7,7,0,0,0,7-7v-6.5A7,7,0,0,0,817.67,13.65Z" fill="#fff"/><path d="M856.64,20.65V40.13h-6.5V20.65h6.5m0-7h-6.5a7,7,0,0,0-7,7V40.13a7,7,0,0,0,7,7h6.5a7,7,0,0,0,7-7V20.65A7,7,0,0,0,856.64,13.65Z" fill="#fff"/><path d="M557.93,73.9v13h6.5v6.5h-26V86.9h6.49V80.39h-6.49V73.9h19.48m0-7H538.45a7,7,0,0,0-7,7v6.49a7,7,0,0,0,.8,3.25,6.91,6.91,0,0,0-.8,3.24v6.5a7,7,0,0,0,7,7h26a7,7,0,0,0,7-7v-6.5a7,7,0,0,0-6.5-7v-6a7,7,0,0,0-7-7Z" fill="#fff"/><path d="M512.48,60.91V67.4h13v6.5h-13v13h13v6.5H506V86.9h-6.49v-13H493V67.4h6.49V60.91h13m0-7h-13a7,7,0,0,0-7,6.51,7,7,0,0,0-6.5,7v6.5a7,7,0,0,0,6.49,7v6a7,7,0,0,0,6.51,7,7,7,0,0,0,7,6.51h19.48a7,7,0,0,0,7-7v-6.5a7,7,0,0,0-4.37-6.49A7,7,0,0,0,532.47,74v-6.5a7,7,0,0,0-7-7h-6a7,7,0,0,0-7-6.49Z" fill="#fff"/><path d="M557.93,60.91V67.4h-13V60.91h13m0-7h-13a7,7,0,0,0-7,7V67.4a7,7,0,0,0,7,7h13a7,7,0,0,0,7-7V60.91A7,7,0,0,0,557.93,53.91Z" fill="#fff"/><path d="M739.75,33.63v6.5h-6.49v-6.5h6.49m0-7h-6.49a7,7,0,0,0-7,7v6.5a7,7,0,0,0,7,7h6.49a7,7,0,0,0,7-7v-6.5A7,7,0,0,0,739.75,26.63Z" fill="#fff"/><path d="M739.75,20.65v6.5h-6.49v-6.5h6.49m0-7h-6.49a7,7,0,0,0-7,7v6.5a7,7,0,0,0,7,7h6.49a7,7,0,0,0,7-7v-6.5A7,7,0,0,0,739.75,13.65Z" fill="#fff"/><path d="M817.67,33.63v6.5h-6.49v-6.5h6.49m0-7h-6.49a7,7,0,0,0-7,7v6.5a7,7,0,0,0,7,7h6.49a7,7,0,0,0,7-7v-6.5A7,7,0,0,0,817.67,26.63Z" fill="#fff"/><path d="M603.39,73.9V93.38h-6.5V73.9h6.5m0-7h-6.5a7,7,0,0,0-7,7V93.38a7,7,0,0,0,7,7h6.5a7,7,0,0,0,7-7V73.9A7,7,0,0,0,603.39,66.9Z" fill="#fff"/><path d="M850.14,14.15v6.5h-13V40.13h13v6.5H830.66v-6.5h-6.49V20.65h6.49v-6.5h19.48m0-7H830.66a7,7,0,0,0-7,6.52,7,7,0,0,0-6.51,7V40.13a7,7,0,0,0,6.51,7,7,7,0,0,0,7,6.52h19.48a7,7,0,0,0,7-7v-6.5a7,7,0,0,0-7-7h-6v-5.5h6a7,7,0,0,0,7-7v-6.5A7,7,0,0,0,850.14,7.15Z" fill="#fff"/><path d="M772.22,27.15v6.48H752.74V27.15h19.48m0-7H752.74a7,7,0,0,0-7,7v6.48a7,7,0,0,0,7,7h19.48a7,7,0,0,0,7-7V27.15A7,7,0,0,0,772.22,20.15Z" fill="#fff"/><path d="M811.18,14.15v6.5h-13v6.5h13v6.48h-13v6.5h13v6.5H791.7v-6.5h-6.49v-6.5h6.49V27.15h-6.49v-6.5h6.49v-6.5h19.48m0-7H791.7a7,7,0,0,0-7,6.52,7,7,0,0,0-6.5,7v6.5a6.91,6.91,0,0,0,.8,3.24,6.91,6.91,0,0,0-.8,3.24v6.5a7,7,0,0,0,6.5,7,7,7,0,0,0,7,6.52h19.48a7,7,0,0,0,7-7v-6.5a7,7,0,0,0-.8-3.25,7,7,0,0,0,.8-3.25V27.15a7,7,0,0,0-.8-3.25,7,7,0,0,0,.8-3.25v-6.5A7,7,0,0,0,811.18,7.15Z" fill="#fff"/><path d="M752.74,67.4v6.5h-13v13h13v6.5H733.26V86.9h-6.49v-13h6.49V67.4h19.48m0-7H733.26a7,7,0,0,0-7,6.52,7,7,0,0,0-6.5,7v13a7,7,0,0,0,6.5,7,7,7,0,0,0,7,6.51h19.48a7,7,0,0,0,7-7v-6.5a7,7,0,0,0-4.38-6.49A7,7,0,0,0,759.74,74v-6.5a7,7,0,0,0-7-7Z" fill="#fff"/><path d="M876.12,67.4v26h-26V86.9h13V67.4h13m0-7h-13a7,7,0,0,0-7,7V79.88h-6a7,7,0,0,0-7,7v6.5a7,7,0,0,0,7,7h26a7,7,0,0,0,7-7v-26a7,7,0,0,0-7-7Z" fill="#fff"/><path d="M850.14,67.4V86.88h-6.49V67.4h6.49m0-7h-6.49a7,7,0,0,0-7,7V86.88a7,7,0,0,0,7,7h6.49a7,7,0,0,0,7-7V67.4A7,7,0,0,0,850.14,60.4Z" fill="#fff"/><path d="M902.09,60.91V67.4h13v6.5h-13v13h13v6.5H895.6V86.9h-6.5v-13h-6.49V67.4h6.49V60.91h13m0-7h-13a7,7,0,0,0-7,6.51,7,7,0,0,0-6.51,7v6.5a7,7,0,0,0,6.49,7v6a7,7,0,0,0,6.51,7,7,7,0,0,0,7,6.51h19.48a7,7,0,0,0,7-7v-6.5a7,7,0,0,0-4.38-6.49A7,7,0,0,0,922.07,74v-6.5a7,7,0,0,0-7-7h-6a7,7,0,0,0-7-6.49Z" fill="#fff"/><path d="M837.15,73.9v13h-6.49v-13h6.49m0-7h-6.49a7,7,0,0,0-7,7v13a7,7,0,0,0,7,7h6.49a7,7,0,0,0,7-7h0v-13A7,7,0,0,0,837.15,66.9Z" fill="#fff"/><path d="M830.66,67.4v6.5h-13v13h13v6.5h-13v6.49h-13V67.4h26m0-7h-26a7,7,0,0,0-7,7V99.87a7,7,0,0,0,7,7h13a7,7,0,0,0,7-6.49h6a7,7,0,0,0,7-7v-6.5a7,7,0,0,0-4.38-6.49,7,7,0,0,0,4.38-6.49V67.4A7,7,0,0,0,830.66,60.4Z" fill="#fff"/><path d="M993,73.9v6.49h-6.5V73.9H993m0-7h-6.5a7,7,0,0,0-7,7v6.49a7,7,0,0,0,7,7H993a7,7,0,0,0,7-7V73.9A7,7,0,0,0,993,66.9Z" fill="#fff"/><path d="M986.5,67.4v6.5h-13V93.38h-13v-26h26m0-7h-26a7,7,0,0,0-7,7v26a7,7,0,0,0,7,7h13a7,7,0,0,0,7-7V80.9h6a7,7,0,0,0,7-7V67.4a7,7,0,0,0-7-7Z" fill="#fff"/><path d="M947.54,67.4v6.5H954v6.49H941V73.9h-6.49v6.49H941v6.49h6.49v6.5H928.06v-6.5h-6.49v-13h6.49v-6.5h19.48m0-7H928.06a7,7,0,0,0-7,6.52,7,7,0,0,0-6.51,7v13a7,7,0,0,0,6.51,7,7,7,0,0,0,7,6.51h19.48a7,7,0,0,0,7-7v-6a7,7,0,0,0,6.5-7V73.9a7,7,0,0,0-6.51-7,7,7,0,0,0-7-6.52Z" fill="#fff"/><path d="M616.37,67.4v13h-6.49v-13h6.49m0-7h-6.49a7,7,0,0,0-7,7v13a7,7,0,0,0,7,7h6.49a7,7,0,0,0,7-7v-13A7,7,0,0,0,616.37,60.4Z" fill="#fff"/><path d="M642.35,67.4v26h-6.5v6.49H616.37V93.38h13v-6.5h-13V80.39h13v-13h13m0-7h-13a7,7,0,0,0-7,7v6h-6a7,7,0,0,0-7,7v6.49a7,7,0,0,0,.8,3.25,7,7,0,0,0-.8,3.25v6.49a7,7,0,0,0,7,7h19.48a7,7,0,0,0,7-6.51,7,7,0,0,0,6.52-7v-26a7,7,0,0,0-7-7Z" fill="#fff"/><path d="M661.83,14.15v6.5h-6.5v26h-13v-26h-6.5v-6.5h26m0-7h-26a7,7,0,0,0-7,7v6.5a7,7,0,0,0,6.5,7v19a7,7,0,0,0,7,7h13a7,7,0,0,0,7-7v-19a7,7,0,0,0,6.5-7v-6.5A7,7,0,0,0,661.83,7.15Z" fill="#fff"/><path d="M596.89,67.4v6.5h-13V93.38h-13v-26h26m0-7h-26a7,7,0,0,0-7,7v26a7,7,0,0,0,7,7h13a7,7,0,0,0,7-7V80.9h6a7,7,0,0,0,7-7V67.4a7,7,0,0,0-7-7Z" fill="#fff"/><path d="M791.7,67.4v6.5h6.49V93.38H791.7v-13h-6.49v13h-6.5v-13h-6.49v13h-6.49v-26h13v6.5h6.5v-6.5h6.49m0-7h-6.49a7,7,0,0,1-6.5,0h-13a7,7,0,0,0-7,7v26a7,7,0,0,0,7,7h6.49a7,7,0,0,1,6.49,0h6.5a7,7,0,0,1,6.49,0h6.49a7,7,0,0,0,7-7V73.9a7,7,0,0,0-6.51-7,7,7,0,0,0-7-6.52Z" fill="#fff"/><path d="M759.23,73.9v13h-6.49v-13h6.49m0-7h-6.49a7,7,0,0,0-7,7v13a7,7,0,0,0,7,7h6.49a7,7,0,0,0,7-7h0v-13A7,7,0,0,0,759.23,66.9Z" fill="#fff"/><path d="M700.79,14.15v6.5h-6.5V40.13h6.5v6.5h-26v-6.5h6.5V20.65h-6.5v-6.5h26m0-7h-26a7,7,0,0,0-7,7v6.5a7,7,0,0,0,6.5,7v5.52a7,7,0,0,0-6.5,7v6.5a7,7,0,0,0,7,7h26a7,7,0,0,0,7-7v-6.5a7,7,0,0,0-6.5-7V27.63a7,7,0,0,0,6.5-7v-6.5a7,7,0,0,0-7-7Z" fill="#fff"/><path d="M720.27,67.4v6.5h-13v13h13v6.5h-26V86.9h-6.48v-13h6.48V67.4h26m0-7h-26a7,7,0,0,0-7,6.52,7,7,0,0,0-6.5,7v13a7,7,0,0,0,6.5,7,7,7,0,0,0,7,6.51h26a7,7,0,0,0,7-7v-6.5a7,7,0,0,0-4.38-6.49A7,7,0,0,0,727.27,74v-6.5a7,7,0,0,0-7-7Z" fill="#fff"/><path d="M642.35,46.63v-26h-6.5v-6.5h26v6.5h-6.5v26Zm32.46,0v-6.5h6.5V20.65h-6.5v-6.5h26v6.5h-6.5V40.13h6.5v6.5Zm39,0v-6.5h-6.48V20.65h6.48v-6.5H733.3v6.5h-13V40.13h13v6.5ZM733.3,27.15v-6.5h6.49v6.5Zm0,13v-6.5h6.49v6.5Zm19.48-6.5v-6.5h19.48v6.48Zm39,13v-6.5h-6.49v-6.5h6.49v-6.5h-6.49v-6.5h6.49v-6.5h19.48v6.5h-13v6.5h13v6.48h-13v6.5h13v6.5Zm19.48-19.48v-6.5h6.49v6.5Zm0,13v-6.5h6.49v6.5Zm19.48,6.5v-6.5h-6.49V20.65h6.49v-6.5h19.48v6.5h-13V40.13h13v6.5Zm19.48-6.5V20.65h6.5V40.13ZM506,93.38v-6.5h-6.49v-13H493v-6.5h6.49V60.91h13V67.4h13v6.5h-13v13h13v6.5Zm32.47,0v-6.5H545V80.39h-6.49V73.9H558v13h6.5v6.5Zm6.49-26V60.91h13V67.4Zm26,26v-26h26v6.5H584v19.5Zm26,0V73.9h6.5V93.38Zm13-13v-13h6.49v13Zm6.49,19.48V93.38h13v-6.5h-13V80.39h13v-13h13v26H636v6.49Zm77.92-6.49v-6.5h-6.48v-13h6.48v-6.5h26v6.5h-13v13h13v6.5Zm39,0v-6.5h-6.49v-13h6.49v-6.5h19.48v6.5h-13v13h13v6.5Zm19.48-6.5v-13h6.49v13Zm13,6.5v-26h13v6.5h6.5v-6.5h6.49v6.5h6.49V93.38H791.7v-13h-6.49v13h-6.5v-13h-6.49v13Zm39,6.49V67.4h26v6.5h-13v13h13v6.5h-13v6.49Zm26-13v-13h6.49v13Zm13,0V67.4h6.49V86.88Zm6.49,6.5v-6.5h13V67.4h13v26Zm45.46,0v-6.5h-6.5v-13h-6.49v-6.5h6.49V60.91h13V67.4h13v6.5h-13v13h13v6.5Zm32.46,0v-6.5h-6.49v-13h6.49v-6.5h19.48v6.5H954v6.49H941V73.9h-6.49v6.49H941v6.49h6.49v6.5Zm32.48,0v-26h26v6.5h-13V93.38Zm26-13V73.9H993v6.49Z" fill="#30346d"/></g></svg>