<svg xmlns="http://www.w3.org/2000/svg" width="56.191536" height="200">
  <defs>
    <clipPath id="a">
      <path d="M0 345.34h97.026V0H0v345.34z"/>
    </clipPath>
  </defs>
  <g clip-path="url(#a)" transform="matrix(0.5791394,0,0,-0.5791394,-4.5221131e-5,200)">
    <path fill="#8a1001" d="M78.039 316.0045h-1.141c-.822 0-1.494.672-1.494 1.494 0 .821.672 1.494 1.494 1.494h1.141c.822 0 1.494-.673 1.494-1.494 0-.822-.672-1.494-1.494-1.494"/>
    <path fill="#1a5bc0" d="M50.2001 323.0427c2.785-.287 5.523.642 8.346-.552 1.525-.645 3.546-.115 5.82-.115-2.5-1.404-4.048-3.034-3.644-5.557.352-2.205 1.882-3.736 4.086-4.052 2.481-.356 4.205 1.058 5.462 3.712 0-11.504-.001-22.462.002-33.42 0-.724.049-1.396-1.026-1.392-6.249.023-12.499.011-19.364.011 1.694 1.663 2.938 2.946 4.253 4.151.776.711 1.081 1.474 1.076 2.549-.044 9.077.004 18.154-.045 27.231-.013 2.433-1.236 4.377-3.168 5.769-.669.482-1.193 1.054-1.798 1.665"/>
    <path d="M59.9651 285.8189h-3.267c-.6 0-1.092.492-1.092 1.092v18.365c0 .601.492 1.092 1.092 1.092h3.267c.601 0 1.092-.491 1.092-1.092v-18.365c0-.6-.491-1.092-1.092-1.092"/>
    <path fill="#164489" d="M68.9654 317.5002c0-1.943-1.575-3.519-3.519-3.519-1.943 0-3.519 1.576-3.519 3.519s1.576 3.519 3.519 3.519c1.944 0 3.519-1.576 3.519-3.519"/>
    <path fill="#a6724f" d="M53.5187 118.8855h-.748c-.197 0-.357.161-.357.357v2.657c0 .196.16.357.357.357h.748c.196 0 .357-.161.357-.357v-2.657c0-.196-.161-.357-.357-.357"/>
    <path fill="#901909" d="M69.1306 102.6656c0 .495.405.899.899.899h8.551c.495 0 .899-.404.899-.899s-.404-.899-.899-.899h-8.551c-.494 0-.899.404-.899.899"/>
    <path fill="#625b65" d="M58.2544 87.5907h-35.092c-.835 0-1.518.683-1.518 1.518v8.456c0 .835.683 1.518 1.518 1.518h35.092c.835 0 1.518-.683 1.518-1.518v-8.456c0-.835-.683-1.518-1.518-1.518"/>
    <path fill="#8a828d" d="M59.5225 75.668h-40.074c-.806 0-1.465.659-1.465 1.465v6.562c0 .806.659 1.465 1.465 1.465h40.074c.806 0 1.465-.659 1.465-1.465v-6.562c0-.806-.659-1.465-1.465-1.465m.5111 25.6117h-40.003c-.825 0-1.5.675-1.5 1.5v6.955c0 .825.675 1.5 1.5 1.5h40.003c.825 0 1.5-.675 1.5-1.5v-6.955c0-.825-.675-1.5-1.5-1.5"/>
    <path fill="#901909" d="M63.5913 86.706c-.869 0-1.581.711-1.581 1.581v9.35c0 .869.712 1.581 1.581 1.581s1.581-.712 1.581-1.581v-9.35c0-.87-.712-1.581-1.581-1.581"/>
    <path fill="#850f01" d="M59.9072 72.1104h-28.071c-.305 0-.554.249-.554.554 0 .305.249.554.554.554h28.071c.305 0 .554-.249.554-.554 0-.305-.249-.554-.554-.554m-9.3389-10.6422c-.74 0-1.345.605-1.345 1.345v3.782c0 .739.605 1.345 1.345 1.345s1.345-.606 1.345-1.345v-3.782c0-.74-.605-1.345-1.345-1.345"/>
    <path fill="#a6724f" d="M42.7452 56.2809h-1.29c-.299 0-.544.245-.544.544v3.732c0 .299.245.544.544.544h1.29c.299 0 .544-.245.544-.544v-3.732c0-.299-.245-.544-.544-.544m.0226-30.0019h-1.29c-.299 0-.544.245-.544.544v3.732c0 .299.245.544.544.544h1.29c.299 0 .544-.245.544-.544v-3.732c0-.299-.245-.544-.544-.544"/>
    <path fill="#0d418d" d="M44.2751 230.3786c-4.589-.777-5.652-1.859-5.429-5.36.133-2.083 1.662-3.579 3.774-3.692 3.174-.168 4.63.991 5.169 4.233 1.658-1.491 2.676-3.393 4.006-5.037.479-.593.512-1.176-.316-1.713-2.143-1.392-4.23-2.874-6.316-4.353-1.056-.748-1.791-.652-2.546.491-1.216 1.841-2.615 3.56-3.875 5.374-.903 1.301-2.169 1.117-3.392.895-7.763-1.406-15.321-3.505-22.619-6.554-2.964-1.238-4.172-3.922-5.627-6.361-.722-1.211.497-2.203 1.427-2.934 2.008-1.578 4.079-3.076 6.11-4.626.32-.244.799-.588.796-.881-.005-.525-.617-.598-1.059-.741-.328-.106-.645-.243-.971-.355-4.3-1.479-6.521-.67-9.563 2.792-2.353 2.677-3.106 5.678-3.177 9.104-.061 2.964-.66 5.921-.667 8.883-.006 2.718 1.221 5.242 2.374 7.637.487 1.01 2.232.909 3.429 1.11.484.082 1.137-.488.849-1.332-.223-.652-.309-1.357-.572-1.989-1.611-3.868-.645-3.922 1.959-6.513 1.881-1.872 3.803-1.787 6.223-1.128 4.814 1.311 9.587 2.572 13.88 5.268 1.332.838 2.169 1.664 1.906 3.293-.044.272.038.566-.013.835-.431 2.294.61 3.438 2.703 4.382 4.751 2.142 4.809 2.669.973 5.989-2.61 2.258-3.683 5.029-3.676 8.381.019 10.611.056 21.223-.038 31.833-.017 1.898.566 2.418 2.37 2.299 2.224-.146 4.467-.078 6.699-.017 1.071.029 1.512-.107 1.501-1.424-.081-10.052-.391-20.122.113-30.149.216-4.301.49-8.625.736-12.941.107-1.876 1.989-2.913 2.859-4.699"/>
    <path fill="#1a5bc0" d="M61.8483 244.7911c5.582 0 11.164-.04 16.745.029 1.362.017 1.886-.373 1.757-1.756-.104-1.106-.021-2.231-.021-3.347.001-5.825-.068-5.735-4.775-9.276-2.645-1.99-4.834-4.611-7.561-6.455-3.289-2.225-6.741-3.184-11.144-2.279-4.966 1.022-6.138 5.071-8.751 8.003-1.453 1.631-2.591 3.543-3.879 5.322-.499.689-.799 1.413-.78 2.298.043 1.952.093 3.911-.014 5.859-.073 1.332.43 1.64 1.677 1.627 5.582-.058 11.164-.025 16.746-.025"/>
    <path fill="#1761cf" d="M73.2057 300.6794c0 5.516-.038 11.032.019 16.547.022 2.222-.756 4.163-1.743 6.059-.365.699-.958 1.121-1.825 1.201-1.715.158-1.988 1.239-1.938 2.806.121 3.836.079 7.68.016 11.519-.019 1.171.32 1.576 1.526 1.551 3.419-.071 6.842-.073 10.262.001 1.236.027 1.847-.258 1.654-1.607-.229-1.606.748-1.818 2.052-1.802.687.009 1.772.476 2.011-.453.242-.937.64-2.34-.282-2.955-3.252-2.173-2.515-5.404-2.524-8.456-.004-1.463-.025-2.74-1.278-3.949-1.376-1.327-2.859-.903-4.3-.87-1.506.034-2.272-.305-1.98-1.941.048-.271.044-.563 0-.836-.335-2.076.331-3.149 2.619-2.727 1.452.268 2.055-.178 2.04-1.859-.088-9.773-.082-19.549-.004-29.323.012-1.596-.448-1.979-1.99-1.954-4.334.069-4.335-.003-4.335 4.386v14.662"/>
    <path fill="#417099" d="M61.9187 250.2983c-5.499-.019-10.999-.013-16.498-.078-1.151-.013-1.578.312-1.571 1.522.046 7.519.046 15.039 0 22.558-.007 1.21.42 1.535 1.571 1.521 5.499-.064 10.999-.058 16.498-.078.901-.662.952-1.648.961-2.625.064-6.732.064-13.463 0-20.194-.009-.977-.06-1.964-.961-2.626"/>
    <path fill="#0d418d" d="M53.0902 302.002c0-4.254-.03-8.509.02-12.763.013-1.061-.392-1.775-1.05-2.577-3.069-3.736-6.713-5.727-11.769-5.065-3.017.395-6.128.064-9.196.083-.586.003-1.4-.214-1.491.695-.084.835.686.839 1.261 1.008 2.778.815 5.534 1.709 8.329 2.457 5.275 1.412 8.683 4.794 8.506 10.611-.233 7.665-.061 15.342-.049 23.014.001.534-.26 1.264.227 1.559.595.362 1.205-.214 1.695-.536 2.341-1.541 3.633-3.616 3.546-6.561-.117-3.972-.029-7.95-.029-11.925"/>
    <path fill="#0d418d" d="M31.3008 309.5192c-.001 3.486.052 6.974-.026 10.458-.032 1.398.325 1.998 1.849 1.952 3.274-.1 6.554-.062 9.83-.015 1.162.017 1.787-.209 1.777-1.586-.052-7.182-.051-14.364 0-21.546.009-1.338-.538-1.644-1.741-1.624-3.346.054-6.694.065-10.04-.004-1.291-.027-1.692.441-1.67 1.697.062 3.555.022 7.112.021 10.668"/>
    <path fill="#471308" d="M19.9927 201.656c-.664-.044-1.194.222-1.719.621-1.662 1.263-3.361 2.477-5.037 3.722-2.487 1.847-2.342 4.308.616 5.449 5.182 2 10.266 4.358 15.823 5.251.479.077.955.187 1.428.301 5.081 1.224 5.045 1.199 8.132-2.97.933-1.261.723-2.099-.447-2.959-1.928-1.415-4.171-2.223-6.259-3.328-3.449-1.823-6.907-3.629-10.364-5.436-.68-.355-1.365-.714-2.173-.651"/>
    <path fill="#578ea5" d="M68.9856 275.7415c2.925.02 5.85.011 8.774.075.981.022 1.333-.292 1.329-1.302-.032-7.662-.032-15.325 0-22.988.004-1.009-.348-1.323-1.329-1.301-2.924.064-5.849.055-8.774.075-.9.663-.95 1.649-.959 2.626-.064 6.73-.064 13.459 0 20.189.009.977.059 1.963.959 2.626"/>
    <path fill="#abe2f7" d="M68.9856 275.7415v-25.441c-2.356-.001-4.711-.002-7.067-.002v25.445c2.356-.001 4.711-.001 7.067-.002"/>
    <path fill="#0d418d" d="M50.3933 326.0948c-1.809-.001-3.619-.016-5.428.01-.519.007-1.105-.139-1.43.543-.846 1.783.214 5.942 1.852 7.024 2.013 1.329 4.038 2.641 6.071 3.94 1.726 1.104 3.647.545 5.49.566.777.009.737-.703.739-1.251.011-3.132-.023-6.263.024-9.394.016-1.09-.405-1.48-1.473-1.452-1.947.051-3.896.015-5.845.014"/>
    <path fill="#a19c96" d="M44.329 294.2381c-.964-3.39-3.595-4.562-6.307-5.379-4.345-1.308-8.799-2.259-13-4.037-.981-.415-1.734-.485-1.699.995.056 2.435.034 4.872.005 7.308-.009.766.201 1.129 1.048 1.126 6.591-.023 13.181-.013 19.953-.013"/>
    <path fill="#1761cf" d="M82.8357 231.8827c-.034-5.096.761-9.564 3.371-13.558.862-1.318-.047-2.674-.116-3.981-.069-1.31-.25-2.684-.447-4.592-1.245 2.205-2.315 3.914-3.193 5.716-.767 1.573-1.757 2.547-3.625 2.538-.868-.004-1.772.248-2.601.547-2.473.893-3.195 4.116-1.316 5.919 2.496 2.395 5.051 4.728 7.927 7.411"/>
    <path fill="#471308" d="M11.9942 220.1872c-1.788.018-3.32 2.142-2.782 3.857.985 3.144.985 3.138 4.32 3.148 3.958.012 7.93-.226 11.831.772.518.133 1.332.47 1.633-.366.241-.673.106-1.35-.486-1.899-1.896-1.757-11.807-5.54-14.516-5.512"/>
    <path fill="#8a1001" d="M21.4635 301.0821c.606-.197 1.197-.372 1.776-.58 3.03-1.087 3.03-1.09 3.031 2.24 0 4.883.01 9.766-.006 14.648-.007 2.199-.319 2.39-2.266 1.493-.378-.174-.729-.421-1.12-.553-.474-.16-1.025-.836-1.439-.248-.396.563-.415 1.488.284 1.87 1.681.917 3.257 2.158 5.381 1.958.862-.081 1.257-.372 1.256-1.256-.011-7.394-.004-14.788-.009-22.181 0-.414.031-1.026-.389-1.108-1.504-.294-3.097-.55-4.445.392-1.092.764-2.877 1.235-2.054 3.325"/>
    <path fill="#1a5bc0" d="M60.6342 332.8034c0 1.955.06 3.912-.022 5.863-.051 1.219.246 1.707 1.602 1.709 3.448.003 3.448.079 3.448-3.4 0-3.351-.044-6.702.023-10.051.024-1.218-.244-1.878-1.604-1.683-.479.069-.984.069-1.463 0-1.503-.214-2.151.262-2.019 1.911.15 1.872.035 3.766.035 5.651"/>
    <path fill="#1761cf" d="M82.4811 244.8222v32.776c1.127.062 1.223-.603 1.211-1.45-.031-2.298.08-4.601-.039-6.893-.089-1.71.452-2.512 2.232-2.262.41.058.837.035 1.252-.001.376-.033.932.191 1.029-.367.043-.248-.237-.729-.48-.823-2.189-.852-2.382-3.191-3.577-4.772-.738-.978-.85-2.41-.082-3.311 1.509-1.772.656-3.52.321-5.272-.484-2.534-1.101-5.043-1.661-7.563-.069-.02-.137-.041-.206-.062"/>
    <path fill="#0d418d" d="M21.2448 309.5616c0 1.673-.018 3.347.011 5.02.009.519-.193 1.154.494 1.46.997.444 1.967 1.561 2.975 1.156.702-.281.266-1.64.274-2.512.034-3.556.071-7.113-.032-10.666-.021-.734.83-2.279-.748-2.159-1.279.098-3.024.387-2.981 2.472.036 1.742.007 3.486.007 5.229"/>
    <path fill="#1761cf" d="M82.4255 306.5913c1.325-.426 1.261-1.277 1.26-2.121-.006-7.316.009-14.632-.027-21.949-.003-.568.482-1.623-.66-1.599-.938.021-.552.972-.554 1.504-.028 8.01-.019 16.019-.019 24.165"/>
    <path fill="#417099" d="M61.9186 277.1184h-17.621c.784 1.287 1.778 1.676 3.169 1.648 4.816-.099 9.635-.07 14.452-.089.457-.52.457-1.039 0-1.559"/>
    <path fill="#1761cf" d="M87.5111 257.3143c-1.548.128-2.208.764-2.144 2.034.072 1.424 1.137 2.245 2.206 1.703 2.468-1.252 5-.518 7.488-.751.85-.079 2.04.248 1.962-1.147-.068-1.198-1.163-.882-1.951-.955-2.625-.245-5.384.768-7.561-.884"/>
    <path fill="#417099" d="M61.9186 247.7839c-5.563-.019-11.126-.045-16.69-.043-.487 0-1.277-.248-1.277.613.001.861.79.613 1.277.613 5.564.002 11.127-.024 16.69-.043.312-.38.312-.76 0-1.14"/>
    <path fill="#578ea5" d="M68.9856 278.675c2.921.02 5.842.049 8.763.051.577.001 1.314.201 1.314-.828s-.737-.829-1.314-.829c-2.921.002-5.842.032-8.763.052-.457.518-.457 1.036 0 1.554"/>
    <path fill="#334877" d="M72.1084 343.3099c-.901 0-1.803-.019-2.704.006-.629.018-.778.462-.779 1.002 0 .538.144.995.775 1.003 1.802.024 3.606.021 5.409.016.746-.003.893-.485.88-1.119-.013-.596-.287-.907-.876-.915-.902-.011-1.803-.003-2.705-.003v.01"/>
    <path fill="#578ea5" d="M68.9856 248.9213c2.922.02 5.843.054 8.764.045.482-.001 1.267.274 1.267-.613-.001-.886-.785-.611-1.267-.613-2.921-.008-5.843.026-8.764.046-.31.378-.31.757 0 1.135"/>
    <path fill="#abe2f7" d="M68.9856 278.675v-1.554c-2.356-.001-4.711-.002-7.067-.003v1.559c2.356-.001 4.711-.001 7.067-.002m0-29.7537v-1.135c-2.356-.001-4.711-.002-7.067-.002v1.139c2.356-.001 4.711-.001 7.067-.002"/>
    <path fill="#c01d08" d="M75.1306 21.0072c-.671-.664-1.521-.372-2.287-.374-8.996-.023-17.992-.036-26.987.019-.882.005-2.327-.694-2.519.946-.132 1.132-.672 2.668 1.419 2.9.742.082.833.871.831 1.546-.004 1.767-.001 3.534-.004 5.301 0 .577-.042 1.344-.637 1.427-2.198.309-1.67 1.925-1.675 3.263-.019 5.462.001 10.924-.014 16.386-.003 1.073-.103 2.086 1.408 2.27.739.091.92.803.918 1.498-.003 1.686-.001 3.373-.004 5.06-.001.594-.133 1.283-.744 1.367-2.111.294-1.455 1.87-1.577 3.116-.14 1.434.194 2.2 1.919 2.173 1.618-.025 1.873-.765 1.81-2.078-.055-1.122-.092-2.258.025-3.371.215-2.038 1.406-3.182 3.472-3.285 1.994-.1 3.548 1.245 3.792 3.233.058.475.02.963.022 1.444.021 4.005.02 4.005 4.14 4.005 4.98 0 9.96-.018 14.94.012 1.16.007 2.013-.058 2.008-1.602-.053-14.938-.062-29.876-.091-44.815-.001-.149-.109-.297-.167-.446-.538.809-.256 1.716-.258 2.571-.021 12.831-.015 25.662-.015 38.493 0-12.83-.006-25.66.016-38.49.001-.854-.284-1.761.259-2.569"/>
    <path fill="#1a5bc0" d="M12.3669 182.6153c4.736-1.243 8.149-4.563 11.85-7.463 7.952-6.231 15.198-13.239 22.5-20.189.345-.329.74-.61 1.125-.895 3.203-2.368 3.16-4.295-.35-6.393-3.547-2.119-7.433-3.267-11.587-3.518-.963-.059-1.109.591-1.269 1.12-1.248 4.116-4.176 6.278-8.22 7.094-1.484.299-2.595 1.103-3.666 2.068-4.824 4.343-11.094 4.916-16.982 6.463-2.131.561-3.589 1.664-3.963 3.93.287 4.503.421 9.006-.069 13.505 1.425 3.797 4.856 5.682 8.262 4.539.712-.791 1.548-.456 2.369-.261"/>
    <path fill="#c01d08" d="M75.554 105.9255c-.643 0-1.286-.011-1.929.002-1.363.027-2.908-.327-4.043.2-1.463.68-.362 2.466-.722 3.712-.044.154-.03.359-.127.457-3.135 3.147-1.928 6.848-1.169 10.374 1.638 7.614 3.216 15.282 5.974 22.566 1.913 5.05 6.414 8.015 10.873 10.743 2.137 1.307 4.522 1.975 7.016 2.335 2.066.298 2.065-.458 1.497-2.104-1.635-4.741-3.293-9.485-4.626-14.316-2.018-7.317-2.389-14.936-3.737-22.381-.525-2.902-.925-5.827-1.432-8.734-.333-1.913-1.11-3.261-3.482-2.891-1.334.208-2.727.037-4.093.037"/>
    <path fill="#8a1001" d="M28.2952 66.4216c.662-.679.338-1.529.339-2.291.023-13.584.011-27.169.026-40.753.001-1.391.014-2.725-1.201-3.73-.772-.64-.65-1.593-.654-2.473-.009-2.17-.064-4.342.009-6.51.049-1.476-.591-2.011-2-1.984-2.411.045-4.823.038-7.234.003-1.323-.019-1.833.53-1.831 1.875.029 16.157.026 32.314.008 48.47-.002 1.115.448 1.774 1.437 2.243 3.554 1.683 7.085 3.415 10.625 5.128.46-.831.228-1.734.229-2.6.017-13.102.008-26.204.021-39.306.001-.787-.165-1.597.178-2.474.031-.21.254.287-.023.124-.072-.043-.122.026-.123.207-.086 14.465-.032 28.931-.032 43.397 0 .26.129.457.226.674"/>
    <path fill="#c01d08" d="M32.5279 136.4063c.905 2.872 3.131 3.548 5.845 3.892 7.384.936 13.618 3.71 17.074 10.964 4.447 9.337 9.074 18.588 13.657 27.86.367.744.565 1.594 1.537 2.027 2.887 1.288 4.422.433 4.26-2.702-.169-3.264-.606-6.514-.882-9.774-.079-.927-.762-1.377-1.305-1.941-2.203-2.293-3.434-4.951-3.363-8.197.069-3.133-.176-6.284.062-9.401.31-4.061-1.001-7.694-2.374-11.356-.232-2.019-1.515-2.201-3.267-2.186-9.55.082-19.102.032-28.653.051-.914.002-1.978-.334-2.591.763"/>
    <path fill="#971a09" d="M30.8434 44.4522c0 6.993.053 13.987-.036 20.978-.024 1.895.582 2.608 2.485 2.452 1.677-.137 3.377.039 5.06-.055.916-.052 2.431.57 2.462-1.048.025-1.339 1.07-3.135-.999-3.98-.922-.377-1.081-1.099-1.084-1.942-.005-1.447-.027-2.894.014-4.34.013-.465.073-1.238.326-1.339 2.841-1.146 1.779-3.593 1.826-5.559.112-4.659.041-9.323.032-13.985-.003-1.168.274-2.439-1.441-2.825-.705-.158-.743-.982-.749-1.634-.013-1.687-.01-3.375.003-5.063.006-.761.167-1.481 1.033-1.698 1.664-.418 1.137-1.731 1.073-2.754-.084-1.339-1.237-1.003-2.05-1.025-1.767-.049-3.543.075-5.303-.042-1.985-.132-2.705.643-2.683 2.639.08 7.073.031 14.147.031 21.22"/>
    <path fill="#8a1001" d="M24.9258 122.0829c0-2.008-.087-4.022.026-6.024.098-1.734-.439-2.554-2.295-2.392-1.355.118-2.733-.051-4.094.034-1.814.113-2.429-.723-2.35-2.445.084-1.844-.05-3.698.033-5.542.067-1.516-.434-2.2-2.049-2.146-2.648.089-5.302.072-7.952.005-1.435-.036-2.022.497-2.002 1.959.054 4.016.029 8.034.012 12.05-.003.922.194 1.776.777 2.475 2.663 3.196 5.354 6.369 8.033 9.552.357.424.635.957 1.297.957 3.132.004 6.264.02 9.396-.006 1.159-.009 1.151-.913 1.156-1.729.013-2.249.004-4.499.004-6.748h.008m-9.1704-20.9498c.613-.942.842-2.261 2.467-2.11.894.083 1.233-.608 1.235-1.433.007-2.807-.006-5.614.014-8.421.008-1.103-.49-1.607-1.594-1.597-.922.008-1.597-.416-1.597-1.404.002-4.005.042-8.01.101-12.015.005-.286.279-.567.428-.85.066-1.209-.862-.824-1.453-.857-2.103-.118-4.217.161-6.315-.167-1.333 1.255-2.66 2.517-4.001 3.764-.567.527-.78 1.167-.778 1.927.011 7.346.006 14.693.033 22.039.001.362.255.723.392 1.085 3.69-.292 7.38-.381 11.068.039"/>
    <path fill="#c01d08" d="M66.4108 73.1572c4.402 3.261 2.847 7.859 2.71 12.132-.021.625-.181 1.245-.277 1.866-.041 3.294.043 6.589-.041 9.88-.037 1.444.412 2.057 1.922 1.955 1.563-.106 3.138-.024 4.331-.024-1.833.207-4.073-.336-6.269.252 3.485.653 7.002.161 10.502.278 1.639.056 1.304-1.091 1.025-1.986-.733-2.348-1.562-4.667-2.353-6.998-.487-5.2-.182-10.414-.155-15.618.01-2.007-.543-2.656-2.539-2.501-2.235.173-4.494.025-6.742.047-.768.008-1.654-.239-2.114.717"/>
    <path fill="#971a09" d="M29.7455 130.9961c6.803.029 13.605.038 20.407.104 1.342.013 1.989-.506 1.791-1.829-.26-1.735.882-3.772-1.409-5.101-.986-.571-.595-6.802.315-7.489.515-.389 1.231-.565.992-1.38-.286-.976-1.175-.576-1.832-.655-.312-.038-.637.039-.955.063-.249.227-.49.459-.667.749-1.28 2.507-2.352 5.117-3.707 7.587-.351.64-.529 1.652-1.674 1.004-.272-.177-.549-.336-.864-.414-1.234.044-2.526.476-3.6-.552-1.058-.03-1.499.782-2.012 1.489-.454.626-.682 1.517-1.725 1.421-.423-.021-.835-.091-1.218-.275-1.112-.718-.435-1.551-.091-2.284.873-1.863 1.832-3.683 2.841-5.48.566-1.008 1.371-2.153.125-3.294-2.407.203-4.875-.596-7.23.446.609 3.148.105 6.328.277 9.488.117 2.133-.274 4.284.236 6.402"/>
    <path fill="#aa1804" d="M60.2682 131.0903c1.453-.19 3.737.782 4.797-.454.986-1.15-.429-3.153-.695-4.796-.534-3.298-1.26-6.565-1.816-9.86-.143-.848-.352-1.348-1.285-1.34-1.927.016-3.855-.006-5.782.012-.465.005-1.012-.005-1.095.656-.064.51.166.816.582 1.18 1.765 1.545 1.566 6.521-.024 8.302-1.412 1.582-.689 3.671-.493 5.475.155 1.437 1.705.688 2.639.8.95.114 1.924.025 3.172.025"/>
    <path fill="#891001" d="M49.169 163.1363c0 .641.049 1.286-.008 1.922-.397 4.466 2.457 5.361 6.198 4.962 1.765-.188 3.206-2.957 2.414-4.723-1.308-2.919-2.823-5.745-4.233-8.619-.466-.95-.885-.894-1.84-.405-3.049 1.558-2.586 4.252-2.531 6.863"/>
    <path fill="#860f01" d="M23.2593 67.0289c-2.046-1.027-4.087-2.063-6.142-3.074-.648-.319-1.209-.368-1.401.583-.229 1.137-1.177 1.858-1.96 3.063h9.348c.052-.19.103-.381.155-.572"/>
    <path fill="#8e1001" d="M28.2952 66.4216v-44.108c-.159-.001-.318-.001-.476-.002v44.088c.158.007.317.015.476.022"/>
    <path fill="#c51e08" d="M32.5279 136.4063c.978-.423 2.007-.532 3.06-.531 9.31.003 18.62.03 27.93-.029 1.631-.01 2.791.477 3.521 1.932.261-1.732-.176-2.558-2.235-2.537-10.151.104-20.305.028-30.457.096-.603.004-2.198-.906-1.819 1.069"/>
    <path fill="#c41e08" d="M68.7867 99.2177h9.859l.016-.498c-2.226 0-4.455-.064-6.678.019-1.981.074-2.66-.8-2.711-2.733-.077-2.95.526-5.943-.429-8.85-.705 4.017-.577 8.039-.057 12.062"/>
    <path fill="#8f1101" d="M9.0414 72.2788c1.625.661 3.331.319 5.001.389.969.041 1.93.047 2.767.636h11.945c-1.614-1.397-14.682-1.8-19.713-1.025"/>
    <path fill="#c51e08" d="M66.4108 73.1572c3.137-.907 6.339-.436 9.512-.382 1.534.026 1.573 1.33 1.576 2.482.012 4.07.008 8.14.013 12.21.001 1.036-.055 2.082.449 3.045.032-5.603.041-11.206.113-16.808.016-1.242-.442-1.709-1.676-1.69-3.122.046-6.245-.006-9.368.026-.705.007-2.138-.204-.619 1.117"/>
    <path fill="#850f01" d="M25.9489 141.1789c.285 2.11 1.629 3.059 3.254 3.778 1.064.471 1.206-.391 1.413-1.026.183-.558.345-1.669-.378-1.471-1.729.473-2.706-1.006-4.289-1.281"/>
    <path fill="#9c1b09" d="M29.7455 130.9961c.001-4.292.002-8.584.001-12.876 0-1.033.042-2.075-.514-3.014-.038 4.82-.082 9.64-.104 14.46-.002.539-.061 1.159.617 1.43"/>
    <path fill="#1b5ec7" d="M1.7354 178.3372c.881-4.497.741-9 .069-13.505-.406 4.5-.271 9.002-.069 13.505"/>
    <path fill="#8f1101" d="M15.7554 101.1331c-3.687-.78-7.376-.727-11.068-.039 3.688.293 7.378.225 11.068.039"/>
    <path fill="#1b5ec8" d="M12.3669 182.6153c-.85-.46-1.647-.437-2.369.261.794-.048 1.618.18 2.369-.261"/>
    <path fill="#c61e08" d="M75.1306 21.0072c-.455.799-.513 1.676-.513 2.567.002 13.896.001 27.791.007 41.687 0 .305.064.611.504.907v-45.166l.002.005"/>
    <path fill="#1b5ec7" d="M12.1316 173.021c-.369-1.109-.238-2.244-.183-3.376m26.9559-12.548c.573-.962.57-1.926.012-2.892-.387.962-.37 1.926-.012 2.892"/>
    <path fill="#9b1b09" d="M31.2817 22.7924v43.324c.079.001.158.001.236.002v-43.332c-.078.002-.157.004-.236.006"/>
    <path fill="#8e8691" d="M61.098 102.0962c-4.584-.948-9.214-.268-13.822-.389"/>
    <path fill="#aa1907" d="M53.0146 0h-4.893c-1.629 0-2.963 1.333-2.963 2.963 0 1.63 1.334 2.963 2.963 2.963h4.893c1.63 0 2.963-1.333 2.963-2.963 0-1.63-1.333-2.963-2.963-2.963"/>
    <path fill="#aa1804" d="M74.2271 8.6792h-43.099c-1 0-1.818.818-1.818 1.818v6.067c0 1 .818 1.818 1.818 1.818h43.099c1 0 1.818-.818 1.818-1.818v-6.067c0-1-.818-1.818-1.818-1.818"/>
    <path fill="#bd1d08" d="M83.8244 15.5463h-3.847c-.241 0-.438.197-.438.439v1.958c0 .242.197.439.438.439h3.847c.241 0 .439-.197.439-.439v-1.958c0-.242-.198-.439-.439-.439m2.0308 49.456h-5.788c-.29 0-.528.238-.528.528v1.78c0 .29.238.528.528.528h5.788c.29 0 .528-.238.528-.528v-1.78c0-.29-.238-.528-.528-.528"/>
    <path fill="#901909" d="M64.0634 76.2223v29.05c0 .305.249.555.554.555.305 0 .554-.25.554-.555v-29.05c0-.305-.249-.554-.554-.554-.305 0-.554.249-.554.554"/>
    <path fill="#e7e7b2" d="M46.584 75.668h-7.098v9.492h7.098v-9.492zm0 25.625h-7.098v9.927h7.098v-9.927z"/>
    <path fill="#971a09" d="M48.8737 114.6402h-18.776c-.551 0-1.001.45-1.001 1v14.356c0 .55.45 1 1.001 1h18.776c.55 0 1-.45 1-1v-14.356c0-.55-.45-1-1-1"/>
    <path d="M34.864 115.8492c-.363-.153-.786.018-.939.382l-3.224 7.636c-.153.363.019.785.382.939.363.153.786-.019.939-.382l3.224-7.636c.153-.363-.019-.786-.382-.939m2.3282 0c-.363-.153-.786.018-.939.382l-4.268 10.109c-.153.363.019.786.382.939.363.153.786-.018.939-.382l4.268-10.109c.153-.363-.019-.786-.382-.939m2.402 0c-.363-.153-.786.018-.939.382l-4.583 10.856c-.153.363.018.786.382.939.363.153.786-.018.939-.382l4.583-10.856c.153-.363-.019-.786-.382-.939"/>
    <path fill="#0f1522" d="M17.3731 169.6932c0-1.782-1.445-3.227-3.227-3.227-1.782 0-3.227 1.445-3.227 3.227 0 1.782 1.445 3.227 3.227 3.227 1.782 0 3.227-1.445 3.227-3.227"/>
    <path fill="#ab7551" d="M16.3861 169.6448c0-1.237-1.003-2.24-2.24-2.24-1.237 0-2.24 1.003-2.24 2.24 0 1.237 1.003 2.24 2.24 2.24 1.237 0 2.24-1.003 2.24-2.24"/>
    <path fill="#0f1522" d="M38.0065 155.92c0-1.782-1.445-3.227-3.227-3.227-1.782 0-3.227 1.445-3.227 3.227 0 1.782 1.445 3.227 3.227 3.227 1.782 0 3.227-1.445 3.227-3.227"/>
    <path fill="#ab7551" d="M37.0195 155.8716c0-1.237-1.003-2.24-2.24-2.24-1.237 0-2.24 1.003-2.24 2.24 0 1.237 1.003 2.24 2.24 2.24 1.237 0 2.24-1.003 2.24-2.24"/>
    <path d="M63.8798 315.1113c-.239.173-.294.51-.121.749l2.506 3.476c.172.24.509.294.748.122.24-.173.294-.51.122-.749l-2.506-3.477c-.173-.239-.51-.294-.749-.121"/>
    <path fill="#2f4678" d="M58.2907 288.7749c-.317 0-.577.26-.577.577v12.464c0 .317.26.577.577.577.317 0 .577-.26.577-.577v-12.464c0-.317-.26-.577-.577-.577"/>
    <path d="M35.3109 243.6152c-1.908 0-3.469 1.561-3.469 3.469v7.324c0 1.908 1.561 3.469 3.469 3.469s3.469-1.561 3.469-3.469v-7.324c0-1.908-1.561-3.469-3.469-3.469"/>
    <path fill="#0d418d" d="M36.9169 251.9024c-.459 0-.835.376-.835.835v1.863c0 .459.376.835.835.835.459 0 .835-.376.835-.835v-1.863c0-.459-.376-.835-.835-.835"/>
    <path fill="#060a11" d="M41.1876 316.3729c0-1.759-1.426-3.186-3.186-3.186-1.759 0-3.186 1.427-3.186 3.186s1.427 3.186 3.186 3.186c1.76 0 3.186-1.427 3.186-3.186"/>
    <path fill="#2c4e7e" d="M40.2278 316.8722c.439-.699.02-1.754-.936-2.355-.957-.601-2.089-.521-2.528.178"/>
    <path fill="#060a11" d="M41.1876 303.4171c0-1.759-1.426-3.186-3.186-3.186-1.759 0-3.186 1.427-3.186 3.186s1.427 3.186 3.186 3.186c1.76 0 3.186-1.427 3.186-3.186"/>
    <path fill="#2c4e7e" d="M36.336 301.2438c-.239.173-.294.509-.121.749l2.506 3.476c.172.24.509.294.748.122.24-.173.294-.51.122-.749l-2.506-3.477c-.173-.239-.51-.294-.749-.121"/>
  </g>
</svg>
