<svg id="Layer_1" data-name="Layer 1" xmlns="http://www.w3.org/2000/svg" viewBox="0 0 100 100"><title>icon_empty</title><path d="M99.3628,68.64555v.20459a13.30437,13.30437,0,0,0-1.07245-3.29589L94.743,59.22356a25.13882,25.13882,0,0,0,1.21588-5.1767,39.59325,39.59325,0,0,0,1.322-7.6712,43.74649,43.74649,0,0,0-.12616-8.89539q-.82013-5.67783-2.71277-8.20135Q90.909,24.67353,80.18421,20.13121q-13.31149-5.67783-33.56256-4.66846-21.95444,1.13562-29.525,10.094a12.86222,12.86222,0,0,0-2.00623,4.78973,3.685,3.685,0,0,0-.328-.31048,1.631,1.631,0,0,0-1.70337-.44165,2.05673,2.05673,0,0,0-1.13556,1.57721,5.41907,5.41907,0,0,0,.06311,2.71276,4.43332,4.43332,0,0,0,1.32483,2.39734,3.041,3.041,0,0,0,.43243.31256l.12036.6203L12.49134,47.57427c.05518.12213.12878.23736.18719.35833a15.67,15.67,0,0,1-3.40466,2.733A20.46434,20.46434,0,0,1,0,52.87364a38.68384,38.68384,0,0,0,5.1101,5.047q5.04695,4.35306,8.0752,4.60541-1.19869,1.13553-1.26178,6.30871a32.2453,32.2453,0,0,0,.82013,8.70612,37.3009,37.3009,0,0,1,3.549-2.95514,19.19548,19.19548,0,0,0,1.05872,3.64252,6.36982,6.36982,0,0,1-.44391,2.53Q15.898,82.714,12.239,82.14623q6.46527,6.28893,21.47613,10.16766c2.497,2.26153,4.55378,3.53027,6.15619,3.77472a23.09291,23.09291,0,0,1-.90332-2.57208c.42438.08435.84723.16253,1.27.24023a33.91742,33.91742,0,0,0,7.39313,3.65668q10.40946,3.78515,22.01752-.06311c.8081-.26935,1.558-.54523,2.26855-.8255l.00263.00537c.02685-.01142.04919-.02417.07592-.03565a25.39219,25.39219,0,0,0,3.90515-1.90271A21.47988,21.47988,0,0,1,78.1023,100a52.76886,52.76886,0,0,0,3.88208-9.89374A18.53166,18.53166,0,0,0,86.848,83.35143q2.77716,2.87631,3.87182,3.21093l-.25231-6.498c-.04944-1.1214-.13257-2.184-.23377-3.21479.91437-.2431,1.81952-.492,2.69415-.75976q5.67792-1.76641,6.5611-3.0282a2.95819,2.95819,0,0,0,.50476-1.82953Z" fill="#fff" fill-rule="evenodd"/></svg>