<svg xmlns="http://www.w3.org/2000/svg" viewBox="0 0 1000 114"><g id="Layer_2" data-name="Layer 2"><rect x="913.49" y="55.98" width="69.11" height="25.53" fill="#fff"/></g><g id="Layer_1" data-name="Layer 1"><path d="M947.4,110.5a3.5,3.5,0,0,1-3.5-3.37.66.66,0,0,0-.22-.22,3.5,3.5,0,0,1,0-7,.63.63,0,0,0,.22-.21A3.54,3.54,0,0,1,945,97.25c-15.37,2.48-30.72,3.09-44.72,3.65l-6.11.25H894a3.48,3.48,0,0,1-3.5-3.5V26.75a3.49,3.49,0,0,1,3.5-3.5,2.88,2.88,0,0,1,.41,0,37.28,37.28,0,0,1,27.41,17.57,3.51,3.51,0,0,1,2.13-.72h.31a248.81,248.81,0,0,1,38.4,6.2c4,1,7.66,2.11,11,3.28a3.45,3.45,0,0,1,1.48,1,10.45,10.45,0,0,1,17.22,8,10.25,10.25,0,0,1-.12,1.56,17.76,17.76,0,0,1,1.86,2.31,14.27,14.27,0,0,1,2.4,7.42c0,5.48-3.48,10.38-10.33,14.59-5.59,3.43-13.48,6.47-23.47,9-4.61,1.27-9.26,2.3-13.92,3.15a3.5,3.5,0,0,1,2.12,3.09.63.63,0,0,0,.22.21,3.5,3.5,0,0,1,0,7,.66.66,0,0,0-.22.22A3.5,3.5,0,0,1,947.4,110.5Zm-16.47-23a3.22,3.22,0,0,1-.32.32l.69-.08A2.92,2.92,0,0,1,930.93,87.52Zm9.39-1.5a6.64,6.64,0,0,1-.55.64l1.55-.23A4,4,0,0,1,940.32,86Zm26-27.21a18.14,18.14,0,0,1,3,2.56,10,10,0,0,1,0,14.35,21.86,21.86,0,0,1-6,4.31,68.85,68.85,0,0,1-15.14,5.24c4-.72,7.92-1.56,11.74-2.51,8.77-2.23,15.83-4.9,20.4-7.71,3.91-2.4,5-4.3,5.07-5.1a3,3,0,0,0-.58-1.36,10.28,10.28,0,0,1-3,.43,10.47,10.47,0,0,1-10.33-8.86,3.91,3.91,0,0,1-.49,0,3.57,3.57,0,0,1-1.16-.19C968.78,59.59,967.58,59.2,966.35,58.81Zm-39,.52c0,.34,0,.69,0,1a37.38,37.38,0,0,1-4.57,17.92l4.28-.48.4,0a3.48,3.48,0,0,1,1.61.39,6.84,6.84,0,0,1,10.08-1.61,3.55,3.55,0,0,1,1.8-1c.73-.14,1.41-.28,2.17-.45,6.52-1.43,11.77-3.12,15.17-4.89a13.91,13.91,0,0,0,2.63-1.69,13.75,13.75,0,0,0-2.63-1.69c-3.4-1.77-8.65-3.46-15.17-4.89C938.49,61,933.18,60.06,927.34,59.33Zm39.79-26a3.5,3.5,0,0,1-3.5-3.5A2.39,2.39,0,0,0,961.75,28a3.5,3.5,0,0,1,0-7,2.41,2.41,0,0,0,1.88-1.88,3.5,3.5,0,0,1,7,0A2.42,2.42,0,0,0,972.51,21a3.5,3.5,0,0,1,0,7,2.41,2.41,0,0,0-1.88,1.88A3.5,3.5,0,0,1,967.13,33.37Zm16.14-12.56a3.48,3.48,0,0,1-3.49-3.37,1.15,1.15,0,0,0-.22-.22,3.5,3.5,0,0,1,0-7,.92.92,0,0,0,.22-.22,3.5,3.5,0,0,1,7,0,.77.77,0,0,0,.22.22,3.5,3.5,0,0,1,0,7,.92.92,0,0,0-.22.22A3.5,3.5,0,0,1,983.27,20.81Zm-64.57-1.6a3.5,3.5,0,0,1-3.5-3.5,2.41,2.41,0,0,0-1.88-1.88,3.5,3.5,0,0,1,0-7,2.42,2.42,0,0,0,1.73-1.36,3.52,3.52,0,0,1,3.15-2h1a3.5,3.5,0,0,1,3.15,2,2.44,2.44,0,0,0,1.73,1.36,3.5,3.5,0,0,1,0,7,2.41,2.41,0,0,0-1.88,1.88A3.5,3.5,0,0,1,918.7,19.21Z" fill="#333"/><path d="M919.2,7a5.83,5.83,0,0,0,4.88,3.33,5.79,5.79,0,0,0-5.38,5.38,5.79,5.79,0,0,0-5.38-5.38A5.83,5.83,0,0,0,918.2,7h1m64.07,3.14a3.87,3.87,0,0,0,3.59,3.59,3.59,3.59,0,0,1-7.17,0,3.86,3.86,0,0,0,3.58-3.59m-16.14,9a5.79,5.79,0,0,0,5.38,5.38,5.79,5.79,0,0,0-5.38,5.38,5.79,5.79,0,0,0-5.38-5.38,5.79,5.79,0,0,0,5.38-5.38M894,26.75a33.87,33.87,0,0,1,21.62,55.72c3.53-.28,7.74-.72,11.81-1.19a8.33,8.33,0,0,0,.79,4c-5.72.71-11.11,1.19-17.14,1.59a33.8,33.8,0,0,1-14.53,6.74c18.53-.4,43.63-2.28,64.25-7.43,9.37-2.38,16.63-5.19,21.38-8.12S989,72.26,989,69.89c-.07-2.1-1.55-4-3.18-5.53a7,7,0,0,1-3.88,1.16,7,7,0,1,1,7-6.95,7.07,7.07,0,0,1-.52,2.65,16.45,16.45,0,0,1,2.86,3.18,10.83,10.83,0,0,1,1.8,5.49c0,4.47-3.34,8.31-8.67,11.58s-12.88,6.15-22.49,8.6c-22.92,6.31-46.72,6.68-67.8,7.58V26.75m30,16.87a246.58,246.58,0,0,1,37.85,6.1q5.85,1.48,10.66,3.19a11,11,0,0,0-1.42,3.78c-3.06-1.07-6.47-2.1-10.24-3.06a239.93,239.93,0,0,0-35.07-5.79A38.37,38.37,0,0,0,924,43.62h0m2.9,8.05h0c6.57.79,12.58,1.78,17.86,2.94,7.08,1.55,12.86,3.39,17,5.56a18.47,18.47,0,0,1,5.05,3.59,6.5,6.5,0,0,1,0,9.57,18.28,18.28,0,0,1-5.05,3.6c-4.17,2.16-9.94,4-17,5.56l-2.6.54a7.85,7.85,0,0,0-.49-4l2.22-.46c6.88-1.51,12.4-3.32,16-5.2a15.12,15.12,0,0,0,3.94-2.77,2.53,2.53,0,0,0,0-4.07,14.89,14.89,0,0,0-3.94-2.76c-3.64-1.89-9.16-3.69-16-5.2-4.8-1.06-10.28-2-16.26-2.72a38.05,38.05,0,0,0-.73-4.16m8,26.85a3.37,3.37,0,1,1-3.36,3.37,3.35,3.35,0,0,1,3.36-3.37M947.4,99.83a3.85,3.85,0,0,0,3.59,3.58,3.59,3.59,0,0,1-7.18,0,3.85,3.85,0,0,0,3.59-3.58M919.2,0h-1a7,7,0,0,0-6,3.42,7,7,0,0,0-.33,13.75,7,7,0,0,0,13.7,0,7,7,0,0,0-.33-13.75,7,7,0,0,0-6-3.42Zm64.07,3.14a7,7,0,0,0-6.4,4.18,7,7,0,0,0-4.18,6.41A7.81,7.81,0,0,0,972.8,15a7,7,0,0,0-12.52,2.63,7,7,0,0,0,0,13.7,7,7,0,0,0,13.7,0,7,7,0,0,0,5.53-6.85,6.75,6.75,0,0,0-.13-1.36,7,7,0,0,0,10.3-3,7,7,0,0,0,0-12.81,7,7,0,0,0-6.41-4.18ZM894,19.75a7,7,0,0,0-7,7v70.9a7,7,0,0,0,7,7h.29l6.12-.24c11.49-.46,23.89-1,36.52-2.48a7.31,7.31,0,0,0-.16,1.49,7,7,0,0,0,4.18,6.41,7,7,0,0,0,12.82,0,7,7,0,0,0,2.34-11.13c2.5-.56,5-1.17,7.48-1.86,10.3-2.62,18.5-5.79,24.37-9.4,8-4.89,12-10.79,12-17.54v-.07a17.83,17.83,0,0,0-2.92-9.22l-.08-.12a18.1,18.1,0,0,0-1.15-1.54c0-.13,0-.25,0-.37A14,14,0,0,0,975.09,46.4l-.26-.1c-3.41-1.2-7.2-2.33-11.26-3.37a253.33,253.33,0,0,0-39-6.29l-.63,0c-.24,0-.48,0-.71,0a40.76,40.76,0,0,0-28.42-16.86,7.63,7.63,0,0,0-.82,0Zm34.63,53.82a40.94,40.94,0,0,0,2.08-10.25c4.23.6,8.13,1.3,11.63,2.07a80,80,0,0,1,11.09,3.16,81.37,81.37,0,0,1-11.09,3.16c-.75.17-1.4.3-2.11.44a7.77,7.77,0,0,0-1.1.32,10.32,10.32,0,0,0-10.5,1.1Zm46,.56a13.41,13.41,0,0,0,1-3.08,13.83,13.83,0,0,0,2.82,1,37.2,37.2,0,0,1-3.84,2Z" fill="#fff"/><path d="M918.2,7a5.83,5.83,0,0,1-4.88,3.33,5.79,5.79,0,0,1,5.38,5.38,5.79,5.79,0,0,1,5.38-5.38A5.83,5.83,0,0,1,919.2,7Zm65.07,3.14a3.86,3.86,0,0,1-3.58,3.59,3.59,3.59,0,0,0,7.17,0A3.87,3.87,0,0,1,983.27,10.14Zm-16.14,9a5.79,5.79,0,0,1-5.38,5.38,5.79,5.79,0,0,1,5.38,5.38,5.79,5.79,0,0,1,5.38-5.38A5.79,5.79,0,0,1,967.13,19.11ZM894,26.75v70.9c21.08-.9,44.88-1.27,67.8-7.58,9.61-2.45,17.17-5.33,22.49-8.6S993,74.36,993,69.89a10.83,10.83,0,0,0-1.8-5.49,16.45,16.45,0,0,0-2.86-3.18,7.07,7.07,0,0,0,.52-2.65,7,7,0,1,0-7,6.95,7,7,0,0,0,3.88-1.16c1.63,1.52,3.11,3.43,3.18,5.53,0,2.37-2,5.22-6.74,8.14s-12,5.74-21.38,8.12c-20.62,5.15-45.72,7-64.25,7.43a33.8,33.8,0,0,0,14.53-6.74c6-.4,11.42-.88,17.14-1.59a8.33,8.33,0,0,1-.79-4c-4.07.47-8.28.91-11.81,1.19A33.87,33.87,0,0,0,894,26.75Zm30,16.87a38.37,38.37,0,0,1,1.78,4.22,239.93,239.93,0,0,1,35.07,5.79c3.77,1,7.18,2,10.24,3.06a11,11,0,0,1,1.42-3.78q-4.82-1.71-10.66-3.19A246.58,246.58,0,0,0,924,43.62Zm2.9,8.05a38.05,38.05,0,0,1,.73,4.16c6,.75,11.46,1.66,16.26,2.72,6.88,1.51,12.4,3.31,16,5.2a14.89,14.89,0,0,1,3.94,2.76,2.53,2.53,0,0,1,0,4.07,15.12,15.12,0,0,1-3.94,2.77c-3.64,1.88-9.16,3.69-16,5.2l-2.22.46a7.85,7.85,0,0,1,.49,4l2.6-.54c7.08-1.56,12.85-3.4,17-5.56a18.28,18.28,0,0,0,5.05-3.6,6.5,6.5,0,0,0,0-9.57,18.47,18.47,0,0,0-5.05-3.59c-4.16-2.17-9.94-4-17-5.56-5.28-1.16-11.29-2.15-17.86-2.94Zm8,26.85a3.37,3.37,0,1,0,3.37,3.37A3.34,3.34,0,0,0,934.84,78.52ZM947.4,99.83a3.85,3.85,0,0,1-3.59,3.58,3.59,3.59,0,0,0,7.18,0A3.85,3.85,0,0,1,947.4,99.83Z" fill="#333"/></g></svg>