<?xml version="1.0" encoding="utf-8"?>
<!-- Generator: Adobe Illustrator 22.0.0, SVG Export Plug-In . SVG Version: 6.00 Build 0)  -->
<svg version="1.1" id="Capa_1" xmlns="http://www.w3.org/2000/svg" xmlns:xlink="http://www.w3.org/1999/xlink" x="0px" y="0px"
	 viewBox="0 0 85 85" style="enable-background:new 0 0 85 85;" xml:space="preserve">
<g>
	<path style="fill:#3B3B3B;" d="M42.554,72.857c9.212,0,19.688,2.056,26.31,4.048L66.84,36.429H18.268l-2.024,40.476
		C22.866,74.913,33.341,72.857,42.554,72.857z"/>
	<path style="fill:#D3D3D3;" d="M74.935,0c1.815,0,3.426,0.814,4.539,2.076c-2.538,0.267-4.539,2.402-4.539,5.007v1.012
		c0,0.342-4.114,3.724-4.048,4.048c-0.034,0,0.034,0,0,0c-3.353,0-2.024-2.718-2.024-6.071S71.581,0,74.935,0z"/>
	<path style="fill:#D3D3D3;" d="M18.268,10.119c0-3.339,2.732-6.071,6.071-6.071c0.607,0,1.184,0.117,1.738,0.285
		C25.321,1.84,23.024,0,20.292,0c-3.339,0-6.071,2.732-6.071,6.071c0,1.564,0.617,2.975,1.603,4.048
		C15.824,10.119,18.268,10.119,18.268,10.119z"/>
	<path style="fill:#D3D3D3;" d="M66.839,10.119c0-3.339-2.732-6.071-6.071-6.071c-0.607,0-1.184,0.117-1.738,0.285
		C59.786,1.84,62.083,0,64.815,0c3.339,0,6.071,2.732,6.071,6.071c0,1.564-0.617,2.975-1.603,4.048
		C69.283,10.119,66.839,10.119,66.839,10.119z"/>
	<ellipse style="fill:#BFBFBF;" cx="42.554" cy="36.429" rx="24.286" ry="2.024"/>
	<path style="fill:#414141;" d="M85.054,78.929L72.911,85c-3.886-5.869-6.719-11.88-8.763-17.385l7.731-1.72l3.056-1.133
		L85.054,78.929z"/>
	<path style="fill:#414141;" d="M0.054,78.929L12.196,85c3.886-5.869,6.719-11.88,8.763-17.385l-7.731-1.72l-3.056-1.133
		L0.054,78.929z"/>
	<path style="fill:#656565;" d="M4.101,66.786l7.346,3.663l6.921,3.461c3.157-6.901,5.1-13.418,6.254-18.538l-6.739-1.477
		L14.22,52.62L4.101,66.786z"/>
	<path style="fill:#777777;" d="M8.149,54.643l7.913,3.946l6.8,3.42c3.076-10.119,3.501-17.486,3.501-17.486l-0.81-1.983
		l-2.995-0.668l-4.29-1.396L8.149,54.643z"/>
	<path style="fill:#656565;" d="M81.006,66.786l-7.346,3.663l-6.921,3.461c-3.157-6.901-5.1-13.418-6.254-18.538l6.739-1.477
		l3.663-1.275L81.006,66.786z"/>
	<path style="fill:#777777;" d="M76.958,54.643l-7.913,3.946l-6.8,3.42c-3.076-10.119-3.501-17.486-3.501-17.486l0.81-1.983
		l2.995-0.668l4.29-1.396L76.958,54.643z"/>
	<ellipse style="fill:#656565;" cx="42.554" cy="38.452" rx="22.262" ry="12.143"/>
	<path style="fill:#414141;" d="M66.839,36.429c0,0.287-0.722,2.584-2.024,2.831c-3.748,0.714-12.303,1.216-22.262,1.216
		s-18.512-0.502-22.262-1.216c-1.301-0.247-2.024-2.544-2.024-2.831c0-13.418,10.868-24.286,24.286-24.286
		S66.839,23.011,66.839,36.429z"/>
	<path style="fill:#D3D3D3;" d="M66.839,6.071v4.048c0,8.927-7.263,14.167-16.19,14.167h-16.19c-8.927,0-16.19-5.24-16.19-14.167
		V6.071h-8.095v2.024c0,13.357,10.929,24.286,24.286,24.286h16.19c13.357,0,24.286-10.929,24.286-24.286V6.071H66.839z"/>
	<circle style="fill:#BFBFBF;" cx="42.554" cy="28.333" r="8.095"/>
	<path style="fill:#ACACAC;" d="M83.03,42.5c0,0-4.736,1.052-10.827,3.805c-3.785,1.7-8.095,4.068-12.102,7.245
		c-0.607-2.833-0.931-5.14-1.133-6.719c0.506-1.154,1.255-2.813,2.267-4.675c3.258-5.91,9.208-13.823,17.749-13.823L83.03,42.5z"/>
	<circle style="fill:#C2C2C2;" cx="72.911" cy="38.452" r="4.048"/>
	<path style="fill:#ACACAC;" d="M2.077,42.5c0,0,4.736,1.052,10.827,3.805c3.785,1.7,8.095,4.068,12.102,7.245
		c0.607-2.833,0.931-5.14,1.133-6.719c-0.506-1.154-1.255-2.813-2.267-4.675c-3.258-5.91-9.208-13.823-17.749-13.823L2.077,42.5z"/>
	<circle style="fill:#C2C2C2;" cx="12.196" cy="38.452" r="4.048"/>
	<path style="fill:#D3D3D3;" d="M10.173,0c-1.816,0-3.427,0.814-4.54,2.076c2.538,0.267,4.539,2.402,4.539,5.007v1.012
		c0,0.342,4.114,3.724,4.048,4.048c0.034,0-0.034,0,0,0c3.353,0,2.024-2.718,2.024-6.071S13.526,0,10.173,0z"/>
</g>
</svg>
