<svg id="Layer_1" data-name="Layer 1" xmlns="http://www.w3.org/2000/svg" viewBox="0 0 1000 114"><path d="M928.47,40.31A18.26,18.26,0,0,1,910.1,23.09,18.53,18.53,0,0,1,924.56,3.85a19,19,0,0,1,3.86-.35,19.67,19.67,0,0,1,5.21.63,18.52,18.52,0,0,1,11.13,26.46,19.69,19.69,0,0,1-7.58,7.57,18.8,18.8,0,0,1-8.71,2.15Z" fill="#333"/><path d="M928.42,7a15.85,15.85,0,0,1,4.18.47,15,15,0,0,1,9,21.51A16.32,16.32,0,0,1,935.59,35a15.4,15.4,0,0,1-7.12,1.77,14.86,14.86,0,0,1-14.88-14A15,15,0,0,1,925.31,7.27,15.58,15.58,0,0,1,928.42,7m-9.17,16.68a1.76,1.76,0,0,0,1.12-.42c.54-.48.67-.81.81-2.09a7.19,7.19,0,0,1,6.6-6.6c1.28-.14,1.61-.27,2.08-.81a1.76,1.76,0,0,0,0-2.27,2.46,2.46,0,0,0-1.87-.57,10.86,10.86,0,0,0-5.61,1.81A15.24,15.24,0,0,0,919,16.34c-1.31,2.13-1.85,5.73-1,6.71a1.64,1.64,0,0,0,1.28.63M928.42,0a22.37,22.37,0,0,0-4.61.43A22.07,22.07,0,0,0,906.6,23.32a21.75,21.75,0,0,0,21.87,20.49,22.28,22.28,0,0,0,10.33-2.54,23.35,23.35,0,0,0,9.07-9.08A22,22,0,0,0,934.66.78,22.89,22.89,0,0,0,928.42,0Z" fill="#fff"/><path d="M932,55.54c-4.68,0-7-.48-10.13-2.15A28.18,28.18,0,0,1,914,46.07L913,44.66a3.51,3.51,0,0,1,1.79-5.23l2.53-.87,2.57-.86a3.28,3.28,0,0,1,1.11-.19A3.5,3.5,0,0,1,923.89,39l.45.63a11,11,0,0,0,5.84,3.87,7.08,7.08,0,0,0,1.86.31,7.27,7.27,0,0,0,1.88-.31,9.59,9.59,0,0,0,7.19-7.19,10.31,10.31,0,0,0,.34-2V33a3.5,3.5,0,0,1,2.38-3.31l2.31-.79,2.31-.77a3.5,3.5,0,0,1,4.6,3.25l.07,3.25c.08,4.37-.41,6.69-2.1,9.93a27.58,27.58,0,0,1-8.83,8.83C939,55.06,936.69,55.54,932,55.54Z" fill="#333"/><path d="M949.56,31.45l.06,3.26c.07,3.75-.29,5.52-1.7,8.24a24.5,24.5,0,0,1-7.35,7.34C937.88,51.68,936.17,52,932,52s-5.86-.36-8.51-1.75a25.22,25.22,0,0,1-6.67-6.18L916,42.74l2.53-.87L921,41l.45.63a14.35,14.35,0,0,0,7.75,5.21,9.16,9.16,0,0,0,5.61,0,13.07,13.07,0,0,0,9.63-9.63,12.73,12.73,0,0,0,.47-2.94V33l2.32-.79,2.29-.76m0-7a7,7,0,0,0-2.21.36l-2.29.76-2.35.8A7,7,0,0,0,938,33v1.2a6.64,6.64,0,0,1-.19,1l0,.12A6.08,6.08,0,0,1,933,40.1a3.91,3.91,0,0,1-1,.19,4.23,4.23,0,0,1-.94-.18,7.5,7.5,0,0,1-3.9-2.52l-.46-.64A7,7,0,0,0,921,34a6.91,6.91,0,0,0-2.23.37l-2.54.85,0,0-2.54.88a7,7,0,0,0-3.57,10.45L911,48l0,.08a31.5,31.5,0,0,0,9.23,8.46C924.39,58.64,927.46,59,932,59s7.58-.38,11.75-2.53a30.59,30.59,0,0,0,10.34-10.33c2-3.76,2.58-6.68,2.49-11.6l-.07-3.27a7,7,0,0,0-3-5.58,7,7,0,0,0-4-1.28Z" fill="#fff"/><path d="M936.76,69.91c-4.69,0-7-.48-10.14-2.16a28,28,0,0,1-7.94-7.31L917.75,59a3.51,3.51,0,0,1,1.79-5.23l2.54-.87,2.56-.86a3.34,3.34,0,0,1,1.12-.19,3.51,3.51,0,0,1,2.85,1.47l.44.63a11,11,0,0,0,5.84,3.87,5.8,5.8,0,0,0,3.74,0,9.58,9.58,0,0,0,7.19-7.19,9.77,9.77,0,0,0,.35-2V47.37a3.51,3.51,0,0,1,2.37-3.32l2.31-.78,2.31-.77a3.58,3.58,0,0,1,1.11-.18,3.53,3.53,0,0,1,2,.64,3.49,3.49,0,0,1,1.48,2.79l.07,3.25c.08,4.37-.42,6.69-2.1,9.93a27.48,27.48,0,0,1-8.83,8.83C943.68,69.43,941.41,69.91,936.76,69.91Z" fill="#333"/><path d="M954.27,45.82l.07,3.26c.06,3.74-.29,5.52-1.71,8.23a24.27,24.27,0,0,1-7.34,7.35c-2.69,1.39-4.4,1.75-8.53,1.75s-5.86-.36-8.51-1.75a25.07,25.07,0,0,1-6.67-6.18l-.9-1.37,2.54-.87,2.54-.86.45.63A14.32,14.32,0,0,0,934,61.22a9.16,9.16,0,0,0,5.61,0,13.06,13.06,0,0,0,9.64-9.63,12.81,12.81,0,0,0,.47-2.94V47.37l2.31-.79,2.29-.76m0-7a7,7,0,0,0-2.21.36l-2.29.76-2.35.8a7,7,0,0,0-4.75,6.63v1.2a8,8,0,0,1-.19,1l0,.11a6.11,6.11,0,0,1-4.74,4.74,4,4,0,0,1-1,.19,3.78,3.78,0,0,1-.94-.19A7.45,7.45,0,0,1,931.91,52l-.46-.64a7,7,0,0,0-7.93-2.57L921,49.6l0,0-2.54.88A7,7,0,0,0,914.83,61l.9,1.37,0,.08A31.46,31.46,0,0,0,925,70.86c4.1,2.15,7.18,2.55,11.76,2.55s7.57-.38,11.74-2.53a30.51,30.51,0,0,0,10.34-10.33c1.95-3.76,2.58-6.68,2.5-11.6l-.07-3.28a7,7,0,0,0-7-6.85Z" fill="#fff"/><path d="M924.84,110.5a142.36,142.36,0,0,1-22.38-2.25c-9.79-1.65-15.93-3.14-18.77-4.56a17.66,17.66,0,0,1-8.27-9.41,21.57,21.57,0,0,1-.6-9.25,17.24,17.24,0,0,1,12.82-12.94,16,16,0,0,1,3.49-.35,18.53,18.53,0,0,1,5.52.77c5.8,1.95,19.85,9.59,28.93,15.72,9.76,6.6,13.81,11.22,13.55,15.47a6.08,6.08,0,0,1-3.62,5.12c-2.19,1.13-5.69,1.68-10.67,1.68Z" fill="#333"/><path d="M891.13,75.24a15.17,15.17,0,0,1,4.43.6c5.41,1.82,19.35,9.41,28.06,15.29,11,7.41,14.51,12.44,10.31,14.57-1.7.87-4.84,1.3-9.09,1.3A138.6,138.6,0,0,1,903,104.8c-9.31-1.57-15.31-3-17.78-4.24a14.1,14.1,0,0,1-6.53-7.46,18.12,18.12,0,0,1-.47-7.36A13.8,13.8,0,0,1,888.42,75.5a12.78,12.78,0,0,1,2.71-.26m0-7a19.1,19.1,0,0,0-4.28.44,20.79,20.79,0,0,0-15.44,15.57l0,.07a24.64,24.64,0,0,0,.72,11.1,21,21,0,0,0,9.95,11.37l.06,0c2,1,6.25,2.61,19.75,4.88a145.08,145.08,0,0,0,23,2.3c5.63,0,9.54-.66,12.29-2.08a9.58,9.58,0,0,0,5.49-8c.36-5.71-4-11.1-15.08-18.58-8.35-5.64-23.17-13.91-29.75-16.13a22.59,22.59,0,0,0-6.66-1Z" fill="#fff"/><path d="M979.78,109a21,21,0,0,1-6.36-1,194.89,194.89,0,0,1-23.86-10c-15.41-7.74-18.13-11.9-18.77-15a5.89,5.89,0,0,1,1.29-5.08c2.07-2.43,6.32-3.8,13.38-4.37,2.08-.17,4.71-.25,7.8-.25A208.17,208.17,0,0,1,979,74.86c6.29.88,9,1.77,12.53,5.34a15.74,15.74,0,0,1,4.94,11.87,16.15,16.15,0,0,1-4.93,12A16.37,16.37,0,0,1,979.78,109Z" fill="#333"/><path d="M953.26,76.74a204.07,204.07,0,0,1,25.28,1.59c6,.83,7.79,1.57,10.53,4.33A12.3,12.3,0,0,1,993,92.07a13.3,13.3,0,0,1-13.22,13.38,17.63,17.63,0,0,1-5.3-.87,190.81,190.81,0,0,1-23.35-9.82c-13.38-6.71-18.91-11.63-16.37-14.66,1.35-1.57,5.07-2.65,11-3.12,2-.16,4.64-.24,7.52-.24m0-7c-3.18,0-5.9.09-8.09.27-8.14.65-13,2.36-15.73,5.54l-.05.06a9.35,9.35,0,0,0-2,8c1.17,5.64,7,10.51,20.63,17.37a199.48,199.48,0,0,0,24.36,10.23,24.63,24.63,0,0,0,7.43,1.2A20.3,20.3,0,0,0,1000,92.07a19.24,19.24,0,0,0-6-14.34c-4.28-4.31-7.79-5.4-14.54-6.33a211.52,211.52,0,0,0-26.24-1.66Z" fill="#fff"/><path d="M925.31,7.27A14.95,14.95,0,1,0,935.59,35,16.32,16.32,0,0,0,941.65,29a15,15,0,0,0-9-21.51A18.36,18.36,0,0,0,925.31,7.27Zm4.58,4.22a1.76,1.76,0,0,1,0,2.27c-.47.54-.8.67-2.08.81a7.19,7.19,0,0,0-6.6,6.6c-.14,1.28-.27,1.61-.81,2.09a1.65,1.65,0,0,1-2.4-.21c-.84-1-.3-4.58,1-6.71a15.24,15.24,0,0,1,3.43-3.61C924.93,11,928.94,10.35,929.89,11.49Z" fill="#333"/><path d="M947.27,32.21,945,33v1.28a12.73,12.73,0,0,1-.47,2.94,13.07,13.07,0,0,1-9.63,9.63,9.11,9.11,0,0,1-5.61,0,14.35,14.35,0,0,1-7.75-5.21L921,41l-2.54.86-2.53.87.9,1.37a25,25,0,0,0,6.66,6.18C926.18,51.68,927.91,52,932,52s5.84-.36,8.53-1.75A24.5,24.5,0,0,0,947.92,43c1.41-2.72,1.77-4.49,1.7-8.24l-.06-3.26Z" fill="#333"/><path d="M952,46.58l-2.31.79v1.28a12.81,12.81,0,0,1-.47,2.94,13.06,13.06,0,0,1-9.64,9.63,9.11,9.11,0,0,1-5.61,0A14.32,14.32,0,0,1,926.21,56l-.45-.63-2.54.86-2.54.87.9,1.37a25.07,25.07,0,0,0,6.67,6.18c2.65,1.39,4.38,1.75,8.51,1.75s5.84-.36,8.53-1.75a24.27,24.27,0,0,0,7.34-7.35c1.42-2.71,1.77-4.49,1.71-8.23l-.07-3.26Z" fill="#333"/><path d="M888.42,75.5a13.8,13.8,0,0,0-10.17,10.24,18.12,18.12,0,0,0,.47,7.36,14.1,14.1,0,0,0,6.53,7.46c2.47,1.23,8.47,2.67,17.78,4.24,15.27,2.56,27,2.92,30.9.9,4.2-2.13.65-7.16-10.31-14.57-8.71-5.88-22.65-13.47-28.06-15.29A16,16,0,0,0,888.42,75.5Z" fill="#333"/><path d="M945.74,77c-5.91.47-9.63,1.55-11,3.12-2.54,3,3,8,16.37,14.66a190.81,190.81,0,0,0,23.35,9.82c5.74,1.82,10.82.78,14.61-3a12.77,12.77,0,0,0,3.91-9.5,12.3,12.3,0,0,0-3.93-9.41c-2.74-2.76-4.53-3.5-10.53-4.33C969,77,953.46,76.35,945.74,77Z" fill="#333"/></svg>