<svg id="Layer_1" data-name="Layer 1" xmlns="http://www.w3.org/2000/svg" viewBox="0 0 1000 114"><path d="M931.92,110.5a3.51,3.51,0,0,1-2.37-.92l-.16-.16-.26.1a3.48,3.48,0,0,1-1,.16,3.53,3.53,0,0,1-2.48-1l-34-34a3.49,3.49,0,0,1-1-3.18,3.23,3.23,0,0,1,.14-.51h0a3.51,3.51,0,0,1-1.06-3.52L902.14,21a3.49,3.49,0,0,1,2.36-2.45,3.72,3.72,0,0,1,.74-.14A3.49,3.49,0,0,1,907.7,16l46.49-12.4a3.48,3.48,0,0,1,.9-.12,3.52,3.52,0,0,1,2.57,1.12,3.35,3.35,0,0,1,.43.58,4,4,0,0,1,.59,0,3.49,3.49,0,0,1,2.47,1l33.7,33.65a3.49,3.49,0,0,1,.82,3.66c0,.1-.08.2-.13.3l.14.15a3.51,3.51,0,0,1,.7,3.16l-12.1,45.14a3.49,3.49,0,0,1-2.22,2.4,3.48,3.48,0,0,1-.12.84,3.53,3.53,0,0,1-2.48,2.47l-46.64,12.44A3.42,3.42,0,0,1,931.92,110.5ZM984.7,53.29l.08-.32-.26,0Zm-24.46-5.07c.21.44.4.9.58,1.36.11.3.22.6.32.9l.28-1.07ZM978,36.53c.09.43.17.84.23,1.25l.9-.11Zm-33.29-1.16a24.8,24.8,0,0,1,4.53,1.74l-2.32-2.34Z" fill="#333"/><path d="M955.09,7h0m0,0-5.42,15.36-.43.11-28.41,7.65L908.6,19.41,955.09,7m-5.21,4.19-24.43,6.16A92.66,92.66,0,0,1,941,15.56c4.64,0,7.07.91,7.11,2.71l1.8-7.08h0m8.8-2.54,33.7,33.64-20.12,1.85L953,24.81l5.71-16.16m15.55,33.17,12.38-1.59-26-26c6.81,8.38,17,23.05,13.6,27.55M905.52,21.93l12,10.53-7.85,29.28-16.62,6.62,12.45-46.43m1.2,5.83c6.17,7.39,3,28.34-7.64,34.77l8.21-3.33,6.34-25-6.91-6.41h0m42.44-1.2h0m0,0,20.47,20.52-7.52,28.06-28,7.53L913.66,62.15l7.51-28.06,28-7.53M921.91,45.19c5-5.07,10.81-7.21,16.27-7.21,16.61,0,30.32,19.77,11.39,36.85L959,72.31l6.34-23.94-17.39-17.5h0L924,37.32l-2.08,7.87m71.09,1h0m0,0L980.9,91.33l-15-15.12L973.46,48,993,46.18m-9.79,27.36,6.15-24.44-12.6,1c6.44,4.35,7.87,9,6.45,23.46m-71.93-8.2h0m0,0,20.44,20.49-3.64,20.35-34-34,17.23-6.87m14.89,34.47,1.56-12.92L911.3,69.55h0c8.91,12.18,13.77,20.88,14.87,30.26M963.08,79l15.48,15.6L931.92,107l3.7-20.66L963.08,79M947.86,100l24.25-6.89L967,87.89c-1.6,4.24-6.24,6.55-19.14,12.12M955.09,0h-.4a6.7,6.7,0,0,0-1.56.27L906.8,12.64a7,7,0,0,0-4,2.84,7,7,0,0,0-4,4.64L886.31,66.55a7,7,0,0,0,.74,5.38,7,7,0,0,0,2.05,5.23l34,34a7,7,0,0,0,5,2.05l.51,0a7,7,0,0,0,5.14.6l46.64-12.44a7,7,0,0,0,4.79-4.44,6.92,6.92,0,0,0,2.5-3.74L999.76,48a7,7,0,0,0-.44-4.83,7,7,0,0,0-2-5.83L963.63,3.7a7.05,7.05,0,0,0-3.93-2A7.05,7.05,0,0,0,955.28,0ZM993,53.18h0Z" fill="#fff"/><path d="M955.09,7,908.6,19.41l12.23,10.71,28.41-7.65.43-.11Zm3.59,1.65L953,24.81l19.29,19.33,20.12-1.85Zm-8.8,2.54-1.8,7.08c-.06-3.27-8-3.58-22.63-.92l24.43-6.16Zm10.75,3.08,26,26-12.38,1.59C977.64,37.32,967.44,22.65,960.63,14.27Zm-55.11,7.66L893.07,68.36l16.62-6.62,7.85-29.28Zm43.64,4.63-28,7.53-7.51,28.06,20.46,20.52,28-7.53,7.52-28.06L949.16,26.56Zm-42.44,1.2,6.91,6.41-6.34,25-8.21,3.33c10.69-6.43,13.81-27.38,7.64-34.77Zm41.21,3.11,17.39,17.5L959,72.31l-9.41,2.52c25.15-22.69-7.32-50.15-27.66-29.64L924,37.32l23.94-6.45ZM993,46.18,973.46,48l-7.57,28.23,15,15.12L993,46.18Zm-3.64,2.92-6.15,24.44c1.42-14.49,0-19.11-6.45-23.46ZM911.28,65.34l-17.23,6.87,34,34,3.64-20.35L911.28,65.34Zm0,4.21,16.43,17.34-1.56,12.92c-1.1-9.38-6-18.08-14.87-30.26ZM963.08,79l-27.46,7.39L931.92,107l46.64-12.45L963.08,79ZM967,87.89l5.11,5.23L947.86,100C960.76,94.44,965.4,92.13,967,87.89Z" fill="#333"/></svg>