<svg xmlns="http://www.w3.org/2000/svg" viewBox="0 0 1000 114"><title>logo_right</title><g id="Layer_2" data-name="Layer 2"><rect x="632.2" y="29.34" width="112.33" height="38.35" fill="#fff"/></g><g id="Layer_1" data-name="Layer 1"><rect x="579.51" y="43.57" width="30.3" height="28.64" fill="#fff"/><rect x="649.75" y="41.74" width="19.18" height="12.58" fill="#fff"/><rect x="747.33" y="53.93" width="25.51" height="21.9" fill="#fff"/><g id="Calque_1" data-name="Calque 1"><path d="M627,28.13a1,1,0,0,1,.15,1.92c-32.19,5.06-52.47,15.71-52.95,27.8-.28,7.16,6.67,14.56,19.58,20.83a1,1,0,0,1,.31,1.38,1,1,0,0,1-.73.46h0a1,1,0,0,1-.42-.09c-13.84-6.73-21-14.56-20.68-22.66.27-6.67,5.71-13,15.74-18.21,9.53-5,23-8.92,38.85-11.42H627m0-7a8.48,8.48,0,0,0-1.23.09c-16.64,2.62-30.81,6.81-41,12.13-15.66,8.18-19.25,17.65-19.5,24.13C565,65.22,569,76.57,589.89,86.73l.14.06a8,8,0,0,0,6.83-14.4c-11.74-5.7-15.77-11.25-15.65-14.27.21-5.35,13.16-15.83,47-21.15A8,8,0,0,0,627,21.13Z" fill="#fff"/><path d="M681.86,25.49h0a284.43,284.43,0,0,1,32.3,3.35,1,1,0,0,1-.19,1.93h-.16a280.59,280.59,0,0,0-32.08-3.34,1,1,0,0,1,0-1.93m0-7a8,8,0,0,0-.35,15.93,273.18,273.18,0,0,1,31.27,3.25H713a7.42,7.42,0,0,0,.94.06h0A8,8,0,0,0,715.2,21.9a291.65,291.65,0,0,0-33.1-3.43Z" fill="#fff"/><path d="M724.2,30.85h.19c16.26,3.44,29.91,8.26,39.47,13.92,10.07,6,15.28,12.72,15.06,19.54-.28,9.25-10.48,17.26-28.71,23.3-17.61,5.84-41.28,8.65-66.71,8.65h-.81c.27,0,.54-.57.81-.57,52,0,92.94-13.79,93.48-31.14.19-6.07-4.69-12.38-14.11-18S740,36.22,724,32.82a1,1,0,0,1-.75-1.19,1,1,0,0,1,1-.78m0-7a8,8,0,0,0-1.85,15.78h.19c15.2,3.22,27.91,7.7,36.76,12.94,8,4.74,10.76,9.16,10.68,11.73-.12,3.76-6.13,10.12-22.68,15.65-16.8,5.61-39.45,8.7-63.8,8.7a7.3,7.3,0,0,0-4.79,1.81,7,7,0,0,0,4,12.76h.81c27.32,0,51.15-3.11,68.91-9C774.26,87,785.53,77,785.91,64.55c.22-6.64-2.82-16.5-18.48-25.78-10.22-6-24.6-11.15-41.59-14.75h-.14a8.37,8.37,0,0,0-1.5-.14Z" fill="#fff"/><path d="M726.71,27,701.08,46.52l2.7,12.21-8.46-8.81-30.1,12,25.63-19.54-2.7-12.19L696.64,39l30.1-12m0-7a7,7,0,0,0-2.6.5L698.39,30.76l-5.19-5.4a7,7,0,0,0-11.88,6.36l1.73,7.83L661,56.37a7,7,0,0,0,6.84,12.07l25.72-10.27,5.19,5.4a7,7,0,0,0,11.91-6.36l-1.73-7.83L731,32.56A7,7,0,0,0,726.71,20Z" fill="#fff"/><path d="M746.29,52.41c.75,0,1.21.64,1,1.52a2.54,2.54,0,0,1-1.92,2l-11.22,1.79.13-.69a4.35,4.35,0,0,1,3.1-3.23l1.16-.18,4.6-.73,2.88-.46h.23m0-7a8.78,8.78,0,0,0-1.35.11L742,46l-4.58.73-1.16.18a6.69,6.69,0,0,0-.75.16,11.37,11.37,0,0,0-8.08,8.39,1.86,1.86,0,0,1-.07.34l-.13.69a7,7,0,0,0,5.64,8.14,7.45,7.45,0,0,0,1.25.11,6.71,6.71,0,0,0,1.1-.09l11.22-1.78.55-.11a9.59,9.59,0,0,0,7.14-7.45v-.1a8.4,8.4,0,0,0-1.72-6.91,8.06,8.06,0,0,0-6.2-2.89Z" fill="#fff"/><path d="M679.27,63.48h0m0,0L676.94,76l-10.88,1.73a6.85,6.85,0,0,1-.78.07c-1.25,0-1.63-.71-1.32-2.36l1.33-7.14a3.27,3.27,0,0,1,3.1-3.11l10.88-1.72m-9.74,8.73a15.34,15.34,0,0,0,1.8-.29l1.71-.27.53-2.84-1.71.27c-1.83.29-2.51,0-2.87,1.84-.17,1,0,1.29.54,1.29m9.74-15.73H679a8.49,8.49,0,0,0-1,.11l-10.49,1.66a10.27,10.27,0,0,0-9.22,9.11l-1.27,6.81a9,9,0,0,0,1.69,7.71,8.3,8.3,0,0,0,6.52,2.93,10.76,10.76,0,0,0,1.88-.16L678,82.93a7,7,0,0,0,5.79-5.64L686.11,65a7,7,0,0,0-6.74-8.51Z" fill="#fff"/><path d="M657.22,12.88c5.08,0,8.63,4.53,7.58,10.16l-1.64,8.84C662,38,655.64,44.55,649.78,45.48l-10.92,1.73-2.44,13.11,15-2.38h.67a8.74,8.74,0,0,1,6.55,2.9,15.26,15.26,0,0,1,8.73-5.22l4.06-.68-7,5.36v.36A7.57,7.57,0,0,0,660.48,66L658,79.41c-.53,2.81.7,4.55,3.1,4.55a5.47,5.47,0,0,0,.9-.08l13.89-2.2-.58,3.09c-.91,4.9-6.18,9.6-10.87,10.34L659.1,96,658,101.65l7-1.11c6.85-1.09,14.58-8,15.92-15.24l5.3-28.49h-.14l-8.33,1.32,17.58-6.35,4.88,5.76-3.88,20.87,5.93-.94,3.39-18.23L716,57.59a7,7,0,0,1,.79-.07c1.25,0,1.62.71,1.32,2.35l-2.88,15.6,5.4-.86s3.85-20.54,4-21a2.89,2.89,0,0,0-3.11-2.31,5.46,5.46,0,0,0-.9.07l-15,2.4-1.87-4.13L720.4,47h.69a8.77,8.77,0,0,1,6.08,2.45,13.87,13.87,0,0,1,7.7-4.72l15-2.38a6.73,6.73,0,0,1,1-.07c3.51,0,9.23,2.34,8,9.34l-.41,2.06a13.3,13.3,0,0,1-2.94,5.64l1.69,1.21-2.43,13.07-26.1,4.14a6.6,6.6,0,0,1-1.17.1,7.07,7.07,0,0,1-2.72-.55l-.2,1.1-15.1,2.39,3.1-16.68c.23-1.22.42-1.54.08-1.54a12.74,12.74,0,0,0-1.32.23l-1.7.27-3.39,18.24-21,3.33c-2.11,10.64-8.67,19.55-25.94,21.26l-7,1.11,2.87-15.39,5.33-.84c4.69-.74,7.76-1.32,8.19-3.65L657.07,89h-.2a6.42,6.42,0,0,1-1.16-.11l-.09.5-15.1,2.39,3.12-16.73c.23-1.22.42-1.54.08-1.54a12.24,12.24,0,0,0-1.31.23l-1.77.26-3.4,18.24-41.88,6.66a4.17,4.17,0,0,1-.5,0c-1.57,0-2.54-1.28-2.21-3.07l8.21-44.17a5.36,5.36,0,0,1,4-4.09l22-3.49,5.08-27.35L655.81,13a8.37,8.37,0,0,1,1.41-.11M640.87,36.4l7.55-1.2a2.37,2.37,0,0,0,1.94-2l1.37-7.41c.18-.94-.21-1.48-1-1.48h-.31l-7.55,1.21-2,10.82M731,72.88a4.14,4.14,0,0,0,.93-.1l18.15-2.88,1.08-5.84-16.08,2.56h-.28a2.1,2.1,0,0,1-.56-.08A1.86,1.86,0,0,1,733,64.21h0l.2-1.29,14.43-2.23A7.66,7.66,0,0,0,753,55l.68-3.56c.45-2.39-.94-4.83-3-4.83h-.44l-13.87,2.2a10.37,10.37,0,0,0-7.62,7.45l-2.14,11.14a4.5,4.5,0,0,0,0,2A4.45,4.45,0,0,0,731,72.92M625.91,49.26l-20.49,3.25-7.73,41.6,24.8-3.93,1.15-6.27-18.88,3,2.24-12L618.88,73l1-5.69L608.07,69.2l2.23-12L624.86,55l1-5.7m60.21,30.82L692,79.2l4.45-23.94-5.8.92h-.13l-4.45,23.93m-72.3-16.2,11.33-1.8-2.76,14.82L611,78.73l-.53,2.84,14-2.23,3.81-20.5-14,2.22-.53,2.85m13.58,25.5,5.93-.94,3.36-18.24L647,68.59a5.27,5.27,0,0,1,.79-.07c1.26,0,1.63.71,1.32,2.35l-2.86,15.54,5.93-.94,3.49-18.66c.52-2.81-.71-4.55-3.1-4.55a5.46,5.46,0,0,0-.9.07l-19.7,3.12h-.15l-4.44,24M657.22,5.88h0a15,15,0,0,0-2.5.2L630.85,9.86a7,7,0,0,0-5.78,5.64L620.89,38l-17.09,2.7a3.58,3.58,0,0,0-.45.09A12.37,12.37,0,0,0,594,50.26v.17L585.81,94.6a9.75,9.75,0,0,0,2,8.07,9.24,9.24,0,0,0,7.11,3.28,10.68,10.68,0,0,0,1.6-.13l41.92-6.65a7.23,7.23,0,0,0,1.59-.45h.55a6.71,6.71,0,0,0,1.1-.09l5.3-.84-1.47,7.92a7,7,0,0,0,5.6,8.16,6.85,6.85,0,0,0,1.28.12,6.71,6.71,0,0,0,1.1-.09l6.81-1.07c15.85-1.63,26.34-9.2,30.63-22l16.53-2.62a7.31,7.31,0,0,0,1.6-.45h.54a8,8,0,0,0,1.1-.08l15.1-2.4a7,7,0,0,0,1.62-.46h.2a13.64,13.64,0,0,0,2.3-.19L756,80.49a7,7,0,0,0,5.78-5.63l2.45-13.11a6.92,6.92,0,0,0-.08-2.9,19.06,19.06,0,0,0,1.24-3.59l.06-.27.41-2.06v-.2a14.39,14.39,0,0,0-3-12.17,15.7,15.7,0,0,0-11.94-5.34,13.89,13.89,0,0,0-2.13.16l-15,2.37-.43.08a21,21,0,0,0-7,3,15.8,15.8,0,0,0-5.24-.89h-1.24l-.55.06-16.68,2.72a7,7,0,0,0-4.48,2.68,7.16,7.16,0,0,0-2.78-.57,6.9,6.9,0,0,0-2.38.42L677.15,51a7,7,0,0,0-5.76-3,7.68,7.68,0,0,0-1.17.09l-4.06.69h-.22a22.16,22.16,0,0,0-8,3.31,15.64,15.64,0,0,0-3-.88c7.19-3,13.62-10.43,15-18l1.7-8.9a16,16,0,0,0-3.2-13.22,14.57,14.57,0,0,0-11.26-5.22Zm12.79,59,2.57-2a7,7,0,0,0,5,2.32l-1.77,9.54a5.63,5.63,0,0,0-1,.09l-9.08,1.44,1.66-8.93h0a.59.59,0,0,1,.3-.42,6.94,6.94,0,0,0,2.34-2Z" fill="#fff"/><path d="M694.27,7c5.31,0,8.9,4.62,7.8,10.54l-.43,2.56-12.54,2,.4-2.14c.18-1-.28-1.6-1.11-1.6h-.3l-6.2,1a2.64,2.64,0,0,0-2.09,2.14l-3.16,16.8c-.19,1,.27,1.6,1.11,1.6h.3l6.2-1a2.61,2.61,0,0,0,2.09-2.13l.3-1.57.91-.11,1.6,6.35L676.9,50.86l-4,.63a8.59,8.59,0,0,1-1.52.13c-5.31,0-8.89-4.62-7.79-10.54l3.33-17.95C668.08,16.66,674.64,10,680.75,9l12-1.91A9.62,9.62,0,0,1,694.27,7m0-7a16.56,16.56,0,0,0-2.63.21l-12,1.9C670.57,3.56,661.75,12.41,660,21.85l-3.34,18a16.36,16.36,0,0,0,3.24,13.54,14.75,14.75,0,0,0,11.44,5.28,16.43,16.43,0,0,0,2.62-.21l4-.64a7,7,0,0,0,3.17-1.36L693.38,47a7,7,0,0,0,2.53-7.26l-1.6-6.35a7,7,0,0,0-3.51-4.48L702.69,27a7,7,0,0,0,5.78-5.62l.48-2.57a16.37,16.37,0,0,0-3.23-13.54A14.78,14.78,0,0,0,694.27,0Zm-8.63,28.27V28.2l.11.06h-.12Z" fill="#fff"/><path d="M699.16,33.22h0m0,0-.43,2.28a10,10,0,0,1-.72,2.12L694.16,34l5-.79m0-7h-.23a8.47,8.47,0,0,0-1,.1l-4.88.78a7,7,0,0,0-3.69,12l3.85,3.6A7,7,0,0,0,698,44.6a7.4,7.4,0,0,0,1.33-.13,7,7,0,0,0,5-3.92,18.13,18.13,0,0,0,1.2-3.53.47.47,0,0,1,.05-.25l.39-2.05a7,7,0,0,0-6.73-8.52Z" fill="#fff"/><path d="M821.18,50.69h23.18a10.47,10.47,0,0,1,6,2.2,11.52,11.52,0,0,1,4.2,5.53,11.06,11.06,0,0,1,.64,5.46,12.35,12.35,0,0,1-2.11,5.6,11.74,11.74,0,0,1-7.45,4.9,7.31,7.31,0,0,1-1.14.1H821.16c-.47,0-.6-.11-.59-.6V51.28c0-.49.14-.6.62-.6m3.58,1.76h-2c-.42,0-.55.09-.55.54V72.31c0,.44.11.55.53.55h21.74a8.34,8.34,0,0,0,3.89-1.15,9,9,0,0,0,2.69-2.19,13.17,13.17,0,0,0,1.57-2.46h0a10.78,10.78,0,0,0,.94-5.31,8.42,8.42,0,0,0-.49-2.33,10.08,10.08,0,0,0-3-4.46,9.06,9.06,0,0,0-6-2.48H824.78m-3.58-8.76A7.46,7.46,0,0,0,813.58,51V73.9a7.4,7.4,0,0,0,7.17,7.62h23.73a12.94,12.94,0,0,0,2.41-.22,18.57,18.57,0,0,0,12-7.77,19.55,19.55,0,0,0,3.29-8.7,18.79,18.79,0,0,0-7.64-17.52,17.5,17.5,0,0,0-9.9-3.58H821.2Zm8,15.75h14.72a2,2,0,0,1,1.31.55l.27.25a3.08,3.08,0,0,1,.94,1.39.21.21,0,0,1,0,.11,1.65,1.65,0,0,1,.1.44v.08a3.71,3.71,0,0,1-.28,1.74,5.91,5.91,0,0,1-.65,1,2.19,2.19,0,0,1-.6.49l-.24.13a1.52,1.52,0,0,1-.59.19h-15V59.47Z" fill="#fff"/><path d="M871.39,55.24H891A3.16,3.16,0,0,1,894,57.66a3.07,3.07,0,0,1-1.87,3.56,6.8,6.8,0,0,1-2,.32H871.48c-.45,0-.57-.11-.57-.57V55.73c0-.37.08-.5.47-.5m2,4.57h17.26a2.34,2.34,0,0,0,1.21-.33h0a1.34,1.34,0,0,0,.71-1.19A1.32,1.32,0,0,0,891.24,57h-18c-.41,0-.56.1-.53.54a7.9,7.9,0,0,1,0,1.46c0,.58.1.77.72.77m-2-11.57A7.5,7.5,0,0,0,866,50.37a7.36,7.36,0,0,0-2.13,5.37v5.1A7.41,7.41,0,0,0,871,68.52h19.09a13.39,13.39,0,0,0,4.21-.67l.38-.13a10.13,10.13,0,0,0,6.15-11.67V56A10.15,10.15,0,0,0,891,48.22h-19.6Z" fill="#fff"/><path d="M985.49,43.57h3.08a4.37,4.37,0,0,1,4.32,3.68,4.57,4.57,0,0,1-3.06,5.43,4,4,0,0,1-1.23.2h-3.47a.71.71,0,0,0-.62.37h8c.33,0,.5,0,.49.46v3.21c0,.39-.12.54-.52.54H979.26c-.34,0-.43-.11-.42-.43,0-1.17-.06-2.33,0-3.49A4.43,4.43,0,0,1,982,49.15a5.16,5.16,0,0,1,1.41-.19h3.42c.79,0,1-.16,1-.64s-.35-.65-1-.65h-6.22c-.41,0-.55-.11-.53-.55V44.27c0-.48.17-.7.67-.7h4.82m-4.18,3.3h4.84a7.5,7.5,0,0,1,1.34.11,1.41,1.41,0,0,1-.19,2.8H984a9.93,9.93,0,0,0-1.88.21,3.58,3.58,0,0,0-2.4,2.65,20,20,0,0,0-.24,3.45c0,.51.12.7.64.7h11.61c.25,0,.33-.16.32-.46h0a15.88,15.88,0,0,1,0-1.69c0-.41-.08-.56-.5-.56h-8c-.33,0-.43-.13-.41-.48a1.78,1.78,0,0,1,1.74-1.51h4.25l.27-.07A3.79,3.79,0,0,0,992,47.33a3.56,3.56,0,0,0-2.72-2.71,5.6,5.6,0,0,0-1.47-.2h-6.31c-.48,0-.74.13-.68.68a6.22,6.22,0,0,1,0,1.22c0,.42.07.56.49.56m4.18-10.3h-4.78a7.52,7.52,0,0,0-7.7,7.33,4.17,4.17,0,0,0,0,.5v2.45a8.33,8.33,0,0,0,.07,1.41,11.37,11.37,0,0,0-1.22,5.11v3.55a7.31,7.31,0,0,0,7.07,7.53h13.49a7.4,7.4,0,0,0,7.56-7.24c0-.15,0-.3,0-.45V53.92a7.62,7.62,0,0,0-.34-2.55A11.75,11.75,0,0,0,991.27,37a12,12,0,0,0-2.67-.39h-3.1Z" fill="#fff"/><path d="M859.79,59.53A5,5,0,0,1,862,60h0a3.13,3.13,0,0,1,1.64,3.33,3.17,3.17,0,0,1-2.8,2.83,2.28,2.28,0,0,1-.77.14h-.2c-2.11-.09-3.3-.9-3.82-2.46a3.42,3.42,0,0,1,2.4-4.2,3.6,3.6,0,0,1,.8-.12h.52m.1,5.06h.62a1.39,1.39,0,0,0,1.32-1h0a1.55,1.55,0,0,0-.28-1.7,1.61,1.61,0,0,0-1.26-.44h-1.38a1.51,1.51,0,0,0-1.39,1.46,1.72,1.72,0,0,0,1,1.56,5.86,5.86,0,0,0,1.32.14m-.1-12.06h-1a10.42,10.42,0,0,0-9.84,10.73,10.79,10.79,0,0,0,.36,2.4,1.23,1.23,0,0,0,.13.41c1.46,4.34,5.11,7,10,7.2H860a9.46,9.46,0,0,0,2.37-.31,10.27,10.27,0,0,0,8.14-8.7,10.07,10.07,0,0,0-5.45-10.54H865a12.06,12.06,0,0,0-5.28-1.22Z" fill="#fff"/><path d="M835.48,55.24h6.93a6.62,6.62,0,0,1,4,1.62,7.11,7.11,0,0,1,2.69,6.61,7.31,7.31,0,0,1-4.93,6.27,4.64,4.64,0,0,1-1.57.28H827c-.41,0-.57-.08-.57-.56V55.77c0-.47.13-.57.57-.57h8.52M830.35,57h-1.71c-.41,0-.52.11-.52.51V67.89c0,.5.18.56.6.56H843.1a5.74,5.74,0,0,0,4.33-6.84,5.2,5.2,0,0,0-5.12-4.6h-12m5.13-8.75H827a7.4,7.4,0,0,0-7.6,7.19v14a7.56,7.56,0,0,0,2.16,5.42A7.45,7.45,0,0,0,827,77.08h15.68a11.4,11.4,0,0,0,3.92-.69,14.33,14.33,0,0,0,9.53-12.07,14.14,14.14,0,0,0-5.19-12.8,13.69,13.69,0,0,0-8.07-3.21h-7.27Z" fill="#fff"/><path d="M865.57,50.58h26.68a7.89,7.89,0,0,1,7.6,6.09,7.55,7.55,0,0,1-.52,4.91,6.33,6.33,0,0,1-1.06,1.81h0a.49.49,0,0,0,0,.69h0A9.52,9.52,0,0,1,900,68.27h0a9.26,9.26,0,0,1,.12,1.49V74c0,.35-.06.5-.46.5h-6.79c-.37,0-.46-.12-.46-.49V69a2.65,2.65,0,0,0-2.22-2.51,10.41,10.41,0,0,0-1.48-.1H873.26c-.46,0-.61.09-.6.59v6.88c0,.48-.14.59-.59.59h-6.59c-.4,0-.5-.12-.5-.52V51.11c0-.49.17-.55.6-.55m1.67,22.28h3.11c.37,0,.47-.12.47-.52v-7c0-.5.09-.68.64-.68h18a5.93,5.93,0,0,1,2,.35,4.34,4.34,0,0,1,2.65,3.69v3.67c0,.33.06.47.4.47h3.21c.34,0,.41-.14.4-.47V68.74A5.93,5.93,0,0,0,897.4,66a6.73,6.73,0,0,0-1.31-1.86c-.44-.46-.26-.68.09-1a6.23,6.23,0,0,0-4-10.82H867.36c-.61,0-.76.2-.71.77s0,1.13,0,1.69V72.27c0,.46.11.6.52.6m-1.66-29.28h0a7.42,7.42,0,0,0-7.6,7.22V74a7.36,7.36,0,0,0,7.19,7.53H872a7.4,7.4,0,0,0,7.6-7.19,4,4,0,0,0,0-.49v-.38h5.69v.48a7.5,7.5,0,0,0,2.13,5.4,7.43,7.43,0,0,0,5.33,2.17h6.85a7.35,7.35,0,0,0,7.46-7.24c0-.11,0-.22,0-.34v-4.2a18.26,18.26,0,0,0-.2-2.45,16.48,16.48,0,0,0-.88-3.38,14.67,14.67,0,0,0,.7-8.76A14.87,14.87,0,0,0,892.38,43.6H865.51Z" fill="#fff"/><path d="M912.39,50.69h16.49a10.85,10.85,0,0,1,4.51,1.13,10.65,10.65,0,0,1,3.37,2.42,12,12,0,0,1,3.17,6.39,11.67,11.67,0,0,1-.84,6.7,11.41,11.41,0,0,1-3.77,4.73,11.9,11.9,0,0,1-4.45,2.09,10.12,10.12,0,0,1-2.32.31h-16a11.9,11.9,0,0,1-1.91-23.65,13.31,13.31,0,0,1,1.78-.12m3,1.64h-2.88a10.83,10.83,0,0,0-2.33.28,9.55,9.55,0,0,0-5.69,3.68,10.13,10.13,0,0,0-1.42,10,10,10,0,0,0,9.34,6.49h15.67a13.1,13.1,0,0,0,2.93-.33,9.5,9.5,0,0,0,3.84-2,9.87,9.87,0,0,0,3.38-5.77,10.36,10.36,0,0,0-.69-6.33,9.92,9.92,0,0,0-2.72-3.57A9.12,9.12,0,0,0,929,52.43H915.43m-3-8.64a19.27,19.27,0,0,0-2.73.19h-.22a18.88,18.88,0,0,0-4,36.1,19.07,19.07,0,0,0,7.15,1.42h16a16.48,16.48,0,0,0,3.89-.52,18.53,18.53,0,0,0,6.94-3.26,18.95,18.95,0,0,0,2.35-28.25,17.54,17.54,0,0,0-5.45-3.93,17.87,17.87,0,0,0-7.32-1.8H912.39Zm3,15.64h13.38a2.14,2.14,0,0,1,1.36.55l.21.19a2.81,2.81,0,0,1,.81,1.06,3.28,3.28,0,0,1,.21,2.05v.1a3,3,0,0,1-1,1.71l-.07.06a2.4,2.4,0,0,1-1,.52,6.55,6.55,0,0,1-1.25.13H912.43a3,3,0,0,1-2.79-2l-.06-.15a3.12,3.12,0,0,1,.44-3.07.91.91,0,0,0,.11-.16,2.61,2.61,0,0,1,1.53-1h.18a2.74,2.74,0,0,1,.7-.09Z" fill="#fff"/><path d="M949.28,50.59h21a7.34,7.34,0,0,1,4.87,1.84,7.49,7.49,0,0,1,2.76,6V73.76c0,.46-.1.61-.56.61h-6.52c-.48,0-.55-.17-.55-.63V59.65a2.7,2.7,0,0,0-2.47-2.82c-1.35-.08-2.7,0-4-.08h-.17c-.35,0-.31.24-.31.48V73.89c0,.43-.07.59-.53.59h-6.23c-.44,0-.54-.14-.54-.58V57.41c0-.48-.09-.67-.56-.67h-3.19a4.51,4.51,0,0,0-1.58.29,2.51,2.51,0,0,0-1.52,2.47V73.72c0,.5-.13.62-.59.62h-6.65c-.36,0-.48-.1-.47-.48V57.61a6.73,6.73,0,0,1,1.76-4.24A7.53,7.53,0,0,1,947,50.88a8.3,8.3,0,0,1,2.27-.32m6.12,1.75h-5.77a9.39,9.39,0,0,0-2.41.32,5.64,5.64,0,0,0-4.05,5c-.06,4.87,0,9.75,0,14.62,0,.34.12.42.42.42h3.24c.44,0,.54-.17.54-.64V59.62a4.77,4.77,0,0,1,.68-2.5,4.38,4.38,0,0,1,3.71-2.06h5.36c.5,0,.64.15.63.69V72.18c0,.44.07.62.5.62h2.82c.45,0,.55-.2.55-.68V55.63c0-.44.11-.58.54-.58h5.4a4.66,4.66,0,0,1,2.38.68A4.31,4.31,0,0,1,972,59.54V72.13c0,.38.08.52.46.52h3.17c.42,0,.49-.18.49-.6v-14a5.32,5.32,0,0,0-.73-2.83,5.78,5.78,0,0,0-5-2.93h-15m-6.12-8.75h0a15.2,15.2,0,0,0-4.19.59,14.48,14.48,0,0,0-7.16,4.64,13.74,13.74,0,0,0-3.46,8.48V73.82a7.33,7.33,0,0,0,7.16,7.5h7a8,8,0,0,1,8,.13h6.31a7.94,7.94,0,0,1,7.94-.13h6.6A7.42,7.42,0,0,0,985,74.05a2.54,2.54,0,0,0,0-.39V58.46a14.79,14.79,0,0,0-14.63-14.93H949.25Z" fill="#fff"/><path d="M798.07,50.69h20.12c.49,0,.67.08.65.62v5.13c0,.47-.13.57-.57.57H797.34a5.4,5.4,0,0,0-3.52,1.49,5.47,5.47,0,0,0-1.88,3.87,5.32,5.32,0,0,0,1.15,3.8,5.72,5.72,0,0,0,4.55,2.26h20.54c.54,0,.65.16.64.67V74c0,.41-.11.52-.52.52H796a11.28,11.28,0,0,1-7.59-2.94,10.91,10.91,0,0,1-3.69-6.46,12,12,0,0,1,1.08-7.81,12.33,12.33,0,0,1,3.83-4.47,10.78,10.78,0,0,1,4.68-1.89,28,28,0,0,1,3.77-.25m-1.83,1.77H796a7.92,7.92,0,0,0-1.61.16,7.72,7.72,0,0,0-.83.2,10.3,10.3,0,0,0-7,12.75,9.23,9.23,0,0,0,3,4.88A9.68,9.68,0,0,0,796,72.84h20.52c.49,0,.62-.15.58-.62a10.29,10.29,0,0,1,0-1.57c0-.52-.12-.63-.62-.63H797.16a6.36,6.36,0,0,1-1.07-.1,6.71,6.71,0,0,1-4.24-2.64,7.27,7.27,0,0,1-1-7.29,7.43,7.43,0,0,1,6.67-4.66h19c.54,0,.68-.16.64-.68h0a11,11,0,0,1,0-1.62c0-.52-.12-.64-.63-.64H796.26m1.83-8.77a36.65,36.65,0,0,0-4.68.3h-.14A18.13,18.13,0,0,0,785.58,47a19.48,19.48,0,0,0-6,7,19,19,0,0,0-1.72,12.26,18,18,0,0,0,6,10.44,18.29,18.29,0,0,0,12.19,4.68h22.3a7.35,7.35,0,0,0,7.55-7.14,3.38,3.38,0,0,0,0-.45V69.16a7.5,7.5,0,0,0-2.13-5.59,7.37,7.37,0,0,0-1.09-.92,7.4,7.4,0,0,0,3.22-6.37V51.41a7.43,7.43,0,0,0-7.08-7.78,5.42,5.42,0,0,0-.57,0H798.09Z" fill="#fff"/><path d="M914.36,55.23h12.4a7.3,7.3,0,0,1,6.29,3.61,6.86,6.86,0,0,1,1,4.59,7.33,7.33,0,0,1-6.3,6.5,15.47,15.47,0,0,1-1.92.12H914.2a7.5,7.5,0,0,1-5.56-2.47,7.4,7.4,0,0,1,.57-10.45,7.51,7.51,0,0,1,1.55-1.07,8.42,8.42,0,0,1,3.62-.83m.1,13.19h12.06a6.23,6.23,0,0,0,4.06-1.5h0a5.53,5.53,0,0,0,1.81-5.6A5.67,5.67,0,0,0,927,56.89H913.41A5,5,0,0,0,909.52,59a5.57,5.57,0,0,0-1.19,4.56,5.63,5.63,0,0,0,2.53,3.87,6.81,6.81,0,0,0,3.6,1m-.1-20.19h0a15.68,15.68,0,0,0-6.66,1.52h-.09a14.41,14.41,0,0,0-6.31,19.38A14.39,14.39,0,0,0,914.2,77h11.59a23.27,23.27,0,0,0,2.77-.17h.08a14.32,14.32,0,0,0,12.28-12.58A13.85,13.85,0,0,0,939,55.2a14.33,14.33,0,0,0-12.28-7H914.36Z" fill="#fff"/><path d="M593.37,80.52a1,1,0,0,1-.42-.09c-13.84-6.73-21-14.56-20.68-22.66.27-6.67,5.71-13,15.74-18.21,9.53-5,23-8.92,38.85-11.42a1,1,0,0,1,.89,1.1,1,1,0,0,1-.59.81c-32.19,5.06-52.47,15.71-52.95,27.8-.28,7.16,6.67,14.56,19.58,20.83a1,1,0,0,1,.31,1.38,1,1,0,0,1-.73.46Z"/><path d="M714.06,30.77h-.16a280.59,280.59,0,0,0-32.08-3.34,1,1,0,0,1-.44-1.95,1,1,0,0,1,.52,0h0a284.43,284.43,0,0,1,32.3,3.35,1,1,0,0,1-.19,1.93Z"/><path d="M683.5,96.26h-.81c.27,0,.54-.57.81-.57,52,0,92.94-13.79,93.48-31.14.19-6.07-4.69-12.38-14.11-18S740,36.22,724,32.82a1,1,0,0,1,.4-1.95c16.26,3.44,29.91,8.26,39.47,13.92,10.07,6,15.28,12.72,15.06,19.54-.28,9.23-10.48,17.24-28.71,23.28C732.64,93.45,708.93,96.26,683.5,96.26Z"/><polygon points="701.08 46.52 726.71 26.99 696.61 39.01 688.15 30.21 690.85 42.4 665.22 61.94 695.32 49.92 703.78 58.73 701.08 46.52"/><path d="M669,70.92c.36-1.82,1-1.55,2.87-1.84l1.71-.27L673,71.65l-1.71.27C669.49,72.22,668.69,72.7,669,70.92Zm-3.7-2.61L664,75.45c-.36,2,.23,2.59,2.1,2.29L676.94,76l2.33-12.53L668.39,65.2A3.27,3.27,0,0,0,665.29,68.31Zm69-11.28-.13.69,11.22-1.79a2.54,2.54,0,0,0,1.92-2c.18-1-.39-1.64-1.27-1.5l-2.88.46-4.6.73-1.16.18A4.35,4.35,0,0,0,734.29,57ZM655.64,89.35l.09-.5a6.19,6.19,0,0,0,1.36.11l11.65-1.83c-.43,2.33-3.5,2.91-8.19,3.65l-5.33.84L652.33,107l7-1.11c17.27-1.71,23.83-10.62,25.94-21.26l21-3.33,3.39-18.24,1.7-.27c1.88-.3,1.6-.63,1.24,1.31l-3.1,16.68,15.14-2.39.2-1.1a7,7,0,0,0,3.89.45l26.1-4.14,2.44-13.11-1.69-1.21a13.3,13.3,0,0,0,2.94-5.64l.41-2.06c1.3-7.73-5.83-9.79-9.08-9.27l-15,2.38a13.87,13.87,0,0,0-7.7,4.72A8.74,8.74,0,0,0,720.4,47l-16.68,2.64,1.92,4.12,15-2.39c2.16-.34,3.61.52,4,2.24-.16.45-4,21-4,21l-5.4.86,2.89-15.55c.36-2-.23-2.58-2.11-2.28L705.69,59.3,702.3,77.53l-5.93.94,3.88-20.87-4.88-5.76-17.58,6.35,8.33-1.32h.14L681,85.36c-1.34,7.24-9.07,14.15-15.92,15.24l-7,1.11L659.1,96l5.33-.85c4.69-.74,10-5.44,10.87-10.34l.58-3.09L662,83.93c-3,.48-4.59-1.33-4-4.48L660.48,66a7.56,7.56,0,0,1,3.91-5.38v-.36l7-5.36-4.06.68a15.22,15.22,0,0,0-8.69,5.25,8.73,8.73,0,0,0-7.2-2.9l-15,2.38,2.44-13.11,10.92-1.73c5.81-.93,12.24-7.46,13.38-13.6L664.8,23c1.15-6.14-3.17-11-9-10L631.94,16.8l-5.08,27.35-22,3.49a5.36,5.36,0,0,0-4,4.09l-8.22,44.15c-.36,2,.85,3.32,2.71,3l41.92-6.65L640.64,74l1.71-.27c1.87-.3,1.59-.64,1.23,1.31l-3.1,16.68Zm-31.11-10-14,2.23.53-2.84,11.32-1.8,2.76-14.82-11.33,1.8.53-2.85,14-2.22Zm-.89,4.56-1.17,6.27-24.8,3.93,7.73-41.6,20.49-3.25-1,5.7-14.56,2.31-2.23,12L620,67.39,618.88,73,607,74.89l-2.24,12Zm28.49,1.56-5.93.94,2.89-15.54c.36-2-.22-2.58-2.11-2.28l-10.34,1.64-3.39,18.24-5.93.94,4.44-23.93h.15l19.73-3.15c3-.47,4.58,1.33,4,4.48Zm38.55-29.34,5.8-.92L692,79.15l-5.93.93,4.45-23.93Zm36,11.28,2.06-11.07a10.37,10.37,0,0,1,7.62-7.45l13.87-2.2c2.34-.37,4,2.24,3.48,4.79L753,55a7.66,7.66,0,0,1-5.39,5.67L733.21,63,733,64.3a1.86,1.86,0,0,0,1.21,2.34h0a2,2,0,0,0,.84.06l16.08-2.56L750.06,70l-18.15,2.88a4.43,4.43,0,0,1-5.26-3.4v0A4.5,4.5,0,0,1,726.64,67.41Zm-85.81-31,2-10.82,7.55-1.21c1-.15,1.5.41,1.3,1.46l-1.37,7.41a2.37,2.37,0,0,1-1.94,2Z"/><path d="M689.12,41.45l-1.6-6.35-.91.11-.29,1.56a2.61,2.61,0,0,1-2.09,2.13l-6.2,1c-1,.16-1.62-.49-1.41-1.58l3.13-16.8a2.64,2.64,0,0,1,2.09-2.14l6.2-1c1-.17,1.61.49,1.41,1.57l-.4,2.14,12.54-2,.48-2.56c1.2-6.47-3.2-11.38-9.32-10.42l-12,1.9c-6.11,1-12.67,7.62-13.87,14.09l-3.33,18c-1.2,6.47,3.19,11.39,9.31,10.41l4-.63Z"/><path d="M698,37.62a10,10,0,0,0,.72-2.12l.43-2.28-5,.79Z"/><path d="M975.15,52.43a7.31,7.31,0,0,0-5-1.84H949.39a8,8,0,0,0-2.38.32,7.53,7.53,0,0,0-3.79,2.49,6.73,6.73,0,0,0-1.76,4.24c-.07,5.41,0,10.83,0,16.25,0,.39.11.48.48.48h6.59c.5,0,.64-.1.64-.62V59.53a2.5,2.5,0,0,1,1.47-2.47,4.52,4.52,0,0,1,1.74-.29h3c.54,0,.66.16.65.67V73.93c0,.45.1.59.57.58h6.23c.49,0,.56-.15.56-.59V57.24c0-.26,0-.5.37-.48,1.35.08,2.7,0,4,.08a2.7,2.7,0,0,1,2.47,2.82V73.75c0,.47.08.63.59.63h6.52c.5,0,.6-.14.6-.61V58.44A7.51,7.51,0,0,0,975.15,52.43Zm.49,20.31H972.5c-.42,0-.51-.12-.51-.52V59.63a4.31,4.31,0,0,0-2.06-3.81,4.66,4.66,0,0,0-2.38-.68h-5.36c-.47,0-.58.13-.58.58V72.21c0,.51-.11.7-.66.67a22.9,22.9,0,0,0-2.62,0c-.51,0-.59-.15-.59-.62V55.83c0-.57-.14-.7-.69-.69h-5.19A4.4,4.4,0,0,0,948,57.2a4.77,4.77,0,0,0-.68,2.5V72.11c0,.51-.11.66-.64.63h-3.14c-.32,0-.44-.07-.44-.42V57.7a5.64,5.64,0,0,1,4.05-5,9.54,9.54,0,0,1,2.55-.32h20.63a5.78,5.78,0,0,1,5,2.93,5.32,5.32,0,0,1,.73,2.83v14c0,.44-.07.61-.56.59Zm-157.45-22H798.91a29.62,29.62,0,0,0-4.61.24,10.84,10.84,0,0,0-4.66,1.9,12.33,12.33,0,0,0-3.81,4.43,12,12,0,0,0-1.08,7.81,10.91,10.91,0,0,0,3.69,6.46A11.28,11.28,0,0,0,796,74.47h22.31c.41,0,.52-.11.52-.52V69.06c0-.51-.1-.68-.65-.67H797.82a5.76,5.76,0,0,1-4.71-2.27,5.32,5.32,0,0,1-1.15-3.8,5.47,5.47,0,0,1,1.88-3.87,5.39,5.39,0,0,1,3.5-1.44h20.92c.44,0,.59-.1.58-.57V51.31C818.84,50.77,818.68,50.69,818.19,50.69Zm-1.1,4c0,.52-.1.68-.65.68H797.5A7.44,7.44,0,0,0,790.83,60a7.27,7.27,0,0,0,1,7.29,6.71,6.71,0,0,0,4.24,2.64,5.64,5.64,0,0,0,1.08.1h19.29c.5,0,.68.11.63.63a10.29,10.29,0,0,0,0,1.57c0,.48-.09.62-.59.62H795.93a9.65,9.65,0,0,1-6.29-2.41,9.21,9.21,0,0,1-3.12-4.88,10.3,10.3,0,0,1,7-12.75,7.72,7.72,0,0,1,.83-.2,7.59,7.59,0,0,1,1.84-.16h20.22c.51,0,.68.12.63.64a11,11,0,0,0,0,1.62Zm82.84,13.6a9.52,9.52,0,0,0-1.69-4.18.49.49,0,0,1,0-.69h0a6.33,6.33,0,0,0,1.06-1.81,7.55,7.55,0,0,0,.52-4.91,7.89,7.89,0,0,0-7.6-6.09H865.57c-.43,0-.6.06-.6.55V74c0,.41.11.52.51.52h6.59c.47,0,.62-.09.62-.59V67c0-.5.15-.59.62-.59h15.2a10.33,10.33,0,0,1,1.67.1A2.65,2.65,0,0,1,892.37,69V74c0,.37.09.49.48.49h6.76c.41,0,.47-.15.47-.5v-4.2a9.26,9.26,0,0,0-.12-1.49Zm-2.17,4.56h-3.21c-.37,0-.45-.12-.44-.47V68.71a4.34,4.34,0,0,0-2.64-3.7,6.29,6.29,0,0,0-2.07-.35h-18c-.56,0-.66.16-.65.67v7c0,.42-.11.53-.52.52h-3c-.48,0-.61-.11-.61-.6V53.08c0-.56.1-.77.73-.77h24.83a6.23,6.23,0,0,1,4,10.82c-.35.34-.53.56-.09,1a6.78,6.78,0,0,1,1.4,1.88,5.93,5.93,0,0,1,.71,2.73v3.61c0,.34-.06.48-.44.47ZM850.37,52.93a10.47,10.47,0,0,0-6-2.2c-7.73-.06-15.46,0-23.18,0-.48,0-.62.11-.62.6v22.6c0,.49.13.6.6.6h23.19a6.52,6.52,0,0,0,1.25-.1,11.71,11.71,0,0,0,7.49-4.86,12.35,12.35,0,0,0,2.11-5.6,11.06,11.06,0,0,0-.64-5.46A11.55,11.55,0,0,0,850.37,52.93Zm2.27,14.13a12.5,12.5,0,0,1-1.58,2.43,9,9,0,0,1-2.69,2.19,8.34,8.34,0,0,1-3.89,1.15c-3.59,0-7.18,0-10.78,0h-11c-.43,0-.54-.11-.54-.55V53c0-.45.13-.54.55-.54h21.32a9.06,9.06,0,0,1,6,2.48,10.08,10.08,0,0,1,3,4.46,8.42,8.42,0,0,1,.49,2.33,10.78,10.78,0,0,1-.94,5.31Zm84.13-12.81a10.65,10.65,0,0,0-3.37-2.42,10.85,10.85,0,0,0-4.51-1.13H913.1a13.69,13.69,0,0,0-2.48.1A12.07,12.07,0,0,0,904.29,54a11.6,11.6,0,0,0-2.7,4,11.93,11.93,0,0,0,11,16.47h16a10.12,10.12,0,0,0,2.32-.31,11.9,11.9,0,0,0,4.45-2.09,11.41,11.41,0,0,0,3.77-4.73,11.59,11.59,0,0,0,.84-6.7,12,12,0,0,0-3.21-6.4Zm1.45,10.37a9.87,9.87,0,0,1-3.38,5.77,9.5,9.5,0,0,1-3.84,2,13.16,13.16,0,0,1-3.37.32H912.54a10,10,0,0,1-9.47-6.49,10.13,10.13,0,0,1,1.42-10,9.55,9.55,0,0,1,5.69-3.68,10.83,10.83,0,0,1,2.33-.28c5.48,0,11,0,16.43,0a9.12,9.12,0,0,1,5.87,2.35,9.92,9.92,0,0,1,2.72,3.57,10.36,10.36,0,0,1,.69,6.33Zm54.24-11.36h-7.94a.69.69,0,0,1,.77-.35h3.35a4,4,0,0,0,1.23-.2,4.57,4.57,0,0,0,3.06-5.43,4.39,4.39,0,0,0-4.47-3.68c-2.58-.08-5.16,0-7.74,0-.51,0-.69.21-.68.7v2.85c0,.45.12.55.55.55h6.23c.69,0,1,.22,1,.65s-.26.64-1,.64h-3.38a5.16,5.16,0,0,0-1.41.19,4.43,4.43,0,0,0-3.12,4.39c-.08,1.16,0,2.32,0,3.49,0,.32.08.43.42.43h13.16c.41,0,.54-.14.53-.54V53.74c0-.41-.16-.46-.51-.46Zm-.31,3.06c0,.36-.1.51-.46.45H980.22c-.56,0-.69-.18-.68-.7a20,20,0,0,1,.24-3.45,3.58,3.58,0,0,1,2.4-2.65,9.93,9.93,0,0,1,1.88-.21h3.32a1.41,1.41,0,0,0,.19-2.8,7.88,7.88,0,0,0-1.61-.11h-4.6c-.45,0-.57-.13-.53-.56a6.22,6.22,0,0,0,0-1.22c-.06-.55.21-.69.7-.68h6.29a5.6,5.6,0,0,1,1.47.2A3.56,3.56,0,0,1,992,47.3a3.78,3.78,0,0,1-2.57,4.7h0l-.27.07a1.85,1.85,0,0,1-.47,0h-3.78a1.78,1.78,0,0,0-1.74,1.51c0,.37.09.5.48.48h8c.46,0,.57.13.54.56a15.88,15.88,0,0,0,0,1.69ZM862,60a4.94,4.94,0,0,0-2.73-.49A3.42,3.42,0,0,0,856,63a3.6,3.6,0,0,0,.12.8c.52,1.56,1.71,2.37,3.82,2.46a2.27,2.27,0,0,0,1-.13,3.17,3.17,0,0,0,2.8-2.83A3.13,3.13,0,0,0,862,60Zm-.17,3.53a1.39,1.39,0,0,1-1.32,1,6,6,0,0,1-1.94-.11,1.72,1.72,0,0,1-1-1.56A1.51,1.51,0,0,1,859,61.41h.81c.6,0,1.27-.14,1.83.44a1.55,1.55,0,0,1,.28,1.7Zm28.81-8.27H871.35c-.39,0-.48.13-.47.5V61c0,.46.13.58.58.57h18.3a6.56,6.56,0,0,0,2.37-.31A3.07,3.07,0,0,0,894,57.71,3.16,3.16,0,0,0,890.64,55.27Zm1.16,4.2a2.3,2.3,0,0,1-1.25.33H873.36c-.63,0-.79-.19-.74-.77a7.62,7.62,0,0,0,0-1.51c0-.45.12-.55.55-.54h18a1.32,1.32,0,0,1,1.34,1.28,1.34,1.34,0,0,1-.71,1.19ZM846.37,56.9a6.62,6.62,0,0,0-4-1.62c-5.14-.08-10.29,0-15.44,0-.44,0-.58.1-.58.57V69.54c0,.49.16.56.59.56h15.5a4.62,4.62,0,0,0,1.69-.28,7.31,7.31,0,0,0,4.93-6.27,7.1,7.1,0,0,0-2.65-6.65ZM843,68.41a1.77,1.77,0,0,1-.46,0H828.71c-.42,0-.6-.06-.6-.56V57.48c0-.4.11-.51.52-.51H842a5.2,5.2,0,0,1,5.46,4.51,5.74,5.74,0,0,1-4.33,6.84Zm83.48-13.16H914.84a8.42,8.42,0,0,0-4.1.81,7.39,7.39,0,0,0-3.17,10,7.36,7.36,0,0,0,6.88,4h10.66a16.12,16.12,0,0,0,2.6-.11,7.33,7.33,0,0,0,6.3-6.5,6.86,6.86,0,0,0-1-4.59,7.29,7.29,0,0,0-6.62-3.6Zm4.15,11.66a6.23,6.23,0,0,1-4.27,1.5H914.72a6.81,6.81,0,0,1-3.86-1,5.63,5.63,0,0,1-2.53-3.87A5.54,5.54,0,0,1,909.52,59a5,5,0,0,1,3.91-2.08H927a5.67,5.67,0,0,1,5.39,4.43,5.53,5.53,0,0,1-1.81,5.6Z" fill="#0f0f0f" fill-rule="evenodd"/></g></g></svg>