<?xml version="1.0" encoding="UTF-8" standalone="no"?>
<!-- Created with Inkscape (http://www.inkscape.org/) -->

<svg
   xmlns:dc="http://purl.org/dc/elements/1.1/"
   xmlns:cc="http://creativecommons.org/ns#"
   xmlns:rdf="http://www.w3.org/1999/02/22-rdf-syntax-ns#"
   xmlns:svg="http://www.w3.org/2000/svg"
   xmlns="http://www.w3.org/2000/svg"
   xmlns:sodipodi="http://sodipodi.sourceforge.net/DTD/sodipodi-0.dtd"
   xmlns:inkscape="http://www.inkscape.org/namespaces/inkscape"
   width="6.8915119mm"
   height="7.9374995mm"
   viewBox="0 0 6.8915121 7.9374994"
   version="1.1"
   id="svg4511"
   inkscape:version="0.92.3 (2405546, 2018-03-11)"
   sodipodi:docname="icon_filled.svg">
  <defs
     id="defs4505" />
  <sodipodi:namedview
     id="base"
     pagecolor="#ffffff"
     bordercolor="#666666"
     borderopacity="1.0"
     inkscape:pageopacity="0.0"
     inkscape:pageshadow="2"
     inkscape:zoom="7.9195959"
     inkscape:cx="55.523159"
     inkscape:cy="16.969386"
     inkscape:document-units="mm"
     inkscape:current-layer="layer1"
     showgrid="false"
     fit-margin-top="0"
     fit-margin-left="0"
     fit-margin-right="0"
     fit-margin-bottom="0"
     inkscape:window-width="1920"
     inkscape:window-height="1027"
     inkscape:window-x="-8"
     inkscape:window-y="-8"
     inkscape:window-maximized="1" />
  <metadata
     id="metadata4508">
    <rdf:RDF>
      <cc:Work
         rdf:about="">
        <dc:format>image/svg+xml</dc:format>
        <dc:type
           rdf:resource="http://purl.org/dc/dcmitype/StillImage" />
        <dc:title></dc:title>
      </cc:Work>
    </rdf:RDF>
  </metadata>
  <g
     inkscape:label="Calque 1"
     inkscape:groupmode="layer"
     id="layer1"
     transform="translate(-28.700307,-192.49837)">
    <g
       id="g5106"
       transform="matrix(0.10351411,0,0,0.10351411,25.72942,189.51196)"
       inkscape:export-xdpi="96"
       inkscape:export-ydpi="96">
      <path
         style="display:inline;fill:#ff0000;stroke-width:0.26458332"
         inkscape:connector-curvature="0"
         id="path67"
         d="m 52.782762,58.699387 c -3.67771,0 -6.69396,-2.98979 -6.69396,-6.69396 0,-3.70416 2.98979,-6.69396 6.69396,-6.69396 3.70417,0 6.69396,2.9898 6.69396,6.69396 0,3.70417 -2.98979,6.69396 -6.69396,6.69396 z m 0,-10.63625 c -2.16958,0 -3.94229,1.77271 -3.94229,3.94229 0,2.16959 1.77271,3.94229 3.94229,3.94229 2.16958,0 3.94229,-1.7727 3.94229,-3.94229 0,-2.16958 -1.77271,-3.94229 -3.94229,-3.94229 z"
         class="st0" />
      <path
         style="display:inline;fill:#ff5ddc;stroke-width:0.26458332"
         inkscape:connector-curvature="0"
         id="path69"
         d="m 75.166512,59.122717 c -0.0529,0 -0.13229,0 -0.18521,0 l -10.16,-1.32291 c -0.37041,-0.0529 -0.68791,-0.23813 -0.89958,-0.52917 -0.21167,-0.29104 -0.3175,-0.66146 -0.26458,-1.00542 l 1.32291,-10.16 c 0.10584,-0.74083 0.79375,-1.29645 1.53459,-1.19062 l 10.16,1.32292 c 0.37041,0.0529 0.68791,0.23812 0.89958,0.52916 0.21167,0.29104 0.3175,0.66146 0.26458,1.00542 l -1.32291,10.16 c -0.0794,0.68792 -0.66146,1.19062 -1.34938,1.19062 z m -8.59896,-3.88937 7.40834,0.97896 0.97895,-7.40834 -7.40833,-0.97895 z"
         class="st1" />
      <path
         style="display:inline;fill:#027fe1;stroke-width:0.26458332"
         inkscape:connector-curvature="0"
         id="path73"
         d="m 52.967972,41.977717 c -0.0794,0 -0.18521,0 -0.29104,-0.0265 -0.74084,-0.15875 -1.21709,-0.87312 -1.05834,-1.61396 l 2.16959,-10.39812 c 0.15875,-0.74083 0.87312,-1.21708 1.61396,-1.05833 0.74083,0.15875 1.21708,0.87312 1.05833,1.61396 l -2.16958,10.39812 c -0.10584,0.635 -0.68792,1.08479 -1.32292,1.08479 z"
         class="st2" />
      <path
         style="display:inline;fill:#027fe1;stroke-width:0.26458332"
         inkscape:connector-curvature="0"
         id="path75"
         d="m 59.265052,37.850217 c -0.0794,0 -0.18521,0 -0.29104,-0.0264 l -10.39812,-2.16959 c -0.74084,-0.15875 -1.21709,-0.87312 -1.05834,-1.61396 0.15875,-0.74083 0.87313,-1.21708 1.61396,-1.05833 l 10.39813,2.16958 c 0.74083,0.15875 1.21708,0.87313 1.05833,1.61396 -0.13229,0.635 -0.68792,1.08479 -1.32292,1.08479 z"
         class="st2" />
      <path
         style="display:inline;fill:#8aee49;stroke-width:0.26458332"
         inkscape:connector-curvature="0"
         id="path77"
         d="m 66.408802,41.236887 c -0.34396,0 -0.66146,-0.13229 -0.89958,-0.34396 -0.37042,-0.3175 -0.52917,-0.82021 -0.42333,-1.29646 l 1.87854,-8.94291 c 0.10583,-0.47625 0.44979,-0.87313 0.89958,-1.00542 0.47625,-0.15875 0.97896,-0.0529 1.34938,0.26458 l 6.8527,6.0325 c 0.37042,0.3175 0.52917,0.82021 0.42334,1.29646 -0.10584,0.47625 -0.44979,0.87313 -0.89959,1.03188 l -8.73125,2.88396 c -0.15875,0.0529 -0.3175,0.0794 -0.44979,0.0794 z m 2.72521,-7.72583 -0.89958,4.31271 4.20687,-1.4023 z"
         class="st3" />
      <path
         style="display:inline;fill:#808080;stroke-width:0.26458332"
         inkscape:connector-curvature="0"
         id="path91"
         d="m 95.221932,88.888347 c -0.10584,-4.94771 -0.23813,-6.50875 -0.68792,-8.41375 -1.56104,-6.50875 -4.18042,-11.50938 -8.12271,-15.42521 -5.26521,-5.23875 -11.53583,-5.715 -19.05,-1.42875 l -2.09021,1.19063 c 0,0 -6.90562,-0.0794 -7.4877,-0.50271 -0.39688,-0.26459 -1.53459,-0.89959 -2.54,-1.40229 -5.10646,-2.54 -9.68375,-2.83105 -13.73188,-0.84667 -5.450415,2.67229 -10.239373,10.05417 -12.223748,18.81187 -0.555625,2.51355 -0.608542,3.3073 -0.582084,9.73667 0.02646,7.22313 0.15875,8.44021 1.217084,10.530423 0.9525,1.93146 2.407708,3.20146 4.550833,4.04812 v 0 c 3.466045,1.34938 9.286875,-2.35479 14.075835,-8.995833 l 1.61396,-2.2225 h 23.57437 l 1.61396,2.2225 c 3.78354,5.238753 9.12812,9.339793 12.17083,9.339793 2.51354,0 5.18584,-1.85208 6.48229,-4.55083 1.13771,-2.328343 1.4023,-4.841883 1.21709,-12.091463 z m -41.98938,-9.47208 h -3.57187 v 3.57187 c 0,1.11125 -0.92604,2.03729 -2.03729,2.03729 -1.11125,0 -2.0373,-0.92604 -2.0373,-2.03729 v -3.57187 h -3.57187 c -1.11125,0 -2.03729,-0.92605 -2.03729,-2.0373 0,-1.11125 0.92604,-2.03729 2.03729,-2.03729 h 3.57187 v -3.57187 c 0,-1.11125 0.92605,-2.0373 2.0373,-2.0373 1.11125,0 2.03729,0.92605 2.03729,2.0373 v 3.57187 h 3.57187 c 1.11125,0 2.03729,0.92604 2.03729,2.03729 -0.0265,1.13771 -0.92604,2.0373 -2.03729,2.0373 z m 26.29959,-11.16542 c 1.71979,0 3.12208,1.40229 3.12208,3.12208 0,1.71979 -1.40229,3.12209 -3.12208,3.12209 -1.7198,0 -3.12209,-1.4023 -3.12209,-3.12209 0.0265,-1.71979 1.40229,-3.12208 3.12209,-3.12208 z m -10.13355,6.0325 c 0,-1.71979 1.4023,-3.12208 3.12209,-3.12208 1.71979,0 3.12208,1.40229 3.12208,3.12208 0,1.71979 -1.40229,3.12208 -3.12208,3.12208 -1.71979,0 -3.12209,-1.40229 -3.12209,-3.12208 z m 6.4823,10.55687 c -1.7198,0 -3.12209,-1.40229 -3.12209,-3.12208 0,-1.71979 1.40229,-3.12208 3.12209,-3.12208 1.71979,0 3.12208,1.40229 3.12208,3.12208 0,1.71979 -1.40229,3.12208 -3.12208,3.12208 z m 6.56166,-3.12208 c -1.71979,0 -3.12208,-1.40229 -3.12208,-3.12208 0,-1.71979 1.40229,-3.12209 3.12208,-3.12209 1.71979,0 3.12209,1.4023 3.12209,3.12209 0,1.74625 -1.4023,3.12208 -3.12209,3.12208 z"
         class="st4" />
    </g>
  </g>
</svg>
