<svg xmlns="http://www.w3.org/2000/svg" xmlns:xlink="http://www.w3.org/1999/xlink" viewBox="0 0 1000 114"><defs><linearGradient id="Dégradé_sans_nom_2" x1="987.48" y1="-691.02" x2="641.2" y2="-691.02" gradientTransform="matrix(1, 0, 0, -1, -0.18, -633.2)" gradientUnits="userSpaceOnUse"><stop offset="0" stop-color="#013a67"/><stop offset="1" stop-color="#6cd1ff"/></linearGradient><linearGradient id="Dégradé_sans_nom_38" x1="674.75" y1="-680.37" x2="672.25" y2="-677.87" gradientTransform="matrix(1, 0, 0, -1, -0.18, -633.2)" gradientUnits="userSpaceOnUse"><stop offset="0" stop-color="#08406f"/><stop offset="1" stop-color="#60c5f5"/></linearGradient><linearGradient id="Dégradé_sans_nom_38-2" x1="711.88" y1="-727.98" x2="709.59" y2="-725.68" xlink:href="#Dégradé_sans_nom_38"/><linearGradient id="Dégradé_sans_nom_38-3" x1="650.04" y1="-715.39" x2="650.04" y2="-712.66" xlink:href="#Dégradé_sans_nom_38"/><linearGradient id="Dégradé_sans_nom_38-4" x1="710.55" y1="-740.19" x2="710.55" y2="-737.37" xlink:href="#Dégradé_sans_nom_38"/><linearGradient id="Dégradé_sans_nom_38-5" x1="904.81" y1="-715.38" x2="904.81" y2="-712.54" xlink:href="#Dégradé_sans_nom_38"/><linearGradient id="Dégradé_sans_nom_38-6" x1="792.86" y1="-715.93" x2="792.86" y2="-713.09" xlink:href="#Dégradé_sans_nom_38"/><linearGradient id="Dégradé_sans_nom_38-7" x1="964.76" y1="-644.49" x2="964.76" y2="-641.41" xlink:href="#Dégradé_sans_nom_38"/><linearGradient id="Dégradé_sans_nom_38-8" x1="960.15" y1="-660.04" x2="960.15" y2="-657.37" xlink:href="#Dégradé_sans_nom_38"/><linearGradient id="Dégradé_sans_nom_38-9" x1="924.89" y1="-687.62" x2="924.89" y2="-685.26" xlink:href="#Dégradé_sans_nom_38"/><linearGradient id="Dégradé_sans_nom_38-10" x1="944.4" y1="-671.7" x2="944.4" y2="-668.18" xlink:href="#Dégradé_sans_nom_38"/><linearGradient id="Dégradé_sans_nom_38-11" x1="680.89" y1="-699.41" x2="678.64" y2="-697.16" xlink:href="#Dégradé_sans_nom_38"/><linearGradient id="Dégradé_sans_nom_38-12" x1="709.96" y1="-658.55" x2="706.56" y2="-658.55" xlink:href="#Dégradé_sans_nom_38"/><linearGradient id="Dégradé_sans_nom_38-13" x1="743.44" y1="-668.43" x2="739.22" y2="-668.43" xlink:href="#Dégradé_sans_nom_38"/><linearGradient id="Dégradé_sans_nom_38-14" x1="795.99" y1="-671.77" x2="792.19" y2="-671.77" xlink:href="#Dégradé_sans_nom_38"/><linearGradient id="Dégradé_sans_nom_38-15" x1="855.11" y1="-658.71" x2="851.5" y2="-658.71" xlink:href="#Dégradé_sans_nom_38"/><linearGradient id="Dégradé_sans_nom_38-16" x1="887.87" y1="-667.47" x2="884.19" y2="-667.47" xlink:href="#Dégradé_sans_nom_38"/><linearGradient id="Dégradé_sans_nom_38-17" x1="698.24" y1="-699.48" x2="695" y2="-699.48" xlink:href="#Dégradé_sans_nom_38"/><linearGradient id="Dégradé_sans_nom_38-18" x1="710.59" y1="-702.58" x2="708.34" y2="-700.33" xlink:href="#Dégradé_sans_nom_38"/><linearGradient id="Dégradé_sans_nom_38-19" x1="984.51" y1="-651.03" x2="982.18" y2="-648.71" xlink:href="#Dégradé_sans_nom_38"/><linearGradient id="Dégradé_sans_nom_38-20" x1="726.27" y1="-700.07" x2="722.85" y2="-700.07" xlink:href="#Dégradé_sans_nom_38"/><linearGradient id="Dégradé_sans_nom_38-21" x1="728.04" y1="-660.23" x2="725.19" y2="-657.38" xlink:href="#Dégradé_sans_nom_38"/><linearGradient id="Dégradé_sans_nom_38-22" x1="770.54" y1="-669.93" x2="767.91" y2="-667.3" xlink:href="#Dégradé_sans_nom_38"/><linearGradient id="Dégradé_sans_nom_38-23" x1="826.61" y1="-673.41" x2="823.84" y2="-670.63" xlink:href="#Dégradé_sans_nom_38"/><linearGradient id="Dégradé_sans_nom_38-24" x1="872.66" y1="-660.13" x2="870" y2="-657.46" xlink:href="#Dégradé_sans_nom_38"/><linearGradient id="Dégradé_sans_nom_38-25" x1="943.5" y1="-678.13" x2="941.31" y2="-675.94" xlink:href="#Dégradé_sans_nom_38"/><linearGradient id="Dégradé_sans_nom_38-26" x1="950.52" y1="-706.09" x2="948.01" y2="-703.58" xlink:href="#Dégradé_sans_nom_38"/><linearGradient id="Dégradé_sans_nom_38-27" x1="913.78" y1="-669.48" x2="911.06" y2="-666.77" xlink:href="#Dégradé_sans_nom_38"/><linearGradient id="Dégradé_sans_nom_38-28" x1="942.31" y1="-666.34" x2="939.07" y2="-663.1" xlink:href="#Dégradé_sans_nom_38"/><linearGradient id="Dégradé_sans_nom_38-29" x1="751.61" y1="-714.3" x2="749.3" y2="-711.99" xlink:href="#Dégradé_sans_nom_38"/><linearGradient id="Dégradé_sans_nom_38-30" x1="825.8" y1="-699.6" x2="823.49" y2="-697.3" xlink:href="#Dégradé_sans_nom_38"/><linearGradient id="Dégradé_sans_nom_38-31" x1="855.5" y1="-702.1" x2="853.27" y2="-699.88" xlink:href="#Dégradé_sans_nom_38"/><linearGradient id="Dégradé_sans_nom_38-32" x1="868.76" y1="-715.13" x2="865.95" y2="-712.33" xlink:href="#Dégradé_sans_nom_38"/><linearGradient id="Dégradé_sans_nom_38-33" x1="779.17" y1="-701.27" x2="775.34" y2="-701.27" xlink:href="#Dégradé_sans_nom_38"/><linearGradient id="Dégradé_sans_nom_38-34" x1="843.09" y1="-699.21" x2="839.78" y2="-699.21" xlink:href="#Dégradé_sans_nom_38"/><linearGradient id="Dégradé_sans_nom_38-35" x1="871.4" y1="-698.76" x2="867.44" y2="-698.76" xlink:href="#Dégradé_sans_nom_38"/><linearGradient id="Dégradé_sans_nom_38-36" x1="913.02" y1="-693.61" x2="910.22" y2="-690.81" xlink:href="#Dégradé_sans_nom_38"/><linearGradient id="Dégradé_sans_nom_38-37" x1="933.48" y1="-699.84" x2="933.48" y2="-696.16" xlink:href="#Dégradé_sans_nom_38"/></defs><title>logo_right</title><g id="Layer_2" data-name="Layer 2"><rect x="671.98" y="68.47" width="54.11" height="20.25" fill="#fff"/><rect x="754.07" y="68.47" width="118.42" height="20.25" fill="#fff"/></g><g id="Calque_2" data-name="Calque 2"><path d="M695.26,110.5a3.63,3.63,0,0,1-3-5.81,3.81,3.81,0,0,1,.37-.43l26.81-26.7,0-12.31L698.9,85.85a4.31,4.31,0,0,1-3.11,1.23h-.39a4,4,0,0,1-1.78-.57,4.17,4.17,0,0,1-2-3.73c0-.33,0-13.49,0-22.55L667.2,84.67a3.5,3.5,0,0,1-2.48,1H635a3.64,3.64,0,0,1-3-5.77,3.17,3.17,0,0,1,.4-.49C706.78,5,706.88,4.92,707,4.79a3.74,3.74,0,0,1,2.41-.89,4,4,0,0,1,1.41.27,3.85,3.85,0,0,1,2.43,3.63V31L739.45,4.8a3.83,3.83,0,0,1,2.84-1.3,3.48,3.48,0,0,1,1,.15,3.62,3.62,0,0,1,1.56.9A4,4,0,0,1,746,7.48V50.92L791.29,5.6a4.75,4.75,0,0,1,3.55-1.67,4.07,4.07,0,0,1,1,.12l.17,0A4.08,4.08,0,0,1,798.82,8V57.33l51.6-51.55A4.76,4.76,0,0,1,854,4.11a3.86,3.86,0,0,1,1.08.15l.12,0A4,4,0,0,1,858,8.19v23L883.71,5.43A4.54,4.54,0,0,1,887,3.91a3.67,3.67,0,0,1,2.12.66l.24.18a4.73,4.73,0,0,1,1.44,3.78v40.3l43-43.09a3.26,3.26,0,0,1,.4-.34h0a3.49,3.49,0,0,1,2.08-.69h56.19a3.84,3.84,0,0,1,3.81,2.56,4.32,4.32,0,0,1-1,4.51L977.8,29.31a3.5,3.5,0,0,1-2.48,1H947.4l-1.13,1.14h6a3.72,3.72,0,0,1,3,1.47,4.07,4.07,0,0,1,.42,4.31,3.29,3.29,0,0,1-.71,1L936.31,56.9a3.54,3.54,0,0,1-2.48,1H919.64l-1.53,1.54h40.83a3.91,3.91,0,0,1,3.59,2.28,4.16,4.16,0,0,1-.55,4.43,3.08,3.08,0,0,1-.3.33l-18.2,18.08a3.51,3.51,0,0,1-2.55,1.1l-71.63,0a3.63,3.63,0,0,1-1.14.19h-4.91a3.9,3.9,0,0,1-3.27-1.8h0a3.68,3.68,0,0,1-.56-1.87,3.84,3.84,0,0,1,1.2-2.82l3.57-3.6V65l-20.72,20.7a4.27,4.27,0,0,1-3,1.29,4.58,4.58,0,0,1-.53,0,4,4,0,0,1-.5-.1h0a4,4,0,0,1-3-3.55c0-.08,0-.17,0-.26l0-22.47L811.75,85.21a3.5,3.5,0,0,1-2.48,1l-32.66,0a4.39,4.39,0,0,1-2.41-.77,4.27,4.27,0,0,1-1.27-1.3,5.12,5.12,0,0,1-.8-2.76l0-16-44.2,44.1a3.51,3.51,0,0,1-2.46,1H695.26Z"/><path d="M742.29,7a.1.1,0,0,1,.07,0h0s.11,0,.11.46V59.37l0,0S793.61,8.24,793.84,8a1.36,1.36,0,0,1,1-.57H795l-1.82,4.73h0L795,7.44a.54.54,0,0,1,.36.57V65.77S852.74,8.42,853,8.17a1.38,1.38,0,0,1,1-.56.38.38,0,0,1,.13,0l-2.23,6.16h0l2.23-6.16a.52.52,0,0,1,.36.56V39.77l.09-.17L886.21,7.87c.39-.38.62-.46.75-.46a.19.19,0,0,1,.13,0L885,12.77h0l2.06-5.32s.17.14.17,1.08V57.29l49-49.08,1.8,2.37h0l-1.8-2.37h56.19c.49,0,.49.2.49.2L991.65,9l1.27-.55a.87.87,0,0,1-.13.9L975.32,26.84l-1.58-2.13h0l1.58,2.13H945.94l-1.07-2.19h0l1.07,2.19-8,8.1a.08.08,0,0,1,0,0h14.35a.22.22,0,0,1,.21.1l-6.3,3.06h0l6.3-3.06s.27.18,0,.73L933.83,54.42l-1.71-2h0l1.71,2H918.19l-2.21-2h0l2.21,2L909.67,63h49.27a.41.41,0,0,1,.42.27h0s.25.28-.15.79L940.93,82.18l-.62-.86.62.86-72.59,0h0l-.17.19h-4.91a.4.4,0,0,1-.31-.17s-.1-.09.16-.36l4.59-4.61,3,1.25h0l-3-1.25V56.53L841,83.2a.78.78,0,0,1-.54.27h-.11a.54.54,0,0,1-.41-.44l-.05-30.89-30.62,30.6-1.4-2.3h0l1.4,2.3-32.66,0h0a1.2,1.2,0,0,1-.51-.21l2.49-2.25h0L776.1,82.5h0a1.37,1.37,0,0,1-.47-1.13l0-24.41-50.14,50H695.26c-.09,0-.28,0-.11-.26L723,79l1.34.6L723,79l0-22.2h0L696.4,83.4a.88.88,0,0,1-.61.18h-.16s-.52,0-.51-.73,0-31.08,0-31.08h0L664.72,82.2H635l6.34-2.38h0L635,82.2h0c-.08,0-.33,0-.15-.29,0,0,74.32-74.34,74.45-74.45a.26.26,0,0,1,.15-.06.4.4,0,0,1,.15,0h0s.19,0,.19.36V39.43h0s32-32,32.24-32.25.22-.18.27-.18m-34.94,6h0L709,8.87,707.35,13M663,79.46l0,0,0,0h0m61.53,25.91-.39-.66h0l.39.66M635,82.2h0M742.29,0a7.29,7.29,0,0,0-5.38,2.39L716.78,22.53V7.8A7.32,7.32,0,0,0,712.15.93,7.09,7.09,0,0,0,709.44.4a7.2,7.2,0,0,0-4.69,1.74c-.29.24-.34.28-74.86,74.82a7.61,7.61,0,0,0-.82,1A7.15,7.15,0,0,0,635,89.2h29.73a7,7,0,0,0,5-2.06L688.1,68.67c0,7,0,13.54,0,14.15a7.65,7.65,0,0,0,6.94,7.73l.22,0h.51a7.73,7.73,0,0,0,5.6-2.28L716,73.69v2.42l-25.78,25.67a6.81,6.81,0,0,0-.74.87A7.12,7.12,0,0,0,695.26,114h30.18a7,7,0,0,0,4.92-2L768.62,73.8v7.59a8.47,8.47,0,0,0,2.4,5.94,7,7,0,0,0,1,.87,7.86,7.86,0,0,0,4.57,1.51h0l32.54,0h.1a7,7,0,0,0,5-2L832.92,69l0,14c0,.18,0,.36,0,.53a7.56,7.56,0,0,0,5.45,6.63,7.81,7.81,0,0,0,1.07.22,7.93,7.93,0,0,0,1,.06,7.72,7.72,0,0,0,5.46-2.29l14.77-14.76v.9l-2.55,2.57a7.39,7.39,0,0,0-2.22,5.34,7.1,7.1,0,0,0,1.11,3.7h0a7.43,7.43,0,0,0,6.22,3.42h4.91a6.85,6.85,0,0,0,1.63-.19l71.14,0A7,7,0,0,0,946,87L964.15,69a7.32,7.32,0,0,0,.59-.66,7.68,7.68,0,0,0,.82-8.36,7.4,7.4,0,0,0-6.62-4H942.19l15.21-15.2a7.1,7.1,0,0,0,1.42-2,7.84,7.84,0,0,0,.58-4.87h15.92a7.37,7.37,0,0,0,.82-.05h0a6.81,6.81,0,0,0,1-.2h0a7,7,0,0,0,3.08-1.8l17.47-17.53a7.81,7.81,0,0,0,1.93-7.71,7.37,7.37,0,0,0-7.25-5.33H936.24a7,7,0,0,0-3.73,1.08,7.67,7.67,0,0,0-1.23,1l-37,37.1V8.53a8,8,0,0,0-2.72-6.48,4.46,4.46,0,0,0-.43-.33A7.25,7.25,0,0,0,887,.41a7.93,7.93,0,0,0-5.66,2.48l-.09.09-19.75,19.8V8.19A7.52,7.52,0,0,0,856.17.94l-.18,0a7.58,7.58,0,0,0-2-.28h0a8.32,8.32,0,0,0-6.08,2.75L802.32,48.89V8A7.55,7.55,0,0,0,797,.76l-.35-.1a7.05,7.05,0,0,0-1.85-.23,8.3,8.3,0,0,0-6.08,2.75L749.47,42.47v-35a7.55,7.55,0,0,0-1.55-4.72,7.31,7.31,0,0,0-1.43-1.4A7.19,7.19,0,0,0,742.29,0Z" fill="#fff"/><path d="M638.37,100.53a3,3,0,0,1-.6,0,2.92,2.92,0,0,1-.6,0H636a3,3,0,0,1-.6,0,2.88,2.88,0,0,1-.59,0h-1.13a3.49,3.49,0,0,1-3.5-3.5V91a3.5,3.5,0,0,1,3.5-3.5h1.82a3.6,3.6,0,0,1,1.09.17,3.55,3.55,0,0,1,1.09-.17h1.82A3.5,3.5,0,0,1,643,91v6a3.49,3.49,0,0,1-3.5,3.5Z"/><path d="M639.5,91v6h-1.13V92.28L637.17,97H636l-1.19-4.75V97h-1.13V91h1.82l1.09,4.12L637.68,91h1.82m0-7h-1.82a6.5,6.5,0,0,0-1.09.09A6.59,6.59,0,0,0,635.5,84h-1.82a7,7,0,0,0-7,7v6a7,7,0,0,0,7,7h1.13a5.72,5.72,0,0,0,.59,0c.2,0,.4,0,.6,0h1.17c.2,0,.4,0,.6,0s.4,0,.6,0h1.13a7,7,0,0,0,7-7V91a7,7,0,0,0-7-7Z" fill="#fff"/><path d="M647.07,100.63a6.64,6.64,0,0,1-2.74-.5,5.22,5.22,0,0,1-2-1.51,5,5,0,0,1-1-2.07,10.78,10.78,0,0,1-.21-2.33V91a3.5,3.5,0,0,1,3.5-3.5h1.22a3.45,3.45,0,0,0,2.37,0h1.22a3.5,3.5,0,0,1,3.5,3.5v3.17a10.44,10.44,0,0,1-.18,2.28,5.13,5.13,0,0,1-1.13,2.3,5.26,5.26,0,0,1-2,1.44A6.38,6.38,0,0,1,647.07,100.63Z"/><path d="M649.4,91v3.17a7.75,7.75,0,0,1-.1,1.53,1.59,1.59,0,0,1-.36.76,1.77,1.77,0,0,1-.71.49,3.14,3.14,0,0,1-1.16.18,3.42,3.42,0,0,1-1.31-.19,2,2,0,0,1-.71-.52,1.85,1.85,0,0,1-.34-.67,7.34,7.34,0,0,1-.12-1.53V91h1.22v3.27a7.26,7.26,0,0,0,0,1,1,1,0,0,0,.38.59,1.27,1.27,0,0,0,.8.22,1.21,1.21,0,0,0,.78-.21.79.79,0,0,0,.32-.52,6.22,6.22,0,0,0,0-1V91h1.22m0-7h-1.22a6.56,6.56,0,0,0-1.18.1,6.75,6.75,0,0,0-1.19-.1h-1.22a7,7,0,0,0-7,7v3.22a13.75,13.75,0,0,0,.3,3.09,8.6,8.6,0,0,0,1.74,3.53,8.75,8.75,0,0,0,3.26,2.48,11,11,0,0,0,8,.11,8.79,8.79,0,0,0,3.35-2.4,8.61,8.61,0,0,0,1.9-3.82,14.26,14.26,0,0,0,.26-3V91a7,7,0,0,0-7-7Z" fill="#fff"/><path d="M654.61,100.54a3.5,3.5,0,0,1-3.5-3.5v-6a3.5,3.5,0,0,1,3.5-3.5h1.21a3.5,3.5,0,0,1,3.5,3.5v1.5a3.51,3.51,0,0,1,3,3.47v1a3.5,3.5,0,0,1-3.5,3.5Z"/><path d="M655.82,91.05v5h3v1h-4.24v-6h1.21m0-7h-1.21a7,7,0,0,0-7,7v6a7,7,0,0,0,7,7h4.24a7,7,0,0,0,7-7V96a7,7,0,0,0-3.07-5.8,7,7,0,0,0-7-6.17Z" fill="#fff"/><path d="M664.34,100.53a3.5,3.5,0,0,1-3.5-3.5v-2A3.51,3.51,0,0,1,659.05,92V91a3.5,3.5,0,0,1,3.5-3.5h4.8a3.5,3.5,0,0,1,3.5,3.5v1a3.49,3.49,0,0,1-1.79,3v2a3.5,3.5,0,0,1-3.5,3.5Z"/><path d="M667.35,91v1h-1.79v5h-1.22V92h-1.79V91h4.8m0-7h-4.8a7,7,0,0,0-7,7v1a7,7,0,0,0,1.79,4.68V97a7,7,0,0,0,7,7h1.22a7,7,0,0,0,7-7v-.34A7,7,0,0,0,674.35,92V91a7,7,0,0,0-7-7Z" fill="#fff"/><rect x="668.48" y="87.5" width="8.22" height="13.03" rx="3.5"/><path d="M673.2,91v6H672V91h1.22m0-7H672a7,7,0,0,0-7,7v6a7,7,0,0,0,7,7h1.22a7,7,0,0,0,7-7V91a7,7,0,0,0-7-7Z" fill="#fff"/><path d="M678.23,100.53a3.49,3.49,0,0,1-3.48-3.5V91a3.5,3.5,0,0,1,3.5-3.5h2a9.16,9.16,0,0,1,2.36.21,5.17,5.17,0,0,1,2.74,1.85,5.35,5.35,0,0,1,1.07,3.3,5.51,5.51,0,0,1-.61,2.57,5.33,5.33,0,0,1-1.61,1.84,5.49,5.49,0,0,1-1.3.66,3.46,3.46,0,0,1-.92,1.59,3.5,3.5,0,0,1-2.47,1Z"/><path d="M680.2,91a7.12,7.12,0,0,1,1.45.09,1.57,1.57,0,0,1,.87.59,1.92,1.92,0,0,1,.35,1.18,2.07,2.07,0,0,1-.2.94,1.67,1.67,0,0,1-.52.59,1.63,1.63,0,0,1-.63.29,7.83,7.83,0,0,1-1.26.08h-.8V97h-1.21V91h2m-.74,2.73h.67a3.27,3.27,0,0,0,1-.09.78.78,0,0,0,.39-.3.81.81,0,0,0,.13-.47.76.76,0,0,0-.19-.54.88.88,0,0,0-.49-.27,7.34,7.34,0,0,0-.88,0h-.59v1.71M680.2,84h-2a7,7,0,0,0-7,7v6a7,7,0,0,0,7,7h1.25a7,7,0,0,0,4.94-2,6.7,6.7,0,0,0,1.13-1.47,6.29,6.29,0,0,0,.64-.41,8.48,8.48,0,0,0,2.67-3,9,9,0,0,0,1-4.24,8.81,8.81,0,0,0-1.8-5.44,8.57,8.57,0,0,0-4.61-3.09A11.81,11.81,0,0,0,680.2,84Z" fill="#fff"/><path d="M687.79,100.54a3.5,3.5,0,0,1-3.5-3.5v-6a3.5,3.5,0,0,1,3.5-3.5H689a3.5,3.5,0,0,1,3.5,3.5v1.5a3.5,3.5,0,0,1,3,3.47v1a3.5,3.5,0,0,1-3.5,3.5Z"/><path d="M689,91.05v5h3v1h-4.25v-6H689m0-7h-1.22a7,7,0,0,0-7,7v6a7,7,0,0,0,7,7H692a7,7,0,0,0,7-7V96a7,7,0,0,0-3.08-5.8,7,7,0,0,0-7-6.17Z" fill="#fff"/><path d="M696.79,100.53a3.45,3.45,0,0,1-2.47-1,3.5,3.5,0,0,1-1-2.48V91a3.5,3.5,0,0,1,3.5-3.5h4.47a3.5,3.5,0,0,1,3.5,3.5v1a3.59,3.59,0,0,1-.22,1.24s0,1.2,0,1.24a3.36,3.36,0,0,1,.35,1.52v1a3.5,3.5,0,0,1-3.5,3.5Z"/><path d="M701.26,91v1H698v1.34h3v1h-3V96h3.37v1h-4.59V91h4.47m0-7h-4.47a7,7,0,0,0-7,7v6a7,7,0,0,0,7,7h4.59a7,7,0,0,0,7-7V96a7,7,0,0,0-.34-2.17v-.06a6.87,6.87,0,0,0,.22-1.77V91a7,7,0,0,0-7-7Z" fill="#fff"/><path d="M752.75,100.53a3.51,3.51,0,0,0-3.44,0H748a3.49,3.49,0,0,1-3.26-4.77l2.35-6a3.5,3.5,0,0,1,3.26-2.23h1.29a3.5,3.5,0,0,1,3.25,2.2l2.41,6a3.49,3.49,0,0,1-3.25,4.8Z"/><path d="M751.66,91l2.41,6h-1.32l-.53-1.37h-2.41l-.5,1.37H748l2.35-6h1.29m-1.48,3.65h1.65L751,92.41l-.82,2.24M751.66,84h-1.29a7,7,0,0,0-6.52,4.46l-2.35,6A7,7,0,0,0,748,104h1.29a7.15,7.15,0,0,1,3.44,0h1.32a7,7,0,0,0,6.5-9.6l-2.41-6a7,7,0,0,0-6.5-4.4Z" fill="#fff"/><path d="M758.61,100.54a3.5,3.5,0,0,1-3.5-3.5V91a3.5,3.5,0,0,1,3.5-3.5h2.57a7.44,7.44,0,0,1,2.62.38,4.94,4.94,0,0,1,2.44,2,5.3,5.3,0,0,1,.81,2.83,5.35,5.35,0,0,1-.37,2l.32.52a3.5,3.5,0,0,1-3,5.36h-1.46a3.52,3.52,0,0,0-2.75,0Z"/><path d="M761.18,91a4.33,4.33,0,0,1,1.4.16,1.42,1.42,0,0,1,.7.58,1.73,1.73,0,0,1,.27,1,1.66,1.66,0,0,1-.4,1.13,1.93,1.93,0,0,1-1.2.55,3.28,3.28,0,0,1,.66.51,6.71,6.71,0,0,1,.69,1L764,97h-1.46l-.88-1.32a8.27,8.27,0,0,0-.64-.88.93.93,0,0,0-.37-.25,1.84,1.84,0,0,0-.61-.07h-.25V97h-1.22V91h2.57m-1.35,2.55h.9a4.76,4.76,0,0,0,1.1-.07.73.73,0,0,0,.34-.26.79.79,0,0,0,.12-.45.71.71,0,0,0-.16-.49.82.82,0,0,0-.46-.24c-.1,0-.4,0-.89,0h-.95v1.53M761.18,84h-2.57a7,7,0,0,0-7,7v6a7,7,0,0,0,7,7h1.22a7,7,0,0,0,1.39-.14,6.82,6.82,0,0,0,1.36.14H764a7,7,0,0,0,6.38-9.87,8.07,8.07,0,0,0,.13-1.48A8.77,8.77,0,0,0,769.2,88,8.35,8.35,0,0,0,765,84.6a10.75,10.75,0,0,0-3.84-.6Z" fill="#fff"/><path d="M771.12,100.64a6.1,6.1,0,0,1-4.53-1.92,6.6,6.6,0,0,1-1.72-4.65,6.68,6.68,0,0,1,1.72-4.73,6.12,6.12,0,0,1,4.6-1.94,6,6,0,0,1,4.2,1.6A5.81,5.81,0,0,1,777,91.71a3.52,3.52,0,0,1-.09,2.2,3.47,3.47,0,0,1,.12,2.21,6,6,0,0,1-2.18,3.33A6.06,6.06,0,0,1,771.12,100.64Z"/><path d="M771.19,90.9a2.53,2.53,0,0,1,1.8.65,2.47,2.47,0,0,1,.62,1.11L772.4,93a1.25,1.25,0,0,0-1.27-1,1.38,1.38,0,0,0-1.09.48,2.35,2.35,0,0,0-.42,1.56,2.56,2.56,0,0,0,.41,1.63,1.37,1.37,0,0,0,1.07.49,1.24,1.24,0,0,0,.84-.31,1.82,1.82,0,0,0,.5-1l1.18.38a2.65,2.65,0,0,1-.9,1.47,2.58,2.58,0,0,1-1.6.48,2.61,2.61,0,0,1-2-.83,3.1,3.1,0,0,1-.77-2.24,3.31,3.31,0,0,1,.78-2.34,2.67,2.67,0,0,1,2-.83m0-7A9.67,9.67,0,0,0,764,87a10.12,10.12,0,0,0-2.66,7.11,10,10,0,0,0,2.69,7.06A9.57,9.57,0,0,0,780.37,97a6.79,6.79,0,0,0,.13-3.16,7.06,7.06,0,0,0-.16-3.13,9.24,9.24,0,0,0-2.56-4.3,9.41,9.41,0,0,0-6.59-2.55Z" fill="#fff"/><path d="M782.67,100.53a3.51,3.51,0,0,0-3.44,0h-1.29a3.49,3.49,0,0,1-3.26-4.77l2.35-6a3.5,3.5,0,0,1,3.26-2.23h1.29a3.5,3.5,0,0,1,3.25,2.2l2.41,6a3.49,3.49,0,0,1-3.24,4.8Z"/><path d="M781.58,91,784,97h-1.33l-.53-1.37h-2.41l-.5,1.37h-1.29l2.35-6h1.29m-1.47,3.65h1.64l-.83-2.24-.81,2.24M781.58,84h-1.29a7,7,0,0,0-6.52,4.46l-2.35,6a7,7,0,0,0,6.52,9.54h1.29a7.15,7.15,0,0,1,3.44,0H784a7,7,0,0,0,6.49-9.6l-2.41-6a7,7,0,0,0-6.5-4.4Z" fill="#fff"/><path d="M788.53,100.54A3.5,3.5,0,0,1,785,97V91a3.45,3.45,0,0,1,.6-2,3.49,3.49,0,0,1,2.89-1.54h2.23a7.73,7.73,0,0,1,2.13.25,5.58,5.58,0,0,1,2.47,1.51,6.18,6.18,0,0,1,1.35,2.25,7.83,7.83,0,0,1,.38,2.56,7.4,7.4,0,0,1-.37,2.42,6.21,6.21,0,0,1-1.52,2.45,5.78,5.78,0,0,1-2.21,1.3,7.14,7.14,0,0,1-2.16.3Z"/><path d="M790.75,91a4.19,4.19,0,0,1,1.15.12,2,2,0,0,1,.91.55,2.8,2.8,0,0,1,.58,1,4.48,4.48,0,0,1,.19,1.42,4.1,4.1,0,0,1-.18,1.29,2.61,2.61,0,0,1-.65,1.06,2.12,2.12,0,0,1-.85.49,3.87,3.87,0,0,1-1.08.13h-2.29V91h2.22m-1,5h.91a3.22,3.22,0,0,0,.74-.06,1.09,1.09,0,0,0,.49-.25,1.26,1.26,0,0,0,.32-.58,4.06,4.06,0,0,0,.12-1.11A3.7,3.7,0,0,0,792.2,93a1.43,1.43,0,0,0-.35-.59,1.1,1.1,0,0,0-.56-.28,5.28,5.28,0,0,0-1-.06h-.55v4m1-12h-2.23a7,7,0,0,0-5.91,3.26,6.88,6.88,0,0,0-1.08,3.87V97a7,7,0,0,0,7,7h2.29a10.41,10.41,0,0,0,3.21-.47,9,9,0,0,0,3.61-2.14A9.57,9.57,0,0,0,800,97.64a11.22,11.22,0,0,0,.56-3.57,11.47,11.47,0,0,0-.57-3.69,9.66,9.66,0,0,0-2.12-3.53,9.06,9.06,0,0,0-4-2.45,11.16,11.16,0,0,0-3.13-.4Z" fill="#fff"/><path d="M798.5,100.53a3.45,3.45,0,0,1-2.47-1A3.5,3.5,0,0,1,795,97V91a3.5,3.5,0,0,1,3.5-3.5H803a3.5,3.5,0,0,1,3.5,3.5v1a3.37,3.37,0,0,1-.23,1.24V94.5a3.49,3.49,0,0,1,.34,1.52v1a3.5,3.5,0,0,1-3.5,3.5Z"/><path d="M803,91v1h-3.26v1.34h3v1h-3V96h3.37v1H798.5V91H803m0-7H798.5a7,7,0,0,0-7,7v6a7,7,0,0,0,7,7h4.6a7,7,0,0,0,7-7V96a7,7,0,0,0-.34-2.17v-.06A6.87,6.87,0,0,0,810,92V91a7,7,0,0,0-7-7Z" fill="#fff"/><path d="M817.85,100.53a3,3,0,0,1-.6,0,2.92,2.92,0,0,1-.6,0h-1.17a3.63,3.63,0,0,0-1.2,0h-1.13a3.5,3.5,0,0,1-3.5-3.5V91a3.5,3.5,0,0,1,3.5-3.5H815a3.65,3.65,0,0,1,1.09.17,3.54,3.54,0,0,1,1.08-.17H819a3.5,3.5,0,0,1,3.5,3.5v6a3.5,3.5,0,0,1-3.5,3.5Z"/><path d="M819,91v6h-1.13V92.28L816.65,97h-1.17l-1.2-4.75V97h-1.13V91H815l1.09,4.12L817.15,91H819m0-7h-1.83a6.47,6.47,0,0,0-1.08.09A6.59,6.59,0,0,0,815,84h-1.83a7,7,0,0,0-7,7v6a7,7,0,0,0,7,7h1.13c.2,0,.4,0,.6,0s.4,0,.6,0h1.17c.2,0,.4,0,.6,0s.4,0,.6,0H819a7,7,0,0,0,7-7V91a7,7,0,0,0-7-7Z" fill="#fff"/><path d="M828.19,100.53a3.46,3.46,0,0,1-1.71-.45,3.53,3.53,0,0,1-1.72.45h-1.3a3.49,3.49,0,0,1-3.26-4.77l2.35-6a3.52,3.52,0,0,1,3.27-2.23h1.28a3.5,3.5,0,0,1,3.25,2.2l2.42,6a3.49,3.49,0,0,1-3.25,4.8Z"/><path d="M827.1,91l2.42,6h-1.33l-.52-1.37h-2.42L824.76,97h-1.3l2.35-6h1.29m-1.47,3.65h1.65l-.84-2.24-.81,2.24M827.1,84h-1.29a7,7,0,0,0-6.52,4.46l-2.35,6a7,7,0,0,0,6.52,9.54h1.3a7,7,0,0,0,1.72-.21,7,7,0,0,0,1.71.21h1.33a7,7,0,0,0,6.5-9.6l-2.42-6a7,7,0,0,0-6.5-4.4Z" fill="#fff"/><path d="M836.59,100.64a6.07,6.07,0,0,1-4.53-1.93,6.57,6.57,0,0,1-1.72-4.64,6.73,6.73,0,0,1,1.72-4.73,6.12,6.12,0,0,1,4.6-1.94,6,6,0,0,1,4.2,1.6,5.83,5.83,0,0,1,1.59,2.71,3.45,3.45,0,0,1-.1,2.2,3.44,3.44,0,0,1,.12,2.2,6,6,0,0,1-2.17,3.34A6.11,6.11,0,0,1,836.59,100.64Z"/><path d="M836.66,90.9a2.53,2.53,0,0,1,1.8.65,2.38,2.38,0,0,1,.62,1.11l-1.2.29a1.31,1.31,0,0,0-.45-.74,1.29,1.29,0,0,0-.83-.27,1.37,1.37,0,0,0-1.08.48A2.35,2.35,0,0,0,835.1,94a2.56,2.56,0,0,0,.41,1.63,1.34,1.34,0,0,0,1.07.49,1.24,1.24,0,0,0,.83-.31,1.82,1.82,0,0,0,.5-1l1.18.38a2.65,2.65,0,0,1-.9,1.47,2.58,2.58,0,0,1-1.6.48,2.61,2.61,0,0,1-2-.83,3.14,3.14,0,0,1-.77-2.24,3.31,3.31,0,0,1,.78-2.34,2.68,2.68,0,0,1,2-.83m0-7A9.67,9.67,0,0,0,829.5,87a10.12,10.12,0,0,0-2.66,7.11,10,10,0,0,0,2.69,7.05A9.57,9.57,0,0,0,845.85,97a6.88,6.88,0,0,0,.12-3.15,7,7,0,0,0-.15-3.14,9.34,9.34,0,0,0-2.57-4.31,9.45,9.45,0,0,0-6.59-2.54Z" fill="#fff"/><path d="M847.64,100.53a3.64,3.64,0,0,1-1.2-.2,3.58,3.58,0,0,1-1.19.2H844a3.5,3.5,0,0,1-3.5-3.5V91a3.5,3.5,0,0,1,3.5-3.5h1.22a3.35,3.35,0,0,1,1.19.21,3.4,3.4,0,0,1,1.2-.21h1.22a3.5,3.5,0,0,1,3.5,3.5v6a3.5,3.5,0,0,1-3.5,3.5Z"/><path d="M848.86,91v6h-1.22V94.4h-2.39V97H844V91h1.22v2.38h2.39V91h1.22m0-7h-1.22a7.88,7.88,0,0,0-1.2.1,7.74,7.74,0,0,0-1.19-.1H844a7,7,0,0,0-7,7v6a7,7,0,0,0,7,7h1.22a6.67,6.67,0,0,0,1.19-.1,6.78,6.78,0,0,0,1.2.1h1.22a7,7,0,0,0,7-7V91a7,7,0,0,0-7-7Z" fill="#fff"/><rect x="850.46" y="87.5" width="8.22" height="13.03" rx="3.5"/><path d="M855.18,91v6H854V91h1.22m0-7H854a7,7,0,0,0-7,7v6a7,7,0,0,0,7,7h1.22a7,7,0,0,0,7-7V91a7,7,0,0,0-7-7Z" fill="#fff"/><path d="M863.8,100.53a3.62,3.62,0,0,0-2.43,0h-1.13a3.5,3.5,0,0,1-3.5-3.5V91a3.5,3.5,0,0,1,3.5-3.5h1.19a3.66,3.66,0,0,1,1.23.22,3.58,3.58,0,0,1,1.23-.22H865a3.5,3.5,0,0,1,3.5,3.5v6a3.5,3.5,0,0,1-3.5,3.5Z"/><path d="M865,91v6H863.8l-2.43-3.93V97h-1.13V91h1.19l2.46,4V91H865m0-7h-1.14a7.12,7.12,0,0,0-1.23.11,7.3,7.3,0,0,0-1.23-.11h-1.19a7,7,0,0,0-7,7v6a7,7,0,0,0,7,7h1.13a7.43,7.43,0,0,1,2.43,0H865a7,7,0,0,0,7-7V91a7,7,0,0,0-7-7Z" fill="#fff"/><path d="M870.2,100.53a3.45,3.45,0,0,1-2.47-1,3.5,3.5,0,0,1-1-2.48V91a3.5,3.5,0,0,1,3.5-3.5h4.48a3.5,3.5,0,0,1,3.5,3.5v1a3.59,3.59,0,0,1-.23,1.24V94.5a3.49,3.49,0,0,1,.34,1.52v1a3.5,3.5,0,0,1-3.5,3.5Z"/><path d="M874.68,91v1h-3.26v1.34h3v1h-3V96h3.37v1H870.2V91h4.48m0-7H870.2a7,7,0,0,0-7,7v6a7,7,0,0,0,7,7h4.59a7,7,0,0,0,7-7V96a7,7,0,0,0-.34-2.17v-.06a6.87,6.87,0,0,0,.23-1.77V91a7,7,0,0,0-7-7Z" fill="#fff"/><path d="M885.35,100.53a3.5,3.5,0,0,1-2.48-1,3.54,3.54,0,0,1-1-2.48V91a3.5,3.5,0,0,1,3.5-3.5h4.47a3.5,3.5,0,0,1,3.5,3.5v1a3.59,3.59,0,0,1-.22,1.24V94.5a3.49,3.49,0,0,1,.34,1.52v1a3.5,3.5,0,0,1-3.5,3.5Z"/><path d="M889.82,91v1h-3.25v1.34h3v1h-3V96h3.37v1h-4.59V91h4.47m0-7h-4.47a7,7,0,0,0-7,7v6a7,7,0,0,0,7,7h4.59a7,7,0,0,0,7-7V96a7,7,0,0,0-.34-2.17v-.06a6.87,6.87,0,0,0,.22-1.77V91a7,7,0,0,0-7-7Z" fill="#fff"/><path d="M899.54,100.53a3,3,0,0,1-.6,0,3,3,0,0,1-.6,0h-1.17a3,3,0,0,1-.6,0,2.92,2.92,0,0,1-.6,0h-1.13a3.5,3.5,0,0,1-3.5-3.5V91a3.5,3.5,0,0,1,3.5-3.5h1.83a3.54,3.54,0,0,1,1.08.17,3.65,3.65,0,0,1,1.09-.17h1.83a3.5,3.5,0,0,1,3.5,3.5v6a3.5,3.5,0,0,1-3.5,3.5Z"/><path d="M900.67,91v6h-1.13V92.28L898.34,97h-1.17L896,92.28V97h-1.13V91h1.83l1.09,4.12L898.84,91h1.83m0-7h-1.83a6.47,6.47,0,0,0-1.08.09,6.59,6.59,0,0,0-1.09-.09h-1.83a7,7,0,0,0-7,7v6a7,7,0,0,0,7,7H896a5.82,5.82,0,0,0,.6,0c.2,0,.4,0,.6,0h1.17c.2,0,.4,0,.6,0s.4,0,.6,0h1.13a7,7,0,0,0,7-7V91a7,7,0,0,0-7-7Z" fill="#fff"/><path d="M908.24,100.63a6.61,6.61,0,0,1-2.74-.5,5.39,5.39,0,0,1-2-1.54,5.1,5.1,0,0,1-1-2,9.9,9.9,0,0,1-.22-2.32V91a3.5,3.5,0,0,1,3.5-3.5H907a3.45,3.45,0,0,0,2.37,0h1.22a3.5,3.5,0,0,1,3.5,3.5v3.17a11.11,11.11,0,0,1-.18,2.28,5.2,5.2,0,0,1-1.12,2.28,5.31,5.31,0,0,1-2,1.46A6.38,6.38,0,0,1,908.24,100.63Z"/><path d="M910.57,91v3.17a7.75,7.75,0,0,1-.1,1.53,1.68,1.68,0,0,1-.36.76,1.84,1.84,0,0,1-.71.49,3.17,3.17,0,0,1-1.16.18,3.38,3.38,0,0,1-1.31-.19,2,2,0,0,1-.71-.52,1.85,1.85,0,0,1-.34-.67,7.34,7.34,0,0,1-.12-1.53V91H907v3.27a7.26,7.26,0,0,0,0,1,1,1,0,0,0,.37.59,1.32,1.32,0,0,0,.81.22,1.21,1.21,0,0,0,.78-.21.83.83,0,0,0,.32-.52,7.64,7.64,0,0,0,.05-1V91h1.22m0-7h-1.22a6.75,6.75,0,0,0-1.19.1A6.56,6.56,0,0,0,907,84h-1.22a7,7,0,0,0-7,7v3.22a13.27,13.27,0,0,0,.31,3.11,8.47,8.47,0,0,0,1.7,3.47,8.69,8.69,0,0,0,3.29,2.52,10,10,0,0,0,4.18.81,9.85,9.85,0,0,0,3.82-.71,8.66,8.66,0,0,0,3.35-2.39,8.77,8.77,0,0,0,1.9-3.82,14.26,14.26,0,0,0,.26-3V91a7,7,0,0,0-7-7Z" fill="#fff"/><polygon points="905.76 91 905.76 91 905.76 91 905.76 91"/><path d="M905.76,91h0m0-7a7.15,7.15,0,0,0-1.71.21h0a7,7,0,1,0,1.71-.21Z" fill="#fff"/><path d="M915.77,100.54a3.5,3.5,0,0,1-3.5-3.5v-6a3.5,3.5,0,0,1,3.5-3.5H917a3.5,3.5,0,0,1,3.5,3.5v1.5a3.5,3.5,0,0,1,3,3.47v1a3.5,3.5,0,0,1-3.5,3.5Z"/><path d="M917,91.05v5h3v1h-4.25v-6H917m0-7h-1.22a7,7,0,0,0-7,7v6a7,7,0,0,0,7,7H920a7,7,0,0,0,7-7V96a7,7,0,0,0-3.08-5.8,7,7,0,0,0-7-6.17Z" fill="#fff"/><path d="M928.89,100.53a3.53,3.53,0,0,1-1.72-.45,3.47,3.47,0,0,1-1.72.45h-1.29a3.49,3.49,0,0,1-3.26-4.77l2.35-6a3.5,3.5,0,0,1,3.26-2.23h1.29a3.5,3.5,0,0,1,3.25,2.2l2.42,6a3.49,3.49,0,0,1-3.25,4.8Z"/><path d="M927.8,91l2.42,6h-1.33l-.53-1.37H926l-.5,1.37h-1.29l2.35-6h1.29m-1.47,3.65H928l-.83-2.24-.81,2.24M927.8,84h-1.29A7,7,0,0,0,920,88.46l-2.35,6a7,7,0,0,0,6.52,9.53h1.29a7.15,7.15,0,0,1,3.44,0h1.33a7,7,0,0,0,6.5-9.6l-2.42-6a7,7,0,0,0-6.5-4.4Z" fill="#fff"/><path d="M935.48,100.53A3.5,3.5,0,0,1,932,97v-2A3.51,3.51,0,0,1,930.19,92V91a3.5,3.5,0,0,1,3.5-3.5h4.8A3.5,3.5,0,0,1,942,91v1a3.49,3.49,0,0,1-1.79,3v2a3.5,3.5,0,0,1-3.5,3.5Z"/><path d="M938.49,91v1H936.7v5h-1.22V92h-1.79V91h4.8m0-7h-4.8a7,7,0,0,0-7,7v1a7,7,0,0,0,1.79,4.68V97a7,7,0,0,0,7,7h1.22a7,7,0,0,0,7-7v-.34A7,7,0,0,0,945.49,92V91a7,7,0,0,0-7-7Z" fill="#fff"/><path d="M945.69,100.64A6.28,6.28,0,0,1,941,98.75a6.55,6.55,0,0,1-1.78-4.7,7.22,7.22,0,0,1,.58-3,6.43,6.43,0,0,1,1.24-1.83A5.8,5.8,0,0,1,943,87.9a6.87,6.87,0,0,1,2.65-.5,6.26,6.26,0,0,1,4.64,1.89,7.16,7.16,0,0,1,0,9.45A6.29,6.29,0,0,1,945.69,100.64Z"/><path d="M945.68,90.9a2.82,2.82,0,0,1,2.13.83,3.7,3.7,0,0,1,0,4.58,2.82,2.82,0,0,1-2.13.83,2.88,2.88,0,0,1-2.14-.82,3.14,3.14,0,0,1-.79-2.27,3.69,3.69,0,0,1,.28-1.54,2.59,2.59,0,0,1,.56-.83,2.2,2.2,0,0,1,.78-.54,3.28,3.28,0,0,1,1.3-.24m0,5.19a1.53,1.53,0,0,0,1.2-.52,2.3,2.3,0,0,0,.46-1.57,2.28,2.28,0,0,0-.45-1.55,1.56,1.56,0,0,0-1.21-.51,1.52,1.52,0,0,0-1.21.52,2.83,2.83,0,0,0,0,3.11,1.54,1.54,0,0,0,1.2.52m0-12.19a10.23,10.23,0,0,0-4,.78,9.14,9.14,0,0,0-3.11,2.13,9.88,9.88,0,0,0-1.93,2.86,10.77,10.77,0,0,0-.88,4.38,10,10,0,0,0,2.77,7.14,10.15,10.15,0,0,0,14.33,0,10.65,10.65,0,0,0,0-14.31,9.85,9.85,0,0,0-7.16-3Z" fill="#fff"/><path d="M953.45,100.54A3.5,3.5,0,0,1,950,97V91a3.5,3.5,0,0,1,3.5-3.5H956a7.44,7.44,0,0,1,2.62.38,4.94,4.94,0,0,1,2.44,2,5.3,5.3,0,0,1,.81,2.83,5.35,5.35,0,0,1-.37,2l.32.53a3.5,3.5,0,0,1-3,5.35h-1.45a3.52,3.52,0,0,0-2.75,0Z"/><path d="M956,91a4.33,4.33,0,0,1,1.4.16,1.37,1.37,0,0,1,.7.58,1.73,1.73,0,0,1,.27,1,1.66,1.66,0,0,1-.4,1.13,1.93,1.93,0,0,1-1.19.55,2.87,2.87,0,0,1,.64.51,6.59,6.59,0,0,1,.7,1l.73,1.18h-1.45l-.88-1.32a10.1,10.1,0,0,0-.64-.88.93.93,0,0,0-.37-.25,1.87,1.87,0,0,0-.62-.07h-.24V97h-1.22V91H956m-1.35,2.55h.9a4.76,4.76,0,0,0,1.1-.07.68.68,0,0,0,.34-.26.79.79,0,0,0,.12-.45.71.71,0,0,0-.16-.49.82.82,0,0,0-.46-.24c-.1,0-.39,0-.89,0h-1v1.53M956,84h-2.57a7,7,0,0,0-7,7v6a7,7,0,0,0,7,7h1.22a7.12,7.12,0,0,0,1.39-.14,6.82,6.82,0,0,0,1.36.14h1.45a7,7,0,0,0,6.39-9.86,8.18,8.18,0,0,0,.13-1.49A8.77,8.77,0,0,0,964,88a8.35,8.35,0,0,0-4.18-3.4A10.75,10.75,0,0,0,956,84Z" fill="#fff"/><polygon points="944.99 24.53 973.88 24.71 987.3 10.76 937.87 10.58 891.42 57.21 884.91 57.57 885.09 12.71 858.98 39.36 852.73 40.1 852.73 12.94 799.26 65.84 792.62 66.55 793.18 12.12 746.45 59.57 740.31 59.6 739.6 14.03 714.38 39.42 707.37 39.78 707.64 12.67 641.02 79.82 662.96 79.46 691.73 51.54 697.25 51.54 696.98 79.6 719.89 56.15 725.37 56.15 725.37 80.03 700.15 105.07 724.32 104.71 771.87 56.63 778.27 56.63 778.27 80.25 807.9 80.43 836.56 51.59 842.09 51.23 842.01 78.49 864.91 55.59 870.32 55.59 870.68 78.68 870.21 79.89 939.4 79.89 952.65 66.46 909.63 65.73 909.24 59.48 915.94 52.42 932.17 52.42 946.27 38.14 937.75 37.78 937.75 31.77 944.99 24.53" fill="url(#Dégradé_sans_nom_2)"/><path d="M706.37,15.38,642.28,79.46,635,82.2s-.38,0-.17-.29c0,0,74.32-74.34,74.45-74.45a.28.28,0,0,1,.3,0Z" fill="url(#Dégradé_sans_nom_38)"/><path d="M726.09,80.39l-23.78,23.78-7,2.83s-.37,0-.15-.26L723,79Z" fill="url(#Dégradé_sans_nom_38-2)"/><polygon points="664.72 82.19 635.01 82.19 642.3 79.46 662.96 79.46 664.72 82.19" fill="url(#Dégradé_sans_nom_38-3)"/><polygon points="725.44 107 695.3 107 702.31 104.17 723.78 104.17 725.44 107" fill="url(#Dégradé_sans_nom_38-4)"/><polygon points="940.93 82.18 868.33 82.16 870.75 79.35 938.87 79.35 940.93 82.18" fill="url(#Dégradé_sans_nom_38-5)"/><path d="M809.27,82.73l-32.66,0a1.2,1.2,0,0,1-.51-.21L779,79.89h28.55Z" fill="url(#Dégradé_sans_nom_38-6)"/><path d="M936.24,8.21h56.19c.49,0,.49.2.49.2l-6.7,2.89H938.58Z" fill="url(#Dégradé_sans_nom_38-7)"/><polygon points="975.32 26.84 945.95 26.84 944.63 24.17 973.34 24.17 975.32 26.84" fill="url(#Dégradé_sans_nom_38-8)"/><polygon points="933.83 54.42 918.19 54.42 915.58 52.06 931.81 52.06 933.83 54.42" fill="url(#Dégradé_sans_nom_38-9)"/><path d="M945.38,38.5h-8.61L936,35h16.14c.22,0,.28.1.28.1Z" fill="url(#Dégradé_sans_nom_38-10)"/><path d="M695.07,51.77,664.72,82.2,663,79.46,692.5,50.08a3.21,3.21,0,0,1,3-1.1Z" fill="url(#Dégradé_sans_nom_38-11)"/><path d="M706.38,39.75V15.36l3.21-7.92s.19,0,.19.36v34l-.2,1.47S706.73,43.28,706.38,39.75Z" fill="url(#Dégradé_sans_nom_38-12)"/><path d="M743.26,63.31s-4.14,1.24-4.2-3.57c0-4.63,0-43.91,0-43.91L742.36,7s.12,0,.12.46l0,51.84Z" fill="url(#Dégradé_sans_nom_38-13)"/><path d="M795.81,69.69s-3.74.37-3.78-3.86l0-50.74,3-7.65a.54.54,0,0,1,.36.57V65.78Z" fill="url(#Dégradé_sans_nom_38-14)"/><path d="M854.93,43.4a3.35,3.35,0,0,1-3.61-2.9V15.33l2.78-7.7a.52.52,0,0,1,.36.56V39.67Z" fill="url(#Dégradé_sans_nom_38-15)"/><path d="M887.69,61.08A3.27,3.27,0,0,1,884,58.31V15.4l3.08-7.95s.17.14.17,1.08V57.48Z" fill="url(#Dégradé_sans_nom_38-16)"/><path d="M695.63,83.58s-.52,0-.51-.73,0-31.08,0-31.08-.77-1,.39-2.79a3.19,3.19,0,0,1,2.6,2.7V77.26Z" fill="url(#Dégradé_sans_nom_38-17)"/><path d="M722.94,56.82,696.4,83.4c-.22.24-.77.17-.77.17l2.43-6.31,22.85-22.87a3,3,0,0,1,2.43-1Z" fill="url(#Dégradé_sans_nom_38-18)"/><path d="M992.79,9.31,975.32,26.84l-2-2.67,12.88-12.88,6.7-2.88A.87.87,0,0,1,992.79,9.31Z" fill="url(#Dégradé_sans_nom_38-19)"/><path d="M723,79l0-22.2a3.59,3.59,0,0,1,.4-3.46A2.94,2.94,0,0,1,726.09,56V80.4Z" fill="url(#Dégradé_sans_nom_38-20)"/><path d="M739.06,15.83,712.78,42.11a4.7,4.7,0,0,1-3.2,1.16,3.55,3.55,0,0,1,.2-3.84s32-32,32.24-32.25.34-.16.34-.16Z" fill="url(#Dégradé_sans_nom_38-21)"/><path d="M792,15.09,744.87,62.23a3.47,3.47,0,0,1-1.61,1.08c-2.4-1.19-.77-4-.77-4S793.61,8.24,793.84,8c.6-.7,1.11-.56,1.11-.56Z" fill="url(#Dégradé_sans_nom_38-22)"/><path d="M851.32,15.33,798,68.67a3.87,3.87,0,0,1-2.17,1c-2-1-.5-3.92-.5-3.92S852.74,8.42,853,8.17c.6-.69,1.13-.54,1.13-.54Z" fill="url(#Dégradé_sans_nom_38-23)"/><path d="M884,15.4l-26.94,27a4.08,4.08,0,0,1-2.14,1c-1.86-1.21-.37-3.8-.37-3.8L886.21,7.87c.67-.65.88-.42.88-.42Z" fill="url(#Dégradé_sans_nom_38-24)"/><path d="M952.45,35.81,933.83,54.42l-2-2.36L945.38,38.5l7-3.42S952.7,35.26,952.45,35.81Z" fill="url(#Dégradé_sans_nom_38-25)"/><path d="M959.21,64,940.93,82.18l-2.06-2.83,12.7-12.71,7.79-3.41S959.61,63.51,959.21,64Z" fill="url(#Dégradé_sans_nom_38-26)"/><path d="M938.58,11.3,889.84,60a4,4,0,0,1-2.15,1.05,3.37,3.37,0,0,1-.44-3.79l49-49.09Z" fill="url(#Dégradé_sans_nom_38-27)"/><path d="M945.94,26.84l-8,8.1a3.52,3.52,0,0,0-1.14,3.56,2.49,2.49,0,0,1-2.16-2.34,3.35,3.35,0,0,1,.85-2.83l9.17-9.16Z" fill="url(#Dégradé_sans_nom_38-28)"/><path d="M723.78,104.17l49.38-49.4a3.34,3.34,0,0,1,2.71-1.12L775.58,57l-50.14,50Z" fill="url(#Dégradé_sans_nom_38-29)"/><path d="M807.54,79.89l30.2-30.21a3.36,3.36,0,0,1,2.7-1.12l-.54,3.56L809.27,82.73Z" fill="url(#Dégradé_sans_nom_38-30)"/><path d="M842.91,76.88l23.31-23.32a2.92,2.92,0,0,1,2.15-1.12l-.07,3.48L841,83.2c-.36.36-.65.26-.65.26Z" fill="url(#Dégradé_sans_nom_38-31)"/><path d="M863.1,81.82l4.59-4.61,3.53,1.47-.47.67-2.42,2.81-.17.19h-4.89a.38.38,0,0,1-.33-.17S862.84,82.09,863.1,81.82Z" fill="url(#Dégradé_sans_nom_38-32)"/><path d="M775.63,81.37l0-24.41s-1.1-1.28.29-3.31a3.32,3.32,0,0,1,3.12,3V79.89L776.1,82.5A1.34,1.34,0,0,1,775.63,81.37Z" fill="url(#Dégradé_sans_nom_38-33)"/><path d="M839.94,83l-.05-30.9a3.3,3.3,0,0,1,.55-3.56c.38,0,2.06.3,2.47,3V76.88l-2.56,6.58A.54.54,0,0,1,839.94,83Z" fill="url(#Dégradé_sans_nom_38-34)"/><path d="M867.69,77.21V56.53a3.28,3.28,0,0,1,.68-4.09,2.78,2.78,0,0,1,2.85,2.74v23.5Z" fill="url(#Dégradé_sans_nom_38-35)"/><path d="M918.19,54.42,909.67,63,907.23,66c-2.47-1.56-1.24-4.35-.58-5l8.93-8.92Z" fill="url(#Dégradé_sans_nom_38-36)"/><path d="M951.57,66.64H909.5a4.59,4.59,0,0,1-2.27-.63c0-2.26,2.44-3.05,2.44-3.05h49.27a.4.4,0,0,1,.42.27Z" fill="url(#Dégradé_sans_nom_38-37)"/><path d="M633.68,97V91h1.82l1.09,4.12L637.68,91h1.82v6h-1.13V92.28L637.17,97H636l-1.19-4.75V97Z"/><path d="M644.59,91h1.22v3.27a7.26,7.26,0,0,0,0,1,1,1,0,0,0,.38.59,1.27,1.27,0,0,0,.8.22,1.21,1.21,0,0,0,.78-.21.79.79,0,0,0,.32-.52,6.22,6.22,0,0,0,0-1V91h1.22v3.17a7.75,7.75,0,0,1-.1,1.53,1.59,1.59,0,0,1-.36.76,1.77,1.77,0,0,1-.71.49,3.14,3.14,0,0,1-1.16.18,3.42,3.42,0,0,1-1.31-.19,2,2,0,0,1-.71-.52,1.85,1.85,0,0,1-.34-.67,7.34,7.34,0,0,1-.12-1.53Z"/><path d="M654.61,97v-6h1.21v5h3v1h-4.24Z"/><path d="M664.34,97V92h-1.79V91h4.8v1h-1.79v5Z"/><path d="M672,97V91h1.22v6Z"/><path d="M678.25,97V91h2a7.12,7.12,0,0,1,1.45.09,1.57,1.57,0,0,1,.87.59,1.92,1.92,0,0,1,.35,1.18,2.07,2.07,0,0,1-.2.94,1.67,1.67,0,0,1-.52.59,1.63,1.63,0,0,1-.63.29,7.83,7.83,0,0,1-1.26.08h-.8V97Zm1.21-5v1.71h.67a3.27,3.27,0,0,0,1-.09.78.78,0,0,0,.39-.3.81.81,0,0,0,.13-.47.76.76,0,0,0-.19-.54.88.88,0,0,0-.49-.27,7.34,7.34,0,0,0-.88,0Z"/><path d="M687.79,97v-6H689v5h3v1h-4.25Z"/><path d="M696.79,97V91h4.47v1H698v1.34h3v1h-3V96h3.37v1Z"/><path d="M754.07,97h-1.32l-.53-1.37h-2.41l-.5,1.37H748l2.35-6h1.29Zm-2.24-2.38L751,92.41l-.82,2.24Z"/><path d="M758.61,97V91h2.57a4.33,4.33,0,0,1,1.4.16,1.42,1.42,0,0,1,.7.58,1.73,1.73,0,0,1,.27,1,1.66,1.66,0,0,1-.4,1.13,1.93,1.93,0,0,1-1.2.55,3.28,3.28,0,0,1,.66.51,6.71,6.71,0,0,1,.69,1L764,97h-1.46l-.88-1.32a8.27,8.27,0,0,0-.64-.88.93.93,0,0,0-.37-.25,1.84,1.84,0,0,0-.61-.07h-.25V97h-1.22Zm1.22-3.48h.9a4.76,4.76,0,0,0,1.1-.07.73.73,0,0,0,.34-.26.79.79,0,0,0,.12-.45.71.71,0,0,0-.16-.49.82.82,0,0,0-.46-.24c-.1,0-.4,0-.89,0h-.95v1.53Z"/><path d="M772.44,94.81l1.18.38a2.65,2.65,0,0,1-.9,1.47,2.58,2.58,0,0,1-1.6.48,2.61,2.61,0,0,1-2-.83,3.1,3.1,0,0,1-.77-2.24,3.31,3.31,0,0,1,.78-2.34,2.67,2.67,0,0,1,2-.83,2.53,2.53,0,0,1,1.8.65,2.47,2.47,0,0,1,.62,1.11L772.4,93a1.25,1.25,0,0,0-1.27-1,1.38,1.38,0,0,0-1.09.48,2.35,2.35,0,0,0-.42,1.56,2.56,2.56,0,0,0,.41,1.63,1.37,1.37,0,0,0,1.07.49,1.24,1.24,0,0,0,.84-.31A1.82,1.82,0,0,0,772.44,94.81Z"/><path d="M784,97h-1.33l-.53-1.37h-2.41l-.5,1.37h-1.29l2.35-6h1.29Zm-2.25-2.38-.83-2.24-.81,2.24Z"/><path d="M788.52,91h2.23a4.19,4.19,0,0,1,1.15.12,2,2,0,0,1,.91.55,2.8,2.8,0,0,1,.58,1,4.48,4.48,0,0,1,.19,1.42,4.1,4.1,0,0,1-.18,1.29,2.61,2.61,0,0,1-.65,1.06,2.12,2.12,0,0,1-.85.49,3.87,3.87,0,0,1-1.08.13h-2.29V91Zm1.22,1v4h.91a3.22,3.22,0,0,0,.74-.06,1.09,1.09,0,0,0,.49-.25,1.26,1.26,0,0,0,.32-.58,4.06,4.06,0,0,0,.12-1.11A3.7,3.7,0,0,0,792.2,93a1.43,1.43,0,0,0-.35-.59,1.1,1.1,0,0,0-.56-.28,5.28,5.28,0,0,0-1-.06Z"/><path d="M798.5,97V91H803v1h-3.26v1.34h3v1h-3V96h3.37v1Z"/><path d="M813.15,97V91H815l1.09,4.12L817.15,91H819v6h-1.13V92.28L816.65,97h-1.17l-1.2-4.75V97Z"/><path d="M829.52,97h-1.33l-.52-1.37h-2.42L824.76,97h-1.3l2.35-6h1.29Zm-2.24-2.38-.84-2.24-.81,2.24Z"/><path d="M837.91,94.81l1.18.38a2.65,2.65,0,0,1-.9,1.47,2.58,2.58,0,0,1-1.6.48,2.61,2.61,0,0,1-2-.83,3.14,3.14,0,0,1-.77-2.24,3.31,3.31,0,0,1,.78-2.34,2.68,2.68,0,0,1,2-.83,2.53,2.53,0,0,1,1.8.65,2.38,2.38,0,0,1,.62,1.11l-1.2.29a1.31,1.31,0,0,0-.45-.74,1.29,1.29,0,0,0-.83-.27,1.37,1.37,0,0,0-1.08.48A2.35,2.35,0,0,0,835.1,94a2.56,2.56,0,0,0,.41,1.63,1.34,1.34,0,0,0,1.07.49,1.24,1.24,0,0,0,.83-.31A1.82,1.82,0,0,0,837.91,94.81Z"/><path d="M844,97V91h1.22v2.38h2.39V91h1.22v6h-1.22V94.4h-2.39V97Z"/><path d="M854,97V91h1.22v6Z"/><path d="M860.24,97V91h1.19l2.46,4V91H865v6H863.8l-2.43-3.93V97Z"/><path d="M870.2,97V91h4.48v1h-3.26v1.34h3v1h-3V96h3.37v1Z"/><path d="M885.35,97V91h4.47v1h-3.25v1.34h3v1h-3V96h3.37v1Z"/><path d="M894.84,97V91h1.83l1.09,4.12L898.84,91h1.83v6h-1.13V92.28L898.34,97h-1.17L896,92.28V97Z"/><path d="M905.76,91H907v3.27a7.26,7.26,0,0,0,0,1,1,1,0,0,0,.37.59,1.32,1.32,0,0,0,.81.22,1.21,1.21,0,0,0,.78-.21.83.83,0,0,0,.32-.52,7.64,7.64,0,0,0,.05-1V91h1.22v3.17a7.75,7.75,0,0,1-.1,1.53,1.68,1.68,0,0,1-.36.76,1.84,1.84,0,0,1-.71.49,3.17,3.17,0,0,1-1.16.18,3.38,3.38,0,0,1-1.31-.19,2,2,0,0,1-.71-.52,1.85,1.85,0,0,1-.34-.67,7.34,7.34,0,0,1-.12-1.53V91Z"/><path d="M915.77,97v-6H917v5h3v1h-4.25Z"/><path d="M930.22,97h-1.33l-.53-1.37H926l-.5,1.37h-1.29l2.35-6h1.29ZM928,94.65l-.83-2.24-.81,2.24Z"/><path d="M935.48,97V92h-1.79V91h4.8v1H936.7v5Z"/><path d="M942.76,94.05a3.69,3.69,0,0,1,.28-1.54,2.59,2.59,0,0,1,.56-.83,2.2,2.2,0,0,1,.78-.54,3.28,3.28,0,0,1,1.3-.24,2.82,2.82,0,0,1,2.13.83,3.7,3.7,0,0,1,0,4.58,2.82,2.82,0,0,1-2.13.83,2.88,2.88,0,0,1-2.14-.82A3.14,3.14,0,0,1,942.76,94.05ZM944,94a2.26,2.26,0,0,0,.47,1.56,1.64,1.64,0,0,0,2.4,0,2.3,2.3,0,0,0,.46-1.57,2.28,2.28,0,0,0-.45-1.55,1.69,1.69,0,0,0-2.42,0A2.29,2.29,0,0,0,944,94Z"/><path d="M953.45,97V91H956a4.33,4.33,0,0,1,1.4.16,1.37,1.37,0,0,1,.7.58,1.73,1.73,0,0,1,.27,1,1.66,1.66,0,0,1-.4,1.13,1.93,1.93,0,0,1-1.19.55,2.87,2.87,0,0,1,.64.51,6.59,6.59,0,0,1,.7,1l.73,1.18h-1.45l-.88-1.32a10.1,10.1,0,0,0-.64-.88.93.93,0,0,0-.37-.25,1.87,1.87,0,0,0-.62-.07h-.24V97h-1.22Zm1.22-3.48h.9a4.76,4.76,0,0,0,1.1-.07.68.68,0,0,0,.34-.26.79.79,0,0,0,.12-.45.71.71,0,0,0-.16-.49.82.82,0,0,0-.46-.24c-.1,0-.39,0-.89,0h-1v1.53Z"/></g></svg>