<svg xmlns="http://www.w3.org/2000/svg" viewBox="0 0 462 342.561"><path fill="#2d2a2a" d="M148.089 342.56H462V0H0v342.56z"/><path fill="#231e1e" d="M20 0v214.329L9 234.371V342.56H0V0zM442 0l-.135 214.071 11.135 20.3V342.56h9V0z"/><path d="M432.602 221.763c-11.592.698-26.661-.33-29.228 3.357-15.985 22.208-55.171 62.226-119.587 62.226s-90.619-29.405-116.635-57.083c-5.652-6.747-6.359-8.699-15.151-8.504l-.004-.013H27.133c-3.923 0-7.133-3.21-7.133-7.133V0h421.866v212.496c0 5.087-4.17 9.25-9.266 9.25" fill="#312f2f"/><ellipse cx="283.833" cy="143.688" rx="140.5" ry="141.026" fill="#1b1818"/><ellipse cx="283.202" cy="140.506" rx="121.2" ry="116.724" fill="#2c2929"/><linearGradient id="a" gradientUnits="userSpaceOnUse" x1="-119" y1="663.996" x2="-118" y2="663.996" gradientTransform="scale(37.625 -37.625) rotate(90 277.79 393.733)"><stop offset="0" stop-color="#4e4e4e"/><stop offset=".141" stop-color="#434141"/><stop offset=".442" stop-color="#2f2c2c"/><stop offset=".733" stop-color="#241e1e"/><stop offset="1" stop-color="#201a1a"/></linearGradient><path d="M369.89 115.006H196.515c-10.347 0-18.813-8.466-18.813-18.813s8.466-18.813 18.813-18.813H369.89c10.347 0 18.813 8.465 18.813 18.813-.001 10.348-8.467 18.813-18.813 18.813z" fill="url(#a)"/><path d="M282.871 110.781h83.221c5.577 0 10.099-4.32 10.099-18.99h-10.099v-7.56h.334H199.978h.333v7.56h-10.098c0 14.67 4.521 18.99 10.098 18.99h83.221"/><linearGradient id="b" gradientUnits="userSpaceOnUse" x1="-119" y1="663.996" x2="-118" y2="663.996" gradientTransform="matrix(0 -24.5833 -24.5833 0 16606.428 -2815.62)"><stop offset="0" stop-color="#484848"/><stop offset="0" stop-color="#484848"/><stop offset="1" stop-color="#241e1e"/><stop offset="1" stop-color="#241e1e"/></linearGradient><path d="M282.874 109.798h82.415c5.523 0 10-4 10-17.583h-10v-7h.33-164.835.33v7h-10c0 13.583 4.478 17.583 10 17.583h82.415" fill="url(#b)"/><path fill="#010102" d="M191.611 98.702h183.181v.892H191.611z"/><path d="M212.989 87.804h-1.75c0-.393.394-.715.875-.715s.875.322.875.715z" fill="#363636"/><path d="M212.989 95.834h-1.75c0 .393.394.714.875.714s.875-.321.875-.714z" fill="#464646"/><path fill="#353535" d="M211.239 87.804h1.75v8.029h-1.75z"/><path d="M212.989 101.769h-1.75c0-.316.394-.575.875-.575s.875.259.875.575z" fill="#363636"/><path d="M212.989 108.236h-1.75c0 .316.394.576.875.576s.875-.26.875-.576z" fill="#464646"/><path fill="#353535" d="M211.239 101.769h1.75v6.467h-1.75z"/><path d="M353.414 87.804h1.75c0-.393-.394-.715-.875-.715-.48 0-.875.322-.875.715z" fill="#363636"/><path d="M353.414 95.834h1.75c0 .393-.394.714-.875.714-.48 0-.875-.321-.875-.714z" fill="#464646"/><path fill="#353535" d="M353.414 87.804h1.75v8.029h-1.75z"/><path d="M353.414 101.769h1.75c0-.316-.394-.575-.875-.575-.48 0-.875.259-.875.575z" fill="#363636"/><path d="M353.414 108.236h1.75c0 .316-.394.576-.875.576-.48 0-.875-.26-.875-.576z" fill="#464646"/><path fill="#353535" d="M353.414 101.769h1.75v6.467h-1.75z"/><path d="M233.035 276.528v-29.736c15.287 6.704 32.275 10.438 50.169 10.438 17.892 0 34.878-3.734 50.165-10.437l-.001-.002v29.551l.001-.771c-15.67 5.537-32.561 9.141-50.167 9.141s-34.496-4.095-50.167-9.632" fill="#a02b59"/><ellipse cx="283.202" cy="270.321" rx="3.311" ry="3.511" fill="#631418"/><path d="M285.49 270.254c0 1.288-1.024 2.332-2.288 2.332-1.265 0-2.289-1.044-2.289-2.332 0-1.289 1.024-2.333 2.289-2.333 1.264 0 2.288 1.044 2.288 2.333z" fill="#f95d5d"/><path d="M256.133 266.237c.565.081.848.12 1.413.196.127.017.25.04.369.07.119.029.229.069.333.117.104.048.197.106.28.172a.896.896 0 0 1 .32.55c.023.118.024.251.005.399-.049.391-.206.669-.472.834-.265.165-.637.217-1.112.152l-.768-.104-.191 1.381-.7-.099.523-3.668zm.457 1.758l.777.106c.128.017.237.02.331.008a.567.567 0 0 0 .232-.073l.146-.15.069-.225a.482.482 0 0 0-.025-.261l-.137-.173-.22-.103a2.198 2.198 0 0 0-.273-.054l-.758-.104-.142 1.029zM261.32 266.844c.257.03.49.102.698.216.207.115.382.263.521.446s.242.396.307.64c.064.243.081.507.051.792-.029.281-.1.534-.213.758a1.687 1.687 0 0 1-1.053.889 1.881 1.881 0 0 1-.747.058c-.268-.031-.508-.105-.718-.224s-.387-.271-.526-.456a1.75 1.75 0 0 1-.298-.646 2.179 2.179 0 0 1-.036-.791c.035-.286.112-.54.23-.763s.266-.406.445-.553c.178-.146.383-.251.61-.315.229-.062.471-.08.729-.051zm-.369 3.187c.161.019.311.006.452-.038s.267-.116.375-.216c.108-.101.199-.228.27-.381s.117-.332.139-.533c.022-.204.016-.39-.021-.554a1.204 1.204 0 0 0-.181-.428.968.968 0 0 0-.313-.288 1.072 1.072 0 0 0-.417-.134 1.07 1.07 0 0 0-.443.037.96.96 0 0 0-.374.211c-.11.098-.202.225-.274.376-.073.151-.122.328-.146.529s-.019.387.017.552c.035.164.094.31.177.432a1.027 1.027 0 0 0 .739.435zM268.266 267.572a307.93 307.93 0 0 1-1.338 3.61l-.627-.053a293.812 293.812 0 0 1-.524-2.772 290.62 290.62 0 0 1-1.007 2.634l-.628-.061a334.486 334.486 0 0 1-.667-3.792l.727.074c.146 1.016.222 1.525.375 2.542.373-.966.559-1.449.926-2.417l.734.067c.187 1.016.282 1.525.476 2.541.334-.971.499-1.457.827-2.43l.726.057zM271.431 271.505a155.73 155.73 0 0 1-2.89-.195l.277-3.696c1.102.083 1.652.12 2.754.187l-.038.637c-.828-.051-1.242-.078-2.07-.137l-.06.835c.778.056 1.167.081 1.946.129l-.039.631c-.781-.048-1.172-.074-1.952-.13l-.068.961c.871.062 1.307.091 2.178.143l-.038.635zM275.438 271.706l-.761-.031c-.127-.409-.19-.614-.315-1.023l-.096-.197-.143-.158-.185-.109-.219-.047-.752-.038-.078 1.487c-.282-.016-.424-.022-.706-.039l.208-3.7c.666.037.998.055 1.664.086.1.004.194.011.283.019l.257.043.234.086.211.147.151.181.106.209.06.227.013.23a.995.995 0 0 1-.188.575 1.07 1.07 0 0 1-.474.353c.154.128.277.323.367.588.147.445.219.666.363 1.111zm-2.435-2.242c.371.02.557.028.929.047.125.006.233.003.324-.011l.223-.074.132-.148a.62.62 0 0 0 .05-.229c.007-.163-.04-.287-.14-.368-.1-.082-.257-.128-.471-.139-.398-.019-.598-.028-.996-.05l-.051.972zM304.8 266.877c.258-.029.501-.011.729.054.228.064.431.17.609.317.177.147.324.332.442.555a2.2 2.2 0 0 1 .228.76c.035.281.023.544-.036.787s-.16.458-.301.646a1.68 1.68 0 0 1-.525.457c-.211.119-.45.194-.716.224-.268.03-.519.012-.749-.056a1.7 1.7 0 0 1-.615-.326c-.178-.149-.323-.338-.436-.563s-.184-.479-.213-.762a2.188 2.188 0 0 1 .053-.796c.064-.243.167-.455.309-.638s.316-.331.524-.444c.207-.114.44-.186.697-.215zm.358 3.188a1.1 1.1 0 0 0 .432-.139.973.973 0 0 0 .316-.296c.084-.122.143-.266.178-.431a1.73 1.73 0 0 0 .015-.552 1.657 1.657 0 0 0-.145-.534 1.179 1.179 0 0 0-.272-.376.958.958 0 0 0-.369-.21 1.072 1.072 0 0 0-.436-.037 1.09 1.09 0 0 0-.425.136.966.966 0 0 0-.316.291 1.19 1.19 0 0 0-.183.429 1.645 1.645 0 0 0-.023.549c.021.201.068.381.14.533s.161.28.27.381c.109.1.233.173.372.217.139.044.287.057.446.039zM310.793 269.906l-.66.094a179.56 179.56 0 0 1-1.999-2.232l.32 2.458-.677.086-.466-3.676.652-.083c.784.899 1.181 1.348 1.98 2.239l-.341-2.459.668-.094.523 3.667zM301.41 269.271l.021.709c.004.066-3.076.305-6.88.53-3.804.227-6.891.355-6.895.289l-.021-.709c.004.067 3.091-.063 6.895-.288 3.804-.226 6.884-.464 6.88-.531z" fill="#391516"/><path d="M334.648 175.521v71.152c-15.745 6.78-33.24 10.558-51.669 10.558-18.431 0-35.929-3.778-51.675-10.56v-71.15c0-6.677 5.563-12.139 12.36-12.139h78.623c6.799-.001 12.361 5.462 12.361 12.139z"/><linearGradient id="c" gradientUnits="userSpaceOnUse" x1="-119" y1="663.996" x2="-118" y2="663.996" gradientTransform="scale(92.7729 -92.7729) rotate(90 275.41 391.637)"><stop offset="0" stop-color="#191816"/><stop offset="0" stop-color="#191816"/><stop offset="1" stop-color="#282627"/></linearGradient><path d="M333.143 176.458l.225 70.758c-15.286 6.703-32.497 10.015-50.389 10.015-17.894 0-34.657-3.125-49.944-9.83l-.226-70.943c0-6.6 5.4-12 12-12h76.334c6.6 0 12 5.399 12 12z" fill="url(#c)"/><path d="M74.227 40.996H0V198.86h74.228c3.358 0 6.106-2.748 6.106-6.106V47.102c-.001-3.359-2.748-6.106-6.107-6.106z" fill="#1e1b1b"/><path d="M75.095 52.283H0v-6.176h75.095c.532 0 .963.432.963.963v4.25a.962.962 0 0 1-.963.963z" fill="#070606"/><path d="M74.735 51.2H19.952v-6h54.783c.532 0 .963.431.963.963v4.073a.962.962 0 0 1-.963.964z" fill="#282424"/><path fill="#1e1b1b" d="M0 45.2h19.952v6H0z"/><path fill="#252222" d="M0 45.2h19.952v.875H0z"/><path d="M75.699 46.107H19.952v-.94h54.807a.94.94 0 0 1 .94.94z" fill="#3c3939"/><path d="M75.095 62.008H0v-6.176h75.095c.532 0 .963.432.963.963v4.25a.963.963 0 0 1-.963.963z" fill="#070606"/><path d="M74.735 60.924H19.952v-6h54.783c.532 0 .963.431.963.963v4.073a.962.962 0 0 1-.963.964z" fill="#282424"/><path fill="#1e1b1b" d="M0 54.924h19.952v6H0z"/><path fill="#252222" d="M0 54.924h19.952v.875H0z"/><path d="M75.699 55.832H19.952v-.94h54.807a.94.94 0 0 1 .94.94z" fill="#3c3939"/><path d="M75.095 71.7H0v-6.176h75.095c.532 0 .963.431.963.963v4.249a.962.962 0 0 1-.963.964z" fill="#070606"/><path d="M74.735 70.616H19.952v-6h54.783c.532 0 .963.432.963.963v4.074a.962.962 0 0 1-.963.963z" fill="#282424"/><path fill="#1e1b1b" d="M0 64.616h19.952v6H0z"/><path fill="#252222" d="M0 64.616h19.952v.875H0z"/><path d="M75.699 65.524H19.952v-.94h54.807a.94.94 0 0 1 .94.94z" fill="#3c3939"/><path d="M75.095 81.392H0v-6.176h75.095c.532 0 .963.431.963.963v4.25a.963.963 0 0 1-.963.963z" fill="#070606"/><path d="M74.735 80.309H19.952v-6h54.783c.532 0 .963.431.963.963v4.074a.962.962 0 0 1-.963.963z" fill="#282424"/><path fill="#1e1b1b" d="M0 74.309h19.952v6H0z"/><path fill="#252222" d="M0 74.309h19.952v.875H0z"/><path d="M75.699 75.216H19.952v-.94h54.807a.94.94 0 0 1 .94.94z" fill="#3c3939"/><path d="M75.095 91.084H0v-6.176h75.095c.532 0 .963.431.963.963v4.25a.962.962 0 0 1-.963.963z" fill="#070606"/><path d="M74.735 90.001H19.952v-6h54.783c.532 0 .963.431.963.963v4.073a.962.962 0 0 1-.963.964z" fill="#282424"/><path fill="#1e1b1b" d="M0 84.001h19.952v6H0z"/><path fill="#252222" d="M0 84.001h19.952v.875H0z"/><path d="M75.699 84.908H19.952v-.94h54.807a.94.94 0 0 1 .94.94z" fill="#3c3939"/><path d="M75.095 100.776H0V94.6h75.095c.532 0 .963.431.963.963v4.249a.962.962 0 0 1-.963.964z" fill="#070606"/><path d="M74.735 99.693H19.952v-6h54.783c.532 0 .963.431.963.963v4.074a.962.962 0 0 1-.963.963z" fill="#282424"/><path fill="#1e1b1b" d="M0 93.693h19.952v6H0z"/><path fill="#252222" d="M0 93.693h19.952v.875H0z"/><path d="M75.699 94.6H19.952v-.94h54.807a.94.94 0 0 1 .94.94z" fill="#3c3939"/><path d="M75.095 110.468H0v-6.176h75.095c.532 0 .963.431.963.963v4.25a.962.962 0 0 1-.963.963z" fill="#070606"/><path d="M74.735 109.385H19.952v-6h54.783c.532 0 .963.431.963.963v4.073a.962.962 0 0 1-.963.964z" fill="#282424"/><path fill="#1e1b1b" d="M0 103.385h19.952v6H0z"/><path fill="#252222" d="M0 103.385h19.952v.875H0z"/><path d="M75.699 104.293H19.952v-.94h54.807c.519-.001.94.42.94.94z" fill="#3c3939"/><path d="M75.095 120.16H0v-6.176h75.095c.532 0 .963.431.963.963v4.249a.962.962 0 0 1-.963.964z" fill="#070606"/><path d="M74.735 119.077H19.952v-6h54.783c.532 0 .963.432.963.963v4.074a.962.962 0 0 1-.963.963z" fill="#282424"/><path fill="#1e1b1b" d="M0 113.077h19.952v6H0z"/><path fill="#252222" d="M0 113.077h19.952v.875H0z"/><path d="M75.699 113.984H19.952v-.94h54.807a.94.94 0 0 1 .94.94z" fill="#3c3939"/><path d="M75.095 129.852H0v-6.176h75.095c.532 0 .963.432.963.963v4.25a.962.962 0 0 1-.963.963z" fill="#070606"/><path d="M74.735 128.769H19.952v-6h54.783c.532 0 .963.431.963.963v4.073a.962.962 0 0 1-.963.964z" fill="#282424"/><path fill="#1e1b1b" d="M0 122.769h19.952v6H0z"/><path fill="#252222" d="M0 122.769h19.952v.875H0z"/><path d="M75.699 123.676H19.952v-.94h54.807a.94.94 0 0 1 .94.94z" fill="#3c3939"/><path d="M75.095 139.544H0v-6.176h75.095c.532 0 .963.431.963.963v4.249a.962.962 0 0 1-.963.964z" fill="#070606"/><path d="M74.735 138.461H19.952v-6h54.783c.532 0 .963.431.963.963v4.073a.962.962 0 0 1-.963.964z" fill="#282424"/><path fill="#1e1b1b" d="M0 132.461h19.952v6H0z"/><path fill="#252222" d="M0 132.461h19.952v.875H0z"/><path d="M75.699 133.369H19.952v-.94h54.807a.94.94 0 0 1 .94.94z" fill="#3c3939"/><path d="M75.095 149.236H0v-6.176h75.095c.532 0 .963.431.963.963v4.25a.962.962 0 0 1-.963.963z" fill="#070606"/><path d="M74.735 148.153H19.952v-6h54.783c.532 0 .963.431.963.963v4.074a.962.962 0 0 1-.963.963z" fill="#282424"/><path fill="#1e1b1b" d="M0 142.153h19.952v6H0z"/><path fill="#252222" d="M0 142.153h19.952v.875H0z"/><path d="M75.699 143.061H19.952v-.94h54.807a.94.94 0 0 1 .94.94z" fill="#3c3939"/><path d="M75.095 158.929H0v-6.176h75.095c.532 0 .963.431.963.963v4.25a.963.963 0 0 1-.963.963z" fill="#070606"/><path d="M74.735 157.845H19.952v-6h54.783c.532 0 .963.431.963.963v4.073a.962.962 0 0 1-.963.964z" fill="#282424"/><path fill="#1e1b1b" d="M0 151.845h19.952v6H0z"/><path fill="#252222" d="M0 151.845h19.952v.875H0z"/><path d="M75.699 152.753H19.952v-.94h54.807c.519 0 .94.42.94.94z" fill="#3c3939"/><path d="M75.095 168.621H0v-6.176h75.095c.532 0 .963.431.963.963v4.249a.963.963 0 0 1-.963.964z" fill="#070606"/><path d="M74.735 167.537H19.952v-6h54.783c.532 0 .963.432.963.963v4.074a.962.962 0 0 1-.963.963z" fill="#282424"/><path fill="#1e1b1b" d="M0 161.537h19.952v6H0z"/><path fill="#252222" d="M0 161.537h19.952v.875H0z"/><path d="M75.699 162.445H19.952v-.94h54.807a.94.94 0 0 1 .94.94z" fill="#3c3939"/><path d="M75.095 178.313H0v-6.176h75.095c.532 0 .963.432.963.963v4.25a.963.963 0 0 1-.963.963z" fill="#070606"/><path d="M74.735 177.23H19.952v-6h54.783c.532 0 .963.431.963.963v4.073a.962.962 0 0 1-.963.964z" fill="#282424"/><path fill="#1e1b1b" d="M0 171.23h19.952v6H0z"/><path fill="#252222" d="M0 171.23h19.952v.875H0z"/><path d="M75.699 172.137H19.952v-.94h54.807a.94.94 0 0 1 .94.94z" fill="#3c3939"/><path d="M75.095 188.005H0v-6.176h75.095c.532 0 .963.431.963.963v4.249a.962.962 0 0 1-.963.964z" fill="#070606"/><path d="M74.735 186.921H19.952v-6h54.783c.532 0 .963.432.963.963v4.074a.962.962 0 0 1-.963.963z" fill="#282424"/><path fill="#1e1b1b" d="M0 180.921h19.952v6H0z"/><path fill="#252222" d="M0 180.921h19.952v.875H0z"/><path d="M75.699 181.829H19.952v-.94h54.807a.94.94 0 0 1 .94.94z" fill="#3c3939"/><path d="M75.095 197.697H0v-6.176h75.095c.532 0 .963.432.963.963v4.25a.962.962 0 0 1-.963.963z" fill="#070606"/><path d="M74.735 196.614H19.952v-6h54.783c.532 0 .963.431.963.963v4.074a.962.962 0 0 1-.963.963z" fill="#282424"/><path fill="#1e1b1b" d="M0 190.614h19.952v6H0z"/><path fill="#252222" d="M0 190.614h19.952v.875H0z"/><path d="M75.699 191.521H19.952v-.94h54.807a.94.94 0 0 1 .94.94z" fill="#3c3939"/><path d="M254.26 218.411v-2.537c2.545-.626 4.205-1.463 4.981-2.51h2.502v10.257l-.021 2.257h-3.336l-.028-2.257v-7.051c-1.755.89-3.121 1.503-4.098 1.841zM275.074 216.659l-2.965.668c-.28-1.264-1.014-1.896-2.2-1.896-1.726 0-2.588 1.375-2.588 4.124.697-.943 1.797-1.415 3.3-1.415 1.373 0 2.494.375 3.364 1.124s1.305 1.636 1.305 2.659c0 1.089-.479 2.052-1.439 2.889-.96.836-2.241 1.255-3.845 1.255-1.581 0-2.83-.34-3.746-1.02-.917-.68-1.539-1.49-1.866-2.429s-.49-1.851-.49-2.736c0-1.89.509-3.449 1.525-4.677 1.018-1.228 2.525-1.842 4.523-1.842 1.445 0 2.606.317 3.483.953.877.635 1.423 1.416 1.639 2.343zm-5.37 7.341c.626 0 1.146-.175 1.563-.527s.626-.849.626-1.491c0-.57-.225-1.022-.674-1.356a2.467 2.467 0 0 0-1.505-.5c-.582 0-1.098.18-1.547.54a1.73 1.73 0 0 0-.674 1.415c0 .546.208 1.003.625 1.37.418.365.946.549 1.586.549zM276.25 219.258h5.154v2.17h-5.154zM283.15 213.553h6.858c1.229 0 2.152.126 2.771.379a3.936 3.936 0 0 1 1.531 1.082c.403.469.604 1.042.604 1.715 0 1.365-.885 2.276-2.653 2.733 1.021.192 1.787.576 2.297 1.147.511.572.766 1.195.766 1.871 0 .921-.417 1.718-1.251 2.39-.833.672-2.188 1.007-4.064 1.007h-6.858v-12.324zm3.441 2.176v2.7h2.609c.956 0 1.558-.158 1.806-.474s.372-.619.372-.907a1.16 1.16 0 0 0-.308-.808c-.204-.226-.429-.367-.674-.424-.244-.058-.726-.086-1.444-.086h-2.361zm0 4.894v2.971h2.646c.903 0 1.542-.133 1.916-.397.372-.265.559-.635.559-1.11 0-.397-.179-.741-.538-1.029-.358-.289-.954-.434-1.786-.434h-2.797zM296.154 213.553h3.44v12.325h-3.44zM311.243 213.553v2.438h-3.644v9.886h-3.494v-9.886h-3.666v-2.438z" fill="#d4aa6f"/><path d="M143.333 221.741h9.291c8.778-.195 9.483 1.757 15.125 8.504 25.972 27.678 52.131 57.083 116.437 57.083s103.23-40 119.188-62.208c2.562-3.687 17.802-2.677 29.375-3.375 4.551 0 8.361-3.331 9.115-7.675l11.135 20.3c-3.917 6.125-41.565 5.181-51.875 6.125-8.34.764-9.563 3.688-14.96 10.061-22.563 26.833-60.465 44.439-103.415 44.439-42.951 0-80.852-17.606-103.416-44.439-8.459-9.269-3.209-11.186-18.71-10.936h-9.291c-5.745-1.71-8.25-6.687-8.333-13.757v-.202H32.875c-.083 7.452-2.588 12.698-8.333 14.5-4.847 1.521-12.255-1.452-15.542-5.792l11-20.042c.751 4.346 4.698 7.417 9.25 7.417h114.084" fill="#181515"/><linearGradient id="d" gradientUnits="userSpaceOnUse" x1="-119" y1="663.996" x2="-118" y2="663.996" gradientTransform="scale(15.3945 -15.3945) rotate(90 283.77 380.52)"><stop offset="0" stop-color="#544b4c"/><stop offset=".019" stop-color="#514849"/><stop offset=".188" stop-color="#3d3636"/><stop offset=".379" stop-color="#2f2828"/><stop offset=".612" stop-color="#272020"/><stop offset="1" stop-color="#241e1e"/><stop offset="1" stop-color="#241e1e"/></linearGradient><path fill="url(#d)" d="M0 327.166h9v15.395H0z"/><linearGradient id="e" gradientUnits="userSpaceOnUse" x1="-119" y1="663.996" x2="-118" y2="663.996" gradientTransform="matrix(0 -15.3945 -15.3945 0 10679.413 -1489.392)"><stop offset="0" stop-color="#544b4c"/><stop offset=".019" stop-color="#514849"/><stop offset=".188" stop-color="#3d3636"/><stop offset=".379" stop-color="#2f2828"/><stop offset=".612" stop-color="#272020"/><stop offset="1" stop-color="#241e1e"/><stop offset="1" stop-color="#241e1e"/></linearGradient><path fill="url(#e)" d="M453 327.166h9v15.395h-9z"/><linearGradient id="f" gradientUnits="userSpaceOnUse" x1="-119" y1="663.996" x2="-118" y2="663.996" gradientTransform="matrix(0 -15.3945 -15.3945 0 10452.913 -1489.392)"><stop offset="0" stop-color="#5b5857"/><stop offset=".005" stop-color="#5a5756"/><stop offset=".177" stop-color="#464343"/><stop offset=".371" stop-color="#383535"/><stop offset=".607" stop-color="#302d2c"/><stop offset="1" stop-color="#2d2a2a"/></linearGradient><path fill="url(#f)" d="M9 327.166h444v15.395H9z"/><path d="M50.875 243.549h19.26v69.527h-19.26z"/><path fill="#1b1818" d="M51.588 244.221h6.521v68.855h-6.521zM62.901 244.221h6.521v68.855h-6.521z"/><path fill="#2b2828" d="M53.422 248.043h14.167v6.875H53.422z"/><path fill="#3f3f3e" d="M53.422 267.23h14.167v10.063H53.422z"/><path fill="#333030" d="M53.422 254.918h14.167v7.5H53.422z"/><path fill="#5d1314" d="M53.422 249.064h14.167v.833H53.422z"/><path fill="#0d0d0c" d="M70.135 243.549h-19.26l-2.469-3.72h24.198z"/><path fill="#4e4b4a" d="M70.135 313.076h-19.26l-2.469 3.719h24.198z"/><path fill="#211e1d" d="M50.875 313.076l-2.469 3.719v-76.966l2.469 3.72zM70.135 313.076l2.469 3.719v-76.966l-2.469 3.72z"/><path fill="#414748" d="M101.347 247.97h9.167v7.625h-9.167z"/><path fill="#262323" d="M110.514 247.97h-9.167l-10.625-4.146h30.417z"/><path fill="#33302f" d="M101.347 255.595l-10.625 4.145v-15.916l10.625 4.146z"/><path fill="#262323" d="M110.514 255.595h-9.167l-10.625 4.145h30.417z"/><path d="M105.968 257.782h-.075a.38.38 0 0 1-.379-.379v-11.242c0-.209.169-.379.379-.379h.075c.209 0 .379.169.379.379v11.242a.379.379 0 0 1-.379.379z" fill="#5d1314"/><path fill="#33302f" d="M110.514 255.595l10.625 4.145v-15.916l-10.625 4.146z"/><path fill="#282828" d="M121.139 243.824h7.694v15.917h-7.694z"/><path fill="#0d0d0c" d="M128.833 243.824H90.722l-2.847-2.731h43.806z"/><path fill="#4e4b4a" d="M128.833 259.74H90.722l-2.847 2.732h43.806z"/><path fill="#211e1d" d="M87.875 262.472l2.847-2.732v-15.916l-2.847-2.731zM131.681 262.472l-2.848-2.732v-15.916l2.848-2.731z"/><path d="M88.753 265.874c0-.438.065-.805.196-1.102.098-.219.231-.415.4-.589s.354-.303.555-.387c.268-.113.576-.17.926-.17.633 0 1.139.196 1.519.589s.57.938.57 1.638c0 .693-.188 1.236-.565 1.628s-.881.587-1.512.587c-.639 0-1.146-.195-1.523-.585-.377-.388-.566-.925-.566-1.609zm.894-.029c0 .486.112.855.337 1.105.225.252.51.377.855.377s.629-.125.851-.373c.222-.25.333-.623.333-1.121 0-.492-.108-.859-.324-1.102s-.502-.363-.86-.363-.646.123-.864.367c-.219.246-.328.616-.328 1.11zM93.605 267.995V263.7h.844l1.757 2.868V263.7h.806v4.295h-.87l-1.731-2.801v2.801zM119.344 265.874c0-.438.065-.805.196-1.102.098-.219.231-.415.4-.589s.354-.303.555-.387c.268-.113.576-.17.926-.17.633 0 1.139.196 1.519.589s.57.938.57 1.638c0 .693-.188 1.236-.565 1.628s-.881.586-1.512.586c-.639 0-1.146-.194-1.523-.584-.377-.388-.566-.925-.566-1.609zm.894-.029c0 .486.112.855.337 1.105.225.252.51.377.855.377s.629-.125.851-.373c.222-.25.333-.623.333-1.121 0-.492-.108-.859-.324-1.102s-.502-.363-.86-.363-.646.123-.864.367c-.219.246-.328.616-.328 1.11zM124.193 267.995V263.7h2.944v.727h-2.077v1.016h1.793v.727h-1.793v1.825zM127.858 267.995V263.7h2.944v.727h-2.077v1.016h1.793v.727h-1.793v1.825zM43.594 246.183H46.5v.965h-2.906zM43.594 262.668H46.5v.965h-2.906zM43.617 279.149h2.906v.965h-2.906zM39.676 248.397h-.686v-2.586c-.25.234-.546.408-.886.521v-.622c.179-.059.374-.17.583-.334.21-.163.354-.354.432-.572h.557v3.593zM41.861 244.803c.347 0 .618.124.813.371.233.293.349.779.349 1.457s-.117 1.164-.352 1.461c-.194.244-.464.365-.811.365-.348 0-.629-.134-.842-.401s-.32-.745-.32-1.432c0-.674.117-1.159.352-1.455.194-.244.464-.366.811-.366zm0 .568l-.222.08c-.065.053-.116.147-.151.284-.047.178-.071.476-.071.896s.021.709.063.866c.042.157.096.262.16.313l.221.078.222-.079c.065-.053.116-.147.151-.284.047-.176.071-.475.071-.895s-.021-.708-.063-.865-.096-.262-.16-.314l-.221-.08zM40.597 263.904l.684-.071c.02.154.077.277.173.367a.468.468 0 0 0 .696-.039c.099-.116.149-.292.149-.526 0-.219-.049-.384-.147-.494a.496.496 0 0 0-.385-.164c-.197 0-.374.087-.53.261l-.557-.081.352-1.862h1.814v.642h-1.294l-.107.608c.153-.076.309-.114.469-.114.304 0 .563.11.774.332.211.221.317.508.317.861 0 .295-.085.558-.256.789-.233.315-.556.473-.969.473-.331 0-.6-.088-.808-.266s-.334-.417-.375-.716zM41.747 277.772c.347 0 .618.124.813.371.233.293.349.779.349 1.457s-.117 1.164-.352 1.461c-.194.244-.464.365-.811.365-.348 0-.629-.134-.842-.401s-.32-.745-.32-1.432c0-.674.117-1.159.352-1.455.194-.244.464-.366.811-.366zm0 .568l-.222.08c-.065.053-.116.147-.151.284-.047.178-.071.476-.071.896s.021.709.063.866.096.262.16.313l.221.078.222-.079c.065-.053.116-.147.151-.284.047-.176.071-.475.071-.895s-.021-.708-.063-.865-.096-.262-.16-.314l-.221-.08z" fill="#c4c4c4"/><path d="M92.778 297.746h35.278v15.66H92.778z"/><path fill="#006cb8" d="M93.291 298.326h34.25v14.5h-34.25z"/><path d="M100.416 304.913c-.688 0-1.25-.563-1.25-1.25s.563-1.25 1.25-1.25 1.25.563 1.25 1.25-.562 1.25-1.25 1.25zM120.416 304.913c-.688 0-1.25-.563-1.25-1.25s.563-1.25 1.25-1.25 1.25.563 1.25 1.25-.562 1.25-1.25 1.25zM120.416 308.663c-.688 0-1.25-.563-1.25-1.25s.563-1.25 1.25-1.25 1.25.563 1.25 1.25-.562 1.25-1.25 1.25zM100.416 308.663c-.688 0-1.25-.563-1.25-1.25s.563-1.25 1.25-1.25 1.25.563 1.25 1.25-.562 1.25-1.25 1.25zM103.75 308.663c-.688 0-1.25-.563-1.25-1.25s.562-1.25 1.25-1.25c.687 0 1.25.563 1.25 1.25s-.563 1.25-1.25 1.25zM107.083 308.663c-.688 0-1.25-.563-1.25-1.25s.563-1.25 1.25-1.25 1.25.563 1.25 1.25-.562 1.25-1.25 1.25zM110.416 308.663c-.688 0-1.25-.563-1.25-1.25s.563-1.25 1.25-1.25 1.25.563 1.25 1.25-.562 1.25-1.25 1.25zM113.75 308.663c-.688 0-1.25-.563-1.25-1.25s.562-1.25 1.25-1.25c.687 0 1.25.563 1.25 1.25s-.563 1.25-1.25 1.25zM117.083 308.663c-.688 0-1.25-.563-1.25-1.25s.563-1.25 1.25-1.25 1.25.563 1.25 1.25-.562 1.25-1.25 1.25zM103.75 304.913c-.688 0-1.25-.563-1.25-1.25s.562-1.25 1.25-1.25c.687 0 1.25.563 1.25 1.25s-.563 1.25-1.25 1.25zM107.083 304.913c-.688 0-1.25-.563-1.25-1.25s.563-1.25 1.25-1.25 1.25.563 1.25 1.25-.562 1.25-1.25 1.25zM110.416 304.913c-.688 0-1.25-.563-1.25-1.25s.563-1.25 1.25-1.25 1.25.563 1.25 1.25-.562 1.25-1.25 1.25zM113.75 304.913c-.688 0-1.25-.563-1.25-1.25s.562-1.25 1.25-1.25c.687 0 1.25.563 1.25 1.25s-.563 1.25-1.25 1.25zM117.083 304.913c-.688 0-1.25-.563-1.25-1.25s.563-1.25 1.25-1.25 1.25.563 1.25 1.25-.562 1.25-1.25 1.25z" fill="#065687"/><path fill="#0d0d0c" d="M128.056 297.746H92.778l-3.278-2.5h41.833z"/><path fill="#4e4b4a" d="M131.333 315.906H89.5l3.278-2.5h35.278z"/><path fill="#211e1d" d="M92.778 313.406l-3.278 2.5v-20.66l3.278 2.5zM131.333 315.906l-3.277-2.5v-15.66l3.277-2.5z"/><path d="M103.455 321.121V317.9h1.369c.344 0 .595.028.75.086a.748.748 0 0 1 .375.309.926.926 0 0 1 .141.508.861.861 0 0 1-.213.599c-.142.158-.354.257-.637.298a1.5 1.5 0 0 1 .348.271c.092.099.215.272.37.522l.394.629h-.778l-.47-.701a4.644 4.644 0 0 0-.343-.474l-.195-.134a1.082 1.082 0 0 0-.328-.036h-.132v1.345h-.651zm.65-1.86h.481c.313 0 .507-.013.585-.039l.182-.137a.415.415 0 0 0 .066-.241.388.388 0 0 0-.087-.263.405.405 0 0 0-.245-.126 5.198 5.198 0 0 0-.475-.011h-.507v.817zM106.702 321.121V317.9h2.389v.545h-1.739v.714h1.618v.542h-1.618v.877h1.8v.543zM109.539 320.073l.633-.062c.038.212.115.368.232.468.116.1.273.149.471.149.209 0 .367-.044.474-.133a.396.396 0 0 0 .159-.311l-.067-.195a.539.539 0 0 0-.234-.139 7.894 7.894 0 0 0-.521-.141c-.349-.087-.593-.193-.734-.319a.837.837 0 0 1-.296-.647.83.83 0 0 1 .139-.461.867.867 0 0 1 .402-.326c.175-.074.386-.112.634-.112.404 0 .708.089.913.267a.937.937 0 0 1 .322.709l-.65.029c-.028-.166-.087-.285-.179-.357-.091-.072-.229-.109-.412-.109-.189 0-.337.039-.444.117l-.103.199.097.196c.082.068.281.141.598.215.316.075.55.152.702.232a.9.9 0 0 1 .356.327c.085.139.128.31.128.513a.948.948 0 0 1-.589.878 1.83 1.83 0 0 1-.701.117c-.408 0-.72-.094-.938-.282-.22-.187-.35-.462-.392-.822zM112.705 321.121V317.9h2.389v.545h-1.739v.714h1.618v.542h-1.618v.877h1.8v.543zM116.432 321.121v-2.676h-.956v-.545h2.559v.545h-.953v2.676zM89.391 318.853H102.5v.658H89.391zM118.333 318.932h13.109v.658h-13.109zM89.391 283.853H102.5v.658H89.391zM118.687 283.932h12.755v.658h-12.755zM103.428 282.739h1.072a2 2 0 0 1 .281.019c.091.013.178.034.26.065l.225.122.176.188a.952.952 0 0 1 .115.27c.028.103.042.223.042.358 0 .356-.09.625-.27.804-.18.18-.448.269-.804.269h-.575v1.264h-.521v-3.359zm.522 1.519h.584a.865.865 0 0 0 .245-.031l.165-.095.093-.152.03-.21a.524.524 0 0 0-.044-.232l-.119-.139-.173-.066-.207-.017h-.573v.942zM107.351 282.686c.195 0 .375.041.54.124.165.082.306.199.425.351.119.15.212.333.279.546s.1.449.1.709a2.4 2.4 0 0 1-.098.704 1.696 1.696 0 0 1-.277.547c-.119.153-.261.271-.426.356s-.346.127-.543.127-.379-.042-.543-.126-.307-.202-.426-.354a1.691 1.691 0 0 1-.277-.548 2.41 2.41 0 0 1-.099-.707c0-.261.034-.498.101-.711s.16-.396.28-.547c.12-.15.262-.268.426-.35.164-.08.344-.121.538-.121zm-.002 2.906c.119 0 .229-.026.329-.08s.186-.132.258-.232a1.16 1.16 0 0 0 .167-.369c.04-.146.06-.311.06-.495a1.86 1.86 0 0 0-.061-.496c-.041-.146-.097-.268-.168-.367s-.157-.176-.256-.229a.681.681 0 0 0-.322-.078.687.687 0 0 0-.327.079.767.767 0 0 0-.26.23c-.073.101-.13.223-.17.368s-.061.31-.061.492c0 .185.02.35.061.495.041.145.097.268.169.369a.75.75 0 0 0 .256.232.656.656 0 0 0 .325.081zM112.601 282.739l-.777 3.358h-.464l-.57-2.46-.563 2.46h-.466l-.776-3.358h.549l.463 2.259.519-2.259h.555l.517 2.257.465-2.257zM115.155 286.097h-2.137v-3.358h2.077v.577h-1.556v.759h1.456v.573h-1.456v.872h1.616zM118.118 286.097h-.562l-.267-.914-.077-.175-.112-.137-.141-.091-.164-.033h-.56v1.35h-.521v-3.358h1.253l.213.006.195.028.179.068.163.125.12.158.085.186.052.202.018.209c0 .205-.042.381-.124.527a.847.847 0 0 1-.341.338c.119.108.216.281.291.518l.3.993zm-1.883-1.927h.694c.093 0 .174-.008.241-.023l.164-.076.093-.14.029-.21c0-.149-.039-.259-.116-.329-.078-.069-.197-.104-.357-.104h-.748v.882zM105.351 263.917h.965v5.168h-.965zM113.071 263.917h.965v5.168h-.965zM90.905 272.911a.816.816 0 0 0-.06-.271l-.134-.205-.194-.131-.239-.045c-.12 0-.229.025-.324.076s-.178.126-.246.226-.12.222-.156.368a2.051 2.051 0 0 0-.055.502c0 .189.019.356.056.503.037.146.088.269.155.368.067.1.148.175.244.228a.644.644 0 0 0 .319.078l.246-.045.194-.135.133-.219a1.09 1.09 0 0 0 .063-.3h.532c-.015.2-.054.378-.117.534a1.239 1.239 0 0 1-.249.394 1.058 1.058 0 0 1-.356.244 1.12 1.12 0 0 1-.44.084c-.201 0-.383-.041-.544-.122a1.189 1.189 0 0 1-.413-.349 1.656 1.656 0 0 1-.262-.547 2.57 2.57 0 0 1-.092-.717c0-.264.031-.503.093-.717s.15-.396.265-.547c.114-.151.252-.269.414-.35a1.18 1.18 0 0 1 .969-.036c.134.059.252.141.356.247s.189.234.256.384c.067.149.108.316.123.499h-.537zM94.363 275.112h-.582l-.306-.96h-.978l-.291.96h-.553l1.074-3.358h.498l1.138 3.358zm-1.05-1.493l-.339-1.064-.32 1.064h.659zM97.088 275.112h-.562l-.267-.914-.077-.175-.112-.137-.141-.091-.164-.033h-.56v1.35h-.521v-3.358h1.253l.213.006.195.028.179.068.163.125.12.158.085.186.052.202.018.209c0 .205-.042.381-.124.527a.847.847 0 0 1-.341.338c.119.108.216.281.291.518l.3.993zm-1.883-1.927h.695c.093 0 .174-.008.241-.023l.164-.076.093-.14.029-.21c0-.149-.039-.259-.116-.329-.078-.069-.197-.104-.357-.104h-.748v.882zM99.627 272.331h-.869v2.781h-.523v-2.781h-.866v-.578h2.258zM102.465 275.112h-.562l-.267-.914-.077-.175-.112-.137-.141-.091-.164-.033h-.56v1.35h-.521v-3.358h1.253l.213.006.195.028.179.068.163.125.12.158.085.186.052.202.018.209c0 .205-.042.381-.124.527a.847.847 0 0 1-.341.338c.119.108.216.281.291.518l.3.993zm-1.883-1.927h.694c.093 0 .174-.008.241-.023l.164-.076.093-.14.029-.21c0-.149-.039-.259-.116-.329-.078-.069-.197-.104-.357-.104h-.748v.882zM102.986 271.753h.52v3.358h-.52zM106.485 273.415c0 1.132-.476 1.697-1.428 1.697h-.921v-3.358h.921c.952-.001 1.428.553 1.428 1.661zm-.533 0c0-.169-.014-.321-.042-.455-.027-.135-.076-.248-.145-.341s-.161-.164-.276-.214a1.122 1.122 0 0 0-.437-.074h-.396v2.204h.396c.174 0 .319-.025.435-.076a.666.666 0 0 0 .276-.221.93.93 0 0 0 .146-.352c.029-.138.043-.296.043-.471zM108.279 275.165a1.217 1.217 0 0 1-.983-.477 1.65 1.65 0 0 1-.276-.546 2.403 2.403 0 0 1-.099-.712c0-.266.033-.505.099-.718.065-.213.158-.395.276-.544.118-.149.26-.266.425-.347s.347-.121.546-.121c.167 0 .323.028.468.086a1.183 1.183 0 0 1 .649.626c.068.149.109.315.123.5h-.536a.817.817 0 0 0-.063-.275l-.143-.204-.215-.129a.834.834 0 0 0-.277-.044c-.122 0-.232.025-.333.077s-.186.127-.258.227-.128.223-.167.367a1.89 1.89 0 0 0-.06.499c0 .185.02.35.06.495.04.145.096.268.167.369a.706.706 0 0 0 .592.312.99.99 0 0 0 .447-.092.79.79 0 0 0 .313-.286v-.352h-.693v-.576h1.208v1.812h-.401l-.066-.241a.927.927 0 0 1-.346.22 1.315 1.315 0 0 1-.457.074zM112.299 275.112h-2.137v-3.359h2.077v.578h-1.555v.758h1.455v.574h-1.455v.872h1.615zM90.881 280.549h-1.803v-3.358h.521v2.781h1.282zM92.571 277.138c.195 0 .375.041.54.124.165.082.306.199.425.351.119.15.212.333.279.546s.1.449.1.709a2.4 2.4 0 0 1-.098.704 1.696 1.696 0 0 1-.277.547c-.119.153-.261.271-.426.356s-.346.127-.543.127-.379-.042-.543-.126-.307-.202-.426-.354a1.691 1.691 0 0 1-.277-.548 2.41 2.41 0 0 1-.099-.707c0-.261.034-.498.101-.711s.16-.396.28-.547c.12-.15.262-.268.426-.35a1.21 1.21 0 0 1 .538-.121zm-.002 2.906c.119 0 .229-.026.329-.08s.186-.132.258-.232a1.16 1.16 0 0 0 .167-.369c.04-.146.06-.311.06-.495a1.86 1.86 0 0 0-.061-.496c-.041-.146-.097-.268-.168-.367s-.157-.176-.256-.229a.681.681 0 0 0-.322-.078.687.687 0 0 0-.327.079.767.767 0 0 0-.26.23c-.073.101-.13.223-.17.368s-.061.31-.061.492c0 .185.02.35.061.495.041.145.097.268.169.369a.75.75 0 0 0 .256.232.656.656 0 0 0 .325.081zM96.287 278.348a.816.816 0 0 0-.06-.271l-.134-.205-.194-.131-.239-.045c-.12 0-.229.025-.324.076s-.178.126-.246.226-.12.222-.156.368a2.051 2.051 0 0 0-.055.502c0 .189.019.356.056.503.037.146.088.269.155.368.067.1.148.175.244.228a.644.644 0 0 0 .319.078l.246-.045.194-.135.133-.219a1.09 1.09 0 0 0 .063-.3h.532c-.015.2-.054.378-.117.534a1.239 1.239 0 0 1-.249.394 1.058 1.058 0 0 1-.356.244 1.12 1.12 0 0 1-.44.084c-.201 0-.383-.041-.544-.122a1.189 1.189 0 0 1-.413-.349 1.656 1.656 0 0 1-.262-.547 2.57 2.57 0 0 1-.092-.717c0-.264.031-.503.093-.717s.15-.396.265-.547c.114-.151.252-.269.414-.35a1.18 1.18 0 0 1 .969-.036c.134.059.252.141.356.247s.189.234.256.384c.067.149.108.316.123.499h-.537zM99.78 280.549h-.669l-.905-1.522-.311.367v1.155h-.521v-3.358h.521v1.414l1.163-1.414h.713l-1.194 1.402zM45.525 319.684h1.197c.107 0 .211.007.313.021s.199.038.29.073c.091.034.175.08.251.136l.196.211c.055.085.098.185.128.3s.046.249.046.4c0 .398-.101.697-.301.897s-.5.3-.897.3h-.642v1.41h-.582v-3.748zm.582 1.696h.652a.903.903 0 0 0 .273-.036l.184-.104.104-.171.033-.234a.603.603 0 0 0-.049-.26l-.133-.154-.193-.073-.231-.019h-.639v1.051zM51.034 323.432h-.586v-1.659h-1.335v1.659h-.582v-3.748h.582v1.444h1.335v-1.444h.586zM53.145 319.625c.218 0 .419.046.603.139.184.092.342.223.475.391.133.169.237.372.312.61s.112.502.112.791c0 .287-.037.549-.11.785a1.86 1.86 0 0 1-.31.611 1.409 1.409 0 0 1-.475.397c-.184.095-.386.143-.606.143s-.423-.047-.606-.141c-.184-.095-.342-.226-.475-.396s-.236-.373-.31-.611a2.677 2.677 0 0 1-.11-.789c0-.291.037-.556.112-.794.075-.237.179-.44.313-.609a1.327 1.327 0 0 1 1.075-.527zm-.002 3.244a.753.753 0 0 0 .367-.09.842.842 0 0 0 .288-.259 1.3 1.3 0 0 0 .187-.413c.045-.162.067-.346.067-.552 0-.207-.022-.392-.068-.554-.045-.162-.108-.299-.188-.41s-.175-.196-.286-.255a.759.759 0 0 0-.359-.087.758.758 0 0 0-.365.089.851.851 0 0 0-.29.257 1.25 1.25 0 0 0-.19.411 2.052 2.052 0 0 0-.068.549c0 .206.022.39.068.552.045.162.108.3.188.413.08.112.176.199.286.259.111.06.232.09.363.09zM57.764 323.432h-.549l-1.392-2.506v2.506h-.561v-3.748h.551l1.386 2.511v-2.511h.565zM60.888 323.432h-2.385v-3.748h2.317v.645h-1.735v.846h1.624v.64h-1.624v.973h1.803zM62.712 323.492c-.224 0-.418-.035-.585-.105a1.134 1.134 0 0 1-.418-.292 1.244 1.244 0 0 1-.256-.448 1.979 1.979 0 0 1-.096-.572h.566c.009.134.037.249.081.348a.753.753 0 0 0 .169.243l.236.142a.917.917 0 0 0 .542.011l.201-.097.128-.155.045-.204-.044-.198-.143-.146c-.066-.043-.152-.082-.259-.117s-.239-.072-.395-.109c-.178-.048-.332-.104-.46-.167s-.235-.139-.318-.225a.836.836 0 0 1-.184-.299 1.16 1.16 0 0 1-.06-.389c0-.158.027-.304.083-.437a.994.994 0 0 1 .233-.343c.101-.097.221-.172.361-.227.14-.054.295-.081.467-.081.178 0 .341.029.488.088s.274.143.381.252.191.243.252.402c.061.158.094.339.098.539h-.559c-.042-.426-.256-.64-.644-.64-.189 0-.333.039-.434.115a.374.374 0 0 0-.15.314l.033.143.105.111.185.092c.075.028.167.056.273.082.093.022.188.049.287.076.098.028.194.062.288.102.094.039.182.088.265.145l.219.206c.063.081.113.176.149.285s.055.237.055.384c0 .173-.03.331-.089.475a1.095 1.095 0 0 1-.621.609 1.294 1.294 0 0 1-.475.087zM68.354 319.684l-1.215 3.748h-.537l-1.213-3.748h.625l.856 2.798.861-2.798zM70.115 319.625c.218 0 .419.046.603.139.184.092.342.223.475.391.133.169.237.372.312.61s.112.502.112.791c0 .287-.037.549-.11.785a1.86 1.86 0 0 1-.31.611 1.409 1.409 0 0 1-.475.397c-.184.095-.386.143-.606.143s-.423-.047-.606-.141c-.184-.095-.342-.226-.475-.396s-.236-.373-.31-.611a2.677 2.677 0 0 1-.11-.789c0-.291.037-.556.112-.794.075-.237.179-.44.313-.609.134-.169.292-.299.476-.391.182-.091.382-.136.599-.136zm-.002 3.244a.753.753 0 0 0 .367-.09.842.842 0 0 0 .288-.259 1.3 1.3 0 0 0 .187-.413c.045-.162.067-.346.067-.552 0-.207-.022-.392-.068-.554-.045-.162-.108-.299-.188-.41s-.175-.196-.286-.255a.759.759 0 0 0-.359-.087.758.758 0 0 0-.365.089.851.851 0 0 0-.29.257 1.25 1.25 0 0 0-.19.411 2.052 2.052 0 0 0-.068.549c0 .206.022.39.068.552.045.162.108.3.188.413.08.112.176.199.286.259.11.06.231.09.363.09zM74.236 323.432h-2.013v-3.748h.582v3.104h1.431zM74.69 322.733h.59v.699h-.59z" fill="#c4c4c4"/><path fill="#c2c2c2" d="M73.659 245.496h9.989v.966h-9.989zM73.784 247.374h9.647v.577h-9.647zM73.784 249.057h9.329v.577h-9.329zM73.784 250.741h9.037v.577h-9.037zM73.784 252.424h8.732v.577h-8.732zM73.784 254.108h8.427v.577h-8.427zM73.784 255.792h8.122v.577h-8.122zM73.784 257.476H81.6v.577h-7.816zM73.784 259.159h7.512v.577h-7.512zM73.784 260.843h7.195v.577h-7.195zM73.784 264.21h6.596v.577h-6.596zM73.784 265.894h6.292v.577h-6.292zM73.784 267.577h5.986v.578h-5.986zM73.784 269.261h5.681v.577h-5.681zM73.784 270.945h5.376v.577h-5.376zM73.784 272.628h5.071v.577h-5.071zM73.784 274.312h4.766v.577h-4.766zM73.784 275.996h4.461v.577h-4.461zM73.784 277.679h4.171v.577h-4.171z"/><path fill="#c2c2c2" d="M73.659 245.496h9.302v.966h-9.302zM73.784 279.168h9.739v.966h-9.739zM73.784 262.333h6.901v.965h-6.901z"/><path d="M37.166 317.496l-10.915-78.038c3.223-1.604 5.14-4.528 6.021-8.495l4.894 86.533zM139.666 317.496L143 225.864c.083 7.069 2.588 12.047 8.333 13.757l-11.667 77.875z" fill="#181515"/><path d="M439.01 320.105h-7.109v-1.663h4.873c-.354-1.071-.647-1.943-.932-2.818-.706-2.183-1.367-4.383-2.144-6.537-.188-.521-.695-1.167-1.158-1.275-.781-.182-1.034.629-1.251 1.3-1.081 3.343-2.192 6.676-3.238 10.031-.246.788-.604 1.054-1.397 1.032-2.182-.06-4.365-.006-6.547-.025-2.211-.02-3.656-1.467-3.705-3.755-.043-2.061-.047-4.125.001-6.186.054-2.325 1.453-3.739 3.687-3.771 1.967-.028 3.935-.006 5.971-.006v1.75h-5.052c-2.371 0-2.916.572-2.916 3.072 0 1.556-.007 3.111.002 4.668.01 1.664.768 2.475 2.334 2.491 1.271.014 2.543.003 3.88.003v-5.427h-3.236v-1.688h5.043v7.149l.275.032c1.066-3.287 2.135-6.573 3.199-9.861.607-1.879 1.728-2.644 3.534-2.366 1.005.155 1.749.741 2.078 1.735 1.306 3.947 2.573 7.909 3.85 11.867.018.06-.023.14-.042.248zM394.459 320.141v-1.73c1.896 0 3.757.021 5.615-.007 1.557-.022 2.72-1.152 2.775-2.629.055-1.445-1.097-2.682-2.626-2.789-.621-.044-1.251.017-1.869-.051-.95-.103-1.645-.999-1.644-2.035.001-1.051.688-1.99 1.646-2.018 2.034-.06 4.07-.019 6.159-.019v1.712H398.536l-.006.576c.57.025 1.14.062 1.71.074 2.15.05 3.703 1.302 4.238 3.43.654 2.597-1.21 5.361-3.777 5.469-2.035.085-4.077.017-6.242.017z" fill="#c2c2c2"/><path d="M394.441 317.732v-1.788h6l.002-.503c-.611-.024-1.223-.061-1.835-.071-1.718-.03-2.995-.853-3.749-2.435-.767-1.61-.648-3.225.362-4.705.693-1.016 1.649-1.704 2.856-1.743 2.107-.067 4.219-.019 6.411-.019v1.715c-1.894 0-3.789-.032-5.682.009-1.881.041-3.102 1.796-2.533 3.564.342 1.064 1.316 1.777 2.566 1.852.587.034 1.181-.009 1.765.051.947.097 1.666.989 1.677 2.012s-.706 2.018-1.631 2.043c-2.034.057-4.071.018-6.209.018zM415.524 306.491v1.691h-5.59c-1.952.003-2.633.692-2.646 2.714-.011 1.627-.005 3.254.008 4.881.014 1.878.735 2.634 2.506 2.639 1.862.005 3.724.001 5.656.001v1.737c-1.39 0-2.758.003-4.126-.001-.865-.003-1.733.028-2.595-.032-1.588-.112-3.032-1.598-3.073-3.258a151.078 151.078 0 0 1-.001-7.156c.035-1.526 1.325-3.099 2.785-3.181 2.337-.131 4.684-.035 7.076-.035zM428.316 320.066c1.206-3.726 2.378-7.371 3.579-11.006.085-.257.351-.53.592-.618.132-.048.503.237.571.442.979 2.914 1.926 5.84 2.907 8.845h-4.072l-.126-1.201-.175-.063c-.232.675-.47 1.347-.695 2.024-.596 1.796-.594 1.797-2.581 1.577zm3.481-4.304h1.429l-.6-1.858-.246.016-.583 1.842zM422.263 315.587l-1.201-.352v-1.537h2.641v4.026c-1.35 0-2.692.077-4.018-.052-.344-.034-.886-.697-.901-1.092-.091-2.166-.064-4.34-.039-6.511.009-.761.455-1.207 1.189-1.214 2.006-.02 4.013-.007 6.108-.007v1.722c-1.509 0-2.99.042-4.468-.016-.906-.036-1.256.295-1.198 1.251.061 1.009.004 2.025.017 3.038.014 1.211.573 1.502 1.87.744z" fill="#c2c2c2"/><path d="M409.737 315.878c1.863.348 3.795-.016 5.727.202v1.642c-2.21 0-4.377.054-6.537-.055-.345-.017-.861-.721-.939-1.175-.15-.871-.044-1.791-.044-2.782h6.15v1.623h-4.3l-.057.545zM415.525 308.867v1.631c-1.918.272-3.885-.175-5.769.242l.019.448h4.321v1.704h-6.134c0-.999-.086-2.043.046-3.055.047-.362.61-.914.955-.928 2.169-.084 4.342-.042 6.562-.042z" fill="#c2c2c2"/><path d="M350.363 252.615l-.503.267-.596-1.13c-.453.239-.681.357-1.137.591l.583 1.136c-.202.104-.303.155-.505.257l-1.304-2.574.491-.25.508.989c.454-.233.681-.351 1.133-.589l-.519-.983.49-.26c.545 1.018.816 1.528 1.359 2.546zM351.512 251.995a77.75 77.75 0 0 1-.494.269l-1.374-2.537.481-.262 1.387 2.53zM353.298 251.047c-.19.108-.382.176-.574.203a1.305 1.305 0 0 1-1.04-.303 1.689 1.689 0 0 1-.389-.483c-.11-.2-.18-.396-.207-.59a1.294 1.294 0 0 1 .274-1.03 1.57 1.57 0 0 1 .449-.375c.153-.087.308-.147.465-.181s.309-.04.454-.021a1.058 1.058 0 0 1 .738.446l-.492.287-.177-.171-.219-.076-.252.018a1.077 1.077 0 0 0-.546.344.773.773 0 0 0-.143.304.923.923 0 0 0 0 .363c.023.129.075.264.154.405.077.138.165.251.264.339a.92.92 0 0 0 .313.188.767.767 0 0 0 .34.036.895.895 0 0 0 .347-.118c.163-.093.289-.196.378-.308a.782.782 0 0 0 .167-.381 22.181 22.181 0 0 1-.151-.261c-.256.149-.385.223-.643.37l-.246-.43c.447-.256.671-.385 1.115-.646l.787 1.342-.374.219-.166-.143a1.078 1.078 0 0 1-.229.351 1.71 1.71 0 0 1-.397.302zM357.102 248.723l-.481.298-.67-1.087c-.435.268-.652.4-1.09.664l.658 1.095-.483.289-1.475-2.48.471-.282.573.953c.436-.262.652-.395 1.085-.661l-.584-.946c.188-.116.282-.174.47-.292.609.98.915 1.47 1.526 2.449zM359.848 247.011c-.182.121-.368.2-.558.239a1.328 1.328 0 0 1-.551-.001 1.342 1.342 0 0 1-.504-.233 1.683 1.683 0 0 1-.42-.456 1.732 1.732 0 0 1-.247-.575 1.35 1.35 0 0 1-.009-.551c.034-.176.105-.34.212-.494.107-.153.247-.288.422-.403.146-.097.296-.167.449-.21.154-.043.305-.06.451-.05s.285.048.417.114c.131.065.247.16.349.283l-.471.318-.188-.159-.224-.062-.249.034-.265.13a.909.909 0 0 0-.256.249c-.064.095-.104.2-.121.312s-.008.234.024.362c.032.126.094.258.182.394.086.132.182.239.285.321a.916.916 0 0 0 .323.167.76.76 0 0 0 .342.014.884.884 0 0 0 .337-.14c.156-.104.273-.214.354-.331a.801.801 0 0 0 .141-.391l-.169-.25-.614.411a98.263 98.263 0 0 0-.274-.413c.428-.284.642-.427 1.065-.716l.876 1.287-.357.243-.176-.131c-.04.127-.107.249-.203.364a1.71 1.71 0 0 1-.373.324zM363.618 244.344c-.195.142-.294.212-.49.353a83.548 83.548 0 0 1-.688-.473l-.154-.075-.165-.026-.168.022-.159.078-.488.342.662.951-.461.319-1.637-2.376c.433-.298.648-.449 1.077-.752l.187-.125.18-.098.188-.061.202-.012.181.037.166.076.146.109.12.135a.77.77 0 0 1 .159.445.82.82 0 0 1-.126.446c.158.003.328.063.512.181.3.203.452.304.756.504zm-2.598-.187c.242-.168.362-.253.604-.423l.196-.163.104-.154.01-.155-.079-.166c-.074-.104-.162-.157-.264-.158-.101-.001-.221.046-.359.144-.257.182-.386.272-.645.453.174.249.261.373.433.622zM366.096 242.503c-.198.152-.298.228-.498.378-.304-.184-.455-.276-.758-.462-.333.25-.501.375-.837.623.096.339.143.509.237.85l-.48.35c-.304-1.206-.46-1.806-.785-3.001l.418-.311c1.073.639 1.614.954 2.703 1.573zm-1.668-.346c-.335-.207-.502-.31-.834-.518l.271.937.563-.419zM367.439 239.599c.608.757.518 1.458-.288 2.089-.312.244-.468.365-.781.606l-1.759-2.287c.306-.235.458-.354.762-.591.785-.615 1.47-.56 2.066.183zm-.441.352a1.662 1.662 0 0 0-.277-.279.686.686 0 0 0-.303-.135.691.691 0 0 0-.342.037 1.41 1.41 0 0 0-.399.234l-.329.256 1.161 1.495.334-.261c.146-.115.255-.227.325-.338a.7.7 0 0 0 .113-.332.713.713 0 0 0-.065-.333 1.699 1.699 0 0 0-.218-.344zM370.579 238.898c-.7.592-1.054.885-1.766 1.464l-1.819-2.239a92.396 92.396 0 0 0 1.673-1.386l.319.379c-.499.422-.75.631-1.255 1.046l.414.504c.476-.39.712-.587 1.182-.984l.317.376c-.472.398-.71.596-1.188.988l.476.579c.533-.438.799-.659 1.326-1.105.129.15.192.227.321.378zM374.048 235.84l-.401.367-1.242-1.367c.309.718.461 1.078.763 1.8l-.35.313c-.684-.38-1.024-.573-1.702-.959l1.221 1.386-.406.357-1.898-2.173.533-.468c.747.437 1.123.653 1.877 1.083-.343-.798-.516-1.195-.867-1.987.21-.19.314-.285.522-.476l1.95 2.124zM375.494 234.553c-.137.13-.266.227-.388.292a1.035 1.035 0 0 1-.344.12.725.725 0 0 1-.302-.016.995.995 0 0 1-.267-.117l-.236-.181-.209-.21-1.126-1.212c.16-.148.239-.223.398-.372l1.128 1.202c.111.119.213.207.305.263a.572.572 0 0 0 .256.091l.226-.052.22-.164.177-.214.063-.223a.558.558 0 0 0-.078-.257 1.639 1.639 0 0 0-.247-.316l-1.142-1.189.396-.381 1.151 1.188c.139.144.25.285.335.423.084.14.132.279.143.421s-.02.288-.091.436a1.732 1.732 0 0 1-.368.468zM378.203 231.831c-.543.551-.816.824-1.369 1.366l-2.02-2.06.388-.382 1.682 1.697c.389-.385.582-.579.967-.969l.352.348zM378.323 228.263c-.251.266-.376.398-.629.663l1.727 1.651c-.155.162-.232.243-.389.404l-1.719-1.66c-.253.262-.379.392-.634.651l-.354-.347c.662-.674.989-1.015 1.637-1.703l.361.341zM380.774 229.138l-.379.408-2.11-1.968c.148-.159.223-.238.37-.398l2.119 1.958zM379.098 226.698c.302-.331.452-.498.752-.832l.208-.208.223-.167.233-.106.244-.031.254.062.26.17c.23.202.341.425.33.671-.011.245-.142.509-.394.791l-.409.455.805.728c-.149.166-.225.249-.376.414l-2.13-1.947zm1.335.472l.413-.459.152-.211.056-.185-.033-.16-.114-.143-.181-.097-.172.014-.163.098-.156.153-.402.448.6.542zM383.968 225.605a1.869 1.869 0 0 1-.355.332 1.036 1.036 0 0 1-.328.156.725.725 0 0 1-.302.016 1.034 1.034 0 0 1-.278-.087l-.254-.155-.23-.187-1.249-1.084.356-.413 1.25 1.075c.123.106.234.183.331.229a.567.567 0 0 0 .264.063l.219-.076.202-.187.152-.231.039-.229-.105-.248a1.627 1.627 0 0 0-.279-.289l-1.262-1.061.353-.421 1.271 1.058c.154.128.28.255.379.385a.95.95 0 0 1 .187.404c.026.139.012.288-.044.443s-.163.325-.317.507zM386.779 222.091c-.148.19-.224.285-.374.474-.317-.105-.476-.159-.792-.265l-.169-.029-.166.02-.154.068-.131.118c-.149.186-.225.278-.375.463l.898.731-.354.434-2.229-1.832c.333-.405.498-.609.827-1.018l.144-.172.146-.144.163-.109.19-.067.185-.015.18.028.171.064.152.097a.77.77 0 0 1 .278.846c.152-.041.332-.029.541.034l.869.274zm-2.547.534c.186-.228.278-.342.462-.571l.145-.211.057-.176-.032-.152-.122-.137c-.101-.08-.199-.106-.297-.08-.098.027-.199.105-.305.237-.197.245-.296.368-.495.612l.587.478zM384.831 219.899c.275-.354.412-.533.685-.89l.191-.224.209-.184.225-.125.241-.051.258.041c.089.03.18.08.272.149.246.183.374.397.382.644.009.246-.102.52-.331.821l-.372.486c.344.265.517.397.86.663l-.343.443-2.277-1.773zm1.368.365c.151-.196.227-.294.376-.491l.136-.223.041-.189-.045-.157-.126-.133-.188-.083-.17.028-.155.111-.144.165-.367.479c.257.196.385.295.642.493zM387.257 216.582c.12-.166.259-.298.416-.397.159-.1.327-.163.506-.19.178-.028.362-.018.553.03.19.048.377.135.561.263.18.126.325.271.434.433s.18.333.213.514c.034.18.028.363-.015.55a1.524 1.524 0 0 1-.251.539c-.125.172-.269.31-.431.409a1.312 1.312 0 0 1-1.071.149 1.698 1.698 0 0 1-.551-.276 1.692 1.692 0 0 1-.428-.449 1.327 1.327 0 0 1-.182-1.055c.046-.182.128-.355.246-.52zm2.025 1.462a.863.863 0 0 0 .149-.326.785.785 0 0 0-.002-.341.932.932 0 0 0-.154-.33 1.304 1.304 0 0 0-.311-.297 1.295 1.295 0 0 0-.385-.195.935.935 0 0 0-.361-.038.76.76 0 0 0-.315.106.839.839 0 0 0-.252.235.844.844 0 0 0-.146.319.782.782 0 0 0-.001.337.883.883 0 0 0 .148.332c.076.108.177.21.304.303.128.094.255.159.382.198a.919.919 0 0 0 .362.042.817.817 0 0 0 .582-.345zM391.508 215.7c-.121.178-.25.318-.386.42a1.134 1.134 0 0 1-.414.204c-.14.034-.281.036-.423.005s-.279-.089-.414-.176l.308-.445.265.087.246-.027.218-.125.183-.205.117-.221.045-.202-.029-.168-.106-.124-.15-.05-.169.051-.213.154c-.08.069-.175.159-.282.264-.124.12-.244.216-.354.29a1.088 1.088 0 0 1-.313.151.619.619 0 0 1-.289.012.724.724 0 0 1-.277-.124.73.73 0 0 1-.323-.586 1.076 1.076 0 0 1 .049-.378c.04-.132.105-.266.195-.398.095-.139.199-.253.313-.342.115-.09.236-.153.362-.189a.883.883 0 0 1 .39-.026c.134.02.266.071.396.154-.117.176-.176.265-.295.44-.294-.151-.543-.075-.749.228-.102.148-.152.277-.158.389a.274.274 0 0 0 .119.254l.108.036.127-.033.157-.104.198-.18.202-.193.217-.183.233-.147.248-.086.262.003a.771.771 0 0 1 .274.121.796.796 0 0 1 .362.626c.01.128-.006.264-.047.404a1.54 1.54 0 0 1-.203.419zM393.682 212.292a95.352 95.352 0 0 1-1.247 1.938l-2.411-1.585a100.5 100.5 0 0 0 1.182-1.835l.42.264a90.17 90.17 0 0 1-.886 1.383l.547.356c.337-.518.504-.779.834-1.302l.416.263c-.331.525-.499.787-.838 1.307l.628.409c.379-.582.565-.874.936-1.462l.419.264zM395.282 209.76a1.824 1.824 0 0 1-.295.389 1.039 1.039 0 0 1-.3.211.724.724 0 0 1-.295.068 1.014 1.014 0 0 1-.29-.039 1.382 1.382 0 0 1-.275-.109l-.259-.146-1.414-.859.284-.47 1.413.849c.14.084.262.141.364.17a.572.572 0 0 0 .271.017l.204-.113.168-.22.112-.255.001-.233-.146-.227a1.618 1.618 0 0 0-.323-.238l-1.422-.833.278-.477 1.431.829c.173.101.319.205.438.316a.942.942 0 0 1 .252.368c.049.133.059.284.029.447s-.103.348-.226.555zM396.827 207.076a1.74 1.74 0 0 1-.348.455 1.139 1.139 0 0 1-.396.241.926.926 0 0 1-.421.044 1.239 1.239 0 0 1-.429-.139l.27-.473a.637.637 0 0 0 .271.064l.243-.05.207-.145.164-.221.098-.232.027-.206-.043-.165-.118-.115-.153-.036-.164.066-.2.173c-.073.076-.159.175-.259.29a2.648 2.648 0 0 1-.328.322c-.103.083-.203.143-.3.179a.64.64 0 0 1-.575-.06.75.75 0 0 1-.253-.234.777.777 0 0 1-.119-.323 1.044 1.044 0 0 1 .017-.383c.028-.136.082-.275.161-.416.082-.147.177-.271.283-.371a1.06 1.06 0 0 1 .344-.222.906.906 0 0 1 .387-.062c.136.008.271.047.409.118a51.43 51.43 0 0 1-.256.467c-.307-.125-.549-.025-.729.296-.088.158-.128.291-.124.403s.052.193.141.243l.11.027.124-.044.148-.119.183-.197.185-.211.201-.202.22-.169.24-.108.262-.02a.77.77 0 0 1 .284.096c.116.063.211.146.28.249s.114.218.135.345.017.264-.013.408a1.496 1.496 0 0 1-.166.437zM398.704 203.47a95.263 95.263 0 0 1-1.078 2.053l-2.541-1.367a94.47 94.47 0 0 0 1.021-1.943l.441.227c-.302.588-.455.881-.765 1.464l.576.306c.292-.549.436-.824.721-1.378l.438.225c-.286.556-.431.833-.724 1.384l.661.352c.327-.616.489-.926.808-1.547.177.088.265.133.442.224zM165.939 204.093c-.214-.385-.32-.578-.53-.965.282-.417.424-.625.709-1.038a92.764 92.764 0 0 1-.856-1.624c-.498.011-.747.016-1.245.023-.191-.373-.286-.56-.474-.935 1.762.027 2.641.028 4.391.002.169.324.254.485.425.807a125.383 125.383 0 0 0-2.42 3.73zm.582-2.563c.317-.457.477-.684.798-1.137-.549.021-.823.031-1.373.047.228.437.343.655.575 1.09zM171.803 206.405a122.14 122.14 0 0 1-4.391.27c-.184-.313-.275-.47-.457-.785a126.003 126.003 0 0 1 2.405-3.684c.199.359.299.538.501.895a130.08 130.08 0 0 0-1.822 2.683c1.299-.087 1.947-.137 3.237-.251.21.349.315.524.527.872zM169.937 210.792l-.388-.609 2.438-1.542.379.595-2.429 1.556zM172.143 214.116l-.386-.564c.25-1.007.379-1.507.648-2.502l-1.611 1.062-.383-.585 2.418-1.574.367.561a98.438 98.438 0 0 0-.663 2.486l1.6-1.085c.154.228.232.341.388.568l-2.378 1.633zM176.242 215.763c-.28-.381-.418-.573-.695-.958l-1.941 1.393-.422-.591 1.949-1.382c-.272-.384-.408-.578-.677-.965l.408-.283a102.238 102.238 0 0 0 1.778 2.493l-.4.293zM176.458 220.015a103.043 103.043 0 0 1-1.792-2.36l2.319-1.716a99.803 99.803 0 0 0 1.699 2.24l-.392.304a95.464 95.464 0 0 1-1.282-1.681l-.521.391c.477.637.718.954 1.206 1.583l-.389.302a99.17 99.17 0 0 1-1.21-1.589l-.6.449c.535.714.806 1.069 1.354 1.773l-.392.304zM178.494 222.562c-.634-.772-.948-1.162-1.566-1.947l2.267-1.786c.174.222.262.333.438.553l-1.868 1.49c.441.553.664.829 1.113 1.375l-.384.315zM180.507 224.951a101.46 101.46 0 0 1-1.614-1.906l2.221-1.842.452.542-1.83 1.536c.455.542.684.811 1.146 1.346l-.375.324zM181.42 225.996c-.19-.215-.286-.323-.475-.54l2.172-1.899c.185.212.278.317.464.527l-2.161 1.912zM183.12 227.946a2.532 2.532 0 0 1-.439-.638 1.764 1.764 0 0 1-.174-.642 1.357 1.357 0 0 1 .094-.597c.076-.189.198-.359.365-.508a1.41 1.41 0 0 1 .549-.312c.196-.055.396-.066.599-.033.204.033.406.109.608.228.202.118.393.276.575.474.153.166.278.337.376.514.097.177.164.351.2.521.036.17.039.333.01.489a.906.906 0 0 1-.198.417l-.501-.532.114-.225a.611.611 0 0 0-.004-.262 1.031 1.031 0 0 0-.118-.289c-.058-.1-.134-.2-.228-.302a1.46 1.46 0 0 0-.354-.288.988.988 0 0 0-.38-.127.903.903 0 0 0-.387.043c-.129.044-.254.12-.373.228-.117.106-.204.221-.26.346s-.082.253-.08.384a1 1 0 0 0 .093.398c.06.134.146.262.26.385.163.177.322.31.476.398.154.089.313.137.474.146l.221-.207c-.26-.277-.39-.416-.648-.696l.365-.336c.448.485.674.727 1.128 1.206l-1.129 1.071-.381-.403.087-.209c-.153-.041-.307-.113-.464-.219s-.315-.248-.476-.423zM187.015 231.918a103.07 103.07 0 0 1-2.075-2.107l2.079-2c.778.809 1.172 1.209 1.969 2l-.35.352a95.34 95.34 0 0 1-1.484-1.499l-.467.455c.554.569.833.851 1.396 1.411l-.348.349c-.565-.562-.846-.846-1.402-1.417l-.537.522c.621.638.935.955 1.567 1.582l-.348.352zM189.808 234.601l-.497-.465c.026-1.035.045-1.551.093-2.578l-1.341 1.387c-.2-.194-.301-.291-.499-.486l2.018-2.062.479.466a94.279 94.279 0 0 0-.111 2.566l1.325-1.407c.199.188.3.281.5.468-.788.844-1.181 1.265-1.967 2.111zM194.158 235.31c-.354-.311-.531-.467-.884-.782l-1.592 1.782-.539-.484 1.603-1.773c-.349-.315-.522-.474-.868-.792l.336-.365a101.98 101.98 0 0 0 2.271 2.041l-.327.373zM197.867 238.43a93.095 93.095 0 0 1-.915-.747l-1.52 1.844c-.224-.184-.335-.277-.558-.462l1.529-1.835a92.335 92.335 0 0 1-.899-.758l.321-.378a97.658 97.658 0 0 0 2.353 1.95l-.311.386zM199.167 242.484a103.05 103.05 0 0 1-2.337-1.823l1.802-2.253a100.46 100.46 0 0 0 2.216 1.73l-.301.395c-.673-.513-1.007-.772-1.67-1.296l-.404.512c.625.493.939.737 1.571 1.221l-.299.391c-.635-.485-.95-.73-1.577-1.226-.186.235-.278.353-.465.587.7.553 1.054.827 1.764 1.368l-.3.394zM202.478 244.919l-.634-.453.159-.853.001-.185-.055-.186-.11-.177-.166-.156a89.579 89.579 0 0 1-.619-.457l-.69.931c-.232-.173-.349-.259-.58-.433l1.732-2.307c.543.408.816.61 1.365 1.011l.231.174.199.174.162.19.117.216.054.206.002.196-.044.183-.084.16a.657.657 0 0 1-.4.271 1.056 1.056 0 0 1-.55-.038c.078.172.101.371.066.595l-.156.938zm-1.127-2.864c.306.227.459.339.766.563.104.075.195.134.277.177l.221.079.174-.022.138-.123a.304.304 0 0 0 .037-.322c-.05-.11-.164-.229-.341-.359a82.2 82.2 0 0 1-.819-.603l-.453.61zM206.101 247.394c-.235-.155-.354-.232-.588-.389l1.024-1.538c-.685.432-1.028.646-1.72 1.071l-.504-.342c.142-.798.215-1.196.365-1.991l-1.052 1.519c-.23-.16-.346-.24-.575-.401l1.656-2.362c.302.211.452.316.755.525a142.12 142.12 0 0 0-.431 2.197c.76-.479 1.137-.72 1.888-1.208.306.205.459.306.766.508l-1.584 2.411zM207.533 248.322c-.244-.155-.365-.234-.608-.391l1.566-2.423c.237.153.355.23.594.382l-1.552 2.432zM210.939 250.419c-.236-.14-.354-.21-.589-.352a97.526 97.526 0 0 1-.467-2.545l-1.018 1.64-.594-.371 1.535-2.443c.228.143.341.214.569.355.167 1.014.256 1.521.447 2.539l.996-1.657c.236.142.354.213.592.354l-1.471 2.48zM214.622 252.521c-.285-.157-.428-.235-.712-.393l.031-.928c-.474-.266-.71-.4-1.181-.671-.305.206-.457.308-.763.512-.268-.155-.4-.233-.667-.389 1.103-.69 1.648-1.041 2.73-1.751.235.135.354.202.59.335a119.58 119.58 0 0 0-.028 3.285zm-.652-1.831c.016-.411.025-.616.044-1.025-.333.231-.501.346-.837.575.316.181.474.271.793.45zM217.234 253.912c-.897-.464-1.344-.701-2.23-1.183l1.378-2.535c.25.136.376.204.627.338l-1.129 2.106c.63.338.946.504 1.582.833l-.228.441z" fill="#a02b59"/><path d="M320.948 320.265l3.195-5.309c.151-.303.304-.455.456-.455h2.282v.705l.152-.25c.152-.303.305-.455.457-.455h2.738v5.764h-1.826v-4.55l-2.738 4.55h-1.826l2.739-4.55h-.913c-.102 0-.203.05-.305.151l-2.587 4.398h-1.824zm11.716-2.275v1.062h4.261v1.214h-6.086v-3.792c0-.101.025-.202.075-.303l.837-1.517c.051-.102.152-.152.305-.152h4.869v1.214h-3.651c-.102 0-.178.05-.229.151l-.381.91h4.261l-.608 1.213h-3.653zm6.695 1.061h3.044v-1.062h-1.218l.608-1.213h2.435v3.185c0 .202-.102.304-.304.304h-6.087c-.203 0-.305-.102-.305-.304v-3.488c0-.101.025-.202.076-.303l.837-1.517c.051-.102.152-.152.305-.152h5.174v1.214h-3.957c-.101 0-.177.05-.228.151l-.381.91v2.275zm13.086 1.214h-2.13l-.837-1.214h-2.206l-.609-1.1v2.313h-1.825V314.5h3.499c.152 0 .305.152.457.455l3.651 5.31zm-3.811-2.427l-1.361-1.972c-.102-.101-.203-.151-.305-.151h-.305v2.123h1.971zM356.087 319.122h2.209a.255.255 0 0 0 .236-.143l.671-1.44.039-.158-.039-.158-.671-1.425c-.053-.105-.132-.158-.236-.158h-2.209v3.482zm-1.894-4.749h5.285c.158 0 .29.105.395.316l1.223 2.533.04.158-.04.158-1.223 2.532c-.104.211-.236.316-.395.316h-5.285v-6.013zm7.574 0h5.049c.157 0 .289.105.395.316l.828 1.741.039.158-.039.158-1.223 1.425 1.262 2.216h-1.894l-1.813-3.007h.946c.105 0 .184-.026.236-.079l.631-.713-.315-.791c-.053-.105-.131-.158-.236-.158h-1.972v4.748h-1.894v-6.014zm8.835 6.014h-1.894v-6.015h1.894v6.015zm2.524-4.036l1.894 2.771 1.893-2.771v-1.979h1.894v2.216c0 .211-.026.369-.079.475l-2.13 3.324h-3.155l-2.13-3.324c-.053-.105-.079-.264-.079-.475v-2.216h1.894v1.979zm8.204 1.662v1.108h4.417v1.266h-6.311v-3.957c0-.105.026-.211.079-.316l.867-1.583c.053-.105.158-.158.316-.158h5.048v1.267h-3.786c-.105 0-.185.053-.236.158l-.395.949h4.417l-.631 1.267h-3.785z" fill="#c2c2c2"/><linearGradient id="g" gradientUnits="userSpaceOnUse" x1="60.505" y1="267.23" x2="60.505" y2="262.418"><stop offset="0" stop-color="#3f3f3e"/><stop offset=".139" stop-color="#4f4f4e"/><stop offset=".361" stop-color="#707070"/><stop offset=".429" stop-color="#5e5d5d"/><stop offset=".526" stop-color="#4b4949"/><stop offset=".637" stop-color="#3d3b3b"/><stop offset=".773" stop-color="#353333"/><stop offset="1" stop-color="#333030"/></linearGradient><path fill="url(#g)" d="M53.422 262.418h14.167v4.813H53.422z"/></svg>