<svg id="Layer_1" data-name="Layer 1" xmlns="http://www.w3.org/2000/svg" viewBox="0 0 105 105"><title>icon_empty</title><path d="M85.20424,32.72054a3.1396,3.1396,0,0,0-.51464.13623q-8.2685,3.95334-16.53,7.9206c-.77131.37139-1.52277.7821-2.276,1.18939-.26581-.01972-.5318-.03821-.79761-.05811-.11054-.00824-.212-.13751-.31769-.21057q-2.59441-.15-5.18884-.2998,2.63562-2.70127,5.275-5.39881c2.78168-2.8327,5.57349-5.65545,8.42121-8.54364.08563-5.82794.18316-11.67853.15808-17.70312-5.19666,3.08014-10.20862,6.05084-15.2013,9.01007-.59668,2.15961-1.17621,4.26648-1.761,6.37189q-1.24275,4.4749-2.49085,8.9483-.91864,3.31347-1.82532,6.63025l-3.35589-.23017q-1.17261-.08907-2.34516-.178c-.00433-2.01825-.008-4.03656-.02526-6.05469-.04517-5.31421-.11945-10.62818-.1717-15.94238a3.9541,3.9541,0,0,0-.79065-2.41449c-2.04815-2.78833-4.03479-5.62183-6.05273-8.43244C37.95321,5.4266,36.49233,3.39187,34.99849,1.3818c-.23944-.32215-.40307-.85224-1.02734-.7815-1.3244,6.29724-2.63513,12.57831-3.979,18.85224a3.32294,3.32294,0,0,0,.20068,2.00763q.89529,2.21062,1.85693,4.39434c1.7732,4.034,3.572,8.05671,5.34015,12.0929.24066.54932.4737,1.10187.71363,1.65149l-2.87433-.22669Q26.55339,31.49977,17.85805,23.6487a2.04326,2.04326,0,0,0-1.3136-.44891c-5.21746.16034-10.43518.36469-15.65283.5672A5.86655,5.86655,0,0,0,0,23.95235c2.99463,4.7768,5.92255,9.44721,8.83618,14.09473,2.59552.6189,5.12934,1.25488,7.68091,1.824,3.66705.81788,7.35,1.57612,11.01886,2.387a19.405,19.405,0,0,1,1.94983.64337l.37622-.19794c.0578,1.47547.11493,2.8938.17206,4.60486-1.75574.04529-3.51148.09052-5.38513.13886.2138,3.11963.41656,6.07861.623,9.08984,1.48023-.14819,2.7793-.2782,4.07831-.4082a6.239,6.239,0,0,1-.07751.8089A8.28343,8.28343,0,0,0,30.18,62.5497c.15686.3191.25952.6648.38721.99817.01685,1.04016.01978,2.08081.0531,3.12043.114,3.55572.23871,6.17944.35931,9.735a1.98093,1.98093,0,0,0-.21765.49732c-.31225,2.30236-.59832,3.67663-.91626,5.97821-.47992,3.47442-.981,6.94592-1.46887,10.41931-.04138.29474-.05041.594-.08838,1.06262.603,0,1.0932-.00354,1.58325.00055q4.86732.04092,9.73456.08459c.4917-.00164.98334-.00219,1.475-.00433q2.11451,3.61029,4.24,7.214c.643,1.08636,1.3205,2.15234,2.05414,3.34442,1.33746-1.67779,2.0697-3.605,3.42578-5.2392.52991,1.00513.96606,1.83234,1.52527,2.89289.74548-1.39917,1.37945-2.54041,1.96844-3.70447.754-1.49023,1.49475-2.98718,2.23834-4.48273q.68244.004,1.36487.0069c4.147-.1095,8.29682.34113,12.59009.04993-.18262-1.28962-.364-2.45026-.50879-3.61548-.49573-3.98718-.96741-7.04566-1.47375-11.03144-.13758-1.08282-.365-2.15417-.55115-3.23077.19141-2.54834.40423-4.16363.56677-6.71381.10724-1.68206.14221-3.36871.2096-5.05328.24835-.4342.51043-.86121.74194-1.3042.357-.6831.73157-1.3609,1.02991-2.06982a9.286,9.286,0,0,0,.47455-4.45349c1.61956.1629,3.23907.3258,4.95831.49871.22955-3.09234.4472-6.0252.67834-9.13867h-6.7218c.0647-1.06787.12946-1.89728.19415-2.72937a.803.803,0,0,1-.00317.8645c5.73993.35175,11.48053.69037,17.21893,1.07a2.58714,2.58714,0,0,0,1.9513-.74872q4.07482-3.49256,8.13775-6.99865c.82758-.7157,1.62488-1.46552,2.60889-2.3562C94.87984,35.85427,90.01626,34.279,85.20424,32.72054Z" fill="#fff"/></svg>