<svg id="Layer_1" data-name="Layer 1" xmlns="http://www.w3.org/2000/svg" viewBox="0 0 1000 113.99993"><title>logo</title><rect x="398.07446" y="3.50005" width="203.85107" height="86.72266" rx="3.5" fill="#231f20"/><path d="M598.42533,7V86.723H401.57465V7H598.42533m0-7H401.57465a7,7,0,0,0-7,7V86.723a7,7,0,0,0,7,7H598.42533a7,7,0,0,0,7-7V7a7,7,0,0,0-7-7Z" fill="#fff"/><rect x="461.87182" y="86.90044" width="47.9873" height="23.59961" rx="3.5" fill="#231f20"/><path d="M506.35883,90.40045v16.59948H465.3717V90.40045h40.98713m0-7H465.3717a7,7,0,0,0-7,7v16.59948a7,7,0,0,0,7,7h40.98713a7,7,0,0,0,7-7V90.40045a7,7,0,0,0-7-7Z" fill="#fff"/><path d="M507.35034,110.50005a3.49991,3.49991,0,0,1-3.499-3.56445,10.396,10.396,0,0,1,1.03028-4.53711l.02343-.042a3.487,3.487,0,0,1-.88183-2.32324v-.834a7.13632,7.13632,0,0,1,7.18652-7.06933c4.38281,0,7.32715,2.88671,7.32715,7.18261a6.90612,6.90612,0,0,1-.82227,3.32325,3.48561,3.48561,0,0,1,.65039,2.03222v2.332a3.50048,3.50048,0,0,1-3.5,3.5Z" fill="#231f20"/><path d="M511.20929,95.62957c1.78491,0,3.8272.7475,3.8272,3.68286,0,3.08148-3.62695,3.94452-3.8272,5.35535h3.65582v2.33215h-7.51434a7.83848,7.83848,0,0,1,.57678-2.87823c1.26532-2.24622,4.28784-2.966,4.28784-4.75092,0-.79083-.31452-1.18054-.97723-1.18054s-1.0362.47632-1.0362,1.23883v.60443h-2.67853v-.83472a3.62441,3.62441,0,0,1,3.68586-3.56921m0-7a10.64006,10.64006,0,0,0-10.68586,10.56921v.83472a6.98194,6.98194,0,0,0,.486,2.568,15.58,15.58,0,0,0-.65759,4.27315,7,7,0,0,0,6.99888,7.12528h7.51434a7,7,0,0,0,7-7v-2.33215a6.99661,6.99661,0,0,0-.32926-2.12781,10.67987,10.67987,0,0,0-10.32656-13.9104Z" fill="#fff"/><rect x="398.6018" y="86.89654" width="47.9873" height="23.59961" rx="3.5" fill="#231f20"/><path d="M443.08911,90.39636v16.59948H402.102V90.39636h40.98713m0-7H402.102a7,7,0,0,0-7,7v16.59948a7,7,0,0,0,7,7h40.98713a7,7,0,0,0,7-7V90.39636a7,7,0,0,0-7-7Z" fill="#fff"/><path d="M592.14721,110.49712a3.50048,3.50048,0,0,1-3.5-3.5V105.836h-.75781a3.50048,3.50048,0,0,1-3.5-3.5v-2.10742a3.50048,3.50048,0,0,1,3.5-3.5h.75781V95.56744a3.50048,3.50048,0,0,1,3.5-3.5h2.01953a3.50048,3.50048,0,0,1,3.5,3.5v1.16113h.75879a3.50048,3.50048,0,0,1,3.5,3.5V102.336a3.50048,3.50048,0,0,1-3.5,3.5h-.75879v1.16113a3.50048,3.50048,0,0,1-3.5,3.5Z" fill="#231f20"/><path d="M594.1668,95.5675v4.66107h4.25855v2.10724H594.1668v4.66107h-2.01916v-4.66107h-4.25849v-2.10724h4.25849V95.5675h2.01916m0-7h-2.01916a7.00312,7.00312,0,0,0-6.74324,5.11489,7.00232,7.00232,0,0,0-4.51525,6.54618v2.10724a7.00233,7.00233,0,0,0,4.51525,6.54618,7.00312,7.00312,0,0,0,6.74324,5.11489h2.01916A7.00309,7.00309,0,0,0,600.91,108.882a7.00242,7.00242,0,0,0,4.51532-6.54621v-2.10724A7.0024,7.0024,0,0,0,600.91,93.68236a7.00308,7.00308,0,0,0-6.74323-5.11486Z" fill="#fff"/><rect x="533.5642" y="86.89751" width="47.98633" height="23.59961" rx="3.5" fill="#231f20"/><path d="M578.051,90.39739v16.59949H537.06389V90.39739H578.051m0-7H537.06389a7,7,0,0,0-7,7v16.59949a7,7,0,0,0,7,7H578.051a7,7,0,0,0,7-7V90.39739a7,7,0,0,0-7-7Z" fill="#fff"/><path d="M579.04272,110.49712a3.49822,3.49822,0,0,1-3.499-3.5625,10.39919,10.39919,0,0,1,1.03027-4.541l.02344-.041a3.4825,3.4825,0,0,1-.88184-2.32226v-.835a7.13611,7.13611,0,0,1,7.18555-7.06934c4.38281,0,7.32715,2.88672,7.32715,7.18359a6.91033,6.91033,0,0,1-.82129,3.32227,3.48864,3.48864,0,0,1,.65039,2.0332v2.332a3.50049,3.50049,0,0,1-3.5,3.5Z" fill="#231f20"/><path d="M582.90148,95.62646c1.78492,0,3.82721.74756,3.82721,3.68292,0,3.08148-3.627,3.94446-3.82721,5.35535h3.65583v2.33215H579.043a7.83784,7.83784,0,0,1,.57673-2.87823c1.26532-2.24622,4.28784-2.96607,4.28784-4.751,0-.79083-.31452-1.18048-.97724-1.18048s-1.03619.47632-1.03619,1.23883v.60437h-2.67853v-.83472a3.62441,3.62441,0,0,1,3.68585-3.56921m0-7a10.64005,10.64005,0,0,0-10.68585,10.56921v.83472a6.98174,6.98174,0,0,0,.48606,2.568,15.57958,15.57958,0,0,0-.65754,4.27344,7,7,0,0,0,6.99887,7.12505h7.51429a7,7,0,0,0,7-7v-2.33215a6.9963,6.9963,0,0,0-.32926-2.12781,10.67992,10.67992,0,0,0-10.32657-13.91046Z" fill="#fff"/><rect x="401.57463" y="6.99997" width="196.8507" height="79.72307" fill="#231f20"/><path d="M582.85106,18.22218,564.1367,45.55534l20.35521,29.86291H565.695l-11.18538-15.987L543.23424,75.45659H524.5611c.50709-1.05269,20.4408-29.90125,20.4408-29.90125l-8.49622-11.82079-36.04239.04121c-1.6807.1327-3.74169-.37741-4.585,1.51857a2.64013,2.64013,0,0,0-.08258,2.1878,2.811,2.811,0,0,0,1.72192,1.59511l1.13527.0856h14.42647A18.08065,18.08065,0,0,1,528.176,66.24826a18.78251,18.78251,0,0,1-17.03078,9.25256H471.022s-6.1419-22.16725-6.18327-22.2056l-6.18312,22.2056-14.63359.00287-5.88828-22.29391L431.697,75.45659H415.50653S430.39375,21.87843,431.361,18.34311h13.67239l6.43372,23.88917,6.56053-23.88917,13.41591-.003,11.48172,41.60126h26.74862c1.84571-.08846,4.414.41561,5.17179-1.85175a2.78051,2.78051,0,0,0-.67239-2.77762,3.48836,3.48836,0,0,0-2.397-.75483l-14.38239-.00287a18.13675,18.13675,0,0,1,.42165-36.25254l47.1864-.04121,9.50769,13.70787,9.83635-13.74924Z" fill="#fff"/><rect x="465.3717" y="90.40048" width="40.98713" height="16.59948" fill="#231f20"/><path d="M503.116,92.73711l-3.89659,5.69115,4.23824,6.21789H499.5439l-2.329-3.32873-2.34769,3.33671h-3.888c.10558-.21918,4.25607-6.22587,4.25607-6.22587l-1.769-2.46125-7.50454.00858c-.34994.02763-.77907-.07859-.95466.31618a.54973.54973,0,0,0-.01719.45554.5853.5853,0,0,0,.35853.33212l.23637.01782h3.0038a3.76466,3.76466,0,0,1,3.14333,5.63958,3.91079,3.91079,0,0,1-3.54605,1.92651h-8.35422s-1.27883-4.61554-1.28744-4.62352l-1.28742,4.62352-3.04692.0006-1.226-4.64191-1.34023,4.6321h-3.37109s3.09973-11.15574,3.30112-11.89184h2.84679L475.76,97.73635l1.366-4.97406,2.79338-.00063,2.39066,8.662h5.56945c.3843-.01842.91905.08653,1.07684-.38556a.57894.57894,0,0,0-.14-.57834.72632.72632,0,0,0-.4991-.15717l-2.99462-.0006a3.77633,3.77633,0,0,1,.08779-7.5483l9.82489-.00858,1.97964,2.85418,2.04806-2.86279Z" fill="#fff"/><path d="M511.20929,104.6678c.20027-1.41086,3.82721-2.27385,3.82721-5.35533,0-2.93537-2.04228-3.68289-3.82721-3.68289a3.62442,3.62442,0,0,0-3.68588,3.5692v.83472h2.67852v-.60439c0-.76251.37352-1.23885,1.03625-1.23885s.97723.38968.97723,1.18053c0,1.78492-3.02254,2.50473-4.28787,4.75093A7.838,7.838,0,0,0,507.35079,107h7.51432V104.6678Z" fill="#231f20"/><rect x="402.10197" y="90.39637" width="40.98713" height="16.59948" fill="#231f20"/><path d="M439.84632,92.733l-3.8966,5.69116L440.188,104.642h-3.91379l-2.329-3.32872-2.34769,3.3367h-3.888c.10559-.21918,4.25607-6.22586,4.25607-6.22586l-1.769-2.46126-7.50454.00858c-.34995.02763-.77908-.07858-.95466.31619a.54971.54971,0,0,0-.0172.45553.58527.58527,0,0,0,.35853.33212l.23638.01782h3.0038a3.76465,3.76465,0,0,1,3.14332,5.63958,3.91079,3.91079,0,0,1-3.546,1.92651h-8.35421s-1.27884-4.61554-1.28745-4.62352l-1.28741,4.62352-3.04693.0006-1.226-4.64191-1.34022,4.6321h-3.3711s3.09973-11.15574,3.30113-11.89184h2.84679l1.33959,4.97407,1.366-4.97407,2.79338-.00063,2.39066,8.662h5.56944c.38431-.01842.91905.08654,1.07684-.38556a.57894.57894,0,0,0-.14-.57834.72632.72632,0,0,0-.4991-.15717l-2.99462-.0006a3.77633,3.77633,0,0,1,.0878-7.54829l9.82488-.00859,1.97964,2.85418,2.04807-2.86279Z" fill="#fff"/><polygon points="594.167 102.336 598.425 102.336 598.425 100.229 594.167 100.229 594.167 95.567 592.148 95.567 592.148 100.229 587.889 100.229 587.889 102.336 592.148 102.336 592.148 106.997 594.167 106.997 594.167 102.336" fill="#231f20"/><rect x="537.0639" y="90.39739" width="40.98713" height="16.59948" fill="#231f20"/><path d="M574.80825,92.734l-3.8966,5.69116,4.23825,6.21788h-3.91379l-2.329-3.32872-2.34769,3.3367h-3.888c.10558-.21918,4.25606-6.22586,4.25606-6.22586l-1.769-2.46126-7.50454.00858c-.35.02763-.77908-.07858-.95466.31619a.54971.54971,0,0,0-.0172.45553.58532.58532,0,0,0,.35853.33212l.23638.01782h3.0038a3.76466,3.76466,0,0,1,3.14333,5.63958,3.91081,3.91081,0,0,1-3.54606,1.92651h-8.35421s-1.27883-4.61554-1.28745-4.62352l-1.28741,4.62352-3.04692.0006-1.226-4.64191-1.34022,4.6321h-3.3711s3.09974-11.15574,3.30113-11.89184h2.84679l1.33959,4.97407,1.366-4.97407,2.79338-.00063,2.39066,8.662h5.56944c.38431-.01842.919.08653,1.07685-.38556a.57893.57893,0,0,0-.14-.57834.72631.72631,0,0,0-.49909-.15717l-2.99462-.0006a3.77633,3.77633,0,0,1,.08779-7.54829l9.82488-.00859,1.97964,2.85418,2.04807-2.86279Z" fill="#fff"/><path d="M582.90149,104.66471c.20028-1.41086,3.82722-2.27385,3.82722-5.35533,0-2.93537-2.04229-3.68289-3.82722-3.68289a3.62442,3.62442,0,0,0-3.68587,3.5692v.83473h2.67852V99.426c0-.76251.37352-1.23885,1.03624-1.23885s.97723.38968.97723,1.18053c0,1.78493-3.02254,2.50473-4.28787,4.75094a7.83785,7.83785,0,0,0-.57674,2.87824h7.51432v-2.33217Z" fill="#231f20"/></svg>