<svg xmlns="http://www.w3.org/2000/svg" width="500" height="167.55632">
  <defs>
    <clipPath id="a">
      <path d="M0 192.118h336.049V0H0v192.118z"/>
    </clipPath>
    <clipPath id="b">
      <path d="M0 115.181h198.854V0H0v115.181z"/>
    </clipPath>
  </defs>
  <g clip-path="url(#a)" transform="matrix(0.87215309,0,0,-0.87215309,0,167.55631)">
    <path fill="#bbbbb9" d="M13.0227 160.331l-3.828 1.855s6.488 14.735 19.021 17.751c12.534 3.016 51.166 6.613 51.166 6.613l-66.359-26.219zm-.1445-6.8447l-5.308-.957s-9.223-66.736-7.309-100.67c.348-17.576 16.619-25.58 17.664-25.668 1.043-.087 4.35.522 7.308 2.697-1.305 1.219-12.355 124.598-12.355 124.598m310.1474 6.8447l3.829 1.855s-6.488 14.735-19.021 17.751c-12.535 3.016-51.166 6.613-51.166 6.613l66.358-26.219zm.1456-6.8447l5.307-.957s9.224-66.736 7.309-100.67c-.349-17.576-16.618-25.58-17.663-25.668-1.044-.087-4.351.522-7.308 2.697 1.304 1.219 12.355 124.598 12.355 124.598"/>
    <path fill="#595eb0" d="M169.8572 0c27.321 0 69.259 5.744 77.787 7.137 8.526 1.392 21.23 10.093 29.409 11.136 8.179 1.045 29.757 6.788 39.153 10.616 9.398 3.828 16.248 13.138 16.184 24.189-.079 13.922.283 46.158-7.918 106.108-.496 3.628-3.621 9.561-11.398 10.426-9.136 1.015-20.765 3.48-33.063 8.005-15.546 6.032-24.015 14.501-36.544 14.501H92.1792c-12.529 0-20.997-8.469-36.543-14.501-12.298-4.525-23.928-6.99-33.064-8.005-7.776-.865-10.901-6.798-11.398-10.426C2.9752 99.236 3.3362 67 3.2562 53.078c-.064-11.051 6.787-20.361 16.184-24.189 9.397-3.828 30.975-9.571 39.154-10.616 8.179-1.043 20.882-9.744 29.409-11.136C96.5302 5.744 138.4682 0 165.7902 0h4.067z"/>
    <path fill="#201e1e" d="M167.823 171.9316c39.1 0 66.476-3.307 71.522-4.176 5.047-.871 10.093-3.481 11.485-11.66 1.392-8.178 7.135-97.449 5.568-108.413-1.565-10.963-8.178-16.88-19.489-19.489-11.312-2.611-48.029-9.224-69.086-9.399-21.056.175-57.773 6.788-69.085 9.399-11.312 2.609-17.924 8.526-19.49 19.489-1.566 10.964 4.176 100.235 5.568 108.413 1.392 8.179 6.439 10.789 11.485 11.66 5.046.869 32.422 4.176 71.522 4.176"/>
    <path fill="#bbbbb9" d="M50.1516 91.5292h-9.544c-1.054 0-1.911.854-1.911 1.908v12.967h-12.653c-1.053 0-1.91.858-1.91 1.91v9.544c0 1.054.856 1.91 1.91 1.91h12.653v12.654c0 1.054.857 1.911 1.911 1.911h9.544c1.052 0 1.91-.857 1.91-1.911v-12.654h12.031c1.053 0 1.91-.856 1.91-1.91v-9.544c0-1.052-.857-1.908-1.91-1.908h-12.031v-12.967c0-1.056-.856-1.91-1.91-1.91"/>
    <path fill="#394494" d="M71.6453 71.1601c1.817-1.496 2.743-3.936 2.193-6.389-.78-3.47-4.227-5.65-7.695-4.869l-24.642 5.94c-3.471.78-5.652 4.225-4.874 7.696.781 3.47 4.227 5.651 7.696 4.87l24.644-5.939c1.015-.231 1.925-.688 2.678-1.309m-.876-19.2353c1.816-1.495 2.742-3.938 2.192-6.387-.78-3.472-4.226-5.651-7.695-4.872l-24.642 5.94c-3.471.782-5.652 4.226-4.874 7.697.782 3.469 4.228 5.652 7.697 4.87l24.644-5.939c1.014-.23 1.924-.688 2.678-1.309"/>
    <path fill="#bbbbb9" d="M73.1194 66.1523c0-2.98-2.415-5.396-5.396-5.396s-5.398 2.416-5.398 5.396c0 2.981 2.417 5.398 5.398 5.398s5.396-2.417 5.396-5.398m-.7891-19.3037c0-2.982-2.417-5.398-5.397-5.398-2.981 0-5.396 2.416-5.396 5.398 0 2.979 2.415 5.395 5.396 5.395 2.98 0 5.397-2.416 5.397-5.395m216.646 61.1357c0-5.929-4.807-10.733-10.734-10.733-5.929 0-10.733 4.804-10.733 10.733 0 5.928 4.804 10.732 10.733 10.732 5.927 0 10.734-4.804 10.734-10.732m30.6138 10.7324c0-5.928-4.807-10.732-10.735-10.732-5.927 0-10.732 4.804-10.732 10.732 0 5.93 4.805 10.734 10.732 10.734 5.928 0 10.735-4.804 10.735-10.734"/>
    <path fill="#6dc847" d="M281.4939 158.998c0-1.795-1.456-3.251-3.252-3.251-1.795 0-3.249 1.456-3.249 3.251 0 1.796 1.454 3.25 3.249 3.25 1.796 0 3.252-1.454 3.252-3.25"/>
    <path fill="none" stroke="#6dc847" stroke-width=".105" stroke-miterlimit="10" d="M281.4939 158.998c0-1.795-1.456-3.251-3.252-3.251-1.795 0-3.249 1.456-3.249 3.251 0 1.796 1.454 3.25 3.249 3.25 1.796 0 3.252-1.454 3.252-3.25z"/>
    <path fill="none" stroke="#2d3867" stroke-width="2.78399992" stroke-miterlimit="10" d="M267.989 63.6054l35.24 8.701m-35.24-16.1209l35.24 8.701m-35.24-16.1209l35.24 8.7m-35.24-16.1199l35.24 8.699" stroke-linecap="round"/>
    <path fill="#8f9295" d="M41.3704 124.5117h7.395l-3.838 7.223-3.557-7.223zm7.3955-23.0567h-7.395l3.837-7.223 3.558 7.223zm7.831 15.2256v-7.396l7.222 3.838-7.222 3.558zm-23.0576-7.3955v7.396l-7.222-3.838 7.222-3.558z"/>
    <path fill="#110f0d" d="M155.0803 45.7031c1.211 0 1.959-.521 2.67-1.354.259.243.539.459.838.643.751.461 1.581.696 2.41.699l11.238.001-.748-1.155 14.133.011 1.286-2.182 1.163 2.159 9.38-.006 2.329-1.795v1.795h17.658v-8.295h-16.295l-2.369 1.809v-1.81l-13.2.001v-.005l-.898 1.431c-.724-.801-2.02-1.427-4.145-1.427l-12.929-.006-.184-1.168h-4.532l.104.642c-.046-.027-.089-.059-.135-.086-1.044-.642-2.243-.853-3.374-.597-.867.197-1.618.651-2.204 1.279-.761-.738-1.786-1.223-2.763-1.223l-22.245-.015-.357 1.996-.913-1.996h-3.709c-1.169-.196-2.346-.025-3.392.502-1.45.728-2.406 2.05-2.557 3.534-.251 2.47.711 4.438 2.781 5.698 1.988 1.213 4.1 1.449 6.277.707l.4-.139.153.341h4.156l.314-1.854.614 1.854 19.045.011"/>
    <path fill="#fff" d="M180.2888 38.9375h-1.492v2.971h2.102c1.136 0 1.666-.453 1.666-1.423 0-1.155-.575-1.548-2.276-1.548m10.361 4.217h-1.715l-.046-.083-1.964-3.509-2.084 3.512-.047.08h-1.842l.15-.244.355-.575c-.567.531-1.439.819-2.571.819h-3.706v-4.562l-2.746 4.479-.046.077h-1.42l-.046-.078-3.125-5.176-.146-.242h1.228v-.002h2.73v1.216h-1.607l1.608 2.85 2.27-3.982.047-.082h1.83l-.003.006h2.808c2.422 0 3.654.931 3.654 2.765 0 .319-.043.614-.124.881l2.197-3.57.049-.076h1.071l.047.08 3.051 5.174.143.242m10.6991-.0003h-.164v-3.27l-4.203 3.237-.044.033h-1.101v-4.564l-2.751 4.484-.048.077h-1.416l-.048-.079-3.124-5.175-.146-.243h1.664l.005.006h2.292v1.216h-1.606l1.605 2.842 2.269-3.982.046-.082h1.83l-.001.004h.925v3.314l4.186-3.281.044-.033h1.1v5.496h-1.314zm6.6123-.0019h-3.275c-1.152 0-1.539-.349-1.539-1.387v-2.723c0-1.033.387-1.384 1.539-1.384h3.275c1.152 0 1.541.351 1.541 1.384v.772h-.164l-1.289.004h-.165v-.846h-3.123v2.902h3.123v-.763h.165l1.288-.008h.165v.662c0 1.051-.374 1.387-1.541 1.387m7.9365-4.2148h-4.253v.965h2.538v1.213h-2.538v.794h4.356v1.243h-5.974v-5.494h6.037v1.279h-.166zm-84.1103 1.414l.692 1.523.301-1.523h-.993zm9.542 3.975l-1.856-4.297-.803 4.297h-1.62l-2.094-6.34-1.073 6.34h-2.023l-3.059-6.83.456 2.855h-3.041l-.232-1.471h1.27l-.145-.787c-.729-.283-1.967-.178-2.494.752-.335.592-.646 1.909.763 3.117 1.147.987 3.132 1.163 4.279.645 0 0 .146.824.255 1.593-2.203.754-3.915.126-5.061-.573-1.562-.95-2.313-2.399-2.113-4.368.232-2.285 3.242-3.725 5.79-2.275.024.013.042.023.059.034l-.241-.536h1.711l1.076 2.348h1.893l.418-2.348h2.787l1.42 4.389.91-4.389h1.093l2.132 4.854.216-4.854h1.64l-.346 7.844h-1.967m2.4399-7.8441h4.571l.273 1.686h-2.86l.227 1.396h2.487l.273 1.682h-2.513l.219 1.396h2.858l.273 1.684h-4.533l-1.275-7.844zm22.3237 5.2832l-1.02 2.561h-1.876l1.93-4.135-.593-3.709h1.639l.502 3.277 2.95 4.567h-1.912l-1.62-2.561z"/>
    <path fill="#fff" d="M162.2664 39.6503c-.444-1.307-1.505-2.055-2.373-1.673-.864.38-1.21 1.747-.767 3.052.441 1.305 1.503 2.053 2.37 1.671.868-.38 1.211-1.747.77-3.05m-.642 4.607c-1.815.413-3.701-1.009-4.209-3.177-.509-2.168.55-4.26 2.367-4.673 1.815-.413 3.7 1.01 4.209 3.179.509 2.168-.552 4.259-2.367 4.671"/>
    <path fill="#fff" d="M154.367 41.1718h-1.138l.252 1.457h1.066c1.156 0 .922-1.457-.18-1.457m-.199-3.162h-1.446l.254 1.563h1.373c1.301 0 1.265-1.563-.181-1.563m.957 6.271c-.885.015-3.072 0-3.072 0h.018l-1.264-7.781h3.686c1.518 0 3.738 2.2 1.717 3.996 2.077 2.115.019 3.768-1.085 3.785"/>
    <path fill="#131210" stroke="#131210" stroke-width=".69599998" stroke-miterlimit="10" d="M241.955 55.688H93.691V155.69h148.264V55.688z"/>
  </g>
  <g clip-path="url(#b)" transform="matrix(0.87215309,0,0,-0.87215309,326.56887,167.55632)">
    <path fill="#9f9f9e" d="M4.9375 4.166v88.507h5.475V0h-1.308c-2.301 0-4.167 1.866-4.167 4.166v88.507M193.916 4.166v88.507h-5.474V0h1.308c2.303 0 4.166 1.866 4.166 4.166v88.507"/>
    <path fill="#bbbbb9" d="M99.4277 0h89.015v92.673h10.412v17.165c0 2.95-2.393 5.343-5.345 5.343H5.3437c-2.951 0-5.344-2.393-5.344-5.343V92.673h10.412V0h89.016z"/>
    <path fill="#9f9f9e" d="M84.3974 9.4893h30.06l-15.714-6.641-14.346 6.641zm15.0303 105.6914h94.082c2.952 0 5.345-2.393 5.345-5.343v-17.165h-5.445v16.527H5.4457v-16.527h-5.446v17.165c0 2.95 2.393 5.343 5.344 5.343h94.084zm74.669-99.4571c0-1.512-1.226-2.736-2.737-2.736H27.4957c-1.511 0-2.737 1.224-2.737 2.736v72.387c0 1.513 1.226 2.738 2.737 2.738h143.864c1.511 0 2.737-1.225 2.737-2.738v-72.387z"/>
    <path fill="#9f9f9e" d="M160.3301 99.0449c-18.02 6.388-41.191 8.212-61.491 8.212-20.302 0-43.472-1.824-61.491-8.212 0 0 24.214.312 61.491.312 37.275 0 61.491-.312 61.491-.312"/>
    <path fill="#9f9f9e" d="M86.3906 102.4209c1.141 0 1.846-.47 2.515-1.221.245.219.508.413.791.58.708.416 1.489.628 2.27.631l10.59.001-.705-1.043 13.318.01 1.211-1.968 1.097 1.948 8.84-.005 2.194-1.621v1.621h16.639v-7.488h-15.356l-2.232 1.633v-1.635l-12.438.002v-.004l-.845 1.291c-.684-.722-1.905-1.289-3.909-1.289l-12.181-.004-.174-1.054h-4.269l.097.582c-.043-.027-.084-.055-.127-.08-.984-.579-2.115-.77-3.18-.538-.818.177-1.525.587-2.078 1.154-.715-.667-1.683-1.105-2.603-1.105l-20.963-.013-.336 1.803-.86-1.803h-3.495c-1.102-.176-2.211-.022-3.196.453-1.367.657-2.267 1.851-2.41 3.191-.236 2.227.67 4.006 2.62 5.142 1.874 1.094 3.864 1.308 5.915.638l.378-.125.144.307h3.916l.297-1.675.578 1.675 17.947.009"/>
    <path fill="#bbbbb9" d="M110.1445 96.3164h-1.406v2.681h1.98c1.072 0 1.571-.41 1.571-1.286 0-1.041-.541-1.395-2.145-1.395m9.764 3.806h-1.616l-.043-.076-1.851-3.167-1.963 3.169-.045.074h-1.736l.141-.222.335-.519c-.535.48-1.357.741-2.424.741h-3.491v-4.118l-2.588 4.042-.044.07h-1.336l-.044-.071-2.945-4.671-.137-.219h1.156v-.002h2.572v1.098h-1.513l1.515 2.572 2.14-3.594.044-.074h1.723l-.003.005h2.647c2.281 0 3.443.841 3.443 2.497 0 .287-.041.553-.116.795l2.07-3.221.046-.071h1.008l.047.073 2.874 4.67.134.219m10.0827-.0003h-.155v-2.951l-3.961 2.92-.041.031h-1.037v-4.121l-2.592 4.048-.047.071h-1.334l-.045-.072-2.944-4.671-.138-.218h1.569l.003.004h2.16v1.098h-1.512l1.512 2.566 2.139-3.596.043-.072h1.725l-.002.001h.873v2.992l3.944-2.961.042-.031h1.035v4.962h-1.237zm6.2295-.002h-3.086c-1.084 0-1.449-.314-1.449-1.252v-2.459c0-.931.365-1.248 1.449-1.248h3.086c1.087 0 1.453.317 1.453 1.248v.698h-.154l-1.215.003h-.155v-.763h-2.944v2.619h2.944v-.688h.155l1.214-.008h.155v.598c0 .947-.353 1.252-1.453 1.252m7.4805-3.8037h-4.009v.87h2.392v1.094h-2.392v.717h4.107v1.123h-5.63v-4.96h5.688v1.156h-.156zm-79.2598 1.2754l.651 1.374.284-1.374h-.935zm8.99 3.587l-1.749-3.877-.755 3.877h-1.528l-1.973-5.721-1.01 5.721h-1.907l-2.882-6.164.429 2.577h-2.865l-.22-1.327h1.197l-.135-.709c-.689-.258-1.856-.162-2.352.678-.315.533-.608 1.722.721 2.813 1.08.889 2.949 1.048 4.031.581 0 0 .137.744.24 1.438-2.076.68-3.689.113-4.769-.517-1.471-.858-2.18-2.165-1.99-3.942.217-2.064 3.054-3.362 5.455-2.053.022.012.039.02.055.03l-.225-.483h1.611l1.014 2.117h1.783l.395-2.117h2.625l1.338 3.959.859-3.959h1.029l2.009 4.38.204-4.38h1.545l-.326 7.078h-1.854m2.3-7.0782h4.308l.258 1.52h-2.696l.213 1.261h2.344l.258 1.518h-2.368l.206 1.261h2.693l.258 1.518h-4.273l-1.201-7.078zm21.0362 4.7676l-.961 2.311h-1.768l1.819-3.733-.559-3.346h1.544l.474 2.957 2.78 4.122h-1.802l-1.527-2.311z"/>
    <path fill="#bbbbb9" d="M93.1611 96.958c-.417-1.18-1.417-1.855-2.235-1.51-.815.346-1.14 1.578-.723 2.756.416 1.177 1.416 1.854 2.233 1.508.818-.343 1.142-1.576.725-2.754m-.605 4.16c-1.709.371-3.487-.911-3.966-2.869-.48-1.957.519-3.844 2.231-4.217 1.71-.373 3.488.912 3.967 2.868.478 1.957-.52 3.845-2.232 4.218"/>
    <path fill="#bbbbb9" d="M85.7178 98.332h-1.073l.238 1.316h1.005c1.09 0 .869-1.316-.17-1.316m-.187-2.854h-1.363l.239 1.412h1.294c1.226 0 1.192-1.412-.17-1.412m.902 5.66c-.834.014-2.896 0-2.896 0h.019l-1.193-7.024h3.473c1.432 0 3.524 1.987 1.619 3.61 1.958 1.908.018 3.398-1.022 3.414"/>
  </g>
  <path fill="#d40000" d="M422.65732 149.49168zm0-1.33328zm0-1.31233zm0 .65616zm0 2.64563zm0-1.33329zm0-2.62467z"/>
</svg>
