<svg id="Calque_2" data-name="Calque 2" xmlns="http://www.w3.org/2000/svg" viewBox="0 0 1000 114"><title>logo</title><path d="M451.47714,68.381h.005m-.005,0c-.086.757-.17141,1.5114-.24161,2.132.0703-.6213.1557-1.3765.2411-2.13181l.00051-.00019m-.00861-7.0007a6.99486,6.99486,0,0,0-6.9565,6.2972l-.20289,1.7904-.02921.2579a7,7,0,1,0,13.91121,1.57439l.01829-.162.1989-1.75439a7.00626,7.00626,0,0,0-6.648-7.9974q-.14655-.00615-.2918-.0061Zm.00861,14.0007h0Z" fill="#fff"/><path d="M418.58473,89.8523v0m0-6.9989a6.99905,6.99905,0,0,0-7,6.9989v.0022a7,7,0,1,0,7-7.0011Z" fill="#fff"/><path d="M470.56233,110.50019c-3.5654,0-8.5068-.66209-11.3437-6.10749-7.6026,5.5069-16.26949,6.02249-23.959,6.02249l-.5996-.001q-13.86615-.05414-27.7324-.04779-11.8755,0-23.751.0166-10.155.0117-20.3101.0166h-4.8676a3.50011,3.50011,0,0,1-2.9576-5.3721l22.6841-35.8447a32.37947,32.37947,0,0,1-18.1792-21.1533c-2.6513-10.0899-.0635-20.73931,7.1001-29.2198,8.5821-10.1582,19.1973-15.30951,31.55181-15.30951A50.28974,50.28974,0,0,1,410.60923,5.1418c.3115.0791.6211.1631.9277.247a10.96276,10.96276,0,0,0,2.4903.4991,1.59172,1.59172,0,0,0,.9961-.3086,3.50155,3.50155,0,0,1,1.9707-.6075c.0527,0,.1064.001.1592.004q2.2485.10245,4.497.18939c3.8213.15531,7.7715.31641,11.6768.60061a21.1912,21.1912,0,0,1,4.53511.9785c.52349.1563,1.04689.3135,1.57229.4443a3.47584,3.47584,0,0,1,.958.3995,3.50257,3.50257,0,0,1,3.1494-1.9727l13.0967.0117q41.74365.0366,83.4854.0479h6.3974c.1299-.0352.3819-.128.5713-.1992.3418-.126.6846-.25,1.0264-.3497a3.48161,3.48161,0,0,1,.6074-.1191,16.98547,16.98547,0,0,1,1.7705-.0947c5.5869,0,9.6211,2.8301,12.92379,6.0371,4.31742-2.9981,9.2159-5.9961,15.3897-5.9961q.6255,0,1.2666.042a3.4275,3.4275,0,0,1,.3887.04689c.4775.08591.956.19331,1.4326.30171a10.21476,10.21476,0,0,0,1.9697.3301q12.55668.03375,25.1113.0293,13.74765.00584,27.4942.0361a20.06234,20.06234,0,0,1,4.0009.5235c.4639.0947.9278.1904,1.3916.2646a3.50123,3.50123,0,0,1,2.419,5.3008c-1.793,2.8906-3.5801,5.8711-5.3086,8.75389-4.0527,6.75981-8.2441,13.75-12.9316,20.30761-3.377,4.7236-3.9493,9.9082-4.6104,15.9121-.0684.61429-.1367,1.2354-.209,1.86229h19.0049a3.50051,3.50051,0,0,1,3.5,3.5V106.881a3.50051,3.50051,0,0,1-3.5,3.5s-17.2686-.0049-23.7441-.00881q-9.70905-.00719-19.42-.00969c-11.1816,0-25.9462.01169-41.00479.1054l-.1739.001a16.79618,16.79618,0,0,1-11.8906-4.289c-.8633-.7725-1.7646-1.5088-2.7266-2.2608v2.9619a3.50044,3.50044,0,0,1-3.5,3.5h-4.3086q-8.22795,0-16.455-.0205-8.22225-.01455-16.4424-.0195c-11.877,0-21.0215.0478-29.6494.15719ZM457.14143,77.3068a3.498,3.498,0,0,1,1.3955.29,9.302,9.302,0,0,1,4.36721,3.9629q2.16794,3.57135,4.30959,7.1573,1.6977,2.83155,3.4023,5.6601c.5782.95509,1.168,1.2959,1.5284,1.2959.4716,0,1.09271-.542,1.58-1.3799q6.4131-11.02725,12.7715-22.08591l.5039-.874c-.05469-.001-.1084-.002-.1601-.002-1.0664,0-1.1299,0-3.5684,4.42391L475.494,89.8683a3.49949,3.49949,0,0,1-3.0215,1.8106h-.044a3.49858,3.49858,0,0,1-3.02239-1.7354c-.85741-1.4677-1.751-2.8926-2.61431-4.2705a63.93629,63.93629,0,0,1-5.2705-9.5596c-1.74019-4.2197-4.0244-4.8007-6.2334-4.8007q-.31485,0-.6504.01949a3.498,3.498,0,0,1-4.60839,2.46581c-4.52051-1.6592-9.42091-2.3994-15.88961-2.3994-2.7676,0-5.6162.1309-8.3721.2568-1.4336.0664-2.8974.13379-4.3691.1836a2.85519,2.85519,0,0,0-.0928.6661q.0513,1.8369.1377,3.6787c.1094,2.3652.25191,4.7295.3935,7.0937q.12465,2.0493.2403,4.0986c.0039.0645.0058.1299.0058.1944l.002,2.17869a3.59036,3.59036,0,0,1-3.377,3.60161s-1.8281.0585-1.8652.0585a3.50284,3.50284,0,0,1-2.97849-1.66111l-3.77051-6.10349q-4.04745-6.5508-8.0869-13.10551a2.98272,2.98272,0,0,0-2.5469-1.25879,2.74816,2.74816,0,0,0-2.34769,1.1475c-4.50581,7.5547-9.04291,15.2559-13.45311,22.7471h5.08111a3.4993,3.4993,0,0,1-1.53181-4.8506l8.8535-15.9141a3.499,3.499,0,0,1,3.0445-1.7988h.0141a3.49925,3.49925,0,0,1,3.0445,1.7734q1.5219,2.68515,2.9873,5.2842c2.9492,5.2236,5.7344,10.1572,8.622,15.0625a3.161,3.161,0,0,0,.5225.6318c1.3877-.0078,2.7852-.0126,4.1826-.0175,8.4287-.0283,17.1436-.0576,25.6045-.7119,5.7197-.4414,9.2071-3.7247,9.8194-9.2442a13.74823,13.74823,0,0,0-.1094-2.6621c-.0576-.5752-.1143-1.1504-.1465-1.7236a3.49869,3.49869,0,0,1,3.4941-3.6973Zm67.7832,16.1729a3.495,3.495,0,0,1-.64449,2.0244c.59569-.00391,2.05469-.0166,2.18359-.0176V80.3371a3.49964,3.49964,0,0,1,5.6855-2.7334c2.0674,1.6523,4.1006,3.2578,6.1045,4.8389,4.9102,3.8769,9.5479,7.538,14.1075,11.4365a5.658,5.658,0,0,0,2.9238,1.4677V71.7756h-.9268V85.9601a3.49938,3.49938,0,0,1-5.4853,2.8819c-.6084-.419-1.127-.7666-1.585-1.0743-.8935-.5996-1.5986-1.0732-2.3076-1.625q-2.16645-1.6875-4.3477-3.3584c-4.081-3.1386-8.3007-6.3847-12.3242-9.79a5.26133,5.26133,0,0,0-3.3838-1.4287Zm-8.0673,1.9082c.54.02829,1.0957.0517,1.6796.06929-.038-.05569-.0752-.11429-.1113-.17289l-4.3633-7.2617c-3.3349-5.5537-6.4619-10.7607-9.6191-15.9492a2.76084,2.76084,0,0,0-2.1895-.7656,2.87653,2.87653,0,0,0-2.3105.834c-4.1445,6.9668-8.501,14.3427-13.5889,23.0049h5.0996a3.49986,3.49986,0,0,1-1.50679-4.8233l8.77539-15.917a3.49879,3.49879,0,0,1,3.0498-1.8096h.0146a3.49961,3.49961,0,0,1,3.0508,1.7842q1.54245,2.74365,3.02741,5.3985c2.85449,5.0966,5.55079,9.9111,8.33689,14.707A5.38771,5.38771,0,0,0,516.85733,95.3879ZM629.201,95.1467v-.1368h-20.5146a3.50038,3.50038,0,0,1-3.5-3.5V86.0558a3.50266,3.50266,0,0,1,2.6015-3.3838,3.5013,3.5013,0,0,1-2.5556-3.3711V74.95519a3.50085,3.50085,0,0,1,2.0673-3.19429h-3.8193V95.1467Zm-48.8916-23.501c-4.3828,0-8.77728.0859-12.874.1787-1.1465.0264-1.86328.3701-1.8936,2.001-.1181,6.416-.1103,12.9472.0235,19.4121.0293,1.4394.6357,1.7343,1.67282,1.7568,3.94628.085,8.05368.12889,12.208.12889,3.79588,0,7.75778-.03609,11.77538-.10739.6924-.0127,1.64062-.0293,1.8858-2.3789a19.00059,19.00059,0,0,0,.0839-2.1133h-2.0195l-.081.9414a3.50053,3.50053,0,0,1-3.4873,3.20019H570.911a3.5005,3.5005,0,0,1-3.5-3.5V75.4103a3.50051,3.50051,0,0,1,3.5-3.5h16.6513a3.49933,3.49933,0,0,1,3.4727,3.0664l.0859.6846h2.0117c.043-2.3496-.413-3.1328-.5937-3.3486a2.39855,2.39855,0,0,0-1.5645-.46C587.69614,71.7131,584.20692,71.6457,580.30942,71.6457Zm.7725-52.3506a14.13855,14.13855,0,0,0-8.1836,2.7969,22.29274,22.29274,0,0,0-7.8301,24.7168c2.123,6.3906,6.9766,10.3603,12.668,10.3603a15.14807,15.14807,0,0,0,10.6543-4.9433c4.0263-4.1065,5.9609-9.3291,6.4238-17.39161-.125-.44829-.2559-.95509-.3965-1.50489a34.83926,34.83926,0,0,0-2.1631-6.5313C589.93642,22.0295,585.86414,19.2951,581.08192,19.2951Zm-182.169-1.0088c-8.1313,0-16.0747,3.54689-20.7304,9.25589A19.597,19.597,0,0,0,374.119,44.7765a15.41984,15.41984,0,0,0,9.47311,10.7305,18.178,18.178,0,0,0,6.62449,1.2607,22.37856,22.37856,0,0,0,9.295-2.2001,3.49786,3.49786,0,0,1,3.9047.67959,13.86914,13.86914,0,0,1,.9703,1.07621c.0234.0293.0468.0576.0703.0859a11.42579,11.42579,0,0,0,2.0605.2364c1.0391-.001,1.7246-.001,3.30371-3.4698.26369-.581.51269-1.1718.76079-1.76171a34.18058,34.18058,0,0,1,2.164-4.497,7.74046,7.74046,0,0,1,5.3965-3.626c1.1631-.11039,2.419-.16209,3.9541-.16209.81061,0,1.626.0146,2.4463.0283.79.0137,1.585.0273,2.3857.0273a3.499,3.499,0,0,1,3.4375,2.8428l1.9356,10.1192h9.7148l6.6768-20.712a3.49946,3.49946,0,0,1,3.3291-2.4267c.09281,0,.1865.0039.2803.0107l.64551.0508a3.50012,3.50012,0,0,1,3.164,2.7773l4.27349,20.5381c.0439.002.0879.003.1299.003.6113,0,1.0947,0,1.5068-1.8291a10.53742,10.53742,0,0,1,.8496-2.2647c.0781-.1631.1553-.3252.2266-.4883l8.4424-19.4052a3.49437,3.49437,0,0,1,4.3828-1.90041l.5429.19141a3.50026,3.50026,0,0,1,2.3379,3.13959l1.0352,22.18461h1.9062l-1.5615-36.5508c-.36429.0088-.7236.0147-1.0781.0147a20.561,20.561,0,0,1-2.9824-.18951,4.39024,4.39024,0,0,0-.6055-.04879,1.10543,1.10543,0,0,0-.3867.0439c-.003.002-.3145.1963-.8223,1.502-1.8096,4.6543-3.792,9.2373-5.8906,14.0898-.874,2.0205-1.7715,4.0967-2.6914,6.2578a3.50166,3.50166,0,0,1-3.2188,2.1289,3.57862,3.57862,0,0,1-.3818-.0205,3.50166,3.50166,0,0,1-3.0606-2.8359l-3.9306-21.0176a17.163,17.163,0,0,0-2.5938-.2978,2.64055,2.64055,0,0,0-.46769.03219,21.52441,21.52441,0,0,0-1.71391,4.26271c-.1543.4668-.2959.9404-.4375,1.414-.1514.503-.3018,1.0049-.4649,1.504-1.92569,5.8906-8.0146,24.48729-8.0146,24.48729a3.5,3.5,0,0,1-3.3242,2.41111,3.61008,3.61008,0,0,1-.3828-.0205l-.7774-.084a3.49947,3.49947,0,0,1-3.0693-2.89361l-5.2227-30.76069c-.54.01469-1.0644.0254-1.5761.0254a22.7081,22.7081,0,0,1-2.9424-.166,4.743,4.743,0,0,0-.6045-.044c-.4844,0-.7276,0-1.3731,1.5528-3.0273,7.2861-6.2871,14.5947-9.4384,21.6621q-1.4502,3.2505-2.8936,6.5019c-.4043.9121-.8594,1.7344-1.2998,2.5303-.1797.32419-.3604.6484-.5332.9766a3.4962,3.4962,0,0,1-4.6939,1.47559l-.73869-.38089a3.49951,3.49951,0,0,1-1.84621-3.6572l1.2729-8.00391h-9.4961l-.1347,1.039h2.6743A3.4998,3.4998,0,0,1,398.512,46.924l-.5498,4.07619a3.4997,3.4997,0,0,1-2.8833,2.98241l-.4716.081a34.925,34.925,0,0,1-5.8663.6631,11.57792,11.57792,0,0,1-9.89689-4.8291,15.56654,15.56654,0,0,1-1.708-16.2343,20.66126,20.66126,0,0,1,16.51509-12.4307,41.79412,41.79412,0,0,1,5.918-.3633c1.5136,0,3.0508.0508,4.5381.1006.4882.0156.9814.0322,1.4785.0469l.23831-1.8369A26.51077,26.51077,0,0,0,398.91293,18.2863Zm137.3438,37.9463c2.3095,0,4.5908.0127,6.8711.0537l.3281.00289a11.859,11.859,0,0,0,11.2256-6.75489c1.2754-2.3652,1.8652-5.1962-2.4112-9.8642a3.50023,3.50023,0,0,1-.2851-4.3731c.3633-.5185.7324-1.0205,1.0976-1.5156a28.6997,28.6997,0,0,0,1.8409-2.6924,7.69832,7.69832,0,0,0,.0957-7.4609,7.21532,7.21532,0,0,0-5.9141-3.9063c-1.8584-.14161-3.86619-.207-6.3203-.207-1.7422,0-3.4971.0322-5.2715.0645q-1.31685.0249-2.64839.04489L529.08383,56.2551q.8628-.0045,1.7178-.00791C532.64633,56.2394,534.46083,56.2326,536.25673,56.2326Zm-27.97459-.1856.34179-2.0742h-11.5235a3.4997,3.4997,0,0,1-3.457-4.0459l1.2803-8.1113a3.49936,3.49936,0,0,1,3.457-2.9541h10.623l.3272-2.3252h-9.6416a3.49982,3.49982,0,0,1-3.46-4.0273l1.1953-7.8487a3.49985,3.49985,0,0,1,3.46-2.9736h12.7061l.3037-2.1416h-17.7735l-5.7881,36.5019Zm98.15818-.0546c1.1347-9.53421,2.7763-18.753,9.3007-26.8907a83.44985,83.44985,0,0,0,6.3702-9.749c.0088-.0156.0175-.0312.0273-.0469a7.03322,7.03322,0,0,0-.8105-.0517c-1.00788,0-1.8545.1523-2.8047,2.0595a70.00588,70.00588,0,0,1-4.2774,7.1397c-.6211.9482-1.2431,1.8975-1.8427,2.8584a3.4992,3.4992,0,0,1-4.8106,1.125c-.0732-.0449-.1396-.0762-.1943-.10451a4.058,4.058,0,0,1-2.0479-2.07619c-.584-1.4121-1.1426-2.833-1.7021-4.2549l-.4473-1.1357c-2.2412-5.6768-2.2412-5.6768-3.9414-5.6768-.2148,0-.4453.0049-.6934.0147q.2433.5229.4873,1.04489c2.1055,4.50391,4.2823,9.16111,6.2207,13.86921a19.16486,19.16486,0,0,1,1.2432,8.9404c-.4101,4.0635-1.0889,8.1396-1.7451,12.083q-.07035.4248-.1416.8516Z" fill="#2307cb"/><path d="M398.199,7.0001a46.62335,46.62335,0,0,1,11.5434,1.5318,17.96851,17.96851,0,0,0,4.2855.85529,5.08693,5.08693,0,0,0,2.9663-.91559c5.3606.2445,10.7281.3944,16.0781.785a33.50542,33.50542,0,0,1,5.5116,1.3273c.5056,2.2131,1.01121,4.4262,1.6817,7.3612,1.2472-3.361,2.2618-6.0954,3.27651-8.8298q47.99053.04155,95.97649.0598,3.5517,0,7.1076-.0006a9.55667,9.55667,0,0,0,2.4691-.6866,13.27883,13.27883,0,0,1,1.40181-.0754c5.252.0002,8.92639,3.2706,12.49168,7.118,4.889-3.4291,9.6299-7.0767,15.8208-7.0767q.5133,0,1.0403.034a23.77824,23.77824,0,0,0,4.01.6865c17.534.0467,35.0683.0107,52.6023.065a31.91787,31.91787,0,0,1,4.8478.7441c-5.9885,9.65879-11.5184,19.6454-18.1131,28.8709-5.1063,7.1432-4.6547,15.0576-5.9707,23.3101h23.0036v44.7165h-4.3174q-19.4052,0-38.8087-.0185-20.53125,0-41.06389.1059c-.0501.0003-.09969.0005-.1496.0005a13.28923,13.28923,0,0,1-9.5576-3.395c-2.5209-2.25861-5.3229-4.2034-8.5626-6.7237v10.031h-4.3081c-10.9682,0-21.9332-.0402-32.9015-.0402-9.896,0-19.7954.0327-29.6899.1572-.1035.0013-.2055.002-.3073.002-4.2292,0-7.0045-1.14691-8.653-5.109a17.58193,17.58193,0,0,0-1.8744-2.7542c-7.0648,6.8844-15.7439,7.779-24.7852,7.779-.1916,0-.3846-.0004-.57649-.0011q-13.88687-.05491-27.77341-.0481-22.01715,0-44.0354.0326c-.4557.0001-.9113.0002-1.3954.0002-.9681,0-2.0497-.0002-3.4711-.0002,8.4708-13.3854,16.5615-26.1702,24.6674-38.97911-.4675-.42039-.69909-.77639-1.0188-.89489-19.6796-7.3026-25.9624-29.8157-12.32729-45.9564,7.96049-9.4234,17.73009-14.0696,28.87889-14.0688m-7.9832,53.2679a25.81108,25.81108,0,0,0,10.75331-2.5189c.799.7817,1.33739,1.7826,2.05979,1.94009a16.72421,16.72421,0,0,0,3.4888.45581c3.1005,0,4.6937-1.57381,6.489-5.52a56.80619,56.80619,0,0,1,2.7378-5.9016,4.27627,4.27627,0,0,1,2.7302-1.9474c1.2023-.1141,2.4118-.1464,3.6319-.1463,1.5884,0,3.1944.0547,4.8223.0547.8661,4.528,1.6721,8.74179,2.4794,12.9622h15.1573q3.7422-11.6085,7.4591-23.13841.33015.026.6605.05181c1.5941,7.6618,3.188,15.3236,4.74491,22.8063a10.92975,10.92975,0,0,0,3.08619.5212c2.536,0,4.204-1.3809,4.9205-4.5599a12.40992,12.40992,0,0,1,.8714-2.126q4.21815-9.70335,8.4418-19.40441l.5582.19731q.5952,12.75825,1.1908,25.5212h8.8995c-.6258-14.6494-1.2399-29.0253-1.8638-43.6306-1.6009,0-3.0527.0947-4.4288.0947a17.29376,17.29376,0,0,1-2.4815-.1532,7.757,7.757,0,0,0-1.1065-.08541c-2.3635,0-3.5234,1.34431-4.46979,3.77771-2.53331,6.5137-5.412,12.8929-8.54161,20.2445-1.58739-8.4866-2.9871-15.9693-4.3723-23.3749a32.59563,32.59563,0,0,0-5.5926-.7966c-3.0842,0-3.8401,1.6601-5.5044,6.6962-.3206.9704-.5888,1.9582-.9063,2.9298q-4.00215,12.2442-8.0142,24.4851-.38835-.04155-.7767-.0832c-1.9047-11.2173-3.8094-22.43461-5.7282-33.7349-1.663,0-3.1352.0845-4.52.0845a19.45217,19.45217,0,0,1-2.4963-.1374,8.26674,8.26674,0,0,0-1.0519-.0722c-2.3502,0-3.5766,1.2376-4.6039,3.7093-3.9224,9.4372-8.1599,18.7436-12.3008,28.0895-.5004,1.12959-1.148,2.1939-1.7274,3.28859q-.36405-.18808-.728-.37589c.6273-3.9452,1.2547-7.8904,1.9167-12.0539h-16.6718c-.3485,2.6871-.6664,5.1392-1.0425,8.0392h6.6575c-.2227,1.6503-.38729,2.8695-.55,4.0755a35.42136,35.42136,0,0,1-5.7524.6942,8.1576,8.1576,0,0,1-7.0916-3.4218,12.03542,12.03542,0,0,1-1.3156-12.718,17.1575,17.1575,0,0,1,13.8059-10.38831,38.85447,38.85447,0,0,1,5.4292-.32889c2.9506,0,5.97421.2,9.0845.2.3222-2.4772.6758-5.1964,1.0149-7.8038a29.52357,29.52357,0,0,0-10.755-1.9792c-8.9987,0-17.9846,3.84989-23.44319,10.5434-9.50851,11.6602-6.11441,28.3849,6.85089,33.4384a21.56957,21.56957,0,0,0,7.8948,1.4999m210.30231-.7755h8.929c.163-1.0108.312-1.7565.40008-2.5092,1.0716-9.16411,2.5213-18.081,8.6247-25.6924,3.6196-4.5139,6.2915-9.7878,9.8213-15.4075-1.4956,0-2.69.0662-3.7595.0662a14.12052,14.12052,0,0,1-1.8359-.1012,10.61684,10.61684,0,0,0-1.3689-.09421c-2.6809,0-4.5523,1.21481-5.9384,4-1.6842,3.384-3.9461,6.48051-5.9576,9.70621-.4529-.2805-.7726-.3613-.848-.5434-.73278-1.7693-1.425-3.5555-2.1285-5.3371-2.5116-6.3613-3.1148-7.8916-7.197-7.8916-1.293,0-2.9358.1537-5.0976.356a4.73316,4.73316,0,0,0-.7655.3322c2.9103,6.3442,5.9854,12.6228,8.6419,19.07369a15.645,15.645,0,0,1,.9965,7.25661c-.5623,5.5671-1.62858,11.0832-2.51658,16.7857m-22.78252,1.1769c4.4841,0,9.16652-1.9275,13.1539-5.9939,4.9891-5.0878,7.0271-11.4149,7.4511-20.2508-.61148-1.9686-1.3026-5.7924-2.9384-9.1571-3.0039-6.179-8.4713-9.4733-14.3204-9.4729a17.594,17.594,0,0,0-10.2162,3.4486,25.74288,25.74288,0,0,0-9.11879,28.669c2.74139,8.253,9.13359,12.7571,15.98879,12.7571m-52.74959-.906c3.8966,0,7.6062-.03121,11.2435-.03121,2.2977,0,4.5671.01251,6.8352.05311.1311.0024.2606.0035.3903.0035,6.4913,0,11.2625-2.9459,14.3078-8.5944,2.8698-5.3228.77731-9.8621-2.9118-13.8881,1.0866-1.5505,2.2329-2.9412,3.1129-4.4838,3.9869-6.9884-.5245-15.9787-8.5939-16.591-2.1811-.1654-4.3707-.2165-6.5816-.2165-3.5665,0-7.18829.1329-10.9172.1329-2.2952,14.5394-4.5565,28.8644-6.8852,43.6155m-38.7515-.2159H511.252c.4956-3.0045.9624-5.8344,1.4968-9.0746h-15.6485c.4529-2.8692.83981-5.3198,1.2805-8.1115h13.6654c.4527-3.2209.8516-6.0594,1.3106-9.3255h-13.6674c.4204-2.75971.779-5.115,1.1954-7.8493h15.74531c.45939-3.242.862-6.0836,1.29519-9.1411h-24.7939c-2.3318,14.7076-4.6025,29.03-6.8969,43.502m-108.416,39.12769H398.95V92.0254h-8.6832c3.0621-5.5039,5.8075-10.4385,8.8537-15.9139,4.0543,7.1504,7.7659,13.8198,11.6367,20.3954.6108,1.0375,1.9418,2.35929,2.9351,2.35929h.0066c10.2224-.06079,20.4751.04381,30.65421-.74259,7.707-.5955,12.26649-5.4785,13.02849-12.3482a30.31669,30.31669,0,0,0-.2406-4.9686,5.78424,5.78424,0,0,1,2.7716,2.5707c2.5863,4.2598,5.1308,8.5451,7.7088,12.81a5.43222,5.43222,0,0,0,4.5229,2.9853c1.6979,0,3.3962-1.0411,4.6055-3.1203q6.9375-11.928,13.8131-23.8921c.6755-1.1715,1.2875-2.3796,1.9969-3.6969a45.344,45.344,0,0,0-5.7199-.6318c-3.1949.0003-3.9886,1.4351-6.6337,6.2338-2.4957,4.52769-4.9907,9.0558-7.7778,14.1134-2.8047-4.8032-5.8025-8.8692-7.6716-13.4008-2.0302-4.9222-5.1614-6.9657-9.4692-6.9657a17.38185,17.38185,0,0,0-3.0937.302,4.1778,4.1778,0,0,0-.7165.2642l-.00029.0023-.00051.00029c-.0854.75531-.1708,1.51051-.2411,2.13181a48.59844,48.59844,0,0,0-17.095-2.6146c-5.1557,0-10.3025.4286-15.4251.5083a17.65141,17.65141,0,0,0-.9084,4.194q.05145,1.87245.1402,3.744c.1726,3.7431.4278,7.4838.6353,11.2259q.0012,1.14089.0022,2.2817v.0022q-.871.0273-1.7422.0549-5.92875-9.60182-11.855-19.2053a6.42208,6.42208,0,0,0-5.5276-2.9236,6.12284,6.12284,0,0,0-5.3536,2.8546q-7.55775,12.67245-15.0169,25.4033c-.4829.8203-.8328,1.7189-1.2709,2.63679m102.9052-.02869h20.8695v-6.634h-8.581c3.0323-5.4999,5.775-10.4749,8.7747-15.9158,3.9733,7.066,7.6127,13.6464,11.389,20.1472.6301,1.0849,1.8114,2.5382,2.8135,2.6001,2.1349.132,4.2753.1669,6.4518.1669,2.4485,0,4.9425-.0442,7.52291-.0442V80.3373c7.062,5.6468,13.74369,10.7468,20.12139,16.2022a8.81939,8.81939,0,0,0,5.9499,2.3598,11.79743,11.79743,0,0,0,2.7496-.3537V68.2751h-7.9263V85.9603c-1.7499-1.205-2.779-1.8404-3.7277-2.57911-5.5477-4.31979-11.1981-8.52019-16.5614-13.05909a8.75169,8.75169,0,0,0-5.9319-2.26291,14.349,14.349,0,0,0-3.2129.409V93.4794c-5.0595-8.4079-9.4949-15.8355-13.99169-23.2258a5.96753,5.96753,0,0,0-5.17871-2.4458,6.10862,6.10862,0,0,0-5.3189,2.5452q-7.742,13.0134-15.3945,26.0798a12.5508,12.5508,0,0,0-.8173,2.2137m98.716-.0239q5.9223,0,11.8447-.1077c3.3556-.0594,4.977-2.3882,5.3045-5.5136a57.66384,57.66384,0,0,0,.0385-5.9782h-8.669c-.1307,1.5263-.2381,2.7799-.3548,4.14209h-16.6929V75.4101h16.6518c.1645,1.3214.3037,2.4389.4672,3.751h8.318c.9767-7.2318-.45958-10.6025-5.2241-10.8052-3.5997-.1532-7.2043-.2104-10.8111-.2104-4.319,0-8.6406.082-12.9565.1796-3.2342.0732-5.25169,2.1322-5.31269,5.4345q-.18045,9.77235.0225,19.5502a4.89831,4.89831,0,0,0,5.09689,5.1838q6.13695.13245,12.277.129m20.54042.02459h32.72128V91.5101h-24.0149V86.0558h13.6654V79.3014h-13.6194V74.9553h23.63262V68.2609h-32.385V98.64719M398.19943,0c-13.2434-.00081-25.0788,5.7226-34.2267,16.5516-7.90959,9.3632-10.7567,21.1607-7.8112,32.3675A35.44083,35.44083,0,0,0,372.738,70.5185l-.8384,1.3248-19.8159,31.3128a7,7,0,0,0,5.9151,10.7432l2.0669.0001,1.4042.0001,1.3971-.0002q10.252-.00255,20.5042-.01611,11.76495-.01243,23.5295-.01659c10.63241,0,19.4487.0153,27.7457.0481l.6042.0012c7.7442,0,15.7492-.6813,23.0083-4.7603,2.8646,3.2188,6.9833,4.8444,12.3043,4.8444.1313,0,.26291-.00081.3963-.0025,8.6112-.10831,17.7408-.1566,29.6009-.1566q8.22525,0,16.4488.0201,8.22586.015,16.4527.0201H537.77a6.99653,6.99653,0,0,0,6.0132-3.4144,20.43611,20.43611,0,0,0,12.107,3.5021l.1937-.00061c15.05629-.09379,29.83059-.10579,41.01979-.10579q9.7002,0,19.39942.0092,9.70437.007,19.40928.0093h4.3174a7,7,0,0,0,7-7V62.1644a7,7,0,0,0-7-7h-15.0899c.5604-4.8057,1.24822-8.7374,3.7515-12.2393,4.7736-6.6777,9.005-13.7351,13.0972-20.56,1.71852-2.8662,3.49552-5.8298,5.2708-8.6931a7.00013,7.00013,0,0,0-4.84028-10.6002c-.41632-.0668-.83232-.1537-1.24862-.2385a23.23953,23.23953,0,0,0-4.6866-.594c-9.1613-.0283-18.4712-.03211-27.4747-.0358q-12.56535-.0051-25.1306-.0292c-.1833-.011-.7732-.1452-1.2039-.2433-.472-.1073-1.007-.229-1.59158-.3337a6.99272,6.99272,0,0,0-.77692-.0946c-.4976-.03251-1.00108-.0489-1.4966-.0489-6.0874,0-10.8922,2.3588-15.0897,5.0731a20.13177,20.13177,0,0,0-13.22239-5.1144,20.36483,20.36483,0,0,0-2.14039.1145,6.99563,6.99563,0,0,0-1.213.2384c-.47791.1387-.89731.2921-1.21341.4092l-6.4121.0005c-28.15049,0-56.7717-.0252-84.45049-.0497l-11.51991-.0101h-.00609a6.99342,6.99342,0,0,0-4.21651,1.4124q-.2283-.0672-.4668-.1384a24.33118,24.33118,0,0,0-5.27669-1.11411c-3.953-.28869-7.92421-.44989-11.76451-.60589q-2.25255-.0915-4.5044-.1905-.15975-.0072-.31909-.0072a6.99833,6.99833,0,0,0-3.341.8488c-.34271-.0773-.81761-.2064-1.19741-.3097-.3242-.0881-.65059-.1766-.97959-.2607A53.79787,53.79787,0,0,0,398.19943,0ZM577.73562,53.6695c-4.19548,0-7.6893-2.9771-9.3457-7.9639a18.7189,18.7189,0,0,1,6.5426-20.7649,10.672,10.672,0,0,1,6.1497-2.146c3.39-.0002,6.31492,2.0167,8.0246,5.53349a32.12988,32.12988,0,0,1,1.92,5.86741c.0875.3415.173.6752.2586.9989-.4615,6.902-2.0552,11.1754-5.3938,14.58a11.70615,11.70615,0,0,1-8.156,3.895ZM417.74933,39.8137c2.4711-5.555,4.9696-11.2284,7.3405-16.905q.30375.0201.6201.0334l2.8765,16.9405a7.00594,7.00594,0,0,0-1.6575-.1982c-.7789,0-1.5526-.0135-2.3215-.0267-.8385-.0142-1.672-.0281-2.5008-.0281-1.652,0-3.0163.0565-4.29349.1778l-.06381.0063ZM537.86453,23.074c1.6998-.031,3.3143-.059,4.9239-.059,2.3633,0,4.2852.0624,6.052.1965a3.7539,3.7539,0,0,1,3.08771,2.05869,4.186,4.186,0,0,1-.04431,4.08351,26.08618,26.08618,0,0,1-1.6179,2.3512c-.3815.5175-.7675,1.042-1.1474,1.5841a7.00006,7.00006,0,0,0,.5715,8.7463c3.1846,3.4755,2.50811,4.7301,1.9113,5.8371-1.8579,3.4461-4.29419,4.9164-8.1463,4.9164l-.26389-.0023c-2.06631-.0371-4.278-.05431-6.96161-.05431q-1.5144,0-3.0478.00591l4.6828-29.6641Zm-62.2207,3.7793q.62235-1.50525,1.2244-3.0112l.1423,3.33a7.02024,7.02024,0,0,0-1.3667-.3188Zm-23.5509,2.6551q.34575-1.05765.6916-2.1157.09241-.28277.18061-.5668l.52,2.78q-.12662-.0147-.25441-.0246l-.4442-.0348-.2146-.0169c-.1602-.0125-.3204-.0195-.479-.0212Zm-27.1897,45.69079q.5157-.02339,1.0267-.04689c2.8407-.1306,5.5238-.2539,8.2106-.2539,6.0379,0,10.5659.6741,14.6821,2.1855a6.9955,6.9955,0,0,0,2.14451.424,6.9973,6.9973,0,0,0-.815,3.69429c.03829.67461.10239,1.31291.159,1.87611a12.91909,12.91909,0,0,1,.11319,1.9254c-.4239,3.8211-2.58619,5.8298-6.6104,6.1407-6.0774.4694-12.3244.6121-18.5063.6659a6.99876,6.99876,0,0,0,.2771-1.9558l-.0022-2.2907q-.00015-.1905-.0107-.3807-.1149-2.0724-.24269-4.1445c-.13871-2.30741-.28221-4.6932-.38931-7.01641q-.01935-.41953-.0366-.823Z" fill="#fff"/><path d="M540.09263,12.675q-41.7099,0-83.4248-.0479l-13.1289-.0117a3.50016,3.50016,0,0,1-.9531-6.86721c.2129-.06049.4238-.13959.6367-.21679a8.77393,8.77393,0,0,1,3.0605-.664q27.7368-.0294,55.4688-.0254,23.1006,0,46.206.0088a8.15042,8.15042,0,0,1,1.3194.1259l.247.0371a3.50009,3.50009,0,0,1,.54791,6.835c-.18161.0527-.36231.123-.54391.19039a8.13478,8.13478,0,0,1-2.8985.63581Z" fill="#1000c7"/><path d="M501.23514,8.34219q23.36038,0,46.72159.009a9.30143,9.30143,0,0,1,1.1386.13671,9.55667,9.55667,0,0,1-2.4691.6866q-3.536.0006-7.0675.0006-48.006,0-96.01659-.0598a10.82858,10.82858,0,0,1,2.74459-.7479q27.47462-.02865,54.94841-.02521m0-7q-27.47837,0-54.95571.02521a12.15666,12.15666,0,0,0-4.2541.8744c-.1348.049-.2684.1017-.4033.1421a6.99949,6.99949,0,0,0,1.914,13.7314l11.5206.0101c27.6962.0244,56.3352.0497,84.5021.0497l7.0686-.0006a11.45365,11.45365,0,0,0,4.1169-.85331c.108-.04009.2151-.08249.3231-.117a6.99718,6.99718,0,0,0-1.1016-13.662L549.84,1.5221a11.49157,11.49157,0,0,0-1.8821-.17091q-23.3601-.00688-46.72279-.009Z" fill="#fff"/><path d="M641.31042,13.4836a3.5612,3.5612,0,0,1-.5557-.044c-.55958-.0898-1.1181-.2031-1.6777-.31741a14.46684,14.46684,0,0,0-2.625-.38279q-13.7358-.04245-27.4717-.0361-12.56535-.00585-25.1299-.0293a15.60115,15.60115,0,0,1-3.5058-.5049c-.3702-.084-.7412-.16991-1.1114-.2363a3.5,3.5,0,0,1,.6075-6.9453l10.9443-.0274q24.6738-.063,49.3476-.1025c.0694-.001.1543-.0068.2432-.0117.2402-.01371.4942-.0264.7354-.0264a4.09145,4.09145,0,0,1,4.0214,2.2998c.7461,1.5986.3633,3.3184-1.1386,5.1113A3.5021,3.5021,0,0,1,641.31042,13.4836Z" fill="#1101c8"/><path d="M641.10962,8.3195c.7976,0,1.4149.2142.2004,1.6639a31.9182,31.9182,0,0,0-4.8478-.74421c-17.534-.05419-35.0683-.01829-52.6023-.06489a23.77824,23.77824,0,0,1-4.01-.6865q30.1431-.0756,60.28622-.13061c.27568-.00029.64028-.03769.97348-.03769m0-7c-.3042,0-.6237.0141-.9277.0312l-.1223.0066c-16.8076.0194-33.8922.0632-50.41548.1056l-9.81172.025a7,7,0,0,0-1.2156,13.8905c.3175.05679.6345.1315.952.20379a18.77625,18.77625,0,0,0,4.2727.59211q12.581.03345,25.1623.0291c8.994.0037,18.2944.0076,27.4368.03579a13.19377,13.19377,0,0,1,1.9347.31221c.5476.1116,1.1683.2381,1.8255.3435a6.99812,6.99812,0,0,0,6.4751-2.4162c3.2151-3.8378,2.4-7.18551,1.628-8.83951a7.6347,7.6347,0,0,0-7.1943-4.31969Z" fill="#fff"/><path d="M438.58383,14.08419a3.49794,3.49794,0,0,1-.8506-.10449c-.624-.1573-1.247-.3409-1.86909-.5264a15.58283,15.58283,0,0,0-3.04691-.70611c-3.792-.27629-7.6855-.43449-11.4512-.58789q-2.26605-.09075-4.5312-.1914a3.49991,3.49991,0,0,1,.1338-6.9961l5.291-.0312c4.54-.02441,9.2363-.0498,13.8428-.1318l.2685-.003a5.81924,5.81924,0,0,1,4.6524,1.8155,5.35513,5.35513,0,0,1,1.00781,4.5703,3.501,3.501,0,0,1-3.44731,2.89259Z" fill="#1000c7"/><path d="M436.37173,8.3061c1.5817,0,2.5493.3649,2.2122,2.2778a33.50542,33.50542,0,0,0-5.5116-1.3273c-5.35-.3906-10.7175-.5405-16.0781-.785,6.3903-.0453,12.7813-.0496,19.1704-.1636.0702-.0012.1391-.0019.2071-.0019m0-7c-.1092,0-.2199.001-.3327.00309-4.6033.08211-9.3077.10721-13.8571.13151q-2.61868.0141-5.2374.0311a7,7,0,0,0-.2692,13.9925q2.28615.1044,4.5734.1934c3.7295.15149,7.586.3081,11.3138.5804a14.12113,14.12113,0,0,1,2.3001.5687c.6073.1809,1.2957.3859,2.0214.5676a6.99992,6.99992,0,0,0,8.5936-5.5755,8.7416,8.7416,0,0,0-1.7731-7.4269,9.07678,9.07678,0,0,0-7.3328-3.0659Z" fill="#fff"/><path d="M390.21663,63.7677a25.14308,25.14308,0,0,1-9.167-1.7392,22.54768,22.54768,0,0,1-13.6997-15.4688,26.61257,26.61257,0,0,1,5.4077-23.4414c6.0416-7.40911,15.8194-11.832,26.1553-11.832a32.87792,32.87792,0,0,1,12.0303,2.2197,3.50058,3.50058,0,0,1,2.1953,3.711l-1.0146,7.8037a3.49956,3.49956,0,0,1-3.4707,3.0488c-1.6338,0-3.2315-.0527-4.7774-.1035-1.4956-.04981-2.90869-.0967-4.3071-.0967a35.10241,35.10241,0,0,0-4.9409.29489,13.70474,13.70474,0,0,0-11.0962,8.34481,8.51065,8.51065,0,0,0,.9233,9.2031,6.47848,6.47848,0,0,0,.4375.5303c.0049-.07821.01271-.1573.023-.2364l1.0424-8.039a3.5,3.5,0,0,1,3.4707-3.04981h16.6719a3.49994,3.49994,0,0,1,2.043.65821c2.5576-5.752,5.1416-11.6211,7.5635-17.4493.6035-1.4511,2.4394-5.8662,7.8369-5.8662a11.91326,11.91326,0,0,1,1.499.1006,15.95348,15.95348,0,0,0,2.0479.1094c.6289,0,1.2773-.0195,1.9541-.0381.8125-.0234,1.663-.0469,2.56731-.0469a3.49913,3.49913,0,0,1,3.45019,2.9141l3.63281,21.3916q2.05529-6.27975,4.10839-12.5596c.14561-.4443.2793-.8926.4141-1.34081.1602-.53419.3203-1.06929.4951-1.59859,1.5479-4.6807,3.0078-9.0996,8.8291-9.0996a35.0365,35.0365,0,0,1,6.2647.8623,3.4983,3.4983,0,0,1,2.7685,2.791l2.2598,12.084c1.3936-3.251,2.7197-6.41311,3.9512-9.57911.57811-1.48639,2.3379-6.00979,7.7324-6.00979a11.21833,11.21833,0,0,1,1.6064.1221,13.8203,13.8203,0,0,0,1.9815.1172c.626,0,1.2676-.02151,1.9336-.043.7968-.0254,1.625-.0518,2.4951-.0518a3.50038,3.50038,0,0,1,3.49711,3.3506l1.86319,43.6309a3.4994,3.4994,0,0,1-3.497,3.6494h-8.8994a3.49963,3.49963,0,0,1-3.4961-3.3369l-.5518-11.8242-2.9326,6.7421c-.1025.23639-.2139.4717-.3262.7071a6.32565,6.32565,0,0,0-.3418.7929c-1.4277,6.3438-5.8349,7.2911-8.3349,7.2911a14.24009,14.24009,0,0,1-4.0879-.668,3.50106,3.50106,0,0,1-2.4239-2.6406l-2.3144-11.12411-3.793,11.76571a3.49984,3.49984,0,0,1-3.331,2.4258H429.408a3.50012,3.50012,0,0,1-3.4375-2.8428l-1.9423-10.1543c-.6475-.0108-1.29109-.0205-1.9317-.0205-1.19239,0-2.166.03509-3.039.1084a1.51313,1.51313,0,0,0-.3223.30269A28.72885,28.72885,0,0,0,417.033,54.131c-.2744.6514-.5488,1.3028-.8408,1.9434-1.789,3.9326-4.1992,7.5713-9.6748,7.5713a19.87388,19.87388,0,0,1-4.2334-.5362,4.87151,4.87151,0,0,1-2.2407-1.1904,28.2005,28.2005,0,0,1-9.82619,1.8486Z" fill="#f8f7fa"/><path d="M398.91333,14.7863a29.53024,29.53024,0,0,1,10.755,1.9792c-.3391,2.6074-.6928,5.3266-1.0149,7.8038-3.1106,0-6.1334-.2-9.08429-.2a38.84053,38.84053,0,0,0-5.42941.329,17.15717,17.15717,0,0,0-13.8059,10.3882,12.03542,12.03542,0,0,0,1.3156,12.718,8.15666,8.15666,0,0,0,7.0916,3.4218,35.43258,35.43258,0,0,0,5.7524-.6942c.16271-1.206.3273-2.4252.55-4.0754h-6.6575c.3761-2.9001.694-5.3522,1.0425-8.0394h16.6718c-.662,4.1636-1.2894,8.1088-1.9167,12.05389q.364.188.728.376c.5794-1.09469,1.2269-2.159,1.7274-3.28859,4.1409-9.3458,8.3784-18.6523,12.3008-28.0895,1.0273-2.4717,2.2536-3.7093,4.6039-3.7093a8.24937,8.24937,0,0,1,1.0519.0723,19.46641,19.46641,0,0,0,2.4961.1373c1.3847,0,2.8574-.0845,4.5202-.0845,1.9188,11.3004,3.8235,22.5176,5.7282,33.7349q.38835.04155.7767.0832,4.0083-12.2421,8.0142-24.4851c.3175-.9716.5857-1.9594.9063-2.9298,1.6645-5.0366,2.4195-6.6963,5.5044-6.6962a32.60083,32.60083,0,0,1,5.5926.7966c1.3852,7.40569,2.78491,14.8883,4.3723,23.3749,3.12961-7.3516,6.0083-13.7308,8.54161-20.2444.94639-2.4336,2.106-3.778,4.46979-3.77781a7.75594,7.75594,0,0,1,1.1065.08541,17.27934,17.27934,0,0,0,2.4815.1532c1.376,0,2.828-.0947,4.4288-.0947.6239,14.6053,1.238,28.9812,1.8638,43.6306H476.499q-.59565-12.76545-1.1908-25.5212l-.5582-.19731q-4.2216,9.70186-8.4418,19.40441a12.40992,12.40992,0,0,0-.8714,2.126c-.7166,3.1793-2.3842,4.5599-4.9205,4.5599a10.9324,10.9324,0,0,1-3.08619-.5212c-1.55691-7.4827-3.15081-15.1445-4.74491-22.8063q-.3303-.0258-.6605-.05181-3.72315,11.54957-7.4591,23.13841h-15.1573c-.8073-4.22041-1.6133-8.4342-2.4794-12.9622-1.6282,0-3.2339-.0548-4.8226-.0548-1.2198,0-2.4296.0323-3.6316.1464a4.27627,4.27627,0,0,0-2.7302,1.9474,56.83488,56.83488,0,0,0-2.7378,5.9015c-1.7954,3.9466-3.388,5.5201-6.489,5.5201a16.72477,16.72477,0,0,1-3.4888-.4559c-.7224-.1574-1.26079-1.1582-2.05979-1.94a25.808,25.808,0,0,1-10.75331,2.5189,21.57273,21.57273,0,0,1-7.89469-1.4999c-12.96541-5.0535-16.35951-21.7782-6.85091-33.4383,5.459-6.6942,14.4436-10.5435,23.4431-10.5435m21.3125,23.1956h5.4095c-.4807-2.6383-.9057-4.9708-1.3306-7.3032q-.41565-.123-.8313-.2461c-1.0662,2.4783-2.13229,4.95659-3.2476,7.5493M398.91333,7.7863c-11.377,0-22.1687,4.9045-28.868,13.1195a30.12218,30.12218,0,0,0-6.08019,26.5443A26.01368,26.01368,0,0,0,379.779,65.29019a28.633,28.633,0,0,0,10.4368,1.97781,31.05059,31.05059,0,0,0,9.3064-1.4725,7.99915,7.99915,0,0,0,2.0157.733,23.19342,23.19342,0,0,0,4.9798.6165c8.4836,0,11.5509-6.7423,12.8607-9.6214.3049-.6702.5925-1.3507.8792-2.0315.2731-.6484.5378-1.2771.8048-1.8518l.0698-.0015,1.4007,7.3229a7.00007,7.00007,0,0,0,6.8754,5.6849h15.1573a7.00039,7.00039,0,0,0,6.4923-4.38241,7.00066,7.00066,0,0,0,4.3661,3.80841,17.65576,17.65576,0,0,0,5.0923.8149,11.21642,11.21642,0,0,0,9.4862-4.7608,7.0026,7.0026,0,0,0,6.4965,4.389h8.8995a7,7,0,0,0,6.9937-7.2987l-.7493-17.5386-1.1146-26.092a7,7,0,0,0-6.9936-6.7013c-.9435,0-1.8275.0285-2.60759.0537-.62751.0202-1.23221.041-1.82121.041a10.53515,10.53515,0,0,1-1.4805-.0812,14.79279,14.79279,0,0,0-2.1074-.15741c-3.3034-.00029-7.67789,1.23581-10.4053,6.88371l-.0979-.5234a7,7,0,0,0-5.5379-5.583,37.4824,37.4824,0,0,0-6.9351-.9266c-8.3506-.0004-10.5472,6.6465-12.151,11.4998-.1858.5624-.3568,1.1296-.527,1.697q-.04754.159-.0953.318l-1.25539-7.39351a7.0001,7.0001,0,0,0-6.90131-5.82829c-.9682,0-1.8695.0255-2.6646.0479-.6433.0182-1.2585.0366-1.8556.0366a12.7063,12.7063,0,0,1-1.6019-.0799,15.29589,15.29589,0,0,0-1.9454-.1297,10.93636,10.93636,0,0,0-8.3948,3.6516,6.98426,6.98426,0,0,0-2.9305-2.1646,36.35542,36.35542,0,0,0-13.3057-2.4605Zm-1.4757,23.631c.6534-.0323,1.3581-.048,2.13151-.048.89119,0,1.80209.0202,2.74349.048Z" fill="#fff"/><path d="M472.14443,102.673a8.87045,8.87045,0,0,1-7.5186-4.67481q-1.7139-2.83588-3.415-5.67969-.61965-1.0341-1.2403-2.06831c-2.1992,6.541-7.789,10.77931-15.3476,11.36231-8.71779.6748-17.5635.7041-26.1182.7334q-2.39355.0087-4.7851.0205c-2.8301,0-5.087-2.5684-5.97949-4.086-2.88871-4.90821-5.66311-9.8193-8.59521-15.0136l-2.92579,5.2588H398.95a3.50012,3.50012,0,0,1,3.5,3.5V98.675a3.50018,3.50018,0,0,1-3.5,3.5h-21.1318a3.5,3.5,0,0,1-3.1582-5.00881c.1294-.27049.25-.53909.36911-.80469a20.9548,20.9548,0,0,1,1.045-2.1006l.55509-.9424c4.7266-8.0302,9.6143-16.333,14.4712-24.4765a9.568,9.568,0,0,1,8.3594-4.5616,9.84694,9.84694,0,0,1,8.5078,4.5899q3.5757,5.8095,7.1641,11.6103l.084-12.0986a3.5013,3.5013,0,0,1,3.4453-3.4756c2.2402-.03421,4.5507-.1406,6.78511-.2431,2.834-.1309,5.76469-.2647,8.69339-.2647a55.761,55.761,0,0,1,14.6972,1.68559,3.497,3.497,0,0,1,1.3633-.962,5.87351,5.87351,0,0,1,1.3682-.45109,20.92808,20.92808,0,0,1,3.7197-.3584c5.9317,0,10.2061,3.0722,12.7041,9.1318a54.04784,54.04784,0,0,0,4.2725,7.7803l4.876-8.8487c2.76561-5.0166,4.4345-8.04491,9.6992-8.04491a47.134,47.134,0,0,1,6.2217.668,3.49978,3.49978,0,0,1,2.58,5.12211c-.2246.41789-.4394.8232-.6494,1.2207-.4687.8877-.91789,1.7353-1.3955,2.5644l-1.039,1.80179q-6.378,11.061-12.7823,22.10451c-1.7968,3.0888-4.57809,4.8603-7.6308,4.8603ZM431.326,88.2951c.3857-.0225.7695-.043,1.1524-.0645a90.01766,90.01766,0,0,0,10.1943-.9472c.7773-.1338,2.5986-.4483,2.2676-4.875-.25-3.3467-2.1905-3.49121-2.82819-3.5391-1.59761-.11911-3.33491-.1748-5.46681-.1748-1.4228,0-2.8535.0244-4.2939.0479q-.5112.00868-1.0254.0166Z" fill="#f6f5f9"/><path d="M399.45993,67.7805a6.42311,6.42311,0,0,1,5.5276,2.9236q5.9142,9.611,11.855,19.2052c.4174.76489.8348,1.5298,1.7422,3.19289V89.8523q-.00105-1.14075-.0022-2.2817.06645-9.58185.1329-19.1639c5.1233-.0797,10.2686-.5084,15.4251-.5083a48.60508,48.60508,0,0,1,17.095,2.6146c.0702-.6206.15561-1.375.24161-2.132l.00029-.0024a4.1778,4.1778,0,0,1,.7165-.2642,17.36235,17.36235,0,0,1,3.0937-.302c4.3073.0002,7.4391,2.04379,9.4692,6.9657,1.8691,4.5316,4.8669,8.5976,7.6716,13.4008,2.7871-5.0576,5.2821-9.58571,7.7778-14.1134,2.6454-4.7991,3.4381-6.2337,6.6337-6.2337a45.35327,45.35327,0,0,1,5.7199.6317c-.7094,1.3174-1.3214,2.5254-1.9969,3.6969q-6.89235,11.95425-13.8131,23.8921c-1.2094,2.0795-2.9073,3.1203-4.6054,3.1203a5.43311,5.43311,0,0,1-4.523-2.9853c-2.578-4.2649-5.1225-8.5502-7.7088-12.81a5.78424,5.78424,0,0,0-2.7716-2.5707,30.31669,30.31669,0,0,1,.2406,4.9686c-.762,6.8697-5.32149,11.7527-13.02849,12.3482-10.17911.7864-20.43181.6818-30.65421.74259h-.0067c-.9932,0-2.3242-1.32179-2.935-2.35939-3.8708-6.5755-7.5824-13.245-11.6368-20.3953-3.0462,5.4754-5.7915,10.41-8.8536,15.9139H398.95v6.64979h-21.1316c.4382-.918.7881-1.81649,1.271-2.63689q7.48485-12.71535,15.0169-25.40311a6.122,6.122,0,0,1,5.3536-2.85469m28.3666,24.24869c5.3662-.41089,10.4741-.44169,15.4399-1.297,3.93171-.67719,5.5124-3.92979,5.1645-8.58559-.28179-3.7703-2.3519-6.4913-6.058-6.7678-1.8994-.1417-3.8062-.1843-5.7257-.1843-2.9048,0-5.8389.09769-8.8207.09769v16.737m-28.366-31.24869h-.0002a13.03674,13.03674,0,0,0-11.366,6.2691c-4.90819,8.2298-9.84519,16.617-14.6196,24.7282l-.4177.7096a23.93093,23.93093,0,0,0-1.221,2.4415c-.1083.2408-.2175.4851-.3347.7308a7,7,0,0,0,6.3171,10.01549H398.95a7.00239,7.00239,0,0,0,6.5345-4.48479c1.3117,1.7581,4.1069,4.67579,8.2077,4.67579l.0534-.00019q2.38485-.0141,4.7816-.0203c8.6148-.0294,17.52291-.0598,26.3651-.7429,6.5231-.504,11.8223-3.2895,15.25981-7.7475q.73813,1.22745,1.47879,2.4534c2.4449,4.04449,6.2769,6.3641,10.5135,6.3641a12.48071,12.48071,0,0,0,10.6564-6.6009c4.3967-7.5596,8.8345-15.2568,13.1262-22.7006l.7002-1.2145c.5212-.904.9976-1.8049,1.4583-2.6762.2062-.39.417-.7888.63761-1.19841a7.00006,7.00006,0,0,0-5.15891-10.24629,49.0328,49.0328,0,0,0-6.7243-.7041c-7.332,0-9.9706,4.7867-12.764,9.8545l-1.9042,3.4551c-.3481-.6804-.6644-1.3551-.9438-2.0325-3.85079-9.3361-10.7937-11.2962-15.9399-11.2965a24.45472,24.45472,0,0,0-4.3444.4146,8.97626,8.97626,0,0,0-2.0359.6397l.0632-.024a7.00488,7.00488,0,0,0-.92879.4366,61.7107,61.7107,0,0,0-13.90151-1.3809c-3.0091,0-5.9804.1366-8.854.2686-2.3106.10619-4.4929.2066-6.6801.2406a6.99971,6.99971,0,0,0-6.89,6.8744q-.38385-.6234-.7673-1.2465a13.32531,13.32531,0,0,0-11.4889-6.255Zm35.366,21.4254c.6114-.007,1.2161-.0114,1.8207-.0114,1.8451,0,3.3732.0428,4.7635.134.0156.0951.0297.2078.0396.33969a7.61146,7.61146,0,0,1,.0029,1.26811c-2.1092.329-4.3212.5086-6.6267.6522V82.2059Z" fill="#fff"/><path d="M522.451,102.5109c-2.6738,0-4.7334-.05371-6.6777-.1738-2.7979-.17191-4.7237-2.7881-5.6231-4.332-2.7959-4.8145-5.4892-9.6211-8.3369-14.7061l-2.875,5.2139h2.6553a3.50044,3.50044,0,0,1,3.5,3.5v6.6338a3.50051,3.50051,0,0,1-3.5,3.5h-20.8701a3.5005,3.5005,0,0,1-3.293-4.6866c.0557-.1543.1035-.3203.1553-.4902a10.23248,10.23248,0,0,1,.9355-2.3076c5.8799-10.0215,10.7744-18.3145,15.4063-26.0987a9.55047,9.55047,0,0,1,8.3261-4.2558,9.32085,9.32085,0,0,1,8.17,4.1269c2.48041,4.0772,4.9423,8.1661,7.5009,12.4239V68.4679a3.50056,3.50056,0,0,1,2.7149-3.4111,17.7408,17.7408,0,0,1,3.998-.498,12.24717,12.24717,0,0,1,8.1934,3.0927c3.8984,3.2998,8.0527,6.4952,12.0703,9.585q1.229.94635,2.457,1.8926V68.2756a3.50044,3.50044,0,0,1,3.5-3.5h7.9268a3.50044,3.50044,0,0,1,3.5,3.5V98.5461a3.49942,3.49942,0,0,1-2.6846,3.4033,15.16423,15.16423,0,0,1-3.5644.4502,12.26627,12.26627,0,0,1-8.2256-3.2012c-4.4531-3.8086-9.0391-7.4287-13.8945-11.2607q-.2256-.1788-.4522-.35751V98.967a3.50051,3.50051,0,0,1-3.5,3.5c-1.2949,0-2.5674.0117-3.8242.0224C524.89533,102.50019,523.66783,102.5109,522.451,102.5109Z" fill="#f6f5f9"/><path d="M502.25443,67.8078a5.96813,5.96813,0,0,1,5.17871,2.4458c4.49679,7.3903,8.93219,14.8179,13.99169,23.2258V68.46819a14.34247,14.34247,0,0,1,3.2129-.409,8.75253,8.75253,0,0,1,5.9319,2.26291c5.3633,4.5389,11.0137,8.7393,16.5614,13.05909.9487.73871,1.9778,1.37411,3.7277,2.57911V68.2751h7.9263V98.5456a11.79209,11.79209,0,0,1-2.7496.3537,8.82005,8.82005,0,0,1-5.9499-2.3598c-6.3777-5.4554-13.05939-10.55531-20.12139-16.2022V98.9667c-2.58091,0-5.07461.0442-7.52371.0442-2.1759,0-4.3166-.0349-6.451-.1669-1.0021-.0619-2.1834-1.5153-2.8135-2.6001-3.7763-6.5009-7.4157-13.0812-11.389-20.1472-2.9997,5.4409-5.7424,10.4159-8.7747,15.9158h8.581v6.634h-20.8695a12.5508,12.5508,0,0,1,.8173-2.2137q7.66185-13.06065,15.3945-26.0798a6.1079,6.1079,0,0,1,5.3189-2.5452m.0002-7a13.051,13.051,0,0,0-11.335,5.9662c-4.6668,7.8446-9.56549,16.1434-15.4163,26.1168a13.449,13.449,0,0,0-1.2688,3.0698c-.03339.1108-.0641.2195-.09939.3215a6.99665,6.99665,0,0,0,6.58859,9.3644h20.8695a7.00192,7.00192,0,0,0,6.5015-4.4008c1.491,2.0304,3.9512,4.3679,7.4628,4.585,2.0162.1246,4.1389.1802,6.8829.1802,1.2289,0,2.4688-.0109,3.725-.022,1.2478-.011,2.5123-.0222,3.79871-.0222a6.99993,6.99993,0,0,0,7-7v-4.15c2.93889,2.3448,5.78649,4.6602,8.57109,7.0422a15.83554,15.83554,0,0,0,10.5003,4.0404,18.62122,18.62122,0,0,0,4.3809-.5464,7,7,0,0,0,5.36859-6.8073V68.2751a7,7,0,0,0-7-7h-7.9263a7,7,0,0,0-7,7v3.738c-2.9647-2.2958-5.9428-4.6442-8.7671-7.0344a15.82352,15.82352,0,0,0-10.4538-3.91951,21.16769,21.16769,0,0,0-4.7848.58771,6.99966,6.99966,0,0,0-5.4258,6.637q-.50713-.8355-1.0142-1.6689a12.77832,12.77832,0,0,0-11.1584-5.8072Z" fill="#fff"/><path d="M543.00183,63.2843c-2.2393-.04-4.4785-.0517-6.7461-.0517-1.7861,0-3.5898.0068-5.4258.01459-1.9092.00881-3.8525.01661-5.8437.01661a3.49969,3.49969,0,0,1-3.45709-4.0459l6.88479-43.6162a3.4996,3.4996,0,0,1,3.457-2.9541c1.8633,0,3.69921-.0342,5.5147-.06741,1.8174-.03319,3.6152-.06539,5.3994-.06539,2.6348,0,4.8115.0723,6.8496.2266a14.2742,14.2742,0,0,1,11.5664,7.6035,14.658,14.658,0,0,1-.1973,14.2119,28.36867,28.36867,0,0,1-1.7285,2.6191c3.835,5.2286,4.36529,10.4922,1.5684,15.6797a18.79177,18.79177,0,0,1-17.3877,10.43359ZM539.536,47.91519a26.12317,26.12317,0,0,0,5.3193-.55569,3.3441,3.3441,0,0,0,.5879-.5468,3.54164,3.54164,0,0,0-1.209-.8418,8.61441,8.61441,0,0,0-2.2275-.2285c-.7041,0-1.4317.0371-2.18259.0761Zm3.07611-19.30859c-.09761.4111-.20311.9385-.30761,1.4854a10.22256,10.22256,0,0,0,2.7842-.4043,2.5244,2.5244,0,0,0,.4238-.541,2.555,2.555,0,0,0-.5869-.2706C544.08093,28.7629,543.242,28.6525,542.61214,28.6066Z" fill="#f8f8fa"/><path d="M542.78783,16.015c2.211,0,4.4011.0511,6.5822.2166,8.0694.6122,12.5808,9.6024,8.5939,16.5909-.88,1.5426-2.0263,2.9333-3.1129,4.4838,3.68911,4.026,5.7816,8.5653,2.9118,13.8881-3.0455,5.6489-7.8159,8.5944-14.3078,8.5944q-.1941,0-.3903-.0035c-2.2688-.0406-4.5371-.05311-6.83559-.05311-3.63661,0-7.34721.03121-11.24311.03121,2.3287-14.7511,4.59-29.0761,6.8852-43.6155,3.72891,0,7.3502-.1329,10.9166-.1329M538.246,33.7644c3.1032-.2516,5.903.044,8.2372-.8611,1.4325-.5554,2.8637-2.9217,2.9265-4.5284.0381-.9745-2.4405-2.751-3.9533-2.9571a27.64931,27.64931,0,0,0-3.3679-.3339c-2.4149,0-2.6288,1.1558-3.3976,5.2836-.1593.8556-.2296,1.7278-.4449,3.3969m-2.74889,17.8264c3.89929-.2623,7.28829-.0623,10.40649-.88661,1.4854-.39259,3.61551-2.97139,3.3773-4.13479-.3264-1.5944-2.4294-3.5137-4.129-3.97521a11.94815,11.94815,0,0,0-3.1447-.35159c-1.6347,0-3.3839.1787-5.24809.1787-.436,3.168-.81831,5.94589-1.262,9.1695M542.78783,9.015c-1.8273,0-3.6764.0338-5.4646.0665-1.785.0326-3.6308.0664-5.452.0664a6.99992,6.99992,0,0,0-6.9144,5.9085l-6.8852,43.6155a7,7,0,0,0,6.9144,8.0915c1.9914,0,3.9347-.0081,5.8445-.0161,1.8261-.0076,3.6212-.01511,5.39861-.01511,2.59869,0,4.73089.01651,6.71009.052q.2592.00467.5158.00461c9.0625,0,16.1408-4.2437,20.46939-12.2725a16.78376,16.78376,0,0,0-.4342-17.3042c.1883-.2983.3738-.6052.5538-.9208a18.14143,18.14143,0,0,0,.2479-17.589,17.75716,17.75716,0,0,0-14.39229-9.4507c-2.128-.16141-4.3877-.2366-7.1118-.2366Z" fill="#fff"/><path d="M577.73522,64.1691c-8.8067-.001-16.20608-5.8076-19.30959-15.1533a29.05624,29.05624,0,0,1,10.40629-32.6211,21.08072,21.08072,0,0,1,12.25-4.0996c7.455,0,13.9853,4.2773,17.4677,11.4424a41.04647,41.04647,0,0,1,2.64952,7.8545c.17768.6943.333,1.3076.48428,1.7949a3.49784,3.49784,0,0,1,.1533,1.206c-.4853,10.1211-3.0908,17.0704-8.4482,22.5332a22.05885,22.05885,0,0,1-15.65038,7.043Zm-4.5928-22.66991a11.55929,11.55929,0,0,0,.1973,1.94241c.8056,3.4443,1.8652,4.39059,3.4219,4.8593a3.83138,3.83138,0,0,0,1.0996.1768c.7324,0,1.914-.2363,3.7031-2.2803,3.9639-4.5283,5.0146-9.6103,3.126-15.1054-.7041-2.0479-1.99118-3.2227-3.5293-3.2227a5.38952,5.38952,0,0,0-3.5215,1.6826c-2.8057,2.6494-4.252,6.2032-4.5401,11.168C573.116,40.964,573.12972,41.2248,573.14242,41.49919Z" fill="#f7f7fa"/><path d="M581.08182,15.7947c5.8484,0,11.3168,3.29449,14.3204,9.4729,1.6358,3.36459,2.32692,7.1885,2.9384,9.1571-.424,8.8359-2.462,15.1631-7.4511,20.2508-3.9881,4.067-8.6692,5.9939-13.1539,5.9939-6.8544,0-13.2476-4.505-15.98879-12.7571a25.74288,25.74288,0,0,1,9.11879-28.669,17.5897,17.5897,0,0,1,10.2162-3.4486m-3.2215,36.1836c2.5903,0,4.6434-1.5406,6.3374-3.47611,4.72142-5.39409,6.1555-11.70319,3.8022-18.548-1.2551-3.65039-3.9023-5.58509-6.8391-5.58479a8.737,8.737,0,0,0-5.9238,2.638c-3.8297,3.616-5.36588,8.2645-5.6451,13.75379a23.27832,23.27832,0,0,0,.3396,3.47491c.7821,3.3456,2.135,6.3057,5.8199,7.4169a7.27413,7.27413,0,0,0,2.1089.3253m3.2215-43.1836a24.56,24.56,0,0,0-14.2831,4.7512A32.58494,32.58494,0,0,0,555.10383,50.119c3.5414,10.6615,12.425,17.5504,22.63179,17.5504a25.52621,25.52621,0,0,0,18.1519-8.0928c6.0022-6.1209,8.9152-13.7746,9.445-24.81641a6.999,6.999,0,0,0-.307-2.41219c-.1136-.3654-.27038-.97781-.43638-1.6262a43.99206,43.99206,0,0,0-2.89142-8.5148c-4.0829-8.3983-11.7898-13.4123-20.6159-13.4123Zm-4.4756,31.9206c.2595-3.9573,1.32692-6.6262,3.4365-8.6182a3.28532,3.28532,0,0,1,.9501-.6687,3.16922,3.16922,0,0,1,.3874.8017c1.4926,4.3414.7142,8.047-2.4498,11.6617a5.37438,5.37438,0,0,1-1.1502,1.0616l-.0077-.0023a.98673.98673,0,0,1-.2145-.0847,5.37259,5.37259,0,0,1-.8102-2.2238,10.7006,10.7006,0,0,1-.1089-1.3082c-.0103-.2135-.02078-.4204-.0327-.6191Z" fill="#fff"/><path d="M486.23423,63.047a3.49993,3.49993,0,0,1-3.457-4.04781l6.8974-43.502a3.50023,3.50023,0,0,1,3.4571-2.95209h24.7939a3.49935,3.49935,0,0,1,3.4649,3.9912l-1.2959,9.1416a3.49866,3.49866,0,0,1-3.4649,3.0088h-12.7373l-.1299.8496h9.5948a3.50007,3.50007,0,0,1,3.46581,3.9873l-1.31061,9.3242a3.49926,3.49926,0,0,1-3.4658,3.0137h-10.6748l-.17579,1.1113h11.55279a3.49923,3.49923,0,0,1,3.4531,4.06939l-1.4971,9.07521a3.49956,3.49956,0,0,1-3.4531,2.9296Z" fill="#f8f7fa"/><path d="M517.92533,16.0455c-.43319,3.0575-.8358,5.8991-1.29519,9.1411H500.88483c-.4164,2.7342-.775,5.08959-1.1954,7.8493h13.6674c-.459,3.266-.8579,6.1046-1.3106,9.3255h-13.6654c-.44069,2.7917-.8276,5.2423-1.2805,8.1115h15.6485c-.5344,3.2402-1.0012,6.0701-1.4968,9.0746h-25.0175c2.2944-14.472,4.5651-28.7944,6.8969-43.502h24.7939m-5.1765,34.4274h.005m5.1715-41.4274h-24.7939a7,7,0,0,0-6.9136,5.9039l-2.9793,18.7912-3.9176,24.7108a7,7,0,0,0,6.9136,8.0961H511.252a7.00006,7.00006,0,0,0,6.9067-5.8607l1.3032-7.9013.1566-.9491a7.01709,7.01709,0,0,0-1.5455-5.9125,6.97846,6.97846,0,0,0,.90511-2.5884l.18159-1.2921,1.129-8.03321a6.99992,6.99992,0,0,0-.163-2.75829,6.99578,6.99578,0,0,0,3.4352-5.0832l.5364-3.7858.75881-5.3553a7,7,0,0,0-6.93081-7.9821Zm0,14h0Z" fill="#fff"/><path d="M599.98032,102.1467a3.50051,3.50051,0,0,1-3.5-3.5V68.2609a3.50051,3.50051,0,0,1,3.5-3.5h32.38482a3.50052,3.50052,0,0,1,3.5,3.5v6.69429a3.50045,3.50045,0,0,1-3.5,3.5h-6.61622a3.545,3.545,0,0,1,.1025.84571v6.7549a3.48428,3.48428,0,0,1-.5957,1.9541h7.4453a3.50051,3.50051,0,0,1,3.5,3.5v7.1368a3.50051,3.50051,0,0,1-3.5,3.5Z" fill="#f3f1f9"/><path d="M632.36514,68.261v6.6943H608.73252v4.3461h13.6194v6.7544h-13.6654v5.45439h24.0149V98.6471H599.98014V68.261h32.385m0-7h-32.385a6.99991,6.99991,0,0,0-7,7V98.6471a6.99991,6.99991,0,0,0,7,7h32.72128a7,7,0,0,0,7-7V91.51019a7,7,0,0,0-7-7h-3.3495V81.9553h3.01322a7,7,0,0,0,7-7V68.261a7,7,0,0,0-7-7Z" fill="#fff"/><path d="M579.44714,102.12319c-4.20612,0-8.36432-.04389-12.35942-.13079a8.344,8.344,0,0,1-8.52049-8.6114c-.1357-6.5556-.1435-13.1787-.0234-19.6855.0967-5.1895,3.6064-8.7529,8.73339-8.8692,4.1377-.0937,8.5801-.1806,13.0322-.1806,3.9981,0,7.584.0693,10.9629.2129a8.71878,8.71878,0,0,1,6.63382,2.9609c2.08688,2.4932,2.67578,6.13569,1.91008,11.8106a3.50055,3.50055,0,0,1-3.4687,3.0312h-8.31738a3.49994,3.49994,0,0,1-3.47262-3.0654l-.086-.6856H574.411v8.75489h9.9795l.081-.94039a3.5,3.5,0,0,1,3.4873-3.2012h8.669a3.50051,3.50051,0,0,1,3.5,3.5c0,.5869.0156,1.1748.0312,1.7637a34.51131,34.51131,0,0,1-.0898,4.5791c-.5489,5.248-3.8916,8.5625-8.7227,8.6474C587.28692,102.0861,583.283,102.12319,579.44714,102.12319Z" fill="#f7f6fa"/><path d="M580.31252,68.1455c3.6063,0,7.2119.0572,10.8111.2104,4.76452.2027,6.2008,3.57329,5.2241,10.8052h-8.318c-.1635-1.3122-.3027-2.4296-.4672-3.751h-16.6518V91.16519h16.6929c.1167-1.36219.2241-2.61579.3548-4.14209h8.669a57.66384,57.66384,0,0,1-.0385,5.9782c-.3275,3.1255-1.9489,5.4543-5.3045,5.5136q-5.92155.1047-11.8449.1077-6.1389,0-12.2768-.129a4.89831,4.89831,0,0,1-5.09689-5.1838q-.20175-9.77191-.0225-19.5502c.061-3.3023,2.07849-5.3613,5.31269-5.4345,4.3164-.0976,8.6372-.1796,12.9565-.1796m.0001-7h-.0001c-4.4736,0-8.947.0872-13.1148.1814-7.02489.159-12.02249,5.21829-12.15319,12.3035-.1211,6.557-.11339,13.22679.0228,19.8239a11.80974,11.80974,0,0,0,11.94429,12.0377c4.01752.0867,8.1989.1306,12.4279.1306,3.8577,0,7.8845-.0366,11.9687-.1088,6.6385-.1174,11.4048-4.7425,12.1425-11.783a37.84375,37.84375,0,0,0,.1066-5.0335c-.0146-.5585-.0299-1.11711-.0299-1.6742a6.96827,6.96827,0,0,0-1.3524-4.1365,6.9773,6.9773,0,0,0,1.0097-2.7886c.5645-4.1794.8992-10.2322-2.6949-14.5253a12.13773,12.13773,0,0,0-9.1686-4.21051c-3.4262-.14579-7.0599-.21669-11.1086-.21669Zm-2.4019,21.2646h3.91742a6.96977,6.96977,0,0,0,.37338.6296,6.97527,6.97527,0,0,0-.6346,1.12549h-3.6562V82.4101Z" fill="#fff"/><path d="M600.51842,62.9924a3.5001,3.5001,0,0,1-3.458-4.0381c.25972-1.668.5342-3.3203.8076-4.9619.667-4.0108,1.2969-7.7989,1.6846-11.6368a12.11716,12.11716,0,0,0-.751-5.5713c-1.877-4.5595-4.0186-9.1416-6.0899-13.5732q-1.25535-2.685-2.497-5.376a3.50146,3.50146,0,0,1,1.77242-4.6631c.169-.0742.28228-.1289.36428-.1679a4.12657,4.12657,0,0,1,1.4961-.4463c2.2051-.2061,3.9551-.3692,5.4121-.3692,6.4619,0,7.8799,3.5889,10.4531,10.1065l.0703.1787a47.04176,47.04176,0,0,0,2.4746-4.2793c1.962-3.9414,5.0137-5.9404,9.0704-5.9404a14.19658,14.19658,0,0,1,1.8222.124,10.5236,10.5236,0,0,0,1.378.0713c.46092,0,.9462-.0137,1.4726-.0274.6914-.0185,1.44532-.039,2.292-.039a3.49953,3.49953,0,0,1,2.9639,5.3613c-1.0987,1.75-2.126,3.4883-3.1201,5.16989A88.4433,88.4433,0,0,1,621.202,33.4806c-5.50288,6.8643-6.8233,14.8887-7.87788,23.9092-.06552.5576-.15922,1.1133-.26862,1.7529l-.1533.9073a3.50011,3.50011,0,0,1-3.45508,2.9424Z" fill="#f7f7fa"/><path d="M599.25932,15.6883c4.0814,0,4.6857,1.5307,7.1971,7.8916.7035,1.7816,1.39572,3.5678,2.1285,5.3371.0754.1821.3951.2629.848.5434,2.0115-3.2257,4.2734-6.32221,5.9576-9.7063,1.3861-2.7853,3.2571-3.99991,5.9384-3.99991a10.61708,10.61708,0,0,1,1.3689.09421,14.11641,14.11641,0,0,0,1.8357.1012c1.0695,0,2.2641-.0663,3.7597-.0663-3.5298,5.6197-6.2017,10.8937-9.8213,15.4076-6.1034,7.6114-7.5531,16.5282-8.6247,25.6924-.08808.7528-.23708,1.4984-.40008,2.5092h-8.929c.888-5.7025,1.95428-11.2186,2.51658-16.7857a15.645,15.645,0,0,0-.9965-7.25661c-2.6565-6.45089-5.7316-12.72949-8.6419-19.07369a4.72229,4.72229,0,0,1,.7655-.3322c2.1624-.2024,3.8044-.356,5.0975-.356m29.0339.195h.005m-29.0388-7.195h-.0001c-1.62018,0-3.4426.1705-5.7498.3865a7.63365,7.63365,0,0,0-2.6756.7753c-.0587.0283-.1401.0677-.2603.1207a6.99993,6.99993,0,0,0-3.5398,9.3243q1.23915,2.7012,2.5046,5.392c2.0552,4.3972,4.1805,8.94409,6.0271,13.4285a8.71968,8.71968,0,0,1,.50462,3.8879c-.37662,3.729-.99822,7.4652-1.65622,11.42069-.27478,1.65181-.5512,3.31361-.8124,4.99131a6.99991,6.99991,0,0,0,6.91662,8.077h8.929a6.99994,6.99994,0,0,0,6.91078-5.8859c.0508-.3153.10022-.6027.1465-.8718.11072-.6442.2152-1.25261.2954-1.938.9911-8.4751,2.2118-15.9895,7.1332-22.1268a91.01279,91.01279,0,0,0,7.2139-10.96981c.95522-1.61609,1.9421-3.28589,2.9836-4.94939a7.00024,7.00024,0,0,0-5.8323-10.8675h-.005c-.8799,0-1.6639.0205-2.3824.0398-.4921.0133-.9462.0265-1.3773.0265a7.523,7.523,0,0,1-.9321-.0426,17.68277,17.68277,0,0,0-2.2725-.15281,12.78876,12.78876,0,0,0-11.15578,6.04391c-2.09392-3.6084-5.06072-6.1098-10.91372-6.1098Z" fill="#fff"/><path d="M418.58093,91.0705a3.49872,3.49872,0,0,1-3.4922-3.3057q-.1143-2.03325-.2393-4.0664c-.1435-2.3975-.288-4.7939-.3984-7.1924q-.0879-1.90275-.1435-3.8066a12.51473,12.51473,0,0,1,.6904-3.9707c.1094-.3692.2217-.7373.3066-1.10651a3.50051,3.50051,0,0,1,3.4082-2.71579,3.58509,3.58509,0,0,1,.4092.0235,3.50039,3.50039,0,0,1,3.0938,3.5009l-.1329,19.1641a3.50037,3.50037,0,0,1-3.415,3.4746C418.63953,91.0705,418.61023,91.0705,418.58093,91.0705Z" fill="#1a0ac9"/><path d="M418.71543,68.4067h.005m-.005,0q-.06644,9.582-.1329,19.1639c-.2075-3.7421-.4627-7.4828-.6353-11.2259q-.08625-1.87155-.1402-3.7439a17.65113,17.65113,0,0,1,.9084-4.1941m-.0062-7.00051a7.00156,7.00156,0,0,0-6.8369,5.51971c-.0541.2167-.1396.504-.2295.806a15.65534,15.65534,0,0,0-.8332,5.0614c.03351,1.2177.081,2.48489.1451,3.874.1116,2.42189.2582,4.8588.3999,7.2154q.1224,2.0376.2387,4.07549a7.00038,7.00038,0,0,0,6.9862,6.61241c.0577,0,.1147-.0006.1727-.002a7.0001,7.0001,0,0,0,6.8302-6.94941l.0664-9.582.0651-9.39249c.0027-.0791.004-.1582.004-.238a6.9983,6.9983,0,0,0-6.74679-6.9956q-.13126-.0048-.26191-.00491Zm.0062,14.00051h0Z" fill="#fff"/><path d="M418.58383,96.6017a3.50005,3.50005,0,0,1-3.0713-1.8232l-1.7431-3.1934a3.5,3.5,0,0,1,2.9619-5.1738s1.8164-.0566,1.8535-.0566a3.49988,3.49988,0,0,1,3.5,3.5v3.247a3.499,3.499,0,0,1-3.501,3.5Z" fill="#1a0ac9"/><path d="M418.58473,89.8545v3.24769c-.9074-1.66309-1.3248-2.428-1.7422-3.19289q.8712-.02745,1.7422-.0548m.0003-7q-.11,0-.2202.0034l-1.6911.05329-.0517.00161a7,7,0,0,0-5.9242,10.3495l.4851.8891,1.2571,2.3037a7,7,0,0,0,13.1447-3.35291V89.8545a6.99994,6.99994,0,0,0-6.9997-7Z" fill="#fff"/><path d="M420.22543,41.4816a3.5,3.5,0,0,1-3.2148-4.8828l3.248-7.5498a3.49682,3.49682,0,0,1,4.208-1.9727l.8311.2461a3.50036,3.50036,0,0,1,2.4502,2.7295l1.331,7.3008a3.50146,3.50146,0,0,1-3.4433,4.1289Z" fill="#3b29cc"/><path d="M423.47343,30.4326q.41565.123.8313.2461c.4249,2.3324.8499,4.6649,1.3306,7.3032h-5.4095c1.11531-2.59271,2.1814-5.071,3.2476-7.5493m-.001-7.0012a7.00162,7.00162,0,0,0-6.4292,4.235l-1.0846,2.5211-2.1631,5.0282a7.0001,7.0001,0,0,0,6.4303,9.7662h5.4095a6.9999,6.9999,0,0,0,6.8866-8.2549l-1.3305-7.3029a7,7,0,0,0-4.8995-5.4574l-.4157-.1231-.4156-.123a6.99858,6.99858,0,0,0-1.9882-.2892Z" fill="#fff"/><path d="M427.826,95.5295a3.49995,3.49995,0,0,1-3.5-3.5V75.29219a3.50045,3.50045,0,0,1,3.5-3.5c1.4815,0,2.9502-.02449,4.4092-.04889,1.4795-.0244,2.9482-.0488,4.4101-.0488,2.3106,0,4.2129.0615,5.9883.1943,5.2178.3887,8.8633,4.3135,9.2871,9.9971.5049,6.7422-2.5078,11.3389-8.0595,12.2959a96.54409,96.54409,0,0,1-10.9922,1.0371c-1.5703.0879-3.1612.1768-4.7754.3008C428.00373,95.5265,427.91493,95.5295,427.826,95.5295Z" fill="#2104cb"/><path d="M436.64714,75.1945c1.91949,0,3.82639.0426,5.72579.1843,3.7061.2765,5.77621,2.9975,6.058,6.7678.3479,4.6558-1.23279,7.9084-5.1645,8.58559-4.9658.85531-10.0737.88611-15.4399,1.297v-16.737c2.9818,0,5.9158-.09769,8.82061-.09769m0-7c-1.50111,0-3.00981.0251-4.46891.0493-1.4303.0238-2.9092.04839-4.3517.04839a7,7,0,0,0-7,7v16.737a7.00029,7.00029,0,0,0,6.99961,7.00011q.26684,0,.53479-.0205c1.5656-.1199,3.1591-.2088,4.70021-.2947a99.16086,99.16086,0,0,0,11.39339-1.0834c5.8005-.9991,11.7249-5.7284,10.9569-16.0057-.5526-7.3941-5.5831-12.7095-12.5178-13.22681-1.8634-.139-3.8483-.20369-6.24649-.20369Z" fill="#fff"/><path d="M535.49693,55.091a3.49992,3.49992,0,0,1-3.46679-3.9776l1.26079-9.1689a3.50034,3.50034,0,0,1,3.4677-3.0234c.874,0,1.7608-.045,2.6182-.08891.86031-.04389,1.75-.08979,2.6299-.08979a15.2273,15.2273,0,0,1,4.0625.4736c2.6894.7314,5.9922,3.4824,6.6406,6.6523.7021,3.4248-3.1318,7.4854-5.9121,8.2198a34.27944,34.27944,0,0,1-7.791.8486c-1.0508.0351-2.1407.0703-3.2744.14649C535.65323,55.0881,535.575,55.091,535.49693,55.091Z" fill="#290fcb"/><path d="M542.00723,42.2426a11.94815,11.94815,0,0,1,3.1447.35159c1.6996.46151,3.8026,2.38081,4.129,3.97521.23821,1.1634-1.8919,3.7422-3.3773,4.13479-3.1182.82431-6.5072.62431-10.40649.88661.44369-3.22361.826-6.0015,1.262-9.1695,1.86439,0,3.61319-.1787,5.24809-.1787m0-7c-.9695,0-1.9049.0478-2.8094.0941-.851.04349-1.6548.0846-2.43869.0846a7.00008,7.00008,0,0,0-6.93471,6.0457l-.9026,6.5586-.3593,2.6108a6.99984,6.99984,0,0,0,6.9341,7.9544q.2346,0,.4704-.0158c1.055-.071,2.1212-.106,3.1523-.1399a37.49828,37.49828,0,0,0,8.5732-.9633c4.1413-1.0947,9.6222-6.5613,8.4462-12.3062-.9633-4.7053-5.4345-8.3172-9.1524-9.3268a18.59755,18.59755,0,0,0-4.9791-.5962Z" fill="#fff"/><path d="M538.24593,37.2648a3.50064,3.50064,0,0,1-3.4717-3.9463c.0743-.5771.13091-1.0566.1807-1.4726.0957-.8116.1709-1.4522.2949-2.1192.78131-4.1924,1.5176-8.14251,6.8379-8.14251a30.0064,30.0064,0,0,1,3.8418.36621c2.4424.332,7.1192,2.9502,6.97761,6.5615-.10941,2.7734-2.208,6.5107-5.15821,7.65429a19.38693,19.38693,0,0,1-6.6329.96971c-.8476.0234-1.7255.0479-2.58689.1172C538.43443,37.2609,538.33973,37.2648,538.24593,37.2648Z" fill="#2b13cb"/><path d="M542.08853,25.0839a27.666,27.666,0,0,1,3.3679.3339c1.5128.2061,3.9914,1.9826,3.9533,2.9571-.0628,1.6067-1.494,3.973-2.9265,4.5284-2.3342.9051-5.134.6095-8.2372.8611.2153-1.6691.2856-2.5413.4449-3.3969.7688-4.1281.98221-5.2836,3.3976-5.2836m0-7a9.15175,9.15175,0,0,0-8.4183,4.6637,19.73224,19.73224,0,0,0-1.8592,6.3289c-.1466.7876-.2317,1.5084-.3303,2.343-.0482.4085-.1038.8803-.1772,1.4495a7,7,0,0,0,6.9419,7.8954q.28245,0,.5662-.0229c.7684-.06231,1.5608-.0842,2.3997-.1075a22.46453,22.46453,0,0,0,7.8026-1.2041c4.4294-1.7175,7.236-6.8306,7.3904-10.7816.239-6.1126-6.5083-9.6903-10.0029-10.1664a32.62639,32.62639,0,0,0-4.3129-.398Z" fill="#fff"/><path d="M577.86022,55.4777a10.78321,10.78321,0,0,1-3.1192-.4746c-5.6757-1.71-7.4082-6.5088-8.2177-9.9697a17.497,17.497,0,0,1-.3731-3.1983c-.0127-.2744-.0244-.5322-.0449-.7636a3.40034,3.40034,0,0,1-.0088-.48831c.35062-6.89849,2.5547-12.17189,6.7383-16.12109a12.28,12.28,0,0,1,8.3262-3.5928c4.5742,0,8.4629,3.04489,10.1484,7.9473,2.7256,7.9258,1.1768,15.5302-4.4775,21.9902-2.751,3.1436-5.6856,4.6709-8.9707,4.6709Z" fill="#2205cb"/><path d="M581.16082,24.3694c2.9364,0,5.5842,1.93479,6.8391,5.58479,2.3533,6.84481.91922,13.15391-3.8022,18.548-1.6941,1.93561-3.7468,3.47611-6.3374,3.47611a7.27793,7.27793,0,0,1-2.1089-.3253c-3.6849-1.1112-5.0378-4.0713-5.8199-7.4169a23.27832,23.27832,0,0,1-.3396-3.47491c.27922-5.48929,1.8154-10.13779,5.6451-13.75379a8.73487,8.73487,0,0,1,5.9238-2.638m0-7a15.7553,15.7553,0,0,0-10.7296,4.5483c-4.87,4.5984-7.4314,10.6458-7.8303,18.4879a6.9954,6.9954,0,0,0,.0189.9797c.0168.1878.0244.397.0351.6198a20.56057,20.56057,0,0,0,.4603,3.824c.5801,2.4815,2.3452,10.0319,10.6152,12.5258a14.30725,14.30725,0,0,0,4.1299.6234c4.2935,0,8.1979-1.9735,11.6047-5.8656,6.4353-7.3522,8.2659-16.385,5.1546-25.4344-2.1863-6.3588-7.3433-10.3089-13.4588-10.3089Z" fill="#fff"/><path d="M641.31,9.9834c-5.9885,9.65879-11.5184,19.6454-18.1132,28.8709-5.1062,7.1433-4.6546,15.0576-5.9706,23.3101h23.0036v44.7165h-4.3174c-26.6244,0-53.24928-.0783-79.87259.0874a13.3509,13.3509,0,0,1-9.7072-3.3945c-2.5209-2.25861-5.323-4.2034-8.5626-6.72361V106.8811h-4.3081c-20.8643-.0001-41.7304-.1454-62.5914.117-4.4028.0554-7.2721-1.0495-8.9602-5.1071a17.58264,17.58264,0,0,0-1.8745-2.754c-7.2146,7.03019-16.11369,7.81419-25.36169,7.7777-23.93591-.09451-47.87251-.02151-71.80871-.0154-1.3672.0004-2.73429.0001-4.8666.0001,8.4708-13.3855,16.5615-26.1704,24.6674-38.97921-.4675-.42039-.69909-.77629-1.0187-.89489-19.6797-7.3026-25.9625-29.8157-12.32739-45.9564,10.60279-12.5513,24.41959-16.6276,40.42229-12.537,2.5069.6408,4.841,1.5811,7.2518-.0603,5.3606.2445,10.7281.3944,16.0781.785a33.51313,33.51313,0,0,1,5.5116,1.3273c.5056,2.2131,1.01121,4.4262,1.6818,7.3612,1.2471-3.3611,2.2617-6.0954,3.27641-8.8297q51.54224.04455,103.08409.0592a9.55985,9.55985,0,0,0,2.4691-.6867c6.0165-.6379,10.0191,2.8617,13.89359,7.0426,5.159-3.6186,10.1537-7.4808,16.861-7.0426a23.788,23.788,0,0,0,4.01.6864c17.534.0466,35.0683.0107,52.6023.06489A31.9182,31.9182,0,0,1,641.31,9.9834ZM418.58473,89.8545q-.871.02745-1.7422.0548-5.92875-9.60166-11.855-19.20511c-2.3666-3.846-8.5805-3.92669-10.8812-.069q-7.55775,12.67231-15.0169,25.40321c-.4829.8203-.8328,1.71879-1.271,2.6367H398.95V92.0254h-8.6832c3.0621-5.5038,5.8074-10.4385,8.8536-15.9139,4.0544,7.1504,7.7659,13.81969,11.6368,20.3953.6122,1.0399,1.9477,2.3653,2.9417,2.35939,10.2224-.06079,20.47521.04371,30.65421-.74259,7.707-.5955,12.26649-5.4785,13.02849-12.3482a30.31669,30.31669,0,0,0-.2406-4.9686,5.784,5.784,0,0,1,2.7715,2.5707c2.5864,4.2598,5.1308,8.5451,7.7089,12.81,2.435,4.0281,6.737,3.97669,9.1284-.135q6.9375-11.928,13.8131-23.8921c.6754-1.1715,1.2875-2.3795,1.9969-3.6969-8.5762-1.2435-8.5814-1.2412-12.3536,5.602-2.4957,4.52769-4.9907,9.0558-7.7778,14.1134-2.8047-4.8032-5.8025-8.8692-7.6716-13.4008-2.4879-6.0318-6.6294-7.7408-12.5629-6.6637a4.01382,4.01382,0,0,0-.7173.26679c-.0854.75531-.1708,1.51051-.2411,2.13181-10.8558-3.9865-21.7406-2.274-32.5201-2.1063a17.65141,17.65141,0,0,0-.9084,4.194c.1373,4.9934.4988,9.98049.7756,14.97Zm43.9219-50.0911c-1.58749-8.4865-2.9872-15.96921-4.3724-23.3748-8.193-1.6013-8.7107-1.3213-11.0969,5.8995-.3207.9705-.5888,1.9582-.9064,2.9298q-4.00215,12.24405-8.0142,24.4851-.38835-.04155-.7767-.0832c-1.9047-11.2173-3.8094-22.43461-5.7282-33.7349a58.75876,58.75876,0,0,1-7.0163-.0528c-3.0561-.3936-4.4852.8204-5.6558,3.637-3.9224,9.4372-8.1599,18.7437-12.3008,28.0895-.5005,1.12959-1.148,2.194-1.7274,3.28859q-.36405-.18793-.728-.376c.6273-3.94509,1.2547-7.89029,1.9167-12.05389h-16.6718c-.3485,2.6872-.6664,5.1393-1.0425,8.0393h6.6575c-.2227,1.6503-.38729,2.8695-.55,4.0755-4.8219.8184-9.4754,1.7873-12.844-2.7276a12.03544,12.03544,0,0,1-1.3157-12.718,17.15779,17.15779,0,0,1,13.8059-10.38831c4.6504-.65529,9.4674-.12889,14.5138-.12889.3221-2.4772.6758-5.1964,1.0149-7.8037-11.8597-4.6406-26.5183-.85341-34.1981,8.5642-9.5086,11.6601-6.1145,28.3848,6.85091,33.4383,6.44959,2.5139,12.8,1.6594,18.648-1.01891.799.78171,1.33749,1.78251,2.05979,1.93991,5.592,1.2192,7.609.1428,9.9778-5.0642a56.81417,56.81417,0,0,1,2.7378-5.9015,4.27517,4.27517,0,0,1,2.7302-1.9473c2.7673-.2628,5.5758-.0917,8.4542-.0917.8661,4.528,1.6721,8.74179,2.4794,12.9622h15.1573q3.7422-11.60835,7.4591-23.13841.33015.026.6605.05181c1.594,7.6618,3.1881,15.3236,4.7448,22.8063,4.2929,1.2841,7.0313.2895,8.0068-4.0388a12.41554,12.41554,0,0,1,.8714-2.1259q4.21815-9.70335,8.4418-19.40441.279.09857.5582.19731.5952,12.7581,1.1908,25.5212h8.8995c-.6258-14.6494-1.2399-29.0253-1.8638-43.6306a51.21586,51.21586,0,0,1-6.9103-.0585c-3.1294-.4522-4.4928.9062-5.57629,3.6923C468.51483,26.0326,465.63614,32.4118,462.50663,39.7634Zm88.3521,28.5117V85.9603c-1.7499-1.205-2.779-1.8404-3.7277-2.57911-5.5477-4.31979-11.1981-8.52019-16.5614-13.05909-2.7547-2.3313-5.5277-2.6874-9.1448-1.85391V93.4793c-5.0595-8.4078-9.4949-15.8354-13.99169-23.2257-2.01471-3.3109-8.509-3.2433-10.49761.0994q-7.742,13.0134-15.3946,26.0798a12.56666,12.56666,0,0,0-.8173,2.2137h20.8696v-6.634h-8.581c3.0323-5.5,5.775-10.4749,8.7747-15.9158,3.9733,7.066,7.6127,13.6464,11.389,20.1472.63021,1.0848,1.8114,2.5382,2.8135,2.6001,4.5368.2804,9.1008.1227,13.97471.1227V80.3373c7.06209,5.64689,13.74369,10.7468,20.12139,16.2022a9.0028,9.0028,0,0,0,8.6995,2.0061V68.2751Zm3.9923-30.96891c1.0866-1.55039,2.2329-2.94109,3.113-4.48369,3.9868-6.9885-.5246-15.9787-8.5941-16.5909-5.6994-.4325-11.4581-.0837-17.4987-.0837-2.2952,14.5394-4.5566,28.8644-6.8852,43.6155,6.3582,0,12.22011-.083,18.0787.0219a15.32,15.32,0,0,0,14.6981-8.5909C560.63263,45.8716,558.54014,41.33219,554.851,37.30619Zm43.48959-2.88149c-.61148-1.9686-1.3026-5.7924-2.9383-9.157-4.7571-9.7853-15.6947-12.336-24.5368-6.0244a25.74309,25.74309,0,0,0-9.11869,28.6691c4.53459,13.6512,19.05919,17.0461,29.14269,6.7631C595.87862,49.5877,597.91662,43.2606,598.34062,34.4247ZM493.13143,16.0455c-2.3317,14.7076-4.6024,29.03-6.8969,43.502H511.252c.4956-3.0046.9624-5.8344,1.4968-9.0746h-15.6485c.4529-2.8691.83981-5.3199,1.2805-8.1115h13.6654c.4527-3.2209.8516-6.0595,1.3106-9.3255h-13.6674l1.1954-7.8493h15.7454c.4593-3.242.86191-6.0837,1.2951-9.1411ZM632.36514,68.261h-32.385V98.6471h32.72128V91.51019h-24.0149V86.0558h13.6654V79.3015h-13.6194V74.9553h23.63262ZM588.02972,79.1611h8.318c.9767-7.23191-.4595-10.6024-5.2242-10.8052-7.9098-.33671-15.8473-.2099-23.7675-.0308-3.2342.0732-5.25179,2.1322-5.31269,5.4345q-.18045,9.77235.0225,19.5502a4.89831,4.89831,0,0,0,5.09689,5.1838c8.0376.1734,16.083.1634,24.1217.0213,3.3556-.0594,4.977-2.3881,5.3045-5.5136a57.66384,57.66384,0,0,0,.0385-5.9782h-8.669c-.1307,1.5262-.2381,2.7799-.3548,4.14209h-16.6929V75.4101h16.6517C587.727,76.7315,587.86622,77.8489,588.02972,79.1611Zm21.4032-49.7007c-.4529-.2805-.7726-.3613-.848-.5433-.7329-1.7694-1.425-3.5556-2.1284-5.3371-3.3072-8.3763-3.3072-8.37681-12.2947-7.5357a4.73316,4.73316,0,0,0-.7655.3322c2.9103,6.3442,5.9854,12.62269,8.6419,19.07369a15.64635,15.64635,0,0,1,.9965,7.25661c-.5623,5.567-1.6285,11.0832-2.5165,16.7857h8.92892c.163-1.0108.312-1.7565.40008-2.5092,1.0717-9.1642,2.5213-18.081,8.6247-25.6924,3.6196-4.5139,6.2915-9.7878,9.8213-15.4076a49.10763,49.10763,0,0,1-5.5954-.0349c-3.431-.4466-5.6965.669-7.3074,3.9057C613.70632,23.13819,611.44442,26.2347,609.43292,29.4604Z" fill="#2307cb"/><path d="M549.09533,8.4879a9.55985,9.55985,0,0,1-2.4691.6867q-51.54195.0078-103.08409-.0592a10.82474,10.82474,0,0,1,2.74459-.748q50.835-.05295,101.67-.01621A9.323,9.323,0,0,1,549.09533,8.4879Z" fill="#1000c7"/><path d="M641.31,9.9834a31.9182,31.9182,0,0,0-4.8478-.74421c-17.534-.05419-35.0683-.01829-52.6023-.06489a23.788,23.788,0,0,1-4.01-.6864q30.1431-.07575,60.28622-.1308C641.072,8.3561,643.03172,7.92819,641.31,9.9834Z" fill="#1101c8"/><path d="M438.58393,10.5839a33.51313,33.51313,0,0,0-5.5116-1.3273c-5.35-.3906-10.7175-.5405-16.0781-.785,6.3903-.04541,12.7813-.0496,19.1704-.1636C437.868,8.2776,438.93553,8.5888,438.58393,10.5839Z" fill="#1000c7"/><path d="M462.50663,39.7634c3.12951-7.3516,6.0082-13.7308,8.54151-20.2445,1.08349-2.7861,2.44689-4.1445,5.57629-3.6923a51.21586,51.21586,0,0,0,6.9103.0585c.6239,14.6053,1.238,28.9812,1.8638,43.6306H476.499q-.59565-12.76545-1.1908-25.5212-.27913-.0987-.5582-.19731-4.2216,9.70186-8.4418,19.40441a12.41554,12.41554,0,0,0-.8714,2.1259c-.9755,4.3283-3.7139,5.3229-8.0068,4.0388-1.5567-7.4827-3.1508-15.1445-4.7448-22.8063q-.3303-.02595-.6605-.05181-3.7233,11.54972-7.4591,23.13841h-15.1573c-.8073-4.22041-1.6133-8.4342-2.4794-12.9622-2.8784,0-5.6869-.1711-8.4542.0917a4.27517,4.27517,0,0,0-2.7302,1.9473,56.81417,56.81417,0,0,0-2.7378,5.9015c-2.3688,5.207-4.3858,6.2834-9.9778,5.0642-.7223-.1574-1.26079-1.1582-2.05979-1.93991-5.848,2.67831-12.19841,3.53281-18.648,1.01891-12.96541-5.0535-16.35951-21.7782-6.85091-33.4383,7.6798-9.41761,22.3384-13.2048,34.1981-8.5642-.3391,2.6073-.6928,5.3265-1.0149,7.8037-5.0464,0-9.8634-.5264-14.5138.12889a17.15779,17.15779,0,0,0-13.8059,10.38831,12.03544,12.03544,0,0,0,1.3157,12.718c3.3686,4.5149,8.0221,3.546,12.844,2.7276.16271-1.206.3273-2.4252.55-4.0755h-6.6575c.3761-2.9.694-5.3521,1.0425-8.0393h16.6718c-.662,4.1636-1.2894,8.1088-1.9167,12.05389q.364.18812.728.376c.5794-1.09459,1.2269-2.159,1.7274-3.28859,4.1409-9.3458,8.3784-18.6523,12.3008-28.0895,1.1706-2.8166,2.5997-4.0306,5.6558-3.637a58.75876,58.75876,0,0,0,7.0163.0528c1.9188,11.30029,3.8235,22.5176,5.7282,33.7349q.38835.04155.7767.0832,4.0083-12.24225,8.0142-24.4851c.3176-.9716.5857-1.9593.9064-2.9298,2.3862-7.2208,2.9039-7.5008,11.0969-5.8995C459.51943,23.79419,460.91914,31.2769,462.50663,39.7634Zm-38.2019-9.0847q-.41565-.123-.8313-.2461c-1.0662,2.4783-2.13229,4.95659-3.2476,7.5493h5.4095C425.15463,35.3435,424.72973,33.0111,424.30473,30.6787Z" fill="#f8f7fa"/><path d="M418.71543,68.4067c10.7795-.1677,21.6643-1.8802,32.5201,2.1063.0703-.6213.1557-1.3765.2419-2.1344a4.1778,4.1778,0,0,1,.7165-.2642c5.9335-1.0771,10.075.6319,12.5629,6.6637,1.8691,4.5316,4.8669,8.5976,7.6716,13.4008,2.7871-5.0576,5.2821-9.58571,7.7778-14.1134,3.7722-6.8432,3.7774-6.8455,12.3536-5.602-.7094,1.3174-1.3215,2.5254-1.9969,3.6969q-6.89218,11.9544-13.8131,23.8921c-2.3914,4.11169-6.6934,4.1631-9.1284.135-2.5781-4.2649-5.1225-8.5502-7.7089-12.81a5.784,5.784,0,0,0-2.7715-2.5707,30.31669,30.31669,0,0,1,.2406,4.9686c-.762,6.8697-5.32149,11.7527-13.02849,12.3482-10.179.7863-20.43181.6818-30.65421.74259-.994.00591-2.3295-1.31949-2.9417-2.35939-3.8709-6.57561-7.5824-13.2449-11.6368-20.3953-3.0462,5.4754-5.7915,10.4101-8.8536,15.9139H398.95v6.6497h-21.1316c.4382-.91791.7881-1.8164,1.271-2.6367q7.48485-12.7155,15.0169-25.40321c2.3007-3.85769,8.5146-3.777,10.8812.069q5.914,9.61082,11.855,19.20521c.4174.76479.8347,1.5297,1.7422,3.19279V89.8544l-.0021-2.2838Q418.64893,77.9886,418.71543,68.4067Zm9.1111,23.62249c5.3662-.41089,10.4741-.44169,15.4399-1.297,3.93171-.67719,5.5124-3.92979,5.1645-8.58559-.28179-3.7703-2.3519-6.49141-6.058-6.7678-4.77379-.356-9.5941-.0867-14.5464-.0867Z" fill="#f6f5f9"/><path d="M550.85873,68.2751h7.9263V98.5456a9.0028,9.0028,0,0,1-8.6995-2.0061c-6.3777-5.4554-13.0593-10.55531-20.12139-16.2022V98.9667c-4.87391,0-9.43791.1577-13.97471-.1227-1.0021-.0619-2.18329-1.5153-2.8135-2.6001-3.7763-6.5008-7.4157-13.0812-11.389-20.1472-2.9997,5.4409-5.7424,10.4158-8.7747,15.9158h8.581v6.634h-20.8696a12.56666,12.56666,0,0,1,.8173-2.2137q7.662-13.06065,15.3946-26.0798c1.98861-3.3427,8.4829-3.4103,10.49761-.0994,4.49679,7.3903,8.93219,14.8179,13.99169,23.2257V68.46819c3.6171-.83349,6.3901-.47739,9.1448,1.85391,5.3633,4.5389,11.0137,8.7393,16.5614,13.05909.9487.73871,1.9778,1.37411,3.7277,2.57911Z" fill="#f6f5f9"/><path d="M554.851,37.30619c3.68911,4.026,5.7816,8.56541,2.9118,13.88821a15.32,15.32,0,0,1-14.6981,8.5909c-5.85859-.1049-11.7205-.0219-18.0787-.0219,2.3286-14.7511,4.59-29.0761,6.8852-43.6155,6.0406,0,11.7993-.3488,17.4987.0837,8.0695.6122,12.5809,9.6024,8.5941,16.5909C557.08393,34.3651,555.93763,35.7558,554.851,37.30619ZM536.75914,42.4213c-.436,3.168-.81831,5.94589-1.262,9.1695,3.89929-.2623,7.28829-.0623,10.40649-.88661,1.4854-.39259,3.6154-2.97139,3.3773-4.13479-.3264-1.5944-2.4294-3.5137-4.129-3.9753C542.674,41.92119,539.87763,42.4213,536.75914,42.4213Zm1.48689-8.6569c3.1032-.2516,5.903.044,8.2372-.8611,1.4324-.5554,2.8637-2.9217,2.9265-4.5284.0381-.9744-2.4405-2.751-3.9533-2.9572-5.7017-.7768-5.73329-.5923-6.7655,4.9499C538.53163,31.2231,538.46123,32.09519,538.246,33.7644Z" fill="#f8f8fa"/><path d="M598.34062,34.4247c-.424,8.8359-2.462,15.163-7.4511,20.2508-10.0835,10.283-24.6081,6.8881-29.14269-6.7631a25.74309,25.74309,0,0,1,9.11869-28.6691c8.8421-6.3116,19.7797-3.7609,24.5368,6.0244C597.038,28.6323,597.72914,32.4561,598.34062,34.4247Zm-28.7487,6.33649a23.26634,23.26634,0,0,0,.3397,3.47491c.782,3.3456,2.1349,6.3057,5.8198,7.4169,3.6198,1.0916,6.3164-.7174,8.4463-3.15081,4.7215-5.39409,6.1555-11.70319,3.8022-18.548-2.0906-6.08049-8.04578-7.40069-12.7629-2.94679C571.40732,30.6234,569.87114,35.2719,569.59192,40.76119Z" fill="#f7f7fa"/><path d="M493.13143,16.0455h24.7939c-.43319,3.0574-.8358,5.8991-1.2951,9.1411h-15.7454l-1.1954,7.8493h13.6674c-.459,3.266-.8579,6.1046-1.3106,9.3255h-13.6654c-.44069,2.7916-.8276,5.2424-1.2805,8.1115h15.6485c-.5344,3.2402-1.0012,6.07-1.4968,9.0746h-25.0175C488.529,45.0755,490.79973,30.7531,493.13143,16.0455Z" fill="#f8f7fa"/><path d="M632.36514,68.261v6.6943H608.73252v4.3462h13.6194v6.7543h-13.6654v5.45439h24.0149V98.6471H599.98014V68.261Z" fill="#f3f1f9"/><path d="M588.02972,79.1611c-.1635-1.3122-.3027-2.4296-.4673-3.751h-16.6517V91.16519h16.6929c.1167-1.36219.2241-2.61589.3548-4.14209h8.669a57.66384,57.66384,0,0,1-.0385,5.9782c-.3275,3.1255-1.9489,5.4542-5.3045,5.5136-8.0387.1421-16.0841.1521-24.1217-.0213a4.89831,4.89831,0,0,1-5.09689-5.1838q-.20175-9.77191-.0225-19.5502c.0609-3.3023,2.07849-5.3613,5.31269-5.4345,7.9202-.1791,15.8577-.30591,23.7675.0308,4.7647.2028,6.2009,3.57329,5.2242,10.8052Z" fill="#f7f6fa"/><path d="M609.43292,29.4604c2.0115-3.2257,4.2734-6.32221,5.9575-9.7063,1.6109-3.2367,3.8764-4.3523,7.3074-3.9057a49.10763,49.10763,0,0,0,5.5954.0349c-3.5298,5.6198-6.2017,10.8937-9.8213,15.4076-6.1034,7.6114-7.553,16.5282-8.6247,25.6924-.08808.7527-.23708,1.4984-.40008,2.5092h-8.92892c.888-5.7025,1.9542-11.2187,2.5165-16.7857a15.64635,15.64635,0,0,0-.9965-7.25661c-2.6565-6.451-5.7316-12.72949-8.6419-19.07369a4.73316,4.73316,0,0,1,.7655-.3322c8.9875-.84111,8.9875-.8406,12.2947,7.5357.7034,1.7815,1.3955,3.5677,2.1284,5.3371C608.66032,29.0991,608.98,29.1799,609.43292,29.4604Z" fill="#f7f7fa"/><path d="M418.71543,68.4067q-.06644,9.582-.1328,19.1639c-.2768-4.98941-.6383-9.9765-.7756-14.9699A17.65141,17.65141,0,0,1,418.71543,68.4067Z" fill="#1a0ac9"/><path d="M418.58473,89.8545v3.24769c-.9075-1.66309-1.3248-2.428-1.7422-3.19279Q417.71373,89.8818,418.58473,89.8545Z" fill="#1a0ac9"/><path d="M424.30473,30.6787c.425,2.3324.8499,4.6648,1.3306,7.3032h-5.4095c1.11531-2.59271,2.1814-5.071,3.2476-7.5493Q423.88908,30.5556,424.30473,30.6787Z" fill="#3b29cc"/><path d="M427.82653,92.02919V75.2921c4.9523,0,9.77261-.2693,14.5464.0867,3.7061.27639,5.77621,2.9975,6.058,6.7678.3479,4.6558-1.23279,7.9084-5.1645,8.58559C438.30063,91.5875,433.19273,91.6183,427.82653,92.02919Z" fill="#2104cb"/><path d="M536.75914,42.4213c3.11849,0,5.91489-.50011,8.39279.1728,1.6996.4616,3.8026,2.3809,4.129,3.9753.2381,1.1634-1.8919,3.7422-3.3773,4.13479-3.1182.82431-6.5072.62431-10.40649.88661C535.94083,48.36719,536.32314,45.5893,536.75914,42.4213Z" fill="#290fcb"/><path d="M538.246,33.7644c.2152-1.66921.2856-2.5413.4449-3.3968,1.03221-5.5422,1.0638-5.7267,6.7655-4.9499,1.5128.2062,3.9914,1.9828,3.9533,2.9572-.0628,1.6067-1.4941,3.973-2.9265,4.5284C544.149,33.8084,541.34923,33.5128,538.246,33.7644Z" fill="#2b13cb"/><path d="M569.59192,40.76119c.27922-5.48929,1.8154-10.13779,5.6451-13.75379,4.71712-4.4539,10.6723-3.1337,12.7629,2.94679,2.3533,6.84481.9193,13.15391-3.8022,18.548-2.1299,2.43341-4.8265,4.24241-8.4463,3.15081-3.6849-1.1112-5.0378-4.0713-5.8198-7.4169A23.26634,23.26634,0,0,1,569.59192,40.76119Z" fill="#2205cb"/></svg>