<svg xmlns="http://www.w3.org/2000/svg" xmlns:xlink="http://www.w3.org/1999/xlink" viewBox="0 0 237.77 88.59"><defs><linearGradient id="linear-gradient" x1="387.69" y1="1072.24" x2="366.73" y2="1051.28" gradientTransform="translate(-902.63 656.23) rotate(-103.31)" gradientUnits="userSpaceOnUse"><stop offset="0" stop-color="#a5a7ab"/><stop offset="1" stop-color="#e6e7e7"/></linearGradient><linearGradient id="linear-gradient-2" x1="108.87" y1="129.85" x2="129.75" y2="108.97" gradientTransform="translate(163.18 -74.59) rotate(90)" gradientUnits="userSpaceOnUse"><stop offset="0" stop-color="#1f1819" stop-opacity="0"/><stop offset="0.01" stop-color="#1f1819" stop-opacity="0.03"/><stop offset="0.15" stop-color="#1f1819" stop-opacity="0.57"/><stop offset="0.31" stop-color="#1f1819" stop-opacity="0.9"/><stop offset="0.5" stop-color="#1f1819"/><stop offset="0.69" stop-color="#1f1819" stop-opacity="0.9"/><stop offset="0.85" stop-color="#1f1819" stop-opacity="0.57"/><stop offset="0.99" stop-color="#1f1819" stop-opacity="0.03"/><stop offset="1" stop-color="#1f1819" stop-opacity="0"/></linearGradient><linearGradient id="linear-gradient-3" x1="108.87" y1="129.85" x2="129.75" y2="108.97" gradientTransform="translate(163.18 -74.59) rotate(90)" gradientUnits="userSpaceOnUse"><stop offset="0" stop-color="#fff" stop-opacity="0"/><stop offset="0.5" stop-color="#fff"/><stop offset="1" stop-color="#fff" stop-opacity="0"/></linearGradient><radialGradient id="Degradado_sin_nombre_2" cx="130.33" cy="119.21" r="20.51" gradientTransform="translate(51.07 -98.85) rotate(60) scale(1 0.7)" gradientUnits="userSpaceOnUse"><stop offset="0" stop-color="#c16666"/><stop offset="0.13" stop-color="#c25d5a"/><stop offset="0.46" stop-color="#c44a40"/><stop offset="0.76" stop-color="#c63f30"/><stop offset="1" stop-color="#c63b2b"/></radialGradient></defs><g style="isolation:isolate"><g id="Capa_1" data-name="Capa 1"><circle cx="43.8" cy="44.79" r="43.8" transform="translate(-18.84 44.09) rotate(-45)" fill="#1f1819"/><g opacity="0.1"><polygon points="3.22 44.79 11.81 53.68 11.81 49.34 21.64 49.34 21.64 40.24 11.81 40.24 11.81 35.9 3.22 44.79" fill="#818196"/><polygon points="15.11 73.48 27.47 73.7 24.4 70.63 31.35 63.68 24.91 57.24 17.96 64.19 14.89 61.12 15.11 73.48" fill="#818196"/><polygon points="43.8 85.37 52.69 76.78 48.35 76.78 48.35 66.95 39.25 66.95 39.25 76.78 34.91 76.78 43.8 85.37" fill="#818196"/><polygon points="72.5 73.48 72.71 61.12 69.64 64.19 62.69 57.24 56.26 63.68 63.2 70.63 60.13 73.7 72.5 73.48" fill="#818196"/><polygon points="84.38 44.79 75.79 35.9 75.79 40.24 65.96 40.24 65.96 49.34 75.79 49.34 75.79 53.68 84.38 44.79" fill="#818196"/><polygon points="72.5 16.09 60.13 15.88 63.21 18.95 56.26 25.9 62.69 32.33 69.64 25.39 72.71 28.46 72.5 16.09" fill="#818196"/><polygon points="43.8 4.21 34.91 12.8 39.25 12.8 39.25 22.63 48.35 22.63 48.35 12.8 52.69 12.8 43.8 4.21" fill="#818196"/><polygon points="15.11 16.09 14.89 28.45 17.96 25.38 24.91 32.33 31.35 25.9 24.4 18.95 27.47 15.88 15.11 16.09" fill="#818196"/></g><path d="M0,44.29a43.8,43.8,0,0,1,87.59,0V43.8A43.8,43.8,0,0,0,0,43.8C0,44,0,44.13,0,44.29Z" fill="#6e6f70"/><circle cx="43.8" cy="44.75" r="14.82" transform="translate(-9.83 77.08) rotate(-76.69)" fill="url(#linear-gradient)"/><circle cx="43.8" cy="44.75" r="11.81" fill="#1f1819" opacity="0.3" style="mix-blend-mode:multiply"/><path d="M43.77,59.48A14.76,14.76,0,1,0,29,44.72,14.76,14.76,0,0,0,43.77,59.48ZM44,30.75A14.15,14.15,0,1,1,29.8,44.9,14.16,14.16,0,0,1,44,30.75Z" opacity="0.15" fill="url(#linear-gradient-2)" style="mix-blend-mode:multiply"/><path d="M43.77,30A14.76,14.76,0,1,0,58.53,44.72,14.76,14.76,0,0,0,43.77,30Zm-.19,28.73A14.15,14.15,0,1,1,57.73,44.54,14.15,14.15,0,0,1,43.58,58.69Z" opacity="0.4" fill="url(#linear-gradient-3)"/><circle cx="43.97" cy="55.74" r="20.51" fill="url(#Degradado_sin_nombre_2)"/><circle cx="141.09" cy="61.4" r="17.46" fill="#bc3c2b" style="mix-blend-mode:multiply"/><circle cx="141.09" cy="61.4" r="13.88" fill="#b72a1b"/><circle cx="196.3" cy="27.23" r="17.46" fill="#bc3c2b" style="mix-blend-mode:multiply"/><circle cx="196.3" cy="27.23" r="13.88" fill="#b72a1b"/><circle cx="178.07" cy="61.22" r="17.46" fill="#bc3c2b" style="mix-blend-mode:multiply"/><circle cx="178.07" cy="61.22" r="13.88" fill="#b72a1b"/><circle cx="121.98" cy="27.19" r="17.46" fill="#bc3c2b" style="mix-blend-mode:multiply"/><circle cx="121.98" cy="27.19" r="13.88" fill="#b72a1b"/><circle cx="159.32" cy="27.49" r="17.46" fill="#bc3c2b" style="mix-blend-mode:multiply"/><circle cx="159.32" cy="27.49" r="13.88" fill="#b72a1b"/><circle cx="220.31" cy="60.97" r="17.46" fill="#bc3c2b" style="mix-blend-mode:multiply"/><circle cx="220.31" cy="60.97" r="13.88" fill="#b72a1b"/></g></g></svg>