<svg id="Layer_1" data-name="Layer 1" xmlns="http://www.w3.org/2000/svg" viewBox="0 0 1000 114"><g id="Layer_2" data-name="Layer 2"><rect x="482.19" y="23.79" width="48.68" height="51.91" fill="#fff"/></g><g id="Layer_1-2" data-name="Layer 1"><path d="M503.47,7a2.63,2.63,0,0,1,1.87.79l10.53,10.58H491L501.6,7.79A2.63,2.63,0,0,1,503.47,7M473.71,26.84a6.34,6.34,0,0,1,5.89,4l19.63,50.21a4.46,4.46,0,0,1-4.15,6.11h0a4.53,4.53,0,0,1-4.21-3l-3.74-10h-26.9l-3.73,10a4.58,4.58,0,0,1-4.21,2.9,4.46,4.46,0,0,1-4.46-4.46,4.37,4.37,0,0,1,.3-1.6l19.68-50.16a6.34,6.34,0,0,1,5.9-4M463.44,65.63h20.43L473.65,38.37,463.44,65.63m82.37-38.74a5.28,5.28,0,0,1,4.32,8.27L520,78.79h28.06a4.08,4.08,0,0,1,4.1,4.06v.2A4.16,4.16,0,0,1,548,87.21H512.65a5.28,5.28,0,0,1-5.21-5.33,5.35,5.35,0,0,1,.9-2.88L538.5,35.37H511.71a4.21,4.21,0,0,1-4.16-4.21v-.05a4.18,4.18,0,0,1,4.14-4.22h34.12m-30,68.9h0m0,0-10.42,10.42a2.62,2.62,0,0,1-3.69.05l-.05-.05L491.29,95.79h24.52M503.47,0a9.59,9.59,0,0,0-6.82,2.84L486.07,13.42a7,7,0,0,0,4.95,12h11.1a11.26,11.26,0,0,0-1.57,5.74v.05a11.19,11.19,0,0,0,11.16,11.21h13.43L503.72,73.31l-17.6-45a13.35,13.35,0,0,0-24.83,0L441.61,78.44a11.46,11.46,0,0,0,10.68,15.67A11.64,11.64,0,0,0,463,86.78v-.12l2-5.45h17.18l2,5.45h0a11.43,11.43,0,0,0,2.37,3.79,7,7,0,0,0-.71,9.87q.17.2.33.36l10.37,10.42a9.61,9.61,0,0,0,13.59.06l.06-.06,10.35-10.34a7,7,0,0,0,2.12-5,7.64,7.64,0,0,0-.17-1.58H548a11.16,11.16,0,0,0,11.16-11,11,11,0,0,0-3.06-8,11.18,11.18,0,0,0-8-3.43H533.36l22.53-32.66a12.27,12.27,0,0,0-10.08-19.24H522.7a7,7,0,0,0-1.87-6.46L510.3,2.85A9.61,9.61,0,0,0,503.47,0ZM473.54,58.63l.11-.3.12.3Zm42.27,44.16Z" fill="#fff"/><path d="M505.34,7.79a2.62,2.62,0,0,0-3.69,0l0,0L491,18.37h24.85Zm-3.69,98.42a2.62,2.62,0,0,0,3.69.05l.05-.05,10.42-10.42H491.29Zm-6.57-19a4.45,4.45,0,0,0,4.15-6.11L479.6,30.84a6.34,6.34,0,0,0-11.79,0L448.13,81a4.46,4.46,0,0,0,2.49,5.79,4.51,4.51,0,0,0,5.88-2.58l3.73-10h26.9l3.74,10a4.52,4.52,0,0,0,4.21,3ZM463.44,65.63l10.21-27.26,10.22,27.26Zm84.64,13.16H520l30.11-43.63a5.28,5.28,0,0,0-4.32-8.27h-34.1a4.18,4.18,0,0,0-4.16,4.2v.07a4.21,4.21,0,0,0,4.16,4.21H538.5L508.34,79a5.27,5.27,0,0,0,4.31,8.26H548a4.16,4.16,0,0,0,4.16-4.16,4.07,4.07,0,0,0-3.84-4.3Z" fill="#333"/></g></svg>