<svg id="Layer_1" data-name="Layer 1" xmlns="http://www.w3.org/2000/svg" viewBox="0 0 1000 114"><path d="M930.88,110.13A3.5,3.5,0,0,1,929,103.7l6.86-4.47-18.2-3.68a3.5,3.5,0,0,1,.05-6.87l4.84-.9-7.94-1.89a3.5,3.5,0,0,1,.67-6.9l6.82-.27a3.65,3.65,0,0,1-.16-1.48,3.5,3.5,0,0,1,2.51-3,3.5,3.5,0,0,1,2.68-5.75h.17l4.5.22-17.73-25A65.68,65.68,0,0,0,909,52.59a3.5,3.5,0,0,1-2.56,1.94,4,4,0,0,1-.59,0,3.52,3.52,0,0,1-2.48-1L897.78,48a3.5,3.5,0,0,1-.74-3.87,67.38,67.38,0,0,1,7.77-13.5l-5.56-7.85a8.43,8.43,0,0,1-1,.34,3.71,3.71,0,0,1-.93.12,3.49,3.49,0,0,1-2.94-1.61l-4.13-6.42a3.54,3.54,0,0,1-.55-1.84c-.1-5.75,3.7-9.63,9.67-9.88h.15a3.5,3.5,0,0,1,1.89.55l6.43,4.13a3.5,3.5,0,0,1,1.48,3.9c-.1.32-.21.65-.33,1l7.79,5.52a67.05,67.05,0,0,1,13.91-8.08,3.4,3.4,0,0,1,1.39-.29,3.5,3.5,0,0,1,2.48,1l5.55,5.55a3.5,3.5,0,0,1-.94,5.61,71.49,71.49,0,0,0-9.31,5.46L959.15,48.6l.09-9.82a3.5,3.5,0,0,1,6.58-1.63l1.36,2.51,1.57-6.1a3.48,3.48,0,0,1,3.3-2.63h.09a3.51,3.51,0,0,1,3.34,2.45l1.35,4.34,3-13.33a3.49,3.49,0,0,1,3.41-2.73h.29A3.51,3.51,0,0,1,986.73,25l1.43,23.76,1.58-1.82a3.52,3.52,0,0,1,2.65-1.21,3.69,3.69,0,0,1,1.21.22,3.5,3.5,0,0,1,2.28,3.26l.25,39a3.51,3.51,0,0,1-2.59,3.41l2.89,14.52A3.5,3.5,0,0,1,993,110.3a3.82,3.82,0,0,1-.68-.06l-14.39-2.87a3.5,3.5,0,0,1-3.48,3.13Zm35.18-30.26-2.23-5.8L933.15,47l27.11,30.68Z" fill="#333"/><path d="M899.52,7,906,11.13a10.27,10.27,0,0,1-1.53,3L916.9,23a62,62,0,0,1,15.19-9.25l5.54,5.54a72.26,72.26,0,0,0-13.71,8.69l62.14,44L993,106.8l-34.84-6.93-44-62.13a68,68,0,0,0-8.33,13.34l-5.55-5.55a62.72,62.72,0,0,1,8.92-14.79L900.3,18.22a9.72,9.72,0,0,1-3,1.53l-4.12-6.43c-.07-4,2.27-6.15,6.32-6.32h0m72.63,79L966.79,72,920.38,31h0c-1.09,1-2.16,2.09-3.18,3.19l41,46.41L972.15,86m11.09-60.79h0m0,0h0m0,0h0l2,32.32,7.19-8.3.25,39L989.46,70,962.62,50.89l.13-12.07,5.61,10.36,3.78-14.75,5.24,16.83,5.86-26.1M927.13,72h0m0,0h0l7.32.37,21.83,31.47L974.45,107l-43.54-.37,14-9.14-26.59-5.37,21.1-3.9-24-5.74,22.08-.85-12.08-4,7.56-.85L927.13,72M899.52,0h-.29c-7.92.33-13.16,5.73-13,13.43a7,7,0,0,0,1.11,3.67l4.12,6.43a7,7,0,0,0,5.89,3.21h.44l2.75,3.89a71.5,71.5,0,0,0-6.68,12.12,7,7,0,0,0,1.47,7.73L900.85,56a7,7,0,0,0,4.95,2A7.94,7.94,0,0,0,907,58a7,7,0,0,0,5.13-3.88c.67-1.4,1.38-2.77,2.14-4.09L925.08,65.3a6.91,6.91,0,0,0-3.48,2.4A7,7,0,0,0,920.19,73a7.12,7.12,0,0,0-1.4,2.4l-3.64.14a7,7,0,0,0-2.92,13.23,6.9,6.9,0,0,0-.88,3.34A7,7,0,0,0,917,99l9.84,2a7,7,0,0,0,4.05,12.66l43.55.37h.06a7,7,0,0,0,5.49-2.66l11.68,2.33a7.14,7.14,0,0,0,1.37.13,7,7,0,0,0,6.87-8.36l-2.42-12.15a7,7,0,0,0,2.18-5.12l-.25-39a7,7,0,0,0-8.1-6.87l-1-17.33a7,7,0,0,0-6.36-6.75,4.58,4.58,0,0,0-.64,0,7.28,7.28,0,0,0-.93.07,7,7,0,0,0-5.13,3.43,6.67,6.67,0,0,0-.8,2.1l-1,4.47a7,7,0,0,0-3.23-.79H972a7,7,0,0,0-6.51,4.93,7.11,7.11,0,0,0-2.7-.54,7,7,0,0,0-7,6.93l0,3.13L936.12,28q2.22-1.3,4.59-2.46a7,7,0,0,0,1.87-11.24L937,8.75a7,7,0,0,0-5-2,7.13,7.13,0,0,0-2.78.57,71.91,71.91,0,0,0-12.55,7l-3.81-2.7a7,7,0,0,0-3.21-6.32L903.3,1.11A7,7,0,0,0,899.52,0Z" fill="#fff"/></svg>