<svg id="Layer_1" data-name="Layer 1" xmlns="http://www.w3.org/2000/svg" viewBox="0 0 1000 114"><path d="M941,100.5V107h-6.5v-6.5H941m0-7h-6.5a7,7,0,0,0-7,7V107a7,7,0,0,0,7,7H941a7,7,0,0,0,7-7v-6.5A7,7,0,0,0,941,93.5Z" fill="#fff"/><path d="M927.2,72.8V107h-5v-5h-6.9v5H904.9v-5H898v5h-5V72.8h34.2m-11.9,8.4h6.9V77.7h-6.9v3.5m-17.3,0h6.9V77.7H898v3.5m17.3,7h6.9V84.7h-6.9v3.5m-17.3,0h6.9V84.7H898v3.5m17.3,6.9h6.9V91.6h-6.9v3.5m-17.3,0h6.9V91.6H898v3.5m29.2-29.3H893a7,7,0,0,0-7,7V107a7,7,0,0,0,7,7h5a7.06,7.06,0,0,1,6.9,0h10.4a7.06,7.06,0,0,1,6.9,0h5a7,7,0,0,0,7-7V72.8a7,7,0,0,0-7-7Z" fill="#fff"/><path d="M941,86.7v10h-6.5v-10H941m0-7h-6.5a7,7,0,0,0-7,7h0v10a7,7,0,0,0,7,7H941a7,7,0,0,0,7-7v-10a7,7,0,0,0-7-7Z" fill="#fff"/><path d="M961.8,31.2v10h-6.5v-10h6.5m0-7h-6.5a7,7,0,0,0-7,7v10a7,7,0,0,0,7,7h6.5a7,7,0,0,0,7-7v-10A7,7,0,0,0,961.8,24.2Z" fill="#fff"/><path d="M941,45.1v10h-6.5v-10H941m0-7h-6.5a7,7,0,0,0-7,7v10a7,7,0,0,0,7,7H941a7,7,0,0,0,7-7v-10A7,7,0,0,0,941,38.1Z" fill="#fff"/><path d="M941,31.2v10h-6.5v-10H941m0-7h-6.5a7,7,0,0,0-7,7v10a7,7,0,0,0,7,7H941a7,7,0,0,0,7-7v-10A7,7,0,0,0,941,24.2Z" fill="#fff"/><path d="M941,72.8v10h-6.5v-10H941m0-7h-6.5a7,7,0,0,0-7,7v10a7,7,0,0,0,7,7H941a7,7,0,0,0,7-7v-10A7,7,0,0,0,941,65.8Z" fill="#fff"/><path d="M941,59V69h-6.5V59H941m0-7h-6.5a7,7,0,0,0-7,7V69a7,7,0,0,0,7,7H941a7,7,0,0,0,7-7V59A7,7,0,0,0,941,52Z" fill="#fff"/><path d="M961.8,17.4v10h-6.5v-10h6.5m0-7h-6.5a7,7,0,0,0-7,7v10a7,7,0,0,0,7,7h6.5a7,7,0,0,0,7-7v-10A7,7,0,0,0,961.8,10.4Z" fill="#fff"/><path d="M993,32.7V48.2H972.7V44.3L993,32.7m0-7a7.3,7.3,0,0,0-3.5.9L969.1,38.2a6.93,6.93,0,0,0-3.5,6.1v3.8a7,7,0,0,0,7,7H993a7,7,0,0,0,7-7h0V32.7A7,7,0,0,0,993,25.7Z" fill="#fff"/><path d="M899.9,57v5H896V57h3.9m0-7H896a7,7,0,0,0-7,7v5a7,7,0,0,0,7,7h3.9a7,7,0,0,0,7-7V57A7,7,0,0,0,899.9,50Z" fill="#fff"/><path d="M924.5,65.9l1.5,3H894.2l1.5-3h28.8m0-7H895.7a7,7,0,0,0-6.3,3.9l-1.5,3a7,7,0,0,0,3.1,9.4,7.22,7.22,0,0,0,3.2.8H926a7,7,0,0,0,7-7,7.83,7.83,0,0,0-.7-3.1l-1.5-3a7,7,0,0,0-6.3-4Z" fill="#fff"/><path d="M961.8,7v6.5h-6.5V7h6.5m0-7h-6.5a7,7,0,0,0-7,7v6.5a7,7,0,0,0,7,7h6.5a7,7,0,0,0,7-7V7A7,7,0,0,0,961.8,0Z" fill="#fff"/><path d="M961.8,45.1v10h-6.5v-10h6.5m0-7h-6.5a7,7,0,0,0-7,7v10a7,7,0,0,0,7,7h6.5a7,7,0,0,0,7-7v-10A7,7,0,0,0,961.8,38.1Z" fill="#fff"/><path d="M993,52V75.8H972.7V52H993m0-7H972.7a7,7,0,0,0-7,7V75.8a7,7,0,0,0,7,7H993a7,7,0,0,0,7-7V52A7,7,0,0,0,993,45Z" fill="#fff"/><path d="M993,79.7V107h-6.7v-5h-6.9v5h-6.7V79.7H993m0-7H972.7a7,7,0,0,0-7,7V107a7,7,0,0,0,7,7h6.7a7.06,7.06,0,0,1,6.9,0H993a7,7,0,0,0,7-7V79.7A7,7,0,0,0,993,72.7Z" fill="#fff"/><path d="M951.4,31.2v10H945v-10h6.4m.1-7H945a7,7,0,0,0-7,7v10a7,7,0,0,0,7,7h6.5a7,7,0,0,0,7-7v-10A7,7,0,0,0,951.5,24.2Z" fill="#fff"/><path d="M961.8,100.5V107h-6.5v-6.5h6.5m0-7h-6.5a7,7,0,0,0-7,7V107a7,7,0,0,0,7,7h6.5a7,7,0,0,0,7-7v-6.5A7,7,0,0,0,961.8,93.5Z" fill="#fff"/><path d="M951.4,17.4v10H945v-10h6.4m.1-7H945a7,7,0,0,0-7,7v10a7,7,0,0,0,7,7h6.5a7,7,0,0,0,7-7v-10A7,7,0,0,0,951.5,10.4Z" fill="#fff"/><path d="M951.4,7v6.5H945V7h6.4m.1-7H945a7,7,0,0,0-7,7v6.5a7,7,0,0,0,7,7h6.5a7,7,0,0,0,7-7V7A7,7,0,0,0,951.5,0Z" fill="#fff"/><path d="M961.8,59V69h-6.5V59h6.5m0-7h-6.5a7,7,0,0,0-7,7V69a7,7,0,0,0,7,7h6.5a7,7,0,0,0,7-7V59A7,7,0,0,0,961.8,52Z" fill="#fff"/><path d="M961.8,86.7v10h-6.5v-10h6.5m0-7h-6.5a7,7,0,0,0-7,7h0v10a7,7,0,0,0,7,7h6.5a7,7,0,0,0,7-7v-10a7,7,0,0,0-7-7Z" fill="#fff"/><path d="M961.8,72.8v10h-6.5v-10h6.5m0-7h-6.5a7,7,0,0,0-7,7v10a7,7,0,0,0,7,7h6.5a7,7,0,0,0,7-7v-10A7,7,0,0,0,961.8,65.8Z" fill="#fff"/><path d="M941,17.4v10h-6.5v-10H941m0-7h-6.5a7,7,0,0,0-7,7v10a7,7,0,0,0,7,7H941a7,7,0,0,0,7-7v-10A7,7,0,0,0,941,10.4Z" fill="#fff"/><path d="M951.4,86.7v10H945v-10h6.4m.1-7H945a7,7,0,0,0-7,7h0v10a7,7,0,0,0,7,7h6.5a7,7,0,0,0,7-7v-10a7,7,0,0,0-7-7Z" fill="#fff"/><path d="M951.4,100.5V107H945v-6.5h6.4m.1-7H945a7,7,0,0,0-7,7V107a7,7,0,0,0,7,7h6.5a7,7,0,0,0,7-7v-6.5A7,7,0,0,0,951.5,93.5Z" fill="#fff"/><path d="M941,7v6.5h-6.5V7H941m0-7h-6.5a7,7,0,0,0-7,7v6.5a7,7,0,0,0,7,7H941a7,7,0,0,0,7-7V7A7,7,0,0,0,941,0Z" fill="#fff"/><path d="M951.4,59V69H945V59h6.4m.1-7H945a7,7,0,0,0-7,7V69a7,7,0,0,0,7,7h6.5a7,7,0,0,0,7-7V59A7,7,0,0,0,951.5,52Z" fill="#fff"/><path d="M951.4,45.1v10H945v-10h6.4m.1-7H945a7,7,0,0,0-7,7v10a7,7,0,0,0,7,7h6.5a7,7,0,0,0,7-7v-10A7,7,0,0,0,951.5,38.1Z" fill="#fff"/><path d="M951.4,72.8v10H945v-10h6.4m.1-7H945a7,7,0,0,0-7,7v10a7,7,0,0,0,7,7h6.5a7,7,0,0,0,7-7v-10A7,7,0,0,0,951.5,65.8Z" fill="#fff"/><path d="M934.6,7v6.5h6.5V7ZM945,7v6.5h6.5V7Zm10.4,0v6.5h6.5V7ZM934.6,17.4v10h6.5v-10Zm10.4,0v10h6.5v-10Zm10.3,0v10h6.5v-10ZM934.6,31.2v10h6.5v-10Zm10.4,0v10h6.5v-10Zm10.3,0v10h6.5v-10ZM993,32.7,972.7,44.3v3.8H993ZM934.6,45.1v10h6.5v-10Zm10.4,0v10h6.5v-10Zm10.3,0v10h6.5v-10ZM972.7,52V75.8H993V52ZM896,57v5h3.9V57Zm38.5,2V69H941V59ZM945,59V69h6.5V59Zm10.4,0V69h6.5V59Zm-59.6,6.9-1.5,3H926l-1.5-3ZM893,72.8V107h5v-5h6.9v5h10.4v-5h6.9v5h5V72.8Zm41.6,0v10h6.5v-10Zm10.4,0v10h6.5v-10Zm10.3,0v10h6.5v-10Zm-57.3,5h6.9v3.5H898Zm17.3,0h6.9v3.5h-6.9Zm57.4,2V107h6.7v-5h6.9v5H993V79.7Zm-74.7,5h6.9v3.5H898Zm17.3,0h6.9v3.5h-6.9Zm19.3,1.9v10h6.5v-10Zm10.4,0v10h6.5v-10Zm10.3,0v10h6.5v-10Zm-57.3,5h6.9v3.4H898Zm17.3,0h6.9v3.4h-6.9Zm19.3,8.9V107h6.5v-6.5Zm10.4,0V107h6.5v-6.5Zm10.3,0V107h6.5v-6.5Z" fill="#333"/></svg>