<svg id="Layer_1" data-name="Layer 1" xmlns="http://www.w3.org/2000/svg" viewBox="0 0 1000 114"><path d="M498,100.5V107h-6.5v-6.5H498m0-7h-6.5a7,7,0,0,0-7,7V107a7,7,0,0,0,7,7H498a7,7,0,0,0,7-7v-6.5A7,7,0,0,0,498,93.5Z" fill="#fff"/><path d="M484.2,72.8V107h-5v-5h-6.9v5H461.9v-5H455v5h-5V72.8h34.2m-11.9,8.4h6.9V77.7h-6.9v3.5m-17.3,0h6.9V77.7H455v3.5m17.3,7h6.9V84.7h-6.9v3.5m-17.3,0h6.9V84.7H455v3.5m17.3,6.9h6.9V91.6h-6.9v3.5m-17.3,0h6.9V91.6H455v3.5m29.2-29.3H450a7,7,0,0,0-7,7V107a7,7,0,0,0,7,7h5a7.3,7.3,0,0,0,3.5-.9,7,7,0,0,0,3.5.9h10.4a7.3,7.3,0,0,0,3.5-.9,7,7,0,0,0,3.5.9h5a7,7,0,0,0,7-7V72.8a7.26,7.26,0,0,0-7.2-7Z" fill="#fff"/><path d="M498,86.7v10h-6.5v-10H498m0-7h-6.5a7,7,0,0,0-7,7h0v10a7,7,0,0,0,7,7H498a7,7,0,0,0,7-7v-10a7,7,0,0,0-7-7Z" fill="#fff"/><path d="M518.8,31.2v10h-6.5v-10h6.5m0-7h-6.5a7,7,0,0,0-7,7v10a7,7,0,0,0,7,7h6.5a7,7,0,0,0,7-7v-10A7,7,0,0,0,518.8,24.2Z" fill="#fff"/><path d="M498,45.1v10h-6.5v-10H498m0-7h-6.5a7,7,0,0,0-7,7v10a7,7,0,0,0,7,7H498a7,7,0,0,0,7-7v-10A7,7,0,0,0,498,38.1Z" fill="#fff"/><path d="M498,31.2v10h-6.5v-10H498m0-7h-6.5a7,7,0,0,0-7,7v10a7,7,0,0,0,7,7H498a7,7,0,0,0,7-7v-10A7,7,0,0,0,498,24.2Z" fill="#fff"/><path d="M498,72.8v10h-6.5v-10H498m0-7h-6.5a7,7,0,0,0-7,7v10a7,7,0,0,0,7,7H498a7,7,0,0,0,7-7v-10A7,7,0,0,0,498,65.8Z" fill="#fff"/><path d="M498,59V69h-6.5V59H498m0-7h-6.5a7,7,0,0,0-7,7V69a7,7,0,0,0,7,7H498a7,7,0,0,0,7-7V59A7,7,0,0,0,498,52Z" fill="#fff"/><path d="M518.8,17.4v10h-6.5v-10h6.5m0-7h-6.5a7,7,0,0,0-7,7v10a7,7,0,0,0,7,7h6.5a7,7,0,0,0,7-7v-10A7,7,0,0,0,518.8,10.4Z" fill="#fff"/><path d="M550,32.7V48.2H529.7V44.3L550,32.7m0-7a7.3,7.3,0,0,0-3.5.9L526.1,38.2a6.93,6.93,0,0,0-3.5,6.1v3.8a7,7,0,0,0,7,7H550a7,7,0,0,0,7-7h0V32.7A7,7,0,0,0,550,25.7Z" fill="#fff"/><path d="M456.9,57v5H453V57h3.9m0-7H453a7,7,0,0,0-7,7v5a7,7,0,0,0,7,7h3.9a7,7,0,0,0,7-7V57A7,7,0,0,0,456.9,50Z" fill="#fff"/><path d="M481.5,65.9l1.5,3H451.2l1.5-3h28.8m0-7H452.7a7,7,0,0,0-6.3,3.9l-1.5,3a7,7,0,0,0,3.1,9.4,7.22,7.22,0,0,0,3.2.8H483a7,7,0,0,0,7-7,7.83,7.83,0,0,0-.7-3.1l-1.5-3a7,7,0,0,0-6.3-4Z" fill="#fff"/><path d="M518.8,7v6.5h-6.5V7h6.5m0-7h-6.5a7,7,0,0,0-7,7v6.5a7,7,0,0,0,7,7h6.5a7,7,0,0,0,7-7V7A7,7,0,0,0,518.8,0Z" fill="#fff"/><path d="M518.8,45.1v10h-6.5v-10h6.5m0-7h-6.5a7,7,0,0,0-7,7v10a7,7,0,0,0,7,7h6.5a7,7,0,0,0,7-7v-10A7,7,0,0,0,518.8,38.1Z" fill="#fff"/><path d="M550,52V75.8H529.7V52H550m0-7H529.7a7,7,0,0,0-7,7V75.8a7,7,0,0,0,7,7H550a7,7,0,0,0,7-7V52A7,7,0,0,0,550,45Z" fill="#fff"/><path d="M550,79.7V107h-6.7v-5h-6.9v5h-6.7V79.7H550m0-7H529.7a7,7,0,0,0-7,7V107a7,7,0,0,0,7,7h6.7a7.3,7.3,0,0,0,3.5-.9,7,7,0,0,0,3.5.9h6.7a7,7,0,0,0,7-7V79.7A7.17,7.17,0,0,0,550,72.7Z" fill="#fff"/><path d="M508.4,31.2v10H502v-10h6.4m.1-7H502a7,7,0,0,0-7,7v10a7,7,0,0,0,7,7h6.5a7,7,0,0,0,7-7v-10A7,7,0,0,0,508.5,24.2Z" fill="#fff"/><path d="M518.8,100.5V107h-6.5v-6.5h6.5m0-7h-6.5a7,7,0,0,0-7,7V107a7,7,0,0,0,7,7h6.5a7,7,0,0,0,7-7v-6.5A7,7,0,0,0,518.8,93.5Z" fill="#fff"/><path d="M508.4,17.4v10H502v-10h6.4m.1-7H502a7,7,0,0,0-7,7v10a7,7,0,0,0,7,7h6.5a7,7,0,0,0,7-7v-10A7,7,0,0,0,508.5,10.4Z" fill="#fff"/><path d="M508.4,7v6.5H502V7h6.4m.1-7H502a7,7,0,0,0-7,7v6.5a7,7,0,0,0,7,7h6.5a7,7,0,0,0,7-7V7A7,7,0,0,0,508.5,0Z" fill="#fff"/><path d="M518.8,59V69h-6.5V59h6.5m0-7h-6.5a7,7,0,0,0-7,7V69a7,7,0,0,0,7,7h6.5a7,7,0,0,0,7-7V59A7,7,0,0,0,518.8,52Z" fill="#fff"/><path d="M518.8,86.7v10h-6.5v-10h6.5m0-7h-6.5a7,7,0,0,0-7,7h0v10a7,7,0,0,0,7,7h6.5a7,7,0,0,0,7-7v-10a7,7,0,0,0-7-7Z" fill="#fff"/><path d="M518.8,72.8v10h-6.5v-10h6.5m0-7h-6.5a7,7,0,0,0-7,7v10a7,7,0,0,0,7,7h6.5a7,7,0,0,0,7-7v-10A7,7,0,0,0,518.8,65.8Z" fill="#fff"/><path d="M498,17.4v10h-6.5v-10H498m0-7h-6.5a7,7,0,0,0-7,7v10a7,7,0,0,0,7,7H498a7,7,0,0,0,7-7v-10A7,7,0,0,0,498,10.4Z" fill="#fff"/><path d="M508.4,86.7v10H502v-10h6.4m.1-7H502a7,7,0,0,0-7,7h0v10a7,7,0,0,0,7,7h6.5a7,7,0,0,0,7-7v-10a7,7,0,0,0-7-7Z" fill="#fff"/><path d="M508.4,100.5V107H502v-6.5h6.4m.1-7H502a7,7,0,0,0-7,7V107a7,7,0,0,0,7,7h6.5a7,7,0,0,0,7-7v-6.5A7,7,0,0,0,508.5,93.5Z" fill="#fff"/><path d="M498,7v6.5h-6.5V7H498m0-7h-6.5a7,7,0,0,0-7,7v6.5a7,7,0,0,0,7,7H498a7,7,0,0,0,7-7V7A7,7,0,0,0,498,0Z" fill="#fff"/><path d="M508.4,59V69H502V59h6.4m.1-7H502a7,7,0,0,0-7,7V69a7,7,0,0,0,7,7h6.5a7,7,0,0,0,7-7V59A7,7,0,0,0,508.5,52Z" fill="#fff"/><path d="M508.4,45.1v10H502v-10h6.4m.1-7H502a7,7,0,0,0-7,7v10a7,7,0,0,0,7,7h6.5a7,7,0,0,0,7-7v-10A7,7,0,0,0,508.5,38.1Z" fill="#fff"/><path d="M508.4,72.8v10H502v-10h6.4m.1-7H502a7,7,0,0,0-7,7v10a7,7,0,0,0,7,7h6.5a7,7,0,0,0,7-7v-10A7,7,0,0,0,508.5,65.8Z" fill="#fff"/><path d="M491.6,7v6.5h6.5V7ZM502,7v6.5h6.5V7Zm10.4,0v6.5h6.5V7ZM491.6,17.4v10h6.5v-10Zm10.4,0v10h6.5v-10Zm10.3,0v10h6.5v-10ZM491.6,31.2v10h6.5v-10Zm10.4,0v10h6.5v-10Zm10.3,0v10h6.5v-10ZM550,32.7,529.7,44.3v3.8H550ZM491.6,45.1v10h6.5v-10Zm10.4,0v10h6.5v-10Zm10.3,0v10h6.5v-10ZM529.7,52V75.8H550V52ZM453,57v5h3.9V57Zm38.5,2V69H498V59ZM502,59V69h6.5V59Zm10.4,0V69h6.5V59Zm-59.6,6.9-1.5,3H483l-1.5-3ZM450,72.8V107h5v-5h6.9v5h10.4v-5h6.9v5h5V72.8Zm41.6,0v10h6.5v-10Zm10.4,0v10h6.5v-10Zm10.3,0v10h6.5v-10Zm-57.3,5h6.9v3.5H455Zm17.3,0h6.9v3.5h-6.9Zm57.4,2V107h6.7v-5h6.9v5H550V79.7Zm-74.7,5h6.9v3.5H455Zm17.3,0h6.9v3.5h-6.9Zm19.3,1.9v10h6.5v-10Zm10.4,0v10h6.5v-10Zm10.3,0v10h6.5v-10Zm-57.3,5h6.9v3.4H455Zm17.3,0h6.9v3.4h-6.9Zm19.3,8.9V107h6.5v-6.5Zm10.4,0V107h6.5v-6.5Zm10.3,0V107h6.5v-6.5Z" fill="#333"/></svg>