<svg xmlns="http://www.w3.org/2000/svg" viewBox="0 0 1000 114.00817"><title>logo_right</title><g id="Layer_2" data-name="Layer 2"><rect x="666.62404" y="40.57034" width="13.55556" height="15.11111" fill="#fff"/><rect x="793.29071" y="39.55439" width="29.33333" height="14.12706" fill="#fff"/><rect x="834.1796" y="50.12589" width="19.37545" height="14.78229" fill="#fff"/><rect x="891.04386" y="48.12589" width="54.02462" height="27.33333" fill="#fff"/></g><g id="Layer_1" data-name="Layer 1"><path d="M586.66473,110.50035a3.49211,3.49211,0,0,1-1.08154-.17187l-21.23877-6.90332a3.4981,3.4981,0,0,1-2.418-3.32813V98.53062a54.4242,54.4242,0,0,1-13.17236,1.6084,59.43962,59.43962,0,0,1-9.83789-.83789c-.88721-.13867-1.83838-.28222-2.80225-.42773-11.4707-1.73047-23.332-3.52051-23.82715-11.57031-.39746-6.45508,4.34375-12.1836,12.40577-15.03907a3.44978,3.44978,0,0,1,1.00048-.3164l.05811-.01465,30.147-10.19531,6.02832-2.03125V6.99986a3.49934,3.49934,0,0,1,4.39551-3.3833L593.40155,10.785c20.35547,5.50391,30.57471,16.59814,30.39209,32.98-.2168,22.60156-12.53418,25.97656-19.85742,25.97656a36.27761,36.27761,0,0,1-10.019-1.59375,3.49936,3.49936,0,0,1-2.522-3.36035V28.5526a2.199,2.199,0,0,0-.82812-.15039,2.24445,2.24445,0,0,0-.314.02148l-.04834,43.26221,16.42969,5.0664a3.5,3.5,0,0,1,.09863,6.65723L590.18524,89.055l-.00342,2.99609,16.29932,5.15137a3.49964,3.49964,0,0,1,.09473,6.64258L587.99139,110.306a3.49208,3.49208,0,0,1-1.14892.19531C586.80927,110.50133,586.6911,110.50035,586.66473,110.50035Zm-38.10351-27.0957,13.36523-4.49512V78.6107Z"/><path d="M565.4262,7.00007l27.07966,7.16809C609.851,18.85847,620.47039,27.885,620.29339,43.72572c-.14158,14.79964-5.6084,22.5161-16.357,22.5161a32.6828,32.6828,0,0,1-9.04117-1.45416V28.32748c.04635-2.27082-2.18844-3.42526-4.32807-3.4252-1.94611.00006-3.81353.95524-3.81353,2.89423l-.05193,46.4715,18.90147,5.8294-18.91522,6.45241-.009,8.06525,18.74725,5.92478-18.58409,6.46022-.17663-.35322L586.66511,107l-21.23891-6.90266V93.84351a50.62376,50.62376,0,0,1-16.67112,2.79571,55.74028,55.74028,0,0,1-9.25807-.78959c-10.177-1.593-23.36284-3.00887-23.71681-8.76106-.35313-5.73791,4.92959-9.80181,10.48956-11.6665l-.04709-.01491a3.8307,3.8307,0,0,0,.4425-.08856L557.0191,65.05316l8.4071-2.83184V7.00007M542.54691,88.59714a9.71312,9.71312,0,0,0,3.14479-.53513l10-3.36285h0l9.73449,3.15715v-.05981l-9.73449-3.09734h0l9.7345-3.27434v-7.7876l-20.932,7.50732.04706.01484L539.674,82.84076c-5.00176,1.8389-1.99462,5.75638,2.8729,5.75638M565.42653,0a7.00014,7.00014,0,0,0-7.00033,7.00007V57.19274l-3.64163,1.22664L524.85542,68.54117a6.96321,6.96321,0,0,0-1.54731.50075c-9.46532,3.42784-15.00852,10.45226-14.51469,18.47662.33781,5.48981,4.31906,9.46893,11.83309,11.82684a103.79624,103.79624,0,0,0,14.97228,2.99009c.94214.14215,1.87168.28235,2.77734.42394a63.00334,63.00334,0,0,0,10.37894.87982,58.12575,58.12575,0,0,0,10.19-.89621,6.99989,6.99989,0,0,0,4.31757,4.01158l21.23891,6.90266a6.9967,6.9967,0,0,0,1.83951.33531q.23248.01555.46719.0156a7.09439,7.09439,0,0,0,2.33233-.3962l18.5841-6.46021a7,7,0,0,0-.189-13.2865L596.83649,90.484l11.02662-3.76142a7,7,0,0,0-.197-13.31422l-1.01091-.31177c7.72378-.82743,20.41276-5.77906,20.63784-29.30386.10672-9.55078-3.0429-17.61772-9.36153-23.9655-5.53115-5.55665-13.25028-9.61806-23.59843-12.41634L567.21745.23313A6.99707,6.99707,0,0,0,565.42653,0Z" fill="#fff"/><path d="M636.22284,93.15465a3.48868,3.48868,0,0,1-1.05762-.16406L615.342,86.70738a3.49924,3.49924,0,0,1-1.47363-5.75293l-7.062,2.37207a3.49932,3.49932,0,0,1-2.14649.02735l-18.938-5.84082a3.5005,3.5005,0,0,1-.1792-6.62891s1.74561-.64258,1.77784-.65332c11.272-3.78809,20.56347-5.55273,29.23974-5.55273,1.48731,0,2.97754.05273,4.4292.1582,18.24463,1.3789,27.9585,5.76855,29.707,13.41992.66309,2.7832.74219,9.84668-12.96972,14.61621-.10059.03516-.20313.06543-.30665.09082l-.354.08789A3.476,3.476,0,0,1,636.22284,93.15465Z"/><path d="M616.56124,68.17792q2.08284,0,4.17466.14955c15.22125,1.15044,25.13275,4.51329,26.54865,10.70794.885,3.7168-2.56635,7.6991-10.70795,10.531l-.35395.08855-19.82305-6.2832,5.48675-1.8584c8.8501-2.83205,7.67543-5.83364.9147-5.83364a34.12112,34.12112,0,0,0-6.04745.61239l-11.062,3.7168-18.938-5.8407,1.68145-.6195c9.19273-3.09,18.58771-5.37074,28.12619-5.37074m0-7c-9.06915,0-18.71512,1.82253-30.3565,5.73555q-.09532.03207-.1897.06683l-1.68145.6195a7,7,0,0,0,.357,13.25747l18.938,5.8407a6.99973,6.99973,0,0,0,4.2925-.05365l1.98153-.66579a7.00005,7.00005,0,0,0,4.38187,4.066l19.82305,6.2832a7.0003,7.0003,0,0,0,3.81393.1179l.354-.08855q.30423-.07612.60075-.17925c16.798-5.84277,15.92061-15.76139,15.22677-18.72649-2.86226-12.42485-20.11065-15.14191-32.83952-16.104-1.55615-.113-3.13118-.16945-4.70223-.16945Zm6.31345,12.37531,0,0,0,0Z" fill="#fff"/><path d="M605.42645,104.03941a3.5024,3.5024,0,0,1-1.05908-.16406l-18.67285-5.92871a3.5,3.5,0,0,1-2.44092-3.33594V93.54918a3.50044,3.50044,0,0,1,2.36621-3.31152l29.46924-10.08887a3.50718,3.50718,0,0,1,2.16943-.03223L637.258,86.3109a3.50018,3.50018,0,0,1,.13085,6.64355L606.593,103.83922A3.49038,3.49038,0,0,1,605.42645,104.03941Z"/><path d="M616.22265,83.46021l20,6.19471-30.79638,10.88495v-.00007L586.7536,94.61066v-1.062l29.46905-10.08849m0-7a6.99935,6.99935,0,0,0-2.26725.37733l-29.469,10.0885a7,7,0,0,0-4.73278,6.62266v1.062a7,7,0,0,0,4.88152,6.67174l18.67262,5.92914a7,7,0,0,0,4.45119-.07186L638.55531,96.2548a7,7,0,0,0-.26162-13.28648l-20-6.19471a6.99931,6.99931,0,0,0-2.07106-.3134Z" fill="#fff"/><rect x="695.22479" y="29.11998" width="14.69287" height="56.51514" rx="3.5"/><path d="M706.41767,32.62006V82.13544h-7.69276V32.62006h7.69276m0-7h-7.69276a7,7,0,0,0-7,7V82.13544a7,7,0,0,0,7,7h7.69276a7,7,0,0,0,7-7V32.62006a7,7,0,0,0-7-7Z" fill="#fff"/><path d="M728.73749,85.41832c-.7544,0-7.48291-.043-11.33985-1.53613-4.67089-1.86719-7.3291-6.72461-7.3291-13.33985,0-5.56054,1.73975-9.70507,5.17139-12.31933,3.25684-2.60742,8.03516-3.0044,10.5874-3.0044.33545,0,.582.00782.71533.01319h4.687a3.51249,3.51249,0,0,1,.96191.13379,3.68191,3.68191,0,0,0-.8335-1.97657c-.02929-.03515-.0581-.07129-.08593-.10742a5.023,5.023,0,0,0-2.59278-.584s-10.19824.3247-10.23535.3247a3.49982,3.49982,0,0,1-3.5-3.5V44.43a3.49954,3.49954,0,0,1,3.40723-3.49854L730.59,40.60631c-.0044,0,.1665-.00635.45459-.00635,2.09179,0,7.33886.29248,10.87353,3.00244,3.49805,2.83106,5.16309,6.83936,5.16309,12.3125V81.5941a3.49953,3.49953,0,0,1-3.42334,3.499S728.76288,85.41832,728.73749,85.41832Zm-.1084-18.85254c-1.95361,0-2.38281.41992-2.44873.50488-.57031.68653-.87695,1.05469-.87695,2.92969,0,2.67774.44824,2.97656.71582,3.15527.06591.04395.13086.08985.19336.13868.17334.13281,1.01464.56543,4.58251.57422l1.66651-.10645-.07861-7.39063a3.495,3.495,0,0,1-1.15332.19434Z"/><path d="M731.04538,44.10023c1.319,0,5.97483.15738,8.74362,2.28008,2.27533,1.842,3.79225,4.659,3.79225,9.53474V81.59371l-14.84383.325s-6.71758,0-10.07641-1.30018c-3.25043-1.30021-5.09241-4.98406-5.09241-10.07647,0-4.87568,1.51691-7.80109,3.79223-9.53466,2.60051-2.0804,6.86535-2.28836,8.467-2.28834.40028,0,.63437.013.63437.013h4.76732V63.066H728.6291c-1.95027,0-4.00885.32507-5.20075,1.842-1.08349,1.30017-1.62519,2.492-1.62519,5.09241,0,3.35876.65009,4.984,2.27532,6.0675,1.40853,1.0835,3.90052,1.30024,6.82594,1.30024l5.09241-.32509-.21673-20.36956a8.02014,8.02014,0,0,0-1.73359-5.52583c-1.0835-1.4085-3.46716-1.95024-5.41741-1.95024l-10.18483.32507V44.43005l12.24341-.32506s.12822-.00476.3577-.00476m0-7c-.29879,0-.49812.00545-.578.00813l-12.20887.32415a7,7,0,0,0-6.81421,6.99754v5.09242a7.00006,7.00006,0,0,0,2.12985,5.02809q.16638.16116.342.31-.43941.29532-.8612.62754c-2.97477,2.29139-6.48628,6.75518-6.48628,15.05392,0,8.00156,3.54863,14.1981,9.4926,16.57578l.07287.02867c4.35748,1.68676,11.26324,1.7722,12.60335,1.7722q.07663,0,.15322-.00168l14.84383-.325a7,7,0,0,0,6.84678-6.99832V55.91505c0-6.50558-2.14915-11.544-6.38778-14.97539q-.072-.05831-.14551-.11465c-4.22734-3.24087-9.961-3.72478-13.00258-3.72478ZM728.80328,70.066h.11892l.0026.24552-.119-.00867q-.002-.112-.0025-.23685Z" fill="#fff"/><path d="M660.58612,85.63512a3.50018,3.50018,0,0,1-3.5-3.5V32.62a3.49986,3.49986,0,0,1,3.5-3.5h16.79395c.68945,0,6.84716.05176,10.69043,1.8457,5.87744,2.7002,7.97851,9.9585,7.97851,15.84815,0,5.76123-.60986,11.70215-5.03369,16.12695-2.97022,2.96973-8.105,3.41309-10.90137,3.41309-.18652,0-.32324-.00293-.40039-.00489h-6.77539a3.50321,3.50321,0,0,1-1.15918-.19629V82.13512a3.50017,3.50017,0,0,1-3.5,3.5ZM671.779,55.10387a3.50321,3.50321,0,0,1,1.15918-.19629h4.76709c1.83838,0,2.15039-.54639,2.37842-.94531.019-.03321.03809-.06543.0581-.09766a23.99285,23.99285,0,0,0,.56446-6.18408c0-3.28321-.59522-5.21387-1.10449-5.86914-.46436-.45508-2.57276-.92383-4.17188-.92383H671.779Z"/><path d="M677.38019,32.62013s5.95916,0,9.20966,1.51691c4.0089,1.8419,5.95917,7.25933,5.95917,12.67681,0,5.95916-.75843,10.4015-4.00893,13.65192-2.22895,2.22895-7.085,2.38809-8.42663,2.38809-.22354,0-.34961-.00442-.34961-.00442h-6.82593V58.40711h4.76733c1.95027,0,4.11727-.43341,5.41744-2.70874.8668-1.40845,1.08349-5.41743,1.08349-8.01776,0-2.492-.32507-6.0675-1.84192-8.01776-1.73358-2.27534-6.93434-2.27534-6.93434-2.27534h-7.151V82.13556h-7.69277V32.62013h16.79408m0-7H660.58611a7,7,0,0,0-7,7V82.13556a7,7,0,0,0,7,7h7.69277a7,7,0,0,0,7-7V69.84944h4.39142c.10129.0022.25111.00443.44317.00443,3.33808,0,9.51462-.57662,13.37636-4.43836,5.33931-5.33916,6.05919-12.39943,6.05919-18.60166,0-8.89838-3.84583-16.19315-10.03669-19.03757-4.39548-2.05137-10.87772-2.15615-12.13214-2.15615Zm-2.10131,18.76738h.151a9.84615,9.84615,0,0,1,1.50068.159,15.50636,15.50636,0,0,1,.27558,3.13414,35.98381,35.98381,0,0,1-.178,3.7265h-1.74928v-7.0196Z" fill="#fff"/><path d="M753.6579,104.70445a3.49975,3.49975,0,0,1-3.24121-4.82129l7.604-18.65429L744.32147,45.46519a3.50012,3.50012,0,0,1,3.26856-4.752h9.10156a3.50013,3.50013,0,0,1,3.314,2.374l6.23975,18.36132,6.77148-18.44189a3.5005,3.5005,0,0,1,3.28565-2.29346h7.15137a3.50027,3.50027,0,0,1,3.23779,4.82959l-23.40332,56.99072a3.50042,3.50042,0,0,1-3.23779,2.1709Z"/><path d="M783.45361,44.21346h.005m-.005,0-23.40332,56.99137h-6.39258l8.12616-19.93614L747.59015,44.21346h9.10133l9.42633,27.73723,10.18474-27.73723h7.15106m.005-7h-7.15607a7,7,0,0,0-6.571,4.58721l-3.35846,9.14649-3.05388-8.98609a7,7,0,0,0-6.6277-4.74761h-9.10133a7,7,0,0,0-6.53687,9.5039l13.204,34.47137-7.08177,17.37389a7,7,0,0,0,6.48219,9.64221h6.39258a7,7,0,0,0,6.47528-4.341L789.84328,47.081a7.00269,7.00269,0,0,0-6.38466-9.86756Zm-.005,14h0Z" fill="#fff"/><rect x="902.49579" y="40.71324" width="14.69336" height="44.92188" rx="3.5"/><path d="M913.68872,44.21345v37.922H905.996v-37.922h7.69275m0-7H905.996a7,7,0,0,0-7,7v37.922a7,7,0,0,0,7,7h7.69275a7,7,0,0,0,7-7v-37.922a7,7,0,0,0-7-7Z" fill="#fff"/><path d="M938.17548,85.96031c-5.7627,0-10.63379-1.293-13.71387-3.64062-4.28809-3.43067-6.25488-9.498-6.25488-19.14551,0-9.64844,1.96679-15.71533,6.18945-19.09375,2.97754-2.41065,7.74805-3.6919,13.7793-3.6919,5.83984,0,10.69531,1.311,13.67187,3.6919,4.23731,3.38965,6.29688,9.63525,6.29688,19.09375,0,9.75293-2.02149,15.83691-6.36133,19.14453C948.91376,84.61461,943.93134,85.96031,938.17548,85.96031Zm.21679-33.47949a3.8017,3.8017,0,0,0-2.83593.90674c-.5879.70556-1.57325,2.91357-1.57325,9.78662s.98535,9.082,1.57227,9.78711a4.88914,4.88914,0,0,0,5.67383,0c.58691-.70508,1.57226-2.91406,1.57226-9.78711s-.98535-9.08106-1.57226-9.78516A3.79937,3.79937,0,0,0,938.39227,52.48082Z"/><path d="M938.17554,43.88838c5.30914,0,9.318,1.19183,11.485,2.92541s4.984,5.52576,4.984,16.36066-2.70868,14.62706-4.984,16.36065c-2.167,1.73352-6.28424,2.92541-11.485,2.92541-5.30908,0-9.31794-1.19189-11.59326-2.92541-2.167-1.73359-4.87568-5.52581-4.87568-16.36065s2.70868-14.62707,4.87568-16.36066c2.27532-1.842,6.28418-2.92541,11.59326-2.92541m.21673,33.47978a7.06317,7.06317,0,0,0,5.52576-2.167c1.0835-1.30018,2.38367-4.00892,2.38367-12.02674s-1.30017-10.72651-2.38367-12.02668a8.12879,8.12879,0,0,0-11.05157,0c-1.08344,1.30017-2.38367,4.00885-2.38367,12.02668S931.783,73.901,932.86646,75.20119a7.06319,7.06319,0,0,0,5.52581,2.167m-.21673-40.47978c-6.84159,0-12.37351,1.55081-15.99771,4.48476-5.08713,4.06953-7.47123,11.00513-7.47123,21.80131s2.3841,17.73178,7.50284,21.82674q.06473.05178.13062.102c3.74154,2.85058,9.21734,4.35732,15.83548,4.35732,6.59009,0,12.19281-1.5639,15.79022-4.40559,5.23846-4.03148,7.67877-10.98736,7.67877-21.88047,0-10.59-2.48962-17.72957-7.61114-21.82674-3.59458-2.87566-9.22635-4.45933-15.85785-4.45933Zm-.0231,19.10066c.07043-.0051.15023-.00827.23983-.00827s.16938.00317.23981.00827a26.41269,26.41269,0,0,1,.66962,7.18541,26.41632,26.41632,0,0,1-.66962,7.18545c-.07043.00509-.15024.00826-.23981.00826s-.1694-.00317-.23983-.00826a26.41358,26.41358,0,0,1-.66965-7.18545,26.41323,26.41323,0,0,1,.66965-7.18541Z" fill="#fff"/><rect x="902.49579" y="29.11998" width="14.69336" height="13.93457" rx="3.5"/><path d="M913.68872,32.62006v6.93433H905.996V32.62006h7.69275m0-7H905.996a7,7,0,0,0-7,7v6.93433a7,7,0,0,0,7,7h7.69275a7,7,0,0,0,7-7V32.62006a7,7,0,0,0-7-7Z" fill="#fff"/><path d="M962.77118,85.63512a3.50049,3.50049,0,0,1-3.5-3.5V44.53844a3.50054,3.50054,0,0,1,3.43457-3.49951l17.28223-.32422c.12109-.00537.38183-.01465.75195-.01465,2.55273,0,7.33105.397,10.6543,3.05566,3.36621,2.56348,5.10546,6.708,5.10546,12.26758V82.02672a3.50048,3.50048,0,0,1-3.5,3.5h-7.69238a3.50048,3.50048,0,0,1-3.5-3.5v-25.353a4.58506,4.58506,0,0,0-.92285-3.28613c-.02832-.03418-.05664-.06983-.084-.10547a5.00075,5.00075,0,0,0-2.57715-.584l-4.16211.17823-.09766,29.27051a3.49988,3.49988,0,0,1-3.5,3.48828Z"/><path d="M980.74109,44.20045c1.60217,0,5.86658.20819,8.46667,2.28833C991.48309,48.2223,993,51.14778,993,56.02345V82.02711h-7.69275V56.67354a8.02,8.02,0,0,0-1.73358-5.52576c-1.0835-1.40852-3.46716-1.95026-5.41742-1.95026l-7.58441.325v-.00006l-.1084,32.613h-7.69275v-37.597l17.33582-.325s.23385-.013.63458-.013m0-7c-.40134,0-.69885.00918-.86664.01613l-17.235.32311a7,7,0,0,0-6.86878,6.99876v37.597a7,7,0,0,0,7,7h7.69275a7,7,0,0,0,6.99994-6.97674l.08621-25.92877.71845-.03079.02414.00079c.00912.13088.01507.28766.01507.4736V82.02711a7,7,0,0,0,7,7H993a7,7,0,0,0,7-7V56.02345c0-8.29884-3.5116-12.76267-6.48639-15.054-4.15076-3.27769-9.77786-3.769-12.77252-3.769Z" fill="#fff"/><path d="M889.527,85.52672c-6.2334,0-9.23242-4.05078-9.72754-6.77442-.0166-.09179-.03027-.18457-.03906-.27734-.11328-1.13184-.32617-4.42578-.33594-4.56543-.00488-.07519-.00684-.15039-.00684-.22559V37.38756a3.50017,3.50017,0,0,1,3.5-3.5h7.584a3.50017,3.50017,0,0,1,3.5,3.5v3.21728h5.168a3.50018,3.50018,0,0,1,3.5,3.5V48.764a3.50017,3.50017,0,0,1-3.5,3.5h-5.168V70.21715c0,.01953.0039,1.85449.19922,3.65137,1.21191-.00684,3.14843-.10254,3.16894-.1045.0586-.00293.11719-.0039.17481-.0039a3.4999,3.4999,0,0,1,3.5,3.5v4.6582a3.50085,3.50085,0,0,1-3.45313,3.5S889.54266,85.52672,889.527,85.52672Z"/><path d="M890.50214,37.38739V44.105H899.17v4.659h-8.6679V70.21705a40.35979,40.35979,0,0,0,.32507,4.87573c.325,2.16693,1.95026,2.27534,3.25043,2.27534s3.46716-.10841,3.46716-.10841v4.659l-8.01782.10841c-4.44226,0-6.06751-2.70875-6.28418-3.90059-.1084-1.08348-.32508-4.44232-.32508-4.44232V37.38739h7.58442m0-7h-7.58442a7,7,0,0,0-7,7V73.68421q0,.22551.01453.45063c.023.35641.228,3.51594.34531,4.68846q.02791.27913.07812.55534c.87171,4.79468,5.67588,9.64848,13.1713,9.64848q.04733,0,.09463-.00064l8.01782-.10841a7,7,0,0,0,6.90537-6.99936v-4.659a7.00038,7.00038,0,0,0-7.00012-7l-.04245.00013-.00009-.04281V55.764H899.17a7,7,0,0,0,7-7V44.105a7,7,0,0,0-7-7h-1.67349a7.00027,7.00027,0,0,0-6.99441-6.71759Z" fill="#fff"/><path d="M858.97235,85.41832c-.75488,0-7.48242-.043-11.33984-1.53613-4.6709-1.86719-7.3291-6.72461-7.3291-13.33985,0-5.55957,1.74023-9.70507,5.17187-12.31933,3.25684-2.60742,8.03418-3.0044,10.58691-3.0044.33594,0,.582.00782.71485.01319h4.6875a3.51369,3.51369,0,0,1,1.07812.16894,3.71985,3.71985,0,0,0-.84179-2.01318,4.35788,4.35788,0,0,0-2.67774-.68994s-10.19824.3247-10.23535.3247a3.499,3.499,0,0,1-3.5-3.5V44.43A3.49954,3.49954,0,0,1,848.695,40.9315l12.23828-.32519c-.00488,0,.166-.00635.4541-.00635,2.09863,0,7.35449.29639,10.81152,3.03809,3.45215,2.79492,5.11719,6.80371,5.11719,12.27685V81.5941a3.49929,3.49929,0,0,1-3.42383,3.499S858.99774,85.41832,858.97235,85.41832Zm-.2168-18.85254c-1.95312,0-2.38183.41992-2.44824.50391-.02051.02636-.042.05273-.06347.07812-.50684.60938-.81348.97656-.81348,2.85254,0,2.67774.44824,2.97656.71582,3.1543.06641.04394.13086.09082.19434.13965.18359.13183,1.05859.56543,4.58105.57422l1.70215-.1084V66.36949a3.50563,3.50563,0,0,1-1.15918.19629Z"/><path d="M861.3886,44.1003c1.317,0,5.95912.15738,8.63557,2.28007,2.27533,1.84192,3.79224,4.659,3.79224,9.53475V81.5937l-14.84381.32507s-6.7176,0-10.07642-1.30024c-3.25049-1.30015-5.09235-4.984-5.09235-10.07641,0-4.87572,1.51685-7.80109,3.79218-9.53472,2.60054-2.08041,6.86529-2.28835,8.4669-2.28833.40029,0,.63443.013.63443.013h4.76732v4.334h-2.70874c-1.95026,0-4.00885.32507-5.20073,1.842-1.08343,1.30017-1.6252,2.492-1.6252,5.09241,0,3.35876.65009,4.984,2.27533,6.0675,1.40851,1.0835,4.00884,1.30018,6.82593,1.30018l5.09241-.325V56.67353l-.00006-.00007a8.02038,8.02038,0,0,0-1.73352-5.52576c-1.19182-1.40856-3.46718-1.95024-5.41748-1.95024l-10.18476.325V44.43007l12.24341-.325s.12822-.00475.35735-.00475m0-7c-.29851,0-.49782.00546-.57772.00814l-12.2088.3241a7,7,0,0,0-6.81424,6.99754v5.09239a7.00007,7.00007,0,0,0,2.12982,5.02807q.14372.13919.29445.26938-.47171.31356-.92357.66941c-2.97436,2.29177-6.48471,6.75565-6.48471,15.0528,0,8.00169,3.54868,14.19826,9.49271,16.57578l.0726.02856c4.35754,1.68687,11.26335,1.77231,12.60346,1.77231q.07662,0,.15325-.00168l14.84382-.32506a7,7,0,0,0,6.84674-6.99833V55.91512c0-6.50572-2.1492-11.5442-6.38788-14.97548l-.05463-.04376c-4.164-3.30248-9.92305-3.79559-12.9853-3.79559Zm-2.4585,32.96576h.19354v.24648q-.10007-.00688-.19111-.01428-.002-.11-.00243-.2322Z" fill="#fff"/><path d="M789.06805,85.30894a3.501,3.501,0,0,1-3.37207-3.498V77.15172a3.5009,3.5009,0,0,1,3.5-3.5c.04639,0,.09327.001.14014.00293,2.24072.08984,8.355.32226,9.71973.32226,3.021,0,3.86963-.54882,4.32177-.99414a16.75753,16.75753,0,0,0,.8462-4.17383,20.48405,20.48405,0,0,0-.56934-4.42871,1.53836,1.53836,0,0,0-1.04248-.53906c-.48975-.03906-1.06152-.10058-1.7041-.1709-1.188-.1289-2.66553-.29-4.27344-.35742a13.59159,13.59159,0,0,1-9.58545-4.61523c-1.772-2.127-3.41162-5.02491-3.41162-11.77539,0-7.82569,2.3252-11.79346,4.27588-13.74317a13.72649,13.72649,0,0,1,7.60889-3.57226,46.67316,46.67316,0,0,1,6.02539-.37842c.03515,0,10.94043.32666,10.94043.32666a3.50006,3.50006,0,0,1,3.39453,3.49853v4.65918a3.49912,3.49912,0,0,1-3.5,3.5q-.07178,0-.14356-.00293c-2.18017-.08984-8.13623-.32226-9.499-.32226-2.61963,0-2.91065.28564-3.69629,1.13183a6.87346,6.87346,0,0,0-.605,2.51905,18.79567,18.79567,0,0,0,.4668,4.227,1.31351,1.31351,0,0,0,1.05761.52636c.4087.03028,1.00684.09473,1.68311.16846,1.1875.1294,2.66553.29053,4.273.35742a13.59862,13.59862,0,0,1,9.58545,4.61475c1.55664,1.86963,3.41211,5.561,3.41211,12.53467,0,6.44043-1.63867,12.08008-4.27637,14.71777a13.72166,13.72166,0,0,1-7.6084,3.57227c-2.311.36523-5.76709.47949-5.91308.48437-.0376.001-.0752.002-.1128.002C800.96307,85.74352,789.06805,85.30894,789.06805,85.30894Z"/><path d="M801.54778,32.72852l10.83491.32507v4.659s-7.90944-.32507-9.643-.32507c-3.79224,0-4.87574.75843-6.28425,2.27533-.86683.86676-1.5169,3.35876-1.5169,4.87567a19.64066,19.64066,0,0,0,.75844,5.63409,4.69075,4.69075,0,0,0,3.90057,2.60034c1.40849.1084,3.57548.43343,6.17583.54176a10.01226,10.01226,0,0,1,7.04266,3.35883c1.0835,1.30017,2.6004,4.22557,2.6004,10.29314,0,6.17584-1.62523,10.61817-3.25049,12.24341a10.62094,10.62094,0,0,1-5.74247,2.60033c-2.05861.3251-5.41744.43343-5.41744.43343l-11.81-.43343v-4.659s8.12616.32507,9.85975.32507c3.79223,0,5.63415-.7585,7.04266-2.27534.86684-.86683,1.62523-4.98407,1.62523-6.39257a21.2367,21.2367,0,0,0-.86681-5.85083,4.85678,4.85678,0,0,0-3.90053-2.60036c-1.40856-.10838-3.57548-.4334-6.1759-.54174a10.0119,10.0119,0,0,1-7.04263-3.35883c-1.08351-1.30021-2.60036-3.35881-2.60036-9.53467s1.62518-9.64307,3.25043-11.26823a10.62107,10.62107,0,0,1,5.74249-2.60036,44.83546,44.83546,0,0,1,5.41741-.32507m0-7a49.24053,49.24053,0,0,0-6.50924.41073q-.06239.00987-.12457.02084a17.07417,17.07417,0,0,0-9.47587,4.54414c-2.41807,2.418-5.30065,7.1945-5.30065,16.21795,0,7.88538,2.13464,11.51015,4.22278,14.01593A17.14725,17.14725,0,0,0,796.357,66.80287q.066.004.13205.00674c1.49065.0621,2.84525.20974,4.04036.34l.07426.00808c.06781.589.11591,1.19.11972,1.59962a13.68806,13.68806,0,0,1-.25961,1.658,13.87467,13.87467,0,0,1-1.408.06123c-1.1606,0-6.492-.196-9.58-.31948-.09341-.00374-.187-.0056-.28006-.0056a7,7,0,0,0-6.99973,7v4.659a7,7,0,0,0,6.74326,6.99529l11.81.43343q.12831.00471.25673.00471.11286,0,.22567-.00364a61.64239,61.64239,0,0,0,6.28368-.51548q.06228-.00982.12441-.02078a17.074,17.074,0,0,0,9.4759-4.54412c3.31915-3.3191,5.30075-9.74646,5.30075-17.19315,0-6.44119-1.42077-11.412-4.2229-14.7745a17.1474,17.1474,0,0,0-11.99661-5.86464q-.06607-.004-.13217-.00676c-1.49077-.06212-2.84546-.20976-4.04067-.34l-.01657-.00181c-.04161-.49252-.069-1.00595-.069-1.44045.00215-.03473.0079-.08043.01643-.13326.20772-.01049.4664-.01774.78472-.01774,1.15776,0,6.35287.19576,9.35554.31916q.14406.00593.28774.00591a7,7,0,0,0,6.99972-7v-4.659a7,7,0,0,0-6.79007-6.99686l-10.83491-.32507q-.10492-.00315-.20993-.00314Z" fill="#fff"/><path d="M830.26044,85.52672c-6.2334,0-9.23242-4.05078-9.72754-6.77442-.0166-.09179-.03028-.18457-.03906-.27734-.11329-1.13184-.32618-4.42578-.33594-4.56543-.00488-.07519-.00684-.15039-.00684-.22559V37.38756a3.50017,3.50017,0,0,1,3.5-3.5h7.69238a3.50055,3.50055,0,0,1,3.5,3.55664l-.05175,3.16064h5.21972a3.50017,3.50017,0,0,1,3.5,3.5V48.764a3.50017,3.50017,0,0,1-3.5,3.5h-5.27636V70.21715c0,.01953.0039,1.85449.19922,3.65137,1.209-.00684,3.14843-.10352,3.16894-.1045.05859-.00293.11719-.0039.17481-.0039a3.49992,3.49992,0,0,1,3.5,3.5v4.6582a3.50085,3.50085,0,0,1-3.45313,3.5S830.27606,85.52672,830.26044,85.52672Z"/><path d="M831.3437,37.38747h.005m-.005,0-.10833,6.71759h8.77621v4.659h-8.77621v21.453a40.36114,40.36114,0,0,0,.32505,4.87568c.325,2.167,1.95026,2.27532,3.25043,2.27532s3.46717-.10832,3.46717-.10832v4.659l-8.01783.10834c-4.44226,0-6.06752-2.70873-6.28424-3.9005-.10834-1.0835-.325-4.44232-.325-4.44232V37.38747h7.69274m.005-7H823.651a7,7,0,0,0-7,7V73.68428q0,.22548.01451.45059c.023.35639.228,3.5158.34521,4.68821q.02795.2794.07822.55595c.87188,4.79448,5.67611,9.64807,13.17129,9.64807q.0473,0,.09458-.00064l8.01782-.10834a7,7,0,0,0,6.90543-6.99936v-4.659a7.00039,7.00039,0,0,0-7.00014-7l-.04233.00013-.00018-.04923V55.76406h1.77621a7,7,0,0,0,7-7v-4.659a7,7,0,0,0-7-7h-1.671a6.99793,6.99793,0,0,0-6.99192-6.71759Zm-.005,14h0Z" fill="#fff"/><path d="M586.75361,27.7965,586.66511,107l-21.23893-6.90265V7.00006l27.07964,7.16813c17.34513,4.69027,27.96459,13.71683,27.7876,29.55753-.177,18.49558-8.67256,25.92918-25.39822,21.062V28.32749C594.9837,23.99121,586.75361,23.72573,586.75361,27.7965Z" fill="#de1528"/><path d="M555.69167,84.69918l-10,3.36283c-6.46018,2.21238-12.0354-3.00884-6.0177-5.22126l4.86726-1.6814-18.23009-5.7522c-5.57522,1.85839-10.885,5.9292-10.531,11.6814S529.32,94.25668,539.497,95.8496a51.8169,51.8169,0,0,0,26.0177-2.03539V87.885Zm31.15044,22.30088,18.58406-6.46019-18.76106-5.9292v12.0354Z" fill="#f4cb0e"/><path d="M636.22263,89.65493l.354-.08856c8.14159-2.83184,11.59292-6.81414,10.708-10.531-1.41594-6.19467-11.32743-9.5575-26.54867-10.70795-10.97345-.79646-21.76991,1.6814-32.30088,5.22122l-1.68142.61946,18.938,5.84073,11.06194-3.71682c11.59292-2.12391,16.19469,1.68143,5.13275,5.22126l-5.48673,1.85839,19.823,6.28319ZM565.42618,62.2213l-8.40707,2.83185,8.40707,2.56637Z" fill="#4177b3"/><path d="M605.42617,100.53987l30.79645-10.88494-20-6.19472-29.469,10.08849v1.06194l18.67256,5.9292Zm-40-19.115-9.73451,3.27435,9.73451,3.09735v-6.3717Zm21.23893,5.13274V74.2567l18.938,5.84072-18.938,6.46019Zm-42.21238-5.39822,20.97345-7.52212V67.61952l-8.40708-2.56637-30.354,10.26548a3.83064,3.83064,0,0,1-.44248.08856l18.23009,5.7522Z" fill="#1ba0a5"/><path d="M660.58614,32.62016V82.13555h7.69276V37.3875h7.151s5.20075,0,6.93432,2.27532c1.51688,1.95026,1.84192,5.52578,1.84192,8.01779,0,2.60036-.21669,6.60929-1.08348,8.01779-1.3002,2.27532-3.46716,2.70874-5.41744,2.70874H672.9379v4.4423h6.826s6.17588.21669,8.77625-2.38367c3.25046-3.25045,4.00891-7.69276,4.00891-13.65194,0-5.41744-1.95028-10.83487-5.95918-12.67682-3.25047-1.51689-9.20964-1.51689-9.20964-1.51689H660.58614m38.13875,49.51535h7.69277V32.62009H698.7249Zm48.86528-37.922,14.19368,37.05526-8.12615,19.93616h6.39256l23.40333-56.99142h-7.151L766.11778,71.9507l-9.42633-27.73727h-9.1013m41.60592,37.597v-4.659s8.12615.325,9.85972.325c3.79221,0,5.63414-.75844,7.04266-2.27533.86681-.86678,1.62523-4.984,1.62523-6.39256a21.237,21.237,0,0,0-.86679-5.85081,4.85685,4.85685,0,0,0-3.90055-2.60035c-1.40854-.10838-3.5755-.43341-6.17587-.54175a10.012,10.012,0,0,1-7.04266-3.35884c-1.08349-1.3002-2.60038-3.3588-2.60038-9.53467s1.62523-9.64305,3.25046-11.26824a10.62141,10.62141,0,0,1,5.74248-2.60036,44.83737,44.83737,0,0,1,5.41743-.32506l10.83489.32506v4.659s-7.90944-.32507-9.643-.32507c-3.79221,0-4.87568.75844-6.28424,2.27532-.86679.86679-1.51688,3.3588-1.51688,4.87568a19.64177,19.64177,0,0,0,.75844,5.63412,4.69078,4.69078,0,0,0,3.90055,2.60036c1.40854.10838,3.5755.43341,6.17587.54175a10.01217,10.01217,0,0,1,7.04266,3.3588c1.08349,1.30019,2.60038,4.22562,2.60038,10.29315,0,6.17587-1.62523,10.61818-3.25047,12.24341a10.62146,10.62146,0,0,1-5.74249,2.60035c-2.05862.32507-5.41745.43341-5.41745.43341l-11.81-.43341m42.14766-44.423h-7.69276V73.68427s.21669,3.35884.32505,4.44231c.21671,1.19181,1.84193,3.90055,6.28424,3.90055l8.01781-.10838v-4.659s-2.167.10839-3.46716.10839-2.92543-.10839-3.25047-2.27533a40.36213,40.36213,0,0,1-.325-4.87572V48.764h8.77623v-4.659h-8.77623l.10836-6.71763M905.996,82.13547h7.69276v-37.922H905.996Zm0-42.58107h7.69276V32.62009H905.996Zm32.17957,4.334c5.30909,0,9.318,1.19185,11.485,2.92542s4.984,5.52578,4.984,16.36064-2.7087,14.62708-4.984,16.36065c-2.167,1.73357-6.28422,2.92542-11.485,2.92542-5.30909,0-9.318-1.19185-11.59331-2.92542-2.167-1.73357-4.87568-5.52578-4.87568-16.36065s2.7087-14.62707,4.87568-16.36064C928.85758,44.97184,932.86647,43.88837,938.17556,43.88837Zm-5.30909,7.25938c-1.08347,1.3002-2.38367,4.00889-2.38367,12.02672s1.3002,10.72653,2.38367,12.02672a8.12884,8.12884,0,0,0,11.05156,0c1.08347-1.30019,2.38366-4.00889,2.38366-12.02672S945.0015,52.448,943.918,51.14775a8.12884,8.12884,0,0,0-11.05156,0m37.70535-1.62523,7.58442-.325c1.95025,0,4.334.54176,5.41743,1.95026a8.02021,8.02021,0,0,1,1.73357,5.52578v25.3536H993V56.02343c0-4.87568-1.51688-7.8011-3.79221-9.53467-3.25045-2.60036-9.1013-2.27533-9.1013-2.27533l-17.33581.325v37.597h7.69276l.10838-32.613M890.61047,37.38742h-7.69276V73.68423s.21669,3.35884.32507,4.44231c.21669,1.19181,1.84191,3.90055,6.28422,3.90055l8.01779-.10838v-4.659s-2.167.10838-3.46714.10838-2.92542-.10838-3.25045-2.27533a40.35956,40.35956,0,0,1-.32507-4.87571V48.764H899.17V44.105h-8.66788V37.38738M735.7801,56.67345a8.02006,8.02006,0,0,0-1.73357-5.52578c-1.08349-1.40854-3.46716-1.95025-5.41744-1.95025l-10.18479.325V44.43l12.24341-.325s5.85083-.21668,9.1013,2.27533c2.27533,1.842,3.79221,4.659,3.79221,9.53471V81.59368l-14.84378.325s-6.71761,0-10.07643-1.3002c-3.25045-1.30019-5.09238-4.984-5.09238-10.07642,0-4.87572,1.51688-7.80111,3.7922-9.53471,3.25046-2.60036,9.1013-2.27533,9.1013-2.27533h4.76734v4.334h-2.60036c-1.95029,0-4.00889.32507-5.20074,1.842-1.0835,1.30019-1.62523,2.492-1.62523,5.0924,0,3.3588.6501,4.984,2.27532,6.06753,1.40854,1.08347,3.90055,1.3002,6.826,1.3002l5.09238-.325-.2167-20.36958m130.34352,0a8.02015,8.02015,0,0,0-1.73357-5.52578c-1.19184-1.40854-3.46716-1.95025-5.41744-1.95025l-10.18478.325V44.43008l12.2434-.325s5.85083-.21668,8.99294,2.27533c2.27532,1.84195,3.79221,4.659,3.79221,9.53471V81.59372l-14.84377.325s-6.71763,0-10.07642-1.3002c-3.25047-1.3002-5.09239-4.984-5.09239-10.07643,0-4.87571,1.51689-7.8011,3.79221-9.53471,3.25047-2.60035,9.1013-2.27532,9.1013-2.27532h4.76735v4.334H858.756c-1.95028,0-4.0089.32507-5.20075,1.842C852.47173,66.2082,851.93,67.4,851.93,70.00041c0,3.35879.65008,4.984,2.27533,6.06753,1.40854,1.08347,4.00889,1.3002,6.826,1.3002l5.09239-.325V56.67353"/></g></svg>