<svg id="Calque_1" data-name="Calque 1" xmlns="http://www.w3.org/2000/svg" viewBox="0 0 345.33994 97.02633"><title>controller</title><rect x="-98.37945" y="142.22092" width="4.12871" height="2.98756" rx="1.49378" transform="translate(-115.87301 -76.7572) rotate(-90)" fill="#8a1001"/><path d="M-101.8595,170.98305c.28666-2.78491-.64156-5.52311.55209-8.34612.64473-1.52481.11478-3.5463.11478-5.8202,1.40386,2.50018,3.03451,4.04785,5.55716,3.64449a4.66924,4.66924,0,0,0,4.05194-4.08655c.35593-2.48083-1.05812-4.20431-3.7117-5.46173,11.50419,0,22.46172.00081,33.41925-.00183.72416-.00018,1.39664-.04863,1.39271,1.02606-.02283,6.24915-.01117,12.49842-.01117,19.36345-1.6626-1.69356-2.946-2.93732-4.15129-4.2527a3.12411,3.12411,0,0,0-2.549-1.07592c-9.07688.04455-18.15422-.00357-27.23106.04472a7.0245,7.0245,0,0,0-5.76881,3.16783A14.48051,14.48051,0,0,1-101.8595,170.98305Z" transform="translate(124.15679 -124.15681)" fill="#1a5bc0"/><rect x="-77.636" y="152.57683" width="5.45145" height="20.5491" rx="1.09239" transform="translate(-113.60487 -36.2157) rotate(-90)"/><circle cx="27.8398" cy="31.57987" r="3.51891" fill="#164489"/><rect x="99.88117" y="166.35323" width="1.46217" height="3.37092" rx="0.35686" transform="translate(56.73035 144.49414) rotate(-90)" fill="#a6724f"/><rect x="241.77512" y="17.54645" width="1.79854" height="10.34927" rx="0.89927" fill="#901909"/><rect x="108.78284" y="174.72905" width="38.12747" height="11.49181" rx="1.51755" transform="translate(71.52841 184.16472) rotate(-90)" fill="#625b65"/><rect x="119.26751" y="176.95169" width="43.00336" height="9.4919" rx="1.46473" transform="translate(83.22833 198.31002) rotate(-90)" fill="#8a828d"/><rect x="93.42446" y="176.17391" width="43.00336" height="9.95457" rx="1.5" transform="translate(57.93174 171.92052) rotate(-90)" fill="#8a828d"/><rect x="126.64075" y="151.33598" width="3.16117" height="12.51169" rx="1.58058" transform="translate(94.7863 161.65635) rotate(-90)" fill="#901909"/><rect x="133.9289" y="174.75716" width="29.17925" height="1.10848" rx="0.55424" transform="translate(97.36392 199.67311) rotate(-90)" fill="#850f01"/><rect x="155.13406" y="167.37903" width="2.6902" height="6.47161" rx="1.3451" transform="translate(110.02112 202.93719) rotate(-90)" fill="#850f01"/><rect x="161.30299" y="176.67284" width="2.3784" height="4.82003" rx="0.54425" transform="translate(107.56613 217.41825) rotate(-90)" fill="#a6724f"/><rect x="191.30495" y="176.65031" width="2.3784" height="4.82003" rx="0.54425" transform="translate(137.59061 247.39768) rotate(-90)" fill="#a6724f"/><path d="M-9.19547,176.90806c.77692,4.58861,1.85936,5.65186,5.3596,5.429a3.85008,3.85008,0,0,0,3.69194-3.774c.16837-3.17359-.99067-4.62983-4.23267-5.16915C-2.88589,171.73579-.983,170.7177.661,169.38828c.59268-.47926,1.17526-.51194,1.71256.31545,1.39215,2.14383,2.87375,4.23055,4.35262,6.31669.7485,1.05587.65227,1.79044-.49042,2.54528-1.841,1.21617-3.56,2.61548-5.37383,3.8751-1.30118.90361-1.117,2.16952-.89559,3.392a108.56651,108.56651,0,0,0,6.55438,22.61906c1.23832,2.96378,3.92231,4.17254,6.36062,5.62729,1.21072.72233,2.20309-.49752,2.93385-1.42738,1.57812-2.00814,3.07652-4.07875,4.62608-6.10965.2444-.32031.58818-.79935.88163-.79621.52433.00561.59771.61694.74066,1.05929.10592.32774.24318.64521.35525.97112,1.47856,4.29952.66987,6.52062-2.79239,9.563a13.3579,13.3579,0,0,1-9.10353,3.17647c-2.96468.06159-5.92177.6605-8.883.6673-2.71851.00625-5.24247-1.22123-7.6372-2.37454-1.00968-.48626-.909-2.23135-1.11055-3.429a.92835.92835,0,0,1,1.33234-.84838c.65245.22266,1.35662.30872,1.98919.57219,3.86813,1.61114,3.9219.64426,6.51289-1.95976,1.87162-1.881,1.78726-3.80244,1.12791-6.22272-1.31134-4.81374-2.5715-9.58684-5.2683-13.87941-.83716-1.33251-1.66332-2.16984-3.29268-1.90636-.27211.044-.5657-.03778-.83542.0129-2.29364.43092-3.43753-.60962-4.38133-2.70309-2.14189-4.751-2.66946-4.80889-5.98869-.97306a10.37936,10.37936,0,0,1-8.3815,3.67654c-10.6111-.01983-21.2227-.05672-31.833.038-1.89822.017-2.41774-.5661-2.29909-2.3704.14627-2.22431.07776-4.4667.01694-6.699-.02919-1.07155.10708-1.51193,1.42371-1.50126,10.052.0815,20.12221.3909,30.14951-.11244,4.30075-.21589,8.62516-.49075,12.94058-.73684C-12.018,179.65957-10.98126,177.7778-9.19547,176.90806Z" transform="translate(124.15679 -124.15681)" fill="#0d418d"/><path d="M-23.60794,159.33483c-.00006-5.58193.04017-11.16436-.02891-16.74544-.01685-1.36166.37289-1.88582,1.75564-1.75648,1.10669.10351,2.23082.02047,3.3472.02046,5.82549-.00005,5.73458.06838,9.27649,4.77595,1.98937,2.64408,4.61027,4.83369,6.45476,7.56075a13.71321,13.71321,0,0,1,2.2787,11.14332c-1.02157,4.96671-5.07081,6.13818-8.00328,8.75135a65.52644,65.52644,0,0,1-5.32176,3.87938,3.64813,3.64813,0,0,1-2.29742.77935c-1.95277-.04232-3.91143-.09262-5.85922.01444-1.3319.07319-1.64015-.42978-1.62724-1.67755C-23.57526,170.499-23.60787,164.91676-23.60794,159.33483Z" transform="translate(124.15679 -124.15681)" fill="#1a5bc0"/><path d="M-79.49624,147.97746c-5.51565,0-11.03168.03782-16.54675-.0185a12.68272,12.68272,0,0,0-6.05882,1.74266,2.15239,2.15239,0,0,0-1.20128,1.82534c-.15855,1.71426-1.23874,1.98759-2.80633,1.93793-3.83617-.12151-7.67939-.07913-11.51838-.01677-1.17124.019-1.57692-.3193-1.55175-1.52528q.10706-5.1294-.001-10.2622c-.02679-1.23652.25874-1.84679,1.60711-1.65456,1.60644.229,1.8185-.748,1.80176-2.05137-.00882-.6872-.47578-1.77208.4532-2.01162.93723-.24166,2.33977-.63971,2.95552.282,2.17285,3.25253,5.4041,2.515,8.45534,2.52405,1.46338.00436,2.7408.02563,3.94917,1.27831,1.32689,1.37553.90318,2.85913.87044,4.30028-.0342,1.50563.30444,2.27145,1.94081,1.98011a2.54481,2.54481,0,0,1,.83564-.00063c2.07643.33486,3.1491-.33061,2.72693-2.61893-.26777-1.45141.17809-2.055,1.859-2.0398q14.66064.13236,29.323.00428c1.5967-.01269,1.97971.4473,1.9549,1.98961-.06969,4.33392.00225,4.33508-4.38663,4.33508Z" transform="translate(124.15679 -124.15681)" fill="#1761cf"/><path d="M-29.11511,159.2645c.0192,5.49944.01343,10.99918.0779,16.49809.0135,1.15135-.31192,1.57815-1.52161,1.57081q-11.27877-.06849-22.55809,0c-1.20979.00734-1.535-.41963-1.52153-1.57088.06444-5.49891.05867-10.99865.07787-16.49809a2.93308,2.93308,0,0,1,2.62576-.96081q10.09691-.09621,20.194,0A2.93271,2.93271,0,0,1-29.11511,159.2645Z" transform="translate(124.15679 -124.15681)" fill="#417099"/><path d="M-80.81887,168.093c4.25434.00033,8.509.02964,12.76277-.02032a3.72348,3.72348,0,0,1,2.57693,1.05048c3.736,3.06849,5.7273,6.71255,5.06527,11.76858-.395,3.01707-.06434,6.128-.08264,9.19659-.00349.58547.21347,1.4-.69573,1.49094-.83415.08346-.83874-.68659-1.00733-1.26123-.815-2.77789-1.70951-5.53405-2.45769-8.32954-1.41159-5.27433-4.79348-8.68216-10.61075-8.50532-7.66467.233-15.34178.06116-23.01352.04844-.53388-.00089-1.26424.25994-1.55957-.22618-.36183-.59558.21387-1.20552.53605-1.695a7.14,7.14,0,0,1,6.561-3.54677C-88.77218,168.18046-84.79423,168.09262-80.81887,168.093Z" transform="translate(124.15679 -124.15681)" fill="#0d418d"/><path d="M-88.336,189.88237c-3.48634.00065-6.97385-.05158-10.45845.02629-1.39782.03123-1.99751-.32485-1.95109-1.84926.0997-3.27413.0616-6.55383.01437-9.83031-.01674-1.16205.20948-1.78679,1.58662-1.77678q10.77222.07832,21.54523.00012c1.33808-.0095,1.64427.53761,1.62463,1.7409-.05461,3.346-.06524,6.69441.004,10.03987.02673,1.29111-.44134,1.69207-1.69752,1.67018C-81.22319,189.84148-84.77995,189.88172-88.336,189.88237Z" transform="translate(124.15679 -124.15681)" fill="#0d418d"/><path d="M19.5272,201.19048a2.4876,2.4876,0,0,1-.62121,1.7188c-1.26313,1.6617-2.47638,3.36119-3.72131,5.03686-1.848,2.48734-4.3081,2.34276-5.44976-.61568-1.9996-5.18173-4.35788-10.26561-5.25027-15.82257-.07706-.47987-.18792-.95522-.30186-1.42815-1.224-5.081-1.19857-5.045,2.97077-8.13187,1.26047-.93322,2.09906-.72305,2.95856.44708a47.86464,47.86464,0,0,1,3.32762,6.25874q2.73553,5.17258,5.43612,10.36365A4.00716,4.00716,0,0,1,19.5272,201.19048Z" transform="translate(124.15679 -124.15681)" fill="#471308"/><path d="M-54.55836,152.19759c-.01972-2.92468-.01059-5.85-.07534-8.77368-.02174-.98112.2926-1.33324,1.302-1.329q11.4938.04811,22.98786,0c1.00949-.00423,1.32361.34807,1.3019,1.32909-.06474,2.92368-.0556,5.849-.07532,8.7737a2.93522,2.93522,0,0,1-2.626.95913q-10.09452.0959-20.18924,0A2.93482,2.93482,0,0,1-54.55836,152.19759Z" transform="translate(124.15679 -124.15681)" fill="#578ea5"/><path d="M-54.55835,152.19759q12.72055.00012,25.4411.00016.00109,3.53316.0022,7.0666-12.72288,0-25.44558-.00007Q-54.55943,155.73107-54.55835,152.19759Z" transform="translate(124.15679 -124.15681)" fill="#abe2f7"/><path d="M-104.91163,170.78985c.00052,1.80932.01648,3.61888-.00954,5.42783-.00747.51877.13849,1.10545-.5438,1.42967-1.78232.847-5.942-.21335-7.02358-1.85164q-1.99369-3.0198-3.94036-6.07056c-1.10344-1.72582-.54462-3.6472-.56609-5.49026-.00905-.77713.70371-.73728,1.25141-.73921,3.13148-.011,6.26343.02269,9.39427-.02334,1.0899-.016,1.47953.40485,1.45163,1.47238C-104.94858,166.89189-104.91215,168.84135-104.91163,170.78985Z" transform="translate(124.15679 -124.15681)" fill="#0d418d"/><path d="M-73.05491,176.85414c3.39031.964,4.56217,3.59464,5.37894,6.30694,1.30856,4.34545,2.25911,8.79876,4.03672,13,.41495.98068.48563,1.73361-.99453,1.69949-2.435-.05611-4.87243-.034-7.30838-.00559-.766.00894-1.1285-.20076-1.12552-1.04794C-73.04456,190.21644-73.05491,183.62569-73.05491,176.85414Z" transform="translate(124.15679 -124.15681)" fill="#a19c96"/><path d="M-10.69952,138.34748c5.0956.03414,9.5643-.76115,13.55758-3.37145,1.31823-.86169,2.67477.04739,3.98177.11641,1.30951.06915,2.68367.24966,4.59178.44743-2.2055,1.24431-3.91378,2.31466-5.71581,3.19264-1.57317.76648-2.54733,1.75727-2.53871,3.62543a7.77939,7.77939,0,0,1-.54684,2.60006A3.58985,3.58985,0,0,1-3.289,146.27409C-5.68355,143.77869-8.01629,141.224-10.69952,138.34748Z" transform="translate(124.15679 -124.15681)" fill="#1761cf"/><path d="M.99591,209.189a3.15908,3.15908,0,0,1-3.85713,2.78233c-3.14414-.98538-3.138-.9854-3.14815-4.32047-.01211-3.95819.2267-7.92988-.77213-11.83107-.13266-.51809-.47009-1.33209.36623-1.63254a1.68369,1.68369,0,0,1,1.89956.48624C-2.75933,196.5688,1.0237,206.48039.99591,209.189Z" transform="translate(124.15679 -124.15681)" fill="#471308"/><path d="M-79.899,199.71964c.19688-.6063.37181-1.19712.5796-1.77615,1.08729-3.02984,1.09018-3.02993-2.2399-3.03048-4.88263-.0008-9.76529-.01082-14.64787.00543-2.19842.00732-2.38942.31963-1.49279,2.26584a11.91823,11.91823,0,0,1,.55286,1.12021c.15973.4737.83569,1.025.24814,1.439a1.28146,1.28146,0,0,1-1.86955-.28423c-.91784-1.68054-2.158-3.257-1.95841-5.3804.081-.86194.37228-1.25766,1.25633-1.25634q11.09042.01657,22.18088.00927c.41417.00026,1.02585-.03144,1.10782.38875.29348,1.50445.55,3.09664-.39259,4.445C-77.33758,198.75718-77.80914,200.54249-79.899,199.71964Z" transform="translate(124.15679 -124.15681)" fill="#8a1001"/><path d="M-111.62026,160.549c-1.95455-.00017-3.91161-.0601-5.86273.02175-1.21939.05115-1.70762-.24587-1.70905-1.60143-.00363-3.44861-.07877-3.44867,3.39968-3.44865,3.35066,0,6.70219.04444,10.0515-.02272,1.21735-.02441,1.87788.24408,1.68218,1.6044a5.22374,5.22374,0,0,0,.0002,1.46281c.21456,1.503-.26223,2.151-1.91035,2.01873C-107.8415,160.43356-109.73552,160.54916-111.62026,160.549Z" transform="translate(124.15679 -124.15681)" fill="#1a5bc0"/><path d="M-23.639,138.70206h-32.776c-.06217-1.12741.60266-1.22257,1.44957-1.21116,2.298.031,4.60145-.0799,6.89367.03942,1.7101.089,2.51141-.45254,2.26134-2.23264a5.58213,5.58213,0,0,1,.0013-1.25178c.0329-.37568-.191-.93189.36676-1.02842a.99376.99376,0,0,1,.82366.47928c.85135,2.18947,3.19059,2.38215,4.7722,3.57684a2.71232,2.71232,0,0,0,3.31086.08281c1.77192-1.50971,3.51951-.65637,5.27191-.32135,2.53405.48446,5.04286,1.10092,7.56244,1.66106Z" transform="translate(124.15679 -124.15681)" fill="#1761cf"/><path d="M-88.37839,199.93841c-1.67338.00025-3.34707.01847-5.01994-.01056-.51916-.009-1.15445.19285-1.46037-.49464-.4434-.99647-1.56048-1.96633-1.15608-2.97486.28139-.70175,1.64058-.26588,2.51248-.27423,3.55561-.03405,7.11336-.07056,10.66632.03217.73338.02121,2.27874-.82979,2.15829.74847-.0976,1.27878-.38639,3.024-2.47156,2.98081C-84.8916,199.90951-86.6353,199.93817-88.37839,199.93841Z" transform="translate(124.15679 -124.15681)" fill="#0d418d"/><path d="M-85.40818,138.75768c.4255-1.3253,1.27663-1.26087,2.12084-1.26016,7.31629.00623,14.63265-.00847,21.94877.02709.56841.00276,1.62359-.48164,1.599.66013-.02018.938-.97184.55186-1.504.55371C-69.25289,138.7662-77.26233,138.75768-85.40818,138.75768Z" transform="translate(124.15679 -124.15681)" fill="#1761cf"/><path d="M-55.93528,159.26453v17.621a3.20951,3.20951,0,0,1-1.64786-3.16926c.09861-4.81587.06957-9.63436.08913-14.45186A1.05686,1.05686,0,0,1-55.93528,159.26453Z" transform="translate(124.15679 -124.15681)" fill="#417099"/><path d="M-36.13116,133.67205c-.12825,1.54829-.76435,2.2076-2.03348,2.14362-1.42448-.07181-2.24553-1.13667-1.70324-2.20593,1.25161-2.46784.51756-5.0001.75059-7.488.07963-.85015-.2482-2.03954,1.14692-1.96125,1.19857.06727.88172,1.1628.95507,1.95011C-36.77065,128.73614-37.78324,131.49526-36.13116,133.67205Z" transform="translate(124.15679 -124.15681)" fill="#1761cf"/><path d="M-26.60074,159.26455c.01887,5.56321.04526,11.12641.04349,16.68961-.00016.48724.24781,1.27693-.61333,1.27689s-.61311-.78971-.61327-1.277c-.00178-5.56319.02461-11.1264.04347-16.6896A.81151.81151,0,0,1-26.60074,159.26455Z" transform="translate(124.15679 -124.15681)" fill="#417099"/><path d="M-57.4918,152.19758c-.01986-2.921-.04945-5.84191-.05127-8.76289-.00036-.577-.20032-1.3145.82848-1.31446s.82874.73762.82839,1.31455c-.0018,2.921-.03139,5.84193-.05123,8.7629A1.05252,1.05252,0,0,1-57.4918,152.19758Z" transform="translate(124.15679 -124.15681)" fill="#578ea5"/><path d="M-122.12674,149.0748c0,.90142.01882,1.80338-.00644,2.7041-.01765.6293-.46127.77826-1.00118.7785-.53849.00026-.995-.14373-1.00332-.77421-.02365-1.80278-.02064-3.606-.01559-5.409.00209-.746.48427-.89361,1.1186-.88.5963.01278.90733.28709.9147.87571.01127.9015.003,1.80324.003,2.70488Z" transform="translate(124.15679 -124.15681)" fill="#334877"/><path d="M-27.73818,152.19758c-.01991-2.92151-.05417-5.84307-.04543-8.7645.00144-.48133-.27331-1.26607.61311-1.266s.61157.78477.613,1.26611c.00874,2.92143-.0255,5.843-.04539,8.76451A.80967.80967,0,0,1-27.73818,152.19758Z" transform="translate(124.15679 -124.15681)" fill="#578ea5"/><path d="M-57.4918,152.19758q.77721.00012,1.55438.00016.00113,3.53317.0022,7.06664-.77952,0-1.55885-.00008Q-57.49288,155.73109-57.4918,152.19758Z" transform="translate(124.15679 -124.15681)" fill="#abe2f7"/><path d="M-27.73818,152.19758q.56768.00012,1.13532.00016.00109,3.53319.00218,7.06666-.57,0-1.13976-.00006Q-27.73924,155.73112-27.73818,152.19758Z" transform="translate(124.15679 -124.15681)" fill="#abe2f7"/><path d="M200.176,146.05258c.66421.67142.37232,1.52146.37425,2.287.02274,8.99584.03576,17.9919-.01883,26.98747-.00535.8819.69337,2.32607-.94616,2.5182-1.13264.13272-2.66856.67229-2.89979-1.41825-.08216-.74284-.87135-.83309-1.54675-.83161-1.767.00386-3.534.00084-5.301.00371-.57708.00094-1.34344.04224-1.4272.63781-.30894,2.19718-1.925,1.66949-3.26294,1.67431-5.46173.01967-10.92359-.00045-16.38535.01472-1.07334.003-2.086.103-2.27067-1.40805-.09032-.73923-.80255-.92-1.49745-.91876-1.68662.00309-3.37325.00111-5.05987.00415-.59384.00108-1.28275.133-1.36774.74386-.29365,2.111-1.86979,1.4552-3.11557,1.57733-1.43371.14055-2.19994-.19387-2.17324-1.91932.025-1.61763.76533-1.87266,2.07849-1.80917a22.133,22.133,0,0,0,3.37053-.0258,3.34591,3.34591,0,0,0,3.28566-3.472,3.549,3.549,0,0,0-3.23326-3.79136,12.45631,12.45631,0,0,0-1.4446-.02247c-4.00462-.02027-4.00488-.02-4.00479-4.13982.0001-4.97987.01779-9.95984-.0116-14.93954-.00686-1.16078.05809-2.01372,1.60168-2.00823q22.40724.07978,44.81474.09108a1.40865,1.40865,0,0,1,.44672.16709c-.80967.53744-1.71641.25591-2.57093.25734q-19.2468.03227-38.49372.0149,19.24512,0,38.49023-.01512C198.46061,146.31055,199.36783,146.59573,200.176,146.05258Z" transform="translate(124.15679 -124.15681)" fill="#c01d08"/><path d="M38.56785,208.81628c1.24274-4.73566,4.56331-8.14868,7.46331-11.85013,6.23026-7.95209,13.239-15.19736,20.18882-22.49944a11.64887,11.64887,0,0,0,.89488-1.12535c2.3684-3.20336,4.29516-3.15985,6.3927.35015a25.25578,25.25578,0,0,1,3.51877,11.58692c.05829.96318-.59168,1.10884-1.1203,1.26912-4.116,1.248-6.27813,4.17548-7.0939,8.22011a7.69574,7.69574,0,0,1-2.06808,3.66539c-4.34354,4.82381-4.916,11.09465-6.46367,16.98231-.56021,2.13112-1.66383,3.58848-3.92914,3.96322a78.23284,78.23284,0,0,0-13.50529.06913c-3.79747-1.4255-5.68236-4.85628-4.53946-8.26246C39.0977,210.47327,38.76332,209.63711,38.56785,208.81628Z" transform="translate(124.15679 -124.15681)" fill="#1a5bc0"/><path d="M115.25762,145.62915c.00007.64288.01075,1.286-.00214,1.9286-.02736,1.363.32689,2.90872-.19992,4.043-.6798,1.46364-2.46552.36291-3.71194.7221-.15359.04426-.35936.03047-.45709.12779-3.14725,3.1341-6.848,1.92744-10.37428,1.1688-7.6132-1.63788-15.28147-3.21614-22.56543-5.97443-5.05031-1.91244-8.01489-6.41355-10.74275-10.87277a18.20083,18.20083,0,0,1-2.33533-7.01608c-.29792-2.06635.45749-2.06522,2.10363-1.4974,4.74089,1.63531,9.48571,3.29367,14.31635,4.62631,7.31679,2.0185,14.93556,2.38914,22.38072,3.73708,2.9025.52549,5.82756.92547,8.73381,1.43162,1.91315.3332,3.26157,1.11025,2.89175,3.48286A26.851,26.851,0,0,0,115.25762,145.62915Z" transform="translate(124.15679 -124.15681)" fill="#c01d08"/><path d="M154.76155,192.888c.67915-.66194,1.52889-.33805,2.2908-.33933q20.37668-.03449,40.75342-.02536c1.39113-.00151,2.72467-.01394,3.73025,1.20092.63911.77211,1.59278.64965,2.47232.65341,2.17026.0093,4.34244.0642,6.5102-.00854,1.47591-.04952,2.01088.591,1.98448,2.00011-.04514,2.41055-.03894,4.8229-.0038,7.23376.01931,1.32274-.53,1.83305-1.875,1.83065q-24.23495-.04327-48.47-.00713a2.22187,2.22187,0,0,1-2.24256-1.43744c-1.68359-3.55377-3.41494-7.08491-5.12824-10.6246a5.02017,5.02017,0,0,1,2.60041-.22922q19.65261-.02573,39.30526-.021a6.16286,6.16286,0,0,0,2.47414-.17865c.21067-.031-.28665-.25355-.12351.02363.04234.07193-.02653.12186-.20672.12292-14.46584.08567-28.93176.03186-43.39766.03189A1.61219,1.61219,0,0,1,154.76155,192.888Z" transform="translate(124.15679 -124.15681)" fill="#8a1001"/><path d="M84.77689,188.65525c-2.87214-.90481-3.54831-3.13138-3.8923-5.845-.936-7.38382-3.70947-13.618-10.964-17.07352-9.33672-4.44731-18.58807-9.07419-27.85974-13.657-.74418-.36784-1.59359-.56524-2.02709-1.53694-1.28819-2.88755-.43306-4.42275,2.70227-4.26045,3.2643.169,6.51411.60551,9.77388.8824.92707.07874,1.37657.76157,1.94131,1.30425a11.073,11.073,0,0,0,8.19652,3.36345c3.13359-.06879,6.28444.1759,9.40134-.06228,4.06117-.31033,7.69427,1.001,11.35592,2.374,2.01858.23241,2.201,1.51492,2.18591,3.2667-.08234,9.55056-.03191,19.10223-.05082,28.65347C85.53827,186.9787,85.87373,188.04236,84.77689,188.65525Z" transform="translate(124.15679 -124.15681)" fill="#c01d08"/><path d="M176.73093,190.33976c-6.99293.00031-13.98653-.05339-20.97832.03574-1.89469.02414-2.60809-.58156-2.45217-2.48476.13737-1.67669-.039-3.37735.05573-5.06.05157-.9163-.57-2.43072,1.04731-2.46169,1.33974-.02566,3.13537-1.07038,3.98066.99862a1.79378,1.79378,0,0,0,1.9419,1.08405c1.44669.00471,2.89414.02676,4.33971-.01366.465-.013,1.23773-.07373,1.33961-.32638,1.14578-2.84133,3.59235-1.77913,5.55856-1.82618,4.65928-.11147,9.32306-.04037,13.985-.03143,1.16819.00225,2.43907-.27445,2.82463,1.4407.15845.70477.98232.7433,1.634.74861q2.53141.02064,5.06316-.00231c.76127-.00589,1.48147-.16727,1.69872-1.03291.41778-1.66479,1.73065-1.13734,2.75336-1.07342,1.33916.08369,1.00314,1.23676,1.02561,2.05017.04879,1.767-.07595,3.54236.0412,5.30293.13209,1.98509-.64223,2.70488-2.63912,2.68249C190.87807,190.29105,183.80423,190.33946,176.73093,190.33976Z" transform="translate(124.15679 -124.15681)" fill="#971a09"/><path d="M99.1003,196.25735c2.00841,0,4.0217.08661,6.02375-.02624,1.73412-.09776,2.55432.43922,2.39222,2.29494-.11838,1.35518.05059,2.73371-.0342,4.094-.11308,1.81416.72337,2.429,2.44539,2.35022,1.84376-.08436,3.69746.04991,5.54141-.03246,1.51641-.06773,2.20092.434,2.14645,2.04825-.08933,2.64807-.07163,5.30253-.00525,7.952.036,1.43561-.49651,2.022-1.95914,2.00218-4.01606-.05432-8.03337-.02859-12.0501-.0122a3.69877,3.69877,0,0,1-2.47436-.77648c-3.19586-2.66329-6.369-5.35383-9.55188-8.03269-.42435-.35714-.95712-.6352-.95779-1.29757-.00317-3.1319-.0191-6.26394.00622-9.39563.00937-1.159.913-1.15126,1.72914-1.15593,2.24931-.01286,4.49875-.00445,6.74814-.00445Z" transform="translate(124.15679 -124.15681)" fill="#8a1001"/><path d="M120.05,205.4278c.94151-.6127,2.261-.84221,2.10978-2.46736-.08314-.89319.60812-1.23225,1.4333-1.23428,2.80683-.00694,5.61376.00605,8.42047-.01436,1.10387-.008,1.60755.48989,1.59743,1.59395-.00846.922.41585,1.5974,1.40366,1.597q6.008-.00257,12.01571-.10122c.2852-.00423.5664-.27856.84946-.42731,1.2091-.0669.82419.86136.8574,1.45277.118,2.1025-.16114,4.2164.16714,6.31482-1.25558,1.33265-2.517,2.65983-3.76395,4.00053a2.461,2.461,0,0,1-1.92745.77887c-7.34642-.01113-14.6929-.00607-22.03924-.033a3.5014,3.5014,0,0,1-1.08433-.39224A57.49264,57.49264,0,0,0,120.05,205.4278Z" transform="translate(124.15679 -124.15681)" fill="#8a1001"/><path d="M148.026,154.77239c-3.26072-4.4016-7.85913-2.84721-12.13237-2.70953a15.83073,15.83073,0,0,0-1.86605.27622c-3.29349.04093-6.58844-.04315-9.88.04123-1.44382.037-2.05648-.41224-1.95423-1.92159.10587-1.563.0236-3.13876.02351-4.33135-.20706,1.8333.336,4.07255-.25132,6.26907-.65386-3.48549-.1611-7.00219-.279-10.50248-.05518-1.639,1.09133-1.30406,1.9861-1.02469,2.34866.73331,4.66748,1.5622,6.99819,2.353,5.20059.48661,10.41385.18184,15.61829.15508,2.00725-.01032,2.656.543,2.50136,2.53941-.17309,2.23487-.0254,4.49361-.04769,6.74167C148.73514,153.42675,148.98212,154.31272,148.026,154.77239Z" transform="translate(124.15679 -124.15681)" fill="#c01d08"/><path d="M90.187,191.43766c-.02906-6.80255-.0383-13.6053-.10411-20.40749-.013-1.34154.5061-1.98839,1.82877-1.7902,1.73553.26005,3.77244-.88226,5.10087,1.40826.572.98623,6.802.5956,7.48955-.31414.38933-.51513.56473-1.23136,1.37962-.99258.97672.28619.57633,1.17465.6555,1.83251a4.97233,4.97233,0,0,1-.06353.95514,3.51964,3.51964,0,0,1-.74835.66648c-2.50727,1.27954-5.11706,2.35179-7.5875,3.707-.63941.35077-1.65134.52937-1.00426,1.674a2.843,2.843,0,0,1,.41454.86452c-.04453,1.23325-.47637,2.52533.55222,3.6.02989,1.05773-.78233,1.49873-1.48966,2.01145-.62581.45363-1.51634.68207-1.42021,1.72462a3.12245,3.12245,0,0,0,.27472,1.21865c.71781,1.11189,1.55127.4344,2.28341.091,1.863-.87372,3.68321-1.83242,5.48067-2.84121,1.0077-.56555,2.15289-1.37056,3.29386-.12525-.20326,2.40675.59583,4.87527-.44565,7.23036-3.148-.60908-6.32845-.1054-9.48882-.27762C94.456,191.557,92.30482,191.94809,90.187,191.43766Z" transform="translate(124.15679 -124.15681)" fill="#971a09"/><path d="M90.09284,160.915c.19023-1.453-.78181-3.73727.45364-4.79688,1.15034-.98661,3.153.42885,4.79643.69505,3.29817.53425,6.56506,1.26,9.86024,1.8155.84741.14286,1.34732.35259,1.33969,1.28536-.01578,1.9271.00644,3.85454-.01222,5.7816-.00451.46572.00541,1.01258-.65567,1.09546a1.25718,1.25718,0,0,1-1.18-.5824c-1.54481-1.76509-6.5213-1.56576-8.3023.02387-1.58193,1.41195-3.67089.68914-5.47464.49381-1.43761-.15569-.68786-1.70521-.79992-2.6389A28.71,28.71,0,0,1,90.09284,160.915Z" transform="translate(124.15679 -124.15681)" fill="#aa1804"/><path d="M58.04685,172.01419c-.64076,0-1.28585-.04873-1.92157.00783-4.46676.39738-5.36154-2.457-4.96293-6.19825.188-1.76467,2.9577-3.20539,4.72375-2.41373,2.91881,1.30841,5.74494,2.82276,8.61865,4.23295.94966.466.89366.88507.40529,1.84065C63.35208,172.53205,60.65812,172.06967,58.04685,172.01419Z" transform="translate(124.15679 -124.15681)" fill="#891001"/><path d="M154.15422,197.92385c1.02657,2.04621,2.0632,4.08747,3.07379,6.14154.31925.64888.36832,1.209-.58308,1.4012-1.137.22964-1.85808,1.17771-3.06315,1.96061v-9.34868Z" transform="translate(124.15679 -124.15681)" fill="#860f01"/><path d="M154.76155,192.888h44.108l.002.47645H154.78343Z" transform="translate(124.15679 -124.15681)" fill="#8e1001"/><path d="M84.77689,188.65525a7.55845,7.55845,0,0,0,.53137-3.06049c-.00294-9.3098-.03074-18.61979.02823-27.92923a3.45177,3.45177,0,0,0-1.9315-3.52144c1.73217-.26041,2.55748.17631,2.53651,2.23507-.10342,10.15156-.0272,20.30487-.09561,30.457C85.84183,187.43909,86.75237,189.03429,84.77689,188.65525Z" transform="translate(124.15679 -124.15681)" fill="#c51e08"/><path d="M121.96549,152.39644V142.537l.49833-.0158c0,2.22629.06381,4.455-.019,6.67817-.07382,1.98059.8,2.66029,2.73263,2.71094,2.94983.0773,5.94275-.526,8.85018.42878A39.79851,39.79851,0,0,1,121.96549,152.39644Z" transform="translate(124.15679 -124.15681)" fill="#c41e08"/><path d="M148.90436,212.1418c-.66136-1.62491-.31853-3.33059-.38939-5.00134a4.87324,4.87324,0,0,0-.63514-2.76624c0-3.81947,0-7.63893,0-11.945C149.27628,194.04248,149.67914,207.11106,148.90436,212.1418Z" transform="translate(124.15679 -124.15681)" fill="#8f1101"/><path d="M148.026,154.77239c.9069-3.13746.43642-6.33913.38215-9.51208-.02623-1.53344-1.33035-1.57286-2.48194-1.57623-4.07-.01191-8.14-.00733-12.21-.01252a6.30726,6.30726,0,0,1-3.0454-.44928c5.60294-.03183,11.20617-.04107,16.8086-.113,1.24124-.01594,1.70823.442,1.68981,1.676-.04662,3.1221.00584,6.24559-.026,9.36807C149.13607,154.858,149.347,156.2918,148.026,154.77239Z" transform="translate(124.15679 -124.15681)" fill="#c51e08"/><path d="M80.0043,195.23428c-2.1101-.28481-3.05946-1.62933-3.77842-3.254-.471-1.06435.39092-1.20574,1.02645-1.41352.558-.18243,1.66923-.3441,1.47123.37872C78.25007,192.674,79.72957,193.65124,80.0043,195.23428Z" transform="translate(124.15679 -124.15681)" fill="#850f01"/><path d="M90.187,191.43766q6.438-.001,12.87592-.00131a5.638,5.638,0,0,1,3.01448.51442c-4.82021.03772-9.64046.08214-14.4608.10364C91.07852,192.05682,90.458,192.11579,90.187,191.43766Z" transform="translate(124.15679 -124.15681)" fill="#9c1b09"/><path d="M42.846,219.44771a39.43245,39.43245,0,0,1,13.50529-.06913A100.19525,100.19525,0,0,1,42.846,219.44771Z" transform="translate(124.15679 -124.15681)" fill="#1b5ec7"/><path d="M120.05,205.4278a28.09788,28.09788,0,0,1,.03937,11.06821A85.27,85.27,0,0,1,120.05,205.4278Z" transform="translate(124.15679 -124.15681)" fill="#8f1101"/><path d="M38.56785,208.81628a1.84285,1.84285,0,0,1-.26132,2.36895A4.865,4.865,0,0,1,38.56785,208.81628Z" transform="translate(124.15679 -124.15681)" fill="#1b5ec8"/><path d="M200.176,146.05258a5.00353,5.00353,0,0,1-2.56706.513q-20.84328-.003-41.68654-.007a.97859.97859,0,0,1-.90724-.50363q22.583,0,45.166,0Z" transform="translate(124.15679 -124.15681)" fill="#c61e08"/><path d="M48.1622,209.05157a9.06233,9.06233,0,0,0,3.37615.18294" transform="translate(124.15679 -124.15681)" fill="#1b5ec7"/><path d="M64.08613,182.27866a2.67843,2.67843,0,0,1,2.89238-.01219A3.88274,3.88274,0,0,1,64.08613,182.27866Z" transform="translate(124.15679 -124.15681)" fill="#1b5ec7"/><path d="M47.14114,207.47391" transform="translate(124.15679 -124.15681)" fill="#0f1522"/><path d="M47.13159,204.71646" transform="translate(124.15679 -124.15681)" fill="#0f1522"/><path d="M198.3908,189.90143H155.06638l-.0012-.23648h43.33146Z" transform="translate(124.15679 -124.15681)" fill="#9b1b09"/><path d="M119.08691,160.08518c.948,4.5843.26788,9.21433.38932,13.82178" transform="translate(124.15679 -124.15681)" fill="#8e8691"/><rect x="212.81084" y="167.65181" width="10.81857" height="5.92605" rx="2.96302" transform="translate(171.76208 264.67815) rotate(-90)" fill="#aa1907"/><rect x="184.28516" y="163.65399" width="46.73445" height="9.70312" rx="1.81776" transform="translate(163.30363 252.00113) rotate(-90)" fill="#aa1804"/><rect x="201.85684" y="137.86404" width="4.72402" height="2.83604" rx="0.43875" transform="translate(189.09358 219.34409) rotate(-90)" fill="#bd1d08"/><rect x="151.34075" y="136.80392" width="6.84425" height="2.83604" rx="0.52811" transform="translate(140.69773 168.828) rotate(-90)" fill="#bd1d08"/><rect x="239.51301" y="31.85444" width="30.15892" height="1.10848" rx="0.55424" fill="#901909"/><rect x="137.21994" y="173.40245" width="7.09849" height="9.4919" transform="translate(86.77758 194.76078) rotate(-90)" fill="#e7e7b2"/><rect x="111.37689" y="173.18478" width="7.09849" height="9.92723" transform="translate(60.93453 168.91773) rotate(-90)" fill="#e7e7b2"/><rect x="87.97659" y="173.5197" width="20.77678" height="16.35588" rx="1.00017" transform="translate(40.82413 155.90582) rotate(-90)" fill="#971a09"/><rect x="100.13869" y="183.34855" width="1.43368" height="9.72214" rx="0.71684" transform="translate(90.8412 230.16364) rotate(-112.88604)"/><rect x="98.90207" y="180.20005" width="1.43368" height="12.4067" rx="0.71684" transform="translate(90.78761 226.51564) rotate(-112.88601)"/><rect x="98.52857" y="177.55033" width="1.43368" height="13.21755" rx="0.71684" transform="translate(92.33647 223.05443) rotate(-112.88601)"/><circle cx="175.64677" cy="82.88004" r="3.22679" fill="#0f1522"/><circle cx="175.69514" cy="82.88004" r="2.23976" fill="#ab7551"/><circle cx="189.41998" cy="62.24659" r="3.22679" fill="#0f1522"/><circle cx="189.46836" cy="62.24659" r="2.23976" fill="#ab7551"/><rect x="-96.6379" y="153.05749" width="1.07286" height="5.35837" rx="0.53643" transform="translate(-42.08035 -137.44792) rotate(-54.21308)"/><rect x="-74.97775" y="156.0836" width="1.15426" height="13.61774" rx="0.57713" transform="translate(-113.1363 -35.66495) rotate(-90)" fill="#2f4678"/><rect x="-33.03195" y="178.74143" width="6.93811" height="14.26167" rx="3.46905" transform="translate(-91.27836 32.15256) rotate(-90)"/><rect x="-33.32103" y="182.49957" width="1.67029" height="3.5333" rx="0.83514" transform="translate(-92.59532 27.62352) rotate(-90)" fill="#0d418d"/><circle cx="28.96702" cy="59.02454" r="3.18578" fill="#060a11"/><path d="M-95.689,180.9554a1.83681,1.83681,0,0,1,2.35481.93645,1.83681,1.83681,0,0,1-.17767,2.528" transform="translate(124.15679 -124.15681)" fill="#2c4e7e"/><circle cx="41.92283" cy="59.02454" r="3.18578" fill="#060a11"/><rect x="-82.77039" y="180.60123" width="1.07286" height="5.35837" rx="0.53643" transform="translate(-58.6657 -114.76164) rotate(-54.21312)" fill="#2c4e7e"/></svg>