<svg xmlns="http://www.w3.org/2000/svg" width="174.22296" height="200">
  <defs>
    <clipPath id="a">
      <path d="M0 221.996h193.384V0H0v221.996z"/>
    </clipPath>
  </defs>
  <g clip-path="url(#a)" transform="matrix(0.90091713,0,0,-0.90091713,0,200)">
    <path fill="#b63523" d="M128.3044 51.6407c-5.086-7.596-7.96-8.408-15.524-4.389-.188.071-.377.142-.567.21-2.517 3.809-4.115 8.103-6.339 12.065-.619 1.151-1.293 2.282-1.559 3.588.191 3.197-2.106 5.283-3.725 7.507-1.704 2.339-2.641-.404-3.451-1.294-12.051-13.25-21.65-28.048-27.981-44.875-.198-.528-.494-1.018-.744-1.526-6.222-3.316-12.382-4.691-18.631.089-1.037.792-2.824.331-4.013 1.289-1.117 2.076.846 3.073 1.568 4.507 3.526 3.268 5.02 7.669 6.638 11.993.357.955.439 1.906-.099 2.918-2.763 5.195-2.741 5.207 1.342 9.397 1.97 1.263 4.058 2.383 5.384 4.425 1.479 2.458-1.041 2.449-2.076 3.185-3.105 2.209-6.978 3.653-7.576 8.173-3.19 6.618-2.776 13.033 1.404 19.046 1.417 2.038.795 2.94-1.08 3.862-1.016.5-1.909 1.248-2.857 1.884 2.065 6.009 11.573 12.885 18.415 13.15 6.509.252 12.946-.879 19.426-1.234 2.329-1.44 4.928-2.604 5.845-5.539-1.026-2.372-3.061-1.557-4.863-1.565-2.679-.013-5.403 1.131-8.022-.292-.725-.734-1.045-1.663-1.23-2.653-.332-1.149-.664-2.298-1.053-3.431-.857-2.686-2.927-3.75-5.853-4.126 1.17-.761 2.544-.971 2.818-2.341-1.297-3.813-4.835-4.232-7.949-4.752-2.408-.402-2.447-1.266-1.661-3.015-.252-1.735-1.325-3.034-2.306-4.384-1.278-1.286-2.399-2.638-1.102-4.52 1.299-1.886 2.659-4.657 5.181-3.884 8.835 2.707 18.459 3.419 25.965 9.693 1.405.701 2.973 1.062 4.251 2.037 1.668 1.034 3.117 2.928 5.447 1.428 2.758-2.805 5.803-5.213 9.458-6.773 1.168-1.451 2.72-1.997 4.544-1.911 5.018-3.234 9.906-6.614 13.208-11.777-.607-2.016.064-4.161-.633-6.165"/>
    <path fill="#f8bf3e" d="M65.6617 207.0424c7.748 2.555 15.408 2.86 22.912-.887-2.771-1.901-5.285.932-7.651.476 3.233-1.18 7.491-.228 10.322-3.581.24-6.944-2.86-12.61-6.873-17.925-2.375-.686-5.106.353-7.226-1.797-2.996-3.039-3.289-8.884-.408-12.082.669-.743 1.59-1.211 2.201-2.021 1.121-2.584-.543-4.278-1.991-5.984-1.717-2.024-3.922-3.634-5.14-6.084-2.535-1.288-4.657-3.561-7.841-3.327-1.473 1.448-.953 3.086-.454 4.725.203.363.459.69.756.98 1.491 1.385 2.368 3.228 3.561 4.836.491.661 1.363 1.668.516 2.263-3.644 2.56-.817 4.075.675 6.053 3.497 4.635 2.796 9.573-1.672 13.469-.972.847-1.838 1.817-3.011 2.405-.659.341-1.5.739-2.002.108-6.158-7.749-14.478-7.824-23.174-6.637-.283.038-.577.004-.865.007-.399.017-.785.098-1.161.23-1.297.68-1.929 1.866-2.395 3.176 6.727-.248 9.598 3.34 11.256 9.623 1.224 4.636 6.094 6.688 10.363 8.565 1.839.808 2.239 1.394 1.026 3.366-4.735 7.693-1.228 13.964 8.196 14.833 13.319 1.228 23.655-4.506 32.222-14.236-5.807 4.268-12.296 7.035-19.193 8.899-4.33 1.714-8.601 1.391-12.691-.653-4.144-2.07-4.204-5.975-.258-8.8"/>
    <path fill="#b63523" d="M113.5982 162.1243c14.506 5.396 28.77 4.701 42.682-1.969 3.899-1.87 6.97-4.647 6.7-9.64-.069-1.285-.492-1.846-1.759-1.743-4.206-1.013-8.296.325-12.382.824-6.422.784-12.657-.496-18.963-.977-2.851-.218-4.062-2.08-4.517-4.909-.462-2.87.492-5.789-.537-8.591-.422-.951-1.11-1.567-2.166-1.713-3.505.82-5.761 4.419-9.672 4.359-3.961 5.185-4.975 11.297-5.512 17.562.114 2.72 1.647 4.632 3.604 6.304.767.533 1.581.842 2.522.493"/>
    <path fill="#fefced" d="M124.0171 135.0677c.015 3.46-.069 6.923.083 10.377.084 1.893.522 3.902 2.883 4.26 11.463 1.736 22.916 2.708 34.238-.933 1.664-1.96 3.898-3.847-.412-5.507-1.69-.651-1.807-2.373-.355-3.407 1.714-1.22 1.708-2.405.744-3.95-.343-1.435-1.437-2.25-2.696-2.53-11.037-2.462-22.104-2.884-33.186-.23-.761.418-1.141 1.094-1.299 1.92"/>
    <path fill="#b63523" d="M41.7236 100.3788c-4.372 8.468-1.912 15.736 3.933 22.411 1.197-.353 1.916-1.347 2.829-2.083 1.848-1.765 3.78-.325 5.68-.169 1.356.111 2.956.951 3.909-.644.773-1.295-.169-2.46-.849-3.537-.838-1.328-1.655-2.667-2.428-4.025-.168-.375-.506-.72-.467-1.141.026-.284.352-.283.63.01 3.316 4.902 6.724 9.681 11.427 13.353.658.474 1.271 1.024 2.073 1.263 3.197-.04 5.656-1.95 8.235-3.426 3.989-2.284 8.165-4.164 12.356-6.135-1.869 2.293-4.331 3.891-6.479 5.836-1.083.981-3.368 1.736-1.674 3.997 1.511.769 3.093.591 4.68.382.554-.144 1.194-.264 1.548-.682 3.053-3.596 7.525-4.109 11.627-5.42.096-.414.152-1.008-.199-1.141-3.237-1.23-3.792-4.062-4.266-6.964-1.345-2.412-3.9-1.918-6.003-2.518-1.09-.029-2.184-.034-3.272-.191-3.663-.251-7.236.507-10.712 1.409-4.535 1.176-8.549.411-12.416-2.027-4.906-3.092-10.162-5.531-15.382-8.023-1.465-.699-3.011-1.989-4.78-.535"/>
    <path fill="#b9351e" d="M34.7411 185.4456c1.126-.479 2.033-1.183 2.451-2.389.701-1.996 1.176-4.052 1.67-6.107.011-1.589-.233-3.145-.609-4.686-.434-.754-1.115-1.145-1.94-1.328-3.778-1.409-6.29-.046-7.544 3.48-.284-2.704.931-5.16 1.828-7.695.194-1.057.135-2.155.503-3.184.265-.84.861-1.476 1.354-2.177.418-.604.698-1.265.854-1.981.103-.926.482-1.79.62-2.711-.056-.851-.423-1.466-1.295-1.691-.589-.244-1.177-.487-1.765-.73-3.581 1.551-5.092 4.966-7.092 7.927-.499.738-.668 1.79-.165 2.491 1.927 2.682.18 4.462-1.301 6.432-4.074 5.417-7.999 10.944-11.978 16.431-1.496 2.063-1.771 3.768.374 6.032 2.161 2.282 4.092 4.835 6.406 7.009 1.003.944 1.96 2.287 3.701 1.412 1.469-1.955 2.919-3.924 4.413-5.858.977-1.266 1.641-3.392 3.878-1.353.722.658 1.64.337 2.243-.487.844-1.153-.041-1.95-.704-2.62-2.301-2.322.233-3.616 1.145-5.115.534-.879 1.046-3.31 2.953-1.102"/>
    <path fill="#417236" d="M41.7236 100.3788c7.733 3.161 15.003 7.254 22.324 11.23 2.672 1.45 5.167 1.914 8.22 1.172 4.309-1.047 8.767-1.481 13.161-2.177.784-1.969 2.73-3.72 1.148-6.131-5.928-.641-11.726.875-17.611 1.086-5.43.194-9.775-1.741-13.559-5.447-2.259-2.211-4.654-4.282-6.988-6.417-10.64-6.17-21.063-4.874-31.416.89 8.953-.93 17.062 1.472 24.721 5.794"/>
    <path fill="#361413" d="M42.6783 1.9928c-5.761 2.271-6.687 4.049-4.892 9.666 1.171 3.664 2.679 7.19 4.67 10.494 4.888.914 8.94-1.13 12.863-3.633.453-2.468 2.048-4.007 4.137-5.186 6.176-3.485 6.461-4.746 2.619-11.258-6.461-.968-12.926-1.374-19.397-.083"/>
    <path fill="#f7be3e" d="M113.5982 162.1243c-.612-.398-1.224-.796-1.837-1.194-.639-.225-1.387.03-1.41.552-.257 5.74-5.254 8.471-8.145 12.43-3.216 4.404-8.1 7.292-12.853 10.067-.994.581-1.944 1.256-2.485 2.345.661 5.511 2.797 10.458 5.779 15.083 1.54.839 2.906.098 4.29-.482 4.875-2.331 7.079-6.992 9.789-11.213-1.739-.834-1.877-.927-2.627.179-1.467 2.163-3.355 3.861-4.945 5.161 3.037-2.126 5.431-5.545 7.689-8.978.769-1.169 1.489-.553 2.191-.844 2.724-7.464 4.581-15.1 4.564-23.106"/>
    <path fill="#fdfbec" d="M64.0334 154.1275c2.559 1.126 4.58 3.292 7.434 3.849.462.139.896.077 1.303-.186.868-.931 1.177-2.221.567-3.147-2.599-3.946-4.831-8.389-10.241-9.254-1.877-.208-3.736-5.035-5.69.114-1.402-2.392-1.948-5.703-5.756-5.273-2.657.299-3.888 2.591-2.113 3.898 1.085.8 2.856.488 3.528 2.069-2.618 1.312-4.728-1.585-7.242-.755-3.132 1.785-3.35 5.155-4.409 8.069-.209.563-.35 1.146-.452 1.736-.352 1.304-.875 2.537-1.591 3.689-.672 1.034-1.427 2.023-1.697 3.265-.255 1.281-.174 2.566-.054 3.852.232 1.257.76 2.421 1.134 3.634.78 1.221 1.165 2.599 1.54 3.982.414 1.053 1.068 1.806 2.301 1.825 2.773-.472 3.505-3.324 5.5-4.71.348-.244.65-.534.928-.854.683-.879.988-1.87.899-2.979-1.054-5.5-1.082-10.83 2.587-15.541 1.087-1.875 2.448-.728 3.624-.227 2.059.879 4.053 1.911 6.154 2.703.56.242 1.148.278 1.746.241"/>
    <path fill="#6d0e15" d="M101.3097 77.6945c-2.228 1.418-2.76-1.289-4.221-1.736-.846.306-1.224 1.04-1.624 1.754-4.201 3.584-9.036 5.856-14.415 7.013-2.457.591-5.058-.319-7.468.722-1.388 1.719-4.272.49-5.578 2.902 2.611 1.565 6.829.088 7.942 4.167.705-.147 1.338-.547 2.046-.645 4.37-.607 5.404.232 5.36 4.3 1.977.819 3.797.324 5.561-.65.564-2.434 3.183-2.912 4.487-4.678-.093 1.245-.913 2.356-.636 3.656.578 1.86-.286 4.359 2.35 5.303 1.388-.001 2.185-.812 2.724-1.978.819-2.608.371-5.383 1.047-8.008.93-4.312 1.633-4.662 6.461-3.177 3.256.841 6.06 2.915 9.429 3.443 1.402-.722 1.551-2.012 1.54-3.374-.324-2.672-2.265-3.341-4.623-3.668 2.004-.927 4.059-1.675 5.332-3.557.928-.577.456-2.099 1.674-2.481.076-.169.152-.339.23-.509-.088-1.208-.926-2.016-1.552-2.941-1.034-1.132-1.761-2.566-3.213-3.293-.869-.223-1.575.053-2.161.701-.56.813-.992 1.696-1.385 2.598-.566 1.418-1.451 2.641-2.373 3.843-2.171 3.54-4.64-.096-6.934.293"/>
    <path fill="#b63524" d="M124.7926 134.1074c10.369-1.685 20.737-1.511 31.105.013 1.878.275 3.654.833 5.3 1.787 1.616-2.93 5.107-5.33 2.666-9.41-6.557-2.154-13.119-4.133-20.152-4.141-4.526-.006-8.89.66-13.215 1.843-.938.18-1.732.631-2.413 1.284-.309.302-.562.654-.768 1.034-.742 2.301-2.62 4.089-3.022 6.556.006.421.166.77.499 1.034"/>
    <path fill="#700f16" d="M20.8136 201.9806c-3.066-2.872-5.753-6.429-8.71-8.971-4.256-3.659-.501-4.884.591-6.525 3.672-5.512 7.8-10.719 11.668-16.103 1.181-1.643 3.145-3.325.504-5.481-1.234-1.007-.346-1.999.389-2.971 1.913-2.529 3.747-5.118 5.612-7.683-3.029-1.104-5.308-.206-6.851 2.595-6.531 11.86-14.922 22.423-23.091 33.141-1.485 1.95-1.097 3.734.549 5.287 1.875 1.77 3.861 3.422 5.799 5.125 1.756.866 1.037 3.847 3.506 4.104 1.558.311 3.115.623 4.673.934 3.049-.102 1.625-1.707.825-2.798-1.849-2.522-4.463-4.369-6.24-6.991 2.076 1.698 3.863 3.709 5.854 5.495 1.221 1.097 2.331 2.711 4.405 1.721.172-.293.345-.586.517-.879"/>
    <path fill="#2b3e57" d="M183.0128 85.3572c-.94-2.609.401-6.785-4.557-6.633-3.298 3.405-6.333 3.872-10.353 1.591-.487.002-.974.004-1.462.006-2.386 2.844-.182 5.909-.441 8.852.452 1.417 1.276 2.528 2.684 3.187-2.88-.999-5.995.873-8.823-.792-3.343-.081-6.724-.551-9.903.986-.057.255-.146.498-.267.73-1.259 2.283 1.443 4.987-.783 7.309-.273.285 2.154 1.883.134 3.113-.692.828-2.1 1.813-.725 2.769 2.151 1.496 3.95 0 5.299-1.373 3.049.789-1.355 7.416 4.776 5.497.74-.874.389-1.921.423-2.892.152-4.323 1.55-5.767 5.978-6.036 1.431-.087 2.878-.001 4.27-.436 1.183-.37 2.11-1.022 2.059-2.401-.05-1.377-1.037-1.978-2.221-2.274-1.805-.453-3.654-.145-5.083-.229 2.612-.231 5.613.219 8.623.125 1.026-.032 2.15.13 2.412 1.324.225 1.028-.264 1.951-1.151 2.612-1.102.821-3.479.978-1.775 3.31 5.683.499 7.608-2.005 6.338-8.242.639 1.825.737 3.638.148 5.524-.575 1.836-.307 3.458 1.717 4.319.199.184.434.275.705.274 1.84.139 1.617-1.317 1.526-2.287-.238-2.53-.093-5.06-.725-7.605-.866-3.485.062-6.963 1.177-10.328"/>
    <path fill="#fdfbec" d="M148.9899 112.3992c-3.128-1.904-6.655-2.684-10.174-3.331-.814-.15-3.149-1.49-2.755 1.423-2.375 4.149-4.963.652-7.471.199-1.676-.057-3.166.41-4.44 1.523-2.352 3.123-2.512 6.754-2.423 10.445-.023 1.001.123 1.962.637 2.841.909 1.293 2.137 1.804 3.692 1.487 2.081-.854 2.288-2.748 2.611-4.623.16-.927-.04-2.323 1.288-2.413 1.233-.084 1.271 1.362 1.809 2.154.729 1.513 1.916 1.788 3.525 1.618 4.191-.445 8.381-1.275 12.622-.482 3.309.618 2.439-2.957 4.072-4.033.723-3.027 1.289-5.988-2.993-6.808"/>
    <path fill="#fefced" d="M148.2366 77.6413c-7.615-.959-15.087-3.312-22.901-2.333-1.682.211-3.371.369-5.058.551-.848-.314-1.295.168-1.651.832 0 0 .072.311.071.312-.5 3.915 1.465 6.167 5.187 7.696.469-2.211-2.091-4.359.6-6.378.489 2.212.119 4.589 2.231 6.117 2.151 1.556 4.453.859 6.697.998 2.017.124 4.048.029 6.072.03 2.588-.185 4.941 1.284 7.541 1.075 3.787-3.663 4.068-5.74 1.211-8.9"/>
    <path fill="#fdfbec" d="M115.3051 86.3046c-.078 1.262-.08 2.542-.825 3.654-1.153.62-1.329 1.722-1.417 2.867.036 1.102-.283 2.14-.616 3.174-.357 1.701-.69 3.407-1.023 5.116-.121.89-.09 1.797-.349 2.671-.423 2.532-.978 5.057-.406 7.643.278.947.812 1.699 1.673 2.201 3.036.772 4.462-1.366 5.689-3.422 2.47-4.142 4.898-8.334 5.901-13.148.39-1.493.956-2.991.006-4.487.34-.794.603-1.633 1.036-2.373 1.313-2.242 1.906-3.888-1.827-4.041-3.122-.128-4.125-3.324-6.156-5.054-3.091.913-.898 3.539-1.686 5.199"/>
    <path fill="#6e0f16" d="M55.9814 52.3991c-.705-.9-1.29-1.938-2.138-2.674-2.043-1.774-2.35-3.127.554-4.232 1.395-.531 2.15-1.799 1.583-3.132-2.109-4.954-3.201-10.491-7.711-14.141-.956-.863-2.094-1.254-3.084-.307-1.177 1.127.235 1.734.808 2.404 1.823 2.137 2.02 4.982 3.736 7.391-2.758.813-5.748.327-7.026 3.261-.624 2.742 1.945 4.122 2.812 6.185-1.648 1.937-4.626.671-5.985 2.852 3.649 3.305 8.427 5.547 9.972 10.832.308 1.055 1.396 1.362 2.504 1.207.426.151.756.022 1.005-.343.16-2.364.088-4.923 3.805-3.619.836.294 1.77.107 2.198-.867.399-.909.048-1.718-.611-2.352-.831-.8-1.756-1.503-2.422-2.465"/>
    <path fill="#381615" d="M104.3154 63.1149c1.362-.413 1.985-1.444 2.294-2.739.623-4.887 2.965-9.011 5.744-12.941.101-.156.243-.217.426-.184 1.114-6.345.92-6.588-5.765-6.778-1.431-.041-2.879-.058-4.298.102-4.299.486-5.774 2.334-5.293 6.624.672 6 2.927 11.333 6.892 15.916"/>
    <path fill="#b73624" d="M63.0969 145.39c2.487 2.294 5.008 4.552 7.45 6.894 1.515 1.453 2.527 3.163 1.882 5.408.044.727.471 1.016 1.158 1.009 1.032-.288 1.708-1.003 2.26-1.871.482-.869.805-1.825 1.435-2.618 1.182-1.878 2.889-3.194 4.608-4.54 3.322-2.601 3.325-3.542.345-6.915-3.733-2.219-7.594-4.046-12.086-3.941-.913.129-1.841.103-2.755.243-1.519.355-2.602 1.096-2.516 2.861.165 1.546-.974 2.423-1.781 3.47"/>
    <path fill="#fcfaec" d="M146.3956 86.3424c-2.245-.751-4.417-2.081-6.911-.876 3.405.943 6.559 2.146 8.136 5.783.292.675 1.664.882 2.537 1.304 3.417.984 6.785.372 10.151-.312.566-.191 1.125-.48 1.231-1.093.975-5.606-5.191-13.246-10.742-13.344-1.436.476-1.34 1.678-1.31 2.825.068 2.506-.953 4.409-3.092 5.713"/>
    <path fill="#b53523" d="M43.0705 41.2085c2.374-2.764 5.822-1.413 9.906-2.278-4.744-2.603-2.496-8.528-7.797-10.712 1.42 0 2.255 0 3.09.001-.863-1.193-1.726-2.387-2.589-3.581-1.681-1.401-2.77-.463-3.93.854-.954 1.082-.955 2.747-2.309 3.534-2.848 2.898-.817 5.675.212 8.477.207 2.094 1.428 3.254 3.417 3.705"/>
    <path fill="#569951" d="M122.7439 97.0832c-1.422 4.637-3.637 8.914-6.106 13.05-.885 1.483-1.584 3.558-4.075 3.024-.383-.23-.777-.249-1.182-.058-2.042 3.243.818 3.958 2.672 5.201.403.16.823.257 1.252.32.866.087 1.708-.018 2.517-.351 2.935-1.611 4.672-4.524 7.165-6.619.625-2.282 3.233-3.529 3.225-6.141-.005-1.65.764-.332 1.071-.232.913.297 1.777.924 2.712.077-.847-1.396-1.694-2.791-2.54-4.187-2.443-1.023-4.314-2.985-6.711-4.084"/>
    <path fill="#57964f" d="M47.5537 119.8552c-1.25.579-1.661 1.7-1.897 2.934.12.893.005 1.724-.639 2.415-.34 1.031-.207 1.961.586 2.751.051 1.891.779 3.32 2.663 4.005 3.617 1.317 7.069 3.322 11.159 2.641.332-.367.513-.798.544-1.293.024-.288.03-.581.09-.863 2.127-10.062-2.197-14.417-12.506-12.59"/>
    <path fill="#43637f" d="M172.511 103.6559c-.899-2.045.874-1.5 1.769-1.856 2.039-.811 2.833-2.391 2.475-4.492-.392-2.303-2.105-2.292-3.97-2.253-3.729.079-7.463-.055-11.194-.024-1.06.008-2.712-.322-2.627 1.356.082 1.603 1.713 1.169 2.783 1.21 1.874.07 3.756-.059 5.626.052 1.152.069 3.034-.585 3.001 1.391-.026 1.588-1.72 1.07-2.785 1.21-.284.037-.577.004-.865.01-8.183.156-8.264.24-8.166 8.608.007.578.022 1.155.034 1.732 1.919-6.038 1.919-6.018 9.176-5.847 1.574.037 3.151-.13 4.727-.204.262-.194.351-.39.269-.591-.083-.201-.167-.302-.253-.302"/>
    <path fill="#6e0f16" d="M39.4417 29.0263c1.203-.1 2.142-.317 2.373-1.878.313-2.116 1.997-2.559 3.866-2.509 3.536.26 6.737-.408 9.532-2.837 2.613-2.27 5.08-1.347 7.792.34 1.411.877 3.154 4.094 5.409.782-.106-3.264-2.717-3.81-5.028-4.156-2.642-.396-5.373-.192-8.066-.249-4.56.251-8.579 2.413-12.864 3.632-.389 2.563-3.136 4.09-3.014 6.875"/>
    <path fill="#381514" d="M43.0705 41.2085c-.951-1.409-1.903-2.818-3.419-3.705-5.705 2.864-5.76 8.369-.123 12.502.856-.046 1.711-.139 2.565-.132 2.104.019 4.415-.515 5.284-2.189.688-1.325-1.787-2.231-2.579-3.534-.59-.972-1.153-1.961-1.728-2.942"/>
    <path fill="#45637e" d="M150.8502 78.4579c4.806.473 7.996 2.686 7.596 7.932-.18 2.36 4.123 3.031 1.863 5.851.16.909.6 2.003 1.543 1.72 3.837-1.148 7.922-.084 12.418-1.31-2.356-1.933-5.626-.069-6.819-2.868-1.4-.008-1.41-1.015-1.539-2.03-.138-1.089-.184-2.281-1.423-2.844-3.759-.677-5.824-2.542-5.177-6.731.246-1.59-1.244-1.656-2.429-1.616-1.727.058-3.452.167-5.178.254-.527.421-1.437.643-.855 1.642"/>
    <path fill="#446480" d="M183.0128 85.3572c-2.07.849-2.883 2.02-2.848 4.606.072 5.229 1.816 10.353.869 15.614 3.266.459 6.647 1.969 9.53-1.049-.591-.664-1.365-1.002-2.161-1.369-4.061-1.874-5.232-4.593-4.197-8.912.349-1.453 1.386-1.806 2.433-2.097 1.562-.434 3.052-.861 3.992-2.313-2.662-1.286-5.527-2.225-7.618-4.48"/>
    <path fill="#3b1716" d="M114.2558 70.9068c.389 1.507 1.333 2.58 2.637 3.37 3.951-1.335 5.386-5.271 8.124-7.861l5.859-5.262c.179-1.937-.647-2.886-2.64-2.687-4.339 3.551-8.677 7.102-13.015 10.653-.702.39-1.048.973-.965 1.787"/>
    <path fill="#72161d" d="M45.604 127.9554c.064-.973.224-1.967-.589-2.751-7.609.974-13.677 4.175-16.798 11.634.479 1.787 1.596 1.429 2.784.827 3.393-5.454 8.396-8.488 14.603-9.71"/>
    <path fill="#426481" d="M42.1034 155.4552c.064-.45.127-.9.191-1.35.374-2.833 1.339-5.795-1.716-7.882-.858-1.16-1.164-2.768-2.728-3.353-6.032 2.825-6.356 5.563-1.352 11.335 1.915.187 3.221 3.147 5.605 1.25"/>
    <path fill="#b83c28" d="M67.28 140.1445c.996-.031 1.993-.063 2.989-.094-.825-3.659.829-6.296 3.512-8.511.048-.42-.052-.8-.296-1.144-.904-.623-1.995-.699-2.865-.281-2.929 1.406-4.722.414-5.811-2.43-2.053-.627-3.407.099-4.098 2.111-.115 1.83 1.179 3.54.475 5.427.287 1.55-1.653 3.131.064 4.662 2.011.055 4.109-1.9 6.03.26"/>
    <path fill="#762123" d="M150.8314 119.1033c-.347-.411-.735-1.198-1.034-1.165-1.06.116-.643 1.042-.604 1.677.209 3.372.146 3.516-2.901 1.927-1.303-.679-1.797.417-2.68.496-3.638.326-7.313 2.075-10.903-.203-1.577.655-2.91 1.506-2.81 3.505 9.188-2.268 18.34-1.907 27.563-.011 2.099.431 3.93 2.797 6.4 1.168-1.774-.919-3.549-1.838-5.324-2.757-2.565-1.552-5.967-1.713-7.707-4.637"/>
    <path fill="#47793d" d="M131.9947 105.3542c-.98-.548-1.945-1.127-2.945-1.636-1.274-.647-2.833-1.527-3.709.202-1.019 2.011 1.998.888 2.114 2.277-.875 1.697-4.745 1.843-2.735 5.101-.477.337-.457.641.062.911 1.621.308 2.971-.502 4.381-1.061 1.606.362 3.089.375 3.959-1.377.551-1.709-.168-3.094-1.127-4.417"/>
    <path fill="#42617d" d="M190.9244 103.9537c3.269-2.221 2.707-5.152 1.573-8.233-.625-1.698-1.129-3.442-1.688-5.165-3.157.761-6.736.875-7.027 5.451-.336 5.28 1.138 7.003 7.142 7.947"/>
    <path fill="#b6331e" d="M20.2961 202.8596c-4.064-1.827-6.236-5.782-9.537-8.462-.771-.625-1.387-2.351-2.71-1.092-1.238 1.179-.303 2.366.641 3.324 2.211 2.243 4.473 4.438 6.655 6.709.552.574 2.07 1.311.104 2.094 3.099 1.93 3.679-.874 4.847-2.573"/>
    <path fill="#f6a10c" d="M52.1314 62.0233s-.129.022-.127.022c-1.939 2.041-3.14 4.197-1.053 6.858 2.822-3.572 6.175-6.542 10.488-8.088 3.701-1.327 1.858-2.522.165-3.884-3.577.917-6.962 2.192-9.473 5.092"/>
    <path fill="#e3992d" d="M65.6617 207.0424c-.103-.541-.244-1.378-.94-.957-3.971 2.403-3.845 8.378.197 10.58 4.723 2.572 9.602 1.82 14.484.549.024-.006.035-.311-.028-.35-.238-.151-.508-.25-.765-.368-3.015-.005-6.019.327-9.025-.489-5.844-1.587-6.688-3.385-3.923-8.965"/>
    <path fill="#b33624" d="M10.7799 204.4983c-.384-1.153-.681-2.345-1.178-3.447-.459-1.016-1.064-2.189-2.328-.657-1.304 2.01-2.38 4.195-4.672 5.374-.976.502-1.63 1.263-.506 2.315 1.785-.057 2.468 1.518 3.597 2.433 3.049-.862 2.827-4.49 5.087-6.018"/>
    <path fill="#43627d" d="M149.2421 103.7061c1.471-1.229 3.512-.592 5.269-1.26-1.141-2.121-3.147-.779-4.45-1.715.862-1.02 3.036.076 3.19-2.022.179-2.445-2.208-1.5-3.238-2.398 1.032-.915 2.767.154 3.487-1.493-.822-1.354-2.856-.038-3.609-1.534-3.2 1.768-3.063 4.475-2.02 7.382.374 1.042 1.595 1.715 1.371 3.04"/>
    <path fill="#736050" d="M150.8314 119.1033c.364 5.21 4.264 4.544 7.707 4.637.036-1.096.083-2.191.104-3.287.058-3.039-1.413-1.189-2.439-.758-1.928-.196-2.033-1.945-2.723-3.197-1.039-2.158-1.244-4.701-2.978-6.553-1.053.513-1.267 1.493-1.512 2.454 2.364 1.754 3.805 3.761 1.841 6.704"/>
    <path fill="#2a3b54" d="M36.9523 153.8509c-.192-.535-.222-1.285-.602-1.573-3.902-2.955-2.409-5.504.481-8.029.42-.367.683-.915 1.019-1.379-3.653-1.565-5.571.832-7.207 3.37-1.726 2.679-.102 4.477 2.058 5.958 1.129 1.294 1.959 3.352 4.251 1.653"/>
    <path fill="#2d425c" d="M190.9244 103.9537c-2.268-1.673-5.887-1.725-6.28-5.636-.387-3.842.971-5.958 4.824-6.491.981-.136 1.127-.605 1.341-1.271.052-.268-.008-.507-.179-.719-.556.133-1.116.253-1.668.401-5.852 1.566-7.802 4.722-5.839 10.439 1.125 3.277 4.309 3.805 7.44 3.851.221-.128.341-.319.361-.574"/>
    <path fill="#f3f0e3" d="M36.9523 153.8509c-1.721.231-2.614-1.666-4.251-1.653-.023.926-.045 1.852-.068 2.778l1.038 1.494c1.047 3.583 3.253 4.527 6.591 2.894 1.386-.939 1.358-2.543 1.841-3.908-1.847-.118-2.628-3.657-5.151-1.605"/>
    <path fill="#43627e" d="M172.511 103.6559c-.005.298-.011.596-.016.893 2.491 1.51 5.213.61 7.835.754-1.407-2.393-.784-5.035-.865-7.573-.073-2.289-.111-4.534-1.477-6.697-1.69.868-1.174 2.233-.887 3.34 1.723 6.657 1.658 6.839-4.59 9.283"/>
    <path fill="#ebd8ae" d="M109.034 185.2302c-.451-.668-.902-1.336-1.553-2.302-3.081 5.737-7.337 10.361-11.74 14.919 3.628-1.495 6.399-4.003 8.832-6.962.532-.647.674-2.194 2.152-1.173 1.154-1.296 1.769-2.87 2.309-4.482"/>
    <path fill="#6f1520" d="M168.1032 80.3155c-.185 2.273.294 3.642 3.087 2.759 1.185-.374 2.554-.241 3.836-.211 2.934.067 3.694-1.595 3.43-4.139-3.452.53-6.902 1.061-10.353 1.591"/>
    <path fill="#e4dbc4" d="M96.9373 200.925c-1.373-1.709-2.33.533-3.539.372-1.05.001-1.806.548-2.444 1.314-3.465 2.149-7.524 2.669-11.726 4.039 3.505 1.033 6.365-.645 9.343-.494 3.706-.28 6.098-2.656 8.366-5.231"/>
    <path fill="#731b1f" d="M122.7439 97.0832c.52 4.182 3.943 3.592 6.71 4.083-1.515-3.071-1.988-6.812-5.516-8.592l-1.194 4.509"/>
    <path fill="#70171e" d="M42.6783 1.9928c6.468-.379 12.927 1.118 19.398.084-3.397-3.325-7.617-1.617-11.493-1.787-2.719-.119-5.471.21-7.905 1.703"/>
    <path fill="#b43b2a" d="M125.0164 66.416c-3.094 2.221-6.28 4.346-8.124 7.86-.055 1.26 1.155 1.612 1.734 2.415.551-.277 1.101-.554 1.652-.832 1.395-3.24 3.79-5.978 4.738-9.443"/>
    <path fill="#f3f4f5" d="M164.4896 84.9091c.079 1.672.137 3.346.245 5.017.058.891.353 1.638 1.46 1.631 1.248-.009 1.058-1.027 1.257-1.774l-.81-9.462c-3.948.014-1.344 3.101-2.152 4.588"/>
    <path fill="#b63928" d="M115.3051 86.3046c.562-1.733 1.124-3.465 1.686-5.198.011-.542.022-1.083.033-1.623-2.468.925-5.215 1.308-7.009 3.678 1.203 1.948 4.524.459 5.29 3.143"/>
    <path fill="#cb9679" d="M133.1214 109.7708c-1.321.46-2.642.92-3.961 1.379.898 2.344 2.551 3.578 5.028 2.766 1.421-.465 3.179-1.239 1.872-3.424-1.04.007-2.113.147-2.939-.721"/>
    <path fill="#c3c4c6" d="M40.5779 146.2236c.755 2.588 1.683 5.137 1.717 7.882 1.175-2.888 2.351-5.775 3.527-8.663-2.056-1.817-3.399 1.166-5.244.781"/>
    <path fill="#75161c" d="M67.28 140.1445c-.964-3.294-2.595-3.364-6.029-.259 1.208.678 2.417 1.356 3.627 2.034.787-.61 1.131-1.819 2.402-1.775"/>
    <path fill="#bec0bd" d="M128.2354 58.4667c.88.896 1.761 1.791 2.641 2.687 1.057-.641 2.235-1.886.954-2.616-2.857-1.63-2.216-4.696-3.526-6.898-.023 2.276-.046 4.552-.069 6.827"/>
    <path fill="#cccecb" d="M150.8502 78.4579c.285-.547.57-1.095.856-1.642-1.287-.27-2.388.241-3.47.825 1.837 3.419.264 6.116-1.84 8.701 2.565-.299 3.045-2.313 3.463-4.309.255-1.218-.281-2.64.991-3.575"/>
    <path fill="#eb950e" d="M61.1863 135.222c2.485-1.484 1.864-3.054.128-4.654-1.914.53-1.642 2.174-1.827 3.585.006.153-.014.303-.061.448.586.207 1.173.414 1.76.621"/>
    <path fill="#eeac3a" d="M31.0014 137.6657c-1.039.097-2.01-.035-2.784-.829-1.205 1.319-.816 2.298.727 2.845 1.936.688 2.103-.594 2.057-2.016"/>
    <path fill="#e19b1c" d="M153.4809 116.4984c.148 1.135.118 2.33.477 3.394.906 2.679 1.57.796 2.245-.198-.824-1.135-1.336-2.537-2.722-3.196"/>
    <path fill="#78171b" d="M5.6927 210.5159c-.569-1.742-.736-4.079-3.597-2.432.744 1.483 1.844 2.44 3.597 2.432"/>
    <path fill="#3a1413" d="M73.582 85.447c2.53 1.201 5.08 1.402 7.657.147.246-1.947-.788-3.168-2.319-4.109-.583-.355-1.289-.151-1.898-.406.243-.07.502-.154.805-.26 3.155-.901 6.458-.881 9.573-1.824 2.05-.621 3.974-1.464 5.218-3.356.214-.441.166-.853-.139-1.234-1.013-2.522-2.758-3.916-5.496-4.662-6.65-1.81-13.223-3.92-19.778-6.058-5.342-1.741-6.073 3.195-8.208 5.734-2.19 2.606 1.085 3.458 2.383 4.87 1.234-.529 1.631-1.963 2.793-2.57 3.279-1.194 4.935.986 6.595 3.154.123.161.235.299.221.356-.22.862-.578-.129-.869.049-2.123-.527-3.123 1.982-5.095 1.84-.383.109-.687.326-.903.66-.807.597-1.664 1.139-2.405 1.809-.5.452-1.192.984-.797 1.815.383.805 1.243.705 1.902.599 4.184-.669 7.482 1.338 10.76 3.446"/>
    <path fill="#ecbc3c" d="M86.5763 104.4728c-.114 1.206.108 2.602-1.296 3.226-2.581 1.146-.345 1.964.149 2.905.765 1.165 1.541.909 2.321.017 3.047-.09 6.328.418 8.031-3.131.952-2.208.539-4.434.083-6.665-.179-.448-.49-.769-.928-.969-1.128-.414-2.238-.665-3.19.384-1.859 1.245-4.022 2.12-5.17 4.233"/>
    <path fill="#391413" d="M91.7463 100.2401c1.141-.024 2.282-.049 3.423-.073.205-.182.267-.356.186-.521-.08-.161-.156-.241-.23-.241-1.605-1.432.01-3.9-1.703-5.297-1.516-.111-2.871.566-4.301.873-2.115-.222-4.109.367-6.108.917-.201-.003-.403-.006-.604-.01-1.507.928-4.279-.388-4.624 2.604 2.764 3.18 6.323 1.306 9.544 1.434 1.48.059 3.018-.997 4.417.314"/>
    <path fill="#381413" d="M83.013 95.8978c.299-1.878 3.803-1.26 3.122-3.376-.735-2.28-3.259-1.898-5.185-1.817-1.798.076-4.732-2.567-5.003 1.812.312 1.134.624 2.268.937 3.403 2.073 2.288 4.121 1.306 6.166-.048l-.037.026z"/>
    <path fill="#3e1715" d="M111.6643 74.0246c.263-.745.526-1.49.79-2.235-.273-.893-.933-1.028-1.735-.888-4.024 1.035-7.253 3.172-9.41 6.793 3.742 3.534 5.717 3.551 7.719.064.242-.662-2.805-.906-.209-1.927 1.023-.403 2.044-.973 2.845-1.807"/>
    <path fill="#c6bcb9" d="M52.1314 62.0233c3.348-1.344 6.498-3.056 9.472-5.094-1.786-1.617-3.085-3.841-5.622-4.53.019 1.921 2.616 2.71 2.234 4.826-1.225.583-1.549-.556-2.194-.982-1.423-.94-2.703-.714-3.956.329-1.32 1.098-.999 2.241-.151 3.419.457.637.551 1.311.217 2.032"/>
    <path fill="#6d1017" d="M112.3534 47.4344c-4.842 3.014-6.799 7.309-5.744 12.941 2.272-4.155 5.182-8.027 5.744-12.941"/>
    <path fill="#8b3f32" d="M63.0001 70.7473c-1.189.883-1.671 2.09-1.621 3.541.648 1.372 1.16 2.85 2.742 3.489.217.055.429.041.637-.042.543-2.173 2.078-3.87 2.843-5.941-1.182-1.902-3.108-.52-4.601-1.047"/>
    <path fill="#b4a69e" d="M92.479 74.4046c-.005.221-.051.432-.139.635-.313 1.127-1.487 2.226-.231 3.423 1.495 1.424 3.049.845 4.581.02.133-.842.266-1.683.399-2.525-1.271-1.307-2.701-2.14-4.61-1.553"/>
    <path fill="#b4a298" d="M110.7193 70.9021c.579.296 1.158.592 1.736.888.409-.683 1.042-.913 1.801-.884.321-.596.642-1.192.964-1.787-2.362-1.582-3.491-.049-4.501 1.783"/>
    <path fill="#6d0e15" d="M83.0499 95.872c-2.051.536-4.099 1.477-6.165.047.007.96-.001 1.926.901 2.573 1.381-1.625 4.342-.074 5.264-2.62"/>
    <path fill="#e09226" d="M73.6627 158.2883c-.41-.2-.82-.4-1.232-.599-.321.096-.64.191-.961.286-.659 2.119 1.421 2.586 2.326 3.705 1.786 2.207 4.41 3.801 4.846 6.948 1.502 2.279 5.489 1.173 6.183 4.551 1.329 2.447.837 5.012.605 7.592-.189 2.097-.655 4.422 2.065 5.474 11.056-5.594 20.153-13.066 24.267-25.315-1.298-1.54-2.786-2.945-3.468-4.918-.84-1.415-.827-3.13-1.609-4.57-.243-.398-1.138-.22-.988-.361 1.393-1.31 2.171-2.912 2.611-4.734-.003-1.969-.199-3.788-2.881-3.62-1.728 2.019-1.764 4.84-3.41 6.948-4.311 5.521-10.382 6.882-16.843 7.449-3.842.337-7.831-.775-11.511 1.164"/>
    <path fill="#fefbec" d="M49.1557 167.115c-.301.898-.602 1.796-.904 2.693-2.118 2.653 1.631 4.094 1.31 6.373.113 1.535-1.564 2.181-1.774 3.56-.045 2.073 1.692 2.094 2.984 2.472 4.601 1.347 9.055 2.88 12.037 7.019.412.571 1.206.752 1.971.64 7.8-4.885 9.153-7.933 6.895-15.11-.783-2.489-2.084-4.414-4.669-5.342.948-1.92 2.882-.949 4.705-1.952-2.663-2.955-3.951-6.812-7.409-9.082-.498 1.957-2.016 2.185-3.678 2.168-2.66-.027-5.183.447-7.413 2.015-1.605 1.289-3.697 2.147-4.055 4.546"/>
    <path fill="#56954d" d="M87.4949 186.2454c-1.201-1.795-1.423-3.797-.645-5.718 1.184-2.92.692-5.56-.768-8.168-2.345-2.332-4.922-4.239-8.299-2.236-2.815 1.669-3.251 4.551-2.909 7.551.442 3.886 2.872 6.889 6.002 7.564.973.21 2.009-.196 2.952.304 2.929 5.458 5.842 10.924 7.126 17.069 1.219.309 1.91-.361 2.444-1.317-2.965-4.623-4.504-9.809-5.903-15.049"/>
    <path fill="#e0962c" d="M64.7798 189.8716c-3.593-4.403-8.191-7.125-13.719-8.416-1.047-.244-2.88.1-2.661-2.007.983-.953 1.101-2.436 2.077-3.393 1.215-2.779-2.862-3.674-2.225-6.247l-.427-.042-.412.12c-2.734 2.756-2.585 7.047-5.253 9.831-1.625.9-3.733 1.18-4.352 3.368 5.904-.116 11.991-1.45 17.498 1.626 1.936 1.081 5.786.528 5.116 4.864-.085.551 2.739 1.504 4.358.296"/>
    <path fill="#731118" d="M83.8282 185.5421c-1.976-1.686-5.206-1.317-6.454-4.349-1.459-3.543-2.327-6.992.666-9.999 2.99-3.003 5.49-.203 8.04 1.165-1.584-3.027-4.244-3.912-7.438-3.731-4.974 2.579-6.704 7.044-4.712 12.161 1.735 4.459 5.124 6.086 9.898 4.753"/>
    <path fill="#e4e1e0" d="M37.8081 183.086c1.837-.714 3.673-1.427 5.51-2.141.728-2.048 1.228-4.087-.266-6.037-1.137-.035-1.59-.745-1.737-1.759-2.896-.397-2.459 2.23-3.331 3.67-.407 2.059-3.666 3.755-.794 6.235.211-.066.416-.056.618.032"/>
    <path fill="#e0952f" d="M53.4343 163.7665c2.591-1.995 5.645-2.179 8.669-1.871 3.465.353 3.805-.873 2.199-3.509l-.28.069c-.863-.596-.79-2.072-2.113-2.246-.403-.061-.798-.039-1.197.039-2.671.959-5.227 2.157-7.072 4.377-.714.859-2.27 1.97-.206 3.141"/>
    <path fill="#c2553a" d="M62.0994 156.7155c.651.569.371 2.165 1.922 1.74.004-1.443.007-2.886.011-4.329-.358-.342-.718-.684-1.077-1.027-2.255.739-1.667 2.151-.856 3.616"/>
    <path fill="#569950" d="M107.0166 151.236c-.493 1.837-3.102 4.239 1.277 4.775 1.206-6.036 2.28-12.11 4.928-17.746 5.888-2.201 8.937-6.203 8.492-12.725-.349-5.108-2.242-7.006-7.519-6.929-.415.144-.749.409-.988.78-.296 1.906 2.856 2.175 2.053 4.326-.038.384-.042.765-.043 1.146.023 1.423-.403 2.905-1.904 2.92-1.618.015-1.125-1.689-1.255-2.741-.141-1.148-.152-2.312-1.055-3.206-.405-.187-.812-.194-1.23-.052-1.239 1.056-1.77 2.491-2.171 4 .641 6.238 1.291 12.463.661 18.767-.191 1.912-.936 3.58-1.36 5.377-.105.449-.067.885.114 1.308"/>
    <path fill="#efa00b" d="M113.5302 119.2153c3.367-.309 6.028.541 6.848 4.278 1.057 4.811-.76 10.11-4.161 11.831-1.359.688-3.212.71-2.995 2.942 4.094 1.143 6.543-1.065 8.541-4.192 3.005-2.326 3.135-5.154 1.448-8.299l-.228-2.571c-1.003-2.566-1.122-5.955-5.237-5.621l-2.499.153c-.537.534-2.13-.158-1.717 1.479"/>
    <path fill="#745f4f" d="M123.2112 125.7754c-.071 2.838-.407 5.629-1.446 8.299.859.084 1.703.206 2.252.994.258-.321.516-.641.775-.961-.016-.228-.032-.456-.046-.684.521-2.422 2.021-4.321 3.363-6.305.013-.252.023-.503.03-.754-.417-.536-.857-.556-1.319-.057-1.266.249-2.495.25-3.609-.532"/>
    <path fill="#cacaca" d="M129.3057 138.4128c-3.465.231-3.093 2.108-2.515 3.932.201.636.985 1.271 1.704.857 1.563-.9.065-1.054-.433-1.532-1.69-1.621.528-1.961 1.244-3.257"/>
    <path fill="#6f0f16" d="M98.6543 120.0051c-5.325-.579-9.646 1.239-12.97 5.435-1.662 1.463-3.367.664-5.067.097 3.103-2.53 6.216-5.048 9.304-7.596 1.11-.917 2.521-1.934 1.325-3.542-1.056-1.422-2.054.069-2.947.537-6.626 3.472-13.219 7.003-19.823 10.515-1.314 2.919 1.179 3.389 2.849 4.029 1.433.549 3.093.565 4.662.671 6.518.651 8.513 2.501 8.262 7.685-.799 1.456-2.1 2.742-1.583 4.643 4.03 3.1 7.099-.173 10.451-1.568 1.482-1.937-.442-2.76-1.351-3.817-1.605-1.864-3.182-3.671-2.353-6.399 2.244-7.009 6.809-8.664 12.679-4.64.922.633 1.785 2.268 3.206.61-.029-5.186-2.179-7.336-6.644-6.66"/>
    <path fill="#e3e3e3" d="M98.6543 120.0051c3.909.803 5.75 3.396 6.215 7.18.294.269.642.411 1.036.444.385-.053.73-.204 1.034-.446.546-.472.608-1.385 1.449-1.594 1.622-.684 1.483-2.099 1.442-3.474-.751-2.166 2.712-3.643.977-5.976-4.167-2.739-8.862-4.042-13.672-4.994-1.257-.249-2.608-.43-3.511.902-.014.286.021.584-.048.856-1.102 4.371-.09 7.219 5.078 7.102"/>
    <path fill="#6e0f15" d="M59.487 134.1531c1.395-.794 1.06-2.469 1.827-3.584.33-2.119 1.937-2.306 3.613-2.389 4.029.403 2.768-2.333 2.618-4.41-5.454-3.499-8.36-9.239-12.342-14.033-1.989-.07-1.759 1.335-1.731 2.605 1.104 2.45 2.434 4.774 4.446 7.001-3.753 1.247-7.255-2.985-10.364.513 1.824.39 3.663.723 5.47 1.183 6.989 1.782 7.292 2.286 6.131 9.535-.194 1.211-.995 2.5.332 3.579"/>
    <path fill="#457439" d="M93.6242 112.0466c6.086.312 11.53 2.937 17.191 4.778.943 1.39 2.046 1.949 3.502.674-.926-1.372-3.911-1.463-2.624-4.213-4.881-4.029-10.448-6.311-16.799-6.601-1.102 3.635-4.826 2.511-7.144 3.936 1.958.475 3.916.951 5.874 1.426"/>
    <path fill="#f19a09" d="M67.5451 123.7697c-.525 1.677.107 4.04-2.618 4.41-.503 3.27-.204 5.511 4.048 3.627 1.367-.606 2.985-.648 4.488-.949 1.848.66 3.837 1.576 3.401-1.885-3.279-.022-6.732.371-8.388-3.52-.31-.562-.621-1.122-.931-1.683"/>
    <path fill="#da7a0e" d="M80.6173 125.5373c1.71 1.066 3.448 3.593 5.067-.098-1.689.033-3.378.066-5.067.098"/>
    <path fill="#e9900a" d="M53.4716 112.3418l1.731-2.604c-.113-.87-.363-1.967-1.451-1.25-1.536 1.013-1.726 2.456-.28 3.854"/>
    <path fill="#7a1a1d" d="M29.9182 166.0692c-2.976 3.31-1.67 7.866-3.736 11.453 1.828.613 1.912-.759 2.451-1.449 1.871-2.396 2.949-6.34 7.342-3.644l.309-.798c.183-4.232-1.911-6.063-6.366-5.562"/>
    <path fill="#b5bfbf" d="M29.9182 166.0692c3.136.69 5.381 2.4 6.365 5.559.462.306.922.609 1.383.912 1.376-.414 1.85-1.34 1.54-2.71-.617-2.771-1.949-5.114-4.333-6.711-1.465-.98-3.059-1.743-4.703-.236-.587 1.022-1.653 2.007-.252 3.186"/>
    <path fill="#b3b7b7" d="M38.7414 166.2154c.009-1.4.017-2.799.026-4.199-1.463-2.07-3.016-3.92-5.936-2.429-.323.476-.647.953-.97 1.43 1.883 2.276 4.217 3.955 6.88 5.198"/>
    <path fill="#781f25" d="M32.8314 159.5869c2.346-.088 3.942 1.656 5.936 2.429.498-.884.996-1.768 1.495-2.652-2.82.455-4.586-1.488-6.591-2.893-1.165.8-2.437 1.572-.84 3.116"/>
    <path fill="#894a4d" d="M38.7414 166.2154c-1.806-2.378-4.252-3.908-6.88-5.197-.82.39-1.472.932-1.692 1.865 4.725.005 6.829 3.329 8.741 6.897.359.208.66.132.91-.188-.36-1.126-.719-2.251-1.079-3.377"/>
    <path fill="#7a1a1d" d="M39.82 169.5923c-.303.063-.607.126-.91.188-.413.918-.826 1.836-1.242 2.757-1.063 1.516.226 2.855.316 4.282 1.111-1.224 2.221-2.447 3.331-3.67.013-1.401-.33-2.651-1.495-3.557"/>
    <path fill="#e5e4e3" d="M53.4343 163.7665c-.6-2.846 2.117-3.155 3.508-4.368 1.274-1.11 2.946-1.764 4.442-2.618-1.589-4.669-5.662-5.445-9.739-6.216-3.823 5.066-5.209 10.5-2.49 16.55 1.427-1.116 2.853-2.232 4.279-3.348"/>
    <path fill="#c2c1c3" d="M51.6457 150.564c2.929 2.569 7.112 3.174 9.739 6.216.243.026.482.004.715-.065.232-1.217-.766-2.727.857-3.615-2.647-1.32-5.307-2.61-7.931-3.971-1.764-.915-2.976-.749-3.38 1.435"/>
    <path fill="#882f2e" d="M43.0521 174.9078c.088 2.013.177 4.026.266 6.038 2.796-3.157 2.165-7.582 4.094-11.059-2.142 1.075-2.918 3.338-4.36 5.021"/>
    <path fill="#371514" d="M114.0291 93.2482c.15-1.096.301-2.192.451-3.289-2.159-3.201-5.963-3.173-9.025-4.601-3.36-.618-5.995.352-7.643 3.486-1.429 2.813-.72 5.825-.813 8.762.46.518 1.045.748 1.729.754 2.139-.446 3.877-1.833 5.919-2.513 2.794-2.071 6.683-.202 9.382-2.599"/>
    <path fill="#b53523" d="M96.69 78.4827c-2.628.34-4.971.319-4.35-3.444-3.164 2.371-6.735 3.351-10.672 3.443-1.814.042-3.591.707-5.1 1.853.332.954 1.438.975 1.997 1.655.891 1.201 1.783 2.402 2.674 3.603 2.364 1.745 4.232-.29 5.62-1.341 3.081-2.333 7.771-1.841 9.831-5.769"/>
    <path fill="#b03222" d="M89.1211 94.9814c1.914 2.076 3.134.732 4.301-.873.632-1.14 1.167-2.38.868-3.654-.304-1.299 1.658-3.281-.212-3.676-2.09-.442-1.27 1.959-1.564 3.166-.294 1.21-1.097 1.606-2.182 1.577-4.056-.108-2.4 1.751-1.211 3.46"/>
    <path fill="#945721" d="M98.8406 97.5359c-.615.024-1.229.047-1.843.071-.623.598-1.247 1.198-1.872 1.797-.008.256.007.51.044.763.059.306.118.611.176.917.303 1.002.998 1.319 1.979 1.139 4.006-1.144 7.934-1.096 11.752.756 1.025.497 2.03 1.159 3.265.687.076-.847.151-1.693.227-2.539-3.724-4.454-8.757-3.905-13.728-3.591"/>
    <path fill="#a73324" d="M111.6643 74.0246c-2.504.089-4.724.756-6.375 2.908 1.215 1.23 2.581.512 3.74.825 1.391-.881 2.165-2.2 2.635-3.733"/>
    <path fill="#a93021" d="M97.8116 88.8438c2.477-1.319 4.611-3.388 7.644-3.485-5.128-1.658-6.614-.98-7.644 3.485"/>
    <path fill="#391716" d="M126.8203 126.3077c.44.019.88.037 1.32.056.586-.341 1.173-.682 1.759-1.023 1.161-.99 2.652-1.716 2.809-3.507-.029-2.287-.307-4.685-3.317-4.357-2.745.3-2.588 2.727-2.254 4.726.242 1.447.012 2.755-.317 4.105"/>
    <path fill="#762123" d="M128.1088 127.118c-2.082 1.587-3.582 3.486-3.363 6.303 1.271-2.02 2.891-3.855 3.363-6.303"/>
    <path fill="#b5321d" d="M5.4509 191.8853c3.672-2.48 17.81-22.387 17.24-25.755-6.08 8.349-12.159 16.697-18.238 25.046.333.236.665.473.998.709"/>
    <path fill="#426380" d="M173.3166 88.9043c1.534-.756 4.973 1.804 5.231-2.555.153-2.579-1.615-3.027-3.376-2.53-2.237.632-5.846-.886-6.351 2.836-.442 3.258 2.287 2.324 4.496 2.249"/>
    <path fill="#6b5845" d="M117.7458 117.5837c2.543 1.128 3.847 3.412 5.238 5.618.237-3.721.558-7.431 1.796-10.992-.019-.303-.039-.604-.06-.909-3.068 1.268-4.96 3.844-6.974 6.283"/>
    <path fill="#e2e2e1" d="M97.0276 101.7097c-.562-.208-1.123-.417-1.683-.625-1.203 1.784.223 3.778-.447 5.603 5.597 2.197 11.196 4.397 16.796 6.597.29-.042.58-.085.869-.127-.329-.628-.659-1.256-.988-1.884-3.419-5.362-7.395-9.879-14.547-9.564"/>
    <path fill="#3c1917" d="M97.0276 101.7097c5.979 1.469 10.045 5.848 14.547 9.564.256-2.535.511-5.071.767-7.607-3.683-3.659-8.246-3.951-13.033-3.428-1.025.112-1.991.249-2.281 1.471"/>
    <path fill="#3a1816" d="M98.8406 97.5359c.063.521-.85 1.806.271 1.448 4.922-1.572 9.096.71 13.457 2.142.866-1.702.801-3.573.978-5.401.597-1.638-.405-1.888-1.678-2.006-2.836-.264-5.496.47-8.142 1.327-1.968.163-3.337 1.503-4.886 2.49"/>
    <path fill="#8d551d" d="M103.727 95.0456c1.816-.282 3.629-.766 5.448-.785 1.533-.016 3.56-.884 4.372 1.468.621-.74.528-1.615.482-2.481-3.534.029-7.17-.53-10.302 1.798"/>
    <path fill="#e5e4e4" d="M93.6509 140.2957c-2.278-.192-4.13 1.132-6.191 1.707-1.494.417-3.093 1.865-4.585-.063-1.428.209-1.275 1.052-.811 2.02 2.213 2.112 2.063 3.6-.935 4.882-2.422 1.035-4.231 2.929-5.219 5.47 1.146 2.631 3.59 1.679 5.211 1.342 3.473-.722 7.098-.669 9.946-1.811-4.86 1.656-10.607 1.279-16.036 2.72-.456.576-.912 1.151-1.368 1.726 6.161.078 12.327.364 18.441-.798 7.977-1.516 12.864-6.675 13.564-14.415-.937-3.363-4.014-3.067-6.488-3.809-1.92-.091-3.776.198-5.529 1.029"/>
    <path fill="#fbf7e7" d="M82.0635 143.9598c.047-.763.121-1.515.811-2.02.946-1.21 1.893-2.42 2.839-3.63.721-2.355-1.161-2.83-2.549-2.78-3.884.139-7.045-1.258-9.873-3.725-1.365.674-4.313-.666-3.932 1.95.302 2.074-3.667 4.941.91 6.296 4.502-.42 7.955 2.327 11.794 3.909"/>
    <path fill="#e09b3b" d="M75.0308 156.563c10.518.513 17.492-1.162 21.35-5.542-7.019 2.268-13.506 4.495-20.469 3.287-.803.556-.693 1.464-.881 2.255"/>
    <path fill="#70624e" d="M114.3168 117.4991c-1.262.263-2.375-.249-3.503-.675-.012 1.02-.71 1.54-1.494 1.943-3.186 1.638-.614 2.377.51 3.347.326-.044.653-.089.979-.133 1.235-.06 2.106-.635 2.558-1.804.054-.321.108-.641.163-.962.573-.493 1.145-.987 1.717-1.479l-.93-.237"/>
    <path fill="#b13724" d="M55.4507 128.2947c-.431-2.084-.954-4.294-3.366-4.427-1.689-.094-3.701.991-3.568 3.001.207 3.11 3.657 1.931 5.386 3.268 1.022.791 1.293-.953 1.548-1.842"/>
    <path fill="#e3e7ec" d="M175.8282 98.3531c-.73-.888-.129-2.506-2.059-2.385-1.626.102-1.188 1.22-1.51 2.074-.639 1.698 1.02 2.236 1.682 2.314.844.099 1.528-1.066 1.887-2.003"/>
    <path fill="#b83c26" d="M73.2917 131.8053c1.052 4.235 3.858 5.273 7.929 4.836 1.43-.153 3.906-1.231 4.492 1.67 1.111-5.663-2.002-8.947-8.848-9.338-.234 2.253-2.196 1.385-3.402 1.884l-.171.948"/>
    <path fill="#293c55" d="M191.6284 97.8367c-.032-1.608-.059-3.366-2.176-3.491-1.572-.092-2.116 1.163-2.157 2.593-.054 1.881.546 3.593 2.574 3.739 1.699.122 1.659-1.57 1.759-2.841"/>
    <path fill="#dac2b9" d="M67.6708 72.5933c-3.702.166-4.24 2.125-2.914 5.141.974.504 1.947 1.008 3.462 1.792-.947-2.279-.542-3.619 1.712-3.75.486-1.941-.009-3.186-2.26-3.183"/>
    <path fill="#ca7b0a" d="M67.6708 72.5933c1.39.609 1.607 2.051 2.26 3.183.467.672.934 1.344 1.493 2.151 1.757-2.153.617-3.949-.91-5.431-2.086-2.026-4.392-3.84-7.513-1.75 1.194 1.532 3.569.078 4.67 1.847"/>
    <path fill="#3a1513" d="M78.5647 81.9901c-.201-1.102-.871-1.645-1.99-1.657-1.216.426-3.333.394-2.381 2.398.746 1.568 1.806-.131 2.725-.492.504-.197 1.094-.173 1.646-.249"/>
    <path fill="#6c5444" d="M98.5567 140.147c2.279 1.197 5.229.761 7.111 2.927 2.162.931 1.692 2.73 1.468 4.447-.251 1.114-.879 2.268.334 3.231 3.121-8.286 3.329-16.679.916-25.165-2.619-2.27-1.661.585-2.086 1.46-2.037 1.876.156 5.021-2.065 6.836-1.466.99-3.001 1.876-4.347 3.035-.834.915-1.777 1.788-1.331 3.229"/>
    <path fill="#e2ba86" d="M107.4693 150.7523c-.111-1.078-.222-2.157-.333-3.233-1.588 2.121-3.175 4.24-4.763 6.36.13.146.26.292.39.439 1.414-1.024 2.827-2.048 4.247-3.077.164-.159.315-.32.459-.489"/>
    <path fill="#452624" d="M63.3997 185.4448c1.155-.195 2.585-.311 3.938-.698 1.405-.403 1.409-.579-.008-1.754-.798-.662-.174-1.256-.094-1.87.247-1.913.067-3.779-1.094-5.342-1.198-1.611-2.845-1.732-3.823.037-1.719 3.109-.538 6.388.039 9.589.113.622.469.452 1.042.038"/>
    <path fill="#cf967a" d="M61.1115 165.5957c-.266-1.218-1.227-1.164-2.032-1.01-1.416.271-3.052.702-3.286 2.309-.211 1.446 1.164 1.33 2.161 1.16 1.475-.252 2.705-.884 3.157-2.459"/>
    <path fill="#6d5045" d="M50.4771 176.0554c-.559.041-.371-1.871-1.119-.645-.685 1.124-.668 2.675-.959 4.038 2.155-.236 2.924-1.32 2.078-3.393"/>
    <path fill="#eb9f0a" d="M83.8727 174.6989c-.119-1.369-.622-2.634-2.102-2.739-1.268-.09-1.453 1.098-1.406 2.128.055 1.204.47 2.282 1.819 2.471 1.327.187 1.642-.764 1.689-1.86"/>
    <path fill="#477737" d="M113.3666 120.1768c-1.214.087-2.06.698-2.557 1.803-.003 1.003-.076 2.012.007 3.007.154 1.856-.641 4.755 2.404 4.432 2.162-.23 4.256-1.892 3.234-4.911-.545-.12-1.576.171-1.573-.131.009-1.073 1.018-.459 1.58-.657 1.068-3.015-.818-3.45-3.095-3.543"/>
    <path fill="#e99e0b" d="M116.4621 123.7199c-.696-1.571-1.652-2.553-3.128-.853-1.052 1.21-1.293 2.865.225 3.723 1.938 1.096 2.251-.908 2.895-2.081-.083-.264-.081-.527.008-.789"/>
    <path fill="#b63523" d="M100.4009 137.6624c1.443-.915 2.886-1.83 4.329-2.746 2.002-2.403 1.655-5.01.668-7.673l-.261-.068s-.269.009-.268.01c-2.662-2.662-4.939-6.091-9.621-4.515-3.935 1.324-6.814 3.502-6.962 8.067 2.047 3.106 5.253 2.516 8.243 2.611 1.883-.156 1.746 1.273 1.911 2.465.363.927.536 2.058 1.961 1.849"/>
    <path fill="#f59f08" d="M100.4009 137.6624c-.8-.681-.927-1.594-.886-2.565-.828-.925-1.493-1.999-2.506-2.755-3.011.023-5.924-.482-8.723-1.605-1.444 4.998 2.249 7.114 5.363 9.558 1.679 1.327 3.282.207 4.908-.148.615-.829 1.229-1.657 1.844-2.485"/>
    <path fill="#d77f0a" d="M74.0592 127.5667c.94.068 1.517-.436 1.663-1.16.197-.974-.343-1.664-1.354-1.812-.835-.123-1.433.349-1.588 1.121-.206 1.02.435 1.575 1.279 1.851"/>
    <path fill="#b3a09d" d="M105.3974 127.2433c.671 2.636-.15 5.142-.667 7.674 1.488-.114 2.339-.636 2.042-2.405-.303-1.797-.326-3.642-.472-5.466-.301.066-.602.131-.903.197"/>
    <path fill="#6f1312" d="M97.0085 132.3424c-.763 2.374.572 2.837 2.507 2.754-.038-1.644.34-3.666-2.507-2.754"/>
  </g>
</svg>
