<svg xmlns="http://www.w3.org/2000/svg" viewBox="0 0 1000 114"><title>logo_right</title><g id="Layer_2" data-name="Layer 2"><polygon points="637.39 27.1 496.73 27.1 496.73 71.99 637.39 71.99 637.39 66.5 703.17 66.5 703.17 32.12 637.39 32.12 637.39 27.1" fill="#fff"/><polygon points="961.16 28.38 961.16 26.69 873.17 26.69 873.17 31.76 822.28 31.76 822.28 23.77 742.06 23.77 742.06 71.99 822.28 71.99 822.28 68.9 881.38 68.9 881.38 53.58 888.03 53.58 888.03 84.66 912.73 84.66 912.73 53.58 952.28 53.58 952.28 70.57 978.28 70.57 978.28 28.38 961.16 28.38" fill="#fff"/></g><g id="Layer_1" data-name="Layer 1"><path d="M537.62,8.2c4.64,0,9.29.39,11.59,1.18,5,1.66,8.42,3.56,9.22,5,.42.86.73,5.16.73,11.35.08,7.23.22,10,1,10,.4,0,.95-.64,1.74-1.73,3-4.06,10-6.53,17.79-6.53a37.3,37.3,0,0,1,4.92.33c4.72.62,9.39,2.34,10.25,3.75a1.08,1.08,0,0,0,1,.59c.74,0,1.77-.67,3.16-2.06l2.15-2.15L615,28.1c15.58.25,15.53.18,17,4.6.67,2.19.67,2.68-.56,4.88l-1.29,2.52,2,3.69c1.28,2.45,2.42,3.69,3.34,3.69.57,0,1.06-.49,1.44-1.49a5.75,5.75,0,0,1,1.17-1.9c1.23-.73.67-2.88-1.17-5-2.52-2.82-2.64-7.18-.25-9.44,1.27-1.22,1.81-1.43,6-1.43h2.42c17.86.19,17.49.13,18,4.48.19,1.46.67,2.74,1.1,2.93l.1,0c.65,0,3.28-1.42,6.11-3.34,5.87-3.89,9.85-5.68,13.69-5.68a17.19,17.19,0,0,1,7.78,2.19,22.43,22.43,0,0,0,5.53,2.15c1.35,0,6.82,3.27,8.1,4.87.43.55,1.78,2.45,3,4.3,2,2.93,2.22,3.7,2.27,7.81.06,4.54.06,4.6-2.27,6.75l-2.33,2.15,2.27,2,2.33,2-2,5.16a42.44,42.44,0,0,1-3.9,7.73c-4,5.2-10.58,8.11-17.8,8.11a28,28,0,0,1-6.6-.8c-3.55-.86-8.22-3-8.9-4-.13-.31-1.59-.62-3.06-.62-2.33,0-3.08-.37-6-3a20.08,20.08,0,0,1-7.12-15.1,34.57,34.57,0,0,1,.49-7.67c.43-1.54.86-3.69,1-4.79a3.6,3.6,0,0,1,1.17-2.39c1.1-.37,1.1-2,.12-2-1.17,0-4.3,5-7.81,12.34-1.71,3.56-4.1,8.29-5.39,10.44s-3.32,5.82-4.48,8.1c-2.71,5.28-6.77,9.64-9.22,9.64S627,79.69,621.19,69.93c-2.82-4.78-5.57-9.2-6-9.87s-1.9-2.84-3.31-4.8a28.57,28.57,0,0,1-2.71-4c-.06-1-7.18-9.63-8.1-9.81l-.24,0c-.7,0-.8.94-.8,5.55,0,6.75,1.38,15.9,2.93,19.27a28.93,28.93,0,0,0,3.13,5c2.82,3.55,2.69,6.14-.31,8.16-1.73,1.2-2.15,1.46-8.59,1.46-1.78,0-4,0-6.88,0-7.3,0-14.49-.42-16.09-.8a11,11,0,0,0-2.44-.4,4.09,4.09,0,0,0-2.28.78,4.85,4.85,0,0,1-2.44.71c-2.23,0-4.53-1.82-7.32-5.69l-1.34-1.84L557.88,75c-.62,1.68-5.28,3.68-13,5.58a43,43,0,0,1-10.41,1.21c-7.63,0-15.13-1.76-18.57-4.77a2.85,2.85,0,0,0-2-.65,9.46,9.46,0,0,0-1.61.16,8.21,8.21,0,0,1-1.21.09c-3.1,0-6.36-1.81-9.29-5.25-2.57-3-6.62-9.95-6.62-11.35a11,11,0,0,0-1-2.83c-.92-1.72-1.1-3.74-1.1-12.21V34.88l2.08-4.05c3.63-7.25,10.16-13.45,14.06-13.45a12.26,12.26,0,0,0,4.79-1.95,58.22,58.22,0,0,1,12.21-6.08c2.29-.76,6.88-1.15,11.48-1.15M511.74,23.82a2.43,2.43,0,0,1-1.82-1,2.52,2.52,0,0,0-1.84-1.08c-.94,0-2,.81-3.38,2.49-3.86,4.79-5.77,8.47-6.57,13.08a53.47,53.47,0,0,0,.5,17.19A41.74,41.74,0,0,0,506.92,70c1.07,1.11,1.57,1.58,2.07,1.58a2,2,0,0,0,1.06-.48,4.69,4.69,0,0,1,2.67-.87,3,3,0,0,1,2.11.75,39.51,39.51,0,0,0,6,4c3.18,1.78,8.45,2.66,14,2.66,6,0,12.3-1,16.83-3l2.26-1V61.6H552.4c-.92,0-3,1.1-5,2.63-5.55,4.24-8.45,5.79-12,5.79a18.17,18.17,0,0,1-3.67-.44c-3.8-.74-10.07-4.3-13.19-7.43A21.28,21.28,0,0,1,515,56.81c-1.29-2.82-1.48-4.11-1.48-10.87,0-6.55.25-8.27,1.48-11.71,1.81-5.13,4.11-8.41,7.67-11a15.88,15.88,0,0,1,9.65-3.39,19.14,19.14,0,0,1,5.51.88c4.73,1.45,10.68,8.45,10.68,12.68v.19a4.05,4.05,0,0,0,4,3.92h.13l1.66-.18-.19-10.44c-.2-11.84,0-11.29-5.85-13.38-2.39-.84-10.22-1.5-15.18-1.5a20.83,20.83,0,0,0-3.56.21c-2.4.54-8.79,3.49-12.16,5.64-2.27,1.41-3.25,2.46-3.5,3.75s-1.18,2.2-2.17,2.2M535.65,66.5c2.39,0,5.58-1.78,10-5.58,3.38-3,3.56-3,7.37-3h3.9l1.05-2.4a10.56,10.56,0,0,1,3.68-4.11,25.6,25.6,0,0,0,3-2.29c.17-.28,1.53-.51,3.14-.51h.89c3,0,8.72-1.52,9.79-2.52.62-.68-1.11-2.27-2.46-2.27a11.49,11.49,0,0,0-4,1.66c-2.3,1.34-3.62,1.65-7.18,1.65h-.41c-4.44,0-6.59-1.11-6.59-3.37,0-2.08-3.27-3.66-6.21-3.66a5.83,5.83,0,0,0-3,.73,2.44,2.44,0,0,1-1.3.43c-1.14,0-2-1.09-2.51-3.07-1.4-5.89-2.2-7.67-4.42-10.19a17.92,17.92,0,0,0-4.11-3.56,8.59,8.59,0,0,0-4-.87,11.52,11.52,0,0,0-5.24,1.21c-6.28,3.28-10.19,15.07-8.36,25.42a30.92,30.92,0,0,0,1.54,5.85c2.21,4.48,11.11,10.44,15.53,10.44m29.93-21.71q2.24,0,5.69-2.55A30.61,30.61,0,0,1,579,39.53a7.83,7.83,0,0,1,2.64,1.95c1.66,1.66,1.91,2.4,1.78,4.43l-.19,2.45-4.29,1c-3.28.84-4.63,1.51-5.86,2.93A4.4,4.4,0,0,1,570,54.2a2.28,2.28,0,0,1-1.78-.9,2.27,2.27,0,0,0-1.8-.95c-1,0-2.21.79-3.23,2.3-2.27,3.38-3.25,7.61-2.39,10.07a12.39,12.39,0,0,1,.67,3.07,18.09,18.09,0,0,0,2.15,4.79c1.54,2.58,2.87,3.86,4.07,3.86a2.37,2.37,0,0,0,1.78-1,2,2,0,0,1,1.55-.86,6.94,6.94,0,0,1,2.75.93c1.66.85,4.3,1,15.53,1.1h2.4c8.28,0,11.18-.29,11.35-.68s-.8-2.09-2.08-3.69c-4.08-5-4.76-8-4.88-21.31-.13-11-.19-11.66-1.6-13.75a13.73,13.73,0,0,0-4.11-3.74c-2-1.06-5.63-1.65-9.69-1.65a41.29,41.29,0,0,0-6.34.48c-8.41,1.22-13.93,6.38-11.6,10.74a3.09,3.09,0,0,0,2.85,1.81m66.6,32.49c.83,0,1.71-1.25,3-3.9,1.72-3.44,5-9.43,7.92-14.31.29-.49,1.15-2.15,2-3.68,2.39-4.79,6.81-12,7.67-12.46a2.19,2.19,0,0,0,.8-1.66c0-.8.9-1.66,2.93-2.58,3.12-1.53,3.61-2.46,2.63-5l-.67-1.65h-9.52c-7.8,0-9.64.18-9.88.86-.49,1.28,1.47,4.29,3.5,5.52,2.26,1.38,2.26,2.93.12,5.86A25.35,25.35,0,0,0,639,49.94c-.19.48-.62,1.41-.92,2a2.3,2.3,0,0,0,.06,2.27c.49,1,.37,1.36-.8,2.15a3.4,3.4,0,0,1-1.73.63c-1.17,0-2.08-1.16-3.37-3.88a81.76,81.76,0,0,0-4.88-8.47c-1.84-2.82-3.31-5.46-3.31-6s.81-1,1.78-1.23a2.91,2.91,0,0,0,2.09-1.35c.49-1.23-.57-4-1.54-4h0c-6.7-.14-16.82-.26-21.67-.26-1.64,0-2.68,0-2.77,0-.37.13-.61.92-.61,1.78,0,1.11,1,2.58,3.25,4.79,1.74,1.72,4,4,4.88,5C612.35,46.94,622.91,62.41,624,65c.34.72,1.64,2.91,2.92,4.88s2.82,4.43,3.38,5.47c.69,1.28,1.26,2,1.86,2m39.21-38.61a11.9,11.9,0,0,1-1.62-.17,11.94,11.94,0,0,0-1.61-.17c-1.16,0-1.6.54-3,2.44-3.69,5.16-4.49,7.5-4.55,15s.32,8.45,5,14.31c1.52,1.88,2,2.43,3.18,2.43a9.63,9.63,0,0,0,1.48-.16,9.13,9.13,0,0,1,1.42-.14c1.22,0,2,.48,3.86,1.86,3.25,2.46,6.18,3.32,12,3.75.88.06,1.63.09,2.28.09a10.44,10.44,0,0,0,5.08-1.2c3.5-1.65,6.27-4.54,8.48-9,2.14-4.24,2.14-7.19,0-8a7.24,7.24,0,0,0-2.4-.56c-1.2,0-2,.67-3,2.22-3.25,5.17-7.58,8-11.77,8a9.37,9.37,0,0,1-5-1.49c-3.76-2.39-5.79-5.67-5.85-9.57s0-4.66,7.37-4.66c2.1,0,4.79.08,8.24.17l13.27.43,1-1.53c2.26-3.56.09-10.49-4.79-15-1.91-1.73-2.62-2.26-3.78-2.26a6.8,6.8,0,0,0-1.1.11,4.45,4.45,0,0,1-1.08.14,4.36,4.36,0,0,1-2.24-.63,20.66,20.66,0,0,0-3-1.95h0a14.12,14.12,0,0,0-6-1.06c-2.4,0-4.79.37-6,1.11-1,.55-1.72,1.23-1.72,1.47A10.33,10.33,0,0,1,674,37c-1,1.23-1.54,1.65-2.61,1.65m15.34,27.11a7.16,7.16,0,0,0,1-.08,9.75,9.75,0,0,0,6.57-5.21c.74-1.54.8-2.09.19-2.34a66.49,66.49,0,0,0-9.21-.43,24.74,24.74,0,0,0-4.85.25c-1.1.67.55,3.92,3.07,6.14,1.4,1.25,2.16,1.67,3.25,1.67M537.62,1.2h0c-3.42,0-9.75.2-13.69,1.51l-.16,0a65.75,65.75,0,0,0-13.66,6.81l-.12.08a5.27,5.27,0,0,1-1.73.77c-8.22.67-16.05,10.52-19.42,17.24l-2.07,4a7,7,0,0,0-.77,3.2V45c0,9,.15,12.19,1.92,15.5a4.37,4.37,0,0,1,.4,1.06h0c1.2,5.65,8.06,14.29,8.14,14.38,4.21,5,9.4,7.7,14.6,7.7a13.74,13.74,0,0,0,1.81-.11c7.08,4.87,18.16,5.28,21.59,5.28a49.9,49.9,0,0,0,12.11-1.42,61.07,61.07,0,0,0,11.13-3.65c2.44,2.37,5.55,4.33,9.4,4.33a11.62,11.62,0,0,0,5.34-1.32l.19,0c3.74.87,17.09,1,17.66,1,2.88,0,5.14,0,6.94,0,6.89,0,9-.26,12.54-2.68A11.46,11.46,0,0,0,615,77.36a10.84,10.84,0,0,0-.25-4.52c.12.22.25.43.38.65l0,0c5.54,9.23,9.19,15.32,16.19,15.32,7.94,0,13.83-10.3,15.45-13.45,1-1.93,2.59-4.85,3.77-6.88a27.09,27.09,0,0,0,7.35,10c3.2,2.93,5.55,4.72,10.41,4.76,4.1,2.9,10.42,4.45,10.5,4.47a35,35,0,0,0,8.24,1c9.55,0,18.07-4,23.35-10.85.12-.16.24-.32.34-.48a49.69,49.69,0,0,0,4.54-9l2-5.14a7,7,0,0,0-1.05-6.94c1.45-2.3,1.58-4.6,1.53-8.58-.07-5.43-.69-7.49-3.45-11.62-1.22-1.81-2.71-3.94-3.32-4.72l0-.06c-1.61-2-7.55-6.46-12.08-7.34a15.23,15.23,0,0,1-3.62-1.42l-.26-.14a24,24,0,0,0-10.91-2.93c-5.56,0-10.56,2.35-16.19,6a9.77,9.77,0,0,0-5.73-3.5c-3-.72-6.88-.76-16.39-.86h-3.15c-3.8,0-6.48.11-9.22,2a11.62,11.62,0,0,0-2.66-1.09c-2.91-.82-6.68-.88-14.95-1h-.7l-13.9-.18h-.09a7,7,0,0,0-4.95,2l-.64.64a35.88,35.88,0,0,0-10-2.76,44.91,44.91,0,0,0-5.82-.39,37.93,37.93,0,0,0-13.58,2.34c-.14-8.9-.92-10.46-1.45-11.52a2.12,2.12,0,0,1-.11-.21c-1.13-2.07-3.72-5.19-13.15-8.33C547.51,1.4,541.09,1.2,537.62,1.2ZM505.39,52.69A48,48,0,0,1,505,38.53c.42-2.41,1.24-4.71,3.81-8.19l.13,0c-.2.49-.39,1-.57,1.52-1.63,4.55-1.88,7.22-1.88,14s.17,9.52,2.11,13.77l0,0a27.69,27.69,0,0,0,2,3.65h-.05a34.58,34.58,0,0,1-5.25-10.73Zm21.14.51a23.25,23.25,0,0,1-1-4.1s0-.07,0-.11c-1.43-8.12,1.87-16.52,4.71-18l.06,0a4.75,4.75,0,0,1,1.94-.38,3.72,3.72,0,0,1,.71.06,10.58,10.58,0,0,1,2.1,1.91l.08.08c1.11,1.27,1.57,1.79,2.86,7.16,1.44,6.25,5.75,8.48,9.32,8.48a9.17,9.17,0,0,0,4.13-1,9.29,9.29,0,0,0,1.67,2.87c-.18.25-.35.51-.52.77-5.19,0-7,.83-11.48,4.73-3.36,2.89-5,3.64-5.5,3.83-2.38-.49-7.75-4.22-9-6.27ZM682.59,34.86Zm-62.92,10.7c-2.12-3-4-5.5-4.85-6.56l-.05-.06,2.29,0c0,1.15.19,2.53,2.61,6.59ZM681,39.29a13.36,13.36,0,0,1,2.26-.18,11.44,11.44,0,0,1,2.84.3A12.93,12.93,0,0,1,688,40.64c.22.17.45.32.68.47a11.35,11.35,0,0,0,5.87,1.64c.33,0,.66,0,1,0l.26.24a11.37,11.37,0,0,1,2.89,4.15l-7.47-.25c-3.61-.1-6.31-.17-8.47-.17-4.69,0-8.81.25-11.72,3.22s-2.7,6.28-2.65,8.58a17.35,17.35,0,0,0,.67,4.57,8.36,8.36,0,0,1-1.12-1.87,20.4,20.4,0,0,1-.33-5.37c0-5.67.4-6.9,2.69-10.18.37,0,.72.05,1.09.05a9.87,9.87,0,0,0,7.88-4A18.21,18.21,0,0,0,681,39.29Zm-100.4,16.9,4.26-1a7,7,0,0,0,4.19-3c.1,8,.42,13,2.14,17.38h-1.9c-3.86,0-11-.06-12.55-.42A12.89,12.89,0,0,0,571,67.54a8.51,8.51,0,0,0-2.08.25,11.93,11.93,0,0,1-.59-1.43,18.85,18.85,0,0,0-.86-3.71,5.93,5.93,0,0,1,.34-1.71,9.21,9.21,0,0,0,2.17.26,11.16,11.16,0,0,0,8.4-4.3,13.91,13.91,0,0,1,2.25-.71Zm51.27,8.43c-.56-.91-1-1.72-1.33-2.23a8.6,8.6,0,0,0,2,1.07l-.63,1.16Z" fill="#fff"/><path d="M580.57,56.07a3.28,3.28,0,0,1,2.79,1.53c1.57,2.33.67,9.76-1.36,11.79a3.57,3.57,0,0,1-2.51,1.18c-2,0-3.84-2.19-4.32-5.79-.43-3.34.14-5.47,2.09-7.24a5,5,0,0,1,3.31-1.47m0-7a11.92,11.92,0,0,0-8.05,3.32c-5.37,4.91-4.56,11.21-4.29,13.28.94,7.13,5.46,11.9,11.26,11.9a10.59,10.59,0,0,0,7.45-3.22c2.7-2.7,3.69-6.89,4-9.93s.35-7.52-1.81-10.73a10.24,10.24,0,0,0-8.6-4.62Z" fill="#fff"/><path d="M683.28,39.53a8.78,8.78,0,0,1,4.07,1c3.36,2,2.69,5.57-.54,5.57a5.26,5.26,0,0,1-1-.11,43.33,43.33,0,0,0-5.58-.36h-.37c-4,0-4.24-.07-4.24-1.41,0-1,.8-1.91,2.58-3.08a8.78,8.78,0,0,1,5.08-1.61m0-7h0a15.63,15.63,0,0,0-9,2.83c-1.5,1-5.64,3.81-5.64,8.86A7.88,7.88,0,0,0,674,52.08a18.53,18.53,0,0,0,5.82.55h.37a37.62,37.62,0,0,1,4.5.28,12.38,12.38,0,0,0,2.08.19,9.53,9.53,0,0,0,9.42-6.85c1.22-4.38-.9-9.09-5.27-11.72l-.36-.2a15.82,15.82,0,0,0-7.32-1.8Z" fill="#fff"/><path d="M767.73,8.24c5.54,0,6.92.25,11.69,1.82,8.6,2.83,8.35,2.52,8.1,13-.17,4.79-.55,9.46-.92,10.37-.64,1.86-2.36,3.14-4.88,3.81-2.27.49-2.14,1.12.43,3.07,5.59,4.3,7.62,10.81,6.44,20.57-1,8.34-4.26,12.95-9.14,12.95l-.31,0a3.21,3.21,0,0,0-1.9.63c-.8,1.29-5.16,3.62-8.65,4.67a24.16,24.16,0,0,1-7.33.82c-1.69,0-3.79,0-6.55-.15-6.08-.24-10.86-.67-11.66-1.1-3.87-2.09-5-6.27-4.67-17.32l.19-7.91,2-1.79a7.83,7.83,0,0,0,1.95-2.26,10.47,10.47,0,0,0-1.78-2.59c-3.2-3.92-4.67-8.25-4.67-14.11,0-4.67.19-5.53,1.79-8.17a15.13,15.13,0,0,1,3.8-4.29c1.16-.72,2.08-1.64,2.08-2,0-1.66,4.06-5.34,7.87-7.12,2.26-1,4.54-2.15,5-2.4s4.55-.54,9-.54h2.12m-7.36,61.62c-2.61,0-5.24-1.24-8-3.75s-3-3-3.68-6.76a26,26,0,0,0-1.6-5.58,3,3,0,0,0-2.38-1.36,1.37,1.37,0,0,0-1.24.62c-.57.86.36,20,1,20.93s9.76,1.59,16.53,1.59a32.83,32.83,0,0,0,6.37-.42c3.92-1,6.69-2.88,8.1-5.52.82-1.53,1.92-2.39,2.95-2.39a2.05,2.05,0,0,1,1.6.85c.46.57.87.87,1.25.87.69,0,1.29-1,2-3,1.41-4.06,1.47-14.68.06-17.44a15.92,15.92,0,0,0-6.2-6.75c-3.38-2.16-7-4.11-7.67-4.11a23.56,23.56,0,0,1-3.56-1.85,13,13,0,0,0-4.3-1.84h-.11a1.91,1.91,0,0,1-1.36-.55A12.81,12.81,0,0,0,757,31.61c-2.46-1.16-2.77-1.53-2.77-3.38A8.78,8.78,0,0,1,756,23.69c1.62-2.22,3.52-3.16,6.81-3.16a25.28,25.28,0,0,1,3.26.24c5.69.73,11.72,6.08,12.52,11,.25,1.48.68,2.15,1.35,2.15,2.21,0,2.52-1.29,2.52-9.82V15.73l-1.66-.8a36.33,36.33,0,0,0-6.32-1.59,46,46,0,0,0-8.29-.74c-5.1,0-9.84.83-12.57,2.36-3.21,1.72-6.14,5.65-6.14,8.17,0,1.59-.25,1.72-2.46,1.72s-2.52.18-3.38,2.2c-1.16,2.89-1.16,6.88.07,11.06,1.47,5.15,2.88,6.5,10.25,9.69a11.89,11.89,0,0,0,3.19,1,8.84,8.84,0,0,1,2.58.92c.92.43,3,1.42,4.54,2.16a25.6,25.6,0,0,1,5.22,3.31c2.33,2,2.4,2.23,2.4,5.85s-.13,3.87-2.34,5.77c-2.42,2-4.78,3.08-7.16,3.08m12.14-35.38a1.13,1.13,0,0,0,.84-.39c1.11-1.11-1.59-6-4.42-7.86a8.25,8.25,0,0,0-4.77-1.52,5.43,5.43,0,0,0-.57,0c-1.72,0-3.32.24-3.49.49-.8,1.31.61,3.1,3.8,4.88,1.91,1,4.67,2.57,6.07,3.37a6.62,6.62,0,0,0,2.54,1M760.34,65.91c2.09,0,5.53-2.56,5.53-4.35s-3.63-5-8.66-7.5a43.84,43.84,0,0,0-5-2.27c-1,0-1.09,1.65-.11,3.44A8.52,8.52,0,0,1,753,58.1c0,2.84,4.73,7.81,7.37,7.81m7.39-64.67h-2.16c-9.22,0-11.09.71-12.27,1.39-.77.38-2.73,1.33-4.6,2.2-.13,0-8.26,3.91-11,9.68l-.27.2a22.33,22.33,0,0,0-5.52,6.22c-2.42,4-2.79,6.22-2.79,11.78a28.3,28.3,0,0,0,4.37,16,7,7,0,0,0-1.89,4.62l-.18,7.91c-.28,9.91.14,19.21,8.33,23.63,1.22.66,2.72,1.46,14.71,1.94,3.07.12,5.17.16,6.83.16a30.84,30.84,0,0,0,9.21-1.08l.12,0c.08,0,6.19-1.88,10.15-5,4.6-.42,12.85-3.41,14.8-19,1.13-9.37-.34-16.72-4.46-22.27a12.21,12.21,0,0,0,2.07-3.55c.36-.91,1-3,1.37-12.6v-.09l0-.86c.14-5.73.23-9.18-1.85-12.47-2.3-3.62-5.75-4.76-10.54-6.33l-.54-.18c-5.61-1.85-7.69-2.17-13.88-2.17Zm-1.81,21.81Zm-5.09,20.37a15.69,15.69,0,0,0-4.41-1.52l-.18,0a4.9,4.9,0,0,1-1.35-.41l-.17-.07c-1.31-.57-4.39-1.91-5.31-2.77-.13-.13-.41-.4-1-2.41l0-.07a14.82,14.82,0,0,1-.65-4.17c1.12,3.28,3.73,4.8,6.22,6l.31.14a5.49,5.49,0,0,1,1.31.75A8.93,8.93,0,0,0,760.49,41a5.77,5.77,0,0,1,1.48.71l.17.11a31.2,31.2,0,0,0,4.59,2.38,6.88,6.88,0,0,0,1,.32,58.64,58.64,0,0,1,5.63,3.23l.19.11a8.87,8.87,0,0,1,3.41,3.67,35,35,0,0,1,.26,8.82l-.33.05c-.06-4.88-.88-7.2-4.9-10.56l-.06,0a32.77,32.77,0,0,0-6.63-4.21l-4.44-2.11Z" fill="#fff"/><path d="M809.88,16.28c1.27,0,2.26.71,3.53,2.15,1.91,2.09,2.09,2.58,2.09,6.14,0,3.05.34,4.38,1.61,4.38a8.36,8.36,0,0,0,3.37-1.31,9.88,9.88,0,0,1,4.74-1.57A5.64,5.64,0,0,1,829,27.58a4.3,4.3,0,0,1,1.95,4.12,13.77,13.77,0,0,1-1.29,5.15c-1.78,3.59-6.69,8-9.7,8.47-4.36.74-4.49.92-4.55,10.19-.11,8.17-.11,8.23,1.29,8.41l.24,0c.94,0,2.12-.7,3.75-2.17a20.08,20.08,0,0,1,4.61-3.19c1.84-.8,2.33-1.71,2.09-4.36A27.22,27.22,0,0,1,828.2,49c2-9.14,8.26-16.63,15.09-18.16a12.12,12.12,0,0,0,3.57-1.42c1.71-1.53,6.94-2.82,11.17-2.82,4.67,0,7,.81,10.07,3.74,1.06,1.06,1.63,1.47,2.31,1.47a3.56,3.56,0,0,0,1.24-.3,4.31,4.31,0,0,1,1.47-.31c1.23,0,2.28.82,4.13,2.89,10.43,11.79,10.37,28.73-.13,39.35-2.27,2.27-3.31,2.88-5.65,3.25a17.14,17.14,0,0,0-5.46,1.9,20.46,20.46,0,0,1-5.65,2,18.3,18.3,0,0,1-2.89.2c-3.81,0-8.45-.85-10.86-2.15a12.58,12.58,0,0,0-3.39-1.35c-4.31-.24-7.07-1.9-10.5-6.32l-1.6-2.09-2,3.07A17.7,17.7,0,0,1,814,80.41c-.61,0-1.21,0-1.82-.09-1.77-.17-4.43-.33-6.37-.33H805l-.73,0a11.81,11.81,0,0,1-8.54-3.65c-3.38-3.07-3.5-3.86-3.68-18.29L792,44.71l-1.73-2.18a8.22,8.22,0,0,1-1.65-3.9c0-2.27,3.22-6.65,7.12-9.58,1.9-1.41,3.32-3,3.56-4.05.73-2.76,2.7-5.09,6.08-7,2-1.13,3.39-1.72,4.54-1.72m-8,15.63a5.91,5.91,0,0,1-1.19-.13,6.64,6.64,0,0,0-1.14-.14c-1.07,0-1.8.55-3.53,2.23-3.18,3.08-3.49,5.41-1,7.43,1.55,1.23,1.66,1.53,1.72,6.94,0,3.13.13,9.57.19,14.31l.12,8.71,2.52,2.52c1.68,1.68,2.56,2.4,3.55,2.4a5.38,5.38,0,0,0,2.46-.93,4.12,4.12,0,0,1,1.86-.77,4.47,4.47,0,0,1,2,.89,9.67,9.67,0,0,0,4.58,1.16c.31,0,.63,0,.94,0,3.81,0,4.3-.23,7.3-2.93,5.59-5,7.66-9.57,4.73-10.73a2.21,2.21,0,0,0-.79-.17c-.76,0-1.43.55-2.77,2a11.49,11.49,0,0,1-8.27,3.93,8.05,8.05,0,0,1-2.46-.37l-2.46-.8-.19-12c-.14-14.06-.3-13.69,5.71-13.82,5-.06,7.8-1.68,9.52-5.58a14.32,14.32,0,0,0,1.23-4,1.84,1.84,0,0,0-.46-1.09,1.81,1.81,0,0,0-2.55-.14c-2.92,2.08-5.62,3.14-7.87,3.14a5.49,5.49,0,0,1-3.18-.93c-1.28-.92-1.41-1.3-1-4.23a14.6,14.6,0,0,0-.31-5.1h0c-.47-1.4-1-2.09-1.68-2.09s-1.57.65-2.82,1.94c-1.78,1.86-2.21,2.84-2.21,4.79,0,2.52-.77,3.62-2.61,3.62m38.9,40.69c.43,0,.75-.29,1-.88a1.52,1.52,0,0,1,1.52-.92,4,4,0,0,1,3.08,1.78c1.6,2.1,4.67,3.56,9,4a12.81,12.81,0,0,0,2,.15,12.59,12.59,0,0,0,8.79-3.57c2.06-1.82,3.12-2.43,4.87-2.43a14.13,14.13,0,0,1,1.88.16H873c1.24,0,3.16-2.4,5.89-7.19,1.22-2.15,1.4-3.32,1.4-9.52-.06-6.94-.06-7.12-2.33-11.66a35.35,35.35,0,0,0-3.5-5.77c-.56-.59-.87-.9-1.2-.9s-.74.35-1.5,1.09a3.58,3.58,0,0,1-2.33,1.14,2.39,2.39,0,0,1-2.09-1.57,11.14,11.14,0,0,0-5.28-5.11l0,0a10.24,10.24,0,0,0-4.66-1.07,17.37,17.37,0,0,0-10.1,3.75,9.31,9.31,0,0,1-3.9,1.71c-5.65,0-11.3,10.13-11.17,20,0,5.14,1.5,9.13,4.88,13.66,1.61,2.1,2.82,3.16,3.64,3.16M809.88,9.28h0c-2.76,0-5.19,1.05-8,2.63-4.7,2.65-7.78,6.17-9.16,10.47a9.83,9.83,0,0,1-1.22,1.05c-3.71,2.79-9.94,9.09-9.94,15.2a8.18,8.18,0,0,0,.06,1,15.32,15.32,0,0,0,3.08,7.23l0,0,.23.29.11,11c.19,14.56.23,18.12,5.8,23.26A19,19,0,0,0,804.31,87l1,0h.51c1.71,0,4.15.15,5.7.29a22.94,22.94,0,0,0,2.49.13A24.86,24.86,0,0,0,831.69,80,17.8,17.8,0,0,0,842,84.17a7.41,7.41,0,0,1,1.08.48l.16.09c4.09,2.22,10.2,3,14.19,3a24.51,24.51,0,0,0,4-.29l.2,0a27.6,27.6,0,0,0,7.58-2.62l.16-.09a10.09,10.09,0,0,1,3.19-1.11c4.28-.67,6.55-2.29,9.48-5.21,13.17-13.32,13.34-34.35.42-48.94-1.77-2-4.68-5.25-9.37-5.25a9.29,9.29,0,0,0-1.28.09C867.9,20.89,864,19.6,858,19.6c-3.47,0-10.82.85-15.07,4a4.81,4.81,0,0,1-1.19.42,20.89,20.89,0,0,0-5.16,1.92,11.27,11.27,0,0,0-3.47-4,12.46,12.46,0,0,0-7.92-2.89,13.09,13.09,0,0,0-3.19.4,13,13,0,0,0-3.4-5.7c-1.12-1.28-4-4.49-8.75-4.49Zm41.67,30.45a10.67,10.67,0,0,1,5.91-2.36,3.79,3.79,0,0,1,1.17.17,4.25,4.25,0,0,0,.52.27,4.24,4.24,0,0,1,2,1.91,9.31,9.31,0,0,0,8.34,5.42,9,9,0,0,0,1.89-.2l.33.68.05.09a16,16,0,0,1,1.39,3.15,42.24,42.24,0,0,1,.2,5.42c0,5.15-.13,5.39-.49,6-.94,1.66-1.64,2.76-2.14,3.48-4.21.1-6.85,2.12-9.19,4.19l-.24.22a5.55,5.55,0,0,1-3.91,1.59,5.1,5.1,0,0,1-.87-.07l-.3,0c-2.76-.31-4-1.07-4.24-1.33a11.06,11.06,0,0,0-8.65-4.54,10.14,10.14,0,0,0-1.46.11,13.56,13.56,0,0,1-2.54-8.13v-.09c-.09-6.6,3.13-11.87,4.66-12.87a6.93,6.93,0,0,0,.78-.1,16.47,16.47,0,0,0,6.82-3Zm-49.32-.83a9.91,9.91,0,0,0,3.36-.68,9.68,9.68,0,0,0-1.36,2.36,11.93,11.93,0,0,0-.69,2.31,10.67,10.67,0,0,0-1.31-4Z" fill="#fff"/><path d="M856.65,39.06a7.09,7.09,0,0,1,5.41,2.08c3,3.38,3.31,4.8,3.31,12.47.07,9.21-1.35,12.46-6.14,14.49a8.18,8.18,0,0,1-3.16.8,6.69,6.69,0,0,1-3.22-1c-2.64-1.34-3.19-2.17-4.72-7-1.6-5.28-1.66-12.1-.06-15.54,1.29-2.82,4.16-5.58,6.25-6a11.14,11.14,0,0,1,2.33-.25m.73,26.1c.32,0,.62-.25,1.12-.72,1.84-1.65,2.7-6.35,2.21-12.21a31,31,0,0,0-1.35-7.07v0a3.08,3.08,0,0,0-2.62-2.06c-1,0-2.13.73-3,2.22-2.64,4.15-1.35,15.6,2.09,18.79.8.73,1.2,1.08,1.58,1.08m-.73-33.1a17.89,17.89,0,0,0-3.77.4c-5,1-9.31,5.87-11.17,9.93-2.7,5.82-2,14.7-.28,20.5l0,.06c1.77,5.64,3.15,8.59,8.15,11.16a13.51,13.51,0,0,0,6.47,1.79,15.26,15.26,0,0,0,5.86-1.34c9.74-4.13,10.5-12.63,10.44-21,0-8.18-.44-11.77-5-17a14,14,0,0,0-10.69-4.48Z" fill="#fff"/><path d="M927.41,26.69a8,8,0,0,1,2.75.9c1.55.68,3.43.9,9.2.9,1.52,0,3.31,0,5.44,0,6.75-.12,12.71-.12,13.2-.12,1.41.18,3.07,3.38,3.07,6a11.93,11.93,0,0,1-1,4.36c-1,2.08-1,2.15,1.17,6.26,1.23,2.27,2.58,4.18,3.07,4.29a.39.39,0,0,0,.15,0c1,0,2-2.26,2.49-6,.3-2.63.25-3.06-.86-3.68a8.79,8.79,0,0,1-2.27-2.83c-.86-1.83-.92-2.57-.3-4,1.11-2.84,3.35-4.49,5.88-4.49h.13c1.23.07,6.17.13,11.05.13h8.78l1.78,1.84A5.46,5.46,0,0,1,993,33.78c0,1.73-2.64,6.33-3.68,6.33-1.36,0-4.06,4.18-8.72,13.51-5.55,11.15-8.47,17.37-8.47,18s-7.19,15.17-8,16.08c-.5.62-.25,1.18,1,2.09a6.25,6.25,0,0,0,2.14,1.29c.93,0,3,4.79,3,6.94,0,2.52-1.17,3.62-5.22,5a104.11,104.11,0,0,1-17.19,2.82,8,8,0,0,1-3.69-1.53c-1.59-1.29-1.83-2-1.83-4.43A14.25,14.25,0,0,1,944,93.52c3.69-7.61,7.86-17.8,7.86-19.16a8.6,8.6,0,0,0-1.72-3.49A19.09,19.09,0,0,1,948,67.74c-.24-.49-.8-1.48-1.16-2.15-.7-1-1.47-2.22-4.61-7.37a21.21,21.21,0,0,1-1.41-2.46c-.3-.67-2.33-4-4.48-7.3-3-4.77-5-7.2-5.89-7.2-.2,0-.35.12-.44.37a22.71,22.71,0,0,1-7.3,8.59c-2.2,1.45-3,2-4.67,2a44.4,44.4,0,0,1-5.15-.59,3,3,0,0,0-.39,0c-.79,0-.82.86-.66,5.69.25,7.48.8,9,4.31,11.72a15.48,15.48,0,0,1,3.73,3.8c.8,1.48.75,1.85-.8,4.12A9,9,0,0,1,915.89,80c-.86.38-8,.62-15.89.62H885.7L883.8,79c-2.84-2.33-2.65-5,.6-8.53a12.85,12.85,0,0,0,3.07-5A101.35,101.35,0,0,0,888,52.75V42.35l-3-2.8c-4.91-4.55-4.8-8.35.37-10.8,1.3-.62,2.41-.87,6.53-.87,2.49,0,6.07.09,11.45.25,8.66.25,16.11.67,16.7,1a1.2,1.2,0,0,0,.57.12,8.16,8.16,0,0,0,3.33-1.16c1.88-.95,2.68-1.38,3.48-1.38M920.75,34a13.24,13.24,0,0,1-5.4-1,5.62,5.62,0,0,0-2.21-.79,4,4,0,0,0-1.91.79,7,7,0,0,1-3.36,1c-.9,0-1.59-.29-1.79-.89s-5-1-9.83-1c-5,0-10.21.37-10.49,1.09-.62,1.6,1.16,4,4,5.41l2.69,1.29V53.47c0,8.17-.3,14.06-.67,14.79a8.19,8.19,0,0,1-2.21,2.22c-1.9,1.25-3,3.74-2.21,5.15.5.93,2,1.05,14,1.05h13.36l.19-1.54c.13-1.26-.48-2.06-2.93-3.9-4.55-3.38-5.09-5.16-4.79-14.31.24-5.46.06-7.85-.49-8.9-1.17-2.14-1-2.83.73-3.26a6.48,6.48,0,0,1,1-.08,5.56,5.56,0,0,1,2.93.83c2.36,1.23,4.13,1.89,5.68,1.89,2.48,0,4.4-1.69,7.27-5.46,3-4,4-4.85,5.85-5.15a9.13,9.13,0,0,1,1.87-.19,9.51,9.51,0,0,1,1.51.12c1.41.43,14.45,20.2,18.36,27.76,1,1.81,2.08,3.57,3.25,5.28,2.51,3.86,2.77,5,1.54,6.5a35.44,35.44,0,0,0-2.83,5.85c-1.11,2.71-3.07,7.13-4.36,9.83-3.07,6.38-3.2,7.44-2.21,8.23a1.86,1.86,0,0,0,1.43.48c1.32,0,4.16-.5,11.53-1.84,3.74-.67,4.29-1,4.48-2.21.24-1.65-1.42-3.74-3-3.74-1.9,0-3-.74-3-2,0-.68,1.35-4,3-7.43,2.88-5.89,4.3-9,7.43-16,.73-1.68,3.86-8.17,6.94-14.37,4.49-9.27,6.09-11.92,8.78-14.55,3.56-3.56,3.5-3.5,2.7-5.1-.54-.92-1.65-1-10-1l-9.4.06L968,34.06c-.2,1.41.16,2,1.95,3,2.76,1.65,2.82,3.32.61,9.46-2.33,6.53-2.81,8.17-2.4,9.46s-1.43,2.68-3,2.68a2,2,0,0,1-.48,0c-.56-.12-1.79-1.66-2.64-3.37a47.35,47.35,0,0,0-2.77-5c-.67-1-1.46-2.42-1.83-3.06s-1.36-2.43-2.16-3.91c-1.9-3.43-1.9-4.6,0-5.46a2.37,2.37,0,0,0,1.54-2.52,3.79,3.79,0,0,0-.74-2.39c-.49-.37-6.62-.73-15.38-.85-3.33,0-5.91-.07-7.93-.07-6.08,0-7,.24-7.68.93S922.68,34,920.75,34m6.66-14.29h0c-2.44,0-4.19.89-6.4,2l-.24.12-.14.07-.31.17c-2.39-.34-7-.65-16.79-.92-5.42-.17-9.06-.26-11.65-.26-4.33,0-6.73.22-9.52,1.54-5.71,2.71-7.42,6.62-7.85,9.43-.67,4.38,1.25,8.7,5.71,12.84l.81.74v7.45a92.9,92.9,0,0,1-.43,10.94,5.66,5.66,0,0,1-1.18,1.73l-.15.16c-3.23,3.47-4.68,6.89-4.44,10.45a11.51,11.51,0,0,0,4.48,8.21L881.19,86a7,7,0,0,0,4.51,1.64H900c15.92,0,17.51-.69,18.67-1.19a6.67,6.67,0,0,0,.71-.35,16.3,16.3,0,0,0,5.56-5.3c2-3,3.76-6.39,1.1-11.3-.12-.21-.25-.42-.39-.62a22.18,22.18,0,0,0-5.31-5.45,7.17,7.17,0,0,1-1-.87,14.35,14.35,0,0,1-.41-3.33c3.21-.2,5.22-1.53,7.35-2.94l.28-.18.21-.14a30.35,30.35,0,0,0,3.91-3.32c2,3,3.46,5.5,3.82,6.16A28.71,28.71,0,0,0,936.31,62c2.83,4.66,3.78,6.14,4.53,7.26l.33.6c.22.41.45.81.57,1.06l.13.25a27.11,27.11,0,0,0,2.55,3.8c-1.14,3.13-3.79,9.51-6.66,15.45a21.4,21.4,0,0,0-2.4,9.3v.17c0,3.88.74,6.88,4.43,9.87l.17.13a14.94,14.94,0,0,0,7,2.89,6,6,0,0,0,1,.07l.55,0a110.63,110.63,0,0,0,18.35-3,4.91,4.91,0,0,0,.51-.15c3-1,10-3.34,10-11.61a19.38,19.38,0,0,0-1.74-7.07,14.69,14.69,0,0,0-2.77-4.44c.54-1.06,1.17-2.33,1.93-3.86,3-6,4-8.2,4.27-9.48.43-1,2-4.64,7.88-16.42a86,86,0,0,1,5.75-10.37,12.57,12.57,0,0,0,5-5.26,15.07,15.07,0,0,0,2.39-7.32q0-.35,0-.69a12.4,12.4,0,0,0-4-7.9l-1.6-1.66a7,7,0,0,0-5-2.14H980.6c-5.31,0-9.79-.07-10.66-.12h-.52a12.64,12.64,0,0,0-6.5,1.78,8.46,8.46,0,0,0-4-1.65,7,7,0,0,0-.92-.06c-1.08,0-6.84,0-13.32.12-2.24,0-3.94,0-5.32,0-4.94,0-6.12-.19-6.38-.31l-.12-.05-.39-.16a12.32,12.32,0,0,0-5.06-1.28Zm21.05,25.7-.87-1.31c-1.2-1.82-2.34-3.51-3.38-5l2.61.08a12.85,12.85,0,0,0,1.64,6.24Zm-49-2.24V39.81a5.85,5.85,0,0,0,0-.73c1.26,0,2.25.11,3,.18l.13.09a7.79,7.79,0,0,0-2.89,3.41c-.06.13-.12.26-.17.39Zm-.8,26.52c.44-1.91.8-5.94.8-16.2V49a12.76,12.76,0,0,0,.77,1.8,46.09,46.09,0,0,1,0,5.87v.08c-.18,5.59-.06,9.58,1.41,13h-3Zm63-2.7L961,66l-.12-.17c-.55-.8-1.09-1.63-1.6-2.46a8.8,8.8,0,0,0,3.13,1.92c-.26.6-.52,1.17-.76,1.72Z" fill="#fff"/><g id="Calque_2" data-name="Calque 2"><path d="M526.14,9.35a58.22,58.22,0,0,0-12.21,6.08,12.26,12.26,0,0,1-4.79,1.95c-3.9,0-10.43,6.2-14.06,13.45L493,34.88V45c0,8.47.18,10.49,1.1,12.21a11,11,0,0,1,1,2.83c0,1.4,4.05,8.34,6.62,11.35,3.32,3.9,7.06,5.71,10.5,5.16,1.84-.31,2.82-.19,3.62.49,5,4.42,18.85,6.14,29,3.56,7.73-1.9,12.39-3.9,13-5.58l.56-1.48,1.34,1.84c3.81,5.28,6.7,6.75,9.76,5,1.53-.93,2.21-1,4.72-.38,1.6.38,8.79.75,16.09.8,13.19.12,13.26.12,15.47-1.41,3-2,3.13-4.61.31-8.16a28.93,28.93,0,0,1-3.13-5c-1.55-3.37-2.93-12.52-2.93-19.27,0-5.1.12-5.71,1-5.52s8,8.78,8.1,9.81a28.57,28.57,0,0,0,2.71,4c1.41,2,2.92,4.12,3.31,4.8s3.14,5.09,6,9.87c5.85,9.76,7.74,11.92,10.18,11.92s6.51-4.36,9.22-9.64c1.16-2.28,3.19-6,4.48-8.1s3.68-6.88,5.39-10.44c3.51-7.36,6.64-12.34,7.81-12.34,1,0,1,1.66-.12,2A3.6,3.6,0,0,0,657,45.75c-.18,1.1-.61,3.25-1,4.79a34.57,34.57,0,0,0-.49,7.67,20.08,20.08,0,0,0,7.12,15.1c2.88,2.64,3.63,3,6,3,1.47,0,2.93.31,3.06.62.68,1,5.35,3.19,8.9,4,9.64,2.33,19.22-.56,24.4-7.31a42.44,42.44,0,0,0,3.9-7.73l2-5.16-2.33-2-2.27-2,2.33-2.15c2.33-2.15,2.33-2.21,2.27-6.75-.05-4.11-.31-4.88-2.27-7.81-1.23-1.85-2.58-3.75-3-4.3-1.28-1.6-6.75-4.87-8.1-4.87a22.43,22.43,0,0,1-5.53-2.15c-7.24-3.62-11.78-2.93-21.47,3.49-3,2-5.78,3.51-6.21,3.32s-.91-1.47-1.1-2.93c-.55-4.35-.18-4.29-18-4.48-6.45-.06-6.94,0-8.42,1.42-2.39,2.26-2.27,6.62.25,9.44,1.84,2.16,2.4,4.31,1.17,5a5.75,5.75,0,0,0-1.17,1.9c-1,2.58-2.7,1.79-4.78-2.2l-2-3.69,1.29-2.52c1.23-2.2,1.23-2.69.56-4.88-1.47-4.42-1.42-4.35-17-4.6l-13.88-.18L599,30.07c-2.14,2.14-3.43,2.57-4.11,1.47-.86-1.41-5.53-3.13-10.25-3.75-9.58-1.29-19.09,1.29-22.71,6.2-2.4,3.32-2.65,2.52-2.77-8.23,0-6.19-.31-10.49-.73-11.35-.8-1.47-4.24-3.37-9.22-5C544.63,7.82,530.75,7.82,526.14,9.35Zm22.17,4.17c5.85,2.09,5.65,1.54,5.85,13.38l.19,10.44-1.66.18a4,4,0,0,1-4.18-3.92v-.19c0-4.23-6-11.23-10.68-12.68-5.71-1.72-10.5-.92-15.16,2.51-3.56,2.58-5.86,5.86-7.67,11-1.23,3.44-1.48,5.16-1.48,11.71,0,6.76.19,8.05,1.48,10.87a21.28,21.28,0,0,0,3.56,5.34c3.12,3.13,9.39,6.69,13.19,7.43,5.59,1.16,8.29.25,15.62-5.35,2-1.53,4.11-2.63,5-2.63H554V73.68l-2.26,1c-8.78,3.8-24.31,4-30.88.3a39.51,39.51,0,0,1-6-4c-1.1-1-3.25-1-4.78.12-1.17.8-1.42.68-3.13-1.1a41.74,41.74,0,0,1-8.29-15.47,53.47,53.47,0,0,1-.5-17.19c.8-4.61,2.71-8.29,6.57-13.08,2.33-2.82,3.69-3.19,5.22-1.41s3.5,1,4-1.22c.25-1.29,1.23-2.34,3.5-3.75,3.37-2.15,9.76-5.1,12.16-5.64C532.65,11.62,545.17,12.41,548.31,13.52Zm-12.1,10.93A17.92,17.92,0,0,1,540.32,28c2.22,2.52,3,4.3,4.42,10.19.62,2.7,2.09,3.74,3.81,2.64,3-1.84,9.21.06,9.21,2.93,0,2.33,2.28,3.43,7,3.37,3.56,0,4.88-.31,7.18-1.65a11.49,11.49,0,0,1,4-1.66c1.35,0,3.08,1.59,2.46,2.27-1.11,1-7.25,2.64-10.13,2.51-1.84-.06-3.5.18-3.69.5a25.6,25.6,0,0,1-3,2.29A10.56,10.56,0,0,0,558,55.51l-1.05,2.4H553c-3.81,0-4,.06-7.37,3-4.42,3.8-7.61,5.58-10,5.58-4.42,0-13.32-6-15.53-10.44a30.92,30.92,0,0,1-1.54-5.85c-1.83-10.35,2.08-22.14,8.36-25.42C529.65,23.34,533.82,23.16,536.21,24.45Zm54.15,9a13.73,13.73,0,0,1,4.11,3.74c1.41,2.09,1.47,2.77,1.6,13.75.12,13.32.8,16.34,4.88,21.31,1.28,1.6,2.27,3.26,2.08,3.69s-3.62.73-13.75.67c-11.23-.06-13.87-.25-15.53-1.1-2.52-1.23-3.31-1.23-4.3-.07-1.66,2-3.5,1.11-5.85-2.82a18.09,18.09,0,0,1-2.15-4.79,12.39,12.39,0,0,0-.67-3.07c-.86-2.46.12-6.69,2.39-10.07,1.66-2.45,3.69-3,5-1.35,1.23,1.48,3.14,1.11,4.88-1,1.23-1.42,2.58-2.09,5.86-2.93l4.29-1,.19-2.45c.13-2-.12-2.77-1.78-4.43A7.83,7.83,0,0,0,579,39.53a30.61,30.61,0,0,0-7.73,2.71c-4.24,3.13-7.13,3.37-8.54.74-2.33-4.36,3.19-9.52,11.6-10.74C580.53,31.27,587.41,31.81,590.36,33.41Zm36-1.28c1,0,2,2.76,1.54,4a2.94,2.94,0,0,1-2.09,1.35c-1,.19-1.78.74-1.78,1.23s1.47,3.14,3.31,6a81.76,81.76,0,0,1,4.88,8.47c1.85,3.9,2.93,4.6,5.1,3.25,1.17-.79,1.29-1.16.8-2.15a2.3,2.3,0,0,1-.06-2.27c.3-.61.73-1.54.92-2a25.35,25.35,0,0,1,3.64-5.63c2.14-2.93,2.14-4.48-.12-5.86-2-1.23-4-4.24-3.5-5.52.24-.68,2.08-.86,9.88-.86h9.52l.67,1.65c1,2.51.49,3.44-2.63,5-2,.92-2.93,1.78-2.93,2.58a2.19,2.19,0,0,1-.8,1.66c-.86.49-5.28,7.67-7.67,12.46-.8,1.53-1.66,3.19-2,3.68-2.93,4.88-6.2,10.87-7.92,14.31-2.27,4.6-3.26,5-4.88,2-.56-1-2.09-3.49-3.38-5.47S624.36,65.7,624,65c-1.11-2.57-11.67-18-14.55-21.47-.92-1-3.14-3.31-4.88-5-2.27-2.21-3.25-3.68-3.25-4.79,0-.86.24-1.65.61-1.78s15.48,0,24.44.22Zm62.92,1a20.66,20.66,0,0,1,3,1.95,4.3,4.3,0,0,0,3.32.49c2-.3,2.45-.06,4.88,2.15,4.88,4.49,7.05,11.42,4.79,15l-1,1.53L691,53.84c-15.61-.43-15.71-.36-15.61,4.49.06,3.9,2.09,7.18,5.85,9.57,5.47,3.44,12.22.8,16.82-6.51,1.54-2.39,2.64-2.7,5.41-1.66,2.14.8,2.14,3.75,0,8-2.21,4.42-5,7.31-8.48,9-2.51,1.17-3.74,1.35-7.36,1.11-5.86-.43-8.79-1.29-12-3.75-2.45-1.84-3.06-2.09-5.28-1.72-2.45.37-2.63.25-4.66-2.27-4.72-5.86-5.1-6.83-5-14.31s.86-9.81,4.55-15c1.9-2.58,2-2.64,4.61-2.27,2.39.37,2.76.24,4.23-1.48a10.33,10.33,0,0,0,1.59-2.33c0-.24.75-.92,1.72-1.47,2.36-1.47,9.43-1.47,12,0Zm5.16,25c.61.25.55.8-.19,2.34a9.75,9.75,0,0,1-6.57,5.21c-1.71.25-2.45,0-4.23-1.59-2.52-2.22-4.17-5.47-3.07-6.14C681.15,57.54,693.24,57.72,694.47,58.15Z"/><path d="M577.26,57.54c-2,1.77-2.52,3.9-2.09,7.24.68,5.09,4.05,7.37,6.83,4.61,2-2,2.93-9.46,1.36-11.79C582,55.58,579.37,55.58,577.26,57.54Z"/><path d="M678.2,41.14c-1.78,1.17-2.58,2.09-2.58,3.08,0,1.34.25,1.41,4.24,1.41a45.47,45.47,0,0,1,5.95.36c4.06.8,5.22-3.25,1.54-5.46A8.78,8.78,0,0,0,678.2,41.14Z"/><path d="M756.65,8.79c-.48.25-2.76,1.36-5,2.4-3.81,1.78-7.87,5.46-7.87,7.12,0,.31-.92,1.23-2.08,2a15.13,15.13,0,0,0-3.8,4.29c-1.6,2.64-1.79,3.5-1.79,8.17,0,5.86,1.47,10.19,4.67,14.11a10.47,10.47,0,0,1,1.78,2.59,7.83,7.83,0,0,1-1.95,2.26l-2,1.79-.19,7.91c-.31,11.05.8,15.23,4.67,17.32.8.43,5.58.86,11.66,1.1,8.6.31,10.8.18,13.88-.67,3.49-1,7.85-3.38,8.65-4.67a3.18,3.18,0,0,1,2.21-.61c4.88,0,8.1-4.61,9.14-12.95,1.18-9.76-.85-16.27-6.44-20.57-2.57-1.95-2.7-2.58-.43-3.07,2.52-.67,4.24-1.95,4.88-3.81.37-.91.75-5.58.92-10.37.25-10.5.5-10.19-8.1-13C774.09,8.3,773,8.2,765.61,8.25,761.2,8.25,757.15,8.49,756.65,8.79Zm17.81,4.55a36.33,36.33,0,0,1,6.32,1.59l1.66.8v8.41c0,8.53-.31,9.82-2.52,9.82-.67,0-1.1-.67-1.35-2.15-.8-5-6.83-10.31-12.52-11-5.41-.68-8,.05-10.07,2.92a8.78,8.78,0,0,0-1.78,4.54c0,1.85.31,2.22,2.77,3.38a12.81,12.81,0,0,1,3.13,1.84,2,2,0,0,0,1.47.55,13,13,0,0,1,4.3,1.84,23.56,23.56,0,0,0,3.56,1.85c.67,0,4.29,2,7.67,4.11a15.92,15.92,0,0,1,6.2,6.75c1.41,2.76,1.35,13.38-.06,17.44-1.11,3.12-2,3.68-3.25,2.08s-3.26-.86-4.55,1.54c-1.41,2.64-4.18,4.54-8.1,5.52s-22.16.06-22.9-1.17c-.61-1-1.54-20.07-1-20.93.67-1.1,2.7-.67,3.62.74a26,26,0,0,1,1.6,5.58c.67,3.75,1,4.37,3.68,6.76,5.28,4.79,10.07,5,15.16.67,2.21-1.9,2.34-2.15,2.34-5.77s-.07-3.9-2.4-5.85a25.6,25.6,0,0,0-5.22-3.31c-1.53-.74-3.62-1.73-4.54-2.16a8.84,8.84,0,0,0-2.58-.92,11.89,11.89,0,0,1-3.19-1c-7.37-3.19-8.78-4.54-10.25-9.69-1.23-4.18-1.23-8.17-.07-11.06.86-2,1.18-2.2,3.38-2.2s2.46-.13,2.46-1.72c0-2.52,2.93-6.45,6.14-8.17C757.8,12.6,766.78,11.92,774.46,13.34Zm-5.53,12.89c2.83,1.9,5.53,6.75,4.42,7.86-.67.67-1.29.49-3.38-.62-1.4-.8-4.16-2.33-6.07-3.37-3.19-1.78-4.6-3.57-3.8-4.88.17-.25,1.77-.49,3.49-.49A8.26,8.26,0,0,1,768.93,26.23ZM757.21,54.06c5,2.52,8.66,5.71,8.66,7.5s-3.44,4.35-5.53,4.35c-2.64,0-7.37-5-7.37-7.81a8.52,8.52,0,0,0-.91-2.87c-1-1.79-.86-3.44.11-3.44A43.84,43.84,0,0,1,757.21,54.06Z"/><path d="M805.34,18c-3.38,1.91-5.35,4.24-6.08,7-.24,1.05-1.66,2.64-3.56,4.05-3.9,2.93-7.12,7.31-7.12,9.58a8.22,8.22,0,0,0,1.65,3.9L792,44.71l.13,13.38c.18,14.43.3,15.22,3.68,18.29A11.79,11.79,0,0,0,805,80c2,0,5.15.13,7.18.32a17.72,17.72,0,0,0,16.94-8.42l2-3.07,1.6,2.09c3.43,4.42,6.19,6.08,10.5,6.32a12.58,12.58,0,0,1,3.39,1.35c3.07,1.66,9.76,2.59,13.75,2a20.46,20.46,0,0,0,5.65-2,17.14,17.14,0,0,1,5.46-1.9c2.34-.37,3.38-1,5.65-3.25,10.5-10.62,10.56-27.56.13-39.35-2.52-2.82-3.57-3.32-5.6-2.58-1.47.55-1.95.43-3.55-1.17C865,27.41,862.7,26.6,858,26.6c-4.23,0-9.46,1.29-11.17,2.82a12.12,12.12,0,0,1-3.57,1.42c-6.83,1.53-13.13,9-15.09,18.16a27.22,27.22,0,0,0-.86,5.22c.24,2.65-.25,3.56-2.09,4.36a20.08,20.08,0,0,0-4.61,3.19c-1.77,1.59-3,2.28-4,2.15-1.4-.18-1.4-.24-1.29-8.41.06-9.27.19-9.45,4.55-10.19,3-.49,7.92-4.88,9.7-8.47a13.77,13.77,0,0,0,1.29-5.15A4.3,4.3,0,0,0,829,27.58c-2.4-2-4.79-2-8.47.06-4.12,2.27-5,1.78-5-3.07,0-3.56-.18-4.05-2.09-6.14C811,15.67,809.58,15.61,805.34,18Zm5.86,5.65a14.6,14.6,0,0,1,.31,5.1c-.37,2.93-.24,3.31,1,4.23,2.58,1.78,6.57,1,11.05-2.21a1.8,1.8,0,0,1,2.55.14,1.84,1.84,0,0,1,.46,1.09,14.32,14.32,0,0,1-1.23,4c-1.72,3.9-4.54,5.52-9.52,5.58-6,.13-5.85-.24-5.71,13.82l.19,12,2.46.8c3.43,1.11,7.8-.31,10.73-3.56,1.78-1.95,2.39-2.27,3.56-1.84,2.93,1.16.86,5.77-4.73,10.73-3,2.7-3.49,2.93-7.3,2.93a9.63,9.63,0,0,1-5.52-1.11c-1.95-1.16-2.09-1.16-3.91-.12-2.63,1.48-3.19,1.35-6-1.47l-2.52-2.52L797,62.55c-.06-4.74-.19-11.18-.19-14.31-.06-5.41-.17-5.71-1.72-6.94-2.51-2-2.2-4.35,1-7.43,2.26-2.2,2.82-2.46,4.67-2.09,2.7.5,3.8-.48,3.8-3.49,0-1.95.43-2.93,2.21-4.79,2.53-2.62,3.58-2.62,4.5.15Zm50.89,7.81a11.14,11.14,0,0,1,5.28,5.11c1,2,2.65,2.07,4.42.43,1.48-1.42,1.53-1.42,2.7-.19a35.35,35.35,0,0,1,3.5,5.77c2.27,4.54,2.27,4.72,2.33,11.66,0,6.2-.18,7.37-1.4,9.52-2.83,5-4.8,7.36-6,7.18-3.06-.43-4-.12-6.75,2.27a12.6,12.6,0,0,1-10.74,3.42c-4.36-.49-7.43-1.95-9-4-1.41-2-4-2.39-4.6-.86-.61,1.72-2.14.92-4.6-2.28-3.38-4.53-4.88-8.52-4.88-13.66-.13-9.82,5.52-20,11.17-20a9.31,9.31,0,0,0,3.9-1.71c5.11-3.78,10.71-4.76,14.76-2.68Z"/><path d="M854.32,39.31c-2.09.43-5,3.19-6.25,6-1.6,3.44-1.54,10.26.06,15.54,1.53,4.88,2.08,5.71,4.72,7,2.4,1.29,3.75,1.29,6.38.19,4.79-2,6.21-5.28,6.14-14.49,0-7.68-.36-9.09-3.31-12.47C860.53,39.37,857.51,38.63,854.32,39.31Zm5,5.85a31,31,0,0,1,1.35,7.07c.49,5.86-.37,10.56-2.21,12.21-1.1,1-1.23,1-2.7-.36-3.44-3.19-4.73-14.64-2.09-18.79,1.78-2.94,4.3-2.94,5.65-.16Z"/><path d="M923.93,28.07c-1.95,1-3.3,1.35-3.9,1s-8-.73-16.7-1c-14.3-.43-15.89-.37-18,.62-5.17,2.45-5.28,6.25-.37,10.8l3,2.8v10.4a101.35,101.35,0,0,1-.56,12.68,12.85,12.85,0,0,1-3.07,5c-3.25,3.5-3.44,6.2-.6,8.53l1.9,1.6H900c7.92,0,15-.24,15.89-.62a9,9,0,0,0,3.19-3.06c1.55-2.27,1.6-2.64.8-4.12a15.48,15.48,0,0,0-3.73-3.8c-3.51-2.71-4.06-4.24-4.31-11.72-.18-5.52-.11-5.85,1-5.65,6.51.92,6.19,1,9.82-1.41a22.71,22.71,0,0,0,7.3-8.59c.49-1.36,2.65,1,6.33,6.83,2.15,3.32,4.18,6.63,4.48,7.3a21.21,21.21,0,0,0,1.41,2.46c3.14,5.15,3.91,6.33,4.61,7.37.36.67.92,1.66,1.16,2.15a19.09,19.09,0,0,0,2.15,3.13,8.6,8.6,0,0,1,1.72,3.49c0,1.36-4.17,11.55-7.86,19.16a14.25,14.25,0,0,0-1.65,6.32c0,2.45.24,3.14,1.83,4.43a8,8,0,0,0,3.69,1.53A104.11,104.11,0,0,0,965.07,103c4-1.36,5.22-2.46,5.22-5,0-2.15-2.09-6.94-3-6.94a6.25,6.25,0,0,1-2.14-1.29c-1.23-.91-1.48-1.47-1-2.09.79-.91,8-15.46,8-16.08s2.92-6.83,8.47-18c4.66-9.33,7.36-13.51,8.72-13.51,1,0,3.68-4.6,3.68-6.33a5.46,5.46,0,0,0-1.84-3.55l-1.78-1.84H980.6c-4.88,0-9.82-.06-11.05-.13-2.58-.06-4.88,1.6-6,4.49-.62,1.41-.56,2.15.3,4a8.79,8.79,0,0,0,2.27,2.83c1.11.62,1.16,1,.86,3.68-.55,3.91-1.6,6.21-2.64,5.95-.49-.11-1.84-2-3.07-4.29-2.14-4.11-2.14-4.18-1.17-6.26a11.93,11.93,0,0,0,1-4.36c0-2.57-1.66-5.77-3.07-6-.49,0-6.45,0-13.2.12-10.19.12-12.69,0-14.64-.86C927.19,26.35,927.44,26.29,923.93,28.07ZM956,32.86a3.79,3.79,0,0,1,.74,2.39,2.37,2.37,0,0,1-1.54,2.52c-1.9.86-1.9,2,0,5.46.8,1.48,1.79,3.26,2.16,3.91s1.16,2,1.83,3.06a47.35,47.35,0,0,1,2.77,5c.85,1.71,2.08,3.25,2.64,3.37,1.66.37,3.9-1.34,3.49-2.63s.07-2.93,2.4-9.46c2.21-6.14,2.15-7.81-.61-9.46-1.79-1-2.15-1.59-1.95-3l.17-1.66,9.4-.06c8.35,0,9.46.12,10,1,.8,1.6.86,1.54-2.7,5.1-2.69,2.63-4.29,5.28-8.78,14.55-3.08,6.2-6.21,12.69-6.94,14.37-3.13,7-4.55,10.12-7.43,16-1.66,3.38-3,6.75-3,7.43,0,1.29,1.11,2,3,2,1.59,0,3.25,2.09,3,3.74-.19,1.23-.74,1.54-4.48,2.21-11.85,2.15-12,2.15-13,1.36s-.86-1.85,2.21-8.23c1.29-2.7,3.25-7.12,4.36-9.83a35.44,35.44,0,0,1,2.83-5.85c1.23-1.48,1-2.64-1.54-6.5-1.17-1.71-2.26-3.47-3.25-5.28-3.91-7.56-17-27.33-18.36-27.76a9.37,9.37,0,0,0-3.38.07c-1.83.3-2.82,1.16-5.85,5.15-4.67,6.14-6.84,6.76-12.95,3.57a5.59,5.59,0,0,0-3.91-.75c-1.77.43-1.9,1.12-.73,3.26.55,1,.73,3.44.49,8.9-.3,9.15.24,10.93,4.79,14.31,2.45,1.84,3.06,2.64,2.93,3.9l-.19,1.54H901.35c-12,0-13.5-.12-14-1.05-.79-1.41.31-3.9,2.21-5.15a8.19,8.19,0,0,0,2.21-2.22c.37-.73.67-6.62.67-14.79V39.81l-2.69-1.29c-2.83-1.42-4.61-3.81-4-5.41.54-1.4,19.76-1.47,20.32-.06.42,1.23,2.92,1.17,5.15-.12,1.78-1.05,1.95-1.05,4.12,0,2.92,1.41,8.41,1.41,9.7-.06.86-.92,2.26-1,15.61-.86C949.42,32.13,955.55,32.49,956,32.86Z"/></g></g></svg>