<svg id="Layer_1" data-name="Layer 1" xmlns="http://www.w3.org/2000/svg" xmlns:xlink="http://www.w3.org/1999/xlink" viewBox="0 0 170.98 66.5"><defs><linearGradient id="linear-gradient" x1="-326.15" y1="967.21" x2="-297.04" y2="996.32" gradientTransform="matrix(1, 0, 0, -1, 351, 1014.51)" gradientUnits="userSpaceOnUse"><stop offset="0" stop-color="#373738"/><stop offset="0.04" stop-color="#333334"/><stop offset="0.17" stop-color="#2a292b"/><stop offset="0.32" stop-color="#212122"/><stop offset="0.48" stop-color="#1b1a1c"/><stop offset="0.67" stop-color="#161618"/><stop offset="1" stop-color="#151517"/></linearGradient></defs><title>controller</title><path d="M161.21,66.5H9.77A9.8,9.8,0,0,1,0,56.73v-47A9.8,9.8,0,0,1,9.77,0H161.21A9.8,9.8,0,0,1,171,9.77v47A9.79,9.79,0,0,1,161.21,66.5Z" fill="#a4a79e"/><path d="M110,55.38h-.23a7.48,7.48,0,0,1-7.45-7.46V40.26a7.47,7.47,0,0,1,7.45-7.45H110a7.48,7.48,0,0,1,7.45,7.45v7.67A7.48,7.48,0,0,1,110,55.38Z" fill="#040006"/><path d="M110,54.59h-.21a7,7,0,0,1-6.93-6.93V40.53a7,7,0,0,1,6.93-6.93H110A7,7,0,0,1,117,40.53v7.13A7,7,0,0,1,110,54.59Z" fill="#333"/><path d="M140.89,55.38h-.23a7.48,7.48,0,0,1-7.45-7.46V40.26a7.48,7.48,0,0,1,7.45-7.45h.23a7.47,7.47,0,0,1,7.45,7.45v7.67A7.48,7.48,0,0,1,140.89,55.38Z" fill="#040006"/><path d="M140.88,54.59h-.21a7,7,0,0,1-6.93-6.93V40.53a7,7,0,0,1,6.93-6.93h.21a7,7,0,0,1,6.93,6.93v7.13A7,7,0,0,1,140.88,54.59Z" fill="#333"/><path d="M97.07,7.58H153V23.17H97.07Z" fill="#dee1e7"/><circle cx="39.4" cy="32.75" r="21.67" fill="#040006"/><circle cx="39.4" cy="32.75" r="20.58" fill="url(#linear-gradient)"/><path d="M28.84,34.35H21.3a.56.56,0,0,1-.56-.56V31.71a.56.56,0,0,1,.56-.56h7.54a.56.56,0,0,1,.56.56v2.08A.56.56,0,0,1,28.84,34.35Zm12.17,9v7.54a.58.58,0,0,1-.57.57H38.36a.57.57,0,0,1-.56-.57V43.31a.56.56,0,0,1,.56-.56h2.08A.57.57,0,0,1,41,43.31Zm9-12.16h7.54a.56.56,0,0,1,.56.56v2.08a.56.56,0,0,1-.56.56H50a.57.57,0,0,1-.57-.56V31.71A.56.56,0,0,1,50,31.15Zm-12.17-9V14.65a.57.57,0,0,1,.56-.57h2.08a.57.57,0,0,1,.57.57v7.54a.57.57,0,0,1-.57.56H38.36A.56.56,0,0,1,37.8,22.19Z" fill="#242422" stroke="#000" stroke-miterlimit="10" stroke-width="0.25"/><circle cx="39.4" cy="32.75" r="7.56" fill="#222124"/><path d="M133.27,17h-1a.11.11,0,0,1-.11-.11v-.54a.1.1,0,0,1,.11-.1h1a.1.1,0,0,1,.11.1v.54A.11.11,0,0,1,133.27,17ZM128,17h-1a.1.1,0,0,1-.1-.11v-.54a.09.09,0,0,1,.1-.1h1a.09.09,0,0,1,.1.1h0v.54a.1.1,0,0,1-.1.11Zm-5,0h-1a.1.1,0,0,1-.1-.1v-.55a.09.09,0,0,1,.1-.1h1a.1.1,0,0,1,.1.1v.55A.11.11,0,0,1,122.93,17Zm-3.77,4.34h-.89a.16.16,0,0,1-.16-.16h0v-5a.16.16,0,0,1,.16-.16h.89a.16.16,0,0,1,.16.16h0v5a.16.16,0,0,1-.16.16Zm14.06,0h-.89a.16.16,0,0,1-.16-.16h0V17.48a.16.16,0,0,1,.16-.16h.89a.16.16,0,0,1,.16.16h0v3.71A.16.16,0,0,1,133.22,21.35Zm-5.31,0H127a.17.17,0,0,1-.17-.16h0V17.48a.17.17,0,0,1,.17-.16h.88a.16.16,0,0,1,.16.16v3.71a.16.16,0,0,1-.15.16Zm-5,0H122a.16.16,0,0,1-.16-.16h0V17.48a.16.16,0,0,1,.16-.16h.89a.16.16,0,0,1,.16.16h0v3.71A.16.16,0,0,1,122.87,21.35Z" fill="#5f82ac"/><path d="M121.33,20.54c-.3,0-.32-.21-.32-.43V18.29h.53a.11.11,0,0,0,.11-.1V17.6a.11.11,0,0,0-.11-.1H121V16.36a.1.1,0,0,0-.11-.1h-1a.1.1,0,0,0-.11.1V17.5h-1a.11.11,0,0,0-.11.1v.59a.11.11,0,0,0,.11.1h1v2.15a.89.89,0,0,0,1,.91h1.33v-.81Zm18.93-3.19a1.59,1.59,0,0,0-1.23.55v-.5a.16.16,0,0,0-.17-.16H138a.17.17,0,0,0-.17.16v3.8a.17.17,0,0,0,.17.15h.87a.16.16,0,0,0,.17-.15V19a.75.75,0,0,1,.8-.71.66.66,0,0,1,.7.61v2.3a.16.16,0,0,0,.17.15h.87a.17.17,0,0,0,.17-.15V18.69a1.43,1.43,0,0,0-1.47-1.34Zm-24.9,3.9a1.59,1.59,0,0,0,1.23-.55v.5a.16.16,0,0,0,.17.15h.87a.17.17,0,0,0,.17-.15V17.4a.17.17,0,0,0-.17-.16h-.87a.16.16,0,0,0-.17.16v2.2a.75.75,0,0,1-.8.7.66.66,0,0,1-.7-.61V17.4a.16.16,0,0,0-.17-.16h-.87a.17.17,0,0,0-.17.16v2.51A1.44,1.44,0,0,0,115.36,21.25Z" fill="#5f82ac"/><path d="M135.62,17.26a2.22,2.22,0,0,0-2.31,2.14,2.32,2.32,0,0,0,4.61,0A2.21,2.21,0,0,0,135.62,17.26Zm0,3.37c-.82,0-1-.55-1-1.24s.29-1.26,1-1.26,1,.56,1,1.26S136.43,20.63,135.62,20.63Zm-8.76-3.31H126a.25.25,0,0,0-.21.16L125,20.15l-.94-2.67a.27.27,0,0,0-.22-.16H123a.11.11,0,0,0-.11.16l.94,2.7,0,.09c.33,1.14,1.17,1.08,1.17,1.08s.84.06,1.17-1.08l.82-2.79A.12.12,0,0,0,126.86,17.32Zm3.19.83h2.62v-.83h-2.88a1.18,1.18,0,1,0,0,2.35h.29a.43.43,0,1,1,0,.85h-2.25v.83h2.6a1.26,1.26,0,1,0,0-2.51h-.38a.35.35,0,1,1,0-.69Zm-16.56-1.63h0a.56.56,0,0,0-.17-.33A.69.69,0,0,0,113,16h-.24a.72.72,0,0,0-.24.14l-.43.39-.53.49-.6.55-.6-.55-.54-.49-.42-.39a.77.77,0,0,0-.25-.14h-.24a.66.66,0,0,0-.36.16.57.57,0,0,0-.18.33h0V21.2a.17.17,0,0,0,.17.15h.87a.17.17,0,0,0,.17-.15V17.91l1.2,1.1a.27.27,0,0,0,.36,0l1.2-1.1V21.2a.16.16,0,0,0,.17.15h.87a.17.17,0,0,0,.17-.15V16.52Z" fill="#5f82ac"/><path d="M130.72,14.78h-.89a.16.16,0,0,1-.16-.16h0v-5a.16.16,0,0,1,.16-.16h.89a.16.16,0,0,1,.16.16h0v5a.16.16,0,0,1-.16.16Zm1.35,0h-.89a.16.16,0,0,1-.16-.16h0v-5a.16.16,0,0,1,.16-.16h.89a.16.16,0,0,1,.16.16h0v5A.16.16,0,0,1,132.07,14.78ZM121,14c-.31,0-.32-.21-.32-.43V11.72h.47a.16.16,0,0,0,.17-.15v-.49a.16.16,0,0,0-.17-.15h-.47V9.84a.16.16,0,0,0-.17-.15h-.87a.17.17,0,0,0-.17.15v1.09h-.92a.16.16,0,0,0-.16.15v.49a.16.16,0,0,0,.16.15h.92v2.15a.89.89,0,0,0,1,.91h1.34V14Z" fill="#5f82ac"/><path d="M123.91,10.78a1.58,1.58,0,0,0-1.23.55V9.6a.17.17,0,0,0-.17-.15h-.87a.16.16,0,0,0-.17.15v5a.16.16,0,0,0,.17.15h.87a.17.17,0,0,0,.17-.15v-2.2a.75.75,0,0,1,.79-.71.66.66,0,0,1,.7.61v2.3a.17.17,0,0,0,.17.15h.88a.16.16,0,0,0,.16-.15V12.12A1.43,1.43,0,0,0,123.91,10.78Z" fill="#5f82ac"/><path d="M129.2,13.17h.54a2,2,0,0,0,0-.34,2.2,2.2,0,0,0-4.4,0,2.12,2.12,0,0,0,2.2,2.09,2.15,2.15,0,0,0,2-1.31h-1.16a1.08,1.08,0,0,1-.92.41,1,1,0,0,1-1-.85Zm-1.67-1.57a1,1,0,0,1,.92.72h-1.84A1,1,0,0,1,127.53,11.6Zm6.93-.91a2.21,2.21,0,0,0-2.3,2.14,2.31,2.31,0,0,0,4.6,0A2.2,2.2,0,0,0,134.46,10.69Zm0,3.37c-.81,0-1-.55-1-1.24s.28-1.26,1-1.26,1,.56,1,1.26S135.28,14.06,134.46,14.06Zm-18.19-4.8a2.87,2.87,0,1,0,3,2.87A2.92,2.92,0,0,0,116.27,9.26Zm.06,4.76c-1.09,0-1.58-.85-1.58-1.89s.54-1.9,1.58-1.9,1.58.85,1.58,1.9S117.41,14,116.33,14Z" fill="#5f82ac"/><path d="M137,9.84a.56.56,0,0,0-.58.54A.55.55,0,0,0,137,11H137a.56.56,0,0,0,.54-.58A.57.57,0,0,0,137,9.84Zm0,1a.48.48,0,1,1,.48-.48A.49.49,0,0,1,137,10.88Z"/><path d="M137.35,10.75h-.13l-.22-.28h-.18v.28h-.11v-.7h.35a.3.3,0,0,1,.2.06.18.18,0,0,1,.08.15.15.15,0,0,1-.07.14.23.23,0,0,1-.16.06l.24.29Zm-.3-.36a.28.28,0,0,0,.13,0,.12.12,0,0,0,0-.2.25.25,0,0,0-.13,0h-.23v.26Z"/><circle cx="39.4" cy="32.75" r="3.28" fill="#1b191e"/></svg>