<svg xmlns="http://www.w3.org/2000/svg" viewBox="-62 141.1 499.99998 235.63413">
  <path fill="#cdcdcd" d="M197.51812 297.76842c0-43.5931 35.35821-78.95131 78.95131-78.95131 43.5931 0 78.9513 35.35821 78.9513 78.95131 0 43.5931-35.3582 78.95131-78.9513 78.95131-43.5931 0-78.95131-35.35821-78.95131-78.95131zm78.95131-11.69009c-6.56488 0-11.86285 5.24038-11.86285 11.74768 0 6.50729 5.29797 11.74767 11.86285 11.74767s11.86285-5.24038 11.86285-11.74767c0-6.5073-5.29797-11.74768-11.86285-11.74768z"/>
  <path fill="#020202" d="M199.87917 297.76842c0-42.32619 34.32165-76.59025 76.59026-76.59025 42.32619 0 76.59025 34.32164 76.59025 76.59025 0 42.32619-34.32165 76.59025-76.59025 76.59025-42.3262 0-76.59026-34.26406-76.59026-76.59025zm76.35991-11.63251c-6.56488 0-11.86285 5.29798-11.86285 11.86286s5.29797 11.86285 11.86285 11.86285 11.86285-5.29797 11.86285-11.86285-5.29797-11.86286-11.86285-11.86286z"/>
  <path fill="#030303" d="M306.52966 297.76842v65.5912c-9.15628 4.20383-19.34912 6.56488-30.06023 6.56488-10.71112 0-20.90396-2.36105-30.06024-6.56488v-65.5912c0 16.58496 13.47528 30.06023 30.06024 30.06023 16.58495 0 30.06023-13.47527 30.06023-30.06023z"/>
  <path fill="#fff" d="M269.04075 350.97849c.28793-.11517.51828-.23035.69104-.28793.17276-.0576.4031-.11518.69104-.17276.28793-.0576.46069-.0576.74862-.0576.28794 0 .57587.11517.80622.17276.17276.0576.34552.28793.46069.40311.11517.11517.17276.23034.17276.4031v.23035c0 .0576-.0576.11517-.11517.17276-.0576.0576-.11518.17276-.17276.23035-.0576.0576-.11518.11517-.23035.17276-.11517.0576-.23035.0576-.34552.11517-.11517.0576-.28793 0-.40311.0576-.51828.0576-.97897.11517-1.20932.17276-.23034.0576-.4031.11517-.57586.23034-.17276.0576-.28794.17276-.40311.28794-.17276.11517-.23035.23034-.28793.34552-.0576.11517-.17276.28793-.23035.4031 0 .17276-.0576.34552-.0576.57587 0 .34552.0576.57587.23035.8638.11517.28793.40311.51828.69104.63345.28793.11518.69104.28794 1.20932.28794h.51828c.17276 0 .34552-.0576.63345-.11518.11518-.11517.34552-.23034.51828-.34552l.28794-.28793v.69104h1.15173c-.11517-.46069-.17276-.51828-.11517-.8638 0-.57587-.0576-1.84277 0-2.5914v-.80621c0-.23035-.11518-.63346-.17276-.8638-.0576-.23035-.23035-.34552-.34552-.57587-.17276-.17276-.51828-.46069-.80622-.51828-.34552-.0576-.51828-.11517-.8638-.11517-.34552 0-.80621 0-1.15173.0576-.34552.0576-.57587.11518-1.03656.28794-.28793.28793-.28793.63345-.28793.80621zm2.87933 4.26141c-.0576 0-.23035.17276-.28793.17276-.23035.0576-.34552.11518-.4607.17276-.17276 0-.34552.0576-.51828.0576-.28793 0-.46069-.0576-.63345-.17276-.17276-.11517-.17276-.0576-.34552-.23035-.11517-.17276-.28793-.4031-.28793-.63345v-.46069c0-.11518.0576-.23035.17276-.34552l.34552-.34552c.17276-.0576.28793-.11518.57586-.23035.11518-.0576.34552-.0576.63346-.11517.17276 0 .46069 0 .57586-.0576.11518 0 .23035 0 .28794-.0576.0576-.0576.17276-.0576.23034-.11517.0576-.0576.11518-.0576.28794-.23035v1.26691s0 .51828-.23035.80621c-.11517.34552-.34552.51828-.34552.51828zm18.94601-4.37658c.28793-.11518.46069-.23035.69104-.28794.17276-.0576.40311-.11517.69104-.17276.28793-.0576.46069-.0576.74863-.0576.28793 0 .63345.11517.80621.17276.23035.0576.34552.28793.46069.4031.11518.11518.11518.28794.17276.4607v.23034c0 .0576-.0576.0576-.11517.11518-.0576.0576-.11517.17276-.17276.23034-.0576.0576-.11517.11518-.23035.17276-.0576.0576-.17276.0576-.28793.11518-.11517.0576-.28793 0-.40311.0576-.57586.0576-.97897.11518-1.20932.17276-.23034.0576-.4031.11518-.57586.23035-.17276.0576-.28794.17276-.40311.28793-.17276.11518-.23035.23035-.28793.34552-.0576.11518-.11518.28794-.17276.4607-.0576.17276-.11518.34552-.11518.57586 0 .34552.0576.57587.23035.8638.17276.28794.40311.51828.69104.63346.34552.11517.69104.28793 1.20932.28793h.46069c.17276 0 .34552-.0576.63346-.11517.11517-.11518.34552-.23035.51828-.34552.23034-.17276.34552-.28794.34552-.28794v.69104h1.15173c-.11517-.46069-.17276-.51828-.17276-.8638v-3.34002c0-.23035-.11517-.63346-.17276-.8638-.0576-.23035-.23035-.40311-.34552-.57587-.11517-.17276-.51828-.46069-.80621-.51828-.28794-.0576-.51828-.17276-.8638-.17276-.34552 0-.80622.0576-1.15174.0576-.34552.0576-.57586.11517-1.03656.23034-.28793.34552-.28793.63346-.28793.80622zm2.87933 4.319c-.0576 0-.23034.17276-.28793.17276-.17276.0576-.34552.11517-.46069.17276-.17276 0-.34552.0576-.51828.0576-.28794 0-.51828-.0576-.69104-.17276-.17276-.11517-.17276-.0576-.28794-.23034-.11517-.17276-.34552-.40311-.34552-.63346v-.46069c.0576-.11517.0576-.23035.17276-.28793.11518-.11518.23035-.23035.40311-.34552.11517-.0576.28793-.11518.57587-.23035.11517-.0576.34552-.0576.63345-.11517.11517 0 .46069 0 .57587-.0576.0576 0 .17276-.0576.28793-.0576.11517-.0576.17276-.0576.28793-.11517.0576-.0576.11518-.0576.23035-.23035v1.26691s0 .51828-.23035.80621c-.17276.28794-.34552.4607-.34552.4607zm-19.11877.97897l.11518-.46069v-1.26691l-.0576-3.62796c0-.34552-.17276-.69104-.17276-.8638.17276 0 .57587-.0576.74863-.11517.11517-.0576.34552-.0576.46069-.0576v.80621c.11517-.23034.34552-.28793.46069-.4031.0576-.11518.17276-.11518.34552-.28794.17276-.11517.28794-.11517.4607-.17276.28793 0 .46069-.0576.69104-.0576.17276 0 .34552 0 .46069.0576.17276 0 .34552.11518.46069.17276.11518.0576.28794.17276.34552.23035.11518.11517.23035.17276.34552.34552 0 .0576.28794-.28793.63346-.46069.34552-.17276.74862-.34552 1.15173-.34552.28793 0 .8638 0 1.15173.11517.28794.11517.63346.23035.80622.40311.17276.17276.23034.28793.34552.4031.17276.17276.23034.69104.23034.8638v3.85831c0 .28793.0576.34552.11518.63345h-1.20932c.17276-.51828.11517-.34552.11517-.63345v-3.57037c0-.23035-.0576-.51828-.11517-.69104-.0576-.11518-.28794-.40311-.40311-.51828-.11517-.11518-.28793-.11518-.40311-.17276-.11517-.0576-.4031-.0576-.57586-.0576-.11518 0-.34552 0-.4607.0576-.11517.0576-.23034.0576-.34552.17276-.11517.0576-.23034.11517-.34552.23034-.0576.11518-.17276.23035-.23034.40311-.0576.11517-.0576.40311-.0576.63345v3.57038l.17276.57586h-1.32449c0-.51828.0576-.0576.0576-.63345v-3.62796c0-.23035-.0576-.28793-.0576-.46069-.0576-.11518-.11518-.34552-.23035-.4607-.11517-.11517-.34552-.34552-.51828-.4031-.11517-.0576-.34552-.11518-.51828-.11518-.23035 0-.34552 0-.51828.11518-.17276.0576-.34552.11517-.46069.28793-.11518.11517-.23035.17276-.34552.34552-.0576.23035-.17276.17276-.17276.51828-.0576.34552-.0576 1.61243-.0576 2.47623v1.38208c0 .28793.11517.34552.11517.63345h-.63345c0 .17276-.34552.17276-.57587.17276zm15.14529-1.15173c0 .0576 0 .23034-.0576.4031 0 .17276-.0576.34552-.11518.51828-.28793.0576-.57586.17276-.80621.17276-.23035 0-.92139.0576-1.15173.0576-.40311 0-.8638-.0576-1.20932-.17276-.34552-.11517-.80621-.40311-1.09415-.69104-.28793-.28793-.57586-.57587-.74862-.97897-.11518-.40311-.23035-.80622-.23035-1.26691 0-.63345.0576-.8638.23035-1.43967.17276-.57586.63345-.97897 1.03656-1.32449.4031-.34552 1.38207-.57587 2.1307-.57587.51828 0 1.15173.0576 1.7276.23035 0 .40311.0576.57587.0576.80621-.34552-.11517-.74863-.28793-.92139-.34552-.23035 0-.51828-.0576-.74863-.0576-.34552 0-1.03656.17276-1.32449.28793-.28793.11517-.46069.34552-.69104.57587-.17276.23034-.28793.57586-.34552.92138-.0576.34552-.11517.34552-.0576.74863 0 .46069.11517.92139.23034 1.26691.17276.34552.40311.74862.74863.92138.34552.23035.74862.40311 1.15173.40311.46069.0576 1.26691.0576 2.18829-.46069zm6.5073.92138l-.11518-.4031c0-.0576-.11517-.34552-.17276-.63346.74863.40311 1.49726.69104 2.01554.69104.28793 0 .57586-.11517.74862-.17276.17276-.0576.34552-.23034.4607-.34552.0576-.11517.17276-.28793.23034-.4031 0-.0576.0576-.23035 0-.28794 0-.0576-.0576-.34552-.11517-.4031l-.34552-.34552c-.11517-.0576-.40311-.23035-.80621-.40311-.34552-.17276-.8638-.34552-1.09415-.46069-.17276-.11518-.51828-.34552-.63345-.4607-.11518-.11517-.23035-.34552-.28794-.46069-.0576-.17276 0-.40311 0-.57587 0-.28793.17276-.51828.34552-.74862.17276-.28794.40311-.40311.74863-.51828.34552-.11518.69104-.17276 1.09415-.17276.46069 0 .92138.11517 1.49725.23034 0 .34552-.0576.57587 0 .80622-.40311-.28794-.8638-.40311-1.32449-.40311-.23035 0-.4607.0576-.69104.11517-.23035.0576-.40311.28794-.51828.40311-.0576.11517-.11518.23035-.11518.40311 0 .11517 0 .28793.0576.34552 0 .0576.28793.34552.40311.4031.17276.0576.11517.0576.28793.11518.17276 0 .63345.28793 1.03656.46069.46069.23035.8638.46069.97897.63345.11518.11518.28794.34552.40311.63346.0576.17276.11517.34552.11517.46069 0 .23035-.0576.28793-.0576.40311 0 .28793-.0576.4031-.23035.63345-.17276.28793-.46069.51828-.80621.63345-.34552.11518-.69104.23035-1.09415.23035h-.80621c-.23035 0-.4607-.11517-.63346-.11517-.23034-.23035-.34552-.23035-.57586-.28794zm7.7742-.51828c-.0576.23035-.11518.34552-.11518.69104-.28793.0576-.34552.11518-.51828.11518h-.4031c-.34552 0-.63346 0-.80622-.11518-.23034-.11517-.34552-.23034-.46069-.46069s-.23035-.74863-.23035-1.09415v-3.97348h-.74862v-.57586h.74862v-1.09415c0-.17276-.11517-.34552-.17276-.46069.34552-.0576.92139-.23035 1.15174-.28794 0 .63346.0576 1.49726.0576 1.84278h1.61243v.63345l-.46069-.0576h-1.15174v3.80072c0 .34552.0576.74863.11518.8638.0576.17276.17276.23035.28793.28794.11517.0576.28793.0576.40311.0576h.34552c0-.0576.0576-.11517.34552-.17276zm-40.5986-3.39761h3.34003v-.34552c0-.11517-.0576-.28793-.17276-.40311-.0576-.17276-.23035-.28793-.34552-.34552-.11518-.11517-.28793-.23034-.46069-.28793-.17276-.0576-.40311-.0576-.63346-.0576-.23034 0-.4031.0576-.57586.11518-.23035.0576-.34552.17276-.51828.28793-.17276.11517-.28794.23035-.34552.40311-.11518.17276-.17276.34552-.23035.46069v.0576s0-.0576-.0576.11517zm4.20383 3.05209c0 .23035-.11518.51828-.11518.92139-.34552.11517-.97897.34552-1.20932.34552h-.80621c-.46069 0-.97897-.11517-1.38208-.23035-.34552-.11517-.74862-.4031-1.03656-.74862-.28793-.34552-.57586-.69104-.69104-1.09415-.11517-.40311-.17276-.80621-.17276-1.26691 0-.63345.0576-.8638.28794-1.43966.23034-.51828.63345-.92139 1.03656-1.26691.4031-.34552.97897-.46069 1.67001-.46069.34552 0 .74863 0 1.09414.11517.34552.11517.57587.23035.80622.46069.23034.23035.4031.4607.51828.80622.11517.34552.17276.34552.23034.74862.0576.17276.0576.4607.0576.63346h-4.54934v.46069c0 .46069.0576.92139.28793 1.26691.17276.34552.40311.63345.74863.80621.34552.17276.74862.34552 1.20932.34552.4031.17276 1.2669-.0576 2.01553-.40311zm-9.32904 1.26691c0-.11517.11517-.28793.11517-.40311 0-2.01553 0-3.57037-.0576-4.83728v-.57586l-.17276-.4607c.17276 0 .46069-.0576.57586-.0576.11518 0 .4607-.0576.63346-.0576v1.15173c.11517-.28793.17276-.23034.28793-.4031.0576-.11518.28793-.28794.40311-.40311.11517-.0576.28793-.17276.46069-.23035.17276-.0576.34552-.11517.51828-.11517h.69104c.34552.0576.57587.11517.69104.17276 0 .17276-.28793.8638-.28793.8638s-.28794 0-.51828-.11517c-.23035-.0576-.40311-.0576-.57587-.0576-.23035 0-.46069.0576-.69104.11517-.17276.0576-.34552.17276-.46069.34552-.11518.17276-.23035.34552-.28794.57587-.0576.17276-.0576 0-.0576.34552v3.85831l.11517.34552h-.63345c-.23035-.11518-.51828-.0576-.74863-.0576zm-7.83179-.69104h1.38208c.34552 0 .74863 0 1.15174-.0576.4031-.0576.69104-.17276.97897-.28793.28793-.11517.57587-.28793.8638-.51828.28793-.28793.51828-.57587.69104-.92139.17276-.34552.28793-.74862.34552-1.15173.0576-.40311.11517-.8638.11517-1.26691 0-.46069-.17276-.8638-.28793-1.2669-.11517-.40311-.34552-.92139-.74863-1.20932-.34552-.28794-.63345-.51828-1.03656-.63346-.34552-.11517-.92138-.28793-1.55484-.28793-.4031 0-.92138 0-1.15173.0576-.28793 0-.46069.0576-.80621.0576l.0576 7.48627zm-1.61242.69104l.23034-.63345v-7.60144c0-.23035-.11517-.4607-.23034-.8638h3.91589c.69104.0576.8638.0576 1.32449.23034.34552.0576 1.03656.4607 1.3245.69104.28793.23035.63345.4607.8638.80622.23034.34552.34552.46069.51828.8638.23034.57586.34552 1.15173.34552 1.67001.0576.74863 0 1.32449-.23035 2.01553-.23035.69104-.74863 1.20932-1.15173 1.67002-.4607.46069-.97898.74862-1.55484.92138-.57587.11518-1.26691.28794-2.01554.28794h-1.7276l-1.61242-.0576z"/>
  <path fill="#ee5507" d="M277.79392 340.67048c0-.63345-.28793-.57587-.51828-.57587-.23035-.0576-.74863.0576-1.20932-.0576-.57587-.11518-.8638-.8638-.74863-1.26691.28794-1.09415.97898-1.20932 1.43967-1.20932.40311 0 1.09415.0576 1.95795.80621.4031.34552.63345 1.26691.63345 1.78519 0 .63345 0 1.38208-.40311 1.78519-.63345.63345-2.18829 1.20932-3.10968 1.20932-3.51278-.40311-3.39761-3.68555-3.39761-3.68555s-.28793-1.43967.92139-2.93692c.11517-.11517.23034-.40311.34552-.51828.11517-.11517.23034-.17276.4031-.28793.11518-.11518.28794-.17276.4607-.28794.4031-.23034.80621-.46069 1.20932-.57586.63345-.17276 1.20932-.23035 1.7276-.23035 1.43966.0576 3.05209.8638 3.8583 2.07312.11518.17276.23035.28793.34552.46069.11518.17276.23035.4607.40311.80622.17276.51828.11517.28793.34552 1.15173.11517.57587.23035.92139.23035 1.32449 0 .17276.0576.34552.0576.57587 0 .63345.11518.80621-.0576 1.26691-.23035.8638-.74863 1.67001-1.20932 2.1307-.80622.74863-1.49726.97898-1.90036 1.20932-.40311.23035-.57587.23035-1.15174.4607-.51828.23034-.8638.23034-1.78518.23034-.97898 0-1.7276-.0576-1.95795-.11517-1.7276-.46069-2.30347-.80621-3.05209-1.38208-1.90036-1.49725-2.30347-4.43417-2.30347-4.43417s-.23035-1.49726.11517-3.0521c.17276-.80621 1.03656-2.36105 1.49726-2.93692.4031-.51828 1.32449-1.2669 1.90036-1.61242.57586-.34552 1.38208-.80622 2.30346-1.09415.4607-.17276.80622-.23035 1.84278-.28793 1.20932-.0576 2.93692.28793 3.97348.57586 1.09414.34552 2.07312 1.03656 2.53381 1.55484.51828.57587 1.67001 2.24588 1.84277 2.5914.23035.34552.74863 2.1883.80622 2.41864.0576.23035.11517 1.03656.97897 1.03656.74862-.0576.51828-.92138.51828-1.09414-.0576-.17276-.28794-1.55484-.40311-1.95795-.11517-.40311-.69104-1.43967-.80621-1.61243-.0576-.11517-.57587-.97897-1.09415-1.67001-.4031-.51828-.74862-.97897-1.20932-1.26691-.80621-.51828-1.78518-.97897-1.78518-.97897s-1.7276-.57587-2.64899-.69104c-.80621-.11517-1.61243-.28793-2.99451-.17276-1.38208.11517-2.1307.46069-2.64898.69104-.51828.23035-1.67002.69104-2.53382 1.43967-.8638.69104-.57586.34552-1.03656.8638-.46069.51828-.57586.63345-.92138 1.09414-.28794.4607-.97898 1.78519-1.20932 2.64899-.11518.34552-.28794.92139-.34552 1.43967-.0576.46069-.0576.8638-.0576 1.2669.0576.74863.0576.80622.0576.80622s.34552 1.49725.51828 2.07312c.23034.57586.46069 1.43966 1.67001 2.76416 1.20932 1.32449 2.30347 1.67001 2.76416 1.84277.40311.17276 1.84277.63345 3.68555.69104 2.18829.0576 2.70657-.4607 3.10968-.57587.4031-.17276 1.7276-.74863 2.76416-1.7276s1.38208-2.07312 1.43966-2.1307c.28794-.8638.40311-2.1883.11518-3.51279-.17276-.8638-.34552-1.67001-.51828-2.18829-.28794-.92139-.69104-1.43967-.97898-1.90036-.23034-.40311-1.03656-.97898-1.49725-1.26691-.23035-.11517-.46069-.28793-.74863-.46069-.28793-.11518-.69104-.23035-1.20932-.34552-.46069-.11518-1.03656-.23035-1.55484-.23035-.46069-.0576-.80621 0-.97897 0-.23035 0-.97897.11517-1.95795.63345-.57586.28794-1.15173.63346-1.84277 1.3245-.23035.23034-.40311.46069-.51828.69104-1.49725 2.01553-.92139 4.26141-.92139 4.26141s.28794 3.05209 2.93692 3.91589c.97898.28794 1.78519.28794 2.47623.23035 1.15173-.17276 2.01553-.63345 2.5914-.92139.57587-.28793 1.03656-.80621 1.26691-1.38208.23034-.51828.28793-1.03656.28793-1.43966 0-.28794 0-.57587-.0576-.92139-.17276-.8638-.46069-1.7276-1.20932-2.41864l-.23034-.17276c-.11518-.11517-.28794-.17276-.34552-.23035-.63346-.34552-1.26691-.46069-2.1883-.51828-.34552 0-.80621.0576-1.09414.23035-1.03656.51828-1.61243 1.43967-1.61243 2.70657.0576 1.15174 1.15173 1.78519 1.32449 1.95795-.11517-.23035 2.24588.40311 2.30347-.69104z"/>
  <path fill="#fff" d="M284.81949 370.96106h-6.73764c-.63345 0-1.03656-.17276-1.38208-.51828v.51828h-2.24588c-.80621 0-1.38208-.34552-1.61242-.92139-.0576.11518-.17276.28794-.28794.40311-.34552.34552-.74862.51828-1.20932.51828h-2.36105v-2.07312h.51828c-.34552-.34552-.51828-.80621-.51828-1.26691 0-.51828.17276-.92138.51828-1.2669.34552-.34552.74863-.51828 1.20932-.51828h2.36105v.51828c.28794-.34552.74863-.51828 1.38208-.51828h2.24588v.51828c.28794-.34552.74863-.51828 1.38208-.51828h2.24588v2.41864l.63346-1.7276c.28793-.57587.74862-.69104 1.09414-.69104.51828 0 .92139.28793 1.09415.74862l1.67001 4.37659z"/>
  <path fill="#174b9a" d="M269.32868 367.56345c0-.40311.17276-.74863.46069-1.03656.28794-.28793.63346-.46069.97898-.46069h2.01553v.63345h-1.84277c-.28794 0-.51828.0576-.69104.23034-.17276.17276-.23035.34552-.23035.57587s.0576.46069.23035.57587c.17276.17276.4031.23034.69104.23034h.28793c.23035 0 .46069.0576.57587.23035.11517.11517.23034.28793.23034.51828 0 .17276-.0576.34552-.23034.51828-.11518.11517-.34552.23035-.57587.23035h-1.84277v-.63346h1.84277c.11517 0 .17276 0 .17276-.0576s-.0576-.0576-.17276-.0576h-.46069c-.34552 0-.69104-.17276-.97898-.46069-.28793-.23035-.46069-.63346-.46069-1.03656zm.80621 0c0-.17276.0576-.34552.23035-.51828.11517-.11518.34552-.23035.57587-.23035h1.84277v.63345h-1.84277c-.11518 0-.17276 0-.17276.0576s.0576.0576.17276.0576h.46069c.34552 0 .69104.17276.97897.46069.28794.28793.4607.63345.4607 1.03656 0 .40311-.17276.74863-.4607 1.03656-.28793.28793-.63345.46069-.97897.46069h-2.01553v-.63345h1.84277c.28793 0 .51828-.0576.69104-.23035.17276-.17276.23035-.34552.23035-.57586 0-.23035-.0576-.4607-.23035-.57587-.17276-.17276-.40311-.23035-.69104-.23035h-.28793c-.23035 0-.4607-.0576-.57587-.23034-.17276-.11518-.23035-.28794-.23035-.51828zm2.93692-.0576c0-.92139.4607-1.38208 1.38208-1.38208h1.84278v.63345h-1.84278c-.51828 0-.80621.28794-.80621.80622v1.7276c0 .51828.28793.80621.80621.80621h1.84278v.63345h-1.84278c-.92138 0-1.38208-.46069-1.38208-1.38208v-1.84277zm.80622.80621v-.80621c0-.40311.23034-.63345.63345-.63345h1.84277v.63345h-1.7276c-.11517 0-.17276.0576-.17276.17276h1.38208v.63345h-1.95794zm0 .11518h2.01553v.63345h-1.38208c0 .11517.0576.17276.17276.17276h1.7276v.63345h-1.84277c-.40311 0-.63346-.23034-.63346-.63345v-.80621zm2.76416-.92139c0-.92139.46069-1.38208 1.38208-1.38208h1.84277v.63345h-1.84277c-.51828 0-.80622.28794-.80622.80622v1.7276c0 .51828.28794.80621.80622.80621h1.2669v-1.7276h-1.09414v-.63345h1.7276v2.93692h-1.84278c-.92138 0-1.38208-.4607-1.38208-1.38208v-1.78519zm.80621 0c0-.40311.23035-.63345.63345-.63345h1.84278v.63345h-1.7276c-.11518 0-.17276.0576-.17276.17276v1.38208c0 .11517.0576.17276.17276.17276h.28793v-.17276h-.28793v-.63345h.92138v1.38208h-1.09414c-.40311 0-.63346-.23035-.63346-.63346v-1.67001z"/>
  <path fill="#174b9a" d="M281.59464 369.98209h1.84277l-1.2669-3.16727c-.0576-.0576-.11518-.11517-.23035-.11517s-.17276.0576-.23035.11517l-1.38208 3.80072h-.63345l1.43967-3.97348c.17276-.34552.46069-.51828.80621-.51828.40311 0 .63345.17276.80621.51828l1.49726 3.97348h-2.64899v-.63345zm0-.11518v-.34552l-.46069 1.09415h-.63346l1.3245-3.62796c0-.0576.0576-.11517.11517-.11517.0576 0 .11517.0576.11517.11517l1.09415 2.87933h-1.55484zm.40311-1.38208l-.28794.74863h.57587l-.28793-.74863z"/>
  <path fill="#32507c" d="M348.62551 297.76842c0 29.08126-17.21841 54.18904-42.03826 65.5912v-65.5912c0 16.58496-13.47528 30.06023-30.06024 30.06023-16.58495 0-30.06023-13.47527-30.06023-30.06023v65.5912c-24.81985-11.40216-42.03826-36.45235-42.03826-65.5912 0-39.84997 32.30611-72.15608 72.15608-72.15608 39.73479 0 72.04091 32.30611 72.04091 72.15608zm-72.15608-11.80527c-6.56488 0-11.86285 5.29798-11.86285 11.80527s5.29797 11.80526 11.86285 11.80526 11.86285-5.29797 11.86285-11.80526-5.29797-11.80527-11.86285-11.80527z"/>
  <path fill="#9f9f9f" d="M306.52966 297.76842c0 16.58496-13.47528 30.06023-30.06023 30.06023-16.58496 0-30.06024-13.47527-30.06024-30.06023 0-16.58496 13.47528-30.06024 30.06024-30.06024 16.58495 0 30.06023 13.47528 30.06023 30.06024zm-30.06023-11.86285c-6.56488 0-11.86285 5.35556-11.86285 11.97802 0 6.62247 5.29797 11.97803 11.86285 11.97803s11.86285-5.35556 11.86285-11.97803c0-6.62246-5.29797-11.97802-11.86285-11.97802z"/>
  <path fill="#181818" d="M249.17335 297.76842c0-15.0877 12.20837-27.29608 27.29608-27.29608 15.0877 0 27.29607 12.20838 27.29607 27.29608s-12.20837 27.29608-27.29607 27.29608c-15.08771 0-27.29608-12.20838-27.29608-27.29608zm27.29608 11.86285c6.56488 0 11.86285-5.29797 11.86285-11.86285s-5.29797-11.86285-11.86285-11.86285-11.86285 5.29797-11.86285 11.86285 5.29797 11.86285 11.86285 11.86285z"/>
  <g transform="matrix(0.57586657,0,0,0.57586657,197.51812,218.81711)">
    <path fill="#dedfde" d="M316.5 266.9V83.2c11.9-5.4 26.4-8.6 41.9-8.6 15.6 0 30 3.2 41.9 8.6V267c-11.9 4.6-26.4 7.2-42 7.2-15.4 0-29.9-2.7-41.8-7.3"/>
    <ellipse cx="358.39999" cy="95" fill="#c1c3c2" ry="12.3" rx="13.4"/>
    <path fill="#56727d" d="M386.3 195.3h-55.7c-4.8 0-8.7-3.9-8.7-8.7v-43.7c0-4.8 3.9-8.7 8.7-8.7h55.7c4.8 0 8.7 3.9 8.7 8.7v43.7c-.1 4.8-4 8.7-8.7 8.7z"/>
    <path fill="#353360" d="M331.20001 184h7.1v10.7h-7.1z"/>
    <path fill="#353360" d="M330.89999 184h6.8v10.3h-6.8z"/>
    <path fill="#56727d" d="M331.20001 184.39999h6.4v9.2h-6.4z"/>
    <path fill="#353360" d="M331.60001 192.60001h2.1v.3h-2.1zm3.6 0h1.8v.3h-1.8zm-3.6-1.10001h2.1v.3h-2.1zm3.6 0h1.8v.3h-1.8zm-3.6-1h5.3v.3h-5.3zm3.6-1.5h1.8v.3h-1.8zm.29999-1.10001h1.4v.3h-1.4zm.70001-1h.7v.3h-.7z"/>
    <path fill="#56727d" stroke="#353360" stroke-miterlimit="10" d="M337.4 184.2h-7l-2.4 5.3h7z"/>
    <path fill="#353360" d="M331.60001 183.3h.7v1.8h-.7zm1.39999 0h.7v1.8h-.7zm1.39999 0h.7v1.8h-.7zm1.5 0h.7v1.8h-.7z"/>
    <path fill="#4a6787" d="M324.20001 136.89999h68.3v45.4h-68.3z"/>
    <g fill="#363264">
      <path d="M344.20001 171.10001h5.7v5.7h-5.7zm5.69998-5.70002h5.7v5.7h-5.7z"/>
      <path d="M349.89999 159.7h5.7v5.7h-5.7z"/>
      <path d="M344.20001 159.7h5.7v5.7h-5.7zm11.4 0h5.7v5.7h-5.7zm0-5.7h5.7v5.7h-5.7zm0-5.7h5.7v5.7h-5.7zm-5.70002 0h5.7v5.7h-5.7z"/>
      <path d="M344.20001 148.3h5.7v5.7h-5.7z"/>
      <path d="M344.20001 142.60001h5.7v5.7h-5.7zm0 11.39999h5.7v5.7h-5.7zM338.5 154h5.7v5.7h-5.7zm-5.70001 5.7h5.7v5.7h-5.7zM367 171.10001h5.7v5.7H367zm-5.70001-5.70002h5.7v5.7h-5.7z"/>
      <path d="M361.29999 159.7h5.7v5.7h-5.7zm5.70001 0h5.7v5.7H367zm-5.70001-11.4h5.7v5.7h-5.7zm5.70001 0h5.7v5.7H367z"/>
      <path d="M367 142.60001h5.7v5.7H367zM367 154h5.7v5.7H367zm5.70001 0h5.7v5.7h-5.7zm5.69998 5.7h5.7v5.7h-5.7z"/>
    </g>
    <path fill="#2f3338" d="M357.5 204.6c-.2 0-.4 0-.5-.1-.1-.1-.3-.1-.4-.2v-.7c.1.2.3.3.4.4.2.1.3.1.5.1s.4-.1.5-.2c.1-.1.2-.3.2-.5s0-.3-.1-.4c-.1-.1-.2-.2-.3-.2-.1 0-.2-.1-.3-.1-.1 0-.2-.1-.3-.1-.1 0-.2-.1-.3-.1-.1-.1-.2-.1-.2-.2-.1-.1-.1-.2-.1-.3 0-.1-.1-.3-.1-.4 0-.3.1-.6.3-.8.2-.2.4-.3.7-.3.2 0 .3 0 .5.1.1 0 .3.1.4.2v.7c-.1-.1-.2-.2-.4-.3-.2-.1-.3-.1-.5-.1s-.3.1-.4.2c-.1.1-.2.3-.2.5s0 .3.1.4c.1.1.2.2.3.2.1 0 .2.1.3.1.1 0 .2.1.3.1.2.1.4.2.4.4.1.2.1.4.1.7 0 .2 0 .3-.1.5 0 .2-.1.3-.2.4l-.3.3c.1-.3-.1-.3-.3-.3zm3.2-.1H359v-4.1h.4v3.7h1.3v.4zm.3 0v-4.1h1.8v.5h-1.5v1.1h1.4v.5h-1.4v1.5h1.5v.5H361zm2.3 0v-4.1h1.8v.5h-1.5v1.1h1.4v.5h-1.4v1.5h1.5v.5h-1.8zm4.1-2.9c0 .2 0 .4-.1.5 0 .2-.1.3-.2.4-.1.1-.2.2-.4.3-.1.1-.3.1-.5.1h-.2v1.5h-.4v-4.1h.7c.2 0 .3 0 .4.1.1 0 .2.1.3.2.1.1.2.2.3.4.1.2.1.4.1.6zm-.4 0c0-.1 0-.3-.1-.4-.1-.1-.1-.2-.2-.3-.1-.1-.1-.1-.2-.1h-.5v1.7h.3c.2 0 .3 0 .4-.1.1 0 .2-.1.2-.2.1-.1.1-.2.1-.3v-.3zm11.1 2.9h-.4v-3.6l-.8 2.4h-.2l-.8-2.4v3.6h-.4v-4.1h.5l.7 2.3.7-2.3h.5v4.1zm2.7-3.6c.1.2.2.4.3.7.1.3.1.6.1.9 0 .3 0 .6-.1.9-.1.3-.1.5-.3.7-.1.2-.3.3-.4.4-.2.1-.3.1-.5.1s-.4 0-.5-.1c-.2-.1-.3-.2-.4-.4-.1-.2-.2-.4-.3-.7-.1-.3-.1-.6-.1-.9 0-.3 0-.7.1-.9.1-.3.1-.5.3-.7.1-.2.3-.3.4-.4.2-.1.3-.1.5-.1s.4 0 .5.1c.2 0 .3.2.4.4zm0 1.5c0-.3 0-.5-.1-.7 0-.2-.1-.4-.2-.5-.1-.1-.2-.3-.3-.3-.1-.1-.2-.1-.4-.1-.1 0-.3 0-.4.1l-.3.3c-.1.1-.1.3-.2.5 0 .2-.1.5-.1.7 0 .5.1 1 .2 1.2.2.3.4.4.7.4.3 0 .5-.1.7-.4.3-.2.4-.6.4-1.2zm3.1.1c0 .4-.1.7-.2 1-.1.3-.3.5-.4.7-.1.1-.3.2-.5.3-.2 0-.4.1-.6.1h-.7v-4.1h.7c.3 0 .5 0 .7.1.2.1.3.1.4.2.2.2.3.4.4.7.2.2.2.5.2 1zm-.4-.1c0-.3 0-.6-.1-.8-.1-.2-.2-.4-.3-.5-.1-.1-.2-.2-.3-.2-.1 0-.3-.1-.4-.1h-.4v3.2h.3c.2 0 .3 0 .5-.1.1 0 .3-.1.4-.2.1-.1.2-.3.3-.5v-.8zm.9 2.1v-4.1h1.8v.5h-1.5v1.1h1.4v.5h-1.4v1.5h1.5v.5h-1.8zm-16.2 47l1.7-4.9h.8l1.7 4.9h-.7l-.4-1.4h-1.9l-.4 1.4h-.8zm2.8-2l-.8-2.3-.8 2.3h1.6zm24.6-3.6c0 .2 0 .5-.1.6-.1.2-.2.3-.4.5l-.6.3c-.2.1-.5.1-.8.1h-1.4v-4.9h2.1c.2 0 .3.1.5.2s.3.2.4.4c.1.2.1.3.1.5s-.1.4-.2.6c-.1.2-.3.3-.5.4.3.1.5.2.7.4.2.2.2.6.2.9zm-.9-2.2c0-.1 0-.2-.1-.3 0-.1-.1-.2-.2-.2-.1-.1-.2-.1-.4-.1h-1.1v1.4h1.2c.1 0 .2-.1.3-.1.1-.1.2-.1.2-.3 0-.1.1-.2.1-.4zm.2 2.3c0-.2 0-.3-.1-.5l-.3-.3c-.1-.1-.2-.1-.3-.1H393v1.8h1.2c.2 0 .3-.1.4-.2l.3-.3v-.4z"/>
    <path fill="#a7a8a8" d="M398.3 134.2h-79.8c10.2-1.3 24.3-2.1 39.9-2.1 15.6 0 29.7.8 39.9 2.1zm0 61.1h-79.8c10.2 1.3 24.3 2.1 39.9 2.1 15.6 0 29.7-.8 39.9-2.1z"/>
    <circle cx="370.79999" cy="234.89999" r="8.3999996" fill="#c1c3c2"/>
    <circle cx="370.79999" cy="234.89999" r="7.0999999" fill="#646fa4"/>
    <circle cx="362.39999" cy="215.7" r="5.3000002" fill="#c1c3c2"/>
    <circle cx="362.39999" cy="215.7" r="4.0999999" fill="#646fa4"/>
    <path fill="#c1c3c2" d="M386.8 221h-7c-3 0-5.3-2.4-5.3-5.3 0-3 2.4-5.3 5.3-5.3h7"/>
    <circle cx="379.79999" cy="215.7" r="4.0999999" fill="#646fa4"/>
    <path fill="#a7a8a8" d="M315.10001 84.300003h1.5V265h-1.5z"/>
    <path fill="#a7a8a8" d="M400.3 104v1.1h.1c-11.9-6.1-26.4-9.9-41.9-9.9-15.6 0-30 3.8-41.9 9.9V104c11.9-6.1 26.4-9.9 41.9-9.9s30 3.8 41.8 9.9m-98.69999 0h13.5v1.1h-13.5z"/>
    <path fill="#dedfde" d="M301.3 104h13.8V86.1c0-1.6-1.3-2.9-2.9-2.9-6 0-10.9 4.9-10.9 10.9v9.9zm3.5 158l10.2 3.6V105.1h-13.8v153.3c.1 1.9 1.6 2.9 3.6 3.6z"/>
    <path fill="#dedfde" d="M301.3 234.9v16.9c-1.1 0-2-3.8-2-8.5 0-4.6.9-8.4 2-8.4z"/>
    <path fill="#a7a8a8" d="M400.29999 84.300003h1.5V265h-1.5zm1.5 19.699997h13.5v1.1h-13.5z"/>
    <path fill="#dedfde" d="M415.6 104h-13.8V86.1c0-1.6 1.3-2.9 2.9-2.9 6 0 10.9 4.9 10.9 10.9v9.9zM412 261.9l-10.2 3.6V105h13.8v153.3c0 2-1.6 3-3.6 3.6zm3.6-27.1v16.9c1.1 0 2-3.8 2-8.5-.1-4.6-.9-8.4-2-8.4z"/>
    <circle cx="394.70001" cy="229.7" r="8.3999996" fill="#c1c3c2"/>
    <circle cx="394.70001" cy="229.7" r="7.0999999" fill="#646fa4"/>
    <path fill="#c1c3c2" d="M315.7 224.5c0 10.3 7.2 18.6 17.3 18.6 10.1 0 19.1-10.9 19.1-21.2 0-10.3-5.7-15.9-15.8-15.9-10.1 0-20.6 8.3-20.6 18.5z"/>
    <circle cx="332.10001" cy="226.7" r="16.4" fill="#a7a8a8"/>
    <circle cx="331.70001" cy="226.7" r="15.3" fill="#646fa4"/>
    <g fill="none" stroke="#a7a8a8" stroke-miterlimit="10">
      <circle cx="331.70001" cy="226.7" r="1.2"/>
      <path d="M326.1 212.5v4.9c0 1.9-1.6 3.5-3.5 3.5h-5m-.1 11.5h4.9c1.9 0 3.5 1.6 3.5 3.5v5m11.5 0V236c0-1.9 1.6-3.5 3.5-3.5h5m.1-11.5h-4.9c-1.9 0-3.5-1.6-3.5-3.5v-5"/>
    </g>
    <path fill="#2f3338" d="M359.5 118.9c.3-.1.5-.2.7-.3.2-.1.4-.1.6-.2.3-.1.4-.1.7-.1.3 0 .6.1.8.1.2.1.3.3.4.4.1.1.1.2.1.4v.2c0 .1-.1.1-.1.2-.1.1-.1.2-.2.2l-.2.2c-.1.1-.2.1-.3.1-.1.1-.3 0-.4.1-.5.1-.9.1-1.1.2-.2.1-.4.1-.5.2-.2.1-.3.2-.4.3-.2.1-.2.2-.3.4-.1.1-.2.3-.2.4 0 .2-.1.4-.1.5 0 .3 0 .6.2.8.1.3.4.5.7.6.3.1.6.3 1.1.3h.5c.2 0 .3-.1.6-.1.1-.1.3-.2.5-.4l.3-.3v.6h1.1c-.1-.5-.2-.5-.1-.8 0-.6-.1-1.8 0-2.4v-.8c0-.2-.1-.6-.2-.8-.1-.2-.2-.3-.3-.6-.2-.2-.5-.4-.8-.5-.3-.1-.5-.1-.8-.1h-1.1c-.3.1-.6.1-1 .3-.2.4-.2.7-.2.9zm2.8 4s-.2.1-.3.2c-.2.1-.3.1-.5.2h-.5c-.3 0-.5-.1-.6-.2-.2-.1-.2-.1-.3-.2-.1-.1-.3-.4-.3-.6v-.4c0-.1.1-.2.2-.3.1-.1.2-.2.4-.3.2-.1.3-.1.5-.2.1-.1.3-.1.6-.1.1 0 .5 0 .6-.1.1 0 .2 0 .3-.1.1 0 .2-.1.2-.1s.1-.1.3-.2v1.2s0 .5-.2.8l-.4.4zm17.8-4.1c.3-.1.5-.2.6-.3.2-.1.4-.1.6-.1.3 0 .5-.1.7-.1.3 0 .6.1.8.2.2.1.3.3.5.4.1.1.1.2.2.5v.2c0 .1-.1.1-.1.1-.1.1-.1.2-.2.2s-.1.1-.2.2c-.1 0-.2.1-.3.1-.1.1-.3 0-.4.1-.5.1-.9.1-1.1.2-.2.1-.4.1-.6.2-.2.1-.3.2-.4.3-.2.1-.2.2-.3.3-.1.1-.1.3-.2.4 0 .2-.1.4-.1.5 0 .3.1.6.2.8.1.3.4.5.7.6.3.1.7.3 1.2.3h.5c.2 0 .3-.1.6-.1.1-.1.3-.2.5-.4l.3-.3v.6h1.1c-.1-.5-.1-.5-.1-.8v-3.2c0-.2-.1-.6-.2-.8-.1-.2-.2-.4-.4-.6-.1-.2-.5-.4-.8-.5-.3-.1-.5-.1-.8-.1-.3 0-.8 0-1.1.1-.3.1-.6.1-1 .2-.2.4-.1.6-.2.8zm2.8 4.1c-.1 0-.2.2-.3.2-.2 0-.3.1-.4.2h-.5c-.3 0-.5-.1-.6-.2-.2-.1-.2 0-.3-.2-.1-.2-.3-.4-.3-.6v-.4c0-.1.1-.2.2-.3.1-.1.2-.2.4-.3.1-.1.3-.1.5-.2.1 0 .3-.1.6-.1.1 0 .5 0 .6-.1.1 0 .2 0 .3-.1.1 0 .2-.1.3-.1l.2-.2v1.2s0 .5-.2.8c-.3.2-.5.4-.5.4zm-18.1.9l.1-.4v-1.2l-.1-3.4c0-.3-.2-.7-.2-.8.2 0 .6-.1.7-.1h.4v.8c.1-.2.3-.3.4-.4.1-.1.2-.1.4-.3.2-.1.3-.1.5-.2h.7c.2 0 .3 0 .5.1.2 0 .3.1.4.2.1.1.3.2.3.2l.3.3c0 .1.3-.3.6-.5s.7-.3 1.1-.3c.3 0 .8 0 1.1.1.3.1.6.2.8.4.2.2.2.3.3.4.2.2.2.6.2.8v3.7c0 .3.1.3.1.6h-1.2c.1-.5.1-.3.1-.6v-3.3c0-.2-.1-.5-.1-.6-.1-.1-.3-.4-.4-.5-.1-.1-.3-.1-.4-.2-.1-.1-.4-.1-.6-.1-.1 0-.3 0-.5.1-.1 0-.2.1-.3.1-.1.1-.2.1-.3.2-.1.1-.2.2-.2.4-.1.1-.1.4-.1.6v3.4l.2.6h-1.2c0-.5.1-.1.1-.6v-3.5c0-.2 0-.3-.1-.4 0-.1-.1-.3-.2-.4-.1-.1-.3-.3-.5-.4-.1-.1-.3-.1-.5-.1s-.3 0-.5.1-.3.1-.4.3l-.3.3c-.1.2-.2.2-.2.5-.1.3-.1 1.5-.1 2.3v1.3c0 .3.1.4.1.6h-.6c.1-.1-.2-.1-.4-.1zm14.3-1.1v.4c0 .2-.1.3-.1.5-.3.1-.5.2-.8.2h-1.1c-.4 0-.8-.1-1.2-.2-.3-.1-.8-.4-1-.6-.3-.3-.6-.5-.7-.9-.1-.4-.2-.8-.2-1.2 0-.6.1-.8.2-1.3.2-.5.6-.9 1-1.2.4-.3 1.3-.6 2-.6.5 0 1.1.1 1.6.2 0 .4.1.6.1.8-.4-.1-.7-.3-.9-.3-.2 0-.5-.1-.7-.1-.3 0-1 .2-1.2.3-.3.1-.5.3-.6.6-.2.2-.3.6-.4.9-.1.3-.1.4-.1.7 0 .5.1.9.2 1.2.1.3.4.7.7.9.3.2.7.4 1.1.4.5-.2 1.3-.2 2.1-.7zm6.2.9l-.1-.4c0-.1-.1-.3-.2-.6.7.4 1.4.7 1.9.7.3 0 .5-.1.7-.2.2-.1.4-.2.5-.4.1-.1.2-.3.2-.4v-.3c0-.1-.1-.3-.1-.4l-.4-.4c-.1-.1-.4-.2-.8-.4-.4-.1-.8-.3-1-.5-.2-.1-.5-.3-.6-.5-.1-.2-.2-.3-.3-.5v-.6c0-.3.2-.5.3-.7.1-.3.4-.4.7-.5.3-.1.7-.2 1.1-.2.5 0 .9.1 1.4.2 0 .3-.1.5 0 .8-.4-.3-.8-.4-1.3-.4-.2 0-.5 0-.7.1-.2.1-.4.3-.5.4-.1.1-.1.2-.1.4 0 .1 0 .3.1.4 0 .1.3.3.4.4.2.1.1.1.3.1.2 0 .6.3 1 .4.4.2.8.5.9.6.1.1.3.3.4.6.1.2.1.3.1.5s-.1.3-.1.4c0 .3 0 .4-.2.6-.1.3-.4.5-.8.6-.3.1-.7.2-1.1.2h-.8c-.2 0-.4-.1-.6-.1 0 .2-.1.2-.3.1zm7.3-.5c0 .2-.1.3-.1.6-.3.1-.4.1-.5.1h-.4c-.3 0-.6 0-.8-.1-.2-.1-.4-.2-.5-.4-.1-.2-.2-.7-.2-1.1v-3.7h-.7v-.5h.7v-1c0-.2-.1-.4-.2-.5.4-.1.9-.2 1.1-.3 0 .6.1 1.4.1 1.8h1.5v.6l-.4-.1h-1.1v3.6c0 .3 0 .7.1.8 0 .2.1.2.3.3.1.1.3.1.4.1h.3c.1-.1.2-.1.4-.2zm-38.3-3.2h3.2v-.3c0-.1-.1-.3-.2-.4-.1-.2-.2-.3-.3-.4-.1-.1-.3-.2-.4-.3-.2-.1-.4-.1-.6-.1-.2 0-.4.1-.6.1-.2.1-.4.2-.5.3-.2.1-.3.2-.4.4-.1.2-.2.3-.2.5v.2zm3.9 2.9c0 .2-.1.5-.1.9-.4.1-.9.3-1.2.4h-.8c-.5 0-.9-.1-1.3-.2s-.7-.4-1-.7c-.3-.3-.5-.6-.7-1-.1-.4-.2-.8-.2-1.2 0-.6.1-.8.3-1.4.2-.5.6-.9 1-1.2.4-.3.9-.4 1.6-.4.3 0 .7 0 1 .1.3.1.6.2.8.4.2.2.4.5.5.8.1.3.2.3.2.7v.6H354v.4c0 .4.1.9.3 1.2.2.4.4.6.7.8.3.2.7.4 1.1.4.6-.1 1.4-.3 2.1-.6zm-8.8 1.2c0-.1.1-.3.1-.4 0-1.9 0-3.4-.1-4.6v-.5l-.2-.4c.2 0 .4 0 .6-.1.1 0 .5-.1.6-.1v1.1c.1-.3.2-.2.3-.4l.4-.4c.1-.1.3-.2.4-.2.2 0 .3-.1.5-.1h.6c.4 0 .6.1.6.2 0 .2-.3.8-.3.8s-.3 0-.5-.1-.4-.1-.6-.1c-.2 0-.5.1-.6.1-.2.1-.3.2-.5.3-.1.2-.2.3-.3.6-.1.2-.1 0-.1.3v3.6l.1.3h-.6c.1 0-.2.1-.4.1zm-7.4-.7h1.3c.3 0 .7 0 1.1-.1.4-.1.6-.2.9-.3.3-.1.6-.3.8-.5.3-.3.5-.6.7-.9.1-.3.3-.7.3-1.1.1-.4.1-.8.1-1.2 0-.5-.2-.8-.3-1.2-.1-.4-.4-.9-.7-1.2-.4-.3-.6-.5-1-.6-.4-.1-.9-.3-1.5-.3-.4 0-.9 0-1.1.1-.3 0-.5.1-.8.1l.2 7.2zm-1.5.7l.2-.6v-7.2c0-.2-.1-.4-.2-.8h3.8c.6 0 .8.1 1.3.2.3.1 1 .4 1.3.6.3.2.6.4.8.8.2.3.3.4.5.8.2.5.3 1.1.3 1.6.1.7 0 1.3-.2 1.9-.2.7-.7 1.1-1.1 1.6-.4.5-.9.7-1.5.9-.6.1-1.2.3-1.9.3H342l-1.5-.1zm-8.6-2.8c0-.5-.2-.4-.4-.5-.2 0-.6.1-.9 0-.4-.1-.7-.7-.6-1 .2-.8.8-.9 1.1-.9.3 0 .8 0 1.5.6.3.3.5 1 .5 1.4 0 .5 0 1-.3 1.4-.5.5-1.7.9-2.4.9-2.7-.3-2.6-2.9-2.6-2.9s-.2-1.1.7-2.3c.1-.1.2-.3.3-.4.1-.1.2-.1.3-.2.1-.1.2-.1.3-.2.3-.2.6-.3.9-.4.5-.1.9-.2 1.3-.2 1.1 0 2.3.6 3 1.6l.3.3c.1.1.2.4.3.6.1.4.1.2.3.9.1.4.2.7.2 1v.4c0 .5.1.6 0 1-.2.6-.6 1.3-.9 1.6-.6.6-1.1.8-1.5.9-.3.2-.5.2-.9.3-.4.2-.6.2-1.4.2-.7 0-1.3 0-1.5-.1-1.3-.4-1.8-.6-2.3-1.1-1.5-1.1-1.8-3.4-1.8-3.4s-.2-1.1.1-2.3c.1-.6.8-1.8 1.2-2.3.3-.4 1-1 1.5-1.2.4-.3 1-.6 1.8-.8.3-.1.6-.2 1.4-.2.9 0 2.3.2 3 .4.8.3 1.6.8 2 1.2.4.4 1.3 1.7 1.4 2 .2.3.6 1.7.6 1.9 0 .2.1.8.7.8s.4-.7.4-.8c0-.1-.2-1.2-.3-1.5-.1-.3-.5-1.1-.6-1.2 0-.1-.5-.8-.8-1.3-.3-.4-.6-.8-.9-1-.6-.4-1.4-.7-1.4-.7s-1.3-.5-2-.5c-.6-.1-1.2-.2-2.3-.1-1.1.1-1.7.4-2 .5-.4.2-1.3.6-1.9 1.1-.7.5-.5.3-.8.7-.3.4-.5.5-.7.8-.2.3-.8 1.4-.9 2-.1.3-.2.7-.3 1.1 0 .3-.1.7 0 1 .1.6 0 .6 0 .6s.3 1.1.4 1.6c.2.4.4 1.1 1.3 2.1s1.8 1.3 2.1 1.4c.3.1 1.4.5 2.9.5 1.7 0 2.1-.3 2.4-.5.3-.1 1.3-.6 2.1-1.3.8-.7 1.1-1.6 1.1-1.7.2-.6.3-1.7.1-2.7-.1-.7-.3-1.3-.4-1.7-.2-.7-.5-1.1-.7-1.4-.2-.3-.8-.8-1.2-1-.2-.1-.3-.2-.6-.3-.2-.1-.6-.2-.9-.3-.3-.1-.8-.2-1.2-.2h-.7c-.2 0-.7.1-1.5.5-.4.2-.9.5-1.4 1-.2.2-.3.4-.4.5-1.1 1.6-.7 3.3-.7 3.3s.2 2.3 2.3 3c.7.2 1.4.2 1.9.2.9-.1 1.6-.5 2-.7.5-.2.8-.6 1-1 .2-.4.2-.8.2-1.1 0-.2 0-.5-.1-.7-.1-.7-.4-1.3-.9-1.8l-.2-.1c-.1-.1-.2-.1-.3-.2-.5-.3-1-.4-1.7-.4-.3 0-.6.1-.8.2-.8.4-1.3 1.1-1.2 2.1 0 .9.9 1.4 1 1.5-.5-.1 1.4.4 1.4-.5z"/>
  </g>
  <path fill="#a7a8a8" d="M160.30727 141.2575l-29.19229 61.47444-.96847-1.38352 28.36218-60.22927c.73788 0 1.3374.0461 1.79858.13835m-190.551362 60.08285l-.968465 1.38352-29.19229-61.47444c.461174-.0922 1.014582-.13835 1.798578-.13835l28.362177 60.22927z"/>
  <path fill="#e4e5e4" d="M158.49222 141.14613l-28.36217 60.18315c-17.70907-25.22619-47.039711-41.69009-80.198094-41.69009s-62.442908 16.4639-80.198092 41.69009l-28.408295-60.22927H156.97035c.59953 0 1.0607 0 1.52187.0461"/>
  <path fill="#dedfde" d="M161.85367 145.96262v175.5688s-.13835 45.61007-3.08986 49.02275c-1.42964 1.66023-26.97866 3.9661-52.98885 5.0268-27.670416 1.19905-55.848123 1.15293-55.848123 1.15293s-28.177708.0461-55.8481253-1.15293c-26.0101917-1.10682-51.5592107-3.36657-52.9888487-5.0268C-61.861648 367.09537-62 321.53142-62 321.53142v-175.5688c0-3.27433 0-4.33503 1.521873-4.65785l29.19229 61.47444.968464-1.38352c17.755185-25.2262 47.039709-41.69009 80.198092-41.69009s62.442911 16.46389 80.198091 41.69009l.96847 1.38352 29.19229-61.47444c1.6141.32282 1.6141 1.3374 1.6141 4.65785"/>
  <path fill="#e4e5e4" d="M126.35437 257.76826c0 42.24351-34.219079 76.46259-76.416465 76.46259-42.1973861 0-76.416468-34.2652-76.416468-76.46259 0-11.85216 2.720924-23.1048 7.51713-33.11226 12.3133351-25.64126 38.554114-43.35032 68.899338-43.35032 30.483576 0 56.862705 17.89353 69.083805 43.76537 4.70397 9.91524 7.33266 20.9834 7.33266 32.69721"/>
  <path fill="#a7a8a8" d="M147.92475 257.76826c0 54.1879-43.85761 98.09163-97.999389 98.09163-54.1417827 0-97.999394-43.90373-97.999394-98.09163 0-20.38387 6.225844-39.33811 16.832837-55.01801l.968465-1.38352.830113 1.70634c-10.699228 15.54155-16.97119 34.35744-16.97119 54.69519 0 53.26556 43.1658509 96.47752 96.385286 96.47752 53.219432 0 96.339172-43.16585 96.339172-96.47752 0-20.29164-6.27196-39.15364-16.97119-54.69519l.83011-1.70634.96846 1.38352c10.607 15.6799 16.78672 34.63414 16.78672 55.01801"/>
  <path fill="#a7a8a8" d="M130.11949 201.34035l-.83012 1.70634c-17.38624-25.22619-46.440179-41.78233-79.367975-41.78233s-61.981734 16.51002-79.36798 41.73622l-.830112-1.70635c17.755184-25.22619 47.039709-41.69009 80.198092-41.69009s62.489025 16.51001 80.198095 41.73621"/>
  <path fill="#d65725" d="M42.049807 355.56677l7.886069 17.01731 7.886068-17.01731"/>
  <path fill="#a7a8a8" d="M-47.295249 352.37171c-4.381149-11.57546-3.597154-16.14107 1.706343-19.41541 7.839951-4.84232 20.476108 8.34725 21.951864 15.35708 1.56799 7.65549-2.44422 14.57309-8.623947 15.63379-6.179726 1.10682-12.497805-4.88844-15.03426-11.57546"/>
  <path fill="#bbb" d="M-45.778218 353.14261c-1.291286-7.05596 2.674807-13.60462 8.854533-14.66532 6.179727-1.0607 12.221101 3.78162 13.512387 10.83758 1.291286 7.05596-2.720924 13.60462-8.90065 14.66532-6.13361 1.0607-12.174984-3.78162-13.46627-10.83758"/>
  <path fill="#c1c3c2" d="M-42.518781 352.57966c-.922348-4.98068 1.890812-9.63853 6.271961-10.37641 4.381149-.73788 8.623946 2.67481 9.546294 7.65548.922347 4.98068-1.936929 9.63853-6.318079 10.37641-4.288914.78399-8.577829-2.67481-9.500176-7.65548"/>
  <path fill="#e4e5e4" d="M119.01479 225.07912c-12.2211-25.91795-38.600227-43.81149-69.083803-43.81149-30.345224 0-56.5860025 17.70907-68.899338 43.35032l-10.468641-21.58292c17.386245-25.2262 46.440183-41.73622 79.367979-41.73622 32.927796 0 61.981733 16.55614 79.367983 41.78233l-10.28418 21.99798z"/>
  <path fill="#a7a8a8" d="M147.17383 352.37171c4.38114-11.57546 3.59715-16.14107-1.75246-19.41541-7.79384-4.84232-20.43 8.34725-21.90575 15.35708-1.56799 7.65549 2.44422 14.57309 8.62395 15.63379 6.17972 1.10682 12.4978-4.88844 15.03426-11.57546"/>
  <path fill="#bbb" d="M145.61068 353.14261c1.29128-7.05596-2.67481-13.60462-8.85454-14.66532-6.17972-1.0607-12.2211 3.78162-13.51238 10.83758-1.29129 7.05596 2.72092 13.60462 8.90065 14.66532 6.17972 1.0607 12.2211-3.78162 13.46627-10.83758"/>
  <path fill="#c1c3c2" d="M132.82081 360.24182c-4.38115-.73787-7.19431-5.39573-6.31808-10.3764.92235-4.98068 5.21126-8.39336 9.5463-7.65548 4.38115.78399 7.1943 5.39573 6.27196 10.3764-.87623 4.98068-5.16515 8.39336-9.50018 7.65548m-182.43009-56.93405c0-1.29128 1.0607-2.30586 2.305869-2.30586 1.291286 0 2.305868 1.0607 2.305868 2.30586 0 1.29129-1.0607 2.30587-2.305868 2.30587-1.291287.0461-2.305869-1.01458-2.305869-2.30587m-9.305561-44.01593c0-1.29128 1.0607-2.30587 2.305868-2.30587 1.291286 0 2.305868 1.01459 2.305868 2.30587 0 1.29129-1.060699 2.30587-2.305868 2.30587-1.245168.0461-2.305868-1.01458-2.305868-2.30587m2.314031 22.43241c0-1.29129 1.060699-2.30587 2.305868-2.30587 1.291286 0 2.305868 1.01458 2.305868 2.30587s-1.060699 2.30587-2.305868 2.30587c-1.245169 0-2.305868-1.0607-2.305868-2.30587m6.99153-66.43086c0 1.29129 1.0607 2.30587 2.305869 2.30587 1.291286 0 2.305868-1.0607 2.305868-2.30587 0-1.29129-1.0607-2.30587-2.305868-2.30587-1.291287-.0461-2.305869 1.01458-2.305869 2.30587m-6.99153 21.61534c0 1.29129 1.060699 2.30587 2.305868 2.30587 1.291286 0 2.305868-1.0607 2.305868-2.30587 0-1.29128-1.060699-2.30586-2.305868-2.30586-1.245169 0-2.305868 1.01458-2.305868 2.30586m206.08867 66.39904c0-1.29128-1.0607-2.30586-2.30587-2.30586-1.29129 0-2.30587 1.0607-2.30587 2.30586 0 1.29129 1.0607 2.30587 2.30587 2.30587 1.29128.0461 2.30587-1.01458 2.30587-2.30587m9.25866-44.01593c0-1.29128-1.0607-2.30587-2.30587-2.30587-1.29129 0-2.30587 1.01459-2.30587 2.30587 0 1.29129 1.0607 2.30587 2.30587 2.30587 1.29128.0461 2.30587-1.01458 2.30587-2.30587m-2.31565 22.43241c0-1.29129-1.0607-2.30587-2.30587-2.30587-1.29128 0-2.30587 1.01458-2.30587 2.30587s1.0607 2.30587 2.30587 2.30587c1.29129 0 2.30587-1.0607 2.30587-2.30587m-6.94301-66.43086c0 1.29129-1.0607 2.30587-2.30587 2.30587-1.29129 0-2.30587-1.0607-2.30587-2.30587 0-1.29129 1.0607-2.30587 2.30587-2.30587 1.29128-.0461 2.30587 1.01458 2.30587 2.30587m6.94301 21.61534c0 1.29129-1.0607 2.30587-2.30587 2.30587-1.29128 0-2.30587-1.0607-2.30587-2.30587 0-1.29128 1.0607-2.30586 2.30587-2.30586 1.29129 0 2.30587 1.01458 2.30587 2.30586"/>
  <path fill="#dedfde" d="M75.469491 237.70297v6.59478c0 1.47576-1.199052 2.67481-2.674807 2.67481H29.582716c-1.475756 0-2.674807-1.19905-2.674807-2.67481v-6.59478c0-1.47576 1.199051-2.67481 2.674807-2.67481h5.257379c1.337404 0 2.398103-1.0607 2.398103-2.3981v-6.22585c0-7.79383 5.995257-14.52696 13.789091-14.84979 8.301125-.36893 15.172612 6.22585 15.172612 14.48086v6.6409c0 1.3374 1.060699 2.3981 2.398103 2.3981h4.19668c1.475755-.0461 2.674807 1.15293 2.674807 2.62869"/>
  <path d="M47.625211 243.1504c-.04612 0-.138352.13835-.184469.13835-.138352.0461-.276704.0922-.368939.13835-.138352 0-.276704.0461-.368939.0461-.184469 0-.368939-.0461-.461174-.13835-.138352-.0922-.138352-.0461-.230586-.18447-.09224-.13836-.230587-.32282-.230587-.46118v-.32282c0-.0922.04612-.13835.138352-.23059.09224-.0922.138352-.18446.276704-.2767.138352-.0461.230587-.0922.415056-.13835.09223-.0461.230587-.0461.461174-.0922.138352 0 .368939 0 .415056-.0461.09223 0 .138352 0 .230587-.0461.04612-.0461.138352-.0461.184469-.0922.04612-.0461.09223-.0461.18447-.13835v.92235s0 .41506-.138352.59953c-.18447.23058-.322822.32282-.322822.32282m-2.121398-3.13598c.230586-.0922.368939-.13836.507291-.23059.138352-.0461.276704-.0922.507291-.13835.184469-.0461.322821-.0461.553408-.0461.184469 0 .415056.0922.599526.13835.138352.0461.276704.18447.322821.32282.09224.0922.138352.13836.138352.32283v.13835c0 .0461-.04612.0922-.09223.13835-.04612.0461-.09223.13835-.138353.13835l-.138352.13835c-.09223.0461-.138352.0461-.230586.0922-.09224.0461-.18447 0-.322822.0461-.415056.0461-.69176.0922-.87623.13835-.184469.0461-.276704.0922-.415056.13835-.138352.0461-.18447.13835-.322822.23059-.138352.0922-.138352.18447-.230586.2767-.04612.0922-.138353.18447-.138353.32282s-.04612.27671-.04612.41506c0 .23059.04612.41505.138352.64564.09223.18447.276704.36894.507291.46118.230587.0922.507291.23058.87623.23058h.368939c.138352 0 .230587-.0461.461174-.0922.09223-.0922.230586-.13835.368938-.27671l.230587-.23058v.50729h.87623c-.09224-.36894-.138352-.41506-.09224-.64565 0-.41505-.04612-1.38352 0-1.89081v-.59952c0-.18447-.09223-.46118-.138352-.64565-.04612-.13835-.138352-.2767-.276704-.41505-.138352-.13835-.415056-.32282-.599526-.41506-.230586-.0461-.415056-.0922-.645643-.0922-.230586 0-.599525 0-.830112.0461s-.415056.0922-.783995.18447c-.138352.32282-.138352.50729-.138352.64565m18.183199 3.09143c-.04612 0-.138352.13835-.230587.13835-.138352.0461-.230587.0922-.322821.13835-.138352 0-.276704.0461-.368939.0461-.18447 0-.368939-.0461-.507291-.13835-.138352-.0922-.138352-.0461-.230587-.18447-.09224-.13835-.230587-.32282-.230587-.46118v-.32282c.04612-.0922.04612-.13835.138352-.23058.09224-.0922.138352-.18447.276705-.27671.09223-.0461.230586-.0922.415056-.13835.09223-.0461.230587-.0461.461173-.0922.09224 0 .368939 0 .415057-.0461.04612 0 .138352-.0461.184469-.0461.09223-.0461.138352-.0461.18447-.0922.04612-.0461.09223-.0461.184469-.13836v.92235s0 .36894-.138352.59953c-.09224.23058-.230587.32282-.230587.32282m-2.121399-3.13598c.18447-.0922.368939-.13836.507291-.23059.138353-.0461.322822-.0922.507291-.13835.18447-.0461.368939-.0461.553409-.0461.184469 0 .461173.0922.599525.13835.138353.0461.276705.18447.368939.32282.09224.0922.09224.18447.138352.36894v.13836c0 .0461-.04612.0461-.09223.0922-.04612.0461-.09224.13835-.138352.13835-.04612.0461-.09223.0922-.18447.13835-.04612.0461-.138352.0461-.230587.0922-.09223.0461-.184469 0-.322821.0461-.415056.0461-.737878.0922-.87623.13835-.184469.0461-.276704.0922-.415056.13835-.138352.0461-.18447.13835-.322822.23059-.138352.0922-.138352.13835-.230587.2767-.04612.0922-.09223.23059-.138352.32282-.04612.13835-.09223.27671-.09223.41506 0 .23059.04612.41506.138352.64564.138352.18447.276704.36894.507291.46118.230586.0922.507291.23058.922347.23058h.368939c.138352 0 .276704-.0461.461173-.0922.09224-.0922.276705-.13835.415057-.27671l.230586-.23058v.50729h.87623c-.09223-.36894-.138352-.41506-.138352-.64565v-2.49033c0-.18447-.09224-.46118-.138352-.64565-.04612-.13835-.138352-.2767-.276704-.41505-.09224-.13835-.368939-.32282-.599526-.41506-.230587-.0461-.368939-.0922-.645643-.0922-.230587 0-.599526.0461-.830112.0461-.276704.0461-.415057.0922-.783995.18447-.138353.27671-.138353.50729-.138353.64565m-11.954542 3.87584l.09223-.32282v-.92235l-.04612-2.62869c0-.23059-.138352-.50729-.138352-.64564.138352 0 .415057-.0461.553409-.0922.09223-.0461.230586-.0461.322821-.0461v.59953c.09224-.18447.276704-.18447.322822-.2767.04612-.0922.138352-.0922.276704-.18447.138352-.0922.184469-.0922.368939-.13836.184469 0 .322821-.0461.507291-.0461.138352 0 .230587 0 .368939.0461.138352 0 .230586.0922.322821.13836.09224.0461.18447.13835.276704.18447.09223.0922.138352.13835.230587.2767 0 .0461.18447-.23059.461174-.36894.276704-.13835.553408-.2767.87623-.2767.184469 0 .645643 0 .830112.0922.18447.0922.461174.18447.599526.32282.138352.13836.138352.18447.276704.32283.138352.13835.184469.50729.184469.64564v2.85927c0 .23059.04612.23059.09224.46118h-.922347c.138352-.36894.09224-.27671.09224-.46118v-2.62868c0-.18447-.04612-.41506-.09224-.5073-.04612-.0922-.230587-.2767-.276704-.36893-.09223-.0922-.18447-.0922-.322822-.13836-.09224-.0461-.276704-.0461-.415056-.0461-.09224 0-.276704 0-.368939.0461-.09223.0461-.184469.0461-.276704.13836-.09224.0461-.138352.0922-.230587.18446-.04612.0922-.138352.18447-.184469.27671-.04612.0922-.04612.2767-.04612.46117v2.67481l.138352.41506h-.968464c0-.41506.04612-.0461.04612-.46118v-2.72092c0-.13835-.04612-.23059-.04612-.32282-.04612-.0922-.09223-.27671-.18447-.32283-.09223-.0922-.276704-.2767-.368939-.2767-.09223-.0461-.276704-.0922-.415056-.0922-.138352 0-.230587 0-.368939.0922-.138352.0461-.230587.0922-.322821.18447-.09224.0922-.18447.13835-.276704.2767-.04612.13836-.138353.13836-.138353.36894-.04612.23059-.04612 1.19905-.04612 1.79858v1.01458c0 .18447.09224.27671.09224.46118h-.461174c0-.0461-.230587-.0461-.415056-.0461m11.135636-.8457c0 .0461 0 .13835-.04612.2767 0 .13835-.04612.27671-.09223.41506-.184469.0461-.415056.13835-.599525.13835-.18447 0-.691761.0461-.830113.0461-.276704 0-.645643-.0461-.922347-.13835-.276704-.0922-.599526-.27671-.783995-.5073-.18447-.18446-.415056-.41505-.553409-.73787-.09223-.32282-.184469-.59953-.184469-.92235 0-.46117.04612-.64564.184469-1.0607.138353-.41506.461174-.73788.783996-.96846.322821-.23059 1.014582-.41506 1.56799-.41506.415056 0 .87623.0461 1.245169.18447 0 .2767.04612.41506.04612.59952-.276704-.0922-.553408-.23058-.69176-.2767-.18447 0-.415057-.0461-.507291-.0461-.276705 0-.783996.13836-.968465.23059-.184469.0922-.368939.23059-.507291.41506-.138352.18447-.230587.41505-.276704.69176-.04612.2767-.09223.2767-.04612.55341 0 .36893.09223.64564.184469.92234.138352.27671.276704.50729.553408.64565.230587.13835.507291.2767.830113.2767.322821.0922.968464.0461 1.614107-.32282m4.784723.6651l-.09224-.32282c0-.0461-.09224-.23059-.138352-.46117.507291.2767 1.060699.50729 1.475756.50729.184469 0 .415056-.0922.553408-.13835.138352-.0461.276704-.13836.368939-.27671.04612-.0922.138352-.23058.138352-.32282 0-.0461.04612-.13835 0-.23059 0-.0461-.04612-.23058-.09224-.2767l-.276704-.2767c-.09224-.0461-.276704-.18447-.599526-.27671-.276704-.13835-.645643-.23059-.783995-.36894-.138352-.0922-.368939-.23058-.461173-.36894-.09224-.13835-.138353-.23058-.230587-.36894-.04612-.13835 0-.2767 0-.41505 0-.18447.138352-.41506.230587-.55341.138352-.18447.322821-.2767.553408-.41506.230587-.0922.507291-.13835.830112-.13835.368939 0 .691761.0922 1.106817.13835 0 .23059-.04612.41506 0 .59953-.276704-.18447-.645643-.32282-.968464-.32282-.18447 0-.368939.0461-.507291.0922-.138353.0461-.322822.18447-.415057.27671-.04612.0922-.09223.18447-.09223.2767 0 .0922 0 .18447.04612.27671 0 .0461.184469.2767.276704.2767.138352.0461.09224.0461.18447.0922.138352 0 .461173.18447.783995.32283.322821.13835.645643.36893.737877.46117.09224.0922.230587.23059.276705.46117.04612.13836.09223.27671.09223.36894 0 .18447-.04612.18447-.04612.32282 0 .23059-.04612.27671-.138352.46118-.138352.18447-.322822.36894-.599526.46117-.276704.0922-.507291.18447-.830112.18447h-.599526c-.184469 0-.322822-.0922-.461174-.0922-.04612.13835-.138352.13835-.322821.0461m5.739859-.3771c-.04612.13835-.09224.23059-.09224.50729-.184469.0461-.276704.0922-.415056.0922h-.322822c-.276704 0-.461173 0-.599525-.0922-.138352-.0922-.276704-.18447-.368939-.32282-.09224-.13835-.138352-.55341-.138352-.83011v-2.9054h-.553409v-.41505h.553409v-.784c0-.13835-.09224-.2767-.138352-.36894.276704-.0461.645643-.18447.830112-.23058 0 .46117.04612 1.10681.04612 1.38352h1.199051v.46117l-.322822-.0461h-.876229v2.81316c0 .23059.04612.50729.09223.64565.04612.13835.138352.13835.230587.23058.09224.0461.184469.0461.276704.0461h.230587c.09224-.0922.138352-.13835.368939-.18447m-26.758756-.25953c0 .18447-.09224.36894-.09224.64564-.276704.0922-.69176.23059-.922347.2767h-.599526c-.368939 0-.69176-.0922-1.014582-.18447-.276704-.0922-.553408-.2767-.783995-.50729-.230587-.23058-.415056-.50729-.507291-.78399-.09223-.32282-.138352-.59953-.138352-.92235 0-.46117.04612-.64564.18447-1.0607.138352-.41505.461173-.69176.783995-.92235.322821-.23058.69176-.32282 1.199051-.32282.276704 0 .553408 0 .783995.0922s.415057.18447.599526.32282c.138352.18447.276704.36894.415056.59953.09224.2767.138352.2767.138352.5534.04612.13836.04612.36894.04612.46118h-3.366568v.32282c0 .32282.04612.64564.18447.92235.138352.2767.322821.46117.553408.59952.276704.13835.553408.27671.87623.27671.461174.0461 1.106817-.0922 1.660225-.36894m-3.089863-2.21364h2.44422v-.2767c0-.0922-.04612-.18447-.138352-.32282-.04612-.13835-.138352-.18447-.276704-.27671-.09224-.0922-.18447-.13835-.322822-.23058-.138352-.0461-.322821-.0461-.461174-.0461-.138352 0-.276704.0461-.415056.0922-.138352.0461-.276704.13836-.368939.23059-.138352.0922-.184469.18447-.276704.27671-.09224.13835-.138352.23058-.138352.36893v.0461c-.04612 0-.04612 0-.04612.13835m-3.79117 3.16674c0-.0922.09224-.23058.09224-.2767 0-1.47576 0-2.62869-.04612-3.55104v-.41505l-.138352-.32282c.138352 0 .322822-.0461.415056-.0461.09224 0 .368939-.0461.461174-.0461v.83011c.09224-.18447.138352-.18447.184469-.2767.04612-.0922.18447-.23059.276705-.2767.09223-.0461.184469-.13836.322821-.18447.138352-.0461.230587-.0922.368939-.0922h.507291c.276704.0461.415056.0922.507291.13835 0 .13836-.18447.64565-.18447.64565s-.230586 0-.415056-.0922c-.184469-.0461-.276704-.0461-.415056-.0461-.138352 0-.368939.0461-.507291.0922-.138352.0461-.276704.13835-.368939.2767-.09224.13835-.138352.27671-.230587.41506-.04612.13835-.04612 0-.04612.23059v2.81316l.09224.2767h-.461174c-.04612-.13835-.276704-.0922-.415056-.0922m-6.927105.0318l.138352-.46118v-5.5802c0-.18447-.09223-.32282-.184469-.64564h2.951511c.507291.0461.645643.0461.968465.13835.276704.0461.737878.32282.968464.50729.230587.13835.461174.32282.645643.59953.18447.2767.276705.32282.368939.64564.138352.41506.276704.83011.276704 1.24517.04612.55341 0 .96846-.184469 1.47575-.184469.5073-.507291.87623-.87623 1.19906-.322821.36893-.69176.5534-1.152934.64564-.415056.0922-.922347.18447-1.475755.18447h-1.291287l-1.152934.0461zm1.152934-.55341h1.014582c.276705 0 .553409 0 .830113-.0461.276704-.0461.507291-.13835.69176-.23059.230587-.0922.415057-.18447.645643-.41505.230587-.18447.368939-.41506.507291-.64565.138352-.2767.230587-.50729.276705-.83011.04612-.32282.09223-.64564.09223-.92235 0-.36894-.138352-.64564-.230587-.92234-.09223-.32282-.276704-.69176-.507291-.92235-.276704-.23059-.461173-.36894-.783995-.46117-.276704-.0922-.69176-.18447-1.152934-.18447-.276704 0-.69176 0-.830112.0461-.18447 0-.368939.0461-.599526.0461l.04612 5.48797z"/>
  <path fill="#ee5507" d="M51.93308 227.79391c0-.78399-.368939-.69176-.645643-.73787-.276704-.0461-.922347.0922-1.521873-.0461-.69176-.13835-1.060699-1.10682-.968464-1.56799.368938-1.3374 1.245168-1.52187 1.844694-1.47576.461174 0 1.337404.0461 2.44422 1.01459.507291.41505.783995 1.56799.783995 2.21363 0 .78399 0 1.70634-.507291 2.21363-.783995.83012-2.767041 1.52188-3.919975 1.47576-4.473384-.46118-4.288915-4.65786-4.288915-4.65786s-.368939-1.79857 1.152934-3.7355c.138352-.13835.322822-.50729.461174-.69176.138352-.18447.276704-.23059.461173-.36894.18447-.13835.368939-.23059.553409-.36894.507291-.2767 1.014582-.55341 1.521873-.73788.783995-.23058 1.521872-.2767 2.121398-.2767 1.844695.0461 3.827741 1.0607 4.842323 2.62869.138352.23058.276704.36894.415056.55341.276705.18447.415057.5534.599526 1.01458.230587.64564.138352.41505.415056 1.42964.18447.73787.276705 1.19905.276705 1.66022 0 .23059.04612.46117.04612.69176 0 .784.138352 1.01458-.04612 1.61411-.276705 1.0607-.922348 2.1214-1.475756 2.62869-.968465.96846-1.890812 1.24517-2.398103 1.52187-.507291.27671-.737878.32282-1.429638.55341-.69176.2767-1.060699.2767-2.259751.2767-1.199051 0-2.167516-.0922-2.490337-.13835-2.121399-.59952-2.905394-.96846-3.827741-1.75246-2.398103-1.89081-2.905394-5.5802-2.905394-5.5802s-.276704-1.89081.138352-3.82774c.230587-1.0607 1.291286-2.95151 1.890812-3.68939.507291-.64564 1.706342-1.56799 2.398103-2.02916.69176-.46118 1.706342-1.0607 2.859276-1.38352.553408-.18447 1.014582-.27671 2.305868-.32282 1.475756-.0461 3.689389.32282 4.980675.73787 1.337404.41506 2.582572 1.29129 3.228215 1.98305.645644.69176 2.075282 2.81316 2.305869 3.22822.276704.41505.922347 2.72092 1.014581 3.04374.04612.27671.18447 1.3374 1.199052 1.29129.922347-.0922.645643-1.15294.645643-1.33741-.04612-.18447-.368939-1.98304-.507291-2.49033-.138352-.50729-.87623-1.79858-1.060699-2.02917-.09224-.13835-.737878-1.24517-1.383521-2.07528-.507291-.64564-.968465-1.24517-1.475756-1.56799-1.014582-.64564-2.25975-1.19905-2.25975-1.19905s-2.167516-.73788-3.320451-.87623c-.968464-.13835-2.029163-.32282-3.781623-.23059-1.75246.13835-2.720924.59953-3.366568.83012-.645643.2767-2.075281.92234-3.182097 1.79857-1.0607.87623-.737878.46118-1.337404 1.10682-.553408.64564-.737878.83011-1.152934 1.38352-.415056.55341-1.245169 2.21363-1.56799 3.32045-.138352.46117-.322822 1.15293-.415057 1.79858-.09223.55341-.09223 1.10681-.04612 1.56799.09224.96846.04612.96846.04612.96846s.461174 1.8447.691761 2.62869c.276704.73788.599526 1.79858 2.121398 3.50492 1.521873 1.66023 2.905394 2.1214 3.458803 2.35199.507291.18447 2.305868.83011 4.657853.87623 2.720924.0461 3.458802-.55341 3.919976-.73788.507291-.23059 2.167516-.92235 3.504919-2.16752 1.337404-1.24517 1.75246-2.62869 1.798577-2.72092.368939-1.0607.507291-2.76704.138353-4.38115-.230587-1.10682-.415057-2.07528-.645644-2.76704-.415056-1.19905-.876229-1.8447-1.199051-2.35199-.322821-.50729-1.291286-1.24517-1.890812-1.61411-.276704-.18447-.553408-.36893-.968464-.5534-.415057-.18447-.922348-.27671-1.521873-.41506-.553409-.13835-1.337404-.2767-1.936929-.32282-.553409-.0461-1.014582 0-1.199052 0-.276704 0-1.199051.13835-2.490337.83011-.691761.36894-1.475756.83011-2.305868 1.66023-.276705.2767-.507291.59952-.691761.87623-1.844694 2.53645-1.199051 5.39573-1.199051 5.39573s.322821 3.82774 3.689389 4.93455c1.199051.36894 2.25975.41506 3.13598.27671 1.475756-.18447 2.536455-.784 3.274333-1.19905.737878-.36894 1.291286-1.01458 1.56799-1.70635.276704-.64564.368939-1.29128.322822-1.84469 0-.32282 0-.73788-.09224-1.19905-.09223-1.19905-.461174-2.25975-1.429638-3.08986l-.276704-.18447c-.18447-.13836-.322822-.18447-.461174-.27671-.830113-.41505-1.614108-.59952-2.767042-.64564-.415056 0-1.014582.0922-1.337403.2767-1.337404.64565-2.075281 1.8447-1.983047 3.36657.04612 1.42964 1.429638 2.21363 1.660225 2.44422-.04612 0 2.951511.73788 3.043746-.59953"/>
  <path fill="#c1c3c2" d="M40.639584 352.48848h18.585297l9.684646-20.93728c-6.087492 1.56799-12.405571 2.35198-18.954236 2.35198-6.548665 0-12.912861-.83011-18.954236-2.35198l9.638529 20.93728"/>
  <path fill="#8c8c8c" d="M-41.497236 351.12931c.09224.0461.18447.0461.322822.0461.507291 0 .830112-.23059.830112-.69176 0-.41506-.322821-.64565-.783995-.64565-.184469 0-.322821 0-.415056.0461v1.24517zm-.415056-1.56799c.18447-.0461.461174-.0461.783995-.0461.415057 0 .691761.0922.922348.27671.184469.13835.276704.36894.276704.69176 0 .2767-.09223.50729-.230587.69176-.230587.23058-.599526.36894-.968465.36894-.138352 0-.230587 0-.322821-.0461v1.29129h-.461174v-3.22822zm2.787749 1.58316c0 .69176.368938 1.29129 1.014581 1.29129.645644 0 1.014582-.59953 1.014582-1.3374 0-.64565-.322821-1.33741-1.014582-1.33741-.645643.0461-1.014581.69176-1.014581 1.38352m2.536454-.0461c0 1.10681-.69176 1.70634-1.521873 1.70634-.876229 0-1.475755-.64564-1.475755-1.66023 0-1.01458.645643-1.70634 1.521873-1.70634.87623.0461 1.475755.69176 1.475755 1.66023m1.065219 1.67401l-.830112-3.22822h.461173l.368939 1.61411c.09223.41506.18447.784.230587 1.10682.04612-.32282.138352-.69176.276704-1.10682l.415056-1.61411h.415057l.415056 1.66023c.09223.36894.184469.78399.230587 1.10682.04612-.36894.138352-.69176.276704-1.10682l.415056-1.61411h.415056l-.922347 3.22822h-.415056l-.415056-1.70635c-.09224-.41505-.18447-.73787-.230587-1.06069-.04612.32282-.138352.64564-.230587 1.06069l-.461174 1.70635h-.415056zm5.179764-1.5542h-1.245169v1.15293h1.383521v.36894h-1.798577v-3.22821h1.75246v.36894h-1.337404v1.01458h1.245169v.32282zm1.113965-.16164h.415056c.461174 0 .737878-.23059.737878-.59953 0-.41505-.322822-.59952-.737878-.59952-.184469 0-.322821 0-.415056.0461v1.15294zm-.415056-1.47576c.230586-.0461.507291-.0461.783995-.0461.461173 0 .737877.0922.922347.27671.184469.13835.276704.36894.276704.59952 0 .41506-.276704.69176-.599526.83012.230587.0922.415057.32282.461174.64564.09224.46117.184469.78399.230587.87623h-.415056c-.04612-.0922-.138353-.36894-.230587-.784-.09223-.46117-.276704-.59952-.645643-.64564h-.415057v1.38352h-.415056l.04612-3.13598zm158.816017 1.56218c0 .73788.41506 1.42964 1.15293 1.42964.73788 0 1.15294-.69176 1.15294-1.47576 0-.69176-.36894-1.42963-1.15294-1.42963-.78399 0-1.15293.69176-1.15293 1.47575m2.76704-.0461c0 1.24517-.73788 1.89082-1.66022 1.89082-.92235 0-1.61411-.73788-1.61411-1.79858 0-1.10682.69176-1.8447 1.66022-1.8447.96847-.0461 1.61411.69176 1.61411 1.75246m1.0209.034c.0922.0461.23059.0461.36894.0461.55341 0 .87623-.2767.87623-.73788 0-.46117-.32282-.69176-.83011-.69176-.18447 0-.36894 0-.41506.0461v1.3374zm-.41505-1.70634c.23058-.0461.50729-.0922.87623-.0922.46117 0 .78399.0922 1.01458.2767.18447.18447.32282.41506.32282.73788s-.0922.55341-.2767.73788c-.23059.2767-.64565.36893-1.10682.36893-.13835 0-.27671 0-.36894-.0461v1.42963h-.46117v-3.41268zm4.63894 1.83187h-1.38352v1.29129h1.52187v.36894h-1.98304v-3.55104h1.93693v.36894h-1.47576v1.10682h1.38352v.41505zm.74281 1.66516v-3.55103h.5073l1.15293 1.79857c.2767.41506.46117.784.64564 1.15294-.0461-.46118-.0461-.92235-.0461-1.47576v-1.47575h.41506v3.55103h-.46117l-1.10682-1.79857c-.23059-.41506-.50729-.784-.64564-1.19906.0461.46118.0461.87623.0461 1.47576v1.52187h-.5073z"/>
</svg>
