<svg xmlns="http://www.w3.org/2000/svg" viewBox="0 0 1000 114"><title>logo_right</title><g id="Layer_3" data-name="Layer 3"><polygon points="740.2 49.26 740.2 28.28 643.85 28.28 643.85 34.51 602.35 34.51 602.35 43.59 579.35 43.59 579.35 77.04 589.34 77.04 589.34 92.51 620.18 92.51 620.18 97.51 734.2 97.51 734.2 93.34 750.52 93.34 750.52 79.01 777.55 79.01 777.55 49.26 740.2 49.26" fill="#fff"/></g><g id="Layer_1" data-name="Layer 1"><g id="Calque_1" data-name="Calque 1"><path d="M627.05,28.13a1,1,0,0,1,.15,1.92c-32.19,5.06-52.47,15.71-53,27.8C574,65,580.92,72.41,593.83,78.68a1,1,0,0,1,.31,1.38h0a1,1,0,0,1-.73.46h0a1,1,0,0,1-.42-.09c-13.84-6.73-21-14.56-20.68-22.66.27-6.67,5.71-13,15.74-18.21,9.53-5,23-8.92,38.85-11.42h.15m0-7a8.48,8.48,0,0,0-1.23.09c-16.64,2.62-30.81,6.81-41,12.13-15.66,8.18-19.25,17.65-19.5,24.13C565,65.22,569,76.57,589.93,86.73l.14.06a8,8,0,0,0,6.83-14.4c-11.74-5.7-15.77-11.25-15.65-14.27.21-5.35,13.16-15.83,47-21.15A8,8,0,0,0,627,21.13Z" fill="#fff"/><path d="M681.9,25.49h0a284.43,284.43,0,0,1,32.3,3.35,1,1,0,0,1,.61,1.28,1,1,0,0,1-.8.65h-.16a280.59,280.59,0,0,0-32.08-3.34,1,1,0,0,1-.7-1.23,1,1,0,0,1,.7-.7m0-7a8,8,0,0,0-.35,15.93,273,273,0,0,1,31.26,3.25H713a7.42,7.42,0,0,0,.94.06h0a8,8,0,0,0,1.28-15.84,291.65,291.65,0,0,0-33.1-3.43Z" fill="#fff"/><path d="M724.24,30.85h.19c16.26,3.44,29.91,8.26,39.47,13.92,10.07,6,15.28,12.72,15.06,19.54-.28,9.25-10.48,17.26-28.71,23.3-17.61,5.84-41.28,8.65-66.71,8.65h-.81c.27,0,.54-.57.81-.57,52,0,92.94-13.79,93.48-31.14.19-6.07-4.69-12.38-14.11-18S740.08,36.22,724,32.82a1,1,0,0,1,.25-2m0-7a8,8,0,0,0-1.85,15.78h.19c15.2,3.22,27.91,7.7,36.76,12.94,8,4.74,10.76,9.16,10.68,11.73-.12,3.76-6.13,10.12-22.68,15.65-16.8,5.61-39.45,8.7-63.8,8.7a7.35,7.35,0,0,0-4.79,1.81,7,7,0,0,0,4,12.76h.81c27.32,0,51.15-3.11,68.91-9C774.3,87,785.57,77,786,64.55c.22-6.64-2.82-16.5-18.48-25.78-10.22-6-24.6-11.15-41.59-14.75h-.14a8.29,8.29,0,0,0-1.5-.14Z" fill="#fff"/><path d="M726.75,27,701.12,46.52l2.7,12.21-8.46-8.81-30.1,12,25.63-19.54-2.7-12.19L696.68,39l30.1-12m0-7a7,7,0,0,0-2.6.5L698.43,30.76l-5.19-5.4a7,7,0,0,0-11.88,6.36l1.73,7.83L661,56.37a7,7,0,0,0,6.84,12.07l25.72-10.27,5.19,5.4a7,7,0,0,0,11.91-6.36L709,49.38,731,32.56A7,7,0,0,0,726.75,20Z" fill="#fff"/><path d="M746.33,52.41c.75,0,1.21.64,1,1.52a2.53,2.53,0,0,1-1.92,2l-11.22,1.79.13-.69a4.35,4.35,0,0,1,3.1-3.23l1.16-.18,4.6-.73,2.88-.46h.23m0-7a8.78,8.78,0,0,0-1.35.11l-2.87.46-4.58.73-1.16.18a6.69,6.69,0,0,0-.75.16,11.37,11.37,0,0,0-8.08,8.39,1.28,1.28,0,0,1-.07.34l-.13.69a7,7,0,0,0,5.64,8.14h0a7.54,7.54,0,0,0,1.25.11,6.71,6.71,0,0,0,1.1-.09l11.22-1.78.55-.11a9.57,9.57,0,0,0,7.14-7.45v-.1a8.4,8.4,0,0,0-1.72-6.91,8.08,8.08,0,0,0-6.2-2.89Z" fill="#fff"/><path d="M679.31,63.48h0m0,0L677,76,666.1,77.74a6.85,6.85,0,0,1-.78.07c-1.25,0-1.63-.71-1.32-2.36l1.33-7.14a3.27,3.27,0,0,1,3.1-3.11l10.88-1.72m-9.74,8.73a15.34,15.34,0,0,0,1.8-.29l1.71-.27.53-2.84-1.71.27c-1.83.29-2.51,0-2.87,1.84-.17,1,0,1.29.54,1.29m9.74-15.73h-.23a8.49,8.49,0,0,0-1,.11l-10.49,1.66a10.27,10.27,0,0,0-9.22,9.11l-1.27,6.81a9,9,0,0,0,1.69,7.71,8.3,8.3,0,0,0,6.52,2.93,10.76,10.76,0,0,0,1.88-.16l10.87-1.72a7,7,0,0,0,5.79-5.64L686.15,65a7,7,0,0,0-6.74-8.51Z" fill="#fff"/><path d="M657.26,12.88c5.08,0,8.63,4.53,7.58,10.16l-1.64,8.84c-1.14,6.13-7.52,12.67-13.38,13.6L638.9,47.21l-2.44,13.11,15-2.38h.67a8.74,8.74,0,0,1,6.55,2.9,15.26,15.26,0,0,1,8.73-5.22l4.06-.68-7,5.36v.36a7.59,7.59,0,0,0-4,5.35L658,79.41c-.53,2.81.7,4.55,3.1,4.55a5.38,5.38,0,0,0,.9-.08l13.89-2.2-.58,3.09c-.91,4.9-6.18,9.6-10.87,10.34l-5.33.85L658,101.65l7-1.11c6.85-1.09,14.58-8,15.92-15.24l5.3-28.49h-.14l-8.33,1.32,17.58-6.35,4.88,5.76L696.4,78.41l5.93-.94,3.35-18.23L716,57.59a7.23,7.23,0,0,1,.79-.07c1.25,0,1.62.71,1.32,2.35l-2.88,15.6,5.4-.86s3.85-20.54,4-21a2.89,2.89,0,0,0-3.11-2.31,5.46,5.46,0,0,0-.9.07l-15,2.4-1.87-4.13L720.44,47h.69a8.77,8.77,0,0,1,6.08,2.45,13.87,13.87,0,0,1,7.7-4.72l15-2.38a6.73,6.73,0,0,1,1-.07c3.51,0,9.23,2.34,8,9.34l-.41,2.06a13.3,13.3,0,0,1-2.94,5.64l1.69,1.21-2.38,13.07-26.1,4.14a6.45,6.45,0,0,1-1.17.1,7.07,7.07,0,0,1-2.72-.55l-.2,1.1-15.1,2.39,3.1-16.68c.23-1.22.42-1.54.08-1.54a12.16,12.16,0,0,0-1.32.23l-1.7.27-3.39,18.24-21,3.33c-2.11,10.64-8.67,19.55-25.94,21.26l-7,1.11,2.87-15.39,5.33-.84c4.69-.74,7.76-1.32,8.19-3.65L657.11,89h-.2a6.51,6.51,0,0,1-1.16-.11l-.09.5-15.1,2.39,3.12-16.73c.23-1.22.42-1.54.08-1.54a12,12,0,0,0-1.31.23l-1.77.26-3.4,18.24L595.4,98.91h-.5c-1.57,0-2.54-1.28-2.21-3.07l8.21-44.17a5.37,5.37,0,0,1,4-4.09l22-3.49L632,16.74,655.85,13a8.37,8.37,0,0,1,1.41-.11M640.91,36.4l7.55-1.2a2.37,2.37,0,0,0,1.94-2l1.37-7.41c.18-.94-.21-1.48-1-1.48h-.31l-7.55,1.21-2,10.82M731,72.88a4.08,4.08,0,0,0,.93-.1L750.1,69.9l1.08-5.84L735.1,66.62h-.28a2.16,2.16,0,0,1-.56-.08,1.87,1.87,0,0,1-1.21-2.33h0l.2-1.29,14.43-2.24A7.66,7.66,0,0,0,753.07,55l.68-3.56c.45-2.39-.94-4.83-3-4.83h-.44l-13.87,2.2a10.38,10.38,0,0,0-7.62,7.45l-2.14,11.14A4.51,4.51,0,0,0,731,72.92M626,49.26l-20.49,3.25-7.73,41.6,24.8-3.93,1.15-6.27-18.88,3,2.24-12L618.92,73,620,67.32,608.11,69.2l2.23-12L624.9,55l1-5.7m60.21,30.82L692,79.2l4.45-23.94-5.8.92h-.13l-4.45,23.93m-72.3-16.2,11.33-1.8-2.76,14.82-11.32,1.8-.53,2.84,14-2.23,3.81-20.5-14,2.22-.53,2.85m13.58,25.5,5.93-.94,3.36-18.24L647,68.59a4.22,4.22,0,0,1,.79-.07c1.26,0,1.63.71,1.32,2.35l-2.86,15.54,5.93-.94,3.49-18.66c.52-2.81-.71-4.55-3.1-4.55a5.46,5.46,0,0,0-.9.07L632,65.45h-.15l-4.44,24M657.26,5.88h0a15.05,15.05,0,0,0-2.5.2L630.89,9.86a7,7,0,0,0-5.78,5.64L620.93,38l-17.09,2.7a3.58,3.58,0,0,0-.45.09,12.37,12.37,0,0,0-9.33,9.46v.17L585.85,94.6a9.79,9.79,0,0,0,2,8.07A9.27,9.27,0,0,0,595,106a10.68,10.68,0,0,0,1.6-.13l41.92-6.65a7.23,7.23,0,0,0,1.59-.45h.55a6.71,6.71,0,0,0,1.1-.09l5.3-.84-1.47,7.92a7,7,0,0,0,5.6,8.16,6.93,6.93,0,0,0,1.28.12,6.71,6.71,0,0,0,1.1-.09l6.81-1.07c15.85-1.63,26.34-9.2,30.63-22l16.53-2.62a7.31,7.31,0,0,0,1.6-.45h.54a8,8,0,0,0,1.1-.08l15.1-2.4a7.5,7.5,0,0,0,1.62-.46h.2a13.64,13.64,0,0,0,2.3-.19L756,80.49a7,7,0,0,0,5.78-5.63l2.45-13.11a6.92,6.92,0,0,0-.08-2.9,19.06,19.06,0,0,0,1.24-3.59l.06-.27.41-2.06v-.2a14.43,14.43,0,0,0-3-12.17A15.7,15.7,0,0,0,751,35.22a13.89,13.89,0,0,0-2.13.16l-15,2.37-.43.08a21.12,21.12,0,0,0-7,3,15.8,15.8,0,0,0-5.24-.89h-1.24l-.55.06-16.68,2.72a7,7,0,0,0-4.48,2.68,7.16,7.16,0,0,0-2.78-.57,6.94,6.94,0,0,0-2.38.42L677.19,51a7,7,0,0,0-5.76-3,7.68,7.68,0,0,0-1.17.09l-4.06.69H666a22.23,22.23,0,0,0-8,3.31,15.44,15.44,0,0,0-3-.88c7.19-3,13.62-10.43,15-18l1.7-8.9a16,16,0,0,0-3.2-13.22,14.54,14.54,0,0,0-11.26-5.22Zm12.79,59,2.57-2a7,7,0,0,0,5,2.32l-1.77,9.54a5.63,5.63,0,0,0-1,.09l-9.08,1.44,1.66-8.93h0a.59.59,0,0,1,.3-.42,6.94,6.94,0,0,0,2.34-2Z" fill="#fff"/><path d="M694.31,7c5.31,0,8.9,4.62,7.8,10.54l-.43,2.56-12.54,2,.4-2.14c.18-1-.28-1.6-1.11-1.6h-.3l-6.2,1a2.64,2.64,0,0,0-2.09,2.14l-3.16,16.8c-.19,1,.27,1.6,1.11,1.6h.3l6.2-1a2.59,2.59,0,0,0,2.09-2.13l.3-1.57.91-.11,1.6,6.35-12.25,9.41-4,.63a8.59,8.59,0,0,1-1.52.13c-5.31,0-8.89-4.62-7.79-10.54L667,23.13C668.12,16.66,674.68,10,680.79,9l12-1.91A9.69,9.69,0,0,1,694.31,7m0-7a16.56,16.56,0,0,0-2.63.21l-12,1.9C670.61,3.56,661.79,12.41,660,21.85l-3.34,18a16.37,16.37,0,0,0,3.24,13.54,14.77,14.77,0,0,0,11.44,5.28,16.34,16.34,0,0,0,2.62-.21l4-.64a6.93,6.93,0,0,0,3.17-1.36L693.42,47A7,7,0,0,0,696,39.75l-1.6-6.35a7,7,0,0,0-3.51-4.48L702.73,27a7,7,0,0,0,5.78-5.62l.48-2.57a16.37,16.37,0,0,0-3.23-13.54A14.76,14.76,0,0,0,694.31,0Zm-8.63,28.27V28.2l.11.06h-.11Z" fill="#fff"/><path d="M699.2,33.22h0m0,0-.43,2.28a10,10,0,0,1-.72,2.12L694.2,34l5-.79m0-7H699a8.47,8.47,0,0,0-1,.1l-4.88.78a7,7,0,0,0-3.69,12l3.85,3.6A7,7,0,0,0,698,44.6a7.4,7.4,0,0,0,1.33-.13,7,7,0,0,0,5-3.92,18.36,18.36,0,0,0,1.2-3.53.53.53,0,0,1,0-.25l.39-2a7.07,7.07,0,0,0,.16-1.52,7,7,0,0,0-6.89-7Z" fill="#fff"/><path d="M821.22,50.69H844.4a10.47,10.47,0,0,1,6,2.2,11.46,11.46,0,0,1,4.2,5.53,11.06,11.06,0,0,1,.64,5.46,12.24,12.24,0,0,1-2.11,5.6,11.74,11.74,0,0,1-7.45,4.9,7.11,7.11,0,0,1-1.14.1H821.2c-.47,0-.6-.11-.59-.6V51.28c0-.49.14-.6.62-.6m3.58,1.76h-2c-.42,0-.55.09-.55.54V72.31c0,.44.11.55.53.55h21.74a8.34,8.34,0,0,0,3.89-1.15,8.91,8.91,0,0,0,2.69-2.19,12.67,12.67,0,0,0,1.57-2.46h0a10.78,10.78,0,0,0,.94-5.31,8.07,8.07,0,0,0-.49-2.33,10.08,10.08,0,0,0-3-4.46,9.06,9.06,0,0,0-6-2.48H824.82m-3.58-8.76A7.47,7.47,0,0,0,813.62,51v22.9a7.4,7.4,0,0,0,7.17,7.62h23.73a12.94,12.94,0,0,0,2.41-.22,18.53,18.53,0,0,0,12-7.77,19.55,19.55,0,0,0,3.29-8.7,18.77,18.77,0,0,0-7.64-17.53,17.5,17.5,0,0,0-9.9-3.58H821.24Zm8,15.75H844a2,2,0,0,1,1.31.55l.27.25a3.08,3.08,0,0,1,.94,1.39.21.21,0,0,1,0,.11,1.34,1.34,0,0,1,.1.44v.08A3.71,3.71,0,0,1,846.3,64a5.91,5.91,0,0,1-.65,1,2.19,2.19,0,0,1-.6.49l-.24.13a1.52,1.52,0,0,1-.59.19h-15V59.47Z" fill="#fff"/><path d="M871.43,55.24H891a3.16,3.16,0,0,1,3.07,2.42,3.06,3.06,0,0,1-1.87,3.56,6.75,6.75,0,0,1-2,.32H871.52c-.45,0-.57-.11-.57-.57V55.73c0-.37.08-.5.47-.5m2,4.57h17.26a2.32,2.32,0,0,0,1.21-.33h0a1.3,1.3,0,0,0-.61-2.46h-18c-.41,0-.56.1-.53.54a7.9,7.9,0,0,1,0,1.46c0,.58.1.77.72.77m-2-11.57a7.52,7.52,0,0,0-5.34,2.16,7.38,7.38,0,0,0-2.13,5.37v5.1A7.41,7.41,0,0,0,871,68.52h19.09a13.39,13.39,0,0,0,4.21-.67l.38-.13A10.12,10.12,0,0,0,900.87,56h0A10.14,10.14,0,0,0,891,48.24H871.4Z" fill="#fff"/><path d="M985.53,43.57h3.08a4.37,4.37,0,0,1,4.32,3.68,4.57,4.57,0,0,1-3.06,5.43,3.91,3.91,0,0,1-1.23.2h-3.47a.71.71,0,0,0-.62.37h8c.33,0,.5,0,.49.46v3.21c0,.39-.12.54-.52.54H979.3c-.34,0-.43-.11-.42-.43,0-1.17-.06-2.33,0-3.49A4.43,4.43,0,0,1,982,49.15a5.21,5.21,0,0,1,1.41-.19h3.42c.79,0,1-.16,1-.64s-.35-.65-1-.65h-6.22c-.41,0-.55-.11-.53-.55V44.27c0-.48.17-.7.67-.7h4.82m-4.18,3.3h4.84a7.5,7.5,0,0,1,1.34.11,1.41,1.41,0,0,1-.19,2.8h-3.32a9.93,9.93,0,0,0-1.88.21,3.58,3.58,0,0,0-2.4,2.65,20,20,0,0,0-.24,3.45c0,.51.12.7.64.7h11.61c.25,0,.33-.16.32-.46h0a15.88,15.88,0,0,1,0-1.69c0-.41-.08-.56-.5-.56h-8c-.33,0-.43-.13-.41-.48a1.79,1.79,0,0,1,1.74-1.51h4.25l.27-.07a3.79,3.79,0,0,0,2.59-4.69,3.56,3.56,0,0,0-2.72-2.71,5.6,5.6,0,0,0-1.47-.2h-6.31c-.48,0-.74.13-.68.68a6.22,6.22,0,0,1,0,1.22c0,.42.07.56.49.56m4.18-10.3h-4.86a7.52,7.52,0,0,0-7.7,7.33,4.17,4.17,0,0,0,0,.5v2.45a9.52,9.52,0,0,0,.07,1.41,11.31,11.31,0,0,0-1.22,5.11v3.55a7.31,7.31,0,0,0,7.07,7.53h13.49a7.39,7.39,0,0,0,7.55-7.23h0a3.38,3.38,0,0,0,0-.45V53.92a7.62,7.62,0,0,0-.34-2.55A11.75,11.75,0,0,0,991.31,37a12,12,0,0,0-2.67-.39h-3.1Z" fill="#fff"/><path d="M859.83,59.53A4.94,4.94,0,0,1,862,60h0a3.13,3.13,0,0,1,1.64,3.33,3.18,3.18,0,0,1-2.8,2.83,2.19,2.19,0,0,1-.77.14h-.2c-2.11-.09-3.3-.9-3.82-2.46a3.43,3.43,0,0,1,2.4-4.2h0a3.6,3.6,0,0,1,.8-.12h.52m.1,5.06h.62a1.38,1.38,0,0,0,1.32-1h0a1.55,1.55,0,0,0-.28-1.7,1.61,1.61,0,0,0-1.26-.44h-1.38a1.52,1.52,0,0,0-1.39,1.46,1.72,1.72,0,0,0,1,1.56,5.92,5.92,0,0,0,1.32.14m-.1-12.06h-1a10.43,10.43,0,0,0-9.84,10.73,10.79,10.79,0,0,0,.36,2.4,1.51,1.51,0,0,0,.13.41c1.46,4.34,5.11,7,10,7.2h.64a9.46,9.46,0,0,0,2.37-.31,10.27,10.27,0,0,0,8.14-8.7,10.06,10.06,0,0,0-5.45-10.54H865a12.06,12.06,0,0,0-5.28-1.22Z" fill="#fff"/><path d="M835.52,55.24h6.93a6.62,6.62,0,0,1,4,1.62,7.09,7.09,0,0,1,2.69,6.61,7.3,7.3,0,0,1-4.93,6.27,4.44,4.44,0,0,1-1.53.27H827c-.41,0-.57-.08-.57-.56V55.77c0-.47.13-.57.57-.57h8.52M830.39,57h-1.71c-.41,0-.52.11-.52.51V67.89c0,.5.18.56.6.56h14.38a5.74,5.74,0,0,0,4.33-6.84,5.19,5.19,0,0,0-5.12-4.6h-12m5.13-8.75H827a7.41,7.41,0,0,0-7.6,7.19v14a7.6,7.6,0,0,0,2.16,5.42A7.46,7.46,0,0,0,827,77h15.72a11.36,11.36,0,0,0,3.92-.69,14.32,14.32,0,0,0,9.53-12.07,14.11,14.11,0,0,0-5.19-12.8,13.69,13.69,0,0,0-8.07-3.21h-7.39Z" fill="#fff"/><path d="M865.61,50.58h26.68a7.89,7.89,0,0,1,7.6,6.09,7.49,7.49,0,0,1-.52,4.91,6.33,6.33,0,0,1-1.06,1.81h0a.49.49,0,0,0,0,.69h0A9.52,9.52,0,0,1,900,68.26h0a9.26,9.26,0,0,1,.12,1.49V74c0,.35-.06.5-.46.5h-6.79c-.37,0-.46-.12-.46-.49V69a2.64,2.64,0,0,0-2.22-2.51,10.41,10.41,0,0,0-1.48-.1H873.3c-.46,0-.61.09-.6.59v6.88c0,.48-.14.59-.59.59h-6.59c-.4,0-.5-.12-.5-.52V51.11c0-.49.17-.55.6-.55m1.67,22.28h3.11c.37,0,.47-.12.47-.52v-7c0-.5.09-.68.64-.68h18a5.93,5.93,0,0,1,2,.35,4.32,4.32,0,0,1,2.65,3.69v3.67c0,.33.06.47.4.47h3.21c.34,0,.41-.14.4-.47V68.74a5.81,5.81,0,0,0-.71-2.73,6.53,6.53,0,0,0-1.31-1.86c-.44-.46-.26-.68.09-1a6.23,6.23,0,0,0-4-10.82H867.4c-.61,0-.76.2-.71.77s0,1.13,0,1.69V72.27c0,.46.11.6.52.6m-1.66-29.28h0a7.42,7.42,0,0,0-7.6,7.22V74a7.37,7.37,0,0,0,7.19,7.53h6.94a7.4,7.4,0,0,0,7.6-7.2v0a4,4,0,0,0,0-.49v-.38h5.69v.48a7.54,7.54,0,0,0,2.13,5.4,7.46,7.46,0,0,0,5.33,2.17h6.85a7.35,7.35,0,0,0,7.46-7.24h0V69.71a18.26,18.26,0,0,0-.2-2.45,15.87,15.87,0,0,0-.88-3.38,14.6,14.6,0,0,0,.7-8.76A14.86,14.86,0,0,0,892.42,43.6H865.55Z" fill="#fff"/><path d="M912.43,50.69h16.49a10.85,10.85,0,0,1,4.51,1.13,10.65,10.65,0,0,1,3.37,2.42A12,12,0,0,1,940,60.63a11.59,11.59,0,0,1-.84,6.7,11.41,11.41,0,0,1-3.77,4.73,11.83,11.83,0,0,1-4.45,2.09,10,10,0,0,1-2.32.31h-16a11.9,11.9,0,0,1-1.91-23.65,13.31,13.31,0,0,1,1.78-.12m3,1.64h-2.88a10.83,10.83,0,0,0-2.33.28,9.58,9.58,0,0,0-5.69,3.68,10.13,10.13,0,0,0-1.42,10,10,10,0,0,0,9.34,6.49h15.67a13.1,13.1,0,0,0,2.93-.33,9.5,9.5,0,0,0,3.84-2,9.82,9.82,0,0,0,3.38-5.77,10.36,10.36,0,0,0-.69-6.33,9.92,9.92,0,0,0-2.72-3.57A9.1,9.1,0,0,0,929,52.43H915.47m-3-8.64a19.27,19.27,0,0,0-2.73.19h-.22a18.89,18.89,0,0,0,3.16,37.52h16a16.42,16.42,0,0,0,3.89-.52,18.95,18.95,0,0,0,9.29-31.51,17.66,17.66,0,0,0-5.45-3.93,17.87,17.87,0,0,0-7.32-1.8H912.43Zm3,15.64h13.38a2.12,2.12,0,0,1,1.36.55l.21.19a2.81,2.81,0,0,1,.81,1.06,3.21,3.21,0,0,1,.21,2.05v.1a3,3,0,0,1-1,1.71l-.07.06a2.34,2.34,0,0,1-1,.52,6.55,6.55,0,0,1-1.25.13H912.47a3,3,0,0,1-2.79-2l-.06-.15a3.12,3.12,0,0,1,.44-3.07.57.57,0,0,0,.11-.16,2.64,2.64,0,0,1,1.53-1h.18a2.8,2.8,0,0,1,.7-.09Z" fill="#fff"/><path d="M949.32,50.59h21a7.32,7.32,0,0,1,4.87,1.84,7.48,7.48,0,0,1,2.76,6V73.76c0,.46-.1.61-.56.61h-6.52c-.48,0-.55-.17-.55-.63V59.65a2.7,2.7,0,0,0-2.47-2.82c-1.35-.08-2.7,0-4-.08h-.17c-.35,0-.31.24-.31.48V73.89c0,.43-.07.59-.53.59h-6.23c-.44,0-.54-.14-.54-.58V57.41c0-.48-.09-.67-.56-.67h-3.19a4.51,4.51,0,0,0-1.58.29,2.51,2.51,0,0,0-1.52,2.47V73.72c0,.5-.13.62-.59.62H942c-.36,0-.48-.1-.47-.48V57.61a6.68,6.68,0,0,1,1.76-4.24,7.53,7.53,0,0,1,3.79-2.49,8.35,8.35,0,0,1,2.27-.32m6.12,1.75h-5.77a9.39,9.39,0,0,0-2.41.32,5.65,5.65,0,0,0-4,5c-.06,4.87,0,9.75,0,14.62,0,.34.12.42.42.42h3.24c.44,0,.54-.17.54-.64V59.62a4.77,4.77,0,0,1,.68-2.5,4.38,4.38,0,0,1,3.71-2.06h5.36c.5,0,.64.15.63.69V72.18c0,.44.07.62.5.62h2.82c.45,0,.55-.2.55-.68V55.63c0-.44.11-.58.54-.58h5.4a4.63,4.63,0,0,1,2.38.68,4.31,4.31,0,0,1,2.06,3.81V72.13c0,.38.08.52.46.52h3.17c.42,0,.49-.18.49-.6V58a5.23,5.23,0,0,0-.73-2.83,5.78,5.78,0,0,0-5-2.93h-15m-6.12-8.75h0a15.31,15.31,0,0,0-4.19.59A14.48,14.48,0,0,0,938,48.73a13.74,13.74,0,0,0-3.46,8.48V73.82a7.34,7.34,0,0,0,7.16,7.5h7a8,8,0,0,1,8,.13H963A7.54,7.54,0,0,0,967,80.32a7.64,7.64,0,0,0,3.88,1h6.6A7.42,7.42,0,0,0,985,74V58.46a14.79,14.79,0,0,0-14.63-14.93H949.29Z" fill="#fff"/><path d="M798.11,50.69h20.12c.49,0,.67.08.65.62v5.13c0,.47-.13.57-.57.57H797.38a5.4,5.4,0,0,0-3.52,1.49A5.47,5.47,0,0,0,792,62.37a5.32,5.32,0,0,0,1.15,3.8,5.73,5.73,0,0,0,4.55,2.26h20.54c.54,0,.65.16.64.67V74c0,.41-.11.52-.52.52H796.05a11.3,11.3,0,0,1-7.59-2.94,10.91,10.91,0,0,1-3.69-6.46,12,12,0,0,1,1.08-7.81,12.4,12.4,0,0,1,3.83-4.49,10.83,10.83,0,0,1,4.68-1.89,28,28,0,0,1,3.77-.25m-1.83,1.77h-.23a7.92,7.92,0,0,0-1.61.16,8.34,8.34,0,0,0-.83.2,10.31,10.31,0,0,0-7,12.75,9.23,9.23,0,0,0,3,4.88A9.68,9.68,0,0,0,796,72.84h20.52c.49,0,.62-.15.58-.62a10.29,10.29,0,0,1,0-1.57c0-.52-.12-.63-.62-.63H797.2a6.46,6.46,0,0,1-1.07-.1,6.71,6.71,0,0,1-4.24-2.64,7.27,7.27,0,0,1-1-7.29,7.43,7.43,0,0,1,6.67-4.66h19c.54,0,.68-.16.64-.68h0a11,11,0,0,1,0-1.62c0-.52-.12-.64-.63-.64H796.3m1.83-8.77a36.77,36.77,0,0,0-4.68.3h-.14A18.13,18.13,0,0,0,785.62,47a19.48,19.48,0,0,0-6,7,19.05,19.05,0,0,0-1.72,12.26,18,18,0,0,0,6,10.44,18.29,18.29,0,0,0,12.19,4.68h22.3a7.34,7.34,0,0,0,7.55-7.14V69.16a7.54,7.54,0,0,0-2.13-5.59,7.37,7.37,0,0,0-1.09-.92,7.39,7.39,0,0,0,3.22-6.37V51.41a7.43,7.43,0,0,0-7.06-7.78h0a5.42,5.42,0,0,0-.57,0H798.13Z" fill="#fff"/><path d="M914.4,55.23h12.4a7.3,7.3,0,0,1,6.29,3.61,6.8,6.8,0,0,1,1,4.59,7.33,7.33,0,0,1-6.3,6.5,15.23,15.23,0,0,1-1.92.12H914.24a7.5,7.5,0,0,1-5.56-2.47,7.39,7.39,0,0,1,.56-10.44h0a7.51,7.51,0,0,1,1.55-1.07,8.42,8.42,0,0,1,3.62-.83m.1,13.19h12.06a6.23,6.23,0,0,0,4.06-1.5h0a5.51,5.51,0,0,0,1.81-5.6,5.67,5.67,0,0,0-5.39-4.43H913.45A5,5,0,0,0,909.56,59a5.76,5.76,0,0,0,1.34,8.43,6.84,6.84,0,0,0,3.6,1m-.1-20.19h0a15.68,15.68,0,0,0-6.66,1.52h-.06a14.41,14.41,0,0,0-6.31,19.38h0A14.39,14.39,0,0,0,914.24,77h11.59a23.27,23.27,0,0,0,2.77-.17h.08A14.31,14.31,0,0,0,941,64.26,13.85,13.85,0,0,0,939,55.2a14.32,14.32,0,0,0-12.28-7H914.4Z" fill="#fff"/><path d="M593.41,80.52a1.06,1.06,0,0,1-.42-.09c-13.84-6.73-21-14.56-20.68-22.66.27-6.67,5.71-13,15.74-18.21,9.53-5,23-8.92,38.85-11.42a1,1,0,0,1,.89,1.1h0a1,1,0,0,1-.59.81c-32.19,5.06-52.47,15.71-53,27.8C574,65,580.92,72.41,593.83,78.68a1,1,0,0,1,.31,1.38h0a1,1,0,0,1-.73.46Z"/><path d="M714.1,30.77h-.16a280.59,280.59,0,0,0-32.08-3.34,1,1,0,0,1-.44-1.95.92.92,0,0,1,.52,0h0a284.43,284.43,0,0,1,32.3,3.35,1,1,0,0,1,.61,1.28,1,1,0,0,1-.8.65Z"/><path d="M683.54,96.26h-.81c.27,0,.54-.57.81-.57,52,0,92.94-13.79,93.48-31.14.19-6.07-4.69-12.38-14.11-18S740.08,36.22,724,32.82a1,1,0,1,1,.4-2c16.26,3.44,29.91,8.26,39.47,13.92,10.07,6,15.28,12.72,15.06,19.54-.28,9.28-10.48,17.29-28.71,23.33C732.68,93.45,709,96.26,683.54,96.26Z"/><polygon points="701.12 46.52 726.75 26.99 696.65 39.01 688.19 30.21 690.89 42.4 665.26 61.94 695.36 49.92 703.82 58.73 701.12 46.52"/><path d="M669,70.92c.36-1.82,1-1.55,2.87-1.84l1.71-.27-.53,2.84-1.71.27C669.53,72.22,668.73,72.7,669,70.92Zm-3.7-2.61L664,75.45c-.36,2,.23,2.59,2.1,2.29L677,76l2.33-12.53L668.43,65.2A3.27,3.27,0,0,0,665.33,68.31Zm69-11.28-.13.69,11.22-1.79a2.53,2.53,0,0,0,1.92-2c.18-1-.39-1.64-1.27-1.5l-2.88.46-4.6.73-1.16.18a4.37,4.37,0,0,0-3.1,3.21ZM655.68,89.35l.09-.5a6.24,6.24,0,0,0,1.36.11l11.65-1.83c-.43,2.33-3.5,2.91-8.19,3.65l-5.33.84L652.37,107l7-1.11c17.27-1.71,23.83-10.62,25.94-21.26l21-3.33,3.37-18.24,1.7-.27c1.88-.3,1.6-.63,1.24,1.31l-3.1,16.68,15.16-2.39.2-1.1a7,7,0,0,0,3.89.45l26.1-4.14,2.44-13.11-1.69-1.21a13.3,13.3,0,0,0,2.94-5.64l.41-2.06c1.3-7.73-5.83-9.79-9.08-9.27l-15,2.38a13.87,13.87,0,0,0-7.7,4.72A8.74,8.74,0,0,0,720.44,47l-16.68,2.64,1.92,4.12,15-2.39c2.16-.34,3.61.52,4,2.24-.16.45-4,21-4,21l-5.4.86,2.89-15.55c.36-2-.23-2.58-2.11-2.28L705.73,59.3l-3.39,18.23-5.93.94,3.88-20.87-4.88-5.76-17.58,6.35,8.33-1.32h.14L681,85.36c-1.34,7.24-9.07,14.15-15.92,15.24l-7,1.11,1.06-5.7,5.33-.85c4.69-.74,10-5.44,10.87-10.34l.58-3.09L662,83.93c-3,.48-4.59-1.33-4-4.48L660.52,66a7.59,7.59,0,0,1,3.91-5.38v-.36l7-5.36-4.06.68a15.22,15.22,0,0,0-8.69,5.25,8.73,8.73,0,0,0-7.2-2.9l-15,2.38,2.44-13.11,10.92-1.73c5.81-.93,12.24-7.46,13.38-13.6L664.84,23c1.15-6.14-3.17-11-9-10L632,16.8,626.9,44.15l-22,3.49a5.37,5.37,0,0,0-4,4.09l-8.22,44.15c-.36,2,.85,3.32,2.71,3l41.92-6.65L640.68,74l1.71-.27c1.87-.3,1.59-.64,1.23,1.31l-3.1,16.68Zm-31.11-10-14,2.23.53-2.84,11.32-1.8,2.76-14.82-11.33,1.8.53-2.85,14-2.22Zm-.89,4.56-1.17,6.27-24.83,3.93,7.73-41.6,20.49-3.25-1,5.7-14.56,2.31-2.23,12L620,67.39,618.92,73l-11.86,1.88-2.24,12Zm28.49,1.56-5.93.94,2.89-15.54c.36-2-.22-2.58-2.11-2.28l-10.34,1.64-3.39,18.24-5.93.94,4.44-23.93H632l19.73-3.15c3-.47,4.58,1.33,4,4.48Zm38.51-29.34,5.8-.92L692,79.15l-5.93.93,4.45-23.93Zm36,11.28,2.06-11.07a10.38,10.38,0,0,1,7.62-7.45l13.87-2.2c2.34-.37,4,2.24,3.48,4.79L753.07,55a7.66,7.66,0,0,1-5.39,5.67L733.25,63l-.2,1.29a1.87,1.87,0,0,0,1.2,2.34h0a2,2,0,0,0,.84.06l16.08-2.56L750.1,70,732,72.89a4.44,4.44,0,0,1-5.26-3.4h0A4.57,4.57,0,0,1,726.68,67.41Zm-85.81-31,2-10.82,7.55-1.21c1-.15,1.5.41,1.3,1.46l-1.37,7.41a2.37,2.37,0,0,1-1.94,2Z"/><path d="M689.16,41.45l-1.6-6.35-.91.11-.29,1.56a2.59,2.59,0,0,1-2.09,2.13l-6.2,1c-1,.16-1.62-.49-1.41-1.58l3.13-16.8a2.64,2.64,0,0,1,2.09-2.14l6.2-1c1-.17,1.61.49,1.41,1.57l-.4,2.14,12.54-2,.48-2.56c1.2-6.47-3.2-11.38-9.32-10.42l-12,1.9c-6.11,1-12.67,7.62-13.87,14.09l-3.33,18c-1.2,6.47,3.19,11.39,9.31,10.41l4-.63Z"/><path d="M698.05,37.62a10,10,0,0,0,.72-2.12l.43-2.28-5,.79Z"/><path d="M975.19,52.43a7.29,7.29,0,0,0-5-1.84H949.43a8,8,0,0,0-2.38.32,7.53,7.53,0,0,0-3.79,2.49,6.68,6.68,0,0,0-1.76,4.24c-.07,5.41,0,10.83,0,16.25,0,.39.11.48.48.48h6.59c.5,0,.64-.1.64-.62V59.53a2.5,2.5,0,0,1,1.47-2.47,4.52,4.52,0,0,1,1.74-.29h3c.54,0,.66.16.65.67V73.93c0,.45.1.59.57.58h6.23c.49,0,.56-.15.56-.59V57.24c0-.26,0-.5.37-.48,1.35.08,2.7,0,4,.08a2.7,2.7,0,0,1,2.47,2.82V73.75c0,.47.08.63.59.63h6.52c.5,0,.6-.14.6-.61V58.44A7.48,7.48,0,0,0,975.19,52.43Zm.49,20.31h-3.14c-.42,0-.51-.12-.51-.52V59.63A4.31,4.31,0,0,0,970,55.82a4.63,4.63,0,0,0-2.38-.68h-5.36c-.47,0-.58.13-.58.58V72.21c0,.51-.11.7-.66.67a22.9,22.9,0,0,0-2.62,0c-.51,0-.59-.15-.59-.62V55.83c0-.57-.14-.7-.69-.69H951.9a4.42,4.42,0,0,0-3.82,2.06,4.77,4.77,0,0,0-.68,2.5V72.11c0,.51-.11.66-.64.63h-3.14c-.32,0-.44-.07-.44-.42V57.7a5.65,5.65,0,0,1,4-5,9.54,9.54,0,0,1,2.55-.32h20.63a5.78,5.78,0,0,1,5,2.93,5.23,5.23,0,0,1,.73,2.83v14c0,.44-.07.61-.56.59Zm-157.45-22H799a29.62,29.62,0,0,0-4.61.24,10.89,10.89,0,0,0-4.66,1.9,12.43,12.43,0,0,0-3.81,4.43,12,12,0,0,0-1.08,7.81,10.91,10.91,0,0,0,3.69,6.46,11.3,11.3,0,0,0,7.59,2.94h22.31c.41,0,.52-.11.52-.52V69.06c0-.51-.1-.68-.65-.67H797.86a5.76,5.76,0,0,1-4.71-2.27,5.32,5.32,0,0,1-1.15-3.8,5.47,5.47,0,0,1,1.88-3.87,5.39,5.39,0,0,1,3.5-1.44H818.3c.44,0,.59-.1.58-.57V51.31C818.88,50.77,818.68,50.69,818.23,50.69Zm-1.1,4c0,.52-.1.68-.65.68H797.54A7.45,7.45,0,0,0,790.87,60a7.27,7.27,0,0,0,1,7.29,6.71,6.71,0,0,0,4.24,2.64,5.64,5.64,0,0,0,1.08.1h19.29c.5,0,.68.11.63.63a10.29,10.29,0,0,0,0,1.57c0,.48-.09.62-.59.62H796a9.67,9.67,0,0,1-6.29-2.41,9.27,9.27,0,0,1-3.12-4.88,10.3,10.3,0,0,1,7-12.75,8.34,8.34,0,0,1,.83-.2,7.64,7.64,0,0,1,1.84-.16h20.22c.51,0,.68.12.63.64a8.77,8.77,0,0,0,0,1.62ZM900,68.29a9.52,9.52,0,0,0-1.69-4.18.49.49,0,0,1,0-.69h0a6.33,6.33,0,0,0,1.06-1.81,7.49,7.49,0,0,0,.52-4.91,7.89,7.89,0,0,0-7.6-6.09H865.61c-.43,0-.6.06-.6.55V74c0,.41.11.52.51.52h6.59c.47,0,.62-.09.62-.59V67c0-.5.15-.59.62-.59h15.2a10.33,10.33,0,0,1,1.67.1A2.63,2.63,0,0,1,892.41,69v5c0,.37.09.49.48.49h6.79c.41,0,.47-.15.47-.5V69.8a9.26,9.26,0,0,0-.12-1.49Zm-2.17,4.56h-3.21c-.37,0-.45-.12-.44-.47V68.71a4.34,4.34,0,0,0-2.64-3.7,6.29,6.29,0,0,0-2.07-.35h-18c-.56,0-.66.16-.65.67v7c0,.42-.11.53-.52.52h-3c-.48,0-.61-.11-.61-.6V53.08c0-.56.1-.77.73-.77h24.83a6.23,6.23,0,0,1,4,10.82c-.35.34-.53.56-.09,1a6.59,6.59,0,0,1,1.4,1.88,5.81,5.81,0,0,1,.71,2.73v3.61c0,.34-.06.48-.44.47ZM850.41,52.93a10.47,10.47,0,0,0-6-2.2c-7.73-.06-15.46,0-23.18,0-.48,0-.62.11-.62.6v22.6c0,.49.13.6.6.6H844.4a6.52,6.52,0,0,0,1.25-.1,11.69,11.69,0,0,0,7.49-4.86,12.35,12.35,0,0,0,2.11-5.6,11.06,11.06,0,0,0-.64-5.46A11.48,11.48,0,0,0,850.41,52.93Zm2.27,14.13a12.5,12.5,0,0,1-1.58,2.43,8.91,8.91,0,0,1-2.69,2.19,8.34,8.34,0,0,1-3.89,1.15c-3.59,0-7.18,0-10.78,0h-11c-.43,0-.54-.11-.54-.55V53c0-.45.13-.54.55-.54h21.32a9.06,9.06,0,0,1,6,2.48,10.08,10.08,0,0,1,3,4.46,8.07,8.07,0,0,1,.49,2.33,10.73,10.73,0,0,1-.93,5.33Zm84.13-12.81a10.65,10.65,0,0,0-3.37-2.42,10.85,10.85,0,0,0-4.51-1.13H913.14a13.77,13.77,0,0,0-2.48.1A12.07,12.07,0,0,0,904.33,54a11.6,11.6,0,0,0-2.7,4,11.93,11.93,0,0,0,6.5,15.57,11.81,11.81,0,0,0,4.5.9h16a10,10,0,0,0,2.32-.31,11.83,11.83,0,0,0,4.45-2.09,11.41,11.41,0,0,0,3.77-4.73,11.59,11.59,0,0,0,.84-6.7,12,12,0,0,0-3.21-6.4Zm1.45,10.37a9.82,9.82,0,0,1-3.38,5.77,9.5,9.5,0,0,1-3.84,2,13.11,13.11,0,0,1-3.37.32H912.58a10,10,0,0,1-9.47-6.49,10.13,10.13,0,0,1,1.42-10,9.58,9.58,0,0,1,5.69-3.68,10.83,10.83,0,0,1,2.33-.28H929a9.1,9.1,0,0,1,5.87,2.35,9.92,9.92,0,0,1,2.72,3.57,10.36,10.36,0,0,1,.69,6.33ZM992.5,53.26h-7.94a.7.7,0,0,1,.77-.35h3.35a3.91,3.91,0,0,0,1.23-.2A4.57,4.57,0,0,0,993,47.28a4.41,4.41,0,0,0-4.47-3.68c-2.58-.08-5.16,0-7.74,0-.51,0-.69.21-.68.7v2.85c0,.45.12.55.55.55h6.23c.69,0,1,.22,1,.65s-.26.64-1,.64h-3.38a5.21,5.21,0,0,0-1.41.19A4.43,4.43,0,0,0,979,53.57c-.08,1.16,0,2.32,0,3.49,0,.32.08.43.42.43h13.16c.41,0,.54-.14.53-.54V53.74c0-.41-.16-.46-.51-.46Zm-.31,3.06c0,.36-.1.51-.46.45H980.26c-.56,0-.69-.18-.68-.7a20,20,0,0,1,.24-3.45,3.58,3.58,0,0,1,2.4-2.65,9.93,9.93,0,0,1,1.88-.21h3.32a1.41,1.41,0,0,0,.19-2.8,7.88,7.88,0,0,0-1.61-.11h-4.6c-.45,0-.57-.13-.53-.56a6.22,6.22,0,0,0,0-1.22c-.06-.55.21-.69.7-.68h6.29a5.6,5.6,0,0,1,1.47.2,3.56,3.56,0,0,1,2.72,2.71,3.77,3.77,0,0,1-2.54,4.7h0l-.27.07a1.85,1.85,0,0,1-.47,0H985a1.79,1.79,0,0,0-1.74,1.51c0,.37.09.5.48.48h8c.46,0,.57.13.54.56a15.88,15.88,0,0,0,0,1.69ZM862,60a4.94,4.94,0,0,0-2.73-.49A3.42,3.42,0,0,0,856,63a3.6,3.6,0,0,0,.12.8c.52,1.56,1.71,2.37,3.82,2.46a2.27,2.27,0,0,0,1-.13,3.18,3.18,0,0,0,2.8-2.83A3.12,3.12,0,0,0,862,60Zm-.17,3.53a1.38,1.38,0,0,1-1.32,1,6,6,0,0,1-1.94-.11,1.72,1.72,0,0,1-1-1.56A1.52,1.52,0,0,1,859,61.41h.81c.6,0,1.27-.14,1.83.44a1.55,1.55,0,0,1,.28,1.7Zm28.81-8.27H871.39c-.39,0-.48.13-.47.5V61c0,.46.13.58.58.57h18.3a6.53,6.53,0,0,0,2.37-.31A3.06,3.06,0,0,0,894,57.71,3.15,3.15,0,0,0,890.68,55.27Zm1.16,4.2a2.28,2.28,0,0,1-1.25.33H873.4c-.63,0-.79-.19-.74-.77a7.62,7.62,0,0,0,0-1.51c0-.45.12-.55.55-.54h18a1.31,1.31,0,0,1,.63,2.47ZM846.41,56.9a6.62,6.62,0,0,0-4-1.62c-5.14-.08-10.29,0-15.44,0-.44,0-.58.1-.58.57V69.54c0,.49.16.56.59.56h15.5a4.62,4.62,0,0,0,1.69-.28,7.3,7.3,0,0,0,4.93-6.27,7.1,7.1,0,0,0-2.65-6.65ZM843,68.41H828.75c-.42,0-.6-.06-.6-.56V57.48c0-.4.11-.51.52-.51H842a5.2,5.2,0,0,1,5.46,4.51,5.74,5.74,0,0,1-4.33,6.84Zm83.48-13.16H914.88a8.42,8.42,0,0,0-4.1.81,7.38,7.38,0,0,0-3.19,10l0,0a7.35,7.35,0,0,0,6.88,4h10.66a16.12,16.12,0,0,0,2.6-.11,7.33,7.33,0,0,0,6.3-6.5,6.8,6.8,0,0,0-1-4.59,7.27,7.27,0,0,0-6.62-3.6Zm4.15,11.66a6.23,6.23,0,0,1-4.27,1.5H914.76a6.83,6.83,0,0,1-3.86-1,5.63,5.63,0,0,1-2.53-3.87A5.57,5.57,0,0,1,909.56,59a5,5,0,0,1,3.91-2.08H927a5.67,5.67,0,0,1,5.39,4.43,5.51,5.51,0,0,1-1.81,5.6Z" fill="#0f0f0f" fill-rule="evenodd"/></g></g></svg>