<svg id="Layer_1" data-name="Layer 1" xmlns="http://www.w3.org/2000/svg" viewBox="0 0 1000 114"><title>logo_right</title><path d="M469.67,110.5A22.66,22.66,0,0,1,447,87.86V26.14A22.66,22.66,0,0,1,469.67,3.5H973.86A22.66,22.66,0,0,1,996.5,26.14V87.86a22.66,22.66,0,0,1-22.64,22.64Zm482.41-24L900,60.89l-11,4.48a3.52,3.52,0,0,1-1.31.26,3.61,3.61,0,0,1-1.47-.32l-19.53-9H853.28l59.57,30.19Zm-88.21-.21,10.42-5.76-9.85-3.83L838,86.31Zm-56.13-2.06V27.48H796.93V68.82a3.48,3.48,0,0,1-1.85,3.09,3.45,3.45,0,0,1-1.65.41,3.54,3.54,0,0,1-1.95-.59L725.7,27.48H708.44l83.33,56.77Zm-82.19,0V55.53L696,37.12V84.25Zm-107.31,0v-17a3.51,3.51,0,0,1,1.59-2.93L676.2,27.48H657L591.7,70.18a3.81,3.81,0,0,1-.7.35V84.25Zm-54.79,0V77.58H476.84v6.67ZM506.37,65.12V27.48H476.84V65.12Zm78-4.75,15.72-11.53L574.8,27.48h-32ZM935,58.13l-59.57-30.2H836.2l52.1,25.64,11-4.48a3.49,3.49,0,0,1,2.78.06l19.53,9ZM923.84,37.74l26.42-9.58H924.41L914,33.91Z"/><path d="M973.86,7A19.19,19.19,0,0,1,993,26.14V87.86A19.19,19.19,0,0,1,973.86,107H469.67a19.19,19.19,0,0,1-19.13-19.14V26.14A19.19,19.19,0,0,1,469.67,7H973.86M793.43,68.82,726.77,24H697.08l93.61,63.77h20.55V24H793.43V68.82M587.5,87.75h34.24V67.25L688,24H656L589.78,67.25H587.5v20.5m-3.19-23L605.76,49,576.08,24H532.7l51.61,40.79m-111,3.85h36.53V24H473.34V68.62M888.16,57.41l12.48-5.08,20.23,9.3h28.77l-73.37-37.2H821.16l67,33M923.8,41.48l46.39-16.82H923.51l-17.76,9.79,18,7M692.52,87.75h36.53V53.58L692.52,30.81V87.75M912,90h55.11l-67-33-12.48,5.08-20.23-9.3H838.64L912,90m-93.92-.22h46.69L882.53,80l-18-7L818.09,89.8m-344.75-2H567V74.08H473.34V87.75M973.86,0H469.67a26.16,26.16,0,0,0-26.13,26.14V87.86A26.17,26.17,0,0,0,469.67,114H973.86A26.17,26.17,0,0,0,1000,87.86V26.14A26.16,26.16,0,0,0,973.86,0ZM800.43,31h3.81V80.75H792.85L719.79,31h4.84l64.9,43.65a7,7,0,0,0,10.9-5.81V31ZM658.07,31h6.37L617.91,61.39a7,7,0,0,0-3.17,5.86v13.5H594.5V72.53L658.07,31ZM552.85,31h20.67l20.93,17.67-10,7.32L552.85,31Zm-72.51,0h22.53V61.62H480.34V31Zm370.9.45h23.35l27.92,14.16a7,7,0,0,0-1.87-.26,6.9,6.9,0,0,0-2.64.52l-9.56,3.89-37.2-18.31Zm74.07.23h5L923.88,34l-1.64-.64,3.07-1.7ZM699.52,80.75V43.42l22.53,14V80.75ZM887.64,69.13a6.86,6.86,0,0,0,2.64-.52l9.57-3.89L937,83H913.69L885.77,68.87a7,7,0,0,0,1.87.26ZM857.93,82.8l6.46-2.34,1.66.64L863,82.8Z" fill="#fff"/><path d="M818.09,93.31a3.5,3.5,0,0,1-1.19-6.8l46.39-16.82a3.48,3.48,0,0,1,2.46,0l18,7a3.5,3.5,0,0,1,.42,6.33l-17.75,9.8a3.59,3.59,0,0,1-1.7.44Z" fill="red"/><path d="M864.48,73l18,7-17.76,9.8H818.09L864.48,73m0-7a7,7,0,0,0-2.39.42L815.7,83.22a7,7,0,0,0,2.39,13.58h46.68a7,7,0,0,0,3.39-.87l17.75-9.8a7,7,0,0,0-.84-12.65l-18.05-7a7,7,0,0,0-2.54-.48Z" fill="#fff"/><path d="M920.87,65.13a3.49,3.49,0,0,1-1.46-.32l-18.86-8.66-11.07,4.5a3.53,3.53,0,0,1-1.32.26,3.48,3.48,0,0,1-1.54-.36l-67-33a3.51,3.51,0,0,1,1.55-6.65h55.11a3.47,3.47,0,0,1,1.58.38l73.38,37.2a3.5,3.5,0,0,1-1.59,6.62Z" fill="red"/><path d="M876.27,24.43l73.37,37.2H920.87l-20.23-9.3-12.48,5.08-67-33h55.11m0-7H821.16a7,7,0,0,0-3.09,13.29l67,33a7,7,0,0,0,3.09.72,6.9,6.9,0,0,0,2.64-.52L900.47,60,918,68a7,7,0,0,0,2.92.64h28.77a7,7,0,0,0,3.17-13.24l-73.38-37.2a6.94,6.94,0,0,0-3.16-.76Z" fill="#fff"/><path d="M912,93.52a3.59,3.59,0,0,1-1.58-.37L837.05,56a3.5,3.5,0,0,1,1.59-6.62h28.77a3.34,3.34,0,0,1,1.46.32l18.86,8.66,11.07-4.5a3.53,3.53,0,0,1,1.32-.26,3.45,3.45,0,0,1,1.54.36l67,33a3.5,3.5,0,0,1-1.55,6.64Z" fill="#fc0"/><path d="M867.41,52.83l20.23,9.3,12.48-5.08,67,33H912L838.64,52.83h28.77m0-7H838.64a7,7,0,0,0-3.17,13.24l73.38,37.2A7.06,7.06,0,0,0,912,97h55.11a7,7,0,0,0,3.09-13.28l-67-33a7,7,0,0,0-5.73-.2l-9.67,3.93-17.48-8a6.83,6.83,0,0,0-2.92-.64Z" fill="#fff"/><path d="M587.5,91.25a3.5,3.5,0,0,1-3.5-3.5V67.25a3.5,3.5,0,0,1,3.5-3.5h1.24l65.33-42.7a3.54,3.54,0,0,1,1.92-.57h32a3.5,3.5,0,0,1,1.92,6.43L625.24,69.14V87.75a3.5,3.5,0,0,1-3.5,3.5Z" fill="#fc0"/><path d="M688,24h0m0,0L621.74,67.25v20.5H587.5V67.25h2.28L656,24h32m0-7H656a7,7,0,0,0-3.83,1.14L587.7,60.25h-.2a7,7,0,0,0-7,7v20.5a7,7,0,0,0,7,7h34.24a7,7,0,0,0,7-7V71l62.93-41.12A7,7,0,0,0,688,17Zm0,14h0Z" fill="#fff"/><path d="M584.31,68.27a3.49,3.49,0,0,1-2.17-.75L530.53,26.73a3.5,3.5,0,0,1,2.17-6.25h43.38a3.52,3.52,0,0,1,2.26.83L608,46.36a3.49,3.49,0,0,1-.19,5.49L586.38,67.59A3.51,3.51,0,0,1,584.31,68.27Z" fill="#fc0"/><path d="M576.08,24,605.76,49,584.31,64.77,532.7,24h43.38m0-7H532.7a7,7,0,0,0-4.34,12.5L580,70.26a7,7,0,0,0,8.48.15L609.9,54.67a7,7,0,0,0,.38-11l-29.68-25A7,7,0,0,0,576.08,17Z" fill="#fff"/><path d="M923.8,45a3.41,3.41,0,0,1-1.27-.24l-18-7a3.5,3.5,0,0,1-.42-6.33l17.76-9.79a3.44,3.44,0,0,1,1.69-.44h46.68A3.5,3.5,0,0,1,971.38,28L925,44.77A3.51,3.51,0,0,1,923.8,45Z" fill="#fc0"/><path d="M970.19,24.66h0m0,0L923.8,41.48l-18-7,17.76-9.79h46.68m0-7H923.51a7,7,0,0,0-3.38.87l-17.76,9.8A7,7,0,0,0,903.22,41l18,7a6.9,6.9,0,0,0,2.54.48,7,7,0,0,0,2.38-.42L972.42,31.3a6.69,6.69,0,0,0,2-1.06,4.74,4.74,0,0,0,.49-.4,7,7,0,0,0-4.7-12.18Zm0,14h0Z" fill="#fff"/><path d="M790.69,91.25a3.47,3.47,0,0,1-2-.61L695.11,26.88a3.51,3.51,0,0,1,2-6.4h29.69a3.5,3.5,0,0,1,2,.6l61.21,41.17V24a3.5,3.5,0,0,1,3.5-3.5h17.81a3.5,3.5,0,0,1,3.5,3.5V87.75a3.5,3.5,0,0,1-3.5,3.5Z" fill="#fc0"/><path d="M811.24,24V87.75H790.69L697.08,24h29.69l66.66,44.84V24h17.81m0-7H793.43a7,7,0,0,0-7,7v31.7L730.68,18.17A7.08,7.08,0,0,0,726.77,17H697.08a7,7,0,0,0-3.94,12.79l93.61,63.77a7,7,0,0,0,3.94,1.21h20.55a7,7,0,0,0,7-7V24a7,7,0,0,0-7-7Z" fill="#fff"/><path d="M692.52,91.25a3.5,3.5,0,0,1-3.5-3.5V30.81a3.51,3.51,0,0,1,1.8-3.06,3.56,3.56,0,0,1,1.7-.44,3.48,3.48,0,0,1,1.85.53L730.9,50.61a3.5,3.5,0,0,1,1.65,3V87.75a3.5,3.5,0,0,1-3.5,3.5Z" fill="#fc0"/><path d="M692.52,30.81l36.53,22.78V87.75H692.52V30.81m0-7a7,7,0,0,0-7,7V87.75a7,7,0,0,0,7,7h36.53a7,7,0,0,0,7-7V53.59a7,7,0,0,0-3.3-6L696.23,24.87a7.08,7.08,0,0,0-3.71-1.06Z" fill="#fff"/><rect x="469.84" y="70.58" width="100.6" height="20.67" rx="3.5" fill="#fc0"/><path d="M567,74.08V87.75H473.34V74.08H567m0-7H473.34a7,7,0,0,0-7,7V87.75a7,7,0,0,0,7,7H567a7,7,0,0,0,7-7V74.08a7,7,0,0,0-7-7Z" fill="#fff"/><rect x="469.84" y="20.48" width="43.53" height="51.64" rx="3.5" fill="#fc0"/><path d="M509.87,24V68.62H473.34V24h36.53m0-7H473.34a7,7,0,0,0-7,7V68.62a7,7,0,0,0,7,7h36.53a7,7,0,0,0,7-7V24a7,7,0,0,0-7-7Z" fill="#fff"/><path d="M993,87.86A19.19,19.19,0,0,1,973.86,107H469.67a19.19,19.19,0,0,1-19.13-19.14V26.14A19.19,19.19,0,0,1,469.67,7H973.86A19.19,19.19,0,0,1,993,26.14Z"/><path d="M864.48,73,818.09,89.8h46.68L882.53,80M821.16,24.43h55.11l73.37,37.2H920.87l-20.23-9.3-12.48,5.08" fill="red"/><path d="M923.8,41.48l46.39-16.82H923.51l-17.76,9.79M967.12,90H912L838.64,52.83h28.77l20.23,9.3,12.48-5.08M473.34,24h36.53V68.62H473.34Zm0,50.1H567V87.75H473.34ZM532.7,24h43.38L605.76,49,584.31,64.77m3.19,2.48v20.5h34.24V67.25L688,24H656L589.78,67.25M692.52,30.81l36.53,22.78V87.75H692.52M697.08,24l93.61,63.77h20.55V24H793.43V68.82L726.77,24" fill="#fc0"/></svg>