<svg id="Capa_1" data-name="Capa 1" xmlns="http://www.w3.org/2000/svg" viewBox="0 0 261.87866 150.05909"><title>controller</title><path d="M42.24785,13.582C56.77265-4.35495,87.481-.06328,92.61622,1.99374,84.57994-.25543,76.99983.5543,73.02542.67958,60.44854,1.076,50.16874,6.97709,42.24611,13.57986" transform="translate(0 0)" fill="#004690"/><path d="M92.61622,1.99374C84.57994-.25543,76.99983.5543,73.02542.67958,60.44854,1.076,50.16874,6.97709,42.24611,13.57986c-6.67776,5.5653-11.6809,11.62906-14.97345,15.31517C-2.35335,62.06227-.45322,107.24763.356,118.81172c2.41667,17.75,17.41667,28.25,27.58334,30.58333,28.966,6.64793,44-38.811,103-38.811s74.034,45.45889,103,38.811c10.16667-2.33333,25.16667-12.83333,27.58333-30.58333.80921-11.56409,2.70934-56.74945-26.91667-89.91669-7.1989-8.05938-22.57518-27.485-45.75276-28.21545-4.01392-.12653-11.70557-.95117-19.83057,1.38214-21.6195,6.20868-38.08334,5.75-38.08334,5.75s-16.46384.45868-38.08335-5.75Q92.736,2.02728,92.61622,1.99374Z" transform="translate(0 0)" fill="#535354"/><path d="M65.07458,134.66616c-20.38089-3.11164-41.55751-7.661-53.46857-26.43777-16.42074-25.8858.80013-55.88208,1.58968-57.168,15.07246-27.8422,44.96848-38.578,117.74364-38.60515,72.77516.02712,102.67118,10.76295,117.74364,38.60515.78955,1.28588,18.01041,31.28216,1.58968,57.168-11.91107,18.77672-33.08769,23.32613-53.46857,26.43777-15.25978-11.08-34.2383-24.08207-65.79183-24.08207h-.07292c-31.55354,0-50.605,13.002-65.86475,24.08207" transform="translate(0 0)" fill="#595959"/><path d="M158.16849,38.70754l-1.85415-8.277c-.77085-4.02961-3.02813-7.03547-6.72917-7.03547H112.43933c-3.701,0-5.95832,3.00586-6.72917,7.03547l-1.85416,8.277,1.85415-7.91666c.77085-3.85417,3.02813-6.72917,6.72917-6.72917h37.14584c3.701,0,5.95832,2.875,6.72917,6.72917Z" transform="translate(0 0)" fill="#454545"/><ellipse cx="203.50553" cy="74.18745" rx="39.96816" ry="44.62254" transform="translate(-8.54593 118.37407) rotate(-31.79988)" fill="#5e5e5e"/><path d="M133.72655,38.20382a1.60321,1.60321,0,0,1-1.60158-1.60158v-5.082a1.59807,1.59807,0,0,1,1.5968-1.59675h5.25891V28.32185h-5.27086a3.19672,3.19672,0,0,0-3.19838,3.19837v5.082a3.20692,3.20692,0,0,0,3.21033,3.19837l5.25891.00478v-7.5298h-4.52027v1.5968h2.92108v4.33143h-3.65494" transform="translate(0 0)" fill="#44474f"/><path d="M111.68933,39.815l5.08919-.00478a3.7673,3.7673,0,0,0,0-7.53459l-1.3219.00478-.18884-.19123.18884-.19123h5.07724l.00239-1.592h-5.07963a1.78086,1.78086,0,1,0,0,3.56172l1.32668.01434a2.15855,2.15855,0,0,1,0,4.31709h-5.09158l-.00239,1.61592" transform="translate(0 0)" fill="#44474f"/><path d="M111.69172,37.82135h5.09158a1.78086,1.78086,0,1,0,0-3.56171l-1.32668-.01435a2.15854,2.15854,0,1,1,0-4.31708h5.07963l-.00239-1.60636h-5.07724a3.76729,3.76729,0,0,0,0,7.53458h1.31473l.18406.1865-.18406.18163-5.082.00478.00239,1.592" transform="translate(0 0)" fill="#44474f"/><path d="M124.49,38.2086a1.60015,1.60015,0,0,1-1.604-1.60636V31.50588a1.60131,1.60131,0,0,1,1.604-1.58241h5.431V28.32185H124.49a3.19671,3.19671,0,0,0-3.19837,3.19837v5.082A3.19671,3.19671,0,0,0,124.49,39.80061l5.40712.00478V38.20382L124.49,38.2086" transform="translate(0 0)" fill="#44474f"/><path d="M123.27327,31.52022A1.21606,1.21606,0,0,1,124.49,30.30111h5.431v1.5968h-4.68043l-.37768.37768h3.90115v1.5968h-5.49317l.00239-2.35217" transform="translate(0 0)" fill="#44474f"/><path d="M124.49,37.82135a1.21758,1.21758,0,0,1-1.21672-1.21911l-.00239-2.35217h5.49317v1.60158H124.8629l.37768.37291h4.65653v1.59679H124.49" transform="translate(0 0)" fill="#44474f"/><path d="M132.50266,36.60224a1.22627,1.22627,0,0,0,1.21911,1.22867h3.28443V34.24529h-2.541v1.60636h.94182l.00478.37291h-.93943l-.3753-.37291-.00478-3.58084.37769-.37768h4.51549l-.00478-1.5968-5.25891.00478a1.21809,1.21809,0,0,0-1.21911,1.21911v5.082" transform="translate(0 0)" fill="#44474f"/><polyline points="143.922 30.272 144.414 29.923 144.907 30.277 147.457 37.84 143.721 37.84 143.723 36.062 144.973 36.062 144.409 34.384 142.581 39.801 140.692 39.801 143.922 30.272" fill="#44474f"/><path d="M147.97342,38.20382h-4.24777v1.59679h6.46368L146.82841,29.823a2.575,2.575,0,0,0-4.831,0l-3.392,9.97758h1.69242l3.28921-9.70029.8223-.545.81991.545,2.7442,8.1035" transform="translate(0 0)" fill="#44474f"/><circle cx="169.99244" cy="65.74158" r="9.9783" fill="#3d6295"/><path d="M173.79889,64.76814l-1.6413.32066c-.65535.146-1.07134.23258-1.48109.30029l-.02585.02166c-.11253.36993-.23488.72737-.486,1.35508l-.54144,1.50122-1.305,1.09346,1.50015-3.6704-3.74372.78055,1.31788-1.1043,1.71167-.31621c.47967-.09007.84606-.157,1.20647-.20411l.03877-.03249c.109-.3741.22266-.68866.39917-1.1413l.65-1.66273,1.305-1.09347-1.53247,3.6056,3.94557-.8578Z" transform="translate(0 0)" fill="#344868"/><path d="M124.36461,79.03235h-2.69013v.87112h1.96666a.80614.80614,0,0,1,.56992.15355.82739.82739,0,0,1,.15355.58173v.3514a.84575.84575,0,0,1-.1506.58469.8049.8049,0,0,1-.57287.15355h-2.43322v-.43408h2.68717v-.939h-1.96075a.80733.80733,0,0,1-.57582-.15482.847.847,0,0,1-.1506-.58341v-.27167a.847.847,0,0,1,.1506-.58342.80733.80733,0,0,1,.57582-.15482h2.43027Z" transform="translate(0 0)" fill="#767677"/><path d="M127.15218,79.03235v2.696h-.51971v-2.696H125.2062v-.42522h3.37816v.42522Z" transform="translate(0 0)" fill="#767677"/><path d="M128.41309,81.72839l1.70384-3.12126h.55811l1.73338,3.12126h-.57287l-.39865-.76777h-2.11135l-.39865.76777Zm1.131-1.16641h1.68023l-.84159-1.59754Z" transform="translate(0 0)" fill="#767677"/><path d="M133.41832,81.72839V78.60713h2.5159a.73393.73393,0,0,1,.50622.143.60258.60258,0,0,1,.15524.46234v.6969a.5968.5968,0,0,1-.15524.459.73173.73173,0,0,1-.50622.14343h-.4577l1.42627,1.21661h-.77367l-1.26977-1.21661H133.941v1.21661Zm2.31215-2.71671H133.941v1.09554h1.78948a.37721.37721,0,0,0,.26577-.07087.34582.34582,0,0,0,.07087-.248v-.45476a.34658.34658,0,0,0-.07214-.24931A.3723.3723,0,0,0,135.73047,79.01168Z" transform="translate(0 0)" fill="#767677"/><path d="M139.23856,79.03235v2.696h-.51971v-2.696h-1.42627v-.42522h3.37816v.42522Z" transform="translate(0 0)" fill="#767677"/><circle cx="180.0404" cy="98.1983" r="12.10108" fill="#1f1f23"/><path d="M186.60792,95.52536l-1.41052,1.05279L183.14312,96.52l-5.34994,3.99312-.43786,1.91827-1.472,1.09872,1.57136-6.73928,2.07678-1.55008Zm-4.4538.84906-2.79406-.13569-.91024.67938-.49392,2.5898Z" transform="translate(0 0)"/><circle cx="194.17697" cy="49.81835" r="9.04005" fill="#3d6295"/><path d="M195.14923,51.45589l-.7339-1.36668-4.19049-.1387,1.48508-.79749,1.902.12358c.52066.03451.92616.0695,1.36178.12491l.03015-.01619c.172-.36313.40365-.75884.6629-1.21216l.97771-1.67,1.48464-.79726-2.39644,3.66969.73649,1.37149Z" transform="translate(0 0)" fill="#344868"/><circle cx="219.93932" cy="40.38464" r="9.33333" fill="#3d6295"/><path d="M216.90252,43.184l4.95439-4.97992-.00547-.0149-5.46591,2.00691-.13657-.372,7.27174-2.66995.09914.27-4.926,4.95789.00564.01536,6.02456-2.212.13641.3715-7.86252,2.88687Z" transform="translate(0 0)" fill="#344868"/><circle cx="208.247" cy="78.86941" r="12.30768" fill="#1f1f23"/><circle cx="238.672" cy="68.16263" r="12.39935" fill="#1f1f23"/><path d="M212.31645,76.05837c.48221-.36811.672-.73258.5858-1.09885l-.1296-.29674c-.28488-.56644-1.23223-.38158-2.82851.54267l-7.21372,4.17679.26494.56585,1.138,2.26265.3001.55763,7.21372-4.17679c1.59628-.92425,2.25875-1.67555,1.97544-2.23886l-.16-.2791C213.25445,75.85468,212.87736,75.84673,212.31645,76.05837Zm-.8447,1.91145-.935.54134-5.02766,2.903-.42654-.8481,5.08539-2.94447.87724-.49984q.91223-.52818,1.12312-.10884Q212.3832,77.44009,211.47175,77.96982Zm-.71457-1.42079-5.95947,3.45057-.42655-.84811,5.95948-3.45057q.91223-.52818,1.12785-.09944C211.60015,75.88314,211.36533,76.1969,210.75718,76.549Z" transform="translate(0 0)"/><path d="M241.606,64.83525l-4.54146,1.5976c-3.04238,1.065-2.61247,1.43327-2.28844,2.35668s.21471,1.47832,3.24942.41344l8.02955-2.81759.243.69261-8.01853,2.81749c-4.24268,1.49129-4.81835.91878-5.30435-.46624-.48607-1.38521-.4115-2.19347,3.79883-3.67613l8.066-2.83036.241.6868Z" transform="translate(0 0)"/><polygon points="195.356 6.395 195.356 10.02 198.106 8.208 195.356 6.395" fill="#454545"/><polygon points="198.106 6.395 198.106 10.02 200.856 8.208 198.106 6.395" fill="#454545"/><rect x="200.85598" y="6.39505" width="1.5" height="3.625" fill="#454545"/><polygon points="66.523 6.395 66.523 10.02 63.773 8.208 66.523 6.395" fill="#454545"/><polygon points="63.773 6.395 63.773 10.02 61.023 8.208 63.773 6.395" fill="#454545"/><rect x="59.52267" y="6.39548" width="1.5" height="3.625" transform="translate(120.54534 16.41597) rotate(-180)" fill="#454545"/><rect x="181.59445" y="28.76725" width="3.28726" height="3.28726" transform="translate(6.77578 88.39425) rotate(-27.61303)" fill="#454545"/><polygon points="211.474 26.393 212.428 29.891 214.604 27.418 211.474 26.393" fill="#454545"/><rect x="214.59259" y="25.51969" width="0.65198" height="3.625" transform="translate(0.38594 57.54462) rotate(-15.26386)" fill="#454545"/><rect x="215.4625" y="25.2823" width="0.65198" height="3.625" transform="translate(0.47912 57.76526) rotate(-15.26386)" fill="#454545"/><path d="M158.51527,51.53975l-.29755-.4375-.02873,1.35913,1.10187.21875-.29708-.43681a1.67815,1.67815,0,0,1,2.33838,2.32066l.70742.47333a2.52919,2.52919,0,0,0-3.52431-3.49756Z" transform="translate(0 0)" fill="#454545"/><path d="M161.34708,55.71487l.29755.4375.02873-1.35914-1.10187-.21875.29708.43682a1.67815,1.67815,0,0,1-2.33838-2.32066l-.70742-.47333a2.52919,2.52919,0,0,0,3.52431,3.49756Z" transform="translate(0 0)" fill="#454545"/><ellipse cx="59.04819" cy="71.21671" rx="39.79772" ry="34.36373" transform="translate(-25.88253 107.8948) rotate(-73.69425)" fill="#5d5f60"/><circle cx="59.71877" cy="72.60906" r="28.11613" fill="#4d5054"/><path d="M87.61573,72.60906a6.54,6.54,0,0,1-6.52084,6.52084H74.8167c-4.737,0-8.57709.0858-8.57709,4.82279V93.98517a6.54,6.54,0,0,1-6.52083,6.52084h0a6.54,6.54,0,0,1-6.52083-6.52084V83.95269c0-5.21745-4.22958-4.82279-9.447-4.82279H38.34265a6.52084,6.52084,0,1,1,0-13.04168H43.7509c5.21745,0,9.447.39466,9.447-4.82279V51.23294a6.54,6.54,0,0,1,6.52083-6.52083h0a6.54,6.54,0,0,1,6.52083,6.52083V61.26543c0,4.737,3.8401,4.82279,8.57709,4.82279h6.27819A6.54,6.54,0,0,1,87.61573,72.60906Z" transform="translate(0 0)" fill="#404347"/><circle cx="59.71877" cy="72.60906" r="4.4375" fill="#595b5f"/><polygon points="44.514 59.091 46.201 57.404 42.606 55.53 44.514 59.091" fill="#333335"/><polygon points="46.167 87.814 44.48 86.127 42.606 89.722 46.167 87.814" fill="#333335"/><polygon points="74.924 86.127 73.236 87.814 76.832 89.688 74.924 86.127" fill="#333335"/><polygon points="73.236 57.404 74.924 59.091 76.797 55.496 73.236 57.404" fill="#333335"/><path d="M124.106,101.87045c0,.99527,3.05007,2.37879,6.8125,2.37879s6.8125-1.37632,6.81252-2.3715c6.36246-1.09609,10.83333-3.68574,10.83333-6.70581,0-4.01224-7.891-7.2648-17.625-7.2648s-17.625,3.25256-17.625,7.2648C113.31433,98.1854,117.76568,100.77033,124.106,101.87045Z" transform="translate(0 0)" fill="#4d5054"/><ellipse cx="130.93933" cy="94.71975" rx="11.48438" ry="4.45313" fill="#0051bf"/><path d="M219.62173,13.5641C205.09693-4.3728,174.3886-.08113,169.25337,1.97589,177.28964-.27328,184.86975.53645,188.84416.66173c12.57688.39637,22.85668,6.2975,30.77931,12.90028" transform="translate(0 0)" fill="#004690"/></svg>