<svg xmlns="http://www.w3.org/2000/svg" xmlns:xlink="http://www.w3.org/1999/xlink" viewBox="0 0 1000 114"><defs><linearGradient id="linear-gradient" x1="885.24" y1="-267.4" x2="922.3" y2="-261.24" gradientTransform="matrix(1, 0, 0, -1, 0, -218.22)" gradientUnits="userSpaceOnUse"><stop offset="0.04" stop-color="#fff"/><stop offset="0.9" stop-color="#898cbf"/></linearGradient><linearGradient id="linear-gradient-2" x1="887.13" y1="700.45" x2="898.93" y2="700.45" gradientTransform="translate(-0.04 -668.01)" gradientUnits="userSpaceOnUse"><stop offset="0" stop-color="#6e70a9"/><stop offset="0.97" stop-color="#514a8e"/></linearGradient><linearGradient id="linear-gradient-3" x1="898.85" y1="703.75" x2="899" y2="703.75" xlink:href="#linear-gradient-2"/><linearGradient id="linear-gradient-4" x1="903.54" y1="-256.08" x2="924.13" y2="-269.6" gradientTransform="matrix(1, 0, 0, -1, 0, -218.22)" gradientUnits="userSpaceOnUse"><stop offset="0" stop-color="#4c5284"/><stop offset="1" stop-color="#8789bc"/></linearGradient><linearGradient id="linear-gradient-5" x1="898.64" y1="-282.22" x2="898.5" y2="-273.04" gradientTransform="matrix(1, 0, 0, -1, 0, -218.22)" gradientUnits="userSpaceOnUse"><stop offset="0.11" stop-color="#4c407e"/><stop offset="0.89" stop-color="#669"/><stop offset="1" stop-color="#a7b3d9"/><stop offset="1" stop-color="#9ba5cd"/></linearGradient><linearGradient id="linear-gradient-6" x1="876.21" y1="-261.99" x2="904.44" y2="-254.14" gradientTransform="matrix(1, 0, 0, -1, 0, -218.22)" gradientUnits="userSpaceOnUse"><stop offset="0.23" stop-color="#669"/><stop offset="0.72" stop-color="#a7b3d9"/></linearGradient><linearGradient id="linear-gradient-7" x1="876.7" y1="-263.74" x2="904.92" y2="-255.89" gradientTransform="matrix(1, 0, 0, -1, 0, -218.22)" gradientUnits="userSpaceOnUse"><stop offset="0.23" stop-color="#669"/><stop offset="0.99" stop-color="#a7b3d9"/></linearGradient><linearGradient id="linear-gradient-8" x1="883.02" y1="-265.07" x2="894.24" y2="-271.08" gradientTransform="matrix(1, 0, 0, -1, 0, -218.22)" xlink:href="#linear-gradient-2"/><linearGradient id="linear-gradient-9" x1="899.69" y1="-235.48" x2="906.82" y2="-238.94" gradientTransform="matrix(1, 0, 0, -1, 0, -218.22)" gradientUnits="userSpaceOnUse"><stop offset="0.04" stop-color="#9ea5d3"/><stop offset="0.9" stop-color="#7675ae"/></linearGradient><linearGradient id="linear-gradient-10" x1="896.76" y1="-227.31" x2="895.08" y2="-245.99" gradientTransform="matrix(1, 0, 0, -1, 0, -218.22)" gradientUnits="userSpaceOnUse"><stop offset="0" stop-color="#aaacd2"/><stop offset="0.63" stop-color="#fcfafb"/></linearGradient><linearGradient id="linear-gradient-11" x1="907.09" y1="-225.15" x2="905.41" y2="-243.83" gradientTransform="matrix(1, 0, 0, -1, 0, -218.22)" gradientUnits="userSpaceOnUse"><stop offset="0.67" stop-color="#aaacd2"/><stop offset="1" stop-color="#fcfafb"/></linearGradient></defs><title>logo_right</title><g id="Layer_2" data-name="Layer 2"><rect x="870.17" y="72.27" width="12.17" height="10.16" fill="#fff"/><rect x="890.07" y="75.21" width="9.09" height="7.22" fill="#fff"/></g><g id="Ebene_1" data-name="Ebene 1"><path d="M898.75,67.8a4,4,0,0,1-1.89-.47L872.23,53.07a3.51,3.51,0,0,1-1.75-3V21.39a3.5,3.5,0,0,1,1-2.47l.09-.1a3.25,3.25,0,0,1,.73-.55L897.06,4a3.53,3.53,0,0,1,1.75-.47,3.57,3.57,0,0,1,1.76.47L919.3,14.84a3.49,3.49,0,0,1,1.75,3V18l.19-.11a3.49,3.49,0,0,1,1.74-.46,3.45,3.45,0,0,1,2.06.67l.64.46a3.56,3.56,0,0,1,1.24,1.65l.07.2a3.43,3.43,0,0,1,.21,1.19V50a3.51,3.51,0,0,1-1.75,3L900.64,67.33a3.48,3.48,0,0,1-1.75.47Z"/><path d="M898.81,7l18.74,10.86v.91l-7.64,4.48-11-6.43L882.4,26.37l0,18.73,16.37,9.51,16.42-9.47h0l.07,0V35.8l.74-.43h0l-5.63,3.26v3.7l-11.46,6.74-.14.1-11.66-6.74V29.07l.18-.18,11.47-6.48,10.93,6.17L923,20.93l.64.46.08.21V50L898.89,64.3h-.28L874,50V21.39l.1-.09L898.81,7m0-7a6.94,6.94,0,0,0-3.5.94l-24.73,14.3a6.76,6.76,0,0,0-1.45,1.1l-.1.1a7,7,0,0,0-2,4.95V50a7,7,0,0,0,3.49,6.05L895.1,70.36a7,7,0,0,0,3.51.94h.28a7.05,7.05,0,0,0,3.5-.93L927.2,56.05A7,7,0,0,0,930.7,50V21.6a7,7,0,0,0-.41-2.36l-.08-.21a7,7,0,0,0-2.47-3.3l-.64-.47a7,7,0,0,0-3.76-1.32,7,7,0,0,0-2.28-2.13L902.32.94A7,7,0,0,0,898.81,0Z" fill="#fff"/><path d="M907.6,85.93a8.77,8.77,0,0,1-3.81-.85l-.25-.13a8.38,8.38,0,0,1-2.69-2.28,1.09,1.09,0,0,1-.13-.17A7.24,7.24,0,0,1,899.54,79c0-.08,0-.16,0-.24v-7c0-.08,0-.16,0-.23a6.92,6.92,0,0,1,1.35-3.74,7.82,7.82,0,0,1,3-2.41,8.94,8.94,0,0,1,3.82-.85h6.53a3.5,3.5,0,0,1,3.5,3.5v2.29a3.48,3.48,0,0,1-.46,1.72,3.49,3.49,0,0,1,.46,1.73v2.33a3.49,3.49,0,0,1-.67,2,3.45,3.45,0,0,1,.67,2.05v2.28a3.5,3.5,0,0,1-3.5,3.5Z"/><path d="M914.22,68v2.29h-6.34a2.48,2.48,0,0,0-1.4.42,1.37,1.37,0,0,0-.6,1.12v1.91h8.34v2.33h-8.34v2.61a1.3,1.3,0,0,0,.6,1.07,2.56,2.56,0,0,0,1.4.42h6.34v2.28H907.6a4.84,4.84,0,0,1-4-1.86,3.76,3.76,0,0,1-.61-1.82v-7a3.36,3.36,0,0,1,.66-1.86,4.38,4.38,0,0,1,1.67-1.35,5.49,5.49,0,0,1,2.33-.52h6.53m0-7h-6.53a12.29,12.29,0,0,0-5.27,1.17,11.47,11.47,0,0,0-4.34,3.5,10.35,10.35,0,0,0-2,5.59c0,.16,0,.31,0,.47v7c0,.16,0,.33,0,.49a10.58,10.58,0,0,0,1.75,5.19c.08.12.16.24.25.35A12,12,0,0,0,901.8,88a4.74,4.74,0,0,0,.5.26,12.43,12.43,0,0,0,5.3,1.18h6.62a7,7,0,0,0,7-7V80.15a6.92,6.92,0,0,0-.31-2.05,7,7,0,0,0,.31-2V73.72A7,7,0,0,0,921,72a7,7,0,0,0,.22-1.72V68a7,7,0,0,0-7-7Z" fill="#fff"/><path d="M953.16,85.93a3.5,3.5,0,0,1-3.5-3.5V68a3.5,3.5,0,0,1,3.5-3.5h7a9.16,9.16,0,0,1,3.85.84,7.67,7.67,0,0,1,3,2.42,6.82,6.82,0,0,1,1.34,3.72c0,.08,0,.16,0,.24v7c0,.08,0,.15,0,.23A6.94,6.94,0,0,1,967,82.68a8.11,8.11,0,0,1-3,2.37l-.09,0a9.62,9.62,0,0,1-3.66.83h-7.15Z"/><path d="M960.13,68a5.65,5.65,0,0,1,2.37.51,4.28,4.28,0,0,1,1.72,1.35,3.35,3.35,0,0,1,.65,1.86v7a3.47,3.47,0,0,1-.65,1.9,4.65,4.65,0,0,1-1.72,1.35,6.54,6.54,0,0,1-2.37.51h-7V68h7M956,80.2h4a2,2,0,0,0,1.35-.46,1.41,1.41,0,0,0,.64-1.12V71.79a1.41,1.41,0,0,0-.64-1.11,2,2,0,0,0-1.35-.47h-4v10M960.13,61h-7a7,7,0,0,0-7,7V82.43a7,7,0,0,0,7,7h7.33a13.19,13.19,0,0,0,5-1.15l.19-.09a11.56,11.56,0,0,0,4.19-3.41,10.31,10.31,0,0,0,2-5.64c0-.15,0-.31,0-.46v-7c0-.16,0-.32,0-.47a10.31,10.31,0,0,0-2-5.6,11.13,11.13,0,0,0-4.42-3.51A12.41,12.41,0,0,0,960.13,61Z" fill="#fff"/><path d="M982.45,85.93a9,9,0,0,1-3.81-.83,7.6,7.6,0,0,1-3-2.4,6.4,6.4,0,0,1-1.34-3.93V71.69a6.6,6.6,0,0,1,1.35-4,8,8,0,0,1,2.91-2.34l.1,0a9.41,9.41,0,0,1,3.62-.82h2.88a9.55,9.55,0,0,1,3.62.82l.1,0a8,8,0,0,1,2.92,2.36,6.79,6.79,0,0,1,1.33,3.74,1.77,1.77,0,0,1,0,.23v7.08a6.5,6.5,0,0,1-1.34,3.93,7.54,7.54,0,0,1-3.09,2.43,8.78,8.78,0,0,1-3.73.8Z"/><path d="M985,68a6.32,6.32,0,0,1,2.33.51A4.48,4.48,0,0,1,989,69.81a3.4,3.4,0,0,1,.64,1.88v7.08A3.08,3.08,0,0,1,989,80.6a4.14,4.14,0,0,1-1.69,1.33,5.46,5.46,0,0,1-2.33.5h-2.52a5.46,5.46,0,0,1-2.33-.5,4.14,4.14,0,0,1-1.69-1.33,3,3,0,0,1-.64-1.83V71.69a3.12,3.12,0,0,1,.64-1.88,4.48,4.48,0,0,1,1.69-1.32,6.32,6.32,0,0,1,2.33-.51H985m-2.42,12.26h2.33a2.22,2.22,0,0,0,1.32-.46,1.42,1.42,0,0,0,.64-1.1v-7a1.43,1.43,0,0,0-.64-1.1,2.51,2.51,0,0,0-1.32-.45h-2.33a2.86,2.86,0,0,0-1.38.45,1.52,1.52,0,0,0-.59,1.1v7a1.51,1.51,0,0,0,.59,1.1,2.5,2.5,0,0,0,1.38.46M985,61h-2.88a13.23,13.23,0,0,0-4.92,1.15l-.19.09a11.43,11.43,0,0,0-4.16,3.4,10,10,0,0,0-2,6.06v7.08a10,10,0,0,0,2.05,6,11.13,11.13,0,0,0,4.4,3.5,12.51,12.51,0,0,0,5.21,1.12H985a12.51,12.51,0,0,0,5.21-1.12,11,11,0,0,0,4.41-3.51,10,10,0,0,0,2-6V71.69c0-.15,0-.3,0-.45a10.35,10.35,0,0,0-2-5.64,11.34,11.34,0,0,0-4.15-3.37l-.18-.09A13.17,13.17,0,0,0,985.34,61Z" fill="#fff"/><path d="M817.22,85.93a3.48,3.48,0,0,1-3-1.63,3.52,3.52,0,0,1-3,1.63h-2.85a3.5,3.5,0,0,1-3.5-3.5V68a3.5,3.5,0,0,1,3.5-3.5h3.87a3.49,3.49,0,0,0,4.85,0H820a3.5,3.5,0,0,1,3.5,3.5V82.43a3.5,3.5,0,0,1-3.5,3.5Z"/><path d="M820,68V82.43h-2.8l-5.91-11.28V82.43h-2.85V68h3.87l4.85,9.23V68H820m0-7h-2.84a7,7,0,0,0-2.43.44,6.79,6.79,0,0,0-2.42-.44h-3.87a7,7,0,0,0-7,7V82.43a7,7,0,0,0,7,7h2.85a7,7,0,0,0,3-.66,6.88,6.88,0,0,0,3,.66H820a7,7,0,0,0,7-7V68a7,7,0,0,0-7-7Z" fill="#fff"/><path d="M863.54,85.93a3.5,3.5,0,0,0-5.92,0h-2.84a3.5,3.5,0,0,1-3.5-3.5V68a3.5,3.5,0,0,1,3.5-3.5h3.87a3.48,3.48,0,0,0,4.84,0h2.84a3.5,3.5,0,0,1,3.5,3.5V82.43a3.5,3.5,0,0,1-3.5,3.5Z"/><path d="M866.33,68V82.43h-2.79l-5.92-11.28V82.43h-2.84V68h3.87l4.84,9.23V68h2.84m0-7h-2.84a6.93,6.93,0,0,0-2.42.44,6.83,6.83,0,0,0-2.42-.44h-3.87a7,7,0,0,0-7,7V82.43a7,7,0,0,0,7,7h2.84a7,7,0,0,1,5.92,0h2.79a7,7,0,0,0,7-7V68a7,7,0,0,0-7-7Z" fill="#fff"/><path d="M936.69,85.93a3.5,3.5,0,0,0-5.92,0h-2.84a3.5,3.5,0,0,1-3.5-3.5V68a3.5,3.5,0,0,1,3.5-3.5h3.87a3.48,3.48,0,0,0,4.84,0h2.85A3.5,3.5,0,0,1,943,68V82.43a3.5,3.5,0,0,1-3.5,3.5Z"/><path d="M939.49,68V82.43h-2.8l-5.92-11.28V82.43h-2.84V68h3.87l4.84,9.23V68h2.85m0-7h-2.85a6.93,6.93,0,0,0-2.42.44A6.79,6.79,0,0,0,931.8,61h-3.87a7,7,0,0,0-7,7V82.43a7,7,0,0,0,7,7h2.84a7,7,0,0,1,5.92,0h2.8a7,7,0,0,0,7-7V68a7,7,0,0,0-7-7Z" fill="#fff"/><rect x="832.27" y="64.48" width="10.26" height="21.45" rx="3.5"/><path d="M839,68V82.43h-3.26V68H839m0-7h-3.26a7,7,0,0,0-7,7V82.43a7,7,0,0,0,7,7H839a7,7,0,0,0,7-7V68a7,7,0,0,0-7-7Z" fill="#fff"/><path d="M883.68,85.93a3.5,3.5,0,0,1-3.5-3.5V73.77h-1.29a3.5,3.5,0,0,1-3.5-3.5V68a3.5,3.5,0,0,1,3.5-3.5h12.72a3.52,3.52,0,0,1,3.5,3.5v2.29a3.5,3.5,0,0,1-3.5,3.5h-1.35v8.66a3.5,3.5,0,0,1-3.5,3.5Z"/><path d="M891.61,68v2.29h-4.85V82.43h-3.08V70.27h-4.79V68h12.72m0-7H878.89a7,7,0,0,0-6.84,5.52,6.48,6.48,0,0,0-.16,1.64v2.13a7,7,0,0,0,4.79,6.64v5.52a7,7,0,0,0,7,7h3.08a7,7,0,0,0,7-7v-5.5a7,7,0,0,0,4.85-6.66V68a7,7,0,0,0-7-7Z" fill="#fff"/><path d="M973.11,110.5a3.5,3.5,0,0,1-3.5-3.5V88.44a3.5,3.5,0,0,1,3.5-3.5h19.71a3.5,3.5,0,0,1,3.5,3.5v3.91a3.5,3.5,0,0,1-3.5,3.5h-2.57v3.47H993a3.5,3.5,0,0,1,3.5,3.5V107a3.5,3.5,0,0,1-3.5,3.5Z"/><path d="M992.82,88.44v3.91H978.31v3.08h8.44v3.9h-8.44v3.49H993V107H973.11V88.44h19.71m0-7H973.11a7,7,0,0,0-7,7V107a7,7,0,0,0,7,7H993a7,7,0,0,0,7-7v-4.18a7,7,0,0,0-2.45-5.32,7,7,0,0,0,2.27-5.15V88.44a7,7,0,0,0-7-7Z" fill="#fff"/><path d="M950.13,110.46a3.49,3.49,0,0,1-3.5-3.5V88.36a3.5,3.5,0,0,1,3.5-3.5h16.21A8.52,8.52,0,0,1,972,86.62a6.74,6.74,0,0,1,2.39,5.65v2.11a7,7,0,0,1-.63,3,7.3,7.3,0,0,1,.81,3.43V103c0,2.21-.91,7.36-9.34,7.45h-15.1Z"/><path d="M966.34,88.36a5.08,5.08,0,0,1,3.44,1,3.32,3.32,0,0,1,1.11,2.89v2.16a3.11,3.11,0,0,1-1.94,3,3.4,3.4,0,0,1,2.12,3.35V103c0,2.62-1.93,3.91-5.88,3.95H950.13V88.36h16.21m-11,7.12h9.27l1.29-.23a.59.59,0,0,0,.23-.59V93a.69.69,0,0,0-.23-.65,3.14,3.14,0,0,0-1.29-.18h-9.27v3.35m0,7.4h9.32a2.21,2.21,0,0,0,1.33-.28,1.08,1.08,0,0,0,.28-.87V100.4a1.19,1.19,0,0,0-.28-.92,2.69,2.69,0,0,0-1.33-.23h-9.32v3.63m11-21.52H950.13a7,7,0,0,0-7,7V107a7,7,0,0,0,7,7h15.14c9.45-.11,12.8-6,12.8-10.95v-2.25a11.06,11.06,0,0,0-.56-3.53,10.66,10.66,0,0,0,.38-2.85V92.32a10.31,10.31,0,0,0-3.67-8.41,11.92,11.92,0,0,0-7.88-2.55Z" fill="#fff"/><path d="M942.82,110.45h-12a9.69,9.69,0,0,1-3.84-.68,6.14,6.14,0,0,1-3.44-3.23,9.38,9.38,0,0,1-.77-4.26V88.39a3.5,3.5,0,0,1,3.5-3.5h5.19a3.5,3.5,0,0,1,3.5,3.5V99.27h4.25V88.39a3.5,3.5,0,0,1,3.5-3.5h5.19a3.5,3.5,0,0,1,3.5,3.5v14a9.89,9.89,0,0,1-.79,4.23,6.37,6.37,0,0,1-3.42,3.19,9.85,9.85,0,0,1-3.89.68Z"/><path d="M947.93,88.39v14a6.66,6.66,0,0,1-.45,2.75,2.84,2.84,0,0,1-1.57,1.43,6.53,6.53,0,0,1-2.57.42H930.85a6.38,6.38,0,0,1-2.53-.42,2.69,2.69,0,0,1-1.56-1.43,5.92,5.92,0,0,1-.46-2.75v-14h5.19v14.38h11.25V88.39h5.19m0-7h-5.19a7,7,0,0,0-5.62,2.84,7,7,0,0,0-5.63-2.84H926.3a7,7,0,0,0-7,7v13.84a13,13,0,0,0,1.07,5.75,9.61,9.61,0,0,0,5.32,5,13.19,13.19,0,0,0,5.16.94h12.49a13.31,13.31,0,0,0,5.21-.94,9.81,9.81,0,0,0,5.18-4.77l.09-.18a13.31,13.31,0,0,0,1.11-5.71v-14a7,7,0,0,0-7-7Z" fill="#fff"/><path d="M919.1,110.48H907.35a9.69,9.69,0,0,1-3.84-.68,6.12,6.12,0,0,1-3.44-3.24,9.28,9.28,0,0,1-.76-4.25V93.13a9.34,9.34,0,0,1,.75-4.22,6.22,6.22,0,0,1,3.36-3.28l.18-.07a11.86,11.86,0,0,1,4.22-.64h11.34a11.94,11.94,0,0,1,4.22.64l.25.11a6.52,6.52,0,0,1,3.24,3.14l.06.12a10.55,10.55,0,0,1,.74,4.13v2.76a3.48,3.48,0,0,1-.38,1.58,3.61,3.61,0,0,1,.38,1.59v3.4a10.68,10.68,0,0,1-.72,4,1.39,1.39,0,0,1-.12.28,6.5,6.5,0,0,1-3.38,3.09,9.5,9.5,0,0,1-3.84.68ZM915.47,99.3V99a3.48,3.48,0,0,1,.39-1.61,3.56,3.56,0,0,1-.38-1.42h-4V99.3Z"/><path d="M919.16,88.42a8.61,8.61,0,0,1,3,.42,3.08,3.08,0,0,1,1.57,1.47,7.2,7.2,0,0,1,.46,2.75v2.76H919V92.51H908V102.8h11V99l5.2-.05v3.4a7.59,7.59,0,0,1-.46,2.75,3,3,0,0,1-1.57,1.43,6.45,6.45,0,0,1-2.53.42H907.35a6.29,6.29,0,0,1-2.52-.42,2.64,2.64,0,0,1-1.56-1.43,5.92,5.92,0,0,1-.46-2.75V93.06a5.9,5.9,0,0,1,.46-2.75,2.7,2.7,0,0,1,1.56-1.47,8.46,8.46,0,0,1,3-.42h11.35m0-7H907.81a15.36,15.36,0,0,0-5.45.86l-.34.15a9.6,9.6,0,0,0-5.17,5.08,12.69,12.69,0,0,0-1,5.68v9.07a12.71,12.71,0,0,0,1.07,5.75,9.59,9.59,0,0,0,5.31,5,13.19,13.19,0,0,0,5.16.94h12.26a13.38,13.38,0,0,0,5.24-1,10,10,0,0,0,5.11-4.73q.13-.27.24-.54a14.37,14.37,0,0,0,1-5.36V99a6.9,6.9,0,0,0-.19-1.58,7,7,0,0,0,.19-1.59V93.06a14.12,14.12,0,0,0-1-5.5l-.12-.25a10.06,10.06,0,0,0-4.92-4.81,4.4,4.4,0,0,0-.5-.21,15.31,15.31,0,0,0-5.45-.87Z" fill="#fff"/><path d="M879.27,110.5a3.5,3.5,0,0,1-3.5-3.5V88.44a3.5,3.5,0,0,1,3.5-3.5H899a3.5,3.5,0,0,1,3.5,3.5v3.91a3.5,3.5,0,0,1-3.5,3.5h-2.56v3.47h2.74a3.5,3.5,0,0,1,3.5,3.5V107a3.5,3.5,0,0,1-3.5,3.5Z"/><path d="M899,88.44v3.91H884.46v3.08h8.45v3.9h-8.45v3.49h14.69V107H879.26V88.44H899m0-7H879.26a7,7,0,0,0-7,7V107a7,7,0,0,0,7,7h19.89a7,7,0,0,0,7-7v-4.18a7,7,0,0,0-2.45-5.32A7,7,0,0,0,906,92.35V88.44a7,7,0,0,0-7-7Z" fill="#fff"/><path d="M826.77,110.45a3.5,3.5,0,0,1-3-5.29L834.83,86.6a3.51,3.51,0,0,1,3-1.71h4.64a3.49,3.49,0,0,1,3,1.69l2.74,4.54V88.39a3.5,3.5,0,0,1,3.5-3.5h4.73a3.49,3.49,0,0,1,3,1.71l4.86,8.12,4.89-8.13a3.52,3.52,0,0,1,3-1.7H877a3.52,3.52,0,0,1,3.5,3.5V107a3.5,3.5,0,0,1-3.5,3.5h-4.78a3.49,3.49,0,0,1-3-1.67,3.53,3.53,0,0,1-3,1.67h-3.81a3.49,3.49,0,0,0-5.92,0h-8.55a3.51,3.51,0,0,1-3-1.75l-.79-1.37a3.51,3.51,0,0,1-3.48,3.12Z"/><path d="M877,88.39V107h-4.78V97l-6,9.92h-3.81L856.49,97V107h-8.55l-7.76-13.41-5.74,9.23h6.2V107H826.77l11.07-18.56h4.64l9.23,15.3V88.39h4.73l7.85,13.14,7.9-13.14H877m0-7h-4.78a7,7,0,0,0-6.08,3.53l-1.8,3-1.86-3.12a7,7,0,0,0-6-3.41h-4.73a7,7,0,0,0-4.62,1.74,7,7,0,0,0-4.61-1.74h-4.64a7,7,0,0,0-6,3.42l-11.07,18.55a7,7,0,0,0,6,10.59h13.87a7,7,0,0,1,7.3,0h8.55a7,7,0,0,0,3-.66,6.93,6.93,0,0,0,3,.66h3.81a7.07,7.07,0,0,0,3-.67,6.89,6.89,0,0,0,3,.67H877a7,7,0,0,0,7-7V88.39a7,7,0,0,0-7-7Z" fill="#fff"/><path d="M809.24,110.5a10,10,0,0,1-3.86-.68,6.29,6.29,0,0,1-3.37-3.11,9.74,9.74,0,0,1-.83-4.32V93.07a9.76,9.76,0,0,1,.79-4.24,6.32,6.32,0,0,1,3.32-3.19l.18-.07a11.92,11.92,0,0,1,4.21-.64h17.5a3.5,3.5,0,0,1,3.5,3.5v4a3.44,3.44,0,0,1-.34,1.5,3.54,3.54,0,0,1,.53,1.85v6.56a8.06,8.06,0,0,1-2.09,6.11l-.16.15a8.51,8.51,0,0,1-5.88,1.84h-13.5Z"/><path d="M827.18,88.43v4H809.87v10.33h12.44V99.73h-7v-3.9h12v6.56a4.82,4.82,0,0,1-1.06,3.63,5.29,5.29,0,0,1-3.57,1h-13.5a6.28,6.28,0,0,1-2.54-.43,2.77,2.77,0,0,1-1.56-1.42,6.51,6.51,0,0,1-.46-2.76V93.07a6.51,6.51,0,0,1,.46-2.76,2.92,2.92,0,0,1,1.56-1.47,8.89,8.89,0,0,1,3-.41h17.5m0-7h-17.5a15.3,15.3,0,0,0-5.44.86l-.35.14a10,10,0,0,0-5.1,4.92,13.3,13.3,0,0,0-1.11,5.72v9.32a13.19,13.19,0,0,0,1.12,5.73l.07.15a9.91,9.91,0,0,0,5.19,4.79,13.48,13.48,0,0,0,5.18.94h13.5a12,12,0,0,0,8.2-2.72l.32-.3a11.42,11.42,0,0,0,3.11-8.66V95.83a6.87,6.87,0,0,0-.31-2,7,7,0,0,0,.12-1.3v-4a7,7,0,0,0-7-7Z" fill="#fff"/><g id="Layer_6" data-name="Layer 6"><line x1="887.47" y1="52.72" x2="886.95" y2="52.33" fill="none"/></g><g id="_3D_PART" data-name="3D PART"><polygon points="915.24 35.8 915.24 45.1 898.75 54.61 882.38 45.1 881.65 45.6 898.75 55.63 915.99 45.66 915.99 35.37 915.24 35.8" fill="url(#linear-gradient)"/></g><g id="black_line_thing" data-name="black line thing"><polygon points="915.24 45.06 915.99 45.6 915.99 45.66 915.94 45.7 915.17 45.14 915.24 45.1 915.24 45.06" fill="#7a7eae"/></g><g id="dark_purple_top_line" data-name="dark purple top line"><polygon points="898.89 35.69 887.27 28.89 887.09 29.07 898.75 35.99 898.89 35.69" fill="url(#linear-gradient-2)"/><polygon points="898.85 35.69 898.94 35.69 898.95 35.79 898.8 35.79 898.85 35.69" fill="url(#linear-gradient-3)"/></g><g id="top_black_line" data-name="top black line"><polygon points="898.89 35.99 898.89 35.69 923.62 21.39 923.7 21.6 898.89 35.99" fill="#120f22"/></g><g id="LOGO_DARK_LINES" data-name="LOGO DARK LINES"><polygon points="898.89 64.3 899.05 55.77 916.22 45.88 916.29 35.28 915.99 35.28 915.99 45.66 898.75 55.63 898.69 64.3 898.89 64.3" fill="#453d76"/></g><g id="LOGO"><polygon points="898.89 49.07 898.89 35.99 923.7 21.6 923.7 49.99 898.89 64.3 898.89 55.7 916.12 45.77 916.12 35.29 910.35 38.63 910.35 42.33 898.89 49.07" fill="url(#linear-gradient-4)"/></g><g id="BOTTOM_LAIN_LEFT_LIGHT_LINE" data-name="BOTTOM LAIN LEFT LIGHT LINE"><polyline points="898.61 64.3 898.75 64.3 898.75 55.63 898.26 55.34 898.61 64.3" fill="url(#linear-gradient-5)"/></g><g id="underneath"><polyline points="881.61 25.77 881.72 25.86 881.76 45.53 881.65 45.6 881.58 45.56 881.61 25.77" fill="#2d2868"/></g><g id="LEFT_3D_PURPLE_SHADOW" data-name="LEFT 3D PURPLE SHADOW"><polygon points="882.38 45.1 881.65 45.6 881.65 25.8 898.89 15.84 898.89 16.82 882.4 26.37 882.38 45.1" fill="#453d76"/></g><g id="MAIN_DARK_PURPLE_LINE" data-name="MAIN DARK PURPLE LINE"><polygon points="898.89 35.64 898.89 49.07 898.75 49.17 898.75 35.99 898.75 35.61 898.89 35.64" fill="#453d76"/></g><g id="logo_LEFT_side" data-name="logo LEFT side"><polygon points="887.09 29.07 887.09 42.43 898.75 49.17 898.75 35.99 887.09 29.07" fill="url(#linear-gradient-6)"/><polygon points="898.61 64.16 898.61 55.55 881.65 45.6 881.65 25.89 873.98 21.39 873.98 50.04 898.61 64.3 898.61 64.16" fill="url(#linear-gradient-7)"/></g><g id="left_purple_line" data-name="left purple line"><rect x="881.52" y="25.8" width="0.13" height="19.81" fill="#2d2868"/><polygon points="881.65 25.8 874.08 21.3 873.98 21.39 881.58 25.86 881.65 25.8" fill="#2d2868"/></g><g id="BOTTOM_PURPLE_LINE" data-name="BOTTOM PURPLE LINE"><polygon points="898.61 55.55 898.61 55.71 881.52 45.75 881.52 45.6 881.65 45.6 898.61 55.55" fill="url(#linear-gradient-8)"/></g><g id="top_middle_light_line" data-name="top middle light line"><polygon points="898.89 15.84 909.91 22.29 909.91 23.25 898.89 16.82 898.89 15.84" fill="url(#linear-gradient-9)"/></g><g id="top_right" data-name="top right"><polygon points="909.91 22.29 909.91 23.25 917.55 18.77 917.55 17.86 909.91 22.29" fill="#484592"/></g><g id="MAIN_TOP" data-name="MAIN TOP"><polygon points="898.81 7 917.55 17.86 909.91 22.29 898.89 15.84 881.65 25.8 874.08 21.3 898.81 7" fill="url(#linear-gradient-10)"/><polygon points="887.27 28.89 898.74 22.41 909.67 28.58 922.98 20.93 923.62 21.39 898.89 35.69 887.27 28.89" fill="url(#linear-gradient-11)"/></g><path id="path23497" d="M914.22,70.27V68h-6.53a5.49,5.49,0,0,0-2.33.52,4.38,4.38,0,0,0-1.67,1.35,3.36,3.36,0,0,0-.66,1.86v7a3.76,3.76,0,0,0,.61,1.82,4.84,4.84,0,0,0,4,1.86h6.62V80.15h-6.34a2.56,2.56,0,0,1-1.4-.42,1.3,1.3,0,0,1-.6-1.07V76.05h8.34V73.72h-8.34V71.81a1.37,1.37,0,0,1,.6-1.12,2.48,2.48,0,0,1,1.4-.42h6.34"/><path id="path23501" d="M953.16,68V82.43h7a6.54,6.54,0,0,0,2.37-.51,4.65,4.65,0,0,0,1.72-1.35,3.47,3.47,0,0,0,.65-1.9v-7a3.35,3.35,0,0,0-.65-1.86,4.28,4.28,0,0,0-1.72-1.35,5.65,5.65,0,0,0-2.37-.51Zm8.23,2.7a1.41,1.41,0,0,1,.64,1.11v6.83a1.41,1.41,0,0,1-.64,1.12,2,2,0,0,1-1.35.46h-4v-10h4a2,2,0,0,1,1.35.47"/><path id="path23503" d="M987.3,68.49A6.32,6.32,0,0,0,985,68h-2.52a6.32,6.32,0,0,0-2.33.51,4.48,4.48,0,0,0-1.69,1.32,3.12,3.12,0,0,0-.64,1.88v7.08a3,3,0,0,0,.64,1.83,4.14,4.14,0,0,0,1.69,1.33,5.46,5.46,0,0,0,2.33.5H985a5.46,5.46,0,0,0,2.33-.5A4.14,4.14,0,0,0,989,80.6a3.08,3.08,0,0,0,.64-1.83V71.69a3.4,3.4,0,0,0-.64-1.88A4.48,4.48,0,0,0,987.3,68.49Zm-1.1,2.14a1.43,1.43,0,0,1,.64,1.1v7a1.42,1.42,0,0,1-.64,1.1,2.22,2.22,0,0,1-1.32.46h-2.33a2.5,2.5,0,0,1-1.38-.46,1.51,1.51,0,0,1-.59-1.1v-7a1.52,1.52,0,0,1,.59-1.1,2.86,2.86,0,0,1,1.38-.45h2.33a2.51,2.51,0,0,1,1.32.45"/><path id="path23515" d="M820,68h-2.84v9.23L812.33,68h-3.87V82.43h2.85V71.15l5.91,11.28H820V68"/><path id="path23515-2" data-name="path23515" d="M866.33,68h-2.84v9.23L858.65,68h-3.87V82.43h2.84V71.15l5.92,11.28h2.79V68"/><path id="path23515-3" data-name="path23515" d="M939.49,68h-2.85v9.23L931.8,68h-3.87V82.43h2.84V71.15l5.92,11.28h2.8V68"/><path id="path23517" d="M839,82.43V68h-3.26V82.43H839"/><path id="path23521" d="M878.89,68v2.29h4.79V82.43h3.08V70.27h4.85V68H878.89"/><path id="path23505" d="M992.82,92.35V88.44H973.11V107H993v-4.18H978.31V99.33h8.44v-3.9h-8.44V92.35h14.51"/><path id="path23507" d="M970.89,92.22a3.32,3.32,0,0,0-1.11-2.89,5.08,5.08,0,0,0-3.44-1H950.13V107h15.06c3.95,0,5.88-1.33,5.88-3.95v-2.25A3.4,3.4,0,0,0,969,97.41a3.11,3.11,0,0,0,1.94-3V92.22Zm-5,.09a.69.69,0,0,1,.23.65v1.7a.59.59,0,0,1-.23.59l-1.29.23h-9.27V92.13h9.27a3.14,3.14,0,0,1,1.29.18Zm-10.56,10.57V99.25h9.32a2.69,2.69,0,0,1,1.33.23,1.19,1.19,0,0,1,.28.92v1.33a1.08,1.08,0,0,1-.28.87,2.21,2.21,0,0,1-1.33.28h-9.32"/><path id="path23509" d="M947.93,88.39h-5.19v14.38H931.49V88.39H926.3v14a5.92,5.92,0,0,0,.46,2.75,2.69,2.69,0,0,0,1.56,1.43,6.86,6.86,0,0,0,3,.41h11.57a7,7,0,0,0,3-.41,2.84,2.84,0,0,0,1.57-1.43,6.66,6.66,0,0,0,.45-2.75v-14"/><path id="path23511" d="M923.71,90.31a3.08,3.08,0,0,0-1.57-1.47,8.61,8.61,0,0,0-3-.42H907.81a8.46,8.46,0,0,0-3,.42,2.7,2.7,0,0,0-1.56,1.47,5.9,5.9,0,0,0-.46,2.75v9.33a5.92,5.92,0,0,0,.46,2.75,2.64,2.64,0,0,0,1.56,1.43,7,7,0,0,0,3,.41h11.35a7.07,7.07,0,0,0,3-.41,3,3,0,0,0,1.57-1.43,7.59,7.59,0,0,0,.46-2.75V99L919,99v3.76H908V92.51h11v3.31h5.2V93.06a7.2,7.2,0,0,0-.46-2.75"/><path id="path23513" d="M899,92.35V88.44H879.26V107h19.89v-4.18H884.46V99.33h8.45v-3.9h-8.45V92.35H899"/><path id="path23523" d="M872.19,88.39l-7.9,13.14-7.85-13.14h-4.73v15.3l-9.23-15.3h-4.64L826.77,107h13.87v-4.18h-6.2l5.74-9.23L847.94,107h8.55V97l5.92,9.92h3.81l6-9.92V107H877V88.39h-4.78"/><path id="path23525" d="M827.18,92.48v-4h-17.5a8.89,8.89,0,0,0-3,.41,2.92,2.92,0,0,0-1.56,1.47,6.51,6.51,0,0,0-.46,2.76v9.32a6.51,6.51,0,0,0,.46,2.76,2.77,2.77,0,0,0,1.56,1.42,7.05,7.05,0,0,0,3,.42h12.73a5.65,5.65,0,0,0,3.9-1,4.82,4.82,0,0,0,1.06-3.63V95.83h-12v3.9h7v3.08H809.87V92.48h17.31"/></g></svg>