<svg id="Ebene_2" data-name="Ebene 2" xmlns="http://www.w3.org/2000/svg" viewBox="0 0 1000 114"><title>logo_right</title><rect x="281.64" y="3.5" width="714.86" height="107" rx="3.5" fill="#b2ae85"/><path d="M993,7V107H285.14V7H993m0-7H285.14a7,7,0,0,0-7,7V107a7,7,0,0,0,7,7H993a7,7,0,0,0,7-7V7a7,7,0,0,0-7-7Z" fill="#fff"/><rect x="291.51" y="13.37" width="695.12" height="87.26"/><path d="M384.28,41.47l-2-.93a5.28,5.28,0,0,0,.25-1.45c0-1.34-11.82-8.59-32.32-8.59-19.62,0-28.05,5-28.05,11.39,0,17,74.08-7.87,74.08,29.6,0,13.67-16.1,24.22-48.3,24.22-30.68,0-39.49-8.07-42.38-8.07-.76,0-1.13.52-1.76.83l-1.64-.31,10.44-17.6,2,.83a14.63,14.63,0,0,0-.25,1.65c0,6.11,16.23,10.46,32.32,10.46,22.89,0,30.69-5.38,30.69-11.08,0-20.28-73.07,4.87-73.07-29.49,0-17.39,22.26-24.64,46.66-24.64,21.88,0,37.23,7.87,38.74,7.87s1.88-.42,2.26-.73l2,.52Z" fill="#b2ae85"/><path d="M405.9,93.23c2.77,0,3.27-.83,3.27-3.11V23.88c0-2.28-.5-3.11-3.27-3.11V19.32h81.63c3,0,4.27-.83,4.27-2.27h1.76V34.23H491.8c0-1.86-1.25-2.69-4.27-2.69H427V50h39.49c3,0,4.28-.82,4.28-2.69h1.76V64.66H470.8a1.88,1.88,0,0,0-1-1.86,6.28,6.28,0,0,0-3.27-.63H427V82.46h61.63c3,0,4.28-.83,4.28-2.48h1.76V97h-1.76c0-1.44-1.26-2.27-4.28-2.27H405.9Z" fill="#b2ae85"/><path d="M606.24,54.93v1.45c-1.26.21-2.39,1-2.39,3.31V80.08c0,1.66.63,2.28,2.27,2.59v1.45c-7.93,3.72-27.3,11.59-49,11.59-28.93,0-54.33-11.8-54.33-38.71s29.68-38.71,55.84-38.71a110.39,110.39,0,0,1,27.29,3.83c6.66,2.38,11.57,4.24,12.45,4.24a3.82,3.82,0,0,0,2.77-1.14l1.76.62-12.2,17-1.76-.93a6.48,6.48,0,0,0,.25-1.76c0-3.21-13.58-9.63-30.31-9.63-21.13,0-38.23,8.59-38.23,26.09,0,18.32,17.1,26.91,36.47,26.91,15.85,0,25.15-4.46,28.92-6.73V68.18H564.36c-2.51,0-4,1-4,2.48h-1.76V52.45h1.76c0,1.45,1.51,2.48,4,2.48Z" fill="#b2ae85"/><path d="M612.52,94.68V93.23c2.27-.1,3-.62,4.78-3.93l34.34-63.56a7.36,7.36,0,0,0,1.38-3.1c0-1.14-1-1.66-2.64-1.87V19.32H677.8v1.45c-1.89.21-2.65.83-2.65,1.56A5.85,5.85,0,0,0,676.28,25L712.76,89.3c1.76,3.2,2.26,3.93,4.9,3.93v1.45h-25V93.23c1.64,0,2.27-.52,2.27-1,0-1.13-1.13-2.58-9.56-17.39H642.2C634.91,88.26,633,90.33,633,91.68c0,.93.76,1.45,1.89,1.55v1.45ZM678.05,63,663,35.89,648.11,63Z" fill="#b2ae85"/><path d="M993,107H285.14V7H993Zm-701.49-6.37H986.63V13.37H291.51Z" fill="#b2ae85"/><path d="M739.47,19.32V94.68h242V19.32Zm10.26,52.9c-2-13.42,42.55-31.3,100.61-40.72l-3.85,1-7.28,1.78c-29.62,7.24-50.37,20.28-48.63,31.84,1.77,11.84,26.51,18.24,58,16.05,1.75-.12,8-.42,9.3-.48C799.59,89.67,751.74,85.64,749.73,72.22Zm145.13,2.9c-12.87,2.92-29,5.4-29,5.4V46.9l8.29,27.36S894,71.06,909,64.8C922,59.36,930.14,52.54,929.6,45.27c-.89-11.81-26-18.11-57-16.11-2.07.13-8.93.48-10.28.54,58.27-8,106.11-4,108.12,9.45C972.16,50.56,940.17,65.2,894.86,75.12Z" fill="#b2ae85"/></svg>