<?xml version="1.0" encoding="UTF-8" standalone="no"?>
<svg
   xmlns:dc="http://purl.org/dc/elements/1.1/"
   xmlns:cc="http://creativecommons.org/ns#"
   xmlns:rdf="http://www.w3.org/1999/02/22-rdf-syntax-ns#"
   xmlns:svg="http://www.w3.org/2000/svg"
   xmlns="http://www.w3.org/2000/svg"
   xmlns:sodipodi="http://sodipodi.sourceforge.net/DTD/sodipodi-0.dtd"
   xmlns:inkscape="http://www.inkscape.org/namespaces/inkscape"
   width="30"
   height="30"
   version="1"
   id="svg2"
   inkscape:version="0.91 r13725"
   sodipodi:docname="icon_filled.svg"
   inkscape:export-filename="C:\Users\xizor\Desktop\recalbox-multi-v3.1\imageviewer\data\icon_filled.png"
   inkscape:export-xdpi="168.46001"
   inkscape:export-ydpi="168.46001">
  <metadata
     id="metadata10">
    <rdf:RDF>
      <cc:Work
         rdf:about="">
        <dc:format>image/svg+xml</dc:format>
        <dc:type
           rdf:resource="http://purl.org/dc/dcmitype/StillImage" />
        <dc:title></dc:title>
      </cc:Work>
    </rdf:RDF>
  </metadata>
  <defs
     id="defs8" />
  <sodipodi:namedview
     pagecolor="#ffffff"
     bordercolor="#666666"
     borderopacity="1"
     objecttolerance="10"
     gridtolerance="10"
     guidetolerance="10"
     inkscape:pageopacity="0"
     inkscape:pageshadow="2"
     inkscape:window-width="1920"
     inkscape:window-height="1027"
     id="namedview6"
     showgrid="false"
     fit-margin-top="0"
     fit-margin-left="0"
     fit-margin-right="0"
     fit-margin-bottom="0"
     inkscape:zoom="11.366921"
     inkscape:cx="10.887498"
     inkscape:cy="8.3070004"
     inkscape:window-x="-8"
     inkscape:window-y="-8"
     inkscape:window-maximized="1"
     inkscape:current-layer="svg2" />
  <path
     d="m 14.998949,0 c -0.313411,0 -0.6251,0.252829 -0.862742,0.756682 L 10.934939,7.5577895 C 10.459656,8.5691067 9.1991245,9.528052 8.138349,9.6887792 L 0.98500275,10.779557 c -1.06421955,0.162533 -1.30358284,0.937274 -0.53383181,1.724657 l 5.17816856,5.293161 c 0.768029,0.789189 1.2501996,2.338671 1.0676636,3.447508 L 5.474356,28.721406 C 5.3417591,29.526848 5.6362276,30 6.1700594,30 6.3732599,30 6.6091792,29.93138 6.8709289,29.788707 l 6.4008151,-3.532386 c 0.475283,-0.261859 1.103827,-0.39008 1.727205,-0.39008 0.626821,0 1.255365,0.130027 1.728926,0.39008 l 6.402537,3.532386 C 23.386996,29.931375 23.628081,30 23.82956,30 c 0.537276,0 0.8283,-0.473152 0.697425,-1.278594 l -1.224369,-7.476523 c -0.179092,-1.108837 0.299635,-2.661931 1.065942,-3.447508 l 5.181613,-5.293161 C 30.3182,11.715025 30.078836,10.94209 29.014617,10.779557 L 21.86127,9.6887792 C 20.798773,9.528052 19.538241,8.5691067 19.064681,7.5577895 L 15.865134,0.756682 C 15.62577,0.252829 15.314082,0 14.998949,0 Z"
     id="path4"
     inkscape:connector-curvature="0"
     style="fill:#ffff00" />
</svg>
