<?xml version="1.0" encoding="UTF-8" standalone="no"?>
<svg
   xmlns:dc="http://purl.org/dc/elements/1.1/"
   xmlns:cc="http://creativecommons.org/ns#"
   xmlns:rdf="http://www.w3.org/1999/02/22-rdf-syntax-ns#"
   xmlns:svg="http://www.w3.org/2000/svg"
   xmlns="http://www.w3.org/2000/svg"
   xmlns:sodipodi="http://sodipodi.sourceforge.net/DTD/sodipodi-0.dtd"
   xmlns:inkscape="http://www.inkscape.org/namespaces/inkscape"
   width="30"
   height="30"
   id="svg2"
   version="1.1"
   inkscape:version="0.91 r13725"
   sodipodi:docname="icon_empty.svg"
   inkscape:export-filename="C:\Users\xizor\Desktop\recalbox-multi-v3.1\imageviewer\data\icon_empty.png"
   inkscape:export-xdpi="168.46001"
   inkscape:export-ydpi="168.46001">
  <metadata
     id="metadata10">
    <rdf:RDF>
      <cc:Work
         rdf:about="">
        <dc:format>image/svg+xml</dc:format>
        <dc:type
           rdf:resource="http://purl.org/dc/dcmitype/StillImage" />
        <dc:title></dc:title>
      </cc:Work>
    </rdf:RDF>
  </metadata>
  <defs
     id="defs8" />
  <sodipodi:namedview
     pagecolor="#ffffff"
     bordercolor="#666666"
     borderopacity="1"
     objecttolerance="10"
     gridtolerance="10"
     guidetolerance="10"
     inkscape:pageopacity="0"
     inkscape:pageshadow="2"
     inkscape:window-width="1920"
     inkscape:window-height="1027"
     id="namedview6"
     showgrid="false"
     fit-margin-top="0"
     fit-margin-left="0"
     fit-margin-right="0"
     fit-margin-bottom="0"
     inkscape:zoom="11.366921"
     inkscape:cx="10.887498"
     inkscape:cy="8.3060004"
     inkscape:window-x="-8"
     inkscape:window-y="-8"
     inkscape:window-maximized="1"
     inkscape:current-layer="svg2" />
  <path
     d="m 14.998088,0.729637 c 0.04477,0.03251 0.142921,0.126422 0.246237,0.348564 l 3.201085,6.8015173 c 0.573406,1.2208777 2.031888,2.3315877 3.313011,2.5248327 l 7.154658,1.089038 c 0.258291,0.03973 0.375383,0.119198 0.39088,0.119198 l 0.0017,0 c 0,0.03431 -0.04305,0.173379 -0.241072,0.373848 l -5.181315,5.293481 c -0.928125,0.949972 -1.484311,2.746974 -1.265625,4.08705 l 1.224299,7.476973 c 0.04649,0.281741 0.0052,0.422612 -0.01894,0.431642 -0.04305,0 -0.16875,-0.01445 -0.380548,-0.128228 L 17.047195,25.61676 c -0.557908,-0.308832 -1.286288,-0.476793 -2.049107,-0.476793 -0.762819,0 -1.492922,0.169768 -2.049108,0.476793 l -6.3987261,3.528987 c -0.2117986,0.11378 -0.3375001,0.128228 -0.3857144,0.148094 -0.017219,-0.0289 -0.058546,-0.169767 -0.013775,-0.451508 L 7.3733413,21.36536 C 7.5937491,20.023478 7.0375627,18.228283 6.1077155,17.27831 L 0.93156609,11.984829 C 0.73526502,11.786166 0.68877266,11.647101 0.68016296,11.647101 0.69738235,11.620011 0.81275228,11.536933 1.0848187,11.495395 L 8.2360324,10.406357 C 9.522321,10.211306 10.977359,9.100596 11.552487,7.8797183 L 14.753572,1.078201 C 14.856889,0.856059 14.955039,0.758534 14.998088,0.729637 M 14.998088,0 C 14.684695,0 14.371302,0.252845 14.135396,0.756727 L 10.934311,7.5600506 C 10.459056,8.5714286 9.2003184,9.5304316 8.1378819,9.6911685 L 0.98494621,10.780206 c -1.06415846,0.162543 -1.30350802,0.939137 -0.53380117,1.724761 l 5.17787136,5.29348 c 0.7697068,0.78743 1.2501279,2.338811 1.0676023,3.447715 L 5.4740418,28.721329 C 5.3414525,29.52682 5.6359041,30 6.1714272,30 6.3746161,30 6.6105217,29.93137 6.8722565,29.788694 l 6.4004485,-3.530793 c 0.475255,-0.261874 1.102041,-0.390103 1.727105,-0.390103 0.626785,0 1.255293,0.130035 1.728827,0.390103 l 6.400448,3.530793 C 23.387376,29.931371 23.626725,30 23.829914,30 c 0.535523,0 0.828253,-0.47318 0.697386,-1.278671 l -1.224299,-7.475167 c -0.180804,-1.108904 0.299617,-2.662091 1.06588,-3.447715 l 5.181315,-5.29348 c 0.767985,-0.785624 0.528636,-1.562218 -0.535523,-1.724761 L 21.861738,9.6911685 C 20.799301,9.5304316 19.538841,8.5714286 19.065308,7.5600506 L 15.864223,0.756727 C 15.624874,0.252845 15.313203,0 14.998088,0 Z"
     id="path4"
     inkscape:connector-curvature="0"
     style="fill:#777777" />
</svg>
