<svg id="Layer_1" data-name="Layer 1" xmlns="http://www.w3.org/2000/svg" viewBox="0 0 1000 114"><title>logo</title><path d="M475,7a10,10,0,0,1,8.65,5H550a10,10,0,0,1,10,10V97a10,10,0,0,1-10,10H450a10,10,0,0,1-10-10V22a10,10,0,0,1,10-10h1.35A10,10,0,0,1,460,7h15m0-7H460a17,17,0,0,0-12.16,5.14A17,17,0,0,0,433,22V97a17,17,0,0,0,17,17H550a17,17,0,0,0,17-17V22A17,17,0,0,0,550,5H487a17,17,0,0,0-12-5Z" fill="#fff"/><path d="M450,27a10,10,0,0,0-10,10V97a10,10,0,0,0,10,10H550a10,10,0,0,0,10-10V37a10,10,0,0,0-10-10H450Z" fill="#c0392b"/><path d="M450,12a10,10,0,0,0-10,10V82a10,10,0,0,0,10,10H550a10,10,0,0,0,10-10V22a10,10,0,0,0-10-10H450Z" fill="#c0392b"/><path d="M450,22a10,10,0,0,0-10,10V92a10,10,0,0,0,10,10H550a10,10,0,0,0,10-10V32a10,10,0,0,0-10-10H450Z" fill="#e74c3c"/><path d="M530,67a30,30,0,1,1-30-30A30,30,0,0,1,530,67Z" fill="#c0392b"/><path d="M530,62a30,30,0,1,1-30-30A30,30,0,0,1,530,62Z" fill="#ecf0f1"/><path d="M520,61.93a20,20,0,1,1-20-20A20,20,0,0,1,520,61.93Z" fill="#34495e"/><path d="M515,61.57a15,15,0,1,1-15-15A15,15,0,0,1,515,61.57Z" fill="#2c3e50"/><path d="M510,62a10,10,0,1,1-10-10A10,10,0,0,1,510,62Z" fill="#34495e"/><path d="M505,62a5,5,0,1,1-5-5A5,5,0,0,1,505,62Z" fill="#3498db"/><path d="M500,51.67a5,5,0,1,1-5-5A5,5,0,0,1,500,51.67Z" fill="#ecf0f1"/><rect x="535" y="37" width="15" height="5" fill="#ecf0f1"/><rect x="535" y="32" width="15" height="5" fill="#c0392b"/><path d="M460,7a10,10,0,0,0-10,10h35A10,10,0,0,0,475,7Z" fill="#c0392b"/></svg>