<svg xmlns="http://www.w3.org/2000/svg" viewBox="0 0 1000 114"><title>logo_right</title><g id="Calque_1" data-name="Calque 1"><rect x="754.34" y="20.11" width="18.73" height="17.33" stroke-width="7" stroke="#fff" stroke-linecap="round" stroke-linejoin="round" fill="#fff"/><rect x="802.63" y="13.6" width="158.3" height="33.56" stroke-width="7" stroke="#fff" stroke-linecap="round" stroke-linejoin="round" fill="#fff"/></g><g id="Calque_2" data-name="Calque 2"><path d="M780.78,66.34q-4.12,0-8.24,0a31.4,31.4,0,0,1-9.21-61.23A32.32,32.32,0,0,1,773.67,3.5H942.94a31.26,31.26,0,0,1,16.43,4.32c8.72,5.25,13.83,12.89,15.21,22.72a31.44,31.44,0,0,1-21.36,34.24A32.17,32.17,0,0,1,943,66.32H792.72ZM773.23,17.1a17.8,17.8,0,0,0-14.16,28.75,17.63,17.63,0,0,0,14.62,6.89H942.87a22.55,22.55,0,0,0,3.83-.3,17.66,17.66,0,0,0,11.67-7.69,17.4,17.4,0,0,0,2.57-13.54,17.7,17.7,0,0,0-17.55-14.1H773.23Z" fill="#fe0000" fill-rule="evenodd"/><path d="M943,7a27.64,27.64,0,0,1,14.6,3.82A27.06,27.06,0,0,1,971.11,31a27.73,27.73,0,0,1-19,30.42A29,29,0,0,1,943,62.82H792.72l-11.93,0q-4.11,0-8.21,0a27.9,27.9,0,0,1-8.15-54.41A29,29,0,0,1,773.67,7H943M773.69,56.24H942.87a25.41,25.41,0,0,0,4.44-.36,21.3,21.3,0,0,0-3.92-42.27H773.23A21.3,21.3,0,0,0,756.34,48a21.09,21.09,0,0,0,17.35,8.21M943,0H773.69a35.56,35.56,0,0,0-11.47,1.75A34.9,34.9,0,0,0,772.5,69.8c2.45,0,5.08,0,8.29,0H943a35.52,35.52,0,0,0,11.29-1.72,34.73,34.73,0,0,0,23.73-38A34.18,34.18,0,0,0,961.18,4.82,34.75,34.75,0,0,0,943,0ZM773.69,49.24a14.13,14.13,0,0,1-11.88-5.57,14.31,14.31,0,0,1,2.34-19.92,14.19,14.19,0,0,1,9.08-3.15H943.39A14.28,14.28,0,0,1,957.53,32a13.92,13.92,0,0,1-2.08,10.84A14.14,14.14,0,0,1,946.09,49a18.55,18.55,0,0,1-3.22.25H773.69Z" fill="#fff"/><path d="M924.44,89.15a4.14,4.14,0,0,1-3-1.19,3.87,3.87,0,0,1-.51-.64c-.78,1.23-2.18,1.81-4.25,1.81H915c-.31,0-.63,0-.94,0h-.34A4,4,0,0,1,910.76,88a3.2,3.2,0,0,1-.45-.55,3.75,3.75,0,0,1-.44.53,4.07,4.07,0,0,1-3,1.18h-.22l-1.6,0-2,0H903A3.92,3.92,0,0,1,900.1,88,4,4,0,0,1,899,85.1q0-7.23,0-14.46a4,4,0,0,1,1.14-2.89,3.86,3.86,0,0,1,2.84-1.13h10.77l3.08,0h3c1.32,0,2.64,0,3.95-.05H924A8.25,8.25,0,0,1,932.13,75c-.11,2.76-.07,5.61,0,8.38l0,1.47A4.22,4.22,0,0,1,931,88a4.09,4.09,0,0,1-3,1.19h-.29c-.49,0-1,0-1.49,0s-.92,0-1.37,0Z" fill="#fe0000" fill-rule="evenodd"/><path d="M924,70.1a4.76,4.76,0,0,1,4.63,4.74c-.12,3.34,0,6.69,0,10,0,.62-.18.78-.68.78h-.13c-.55,0-1.1,0-1.65,0s-1,0-1.56,0h-.16c-.53,0-.7-.18-.69-.82,0-3,0-6.09,0-9.13,0-1.56-.54-2.09-2.08-2.09h-1.61c-1.41,0-1.93.51-1.93,1.92q0,4.32,0,8.64c0,1.46,0,1.46-1.48,1.46H915c-.39,0-.77,0-1.15,0h-.13c-.5,0-.58-.23-.58-.74,0-3.11,0-6.22,0-9.34,0-1.38-.57-2-1.92-2h-1.81c-1.36,0-1.86.5-1.87,1.84,0,3.16,0,6.32,0,9.47,0,.55-.14.73-.64.73h-.09c-.58,0-1.15,0-1.73,0l-2,0h0c-.37,0-.53-.08-.53-.52q0-7.25,0-14.49c0-.47.2-.51.48-.51h10.77c2,0,4.08,0,6.12,0,1.35,0,2.7,0,4-.05H924m0-7h-.31c-1.13,0-2.36,0-3.86,0h-3l-3.1,0H902.94a7.4,7.4,0,0,0-5.32,2.16,7.47,7.47,0,0,0-2.16,5.37c0,4.37,0,9.1,0,14.44a7.53,7.53,0,0,0,2.16,5.39A7.4,7.4,0,0,0,903,92.64h.17l1.91,0,1.48,0h.34a7.81,7.81,0,0,0,3.41-.76,7.72,7.72,0,0,0,3.38.76h.55c.2,0,.43,0,.73,0h1.7a9.45,9.45,0,0,0,4.23-.8,7.72,7.72,0,0,0,3.55.82H925c.36,0,.76,0,1.18,0l1.35,0h.43a7.5,7.5,0,0,0,5.5-2.23,7.66,7.66,0,0,0,2.18-5.63l0-1.43c0-2.86-.07-5.56,0-8.25A11.76,11.76,0,0,0,924,63.1Z" fill="#fff"/><path d="M921.49,110.37c-.54,0-1.09,0-1.63,0l-1.75,0h-.17a3.93,3.93,0,0,1-2.9-1.15,3.11,3.11,0,0,1-.44-.52,3.57,3.57,0,0,1-.44.52,4,4,0,0,1-2.9,1.15h-.16q-.93,0-1.86,0t-1.74,0h-.21a4,4,0,0,1-2.91-1.16,3.35,3.35,0,0,1-.48-.59c-.75,1.15-2.07,1.73-4,1.73h-3.39a3.86,3.86,0,0,1-2.83-1.13,3.91,3.91,0,0,1-1.13-2.88c0-4.82,0-9.64,0-14.47a4,4,0,0,1,1.13-2.9,3.9,3.9,0,0,1,2.89-1.14h13.89l3,0c1.52,0,2.77,0,3.92-.06h.26a8.12,8.12,0,0,1,5.75,2.49,8,8,0,0,1,2.34,5.79c-.06,2.68,0,5.43,0,8.09v2a4.11,4.11,0,0,1-1.14,3,4,4,0,0,1-2.92,1.16Z" fill="#fe0000" fill-rule="evenodd"/><path d="M917.68,91.33a4.75,4.75,0,0,1,4.59,4.7c-.08,3.39,0,6.78,0,10.17,0,.47-.07.68-.55.68h-.08c-.59,0-1.18,0-1.77,0s-1.24,0-1.86,0h-.06c-.44,0-.54-.16-.54-.61,0-3.14,0-6.28,0-9.41,0-1.44-.55-2-2-2h-2.16a1.37,1.37,0,0,0-1.47,1.35,11.62,11.62,0,0,0,0,1.18c0,3,0,5.9,0,8.85,0,.45-.08.63-.54.63h-.06c-.65,0-1.3,0-2,0s-1.25,0-1.87,0h-.07c-.49,0-.57-.2-.57-.67q0-4.68,0-9.34c0-1.48-.53-2-2-2h-1.89c-1.17,0-1.72.54-1.73,1.75,0,3,0,6,0,9.06,0,1.19,0,1.19-1.19,1.19h-3.39c-.35,0-.46-.11-.46-.5,0-4.83,0-9.66,0-14.5,0-.49.21-.52.53-.52h10.83c2,0,4,0,6.06,0,1.35,0,2.7,0,4-.06h.14m0-7h-.38c-1.11,0-2.32.06-3.8.06l-3,0H896.61a7.37,7.37,0,0,0-5.38,2.17,7.52,7.52,0,0,0-2.15,5.4c0,5,0,9.88,0,14.43a7.35,7.35,0,0,0,7.46,7.52h3.39a9.53,9.53,0,0,0,3.91-.77,7.81,7.81,0,0,0,3.45.79h.33c.51,0,1.06,0,1.61,0s1.17,0,1.75,0h.27a8,8,0,0,1,6.68,0h.29c.54,0,1.09,0,1.63,0s1,0,1.49,0h.36a7.44,7.44,0,0,0,7.55-7.72v-2c0-2.75,0-5.35,0-8a11.45,11.45,0,0,0-3.33-8.31,11.66,11.66,0,0,0-8.26-3.55Z" fill="#fff"/><path d="M862.82,89.15a4,4,0,0,1-4.14-4.28H856.6V85a4,4,0,0,1-1.1,3,3.92,3.92,0,0,1-2.91,1.17h-.11l-1.89,0-2,0h0a4,4,0,0,1-3-1.14,4,4,0,0,1-1.13-2.92c0-1.18,0-2.36,0-3.54,0-2.31,0-4.7.05-7.08.07-2,.93-4.92,4.58-7.17a4.8,4.8,0,0,1,2.55-.67h11.34a6.26,6.26,0,0,1,4.38,1.64,9.1,9.1,0,0,1,3.32,7.27c-.08,2.71,0,5.49,0,8.19l0,1.22a4.12,4.12,0,0,1-1.15,3,4.06,4.06,0,0,1-3,1.17h-.2l-1.73,0c-.55,0-1.1,0-1.64,0Z" fill="#fe0000" fill-rule="evenodd"/><path d="M863.15,70.11a2.71,2.71,0,0,1,1.92.73,5.75,5.75,0,0,1,2.19,4.59c-.1,3.18,0,6.36,0,9.54,0,.54-.16.68-.62.68h-.08l-1.86,0q-.88,0-1.77,0h-.1c-.49,0-.67-.15-.64-.71.06-1,0-2,0-3,0-.42-.08-.59-.54-.59h0l-3.91,0-4.1,0h0c-.4,0-.55.09-.53.53,0,1.07,0,2.14,0,3.21,0,.4-.1.55-.51.55h0l-2,0-2,0h0c-.4,0-.52-.12-.52-.54,0-3.51-.08-7,0-10.52A5.33,5.33,0,0,1,851,70.27a1.32,1.32,0,0,1,.71-.15h9c.78,0,1.57,0,2.36,0h0m-9.53,7.77h8.14c.34,0,.46-.1.45-.46,0-.72,0-1.44,0-2.16a1.61,1.61,0,0,0-1.68-1.65h-5.77a1.48,1.48,0,0,0-1.64,1.63c0,.7,0,1.4,0,2.09,0,.46.14.55.53.55m9.53-14.77H851.71a8.2,8.2,0,0,0-4.38,1.19c-5.24,3.23-6.16,7.67-6.24,10s-.07,4.88-.06,7.23c0,1.16,0,2.33,0,3.49a7.38,7.38,0,0,0,7.52,7.58h.16l1.88,0,1.81,0h.19a7.54,7.54,0,0,0,5.07-1.89,7.62,7.62,0,0,0,5.15,1.9h.37c.5,0,1,0,1.5,0s1.09,0,1.64,0h.3a7.49,7.49,0,0,0,7.62-7.75l0-1.21c0-2.78-.06-5.42,0-8a12.58,12.58,0,0,0-4.45-10,9.67,9.67,0,0,0-6.65-2.57Z" fill="#fff"/><path d="M824.9,89.14h-3.3A3.93,3.93,0,0,1,818.71,88a3.86,3.86,0,0,1-1.09-2.88v-.25h-2.1v.19A3.89,3.89,0,0,1,814.47,88a3.85,3.85,0,0,1-2.87,1.17h-4.09a3.84,3.84,0,0,1-4-4q0-7.26,0-14.53a3.87,3.87,0,0,1,4-4H819l3.21,0h0a6.15,6.15,0,0,1,4.19,1.58c3.5,3.1,4.33,7.5,2.18,11.35a7.33,7.33,0,0,1,.36,2.54c0,1,0,2,0,3a4,4,0,0,1-1.1,2.92A3.92,3.92,0,0,1,825,89.14Z" fill="#fe0000" fill-rule="evenodd"/><path d="M822.25,70.11a2.6,2.6,0,0,1,1.8.69c2.23,2,2.91,4.73,1.25,7.36a2.08,2.08,0,0,0-.19,2.22,3.3,3.3,0,0,1,.3,1.62c0,1,0,2.09,0,3.13,0,.32,0,.51-.41.51h-3.46c-.32,0-.43-.12-.42-.45q0-1.11,0-2.22a1.48,1.48,0,0,0-1.67-1.61h-5.78A1.49,1.49,0,0,0,812,82.94c0,.74,0,1.49,0,2.23,0,.35-.09.47-.44.47h-4.16c-.35,0-.44-.12-.44-.47q0-7.29,0-14.56c0-.47.2-.49.5-.49H819l3.23,0h0m-7.53,7.77h4.91a1.31,1.31,0,0,0,1.49-1.43,11.81,11.81,0,0,0,0-1.19,1.49,1.49,0,0,0-1.7-1.64h-.33l-2.63,0c-.57,0-1.14,0-1.7,0h-.53c-2,0-2.28.58-2.2,2.81a1.35,1.35,0,0,0,1.48,1.47h1.21m7.53-14.77h-.1l-3.17,0H807.49a7.32,7.32,0,0,0-5.35,2.16A7.48,7.48,0,0,0,800,70.64c0,5,0,9.9,0,14.51a7.33,7.33,0,0,0,7.44,7.49h4.16a7.43,7.43,0,0,0,5-1.85,7.4,7.4,0,0,0,5,1.85H825a7.33,7.33,0,0,0,7.41-7.6c0-.93,0-1.92,0-2.88a10.9,10.9,0,0,0-.16-2.24,12.43,12.43,0,0,0-3.55-14.35,9.6,9.6,0,0,0-6.45-2.46Z" fill="#fff"/><path d="M740.12,89.14H727.64a8.17,8.17,0,0,1-4.78-1.58A6.62,6.62,0,0,1,720,82.13c0-1.72,0-3.44,0-5.16q0-3.27,0-6.54a3.87,3.87,0,0,1,4-4h16a4,4,0,0,1,3,1.21,4,4,0,0,1,1.06,3,16.1,16.1,0,0,0,0,2,4.21,4.21,0,0,1-.91,3.07,4.63,4.63,0,0,1,.13,1.49,10.75,10.75,0,0,0,0,1.39,4.47,4.47,0,0,1-.16,1.61,4.09,4.09,0,0,1,.94,3.09,15.15,15.15,0,0,0,0,1.52v.26A4,4,0,0,1,743,88a3.89,3.89,0,0,1-2.87,1.16Z" fill="#fe0000" fill-rule="evenodd"/><path d="M740,69.92c.43,0,.6.09.57.56a18.74,18.74,0,0,0,0,2.37c0,.58-.1.78-.71.78h0c-1.61,0-3.21,0-4.82,0h-5.84a1.36,1.36,0,1,0,.07,2.71h7.54l2.42,0h0c.47,0,.58.15.55.61a14.74,14.74,0,0,0,0,1.88c0,.48-.09.62-.58.62h0l-4.87,0h-4.87a1.63,1.63,0,0,0-.69.1,1.5,1.5,0,0,0-.95,1.54,1.59,1.59,0,0,0,1.54,1.27h10.54c.5,0,.72.09.68.67a19.44,19.44,0,0,0,0,2.16c0,.34-.07.49-.46.49h0c-4.16,0-8.32,0-12.47,0a4.59,4.59,0,0,1-2.73-.91,3.1,3.1,0,0,1-1.39-2.59c0-3.9,0-7.81,0-11.71,0-.46.2-.49.5-.49h16m0-7H724a7.39,7.39,0,0,0-5.36,2.16,7.5,7.5,0,0,0-2.14,5.37q0,3.26,0,6.5c0,1.73,0,3.46,0,5.19a10.16,10.16,0,0,0,4.26,8.23,11.59,11.59,0,0,0,6.82,2.25h12.49A7.35,7.35,0,0,0,747.59,85v-.29c0-.44,0-.89,0-1.14a7.81,7.81,0,0,0-.77-4.12,8.13,8.13,0,0,0,0-1.1,6.76,6.76,0,0,1,0-.9c0-.33,0-.64,0-.94a7.91,7.91,0,0,0,.76-4.09,11.56,11.56,0,0,1,0-1.55,7.54,7.54,0,0,0-2-5.62,7.43,7.43,0,0,0-5.55-2.3Z" fill="#fff"/><path d="M892,110.37H880.05a8.67,8.67,0,0,1-4.33-1.08,6.83,6.83,0,0,1-3.63-6.18q0-5.61,0-11.24a4,4,0,0,1,4.15-4.23c2.65,0,5.27,0,7.89,0H892A4,4,0,0,1,896.14,92a17.13,17.13,0,0,0,0,2,4,4,0,0,1-.89,2.93,4.31,4.31,0,0,1,.12,1.52,10,10,0,0,0,0,1.34,4.41,4.41,0,0,1-.16,1.6,4,4,0,0,1,.92,3,12.47,12.47,0,0,0,0,1.61,4.07,4.07,0,0,1-1,3.1,4,4,0,0,1-3,1.22Z" fill="#fe0000" fill-rule="evenodd"/><path d="M876.24,91.13h0c2.63,0,5.25,0,7.88,0H892c.53,0,.65.15.62.66a22.07,22.07,0,0,0,0,2.44c0,.54-.16.63-.64.63h0l-5.22,0h-5.44a1.48,1.48,0,0,0-.55.09,1.33,1.33,0,0,0,.48,2.59h10c.46,0,.67.09.62.63a13.11,13.11,0,0,0,0,1.88c0,.5-.15.61-.61.61h-10a1.53,1.53,0,0,0-1.41,1.46,1.57,1.57,0,0,0,1.51,1.43H892c.48,0,.67.1.63.64a16.19,16.19,0,0,0,0,2.09c0,.46-.1.61-.57.61h-12a5.11,5.11,0,0,1-2.6-.63,3.31,3.31,0,0,1-1.86-3.1q0-5.66,0-11.29c0-.51.08-.71.65-.71m0-7a7.49,7.49,0,0,0-7.65,7.75c0,4.26,0,7.82,0,11.2a10.32,10.32,0,0,0,5.41,9.24,12.12,12.12,0,0,0,6,1.54h12a7.41,7.41,0,0,0,7.56-8,8.83,8.83,0,0,1,0-1.14,7.73,7.73,0,0,0-.75-4.06,8,8,0,0,0,0-1.09,4.94,4.94,0,0,1,0-.79,9.15,9.15,0,0,0,0-1,7.67,7.67,0,0,0,.75-4,14.16,14.16,0,0,1,0-1.6,7.46,7.46,0,0,0-2-5.71A7.56,7.56,0,0,0,892,84.14h-7.89c-2.62,0-5.23,0-7.84,0Z" fill="#fff"/><path d="M797.8,89.13h-7.19a8.1,8.1,0,0,1-4.9-1.65,6.7,6.7,0,0,1-2.72-5.4q0-5.8,0-11.62a3.87,3.87,0,0,1,4-4h15.88A4.06,4.06,0,0,1,806,67.64a4,4,0,0,1,1,3.08,16.23,16.23,0,0,0,0,2,4.05,4.05,0,0,1-.91,3,4.84,4.84,0,0,1,.13,1.62,9,9,0,0,0,0,1.27,4.09,4.09,0,0,1-.16,1.57,4,4,0,0,1,.94,3c0,.61,0,1.31,0,1.92a3.82,3.82,0,0,1-3.92,4Z" fill="#fe0000" fill-rule="evenodd"/><path d="M803,69.92c.46,0,.6.12.58.6a18.06,18.06,0,0,0,0,2.44c0,.58-.19.66-.68.66h-10.2c-1.18,0-1.91.52-1.91,1.36s.73,1.36,1.9,1.36h4.83c1.53,0,3,0,4.58,0h0c.58,0,.72.19.67.74a12.15,12.15,0,0,0,0,1.81c0,.47-.14.57-.57.57h0l-4.77,0h-5.06a1.46,1.46,0,0,0-.54.09,1.5,1.5,0,0,0-1,1.49,1.58,1.58,0,0,0,1.53,1.34h5.14l5.46,0h0c.52,0,.63.16.61.65,0,.74,0,1.49,0,2.23,0,.33-.08.44-.42.44h0c-4.16,0-8.31,0-12.47,0a4.49,4.49,0,0,1-2.79-.93,3.15,3.15,0,0,1-1.35-2.62q0-5.82,0-11.64c0-.45.16-.51.53-.51h16m0-7H787a7.37,7.37,0,0,0-7.53,7.56c0,4,0,7.89,0,11.58a10.11,10.11,0,0,0,4.1,8.2,11.58,11.58,0,0,0,7,2.36h12.49A7.32,7.32,0,0,0,810.53,85c0-.56,0-1.17,0-1.63a7.76,7.76,0,0,0-.77-4,7.26,7.26,0,0,0,0-1,5.46,5.46,0,0,1,0-.72,8.79,8.79,0,0,0,0-1.14,7.77,7.77,0,0,0,.76-4,11.56,11.56,0,0,1,0-1.55,7.41,7.41,0,0,0-7.57-8Z" fill="#fff"/><path d="M948.71,89.14H936.38a8.19,8.19,0,0,1-4.87-1.58,6.61,6.61,0,0,1-2.82-5.4V81c0-3.51,0-7,0-10.52a3.86,3.86,0,0,1,4-4h15.88a4.09,4.09,0,0,1,3.08,1.21,4,4,0,0,1,1.05,3.08,12.83,12.83,0,0,0,0,1.86,4.16,4.16,0,0,1-.91,3.15,4.77,4.77,0,0,1,.12,1.62,7.88,7.88,0,0,0,0,1.28,4.4,4.4,0,0,1-.16,1.55,4,4,0,0,1,.94,3,17.61,17.61,0,0,0,0,1.78,3.86,3.86,0,0,1-4,4.15Z" fill="#fe0000" fill-rule="evenodd"/><path d="M948.65,69.92c.46,0,.61.12.58.6a15.62,15.62,0,0,0,0,2.37c.06.65-.19.73-.73.73H938.35c-1.19,0-1.91.52-1.92,1.36s.74,1.36,1.91,1.36h4.81c1.53,0,3.07,0,4.6,0h0c.58,0,.71.19.66.74a12.15,12.15,0,0,0,0,1.81c0,.46-.12.57-.56.57h0l-4.84,0h-5a1.58,1.58,0,0,0-.53.07,1.54,1.54,0,0,0-1,1.49,1.61,1.61,0,0,0,1.6,1.35h5.17l5.36,0h0c.51,0,.66.13.62.64-.05.72,0,1.44,0,2.16,0,.38-.08.52-.48.52H936.39a4.65,4.65,0,0,1-2.8-.9,3.06,3.06,0,0,1-1.4-2.58c0-3.9,0-7.81,0-11.71,0-.44.14-.52.53-.52h15.94m0-7H932.71a7.37,7.37,0,0,0-7.53,7.56q0,5.16,0,10.32v1.34a10,10,0,0,0,4.25,8.23,11.66,11.66,0,0,0,6.93,2.26H948.7a7.36,7.36,0,0,0,7.52-7.78,13.4,13.4,0,0,1,0-1.41,7.82,7.82,0,0,0-.77-4.06c0-.32,0-.67,0-1a4.43,4.43,0,0,1,0-.72,11.13,11.13,0,0,0,0-1.14,7.81,7.81,0,0,0,.75-4.26,9.85,9.85,0,0,1,0-1.32,7.41,7.41,0,0,0-7.57-8Z" fill="#fff"/><path d="M848.55,110.45c-.75,0-1.5,0-2.25,0H835.84a4,4,0,0,1-3.05-1.21,4,4,0,0,1-1.06-3c0-.69,0-1.31,0-1.89a4,4,0,0,1,1-3.13,3.73,3.73,0,0,1,.52-.46c-.22-.27-.44-.56-.65-.86-1.67-2.36-1.07-6.66.59-8.52a9.27,9.27,0,0,1,7.13-3.42h.18c1.75,0,3.51,0,5.27,0s3.77,0,5.65,0h1.47a4.14,4.14,0,0,1,3.14,1.25,4.1,4.1,0,0,1,1,3.16,13.36,13.36,0,0,0,0,1.79,4,4,0,0,1-1,3.09,4.18,4.18,0,0,1-.44.4,7.74,7.74,0,0,1,1.5,4.36,7.15,7.15,0,0,1-2.22,5.93,8.86,8.86,0,0,1-6,2.57Z" fill="#fe0000" fill-rule="evenodd"/><path d="M840.38,91.4h.11c1.78,0,3.55,0,5.34,0l7.13,0h0c.54,0,.7.15.67.69a16.45,16.45,0,0,0,0,2.22c0,.51-.15.61-.61.61h0l-6.51,0h-5.15a2.27,2.27,0,0,0-.86.12,1.33,1.33,0,0,0-1,1.23,1.31,1.31,0,0,0,.94,1.25,2.43,2.43,0,0,0,1,.13h7.81a4.74,4.74,0,0,1,4.42,4.39,3.77,3.77,0,0,1-1,3.24,5.48,5.48,0,0,1-3.7,1.69h-.2c-.8,0-1.6,0-2.4,0l-3.66,0h-6.85c-.44,0-.59-.11-.57-.58a19.44,19.44,0,0,0,0-2.29c0-.54.15-.65.65-.65H848a1.63,1.63,0,0,0,1.54-1.51,1.53,1.53,0,0,0-1.51-1.35c-.67,0-1.34,0-2,0h-5.89a5.53,5.53,0,0,1-4.62-2.73,4.58,4.58,0,0,1,.34-4.16,5.86,5.86,0,0,1,4.53-2.26m0-7h0A12.73,12.73,0,0,0,830.64,89c-2.57,2.86-3.19,8-1.62,11.52a7.81,7.81,0,0,0-.79,4,12.29,12.29,0,0,1,0,1.49,7.41,7.41,0,0,0,7.56,7.94H846.3c.83,0,1.5,0,2.11,0h.49a12.32,12.32,0,0,0,8.34-3.45,10.61,10.61,0,0,0,3.4-8.62,11,11,0,0,0-.83-4,7.74,7.74,0,0,0,.82-4,12.59,12.59,0,0,1,0-1.37,7.62,7.62,0,0,0-2-5.78A7.54,7.54,0,0,0,853,84.41h-1.51l-5.63,0c-2,0-3.66,0-5.22,0Z" fill="#fff"/><path d="M805.66,110.5l-2.12,0c-.65,0-1.3,0-1.94,0h-6.66a4.11,4.11,0,0,1-3.21-1.27,4,4,0,0,1-1-3.18,11.32,11.32,0,0,0,0-1.65,4.09,4.09,0,0,1,1-3.17,3.46,3.46,0,0,1,.52-.46,11.65,11.65,0,0,1-.84-1.2c-1.63-2.66-.71-6.77,1.21-8.66a9.46,9.46,0,0,1,6.83-3h.22c1.72,0,3.44,0,5.16,0l4.74,0h2.34a4.1,4.1,0,0,1,3.14,1.25,4,4,0,0,1,1,3.13,13,13,0,0,0,0,1.77,4,4,0,0,1-1,3.13,5.24,5.24,0,0,1-.41.38,6.17,6.17,0,0,1,1.23,2.36,8.08,8.08,0,0,1-7.4,10.45c-.86.08-1.75.12-2.83.12Z" fill="#fe0000" fill-rule="evenodd"/><path d="M799.48,91.39h.14c1.75,0,3.5,0,5.25,0,2.37,0,4.73,0,7.09,0h0c.48,0,.68.1.64.64a18.27,18.27,0,0,0,0,2.22c0,.5-.09.66-.62.66h0l-6.14,0h-5.52a2.19,2.19,0,0,0-.88.13,1.28,1.28,0,0,0,0,2.48,2.38,2.38,0,0,0,.92.12h.23l4.42,0c1,0,2.08,0,3.12-.06h.09c1.62,0,4,1.92,4.26,3.14.78,3.29-.83,5.8-4.35,6.14a22.75,22.75,0,0,1-2.48.11c-1.35,0-2.71-.07-4.06-.07h-6.74c-.48,0-.71-.09-.66-.67a14.16,14.16,0,0,0,0-2.16c0-.53.12-.69.66-.69h11.85a3.24,3.24,0,0,0,.44,0,1.42,1.42,0,0,0,0-2.84,3.54,3.54,0,0,0-.46,0h-.36l-4.42,0c-1,0-2,0-3,0a5.35,5.35,0,0,1-4.5-2.86,4.39,4.39,0,0,1,.69-4.35,6,6,0,0,1,4.37-1.94m0-7h0a12.88,12.88,0,0,0-9.3,4A11.4,11.4,0,0,0,788,100.5a7.82,7.82,0,0,0-.8,4.07,8.66,8.66,0,0,1,0,1.13,7.58,7.58,0,0,0,1.93,5.84,7.5,7.5,0,0,0,5.71,2.4h6.74l1.86,0c.73,0,1.47,0,2.2,0a30.56,30.56,0,0,0,3.17-.14A11.57,11.57,0,0,0,819.3,99.12a9.73,9.73,0,0,0-.44-1.32,7.77,7.77,0,0,0,.75-4,11.39,11.39,0,0,1,0-1.3,7.57,7.57,0,0,0-2-5.77A7.49,7.49,0,0,0,812,84.41h-2.36l-4.75,0c-2,0-3.57,0-5.1,0Z" fill="#fff"/><path d="M763.7,89.14q-.76,0-1.53,0t-1.62,0h-.21a4,4,0,0,1-3-1.17,4.08,4.08,0,0,1-1.16-3c0-2.44,0-4.87,0-7.3v-.53h-3.64c0,2.55,0,5.15,0,7.71A4.21,4.21,0,0,1,751.46,88a4.12,4.12,0,0,1-3,1.19h-.24l-1.57,0-1.93,0h-.11a3.87,3.87,0,0,1-4-4q0-7.23,0-14.46a3.87,3.87,0,0,1,4.05-4h7.9l2.28,0H757c.9,0,1.8,0,2.7,0H760a8,8,0,0,1,5.78,2.49A8.16,8.16,0,0,1,768.13,75c-.09,3-.06,6,0,8.94v.94A4.13,4.13,0,0,1,767,88a4.06,4.06,0,0,1-3,1.18Z" fill="#fe0000" fill-rule="evenodd"/><path d="M760,70.1a4.76,4.76,0,0,1,4.63,4.77c-.1,3.34,0,6.69,0,10,0,.6-.16.75-.65.75h-.13c-.56,0-1.11,0-1.67,0s-1.16,0-1.74,0h-.09c-.46,0-.61-.15-.61-.68,0-3.14,0-6.27,0-9.41,0-1.34-.61-1.94-2-2h-6.9c-1.25,0-1.77.52-1.77,1.78,0,3.16,0,6.32,0,9.47,0,.63-.18.79-.7.79h-.12c-.56,0-1.12,0-1.69,0l-2,0h0c-.38,0-.52-.1-.52-.53q0-7.24,0-14.49c0-.46.19-.5.55-.5h7.9c1.5,0,3,0,4.48,0,1,0,1.89,0,2.84-.05H760m0-7h-.45c-.74,0-1.56,0-2.56,0h-2.17l-2.31,0h-7.9a7.36,7.36,0,0,0-7.55,7.53c0,4.64,0,9.37,0,14.44a7.38,7.38,0,0,0,7.52,7.55h.18l1.86,0c.48,0,1,0,1.44,0h.37A7.53,7.53,0,0,0,754,90.41a5.56,5.56,0,0,0,.46-.5c.17.2.33.38.49.54a7.55,7.55,0,0,0,5.44,2.2h.34c.49,0,1,0,1.49,0l1.4,0h.4a7.5,7.5,0,0,0,5.48-2.22,7.59,7.59,0,0,0,2.17-5.61v-1c0-3-.07-5.9,0-8.77a11.75,11.75,0,0,0-3.33-8.44A11.49,11.49,0,0,0,760,63.1Z" fill="#fff"/><path d="M894.75,89.15a4.09,4.09,0,0,1-3-1.17,4.15,4.15,0,0,1-1.15-3.08c0-2.36,0-4.71,0-7.07v-.72H887c0,2.61,0,5.19,0,7.77A4.15,4.15,0,0,1,885.83,88a4,4,0,0,1-3,1.18h-.2c-.55,0-1.09,0-1.64,0l-2,0h0a3.87,3.87,0,0,1-4.07-4c0-4.83,0-9.65,0-14.48a3.87,3.87,0,0,1,4.06-4h15.3a8,8,0,0,1,8.2,8.18v4c0,2.06,0,4.11,0,6.17a4.09,4.09,0,0,1-1.14,3,4,4,0,0,1-2.93,1.16h-.21c-.55,0-1.09,0-1.64,0s-1.05,0-1.57,0Z" fill="#fe0000" fill-rule="evenodd"/><path d="M879,70.12h15.29A4.55,4.55,0,0,1,899,74.81c0,3.39,0,6.78,0,10.17,0,.49-.11.67-.57.67h-.08c-.59,0-1.18,0-1.77,0s-1.14,0-1.71,0h-.11c-.49,0-.64-.16-.63-.71,0-3.12,0-6.23,0-9.34,0-1.38-.61-2-2-2H885.3c-1.29,0-1.82.52-1.82,1.82,0,3.16,0,6.32,0,9.48,0,.55-.12.74-.64.74h-.08c-.59,0-1.17,0-1.76,0l-2.07,0h0c-.37,0-.49-.12-.49-.51,0-4.83,0-9.67,0-14.5,0-.47.19-.51.56-.51m0-7h0a7.37,7.37,0,0,0-7.56,7.53c0,4.3,0,8.89,0,14.46a7.38,7.38,0,0,0,7.49,7.53h.14l2,0,1.51,0h.33a7.63,7.63,0,0,0,5.47-2.21c.15-.16.32-.34.48-.54a6.59,6.59,0,0,0,.49.54,7.56,7.56,0,0,0,5.46,2.21h.39c.46,0,.94,0,1.43,0s1,0,1.52,0h.33A7.45,7.45,0,0,0,906,84.94q0-3.09,0-6.18v-4a11.61,11.61,0,0,0-11.7-11.67H879Z" fill="#fff"/><path d="M968.25,89.15A4,4,0,0,1,965.31,88a4.19,4.19,0,0,1-1.15-3.08q0-3.69,0-7.38v-.42h-3.64q0,3.93,0,7.85a4.06,4.06,0,0,1-1.14,3,4,4,0,0,1-2.93,1.16h-.19c-.56,0-1.13,0-1.7,0l-2,0h0a3.87,3.87,0,0,1-4.07-4c0-4.83,0-9.66,0-14.48a3.89,3.89,0,0,1,4-4h15.29A8,8,0,0,1,976,74.8v3.26q0,3.45,0,6.9a4.06,4.06,0,0,1-1.14,3A4,4,0,0,1,972,89.15h-.22c-.55,0-1.1,0-1.64,0s-1.08,0-1.62,0Z" fill="#fe0000" fill-rule="evenodd"/><path d="M952.53,70.11h15.29a4.51,4.51,0,0,1,4.69,4.68c0,3.39,0,6.79,0,10.18,0,.47-.07.67-.55.67h-.08c-.59,0-1.19,0-1.79,0s-1.18,0-1.76,0h-.09c-.51,0-.59-.22-.59-.71,0-3.09,0-6.18,0-9.27,0-1.49-.57-2.06-2.07-2.06h-6.76c-1.28,0-1.81.54-1.81,1.83,0,3.18,0,6.36,0,9.55,0,.48-.09.66-.57.66h-.07c-.6,0-1.21,0-1.81,0l-2.09,0h0c-.37,0-.47-.12-.47-.51,0-4.83,0-9.66,0-14.49,0-.46.16-.53.54-.53m0-7A7.38,7.38,0,0,0,945,70.65c0,4.35,0,8.94,0,14.47a7.35,7.35,0,0,0,7.47,7.52h.16l2,0,1.57,0h.31a7.51,7.51,0,0,0,5.41-2.19c.16-.16.32-.34.48-.53.16.19.32.37.47.52a7.55,7.55,0,0,0,5.42,2.2h.38q.74,0,1.47,0t1.5,0H972a7.42,7.42,0,0,0,7.55-7.72q0-3.45,0-6.92V74.8a11.45,11.45,0,0,0-11.68-11.68h-15.3Z" fill="#fff"/><path d="M825.57,110.44l-1.9,0-1.94,0h-.1a4,4,0,0,1-2.91-1.16,4,4,0,0,1-1.1-3c0-.3,0-.6,0-.91a7.55,7.55,0,0,1-5-2.58,6.93,6.93,0,0,1-2-5,16.41,16.41,0,0,0,0-1.74c0-.34,0-.68,0-1v-.91c0-.69,0-1.38,0-2.08a4,4,0,0,1,1.1-3,3.92,3.92,0,0,1,2.89-1.16h.13l1.76,0,1.91,0h0a4,4,0,0,1,2.95,1.14A3.93,3.93,0,0,1,822.51,92c0,1,0,2,0,2.94h2.32c0-.92,0-1.84,0-2.75a4.17,4.17,0,0,1,1.12-3.08,4,4,0,0,1,2.93-1.17h.23q.76,0,1.53,0c.63,0,1.25,0,1.87,0h.13a3.92,3.92,0,0,1,4,4.11l0,.82c0,1.8,0,3.5,0,5.19a7.12,7.12,0,0,1-2.18,5,7.41,7.41,0,0,1-4.81,2.42c0,.31,0,.61,0,.92a3.87,3.87,0,0,1-4,4.11Z" fill="#fe0000" fill-rule="evenodd"/><path d="M828.85,91.4h.08c.56,0,1.12,0,1.69,0l1.93,0h.06c.39,0,.55.1.55.56,0,2.07-.08,4.14,0,6.2.06,1.5-2.16,3.75-3.63,3.75h-.17a6.94,6.94,0,0,0-.91,0l-1.39,0h-.4c-.38,0-.5.14-.49.55,0,1.32,0,2.65,0,4,0,.42-.11.54-.5.54h0l-2,0-2,0h0c-.4,0-.52-.12-.51-.54,0-1.33,0-2.65,0-4,0-.4-.1-.55-.48-.55h-.44l-1.37,0a6.79,6.79,0,0,0-.9,0h-.17c-1.51,0-3.77-2.3-3.64-3.82.09-1,0-2,0-3.06s0-2,0-3.06c0-.39.06-.57.49-.57h0l1.85,0,2,0h0c.37,0,.48.12.47.5,0,1.61,0,3.21,0,4.81a1.55,1.55,0,0,0,1.57,1.67l3.12,0,3,0a1.57,1.57,0,0,0,1.6-1.72c0-1.53,0-3.06,0-4.59,0-.47.07-.68.55-.68m0-7h0a7.55,7.55,0,0,0-5.18,2,7.45,7.45,0,0,0-5.13-2h-.16l-1.85,0-1.67,0h-.22a7.37,7.37,0,0,0-7.49,7.74c0,.65,0,1.31,0,2V95c0,.37,0,.73,0,1.09,0,.54,0,1.05,0,1.37a10.17,10.17,0,0,0,2.91,7.7,12,12,0,0,0,4.23,3,7.36,7.36,0,0,0,7.32,5.73h.17l1.87,0,1.82,0h.19a7.34,7.34,0,0,0,7.31-5.72,12.11,12.11,0,0,0,4-2.8,10.41,10.41,0,0,0,3.16-7.53c-.06-1.59,0-3.24,0-5l0-.85a7.42,7.42,0,0,0-7.55-7.65h-.21l-1.78,0c-.52,0-1,0-1.41,0Z" fill="#fff"/><path d="M773.72,89.16a4,4,0,0,1-3-1.18,4.2,4.2,0,0,1-1.16-3.14c0-2.58,0-5.16,0-7.74h-.22l-2,0h-.11a4,4,0,0,1-3-1.2,4,4,0,0,1-1.07-3,16.8,16.8,0,0,0,0-1.88,3.94,3.94,0,0,1,4.12-4.39l4.07,0h8.44l3.71,0h.1a4,4,0,0,1,4.19,4.53c0,.58,0,1.23,0,1.84a3.86,3.86,0,0,1-4,4.15h0l-2.4,0c0,2.6,0,5.19,0,7.79A4.22,4.22,0,0,1,780.31,88a4.05,4.05,0,0,1-3,1.17h-.25q-.81,0-1.62,0c-.48,0-1,0-1.43,0Z" fill="#fe0000" fill-rule="evenodd"/><path d="M783.66,70.1c.61,0,.74.21.7.78a20.74,20.74,0,0,0,0,2.23c0,.39-.11.51-.49.51h0l-2.39,0-2.2,0c-1.2,0-1.27.07-1.28,1.26,0,3.34,0,6.69,0,10,0,.54-.11.74-.63.74h-.09c-.59,0-1.18,0-1.77,0s-1.1,0-1.65,0h-.12c-.55,0-.62-.26-.61-.79,0-3.32,0-6.64,0-10,0-1.21-.09-1.29-1.32-1.3h-2.39l-2.13,0h0c-.44,0-.55-.15-.53-.58a19.61,19.61,0,0,0,0-2.3c-.05-.56.18-.63.63-.63h0l4,0h8.45c1.26,0,2.51,0,3.76,0h0m0-7h-.16l-3.65,0H771.4l-4,0h-.09a7.44,7.44,0,0,0-7.62,8.15,11.69,11.69,0,0,1,0,1.45,7.55,7.55,0,0,0,2,5.63,7.45,7.45,0,0,0,4.37,2.21c0,1.42,0,2.85,0,4.27a7.49,7.49,0,0,0,7.61,7.84l.54,0c.38,0,.78,0,1.23,0l1.46,0h.4A7.5,7.5,0,0,0,785,84.87c0-1.44,0-2.89,0-4.32a7.34,7.34,0,0,0,6.39-7.71,14.77,14.77,0,0,1,0-1.48,7.52,7.52,0,0,0-7.68-8.26Z" fill="#fff"/><path d="M838.69,89.14l-1.6,0-1.81,0h-.13a3.89,3.89,0,0,1-4-4.11q0-4,0-7.92h-2.3a4,4,0,0,1-3-1.2,4,4,0,0,1-1.06-3,16.83,16.83,0,0,0,0-2,3.94,3.94,0,0,1,4.11-4.3l4.08,0h8.36l3.84,0h0a4.2,4.2,0,0,1,3.23,1.27,4.1,4.1,0,0,1,1,3.19c0,.6,0,1.27,0,1.9a3.88,3.88,0,0,1-1.06,3,3.93,3.93,0,0,1-2.92,1.19l-2.42,0v.05c0,2.6,0,5.19,0,7.78a4.05,4.05,0,0,1-1.15,3,4,4,0,0,1-3,1.17Z" fill="#fe0000" fill-rule="evenodd"/><path d="M845.2,70.11c.53,0,.74.12.7.71a22.06,22.06,0,0,0,0,2.3c0,.4-.13.5-.49.5h0l-2.45,0-2.21,0c-1.14,0-1.23.12-1.23,1.24,0,3.37,0,6.74,0,10.1,0,.52-.12.69-.6.69h-.08l-1.73,0-1.89,0h-.05c-.42,0-.53-.14-.53-.58,0-3.42,0-6.83,0-10.24,0-1.11-.08-1.2-1.18-1.21h-4.7c-.38,0-.54-.1-.52-.54a23.22,23.22,0,0,0,0-2.36c0-.51.16-.61.61-.61h0l4.1,0h8.31l3.89,0h0m0-7h-.11l-3.82,0H833l-4.05,0h-.07a7.43,7.43,0,0,0-7.6,8c0,.51,0,1.06,0,1.64a7.33,7.33,0,0,0,6.39,7.8c0,1.5,0,3,0,4.48a7.4,7.4,0,0,0,7.53,7.62h.22l1.72,0c.49,0,1,0,1.48,0h.33a7.45,7.45,0,0,0,7.6-7.74c0-1.45,0-2.91,0-4.36a7.34,7.34,0,0,0,6.4-7.73c0-.53,0-1.08,0-1.5a7.5,7.5,0,0,0-7.68-8.21Z" fill="#fff"/><path d="M985.79,89.15c-.53,0-1.07,0-1.6,0l-1.8,0h-.14A4,4,0,0,1,979.36,88a4,4,0,0,1-1.14-3q0-4,0-7.92H976a4,4,0,0,1-3.09-1.22,3.91,3.91,0,0,1-1-3c0-.62,0-1.3,0-2a3.92,3.92,0,0,1,1.06-3,4,4,0,0,1,3-1.22l4.13,0h8.26l4,0h0a4.07,4.07,0,0,1,3.08,1.23,4,4,0,0,1,1.06,3.08,16,16,0,0,0,0,1.83,4.08,4.08,0,0,1-1,3.14,4,4,0,0,1-3,1.24h-.16l-2,0h-.17c0,2.61,0,5.22,0,7.83A4.11,4.11,0,0,1,988.94,88,4,4,0,0,1,986,89.15Z" fill="#fe0000" fill-rule="evenodd"/><path d="M992.4,70.11c.47,0,.62.14.6.62A16.6,16.6,0,0,0,993,73c0,.49-.09.67-.58.67h-.06c-.7,0-1.41,0-2.11,0H987.9c-1.22,0-1.31.11-1.31,1.31,0,3.35,0,6.69,0,10,0,.51-.11.69-.6.69h-.08c-.58,0-1.15,0-1.73,0l-1.89,0h0c-.43,0-.53-.16-.53-.59q0-5.05,0-10.1c0-1.29-.05-1.33-1.33-1.34h-4.5c-.4,0-.59-.09-.56-.56a23.42,23.42,0,0,0,0-2.37c0-.47.14-.58.58-.58h0l4.13,0h8.24l4.07,0h0m0-7h-.08l-4,0h-8.24l-4.09,0h-.06A7.41,7.41,0,0,0,968.35,71a14.94,14.94,0,0,1,0,1.64,7.49,7.49,0,0,0,2,5.63,7.39,7.39,0,0,0,4.38,2.23c0,1.49,0,3,0,4.47a7.4,7.4,0,0,0,7.53,7.63h.23l1.71,0c.49,0,1,0,1.46,0H986a7.47,7.47,0,0,0,7.6-7.74c0-1.45,0-2.91,0-4.36a7.43,7.43,0,0,0,6.4-8c0-.44,0-.93,0-1.42a7.43,7.43,0,0,0-7.58-8Z" fill="#fff"/><path d="M862.88,110.38a4.11,4.11,0,0,1-3-1.19,4.18,4.18,0,0,1-1.16-3.12q0-3.87,0-7.72h-.15c-.7,0-1.41,0-2.12,0h-.1a3.9,3.9,0,0,1-4-4.25,19.11,19.11,0,0,0,0-2,3.91,3.91,0,0,1,4.06-4.26h16.45a4,4,0,0,1,3.1,1.23A4,4,0,0,1,877,92.15c0,.58,0,1.22,0,2a3.9,3.9,0,0,1-4,4.19c-.74,0-1.39,0-2,0h-.35v.32c0,2.46,0,4.92,0,7.38a4.23,4.23,0,0,1-1.17,3.14,4.1,4.1,0,0,1-3,1.19h-.27c-.5,0-1,0-1.49,0s-1,0-1.49,0Z" fill="#fe0000" fill-rule="evenodd"/><path d="M872.87,91.35c.45,0,.64.1.61.6a20.82,20.82,0,0,0,0,2.37c0,.42-.12.55-.52.55h0c-.66,0-1.31,0-2,0h-2.42c-1.45,0-1.45,0-1.45,1.48,0,3.25,0,6.51,0,9.76,0,.62-.18.78-.69.78h-.12c-.55,0-1.09,0-1.64,0s-1.09,0-1.64,0h-.13c-.5,0-.68-.16-.67-.78,0-3.36,0-6.73,0-10.1,0-1.07-.08-1.14-1.16-1.14h-2.48c-.73,0-1.46,0-2.19,0h0c-.43,0-.56-.14-.54-.58a23.42,23.42,0,0,0,0-2.37c0-.47.14-.57.57-.57h16.49m0-7H856.38a7.4,7.4,0,0,0-7.56,7.94,15.3,15.3,0,0,1,0,1.66,7.51,7.51,0,0,0,2,5.63,7.39,7.39,0,0,0,4.38,2.21c0,1.42,0,2.83,0,4.23a7.54,7.54,0,0,0,7.67,7.86h.43c.44,0,.89,0,1.34,0s.9,0,1.34,0h.42a7.51,7.51,0,0,0,5.51-2.23A7.66,7.66,0,0,0,874.1,106c0-1.4,0-2.82,0-4.23a7.34,7.34,0,0,0,6.4-7.76,15.54,15.54,0,0,1,0-1.68,7.55,7.55,0,0,0-2-5.68,7.47,7.47,0,0,0-5.59-2.32Z" fill="#fff"/><path d="M871.2,89.14a3.87,3.87,0,0,1-4-4.07c0-1.8,0-3.6,0-5.4V76c0-1.72,0-3.43,0-5.15a4,4,0,0,1,1.13-3,4,4,0,0,1,2.95-1.17h.19c.54,0,1.08,0,1.62,0H875a3.89,3.89,0,0,1,4.08,4q0,7.25,0,14.47a4,4,0,0,1-1.14,2.9A3.94,3.94,0,0,1,875,89.14h-.1l-1.88,0-1.73,0Z" fill="#fe0000" fill-rule="evenodd"/><path d="M871.28,70.11h.08c.58,0,1.15,0,1.73,0h2c.37,0,.49.13.49.52q0,7.23,0,14.48c0,.43-.15.53-.53.53h0l-1.94,0-1.82,0h0c-.41,0-.5-.14-.49-.55,0-2.41,0-4.82,0-7.24s0-4.73,0-7.1c0-.51.14-.64.58-.64m0-7a7.44,7.44,0,0,0-7.58,7.75c0,1.67,0,3.4,0,5.08v3.77c0,1.77,0,3.55,0,5.33a7.35,7.35,0,0,0,7.49,7.6h.22l1.64,0,1.82,0H875a7.4,7.4,0,0,0,7.53-7.55c0-4.52,0-9.25,0-14.44a7.34,7.34,0,0,0-7.49-7.54h-2c-.51,0-1,0-1.52,0Z" fill="#fff"/><path d="M774.3,51.39c-1,0-1.91,0-2.86,0l-3.23,0h0A4,4,0,0,1,764,47.24q0-12.27,0-24.52a4.08,4.08,0,0,1,1.15-3,4,4,0,0,1,3-1.15h3.63c1.13,0,2.26,0,3.39,0h0a4.54,4.54,0,0,1,4,2.19l4.6,7.27c0-1.74,0-3.48,0-5.22a4,4,0,0,1,4.17-4.24H788q1.53,0,3.06,0l3.33,0h0a4,4,0,0,1,3,1.14,4,4,0,0,1,1.14,2.94q0,12.28,0,24.59a3.93,3.93,0,0,1-4.09,4.12l-3.3,0-3.24,0h0A4.41,4.41,0,0,1,784,49.23l-5.24-8.11c0,2,0,3.93,0,5.89a4.35,4.35,0,0,1-1.19,3.18,4.2,4.2,0,0,1-3.11,1.2Z" fill="#fe0000" fill-rule="evenodd"/><path d="M787.9,22.08H788c1,0,2.08,0,3.13,0l3.35,0h0c.43,0,.56.12.55.57q0,12.3,0,24.6c0,.48-.12.62-.58.62h0l-3.27,0-3.29,0h0a1,1,0,0,1-.91-.53q-5.55-8.64-11.13-17.25a1.94,1.94,0,0,0-.54-.63v.7c0,5.62,0,11.24,0,16.87,0,.7-.2.85-.8.85h-.09c-1,0-2,0-2.93,0l-3.27,0h0c-.47,0-.64-.1-.64-.64q0-12.26,0-24.53c0-.54.18-.62.63-.62h0l3.58,0c1.15,0,2.31,0,3.46,0h0a1,1,0,0,1,.95.56q5.45,8.63,10.92,17.23l.14,0v-.74c0-5.44,0-10.87,0-16.31,0-.57.14-.72.67-.72m0-7h0a7.55,7.55,0,0,0-5.49,2.2,7.1,7.1,0,0,0-.79.94,8,8,0,0,0-6.39-3.14h-.13c-1.11,0-2.24,0-3.36,0l-3.51,0h-.11a7.44,7.44,0,0,0-7.63,7.65c0,7.92,0,16.16,0,24.49a7.45,7.45,0,0,0,7.64,7.65h.12l3.19,0c.93,0,1.85,0,2.78,0h.24a7.58,7.58,0,0,0,6.67-3.6,7.94,7.94,0,0,0,6.69,3.59h.11l3.2,0,3.18,0h.12A7.43,7.43,0,0,0,802,47.25c0-8.09,0-16.35,0-24.58a7.4,7.4,0,0,0-7.55-7.58h-.08l-3.3,0c-1,0-2,0-3,0Z" fill="#fff"/><path d="M911,51.93a12,12,0,0,1-10.37-6,12.55,12.55,0,0,1-1.41-11.55,12.88,12.88,0,0,1,8.55-7.68,12.15,12.15,0,0,1,3.09-.41,11.69,11.69,0,0,1,1.87.15c0-.78,0-1.55,0-2.33,0,0,0-.13,0-.21a4.91,4.91,0,0,1,1.08-4.11A4.3,4.3,0,0,1,917,18.5a9.3,9.3,0,0,1,1,.08l.25,0h5a3.93,3.93,0,0,1,4.18,4.1q0,12.28,0,24.59a3.89,3.89,0,0,1-4.05,4.1h-6.9a3.73,3.73,0,0,1-1-.13,17.23,17.23,0,0,1-3.9.67Z" fill="#fe0000" fill-rule="evenodd"/><path d="M917,22c.38,0,.84.1,1.22.1h5.16c.42,0,.59.08.59.59q0,12.3,0,24.6c0,.44-.09.6-.55.6h-6.9c-.16,0-.31-.05-.35-.36,0-.15-.07-.2-.13-.2s-.26.15-.33.18a13.72,13.72,0,0,1-4.27.92H911a8.52,8.52,0,0,1-7.42-4.34,9,9,0,0,1,5.09-14,8.79,8.79,0,0,1,2.19-.29,9.59,9.59,0,0,1,4.65,1.29l.73.41c0-2.53,0-4.95,0-7.36,0-.67-.28-1.53.11-1.95A.92.92,0,0,1,917,22m-3.73,23.33a6.19,6.19,0,0,0,1.05-.08,2,2,0,0,0,1.86-2.13c0-1.23,0-2.46,0-3.69s0-2.46,0-3.69a2.86,2.86,0,0,0-2.83-3h-.11a2.86,2.86,0,0,0-3,2.79c-.09,2.57-.06,5.15,0,7.73a1.93,1.93,0,0,0,1.81,2,6.5,6.5,0,0,0,1.24.11M917,15h0a7.73,7.73,0,0,0-7.89,7.94,17.76,17.76,0,0,0-2.27.42,16.46,16.46,0,0,0-10.93,9.8,16,16,0,0,0,1.74,14.72A15.54,15.54,0,0,0,911,55.43c.27,0,.54,0,.81,0a19.55,19.55,0,0,0,3.91-.58,7.89,7.89,0,0,0,.84.05h6.9A7.42,7.42,0,0,0,931,47.27c0-9.45,0-17.26,0-24.58a7.54,7.54,0,0,0-2.17-5.43,7.45,7.45,0,0,0-5.42-2.17h-5A11.26,11.26,0,0,0,917,15Z" fill="#fff"/><path d="M898.86,52l-3.33,0-3.34,0h0a4.05,4.05,0,0,1-3-1.15,4,4,0,0,1-1.14-3c0-2.88,0-5.78,0-8.67V37.59l-.18.08c.06,2.21,0,4.36,0,6.44,0,1.24,0,2.48,0,3.73a4,4,0,0,1-1.14,3A4,4,0,0,1,883.83,52l-3.31,0-3.24,0h0a3.94,3.94,0,0,1-4.15-4.13q0-8.1,0-16.21a3.94,3.94,0,0,1,4.1-4.11l3.43,0c1,0,2,0,3,0h.11a4.3,4.3,0,0,1,2.09.5A11.78,11.78,0,0,1,891,26.87,13.44,13.44,0,0,1,901.91,33,6.56,6.56,0,0,1,903,36.7c0,3.7,0,7.41,0,11.11A3.91,3.91,0,0,1,898.93,52Z" fill="#fe0000" fill-rule="evenodd"/><path d="M891,30.37a9.88,9.88,0,0,1,8,4.53,3.08,3.08,0,0,1,.5,1.78c0,3.72,0,7.43,0,11.15,0,.45-.06.64-.56.64h0l-3.37,0-3.39,0h0c-.47,0-.59-.14-.58-.61,0-3.63,0-7.25,0-10.87a3.4,3.4,0,0,0-3.29-3,2.48,2.48,0,0,0-.61.07,7.88,7.88,0,0,0-1.54.62,2.77,2.77,0,0,0-1.75,2.84c.1,3.46,0,6.92,0,10.38,0,.49-.13.6-.58.6h0l-3.28,0-3.27,0h0c-.47,0-.58-.15-.58-.62q0-8.12,0-16.23c0-.5.17-.6.6-.6h0l3.41,0c1,0,2.05,0,3.07,0h0c.54,0,.66.2.61.7,0,.31,0,.63,0,1a17.1,17.1,0,0,0,2.34-1.21A8.3,8.3,0,0,1,891,30.37m0-7h0a15.27,15.27,0,0,0-5.14.89,7.94,7.94,0,0,0-2-.25h-.17l-3,0-3.33,0h-.11a7.45,7.45,0,0,0-5.44,2.19,7.57,7.57,0,0,0-2.16,5.44c0,5.13,0,10.43,0,16.18a7.43,7.43,0,0,0,7.58,7.64h.13l3.17,0,3.19,0h.13A7.6,7.6,0,0,0,888,54.3a7.68,7.68,0,0,0,4.14,1.16h.11l3.31,0,3.27,0h.12a7.42,7.42,0,0,0,7.56-7.66c0-3.48,0-7.11,0-11.1A10.13,10.13,0,0,0,904.82,31,17,17,0,0,0,891,23.37Z" fill="#fff"/><path d="M818.67,51.39q-1.44,0-2.88,0l-3.28,0h0a3.94,3.94,0,0,1-4.17-4.11q0-8.15,0-16.29a4,4,0,0,1,1.14-2.92,3.91,3.91,0,0,1,2.88-1.14l3.35,0,3.26,0h0a4.36,4.36,0,0,1,2.09.48,12,12,0,0,1,5.07-1.12,13,13,0,0,1,9,3.68,9.18,9.18,0,0,1,3.14,7.31c-.11,2.72-.07,5.53,0,8.25l0,1.54A4.05,4.05,0,0,1,834,51.38h-.12l-3.13,0-3.17,0h-.1a4.08,4.08,0,0,1-3-1.17,4.19,4.19,0,0,1-1.17-3.07c0-2.67,0-5.35,0-8V37l-.2.1c.05,2,0,4,0,5.85,0,1.37,0,2.74,0,4.11a4.29,4.29,0,0,1-1.17,3.16,4.21,4.21,0,0,1-3.1,1.2Z" fill="#fe0000" fill-rule="evenodd"/><path d="M826.13,29.78a9.6,9.6,0,0,1,6.55,2.71,5.72,5.72,0,0,1,2.05,4.64c-.13,3.32-.06,6.65,0,10,0,.64-.19.78-.75.78h-.07l-3.18,0-3.23,0h-.05c-.53,0-.69-.15-.68-.72,0-3.55,0-7.1,0-10.66a3.35,3.35,0,0,0-3.31-3.14,2.71,2.71,0,0,0-.75.1,8,8,0,0,0-1.48.62,2.71,2.71,0,0,0-1.67,2.75c.1,3.41,0,6.83.05,10.24,0,.67-.18.82-.77.82h-.08l-3,0-3.31,0h0c-.44,0-.6-.1-.6-.6q0-8.16,0-16.31c0-.41.1-.55.52-.55h0l3.3,0,3.32,0h0c.42,0,.61.1.56.57a11.35,11.35,0,0,0,0,1.19c.7-.37,1.34-.66,1.91-1a8.54,8.54,0,0,1,4.64-1.37m0-7h0a15.47,15.47,0,0,0-5.14.88,7.91,7.91,0,0,0-2-.24h-.09l-3.26,0-3.23,0h-.09A7.47,7.47,0,0,0,807,25.59,7.39,7.39,0,0,0,804.84,31c0,6,0,11.3,0,16.27A7.6,7.6,0,0,0,807,52.7a7.48,7.48,0,0,0,5.43,2.18h.11l3.24,0,2.81,0h.23a7.84,7.84,0,0,0,4.33-1.22,7.65,7.65,0,0,0,4.27,1.21h.16l3.12,0,3.07,0H834A7.54,7.54,0,0,0,841.71,47l0-1.54c0-2.8-.07-5.45,0-8.07a12.66,12.66,0,0,0-4.22-10,16.47,16.47,0,0,0-11.37-4.64Z" fill="#fff"/><path d="M938.44,52.51a16.08,16.08,0,0,1-10.08-3.43,12.13,12.13,0,0,1,.46-19.67,16.1,16.1,0,0,1,9.66-3.06,15.89,15.89,0,0,1,9.82,3.23,12.41,12.41,0,0,1,5.11,9.59,12.46,12.46,0,0,1-4.74,9.8,16,16,0,0,1-10.23,3.54Zm.48-18Zm-1,0Z" fill="#fe0000" fill-rule="evenodd"/><path d="M938.51,29.85a12.44,12.44,0,0,1,7.67,2.51c4.88,3.71,5,10,.26,13.91a13,13,0,0,1-15.88.08,8.63,8.63,0,0,1,.33-14.12,12.63,12.63,0,0,1,7.62-2.38m-3.11,9.56h0c0,1.67,0,3.34,0,5a2,2,0,0,0,1.78,2.14,4.91,4.91,0,0,0,1.14.12c.24,0,.49,0,.73,0a2.19,2.19,0,0,0,2.33-2.39c0-3.22,0-6.45,0-9.67a2.78,2.78,0,0,0-2.93-3h0a2.81,2.81,0,0,0-3.05,3c0,1.6,0,3.2,0,4.8m3.11-16.56h0a19.65,19.65,0,0,0-11.71,3.73,15.63,15.63,0,0,0-.59,25.22,20,20,0,0,0,24.73-.13,15.92,15.92,0,0,0,6-12.57,15.92,15.92,0,0,0-6.49-12.31,19.27,19.27,0,0,0-11.89-3.94Zm3.9,11.86Zm-7,11.7h0Z" fill="#fff"/><path d="M862.26,52.52a16.07,16.07,0,0,1-10.51-3.77,12,12,0,0,1,0-18.64,16.56,16.56,0,0,1,21.23.18,12.3,12.3,0,0,1,4.14,8,4.17,4.17,0,0,1-.58,2.74,3.89,3.89,0,0,1-.19,2.58,13.08,13.08,0,0,1-5.7,6.62,16.18,16.18,0,0,1-8.35,2.26Z" fill="#fe0000" fill-rule="evenodd"/><path d="M862.24,29.85a12.42,12.42,0,0,1,8.35,3,8.78,8.78,0,0,1,3,5.78c0,.5,0,.69-.56.69h0c-1,0-2,0-3,0h-7l-3.1,0h0c-.44,0-.61.1-.59.6,0,1.44,0,2.88,0,4.32a2.19,2.19,0,0,0,2.31,2.4c.23,0,.47,0,.71,0a4.44,4.44,0,0,0,1.09-.12,2.17,2.17,0,0,0,1.88-2.31q0-1,0-2c0-.32.08-.44.42-.44h7c.55,0,.39.29.28.56a9.6,9.6,0,0,1-4.22,4.84A13,13,0,0,1,854,46.09a8.46,8.46,0,0,1,0-13.33,12.61,12.61,0,0,1,8.24-2.91m-2.56,6.59h3.72c2,0,2,0,1.88-2a2.92,2.92,0,0,0-3-2.81h-.11a2.72,2.72,0,0,0-2.89,2.55c-.07.65,0,1.3,0,1.95,0,.33.16.36.4.36m2.56-13.59a19.51,19.51,0,0,0-12.82,4.62,15.46,15.46,0,0,0,0,23.93,20,20,0,0,0,22.95,1.86,16.49,16.49,0,0,0,7.15-8.32,7.62,7.62,0,0,0,.56-3.32,7.94,7.94,0,0,0,.44-3.65,15.87,15.87,0,0,0-5.27-10.27,19.32,19.32,0,0,0-13-4.85Z" fill="#fff"/><path d="M846.52,51.38l-3.18,0-3.34,0h0a3.95,3.95,0,0,1-4.17-4.14c0-2,0-4,0-6,0,0,0-6.28,0-7.33h-.08a3.89,3.89,0,0,1-4-3.89c0-1.37-.08-2.87,1.17-4.16a4.26,4.26,0,0,1,2.9-1.26,3.85,3.85,0,0,1,4-3.71h6.89a4,4,0,0,1,3,1.19,3.86,3.86,0,0,1,1.07,2.48h.11a3.87,3.87,0,0,1,4,3.95,5.16,5.16,0,0,1-1.2,4.1,4.32,4.32,0,0,1-2.87,1.26v.67q0,6.28,0,12.57a4,4,0,0,1-4.18,4.25Z" fill="#fe0000" fill-rule="evenodd"/><path d="M846.76,24.42c.41,0,.55.1.54.54,0,.88,0,1.76,0,2.65,0,.38.11.5.46.5h3.16c.35,0,.45.12.46.5,0,1.84,0,1.83-1.82,1.85h0c-.43,0-.93-.11-1.36-.11a1,1,0,0,0-.75.25c-.36.39-.12,1.36-.12,2.07,0,4.84,0,9.67,0,14.5,0,.56-.13.73-.68.73h0l-3.22,0-3.4,0h0c-.46,0-.6-.12-.6-.61,0-2.72,0-5.44,0-8.15s0-5.4,0-8.09c0-.47-.13-.61-.54-.61h-.09l-1,0h-2c-.34,0-.48-.09-.49-.49,0-1.85-.07-1.85,1.8-1.85H839c.31,0,.41-.12.4-.47,0-.91,0-1.81,0-2.72,0-.39.11-.5.49-.5h6.93m0-7h-6.93a7.43,7.43,0,0,0-5.42,2.23A7.72,7.72,0,0,0,833,21.72a7.46,7.46,0,0,0-2.58,1.73,8.57,8.57,0,0,0-2.15,6.67,7.43,7.43,0,0,0,4.07,6.53v4.6c0,2,0,4,0,6a7.44,7.44,0,0,0,7.6,7.67H840l3.32,0,3.1,0h.16a7.53,7.53,0,0,0,5.5-2.2,7.63,7.63,0,0,0,2.18-5.56c0-3.53,0-7.12,0-10.63a7.22,7.22,0,0,0,1.88-1.41,8.58,8.58,0,0,0,2.19-6.56,7.4,7.4,0,0,0-4.82-7,7.74,7.74,0,0,0-1.3-1.86,7.49,7.49,0,0,0-5.48-2.26Z" fill="#fff"/><path d="M806.89,51.38l-3.14,0-3.26,0h0a3.95,3.95,0,0,1-4.16-4.14c0-5.39,0-10.8,0-16.2a3.92,3.92,0,0,1,4.09-4.12l3.26,0,3.29,0h0a3.91,3.91,0,0,1,4.12,4.1c0,2.05,0,4.09,0,6.13v4.09c0,2,0,4,0,6A3.95,3.95,0,0,1,807,51.38Z" fill="#fe0000" fill-rule="evenodd"/><path d="M800.42,30.42h0l3.23,0,3.32,0h0c.43,0,.56.12.56.57,0,2.72,0,5.44,0,8.16s0,5.39,0,8.08c0,.51-.12.65-.61.65h0l-3.2,0-3.28,0h0c-.46,0-.6-.13-.6-.62,0-5.41,0-10.82,0-16.23,0-.5.15-.61.59-.61m0-7a7.42,7.42,0,0,0-7.59,7.64c0,5.13,0,10.43,0,16.18a7.43,7.43,0,0,0,7.6,7.64h.11l3.2,0,3.1,0H807a7.44,7.44,0,0,0,7.61-7.73c0-1.95,0-4,0-5.9V37.1c0-2,0-4,0-6.05A7.42,7.42,0,0,0,807,23.42h-.09l-3.25,0-3.16,0Z" fill="#fff"/><path d="M800.3,30.24a3.87,3.87,0,0,1-4-4.08c0-1.2,0-2.39,0-3.59a3.82,3.82,0,0,1,3.92-4h6.89a3.8,3.8,0,0,1,3.94,4c0,1.22,0,2.43,0,3.65A3.84,3.84,0,0,1,810,29.09a3.88,3.88,0,0,1-2.86,1.14h-5.35l-1.37,0Z" fill="#fe0000" fill-rule="evenodd"/><path d="M800.25,22.09h6.91c.34,0,.43.11.42.43,0,1.26,0,2.51,0,3.77,0,.38-.15.44-.46.44h-5.35l-1.44,0h0c-.37,0-.48-.14-.47-.51,0-1.24,0-2.47,0-3.7,0-.32.08-.44.42-.44m0-7a7.31,7.31,0,0,0-7.42,7.53c0,1,0,2.23,0,3.48a7.49,7.49,0,0,0,2.11,5.44,7.41,7.41,0,0,0,5.36,2.2h6.83a7.32,7.32,0,0,0,7.45-7.58c0-1,0-2.13,0-3.53a7.3,7.3,0,0,0-7.41-7.53h-6.92Z" fill="#fff"/><path d="M858.31,7q42.32,0,84.63,0a27.72,27.72,0,0,1,14.63,3.82A27.06,27.06,0,0,1,971.11,31a27.73,27.73,0,0,1-19,30.42A28.72,28.72,0,0,1,943,62.82H792.72c-6.71,0-13.43,0-20.14,0a27.9,27.9,0,0,1-8.15-54.41A29.09,29.09,0,0,1,773.69,7Zm0,49.23h84.55a25.41,25.41,0,0,0,4.44-.36,21.3,21.3,0,0,0-3.92-42.27H773.23A21.3,21.3,0,0,0,756.34,48a21.09,21.09,0,0,0,17.35,8.21Q816,56.22,858.32,56.24Z" fill="#fe0000" fill-rule="evenodd"/><path d="M913.71,70.12c3.39,0,6.78.07,10.17,0a4.76,4.76,0,0,1,4.75,4.74c-.12,3.34,0,6.69,0,10,0,.68-.21.8-.81.78a31.25,31.25,0,0,0-3.21,0c-.65,0-.86-.12-.85-.82,0-3,0-6.09,0-9.13,0-1.56-.54-2.09-2.08-2.09h-1.61c-1.41,0-1.93.51-1.93,1.92q0,4.32,0,8.64c0,1.46,0,1.46-1.48,1.46-.95,0-1.91,0-2.85,0-.62,0-.71-.19-.71-.74,0-3.11,0-6.22,0-9.34,0-1.38-.57-2-1.92-2h-1.81c-1.36,0-1.86.5-1.87,1.84,0,3.16,0,6.32,0,9.47,0,.58-.16.75-.73.73-1.26-.05-2.51,0-3.76,0-.4,0-.58-.06-.58-.52q0-7.25,0-14.49c0-.57.3-.51.66-.51Z" fill="#030303" fill-rule="evenodd"/><path d="M907.44,91.36c3.37,0,6.74.09,10.1,0a4.75,4.75,0,0,1,4.73,4.7c-.08,3.39,0,6.78,0,10.17,0,.49-.08.7-.63.68-1.21,0-2.42,0-3.63,0-.49,0-.61-.13-.6-.61,0-3.14,0-6.28,0-9.41,0-1.44-.55-2-2-2-.72,0-1.44,0-2.16,0a1.37,1.37,0,0,0-1.47,1.35,11.62,11.62,0,0,0,0,1.18c0,3,0,5.9,0,8.85,0,.47-.09.65-.6.63-1.28,0-2.55,0-3.83,0-.55,0-.64-.18-.64-.67q0-4.68,0-9.34c0-1.48-.53-2-2-2-.63,0-1.26,0-1.89,0-1.17,0-1.72.54-1.73,1.75,0,3,0,6,0,9.06,0,1.19,0,1.19-1.19,1.19s-2.23,0-3.34,0c-.39,0-.51-.1-.51-.5,0-4.83,0-9.66,0-14.5,0-.54.25-.52.62-.52Z" fill="#030303" fill-rule="evenodd"/><path d="M857.59,70.12c1.84,0,3.67,0,5.51,0a2.73,2.73,0,0,1,2,.73,5.75,5.75,0,0,1,2.19,4.59c-.1,3.18,0,6.36,0,9.54,0,.57-.18.69-.7.67-1.21,0-2.42,0-3.63,0-.56,0-.77-.11-.74-.71.06-1,0-2,0-3,0-.43-.08-.59-.56-.59-2.67,0-5.34,0-8,0-.42,0-.57.09-.55.53,0,1.07,0,2.14,0,3.21,0,.42-.11.56-.55.55-1.32,0-2.64,0-4,0-.42,0-.55-.11-.55-.54,0-3.51-.08-7,0-10.52A5.33,5.33,0,0,1,851,70.27a1.85,1.85,0,0,1,1-.15Zm0,7.75c1.37,0,2.74,0,4.11,0,.36,0,.48-.09.47-.46,0-.72,0-1.44,0-2.16a1.61,1.61,0,0,0-1.68-1.65c-1.92,0-3.84,0-5.77,0a1.48,1.48,0,0,0-1.64,1.63c0,.7,0,1.4,0,2.09,0,.48.16.56.58.55C855,77.86,856.31,77.88,857.63,77.87Z" fill="#030303" fill-rule="evenodd"/><path d="M815,70.12c2.39,0,4.78,0,7.17,0a2.66,2.66,0,0,1,1.84.69c2.23,2,2.91,4.73,1.25,7.36a2.08,2.08,0,0,0-.19,2.22,3.3,3.3,0,0,1,.3,1.62c0,1,0,2.09,0,3.13,0,.33,0,.52-.44.51-1.13,0-2.27,0-3.41,0-.33,0-.45-.11-.44-.45q0-1.11,0-2.22a1.48,1.48,0,0,0-1.67-1.61h-5.78A1.49,1.49,0,0,0,812,82.94c0,.74,0,1.49,0,2.23,0,.36-.1.48-.47.47q-2.05,0-4.11,0c-.37,0-.46-.12-.46-.47q0-7.29,0-14.56c0-.51.24-.49.6-.49Zm1.53,7.75h3.06a1.31,1.31,0,0,0,1.49-1.43,11.81,11.81,0,0,0,0-1.19,1.49,1.49,0,0,0-1.7-1.64c-1.56,0-3.11,0-4.66,0-2.43-.1-2.82.39-2.73,2.8a1.35,1.35,0,0,0,1.48,1.47C814.53,77.89,815.55,77.87,816.57,77.87Z" fill="#030303" fill-rule="evenodd"/><path d="M732.06,69.93c2.65,0,5.29,0,7.94,0,.44,0,.62.08.59.56a18.74,18.74,0,0,0,0,2.37c0,.59-.11.79-.75.78-3.34,0-6.69,0-10,0-.21,0-.42,0-.63,0a1.36,1.36,0,1,0,.07,2.71c1.53,0,3.07,0,4.6,0,1.79,0,3.58,0,5.36,0,.51,0,.63.14.6.61a14.74,14.74,0,0,0,0,1.88c0,.49-.1.62-.6.62-3.2,0-6.41,0-9.61,0a1.89,1.89,0,0,0-.82.1,1.5,1.5,0,0,0-.95,1.54,1.59,1.59,0,0,0,1.54,1.27c3.5,0,7,0,10.52,0,.51,0,.74.08.7.67a19.44,19.44,0,0,0,0,2.16c0,.34-.07.49-.46.49-4.16,0-8.32,0-12.47,0a4.59,4.59,0,0,1-2.73-.91,3.1,3.1,0,0,1-1.39-2.59c0-3.9,0-7.81,0-11.71,0-.51.24-.49.6-.49Z" fill="#030303" fill-rule="evenodd"/><path d="M885.91,106.86h-5.86a5.11,5.11,0,0,1-2.6-.63,3.31,3.31,0,0,1-1.86-3.1q0-5.66,0-11.29c0-.52.08-.71.66-.71q7.88,0,15.75,0c.54,0,.67.15.64.66a22.07,22.07,0,0,0,0,2.44c0,.55-.17.63-.66.63-3.46,0-6.92,0-10.39,0a2.09,2.09,0,0,0-.82.08,1.33,1.33,0,0,0,.48,2.59c1,0,2.09,0,3.13,0,2.28,0,4.56,0,6.83,0,.5,0,.72.08.67.63a13.11,13.11,0,0,0,0,1.88c0,.51-.15.62-.63.61h-9.4a5.19,5.19,0,0,0-.56,0,1.53,1.53,0,0,0-1.41,1.46,1.57,1.57,0,0,0,1.51,1.43q5.29,0,10.59,0c.51,0,.7.09.66.64a16.19,16.19,0,0,0,0,2.09c0,.48-.1.62-.6.61C890,106.84,888,106.86,885.91,106.86Z" fill="#030303" fill-rule="evenodd"/><path d="M795.05,69.93c2.63,0,5.25,0,7.88,0,.49,0,.63.11.61.6a18.06,18.06,0,0,0,0,2.44c0,.59-.2.66-.7.66-3.39,0-6.79,0-10.18,0-1.18,0-1.91.52-1.91,1.36s.73,1.36,1.9,1.36c3.14,0,6.27,0,9.41,0,.6,0,.75.18.7.74a12.15,12.15,0,0,0,0,1.81c0,.48-.15.57-.59.57q-4.77,0-9.54,0a2.12,2.12,0,0,0-.83.08,1.5,1.5,0,0,0-1,1.49,1.58,1.58,0,0,0,1.53,1.34c3.54,0,7.07,0,10.6,0,.54,0,.66.15.63.65,0,.74,0,1.49,0,2.23,0,.33-.08.44-.43.44-4.16,0-8.31,0-12.47,0a4.49,4.49,0,0,1-2.79-.93,3.15,3.15,0,0,1-1.35-2.62q0-5.82,0-11.63c0-.47.16-.52.56-.52C789.71,69.94,792.38,69.93,795.05,69.93Z" fill="#030303" fill-rule="evenodd"/><path d="M940.74,69.93c2.63,0,5.25,0,7.88,0,.48,0,.64.11.61.6a15.62,15.62,0,0,0,0,2.37c.07.67-.21.74-.77.73-3.37,0-6.74,0-10.11,0-1.19,0-1.91.52-1.92,1.36s.74,1.36,1.91,1.36c3.13,0,6.27,0,9.41,0,.6,0,.74.18.69.74a12.15,12.15,0,0,0,0,1.81c0,.46-.12.57-.57.57-3.21,0-6.41,0-9.62,0a2.13,2.13,0,0,0-.75.07,1.54,1.54,0,0,0-1,1.49,1.61,1.61,0,0,0,1.6,1.35c3.51,0,7,0,10.53,0,.52,0,.68.12.64.64-.05.72,0,1.44,0,2.16,0,.38-.08.52-.49.52H936.39a4.65,4.65,0,0,1-2.8-.9,3.06,3.06,0,0,1-1.4-2.58c0-3.9,0-7.81,0-11.71,0-.45.14-.52.55-.52C935.4,69.94,938.07,69.93,940.74,69.93Z" fill="#030303" fill-rule="evenodd"/><path d="M842.64,106.93c-2.28,0-4.55,0-6.83,0-.45,0-.61-.1-.59-.58a19.44,19.44,0,0,0,0-2.29c0-.54.16-.65.67-.65,3.83,0,7.66,0,11.49,0H848a1.63,1.63,0,0,0,1.54-1.51,1.53,1.53,0,0,0-1.51-1.35c-1.42,0-2.84,0-4.26,0h-3.62a5.53,5.53,0,0,1-4.65-2.73,4.58,4.58,0,0,1,.34-4.16,5.82,5.82,0,0,1,4.64-2.26c4.15.07,8.31,0,12.47,0,.55,0,.71.14.68.69a16.45,16.45,0,0,0,0,2.22c0,.51-.16.61-.63.61-3.83,0-7.66,0-11.49,0a2.73,2.73,0,0,0-1,.12,1.33,1.33,0,0,0-1,1.23,1.31,1.31,0,0,0,.94,1.25,2.4,2.4,0,0,0,1,.13h7.74a4.74,4.74,0,0,1,4.42,4.39,3.77,3.77,0,0,1-1,3.24,5.38,5.38,0,0,1-3.9,1.68C846.68,106.87,844.66,106.93,842.64,106.93Z" fill="#030303" fill-rule="evenodd"/><path d="M801.6,106.93c-2.24,0-4.47,0-6.7,0-.51,0-.75-.08-.7-.67a14.16,14.16,0,0,0,0-2.16c0-.54.12-.7.68-.69,3.86,0,7.72,0,11.57,0a5.4,5.4,0,0,0,.7,0,1.42,1.42,0,0,0,0-2.84c-.23,0-.46,0-.7,0-2.5,0-5,0-7.52,0a5.35,5.35,0,0,1-4.5-2.86,4.39,4.39,0,0,1,.69-4.35,6,6,0,0,1,4.51-1.94c4.11.09,8.23,0,12.34,0,.5,0,.7.09.66.64a18.27,18.27,0,0,0,0,2.22c0,.51-.1.66-.63.66-3.84,0-7.67,0-11.51,0a2.57,2.57,0,0,0-1,.13,1.28,1.28,0,0,0,0,2.48,2.38,2.38,0,0,0,1,.12c2.58,0,5.16.09,7.73,0a5.53,5.53,0,0,1,4.35,3.14c.78,3.29-.83,5.8-4.35,6.14A64.81,64.81,0,0,1,801.6,106.93Z" fill="#030303" fill-rule="evenodd"/><path d="M752.51,70.12c2.44,0,4.88.08,7.32,0a4.75,4.75,0,0,1,4.8,4.77c-.1,3.34,0,6.69,0,10,0,.65-.19.77-.78.75-1.13-.05-2.27,0-3.41,0-.53,0-.7-.12-.7-.68,0-3.14,0-6.27,0-9.41,0-1.34-.61-1.94-2-2h-6.9c-1.25,0-1.77.52-1.77,1.78,0,3.16,0,6.32,0,9.47,0,.68-.21.81-.82.79-1.23-.05-2.46,0-3.69,0-.4,0-.56-.08-.56-.53q0-7.24,0-14.49c0-.48.2-.51.58-.5Z" fill="#030303" fill-rule="evenodd"/><path d="M886.88,70.12h7.39A4.55,4.55,0,0,1,899,74.81c0,3.39,0,6.78,0,10.17,0,.52-.12.69-.65.67-1.16-.05-2.33-.05-3.48,0-.57,0-.75-.12-.74-.71,0-3.12,0-6.23,0-9.34,0-1.38-.61-2-2-2H885.3c-1.29,0-1.82.52-1.82,1.82,0,3.16,0,6.32,0,9.48,0,.57-.13.76-.72.74-1.28-.05-2.56,0-3.83,0-.4,0-.52-.11-.52-.51,0-4.83,0-9.67,0-14.5,0-.48.2-.51.58-.51Z" fill="#030303" fill-rule="evenodd"/><path d="M960.43,70.12h7.39a4.51,4.51,0,0,1,4.69,4.68c0,3.39,0,6.79,0,10.18,0,.5-.07.69-.63.67-1.18-.05-2.37-.05-3.55,0-.59,0-.68-.19-.68-.71,0-3.09,0-6.18,0-9.27,0-1.49-.57-2.06-2.07-2.06h-6.76c-1.28,0-1.81.54-1.81,1.83,0,3.18,0,6.36,0,9.55,0,.51-.1.68-.64.66-1.3-.05-2.6,0-3.9,0-.4,0-.51-.11-.51-.51,0-4.83,0-9.66,0-14.49,0-.47.16-.53.56-.53C955.18,70.13,957.8,70.12,960.43,70.12Z" fill="#030303" fill-rule="evenodd"/><path d="M814.16,95c0-1,0-2,0-3.06,0-.41.07-.58.53-.57,1.27,0,2.55,0,3.83,0,.39,0,.51.11.5.5,0,1.61,0,3.21,0,4.81a1.55,1.55,0,0,0,1.57,1.67q3.06,0,6.13,0a1.57,1.57,0,0,0,1.6-1.72c0-1.53,0-3.06,0-4.59,0-.5.07-.7.63-.68,1.21,0,2.42,0,3.62,0,.43,0,.61.08.61.56,0,2.07-.08,4.14,0,6.2.07,1.55-2.33,3.92-3.8,3.74-.87-.11-1.76,0-2.64,0-.43,0-.56.12-.55.55,0,1.32,0,2.65,0,4,0,.43-.11.55-.54.54-1.33,0-2.65,0-4,0-.43,0-.56-.11-.55-.54,0-1.33,0-2.65,0-4,0-.43-.11-.57-.55-.55-.88,0-1.77-.08-2.64,0-1.51.18-4-2.23-3.81-3.81C814.23,97.09,814.16,96.06,814.16,95Z" fill="#030303" fill-rule="evenodd"/><path d="M775.53,70.12c2.7,0,5.39,0,8.08,0,.65,0,.79.19.75.78a20.74,20.74,0,0,0,0,2.23c0,.4-.12.52-.52.51q-2.3,0-4.59,0c-1.2,0-1.27.07-1.28,1.26,0,3.34,0,6.69,0,10,0,.57-.13.76-.72.74-1.14-.05-2.28-.06-3.42,0-.66,0-.74-.21-.73-.78,0-3.32,0-6.64,0-10,0-1.21-.09-1.29-1.32-1.3-1.51,0-3,0-4.52,0-.47,0-.59-.14-.57-.58a19.61,19.61,0,0,0,0-2.3c-.05-.57.19-.63.67-.63C770.1,70.13,772.81,70.12,775.53,70.12Z" fill="#030303" fill-rule="evenodd"/><path d="M837.08,70.12c2.69,0,5.39,0,8.08,0,.56,0,.78.1.74.71a22.06,22.06,0,0,0,0,2.3c0,.4-.13.5-.52.5-1.55,0-3.11,0-4.66,0-1.14,0-1.23.12-1.23,1.24,0,3.37,0,6.74,0,10.1,0,.55-.14.71-.68.69-1.21-.05-2.42,0-3.62,0-.47,0-.58-.13-.58-.58,0-3.42,0-6.83,0-10.24,0-1.11-.08-1.2-1.18-1.21-1.55,0-3.11,0-4.66,0-.41,0-.58-.08-.56-.54a23.22,23.22,0,0,0,0-2.36c0-.52.17-.61.63-.61C831.6,70.13,834.34,70.12,837.08,70.12Z" fill="#030303" fill-rule="evenodd"/><path d="M984.16,70.12c2.74,0,5.48,0,8.22,0,.49,0,.64.13.62.62A16.6,16.6,0,0,0,993,73c0,.5-.1.68-.64.67-1.49,0-3,0-4.46,0-1.22,0-1.31.11-1.31,1.31,0,3.35,0,6.69,0,10,0,.53-.12.71-.68.69-1.21-.05-2.42,0-3.62,0-.47,0-.58-.14-.58-.59q0-5.05,0-10.1c0-1.29-.05-1.33-1.33-1.34-1.48,0-3,0-4.45,0-.43,0-.64-.07-.61-.56a23.42,23.42,0,0,0,0-2.37c0-.48.15-.58.6-.58C978.68,70.13,981.42,70.12,984.16,70.12Z" fill="#030303" fill-rule="evenodd"/><path d="M864.69,91.36c2.72,0,5.44,0,8.15,0,.47,0,.67.09.64.6a20.82,20.82,0,0,0,0,2.37c0,.44-.13.55-.56.55-1.46,0-2.92,0-4.39,0s-1.45,0-1.45,1.48c0,3.25,0,6.51,0,9.76,0,.67-.21.8-.81.77-1.09,0-2.19,0-3.28,0-.6,0-.81-.1-.8-.77,0-3.36,0-6.73,0-10.1,0-1.07-.08-1.14-1.16-1.14-1.56,0-3.11,0-4.67,0-.46,0-.6-.12-.58-.58a23.42,23.42,0,0,0,0-2.37c0-.48.15-.57.59-.57C859.16,91.37,861.93,91.36,864.69,91.36Z" fill="#030303" fill-rule="evenodd"/><path d="M870.72,77.85c0-2.36,0-4.73,0-7.1,0-.54.15-.65.66-.64,1.23,0,2.46,0,3.69,0,.39,0,.52.11.52.51q0,7.23,0,14.48c0,.45-.16.54-.57.53-1.25,0-2.51,0-3.76,0-.44,0-.54-.13-.53-.55C870.73,82.68,870.72,80.27,870.72,77.85Z" fill="#030303" fill-rule="evenodd"/><path d="M787.24,39.85v-.74c0-5.44,0-10.87,0-16.31,0-.58.15-.73.72-.72,2.16,0,4.32,0,6.48,0,.46,0,.59.11.58.57q0,12.3,0,24.6c0,.49-.13.63-.61.62-2.19,0-4.37,0-6.56,0a1,1,0,0,1-.93-.53q-5.55-8.64-11.13-17.25a1.94,1.94,0,0,0-.54-.63v.7c0,5.62,0,11.24,0,16.87,0,.73-.22.86-.89.85-2.07,0-4.13,0-6.2,0-.49,0-.68-.08-.68-.64q0-12.26,0-24.53c0-.56.19-.63.67-.62,2.35,0,4.69,0,7,0a1,1,0,0,1,1,.56q5.45,8.63,10.92,17.23Z" fill="#fe0000" fill-rule="evenodd"/><path d="M916.21,31.54c0-2.53,0-4.95,0-7.36,0-.67-.28-1.53.11-1.95s1.27-.12,1.94-.13c1.69,0,3.39,0,5.09,0,.45,0,.63.07.63.59q0,12.3,0,24.6c0,.44-.09.61-.57.6-2.21,0-4.42,0-6.62,0-.25,0-.55.11-.61-.35s-.34-.07-.46,0a13.72,13.72,0,0,1-4.27.92,8.5,8.5,0,0,1-7.9-4.33,9,9,0,0,1,11.93-13Zm0,7.89c0-1.23,0-2.46,0-3.69a3,3,0,0,0-6-.21c-.09,2.57-.06,5.15,0,7.73a1.93,1.93,0,0,0,1.81,2,6.52,6.52,0,0,0,2.29,0,2,2,0,0,0,1.86-2.13C916.22,41.89,916.2,40.66,916.2,39.43Z" fill="#fe0000" fill-rule="evenodd"/><path d="M884.39,32.73a17.1,17.1,0,0,0,2.34-1.21c4.48-2.59,9.66-.53,12.26,3.38a3.08,3.08,0,0,1,.5,1.78c0,3.72,0,7.43,0,11.15,0,.45-.06.64-.58.64-2.26,0-4.51,0-6.76,0-.49,0-.62-.13-.61-.61,0-3.63,0-7.25,0-10.87a3.36,3.36,0,0,0-3.9-3,7.88,7.88,0,0,0-1.54.62,2.77,2.77,0,0,0-1.75,2.84c.1,3.46,0,6.92,0,10.38,0,.5-.14.61-.62.6-2.18,0-4.37,0-6.55,0-.49,0-.61-.14-.61-.62q0-8.12,0-16.23c0-.51.17-.6.63-.59,2.16,0,4.32,0,6.48,0,.59,0,.71.19.66.7C884.37,32,884.39,32.34,884.39,32.73Z" fill="#fe0000" fill-rule="evenodd"/><path d="M819.58,32.18c.7-.37,1.34-.66,1.91-1a9,9,0,0,1,11.19,1.34,5.72,5.72,0,0,1,2.05,4.64c-.13,3.32-.06,6.65,0,10,0,.67-.2.79-.82.78q-3.2,0-6.41,0c-.57,0-.74-.13-.73-.72,0-3.55,0-7.1,0-10.66a3.33,3.33,0,0,0-4.06-3,8,8,0,0,0-1.48.62,2.71,2.71,0,0,0-1.67,2.75c.1,3.41,0,6.83.05,10.24,0,.7-.2.83-.85.82-2.09,0-4.18,0-6.27,0-.47,0-.64-.09-.64-.6q0-8.16,0-16.31c0-.42.1-.55.54-.55,2.21,0,4.41,0,6.62,0,.44,0,.64.09.59.57A11.35,11.35,0,0,0,819.58,32.18Z" fill="#fe0000" fill-rule="evenodd"/><path d="M938.51,29.85a12.44,12.44,0,0,1,7.67,2.51c4.88,3.71,5,10,.26,13.91a13,13,0,0,1-15.88.08,8.63,8.63,0,0,1,.33-14.12A12.63,12.63,0,0,1,938.51,29.85Zm-3.11,9.56h0c0,1.67,0,3.34,0,5a2,2,0,0,0,1.78,2.14,6.19,6.19,0,0,0,1.87.09,2.19,2.19,0,0,0,2.33-2.39c0-3.22,0-6.45,0-9.67a3,3,0,1,0-6,0C935.38,36.21,935.4,37.81,935.4,39.41Z" fill="#fe0000" fill-rule="evenodd"/><path d="M866.45,39.34c-2.18,0-4.36,0-6.55,0-.46,0-.64.09-.62.6,0,1.44,0,2.88,0,4.32a2.19,2.19,0,0,0,2.31,2.4,5.73,5.73,0,0,0,1.8-.09,2.17,2.17,0,0,0,1.88-2.31q0-1,0-2c0-.33.08-.44.42-.44,2.35,0,4.7,0,7,0,.56,0,.4.28.29.56a9.6,9.6,0,0,1-4.22,4.84A13,13,0,0,1,854,46.09a8.46,8.46,0,0,1,0-13.33,13,13,0,0,1,16.59.13,8.78,8.78,0,0,1,3,5.78c0,.51,0,.7-.6.69C870.82,39.33,868.64,39.34,866.45,39.34Zm-4.16-2.9h1.11c2,0,2,0,1.88-2a2.92,2.92,0,0,0-3-2.81,2.73,2.73,0,0,0-3,2.54c-.07.65,0,1.3,0,1.95,0,.34.18.36.44.36Z" fill="#fe0000" fill-rule="evenodd"/><path d="M839.35,39.12c0-2.7,0-5.4,0-8.09,0-.5-.15-.63-.63-.61-1,0-2,0-2.92,0-.37,0-.53-.07-.54-.49,0-1.85-.07-1.85,1.8-1.85.6,0,1.21,0,1.81,0,.36,0,.49-.08.47-.46,0-.91,0-1.81,0-2.72,0-.39.11-.51.5-.5q3.45,0,6.9,0c.42,0,.57.1.56.54,0,.88,0,1.76,0,2.65,0,.4.11.51.5.5,1,0,2.05,0,3.07,0,.39,0,.5.1.51.5,0,1.84,0,1.83-1.82,1.85-.73,0-1.71-.32-2.13.14s-.12,1.36-.12,2.07c0,4.84,0,9.67,0,14.5,0,.58-.14.74-.72.73-2.21,0-4.42,0-6.62,0-.49,0-.63-.11-.63-.61C839.36,44.55,839.35,41.83,839.35,39.12Z" fill="#fe0000" fill-rule="evenodd"/><path d="M807.58,39.15c0,2.69,0,5.39,0,8.08,0,.52-.13.66-.65.65-2.16,0-4.32,0-6.48,0-.48,0-.63-.12-.63-.62,0-5.41,0-10.82,0-16.23,0-.51.15-.61.63-.61,2.18,0,4.36,0,6.55,0,.44,0,.58.11.58.57C807.56,33.71,807.58,36.43,807.58,39.15Z" fill="#fe0000" fill-rule="evenodd"/><path d="M803.68,26.73c-1.11,0-2.23,0-3.34,0-.4,0-.52-.12-.51-.51,0-1.24,0-2.47,0-3.7,0-.32.08-.44.43-.44q3.45,0,6.9,0c.34,0,.43.11.42.43,0,1.26,0,2.51,0,3.77,0,.39-.16.45-.49.44C806,26.72,804.82,26.73,803.68,26.73Z" fill="#fe0000" fill-rule="evenodd"/></g></svg>