<svg xmlns="http://www.w3.org/2000/svg" viewBox="0 0 1000 114"><title>logo</title><g id="Layer_2" data-name="Layer 2"><rect x="368.38729" y="50.54579" width="29.99463" height="37.64968" fill="#fff"/><rect x="419.47472" y="34.41661" width="11.80146" height="31.96034" fill="#fff"/><rect x="542.19528" y="66.37695" width="19.17171" height="20.64648" fill="#fff"/><rect x="548.57737" y="60.35517" width="10.87137" height="13.48108" fill="#fff"/><rect x="613.56562" y="68.12604" width="17.72146" height="17.72146" fill="#fff"/><rect x="587.90883" y="25.96385" width="25.6568" height="27.58144" fill="#fff"/><rect x="572.16507" y="41.66852" width="35.64665" height="44.54317" fill="#fff"/><rect x="443.08758" y="19.40946" width="25.52194" height="28.42795" fill="#fff"/><rect x="445.82026" y="56.21697" width="44.36385" height="29.63055" fill="#fff"/><rect x="479.07085" y="15.2632" width="73.76089" height="59.70182" fill="#fff"/></g><g id="Capa_1" data-name="Capa 1"><path d="M386.25361,110.50006a3.50135,3.50135,0,0,1-1.73144-.458L345.67744,87.9317a3.50056,3.50056,0,0,1-1.76855-3.042v-.17432a3.36526,3.36526,0,0,1-.0542-.60156V39.90826a3.50059,3.50059,0,0,1,1.83935-3.081l1.32129-.7124a3.50013,3.50013,0,0,1,1.83838-2.98975l31.04785-16.73535A6.63827,6.63827,0,0,1,383.0793,8.6524a6.63009,6.63009,0,0,1,11.269-2.23291,5.5146,5.5146,0,0,1,3.80273-.28418c9.8003,1.54,17.85352,4.83838,23.937,9.80469,5.418,4.50537,8.36914,10.28125,8.13769,15.88623.09375,5.25391-1.96973,10.4751-6.13525,15.52491a34.083,34.083,0,0,1-4.59473,6.16406,22.45751,22.45751,0,0,1-4.0498,6.41113,19.34166,19.34166,0,0,1-2.93506,4.28027c-.24756.54248-.51563,1.103-.83155,1.66358l14.79493-8.42139a3.50008,3.50008,0,0,1,5.23144,3.042V80.42584a3.50055,3.50055,0,0,1-1.76855,3.042l-1.33789.76123v.66065a3.50057,3.50057,0,0,1-1.76856,3.042l-38.8457,22.11035A3.50139,3.50139,0,0,1,386.25361,110.50006Zm6.61426-84.30664c8.57764.92871,15.37939,3.3667,20.7207,7.41553a17.40535,17.40535,0,0,1,2.51172,2.24756,7.0479,7.0479,0,0,0-.66748-2.84473c-2.2583-3.91162-6.61914-7.01025-13.32715-9.47217q-.08569-.03148-.16992-.06738a25.38649,25.38649,0,0,0-5.14306-1.34522c-1.28614-.24609-2.59913-.49755-3.92481-.86572Z" fill="#010101"/><path d="M389.36013,7.65388a3.13293,3.13293,0,0,1,0,6.26585c-.01027,0-.01968-.00285-.02991-.003a2.80723,2.80723,0,0,1-.07482,1.40708l.11246-.06067V29.41c7.74965.47626,15.79524,2.20423,22.10656,6.98785,2.46662,1.79955,4.142,4.38253,5.72444,6.94226l.13959-.13965c.21715-.20908.42835-.42967.63783-.65281,1.74729-3.51648,2.32171-7.58436.55365-11.17066-3.21133-5.66241-9.3003-8.95123-15.21865-11.12311-3.68445-1.57459-7.81871-1.52809-11.50315-3.04059a2.09763,2.09763,0,0,1,1.72067-3.3255,2.057,2.057,0,0,1,.71492.1297c8.04371,1.23333,16.14941,3.89386,22.52541,9.09862a20.12139,20.12139,0,0,1,5.9063,7.75209,10.46082,10.46082,0,0,0-1.03974-3.95679c-3.21129-5.66236-9.3003-8.95118-15.21862-11.12307-3.68444-1.57385-7.81873-1.52726-11.50317-3.03984A2.09762,2.09762,0,0,1,396.63457,9.423a2.05676,2.05676,0,0,1,.71494.12972c8.04368,1.2333,16.14941,3.89385,22.52538,9.09858,3.87059,3.21907,7.11291,7.88854,6.84918,13.13207.12677,5.14638-2.29161,9.72176-5.52736,13.57332a30.76808,30.76808,0,0,1-4.65635,6.19353,19.21927,19.21927,0,0,1-3.96534,6.30126,16.06412,16.06412,0,0,1-3.00536,4.36329,11.87307,11.87307,0,0,1-2.121,3.55841c-.43612.4721-.77553.80042-1.04644,1.04271a11.458,11.458,0,0,1-2.05936,3.422c-.13785.14931-.26443.28174-.384.40417a13.85332,13.85332,0,0,1-2.1585,2.47605c-.0998.27408-.21559.61387-.36627,1.068a13.08806,13.08806,0,0,1-2.02447,2.69515l28.79589-16.39032v19.9347l-3.10651,1.76818v2.69574L386.25354,107l-38.8447-22.11047v-.80512l-.05427.0295V39.90849l3.16-1.70335V36.20623l34.79894-18.75768a3.12421,3.12421,0,0,1,.94-6.10638c.01027,0,.01968.00285.02991.003a3.10248,3.10248,0,0,1,3.07668-3.69126M413.51466,46.8794c.04853-.03485.09871-.06738.14715-.10235a11.76785,11.76785,0,0,0-3.42071-6.12c-5.58674-5.1302-13.48121-6.88647-20.87324-7.01044v.49171c6.75489.72952,13.52941,2.57794,19.0008,6.72508a21.078,21.078,0,0,1,5.146,6.016m-6.35657,3.66637c.73641,0,1.524-.69087,2.222-.88325.18385-.117.36462-.23955.54791-.35759a10.16151,10.16151,0,0,0-2.79271-4.1839c-4.80976-4.41668-11.32991-6.32892-17.76747-6.85571V44.6319c5.9626.39165,12.1048,1.76142,16.91736,5.48053a1.11883,1.11883,0,0,0,.87287.43334m-5.8399,2.74573c.12311-.03607.23633-.071.32618-.1035,1.487-.45221.913-.69118.41343-1.07436-3.78308-2.36438-8.30973-3.04729-12.68994-3.30376v.59668a29.95937,29.95937,0,0,1,11.95033,3.88494m-10.48678,1.512c1.07172,0,3.11446-.12857,3.11446-.12857.18788-.0262.38015-.05379.575-.08241a29.33133,29.33133,0,0,0-5.153-1.04723v1.1875c.57027.03621.98.05841,1.12471.0647.0955.00416.2101.006.33884.006m5.42616,7.61581c.38777-.05556.77564-.10994,1.16177-.1754a2.40709,2.40709,0,0,0-.27027-.31642c-.44368.1191-.88741.24086-1.33076.35907.14747.04063.29353.08632.43926.13275M385.588,67.40205c1.79441,0,3.593-.07808,5.3814-.25158q-1.03656.0465-2.07379.04654a45.72708,45.72708,0,0,1-8.63488-.82l-1.09594.59073c.688.09468,1.37364.159,1.98564.28389,1.47134.097,2.953.15046,4.43757.15046m.263,6.43418a31.069,31.069,0,0,0,4.10255-.36388q-.50507.01257-1.01467.0128c-3.94725,0-8.04933-.59848-11.33056-2.54971q-1.50282-.27358-2.989-.644c2.84674,3.02516,7.33783,3.35866,11.23169,3.5448M370.7889,72.03082c-.07607-.10412-.16059-.19682-.23409-.30438-.01556-.03491-.02483-.0628-.03959-.09692l-.2215.11944.49518.28186m15.09171,5.92145a30.68259,30.68259,0,0,1-5.49363-.45836l8.97315,5.10741,1.706-.971a1.58252,1.58252,0,0,1-1.51518-1.17761c-.21067-.93,3.03539-3.032,1.94782-3.03177a5.58651,5.58651,0,0,0-1.38161.32474c-1.35837.12573-2.78635.2066-4.23652.2066M389.36013.65388a10.1447,10.1447,0,0,0-9.08274,5.64276,10.126,10.126,0,0,0-4.15673,8.155L347.19319,30.0444a6.99923,6.99923,0,0,0-3.25088,3.75211,6.99994,6.99994,0,0,0-3.58774,6.112V84.11391a8.52749,8.52749,0,0,0,3.5915,6.85914l38.84471,22.11048a7,7,0,0,0,6.92547,0l38.84553-22.11048a7.00019,7.00019,0,0,0,3.38513-4.63118,7.00024,7.00024,0,0,0,3.25867-5.91629V60.49091a7,7,0,0,0-10.46271-6.08356L422.294,55.80121q.07869-.1656.15555-.33079a37.412,37.412,0,0,0,4.52856-6.12134c4.5609-5.61078,6.8299-11.48842,6.74869-17.48361.23694-6.67023-3.16857-13.43365-9.37593-18.59609l-.04944-.04074c-6.53184-5.332-15.08115-8.87046-25.41823-10.52106a9.00942,9.00942,0,0,0-2.24865-.28456,8.90783,8.90783,0,0,0-1.40093.11109A10.0775,10.0775,0,0,0,389.36013.65388Z" fill="#fff"/><path d="M542.75508,107.39948q-54.81592,0-109.64063-.00977a3.50008,3.50008,0,0,1-3.499-3.50879q.01172-4.64576,0-9.28271a3.50008,3.50008,0,0,1,3.5-3.50879H652.64521a3.49954,3.49954,0,0,1,3.5,3.5v9.3081a3.50017,3.50017,0,0,1-3.5,3.5Z" fill="#010101"/><path d="M606.1461,94.58707q23.2473,0,46.49933.00224v9.308q-54.96291,0-109.92565.00194-54.80207,0-109.60418-.00967.01164-4.65408,0-9.30028,23.14682.00245,46.28471.00223,63.37072,0,126.74579-.00447m0-7-63.37328.00223-63.37249.00223-46.284-.00223a7.00008,7.00008,0,0,0-7.00073,7.01759q.01164,4.62486,0,9.26514a7.00008,7.00008,0,0,0,6.9985,7.01755q54.80275.01159,109.60568.00969l54.963-.001,54.96265-.001a7,7,0,0,0,7-7v-9.308a7,7,0,0,0-6.9993-7l-46.5-.00223Z" fill="#fff"/><path d="M433.44893,81.27252a3.49985,3.49985,0,0,1-3.5-3.5v-53.626a3.41083,3.41083,0,0,1,0-1.08252V8.607a3.49924,3.49924,0,0,1,3.5-3.5l17.53955.00733c.13867-.0044.36621-.00733.59375-.00733A27.83537,27.83537,0,0,1,474.051,16.40826a29.55964,29.55964,0,0,1,5.70947,15.936c.38769,12.2041-7.335,23.76074-18.36622,27.59033a35.21884,35.21884,0,0,1-12.70849,1.85254h-4.60058V77.77252a3.49986,3.49986,0,0,1-3.5,3.5Zm13.21191-33.13769c1.90185,0,3.79443-.00684,5.70508-.03272a14.06037,14.06037,0,0,0,10.812-5.62939c.021-.02783.042-.05567.06348-.083a15.17336,15.17336,0,0,0,.998-16.51074,14.87077,14.87077,0,0,0-11.90918-7.2959c-1.65039-.07568-3.49316-.11133-5.90478-.11133q-1.20191,0-2.40332.0083l.05615,29.65186Z" fill="#010101"/><path d="M451.58094,8.60675a24.28076,24.28076,0,0,1,19.64327,9.86614,25.90615,25.90615,0,0,1,5.04187,14.07064c.32573,10.28539-6.2054,20.70262-16.06416,24.1a31.99565,31.99565,0,0,1-11.51708,1.64368h-8.09956V77.77277h-7.13619V23.62647l-.04649.00384.04649-.204V8.60718l17.53794.00695q.29688-.00738.59391-.00738m-4.8847,43.02814c1.906,0,3.80261-.00678,5.718-.03316a17.53455,17.53455,0,0,0,13.5742-7.04308A18.61009,18.61009,0,0,0,467.26052,24.112a18.2759,18.2759,0,0,0-14.69892-9.021c-2.046-.095-4.0936-.11928-6.1426-.11928-1.96713,0-3.93554.02241-5.90356.0262l.06984,36.62939c2.07,0,4.09579.00758,6.111.00758m4.8847-50.02813q-.337,0-.67407.00734l-17.455-.00692h-.00277a7,7,0,0,0-7,7V22.82436a6.998,6.998,0,0,0,0,1.61176V77.77277a7,7,0,0,0,7,7h7.13619a7,7,0,0,0,7-7V65.28723h1.09956a39.02144,39.02144,0,0,0,13.90306-2.06218c12.41643-4.33471,21.10509-17.3118,20.67467-30.9031q-.00279-.0882-.00781-.17632a33.10012,33.10012,0,0,0-6.37757-17.80219A31.392,31.392,0,0,0,451.58094,1.60676Zm-4.009,43.02759-.0432-22.65986c1.79718.00941,3.26094.043,4.63295.10552a11.25845,11.25845,0,0,1,8.97251,5.41851q.04106.07429.08392.14758a11.55464,11.55464,0,0,1-.72334,12.57432q-.06489.08214-.12729.16624a10.49615,10.49615,0,0,1-8.066,4.216c-1.4004.01926-2.8894.02937-4.72952.03172Z" fill="#fff"/><path d="M543.9167,51.88873a3.5004,3.5004,0,0,1-3.43994-4.14648,25.84855,25.84855,0,0,0-.51807-11.84619,3.49982,3.49982,0,0,1,3.36914-4.44776h10.499a3.49986,3.49986,0,0,1,3.5,3.5V48.38824a3.50027,3.50027,0,0,1-3.5,3.50049Z" fill="#010101"/><path d="M553.82673,34.94812v13.4408h-9.91a29.34989,29.34989,0,0,0-.58875-13.4408h10.49872m0-7H543.328a7,7,0,0,0-6.73867,8.89478,22.35044,22.35044,0,0,1,.44772,10.25384,7,7,0,0,0,6.8797,8.29218h9.91a7,7,0,0,0,7-7V34.94812a7,7,0,0,0-7-7Z" fill="#fff"/><path d="M514.9958,82.35016A39.42505,39.42505,0,1,1,550.48945,25.775a3.49975,3.49975,0,0,1-3.15039,5.02442h-7.40137a3.50066,3.50066,0,0,1-2.96435-1.63916A25.93193,25.93193,0,1,0,538.218,54.47467a3.50015,3.50015,0,0,1,3.13232-1.93848h7.08887a3.50011,3.50011,0,0,1,3.2583,4.77784A39.19994,39.19994,0,0,1,514.9958,82.35016Z" fill="#010101"/><path d="M514.996,7a35.91334,35.91334,0,0,1,32.343,20.29926h-7.40143a29.43184,29.43184,0,1,0,1.41254,28.73693h7.08881A35.9234,35.9234,0,1,1,514.996,7m0-7a42.92559,42.92559,0,1,0,39.95961,58.59221,7,7,0,0,0-6.51666-9.556h-7.08881a7,7,0,0,0-6.26492,3.87736,22.43868,22.43868,0,1,1-1.07608-21.89229,7,7,0,0,0,5.92846,3.278H547.339a7,7,0,0,0,6.301-10.04915A43.1838,43.1838,0,0,0,514.996,0Z" fill="#fff"/><path d="M633.33076,81.296a3.49941,3.49941,0,0,1-3.03808-1.7627l-9.6084-16.80566L611.0749,79.53326a3.49943,3.49943,0,0,1-3.03808,1.7627H592.2209a3.50023,3.50023,0,0,1-3.03858-5.23731l19.5625-34.21337L597.55146,22.26862v.05175a3.49985,3.49985,0,0,1-3.5,3.5H576.08857V31.4483h16.97461a3.49986,3.49986,0,0,1,3.5,3.5V48.38824a3.49985,3.49985,0,0,1-3.5,3.5H576.08857V77.796a3.49986,3.49986,0,0,1-3.5,3.5H559.44893a3.49986,3.49986,0,0,1-3.5-3.5V8.607a3.49986,3.49986,0,0,1,3.5-3.5H609.5876a3.49943,3.49943,0,0,1,3.03808,1.7627l8.0586,14.09326,8.05761-14.09326A3.49946,3.49946,0,0,1,631.78,5.107h15.81543a3.49982,3.49982,0,0,1,3.03809,5.23731l-18.01075,31.501,19.5625,34.21337a3.4998,3.4998,0,0,1-3.03808,5.23731Z" fill="#010101"/><path d="M647.59578,8.60719,628.59187,41.84532l20.55524,35.95076H633.33119L620.68391,55.67632,608.03663,77.79608H592.22078L612.776,41.84532,594.05134,9.09557V22.32024H572.58857V34.94813h20.47455v13.44H572.58857v29.408H559.44874V8.60719H609.588l11.096,19.40721,11.096-19.40721h15.81592m0-7H631.77986A7,7,0,0,0,625.703,5.13277l-5.01907,8.77855-5.0191-8.77855A6.99991,6.99991,0,0,0,609.588,1.60719H559.44874a7,7,0,0,0-7,7V77.79608a7,7,0,0,0,7,7h13.13983a7,7,0,0,0,7-7v-22.408h13.47455a6.98321,6.98321,0,0,0,5.28211-2.40643L586.144,74.32158a7,7,0,0,0,6.07682,10.4745h15.81585a7,7,0,0,0,6.07685-3.52551L620.68391,69.779l6.57047,11.49153a7,7,0,0,0,6.07681,3.52551h15.81592a7,7,0,0,0,6.07684-10.4745l-18.5687-32.4763,17.0174-29.76365a7,7,0,0,0-6.07687-10.47444Zm0,14h0ZM596.53334,28.86747q.31146-.11814.608-.26441l.70639,1.23548a7.01946,7.01946,0,0,0-1.31439-.97107Zm3.17245,21.73462a6.99354,6.99354,0,0,0,.35733-2.214v-13.44a7.02357,7.02357,0,0,0-.167-1.527l4.81647,8.42412-5.00678,8.7568Z" fill="#fff"/><path d="M440.70332,94.98639a3.50292,3.50292,0,0,0-3.02051,0H436.988a3.50637,3.50637,0,0,0-3.00977,0h-.80469a3.49987,3.49987,0,0,1-3.5-3.5v-8.0293a3.49987,3.49987,0,0,1,3.5-3.5h1.25a3.49948,3.49948,0,0,1,2.917,1.56592,3.501,3.501,0,0,1,2.91748-1.56592h1.24951a3.49987,3.49987,0,0,1,3.5,3.5v8.0293a3.49987,3.49987,0,0,1-3.5,3.5Z" fill="#010101"/><path d="M441.50752,83.45691v8.02972h-.80432V84.33728l-3.02045,7.14935h-.695l-3.00964-7.14935v7.14935h-.80432V83.45691h1.24957l2.92273,6.83441,2.91187-6.83441h1.24957m0-7H440.258a6.9889,6.9889,0,0,0-2.9173.63673,6.9892,6.9892,0,0,0-2.9173-.63673h-1.24957a7,7,0,0,0-7,7v8.02972a7,7,0,0,0,7,7h.80432a7.03829,7.03829,0,0,1,3.00964,0h.695a7.03809,7.03809,0,0,1,3.02045,0h.80432a7,7,0,0,0,7-7V83.45691a7,7,0,0,0-7-7Z" fill="#fff"/><path d="M445.81465,95.128c-3.72461,0-6.227-2.67725-6.227-6.66162V83.45709a3.49986,3.49986,0,0,1,3.5-3.5h.8042a3.503,3.503,0,0,0,3.85693,0h.8042a3.49987,3.49987,0,0,1,3.5,3.5v5.00928C452.05293,92.45074,449.54609,95.128,445.81465,95.128Zm1.58691-6.478" fill="#010101"/><path d="M448.55293,83.45691V88.4662c0,2.18344-1.1084,3.16161-2.7381,3.16161-1.61883,0-2.72723-.97817-2.72723-3.16161V83.45691h.80438V88.4662c0,1.64049.674,2.42314,1.93372,2.42314,1.2387,0,1.92285-.78186,1.92285-2.42314V83.45691h.80438m0-7h-.80438a7.04707,7.04707,0,0,1-3.85657,0h-.80438a7,7,0,0,0-7,7V88.4662c0,5.888,4.09088,10.16161,9.72723,10.16161,5.64264,0,9.7381-4.27358,9.7381-10.16161V83.45691a7,7,0,0,0-7-7Z" fill="#fff"/><path d="M450.13545,94.98639a3.49986,3.49986,0,0,1-3.5-3.5v-8.0293a3.49986,3.49986,0,0,1,3.5-3.5h.8042a3.49987,3.49987,0,0,1,3.5,3.5v3.80567a3.50016,3.50016,0,0,1,3.3247,3.4956v.728a3.49986,3.49986,0,0,1-3.5,3.5Z" fill="#010101"/><path d="M450.93971,83.45691v7.30133h3.32446v.72839h-4.12884V83.45691h.80438m0-7h-.80438a7,7,0,0,0-7,7v8.02972a7,7,0,0,0,7,7h4.12884a7,7,0,0,0,7-7v-.72839a6.99513,6.99513,0,0,0-3.32446-5.95853v-1.3428a7,7,0,0,0-7-7Z" fill="#fff"/><path d="M455.68525,94.98639a3.49987,3.49987,0,0,1-3.5-3.5V87.2652a3.50029,3.50029,0,0,1-1.83593-3.08008v-.72754a3.49986,3.49986,0,0,1,3.5-3.5h4.47607a3.49986,3.49986,0,0,1,3.5,3.5v.72754a3.5003,3.5003,0,0,1-1.83594,3.08008v4.22119a3.49986,3.49986,0,0,1-3.5,3.5Z" fill="#010101"/><path d="M458.32556,83.45764v.7276h-1.836v7.30139h-.80441V84.18524h-1.836v-.7276h4.47635m0-7h-4.47635a7,7,0,0,0-7,7v.7276a6.97414,6.97414,0,0,0,1.836,4.72585v2.57554a7,7,0,0,0,7,7h.80441a7,7,0,0,0,7-7V88.91109a6.97419,6.97419,0,0,0,1.836-4.72585v-.7276a7,7,0,0,0-7-7Z" fill="#fff"/><rect x="455.65937" y="79.95709" width="7.8042" height="15.0293" rx="3.5" fill="#010101"/><path d="M459.96383,83.45691v8.02972h-.80441V83.45691h.80441m0-7h-.80441a7,7,0,0,0-7,7v8.02972a7,7,0,0,0,7,7h.80441a7,7,0,0,0,7-7V83.45691a7,7,0,0,0-7-7Z" fill="#fff"/><path d="M469.07881,94.98639a3.50509,3.50509,0,0,0-3.02149,0h-.69482a3.50637,3.50637,0,0,0-3.00977,0h-.8042a3.49987,3.49987,0,0,1-3.5-3.5v-8.0293a3.49987,3.49987,0,0,1,3.5-3.5h1.24952a3.49947,3.49947,0,0,1,2.917,1.56592,3.501,3.501,0,0,1,2.91748-1.56592h1.25a3.49987,3.49987,0,0,1,3.5,3.5v8.0293a3.49987,3.49987,0,0,1-3.5,3.5Z" fill="#010101"/><path d="M469.88229,83.45691v8.02972h-.8036V84.33728l-3.02124,7.14935h-.695l-3.00961-7.14935v7.14935h-.80438V83.45691h1.24965l2.92271,6.83441,2.91188-6.83441h1.24959m0-7H468.6327a6.989,6.989,0,0,0-2.9173.63673,6.98919,6.98919,0,0,0-2.91729-.63673h-1.24965a7,7,0,0,0-7,7v8.02972a7,7,0,0,0,7,7h.80438a7.039,7.039,0,0,1,3.00961,0h.695a7.03879,7.03879,0,0,1,3.02124,0h.8036a7,7,0,0,0,7-7V83.45691a7,7,0,0,0-7-7Z" fill="#fff"/><path d="M471.46309,94.98639a3.49986,3.49986,0,0,1-3.5-3.5v-8.0293a3.49986,3.49986,0,0,1,3.5-3.5h4.38964a3.49986,3.49986,0,0,1,3.5,3.5v.72754a3.48508,3.48508,0,0,1-.37255,1.57276,3.48944,3.48944,0,0,1,.25195,1.30615v.72754a3.483,3.483,0,0,1-.272,1.35449,3.48262,3.48262,0,0,1,.39257,1.61182v.729a3.49986,3.49986,0,0,1-3.5,3.5Z" fill="#010101"/><path d="M475.85261,83.45691v.72754h-3.58594V87.0638h3.4657v.72752h-3.4657v2.96617h3.58594v.72914h-4.38952V83.45691h4.38952m0-7h-4.38952a7,7,0,0,0-7,7v8.02972a7,7,0,0,0,7,7h4.38952a7,7,0,0,0,7-7v-.72914a7.01452,7.01452,0,0,0-.22351-1.7615,7.04332,7.04332,0,0,0,.10327-1.20467V87.0638a7.05187,7.05187,0,0,0-.0944-1.15241,7.01221,7.01221,0,0,0,.21464-1.72694v-.72754a7,7,0,0,0-7-7Z" fill="#fff"/><path d="M477.21846,94.98639a3.49986,3.49986,0,0,1-3.5-3.5v-8.0293a3.49986,3.49986,0,0,1,3.5-3.5h1.89111a8.96545,8.96545,0,0,1,4.86719,1.13086,7.23543,7.23543,0,0,1,3.522,6.41113c0,4.47852-3.26221,7.48731-8.11768,7.48731Z" fill="#010101"/><path d="M479.10963,83.45691a5.55285,5.55285,0,0,1,3.0639.6306,3.7473,3.7473,0,0,1,1.82512,3.41139c0,2.31458-1.47764,3.98773-4.61754,3.98773h-2.16252V83.45691h1.891M478.023,90.759h1.11924a4.34726,4.34726,0,0,0,2.89016-.71673,3.24,3.24,0,0,0,1.15185-2.5752,3.11657,3.11657,0,0,0-1.456-2.76062,4.8,4.8,0,0,0-2.58606-.52124H478.023V90.759m1.08665-14.30212h-1.891a7,7,0,0,0-7,7v8.02972a7,7,0,0,0,7,7h2.16252c6.73166,0,11.61754-4.621,11.61754-10.98773a10.66986,10.66986,0,0,0-5.24261-9.4252,12.508,12.508,0,0,0-6.64641-1.61679Z" fill="#fff"/><rect x="481.73262" y="79.95709" width="7.80469" height="15.0293" rx="3.5" fill="#010101"/><path d="M486.03714,83.45691v8.02972h-.80442V83.45691h.80442m0-7h-.80442a7,7,0,0,0-7,7v8.02972a7,7,0,0,0,7,7h.80442a7,7,0,0,0,7-7V83.45691a7,7,0,0,0-7-7Z" fill="#fff"/><path d="M493.83662,94.98639A3.49975,3.49975,0,0,1,490.8,93.22662a3.50173,3.50173,0,0,1-3.03711,1.75977h-.84717a3.49967,3.49967,0,0,1-3.21631-4.87988l3.44434-8.0293a3.49962,3.49962,0,0,1,3.21631-2.12012h.90185a3.49931,3.49931,0,0,1,3.21485,2.1167l3.45508,8.0293a3.49967,3.49967,0,0,1-3.21485,4.8833Z" fill="#010101"/><path d="M491.262,83.45691l3.45483,8.02972h-.88039l-1.1627-2.70556h-3.738L487.763,91.48663h-.847l3.44395-8.02972h.90212m-2.02137,4.59662h3.11817l-1.54279-3.68366-1.57538,3.68366M491.262,76.45691h-.90212a7,7,0,0,0-6.43323,4.24077l-3.444,8.02971a7,7,0,0,0,6.43325,9.75924h.847a6.98922,6.98922,0,0,0,3.03675-.6929,6.99013,6.99013,0,0,0,3.03672.6929h.88039a7,7,0,0,0,6.4301-9.76658l-3.45485-8.02971a7,7,0,0,0-6.43008-4.23343Z" fill="#fff"/><path d="M498.53535,94.98639a3.49987,3.49987,0,0,1-3.5-3.5v-8.0293a3.49987,3.49987,0,0,1,3.5-3.5H502.925a3.49987,3.49987,0,0,1,3.5,3.5v.72754a3.48907,3.48907,0,0,1-.37207,1.57227,3.48993,3.48993,0,0,1,.252,1.30664v.72754a3.4854,3.4854,0,0,1-.272,1.355,3.48618,3.48618,0,0,1,.39209,1.61133v.729a3.49987,3.49987,0,0,1-3.5,3.5Z" fill="#010101"/><path d="M502.925,83.45691v.72754h-3.58594V87.0638h3.4657v.72752h-3.4657v2.96617H502.925v.72914h-4.38953V83.45691H502.925m0-7h-4.38953a7,7,0,0,0-7,7v8.02972a7,7,0,0,0,7,7H502.925a7,7,0,0,0,7-7v-.72914a7.01452,7.01452,0,0,0-.22351-1.7615,7.04332,7.04332,0,0,0,.10327-1.20467V87.0638a7.05076,7.05076,0,0,0-.09441-1.15241,7.01173,7.01173,0,0,0,.21465-1.72694v-.72754a7,7,0,0,0-7-7Z" fill="#fff"/><path d="M509.87568,94.98639a3.49947,3.49947,0,0,0-4.78125,0h-.8042a3.49987,3.49987,0,0,1-3.5-3.5v-8.0293a3.49987,3.49987,0,0,1,3.5-3.5h1.08643a3.50024,3.50024,0,0,0,4.49853,0h.8042a3.49986,3.49986,0,0,1,3.5,3.5v8.0293a3.49986,3.49986,0,0,1-3.5,3.5Z" fill="#010101"/><path d="M510.67933,83.45691v8.02972h-.80357l-4.78121-7.0625v7.0625h-.80438V83.45691h1.08673l4.49811,6.65985V83.45691h.80432m0-7H509.875a7.0183,7.0183,0,0,1-4.49811,0h-1.08673a7,7,0,0,0-7,7v8.02972a7,7,0,0,0,7,7h.80438a7.01622,7.01622,0,0,1,4.78121,0h.80357a7,7,0,0,0,7-7V83.45691a7,7,0,0,0-7-7Z" fill="#fff"/><path d="M513.34785,94.98639a3.49987,3.49987,0,0,1-3.5-3.5V87.2652a3.49863,3.49863,0,0,1-1.83642-3.08008v-.72754a3.49986,3.49986,0,0,1,3.5-3.5H515.988a3.49987,3.49987,0,0,1,3.5,3.5v.72754a3.5003,3.5003,0,0,1-1.83594,3.08008v4.22119a3.49986,3.49986,0,0,1-3.5,3.5Z" fill="#010101"/><path d="M515.988,83.45764v.7276h-1.836v7.30139h-.80442V84.18524h-1.836v-.7276H515.988m0-7h-4.47635a7,7,0,0,0-7,7v.7276a6.97419,6.97419,0,0,0,1.836,4.72585v2.57554a7,7,0,0,0,7,7h.80442a7,7,0,0,0,7-7V88.91109a6.97418,6.97418,0,0,0,1.836-4.72585v-.7276a7,7,0,0,0-7-7Z" fill="#fff"/><path d="M516.822,94.98639a3.49987,3.49987,0,0,1-3.5-3.5v-8.0293a3.49987,3.49987,0,0,1,3.5-3.5h4.38965a3.49986,3.49986,0,0,1,3.5,3.5v.72754a3.48509,3.48509,0,0,1-.37256,1.57276,3.48925,3.48925,0,0,1,.25195,1.30615v.72754a3.48278,3.48278,0,0,1-.272,1.35449,3.48251,3.48251,0,0,1,.39258,1.61182v.729a3.49986,3.49986,0,0,1-3.5,3.5Z" fill="#010101"/><path d="M521.21138,83.45691v.72754H517.6255V87.0638h3.46564v.72752H517.6255v2.96617h3.58588v.72914h-4.38947V83.45691h4.38947m0-7h-4.38947a7,7,0,0,0-7,7v8.02972a7,7,0,0,0,7,7h4.38947a7,7,0,0,0,7-7v-.72914a7.015,7.015,0,0,0-.22351-1.7615,7.04332,7.04332,0,0,0,.10327-1.20467V87.0638a7.053,7.053,0,0,0-.09441-1.15241,7.01269,7.01269,0,0,0,.21465-1.72694v-.72754a7,7,0,0,0-7-7Z" fill="#fff"/><path d="M526.90156,94.98639a3.50156,3.50156,0,0,0-3.52051,0h-.80468a3.49986,3.49986,0,0,1-3.5-3.5v-8.0293a3.49986,3.49986,0,0,1,3.5-3.5h1.98828c5.12842,0,6.95556,3.14405,6.95556,6.08594a6.03927,6.03927,0,0,1-.88574,3.25391l.06738.08984a3.5,3.5,0,0,1-2.80029,5.59961Z" fill="#010101"/><path d="M524.56457,83.45691c2.52095,0,3.45564.913,3.45564,2.58606a2.31513,2.31513,0,0,1-2.36735,2.4449l2.24864,2.99876h-.99982l-2.7055-3.63946c2.24866,0,3.00958-.39093,3.00958-1.836,0-1.33649-.8253-1.82593-2.6947-1.82593h-1.13014v7.30139h-.80437V83.45691h1.988m0-7h-1.988a7,7,0,0,0-7,7v8.02972a7,7,0,0,0,7,7h.80437a7.02743,7.02743,0,0,1,3.52076,0h.99982a7.00026,7.00026,0,0,0,6.61334-9.2949,9.82118,9.82118,0,0,0,.50537-3.15268c0-4.76757-3.233-9.58214-10.45564-9.58214Zm.05481,4.37869-.00008,0,.00008,0Z" fill="#fff"/><path d="M530.19062,94.98639a3.49987,3.49987,0,0,1-3.5-3.5V87.2652a3.50029,3.50029,0,0,1-1.83593-3.08008v-.72754a3.49986,3.49986,0,0,1,3.5-3.5h4.47607a3.49986,3.49986,0,0,1,3.5,3.5v.72754a3.50028,3.50028,0,0,1-1.83594,3.08008v4.22119a3.49986,3.49986,0,0,1-3.5,3.5Z" fill="#010101"/><path d="M532.83087,83.45764v.7276h-1.836v7.30139h-.80441V84.18524h-1.836v-.7276h4.47635m0-7h-4.47635a7,7,0,0,0-7,7v.7276a6.97414,6.97414,0,0,0,1.836,4.72585v2.57554a7,7,0,0,0,7,7h.80441a7,7,0,0,0,7-7V88.91109a6.97419,6.97419,0,0,0,1.836-4.72585v-.7276a7,7,0,0,0-7-7Z" fill="#fff"/><path d="M539.33711,94.98639A3.501,3.501,0,0,1,536.3,93.22614a3.5,3.5,0,0,1-3.03711,1.76025h-.84717a3.49967,3.49967,0,0,1-3.21631-4.87988l3.44434-8.0293a3.49962,3.49962,0,0,1,3.21631-2.12012h.90185a3.49931,3.49931,0,0,1,3.21485,2.1167l3.45508,8.0293a3.49967,3.49967,0,0,1-3.21485,4.8833Z" fill="#010101"/><path d="M536.762,83.45691l3.45484,8.02972h-.87958l-1.16273-2.70556h-3.738L533.263,91.48663h-.84705l3.444-8.02972h.90211m-2.02136,4.59662h3.11817L536.316,84.36987l-1.57538,3.68366M536.762,76.45691h-.90211a7,7,0,0,0-6.43323,4.24077l-3.444,8.02971a7,7,0,0,0,6.43324,9.75924h.84705a6.99,6.99,0,0,0,3.03714-.69308,6.99024,6.99024,0,0,0,3.03714.69308h.87958a7,7,0,0,0,6.4301-9.76658l-3.45485-8.02971a7,7,0,0,0-6.43009-4.23343Z" fill="#fff"/><rect x="537.59248" y="79.95709" width="7.80469" height="15.0293" rx="3.5" fill="#010101"/><path d="M541.89694,83.45691v8.02972h-.80441V83.45691h.80441m0-7h-.80441a7,7,0,0,0-7,7v8.02972a7,7,0,0,0,7,7h.80441a7,7,0,0,0,7-7V83.45691a7,7,0,0,0-7-7Z" fill="#fff"/><path d="M549.0666,94.98639a3.49947,3.49947,0,0,0-4.78125,0h-.80469a3.49987,3.49987,0,0,1-3.5-3.5v-8.0293a3.49987,3.49987,0,0,1,3.5-3.5h1.08692a3.49956,3.49956,0,0,0,4.498,0h.8042a3.49986,3.49986,0,0,1,3.5,3.5v8.0293a3.49986,3.49986,0,0,1-3.5,3.5Z" fill="#010101"/><path d="M549.87007,83.45691v8.02972h-.80365l-4.78121-7.0625v7.0625h-.80436V83.45691h1.08673l4.49811,6.65985V83.45691h.80438m0-7h-.80438a7.0183,7.0183,0,0,1-4.49811,0h-1.08673a7,7,0,0,0-7,7v8.02972a7,7,0,0,0,7,7h.80436a7.01622,7.01622,0,0,1,4.78121,0h.80365a7,7,0,0,0,7-7V83.45691a7,7,0,0,0-7-7Z" fill="#fff"/><path d="M558.98164,94.98639a3.50637,3.50637,0,0,0-3.02,0h-.69531a3.50637,3.50637,0,0,0-3.00977,0h-.8042a3.49986,3.49986,0,0,1-3.5-3.5v-8.0293a3.49986,3.49986,0,0,1,3.5-3.5h1.24951a3.50024,3.50024,0,0,1,2.91749,1.56641,3.49956,3.49956,0,0,1,2.91748-1.56641h1.24951a3.49987,3.49987,0,0,1,3.5,3.5v8.0293a3.49987,3.49987,0,0,1-3.5,3.5Z" fill="#010101"/><path d="M559.78621,83.45691v8.02972h-.80439V84.33728l-3.02044,7.14935h-.695l-3.00958-7.14935v7.14935h-.80439V83.45691H552.702l2.92273,6.83441,2.91186-6.83441h1.24964m0-7h-1.24964a6.989,6.989,0,0,0-2.9173.63673,6.98916,6.98916,0,0,0-2.91729-.63673H551.4524a7,7,0,0,0-7,7v8.02972a7,7,0,0,0,7,7h.80439a7.03886,7.03886,0,0,1,3.00958,0h.695a7.038,7.038,0,0,1,3.02044,0h.80439a7,7,0,0,0,7-7V83.45691a7,7,0,0,0-7-7Z" fill="#fff"/><path d="M561.36689,94.98639a3.49987,3.49987,0,0,1-3.5-3.5v-8.0293a3.49987,3.49987,0,0,1,3.5-3.5h4.38965a3.49986,3.49986,0,0,1,3.5,3.5v.72754a3.48907,3.48907,0,0,1-.37207,1.57227,3.48994,3.48994,0,0,1,.252,1.30664v.72754a3.48522,3.48522,0,0,1-.272,1.355,3.48618,3.48618,0,0,1,.39209,1.61133v.729a3.49986,3.49986,0,0,1-3.5,3.5Z" fill="#010101"/><path d="M565.75648,83.45691v.72754H562.1706V87.0638h3.4657v.72752h-3.4657v2.96617h3.58588v.72914H561.367V83.45691h4.38946m0-7H561.367a7,7,0,0,0-7,7v8.02972a7,7,0,0,0,7,7h4.38946a7,7,0,0,0,7-7v-.72914a7.0131,7.0131,0,0,0-.22348-1.76138,7.04463,7.04463,0,0,0,.1033-1.20479V87.0638a7.04514,7.04514,0,0,0-.09442-1.15253,7.01225,7.01225,0,0,0,.2146-1.72682v-.72754a7,7,0,0,0-7-7Z" fill="#fff"/><path d="M572.70723,94.98639a3.49947,3.49947,0,0,0-4.78125,0h-.8042a3.49986,3.49986,0,0,1-3.5-3.5v-8.0293a3.49986,3.49986,0,0,1,3.5-3.5h1.08642a3.50025,3.50025,0,0,0,4.49854,0H573.51a3.49986,3.49986,0,0,1,3.5,3.5v8.0293a3.49986,3.49986,0,0,1-3.5,3.5Z" fill="#010101"/><path d="M573.51008,83.45691v8.02972h-.80279l-4.78125-7.0625v7.0625h-.80439V83.45691h1.08674l4.4981,6.65985V83.45691h.80359m0-7h-.80359a7.01827,7.01827,0,0,1-4.4981,0h-1.08674a7,7,0,0,0-7,7v8.02972a7,7,0,0,0,7,7h.80439a7.01618,7.01618,0,0,1,4.78125,0h.80279a7,7,0,0,0,7-7V83.45691a7,7,0,0,0-7-7Z" fill="#fff"/><path d="M576.17939,94.98639a3.49987,3.49987,0,0,1-3.5-3.5V87.2652a3.49863,3.49863,0,0,1-1.83642-3.08008v-.72754a3.49986,3.49986,0,0,1,3.5-3.5h4.47656a3.49986,3.49986,0,0,1,3.5,3.5v.72754a3.5003,3.5003,0,0,1-1.83594,3.08008v4.22119a3.49986,3.49986,0,0,1-3.5,3.5Z" fill="#010101"/><path d="M578.81953,83.45764v.7276h-1.836v7.30139h-.80438V84.18524h-1.836v-.7276h4.47638m0-7h-4.47638a7,7,0,0,0-7,7v.7276a6.97412,6.97412,0,0,0,1.836,4.72585v2.57554a7,7,0,0,0,7,7h.80438a7,7,0,0,0,7-7V88.91109a6.97412,6.97412,0,0,0,1.836-4.72585v-.7276a7,7,0,0,0-7-7Z" fill="#fff"/><path d="M582.59639,94.98639a3.49986,3.49986,0,0,1-3.5-3.5v-8.0293a3.49986,3.49986,0,0,1,3.5-3.5h2.21582c4.86377,0,6.59668,3.06494,6.59668,5.9336a5.52876,5.52876,0,0,1-1.90186,4.41552,5.84218,5.84218,0,0,1-2.60693,1.24121,3.49987,3.49987,0,0,1-3.49951,3.439Zm2.58789-10.99024" fill="#010101"/><path d="M584.81233,83.45691c2.206,0,3.09649.74927,3.09649,2.434.0008,1.52112-.78186,2.34717-2.96539,2.34717h-1.54278v3.24853h-.80439V83.45691h2.21607m-1.41248,4.05286h1.48853c1.59711,0,2.206-.45612,2.206-1.61884,0-1.6297-1.02081-1.70569-2.55347-1.70569h-1.141v3.32453m1.41248-11.05286h-2.21607a7,7,0,0,0-7,7v8.02972a7,7,0,0,0,7,7h.80439a7.00223,7.00223,0,0,0,6.44662-4.2675,8.92435,8.92435,0,0,0,1.92105-1.24176,9.0844,9.0844,0,0,0,3.1405-7.09c0-4.69222-3.12191-9.43042-10.09649-9.43042Z" fill="#fff"/><path d="M588.95967,94.98639a3.49986,3.49986,0,0,1-3.5-3.5v-8.0293a3.49986,3.49986,0,0,1,3.5-3.5h.80468a3.49986,3.49986,0,0,1,3.5,3.5v3.80567a3.49992,3.49992,0,0,1,3.3252,3.4956v.728a3.49986,3.49986,0,0,1-3.5,3.5Z" fill="#010101"/><path d="M589.76423,83.45691v7.30133h3.32526v.72839h-4.12964V83.45691h.80438m0-7h-.80438a7,7,0,0,0-7,7v8.02972a7,7,0,0,0,7,7h4.12964a7,7,0,0,0,7-7v-.72839a6.99554,6.99554,0,0,0-3.32526-5.959V83.45691a7,7,0,0,0-7-7Z" fill="#fff"/><path d="M600.50654,94.98639a3.50035,3.50035,0,0,1-3.03662-1.75977,3.50173,3.50173,0,0,1-3.03711,1.75977h-.84668a3.5,3.5,0,0,1-3.21679-4.8794l3.44384-8.02978a3.5003,3.5003,0,0,1,3.2168-2.12012h.90186a3.50051,3.50051,0,0,1,3.21533,2.1167l3.4541,8.0293a3.50016,3.50016,0,0,1-3.21484,4.8833Z" fill="#010101"/><path d="M597.932,83.45691l3.45483,8.02972h-.88037l-1.16278-2.70556h-3.73791l-1.1728,2.70556h-.847l3.444-8.02972h.9021m-2.02143,4.59662h3.11823L597.486,84.36987l-1.57544,3.68366M597.932,76.45691h-.9021a7,7,0,0,0-6.43326,4.24077l-3.44394,8.02971a7,7,0,0,0,6.43323,9.75924h.847a6.98916,6.98916,0,0,0,3.03675-.6929,6.99061,6.99061,0,0,0,3.03674.6929h.88037a7,7,0,0,0,6.43009-9.76658l-3.45484-8.02971a7,7,0,0,0-6.43008-4.23343Z" fill="#fff"/><path d="M603.42549,94.98639a3.50017,3.50017,0,0,1-3.5-3.5V89.65875l-2.38623-4.58642a3.49987,3.49987,0,0,1,3.105-5.11524h.89063a3.5006,3.5006,0,0,0,4.61719,0h.88086a3.49937,3.49937,0,0,1,3.09961,5.125l-2.40234,4.58252v1.82178a3.50018,3.50018,0,0,1-3.5,3.5Z" fill="#010101"/><path d="M607.033,83.45691h.005m-.005,0-2.80328,5.34589v2.68383h-.80439V88.8028l-2.78155-5.34589h.89123l2.28125,4.49812,2.33631-4.49812h.88043m.005-7h-.88544a7.00282,7.00282,0,0,1-4.61756,0h-.89123A7,7,0,0,0,594.434,86.688l1.99127,3.827v.97166a7,7,0,0,0,7,7h.80439a7,7,0,0,0,7-7v-.95982l1.90918-3.64078A7.0012,7.0012,0,0,0,607.038,76.45691Zm-.005,14h0Z" fill="#fff"/><path d="M607.81221,94.98639a3.50017,3.50017,0,0,1-3.5-3.5v-8.0293a3.50017,3.50017,0,0,1,3.5-3.5h4.38867a3.50017,3.50017,0,0,1,3.5,3.5v.72754a3.48268,3.48268,0,0,1-.37207,1.57227,3.49961,3.49961,0,0,1,.252,1.30664v.72754a3.47684,3.47684,0,0,1-.27246,1.355,3.48051,3.48051,0,0,1,.39258,1.61133v.729a3.50017,3.50017,0,0,1-3.5,3.5Z" fill="#010101"/><path d="M612.20118,83.45691v.72754h-3.58587V87.0638h3.4657v.72752h-3.4657v2.96617h3.58587v.72914h-4.38946V83.45691h4.38946m0-7h-4.38946a7,7,0,0,0-7,7v8.02972a7,7,0,0,0,7,7h4.38946a7,7,0,0,0,7-7v-.72914a7.01264,7.01264,0,0,0-.22348-1.76138,7.04463,7.04463,0,0,0,.10331-1.20479V87.0638a7.04514,7.04514,0,0,0-.09443-1.15253,7.01225,7.01225,0,0,0,.2146-1.72682v-.72754a7,7,0,0,0-7-7Z" fill="#fff"/><path d="M617.89033,94.98639a3.50156,3.50156,0,0,0-3.52051,0h-.80371a3.50018,3.50018,0,0,1-3.5-3.5v-8.0293a3.50018,3.50018,0,0,1,3.5-3.5h1.98731c5.1289,0,6.95605,3.14405,6.95605,6.08594a6.03927,6.03927,0,0,1-.88574,3.25391l.06738.08984a3.50073,3.50073,0,0,1-2.80078,5.59961Z" fill="#010101"/><path d="M615.55366,83.45691c2.52088,0,3.45557.913,3.45557,2.58606a2.3142,2.3142,0,0,1-2.36731,2.4449l2.24866,2.99876h-.99982l-2.70557-3.63946c2.24866,0,3.00958-.39093,3.00958-1.836,0-1.33649-.82531-1.82593-2.69464-1.82593H614.37v7.30139h-.80433V83.45691h1.988m0-7h-1.988a7,7,0,0,0-7,7v8.02972a7,7,0,0,0,7,7H614.37a7.02762,7.02762,0,0,1,3.52081,0h.99982a7.00029,7.00029,0,0,0,6.61361-9.29416,9.82092,9.82092,0,0,0,.505-3.15737c0-4.76362-3.23294-9.57819-10.45557-9.57819Zm.05475,4.37869-.00009,0,.00009,0Z" fill="#fff"/><path d="M623.03584,94.98639a3.50017,3.50017,0,0,1-3.5-3.5v-8.0293a3.50017,3.50017,0,0,1,3.5-3.5h2.2168c4.86328,0,6.59668,3.06494,6.59668,5.9336a5.471,5.471,0,0,1-4.50879,5.65136,3.501,3.501,0,0,1-3.5,3.44434Zm2.58887-10.99024" fill="#010101"/><path d="M625.25264,83.45691c2.2052,0,3.09643.74927,3.09643,2.434,0,1.52112-.78186,2.34717-2.96612,2.34717H623.8401v3.24853h-.80432V83.45691h2.21686m-1.41254,4.05286h1.48852c1.59711,0,2.206-.45612,2.206-1.61884,0-1.6297-1.02155-1.70569-2.55347-1.70569h-1.141v3.32453m1.41254-11.05286h-2.21686a7,7,0,0,0-7,7v8.02972a7,7,0,0,0,7,7h.80432a7.0024,7.0024,0,0,0,6.45416-4.28535,9.08647,9.08647,0,0,0,5.05481-8.31035c0-4.69582-3.12189-9.434-10.09643-9.434Z" fill="#fff"/><path d="M633.26728,95.128a7.65637,7.65637,0,1,1-.05371-15.3125,7.38677,7.38677,0,0,1,6.88672,4.29541,3.50037,3.50037,0,0,1-.249,3.32568c.03223.04834.06348.09766.09277.14795a3.49826,3.49826,0,0,1,.07617,3.45459A7.40525,7.40525,0,0,1,633.26728,95.128Z" fill="#010101"/><path d="M633.21333,83.31573a3.92456,3.92456,0,0,1,3.69372,2.22773H636.005a3.044,3.044,0,0,0-2.75983-1.48853,3.33585,3.33585,0,0,0-3.37885,3.41139,3.42221,3.42221,0,0,0,3.38971,3.42223,3.27438,3.27438,0,0,0,2.79236-1.51019h.8905a3.94884,3.94884,0,0,1-3.67126,2.24945,4.15626,4.15626,0,1,1-.05426-8.31208m0-7a11.15612,11.15612,0,1,0,.05426,22.31208,10.90318,10.90318,0,0,0,9.83429-5.93027,7.00082,7.00082,0,0,0,.55322-5.29256,7.00055,7.00055,0,0,0-.3612-4.72653,10.84572,10.84572,0,0,0-10.08057-6.36272Z" fill="#fff"/><path d="M641.10615,94.98639a3.50017,3.50017,0,0,1-3.5-3.5v-8.0293a3.50017,3.50017,0,0,1,3.5-3.5h4.07422a3.50017,3.50017,0,0,1,3.5,3.5v.72754a3.48052,3.48052,0,0,1-.377,1.58106,3.49179,3.49179,0,0,1,.25781,1.32031v.728a3.50014,3.50014,0,0,1-3.15137,3.48291v.18945a3.50017,3.50017,0,0,1-3.5,3.5Z" fill="#010101"/><path d="M645.18031,83.45691v.72754h-3.2702v2.90179h3.15155v.7276h-3.15155v3.67279h-.80432V83.45691h4.07452m0-7h-4.07452a7,7,0,0,0-7,7v8.02972a7,7,0,0,0,7,7h.80432a7.00264,7.00264,0,0,0,6.56247-4.55859,6.99762,6.99762,0,0,0,3.58908-6.1142v-.7276a7.05028,7.05028,0,0,0-.09729-1.16974,7.014,7.014,0,0,0,.21594-1.73205v-.72754a7,7,0,0,0-7-7Z" fill="#fff"/><path d="M651.06611,94.98639a3.50028,3.50028,0,0,0-4.55273,0H645.569a3.50074,3.50074,0,0,1-2.916-5.43652l1.44922-2.18164L642.7956,85.378a3.49987,3.49987,0,0,1,2.92579-5.4209h.94531a3.49969,3.49969,0,0,0,4.24805,0h.93457a3.49987,3.49987,0,0,1,2.92578,5.4209l-1.30469,1.98633,1.4541,2.18066a3.49992,3.49992,0,0,1-2.91211,5.44141Z" fill="#010101"/><path d="M651.8495,83.45691l-2.5752,3.92255,2.7381,4.10717h-.94629l-2.27038-3.4331-2.28205,3.4331h-.9447l2.72724-4.10717L645.721,83.45691h.94556l2.13,3.21588,2.11835-3.21588h.93463m0-7h-.93463a7.00154,7.00154,0,0,1-4.24835,0H645.721a7,7,0,0,0-5.85159,10.84174l.03869.05894-.17056.25684a7,7,0,0,0,5.83148,10.8722h.9447a7.00121,7.00121,0,0,1,4.55243,0h.94629a7,7,0,0,0,5.82437-10.8829l-.16928-.25391.03363-.05125a7,7,0,0,0-5.85162-10.84166Z" fill="#fff"/><path d="M638.75654,91.69537a4.08594,4.08594,0,1,1,4.08594-4.08642A4.09075,4.09075,0,0,1,638.75654,91.69537Z" fill="#010101"/><path d="M638.75624,87.02344a.586.586,0,1,1,0,1.172.586.586,0,0,1,0-1.172m0-7a7.586,7.586,0,1,0,7.58642,7.5872,7.59423,7.59423,0,0,0-7.58642-7.5872Z" fill="#fff"/><circle cx="386.25356" cy="14.47513" r="3.13293" fill="#6f706a"/><path d="M386.25356,87.06532l-21.583-12.285,5.84467-3.15076c.01474.03413.024.062.03956.097,4.22739,6.18984,12.77526,6.64748,19.56236,6.01919,4.02573-1.28373-.82221,1.57693-.56623,2.70708.72912,2.0943,3.13913.84393,4.25221.51815,2.92427-1.67545,5.81752-3.53938,7.631-6.78478.99829-3.008.56158-1.40707,2.90876-3.94815,2.1486-2.21841,2.327-5.68565,4.84017-7.63258,2.69157-2.42009,3.89385-5.8563,5.32884-9.052,4.84018-4.48337,9.277-10.37845,9.10635-17.30517.26373-5.24352-2.97856-9.913-6.84915-13.13207-6.376-5.20474-14.48174-7.86528-22.52542-9.0986a2.10386,2.10386,0,0,0-2.4356,3.19576c3.68442,1.51255,7.81874,1.466,11.50317,3.04062,5.91835,2.17187,12.00734,5.46071,15.21862,11.12309,2.73811,5.55379-.12411,12.27108-4.29721,16.289l-.13962.13963c-1.58236-2.55971-3.2578-5.14269-5.72443-6.94224-6.32635-4.79518-14.39486-6.52027-22.16086-6.99188v-14.906L347.35454,39.90853V84.11389l.0543-.02948v.80515L386.25356,107l38.84549-22.11043V64.95488Zm-.04577-33.792h.04654c4.38253.256,8.91244.93855,12.6977,3.30435.49953.38318,1.07275.62208-.41343,1.0743a60.24307,60.24307,0,0,1-7.69851,1.487s-2.56281.16134-3.45328.12255c-.15048-.00621-.57166-.0287-1.179-.06748Zm-2.75207,11.38138a21.59074,21.59074,0,0,1,7.026.41731c1.33414.38008,2.97856.38008,3.8318,1.63666a56.65759,56.65759,0,0,1-13.1631.543c-.612-.12489-1.2977-.18927-1.98571-.28389Zm2.39527,9.1816c-3.89386-.18616-8.385-.5197-11.23169-3.54481a45.06869,45.06869,0,0,0,23.67341-.38783C394.93407,72.89,390.20249,73.73545,385.851,73.83629Zm13.89223-9.16841a7.32367,7.32367,0,0,0-3.92489-2.3813c2.327-.62054,4.66178-1.24883,6.97326-1.93141C404.09471,62.75973,401.80262,64.09388,399.74322,64.66788ZM407.13534,45.121a11.76769,11.76769,0,0,1,3.4207,6.12c-1.39621,1.00837-2.83119,1.96244-4.28169,2.88549-.98509.27148-2.1486,1.53583-3.09491.44989-4.827-3.73019-10.992-5.09925-16.97164-5.4863V38.109C393.61543,38.22533,401.535,39.97834,407.13534,45.121Z" fill="#6f706a"/><path d="M652.64537,103.89733q-109.76488,0-219.52977-.00776.01164-4.654,0-9.30026,109.76489.01164,219.52977,0Z" fill="#010101"/><path d="M394.9139,12.74849a2.10386,2.10386,0,0,1,2.4356-3.19576c8.04368,1.23332,16.14942,3.89386,22.52542,9.0986,3.87058,3.219,7.11288,7.88855,6.84916,13.13207.17064,6.92672-4.26618,12.8218-9.10635,17.30517-1.435,3.19575-2.63728,6.632-5.32885,9.05205-2.51317,1.94693-2.69157,5.41417-4.84017,7.63258-2.34718,2.54109-1.91047.94088-2.90876,3.94815-1.81351,3.24617-4.70676,5.10933-7.631,6.78478-1.11308.32578-3.52386,1.57693-4.25221-.51815-.256-1.13015,4.59195-3.99081.56624-2.70708-6.78711.62829-15.335.17065-19.56237-6.01919a6.68138,6.68138,0,0,1-.70586-3.537c-3.06389-2.21066-5.228-5.60033-4.96428-9.5097-3.39743-2.358-6.62421-5.71668-6.77159-10.09921-.58175-4.2972,2.75362-7.7722,6.1433-9.83548,6.53888-3.91713,14.38865-4.89447,21.88161-4.879,7.78772.4654,15.8857,2.18739,22.23067,6.99654,2.46662,1.79955,4.14206,4.38253,5.72443,6.94223l.13962-.13962c4.17309-4.018,7.03531-10.73525,4.2972-16.289-3.21126-5.66238-9.30026-8.95122-15.21862-11.12309C402.73264,14.2145,398.59832,14.261,394.9139,12.74849ZM367.176,39.54785c-3.86283,3.09492-1.00836,9.40886,2.97857,10.64217,5.32109-4.3515,12.38743-5.60808,19.08145-5.5693,6.00368.38008,12.20127,1.74526,17.0492,5.49174.94632,1.08594,2.10982-.17841,3.09492-.44989,1.4505-.92305,2.88548-1.87712,4.28168-2.88549a11.76762,11.76762,0,0,0-3.4207-6.12c-5.60033-5.14268-13.5199-6.89569-20.92754-7.012C381.65772,33.47436,373.265,34.49049,367.176,39.54785Zm26.76988,15.12709a60.10362,60.10362,0,0,0,7.69852-1.487c1.48695-.45221.913-.69112.41343-1.0743-3.78526-2.36579-8.31517-3.04838-12.6977-3.30435-4.79364-.01551-9.82772.48868-14.07063,2.88549-.43438.26528-1.82825.52358.00775,1.04715,4.12346,1.43965,14.30566,2.01674,15.19535,2.05553C391.38306,54.83628,393.94586,54.67494,393.94586,54.67494Zm-21.90643,1.542a6.6256,6.6256,0,0,0,2.7513,3.41294c.6663-.44291,1.68552-.95019,2.53876-1.40008.55383-.22417,1.14566-.61821,1.71423-.81756-.27769-.01939-.69423-.06825-1.51411-.10394A45.8266,45.8266,0,0,1,372.03943,56.217Zm26.88468,1.60563a7.32645,7.32645,0,0,1,3.92488,2.3813c2.0594-.574,4.3515-1.90814,3.04838-4.31271C403.58588,56.57377,401.25112,57.20207,398.92411,57.8226ZM379.748,61.76921c1.30856.77489,3.10423.73067,4.50819,1.01767a56.65759,56.65759,0,0,0,13.1631-.543c-.85323-1.25659-2.49765-1.25659-3.8318-1.63666A24.483,24.483,0,0,0,379.748,61.76921Zm-2.02294,4.05829c2.8467,3.02511,7.33783,3.35865,11.23168,3.54481,4.3515-.10084,9.08309-.94632,12.44174-3.93264A45.06873,45.06873,0,0,1,377.72508,65.8275Z" fill="#21254e"/><path d="M448.68481,58.28723a31.99583,31.99583,0,0,0,11.51713-1.64365c9.85876-3.39743,16.38989-13.81466,16.0641-24.1a25.90527,25.90527,0,0,0-5.04185-14.07063A24.30679,24.30679,0,0,0,450.987,8.61417l-17.53787-.007V23.42634l-.04654.204.04654-.00387V77.7728h7.13615V58.28723m-.0698-43.2893c4.01795-.00776,8.03592-.09308,12.04613.09308a18.27591,18.27591,0,0,1,14.69892,9.021,18.61011,18.61011,0,0,1-1.27209,20.44663,17.53463,17.53463,0,0,1-13.57421,7.04307c-3.9404.0543-7.8009.0256-11.829.0256Z" fill="#010101"/><circle cx="389.36011" cy="10.78682" r="3.13293" fill="#21254e"/><polygon points="389.36 102.536 350.515 80.426 350.515 60.491 389.36 82.601 389.36 102.536" fill="#21254e"/><polygon points="389.36 102.536 428.206 80.426 428.206 60.491 389.36 82.601 389.36 102.536" fill="#e51929"/><path d="M553.82671,48.38814v-13.44H543.328a29.35038,29.35038,0,0,1,.58874,13.44079h9.90994Z" fill="#010101"/><path d="M541.35009,56.03623a29.43866,29.43866,0,1,1-1.41251-28.737H547.339a35.92338,35.92338,0,1,0,1.09989,28.737h-7.08881Z" fill="#010101"/><polygon points="350.515 80.412 389.368 59.469 389.368 15.263 350.515 36.206 350.515 80.412" fill="#c1942e"/><path d="M394.9139,12.74849a2.10386,2.10386,0,0,1,2.4356-3.19576c8.04368,1.23332,16.14942,3.89386,22.52542,9.0986,3.87058,3.219,7.11288,7.88855,6.84916,13.13207.17064,6.92672-4.26618,12.8218-9.10635,17.30517-1.435,3.19575-2.63728,6.632-5.32885,9.05205-2.51317,1.94693-2.69157,5.41417-4.84017,7.63258-2.34718,2.54109-1.91047.94088-2.90876,3.94815-1.81351,3.24617-4.70676,5.10933-7.631,6.78478-1.11308.32578-3.52386,1.57693-4.25221-.51815-.256-1.13015,4.59195-3.99081.56624-2.70708-6.78711.62829-15.335.17065-19.56237-6.01919a6.68138,6.68138,0,0,1-.70586-3.537c-3.06389-2.21066-5.228-5.60033-4.96428-9.5097-3.39743-2.358-6.62421-5.71668-6.77159-10.09921-.58175-4.2972,2.75362-7.7722,6.1433-9.83548,6.53888-3.91713,14.38865-4.89447,21.88161-4.879,7.78772.4654,15.8857,2.18739,22.23067,6.99654,2.46662,1.79955,4.14206,4.38253,5.72443,6.94223l.13962-.13962c4.17309-4.018,7.03531-10.73525,4.2972-16.289-3.21126-5.66238-9.30026-8.95122-15.21862-11.12309C402.73264,14.2145,398.59832,14.261,394.9139,12.74849ZM367.176,39.54785c-3.86283,3.09492-1.00836,9.40886,2.97857,10.64217,5.32109-4.3515,12.38743-5.60808,19.08145-5.5693,6.00368.38008,12.20127,1.74526,17.0492,5.49174.94632,1.08594,2.10982-.17841,3.09492-.44989,1.4505-.92305,2.88548-1.87712,4.28168-2.88549a11.76762,11.76762,0,0,0-3.4207-6.12c-5.60033-5.14268-13.5199-6.89569-20.92754-7.012C381.65772,33.47436,373.265,34.49049,367.176,39.54785Zm26.76988,15.12709a60.10362,60.10362,0,0,0,7.69852-1.487c1.48695-.45221.913-.69112.41343-1.0743-3.78526-2.36579-8.31517-3.04838-12.6977-3.30435-4.79364-.01551-9.82772.48868-14.07063,2.88549-.43438.26528-1.82825.52358.00775,1.04715,4.12346,1.43965,14.30566,2.01674,15.19535,2.05553C391.38306,54.83628,393.94586,54.67494,393.94586,54.67494Zm-21.90643,1.542a6.6256,6.6256,0,0,0,2.7513,3.41294c.6663-.44291,1.68552-.95019,2.53876-1.40008.55383-.22417,1.14566-.61821,1.71423-.81756-.27769-.01939-.69423-.06825-1.51411-.10394A45.8266,45.8266,0,0,1,372.03943,56.217Zm26.88468,1.60563a7.32645,7.32645,0,0,1,3.92488,2.3813c2.0594-.574,4.3515-1.90814,3.04838-4.31271C403.58588,56.57377,401.25112,57.20207,398.92411,57.8226ZM379.748,61.76921c1.30856.77489,3.10423.73067,4.50819,1.01767a56.65759,56.65759,0,0,0,13.1631-.543c-.85323-1.25659-2.49765-1.25659-3.8318-1.63666A24.483,24.483,0,0,0,379.748,61.76921Zm-2.02294,4.05829c2.8467,3.02511,7.33783,3.35865,11.23168,3.54481,4.3515-.10084,9.08309-.94632,12.44174-3.93264A45.06873,45.06873,0,0,1,377.72508,65.8275Z" fill="#271e47"/><circle cx="389.36011" cy="10.78682" r="3.13293" fill="#21254e"/><polygon points="389.36 102.536 350.515 80.426 350.515 60.491 389.36 82.601 389.36 102.536" fill="#342257"/><polygon points="389.36 102.536 428.206 80.426 428.206 60.491 389.36 82.601 389.36 102.536" fill="#a4284c"/><polygon points="594.051 22.32 594.051 8.607 572.589 8.607 566.538 8.607 559.449 8.607 559.449 77.796 572.589 77.796 572.589 48.388 593.063 48.388 593.063 34.948 572.589 34.948 572.589 22.32 594.051 22.32" fill="#010101"/><polygon points="649.147 77.796 628.592 41.845 647.596 8.607 631.78 8.607 620.684 28.014 609.588 8.607 593.772 8.607 612.776 41.845 592.221 77.796 608.037 77.796 620.684 55.676 633.331 77.796 649.147 77.796" fill="#010101"/><path d="M440.70318,91.48663V84.33729l-3.02046,7.14934h-.695l-3.00959-7.14934v7.14934h-.80437V83.45691h1.2496l2.92272,6.83441,2.91186-6.83441h1.2496v8.02972Z" fill="#010101"/><path d="M445.81484,91.6278c-1.61883,0-2.72726-.97812-2.72726-3.16163V83.45691h.80437v5.00926c0,1.64054.67406,2.42319,1.93374,2.42319,1.23874,0,1.92288-.78187,1.92288-2.42319V83.45691h.80438v5.00926C448.553,90.64968,447.44451,91.6278,445.81484,91.6278Z" fill="#010101"/><path d="M450.13532,91.48663V83.45691h.80437v7.30137h3.32451v.72835Z" fill="#010101"/><path d="M456.48958,84.18526v7.30137h-.80437V84.18526h-1.836v-.72758h4.47638v.72758Z" fill="#010101"/><path d="M459.15944,91.48663V83.45691h.80437v8.02972Z" fill="#010101"/><path d="M469.0787,91.48663V84.33729l-3.02124,7.14934h-.695l-3.0096-7.14934v7.14934h-.80437V83.45691h1.24959l2.92273,6.83441,2.91186-6.83441h1.24959v8.02972Z" fill="#010101"/><path d="M471.46309,91.48663V83.45691h4.38951v.72758h-3.58592v2.87928h3.46569v.72758h-3.46569V90.7575h3.58592v.72913Z" fill="#010101"/><path d="M479.38113,91.48663h-2.16256V83.45691h1.89108a5.5531,5.5531,0,0,1,3.06389.63062,3.74733,3.74733,0,0,1,1.82515,3.41139C483.99869,89.81351,482.521,91.48663,479.38113,91.48663Zm2.34717-6.78012a4.7999,4.7999,0,0,0-2.58608-.52125h-1.11928v6.57379h1.11928a4.34728,4.34728,0,0,0,2.89014-.71672,3.23992,3.23992,0,0,0,1.15187-2.57522A3.11663,3.11663,0,0,0,481.7283,84.70651Z" fill="#010101"/><path d="M485.23277,91.48663V83.45691h.80437v8.02972Z" fill="#010101"/><path d="M493.83649,91.48663l-1.16272-2.70554h-3.738L487.763,91.48663h-.847l3.444-8.02972h.9021l3.45482,8.02972ZM490.816,84.36986l-1.57539,3.68365h3.11819Z" fill="#010101"/><path d="M498.53549,91.48663V83.45691H502.925v.72758h-3.58592v2.87928h3.46569v.72758h-3.46569V90.7575H502.925v.72913Z" fill="#010101"/><path d="M509.87577,91.48663l-4.78123-7.06246v7.06246h-.80437V83.45691h1.08671l4.4981,6.65989V83.45691h.80437v8.02972Z" fill="#010101"/><path d="M514.152,84.18526v7.30137h-.80437V84.18526h-1.836v-.72758H515.988v.72758Z" fill="#010101"/><path d="M516.82188,91.48663V83.45691h4.38951v.72758h-3.58592v2.87928h3.46569v.72758h-3.46569V90.7575h3.58592v.72913Z" fill="#010101"/><path d="M525.65287,88.48789l2.24866,2.99874h-.99984l-2.70554-3.63944c2.24867,0,3.0096-.39094,3.0096-1.836,0-1.33647-.8253-1.82592-2.69467-1.82592h-1.13015v7.30137h-.80437V83.45691h1.988c2.52093,0,3.45561.913,3.45561,2.58608A2.31514,2.31514,0,0,1,525.65287,88.48789Z" fill="#010101"/><path d="M530.9949,84.18526v7.30137h-.80437V84.18526h-1.836v-.72758h4.47638v.72758Z" fill="#010101"/><path d="M539.33722,91.48663l-1.16272-2.70554h-3.73795l-1.1736,2.70554h-.847l3.444-8.02972h.9021l3.45483,8.02972ZM536.316,84.36986l-1.57539,3.68365h3.11819Z" fill="#010101"/><path d="M541.09256,91.48663V83.45691h.80436v8.02972Z" fill="#010101"/><path d="M549.06644,91.48663l-4.78123-7.06246v7.06246h-.80436V83.45691h1.08672l4.49811,6.65989V83.45691H549.87v8.02972Z" fill="#010101"/><path d="M558.9818,91.48663V84.33729l-3.02044,7.14934h-.695l-3.0096-7.14934v7.14934h-.80436V83.45691h1.2496l2.92272,6.83441,2.91186-6.83441h1.24959v8.02972Z" fill="#010101"/><path d="M561.367,91.48663V83.45691h4.38951v.72758h-3.58591v2.87928h3.46568v.72758h-3.46568V90.7575h3.58591v.72913Z" fill="#010101"/><path d="M572.70727,91.48663,567.926,84.42417v7.06246h-.80436V83.45691h1.08672l4.49811,6.65989V83.45691h.8036v8.02972Z" fill="#010101"/><path d="M576.98353,84.18526v7.30137h-.80436V84.18526h-1.836v-.72758h4.47638v.72758Z" fill="#010101"/><path d="M584.94344,88.23812h-1.54282v3.24851h-.80436V83.45691h2.21608c2.206,0,3.09648.74929,3.09648,2.434C587.9096,87.412,587.127,88.23812,584.94344,88.23812Zm-.40256-4.05286h-1.141v3.32451h1.48852c1.59709,0,2.206-.45609,2.206-1.61882C587.09437,84.26127,586.07359,84.18526,584.54088,84.18526Z" fill="#010101"/><path d="M588.95986,91.48663V83.45691h.80436v7.30137h3.32528v.72835Z" fill="#010101"/><path d="M600.50645,91.48663l-1.16272-2.70554h-3.738l-1.1728,2.70554h-.847l3.444-8.02972h.9021l3.45483,8.02972ZM597.486,84.36986l-1.57539,3.68365h3.11818Z" fill="#010101"/><path d="M604.22968,88.80281v2.68382h-.80436V88.80281l-2.78155-5.3459h.89123l2.28125,4.4981,2.33631-4.4981h.88039Z" fill="#010101"/><path d="M607.8117,91.48663V83.45691h4.38951v.72758H608.6153v2.87928H612.081v.72758H608.6153V90.7575h3.58591v.72913Z" fill="#010101"/><path d="M616.64191,88.48789l2.24866,2.99874h-.99984l-2.70554-3.63944c2.24866,0,3.0096-.39094,3.0096-1.836,0-1.33647-.82531-1.82592-2.69467-1.82592H614.37v7.30137h-.80436V83.45691h1.988c2.52092,0,3.45559.913,3.45559,2.58608A2.31419,2.31419,0,0,1,616.64191,88.48789Z" fill="#010101"/><path d="M625.38294,88.23812h-1.54282v3.24851h-.80436V83.45691h2.21686c2.20522,0,3.09648.74929,3.09648,2.434C628.3491,87.412,627.5672,88.23812,625.38294,88.23812Zm-.4018-4.05286h-1.141v3.32451h1.48851c1.5971,0,2.206-.45609,2.206-1.61882C627.53463,84.26127,626.51309,84.18526,624.98114,84.18526Z" fill="#010101"/><path d="M633.26762,91.6278a4.15625,4.15625,0,1,1-.05431-8.31207,3.92455,3.92455,0,0,1,3.69373,2.22773h-.9021A3.044,3.044,0,0,0,633.2451,84.055a3.33582,3.33582,0,0,0-3.3788,3.41139A3.42219,3.42219,0,0,0,633.256,90.8886a3.27458,3.27458,0,0,0,2.79241-1.51023h.89048A3.94879,3.94879,0,0,1,633.26762,91.6278Z" fill="#010101"/><path d="M641.91012,84.18526v2.901h3.15153v.72758h-3.15153v3.6728h-.80436V83.45691h4.07458v.72758h-3.27022Z" fill="#010101"/><path d="M651.0661,91.48663l-2.27039-3.43312-2.282,3.43312H645.569l2.72725-4.10717L645.721,83.45691h.94554l2.13,3.21592,2.11834-3.21592h.93467l-2.57523,3.92256,2.73811,4.10716Z" fill="#010101"/><path d="M638.75624,88.19547a.586.586,0,0,1,0-1.172.586.586,0,1,1,0,1.172Z" fill="#010101"/></g></svg>