<?xml version="1.0" encoding="UTF-8" standalone="no"?>
<!-- Generator: Adobe Illustrator 22.0.0, SVG Export Plug-In . SVG Version: 6.00 Build 0)  -->

<svg
   xmlns:dc="http://purl.org/dc/elements/1.1/"
   xmlns:cc="http://creativecommons.org/ns#"
   xmlns:rdf="http://www.w3.org/1999/02/22-rdf-syntax-ns#"
   xmlns:svg="http://www.w3.org/2000/svg"
   xmlns="http://www.w3.org/2000/svg"
   xmlns:sodipodi="http://sodipodi.sourceforge.net/DTD/sodipodi-0.dtd"
   xmlns:inkscape="http://www.inkscape.org/namespaces/inkscape"
   version="1.1"
   id="Capa_1"
   x="0px"
   y="0px"
   viewBox="0 0 29.999999 30"
   xml:space="preserve"
   inkscape:version="0.91 r13725"
   sodipodi:docname="x68k_filled.svg"
   width="30"
   height="30"><metadata
     id="metadata33"><rdf:RDF><cc:Work
         rdf:about=""><dc:format>image/svg+xml</dc:format><dc:type
           rdf:resource="http://purl.org/dc/dcmitype/StillImage" /><dc:title></dc:title></cc:Work></rdf:RDF></metadata><defs
     id="defs31" /><sodipodi:namedview
     pagecolor="#ffffff"
     bordercolor="#666666"
     borderopacity="1"
     objecttolerance="10"
     gridtolerance="10"
     guidetolerance="10"
     inkscape:pageopacity="0"
     inkscape:pageshadow="2"
     inkscape:window-width="1920"
     inkscape:window-height="1027"
     id="namedview29"
     showgrid="false"
     inkscape:zoom="15.104"
     inkscape:cx="21.699024"
     inkscape:cy="10.066234"
     inkscape:window-x="-8"
     inkscape:window-y="-8"
     inkscape:window-maximized="1"
     inkscape:current-layer="Capa_1" /><g
     id="g3"
     transform="matrix(0.224,0,0,0.224,5.8924788,1.0068856)"><polyline
       points="19.9,20 19.9,23 22.9,23 22.9,32 19.9,32 19.9,31 15.9,31 15.9,47 19.9,47 19.9,50.8 42.9,50.8    42.9,43 46.9,43 46.9,39 50.9,39 50.9,35 57.9,35 57.9,27 54.9,27 54.9,31 50.9,31 50.9,8 46.9,8 46.9,8 46.9,4 42.9,4 42.9,8    38.9,8 38.9,12 35.8,12 35.8,16 27.9,16 27.9,20 19.9,20  "
       id="polyline5"
       style="fill:#ff7c5b" /><polygon
       points="35.8,16 35.8,12 38.9,12 38.9,8 42.9,8 42.9,4 46.9,4 46.9,8 50.9,8 50.9,31 54.9,31 54.9,27 57.9,27 57.9,4 54.9,4 54.9,0 15.9,0 15.9,4 12,4 12,8 7.9,8 7.9,16 12,16 12,20 15.9,20 15.9,24 19.9,24 19.9,32 22.9,32 22.9,23 19.9,23 19.9,20 27.9,20 27.9,16 "
       id="polygon7"
       style="fill:#000103" /><polygon
       points="38.9,18.8 34.9,18.8 34.8,22.9 30.9,22.9 30.9,32 34.9,32 34.9,23 38.9,23 38.9,19 46.9,19 46.9,15 38.9,15 "
       id="polygon9"
       style="fill:#000103" /><rect
       x="19.9"
       y="43"
       width="15"
       height="4"
       id="rect11"
       style="fill:#000103" /><polygon
       points="38.9,23 38.9,19 45.9,19 45.9,32 34.9,32 34.9,23 "
       id="polygon13"
       style="fill:#ffffff" /><polygon
       points="0,74 4,74 4,78 12.2,78 12.2,85.9 8,85.9 8,101.9 12.1,101.9 12.1,117.1 16,117.1 16,121 12.1,121 12.1,125 66,125 65.9,117.1 69.9,117.1 69.9,90.2 66.1,90.2 66.1,83 71,83 71,78.3 74.9,78.3 74.9,74.1 77.9,74.1 77.9,58 74.8,58 74.8,50.8 71.1,50.8 71,43 66.9,43 66.9,39.1 62.1,39.1 62.1,35 50.9,35 50.9,39 46.9,39 46.9,43 42.9,43 42.9,50.8 20,50.8 20,47 16,47 16,39.1 12.1,39.1 12.1,43 8,43 8,50.8 4,50.8 4,55 0,55 "
       id="polygon15"
       style="fill:#000103" /><polygon
       points="4,55 4,74 16,74 16,71.1 19.9,71.1 19.9,59 16,59 16,55 "
       id="polygon17"
       style="fill:#ff7c5b" /><polygon
       points="38.9,63 43.1,63 43,59.1 55,59.1 55,62.9 59,62.9 59,78.9 43,78.9 43,71.1 38.9,71.1 "
       id="polygon19"
       style="fill:#ff7c5b" /><polygon
       points="22.9,71.1 19.9,71.1 19.9,74 15.9,74 15.9,86 12.1,86 12.1,101.9 15.9,101.9 15.9,117.1 22.9,117.1 22.9,121 30.9,121 30.9,114.1 27,114.1 27,106.1 22.9,106.1 22.9,101 15.9,101 15.9,97.9 19.9,97.9 19.9,94 23.9,94 23.9,74 27.9,74 27.9,54.1 19.9,54.1 19.9,50.8 15.9,50.8 15.9,47 11,47 11,51 15.9,51 15.9,55 19.9,55 19.9,59 22.9,59 "
       id="polygon21"
       style="fill:#ffffff" /><polygon
       points="38.9,78.9 43,78.9 43,81.9 51,81.9 51,86 58.9,86 58.9,90 62.9,90 62.9,93.8 66.9,93.8 66.9,102 50.9,102 50.9,97 34.9,97 34.9,94 30.9,94 30.9,90.1 27.1,90.1 27.2,76.4 31,76.4 30.9,54 43,54 43,59.1 38.9,59.1 38.9,62 34.9,62 34.9,71.1 38.9,71.1 "
       id="polygon23"
       style="fill:#ffffff" /><polygon
       points="34.9,118 50.9,118 50.9,121 61.9,121 61.9,117.1 65.9,117.1 65.9,109.2 62,109.2 62,105.1 55,105.1 55,108.3 47,108.3 47,105.1 50.9,105.1 50.9,102 30.9,102 30.9,98.1 27.1,98.1 27.1,106.1 30.9,106.1 30.9,114.1 34.9,114.1 "
       id="polygon25"
       style="fill:#ffffff" /><polygon
       points="71.1,58 71.1,50.8 66.9,50.8 66.9,43 62.2,43 62.2,39.1 50.9,39.1 50.9,43 46.9,43 46.9,55 54.9,55 54.9,59.1 58.9,59.1 58.9,55 65.9,55 65.9,59.1 58.9,59.1 58.9,62.9 61.9,62.9 61.9,78.9 58.9,78.9 58.9,83 66,83 66,78.3 70.9,78.3 70.9,74 74.8,74 74.8,58 "
       id="polygon27"
       style="fill:#ffffff" /></g></svg>