<svg id="Layer_1" data-name="Layer 1" xmlns="http://www.w3.org/2000/svg" viewBox="0 0 105 105"><title>icon_filled</title><path d="M83.94669,42.93661a13.03183,13.03183,0,0,1-.82792,1.83605c-2.74555,4.25-5.5232,8.47933-8.18726,12.55653.12744,3.663.24978,7.1797.37615,10.81209.9371-1.22836,1.85606-2.433,2.775-3.63757l.47266.24268c-.6885,1.72031-1.32979,3.46136-2.07448,5.157-2.12735,4.84387-3.94715,9.86472-6.51815,14.46363C63.456,96.00609,53.60957,103.15554,40.19329,104.75357c-15.58464,1.85631-29.83948-6.94223-36.2912-20.74142A40.07163,40.07163,0,0,1,.82171,58.64221C3.88632,43.158,12.89405,32.7825,27.58892,27.24366a25.80936,25.80936,0,0,1,3.31659-.95664c3.0426-.70015,6.188-.84907,9.13469-2.12558,1.25711-.54458,2.84963-.369,4.29305-.41374,1.369-.04239,2.74229.0551,4.08869.09042a36.81127,36.81127,0,0,1,.35661-5.83835C51.23568,6.922,60.11214-.38545,72.60207,1.46265c4.23369.62644,8.34392,2.09,12.5064,3.1868.1947.0513.34855.25755.65748.49715L83.58271,6.84244A48.67331,48.67331,0,0,1,100,13.12617l-6.25208,3.56449c.12439.86227.66969,2.08317.33212,2.96679A7.26141,7.26141,0,0,1,91.667,22.30621a41.78465,41.78465,0,0,1-3.56679,2.33644c-.11654,5.65671-3.36767,9.3757-7.14935,12.74714-1.5653,1.39549-3.35248,1.10661-5.19476.35254-2.60446-1.06605-3.88584-.73406-5.80294,1.22034l-3.7183-1.87315c1.60208,2.84454,3.0778,5.19069,4.27668,7.67067,1.19181,2.46533,2.10533,5.06519,3.22667,7.81651,3.0057-2.89032,5.91387-5.69656,8.837-8.48712.42725-.40787.92577-.74107,1.3913-1.10882ZM18.57947,93.03008a5.64246,5.64246,0,0,0,.637.64818,28.74047,28.74047,0,0,0,13.09407,5.2626A26.17827,26.17827,0,0,0,45.20712,97.923,31.12328,31.12328,0,0,0,61.46652,87.5284l1.12383-1.41535L58.55721,82.434a12.60153,12.60153,0,0,1-.84071,1.36955c-1.42713,1.71656-2.28281,3.99668-4.66751,4.77739,1.143-2.37759,2.28608-4.75519,3.4201-7.114l-2.56033-3.73379,4.0517,1.12695c1.54594-3.59547,3.07018-7.14048,4.59441-10.68548l.00168-.00046.4692.1021c-.22554,4.20555-1.86421,8.05146-3.297,11.9888l1.67565.67369,3.51193,1.94109a34.43521,34.43521,0,0,0,5.38707-17.82759,74.64455,74.64455,0,0,0-.708-7.89778A25.85932,25.85932,0,0,0,65.66606,46.053L60.58113,44.6387a30.38684,30.38684,0,0,1-2.32068,2.075c-.85788.62537-1.82007,1.10766-2.68347,1.62071a27.55514,27.55514,0,0,1-.11937,3.52876c-.42389,2.64121-1.615,4.21646-4.41619,3.78871-1.27547-.19476-2.5391-.467-3.70041-.684-1.182-2.05-.652-4.0886-.8517-6.17676-4.82987-1.54984-9.42614-3.59508-12.43543-8.13446-1.54843.38861-2.94764.77468-4.36347,1.085-1.32972.29142-2.63844.28656-3.51317-.99855a4.88631,4.88631,0,0,1,2.09342-6.93848c1.56187-.59869,3.21043-.97121,4.92246-1.47546l-.11264-1.36379a33.04091,33.04091,0,0,0-13.691,6.02664l-1.23138,4.4272-1.6343-2.0871-2.15749,2.49977A34.45192,34.45192,0,0,0,5.339,62.68481a34.359,34.359,0,0,0,3.0426,17.89268C10.73887,85.56764,13.85517,89.96462,18.57947,93.03008ZM63.07273,28.02427l-1.72038.91379,7.82534,5.85637c4.52411-2.26552,3.9049-2.06033,6.90691-1.24368,2.83842.77214,4.032.46785,5.76165-1.90019A13.22264,13.22264,0,0,0,84.27861,26.374l-2.78905-1.43875a14.82035,14.82035,0,0,0,9.06188-6.55869L87.661,15.74734l6.207-2.48383c-5.498-2.61827-11.30841-3.36179-17.5981-3.90871L79.812,6.48858a18.02606,18.02606,0,0,0-1.80273-.60046c-1.72671-.35892-3.449-.792-5.19638-.98983-9.48967-1.07442-14.82608,1.34677-18.82466,8.59522-1.67614,3.03845-2.57149,6.15032-1.59343,9.90142l3.45771-2.08343L60.22,19.349c.89674-2.06846,1.11036-4.43491,2.67553-6.21847,1.9103.59662,1.45629,2.74827,2.61638,3.50879l3.82229-.61479L68.452,19.85837c1.27023,1.4562,3.88162.57693,4.42421,3.17091L68.94878,24.5816c1.659,2.1986,1.659,2.1986,1.08714,3.76613ZM55.4642,32.45336c.3231.653.58233,1.11538.78693,1.60078a4.21154,4.21154,0,0,1-2.37489,5.85229c-4.28283,1.79987-10.90028-.47182-13.1196-4.5038-1.44908-2.63264-.67-5.09165,2.131-6.18371a28.81828,28.81828,0,0,1,4.35271-.93843l1.20925-1.49921c-4.22669-.99412-7.91586-.55925-11.12084,1.99946a5.11692,5.11692,0,0,0-1.74031,5.4177A10.421,10.421,0,0,0,37.56351,38.273c4.1764,4.94247,9.60864,6.883,16.00138,6.11757a9.06483,9.06483,0,0,0,5.18187-2.292,5.51958,5.51958,0,0,0,1.59569-6.45577,27.55246,27.55246,0,0,0-2.59776-4.03326c-.10733-.15919-.35628-.22287-.57355-.35082Zm-6.81933,15.5783.10321,5.067,3.93418.45807c.70045-1.98111,1.39031-3.60322-.00883-5.4965Zm-21.0041-11.7399.32952,3.64193,5.68741-1.4468L32.45055,34.703Zm21.35759-6.13708c-.90271,1.34145-1.68971,2.43177-2.39228,3.574-.989,1.608-.87772,1.96473.81524,3.31146C50.76242,36.17394,51.43519,33.743,48.99836,30.15468ZM58.21467,27.335c.94356-.44779,1.79226-.80716,2.60006-1.24242,2.0676-1.11407,2.05987-2.49553-.19777-4.02575l-4.30449,2.13068Zm-5.66031,4.11407,3.79013-3.1-2.17458-3.04163-3.52975,2.99784ZM66.0781,19.132l-1.81774.08994L63.12478,17.678l-.625,2.2472c2.32946,1.30572,2.59046,3.4237,2.23963,5.866l2.03789.1228-1.07584-2.391,1.80949-1.23691-1.84966-1.00659Z" fill="#060303"/><path d="M36.85868,22.02127l-1.01287.38867-.13665-.29472.88467-.56211Z" fill="#fefefd"/><path d="M88.387,34.20376l-.43835.12495.253-.456Q88.299,34.0356,88.387,34.20376Z" fill="#fefdfc"/><path d="M83.96647,42.98076l.27464-.29255.056.309-.35039-.06063Z" fill="#060303"/><path d="M61.40436,80.93871,59.72871,80.265c1.43283-3.93734,3.0715-7.78325,3.297-11.9888l-.4692-.1021-.00168.00046a5.9283,5.9283,0,0,0-1.68773.44044,26.61566,26.61566,0,0,1-9.65553,3.20037c-.142-3.203-.45956-6.41188-.35339-9.60666a3.111,3.111,0,0,0-1.75669-3.32457c-4.09231-2.24559-8.11213-4.6242-12.21975-6.84061-2.06015-1.11162-4.24943-1.98395-6.33732-2.94472l-1.1063,2.22554c-.63576-3.4537-2.96571-4.60467-5.3508-5.67365a3.259,3.259,0,0,0-4.15436.7669c-1.45255,1.55235-3.14218,2.88285-4.72873,4.30981-.2437-.40459-.68308-.80161-.69911-1.215-.09921-2.55812-.1032-5.12-.13881-7.68055l2.15749-2.49977,1.6343,2.0871,1.23138-4.4272a33.04091,33.04091,0,0,1,13.691-6.02664l.11264,1.36379c-1.712.50425-3.36059.87677-4.92246,1.47546a4.88631,4.88631,0,0,0-2.09342,6.93848c.87473,1.28511,2.18345,1.29,3.51317.99855,1.41583-.3103,2.815-.69637,4.36347-1.085,3.00929,4.53938,7.60556,6.58462,12.43543,8.13446.19973,2.08816-.33027,4.12673.8517,6.17676,1.16131.217,2.42494.48923,3.70041.684,2.80122.42775,3.9923-1.1475,4.41619-3.78871a27.55514,27.55514,0,0,0,.11937-3.52876c.8634-.513,1.82559-.99534,2.68347-1.62071a30.38684,30.38684,0,0,0,2.32068-2.075L65.66606,46.053a25.85932,25.85932,0,0,1,3.92932,11.10141c-.236.16639-.637.29625-.68318.5047-.62887,2.83862-2.26629,5.13916-3.84155,7.49047a5.74818,5.74818,0,0,0-.73146,2.14315c-.47639,2.61682-.80583,5.26245-1.34647,7.86485C62.58705,77.11036,61.94254,79.01349,61.40436,80.93871Z" fill="#de251b"/><path d="M55.85253,21.3115l-3.45771,2.08343c-.97806-3.7511-.08271-6.863,1.59343-9.90142,3.99858-7.24845,9.335-9.66964,18.82466-8.59522,1.7474.19784,3.46967.63091,5.19638.98983a18.02606,18.02606,0,0,1,1.80273.60046L76.26994,9.3548c6.28969.54692,12.10012,1.29044,17.5981,3.90871l-6.207,2.48383,2.89043,2.62922a14.82035,14.82035,0,0,1-9.06188,6.55869L84.27861,26.374a13.22264,13.22264,0,0,1-2.43236,5.27656c-1.72968,2.368-2.92323,2.67233-5.76165,1.90019-3.002-.81665-2.3828-1.02184-6.90691,1.24368l-7.82534-5.85637,1.72038-.91379c2.46217,1.73153,5.33877,1.29191,7.842,1.7361a34.552,34.552,0,0,1,3.41105-5.17444A31.73885,31.73885,0,0,1,79.059,21.08827l-2.618-1.84492c3.34691-.43778,6.76754.02362,7.37141-3.8134-1.36147-.20363-2.87846-.007-3.78558-.65894a5.64953,5.64953,0,0,0-4.95875-.84029,7.31074,7.31074,0,0,1-1.16026.12263c-.43163-1.0951-.52615-2.26794-1.15781-2.78656-4.193-3.44265-11.07466-3.15558-13.72256,2.29807-.5604,1.1542-1.02719,2.35386-1.54637,3.554l-1.57932-.21937Z" fill="#dc251a"/><path d="M51.21161,71.8154A26.61566,26.61566,0,0,0,60.86714,68.615a5.9283,5.9283,0,0,1,1.68773-.44044c-1.52423,3.545-3.04847,7.09-4.59441,10.68548l-4.0517-1.12695,2.56033,3.73379c-1.134,2.35881-2.27706,4.73641-3.4201,7.114l.02263.98346a11.99728,11.99728,0,0,0,5.98092-4.1783l2.414,2.14233A31.12328,31.12328,0,0,1,45.20712,97.923c-1.70854-3.5691-4.81652-5.44825-8.54247-7.29778l3.87344-1.60812a21.70774,21.70774,0,0,0-13.24223-.90393l.306-4.39a27.81545,27.81545,0,0,1,2.92273-.48848c2.55847-.149,5.10478.2509,7.68117.11023a93.51025,93.51025,0,0,0,10.22373-.79579,21.3833,21.3833,0,0,0,2.88329-.91178C51.27745,78.20723,51.24453,75.01131,51.21161,71.8154Z" fill="#a9182c"/><path d="M14.36635,41.83186c.03561,2.5606.0396,5.12243.13881,7.68055.016.41342.45541.81044.6991,1.215Q12.02221,54.777,8.83962,58.82618a2.87514,2.87514,0,0,0-.28638,3.59417c1.46616,2.46025,2.85625,4.96734,4.2225,7.48506.77778,1.43327,1.44571,2.92614,2.1426,4.35027l-4.33309,3.856c.68123,1.612,1.00545,3.42086,2.03866,4.6176a38.11148,38.11148,0,0,0,8.77117,7.48168l-2.81562,2.81916c-4.72429-3.06546-7.84059-7.46244-10.1979-12.45259A34.359,34.359,0,0,1,5.339,62.68481,34.45192,34.45192,0,0,1,14.36635,41.83186Z" fill="#a7182b"/><path d="M55.85253,21.3115l.04929-4.412,1.57932.21937c.51918-1.20013.986-2.39979,1.54637-3.554,2.6479-5.45365,9.52954-5.74072,13.72256-2.29807.63166.51862.72618,1.69146,1.15781,2.78656a7.31074,7.31074,0,0,0,1.16026-.12263,5.64953,5.64953,0,0,1,4.95875.84029c.90712.65193,2.42411.45531,3.78558.65894-.60387,3.837-4.0245,3.37562-7.37141,3.8134l2.618,1.84492a31.73885,31.73885,0,0,0-4.73325,3.49766,34.552,34.552,0,0,0-3.41105,5.17444c-2.50324-.44419-5.37984-.00457-7.842-1.7361l6.96319.32346c.57189-1.56753.57189-1.56753-1.08714-3.76613l3.92741-1.55232c-.54259-2.594-3.154-1.71471-4.42421-3.17091l.88223-3.83388-3.82229.61479c-1.16009-.76052-.70608-2.91217-2.61638-3.50879-1.56517,1.78356-1.77879,4.15-2.67553,6.21847Z" fill="#f9ca01"/><path d="M18.57947,93.03008l2.81561-2.81916,5.20463,1.0874.69615-3.18518a21.70774,21.70774,0,0,1,13.24223.90393l-3.87344,1.60812c3.72595,1.84953,6.83393,3.72868,8.54247,7.29778a26.17827,26.17827,0,0,1-12.89661,1.01789,28.74047,28.74047,0,0,1-13.09407-5.2626A5.64246,5.64246,0,0,1,18.57947,93.03008Z" fill="#df251b"/><path d="M55.4642,32.45336l1.70694-1.19469c.21727.128.46622.19163.57355.35082a27.55246,27.55246,0,0,1,2.59776,4.03326,5.51958,5.51958,0,0,1-1.59569,6.45577,9.06483,9.06483,0,0,1-5.18187,2.292c-6.39274.76546-11.825-1.1751-16.00138-6.11757a10.421,10.421,0,0,1-1.97505-4.07452,5.11692,5.11692,0,0,1,1.74031-5.4177c3.205-2.55871,6.89415-2.99358,11.12084-1.99946l-1.20925,1.49921a28.81828,28.81828,0,0,0-4.35271.93843c-2.801,1.09206-3.58009,3.55107-2.131,6.18371,2.21932,4.032,8.83677,6.30367,13.1196,4.5038a4.21154,4.21154,0,0,0,2.37489-5.85229C56.04653,33.56874,55.7873,33.10636,55.4642,32.45336Z" fill="#8c8e90"/><path d="M61.40436,80.93871c.53818-1.92522,1.18269-3.82835,1.58836-5.7811.54064-2.6024.87008-5.248,1.34647-7.86485a5.74818,5.74818,0,0,1,.73146-2.14315c1.57526-2.35131,3.21268-4.65185,3.84155-7.49047.04617-.20845.44715-.33831.68318-.5047a74.64455,74.64455,0,0,1,.708,7.89778,34.43521,34.43521,0,0,1-5.38707,17.82759Z" fill="#a6172b"/><path d="M48.64487,48.03166l4.02856.02859c1.39914,1.89328.70928,3.51539.00883,5.4965l-3.93418-.45807Z" fill="#8a8c8d"/><path d="M27.64077,36.29176l4.80978-1.5888,1.20715,3.78393-5.68741,1.4468Z" fill="#898b8d"/><path d="M48.99836,30.15468c2.43683,3.58831,1.76406,6.01926-1.577,6.88548-1.693-1.34673-1.80428-1.70346-.81524-3.31146C47.30865,32.58645,48.09565,31.49613,48.99836,30.15468Z" fill="#efefef"/><path d="M61.46652,87.5284l-2.414-2.14233a11.99728,11.99728,0,0,1-5.98092,4.1783l-.02263-.98346c2.3847-.78071,3.24038-3.06083,4.66751-4.77739a12.60153,12.60153,0,0,0,.84071-1.36955l4.03314,3.67908Z" fill="#d8231a"/><path d="M58.21467,27.335l-1.9022-3.13749L60.617,22.06684c2.25764,1.53022,2.26537,2.91168.19777,4.02575C60.00693,26.52785,59.15823,26.88722,58.21467,27.335Z" fill="#efefef"/><path d="M52.55436,31.44908l-1.9142-3.14383,3.52975-2.99784L56.34449,28.349Z" fill="#ededee"/><path d="M66.0781,19.132l-.41685,2.14758,1.84966,1.00659-1.80949,1.23691,1.07584,2.391-2.03789-.1228c.35083-2.44228.08983-4.56026-2.23963-5.866l.625-2.2472,1.13558,1.54387Z" fill="#e8e8e8"/><path d="M62.55655,68.17413l.4692.1021Z" fill="#a9182c"/><path d="M27.29586,88.11314l-.69615,3.18518-5.20464-1.0874a38.11164,38.11164,0,0,1-8.77116-7.48168c-1.03321-1.19674-1.35743-3.00559-2.03866-4.6176l4.33309-3.856c-.69689-1.42413-1.36482-2.917-2.1426-4.35027-1.36625-2.51772-2.75634-5.02481-4.2225-7.48506a2.87514,2.87514,0,0,1,.28638-3.59417q3.18456-4.04762,6.36465-8.09874c1.58655-1.427,3.27618-2.75746,4.72873-4.30981a3.259,3.259,0,0,1,4.15436-.7669c2.38509,1.069,4.715,2.21995,5.3508,5.67365l1.1063-2.22554c2.08789.96077,4.27717,1.8331,6.33732,2.94472,4.10762,2.21641,8.12744,4.595,12.21975,6.84061a3.111,3.111,0,0,1,1.75669,3.32457c-.10617,3.19478.21138,6.40364.35339,9.60666.03292,3.19591.06584,6.39183.10118,9.82194a21.3833,21.3833,0,0,1-2.88329.91178,93.51025,93.51025,0,0,1-10.22373.79579c-2.57639.14067-5.1227-.2592-7.68117-.11023a27.81545,27.81545,0,0,0-2.92273.48848ZM18.55722,67.97659a6.89906,6.89906,0,0,0,3.94784-6.51769c-.33938-2.875-.80028-5.73737-1.28244-8.59272a9.52407,9.52407,0,0,0-.79042-1.95838c-1.93289.67808-3.03931,1.492-4.96232,3.53758l-3.72322,3.20677c.15642,1.18186.23951,2.16092.42219,3.121.46374,2.43725,1.29458,4.70683,3.32192,6.31571C16.37355,67.78945,17.29053,68.53028,18.55722,67.97659Zm28.12519,3.94278c-.00371-1.90126-.049-3.80358-.00069-5.70351.06174-2.4261-1.25233-3.99286-3.09024-5.39691a5.23044,5.23044,0,0,0-.99382.69514c-2.48186,2.88158-5.778,4.14509-9.38556,4.87018a9.98246,9.98246,0,0,0-2.12541.95058l-.06033,8.42785c-.03112,2.05222.09429,2.26867,1.82319,2.86131,4.0212,1.37841,8.11828.89167,12.19538.39343a1.70534,1.70534,0,0,0,1.57188-1.6789C46.65683,75.53256,46.66243,73.7258,46.68241,71.91937ZM22.65817,78.8447c1.3954-2.10337.25716-3.97951.39978-5.78436-1.92814-.28978-3.1794.78468-4.01584,3.46667Z" fill="#fdfafa"/><path d="M31.02636,75.7627l.06033-8.42785a9.98246,9.98246,0,0,1,2.12541-.95058c3.60755-.72509,6.9037-1.9886,9.38556-4.87018a5.23044,5.23044,0,0,1,.99382-.69514c1.83791,1.404,3.152,2.97081,3.09024,5.39691-.04834,1.89993-.003,3.80225.00069,5.70351-2.12026,1.0726-4.42189.56937-6.69192.78,1.08807,1.66263,3.17405,1.21124,4.98722,2.419-1.55814.37652-2.763.71234-3.98641.95474C37.65,76.73513,34.33958,76.14919,31.02636,75.7627Z" fill="#e0261c"/><path d="M15.46988,54.44538c1.923-2.04553,3.02943-2.8595,4.96232-3.53758a9.52407,9.52407,0,0,1,.79042,1.95838c.48216,2.85535.94306,5.71768,1.28244,8.59272a6.89906,6.89906,0,0,1-3.94784,6.51769,7.55051,7.55051,0,0,1-2.43442-5.55392l1.45226-.38293Z" fill="#e0271e"/><path d="M31.02636,75.7627c3.31322.38649,6.62366.97243,9.96494.31042,1.22339-.2424,2.42827-.57822,3.98641-.95474-1.81317-1.20778-3.89915-.75639-4.98722-2.419,2.27-.21062,4.57166.29261,6.69192-.78-.02,1.80643-.02558,3.61319-.0656,5.41917a1.70534,1.70534,0,0,1-1.57188,1.6789c-4.0771.49824-8.17418.985-12.19538-.39343C31.12065,78.03137,30.99524,77.81492,31.02636,75.7627Z" fill="#ab1a2d"/><path d="M15.46988,54.44538l2.10518,7.59436-1.45226.38293a7.55051,7.55051,0,0,0,2.43442,5.55392c-1.26669.55369-2.18367-.18714-3.06645-.88771-2.02734-1.60888-2.85818-3.87846-3.32192-6.31571-.18268-.9601-.26577-1.93916-.42219-3.121Z" fill="#ab1a2d"/><path d="M22.65817,78.8447,19.04211,76.527c.83644-2.682,2.0877-3.75645,4.01584-3.46667C22.91533,74.86519,24.05357,76.74133,22.65817,78.8447Z" fill="#ac1f32"/></svg>