<svg id="Capa_1" data-name="Capa 1" xmlns="http://www.w3.org/2000/svg" viewBox="0 0 1000 114"><title>logo</title><g id="Layer_2" data-name="Layer 2"><rect x="417.4658" y="61.76152" width="14.44444" height="12.05553" stroke-width="7" stroke="#fff" stroke-linecap="round" stroke-linejoin="round" fill="#fff"/><rect x="478.13246" y="42.5429" width="17.9867" height="14.4571" stroke-width="7" stroke="#fff" stroke-linecap="round" stroke-linejoin="round" fill="#fff"/><rect x="504.57691" y="47.09485" width="10.66667" height="14.66667" stroke-width="7" stroke="#fff" stroke-linecap="round" stroke-linejoin="round" fill="#fff"/><rect x="527.82893" y="46.20597" width="10.78946" height="13.85449" stroke-width="7" stroke="#fff" stroke-linecap="round" stroke-linejoin="round" fill="#fff"/><rect x="608.10593" y="39.35175" width="24.11063" height="18.94403" stroke-width="7" stroke="#fff" stroke-linecap="round" stroke-linejoin="round" fill="#fff"/><rect x="690.57691" y="64.42307" width="20.62185" height="23.52562" stroke-width="7" stroke="#fff" stroke-linecap="round" stroke-linejoin="round" fill="#fff"/></g><path d="M467.51083,47.45607a3.50153,3.50153,0,0,1-2.53613-1.08789s-1.415-1.48925-1.498-1.5791l-2.04492,1.06446a3.21649,3.21649,0,0,1-.33887.15429s-.94141.36914-.97363.37989l-1.06446.38281c-.99609.68554-2.82324.68554-8.49414.68554h-6.37011a3.50058,3.50058,0,0,1-3.34278-2.46093,3.4895,3.4895,0,0,1-1.00293-2.45215V36.16408a3.50018,3.50018,0,0,1,3.5-3.5h5.84278c1.56836,0,4.4082,0,5.22461-.07568l.76757-.25781c.09375-.03174.18848-.05909.28516-.08252.12891-.05469.35645-.15772.62012-.29541a3.67757,3.67757,0,0,0,.44824-.30616l-1.92871-.00927C443.88,31.584,443.88,31.584,442.62313,29.878a3.75485,3.75485,0,0,1-.55273-1.0625,3.72,3.72,0,0,1-.293-.352c-.81543-1.09131-.89746-2.32422-.89746-5.08057,0-2.69238,0-4.17529,1.30957-5.47021,1.2666-1.28321,1.2666-1.28321,14.0791-1.28321,13.002,0,13.002,0,14.25586,1.52686a3.56721,3.56721,0,0,1,.65918,1.20312c.05859.061.11621.125.17187.19239,1.02833,1.23047,1.01563,2.2959.958,7.416-.04883,4.42871-.0625,5.68311-.70508,6.8584l-.24121.61328a24.04049,24.04049,0,0,1,3.33985,4.061l.1914.18457a3.49947,3.49947,0,0,1,.91309,1.47949,3.50491,3.50491,0,0,1,.90723,1.63623l.21777.90625a3.50015,3.50015,0,0,1-.22266,2.27832l-.19824.43164a3.50183,3.50183,0,0,1-3.18066,2.03906Z" fill="#fff"/><path d="M456.26864,20.12952c9.65277,0,11.37579.035,11.55072.2478a3.45592,3.45592,0,0,1,.14587,1.27063c.46088.03522.64942.08136.69983.14276.15161.18079.18952,1.53351.14869,5.1369-.04664,4.3089-.09034,4.94446-.35566,5.34967l-.30609.76679-.43152,1.17193-.36969,1.0232c.16175.18762.33673.3836.521.58087,2.59473,2.78418,3.74921,4.131,3.74921,4.3847l.21569.39063.63269.60931.179.74243.03406.06165.63263.60931.21869.90668-.19831.43146h-5.82489L466.2745,42.656a12.01845,12.01845,0,0,1-1.42273-1.71131.71872.71872,0,0,0-.6369-.48962.86946.86946,0,0,0-.56128.24475l-.554.32648-.45477.25073-2.82794,1.47229-.88043.344-1.24774.449-.66474.26239c-.05249.08453-2.94745.15155-6.46338.15155h-6.37V42.54291h-.84577V36.16406h5.84241c4.84827,0,5.92694-.04376,6.33508-.25653l.77259-.25952a6.20051,6.20051,0,0,0,1.40814-.5918c1.41687-.73761,4.43426-3.685,4.43426-4.32928l.35279-1.309a4.20661,4.20661,0,0,0,.27307-1.24072l-8.14142-.03974c-8.18341-.04077-8.98517-.07-9.18048-.33526a3.08137,3.08137,0,0,1-.18433-1.21747c-.455-.04517-.596-.10712-.66138-.19587a9.229,9.229,0,0,1-.21575-3.00579c0-2.23609.04663-2.76081.27111-2.98236.23908-.242,1.53058-.27118,11.61774-.27118m0-7c-5.07788,0-7.96686.00723-9.66467.04673-2.22339.05172-4.74225.11045-6.90308,2.27494-2.32123,2.3163-2.3211,5.04432-2.3211,7.93187,0,2.69937,0,5.03064,1.59631,7.17978q.03068.04161.06177.08264a6.98748,6.98748,0,0,0-2.69306,5.51858v6.37885a6.97045,6.97045,0,0,0,1.454,4.27167,7.00143,7.00143,0,0,0,6.39173,4.14166h6.37c1.75733,0,3.42432-.01633,4.69391-.046a13.2948,13.2948,0,0,0,4.33746-.59976l.00214.00531.56513-.22309,1.14727-.41284q.08909-.032.17725-.0665l.88049-.344q.2016-.07878.39795-.16986a7.00042,7.00042,0,0,0,4.74835,1.85669h5.82489a7.00007,7.00007,0,0,0,6.36048-4.07685l.19824-.43145a7.00011,7.00011,0,0,0,.44446-4.56449l-.21869-.90667a7.00007,7.00007,0,0,0-1.26264-2.63459,7.00014,7.00014,0,0,0-1.37841-2.0267,21.105,21.105,0,0,0-2.0774-2.64648,32.95538,32.95538,0,0,0,.41181-6.66562c.06122-5.3985.08331-7.344-1.59424-9.47638a7.08078,7.08078,0,0,0-1.00726-1.613c-2.17139-2.62613-4.983-2.68591-7.46448-2.73878-1.79376-.03821-4.8338-.0457-9.4787-.0457Z" fill="#fff"/><path d="M503.66024,47.45607c-3.41894,0-5.3623-.00683-6.49511-.04687-1.25293-.04395-3.585-.126-4.49122-2.45606-.02246-.06152-.04492-.123-.06543-.18457a3.59369,3.59369,0,0,1-.7832-1.23828c-.20312-.52929-1.09375-8.166.89356-10.15332,1.25586-1.23193,1.874-1.23193,9.44238-1.23193,1.8418,0,5.15625,0,6.14258-.07959.7539-.31055,1.71679-.61328,1.84668-.65381a5.87941,5.87941,0,0,0,.7207-.26953L494.255,31.07473a3.49967,3.49967,0,0,1-3.25977-2.26416l-.07812-.20606a3.49658,3.49658,0,0,1-.76856-1.20849l-.166-.44043c-.12012-.311-.39453-1.01953-.39453-3.90479,0-2.22461,0-3.69433,1.38672-5.06543,1.35351-1.356,1.35351-1.356,15.81054-1.356,14.45508,0,14.45508,0,15.751,1.29639a3.9289,3.9289,0,0,1,.92187,1.49121c1.2168,1.26074,1.2168,2.05274,1.2168,8.52783,0,5.562,0,6.417-.53906,8.08887a26.33946,26.33946,0,0,1-1.52637,3.771,18.38613,18.38613,0,0,1-4.58691,4.7207,10.08311,10.08311,0,0,1-4.65235,2.27441l-.10351.041C512.33114,47.45607,510.79989,47.45607,503.66024,47.45607Z" fill="#fff"/><path d="M506.78481,20.12952c11.5915,0,13.03461.02917,13.27655.27118.11744.11889.18458.38122.22242,1.26171.406.03779.55883.087.62341.15162.23328.23614.26819,1.032.26819,6.131,0,5.5246-.02039,5.92694-.37024,7.01434a22.61294,22.61294,0,0,1-1.32361,3.274,15.69791,15.69791,0,0,1-3.54224,3.481l-.27978.16033c0,.35566-1.77832,1.19532-3.36145,1.58594l-.85413.33527c-.09619.09625-3.24487.16034-7.78405.16034-6.78992,0-7.62958-.02912-7.72284-.27112a6.04765,6.04765,0,0,1-.10248-1.21814c-.55585-.04059-.70734-.102-.74329-.19525a31.94532,31.94532,0,0,1,.10205-6.41962c.15454-.15161,1.93872-.207,6.96772-.207,5.51007,0,6.85406-.04376,7.25054-.24493a16.79046,16.79046,0,0,1,1.78138-.64716,5.84363,5.84363,0,0,0,3.408-2.30609l.56274-.85126-.0437-2.6734-.02222-1.2633-10.00354-.04047-10.82477-.0437-.16613-.44025a4.86243,4.86243,0,0,1-.11982-.97088l-.55975-.00226-.1662-.44025a14.26263,14.26263,0,0,1-.16907-2.67047c0-2.00287.035-2.26813.34693-2.57715.33813-.33819.57428-.344,13.34942-.344m0-7c-6.708,0-9.74829.00192-11.51879.04753-1.92066.04945-4.55109.1172-6.7807,2.34707-2.39686,2.37435-2.39686,5.11156-2.39686,7.5266,0,3.53525.39936,4.57074.638,5.18942l.14844.39371a6.99335,6.99335,0,0,0,1.007,1.80472,6.98469,6.98469,0,0,0,1.24652,1.88748c-1.07013,1.81421-1.1029,3.87167-1.14483,6.50412-.05835,3.66241.12939,4.79538.57244,5.94968a7.21685,7.21685,0,0,0,.98945,1.76245c1.21527,2.76764,3.73413,4.23294,7.49646,4.36484,1.19085.04174,3.08282.0491,6.61792.0491,2.27856,0,4.25018-.01575,5.70184-.04556a12.58488,12.58488,0,0,0,5.01361-.74546l.08594-.03375a14.068,14.068,0,0,0,5.60363-2.71164,17.04,17.04,0,0,0,2.55481-2.18057,13.96825,13.96825,0,0,0,3.11792-3.86572,29.74112,29.74112,0,0,0,1.734-4.27939c.70374-2.1872.70374-3.38645.70374-9.14908,0-6.23679,0-8.34168-1.70166-10.405a7.28164,7.28164,0,0,0-1.43213-2.05852c-2.20264-2.20341-4.75317-2.25543-7.2196-2.30577-1.91785-.03912-5.22168-.04629-11.03718-.04629Z" fill="#fff"/><path d="M529.26571,47.45607c-4.64453,0-5.89355,0-7.1416-1.5a3.63434,3.63434,0,0,1-.67676-1.22265c-.05469-.05762-.10742-.11719-.16015-.17969-.94434-1.13086-1.02051-2.39941-.96973-5.02588l.0498-2.47265a3.49659,3.49659,0,0,1,1.15332-2.52735,3.50306,3.50306,0,0,1-1.17089-1.70654,3.49615,3.49615,0,0,1-1.00391-2.45313V25.40627A3.50049,3.50049,0,0,1,521.5704,22.147c.74805-.293.88281-.3457,12.87793-.3457,12.78222,0,12.78222,0,14.01367,1.23242a3.52946,3.52946,0,0,1,.88965,1.4585c2.17676,2.31054.85351,11.35156.83105,11.43408a8.69659,8.69659,0,0,1-4.68945,5.79834l-1.02051.54785a3.50514,3.50514,0,0,1-1.57715.416l-3.49023.0791a7.26708,7.26708,0,0,1-3.6377,3.96875C534.35946,47.45607,533.38192,47.45607,529.26571,47.45607Z" fill="#fff"/><path d="M534.44882,25.30139c8.58276,0,11.38159.04956,11.53906.207a4.23386,4.23386,0,0,1,.1626,1.31354,1.9102,1.9102,0,0,1,.6831.09985c.28858.28864.271,7.00568-.02344,8.06977a5.24445,5.24445,0,0,1-2.96777,3.64709l-1.02624.551-3.233.07287-3.23315.07V40.21a3.69042,3.69042,0,0,1-2.16626,3.40515c-.60925.312-1.02612.34107-4.91821.34107-3.41675,0-4.29139-.04663-4.45166-.239a3.11767,3.11767,0,0,1-.15454-1.2434c-.43445-.03675-.62525-.09089-.69117-.17a8.16107,8.16107,0,0,1-.15161-2.70837l.04956-2.4693.4314-.11957a32.70509,32.70509,0,0,1,3.4314-.137l3.0028-.01746.57434-.64435c.53052-.59472.57727-.74047.57727-1.77832,0-1.77551-.21-1.69384,4.50721-1.75213,3.79858-.04377,4.10473-.07294,4.46045-.39362l.1394-.34833c-1.17859-.04467-3.4541-.0487-7.91443-.0487-5.01147,0-9.23584-.04669-9.38452-.105V30.40979a7.89675,7.89675,0,0,1-.84583-.0415V25.40637c.14869-.05835,5.37012-.105,11.60328-.105m0-7c-12.6604,0-12.6886.011-14.16089.589a7,7,0,0,0-4.44239,6.516v4.96192a6.9942,6.9942,0,0,0,1.45765,4.27575l.00927.02079a6.99073,6.99073,0,0,0-.44506,2.32086l-.04957,2.4693c-.0465,2.4187-.09448,4.91137,1.58912,7.10092a7.15516,7.15516,0,0,0,1.04052,1.65607c2.28614,2.74426,4.96143,2.74426,9.818,2.74426,4.44311,0,5.93994,0,8.10839-1.11029a10.986,10.986,0,0,0,4.15992-3.62564l1.44006-.03244a7.00031,7.00031,0,0,0,3.15369-.831l1.02624-.551a12.20486,12.20486,0,0,0,6.40308-7.94831c.15283-.55233.47119-1.70306.48364-6.1723.0094-3.37713.01636-5.90747-1.6604-8.04236a6.97035,6.97035,0,0,0-1.44043-2.08227c-2.11938-2.1185-4.46582-2.16049-7.43664-2.21363-1.76172-.03152-4.55408-.04559-9.0542-.04559Z" fill="#fff"/><path d="M576.74813,32.88234c-.10156,0-.20312-.00439-.30566-.01318l-26.50684-2.3208a3.49647,3.49647,0,0,1-2.27832-1.12647l-.82812-.90673a3.488,3.488,0,0,1-.75586-1.31446l-.08985-.09863a3.4966,3.4966,0,0,1-.916-2.36035V20.85256a3.50189,3.50189,0,0,1,1.127-2.57275l.82813-.76368a3.5006,3.5006,0,0,1,2.373-.92724q.15236,0,.30469.01318l26.50684,2.31738a3.50265,3.50265,0,0,1,2.27929,1.126l.83106.90967a3.50529,3.50529,0,0,1,.75683,1.31592l.08887.09765a3.5025,3.5025,0,0,1,.916,2.36084v3.88916a3.49841,3.49841,0,0,1-1.13184,2.57715l-.83105.76367A3.50179,3.50179,0,0,1,576.74813,32.88234Z" fill="#fff"/><path d="M549.39584,20.08875l26.50659,2.31768.83081.90961v.5025l.01489.00128.83081.90961v3.8891l-.83081.76379-26.50659-2.32061-.82788-.90668V25.6499l-.01782-.00158-.82788-.90668v-3.8891l.82788-.76379m-.00037-7a7.00011,7.00011,0,0,0-4.74621,1.85512l-.82789.76378a7.00013,7.00013,0,0,0-2.25341,5.14493v3.8891a7.00054,7.00054,0,0,0,1.45776,4.276,7.00051,7.00051,0,0,0,1.21863,1.85745l.82788.90665a7.00018,7.00018,0,0,0,4.55884,2.25329l26.50659,2.32062c.20386.01785.40784.0267.61084.0267a6.99982,6.99982,0,0,0,4.73718-1.8468l.83081-.76379a6.99992,6.99992,0,0,0,2.26245-5.15323v-3.8891a6.99972,6.99972,0,0,0-1.45776-4.276,6.99946,6.99946,0,0,0-1.21936-1.85822l-.83081-.9096a7.0003,7.0003,0,0,0-4.55884-2.25258l-26.50659-2.31769q-.30561-.02671-.61011-.02663Z" fill="#fff"/><path d="M576.74813,40.19094c-.10156,0-.20312-.0044-.30566-.01319l-26.50684-2.32031a3.49646,3.49646,0,0,1-2.27832-1.12646l-.82812-.90674a3.50348,3.50348,0,0,1-.75684-1.31543l-.08887-.09815a3.49658,3.49658,0,0,1-.916-2.36035V28.15822a3.50308,3.50308,0,0,1,1.13183-2.57763l.82813-.76075a3.50136,3.50136,0,0,1,2.36816-.92236q.15236,0,.30469.01318l26.50684,2.31788a3.50264,3.50264,0,0,1,2.27929,1.126l.83106.90967a3.5011,3.5011,0,0,1,.75586,1.31543l.08984.09766a3.50248,3.50248,0,0,1,.916,2.36084v3.88916a3.49837,3.49837,0,0,1-1.13184,2.57714l-.83105.76368A3.50184,3.50184,0,0,1,576.74813,40.19094Z" fill="#fff"/><path d="M549.39584,27.39752l26.50659,2.31775.83081.90961v.5025l.01489.00128.83081.90961v3.8891l-.83081.76379-26.50659-2.32062-.82788-.90667v-.50513l-.01782-.00159-.82788-.90667v-3.892l.82788-.76093m-.00037-7a6.99988,6.99988,0,0,0-4.73645,1.84619l-.828.76093a7.00008,7.00008,0,0,0-2.26306,5.15384v3.892a6.99972,6.99972,0,0,0,1.45776,4.276,7.00085,7.00085,0,0,0,1.21863,1.85739l.82788.90668a6.9997,6.9997,0,0,0,4.55884,2.25335l26.50659,2.32062c.20386.01785.40784.0267.61084.0267a7,7,0,0,0,4.73718-1.8468l.83081-.76379a6.99992,6.99992,0,0,0,2.26245-5.15323v-3.8891a7.0005,7.0005,0,0,0-1.45776-4.276,6.99866,6.99866,0,0,0-1.21936-1.85819l-.83081-.9096a7.0002,7.0002,0,0,0-4.55884-2.25257l-26.50659-2.31775q-.30561-.02673-.61011-.02664Z" fill="#fff"/><path d="M576.74813,47.5c-.10156,0-.20312-.00488-.30566-.01367L549.93563,45.166a3.49711,3.49711,0,0,1-2.27929-1.127l-.82813-.90722a3.49869,3.49869,0,0,1-.75488-1.31348l-.08985-.09863a3.4957,3.4957,0,0,1-.916-2.36036V35.46731a3.50193,3.50193,0,0,1,1.127-2.57276l.82813-.76367a3.50061,3.50061,0,0,1,2.373-.92725c.10157,0,.20313.0044.30567.01319l26.50683,2.32031a3.50249,3.50249,0,0,1,2.27832,1.126l.83106.90966a3.50537,3.50537,0,0,1,.75683,1.31592l.08887.09766a3.50248,3.50248,0,0,1,.916,2.36084v3.88916a3.49921,3.49921,0,0,1-1.13184,2.57715l-.83105.76367A3.50184,3.50184,0,0,1,576.74813,47.5Z" fill="#fff"/><path d="M549.39584,34.70349l26.50659,2.32062.83081.90961v.5025l.01489.00128.83081.90955v3.8891L576.74813,44l-26.50659-2.32062-.82788-.90667v-.50513l-.01782-.00159-.82788-.90668v-3.892l.82788-.7638m-.00037-7a7.00025,7.00025,0,0,0-4.74621,1.85513l-.82789.76377a7.00011,7.00011,0,0,0-2.25341,5.14493v3.892a6.99968,6.99968,0,0,0,1.45776,4.276,7.00042,7.00042,0,0,0,1.21863,1.8574l.82788.9067a6.99986,6.99986,0,0,0,4.55884,2.25333l26.50659,2.32062c.20386.01785.40784.0267.61084.0267a7.00025,7.00025,0,0,0,4.73743-1.847l.83081-.76386a6.99991,6.99991,0,0,0,2.2622-5.153v-3.8891a7.00013,7.00013,0,0,0-1.45788-4.2761,6.99838,6.99838,0,0,0-1.21924-1.858l-.83081-.90964a6.99985,6.99985,0,0,0-4.55811-2.25253l-26.50659-2.32062q-.306-.02678-.61084-.0267Z" fill="#fff"/><path d="M589.0245,48.01564c-5.94434,0-5.94434,0-6.78613-.39843a3.4965,3.4965,0,0,1-1.84375-2.123,3.49746,3.49746,0,0,1-1.00391-2.42676l-.04394-5.92431a3.45639,3.45639,0,0,1,.01464-.34864c-.02734-.02539-.05468-.05127-.08105-.07714a3.48768,3.48768,0,0,1-.89356-1.46143,3.50024,3.50024,0,0,1-1.0039-2.45313v-6.3706a3.49949,3.49949,0,0,1,2.09375-3.20508,2.76342,2.76342,0,0,0,.86133-.75635,4.92768,4.92768,0,0,0,.74121-1.5,3.49959,3.49959,0,0,1,3.49707-3.35595h20.01855s3.94336-.05567,3.96-.05567a3.53837,3.53837,0,0,1,3.33985,2.40332c1.23242.998,1.22461,2.09815,1.166,9.7583l-.01562,2.54492c-.02149,4.14258-.02344,4.48145-.49121,5.91846q-.04687.14428-.10547.28418a14.95521,14.95521,0,0,1-3.05762,4.90576,11.74363,11.74363,0,0,1-3.73144,2.89746l-.51563.26172c-2.81641,1.43946-3.415,1.44141-10.74805,1.4668C594.39559,48,590.11141,48.01564,589.0245,48.01564Z" fill="#fff"/><path d="M608.55453,21.05927c.08472.05822.13513.41467.15967,1.423l.686-.00958c.17407.1195.204,1.47515.1604,7.22137-.04614,6.44879.01905,6.3205-.33447,7.408a11.598,11.598,0,0,1-2.38477,3.87451,8.28391,8.28391,0,0,1-2.749,2.16614c-2.85522,1.4314-1.93872,1.32355-11.55127,1.36438-1.244.00613-2.43481.009-3.51636.009-3.0321,0-5.20605-.02282-5.28833-.06152l-.01013-1.37842a7.8803,7.8803,0,0,1-.83557-.035l-.04346-5.924c.13318-.22449,1.22364-.26532,7.8938-.309,6.13452-.03791,7.70532.02307,9.04419-.35871a4.52688,4.52688,0,0,0,3.04029-1.62982,2.65831,2.65831,0,0,0,.26025-.3421c-1.91126-.16028-5.72754-.19641-8.77869-.19641-2.50195,0-4.48938.02429-4.48938.02429l.0083-1.42182c-.53515.00464-.854.00849-.854.00849l.01843-3.175a7.6609,7.6609,0,0,1-.77344,1.2785,8.63827,8.63827,0,0,1-6.48791,3.22059V32.733a7.75116,7.75116,0,0,1-.84583.06976V26.43231a6.11537,6.11537,0,0,0,2.306-1.93243,6.90447,6.90447,0,0,0,1.38685-3.38519H604.5953l3.95923-.05542m-16.05774,7.81588c4.54248,0,11.89734-.13217,11.90222-.98782.00244-.44977.0033-.9975.0033-1.67951,0-.15271.00049-.28631.00061-.431H589.839a8.6152,8.6152,0,0,1-.48291,3.07746c.55408.00775,1.70728.0209,3.14075.0209m16.05774-14.81587c-.03272,0-.06519.00023-.0979.00069l-3.91016.05472H584.57614a7,7,0,0,0-6.939,6.07754l-.0282.053a7.00011,7.00011,0,0,0-3.72571,6.1871v6.37042a6.99958,6.99958,0,0,0,1.45813,4.27643,7.00154,7.00154,0,0,0,.51233.94226l.03723,5.07108a6.99637,6.99637,0,0,0,1.45728,4.22427,6.99789,6.99789,0,0,0,3.40881,3.472c1.54615.72726,1.79859.72726,8.2677.72726,1.09217,0,2.29456-.00293,3.55079-.00912l1.82348-.00681c7.43482-.0256,8.77454-.03021,12.33582-1.84881l.49463-.251a15.08994,15.08994,0,0,0,4.70837-3.62525A18.50049,18.50049,0,0,0,615.67,39.8363q.119-.28034.21325-.57016c.63526-1.95413.63929-2.71859.66175-6.96109l.01538-2.56094c.02417-3.17432.02417-4.83667-.00012-5.92606a9.03729,9.03729,0,0,0-1.62415-5.65545,6.851,6.851,0,0,0-2.41724-2.87253,7.00034,7.00034,0,0,0-3.96435-1.23079Z" fill="#fff"/><path d="M479.70028,38.94338c-7.35937,0-7.69043-.05078-7.98242-.09619a3.86254,3.86254,0,0,1-3.17383-2.47754c-1.334-1.33106-1.29-3.63086-1.24707-5.87549l.04981-2.58691a3.49975,3.49975,0,0,1,3.48339-3.43262l10.23829-.04639c1.53515-.00683,2.877-.01025,4.042-.01025,6.94531,0,7.51269,0,8.67773.96387A3.70848,3.70848,0,0,1,494.962,27.0967c1.17871,1.21436,1.17871,2.84717,1.17871,5.22119,0,2.66406,0,4.272-1.54883,5.55859-1.24707,1.044-1.24707,1.044-12.18847,1.064Z" fill="#fff"/><path d="M485.10647,27.91815a47.27986,47.27986,0,0,1,6.4527.16162c.12457.10248.18872.46411.2171,1.32856a2.00206,2.00206,0,0,1,.62866.08477c.18073.14868.23615.81635.23615,2.825,0,2.23608-.04377,2.66467-.28571,2.86578-.23321.19537-2.03491.242-9.95892.25659-.92725.002-1.83106.003-2.69373.003-4.08465,0-7.23511-.02176-7.45172-.05548-.44665-.07062-.59509-.21228-.62286-1.40149-.11334-.00378-.196-.00769-.2229-.0119-.62677-.09912-.66761-.32654-.60932-3.41388l.04956-2.58594,10.23877-.04663c1.528-.00662,2.86292-.01,4.02222-.01m0-7c-1.168,0-2.51306.00342-4.05255.01007l-10.2403.04663a6.99994,6.99994,0,0,0-6.96685,6.86579l-.04957,2.58593a21.55437,21.55437,0,0,0,.15546,4.19208,7.87714,7.87714,0,0,0,1.49329,3.44113,7.5059,7.5059,0,0,0,5.71185,4.24231c.61017.095.90814.14139,8.54492.14139.86762,0,1.77655-.00094,2.70911-.003,4.33313-.008,6.58484-.02557,8.02856-.0628,2.14466-.0553,4.36243-.11246,6.41-1.82767,2.79071-2.3198,2.79071-5.32532,2.79071-8.23187,0-2.46122.00018-4.99286-1.67249-7.10193a7.10241,7.10241,0,0,0-1.96252-2.54245c-2.12073-1.75559-3.29029-1.75559-10.8996-1.75559Z" fill="#fff"/><path d="M622.419,38.94631c-7.53808,0-7.77539-.04688-8.168-.125a3.49981,3.49981,0,0,1-1.71484-.88233l-.57422-.53955a3.4946,3.4946,0,0,1-.94531-1.51123,3.50023,3.50023,0,0,1-1.00391-2.50244l.0752-5.332a3.50453,3.50453,0,0,1,.57715-1.87646c1.17968-1.79,1.17968-1.79,13.30468-1.79,5.082,0,7.58692.002,8.98926.04687,1.36523.04395,3.42871.11035,4.51563,2.12988a3.47663,3.47663,0,0,1,.248.58155,3.88757,3.88757,0,0,1,.59571.82763,3.51082,3.51082,0,0,1,.41992,1.70606l-.06739,5.45215a3.49991,3.49991,0,0,1-.6748,2.02246c-1.29,1.76465-1.29,1.76465-12.86133,1.78955Z" fill="#fff"/><path d="M623.96981,27.88733c9.9502,0,10.24756.00873,10.42249.33527l-.01428,1.15679c.69287.04889.791.12775.8601.2566l-.06714,5.45172c-.23608.32361-.55688.33526-10.04345.35571-.9303.002-1.83631.003-2.70056.003-4.141,0-7.31348-.02225-7.49451-.05841l-.57422-.53937.01221-.85852c-.15894-.00482-.25611-.01-.28369-.0155l-.57435-.53931.07581-5.33221c.11084-.16913,2.37891-.21576,10.38159-.21576m0-7c-4.26135,0-6.74219.01373-8.29541.046-2.6001.05392-5.83594.12106-7.94079,3.3327a6.99986,6.99986,0,0,0-1.14466,3.73758l-.0758,5.33221a6.99932,6.99932,0,0,0,1.45752,4.37613,6.9987,6.9987,0,0,0,1.595,2.23874l.57422.53937a6.99924,6.99924,0,0,0,3.42114,1.7623c.78479.15683.97131.19409,8.866.19409.86914,0,1.78027-.001,2.71582-.003,4.75024-.01022,7.29553-.01791,8.72338-.06851a8.30357,8.30357,0,0,0,6.96-3.16175,7.00057,7.00057,0,0,0,1.34436-4.03924l.06713-5.45169a7.00072,7.00072,0,0,0-.83068-3.39469,7.50645,7.50645,0,0,0-.64026-.99746q-.095-.20934-.204-.41281c-2.03882-3.80613-5.85974-3.92875-7.49146-3.98114-1.45569-.0467-3.98132-.04877-9.10144-.04877Z" fill="#fff"/><path d="M649.544,48.70314a4.13633,4.13633,0,0,1-3.89648-2.76269,4.11489,4.11489,0,0,1-1.07715-2.7793V33.40529h-6.36231a4.10139,4.10139,0,0,1-3.86621-2.74658,4.07931,4.07931,0,0,1-1.07324-2.76025v-4.1836a4.09857,4.09857,0,0,1,4.09375-4.09326h7.23926A4.13371,4.13371,0,0,1,648.69833,16h6.2998q.15381,0,.30469.01123a4.48331,4.48331,0,0,1,2.76074-.94775h2.86719a4.50491,4.50491,0,0,0,3.00977,0h2.86718a4.50918,4.50918,0,0,1,4.22657,2.95117,4.45328,4.45328,0,0,1,1.12109,2.96387v1.49365a4.46448,4.46448,0,0,1-.5918,2.22851,4.12521,4.12521,0,0,1,.02246.42774V29.312a4.09856,4.09856,0,0,1-4.09375,4.09326h-7.5205V44.57522a4.13232,4.13232,0,0,1-4.12793,4.12792Z" fill="#fff"/><path d="M666.808,18.5636a1.00438,1.00438,0,0,1,1.00146,1.0014v.44361a.99172.99172,0,0,1,.8457.96978v1.4939a1.00438,1.00438,0,0,1-1.00146,1.0014h-.46777a.58442.58442,0,0,1,.0542.24134v.82013h.25256a.59489.59489,0,0,1,.59314.5932V29.312a.59484.59484,0,0,1-.59314.59314H656.47177V44.575a.63008.63008,0,0,1-.62818.62818h-6.29907a.63007.63007,0,0,1-.62817-.62818v-.78522h-.21753a.63.63,0,0,1-.62818-.62817V29.90515l-9.86291-.00006a.59483.59483,0,0,1-.59314-.59314v-.82019H637.362a.59489.59489,0,0,1-.59314-.5932V23.715a.59485.59485,0,0,1,.59314-.5932h10.70862V20.12842a.63.63,0,0,1,.62818-.62818h6.29907a.63.63,0,0,1,.62817.62818v.78515h.21753a.63009.63009,0,0,1,.62818.62824v1.58h1.6914a.98672.98672,0,0,1-.25525-.64954v-.4436a.99173.99173,0,0,1-.84582-.96979V19.565a1.00438,1.00438,0,0,1,1.00146-1.0014h2.86768a1.00428,1.00428,0,0,1,1.00134,1.0014v.44367a.99155.99155,0,0,1,.8457.96972v1.4939a.98667.98667,0,0,1-.25525.64954h1.51685a.98721.98721,0,0,1-.25513-.64954v-.44366a.99157.99157,0,0,1-.8457-.96973V19.565a1.00428,1.00428,0,0,1,1.00134-1.0014H666.808m0-7h-2.86756a8.04918,8.04918,0,0,1-3.00915,0h-2.86768a7.95291,7.95291,0,0,0-3.75427.93664h-5.61047a7.63013,7.63013,0,0,0-6.489,3.62159H637.362a7.60175,7.60175,0,0,0-7.59314,7.5932v4.18353a7.55351,7.55351,0,0,0,1.53406,4.57156,7.60345,7.60345,0,0,0,6.90479,4.435l2.86291,0v6.2565a7.59035,7.59035,0,0,0,1.5387,4.58948,7.6385,7.6385,0,0,0,6.93518,4.45209h6.29907a7.63682,7.63682,0,0,0,7.62818-7.62818V36.90509h4.02087a7.60172,7.60172,0,0,0,7.59314-7.59314V25.4371a7.95841,7.95841,0,0,0,.56933-2.96481v-1.4939a7.94919,7.94919,0,0,0-1.59558-4.79422A8.01225,8.01225,0,0,0,666.808,11.5636Z" fill="#fff"/><path d="M636.59677,48.61916a3.50871,3.50871,0,0,1-3.3418-2.46,3.49109,3.49109,0,0,1-.8916-1.5752,23.00417,23.00417,0,0,1-.68457-7.748,3.50033,3.50033,0,0,1,3.457-2.97754c.11621,0,.23242.00537.35058.01709.02442.002.17969.01269.39356.01269.21484,0,.39551-.01074.54394-.02539a15.03973,15.03973,0,0,0,.11719-3.31836,3.4992,3.4992,0,0,1,3.48828-3.78515c.02149,0,.044,0,.06543.00049.00782.00048,2.15918.04052,3.59278.04052.31738,0,.59179-.00049.77929-.00537a3.48284,3.48284,0,0,1,.49707-.03564c.04785,0,.09668.00146.14551.00342a3.50128,3.50128,0,0,1,3.19922,2.458,3.49128,3.49128,0,0,1,1.00293,2.49951l-.09375,6.91065C649.21786,44.211,643.67391,48.61916,636.59677,48.61916Z" fill="#fff"/><path d="M644.96627,30.25909v0m-4.93664,0s2.1958.04136,3.65857.04136a8.25723,8.25723,0,0,0,1.27807-.04108l-.01977,1.45285a4.594,4.594,0,0,0,.8656-.03946l-.09412,6.91092c0,3.43207-3.7926,6.53509-9.12085,6.53509,0,0-.14953-.57983-.3103-1.4328-.1781.00715-.35364.01947-.53552.01947a20.11544,20.11544,0,0,1-.61109-6.347s.2992.02975.74048.02975a4.96518,4.96518,0,0,0,3.052-.7977c1.50513-1.33758,1.09693-6.33136,1.09693-6.33136m5.78247,1.4134v0m-5.7826-8.4134a7.00015,7.00015,0,0,0-6.99121,7.34812,6.93618,6.93618,0,0,0-4.8197,5.70636,25.58742,25.58742,0,0,0,.757,9.1495,6.98215,6.98215,0,0,0,1.23352,2.51908,7.00116,7.00116,0,0,0,6.38806,4.13662c9.0166,0,16.08447-5.91436,16.12073-13.47625l.09363-6.87445a6.97153,6.97153,0,0,0-1.45386-4.36731,7.00068,7.00068,0,0,0-6.13037-4.13654c-.08862-.00329-.17749-.00494-.26538-.005a7.03575,7.03575,0,0,0-.74121.03906c-.14856.002-.33094.00214-.53247.00214-1.37854,0-3.50562-.03971-3.52686-.0401-.04394-.00083-.088-.00126-.13184-.00126Zm4.93677,14.00028h0Zm0,0h0Z" fill="#fff"/><path d="M669.086,48.61916c-5.36816,0-9.92871-2.5-11.78515-6.41016a8.60243,8.60243,0,0,1-1.68067-5.03857l-.09472-6.86279a3.5003,3.5003,0,0,1,3.35644-3.54492c.04883-.002.09766-.00342.14551-.00342a3.48274,3.48274,0,0,1,.49707.03564c.1875.00488.46191.00537.7793.00537,1.43652,0,3.59277-.04052,3.59277-.04052.02148-.00049.04395-.00049.06543-.00049a3.49946,3.49946,0,0,1,3.3418,2.458c.01855.019.03711.03857.05468.0581a3.49425,3.49425,0,0,1,.93848,2.67822,16.83886,16.83886,0,0,0-.02148,1.93164c.13086-.00293.22168-.00927.25488-.0122.10156-.0083.20215-.0127.30273-.0127a3.52674,3.52674,0,0,1,3.36329,2.46875,3.46363,3.46363,0,0,1,.96191,1.91992,23.01141,23.01141,0,0,1-.68457,7.749A3.50009,3.50009,0,0,1,669.086,48.61916Zm-6.57617-18.69287" fill="#fff"/><path d="M663.96249,30.25909s-.04712.59766-.0492,1.42835c.52759-.00812.895-.01495.895-.01495a16.65057,16.65057,0,0,0,.3595,5.00073,5.24344,5.24344,0,0,0,2.95728.714c.43359,0,.72692-.02878.72692-.02878a9.08934,9.08934,0,0,1,.08472,1.44226h.01782c.4408,0,.74317-.02893.74317-.02893a20.11,20.11,0,0,1-.61121,6.347c-4.35046,0-7.6748-2.06921-8.74927-4.69659A5.22539,5.22539,0,0,1,659.12,37.17035l-.094-6.911a8.24546,8.24546,0,0,0,1.27808.04111c1.46265,0,3.65845-.04136,3.65845-.04136m-4.93653,0v0m4.93494-7c-.04346,0-.08667.0004-.13013.00123-.02136.00039-2.14831.0401-3.52673.0401-.20166,0-.384-.00019-.53259-.00211a7.02214,7.02214,0,0,0-.74134-.03906c-.08215,0-.16418.0014-.24682.00427a7,7,0,0,0-6.75672,7.091l.09351,6.87494a12.02342,12.02342,0,0,0,2.16052,6.76758c2.51343,4.96576,8.20386,8.1217,14.80591,8.1217a7,7,0,0,0,6.77564-5.24194,25.58219,25.58219,0,0,0,.75708-9.15021,7.2176,7.2176,0,0,0-1.40491-3.33227,6.85559,6.85559,0,0,0-3.45252-3.48844,7.03093,7.03093,0,0,0-1.41528-3.50006,7.01675,7.01675,0,0,0-6.38562-4.14673Zm.00159,14h0Z" fill="#fff"/><path d="M436.419,98.93654c-4.292,0-7.55664-1.3789-9.70215-4.09863-2.874-3.64258-3.35156-9.25781-1.46-17.167L431.378,52.084a3.50023,3.50023,0,0,1,3.40429-2.68554h5.13086a3.50005,3.50005,0,0,1,3.4043,4.31445l-5.77832,24.15723c-1.4541,6.07519-.43457,7.5957-.31348,7.749.1709.2168.72071.249,1.03321.249,3.34667,0,5.24414-4.99707,6.24707-9.18945L450.38973,52.084a3.50025,3.50025,0,0,1,3.4043-2.68554h5.12891a3.50005,3.50005,0,0,1,3.40429,4.31445l-5.96,24.916C452.35165,95.41311,443.30282,98.93654,436.419,98.93654Z" fill="#fff"/><path d="M458.92343,52.89825h.005m-.005,0L452.963,77.81415q-4.21573,17.62262-16.54413,17.62256-11.812,0-7.75787-16.95118l6.121-25.58728h5.13141l-5.77893,24.15729q-2.94516,12.31166,4.1242,12.31232,6.80906,0,9.65155-11.87457l5.88361-24.595h5.12958m.005-7h-5.13458a7,7,0,0,0-6.80792,5.3714l-.14661.61286a7.00011,7.00011,0,0,0-6.9259-5.98426H434.782a7,7,0,0,0-6.80793,5.3714l-6.121,25.58728c-2.15753,9.019-1.46533,15.60993,2.11621,20.14927,1.95459,2.47738,5.70111,5.43051,12.44959,5.43051,8.14368,0,18.80566-3.98923,23.35205-22.994l5.90533-24.6857a7.00534,7.00534,0,0,0-6.74786-8.8588Zm-.005,14h0Z" fill="#fff"/><path d="M456.17782,98.23537a3.50005,3.50005,0,0,1-3.4043-4.31445L462.78134,52.084a3.50128,3.50128,0,0,1,3.40429-2.68554H482.8702a3.50005,3.50005,0,0,1,3.4043,4.31445l-1.41016,5.89453a3.50023,3.50023,0,0,1-3.40429,2.68555h-8.791l-1.334,5.57324H477.547a3.50005,3.50005,0,0,1,3.4043,4.31445l-1.40332,5.86426a3.50025,3.50025,0,0,1-3.4043,2.68555h-7.88476L464.713,95.54982a3.50025,3.50025,0,0,1-3.4043,2.68555Z" fill="#fff"/><path d="M482.8699,52.89825l-1.41,5.89429H469.90743l-3.008,12.57416h10.64715l-1.40271,5.8634H465.49679l-4.18774,17.50574h-5.13141l10.00842-41.83759H482.8699M477.54659,71.3667h.005m5.3183-25.46845H466.18606a7,7,0,0,0-6.80792,5.3714L449.36971,93.10724a7,7,0,0,0,6.80793,8.6286h5.13141a7,7,0,0,0,6.80792-5.3714l2.90277-12.13434h5.12414a7,7,0,0,0,6.80787-5.37134l1.34759-5.633a7.01193,7.01193,0,0,0-2.52313-7.44028,7.00035,7.00035,0,0,0,6.49158-5.36429l1.41-5.89431a7,7,0,0,0-6.80792-8.62861Zm0,14h0Z" fill="#fff"/><path d="M496.35653,98.23537a3.49929,3.49929,0,0,1-3.499-3.42383l-.15821-7.22461h-6.5498l-4.25977,8.68848a3.49831,3.49831,0,0,1-3.14257,1.96h-5.60547a3.49937,3.49937,0,0,1-3.11035-5.10449l21.583-41.83691a3.50024,3.50024,0,0,1,3.11036-1.89551H500.503a3.49976,3.49976,0,0,1,3.498,3.376l1.48047,41.83692a3.5,3.5,0,0,1-3.49805,3.624Zm-3.7998-23.30859-.00977-.52344-.25781.52344Z" fill="#fff"/><path d="M500.50283,52.89825l1.48029,41.83759h-5.62683l-.23236-10.64874H483.9667L478.747,94.73584h-5.605l21.58271-41.83759h5.77807m-13.845,25.5282h9.46131l-.2959-16.68805a25.20607,25.20607,0,0,1,.21808-2.62494h-.08741a27.3873,27.3873,0,0,1-1.05786,2.62494l-8.23822,16.68805m13.845-32.5282h-5.77807a7,7,0,0,0-6.221,3.79078l-21.5827,41.83758a7,7,0,0,0,6.221,10.20923h5.605a7,7,0,0,0,6.28553-3.919l3.2987-6.7297h.94373l.08294,3.80145a7,7,0,0,0,6.99836,6.84729h5.62683a7,7,0,0,0,6.9956-7.24753l-1.48028-41.83758a7,7,0,0,0-6.99561-6.75248Z" fill="#fff"/><path d="M534.336,98.23537a3.50005,3.50005,0,0,1-3.40429-4.31445l1.6582-6.92871-5.01758,9.39258a3.50018,3.50018,0,0,1-3.08691,1.85058H520.9493a3.50029,3.50029,0,0,1-3.49414-3.29492l-.57714-9.85254-2.50293,10.46191a3.50025,3.50025,0,0,1-3.4043,2.68555h-4.74316a3.50005,3.50005,0,0,1-3.4043-4.31445L512.83114,52.084a3.50129,3.50129,0,0,1,3.4043-2.68554h7.2207a3.5,3.5,0,0,1,3.49512,3.3164l1.03613,19.73145,11.39746-21.20508a3.50129,3.50129,0,0,1,3.083-1.84277h6.96289a3.50005,3.50005,0,0,1,3.4043,4.31445L542.82626,95.54982a3.50025,3.50025,0,0,1-3.4043,2.68555Z" fill="#fff"/><path d="M549.43051,52.89825h.005m-.005,0L539.42208,94.73584h-5.08581l6.4768-27.07495q.79542-3.32511,2.24756-8.13928h-.08545q-1.13176,2.7431-1.78369,3.93811L524.48507,94.73584h-3.53564L519.129,63.6933a35.80307,35.80307,0,0,1,.17835-4.17169h-.08557q-.4283,2.50945-1.78821,8.19836l-6.46277,27.01587h-4.74341L516.2358,52.89825h7.22083l1.4624,27.8631a47.16784,47.16784,0,0,1,.06152,4.78394h.10743q1.58641-3.297,2.46569-4.90076l14.91468-27.74628h6.96216m.005-7h-6.96716a6.99991,6.99991,0,0,0-6.16565,3.6857L530.827,59.7706l-.38-7.23923a7,7,0,0,0-6.99036-6.63312H516.2358a7,7,0,0,0-6.80792,5.3714L499.41946,93.10724a7,7,0,0,0,6.80792,8.6286h4.74341a6.99419,6.99419,0,0,0,4.98938-2.09,6.98335,6.98335,0,0,0,4.98926,2.09h3.53564a7,7,0,0,0,4.92566-2.02606,7.00048,7.00048,0,0,0,4.92554,2.02606h5.08581a6.99984,6.99984,0,0,0,6.80786-5.3714l9.95337-41.60739a7.005,7.005,0,0,0-6.7478-8.8588Zm-.005,14h0Z" fill="#fff"/><path d="M547.01083,98.23537a3.50005,3.50005,0,0,1-3.4043-4.31445L553.61434,52.084a3.5013,3.5013,0,0,1,3.4043-2.68554h5.2832a3.50005,3.50005,0,0,1,3.4043,4.31445L555.69735,95.54982a3.50023,3.50023,0,0,1-3.4043,2.68555Z" fill="#fff"/><path d="M562.30172,52.89825h.005m-.005,0L552.2933,94.73584h-5.28247l10.0083-41.83759h5.28259m.005-7h-5.2876a6.99988,6.99988,0,0,0-6.80786,5.37143L540.203,93.10727a6.99989,6.99989,0,0,0,6.80786,8.62857h5.28247a6.99985,6.99985,0,0,0,6.80786-5.3714l9.95337-41.60739a7.00537,7.00537,0,0,0-6.7478-8.8588Zm-.005,14h0Z" fill="#fff"/><path d="M581.128,98.23537a3.4991,3.4991,0,0,1-3.40332-4.31543L585.29989,62.293H580.8663a3.4988,3.4988,0,0,1-3.40332-4.31445l1.41015-5.89454a3.50025,3.50025,0,0,1,3.4043-2.68554h22.89648a3.50005,3.50005,0,0,1,3.4043,4.31445l-1.41211,5.89453a3.49913,3.49913,0,0,1-3.40332,2.68555h-6.1289l-7.9668,33.25781a3.49931,3.49931,0,0,1-3.40332,2.68457Z" fill="#fff"/><path d="M605.1744,52.89825h.005m-.005,0-1.41186,5.89429h-8.88929l-8.609,35.9433h-5.136l8.60913-35.9433H580.8663l1.41162-5.89429H605.1744m.005-7H582.27792a7,7,0,0,0-6.8075,5.36969l-1.41162,5.89429a7,7,0,0,0,6.804,8.63031l-6.542,27.31278a7,7,0,0,0,6.8075,8.63052h5.136a7.00008,7.00008,0,0,0,6.80749-5.36951l7.32288-30.57379h3.36792a6.99982,6.99982,0,0,0,6.80737-5.36941l1.35681-5.66413a7.00552,7.00552,0,0,0-6.74731-8.86075Zm-.005,14h0Z" fill="#fff"/><path d="M610.97665,98.93654c-4.29785,0-7.56641-1.37988-9.71289-4.10156-2.874-3.64355-3.34961-9.25781-1.45606-17.165L605.93661,52.083a3.49931,3.49931,0,0,1,3.40332-2.68457h5.13574a3.4991,3.4991,0,0,1,3.40332,4.31543l-5.78613,24.15722c-1.4541,6.07129-.43359,7.59278-.3125,7.74707.17187.21778.72363.25,1.03711.25,3.35547,0,5.25683-4.998,6.26172-9.19043L624.96981,52.083a3.49932,3.49932,0,0,1,3.40332-2.68457h5.13575a3.49911,3.49911,0,0,1,3.40332,4.31543l-5.96778,24.916C626.92489,95.41311,617.86727,98.93654,610.97665,98.93654Z" fill="#fff"/><path d="M633.50936,52.89825h.005m-.005,0-5.96777,24.9159q-4.221,17.62262-16.56445,17.62256-11.82934,0-7.76563-16.95118l6.12842-25.58728h5.136l-5.78614,24.15729q-2.94873,12.31166,4.12744,12.31232,6.82307,0,9.66529-11.87457l5.891-24.595h5.13586m.005-7H628.3735a7.0001,7.0001,0,0,0-6.8075,5.36948l-.15783.65906a6.99992,6.99992,0,0,0-6.93225-6.02854h-5.136a7.00012,7.00012,0,0,0-6.8075,5.36954L596.404,76.85507c-2.15979,9.01727-1.469,15.60755,2.11169,20.14731,1.95544,2.4791,5.70471,5.43433,12.46143,5.43433,8.1499,0,18.82031-3.98893,23.37194-22.992l5.9126-24.68579a7.005,7.005,0,0,0-6.74731-8.86063Zm-.005,14h0Z" fill="#fff"/><path d="M648.67587,98.23537a3.49983,3.49983,0,0,1-3.43067-2.80762l-2.25976-11.20312a17.43792,17.43792,0,0,0-.50293-2.0459L639.27938,95.5508a3.49931,3.49931,0,0,1-3.40332,2.68457H630.7618a3.49911,3.49911,0,0,1-3.40332-4.31543L637.379,52.083a3.49932,3.49932,0,0,1,3.40332-2.68457h10.18848a13.35822,13.35822,0,0,1,5.20117.97363,9.714,9.714,0,0,1,4.167,3.28906,10.97856,10.97856,0,0,1,1.91993,5.15723,17.59216,17.59216,0,0,1-.48926,6.18652,22.44768,22.44768,0,0,1-1.73242,4.81934,19.6352,19.6352,0,0,1-2.6504,4.01562,17.48435,17.48435,0,0,1-3.44042,3.08008c-.0625.042-.124.084-.18653.125.03711.0791.07324.1582.10938.23828a17.70926,17.70926,0,0,1,.834,2.29785c.21582.749.44434,1.59473.68262,2.55957L658.088,93.9551a3.49969,3.49969,0,0,1-3.41211,4.28027Zm-2.94629-29.61621a2.16747,2.16747,0,0,0,.72656-.19043,3.568,3.568,0,0,0,1.05762-.73535,6.10624,6.10624,0,0,0,1.05566-1.44434,8.72268,8.72268,0,0,0,.80274-2.14648,4.18949,4.18949,0,0,0,.14257-2.00977,2.66232,2.66232,0,0,0-.64746-.06347h-1.55859Z" fill="#fff"/><path d="M650.97079,52.89825a9.84755,9.84755,0,0,1,3.84448.70087,6.22175,6.22175,0,0,1,2.68884,2.11469,7.5101,7.5101,0,0,1,1.28113,3.5299,14.12567,14.12567,0,0,1-.41846,4.94507,18.95606,18.95606,0,0,1-1.4602,4.07092A16.08068,16.08068,0,0,1,654.7347,71.556a13.91887,13.91887,0,0,1-2.74987,2.46515,12.63786,12.63786,0,0,1-3.21546,1.57629l-.028.11682a6.03958,6.03958,0,0,1,1.13135,1.41382q.43853.77345.80444,1.59107a14.41213,14.41213,0,0,1,.66907,1.85156c.19922.69147.41565,1.493.6416,2.40741l2.68823,11.75775h-6.00037l-2.25927-11.20325a20.07167,20.07167,0,0,0-.67322-2.641,7.20334,7.20334,0,0,0-.86536-1.79376,2.92872,2.92872,0,0,0-1.18908-1.02045,3.97782,3.97782,0,0,0-1.67408-.32092H639.943l-4.0669,16.97943h-5.114L640.7828,52.89825h10.188m-9.6792,19.22706h4.27515a5.62992,5.62992,0,0,0,2.30761-.49683,7.046,7.046,0,0,0,2.082-1.42859,9.51945,9.51945,0,0,0,1.68677-2.27582,12.167,12.167,0,0,0,1.132-3.00488,6.317,6.317,0,0,0-.27917-4.698,3.85276,3.85276,0,0,0-3.629-1.69177h-4.31885l-3.25647,13.59589m9.6792-26.22706h-10.188a7.00009,7.00009,0,0,0-6.80749,5.36951L623.95455,93.10535a7,7,0,0,0,6.8075,8.63049h5.114a7.001,7.001,0,0,0,6.39978-4.16254,7.00165,7.00165,0,0,0,6.3999,4.16254h6.00037A6.99993,6.99993,0,0,0,661.5,93.17566l-2.68823-11.75775q-.01355-.0597-.02832-.11911c-.22925-.9281-.46851-1.82511-.71081-2.66617q-.05952-.20243-.11988-.39713a21.51047,21.51047,0,0,0,2.08679-2.11233,23.16572,23.16572,0,0,0,3.12256-4.722,26.07661,26.07661,0,0,0,2.01233-5.58255,20.784,20.784,0,0,0,.55908-7.42489,14.44134,14.44134,0,0,0-2.54577-6.76605,13.17106,13.17106,0,0,0-5.66406-4.48343,16.81615,16.81615,0,0,0-6.55286-1.246Z" fill="#fff"/><path d="M658.27645,98.23537a3.49911,3.49911,0,0,1-3.40332-4.31543L664.89364,52.083a3.49931,3.49931,0,0,1,3.40332-2.68457h9.81934c5.15429,0,7.88965,2.20508,9.27734,4.05566,1.97363,2.63867,2.501,5.94434,1.57031,9.8291a18.99254,18.99254,0,0,1-3.65136,7.56641,17.11552,17.11552,0,0,1-1.38379,1.52148A9.6289,9.6289,0,0,1,685.05087,74.21c1.18457,2.53223,1.33984,5.666.46386,9.32129a19.40939,19.40939,0,0,1-6.35351,10.5498,16.60337,16.60337,0,0,1-10.95606,4.1543Zm10.87891-12.543a3.534,3.534,0,0,0,2.4668-.89551,5.94888,5.94888,0,0,0,1.6875-3.15917,3.69709,3.69709,0,0,0,.13672-1.92579h-.002a4.49631,4.49631,0,0,0-1.84082-.26562h-.95215ZM673.70223,66.708a3.15526,3.15526,0,0,0,1.13575-.66211,5.64589,5.64589,0,0,0,1.59179-3.02246,5.08353,5.08353,0,0,0,.15332-.9961,4.58251,4.58251,0,0,0-.77148-.05566H674.837Z" fill="#fff"/><path d="M678.11654,52.89825q4.4923,0,6.47693,2.65577,1.985,2.65447.9668,6.91345a15.43494,15.43494,0,0,1-2.97351,6.18567,11.81656,11.81656,0,0,1-5.01612,3.73394l-.02807.11683a5.46274,5.46274,0,0,1,4.3413,3.19555q1.26325,2.6988.22718,7.01679A15.9094,15.9094,0,0,1,676.899,91.41a13.14064,13.14064,0,0,1-8.69372,3.32581h-9.929L668.2972,52.89825h9.81934m-8.89123,17.4762H672.552a6.71631,6.71631,0,0,0,4.60363-1.70654,9.04808,9.04808,0,0,0,2.67749-4.82825q1.286-5.3693-4.02173-5.368h-3.7351l-2.851,11.90277M664.71823,89.192h4.38085a7.01045,7.01045,0,0,0,4.86512-1.79383,9.37907,9.37907,0,0,0,2.74926-4.94507q1.55823-6.50518-5.10937-6.50653h-3.71338L664.71823,89.192m13.39831-43.29371H668.2972a7.00009,7.00009,0,0,0-6.80749,5.36948L651.46884,93.10532a7,7,0,0,0,6.80749,8.63052h9.929a20.01306,20.01306,0,0,0,13.21765-4.98413,22.83908,22.83908,0,0,0,7.4956-12.40494c1.0597-4.424.83362-8.31491-.67175-11.56543a22.5018,22.5018,0,0,0,4.121-8.68332c1.47473-6.15786-.36523-10.32483-2.16846-12.73614-1.87219-2.49655-5.48254-5.46363-12.08276-5.46363Z" fill="#fff"/><path d="M697.56161,98.93654c-5.86133,0-10.18652-2.74414-12.50781-7.93554-2.05957-4.61719-2.25293-10.50489-.57617-17.50293,1.74414-7.28418,4.70019-13.22559,8.78613-17.66114,4.36523-4.7373,9.46191-7.13867,15.15039-7.13867,5.75781,0,10.01074,2.73926,12.30078,7.9209,2.0332,4.58594,2.21289,10.4707.53125,17.48828-1.76855,7.38379-4.72656,13.35645-8.79,17.75293C708.11141,96.55568,703.10067,98.93654,697.56161,98.93654Zm9.13281-37.14062c-1.78125,0-3.51172,1.00488-5.291,3.07129a23.18382,23.18382,0,0,0-4.62012,9.82422c-.94336,3.94043-1.01758,7.03808-.21875,9.20605.60937,1.65723,1.33887,1.9707,2.47266,1.9707,1.91992,0,3.66894-.93554,5.34863-2.85839,1.97363-2.26172,3.49414-5.58008,4.51953-9.86133,1.27832-5.34082.92383-8.1416.40137-9.55078A2.34149,2.34149,0,0,0,706.69442,61.79592Z" fill="#fff"/><path d="M708.4139,52.19873a9.1818,9.1818,0,0,1,9.10035,5.83521q2.58563,5.83456.32861,15.25811Q715.39,83.53324,709.88632,89.48468q-5.50708,5.95139-12.32471,5.952-6.69177,0-9.31213-5.86481-2.61676-5.86478-.36878-15.25806,2.41773-10.09423,7.9574-16.10534,5.53765-6.00979,12.5758-6.00977m-9.37683,37.16913q4.44269,0,7.986-4.05621,3.53724-4.05423,5.286-11.34827,1.79607-7.49808.27941-11.58319a5.77381,5.77381,0,0,0-5.894-4.08441q-4.25135,0-7.94311,4.28851a26.46322,26.46322,0,0,0-5.37085,11.29181q-1.67011,6.97247-.10035,11.23144,1.56739,4.2617,5.757,4.26032m9.37683-44.16913c-6.70629,0-12.66943,2.78122-17.72363,8.26636-4.4956,4.8789-7.7312,11.34485-9.61706,19.21823-1.86,7.76495-1.5962,14.4068.78369,19.74084,2.88769,6.45841,8.46423,10.01255,15.70471,10.01255,6.55371,0,12.42895-2.75815,17.46252-8.19779,4.47827-4.84418,7.71631-11.34234,9.62622-19.3164,1.86353-7.78074,1.61573-14.41709-.73645-19.72467a16.09429,16.09429,0,0,0-15.5-9.99912ZM699.71969,82.263c-.25952-1.03952-.41248-3.0798.46826-6.75632a19.76124,19.76124,0,0,1,3.869-8.3562,6.4799,6.4799,0,0,1,2.11841-1.74652c.17175.97324.25622,3.04642-.67371,6.92877-.8927,3.7273-2.15552,6.54563-3.75329,8.37693a4.886,4.886,0,0,1-2.02869,1.55334Z" fill="#fff"/><path d="M403.99423,98.93654a20.43445,20.43445,0,0,1-7.6377-1.418,15.691,15.691,0,0,1-2.63476-1.32519,8.10962,8.10962,0,0,1-1.9961-1.71191A4.78482,4.78482,0,0,1,390.837,90.461a8.60791,8.60791,0,0,1,.24219-.94434c.0957-.31152.22558-.65918.377-1.03613.14844-.3584.2832-.67578.42774-.98731a8.05745,8.05745,0,0,1,.71582-1.25293,6.35076,6.35076,0,0,1,1.04-1.17968,4.36091,4.36091,0,0,1,2.834-1.0752,5.3751,5.3751,0,0,1,3.30273,1.23926,13.16459,13.16459,0,0,0,1.30957.85937,11.18091,11.18091,0,0,0,1.84864.81641,7.2006,7.2006,0,0,0,2.35547.31055,9.08688,9.08688,0,0,0,2.918-.43848,7.27176,7.27176,0,0,0,2.19336-1.14062,5.97512,5.97512,0,0,0,1.43457-1.58594,5.25676,5.25676,0,0,0,.71387-1.8457,1.58455,1.58455,0,0,0,.02637-.65625,2.21894,2.21894,0,0,0-.4834-.752,7.3337,7.3337,0,0,0-1.32324-1.07031c-.7793-.5-1.58106-1.0332-2.3877-1.58984-.85351-.58789-1.69726-1.22657-2.50195-1.89649a12.50878,12.50878,0,0,1-2.57227-2.93359,11.87573,11.87573,0,0,1-1.54882-3.87793,12.8221,12.8221,0,0,1,.01757-4.98047,16.90293,16.90293,0,0,1,2.31055-5.959,18.68581,18.68581,0,0,1,4.25586-4.75A20.17654,20.17654,0,0,1,414.17,50.55373a21.16654,21.16654,0,0,1,7.03125-1.15527,18.35835,18.35835,0,0,1,3.49707.32031,19.66674,19.66674,0,0,1,2.86035.75977,12.55379,12.55379,0,0,1,2.39355,1.10937,6.77067,6.77067,0,0,1,1.85352,1.52539,4.95657,4.95657,0,0,1,.97363,1.98438,5.24845,5.24845,0,0,1,.02735,2.14746c-.04883.2666-.11524.54785-.19825.86621a11.30141,11.30141,0,0,1-.36621,1.09375c-.125.31347-.2539.62109-.39941.9414a8.47885,8.47885,0,0,1-.70508,1.24512,5.83248,5.83248,0,0,1-1.15137,1.24121,4.24923,4.24923,0,0,1-2.666.9502,4.87516,4.87516,0,0,1-3.01856-1.13965,6.61962,6.61962,0,0,0-.92089-.5625,10.68356,10.68356,0,0,0-1.582-.64649,6,6,0,0,0-1.87011-.2373,6.25733,6.25733,0,0,0-2.22657.36133,5.36988,5.36988,0,0,0-1.65722.96387,5.13066,5.13066,0,0,0-1.12793,1.36621,4.86837,4.86837,0,0,0-.57129,1.54785,1.336,1.336,0,0,0-.02637.54492,2.40129,2.40129,0,0,0,.51758.77637,9.05681,9.05681,0,0,0,1.418,1.168l2.31055,1.56152c.86914.59277,1.71777,1.22363,2.53613,1.88184a12.599,12.599,0,0,1,2.64062,2.9375,11.65256,11.65256,0,0,1,1.585,3.9082,12.784,12.784,0,0,1-.01171,4.95117,17.489,17.489,0,0,1-2.52539,6.36523,19.69611,19.69611,0,0,1-4.72071,5.05274,22.64765,22.64765,0,0,1-6.376,3.32812A23.81975,23.81975,0,0,1,403.99423,98.93654Z" fill="#fff"/><path d="M421.20168,52.89825a14.8347,14.8347,0,0,1,2.82911.25629,16.24515,16.24515,0,0,1,2.35687.62146,9.33824,9.33824,0,0,1,1.7395.79871,3.84268,3.84268,0,0,1,.94049.7185,1.502,1.502,0,0,1,.302.59162,1.87375,1.87375,0,0,1-.00952.74975c-.03058.1695-.07837.36634-.13763.59027-.06311.22406-.14337.45832-.239.703-.09748.24475-.20453.501-.325.76635a4.97582,4.97582,0,0,1-.39569.70173,2.37677,2.37677,0,0,1-.45306.49578.77389.77389,0,0,1-.48932.19165,1.61006,1.61006,0,0,1-.88507-.41418,10.10859,10.10859,0,0,0-1.4126-.87915,14.02721,14.02721,0,0,0-2.12182-.87775,9.46913,9.46913,0,0,0-2.97242-.41559,9.69361,9.69361,0,0,0-3.47137.59028,8.91235,8.91235,0,0,0-2.71246,1.59765,8.61168,8.61168,0,0,0-1.87519,2.28235,8.41106,8.41106,0,0,0-.96917,2.65143,4.41917,4.41917,0,0,0,.16821,2.45978,5.87908,5.87908,0,0,0,1.25586,1.916,12.46574,12.46574,0,0,0,1.967,1.6286q1.13544.7651,2.313,1.56391,1.1727.80007,2.30145,1.70886a9.03083,9.03083,0,0,1,1.89624,2.109,8.15778,8.15778,0,0,1,1.103,2.74579,9.29329,9.29329,0,0,1-.03436,3.59265,13.92825,13.92825,0,0,1-2.02435,5.09424,16.11809,16.11809,0,0,1-3.88422,4.15185,19.0723,19.0723,0,0,1-5.3963,2.80939,20.251,20.251,0,0,1-6.57184,1.03821,16.97422,16.97422,0,0,1-6.331-1.1651,12.37143,12.37143,0,0,1-2.0473-1.02143,4.91355,4.91355,0,0,1-1.14691-.94256,1.45223,1.45223,0,0,1-.18921-1.2143,4.89151,4.89151,0,0,1,.14337-.54126c.07263-.23559.1701-.49054.28094-.76764.11475-.27575.22943-.54766.35364-.81433a4.655,4.655,0,0,1,.41675-.73394,2.92622,2.92622,0,0,1,.47217-.54377.80674.80674,0,0,1,.52752-.20715,2.01135,2.01135,0,0,1,1.16419.51007,16.2094,16.2094,0,0,0,1.67065,1.103A14.49673,14.49673,0,0,0,401.76711,90.2a10.64772,10.64772,0,0,0,3.52295.51141,12.52893,12.52893,0,0,0,4.04291-.624,10.79008,10.79008,0,0,0,3.2171-1.69208,9.50314,9.50314,0,0,0,2.26136-2.50628,8.79912,8.79912,0,0,0,1.18322-3.067,4.68728,4.68728,0,0,0-.14141-2.50647,5.69244,5.69244,0,0,0-1.2215-1.93274,10.74423,10.74423,0,0,0-1.9574-1.59765q-1.1412-.73206-2.3034-1.53278c-.77039-.53088-1.5235-1.10052-2.25184-1.70758a8.95574,8.95574,0,0,1-1.85034-2.109,8.36933,8.36933,0,0,1-1.08764-2.74591,9.3554,9.3554,0,0,1,.0401-3.62488,13.346,13.346,0,0,1,1.83319-4.72534,15.14948,15.14948,0,0,1,3.46753-3.86572,16.58241,16.58241,0,0,1,4.81323-2.619,17.54906,17.54906,0,0,1,5.86651-.95667m0-7a24.61484,24.61484,0,0,0-8.18933,1.35328,23.65165,23.65165,0,0,0-6.83368,3.73275,22.22636,22.22636,0,0,0-5.06665,5.65564,20.3613,20.3613,0,0,0-2.77783,7.17258,16.30677,16.30677,0,0,0,.00586,6.36063,15.35471,15.35471,0,0,0,2.0138,5.00613,15.963,15.963,0,0,0,3.28167,3.74121c.88123.73447,1.81037,1.43912,2.76337,2.09586.74823.51544,1.49914,1.017,2.23675,1.49386a2.741,2.741,0,0,1-.38745.36292,3.849,3.849,0,0,1-1.14746.57968,5.65316,5.65316,0,0,1-1.81067.25857,4.29855,4.29855,0,0,1-1.19488-.11291,7.58774,7.58774,0,0,1-1.25946-.54672,9.17847,9.17847,0,0,1-.91211-.59137,8.803,8.803,0,0,0-5.44959-1.97513,7.83423,7.83423,0,0,0-5.04644,1.86118q-.04167.03523-.08283.0711a9.92126,9.92126,0,0,0-1.629,1.83881,11.69658,11.69658,0,0,0-1.01886,1.791c-.15918.34354-.3081.693-.45581,1.04795q-.0185.04453-.03643.08938c-.14795.36981-.31965.81409-.471,1.30521a11.26038,11.26038,0,0,0-.34223,1.35736,8.34147,8.34147,0,0,0,1.61469,6.83752A11.417,11.417,0,0,0,391.805,99.122a19.12112,19.12112,0,0,0,3.23852,1.641,23.97112,23.97112,0,0,0,8.9505,1.67371,27.313,27.313,0,0,0,8.83-1.41245,26.12271,26.12271,0,0,0,7.35944-3.85116,23.15913,23.15913,0,0,0,5.54589-5.94227,20.96711,20.96711,0,0,0,3.02881-7.63742,16.25026,16.25026,0,0,0-.00891-6.312,15.162,15.162,0,0,0-2.07068-5.08047,16.04469,16.04469,0,0,0-3.352-3.73288q-1.36761-1.10307-2.777-2.06372c-.74658-.50574-1.46673-.99344-2.17273-1.46952a2.13383,2.13383,0,0,1,.56989-.30542,2.96257,2.96257,0,0,1,.98193-.13266,3.35863,3.35863,0,0,1,.78009.06318,7.13934,7.13934,0,0,1,1.052.42358,4.36225,4.36225,0,0,1,.42535.24789,8.33625,8.33625,0,0,0,5.13446,1.852,7.71814,7.71814,0,0,0,4.85822-1.72238,9.372,9.372,0,0,0,1.80432-1.9303l.03869-.05529a11.85121,11.85121,0,0,0,.96442-1.68756q.02362-.05.04651-.10035c.16809-.37039.318-.72793.454-1.06958a14.70989,14.70989,0,0,0,.47357-1.39523q.015-.05319.02918-.10669c.11743-.44375.19751-.795.25952-1.13907a8.80385,8.80385,0,0,0-.06726-3.60318,8.43868,8.43868,0,0,0-1.642-3.346A10.07527,10.07527,0,0,0,431.768,48.596a16.09337,16.09337,0,0,0-3.041-1.41757,23.3253,23.3253,0,0,0-3.37555-.89823,21.8653,21.8653,0,0,0-4.14978-.382Z" fill="#fff"/><path d="M289.31161,3.5H372.919a11.69629,11.69629,0,0,1,11.69629,11.69629v83.6084A11.69531,11.69531,0,0,1,372.92,110.5H289.31063a11.69531,11.69531,0,0,1-11.69531-11.69531V15.19631A11.69629,11.69629,0,0,1,289.31161,3.5Z" fill="#fff"/><path d="M372.91964,7a8.1956,8.1956,0,0,1,8.1958,8.19664V98.8042A8.1954,8.1954,0,0,1,372.91964,107h-83.6084a8.19544,8.19544,0,0,1-8.1958-8.1958V15.19664A8.19564,8.19564,0,0,1,289.31124,7h83.6084m0-7h-83.6084a15.2134,15.2134,0,0,0-15.1958,15.19664V98.8042A15.213,15.213,0,0,0,289.31124,114h83.6084a15.213,15.213,0,0,0,15.1958-15.1958V15.19664A15.2134,15.2134,0,0,0,372.91964,0Z" fill="#fff"/><path d="M444.19057,40.76687V37.57746h5.8424c4.84825,0,5.92694-.04373,6.33509-.25656l.77257-.25946a6.2018,6.2018,0,0,0,1.40813-.59182c1.41686-.73759,4.43427-3.685,4.43427-4.32933l.35276-1.309a4.10382,4.10382,0,0,0,.3032-1.77254l-.05248-.87753-8.96476-.04373c-8.18343-.04081-8.98516-.07-9.18049-.33526a9.22932,9.22932,0,0,1-.21574-3.00575c0-2.23609.04665-2.76085.27113-2.98242.23906-.242,1.53057-.27113,11.61774-.27113,9.65279,0,11.37577.035,11.55069.24781.1516.18075.1895,1.53348.14869,5.13688-.04665,4.30891-.09038,4.94446-.35568,5.3497l-.30611.76674-.43148,1.172-.42564,1.1778a7.65654,7.65654,0,0,0,1.4227,1.8396c2.59468,2.78418,3.74916,4.13108,3.74916,4.38472l.21574.39066.63263.60931.21866.90668-.19825.43147h-5.8249L466.27448,42.656a12.02074,12.02074,0,0,1-1.4227-1.71132.69551.69551,0,0,0-1.19821-.2449l-.55392.32653-.4548.25072-2.82791,1.47226-.88044.344-1.24778.449-.6647.26238c-.05248.08455-2.94744.1516-6.46337.1516h-6.37008Z" fill="#2930b4"/><path d="M472.251,35.388c-.62681-.09912-.66762-.32652-.60932-3.41389l.04956-2.58593L481.93,29.34154c7.41961-.03207,10.30582.01166,10.47492.1516.18075.14868.23614.8163.23614,2.825,0,2.23609-.04373,2.66465-.28571,2.86581-.23323.19533-2.03492.242-9.95889.25655C477.07884,35.45215,472.51337,35.42883,472.251,35.388Z" fill="#2930b4"/><path d="M614.93251,35.388l-.57433-.53934.0758-5.33221c.11079-.16909,2.37894-.21573,10.38163-.21573,9.95015,0,10.24752.00874,10.42244.33526l-.06706,5.45174c-.23614.32361-.55683.33527-10.04344.35568C619.74,35.45507,615.15116,35.43174,614.93251,35.388Z" fill="#2930b4"/><path d="M495.937,43.68515a31.94189,31.94189,0,0,1,.102-6.41964c.15452-.1516,1.93872-.207,6.96773-.207,5.51,0,6.854-.04373,7.25052-.24489a16.79415,16.79415,0,0,1,1.78129-.64721,5.84366,5.84366,0,0,0,3.40807-2.30606l.56266-.85129-.04373-2.67339-.04664-2.67339-10.82476-.04373-10.82476-.04373-.16618-.44022a14.2655,14.2655,0,0,1-.16909-2.67048c0-2.00286.035-2.26816.34693-2.57719.33818-.33818.57432-.344,13.34947-.344,11.5915,0,13.03461.02915,13.27658.27113.23323.23615.26822,1.032.26822,6.131,0,5.52462-.02041,5.92694-.37025,7.01438a22.61536,22.61536,0,0,1-1.32358,3.27395,15.70178,15.70178,0,0,1-3.54217,3.481l-.27988.16035c0,.35567-1.77837,1.1953-3.36142,1.586l-.8542.33527c-.09621.0962-3.24481.16034-7.784.16034C496.87,43.95628,496.03033,43.92713,495.937,43.68515Z" fill="#2930b4"/><path d="M524.81376,43.71722a8.17109,8.17109,0,0,1-.1516-2.70838l.04956-2.46931.43147-.11953a32.71162,32.71162,0,0,1,3.43139-.137l3.00283-.01749.57433-.64429c.53059-.59474.57724-.74051.57724-1.77838,0-1.77546-.20991-1.69383,4.50716-1.75213,3.79872-.04374,4.10484-.07289,4.46051-.39358l.59474-1.48684c-.09912-.309-.46938-.3236-9.21548-.3236-5.01152,0-9.23589-.04665-9.38457-.105v-4.962c.14868-.05831,5.37011-.105,11.60316-.105,8.58285,0,11.3816.04957,11.539.207.28862.28862.27113,7.00562-.02332,8.06973a5.24479,5.24479,0,0,1-2.96785,3.64713l-1.02621.551-3.23314.07289-3.23314.07V40.21a3.69035,3.69035,0,0,1-2.16612,3.40515c-.60931.31195-1.02621.3411-4.91823.3411C525.84871,43.95628,524.9741,43.90964,524.81376,43.71722Z" fill="#2930b4"/><polygon points="576.748 29.382 550.242 27.062 549.414 26.155 549.414 22.266 550.242 21.502 576.748 23.82 577.579 24.729 577.579 28.619 576.748 29.382" fill="#2930b4"/><polygon points="576.748 36.691 550.242 34.371 549.414 33.464 549.414 29.572 550.242 28.811 576.748 31.129 577.579 32.038 577.579 35.927 576.748 36.691" fill="#2930b4"/><polygon points="576.748 44 550.242 41.679 549.414 40.773 549.414 36.881 550.242 36.117 576.748 38.437 577.579 39.347 577.579 43.236 576.748 44" fill="#2930b4"/><path d="M605.44109,22.52806H585.42186a6.90376,6.90376,0,0,1-1.3869,3.38524,6.11461,6.11461,0,0,1-2.306,1.93238v6.37046a8.6381,8.6381,0,0,0,6.488-3.2206,8.27478,8.27478,0,0,0,1.622-5.21871H605.2542c-.00421.53612-.00617,1.1485-.00617,1.84437,0,.682-.00085,1.22976-.00333,1.67952-.00682,1.238-15.40348.96142-15.40348.96142l-.0235,4.04325s14.139-.17329,14.47578.40247c.17706.30274-.27372,1.14808-.62218,1.52512a4.52752,4.52752,0,0,1-3.04027,1.62984c-1.33893.38172-2.90978.32076-9.0443.35866-6.6702.04373-7.7606.08454-7.89385.309l.04351,5.924c.11149.05247,4.07337.0758,8.80478.05247,9.61238-.04081,8.696.06706,11.55118-1.36439a8.28516,8.28516,0,0,0,2.74911-2.16612,11.59906,11.59906,0,0,0,2.38474-3.87452c.3535-1.08744.28824-.95916.33446-7.40795.04351-5.74619.0136-7.10184-.16043-7.22137Z" fill="#2930b4"/><path d="M656.47174,29.90514h11.02087a.59493.59493,0,0,0,.59319-.59319V25.12839a.59493.59493,0,0,0-.59319-.59319H656.47173l0-2.99338a.63006.63006,0,0,0-.62821-.6282h-6.299a.63006.63006,0,0,0-.62821.6282V24.5352H638.20773a.59494.59494,0,0,0-.59319.59319V29.312a.59494.59494,0,0,0,.59319.59319h10.70865V44.575a.63006.63006,0,0,0,.62821.62821h6.299a.63006.63006,0,0,0,.62821-.62821Z" fill="#2930b4"/><path d="M640.87538,31.67251s4.94058.093,4.93663,0l-.094,6.91121c0,3.43205-3.79255,6.53509-9.12086,6.53509a20.11276,20.11276,0,0,1-.61117-6.347s2.63379.26189,3.79248-.7679C641.28348,36.66626,640.87538,31.67251,640.87538,31.67251Z" fill="#2930b4"/><path d="M664.80831,31.67251s-4.94058.093-4.93663,0l.094,6.91121c0,3.43205,3.79256,6.53509,9.12086,6.53509a20.11244,20.11244,0,0,0,.61117-6.347s-2.63378.26189-3.79248-.7679C664.40021,36.66626,664.80831,31.67251,664.80831,31.67251Z" fill="#2930b4"/><rect x="657.9079" y="19.977" width="4.87041" height="3.4967" rx="1.00141" fill="#2930b4"/><rect x="663.78471" y="19.977" width="4.87041" height="3.4967" rx="1.00141" fill="#2930b4"/><path d="M443.34483,39.35349V36.16408h5.8424c4.84825,0,5.92694-.04373,6.33509-.25656l.77257-.25946a6.2018,6.2018,0,0,0,1.40813-.59182c1.41686-.73759,4.43427-3.685,4.43427-4.32933l.35276-1.309a4.10382,4.10382,0,0,0,.3032-1.77254l-.05248-.87753-8.96476-.04373c-8.18343-.04081-8.98516-.07-9.18049-.33526a9.22932,9.22932,0,0,1-.21574-3.00575c0-2.23609.04665-2.76085.27113-2.98242.23906-.242,1.53057-.27113,11.61774-.27113,9.65279,0,11.37577.035,11.55069.24781.1516.18075.1895,1.53348.14869,5.13688-.04665,4.30891-.09038,4.94446-.35568,5.3497l-.30611.76674-.43148,1.172-.42564,1.17781a7.65678,7.65678,0,0,0,1.4227,1.83959c2.59468,2.78418,3.74916,4.13108,3.74916,4.38472l.21574.39066.63263.60931.21866.90668-.19825.43147h-5.8249l-1.23612-1.30025a12.02074,12.02074,0,0,1-1.4227-1.71132.69551.69551,0,0,0-1.19822-.24489l-.55392.32652-.45479.25072-2.82791,1.47226-.88044.344-1.24778.449-.6647.26238c-.05248.08455-2.94744.1516-6.46337.1516h-6.37008Z" fill="#cb4414"/><path d="M471.40525,33.97463c-.62681-.09912-.66762-.32652-.60932-3.41389l.04956-2.58593,10.23878-.04665c7.41961-.03207,10.30582.01166,10.47491.1516.18076.14868.23615.8163.23615,2.825,0,2.23609-.04373,2.66465-.28571,2.86581-.23323.19533-2.03492.242-9.95889.25655C476.23309,34.03877,471.66763,34.01545,471.40525,33.97463Z" fill="#cb4414"/><path d="M614.08677,33.97463l-.57433-.53934.0758-5.33221c.11078-.16909,2.37894-.21573,10.38163-.21573,9.95015,0,10.24752.00874,10.42244.33526l-.06706,5.45174c-.23614.32361-.55683.33527-10.04344.35568C618.89421,34.04169,614.30542,34.01836,614.08677,33.97463Z" fill="#cb4414"/><path d="M495.0913,42.27177a31.94189,31.94189,0,0,1,.102-6.41964c.15452-.1516,1.93872-.207,6.96773-.207,5.51,0,6.854-.04373,7.25052-.24489a16.79415,16.79415,0,0,1,1.78129-.64721,5.84366,5.84366,0,0,0,3.40807-2.30606l.56266-.85129-.04373-2.67339-.04664-2.67339-10.82476-.04373-10.82477-.04373-.16617-.44022a14.2655,14.2655,0,0,1-.16909-2.67048c0-2.00286.035-2.26816.34693-2.57719.33818-.33818.57432-.344,13.34947-.344,11.5915,0,13.03461.02916,13.27658.27113.23323.23615.26822,1.032.26822,6.131,0,5.52462-.02041,5.92694-.37026,7.01438A22.61421,22.61421,0,0,1,518.63581,36.82a15.70178,15.70178,0,0,1-3.54217,3.481l-.27988.16035c0,.35567-1.77837,1.1953-3.36142,1.586l-.8542.33527c-.09621.0962-3.24481.16034-7.784.16034C496.02421,42.5429,495.18459,42.51375,495.0913,42.27177Z" fill="#cb4414"/><path d="M523.968,42.30384a8.17109,8.17109,0,0,1-.1516-2.70838l.04956-2.46931.43147-.11953a32.71162,32.71162,0,0,1,3.43139-.137l3.00283-.01749.57433-.64429c.53059-.59474.57724-.74051.57724-1.77838,0-1.77546-.20991-1.69383,4.50716-1.75213,3.79872-.04373,4.10484-.07289,4.46051-.39358l.59474-1.48684c-.09913-.309-.46938-.3236-9.21548-.3236-5.01152,0-9.23589-.04665-9.38457-.105v-4.962c.14868-.05831,5.37011-.105,11.60316-.105,8.58285,0,11.3816.04957,11.539.207.28862.28862.27113,7.00563-.02332,8.06973a5.24479,5.24479,0,0,1-2.96785,3.64713l-1.02621.551-3.23314.07289-3.23314.07v.87752A3.69035,3.69035,0,0,1,533.338,42.2018c-.60931.312-1.02621.3411-4.91823.3411C525.003,42.5429,524.12836,42.49626,523.968,42.30384Z" fill="#cb4414"/><polygon points="575.902 27.969 549.396 25.648 548.568 24.742 548.568 20.853 549.396 20.089 575.902 22.406 576.733 23.316 576.733 27.205 575.902 27.969" fill="#cb4414"/><polygon points="575.902 35.278 549.396 32.957 548.568 32.05 548.568 28.158 549.396 27.398 575.902 29.715 576.733 30.625 576.733 34.514 575.902 35.278" fill="#cb4414"/><polygon points="575.902 42.587 549.396 40.266 548.568 39.359 548.568 35.467 549.396 34.703 575.902 37.024 576.733 37.934 576.733 41.823 575.902 42.587" fill="#cb4414"/><path d="M604.59535,21.11468H584.57612a6.90367,6.90367,0,0,1-1.38691,3.38524,6.11453,6.11453,0,0,1-2.306,1.93238v6.37046a8.6381,8.6381,0,0,0,6.488-3.2206,8.27478,8.27478,0,0,0,1.622-5.21871h15.41517c-.00421.53612-.00617,1.1485-.00617,1.84437,0,.682-.00085,1.22976-.00333,1.67952-.00683,1.238-15.40348.96142-15.40348.96142L588.972,32.892s14.139-.17329,14.47578.40247c.17706.30274-.27372,1.14808-.62218,1.52512a4.52752,4.52752,0,0,1-3.04027,1.62984c-1.33893.38172-2.90978.32076-9.0443.35866-6.6702.04373-7.7606.08454-7.89385.309l.04351,5.924c.11149.05247,4.07337.0758,8.80478.05247,9.61238-.04081,8.696.06706,11.55117-1.36439a8.28518,8.28518,0,0,0,2.74912-2.16612,11.59906,11.59906,0,0,0,2.38474-3.87452c.3535-1.08743.28824-.95916.33446-7.40795.04351-5.74619.0136-7.10184-.16043-7.22137Z" fill="#cb4414"/><path d="M655.626,28.49176h11.02087a.59493.59493,0,0,0,.59319-.59319V23.715a.59493.59493,0,0,0-.59319-.59319H655.626l0-2.99338a.63006.63006,0,0,0-.62821-.6282h-6.299a.63006.63006,0,0,0-.62821.6282v2.99338H637.362a.59494.59494,0,0,0-.59319.59319v4.18356a.59494.59494,0,0,0,.59319.59319h10.70865V43.16162a.63006.63006,0,0,0,.62821.62821h6.299a.63006.63006,0,0,0,.62821-.62821Z" fill="#cb4414"/><path d="M640.02964,30.25913s4.94058.093,4.93663,0l-.094,6.91121c0,3.432-3.79255,6.53509-9.12086,6.53509a20.11276,20.11276,0,0,1-.61117-6.347s2.63379.26189,3.79248-.7679C640.43774,35.25288,640.02964,30.25913,640.02964,30.25913Z" fill="#cb4414"/><path d="M663.96257,30.25913s-4.94058.093-4.93663,0l.094,6.91121c0,3.432,3.79256,6.53509,9.12086,6.53509a20.11244,20.11244,0,0,0,.61117-6.347s-2.63378.26189-3.79248-.7679C663.55447,35.25288,663.96257,30.25913,663.96257,30.25913Z" fill="#cb4414"/><rect x="657.06216" y="18.56362" width="4.87041" height="3.4967" rx="1.00141" fill="#cb4414"/><rect x="662.93897" y="18.56362" width="4.87041" height="3.4967" rx="1.00141" fill="#cb4414"/><path d="M452.963,77.81419q-4.21566,17.62254-16.54412,17.62254-11.812,0-7.75788-16.95121l6.121-25.58726h5.13139l-5.77892,24.15732q-2.94518,12.31161,4.12421,12.31228,6.80907,0,9.65153-11.87457l5.88362-24.595h5.12957Z" fill="#1e2881"/><path d="M481.45987,58.79258H469.90741l-3.008,12.5741h10.64713l-1.40265,5.86344H465.49677l-4.18772,17.50573h-5.13139l10.0084-41.83759h16.68385Z" fill="#1e2881"/><path d="M501.98312,94.73585h-5.62686l-.23235-10.64871H483.96668L478.747,94.73585h-5.605l21.58272-41.83759h5.77805Zm-5.86395-16.30941-.29589-16.688a25.19873,25.19873,0,0,1,.21808-2.62492h-.08743a27.376,27.376,0,0,1-1.05783,2.62492l-8.23822,16.688Z" fill="#1e2881"/><path d="M539.42206,94.73585h-5.08585l6.47687-27.07493q.79544-3.32513,2.24764-8.13927h-.08562q-1.13163,2.74308-1.78363,3.938L524.4851,94.73585h-3.53569l-1.82034-31.04252a35.7744,35.7744,0,0,1,.17824-4.17168h-.08561q-.42818,2.50945-1.78816,8.19834L510.9708,94.73585h-4.7434l10.0084-41.83759h7.22074L524.919,80.76135a47.1373,47.1373,0,0,1,.06147,4.78393h.10748q1.58653-3.29693,2.46568-4.90075l14.91473-27.74627h6.96208Z" fill="#1e2881"/><path d="M552.29335,94.73585h-5.28259l10.0084-41.83759h5.28256Z" fill="#1e2881"/><path d="M603.76258,58.79258h-8.88935l-8.609,35.94327h-5.1359l8.609-35.94327h-8.87111l1.41179-5.89432h22.89636Z" fill="#1e2881"/><path d="M627.54163,77.81419q-4.22088,17.62254-16.56456,17.62254-11.82936,0-7.76563-16.95121L609.34,52.89826h5.1359l-5.78605,24.15732q-2.94884,12.31161,4.12747,12.31228,6.82295,0,9.66527-11.87457l5.8909-24.595h5.1359Z" fill="#1e2881"/><path d="M654.67612,94.73585h-6.0004l-2.25923-11.20323a20.05348,20.05348,0,0,0-.6733-2.641,7.203,7.203,0,0,0-.86527-1.7938,2.92873,2.92873,0,0,0-1.18912-1.02043,3.978,3.978,0,0,0-1.674-.3209h-2.07187l-4.06683,16.9794h-5.114l10.02076-41.83759h10.18791a9.847,9.847,0,0,1,3.84456.70087,6.22209,6.22209,0,0,1,2.68884,2.11471,7.51091,7.51091,0,0,1,1.28113,3.52988,14.12729,14.12729,0,0,1-.41841,4.94505,18.97081,18.97081,0,0,1-1.4602,4.071,16.09068,16.09068,0,0,1-2.172,3.29625,13.91963,13.91963,0,0,1-2.74986,2.46514,12.63653,12.63653,0,0,1-3.21542,1.5763l-.028.11681a6.04095,6.04095,0,0,1,1.13137,1.41383q.43851.77339.80441,1.59106a14.4113,14.4113,0,0,1,.66906,1.85155c.19915.69147.41569,1.493.6417,2.4074Zm-10.128-36.20643-3.25642,13.59587h4.27506a5.62965,5.62965,0,0,0,2.30758-.49678,7.04645,7.04645,0,0,0,2.08211-1.42861,9.52029,9.52029,0,0,0,1.68681-2.27582,12.17041,12.17041,0,0,0,1.13191-3.0049,6.31782,6.31782,0,0,0-.27911-4.698,3.853,3.853,0,0,0-3.62911-1.69176Z" fill="#1e2881"/><path d="M658.27636,94.73585l10.02076-41.83759h9.8195q4.49208,0,6.47683,2.6558,1.98506,2.65446.9668,6.91341a15.43582,15.43582,0,0,1-2.97346,6.18568,11.817,11.817,0,0,1-5.0162,3.734l-.028.11682a5.46282,5.46282,0,0,1,4.34134,3.19555q1.26315,2.69877.22709,7.01679a15.90979,15.90979,0,0,1-5.212,8.69379,13.14065,13.14065,0,0,1-8.69376,3.32579Zm13.79985-36.26417-2.8509,11.90277H672.552a6.71577,6.71577,0,0,0,4.60355-1.70653,9.04656,9.04656,0,0,0,2.67751-4.82824q1.286-5.36934-4.02162-5.368Zm-4.1855,17.47485L664.71822,89.192h4.38084a7.0107,7.0107,0,0,0,4.8652-1.79381,9.38,9.38,0,0,0,2.74927-4.94505q1.55809-6.50523-5.1095-6.50658Z" fill="#1e2881"/><path d="M697.56158,95.43673q-6.69164,0-9.31212-5.86478-2.61684-5.86479-.36882-15.25811,2.41773-10.09419,7.95745-16.10532,5.5376-6.00979,12.57575-6.00979a9.18163,9.18163,0,0,1,9.10033,5.83524q2.58577,5.83458.32869,15.2581-2.45293,10.24122-7.95646,16.1926Q704.37921,95.43606,697.56158,95.43673Zm9.13293-37.14094q-4.25135,0-7.94312,4.28849a26.46277,26.46277,0,0,0-5.371,11.29185q-1.67,6.97249-.10026,11.23144,1.56727,4.26164,5.75694,4.26029,4.44285,0,7.986-4.05621,3.53717-4.05418,5.286-11.34824,1.79592-7.49814.27936-11.58321A5.77371,5.77371,0,0,0,706.69451,58.29579Z" fill="#1e2881"/><path d="M429.36012,56.63458c-.03058.16951-.07837.36638-.13763.59027-.06308.224-.14336.45835-.23894.703-.09749.2447-.20453.501-.325.76633a4.97286,4.97286,0,0,1-.39569.70171,2.37643,2.37643,0,0,1-.453.49578.77415.77415,0,0,1-.48936.19167,1.60978,1.60978,0,0,1-.885-.41421,10.106,10.106,0,0,0-1.41262-.87912,14.02152,14.02152,0,0,0-2.12181-.87777,9.46942,9.46942,0,0,0-2.97244-.41555,9.69324,9.69324,0,0,0-3.47135.59027,8.912,8.912,0,0,0-2.71247,1.59761,8.6122,8.6122,0,0,0-1.87521,2.28237,8.41129,8.41129,0,0,0-.96915,2.65144,4.41915,4.41915,0,0,0,.16821,2.45977,5.87859,5.87859,0,0,0,1.25588,1.916,12.46906,12.46906,0,0,0,1.967,1.62866q1.13546.76506,2.313,1.56387,1.17273.80007,2.30149,1.70888a9.03174,9.03174,0,0,1,1.89625,2.109,8.15785,8.15785,0,0,1,1.10295,2.74576,9.29339,9.29339,0,0,1-.03441,3.59265,13.92777,13.92777,0,0,1-2.02431,5.09426,16.11843,16.11843,0,0,1-3.88424,4.15187,19.07337,19.07337,0,0,1-5.39627,2.80937,20.2518,20.2518,0,0,1-6.57186,1.03822,16.97444,16.97444,0,0,1-6.331-1.1651,12.37126,12.37126,0,0,1-2.04726-1.02144,4.91274,4.91274,0,0,1-1.14692-.94256,1.45224,1.45224,0,0,1-.18924-1.21427,4.90124,4.90124,0,0,1,.14336-.54127c.07264-.23563.17013-.49057.281-.76767.11469-.27575.22938-.54764.35363-.81433a4.65906,4.65906,0,0,1,.41672-.73393,2.9283,2.9283,0,0,1,.47215-.54378.807.807,0,0,1,.52758-.20711,2.0111,2.0111,0,0,1,1.16413.51,16.20872,16.20872,0,0,0,1.67068,1.103A14.49872,14.49872,0,0,0,401.7671,90.2a10.64912,10.64912,0,0,0,3.523.51139,12.52986,12.52986,0,0,0,4.0429-.624,10.79016,10.79016,0,0,0,3.21711-1.6921,9.503,9.503,0,0,0,2.26135-2.50626,8.798,8.798,0,0,0,1.18324-3.067,4.68669,4.68669,0,0,0-.14145-2.50643,5.69182,5.69182,0,0,0-1.22147-1.93277,10.74165,10.74165,0,0,0-1.95742-1.59761q-1.14119-.73209-2.3034-1.53283c-.77035-.53086-1.52349-1.10048-2.25179-1.70754a8.95763,8.95763,0,0,1-1.85037-2.109,8.36973,8.36973,0,0,1-1.08766-2.74593,9.35562,9.35562,0,0,1,.04014-3.62487,13.34643,13.34643,0,0,1,1.83317-4.72536,15.14815,15.14815,0,0,1,3.46752-3.86571,16.58366,16.58366,0,0,1,4.81325-2.61905,17.54939,17.54939,0,0,1,5.86651-.95665,14.83835,14.83835,0,0,1,2.82907.25628,16.24427,16.24427,0,0,1,2.35693.62149,9.33741,9.33741,0,0,1,1.73949.79872,3.84184,3.84184,0,0,1,.94048.7185,1.503,1.503,0,0,1,.302.59161A1.87369,1.87369,0,0,1,429.36012,56.63458Z" fill="#1e2881"/><path d="M289.31211,7h83.60755a8.1958,8.1958,0,0,1,8.1958,8.1958v83.6084A8.1958,8.1958,0,0,1,372.91966,107h-83.6084a8.1958,8.1958,0,0,1-8.1958-8.1958V15.19668A8.19665,8.19665,0,0,1,289.31211,7Z" fill="red"/><path d="M291.06056,23.33877V54.596h16.28419c7.98438,0,9.71493-10.714,5.68267-15.95683l.35463-.30007a10.187,10.187,0,0,0,1.77658-5.9299,10.04178,10.04178,0,0,0-1.7493-5.92818,7.54958,7.54958,0,0,0-6.06458-3.14227H291.06056Zm5.68267,5.68267h9.78143c3.54975,0,3.58385,7.23931,0,7.23931h-5.3826v4.583h5.3826c3.54975,0,3.48837,8.06963,0,8.06963h-9.78143Z" fill="#fff"/><polygon points="328 23.311 315.65 54.596 332.3 54.596 332.3 49.259 323.815 49.259 330.186 33.066 338.657 54.596 344.776 54.596 332.536 23.311 328 23.311" fill="#fff"/><polygon points="327.755 60.047 315.404 91.331 332.055 91.331 332.055 85.995 323.569 85.995 329.941 69.801 338.411 91.331 344.53 91.331 332.29 60.047 327.755 60.047" fill="#fff"/><rect x="346.63412" y="60.06045" width="5.68267" height="31.25725" fill="#fff"/><polygon points="352.317 23.339 364.995 41.309 364.995 23.339 370.678 23.339 370.678 54.596 364.995 54.596 352.317 35.633 352.317 54.596 346.634 54.596 346.634 23.339 352.317 23.339" fill="#fff"/><path d="M291.30608,60.06045V91.345h13.49655c16.57915,0,16.51436-31.28453,0-31.28453H291.30608Zm5.68267,5.68268h7.81388c8.8812,0,9.00055,19.91918,0,19.91918h-7.81388Z" fill="#fff"/></svg>