<svg xmlns="http://www.w3.org/2000/svg" xmlns:xlink="http://www.w3.org/1999/xlink" viewBox="0 0 472.502 296.992"><path fill="#c9c9c9" d="M247.052 240.299h16.544v6.47h-16.544z"/><path d="M247.753 246.98c.147 0 .266-.227.266-.506v-6.175h15.024v6.17c0 .282.12.511.269.511h61.296s19.301.981 36.573-14.305c17.272-15.286 17.272-39.798 17.272-39.798v-321.035H144.281v364.977c0 5.611 4.548 10.161 10.16 10.161h93.312z" fill="#d6d6d6"/><path d="M193.159-146.078a5.473 5.473 0 0 0-10.322 0h10.322z" fill="#bdbec0"/><path fill="#aeadab" d="M361.436-147.749H161.298l-16.001 16.148v4.968h232.14v-4.968z"/><path d="M161.298-147.905h-6.857c-5.612 0-10.16 4.548-10.16 10.16v7.366h17.017v-17.526zM368.293-147.905h-6.857v17.525h17.016v-7.366c0-5.611-4.548-10.159-10.159-10.159z" fill="#d9d9d9"/><linearGradient id="a" gradientUnits="userSpaceOnUse" x1="-71.92" y1="54.029" x2="-69.066" y2="58.971" gradientTransform="translate(404.8 159.02)"><stop offset="0" stop-color="#c9c9c9"/><stop offset="1" stop-color="#a8a8a8"/></linearGradient><path d="M363.478 195.647l-61.121 34.933 61.121-34.933z" fill="url(#a)"/><path d="M361.181 232.675c17.272-15.286 17.272-39.798 17.272-39.798v-5.679L273.926 246.98h50.681c.001 0 19.302.981 36.574-14.305z" fill="#c6c6c6"/><path fill="#39509c" d="M240.13 188.968zM234.792 191.68zM229.327 194.462v-.002zM223.988 197.174z"/><path d="M191.487 83.335c20.573 0 37.253 16.679 37.253 37.251 0 20.574-16.68 37.251-37.253 37.251s-37.251-16.677-37.251-37.251c0-20.572 16.678-37.251 37.251-37.251z" fill="#c9c9c9"/><g fill="#d9d9d9"><path d="M156.92 120.798l3.608 2.293v-4.502zM226.055 120.798l-3.608 2.293v-4.502zM191.446 155.916l2.292-3.609h-4.5zM191.446 85.256l2.292 3.609h-4.5z"/></g><path d="M218.081 109.749h-15.504V93.231a2.798 2.798 0 0 0-2.798-2.799h-15.567a2.799 2.799 0 0 0-2.799 2.799v16.518h-16.519a2.799 2.799 0 0 0-2.799 2.799v15.568a2.8 2.8 0 0 0 2.799 2.798h16.519v17.028a2.798 2.798 0 0 0 2.799 2.798h15.567a2.798 2.798 0 0 0 2.798-2.798v-17.028h15.504a2.8 2.8 0 0 0 2.799-2.798v-15.568a2.8 2.8 0 0 0-2.799-2.799z" fill="#3d3d3d"/><linearGradient id="b" gradientUnits="userSpaceOnUse" x1="-190.236" y1="-298.227" x2="-101.409" y2="-107.737" gradientTransform="translate(404.8 159.02)"><stop offset="0" stop-color="#7c7f81"/><stop offset=".015" stop-color="#7c7e81"/><stop offset=".625" stop-color="#676b7c"/><stop offset="1" stop-color="#60657a"/></linearGradient><path d="M350.684 27.367c8.5-8.5 9.313-19.401 9.313-23.536v-113.785a7.111 7.111 0 0 0-7.112-7.112H168.663a7.112 7.112 0 0 0-7.111 7.112v139.69a7.113 7.113 0 0 0 7.111 7.112h158.485c2.096 0 15.037-.981 23.536-9.481z" fill="url(#b)"/><path fill="#c2aa33" d="M196.601-99.457H324.1V18.9H196.601z"/><linearGradient id="c" gradientUnits="userSpaceOnUse" x1="-230.724" y1="-218.889" x2="-228.004" y2="-213.056" gradientTransform="translate(404.8 159.02)"><stop offset="0" stop-color="#ef4237"/><stop offset="1" stop-color="#cd3634"/></linearGradient><path d="M175.436-60.17a3.217 3.217 0 1 1 0 6.433 3.217 3.217 0 0 1 0-6.433z" fill="url(#c)"/><path d="M352.885-115.797H168.663a5.849 5.849 0 0 0-5.842 5.842V29.736a5.848 5.848 0 0 0 5.842 5.842h158.485c.137 0 13.84-.312 22.638-9.111 8.07-8.07 8.94-18.519 8.94-22.637v-113.785a5.847 5.847 0 0 0-5.841-5.842z" fill="none"/><path d="M262.026 237.498c-.016-.065-.033-.13-.044-.213l-.275.055c.087.08.192.135.319.158z" fill="#c7c7c7"/><g fill="#aaabaf"><path d="M308.863 240.377a2.033 2.033 0 0 1-1.789-1.067l-16.932-31.326a2.033 2.033 0 0 1 3.575-1.934l16.932 31.326a2.03 2.03 0 0 1-.821 2.754 2.029 2.029 0 0 1-.965.247zM320.378 233.771a2.029 2.029 0 0 1-1.789-1.065l-16.932-31.326a2.032 2.032 0 1 1 3.575-1.934l16.932 31.326a2.032 2.032 0 0 1-1.786 2.999zM331.891 227.168a2.031 2.031 0 0 1-1.788-1.067l-16.932-31.324a2.032 2.032 0 0 1 3.574-1.934l16.932 31.323a2.03 2.03 0 0 1-.821 2.754c-.307.17-.638.248-.965.248zM343.406 220.562a2.025 2.025 0 0 1-1.788-1.065l-16.932-31.323a2.033 2.033 0 0 1 3.575-1.934l16.932 31.324a2.033 2.033 0 0 1-1.787 2.998zM354.92 213.959a2.03 2.03 0 0 1-1.789-1.064l-16.932-31.324a2.034 2.034 0 0 1 .82-2.756 2.034 2.034 0 0 1 2.754.82l16.933 31.326a2.032 2.032 0 0 1-1.786 2.998zM366.434 207.356a2.027 2.027 0 0 1-1.788-1.064l-16.933-31.326a2.033 2.033 0 0 1 3.575-1.933l16.932 31.325a2.032 2.032 0 0 1-1.786 2.998z"/></g><g fill="#34308e"><path d="M226.302 54.291l-.605 4.245c-1.28.688-2.552 1.033-3.816 1.033-1.517 0-2.724-.497-3.622-1.493-.897-.996-1.345-2.229-1.345-3.701 0-1.873.703-3.495 2.111-4.868 1.407-1.373 3.404-2.06 5.993-2.06.508 0 1.19.052 2.047.154l-.195 1.421c-.93-.102-1.63-.154-2.098-.154-1.934 0-3.449.547-4.542 1.637-1.094 1.092-1.641 2.365-1.641 3.819 0 1.128.319 2.047.956 2.758.637.711 1.458 1.066 2.462 1.066.75 0 1.506-.189 2.267-.566l.279-2.048h-1.683l.178-1.243h3.254zM232.877 47.533l2.291 11.884h-1.456l-.698-3.705h-3.716l-1.559 3.705h-1.58l5.231-11.884h1.487zm-3.051 6.927h2.953l-.914-4.848-2.039 4.848zM248.669 47.601v11.816h-1.565l-.008-9-4.767 9-2.085-9.042-2.907 9.042h-1.559l3.897-11.816h1.353l1.845 8.005 4.24-8.005h1.556zM258.506 47.601l-.195 1.403h-4.73l-.514 3.706h4.17l-.186 1.403h-4.203l-.56 3.9h6.217l-.211 1.404h-7.757l1.717-11.816h6.252zM265.84 47.601h1.734c1.212 0 2.14.267 2.783.802.643.536.964 1.269.964 2.198 0 1.025-.544 1.804-1.633 2.333 1.63.563 2.445 1.621 2.445 3.174 0 .981-.395 1.779-1.184 2.391-.789.613-1.816.919-3.079.919h-3.671l1.641-11.817zm.71 6.047l-.622 4.449h1.787c.909 0 1.606-.177 2.092-.534.485-.354.728-.861.728-1.523 0-.67-.279-1.238-.837-1.7-.558-.462-1.224-.694-1.997-.694h-1.151zm.656-4.694l-.472 3.374h.848c.651 0 1.17-.163 1.558-.487.388-.324.582-.751.582-1.282 0-1.088-.675-1.632-2.025-1.632a5.126 5.126 0 0 0-.491.027zM278.968 47.447c1.246 0 2.254.455 3.024 1.366.769.911 1.154 2.108 1.154 3.592 0 2.052-.561 3.76-1.683 5.121-1.122 1.363-2.462 2.043-4.018 2.043-1.229 0-2.239-.465-3.028-1.396-.789-.929-1.184-2.125-1.184-3.587a8.16 8.16 0 0 1 1.611-4.935c1.075-1.469 2.449-2.204 4.124-2.204zm-1.489 10.701c1.094 0 2.046-.588 2.855-1.763.809-1.176 1.214-2.596 1.214-4.259 0-1.015-.234-1.811-.702-2.389s-1.1-.868-1.895-.868c-1.218 0-2.209.608-2.974 1.823-.764 1.215-1.146 2.587-1.146 4.116 0 1.031.239 1.847.719 2.444s1.123.896 1.929.896zM291.808 47.601l-4.148 5.937-.828 5.88h-1.554l.829-5.887-2.774-5.929h1.653l2.005 4.324 3.021-4.324h1.796zM294.06 55.778v.666h-1.317v2.97h-.906v-2.97h-1.317v-.666h3.54zM296.567 57.127l1.169-1.348h.787v3.636h-.906v-2.27l-.983 1.14h-.134l-.983-1.14v2.27h-.906v-3.636h.786l1.17 1.348z"/></g><g fill="#34308e"><path d="M160.706 51.413h2.375l3.284 5.47-.001-5.47h2.354v7.844h-2.352l-3.301-5.47v5.47h-2.36l.001-7.844zM181.524 52.22h2.294v1.056h1.24v.776h-1.24l.002 5.206h-2.296l.001-5.206h-1.245v-.773l1.245-.002-.001-1.057zM170.031 54.041h2.291v5.218h-2.291v-5.218zM170.025 51.41h2.297v1.605h-2.297V51.41zM210.181 53.686c-1.849 0-3.348 1.309-3.348 2.927 0 1.617 1.499 2.928 3.348 2.928 1.85 0 3.347-1.312 3.347-2.928.001-1.618-1.496-2.927-3.347-2.927m.921 2.92l-.002 1.105c0 .831-.476 1.173-.937 1.173-.46 0-.939-.342-.939-1.173l.001-1.125.001-1.086c0-.829.482-1.169.937-1.169.457 0 .937.34.937 1.169 0 .316-.001.901.002 1.109v-.003zM203.841 56.623v-.933c0-.807-.541-1.011-.897-1.011-.365 0-.898.204-.898 1.011v1.856c0 .808.533 1.016.898 1.016.356 0 .897-.208.897-1.016v-.923zm-.015-5.21h2.26v7.843h-2.265l-.001-.3c-.876.565-1.866.565-2.638.197a2.785 2.785 0 0 1-1.566-2.588c0-1.376 1.26-2.88 2.912-2.73.544.049.93.253 1.297.467l.001-2.889zM177.686 53.8c.858-.025 2.594.551 2.582 2.616-.002.369-.001 2.839-.001 2.839h-2.275V55.83c0-.455-.422-.96-1.048-.96-.624 0-1.087.504-1.087.96l.002 3.425h-2.274l-.002-5.215 2.276-.002s-.002.419 0 .549a2.723 2.723 0 0 1 1.827-.787M196.304 53.8c.856-.025 2.595.551 2.583 2.616-.002.369 0 2.839 0 2.839h-2.277V55.83c0-.455-.422-.96-1.048-.96-.624 0-1.086.504-1.086.96l.002 3.425h-2.274V54.04l2.274-.002s-.002.419 0 .549a2.719 2.719 0 0 1 1.826-.787M189.096 57.431l.001.317c0 .954-.609 1.166-.947 1.166-.337 0-.959-.213-.959-1.166l.002-1.076s4.316.002 4.316-.002c0-1.617-1.517-2.956-3.38-2.956s-3.373 1.309-3.373 2.928 1.51 2.927 3.373 2.927c1.546 0 2.853-.908 3.25-2.14l-2.283.002zm-1.903-1.573c-.005-.456.005-.761.15-1.022a.934.934 0 0 1 .806-.477.926.926 0 0 1 .804.477c.146.261.154.566.151 1.022h-1.911z"/></g><path d="M170.576-106.435h51.427" fill="none" stroke="#04004d" stroke-width="1.333" stroke-miterlimit="10"/><path d="M170.576-110.894h51.427" fill="none" stroke="#760d50" stroke-width="1.333" stroke-miterlimit="10"/><path d="M328.126-106.435h21.7" fill="none" stroke="#04004d" stroke-width="1.333" stroke-miterlimit="10"/><path d="M328.126-110.894h21.7" fill="none" stroke="#760d50" stroke-width="1.333" stroke-miterlimit="10"/><g fill="#eeeeec"><path d="M227.448-106.451v-4.16h1.39c.313 0 .553.02.717.06.232.055.429.154.592.298.213.185.372.422.478.71.105.289.158.619.158.99 0 .315-.035.596-.107.84-.072.243-.163.445-.275.606s-.234.285-.367.378a1.467 1.467 0 0 1-.482.208 2.645 2.645 0 0 1-.647.07h-1.457zm.534-.49h.862c.265 0 .474-.026.626-.077a.883.883 0 0 0 .361-.215 1.31 1.31 0 0 0 .296-.526c.07-.22.106-.488.106-.801 0-.435-.07-.77-.208-1.004-.139-.233-.307-.39-.505-.47-.143-.056-.373-.084-.69-.084h-.848v3.176zM231.357-108.477c0-.69.18-1.231.54-1.622.36-.391.823-.586 1.392-.586.372 0 .708.091 1.008.275.299.184.526.44.683.768.156.328.235.7.235 1.116 0 .422-.082.8-.247 1.132a1.727 1.727 0 0 1-.701.757c-.302.172-.63.257-.98.257-.38 0-.719-.094-1.018-.283s-.526-.448-.68-.775a2.402 2.402 0 0 1-.232-1.04zm.55.009c0 .502.132.896.393 1.184.26.289.588.433.983.433.402 0 .733-.145.992-.437.26-.291.389-.705.389-1.24 0-.338-.055-.634-.167-.887a1.31 1.31 0 0 0-.487-.587 1.29 1.29 0 0 0-.72-.208c-.378 0-.703.134-.975.401-.27.267-.407.714-.407 1.34zM236.926-106.451v-3.67h-1.33v-.49h3.197v.49h-1.334v3.67h-.533zM240.89-106.451v-4.16h.804l.955 2.945c.088.274.153.48.193.616.047-.152.118-.374.215-.668l.966-2.894h.718v4.16h-.514v-3.482l-1.172 3.482h-.481l-1.167-3.541v3.54h-.516zM245.163-106.451l1.55-4.16h.574l1.65 4.16h-.607l-.47-1.26h-1.687l-.444 1.26h-.566zm1.164-1.708h1.368l-.42-1.152a12.37 12.37 0 0 1-.287-.862 5.401 5.401 0 0 1-.218.794l-.443 1.22zM250.396-106.451v-3.67h-1.33v-.49h3.198v.49h-1.335v3.67h-.533zM252.822-106.451v-4.16h1.788c.36 0 .633.038.82.112s.337.206.448.396c.113.189.168.398.168.626 0 .296-.093.545-.278.747-.185.202-.472.331-.859.386.141.07.249.139.322.207.156.147.304.332.443.554l.702 1.132h-.672l-.534-.865a7.805 7.805 0 0 0-.385-.573 1.227 1.227 0 0 0-.27-.278.802.802 0 0 0-.244-.111c-.06-.013-.16-.02-.297-.02h-.62v1.847h-.532zm.534-2.324h1.147c.244 0 .434-.026.572-.078a.61.61 0 0 0 .314-.25.688.688 0 0 0 .107-.373.628.628 0 0 0-.208-.485c-.138-.127-.357-.19-.655-.19h-1.276v1.376zM256.976-106.451v-4.16h.534v4.16h-.534zM258.039-106.451l1.56-2.168-1.376-1.992h.635l.731 1.067c.153.222.26.392.325.511.09-.151.196-.31.32-.474l.81-1.104h.582l-1.417 1.961 1.527 2.199h-.66l-1.016-1.484a7.49 7.49 0 0 1-.176-.278c-.09.151-.154.255-.193.312l-1.012 1.45h-.64zM264.478-106.451l-1.07-4.16h.547l.614 2.727c.066.285.123.57.17.851.103-.445.164-.7.181-.769l.768-2.809h.644l.578 2.105c.145.522.25 1.013.315 1.473.05-.263.118-.565.2-.905l.634-2.673h.536l-1.106 4.16h-.514l-.85-3.17a15.757 15.757 0 0 1-.126-.488c-.043.19-.082.353-.119.488l-.855 3.17h-.547zM269.18-106.451v-4.16h.534v4.16h-.534zM271.678-106.451v-3.67h-1.328v-.49h3.197v.49h-1.334v3.67h-.535zM274.113-106.451v-4.16h.534v1.708h2.096v-1.708h.534v4.16h-.534v-1.961h-2.096v1.96h-.534zM279.55-107.788l.503-.045c.023.208.08.378.166.512.087.133.223.24.406.324.183.082.39.123.62.123.203 0 .382-.031.539-.093a.746.746 0 0 0 .347-.257.61.61 0 0 0 .114-.356.55.55 0 0 0-.11-.343c-.073-.097-.194-.178-.363-.245-.108-.044-.348-.111-.718-.204s-.63-.178-.779-.26a1.102 1.102 0 0 1-.43-.387.972.972 0 0 1-.142-.517 1.075 1.075 0 0 1 .68-1.004c.221-.095.468-.143.74-.143.3 0 .562.05.79.15.23.099.404.245.527.438.124.193.19.411.198.655l-.512.04c-.027-.263-.12-.461-.28-.597-.158-.134-.392-.2-.702-.2-.323 0-.559.06-.706.182a.554.554 0 0 0-.222.441c0 .15.052.272.157.369.102.096.37.195.804.296.434.102.732.19.893.265.235.112.408.253.52.425.112.171.168.368.168.592 0 .221-.062.43-.185.625-.123.196-.299.349-.53.457a1.8 1.8 0 0 1-.776.164c-.366 0-.67-.055-.918-.165a1.297 1.297 0 0 1-.58-.495 1.444 1.444 0 0 1-.22-.747zM284.521-106.451v-3.67h-1.328v-.49h3.197v.49h-1.334v3.67h-.535zM286.95-106.451v-4.16h2.917v.49h-2.383v1.275h2.231v.489h-2.231v1.415h2.476v.49h-3.01zM290.71-106.451v-4.16h1.789c.36 0 .633.038.82.112a.9.9 0 0 1 .448.396c.112.189.167.398.167.626 0 .296-.092.545-.277.747-.185.202-.472.331-.859.386.14.07.248.139.322.207.156.147.303.332.443.554l.701 1.132h-.671l-.534-.865c-.156-.25-.285-.441-.385-.573s-.191-.226-.27-.278-.161-.09-.244-.111c-.06-.013-.16-.02-.297-.02h-.62v1.847h-.532zm.534-2.324h1.147c.245 0 .435-.026.572-.078a.61.61 0 0 0 .315-.25.688.688 0 0 0 .107-.373.628.628 0 0 0-.208-.485c-.139-.127-.357-.19-.656-.19h-1.276v1.376zM294.785-106.451v-4.16h2.917v.49h-2.383v1.275h2.231v.489h-2.231v1.415h2.476v.49h-3.01zM298.375-108.477c0-.69.18-1.231.54-1.622.36-.391.823-.586 1.392-.586.372 0 .708.091 1.007.275.3.184.527.44.684.768.156.328.235.7.235 1.116 0 .422-.083.8-.247 1.132-.166.334-.399.585-.701.757s-.63.257-.98.257c-.38 0-.719-.094-1.018-.283s-.526-.448-.68-.775a2.402 2.402 0 0 1-.232-1.04zm.55.009c0 .502.132.896.392 1.184.261.289.59.433.984.433.402 0 .733-.145.992-.437.26-.291.389-.705.389-1.24 0-.338-.055-.634-.167-.887a1.31 1.31 0 0 0-.487-.587 1.29 1.29 0 0 0-.72-.208c-.378 0-.703.134-.975.401s-.407.714-.407 1.34zM304.299-107.788l.503-.045c.024.208.08.378.166.512.087.133.223.24.406.324.183.082.39.123.62.123.203 0 .383-.031.54-.093a.746.746 0 0 0 .347-.257.61.61 0 0 0 .114-.356.55.55 0 0 0-.11-.343c-.073-.097-.194-.178-.364-.245a7.065 7.065 0 0 0-.718-.204c-.37-.091-.63-.178-.778-.26a1.102 1.102 0 0 1-.43-.387.972.972 0 0 1-.143-.517 1.075 1.075 0 0 1 .68-1.004c.221-.095.469-.143.74-.143.3 0 .563.05.791.15.228.099.404.245.527.438s.189.411.198.655l-.512.04c-.028-.263-.12-.461-.28-.597-.158-.134-.393-.2-.703-.2-.323 0-.558.06-.706.182a.554.554 0 0 0-.222.441c0 .15.053.272.157.369.102.096.371.195.805.296.433.102.731.19.893.265.234.112.407.253.52.425.112.171.167.368.167.592 0 .221-.061.43-.184.625-.123.196-.3.349-.53.457a1.8 1.8 0 0 1-.777.164c-.365 0-.67-.055-.918-.165a1.297 1.297 0 0 1-.58-.495 1.444 1.444 0 0 1-.22-.747zM308.082-108.477c0-.69.18-1.231.54-1.622.359-.391.823-.586 1.392-.586.372 0 .708.091 1.007.275.3.184.527.44.683.768.157.328.236.7.236 1.116 0 .422-.083.8-.247 1.132-.166.334-.4.585-.701.757s-.63.257-.98.257c-.38 0-.719-.094-1.018-.283s-.526-.448-.68-.775a2.388 2.388 0 0 1-.232-1.04zm.55.009c0 .502.13.896.391 1.184.261.289.59.433.984.433.402 0 .733-.145.991-.437.26-.291.39-.705.39-1.24 0-.338-.056-.634-.167-.887a1.31 1.31 0 0 0-.487-.587 1.29 1.29 0 0 0-.72-.208c-.378 0-.703.134-.975.401-.27.267-.408.714-.408 1.34zM315.27-110.61h.534v2.403c0 .418-.047.75-.138.996a1.207 1.207 0 0 1-.496.6c-.24.155-.554.232-.943.232-.378 0-.687-.067-.927-.201s-.412-.33-.514-.583-.154-.602-.154-1.043v-2.404h.534v2.4c0 .362.032.629.097.8a.756.756 0 0 0 .336.396c.159.093.352.14.582.14.393 0 .672-.092.839-.276.166-.184.25-.536.25-1.058v-2.403zM316.69-106.451v-4.16h.547l2.118 3.266v-3.266h.512v4.16h-.547l-2.118-3.27v3.27h-.512zM320.767-106.451v-4.16h1.39c.314 0 .553.02.717.06.232.055.429.154.592.298.213.185.372.422.478.71.105.289.158.619.158.99 0 .315-.035.596-.107.84a2.106 2.106 0 0 1-.275.606c-.112.16-.234.285-.367.378s-.293.161-.481.208-.404.07-.648.07h-1.457zm.534-.49h.862c.265 0 .474-.026.626-.077a.883.883 0 0 0 .361-.215 1.31 1.31 0 0 0 .296-.526c.07-.22.106-.488.106-.801 0-.435-.069-.77-.208-1.004-.139-.233-.307-.39-.505-.47-.143-.056-.373-.084-.69-.084h-.848v3.176z"/></g><g fill="#eeeeec"><path d="M167.623-43.293v-3.719h1.321c.269 0 .485.038.648.113a.85.85 0 0 1 .382.348c.092.156.138.32.138.49a.878.878 0 0 1-.492.79.921.921 0 0 1 .491.337c.115.16.173.346.173.563 0 .175-.036.336-.105.486s-.155.265-.258.346c-.102.081-.23.143-.385.184a2.243 2.243 0 0 1-.568.062h-1.345zm.466-2.156h.762c.206 0 .355-.014.445-.043a.488.488 0 0 0 .267-.185.552.552 0 0 0 .09-.325.627.627 0 0 0-.083-.325.434.434 0 0 0-.24-.193c-.104-.035-.283-.053-.537-.053h-.703l-.001 1.124zm0 1.717h.877c.15 0 .256-.006.317-.017a.74.74 0 0 0 .269-.102c.072-.047.131-.116.178-.207s.07-.195.07-.313a.646.646 0 0 0-.101-.362.53.53 0 0 0-.28-.215 1.664 1.664 0 0 0-.517-.062h-.814v1.278zM170.645-43.293l1.352-3.719h.503l1.441 3.719h-.531l-.411-1.126h-1.473l-.386 1.126h-.495zm1.016-1.527h1.194l-.368-1.03c-.112-.312-.196-.57-.25-.77a4.935 4.935 0 0 1-.19.71l-.386 1.09zM175.316-43.293v-3.28h-1.16v-.439h2.792v.44h-1.165v3.279h-.467zM178.478-43.293v-3.28h-1.16v-.439h2.793v.44h-1.165v3.279h-.468zM180.446-43.293v-3.719h2.547v.44h-2.08v1.138h1.948v.436h-1.948v1.266h2.162v.439h-2.629zM183.526-43.293v-3.719h1.562c.314 0 .553.034.716.101a.795.795 0 0 1 .392.354c.097.17.147.355.147.56 0 .265-.081.487-.243.667-.161.181-.412.296-.75.346.124.062.218.124.282.185.136.131.265.297.386.494l.614 1.012h-.586l-.467-.774a7.194 7.194 0 0 0-.336-.513 1.114 1.114 0 0 0-.237-.248.682.682 0 0 0-.212-.099 1.294 1.294 0 0 0-.26-.017h-.54v1.65h-.468zm.466-2.078h1.002c.213 0 .38-.023.499-.07a.538.538 0 0 0 .273-.223.632.632 0 0 0 .094-.333c0-.176-.06-.321-.181-.434-.12-.113-.313-.17-.574-.17h-1.114l.001 1.23zM187.811-43.293v-1.575l-1.358-2.144h.568l.694 1.121c.128.21.247.42.358.63.106-.195.234-.414.384-.657l.683-1.094h.543l-1.406 2.144v1.575h-.466z"/></g><g fill="#34308e"><path d="M221.88 193.016c.183-.096.385-.065.457.072.066.128-.016.323-.198.419l-3.009 1.594c-.246.13-.366.373-.271.552l.269.509c.092.174.366.217.612.087l2.258-1.196c.593-.314 1.27-.208 1.51.243l.267.504c.237.448-.057 1.066-.649 1.381l-3.022 1.599c-.182.096-.379.062-.452-.074-.07-.131.012-.315.195-.411l3.021-1.599c.234-.124.352-.373.257-.552l-.267-.504c-.095-.18-.368-.221-.601-.098l-2.258 1.196c-.6.316-1.277.212-1.514-.236l-.269-.509c-.237-.448.057-1.067.656-1.385l3.008-1.592zM229.345 193.265c.17-.09.388-.059.455.066.073.138-.029.329-.198.419l-2.87 1.52c-.599.316-1.277.212-1.513-.236l-1.137-2.147c-.237-.448.057-1.067.656-1.383l2.87-1.52c.177-.094.379-.062.452.074.066.128-.016.323-.193.416l-2.87 1.52c-.233.124-.351.372-.259.545l.421.796 3.223-1.706c.183-.098.381-.059.449.07.069.13-.009.318-.192.415l-3.223 1.706.459.865c.092.174.368.221.601.098l2.869-1.518zM229.46 189.317c-.072-.137.01-.319.192-.415.177-.094.385-.065.458.072l1.435 2.712c.092.174.368.22.607.094l2.959-1.567c.176-.094.388-.059.455.068.073.137-.021.324-.198.418l-2.959 1.567c-.599.318-1.277.212-1.513-.236l-1.436-2.713zM240.454 187.383c.17-.09.388-.059.454.068.073.137-.027.328-.198.418l-2.869 1.52c-.6.318-1.277.212-1.514-.236l-1.137-2.147c-.237-.448.057-1.066.656-1.383l2.871-1.52c.176-.094.379-.062.451.075.067.128-.016.323-.192.415l-2.871 1.52c-.233.124-.351.373-.259.545l.422.796 3.223-1.706c.183-.096.382-.059.45.07.069.13-.009.319-.193.415l-3.223 1.707.459.864c.091.174.367.221.6.098l2.87-1.519zM244.392 181.093c.189-.102.385-.066.457.07.068.126-.008.318-.198.419l-2.869 1.519c-.239.128-.358.376-.266.55l1.137 2.147c.092.173.367.221.606.094l2.871-1.52c.189-.099.388-.06.454.068.073.137-.008.318-.198.419l-2.869 1.519c-.6.318-1.277.212-1.513-.236l-1.137-2.147c-.237-.448.057-1.066.656-1.383l2.869-1.519zM250.423 177.9c.189-.1.385-.065.457.072.068.126-.008.318-.198.418l-1.735.919 1.605 3.032c.073.137-.014.321-.191.415-.183.096-.385.065-.458-.072l-1.605-3.032-1.741.921c-.183.098-.385.052-.452-.074-.072-.137.009-.318.193-.415l4.125-2.184z"/></g><g fill="#34308e"><path d="M263.142 193.016c.184-.096.385-.065.458.072.066.126-.016.323-.199.419l-3.009 1.593c-.246.13-.366.375-.271.553l.269.509c.092.174.366.216.611.086l2.258-1.196c.593-.314 1.27-.207 1.51.245l.267.504c.237.448-.056 1.066-.649 1.379l-3.022 1.601c-.182.096-.379.062-.452-.075-.07-.13.012-.314.195-.41l3.022-1.601c.233-.124.351-.372.256-.55l-.267-.504c-.095-.18-.368-.223-.601-.099l-2.258 1.196c-.599.318-1.277.213-1.513-.234l-.269-.51c-.237-.448.057-1.066.656-1.383l3.008-1.595zM268.936 189.941c.19-.099.385-.064.458.073.066.126-.009.318-.198.419l-1.735.917 1.605 3.032c.073.137-.016.321-.191.415-.183.096-.385.065-.458-.07l-1.605-3.032-1.741.921c-.184.096-.385.052-.452-.074-.073-.137.009-.32.191-.416l4.126-2.185zM273.94 187.293c.599-.318 1.277-.211 1.513.237l1.435 2.712c.073.137-.027.328-.198.418-.171.091-.385.065-.458-.07l-.757-1.431-3.217 1.702.757 1.431c.073.137-.021.325-.198.419-.17.09-.379.062-.452-.074l-1.435-2.712c-.237-.448.056-1.068.656-1.386l2.354-1.246zm-1.936 3.087l3.217-1.703-.423-.799c-.095-.18-.364-.217-.599-.094l-2.353 1.245c-.239.128-.36.371-.265.55l.423.801zM281.541 184.307l.406.766c.237.448-.053 1.059-.649 1.381.281.195.777.524 1.12.746a.167.167 0 0 1 .072.072c.052.099.013.239-.086.341a.373.373 0 0 1-.111.082c-.126.066-.282.078-.383.009l-1.301-.885-2.245 1.188.601 1.136c.073.137-.029.328-.199.418-.182.098-.385.066-.458-.07l-1.435-2.712c-.237-.448.057-1.068.662-1.389l2.492-1.32c.601-.318 1.278-.211 1.514.237zm-.643.34c-.092-.174-.371-.213-.612-.087l-2.491 1.32c-.239.126-.358.376-.265.55l.578 1.092 2.927-1.55c.239-.126.364-.379.269-.558l-.406-.767zM286.873 180.447c.189-.1.385-.065.457.072.068.126-.008.319-.198.418l-1.735.919 1.605 3.032c.073.137-.014.321-.191.415-.182.098-.385.066-.458-.07l-1.605-3.032-1.741.921c-.182.096-.384.052-.452-.074-.072-.137.009-.32.193-.416l4.125-2.185z"/></g><path d="M320.768 149.169c.725-.384 1.761-.661 2.185.141l.359.678c.147.277.131.609-.009.919.319.065.616.247.754.506l.311.59c.297.56-.069 1.335-.82 1.732l-3.832 2.03c-.221.116-.488.07-.574-.09l-1.772-3.348c-.315-.595.03-1.373.796-1.779l2.602-1.379zm1.403 1.943c.299-.159.455-.475.336-.698l-.359-.679c-.115-.217-.466-.272-.767-.113l-2.894 1.533c-.308.163-.444.476-.305.74l.549 1.038 3.44-1.821zm1.053 2.009c.301-.159.449-.471.332-.69l-.311-.59c-.118-.224-.461-.277-.761-.118l-3.43 1.817.74 1.398 3.43-1.817zM355.951 130.516c.75-.397 1.597-.264 1.893.294l1.797 3.397c.091.17-.034.41-.247.523-.213.112-.482.081-.573-.09l-.949-1.792-4.022 2.13.947 1.792c.091.172-.026.406-.247.523-.213.113-.475.078-.565-.092l-1.798-3.395c-.295-.56.07-1.335.821-1.732l2.943-1.558zm-2.419 3.863l4.024-2.132-.531-1.002c-.118-.224-.458-.271-.75-.116l-2.942 1.558c-.301.159-.45.466-.332.688l.531 1.004z" fill="#34308e"/><path d="M241.02 177.841l-19.569 10.361a4.142 4.142 0 0 1-5.582-1.717l-.473-.892a4.142 4.142 0 0 1 1.717-5.582l19.569-10.361a4.142 4.142 0 0 1 5.582 1.717l.473.892a4.142 4.142 0 0 1-1.717 5.582zM280.573 177.841l-19.569 10.361a4.142 4.142 0 0 1-5.582-1.717l-.473-.892a4.142 4.142 0 0 1 1.717-5.582l19.569-10.361a4.142 4.142 0 0 1 5.582 1.717l.473.892a4.141 4.141 0 0 1-1.717 5.582z" fill="#939598"/><path d="M354.081 123.72l-38.166 20.208c-8.369 4.431-18.842 1.209-23.273-7.16l-1.504-2.84c-4.431-8.369-1.209-18.842 7.16-23.273l38.166-20.208c8.369-4.431 18.842-1.209 23.273 7.16l1.504 2.84c4.431 8.369 1.209 18.842-7.16 23.273z" fill="#c9c9c9"/><g fill="#9b2063"><path d="M302.097 113.66c-7.013 3.713-9.7 12.439-5.986 19.454 3.713 7.013 12.441 9.697 19.454 5.984 7.014-3.714 9.699-12.441 5.986-19.454-3.714-7.015-12.44-9.698-19.454-5.984zM336.813 95.278c-7.013 3.713-9.698 12.439-5.985 19.453 3.713 7.013 12.44 9.698 19.453 5.985 7.014-3.714 9.699-12.44 5.986-19.454-3.713-7.014-12.439-9.698-19.454-5.984z"/></g><path fill="#c9c9c9" d="M166.517-147.749h49.842v13.597h-49.842z"/><path d="M174.215-147.639v2.986c0 .146.118.264.264.264h2.128a.266.266 0 0 0 .266-.266v-2.986a.263.263 0 0 0-.263-.263h-2.13a.264.264 0 0 0-.265.265zM180.108-147.64v2.982c0 .149.12.269.269.269h2.124a.266.266 0 0 0 .266-.266v-2.985a.265.265 0 0 0-.265-.265h-2.128a.266.266 0 0 0-.266.265z" fill="#d9d9d9"/><g fill="#d9d9d9"><path d="M180.065-142.038c.793 0 1.453.264 1.981.792s.791 1.19.791 1.986-.266 1.454-.799 1.977c-.532.521-1.204.782-2.014.782-.774 0-1.418-.261-1.934-.782-.515-.522-.773-1.175-.773-1.961 0-.806.259-1.474.778-2.001.52-.529 1.176-.793 1.97-.793zm.029.734c-.588 0-1.071.193-1.448.58-.378.386-.567.879-.567 1.48 0 .582.19 1.066.569 1.453.379.386.855.58 1.425.58.572 0 1.05-.197 1.433-.591.383-.394.575-.885.575-1.472 0-.572-.192-1.052-.575-1.443a1.898 1.898 0 0 0-1.412-.587zM183.748-141.961h2.737v.688h-2.003v1.507h2.003v.688h-2.003v2.515h-.735v-5.398zM187.279-141.961h2.737v.688h-2.003v1.507h2.003v.688h-2.003v2.515h-.735v-5.398zM192.898-139.573c0 .451-.347.816-.776.816-.429 0-.776-.365-.776-.816 0-.451.347-.816.776-.816.445 0 .776.38.776.816zM197.085-142.038c.793 0 1.453.264 1.981.792s.791 1.19.791 1.986-.266 1.454-.799 1.977c-.532.521-1.204.782-2.014.782-.774 0-1.418-.261-1.934-.782-.515-.522-.773-1.175-.773-1.961 0-.806.259-1.474.778-2.001.52-.529 1.176-.793 1.97-.793zm.029.734c-.588 0-1.071.193-1.448.58-.378.386-.567.879-.567 1.48 0 .582.19 1.066.569 1.453.379.386.855.58 1.425.58.572 0 1.05-.197 1.433-.591.383-.394.575-.885.575-1.472 0-.572-.192-1.052-.575-1.443a1.897 1.897 0 0 0-1.412-.587zM204.84-141.961h.698v5.397h-.632l-3.432-4.157v4.157h-.691v-5.397h.595l3.461 4.192v-4.192z"/><g><path d="M175.377-142.534v6.528l-5.017-3.264zM207.673-142.534v6.528l5.017-3.264z"/></g></g><path d="M185.972-147.639v3.25h25.269c2.815 0 5.119 2.303 5.119 5.119 0 2.815-2.303 5.119-5.119 5.119h-39.619c-2.815 0-5.119-2.303-5.119-5.119 0-2.588 1.946-4.743 4.448-5.075v-3.297a.263.263 0 0 0-.263-.263h-5.835v17.525h193.028v-17.525H186.238a.266.266 0 0 0-.266.266zM251.257 240.804v5.685c0 .278.118.504.264.504h2.128c.147 0 .266-.227.266-.507V240.8c0-.277-.118-.502-.263-.502h-2.13c-.146.001-.265.227-.265.506zM257.15 240.803v5.677c0 .283.121.512.269.512h2.124c.147 0 .266-.226.266-.505v-5.683c0-.279-.119-.505-.265-.505h-2.128c-.147 0-.266.225-.266.504z" fill="#d9d9d9"/><path d="M263.429 240.299h-28.101a4.425 4.425 0 0 1-4.412-4.412v-.543a4.425 4.425 0 0 1 4.412-4.412h28.101a4.425 4.425 0 0 1 4.412 4.412v.543a4.425 4.425 0 0 1-4.412 4.412z" fill="#c9c9c9"/><g fill="#d9d9d9"><path d="M240.935 237.928v-4.415h1.398c.421 0 .756.115 1.007.341.251.228.375.532.375.916 0 .256-.064.483-.192.681a1.105 1.105 0 0 1-.527.431c-.223.09-.543.134-.96.134h-.467v1.913h-.634zm1.287-3.853h-.653v1.379h.692c.256 0 .454-.061.593-.182.139-.121.208-.294.208-.519 0-.452-.28-.678-.84-.678zM247.372 233.519h.631v4.409h-.631v-1.918h-2.477v1.918h-.631v-4.409h.631v1.906h2.477v-1.906zM251.139 233.456c.681 0 1.248.216 1.701.647.454.431.68.972.68 1.621 0 .651-.228 1.188-.686 1.615-.457.426-1.034.639-1.73.639-.664 0-1.217-.213-1.661-.639-.442-.427-.664-.96-.664-1.602 0-.658.223-1.204.669-1.634.446-.431 1.01-.647 1.691-.647zm.025.6c-.504 0-.919.157-1.243.472-.325.316-.487.718-.487 1.209 0 .475.163.871.489 1.187.326.315.734.474 1.223.474.492 0 .902-.161 1.231-.483.329-.323.494-.724.494-1.202 0-.467-.165-.86-.494-1.179a1.678 1.678 0 0 0-1.213-.478zM257.799 233.519h.6v4.409h-.543l-2.948-3.395v3.395h-.593v-4.409h.511l2.972 3.425v-3.425zM259.342 233.519h2.499v.562h-1.868v1.344h1.805v.565h-1.805v1.37h1.928v.561h-2.559v-4.402zM263.665 236.081l-.48-.291c-.301-.185-.515-.364-.642-.543a1.025 1.025 0 0 1-.191-.614c0-.346.12-.629.362-.846.241-.216.554-.324.939-.324.368 0 .705.103 1.012.31v.716c-.318-.305-.659-.458-1.025-.458a.852.852 0 0 0-.508.143.433.433 0 0 0-.198.366c0 .133.049.256.146.371.098.116.254.237.471.363l.482.286c.537.32.806.73.806 1.226 0 .354-.118.64-.355.861-.237.221-.545.332-.923.332a1.94 1.94 0 0 1-1.19-.402v-.802c.341.432.736.648 1.184.648a.744.744 0 0 0 .494-.165.516.516 0 0 0 .197-.414c0-.268-.194-.522-.581-.763z"/><g><path d="M236.661 232.97a2.745 2.745 0 0 1 2.596 3.624.181.181 0 0 1-.155.099c-.091 0-.16-.115-.16-.206a2.412 2.412 0 0 0-2.281-3.185 2.412 2.412 0 0 0-2.281 3.185c0 .091-.069.206-.16.206a.181.181 0 0 1-.155-.099 2.745 2.745 0 0 1 2.596-3.624z"/><path d="M234.944 238.261v-1.721a.86.86 0 0 0-.858.861c0 .475.384.86.858.86zM238.378 238.261v-1.721a.86.86 0 0 1 .858.861c0 .475-.384.86-.858.86z"/></g></g><g><path d="M198.133 148.567h-12.478a2.498 2.498 0 0 1-2.497-2.496V129.12h-16.543a2.5 2.5 0 0 1-2.497-2.497v-12.477a2.498 2.498 0 0 1 2.497-2.497h16.543V95.104a2.5 2.5 0 0 1 2.497-2.499h12.478a2.5 2.5 0 0 1 2.497 2.499v16.543h15.729a2.499 2.499 0 0 1 2.497 2.497v12.477a2.499 2.499 0 0 1-2.497 2.496H200.63v16.951a2.499 2.499 0 0 1-2.497 2.499z" fill="#212121"/><circle cx="191.488" cy="120.586" r="7.274" fill="#191919"/><g fill="#191919"><path d="M203.124 127.86h-1.196a1.35 1.35 0 0 1-1.346-1.346v-11.856c0-.74.606-1.346 1.346-1.346h1.196c.74 0 1.346.606 1.346 1.346v11.856a1.35 1.35 0 0 1-1.346 1.346zM208.649 127.86h-1.196a1.35 1.35 0 0 1-1.346-1.346v-11.856c0-.74.606-1.346 1.346-1.346h1.196c.74 0 1.346.606 1.346 1.346v11.856a1.351 1.351 0 0 1-1.346 1.346zM214.174 127.86h-1.196a1.35 1.35 0 0 1-1.346-1.346v-11.856c0-.74.605-1.346 1.346-1.346h1.196c.74 0 1.346.606 1.346 1.346v11.856a1.351 1.351 0 0 1-1.346 1.346zM198.761 108.95v1.196a1.35 1.35 0 0 1-1.346 1.346h-11.856a1.35 1.35 0 0 1-1.346-1.346v-1.196c0-.74.606-1.346 1.346-1.346h11.856a1.35 1.35 0 0 1 1.346 1.346zM198.761 103.425v1.196a1.35 1.35 0 0 1-1.346 1.346h-11.856a1.35 1.35 0 0 1-1.346-1.346v-1.196c0-.74.606-1.346 1.346-1.346h11.856a1.35 1.35 0 0 1 1.346 1.346zM198.761 97.9v1.196a1.35 1.35 0 0 1-1.346 1.346h-11.856a1.35 1.35 0 0 1-1.346-1.346V97.9c0-.74.606-1.346 1.346-1.346h11.856a1.35 1.35 0 0 1 1.346 1.346zM184.214 132.223v-1.196c0-.74.606-1.346 1.346-1.346h11.856c.74 0 1.346.605 1.346 1.346v1.196a1.35 1.35 0 0 1-1.346 1.346H185.56a1.35 1.35 0 0 1-1.346-1.346zM184.214 137.748v-1.196c0-.74.606-1.346 1.346-1.346h11.856c.74 0 1.346.606 1.346 1.346v1.196a1.35 1.35 0 0 1-1.346 1.346H185.56a1.35 1.35 0 0 1-1.346-1.346zM184.214 143.272v-1.196c0-.74.606-1.346 1.346-1.346h11.856c.74 0 1.346.606 1.346 1.346v1.196a1.35 1.35 0 0 1-1.346 1.346H185.56a1.35 1.35 0 0 1-1.346-1.346zM179.851 113.313h1.196c.74 0 1.346.606 1.346 1.346v11.856a1.35 1.35 0 0 1-1.346 1.346h-1.196a1.35 1.35 0 0 1-1.346-1.346v-11.856a1.35 1.35 0 0 1 1.346-1.346zM174.326 113.313h1.196c.74 0 1.346.606 1.346 1.346v11.856a1.35 1.35 0 0 1-1.346 1.346h-1.196a1.35 1.35 0 0 1-1.346-1.346v-11.856a1.35 1.35 0 0 1 1.346-1.346zM168.802 113.313h1.196c.74 0 1.346.606 1.346 1.346v11.856a1.35 1.35 0 0 1-1.346 1.346h-1.196a1.35 1.35 0 0 1-1.346-1.346v-11.856a1.35 1.35 0 0 1 1.346-1.346z"/></g></g><linearGradient id="d" gradientUnits="userSpaceOnUse" x1="-25.652" y1="533.876" x2="-24.652" y2="533.876" gradientTransform="scale(5.7306 -5.7306) rotate(-60 -478.32 175.865)"><stop offset="0" stop-color="#c9c9c9"/><stop offset="1" stop-color="#a8a8a8"/></linearGradient><path d="M302.062 230.514l61.367-35.075-61.367 35.075z" fill="url(#d)"/><g><path d="M397.444 73.154h70.962a3.778 3.778 0 0 1 3.779 3.778v34.63a3.778 3.778 0 0 1-3.779 3.78h-70.962a3.778 3.778 0 0 1-3.779-3.78v-34.63a3.778 3.778 0 0 1 3.779-3.778z" fill="#f1f1f1" fill-opacity=".8" stroke="#35495e" stroke-width=".63438868"/><path d="M454.232 97.678h-6.492l-1.459 4.045h-2.107l5.918-15.497h1.788l5.928 15.497h-2.097l-1.479-4.045zm-5.875-1.681h5.268l-2.64-7.248-2.628 7.248z" fill="#35495e"/><g transform="matrix(.99188 0 0 -.99188 396.124 112.827)"><defs><path id="e" d="M.15.15h36.76v36.76H.15z"/></defs><clipPath id="f"><use xlink:href="#e" overflow="visible"/></clipPath><g clip-path="url(#f)"><path d="M30.23 14.114a5.119 5.119 0 1 0 .002 10.238 5.119 5.119 0 0 0-.002-10.238M19.46 22.51a5.118 5.118 0 1 0 .001 10.236 5.118 5.118 0 0 0 0-10.236M17.615 4.197a5.118 5.118 0 1 0 0 10.236 5.118 5.118 0 0 0 0-10.236m-10.639 8.61a5.118 5.118 0 1 0 0 10.236 5.118 5.118 0 0 0 0-10.235M18.6 37.06C8.384 37.06.102 28.78.102 18.563.102 8.347 8.384.065 18.6.065s18.498 8.282 18.498 18.498c0 10.217-8.282 18.498-18.498 18.498" fill="#35495e"/><path d="M21.235 9.315a3.62 3.62 0 1 0-7.24.002 3.62 3.62 0 0 0 7.24-.002M10.79 17.926a3.813 3.813 0 1 0-3.812 3.812 3.812 3.812 0 0 0 3.811-3.812M23.073 27.526a3.62 3.62 0 1 0-7.238 0 3.62 3.62 0 0 0 7.238 0" fill="#35495e"/></g></g></g><g><path d="M397.444 122.018h70.963a3.778 3.778 0 0 1 3.778 3.779v34.63a3.778 3.778 0 0 1-3.778 3.779h-70.963a3.778 3.778 0 0 1-3.778-3.778v-34.631a3.778 3.778 0 0 1 3.778-3.779z" fill="#f1f1f1" fill-opacity=".8" stroke="#35495e" stroke-width=".63438868"/><path d="M445.675 150.587v-15.496h5.066c1.682 0 2.944.348 3.789 1.043.851.695 1.277 1.724 1.277 3.086a3.17 3.17 0 0 1-.617 1.927c-.412.553-.972.983-1.682 1.288.837.234 1.497.68 1.98 1.34.49.653.734 1.434.734 2.342 0 1.39-.45 2.483-1.352 3.278-.9.795-2.174 1.192-3.82 1.192h-5.375zm2.043-7.248v5.577h3.374c.95 0 1.7-.244 2.246-.734.553-.497.83-1.178.83-2.044 0-1.866-1.014-2.799-3.044-2.799h-3.406zm0-1.639h3.087c.894 0 1.607-.223 2.14-.67.539-.447.808-1.054.808-1.82 0-.852-.248-1.47-.745-1.852-.497-.39-1.252-.586-2.267-.586h-3.023v4.928z" fill="#35495e"/><g transform="matrix(1.01304 0 0 -1.01304 395.485 161.99)"><defs><path id="g" d="M-.241-.242h37.544v37.544H-.241z"/></defs><clipPath id="h"><use xlink:href="#g" overflow="visible"/></clipPath><g clip-path="url(#h)"><path d="M30.23 14.114a5.119 5.119 0 1 0 .002 10.238 5.119 5.119 0 0 0-.002-10.238M19.46 22.51a5.118 5.118 0 1 0 .001 10.236 5.118 5.118 0 0 0 0-10.236M17.615 4.197a5.118 5.118 0 1 0 0 10.236 5.118 5.118 0 0 0 0-10.236m-10.639 8.61a5.118 5.118 0 1 0 0 10.236 5.118 5.118 0 0 0 0-10.235M18.6 37.06C8.384 37.06.102 28.78.102 18.563.102 8.347 8.384.065 18.6.065s18.498 8.282 18.498 18.498c0 10.217-8.282 18.498-18.498 18.498" fill="#35495e"/><path d="M33.885 19.232a3.654 3.654 0 1 0-7.309-.001 3.654 3.654 0 0 0 7.309.001M10.79 17.926a3.813 3.813 0 1 0-3.812 3.812 3.812 3.812 0 0 0 3.811-3.812M23.073 27.526a3.62 3.62 0 1 0-7.238 0 3.62 3.62 0 0 0 7.238 0" fill="#35495e"/></g></g></g><g><path d="M114.178 254.585h127.183a3.761 3.761 0 0 1 3.76 3.761v34.471a3.761 3.761 0 0 1-3.76 3.761H114.178a3.761 3.761 0 0 1-3.76-3.76v-34.472a3.761 3.761 0 0 1 3.76-3.76z" fill="#f1f1f1" fill-opacity=".8" stroke="#35495e" stroke-width=".82921847"/><path d="M145.01 275.827h-28.7c-2.074 0-3.756 1.732-3.756 3.867s1.682 3.866 3.757 3.866h28.699c2.074 0 3.756-1.73 3.756-3.866s-1.682-3.867-3.756-3.867zM145.537 272.34h1.16v-5.936h2.075v-1.103h-5.309v1.102h2.074v5.937zm-2.835-4.438c-.123-1.518-1.115-2.798-3.016-2.798-2.174 0-3.09 1.732-3.09 3.718 0 1.98.957 3.716 2.952 3.716 2.275 0 2.993-1.486 3.155-2.89h-1.25c-.097.74-.5 1.787-1.704 1.787-1.148 0-1.942-1.018-1.942-2.487 0-1.834.794-2.744 1.864-2.744.976 0 1.665.631 1.781 1.697l1.25.001zm-11.917 4.438h4.86v-1.103h-3.7v-1.952h3.491v-1.103h-3.49v-1.778h3.635v-1.103h-4.795v7.04zm-5.55 0h4.52v-1.16h-3.359V265.3h-1.16v7.04zm-6.12 0h4.86v-1.103h-3.7v-1.952h3.49v-1.103h-3.49v-1.778h3.64v-1.103h-4.8v7.04zm-6.415-5.058c0 2.887 4.071 1.366 4.071 3.113 0 .774-.658 1.04-1.363 1.04-.954 0-1.555-.446-1.587-1.375h-1.252c.014 1.48.812 2.476 2.8 2.476 1.178 0 2.655-.472 2.655-2.289 0-3.006-4.117-1.422-4.117-3.074 0-.661.511-.968 1.283-.968.967 0 1.356.591 1.395 1.136h1.255c-.149-2.043-1.853-2.237-2.704-2.237-1.345 0-2.436.61-2.436 2.178" fill="#35495e"/><g fill="#35495e"><path d="M166.895 276.15c-1.752-.504-3.03-1.121-3.831-1.852-.795-.738-1.192-1.646-1.192-2.725 0-1.22.486-2.228 1.458-3.023.98-.802 2.25-1.202 3.81-1.202 1.065 0 2.012.205 2.842.617.837.411 1.483.98 1.937 1.703a4.33 4.33 0 0 1 .692 2.373h-2.054c0-.937-.299-1.67-.895-2.203-.595-.54-1.436-.81-2.522-.81-1.007 0-1.795.224-2.363.672-.56.44-.84 1.053-.84 1.84 0 .632.266 1.168.798 1.608.54.433 1.45.83 2.735 1.192 1.291.362 2.299.762 3.023 1.202.73.433 1.27.94 1.617 1.522.355.582.533 1.267.533 2.054 0 1.256-.49 2.264-1.47 3.023-.978.752-2.288 1.128-3.926 1.128a7.335 7.335 0 0 1-2.98-.607c-.923-.411-1.636-.972-2.14-1.681-.496-.71-.745-1.515-.745-2.416h2.054c0 .937.345 1.678 1.033 2.224.695.54 1.621.81 2.778.81 1.078 0 1.905-.22 2.48-.66.574-.44.861-1.04.861-1.8s-.266-1.344-.798-1.755c-.532-.418-1.497-.83-2.895-1.234zM184.03 275.894h-6.716v5.492h7.802v1.67h-9.845v-15.495h9.738v1.681h-7.695v4.981h6.716v1.671zM189.714 281.386h7.343v1.67h-9.398v-15.495h2.055v13.825zM208.169 275.894h-6.716v5.492h7.801v1.67h-9.845v-15.495h9.739v1.681h-7.695v4.981h6.716v1.671zM223.196 278.14c-.191 1.639-.798 2.906-1.82 3.8-1.014.886-2.366 1.33-4.054 1.33-1.831 0-3.3-.657-4.406-1.97-1.1-1.312-1.65-3.068-1.65-5.268v-1.49c0-1.44.255-2.706.766-3.799.518-1.093 1.249-1.93 2.193-2.512.943-.589 2.036-.883 3.278-.883 1.646 0 2.965.461 3.959 1.383.993.916 1.572 2.186 1.735 3.81h-2.054c-.178-1.234-.565-2.128-1.16-2.681-.59-.554-1.416-.83-2.48-.83-1.306 0-2.33.482-3.076 1.447-.738.965-1.107 2.338-1.107 4.119v1.5c0 1.682.351 3.02 1.054 4.013s1.685 1.49 2.948 1.49c1.135 0 2.005-.256 2.607-.766.61-.518 1.015-1.416 1.214-2.693h2.053zM236.383 269.242h-4.981v13.815h-2.033v-13.815h-4.97v-1.681h11.984v1.681z"/></g></g><g><path d="M257.629 254.57h117.06a3.764 3.764 0 0 1 3.764 3.764v34.496a3.764 3.764 0 0 1-3.764 3.764h-117.06a3.764 3.764 0 0 1-3.764-3.764v-34.496a3.764 3.764 0 0 1 3.764-3.764z" fill="#f1f1f1" fill-opacity=".8" stroke="#35495e" stroke-width=".7977532999999999"/><path d="M289.233 272.34h1.435v-6.064h2.557v-1.128h-6.548v1.128h2.557l-.001 6.063zm-8.694-3.967v-2.097h2.476c.753 0 1.223.291 1.223 1.037 0 .806-.43 1.06-1.223 1.06h-2.476zm-1.431 3.966h1.43v-2.84h2.438c1.05 0 1.185.726 1.185 1.752 0 .524.068.888.174 1.088h1.548c-.28-.394-.289-1.196-.289-1.542 0-1.017-.18-1.762-.992-1.941v-.02c.642-.211 1.126-.796 1.126-1.734 0-1.116-.562-1.95-2.3-1.95h-4.317l-.003 7.187zm-8.865 0h1.548l.706-1.782h3.21l.716 1.782h1.6l-3.039-7.19h-1.7l-3.04 7.19zm2.685-2.91l1.184-3.034 1.166 3.035h-2.35zm-6.716 2.91h1.431v-6.063h2.561v-1.128h-6.553v1.128h2.561v6.063zm-9.782-5.168c0 2.95 5.024 1.397 5.024 3.18 0 .79-.81 1.062-1.68 1.062-1.176 0-1.919-.455-1.958-1.404h-1.547c.021 1.513 1.003 2.533 3.461 2.533 1.452 0 3.273-.485 3.273-2.34 0-3.072-5.082-1.45-5.082-3.14 0-.675.63-.987 1.586-.987 1.193 0 1.672.603 1.722 1.159h1.547c-.184-2.089-2.285-2.287-3.337-2.287-1.663 0-3.01.622-3.01 2.224M289.384 275.9H260.08c-2.118 0-3.836 1.769-3.836 3.949s1.718 3.948 3.836 3.948h29.305c2.119 0 3.836-1.767 3.836-3.948s-1.717-3.948-3.836-3.948z" fill="#35495e"/><g fill="#35495e"><path d="M310.358 276.15c-1.752-.504-3.03-1.121-3.831-1.852-.795-.738-1.192-1.646-1.192-2.725 0-1.22.486-2.228 1.458-3.023.98-.802 2.25-1.202 3.81-1.202 1.065 0 2.012.205 2.842.617.837.411 1.483.98 1.937 1.703a4.33 4.33 0 0 1 .692 2.373h-2.054c0-.937-.298-1.67-.894-2.203-.596-.54-1.437-.81-2.522-.81-1.008 0-1.796.224-2.363.672-.56.44-.84 1.053-.84 1.84 0 .632.265 1.168.797 1.608.54.433 1.451.83 2.735 1.192 1.292.362 2.3.762 3.023 1.202.73.433 1.27.94 1.618 1.522.354.582.532 1.267.532 2.055 0 1.255-.49 2.263-1.469 3.022-.98.752-2.288 1.128-3.927 1.128a7.335 7.335 0 0 1-2.98-.607c-.922-.411-1.636-.972-2.14-1.681-.496-.71-.744-1.515-.744-2.416h2.054c0 .937.344 1.678 1.032 2.224.696.54 1.621.81 2.778.81 1.078 0 1.905-.22 2.48-.66.574-.44.862-1.04.862-1.8s-.266-1.344-.798-1.755c-.533-.418-1.498-.83-2.896-1.234zM329.441 269.242h-4.98v13.815h-2.033v-13.815h-4.97v-1.681h11.983v1.681zM339.467 279.012h-6.492l-1.458 4.045h-2.108l5.918-15.496h1.788l5.928 15.496h-2.097l-1.479-4.045zm-5.875-1.68h5.268l-2.64-7.249-2.628 7.248zM350.813 276.788h-3.64v6.269h-2.054V267.56h5.13c1.745 0 3.086.397 4.023 1.191.943.795 1.415 1.952 1.415 3.47 0 .965-.262 1.806-.787 2.523-.518.716-1.242 1.252-2.171 1.606l3.64 6.578v.128h-2.193l-3.363-6.269zm-3.64-1.671h3.14c1.014 0 1.82-.263 2.415-.788.603-.525.905-1.227.905-2.107 0-.958-.288-1.692-.862-2.203-.568-.51-1.391-.77-2.47-.777h-3.129v5.875zM368.395 269.242h-4.98v13.815h-2.034v-13.815h-4.97v-1.681h11.984v1.681z"/></g></g><g><path d="M4.16 99.291h114.435a3.764 3.764 0 0 1 3.765 3.764v34.504a3.764 3.764 0 0 1-3.765 3.765H4.16a3.764 3.764 0 0 1-3.764-3.765v-34.504a3.765 3.765 0 0 1 3.764-3.764z" fill="#f1f1f1" fill-opacity=".8" stroke="#35495e" stroke-width=".78948972"/><path d="M24.878 139.188h-7.2c-2.318 0-3.159-1.89-3.159-3.16v-8.843H5.675c-2.319 0-3.16-1.89-3.16-3.16v-7.2c0-2.317 1.89-3.159 3.16-3.159h8.844v-8.843c0-2.319 1.889-3.16 3.158-3.16h7.201c2.319 0 3.16 1.89 3.16 3.16v8.843h8.841c1.217 0 2.182.532 2.718 1.499.21.38.462 1.126.435 1.66h.008v7.2c0 2.318-1.89 3.16-3.16 3.16h-8.842v8.841c0 2.32-1.89 3.162-3.16 3.162zM5.675 115.184c-.38.006-1.641.14-1.641 1.64v7.2c.006.38.14 1.642 1.641 1.642h10.362v10.36c.005.381.14 1.642 1.64 1.642h7.197c.389-.006 1.645-.144 1.645-1.642v-10.36h10.36c.38-.006 1.64-.141 1.64-1.64v-7.212c-.004-.29-.113-1.629-1.64-1.629H26.521v-10.362c-.007-.38-.141-1.641-1.642-1.641h-7.2c-.381.006-1.64.14-1.64 1.641v10.361H5.675z" fill="#35495e"/><path d="M21.28 124.123c-2.038 0-3.696-1.658-3.696-3.697s1.658-3.696 3.695-3.696a3.7 3.7 0 0 1 3.696 3.696 3.7 3.7 0 0 1-3.696 3.697zm0-5.874a2.18 2.18 0 0 0-2.177 2.177c0 1.202.976 2.178 2.176 2.178 1.201 0 2.177-.977 2.177-2.178s-.977-2.177-2.177-2.177z" fill="#35495e"/><g fill="#35495e"><path d="M21.278 104.886l-3.043 4.743h6.088l-3.045-4.743z"/><path d="M24.322 110.388h-6.088a.761.761 0 0 1-.639-1.17l3.043-4.742c.28-.437 1-.436 1.278 0l3.045 4.743a.76.76 0 0 1-.639 1.17zm-4.697-1.519h3.308l-1.655-2.577-1.653 2.577z"/></g><g fill="#35495e"><path d="M5.68 120.426l4.742 3.042v-6.086l-4.743 3.044z"/><path d="M10.422 124.228a.759.759 0 0 1-.41-.12l-4.743-3.043a.757.757 0 0 1 0-1.278l4.743-3.044a.761.761 0 0 1 1.17.64v6.085a.76.76 0 0 1-.76.76zm-3.336-3.802l2.577 1.653v-3.306l-2.577 1.653z"/></g><g fill="#35495e"><path d="M36.82 120.425l-4.743-3.043v6.086l4.744-3.043z"/><path d="M32.078 124.228a.76.76 0 0 1-.76-.76v-6.086a.758.758 0 0 1 1.17-.639l4.745 3.043a.76.76 0 0 1 0 1.278l-4.745 3.043a.762.762 0 0 1-.41.12zm.76-5.456v3.307l2.577-1.654-2.578-1.653z"/></g><g fill="#35495e"><path d="M21.278 135.966l3.045-4.743h-6.088l3.043 4.743z"/><path d="M21.278 136.725a.76.76 0 0 1-.639-.35l-3.043-4.742a.761.761 0 0 1 .64-1.17h6.087a.758.758 0 0 1 .64 1.17l-3.046 4.743a.76.76 0 0 1-.639.35zm-1.653-4.743l1.653 2.577 1.655-2.577h-3.308z"/></g><g fill="#35495e"><path d="M52.327 127.782v-15.496H56.7c1.348 0 2.54.298 3.576.894 1.036.596 1.834 1.444 2.395 2.544.567 1.1.855 2.363.862 3.789v.99c0 1.461-.284 2.742-.852 3.842a5.912 5.912 0 0 1-2.416 2.533c-1.043.589-2.26.89-3.65.904h-4.29zm2.044-13.814v12.143h2.15c1.575 0 2.798-.49 3.671-1.468.88-.98 1.32-2.374 1.32-4.183v-.905c0-1.76-.415-3.125-1.245-4.097-.824-.98-1.994-1.476-3.512-1.49H54.37zM70.42 122.003h-5.194v-1.607h5.194v1.607zM74.677 121.716v6.066h-2.043v-15.496h5.715c1.696 0 3.023.433 3.98 1.299.966.865 1.448 2.011 1.448 3.437 0 1.505-.472 2.665-1.416 3.48-.936.81-2.28 1.214-4.033 1.214h-3.65zm0-1.671h3.672c1.093 0 1.93-.256 2.512-.766.582-.518.873-1.263.873-2.235 0-.923-.291-1.66-.873-2.214-.582-.553-1.38-.84-2.395-.862h-3.788v6.077zM93.494 123.738h-6.492l-1.459 4.045h-2.107l5.917-15.497h1.789l5.928 15.497h-2.097l-1.48-4.045zm-5.875-1.682h5.268l-2.64-7.247-2.628 7.247zM99.156 127.782v-15.496h4.374c1.349 0 2.54.298 3.576.894 1.036.596 1.835 1.444 2.395 2.544.568 1.1.855 2.363.862 3.789v.99c0 1.461-.284 2.742-.852 3.842a5.912 5.912 0 0 1-2.415 2.533c-1.044.589-2.26.89-3.651.904h-4.289zm2.043-13.814v12.143h2.15c1.575 0 2.8-.49 3.672-1.468.88-.98 1.32-2.374 1.32-4.183v-.905c0-1.76-.415-3.125-1.245-4.097-.824-.98-1.994-1.476-3.512-1.49h-2.385z"/></g></g><ellipse cx="190.882" cy="119.811" rx="2.453" ry="2.4" fill="#434547"/><ellipse cx="309.289" cy="126.397" rx="2.453" ry="2.4" fill="#434547"/><ellipse cx="342.977" cy="107.828" rx="2.453" ry="2.4" fill="#434547"/><ellipse cx="268.695" cy="179.069" rx="2.453" ry="2.4" fill="#434547"/><ellipse cx="229.142" cy="179.069" rx="2.453" ry="2.4" fill="#434547"/><path d="M393.435 107.828l-50.458.068" fill="#434547" stroke="#434547" stroke-width=".918"/><path d="M393.376 126.33l-84.086.068" fill="#434547" stroke="#434547" stroke-width="1.185"/><path d="M189.7 119.746l-66.973.068" fill="#434547" stroke="#434547" stroke-width="1.058"/><path d="M268.586 178.926l.068 75.377M229.108 179.069l.068 75.234" fill="#434547" stroke="#434547" stroke-width="1.121"/></svg>