<svg xmlns="http://www.w3.org/2000/svg" viewBox="0 0 87.001 86"><path d="M71.908 24.82c5.5 5.437 6.617 13.232 6.617 21.157 0 16.912-15.267 30.622-34.101 30.622s-34.1-13.71-34.1-30.623c0-8.206 1.552-13.705 6.277-21.157-.656-.834-3.217-5.009-3.223-8.236-.002-.946-.01-5.279 2.927-6.744 3.242-1.617 7.081 1.754 7.253 1.909 3.418 3.083 2.872 7.845 2.799 8.398l36.645-.891c.65-1.437 2.081-4.382 4.962-6.426 1.602-1.137 3.498-2.164 5.344-1.591 2.546.791 4.024 4.933 2.927 8.143-.994 2.908-3.775 5.214-4.327 5.439z" fill="#ede300" stroke="#000" stroke-width="2.036" stroke-miterlimit="10"/><circle cx="60.364" cy="38.316" r="8.716" fill="#ede300" stroke="#000" stroke-width="2.036" stroke-miterlimit="10"/><circle cx="34.897" cy="38.316" r="8.716" fill="#ede300" stroke="#000" stroke-width="2.036" stroke-miterlimit="10"/><circle cx="35.263" cy="38.506" r="2.036"/><circle cx="60.648" cy="39.588" r="2.036"/><path d="M52.695 51.066c-.621.173-.72-2.135-2.29-3.308-1.799-1.345-4.388-1.179-5.867-.359-2.09 1.159-1.932 1.859-2.491 3.577-.335 1.03-5.3-.673-7.293-1.436-1.611-.617-3.732-1.651-6.926-2.792-10.25-3.662-19.468-4.825-20.702-4.81-2.22.027-2.787 3.556-1.892 4.072 7.281 4.198 16.268 3.944 23.712 5.365.477.091 1.487.563 1.546.837.301 1.408-18.382 5.818-20.677 6.394-1.97.493-4.209.931-4.835 1.112-2.418.7-3.054 1.177-3.467 1.686-.722.888-.586 1.491-.032 2.386.873 1.41 4.292.794 6.489.318 11.409-2.468 28.081-9.287 28.141-9.183.014.025-.975.552-3.363 1.878-11.291 6.267-21.484 12.082-21.949 12.404-1.397.969-1.556 2.596-1.239 3.267.591 1.246 2.815 1.303 3.626.986 10.435-4.071 25.042-14.672 26.573-16.371.119-.132.867-1.004 1.548-.424.246.209.303.681.382 1.018.361 1.54 3.407 2.435 5.599 2.481 1.028.022 3.92.083 5.408-1.781 1.21-1.517.789-3.43 1.909-3.817.711-.246 1.465.368 1.781.509 6.532 2.905 14.972 5.493 23.921 8.398.533.173 2.232.781 3.259.311 1.004-.46 1.083-1.727.877-2.792-.795-4.099-13.536-5.119-13.487-5.408.045-.265 9.882.191 13.424-1.336.919-.396.487-2.972-.467-3.351-3.69-1.463-18.304.533-18.301.551.003.018 13.94-3.658 18.577-4.517.171-.032.988-.294 1.309-.7.754-.953.664-2.799-.524-3.435-1.982-1.061-6.492 1.102-32.279 8.27z" fill="#ede300" stroke="#000" stroke-width="2.036" stroke-miterlimit="10"/></svg>