<svg xmlns="http://www.w3.org/2000/svg" viewBox="0 0 1000 114"><title>logo_right</title><g id="Layer_2" data-name="Layer 2"><rect x="793.03" y="52" width="28.34" height="12.38" fill="#fff"/><rect x="956.48" y="48.07" width="29.1" height="16.31" fill="#fff"/><rect x="616.26" y="27.62" width="358.44" height="54.89" fill="#fff"/></g><g id="Capa_1" data-name="Capa 1"><path d="M610.93,7l382,.21v25.4h-382V7m0-7a7,7,0,0,0-7,7V32.61a7,7,0,0,0,7,7H993a7,7,0,0,0,7-7V7.21a7,7,0,0,0-7-7L610.94,0Z" fill="#fff"/><path d="M649.84,42.17v8.11H619.55l0,6.23h29.23v7.18l-29.44-.21v9h-8.26l0-30.35h38.76m0-7H611.08a7,7,0,0,0-7,7l0,30.36a7,7,0,0,0,2,5,7,7,0,0,0,5,2h8.26a7,7,0,0,0,7-7v-2l22.39.16h0a7,7,0,0,0,7-7V56.51a7,7,0,0,0-.3-2,7,7,0,0,0,1.38-4.18V42.17a7,7,0,0,0-7-7Z" fill="#fff"/><path d="M722.4,42.2V72.45h-8.64V42.2h8.64m0-7h-8.64a7,7,0,0,0-7,7V72.45a7,7,0,0,0,7,7h8.64a7,7,0,0,0,7-7V42.2a7,7,0,0,0-7-7Z" fill="#fff"/><path d="M877.3,42.2h0m0,0-.07,30.25h-8.9v-11H844l0,11h-8.9l0-30.22H844V53.81h24.29l0-11.61h8.94m0-7h-8.95a7,7,0,0,0-7,7v4.63H851V42.2a7,7,0,0,0-7-7h-8.91a7,7,0,0,0-7,7l0,30.21a7,7,0,0,0,7,7H844a7,7,0,0,0,7-7l0-4h10.31v4a7,7,0,0,0,7,7h8.9a7,7,0,0,0,7-7l.07-30.06a1.48,1.48,0,0,0,0-.21,7,7,0,0,0-7-7Zm0,14h0Z" fill="#fff"/><path d="M912.16,42.17V64.35H942.9v8.07h-39V42.17h8.31m0-7h-8.31a7,7,0,0,0-7,7V72.42a7,7,0,0,0,7,7h39a7,7,0,0,0,7-7V64.35a7,7,0,0,0-7-7H919.16V42.17a7,7,0,0,0-7-7Z" fill="#fff"/><path d="M689.29,42.2l18,30.29H696.94l-5.26-8.91H666.62l-5.75,8.91h-9.32L669.16,42.2h20.13m-19.11,14H688.4L685,49.9H674.2l-4,6.3m19.11-21H669.16a7,7,0,0,0-6,3.49L645.5,69a7,7,0,0,0,6,10.52h9.32a7,7,0,0,0,5.88-3.2l3.68-5.71h17.25l3.24,5.47a7,7,0,0,0,6,3.44h10.38a7,7,0,0,0,6-10.58l-18-30.29a7,7,0,0,0-6-3.42Z" fill="#fff"/><path d="M765.6,42.27c4.5,0,9,4.4,9,8.94V56.1c0,4.12-3.47,7.34-7.42,7.9l7.94,8.45H764.35l-7.84-8.73H739.78v8.73h-8V42.27H765.6M739.75,56.86h23.3l.44,0a3.12,3.12,0,0,0,3-3.25,3.47,3.47,0,0,0-3.47-3.47H739.75v6.69M765.6,35.27H731.73a7,7,0,0,0-7,7V72.45a7,7,0,0,0,7,7h8a7,7,0,0,0,7-7V70.72h6.61l5.75,6.41a7,7,0,0,0,5.21,2.32h10.81a7,7,0,0,0,5.1-11.79l-2.09-2.22a14.54,14.54,0,0,0,3.47-9.34V51.21c0-8.34-7.65-15.94-16-15.94Z" fill="#fff"/><path d="M815.7,42.17a12.11,12.11,0,0,1,11.88,12h-8.49a4.91,4.91,0,0,0-4.68-3.57h-18a4.71,4.71,0,0,0-4.71,4.68v4.26a4.71,4.71,0,0,0,4.71,4.68h18a4.72,4.72,0,0,0,4.68-4.09h8.25c0,7.45-5.13,12.3-11.64,12.3H794a11.72,11.72,0,0,1-11.78-11.64v-7A11.72,11.72,0,0,1,794,42.17h21.7m0-7H794a18.73,18.73,0,0,0-18.78,18.64v7A18.73,18.73,0,0,0,794,79.45h21.7c10.62,0,18.64-8.29,18.64-19.3a7.07,7.07,0,0,0-.55-2.72,7.05,7.05,0,0,0,.79-3.24,19.21,19.21,0,0,0-18.88-19Z" fill="#fff"/><path d="M895.29,42.24V72.42h-8.63V42.24h8.63m0-7h-8.63a7,7,0,0,0-7,7V72.42a7,7,0,0,0,7,7h8.63a7,7,0,0,0,7-7V42.24a7,7,0,0,0-7-7Z" fill="#fff"/><path d="M983.26,42.2c1.29.21,9.64,1.88,9.6,14.66,0,13.62-9.39,15.49-9.39,15.49H949.38V42.2h33.88m-2.42,22.18s4.78-.14,4.74-7.41c-.06-6.07-2.63-6.45-4.71-6.83H957.59l0,14.17,23.22.07m2.42-29.18H949.38a7,7,0,0,0-7,7V72.35a7,7,0,0,0,7,7h34.09a7,7,0,0,0,1.37-.14c5.18-1,15-7,15-22.33,0-14.07-8.31-20.42-15.48-21.59a7,7,0,0,0-1.12-.09ZM964.6,57.14h14a1.85,1.85,0,0,0,0,.23l-14,0v-.19Z" fill="#fff"/><path d="M611,81.39l382,.21V107H611V81.39m0-7a7,7,0,0,0-7,7V107a7,7,0,0,0,7,7H993a7,7,0,0,0,7-7V81.6a7,7,0,0,0-7-7l-382-.21Z" fill="#fff"/><path id="path2431" d="M993,7.21v25.4h-382V7l382,.21"/><path id="path2491" d="M619.32,63.48v9h-8.26l0-30.35h38.76v8.11H619.55l0,6.23h29.23v7.18l-29.44-.21"/><path id="path2495" d="M713.76,72.45h8.64V42.2h-8.64Z"/><path id="path2499" d="M835.13,42.2l0,30.22H844l0-11h24.29v11h8.9l.07-30.25h-8.94l0,11.61H844V42.2h-8.91"/><path id="path2503" d="M903.85,42.17V72.42h39V64.35H912.16V42.17h-8.31"/><path id="path2507" d="M689.29,42.2H669.16L651.55,72.49h9.32l5.75-8.91h25.06l5.26,8.91h10.38Zm-19.11,14,4-6.3H685l3.4,6.3H670.18"/><path id="path2511" d="M765.87,63.9c.4,0-.38,0,0,0"/><path id="path2515" d="M767.22,64c3.95-.56,7.42-3.78,7.42-7.9V51.21c0-4.54-4.54-8.94-9-8.94H731.73V72.45h8V63.72h16.73l7.84,8.73h10.81Zm-4.17-7.14h-23.3V50.17h23.32a3.47,3.47,0,0,1,3.47,3.47,3.1,3.1,0,0,1-3.49,3.22"/><path id="path2519" d="M827.58,54.19h-8.49a4.91,4.91,0,0,0-4.68-3.57h-18a4.71,4.71,0,0,0-4.71,4.68v4.26a4.71,4.71,0,0,0,4.71,4.68h18a4.72,4.72,0,0,0,4.68-4.09h8.25c0,7.45-5.13,12.3-11.64,12.3H794a11.72,11.72,0,0,1-11.78-11.64v-7A11.72,11.72,0,0,1,794,42.17h21.7a12.11,12.11,0,0,1,11.88,12"/><path id="path2523" d="M886.66,72.42h8.63V42.24h-8.63Z"/><path id="path2527" d="M983.26,42.2H949.38V72.35h34.09s9.36-1.87,9.39-15.49C992.9,44.08,984.55,42.41,983.26,42.2Zm-2.42,22.18-23.22-.07,0-14.17h23.28c2.08.38,4.65.76,4.71,6.83,0,7.27-4.74,7.41-4.74,7.41"/><path id="path2531" d="M993,81.6V107H611V81.39l382,.21"/></g></svg>