<svg xmlns="http://www.w3.org/2000/svg" viewBox="0 0 1000 114"><title>logo_right</title><g id="Layer_2" data-name="Layer 2"><polygon points="724.82 33.98 734.16 33.98 734.16 81.59 702.78 81.59 702.78 99.64 737.16 99.64 737.16 85.38 761.49 85.38 761.49 100.58 830.89 100.58 830.89 81.59 818.16 81.59 818.16 33.98 835.82 33.98 835.82 13.42 724.82 13.42 724.82 33.98" fill="#fff"/><polygon points="900.49 15.31 900.49 45.83 893.66 45.83 893.66 64.64 886.2 64.64 886.2 81.59 875.82 81.59 875.82 96.64 938.82 96.64 938.82 83.43 945.49 83.43 945.49 64.64 962.49 64.64 962.49 45.83 970.66 45.83 970.66 15.31 900.49 15.31" fill="#fff"/></g><g id="Layer_1" data-name="Layer 1"><text transform="translate(886.2 104.74)" font-size="5.27" fill="red" stroke="#fff" stroke-linecap="round" stroke-linejoin="round" stroke-width="7" font-family="ArialMT, Arial" style="isolation:isolate">B<tspan x="3.52" y="0" letter-spacing="-0.07em">A</tspan><tspan x="6.64" y="0" letter-spacing="-0.02em">T</tspan><tspan x="9.77" y="0" letter-spacing="0em">OCER</tspan><tspan x="25.01" y="0" letter-spacing="-0.06em">A</tspan><tspan x="28.24" y="0" xml:space="preserve"> SUCKS!</tspan></text><path d="M676.88,110.5a3.5,3.5,0,0,1-2.45-6l48-47.13a3.48,3.48,0,0,1,2.45-1,3.55,3.55,0,0,1,.46,0,3.49,3.49,0,0,1,2.55,1.68l27.92,47.14a3.5,3.5,0,0,1-3,5.28Zm58.55-13.42-12.6-21.27L701.15,97.08Z"/><path d="M724.91,59.87,752.83,107h-76l48-47.13m-32.32,40.71h49l-18-30.4-31,30.4m32.32-47.71a7,7,0,0,0-4.9,2L672,102a7,7,0,0,0,4.9,12h76a7,7,0,0,0,6-10.57L730.94,56.3a7,7,0,0,0-6-3.43ZM709.72,93.58l12.37-12.15,7.2,12.15Z" fill="#fff"/><path d="M821.3,55.55a3.49,3.49,0,0,1-3-1.79L793,8.71a3.5,3.5,0,0,1,3-5.21h69.7a3.5,3.5,0,0,1,2.49,6l-44.43,45A3.5,3.5,0,0,1,821.3,55.55Zm2.2-19.86L842,16.92H813Z"/><path d="M865.74,7h0m0,0L821.3,52.05,796,7h69.7m-43,34.46,27.66-28H807l15.73,28M865.75,0H796a7,7,0,0,0-6.1,10.42L815.2,55.47A7,7,0,0,0,820.37,59a5.82,5.82,0,0,0,.93.07,7,7,0,0,0,5-2.09l44.36-45a7,7,0,0,0-4.9-12Zm0,14h0ZM819,20.42h14.7l-9.37,9.5L819,20.42Z" fill="#fff"/><path d="M764.61,110.5a3.47,3.47,0,0,1-3-1.74l-58.05-100a3.5,3.5,0,0,1,3-5.26h77.07a3.5,3.5,0,0,1,3,1.75l52.82,91.83h21.33l35.66-63.37h-21A3.5,3.5,0,0,1,873,27.79L895.15,4.58a3.51,3.51,0,0,1,2.53-1.08H993a3.5,3.5,0,0,1,3,5.25l-57.52,100a3.5,3.5,0,0,1-3,1.75ZM929.74,97.08l46.11-80.16H901.92l-3.22,3.37h14.73a3.5,3.5,0,0,1,3.05,5.22L876.21,97.08ZM824,97.08,777.89,16.92h-54.1l46.53,80.16Z"/><path d="M993,7h0m0,0L935.48,107H764.61L706.56,7h77.07l53.82,93.58h25.41l39.59-70.37h-27L897.68,7H993M890.51,23.79h22.92l-43.21,76.79h61.54L981.9,13.42H900.43l-9.92,10.37m-122.2,76.79h61.74L779.91,13.42h-62.2l50.6,87.16h0M993,0H897.68a7,7,0,0,0-5.06,2.16L870.44,25.37a7,7,0,0,0,5.06,11.84h15L858.76,93.58H841.5L789.69,3.51A7,7,0,0,0,783.63,0H706.56a7,7,0,0,0-6,10.51l58,100a7,7,0,0,0,6.05,3.49H935.48a7,7,0,0,0,6.07-3.51L999,10.65A7,7,0,0,0,993,0Zm0,14Zm-73.43,6.42H969.8L927.72,93.58H882.19l37.34-66.36a7,7,0,0,0,0-6.8Zm-189.7,0h46L818,93.58H772.34L729.87,20.42ZM913.43,30.79h0Z" fill="#fff"/><text transform="translate(886.2 104.74)" font-size="5.27" fill="red" font-family="ArialMT, Arial" style="isolation:isolate">B<tspan x="3.52" y="0" letter-spacing="-0.07em">A</tspan><tspan x="6.64" y="0" letter-spacing="-0.02em">T</tspan><tspan x="9.77" y="0" letter-spacing="0em">OCER</tspan><tspan x="25.01" y="0" letter-spacing="-0.06em">A</tspan><tspan x="28.24" y="0" xml:space="preserve"> SUCKS!</tspan></text><path d="M821.3,52.05,796,7h69.7ZM807,13.42l15.73,28,27.66-28ZM752.83,107h-76l48-47.13Zm-60.24-6.42h49l-18-30.4-31,30.4Z"/><path d="M897.68,7,875.5,30.21h27l-39.59,70.37H837.45L783.63,7H706.56l58.05,100H935.48L993,7ZM768.31,100.58l-50.6-87.16h62.2l50.14,87.16Zm163.45,0H870.22l43.21-76.79H890.51l9.92-10.37H981.9Z"/></g></svg>