<svg xmlns="http://www.w3.org/2000/svg" viewBox="0 0 1000 114"><title>logo</title><g id="Layer_2" data-name="Layer 2"><polygon points="389.88 33.98 399.22 33.98 399.22 81.59 367.84 81.59 367.84 99.64 402.22 99.64 402.22 85.38 426.55 85.38 426.55 100.58 495.95 100.58 495.95 81.59 483.22 81.59 483.22 33.98 500.88 33.98 500.88 13.42 389.88 13.42 389.88 33.98" fill="#fff"/><polygon points="565.55 15.31 565.55 45.83 558.72 45.83 558.72 64.64 551.26 64.64 551.26 81.59 540.88 81.59 540.88 96.64 603.88 96.64 603.88 83.43 610.55 83.43 610.55 64.64 627.55 64.64 627.55 45.83 635.72 45.83 635.72 15.31 565.55 15.31" fill="#fff"/></g><g id="Layer_1" data-name="Layer 1"><text transform="translate(551.26 104.74)" font-size="5.27" fill="red" stroke="#fff" stroke-linecap="round" stroke-linejoin="round" stroke-width="7" font-family="ArialMT, Arial" style="isolation:isolate">B<tspan x="3.52" y="0" letter-spacing="-0.07em">A</tspan><tspan x="6.64" y="0" letter-spacing="-0.02em">T</tspan><tspan x="9.77" y="0" letter-spacing="0em">OCER</tspan><tspan x="25.01" y="0" letter-spacing="-0.06em">A</tspan><tspan x="28.24" y="0" xml:space="preserve"> SUCKS!</tspan></text><path d="M341.94,110.5a3.5,3.5,0,0,1-2.45-6l48-47.13a3.48,3.48,0,0,1,2.45-1,3.44,3.44,0,0,1,.46,0A3.53,3.53,0,0,1,393,58.08l27.92,47.14a3.5,3.5,0,0,1-3,5.28Zm58.55-13.42-12.6-21.27L366.21,97.08Z"/><path d="M390,59.87,417.89,107H341.94l48-47.13m-32.32,40.71h49l-18-30.4-31,30.4M390,52.87a7,7,0,0,0-4.9,2L337,102a7,7,0,0,0,4.9,12h75.95a7,7,0,0,0,6-10.57L396,56.3a7,7,0,0,0-5.12-3.37,6.84,6.84,0,0,0-.91-.06ZM374.78,93.58l12.37-12.15,7.2,12.15Z" fill="#fff"/><path d="M486.37,55.55a3.59,3.59,0,0,1-.47,0,3.52,3.52,0,0,1-2.59-1.76l-25.26-45A3.5,3.5,0,0,1,461.1,3.5h69.7a3.5,3.5,0,0,1,2.49,6l-44.43,45A3.48,3.48,0,0,1,486.37,55.55Zm2.19-19.86,18.52-18.77H478Z"/><path d="M530.8,7h0m0,0L486.37,52.05,461.1,7h69.7m-43,34.46,27.66-28H472.06l15.73,28M530.81,0H461.1A7,7,0,0,0,455,10.42l25.26,45.05A7,7,0,0,0,485.43,59a6,6,0,0,0,.94.07,7,7,0,0,0,5-2.09l44.36-45a7,7,0,0,0-4.9-12Zm0,14h0ZM484,20.42h14.7l-9.37,9.5L484,20.42Z" fill="#fff"/><path d="M429.67,110.5a3.49,3.49,0,0,1-3-1.74l-58-100a3.5,3.5,0,0,1,3-5.26h77.06a3.5,3.5,0,0,1,3,1.75l52.82,91.83h21.33l35.66-63.37h-21A3.5,3.5,0,0,1,538,27.79L560.21,4.58a3.51,3.51,0,0,1,2.53-1.08h95.32a3.5,3.5,0,0,1,3,5.25l-57.52,100a3.5,3.5,0,0,1-3,1.75ZM594.8,97.08l46.11-80.16H567l-3.22,3.37h14.73a3.5,3.5,0,0,1,3,5.22L541.27,97.08Zm-105.74,0L443,16.92h-54.1l46.53,80.16Z"/><path d="M658.06,7h0m0,0L600.54,107H429.67l-58-100h77.06l53.82,93.58h25.41l39.59-70.37h-27L562.74,7h95.32M555.57,23.79h22.92l-43.21,76.79h61.55L647,13.42H565.49l-9.92,10.37m-122.2,76.79h61.74L445,13.42h-62.2l50.6,87.16h0M658.06,0H562.74a7,7,0,0,0-5.06,2.16L535.5,25.37a7,7,0,0,0,5.06,11.84h15L523.82,93.58H506.56L454.75,3.51A7,7,0,0,0,448.69,0H371.63a7,7,0,0,0-6.06,10.51l58.05,100a7,7,0,0,0,6.05,3.49H600.54a7,7,0,0,0,6.07-3.51L664,10.65a7,7,0,0,0-6-10.65Zm0,14Zm-73.43,6.42h50.23L592.78,93.58H547.25l37.34-66.36a7,7,0,0,0,0-6.8Zm-189.7,0h46L483,93.58H437.4L394.93,20.42ZM578.49,30.79h0Z" fill="#fff"/><text transform="translate(551.26 104.74)" font-size="5.27" fill="red" font-family="ArialMT, Arial" style="isolation:isolate">B<tspan x="3.52" y="0" letter-spacing="-0.07em">A</tspan><tspan x="6.64" y="0" letter-spacing="-0.02em">T</tspan><tspan x="9.77" y="0" letter-spacing="0em">OCER</tspan><tspan x="25.01" y="0" letter-spacing="-0.06em">A</tspan><tspan x="28.24" y="0" xml:space="preserve"> SUCKS!</tspan></text><path d="M486.37,52.05,461.1,7h69.7ZM472.06,13.42l15.73,28,27.66-28ZM417.89,107H341.94l48-47.13Zm-60.24-6.42h49l-18-30.4-31,30.4Z"/><path d="M562.74,7,540.56,30.21h27l-39.59,70.37H502.51L448.69,7H371.63l58,100H600.54L658.06,7ZM433.37,100.58l-50.6-87.16H445l50.14,87.16Zm163.46,0H535.28l43.21-76.79H555.57l9.92-10.37H647Z"/></g></svg>