<svg id="Layer_1" data-name="Layer 1" xmlns="http://www.w3.org/2000/svg" viewBox="0 0 1000 114"><path d="M487.42,67.31c-3,0-5.76-.24-7.65-3.13-.29-.45-.77-1.2-2.39-7.17l-.46-1.68c-4.15-15.29-6.23-23-7.22-26.88s-1.38-5.42-.19-7.16c1.36-2.13,3.8-2.15,6.63-2.17,5.85,0,10.64-1.67,19.71-6.73,10.08-5.62,14.55-7.53,19.93-8.49a23.42,23.42,0,0,1,4.74-.4h1.07c3.38,0,5.25.06,7.28,2.77.49.67.73,1,6,20.2C540,45.53,540,46.21,540,46.75a4.68,4.68,0,0,1-1.86,3.79,4.91,4.91,0,0,1-3.28,1.13h0c-.3,0-.67,0-1.16-.06-.25,0-.53,0-.83,0a29.66,29.66,0,0,0-5.34.54C523.85,52.87,519,55,512,58.9,500.22,65.43,494.71,67.31,487.42,67.31Zm13.14-15.8c1.49-.78,3.11-1.64,4.09-2.19l0,0-.82-3c-1.35.74-3,1.61-4.1,2.17C500,49.39,500.28,50.47,500.56,51.51ZM486,42.59l.7,2.59c.79-.11,1.55-.23,2-.33.7-.15,1.62-.41,2.48-.67-.36-1.36-.8-3-1.18-4.42a44.92,44.92,0,0,1-4.46,1C485.65,41.3,485.81,41.9,486,42.59Zm36.18-1.76A37.58,37.58,0,0,1,526,40l-.87-3.21c-1.12.17-2.54.45-3.84.78C521.3,37.69,522,40.35,522.17,40.83Zm-13.75-5.39c1.27-.68,2.78-1.47,3.94-2l.25-.13-.73-2.71c-.16-.59-.3-1.11-.43-1.56-1.43.73-3,1.56-4.17,2.18ZM494,27.06c.18.67.39,1.47.64,2.37l.14.56c1.39-.73,3-1.59,4.15-2.26-.17-.64-.37-1.43-.62-2.37-.05-.17-.09-.33-.13-.49-1.17.65-2.58,1.38-3.71,1.95Zm22.31-7.74a37.1,37.1,0,0,1,3.89-.84l-.83-3.06c-1.21.19-2.67.49-3.9.79Z" fill="#333"/><path d="M520.52,7h1c3.33,0,3.6.12,4.54,1.37.43.58,10.47,37.36,10.47,38.37a1.23,1.23,0,0,1-.53,1,1.42,1.42,0,0,1-1.11.38c-.23,0-.52,0-.9-.05s-.69,0-1.09,0a33.62,33.62,0,0,0-6,.61c-4.07.82-9.17,3-16.61,7.15-11.18,6.21-16.2,8-22.84,8-2.95,0-3.91-.31-4.71-1.54a40.93,40.93,0,0,1-2-6.18c-8.81-32.49-8.75-32.24-8.34-32.84s1-.61,3.75-.63c6.49,0,11.73-1.78,21.4-7.17s13.93-7.23,18.83-8.11A20.32,20.32,0,0,1,520.52,7M514,23.57a7.78,7.78,0,0,0,1.7-.42,34.16,34.16,0,0,1,7.25-1.49c1-.05,1.72-.11,1.72-.13s-.61-2.23-1.35-4.91l-1.33-4.88-.56,0h-.17a37,37,0,0,0-9.68,2.07c-.29.16-.22.64.92,4.83.68,2.56,1.29,4.74,1.33,4.88s.07.07.17.07M492.46,35.05l2.36-1.17c2.74-1.37,7.88-4.22,8-4.46a50.28,50.28,0,0,0-1.19-5c-.72-2.63-1.36-4.79-1.42-4.79h0s-1.07.59-2.26,1.27-3.46,1.94-5.08,2.74a14.77,14.77,0,0,0-2.93,1.72c0,.11.56,2.34,1.27,4.94l1.25,4.71m13.83,5.38a11,11,0,0,0,2.42-1.16c1.29-.72,3.62-2,5.18-2.72l2.86-1.38-1.49-5.51c-1-3.68-1.56-5.51-1.74-5.51s-7.17,3.49-9,4.61l-1.27.76,1.45,5.37c.78,3,1.51,5.45,1.6,5.53h0m13.49,4.73a18,18,0,0,0,1.77-.5,34.69,34.69,0,0,1,6.9-1.44L530.4,43l-1.13-4.2c-.62-2.3-1.23-4.53-1.33-4.94l-.21-.73-1.12,0a33.77,33.77,0,0,0-6.87,1.24c-3,.87-2.9.21-1.37,5.84.74,2.67,1.37,4.88,1.39,4.92h0M484.24,49a42.68,42.68,0,0,0,5.21-.7c2-.43,5.86-1.68,5.86-1.9s-2.46-9.4-2.85-10.74c-.06-.19-.08-.29-.23-.29a5.6,5.6,0,0,0-1.12.38,33.64,33.64,0,0,1-9.17,1.92c-.66,0-.91.08-.85.23s.74,2.68,1.52,5.63,1.46,5.41,1.48,5.45a.36.36,0,0,0,.15,0m14.08,7.57c.21,0,5.83-2.91,8.05-4.17L508.75,51l-1.05-3.9c-.59-2.15-1.19-4.38-1.35-5a2.59,2.59,0,0,0-.44-1h0c-.08,0-1.44.76-3.07,1.68s-3.87,2.11-5,2.65a8,8,0,0,0-2.11,1.25c0,.2,2.54,9.68,2.62,9.77h0M520.52,0a27.15,27.15,0,0,0-5.39.46c-5.8,1-10.52,3-21,8.88-9.52,5.31-13.4,6.25-18,6.28-3.17,0-7.11.05-9.54,3.76-2,3-1.33,5.77-.27,9.93,1,3.95,3.08,11.63,7.23,26.94l.46,1.68c1.76,6.5,2.34,7.39,2.84,8.16,3.08,4.72,8,4.72,10.58,4.72,8.82,0,15.23-2.73,26.24-8.85,6.66-3.71,11.3-5.74,14.59-6.41a26.87,26.87,0,0,1,4.66-.47c.31,0,.48,0,.54,0,.48,0,1,.07,1.45.07a8.39,8.39,0,0,0,5.49-1.91,8.17,8.17,0,0,0,3.15-6.51c0-1.09,0-1.69-5.32-21.19C532.8,5.72,532.64,5.5,531.71,4.24l0-.06C528.6.09,525.21.05,521.62,0Z" fill="#fff"/><path d="M486.58,110.5a6.45,6.45,0,0,1-5.77-3.46C480,105.56,460,26.11,460,24.52a6.68,6.68,0,0,1,4.14-6.14,6.2,6.2,0,0,1,2.28-.43,7,7,0,0,1,5.55,2.73c.48.68.84,1.2,11.17,42s10.27,41.39,10.11,42.34a6.61,6.61,0,0,1-6.63,5.47Z" fill="#333"/><path d="M466.38,21.45a3.48,3.48,0,0,1,2.71,1.27c.58.84,20.83,80.8,20.67,81.72a3.13,3.13,0,0,1-3.18,2.56,2.9,2.9,0,0,1-2.66-1.57c-.49-.93-20.46-79.94-20.46-80.91a3.19,3.19,0,0,1,2-2.89,2.61,2.61,0,0,1,1-.18m0-7a9.53,9.53,0,0,0-3.57.68,10.23,10.23,0,0,0-6.35,9.39c0,1.1,0,1.6,10.26,42.19s10.51,41,11,42a9.91,9.91,0,0,0,8.87,5.33,10.11,10.11,0,0,0,10.09-8.42c.29-1.73.27-1.81-3.19-15.86-1.83-7.38-4.31-17.28-7-27.89C476,20.4,475.78,20.07,474.83,18.71l-.05-.07a10.46,10.46,0,0,0-8.4-4.19Z" fill="#fff"/><path d="M516.39,7.34c-4.9.88-9.1,2.68-18.83,8.11s-14.91,7.13-21.4,7.17c-2.7,0-3.44.14-3.75.63s-.47.35,8.34,32.84a40.93,40.93,0,0,0,2,6.18c.8,1.23,1.76,1.54,4.71,1.54,6.64,0,11.66-1.76,22.84-8,7.44-4.14,12.54-6.33,16.61-7.15a31.55,31.55,0,0,1,7.13-.57c1.31.1,1.52.06,2-.33a1.23,1.23,0,0,0,.53-1c0-1-10-37.79-10.47-38.37-.94-1.25-1.21-1.33-4.54-1.37A23.24,23.24,0,0,0,516.39,7.34Zm6.88,9.28c.74,2.68,1.33,4.89,1.35,4.91s-.76.08-1.72.13a34.16,34.16,0,0,0-7.25,1.49c-1.25.39-1.82.51-1.87.35s-.65-2.32-1.33-4.88c-1.14-4.19-1.21-4.67-.92-4.83a36.23,36.23,0,0,1,9.85-2.07l.56,0Zm-21.63,7.84a50.28,50.28,0,0,1,1.19,5c-.13.24-5.27,3.09-8,4.46l-2.36,1.17-1.25-4.71c-.71-2.6-1.27-4.83-1.27-4.94a14.77,14.77,0,0,1,2.93-1.72c1.62-.8,3.91-2,5.08-2.74s2.21-1.27,2.26-1.27S500.92,21.82,501.64,24.46Zm13.62,5.2,1.49,5.51-2.86,1.38c-1.56.77-3.89,2-5.18,2.72a8.76,8.76,0,0,1-2.46,1.15c-.09-.08-.82-2.58-1.6-5.53l-1.45-5.37,1.27-.76c1.88-1.12,8.74-4.61,9-4.61S514.26,26,515.26,29.66Zm12.68,4.2c.1.41.71,2.64,1.33,4.94L530.4,43l-1.95.22a34.69,34.69,0,0,0-6.9,1.44,11.42,11.42,0,0,1-1.79.49s-.65-2.25-1.39-4.92c-1.53-5.63-1.68-5,1.37-5.84a33.77,33.77,0,0,1,6.87-1.24l1.12,0Zm-35.48,1.76c.39,1.34,2.85,10.59,2.85,10.74s-3.87,1.47-5.86,1.9a35,35,0,0,1-5.36.68s-.68-2.5-1.48-5.45-1.47-5.49-1.52-5.63.19-.23.85-.23a33.64,33.64,0,0,0,9.17-1.92C492.36,35.23,492.34,35.23,492.46,35.62Zm13.89,6.54c.16.57.76,2.8,1.35,5l1.05,3.9-2.38,1.35c-2.25,1.27-8,4.24-8.05,4.16S495.7,47,495.7,46.75a8,8,0,0,1,2.11-1.25c1.15-.54,3.42-1.76,5-2.65s3-1.68,3.07-1.68S506.17,41.62,506.35,42.16Z" fill="#333"/><path d="M465.41,21.63a3.19,3.19,0,0,0-2,2.89c0,1,20,80,20.46,80.91a3.17,3.17,0,0,0,5.84-1c.16-.92-20.09-80.88-20.67-81.72A3.42,3.42,0,0,0,465.41,21.63Z" fill="#333"/></svg>