<svg id="Layer_1" data-name="Layer 1" xmlns="http://www.w3.org/2000/svg" viewBox="0 0 100 100"><title>game_info_publisher</title><path d="M17,38h6V32H17Zm24-6h6V26H41Zm12,0h6V26H53Zm12,0h6V26H65ZM41,20h6V14H41Zm12,0h6V14H53Zm12,0h6V14H65ZM41,56h6V50H41Zm12,0h6V50H53Zm12,0h6V50H65ZM41,68h6V62H41Zm24,0h6V62H65ZM41,80h6V74H41Zm24,0h6V74H65Zm18-6h6V68H83Zm0-18v6h6V56Zm0,30h6V80H83ZM41,44h6V38H41Zm12,0h6V38H53Zm12,0h6V38H65ZM17,50h6V44H17Zm0,12h6V56H17Zm0,12h6V68H17Zm0,12h6V80H17ZM53,68h6V62H53Z" fill="#fff"/><path d="M95,92a5.99643,5.99643,0,0,1-6,6H11a5.99643,5.99643,0,0,1-6-6V26a5.99643,5.99643,0,0,1,6-6H29V8a5.99643,5.99643,0,0,1,6-6H77a5.99643,5.99643,0,0,1,6,6V44h6a5.99643,5.99643,0,0,1,6,6ZM29,26H11V92H29ZM77,8H35V92H53V74h6V92H77ZM89,50H83V92h6Z" fill="#fff" fill-rule="evenodd"/></svg>