<svg id="svg2" xmlns="http://www.w3.org/2000/svg" viewBox="0 0 671.87038 476.96143"><title>controller</title><g id="path3209"><path d="M66.76118,73.94116c11.7647-47.05881,46.27451-59.60785,90.19607-45.4902S68.3298,73.94116,66.76118,73.94116Z" transform="translate(0 -0.8501)" fill="#d0d0d0"/><path d="M66.76139,74.09131H66.5695l.04639-.18652c5.30273-21.21045,15.34765-36.05518,29.85546-44.1211a58.22,58.22,0,0,1,27.48487-6.937c10.05713-.188,21.17529,1.64551,33.04687,5.46191,6.42774,2.06592,9.44629,4.64942,8.97119,7.6792-1.27148,8.11035-27.91748,18.022-50.04687,24.90821C91.82878,68.395,67.54606,74.09131,66.76139,74.09131Zm58.59766-51.001c-10.79541,0-20.40186,2.31885-28.7417,6.95557-14.3833,7.99658-24.35986,22.70264-29.65576,43.71435,2.42578-.45459,25.33105-5.81836,48.978-13.18212,31.61572-9.84522,48.8164-18.377,49.74365-24.67237.41943-2.84619-2.53223-5.30615-8.772-7.312C145.49674,24.9248,134.95719,23.09033,125.35905,23.09033Z" transform="translate(0 -0.8501)"/></g><path d="M106.43132,31.57959h2.1748v15.021h7.19824v1.8247h-9.373Z" transform="translate(0 -0.8501)" fill="#b7b7b7"/><g id="path3273"><path d="M604.30447,73.94116c-11.76471-47.05881-46.27454-59.60785-90.19605-45.4902S602.73587,73.94116,604.30447,73.94116Z" transform="translate(0 -0.8501)" fill="#d0d0d0"/><path d="M604.49723,74.09131h-.19238c-.78418,0-25.06836-5.69629-49.166-13.19531C533.009,54.00977,506.36247,44.09814,505.091,35.98779c-.47461-3.02978,2.54395-5.61328,8.97168-7.6792,11.87207-3.81591,22.98828-5.6499,33.04688-5.46191a58.2219,58.2219,0,0,1,27.48535,6.937c14.50781,8.06592,24.55273,22.91065,29.85547,44.1211Zm-58.791-51.001q-14.398,0-31.55176,5.50342c-6.24023,2.00586-9.19141,4.46582-8.77246,7.3125.92773,6.29541,18.1289,14.82666,49.74414,24.67188,23.64844,7.36425,46.55273,12.72753,48.97851,13.18212-5.29589-21.01171-15.27246-35.71777-29.65625-43.71435C566.10954,25.40967,556.50114,23.09033,545.70622,23.09033Z" transform="translate(0 -0.8501)"/></g><path d="M553.43376,32.53955a22.675,22.675,0,0,1,4.17382-.34961c2.32422,0,3.82422.42481,4.874,1.37451a4.196,4.196,0,0,1,1.32422,3.19922A4.42245,4.42245,0,0,1,560.632,41.0625v.0752c1.2998.4497,2.07422,1.64941,2.47461,3.39892a26.73745,26.73745,0,0,0,1.2998,4.624h-2.25a21.92052,21.92052,0,0,1-1.125-4.02392c-.499-2.32471-1.39941-3.19922-3.374-3.27442h-2.04883v7.29834h-2.1748Zm2.1748,7.67334h2.22363c2.3252,0,3.79981-1.2749,3.79981-3.19922,0-2.17431-1.5752-3.12451-3.874-3.14941a8.93316,8.93316,0,0,0-2.14942.20019Z" transform="translate(0 -0.8501)" fill="#b7b7b7"/><g id="path2516"><path d="M667.91711,180.09653c8.9309,120.63318,1.70058,205.96863-17.25593,254.41955-27.74528,70.914-73.50248,42.55719-89.309-.60321-10.811-29.52-13.09859-146.56927-13.694-155.01361S668.51249,180.69971,667.91711,180.09653Z" transform="translate(0 -0.8501)" fill="#3c3760"/><path d="M607.73649,477.81152c-.10449,0-.208-.001-.3125-.00195-9.15234-.10059-18.49219-4.585-27.00684-12.96875C572.45231,457,565.631,446.03418,561.2111,433.96484c-9.19824-25.11621-12.17676-111.918-13.29785-144.59472-.19043-5.53809-.31543-9.19629-.4043-10.46-.44922-6.35938,65.42676-56.708,100.81641-83.75733,10.957-8.374,18.91894-14.45947,19.43945-15.083l-.02734-.36865.334.33838-.00293.07471v.00049c8.56543,115.70849,2.59375,203.69189-17.26758,254.45556C636.84782,470.23438,619.74137,477.81055,607.73649,477.81152Zm60.05566-297.37109c-1.10058,1.03125-5.7832,4.63232-19.28417,14.95068-32.82813,25.09034-101.1377,77.29932-100.7002,83.49756.08984,1.26953.21484,4.92969.40527,10.47071,1.01368,29.53906,4.09864,119.43164,13.2793,144.502,4.40527,12.02832,11.20117,22.95508,19.13477,30.7666,8.459,8.32812,17.72656,12.78223,26.80078,12.88184.10156.001.20605.001.30859.001,11.91113.001,28.8916-7.53906,42.78516-43.0498C670.34782,383.78613,676.3195,295.94727,667.79215,180.44043Z" transform="translate(0 -0.8501)"/></g><path id="path3275" d="M495.25546,29.87286c2.06146-4.06634,6.217-3.84472,16.9906-3.45053,28.49859,1.0427,73.20648,20.4867,85.05023,29.88459,7.84424,6.22433,8.673,10.40042,5.47668,18.62179Z" transform="translate(0 -0.8501)" fill="#364ec6"/><g id="path3211"><path d="M71.46706,71.58823,154.644,268.451c63.27-35.511,140.38241-47.05881,181.529-47.05881s117.82959,11.30679,181.529,47.05881L600.87881,71.58823C507.99227,17.96014,396.17294,1,336.17294,1c-31.84342,0-78.459,4.87894-128.9894,17.42078C162.50352,29.51053,114.76271,46.59149,71.46706,71.58823Z" transform="translate(0 -0.8501)" fill="#463f6f"/><path d="M517.77555,268.66406l-.14648-.082c-66.15918-37.13281-145.18945-47.04-181.45606-47.04-36.26709,0-115.29736,9.90723-181.45556,47.04l-.146.082-.06543-.15429L71.277,71.5249l.11474-.0664c39.28711-22.68262,84.96192-40.57569,135.75586-53.18311C251.76383,7.20117,298.79167.8501,336.173.8501c34.78614,0,78.544,5.53564,120.05469,15.1875A592.45805,592.45805,0,0,1,528.82243,37.794,480.44386,480.44386,0,0,1,600.95426,71.4585l.11426.0664-.05176.12207ZM71.6569,71.65186,154.717,268.23828c28.13281-15.76758,62.34521-28.48389,98.95459-36.77978,28.65381-6.49268,58.72412-10.21631,82.50146-10.21631,23.8584,0,53.87012,3.69092,82.33985,10.126,36.54883,8.26123,70.81738,21.00879,99.11621,36.87012L600.68962,71.65186C504.22673,15.99658,389.04508,1.1499,336.173,1.1499c-37.35791,0-84.35986,6.34815-128.95312,17.41651C156.5026,31.15479,110.89323,49.01514,71.6569,71.65186Z" transform="translate(0 -0.8501)"/></g><path id="path3610" d="M239.29293,234.02322c64.995-17.43954,123.35627-20.24481,183.06485-.92651l3.20655-1.92129c-49.397-24.06736-130.89875-21.76865-186.95639.56118Z" transform="translate(0 -0.8501)" fill="#524c82"/><path id="path3319" d="M71.46706,72.37256l53.373-16.336c63.27-35.511,170.97064-47.05881,212.11722-47.05881S480.66921,20.28448,544.36856,56.03653l56.51025,16.336C507.99227,18.74448,396.17294,1.78432,336.17294,1.78432c-31.84342,0-78.459,4.879-128.9894,17.42079C162.50352,30.29486,114.76271,47.37579,71.46706,72.37256Z" transform="translate(0 -0.8501)" fill="#524c82"/><g id="path3241"><path d="M4.00294,180.09653C-5.04455,300.72971,2.28016,386.06516,21.48415,434.51608c28.10749,70.914,74.462,42.55719,90.47487-.60321,10.95218-29.52,13.26964-146.56927,13.87282-155.01361S3.39978,180.69971,4.00294,180.09653Z" transform="translate(0 -0.8501)" fill="#3c3760"/><path d="M64.96891,477.81152c-12.16259,0-29.48828-7.57617-43.62451-43.24023C1.2238,383.80762-4.82552,295.82422,3.85124,180.11475v-.00049l-.00489-.06836.33643-.34082-.02734.36426c.52978.62548,8.59472,6.71,19.69336,15.08349,35.85205,27.04883,102.58691,77.397,102.13232,83.75733-.09033,1.26464-.21729,4.92675-.41016,10.4707-1.13623,32.6748-4.15429,119.4707-13.47119,144.584-4.47754,12.06836-11.38623,23.03321-19.45361,30.874-8.62451,8.38281-18.0835,12.86816-27.354,12.9707C65.18522,477.81055,65.07633,477.81152,64.96891,477.81152ZM4.12809,180.437C-4.51058,295.94434,1.53776,383.78516,21.6237,434.46c14.07275,35.50586,31.27685,43.05078,43.34521,43.05078.10791,0,.21338,0,.32032-.001,9.19189-.10157,18.57959-4.55762,27.14794-12.88575,8.03614-7.81152,14.919-18.73632,19.38135-30.76269,9.3003-25.06836,12.42578-114.9541,13.45264-144.49121.19287-5.54688.32031-9.21192.41113-10.48145.44287-6.19726-68.7583-58.40625-102.01416-83.49658C9.97575,185.062,5.23649,181.46436,4.12809,180.437Z" transform="translate(0 -0.8501)"/></g><g id="path3263"><path d="M605.202,284.08115c-37.61609,20.67639-65.67,34.69128-75.68555,72.78265s-42.9378,62.17535-81.971,62.17535A85.08615,85.08615,0,0,1,382.14706,279.508c12.29843-14.7569,43.04547-34.93158,43.04547-102.03745A121.56864,121.56864,0,1,1,605.202,284.08115Z" transform="translate(0 -0.8501)" fill="#4e477c"/><path d="M447.54508,419.18945a85.23631,85.23631,0,0,1-65.51367-139.77734c1.82324-2.18848,4-4.44141,6.52051-7.05078,14.53125-15.043,36.49023-37.77686,36.49023-94.89063A121.71924,121.71924,0,1,1,605.27458,284.21289l-.07227-.13184.07227.13184q-2.26465,1.24365-4.4834,2.459c-35.72168,19.582-61.53223,33.73046-71.12891,70.23046a82.23047,82.23047,0,0,1-30.16015,45.45313C484.83415,413.36816,466.86735,419.18945,447.54508,419.18945ZM546.7609,56.05176a121.55587,121.55587,0,0,0-121.418,121.41894c0,25.23047-4.23731,45.99756-12.95313,63.48731-7.36621,14.7832-16.37988,24.11426-23.62207,31.6123-2.5166,2.60449-4.68945,4.85352-6.50586,7.03321a84.93689,84.93689,0,0,0,65.2832,139.28515c39.79395,0,71.91309-24.36035,81.82618-62.0625a79.78785,79.78785,0,0,1,25.99511-41.67969c12.19141-10.59863,27.52539-19.00488,45.28125-28.7373q2.21778-1.21582,4.48243-2.46A121.42505,121.42505,0,0,0,546.7609,56.05176Z" transform="translate(0 -0.8501)"/></g><g id="path3187"><path d="M65.57524,284.08115c37.61612,20.67639,65.67,34.69128,75.68554,72.78265s42.93781,62.17535,81.971,62.17535A85.08615,85.08615,0,0,0,288.63018,279.508c-12.2984-14.7569-43.04547-34.93158-43.04547-102.03745A121.56863,121.56863,0,1,0,65.57524,284.08115Z" transform="translate(0 -0.8501)" fill="#4e477c"/><path d="M223.23161,419.18945c-19.32227,0-37.28906-5.82129-51.957-16.834a82.22815,82.22815,0,0,1-30.15869-45.45313c-9.59717-36.5-35.40723-50.64843-71.12989-70.23046q-2.21776-1.21582-4.48291-2.459A121.71125,121.71125,0,1,1,245.73454,177.4707c0,57.11328,21.95947,79.84668,36.49023,94.89063,2.52051,2.60937,4.69678,4.8623,6.52051,7.05078a85.23631,85.23631,0,0,1-65.51367,139.77734ZM124.01628,56.05176A121.42488,121.42488,0,0,0,65.64762,283.94922q2.26466,1.24512,4.48243,2.46c17.75585,9.73242,33.08984,18.13867,45.28125,28.7373a79.79008,79.79008,0,0,1,25.99462,41.67969c9.91358,37.70215,42.03174,62.0625,81.82569,62.0625a84.936,84.936,0,0,0,65.2832-139.28515c-1.81641-2.17969-3.98974-4.42872-6.50586-7.03418-7.24219-7.49707-16.25537-16.82813-23.62207-31.61231-8.71582-17.48926-12.95215-38.25586-12.95215-63.48633A121.55629,121.55629,0,0,0,124.01628,56.05176Z" transform="translate(0 -0.8501)"/></g><path id="path3191" d="M205.654,177.47057a81.6379,81.6379,0,1,1-81.6379-81.63789A81.63788,81.63788,0,0,1,205.654,177.47057Z" transform="translate(0 -0.8501)" fill="#524c82"/><path id="path3193" d="M280.6001,333.94114a57.36835,57.36835,0,1,1-114.7367.04382q0-.0219,0-.04382a57.36835,57.36835,0,1,1,114.7367-.04382Z" transform="translate(0 -0.8501)" fill="#44416d"/><path id="path3199" d="M474.85921,177.47057a74.25491,74.25491,0,1,0,74.25491-74.25492A74.25489,74.25489,0,0,0,474.85921,177.47057Z" transform="translate(0 -0.8501)" fill="#524c82"/><path id="path3203" d="M509.04349,177.47057a40.07065,40.07065,0,1,0,40.07065-40.07066A40.07065,40.07065,0,0,0,509.04349,177.47057Z" transform="translate(0 -0.8501)"/><path id="path3203-2" data-name="path3203" d="M509.82919,177.47057a39.285,39.285,0,1,0,39.285-39.285A39.28495,39.28495,0,0,0,509.82919,177.47057Z" transform="translate(0 -0.8501)" fill="#42c7c3"/><path id="path3207" d="M353.34944,180.60787a16,16,0,0,1-32,.03154v-.03154a16,16,0,1,1,32-.03155Z" transform="translate(0 -0.8501)"/><path id="path3207-2" data-name="path3207" d="M353.03571,180.60787a15.68627,15.68627,0,1,1-31.37253.03092v-.03092a15.68627,15.68627,0,1,1,31.37253-.03093Z" transform="translate(0 -0.8501)" fill="#d3d3d3"/><g id="path3232"><path d="M556.31369,111.1366c17.22369-.54917,15.03625-22.30655-.237-27.1041s-39.84876-1.05218-51.17157,11.64487-1.04255,31.65228,11.01684,25.44372S539.08993,111.68576,556.31369,111.1366Z" transform="translate(0 -0.8501)" fill="#d3d3d3"/><path d="M511.20036,122.82275a10.52268,10.52268,0,0,1-8.34766-4.416c-4.25586-5.49512-5.11328-15.44531,1.67969-23.0625,11.50586-12.90186,36.47754-16.56885,51.69336-11.78858,9.02246,2.834,13.46582,11.4375,12.55078,18.11768-.8252,6.0166-5.47754,9.74072-12.44727,9.96289h0c-16.02636.51074-27.291,3.29492-40.17871,9.9292A10.785,10.785,0,0,1,511.20036,122.82275Zm30.43847-40.2915c-13.30859,0-28.25878,4.39453-36.36035,13.479-6.43359,7.21387-5.64355,16.60791-1.63476,21.78418,3.15039,4.06739,7.65429,5.14453,12.0498,2.88233,13.03125-6.709,24.416-9.52393,40.60449-10.03955h0c6.44043-.20557,10.73438-3.60742,11.48731-9.09961.85937-6.269-3.3418-14.35254-11.8584-17.02783A48.43735,48.43735,0,0,0,541.63883,82.53125Z" transform="translate(0 -0.8501)"/></g><path id="path3258" d="M172.64353,177.47058a48.62745,48.62745,0,1,1-48.62745-48.62745A48.62744,48.62744,0,0,1,172.64353,177.47058Z" transform="translate(0 -0.8501)" fill="#ccc" stroke="#000" stroke-linecap="round" stroke-linejoin="round"/><path id="path3295" d="M162.98572,177.47057a38.96964,38.96964,0,1,1-38.96964-38.96964A38.96963,38.96963,0,0,1,162.98572,177.47057Z" transform="translate(0 -0.8501)" fill="none" stroke="#797979" stroke-miterlimit="10"/><path id="path3297" d="M151.43442,177.47058a27.41834,27.41834,0,1,1-27.41834-27.41834A27.41833,27.41833,0,0,1,151.43442,177.47058Z" transform="translate(0 -0.8501)" fill="none" stroke="#797979" stroke-linecap="round" stroke-linejoin="round" stroke-width="8.86769"/><path id="path3301" d="M137.5799,177.47059a13.56383,13.56383,0,1,1-13.56382-13.56383A13.56382,13.56382,0,0,1,137.5799,177.47059Z" transform="translate(0 -0.8501)" fill="none" stroke="#797979" stroke-linecap="round" stroke-linejoin="round" stroke-width="15"/><path id="text3303" d="M549.10726,167.34518l-2.91211,10.44532h5.82422l-2.91211-10.44532m-1.668-2.43359h3.3496L557.037,185.3237h-2.85742l-1.50391-5.31836h-7.15039l-1.47656,5.31836h-2.85742l6.24805-20.41211" transform="translate(0 -0.8501)" fill="#3faaa2"/><path id="text3311" d="M525.51187,88.82315h2.93945l4.97656,9.00977,4.96289-9.00977h2.9668l-6.54883,11.252v9.16016h-2.77539V100.0751l-6.52148-11.252" transform="translate(0 -0.8501)" fill="#b7b7b7"/><g id="path3237"><path d="M618.10177,181.66223c.82074,17.213,22.54089,14.68265,27.097-.66434s.42364-39.86038-12.45038-50.98156-31.6648-.54334-25.26685,11.41665S617.28109,164.44931,618.10177,181.66223Z" transform="translate(0 -0.8501)" fill="#d3d3d3"/><path d="M629.30778,194.06592a12.94268,12.94268,0,0,1-1.54785-.0918c-6.02832-.73-9.82617-5.32373-10.15723-12.28808-.76367-16.01563-3.72461-27.23536-10.56152-40.01709-2.53906-4.74561-1.40918-9.85938,2.94824-13.34571,5.42481-4.34326,15.36035-5.35791,23.08594,1.31446,13.082,11.30175,17.1416,36.21337,12.60254,51.50244C643.19059,189.51953,635.71208,194.06592,629.30778,194.06592Zm-8.81445-68.22119a15.95863,15.95863,0,0,0-9.87989,3.25927c-4.0166,3.21387-5.02246,7.73487-2.6914,12.09327,6.91406,12.9248,9.9082,24.26367,10.67871,40.44091.30762,6.43653,3.77637,10.67676,9.2793,11.34278,6.27929.76562,14.29785-3.56641,16.83886-12.125,4.45215-14.99658.49707-39.40821-12.29785-50.46143A18.13259,18.13259,0,0,0,620.49333,125.84473Z" transform="translate(0 -0.8501)"/></g><path id="text3315" d="M623.07669,148.81961h2.96679l4.48438,7.69727,4.5664-7.69727h2.9668l-6.11133,9.59766,6.54883,10.81445h-2.9668l-5.0039-8.791-5.40039,8.791H622.147l6.83594-10.81445-5.90625-9.59766" transform="translate(0 -0.8501)" fill="#b7b7b7"/><g id="rect3249"><path d="M211.263,287.17551a3.43291,3.43291,0,0,0-3.59375,3.28125V318.363H179.763a3.46157,3.46157,0,0,0-3.28125,3.625v23.90625a3.46161,3.46161,0,0,0,3.28125,3.625h27.90625v27.90625a3.433,3.433,0,0,0,3.59375,3.28125h23.9375a3.46163,3.46163,0,0,0,3.625-3.28125V349.51926h27.875a3.46158,3.46158,0,0,0,3.28125-3.625V321.988a3.46158,3.46158,0,0,0-3.28125-3.625h-27.875V290.45676a3.46158,3.46158,0,0,0-3.625-3.28125Z" transform="translate(0 -0.8501)" fill="#9e9e9e"/><path d="M235.20036,381.707h-23.9375a4.4509,4.4509,0,0,1-4.59375-4.28125V350.51953H179.76286a4.46833,4.46833,0,0,1-4.28125-4.625V321.98828a4.46834,4.46834,0,0,1,4.28125-4.625h26.90625V290.457a4.4509,4.4509,0,0,1,4.59375-4.28125h23.9375a4.46835,4.46835,0,0,1,4.625,4.28125v26.90625h26.875a4.46834,4.46834,0,0,1,4.28125,4.625v23.90625a4.46833,4.46833,0,0,1-4.28125,4.625h-26.875v26.90625A4.46835,4.46835,0,0,1,235.20036,381.707Zm-55.4375-62.34375a2.47429,2.47429,0,0,0-2.28125,2.625v23.90625a2.47428,2.47428,0,0,0,2.28125,2.625h27.90625a.99974.99974,0,0,1,1,1v27.90625a2.45546,2.45546,0,0,0,2.59375,2.28125h23.9375a2.47429,2.47429,0,0,0,2.625-2.28125V349.51953a.99974.99974,0,0,1,1-1h27.875a2.47428,2.47428,0,0,0,2.28125-2.625V321.98828a2.47429,2.47429,0,0,0-2.28125-2.625h-27.875a.99973.99973,0,0,1-1-1V290.457a2.47429,2.47429,0,0,0-2.625-2.28125h-23.9375a2.45546,2.45546,0,0,0-2.59375,2.28125v27.90625a.99974.99974,0,0,1-1,1Z" transform="translate(0 -0.8501)"/></g><path id="path4071" d="M235.23544,290.44418c0,.33008.21551.3125-.03125.3125h-23.9375v27.59375a3.60923,3.60923,0,0,1-3.59375,3.59375H179.76669c.33009,0,.3125-.21557.3125.03125v23.90625c0,.24671.01764.03125-.3125.03125h27.90625a3.60924,3.60924,0,0,1,3.59375,3.59375v27.59375h23.9375c.24676,0,.03125-.01757.03125.3125V349.50668a3.60922,3.60922,0,0,1,3.59375-3.59375h27.875c-.33,0-.3125.21558-.3125-.03125V321.97543c0-.24676-.01761-.03125.3125-.03125h-27.875a3.60921,3.60921,0,0,1-3.59375-3.59375Z" transform="translate(0 -0.8501)" fill="#ccc"/><path id="path3254" d="M234.55963,333.94112a11.32787,11.32787,0,1,1-11.32788-11.32788A11.32789,11.32789,0,0,1,234.55963,333.94112Z" transform="translate(0 -0.8501)" fill="gray"/><path id="path2449" d="M223.16085,294.35129a1.28913,1.28913,0,0,0-1.04907.64074l-9.00522,15.60035a1.28925,1.28925,0,0,0,1.11716,1.93377H232.2398a1.28925,1.28925,0,0,0,1.11713-1.93377L224.34606,294.992A1.28926,1.28926,0,0,0,223.16085,294.35129Z" transform="translate(0 -0.8501)" fill="gray"/><path id="path2452" d="M223.16085,373.531a1.28918,1.28918,0,0,1-1.04907-.64081l-9.00522-15.60034a1.2892,1.2892,0,0,1,1.11716-1.93372H232.2398a1.2892,1.2892,0,0,1,1.11713,1.93372l-9.01087,15.60034A1.28922,1.28922,0,0,1,223.16085,373.531Z" transform="translate(0 -0.8501)" fill="gray"/><path id="path3230" d="M262.82159,333.87021a1.28922,1.28922,0,0,0-.64078-1.04907L246.58047,323.816a1.28919,1.28919,0,0,0-1.93375,1.11712v18.01606a1.28924,1.28924,0,0,0,1.93375,1.11718l15.60034-9.01086A1.28931,1.28931,0,0,0,262.82159,333.87021Z" transform="translate(0 -0.8501)" fill="gray"/><path id="path3233" d="M183.64189,333.87021a1.28922,1.28922,0,0,1,.6408-1.04907L199.883,323.816a1.28917,1.28917,0,0,1,1.93373,1.11712v18.01606a1.28922,1.28922,0,0,1-1.93373,1.11718l-15.60033-9.01086A1.28931,1.28931,0,0,1,183.64189,333.87021Z" transform="translate(0 -0.8501)" fill="gray"/><path id="text4027" d="M301.68292,141.99344V143.261a4.92172,4.92172,0,0,0-1.14386-.5503,3.69065,3.69065,0,0,0-1.15-.18548,2.16279,2.16279,0,0,0-1.39734.41427,1.339,1.339,0,0,0-.51318,1.10675,1.23671,1.23671,0,0,0,.33386.93363,2.8451,2.8451,0,0,0,1.26132.5379l.65543.14841a3.618,3.618,0,0,1,1.892.95218,2.52078,2.52078,0,0,1,.59357,1.76834,2.48855,2.48855,0,0,1-.81617,2.00946,3.57788,3.57788,0,0,1-2.37423.69247,6.13849,6.13849,0,0,1-1.30463-.14218,7.14,7.14,0,0,1-1.317-.41427v-1.32935a6.19221,6.19221,0,0,0,1.34174.66159,4.061,4.061,0,0,0,1.27988.21024,2.29907,2.29907,0,0,0,1.47152-.42048,1.65224,1.65224,0,0,0,.16077-2.24441,2.52938,2.52938,0,0,0-1.25513-.56265l-.66778-.15458a3.76012,3.76012,0,0,1-1.86725-.878,2.14336,2.14336,0,0,1-.58121-1.57666,2.52549,2.52549,0,0,1,.82852-1.97854,3.19185,3.19185,0,0,1,2.2135-.74817,5.43693,5.43693,0,0,1,1.11911.12369,8.16461,8.16461,0,0,1,1.23661.35858m1.65085-.31531h7.04242v1.05109h-2.88746v8.18008h-1.25515v-8.18008h-2.89981v-1.05109m11.13555,1.10056-1.317,4.72378h2.63394l-1.317-4.72378m-.75433-1.10056h1.51483l2.82563,9.23117h-1.29224l-.68015-2.40518h-3.23367l-.66779,2.40518h-1.29223l2.82562-9.23117m9.26209,4.87216a1.73345,1.73345,0,0,1,.82235.46991,5.65545,5.65545,0,0,1,.84705,1.36646l1.25516,2.52264h-1.34171l-1.10058-2.331a3.60334,3.60334,0,0,0-.85941-1.27988,1.5768,1.5768,0,0,0-.98929-.29059h-1.19333v3.90146H319.1622v-9.23117h2.57211a3.51093,3.51093,0,0,1,2.331.68631,2.45645,2.45645,0,0,1,.81,1.98471,2.21059,2.21059,0,0,1-.50082,1.49628,2.17423,2.17423,0,0,1-1.39737.70486m-2.55976-3.84579v3.277h1.36646a1.92338,1.92338,0,0,0,1.33551-.40192,1.58876,1.58876,0,0,0,.439-1.23041,1.54946,1.54946,0,0,0-.46991-1.218,1.93321,1.93321,0,0,0-1.35406-.42663h-1.317m5.76874-1.02637h7.04239v1.05109H330.341v8.18008h-1.25513v-8.18008h-2.89981v-1.05109m12.82349,0h1.17477l-4.85983,10.40595h-1.18094l4.866-10.40595m4.58777,1.02637v3.46866h1.4468a1.88043,1.88043,0,0,0,1.3479-.45755,1.92206,1.92206,0,0,0,.00617-2.55356,1.88948,1.88948,0,0,0-1.35407-.45755h-1.4468m-1.249-1.02637h2.69577a3.439,3.439,0,0,1,2.34336.70487,3.05624,3.05624,0,0,1,0,4.11785,3.44514,3.44514,0,0,1-2.34336.69867h-1.4468v3.70978h-1.249v-9.23117m10.2081,1.10056-1.317,4.72378h2.63394l-1.317-4.72378m-.75433-1.10056H353.317l2.82562,9.23117h-1.29223l-.68015-2.40518h-3.2337l-.66776,2.40518H348.9765l2.82562-9.23117m5.47192,5.68833v-5.68833h1.25516v6.25717a8.65248,8.65248,0,0,0,.03708.96454,1.15749,1.15749,0,0,0,.12985.439,1.28757,1.28757,0,0,0,.56885.55026,2.04178,2.04178,0,0,0,.90887.18552,2.01747,2.01747,0,0,0,.90891-.18552,1.32355,1.32355,0,0,0,.575-.55026,1.15749,1.15749,0,0,0,.12985-.439,8.39109,8.39109,0,0,0,.03711-.95218v-6.26953h1.24893v5.68833a7.87756,7.87756,0,0,1-.17929,2.01565,2.07264,2.07264,0,0,1-.60592.98309,2.68882,2.68882,0,0,1-.93363.5441,3.95861,3.95861,0,0,1-2.35571,0,2.753,2.753,0,0,1-.93982-.5441,2.09641,2.09641,0,0,1-.60593-.98928,7.93106,7.93106,0,0,1-.17932-2.00946m12.9657-5.373V143.261a4.92211,4.92211,0,0,0-1.14383-.5503,3.69078,3.69078,0,0,0-1.15005-.18548,2.16275,2.16275,0,0,0-1.39734.41427,1.33889,1.33889,0,0,0-.51319,1.10675,1.23668,1.23668,0,0,0,.33387.93363,2.845,2.845,0,0,0,1.26132.5379l.65539.14841a3.6179,3.6179,0,0,1,1.892.95218,2.52092,2.52092,0,0,1,.59357,1.76834,2.48857,2.48857,0,0,1-.81616,2.00946,3.57791,3.57791,0,0,1-2.37424.69247,6.13828,6.13828,0,0,1-1.30463-.14218,7.13893,7.13893,0,0,1-1.317-.41427v-1.32935a6.19248,6.19248,0,0,0,1.34167.66159,4.06137,4.06137,0,0,0,1.27991.21024,2.2991,2.2991,0,0,0,1.47153-.42048,1.65225,1.65225,0,0,0,.16076-2.24441,2.52938,2.52938,0,0,0-1.25515-.56265l-.66776-.15458a3.76012,3.76012,0,0,1-1.86725-.878,2.14336,2.14336,0,0,1-.5812-1.57666,2.52545,2.52545,0,0,1,.82852-1.97854,3.19183,3.19183,0,0,1,2.2135-.74817,5.437,5.437,0,0,1,1.11911.12369,8.16484,8.16484,0,0,1,1.2366.35858m2.57831-.31531h5.47812v1.05109H374.067v2.73288h4.04367v1.05111H374.067v3.345h4.34662v1.05112h-5.59558v-9.23117" transform="translate(0 -0.8501)" fill="#353156"/><path id="path4073" d="M230.63807,333.94113a7.40631,7.40631,0,1,1-7.40631-7.4063A7.40632,7.40632,0,0,1,230.63807,333.94113Z" transform="translate(0 -0.8501)" fill="#6a6a6a"/><path id="path3243" d="M183.04208,177.20062l-10.89553,34.7961L142.54964,233.313l-36.47913.39647L76.6399,212.16465,64.99009,177.61359l11.4078-34.63172L105.677,121.23166l36.481.14124,29.74532,21.10871Z" transform="translate(0 -0.8501)"/><path id="path3243-2" data-name="path3243" d="M181.88471,177.20592l-10.68189,34.11381-29.01658,20.89832-35.76386.3887L77.56885,211.48438,66.14746,177.61079l11.18412-33.95267,28.705-21.32374,35.76571.13847,29.16208,20.69482Z" transform="translate(0 -0.8501)" fill="#b0b2b2"/><path id="path3258-2" data-name="path3258" d="M167.00257,177.47057a42.98649,42.98649,0,1,1-42.98649-42.98649A42.98649,42.98649,0,0,1,167.00257,177.47057Z" transform="translate(0 -0.8501)" fill="#ccc"/><path id="path3258-3" data-name="path3258" d="M164.95559,177.47057a40.93951,40.93951,0,1,1-40.93951-40.93951A40.9395,40.9395,0,0,1,164.95559,177.47057Z" transform="translate(0 -0.8501)" fill="#d8d8d8"/><path id="path3297-2" data-name="path3297" d="M158.64316,177.47057a34.62708,34.62708,0,1,1-34.62708-34.62708A34.62707,34.62707,0,0,1,158.64316,177.47057Z" transform="translate(0 -0.8501)" fill="#ccc"/><path id="path3297-3" data-name="path3297" d="M156.07819,177.47057a32.06211,32.06211,0,1,1-32.06211-32.06211A32.0621,32.0621,0,0,1,156.07819,177.47057Z" transform="translate(0 -0.8501)" fill="#d8d8d8"/><path id="path3297-4" data-name="path3297" d="M149.93915,177.47057a25.92307,25.92307,0,1,1-25.92307-25.92307A25.92305,25.92305,0,0,1,149.93915,177.47057Z" transform="translate(0 -0.8501)" fill="#ccc"/><path id="path3297-5" data-name="path3297" d="M145.61864,177.47057A21.60256,21.60256,0,1,1,124.01608,155.868,21.60255,21.60255,0,0,1,145.61864,177.47057Z" transform="translate(0 -0.8501)" fill="#d8d8d8"/><path id="path3301-2" data-name="path3301" d="M138.5001,177.47057a14.484,14.484,0,1,1-14.484-14.484A14.484,14.484,0,0,1,138.5001,177.47057Z" transform="translate(0 -0.8501)" fill="#ccc"/><path id="path3301-3" data-name="path3301" d="M134.51174,177.47057a10.49566,10.49566,0,1,1-10.49566-10.49567A10.49565,10.49565,0,0,1,134.51174,177.47057Z" transform="translate(0 -0.8501)" fill="#d8d8d8"/><path id="path3243-3" data-name="path3243" d="M508.92443,332.98338l-10.89553,34.7961L468.432,389.09576l-36.47914.39647-29.4306-21.54481-11.64982-34.55107,11.4078-34.63172,29.27915-21.75021,36.481.14124,29.74532,21.10871Z" transform="translate(0 -0.8501)"/><path id="path3243-4" data-name="path3243" d="M507.76706,332.98868l-10.68189,34.11381-29.01658,20.89832-35.76386.3887L403.4512,367.26714l-11.42139-33.87359,11.18412-33.95267,28.705-21.32374,35.7657.13847,29.16208,20.69482Z" transform="translate(0 -0.8501)" fill="#ffd22d"/><path id="path3247" d="M417.85386,333.94115a32.0446,32.0446,0,1,0,64.0892.02448q0-.01224,0-.02448a32.0446,32.0446,0,0,0-64.0892-.02448Z" transform="translate(0 -0.8501)"/><path id="path3247-2" data-name="path3247" d="M418.48218,333.94111a31.41628,31.41628,0,1,0,62.83256.024v-.024a31.41628,31.41628,0,1,0-62.83256-.024Z" transform="translate(0 -0.8501)" fill="#ffde32"/><path id="text4053" d="M456.2832,342.7211a9.509,9.509,0,0,1-4.51172,1.12109,7.30273,7.30273,0,0,1-6.09766-2.77539q-2.16013-2.77542-2.16015-7.80664,0-5.00391,2.17382-7.793a7.28325,7.28325,0,0,1,6.084-2.80273,9.509,9.509,0,0,1,4.51172,1.12109v2.83008a7.6354,7.6354,0,0,0-2.17383-1.27148,6.593,6.593,0,0,0-2.33789-.4375,4.47739,4.47739,0,0,0-4.0332,2.07812q-1.33987,2.07816-1.33985,6.27539,0,4.18359,1.33985,6.26172a4.47725,4.47725,0,0,0,4.0332,2.07813,6.55421,6.55421,0,0,0,2.35156-.4375,7.4468,7.4468,0,0,0,2.16016-1.27149v2.83008" transform="translate(0 -0.8501)" fill="#e5bd13"/><path id="path3205" d="M451.13341,217.4706a24.07066,24.07066,0,1,0,24.07066-24.07066A24.07065,24.07065,0,0,0,451.13341,217.4706Z" transform="translate(0 -0.8501)"/><path id="path3205-2" data-name="path3205" d="M451.78994,217.4706a23.59869,23.59869,0,1,0,23.59868-23.59869A23.59868,23.59868,0,0,0,451.78994,217.4706Z" transform="translate(0 -0.8501)" fill="#ef1c35"/><path id="text3307" d="M471.70407,217.92862v7.47852h3.26757a5.49228,5.49228,0,0,0,3.43164-.834,3.40636,3.40636,0,0,0,1.0254-2.77539,3.65849,3.65849,0,0,0-1.08008-2.92578,5.0478,5.0478,0,0,0-3.377-.94336h-3.26757m0-8.39453v6.15234H474.917a4.38941,4.38941,0,0,0,2.88476-.76562,3.07677,3.07677,0,0,0,.90235-2.47461,2.63627,2.63627,0,0,0-.88868-2.22852,4.7713,4.7713,0,0,0-2.89843-.68359h-3.21289m-2.77539-2.26953h6.043a7.56887,7.56887,0,0,1,4.82618,1.35351,4.61755,4.61755,0,0,1,1.69531,3.82813,4.46571,4.46571,0,0,1-.90235,2.95312,4.11972,4.11972,0,0,1-2.67968,1.35352,4.75074,4.75074,0,0,1,3.14453,1.72265,5.50486,5.50486,0,0,1,1.14844,3.59571,5.00342,5.00342,0,0,1-1.81836,4.19726,8.74792,8.74792,0,0,1-5.41407,1.40821h-6.043V207.26456" transform="translate(0 -0.8501)" fill="#cc1b39"/><path d="M350.16654,44.65448V42.55374h-6.00125a5.06606,5.06606,0,0,0-2.14325.47168,4.0466,4.0466,0,0,0-1.54318,1.243,3.07254,3.07254,0,0,0-.6001,1.71469v6.4726a3.3757,3.3757,0,0,0,.55728,1.6716,4.75639,4.75639,0,0,0,1.50037,1.24325,4.91942,4.91942,0,0,0,2.14325.47144h6.08688V53.74176h-5.82977a2.26706,2.26706,0,0,1-1.28577-.3858,1.18781,1.18781,0,0,1-.55755-.9859V49.9697h7.67309V47.82645h-7.67309V46.06894a1.2624,1.2624,0,0,1,.55755-1.029,2.267,2.267,0,0,1,1.28577-.38547Z" transform="translate(0 -0.8501)" fill="#b7b7b7" fill-rule="evenodd"/><polygon points="365.684 54.992 365.684 44.618 371.085 54.992 373.7 54.992 373.7 41.704 371.042 41.704 371.042 50.191 366.584 41.704 363.069 41.704 363.069 54.992 365.684 54.992 365.684 54.992" fill="#b7b7b7" fill-rule="evenodd"/><path d="M386.60221,42.55374V55.885h6.42984a5.84421,5.84421,0,0,0,2.18579-.47168,4.27583,4.27583,0,0,0,1.58628-1.243,3.21015,3.21015,0,0,0,.59979-1.75745V45.98309a3.075,3.075,0,0,0-.59979-1.71469,3.88693,3.88693,0,0,0-1.58628-1.243,5.11674,5.11674,0,0,0-2.18579-.47168ZM394.18913,45.04a1.30771,1.30771,0,0,1,.60012,1.029v6.30112a1.307,1.307,0,0,1-.60012,1.02874,1.82959,1.82959,0,0,1-1.243.42856h-3.72956v-9.216h3.72956a1.82981,1.82981,0,0,1,1.243.42859Z" transform="translate(0 -0.8501)" fill="#b7b7b7" fill-rule="evenodd"/><path d="M418.27967,42.897a5.83655,5.83655,0,0,0-2.18609-.47168h-2.35785a5.834,5.834,0,0,0-2.1861.47168,4.27524,4.27524,0,0,0-1.586,1.243,2.903,2.903,0,0,0-.6001,1.75745V52.5416a2.78219,2.78219,0,0,0,.6001,1.71469,3.88846,3.88846,0,0,0,1.586,1.243,5.1135,5.1135,0,0,0,2.1861.47137h2.35785a5.11543,5.11543,0,0,0,2.18609-.47137,3.8871,3.8871,0,0,0,1.5857-1.243,2.87459,2.87459,0,0,0,.60037-1.71469V45.89743a3.20611,3.20611,0,0,0-.60037-1.75745,4.27365,4.27365,0,0,0-1.5857-1.243Zm-1.029,2.01435a1.32094,1.32094,0,0,1,.60043,1.029v6.51541a1.32024,1.32024,0,0,1-.60043,1.02872,2.0734,2.0734,0,0,1-1.24323.42858H413.8216a2.30685,2.30685,0,0,1-1.28576-.42858,1.39206,1.39206,0,0,1-.55762-1.02872V45.94028a1.39285,1.39285,0,0,1,.55762-1.029,2.70194,2.70194,0,0,1,1.28576-.42865h2.18582a2.40372,2.40372,0,0,1,1.24323.42865Z" transform="translate(0 -0.8501)" fill="#b7b7b7" fill-rule="evenodd"/><polygon points="423.638 63.437 423.638 59.793 405.249 59.793 405.249 77.111 423.809 77.111 423.809 73.21 410.092 73.21 410.092 69.952 417.979 69.952 417.979 66.309 410.092 66.309 410.092 63.437 423.638 63.437 423.638 63.437" fill="#b7b7b7" fill-rule="evenodd"/><path d="M403.23362,64.24359A3.08859,3.08859,0,0,0,402.205,61.5433a4.79879,4.79879,0,0,0-3.21481-.90026H383.85856V78.00348h14.05981c3.68647-.04279,5.48676-1.243,5.48676-3.68646V72.21655a3.17977,3.17977,0,0,0-1.9718-3.12887,2.89461,2.89461,0,0,0,1.80029-2.82923V64.24359Zm-4.67206.08588a.63008.63008,0,0,1,.21433.60006v1.586a.558.558,0,0,1-.21433.55725l-1.20047.2143h-8.65872V64.15823h8.65872a2.8502,2.8502,0,0,1,1.20047.17124Zm-9.85919,9.85919v-3.3866h8.70154a2.54731,2.54731,0,0,1,1.24329.2146,1.13726,1.13726,0,0,1,.25708.85718v1.243a1.02735,1.02735,0,0,1-.25708.81439,2.052,2.052,0,0,1-1.24329.25739Z" transform="translate(0 -0.8501)" fill="#b7b7b7" fill-rule="evenodd"/><path d="M381.7581,60.643h-4.84357v13.4169H366.41245V60.643h-4.84384V73.67413a5.56368,5.56368,0,0,0,.42859,2.5719,2.491,2.491,0,0,0,1.45758,1.32886,6.40877,6.40877,0,0,0,2.7862.3858h10.802a6.62,6.62,0,0,0,2.82925-.3858,2.62194,2.62194,0,0,0,1.45731-1.32886,6.18146,6.18146,0,0,0,.42859-2.5719V60.643Z" transform="translate(0 -0.8501)" fill="#b7b7b7" fill-rule="evenodd"/><path d="M359.211,62.40048a2.84661,2.84661,0,0,0-1.45728-1.3717,8.21267,8.21267,0,0,0-2.78647-.38574H344.37962a8.04172,8.04172,0,0,0-2.7862.38574,2.55856,2.55856,0,0,0-1.45755,1.3717,5.56443,5.56443,0,0,0-.42862,2.5719v8.70175a5.56378,5.56378,0,0,0,.42862,2.5719,2.49251,2.49251,0,0,0,1.45755,1.32886,6.40877,6.40877,0,0,0,2.7862.3858h10.58767a6.51874,6.51874,0,0,0,2.78647-.3858A2.76843,2.76843,0,0,0,359.211,76.246a6.97119,6.97119,0,0,0,.42862-2.5719V70.5022l-4.84391.04278v3.515H344.50831V64.45816h10.28744v3.08633h4.84391V64.97238a6.64738,6.64738,0,0,0-.42862-2.5719Z" transform="translate(0 -0.8501)" fill="#b7b7b7" fill-rule="evenodd"/><polygon points="336.064 63.437 336.064 59.793 317.674 59.793 317.674 77.111 336.235 77.111 336.235 73.21 322.518 73.21 322.518 69.952 330.406 69.952 330.406 66.309 322.518 66.309 322.518 63.437 336.064 63.437 336.064 63.437" fill="#b7b7b7" fill-rule="evenodd"/><polygon points="262.378 41.704 259.763 41.704 259.763 50.191 255.305 41.704 251.748 41.704 251.748 54.992 254.362 54.992 254.362 44.618 259.806 54.992 262.378 54.992 262.378 41.704 262.378 41.704" fill="#b7b7b7" fill-rule="evenodd"/><polygon points="280.124 54.992 280.124 41.704 277.124 41.704 277.124 54.992 280.124 54.992 280.124 54.992" fill="#b7b7b7" fill-rule="evenodd"/><polygon points="297.485 54.992 297.485 44.618 302.886 54.992 305.501 54.992 305.501 41.704 302.843 41.704 302.843 50.191 298.385 41.704 294.827 41.704 294.827 54.992 297.485 54.992 297.485 54.992" fill="#b7b7b7" fill-rule="evenodd"/><polygon points="317.332 41.704 317.332 43.804 321.747 43.804 321.747 54.992 324.576 54.992 324.576 43.804 329.034 43.804 329.034 41.704 317.332 41.704 317.332 41.704" fill="#b7b7b7" fill-rule="evenodd"/><polygon points="311.073 59.793 303.7 72.052 296.371 59.793 291.955 59.793 291.955 74.067 283.339 59.793 279.01 59.793 268.68 77.111 281.625 77.111 281.625 73.21 275.838 73.21 281.196 64.594 288.44 77.111 296.413 77.111 296.413 67.852 301.943 77.111 305.501 77.111 311.073 67.852 311.073 77.111 315.531 77.111 315.531 59.793 311.073 59.793 311.073 59.793" fill="#b7b7b7" fill-rule="evenodd"/><path d="M269.06535,64.41507V60.643H252.73351a8.20949,8.20949,0,0,0-2.78617.38574,2.69369,2.69369,0,0,0-1.45755,1.3717,6.18611,6.18611,0,0,0-.42862,2.5719v8.70175a6.18531,6.18531,0,0,0,.42862,2.5719,2.6221,2.6221,0,0,0,1.45755,1.32886,6.51645,6.51645,0,0,0,2.78617.3858h11.87377a5.2509,5.2509,0,0,0,3.64337-.90027,4.45616,4.45616,0,0,0,.98589-3.38629V67.54449H258.006V71.1879h6.51544v2.872H252.905V64.41507Z" transform="translate(0 -0.8501)" fill="#b7b7b7" fill-rule="evenodd"/></svg>