<svg xmlns="http://www.w3.org/2000/svg" viewBox="0 0 207.074 396.098"><path d="M194.483.266c-7.337 2.442-14.755 4.324-22.129 6.153-11.057 2.751-22.026 5.363-32.401 9.785-5.183 2.213-10.214 4.888-14.973 8.269a67.837 67.837 0 0 0-13.306 12.441c-2.584 3.159-5.476 7.813-7.718 14.196-2.243 6.381-3.824 14.477-3.823 24.458 0 5.63.501 11.859 1.662 18.728a5.2 5.2 0 0 0 5.994 4.261 5.2 5.2 0 0 0 4.261-5.994c-1.071-6.336-1.516-11.983-1.517-16.995.001-8.888 1.398-15.776 3.235-21.011 1.838-5.232 4.129-8.825 5.956-11.059 4.63-5.655 9.765-9.868 15.427-13.248 8.481-5.064 18.219-8.21 28.839-10.997 10.61-2.795 22.063-5.226 33.777-9.121a5.2 5.2 0 1 0-3.284-9.866z" fill="#9fa5a3"/><path d="M73 86.034h68.074c1.435 0 2.6 1.165 2.6 2.601v1.563c0 1.435-1.165 2.6-2.6 2.6H73a2.601 2.601 0 0 1-2.6-2.6v-1.563a2.601 2.601 0 0 1 2.6-2.601z" fill-rule="evenodd" clip-rule="evenodd" fill="#a19c7d"/><path fill-rule="evenodd" clip-rule="evenodd" fill="#9fa5a3" d="M83.612 80.311h46.87l3.318 6.519H80.793zM85.497 69.907h43.654l3.09 7.558H82.872zM89.185 58.461h35.842l2.537 8.6H87.03zM92.9 48.057h28.49l2.017 8.599h-32.22z"/><path d="M23.12 89.676h167.834c8.897 0 16.119 7.222 16.119 16.119v274.182c0 8.898-7.222 16.12-16.119 16.12H23.12c-8.898 0-23.12-7.222-23.12-16.12l7-274.182c0-8.897 7.222-16.119 16.12-16.119z" fill-rule="evenodd" clip-rule="evenodd" fill="#a6a07e"/><path d="M35.07 137.538h141.855c6.889 0 12.479 5.591 12.479 12.48v185.737c0 6.889-5.591 12.48-12.479 12.48H35.07c-6.889 0-12.48-5.592-12.48-12.48V150.018c0-6.889 5.592-12.48 12.48-12.48z" fill-rule="evenodd" clip-rule="evenodd" fill="#b4ae8b"/><path d="M46.499 105.803h115.879a6.242 6.242 0 0 1 6.239 6.239v78.042a6.242 6.242 0 0 1-6.239 6.24H46.499a6.242 6.242 0 0 1-6.24-6.24v-78.042a6.243 6.243 0 0 1 6.24-6.239z" fill-rule="evenodd" clip-rule="evenodd" fill="#5a5f57"/><path d="M45.457 138.058h118.481a2.601 2.601 0 0 1 2.601 2.6v51.506a2.601 2.601 0 0 1-2.601 2.601H45.457a2.6 2.6 0 0 1-2.6-2.601v-51.506c0-1.435 1.165-2.6 2.6-2.6z" fill-rule="evenodd" clip-rule="evenodd" fill="#777a72"/><path d="M45.457 107.884h118.481a2.6 2.6 0 0 1 2.601 2.6v25.494a2.6 2.6 0 0 1-2.601 2.6H45.457a2.6 2.6 0 0 1-2.6-2.6v-25.494c0-1.435 1.165-2.6 2.6-2.6z" fill-rule="evenodd" clip-rule="evenodd" fill="#a2a79b"/><path d="M45.457 190.603h118.481c1.436 0 2.601.932 2.601 2.081 0 1.147-1.165 2.08-2.601 2.08H45.457c-1.435 0-2.6-.933-2.6-2.08 0-1.149 1.165-2.081 2.6-2.081z" fill-rule="evenodd" clip-rule="evenodd" fill="#514a3c"/><path d="M48.578 294.651h22.338a6.243 6.243 0 0 1 6.24 6.239v22.896a6.242 6.242 0 0 1-6.24 6.24H48.578a6.243 6.243 0 0 1-6.24-6.24V300.89a6.242 6.242 0 0 1 6.24-6.239z" fill-rule="evenodd" clip-rule="evenodd" fill="#aaa384"/><path d="M24.04 92.874c3.166 9.489 6.329 18.98 9.485 28.474 1.484 4.463 3.074 8.892 4.342 13.425.195.697.506 1.376.339 2.13-.536.941-1.485.781-2.296.743-4.699-.222-8.303 1.716-11.053 5.436-.297.402-.531.958-1.21.827-2.515-3.26-4.175-7.022-6.049-10.636-3.192-6.155-6.424-12.3-9.213-18.658-.391-.891-.701-1.862-1.458-2.558v-9.954c.521-.197.551-.715.7-1.131 2.613-7.293 7.972-11.269 15.612-11.541" fill="#afaa8c"/><path d="M0 371.613c2.612-3.475 5.261-6.936 7.829-10.426 4.413-5.997 8.777-12.014 13.158-18.023.325-.446.594-.92 1.324-1.119 1.209-.072 1.635.65 2.185 1.169 3.444 3.247 8.103 4.677 13.693 4.786 1.296.024 2.655-.185 3.84.408.635.819.148 1.618-.2 2.373a1048.824 1048.824 0 0 1-20.536 42.115 2.311 2.311 0 0 1-.528.651c-.2.139-.398.281-.591.426h-1.062c-7.323-.42-12.675-3.064-16.59-7.401-1.421-1.575-1.943-3.338-2.522-5.105v-9.854z" fill="#9f997b"/><path d="M191.838 89.768c4.952.385 9.148 2.452 12.229 6.71 2.486 3.437 3.313 7.311 2.91 11.488-2.647 6.45-5.245 12.922-7.957 19.345-2.742 6.495-5.59 12.946-8.415 19.406-.285.652-.735 1.232-1.109 1.847-.619-.482-.746-1.225-.955-1.902-1.426-4.622-4.552-7.395-9.193-8.561-.622-.156-1.326-.137-1.801-.69 4.475-15.795 9.204-31.514 14.198-47.368" fill="#afaa8c"/><path d="M189.291 340.873c2.156 4.18 4.398 8.315 6.449 12.549 3.458 7.139 7.084 14.193 10.253 21.479.258.592.644 1.125.971 1.686.419 5.291-.246 10.253-3.951 14.351-2.682 2.967-5.938 4.712-9.849 5.16l-1.176-.119c-1.78-2.369-2.249-5.315-3.175-8.029-4.149-12.163-8.232-24.352-12.14-36.6-.256-.803-.66-1.607-.262-2.49.417-.514 1.011-.5 1.579-.553 4.333-.407 7.82-2.274 10.121-6.208.294-.501.552-1.058 1.18-1.226z" fill="#9f997b"/><path d="M49.842 306.856l.025-.04c1.399-2.163 3.605-3.429 5.681-3.429 2.113 0 3.441 1.163 5.188 1.163 1.695 0 2.727-1.165 5.17-1.165 1.846 0 3.803 1.01 5.196 2.755a6.211 6.211 0 0 0-1.043.717l-20.217-.001z" fill="#b4ae8b"/><path d="M64.052 301.437c.887-1.144 1.561-2.759 1.317-4.409-1.45.1-3.146 1.026-4.136 2.232-.899 1.097-1.641 2.722-1.352 4.301 1.583.05 3.22-.899 4.171-2.124zM49.769 306.824c-.602.947-1.019 2.306-1.13 3.497h19.544c.211-1.304.914-2.549 2.027-3.496l-20.441-.001h.001-.001zM48.817 313.788a13.196 13.196 0 0 1-.102-3.466l19.392-.001a6.167 6.167 0 0 0 .449 3.468l-19.739-.001z" fill="#b4ae8b"/><path d="M49.765 317.255a16.456 16.456 0 0 1-.948-3.467l19.739.001a5.901 5.901 0 0 0 3.334 3.163l-.137.304-21.988-.001z" fill="#b4ae8b"/><path d="M71.754 317.256c-.547 1.207-.864 1.833-1.62 2.99-.102.155-.207.313-.316.474l-18.22.002-.173-.261a17.778 17.778 0 0 1-1.659-3.206l21.988.001z" fill="#b4ae8b"/><path d="M69.817 320.719c-1.115 1.64-2.611 3.444-4.427 3.461-1.772.017-2.226-1.157-4.63-1.145-2.404.014-2.906 1.165-4.677 1.148-1.895-.018-3.365-1.789-4.486-3.463l18.22-.001z" fill="#b4ae8b"/></svg>