<svg xmlns="http://www.w3.org/2000/svg" width="30" height="30">
  <path fill="green" d="M15.978844 5.9404346c1.043096-1.1445198 1.586667-2.7517774 1.661596-4.9135755l.0027-.0784-.07679.01568c-3.663409.7494581-5.55536 3.0455817-5.62337 6.8244281l-.0013.07364.07273-.011293c1.745132-.2732243 3.041871-.8982969 3.964475-1.9103485z"/>
  <path fill="#00f" d="M3.3714031 25.377192l.067334.09686c.6055055.873498 1.2999467 1.723196 2.0637475 2.52648.5817105.611418 1.5083633.947922 2.6090061.947922.8066652 0 1.6430327-.189682 2.1828913-.495143 1.116845-.631149 1.708681-.632502 2.140702-.633174.08674 0 .167746-.000336.245712-.0047l.07054-.0047c.09349-.0056.190021-.01251.29887-.01251.383083 0 .955174.07513 1.995232.662882.725831.304444 1.429722.458519 2.092099.458519h.000337c1.803354 0 3.38462-1.128662 4.833919-3.447737l.05923-.09468H3.3713957z"/>
  <path fill="green" d="M22.245353 10.905639c.241155-.240305.501044-.477251.780169-.710137l.04675-.03901-.03847-.04741c-1.35935-1.6767756-3.220756-2.5809898-5.38289-2.6150845l-.09906-.0004574c-1.095749 0-2.06476.2053802-2.802066.5938619-.956186.5035805-1.667334.6152913-1.674253.6163087-.01249.00187-.09079.00467-.305453.00467-.260563 0-.485518-.00467-.512519-.0084l-.01722-.0028c-.306639-.0396701-1.088159-.1682462-1.721679-.5059452-.861007-.4590138-1.8202299-.701858-2.7738841-.701858l-.062778.000336c-2.5215892.0281866-4.6295513 1.2569119-5.9392858 3.4149925H22.245351z"/>
  <path fill="#ff0" d="M20.131147 14.490418c.248074-1.199886.917877-2.364817 2.010081-3.479638l.102943-.105141H1.7423775l-.018057.02987C1.0960325 11.9781.679874 13.184051.48225783 14.490243l19.64888917.000168z"/>
  <path fill="#f60" d="M20.611433 18.031647c-.495813-1.018464-.739331-2.195212-.492607-3.466815l.01418-.07373H.48428592l-.007763.05245c-.1662271 1.132546-.1662271 2.304907-.0124881 3.487908l20.14740118.000168z"/>
  <path fill="red" d="M1.4291617 21.74669H23.883829l.131463-.284359-.054-.02669c-1.074653-.532085-2.515345-1.696867-3.335512-3.369598l-.01704-.03453H.46336353l.009282.06991c.1370319 1.024857.41717097 2.269794.95652327 3.645352z"/>
  <path fill="purple" d="M3.3717406 25.377192H22.029004c.712329-1.154478 1.299608-2.425567 1.815504-3.542582l.0405-.08773H1.4327031l.03392.08475c.4907496 1.22585 1.1281504 2.410373 1.9051144 3.545615z"/>
</svg>
