<svg id="Layer_1" data-name="Layer 1" xmlns="http://www.w3.org/2000/svg" viewBox="0 0 105 105"><title>icon_filled</title><path d="M31.41,97.44A11.64,11.64,0,0,1,29.35,97c-1.55-.66-3.22-1-4.78-1.54-1.2-.46-2.41-.86-3.59-1.34-.85-.35-1.66-.81-2.49-1.21-1.39-.69-2.83-1.3-4.17-2.08a23.29,23.29,0,0,1-4.57-3.07c-.6-.58-1.15-1.22-1.71-1.85a8.81,8.81,0,0,1-.83-1c-.79-1.14-1.65-2.25-2.32-3.46a35.76,35.76,0,0,1-3.24-7.58,15.78,15.78,0,0,1-.8-3.39,1.89,1.89,0,0,1,.27.2A1.23,1.23,0,0,0,2.77,71a6.83,6.83,0,0,0,2.35-1.84c.4-.49.78-1,1.14-1.51.58-.84,1.2-1.66,1.7-2.55.7-1.26,1.32-2.57,1.94-3.87a23,23,0,0,0,1.55-4c.47-1.75.88-3.51,1.3-5.27a15.81,15.81,0,0,0,.48-2.25c.09-1,.37-2,.52-3.06s.22-2.17.33-3.25a1.6,1.6,0,0,1,0-.54,10.47,10.47,0,0,0,.34-3.1,22.7,22.7,0,0,0,0-3.5,4,4,0,0,0-.3-1.31,1.15,1.15,0,0,0-1.68-.64c-.25.11-.51.2-.76.3.16-.19.32-.38.49-.56a52.39,52.39,0,0,1,4.65-4.29,46.93,46.93,0,0,1,4.29-3,2.65,2.65,0,0,1,.48-.23c.22,0,.3-.1.27-.3l1.48-.83.18.15a3,3,0,0,0-.47.72,1.17,1.17,0,0,1-.69.78,2.87,2.87,0,0,0-.49.37,9.66,9.66,0,0,0-1.73,2.23A13.92,13.92,0,0,0,18.68,33a8.26,8.26,0,0,0-.2,1c-.12.57-.25,1.14-.38,1.71l.09,0-.35.61a11.07,11.07,0,0,1,.37,2.86l.33.56c.08,1.12.14,2.09.22,3.07,0,.36.1.71.13,1.07C19,44.4,19,45,19,45.53a7.1,7.1,0,0,0,.26,1c.23.77.47,1.54.7,2.31.11.38.22.75.47.89l.9.33a10.54,10.54,0,0,1,.53,1.5,1.6,1.6,0,0,0,.65,1,2.46,2.46,0,0,1,.8,1,.86.86,0,0,0,.78.62l.18,1,.13-.13,1.32,1.36-.11.1a5,5,0,0,0,1,.64,2,2,0,0,1,1,.82,1.16,1.16,0,0,0,.55.51,2.56,2.56,0,0,1,1.14.77l2.93.88c.95.18,1.9.36,2.85.52.38.06.78,0,1.15.11,1,.24,2.09.52,3.13.79a13,13,0,0,0,1.57.41c1.27.17,2.56.29,3.83.43a7.71,7.71,0,0,1,1.61.22,17.33,17.33,0,0,0,2.93.46c.89.14,1.8.18,2.7.3s1.68.26,2.53.39c.38.06.76.1,1.14.14l2.83.29c.07,0,.12.08.19.09.4.06.8.13,1.2.17a21.14,21.14,0,0,1,2.12.16c.66.13,1.3.32,2,.43,1.11.18,2.23.3,3.36.38a2.63,2.63,0,0,1,.47.06c.72.15,1.44.34,2.17.48,1.23.24,2.49.4,3.7.72a8.77,8.77,0,0,1,2.39.71,1.39,1.39,0,0,0,.46.09,4.81,4.81,0,0,1,.66.13c.33.12.65.32,1,.41a24.4,24.4,0,0,0,2.67.71,12.26,12.26,0,0,1,1.45.26c.35.09.67.3,1,.38a18.21,18.21,0,0,0,3.74.59,3.13,3.13,0,0,1,1.93.25.77.77,0,0,0,.34,0c.9,0,1.79,0,2.68,0a2.06,2.06,0,0,0,1.35-.55c.31-.3.63-.59.95-.88A34,34,0,0,0,97.15,71s.06.06,0,0l1,.39,1.05-1a5.16,5.16,0,0,1-.33,2,31,31,0,0,1-1.7,5,32.1,32.1,0,0,1-3.76,6.43c-.77,1-1.67,1.92-2.52,2.87a29.64,29.64,0,0,1-4.18,3.49A32.31,32.31,0,0,1,81,93.42c-.6.29-1.2.61-1.82.87a60.49,60.49,0,0,1-7.09,2.31,27.87,27.87,0,0,1-3.26.85l-.23-.07c.17-.55.34-1.06.49-1.57.24-.84.38-1.71.59-2.55a12.08,12.08,0,0,0-.09-4.83c0-.25-.08-.49-.11-.73.09-.43.22-.86.29-1.29.18-1.09-.46-2-.68-3a.62.62,0,0,0-.15-.22c-.34-.4-.68-.8-1-1.18s-.82-.84-1.26-1.29A24.51,24.51,0,0,0,62,78.18a18.49,18.49,0,0,0-5.09-1.5,1.38,1.38,0,0,0-.4-.16c-.71-.11-1.43-.21-2.15-.3A19.53,19.53,0,0,0,52.06,76a43.09,43.09,0,0,0-5.68.12c-.58.07-1.18.05-1.76.16-1.26.24-2.51.51-3.76.81a5.52,5.52,0,0,0-1.66.56,3.4,3.4,0,0,1-1.23.5,8.23,8.23,0,0,0-3,1.21A10,10,0,0,0,32,81.59s-.11.08-.16.13a3.83,3.83,0,0,0-1.25,1.86c-.08.33-.2.64-.27,1a1.62,1.62,0,0,0,0,.54c0,.27.11.53.17.85l.37.65a18.46,18.46,0,0,0-.69,4.9c0,.59.11,1.18.13,1.77a7.69,7.69,0,0,0,.6,2.63C31.11,96.4,31.24,96.93,31.41,97.44Z" fill="#d19b03"/><path d="M94.32,68.75c-.32.29-.64.58-.95.88a2.06,2.06,0,0,1-1.35.55c-.89,0-1.78,0-2.68,0a.77.77,0,0,1-.34,0,3.13,3.13,0,0,0-1.93-.25,18.21,18.21,0,0,1-3.74-.59c-.34-.08-.66-.29-1-.38a12.26,12.26,0,0,0-1.45-.26A24.4,24.4,0,0,1,78.2,68c-.34-.09-.66-.29-1-.41a4.81,4.81,0,0,0-.66-.13,1.39,1.39,0,0,1-.46-.09,8.77,8.77,0,0,0-2.39-.71c-1.21-.32-2.47-.48-3.7-.72-.73-.14-1.45-.33-2.17-.48a2.63,2.63,0,0,0-.47-.06c-1.13-.08-2.25-.2-3.36-.38-.68-.11-1.32-.3-2-.43a21.14,21.14,0,0,0-2.12-.16c-.4,0-.8-.11-1.2-.17-.07,0-.12-.08-.19-.09l-2.83-.29c-.38,0-.76-.08-1.14-.14-.85-.13-1.69-.28-2.53-.39s-1.81-.16-2.7-.3a17.33,17.33,0,0,1-2.93-.46,7.71,7.71,0,0,0-1.61-.22c-1.27-.14-2.56-.26-3.83-.43a13,13,0,0,1-1.57-.41c-1-.27-2.08-.55-3.13-.79-.37-.08-.77,0-1.15-.11-1-.16-1.9-.34-2.85-.52l-2.93-.88a2.56,2.56,0,0,0-1.14-.77,1.16,1.16,0,0,1-.55-.51,2,2,0,0,0-1-.82,5,5,0,0,1-1-.64l.11-.1L24.44,55l-.13.13-.18-1a.86.86,0,0,1-.78-.62,2.46,2.46,0,0,0-.8-1,1.6,1.6,0,0,1-.65-1,10.54,10.54,0,0,0-.53-1.5l-.9-.33c-.25-.14-.36-.51-.47-.89-.23-.77-.47-1.54-.7-2.31a7.1,7.1,0,0,1-.26-1C19,45,19,44.4,18.89,43.84c0-.36-.1-.71-.13-1.07-.08-1-.14-2-.22-3.07l-.33-.56a11.07,11.07,0,0,0-.37-2.86l.35-.61-.09,0c.13-.57.26-1.14.38-1.71a8.26,8.26,0,0,1,.2-1,13.92,13.92,0,0,1,1.51-3.37,9.66,9.66,0,0,1,1.73-2.23,2.87,2.87,0,0,1,.49-.37,1.17,1.17,0,0,0,.69-.78,3,3,0,0,1,.47-.72l-.18-.15c1-.52,2.05-1,3.09-1.55.78-.39,1.6-.7,2.39-1.09a18.79,18.79,0,0,1,2.84-1c1.14-.35,2.3-.69,3.47-1s2.19-.39,3.28-.6c.49-.09.95-.28,1.43-.39s1-.22,1.52-.29c.8-.11,1.6-.19,2.41-.28.13,0,.27,0,.4,0,.31,0,.62-.1.92-.15.14,0,.27-.05.41-.06,2.06-.05,4.12-.18,6.17-.15a48.9,48.9,0,0,1,7.92.63c.56.1,1.13.17,1.69.28.32.07.62.22.93.3,1,.23,2,.43,3,.69a36.1,36.1,0,0,1,6.41,2.17c2.06,1,4.12,1.94,6.08,3.07a50,50,0,0,1,4.87,3.28c1.22.9,2.37,1.91,3.5,2.93.82.75,1.55,1.6,2.32,2.4-.4-.13-.81-.28-1.22-.4a1,1,0,0,0-1,.32A2.17,2.17,0,0,0,85.6,36a57.92,57.92,0,0,0,.14,7,15.56,15.56,0,0,0,.37,2.87,8.27,8.27,0,0,1,.08,1c.09.53.27,1.05.34,1.58a42,42,0,0,0,1.09,5.1A40.67,40.67,0,0,0,89,58.23c.52,1.32.93,2.69,1.49,4a33.77,33.77,0,0,0,1.6,3c.37.65.8,1.27,1.2,1.9ZM42.81,48.94l0,.09a5.06,5.06,0,0,1,1,0,34.75,34.75,0,0,0,5.58.49c.84,0,1.68-.06,2.53-.1a15.11,15.11,0,0,0,2.51-.15c.73-.15,1.48-.22,2.22-.37.51-.11,1-.32,1.52-.45a20.31,20.31,0,0,0,7.48-3.13,13.17,13.17,0,0,0,3.51-3.47A10.49,10.49,0,0,0,70.87,35a5.93,5.93,0,0,0-.4-1.28,11.56,11.56,0,0,0-.76-2A14.94,14.94,0,0,0,66.81,28c-.41-.36-.83-.72-1.23-1.09a12.62,12.62,0,0,0-3.25-2.21c-1.14-.52-2.3-1-3.45-1.47a6.38,6.38,0,0,0-1-.43,31.24,31.24,0,0,0-6.38-1c-1,0-2.1,0-3.15.09-.54,0-1.08.11-1.62.16a11.66,11.66,0,0,0-1.68.15,22.93,22.93,0,0,0-3.7.9c-1.05.44-2.16.73-3.22,1.19a14.07,14.07,0,0,0-3.82,2.31,16.82,16.82,0,0,0-3.11,3.14,15.76,15.76,0,0,0-1.63,2.7,9.43,9.43,0,0,0-.79,2.82,12,12,0,0,0,.26,3.33,10,10,0,0,0,3.33,5.68,13.81,13.81,0,0,1,1.18.93,7.51,7.51,0,0,0,3.11,1.84c1.54.58,3.16,1,4.73,1.42C41.89,48.61,42.35,48.78,42.81,48.94Z" fill="#fed404"/><path d="M31.41,97.44c-.17-.51-.3-1-.5-1.55a7.69,7.69,0,0,1-.6-2.63c0-.59-.11-1.18-.13-1.77a18.46,18.46,0,0,1,.69-4.9l.13-.08a2,2,0,0,0,.49-.12c.27-.16.5-.39.78-.53a6.29,6.29,0,0,0,1.84-1.39,12.42,12.42,0,0,1,4.41-2.87A5.36,5.36,0,0,0,39.67,81a11.78,11.78,0,0,1,2.42-1.18,10.17,10.17,0,0,1,1.56-.39v.12l.63.37a14,14,0,0,0,.17,2.89c-.29,0,1.22-.58,1.09-.35.7.24-.47-.59,0,0,.19.24-.41-.24,0,0h0c.55-.63,1.48-.3,1.43-1.14a2.68,2.68,0,0,1,.16-.71c.07-.07.2-.14.2-.21A2.8,2.8,0,0,1,48.1,79c.71,0,1.36-.09,2-.15.11,0,.22-.08.32-.08a3.45,3.45,0,0,1,2,.16l.39.61a8.43,8.43,0,0,0,.31,3.08l.72,1c.63.13,1.05-.31,1.55-.43,0-.21.11-.38.14-.55a7.15,7.15,0,0,0,.08-2.84,8.27,8.27,0,0,1-.12-.85l.53-.27h1.53l2.57,1c.71.27,1.43.53,2.14.81s1.15.84,1.85,1.06a3.74,3.74,0,0,1,.87.37c.82.53,1.6,1.11,2.41,1.65a2.43,2.43,0,0,0,.69.22c.17.41.38.81.52,1.23.3.89.57,1.79.85,2.69,0,.24.07.48.11.73a12.08,12.08,0,0,1,.09,4.83c-.21.84-.35,1.71-.59,2.55-.15.51-.32,1-.49,1.57l.23.07-.36.18c-.39.64-.84,1.27-1.17,2a6.89,6.89,0,0,1-3.94,3.23,21.6,21.6,0,0,1-2.68,1,34.87,34.87,0,0,1-3.92.79,51.08,51.08,0,0,1-9.08.36c-1.22,0-2.44-.23-3.66-.37-.78-.08-1.58-.15-2.36-.3a16.45,16.45,0,0,1-7-2.51,7.63,7.63,0,0,1-1.55-1.39,15.49,15.49,0,0,1-.92-1.58C31.91,98.36,31.66,97.9,31.41,97.44Z" fill="#e4c584"/><path d="M11.73,34.58c.25-.1.51-.19.76-.3a1.15,1.15,0,0,1,1.68.64,4,4,0,0,1,.3,1.31,22.7,22.7,0,0,1,0,3.5,10.47,10.47,0,0,1-.34,3.1,1.6,1.6,0,0,0,0,.54c-.11,1.08-.18,2.17-.33,3.25s-.43,2-.52,3.06a15.81,15.81,0,0,1-.48,2.25c-.42,1.76-.83,3.52-1.3,5.27a23,23,0,0,1-1.55,4C9.28,62.49,8.66,63.8,8,65.06c-.5.89-1.12,1.71-1.7,2.55-.36.52-.74,1-1.14,1.51A6.83,6.83,0,0,1,2.77,71a1.23,1.23,0,0,1-1.65-.31,1.89,1.89,0,0,0-.27-.2C.68,69.63.48,68.81.35,68a37.09,37.09,0,0,1-.26-7.81A34,34,0,0,1,1.4,52.62a42.87,42.87,0,0,1,1.83-5.17,49,49,0,0,1,2.24-4.39c.82-1.45,1.77-2.8,2.7-4.18.61-.9,1.34-1.73,2-2.57C10.69,35.72,11.22,35.15,11.73,34.58Z" fill="#be1407"/><path d="M93.31,67.16c-.4-.63-.83-1.25-1.2-1.9a33.77,33.77,0,0,1-1.6-3c-.56-1.31-1-2.68-1.49-4a40.67,40.67,0,0,1-1.4-4.65,42,42,0,0,1-1.09-5.1c-.07-.53-.25-1-.34-1.58a8.27,8.27,0,0,0-.08-1A15.56,15.56,0,0,1,85.74,43a57.92,57.92,0,0,1-.14-7,2.17,2.17,0,0,1,.54-1.57,1,1,0,0,1,1-.32c.41.12.82.27,1.22.4A3.83,3.83,0,0,1,89.65,36a2.44,2.44,0,0,0,.65.76A17.36,17.36,0,0,1,92.76,40c1.09,1.6,1.94,3.34,2.88,5a6.06,6.06,0,0,1,.27.75c.6,1.43,1.27,2.84,1.79,4.3a26.76,26.76,0,0,1,1.48,5.5s-.09.06-.09.09a7.64,7.64,0,0,0,.22,2.66c-.55.8,0,1.74-.39,2.52a1.65,1.65,0,0,1,0,1.27,3.55,3.55,0,0,0-.29,1,8.85,8.85,0,0,1-1.09,3.17,3,3,0,0,0-.15.31l-.75,1.78H96L94.23,67l0,.12Z" fill="#fe2926"/><path d="M93.31,67.16l.87-.09,0-.12L96,68.38h.69l.75-1.78a3,3,0,0,1,.15-.31,8.85,8.85,0,0,0,1.09-3.17,3.55,3.55,0,0,1,.29-1,1.65,1.65,0,0,0,0-1.27c.4-.78-.16-1.72.39-2.52a7.64,7.64,0,0,1-.22-2.66s.06-.06.09-.09c.23,1.46.53,2.92.66,4.39a35.59,35.59,0,0,1,.13,4.73c-.07,1.71-.33,3.4-.53,5.1a2.49,2.49,0,0,1-.26.61l-1.05,1-1-.39c.06.07,0,0,0,0a34,34,0,0,1-2.83-2.28Z" fill="#be1407"/><path d="M21.91,26.16c0,.2-.05.31-.27.3Z" fill="#fed404"/><path d="M44.46,82.84A14,14,0,0,1,44.29,80c.19-.72.15-1.5.77-2.09l-.49-.44-.39.32a10,10,0,0,0-1.45.28,13.76,13.76,0,0,0-3.54,1.06c-.32.15-.69.22-1,.38-.6.29-1.19.62-1.77,1a4.28,4.28,0,0,0-.61.44c-.62.49-1.25,1-1.86,1.47s-1.21,1-1.81,1.55a6.4,6.4,0,0,0-.54.58,3.5,3.5,0,0,0-.19.51c-.13.52-.49,1-.4,1.55l-.13.08-.37-.65c-.06-.32-.13-.58-.17-.85a1.62,1.62,0,0,1,0-.54c.07-.33.19-.64.27-1a3.83,3.83,0,0,1,1.25-1.86c.05,0,.12-.08.16-.13A10,10,0,0,1,35,79.34a8.23,8.23,0,0,1,3-1.21,3.4,3.4,0,0,0,1.23-.5,5.52,5.52,0,0,1,1.66-.56c1.25-.3,2.5-.57,3.76-.81.58-.11,1.18-.09,1.76-.16A43.09,43.09,0,0,1,52.06,76a19.53,19.53,0,0,1,2.29.24c.72.09,1.44.19,2.15.3a1.38,1.38,0,0,1,.4.16A18.49,18.49,0,0,1,62,78.18a24.51,24.51,0,0,1,4.65,2.53c.44.45.86.86,1.26,1.29s.7.78,1,1.18a.62.62,0,0,1,.15.22c.22,1,.86,1.92.68,3-.07.43-.2.86-.29,1.29-.28-.9-.55-1.8-.85-2.69-.14-.42-.35-.82-.52-1.23a4,4,0,0,0-.55-1,18.43,18.43,0,0,0-1.51-1.27c-.23-.18-.44-.39-.67-.57a5.32,5.32,0,0,0-.9-.68c-.53-.28-1.1-.48-1.64-.73a7.48,7.48,0,0,0-1.71-.78,10.82,10.82,0,0,0-2.69-.61A1,1,0,0,1,58,78a16.93,16.93,0,0,0-1.87-.59,2.39,2.39,0,0,0-1.42.13L55.52,79a8.27,8.27,0,0,0,.12.85,7.15,7.15,0,0,1-.08,2.84c0,.17-.09.34-.14.55-.5.12-.92.56-1.55.43l-.72-1a8.43,8.43,0,0,1-.31-3.08s.13-.09.13-.14a2.32,2.32,0,0,1,.64-1.67c.08-.08,0-.29.08-.47A8.43,8.43,0,0,0,51.41,77c-.93.07-1.87,0-2.81,0a3.25,3.25,0,0,0-2,.55,6.12,6.12,0,0,1,.32,1c.1.67.14,1.35.21,2a2.68,2.68,0,0,0-.16.71,3,3,0,0,1-.75,2.21A1.62,1.62,0,0,1,44.46,82.84ZM54.3,80.1a1.17,1.17,0,0,0,.7-1.31l-.41-.57c-.67-.06-.67-.06-1,.34A1.34,1.34,0,0,0,54.3,80.1Zm-9-1.4v.73c.38.42.38.42,1,.32a1.12,1.12,0,0,0,.11-1.41A.83.83,0,0,0,45.3,78.7Z" fill="#232323"/><path d="M42.81,48.94c-.46-.16-.92-.33-1.39-.47-1.57-.47-3.19-.84-4.73-1.42a7.51,7.51,0,0,1-3.11-1.84,13.81,13.81,0,0,0-1.18-.93,10,10,0,0,1-3.33-5.68,12,12,0,0,1-.26-3.33,9.43,9.43,0,0,1,.79-2.82,15.76,15.76,0,0,1,1.63-2.7,16.82,16.82,0,0,1,3.11-3.14,14.07,14.07,0,0,1,3.82-2.31c1.06-.46,2.17-.75,3.22-1.19a22.93,22.93,0,0,1,3.7-.9,11.66,11.66,0,0,1,1.68-.15c.54,0,1.08-.13,1.62-.16,1,0,2.11-.14,3.15-.09a31.24,31.24,0,0,1,6.38,1,6.38,6.38,0,0,1,1,.43c1.15.49,2.31.95,3.45,1.47a12.62,12.62,0,0,1,3.25,2.21c.4.37.82.73,1.23,1.09a14.94,14.94,0,0,1,2.9,3.77,11.56,11.56,0,0,1,.76,2,5.93,5.93,0,0,1,.4,1.28,10.49,10.49,0,0,1-1.63,6.82,13.17,13.17,0,0,1-3.51,3.47,20.31,20.31,0,0,1-7.48,3.13c-.51.13-1,.34-1.52.45-.74.15-1.49.22-2.22.37a15.11,15.11,0,0,1-2.51.15c-.85,0-1.69.14-2.53.1A34.75,34.75,0,0,1,43.89,49a5.06,5.06,0,0,0-1,0Z" fill="#fe2926"/><path d="M31,86.51c-.09-.57.27-1,.4-1.55a3.5,3.5,0,0,1,.19-.51,6.4,6.4,0,0,1,.54-.58c.6-.53,1.2-1,1.81-1.55s1.24-1,1.86-1.47a4.28,4.28,0,0,1,.61-.44c.58-.33,1.17-.66,1.77-1,.32-.16.69-.23,1-.38A13.76,13.76,0,0,1,42.73,78a10,10,0,0,1,1.45-.28l.39-.32.49.44c-.62.59-.58,1.37-.77,2.09l-.63-.37v-.12a10.17,10.17,0,0,0-1.56.39A11.78,11.78,0,0,0,39.67,81a5.36,5.36,0,0,1-1.15.57,12.42,12.42,0,0,0-4.41,2.87,6.29,6.29,0,0,1-1.84,1.39c-.28.14-.51.37-.78.53A2,2,0,0,1,31,86.51Z" fill="#5b5b5b"/><path d="M55.52,79l-.82-1.44a2.39,2.39,0,0,1,1.42-.13A16.93,16.93,0,0,1,58,78a1,1,0,0,0,.45.14,10.82,10.82,0,0,1,2.69.61,7.48,7.48,0,0,1,1.71.78c.54.25,1.11.45,1.64.73a5.32,5.32,0,0,1,.9.68c.23.18.44.39.67.57a18.43,18.43,0,0,1,1.51,1.27,4,4,0,0,1,.55,1,2.43,2.43,0,0,1-.69-.22c-.81-.54-1.59-1.12-2.41-1.65a3.74,3.74,0,0,0-.87-.37c-.7-.22-1.19-.79-1.85-1.06s-1.43-.54-2.14-.81l-2.57-1H56.05Z" fill="#5b5b5b"/><path d="M47.14,80.64c-.07-.67-.11-1.35-.21-2a6.12,6.12,0,0,0-.32-1,3.25,3.25,0,0,1,2-.55c.94,0,1.88,0,2.81,0a8.43,8.43,0,0,1,2.28.21c0,.18,0,.39-.08.47A2.32,2.32,0,0,0,53,79.39s-.09.1-.13.14l-.39-.61a3.45,3.45,0,0,0-2-.16c-.1,0-.21.08-.32.08-.65.06-1.3.1-2,.15a2.8,2.8,0,0,0-.76,1.44C47.34,80.5,47.21,80.57,47.14,80.64Z" fill="#5b5b5b"/><path d="M54.3,80.1a1.34,1.34,0,0,1-.72-1.54c.34-.4.34-.4,1-.34l.41.57A1.17,1.17,0,0,1,54.3,80.1Z" fill="#e4c584"/><path d="M45.3,78.7a.83.83,0,0,1,1.07-.36,1.12,1.12,0,0,1-.11,1.41c-.58.1-.58.1-1-.32Z" fill="#e4c584"/></svg>