<svg id="Layer_1" data-name="Layer 1" xmlns="http://www.w3.org/2000/svg" viewBox="0 0 105 105"><title>icon_empty</title><path d="M99.84,60c-.13-1.47-.43-2.93-.66-4.39a26.76,26.76,0,0,0-1.48-5.5c-.52-1.46-1.19-2.87-1.79-4.3a6.06,6.06,0,0,0-.27-.75c-.94-1.69-1.79-3.43-2.88-5a17.36,17.36,0,0,0-2.46-3.25,2.44,2.44,0,0,1-.65-.76,3.83,3.83,0,0,0-1.25-1.48c-.77-.8-1.5-1.65-2.32-2.4-1.13-1-2.28-2-3.5-2.93a50,50,0,0,0-4.87-3.28c-2-1.13-4-2.11-6.08-3.07a36.1,36.1,0,0,0-6.41-2.17c-1-.26-2-.46-3-.69-.31-.08-.61-.23-.93-.3-.56-.11-1.13-.18-1.69-.28a48.9,48.9,0,0,0-7.92-.63c-2,0-4.11.1-6.17.15-.14,0-.27,0-.41.06-.3,0-.61.11-.92.15-.13,0-.27,0-.4,0-.81.09-1.61.17-2.41.28-.51.07-1,.17-1.52.29s-.94.29-1.43.39c-1.09.21-2.2.35-3.28.6s-2.33.61-3.47,1a18.79,18.79,0,0,0-2.84,1c-.79.39-1.61.7-2.39,1.09-1,.51-2.06,1-3.09,1.55l-1.48.83-.27.3a2.65,2.65,0,0,0-.48.23,46.93,46.93,0,0,0-4.29,3A52.39,52.39,0,0,0,12.22,34c-.17.18-.33.37-.49.56-.51.57-1,1.14-1.53,1.73-.69.84-1.42,1.67-2,2.57-.93,1.38-1.88,2.73-2.7,4.18a49,49,0,0,0-2.24,4.39A42.87,42.87,0,0,0,1.4,52.62,34,34,0,0,0,.09,60.17,37.09,37.09,0,0,0,.35,68c.13.83.33,1.65.5,2.47a15.78,15.78,0,0,0,.8,3.39,35.76,35.76,0,0,0,3.24,7.58c.67,1.21,1.53,2.32,2.32,3.46a8.81,8.81,0,0,0,.83,1c.56.63,1.11,1.27,1.71,1.85a23.29,23.29,0,0,0,4.57,3.07c1.34.78,2.78,1.39,4.17,2.08.83.4,1.64.86,2.49,1.21,1.18.48,2.39.88,3.59,1.34,1.56.59,3.23.88,4.78,1.54a11.64,11.64,0,0,0,2.06.47h0c.25.46.5.92.76,1.37a15.49,15.49,0,0,0,.92,1.58,7.63,7.63,0,0,0,1.55,1.39,16.45,16.45,0,0,0,7,2.51c.78.15,1.58.22,2.36.3,1.22.14,2.44.34,3.66.37a51.08,51.08,0,0,0,9.08-.36,34.87,34.87,0,0,0,3.92-.79,21.6,21.6,0,0,0,2.68-1,6.89,6.89,0,0,0,3.94-3.23c.33-.68.78-1.31,1.17-2l.36-.18a27.87,27.87,0,0,0,3.26-.85,60.49,60.49,0,0,0,7.09-2.31c.62-.26,1.22-.58,1.82-.87a32.31,32.31,0,0,0,5.69-3.23,29.64,29.64,0,0,0,4.18-3.49c.85-1,1.75-1.85,2.52-2.87a32.1,32.1,0,0,0,3.76-6.43,31,31,0,0,0,1.7-5,5.16,5.16,0,0,0,.33-2,2.49,2.49,0,0,0,.26-.61c.2-1.7.46-3.39.53-5.1A35.59,35.59,0,0,0,99.84,60Z" fill="#fff"/></svg>