<?xml version="1.0" encoding="UTF-8"?>
<svg xmlns="http://www.w3.org/2000/svg" width="388.18" height="114.3" viewBox="0 0 388.18 114.3">
  <g id="a" data-name="Layer 2">
    <rect x="166.79" y="27.53" width="164.78" height="68.09" style="fill: #fff;"/>
  </g>
  <g id="b" data-name="Calque 1">
    <g>
      <g>
        <path d="m77.3,110.56c-.92,0-1.8-.36-2.46-1.01-.24-.22-7.4-6.42-31.34-7.29-3.92-.14-7.67-.22-11.13-.22-18.28,0-23.92,2.04-23.97,2.06-.43.18-.88.27-1.33.27-1.1,0-2.17-.53-2.84-1.48-.95-1.33-.82-3.15.27-4.37l28.71-32.2h-5.82c-3.83,0-6.95-3.12-6.95-6.95v-2.76c0-3.83,3.12-6.95,6.95-6.95h20.67l12.13-13.6c-4.94-.44-9.87-1.1-14.72-1.97-6.35-1.13-12.48-3.17-18.23-6.08-4.94,3.02-15.46,8.45-16.82,9.15-.51.26-1.06.39-1.6.39-.99,0-1.96-.42-2.64-1.21-1.06-1.22-1.15-3-.21-4.32L25.08,5.04c.55-.78,1.39-1.29,2.33-1.44.18-.03.35-.04.53-.04.76,0,1.51.25,2.13.72.08.06,9.59,6.98,29.52,7.34,4.29.08,7.91.12,11.08.12,13.53,0,19.5-.72,26.38-2.13.23-.05.47-.07.7-.07,1.21,0,2.35.62,2.99,1.68.77,1.26.66,2.87-.27,4.02-2.42,2.99-12.58,14.55-30.22,34.41h11.56c3.83,0,6.95,3.12,6.95,6.95v2.76c0,3.83-3.12,6.95-6.95,6.95h-26.38c-3.99,4.48-7.5,8.42-10.14,11.37,5.01.3,11.59.96,16.81,2.37,5.38,1.28,10.64,3.13,15.64,5.5,6.5-3.14,17.24-8.45,17.36-8.51.49-.25,1.03-.36,1.55-.36,1,0,1.99.43,2.67,1.24,1.04,1.23,1.11,3,.17,4.31l-19.34,26.89c-.61.84-1.55,1.37-2.59,1.45-.09,0-.17,0-.26,0Z"/>
        <path d="m27.94,7.06s10.03,7.67,31.58,8.06c4.22.08,7.89.12,11.15.12,13.37,0,19.62-.67,27.08-2.2-3.21,3.96-20.21,23.14-35.3,40.11h19.35c1.9,0,3.45,1.54,3.45,3.45v2.76c0,1.9-1.54,3.45-3.45,3.45h-27.95c-9.2,10.32-16.15,18.11-16.15,18.11,0,0,14.27,0,23.53,2.52,5.71,1.35,11.24,3.37,16.49,6,6.25-3,18.92-9.26,18.92-9.26l-19.34,26.89s-7.11-7.33-33.67-8.3c-4.19-.15-7.92-.22-11.26-.22-19.72,0-25.26,2.3-25.26,2.3l33.91-38.03h-13.63c-1.9,0-3.45-1.54-3.45-3.45v-2.76c0-1.9,1.54-3.45,3.45-3.45h22.24l17.94-20.12c-7.21-.32-14.38-1.12-21.48-2.4-6.67-1.18-13.1-3.44-19.04-6.69-3.03,2.26-18.23,10.09-18.23,10.09L27.94,7.06m69.81,5.98h0M27.92,0c-.34,0-.68.02-1.02.07-1.91.27-3.56,1.36-4.68,2.94L3.11,29.99c-1.86,2.63-1.69,6.2.43,8.64,1.37,1.57,3.31,2.41,5.29,2.41,1.09,0,2.18-.25,3.2-.78,2.77-1.43,10.38-5.38,15.38-8.29,5.55,2.61,11.4,4.47,17.46,5.55,2.71.49,5.44.91,8.19,1.27l-6.56,7.36h-19.1c-5.76,0-10.45,4.69-10.45,10.45v2.76c0,5.13,3.72,9.41,8.6,10.28L1.89,96.18c-2.23,2.5-2.58,6.32-.55,8.99,1.38,1.81,3.41,2.83,5.51,2.83.95,0,1.92-.21,2.85-.65.87-.26,6.81-1.82,22.67-1.82,3.42,0,7.12.07,11,.22,20.68.76,27.98,5.55,29,6.31,1.31,1.55,3.05,2.24,5.08,2.24.08,0,.16,0,.24,0,2.19-.06,4-1.38,5.28-3.15l19.34-26.89c1.88-2.61,1.73-6.16-.34-8.61-1.36-1.61-3.33-2.47-5.34-2.47-1.05,0-2.11.24-3.1.73-.11.05-9.33,4.62-15.84,7.78-4.74-2.13-9.68-3.81-14.74-5.02-3.21-.86-6.88-1.45-10.41-1.86,1.38-1.55,2.87-3.22,4.44-4.98h24.81c5.76,0,10.45-4.69,10.45-10.45v-2.76c0-5.76-4.69-10.45-10.45-10.45h-3.77c14.3-16.12,22.72-25.72,25.06-28.59,1.03-1.22,1.66-2.8,1.66-4.52,0-3.74-2.94-6.8-6.63-6.99-.12,0-.24,0-.37,0-.16,0-.31,0-.47.02-.37.02-.73.08-1.08.16-6.59,1.35-12.4,2.03-25.53,2.03-3.15,0-6.75-.04-11.02-.11-18.01-.33-26.88-6.23-27.49-6.65-1.23-.98-2.7-1.47-4.23-1.47h0Z" style="fill: #fff;"/>
      </g>
      <g>
        <path d="m168.22,47.56c-4.48-.33-7.93-4.21-7.74-8.69v-20.13c-.19-4.48,3.26-8.36,7.74-8.69.08,0,.17,0,.25,0s.17,0,.25,0c4.48.33,7.93,4.21,7.74,8.69v20.13c.19,4.48-3.26,8.36-7.74,8.69-.08,0-.17,0-.25,0s-.17,0-.25,0Z"/>
        <path d="m168.47,13.55c2.64.19,4.64,2.47,4.5,5.11v20.3c.15,2.65-1.85,4.92-4.5,5.11-2.64-.19-4.64-2.47-4.5-5.11v-20.3c-.15-2.65,1.85-4.92,4.5-5.11m0-7c-.17,0-.34,0-.51.02-6.33.46-11.21,5.93-10.99,12.24v20c-.22,6.32,4.66,11.78,10.99,12.24.17.01.34.02.51.02s.34,0,.51-.02c6.33-.46,11.21-5.93,10.99-12.24v-20c.22-6.32-4.66-11.78-10.99-12.24-.17-.01-.34-.02-.51-.02h0Z" style="fill: #fff;"/>
      </g>
      <g>
        <path d="m200.19,47.63c-.34,0-.69-.02-1.04-.07-2.14-.28-4.05-1.37-5.37-3.08-1.27-1.64-1.85-3.67-1.65-5.72v-12.56h-4.71v12.55c.06.6.05,1.22-.03,1.82-.52,4.01-3.96,7.05-8.01,7.05h0c-.34,0-.69-.02-1.04-.07-4.34-.56-7.44-4.48-7.02-8.8v-19.31c-.08-.43-.12-.86-.12-1.3.04-2.62,1.3-4.98,3.38-6.42,1.31-1.05,2.94-1.65,4.62-1.68.13,0,.26-.01.4-.01.12,0,.25,0,.37.01h19.59c.13,0,.27-.01.4-.01.19,0,.38,0,.57.02,4.45.31,7.9,4.2,7.7,8.69v20.02c.06.6.05,1.21-.03,1.81-.52,4.02-3.96,7.06-8.02,7.06Z"/>
        <path d="m199.96,13.54c.09,0,.19,0,.28.01,2.65.18,4.65,2.46,4.5,5.11v20.3c.05.39.05.78,0,1.17-.3,2.31-2.27,4-4.54,4-.19,0-.39-.01-.59-.04-2.51-.32-4.29-2.62-3.96-5.13v-16.25h-11.71v16.25c.05.39.05.78,0,1.17-.3,2.31-2.27,4-4.54,4-.19,0-.39-.01-.59-.04-2.51-.32-4.29-2.62-3.96-5.13v-19.86c-.08-.31-.12-.64-.12-.96.02-1.45.76-2.8,1.98-3.6.75-.64,1.7-.99,2.68-.99.08,0,.15-.01.23-.01s.16,0,.23.01h19.85c.09,0,.18-.01.28-.01m0-7c-.16,0-.33,0-.49.01h-19.4c-.15,0-.31-.01-.46-.01-.18,0-.36,0-.55.02-2.38.07-4.69.9-6.56,2.37-2.95,2.1-4.73,5.47-4.78,9.1,0,.05,0,.1,0,.15,0,.52.04,1.04.12,1.56v18.87c-.5,6.12,3.92,11.63,10.07,12.43.49.06.99.1,1.48.1,4.51,0,8.5-2.62,10.4-6.49,1.66,3.37,4.92,5.88,8.92,6.4.49.06.99.1,1.48.1,5.81,0,10.75-4.35,11.49-10.11.1-.8.12-1.61.06-2.41v-19.79c.24-6.33-4.63-11.79-10.97-12.25-.27-.02-.54-.03-.81-.03h0Z" style="fill: #fff;"/>
      </g>
      <g>
        <path d="m211.04,47.63c-.34,0-.69-.02-1.04-.07-4.34-.56-7.44-4.48-7.02-8.8v-20.02c-.2-4.49,3.26-8.38,7.75-8.69.08,0,.16,0,.24,0,.2,0,.4.02.59.05l.23.04h19.29c.12,0,.24,0,.36,0,4.36,0,8.01,3.4,8.33,7.75.01.15.01.3,0,.45-.13,2.23-1.12,4.21-2.65,5.63,1.49,1.39,2.49,3.33,2.64,5.5.01.17.01.34,0,.51-.32,4.34-3.98,7.75-8.33,7.75-.1,0-.2,0-.3,0h-12.07v1.04c.06.6.05,1.21-.03,1.81-.52,4.02-3.96,7.06-8.01,7.06h0Z"/>
        <path d="m210.98,13.55l.52.09h19.67c.09,0,.18,0,.27,0,2.53,0,4.65,1.95,4.84,4.5-.15,2.58-2.29,4.58-4.84,4.58-.09,0-.18,0-.27,0h-15.63v2.52h15.63c.09,0,.18,0,.27,0,2.53,0,4.65,1.95,4.84,4.5-.19,2.55-2.31,4.5-4.84,4.5-.08,0-.15,0-.23,0h-15.63v4.74c.05.39.05.78,0,1.17-.3,2.31-2.27,4-4.54,4-.19,0-.39-.01-.59-.04-2.51-.32-4.29-2.62-3.96-5.13v-20.3c-.15-2.65,1.85-4.93,4.5-5.11m0-7c-.16,0-.32,0-.49.02-6.36.44-11.25,5.91-11.01,12.25v19.79c-.24,2.88.6,5.71,2.38,8.02,1.89,2.45,4.62,4.02,7.69,4.41.49.06.99.1,1.48.1,5.74,0,10.63-4.25,11.46-9.91h8.59c.12,0,.24,0,.35,0,6.18,0,11.37-4.83,11.82-10.99.02-.34.02-.68,0-1.02-.14-1.91-.73-3.69-1.67-5.24.97-1.6,1.56-3.45,1.68-5.44.02-.3.02-.61,0-.91-.45-6.17-5.64-11-11.82-11-.14,0-.28,0-.42,0h-18.92c-.37-.06-.74-.09-1.12-.09h0Z" style="fill: #fff;"/>
      </g>
      <g>
        <path d="m248.58,47.13c-3.94,0-7.6-1.53-10.35-4.28-2.75-2.76-4.26-6.42-4.26-10.31v-7.89c.02-8.07,6.56-14.59,14.58-14.59h8.19c3.88.01,7.53,1.53,10.28,4.28,2.75,2.76,4.26,6.42,4.26,10.31v7.89c-.02,8.07-6.56,14.59-14.58,14.59h-8.11Zm6.51-15.35v-5.31h-5.44v5.31h5.44Z"/>
        <path d="m256.68,13.55s.02,0,.02,0c6.12,0,11.07,4.97,11.06,11.09v7.94c-.02,6.11-4.97,11.05-11.08,11.05-.01,0-.02,0-.03,0h-8.12c-6.12,0-11.07-4.97-11.06-11.09v-7.9s0-.03,0-.05c.02-6.11,4.97-11.05,11.08-11.05.01,0,.02,0,.03,0h8.08s.01,0,.02,0m-7.53,21.74h6.45c1.66,0,3-1.34,3-3v-6.31c0-1.66-1.34-3-3-3h-6.45c-1.63,0-2.97,1.31-3,2.94v6.37c0,1.66,1.34,3,3,3m7.53-28.74s-.05,0-.06,0h-8.04c-9.97,0-18.08,8.09-18.11,18.03,0,0,0,.06,0,.06v7.9c-.01,9.96,8.09,18.08,18.05,18.09h8.13c9.97,0,18.08-8.09,18.11-18.03,0,0,0-.06,0-.06v-7.9c0-4.82-1.87-9.36-5.28-12.78-3.41-3.42-7.95-5.31-12.78-5.31,0,0-.03,0-.03,0h0Z" style="fill: #fff;"/>
      </g>
      <g>
        <path d="m363.77,48.2c-3.76,0-7.03-2.62-7.88-6.26l-.41-1.23c-.72,3.78-4.01,6.55-7.93,6.55-.27,0-.54-.01-.81-.04-1.91-.19-3.61-1.04-4.88-2.29-1.46,1.45-3.48,2.33-5.69,2.33h0c-.27,0-.54-.01-.81-.04-4.37-.43-7.59-4.29-7.26-8.65v-19.22c-.01-.25-.02-.51,0-.76-.01-.28,0-.57.02-.85.31-4.27,3.97-7.67,8.32-7.67.12,0,.24,0,.36,0l19.39.07c4.26.07,7.79,3.08,8.52,7.21.11.38.2.67.35,1.1l6.13,18.37c.23.53.41,1.09.53,1.65.88,4.38-1.96,8.67-6.33,9.55-.53.11-1.07.16-1.61.16Z"/>
        <path d="m336.43,13.57c.09,0,.18,0,.27,0l19.47.07c2.58.04,4.74,1.95,5.11,4.5.16.55.27.91.48,1.5l6.16,18.47c.16.34.28.7.36,1.07.5,2.49-1.11,4.92-3.6,5.42-.31.06-.61.09-.92.09-2.15,0-4.06-1.51-4.51-3.69l-6.1-18.3h-1.06v16.01c.03.3.03.61,0,.91-.24,2.37-2.23,4.13-4.56,4.13-.15,0-.3,0-.46-.02-2.52-.25-4.36-2.5-4.11-5.02v-16.01h-2.25v16.01c.03.3.03.61,0,.91-.24,2.37-2.23,4.13-4.56,4.13-.15,0-.3,0-.46-.02-2.52-.25-4.36-2.5-4.11-5.02v-19.47c-.01-.22-.01-.45,0-.67-.01-.16-.01-.33,0-.49.19-2.55,2.31-4.5,4.84-4.5m0-7c-6.16,0-11.34,4.8-11.82,10.94-.03.36-.04.72-.03,1.09,0,.28,0,.55,0,.83v19.02c-.39,6.19,4.2,11.64,10.42,12.25.38.04.77.06,1.15.06,2.07,0,4.01-.54,5.7-1.49,1.35.76,2.89,1.26,4.53,1.43.38.04.77.06,1.15.06,2.93,0,5.6-1.07,7.65-2.87,2.14,2.36,5.23,3.81,8.58,3.81.77,0,1.55-.08,2.3-.23,6.27-1.27,10.34-7.4,9.07-13.67-.15-.76-.38-1.5-.68-2.21l-6.06-18.15c-.02-.05-.03-.1-.05-.15-.1-.28-.16-.47-.24-.74-1.1-5.68-5.99-9.8-11.83-9.89-.03,0-.05,0-.08,0l-19.33-.07c-.15,0-.29,0-.44,0h0Z" style="fill: #fff;"/>
      </g>
      <g>
        <path d="m294,47.13s-14.1,0-14.14,0c-7.87-.31-14.02-6.72-14.01-14.6v-7.89c.02-8.08,6.55-14.59,14.56-14.59.03,0,3.11.09,3.11.09h10.52c.12,0,.24,0,.36,0,4.36,0,8.01,3.4,8.33,7.75.01.15.01.3,0,.45-.25,4.42-3.92,7.88-8.34,7.88-.12,0-.23,0-.35,0h-12.29v4.93h12.25c.12,0,.24,0,.36,0,4.35,0,8.01,3.4,8.33,7.75.01.17.01.34,0,.51-.32,4.35-3.98,7.75-8.33,7.75,0,0-.24,0-.36,0Z"/>
        <path d="m280.42,13.55s.02,0,.03,0l3.03.09h10.66c.09,0,.18,0,.27,0,2.53,0,4.65,1.95,4.84,4.5-.15,2.58-2.29,4.58-4.84,4.58-.09,0-.18,0-.27,0h-13.49c-1.37.29-2.36,1.49-2.38,2.89v6.36c.01,1.15.69,2.2,1.74,2.68h14.09c.09,0,.18,0,.27,0,2.53,0,4.65,1.95,4.84,4.5-.19,2.55-2.31,4.5-4.84,4.5-.09,0-.18,0-.27,0h-14.09c-5.95-.23-10.66-5.13-10.64-11.09v-7.96c.02-6.1,4.97-11.03,11.06-11.03m0-7c-9.93,0-18.04,8.08-18.06,18.01v.08s0,7.9,0,7.9c-.02,9.75,7.61,17.7,17.37,18.09.09,0,.18,0,.27,0h13.94c.14,0,.28,0,.42,0,6.18,0,11.37-4.83,11.82-11,.02-.34.02-.68,0-1.02-.32-4.44-3.11-8.19-6.95-9.94,3.93-1.76,6.75-5.6,7.01-10.15.02-.3.01-.61,0-.91-.45-6.17-5.64-11-11.82-11-.14,0-.28,0-.42,0h-10.4l-2.92-.09c-.06,0-.13,0-.19,0,0,0-.04,0-.05,0h0Z" style="fill: #fff;"/>
      </g>
      <g>
        <path d="m311.19,47.13c-3.96-.01-7.61-1.54-10.36-4.29-2.74-2.76-4.25-6.42-4.24-10.31v-7.89c.02-8.08,6.55-14.59,14.56-14.59,0,0,8.24,0,8.27,0,3.82,0,7.47,1.53,10.21,4.29,2.74,2.76,4.25,6.42,4.24,10.31v7.89c-.02,8.08-6.55,14.59-14.56,14.59h-8.13Zm6.47-15.35v-5.31h-5.38v5.31h5.38Z"/>
        <path d="m319.32,13.55s.02,0,.03,0c6.11.02,11.05,4.98,11.03,11.09v7.9s0,.04,0,.06c-.02,6.1-4.97,11.03-11.06,11.03-.01,0-.02,0-.03,0h-8.15c-6.11-.02-11.05-4.98-11.03-11.09v-7.9s0-.04,0-.06c.02-6.1,4.97-11.03,11.06-11.03.01,0,.02,0,.03,0h8.09s.02,0,.03,0m-7.54,21.74h6.39c1.66,0,3-1.34,3-3v-6.31c0-1.66-1.34-3-3-3h-6.39c-1.63,0-2.97,1.31-3,2.94v6.37c0,1.66,1.34,3,3,3m7.54-28.74s-.05,0-.06,0h-8.07c-9.96,0-18.07,8.08-18.09,18.01v.11s0,7.87,0,7.87c-.03,9.94,8.05,18.07,18.01,18.09h.08s8.09,0,8.09,0c9.96,0,18.07-8.08,18.09-18.01v-.11s0-7.87,0-7.87c.01-4.81-1.85-9.35-5.26-12.77-3.4-3.42-7.93-5.31-12.76-5.33,0,0-.04,0-.05,0h0Z" style="fill: #fff;"/>
      </g>
      <g>
        <rect x="96.64" y="76.29" width="23.8" height="12.4" rx="3.5" ry="3.5"/>
        <path d="m116.95,79.79v5.4h-16.8v-5.4h16.8m0-7h-16.8c-3.87,0-7,3.13-7,7v5.4c0,3.87,3.13,7,7,7h16.8c3.87,0,7-3.13,7-7v-5.4c0-3.87-3.13-7-7-7h0Z" style="fill: #fff;"/>
      </g>
      <g>
        <path d="m191.24,104.68c-1.93,0-3.5-1.57-3.5-3.5v-2.5c0-1.75,1.29-3.23,3.03-3.47.28-.04.58-.07.89-.11.21-.02.47-.05.75-.09-.56-1.98-1.47-4.92-1.99-6.59-.08-.24-.15-.47-.21-.68h-8.88c-.69,2.32-1.27,4.68-1.74,7.04.45.16,1.22.34,2.37.4,1.86.1,3.31,1.63,3.31,3.5v2.44c0,1.93-1.57,3.5-3.5,3.5h-13.43c-.21.04-.42.06-.63.06h-17.67c-1.93,0-3.5-1.57-3.5-3.5v-2.5c0-.11,0-.21.01-.32l-1.03,3.13c-.47,1.44-1.81,2.41-3.33,2.41h-1.41c-1.32,0-2.51-.74-3.11-1.89-.4,1.5-1.76,2.61-3.38,2.61h-16.14c-1.93,0-3.5-1.57-3.5-3.5v-2.44c0-1.87,1.47-3.41,3.33-3.5,2.82-.14,3.18-.15,3.2-7.06v-.62c-.05-.95-.03-3.32,0-7.57.05-5.75.14-17.6-.22-19.84,0-.03-.02-.05-.03-.08-.34-1.03-1.29-1.72-2.37-1.72-.03,0-.06,0-.1,0-.91,0-1.82-.35-2.48-.99-.68-.66-1.09-1.56-1.09-2.51v-2.43c0-1.93,1.57-3.5,3.5-3.5h13.64c1.53,0,2.88,1,3.34,2.46l8.15,26.08c2.61-7.99,7.42-22.75,7.57-25.13.04-1.91,1.59-3.4,3.5-3.4h13.06c1.93,0,3.5,1.57,3.5,3.5v2.44c0,1.74-1.27,3.21-2.99,3.46-.23.03-.48.06-.74.1-.42.05-1.19.15-1.69.28-.02.13-.03.27-.02.41v35.24c0,.14,0,.28-.03.42,0,0,0,0,0,0,.17.12.54.3,1.12.43,1.55-.22,2.62-1.36,3.19-3.41.02-.05.03-.11.05-.16,2.85-8.67,6.62-20.53,9.94-30.99,1.14-3.6,2.23-7.01,3.19-10.02.46-1.45,1.81-2.44,3.33-2.44h2.26c1.53,0,2.88.99,3.34,2.44,0,0,13.36,42.18,13.37,42.21.12.43.3.83.52,1.21.5.69,1.26,1.12,2.11,1.18,1.83.13,3.25,1.65,3.25,3.49v2.5c0,1.93-1.57,3.5-3.5,3.5h-16.64Zm-44.19-7.82c.58-.96,1.62-1.63,2.83-1.68.68-.03,2.19-.1,2.83-.35.05-.15.08-.3.07-.46,0-.04,0-14.96,0-14.96l-5.73,17.46Zm-16.16-16.88c.01,5.94.1,11.46.4,12.76.04.16.06.32.08.49.04.54.12,1.46,3.49,1.98.27.04.52.11.77.21l-4.73-15.45Zm56.11-2.25l-1.22-3.85-1.22,3.85h2.44Z"/>
        <path d="m188.78,51.64l13.34,42.11c.22.77.54,1.5.96,2.17,1.09,1.6,2.86,2.62,4.8,2.76v2.5h-16.64v-2.5c1.87-.25,4.63-.31,5.11-1.95.25-.67-3.34-11.56-3.54-12.49h-14.05c-1.09,3.25-1.96,6.57-2.62,9.94-1.12,3.45,2.83,4.35,5.64,4.5v2.44h-14.06v.06h-17.67v-2.5c1.89-.09,5.08-.21,5.82-2.31.3-.67.45-1.4.42-2.13v-35.44h-.42l-13.66,41.6h-1.41l-13-42.47h-.37c.18,4.68-.43,31.69.45,35.59.3,3.66,3.57,4.71,6.43,5.16v2.44h-16.14v-2.44c6.76-.33,6.51-4.84,6.54-11.27-.16-2.34.43-26.98-.42-28.48-.81-2.47-3.11-4.12-5.7-4.12-.06,0-.11,0-.17,0v-2.43h13.64l11.45,36.64c1.18-4.33,11.03-32.83,11.11-36.64h13.06v2.44c-1.63.24-4.5.34-5.11,2.19-.23.68-.34,1.39-.33,2.1v35.2c-.34,2.82,2.17,4.06,4.56,4.41v-.03c3.46-.24,5.68-2.68,6.6-6,3.85-11.71,9.41-29.38,13.13-41.04h2.26m-8.99,29.59h11.99l-6-18.95-6,18.95m8.99-36.59h-2.26c-3.05,0-5.74,1.97-6.67,4.87-.96,3-2.03,6.4-3.17,9.99-2.42,7.63-5.08,15.99-7.44,23.32v-21.18c3.16-.72,5.44-3.54,5.44-6.82v-2.44c0-3.87-3.13-7-7-7h-13.06c-3.73,0-6.79,2.93-6.99,6.63-.26,1.79-2.08,7.77-4.02,13.87l-4.87-15.58c-.91-2.92-3.62-4.91-6.68-4.91h-13.64c-3.87,0-7,3.13-7,7v2.43c0,1.89.76,3.7,2.12,5.02,1.11,1.08,2.55,1.76,4.08,1.94.21,3.72.13,13.26.09,18.15-.04,4.64-.05,6.64,0,7.67v.54c0,1.14,0,2.58-.09,3.59-3.63.29-6.45,3.32-6.45,6.98v2.44c0,3.87,3.13,7,7,7h16.14c1.46,0,2.81-.44,3.93-1.21.8.31,1.67.49,2.56.49h1.41c1.2,0,2.34-.3,3.35-.85,1.22,1.02,2.78,1.63,4.49,1.63h17.67c.31,0,.62-.02.92-.06h13.14c1.81,0,3.45-.68,4.7-1.81,1.25,1.16,2.92,1.87,4.76,1.87h16.64c3.87,0,7-3.13,7-7v-2.5c0-3.52-2.61-6.47-6.05-6.94-.01-.04-.02-.07-.03-.11l-13.34-42.11c-.92-2.91-3.62-4.89-6.67-4.89h0Zm-4.79,46.6h3.64c.12.39.25.8.38,1.23-.55.28-1.05.64-1.5,1.05-.76-.7-1.68-1.23-2.71-1.54.06-.24.12-.49.19-.73h0Z" style="fill: #fff;"/>
      </g>
      <g>
        <path d="m224.25,105.85c-6.52-.25-12.02-3.28-15.89-8.77-6.6-9.37-6.73-22.82-4.06-31.4,2.75-10.4,11.63-17.94,21.15-17.94,2.9,0,5.77.7,8.46,2.04.64-.61,1.5-.96,2.41-.96h2.25c1.91,0,3.47,1.54,3.5,3.45l.25,17.4c.01.94-.35,1.84-1.01,2.51-.66.67-1.56,1.04-2.49,1.04h-2.31c-1.67,0-3.1-1.18-3.43-2.81-.63-3.15-1.95-9.69-5.28-12.07-.67-.45-1.45-.7-2.31-.7-2.23,0-4.69,1.65-5.99,4.02-2.02,3.69-3.05,8.74-3.06,15.03,0,4.66.84,13.08,6.49,17.14,1.14.74,2.31,1.11,3.47,1.11,3.6,0,7.29-3.61,8.41-8.23.26-1.08,1.02-1.97,2.04-2.4.44-.19.9-.28,1.37-.28.62,0,1.23.16,1.78.48l2.11,1.25c1.42.84,2.07,2.56,1.54,4.12-2.25,6.75-6.69,15.74-19.21,15.96-.02,0-.04,0-.06,0-.04,0-.09,0-.13,0Z"/>
        <path d="m225.46,51.24c3.23,0,6.56,1.05,9.71,3.41l1.17-2.34h2.25l.25,17.4h-2.31c-.97-4.84-2.52-11.26-6.69-14.23-1.37-.93-2.86-1.35-4.34-1.35-3.62,0-7.21,2.46-9.06,5.84-2.61,4.77-3.48,10.76-3.49,16.7,0,7.5,1.87,15.68,8.02,20.04,1.82,1.19,3.67,1.71,5.44,1.71,5.53,0,10.4-5.08,11.81-10.9l2.11,1.24c-2.89,8.66-7.42,13.42-15.95,13.57-16.62-.63-20.88-22.49-16.71-35.71,2.31-8.87,9.73-15.41,17.79-15.41m0-7h0c-11.06,0-21.34,8.6-24.51,20.47-2.9,9.38-2.7,24.07,4.56,34.38,4.52,6.42,10.96,9.96,18.62,10.25.09,0,.18,0,.27,0,.04,0,.08,0,.12,0,16.44-.29,20.97-13.88,22.47-18.35,1.05-3.13-.24-6.57-3.09-8.25l-2.11-1.24c-1.09-.64-2.32-.97-3.55-.97-.93,0-1.86.18-2.73.55-2.04.86-3.55,2.65-4.07,4.8-.77,3.18-3.28,5.55-5.01,5.55-.46,0-.96-.17-1.5-.51-4.31-3.17-4.96-10.28-4.96-14.25.01-5.68.9-10.17,2.63-13.34.72-1.32,2.09-2.2,2.92-2.2.12,0,.21.02.35.1,2.16,1.65,3.4,7.81,3.81,9.85.66,3.27,3.53,5.62,6.86,5.62h2.31c1.87,0,3.67-.75,4.99-2.09,1.32-1.33,2.04-3.14,2.01-5.02l-.25-17.4c-.06-3.83-3.17-6.9-7-6.9h-2.25c-.93,0-1.83.18-2.65.52-2.64-1.05-5.42-1.6-8.22-1.6h0Z" style="fill: #fff;"/>
      </g>
      <g>
        <path d="m337.91,105.21c-1.22,0-2.36-.64-2.99-1.69l-17.77-29.32c-.05,7.23-.05,16.48.38,18.47.03.15.06.31.07.47.05.65.12,1.53,3.78,2.14,1.69.28,2.92,1.74,2.92,3.45v2.44c0,1.93-1.57,3.5-3.5,3.5h-34.88c-.2.04-.41.06-.62.06-.03,0-2.64-.06-2.64-.06h-16.56c-1.93,0-3.5-1.57-3.5-3.5v-2.5c0-1.76,1.31-3.25,3.05-3.47.29-.04.63-.07.99-.1.33-.03.84-.07,1.23-.14.19-2.47.12-9.1.08-12.48,0-.63-.01-1.18-.02-1.67h-11.74c0,.38,0,.79,0,1.25-.03,3.51-.09,10.48.09,12.76.39.16,1.09.34,1.95.42,1.81.15,3.2,1.67,3.2,3.49v2.44c0,1.93-1.57,3.5-3.5,3.5h-16.61c-1.93,0-3.5-1.57-3.5-3.5v-2.5c0-1.87,1.48-3.42,3.35-3.5,1.13-.05,1.72-.14,2.03-.22,0-.03-.01-.25-.01-.33v-35.18c0-.12,0-.23.02-.35-.11-.19-.95-.67-2.24-.8-1.79-.18-3.15-1.69-3.15-3.48v-2.44c0-1.93,1.57-3.5,3.5-3.5h16.61c1.93,0,3.5,1.57,3.5,3.5v2.44c0,1.74-1.29,3.22-3.01,3.47l-.51.07c-.41.05-1.15.15-1.64.28-.17,2.19-.11,8.18-.08,11.23,0,.32,0,.61,0,.89h11.8c0-.26,0-.55,0-.85.03-3.02.1-9.05-.1-10.98-.26-.15-.9-.43-2.28-.64-1.71-.26-2.97-1.73-2.97-3.46v-2.44c0-1.93,1.57-3.5,3.5-3.5h49.02c1.23,0,2.36.64,3,1.69l16.02,26.51c.04-6.58.02-14.59-.4-16.51-.04-.16-.06-.32-.07-.49-.05-.61-.09-1.18-3.71-1.81-1.67-.29-2.9-1.75-2.9-3.45v-2.44c0-1.93,1.57-3.5,3.5-3.5h47.58c1.93,0,3.5,1.57,3.5,3.5v11.83c0,1.93-1.57,3.5-3.5,3.5h-2.11c-.14,0-.29,0-.43-.03v17.96c0,1.93-1.57,3.5-3.5,3.5h-2.11c-1.79,0-3.29-1.35-3.48-3.14-.53-5.05-.75-5.24-4.11-5.25v11.2c0,.83,0,2.16.15,2.75,2.11.12,3.98.22,5.45.22,4.58,0,4.67,0,7.84-9.25.49-1.41,1.82-2.36,3.31-2.36h2.01c.96,0,1.88.39,2.54,1.09.66.7,1.01,1.63.96,2.59l-.75,14.38c-.1,1.86-1.63,3.32-3.5,3.32h-33.22c-1.61,0-2.97-1.09-3.37-2.57-.2,1.75-1.69,3.09-3.48,3.09h-2.46Zm9.21-46.89c-2.88.47-2.89.92-2.91,1.54,0,.2-.03.39-.07.59-.4,2.27-.32,20.34-.27,30.05.01,2.71.02,5.15.03,7.09.43-1.31,1.62-2.29,3.07-2.4.54-.04,1.85-.14,2.47-.35,0-.02,0-.05,0-.07,0-.1-.01-.19-.01-.29v-35.03c0-.21-.01-.4-.05-.57-.42-.25-1.42-.56-2.22-.56h-.02Zm-63.06,36.98c.29-.08.6-.12.91-.12,1.64,0,2.44-.12,2.84-.23,0-.09,0-.17,0-.26,0,0,0-35.37,0-35.4,0-.1,0-.2-.01-.3-.46-.25-1.46-.57-2.61-.68h-2.21c-.12.02-.24.03-.36.05-.4.05-1.12.15-1.6.28-.02.14-.03.29-.02.43v35.23c0,.15,0,.29-.03.44,0,0,0,0,0,0,.25.18.93.47,1.9.55h1.2Zm16.78-.58c.55.25,1.7.41,2.44.5.11-.02.22-.03.33-.03,3.52-.16,3.73-.17,3.8-6.75v-1.13c-.03-.78-.02-2.52.02-6.72.04-5.57.13-16.99-.22-19.32-.05-.13-.09-.27-.13-.41-.37-1.5-1.72-2.55-3.26-2.55h-.41c-1.53.09-2.28.32-2.6.46,0,.09.01.18.01.27v35.33c0,.13,0,.24.03.34Zm61.58-23.66c3.26,0,3.55-.17,4.12-4.96.21-1.76,1.7-3.09,3.48-3.09h1.99c-.74-1.71-1.91-3.6-2.66-4.14-2.3-.17-4.62-.26-6.92-.27v12.45Z"/>
        <path d="m378.17,52.37v11.83h-2.11c-.49-2.55-3.31-8.32-6-8.78-2.7-.21-5.4-.31-8.11-.31-1.01,0-2.02.01-3.03.04v19.34c1.16.03,2.2.07,3.14.07,5.12,0,7.12-.98,7.95-8.04h2.11v19.13h-2.11c-.77-7.34-2.68-8.39-8.02-8.39-.92,0-1.94.03-3.08.07v14.63c0,3,0,5.8,3.25,6.24,2.34.14,4.25.24,5.85.24,6.93,0,7.84-1.96,11.15-11.62h2.01l-.75,14.38h-33.22v-2.5c2.8-.21,6-.55,5.7-4.2v-35.03c.01-.68-.1-1.36-.31-2.01-.65-1.81-3.68-2.62-5.45-2.62-.03,0-.06,0-.09,0h-.21c-2.82.43-6,1.17-6.13,4.92-.7,3.39-.21,37.66-.34,41.97h-2.46l-24.24-39.98c.16,4.69-.43,27.69.43,31.69.3,3.82,3.73,4.83,6.69,5.32v2.44h-35.5v.06l-2.56-.06h-16.64v-2.5c1.5-.19,4.29-.09,4.96-1.87.79-.69.22-18.24.39-19.49h-18.77c.12,1.18-.31,18.47.33,19.02.55,1.69,3.33,2.26,4.92,2.4v2.44h-16.61v-2.5c2.76-.12,5.61-.49,5.37-4.05v-35.18c.3-3-2.83-4.38-5.37-4.63v-2.44h16.61v2.44c-1.6.22-4.33.4-4.92,2.19-.64.85-.21,15.92-.33,17.24h18.81c-.13-1.33.36-15.98-.36-16.8-.73-1.77-3.31-2.37-4.99-2.62v-2.44h49.02l22.49,37.21c-.16-4.68.43-25.75-.45-29.77-.28-3.75-3.76-4.5-6.6-4.99v-2.44h47.58m-74.86,46.36h.46v-.06c7.5-.34,7.05-4.57,7.15-11.45-.15-1.93.42-26.11-.45-27.21-.76-3.07-3.52-5.21-6.66-5.21-.08,0-.17,0-.25,0h-.25c-2.62.13-6.42.75-6,4.23v35.33c-.01.69.13,1.38.4,2.01.79,1.83,3.81,2.16,5.59,2.35m-20.58.06h2.25v-.12c3.1,0,6.66-.27,6.33-3.99v-35.3c.02-.68-.09-1.36-.31-2.01-.74-1.64-3.66-2.41-5.7-2.57h0s-.7,0-1.32,0h-1.24c-1.59.24-4.33.39-4.92,2.19-.21.68-.32,1.39-.31,2.1v35.2c-.39,3.09,2.67,4.32,5.23,4.5m98.46-11.99h0m-3.02-41.43h-47.58c-3.87,0-7,3.13-7,7v.43l-2.45-4.05c-1.27-2.1-3.54-3.38-5.99-3.38h-49.02c-1.53,0-2.95.49-4.11,1.33-1.15-.84-2.57-1.33-4.11-1.33h-16.61c-3.87,0-7,3.13-7,7v2.44c0,3.27,2.26,6.06,5.37,6.81v30.25c-3.09.74-5.37,3.52-5.37,6.81v2.5c0,3.87,3.13,7,7,7h16.61c1.52,0,2.94-.49,4.08-1.31,1.15.83,2.56,1.31,4.08,1.31h16.56l2.48.06c.05,0,.11,0,.16,0,.31,0,.61-.02.91-.06h34.58c3.87,0,7-3.13,7-7v-2.44c0-.08,0-.15,0-.23l4.14,6.82c1.27,2.09,3.54,3.37,5.99,3.37h2.46c1.44,0,2.78-.43,3.89-1.18.9.42,1.9.66,2.96.66h33.22c3.72,0,6.8-2.92,6.99-6.64l.74-14.18c.01-.19.02-.37.02-.56,0-3.87-3.13-7-7-7h-2.01s-.03,0-.05,0v-8.67c3.41-.47,6.04-3.39,6.04-6.93v-11.83c0-3.87-3.13-7-7-7h0Zm-118.51,16.22c.87-.22,1.67-.6,2.37-1.11.73.53,1.57.92,2.48,1.14.03,1.66.02,3.8,0,5.62h-4.86c-.01-1.8-.02-3.92,0-5.65h0Zm70.92,2.76l-1.66-2.75c.16.04.31.07.47.1.21.04.63.11,1.04.2.06.6.11,1.44.14,2.45h0Zm-70.92,19.95h4.8c.02,2.31.04,5.27,0,7.55-.92.22-1.77.62-2.51,1.15-.68-.48-1.46-.85-2.3-1.06-.04-2.25-.02-5.28,0-7.64h0Zm61.24,7.31c-.11-.91-.18-2.67-.22-4.84l3.55,5.85c-.69-.39-1.46-.67-2.28-.8-.45-.07-.79-.15-1.05-.21h0Zm45.03-.25v-.06s.06.04.09.06c-.03,0-.06,0-.09,0h0Z" style="fill: #fff;"/>
      </g>
    </g>
    <g>
      <path d="m8.82,34.04L27.94,7.06s10.03,7.68,31.58,8.06c21.56.39,28.95-.18,38.23-2.08-6,7.39-60.05,67.88-60.05,67.88,0,0,14.27,0,23.53,2.52,5.71,1.35,11.24,3.37,16.49,6,6.25-3,18.92-9.26,18.92-9.26l-19.34,26.89s-7.11-7.33-33.67-8.3c-28.95-1.06-36.52,2.08-36.52,2.08l60.46-67.8c-7.21-.32-14.38-1.12-21.48-2.4-6.67-1.18-13.1-3.44-19.04-6.69-3.03,2.26-18.23,10.09-18.23,10.09Z"/>
      <rect x="23.95" y="53.15" width="61.3" height="9.65" rx="3.45" ry="3.45"/>
      <g id="c" data-name="layer1">
        <path id="d" data-name="rect4734" d="m168.47,13.55h0c2.64.19,4.64,2.47,4.5,5.11v20.3c.15,2.65-1.85,4.92-4.5,5.11h0c-2.64-.19-4.64-2.47-4.5-5.11v-20.3c-.15-2.65,1.85-4.92,4.5-5.11Z"/>
        <path id="e" data-name="rect4736" d="m179.37,13.55c-.98,0-1.93.35-2.68.99-1.22.8-1.96,2.14-1.98,3.6,0,.32.04.65.12.96v19.86c-.32,2.51,1.45,4.81,3.96,5.13,2.51.32,4.81-1.45,5.13-3.96.05-.39.05-.78,0-1.17v-16.25h11.71v16.25c-.32,2.51,1.45,4.81,3.96,5.13,2.51.32,4.81-1.45,5.13-3.96.05-.39.05-.78,0-1.17v-20.3c.15-2.65-1.85-4.93-4.5-5.11-.18-.02-.37-.02-.55,0h-19.85c-.15-.02-.31-.02-.46,0Z"/>
        <path id="f" data-name="rect4740" d="m210.98,13.55c-2.65.18-4.65,2.46-4.5,5.11v20.3c-.32,2.51,1.45,4.81,3.96,5.13,2.51.32,4.81-1.45,5.13-3.96.05-.39.05-.78,0-1.17v-4.74h15.63c2.63.12,4.87-1.87,5.07-4.5-.19-2.64-2.47-4.64-5.11-4.5h-15.63v-2.52h15.63c2.67.14,4.96-1.9,5.11-4.57-.19-2.64-2.47-4.64-5.11-4.5h-19.67l-.52-.09Z"/>
        <path id="g" data-name="rect4742" d="m248.58,13.55c-6.12-.02-11.09,4.93-11.11,11.05,0,.02,0,.03,0,.05v7.9c0,6.12,4.94,11.08,11.06,11.09.02,0,.03,0,.05,0h8.08c6.12.02,11.09-4.93,11.11-11.05,0-.02,0-.03,0-.05v-7.9c0-6.12-4.94-11.08-11.06-11.09-.02,0-.03,0-.05,0h-8.08Zm.57,9.43h6.45c1.66,0,3,1.34,3,3v6.31c0,1.66-1.34,3-3,3h-6.45c-1.66,0-3-1.34-3-3v-6.37c.03-1.63,1.37-2.94,3-2.94h0Z"/>
        <path id="h" data-name="rect4762" d="m336.71,13.58c-2.65-.15-4.92,1.85-5.11,4.5-.01.16-.01.33,0,.49-.01.22-.01.45,0,.67v19.47c-.25,2.52,1.59,4.77,4.11,5.02,2.52.25,4.77-1.59,5.02-4.11.03-.3.03-.61,0-.91v-16.01h2.25v16.01c-.25,2.52,1.59,4.77,4.11,5.02,2.52.25,4.77-1.59,5.02-4.11.03-.3.03-.61,0-.91v-16.01h1.06l6.1,18.3c.5,2.49,2.93,4.1,5.42,3.6s4.1-2.93,3.6-5.42c-.07-.37-.19-.73-.36-1.07l-6.16-18.47c-.21-.58-.31-.94-.48-1.5-.37-2.55-2.53-4.46-5.11-4.5l-19.47-.07Z"/>
        <path id="i" data-name="rect4752" d="m280.45,13.55c-6.11-.02-11.08,4.92-11.09,11.03,0,.02,0,.04,0,.06v7.9c-.01,5.96,4.69,10.86,10.64,11.09h14.09c2.65.15,4.92-1.85,5.11-4.5-.19-2.64-2.47-4.64-5.11-4.5h-14.09c-1.05-.48-1.72-1.53-1.74-2.68v-6.36c.02-1.4,1.01-2.61,2.38-2.89h13.49c2.67.14,4.96-1.9,5.11-4.57-.19-2.64-2.47-4.64-5.11-4.5h-10.66l-3.03-.09Z"/>
        <path id="j" data-name="path4785" d="m311.19,13.55c-6.11-.02-11.08,4.92-11.09,11.03,0,.02,0,.04,0,.06v7.9c-.02,6.11,4.92,11.08,11.03,11.09.02,0,.04,0,.06,0h8.09c6.11.02,11.08-4.92,11.09-11.03,0-.02,0-.04,0-.06v-7.9c.02-6.11-4.92-11.08-11.03-11.09-.02,0-.04,0-.06,0h-8.09Zm.58,9.43h6.39c1.66,0,3,1.34,3,3v6.31c0,1.66-1.34,3-3,3h-6.39c-1.66,0-3-1.34-3-3v-6.37c.03-1.63,1.37-2.94,3-2.94Z"/>
      </g>
      <path d="m116.95,85.19h-16.8v-5.4h16.8v5.4Z"/>
      <path d="m167.72,101.18h-17.67v-2.5c1.89-.09,5.08-.21,5.82-2.31.3-.67.45-1.4.42-2.13v-35.44h-.42l-13.66,41.6h-1.41l-13-42.47h-.37c.18,4.68-.43,31.69.45,35.59.3,3.66,3.57,4.71,6.43,5.16v2.44h-16.14v-2.44c6.76-.33,6.51-4.84,6.54-11.27-.16-2.34.43-26.98-.42-28.48-.83-2.52-3.21-4.2-5.86-4.12v-2.43h13.64l11.45,36.64c1.18-4.33,11.03-32.83,11.11-36.64h13.06v2.44c-1.63.24-4.5.34-5.11,2.19-.23.68-.34,1.39-.33,2.1v35.2c-.39,3.19,2.88,4.36,5.49,4.5v2.38Z"/>
      <path d="m207.88,101.18h-16.64v-2.5c1.87-.25,4.63-.31,5.11-1.95.25-.67-3.34-11.56-3.54-12.49h-14.05c-1.09,3.25-1.96,6.57-2.62,9.94-1.12,3.45,2.83,4.35,5.64,4.5v2.44h-14.99v-2.44c3.46-.24,5.68-2.68,6.6-6,3.85-11.71,9.41-29.38,13.13-41.04h2.26l13.34,42.11c.22.77.54,1.5.96,2.17,1.09,1.6,2.86,2.62,4.8,2.76v2.5Zm-16.1-19.95l-6-18.95-6,18.95h11.99Z"/>
      <path d="m224.38,102.35c-16.62-.63-20.88-22.49-16.71-35.71,3.24-12.43,16.49-20.27,27.49-11.99l1.17-2.34h2.25l.25,17.4h-2.31c-.97-4.84-2.52-11.26-6.69-14.23-4.72-3.21-10.79-.27-13.4,4.5s-3.48,10.76-3.49,16.7c0,7.5,1.87,15.68,8.02,20.04,7.5,4.9,15.39-1.5,17.25-9.19l2.11,1.24c-2.89,8.66-7.42,13.42-15.95,13.57Z"/>
      <path d="m282.73,101.18h-16.64v-2.5c1.5-.19,4.29-.09,4.96-1.87.79-.69.22-18.24.39-19.49h-18.77c.12,1.18-.31,18.47.33,19.02.55,1.69,3.33,2.26,4.92,2.4v2.44h-16.61v-2.5c2.76-.12,5.61-.49,5.37-4.05v-35.18c.3-3-2.83-4.38-5.37-4.63v-2.44h16.61v2.44c-1.6.22-4.33.4-4.92,2.19-.64.85-.21,15.92-.33,17.24h18.81c-.13-1.33.36-15.98-.36-16.8-.73-1.77-3.31-2.37-4.99-2.62v-2.44h19.16v2.44h-2.56c-1.59.24-4.33.39-4.92,2.19-.21.68-.32,1.39-.31,2.1v35.2c-.39,3.09,2.67,4.32,5.23,4.5h2.56v2.44l-2.56-.06Z"/>
      <path d="m303.31,101.18h-18.33v-2.5c3.1,0,6.66-.27,6.33-3.99v-35.3c.02-.68-.09-1.36-.31-2.01-.78-1.72-3.96-2.49-6-2.59l.1-2.41h18.62v2.44h-.4c-2.62.13-6.42.75-6,4.23v35.33c-.01.69.13,1.38.4,2.01.79,1.83,3.81,2.16,5.59,2.35h1.08v2.44h-1.08Z"/>
      <path d="m346.84,54.82c-2.82.43-6,1.17-6.13,4.92-.7,3.39-.21,37.66-.34,41.97h-2.46l-24.24-39.98c.16,4.69-.43,27.69.43,31.69.3,3.82,3.73,4.83,6.69,5.32v2.44h-17.01v-2.5c7.5-.34,7.05-4.57,7.15-11.45-.15-1.93.42-26.11-.45-27.21-.78-3.15-3.67-5.32-6.91-5.2v-2.44h11.59l22.49,37.21c-.16-4.68.43-25.75-.45-29.77-.28-3.75-3.76-4.5-6.6-4.99v-2.44h16.64v2.44h-.39Z"/>
      <path d="m381.18,86.81l-.75,14.38h-33.22v-2.5c2.8-.21,6-.55,5.7-4.2v-35.03c.01-.68-.1-1.36-.31-2.01-.66-1.84-3.79-2.65-5.55-2.62v-2.44h31.12v11.83h-2.11c-.49-2.55-3.31-8.32-6-8.78-3.71-.29-7.42-.38-11.14-.27v19.34c7.5.22,10.1.37,11.09-7.97h2.11v19.13h-2.11c-.9-8.6-3.37-8.56-11.09-8.32v14.63c0,3,0,5.8,3.25,6.24,12.49.73,12.92.51,17-11.38h2.01Z"/>
    </g>
  </g>
</svg>