<svg xmlns="http://www.w3.org/2000/svg" width="129.60143" height="200">
  <path fill="#e6e6e6" d="M129.60143 192.47649c0 4.12002-3.40349 7.52351-7.52351 7.52351H7.523511C3.4034931 200 0 196.59651 0 192.47649V7.523511C0 3.403493 3.4034931 0 7.523511 0H121.98836c4.12001 0 7.52351 3.403493 7.52351 7.523511V192.47649z"/>
  <path fill="#b3b3b3" d="M5.2843708 69.502911H124.31706V182.08688H5.2843708z"/>
  <path fill="#202022" d="M3.4930587 4.388715v52.037617c0 4.209584 3.403493 7.613077 7.5235113 7.613077h107.56829c4.12002 0 7.52351-3.403493 7.52351-7.613077V4.388715H3.4930587z"/>
  <path d="M3.4930587 4.388715H126.10837v10.38961H3.4930587z"/>
  <path fill="#ccc" d="M82.758621 190.95387l-18.002687-5.37393-17.913122 5.37393v5.82177h35.915809"/>
  <path fill="#f8b81e" d="M6.7174205 6.986117h1.7913121v6.896552H6.7174205zM9.8522167 5.91133h1.7913123v8.060905H9.8522167zm3.0452303 0h1.791313v8.060905h-1.791313zm3.134797 0h1.791312v8.060905h-1.791312zm3.04523 0h1.791312v8.060905h-1.791312zm3.134796 0h1.791313v8.060905H22.21227zm3.045231 0h1.791312v8.060905h-1.791312zm3.134796 0h1.791312v8.060905h-1.791312zm3.045231 0h1.791312v8.060905h-1.791312zm3.134796 0h1.791312v8.060905h-1.791312zm3.045231 0h1.791312v8.060905h-1.791312zm3.134796 0h1.791312v8.060905h-1.791312zm3.045231 0h1.791312v8.060905h-1.791312zm3.134796 0h1.791312v8.060905h-1.791312zm3.045231 0h1.791312v8.060905h-1.791312zm3.134796 0h1.791312v8.060905h-1.791312zm3.04523 0h1.791313v8.060905h-1.791313zm3.134797-1.522615h1.791312v10.38961h-1.791312zm3.04523 1.522615h1.791312v8.060905h-1.791312zm3.134797 0h1.791312v8.060905h-1.791312zm3.04523 0h1.791312v8.060905h-1.791312zm3.134796 0h1.791313v8.060905h-1.791313zm3.045231 0h1.791312v8.060905h-1.791312zm3.134796 0h1.791312v8.060905h-1.791312zm3.045231 0h1.791312v8.060905h-1.791312zm3.134796 0h1.791312v8.060905h-1.791312zm3.045231 0h1.791312v8.060905H87.05777zm3.134796 0h1.791312v8.060905h-1.791312zm3.045231 0h1.791312v8.060905h-1.791312zm3.134796 0h1.791312v8.060905h-1.791312zm3.045231 0h1.791316v8.060905h-1.791316zm3.134796 0h1.79131v8.060905h-1.79131zm3.04523 0h1.79131v8.060905h-1.79131zm3.1348 0h1.79131v8.060905h-1.79131zm3.04523 0h1.79131v8.060905h-1.79131zm3.13479 0h1.79132v8.060905h-1.79132zm3.04523 0h1.79132v8.060905h-1.79132zm3.1348-1.522615h1.79131v10.38961h-1.79131z"/>
  <path fill="#fff" stroke="#010101" stroke-width=".33488581" stroke-miterlimit="2.61310005" d="M79.444693 172.41379v-41.46887H50.15674v41.46887z"/>
  <path fill="#010101" d="M78.190775 171.33901v-39.22974H51.141961v39.22974"/>
  <path fill="#fff" d="M52.216749 133.72145h3.761755v1.16435h-1.074787v16.12181h-1.343484V134.8858h-1.343484m5.91133 10.12092h1.43305v-11.28527h1.343484v11.28527c0 .71652-.62696 1.25392-1.253919 1.25392h-1.522615c-.626959 0-1.253919-.62696-1.253919-1.25392v-11.28527h1.253919v11.28527zm4.030452 1.25392v-12.53919h2.597403c.716525 0 1.343484.53739 1.343484 1.16435v4.12002c0 .71653-.537394 1.34349-.985222 1.34349l1.253919 5.91133h-1.164353l-1.343484-5.82177h-.447828v5.91133h-1.253919v-.0896zm5.194805-12.53919h2.776534c.626959 0 1.164353.44783 1.164353 1.16435v3.85132c0 .5374-.537394.89566-.537394.89566s.537394.35826.537394.89566v4.47828c0 .80609-.626959 1.16435-1.164353 1.16435h-2.776534v-12.44962zm7.254814 0h.716525c.806091 0 1.343484.71653 1.343484 1.16435v14.95746c0 .53739-.626959 1.25392-1.253918 1.25392h-1.522615c-.537394 0-1.253919-.62696-1.253919-1.25392v-14.86789c0-.53739.537394-1.16435 1.253919-1.16435h.716524v-.0896zm-19.704433 26.24272h1.970443v9.76265h-2.776533c-.62696 0-1.343485-.44782-1.343485-1.25391v-14.77833c0-.62696.62696-1.25392 1.253919-1.25392h1.522615c.626959 0 1.253919.62696 1.253919 1.25392v3.49306h-1.253919v-3.49306h-1.522615v14.77833h1.522615v-7.43395h-.626959v-1.07479zm3.313927 9.85222v-12.53918h2.597403c.716525 0 1.343484.53739 1.343484 1.16435v4.12002c0 .71652-.537394 1.34348-.985222 1.34348l1.253919 5.91133h-1.164353l-1.343484-5.82176h-.447828v5.91133h-1.253919v-.0896zm6.448724-6.0009v5.91133H63.41245v-11.28526c0-.5374.447828-1.16435 1.164353-1.16435h1.61218c.716525 0 1.253919.44782 1.253919 1.25391v11.28527h-1.253919v-5.91133l-1.522615-.0896zm5.284371 0v5.91133H68.69682v-11.37483c0-.53739.447828-1.07478 1.074788-1.07478h2.060009v1.07478h-1.880878v4.20959h1.522615v1.25391h-1.522615zm2.686968-11.37483h1.253919v6.2696l.716524 1.07478.716525-1.07478v-6.2696h1.253919v6.0009c0 .71652-1.253919 2.68697-1.253919 2.68697s1.253919 1.88087 1.253919 2.68696v6.0009h-1.164353v-6.18003l-.806091-1.16435-.80609 1.16435v6.18003h-1.253918v-5.91133c0-.71652 1.343484-2.68697 1.343484-2.68697s-1.343484-1.88088-1.343484-2.68697l.08957-6.09046z"/>
  <path fill="#010101" d="M64.845499 139.09539v-4.12002H63.41245v4.12002m-2.507837 23.46619v-4.12002h-1.43305v4.12002m10.658307-23.46619v-4.12002h-1.522615v4.12002m1.522615 5.91133v-4.65741h-1.522615v4.65741m6.71742 4.74697v-14.77832h-1.343484v14.77832m-7.792208 12.80789v-4.03046h-1.522615v4.03046"/>
  <path fill="#fff" d="M61.621137 156.11285c-1.970443 0-4.120017-1.70174-4.120017-4.38871 0-2.50784 2.23914-4.29915 4.120017-4.29915v8.68786zm6.000896 0c1.970443 0 4.120018-1.70174 4.120018-4.38871 0-2.50784-2.23914-4.29915-4.120018-4.29915v8.68786zm0 0v-8.68786h-6.000896v8.68786"/>
  <path fill="#010101" d="M61.352441 155.39633c-.985222 0-3.134797-1.07479-3.134797-3.67219 0-2.14958 1.970444-3.49306 3.134797-3.49306v7.16525zm6.538289-.0896c.985222 0 3.224362-1.07479 3.224362-3.67219 0-2.14957-1.970444-3.49306-3.224362-3.49306v7.16525zm0 0v-7.07568h-6.538289v7.07568"/>
  <path fill="#fff" d="M60.456785 149.2163h1.343484v4.38872h.626959v.71652h-2.060009v-.71652h.716525v-3.67219h-.626959m2.866099-.2687l.447828-.44783h4.567846l.358262.44783v.89566h-.626959v-.62696h-4.030452v1.52261h4.299149l.358262.35826v2.06001l-.447828.44783h-4.47828l-.447828-.44783"/>
  <path fill="#010101" d="M67.980296 153.60502v-1.43305h-3.940887v1.43305"/>
  <path d="M98.969996 176.17555h-1.701747l-.447828 1.97044h-.895656l.895656-4.47828h.895656l-.358262 1.70175h1.701746l.358263-1.70175h.895656l-.895656 4.47828h-.895657l.447829-1.97044zm2.149574-1.16435h.89566l-.35827 1.88087c-.0896.2687-.0896.35827-.0896.44783 0 .0896 0 .17913.0896.2687.0896.0896.17913.0896.2687.0896h.2687c.0896 0 .17913-.0896.26869-.17913.0896-.0896.17914-.0896.17914-.17913.0896-.0896.0896-.17913.17913-.2687 0-.0896.0896-.26869.0896-.44782l.35826-1.52262h.89566l-.71652 3.22436h-.80609l.0896-.44782c-.35826.35826-.71652.53739-1.16435.53739-.2687 0-.44783-.0896-.62696-.2687-.17913-.17913-.2687-.35826-.2687-.62696 0-.0896 0-.35826.0896-.62696l.35826-1.88087zm6.35916 1.61218l.89565.17913c-.17913.53739-.44782.89565-.80609 1.16435-.35826.2687-.80609.35826-1.25391.35826-.5374 0-.98523-.17913-1.25392-.53739-.2687-.35826-.44783-.80609-.44783-1.43305 0-.53739.0896-.98522.2687-1.43305.17913-.44783.53739-.71652.89565-.98522.35826-.2687.80609-.35826 1.16435-.35826.44783 0 .89566.0896 1.16436.35826.26869.2687.44783.62696.53739 1.07479l-.89566.0896c-.0896-.2687-.17913-.44783-.26869-.53739-.17913-.0896-.35826-.17913-.5374-.17913-.26869 0-.53739.0896-.71652.26869-.17913.17913-.35826.35827-.53739.71653-.0896.35826-.17914.62696-.17914.98522s.0896.62696.2687.80609c.17913.17913.35826.2687.62696.2687.2687 0 .44783-.0896.62696-.2687.2687 0 .35826-.2687.44783-.53739zm4.20958.62696H109.897l-.53739.98522h-.98523l2.50784-4.47828h.98522l.71653 4.47828h-.89566v-.98522zm-.0896-.80609l-.2687-1.79132-1.07479 1.79132h1.34349zm2.68696 1.79131h-.89565l.89565-4.47828h1.97045c.35826 0 .62696 0 .80609.0896s.35826.17913.44783.35827c.0896.17913.17913.44782.17913.71652 0 .35826-.0896.71652-.35827.98522-.26869.2687-.53739.35826-1.07478.44783.0896.0896.26869.2687.35826.44783.17913.35826.44783.80609.71652 1.52261h-.98522c-.0896-.26869-.26869-.62696-.44782-1.16435-.0896-.2687-.2687-.44783-.44783-.62696-.0896-.0896-.2687-.0896-.44783-.0896h-.35826l-.35827 1.79131zm.5374-2.50784h.44783c.53739 0 .80609 0 .98522-.0896s.26869-.17913.35826-.26869c.0896-.0896.17913-.2687.17913-.35826 0-.17914-.0896-.2687-.17913-.35827-.0896-.0896-.2687-.0896-.53739-.0896h-.98523l-.26869 1.16435zm3.04523 2.50784l.89565-4.47828h1.79132c.17913 0 .35826.0896.53739.0896.17913.0896.2687.17913.35826.2687.0896.0896.17913.2687.2687.35826.0896.0896.17913.2687.17913.5374.0896.17913.0896.35826.0896.62695 0 .44783-.0896.89566-.2687 1.25392-.17913.35827-.44783.71653-.71653.89566-.17913.17913-.44782.2687-.80609.35826-.17913 0-.44782.0896-.89565.0896h-1.43305zm1.07479-.71653h.44782c.35827 0 .62696 0 .71653-.0896.0896-.0896.2687-.0896.44783-.2687.17913-.17913.35826-.35826.44782-.62696.0896-.2687.17914-.62696.17914-.98522s-.0896-.53739-.17914-.71653c-.0896-.17913-.26869-.26869-.35826-.35826-.0896 0-.26869-.0896-.53739-.0896h-.53739l-.62696 3.13479z"/>
</svg>
