<svg id="Layer_1" data-name="Layer 1" xmlns="http://www.w3.org/2000/svg" viewBox="0 0 1000 113.99999"><title>logo</title><path d="M378.693,31.45012q2.00949,0,4.02038.00984c-.01831,8.80754-.00458,17.61511-.00915,26.42723q-1.04564.00156-2.09058.00138-1.87738,0-3.75391-.00107-1.70974,0-3.42083.00428-.01374-13.21819-.00458-26.441.74569.0011,1.49069.001,1.88439,0,3.768-.00168m0-7-1.88837.00085-1.87961.00083-1.48044-.001-.01019,0a7,7,0,0,0-7.00006,7l-.00058,6.60847q-.00129,9.91991.00516,19.8398a7,7,0,0,0,7,6.9927l.02081,0q1.70051-.00505,3.4-.00427l1.87378.00055,1.88013.00054,2.101-.00138a7,7,0,0,0,6.98957-6.99635q.00246-4.80993.00018-9.61829-.002-8.4002.009-16.798a7,7,0,0,0-6.95856-7.01443q-2.03164-.012-4.06182-.01Z" fill="#fff"/><path d="M429.85483,31.56525q.00687,32.21118.00458,64.427-2.23508.00686-4.46961.00685-2.23416,0-4.46612-.00685.01373-32.2112.00457-64.42695h8.92658m0-7h-8.92658a7,7,0,0,0-7,6.9985q-.00292,13.80572-.00085,27.61322.0011,18.40665-.00372,36.81225a7,7,0,0,0,6.97845,7.00295q2.2425.0069,4.48767.00688,2.245,0,4.49109-.00688a7,7,0,0,0,6.97852-7.00295q-.00788-18.40875-.00373-36.81385.00082-13.80615-.00085-27.61162a7,7,0,0,0-7-6.9985Z" fill="#fff"/><path d="M528.16147,31.33638q0,13.16325-.00458,26.32645-1.73355-.005-3.46692-.00423-1.88955,0-3.77881.001-1.06686,0-2.134-.00138V31.33638h9.38434m0-7h-9.38434a7,7,0,0,0-7,7V57.65826a7,7,0,0,0,6.98975,7l2.14428.00138,1.89228-.00052L524.69,64.6586q1.7233,0,3.4466.00421l.02026,0a7,7,0,0,0,7.00006-6.989q.01475-9.40638.00611-18.81284l-.00153-7.52461a7,7,0,0,0-7-7Z" fill="#fff"/><path d="M575.76071,31.78954c.01831,8.66108.00458,17.32215.00916,25.98323q-.46161.00068-.92273.00064c-1.35541,0-2.71094-.00356-4.06635-.00356-1.45886,0-2.91809.00412-4.377.02124-.04578-8.66568-.00458-17.33131-.01831-25.997q1.06255-.00156,2.12433-.00137,1.89394,0,3.78741.001,1.73118,0,3.46344-.00427m0-7-.02057,0q-1.7221.00506-3.44287.00424l-1.89062-.00052-1.89685-.00053-2.13458.00137a7.00005,7.00005,0,0,0-6.98969,7.01108q.008,5.02285-.00049,10.04567c-.00458,5.23306-.00928,10.64427.01892,15.97718a7,7,0,0,0,6.99976,6.963l.08221-.00049c1.43146-.01678,2.86335-.02075,4.29486-.02075l2.024.00177,2.04236.00177.93317-.00062a7,7,0,0,0,6.98956-7.00371q-.00247-4.72346-.00012-9.447.00192-8.27367-.009-16.54735a6.99995,6.99995,0,0,0-7-6.98521Z" fill="#fff"/><path d="M334.06589,31.45081h.005m-.005,0c-.00458,8.81671.01373,17.63342-.00916,26.45013q-2.11266-.01876-4.22259-.01552-1.95195,0-3.90289.00257-.5675,0-1.13526-.00078-.00687-13.21823-.00458-26.43184,1.71182-.00505,3.4235-.00426,1.876,0,3.753.00107,1.04846,0,2.098-.00137m0-7h-.01019l-2.0878.00135-1.89316-.00052-1.85971-.00053q-1.72266,0-3.44434.00429a7,7,0,0,0-6.97928,7.00725q.00783,7.54662.00373,15.09044-.00082,5.66835.00085,11.33776a7,7,0,0,0,6.9896,6.99636l1.14566.00078,1.95791-.0013,1.945-.00127q2.07939,0,4.1604.01525l.06225.00027a7,7,0,0,0,6.99994-6.98181q.02211-8.51207.01014-17.0241-.00194-4.62606-.001-9.2519c.00174-.064.00259-.1279.00259-.19232a6.9981,6.9981,0,0,0-6.98929-7Zm0,14h0Z" fill="#fff"/><path d="M373.44351,66.3468q2.00446.01191,4.01038.00986,1.88516,0,3.77008-.0017.74011,0,1.48029.001.00685,15.04477.00457,30.094-1.64584.00732-3.293.00629-2.27124,0-4.54184-.00269-.71968,0-1.43966.001c.00458-10.03438-.01373-20.07338.00915-30.10774m-.00009-7a7,7,0,0,0-6.99988,6.984q-.02211,9.685-.01013,19.37326.00192,5.37411.001,10.74726a7,7,0,0,0,7,7.00319h.01028l1.42935-.001,2.26438.00134,2.27746.00136q1.6626,0,3.3241-.00636a7,7,0,0,0,6.96887-7.00952q-.01236-9.024-.00494-18.044.00165-6.02209.00037-12.04362a7,7,0,0,0-6.98963-6.99679l-1.49066-.001-1.88947.00085-1.88061.00086q-1.98514,0-3.96878-.00974l-.04169-.00012Z" fill="#fff"/><path d="M736.06235,45.86368c4.67016,0,9.34039.012,14.01129.012q3.16818,0,6.33789-.00957c.95215.943,1.9043,1.89056,2.829,2.86566-.03668,2.211-.01831,4.42664-.01831,6.6377q-2.23168,0-4.45416.00457c-.01373-1.56561-.01373-3.13116-.00916-4.69679h-29.5263c.01373,3.74463-.03662,7.49379.02746,11.23836q5.3618-.033,10.72357-.02783,6.008,0,12.01484.00731,4.24483,0,8.49084-.0161a16.8257,16.8257,0,0,1,2.69629,2.90228c.10071,4.303-.00458,8.60614.05035,12.91376.36615,2.24309-2.11041,3.27764-3.28686,4.79742H723.92337a29.30365,29.30365,0,0,1-3.22729-3.39667c-.10071-10.06183-.01367-20.12365-.0412-30.18548a32.47281,32.47281,0,0,1,3.1449-3.003q6.13092-.05163,12.26257-.04359m1.03693,31.71037q6.17138,0,12.34423-.0069,2.48576,0,4.97211.00426c0-3.62554-.00458-7.24652.00458-10.86754q-5.35016-.00508-10.69873-.00428-5.851,0-11.70105.00106-3.27915,0-6.5589-.00137c-.01373,3.61639.02289,7.22828-.01837,10.84467q5.82752.03591,11.65613.0301m-1.03693-38.71039c-4.92127,0-8.72138.01354-12.32153.04386a7.00055,7.00055,0,0,0-4.074,1.35006,23.08841,23.08841,0,0,0-3.06836,2.79761c-.26147.27242-.52136.54607-.79272.80672a7.00012,7.00012,0,0,0-2.15088,5.06752q.01566,5.70438-.00159,11.40877c-.00976,6.16417-.01977,12.53821.04315,18.8276a6.99954,6.99954,0,0,0,1.14368,3.765,18.629,18.629,0,0,0,3.083,3.47513c.32892.30735.63958.59766.83941.8157a7,7,0,0,0,5.16089,2.2708h32.02576a7.00036,7.00036,0,0,0,5.4483-2.605c.10217-.09817.31452-.28334.47443-.4228,1.35119-1.17821,4.84735-4.22669,4.35919-9.23463-.018-1.70972-.01184-3.46287-.00586-5.16221.00855-2.42659.0174-4.93581-.04144-7.45038a7.00042,7.00042,0,0,0-.916-3.30135,11.95437,11.95437,0,0,0-.83642-1.27049,6.97485,6.97485,0,0,0,1.79089-4.67616l-.00232-1.67461c-.00348-1.6736-.00671-3.25441.01966-4.847a7.00014,7.00014,0,0,0-1.9198-4.93291c-.98957-1.04341-1.97541-2.02507-2.98249-3.02243a7.00021,7.00021,0,0,0-4.92572-2.02641l-.02362,0q-3.15646.01064-6.31433.00952-3.49878,0-6.99719-.006-3.50712-.0045-7.0141-.006Z" fill="#fff"/><path d="M701.89536,45.74707q1.12976.01114,2.25946.00969c1.16656,0,2.33313-.00542,3.49975-.00542,1.32587,0,2.6518.007,3.97766.03693-.04583,10.62945.00458,21.25891-.023,31.88843,1.52436.00915,3.05341.00915,4.58234.00915,0,1.68-.00458,3.35548,0,5.03552H701.8862c-.00458-1.68-.00458-3.35552,0-5.03552H706.464q-.00687-13.45167-.00458-26.89874-2.29349.00684-4.57318.00456c-.00458-1.68-.00458-3.36.00916-5.0446m-.00013-7A6.99992,6.99992,0,0,0,694.8956,45.69c-.014,1.71-.014,3.41545-.0094,5.1208a7.00253,7.00253,0,0,0,4.57709,6.5502q.001,4.39794-.00018,8.79557-.00038,2.48-.00049,4.96024a7.00241,7.00241,0,0,0-4.57642,6.54994c-.00458,1.69274-.00458,3.381,0,5.07375a7,7,0,0,0,7,6.98088h14.30542a7,7,0,0,0,7-7.019q-.00457-1.66707-.001-3.33082l.001-1.68568a7.00278,7.00278,0,0,0-4.57373-6.56809q.001-3.85635-.00287-7.71276c-.004-5.76692-.00812-11.7302.01715-17.58653a7,7,0,0,0-6.842-7.02842c-1.52014-.03431-3.0086-.03869-4.13556-.03869l-1.76611.00271-1.73364.00269q-1.09516,0-2.19037-.00934l-.06922-.00035Z" fill="#fff"/><path d="M730.25571,110.49274l-.32813.002a46.05941,46.05941,0,0,1-37.99511-20.5918,46.43675,46.43675,0,0,1,31.209-71.64941,45.26485,45.26485,0,0,1,7.37988-.60108,46.454,46.454,0,0,1,28.03028,83.522,45.93281,45.93281,0,0,1-27.499,9.32617S730.52036,110.49762,730.25571,110.49274Zm24.21484-31.5c.1709-.1543.33887-.30078.501-.44239.23926-.208.56933-.49707.76758-.7041l-.00293-.10644c-.02344-1.90235-.01758-3.80274-.01075-5.70215.00684-1.99024.01368-4.03711-.01757-6.05469-.18653-.19141-.40625-.39551-.625-.59766q-3.47608.01026-6.95215.00977l-12.12988-.00781q-5.3584,0-10.71875.02832h-.02149a3.49516,3.49516,0,0,1-1.11328-.18067c-.00391,4.1836.002,8.42383.03711,12.62207.26953.28028.583.57325.90625.875.0918.08594.18457.17286.27734.26075Z" fill="#f79226"/><path d="M730.52078,21.15245A42.95495,42.95495,0,0,1,756.443,98.38171,42.514,42.514,0,0,1,731.05387,107c-.25709,0-.515-.00251-.7721-.00755-.1189.00109-.23627.00163-.3551.00163A42.91791,42.91791,0,0,1,723.667,21.714a41.82789,41.82789,0,0,1,6.85376-.56154M701.8862,50.79169q2.27967,0,4.57318-.0046.01374,13.45169.00458,26.89876H701.8862c-.00458,1.68-.00458,3.35547,0,5.03553h14.30542c-.00458-1.68006,0-3.35553,0-5.03553-1.52893,0-3.058,0-4.58234-.00917.02753-10.6295-.02288-21.259.023-31.88841-1.32611-.02992-2.652-.03693-3.978-.03693-1.16681,0-2.33344.00542-3.50025.00542q-1.12911,0-2.2586-.00969c-.01374,1.68456-.01374,3.36461-.00916,5.04462m22.03717,31.70074h32.02576c1.17645-1.51977,3.653-2.55433,3.28686-4.79742-.05493-4.30764.05036-8.61071-.05035-12.91378a16.827,16.827,0,0,0-2.69629-2.90226q-4.24677.01867-8.49286.01608-6.00513,0-12.01043-.00728-5.3628,0-10.726.02783c-.06408-3.74458-.01373-7.49372-.02746-11.23835h29.5263c-.00457,1.56559-.00457,3.13116.00916,4.69677q2.22482-.00688,4.45416-.00459c0-2.21106-.01837-4.4267.01831-6.63769-.92474-.97509-1.87689-1.92267-2.829-2.86564q-3.16827.01066-6.33533.00956c-4.67089,0-9.34246-.012-14.01263-.012q-6.13248,0-12.26379.04361a32.4724,32.4724,0,0,0-3.1449,3.003c.02753,10.06185-.05951,20.12368.0412,30.1855a29.30365,29.30365,0,0,0,3.22729,3.39667m6.59741-68.34a48.97392,48.97392,0,0,0-7.9533.64827,49.93724,49.93724,0,0,0-33.5293,77.07077A49.59753,49.59753,0,0,0,729.92667,113.994l.303-.00136c.27459.00486.5498.00731.82422.00731a49.46078,49.46078,0,0,0,29.60943-10.03353,49.94828,49.94828,0,0,0-30.14252-89.814Zm-2.874,54.75077q4.16969-.018,8.3393-.01548,2.99936,0,5.99884.00364,3.00585.00271,6.01159.00364,2.11752,0,4.23462-.00334c.00159,1.025-.00207,2.06281-.0058,3.12637-.004,1.13955-.00818,2.30257-.00525,3.47436H727.6677c-.01313-2.19388-.019-4.39454-.02094-6.58919Z" fill="#fff"/><path d="M281.62045,107.9693q-2.28369,0-4.56591-.0127a11.46737,11.46737,0,0,1-8.11231-3.65039,11.90556,11.90556,0,0,1-3.35644-8.44726c-.03516-15.082-.02979-30.26367-.02442-45.44629q.00439-13.48536.001-26.9707a3.5,3.5,0,0,1,3.48828-3.502l4.71777.001c1.19287,0,2.38575-.00342,3.57911-.019l.04589-.00049a3.49982,3.49982,0,0,1,3.5,3.49219q.05055,22.09058.023,44.18457-.00513,12.564-.002,25.127h2.38818q.0066-12.145-.00195-24.28809c-.00586-14.75732-.01172-30.0166.02783-45.02929a3.50048,3.50048,0,0,1,3.5-3.49073c.021,0,.04151,0,.0625.00049,1.09766.01953,2.19434.02344,3.291.02344l2.36474-.002c.92725,0,1.8545.00293,2.78223.01513a3.50016,3.50016,0,0,1,3.45459,3.5044q-.03222,23.324-.01514,46.64843l.00147,23.126c-.0083.46582-.00244.86817.00342,1.27149a17.284,17.284,0,0,1-.38086,4.62207,11.69573,11.69573,0,0,1-11.21582,8.83886Z" fill="#f79226"/><path d="M286.82834,23.41687c1.118.02,2.23489.02409,3.352.02409.79007,0,1.58011-.00206,2.37024-.00206.91052,0,1.82162.00275,2.73279.01458q-.04807,34.88921-.01373,69.77833a22.0496,22.0496,0,0,1-.27009,5.03547,8.21392,8.21392,0,0,1-7.823,6.19828l-.02781-.00005q-2.747,0-5.49639.00409-2.28777,0-4.57459-.01323a8.48243,8.48243,0,0,1-7.99274-8.50539c-.05493-24.17039-.00915-48.34081-.02288-72.51122q.66779-.00221,1.33493-.002c1.13055,0,2.2608.0034,3.39093.0034,1.20147,0,2.40316-.00384,3.60562-.01971.05493,24.26652.00458,48.53766.02289,72.8042h9.38433c.01831-24.27111-.03662-48.53768.02747-72.80878m-.00009-7a7.00024,7.00024,0,0,0-4.71979,1.83059,7.00028,7.00028,0,0,0-4.71469-1.826l-.09247.00061c-1.17163.01544-2.34259.01912-3.51327.01912l-1.68454-.0017-1.70639-.00172-1.35807.002a7,7,0,0,0-6.97686,7.00394q.00763,13.46067-.0011,26.92134c-.00519,14.91729-.01056,30.34152.02383,45.51825a15.44036,15.44036,0,0,0,4.32785,10.84249,14.91979,14.91979,0,0,0,10.53351,4.72934l.0838.001q2.31006.01575,4.62232.01339l2.75692-.002,2.73947-.002a15.30317,15.30317,0,0,0,14.6587-11.56807,20.61005,20.61005,0,0,0,.46521-5.44168c-.005-.36456-.01117-.72845-.00425-1.09q.00124-.0663.00126-.13256.00228-11.62324-.00153-23.2465c-.003-15.2492-.00613-31.01752.01526-46.52355a7,7,0,0,0-6.90912-7.00906c-.94147-.01223-1.88287-.01517-2.8237-.01517l-1.19434.00107-1.17587.001c-1.0755,0-2.15066-.00379-3.227-.023-.04166-.00074-.08356-.00113-.12512-.00113Z" fill="#fff"/><path d="M336.05747,107.96539a3.49962,3.49962,0,0,1-3.41114-2.71679q-2.05884-8.97217-4.13574-17.9375-.279-1.2085-.55859-2.417.00145,9.78809-.00391,19.57422a3.49986,3.49986,0,0,1-3.5,3.49707h-8.00635a3.50017,3.50017,0,0,1-3.5-3.5V23.44a3.50005,3.50005,0,0,1,3.5-3.5c.00635,0,1.80518.00684,2.69873.00684,1.31006,0,6.56836-.01563,7.88672-.01563,2.27393,0,4.54883.01172,6.82129.05469,5.71094.07715,11.88721,4.51074,11.94824,10.98828q.02052,13.32569,0,26.60254A12.56717,12.56717,0,0,1,339.80551,68.275q1.52418,7.16016,3.0376,14.32129,2.23755,10.56738,4.4917,21.13086a3.50056,3.50056,0,0,1-3.40918,4.2334q-1.96875.00732-3.93652.00586Zm-7.76172-53.5791s2.019-.001,2.26806-.00049q.00952-6.78588.00293-13.57226l-.00048-5.86182-2.272-.00049C328.29624,38.859,328.29575,54.38629,328.29575,54.38629Z" fill="#f79226"/><path d="M327.02094,23.43117c2.25415,0,4.50869.01152,6.76114.05435,4.09246.055,8.47338,3.15414,8.51458,7.52125q.02061,13.28,0,26.56453c-.032,3.83158-2.591,7.82335-6.53241,8.53289,2.72834,12.78558,5.41089,25.57575,8.14832,38.35675q-1.96386.00687-3.92767.00573-1.96386,0-3.92768-.00115c-2.8977-12.62994-5.83661-25.24617-8.72973-37.87611-.95673-.00459-1.9181-.00459-2.87482-.00914q-.00687,18.94491-.00458,37.88525h-8.00647V23.43977q1.36354.00757,2.72678.00692c2.61676,0,5.23495-.01552,7.85254-.01552m4.94247,8.021q-1.8744,0-3.7475-.001-1.7124,0-3.4245.00427.01374,13.21821.00458,26.43184.56466.00083,1.129.00077,1.95391,0,3.9086-.00258,2.11043,0,4.22317.01553c.02289-8.81673.00458-17.63342.00916-26.45013q-1.05167.00155-2.10248.00135m-4.94244-15.021q-1.97379,0-3.94767.00778-1.95272.0058-3.9049.00773-1.34465,0-2.68787-.00681l-.039-.00011a7,7,0,0,0-6.99994,7v81.02575a7,7,0,0,0,7,7h8.00647a6.993,6.993,0,0,0,5.8046-3.08635,7.00086,7.00086,0,0,0,5.80453,3.08635l1.96079.00056,1.96689.00058q1.97607,0,3.95217-.00578a7,7,0,0,0,6.82029-8.466q-2.25074-10.50844-4.46851-21.02291-1.29254-6.10439-2.58853-12.20921a16.25117,16.25117,0,0,0,5.59607-12.133c.01394-8.86827.01394-17.81319.00027-26.63388l-.0003-.05516c-.083-8.80135-8.06891-14.35582-15.42023-14.45459-1.95569-.03731-4.14633-.055-6.85516-.055Z" fill="#fff"/><path d="M365.09848,107.97906a3.50085,3.50085,0,0,1-3.5-3.49316q-.04174-20.2998-.01855-40.59961.00732-20.21192-.01807-40.4209a3.50007,3.50007,0,0,1,3.49219-3.50732l3.92236-.01221q3.249-.01171,6.49707-.01562c2.60059,0,5.20069.01123,7.80029.04687A11.183,11.183,0,0,1,394.3187,30.41656c.001.0376.002.07569.002.11377q.0205,7.53737.00879,15.07862-.00221,5.28809.00049,10.57617a9.29765,9.29765,0,0,1-2.01953,5.70312,9.3683,9.3683,0,0,1,1.99267,5.07911c.17334,2.44043.15674,4.86816.14111,7.21484-.00732,1.15137-.01562,2.30273-.00048,3.45312-.01319,1.86622-.00635,3.65918.00048,5.45313.01368,3.50781.02784,7.13379-.11718,10.7373-.01465.459-.00293.95313.00683,1.44922a13.22585,13.22585,0,0,1-1.17187,6.78614,11.04931,11.04931,0,0,1-9.85694,5.90429l-11.6875-.00293q-3.24828,0-6.498.0166Zm14.10645-15.02343q-.00586-7.31544-.001-14.62891l.00049-8.4707s-2.11865.001-2.26709,0q-.01172,7.9702-.00391,15.94238l.00049,7.15625Zm-.00049-38.56739V48.29547q-.00147-6.67383.00293-13.34521c-.15967,0-2.27344.00048-2.27344.00048s-.00146,14.05079.002,19.43653Z" fill="#f79226"/><path d="M375.48587,23.43028c2.58063,0,5.161.011,7.74024.04618l.0166,0a7.67529,7.67529,0,0,1,7.57782,7.06344c.02289,8.5466,0,17.09778.00915,25.649.02289,2.37586-1.67541,4.25269-3.34173,5.73592,1.61139,1.34122,3.17236,3.08539,3.32342,5.28269.24719,3.48364.087,6.981.13275,10.47383-.04119,5.33306.10071,10.67064-.11444,16.00373-.07324,2.266.348,4.69219-.78277,6.77958a7.60154,7.60154,0,0,1-6.77045,4.001q-1.57369.00355-3.14679.00324-4.25949,0-8.51721-.00635-3.25612,0-6.51416.01683c-.05493-27.00861.01831-54.01721-.03662-81.0212,3.47506-.00787,6.95-.02783,10.42419-.02783m-.56344,8.02153q-.74368,0-1.48807-.001,0,13.21821.00458,26.441,1.71093-.0051,3.42016-.0043,1.87885,0,3.75757.00109,1.04334,0,2.08759-.00136c.00457-8.81215-.00916-17.61971.00915-26.42726q-2.0084-.01188-4.01471-.00983-1.88809,0-3.77627.00169m-1.48807,65.00273q.72024-.00108,1.44034-.001,2.26972,0,4.541.00269,1.647,0,3.29309-.00629-.02059-15.05154-.00457-30.094-.742-.0011-1.48432-.001-1.88452,0-3.77.0017-2.00362,0-4.00647-.00984c-.02288,10.03436-.00457,20.07336-.00915,30.10773m2.05151-80.02426q-3.25639,0-6.51352.01554-1.96315.007-3.92651.01233a6.99994,6.99994,0,0,0-6.98413,7.01422c.02743,13.49359.02276,27.21875.01831,40.492-.00455,13.28214-.00919,27.0165.01831,40.52919a6.99995,6.99995,0,0,0,6.99991,6.98574l.04236-.00013q3.236-.01953,6.47186-.01669l4.25049.00316,4.26672.0032q1.5813,0,3.16272-.00328a14.59439,14.59439,0,0,0,12.98486-7.80814,16.6316,16.6316,0,0,0,1.55561-8.45147c-.00934-.46933-.01825-.91311-.00751-1.273.147-3.66855.13275-7.3217.1189-10.85478-.007-1.78122-.0141-3.56228-.00037-5.34286q.00065-.07287-.00037-.14581c-.01446-1.10369-.00708-2.21.0008-3.3813.01617-2.41475.03289-4.91172-.15052-7.49625a12.27821,12.27821,0,0,0-1.36712-4.82674,12.25092,12.25092,0,0,0,1.40295-5.72458q-.00558-5.26445-.00036-10.52849.00357-7.55694-.00873-15.11105-.00038-.114-.00434-.22789A14.5813,14.5813,0,0,0,383.275,16.47646c-2.331-.03148-4.80762-.04618-7.78913-.04618Zm4.94849,15.02053h0Z" fill="#fff"/><path d="M421.11606,107.97906a11.65814,11.65814,0,0,1-4.57813-.74707,12.25381,12.25381,0,0,1-7.92626-11.28222l.00048-2.0752q.0066-30.05712-.00048-60.12451c.00341-.32275-.00049-.60889-.00342-.89648a12.65876,12.65876,0,0,1,.84277-5.53467,12.48339,12.48339,0,0,1,7.17871-6.7251c.06543-.02344.13135-.04443.19824-.064a18.44753,18.44753,0,0,1,5.17481-.60645c.44531,0,.8916.00684,1.3374.01367.40869.00635.8169.01319,1.22461.01319.24316,0,.48584-.00245.728-.00879.03125-.001.53076.00439.71631.00439.34082,0,1.78564-.01855,2.16455-.01855a14.44462,14.44462,0,0,1,7.25293,1.50976c3.21045,1.70313,6.64648,5.26807,6.51465,10.08643q-.01173,31.01147.00146,62.21045c-.00635.39551-.00146.73144.00293,1.06836a12.28341,12.28341,0,0,1-.98975,5.89355,12.4343,12.4343,0,0,1-9.71972,7.23438c-.085.00879-.17041.01367-.25586.01562-.897.02149-1.79444.02735-2.69141.02735-.65527,0-3.25-.01368-3.89209-.01368q-.843,0-1.686.01075Zm5.2417-15.48046c-.00342-11.1084-.00293-57.4336-.00293-57.4336h-1.92676s.001,46.23633-.00293,57.4336Z" fill="#f79226"/><path d="M422.00449,23.42343c.8515,0,1.70581.02661,2.55511.02661.27631,0,.55231-.00282.82733-.01028q.3111.00614.62568.00566c.7124,0,1.43566-.01823,2.15911-.01823a11.243,11.243,0,0,1,5.565,1.07466c2.53607,1.34579,4.78827,3.90936,4.70587,6.92608q-.01365,31.15375,0,62.30741c-.03205,1.80825.21057,3.72628-.62256,5.40634a9.05212,9.05212,0,0,1-6.92151,5.30552c-.868.02025-1.736.02633-2.60388.02633-1.30487,0-2.60919-.01374-3.9129-.01374q-.85941,0-1.71851.0103c-.07239-.00062-.14465-.00088-.21729-.00088-.44122,0-.88641.00981-1.33135.00981a8.44143,8.44143,0,0,1-3.24885-.485c-3.21356-1.26342-5.85949-4.4312-5.75421-7.99725q.00687-31.11942,0-62.24792c.01831-1.67088-.16479-3.43327.53559-5.00346a8.94035,8.94035,0,0,1,5.15-4.85237,15.06848,15.06848,0,0,1,4.2074-.46958m3.38531,72.57562q2.23425,0,4.46961-.00688-.01374-32.218-.00458-64.42691h-8.92658q-.00686,32.21117-.00457,64.42691,2.23169.00688,4.46612.00688m-3.38531-79.57562a21.68895,21.68895,0,0,0-6.14545.74321q-.20087.05788-.39789.12763A15.8558,15.8558,0,0,0,406.232,25.944a16.08477,16.08477,0,0,0-1.12372,6.94742c.00293.26187.00647.52258.00366.7807l-.00043.07977q.01374,31.08222,0,62.16005c-.12591,6.17715,4.03064,12.15362,10.15052,14.57987a15.09925,15.09925,0,0,0,5.85254.98717c.24865,0,.49749-.00262.74572-.00533.1958-.00217.39112-.00448.58563-.00448l.15821.00064.05957.00025.09289-.00061q.81218-.01083,1.62513-.00969c.6394,0,1.279.00341,1.91864.00678.66461.00349,1.32934.007,1.99426.007.9223,0,1.84466-.00672,2.76715-.02824q.25735-.006.51367-.03089a15.96841,15.96841,0,0,0,12.53974-9.21127,15.68268,15.68268,0,0,0,1.32995-7.44642c-.0039-.30117-.00891-.60106-.00366-.89728q.00109-.06284.0011-.12564-.00687-31.11341-.00006-62.22727c.09881-5.3122-3.1012-10.34293-8.377-13.16268a17.90746,17.90746,0,0,0-8.89374-1.91667c-.39276,0-.7854.00479-1.17657.00975-.32922.00417-.65717.0085-.9826.0085-.16346,0-.32618-.00113-.48792-.0043q-.06885-.00135-.13782-.00136-.095,0-.19006.00258c-.21185.00575-.42438.0077-.63721.0077-.38806,0-.77722-.00636-1.16662-.01245-.46289-.00722-.92609-.01416-1.38849-.01416Z" fill="#fff"/><path d="M737.22543,81.07379q-5.90186,0-11.80371-.03027a3.50108,3.50108,0,0,1-3.47851-3.54c.02539-2.18164.02148-4.36231.01758-6.543q-.00294-2.1372.001-4.27441a3.49947,3.49947,0,0,1,3.5-3.48633l28.96094.0039a3.49925,3.49925,0,0,1,3.49707,3.50879q-.01026,3.99611-.00488,7.9961l.001,2.86328a3.49922,3.49922,0,0,1-3.5,3.5l-5.09863-.00488Z" fill="#f79226"/><path d="M725.46152,66.69929q3.27237.00155,6.545.00136,5.85846,0,11.71814-.00106,5.34714,0,10.69556.00426c-.00916,3.621-.00458,7.242-.00458,10.86756q-2.48758-.00471-4.97357-.00426-6.17148,0-12.34345.0069-5.82843,0-11.65545-.0301c.04126-3.61639.00464-7.22827.01837-10.84466m-.00006-7a6.99971,6.99971,0,0,0-6.99988,6.97338c-.00543,1.43331-.00311,2.8659-.00067,4.29833.00354,2.13517.0072,4.343-.01727,6.49313A6.99993,6.99993,0,0,0,725.4,84.54383c3.39343.0209,7.0014.03023,11.6986.03023q3.08808,0,6.17713-.00346,3.08322-.00259,6.16632-.00346,2.4809,0,4.96026.00425h.01337a7.00005,7.00005,0,0,0,6.99994-7l-.00055-2.7181q-.00128-4.06777.00513-8.13178a7.00011,7.00011,0,0,0-6.99341-7.01769q-5.3508-.00505-10.70215-.00424h-.11383l-5.80377.00052-5.8006.00052-6.54156-.00136Z" fill="#fff"/><path d="M234.35385,107.89117a3.50017,3.50017,0,0,1-3.5-3.5V18.62555h-4.36474a3.49986,3.49986,0,0,1-3.5-3.5V7.00006a3.49986,3.49986,0,0,1,3.5-3.5h25.17773a3.49986,3.49986,0,0,1,3.5,3.5v8.12549a3.49986,3.49986,0,0,1-3.5,3.5H247.3021v85.76562a3.50017,3.50017,0,0,1-3.5,3.5Z" fill="#f79226"/><path d="M251.66684,7v8.12544h-7.86456v89.26567h-9.44843V15.12544h-7.8645V7h25.17749m0-7H226.48935a7,7,0,0,0-7,7v8.12544a7,7,0,0,0,7,7h.8645v82.26567a7,7,0,0,0,7,7h9.44843a7,7,0,0,0,7-7V22.12544h.86456a7,7,0,0,0,7-7V7a7,7,0,0,0-7-7Z" fill="#fff"/><path d="M488.39633,107.86481q-3.312-.02051-6.62256-.01758l-11.06054.00879a12.39418,12.39418,0,0,1-11.36084-7.60449,13.48447,13.48447,0,0,1-.72852-5.42676c.00489-.36035.01123-.71973.0044-1.0752l.001-22.46191q.00294-27.6731-.00586-55.34619A12.31773,12.31773,0,0,1,468.84409,3.66119a3.5422,3.5422,0,0,1,.3999-.03857c1.07959-.0415,2.25391-.06055,3.69629-.06055.74316,0,1.48682.00489,2.23047.00977.72851.00488,1.457.00928,2.18554.00928q.92212,0,1.84522-.01319.47094-.04248.93945-.042A11.7858,11.7858,0,0,1,488.596,7.3111a11.9192,11.9192,0,0,1,3.3584,8.63476l-.00342,2.69238c-.00537,3.84278-.01074,7.68457.00781,11.52344a3.50018,3.50018,0,0,1-3.46679,3.5166c-1.32178.0127-2.64307.01563-3.96387.01563l-4.66162-.002a3.5,3.5,0,0,1-3.5-3.49024q-.00732-2.73413,0-5.46728.00366-2.7876-.00049-5.57471c-.36719.00049-2.1001,0-2.59961-.001q-.01758,13.74756-.01514,27.498a3.48119,3.48119,0,0,1,1.98731-.624l7.69824.00244q2.48364,0,4.96777-.01612h.02686a3.5,3.5,0,0,1,3.5,3.49561c.02246,17.99072.0459,36.57959-.01367,54.86182a3.5,3.5,0,0,1-3.5,3.48828ZM476.60678,92.95563q-.02856-10.481-.01123-20.96094.00294-5.58984.00244-11.17969h-.85156a3.48607,3.48607,0,0,1-1.99365-.623q.00074,2.24706.001,4.49316.00366,14.13575.001,28.26855S476.35288,92.9566,476.60678,92.95563Z" fill="#d5e14d"/><path d="M480.14108,7.02625a8.70286,8.70286,0,0,1,8.31324,8.8328c-.00458,4.77462-.01831,9.54915.00457,14.31919q-1.96.01877-3.91784.0155-1.80881,0-3.61811-.00255-.528,0-1.05645.00078c-.01374-4.85245.02746-9.70021-.02289-14.55263q-2.2858.023-4.571.02121-2.50022,0-5.001-.01664-.0618,40.40305-.01831,80.81062.79083-.00332,1.58123-.003c1.33631,0,2.67273.00507,4.00959.00507,1.424,0,2.84881-.00576,4.27417-.02955-.05036-13.03736-.00916-26.07471-.02289-39.11212h-4.34882V49.53285q1.00113-.00218,2.002-.002,2.83053,0,5.66327.00427,2.50937,0,5.01965-.016.03434,27.42516-.01373,54.8457-3.30617-.02052-6.61213-.01778c-3.282,0-6.56359.00908-9.84564.00908q-.62174,0-1.24426-.00048l-.02161,0a8.86367,8.86367,0,0,1-8.08557-5.388c-.67749-1.68006-.44861-3.52026-.48065-5.2827q-.00009-38.90609-.00464-77.81221a8.82285,8.82285,0,0,1,7.25568-8.75261c1.18524-.04553,2.37079-.05814,3.557-.05814,1.47339,0,2.94764.01947,4.42182.01947.6806,0,1.36127-.00415,2.04187-.01628a7.04231,7.04231,0,0,1,.74151-.039m.00068-7h-.00068c-.37,0-.7431.01482-1.11322.04414q-.835.01241-1.67016.01113c-.7218,0-1.44361-.00482-2.16535-.00955-.75225-.005-1.50451-.00989-2.25647-.00989-1.48626,0-2.7019.02011-3.82568.06326a6.99866,6.99866,0,0,0-.80035.077,15.90757,15.90757,0,0,0-13.18659,15.79748q.01457,27.67082.006,55.34032L455.12784,93.685q0,.06362.00116.12729c.0058.31723-.00024.63759-.00494.959a16.68752,16.68752,0,0,0,.98407,6.79362,15.96035,15.96035,0,0,0,14.586,9.79076l1.26581.00045q2.46634,0,4.9325-.00457,2.45654-.00339,4.91308-.00452,3.28455,0,6.56873.01765l.04358.00013a6.99992,6.99992,0,0,0,6.99981-6.9772c.05957-18.28808.03632-36.87894.0138-54.8577a7.01681,7.01681,0,0,0-7.00061-7.01079l-.05243.0002q-2.48328.01879-4.96661.01582l-2.82459-.00212-2.83868-.00214-.49689.00049q.00036-2.91944.0014-5.84367a6.97992,6.97992,0,0,0,2.61322.50427h.01136l1.04534-.00079,1.802.00129,1.81616.00129q1.992,0,3.9848-.01586a7,7,0,0,0,6.933-7.03326c-.01819-3.79256-.013-7.66277-.008-11.40555l.00329-2.71893a15.43854,15.43854,0,0,0-4.3172-11.11537A15.29665,15.29665,0,0,0,480.14176.02623Z" fill="#fff"/><path d="M513.82993,107.96539c-1.06934,0-2.13867-.001-3.207-.00879a3.50015,3.50015,0,0,1-3.47559-3.50195q.01611-32.38623.00293-64.77441l-.00293-16.23535a3.5009,3.5009,0,0,1,3.5-3.50049l10.02832-.00782q3.41309,0,6.82422.02149l.085-.00049a12.7682,12.7682,0,0,1,11.50977,7.021,9.94457,9.94457,0,0,1,.8164,4.6748c-.00195.22119-.00488.44141-.001.65918-.01172,4.83643-.01075,9.6001-.00879,14.36377q.00146,5.66529-.00391,11.33057c0,.05908-.00195.11767-.00488.17675a12.37094,12.37094,0,0,1-5.92676,9.93213c2.32617,10.79,4.624,21.71289,6.85254,32.30469l.67383,3.20508a3.49959,3.49959,0,0,1-3.418,4.2207q-3.93165.00734-7.85254.00489a3.50043,3.50043,0,0,1-3.41113-2.7168q-2.31592-10.084-4.64747-20.1582.00147,9.75-.01367,19.50195a3.50088,3.50088,0,0,1-3.5,3.49219Zm8.44726-53.80615,2.38379-.00049q.00732-7.541.00195-15.082l-.001-4.24023h-2.38477Z" fill="#d5e14d"/><path d="M520.68906,23.43675q3.3933,0,6.78576.02132.05566-.00066.11133-.00066a9.22167,9.22167,0,0,1,8.35291,5.0362,8.77433,8.77433,0,0,1,.47149,3.88188c-.02288,8.54205,0,17.08412-.01373,25.62608-.18768,3.62106-2.75122,7.31067-6.48205,7.93781,2.76953,12.79017,5.45666,25.59864,8.153,38.40711q-3.92771.00687-7.84625.00458-4.36716-19.01358-8.76636-38.00885-1.40076.01374-2.79242.01833c-.00915,12.70316.01379,25.40636-.01373,38.10955q-1.33657-.00687-2.67267-.00561-1.06458,0-2.12866.00065-1.60071,0-3.20008-.00879.02-40.506-.00042-81.012.58831.00048,1.17651.00047c2.95441,0,5.91016-.008,8.86542-.008m.2251,34.2229q1.88754,0,3.77514-.001,1.73373,0,3.46759.00424.0207-13.16324.00458-26.32651h-9.38434V57.65826q1.0686.00159,2.137.00139m-.2251-41.22288q-2.22135,0-4.44287.004-2.21155.003-4.42255.004l-1.17059-.00047h-.006a7,7,0,0,0-6.99994,7.00121l.00256,13.724q.00669,33.64173-.00214,67.28338a7,7,0,0,0,6.95185,7.00327q1.623.01117,3.24823.00895l1.06726-.00033,1.0614-.00031q1.31826,0,2.63666.00553l.036.0001a7.00057,7.00057,0,0,0,5.82641-3.12017,7.00048,7.00048,0,0,0,5.7461,3.00112q3.927,0,7.85852-.00458a7,7,0,0,0,6.83758-8.442l-.77856-3.69934c-2.03973-9.69269-4.13861-19.66644-6.26386-29.55882a15.892,15.892,0,0,0,5.51227-11.28248q.00906-.17538.0094-.351.00916-5.70278.00385-11.40558-.00212-7.1065.00988-14.213.00019-.07217-.00116-.14436c-.00335-.18724-.001-.37663.00062-.56684a13.33061,13.33061,0,0,0-1.15772-6.21411,16.108,16.108,0,0,0-14.6662-9.01152l-.09778.00058q-3.39889-.02478-6.79925-.02122Z" fill="#fff"/><path d="M558.14536,107.85114a3.49925,3.49925,0,0,1-3.5-3.501V74.68805q-.00294-21.86426.00488-43.729a11.07416,11.07416,0,0,1,10.16309-10.88233c.03808-.002.07617-.00293.11425-.00342,1.31739-.01855,2.63379-.02295,3.95215-.02295l4.27832.00538q1.40772,0,2.81543-.01075l.2041-.00146a11.54606,11.54606,0,0,1,7.35059,2.46,10.88467,10.88467,0,0,1,3.86719,8.46533c-.00293,16.30127,0,73.38233,0,73.38233a3.5005,3.5005,0,0,1-3.5,3.5h-7.89649a3.50029,3.50029,0,0,1-3.5-3.499s0-28.7959-.00293-34.95508c0,0-2.40625.001-2.835.001q-.00879,7.76806-.0039,15.53613.00146,9.71485-.00977,19.42871a3.5009,3.5009,0,0,1-3.5,3.49317Zm14.125-53.58008V48.2818q.00146-6.49438-.00391-12.98779l-2.37793-.001q0,3.27246-.00293,6.54541-.00586,6.21606.00391,12.43213c.292-.00049.583-.00049.875-.00049Z" fill="#d5e14d"/><path d="M576.17838,23.54361a8.04169,8.04169,0,0,1,5.126,1.66316,7.39952,7.39952,0,0,1,2.591,5.75423q-.00687,36.69507,0,73.39008h-7.89655q-.00687-19.22646-.00458-38.45748-2.46039.00345-4.91961.00459-2.45526,0-4.90876-.00914c-.02288,12.82219.00458,25.64439-.01831,38.46661q-2.00161-.00687-4.00091-.00573-2,0-4.001.00115.00687-36.695.00458-73.39008a7.55065,7.55065,0,0,1,6.82538-7.38841c1.29657-.01778,2.593-.02243,3.88958-.02243,1.4328,0,2.86548.00569,4.29828.00569q1.4199,0,2.83991-.01075.08743-.00149.175-.00149m-3.88111,8.25021q-1.89368,0-3.78747-.001-1.06166,0-2.12427.00136c.01373,8.66565-.02747,17.33131.01831,25.997,1.4585-.01711,2.91687-.02123,4.37537-.02123,1.35486,0,2.70953.00356,4.06439.00356q.463,0,.92627-.00064c-.00458-8.66108.00915-17.32213-.00916-25.98322q-1.73263.00509-3.46344.00427m3.88111-15.25021q-.13183,0-.26337.002-1.37567.01179-2.75159.01024l-2.13525-.00284-2.163-.00286c-1.32849,0-2.65692.00489-3.98541.02308q-.11453.00156-.229.00687A14.47314,14.47314,0,0,0,551.1503,30.92619q-.01254,22.06571-.00507,44.06967.00165,14.67695.00037,29.35391a7.00006,7.00006,0,0,0,7,7.00131l2.00433-.00059,1.99665-.00055q1.98787,0,3.97687.0057l.024,0a6.99988,6.99988,0,0,0,4.928-2.02855,6.97791,6.97791,0,0,0,4.92334,2.024h7.89655a7,7,0,0,0,7-7l-.001-24.46378q-.00147-24.46246.001-48.925a14.42517,14.42517,0,0,0-5.16993-11.18282,15.05045,15.05045,0,0,0-9.547-3.23587Z" fill="#fff"/><path d="M604.037,107.85114a3.49925,3.49925,0,0,1-3.5-3.501c.00293-16.40918,0-73.83789,0-73.83789a10.62594,10.62594,0,0,1,10.18066-10.45313c1.40332-.00586,2.76563-.00781,4.12891-.00781l6.99609.00537,2.45117-.00244a3.49922,3.49922,0,0,1,3.5,3.5v7.21a3.50089,3.50089,0,0,1-3.5,3.5c-.00293,0-8.02929.001-8.624-.00049q-.02343,7.42749-.00684,14.853.00294,2.63452.00391,5.26953c.4502,0,6.45215.001,6.45215.001a3.50017,3.50017,0,0,1,3.5,3.5l-.001,2.25488c-.002,1.91113-.0039,3.82227.00586,5.7334a3.50094,3.50094,0,0,1-3.48926,3.51758q-2.10937.00585-4.21679.00586l-2.25391-.002q-.00732,9.94776-.00195,19.89942l.001,15.05566a3.50028,3.50028,0,0,1-3.5,3.499Z" fill="#d5e14d"/><path d="M614.89176,23.5515q3.48723,0,6.97418.005,1.21335,0,2.42779-.00224v7.20988q-.9722-.00219-1.94415-.002-2.46213,0-4.9231.00339-2.621,0-5.24084-.0197c-.05035,9.05017-.01373,18.09576-.01831,27.14592q2.47476-.00687,4.95184-.00572,2.49921,0,5.00019.00117c0,2.66875-.00922,5.33759.00457,8.00638q-2.10415.00582-4.20813.0053-2.8741,0-5.74847-.0053-.02059,19.22646-.00458,38.45748h-8.12543q.00687-36.92158,0-73.83869a7.186,7.186,0,0,1,6.73383-6.95357q2.06122-.00836,4.12061-.00732m0-7q-2.0745,0-4.149.00738l-.07843.00075a14.18181,14.18181,0,0,0-13.62671,13.89862l-.00025.05414.001,24.61063q.00147,24.612-.001,49.22675a7.00006,7.00006,0,0,0,7,7.00131h8.12543a7,7,0,0,0,7-6.9975q.00275-7.69483-.00036-15.39128-.00174-8.03178-.00007-16.06379,1.4904-.001,2.9809-.00493a7,7,0,0,0,6.98065-7.03619c-.00982-1.89125-.00787-3.78253-.006-5.67378l.00153-2.29639a7,7,0,0,0-7-7l-2.49805-.00059-.45648-.00011q-.00073-.86474-.00159-1.72931c-.0036-3.7438-.00726-7.56679-.00134-11.39285l.733-.00051,2.45471-.00169,1.92822.002h.01593a7,7,0,0,0,7-7V23.55428a7,7,0,0,0-6.99994-7l-.01422,0-2.41363.00221-3.47974-.0025-3.49444-.00252Z" fill="#fff"/><path d="M652.71079,107.984c-1.13965-.01758-2.27832-.02149-3.417-.02149l-4.87109.00293a3.50051,3.50051,0,0,1-3.4873-3.498l.001-9.94141q.00294-7.73145-.00488-15.46094a16.46048,16.46048,0,0,1,1.96094-7.17969s.35644-.78613.37793-.83105a100.96094,100.96094,0,0,1,5.68945-9.877c-3.05957-4.62647-6.22168-9.41016-7.79688-15.09522a3.46912,3.46912,0,0,1-.125-.81885c-.14843-4.5-.126-9.05029-.10351-13.45068.01367-2.74219.02734-5.48437.001-8.22461a3.50107,3.50107,0,0,1,3.5-3.53369h8.46875a3.49985,3.49985,0,0,1,3.5,3.47607c.01953,2.873.00878,5.748-.002,8.62256-.01562,4.21534-.03222,8.564.05371,12.83643.373.59424.76172,1.18555,1.16309,1.78418.35644-.53125.69824-1.05811,1.01562-1.58887.06739-4.63379.05372-9.34619.04-13.91308-.00781-2.57227-.01562-5.145-.00976-7.71631a3.50036,3.50036,0,0,1,3.48242-3.4917q2.272-.011,4.543-.01221,1.99218,0,3.98535.01221a3.49992,3.49992,0,0,1,3.47656,3.51758c-.01758,3.51025-.01465,7.02-.01074,10.53027l.002,5.59082c-.00683.519-.001.99853.00489,1.479a18.73613,18.73613,0,0,1-.92774,7.25293,75.49368,75.49368,0,0,1-6.64941,12.82227c2.96679,4.74316,5.9707,9.665,7.3916,15.41113a3.49936,3.49936,0,0,1,.10156.77344c.11719,6.15527.09571,12.40234.0752,18.44336q-.01465,4.29345-.01465,8.58594a3.50089,3.50089,0,0,1-3.5,3.50488h-.02442q-1.727-.01172-3.45214-.00977h-4.40821a3.50052,3.50052,0,0,1-3.49316-3.48925q-.01611-5.23829.001-10.47657c.00878-5.166.01757-10.498-.03028-15.749-.418-.76953-.90332-1.53223-1.4248-2.30664q-.75879,1.11768-1.51172,2.24023-.00147,3.91552.00586,7.83008c.00781,6.05859.01562,12.32324-.02442,18.49219a3.50055,3.50055,0,0,1-3.5,3.47754Z" fill="#d5e14d"/><path d="M666.70792,23.55128q1.972,0,3.94446.01207c-.02747,5.37886-.00458,10.75769-.00916,16.13652-.032,2.49939.238,5.08126-.68671,7.47085a81.2866,81.2866,0,0,1-7.50744,14.09486c3.19067,5.127,6.65143,10.31816,8.11627,16.24174.16937,8.9815.04578,17.98134.05951,26.96734q-1.70535-.01188-3.40863-.00984-1.603,0-3.20612.00169-.63144,0-1.26349-.001c-.02746-9.02728.05494-18.0545-.03662-27.07722-1.32757-2.73289-3.32806-5.12251-4.92108-7.71806-1.63885,2.50859-3.36,4.9577-5.00806,7.45709-.00457,9.11882.04126,18.23766-.01824,27.3565-1.15973-.0172-2.31861-.02163-3.47706-.02163-1.23669,0-2.47259.00505-3.70867.00505q-.57047,0-1.14118-.00173c-.00458-8.46875.00916-16.93756-.00458-25.40639-.03662-2.298,1.062-4.39916,1.973-6.44541a102.79789,102.79789,0,0,1,6.74756-11.43521c-3.30505-5.06749-6.981-10.13046-8.61523-16.03116-.238-7.187-.032-14.39692-.10065-21.59307h8.46875c.05036,7.48454-.10522,14.97824.07324,22.45829,1.43744,2.3987,3.11286,4.65554,4.61438,7.02222,1.474-2.31636,3.19983-4.48158,4.52735-6.88947.12823-7.52125.02746-15.05613.04577-22.582q2.27153-.011,4.54267-.01207m0-7q-2.28846,0-4.57654.01216A6.97318,6.97318,0,0,0,657.54,18.309a6.97367,6.97367,0,0,0-4.6355-1.75471h-8.46875a7,7,0,0,0-6.99969,7.0668c.02575,2.69935.01178,5.47188-.00171,8.15311-.0224,4.44-.0456,9.03128.10589,13.60481a6.999,6.999,0,0,0,.25007,1.63672c1.49133,5.38469,4.29077,10.03984,7.00225,14.1961-1.78625,2.87079-3.32336,5.60688-4.65521,8.283q-.067.13462-.12823.272c-.09949.22359-.20148.44784-.3039.673a19.96007,19.96007,0,0,0-2.274,8.67087q.01227,7.59363.00489,15.18694-.00165,5.08583-.00037,10.17164a7,7,0,0,0,6.977,6.99619l1.16419.00175,1.86816-.00256,1.84051-.0025c1.12391,0,2.24817.0042,3.37323.02087.03467.00051.06946.00077.104.00077a6.99965,6.99965,0,0,0,4.89642-1.99769q.05274-.05165.10437-.10436a6.97939,6.97939,0,0,0,4.971,2.08375l1.27551.001,1.60889-.00085,1.59723-.00084q1.67953,0,3.35986.00967l.04883.00017a7,7,0,0,0,6.99994-7.01069q-.0066-4.28414.01477-8.57142c.02026-6.05886.04126-12.324-.0755-18.5172a7.00252,7.00252,0,0,0-.20349-1.54842c-1.35437-5.47691-4.03534-10.28112-6.68085-14.58853a71.60477,71.60477,0,0,0,5.82031-11.58131,21.97255,21.97255,0,0,0,1.14789-8.51788c-.00519-.4515-.011-.902-.00531-1.34955l.00055-.08386q.00247-2.85222-.002-5.70444c-.0033-3.46739-.00666-6.93482.0111-10.40225a7.00007,7.00007,0,0,0-6.95471-7.03562q-1.99465-.01289-3.98968-.01222Z" fill="#fff"/><path d="M723.667,21.714a42.95135,42.95135,0,0,1,32.776,76.66775,43.09463,43.09463,0,0,1-61.5883-10.40517A42.937,42.937,0,0,1,723.667,21.714ZM701.89538,45.74705c-.01375,1.6846-.01375,3.36463-.00917,5.04465q2.27967,0,4.57315-.00457.01374,13.45164.00458,26.89872h-4.57773c-.00458,1.68-.00458,3.35547,0,5.0355h14.3054c-.00458-1.68,0-3.35548,0-5.0355-1.529,0-3.058,0-4.58231-.00916.02749-10.62948-.02291-21.259.02291-31.88844C708.38656,45.715,705.141,45.77909,701.89538,45.74705Zm18.75951,3.16321c.02749,10.06184-.05951,20.12369.04118,30.18553a29.30617,29.30617,0,0,0,3.22732,3.39667h32.02576c1.17645-1.51981,3.653-2.55437,3.28683-4.79746-.05493-4.30764.05035-8.6107-.05035-12.91377a16.82771,16.82771,0,0,0-2.69628-2.90227c-10.40975.04578-20.81949-.02747-31.22924.03662-.06409-3.74458-.01375-7.49374-.02749-11.23832H754.759c-.00458,1.56558-.00458,3.13116.00917,4.69675q2.22477-.00687,4.45412-.00458c0-2.211-.01833-4.42666.01832-6.6377-.92471-.97506-1.87685-1.92265-2.82906-2.86566-10.8721.03662-21.7442-.05036-32.61171.0412A32.47628,32.47628,0,0,0,720.65489,48.91026Z" fill="#f79226"/><path d="M269.06218,23.43979c2.77868-.00916,5.55278.01831,8.33146-.01831.05493,24.26653.00458,48.53763.02289,72.80416h9.38434c.01831-24.27111-.03662-48.53763.02747-72.80874,2.81988.05035,5.63518,0,8.45506.03662q-.04807,34.88915-.01374,69.77828a22.04923,22.04923,0,0,1-.27008,5.0355,8.213,8.213,0,0,1-7.8508,6.19824c-3.35547,0-6.71552.01373-10.071-.00916a8.48243,8.48243,0,0,1-7.9927-8.50541C269.03013,71.78058,269.07591,47.61019,269.06218,23.43979Z" fill="#f79226"/><path d="M316.44165,23.43979c5.77709.032,11.56334-.06409,17.34043.04578,4.09249.05493,8.47337,3.15405,8.51457,7.5212q.0206,13.28,0,26.56455c-.03205,3.83155-2.591,7.82333-6.53241,8.53288,2.72832,12.78559,5.41088,25.57575,8.14835,38.35676-2.61846.00916-5.23692.00458-7.85538.00458-2.8977-12.63-5.8366-25.24617-8.72973-37.87611-.95674-.00458-1.91807-.00458-2.87481-.00916q-.00687,18.94493-.00458,37.88526h-8.00644Zm8.34977,8.0156q.01374,13.21818.00458,26.43179c3.08538.00458,6.17078-.01373,9.26074.01373.02289-8.8167.00459-17.6334.00916-26.4501C330.97135,31.45539,327.88138,31.44623,324.79142,31.45539Z" fill="#f79226"/><path d="M365.06168,23.4581c6.05633-.01373,12.11266-.06409,18.16441.01831a7.67514,7.67514,0,0,1,7.59445,7.06343c.02288,8.54662,0,17.09781.00915,25.649.02288,2.37584-1.67545,4.2527-3.34174,5.73589,1.61136,1.34127,3.17237,3.08539,3.32344,5.28269.2472,3.48365.087,6.981.13276,10.47384-.0412,5.33305.10071,10.67068-.11445,16.00374-.07324,2.266.34791,4.69217-.78278,6.77961a7.60162,7.60162,0,0,1-6.77047,4.00093c-6.0609.01374-12.11724-.02289-18.17814.01374C365.04338,77.47069,365.11661,50.46211,365.06168,23.4581Zm8.37266,7.99271q0,13.21818.00458,26.441c3.09-.00916,6.17535,0,9.26532-.00458.00458-8.81212-.00915-17.61967.00915-26.42721C379.61886,31.44166,376.52889,31.45539,373.43434,31.45081Zm.00915,34.896c-.02288,10.03437-.00458,20.07332-.00915,30.1077,3.09-.00457,6.18452.00916,9.27448-.00457q-.0206-15.05157-.00458-30.094C379.61886,66.3514,376.52889,66.36513,373.44349,66.34682Z" fill="#f79226"/><path d="M417.79709,23.893c2.46282-.70954,5.05838-.38453,7.58986-.45319,2.78784.05493,5.8-.34333,8.34977,1.062,2.53607,1.34585,4.7883,3.90938,4.70591,6.9261q-.01373,31.15371,0,62.30743c-.03205,1.8082.21057,3.72627-.62257,5.4063a9.05228,9.05228,0,0,1-6.92152,5.30558c-2.74663.06409-5.49327-.01373-8.23532.02289a12.7237,12.7237,0,0,1-4.79747-.47608c-3.21356-1.26345-5.85948-4.43124-5.7542-7.99729q.00687-31.11939,0-62.24792c.01831-1.67087-.16479-3.43329.5356-5.00345A8.94027,8.94027,0,0,1,417.79709,23.893Zm3.13116,7.67227q-.00687,32.21118-.00458,64.42693,4.46328.01372,8.93572,0-.01373-32.218-.00458-64.42693Z" fill="#f79226"/><path d="M725.4615,66.6993q14.47474.00687,28.95871.00458c-.00917,3.621-.00459,7.242-.00459,10.86752-9.659-.0183-19.318.032-28.97245-.02746C725.48441,73.92753,725.44776,70.3157,725.4615,66.6993Z" fill="#f79226"/><polygon points="234.354 15.125 226.489 15.125 226.489 7 251.667 7 251.667 15.125 243.802 15.125 243.802 104.391 234.354 104.391 234.354 15.125" fill="#f79226"/><path d="M462.12321,15.87281a8.82282,8.82282,0,0,1,7.25568-8.75262c3.33716-.12817,6.67892.00458,10.02065-.05493,4.8112-.50813,9.31111,4.033,9.05476,8.79381-.00458,4.77457-.0183,9.54914.00458,14.31913-2.86566.02747-5.72674.00916-8.5924.01374-.01375-4.85239.02747-9.70021-.02288-14.5526-3.19066.032-6.38135.02289-9.572.00458q-.06181,40.403-.0183,80.8106c3.28681-.01373,6.57361.02747,9.865-.02746-.05035-13.03736-.00917-26.07473-.02288-39.1121h-4.34884V49.53283c4.22523-.00915,8.455.01831,12.68489-.01373q.03432,27.42516-.01375,54.84574c-5.9007-.03663-11.80139-.00458-17.70206-.00916a8.86325,8.86325,0,0,1-8.10716-5.388c-.6775-1.68-.44861-3.52027-.48066-5.28269Q462.12778,54.7789,462.12321,15.87281Z" fill="#d5e14d"/><path d="M510.64711,23.44437c5.60771.00457,11.22-.02747,16.82773.01373a9.23159,9.23159,0,0,1,8.46421,5.0355,8.775,8.775,0,0,1,.47152,3.88191c-.02289,8.542,0,17.08407-.01375,25.62611-.18767,3.621-2.75122,7.31063-6.48205,7.93777,2.76952,12.79017,5.45664,25.59865,8.15293,38.40713q-3.92766.00687-7.84623.00458-4.36714-19.0136-8.76636-38.00887-1.40076.01374-2.7924.01831c-.00916,12.70319.01375,25.40638-.01374,38.10957-2.66883-.01373-5.33762.00458-8.00141-.01373Q510.66751,63.95039,510.64711,23.44437Zm8.13,7.892V57.65829c3.12659.00458,6.25316-.00457,9.37975.00458q.02062-13.16325.00459-26.3265Z" fill="#d5e14d"/><path d="M558.15019,30.961a7.55069,7.55069,0,0,1,6.82537-7.38845c3.67593-.05035,7.35183.00458,11.02776-.02746a8.10649,8.10649,0,0,1,5.301,1.66171,7.39931,7.39931,0,0,1,2.591,5.7542q-.00687,36.69506,0,73.39011h-7.89657q-.00689-19.22645-.00459-38.45748c-3.27764.00457-6.5553.00916-9.82836-.00458-.02288,12.82221.00458,25.64443-.0183,38.46664-2.66882-.00916-5.33306-.00458-8.00186-.00458Q558.15247,67.656,558.15019,30.961Zm8.23532.83315c.01375,8.66564-.02746,17.33127.0183,25.99691,3.122-.03662,6.244-.01373,9.366-.01831-.00458-8.661.00916-17.32211-.00916-25.98317C572.63412,31.79872,569.51211,31.78956,566.38551,31.79414Z" fill="#d5e14d"/><path d="M604.03731,30.51237a7.186,7.186,0,0,1,6.73385-6.95356c4.50905-.01831,9.01354.00458,13.52259-.00458v7.20992c-4.03756-.00915-8.07512.01831-12.10809-.01831-.05035,9.05016-.01375,18.09575-.0183,27.14592,3.31427-.00916,6.63312-.00458,9.952-.00458,0,2.66882-.00916,5.33763.00458,8.00645q-4.97827.01373-9.95655,0-.02063,19.22644-.00459,38.45747h-8.12546Q604.04418,67.42946,604.03731,30.51237Z" fill="#d5e14d"/><path d="M644.43575,23.55423h8.46879c.05035,7.48458-.10528,14.97832.07323,22.45833,1.43741,2.39872,3.11285,4.65554,4.61436,7.02223,1.474-2.31633,3.19982-4.4816,4.52738-6.88948.12819-7.52121.02746-15.05614.04576-22.58193q4.24355-.02059,8.4871,0c-.02747,5.37883-.00459,10.75766-.00917,16.13649-.03205,2.49944.23805,5.08127-.68666,7.47085a81.28708,81.28708,0,0,1-7.50748,14.09482c3.19066,5.127,6.65145,10.31819,8.1163,16.24177.16937,8.9815.04577,17.98131.05951,26.96739-2.62761-.01831-5.25064-.00458-7.87827-.00916-.02747-9.02728.05493-18.05455-.03663-27.07726-1.32756-2.7329-3.328-5.12247-4.92106-7.718-1.63883,2.50859-3.36006,4.95767-5.008,7.45711-.00459,9.11883.04121,18.23766-.0183,27.35649-2.77869-.0412-5.55279-.00916-8.32689-.01831-.00458-8.46879.00916-16.93759-.00458-25.40638-.03663-2.298,1.062-4.39919,1.973-6.44544a102.77787,102.77787,0,0,1,6.74756-11.43516c-3.3051-5.06754-6.981-10.13051-8.61528-16.0312C644.29842,37.96034,644.50442,30.75042,644.43575,23.55423Z" fill="#d5e14d"/></svg>