<?xml version="1.0" encoding="utf-8"?>
<!-- Generator: Adobe Illustrator 22.0.0, SVG Export Plug-In . SVG Version: 6.00 Build 0)  -->
<svg version="1.1" id="Capa_1" xmlns="http://www.w3.org/2000/svg" xmlns:xlink="http://www.w3.org/1999/xlink" x="0px" y="0px"
	 viewBox="0 0 85 85" style="enable-background:new 0 0 85 85;" xml:space="preserve">
<g>
	<g transform="translate(1 1)">
		<path style="fill:#424242;" d="M57.084,25.917v38.845c0.001,0.512-0.276,0.984-0.723,1.233L34.417,78.334h-8.5L3.973,65.995
			c-0.447-0.249-0.724-0.72-0.723-1.233V25.917c0-21.251,22.666-22.666,22.666-22.666h8.5C34.417,3.251,57.084,4.666,57.084,25.917z
			"/>
		<path style="fill:#9E9E9E;" d="M52.834,25.917v38.845c0.001,0.512-0.276,0.984-0.723,1.233L34.417,75.94l-4.251,2.394h-4.251
			L3.973,65.995c-0.447-0.249-0.724-0.72-0.723-1.233V34.417H1.834C1.052,34.415,0.419,33.782,0.417,33v-5.666
			c0.002-0.782,0.635-1.415,1.417-1.417h1.417c0-21.251,22.666-22.667,22.666-22.667h4.251c1.433,0.13,2.855,0.371,4.25,0.723
			C40.977,5.559,52.834,10.546,52.834,25.917z"/>
		<path style="fill:#607D8B;" d="M50.001,34.417V41.5c0,0.783-0.634,1.417-1.417,1.417H11.751c-0.783,0-1.417-0.634-1.417-1.417
			v-7.083H50.001L50.001,34.417z"/>
		<g>
			<path style="fill:#F44335;" d="M59.918,27.334V33c-0.002,0.782-0.635,1.415-1.417,1.417H1.834
				C1.052,34.415,0.419,33.782,0.417,33v-5.666c0.002-0.782,0.635-1.415,1.417-1.417h24.083V1.834
				c0.002-0.782,0.635-1.415,1.417-1.417H33c0.782,0.002,1.415,0.635,1.417,1.417v24.083H58.5
				C59.282,25.919,59.915,26.552,59.918,27.334z"/>
			<polygon style="fill:#F44335;" points="34.417,78.334 30.167,82.584 25.917,78.334 25.917,34.417 34.417,34.417 			"/>
		</g>
	</g>
	<g>
		<path d="M59.501,25.5h-0.047C58.602,7.488,41.729,3.708,36.834,2.994v-0.16C36.832,1.269,35.565,0.002,34.001,0h-5.666
			c-1.564,0.002-2.832,1.269-2.834,2.834v0.16C20.605,3.708,3.731,7.488,2.881,25.5H2.834C1.27,25.502,0.002,26.769,0,28.334V34
			c0.002,1.564,1.269,2.832,2.834,2.834v28.921c0.001,1.023,0.553,1.966,1.444,2.469l21.774,12.247l4.114,4.114
			C30.431,84.851,30.791,85,31.166,85c0.375,0,0.736-0.149,1.001-0.415l4.114-4.114l21.777-12.248
			c0.89-0.503,1.44-1.446,1.442-2.468V36.834c1.564-0.002,2.832-1.269,2.834-2.834v-5.666C62.332,26.77,61.065,25.502,59.501,25.5z
			 M56.621,25.5H36.834V5.833C41.579,6.521,55.803,9.89,56.621,25.5z M25.501,5.836V25.5H5.714
			C6.534,9.93,20.753,6.535,25.501,5.836z M5.667,36.834h4.251V42.5c0.002,1.564,1.269,2.832,2.834,2.834h12.749v31.579
			L5.667,65.755V36.834z M25.501,36.834V42.5H12.751v-5.666H25.501z M34.001,78.747l-2.834,2.834l-2.834-2.834V36.834H34
			L34.001,78.747L34.001,78.747z M49.584,36.834V42.5H36.834v-5.666H49.584z M56.667,65.757L36.834,76.913V45.334h12.75
			c1.564-0.002,2.832-1.269,2.834-2.834v-5.666h4.25L56.667,65.757L56.667,65.757z M59.501,34H2.834v-5.666h24.083
			c0.376,0,0.737-0.149,1.002-0.415c0.266-0.266,0.415-0.626,0.415-1.002V2.834H34v24.083c0,0.376,0.149,0.737,0.415,1.002
			c0.266,0.266,0.626,0.415,1.002,0.415H59.5L59.501,34L59.501,34z"/>
		<path d="M10.455,48.281c-0.527-0.222-1.137-0.106-1.544,0.298c-0.26,0.272-0.406,0.631-0.411,1.005
			c-0.004,0.377,0.144,0.74,0.411,1.006c0.136,0.128,0.294,0.229,0.468,0.298c0.168,0.079,0.352,0.118,0.538,0.114
			c0.377,0.004,0.74-0.145,1.005-0.411s0.415-0.629,0.411-1.005c-0.005-0.375-0.152-0.735-0.411-1.006
			C10.787,48.45,10.628,48.349,10.455,48.281z"/>
		<path d="M16.122,48.281c-0.527-0.222-1.137-0.106-1.544,0.298c-0.26,0.272-0.406,0.631-0.411,1.005
			c-0.004,0.377,0.144,0.74,0.411,1.006c0.136,0.128,0.294,0.229,0.468,0.298c0.168,0.079,0.352,0.118,0.538,0.114
			c0.377,0.004,0.74-0.145,1.005-0.411c0.266-0.266,0.415-0.629,0.411-1.005c-0.005-0.375-0.152-0.735-0.411-1.006
			C16.454,48.45,16.296,48.349,16.122,48.281z"/>
		<path d="M20.712,50.887c0.168,0.079,0.352,0.118,0.538,0.114c0.377,0.004,0.74-0.145,1.005-0.411
			c0.267-0.267,0.415-0.629,0.411-1.005c-0.005-0.375-0.152-0.735-0.411-1.006c-0.136-0.128-0.295-0.228-0.468-0.298
			c-0.527-0.222-1.137-0.106-1.544,0.298c-0.26,0.272-0.407,0.631-0.411,1.006c-0.004,0.377,0.144,0.74,0.411,1.006
			C20.38,50.717,20.539,50.819,20.712,50.887z"/>
		<path d="M10.455,53.946c-0.527-0.222-1.137-0.106-1.544,0.298c-0.26,0.272-0.406,0.631-0.411,1.006
			c-0.004,0.377,0.144,0.74,0.411,1.006c0.136,0.128,0.294,0.229,0.468,0.298c0.168,0.079,0.352,0.118,0.538,0.114
			c0.377,0.004,0.74-0.145,1.005-0.411c0.266-0.266,0.415-0.629,0.411-1.005c-0.005-0.375-0.152-0.735-0.411-1.006
			C10.787,54.115,10.628,54.015,10.455,53.946z"/>
		<path d="M16.122,53.946c-0.527-0.222-1.137-0.106-1.544,0.298c-0.26,0.272-0.406,0.631-0.411,1.006
			c-0.004,0.377,0.144,0.74,0.411,1.006c0.136,0.128,0.294,0.229,0.468,0.298c0.168,0.079,0.352,0.118,0.538,0.114
			c0.377,0.004,0.74-0.145,1.005-0.411c0.266-0.266,0.415-0.629,0.411-1.005c-0.005-0.375-0.152-0.735-0.411-1.006
			C16.454,54.115,16.296,54.015,16.122,53.946z"/>
		<path d="M21.789,53.946c-0.527-0.222-1.137-0.106-1.544,0.298c-0.26,0.272-0.406,0.631-0.411,1.006
			c-0.004,0.377,0.144,0.74,0.411,1.006c0.136,0.128,0.294,0.229,0.468,0.298c0.168,0.079,0.352,0.118,0.538,0.114
			c0.377,0.004,0.74-0.145,1.005-0.411c0.266-0.266,0.415-0.629,0.411-1.005c-0.005-0.375-0.152-0.735-0.411-1.006
			C22.121,54.115,21.962,54.015,21.789,53.946z"/>
		<path d="M10.455,59.611c-0.527-0.222-1.137-0.106-1.544,0.298c-0.26,0.272-0.406,0.631-0.411,1.006
			c-0.004,0.377,0.144,0.74,0.411,1.006c0.136,0.128,0.294,0.229,0.468,0.298c0.168,0.079,0.352,0.118,0.538,0.114
			c0.377,0.004,0.74-0.145,1.005-0.411c0.267-0.267,0.415-0.629,0.411-1.005c-0.005-0.375-0.152-0.735-0.411-1.006
			C10.787,59.781,10.628,59.679,10.455,59.611z"/>
		<path d="M16.122,59.611c-0.527-0.222-1.137-0.106-1.544,0.298c-0.26,0.272-0.406,0.631-0.411,1.006
			c-0.004,0.377,0.144,0.74,0.411,1.006c0.136,0.128,0.294,0.229,0.468,0.298c0.168,0.079,0.352,0.118,0.538,0.114
			c0.377,0.004,0.74-0.145,1.005-0.411c0.267-0.267,0.415-0.629,0.411-1.005c-0.005-0.375-0.152-0.735-0.411-1.006
			C16.454,59.781,16.296,59.679,16.122,59.611z"/>
		<path d="M21.789,59.611c-0.527-0.222-1.137-0.106-1.544,0.298c-0.26,0.272-0.406,0.631-0.411,1.006
			c-0.004,0.377,0.144,0.74,0.411,1.006c0.136,0.128,0.294,0.229,0.468,0.298c0.168,0.079,0.352,0.118,0.538,0.114
			c0.377,0.004,0.74-0.145,1.005-0.411c0.267-0.267,0.415-0.629,0.411-1.005c-0.005-0.375-0.152-0.735-0.411-1.006
			C22.121,59.781,21.962,59.679,21.789,59.611z"/>
		<path d="M16.122,65.276c-0.527-0.222-1.137-0.106-1.544,0.298c-0.26,0.272-0.406,0.631-0.411,1.006
			c-0.004,0.377,0.144,0.74,0.411,1.006c0.136,0.128,0.294,0.229,0.468,0.298c0.168,0.079,0.352,0.118,0.538,0.114
			c0.377,0.004,0.74-0.145,1.005-0.411c0.267-0.267,0.415-0.629,0.411-1.005c-0.005-0.375-0.152-0.735-0.411-1.006
			C16.454,65.446,16.296,65.344,16.122,65.276z"/>
		<path d="M21.789,65.276c-0.527-0.222-1.137-0.106-1.544,0.298c-0.26,0.272-0.406,0.631-0.411,1.006
			c-0.004,0.377,0.144,0.74,0.411,1.006c0.136,0.128,0.294,0.229,0.468,0.298c0.168,0.079,0.352,0.118,0.538,0.114
			c0.377,0.004,0.74-0.145,1.005-0.411c0.267-0.267,0.415-0.629,0.411-1.005c-0.005-0.375-0.152-0.735-0.411-1.006
			C22.121,65.446,21.962,65.344,21.789,65.276z"/>
		<path d="M51.879,48.281c-0.173,0.068-0.332,0.17-0.468,0.298c-0.259,0.272-0.406,0.631-0.411,1.005
			c-0.004,0.377,0.145,0.74,0.411,1.005c0.267,0.267,0.629,0.415,1.005,0.411c0.186,0.004,0.37-0.034,0.538-0.114
			c0.173-0.068,0.332-0.169,0.468-0.298c0.267-0.267,0.415-0.629,0.411-1.005c-0.005-0.375-0.152-0.735-0.411-1.006
			C53.017,48.175,52.407,48.058,51.879,48.281z"/>
		<path d="M46.212,48.281c-0.173,0.068-0.332,0.17-0.468,0.298c-0.259,0.272-0.406,0.631-0.411,1.005
			c-0.004,0.377,0.145,0.74,0.411,1.005c0.267,0.267,0.629,0.415,1.005,0.411c0.186,0.004,0.37-0.034,0.538-0.114
			c0.173-0.068,0.332-0.169,0.468-0.298c0.267-0.267,0.415-0.629,0.411-1.005c-0.005-0.375-0.152-0.735-0.411-1.006
			C47.349,48.175,46.74,48.058,46.212,48.281z"/>
		<path d="M40.546,48.281c-0.173,0.068-0.332,0.17-0.468,0.298c-0.259,0.272-0.406,0.631-0.411,1.005
			c-0.004,0.377,0.145,0.74,0.411,1.005c0.267,0.267,0.629,0.415,1.005,0.411c0.186,0.004,0.37-0.034,0.538-0.114
			c0.173-0.068,0.332-0.169,0.468-0.298c0.267-0.267,0.415-0.629,0.411-1.005c-0.005-0.375-0.152-0.735-0.411-1.006
			C41.683,48.175,41.073,48.058,40.546,48.281z"/>
		<path d="M51.879,53.946c-0.173,0.068-0.332,0.17-0.468,0.298c-0.259,0.272-0.406,0.631-0.411,1.006
			c-0.004,0.377,0.145,0.74,0.411,1.005c0.266,0.266,0.629,0.415,1.005,0.411c0.186,0.004,0.37-0.034,0.538-0.114
			c0.173-0.068,0.332-0.169,0.468-0.298c0.267-0.267,0.415-0.629,0.411-1.006c-0.005-0.375-0.152-0.735-0.411-1.006
			C53.017,53.841,52.407,53.723,51.879,53.946z"/>
		<path d="M46.212,53.946c-0.173,0.068-0.332,0.17-0.468,0.298c-0.259,0.272-0.406,0.631-0.411,1.006
			c-0.004,0.377,0.145,0.74,0.411,1.005c0.266,0.266,0.629,0.415,1.005,0.411c0.186,0.004,0.37-0.034,0.538-0.114
			c0.173-0.068,0.332-0.169,0.468-0.298c0.267-0.267,0.415-0.629,0.411-1.006c-0.005-0.375-0.152-0.735-0.411-1.006
			C47.349,53.841,46.74,53.723,46.212,53.946z"/>
		<path d="M40.546,53.946c-0.173,0.068-0.332,0.17-0.468,0.298c-0.259,0.272-0.406,0.631-0.411,1.006
			c-0.004,0.377,0.145,0.74,0.411,1.005c0.266,0.266,0.629,0.415,1.005,0.411c0.186,0.004,0.37-0.034,0.538-0.114
			c0.173-0.068,0.332-0.169,0.468-0.298c0.267-0.267,0.415-0.629,0.411-1.006c-0.005-0.375-0.152-0.735-0.411-1.006
			C41.683,53.841,41.073,53.723,40.546,53.946z"/>
		<path d="M51.879,59.611c-0.173,0.068-0.332,0.17-0.468,0.298c-0.259,0.272-0.406,0.631-0.411,1.006
			c-0.004,0.377,0.145,0.74,0.411,1.005s0.629,0.415,1.005,0.411c0.186,0.004,0.37-0.034,0.538-0.114
			c0.173-0.068,0.332-0.169,0.468-0.298c0.267-0.267,0.415-0.629,0.411-1.006c-0.005-0.375-0.152-0.735-0.411-1.006
			C53.017,59.505,52.407,59.388,51.879,59.611z"/>
		<path d="M46.212,59.611c-0.173,0.068-0.332,0.17-0.468,0.298c-0.259,0.272-0.406,0.631-0.411,1.006
			c-0.004,0.377,0.145,0.74,0.411,1.005c0.266,0.266,0.629,0.415,1.005,0.411c0.186,0.004,0.37-0.034,0.538-0.114
			c0.173-0.068,0.332-0.169,0.468-0.298c0.267-0.267,0.415-0.629,0.411-1.006c-0.005-0.375-0.152-0.735-0.411-1.006
			C47.349,59.505,46.74,59.388,46.212,59.611z"/>
		<path d="M40.546,59.611c-0.173,0.068-0.332,0.17-0.468,0.298c-0.259,0.272-0.406,0.631-0.411,1.006
			c-0.004,0.377,0.145,0.74,0.411,1.005c0.266,0.266,0.629,0.415,1.005,0.411c0.186,0.004,0.37-0.034,0.538-0.114
			c0.173-0.068,0.332-0.169,0.468-0.298c0.267-0.267,0.415-0.629,0.411-1.006c-0.005-0.375-0.152-0.735-0.411-1.006
			C41.683,59.505,41.073,59.388,40.546,59.611z"/>
		<path d="M46.212,65.276c-0.173,0.068-0.332,0.17-0.468,0.298c-0.259,0.272-0.406,0.631-0.411,1.006
			c-0.004,0.377,0.145,0.74,0.411,1.005c0.267,0.267,0.629,0.415,1.005,0.411c0.186,0.004,0.37-0.034,0.538-0.114
			c0.173-0.068,0.332-0.169,0.468-0.298c0.267-0.267,0.415-0.629,0.411-1.006c-0.005-0.375-0.152-0.735-0.411-1.006
			C47.349,65.17,46.74,65.054,46.212,65.276z"/>
		<path d="M40.546,65.276c-0.173,0.068-0.332,0.17-0.468,0.298c-0.259,0.272-0.406,0.631-0.411,1.006
			c-0.004,0.377,0.145,0.74,0.411,1.005c0.267,0.267,0.629,0.415,1.005,0.411c0.186,0.004,0.37-0.034,0.538-0.114
			c0.173-0.068,0.332-0.169,0.468-0.298c0.267-0.267,0.415-0.629,0.411-1.006c-0.005-0.375-0.152-0.735-0.411-1.006
			C41.683,65.17,41.073,65.054,40.546,65.276z"/>
	</g>
</g>
</svg>
