<svg id="Layer_1" data-name="Layer 1" xmlns="http://www.w3.org/2000/svg" viewBox="0 0 105 105"><title>icon_filled</title><path d="M70.78322,103.46239c-2.94919-.19289-5.89576-.47437-8.84807-.56157-7.92333-.234-15.83522.17426-23.74014.64974-2.20054.13236-4.38649.53807-6.57161.86818A4.80823,4.80823,0,0,0,30.41023,105a1.03043,1.03043,0,0,1,.00592-.3766c1.32592-3.50069,2.64711-7.00329,3.99864-10.49414q1.34886-3.484,2.77533-6.93772c.881-2.11933,1.845-4.20411,2.72888-6.32229.54447-1.30481.983-2.6535,1.51284-3.96482.67123-1.6613,1.41448-3.29364,2.07813-4.95783,1.97768-4.9593,3.92369-9.93124,5.90473-14.88918.25258-.63214-.37887-.68519-.56317-1.024-.054-.09933-.38685-.14356-.53571-.08049q-4.177,1.76987-8.33757,3.57841c-4.29836,1.87818-8.58636,3.78007-12.88275,5.66275-4.08733,1.79108-8.18338,3.56228-12.26862,5.35809-2.30129,1.01162-4.58312,2.06749-6.88406,3.0799-1.34086.59-2.70385,1.1295-4.05364,1.69942-.84332.35607-1.67875.73084-2.52232,1.08631A2.349,2.349,0,0,1,.9071,76.514,42.29084,42.29084,0,0,0,1.5994,67.93c.06017-6.90828.10393-13.81829-.3132-20.71872-.184-3.04414-.43974-6.08472-.71908-9.12175A14.3272,14.3272,0,0,0,0,35.8776a13.47765,13.47765,0,0,1,1.37462.3794q6.93252,2.68035,13.8548,5.38717Q26.16916,45.92807,37.1,50.2346c3.71064,1.46572,7.40328,2.977,11.10416,4.46744a.91635.91635,0,0,0,.3357.12338c.58232-.031.7081.3101.73949.79985.01091.1702.17932.33031.27579.495.116-.112.22648-.23062.34909-.3349.36091-.307.72663-.60827,1.12938-.94425l-.37911-.46745-.30133.49113-1.05169-.519a2.9915,2.9915,0,0,0-.05941-.873c-.85526-2.0391-1.73977-4.06591-2.61126-6.09822-1.99965-4.6632-3.96429-9.34172-6.00274-13.98788q-4.41921-10.07247-8.92833-20.10544c-.88349-1.97488-1.85107-3.91212-2.77553-5.86877a4.30215,4.30215,0,0,1-.16262-.51373,2.52671,2.52671,0,0,1,.40426.02569,37.13687,37.13687,0,0,0,9.26314.85962c5.8969-.03062,11.79442-.09236,17.68963-.22949,2.45034-.057,4.89705-.32124,7.34222-.52875,1.27187-.10794,2.54444-.25308,3.80161-.46919a11.78794,11.78794,0,0,0,1.86485-.6531,6.82924,6.82924,0,0,1-.2113,1.08113c-1.7555,4.7788-3.50446,9.56018-5.29821,14.32467Q61.535,26.84163,59.354,32.33674q-4.02,10.18378-8.08236,20.35079a2.00644,2.00644,0,0,1-.22731.52854c-.45881.56766-.00856.8648.28507,1.27932.32905.46452.67452.17914.93228.075,2.25245-.91048,4.4994-1.83666,6.72622-2.80807q8.69925-3.795,17.37885-7.635c3.15632-1.39715,6.298-2.82792,9.43581-4.26622,4.18265-1.91719,8.35517-3.85646,12.483-5.76362-.1449,2.16437-.40427,4.36282-.41612,6.56261-.025,4.6441.06654,9.2891.13662,13.93333.03158,2.09271.05542,4.18962.20719,6.27557.30317,4.16656.69154,8.32692,1.04765,12.4896a1.74385,1.74385,0,0,0,.10008.56642c.19511.428.42783.83883.639,1.24417a5.53737,5.53737,0,0,1-.734-.20881c-3.355-1.37915-6.69879-2.78571-10.0606-4.14791-3.22763-1.30783-6.46974-2.58014-9.71114-3.85369-5.414-2.1272-10.83607-4.23406-16.24793-6.36673-3.49154-1.37592-6.971-2.78253-10.45557-4.176a2.143,2.143,0,0,1-.26248-.12017c-.827-.46865-1.15964-.42177-1.62657.32967-.09147.1472.0008.45514.08443.65748,1.02352,2.47639,2.03311,4.95913,3.101,7.41646,2.40931,5.544,4.85772,11.07109,7.27441,16.61195,2.53733,5.81744,5.05177,11.64487,7.587,17.46323.49,1.12444,1.04257,2.22149,1.53939,3.34308a11.27379,11.27379,0,0,1,.38813,1.21674Z" fill="#cf123b"/><path d="M70.876,103.33441l.06058.15683-.15336-.02886Z" fill="#cf123b"/><path d="M30.62907,103.91422c-1.949-2.22178-3.8335-4.50436-5.85944-6.65362-5.43714-5.76813-11.32041-11.074-17.24624-16.32737C5.87377,79.4708,4.0412,78.212,2.26265,76.90029A4.80839,4.80839,0,0,0,.9938,76.45346c.06912-.06912.15064-.20811.27048-.26211,3.41294-1.53779,6.82387-3.08028,10.24794-4.593,2.27824-1.00651,4.566-1.99306,6.86817-2.94325,2.12156-.87563,4.27737-1.66815,6.40015-2.54093,1.30764-.53764,2.5714-1.18121,3.87329-1.73381,1.64934-.70008,3.32914-1.32877,4.97517-2.03625,4.90519-2.10833,9.79692-4.248,14.70352-6.353.62559-.26839.21659-.7524.32586-1.1223.032-.10845-.172-.37506-.32189-.43573q-4.20508-1.7021-8.42587-3.36523c-4.36747-1.71132-8.74438-3.39856-13.11365-5.10531-4.15666-1.6237-8.30544-3.26762-12.464-4.88648-2.34258-.91194-4.70269-1.77883-7.04558-2.68995-1.36532-.531-2.71059-1.11324-4.068-1.66468-.8481-.34454-1.70384-.67028-2.55169-1.01542A2.34789,2.34789,0,0,1,.27458,35.449,42.29037,42.29037,0,0,0,6.834,29.86865c4.92744-4.84234,9.84449-9.69751,14.42889-14.87181,2.02241-2.28265,3.99159-4.61349,5.94158-6.95852a14.32766,14.32766,0,0,0,1.163-1.96505,13.4772,13.4772,0,0,1,.70373,1.24027q3.00674,6.79734,5.98752,13.60613,4.7064,10.76474,9.39049,21.53921c1.58741,3.66023,3.12986,7.34,4.69288,11.01078a.91658.91658,0,0,0,.15012.32462c.43368.38985.28144.72-.04267,1.08848-.11264.12806-.10677.36035-.155.545.16126.00281.32321-.00293.48365.01.47226.03814.94392.0837,1.46628.13091l.06247-.59861-.56036.13421-.3767-1.11062c.23407-.26137.48111-.42907.57528-.65929.8371-2.04662,1.64483-4.10523,2.46566-6.15853,1.88341-4.71134,3.80241-9.40877,5.64634-14.13551q3.99746-10.24716,7.90341-20.53c.77173-2.02117,1.45738-4.07518,2.18725-6.11244a4.30433,4.30433,0,0,1,.24827-.47825,2.52785,2.52785,0,0,1,.26769.304,37.13708,37.13708,0,0,0,5.94218,7.15788Q81.693,19.60376,88.07665,25.7278c1.77295,1.69235,3.68988,3.23559,5.56562,4.81785.97567.823,1.97814,1.62024,3.0199,2.35637a11.78736,11.78736,0,0,0,1.78046.85685,6.82868,6.82868,0,0,1-.91388.61506c-4.62044,2.13779-9.23809,4.282-13.87547,6.38267q-5.38461,2.4391-10.81249,4.78248-10.04357,4.35847-20.10528,8.67509a2.00592,2.00592,0,0,1-.53447.213c-.72581.077-.61755.60545-.703,1.1062-.0958.56113.35029.60362.60622.71221,2.23653.94892,4.48027,1.88285,6.74176,2.77055q8.83474,3.46785,17.68744,6.89c3.21979,1.24393,6.453,2.45369,9.6888,3.65546,4.31324,1.60192,8.63493,3.18106,12.90233,4.75134-1.6329,1.428-3.37084,2.79912-4.9347,4.34623-3.30157,3.26618-6.52134,6.61543-9.75575,9.94895-1.45744,1.5021-2.92332,3.0017-4.291,4.584-2.73184,3.16058-5.399,6.377-8.09068,9.57228a1.74408,1.74408,0,0,0-.32975.47129c-.16467.4406-.29063.89566-.4279,1.33164a5.53753,5.53753,0,0,1-.3714-.66671c-1.39712-3.34754-2.767-6.70656-4.1809-10.04694-1.35751-3.207-2.75037-6.39923-4.14184-9.59178-2.32414-5.33245-4.66833-10.65618-6.98707-15.991-1.496-3.44181-2.96168-6.89676-4.44029-10.34611a2.145,2.145,0,0,1-.10063-.27057c-.25337-.91615-.52175-1.11824-1.38327-.91706-.16876.03941-.32127.3224-.40521.52462-1.02734,2.4748-2.069,4.94425-3.05149,7.437-2.2166,5.62387-4.39352,11.26336-6.60264,16.8902-2.31939,5.90771-4.662,11.80631-6.98356,17.71318-.44865,1.14155-.83362,2.308-1.2754,3.45243a11.27467,11.27467,0,0,1-.58592,1.13482Z" fill="#fff"/><path d="M30.78517,103.88934l-.06806.15373-.088-.12885Z" fill="#fff"/></svg>