<?xml version="1.0" encoding="utf-8"?>
<!-- Generator: Adobe Illustrator 22.0.0, SVG Export Plug-In . SVG Version: 6.00 Build 0)  -->
<svg version="1.1" id="Capa_1" xmlns="http://www.w3.org/2000/svg" xmlns:xlink="http://www.w3.org/1999/xlink" x="0px" y="0px"
	 viewBox="0 0 85 85" style="enable-background:new 0 0 85 85;" xml:space="preserve">
<g>
	<g transform="translate(1 1)">
		<path style="fill:#606060;" d="M57.082,25.917v38.845c0.001,0.512-0.275,0.984-0.722,1.233L34.415,78.333h-8.5L3.971,65.994
			c-0.447-0.249-0.724-0.721-0.722-1.233V25.917c0-21.25,22.667-22.667,22.667-22.667h8.5C34.415,3.25,57.082,4.667,57.082,25.917z"
			/>
		<path style="fill:#DBDBDB;" d="M52.832,25.917v38.845c0.001,0.512-0.275,0.984-0.722,1.233L34.416,75.94l-4.25,2.394h-4.25
			L3.971,65.994c-0.447-0.249-0.724-0.721-0.722-1.233V34.417H1.832C1.05,34.414,0.417,33.781,0.415,33v-5.667
			c0.002-0.781,0.635-1.414,1.417-1.417h1.417c0-21.25,22.667-22.667,22.667-22.667h4.25c1.433,0.129,2.854,0.371,4.25,0.722
			C40.974,5.559,52.832,10.546,52.832,25.917z"/>
		<path style="fill:#969696;" d="M49.998,34.417V41.5c0,0.782-0.634,1.417-1.417,1.417H11.748c-0.782,0-1.417-0.634-1.417-1.417
			v-7.083H49.998L49.998,34.417z"/>
		<g>
			<path style="fill:#777777;" d="M59.915,27.333V33c-0.002,0.781-0.635,1.414-1.417,1.417H1.832C1.05,34.414,0.417,33.781,0.415,33
				v-5.667c0.002-0.781,0.635-1.414,1.417-1.417h24.083V1.833c0.002-0.781,0.635-1.414,1.417-1.417h5.667
				c0.781,0.002,1.414,0.635,1.417,1.417v24.083h24.083C59.28,25.919,59.913,26.552,59.915,27.333z"/>
			<polygon style="fill:#777777;" points="34.415,78.333 30.165,82.583 25.915,78.333 25.915,34.417 34.415,34.417 			"/>
		</g>
	</g>
	<g>
		<path style="fill:#494949;" d="M59.498,25.5h-0.047C58.6,7.487,41.727,3.708,36.832,2.993v-0.16
			C36.83,1.269,35.562,0.002,33.998,0h-5.667c-1.564,0.002-2.831,1.269-2.833,2.833v0.16C20.603,3.708,3.73,7.487,2.879,25.5H2.832
			c-1.564,0.002-2.831,1.269-2.833,2.833V34c0.002,1.564,1.269,2.831,2.833,2.833v28.921c0.001,1.023,0.553,1.967,1.444,2.469
			L26.05,80.471l4.114,4.114C30.429,84.851,30.789,85,31.165,85s0.736-0.149,1.002-0.415l4.114-4.114l21.776-12.248
			c0.89-0.503,1.44-1.446,1.442-2.468V36.833c1.564-0.002,2.831-1.269,2.833-2.833v-5.667C62.33,26.769,61.062,25.502,59.498,25.5z
			 M56.619,25.5H36.832V5.833C41.577,6.521,55.8,9.89,56.619,25.5z M25.498,5.837V25.5H5.712C6.532,9.93,20.751,6.535,25.498,5.837z
			 M5.665,36.833h4.25V42.5c0.002,1.564,1.269,2.831,2.833,2.833h12.75v31.578L5.665,65.755V36.833z M25.498,36.833V42.5h-12.75
			v-5.667H25.498z M33.998,78.747l-2.833,2.833l-2.833-2.833V36.833h5.667L33.998,78.747L33.998,78.747z M49.582,36.833V42.5h-12.75
			v-5.667H49.582z M56.665,65.756L36.832,76.912V45.333h12.75c1.564-0.002,2.831-1.269,2.833-2.833v-5.667h4.25L56.665,65.756
			L56.665,65.756z M59.498,34H2.832v-5.667h24.083c0.376,0,0.736-0.149,1.002-0.415s0.415-0.626,0.415-1.002V2.833h5.667v24.083
			c0,0.376,0.149,0.736,0.415,1.002c0.266,0.266,0.626,0.415,1.002,0.415h24.083L59.498,34L59.498,34z"/>
		<path style="fill:#5E5E5E;" d="M10.453,48.28c-0.527-0.223-1.137-0.105-1.544,0.298c-0.259,0.271-0.406,0.631-0.411,1.006
			c-0.004,0.377,0.144,0.739,0.411,1.006c0.135,0.128,0.294,0.229,0.468,0.297C9.545,50.966,9.729,51.005,9.915,51
			c0.377,0.004,0.739-0.144,1.006-0.411c0.266-0.266,0.415-0.629,0.411-1.006c-0.005-0.375-0.152-0.734-0.411-1.006
			C10.785,48.45,10.626,48.349,10.453,48.28z"/>
		<path style="fill:#5E5E5E;" d="M16.12,48.28c-0.527-0.223-1.137-0.105-1.544,0.298c-0.259,0.271-0.406,0.631-0.411,1.006
			c-0.004,0.377,0.144,0.739,0.411,1.006c0.135,0.128,0.294,0.229,0.468,0.297c0.168,0.079,0.352,0.118,0.538,0.113
			c0.377,0.004,0.739-0.144,1.006-0.411s0.415-0.629,0.411-1.006c-0.005-0.375-0.152-0.734-0.411-1.006
			C16.452,48.45,16.293,48.349,16.12,48.28z"/>
		<path style="fill:#5E5E5E;" d="M20.71,50.887c0.168,0.079,0.352,0.118,0.538,0.113c0.377,0.004,0.739-0.144,1.006-0.411
			s0.415-0.629,0.411-1.006c-0.005-0.375-0.152-0.734-0.411-1.006c-0.136-0.128-0.294-0.229-0.468-0.297
			c-0.527-0.223-1.137-0.105-1.544,0.297c-0.259,0.271-0.406,0.631-0.411,1.006c-0.004,0.377,0.144,0.739,0.411,1.006
			C20.378,50.717,20.537,50.818,20.71,50.887z"/>
		<path style="fill:#5E5E5E;" d="M10.453,53.945c-0.527-0.223-1.137-0.105-1.544,0.298c-0.259,0.271-0.406,0.631-0.411,1.006
			c-0.004,0.377,0.144,0.739,0.411,1.006c0.135,0.128,0.294,0.229,0.468,0.298c0.168,0.079,0.352,0.118,0.538,0.113
			c0.377,0.004,0.739-0.144,1.006-0.411c0.266-0.266,0.415-0.629,0.411-1.006c-0.005-0.375-0.152-0.734-0.411-1.006
			C10.785,54.115,10.626,54.014,10.453,53.945z"/>
		<path style="fill:#5E5E5E;" d="M16.12,53.945c-0.527-0.223-1.137-0.105-1.544,0.298c-0.259,0.271-0.406,0.631-0.411,1.006
			c-0.004,0.377,0.144,0.739,0.411,1.006c0.135,0.128,0.294,0.229,0.468,0.298c0.168,0.079,0.352,0.118,0.538,0.113
			c0.377,0.004,0.739-0.144,1.006-0.411c0.266-0.266,0.415-0.629,0.411-1.006c-0.005-0.375-0.152-0.734-0.411-1.006
			C16.452,54.115,16.293,54.014,16.12,53.945z"/>
		<path style="fill:#5E5E5E;" d="M21.786,53.945c-0.527-0.223-1.137-0.105-1.544,0.298c-0.259,0.271-0.406,0.631-0.411,1.006
			c-0.004,0.377,0.144,0.739,0.411,1.006c0.135,0.128,0.294,0.229,0.468,0.298c0.168,0.079,0.352,0.118,0.538,0.113
			c0.377,0.004,0.739-0.144,1.006-0.411c0.266-0.266,0.415-0.629,0.411-1.006c-0.005-0.375-0.152-0.734-0.411-1.006
			C22.119,54.115,21.96,54.014,21.786,53.945z"/>
		<path style="fill:#5E5E5E;" d="M10.453,59.61c-0.527-0.223-1.137-0.105-1.544,0.297c-0.259,0.271-0.406,0.631-0.411,1.006
			c-0.004,0.377,0.144,0.739,0.411,1.006c0.135,0.128,0.294,0.229,0.468,0.297c0.168,0.079,0.352,0.118,0.538,0.113
			c0.377,0.004,0.739-0.144,1.006-0.411c0.266-0.266,0.415-0.629,0.411-1.006c-0.005-0.375-0.152-0.734-0.411-1.006
			C10.785,59.78,10.626,59.679,10.453,59.61z"/>
		<path style="fill:#5E5E5E;" d="M16.12,59.61c-0.527-0.223-1.137-0.105-1.544,0.297c-0.259,0.271-0.406,0.631-0.411,1.006
			c-0.004,0.377,0.144,0.739,0.411,1.006c0.135,0.128,0.294,0.229,0.468,0.297c0.168,0.079,0.352,0.118,0.538,0.113
			c0.377,0.004,0.739-0.144,1.006-0.411s0.415-0.629,0.411-1.006c-0.005-0.375-0.152-0.734-0.411-1.006
			C16.452,59.78,16.293,59.679,16.12,59.61z"/>
		<path style="fill:#5E5E5E;" d="M21.786,59.61c-0.527-0.223-1.137-0.105-1.544,0.297c-0.259,0.271-0.406,0.631-0.411,1.006
			c-0.004,0.377,0.144,0.739,0.411,1.006c0.135,0.128,0.294,0.229,0.468,0.297c0.168,0.079,0.352,0.118,0.538,0.113
			c0.377,0.004,0.739-0.144,1.006-0.411s0.415-0.629,0.411-1.006c-0.005-0.375-0.152-0.734-0.411-1.006
			C22.119,59.78,21.96,59.679,21.786,59.61z"/>
		<path style="fill:#5E5E5E;" d="M16.12,65.276c-0.527-0.223-1.137-0.105-1.544,0.298c-0.259,0.271-0.406,0.631-0.411,1.006
			c-0.004,0.377,0.144,0.739,0.411,1.006c0.135,0.128,0.294,0.229,0.468,0.298c0.168,0.079,0.352,0.118,0.538,0.113
			c0.377,0.004,0.739-0.144,1.006-0.411s0.415-0.629,0.411-1.006c-0.005-0.375-0.152-0.734-0.411-1.006
			C16.452,65.445,16.293,65.344,16.12,65.276z"/>
		<path style="fill:#5E5E5E;" d="M21.786,65.276c-0.527-0.223-1.137-0.105-1.544,0.298c-0.259,0.271-0.406,0.631-0.411,1.006
			c-0.004,0.377,0.144,0.739,0.411,1.006c0.135,0.128,0.294,0.229,0.468,0.298c0.168,0.079,0.352,0.118,0.538,0.113
			c0.377,0.004,0.739-0.144,1.006-0.411s0.415-0.629,0.411-1.006c-0.005-0.375-0.152-0.734-0.411-1.006
			C22.119,65.445,21.96,65.344,21.786,65.276z"/>
		<path style="fill:#5E5E5E;" d="M51.877,48.28c-0.173,0.069-0.332,0.17-0.468,0.298c-0.259,0.272-0.405,0.631-0.411,1.006
			c-0.004,0.377,0.144,0.739,0.411,1.006s0.629,0.415,1.006,0.411c0.186,0.004,0.37-0.034,0.538-0.113
			c0.173-0.068,0.332-0.169,0.468-0.298c0.267-0.266,0.415-0.629,0.411-1.006c-0.005-0.375-0.152-0.734-0.411-1.006
			C53.014,48.175,52.404,48.057,51.877,48.28z"/>
		<path style="fill:#5E5E5E;" d="M46.21,48.28c-0.173,0.069-0.332,0.17-0.468,0.298c-0.259,0.272-0.405,0.631-0.411,1.006
			c-0.004,0.377,0.144,0.739,0.411,1.006s0.629,0.415,1.006,0.411c0.186,0.004,0.37-0.034,0.538-0.113
			c0.173-0.068,0.332-0.169,0.468-0.298c0.267-0.266,0.415-0.629,0.411-1.006c-0.005-0.375-0.152-0.734-0.411-1.006
			C47.347,48.175,46.738,48.057,46.21,48.28z"/>
		<path style="fill:#5E5E5E;" d="M40.544,48.28c-0.173,0.069-0.332,0.17-0.468,0.298c-0.259,0.272-0.405,0.631-0.411,1.006
			c-0.004,0.377,0.144,0.739,0.411,1.006s0.629,0.415,1.006,0.411c0.186,0.004,0.37-0.034,0.538-0.113
			c0.173-0.068,0.332-0.169,0.468-0.298c0.267-0.266,0.415-0.629,0.411-1.006c-0.005-0.375-0.152-0.734-0.411-1.006
			C41.681,48.175,41.071,48.057,40.544,48.28z"/>
		<path style="fill:#5E5E5E;" d="M51.877,53.945c-0.173,0.069-0.332,0.17-0.468,0.298c-0.259,0.272-0.405,0.631-0.411,1.006
			c-0.004,0.377,0.144,0.739,0.411,1.006s0.629,0.415,1.006,0.411c0.186,0.004,0.37-0.034,0.538-0.113
			c0.173-0.068,0.332-0.169,0.468-0.297c0.267-0.266,0.415-0.629,0.411-1.006c-0.005-0.375-0.152-0.734-0.411-1.006
			C53.014,53.84,52.404,53.723,51.877,53.945z"/>
		<path style="fill:#5E5E5E;" d="M46.21,53.945c-0.173,0.069-0.332,0.17-0.468,0.298c-0.259,0.272-0.405,0.631-0.411,1.006
			c-0.004,0.377,0.144,0.739,0.411,1.006s0.629,0.415,1.006,0.411c0.186,0.004,0.37-0.034,0.538-0.113
			c0.173-0.068,0.332-0.169,0.468-0.297c0.267-0.266,0.415-0.629,0.411-1.006c-0.005-0.375-0.152-0.734-0.411-1.006
			C47.347,53.84,46.738,53.723,46.21,53.945z"/>
		<path style="fill:#5E5E5E;" d="M40.544,53.945c-0.173,0.069-0.332,0.17-0.468,0.298c-0.259,0.272-0.405,0.631-0.411,1.006
			c-0.004,0.377,0.144,0.739,0.411,1.006s0.629,0.415,1.006,0.411c0.186,0.004,0.37-0.034,0.538-0.113
			c0.173-0.068,0.332-0.169,0.468-0.297c0.267-0.266,0.415-0.629,0.411-1.006c-0.005-0.375-0.152-0.734-0.411-1.006
			C41.681,53.84,41.071,53.723,40.544,53.945z"/>
		<path style="fill:#5E5E5E;" d="M51.877,59.61c-0.173,0.069-0.332,0.17-0.468,0.297c-0.259,0.272-0.405,0.631-0.411,1.006
			c-0.004,0.377,0.144,0.739,0.411,1.006c0.266,0.266,0.629,0.415,1.006,0.411c0.186,0.004,0.37-0.034,0.538-0.113
			c0.173-0.068,0.332-0.169,0.468-0.298c0.267-0.266,0.415-0.629,0.411-1.006c-0.005-0.375-0.152-0.734-0.411-1.006
			C53.014,59.505,52.404,59.388,51.877,59.61z"/>
		<path style="fill:#5E5E5E;" d="M46.21,59.61c-0.173,0.069-0.332,0.17-0.468,0.297c-0.259,0.272-0.405,0.631-0.411,1.006
			c-0.004,0.377,0.144,0.739,0.411,1.006c0.266,0.266,0.629,0.415,1.006,0.411c0.186,0.004,0.37-0.034,0.538-0.113
			c0.173-0.068,0.332-0.169,0.468-0.298c0.267-0.266,0.415-0.629,0.411-1.006c-0.005-0.375-0.152-0.734-0.411-1.006
			C47.347,59.505,46.738,59.388,46.21,59.61z"/>
		<path style="fill:#5E5E5E;" d="M40.544,59.61c-0.173,0.069-0.332,0.17-0.468,0.297c-0.259,0.272-0.405,0.631-0.411,1.006
			c-0.004,0.377,0.144,0.739,0.411,1.006c0.266,0.266,0.629,0.415,1.006,0.411c0.186,0.004,0.37-0.034,0.538-0.113
			c0.173-0.068,0.332-0.169,0.468-0.298c0.267-0.266,0.415-0.629,0.411-1.006c-0.005-0.375-0.152-0.734-0.411-1.006
			C41.681,59.505,41.071,59.388,40.544,59.61z"/>
		<path style="fill:#5E5E5E;" d="M46.21,65.276c-0.173,0.069-0.332,0.17-0.468,0.298c-0.259,0.272-0.405,0.631-0.411,1.006
			c-0.004,0.377,0.144,0.739,0.411,1.006s0.629,0.415,1.006,0.411c0.186,0.004,0.37-0.034,0.538-0.113
			c0.173-0.068,0.332-0.169,0.468-0.298c0.267-0.266,0.415-0.629,0.411-1.006c-0.005-0.375-0.152-0.734-0.411-1.006
			C47.347,65.17,46.738,65.053,46.21,65.276z"/>
		<path style="fill:#5E5E5E;" d="M40.544,65.276c-0.173,0.069-0.332,0.17-0.468,0.298c-0.259,0.272-0.405,0.631-0.411,1.006
			c-0.004,0.377,0.144,0.739,0.411,1.006s0.629,0.415,1.006,0.411c0.186,0.004,0.37-0.034,0.538-0.113
			c0.173-0.068,0.332-0.169,0.468-0.298c0.267-0.266,0.415-0.629,0.411-1.006c-0.005-0.375-0.152-0.734-0.411-1.006
			C41.681,65.17,41.071,65.053,40.544,65.276z"/>
	</g>
</g>
</svg>
