<svg id="Layer_1" data-name="Layer 1" xmlns="http://www.w3.org/2000/svg" viewBox="0 0 1000 114"><path d="M496.26,107.48c-.74,0-1.51,0-7.17-2.81-3.25-1.58-7.48-3.35-9.37-4-8.64-2.94-22.49-4.63-38-4.63h-6.69a3.5,3.5,0,0,1-3.5-3.5V7a3.5,3.5,0,0,1,3.5-3.5h8.33c28.77,0,45.26,3.41,53.45,11.07l1.72,1.6a3.46,3.46,0,0,1,1.12,2.58L499.48,70a3.43,3.43,0,0,1-.4,1.61,3.56,3.56,0,0,1,.56,1.91V88.48c0,8,.09,14,.16,14.94a3.57,3.57,0,0,1-.57,2.5,3.65,3.65,0,0,1-3,1.56Z" fill="#333"/><path d="M443.38,7c27.46,0,43.66,3.22,51.06,10.13l1.73,1.61-.09,25.66L496,70l-1.57-1.28a4,4,0,0,0-2.77-1.29c-1,0-1.25.13-1.41.71-.29,1.09-.29,1,1.09,2.8s2.7,2.6,4,2.6h.8V88.48c0,8.2.1,15.14.19,15.43,0,0,0,.07-.07.07a32,32,0,0,1-5.62-2.45c-3.24-1.57-7.65-3.44-9.77-4.18-9.07-3.08-23.06-4.82-39.13-4.82h-6.69V7h8.33M468.1,54.59a7.47,7.47,0,0,0,4-1.9,2.28,2.28,0,0,1,1-.67c.68,0,2.29-1.55,2.74-2.61s.35-1.06-.33-1.61a1.59,1.59,0,0,0-1-.52,7.78,7.78,0,0,0-2.53.94c-4.35,2-5.76,3.51-5.12,5.37.29.77.55,1,1.19,1m18.31,7.64a3.24,3.24,0,0,0,.5,0c1.1-.23,1.51-.68,1.51-1.58a5.26,5.26,0,0,0-1.67-3.21c-.32-.23-.58-.52-.58-.71a9.78,9.78,0,0,0-1.57-2c-1.18-1.29-2.1-1.93-2.87-1.93a1.6,1.6,0,0,0-1.22.65c-.61.71-.64.87-.25,1.77a26.78,26.78,0,0,0,4.37,5.91c.88.88,1.25,1.15,1.78,1.15M454.36,64.8a8.42,8.42,0,0,0,5-2.59c2-1.87,2.64-3.28,1.7-3.76a2.12,2.12,0,0,0-1.07-.29,6.62,6.62,0,0,0-2.95,1.09c-2.44,1.38-4,3-4.11,4.18-.07.93.5,1.37,1.4,1.37m-8.8,7.75a4.13,4.13,0,0,0,1-.21,8.15,8.15,0,0,0,2.09-1c.93-.74,1.74-2.8,1.29-3.25a3.68,3.68,0,0,0-1.42-.48,3.4,3.4,0,0,0-.45,0,4.6,4.6,0,0,0-3.92,2.31c-.55,1.13-.55,1.16.29,2,.49.49.73.69,1.12.69M443.38,0h-8.33a7,7,0,0,0-7,7V92.53a7,7,0,0,0,7,7h6.69c15.11,0,28.54,1.62,36.85,4.44,1.77.62,5.87,2.35,9,3.85,5.75,2.85,7.12,3.16,8.7,3.16a7,7,0,0,0,7-7.88c-.06-1.2-.15-6.85-.15-14.62V73.56a7.17,7.17,0,0,0-.31-2.08,6.74,6.74,0,0,0,.15-1.43l.1-25.63.09-25.66a7,7,0,0,0-2.24-5.16L499.19,12c-8.86-8.28-26.08-12-55.81-12Z" fill="#fff"/><path d="M503.74,107.48a3.64,3.64,0,0,1-3-1.56,3.58,3.58,0,0,1-.57-2.5c.07-1,.16-6.83.16-14.55V74.33a3.5,3.5,0,0,1,.86-2.3,8.38,8.38,0,0,1-.7-4c0-1.29,0-3.16-.06-5.47,0-4.6,0-11-.07-18l0-26a3.53,3.53,0,0,1,1.15-2.6l1.7-1.54C510,8.3,521.82,5,541.43,3.86c2.55-.13,8.81-.29,14.11-.33l9.41,0a3.5,3.5,0,0,1,3.5,3.5V92.53A3.5,3.5,0,0,1,565,96h-6.69c-15.49,0-29.34,1.69-38,4.64-1.87.65-6.1,2.42-9.38,4C505.25,107.48,504.48,107.48,503.74,107.48ZM539.8,41.43a5.12,5.12,0,0,1,2.12,1,10.21,10.21,0,0,1,2.06,2.2,3.48,3.48,0,0,1,.48-3.48l-.5,0a3.5,3.5,0,0,1-2.67-1.23l-.93-1.09c-.18-.21-.38-.47-.6-.77a3.87,3.87,0,0,1,.4,1.75A3.56,3.56,0,0,1,539.8,41.43Z" fill="#333"/><path d="M565,7V92.53h-6.69c-16.07,0-30.06,1.74-39.13,4.82-2.12.74-6.53,2.61-9.77,4.18a32,32,0,0,1-5.62,2.45c-.07,0-.09,0-.07-.07.09-.29.19-7,.19-15V74.33l1.86-.38a8.21,8.21,0,0,0,2.64-1.07c.45-.35,1.77-1.28,3-2,2.8-1.84,3.44-3.06,2.38-4.51-.3-.41-.76-.58-1.77-.58h-.29a4.59,4.59,0,0,0-3.18,1.12c-.84.61-2.16,1.45-2.9,1.87A3.55,3.55,0,0,0,504.08,70h0c-.09,0-.16-11.34-.19-25.41l0-25.95,1.7-1.54c6.14-5.6,17.46-8.65,36.08-9.75,2.48-.12,8.75-.29,13.92-.32L565,7M527.26,46.73a35,35,0,0,0,7.63-1.08,22.51,22.51,0,0,1,4-.81,1.51,1.51,0,0,1,1,.39c.77.58,1.83,2,4.92,7,1.74,2.73,3,3.69,4.92,3.69a2.52,2.52,0,0,0,2.19-.93l.87-.9-.62-1.77a30.5,30.5,0,0,0-2.57-4.72c-1.8-2.74-2.54-4.15-2.25-4.34,0,0,1.61-.49,3.47-1,4.73-1.25,6.05-1.74,6.6-2.54a2.25,2.25,0,0,0-.52-3.25,4.49,4.49,0,0,0-3-.84,16,16,0,0,0-4.12.65c-1.32.35-3.15.84-4.12,1l-1.74.35L543,36.55a28.38,28.38,0,0,1-2.18-3.22,16.14,16.14,0,0,0-2.42-3.15c-.74-.65-1.15-.93-1.61-.93a2.35,2.35,0,0,0-1,.32c-.81.39-1.71,2.38-1.71,3.73a13.42,13.42,0,0,0,1.29,3.57,23.21,23.21,0,0,1,1.29,2.93c0,.35-4.86,1.51-7.56,1.8-4,.42-6.69,2.76-5,4.4.48.49,1.6.73,3.18.73m4.14,6.84c1,0,2.89-1.06,5.29-2.9,1.61-1.23,1.83-2.67.58-3.35a2.64,2.64,0,0,0-1.13-.37c-.58,0-1.21.39-2.7,1.4-2.73,1.83-3.28,2.51-3.15,4,.1,1,.22,1.15,1,1.25h.11M520.06,64.23c1.52,0,6.24-3.18,7.3-4.91.84-1.39.78-2-.19-2.42a4.28,4.28,0,0,0-1.54-.38,11.73,11.73,0,0,0-4.54,2c-1.19.81-3.08,3.28-3.08,4.05s1.25,1.64,2,1.64M565,0h0l-9.39,0c-5.37,0-11.7.2-14.26.33-20.52,1.21-33,4.77-40.43,11.56l-1.69,1.53a7,7,0,0,0-2.3,5.2l0,26c0,7.44,0,13.67.07,18,0,2.32,0,4.19.06,5.49,0,.69,0,1.23,0,1.6a9.22,9.22,0,0,0,.29,2.06,7.06,7.06,0,0,0-.48,2.56V88.86c0,7.55-.08,13-.15,14.24a7,7,0,0,0,7,7.88c1.58,0,2.95-.31,8.7-3.16,3.1-1.5,7.2-3.23,9-3.85,8.31-2.82,21.74-4.44,36.85-4.44H565a7,7,0,0,0,7-7V7a7,7,0,0,0-7-7Z" fill="#fff"/><path d="M417.69,110.5a3.54,3.54,0,0,1-2.48-1,3.5,3.5,0,0,1-1-2.48V15.68a3.5,3.5,0,0,1,3.5-3.5h11.89a3.5,3.5,0,0,1,3.5,3.5V94.45l9.67.14c24.09.33,33.66,2,46.52,8l2.44,1.17a3.5,3.5,0,0,1-1.52,6.66H454Z" fill="#333"/><path d="M429.58,15.68V97.9l13.12.19c23.47.32,32.73,1.9,45.08,7.72l2.41,1.16H454l-36.27,0V15.68h11.9m0-7h-11.9a7,7,0,0,0-7,7V107a7,7,0,0,0,7,7h0L454,114h36.23a7,7,0,0,0,3-13.31l-2.41-1.16c-13.3-6.27-23.61-8.07-48-8.41L436.58,91V15.68a7,7,0,0,0-7-7Z" fill="#fff"/><path d="M546.07,110.47H509.81a3.5,3.5,0,0,1-1.52-6.66l2.42-1.15c12.88-6.08,22.46-7.74,46.57-8.07l9.64-.14V15.68a3.5,3.5,0,0,1,3.5-3.5h11.9a3.5,3.5,0,0,1,3.5,3.5V107a3.5,3.5,0,0,1-3.5,3.5Z" fill="#333"/><path d="M582.32,15.68V107l-36.24,0H509.81l2.41-1.16c12.35-5.82,21.61-7.4,45.11-7.72l13.09-.19V15.68h11.9m0-7h-11.9a7,7,0,0,0-7,7V91l-6.19.09c-24.42.34-34.74,2.14-48,8.39l-2.45,1.18a7,7,0,0,0,3,13.31h36.27l36.23,0h0a7,7,0,0,0,7-7V15.68a7,7,0,0,0-7-7Z" fill="#fff"/><path d="M435.05,49.77V92.53h6.69c16.07,0,30.06,1.74,39.13,4.82,2.12.74,6.53,2.61,9.77,4.18,3.64,1.8,5.82,2.7,5.69,2.38s-.19-7.23-.19-15.43V73.56h-.8c-1.32,0-2.64-.87-4-2.6s-1.38-1.71-1.09-2.8c.16-.58.41-.71,1.41-.71a4,4,0,0,1,2.77,1.29L496,70l.1-25.62.09-25.66-1.73-1.61C487,10.22,470.84,7,443.38,7h-8.33Zm40.54-2c.68.55.71.68.33,1.61S473.86,52,473.18,52a2.28,2.28,0,0,0-1,.67,7.47,7.47,0,0,1-4,1.9c-.64,0-.9-.23-1.19-1-.64-1.86.77-3.37,5.12-5.37C474.53,47.06,474.66,47,475.59,47.8Zm9,6.88a9.78,9.78,0,0,1,1.57,2c0,.19.26.48.58.71a5.26,5.26,0,0,1,1.67,3.21c0,.9-.41,1.35-1.51,1.58-.86.16-1.15,0-2.28-1.1a26.78,26.78,0,0,1-4.37-5.91c-.39-.9-.36-1.06.25-1.77C481.51,52.24,482.73,52.63,484.6,54.68Zm-23.51,3.77c.94.48.29,1.89-1.7,3.76-3,2.83-6.59,3.5-6.43,1.22.09-1.19,1.67-2.8,4.11-4.18C459.1,58.13,460.1,57.9,461.09,58.45Zm-11.15,9.61c.45.45-.36,2.51-1.29,3.25a8.15,8.15,0,0,1-2.09,1c-1.19.35-1.32.32-2.12-.48s-.84-.87-.29-2a4.54,4.54,0,0,1,4.37-2.28A3.68,3.68,0,0,1,449.94,68.06Z" fill="#333"/><path d="M541.64,7.35C523,8.45,511.7,11.5,505.56,17.1l-1.7,1.54,0,26c0,14.24.1,25.69.19,25.4a3.55,3.55,0,0,1,1.48-1.25c.74-.42,2.06-1.26,2.9-1.87a4.59,4.59,0,0,1,3.18-1.12c1.22,0,1.74.12,2.06.57,1.06,1.45.42,2.67-2.38,4.51-1.19.77-2.51,1.7-3,2A8.21,8.21,0,0,1,505.72,74l-1.86.38V88.86c0,8-.1,14.76-.19,15s2.05-.58,5.69-2.38c3.24-1.57,7.65-3.44,9.77-4.18,9.07-3.08,23.06-4.82,39.13-4.82H565V7l-9.39,0C550.39,7.06,544.12,7.23,541.64,7.35Zm-3.22,22.83a16.14,16.14,0,0,1,2.42,3.15A28.38,28.38,0,0,0,543,36.55l.93,1.09,1.74-.35c1-.19,2.8-.68,4.12-1,3.44-.93,5.82-.87,7.07.19a2.25,2.25,0,0,1,.52,3.25c-.55.8-1.87,1.29-6.6,2.54-1.86.48-3.44.93-3.47,1-.29.19.45,1.6,2.25,4.34a30.5,30.5,0,0,1,2.57,4.72l.62,1.77-.87.9a2.52,2.52,0,0,1-2.19.93c-1.93,0-3.18-1-4.92-3.69-3.09-4.92-4.15-6.37-4.92-7s-.9-.58-5,.42c-5.4,1.29-9.75,1.45-10.81.35-1.67-1.64,1-4,5-4.4,2.7-.29,7.56-1.45,7.56-1.8a23.21,23.21,0,0,0-1.29-2.93,13.42,13.42,0,0,1-1.29-3.57c0-1.35.9-3.34,1.71-3.73C536.88,29,537.2,29.12,538.42,30.18Zm-1.15,17.14c1.25.68,1,2.12-.58,3.35-2.51,1.92-4.5,3-5.4,2.89s-.9-.26-1-1.25c-.13-1.45.42-2.13,3.15-4C535.82,46.74,536,46.71,537.27,47.32Zm-10.1,9.58c1,.42,1,1,.19,2.42-1.06,1.73-5.78,4.91-7.3,4.91-.8,0-2-1-2-1.64s1.89-3.24,3.08-4.05a11.73,11.73,0,0,1,4.54-2A4.28,4.28,0,0,1,527.17,56.9Z" fill="#333"/><path d="M417.68,61.34V107L454,107h36.24l-2.41-1.16c-12.35-5.82-21.61-7.4-45.08-7.72l-13.12-.19V15.68h-11.9Z" fill="#333"/><path d="M570.42,56.81V97.9l-13.09.19c-23.5.32-32.76,1.9-45.11,7.72L509.81,107h36.27l36.24,0V15.68h-11.9Z" fill="#333"/></svg>