<svg id="Layer_1" data-name="Layer 1" xmlns="http://www.w3.org/2000/svg" viewBox="0 0 1000 114"><path d="M486.59,28.28A12.43,12.43,0,0,1,482.68,4a12.93,12.93,0,0,1,3.79-.53,13.32,13.32,0,0,1,3.88.54,12.36,12.36,0,0,1,8.48,10,12.54,12.54,0,0,1-3.54,10.65,12.36,12.36,0,0,1-8.7,3.59Z" fill="#333"/><path d="M486.47,7a10,10,0,0,1,2.83.38,8.92,8.92,0,0,1,3.53,14.81,8.79,8.79,0,0,1-6.24,2.59,8.93,8.93,0,0,1-2.84-17.42A9.48,9.48,0,0,1,486.47,7m0-7a16.42,16.42,0,0,0-4.83.69,16.06,16.06,0,0,0-10.87,17.47,15.93,15.93,0,1,0,31.53-4.61V13.5A15.85,15.85,0,0,0,491.38.7a16.75,16.75,0,0,0-4.91-.7Z" fill="#fff"/><path d="M461.86,110.5a7,7,0,0,1-3.58-1,9.45,9.45,0,0,1-4.87-5.57,10.37,10.37,0,0,1,.49-7.37c.45-.9,4.77-6.87,6.61-9.38l5.68-7.8,4.24-9.64,4.06-9.21-.05-1-5.73-2.73C461,53.08,460,52.37,459.59,52a8.26,8.26,0,0,1-2.89-5.81,8.48,8.48,0,0,1,3.67-7.83c.94-.61,7.81-3.84,8.1-4l5.84-2.74.05-.1a11.07,11.07,0,0,1,8.57-6.39,26.9,26.9,0,0,1,3.31-.17L488,25c3.32.13,5.81.49,14.8,2.17l3.62.67,7.75-1.13a5.62,5.62,0,0,1-1.12-4.47,5.48,5.48,0,0,1,3.18-4.13c1-.47,2-.55,7.27-.55l4.32,0,9.55,0A3.52,3.52,0,0,1,540,18.84l.58.66a5.81,5.81,0,0,1,.91,1.3,6.18,6.18,0,0,1,5.55,6,6,6,0,0,1-.81,3.8c-1.8,3.21-3.88,3.25-9.39,3.37l-2.69.06-1.73,3.37c-2.82,5.53-3.28,6.08-3.45,6.29l-.09.1A6.64,6.64,0,0,1,524,45.83h0a6.7,6.7,0,0,1-3.15-.77,6.44,6.44,0,0,1-1.74-1.45l-4.5.64c-.71.1-7,1-8.3,1a62.78,62.78,0,0,1-6.42-.94l-.42-.07c.06,1.35.15,3.12.27,5.44l.48,8.94,5.24,9.47c5.88,10.58,6.11,11.55,6.2,11.91.14.61.31,1.34.25,12l-.05,10.36a3.56,3.56,0,0,1-.34,1.47L511,105a9.19,9.19,0,0,1-8.42,5.47l-.92,0a7,7,0,0,1-3.36-.78,9.35,9.35,0,0,1-4.56-4.17l-.58-1.05a3.65,3.65,0,0,1-.43-1.65l-.18-18-4.17-7.42-.66,1.51c-1.87,4.27-3.75,8.5-4.1,9.22-.89,1.76-13,18.52-14.27,19.76a8.65,8.65,0,0,1-6.3,2.6C462.53,110.49,462.16,110.5,461.86,110.5Z" fill="#333"/><path d="M523.5,21.1l4.3,0,9.55,0,.59.67a1.56,1.56,0,0,1,.51,1.5l-.06.86h1.42c2.43,0,3.56.86,3.72,2.85a2.53,2.53,0,0,1-.36,1.78c-.8,1.45-1,1.51-6.42,1.62l-4.79.1-2.67,5.24c-1.47,2.87-2.84,5.41-3,5.64a3.17,3.17,0,0,1-2.31.92,3.11,3.11,0,0,1-1.48-.35,3.31,3.31,0,0,1-1.12-1.19c-.25-.47-.48-.88-.52-.92h0c-.28,0-3.22.39-6.75.92-3.69.54-7.21,1-7.8,1a57.78,57.78,0,0,1-5.76-.88c-2.45-.44-4.5-.8-4.72-.8h0s.17,4.44.44,9.79l.53,9.75,5.63,10.17c3.1,5.59,5.74,10.55,5.86,11s.19,4.14.15,11.21l-.05,10.36-.51,1.07a5.73,5.73,0,0,1-5.39,3.48l-.79,0a3.63,3.63,0,0,1-1.85-.43,6,6,0,0,1-3-2.72l-.57-1-.09-9.48-.1-9.47-4-7.17-4-7.17-3.5,8c-1.91,4.38-3.73,8.46-4,9.1-.64,1.27-12.54,17.78-13.58,18.8a5.24,5.24,0,0,1-4,1.6l-1,0a3.65,3.65,0,0,1-2-.58,6,6,0,0,1-3.1-3.54,6.86,6.86,0,0,1,.25-4.62c.23-.47,3.09-4.5,6.35-9l5.9-8.11,4.39-10,4.4-10-.1-2-.1-2-7.62-3.63c-4.18-2-7.95-3.93-8.34-4.28a4.77,4.77,0,0,1-1.68-3.44,5,5,0,0,1,2.07-4.61c.4-.25,3.87-1.95,7.7-3.75l7-3.28.59-1.23a7.62,7.62,0,0,1,6-4.43,22.8,22.8,0,0,1,2.74-.13l1.65,0c3.11.12,5.47.47,14.26,2.11l4.2.78,7-1c6.72-1,7-1,6.66-1.38a3.89,3.89,0,0,1-.2-3.05l.28-.59-1.24-.07a2.38,2.38,0,0,1-1.73-.55,2.13,2.13,0,0,1,.54-3.42c.4-.18,1.56-.25,5.86-.25m0-7c-5.27,0-6.91,0-8.74.87a9,9,0,0,0-5.15,6.71,9.23,9.23,0,0,0-.12,2.22l-3,.44-3.06-.57c-8.69-1.63-11.58-2.09-15.27-2.23l-1.92,0a29.69,29.69,0,0,0-3.71.19l-.16,0A14.75,14.75,0,0,0,471.74,29L467,31.25c-3.36,1.57-7.57,3.59-8.53,4.21a12,12,0,0,0-5.24,11v.06a11.63,11.63,0,0,0,4.07,8.17c.66.59,1.69,1.35,9.89,5.3l3.1,1.48-3,6.93-4.1,9.29-5.45,7.5c-5.94,8.14-6.67,9.4-6.91,9.88a13.75,13.75,0,0,0-.68,10,13.11,13.11,0,0,0,6.65,7.63,10.56,10.56,0,0,0,5.12,1.3c.35,0,.77,0,1.31,0a12.08,12.08,0,0,0,8.63-3.64h0c1.9-1.94,14-18.92,14.87-20.57l.06-.11c.24-.51,1-2.29,2-4.43l.3.52.08,7.68.1,9.48a7,7,0,0,0,.85,3.29l.57,1a13,13,0,0,0,6.2,5.71,10.56,10.56,0,0,0,4.8,1.08l1.09,0a12.64,12.64,0,0,0,11.4-7.45l.52-1.1a7,7,0,0,0,.68-3l.05-10.36c.07-11.12-.11-11.88-.33-12.84s-.45-1.85-6.56-12.85l-4.84-8.75-.45-8.15c0-.36,0-.71-.05-1a25.24,25.24,0,0,0,3.12.32c1.38,0,6.12-.67,8.82-1.07l2.81-.41a8.51,8.51,0,0,0,1.21.81A10.16,10.16,0,0,0,524,49.33a10,10,0,0,0,7.52-3.25l.17-.19c.39-.47.88-1.06,3.88-6.94l.77-1.51h.6c5.76-.12,9.58-.21,12.35-5.13a9.48,9.48,0,0,0,1.27-5.78,9.73,9.73,0,0,0-6.89-8.81c-.14-.19-.3-.37-.46-.55l-.56-.64a7,7,0,0,0-5.22-2.37l-9.55,0-4.33,0Z" fill="#fff"/><path d="M483.75,7.36a8.94,8.94,0,1,0,11.62,7.23,8.86,8.86,0,0,0-6.07-7.21A10.66,10.66,0,0,0,483.75,7.36Z" fill="#333"/><path d="M517.64,21.35a2.13,2.13,0,0,0-.54,3.42,2.38,2.38,0,0,0,1.73.55l1.24.07-.28.59A3.89,3.89,0,0,0,520,29c.31.35.06.39-6.66,1.38l-7,1-4.2-.78c-8.79-1.64-11.15-2-14.26-2.11a30.88,30.88,0,0,0-4.39.1,7.62,7.62,0,0,0-6,4.43l-.59,1.23-7,3.28c-3.83,1.8-7.3,3.5-7.7,3.75a5,5,0,0,0-2.07,4.61,4.77,4.77,0,0,0,1.68,3.44c.39.35,4.16,2.27,8.34,4.28l7.62,3.63.1,2,.1,2-4.4,10-4.39,10-5.9,8.11c-3.26,4.47-6.12,8.5-6.35,9a6.86,6.86,0,0,0-.25,4.62,6,6,0,0,0,3.1,3.54,4.22,4.22,0,0,0,3,.55,5.24,5.24,0,0,0,4-1.6c1-1,12.94-17.53,13.58-18.8.31-.64,2.13-4.72,4-9.1l3.5-8,4,7.17,4,7.17.1,9.47.09,9.48.57,1a6,6,0,0,0,3,2.72,4.33,4.33,0,0,0,2.64.41,5.73,5.73,0,0,0,5.39-3.48l.51-1.07.05-10.36c0-7.07,0-10.62-.15-11.21s-2.76-5.45-5.86-11l-5.63-10.17-.53-9.75c-.27-5.35-.48-9.75-.44-9.79s2.16.33,4.74.8a57.78,57.78,0,0,0,5.76.88c.59,0,4.11-.45,7.8-1s6.74-1,6.78-.92.27.45.52.92a3,3,0,0,0,4.91.62c.19-.23,1.56-2.77,3-5.64L532,30.53l4.79-.1c5.37-.11,5.62-.17,6.42-1.62a2.53,2.53,0,0,0,.36-1.78c-.16-2-1.29-2.85-3.72-2.85h-1.42l.06-.86a1.56,1.56,0,0,0-.51-1.5l-.59-.67-9.55,0C519.89,21.08,518.15,21.12,517.64,21.35Z" fill="#333"/></svg>