<svg id="Layer_1" data-name="Layer 1" xmlns="http://www.w3.org/2000/svg" viewBox="0 0 1000 114"><text transform="translate(885.59 62.24)" font-size="1.16" fill="#e2173a" font-family="ArialMT, Arial" style="isolation:isolate">I don’t like bugs!</text><text transform="translate(885.59 62.24)" font-size="1.16" fill="none" stroke="#fff" stroke-linecap="round" stroke-linejoin="round" stroke-width="7" font-family="ArialMT, Arial" style="isolation:isolate">I don’t like bugs!</text><path d="M817.6,85.37a3.5,3.5,0,0,1-3.5-3.49L814,32.12a3.51,3.51,0,0,1,3.49-3.51H968.12a28.38,28.38,0,0,1,0,56.76Z"/><path d="M968.12,32.11a24.88,24.88,0,0,1,0,49.76H817.6l-.11-49.76H968.12m0-7H817.47a7,7,0,0,0-7,7l.13,49.78a7,7,0,0,0,7,7H968.12a31.88,31.88,0,0,0,0-63.76Z" fill="#fff"/><path d="M517.48,85.37a28.38,28.38,0,0,1,0-56.76h300a3.5,3.5,0,0,1,3.5,3.5V81.87a3.5,3.5,0,0,1-3.5,3.5Z"/><path d="M817.47,32.11V81.87h-300a24.88,24.88,0,0,1,0-49.76h300m0-7h-300a31.88,31.88,0,0,0,0,63.76h300a7,7,0,0,0,7-7V32.11A7,7,0,0,0,817.47,25.11Z" fill="#fff"/><path d="M817.47,32.11H968.12a24.88,24.88,0,0,1,0,49.76H817.6Z" fill="#b1bcbf"/><text transform="translate(885.59 62.24)" font-size="1.16" fill="#e2173a" font-family="ArialMT, Arial" style="isolation:isolate">I don’t like bugs!</text><path d="M817.47,81.87h-300a24.88,24.88,0,0,1,0-49.76h300Z"/><path d="M567.53,49.47H582l-6.23,6h-8.21Zm0,8h8.21l6.22,6H567.52Zm-4.58-17a20.59,20.59,0,0,1,4.22.47v7.17a10.21,10.21,0,0,0-4.22-.89c-5.23,0-9.8,3.92-9.85,9.17h0a9,9,0,0,0,3.34,6.49A10.67,10.67,0,0,0,563,65.49a10.08,10.08,0,0,0,4.23-.86v7.25a18.08,18.08,0,0,1-4.21.49c-9.16-.22-17.3-7-17.39-16h0c.27-9.45,8.69-15.86,17.38-15.92Z" fill="#b1bcbe"/><path d="M609.47,57.68c0,6.42-6.72,6.18-10.06,6.19-6.8,0-9.47-2.44-9.49-7.72-.16-7.58,4.9-7.51,9.76-7.53,5.78-.24,9.8,1,9.81,6.27h-5.43c-.18-1.64-1.24-2.2-4.38-2.2-3.72,0-4.41.58-4.41,3.61,0,3.19,1.56,3.46,4.47,3.47,3.14,0,4-.43,4.29-2.09ZM740.8,63.5h-4.87V61.6h-.27c-1,1.75-2.37,2.27-6.13,2.27-7,0-8.2-3.06-8.21-7.72,0-6.9,3.41-7.51,8.27-7.53,3.64,0,4.84.49,5.83,2.33h.2V43.08h5.18Zm-14.3-7.41c0,3.18.58,3.68,4.48,3.68a7.8,7.8,0,0,0,3.9-.68c.58-.4.78-1.17.78-2.85,0-3-.68-3.55-4.37-3.55-4.09,0-4.79.49-4.79,3.4M770.1,49v2.2h.27c1-1.84,2.45-2.54,5.39-2.54,4.22,0,5.64,1.47,5.64,5.82v1h-4.93c0-2.15-.61-2.73-2.76-2.73a3.27,3.27,0,0,0-2.67,1c-.5.71-.65,1.5-.65,3.74v6h-5.24V49Zm32.07,9.86c-.41,4-2.38,5-10,5-6.67,0-9.21-2.5-9.23-7.57-.15-7.77,4.73-7.66,9.79-7.68,8.25.06,9.71,2.15,9.57,8.81h-14c0,3,1.46,2.9,4.32,3,3.42,0,4.06-.25,4.27-1.53Zm-5.28-4.41c0-2.29-1.29-2.45-4.13-2.48s-4.64.08-4.53,2.48Z" fill="#b1bcbe" stroke="#b1bcbe" stroke-width="0.3"/><path id="a" d="M638.22,49v2.2h.25c.76-1.74,2.52-2.54,5.61-2.54,3.35,0,5.19.89,6.31,3,.89-2.17,2.59-3,6-3,2.88,0,4.58.55,5.78,1.87s1.43,2.47,1.43,6.21V63.5h-5.2V56.73c0-1.87-.12-2.87-.58-3.21-1.53-1.16-4.66-1.38-6,.12-.61.67-.77,1.8-.77,3.89v6h-5.19v-5.9c-.08-1.33.14-3.32-.56-4.08-1-1.08-4.83-1.1-6,.09-.91,1-.76,1.8-.76,3.92v6h-5.2V49Z" fill="#b1bcbe" stroke="#b1bcbe" stroke-width="0.3"/><path id="a-2" d="M671.5,49v2.2h.24c.77-1.74,2.53-2.54,5.61-2.54,3.36,0,5.2.89,6.32,3,.89-2.17,2.59-3,6-3,2.88,0,4.58.55,5.78,1.87s1.47,2.48,1.47,6.21V63.5h-5.2V56.73c0-1.87-.12-2.87-.58-3.21-1.53-1.16-4.66-1.38-6,.12-.61.67-.77,1.8-.77,3.89v6h-5.19v-5.9c-.08-1.33.14-3.32-.56-4.08-1-1.08-4.83-1.1-6,.09-.91,1-.76,1.8-.76,3.92v6H666.6V49Z" fill="#b1bcbe" stroke="#b1bcbe" stroke-width="0.3"/><path id="b" d="M630.78,56c.08,7.2-3.28,7.78-9.89,7.87S611,62.62,611,55.77s4-7.07,9.9-7.13S630.69,48.78,630.78,56Zm-14.58.37c.16,3.39,1.54,3.42,4.69,3.43s4.69-.43,4.65-3.59-1-3.48-4.65-3.49-4.69.55-4.69,3.65" fill="#b1bcbe" stroke="#b1bcbe" stroke-width="0.3"/><path id="b-2" d="M719.26,56c.08,7.2-3.28,7.78-9.88,7.87s-9.85-1.24-9.93-8.09,4-7.07,9.91-7.13S719.18,48.78,719.26,56Zm-14.57.37c.15,3.39,1.53,3.42,4.69,3.43s4.69-.43,4.65-3.59-1-3.48-4.65-3.49-4.69.55-4.69,3.65" fill="#b1bcbe" stroke="#b1bcbe" stroke-width="0.3"/><path id="b-3" d="M763,56c.09,7.2-3.27,7.78-9.88,7.87s-9.85-1.24-9.92-8.09,4-7.07,9.9-7.13S763,48.78,763,56Zm-14.57.37c.16,3.39,1.54,3.42,4.69,3.43s4.69-.43,4.65-3.59-1-3.48-4.65-3.49-4.69.55-4.69,3.65" fill="#b1bcbe" stroke="#b1bcbe" stroke-width="0.3"/><path d="M902.93,54.48c.07,10.28-3,10.6-13.79,10.44-12.88-.12-13-1.19-13-14.49.05-14.15,1.79-14.15,13.38-14.13,11.5.33,13.28,0,13.45,10.51h-6.69c-.25-3.09-1.1-4-7.38-4s-6.57,1.37-6.5,7.88S883,58.55,889,58.6s7.33-.55,7.26-4.14Z" stroke="#000" stroke-width="0.78"/><path d="M955.49,36c-13.55.14-14.3,1.3-14.35,14.33-.13,12.53.14,14.57,14.35,14.7,14.21-.13,14.26-2.68,14.35-14.7C969.84,37.32,968.2,35.92,955.49,36Zm0,6.77c6.79,0,7.09,2,7,7.84s-.59,7.59-7,7.64-7-1.76-7-7.64.21-7.82,7-7.8Zm-30.14,5.43c-7.75-.07-13.69.62-13.83,10.52v6H938.7v-6H918.07c0-3.12.11-4.61,7.13-4.59s13.32,0,13.38-9c-.28-8.76-4.1-9.25-13.61-9.28-11.79.34-13.62,1.37-13.8,10.61H918c-.07-3.83.73-4.72,6.94-4.68s6.94.54,7.09,3.24-.22,3.26-6.71,3.19Z" fill="none" stroke="#000" stroke-width="0.78"/><path d="M867,37h6.13V64.71H867Zm-31.72,0L845.54,64.7h8.93L864.74,37H858.6L850.7,58.3h-1.42L841.4,37Z" stroke="#000" stroke-linecap="round" stroke-linejoin="round" stroke-width="0.78"/><path d="M867.6,72.39a4.65,4.65,0,0,1,1.33-3.52,3.65,3.65,0,0,1,2.62-1,3.53,3.53,0,0,1,2.51.86,3.34,3.34,0,0,1,1,2.35h-1.28a2.45,2.45,0,0,0-.7-1.63,2.14,2.14,0,0,0-1.54-.61,2.39,2.39,0,0,0-1.71.71,4.58,4.58,0,0,0,0,5.61,2.38,2.38,0,0,0,1.71.66,2.26,2.26,0,0,0,1.65-.56,2.65,2.65,0,0,0,.75-2h1.28A3.72,3.72,0,0,1,874.14,76a4.15,4.15,0,0,1-5.23-.14A4.55,4.55,0,0,1,867.6,72.39Zm9.12-.06A4.46,4.46,0,0,1,878,69a4,4,0,0,1,5.45,0,5.06,5.06,0,0,1,0,6.73,4,4,0,0,1-5.45,0,4.49,4.49,0,0,1-1.28-3.37Zm4-3.46a2.57,2.57,0,0,0-1.81.76,4.49,4.49,0,0,0,0,5.41,2.56,2.56,0,0,0,3.61,0l0,0a4.49,4.49,0,0,0,0-5.41A2.53,2.53,0,0,0,880.72,68.87Zm5.82-.87h1.66l2.4,6.78L893.09,68h1.65v8.72h-1.22V70l-2.46,6.68h-.85L887.75,70v6.68h-1.23Zm10,0h4.27a2.67,2.67,0,0,1,1.92.71,2.62,2.62,0,0,1,.75,2,2.58,2.58,0,0,1-.69,1.94,2.79,2.79,0,0,1-2,.66h-3v3.42H896.6Zm1.23,1v3.36h2.83a1.68,1.68,0,0,0,1.18-.4,1.61,1.61,0,0,0,.48-1.23,1.64,1.64,0,0,0-.43-1.27A1.66,1.66,0,0,0,900.6,69Zm7.31-1h1.23v6.12a1.55,1.55,0,0,0,.48,1.17,2.88,2.88,0,0,0,3.42,0,1.52,1.52,0,0,0,.48-1.17V68h1.23v6.17a2.42,2.42,0,0,1-.75,1.84,4.81,4.81,0,0,1-5.34,0,2.45,2.45,0,0,1-.75-1.84Zm8.16,0h7.36v1h-3v7.75h-1.23V69h-3Zm8.6,0h5.87v1h-4.64v2.7h4.32v1h-4.32v3.11H928v1h-6.14Zm8,0h4.48a2.43,2.43,0,0,1,1.76.66,2.76,2.76,0,0,1,0,3.67,1.89,1.89,0,0,1-1.06.46l2.08,3.93h-1.34l-1.92-3.77h-2.78v3.77h-1.22Zm1.23,1v3h3.14a1.24,1.24,0,0,0,.91-.36,1.75,1.75,0,0,0,0-2.24,1.37,1.37,0,0,0-1-.41Z"/></svg>