<svg id="Calque_1" data-name="Calque 1" xmlns="http://www.w3.org/2000/svg" viewBox="0 0 263.75673 138.97783"><title>controller</title><path id="path9" d="M227.1577,37.96c-11.88-11.33-26.78-16.99-40.49-16.64v.01c-10.67.27-20.64,4.17-27.93,11.86-16.65,17.57-12.91,48.15,8.21,68.29,21.12,20.15,51.75,22.35,68.41,4.77C252.01768,88.68,248.2877,58.1,227.1577,37.96Zm7.57,67.7c-16.27,17.17-46.35,15.09-67.18-4.8-20.84-19.88-24.44-49.91-8.17-67.08,7.12-7.51,16.88-11.33,27.35-11.59,13.47-.34,28.12,5.19995,39.84,16.39C247.4077,58.46,250.99772,88.5,234.7277,105.66Z" fill="#0f0f0f"/><path d="M167.7877,87.95l-.71.5c-.03-.04-.05-.07-.08-.11a9.6615,9.6615,0,0,1,.36-1.03C167.48771,87.53,167.63774,87.74,167.7877,87.95Z" fill="#f4f4f4" opacity="0.34"/><path d="M210.19774,36.42l-.4.77c-.23-.12-.47-.24-.7-.35a9.35028,9.35028,0,0,1,1.02-.46C210.14769,36.39,210.16771,36.41,210.19774,36.42Z" fill="#f4f4f4" opacity="0.34"/><path d="M222.1577,45.26c.07.08.15.15.22.23a10.02257,10.02257,0,0,1-.14,1.1q-.33-.36-.69-.72Z" fill="#f4f4f4" opacity="0.34"/><path d="M230.98771,57.55l-.78.39c-.13995-.28-.28-.56006-.44-.84a9.29011,9.29011,0,0,1,1.17.35C230.95768,57.48,230.96769,57.52,230.98771,57.55Z" fill="#f4f4f4" opacity="0.34"/><path d="M235.38774,78.16a31.77011,31.77011,0,0,1-8.46,20.24c-10.59,11.23-28.04,12.65-42.97,4.84a8.587,8.587,0,0,0,.96-.48c14.52,7.33,31.22,5.82,41.38-4.95a30.69926,30.69926,0,0,0,8.16-18.84A11.72883,11.72883,0,0,0,235.38774,78.16Z" fill="#151515"/><path d="M184.11772,102.35c.26.14.53.28.8.41a8.587,8.587,0,0,1-.96.48l-.24-.12Z" fill="#f4f4f4" opacity="0.34"/><path d="M235.39769,78.05a.412.412,0,0,1-.01.11,11.72883,11.72883,0,0,1-.93006.81c.03-.32.05-.64.07-.96Z" fill="#f4f4f4" opacity="0.34"/><path id="circle31" d="M178.92772,79.43a12.45255,12.45255,0,0,0-11.57,7.88,9.6615,9.6615,0,0,0-.36,1.03,12.444,12.444,0,0,0,11.93,15.97,12.26049,12.26049,0,0,0,5.03-1.07,8.587,8.587,0,0,0,.96-.48,12.43532,12.43532,0,0,0-5.99-23.33Zm0,24.01a11.575,11.575,0,1,1,11.56-11.57A11.56569,11.56569,0,0,1,178.92772,103.44Z" fill="#151515"/><path id="circle33" d="M201.91771,65.52a12.44,12.44,0,1,0,12.42,12.44A12.44056,12.44056,0,0,0,201.91771,65.52Zm0,24.01a11.575,11.575,0,1,1,11.56-11.57A11.572,11.572,0,0,1,201.91771,89.53Z" fill="#151515"/><path id="circle35" d="M230.93773,57.45a9.29011,9.29011,0,0,0-1.17-.35,12.13948,12.13948,0,0,0-2.97-.36,12.435,12.435,0,1,0,7.66,22.23,11.72883,11.72883,0,0,0,.93006-.81,12.42333,12.42333,0,0,0-4.45-20.71Zm-4.14,23.29a11.57,11.57,0,1,1,11.57-11.56A11.55717,11.55717,0,0,1,226.79771,80.74Z" fill="#151515"/><path id="circle37" d="M169.98771,52.78a9.075,9.075,0,1,0,9.07,9.07A9.08184,9.08184,0,0,0,169.98771,52.78Zm0,17.28a8.21,8.21,0,1,1,8.21-8.21A8.20273,8.20273,0,0,1,169.98771,70.06Z" fill="#0f0f0f"/><path id="circle39" d="M191.06773,41.8a9.07,9.07,0,1,0,9.08,9.07A9.0733,9.0733,0,0,0,191.06773,41.8Zm0,17.28a8.21,8.21,0,1,1,8.21-8.21A8.192,8.192,0,0,1,191.06773,59.08Z" fill="#0f0f0f"/><path id="circle41" d="M213.32774,35.79a9.01277,9.01277,0,0,0-3.21.59,9.35028,9.35028,0,0,0-1.02.46,9.0736,9.0736,0,1,0,13.14,9.75,10.02257,10.02257,0,0,0,.14-1.1c.01-.21.02-.41.02-.62A9.07754,9.07754,0,0,0,213.32774,35.79Zm0,17.29a8.21,8.21,0,1,1,8.21-8.21A8.209,8.209,0,0,1,213.32774,53.08Z" fill="#0f0f0f"/><path id="path45" d="M135.75773,55.97h-15.44a5.515,5.515,0,0,0,0,11.03h15.44a5.515,5.515,0,1,0,0-11.03Zm0,10.17h-15.44a4.655,4.655,0,0,1,0-9.31h15.44a4.655,4.655,0,1,1,0,9.31Z" fill="#0f0f0f"/><path d="M262.63774,83.2c-3.11005-16.91-12.51-34.37-26.03-47.5C209.4777,9.34,169.17772,0,135.48771,0h-7.23a178.90755,178.90755,0,0,0-47.6,6.36c-.21.06-2.61.69-3.98,1.17a.07552.07552,0,0,0-.04.02c-18.18006,5.59-35.57,14.63-49.49,28.15-13.52,13.13-22.92,30.59-26.03,47.5-3.11,16.92005.09,33.34,11.87,44.27,12.99,12.05,24.25,13.09,34.39,10.08s19.2-9.98,28.02-13.85c8.55-3.75,28.84-12.81,48.03-12.81h16.91c19.18,0,39.48,9.06,48.03,12.81,8.82,3.87,17.86,10.84,28,13.85s21.42,1.97,34.4-10.08C262.55772,116.54,265.74772,100.12,262.63774,83.2ZM80.91771,7.19a178.49619,178.49619,0,0,1,47.34-6.33h7.23a178.08359,178.08359,0,0,1,47.33,6.36l.98.27s-2.94,3.32-4.52,4.79a11.54118,11.54118,0,0,1-2.62,2.3c-1.23.64-2.98.89-5.79.21-5.38-1.29-26.02-4.04-33.83-4.04h-10.3c-7.81,0-28.45,2.75-33.84,4.04-2.81.68-4.56.43-5.8-.21a11.69022,11.69022,0,0,1-2.61-2.3c-1.35-1.26-3.48-3.67-4.08-4.35a1.83492,1.83492,0,0,0-.15-.18,1.80266,1.80266,0,0,1-.3-.37006Zm-51.73,97.98c-16.15-14.92-14.3-43.31,4.27-63.41s46.72-24.16,62.87006-9.23,14.31995,43.32-4.25,63.41C73.50773,116.04,45.33769,120.1,29.18773,105.17ZM135.75773,67h-15.44a5.515,5.515,0,0,1,0-11.03h15.44a5.515,5.515,0,1,1,0,11.03Zm99.6,39.25c-16.66,17.58-47.29,15.37994-68.41-4.77-21.12-20.14-24.86-50.72-8.21-68.29,7.29-7.69,17.26-11.59,27.93-11.86v-.01c13.71-.35,28.61,5.31,40.49,16.64C248.2877,58.1,252.01768,88.68,235.35771,106.25Z" fill="#3b3b3c"/><path d="M226.56773,38.58c-11.72-11.19-26.37-16.73-39.84-16.39-10.47.25995-20.23,4.08-27.35,11.59-16.27,17.17-12.67005,47.2,8.17,67.08,20.83,19.89,50.91,21.97,67.18,4.8C250.99772,88.5,247.4077,58.46,226.56773,38.58Zm.36,59.82c-10.59,11.23-28.04,12.65-42.97,4.84a12.26049,12.26049,0,0,1-5.03,1.07,12.444,12.444,0,0,1-11.93-15.97,9.6615,9.6615,0,0,1,.36-1.03c-10.2-14.88-10.33-33.7.67-45.36,10.1-10.7,26.62-12.25995,41.07-5.11a9.35028,9.35028,0,0,1,1.02-.46,9.06345,9.06345,0,0,1,12.28,8.49006c0,.21-.01.41-.02.62a10.02257,10.02257,0,0,1-.14,1.1,45.79289,45.79289,0,0,1,7.53,10.51,9.29011,9.29011,0,0,1,1.17.35,12.42333,12.42333,0,0,1,4.45,20.71A31.77011,31.77011,0,0,1,226.92772,98.4Z" fill="#0f0f0f"/><path d="M226.79771,81.61a12.435,12.435,0,1,1,0-24.87,12.13948,12.13948,0,0,1,2.97.36,45.79289,45.79289,0,0,0-7.53-10.51,9.07275,9.07275,0,1,1-13.14-9.75c-14.45-7.15-30.97-5.59-41.07,5.11-11,11.66-10.87,30.48-.67,45.36005a12.43261,12.43261,0,1,1,17.56,15.45c14.52,7.33,31.22,5.82,41.38-4.95a30.69926,30.69926,0,0,0,8.16-18.84A12.33765,12.33765,0,0,1,226.79771,81.61Zm-56.81-10.68a9.075,9.075,0,1,1,9.07-9.08A9.084,9.084,0,0,1,169.98771,70.93Zm12.02-20.06a9.07,9.07,0,1,1,9.06,9.07A9.0733,9.0733,0,0,1,182.00773,50.87Zm19.91,39.53a12.44,12.44,0,1,1,12.42-12.44A12.447,12.447,0,0,1,201.91771,90.4Z" fill="#37373f"/><path d="M238.36772,69.18a11.575,11.575,0,1,1-11.57-11.58A11.555,11.555,0,0,1,238.36772,69.18Z" fill="#1e1e23"/><path d="M213.4777,77.96a11.57,11.57,0,1,1-11.56-11.58A11.56137,11.56137,0,0,1,213.4777,77.96Z" fill="#1e1e23"/><path d="M190.48771,91.87a11.57,11.57,0,1,1-11.56-11.58A11.54862,11.54862,0,0,1,190.48771,91.87Z" fill="#1e1e23"/><circle cx="213.32773" cy="44.86998" r="8.20997" transform="translate(120.64525 242.1819) rotate(-76.71743)" fill="#5e6055"/><path d="M199.27769,50.87a8.2,8.2,0,1,1-8.21-8.21A8.20262,8.20262,0,0,1,199.27769,50.87Z" fill="#5e6055"/><circle cx="169.98771" cy="61.84998" r="8.21002" fill="#5e6055"/><path d="M183.79771,7.49s-2.94,3.32-4.52,4.79a11.54118,11.54118,0,0,1-2.62,2.3c-1.23.64-2.98.89-5.79.21-5.38-1.29-26.02-4.04-33.83-4.04h-10.3c-7.81,0-28.45,2.75-33.84,4.04-2.81.68-4.56.43-5.8-.21a11.69022,11.69022,0,0,1-2.61-2.3c-1.35-1.26-3.48-3.67-4.08-4.35a1.83492,1.83492,0,0,0-.15-.18,1.80266,1.80266,0,0,1-.3-.37006l.96-.18994c.02.03,2.67,3.06995,4.16,4.45a11.19832,11.19832,0,0,0,2.43,2.18c1.02.53,2.51.78,5.19.14,5.6-1.35,26.03-4.08,34.04-4.08h10.3c8.01,0,28.44,2.73005,34.04,4.08,2.68.64,4.17.39,5.18994-.14a11.19868,11.19868,0,0,0,2.43006-2.18c1.29-1.19,3.51995-3.73,4.12-4.42Z" fill="#151515"/><path d="M96.32774,32.53c-16.15-14.93-44.30005-10.87-62.87006,9.23s-20.42,48.49-4.27,63.41c16.15,14.93,44.32,10.87,62.89-9.23C110.64769,75.85,112.4777,47.46,96.32774,32.53ZM86.45768,90.41c-15.54,16.81-39.17,20.38-52.78,7.8-13.61-12.59-11.91-36.42,3.63-53.24,15.54-16.81,39.18-20.37,52.78-7.79v-.01C103.69774,49.76,101.99772,73.59,86.45768,90.41Z" fill="#0f0f0f"/><path d="M140.415,61.48481a4.64265,4.64265,0,0,1-4.65242,4.65243H120.32221a4.65244,4.65244,0,0,1,0-9.30488h15.44032A4.64266,4.64266,0,0,1,140.415,61.48481Z" fill="#a1a0c5"/><path d="M90.08769,37.17v.01c-13.6-12.58-37.24-9.02-52.78,7.79-15.54,16.82-17.24,40.65-3.63,53.24,13.61,12.58,37.24,9.01,52.78-7.8C101.99772,73.59,103.69774,49.76,90.08769,37.17Zm-28.74,55.39a26.015,26.015,0,1,1,26.02-26.02A26.01848,26.01848,0,0,1,61.3477,92.56Z" fill="#37373f"/><path d="M61.3477,41.39a25.155,25.155,0,1,0,25.16,25.15A25.14356,25.14356,0,0,0,61.3477,41.39Zm12.23,11.73,2.87-.87.86-.26-.34.85-1.12,2.77-.25.63-.47-.5-1.75-1.92-.46-.50995Zm-25.94-2.19,2.79,1.12.63.26-.51.46-1.92,1.74-.5.47-.2-.66-.86-2.86-.25-.87Zm1.49,29.04-2.86005.85-.85.26.32-.84,1.12-2.77.26-.64.46.52,1.76,1.9.46.52Zm25.93,2.18-2.77-1.11-.65-.27.51-.46,1.93005-1.74.5-.46.2.64.85,2.87.27.87Zm7.09-9.7c-.08.25-.13.29-.2.32a1.297,1.297,0,0,1-.61005.06l-7.08-.32a7.58052,7.58052,0,0,0-5.83,1.94,8.6773,8.6773,0,0,0-2.34,6.01l-.32,6.55a1.206,1.206,0,0,1-.13995.61005.40042.40042,0,0,1-.27.17,21.85005,21.85005,0,0,1-5.01.34,20.7389,20.7389,0,0,1-5.02-.81994h-.02c-.13-.05-.15-.08-.19-.16a1.7078,1.7078,0,0,1-.05-.67l.3-6.58a8.5821,8.5821,0,0,0-1.8-6.21,7.89065,7.89065,0,0,0-5.78-2.4l-6.92-.33c-.55-.03-.72-.24-.77-.46v-.01a21.8998,21.8998,0,0,1,.5-10.05c0-.01.01,0,.01-.01v-.02c.04-.1.06-.12.11-.15a1.80282,1.80282,0,0,1,.55-.02l6.98.32a8.11607,8.11607,0,0,0,6.05-1.8,8.11279,8.11279,0,0,0,2.31-5.83l.34-7.11a.96278.96278,0,0,1,.09-.43c.04-.05.04-.06.14-.07995h.01a22.08185,22.08185,0,0,1,5.17-.38,22.364,22.364,0,0,1,5.16.88c.11005.04.1.03.12006.1a3.21964,3.21964,0,0,1,0,.65l-.32,6.97a8.05446,8.05446,0,0,0,1.82,5.91,7.78165,7.78165,0,0,0,5.58,2.34l7.31.34a.66059.66059,0,0,1,.42.12.80667.80667,0,0,1,.15.31c0,.01.01.01.01.02a21.72489,21.72489,0,0,1-.46,9.88Z" fill="#3b3b3c"/><path d="M61.3477,40.53a26.015,26.015,0,1,0,26.02,26.01A26.01634,26.01634,0,0,0,61.3477,40.53Zm0,51.17a25.155,25.155,0,1,1,25.16-25.16A25.14564,25.14564,0,0,1,61.3477,91.7Z" fill="#3b3b3c"/><polygon points="49.798 79.77 49.128 79.97 46.268 80.82 45.418 81.08 45.738 80.24 46.858 77.47 47.118 76.83 47.578 77.35 49.338 79.25 49.798 79.77" fill="#151515"/><polygon points="75.898 82.49 75.058 82.15 72.288 81.04 71.638 80.77 72.148 80.31 74.078 78.57 74.578 78.11 74.778 78.75 75.628 81.62 75.898 82.49" fill="#151515"/><polygon points="77.308 51.99 76.968 52.84 75.848 55.61 75.598 56.24 75.128 55.74 73.378 53.82 72.918 53.31 73.578 53.12 76.448 52.25 77.308 51.99" fill="#151515"/><polygon points="51.058 52.31 50.548 52.77 48.628 54.51 48.128 54.98 47.928 54.32 47.068 51.46 46.818 50.59 47.638 50.93 50.428 52.05 51.058 52.31" fill="#151515"/><path d="M82.60771,62.57c0-.00995-.01-.00995-.01-.02a.80667.80667,0,0,0-.15-.31.66059.66059,0,0,0-.42-.12l-7.31-.34a7.78165,7.78165,0,0,1-5.58-2.34,8.05446,8.05446,0,0,1-1.82-5.91l.32-6.97a3.21964,3.21964,0,0,0,0-.65c-.02-.07-.01-.06-.12006-.1a22.364,22.364,0,0,0-5.16-.88,22.08185,22.08185,0,0,0-5.17.38h-.01c-.1.02-.1.03-.14.07995a.96278.96278,0,0,0-.09.43l-.34,7.11a8.11279,8.11279,0,0,1-2.31,5.83,8.11607,8.11607,0,0,1-6.05,1.8l-6.98-.32a1.80282,1.80282,0,0,0-.55.02c-.05.03-.07.05-.11.15v.02c0,.01-.01,0-.01.01a21.8998,21.8998,0,0,0-.5,10.05v.01c.05.22.22.43.77.46l6.92.33a7.89065,7.89065,0,0,1,5.78,2.4,8.5821,8.5821,0,0,1,1.8,6.21l-.3,6.58a1.7078,1.7078,0,0,0,.05.67c.04.08.06.11.19.16h.02a20.7389,20.7389,0,0,0,5.02.81994,21.85005,21.85005,0,0,0,5.01-.34.40042.40042,0,0,0,.27-.17,1.206,1.206,0,0,0,.13995-.61005l.32-6.55a8.6773,8.6773,0,0,1,2.34-6.01,7.58052,7.58052,0,0,1,5.83-1.94l7.08.32a1.297,1.297,0,0,0,.61005-.06c.06994-.03.12-.07.2-.32a21.72489,21.72489,0,0,0,.46-9.88ZM61.3477,70.87a4.335,4.335,0,1,1,4.33-4.33A4.31688,4.31688,0,0,1,61.3477,70.87Z" fill="#212121"/><path d="M65.67772,66.54a4.325,4.325,0,1,1-4.33-4.34A4.319,4.319,0,0,1,65.67772,66.54Z" fill="#151515"/><path d="M182.81773,7.22c-.6.69-2.83,3.23-4.12,4.42a11.19868,11.19868,0,0,1-2.43006,2.18c-1.02.53-2.51.78-5.18994.14-5.6-1.35-26.03-4.08-34.04-4.08h-10.3c-8.01,0-28.44,2.73005-34.04,4.08-2.68006.64-4.17.39-5.19-.14a11.19832,11.19832,0,0,1-2.43-2.18c-1.49005-1.38-4.14-4.42-4.16-4.44995a178.49619,178.49619,0,0,1,47.34-6.33h7.23A178.08359,178.08359,0,0,1,182.81773,7.22Z" fill="#353535"/><g id="SEGA"><path d="M148.23936,31.91144h-6.43667V30.406h4.41189c-.32081-.9703-.58629-1.75978-.843-2.55236-.63989-1.9756-1.23773-3.96757-1.94077-5.91825a1.93622,1.93622,0,0,0-1.04908-1.15487c-.70687-.16437-.93631.56919-1.13257,1.17625-.97866,3.02718-1.98546,6.0447-2.93234,9.08263a1.09868,1.09868,0,0,1-1.26544.9348c-1.97463-.0538-3.95161-.00489-5.92743-.02264a3.21217,3.21217,0,0,1-3.35449-3.39968c-.03933-1.86625-.04266-3.735.00049-5.601a3.191,3.191,0,0,1,3.33811-3.414c1.78084-.02531,3.56226-.00529,5.40646-.00529v1.5849c-1.53064,0-3.05257.00029-4.5745-.00007-2.14705-.0005-2.63975.51818-2.64024,2.78164-.00031,1.40874-.00635,2.81752.00177,4.2262.00869,1.50674.695,2.24129,2.11324,2.25631,1.15125.01219,2.30272.00247,3.51312.00247V25.46934h-2.93022V23.94049h4.56578v6.47342l.24932.02922q1.44864-4.46424,2.89658-8.92873c.55062-1.7018,1.56453-2.39355,3.19993-2.14232a2.235,2.235,0,0,1,1.88194,1.57124c1.18268,3.574,2.3297,7.16087,3.48571,10.74445C148.29415,31.74114,148.25728,31.81355,148.23936,31.91144Z" fill="#d6d6d6"/><path d="M107.90182,31.94434V30.3774c1.71728,0,3.40125.01872,5.08465-.00578a2.45391,2.45391,0,0,0,.135-4.90594c-.5626-.0395-1.13264.01479-1.69216-.04567a1.78085,1.78085,0,0,1-1.48838-1.84323A1.7062,1.7062,0,0,1,111.43205,21.75c1.84135-.05369,3.68513-.01637,5.57657-.01637v1.55024h-5.41356l-.0051.52141c.5162.02295,1.0322.05531,1.54864.06716a3.85688,3.85688,0,0,1,3.8374,3.10507,3.96754,3.96754,0,0,1-3.42025,4.95142C111.71152,32.00556,109.862,31.94434,107.90182,31.94434Z" fill="#d6d6d6"/><path d="M107.88642,29.76261V28.14388h5.43252l.0017-.45487c-.55391-.02239-1.10765-.05554-1.66176-.0651a3.60968,3.60968,0,0,1-3.394-2.20377,4.07407,4.07407,0,0,1,.32732-4.26038,3.255,3.255,0,0,1,2.58623-1.578c1.90848-.0613,3.82007-.01708,5.80518-.01708v1.55262c-1.71462,0-3.43032-.02893-5.14471.00816a2.4345,2.4345,0,0,0-2.29356,3.22724,2.48908,2.48908,0,0,0,2.32383,1.67629c.53189.0314,1.069-.00823,1.598.04586a1.79983,1.79983,0,0,1,1.51848,1.82176,1.75105,1.75105,0,0,1-1.47726,1.85C111.66585,29.7984,109.82111,29.76261,107.88642,29.76261Z" fill="#d6d6d6"/><path d="M126.97549,19.58485v1.5315c-1.69811,0-3.37962-.00136-5.06114.00037-1.76806.00182-2.38431.62668-2.39583,2.45687-.00926,1.47293-.0039,2.946.00711,4.419.01271,1.70039.66559,2.38526,2.26911,2.38957,1.68585.00452,3.37173.001,5.12117.001V31.9557c-1.258,0-2.49695.00257-3.73585-.00093-.78331-.00222-1.56914.02585-2.34934-.02927a3.138,3.138,0,0,1-2.78226-2.9493c-.05343-2.15867-.04966-4.32074-.00069-6.47964a3.00667,3.00667,0,0,1,2.52114-2.88C122.68379,19.49811,124.8092,19.58485,126.97549,19.58485Z" fill="#d6d6d6"/><path d="M138.55742,31.87625c1.09207-3.37333,2.15349-6.67371,3.24092-9.96472a.99949.99949,0,0,1,.5359-.55991c.11945-.04333.4548.21452.51745.40086.88689,2.63815,1.74367,5.28734,2.632,8.00806h-3.68717l-.11394-1.08748-.15837-.05747c-.21011.61067-.42559,1.2194-.6293,1.8324C140.35445,32.07419,140.35648,32.07492,138.55742,31.87625Zm3.15175-3.89686h1.29353l-.54278-1.68241-.2229.0141Z" fill="#d6d6d6"/><path d="M133.07636,27.821l-1.08757-.31815V26.11091H134.38V29.757c-1.22258,0-2.43843.06936-3.6377-.04729a1.33474,1.33474,0,0,1-.81686-.988c-.08193-1.962-.05793-3.92967-.03471-5.895a1.0108,1.0108,0,0,1,1.07658-1.0994c1.81642-.01751,3.6331-.006,5.5306-.006v1.55838c-1.36623,0-2.70715.03849-4.04479-.01424-.82047-.03234-1.13731.26742-1.08519,1.13258.055.91376.00355,1.83406.0148,2.75129C131.39621,28.2438,131.90167,28.50714,133.07636,27.821Z" fill="#d6d6d6"/><path d="M121.73508,28.0851c1.68755.31484,3.436-.01479,5.18562.18286v1.48651c-2.00126,0-3.96364.04845-5.9193-.0495-.31215-.01564-.77946-.653-.85045-1.06408a15.35222,15.35222,0,0,1-.03964-2.51916h5.56815v1.46965h-3.89282Z" fill="#d6d6d6"/><path d="M126.97592,21.73614v1.47665c-1.73646.24691-3.517-.15794-5.223.21938l.01736.40608h3.912V25.381h-5.55377a21.43789,21.43789,0,0,1,.04153-2.76615,1.248,1.248,0,0,1,.86508-.83961C122.99815,21.69809,124.9653,21.73614,126.97592,21.73614Z" fill="#d6d6d6"/></g><path d="M123.48033,54.9953a1.47536,1.47536,0,0,1-.48926-.07227.9843.9843,0,0,1-.35059-.20507.85994.85994,0,0,1-.21289-.3125,1.16247,1.16247,0,0,1-.08007-.39844h.47363a.60642.60642,0,0,0,.06738.24219.53588.53588,0,0,0,.1416.16992.58276.58276,0,0,0,.19629.09961.84993.84993,0,0,0,.23731.03125,1.03119,1.03119,0,0,0,.21582-.02539.54993.54993,0,0,0,.168-.06836.314.314,0,0,0,.10742-.10742.27341.27341,0,0,0,.03808-.14258.2529.2529,0,0,0-.03613-.13867.345.345,0,0,0-.12012-.10157,1.11706,1.11706,0,0,0-.21582-.082c-.08984-.02344-.19922-.04883-.33007-.07422a2.33561,2.33561,0,0,1-.38575-.11718.92211.92211,0,0,1-.26562-.15625.585.585,0,0,1-.15332-.209.73763.73763,0,0,1,.01953-.57422.70251.70251,0,0,1,.19531-.24023,1.00522,1.00522,0,0,1,.30176-.1582,1.39085,1.39085,0,0,1,.79883.0039.9545.9545,0,0,1,.31933.17578.806.806,0,0,1,.21.28125.93506.93506,0,0,1,.08106.375h-.46777a.469.469,0,0,0-.53711-.44531.68621.68621,0,0,0-.36328.08008.25149.25149,0,0,0-.125.2207.1898.1898,0,0,0,.02636.09961.26606.26606,0,0,0,.08789.07617.74482.74482,0,0,0,.15528.06446q.09375.02929.22851.05859c.07813.01562.15723.03125.23926.05078a2.074,2.074,0,0,1,.24121.07227,1.37912,1.37912,0,0,1,.22168.09961.75508.75508,0,0,1,.18262.14453.613.613,0,0,1,.124.19922.71689.71689,0,0,1,.0459.26757.7382.7382,0,0,1-.07422.33008.78407.78407,0,0,1-.206.25781.97718.97718,0,0,1-.31446.168A1.23164,1.23164,0,0,1,123.48033,54.9953Z" fill="#d6d6d6"/><path d="M126.89244,52.78632h-.81153l-.00293,2.166h-.48828l.00293-2.16406H124.784l.001-.45117h2.10742Z" fill="#d6d6d6"/><path d="M129.5067,54.95038h-.543l-.28516-.748h-.91309l-.27246.748-.51562.002,1.00488-2.61719h.46485Zm-.97852-1.16406-.31543-.82618-.2998.82813Z" fill="#d6d6d6"/><path d="M132.04966,54.94843h-.52441l-.24805-.7129a.59485.59485,0,0,0-.07226-.13476.49634.49634,0,0,0-.10449-.10742.5107.5107,0,0,0-.13086-.07032.49486.49486,0,0,0-.15332-.02539h-.52246l-.001,1.05079h-.48731l.00293-2.61524h1.16993c.06933,0,.13574.002.19921.00391a1.0868,1.0868,0,0,1,.18164.02148.98212.98212,0,0,1,.167.05469.57073.57073,0,0,1,.15136.09766.5872.5872,0,0,1,.11231.123.72613.72613,0,0,1,.0791.14258.80023.80023,0,0,1,.04785.1582.77443.77443,0,0,1,.0166.16211.72211.72211,0,0,1-.11621.41211.735.735,0,0,1-.31836.26172.89527.89527,0,0,1,.27149.4043Zm-1.75488-1.5h.64844a1.41131,1.41131,0,0,0,.22363-.01954.39935.39935,0,0,0,.15332-.05859.24612.24612,0,0,0,.08692-.10937.43056.43056,0,0,0,.02734-.16407.29785.29785,0,0,0-.10742-.25586.56844.56844,0,0,0-.334-.08007h-.69824Z" fill="#d6d6d6"/><path d="M134.42173,52.78046h-.81152l-.00293,2.166H133.119l.00293-2.16406h-.80859l.001-.45117h2.10742Z" fill="#d6d6d6"/><path d="M172.67172,63.11892l-2.40881-.87632L169.5435,64.667l-1.461.723,1.09017-3.52384L165.7,60.57541l1.461-.723,2.37326.91766.755-2.46571,1.42476-.70506-1.0984,3.55279,3.48095,1.26176Z" fill="#6f7066"/><path d="M192.3825,51.10829l.88019,1.77866-1.52164.753-.88019-1.77866-4.20181-1.7,1.644-.81355,2.91729,1.31339.71451-3.11063,1.644-.81355Z" fill="#6f7066"/><path d="M211.82332,48.51783l-.37424-.75624,1.578-4.77407-2.99589,1.48255-.42236-.8535,4.83865-2.39447.39673.80169-1.57807,4.7164,3.35766-1.66158.42281.85441Z" fill="#6f7066"/><path d="M183.405,91.90171l-.85476.408-1.37767-.896-3.242,1.5474L177.798,94.5779l-.89205.42577.48773-5.66666,1.25851-.60069Zm-2.9055-1.02947L178.621,89.60061l-.5516.26327-.114,2.22264Z" fill="#35353a"/><path d="M204.26053,76.364a.88326.88326,0,0,0,.11342-1.01115l-.17259-.38714c-.35594-.75389-.97439-.9203-1.84906-.50734l-3.95271,1.8662.34169.74532,1.42179,3.01141.36427.74995,3.95271-1.8662c.87467-.413,1.13719-1.00044.78322-1.75016l-.18925-.37925A.87146.87146,0,0,0,204.26053,76.364Zm-.07422,1.828-.51231.24188-2.75707,1.29154L200.384,78.5966l2.7865-1.3156.48289-.21779c.33323-.15733.58833-.04859.76335.32212C204.5957,77.76437,204.51954,78.03461,204.18631,78.19194Zm-.89279-1.891-3.26545,1.54173-.53293-1.12876,3.26546-1.54173c.33323-.15733.59031-.04439.76925.33463C203.70684,75.88172,203.62675,76.14365,203.29352,76.301Z" fill="#35353a"/><path d="M227.10774,67.06914l-1.91936.79074c-1.28722.5243-.96354.99178-.543,2.01846s.51547,1.58491,1.79876,1.05931l3.39547-1.3907.31539.77-3.38977,1.39274c-1.79342.73746-2.24855.02853-2.87926-1.51138-.63079-1.54011-.813-2.36957.966-3.10427l3.41086-1.397.31276.7636Z" fill="#35353a"/></svg>