<svg xmlns="http://www.w3.org/2000/svg" viewBox="0 0 200 200"><path fill="#231F20" d="M200 100C200 44.8 155.2 0 100 0S0 44.8 0 100s44.8 100 100 100 100-44.8 100-100m-100 14.6c-8.1 0-14.6-6.6-14.6-14.6S92 85.3 100 85.3s14.7 6.6 14.7 14.7-6.6 14.6-14.7 14.6z"/><path fill="none" d="M0 0h200v200H0z"/><path fill="#FFF" d="M174.6 157.2C157.5 179.6 130.4 194 100 194s-57.4-14.4-74.6-36.8C13.2 141.4 6 121.5 6 100 6 48 48.1 6 100 6s94 42 94 94c0 21.5-7.2 41.4-19.4 57.2zM100 1.6c-54.3 0-98.4 44-98.4 98.4s44 98.4 98.4 98.4c54.3 0 98.4-44 98.4-98.4S154.3 1.6 100 1.6"/><path fill="#231F20" d="M174.6 157.2C157.5 179.6 130.4 194 100 194s-57.4-14.4-74.6-36.8h50.4l6.8-10h32.2l6.6 10h53.2z"/><path fill="#918F90" d="M100 130.3c-16.7 0-30.2-13.6-30.2-30.3S83.3 69.7 100 69.7s30.3 13.6 30.3 30.3-13.6 30.3-30.3 30.3M100 6C48.1 6 6 48 6 100c0 21.5 7.2 41.4 19.4 57.2h50.4l6.8-10h32.2l6.6 10h53.4c12.2-15.8 19.4-35.7 19.4-57.2C194 48 151.9 6 100 6"/><path fill="#BDBCBC" d="M100 128c-15.5 0-28-12.6-28-28s12.6-28 28-28 28.1 12.5 28.1 28-12.6 28-28.1 28m0-58.3c-16.7 0-30.2 13.6-30.2 30.3 0 16.7 13.5 30.3 30.2 30.3s30.3-13.6 30.3-30.3c0-16.7-13.6-30.3-30.3-30.3"/><path fill="#918F90" d="M100 126.2c-14.5 0-26.2-11.8-26.2-26.2 0-14.5 11.7-26.2 26.2-26.2s26.2 11.7 26.2 26.2-11.7 26.2-26.2 26.2m0-54.3c-15.5 0-28 12.6-28 28s12.6 28 28 28 28.1-12.5 28.1-28-12.6-28-28.1-28"/><path fill="#4F4C4D" d="M100 113.8c-8.1 0-14.6-6.6-14.6-14.6S92 84.5 100 84.5s14.7 6.6 14.7 14.7-6.6 14.6-14.7 14.6m0-40c-14.5 0-26.2 11.7-26.2 26.2s11.7 26.3 26.2 26.3 26.2-11.8 26.2-26.3-11.7-26.2-26.2-26.2"/><path fill="none" stroke="#353132" stroke-width="1.977" stroke-miterlimit="10" d="M100 113.8c-8.1 0-14.6-6.6-14.6-14.6S92 84.5 100 84.5s14.7 6.6 14.7 14.7-6.6 14.6-14.7 14.6zm0-40c-14.5 0-26.2 11.7-26.2 26.2s11.7 26.3 26.2 26.3 26.2-11.8 26.2-26.3-11.7-26.2-26.2-26.2z"/><path fill="#FFF" d="M90.4 168.6v-1.8l.1-.1c2.3 0 4.6-.1 6.8 0 1.2.1 2.2 1.5 2.1 2.8-.1 1.4-1.2 2.5-2.6 2.5H86.2c-1.6 0-2.6-1-2.6-2.6v-3.6h3.8v2.8c0 1.2.1 1.3 1.3 1.3h6.2c.4 0 .8-.2.7-.7-.1-.3-.4-.6-.7-.6-1.2-.1-2.3 0-3.5 0h-1zm-9.3-1.9v1.9h-8.8c-.1 1 .1 1.4 1 1.4h8.4v2H71.3c-1.9 0-2.8-.9-2.8-2.8v-3.3h3.7c.2.7.8.8 1.4.8h7.5zm-14.8-1.5H46v-2.1c.2 0 .4-.1.6-.1h17.5c1.4.1 2.2.9 2.2 2.2m46.3 2.5v-1.8h3.7v6.1h-3.7c0-.6 0-1.1-.1-1.8h-6.7v-2.5h6.8zm30 4.3v-2h6.5c.9 0 1.1-.2 1.1-1v-3h3.8v3.7c0 1.3-.8 2.4-2.1 2.4-3.1-.1-6.2-.1-9.3-.1m-58.8-6.8c-.1-1.2.7-2.1 2-2.1h13.7v2.1H83.8zm70 0h-15.5v-.7-1.3c.3 0 .4-.1.6-.1h12.9c1.3 0 2.1.8 2 2.1m-52.4 0c0-1.3.7-2.1 1.9-2.1h11.1c1.2 0 1.9.9 1.9 2.1h-14.9zm-32.9-2.1h13.3v2.1H68.5v-2.1zm-6 2.8h3.8v6.1h-3.8v-6.1zm-16.5 0h3.7v6.1H46v-6.1zm55.4 0h3.7v6.1h-3.7v-6.1zM58 172h-3.6v-6.1H58v6.1zm80.3-6.1h3.7v6.1h-3.7v-6.1zm-2-1v.3h-12.8v-.3c0-.9.8-1.7 1.8-1.7h9.3c.9-.1 1.7.7 1.7 1.7m0 5v.3c0 .9-.8 1.7-1.8 1.7h-9.3c-1 0-1.8-.8-1.8-1.7v-4.4h2.8v3.5c0 .4.3.6.7.6h9.4zm-18.4-9.4v.2l-.1.3-.4.1h-6.1v-1.3c-.3.9-.6 1.4-1.4 1.4-.3 0-.6 0-1-.1l-.5-.1c-.2.1-.4.2-.6.2H102.5c-1.6 0-2.8-.9-3.2-2.3v2.3h-5.9c-1.5-.1-2.8-1.5-2.9-3v-.2c-.1.6-.4 1.2-.7 1.7-.7.9-1.7 1.4-2.7 1.5h-5.5v-4.3h1.9c-.6-.4-1.2-.9-1.6-1.7-.7-1.4-.6-2.9.3-4.2.7-1 1.6-1.5 2.6-1.6h5.6v3c0-1.5 1.3-2.9 2.7-3 .8 0 1.5-.1 2.3-.1h3.8v2.2c.4-1.4 1.6-2.2 3.2-2.2h5.2v7.9l1.9-5.8c.5-1.5 1.4-2.3 2.7-2.3h.6c1 .2 1.7.8 2 1.7.8 2.5 1.6 4.9 2.4 7.4l.7 2.3z"/><path fill="#231F20" d="M117.4 160.7h-5.7v-1.3h3.9c-.3-.9-.5-1.5-.7-2.2-.6-1.7-1.1-3.5-1.7-5.2-.1-.4-.6-.9-.9-1-.6-.1-.8.5-1 1-.9 2.7-1.7 5.3-2.6 8-.2.6-.5.8-1.1.8h-5.2c-1.8 0-2.9-1.2-3-3v-4.9c0-1.9 1.2-3 2.9-3h4.8v1.4h-4c-1.9 0-2.3.5-2.3 2.4v3.7c0 1.3.6 2 1.9 2h3.1V155h-2.6v-1.3h4v5.7h.2c.9-2.6 1.7-5.2 2.6-7.9.5-1.5 1.4-2.1 2.8-1.9.8.1 1.4.6 1.7 1.4 1 3.1 2.1 6.3 3.1 9.5-.1.1-.2.1-.2.2m-35.5 0v-1.4h4.5c1.2 0 2.2-.9 2.2-2.1 0-1.2-.9-2.1-2.1-2.2H85c-.8-.1-1.3-.8-1.3-1.6s.5-1.6 1.3-1.6h4.9v1.4h-4.8v.5c.5 0 .9 0 1.4.1 1.7 0 3 1 3.4 2.7.5 2.1-1 4.3-3 4.4-1.7-.1-3.3-.2-5-.2"/><path fill="#231F20" d="M81.9 158.8v-1.4h4.8v-.4c-.5 0-1 0-1.5-.1-1.4 0-2.4-.7-3-1.9-.6-1.3-.5-2.6.3-3.8.6-.8 1.3-1.4 2.3-1.4 1.7-.1 3.4 0 5.1 0v1.4h-4.5c-1.5 0-2.5 1.4-2 2.8.3.8 1 1.4 2 1.5h1.4c.8.1 1.3.8 1.3 1.6s-.6 1.6-1.3 1.6c-1.6.1-3.2.1-4.9.1m16.8-8.9v1.3h-4.5c-1.6 0-2.1.6-2.1 2.2v3.9c0 1.5.6 2.1 2 2.1h4.5v1.4h-5.4c-1.3-.1-2.4-1.3-2.5-2.6v-5.7c0-1.2 1.1-2.5 2.2-2.5 2-.2 3.9-.1 5.8-.1m13 7.3h1.1c-.2-.5-.3-1-.5-1.5h-.2c-.1.5-.3 1-.4 1.5m-2.8 3.5c1-3 1.9-5.9 2.9-8.8.1-.2.3-.4.5-.5.1 0 .4.2.5.4.8 2.3 1.5 4.7 2.3 7.1h-3.2c0-.3-.1-.7-.1-1h-.1c-.2.5-.4 1.1-.6 1.6-.6 1.4-.6 1.4-2.2 1.2m-4.8-3.6c-.4-.1-.7-.2-1-.3v-1.2h2.1v3.2c-1.1 0-2.1.1-3.2 0-.3 0-.7-.6-.7-.9-.1-1.7 0-3.5 0-5.2 0-.6.4-1 .9-1h4.9v1.4h-3.6c-.7 0-1 .2-1 1v2.4c.1 1 .5 1.2 1.6.6"/><path fill="#231F20" d="M94.1 157.3c1.5.3 3 0 4.6.2v1.3h-5.2c-.3 0-.7-.6-.7-.9-.1-.7 0-1.4 0-2.2h4.9v1.3h-3.4c-.2 0-.2.2-.2.3m4.6-5.6v1.3c-1.5.2-3.1-.1-4.6.2v.4h3.4v1.4h-4.9c0-.8-.1-1.6 0-2.4 0-.3.5-.7.8-.7 1.8-.2 3.5-.2 5.3-.2"/></svg>