<svg id="Layer_1" data-name="Layer 1" xmlns="http://www.w3.org/2000/svg" viewBox="0 0 1000 114"><title>logo_right</title><path d="M707.89,107.86H690.2a12.4,12.4,0,0,1-11.36-7.61,13.54,13.54,0,0,1-.73-5.43c0-.36,0-.71,0-1.07V71.29q0-27.68,0-55.35A12.32,12.32,0,0,1,688.33,3.66l.4,0c1.08,0,2.26-.06,3.7-.06h6.26c.31,0,.63,0,.94,0a11.82,11.82,0,0,1,8.46,3.78A11.91,11.91,0,0,1,711.44,16v2.69q0,5.76,0,11.52A3.5,3.5,0,0,1,708,33.68h-8.62a3.5,3.5,0,0,1-3.5-3.49c0-1.82,0-3.64,0-5.47V19.16h-2.6q0,13.74,0,27.5a3.41,3.41,0,0,1,2-.63h7.7l5,0h0a3.5,3.5,0,0,1,3.5,3.49c0,18,.05,36.58,0,54.87a3.5,3.5,0,0,1-3.5,3.48ZM696.1,93q0-10.5,0-21c0-3.71,0-7.43,0-11.14h-.85a3.54,3.54,0,0,1-2-.63v4.62q0,14.07,0,28.14Z" fill="#f79226"/><path d="M699.63,7a8.69,8.69,0,0,1,8.31,8.83c0,4.77,0,9.55,0,14.32h-8.59c0-4.85,0-9.7,0-14.55l-4.57,0-5,0c0,26.94,0,53.88,0,80.81h5.59c1.43,0,2.85,0,4.28,0-.05-13,0-26.08,0-39.11h-4.34V49.53h7.66l5,0c0,18.28.05,36.57,0,54.84H690.18A8.87,8.87,0,0,1,682.1,99c-.68-1.68-.45-3.52-.48-5.29q0-38.9,0-77.81a8.82,8.82,0,0,1,7.26-8.75c1.18,0,2.37-.06,3.56-.06l4.42,0h2a6.12,6.12,0,0,1,.74,0m0-7h0c-.37,0-.74,0-1.11,0h-6.09c-1.49,0-2.71,0-3.83.07a7,7,0,0,0-.8.07A15.92,15.92,0,0,0,674.61,16q0,27.72,0,55.43V93.81c0,.32,0,.64,0,1a16.7,16.7,0,0,0,1,6.79,16,16,0,0,0,14.58,9.8h17.73a7,7,0,0,0,7-7c.06-18.3,0-36.9,0-54.88a7,7,0,0,0-7-7h0l-5,0h-6.16V36.69a7.1,7.1,0,0,0,2.62.5H708a7,7,0,0,0,6.93-7c0-3.79,0-7.66,0-11.4V16A15.44,15.44,0,0,0,710.63,4.9a15.3,15.3,0,0,0-11-4.87Z" fill="#fff"/><path d="M733.32,108h-3.21a3.51,3.51,0,0,1-3.47-3.51q0-32.39,0-64.77V23.44a3.5,3.5,0,0,1,3.5-3.5h10c2.28,0,4.55,0,6.83,0h.08a12.76,12.76,0,0,1,11.51,7,10,10,0,0,1,.82,4.67v.66c0,4.84,0,9.6,0,14.37V58c0,.06,0,.11,0,.17a12.38,12.38,0,0,1-5.93,9.94c2.33,10.79,4.63,21.71,6.86,32.3l.67,3.21a3.49,3.49,0,0,1-.7,2.92,3.54,3.54,0,0,1-2.72,1.3h-7.85a3.5,3.5,0,0,1-3.41-2.72Q744,95.05,741.65,85q0,9.75,0,19.5a3.52,3.52,0,0,1-3.5,3.49Zm8.45-53.81h2.38c0-5.14,0-10.28,0-15.42v-3.9h-2.38Z" fill="#f79226"/><path d="M740.18,23.44c2.26,0,4.52,0,6.78,0h.12a9.22,9.22,0,0,1,8.35,5,8.83,8.83,0,0,1,.47,3.89c0,8.54,0,17.08,0,25.62-.19,3.62-2.76,7.31-6.49,7.94,2.77,12.79,5.46,25.6,8.16,38.41h-7.85q-4.37-19-8.77-38l-2.79,0c0,12.7,0,25.41,0,38.11h-8q0-40.51,0-81h10m.21,34.22h7.26q0-13.15,0-26.32h-9.38V57.66h2.12m-.21-41.22h-10a7,7,0,0,0-7,7V37.2q0,33.63,0,67.25a7,7,0,0,0,7,7h8a7,7,0,0,0,4.93-2,6.53,6.53,0,0,0,.89-1.09,7,7,0,0,0,5.75,3h7.86a7,7,0,0,0,6.84-8.45l-.78-3.7c-2-9.69-4.14-19.66-6.27-29.55a15.9,15.9,0,0,0,5.52-11.29c0-.11,0-.23,0-.35V46.6q0-7.11,0-14.21v-.71a13.34,13.34,0,0,0-1.16-6.21,16.1,16.1,0,0,0-14.66-9H747c-2.27,0-4.53,0-6.8,0Z" fill="#fff"/><path d="M777.63,107.85a3.5,3.5,0,0,1-3.5-3.5V74.69q0-21.87,0-43.73A11.07,11.07,0,0,1,784.3,20.08h.12c1.31,0,2.63,0,4,0h4.28l2.81,0h.21A11.59,11.59,0,0,1,803,22.5,10.88,10.88,0,0,1,806.88,31v73.38a3.5,3.5,0,0,1-3.5,3.5h-7.89a3.5,3.5,0,0,1-3.5-3.5V69.4h-2.84c0,5.18,0,10.36,0,15.53q0,9.72,0,19.43a3.56,3.56,0,0,1-1,2.48,3.49,3.49,0,0,1-2.46,1Zm14.13-53.58v-19h-2.38c0,2.18,0,4.37,0,6.55q0,6.21,0,12.43h2.38Z" fill="#f79226"/><path d="M795.67,23.54a8,8,0,0,1,5.12,1.67A7.34,7.34,0,0,1,803.38,31v73.39h-7.89q0-19.23,0-38.46h-9.82c0,12.82,0,25.64,0,38.47h-8q0-36.69,0-73.39a7.56,7.56,0,0,1,6.82-7.39c1.3,0,2.6,0,3.89,0h7.32m-3.87,8.25h-5.93c0,8.67,0,17.34,0,26,1.46,0,2.92,0,4.38,0h5c0-8.66,0-17.32,0-26H791.8m3.87-15.25h-7.32l-4,0h-.23a14.47,14.47,0,0,0-13.5,14.35q0,22.07,0,44.08,0,14.67,0,29.34a7,7,0,0,0,7,7h8a7,7,0,0,0,4.92-2,7,7,0,0,0,4.93,2h7.89a7,7,0,0,0,7-7V31a14.41,14.41,0,0,0-5.17-11.18,15,15,0,0,0-9.54-3.24Z" fill="#fff"/><path d="M823.53,107.85a3.54,3.54,0,0,1-2.48-1,3.5,3.5,0,0,1-1-2.48V30.51a10.62,10.62,0,0,1,10.18-10.45h13.57a3.5,3.5,0,0,1,3.5,3.5v7.21a3.5,3.5,0,0,1-3.5,3.5s-8,0-8.62,0c0,5,0,10,0,15,0,1.71,0,3.42,0,5.13h6.45a3.5,3.5,0,0,1,3.5,3.5v2.25c0,1.91,0,3.82,0,5.74a3.48,3.48,0,0,1-3.49,3.51h-6.47v34.95a3.5,3.5,0,0,1-3.5,3.5Z" fill="#f79226"/><path d="M834.38,23.55h9.4v7.21h-6.86l-5.24,0c-.06,9,0,18.09,0,27.14h10c0,2.67,0,5.33,0,8h-10c0,12.82,0,25.64,0,38.46h-8.12V30.51a7.17,7.17,0,0,1,6.73-7h4.12m0-7h-4.23a14.17,14.17,0,0,0-13.62,13.9v73.89a7,7,0,0,0,7,7h8.12a7,7,0,0,0,7-7V72.9h3a7,7,0,0,0,7-7c0-1.89,0-3.79,0-5.68V57.89a7,7,0,0,0-7-7h-3V37.76h5.13a7,7,0,0,0,7-7V23.55a7,7,0,0,0-7-7h-9.4Z" fill="#fff"/><path d="M872.2,108l-3.42,0h-4.87a3.52,3.52,0,0,1-3.49-3.5V94.53q0-7.74,0-15.46a16.49,16.49,0,0,1,2-7.18l.38-.84a101.87,101.87,0,0,1,5.69-9.87c-3.06-4.63-6.22-9.41-7.8-15.1a3.69,3.69,0,0,1-.12-.82c-.15-4.5-.13-9-.11-13.45,0-2.74,0-5.48,0-8.22a3.52,3.52,0,0,1,3.5-3.54h8.47a3.5,3.5,0,0,1,3.5,3.48c0,2.87,0,5.75,0,8.62,0,4.22,0,8.57.06,12.84.37.59.76,1.18,1.16,1.78.35-.53.7-1.05,1-1.59.07-4.63.06-9.34,0-13.91,0-2.57,0-5.14,0-7.71a3.51,3.51,0,0,1,3.49-3.5h8.52a3.5,3.5,0,0,1,3.48,3.52c0,3.51,0,7,0,10.53V39.7c0,.52,0,1,0,1.48a18.86,18.86,0,0,1-.93,7.25,75.69,75.69,0,0,1-6.65,12.83c3,4.74,6,9.66,7.39,15.41a3.32,3.32,0,0,1,.1.77c.12,6.16.1,12.4.08,18.44q0,4.31,0,8.59a3.5,3.5,0,0,1-3.5,3.51h-7.88a3.5,3.5,0,0,1-3.49-3.49q0-5.25,0-10.48c0-5.17,0-10.5,0-15.75-.42-.77-.91-1.53-1.43-2.31l-1.51,2.24q0,3.91,0,7.83c0,6.06,0,12.33,0,18.5a3.5,3.5,0,0,1-3.5,3.47Z" fill="#f79226"/><path d="M886.2,23.55h3.94c0,5.38,0,10.76,0,16.14,0,2.5.24,5.08-.68,7.47a82.18,82.18,0,0,1-7.51,14.1c3.19,5.12,6.65,10.31,8.11,16.24.17,9,.05,18,.06,27h-7.87c0-9,0-18.06,0-27.08-1.33-2.73-3.33-5.12-4.92-7.72-1.64,2.51-3.36,5-5,7.46,0,9.12,0,18.23,0,27.35l-3.48,0h-4.84q0-12.7,0-25.41c0-2.3,1.06-4.4,2-6.45a103.26,103.26,0,0,1,6.75-11.43c-3.3-5.07-7-10.13-8.61-16-.24-7.19,0-14.4-.1-21.6h8.46c.05,7.49-.1,15,.08,22.46,1.43,2.4,3.11,4.66,4.61,7,1.48-2.31,3.2-4.48,4.53-6.88.13-7.53,0-15.06,0-22.59h4.55m0-7h-4.58A7,7,0,0,0,877,18.31a7,7,0,0,0-4.64-1.76h-8.46a7,7,0,0,0-7,7.07c0,2.7,0,5.47,0,8.15,0,4.44,0,9,.11,13.61a7.08,7.08,0,0,0,.25,1.64c1.49,5.38,4.29,10,7,14.19-1.78,2.87-3.32,5.61-4.65,8.28,0,.09-.09.19-.13.28l-.31.67a20.07,20.07,0,0,0-2.27,8.67q0,7.59,0,15.19,0,5.08,0,10.17a7,7,0,0,0,7,7h4.87l3.38,0h.1a7,7,0,0,0,4.9-2l.1-.11a7,7,0,0,0,5,2.09h7.89a7,7,0,0,0,7-7q0-4.27,0-8.57c0-6.06,0-12.32-.08-18.51a6.65,6.65,0,0,0-.2-1.55c-1.35-5.48-4-10.28-6.68-14.59A72,72,0,0,0,896,49.66a22.12,22.12,0,0,0,1.15-8.52c0-.45,0-.9,0-1.35V34c0-3.47,0-6.93,0-10.4a7,7,0,0,0-6.95-7Z" fill="#fff"/><rect x="956.29" y="48.02" width="20.17" height="32.32" rx="3.5" fill="#f79226"/><path d="M973,51.52V76.85H959.79V51.52H973m0-7H959.79a7,7,0,0,0-7,7V76.85a7,7,0,0,0,7,7H973a7,7,0,0,0,7-7V51.52a7,7,0,0,0-7-7Z" fill="#fff"/><path d="M949.75,110.49h-.33a46.06,46.06,0,0,1-38-20.59,46.44,46.44,0,0,1,31.21-71.65,45.94,45.94,0,0,1,7.38-.6,46.45,46.45,0,0,1,28,83.52,45.9,45.9,0,0,1-27.5,9.33Zm24.74-31.26.86-.85V50l-.87-.85H956.26a3.49,3.49,0,0,1,1,2.39V76.85a3.48,3.48,0,0,1-.94,2.38Z" fill="#f79226"/><path d="M950,21.15a43,43,0,0,1,25.92,77.23A42.5,42.5,0,0,1,950.54,107h-1.12A42.92,42.92,0,0,1,950,21.15m.66,30.37h3V76.85h-3c0,2-.07,3.85-.06,5.88h25.31l2.93-2.89V48.52l-2.94-2.89H950.67v5.89h0M924.41,82.73h17.15c1.05-1.06,2-1.91,3-3v-7h-5.06c0,1.35,0,2.71,0,4.06H927.37V51.52h12.16c0,1.35,0,2.71,0,4.06h5.06v-7c-1.06-1.07-2-1.94-3.05-3H924.41l-2.93,2.89,0,31.34,2.91,2.86M950,14.15a48.92,48.92,0,0,0-8,.65,49.93,49.93,0,0,0-33.53,77.07A49.58,49.58,0,0,0,949.42,114h1.12a49.44,49.44,0,0,0,29.61-10A50,50,0,0,0,950,14.15Zm10.7,38.48h11.14v23.1H960.71V52.63Z" fill="#fff"/><path d="M501.11,108h-4.57a11.51,11.51,0,0,1-8.11-3.65,12,12,0,0,1-3.36-8.4q0-22.78,0-45.58,0-13.44,0-26.89a3.5,3.5,0,0,1,3.49-3.5h4.72c1.19,0,2.38,0,3.58,0h0a3.5,3.5,0,0,1,2.46,1,3.46,3.46,0,0,1,1,2.48q.06,22,0,44,0,12.67,0,25.34h2.39q0-12.09,0-24.18c0-14.79,0-30.09,0-45.14a3.5,3.5,0,0,1,3.5-3.49h.06c1.1,0,2.19,0,3.29,0h5.15a3.5,3.5,0,0,1,3.45,3.51q0,23.32,0,46.65V93.23c0,.47,0,.87,0,1.27a17.31,17.31,0,0,1-.38,4.63A11.69,11.69,0,0,1,506.67,108Z" fill="#f79226"/><path d="M506.32,23.42c1.12,0,2.23,0,3.35,0h5.1q0,34.89,0,69.78a21.79,21.79,0,0,1-.27,5,8.22,8.22,0,0,1-7.82,6.2h-10.1a8.5,8.5,0,0,1-8-8.51c-.05-24.17,0-48.34,0-72.51h4.72c1.21,0,2.41,0,3.61,0,.06,24.27,0,48.54,0,72.81h9.38c0-24.28,0-48.54,0-72.81m0-7a7,7,0,0,0-4.72,1.83,7,7,0,0,0-4.72-1.83h-.09c-1.17,0-2.34,0-3.52,0h-4.74a7,7,0,0,0-7,7q0,13.47,0,26.93c0,14.91,0,30.34,0,45.51a15.5,15.5,0,0,0,4.33,10.85,15,15,0,0,0,10.54,4.73h10.2A15.31,15.31,0,0,0,521.3,99.9a20.64,20.64,0,0,0,.46-5.44c0-.37,0-.73,0-1.09V70c0-15.25,0-31,0-46.53a7,7,0,0,0-6.91-7h-5.19c-1.08,0-2.15,0-3.23,0Z" fill="#fff"/><path d="M555.55,108a3.5,3.5,0,0,1-3.41-2.72L548,87.31c-.19-.8-.37-1.61-.56-2.42v19.58a3.5,3.5,0,0,1-3.5,3.5h-8a3.5,3.5,0,0,1-3.5-3.5v-81a3.5,3.5,0,0,1,3.5-3.5h2.7l7.89,0c2.27,0,4.55,0,6.82.06,5.71.07,11.88,4.51,11.95,11q0,13.34,0,26.61a12.56,12.56,0,0,1-6,10.69q1.53,7.17,3,14.33,2.24,10.56,4.49,21.13a3.49,3.49,0,0,1-3.41,4.23h-7.86Zm-7.76-53.58h2.26q0-6.76,0-13.52V35h-2.28C547.79,38.78,547.79,54.39,547.79,54.39Z" fill="#f79226"/><path d="M546.51,23.43c2.25,0,4.51,0,6.76.06,4.09.05,8.47,3.15,8.52,7.52q0,13.27,0,26.56c0,3.83-2.59,7.82-6.54,8.53,2.73,12.79,5.41,25.58,8.15,38.36h-7.85c-2.9-12.63-5.84-25.25-8.73-37.88h-2.88q0,18.94,0,37.89h-8v-81h2.73l7.85,0m4.94,8h-7.17q0,13.22,0,26.43h9.26c0-8.82,0-17.63,0-26.45h-2.11m-4.94-15H535.93a7,7,0,0,0-7,7v81a7,7,0,0,0,7,7h8a7,7,0,0,0,5.8-3.09,7,7,0,0,0,5.81,3.09h7.88a7,7,0,0,0,6.82-8.47q-2.25-10.5-4.47-21-1.29-6.1-2.59-12.21a16.25,16.25,0,0,0,5.6-12.13c0-8.87,0-17.81,0-26.63v-.06c-.09-8.8-8.07-14.36-15.42-14.45-2,0-4.15-.06-6.86-.06Z" fill="#fff"/><path d="M584.59,108a3.51,3.51,0,0,1-2.47-1,3.46,3.46,0,0,1-1-2.47q0-20.31,0-40.6t0-40.42A3.5,3.5,0,0,1,584.54,20h3.93l6.49,0c2.6,0,5.2,0,7.8.05a11.18,11.18,0,0,1,11,10.44v.11q0,7.55,0,15.08V56.19a9.33,9.33,0,0,1-2,5.7,9.38,9.38,0,0,1,2,5.08c.18,2.44.16,4.87.14,7.21,0,1.15,0,2.3,0,3.46,0,1.86,0,3.65,0,5.45,0,3.51,0,7.13-.11,10.74,0,.45,0,1,0,1.44a13.21,13.21,0,0,1-1.17,6.79,11.06,11.06,0,0,1-9.86,5.91H591.11l-6.5,0Zm14.1-15V69.86h-2.26q0,8,0,15.94V93Zm0-38.57V48.3q0-6.67,0-13.35h-2.28s0,14,0,19.44Z" fill="#f79226"/><path d="M595,23.43c2.58,0,5.17,0,7.75.05h0a7.68,7.68,0,0,1,7.58,7.06c0,8.55,0,17.1,0,25.65,0,2.37-1.68,4.25-3.34,5.73,1.61,1.35,3.17,3.09,3.32,5.29.25,3.48.09,7,.13,10.47,0,5.33.1,10.67-.11,16-.07,2.26.35,4.69-.78,6.77a7.63,7.63,0,0,1-6.77,4H591.1l-6.51,0c-.06-27,0-54,0-81l10.42,0m-.56,8h-1.49q0,13.22,0,26.44h9.26c0-8.81,0-17.62,0-26.43h-7.79m-1.49,65h9.28c0-10,0-20.06,0-30.09h-9.26c0,10,0,20.07,0,30.1m2.05-80-6.51,0h-3.92a7,7,0,0,0-7,7c0,13.5,0,27.22,0,40.49s0,27,0,40.53a7,7,0,0,0,7,7h0l6.47,0h11.68a14.61,14.61,0,0,0,13-7.81,16.67,16.67,0,0,0,1.55-8.45c0-.47,0-.92,0-1.28.15-3.67.14-7.32.12-10.85,0-1.78,0-3.56,0-5.34v-.15c0-1.1,0-2.21,0-3.38,0-2.42,0-4.91-.15-7.5a12.25,12.25,0,0,0-1.36-4.82,12.37,12.37,0,0,0,1.4-5.73V45.63q0-7.56,0-15.11v-.23a14.58,14.58,0,0,0-14.55-13.81c-2.33,0-4.8-.05-7.79-.05Zm4.95,15h0Z" fill="#fff"/><path d="M640.61,108a11.58,11.58,0,0,1-4.58-.75A12.25,12.25,0,0,1,628.1,96V93.87q0-30,0-60.12v-.9a12.66,12.66,0,0,1,.84-5.53,12.52,12.52,0,0,1,7.18-6.73l.2-.06a18.6,18.6,0,0,1,5.17-.61l1.34,0h2.67l2.16,0a14.44,14.44,0,0,1,7.26,1.51c3.21,1.7,6.64,5.27,6.51,10.08,0,19.94,0,40,0,60V94.8a12.29,12.29,0,0,1-1,5.9,12.44,12.44,0,0,1-9.72,7.23l-.26,0c-.9,0-1.79,0-2.69,0h-7.17Zm5.24-15.48c0-11.11,0-57.43,0-57.43h-1.92s0,46.41,0,57.43Z" fill="#f79226"/><path d="M641.49,23.42c.86,0,1.71,0,2.56,0h1.45l2.16,0a11.32,11.32,0,0,1,5.57,1.07c2.53,1.35,4.78,3.91,4.7,6.93q0,31.16,0,62.31c0,1.8.21,3.72-.62,5.4a9.06,9.06,0,0,1-6.92,5.31c-.87,0-1.74,0-2.61,0H640.6a8.3,8.3,0,0,1-3.24-.49c-3.22-1.26-5.86-4.43-5.76-8q0-31.12,0-62.25c0-1.67-.16-3.43.54-5a8.93,8.93,0,0,1,5.15-4.86,15.22,15.22,0,0,1,4.2-.47M644.88,96h4.47q0-32.22,0-64.42h-8.92q0,32.21,0,64.42h4.47m-3.39-79.58h0a21.5,21.5,0,0,0-6.14.75l-.4.12A15.87,15.87,0,0,0,625.72,26a16.06,16.06,0,0,0-1.12,6.94v.86q0,31.08,0,62.16c-.13,6.18,4,12.16,10.15,14.58a15.09,15.09,0,0,0,5.85,1h7.18c.93,0,1.85,0,2.77,0l.51,0a16,16,0,0,0,12.54-9.21,15.57,15.57,0,0,0,1.33-7.44v-1q0-31.11,0-62.22c.1-5.32-3.1-10.35-8.38-13.17a18,18,0,0,0-8.89-1.91h-4.78l-1.39,0Z" fill="#fff"/><path d="M453.84,107.89a3.5,3.5,0,0,1-3.5-3.5V18.63H446a3.5,3.5,0,0,1-3.5-3.5V7A3.5,3.5,0,0,1,446,3.5h25.18a3.5,3.5,0,0,1,3.5,3.5v8.13a3.5,3.5,0,0,1-3.5,3.5h-4.37v85.76a3.5,3.5,0,0,1-3.5,3.5Z" fill="#f79226"/><path d="M471.16,7v8.13h-7.87v89.26h-9.45V15.13H446V7h25.18m0-7H446a7,7,0,0,0-7,7v8.13a7,7,0,0,0,7,7h.86v82.26a7,7,0,0,0,7,7h9.45a7,7,0,0,0,7-7V22.13h.87a7,7,0,0,0,7-7V7a7,7,0,0,0-7-7Z" fill="#fff"/><path d="M681.61,15.87a8.82,8.82,0,0,1,7.26-8.75c3.34-.13,6.68,0,10,0,4.81-.51,9.31,4,9.05,8.79,0,4.77,0,9.55,0,14.32-2.87,0-5.73,0-8.59,0,0-4.85,0-9.7,0-14.55-3.19,0-6.38,0-9.57,0,0,26.94,0,53.88,0,80.81,3.29,0,6.58,0,9.87,0-.05-13,0-26.08,0-39.12h-4.34V49.53c4.22,0,8.45,0,12.68,0,0,18.28.05,36.57,0,54.84-5.9,0-11.8,0-17.71,0A8.88,8.88,0,0,1,682.1,99c-.68-1.68-.45-3.52-.48-5.28Q681.62,54.78,681.61,15.87Z" fill="#d5e14d"/><path d="M730.14,23.44c5.6,0,11.22,0,16.82,0a9.25,9.25,0,0,1,8.47,5,8.83,8.83,0,0,1,.47,3.89c0,8.54,0,17.08,0,25.62-.19,3.62-2.76,7.31-6.49,7.94,2.77,12.79,5.46,25.6,8.16,38.41h-7.85q-4.37-19-8.77-38l-2.79,0c0,12.7,0,25.41,0,38.11h-8Q730.16,63.95,730.14,23.44Zm8.13,7.9V57.66h9.38q0-13.15,0-26.32Z" fill="#d5e14d"/><path d="M777.64,31a7.56,7.56,0,0,1,6.82-7.39c3.68-.05,7.36,0,11,0a8,8,0,0,1,5.3,1.66A7.34,7.34,0,0,1,803.38,31v73.39h-7.89q0-19.23,0-38.46c-3.27,0-6.55,0-9.82,0,0,12.82,0,25.64,0,38.47h-8Q777.65,67.66,777.64,31Zm8.23.83c0,8.67,0,17.34,0,26,3.13,0,6.25,0,9.37,0,0-8.66,0-17.32,0-26C792.12,31.8,789,31.79,785.87,31.79Z" fill="#d5e14d"/><path d="M823.53,30.51a7.17,7.17,0,0,1,6.73-7c4.51,0,9,0,13.52,0v7.21c-4,0-8.07,0-12.11,0,0,9,0,18.09,0,27.14h10c0,2.67,0,5.33,0,8-3.32,0-6.63,0-10,0,0,12.82,0,25.64,0,38.46h-8.12Z" fill="#d5e14d"/><path d="M863.93,23.55h8.46c.05,7.49-.1,15,.08,22.46,1.43,2.4,3.11,4.66,4.61,7,1.48-2.31,3.2-4.48,4.53-6.88.13-7.53,0-15.06,0-22.59h8.49c0,5.38,0,10.76,0,16.14,0,2.5.24,5.08-.68,7.47a82.18,82.18,0,0,1-7.51,14.1c3.19,5.12,6.65,10.31,8.11,16.24.17,9,.05,18,.06,27-2.62,0-5.25,0-7.87,0,0-9,0-18.06,0-27.08-1.33-2.73-3.33-5.12-4.92-7.72-1.64,2.51-3.36,5-5,7.46,0,9.12,0,18.24,0,27.35-2.78,0-5.55,0-8.32,0q0-12.7,0-25.41c0-2.3,1.06-4.4,2-6.45a103.26,103.26,0,0,1,6.75-11.43c-3.3-5.07-7-10.13-8.61-16C863.79,38,864,30.75,863.93,23.55Z" fill="#d5e14d"/><path d="M973,51.52H959.79V76.85H973Z" fill="#f79226"/><path d="M990.72,77.89A42.95,42.95,0,1,0,914.34,88a42.95,42.95,0,0,0,76.38-10.09ZM924.41,45.64h17.13c1.06,1,2,1.92,3.05,3v7h-5.06c0-1.35,0-2.71,0-4.06H927.37V76.85h12.16c0-1.35,0-2.71,0-4.06h5.06v7c-1.06,1.07-2,1.92-3,3H924.41l-2.91-2.86,0-31.34Zm26.26,5.88V45.63h25.24l2.94,2.89V79.84l-2.93,2.89H950.61c0-2,0-3.86.06-5.88h3V51.52Z" fill="#f79226"/><path d="M488.55,23.44c2.78,0,5.55,0,8.33,0,.06,24.27,0,48.54,0,72.81h9.38c0-24.28,0-48.54,0-72.81,2.82,0,5.63,0,8.45,0q0,34.89,0,69.78a21.79,21.79,0,0,1-.27,5,8.23,8.23,0,0,1-7.85,6.2c-3.36,0-6.72,0-10.07,0a8.5,8.5,0,0,1-8-8.51C488.52,71.78,488.57,47.61,488.55,23.44Z" fill="#f79226"/><path d="M535.93,23.44c5.78,0,11.56-.06,17.34,0,4.09.05,8.47,3.15,8.52,7.52q0,13.27,0,26.56c0,3.83-2.59,7.82-6.54,8.53,2.73,12.79,5.41,25.58,8.15,38.36h-7.85c-2.9-12.63-5.84-25.25-8.73-37.88h-2.88q0,18.94,0,37.89h-8Zm8.35,8q0,13.22,0,26.43c3.08,0,6.17,0,9.26,0,0-8.82,0-17.63,0-26.45Z" fill="#f79226"/><path d="M584.55,23.46c6.06,0,12.11-.07,18.17,0a7.67,7.67,0,0,1,7.59,7.06c0,8.55,0,17.1,0,25.65,0,2.37-1.68,4.25-3.34,5.73,1.61,1.35,3.17,3.09,3.32,5.29.25,3.48.09,7,.13,10.47,0,5.33.1,10.67-.11,16-.07,2.26.35,4.69-.78,6.77a7.63,7.63,0,0,1-6.77,4c-6.07,0-12.12,0-18.18,0C584.53,77.47,584.61,50.46,584.55,23.46Zm8.37,8q0,13.22,0,26.44h9.26c0-8.81,0-17.62,0-26.43C599.11,31.44,596,31.46,592.92,31.45Zm0,34.9c0,10,0,20.07,0,30.1h9.28c0-10,0-20.06,0-30.09C599.11,66.35,596,66.37,592.93,66.35Z" fill="#f79226"/><path d="M637.29,23.89c2.46-.71,5.05-.38,7.59-.45,2.78,0,5.8-.34,8.35,1.06s4.78,3.91,4.7,6.93q0,31.16,0,62.31c0,1.8.21,3.72-.62,5.4a9.06,9.06,0,0,1-6.92,5.31c-2.75.06-5.5,0-8.24,0a12.46,12.46,0,0,1-4.79-.48c-3.22-1.26-5.86-4.43-5.76-8q0-31.12,0-62.25c0-1.67-.16-3.43.54-5A8.93,8.93,0,0,1,637.29,23.89Zm3.13,7.68q0,32.21,0,64.42,4.47,0,8.94,0,0-32.22,0-64.42Z" fill="#f79226"/><polygon points="453.84 15.13 445.98 15.13 445.98 7 471.16 7 471.16 15.13 463.29 15.13 463.29 104.39 453.84 104.39 453.84 15.13" fill="#f79226"/></svg>