<svg id="Layer_1" data-name="Layer 1" xmlns="http://www.w3.org/2000/svg" viewBox="0 0 1000 113.99999"><title>logo</title><path d="M488.39628,107.86481q-3.312-.02051-6.62256-.01758l-11.06055.00879a12.3957,12.3957,0,0,1-11.36035-7.60352,13.48364,13.48364,0,0,1-.729-5.42773c.00488-.36035.01123-.71973.00439-1.0752l.001-22.46191q.00293-27.6731-.00586-55.34619A12.31773,12.31773,0,0,1,468.844,3.66119a3.5426,3.5426,0,0,1,.39991-.03857c1.07959-.0415,2.2539-.06055,3.69629-.06055.74316,0,1.48681.00489,2.23046.00977.72852.00488,1.457.00928,2.18555.00928q.92212,0,1.84522-.01319.47094-.04248.93945-.042A11.78582,11.78582,0,0,1,488.596,7.3111a11.91924,11.91924,0,0,1,3.3584,8.63476l-.00342,2.69238c-.00537,3.84278-.01074,7.68457.00781,11.52344a3.50018,3.50018,0,0,1-3.4668,3.5166c-1.32177.0127-2.64306.01563-3.96386.01563l-4.66163-.002a3.5,3.5,0,0,1-3.5-3.49024q-.00732-2.73413,0-5.46728.00368-2.7876-.00048-5.57471c-.36719.00049-2.09961,0-2.59912-.001q-.01831,13.74756-.01563,27.498a3.48119,3.48119,0,0,1,1.98731-.624l7.69824.00244q2.48364,0,4.96777-.01612h.02686a3.5,3.5,0,0,1,3.5,3.49561c.02246,17.99072.04589,36.57959-.01368,54.86182a3.5,3.5,0,0,1-3.5,3.48828ZM476.60722,92.95563q-.02857-10.49708-.01172-20.99219.00292-5.57373.00244-11.14844h-.85156a3.486,3.486,0,0,1-1.99365-.623q.00072,2.30859.001,4.61718.00366,14.07276.001,28.14453S476.35282,92.9566,476.60722,92.95563Z" fill="#f79226"/><path d="M480.141,7.02625a8.7028,8.7028,0,0,1,8.31323,8.8328c-.00457,4.77462-.01831,9.54915.00458,14.31919q-1.96005.01877-3.91785.0155-1.80881,0-3.6181-.00255-.528,0-1.05646.00078c-.01373-4.85245.02747-9.70021-.02282-14.55263q-2.2858.023-4.57105.02121-2.50022,0-5.001-.01664-.0618,40.40305-.01832,80.81062.79085-.00332,1.58124-.003c1.33631,0,2.67273.00507,4.00965.00507,1.42395,0,2.84881-.00576,4.2741-.02955-.05035-13.03736-.00915-26.07471-.02288-39.11206h-4.34882V49.53285q1.00113-.00218,2.002-.002,2.83054,0,5.66327.00427,2.50928,0,5.01966-.016.03432,27.42516-.01374,54.8457-3.30615-.02052-6.61218-.01778c-3.282,0-6.56354.00908-9.84564.00908q-.62174,0-1.24426-.00048l-.02161,0a8.8638,8.8638,0,0,1-8.08557-5.388c-.67749-1.68006-.44861-3.52026-.48065-5.2827q0-38.90609-.00458-77.81221a8.82277,8.82277,0,0,1,7.25567-8.75255c1.18525-.04555,2.371-.05817,3.55719-.05817,1.47321,0,2.9466.01946,4.42054.01946.68078,0,1.36206-.00415,2.0429-.0163a7.04264,7.04264,0,0,1,.74152-.039m.00067-7H480.141c-.37012,0-.7431.01482-1.11334.04416q-.83551.01242-1.67108.01114c-.72168,0-1.44318-.00482-2.16461-.00957-.75208-.005-1.504-.00987-2.25593-.00987-1.48657,0-2.70233.02011-3.826.06332a6.99362,6.99362,0,0,0-.80018.07694,15.90753,15.90753,0,0,0-13.18658,15.79742q.01466,27.71667.006,55.43211L455.12779,93.685q0,.06366.00116.12732c.00579.31723-.00025.63759-.00495.959a16.69082,16.69082,0,0,0,.98358,6.79237,15.96085,15.96085,0,0,0,14.58649,9.792l1.26581.00045q2.46644,0,4.93255-.00457,2.45655-.00339,4.91309-.00452,3.28455,0,6.56873.01765l.04358.00013a6.99993,6.99993,0,0,0,6.99981-6.9772c.05963-18.30112.03632-36.89529.0138-54.87726a7,7,0,0,0-6.99994-6.99123l-.0531.0002q-2.48328.01879-4.96668.01582L480.5872,42.533l-2.83869-.00214-.49688.00049q.00036-2.91944.0014-5.84366a6.97917,6.97917,0,0,0,2.61316.50426h.01135l1.04535-.00079,1.80194.00129,1.81616.00129q1.992,0,3.98481-.01586a7,7,0,0,0,6.933-7.03326c-.01819-3.79256-.013-7.66277-.008-11.40555l.0033-2.71893a15.43864,15.43864,0,0,0-4.3172-11.11541A15.29669,15.29669,0,0,0,480.1417.02623Z" fill="#fff"/><path d="M513.82987,107.96539c-1.06933,0-2.13867-.001-3.207-.00879a3.50014,3.50014,0,0,1-3.47558-3.50195q.01611-32.38623.00293-64.77441l-.00293-16.23535a3.50088,3.50088,0,0,1,3.5-3.50049l10.02832-.00782q3.41309,0,6.82422.02149l.085-.00049a12.76774,12.76774,0,0,1,11.50976,7.02148,9.94287,9.94287,0,0,1,.81641,4.67432c-.00195.22119-.00488.44141-.001.65918-.01172,4.83643-.01074,9.6001-.00879,14.36377q.00147,5.66529-.0039,11.33057c0,.05908-.002.11767-.00489.17675a12.37093,12.37093,0,0,1-5.92675,9.93213c2.32617,10.79,4.624,21.71289,6.85253,32.30469l.67383,3.20508a3.49959,3.49959,0,0,1-3.418,4.2207q-3.93164.00734-7.85253.00489a3.50045,3.50045,0,0,1-3.41114-2.7168q-2.31591-10.084-4.64746-20.1582.00147,9.75-.01367,19.50195a3.50088,3.50088,0,0,1-3.5,3.49219Zm8.44727-53.80615,2.38379-.00049q.00732-7.70727.00195-15.415V34.83649h-2.38574Z" fill="#f79226"/><path d="M520.689,23.43681q3.39341,0,6.78583.02132.05566-.00066.11133-.00066a9.22152,9.22152,0,0,1,8.35284,5.03611,8.77465,8.77465,0,0,1,.47156,3.88191c-.02289,8.54207,0,17.08412-.01379,25.62614-.18762,3.621-2.75122,7.31061-6.482,7.93775,2.76947,12.79017,5.45661,25.59864,8.1529,38.40712q-3.92762.00687-7.84619.00458-4.36716-19.0136-8.76636-38.00886-1.40085.01376-2.79242.0183c-.00916,12.7032.01373,25.40639-.01373,38.10959q-1.3365-.00689-2.67267-.00561-1.06467,0-2.12867.00064-1.60078,0-3.20007-.00878.01988-40.506-.00049-81.012.58833.00048,1.17652.00046c2.9544,0,5.91015-.008,8.86541-.008m.213,34.22289q1.89495,0,3.79-.001,1.73235,0,3.46484.00427.02059-13.16329.00458-26.32657h-9.38434v26.322q1.06255.00155,2.12488.00137m-.213-41.22287q-2.22133,0-4.44281.004-2.21154.003-4.4226.004l-1.1706-.00047h-.006a7,7,0,0,0-6.99994,7.00119l.00263,13.7522q.00659,33.6276-.00214,67.25514a7,7,0,0,0,6.95184,7.00328q1.62286.01116,3.24823.00894l1.0672-.00033,1.06147-.00031q1.31826,0,2.63665.00553l.036.0001a7.00049,7.00049,0,0,0,5.82641-3.12014,7.00044,7.00044,0,0,0,5.7461,3.0011q3.927,0,7.85845-.00458a7,7,0,0,0,6.83759-8.442l-.77924-3.70259c-2.03955-9.69178-4.13812-19.66412-6.26312-29.55555a15.89216,15.89216,0,0,0,5.51221-11.28256q.00906-.17531.0094-.35089.00915-5.70758.0039-11.41522-.0021-7.10171.00989-14.20348.00018-.07233-.00116-.14467c-.00335-.18727-.001-.37669.00061-.56694a13.33021,13.33021,0,0,0-1.15777-6.21376,16.10958,16.10958,0,0,0-14.66608-9.0114l-.09784.00058q-3.39881-.02478-6.79932-.02122Z" fill="#fff"/><path d="M558.1453,107.85114a3.49926,3.49926,0,0,1-3.5-3.501V74.68805q-.00292-21.86426.00489-43.729a11.07416,11.07416,0,0,1,10.16308-10.88233c.03809-.002.07617-.00293.11426-.00342,1.31738-.01855,2.63379-.02295,3.95215-.02295l4.27832.00538q1.40772,0,2.81543-.01075l.2041-.00146a11.5461,11.5461,0,0,1,7.35059,2.46,10.88463,10.88463,0,0,1,3.86718,8.46533c-.00293,16.30127,0,73.38233,0,73.38233a3.50049,3.50049,0,0,1-3.5,3.5h-7.89648a3.50028,3.50028,0,0,1-3.5-3.499s0-28.7959-.00293-34.95508c0,0-2.40625.001-2.835.001q-.00879,7.76806-.00391,15.53613.00147,9.71485-.00976,19.42871a3.5009,3.5009,0,0,1-3.5,3.49317Zm14.125-53.58008V48.2818q.00147-6.49438-.0039-12.98779l-2.37793-.001q0,3.27246-.00293,6.54541-.00587,6.21606.0039,12.43213c.292-.00049.583-.00049.875-.00049Z" fill="#f79226"/><path d="M576.17832,23.54361a8.04158,8.04158,0,0,1,5.126,1.66316,7.39953,7.39953,0,0,1,2.591,5.75423q-.00686,36.69507,0,73.39008h-7.8966q-.00687-19.22646-.00458-38.45748-2.46039.00345-4.91962.00459-2.45526,0-4.90875-.00914c-.02289,12.82219.00458,25.64439-.01831,38.46661q-2.00161-.00687-4.00092-.00573-1.99987,0-4.00091.00115.00687-36.695.00458-73.39008a7.55055,7.55055,0,0,1,6.82531-7.38841c1.29657-.01778,2.59308-.02243,3.88965-.02243,1.43274,0,2.86548.00569,4.29828.00569q1.4198,0,2.83984-.01075.08743-.00149.175-.00149m-3.86511,8.25023q-1.90256,0-3.80548-.00107-1.06092,0-2.12225.00136c.01373,8.66565-.02747,17.33131.01831,25.997,1.45849-.01711,2.91687-.02123,4.37536-.02123,1.35486,0,2.70954.00356,4.0644.00356q.463,0,.92627-.00064c-.00458-8.66108.00915-17.32213-.00916-25.98316q-1.72467.005-3.44745.00423m3.86511-15.25023q-.13184,0-.26336.002-1.37568.01179-2.75153.01024l-2.13525-.00284-2.163-.00286c-1.32855,0-2.657.00489-3.98547.02308q-.11454.00156-.229.00687a14.4731,14.4731,0,0,0-13.50042,14.34616q-.01254,22.07447-.005,44.08731.00165,14.66813.00037,29.33619a7,7,0,0,0,7,7.00131l2.00427-.00059,1.99664-.00055q1.98789,0,3.97687.0057l.024,0a6.99991,6.99991,0,0,0,4.928-2.02855,6.97791,6.97791,0,0,0,4.92334,2.024h7.8966a7,7,0,0,0,7-7l-.001-24.46378q-.00147-24.46246.001-48.925a14.425,14.425,0,0,0-5.17-11.1828,15.05049,15.05049,0,0,0-9.547-3.23589Z" fill="#fff"/><path d="M604.0369,107.85114a3.49926,3.49926,0,0,1-3.5-3.501c.00293-16.40918,0-73.83789,0-73.83789a10.626,10.626,0,0,1,10.18067-10.45313c1.40332-.00586,2.76562-.00781,4.12891-.00781l6.99609.00537,2.45117-.00244a3.49922,3.49922,0,0,1,3.5,3.5v7.21a3.50089,3.50089,0,0,1-3.5,3.5c-.00293,0-8.0293.001-8.624-.00049q-.02344,7.49708-.00586,14.99317.00146,2.5642.0039,5.12939c.44922,0,6.45118.001,6.45118.001a3.50017,3.50017,0,0,1,3.5,3.5l-.001,2.25488c-.002,1.91113-.00391,3.82227.00586,5.7334a3.501,3.501,0,0,1-3.48926,3.51758q-2.10937.00585-4.2168.00586l-2.25293-.002q-.00732,9.78516-.002,19.57129v15.38379a3.50028,3.50028,0,0,1-3.5,3.499Z" fill="#f79226"/><path d="M614.89176,23.5515q3.48725,0,6.97419.005,1.21325,0,2.42779-.00224v7.20988q-.97219-.00219-1.94415-.002-2.46213,0-4.92316.00339-2.621,0-5.24078-.0197c-.05036,9.05017-.0138,18.09576-.01831,27.14592q2.48208-.00684,4.96673-.00571,2.49189,0,4.98523.00116c0,2.66881-.00915,5.33759.00458,8.00638q-2.10416.00582-4.20813.0053-2.87412,0-5.74841-.0053-.02061,19.22646-.00458,38.45748h-8.12549q.00687-36.92158,0-73.83869a7.186,7.186,0,0,1,6.73383-6.95357q2.06121-.00836,4.12066-.00732m0-7q-2.07458,0-4.14911.00738l-.07843.00075a14.18174,14.18174,0,0,0-13.6267,13.89867l-.00025.05409.001,24.61063q.00147,24.612-.001,49.22675a7.00006,7.00006,0,0,0,7,7.00131h8.12549a7,7,0,0,0,7-6.9975q.00274-7.69483-.00037-15.39128-.00174-8.03178-.00006-16.06379,1.49039-.001,2.98084-.00493a7,7,0,0,0,6.98059-7.036c-.00971-1.89132-.00781-3.78266-.00592-5.674l.00146-2.29639a7,7,0,0,0-7-7l-2.49066-.00056-.46381-.00011q-.00072-.85847-.00158-1.71713c-.0036-3.74777-.00727-7.575-.00135-11.40506l.73292-.00051,2.45477-.00169,1.92822.002h.01593a7,7,0,0,0,7-7V23.55428a7,7,0,0,0-6.99994-7l-.01422,0-2.41363.00221-3.4798-.0025-3.49439-.00252Z" fill="#fff"/><path d="M652.71073,107.984c-1.13965-.01758-2.27832-.02149-3.417-.02149l-4.87109.00293a3.50052,3.50052,0,0,1-3.48731-3.498l.001-9.94141q.00293-7.73145-.00488-15.46094a16.46034,16.46034,0,0,1,1.96093-7.17969s.35645-.78613.37793-.83105a100.96318,100.96318,0,0,1,5.68946-9.877c-3.05957-4.62647-6.22168-9.41016-7.79688-15.09522a3.46861,3.46861,0,0,1-.125-.81885c-.14844-4.5-.126-9.05029-.10351-13.45068.01367-2.74219.02734-5.48437.001-8.22461a3.50107,3.50107,0,0,1,3.5-3.53369h8.46875a3.49984,3.49984,0,0,1,3.5,3.47607c.01953,2.873.00879,5.748-.00195,8.62256-.01563,4.21534-.03223,8.564.05371,12.83643.373.59424.76172,1.18555,1.16309,1.78418.35644-.53125.69824-1.05811,1.01562-1.58887.06738-4.63379.05371-9.34619.04-13.91308-.00781-2.57227-.01562-5.145-.00977-7.71631a3.50026,3.50026,0,0,1,3.4834-3.4917q2.28809-.011,4.57617-.01221,1.97461,0,3.95118.01221a3.49992,3.49992,0,0,1,3.47656,3.51758c-.01758,3.51025-.01465,7.02-.01074,10.53027l.002,5.59082c-.00684.519-.001.99853.00488,1.479a18.73612,18.73612,0,0,1-.92773,7.25293,75.493,75.493,0,0,1-6.64942,12.82227c2.9668,4.74316,5.97071,9.665,7.39161,15.41113a3.49936,3.49936,0,0,1,.10156.77344c.11719,6.15527.0957,12.40234.07519,18.44336q-.01464,4.29345-.01464,8.58594a3.50089,3.50089,0,0,1-3.5,3.50488h-.02442q-1.72705-.01172-3.45215-.00977H662.74a3.50052,3.50052,0,0,1-3.49316-3.48925q-.01612-5.23829.001-10.47657c.00879-5.166.01758-10.498-.03027-15.749-.418-.76953-.90332-1.53223-1.42481-2.30664q-.75879,1.11768-1.51171,2.24023-.00147,3.91552.00585,7.83008c.00782,6.05859.01563,12.32324-.02441,18.49219a3.50057,3.50057,0,0,1-3.5,3.47754Z" fill="#f79226"/><path d="M666.70786,23.55135q1.97205,0,3.94446.01207c-.02746,5.37876-.00458,10.75762-.00915,16.13645-.03205,2.49949.238,5.08126-.68665,7.47085A81.29,81.29,0,0,1,662.449,61.26558c3.19068,5.127,6.65143,10.31816,8.11628,16.24174.16943,8.9815.04577,17.98134.05957,26.96734q-1.70537-.01188-3.40869-.00984-1.603,0-3.20612.0017-.63144,0-1.26349-.001c-.02747-9.02722.05493-18.0545-.03662-27.07722-1.32758-2.73292-3.328-5.1225-4.92108-7.71809-1.6388,2.50862-3.36005,4.95773-5.008,7.45717-.00464,9.11878.0412,18.23761-.01831,27.35645-1.15973-.01719-2.3186-.02163-3.47705-.02163-1.23669,0-2.47259.00505-3.70868.00505q-.57047,0-1.14117-.00173c-.00458-8.46875.00915-16.93756-.00458-25.40638-.03662-2.298,1.062-4.39917,1.973-6.44542a102.77,102.77,0,0,1,6.74756-11.43515c-3.30511-5.06755-6.98108-10.13055-8.61529-16.03125-.238-7.187-.032-14.39688-.10065-21.593h8.46881c.05035,7.48455-.10529,14.97833.07318,22.45829,1.43744,2.39876,3.11285,4.65554,4.61438,7.02224,1.474-2.31637,3.19983-4.48159,4.52741-6.88949.12817-7.52125.02746-15.05616.04571-22.5819q2.27151-.011,4.54266-.01207m0-7q-2.28844,0-4.57653.01216A6.97465,6.97465,0,0,0,657.54,18.309a6.97372,6.97372,0,0,0-4.6355-1.75471h-8.46881a7,7,0,0,0-6.9997,7.0668c.02576,2.69935.01178,5.47189-.00171,8.15311-.0224,4.44006-.04559,9.03128.1059,13.60481a6.99877,6.99877,0,0,0,.25006,1.63669c1.49133,5.38476,4.29071,10.03979,7.00226,14.19615-1.78625,2.87077-3.3233,5.60676-4.65521,8.283q-.06693.13454-.12812.27186c-.09948.2235-.20147.44769-.30377.67283a19.95944,19.95944,0,0,0-2.27429,8.67118q.01227,7.59365.00488,15.187-.00163,5.08584-.00036,10.17164a7,7,0,0,0,6.977,6.99619l1.16418.00175,1.86817-.00255,1.84051-.0025c1.1239,0,2.24817.00419,3.37323.02086.03467.00052.06946.00077.104.00077a6.99966,6.99966,0,0,0,4.89643-1.99769q.05272-.05163.10437-.10436a6.97938,6.97938,0,0,0,4.971,2.08375l1.27551.001,1.60889-.00086,1.59723-.00083q1.67953,0,3.35992.00966l.04883.00017a7,7,0,0,0,6.99994-7.01072q-.0066-4.28542.01477-8.574c.02026-6.058.04126-12.32234-.07556-18.51467a7.0015,7.0015,0,0,0-.2035-1.54837c-1.35437-5.47691-4.03534-10.28112-6.68084-14.58854a71.61563,71.61563,0,0,0,5.82-11.58026,21.97246,21.97246,0,0,0,1.1482-8.51883c-.00519-.45153-.011-.90206-.00531-1.34964l.00055-.08386q.00247-2.85222-.002-5.70444c-.00329-3.46742-.00665-6.93482.01111-10.40219a7.00008,7.00008,0,0,0-6.95471-7.03562q-1.99465-.01288-3.98969-.01222Z" fill="#fff"/><rect x="736.79569" y="48.02399" width="20.16795" height="32.32129" rx="3.5" fill="#f79226"/><path d="M753.46342,51.52417V76.84541H740.29606V51.52417h13.16736m0-7H740.29606a7,7,0,0,0-7,7V76.84541a7,7,0,0,0,7,7h13.16736a7,7,0,0,0,7-7V51.52417a7,7,0,0,0-7-7Z" fill="#fff"/><path d="M730.25565,110.49274l-.32812.002a46.05942,46.05942,0,0,1-37.99512-20.5918,46.43675,46.43675,0,0,1,31.209-71.64941,45.30434,45.30434,0,0,1,7.37793-.60108,46.454,46.454,0,0,1,28.03222,83.522,45.93276,45.93276,0,0,1-27.499,9.32617S730.5203,110.49762,730.25565,110.49274ZM754.99589,79.231l.8623-.85059v-28.397l-.86914-.854H736.77226a3.49058,3.49058,0,0,1,.94726,2.395V76.84625a3.48735,3.48735,0,0,1-.93847,2.38477Z" fill="#f79226"/><path d="M730.52061,21.15248a42.955,42.955,0,0,1,25.92248,77.22929A42.51211,42.51211,0,0,1,731.054,107c-.25708,0-.515-.00251-.77215-.00754-.1189.00108-.23639.00162-.35523.00162A42.91792,42.91792,0,0,1,723.667,21.714a41.82842,41.82842,0,0,1,6.85358-.56151m.65979,30.37212h3.03869V76.84583H731.1804c-.01,2.02564-.07276,3.859-.06311,5.88469h25.3139l2.927-2.88672V48.51569l-2.93707-2.88631H731.1804V51.5246M704.91709,82.73052h17.15454c1.05335-1.06341,1.96845-1.91442,3.03186-2.97783V72.79408h-5.06433c-.01007,1.34722-.01007,2.70408,0,4.05133H707.88481V51.52415h12.15435c-.01007,1.34726-.01007,2.70406,0,4.05129h5.06433V48.61682c-1.06341-1.06294-1.99633-1.93408-3.04968-2.98744l-17.13672.00967-2.927,2.88713.02014,31.34829,2.90686,2.856m25.60352-68.578a48.97018,48.97018,0,0,0-7.95313.64825A49.93716,49.93716,0,0,0,689.03721,91.8699a49.59539,49.59539,0,0,0,40.8894,22.12415l.3031-.00137c.2746.00487.54987.00731.82422.00731a49.45855,49.45855,0,0,0,29.60956-10.03358A49.94828,49.94828,0,0,0,730.52061,14.1525Zm10.69848,38.47688h11.1391V75.73052h-11.1391V52.62938Z" fill="#fff"/><path d="M281.6204,107.9693q-2.28369,0-4.56592-.0127a11.46735,11.46735,0,0,1-8.1123-3.65039,11.91257,11.91257,0,0,1-3.35694-8.39257q-.052-22.79-.02392-45.58155.00439-13.44507.001-26.89013a3.5,3.5,0,0,1,3.48828-3.502l4.71826.001c1.19238,0,2.38525-.00342,3.5791-.019l.0459-.00049a3.50068,3.50068,0,0,1,3.5,3.49219q.0498,21.988.02246,43.97851-.00439,12.66651-.00195,25.333H283.303q.00585-12.08643-.00244-24.1709c-.00586-14.79541-.01172-30.09473.02783-45.14648a3.50048,3.50048,0,0,1,3.5-3.49073c.021,0,.0415,0,.0625.00049,1.09766.01953,2.19433.02344,3.291.02344l2.36475-.002c.92725,0,1.85449.00293,2.78223.01513a3.50016,3.50016,0,0,1,3.45459,3.5044q-.03223,23.324-.01514,46.64843l.00147,23.126c-.00831.46582-.00245.86817.00341,1.27149a17.2836,17.2836,0,0,1-.38086,4.62207,11.69572,11.69572,0,0,1-11.21582,8.83886Z" fill="#f79226"/><path d="M286.82835,23.41693c1.11819.02,2.23541.02409,3.35275.02409.78922,0,1.57822-.00206,2.36749-.00206.9112,0,1.823.00275,2.73484.01461q-.04808,34.88907-.01374,69.77824a22.04912,22.04912,0,0,1-.27008,5.03548,8.21393,8.21393,0,0,1-7.823,6.19827l-.0278-.00005q-2.747,0-5.4964.00409-2.28776,0-4.57458-.01323a8.4825,8.4825,0,0,1-7.99274-8.50539c-.05493-24.17039-.00915-48.34081-.02289-72.51116q.66779-.00221,1.33521-.002c1.12936,0,2.25809.00339,3.387.00339,1.20264,0,2.40558-.00385,3.60923-.0197.05493,24.26648.00457,48.53761.02288,72.80414h9.38434c.01831-24.27111-.03662-48.53766.02747-72.80872m-.00012-7a7.00011,7.00011,0,0,0-4.71973,1.83058,6.99975,6.99975,0,0,0-4.71472-1.826l-.09235.00061c-1.17288.01544-2.34509.01909-3.517.01909l-1.68274-.0017-1.70431-.00169-1.35834.002a7,7,0,0,0-6.97687,7.00394q.00765,13.46063-.0011,26.92128c-.00518,14.91732-.01055,30.34152.02384,45.51826a15.44018,15.44018,0,0,0,4.32788,10.84245,14.91977,14.91977,0,0,0,10.53348,4.72937l.0838.001q2.31006.01577,4.62231.01339l2.75693-.002,2.73947-.002a15.30315,15.30315,0,0,0,14.65869-11.56807,20.60917,20.60917,0,0,0,.46521-5.44168c-.00494-.36456-.01117-.72844-.00424-1.09q.00124-.0663.00125-.13255.0023-11.62326-.00152-23.24653c-.003-15.24915-.00614-31.01747.01526-46.52344a7,7,0,0,0-6.90894-7.00906c-.94223-.01226-1.88437-.0152-2.8259-.0152l-1.193.00105-1.17444.001c-1.07571,0-2.15124-.00378-3.22778-.023-.04166-.00073-.08353-.00111-.12512-.00111Z" fill="#fff"/><path d="M336.05741,107.96539a3.49961,3.49961,0,0,1-3.41113-2.71679q-2.05884-8.97217-4.13574-17.9375-.27906-1.2085-.5586-2.417.00147,9.78809-.0039,19.57422a3.49986,3.49986,0,0,1-3.5,3.49707h-8.00635a3.50017,3.50017,0,0,1-3.5-3.5V23.44a3.50005,3.50005,0,0,1,3.5-3.5c.00635,0,1.80518.00684,2.69873.00684,1.31055,0,6.56836-.01563,7.88672-.01563,2.27441,0,4.54883.01172,6.82129.05469,5.71094.07715,11.88721,4.51074,11.94824,10.98828q.02051,13.32569,0,26.60254A12.5672,12.5672,0,0,1,339.80546,68.275q1.52417,7.16016,3.0376,14.32129,2.23755,10.56738,4.4917,21.13086a3.50056,3.50056,0,0,1-3.40918,4.2334q-1.96875.00732-3.93653.00586Zm-7.76172-53.5791s2.01954-.001,2.26856-.00049q.00952-6.75732.00244-13.51513l-.00049-5.91895-2.272-.00049C328.29618,38.78424,328.29569,54.38629,328.29569,54.38629Z" fill="#f79226"/><path d="M327.01737,23.43123c2.25556,0,4.51084.01152,6.76471.05438,4.09247.05492,8.47339,3.154,8.51459,7.52116q.0206,13.28,0,26.56458c-.032,3.83153-2.591,7.82332-6.53241,8.53284,2.72833,12.78558,5.41089,25.57575,8.14832,38.35675q-1.967.00687-3.93366.00572-1.9607,0-3.92169-.00114c-2.89771-12.62994-5.83661-25.24616-8.72974-37.87611-.95672-.00458-1.91809-.00458-2.87481-.00913q-.00687,18.94491-.00458,37.88524h-8.00647V23.43983q1.36248.00756,2.72479.0069c2.616,0,5.23407-.0155,7.851-.0155m4.946,8.02095q-1.8744,0-3.7475-.00107-1.7124,0-3.4245.00427.01374,13.21821.00458,26.43184.56465.00083,1.129.00077,1.95391,0,3.9086-.00258,2.11042,0,4.22317.01553c.02289-8.81673.00458-17.63342.00916-26.45013q-1.05166.00155-2.10248.00137m-4.946-15.02094q-1.97315,0-3.9468.00779-1.95241.00575-3.90415.00769-1.34363,0-2.686-.00678l-.03879-.00011a7,7,0,0,0-7,7v81.02569a7,7,0,0,0,7,7h8.00647a6.99294,6.99294,0,0,0,5.80459-3.08635,7.0009,7.0009,0,0,0,5.80454,3.08635l1.95779.00056,1.9639.00058q1.97919,0,3.95813-.00578a7,7,0,0,0,6.82031-8.46594q-2.25072-10.50846-4.4685-21.02292-1.29255-6.10439-2.58853-12.2092a16.25107,16.25107,0,0,0,5.59607-12.133c.01394-8.86833.01394-17.81325.00027-26.63394l-.0003-.05516c-.083-8.80148-8.069-14.35587-15.42038-14.4545-1.95646-.03734-4.14829-.055-6.85862-.055Z" fill="#fff"/><path d="M365.09843,107.97906a3.50083,3.50083,0,0,1-3.5-3.49316q-.04174-20.2998-.01856-40.59961.00734-20.21192-.01806-40.4209a3.50007,3.50007,0,0,1,3.49218-3.50732l3.92237-.01221q3.249-.01171,6.49756-.01562c2.60058,0,5.20068.01123,7.80029.04687a11.18292,11.18292,0,0,1,11.04443,10.43945c.001.0376.002.07569.002.11377q.0205,7.53737.00879,15.07862-.00221,5.28809.00048,10.57617a9.29753,9.29753,0,0,1-2.01953,5.70312,9.36831,9.36831,0,0,1,1.99268,5.07911c.17334,2.44043.15674,4.86816.14111,7.21484-.00732,1.15137-.01562,2.30273-.00049,3.45312-.01318,1.86622-.00634,3.65918.00049,5.45313.01367,3.50781.02783,7.13379-.11719,10.7373-.01464.459-.00293.95313.00684,1.44922a13.22587,13.22587,0,0,1-1.17188,6.78614,11.0491,11.0491,0,0,1-9.85644,5.90429l-11.688-.00293q-3.2483,0-6.49805.0166Zm14.10644-15.02343q-.00585-7.31544-.001-14.62891l.00049-8.4707s-2.11866.001-2.26709,0q-.01173,7.9702-.00391,15.94238l.00049,7.15625Zm-.00048-38.56739V48.29547q-.00147-6.67383.00293-13.34521c-.15967,0-2.27344.00048-2.27344.00048s-.00147,14.05079.002,19.43653Z" fill="#f79226"/><path d="M375.4846,23.43031c2.58093,0,5.16186.011,7.74151.04615l.01661,0a7.67528,7.67528,0,0,1,7.57782,7.0634c.02288,8.54665,0,17.09778.00915,25.649.02289,2.37586-1.67548,4.25275-3.34174,5.73589,1.61133,1.34125,3.17237,3.08539,3.32343,5.28272.24719,3.48364.087,6.981.13275,10.47384-.0412,5.33305.10071,10.67064-.11444,16.00372-.07324,2.266.3479,4.69219-.78278,6.77958a7.60165,7.60165,0,0,1-6.77044,4.001q-1.5759.00357-3.15051.00325-4.25674,0-8.51279-.00636-3.25666,0-6.51486.01686c-.05494-27.00862.01831-54.01722-.03662-81.02121,3.4747-.00787,6.949-.0278,10.42291-.0278m-.56766,8.02149q-.74112,0-1.48257-.001,0,13.21815.00457,26.441,1.71236-.00507,3.42286-.00427,1.87152,0,3.743.00107,1.04928,0,2.09942-.00137c.00458-8.81215-.00915-17.61971.0091-26.42725q-2.01041-.01189-4.0185-.00986-1.88864,0-3.77792.0017m-1.48257,65.00274q.72024-.00106,1.44033-.001,2.26974,0,4.541.00269,1.647,0,3.29309-.00629-.0206-15.05152-.00458-30.094-.742-.00111-1.48431-.001-1.88452,0-3.77.00169-2.00362,0-4.00653-.00983c-.02283,10.03441-.00458,20.07335-.00909,30.10772m2.05023-80.02423q-3.25717,0-6.51486.01551-1.9619.007-3.92389.01233a6.99994,6.99994,0,0,0-6.98413,7.01422c.02743,13.49359.02276,27.21875.01831,40.492-.00455,13.28214-.00919,27.0165.01831,40.5292a6.99995,6.99995,0,0,0,6.99984,6.98573l.04248-.00012q3.23658-.01959,6.47248-.01672l4.24829.00316,4.26453.0032q1.58358,0,3.16644-.00328a14.59373,14.59373,0,0,0,12.98547-7.80934,16.634,16.634,0,0,0,1.555-8.45024c-.00933-.46931-.01825-.9131-.0075-1.273.147-3.66855.13275-7.3217.11889-10.85478-.007-1.78122-.0141-3.56228-.00036-5.34286q.00063-.07287-.00037-.1458c-.01446-1.1037-.00708-2.21.00079-3.38131.01618-2.41475.0329-4.91172-.15051-7.49625a12.275,12.275,0,0,0-1.36712-4.8267,12.251,12.251,0,0,0,1.403-5.72462q-.00558-5.26449-.00037-10.52849.00357-7.557-.00872-15.11108-.00038-.114-.00434-.22789A14.58131,14.58131,0,0,0,383.275,16.47646c-2.32995-.03148-4.807-.04615-7.7904-.04615Zm4.94977,15.02051h0Z" fill="#fff"/><path d="M421.116,107.97906a11.65438,11.65438,0,0,1-4.57764-.74707,12.25259,12.25259,0,0,1-7.92676-11.28222l.00049-2.0752q.00659-30.05712-.00049-60.12451c.00342-.32275-.00049-.60889-.00342-.89648a12.65893,12.65893,0,0,1,.84278-5.53467,12.48336,12.48336,0,0,1,7.17871-6.7251c.06543-.02344.13183-.04443.19873-.064a18.45857,18.45857,0,0,1,5.17676-.60645c.44482,0,.89013.00684,1.33545.01367.40771.00684.81591.01319,1.22265.01319.24365,0,.48682-.00245.72949-.00879.03125-.001.53077.00439.71631.00439.34082,0,1.78565-.01855,2.16455-.01855a14.44458,14.44458,0,0,1,7.25293,1.50976c3.21045,1.70313,6.64649,5.26807,6.51465,10.08643q-.011,29.90991.001,60.00732l.00049,2.20313c-.00635.39551-.00147.73144.00293,1.06836a12.28353,12.28353,0,0,1-.98975,5.89355,12.43359,12.43359,0,0,1-9.71924,7.23438c-.085.00879-.17041.01367-.25586.01562-.897.02149-1.79443.02735-2.6914.02735-.65528,0-3.25049-.01368-3.89258-.01368q-.843,0-1.686.01075Zm5.2417-15.48046c-.00342-11.1084-.00293-57.4336-.00293-57.4336h-1.92627s0,46.417-.00342,57.4336Z" fill="#f79226"/><path d="M422.00456,23.42348c.85168,0,1.706.02661,2.55548.02661.27618,0,.552-.00281.8269-.01027q.3111.00613.62567.00566c.71241,0,1.43579-.01823,2.1593-.01823a11.243,11.243,0,0,1,5.56482,1.07457c2.53608,1.34584,4.78827,3.90939,4.70588,6.92611q-.01374,31.15375,0,62.30741c-.03205,1.80822.21057,3.72625-.62256,5.40631a9.05211,9.05211,0,0,1-6.92151,5.30555c-.868.02026-1.736.02634-2.60388.02634-1.30487,0-2.60926-.01375-3.913-.01375q-.8593,0-1.7185.0103c-.07239-.00062-.14466-.00087-.21729-.00087-.44122,0-.88641.0098-1.33136.0098a8.44091,8.44091,0,0,1-3.24878-.485c-3.21356-1.26341-5.85949-4.43119-5.75421-7.99724q.00687-31.11944,0-62.24793c.01831-1.67091-.16479-3.4333.53558-5.00346a8.94016,8.94016,0,0,1,5.15-4.85237,15.07019,15.07019,0,0,1,4.20746-.46953m3.38525,72.57557q2.23425,0,4.46954-.00687-.01373-32.21805-.00457-64.42695h-8.92652q-.00687,32.21121-.00458,64.427,2.2317.00688,4.46613.00687m-3.385-79.57559h-.00024a21.68941,21.68941,0,0,0-6.14527.74314q-.20087.05787-.398.12764a15.85566,15.85566,0,0,0-9.23,8.65153,16.0875,16.0875,0,0,0-1.12292,6.94568c.00293.26184.00647.52258.00366.7807l-.00043.07977q.01374,31.08222,0,62.16005c-.12591,6.17753,4.03052,12.15411,10.151,14.58007a15.10069,15.10069,0,0,0,5.852.987c.24872,0,.4975-.00261.74579-.00533.19574-.00217.39111-.00447.58557-.00447l.1582.00064.05957.00024.0929-.00061q.81216-.01082,1.62512-.00969c.63947,0,1.27906.00341,1.9187.00678.66462.0035,1.32941.007,1.99427.007.9223,0,1.84466-.00672,2.76715-.02825q.25736-.006.51367-.03089a15.96908,15.96908,0,0,0,12.53906-9.21,15.68,15.68,0,0,0,1.33063-7.44774c-.00391-.3012-.00891-.60106-.00366-.89728q.0011-.06284.0011-.12564-.00687-31.11331-.00007-62.22726c.09882-5.31248-3.10156-10.34352-8.37793-13.16321a17.91027,17.91027,0,0,0-8.89276-1.91609c-.39264,0-.78534.00478-1.17651.00975-.32928.00417-.65729.0085-.98279.0085-.16339,0-.32611-.00113-.48785-.0043q-.069-.00135-.13812-.00136-.09457,0-.18915.00255c-.21186.00575-.4245.00772-.63739.00772-.38831,0-.77777-.00635-1.16748-.01244-.46265-.00721-.92554-.01417-1.38776-.01419Z" fill="#fff"/><path d="M234.3538,107.89117a3.50017,3.50017,0,0,1-3.5-3.5V18.62555h-4.36426a3.49987,3.49987,0,0,1-3.5-3.5V7.00006a3.49987,3.49987,0,0,1,3.5-3.5h25.17725a3.49987,3.49987,0,0,1,3.5,3.5v8.12549a3.49987,3.49987,0,0,1-3.5,3.5h-4.36426v85.76562a3.50017,3.50017,0,0,1-3.5,3.5Z" fill="#f79226"/><path d="M251.66685,7v8.1255h-7.86456v89.26561h-9.44843V15.1255h-7.8645V7h25.17749m0-7H226.48936a7,7,0,0,0-7,7v8.1255a7,7,0,0,0,7,7h.8645v82.26561a7,7,0,0,0,7,7h9.44843a7,7,0,0,0,7-7V22.1255h.86456a7,7,0,0,0,7-7V7a7,7,0,0,0-7-7Z" fill="#fff"/><path d="M462.12319,15.87282a8.82283,8.82283,0,0,1,7.25569-8.75261c3.33715-.12818,6.67891.00458,10.02065-.05493,4.81119-.50813,9.3111,4.033,9.05475,8.79381-.00458,4.77457-.0183,9.54914.00458,14.31912-2.86566.02747-5.72674.00916-8.5924.01374-.01374-4.85239.02747-9.7002-.02288-14.55259-3.19066.032-6.38135.02288-9.572.00457q-.06181,40.403-.0183,80.8106c3.2868-.01374,6.57361.02746,9.865-.02747-.05035-13.03736-.00916-26.07472-.02288-39.11209h-4.34884V49.53284c4.22523-.00916,8.455.01831,12.68489-.01373q.03432,27.42515-.01375,54.84573c-5.90069-.03663-11.80139-.00458-17.70206-.00916a8.86328,8.86328,0,0,1-8.10716-5.388c-.67749-1.68-.44861-3.52027-.48066-5.28269Q462.12777,54.77891,462.12319,15.87282Z" fill="#d5e14d"/><path d="M510.64709,23.44438c5.60771.00458,11.22-.02747,16.82772.01373a9.23158,9.23158,0,0,1,8.46421,5.0355,8.77489,8.77489,0,0,1,.47152,3.88191c-.02288,8.542,0,17.08407-.01375,25.6261-.18767,3.621-2.75121,7.31063-6.482,7.93778,2.76952,12.79017,5.45664,25.59864,8.15293,38.40712q-3.92768.00687-7.84623.00458-4.36714-19.0136-8.76636-38.00886-1.40076.01374-2.7924.01831c-.00916,12.70319.01375,25.40638-.01375,38.10957-2.66882-.01374-5.33761.00457-8.00141-.01374Q510.66748,63.95039,510.64709,23.44438Zm8.13,7.892V57.6583c3.1266.00458,6.25316-.00457,9.37976.00458q.02063-13.16325.00458-26.3265Z" fill="#d5e14d"/><path d="M558.15016,30.961a7.55067,7.55067,0,0,1,6.82537-7.38845c3.67593-.05036,7.35183.00457,11.02776-.02747a8.1066,8.1066,0,0,1,5.301,1.66171,7.39935,7.39935,0,0,1,2.591,5.75421q-.00687,36.695,0,73.39009h-7.89657q-.00689-19.22645-.00459-38.45747c-3.27764.00457-6.5553.00915-9.82836-.00458-.02288,12.82221.00458,25.64442-.0183,38.46663-2.66882-.00916-5.33306-.00458-8.00186-.00458Q558.15244,67.65606,558.15016,30.961Zm8.23532.83314c.01375,8.66564-.02746,17.33127.0183,25.99691,3.122-.03662,6.244-.01373,9.366-.01831-.00458-8.66105.00916-17.32211-.00917-25.98317C572.63409,31.79873,569.51208,31.78957,566.38548,31.79415Z" fill="#d5e14d"/><path d="M604.03728,30.51239a7.186,7.186,0,0,1,6.73384-6.95357c4.50905-.01831,9.01354.00458,13.52259-.00458v7.20992c-4.03756-.00915-8.07511.01831-12.10809-.01831-.05035,9.05016-.01374,18.09575-.0183,27.14591,3.31427-.00915,6.63312-.00457,9.952-.00457,0,2.66881-.00916,5.33763.00458,8.00644q-4.97828.01374-9.95655,0-.02063,19.22646-.00458,38.45747h-8.12546Q604.04415,67.42946,604.03728,30.51239Z" fill="#d5e14d"/><path d="M644.43571,23.55424h8.46879c.05035,7.48459-.10528,14.97832.07323,22.45833,1.43741,2.39872,3.11285,4.65554,4.61435,7.02223,1.474-2.31633,3.19983-4.4816,4.52738-6.88948.12819-7.52121.02747-15.05614.04577-22.58192q4.24355-.02061,8.48709,0c-.02746,5.37882-.00458,10.75765-.00916,16.13648-.032,2.49944.23805,5.08127-.68666,7.47085A81.28731,81.28731,0,0,1,662.449,61.26554c3.19066,5.12706,6.65145,10.3182,8.1163,16.24177.16937,8.9815.04576,17.98131.05951,26.96739-2.62761-.01831-5.25064-.00458-7.87828-.00916-.02746-9.02728.05493-18.05455-.03663-27.07725-1.32755-2.7329-3.328-5.12248-4.92105-7.718-1.63884,2.50859-3.36007,4.95768-5.008,7.45711-.00458,9.11883.04122,18.23766-.0183,27.35649-2.77868-.0412-5.55278-.00916-8.32688-.01831-.00458-8.46879.00916-16.93758-.00458-25.40637-.03663-2.298,1.062-4.3992,1.973-6.44544a102.7745,102.7745,0,0,1,6.74756-11.43516c-3.30511-5.06755-6.981-10.13051-8.61528-16.0312C644.29838,37.96035,644.50438,30.75043,644.43571,23.55424Z" fill="#d5e14d"/><path d="M753.46342,51.52415H740.296V76.84538h13.16739Z" fill="#f79226"/><path d="M771.23413,77.89185a42.95287,42.95287,0,1,0-76.37935,10.08473,42.94493,42.94493,0,0,0,76.37935-10.08473ZM704.91706,45.639l17.13675-.00962c1.05334,1.05334,1.98627,1.92448,3.04967,2.98743v6.9586h-5.06433c-.01006-1.34723-.01006-2.70407,0-4.05129H707.88482V76.84538h12.15433c-.01006-1.34722-.01006-2.70406,0-4.05129h5.06433v6.9586c-1.0634,1.06341-1.9785,1.91441-3.03185,2.97782H704.91706l-2.90684-2.856L701.9901,48.5262Zm26.26336,5.88512V45.62941h25.2407l2.93707,2.88626V79.84379l-2.927,2.88671H731.11728c-.00961-2.02564.05309-3.859.06314-5.88466h3.03867V51.52461h-3.03867Z" fill="#f79226"/><path d="M269.06219,23.4398c2.77869-.00915,5.55279.01831,8.33146-.01831.05493,24.26653.00458,48.53762.02289,72.80415h9.38434c.01831-24.2711-.03662-48.53762.02746-72.80873,2.81989.05036,5.63518,0,8.45506.03662q-.04806,34.88915-.01373,69.77827a22.0498,22.0498,0,0,1-.27008,5.0355,8.213,8.213,0,0,1-7.8508,6.19824c-3.35547,0-6.71552.01373-10.071-.00916a8.48243,8.48243,0,0,1-7.9927-8.50541C269.03014,71.78059,269.07592,47.6102,269.06219,23.4398Z" fill="#f79226"/><path d="M316.44165,23.4398c5.77709.032,11.56334-.06409,17.34043.04578,4.09249.05493,8.47338,3.15405,8.51457,7.5212q.02061,13.28,0,26.56454c-.032,3.83156-2.591,7.82334-6.53241,8.53288,2.72833,12.7856,5.41088,25.57576,8.14835,38.35677-2.61846.00915-5.23692.00457-7.85538.00457-2.89769-12.62994-5.8366-25.24616-8.72972-37.8761-.95675-.00458-1.91807-.00458-2.87482-.00916q-.00685,18.94491-.00457,37.88525h-8.00645Zm8.34978,8.0156q.01374,13.21818.00457,26.43179c3.08539.00457,6.17078-.01373,9.26075.01373.02288-8.8167.00458-17.6334.00915-26.4501C330.97135,31.4554,327.88139,31.44624,324.79143,31.4554Z" fill="#f79226"/><path d="M365.06168,23.45811c6.05633-.01373,12.11265-.06409,18.16441.01831a7.67513,7.67513,0,0,1,7.59444,7.06344c.02289,8.54661,0,17.0978.00915,25.649.02289,2.37584-1.67545,4.2527-3.34173,5.73589,1.61135,1.34127,3.17236,3.08539,3.32343,5.28269.2472,3.48365.087,6.981.13276,10.47384-.0412,5.333.10071,10.67067-.11444,16.00373-.07325,2.266.34791,4.69217-.78279,6.77961a7.60161,7.60161,0,0,1-6.77046,4.00093c-6.0609.01374-12.11724-.02289-18.17814.01374C365.04337,77.4707,365.11661,50.46212,365.06168,23.45811Zm8.37266,7.99271q0,13.21818.00458,26.44094c3.09-.00915,6.17535,0,9.26531-.00457.00459-8.81212-.00915-17.61967.00915-26.42721C379.61885,31.44167,376.52889,31.4554,373.43434,31.45082Zm.00915,34.896c-.02288,10.03438-.00458,20.07333-.00915,30.10771,3.09-.00458,6.18451.00916,9.27448-.00458q-.02061-15.05155-.00459-30.094C379.61885,66.35141,376.52889,66.36514,373.44349,66.34682Z" fill="#f79226"/><path d="M417.79708,23.893c2.46282-.70955,5.05838-.38453,7.58987-.4532,2.78783.05493,5.8-.34333,8.34976,1.062,2.53607,1.34586,4.7883,3.90938,4.7059,6.9261q-.01372,31.15371,0,62.30743c-.032,1.8082.21058,3.72627-.62256,5.40629a9.05226,9.05226,0,0,1-6.92152,5.30558c-2.74663.06409-5.49327-.01373-8.23532.02289a12.7237,12.7237,0,0,1-4.79747-.47608c-3.21355-1.26345-5.85948-4.43123-5.7542-7.99728q.00687-31.11939,0-62.24792c.01832-1.67087-.16479-3.43329.5356-5.00345A8.94023,8.94023,0,0,1,417.79708,23.893Zm3.13116,7.67226q-.00687,32.21118-.00458,64.42692,4.46328.01374,8.93572,0-.01372-32.218-.00458-64.42692Z" fill="#f79226"/><polygon points="234.354 15.125 226.489 15.125 226.489 7 251.667 7 251.667 15.125 243.802 15.125 243.802 104.391 234.354 104.391 234.354 15.125" fill="#f79226"/></svg>