<svg id="Layer_1" data-name="Layer 1" xmlns="http://www.w3.org/2000/svg" viewBox="0 0 1000 114"><title>logo</title><path d="M475.06,11.32c2,0,4.06,0,6.09,0,.23,0,.45,0,.68,0a7.93,7.93,0,0,1,7.59,8.07V32.49h-7.85V19.2h-8.75V93.06h9c0-11.88,0-23.84,0-35.76h-4V50.14h11.59c0,16.7.05,33.42,0,50.12H473.27a8.11,8.11,0,0,1-7.45-4.91c-.62-1.53-.41-3.21-.44-4.82q0-35.6,0-71.16a8.06,8.06,0,0,1,6.64-8c1,0,2,0,3.05,0m0-7c-1.23,0-2.32,0-3.33.06a6.25,6.25,0,0,0-1,.1,15,15,0,0,0-12.4,14.91q0,35.55,0,71.14v.12c0,.28,0,.56,0,.85a15.77,15.77,0,0,0,1,6.48l.06.14a15.11,15.11,0,0,0,13.88,9.14h16.19a7,7,0,0,0,7-7c0-11.14,0-22.48,0-33.44q0-8.36,0-16.7a7,7,0,0,0-7-7h-9.64V39.28a7.17,7.17,0,0,0,1.75.21h7.85a7,7,0,0,0,7-7V19.56A14.7,14.7,0,0,0,492.32,9a14.59,14.59,0,0,0-10.49-4.64c-.33,0-.65,0-1,0l-2.65,0c-1.05,0-2.09,0-3.14,0Z" fill="#fff"/><path d="M525.33,26.29a8.43,8.43,0,0,1,7.51,4.57,8,8,0,0,1,.43,3.55V57.83c-.17,3.31-2.52,6.68-5.93,7.26,2.53,11.69,5,23.4,7.46,35.11h-7.17q-4-17.37-8-34.74h-2.55V100.3h-7.31q0-37,0-74h15.6m-8.17,31.28h8.57V33.51h-8.57V57.57m8.17-38.28h-15.6a7,7,0,0,0-7,7q0,37,0,74a7,7,0,0,0,7,7h7.31a7,7,0,0,0,5.33-2.46,7,7,0,0,0,5.24,2.36h7.17a7,7,0,0,0,6.85-8.45L540.87,95c-1.82-8.64-3.7-17.53-5.59-26.34a15.13,15.13,0,0,0,5-10.5c0-.12,0-.25,0-.37V34.72a15.12,15.12,0,0,0-.84-6.22,5.33,5.33,0,0,0-.37-.85,15.38,15.38,0,0,0-13.73-8.36Z" fill="#fff"/><path d="M562.74,26.42l6.69,0h.38A7.35,7.35,0,0,1,574.28,28a6.73,6.73,0,0,1,2.39,5.24v67.08h-7.21V65.13h-9v35.16h-7.32q0-33.58,0-67.09a6.91,6.91,0,0,1,6.23-6.76l3.36,0m-2.07,31.3h8.56V34q-4.28,0-8.56,0v23.8m2.07-38.3-3.46,0-.58,0a13.9,13.9,0,0,0-12.55,13.59v.13q0,33.51,0,67.09a7,7,0,0,0,7,7h7.32a7,7,0,0,0,4.49-1.63,7,7,0,0,0,4.48,1.62h7.21a7,7,0,0,0,7-7v-67a13.64,13.64,0,0,0-4.89-10.64l-.22-.18a14.42,14.42,0,0,0-8.75-3h-7.07Z" fill="#fff"/><path d="M613.6,26.35v6.59H602.53V57.75h9.14v7.31h-9.14v35.16h-7.42l0-67.47a6.56,6.56,0,0,1,6.15-6.4H613.6m0-7H601.24l-.43,0A13.63,13.63,0,0,0,588.09,32.6v.15l0,67.47a7,7,0,0,0,7,7h7.42a7,7,0,0,0,7-7V72.06h2.14a7,7,0,0,0,7-7V57.75a7,7,0,0,0-7-7h-2.14V39.94h4.07a7,7,0,0,0,7-7V26.35a7,7,0,0,0-7-7Z" fill="#fff"/><path d="M655.94,26.38V41.13c0,2.29.22,4.65-.62,6.83a75.5,75.5,0,0,1-6.87,12.89c2.92,4.68,6.08,9.42,7.42,14.84.15,8.23,0,16.46,0,24.68h-7.19V75.62c-1.22-2.5-3.05-4.68-4.5-7.06-1.5,2.3-3.07,4.57-4.57,6.82v25h-7.61V77.16c0-2.11,1-4,1.83-5.9a94.56,94.56,0,0,1,6.17-10.45c-3-4.63-6.4-9.26-7.87-14.62-.29-6.59-.1-13.22-.16-19.8h7.73c0,6.85-.09,13.71.07,20.53,1.31,2.19,2.85,4.26,4.22,6.4,1.35-2.11,2.92-4.1,4.14-6.29.12-6.88,0-13.77,0-20.65h7.76m0-7h-7.76A7,7,0,0,0,644,20.79a7,7,0,0,0-4.21-1.4H632a7,7,0,0,0-7,7.07c0,2.22,0,4.52,0,6.74,0,4.33,0,8.82.17,13.3a6.68,6.68,0,0,0,.24,1.54,46,46,0,0,0,6.27,12.81c-1.46,2.36-2.81,4.78-4.06,7.24l-.12.25-.19.42a19.56,19.56,0,0,0-2.28,8.4v23.22a7,7,0,0,0,7,7h7.61a7,7,0,0,0,4.54-1.67,7,7,0,0,0,4.53,1.66h7.19a7,7,0,0,0,7-7c0-2.53,0-5.07,0-7.61,0-5.62,0-11.43-.07-17.19a6.63,6.63,0,0,0-.2-1.54,47.16,47.16,0,0,0-6-13.17,83,83,0,0,0,5.09-10.21l.06-.16A20.87,20.87,0,0,0,663,42.2c0-.36,0-.71,0-1.07V26.38a7,7,0,0,0-7-7Z" fill="#fff"/><path d="M731.71,52V75.11H719.64V52h12.07m0-7H719.64a7,7,0,0,0-7,7V75.11a7,7,0,0,0,7,7h12.07a7,7,0,0,0,7-7V52a7,7,0,0,0-7-7Z" fill="#fff"/><path d="M710.72,24.2a39.28,39.28,0,0,1,37.19,51.86v0A39.26,39.26,0,1,1,710.72,24.2M711.3,52H714V75.11H711.3c0,1.84,0,3.54,0,5.37h23.13l2.68-2.64V49.21l-2.69-2.64H711.3V52m-24,28.59H703c.92-1,1.78-1.77,2.74-2.75V71.4h-4.62v3.71H690V52h11.11v3.71h4.62v-6.4c-1-1-1.81-1.83-2.78-2.74H687.3l-2.66,2.7V77.92l2.66,2.62M710.72,17.2a46.27,46.27,0,1,0,43.82,61.12l.09-.29a46.26,46.26,0,0,0-29.07-58.38,46.41,46.41,0,0,0-14.84-2.45ZM721,53.57h9V73.48h-9V53.57Z" fill="#fff"/><path d="M312.82,26.29V90.07a20,20,0,0,1-.25,4.57,7.53,7.53,0,0,1-7.18,5.67h-9.2a7.76,7.76,0,0,1-7.31-7.78q0-33.09,0-66.24h7.62c.05,22.18,0,44.37,0,66.55h8.57V26.29h7.73m0-7h-7.73a7,7,0,0,0-4.28,1.46,7.05,7.05,0,0,0-4.29-1.46H288.9a7,7,0,0,0-7,7q0,19.35,0,38.69,0,13.78,0,27.55a14.77,14.77,0,0,0,13.9,14.77h9.72a14.55,14.55,0,0,0,13.85-10.94,5.41,5.41,0,0,0,.12-.55,27.55,27.55,0,0,0,.35-5.95V26.29a7,7,0,0,0-7-7Z" fill="#fff"/><path d="M342.78,26.26q2.64,0,5.28,0c3.74,0,7.74,2.88,7.79,6.87V57.44c0,3.5-2.37,7.15-6,7.8,2.5,11.69,4.95,23.38,7.45,35.06h-7.17q-4-17.33-8-34.63h-2.64v34.64h-7.31v-74l10.57,0m-2.94,31.5h8.47V33.58l-8.47,0V57.76m2.94-38.5-5.31,0h-5.26a7,7,0,0,0-7,7v74a7,7,0,0,0,7,7h7.31a7,7,0,0,0,5.31-2.44,7,7,0,0,0,5.31,2.43h7.17a7,7,0,0,0,6.85-8.47q-2.09-9.7-4.13-19.41l-2.25-10.6a15.35,15.35,0,0,0,5.06-11.38V33.08c-.1-8.41-7.71-13.71-14.7-13.79l-5.37,0Z" fill="#fff"/><path d="M387.72,26.28c1.85,0,3.69,0,5.54,0a7,7,0,0,1,6.94,6.45V56.21c0,2.16-1.54,3.88-3.05,5.23,1.47,1.24,2.89,2.83,3,4.84.23,3.18.08,6.4.12,9.57,0,4.87.09,9.75-.1,14.62-.07,2.07.32,4.29-.71,6.19a7,7,0,0,1-6.14,3.66H376.68c-.05-24.65,0-49.33,0-74,3.7,0,7.38,0,11.07,0M384.3,57.79h8.47V33.63c-1.41,0-2.82,0-4.23,0H384.3V57.79m0,35.24h8.49V65.53c-2.83,0-5.67,0-8.48,0h0V93m3.42-73.75h-5.56l-5.51,0a7,7,0,0,0-7,7c0,12.79,0,25.8,0,38.39,0,11.68,0,23.75,0,35.62a7,7,0,0,0,7,7h16.67A14,14,0,0,0,405.64,100a15.54,15.54,0,0,0,1.56-8.16c0-.41,0-.81,0-1.12.15-3.82.14-7.64.12-11.33,0-1.18,0-2.35,0-3.53v-.08q0-1.5,0-3c0-2.25,0-4.58-.14-7A11.61,11.61,0,0,0,406,61.41a11.87,11.87,0,0,0,1.22-5.2V32.76c0-.19,0-.37,0-.56a13.94,13.94,0,0,0-13.87-12.89c-1.84,0-3.71,0-5.59,0Z" fill="#fff"/><path d="M434.34,26.26a10.35,10.35,0,0,1,5.09,1c2.33,1.28,4.37,3.57,4.3,6.33v57c0,1.64.19,3.4-.57,4.93a8.3,8.3,0,0,1-6.33,4.86l-2.51,0-5,0c-.36,0-.72,0-1.07,0a11.64,11.64,0,0,1-3.31-.49c-2.94-1.16-5.35-4.05-5.26-7.32V35.68a11,11,0,0,1,.49-4.57,8.18,8.18,0,0,1,4.71-4.41,13.56,13.56,0,0,1,3.81-.43c.79,0,1.58,0,2.37,0h.76c.83,0,1.68,0,2.54,0M427.72,92.6h8.17V33.72h-8.17V92.6m6.62-73.34h-1.43l-1.11,0H430l-1.3,0a20.59,20.59,0,0,0-5.75.7c-.15.05-.3.09-.44.15a15.16,15.16,0,0,0-8.73,8.17,15.49,15.49,0,0,0-1.1,6.78c0,.21,0,.41,0,.61V92.5a14.89,14.89,0,0,0,9.71,13.92l.52.18a18.56,18.56,0,0,0,5.34.79c.45,0,.91,0,1.36,0h4.73q1.33,0,2.67,0a5.47,5.47,0,0,0,.9-.08,15,15,0,0,0,12.84-16V33.66c.08-5-3-9.8-7.93-12.54a17.17,17.17,0,0,0-8.46-1.86Z" fill="#fff"/><path d="M273,11.26v7.43h-7.19v81.59h-8.64V18.69H250V11.26h23m0-7H250a7,7,0,0,0-7,7v7.43a7,7,0,0,0,7,7h.19v74.59a7,7,0,0,0,7,7h8.64a7,7,0,0,0,7-7V25.69H273a7,7,0,0,0,7-7V11.26a7,7,0,0,0-7-7Z" fill="#fff"/><path d="M465.37,19.37a8.06,8.06,0,0,1,6.64-8c3.05-.12,6.1,0,9.14,0,4.39-.46,8.51,3.66,8.27,8V32.49h-7.85V19.2h-8.75V93.06h9c0-11.88,0-23.84,0-35.76h-4V50.14h11.59c0,16.7.05,33.42,0,50.12H473.28a8.11,8.11,0,0,1-7.46-4.91c-.62-1.53-.41-3.21-.44-4.82Q465.38,54.93,465.37,19.37Z" fill="#d5e14d"/><path d="M509.73,26.29H525.1a8.45,8.45,0,0,1,7.74,4.57,8,8,0,0,1,.43,3.55V57.83c-.17,3.31-2.52,6.68-5.93,7.26,2.53,11.69,5,23.4,7.46,35.11h-7.17q-4-17.37-8-34.74h-2.55V100.3h-7.31Q509.75,63.31,509.73,26.29Zm7.43,7.22V57.57h8.57V33.51Z" fill="#d5e14d"/><path d="M553.15,33.2a6.91,6.91,0,0,1,6.23-6.76c3.36,0,6.73,0,10,0A7.3,7.3,0,0,1,574.28,28a6.73,6.73,0,0,1,2.39,5.24v67.08h-7.21V65.13h-9v35.16h-7.32Q553.16,66.71,553.15,33.2Zm7.52.76V57.72h8.56V34q-4.28,0-8.56,0Z" fill="#d5e14d"/><path d="M595.09,32.75a6.56,6.56,0,0,1,6.15-6.4H613.6v6.59H602.53V57.75h9.14v7.31h-9.14v35.16h-7.42Z" fill="#d5e14d"/><path d="M632,26.39h7.73c0,6.85-.09,13.71.07,20.53,1.31,2.19,2.85,4.26,4.22,6.4,1.35-2.11,2.92-4.1,4.14-6.29.12-6.88,0-13.77,0-20.65h7.76V41.13c0,2.29.22,4.65-.62,6.83a75.5,75.5,0,0,1-6.87,12.89c2.92,4.68,6.08,9.42,7.42,14.84.15,8.23,0,16.46,0,24.68h-7.19V75.62c-1.22-2.5-3.05-4.68-4.5-7.06-1.5,2.3-3.07,4.57-4.57,6.82v25h-7.61V77.16c0-2.11,1-4,1.83-5.9a94.56,94.56,0,0,1,6.17-10.45c-3-4.63-6.4-9.26-7.87-14.62C631.89,39.6,632.08,33,632,26.39Z" fill="#d5e14d"/><path d="M731.71,52H719.64V75.11h12.07Z" fill="#f79226"/><path d="M747.91,76.06a39.25,39.25,0,1,0-15.36,20,39.27,39.27,0,0,0,15.36-20ZM687.3,46.58H703c1,.91,1.83,1.76,2.78,2.74v6.4h-4.62V52H690v23.1h11.11V71.4h4.62v6.39c-1,1-1.82,1.76-2.74,2.75H687.3l-2.66-2.62V49.28Zm24,5.37V46.57h23.07l2.69,2.64V77.84l-2.68,2.64H711.25c0-1.83,0-3.53,0-5.37H714V52Z" fill="#f79226"/><path d="M288.9,26.29h7.62c.05,22.18,0,44.37,0,66.55h8.57V26.29h7.73V90.07a20,20,0,0,1-.25,4.57,7.53,7.53,0,0,1-7.18,5.67h-9.2a7.76,7.76,0,0,1-7.31-7.78Q288.88,59.44,288.9,26.29Z" fill="#f79226"/><path d="M332.21,26.29c5.28,0,10.57-.06,15.85,0,3.74,0,7.74,2.88,7.79,6.87V57.44c0,3.5-2.37,7.15-6,7.8,2.5,11.69,4.95,23.38,7.45,35.06h-7.17q-4-17.33-8-34.63h-2.64v34.64h-7.31Zm7.63,7.31V57.76h8.47V33.58Z" fill="#f79226"/><path d="M376.65,26.31c5.54,0,11.07-.07,16.61,0a7,7,0,0,1,6.94,6.45V56.21c0,2.16-1.54,3.88-3.05,5.23,1.47,1.24,2.89,2.83,3,4.84.23,3.18.08,6.4.12,9.57,0,4.87.09,9.75-.1,14.62-.07,2.07.32,4.29-.71,6.19a7,7,0,0,1-6.19,3.66H376.68C376.63,75.67,376.71,51,376.65,26.31Zm7.65,7.31V57.79h8.47V33.63c-2.81,0-5.65,0-8.47,0Zm0,31.9V93h8.49V65.53c-2.83,0-5.67,0-8.48,0Z" fill="#f79226"/><path d="M424.86,26.7c2.25-.65,4.62-.35,6.94-.41,2.54,0,5.3-.31,7.63,1s4.37,3.57,4.3,6.33v57c0,1.64.19,3.4-.57,4.93a8.3,8.3,0,0,1-6.33,4.86c-2.51,0-5,0-7.53,0a11.59,11.59,0,0,1-4.38-.44c-2.94-1.16-5.35-4.05-5.26-7.32V35.68a11,11,0,0,1,.49-4.57A8.18,8.18,0,0,1,424.86,26.7Zm2.86,7V92.6h8.17V33.72Z" fill="#f79226"/><polygon points="257.18 18.69 249.99 18.69 249.99 11.26 273.01 11.26 273.01 18.69 265.82 18.69 265.82 100.28 257.18 100.28 257.18 18.69" fill="#f79226"/></svg>