<svg xmlns="http://www.w3.org/2000/svg" viewBox="0 0 694.458 297.973"><g fill="#7942ba"><path d="M.78 276.553s.649 17.524 81.783 21.42h8.184c81.133-3.895 81.782-21.42 81.782-21.42V7.179s0-7.788-8.439-7.141H9.218C.782-.608.78 7.179.78 7.179v269.374z"/><path d="M5.581 26.799c0 .485-.227.877-.509.877H.507C.226 27.675 0 27.284 0 26.799c0-.484.226-.876.507-.876h4.564c.283-.001.51.391.51.876zM5.581 36.579c0 .485-.227.876-.509.876H.507c-.281 0-.507-.392-.507-.876 0-.485.226-.876.507-.876h4.564c.283-.001.51.391.51.876zM5.581 46.358c0 .484-.227.876-.509.876H.507c-.281.001-.507-.391-.507-.876s.226-.877.507-.877h4.564c.283.001.51.393.51.877zM5.581 56.139c0 .485-.227.878-.509.878H.507c-.281 0-.507-.393-.507-.878s.226-.875.507-.875h4.564c.283 0 .51.39.51.875zM173.146 26.799c0 .485-.225.877-.505.877h-4.569c-.279 0-.508-.392-.508-.877 0-.484.229-.876.508-.876h4.569c.28-.001.505.391.505.876zM173.146 36.579c0 .485-.225.876-.505.876h-4.569c-.279 0-.508-.392-.508-.876 0-.485.229-.876.508-.876h4.569c.28-.001.505.391.505.876zM173.146 46.358c0 .484-.225.876-.505.876h-4.569c-.279 0-.508-.392-.508-.876 0-.485.229-.877.508-.877h4.569c.28.001.505.393.505.877zM173.146 56.139c0 .485-.225.878-.505.878h-4.569c-.279 0-.508-.393-.508-.878s.229-.875.508-.875h4.569c.28 0 .505.39.505.875z"/></g><path d="M144.317.144H28.828v248.822c0 4.624 2.307 8.694 5.805 11.074v.002s6.485 3.538 52.689 3.538c29.081 0 41.987.179 47.56-1.839 5.428-1.587 9.404-6.702 9.404-12.773v-2.903h.031V.144z" fill="#7042b2"/><path d="M86.576 9.022h64.012c13.209-.089 12.199 5.568 12.199 5.568v119.162s1.153 6.613-7.112 8.437c-8.076 1.781-11.376 2.862-69.009 4.817-57.633-1.956-60.933-3.036-69.009-4.817-8.265-1.823-7.112-8.437-7.112-8.437V14.59s-1.01-5.657 12.199-5.568h64.012-.18z" fill="#333"/><path d="M86.666 149.055l-.069-.003c-55.181-1.872-60.674-3.03-68.277-4.633l-1.079-.226c-6.969-1.449-8.767-7.474-8.743-10.458V16.638c-.003-.445.047-4.56 2.799-7.332 1.536-1.547 3.551-2.331 5.987-2.331H156.23c2.437 0 4.451.784 5.987 2.331 2.751 2.772 2.802 6.887 2.799 7.347v117.099c.023 2.968-1.774 8.993-8.743 10.442l-1.005.21c-7.644 1.608-13.167 2.77-68.532 4.648l-.07.003zM17.284 11.07c-1.324 0-2.331.367-3.081 1.122-1.33 1.34-1.615 3.708-1.61 4.432v117.128c.003.544.188 5.332 5.481 6.431l1.089.229c7.397 1.559 12.744 2.686 67.502 4.545 54.944-1.865 60.32-2.996 67.759-4.561l1.015-.213c5.293-1.1 5.478-5.887 5.481-6.429V16.638c-.002-.934-.239-5.568-4.69-5.568H17.284z" fill="#272727"/><path fill="#8e827b" d="M36.27 26.652h100.606v88.275H36.27z"/><g fill="#2b2b2b"><path d="M41.959 215.75a2.05 2.05 0 0 1-2.051 2.051H30.38a2.05 2.05 0 0 1-2.051-2.051v-39.385c0-1.135.919-2.055 2.051-2.055h9.528c1.133 0 2.051.92 2.051 2.055v39.385z"/><path d="M54.836 189.242c1.134 0 2.051.916 2.051 2.051v9.527a2.049 2.049 0 0 1-2.051 2.052H15.451a2.05 2.05 0 0 1-2.05-2.052v-9.527a2.05 2.05 0 0 1 2.05-2.051h39.385z"/></g><path d="M40.169 196.41a4.872 4.872 0 1 1-9.744-.002 4.872 4.872 0 0 1 9.744.002zM46.907 191.27l8.573 4.625-8.573 4.629zM23.148 200.524l-8.572-4.625 8.572-4.629zM30.409 184.533l4.627-8.567 4.63 8.567zM39.666 208.284l-4.628 8.571-4.629-8.571z" fill="#3a3a3a"/><g fill="#c1c1c1"><path d="M47.889 133.467c-.659.193-1.767.445-2.957.445-1.336 0-2.425-.312-3.188-.951-.761-.614-1.106-1.503-1.106-2.43 0-1.446.689-2.806 1.94-3.707 1.063-.759 2.512-1.192 4.134-1.192 1.221 0 2.095.216 2.442.372l-.518 1.181c-.46-.193-1.176-.336-2.053-.336-1.033 0-1.983.274-2.7.792a3.448 3.448 0 0 0-1.423 2.782c0 1.456.949 2.298 2.757 2.298.517 0 .949-.084 1.236-.181l.458-2.034h-1.709l.274-1.132h3.329l-.916 4.093z"/><path d="M50.259 131.518l-1.322 2.31h-1.779l4.852-8.112h2.096l1.221 8.112h-1.751l-.273-2.31h-3.044zm2.942-1.083l-.272-2.023c-.043-.433-.101-1.059-.144-1.542h-.029c-.259.483-.516 1.06-.788 1.542l-1.179 2.023h2.412z"/><path d="M62.408 133.828l.643-3.814c.144-.833.348-1.975.59-2.975H63.6c-.503.951-1.078 1.999-1.61 2.854l-2.382 3.838h-1.294l-.501-3.78a44.326 44.326 0 0 1-.26-2.912h-.027c-.26.926-.548 2.155-.791 2.975l-1.106 3.814h-1.551l2.458-8.112h2.209l.518 3.79c.072.724.172 1.565.185 2.336h.06c.344-.77.802-1.625 1.219-2.323l2.34-3.803h2.242l-1.278 8.112h-1.623zM70.074 130.217h-3.475l-.548 2.42h3.906l-.273 1.191H64.1l1.837-8.112h5.37l-.272 1.192h-3.692l-.487 2.13h3.49l-.272 1.179zM75.659 125.848a13.16 13.16 0 0 1 2.327-.193c1.003 0 1.735.147 2.326.496.559.287.933.77.933 1.384 0 1.023-.948 1.719-2.011 1.962v.034c.904.23 1.55.855 1.55 1.781 0 .854-.544 1.493-1.248 1.902-.805.483-1.954.661-3.418.661-.976 0-1.78-.047-2.238-.119l1.779-7.908zm.072 6.886c.273.024.574.034.89.034 1.249 0 2.399-.42 2.399-1.503 0-.867-.878-1.192-1.896-1.192h-.789l-.604 2.661zm.86-3.696h.775c1.252 0 2.155-.493 2.155-1.325 0-.661-.617-.948-1.536-.948-.389 0-.719.021-.892.059l-.502 2.214z"/><path d="M89.86 128.941c0 1.444-.619 2.938-1.754 3.877-.875.72-2.051 1.141-3.46 1.141-2.497 0-3.805-1.528-3.805-3.343 0-1.447.646-2.963 1.811-3.902.874-.71 2.096-1.132 3.403-1.132 2.584.001 3.805 1.507 3.805 3.359zm-5.918-1.48c-.847.711-1.334 2.036-1.334 3.082 0 1.228.661 2.238 2.284 2.238.703 0 1.377-.252 1.88-.685.835-.699 1.308-2.081 1.308-3.104 0-1.072-.446-2.226-2.227-2.226a2.914 2.914 0 0 0-1.911.695z"/><path d="M90.536 133.828l.76-3.334-1.882-4.778h1.78l.76 2.312c.216.699.317 1.058.405 1.419h.027c.26-.384.575-.843 1.005-1.444l1.739-2.287h1.979l-4.149 4.754-.761 3.358h-1.663z"/></g><path d="M104.263 131a.911.911 0 0 1 .527-.241c.199-.023.377.002.543.069a.796.796 0 0 1 .381.335c.092.149.114.327.067.535a1.42 1.42 0 0 1-.335.577 5.937 5.937 0 0 1-.492.488c-.374.355-.79.614-1.248.785-.456.168-.92.248-1.387.241a3.677 3.677 0 0 1-1.372-.3 3.56 3.56 0 0 1-1.207-.854 4.033 4.033 0 0 1-.536-.717 3.4 3.4 0 0 1-.331-.79 4.13 4.13 0 0 1-.156-1.273c.007-.438.084-.867.23-1.283.144-.417.347-.808.612-1.174.267-.367.591-.682.975-.938.28-.191.563-.355.845-.496.285-.136.584-.268.904-.389.183-.066.369-.134.562-.201.193-.064.391-.111.593-.151.203-.032.405-.045.606-.037.203.009.403.049.594.116.134.053.27.126.404.216a2.517 2.517 0 0 1 .679.679 1.6 1.6 0 0 1 .188.378.921.921 0 0 1 .021.343.715.715 0 0 1-.113.318.851.851 0 0 1-.617.362c-.223.027-.391.004-.512-.062a.934.934 0 0 1-.29-.263l-.21-.302a.545.545 0 0 0-.285-.216.714.714 0 0 0-.176.013 6.639 6.639 0 0 0-.988.32 4.764 4.764 0 0 0-.924.485 3.495 3.495 0 0 0-.746.661 2.41 2.41 0 0 0-.463.845 2.945 2.945 0 0 0-.128 1.127c.027.381.144.738.347 1.074.117.202.267.374.461.52.193.149.407.258.639.333.23.074.466.1.707.077a1.66 1.66 0 0 0 .691-.225c.195-.122.366-.271.522-.448.153-.179.291-.356.418-.537z" fill="#ff004f"/><path d="M113.301 130.263a7.959 7.959 0 0 1-.583 1.314 5.09 5.09 0 0 1-.862 1.149 4.159 4.159 0 0 1-1.187.818c-.45.208-.966.312-1.545.312a5.772 5.772 0 0 1-.889-.092 2.803 2.803 0 0 1-.633-.198 2.454 2.454 0 0 1-.944-.462 2.939 2.939 0 0 1-.664-.739 3.621 3.621 0 0 1-.409-.895 4.49 4.49 0 0 1-.18-.919c-.042-.52.004-1.05.148-1.588a4.8 4.8 0 0 1 .681-1.484 4.66 4.66 0 0 1 1.177-1.166 4.05 4.05 0 0 1 1.62-.639c.315-.049.63-.066.951-.049.323.015.635.071.936.168.251.079.481.171.697.275.215.104.418.239.616.398.258.209.476.449.657.721.176.271.304.558.386.852.099.376.141.748.134 1.117-.008.37-.046.739-.107 1.107zm-3.467 2.028c.268-.105.503-.244.706-.417a3.39 3.39 0 0 0 .906-1.236c.104-.237.196-.473.275-.716.054-.302.085-.614.087-.936a1.922 1.922 0 0 0-.219-.914 1.73 1.73 0 0 0-.569-.62 2.427 2.427 0 0 0-.838-.356 2.52 2.52 0 0 0-.916-.044c-.307.04-.583.148-.822.324a3.484 3.484 0 0 0-.825.86 3.906 3.906 0 0 0-.622 2.012c-.007.336.049.656.176.961.094.225.24.431.433.614a2.163 2.163 0 0 0 1.42.609c.272.01.542-.038.808-.141z" fill="#7942ba"/><path d="M126.758 130.014c-.161.48-.369.948-.624 1.406a5.38 5.38 0 0 1-.922 1.229 4.422 4.422 0 0 1-1.269.872c-.478.223-1.03.334-1.652.334a6.668 6.668 0 0 1-.951-.094 3.864 3.864 0 0 1-.678-.213 2.624 2.624 0 0 1-1.009-.498 3.173 3.173 0 0 1-.708-.787 3.701 3.701 0 0 1-.436-.96 4.793 4.793 0 0 1-.193-.983 4.877 4.877 0 0 1 .156-1.695 5.051 5.051 0 0 1 .73-1.585 4.815 4.815 0 0 1 1.261-1.248 4.297 4.297 0 0 1 1.729-.686c.334-.05.671-.07 1.016-.05.344.016.678.078 1.003.179.266.084.515.183.743.297.228.106.451.248.659.421.275.223.507.48.698.77.193.292.33.597.416.913.105.401.151.801.142 1.194-.007.396-.044.79-.111 1.184zm-3.707 2.169c.287-.113.537-.259.752-.443.215-.185.401-.389.567-.612.16-.223.294-.458.405-.713.112-.251.207-.508.293-.766.057-.324.087-.659.091-.998a2.023 2.023 0 0 0-.232-.978 1.797 1.797 0 0 0-.61-.661 2.607 2.607 0 0 0-.891-.386 2.81 2.81 0 0 0-.984-.045 1.841 1.841 0 0 0-.879.349 3.74 3.74 0 0 0-.879.916 3.95 3.95 0 0 0-.508 1.125 3.96 3.96 0 0 0-.159 1.029c-.009.361.053.701.187 1.025.104.243.26.461.465.656a2.31 2.31 0 0 0 1.516.649c.293.012.581-.037.866-.147z" fill="#f9e52d"/><path d="M128.809 132.959a.799.799 0 0 1-.304.53 1.316 1.316 0 0 1-.565.268.93.93 0 0 1-.555-.057c-.169-.08-.258-.235-.27-.471a65.553 65.553 0 0 1-.07-3.093v-3.186a.662.662 0 0 1-.347-.233.692.692 0 0 1-.139-.342.856.856 0 0 1 .049-.387.948.948 0 0 1 .222-.336c.103-.104.247-.197.428-.283a7.086 7.086 0 0 1 1.246-.428 9.44 9.44 0 0 1 .534-.119 4.919 4.919 0 0 1 1.834.006 4.548 4.548 0 0 1 1.624.628c.468.305.817.698 1.048 1.183.23.487.256 1.038.072 1.663a3.951 3.951 0 0 1-.215.518c-.087.17-.189.332-.302.48a2.94 2.94 0 0 1-.58.594 5.856 5.856 0 0 1-.723.481c.183.173.359.354.52.544.165.191.347.362.549.521.077.06.19.154.34.283a5.888 5.888 0 0 1 .803.852c.104.141.153.26.143.357a.86.86 0 0 1-.151.446 1.01 1.01 0 0 1-.331.312.843.843 0 0 1-.425.111.896.896 0 0 1-.464-.143 3.107 3.107 0 0 1-.49-.429 12.932 12.932 0 0 0-.448-.453 58.612 58.612 0 0 1-.93-.939 29.328 29.328 0 0 0-.935-.931 4.525 4.525 0 0 1-.584.074 21.25 21.25 0 0 0-.583.044v1.935zm2.586-6.282a3.078 3.078 0 0 0-1.266-.35 3.606 3.606 0 0 0-1.32.169v2.932c.431-.024.855-.076 1.276-.15a2.843 2.843 0 0 0 1.162-.483c.196-.141.352-.303.473-.491a1.38 1.38 0 0 0 .216-.57 1.088 1.088 0 0 0-.087-.569c-.083-.185-.234-.349-.454-.488z" fill="#00b3dd"/><path d="M119.03 131.819c.231.079.407.184.532.322a.704.704 0 0 1 .204.434.671.671 0 0 1-.156.444c-.109.143-.285.259-.531.347a1.686 1.686 0 0 1-.398.079c-.173.017-.414.04-.719.062-.307.024-.696.057-1.169.094-.471.035-1.049.089-1.739.151-.17.022-.349.04-.532.054a.713.713 0 0 1-.489-.131.73.73 0 0 1-.285-.376 2.644 2.644 0 0 1-.144-.55 6.74 6.74 0 0 1-.061-.585c-.011-.193-.02-.354-.03-.485a74 74 0 0 1-.064-.892c-.022-.335-.045-.682-.064-1.031-.025-.349-.049-.691-.077-1.027-.025-.335-.05-.635-.07-.893a39.102 39.102 0 0 1-.072-1.107 3.98 3.98 0 0 1 .013-.664c.02-.163.064-.284.136-.361.072-.079.173-.151.305-.216a.808.808 0 0 1 .376-.071c.142 0 .27.024.396.069.124.047.23.117.323.21a.516.516 0 0 1 .145.317c.105 1.035.184 2.061.246 3.079.06 1.02.132 2.036.21 3.054.604-.049 1.21-.1 1.809-.161.597-.06 1.203-.122 1.815-.189l.09.023z" fill="#aae000"/><circle cx="116.379" cy="202.494" r="10.323" fill="#2b2b2b"/><path d="M114.102 207.624h-2.523v-9.496h2.388c1.506 0 2.632.747 2.632 2.51 0 .774-.352 1.615-1.112 1.968.801.285 1.276 1.126 1.276 2.157-.001 1.897-1.087 2.861-2.661 2.861zm-.095-8.208h-1.112v2.578h1.085c.706 0 1.262-.407 1.262-1.316-.001-.936-.516-1.262-1.235-1.262zm-.054 3.853h-1.058v3.067h1.195c.799 0 1.315-.434 1.315-1.574-.001-1.059-.624-1.493-1.452-1.493z" fill="#414042"/><circle cx="146.888" cy="193.089" r="10.323" fill="#2b2b2b"/><path d="M146.661 198.295l-.557-2.51h-2.063l-.542 2.51h-1.411l2.333-9.496h1.37l2.32 9.496h-1.45zm-1.18-5.372c-.136-.624-.339-1.723-.408-2.076-.067.353-.271 1.438-.406 2.076l-.352 1.601h1.519l-.353-1.601z" fill="#414042"/><g fill="#bac2c5"><path d="M17.111 59.254h.897c.139 0 .272.014.4.041.126.027.238.073.337.136s.176.149.235.256a.807.807 0 0 1 .087.395c0 .165-.031.302-.094.41s-.143.194-.241.256a.96.96 0 0 1-.322.132 1.602 1.602 0 0 1-.333.039h-.607v1.357h-.359v-3.022zm.359 1.331h.606c.179 0 .325-.041.437-.122s.169-.207.169-.378-.057-.297-.169-.378a.73.73 0 0 0-.437-.122h-.606v1zM20.962 62.353c-.231 0-.442-.04-.633-.12a1.49 1.49 0 0 1-.828-.835 1.666 1.666 0 0 1-.117-.633c0-.228.039-.439.117-.634s.188-.362.328-.504c.142-.142.307-.251.5-.331.191-.079.403-.12.633-.12s.442.04.634.12a1.483 1.483 0 0 1 .828.835c.079.195.117.406.117.634 0 .228-.039.439-.117.633a1.508 1.508 0 0 1-.329.504 1.527 1.527 0 0 1-.499.331c-.192.079-.404.12-.634.12zm0-.333a1.153 1.153 0 0 0 .862-.367 1.23 1.23 0 0 0 .245-.399c.058-.152.088-.316.088-.489s-.03-.337-.088-.489a1.23 1.23 0 0 0-.245-.399 1.138 1.138 0 0 0-.862-.367 1.138 1.138 0 0 0-.862.367 1.23 1.23 0 0 0-.245.399 1.364 1.364 0 0 0-.088.489c0 .173.03.336.088.489.058.153.141.285.245.399a1.138 1.138 0 0 0 .862.367zM22.682 59.254h.397l.687 2.51h.008l.742-2.51h.401l.739 2.51h.008l.7-2.51h.375l-.888 3.023h-.388l-.747-2.561h-.006l-.751 2.561h-.393l-.884-3.023zM27.143 59.254h1.9v.333h-1.542v.947h1.439v.333h-1.439v1.075h1.618v.333h-1.977l.001-3.021zM29.675 59.254h.773c.145 0 .289.008.433.026.144.017.272.054.387.111.114.057.206.14.278.25.071.11.107.258.107.446a.736.736 0 0 1-.201.538.964.964 0 0 1-.555.26l.858 1.392h-.44l-.82-1.357h-.461v1.357h-.359v-3.023zm.358 1.331h.32c.099 0 .203-.002.31-.008.107-.005.205-.024.294-.055a.519.519 0 0 0 .222-.147.427.427 0 0 0 .088-.288.468.468 0 0 0-.064-.26.418.418 0 0 0-.169-.151c-.07-.036-.148-.059-.235-.07s-.174-.017-.263-.017h-.504l.001.996z"/></g><circle cx="19.605" cy="55.231" r="2.8" fill="#e50016"/><path d="M22.834 52.718c-.021 0-.042.003-.064.003.566.681.907 1.556.907 2.51 0 .955-.341 1.829-.907 2.51.021 0 .042.003.064.003a2.513 2.513 0 1 0 0-5.026zM26.179 52.718c-.021 0-.042.003-.064.003.566.681.907 1.556.907 2.51 0 .955-.341 1.829-.907 2.51.021 0 .042.003.064.003a2.513 2.513 0 1 0 0-5.026zM29.547 52.718c-.021 0-.042.003-.064.003.566.681.907 1.556.907 2.51 0 .955-.341 1.829-.907 2.51.021 0 .042.003.064.003a2.513 2.513 0 1 0 0-5.026z" fill="#bac2c5"/><g fill="#2b2b2b"><path d="M127.598 255.547a1.024 1.024 0 1 1-2.051 0 1.026 1.026 0 0 1 2.051 0zM132.725 259.65c0 .568-.458 1.023-1.025 1.023a1.024 1.024 0 1 1 1.025-1.023zM132.725 254.522c0 .569-.458 1.025-1.025 1.025a1.023 1.023 0 1 1 0-2.048c.567 0 1.025.457 1.025 1.023zM132.725 249.395c0 .564-.458 1.027-1.025 1.027a1.027 1.027 0 0 1-1.025-1.027 1.024 1.024 0 1 1 2.05 0zM137.852 248.369a1.025 1.025 0 1 1-2.05 0 1.025 1.025 0 0 1 2.05 0zM142.979 252.305c0 .563-.456 1.022-1.025 1.022a1.025 1.025 0 1 1 1.025-1.022zM142.979 247.174c0 .568-.456 1.025-1.025 1.025a1.022 1.022 0 0 1-1.023-1.025 1.023 1.023 0 1 1 2.048 0zM148.109 246.15a1.027 1.027 0 0 1-2.054 0 1.028 1.028 0 0 1 2.054 0zM153.236 281.016c0 .567-.459 1.028-1.026 1.028a1.027 1.027 0 0 1-1.025-1.028c0-.564.458-1.022 1.025-1.022a1.023 1.023 0 0 1 1.026 1.022zM153.236 275.891a1.025 1.025 0 1 1-2.05 0 1.025 1.025 0 0 1 2.05 0zM153.236 270.764c0 .565-.459 1.023-1.026 1.023a1.024 1.024 0 1 1 0-2.05 1.026 1.026 0 0 1 1.026 1.027zM153.236 265.635a1.027 1.027 0 0 1-2.051 0c0-.567.458-1.023 1.025-1.023a1.022 1.022 0 0 1 1.026 1.023zM153.236 260.508a1.027 1.027 0 1 1-2.053-.003 1.027 1.027 0 0 1 2.053.003zM153.236 255.38c0 .565-.459 1.023-1.026 1.023a1.026 1.026 0 1 1 1.026-1.023zM153.236 250.252c0 .568-.459 1.023-1.026 1.023a1.024 1.024 0 0 1 0-2.047c.567 0 1.026.458 1.026 1.024zM153.236 245.123c0 .564-.459 1.027-1.026 1.027a1.026 1.026 0 1 1 1.026-1.027zM158.363 244.098a1.024 1.024 0 1 1-1.026-1.025 1.024 1.024 0 0 1 1.026 1.025zM158.363 249.228a1.024 1.024 0 0 1-2.051 0 1.026 1.026 0 1 1 2.051 0zM163.493 248.199a1.03 1.03 0 0 1-1.025 1.028 1.028 1.028 0 1 1 1.025-1.028zM163.493 253.327c0 .569-.461 1.024-1.025 1.024a1.024 1.024 0 1 1 0-2.046c.564 0 1.025.457 1.025 1.022zM163.493 258.457c0 .566-.461 1.022-1.025 1.022a1.024 1.024 0 1 1 0-2.048c.564 0 1.025.458 1.025 1.026zM163.493 263.583a1.03 1.03 0 0 1-1.025 1.028 1.03 1.03 0 0 1-1.028-1.028c0-.563.46-1.028 1.028-1.028a1.03 1.03 0 0 1 1.025 1.028zM163.493 268.711a1.028 1.028 0 0 1-2.053 0c0-.567.46-1.023 1.028-1.023.564 0 1.025.456 1.025 1.023zM163.493 273.841a1.026 1.026 0 0 1-2.053 0 1.026 1.026 0 0 1 2.053 0zM158.363 254.352a1.026 1.026 0 1 1-2.052.004 1.026 1.026 0 0 1 2.052-.004zM158.363 259.48a1.026 1.026 0 1 1-2.052.004 1.026 1.026 0 0 1 2.052-.004zM158.363 264.611a1.025 1.025 0 1 1-1.026-1.028c.569 0 1.026.462 1.026 1.028zM158.363 269.736a1.026 1.026 0 1 1-2.052.002 1.026 1.026 0 0 1 2.052-.002zM158.363 274.863a1.026 1.026 0 1 1-2.051 0c0-.564.458-1.023 1.025-1.023a1.024 1.024 0 0 1 1.026 1.023zM158.363 279.993a1.02 1.02 0 0 1-1.026 1.022 1.025 1.025 0 1 1 1.026-1.022zM148.109 251.275a1.03 1.03 0 0 1-1.025 1.029 1.027 1.027 0 1 1 1.025-1.029zM148.109 256.403a1.027 1.027 0 1 1-2.054 0 1.028 1.028 0 0 1 2.054 0zM148.109 261.533c0 .566-.462 1.021-1.025 1.021a1.024 1.024 0 1 1 0-2.046c.564 0 1.025.457 1.025 1.025zM148.109 266.66a1.03 1.03 0 0 1-1.025 1.027 1.03 1.03 0 0 1-1.029-1.027 1.028 1.028 0 0 1 2.054 0zM148.109 271.787a1.03 1.03 0 0 1-1.025 1.028 1.031 1.031 0 0 1-1.029-1.028 1.027 1.027 0 0 1 2.054 0zM148.109 276.916c0 .567-.462 1.023-1.025 1.023a1.025 1.025 0 1 1 0-2.048c.564 0 1.025.459 1.025 1.025zM148.109 282.044a1.027 1.027 0 0 1-2.054 0 1.03 1.03 0 0 1 1.029-1.028 1.03 1.03 0 0 1 1.025 1.028zM142.979 257.431a1.025 1.025 0 1 1-2.048 0 1.024 1.024 0 1 1 2.048 0zM142.979 262.555a1.024 1.024 0 1 1-2.049.007 1.024 1.024 0 0 1 2.049-.007zM142.979 267.688c0 .564-.456 1.023-1.025 1.023a1.022 1.022 0 0 1-1.023-1.023 1.024 1.024 0 1 1 2.048 0zM142.979 272.816a1.025 1.025 0 0 1-2.048 0 1.025 1.025 0 1 1 2.048 0zM142.979 277.94a1.024 1.024 0 1 1-2.049.005 1.024 1.024 0 0 1 2.049-.005zM142.979 283.068a1.023 1.023 0 1 1-2.048 0 1.023 1.023 0 1 1 2.048 0zM137.852 253.499a1.025 1.025 0 1 1-1.023-1.029c.564 0 1.023.462 1.023 1.029zM137.852 258.625a1.025 1.025 0 1 1-2.05 0 1.025 1.025 0 0 1 2.05 0zM137.852 263.75a1.026 1.026 0 1 1-2.051 0 1.025 1.025 0 0 1 2.051 0zM137.852 268.883c0 .564-.459 1.022-1.023 1.022a1.024 1.024 0 1 1 1.023-1.022zM137.852 274.01a1.026 1.026 0 1 1-2.052-.002 1.026 1.026 0 0 1 2.052.002zM137.852 279.135a1.026 1.026 0 1 1-2.051 0c0-.565.458-1.023 1.028-1.023a1.022 1.022 0 0 1 1.023 1.023zM137.852 284.264a1.024 1.024 0 1 1-2.053.001 1.024 1.024 0 0 1 2.053-.001zM132.725 264.777c0 .565-.458 1.029-1.025 1.029a1.029 1.029 0 0 1 0-2.056c.567 0 1.025.464 1.025 1.027zM132.725 269.905a1.024 1.024 0 0 1-2.05 0c0-.567.458-1.022 1.025-1.022s1.025.455 1.025 1.022zM132.725 275.035c0 .564-.458 1.022-1.025 1.022a1.023 1.023 0 1 1 0-2.047c.567 0 1.025.458 1.025 1.025zM132.725 280.162a1.026 1.026 0 1 1-2.052-.002 1.026 1.026 0 0 1 2.052.002zM132.725 285.289c0 .564-.458 1.026-1.025 1.026a1.027 1.027 0 0 1 0-2.051c.567 0 1.025.459 1.025 1.025zM127.598 260.674a1.025 1.025 0 1 1 0 0zM127.598 265.807a1.026 1.026 0 1 1-2.051-.005 1.026 1.026 0 0 1 2.051.005zM127.598 270.93c0 .568-.459 1.028-1.029 1.028-.566 0-1.022-.46-1.022-1.028a1.025 1.025 0 1 1 2.051 0zM127.598 276.058a1.026 1.026 0 1 1 0 0zM127.598 281.188c0 .566-.459 1.023-1.029 1.023a1.02 1.02 0 0 1-1.022-1.023c0-.567.456-1.025 1.022-1.025a1.023 1.023 0 0 1 1.029 1.025z"/></g><g fill-rule="evenodd" clip-rule="evenodd" fill="#593e9b"><path d="M103.911 162.158H69.235c-3.669-.008-6.135 2.659-6.135 5.856s2.46 5.834 6.14 5.834h34.665c3.681-.001 6.141-2.638 6.141-5.834 0-3.198-2.466-5.864-6.135-5.856zm-.018 10.257H69.252c-2.925.011-4.703-1.974-4.703-4.409 0-2.435 1.789-4.404 4.703-4.41h34.641c2.915.005 4.704 1.974 4.704 4.41 0 2.435-1.778 4.42-4.704 4.409z"/><path d="M71.8 169.079l-2.347-3.837h-1.696v5.504h1.685v-3.838l2.359 3.838h1.681v-5.504h-1.683zM85.157 167.092v-.543h-.886v-.741h-1.639l.002.741h-.891v.543h.89l-.001 3.654h1.64l-.001-3.654zM74.419 167.086h1.637v3.66h-1.637zM74.416 165.24h1.641v1.126h-1.641zM103.109 166.836c-1.321 0-2.392.92-2.392 2.056 0 1.134 1.071 2.054 2.392 2.054 1.322 0 2.393-.92 2.393-2.054 0-1.136-1.07-2.056-2.393-2.056zm.657 2.825c0 .583-.34.824-.669.824-.328 0-.671-.241-.671-.824l.001-.789.001-.763c0-.581.342-.82.668-.82s.669.239.669.82l.001.779v.773zM98.568 167.267c-.262-.148-.538-.292-.927-.326-1.179-.105-2.082.95-2.082 1.916 0 1.273.972 1.745 1.12 1.815.551.259 1.259.26 1.885-.137l.001.211h1.618v-5.503h-1.616c.001-.001.001 1.178.001 2.024zm.012 1.63v.649c0 .566-.386.713-.641.713-.261 0-.642-.148-.642-.713l.001-.65-.001-.653c0-.566.382-.71.642-.71.255 0 .641.144.641.71v.654zM79.889 166.917c-.541.016-.992.25-1.305.552-.002-.09 0-.384 0-.384l-1.627.001.001 3.66h1.625l-.002-2.404c0-.319.331-.674.778-.674.446 0 .748.355.748.674v2.404h1.627s-.001-1.734.001-1.991c.008-1.451-1.234-1.856-1.846-1.838zM93.195 166.917c-.542.016-.992.25-1.306.552-.003-.09 0-.384 0-.384l-1.624.001-.001 3.66h1.625l-.003-2.404c0-.319.333-.674.778-.674.446 0 .748.355.748.674v2.404h1.626s-.001-1.734.001-1.991c.009-1.451-1.233-1.856-1.844-1.838zM89.767 168.931c0-1.135-1.084-2.076-2.415-2.076s-2.411.92-2.411 2.054c0 1.136 1.08 2.056 2.411 2.056 1.105 0 2.037-.638 2.323-1.502l-1.632.001.001.222c0 .67-.435.819-.676.819-.242 0-.686-.149-.686-.819l.002-.756h3.083zm-2.976-1.288a.667.667 0 0 1 .576-.333h-.001.001a.663.663 0 0 1 .575.333c.104.184.11.398.108.718h-1.367c-.003-.32.003-.534.108-.718zM106.338 165.654c0-.247-.145-.356-.438-.356h-.473v1.253h.188v-.544h.215l.328.544h.209l-.352-.552c.184-.023.323-.121.323-.345zm-.722.193v-.388h.256c.13 0 .269.029.269.184 0 .193-.142.204-.301.204h-.224z"/><path d="M105.843 164.838a1.08 1.08 0 0 0-1.092 1.084c0 .63.501 1.09 1.092 1.09.586 0 1.086-.459 1.086-1.09 0-.624-.5-1.084-1.086-1.084zm0 1.991c-.491 0-.875-.385-.875-.908 0-.514.384-.902.875-.902.487 0 .87.389.87.902-.001.524-.383.908-.87.908z"/></g><g fill="#593e9b"><path d="M46.205 5.519c-.207.096-.622.192-1.154.192-1.231 0-2.159-.72-2.159-2.045 0-1.265.928-2.123 2.283-2.123.544 0 .888.108 1.037.18l-.136.426a2.206 2.206 0 0 0-.883-.168c-1.024 0-1.705.605-1.705 1.667 0 .989.616 1.625 1.68 1.625.344 0 .693-.066.921-.168l.116.414zM50.508 3.588c0 1.391-.915 2.129-2.03 2.129-1.154 0-1.965-.828-1.965-2.051 0-1.283.862-2.123 2.03-2.123 1.192 0 1.965.846 1.965 2.045zm-3.392.066c0 .864.506 1.637 1.394 1.637.896 0 1.401-.762 1.401-1.679 0-.803-.454-1.643-1.395-1.643-.933 0-1.4.798-1.4 1.685zM54.919 3.876a27.653 27.653 0 0 1-.065-1.745h-.02c-.148.474-.33.978-.551 1.535l-.771 1.961h-.429l-.707-1.925a17.732 17.732 0 0 1-.506-1.571h-.013a50.274 50.274 0 0 1-.084 1.787l-.117 1.733h-.538l.305-4.042h.72l.746 1.955c.182.498.331.941.441 1.361h.02c.109-.408.266-.852.46-1.361l.778-1.955h.72l.272 4.042h-.552l-.109-1.775zM60.127 3.876a27.653 27.653 0 0 1-.065-1.745h-.02c-.149.474-.33.978-.551 1.535l-.771 1.961h-.429l-.707-1.925a17.732 17.732 0 0 1-.506-1.571h-.013a50.274 50.274 0 0 1-.084 1.787l-.117 1.733h-.538l.305-4.042h.72l.746 1.955c.182.498.331.941.441 1.361h.02c.109-.408.266-.852.46-1.361l.778-1.955h.72l.272 4.042h-.552l-.109-1.775zM32.971 5.568h5.5l-2.75-3.875z"/></g><path d="M80.671 247.176c0 1.135-.859 2.052-1.92 2.052h-11.03c-1.063 0-1.922-.917-1.922-2.052v-.51c0-1.137.859-2.056 1.922-2.056H78.75c1.061 0 1.92.919 1.92 2.056v.51zM107.347 247.176c0 1.135-.857 2.052-1.917 2.052H94.397c-1.058 0-1.916-.917-1.916-2.052v-.51c0-1.137.858-2.056 1.916-2.056h11.034c1.059 0 1.917.919 1.917 2.056v.51z" fill="#2b2b2b"/><g fill="#593e9b"><path d="M64.538 254.168c-.406-.386-.799-.498-1.121-.498-.441 0-.756.231-.756.567 0 .918 2.065.903 2.065 2.424 0 .749-.566 1.296-1.337 1.296-.519 0-.938-.141-1.338-.441v-.869c.35.448.791.693 1.261.693.532 0 .777-.336.777-.602 0-.988-2.066-1.1-2.066-2.409 0-.778.574-1.275 1.45-1.275.364 0 .729.112 1.064.336v.778zM68.186 253.734h-2.024v1.442h1.954v.616h-1.954v1.485h2.087v.616h-2.773v-4.776h2.711v.617zM69.654 257.278h2.157v.616h-2.844v-4.776h.687v4.16zM75.115 253.734h-2.024v1.442h1.954v.616h-1.954v1.485h2.087v.616h-2.773v-4.776h2.711v.617zM79.974 254.182c-.588-.344-1.093-.497-1.646-.497-1.093 0-1.905.777-1.905 1.828 0 1.071.784 1.813 1.933 1.813.54 0 1.128-.189 1.667-.539v.749c-.469.245-.98.421-1.729.421-1.793 0-2.578-1.38-2.578-2.382 0-1.457 1.1-2.521 2.62-2.521.49 0 .987.119 1.639.393v.735zM84.446 253.734h-1.652v4.16h-.687v-4.16h-1.653v-.616h3.992v.616z"/></g><g fill="#593e9b"><path d="M93.251 254.171c-.406-.386-.799-.498-1.121-.498-.441 0-.756.231-.756.567 0 .918 2.066.903 2.066 2.424 0 .749-.568 1.296-1.338 1.296-.518 0-.939-.141-1.338-.441v-.869c.35.448.791.693 1.26.693.533 0 .779-.336.779-.602 0-.988-2.066-1.1-2.066-2.409 0-.778.574-1.275 1.449-1.275.363 0 .729.112 1.064.336v.778zM97.774 253.737H96.12v4.16h-.686v-4.16h-1.652v-.616h3.992v.616zM101.862 257.897h-.701l-.637-1.408h-2.031l-.602 1.408h-.701l2.053-4.805h.482l2.137 4.805zm-3.103-2.024h1.486l-.771-1.729-.715 1.729zM103.605 253.121c.967 0 1.568.511 1.568 1.338 0 .553-.287.966-.799 1.169.434.287.701.729 1.064 1.324.203.329.322.49.652.945h-.82l-.631-.98c-.629-.98-.916-1.093-1.268-1.093h-.287v2.073h-.686v-4.776h1.207zm-.52 2.087h.441c.736 0 .945-.378.939-.777-.008-.448-.273-.722-.939-.722h-.441v1.499zM109.569 253.737h-1.654v4.16h-.686v-4.16h-1.652v-.616h3.992v.616z"/></g><g><path fill="#a3a3a3" d="M223.104 156.348h129.729v25.773H223.104z"/><path d="M336.187 158.391h18.03v-3.885c0-.573-.466-1.038-1.038-1.038H342.44v-6.229c0-.573-.465-1.038-1.038-1.038H222.758c-.573 0-1.038.465-1.038 1.038v11.153h17.455a14.694 14.694 0 0 0-2.881 3.261H221.72v2.175h13.409c-.32.742-.578 1.516-.771 2.316H221.72v2.111h12.286a14.814 14.814 0 0 0 .011 2.854H221.72v2.22h12.699c.203.776.472 1.527.794 2.248H221.72v2.169h14.69a14.731 14.731 0 0 0 2.795 3.106H221.72v115.747l5.42 1.374h121.656l5.42-1.374V180.852h-18.059a14.731 14.731 0 0 0 2.795-3.106h15.265v-2.169H340.15c.322-.721.591-1.472.793-2.248h13.274v-2.22h-12.872c.05-.493.076-.994.076-1.499 0-.457-.024-.909-.065-1.355h12.861v-2.111h-13.212a14.568 14.568 0 0 0-.772-2.316h13.984v-2.175h-15.149a14.677 14.677 0 0 0-2.881-3.262z" fill="#bcbcbc"/><path d="M250.434 183.562c-7.707 0-13.953-6.247-13.953-13.952 0-7.707 6.247-13.954 13.953-13.954h74.495c7.706 0 13.954 6.247 13.954 13.954 0 7.706-6.247 13.952-13.954 13.952h-74.495zM338.679 276.737a2.422 2.422 0 0 1-2.422 2.421h-97.499a2.423 2.423 0 0 1-2.422-2.421v-86.025a2.423 2.423 0 0 1 2.422-2.422h97.499a2.422 2.422 0 0 1 2.422 2.422v86.025zM296.387 282.127c1.237 0 1.522 1.188.721 1.989-1.47 1.472-8.85 9.37-8.85 9.37s-.346.389-.75.389c-.431 0-.749-.389-.749-.389s-7.38-7.898-8.851-9.37c-.801-.8-.516-1.989.721-1.989h17.758zM227.141 297.973l-5.42-1.374V208.73h5.075c.191 0 .346.154.346.345v88.898zM348.797 297.973l5.42-1.374V208.73h-5.074a.346.346 0 0 0-.346.345v88.898z" fill="#a3a3a3"/><g fill="#bcbcbc"><path d="M324.673 172.677v-2.621h-.979v-.351h2.355v.351h-.984v2.621h-.392zM326.752 172.677v-2.972h.592l.703 2.104c.065.196.112.343.142.44.034-.108.087-.267.159-.476l.711-2.068h.529v2.972h-.379v-2.487l-.864 2.487h-.354l-.86-2.53v2.53h-.379z"/></g><g fill-rule="evenodd" clip-rule="evenodd" fill="#bcbcbc"><path d="M296.578 169.823c.112-.202.229-.401.337-.604.612-1.155 1.24-2.302 1.821-3.472.303-.532.133-.503.752-.446.395.036.387.008.4.411.028.933.068 1.865.101 2.798.015.396.024.793.038 1.19l.104 2.744c.003.074.001.148.001.234h-1.035l-.161-4.862a.876.876 0 0 1-.06-.015l-2.625 4.898-.064-.016-1.228-5.087-.056-.001c-.094.279-.19.558-.282.837-.453 1.375-.903 2.751-1.361 4.124-.018.053-.085.126-.132.127-.327.012-.653.006-1.007.006l.293-.911 1.553-4.795c.165-.511.329-1.023.488-1.535.033-.108.088-.147.201-.142.198.009.398.013.596-.001.147-.01.205.045.238.184.21.897.43 1.794.645 2.691.131.543.259 1.087.388 1.63l.055.013zM307.884 172.659l1.097-7.38c.108-.006.206-.017.302-.017.445-.002.889 0 1.334 0 .763-.001 1.485.535 1.639 1.282.138.667.06 1.314-.396 1.868-.059.07-.111.147-.175.234l.155.12c.508.386.793.888.819 1.536.048 1.235-.811 2.267-2.048 2.353-.878.063-1.765.026-2.646.031-.021 0-.043-.015-.081-.027zm1.933-.969l.001.018c.272-.019.551-.012.818-.061.57-.109 1.013-.662.988-1.197-.027-.601-.488-1.124-1.082-1.192-.316-.037-.64-.022-.959-.039-.122-.006-.165.046-.18.157-.041.313-.09.623-.134.935-.056.392-.105.784-.161 1.177-.02.145.017.218.183.206.175-.014.351-.004.526-.004zm.153-3.481c.653-.001 1.002-.199 1.231-.698.233-.504.029-1.238-.67-1.248-.151-.003-.303 0-.453-.017-.178-.021-.247.051-.268.225-.053.445-.123.887-.186 1.33-.058.408-.057.408.346.408zM319.362 168.003c-.03.895-.286 1.726-.614 2.544-.274.677-.677 1.257-1.26 1.692-.95.707-2.471.769-3.395-.065-.486-.438-.741-.999-.798-1.644-.077-.883.111-1.729.405-2.553.206-.578.425-1.15.806-1.644.506-.659 1.175-1.028 1.995-1.143.572-.08 1.117-.01 1.621.287.614.362.985.904 1.134 1.592.064.305.073.623.106.934zm-1.026-.144c-.027-.187-.041-.416-.097-.635a1.367 1.367 0 0 0-.735-.912c-.71-.358-1.732.008-2.201.643-.351.476-.568 1.016-.733 1.58-.189.643-.32 1.287-.235 1.963.091.723.622 1.281 1.438 1.279.668-.002 1.212-.312 1.59-.853.632-.904.921-1.927.973-3.065zM286.254 166.348c-.698-.17-1.382-.204-2.057-.07-1.064.211-2.011.641-2.563 1.647a3.13 3.13 0 0 0-.253 2.539c.147.466.453.805.887 1.014.675.327 1.361.327 2.044.009.128-.06.214-.141.225-.301.016-.244.052-.487.092-.728.025-.144-.035-.171-.159-.168-.291.005-.583.002-.911.002.035-.27.067-.52.101-.772.033-.246.034-.246.283-.246.58 0 1.158.003 1.738-.001.12-.001.171.029.153.159-.111.768-.215 1.535-.329 2.304a.467.467 0 0 1-.122.237c-.43.449-.984.636-1.581.711-.646.081-1.286.043-1.881-.244-.926-.447-1.493-1.175-1.639-2.205-.104-.74-.064-1.47.175-2.18.298-.888.879-1.553 1.651-2.068a4.694 4.694 0 0 1 2.122-.755 6.325 6.325 0 0 1 1.898.067c.273.051.277.046.239.323-.032.236-.072.471-.113.726zM305.559 172.676h-4.74c.35-2.46.699-4.903 1.047-7.357h3.847c-.05.309-.095.611-.155.91-.005.028-.104.054-.159.054-.777.003-1.555.009-2.333-.001-.189-.003-.264.045-.288.244-.065.562-.156 1.12-.237 1.68-.008.056 0 .114 0 .193h.217c.666 0 1.332.005 1.999-.003.153-.002.195.048.168.194-.052.274-.092.55-.14.843h-.199c-.672 0-1.345.003-2.017-.004-.149-.002-.22.037-.241.196a91.408 91.408 0 0 1-.272 1.869c-.024.155.025.201.183.201 1.087-.007 2.174-.003 3.262-.003h.204l-.146.984zM291.614 172.688c-.338 0-.664.003-.989-.005-.032-.001-.082-.072-.09-.114a83.903 83.903 0 0 1-.294-1.725c-.022-.145-.079-.196-.226-.195-.579.007-1.158.01-1.736-.002-.164-.003-.224.076-.28.202-.253.564-.513 1.125-.762 1.691-.042.097-.093.128-.195.127-.326-.005-.651-.001-.998-.001.193-.43.374-.839.56-1.247.465-1.019.933-2.036 1.397-3.055.445-.976.886-1.955 1.337-2.927.03-.065.134-.127.209-.133.215-.018.432.003.648-.01.135-.007.185.044.206.171.102.622.211 1.243.317 1.865l.725 4.26.164.967c.005.036.004.076.007.131zm-1.974-5.297l-.053-.006-1.017 2.225c.045.023.06.036.075.037l1.262.005c.112 0 .113-.062.097-.154-.078-.453-.15-.909-.227-1.363-.042-.247-.091-.495-.137-.744zM319.31 165.272c.294 0 .551.024.803-.005.312-.036.456.094.591.369.35.718.742 1.415 1.12 2.12.013.024.032.046.066.09.131-.172.255-.33.376-.492.496-.664.991-1.33 1.489-1.992.034-.045.098-.094.15-.096.384-.007.769-.005 1.206-.005-.135.189-.244.35-.361.505-.779 1.028-1.555 2.058-2.341 3.083-.173.227-.156.496-.196.749-.152.979-.291 1.96-.432 2.941-.019.136-.067.2-.223.191-.284-.017-.568-.005-.879-.005l.135-.918c.135-.924.271-1.846.397-2.771a.507.507 0 0 0-.071-.278c-.578-1.099-1.161-2.197-1.742-3.295-.024-.048-.045-.096-.088-.191z"/></g><g fill="#bcbcbc"><path d="M250.248 171.301a.272.272 0 0 1-.081-.094c-.616-.995-1.231-1.991-1.845-2.987-.037-.061-.074-.085-.147-.085-.404.005-.809.002-1.214.002l-.101.005v4.564h1.398v-3.154l.024-.007.061.094c.618.994 1.236 1.989 1.851 2.984.042.068.086.092.165.092.394-.005.789-.003 1.184-.003h.102v-4.567h-1.398l.001 3.156zM272.765 169.826c-.255-.139-.501-.251-.78-.271-.275-.02-.537.02-.786.138-.252.12-.459.292-.627.514-.414.549-.465 1.299-.073 1.845.594.829 1.374.927 2.262.5.004.053.008.103.01.151h1.343v-4.562h-1.349v1.685zm-.002 2.01c-.011.295-.254.493-.545.483a.516.516 0 0 1-.523-.51c-.009-.213-.002-.427-.002-.641h-.001c0-.197-.005-.394.001-.593.009-.322.211-.526.523-.537.305-.009.537.181.549.496.017.434.016.869-.002 1.302zM258.21 170.005c-.568-.584-1.531-.624-2.162-.092l-.101.079v-.308h-1.345v3.024h1.34c.002-.044.006-.085.006-.128 0-.595-.004-1.191 0-1.786 0-.096.015-.201.055-.286.125-.271.464-.414.769-.338.29.07.471.309.471.623v1.912h1.349c.003-.017.006-.026.006-.036 0-.562.007-1.125-.002-1.688-.007-.37-.122-.704-.386-.976zM269.772 170.843a1.251 1.251 0 0 0-.458-.92 1.608 1.608 0 0 0-2.076-.01l-.102.085v-.318h-1.349v3.023h1.35v-.135l-.002-1.807c0-.126.034-.239.109-.341a.691.691 0 0 1 .767-.237c.273.092.42.307.42.621l.001 1.777c0 .041.004.082.007.123h1.338c.004-.02.009-.034.009-.046-.002-.605.008-1.211-.014-1.815zM278.014 169.978c-.79-.687-2.096-.677-2.886.02-.725.64-.737 1.675-.023 2.327a2.11 2.11 0 0 0 1.444.551c.551-.003 1.021-.148 1.425-.474.804-.653.821-1.745.04-2.424zm-.873 1.19h-.01c0 .26.012.52-.004.779-.019.346-.267.567-.593.554-.256-.01-.466-.208-.513-.489a1.343 1.343 0 0 1-.02-.236c-.001-.405-.001-.808.002-1.213.001-.085.007-.172.025-.254.062-.3.295-.491.566-.476.289.016.505.237.537.547.004.046.01.092.01.138v.65zM264.88 170.104a2.098 2.098 0 0 0-1.375-.611c-.621-.044-1.18.116-1.652.532-.315.277-.511.625-.54 1.051-.038.553.184.999.609 1.335.634.501 1.353.602 2.115.372.531-.16.945-.481 1.185-.997.019-.04.03-.082.045-.123h-1.34c-.01.125-.012.243-.029.359-.04.287-.258.491-.525.5-.292.011-.537-.158-.58-.452-.041-.281-.031-.569-.043-.868h2.6c0-.049.003-.085-.001-.12a1.576 1.576 0 0 0-.469-.978zm-1.311.634c-.234 0-.467-.003-.701.002-.089.002-.117-.028-.107-.113.013-.107.007-.218.028-.324a.56.56 0 0 1 1.106.018c.021.132.021.266.032.416l-.358.001zM261.47 169.225h-.737v-.61h-1.375v.611h-.114c-.182.001-.363-.001-.543.004-.029.001-.081.031-.082.05-.007.127-.004.255-.004.393h.749v3.033h1.373v-3.036h.733v-.445zM252.461 172.707h1.357v-3.025h-1.357v3.025zM253.817 168.144h-1.363v.911h1.363v-.911z"/></g></g><g><path d="M614.276 6.805v77.536c0 5.106-12.289 9.586-30.765 12.108-1.612.22-3.27.425-4.972.614-2.796.311-5.708.58-8.719.801-6.576.485-13.62.748-20.946.748-7.33 0-14.378-.263-20.957-.748-25.842-1.906-44.445-7.241-44.445-13.523V6.805" fill="#bcbdbb"/><path d="M608.588 90.172V77.454c0-2.264-2.239-4.185-4.551-4.762-.758-.189-1.542-.14-2.307.013-4.927.983-11.115 1.823-18.218 2.47-1.612.147-3.27.284-4.972.41-2.796.208-5.708.387-8.719.535a427.91 427.91 0 0 1-20.946.499c-7.326 0-14.37-.175-20.946-.499-3.01-.148-5.923-.327-8.719-.535-1.702-.126-3.36-.263-4.972-.41-7.103-.647-13.291-1.487-18.218-2.47-.766-.153-1.55-.202-2.307-.013-2.312.577-4.551 2.498-4.551 4.762v12.717c7.402 3.605 21.457 6.417 38.756 7.693a286.49 286.49 0 0 0 20.957.748c7.326 0 14.37-.263 20.946-.748 3.01-.222 5.923-.49 8.719-.801 1.702-.189 3.36-.394 4.972-.614 10.96-1.496 19.744-3.681 25.076-6.277z" fill="#2c2e32"/><g fill="#1e2022"><path d="M578.54 75.585c1.702-.126 3.36-.263 4.972-.41V96.45c-1.612.22-3.27.425-4.972.614V75.585zM519.209 75.585c-1.702-.126-3.36-.263-4.972-.41V96.45c1.612.22 3.27.425 4.972.614V75.585z"/></g><g fill="#a3a3a2"><path d="M578.54 75.578c1.702-.126 3.36-.263 4.972-.41V6.805h-4.972v68.773zM519.209 75.578c-1.702-.126-3.36-.263-4.972-.41V6.805h4.972v68.773z"/></g><path d="M694.248 17.475c.116-.042.21-.128.21-.251v-7.068a3.36 3.36 0 0 0-3.35-3.35h-76.764v77.536c0 5.106-12.289 9.586-30.765 12.108-1.612.22-3.27.425-4.972.614-2.796.311-5.708.58-8.719.801-6.576.485-13.62.748-20.946.748-7.33 0-14.378-.263-20.957-.748-25.842-1.906-44.445-7.241-44.445-13.523V6.805h-76.899a3.36 3.36 0 0 0-3.35 3.35v7.068c0 .124.094.209.21.251.476.174.836.925.836 1.818v.931c0 .893-.36 1.644-.836 1.818-.116.042-.21.128-.21.251v4.445c0 .124.094.209.21.251.476.174.836.925.836 1.818v.931c0 .893-.36 1.644-.836 1.818-.116.042-.21.128-.21.251v4.658c.575 0 1.046.835 1.046 1.856v.931c0 1.021-.471 1.856-1.046 1.856v4.658c0 .124.094.209.21.251.476.174.836.925.836 1.818v.931c0 .893-.36 1.644-.836 1.818-.116.042-.21.128-.21.251v4.445c0 .124.094.209.21.251.476.174.836.925.836 1.818v.931c0 .893-.36 1.644-.836 1.818-.116.042-.21.128-.21.251v234.271a3.36 3.36 0 0 0 3.35 3.351h284.467a3.36 3.36 0 0 0 3.35-3.351V60.351c0-.124-.094-.209-.21-.251-.475-.174-.836-.925-.836-1.818v-.931c0-.893.36-1.644.836-1.818.116-.042.21-.128.21-.251v-4.445c0-.124-.094-.209-.21-.251-.475-.174-.836-.925-.836-1.818v-.931c0-.893.36-1.644.836-1.818.116-.042.21-.128.21-.251V41.11c-.575 0-1.046-.835-1.046-1.856v-.931c0-1.021.471-1.856 1.046-1.856v-4.658c0-.124-.094-.209-.21-.251-.475-.174-.836-.925-.836-1.818v-.931c0-.893.36-1.644.836-1.818.116-.042.21-.128.21-.251v-4.445c0-.124-.094-.209-.21-.251-.475-.174-.836-.925-.836-1.818v-.931c0-.895.361-1.646.836-1.82z" fill="#b0b0ad"/><path d="M548.875 196.924c74.199 0 131.978 2.235 134.35 4.471h-268.7c2.371-2.236 60.15-4.471 134.35-4.471z" fill="#969791"/><g fill="#979794"><path d="M403.291 22.08c.324 0 .59-.835.59-1.856v-.931c0-1.021-.265-1.856-.59-1.856h7.181c.576 0 1.047.835 1.047 1.856v.931c0 1.021-.471 1.856-1.047 1.856h-7.181zM403.291 31.594c.324 0 .59-.835.59-1.856v-.931c0-1.021-.265-1.856-.59-1.856h7.181c.576 0 1.047.835 1.047 1.856v.931c0 1.021-.471 1.856-1.047 1.856h-7.181zM403.291 41.109c.324 0 .59-.835.59-1.856v-.931c0-1.021-.265-1.856-.59-1.856h7.181c.576 0 1.047.835 1.047 1.856v.931c0 1.021-.471 1.856-1.047 1.856h-7.181zM403.291 50.623c.324 0 .59-.835.59-1.856v-.931c0-1.021-.265-1.856-.59-1.856h7.181c.576 0 1.047.835 1.047 1.856v.931c0 1.021-.471 1.856-1.047 1.856h-7.181zM403.291 60.138c.324 0 .59-.835.59-1.856v-.931c0-1.021-.265-1.856-.59-1.856h7.181c.576 0 1.047.835 1.047 1.856v.931c0 1.021-.471 1.856-1.047 1.856h-7.181z"/><g><path d="M694.458 22.08c-.324 0-.59-.835-.59-1.856v-.931c0-1.021.266-1.856.59-1.856h-7.181c-.576 0-1.047.835-1.047 1.856v.931c0 1.021.471 1.856 1.047 1.856h7.181zM694.458 31.594c-.324 0-.59-.835-.59-1.856v-.931c0-1.021.266-1.856.59-1.856h-7.181c-.576 0-1.047.835-1.047 1.856v.931c0 1.021.471 1.856 1.047 1.856h7.181zM694.458 41.109c-.324 0-.59-.835-.59-1.856v-.931c0-1.021.266-1.856.59-1.856h-7.181c-.576 0-1.047.835-1.047 1.856v.931c0 1.021.471 1.856 1.047 1.856h7.181zM694.458 50.623c-.324 0-.59-.835-.59-1.856v-.931c0-1.021.266-1.856.59-1.856h-7.181c-.576 0-1.047.835-1.047 1.856v.931c0 1.021.471 1.856 1.047 1.856h7.181zM694.458 60.138c-.324 0-.59-.835-.59-1.856v-.931c0-1.021.266-1.856.59-1.856h-7.181c-.576 0-1.047.835-1.047 1.856v.931c0 1.021.471 1.856 1.047 1.856h7.181z"/></g></g><linearGradient id="a" gradientUnits="userSpaceOnUse" x1="548.875" y1="270.78" x2="548.875" y2="220.022"><stop offset="0" stop-color="#b1b1ae"/><stop offset=".013" stop-color="#b0b0ad"/><stop offset=".443" stop-color="#a1a29c"/><stop offset=".761" stop-color="#9c9d96"/><stop offset=".796" stop-color="#9c9d96"/><stop offset="1" stop-color="#9c9d96"/></linearGradient><path fill="url(#a)" d="M519.729 220.022h58.291v50.757h-58.291z"/><path d="M627.635 297.973l-.833-73.025c0-2.709-2.301-4.925-5.112-4.925H476.06c-2.812 0-5.112 2.216-5.112 4.925l-.833 73.025V223.23c0-2.773 2.325-5.041 5.167-5.041h147.187c2.842 0 5.167 2.269 5.167 5.041v74.743z" fill="#72736d"/><g fill="#91928c"><path d="M521.449 220.022h-1.72v41.153c1.002-14.047 1.872-25.219 1.72-41.153zM576.3 220.022h1.72v41.153c-1.002-14.047-1.872-25.219-1.72-41.153z"/></g><g fill-rule="evenodd" clip-rule="evenodd" fill="#9e9f9b"><path d="M571.088 117.57H526.66c-4.701-.011-7.86 3.406-7.86 7.503 0 4.096 3.151 7.474 7.867 7.475h44.413c4.716-.001 7.868-3.379 7.868-7.475.001-4.096-3.158-7.513-7.86-7.503zm-.022 13.142h-44.384c-3.748.014-6.026-2.529-6.026-5.649s2.292-5.643 6.026-5.65h44.384c3.735.007 6.027 2.53 6.027 5.65 0 3.119-2.279 5.663-6.027 5.649z"/><path d="M529.947 126.438l-3.007-4.917h-2.173v7.052h2.159v-4.917l3.023 4.917h2.152v-7.052h-2.155zM547.061 123.892v-.696h-1.136v-.949h-2.099l.001.95h-1.14v.695h1.139v4.681h2.101l-.002-4.681zM533.303 123.884h2.098v4.69h-2.098zM533.298 121.52h2.102v1.442h-2.102zM570.061 123.564c-1.693 0-3.065 1.179-3.065 2.634 0 1.453 1.372 2.632 3.065 2.632 1.694 0 3.066-1.179 3.066-2.632 0-1.455-1.371-2.634-3.066-2.634zm.841 3.62c0 .747-.436 1.056-.857 1.056-.42 0-.859-.309-.859-1.056l.002-1.011.001-.978c0-.744.438-1.05.856-1.05s.857.306.857 1.05l.001.998c.001.005-.001.707-.001.991zM564.243 124.116c-.336-.19-.689-.374-1.187-.418-1.511-.134-2.667 1.217-2.667 2.455a2.503 2.503 0 0 0 1.435 2.325 2.5 2.5 0 0 0 2.415-.176l.001.27h2.073v-7.051h-2.071l.001 2.595zm.015 2.089v.832c0 .725-.495.914-.822.914-.334 0-.823-.189-.823-.914l.001-.833-.001-.837c0-.725.489-.909.823-.909.327 0 .822.184.822.909v.838zM540.311 123.668c-.693.02-1.271.32-1.673.707-.002-.115 0-.493 0-.493l-2.084.002.002 4.689h2.083l-.002-3.08c0-.409.425-.863.997-.863.571 0 .958.454.958.863v3.08h2.084s-.002-2.222.001-2.55c.01-1.859-1.583-2.378-2.366-2.355zM557.358 123.668c-.694.02-1.271.32-1.673.707-.003-.115 0-.493 0-.493l-2.081.002-.002 4.689h2.083l-.003-3.08c0-.409.426-.863.997-.863s.958.454.958.863v3.08h2.084s-.001-2.222.002-2.55c.01-1.859-1.582-2.378-2.365-2.355zM552.967 126.249c0-1.455-1.388-2.66-3.094-2.66-1.705 0-3.089 1.179-3.089 2.632 0 1.455 1.384 2.634 3.089 2.634 1.415 0 2.61-.817 2.976-1.925l-2.091.002s.002.021.002.284c0 .858-.558 1.049-.867 1.049-.311 0-.878-.191-.878-1.049l.003-.968h3.949zm-3.814-1.651a.856.856 0 0 1 .738-.427h-.001 0a.851.851 0 0 1 .737.427c.134.236.141.51.138.92h-1.751c-.003-.41.006-.684.139-.92zM574.198 122.049c0-.316-.186-.456-.561-.456h-.606v1.606h.241v-.696h.276l.42.696h.268l-.451-.707c.235-.03.413-.155.413-.443zm-.925.247v-.497h.329c.166 0 .345.037.345.236 0 .247-.181.261-.385.261h-.289z"/><path d="M573.563 121.004c-.757 0-1.399.59-1.399 1.388 0 .807.642 1.396 1.399 1.396.751 0 1.391-.589 1.391-1.396a1.378 1.378 0 0 0-1.391-1.388zm0 2.552c-.629 0-1.121-.493-1.121-1.164 0-.658.492-1.156 1.121-1.156.624 0 1.114.498 1.114 1.156.001.671-.49 1.164-1.114 1.164z"/></g><circle cx="678.273" cy="95.09" r="6.52" fill="#2b2726"/><path fill="#544237" d="M682.133 96.457l-.747-4.027-3.86-1.366-3.113 2.66.747 4.026 3.86 1.367z"/><path fill="#90804f" d="M681.747 96.32l-.672-3.624-3.474-1.229-2.802 2.394.672 3.623 3.474 1.23z"/><circle cx="678.273" cy="281.924" r="6.52" fill="#2b2726"/><path fill="#544237" d="M682.133 283.29l-.747-4.026-3.86-1.366-3.113 2.66.747 4.026 3.86 1.366z"/><path fill="#90804f" d="M681.747 283.154l-.672-3.624-3.474-1.229-2.802 2.394.672 3.623 3.474 1.23z"/><g><circle cx="419.476" cy="95.101" r="6.52" fill="#2b2726"/><path fill="#544237" d="M415.616 96.467l.747-4.026 3.86-1.366 3.113 2.66-.747 4.026-3.86 1.366z"/><path fill="#90804f" d="M416.002 96.33l.672-3.623 3.474-1.23 2.802 2.394-.672 3.624-3.474 1.229z"/></g><g><circle cx="419.476" cy="281.934" r="6.52" fill="#2b2726"/><path fill="#544237" d="M415.616 283.301l.747-4.027 3.86-1.366 3.113 2.66-.747 4.026-3.86 1.367z"/><path fill="#90804f" d="M416.002 283.164l.672-3.624 3.474-1.229 2.802 2.394-.672 3.623-3.474 1.23z"/></g><g><g fill="none" stroke="#8f8f8e" stroke-width="1.607" stroke-miterlimit="10"><path d="M649.951 6.805v291.168M447.798 6.805v291.168"/></g></g><g fill="#585954"><path d="M448.567 201.394h-1.536v-2.781l1.536-.062v2.843zM649.183 201.394h1.536v-2.781l-1.536-.062v2.843z"/></g><path d="M548.875 189.482h64.429c3.627 0 6.595-2.968 6.595-6.595v-24.873c0-1.794-.828-3.531-2.322-4.524-8.403-5.589-37.287-8.307-64.97-9.54a83.715 83.715 0 0 0-7.465 0c-27.683 1.233-56.567 3.951-64.97 9.54-1.494.994-2.322 2.73-2.322 4.524v24.873c0 3.627 2.968 6.595 6.595 6.595h64.43z" fill="#b5b7b4" stroke="#989898" stroke-width=".381" stroke-miterlimit="10"/><g><g fill="#2a2c2b"><path d="M554.983 167.652h3.212l1.587 3.648 2.378-3.648h3.292l-4.639 7.216-.754 5.63h-2.974l.872-6.423-2.974-6.423zm-23.632 12.846l.397-2.855h-4.52l.277-2.22h3.925l.397-2.855h-3.885l.277-2.062h4.52l.436-2.854h-7.493l-1.785 12.846h7.454zm-26.685-6.345l.991-2.656.317 2.656h-1.308zm-1.071 2.538h2.696l.476 3.807h4.877l2.26-6.978 1.11 6.978h2.577l2.855-7.374.476 7.374h2.855l-.793-12.847h-3.41l-2.656 6.78-1.031-6.78h-3.053l-3.489 10.547-1.309-10.547h-3.807l-4.242 10.666.555-4.164h-5.155l-.357 2.538h2.26l-.158.873c-.397.238-1.308.278-1.665.278s-3.013-.238-2.894-3.092c.119-2.855 3.925-5.512 8.446-4.044l.436-2.736c-3.014-1.031-10.928-.454-11.737 6.621-.475 4.164 3.331 6.146 5.869 6.107 1.467.079 3.132-.476 3.727-.793l-.198.594h3.014l1.465-3.808z"/><path d="M551.772 167.532c-2.062-.079-5.036 1.11-6.027 5.908-.992 4.798 1.665 6.74 4.123 7.058 2.459.317 5.908-1.229 6.543-5.828.634-4.6-1.626-7.018-4.639-7.138zm-.318 2.736c.833 0 2.617.555 2.181 3.885-.436 3.331-2.498 3.727-3.251 3.649-.754-.079-2.3-.594-1.864-3.649.436-3.052 2.062-3.924 2.934-3.885z"/><path d="M539.242 172.568h1.664c1.229 0 1.468-.793 1.507-1.11s-.317-.952-.951-.952h-1.943l-.277 2.062zm-.714 5.075h2.26c1.229 0 1.507-.951 1.547-1.269.04-.316-.317-.951-.951-.951h-2.538l-.318 2.22zm-3.331 2.855l1.784-12.847h5.472c1.308 0 3.212 1.507 2.974 3.529-.237 2.022-.872 2.141-1.308 2.458.674.595 1.348 1.546 1.071 3.331-.278 1.784-1.745 3.529-4.323 3.529h-5.67z"/></g><path d="M499.991 158.885c1.829.503 3.666.975 5.474 1.553.515.165 1.037.316 1.494.625.342.232.647.494.81.887.305.597.327 1.215.109 1.839-.108.311-.339.529-.629.684-.555.298-1.153.479-1.76.631-1.602.401-3.234.63-4.869.839a121.67 121.67 0 0 1-4.345.475c-1.153.106-2.305.217-3.461.299-.766.054-1.533.115-2.299.186-.153.014-.288-.003-.398-.12-.409-.352-.57-1.19-.319-1.671a.601.601 0 0 1 .407-.333 3.243 3.243 0 0 1 1.32-.015c.144.027.266.1.308.236.047.152.135.158.264.148 4.088-.308 8.163-.719 12.191-1.51.79-.155 1.573-.34 2.334-.605.141-.049.379-.104.394-.216.048-.239-.214-.378-.43-.462-.812-.313-1.643-.569-2.475-.82a100.083 100.083 0 0 0-3.948-1.113 1.894 1.894 0 0 1-.907-.523c-.516-.609-.684-1.338-.703-2.112-.006-.266.181-.446.369-.607.249-.213.541-.36.834-.504 1.353-.663 2.772-1.135 4.236-1.489 1.664-.402 3.339-.731 5.053-.813.918-.044 1.822.055 2.721.242.587.122 1.076.361 1.325.947.227.395.306.823.293 1.274-.014.507-.206.929-.603 1.249a7.017 7.017 0 0 1-2.129 1.157c-.143.05-.253.077-.441.001-.192-.084-.284-.231-.331-.447-.018-.083-.025-.16-.034-.241-.069-.642.065-1.027.8-1.155.524-.092 1.017-.304 1.487-.558.087-.047.226-.129.23-.18.041-.194-.167-.346-.366-.429-.5-.208-1.031-.269-1.558-.349-.944-.144-1.877-.012-2.808.125-2.003.293-3.962.764-5.856 1.487-.643.245-1.274.518-1.885.837-.04.021-.081.041-.119.066-.077.05-.155.106-.151.21.006.116.112.19.371.275zM535.144 159.726c-.271-.711-.766-.98-1.514-.814-2.127.47-4.118 1.283-6.005 2.359-.531.288-1.162.644-1.558.917.381-.352.77-.848 1.202-1.305.489-.518.97-1.044 1.457-1.564.056-.06.112-.12.1-.212-.177-.307-.402-.577-.625-.85-.132-.162-.276-.2-.476-.123-.415.16-.803.372-1.187.591-1.656.945-3.248 1.995-4.88 2.98-1.004.606-1.991 1.245-3.076 1.705-.156.049-.43.122-.511.004-.077-.114.052-.234.12-.333.554-.815 1.208-1.549 1.872-2.275.488-.533.997-1.043 1.505-1.556.051-.051.104-.101.118-.177-.198-.29-.407-.574-.592-.872-.118-.19-.19-.232-.394-.067-3.05 2.452-6.319 4.543-9.978 5.983-.46.152-.601.127-.658.023-.049-.09.028-.152.084-.208.543-.544 1.063-1.112 1.636-1.623a60.719 60.719 0 0 1 3.825-3.112c.101-.076.209-.145.248-.277-.226-.326-.458-.649-.676-.98-.085-.129-.146-.142-.27-.042-.471.382-.957.746-1.427 1.129-1.412 1.15-2.807 2.319-3.998 3.707-.313.365-.598.749-.808 1.186-.147.306-.169.597.008.903.145.251.29.5.486.715.264.307.611.326.97.264.276-.047.545-.129.808-.232 1.529-.597 2.98-1.353 4.406-2.16.49-.277.977-.562 1.476-.865-.081.296-.159.498-.277.808-.053.22-.083.438.021.653.091.187.242.329.362.494.259.313.591.423.989.369.29-.039.564-.128.831-.241a52.195 52.195 0 0 0 5.91-2.964c-.329.305-3.801 4.351-5.01 6.039-.377.527-.421.759-.076 1.106.508.434.722.493 1.015.165.722-.811 1.442-1.622 2.244-2.359a58.45 58.45 0 0 1 2.019-1.774c.192-.161.332-.178.541-.022.654.488 1.401.704 2.216.685.85-.02 1.641-.27 2.4-.629 1.813-.857 3.317-2.125 4.7-3.551.197-.203.36-.437.442-.71.09-.295.151-.596-.015-.888zm-1.964 1.227c-1.194 1.144-2.472 2.173-4.011 2.823-.742.313-1.51.503-2.322.274a2.092 2.092 0 0 1-.472-.202c-.148-.082-.123-.136.002-.222 2.227-1.543 4.61-2.752 7.256-3.4a1.45 1.45 0 0 1 .16-.029c.014-.002.064-.007.064.022-.191.283-.438.506-.677.734zM565.89 164.118c-.128-.349-.265-.511-.6-.61-1.26-.37-2.554-.509-3.856-.563-3.427-.143-6.832.118-10.222.614a4.82 4.82 0 0 1-.244.028c-.241.022-.231-.098-.155-.283.236-.577.491-1.146.73-1.721.184-.441.265-.884-.012-1.323a3.302 3.302 0 0 0-.626-.806 5.855 5.855 0 0 1-.783-.956 10.048 10.048 0 0 1-.071-.122c-.129-.223-.139-.42-.037-.672.152-.373.192-.77.047-1.164-.13-.216-.24-.444-.44-.613-.436-.367-1.027-.439-1.434-.167-.384.257-.487.745-.289 1.323.114.332.317.606.527.878.089.115.103.195-.028.309-2.051 1.785-4.195 3.442-6.573 4.775-1.44.807-2.928 1.503-4.565 1.814-.522.099-1.054.186-1.575-.026-.379-.371-.316-.466-.122-.881.134-.287.354-.523.561-.762a.364.364 0 0 1 .391-.109c.283.096.577.14.877.138 1.234-.006 2.362-.399 3.44-.961 1.095-.57 2.094-1.285 3.044-2.071.497-.411.583-.811.269-1.375-.378-.719-.87-.979-1.683-.907a5.084 5.084 0 0 0-1.368.324c-1.908.728-3.595 1.812-5.106 3.179-.559.506-1.062 1.062-1.446 1.717a3.035 3.035 0 0 0-.406 1.113c-.082.579.157 1.038.526 1.452.251.268.583.348.926.405.377.063.753.027 1.133.015.828-.026 1.61-.232 2.379-.505 1.624-.578 3.099-1.444 4.522-2.4 1.836-1.233 3.559-2.612 5.21-4.083.148-.132.252-.18.422.007.066.073.117.138.181.213.207.263.396.543.626.785.279.293.287.598.145.945a23.584 23.584 0 0 1-.988 2.082c-.335.631-.361 1.199.176 1.726.044.044.08.097.12.145.156.211.369.23.607.191a97.085 97.085 0 0 1 3.949-.55 51.96 51.96 0 0 1 4.729-.338c1.347-.038 2.689.103 4.029.236.325.032.599.057.664.442.025.261.429.215.463.215.591-.003 1.183 0 1.768-.109a.153.153 0 0 0 .121-.116c.065-.287.13-.548.047-.878zm-28.05-2.749c1.303-.988 2.689-1.825 4.28-2.269.199-.056.405-.087.61-.121a.51.51 0 0 1 .319.034c.17.083.173.271.027.391-.057.046-.113.094-.169.141-1.046.774-2.107 1.527-3.302 2.063-.544.244-1.098.463-1.705.497-.268.03-.534.045-.842-.062.279-.244.519-.475.782-.674z" fill="#2a2c2b"/><g fill="#2a2c2b"><path d="M562.578 179.022h-.648v1.682h-.456v-1.682h-.673v-.349h1.778v.349zM564.98 180.705h-.456v-1.649l-.395 1.649h-.457l-.395-1.641v1.641h-.457v-2.031h.668l.412 1.555.417-1.555h.664v2.031z"/></g><g><g fill="#2a2c2b"><ellipse cx="583.215" cy="164.343" rx="4.745" ry="2.029"/><path d="M596.328 168.179c0 1.121-2.125 2.029-4.745 2.029-2.621 0-4.745-.908-4.745-2.029s2.125-2.029 4.745-2.029c2.621 0 4.745.908 4.745 2.029zM596.553 167.189c-.398-2.396-2.25-5.14-4.952-4.189 2.48-4.835 6.457-3.764 7.739-1.969 1 1.398.661 5.92-2.787 6.158zM589.021 163.048c-.403-2.321-2.261-4.983-4.96-4.067 2.469-4.677 6.447-3.631 7.734-1.89 1.001 1.355.673 5.734-2.774 5.957z"/></g><g fill="#2a2c2b"><path d="M605.67 179.022h-.648v1.682h-.456v-1.682h-.673v-.349h1.778v.349zM608.072 180.705h-.456v-1.649l-.395 1.649h-.457l-.395-1.641v1.641h-.457v-2.031h.668l.412 1.555.417-1.555h.664v2.031z"/></g><g fill="#2a2c2b"><path d="M578.853 177.755c.09.166.135.347.135.541 0 .097-.01.196-.031.297l-.265 1.441a.862.862 0 0 1-.286.479.815.815 0 0 1-.536.192h-1.243a.612.612 0 0 1-.463-.198.665.665 0 0 1-.182-.473v-.12l.328-1.894h.864l-.281 1.602v.026c0 .059.021.111.062.156a.2.2 0 0 0 .151.068h.479a.343.343 0 0 0 .328-.26l.187-1.051a.45.45 0 0 0 .01-.099c0-.142-.061-.321-.182-.536-.056-.1-.204-.378-.447-.832l-.468-.884a1.69 1.69 0 0 1-.198-.77c0-.077.005-.152.016-.229l.224-1.29a.815.815 0 0 1 .291-.484.788.788 0 0 1 .525-.192h1.248c.181 0 .337.066.468.198a.645.645 0 0 1 .203.479.595.595 0 0 1-.01.12l-.328 1.836h-.874l.276-1.545a.054.054 0 0 0 .01-.031.211.211 0 0 0-.068-.156.235.235 0 0 0-.156-.057h-.479a.312.312 0 0 0-.203.073.281.281 0 0 0-.109.172l-.151.827c-.01.062-.016.126-.016.192 0 .25.079.503.239.759.573.981.884 1.529.932 1.643zM580.237 179.622v.026c0 .059.019.111.057.156a.215.215 0 0 0 .156.068h.479c.17 0 .276-.087.317-.26l1.155-6.367h.884l-1.243 6.789a.824.824 0 0 1-.286.479.815.815 0 0 1-.536.192h-1.254c-.177 0-.329-.066-.458-.198s-.192-.29-.192-.473v-.13l1.202-6.659h.864l-1.145 6.377zM582.666 180.705l1.353-7.46h1.961c.184 0 .34.066.468.198a.651.651 0 0 1 .198.479.69.69 0 0 1-.016.12l-.479 2.643a.805.805 0 0 1-.281.484.788.788 0 0 1-.525.192h-1.17l-.609 3.345h-.9zm2.378-4.183a.312.312 0 0 0 .203-.073.26.26 0 0 0 .104-.177l.369-1.94v-.031a.215.215 0 0 0-.062-.156.217.217 0 0 0-.151-.057h-.744l-.453 2.435h.734zM587.395 173.245h2.024l-.146.843h-1.124l-.421 2.356h1.118l-.156.832h-1.113l-.463 2.596h1.103l-.151.832h-2.024l1.353-7.459zM591.12 177.625a.208.208 0 0 0-.062-.151.205.205 0 0 0-.151-.062h-.723l-.583 3.293h-.91l1.337-7.46h2.003c.181 0 .337.066.468.198a.672.672 0 0 1 .208.473.858.858 0 0 1-.021.125l-.416 2.351a.762.762 0 0 1-.577.624.51.51 0 0 1 .276.239.633.633 0 0 1 .068.38c0 .052-.002.092-.005.12l-.541 2.95h-.916l.546-3.054v-.026zm-.052-1.103a.297.297 0 0 0 .203-.078.277.277 0 0 0 .104-.182l.354-1.93v-.031a.215.215 0 0 0-.062-.156.242.242 0 0 0-.161-.057h-.718l-.442 2.435h.722zM593.674 180.705l1.352-7.46h.9c.26 2.691.395 4.59.406 5.696.035-.978.305-2.877.812-5.696h.9l-1.352 7.46h-.9c-.256-2.681-.39-4.535-.401-5.561-.035.86-.305 2.714-.811 5.561h-.906zM598.668 173.245h2.024l-.146.843h-1.124l-.421 2.356h1.118l-.156.832h-1.113l-.463 2.596h1.103l-.151.832h-2.024l1.353-7.459zM602.834 177.755c.09.166.135.347.135.541 0 .097-.01.196-.031.297l-.265 1.441a.862.862 0 0 1-.286.479.815.815 0 0 1-.536.192h-1.243a.612.612 0 0 1-.463-.198.665.665 0 0 1-.182-.473v-.12l.328-1.894h.864l-.281 1.602v.026c0 .059.021.111.062.156s.092.068.151.068h.479a.343.343 0 0 0 .328-.26l.187-1.051a.45.45 0 0 0 .01-.099c0-.142-.061-.321-.182-.536-.056-.1-.204-.378-.447-.832l-.468-.884a1.69 1.69 0 0 1-.198-.77c0-.077.005-.152.016-.229l.224-1.29a.815.815 0 0 1 .291-.484.788.788 0 0 1 .525-.192h1.248c.181 0 .337.066.468.198a.645.645 0 0 1 .203.479.595.595 0 0 1-.01.12l-.328 1.836h-.874l.276-1.545a.054.054 0 0 0 .01-.031.211.211 0 0 0-.068-.156.235.235 0 0 0-.156-.057h-.479a.312.312 0 0 0-.203.073.281.281 0 0 0-.109.172l-.151.827c-.01.062-.016.126-.016.192 0 .25.08.503.239.759.574.981.884 1.529.932 1.643z"/></g></g></g><path d="M483.473 84.341c0 11.61 29.546 22.801 65.597 22.801s65.207-11.19 65.207-22.801h.068c0 5.106-12.289 9.586-30.765 12.108-1.612.22-3.27.425-4.972.614-2.796.311-5.708.58-8.719.801-6.576.485-13.62.748-20.946.748-7.33 0-14.378-.263-20.957-.748-25.842-1.906-44.445-7.241-44.445-13.523" fill="#b7b6b6"/></g></svg>