<svg xmlns="http://www.w3.org/2000/svg" xmlns:xlink="http://www.w3.org/1999/xlink" viewBox="0 0 593.389 723.5"><path fill="#0B0B0B" d="M160.986 723.5c-4.756 0-8.625-3.869-8.625-8.625v-455.5c0-4.756 3.869-8.625 8.625-8.625h281.75c4.756 0 8.625 3.869 8.625 8.625v455.5c0 4.756-3.869 8.625-8.625 8.625h-281.75z"/><path fill="#282828" d="M442.736 721.5h-281.75c-3.644 0-6.625-2.981-6.625-6.625v-455.5c0-3.644 2.981-6.625 6.625-6.625h281.75c3.644 0 6.625 2.981 6.625 6.625v455.5c0 3.644-2.981 6.625-6.625 6.625z"/><path fill="#989D9B" d="M149.944 171.25h8v75.25h-8z"/><path fill="#0B0B0B" d="M165.778 168.25h271.833v91.863H165.778z"/><path fill="#282828" d="M167.278 169.75h268.833v88.863H167.278z"/><path fill="#0E0E0E" d="M168.778 171.25h265.833v85.863H168.778z"/><path fill="#0B0B0B" d="M152.069 163.375V7.875A7.875 7.875 0 0 1 159.944 0h283.5a7.875 7.875 0 0 1 7.875 7.875v155.5a7.875 7.875 0 0 1-7.875 7.875h-283.5a7.875 7.875 0 0 1-7.875-7.875z"/><path fill="#282828" d="M443.444 171.25h-283.5c-3.781 0-6.875-3.094-6.875-6.875V7.875c0-3.781 3.094-6.875 6.875-6.875h283.5c3.781 0 6.875 3.094 6.875 6.875v156.5c0 3.781-3.093 6.875-6.875 6.875z"/><path fill="#0E0E0E" d="M440.319 171.25h-277.25c-3.781 0-6.875-3.094-6.875-6.875v-153.5c0-3.781 3.094-6.875 6.875-6.875h277.25c3.781 0 6.875 3.094 6.875 6.875v153.5c0 3.781-3.093 6.875-6.875 6.875z"/><path fill="#121212" d="M301.694 150.469c-38.543 0-69.9-31.357-69.9-69.9s31.357-69.9 69.9-69.9 69.9 31.357 69.9 69.9-31.357 69.9-69.9 69.9z"/><path fill="#0A0A0A" d="M301.694 147.469c-36.889 0-66.9-30.011-66.9-66.9s30.011-66.9 66.9-66.9 66.9 30.011 66.9 66.9-30.011 66.9-66.9 66.9z"/><path fill="#101010" d="M301.694 147.469c-36.889 0-66.9-30.011-66.9-66.9s30.011-66.9 66.9-66.9 66.9 30.011 66.9 66.9-30.011 66.9-66.9 66.9z"/><path fill="#282829" d="M301.694 145.462c-35.782 0-64.893-29.111-64.893-64.893s29.111-64.893 64.893-64.893 64.893 29.111 64.893 64.893c.001 35.782-29.111 64.893-64.893 64.893z"/><circle fill="#D8D9D8" cx="301.694" cy="80.569" r="52.9"/><path fill="#8E8F8E" d="M157.944 171.25h8v75.25h-8z"/><path fill="#989D9B" d="M445.611 171.25h8v75.25h-8z"/><path fill="#8E8F8E" d="M437.611 171.25h8v75.25h-8z"/><path fill="#0E0E0E" d="M440.819 721.5h-278.25c-3.644 0-6.625-2.981-6.625-6.625v-452.75c0-3.644 2.981-6.625 6.625-6.625h278.25c3.644 0 6.625 2.981 6.625 6.625v452.75c0 3.644-2.981 6.625-6.625 6.625z"/><path fill="#181818" d="M175.694 250.125V178.25a4.764 4.764 0 0 1 4.75-4.75h242a4.765 4.765 0 0 1 4.75 4.75v71.875l18.833 14.708v439.583c0 2.979-2.438 5.417-5.417 5.417H162.278c-2.979 0-5.417-2.438-5.417-5.417V264.833l18.833-14.708z"/><path fill="#282627" d="M241.828 425.109h-48c-6.6 0-12-5.4-12-12v-52.75c0-6.6 5.4-12 12-12h48c6.6 0 12 5.4 12 12v52.75c0 6.6-5.4 12-12 12z"/><path fill="#939393" d="M240.078 425.109h-44.964c-6.6 0-12-5.4-12-12v-46.112c0-6.6 5.4-12 12-12h44.964c6.6 0 12 5.4 12 12v46.112c0 6.6-5.4 12-12 12z"/><path fill="#B3B3B3" d="M240.328 425.109h-44.964c-6.6 0-12-5.4-12-12v-39.75c0-6.6 5.4-12 12-12h44.964c6.6 0 12 5.4 12 12v39.75c0 6.6-5.4 12-12 12z"/><path d="M219.046 381.083h-.099l-5.651 3.05-.85-3.349 7.1-3.801h3.701v32.502h-4.201z"/><path fill="#282627" d="M325.694 425.109h-48c-6.6 0-12-5.4-12-12v-52.75c0-6.6 5.4-12 12-12h48c6.6 0 12 5.4 12 12v52.75c0 6.6-5.4 12-12 12z"/><path fill="#939393" d="M323.944 425.109H278.98c-6.6 0-12-5.4-12-12v-46.112c0-6.6 5.4-12 12-12h44.964c6.6 0 12 5.4 12 12v46.112c0 6.6-5.4 12-12 12z"/><path fill="#B3B3B3" d="M323.944 425.109H278.98c-6.6 0-12-5.4-12-12v-39.75c0-6.6 5.4-12 12-12h44.964c6.6 0 12 5.4 12 12v39.75c0 6.6-5.4 12-12 12z"/><path d="M300.588 369.885h-.108l-6.102 3.294-.918-3.618 7.668-4.104h3.996v35.101h-4.536z"/><path fill="#282627" d="M325.444 425.109h-48c-6.6 0-12-5.4-12-12v-52.75c0-6.6 5.4-12 12-12h48c6.6 0 12 5.4 12 12v52.75c0 6.6-5.4 12-12 12z"/><path fill="#939393" d="M323.694 425.109H278.73c-6.6 0-12-5.4-12-12v-46.112c0-6.6 5.4-12 12-12h44.964c6.6 0 12 5.4 12 12v46.112c0 6.6-5.4 12-12 12z"/><path fill="#B3B3B3" d="M324.176 425.109h-44.964c-6.6 0-12-5.4-12-12v-39.75c0-6.6 5.4-12 12-12h44.964c6.6 0 12 5.4 12 12v39.75c0 6.6-5.4 12-12 12z"/><path d="M291.319 409.76v-2.7l3.5-3.3c8.251-7.9 12.051-12.15 12.101-17.051 0-3.301-1.6-6.4-6.45-6.4-2.95 0-5.4 1.55-6.9 2.8l-1.4-3.101c2.251-1.899 5.451-3.3 9.201-3.3 7 0 9.9 4.8 9.9 9.45 0 6.001-4.351 10.851-11.15 17.451l-2.601 2.45v.1h14.551v3.601h-20.752z"/><path fill="#282627" d="M409.061 425.109h-48c-6.6 0-12-5.4-12-12v-52.75c0-6.6 5.4-12 12-12h48c6.6 0 12 5.4 12 12v52.75c0 6.6-5.4 12-12 12z"/><path fill="#939393" d="M407.311 425.109h-44.964c-6.6 0-12-5.4-12-12v-46.112c0-6.6 5.4-12 12-12h44.964c6.6 0 12 5.4 12 12v46.112c0 6.6-5.4 12-12 12z"/><path fill="#B3B3B3" d="M407.793 425.109h-44.964c-6.6 0-12-5.4-12-12v-39.75c0-6.6 5.4-12 12-12h44.964c6.6 0 12 5.4 12 12v39.75c0 6.6-5.4 12-12 12z"/><path d="M376.36 404.434c1.25.801 4.101 2.051 7.201 2.051 5.65 0 7.4-3.601 7.351-6.301-.051-4.55-4.15-6.5-8.401-6.5h-2.45v-3.3h2.45c3.2 0 7.251-1.65 7.251-5.501 0-2.6-1.65-4.9-5.7-4.9-2.601 0-5.101 1.15-6.501 2.15l-1.149-3.2c1.7-1.25 5-2.5 8.5-2.5 6.4 0 9.351 3.8 9.351 7.75 0 3.4-2.05 6.201-6.05 7.701v.1c4 .75 7.25 3.75 7.25 8.301 0 5.2-4.101 9.75-11.851 9.75-3.65 0-6.851-1.149-8.45-2.25l1.198-3.351z"/><path fill="#282627" d="M242.078 511.442h-48c-6.6 0-12-5.4-12-12v-52.75c0-6.6 5.4-12 12-12h48c6.6 0 12 5.4 12 12v52.75c0 6.6-5.4 12-12 12z"/><path fill="#939393" d="M240.328 511.442h-44.964c-6.6 0-12-5.4-12-12V453.33c0-6.6 5.4-12 12-12h44.964c6.6 0 12 5.4 12 12v46.112c0 6.6-5.4 12-12 12z"/><path fill="#B3B3B3" d="M239.844 511.442H194.88c-6.6 0-12-5.4-12-12v-39.75c0-6.6 5.4-12 12-12h44.964c6.6 0 12 5.4 12 12v39.75c0 6.6-5.4 12-12 12z"/><path d="M220.562 495.818v-8.851h-15.101v-2.899l14.501-20.752h4.75v20.251h4.551v3.4h-4.551v8.851h-4.15zm0-12.251v-10.9c0-1.7.051-3.4.15-5.101l-.15-.05c-1 1.95-1.8 3.351-2.7 4.851l-7.95 11.101v.1h10.65z"/><path fill="#282627" d="M325.694 511.442h-48c-6.6 0-12-5.4-12-12v-52.75c0-6.6 5.4-12 12-12h48c6.6 0 12 5.4 12 12v52.75c0 6.6-5.4 12-12 12z"/><path fill="#939393" d="M323.944 511.442H278.98c-6.6 0-12-5.4-12-12V453.33c0-6.6 5.4-12 12-12h44.964c6.6 0 12 5.4 12 12v46.112c0 6.6-5.4 12-12 12z"/><path fill="#B3B3B3" d="M324.176 511.442h-44.964c-6.6 0-12-5.4-12-12v-39.75c0-6.6 5.4-12 12-12h44.964c6.6 0 12 5.4 12 12v39.75c0 6.6-5.4 12-12 12z"/><path d="M311.145 466.742h-12.4l-1.251 8.351c.751-.1 1.45-.2 2.65-.2 2.5 0 5.001.551 7.001 1.75 2.5 1.45 4.65 4.301 4.65 8.351 0 6.351-5.051 11.101-12.102 11.101-3.55 0-6.55-1-8.1-2l1.1-3.351c1.35.801 4 1.801 7 1.801 4.101 0 7.651-2.7 7.651-7.051 0-4.2-2.851-7.2-9.351-7.2-1.851 0-3.301.2-4.501.351l2.101-15.602h15.551v3.699z"/><path fill="#282627" d="M409.311 511.442h-48c-6.6 0-12-5.4-12-12v-52.75c0-6.6 5.4-12 12-12h48c6.6 0 12 5.4 12 12v52.75c0 6.6-5.4 12-12 12z"/><path fill="#939393" d="M407.561 511.442h-44.964c-6.6 0-12-5.4-12-12V453.33c0-6.6 5.4-12 12-12h44.964c6.6 0 12 5.4 12 12v46.112c0 6.6-5.4 12-12 12z"/><path fill="#B3B3B3" d="M407.793 511.442h-44.964c-6.6 0-12-5.4-12-12v-39.75c0-6.6 5.4-12 12-12h44.964c6.6 0 12 5.4 12 12v39.75c0 6.6-5.4 12-12 12z"/><path d="M393.261 466.398c-.949 0-2 0-3.3.25-6.9 1.1-10.551 6.15-11.301 11.551h.101c1.55-2.15 4.3-3.851 7.9-3.851 5.75 0 9.801 4.2 9.801 10.551 0 5.95-4.051 11.45-10.852 11.45-6.9 0-11.45-5.4-11.45-13.851 0-6.351 2.25-11.45 5.5-14.65 2.7-2.65 6.301-4.301 10.401-4.801 1.3-.2 2.35-.3 3.199-.25v3.601zm-1.25 18.751c0-4.65-2.649-7.45-6.7-7.45-2.65 0-5.15 1.649-6.351 4a4.26 4.26 0 0 0-.449 1.9c.1 5.399 2.55 9.4 7.15 9.4 3.8.001 6.35-3.199 6.35-7.85z"/><path fill="#282627" d="M242.078 597.776h-48c-6.6 0-12-5.4-12-12v-52.75c0-6.6 5.4-12 12-12h48c6.6 0 12 5.4 12 12v52.75c0 6.6-5.4 12-12 12z"/><path fill="#939393" d="M240.328 597.776h-44.964c-6.6 0-12-5.4-12-12v-46.112c0-6.6 5.4-12 12-12h44.964c6.6 0 12 5.4 12 12v46.112c0 6.6-5.4 12-12 12z"/><path fill="#B3B3B3" d="M240.328 597.776h-44.964c-6.6 0-12-5.4-12-12v-39.75c0-6.6 5.4-12 12-12h44.964c6.6 0 12 5.4 12 12v39.75c0 6.6-5.4 12-12 12z"/><path d="M228.097 549.65v2.9l-14.152 29.602h-4.55l14.101-28.752v-.1h-15.9v-3.65z"/><path fill="#282627" d="M325.694 597.776h-48c-6.6 0-12-5.4-12-12v-52.75c0-6.6 5.4-12 12-12h48c6.6 0 12 5.4 12 12v52.75c0 6.6-5.4 12-12 12z"/><path fill="#939393" d="M323.944 597.776H278.98c-6.6 0-12-5.4-12-12v-46.112c0-6.6 5.4-12 12-12h44.964c6.6 0 12 5.4 12 12v46.112c0 6.6-5.4 12-12 12z"/><path fill="#B3B3B3" d="M323.926 597.776h-44.964c-6.6 0-12-5.4-12-12v-39.75c0-6.6 5.4-12 12-12h44.964c6.6 0 12 5.4 12 12v39.75c0 6.6-5.4 12-12 12z"/><path d="M290.469 573.901c0-4.05 2.449-6.95 6.4-8.7v-.2c-3.601-1.65-5.201-4.45-5.201-7.25 0-5.101 4.4-8.651 10.101-8.651 6.301 0 9.451 3.951 9.451 8.001 0 2.75-1.351 5.7-5.351 7.601v.149c4.051 1.551 6.551 4.501 6.551 8.401 0 5.7-4.851 9.45-11.101 9.45-6.751 0-10.85-4.05-10.85-8.801zm17.501-.199c0-3.9-2.751-5.851-7.15-7.051-3.801 1.05-5.851 3.6-5.851 6.7-.15 3.25 2.35 6.15 6.5 6.15 3.95.001 6.501-2.45 6.501-5.799zm-12.102-16.252c-.05 3.251 2.45 5.001 6.201 6.001 2.8-.95 4.9-2.95 4.9-5.9 0-2.601-1.501-5.301-5.501-5.301-3.599 0-5.6 2.4-5.6 5.2z"/><path fill="#282627" d="M409.311 597.776h-48c-6.6 0-12-5.4-12-12v-52.75c0-6.6 5.4-12 12-12h48c6.6 0 12 5.4 12 12v52.75c0 6.6-5.4 12-12 12z"/><path fill="#939393" d="M407.561 597.776h-44.964c-6.6 0-12-5.4-12-12v-46.112c0-6.6 5.4-12 12-12h44.964c6.6 0 12 5.4 12 12v46.112c0 6.6-5.4 12-12 12z"/><path fill="#B3B3B3" d="M407.239 597.776h-44.964c-6.6 0-12-5.4-12-12v-39.75c0-6.6 5.4-12 12-12h44.964c6.6 0 12 5.4 12 12v39.75c0 6.6-5.4 12-12 12z"/><path d="M376.583 579.068c.949.101 2.05 0 3.55-.149 2.5-.351 4.95-1.4 6.801-3.15 2.149-1.95 3.7-4.801 4.3-8.65h-.15c-1.85 2.25-4.399 3.5-7.7 3.5-5.8 0-9.551-4.4-9.551-9.951 0-6.15 4.45-11.551 11.101-11.551s10.751 5.4 10.751 13.701c0 7.15-2.4 12.151-5.601 15.251-2.5 2.45-5.95 3.95-9.45 4.351-1.601.25-3.05.3-4.05.25v-3.602zm1.599-18.652c0 4.001 2.45 6.9 6.301 6.9 2.899 0 5.2-1.5 6.35-3.45.2-.399.45-.85.45-1.6 0-5.551-2.1-9.801-6.7-9.801-3.75.001-6.401 3.302-6.401 7.951z"/><path fill="#282627" d="M242.078 690.109h-48c-6.6 0-12-5.4-12-12v-52.75c0-6.6 5.4-12 12-12h48c6.6 0 12 5.4 12 12v52.75c0 6.6-5.4 12-12 12z"/><path fill="#2F3133" d="M240.328 690.109h-44.964c-6.6 0-12-5.4-12-12v-46.112c0-6.6 5.4-12 12-12h44.964c6.6 0 12 5.4 12 12v46.112c0 6.6-5.4 12-12 12z"/><path fill="#36393B" d="M240.328 690.109h-44.964c-6.6 0-12-5.4-12-12v-39.75c0-6.6 5.4-12 12-12h44.964c6.6 0 12 5.4 12 12v39.75c0 6.6-5.4 12-12 12z"/><path fill="#F4F4F4" d="M220.646 643.999l-1.611 11.948.116.202 9.368-7.2 2.638 4.569-10.842 4.646.077.134 11.143 4.407-2.809 4.756-9.527-7.039-.134.077 1.101 11.994-5.225-.208 1.65-11.881-.078-.134-9.205 7.017-2.638-4.568 10.546-4.387-.011-.174-11.047-4.55 2.74-4.717 9.518 6.866.134-.077-1.292-11.705z"/><path fill="#282627" d="M325.694 690.109h-48c-6.6 0-12-5.4-12-12v-52.75c0-6.6 5.4-12 12-12h48c6.6 0 12 5.4 12 12v52.75c0 6.6-5.4 12-12 12z"/><path fill="#939393" d="M323.944 690.109H278.98c-6.6 0-12-5.4-12-12v-46.112c0-6.6 5.4-12 12-12h44.964c6.6 0 12 5.4 12 12v46.112c0 6.6-5.4 12-12 12z"/><path fill="#B3B3B3" d="M324.176 690.109h-44.964c-6.6 0-12-5.4-12-12v-39.75c0-6.6 5.4-12 12-12h44.964c6.6 0 12 5.4 12 12v39.75c0 6.6-5.4 12-12 12z"/><path d="M312.72 657.884c0 11.05-4.101 17.15-11.301 17.15-6.351 0-10.65-5.95-10.751-16.7 0-10.901 4.7-16.901 11.301-16.901 6.851 0 10.751 6.101 10.751 16.451zm-17.651.5c0 8.45 2.601 13.25 6.601 13.25 4.5 0 6.65-5.25 6.65-13.55 0-8.001-2.05-13.201-6.601-13.201-3.849 0-6.65 4.651-6.65 13.501z"/><path fill="#282627" d="M408.261 690.109h-48c-6.6 0-12-5.4-12-12v-52.75c0-6.6 5.4-12 12-12h48c6.6 0 12 5.4 12 12v52.75c0 6.6-5.4 12-12 12z"/><path fill="#2F3133" d="M406.511 690.109h-44.964c-6.6 0-12-5.4-12-12v-46.112c0-6.6 5.4-12 12-12h44.964c6.6 0 12 5.4 12 12v46.112c0 6.6-5.4 12-12 12z"/><path fill="#36393B" d="M406.511 690.109h-44.964c-6.6 0-12-5.4-12-12v-39.75c0-6.6 5.4-12 12-12h44.964c6.6 0 12 5.4 12 12v39.75c0 6.6-5.4 12-12 12z"/><path fill="#F4F4F4" d="M376.254 674.485l1.3-9.801h-4.1v-2.95h4.55l1-7.25h-4.351v-2.95h4.751l1.3-9.551h2.9l-1.25 9.551h5.2l1.3-9.551h2.95l-1.25 9.551h4.05v2.95h-4.5l-.899 7.25h4.3v2.95h-4.75l-1.301 9.801h-3l1.3-9.801h-5.2l-1.3 9.801h-3zm9.95-12.751l.95-7.25h-5.2l-.95 7.25h5.2z"/><path fill="#282828" d="M165.778 252.75h1.5v2.75h-1.5zM436.111 252.75h1.5v2.75h-1.5z"/><path fill="#1C1C1C" d="M360.611 226.5H242.778c-6.6 0-12-5.4-12-12v-6c0-6.6 5.4-12 12-12h117.833c6.6 0 12 5.4 12 12v6c0 6.6-5.4 12-12 12z"/><path fill="#232323" d="M283.556 220.933v-18.84h5.998v13.373h11.35v5.467z"/><path fill="#0E0E0E" d="M289.054 215.966h11.35v4.467h-16.348v-17.84h4.998z"/><path fill="#232323" d="M301.503 220.933v-18.84h18.728v5.066h-12.73v2.049h11.843v4.53h-11.843v2.156h12.73v5.039z"/><path fill="#0E0E0E" d="M302.003 202.593h17.727v4.066h-12.729v3.049h11.843v3.53h-11.843v3.156h12.729v4.039h-17.727z"/><path fill="#232323" d="M265.369 220.638c-3.036 0-5.506-2.646-5.506-5.9v-6.771c0-3.253 2.47-5.9 5.506-5.9h12.237c3.036 0 5.506 2.647 5.506 5.9v6.771c0 3.253-2.47 5.9-5.506 5.9h-12.237zm2.424-13.571c-1.301 0-2.36 1.16-2.36 2.586v3.4c0 1.426 1.059 2.585 2.36 2.585h7.39c1.302 0 2.361-1.16 2.361-2.585v-3.4c0-1.426-1.059-2.586-2.361-2.586h-7.39z"/><path fill="#0E0E0E" d="M277.606 202.567h-12.237c-2.765 0-5.006 2.418-5.006 5.4v6.771c0 2.982 2.241 5.4 5.006 5.4h12.237c2.765 0 5.006-2.418 5.006-5.4v-6.771c0-2.982-2.241-5.4-5.006-5.4zm.437 10.486c0 1.704-1.281 3.086-2.861 3.086h-7.39c-1.58 0-2.861-1.382-2.861-3.086v-3.4c0-1.704 1.281-3.086 2.861-3.086h7.39c1.58 0 2.861 1.382 2.861 3.086v3.4z"/><path fill="#232323" d="M242.7 220.638c-2.899 0-5.257-2.646-5.257-5.9v-6.771c0-3.253 2.358-5.9 5.257-5.9h11.627c2.898 0 5.257 2.647 5.257 5.9v1.457h-5.325l-.084-.396c-.247-1.155-1.131-1.962-2.15-1.962h-7.022c-1.223 0-2.218 1.16-2.218 2.586v3.4c0 1.426.995 2.585 2.218 2.585h7.022c1.019 0 1.903-.807 2.15-1.961l.084-.396h5.325v1.457c0 3.253-2.358 5.9-5.257 5.9H242.7z"/><path fill="#0E0E0E" d="M254.664 213.781c-.289 1.352-1.359 2.357-2.639 2.357h-7.022c-1.501 0-2.718-1.382-2.718-3.086v-3.4c0-1.704 1.217-3.086 2.718-3.086h7.022c1.28 0 2.35 1.005 2.639 2.357h4.421v-.957c0-2.982-2.13-5.4-4.757-5.4H242.7c-2.627 0-4.757 2.418-4.757 5.4v6.771c0 2.982 2.13 5.4 4.757 5.4h11.628c2.627 0 4.757-2.418 4.757-5.4v-.957h-4.421z"/><path fill="#232323" d="M348.203 220.638c-3.036 0-5.507-2.646-5.507-5.9v-6.771c0-3.253 2.471-5.9 5.507-5.9h12.236c3.036 0 5.506 2.647 5.506 5.9v6.771c0 3.253-2.47 5.9-5.506 5.9h-12.236zm2.423-13.571c-1.302 0-2.36 1.16-2.36 2.586v3.4c0 1.426 1.059 2.585 2.36 2.585h7.39c1.302 0 2.361-1.16 2.361-2.585v-3.4c0-1.426-1.06-2.586-2.361-2.586h-7.39z"/><path fill="#0E0E0E" d="M360.439 202.567h-12.237c-2.765 0-5.006 2.418-5.006 5.4v6.771c0 2.982 2.241 5.4 5.006 5.4h12.237c2.765 0 5.006-2.418 5.006-5.4v-6.771c.001-2.982-2.241-5.4-5.006-5.4zm.438 10.486c0 1.704-1.281 3.086-2.861 3.086h-7.39c-1.58 0-2.861-1.382-2.861-3.086v-3.4c0-1.704 1.281-3.086 2.861-3.086h7.39c1.58 0 2.861 1.382 2.861 3.086v3.4z"/><path fill="#232323" d="M325.533 220.638c-2.898 0-5.257-2.646-5.257-5.9v-6.771c0-3.253 2.358-5.9 5.257-5.9h11.628c2.898 0 5.257 2.647 5.257 5.9v1.457h-5.325l-.085-.396c-.247-1.155-1.131-1.962-2.149-1.962h-7.022c-1.223 0-2.218 1.16-2.218 2.586v3.4c0 1.426.995 2.585 2.218 2.585h7.022c1.019 0 1.902-.807 2.149-1.961l.085-.396h5.325v1.457c0 3.253-2.358 5.9-5.257 5.9h-11.628z"/><path fill="#0E0E0E" d="M337.497 213.781c-.289 1.352-1.359 2.357-2.639 2.357h-7.022c-1.501 0-2.718-1.382-2.718-3.086v-3.4c0-1.704 1.217-3.086 2.718-3.086h7.022c1.28 0 2.35 1.005 2.639 2.357h4.421v-.957c0-2.982-2.13-5.4-4.757-5.4h-11.628c-2.627 0-4.757 2.418-4.757 5.4v6.771c0 2.982 2.13 5.4 4.757 5.4h11.628c2.627 0 4.757-2.418 4.757-5.4v-.957h-4.421z"/><ellipse fill="#666" cx="301.778" cy="80.569" rx="2.453" ry="2.4"/><path fill="#666" d="M301.778 78.169v.5c1.087.001 1.951.859 1.953 1.9-.002 1.041-.866 1.899-1.953 1.9-1.087-.001-1.951-.859-1.953-1.9.002-1.041.866-1.9 1.953-1.9v-1c-1.623.003-2.951 1.29-2.953 2.9.002 1.61 1.33 2.897 2.953 2.9 1.623-.003 2.951-1.29 2.953-2.9-.002-1.61-1.33-2.897-2.953-2.9v.5z"/><ellipse fill="#666" cx="153.944" cy="208.602" rx="2.453" ry="2.4"/><path fill="#666" d="M153.944 206.202v.5c1.087.001 1.951.859 1.953 1.9-.002 1.041-.866 1.9-1.953 1.9-1.087-.001-1.951-.859-1.953-1.9.002-1.041.866-1.9 1.953-1.9v-1c-1.623.003-2.951 1.29-2.953 2.9.002 1.61 1.33 2.897 2.953 2.9 1.623-.003 2.951-1.29 2.953-2.9-.002-1.61-1.33-2.897-2.953-2.9v.5z"/><ellipse fill="#666" cx="449.611" cy="208.602" rx="2.453" ry="2.4"/><path fill="#666" d="M449.611 206.202v.5c1.087.001 1.951.859 1.953 1.9-.002 1.041-.866 1.9-1.953 1.9-1.087-.001-1.951-.859-1.953-1.9.002-1.041.866-1.9 1.953-1.9v-1c-1.623.003-2.951 1.29-2.953 2.9.002 1.61 1.33 2.897 2.953 2.9 1.623-.003 2.951-1.29 2.953-2.9-.002-1.61-1.33-2.897-2.953-2.9v.5zM153.944 208.568l-17.935.068M153.942 208.001l-17.935.068.004 1.133 17.936-.067M467.547 208.841l-17.936.068"/><path fill="#666" d="M467.544 208.274l-17.935.068.005 1.133 17.935-.067"/><ellipse fill="#666" cx="217.846" cy="390.053" rx="2.453" ry="2.4"/><path fill="#666" d="M217.846 387.653v.5c1.087.001 1.951.859 1.953 1.9-.002 1.041-.866 1.9-1.953 1.9-1.087-.001-1.951-.859-1.953-1.9.002-1.041.866-1.9 1.953-1.9v-1c-1.623.003-2.951 1.29-2.953 2.9.002 1.61 1.33 2.897 2.953 2.9 1.623-.003 2.951-1.29 2.953-2.9-.002-1.61-1.33-2.897-2.953-2.9v.5z"/><ellipse fill="#666" cx="301.213" cy="390.053" rx="2.453" ry="2.4"/><path fill="#666" d="M301.213 387.653v.5c1.087.001 1.951.859 1.953 1.9-.002 1.041-.866 1.9-1.953 1.9-1.087-.001-1.951-.859-1.953-1.9.002-1.041.866-1.9 1.953-1.9v-1c-1.623.003-2.951 1.29-2.953 2.9.002 1.61 1.33 2.897 2.953 2.9 1.623-.003 2.951-1.29 2.953-2.9-.002-1.61-1.33-2.897-2.953-2.9v.5z"/><ellipse fill="#666" cx="384.829" cy="390.234" rx="2.453" ry="2.4"/><path fill="#666" d="M384.829 387.834v.5c1.087.001 1.951.859 1.953 1.9-.002 1.041-.866 1.9-1.953 1.9-1.087-.001-1.951-.859-1.953-1.9.002-1.041.866-1.9 1.953-1.9v-1c-1.623.003-2.951 1.29-2.953 2.9.002 1.61 1.33 2.897 2.953 2.9 1.623-.003 2.951-1.29 2.953-2.9-.002-1.61-1.33-2.897-2.953-2.9v.5z"/><ellipse fill="#666" cx="217.846" cy="476.386" rx="2.453" ry="2.4"/><path fill="#666" d="M217.846 473.986v.5c1.087.001 1.951.859 1.953 1.9-.002 1.041-.866 1.9-1.953 1.9-1.087-.001-1.951-.859-1.953-1.9.002-1.041.866-1.9 1.953-1.9v-1c-1.623.003-2.951 1.29-2.953 2.9.002 1.61 1.33 2.897 2.953 2.9 1.623-.003 2.951-1.29 2.953-2.9-.002-1.61-1.33-2.897-2.953-2.9v.5z"/><ellipse fill="#666" cx="301.861" cy="476.386" rx="2.453" ry="2.4"/><path fill="#666" d="M301.861 473.986v.5c1.087.001 1.951.859 1.953 1.9-.002 1.041-.866 1.9-1.953 1.9-1.087-.001-1.951-.859-1.953-1.9.002-1.041.866-1.9 1.953-1.9v-1c-1.623.003-2.951 1.29-2.953 2.9.002 1.61 1.33 2.897 2.953 2.9 1.623-.003 2.951-1.29 2.953-2.9-.002-1.61-1.33-2.897-2.953-2.9v.5z"/><ellipse fill="#666" cx="385.311" cy="476.386" rx="2.453" ry="2.4"/><path fill="#666" d="M385.311 473.986v.5c1.087.001 1.951.859 1.953 1.9-.002 1.041-.866 1.9-1.953 1.9-1.087-.001-1.951-.859-1.953-1.9.002-1.041.866-1.9 1.953-1.9v-1c-1.623.003-2.951 1.29-2.953 2.9.002 1.61 1.33 2.897 2.953 2.9 1.623-.003 2.951-1.29 2.953-2.9-.002-1.61-1.33-2.897-2.953-2.9v.5z"/><ellipse fill="#666" cx="218.078" cy="562.72" rx="2.453" ry="2.4"/><path fill="#666" d="M218.078 560.32v.5c1.087.001 1.951.859 1.953 1.9-.002 1.041-.866 1.9-1.953 1.9-1.087-.001-1.951-.859-1.953-1.9.002-1.041.866-1.9 1.953-1.9v-1c-1.623.003-2.951 1.29-2.953 2.9.002 1.61 1.33 2.897 2.953 2.9 1.623-.003 2.951-1.29 2.953-2.9-.002-1.61-1.33-2.897-2.953-2.9v.5z"/><ellipse fill="#666" cx="301.419" cy="562.72" rx="2.453" ry="2.4"/><path fill="#666" d="M301.419 560.32v.5c1.087.001 1.951.859 1.953 1.9-.002 1.041-.866 1.9-1.953 1.9-1.087-.001-1.951-.859-1.953-1.9.002-1.041.866-1.9 1.953-1.9v-1c-1.623.003-2.951 1.29-2.953 2.9.002 1.61 1.33 2.897 2.953 2.9 1.623-.003 2.951-1.29 2.953-2.9-.002-1.61-1.33-2.897-2.953-2.9v.5z"/><ellipse fill="#666" cx="217.846" cy="655.219" rx="2.453" ry="2.4"/><path fill="#666" d="M217.846 652.819v.5c1.087.001 1.951.859 1.953 1.9-.002 1.041-.866 1.9-1.953 1.9-1.087-.001-1.951-.859-1.953-1.9.002-1.041.866-1.899 1.953-1.9v-1c-1.623.003-2.951 1.29-2.953 2.9.002 1.61 1.33 2.897 2.953 2.9 1.623-.003 2.951-1.29 2.953-2.9-.002-1.61-1.33-2.897-2.953-2.9v.5z"/><ellipse fill="#666" cx="384.029" cy="655.219" rx="2.453" ry="2.4"/><path fill="#666" d="M384.029 652.819v.5c1.087.001 1.951.859 1.953 1.9-.002 1.041-.866 1.9-1.953 1.9-1.087-.001-1.951-.859-1.953-1.9.002-1.041.866-1.899 1.953-1.9v-1c-1.623.003-2.951 1.29-2.953 2.9.002 1.61 1.33 2.897 2.953 2.9 1.623-.003 2.951-1.29 2.953-2.9-.002-1.61-1.33-2.897-2.953-2.9v.5zM301.778 80.569l-165.769.068M301.778 80.003l-165.769.067v1.134l165.769-.068M217.596 390.019l-81.587.068M217.596 389.453l-81.587.067.001 1.134 81.587-.068M301.179 337.753l.067 52.481M300.612 337.754l.068 52.481 1.133-.002-.068-52.48M466.416 390.2l-81.587.068M466.416 389.633l-81.587.068.001 1.133 81.587-.067M384.759 508.042h82.788v-1.133h-82.788M217.555 476.353l-81.587.067M217.555 475.786l-81.587.068.001 1.133 81.587-.068M385.277 476.386l.068 31.09"/><path fill="#666" d="M384.71 476.388l.068 31.089 1.133-.003-.067-31.089M301.309 445.864h166.238v-1.133H301.309M301.895 445.297l-.068 31.089"/><path fill="#666" d="M301.328 445.296l-.067 31.089 1.133.003.068-31.09M467.547 562.72l-166.081.067M467.546 562.153l-166.08.068v1.133l166.081-.068M218.078 562.72l-82.069.067M218.077 562.153l-82.068.068.001 1.133 82.068-.068M217.846 655.053l-81.837.068M217.846 654.486l-81.837.068.001 1.133 81.837-.067M384.029 655.786h83.518v-1.134h-83.518"/><path fill="#F4F4F4" d="M132.19 369.724H61.227a3.78 3.78 0 0 0-3.779 3.779v34.631a3.78 3.78 0 0 0 3.779 3.779h70.963a3.778 3.778 0 0 0 3.778-3.779v-34.631a3.778 3.778 0 0 0-3.778-3.779"/><path fill="#35495E" d="M61.227 369.724v.998h70.963a2.784 2.784 0 0 1 2.78 2.78v34.631a2.784 2.784 0 0 1-2.78 2.78H61.227a2.784 2.784 0 0 1-2.78-2.78v-34.631a2.784 2.784 0 0 1 2.78-2.78v-1.996a4.778 4.778 0 0 0-4.777 4.777v34.631a4.778 4.778 0 0 0 4.777 4.777h70.963a4.778 4.778 0 0 0 4.777-4.777v-34.631a4.778 4.778 0 0 0-4.777-4.777H61.227v.998z"/><path fill="#35495E" d="M114.514 388.736l3.714-5.939h2.405l-4.895 7.684 5.012 7.812h-2.426l-3.81-6.045-3.832 6.045h-2.416l5.024-7.812-4.907-7.684h2.395z"/><defs><path id="a" d="M59.199 372.108h38.109v38.109H59.199v-38.109"/></defs><clipPath id="b"><use xlink:href="#a" overflow="visible"/></clipPath><path clip-path="url(#b)" fill="#35495E" d="M90.285 395.704a5.264 5.264 0 1 1 .002-10.528 5.264 5.264 0 0 1-.002 10.528M79.21 387.07a5.263 5.263 0 1 1 0-10.527 5.263 5.263 0 0 1 0 10.527m-1.896 18.831a5.263 5.263 0 1 1 0-10.526 5.263 5.263 0 0 1 0 10.526m-10.94-8.854a5.263 5.263 0 1 1 0-10.526 5.263 5.263 0 0 1 0 10.526m11.952-24.939c-10.505 0-19.021 8.515-19.021 19.021 0 10.505 8.516 19.021 19.021 19.021s19.021-8.516 19.021-19.021c0-10.506-8.516-19.021-19.021-19.021"/><path clip-path="url(#b)" fill="#35495E" d="M94.042 390.441a3.757 3.757 0 1 1-7.514.002 3.757 3.757 0 0 1 7.514-.002M81.035 400.639a3.721 3.721 0 1 1-7.442 0 3.721 3.721 0 0 1 7.442 0M70.293 391.784a3.92 3.92 0 1 1-7.842 0 3.92 3.92 0 0 1 7.842 0"/><path fill="#F4F4F4" d="M544.602 368.964h-73.278a3.778 3.778 0 0 0-3.778 3.778v34.623a3.778 3.778 0 0 0 3.778 3.778h73.278a3.778 3.778 0 0 0 3.778-3.778v-34.623a3.778 3.778 0 0 0-3.778-3.778"/><path fill="#35495E" d="M471.324 368.964v1.013h73.277a2.769 2.769 0 0 1 2.765 2.765v34.623a2.769 2.769 0 0 1-2.765 2.765h-73.277a2.769 2.769 0 0 1-2.765-2.765v-34.623a2.769 2.769 0 0 1 2.765-2.765v-2.026a4.79 4.79 0 0 0-4.79 4.79v34.623a4.79 4.79 0 0 0 4.79 4.79h73.277a4.79 4.79 0 0 0 4.79-4.79v-34.623a4.79 4.79 0 0 0-4.79-4.79h-73.277v1.013z"/><path fill="#35495E" d="M525.047 391.351h-3.64v6.269h-2.054v-15.496h5.13c1.745 0 3.086.397 4.023 1.192.944.795 1.416 1.951 1.416 3.47 0 .965-.263 1.806-.788 2.522-.518.717-1.242 1.252-2.171 1.607l3.64 6.577v.128h-2.193l-3.363-6.269zm-3.64-1.671h3.14c1.015 0 1.82-.263 2.416-.788.603-.525.905-1.228.905-2.107 0-.958-.287-1.692-.862-2.203-.568-.511-1.391-.77-2.469-.777h-3.129v5.875zM538.734 397.619h-1.98v-13.123l-3.97 1.459v-1.788l5.641-2.118h.309zM486.626 387.588h1.691c.686 0 1.062.297 1.062.972 0 .71-.377 1.008-1.062 1.008h-1.691v-1.98zm-1.54 5.824h1.54v-2.744h1.545c.776 0 1.062.325 1.169 1.063.078.56.058 1.24.245 1.682h1.541c-.275-.394-.265-1.217-.298-1.662-.049-.707-.261-1.446-1.017-1.643 0 0 1.109-.288 1.109-1.781 0-1.063-.797-1.936-2.054-1.936h-3.783l.003 7.021z"/><path fill="#35495E" d="M498.302 383.252c3.307 0 5.996 2.985 5.996 6.651 0 3.675-2.69 6.666-5.996 6.666h-20.435c-3.282-.029-5.951-3.02-5.951-6.666 0-3.638 2.67-6.623 5.939-6.651h20.447m0-1.426h-20.447c-4.07.035-7.365 3.632-7.365 8.077 0 4.448 3.295 8.055 7.365 8.092h20.447c4.1 0 7.422-3.624 7.422-8.092 0-4.467-3.323-8.077-7.422-8.077z"/><path fill="#F4F4F4" d="M545.357 541.632h-74.022a3.777 3.777 0 0 0-3.777 3.777v34.621a3.777 3.777 0 0 0 3.777 3.777h74.022a3.777 3.777 0 0 0 3.777-3.777v-34.62a3.777 3.777 0 0 0-3.777-3.778"/><path fill="#35495E" d="M471.335 541.632v1.017h74.021a2.764 2.764 0 0 1 2.76 2.76v34.621a2.764 2.764 0 0 1-2.76 2.76h-74.021a2.764 2.764 0 0 1-2.76-2.76v-34.621a2.764 2.764 0 0 1 2.76-2.76v-2.034a4.796 4.796 0 0 0-4.795 4.795v34.621a4.796 4.796 0 0 0 4.795 4.795h74.021a4.796 4.796 0 0 0 4.795-4.795V545.41a4.796 4.796 0 0 0-4.795-4.795h-74.021v1.017z"/><path fill="#35495E" d="M521.615 568.524h7.344v1.671h-9.398v-15.496h2.054zM533.663 561.489h1.479c.93-.014 1.66-.259 2.193-.734.532-.475.798-1.117.798-1.926 0-1.816-.905-2.725-2.714-2.725-.851 0-1.533.245-2.043.734-.504.482-.756 1.125-.756 1.926h-1.969c0-1.227.447-2.246 1.341-3.055.901-.816 2.043-1.224 3.427-1.224 1.462 0 2.608.387 3.438 1.16.83.773 1.245 1.848 1.245 3.225 0 .674-.22 1.327-.66 1.958-.433.631-1.025 1.103-1.777 1.416.851.27 1.508.717 1.969 1.341.468.624.702 1.387.702 2.288 0 1.391-.454 2.494-1.362 3.31s-2.09 1.224-3.544 1.224c-1.455 0-2.639-.394-3.555-1.181-.908-.788-1.362-1.827-1.362-3.118h1.98c0 .816.266 1.469.798 1.958.532.49 1.245.734 2.139.734.951 0 1.678-.248 2.182-.745s.756-1.21.756-2.139c0-.901-.277-1.593-.83-2.075-.553-.482-1.352-.731-2.395-.745h-1.479v-1.607zM488.488 544.654c-10.09 0-18.266 8.178-18.266 18.266 0 10.091 8.176 18.266 18.266 18.266 10.09 0 18.266-8.176 18.266-18.266 0-10.086-8.178-18.266-18.266-18.266zm5.893 9.648c1.795 0 3.126.348 4.014 1.031.894.676 1.363 1.691 1.363 3.057 0 .932-.237 1.686-.663 2.283-.426.591-1.046 1.01-1.878 1.252.931.277 1.655.783 2.136 1.473.487.683.7 1.555.7 2.615 0 1.579-.498 2.784-1.547 3.609-1.048.818-2.593 1.215-4.603 1.215-.709 0-1.42-.049-2.136-.184a11.916 11.916 0 0 1-2.099-.589v-3.167a9.436 9.436 0 0 0 1.989.847c.66.192 1.28.295 1.915.295.944 0 1.673-.175 2.173-.552.506-.377.773-.916.773-1.62 0-.726-.255-1.287-.773-1.657-.512-.377-1.278-.552-2.283-.552h-1.436v-2.651h1.51c.894 0 1.551-.159 1.989-.479.438-.327.663-.811.663-1.473 0-.612-.201-1.102-.626-1.436-.426-.334-1.027-.516-1.804-.516-.574 0-1.182.072-1.768.221a8.463 8.463 0 0 0-1.731.663v-2.983a14.459 14.459 0 0 1 2.099-.516 12.347 12.347 0 0 1 2.023-.186zm-16.314.295h3.572v12.815h6.26v3.13h-9.832v-15.945z"/><text transform="translate(476.644 565.51)" fill="#35495E" font-family="'HelveticaLTStd-Blk'" font-size="15.319"></text><path fill="#F4F4F4" d="M132.231 187.474H61.268a3.778 3.778 0 0 0-3.778 3.779v34.631a3.778 3.778 0 0 0 3.778 3.778h70.963a3.779 3.779 0 0 0 3.779-3.778v-34.631a3.78 3.78 0 0 0-3.779-3.779"/><path fill="#35495E" d="M61.268 187.474v.998h70.963a2.784 2.784 0 0 1 2.78 2.78v34.631a2.784 2.784 0 0 1-2.78 2.78H61.268a2.784 2.784 0 0 1-2.78-2.78v-34.631a2.784 2.784 0 0 1 2.78-2.78v-1.996a4.777 4.777 0 0 0-4.777 4.777v34.631a4.778 4.778 0 0 0 4.777 4.777h70.963a4.778 4.778 0 0 0 4.777-4.777v-34.631a4.777 4.777 0 0 0-4.777-4.777H61.268v.998z"/><path fill="#35495E" d="M118.056 211.999h-6.492l-1.458 4.044h-2.107l5.917-15.496h1.788l5.928 15.496h-2.097l-1.479-4.044zm-5.875-1.682h5.268l-2.639-7.248-2.629 7.248z"/><defs><path id="c" d="M59.948 190.388h36.761v36.76H59.948v-36.76"/></defs><clipPath id="d"><use xlink:href="#c" overflow="visible"/></clipPath><path clip-path="url(#d)" fill="#35495E" d="M89.933 213.149a5.077 5.077 0 1 1 .001-10.153 5.077 5.077 0 0 1-.001 10.153m-10.682-8.329a5.076 5.076 0 1 1 0-10.152 5.076 5.076 0 0 1 0 10.152m-1.829 18.165a5.076 5.076 0 1 1 0-10.152 5.076 5.076 0 0 1 0 10.152m-10.553-8.541a5.075 5.075 0 1 1 0-10.152 5.075 5.075 0 0 1 5.076 5.075 5.075 5.075 0 0 1-5.076 5.077m11.529-24.056c-10.133 0-18.348 8.214-18.348 18.348 0 10.133 8.215 18.348 18.348 18.348s18.348-8.215 18.348-18.348c0-10.134-8.215-18.348-18.348-18.348"/><path clip-path="url(#d)" fill="#35495E" d="M81.011 217.908a3.59 3.59 0 1 1-7.182-.002 3.59 3.59 0 0 1 7.182.002M70.65 209.367a3.782 3.782 0 1 1-7.564 0 3.782 3.782 0 0 1 7.564 0M82.834 199.845a3.59 3.59 0 1 1-7.18 0 3.59 3.59 0 0 1 7.18 0"/><path fill="#F4F4F4" d="M542.288 187.747h-70.963a3.78 3.78 0 0 0-3.779 3.779v34.631a3.778 3.778 0 0 0 3.779 3.778h70.963a3.779 3.779 0 0 0 3.779-3.778v-34.631a3.78 3.78 0 0 0-3.779-3.779"/><path fill="#35495E" d="M471.325 187.747v.998h70.963a2.784 2.784 0 0 1 2.78 2.78v34.631a2.784 2.784 0 0 1-2.78 2.78h-70.963a2.784 2.784 0 0 1-2.78-2.78v-34.631a2.784 2.784 0 0 1 2.78-2.78v-1.996a4.778 4.778 0 0 0-4.777 4.777v34.631a4.778 4.778 0 0 0 4.777 4.777h70.963a4.778 4.778 0 0 0 4.777-4.777v-34.631a4.777 4.777 0 0 0-4.777-4.777h-70.963v.998z"/><path fill="#35495E" d="M519.556 216.316V200.82h5.066c1.682 0 2.945.348 3.789 1.043.851.695 1.277 1.724 1.277 3.086a3.17 3.17 0 0 1-.617 1.926c-.411.553-.972.983-1.682 1.288.837.234 1.497.681 1.98 1.341.49.653.734 1.433.734 2.341 0 1.391-.451 2.483-1.352 3.278s-2.175 1.192-3.821 1.192h-5.374zm2.044-7.248v5.577h3.374c.951 0 1.699-.245 2.246-.734.553-.497.83-1.178.83-2.043 0-1.866-1.015-2.799-3.044-2.799H521.6zm0-1.639h3.086c.894 0 1.607-.223 2.139-.671.539-.447.809-1.054.809-1.82 0-.851-.248-1.469-.745-1.852-.497-.39-1.252-.585-2.267-.585H521.6v4.928z"/><defs><path id="e" d="M469.366 190.175h37.544v37.544h-37.544v-37.544"/></defs><clipPath id="f"><use xlink:href="#e" overflow="visible"/></clipPath><path clip-path="url(#f)" fill="#35495E" d="M499.991 213.422a5.186 5.186 0 1 1 .002-10.372 5.186 5.186 0 0 1-.002 10.372m-10.911-8.507a5.185 5.185 0 1 1 0-10.37 5.185 5.185 0 0 1 0 10.37m-1.868 18.553a5.185 5.185 0 1 1 0-10.37 5.185 5.185 0 0 1 0 10.37m-10.778-8.723a5.185 5.185 0 1 1 0-10.37 5.185 5.185 0 0 1 0 10.37m11.775-24.569c-10.349 0-18.739 8.389-18.739 18.739 0 10.349 8.39 18.739 18.739 18.739s18.739-8.39 18.739-18.739c0-10.35-8.39-18.739-18.739-18.739"/><path clip-path="url(#f)" fill="#35495E" d="M503.693 208.236a3.702 3.702 0 1 1-7.405.001 3.702 3.702 0 0 1 7.405-.001M480.296 209.56a3.863 3.863 0 0 1-3.862 3.863 3.863 3.863 0 0 1 0-7.725 3.863 3.863 0 0 1 3.862 3.862M492.74 199.835a3.666 3.666 0 1 1-7.332 0 3.666 3.666 0 0 1 7.332 0"/><path fill="#F4F4F4" d="M132.244 59.553H17.809a3.765 3.765 0 0 0-3.765 3.765v34.504a3.765 3.765 0 0 0 3.765 3.765h114.436a3.765 3.765 0 0 0 3.765-3.765V63.318a3.766 3.766 0 0 0-3.766-3.765"/><path fill="#35495E" d="M17.809 59.553v1.242h114.436a2.527 2.527 0 0 1 2.523 2.523v34.504a2.527 2.527 0 0 1-2.523 2.523H17.809a2.527 2.527 0 0 1-2.523-2.523V63.318a2.527 2.527 0 0 1 2.523-2.523v-2.484a5.006 5.006 0 0 0-5.006 5.006v34.504a5.006 5.006 0 0 0 5.006 5.006h114.436a5.006 5.006 0 0 0 5.006-5.006V63.318a5.006 5.006 0 0 0-5.006-5.006H17.809v1.241z"/><path fill="#35495E" d="M38.527 99.45h-7.201c-2.318 0-3.158-1.89-3.158-3.16v-8.842h-8.844c-2.319 0-3.16-1.89-3.16-3.16v-7.2c0-2.318 1.891-3.159 3.16-3.159h8.844v-8.843c0-2.319 1.888-3.16 3.158-3.16h7.201c2.319 0 3.16 1.891 3.16 3.16v8.843h8.841c1.216 0 2.181.532 2.718 1.499.21.38.462 1.126.434 1.66h.008v7.2c0 2.319-1.889 3.16-3.16 3.16h-8.841v8.842c.001 2.318-1.889 3.16-3.16 3.16zM19.324 75.446c-.381.006-1.641.141-1.641 1.64v7.2c.006.381.141 1.641 1.641 1.641h10.362v10.361c.005.381.141 1.641 1.639 1.641h7.198c.389-.006 1.644-.144 1.644-1.641v-10.36h10.36c.381-.006 1.641-.142 1.641-1.641v-7.211c-.005-.291-.113-1.629-1.64-1.629H40.17V65.085c-.006-.381-.141-1.641-1.641-1.641h-7.201c-.381.006-1.639.141-1.639 1.641v10.361H19.324z"/><path fill="#35495E" d="M34.929 84.385a3.7 3.7 0 0 1-3.695-3.697 3.7 3.7 0 0 1 3.695-3.696 3.7 3.7 0 0 1 3.696 3.696 3.7 3.7 0 0 1-3.696 3.697zm0-5.874a2.179 2.179 0 0 0 0 4.355 2.18 2.18 0 0 0 2.177-2.178 2.18 2.18 0 0 0-2.177-2.177zM34.928 65.148l-3.043 4.743h6.088z"/><path fill="#35495E" d="M37.972 70.65h-6.088a.76.76 0 0 1-.639-1.17l3.043-4.743c.279-.436.999-.435 1.278 0l3.045 4.743a.759.759 0 0 1-.639 1.17zm-4.698-1.519h3.308l-1.655-2.577-1.653 2.577zM19.329 80.688l4.743 3.042v-6.086z"/><path fill="#35495E" d="M24.072 84.49a.756.756 0 0 1-.41-.12l-4.743-3.042a.76.76 0 0 1 0-1.278l4.743-3.044a.76.76 0 0 1 1.17.639v6.086a.759.759 0 0 1-.76.759zm-3.337-3.802l2.577 1.653v-3.306l-2.577 1.653zM50.47 80.687l-4.744-3.043v6.086z"/><path fill="#35495E" d="M45.727 84.49a.76.76 0 0 1-.759-.759v-6.086c0-.277.151-.533.396-.666a.754.754 0 0 1 .775.027l4.744 3.043a.76.76 0 0 1 0 1.278l-4.745 3.043a.773.773 0 0 1-.411.12zm.76-5.456v3.307l2.578-1.654-2.578-1.653zM34.928 96.228l3.045-4.743h-6.088z"/><path fill="#35495E" d="M34.928 96.987a.762.762 0 0 1-.639-.349l-3.043-4.743a.761.761 0 0 1 .639-1.171h6.088a.759.759 0 1 1 .639 1.171l-3.045 4.743a.762.762 0 0 1-.639.349zm-1.654-4.743l1.654 2.577 1.655-2.577h-3.309zM65.976 88.044V72.548h4.374c1.348 0 2.54.298 3.576.894s1.834 1.444 2.395 2.544c.568 1.1.855 2.363.862 3.789v.99c0 1.462-.284 2.742-.851 3.842a5.913 5.913 0 0 1-2.416 2.533c-1.043.589-2.26.89-3.651.905h-4.289zM68.02 74.23v12.144h2.15c1.575 0 2.799-.49 3.672-1.469.88-.979 1.32-2.373 1.32-4.183v-.905c0-1.76-.415-3.125-1.245-4.098-.823-.979-1.994-1.476-3.512-1.49H68.02zM78.875 80.658h5.194v1.607h-5.194zM88.326 81.978v6.067h-2.043V72.548h5.715c1.696 0 3.023.433 3.98 1.298.965.866 1.447 2.012 1.447 3.438 0 1.504-.472 2.664-1.416 3.48-.937.809-2.281 1.213-4.034 1.213h-3.649zm0-1.671h3.672c1.093 0 1.93-.255 2.512-.766.582-.518.873-1.263.873-2.235 0-.922-.291-1.66-.873-2.214-.582-.553-1.38-.841-2.395-.862h-3.789v6.077zM107.143 84h-6.492l-1.458 4.044h-2.107l5.918-15.496h1.788l5.928 15.496h-2.097L107.143 84zm-5.875-1.682h5.268l-2.639-7.248-2.629 7.248zM112.805 88.044V72.548h4.374c1.348 0 2.54.298 3.576.894s1.834 1.444 2.395 2.544c.568 1.1.855 2.363.862 3.789v.99c0 1.462-.284 2.742-.851 3.842a5.913 5.913 0 0 1-2.416 2.533c-1.043.589-2.26.89-3.651.905h-4.289zm2.044-13.814v12.144h2.15c1.575 0 2.799-.49 3.672-1.469.88-.979 1.32-2.373 1.32-4.183v-.905c0-1.76-.415-3.125-1.245-4.098-.823-.979-1.994-1.476-3.512-1.49h-2.385z"/><path fill="#F4F4F4" d="M336.694 295.566h-70.963a3.779 3.779 0 0 0-3.779 3.778v34.631a3.778 3.778 0 0 0 3.779 3.778h70.963a3.779 3.779 0 0 0 3.779-3.778v-34.631a3.779 3.779 0 0 0-3.779-3.778"/><path fill="#35495E" d="M265.731 295.566v.32h70.963a3.464 3.464 0 0 1 3.459 3.459v34.631a3.464 3.464 0 0 1-3.459 3.459h-70.963a3.464 3.464 0 0 1-3.459-3.459v-34.631a3.464 3.464 0 0 1 3.459-3.459v-.64a4.098 4.098 0 0 0-4.098 4.098v34.631a4.098 4.098 0 0 0 4.098 4.098h70.963a4.098 4.098 0 0 0 4.098-4.098v-34.631a4.098 4.098 0 0 0-4.098-4.098h-70.963v.32z"/><path fill="#35495E" d="M318.688 316.418l4.044-7.78h2.32l-5.342 9.717v5.78h-2.044v-5.78l-5.343-9.717h2.342z"/><defs><path id="g" d="M263.377 297.698h38.297v38.297h-38.297v-38.297"/></defs><clipPath id="h"><use xlink:href="#g" overflow="visible"/></clipPath><path clip-path="url(#h)" fill="#35495E" d="M294.616 321.411a5.29 5.29 0 1 1 .002-10.58 5.29 5.29 0 0 1-.002 10.58m-11.13-8.677a5.29 5.29 0 1 1 0-10.579 5.29 5.29 0 0 1 0 10.579m-1.905 18.925a5.289 5.289 0 1 1 0-10.578 5.289 5.289 0 0 1 0 10.578m-10.994-8.899a5.289 5.289 0 1 1 0-10.578 5.289 5.289 0 1 1 0 10.578m12.011-25.062c-10.557 0-19.115 8.557-19.115 19.115 0 10.557 8.558 19.115 19.115 19.115 10.557 0 19.115-8.558 19.115-19.115 0-10.557-8.559-19.115-19.115-19.115"/><path clip-path="url(#h)" fill="#35495E" d="M298.392 316.121a3.777 3.777 0 1 1-7.554 0 3.777 3.777 0 0 1 7.554 0M285.32 326.37a3.74 3.74 0 1 1-7.481-.001 3.74 3.74 0 0 1 7.481.001M287.22 307.551a3.74 3.74 0 1 1-7.48 0 3.74 3.74 0 0 1 7.48 0"/><path fill="#F4F4F4" d="M132.232 457.118H58.954a3.778 3.778 0 0 0-3.778 3.778v34.623a3.778 3.778 0 0 0 3.778 3.778h73.278a3.778 3.778 0 0 0 3.778-3.778v-34.623a3.779 3.779 0 0 0-3.778-3.778"/><path fill="#35495E" d="M58.954 457.118v1.013h73.277a2.769 2.769 0 0 1 2.765 2.765v34.623a2.769 2.769 0 0 1-2.765 2.765H58.954a2.769 2.769 0 0 1-2.765-2.765v-34.623a2.769 2.769 0 0 1 2.765-2.765v-2.026a4.79 4.79 0 0 0-4.79 4.79v34.623a4.79 4.79 0 0 0 4.79 4.79h73.277a4.79 4.79 0 0 0 4.79-4.79v-34.623a4.79 4.79 0 0 0-4.79-4.79H58.954v1.013z"/><path fill="#35495E" d="M109.235 484.011h7.344v1.671h-9.398v-15.496h2.054zM124.891 485.682h-1.979v-13.123l-3.97 1.458v-1.788l5.641-2.118h.308zM86.236 471.384c3.328 0 6.034 3.004 6.034 6.695 0 3.699-2.707 6.708-6.034 6.708H65.671c-3.303-.029-5.989-3.04-5.989-6.708 0-3.663 2.687-6.665 5.977-6.695h20.577m0-1.435H65.659c-4.096.036-7.412 3.655-7.412 8.13 0 4.476 3.316 8.107 7.412 8.143h20.577c4.127 0 7.469-3.647 7.469-8.143s-3.344-8.13-7.469-8.13z"/><path fill="#35495E" d="M75.031 474.548h-1.553v7.06h4.996v-1.303h-3.443z"/><path fill="#F4F4F4" d="M544.602 486.386h-73.278a3.778 3.778 0 0 0-3.778 3.778v34.623a3.778 3.778 0 0 0 3.778 3.778h73.278a3.778 3.778 0 0 0 3.778-3.778v-34.623a3.779 3.779 0 0 0-3.778-3.778"/><path fill="#35495E" d="M471.324 486.386v1.013h73.277a2.769 2.769 0 0 1 2.765 2.765v34.623a2.769 2.769 0 0 1-2.765 2.765h-73.277a2.769 2.769 0 0 1-2.765-2.765v-34.623a2.769 2.769 0 0 1 2.765-2.765v-2.026a4.79 4.79 0 0 0-4.79 4.79v34.623a4.79 4.79 0 0 0 4.79 4.79h73.277a4.79 4.79 0 0 0 4.79-4.79v-34.623a4.79 4.79 0 0 0-4.79-4.79h-73.277v1.013z"/><path fill="#35495E" d="M521.606 513.28h7.343v1.671h-9.397v-15.497h2.054zM540.944 514.951h-10.153v-1.415l5.364-5.96c.795-.901 1.341-1.632 1.639-2.192a3.667 3.667 0 0 0 .458-1.756c0-.809-.245-1.472-.734-1.99-.49-.518-1.142-.777-1.958-.777-.979 0-1.742.28-2.288.841-.539.553-.809 1.327-.809 2.32h-1.969c0-1.426.458-2.579 1.373-3.459.922-.88 2.153-1.32 3.693-1.32 1.44 0 2.579.38 3.416 1.139.837.752 1.256 1.756 1.256 3.012 0 1.525-.972 3.342-2.916 5.449l-4.151 4.502h7.78v1.606zM498.438 500.685c3.288 0 5.962 2.968 5.962 6.614 0 3.655-2.674 6.628-5.962 6.628h-20.319c-3.263-.028-5.918-3.003-5.918-6.628 0-3.619 2.654-6.585 5.905-6.614h20.332m0-1.418h-20.331c-4.047.036-7.323 3.611-7.323 8.032 0 4.422 3.276 8.01 7.323 8.046h20.331c4.077 0 7.38-3.604 7.38-8.046s-3.304-8.032-7.38-8.032z"/><path fill="#35495E" d="M482.997 503.811v6.976h4.936v-1.288h-3.402v-5.688zM494.168 509.492v1.204h-4.547a3.13 3.13 0 0 1 .443-1.295c.247-.407.732-.948 1.459-1.622.584-.545.943-.914 1.076-1.108.178-.268.268-.532.268-.794 0-.289-.078-.511-.233-.667-.156-.156-.371-.233-.645-.233-.27 0-.487.081-.647.245-.16.164-.252.434-.277.812l-1.292-.129c.077-.714.319-1.226.725-1.537s.914-.466 1.523-.466c.667 0 1.193.18 1.574.54s.572.807.572 1.343c0 .304-.055.595-.164.87a3.527 3.527 0 0 1-.519.866c-.157.199-.441.488-.849.864-.409.374-.668.624-.777.748-.11.123-.199.243-.266.36l2.576-.001z"/><path fill="#F4F4F4" d="M544.602 424.208h-73.278a3.778 3.778 0 0 0-3.778 3.778v34.623a3.778 3.778 0 0 0 3.778 3.778h73.278a3.778 3.778 0 0 0 3.778-3.778v-34.623a3.778 3.778 0 0 0-3.778-3.778"/><path fill="#35495E" d="M471.324 424.208v1.013h73.277a2.769 2.769 0 0 1 2.765 2.765v34.623a2.769 2.769 0 0 1-2.765 2.765h-73.277a2.769 2.769 0 0 1-2.765-2.765v-34.623a2.769 2.769 0 0 1 2.765-2.765v-2.026a4.79 4.79 0 0 0-4.79 4.79v34.623a4.79 4.79 0 0 0 4.79 4.79h73.277a4.79 4.79 0 0 0 4.79-4.79v-34.623a4.79 4.79 0 0 0-4.79-4.79h-73.277v1.013z"/><path fill="#35495E" d="M525.235 446.504h-3.64v6.269h-2.054v-15.496h5.13c1.745 0 3.086.397 4.023 1.192.944.795 1.416 1.951 1.416 3.47 0 .965-.263 1.806-.788 2.522-.518.717-1.242 1.252-2.171 1.607l3.64 6.577v.128h-2.192l-3.364-6.269zm-3.64-1.671h3.14c1.015 0 1.82-.263 2.416-.788.603-.525.905-1.228.905-2.107 0-.958-.287-1.692-.862-2.203-.568-.511-1.391-.77-2.469-.777h-3.129v5.875zM542.604 452.772h-10.153v-1.415l5.364-5.96c.795-.901 1.341-1.632 1.639-2.192a3.667 3.667 0 0 0 .458-1.756c0-.809-.245-1.472-.734-1.99-.49-.518-1.142-.777-1.958-.777-.979 0-1.742.28-2.288.841-.539.553-.809 1.327-.809 2.32h-1.969c0-1.426.458-2.579 1.373-3.459.922-.88 2.153-1.32 3.693-1.32 1.44 0 2.579.38 3.416 1.139.837.752 1.256 1.756 1.256 3.012 0 1.526-.972 3.342-2.916 5.449l-4.151 4.502h7.78v1.606zM483.993 442.678h1.702c.691 0 1.069.298 1.069.978 0 .715-.379 1.014-1.069 1.014h-1.702v-1.992zm-1.55 5.86h1.55v-2.761h1.555c.781 0 1.068.327 1.177 1.069.078.563.058 1.247.247 1.692h1.551c-.276-.396-.267-1.224-.299-1.672-.049-.712-.263-1.455-1.024-1.653 0 0 1.115-.29 1.115-1.792 0-1.069-.802-1.948-2.066-1.948h-3.806v7.065z"/><path fill="#35495E" d="M498.61 438.316c3.327 0 6.033 3.004 6.033 6.692 0 3.698-2.706 6.708-6.033 6.708h-20.561c-3.302-.029-5.988-3.039-5.988-6.708 0-3.661 2.686-6.664 5.976-6.692h20.573m0-1.435h-20.574c-4.095.035-7.411 3.654-7.411 8.127 0 4.476 3.316 8.105 7.411 8.143h20.574c4.126 0 7.468-3.647 7.468-8.143 0-4.495-3.343-8.127-7.468-8.127z"/><path fill="#35495E" d="M494.626 447.321v1.219h-4.601c.05-.461.199-.897.449-1.311.25-.412.74-.959 1.476-1.642.591-.552.955-.925 1.089-1.121.18-.271.271-.539.271-.804 0-.293-.078-.518-.235-.675-.158-.158-.375-.236-.652-.236-.274 0-.493.082-.654.248s-.255.439-.28.822l-1.308-.131c.077-.722.322-1.241.734-1.555.411-.315.925-.472 1.541-.472.675 0 1.207.182 1.593.546.385.364.579.817.579 1.359 0 .308-.055.602-.166.88-.11.279-.285.571-.525.876-.159.202-.446.494-.859.874-.414.379-.676.631-.786.757a2.202 2.202 0 0 0-.269.364l2.603.002z"/><path fill="#F4F4F4" d="M97.345 543.544H58.21a2.764 2.764 0 0 0-2.76 2.76v34.621a2.764 2.764 0 0 0 2.76 2.76h39.135v-40.141m34.887 0H97.465v40.141h34.767a2.764 2.764 0 0 0 2.76-2.76v-34.621a2.764 2.764 0 0 0-2.76-2.76"/><path fill="#35495E" d="M58.21 542.526v1.017h74.022a2.764 2.764 0 0 1 2.76 2.76v34.621a2.764 2.764 0 0 1-2.76 2.76H58.21a2.764 2.764 0 0 1-2.76-2.76v-34.621a2.764 2.764 0 0 1 2.76-2.76v-2.034a4.796 4.796 0 0 0-4.795 4.795v34.621a4.796 4.796 0 0 0 4.795 4.795h74.022a4.796 4.796 0 0 0 4.795-4.795v-34.621a4.795 4.795 0 0 0-4.795-4.795H58.21v1.017"/><path fill="#35495E" d="M112.12 564.82h-3.64v6.269h-2.054v-15.496h5.13c1.745 0 3.086.397 4.023 1.192.944.795 1.416 1.951 1.416 3.47 0 .965-.263 1.806-.788 2.522-.518.717-1.242 1.252-2.171 1.607l3.64 6.577v.128h-2.192l-3.364-6.269zm-3.64-1.671h3.14c1.015 0 1.82-.263 2.416-.788.603-.525.905-1.227.905-2.107 0-.958-.287-1.692-.862-2.203-.568-.511-1.391-.77-2.469-.777h-3.129v5.875zM122.199 562.383h1.479c.929-.014 1.66-.259 2.192-.734.532-.475.798-1.118.798-1.926 0-1.816-.905-2.725-2.714-2.725-.851 0-1.533.245-2.043.734-.504.482-.756 1.125-.756 1.926h-1.969c0-1.227.447-2.246 1.341-3.055.901-.816 2.043-1.224 3.427-1.224 1.462 0 2.608.387 3.438 1.16.83.773 1.245 1.848 1.245 3.225 0 .674-.22 1.327-.66 1.958-.433.631-1.025 1.103-1.777 1.416.851.27 1.508.717 1.969 1.341.468.624.702 1.387.702 2.288 0 1.391-.454 2.494-1.362 3.31-.908.816-2.09 1.224-3.544 1.224-1.455 0-2.639-.394-3.555-1.181-.908-.788-1.362-1.827-1.362-3.118h1.98c0 .816.266 1.469.798 1.958.532.49 1.245.734 2.139.734.951 0 1.678-.248 2.182-.745s.756-1.21.756-2.139c0-.901-.277-1.593-.83-2.075-.553-.482-1.352-.731-2.395-.745h-1.479v-1.607zM75.231 544.935c-10.274 0-18.599 8.328-18.599 18.599 0 10.275 8.325 18.599 18.599 18.599s18.599-8.325 18.599-18.599c0-10.27-8.328-18.599-18.599-18.599zm6.674 10.199c1.827 0 3.22.317 4.125 1.012.911.688 1.35 1.759 1.35 3.15 0 .949-.204 1.716-.637 2.325-.433.601-1.102 1.029-1.95 1.275.948.283 1.685.76 2.175 1.462.496.695.75 1.583.75 2.662 0 1.608-.545 2.834-1.612 3.675-1.068.833-2.602 1.237-4.65 1.237-.722 0-1.484-.05-2.212-.188a12.067 12.067 0 0 1-2.137-.6v-3.225a9.829 9.829 0 0 0 2.025.9 7.046 7.046 0 0 0 1.987.262c.961 0 1.704-.179 2.212-.562.515-.384.75-.933.75-1.65 0-.739-.26-1.311-.787-1.687-.521-.384-1.301-.562-2.325-.562h-1.425v-2.7h1.5c.911 0 1.579-.161 2.025-.487.446-.333.675-.826.675-1.5 0-.623-.204-1.122-.637-1.462-.433-.34-1.046-.487-1.837-.487-.584 0-1.166.073-1.762.225a8.935 8.935 0 0 0-1.8.675v-3.075c.716-.232 1.434-.409 2.137-.525s1.382-.15 2.06-.15zm-19.161.263h5.55c1.853 0 3.189.37 4.05 1.087.867.717 1.312 1.862 1.312 3.412 0 1.072-.223 1.937-.675 2.625-.446.688-1.121 1.211-2.025 1.537.496.13.923.436 1.312.9.396.456.798 1.128 1.2 2.062l1.987 4.612h-3.862l-1.725-4.012c-.345-.811-.692-1.39-1.05-1.687-.352-.297-.835-.45-1.425-.45h-1.012v6.15h-3.637v-16.236zm3.637 3.037v4.162h1.537c.76 0 1.286-.161 1.612-.487.333-.326.487-.866.487-1.612 0-.739-.155-1.256-.487-1.575-.327-.319-.853-.487-1.612-.487h-1.537z"/><text transform="translate(63.171 566.17)" fill="#35495E" font-family="'HelveticaLTStd-Blk'" font-size="15.599"></text><path fill="#FFF" d="M97.465 541.298h-44.47v44.47h44.471v-.048H58.21c-.281 0-.556-.024-.824-.071h-4.272v-44.231h44.231v.091h.12v-.211"/><path fill="#F4F4F4" d="M97.465 543.544h-.12v40.14h.12v-40.14"/><path fill="#35495E" d="M97.465 583.684h-.12v1.964H57.387c.268.046.543.071.824.071h39.255v-2.035m-.001-42.175h-.12v2.035h.12v-2.035"/><path fill="#F4F4F4" d="M3.539 661.375v12.688h36.016v-12.688c-.387 1.712-1.878 2.986-3.658 2.986H7.198c-1.78.001-3.272-1.275-3.659-2.986m6.463-8.233v-7.039h4.801v1.103h-3.64v1.777h3.49v1.103h-3.49v1.952h3.699v1.103h-4.86m6.121.001v-7.039h1.161v5.878h3.358v1.161h-4.519m5.55 0l.001-7.039h4.794v1.103h-3.636v1.777h3.491v1.103h-3.491v1.952h3.699v1.103h-4.858m8.762.199c-1.995 0-2.952-1.737-2.952-3.717 0-1.985.915-3.718 3.09-3.718 1.901 0 2.893 1.28 3.016 2.798l-1.25-.001c-.116-1.066-.805-1.697-1.781-1.697-1.07 0-1.864.91-1.864 2.744 0 1.47.794 2.488 1.942 2.488 1.205 0 1.606-1.047 1.703-1.787h1.251c-.162 1.404-.88 2.89-3.155 2.89m9.121-15.293H3.539v12.815h1.169c.032.929.633 1.375 1.587 1.375.706 0 1.363-.266 1.363-1.04 0-1.747-4.072-.226-4.072-3.113 0-1.568 1.091-2.178 2.437-2.178.851 0 2.555.195 2.704 2.238H7.473c-.039-.545-.428-1.136-1.395-1.136-.772 0-1.283.307-1.283.968 0 1.652 4.116.067 4.116 3.074 0 1.816-1.476 2.289-2.654 2.289-1.638 0-2.468-.676-2.718-1.741v8.019c.387-1.711 1.879-2.987 3.659-2.987h28.699c1.78 0 3.271 1.275 3.658 2.986v-12.409h-1.972v5.936h-1.159v-5.937H34.35v-1.102h5.205v-8.057M3.442 660.495v-22.546h36.212v8.154h.006v1.103h-.006v26.954H3.442v-13.665m128.806-23.803H5.066a2.46 2.46 0 0 0-2.457 2.457v34.471a2.461 2.461 0 0 0 2.457 2.457h127.183a2.46 2.46 0 0 0 2.457-2.457v-34.471a2.462 2.462 0 0 0-2.458-2.457"/><path fill="#35495E" d="M5.066 635.387v1.305h127.183a2.46 2.46 0 0 1 2.457 2.457v34.471a2.461 2.461 0 0 1-2.457 2.457H5.066a2.46 2.46 0 0 1-2.457-2.457v-34.471a2.461 2.461 0 0 1 2.457-2.457v-2.61A5.066 5.066 0 0 0 0 639.148v34.471a5.066 5.066 0 0 0 5.066 5.066h127.183a5.065 5.065 0 0 0 5.065-5.066v-34.471a5.066 5.066 0 0 0-5.065-5.066H5.066v1.305"/><path fill="#35495E" d="M35.897 656.629H7.198c-2.074 0-3.757 1.731-3.757 3.866s1.683 3.866 3.757 3.866h28.699c2.074 0 3.756-1.731 3.756-3.866s-1.681-3.866-3.756-3.866M36.425 653.142h1.159v-5.936h2.075v-1.103h-5.308v1.102h2.074v5.937m-2.835-4.438c-.123-1.518-1.115-2.798-3.016-2.798-2.174 0-3.09 1.732-3.09 3.718 0 1.98.956 3.717 2.952 3.717 2.275 0 2.993-1.486 3.155-2.89H32.34c-.097.74-.498 1.787-1.703 1.787-1.148 0-1.942-1.018-1.942-2.488 0-1.834.794-2.744 1.864-2.744.976 0 1.665.631 1.781 1.697l1.25.001m-11.917 4.438h4.859v-1.103h-3.699v-1.952h3.491v-1.103h-3.491v-1.777h3.636v-1.103h-4.794l-.002 7.038m-5.55 0h4.519v-1.161h-3.358v-5.878h-1.161v7.039m-6.121 0h4.86v-1.103h-3.699v-1.952h3.49v-1.103h-3.49v-1.777h3.64v-1.103h-4.801v7.038m-6.415-5.059c0 2.887 4.072 1.366 4.072 3.113 0 .774-.658 1.04-1.363 1.04-.954 0-1.554-.446-1.587-1.375H3.456c.015 1.48.812 2.477 2.801 2.477 1.177 0 2.654-.473 2.654-2.289 0-3.006-4.116-1.422-4.116-3.074 0-.661.511-.968 1.283-.968.967 0 1.356.591 1.395 1.136h1.255c-.149-2.043-1.853-2.238-2.704-2.238-1.346 0-2.437.61-2.437 2.178"/><path fill="#F4F4F4" d="M39.653 647.206h-.098v12.409a3.982 3.982 0 0 1 0 1.76v12.688H3.539v-12.688a3.98 3.98 0 0 1-.098-.879v13.664h36.212v-26.954m0-9.257H3.442v22.546c0-.303.034-.597.098-.879v-8.019a3.304 3.304 0 0 1-.083-.736h.083v-12.815h36.016v8.056h.098v-8.153"/><path fill="#35495E" d="M3.539 659.616a3.98 3.98 0 0 0 0 1.758v-1.758m36.017-.001v1.76a3.982 3.982 0 0 0 0-1.76M3.539 650.861h-.083c.003.261.03.507.083.736v-.736m36.114-4.758h-.098v1.103h.098v-1.103M57.783 656.952c-1.753-.504-3.03-1.121-3.831-1.852-.795-.738-1.192-1.646-1.192-2.725 0-1.22.486-2.228 1.458-3.023.979-.802 2.249-1.203 3.81-1.203 1.064 0 2.012.206 2.842.617.837.412 1.483.979 1.937 1.703.461.724.692 1.515.692 2.373h-2.054c0-.937-.298-1.671-.894-2.203-.596-.539-1.437-.809-2.522-.809-1.008 0-1.795.224-2.363.67-.561.44-.841 1.054-.841 1.841 0 .631.266 1.167.798 1.607.539.433 1.451.83 2.735 1.192 1.291.362 2.299.763 3.023 1.203.731.433 1.27.94 1.618 1.522.355.582.532 1.267.532 2.054 0 1.256-.49 2.263-1.469 3.023-.979.752-2.288 1.128-3.927 1.128a7.329 7.329 0 0 1-2.98-.607c-.922-.412-1.635-.972-2.139-1.682-.497-.71-.745-1.515-.745-2.416h2.054c0 .937.344 1.678 1.032 2.224.695.539 1.621.809 2.778.809 1.079 0 1.905-.22 2.48-.66.575-.44.862-1.039.862-1.799 0-.759-.266-1.345-.798-1.756-.534-.415-1.499-.827-2.896-1.231zM74.918 656.696h-6.716v5.492h7.801v1.671h-9.844v-15.496h9.738v1.681h-7.695v4.981h6.716zM80.601 662.188h7.344v1.671h-9.398v-15.496h2.054zM99.056 656.696H92.34v5.492h7.802v1.671h-9.845v-15.496h9.738v1.681H92.34v4.981h6.716zM114.084 658.942c-.192 1.639-.798 2.906-1.82 3.799-1.015.887-2.366 1.33-4.055 1.33-1.831 0-3.299-.656-4.406-1.969-1.1-1.313-1.65-3.069-1.65-5.268v-1.49c0-1.44.255-2.707.766-3.8.518-1.093 1.249-1.93 2.192-2.512.944-.589 2.036-.883 3.278-.883 1.646 0 2.966.461 3.959 1.384.993.915 1.572 2.185 1.735 3.81h-2.054c-.177-1.235-.564-2.129-1.16-2.682-.589-.553-1.416-.83-2.48-.83-1.306 0-2.331.482-3.076 1.447-.738.965-1.107 2.338-1.107 4.119v1.501c0 1.682.351 3.019 1.054 4.012.702.993 1.685 1.49 2.948 1.49 1.135 0 2.004-.255 2.608-.766.61-.518 1.015-1.415 1.213-2.693l2.055.001zM127.271 650.044h-4.981v13.815h-2.033v-13.815h-4.97v-1.681h11.984z"/><path fill="#F4F4F4" d="M588.371 636.782h-117.06a3.764 3.764 0 0 0-3.764 3.764v34.497a3.764 3.764 0 0 0 3.764 3.764h117.06a3.764 3.764 0 0 0 3.764-3.764v-34.497a3.765 3.765 0 0 0-3.764-3.764"/><path fill="#35495E" d="M471.311 636.782v1.255h117.06a2.514 2.514 0 0 1 2.509 2.509v34.497a2.514 2.514 0 0 1-2.509 2.509h-117.06a2.514 2.514 0 0 1-2.509-2.509v-34.497a2.514 2.514 0 0 1 2.509-2.509v-2.51a5.02 5.02 0 0 0-5.019 5.019v34.497a5.02 5.02 0 0 0 5.019 5.019h117.06a5.02 5.02 0 0 0 5.019-5.019v-34.497a5.02 5.02 0 0 0-5.019-5.019h-117.06v1.255z"/><path fill="#35495E" d="M502.915 654.552h1.435v-6.063h2.557v-1.127h-6.548v1.127h2.557l-.001 6.063zm-8.694-3.966v-2.097h2.476c.753 0 1.223.291 1.223 1.037 0 .806-.431 1.061-1.223 1.061h-2.476zm-1.431 3.966h1.431v-2.84h2.437c1.051 0 1.185.725 1.185 1.751 0 .525.068.888.174 1.089h1.548c-.28-.394-.289-1.196-.289-1.542 0-1.017-.18-1.762-.992-1.941v-.021c.642-.211 1.125-.795 1.125-1.733 0-1.116-.562-1.95-2.3-1.95h-4.317l-.002 7.187zm-8.865 0h1.547l.706-1.782h3.21l.716 1.782h1.599l-3.038-7.191h-1.7l-3.04 7.191zm2.685-2.91l1.184-3.035 1.165 3.035h-2.349zm-6.716 2.91h1.431v-6.063h2.561v-1.127h-6.553v1.127h2.561v6.063zm-9.782-5.168c0 2.949 5.025 1.397 5.025 3.181 0 .79-.811 1.062-1.68 1.062-1.176 0-1.919-.455-1.959-1.404h-1.546c.021 1.513 1.003 2.532 3.461 2.532 1.452 0 3.273-.485 3.273-2.34 0-3.072-5.081-1.451-5.081-3.141 0-.674.631-.986 1.585-.986 1.193 0 1.672.603 1.722 1.158h1.547c-.185-2.088-2.285-2.287-3.337-2.287-1.664.001-3.01.622-3.01 2.225M503.066 658.114h-29.305c-2.118 0-3.836 1.768-3.836 3.948 0 2.18 1.718 3.948 3.836 3.948h29.305c2.118 0 3.835-1.767 3.835-3.948s-1.716-3.948-3.835-3.948zM524.04 658.362c-1.753-.504-3.03-1.121-3.831-1.852-.795-.738-1.192-1.646-1.192-2.725 0-1.22.486-2.228 1.458-3.023.979-.802 2.249-1.203 3.81-1.203 1.064 0 2.012.206 2.842.617.837.412 1.483.979 1.937 1.703.461.724.692 1.515.692 2.373h-2.054c0-.937-.298-1.671-.894-2.203-.596-.539-1.437-.809-2.522-.809-1.008 0-1.795.224-2.363.671-.561.44-.841 1.054-.841 1.841 0 .631.266 1.167.798 1.607.539.433 1.451.83 2.735 1.192 1.291.362 2.299.763 3.023 1.203.731.433 1.27.94 1.618 1.522.355.582.532 1.267.532 2.054 0 1.256-.49 2.263-1.469 3.023-.979.752-2.288 1.128-3.927 1.128a7.329 7.329 0 0 1-2.98-.607c-.922-.411-1.635-.972-2.139-1.682-.497-.71-.745-1.515-.745-2.416h2.054c0 .937.344 1.678 1.032 2.224.695.539 1.621.809 2.778.809 1.078 0 1.905-.22 2.48-.66.575-.44.862-1.039.862-1.799 0-.759-.266-1.345-.798-1.756-.533-.416-1.498-.828-2.896-1.232zM543.123 651.454h-4.981v13.815h-2.032v-13.815h-4.971v-1.681h11.984zM553.149 661.225h-6.492l-1.458 4.044h-2.107l5.917-15.496h1.788l5.928 15.496h-2.097l-1.479-4.044zm-5.875-1.682h5.268l-2.639-7.248-2.629 7.248zM564.494 659h-3.64v6.269H558.8v-15.496h5.13c1.745 0 3.086.397 4.023 1.192.944.795 1.416 1.951 1.416 3.47 0 .965-.263 1.806-.788 2.522-.518.717-1.242 1.252-2.171 1.607l3.64 6.577v.128h-2.192L564.494 659zm-3.639-1.671h3.14c1.015 0 1.82-.263 2.416-.788.603-.525.905-1.227.905-2.107 0-.958-.287-1.692-.862-2.203-.568-.511-1.391-.77-2.469-.777h-3.129v5.875zM582.077 651.454h-4.981v13.815h-2.033v-13.815h-4.97v-1.681h11.984z"/></svg>