<svg xmlns="http://www.w3.org/2000/svg" xmlns:xlink="http://www.w3.org/1999/xlink" viewBox="0 0 305.865 221.696"><path d="M86.78.013C63.72-.082 29.224-.224 15.447 21.346c-1.861 2.913-3.064 5.785-5.333 15-6.513 26.443-7.705 47.864-8.739 68.667-2.597 52.272-2.654 69.75 10.155 84.417.469.538.917 1.021.917 1.021 7.846 8.32 18.906 9.808 25.833 10.646 19.269 2.331 30.25 3 30.25 3 25.052 1.527 37.393 3.047 45 4.5 16.307 3.114 18.317 4.365 25.058 8.046.593.324 8.928 4.317 11.317 4.829 0 0 7.708 1.651 16.625-4 16.599-10.519 11.618-76.774 7.25-139.625-.082-1.186-.213-3.06-.469-5.566-1.032-10.092-4.135-40.444-17.031-56.184C143.293.246 121.145.155 86.78.013z" fill="#8c8c8c"/><circle cx="90.803" cy="154.461" r="14" fill="#918f8b"/><g fill="#7b7677"><path d="M92.226 147.249a7.36 7.36 0 0 1 5.772 5.705h2.489a9.807 9.807 0 0 0-8.261-8.19v2.485zM89.321 147.26a7.36 7.36 0 0 0-5.714 5.694h-2.489a9.807 9.807 0 0 1 8.261-8.19v2.485l-.058.011zM89.379 161.673a7.358 7.358 0 0 1-5.804-5.872h-2.481a9.807 9.807 0 0 0 8.285 8.357v-2.485zM92.226 161.673a7.358 7.358 0 0 0 5.804-5.872h2.481a9.807 9.807 0 0 1-8.285 8.357v-2.485z"/></g><g fill="#898784" stroke="#4c4c4c" stroke-width=".01" stroke-miterlimit="10"><path d="M80.332 141.142v-4.425h1.344c.405 0 .728.114.968.341.241.228.361.534.361.917 0 .257-.062.485-.185.683a1.074 1.074 0 0 1-.507.432c-.215.09-.522.134-.923.134h-.449v1.917h-.609zm1.238-3.861h-.628v1.382h.665c.247 0 .437-.061.571-.182.133-.121.2-.294.2-.521 0-.453-.269-.679-.808-.679zM85.614 136.66c.655 0 1.201.216 1.636.648s.654.974.654 1.626c0 .651-.22 1.19-.66 1.618-.44.427-.995.641-1.664.641-.639 0-1.171-.214-1.597-.641-.425-.427-.638-.962-.638-1.605 0-.66.214-1.206.643-1.638.429-.432.971-.649 1.626-.649zm.025.602c-.485 0-.884.158-1.196.474-.313.316-.469.72-.469 1.211 0 .477.157.873.47 1.189s.706.475 1.176.475c.473 0 .868-.162 1.184-.484.316-.323.475-.725.475-1.205 0-.468-.158-.862-.475-1.182s-.705-.478-1.165-.478zM93.803 136.724h.605l-1.714 4.438h-.133l-1.386-3.593-1.4 3.593h-.13l-1.709-4.438h.612l1.168 3.046 1.176-3.046h.574l1.182 3.046 1.155-3.046zM94.879 136.724h2.404v.563h-1.797v1.347h1.736v.566h-1.736v1.373h1.854v.563h-2.461v-4.412zM98.004 141.142v-4.418h1.063c.429 0 .77.11 1.021.332.252.221.378.521.378.898 0 .257-.062.48-.185.667-.124.188-.3.328-.531.421.136.093.268.219.398.379.129.16.312.44.546.838.148.251.266.439.355.566l.225.316h-.723l-.185-.291c-.006-.011-.019-.029-.037-.054l-.118-.174-.188-.323-.203-.345a3.438 3.438 0 0 0-.344-.434c-.104-.107-.199-.185-.283-.232s-.225-.071-.424-.071h-.158v1.923h-.607zm.79-3.88h-.182v1.395h.23c.308 0 .519-.027.633-.082s.203-.138.267-.248a.753.753 0 0 0 .096-.378c0-.139-.036-.265-.106-.378s-.17-.192-.299-.239-.342-.07-.639-.07z"/></g><circle cx="90.803" cy="154.378" r="4.969" fill="#837c6f"/><circle cx="90.803" cy="180.972" r="11.223" fill="#918f8b"/><g fill="#7b7677"><path d="M91.944 175.19a5.901 5.901 0 0 1 4.627 4.573h1.996a7.862 7.862 0 0 0-6.622-6.566l-.001 1.993zM89.615 175.199a5.902 5.902 0 0 0-4.581 4.564h-1.996a7.862 7.862 0 0 1 6.622-6.566v1.992l-.045.01zM89.661 186.753a5.898 5.898 0 0 1-4.653-4.707h-1.989a7.86 7.86 0 0 0 6.642 6.699v-1.992zM91.944 186.753a5.898 5.898 0 0 0 4.653-4.707h1.989a7.86 7.86 0 0 1-6.642 6.699v-1.992z"/></g><circle cx="90.803" cy="180.905" r="3.983" fill="#5e4c3f"/><g fill="#898784" stroke="#4c4c4c" stroke-width=".01" stroke-miterlimit="10"><path d="M82.813 174.224v-4.418h1.063c.429 0 .77.11 1.021.332.252.221.378.521.378.898 0 .257-.062.48-.185.667-.124.188-.3.328-.531.421.136.093.268.219.398.379.129.16.312.44.546.838.148.251.266.439.355.566l.225.316h-.723l-.185-.291c-.006-.011-.019-.029-.037-.054l-.118-.174-.188-.323-.203-.345a3.438 3.438 0 0 0-.344-.434c-.104-.107-.199-.185-.283-.232s-.225-.071-.424-.071h-.158v1.923h-.607zm.79-3.88h-.182v1.395h.23c.308 0 .519-.027.633-.082s.203-.138.267-.248a.753.753 0 0 0 .096-.378c0-.139-.036-.265-.106-.378s-.17-.192-.299-.239-.342-.07-.639-.07zM86.549 169.806h2.404v.563h-1.797v1.347h1.736v.566h-1.736v1.373h1.854v.563h-2.461v-4.412zM90.707 172.373l-.461-.292c-.29-.184-.495-.365-.618-.543s-.184-.383-.184-.615c0-.348.116-.63.348-.848.231-.217.533-.326.903-.326.354 0 .679.104.974.311v.718c-.306-.306-.634-.459-.986-.459a.793.793 0 0 0-.489.144.44.44 0 0 0-.191.367.58.58 0 0 0 .141.372c.094.115.245.237.453.364l.463.286c.517.322.776.732.776 1.229 0 .354-.114.642-.341.863-.228.222-.523.333-.888.333-.419 0-.8-.134-1.145-.403v-.803c.328.433.708.649 1.138.649.19 0 .349-.055.475-.166s.189-.249.189-.415c.001-.27-.185-.524-.557-.766zM92.504 169.806h2.404v.563h-1.797v1.347h1.736v.566h-1.736v1.373h1.854v.563h-2.461v-4.412zM95.251 169.8h3.542v.563h-1.478v3.862h-.61v-3.862h-1.454v-.563z"/></g><path d="M89.02 27.013a1.231 1.231 0 0 1-1.228-1.228V9.075c0-.676.553-1.228 1.228-1.228.676 0 1.228.553 1.228 1.228v16.71a1.23 1.23 0 0 1-1.228 1.228zM65.424 14.335l1.08 3.852a1.295 1.295 0 0 0 1.592.895 1.295 1.295 0 0 0 .895-1.592l-1.078-3.852v-4c0-.71-.581-1.292-1.292-1.292-.71 0-1.292.581-1.292 1.292l.095 4.697zM112.617 14.335l-1.08 3.852a1.295 1.295 0 0 1-1.592.895 1.295 1.295 0 0 1-.895-1.592l1.078-3.852v-4c0-.71.581-1.292 1.292-1.292.71 0 1.292.581 1.292 1.292l-.095 4.697zM.61 121.378h17.586v-3.573H.766M162.32 99.305h3.329V113.9h-3.329z" fill="#939393"/><path fill="#939393" d="M175.478 102.587H162.32v-3.282h12.939M175.817 107.795H162.32v-3.282h13.285M158.126 221.051v-27.72h-3.103v28.239"/><path fill="#939393" d="M176.613 191.78h-20.039v3.103h19.611"/><g fill="#91918b"><path d="M138.207 127.512l-4.158 4.623a3.024 3.024 0 0 0 .226 4.259l5.447 4.899 8.191-9.108-5.447-4.899a3.025 3.025 0 0 0-4.259.226zm5.736 5.221l-4.096 4.554-2.724-2.449a1.513 1.513 0 0 1-.113-2.13l2.079-2.312a1.513 1.513 0 0 1 2.13-.113l2.724 2.45zM135.526 156.404l4.397 4.397a3.024 3.024 0 0 0 4.265 0l5.18-5.18-8.662-8.662-5.18 5.18a3.024 3.024 0 0 0 0 4.265zm5.517-5.452l4.331 4.331-2.59 2.59a1.514 1.514 0 0 1-2.133 0l-2.198-2.198a1.514 1.514 0 0 1 0-2.133l2.59-2.59z"/><path d="M152.775 158.351c-8.34 0-15.125-6.785-15.125-15.124 0-8.34 6.785-15.125 15.125-15.125s15.125 6.785 15.125 15.125c0 8.339-6.785 15.124-15.125 15.124z"/><path d="M164.236 162.283l4.397-4.397a3.024 3.024 0 0 0 0-4.265l-5.18-5.18-8.662 8.662 5.18 5.18a3.024 3.024 0 0 0 4.265 0zm-5.451-5.518l4.331-4.331 2.59 2.59a1.514 1.514 0 0 1 0 2.133l-2.198 2.198a1.514 1.514 0 0 1-2.133 0l-2.59-2.59z"/></g><g fill="#84817e"><path d="M123.813 145.972h-6.218a3.025 3.025 0 0 0-3.016 3.016v7.326h12.25v-7.326a3.025 3.025 0 0 0-3.016-3.016zm-.046 7.756h-6.125v-3.663c0-.829.679-1.508 1.508-1.508h3.109c.829 0 1.508.679 1.508 1.508v3.663zM105.497 183.089l4.791 3.964a3.025 3.025 0 0 0 4.246-.401l4.67-5.645-9.439-7.809-4.67 5.645a3.025 3.025 0 0 0 .402 4.246zm4.98-5.947l4.719 3.904-2.335 2.822a1.513 1.513 0 0 1-2.123.201l-2.395-1.982a1.513 1.513 0 0 1-.201-2.123l2.335-2.822z"/><path d="M121.59 182.304c-8.34 0-15.125-6.785-15.125-15.124 0-8.34 6.785-15.125 15.125-15.125s15.125 6.785 15.125 15.125c0 8.339-6.785 15.124-15.125 15.124z"/></g><circle cx="121.59" cy="167.469" r="11.156" fill="#004f8a"/><path d="M119.129 173.014h-2.726v-10.263h2.581c1.628 0 2.845.807 2.845 2.712 0 .836-.381 1.745-1.202 2.127.865.308 1.379 1.217 1.379 2.331-.002 2.051-1.176 3.093-2.877 3.093zm-.102-8.871h-1.202v2.786h1.173c.763 0 1.364-.44 1.364-1.423-.002-1.01-.558-1.363-1.335-1.363zm-.059 4.164h-1.144v3.314h1.291c.864 0 1.421-.469 1.421-1.701 0-1.144-.673-1.613-1.568-1.613z" fill="#014577"/><circle cx="18.196" cy="119.592" r="6.338" fill="#91918f"/><circle cx="163.985" cy="113.899" r="5.906" fill="#91918f"/><circle cx="156.574" cy="193.331" r="5.505" fill="#91918f"/><circle cx="27.087" cy="187.701" r="5.792" fill="#91918f"/><circle cx="52.446" cy="10.842" r="6.338" fill="#91918f"/><circle cx="125.594" cy="10.815" r="6.338" fill="#91918f"/><circle cx="148.852" cy="21.625" r="4.472" fill="#91918f"/><circle cx="29.188" cy="21.492" r="4.472" fill="#91918f"/><g><circle cx="18.196" cy="119.592" r="1.786" fill="#878786"/><circle cx="163.985" cy="113.899" r="1.665" fill="#878786"/><circle cx="156.574" cy="193.331" r="1.552" fill="#878786"/><circle cx="27.087" cy="187.701" r="1.632" fill="#878786"/><circle cx="52.446" cy="10.842" r="1.786" fill="#878786"/><circle cx="125.594" cy="10.815" r="1.786" fill="#878786"/><circle cx="148.852" cy="21.625" r="1.26" fill="#878786"/><circle cx="29.188" cy="21.492" r="1.26" fill="#878786"/></g><g><circle cx="152.885" cy="143.164" r="11.156" fill="#004f8a"/><path d="M152.64 148.79l-.602-2.712h-2.229l-.586 2.712h-1.525l2.521-10.262h1.481l2.507 10.262h-1.567zm-1.275-5.806c-.147-.675-.367-1.862-.441-2.243-.072.381-.293 1.554-.439 2.243l-.381 1.73h1.642l-.381-1.73z" fill="#014577"/></g><g><ellipse cx="89.02" cy="75.097" rx="67.406" ry="50.5"/><path d="M43.395 74.472c.229 16.312.167 22.458.542 28.667.075 1.237 1.542 1.583 9.583 1.958 6.995.326 15.425.5 35.501.5s28.505-.174 35.501-.5c8.042-.375 9.509-.721 9.583-1.958.375-6.208.313-12.354.542-28.667-.229-16.312-.167-22.458-.542-28.667-.075-1.237-1.542-1.583-9.583-1.958-6.995-.326-15.425-.5-35.501-.5s-28.505.174-35.501.5c-8.042.375-9.509.721-9.583 1.958-.375 6.208-.313 12.354-.542 28.667z" fill="#7e7646"/><path d="M57.284 109.227v6.708h1.793v-2.369h1.394s1.803-.133 1.803-1.432v-1.299s-.011-1.609-1.803-1.609c-1.773.001-3.179.023-3.187.001zm1.793 1.299h.956c.491.129.438.574.438.574v.566c0 .47-.438.566-.438.566h-.956v-1.706zM65.053 110.835c-.496-.001-2.48.139-2.48 2.537 0 2.74 2.59 2.563 2.59 2.563s2.53-.023 2.53-2.563-2.502-2.535-2.53-2.537h-.11zm.11 1.3s.926-.133.926 1.237c0 1.269-.926 1.131-.926 1.131s-.966.01-.966-1.131c0-1.375.966-1.222.966-1.237zM68.451 108.834h1.622v3.88l1.255-1.878h1.733l-1.733 2.249 1.733 2.853h-1.733l-1.255-2.375v2.375h-1.622v-7.104zM75.681 110.835c-1.913 0-2.351 1.296-2.351 2.537s.846 2.563 2.48 2.563 1.783-.292 1.783-.292v-.857c-.012-.003-1.338 0-2.042 0-.704 0-.568-.84-.568-.84h3.038v-.937c.001.001.002-2.174-2.34-2.174zm.11 1.114c.808 0 .817.283.817.283v.778h-1.624v-.778s-.001-.283.807-.283zM74.054 109.526l.613.769 2.331-1.237-.718-.794-2.197 1.25-.029.012zM78.829 115.938h1.434v-2.933s.06-.771.797-.771.737.771.737.771v2.933h1.355v-2.933s.03-.771.767-.771.737.771.737.771v2.933h1.404v-3.704s.1-1.399-1.404-1.399-1.504.832-1.504.832.179-.832-1.355-.832-1.534.832-1.534.832.219-.832-.608-.832h-.827v5.103zM89.437 110.838c-.496-.001-2.48.139-2.48 2.537 0 2.74 2.59 2.563 2.59 2.563s2.53-.023 2.53-2.563-2.502-2.535-2.53-2.537h-.11zm.109 1.299s.926-.133.926 1.237c0 1.269-.926 1.131-.926 1.131s-.966.01-.966-1.131c0-1.374.966-1.221.966-1.237zM92.863 115.938h1.564v-2.933s-.04-.771.827-.771.867.771.867.771v2.933h1.454v-3.704s.01-1.399-1.454-1.399-1.693.832-1.693.832.139-.832-.438-.832h-1.126v5.103z" fill="#fff"/><path d="M101.297 110.836h6.712s.648-.022.648.543v4.264s.014.295-.31.295h-.972s-.324-.007-.324-.295v-2.638s-.028-.337-.31-.337h-.972s-.324-.033-.324.337v2.638s-.042.295-.324.295h-.916s-.352.018-.352-.295v-2.638s.099-.337-.338-.337h-.916s-.324-.033-.324.337v2.638s0 .295-.324.295h-.972s-.296-.02-.296-.295v-4.264s.015-.502.614-.543zM111.191 113.376s.311-.021.311.273v1.995s-.033.295-.302.295h-.657s-.323-.008-.323-.295v-1.995s.014-.273.333-.273.618.01.638 0zM110.553 112.519s-.333.005-.333-.284v-.855s-.001-.283.338-.283h.637s.307-.006.307.283v.855s.032.284-.302.284-.637-.004-.647 0zM113.093 115.644s.01.295.329.295h.936s.329-.016.329-.295v-2.638s.01-.337.319-.337h.956s.329-.033.329.337v2.638s-.02.295.319.295h.647s.299-.016.299-.295v-3.976s-.01-.571-.637-.571h-3.177s-.647.005-.647.571c-.002.567.028 4.007-.002 3.976zM120.444 113.376s.311-.021.311.273v1.995s-.033.295-.302.295h-.657s-.323-.008-.323-.295v-1.995s.014-.273.333-.273c.32 0 .618.01.638 0zM119.807 112.519s-.333.005-.333-.284v-.855s-.001-.283.338-.283h.637s.307-.006.307.283v.855s.032.284-.302.284-.637-.004-.647 0z" fill="#f1d941"/><g fill-rule="evenodd" clip-rule="evenodd" fill="#fff"><path d="M102.662 29.745H75.379c-2.887-.006-4.827 2.092-4.827 4.608 0 2.515 1.935 4.59 4.831 4.59h27.273c2.896-.001 4.831-2.075 4.831-4.59.001-2.516-1.938-4.614-4.825-4.608zm-.014 8.07H75.393c-2.302.009-3.7-1.553-3.7-3.469s1.408-3.465 3.7-3.47h27.255c2.293.004 3.701 1.553 3.701 3.47 0 1.916-1.4 3.478-3.701 3.469z"/><path d="M77.398 35.191l-1.847-3.02h-1.334l-.001 4.331h1.326v-3.02l1.856 3.02h1.322v-4.331h-1.323zM87.907 33.627V33.2h-.698v-.583H85.92l.001.583h-.7v.427h.699v2.875h1.29l-.001-2.875zM79.458 33.622h1.288v2.88h-1.288zM79.455 32.171h1.291v.886h-1.291zM102.031 33.426c-1.04 0-1.882.724-1.882 1.617 0 .892.842 1.616 1.882 1.616s1.883-.724 1.883-1.616c-.001-.893-.843-1.617-1.883-1.617zm.516 2.223c0 .459-.268.649-.526.649s-.528-.19-.528-.649l.001-.621.001-.6c0-.457.269-.645.526-.645s.526.188.526.645l.001.613-.001.608zM98.458 33.765c-.206-.117-.423-.229-.729-.257-.928-.082-1.638.747-1.638 1.508 0 1.001.765 1.373.881 1.428.434.204.991.205 1.483-.108l.001.166h1.273v-4.33h-1.272c.001-.001.001.927.001 1.593zm.009 1.283v.511c0 .445-.304.561-.505.561-.205 0-.505-.116-.505-.561l.001-.512-.001-.514c0-.445.3-.558.505-.558.201 0 .505.113.505.558v.515zM83.762 33.489a1.542 1.542 0 0 0-1.027.434v-.303l-1.28.001.001 2.879h1.279l-.001-1.891c0-.251.261-.53.612-.53s.588.279.588.53V36.5h1.28v-1.566c.007-1.14-.971-1.458-1.452-1.445zM94.23 33.489a1.542 1.542 0 0 0-1.027.434c-.002-.071 0-.303 0-.303l-1.278.001-.001 2.879h1.279l-.002-1.891c0-.251.262-.53.612-.53.351 0 .588.279.588.53V36.5h1.28s-.001-1.364.001-1.566c.007-1.14-.971-1.458-1.452-1.445zM91.534 35.075c0-.893-.853-1.633-1.9-1.633s-1.897.724-1.897 1.616c0 .893.85 1.617 1.897 1.617.869 0 1.603-.502 1.827-1.182l-1.284.001.001.175c0 .527-.342.644-.532.644-.191 0-.539-.117-.539-.644l.002-.594h2.425zm-2.342-1.014a.526.526 0 0 1 .453-.262h.001a.522.522 0 0 1 .452.262c.082.145.087.313.085.565h-1.075c-.004-.252.002-.421.084-.565zM104.571 32.496c0-.194-.114-.28-.344-.28h-.372v.986h.148v-.428h.169l.258.428h.165l-.277-.434c.144-.019.253-.096.253-.272zm-.568.151v-.305h.202c.102 0 .212.023.212.145 0 .152-.111.161-.237.161h-.177z"/><path d="M104.181 31.854a.85.85 0 0 0-.859.853.85.85 0 0 0 .859.857.848.848 0 0 0 .854-.857.846.846 0 0 0-.854-.853zm0 1.567c-.386 0-.688-.303-.688-.715 0-.404.302-.71.688-.71.383 0 .684.306.684.71.001.412-.3.715-.684.715z"/></g></g><path d="M22.188 51.891l3.865 1.029c.687.183 1.099.894.916 1.58a1.295 1.295 0 0 1-1.58.916l-3.865-1.028-13.387.053a1.295 1.295 0 0 1-1.308-1.275 1.295 1.295 0 0 1 1.275-1.308l14.084.033zM16.471 73.329l3.865 1.029c.687.183 1.099.894.916 1.58a1.295 1.295 0 0 1-1.58.916l-3.865-1.028-10.67.052a1.295 1.295 0 0 1-1.308-1.275 1.295 1.295 0 0 1 1.275-1.308l11.367.034zM155.605 51.951l-3.697.984a1.232 1.232 0 0 0-.88 1.498 1.232 1.232 0 0 0 1.508.862l3.697-.983 12.795.013a1.24 1.24 0 0 0 1.254-1.21 1.222 1.222 0 0 0-1.215-1.234l-13.462.07zM161.34 73.383l-3.71.988a1.233 1.233 0 0 0-.885 1.496 1.233 1.233 0 0 0 1.511.858l3.71-.986 10.229.004a1.246 1.246 0 0 0 1.26-1.209 1.219 1.219 0 0 0-1.216-1.23l-10.899.079z" fill="#939393"/><circle cx="44.65" cy="159.08" r="31.958" fill="#898888"/><circle cx="44.65" cy="159.08" r="27.164" fill="#636a75"/><path d="M40.994 185.481a5.71 5.71 0 0 1-5.703-5.703V168.44H23.952a5.71 5.71 0 0 1-5.704-5.703v-7.313a5.71 5.71 0 0 1 5.704-5.703H35.29v-11.338a5.71 5.71 0 0 1 5.703-5.703h7.313a5.71 5.71 0 0 1 5.703 5.703v11.338h11.338a5.71 5.71 0 0 1 5.703 5.703v7.313a5.71 5.71 0 0 1-5.703 5.703H54.009v11.338a5.71 5.71 0 0 1-5.703 5.703h-7.312z" fill="#5e717c"/><g><path d="M37.275 150.492v-12.109a3.73 3.73 0 0 1 3.719-3.719h7.312a3.73 3.73 0 0 1 3.719 3.719v12.109c0 .67.543 1.214 1.214 1.214h12.109a3.73 3.73 0 0 1 3.719 3.719v7.312a3.73 3.73 0 0 1-3.719 3.719h-12.11c-.67 0-1.214.543-1.214 1.214v12.109a3.73 3.73 0 0 1-3.719 3.719h-7.312a3.73 3.73 0 0 1-3.719-3.719V167.67c0-.67-.543-1.214-1.214-1.214H23.952a3.73 3.73 0 0 1-3.719-3.719v-7.312a3.73 3.73 0 0 1 3.719-3.719h12.109a1.215 1.215 0 0 0 1.214-1.214z" fill="#004f8a"/><path d="M41.45 146.646h6.682a.886.886 0 0 0 .767-1.329l-3.341-5.787a.886.886 0 0 0-1.534 0l-3.341 5.787a.886.886 0 0 0 .767 1.329z" fill="#093f72"/><path d="M41.309 146.504h6.682a.886.886 0 0 0 .767-1.329l-3.341-5.787a.886.886 0 0 0-1.534 0l-3.341 5.787a.886.886 0 0 0 .767 1.329z" fill="#014577"/><path d="M32.216 162.279v-6.682a.886.886 0 0 0-1.329-.767l-5.787 3.341a.886.886 0 0 0 0 1.534l5.787 3.341a.886.886 0 0 0 1.329-.767z" fill="#093f72"/><path d="M32.074 162.421v-6.682a.886.886 0 0 0-1.329-.767l-5.787 3.341a.886.886 0 0 0 0 1.534l5.787 3.341a.886.886 0 0 0 1.329-.767z" fill="#014577"/><path d="M47.849 171.514h-6.682a.886.886 0 0 0-.767 1.329l3.341 5.787a.886.886 0 0 0 1.534 0l3.341-5.787a.886.886 0 0 0-.767-1.329z" fill="#093f72"/><path d="M47.99 171.656h-6.682a.886.886 0 0 0-.767 1.329l3.341 5.787a.886.886 0 0 0 1.534 0l3.341-5.787a.886.886 0 0 0-.767-1.329z" fill="#014577"/><g><path d="M57.084 155.881v6.682a.886.886 0 0 0 1.329.767l5.787-3.341a.886.886 0 0 0 0-1.534l-5.787-3.341a.886.886 0 0 0-1.329.767z" fill="#093f72"/><path d="M57.225 155.739v6.682a.886.886 0 0 0 1.329.767l5.787-3.341a.886.886 0 0 0 0-1.534l-5.787-3.341a.886.886 0 0 0-1.329.767z" fill="#014577"/></g><linearGradient id="a" gradientUnits="userSpaceOnUse" x1="40.427" y1="161.518" x2="48.872" y2="156.642"><stop offset="0" stop-color="#004c8a"/><stop offset=".628" stop-color="#004b88"/><stop offset=".854" stop-color="#004981"/><stop offset="1" stop-color="#014577"/></linearGradient><circle cx="44.65" cy="159.08" r="4.875" fill="url(#a)"/></g><path d="M172.553 65.429c.128-16.576-1.897-29.011-3.466-35.333-1.068-4.301-5.888-12.673-8.969-16.388-.867-1.045-1.82-2.12-3.447-2.519-.262-.064-.708-.152-2.362-.169-1.694-.017-1.993.091-2.936.16a34.857 34.857 0 0 1 4.907 4.915c10.672 13.027 14.638 36.058 16.273 49.334z" fill="#065d93"/><g><path d="M304.285 208.654v-55.875h-90.75v55.875c0 7.203 20.315 13.042 45.375 13.042s45.375-5.839 45.375-13.042z" fill="#898988"/><path d="M226.452 163.529c3.521-5.375 14.532-10.75 32.458-10.75s28.938 5.375 32.458 10.75h11.625c2.888 0 2.845.333 2.87-4.06.049-8.857-.855-17.408-2.06-23.544-1.26-6.417-8.06-5.063-44.893-5.063s-43.634-1.354-44.893 5.063c-1.204 6.136-2.109 14.687-2.06 23.544.024 4.393-.018 4.06 2.87 4.06h11.625z" fill="#939393"/><path d="M282.088 163.535c-.26 0-.51-.169-.557-.425-.689-3.804-10.553-6.821-22.62-6.821s-21.906 3.017-22.594 6.821c-.046.256-.296.426-.557.426l-9.308-.005c3.521-5.375 14.532-10.75 32.458-10.75s28.938 5.375 32.458 10.75l-9.28.004z" fill="#999998"/><linearGradient id="b" gradientUnits="userSpaceOnUse" x1="257.95" y1="207.28" x2="257.95" y2="165.155"><stop offset="0" stop-color="#ebdb4f"/><stop offset="1" stop-color="#e5c201"/></linearGradient><path d="M293.45 165.154a4.702 4.702 0 0 1 4.688 4.688v26.5c0 9.125-37.609 10.938-40.188 10.938-2.578 0-40.187-1.813-40.187-10.938v-26.5a4.702 4.702 0 0 1 4.688-4.688h70.999z" fill="url(#b)"/><path d="M286.956 195.802a5.846 5.846 0 1 0-.002-11.692 5.846 5.846 0 0 0 .002 11.692" fill="#fff"/><path d="M286.962 195.112c1.377 0 2.673-.537 3.648-1.511s1.511-2.268 1.511-3.648c0-1.377-.537-2.673-1.511-3.648s-2.268-1.511-3.648-1.511c-2.891 0-5.158 2.265-5.158 5.155a5.13 5.13 0 0 0 1.511 3.648 5.12 5.12 0 0 0 3.647 1.515m-5.11-5.159c0-1.386.524-2.673 1.476-3.625a5.097 5.097 0 0 1 3.635-1.485c1.364 0 2.648.533 3.616 1.498.965.965 1.498 2.249 1.498 3.616s-.53 2.648-1.498 3.616a5.08 5.08 0 0 1-3.616 1.498 5.074 5.074 0 0 1-3.616-1.498 5.094 5.094 0 0 1-1.495-3.62" fill="#a89556"/><path d="M289.115 195.163a5.643 5.643 0 0 1-7.369-3.05 5.642 5.642 0 0 1 10.422-4.319 5.643 5.643 0 0 1-3.053 7.369m.597 1.447l.399-1.195 1.236.249.067-1.246 1.246-.08-.24-1.233 1.188-.399-.559-1.121 1.044-.693-.818-.942.827-.945-1.054-.687.559-1.124-1.185-.409.236-1.211-1.239-.102-.08-1.242-1.22.246-.399-1.188-1.131.562-.693-1.044-.942.818-.942-.818-.693 1.038-1.121-.546-.406 1.179-1.223-.233-.08 1.239-1.255.083.24 1.233-1.179.396.559 1.121-1.044.69.821.952-.811.929 1.041.703-.562 1.121 1.182.402-.243 1.223 1.242.089.089 1.242 1.22-.246.402 1.175 1.124-.549.69 1.035.955-.811.933.821.693-1.038 1.126.556z" fill="#a89556"/><path d="M285.043 191.908c0 .057.026.169.188.169.089 0 .188-.026.188-.137 0-.083-.067-.105-.163-.131l-.096-.026c-.144-.038-.284-.077-.284-.31 0-.118.054-.326.345-.326.275 0 .348.211.351.342h-.179c-.006-.048-.019-.16-.185-.16-.07 0-.157.032-.157.128 0 .083.057.099.096.112l.22.064c.121.035.236.093.236.284 0 .316-.275.345-.355.345-.329 0-.383-.224-.383-.355l.178.001zM286.339 192.004c-.048.188-.179.249-.294.249-.188 0-.332-.105-.332-.428 0-.093.029-.396.319-.396.131 0 .313.073.313.431v.035h-.457c.006.057.016.192.156.192a.112.112 0 0 0 .112-.086l.183.003zm-.172-.24c-.01-.128-.08-.166-.134-.166-.083 0-.125.061-.137.166h.271zM287.042 192.081c0 .093.016.112.038.121v.032h-.188a.345.345 0 0 1-.016-.093c-.042.048-.096.112-.214.112-.099 0-.201-.067-.201-.227 0-.153.083-.23.195-.249l.156-.029c.029-.003.061-.019.061-.061 0-.086-.07-.093-.115-.093-.086 0-.102.064-.109.109h-.169c.019-.24.16-.275.297-.275.093 0 .265.035.265.227v.426zm-.172-.23c-.019.016-.045.029-.118.042-.064.013-.118.032-.118.118 0 .073.048.093.08.093a.153.153 0 0 0 .156-.153v-.1zM287.243 191.177h.176v1.057h-.176zM288.262 192.253c-.179 0-.339-.131-.339-.412 0-.281.16-.412.339-.412s.339.128.339.412-.16.412-.339.412m0-.652c-.134 0-.16.137-.16.24 0 .102.026.24.16.24s.16-.137.16-.24c0-.102-.026-.24-.16-.24M288.968 192.234h-.176v-.636h-.096v-.147h.096v-.064c0-.163.073-.224.195-.224a.58.58 0 0 1 .089.003v.166h-.048c-.061 0-.061.022-.061.086v.032h.115v.147h-.115v.637h.001zM285.541 193.818l-.105-.118a.433.433 0 0 1-.23.07c-.118 0-.431-.061-.431-.556 0-.495.313-.556.431-.556s.431.061.431.556a.674.674 0 0 1-.093.377l.099.109-.102.118zm-.23-.482l.096.105a.524.524 0 0 0 .042-.227c0-.294-.144-.37-.243-.37-.102 0-.243.073-.243.37s.144.371.243.371a.18.18 0 0 0 .102-.029l-.089-.099.092-.121zM286.413 193.741h-.166v-.109h-.003a.212.212 0 0 1-.201.131c-.131 0-.227-.089-.227-.287v-.514h.176v.485c0 .121.061.144.115.144.057 0 .134-.038.134-.179v-.45h.176l-.004.779zM287.154 193.588c0 .093.016.112.038.121v.032h-.188c-.01-.038-.013-.048-.016-.093a.254.254 0 0 1-.214.112c-.099 0-.201-.067-.201-.227 0-.153.083-.23.195-.249l.156-.029c.029-.003.061-.019.061-.061 0-.086-.07-.093-.115-.093-.086 0-.102.064-.109.109h-.169c.019-.24.16-.275.297-.275.093 0 .265.035.265.227v.426zm-.173-.227c-.019.016-.048.029-.118.042-.064.013-.118.032-.118.118 0 .073.048.096.08.096a.155.155 0 0 0 .156-.153v-.103zM287.355 192.684h.176v1.057h-.176zM287.917 193.741h-.176v-.783h.176v.783zm0-.875h-.176v-.192h.176v.192zM288.323 192.959h.109v.147h-.109v.425c0 .045 0 .064.073.064.013 0 .022-.003.035-.003v.157c-.029 0-.054.003-.083.003h-.022c-.15 0-.179-.067-.179-.169v-.476h-.089v-.147h.089v-.211h.176v.21zM288.946 193.729c-.083.291-.105.329-.259.329l-.08-.003v-.166c.006 0 .019.003.035.003.064 0 .099-.01.115-.118l-.246-.814h.195l.144.575h.003l.137-.575h.185l-.229.769zM284.892 186.382c.131 0 .476.067.476.613s-.345.613-.476.613-.476-.067-.476-.613c0-.549.345-.613.476-.613m0 1.019c.112 0 .268-.08.268-.409 0-.326-.157-.409-.268-.409s-.268.08-.268.409c0 .329.157.409.268.409M285.515 186.715h.185v.15h.003c.038-.086.083-.172.201-.172.013 0 .026 0 .038.003v.23c-.016-.003-.038-.003-.054-.003-.15 0-.179.112-.179.208v.45h-.192v-.866h-.002zM286.253 187.577h-.192v-.862h.192v.862zm0-.965h-.192v-.211h.192v.211zM287.109 186.715v.818c0 .15-.01.396-.371.396-.15 0-.313-.077-.319-.259h.211c.01.045.022.086.134.086.102 0 .153-.057.153-.198v-.102l-.003-.003c-.032.067-.08.131-.195.131-.176 0-.316-.144-.316-.447 0-.297.144-.444.303-.444.137 0 .192.093.214.15h.003v-.128h.186zm-.354.677c.131 0 .163-.131.163-.249 0-.141-.057-.252-.166-.252-.07 0-.15.061-.15.262-.001.108.038.239.153.239M287.48 187.577h-.192v-.862h.192v.862zm0-.965h-.192v-.211h.192v.211zM288.326 187.577h-.192v-.524c0-.064-.003-.169-.125-.169-.086 0-.15.067-.15.198v.495h-.192v-.862h.185v.128h.003c.026-.051.08-.15.22-.15.144 0 .256.099.256.287l-.005.597zM289.099 187.408c0 .102.019.125.042.134v.035h-.208c-.013-.042-.013-.054-.019-.102-.045.054-.105.125-.236.125-.112 0-.224-.073-.224-.252 0-.169.089-.256.214-.275l.172-.032c.029-.006.067-.019.067-.067 0-.096-.077-.099-.128-.099-.096 0-.112.07-.118.121h-.185c.022-.265.179-.303.329-.303.102 0 .291.038.291.249l.003.466zm-.189-.253c-.019.019-.051.032-.131.048-.073.013-.131.035-.131.131 0 .08.051.105.089.105a.169.169 0 0 0 .172-.169v-.115h.001zM289.278 186.411h.192v1.166h-.192zM292.037 195.46h-.134v-.537h-.198v-.115h.531v.115h-.199zM292.938 195.46h-.128v-.543l-.121.543h-.134l-.118-.543h-.003v.543h-.125v-.652h.198l.118.514.118-.514h.195zM290.415 188.273H283.5a1.105 1.105 0 0 0 0 2.21h6.915a1.106 1.106 0 0 0 0-2.21m0 1.955H283.5a.85.85 0 1 1 0-1.7h6.915a.85.85 0 1 1 0 1.7m-5.855-1.195h.319v-.188h-.319v.188zm-.508.543l-.454-.731h-.329v1.064h.319v-.731l.454.731h.329v-1.064h-.319v.731zm.508.333h.319v-.719h-.319v.719zm2.15-.783h-.179v-.128h-.316v.128h-.179v.077h.179v.706h.316v-.706h.179v-.077zm.434.045c-.262 0-.479.15-.479.38 0 .227.185.377.479.377.243 0 .371-.096.457-.252h-.332v.061c0 .073-.061.134-.125.134-.067 0-.125-.061-.125-.134v-.179h.604v-.01c-.003-.221-.195-.377-.479-.377m-.124.271v-.077c0-.073.061-.134.125-.134.067 0 .125.061.125.134v.077h-.25zm3.286-.271c-.262 0-.479.15-.479.38 0 .249.214.377.479.377s.479-.128.479-.377c-.003-.253-.217-.38-.479-.38m.125.571v-.006c0 .073-.057.134-.125.134s-.125-.061-.125-.134l-.003-.188.003-.182c0-.073.057-.131.125-.131s.125.061.125.134v-.006l.003.192c0 .053 0 .13-.003.187m-1.048-.491a.361.361 0 0 0-.575.304.361.361 0 0 0 .575.304v.051h.319v-1.06h-.319v.401zm.007.3l-.003.166c0 .054-.054.102-.115.102-.061 0-.115-.045-.115-.102l-.003-.166.003-.166c0-.054.054-.102.115-.102.061 0 .115.051.115.102-.001.022.003.118.003.166m-3.399-.195a.354.354 0 0 0-.313-.195.427.427 0 0 0-.287.109v-.077h-.319v.719h.319v-.476a.15.15 0 0 1 .153-.147.15.15 0 0 1 .153.147v.473h.319v-.409c-.002-.01.004-.083-.025-.144m2.677 0a.354.354 0 0 0-.313-.195.427.427 0 0 0-.287.109v-.077h-.319v.719h.319v-.476a.15.15 0 0 1 .153-.147.15.15 0 0 1 .153.147v.473h.319v-.409c0-.01.007-.083-.025-.144" fill="#a89556"/><g><path d="M223.803 175.436a.567.567 0 0 1-.567-.567v-4.522a.568.568 0 0 1 .645-.562c.042.001 2.071-.005 2.071-.005 1.299 0 1.778.985 1.783 1.647v.88c0 .963-.902 1.469-1.741 1.53h-.415v1.031a.567.567 0 0 1-.567.567h-1.209z" fill="#fff"/><path d="M229.052 175.437c-1.038 0-2.25-.602-2.25-2.296 0-1.681 1.205-2.277 2.237-2.277.928.015 2.349.511 2.349 2.277 0 1.668-1.356 2.287-2.267 2.295l-.069.001zm.116-2.097z" fill="#fff"/><path d="M233.272 175.438a.566.566 0 0 1-.423-.189.567.567 0 0 1-.423.189h-1.094a.567.567 0 0 1-.567-.567v-4.79c0-.313.254-.567.567-.567h1.094c.313 0 .567.254.567.567v.856a.562.562 0 0 1 .279-.074h1.168a.568.568 0 0 1 .449.913l-.931 1.208.966 1.591a.568.568 0 0 1-.484.861h-1.168z" fill="#fff"/><path d="M236.294 175.436c-1.455 0-2.239-1.183-2.239-2.295 0-1.447.784-2.277 2.152-2.277.854 0 1.522.366 1.88 1.031.257.479.265.95.265 1.001v.631c0 .214-.118.4-.293.497a.537.537 0 0 1 .004.07v.578c0 .09-.021.178-.062.258-.181.354-.692.506-1.707.506z" fill="#fff"/><path d="M235.523 171.633a.568.568 0 0 1-.444-.214l-.413-.519a.568.568 0 0 1 .217-.873l1.447-.824a.564.564 0 0 1 .7.113l.484.535a.569.569 0 0 1-.155.882l-1.572.834a.564.564 0 0 1-.264.066zM242.257 175.438a.566.566 0 0 1-.507-.313.567.567 0 0 1-.507.313h-.914a.568.568 0 0 1-.517-.333.566.566 0 0 1-.517.333h-.967a.567.567 0 0 1-.567-.567v-3.44c0-.313.254-.567.567-.567h.558c.251 0 .437.067.571.153.218-.092.502-.153.872-.153.392 0 .713.07.958.208.228-.122.541-.208.97-.208.591 0 .941.242 1.13.445.416.447.387 1.039.382 1.105l.001 2.457a.567.567 0 0 1-.567.567h-.946z" fill="#fff"/><path d="M245.491 175.439c-.209 0-.749-.032-1.25-.332-.456-.272-1-.834-1-1.965 0-1.681 1.205-2.277 2.236-2.277l.119.001c.813.018 2.23.519 2.23 2.276 0 1.668-1.356 2.286-2.268 2.295l-.067.002zm.115-2.098z" fill="#fff"/><path d="M249.986 175.438a.567.567 0 0 1-.567-.567v-1.977l-.008 1.977a.567.567 0 0 1-.567.567h-1.054a.567.567 0 0 1-.567-.567v-3.44c0-.313.254-.567.567-.567h.759a.85.85 0 0 1 .523.173c.239-.105.54-.173.914-.173.567 0 .916.231 1.108.425.431.434.439 1.023.439 1.089v2.493a.567.567 0 0 1-.567.567h-.98z" fill="#fff"/><path d="M223.803 170.346v4.523h1.209v-1.597h.94s1.215-.09 1.215-.965v-.876s-.008-1.084-1.215-1.084c-1.195-.001-2.143.014-2.149-.001zm1.209.876h.645c.331.087.295.387.295.387v.381c0 .317-.295.381-.295.381h-.645v-1.149zM229.041 171.431c-.334-.001-1.672.094-1.672 1.71 0 1.847 1.746 1.728 1.746 1.728s1.706-.016 1.706-1.728-1.686-1.709-1.706-1.71h-.074zm.074.876s.625-.089.625.834c0 .855-.625.763-.625.763s-.651.007-.651-.763c0-.927.651-.824.651-.834zM231.332 170.082h1.094v2.616l.846-1.266h1.168l-1.168 1.516 1.168 1.923h-1.168l-.846-1.601v1.601h-1.094v-4.789zM236.207 171.431c-1.29 0-1.585.874-1.585 1.71s.57 1.728 1.672 1.728 1.202-.197 1.202-.197v-.578c-.008-.002-.902 0-1.377 0s-.383-.566-.383-.566h2.048v-.632c.001 0 .001-1.465-1.577-1.465zm.074.75c.545 0 .551.191.551.191v.524h-1.095v-.524s-.001-.191.544-.191zM235.109 170.548l.413.518 1.572-.834-.484-.535-1.482.843-.019.008zM238.329 174.871h.967v-1.977s.04-.52.537-.52.497.52.497.52v1.977h.913v-1.977s.02-.52.517-.52.497.52.497.52v1.977h.947v-2.497s.067-.943-.947-.943-1.014.561-1.014.561.121-.561-.913-.561-1.034.561-1.034.561.148-.561-.41-.561h-.557v3.44zM245.481 171.433c-.334-.001-1.672.094-1.672 1.71 0 1.847 1.746 1.728 1.746 1.728s1.706-.016 1.706-1.728-1.686-1.709-1.706-1.71h-.074zm.073.875s.625-.089.625.834c0 .855-.625.763-.625.763s-.651.007-.651-.763c0-.926.651-.823.651-.834zM247.791 174.871h1.054v-1.977s-.027-.52.557-.52c.584 0 .584.52.584.52v1.977h.98v-2.497s.007-.943-.98-.943-1.142.561-1.142.561.094-.561-.295-.561h-.759v3.44z"/></g><g><path d="M255.431 175.438a.884.884 0 0 1-.38-.086.733.733 0 0 1-.384-.448.765.765 0 0 1-.749.535h-.655c-.391-.024-.767-.3-.767-.766v-2.875a.967.967 0 0 1 .941-.932l4.564-.001c.502 0 1.004.32 1.004.933v2.875a.762.762 0 0 1-.209.533.773.773 0 0 1-.567.232h-.655c-.341-.007-.689-.218-.769-.599-.1.342-.364.599-.75.599h-.617l-.007-.567v.567z" fill="#fff"/><path d="M253.476 171.431h4.525s.437-.015.437.366v2.875s.009.199-.209.199h-.655s-.218-.005-.218-.199v-1.778s-.019-.227-.209-.227h-.655s-.218-.022-.218.227v1.778s-.029.199-.218.199h-.617s-.237.012-.237-.199v-1.778s.066-.227-.228-.227h-.617s-.218-.022-.218.227v1.778s0 .199-.218.199h-.655s-.199-.013-.199-.199v-2.875s.006-.338.409-.366z"/><path d="M259.71 175.438c-.388-.009-.785-.281-.785-.766v-1.345c.019-.379.301-.751.791-.751l.36.004.036-.003c.482 0 .811.323.811.75v1.345c-.042.412-.318.766-.771.766h-.442z" fill="#fff"/><path d="M260.147 173.143s.21-.014.21.184v1.345s-.022.199-.203.199h-.443s-.218-.005-.218-.199v-1.345s.01-.184.224-.184.416.007.43 0z"/><path d="M259.783 173.129c-.022.002-.044.004-.067.004a.879.879 0 0 1-.35-.075.74.74 0 0 1-.44-.684v-.577c0-.071.015-.324.221-.531a.782.782 0 0 1 .573-.227h.43c.07 0 .21.011.357.083a.733.733 0 0 1 .417.675v.577a.717.717 0 0 1-.186.511.77.77 0 0 1-.584.248l-.371-.004z" fill="#fff"/><path d="M259.717 172.566s-.224.003-.224-.192v-.576s0-.191.228-.191h.43s.207-.004.207.191v.576s.022.192-.203.192c-.226 0-.431-.003-.438 0z"/><path d="M263.8 175.438a.747.747 0 0 1-.756-.561c-.094.346-.422.544-.733.56h-.66a.769.769 0 0 1-.784-.842c.009-.217.001-1.431-.002-2.023l-.003-.581c0-.614.515-.949 1-.952h2.146a.96.96 0 0 1 .997.942v2.69c0 .47-.38.745-.737.765l-.032.001h-.436z" fill="#fff"/><path d="M261.429 174.673s.007.199.222.199h.631s.222-.011.222-.199v-1.778s.007-.227.215-.227h.645s.222-.022.222.227v1.778s-.013.199.215.199h.436s.201-.011.201-.199v-2.68s-.007-.385-.43-.385h-2.142s-.436.003-.436.385.02 2.701-.001 2.68z"/><path d="M265.949 175.438c-.387-.009-.784-.281-.784-.766v-1.345c.019-.379.301-.751.791-.751l.36.004.036-.003c.482 0 .811.323.811.75v1.345c-.042.412-.318.766-.771.766h-.443z" fill="#fff"/><path d="M266.385 173.143s.21-.014.21.184v1.345s-.022.199-.203.199h-.443s-.218-.005-.218-.199v-1.345s.01-.184.224-.184c.216 0 .417.007.43 0z"/><path d="M266.022 173.129c-.022.002-.044.004-.067.004a.879.879 0 0 1-.35-.075.74.74 0 0 1-.44-.684v-.577c0-.071.015-.324.221-.531a.782.782 0 0 1 .573-.227h.43c.07 0 .21.011.357.083a.733.733 0 0 1 .417.675v.577a.717.717 0 0 1-.186.511.77.77 0 0 1-.584.248l-.371-.004z" fill="#fff"/><path d="M265.956 172.566s-.224.003-.224-.192v-.576s0-.191.228-.191h.43s.207-.004.207.191v.576s.022.192-.203.192c-.227 0-.432-.003-.438 0z"/><path d="M267.75 175.439a.567.567 0 0 1-.567-.567v-.805a.567.567 0 0 1-.494-.563v-.307c0-.313.254-.567.567-.567h1.328c.313 0 .567.254.567.567v.307a.568.568 0 0 1-.494.563v.805a.567.567 0 0 1-.567.567h-.34z" fill="#fff"/><path d="M269.919 175.439a.568.568 0 0 1-.394-.159.563.563 0 0 1-.394.159h-.34a.567.567 0 0 1-.567-.567v-1.674c0-.313.254-.567.567-.567h.295c.171 0 .332.077.439.208a.566.566 0 0 1 .438-.208h.295c.313 0 .567.254.567.567v1.674a.567.567 0 0 1-.567.567h-.339z" fill="#fff"/><path d="M268.584 173.198v.307h-.494v1.368h-.34v-1.368h-.494v-.307h1.328zM269.525 173.819l.438-.621h.295v1.674h-.34v-1.045l-.369.525h-.049l-.369-.525v1.045h-.34v-1.674h.295l.439.621z"/></g><g><path d="M218.501 180.992c2.148-1.025 4.294-.606 6.442-.244 1.453-.779 3.629-.299 4.065-.139a7.081 7.081 0 0 1-.19-1.79c.987.036 1.895.136 2.844.367 1.29-.653 2.645-1.196 3.936-1.154-.037.154-.513.917-1.561 1.704.699.234 2.094.592 3.516 1.465a85.996 85.996 0 0 0-2.815 4.018c-1.215-.602-2.446-1.161-3.636-1.789.325.789.638 1.507.927 2.334a1.588 1.588 0 0 0-.509.471c.648.296 1.209.621 1.745.955.131.085.272.08.418.035-.028.123.063.167.209.174-.071.062-.106.132-.104.209.031.065.116.124.22.132-.072.062-.136.111-.15.217.048.079.159.145.279.209-.186.049-.376.096-.487.174 0 .116-.063.218-.063.334-.689.039-1.269.12-1.959.252-.019.152-.084.181-.103.333l-.651 1.029c.164 1.177 1.172 2.843.094 3.797.612.487.695.869.738 1.149-.427.267-2.369-.761-1.858-.787a23.237 23.237 0 0 0-4.973-.014c-1.571.982-1.885.834-2.365.805-.272-.133-.106-.455.45-.944-.771-.59-.915-2.109.129-5.86-1.045-1.388-1.723-2.941-1.771-4.706-.104-.104-.168-.263-.273-.368l.209-.035a.731.731 0 0 0-.035-.348c.093-.001.202-.049.313-.104a.93.93 0 0 0-.035-.313.573.573 0 0 0 .244.035c.059-.086.123-.184.11-.307.112.116.211.225.377.341l.279-.104c.171.458.648.792.994 1.135.029-.494.207-1.016.364-1.483-1.996.081-3.889-.07-5.364-1.185z" fill-rule="evenodd" clip-rule="evenodd" stroke="#1a1a18" stroke-width=".007" stroke-miterlimit="22.926"/><path d="M223.462 183.956l-.055-.292c-.007-.037-.586-.577-.788-.827-.018-.078-.113-.181-.131-.259-.078.041-.181.042-.259.102-.12-.132-.22-.16-.34-.292l-.072.215a.511.511 0 0 1-.277-.006.422.422 0 0 1-.01.294c-.054.007-.23.156-.284.112.013.108.099.209.078.317-.084.042-.161.013-.245.055l.256.328c.047 1.937.802 3.302 1.749 4.527l.162-.377-.126.682-.628 3.177c-.109 1.039-.09 2.012.664 2.62-.249.177-.461.372-.6.604-.174.29-.04.184.17.076.197-.102.395-.223.592-.357-.135.099-.273.196-.386.306-.269.261-.129.222.147.162.516-.113 1.056-.373 1.585-.666-.244-.01-.381-.019-.503-.053 1.993-.239 3.793-.236 5.977 0l-.287.09c.55.343.937.682 1.765.721-.115-.473-.346-.754-.707-1.08.799-1.107.193-2.513-.125-3.895a8.25 8.25 0 0 1-.252-2.136c.028.123.042.248.07.37.118.522.224.342.758.343.626.002 1.396-.182 2.191-.216.011-.073.018-.1.029-.173l.028-.127c.109-.058.305-.093.414-.152-.063-.055-.136-.139-.198-.194a.47.47 0 0 1 .124-.2.413.413 0 0 1-.188-.126.205.205 0 0 1 .082-.21c-.143-.052-.216-.104-.199-.168a.313.313 0 0 1-.299.003 15.947 15.947 0 0 0-2.499-1.306c-.235.458-.655.828-1.131 1.137.718-.492 1.338-1.181 1.119-2.615.088-.837.187-2.022-.338-2.672 1.773-.445 2.006-1.031 2.774-1.568.24-.612.445-1.223.569-1.835-1.66.32-3.123 1.388-4.478 2.389.095.047.23.093.264.176-1.103-.667-3.277-.875-4.685-.169-2.722-.478-3.883-.466-4.561-.312.209.692.573 1.288 1.321 1.62.694.048 1.655.102 2.209.022.023-.095.181-.322.24-.43-.825 1.84-.727 2.812-.622 3.777.162.573.622 1.254 1.2 1.772-.563-.381-.951-1.018-1.215-1.635-.601-.696-.299-1.241-.049-1.649z" fill-rule="evenodd" clip-rule="evenodd" fill="#fce200"/><defs><path id="c" d="M223.462 183.956l-.055-.292c-.007-.037-.586-.577-.788-.827-.018-.078-.113-.181-.131-.259-.078.041-.181.042-.259.102-.12-.132-.22-.16-.34-.292l-.072.215a.511.511 0 0 1-.277-.006.422.422 0 0 1-.01.294c-.054.007-.23.156-.284.112.013.108.099.209.078.317-.084.042-.161.013-.245.055l.256.328c.047 1.937.802 3.302 1.749 4.527l.162-.377-.126.682-.628 3.177c-.109 1.039-.09 2.012.664 2.62-.249.177-.461.372-.6.604-.174.29-.04.184.17.076.197-.102.395-.223.592-.357-.135.099-.273.196-.386.306-.269.261-.129.222.147.162.516-.113 1.056-.373 1.585-.666-.244-.01-.381-.019-.503-.053 1.993-.239 3.793-.236 5.977 0l-.287.09c.55.343.937.682 1.765.721-.115-.473-.346-.754-.707-1.08.799-1.107.193-2.513-.125-3.895a8.25 8.25 0 0 1-.252-2.136c.028.123.042.248.07.37.118.522.224.342.758.343.626.002 1.396-.182 2.191-.216.011-.073.018-.1.029-.173l.028-.127c.109-.058.305-.093.414-.152-.063-.055-.136-.139-.198-.194a.47.47 0 0 1 .124-.2.413.413 0 0 1-.188-.126.205.205 0 0 1 .082-.21c-.143-.052-.216-.104-.199-.168a.313.313 0 0 1-.299.003 15.947 15.947 0 0 0-2.499-1.306c-.235.458-.655.828-1.131 1.137.718-.492 1.338-1.181 1.119-2.615.088-.837.187-2.022-.338-2.672 1.773-.445 2.006-1.031 2.774-1.568.24-.612.445-1.223.569-1.835-1.66.32-3.123 1.388-4.478 2.389.095.047.23.093.264.176-1.103-.667-3.277-.875-4.685-.169-2.722-.478-3.883-.466-4.561-.312.209.692.573 1.288 1.321 1.62.694.048 1.655.102 2.209.022.023-.095.181-.322.24-.43-.825 1.84-.727 2.812-.622 3.777.162.573.622 1.254 1.2 1.772-.563-.381-.951-1.018-1.215-1.635-.601-.696-.299-1.241-.049-1.649z"/></defs><clipPath id="d"><use xlink:href="#c" overflow="visible"/></clipPath><g clip-path="url(#d)" fill-rule="evenodd" clip-rule="evenodd" fill="#f09614"><path d="M221.822 186.155c.409.722 1.015 1.243 1.596 1.622l-.322.811c-.39-.815-.883-1.617-1.274-2.433zM232.125 188.856c-.712-.163-1.152-.394-1.563-.691-.014.169.057.556.127.724.416.028.638-.001 1.436-.033zM221.953 192.641c1.645 1.971 2.801.697 4.713.697 1.141 0 2.994.652 4.017.311 1.66-.548.089.474-.504.771-1.912.949-3.127.711-5.247.504-.815-.074-1.556-.282-2.031-.756-.237-.237-.608-.43-.756-.726l-.192-.801z"/></g><g fill-rule="evenodd" clip-rule="evenodd"><path d="M225.225 182.148c.319 0 .54.265.494.592-.046.327-.342.592-.661.592s-.54-.265-.494-.592c.046-.327.342-.592.661-.592z" fill="#1a1a18"/><path d="M225.383 182.289c.164 0 .277.136.253.304-.024.168-.175.304-.339.304s-.277-.136-.253-.304a.358.358 0 0 1 .339-.304z" fill="#fff"/></g><g fill-rule="evenodd" clip-rule="evenodd"><path d="M229.521 182.489c-.307-.085-.591.111-.634.439-.043.327.171.662.478.747.307.085.591-.111.634-.439.044-.327-.171-.662-.478-.747z" fill="#1a1a18"/><path d="M229.331 182.582c-.158-.044-.303.057-.325.225a.356.356 0 0 0 .246.383c.158.044.303-.057.325-.225a.36.36 0 0 0-.246-.383z" fill="#fff"/></g><path d="M227.245 183.48c.09 0 .164-.029.164-.064s-.074-.064-.164-.064c-.09 0-.164.029-.164.064 0 .036.074.064.164.064z" fill-rule="evenodd" clip-rule="evenodd" fill="#1a1a18"/><g fill-rule="evenodd" clip-rule="evenodd"><path d="M223.99 185.661c.432 0 .785-.423.785-.941s-.353-.941-.785-.941-.785.423-.785.941.352.941.785.941z" fill="#1a1a18"/><path d="M223.99 185.618c.413 0 .749-.403.749-.898 0-.494-.337-.898-.749-.898s-.749.403-.749.898.336.898.749.898z" fill="#e2000f"/></g><g fill-rule="evenodd" clip-rule="evenodd"><path d="M230.285 184.421c.437 0 .768.424.739.948-.029.523-.406.948-.843.948-.437 0-.768-.424-.739-.948.029-.524.406-.948.843-.948z" fill="#1a1a18"/><path d="M230.283 184.464c.417 0 .733.405.705.905-.027.5-.388.905-.804.905-.417 0-.733-.405-.705-.905.026-.5.387-.905.804-.905z" fill="#e2000f"/></g><path d="M225.63 184.141c.446.404.973.269 1.515-.174.514.453 1.081.705 1.759.436-.155.199-.407.21-.608.27a2.742 2.742 0 0 1-1.298 1.927c-.466-.489-.869-1.091-1.01-2.162a.57.57 0 0 1-.358-.297z" fill-rule="evenodd" clip-rule="evenodd" fill="#1a1a18" stroke="#1a1a18" stroke-width=".007" stroke-miterlimit="22.926"/><path d="M226.141 184.975c.189.681.492 1.262.871 1.54.563-.303.88-.857 1.112-1.492-.619-.544-1.31-.613-1.983-.048z" fill-rule="evenodd" clip-rule="evenodd" fill="#f5b0b4"/><path d="M226.06 184.44l.081.535c.669-.561 1.363-.474 1.986.043l.091-.415a2.571 2.571 0 0 1-1.082-.506c-.337.229-.693.361-1.076.343zm.082.539l.01.037h-.005l-.005-.037z" fill-rule="evenodd" clip-rule="evenodd" fill="#e2000f"/><path d="M228.863 178.881c.965-.029 1.884.16 2.744.343-.43.236-.885.514-1.199.75-.47-.433-.96-.843-1.545-1.093z" fill-rule="evenodd" clip-rule="evenodd" fill="#fce200"/><path d="M228.868 178.869c.561.243 1.084.626 1.578 1.086-.397.289-.827.533-1.12.797-.084-.031-.161-.065-.278-.115-.126-.593-.208-1.175-.18-1.768zM230.586 181.841c.277.317.343.893.39 1.442l3.741 1.833.192-.314-2.774-3.52c-.48.206-1.026.418-1.549.559z" fill-rule="evenodd" clip-rule="evenodd" fill="#f09614"/><path d="M233.956 179.824c1.202.304 2.36.803 3.499 1.392a54.049 54.049 0 0 0-2.627 3.729c-.919-1.21-1.826-2.415-2.745-3.625a16.63 16.63 0 0 0 1.873-1.496z" fill-rule="evenodd" clip-rule="evenodd" fill="#fce200"/><path d="M230.954 183.427l.963 2.274-.541.441-.481-.23c.238-.382.222-.797.032-1.233-.034-.354-.038-.896.027-1.252z" fill-rule="evenodd" clip-rule="evenodd" fill="#f09614"/><path d="M231.458 188.906l.065.123a7.454 7.454 0 0 1-.659 1.131l-.231-1.133c.005-.021-.047-.313-.042-.334.112.349.597.197.867.213z" fill-rule="evenodd" clip-rule="evenodd" fill="#562a24"/><path d="M226.352 187.96c.716.487.748.464 1.472.072-.533.031-.964.063-1.472-.072z" fill-rule="evenodd" clip-rule="evenodd" fill="#f09614"/></g><g><path d="M235.477 198.436a1.752 1.752 0 0 1-1.751-1.749c0-.964.786-1.748 1.751-1.748a1.73 1.73 0 0 1 1.751 1.748c0 .965-.786 1.749-1.751 1.749z" fill="#fff"/><path d="M236.81 198.388a.567.567 0 0 1-.439-.926l.583-.716h-.114a.566.566 0 0 1-.563-.63c.079-.704.594-1.177 1.282-1.177.719 0 1.282.547 1.282 1.246 0 .298-.105.591-.296.825l-.031.038c.193.09.328.287.328.514v.258a.567.567 0 0 1-.567.567h-1.465z" fill="#fff"/><path d="M239.277 198.436c-.891 0-1.357-.879-1.357-1.749 0-.869.466-1.748 1.357-1.748s1.357.879 1.357 1.748c0 .87-.466 1.749-1.357 1.749z" fill="#fff"/><path d="M241.011 198.436c-.891 0-1.357-.879-1.357-1.749 0-.869.466-1.748 1.357-1.748s1.357.879 1.357 1.748c0 .87-.466 1.749-1.357 1.749z" fill="#fff"/><path d="M242.64 198.388a.567.567 0 0 1-.567-.567v-1.468a.567.567 0 0 1-.313-.833l.156-.259a.568.568 0 0 1 .485-.274h.508c.313 0 .567.254.567.567v2.267a.567.567 0 0 1-.567.567h-.269z" fill="#fff"/><path d="M243.938 198.926a.567.567 0 0 1-.219-.044l-.166-.069a.568.568 0 0 1-.307-.734l.331-.827a.568.568 0 0 1 .735-.316l.234.093a.566.566 0 0 1 .298.78l-.4.803a.563.563 0 0 1-.506.314z" fill="#fff"/><path d="M245.48 198.388a.567.567 0 0 1-.439-.926l.583-.716h-.114a.566.566 0 0 1-.563-.63c.079-.704.594-1.177 1.282-1.177.719 0 1.282.547 1.282 1.246 0 .298-.105.591-.296.825l-.031.038c.193.09.328.287.328.514v.258a.567.567 0 0 1-.567.567h-1.465z" fill="#fff"/><path d="M247.947 198.436c-.891 0-1.357-.879-1.357-1.749 0-.869.466-1.748 1.357-1.748s1.357.879 1.357 1.748c0 .87-.466 1.749-1.357 1.749z" fill="#fff"/><path d="M249.681 198.436c-.891 0-1.357-.879-1.357-1.749 0-.869.466-1.748 1.357-1.748s1.357.879 1.357 1.748c0 .87-.466 1.749-1.357 1.749z" fill="#fff"/><path d="M250.681 198.388a.567.567 0 0 1-.439-.926l.583-.716h-.114a.566.566 0 0 1-.563-.63c.079-.704.594-1.177 1.282-1.177.719 0 1.282.547 1.282 1.246 0 .298-.105.591-.296.825l-.031.038c.193.09.328.287.328.514v.258a.567.567 0 0 1-.567.567h-1.465zM253.363 198.388a.567.567 0 0 1-.567-.567v-2.267c0-.313.254-.567.567-.567h.325c1.289 0 1.481.766 1.481 1.222 0 .605-.371 1.046-.956 1.184v.428a.567.567 0 0 1-.567.567h-.283z" fill="#fff"/><ellipse cx="255.443" cy="197.121" rx="1.318" ry="1.315" fill="#fff"/><path d="M257.322 198.388a.57.57 0 0 1-.297-.084.56.56 0 0 1-.298.084h-.271a.567.567 0 0 1-.567-.567v-2.609c0-.313.254-.567.567-.567h.271c.313 0 .567.254.567.567v.636h.32a.566.566 0 0 1 .394.974l-.23.224.338.421a.567.567 0 0 1-.442.922h-.352z" fill="#fff"/><path d="M258.407 198.436c-.717 0-1.258-.562-1.258-1.307 0-.453.174-.827.465-1.061a.565.565 0 0 1 .112-.297l.376-.499a.568.568 0 0 1 .718-.16l.25.132a.566.566 0 0 1 .162.873c.249.234.395.583.395 1.001 0 .063-.01.125-.029.185a.561.561 0 0 1-.04.45c-.229.422-.67.683-1.151.683z" fill="#fff"/><path d="M260.963 198.388a.567.567 0 0 1-.286-.077.567.567 0 0 1-.286.077h-.271a.567.567 0 0 1-.286-.077.567.567 0 0 1-.286.077h-.271a.567.567 0 0 1-.567-.567v-1.407c0-.313.254-.567.567-.567h.271a.57.57 0 0 1 .083.006 1.016 1.016 0 0 1 .714.039c.131-.057.274-.087.42-.087.477 0 1.033.308 1.033 1.174v.842a.567.567 0 0 1-.567.567h-.268z" fill="#fff"/><ellipse cx="262.214" cy="197.121" rx="1.318" ry="1.315" fill="#fff"/><path d="M264.138 198.388a.566.566 0 0 1-.329-.105.568.568 0 0 1-.329.105h-.271a.567.567 0 0 1-.567-.567v-1.407c0-.313.254-.567.567-.567h.271a.64.64 0 0 1 .099.008 1.1 1.1 0 0 1 .331-.05c.515 0 1.066.309 1.066 1.177v.839a.567.567 0 0 1-.567.567h-.271zM265.769 198.767a.57.57 0 0 1-.233-.05l-.213-.096a.568.568 0 0 1-.288-.742l1.25-2.892a.566.566 0 0 1 .75-.293l.216.096a.567.567 0 0 1 .29.744l-1.253 2.892a.564.564 0 0 1-.519.341z" fill="#fff"/><path d="M270.152 198.481a.567.567 0 0 1-.41-.175l-.724-.759v.274a.567.567 0 0 1-.567.567h-.283a.567.567 0 0 1-.567-.567v-2.375a.566.566 0 0 1 .977-.392l.724.759v-.259c0-.313.254-.567.567-.567h.283c.313 0 .567.254.567.567v2.36a.566.566 0 0 1-.567.567z" fill="#fff"/><path d="M270.58 198.388a.567.567 0 0 1-.567-.567v-1.407c0-.091.021-.177.059-.252a.755.755 0 0 1 .643-1.147.755.755 0 0 1 .643 1.147.563.563 0 0 1 .059.252v1.407a.567.567 0 0 1-.567.567h-.27z" fill="#fff"/><path d="M272.211 198.388a.566.566 0 0 1-.329-.105.568.568 0 0 1-.329.105h-.271a.567.567 0 0 1-.567-.567v-1.407c0-.313.254-.567.567-.567h.271a.64.64 0 0 1 .099.008 1.1 1.1 0 0 1 .331-.05c.515 0 1.066.309 1.066 1.177v.839a.567.567 0 0 1-.567.567h-.271z" fill="#fff"/><path d="M274.154 198.436c-.717 0-1.258-.562-1.258-1.307 0-.78.515-1.324 1.252-1.324.721 0 1.225.541 1.225 1.315a.6.6 0 0 1-.029.184.564.564 0 0 1-.04.451c-.228.42-.669.681-1.15.681z" fill="#fff"/><path d="M275.964 198.388a.566.566 0 0 1-.329-.105.568.568 0 0 1-.329.105h-.271a.567.567 0 0 1-.567-.567v-1.407c0-.313.254-.567.567-.567h.271a.64.64 0 0 1 .099.008 1.1 1.1 0 0 1 .331-.05c.515 0 1.066.309 1.066 1.177v.839a.567.567 0 0 1-.567.567h-.271z" fill="#fff"/><path d="M277.169 198.436c-.707 0-1.24-.571-1.24-1.328 0-.706.503-1.264 1.157-1.301v-.596c0-.313.254-.567.567-.567h.271c.313 0 .567.254.567.567v2.609a.567.567 0 0 1-.567.567h-.271a.558.558 0 0 1-.123-.013 1.074 1.074 0 0 1-.361.062z" fill="#fff"/><ellipse cx="278.897" cy="197.121" rx="1.318" ry="1.315" fill="#fff"/><path d="M273.161 198.388c-.462 0-.837-.36-.837-.804v-.536a.562.562 0 0 1-.147-.381v-.252c0-.147.056-.281.147-.381v-.157c0-.313.254-.567.567-.567h.271c.313 0 .567.254.567.567v.059c.159.1.265.277.265.479v.252a.567.567 0 0 1-.247.468c.146.104.252.253.252.416v.271a.567.567 0 0 1-.567.567h-.271z" fill="#fff"/><path d="M234.293 196.688c0-.658.523-1.181 1.184-1.181.662 0 1.185.523 1.185 1.181s-.523 1.182-1.185 1.182a1.175 1.175 0 0 1-1.184-1.182zm.192 0c0 .556.451.989.992.989a.988.988 0 1 0 0-1.978.987.987 0 0 0-.992.989zm1.41-.244c-.036-.165-.177-.255-.375-.255-.325 0-.46.247-.46.484 0 .28.165.493.466.493.198 0 .328-.093.37-.268h.184c-.036.286-.28.46-.553.46-.4 0-.658-.304-.658-.679 0-.391.247-.683.655-.683a.54.54 0 0 1 .556.448h-.185zM238.273 197.563v.258h-1.464l.992-1.217c.093-.114.201-.256.201-.406a.447.447 0 0 0-.445-.433.443.443 0 0 0-.436.415h-.282c.045-.403.307-.673.718-.673.385 0 .715.286.715.679a.751.751 0 0 1-.168.466l-.745.911h.914zM238.486 196.688c0-.466.205-1.181.791-1.181.586 0 .791.715.791 1.181 0 .463-.208 1.182-.791 1.182s-.791-.719-.791-1.182zm.271-.003c0 .313.114.932.52.932s.52-.619.52-.932-.114-.938-.52-.938-.52.625-.52.938zM240.22 196.688c0-.466.205-1.181.791-1.181.586 0 .791.715.791 1.181 0 .463-.208 1.182-.791 1.182s-.791-.719-.791-1.182zm.271-.003c0 .313.114.932.52.932s.52-.619.52-.932-.114-.938-.52-.938-.52.625-.52.938zM242.246 195.813l.156-.259h.508v2.267h-.271v-2.008h-.393zM244.338 197.556l-.4.803-.166-.069.331-.827.235.093zM246.943 197.563v.258h-1.464l.992-1.217c.093-.114.201-.256.201-.406a.447.447 0 0 0-.445-.433.443.443 0 0 0-.436.415h-.282c.045-.403.307-.673.718-.673.385 0 .715.286.715.679a.751.751 0 0 1-.168.466l-.745.911h.914zM247.156 196.688c0-.466.205-1.181.791-1.181.586 0 .791.715.791 1.181 0 .463-.208 1.182-.791 1.182s-.791-.719-.791-1.182zm.271-.003c0 .313.114.932.52.932s.52-.619.52-.932-.114-.938-.52-.938-.52.625-.52.938zM248.89 196.688c0-.466.205-1.181.791-1.181.586 0 .791.715.791 1.181 0 .463-.208 1.182-.791 1.182s-.791-.719-.791-1.182zm.271-.003c0 .313.114.932.52.932s.52-.619.52-.932-.114-.938-.52-.938-.52.625-.52.938zM252.145 197.563v.258h-1.464l.992-1.217c.093-.114.201-.256.201-.406a.447.447 0 0 0-.445-.433.443.443 0 0 0-.436.415h-.282c.045-.403.307-.673.718-.673.385 0 .715.286.715.679a.751.751 0 0 1-.168.466l-.745.911h.914zM253.646 197.821h-.283v-2.267h.325c.697 0 .914.241.914.655 0 .478-.364.662-.794.662h-.162v.95zm0-1.203h.09c.289 0 .601-.054.601-.415 0-.355-.337-.397-.616-.397h-.075v.812zM256.195 197.121c0 .424-.331.749-.751.749s-.751-.325-.751-.749.331-.749.751-.749.751.325.751.749zm-1.233 0c0 .264.213.49.481.49s.481-.226.481-.49c0-.268-.213-.49-.481-.49s-.481.222-.481.49zM256.727 196.943l.529-.529h.358l-.601.583.661.824h-.352l-.502-.64-.093.093v.547h-.271v-2.609h.271v1.731zM257.986 197.163c.003.24.166.466.424.466.208 0 .319-.105.421-.273l.229.129a.733.733 0 0 1-.652.385c-.43 0-.691-.325-.691-.74 0-.433.231-.757.686-.757.448 0 .658.331.658.749v.042h-1.075zm.803-.205c-.033-.21-.171-.352-.388-.352-.21 0-.367.15-.4.352h.788zm.015-1.211l-.493.448-.132-.081.376-.499.249.132zM259.55 196.591h.006a.459.459 0 0 1 .373-.219c.184 0 .315.093.406.25a.508.508 0 0 1 .433-.25c.37 0 .466.289.466.607v.842h-.271v-.796c0-.181-.024-.412-.262-.412-.289 0-.31.301-.31.517v.691h-.271v-.746c0-.183-.009-.463-.258-.463-.289 0-.313.298-.313.517v.691h-.271v-1.407h.271v.178zM262.966 197.121c0 .424-.331.749-.751.749s-.751-.325-.751-.749.331-.749.751-.749.751.325.751.749zm-1.233 0c0 .264.213.49.481.49s.481-.226.481-.49c0-.268-.213-.49-.481-.49s-.481.222-.481.49zM263.48 196.604h.006a.48.48 0 0 1 .424-.231c.397 0 .499.268.499.61v.839h-.271v-.806c0-.24-.033-.403-.31-.403-.349 0-.349.307-.349.562v.646h-.271v-1.407h.271v.19zM267.022 195.308l-1.253 2.892-.213-.096 1.25-2.892.216.096zM268.168 195.446l1.701 1.782v-1.674h.283v2.36l-1.701-1.783v1.689h-.283v-2.374zM270.902 195.771c0 .103-.084.184-.187.184s-.187-.081-.187-.184c0-.105.084-.189.187-.189s.187.084.187.189zm-.051 2.05h-.271v-1.407h.271v1.407zM271.553 196.604h.006a.48.48 0 0 1 .424-.231c.397 0 .499.268.499.61v.839h-.271v-.806c0-.24-.033-.403-.31-.403-.349 0-.349.307-.349.562v.646h-.271v-1.407h.271v.19zM273.733 197.163c.003.24.166.466.424.466.208 0 .319-.105.421-.273l.229.129a.733.733 0 0 1-.652.385c-.43 0-.691-.325-.691-.74 0-.433.231-.757.686-.757.448 0 .658.331.658.749v.042h-1.075zm.803-.205c-.033-.21-.171-.352-.388-.352-.21 0-.367.15-.4.352h.788zM275.306 196.604h.006a.48.48 0 0 1 .424-.231c.397 0 .499.268.499.61v.839h-.271v-.806c0-.24-.033-.403-.31-.403-.349 0-.349.307-.349.562v.646h-.271v-1.407h.271v.19zM277.653 197.602h-.006a.582.582 0 0 1-.478.268c-.433 0-.673-.358-.673-.761 0-.385.255-.736.661-.736.21 0 .379.108.49.276h.006v-1.437h.271v2.609h-.271v-.219zm.015-.485c0-.273-.166-.505-.457-.505-.279 0-.445.244-.445.505 0 .265.159.511.445.511.295.001.457-.234.457-.511zM279.648 197.121c0 .424-.331.749-.751.749s-.751-.325-.751-.749.331-.749.751-.749.751.325.751.749zm-1.232 0c0 .264.213.49.481.49s.481-.226.481-.49c0-.268-.213-.49-.481-.49s-.481.222-.481.49zM273.161 197.426c0 .131.121.124.271.124v.271h-.271c-.149 0-.271-.106-.271-.237v-.917h-.147v-.252h.147v-.538h.271v.538h.265v.252h-.265v.759z"/></g></g></svg>