<svg id="Layer_1" data-name="Layer 1" xmlns="http://www.w3.org/2000/svg" viewBox="0 0 105 105"><title>icon_empty</title><circle cx="50" cy="54.99883" r="48.81294" fill="#fff"/><path d="M1.18706,54.99882a48.81294,48.81294,0,1,0,97.62588,0Z" fill="#fff"/><path d="M50,5a50,50,0,1,0,50,49.99882A50.05574,50.05574,0,0,0,50,5Zm0,2.37412A47.67105,47.67105,0,0,1,97.5953,53.81177H2.40471A47.67184,47.67184,0,0,1,50,7.37412Zm0,95.25176A47.67207,47.67207,0,0,1,2.4047,56.18705H97.5953A47.67286,47.67286,0,0,1,50,102.62588Z" fill="#fff"/></svg>