<svg xmlns="http://www.w3.org/2000/svg" viewBox="0 0 85 85"><circle cx="42.5" cy="42.499" r="41.491" fill="#5f5f5f"/><ellipse cx="42.5" cy="42.499" rx="41.491" ry="31.779" fill="#474747"/><path d="M1.009 42.499c0 22.917 18.576 41.491 41.491 41.491s41.491-18.575 41.491-41.491H1.009z" fill="#ddd"/><path d="M42.5 74.278c22.915 0 41.491-14.229 41.491-31.779H1.009c0 17.55 18.576 31.779 41.491 31.779z" fill="#c6c6c6"/><path d="M42.5 0C19.065 0 0 19.065 0 42.499 0 65.934 19.065 85 42.5 85S85 65.934 85 42.499C85 19.065 65.935 0 42.5 0zm0 2.018c21.983 0 39.917 17.616 40.456 39.472H2.044C2.583 19.635 20.517 2.018 42.5 2.018zm0 80.964c-21.983 0-39.917-17.617-40.456-39.473h80.912C82.417 65.364 64.483 82.982 42.5 82.982z" fill="#363636"/><circle cx="42.5" cy="46.336" r="11.279" fill="#b6b6b6"/><circle cx="42.5" cy="42.5" r="11.279" fill="#fff"/><path d="M34.524 50.476c-4.405-4.405-4.404-11.546 0-15.952 4.405-4.404 11.546-4.404 15.951 0" fill="#e2e2e2"/><path d="M42.5 54.789a12.205 12.205 0 0 1-8.689-3.6c-4.79-4.79-4.79-12.586 0-17.379 4.792-4.79 12.587-4.79 17.378 0 2.321 2.322 3.6 5.408 3.6 8.69s-1.278 6.368-3.6 8.689a12.203 12.203 0 0 1-8.689 3.6zm0-22.554c-2.63 0-5.259 1-7.262 3.003-4.003 4.005-4.003 10.521 0 14.525 1.94 1.94 4.519 3.008 7.262 3.008s5.322-1.068 7.261-3.008c1.94-1.94 3.009-4.519 3.009-7.262s-1.068-5.322-3.009-7.262a10.231 10.231 0 0 0-7.261-3.004z" fill="#363636"/><path d="M46.338 46.337a5.425 5.425 0 1 1-7.674-7.672 5.425 5.425 0 0 1 7.674 7.672z" fill="#fff"/><path d="M38.665 38.665a5.425 5.425 0 0 1 7.673 7.672" fill="#e2e2e2"/><path d="M42.501 48.931a6.415 6.415 0 0 1-4.55-1.88 6.442 6.442 0 0 1 0-9.1 6.387 6.387 0 0 1 4.549-1.885c1.719 0 3.335.67 4.55 1.885a6.443 6.443 0 0 1 .001 9.099l-.001.001a6.417 6.417 0 0 1-4.549 1.88zM42.5 38.084c-1.179 0-2.288.46-3.122 1.294a4.42 4.42 0 0 0 0 6.245 4.425 4.425 0 0 0 6.246 0 4.422 4.422 0 0 0-.001-6.245 4.39 4.39 0 0 0-3.123-1.294z" fill="#363636"/></svg>