<svg xmlns="http://www.w3.org/2000/svg" viewBox="0 0 1531.33 1445.761"><path fill="#ECECEC" d="M765.719 3C344.475 3 3 325.306 3 722.88s341.485 719.88 762.719 719.88 762.611-322.306 762.611-719.88S1186.956 3 765.719 3zm0 626.483c54.606 0 98.833 41.852 98.833 93.39 0 51.539-44.231 93.282-98.833 93.282-54.606 0-98.948-41.746-98.948-93.282 0-51.538 44.342-93.39 98.948-93.39z"/><path fill="#4D4D4D" d="M765.719 1445.761c-103.348 0-203.608-19.105-297.995-56.786-91.176-36.398-173.063-88.509-243.386-154.882-70.335-66.385-125.559-143.693-164.136-229.777C20.255 915.177 0 820.488 0 722.88s20.254-192.296 60.2-281.435c38.577-86.084 93.799-163.393 164.134-229.777C294.657 145.294 376.543 93.185 467.72 56.786 562.107 19.105 662.369 0 765.719 0c103.348 0 203.603 19.105 297.979 56.786 91.165 36.398 173.04 88.508 243.35 154.882 70.319 66.384 125.53 143.692 164.099 229.778 39.935 89.137 60.184 183.825 60.184 281.435 0 97.61-20.249 192.297-60.185 281.435-38.567 86.085-93.778 163.394-164.099 229.777-70.311 66.374-152.185 118.483-243.35 154.882-94.377 37.68-194.631 56.786-297.978 56.786zM765.719 6C346.809 6 6 327.591 6 722.88c0 395.29 340.809 716.88 759.719 716.88 418.852 0 759.611-321.591 759.611-716.88S1184.57 6 765.719 6zm0 813.155c-56.214 0-101.948-43.192-101.948-96.282 0-53.15 45.734-96.391 101.948-96.391 56.151 0 101.833 43.241 101.833 96.391 0 53.09-45.682 96.282-101.833 96.282zm0-186.672c-52.906 0-95.948 40.549-95.948 90.391 0 49.781 43.042 90.282 95.948 90.282 52.843 0 95.833-40.5 95.833-90.282 0-49.842-42.99-90.391-95.833-90.391z"/><path fill="#F2F2F2" d="M765.719 3C344.511 3 3 325.295 3 722.88c.007 397.585 341.511 719.88 762.719 719.88 421.244 0 762.611-322.295 762.611-719.88S1186.964 3 765.719 3zm-.108 486.728c136.424 0 247.027 104.391 247.027 233.153S902.035 956.033 765.611 956.033 518.584 851.642 518.584 722.88s110.603-233.152 247.027-233.152z"/><path fill="#E0DCCA" d="M765.719 3C344.511 3 3 325.295 3 722.88c.007 397.585 341.511 719.88 762.719 719.88 421.244 0 762.611-322.295 762.611-719.88S1186.964 3 765.719 3zm-.108 459.498c152.363 0 275.877 116.576 275.877 260.382S917.974 983.263 765.611 983.263 489.734 866.686 489.734 722.88s123.513-260.382 275.877-260.382z"/><path fill="#CCC" d="M765.682 537.735c-100.56 0-182.143 82.927-182.143 185.145s81.582 185.145 182.143 185.145 182.11-82.927 182.11-185.145c-.001-102.218-81.55-185.145-182.11-185.145zm0 5.161c97.814 0 177.033 80.555 177.033 179.984 0 99.427-79.215 179.984-177.033 179.984-97.814 0-177.066-80.555-177.066-179.984 0-99.427 79.248-179.984 177.066-179.984z"/><path fill="#AFAFA8" d="M765.686 484.74c-129.275 0-234.279 106.732-234.279 238.141 0 131.406 105.001 238.14 234.279 238.14 129.275 0 234.237-106.732 234.237-238.141 0-131.405-104.963-238.14-234.237-238.14zm0 18.01c119.706 0 216.52 98.452 216.52 220.131s-96.813 220.131-216.519 220.131-216.562-98.452-216.562-220.131S645.98 502.75 765.686 502.75z"/><path fill="#536C53" d="M765.684 507.992c-116.715 0-211.404 96.249-211.404 214.888 0 118.639 94.689 214.888 211.404 214.888s211.365-96.25 211.365-214.888c0-118.639-94.65-214.888-211.365-214.888zm0 5.989c113.53 0 205.472 93.497 205.472 208.898s-91.942 208.898-205.472 208.898-205.51-93.496-205.51-208.897 91.981-208.899 205.51-208.899z"/><path fill="#5B5B5B" d="M765.719 1.298C343.501 1.298 1.197 324.387 1.197 722.88s342.315 721.582 764.522 721.582 764.414-323.088 764.414-721.582S1187.93 1.298 765.719 1.298zm0 3.404c420.271 0 760.808 321.523 760.808 718.178s-340.544 718.178-760.808 718.178S4.803 1119.536 4.803 722.88 345.459 4.702 765.719 4.702zm0 623.079c-55.579 0-100.751 42.631-100.751 95.092 0 52.458 45.172 94.983 100.751 94.983 55.579 0 100.636-42.529 100.636-94.983 0-52.457-45.057-95.092-100.636-95.092zm0 3.404c53.628 0 97.029 41.069 97.029 91.689 0 50.62-43.401 91.58-97.029 91.58-53.632 0-97.145-40.963-97.145-91.58s43.517-91.689 97.145-91.689z"/><path fill="#FFF" d="M765.682 544.749c-96.765 0-175.243 79.771-175.243 178.132 0 98.36 78.477 178.132 175.243 178.132 96.765 0 175.21-79.771 175.21-178.132-.001-98.361-78.445-178.132-175.21-178.132zm0 2.932c95.203 0 172.326 78.428 172.326 175.197 0 96.772-77.124 175.197-172.326 175.197-95.203 0-172.356-78.428-172.356-175.197-.001-96.772 77.156-175.197 172.356-175.197z"/><g><path fill="#9A9797" d="M676.243 613.951l5.977-39.226h3.828l-5.293 34.784h14.863l-.684 4.441h-18.691zM712.2 610.419c-1.224 1.445-2.402 2.502-3.535 3.171s-2.344 1.004-3.633 1.004c-1.914 0-3.457-.771-4.629-2.314s-1.758-3.519-1.758-5.927c0-1.588.264-2.992.791-4.215.527-1.221 1.228-2.202 2.1-2.942s1.94-1.271 3.203-1.593c.794-.214 2.302-.383 4.521-.508s3.812-.446 4.775-.964c.273-1.319.41-2.416.41-3.291 0-1.123-.3-2.007-.898-2.648-.82-.892-2.019-1.338-3.594-1.338-1.484 0-2.698.45-3.643 1.352-.944.9-1.631 2.181-2.061 3.839l-3.574-.428c.729-2.818 1.885-4.977 3.467-6.476 1.582-1.498 3.577-2.247 5.986-2.247 2.565 0 4.597.839 6.094 2.515 1.146 1.249 1.719 2.873 1.719 4.87 0 1.517-.163 3.273-.488 5.271l-1.152 7.063c-.364 2.247-.547 4.076-.547 5.485 0 .892.144 2.176.43 3.853h-3.574c-.196-.928-.332-2.105-.41-3.532zm1.308-10.864c-.495.268-1.025.474-1.592.616s-1.514.294-2.842.454c-2.058.25-3.509.567-4.355.95a3.914 3.914 0 0 0-1.914 1.833c-.43.839-.645 1.766-.645 2.782 0 1.356.342 2.471 1.025 3.345s1.657 1.312 2.92 1.312c1.172 0 2.298-.424 3.379-1.271s1.934-2.028 2.559-3.545c.625-1.516 1.114-3.675 1.465-6.476zM720.793 604.238l3.535-.294c0 1.392.156 2.578.469 3.559.313.981.889 1.784 1.729 2.408s1.819.937 2.939.937c1.563 0 2.734-.429 3.516-1.284a4.34 4.34 0 0 0 1.172-3.023c0-.839-.234-1.633-.703-2.382-.481-.749-1.657-1.672-3.525-2.77-1.868-1.097-3.063-1.868-3.584-2.314a7.15 7.15 0 0 1-1.973-2.582c-.442-.989-.664-2.127-.664-3.411 0-2.248.651-4.174 1.953-5.779s3.125-2.408 5.469-2.408c2.604 0 4.587.825 5.947 2.475 1.36 1.65 2.067 3.822 2.119 6.516l-3.457.321c-.052-1.713-.495-3.068-1.328-4.067s-2.012-1.498-3.535-1.498c-1.224 0-2.175.384-2.852 1.15s-1.016 1.597-1.016 2.488c0 .893.293 1.677.879 2.354.391.464 1.399 1.178 3.027 2.141 2.708 1.605 4.414 2.872 5.117 3.8 1.12 1.48 1.68 3.282 1.68 5.404 0 1.409-.315 2.792-.947 4.147s-1.595 2.439-2.891 3.251-2.822 1.218-4.58 1.218c-2.396 0-4.434-.812-6.113-2.436-1.679-1.624-2.473-4.264-2.383-7.921zM755.696 604.292l3.438.481c-.495 2.337-1.631 4.558-3.408 6.663-1.777 2.104-3.896 3.157-6.357 3.157-1.536 0-2.946-.486-4.229-1.459-1.282-.972-2.259-2.385-2.93-4.24s-1.006-3.969-1.006-6.342c0-3.104.524-6.113 1.572-9.03 1.048-2.916 2.405-5.084 4.072-6.502s3.47-2.127 5.41-2.127c2.474 0 4.45 1.053 5.928 3.157 1.478 2.105 2.217 4.977 2.217 8.615 0 1.392-.091 2.819-.273 4.281h-15.273a16.174 16.174 0 0 0-.078 1.499c0 2.657.446 4.687 1.338 6.087s1.982 2.101 3.271 2.101c1.211 0 2.402-.544 3.574-1.633 1.171-1.087 2.082-2.657 2.734-4.708zm-10.274-7.037h11.641c.013-.499.02-.856.02-1.07 0-2.426-.442-4.285-1.328-5.578-.886-1.294-2.024-1.94-3.418-1.94-1.511 0-2.888.714-4.131 2.141-1.244 1.426-2.171 3.575-2.784 6.447zM762.707 613.951l4.336-28.415h3.125l-.879 5.806c1.067-2.194 2.112-3.817 3.135-4.87 1.022-1.052 2.067-1.578 3.135-1.578.703 0 1.569.348 2.598 1.044l-1.445 4.494c-.612-.605-1.282-.909-2.012-.909-1.237 0-2.507.945-3.809 2.836-1.302 1.892-2.324 5.289-3.066 10.194l-1.758 11.398h-3.36zM776.477 613.951l5.977-39.226h8.633c2.07 0 3.652.206 4.746.616 1.563.553 2.897 1.538 4.004 2.956s1.94 3.188 2.5 5.312.84 4.504.84 7.144c0 3.157-.349 6.034-1.045 8.629-.696 2.596-1.608 4.879-2.734 6.85-1.126 1.972-2.305 3.515-3.535 4.629-1.23 1.115-2.686 1.94-4.365 2.476-1.276.41-2.845.615-4.707.615h-10.314zm4.512-4.442h4.531c2.044 0 3.86-.259 5.449-.776.989-.321 1.836-.793 2.539-1.418.925-.803 1.765-1.863 2.52-3.184.989-1.748 1.78-3.741 2.373-5.98.593-2.238.889-4.785.889-7.639 0-3.175-.403-5.614-1.211-7.318-.808-1.703-1.836-2.831-3.086-3.385-.925-.41-2.363-.615-4.316-.615h-5.059l-4.629 30.315zM804.778 613.951l4.336-28.415h3.535l-4.336 28.415h-3.535zm5.156-33.74l.84-5.485h3.516l-.84 5.485h-3.516zM814.133 604.238l3.535-.294c0 1.392.156 2.578.469 3.559.313.981.889 1.784 1.729 2.408s1.819.937 2.939.937c1.563 0 2.734-.429 3.516-1.284a4.34 4.34 0 0 0 1.172-3.023c0-.839-.234-1.633-.703-2.382-.481-.749-1.657-1.672-3.525-2.77-1.868-1.097-3.063-1.868-3.584-2.314a7.15 7.15 0 0 1-1.973-2.582c-.442-.989-.664-2.127-.664-3.411 0-2.248.651-4.174 1.953-5.779s3.125-2.408 5.469-2.408c2.604 0 4.587.825 5.947 2.475 1.36 1.65 2.067 3.822 2.119 6.516l-3.457.321c-.052-1.713-.495-3.068-1.328-4.067s-2.012-1.498-3.535-1.498c-1.224 0-2.175.384-2.852 1.15s-1.016 1.597-1.016 2.488c0 .893.293 1.677.879 2.354.391.464 1.399 1.178 3.027 2.141 2.708 1.605 4.414 2.872 5.117 3.8 1.12 1.48 1.68 3.282 1.68 5.404 0 1.409-.315 2.792-.947 4.147s-1.595 2.439-2.891 3.251-2.822 1.218-4.58 1.218c-2.396 0-4.434-.812-6.113-2.436-1.68-1.624-2.474-4.264-2.383-7.921zM848.118 603.596l3.535.508c-.886 3.55-2.146 6.186-3.779 7.907s-3.493 2.582-5.576 2.582c-2.253 0-4.079-.999-5.479-2.997s-2.1-4.789-2.1-8.375c0-3.104.449-6.154 1.348-9.15.898-2.997 2.185-5.275 3.857-6.837 1.673-1.561 3.584-2.341 5.732-2.341 2.227 0 3.991.86 5.293 2.582s1.953 4 1.953 6.836l-3.477.321c-.013-1.802-.394-3.211-1.143-4.228s-1.735-1.525-2.959-1.525c-1.419 0-2.649.616-3.691 1.847s-1.858 3.1-2.451 5.605-.889 4.919-.889 7.237c0 2.427.391 4.246 1.172 5.459s1.745 1.819 2.891 1.819 2.243-.598 3.291-1.793c1.049-1.193 1.873-3.013 2.472-5.457z"/></g></svg>