<svg xmlns="http://www.w3.org/2000/svg" viewBox="0 0 1000 114"><title>logo</title><g id="Layer_2" data-name="Layer 2"><rect x="515.24" y="63.24" width="17.23" height="33.43" fill="#fff"/><rect x="560.74" y="63.24" width="18.49" height="28.5" fill="#fff"/><rect x="310.35" y="63.24" width="13.85" height="7.59" fill="#fff"/><rect x="310.35" y="63.24" width="13.85" height="7.59" fill="#fff"/><rect x="357.35" y="57" width="17.78" height="38.46" fill="#fff"/><rect x="433.35" y="58.13" width="14.11" height="15.32" fill="#fff"/><rect x="354.46" y="53.34" width="26.78" height="44.33" fill="#fff"/></g><g id="svg3336"><path d="M388.11,17.94a7.57,7.57,0,0,1-3.47-.85,7.32,7.32,0,0,1-3.81-7.66,7.54,7.54,0,0,1,7.43-5.93A7.17,7.17,0,0,1,394,15.14a7.57,7.57,0,0,1-5.85,2.8Z"/><path d="M388.26,7A3.64,3.64,0,0,1,392,9.89a3.82,3.82,0,0,1-3.84,4.55,4.12,4.12,0,0,1-1.86-.46,3.85,3.85,0,0,1-2-3.8,4,4,0,0,1,4-3.18M388,11.69l.18,0c.54-.07.69-.3.69-1s-.14-.92-.58-.92a1.14,1.14,0,0,0-1,1.52.72.72,0,0,0,.72.44M388.26,0a11,11,0,0,0-10.85,8.68A10.81,10.81,0,0,0,383,20.2a11,11,0,0,0,13.65-2.86A10.67,10.67,0,0,0,388.26,0Z" fill="#fff"/><path d="M404.76,24.71c-2.25,0-5.79-.05-11.14-.17l-4.39-.09a3.5,3.5,0,0,1-3.43-3.64l.18-4.73a3.49,3.49,0,0,1,2.8-3.29l1-.2a26.65,26.65,0,0,1,4.83-.17c1.57,0,3.45,0,5.4.06l8.5.14a3.5,3.5,0,0,1,3.44,3.5v2.39c0,1.91,0,4.8-2.73,5.84C408.46,24.63,407.79,24.71,404.76,24.71Z"/><path d="M394.57,15.92c1.55,0,3.41,0,5.33.05l8.51.15v2.39c0,1.89-.1,2.43-.48,2.57a17.35,17.35,0,0,1-3.17.13c-2.27,0-5.85-.06-11.06-.17L389.3,21l.09-2.37.09-2.36,1-.2c.31-.06,1.91-.1,4.13-.1m0-7c-4.36,0-4.9.11-5.53.24l-1,.2a7,7,0,0,0-5.6,6.59l-.08,2.37-.09,2.36a7,7,0,0,0,1.9,5.07,7,7,0,0,0,4.94,2.2l4.4.09c5.37.12,8.93.17,11.21.17,3,0,4.27-.05,5.67-.59,5-1.91,5-7,5-9.11V16.12a7,7,0,0,0-6.88-7L400,9c-1.91,0-3.8-.06-5.46-.06Z" fill="#fff"/><path d="M433.35,33.48a3.5,3.5,0,0,1-3.5-3.5V25a3.49,3.49,0,0,1,3.5-3.5h1.85a8.49,8.49,0,0,0,1.36-.13c0-.51.06-1.33.06-2.45v-.28h-.52c-4.9,0-5.79-.47-6.27-.73-2.44-1.31-2.44-3.74-2.44-5.51v-.23a5.53,5.53,0,0,1,1.34-4.25c1.5-1.5,3.2-1.5,6.92-1.5h1.78a3.5,3.5,0,0,1,3.16-2h4.87a3.51,3.51,0,0,1,3.27,2.24l6.15.23a3.49,3.49,0,0,1,3.37,3.49V15a3.5,3.5,0,0,1-3.5,3.5h-5.4c0,.32,0,.67,0,1.05-.16,5.15-.73,7.49-3.59,10.35-2.65,2.65-5,3.22-9,3.43l-3.15.18Z"/><path d="M445.45,7.88,445.82,9l.36,1.08,4.28.15,4.28.15V15h-4.2a26.65,26.65,0,0,0-4.41.2,26.27,26.27,0,0,0-.32,4.25c-.15,4.68-.57,6-2.57,8-1.76,1.75-3.05,2.22-6.74,2.42l-3.15.17V27.47h0V25h1.86a9.56,9.56,0,0,0,2.88-.43c1.79-.75,2-1.41,2-5.65V15.11h-4a22,22,0,0,1-4.62-.31c-.5-.27-.59-.66-.59-2.43,0-2.56-.18-2.48,5.24-2.48H440l.3-1,.29-1h4.87m0-7h-4.87a7,7,0,0,0-4.9,2h0c-4,0-6.88,0-9.39,2.52a8.86,8.86,0,0,0-2.37,6.74v.22c0,1.82,0,6,3.88,8.37A7,7,0,0,0,426.35,25v5a7,7,0,0,0,7,7h.38l3.15-.17c4.7-.25,7.89-1,11.31-4.46,3.16-3.16,4.15-6.06,4.49-10.38h2.06a7,7,0,0,0,7-7V10.34a7,7,0,0,0-6.75-7l-4.28-.16h-.06a7,7,0,0,0-5.2-2.31Z" fill="#fff"/><path d="M300.43,34A4,4,0,0,1,297,32.09c-.76-1.22-.89-1.44.76-9.5.55-2.65,1-4.75,1.16-5.93l-1-1a3.52,3.52,0,0,1-.3-4.53l.6-.8c.75-1,4.64-6.07,7.42-6.07,2,0,2,0,8.91,7.72,1.07-4.87,1.61-6.64,3.63-7.41a3.89,3.89,0,0,1,1.45-.26c2.3,0,6.26,2.34,7.42,4a3.83,3.83,0,0,1,.47,3.56c-.2.52-.67,1.73-3.48,3.05l-.35.17c-.33,1.29-.9,3.72-1.55,6.81l-.25,1.2C321,27,320.6,28.91,320.29,30c-.67,2.44-2,3.67-4.07,3.67h-.17c-1.92,0-2.84-.68-7-5.3-.3,2.67-2.87,3.75-4.41,4.39A11.47,11.47,0,0,1,300.43,34Z"/><path d="M305.58,7.73c.44,0,.54.11,6.31,6.56a37.48,37.48,0,0,0,4.5,4.59h0c.11-.12.73-2.63,1.36-5.56.76-3.49,1.31-5.4,1.6-5.51a.56.56,0,0,1,.2,0c1.17,0,4.86,2.19,4.62,2.82a4.56,4.56,0,0,1-1.69,1.14,8.41,8.41,0,0,0-1.85,1.09c-.17.21-1.07,4-2,8.34-1.84,8.67-1.89,9-2.44,9h-.17c-.63,0-1.69-1.08-7.37-7.49a26.5,26.5,0,0,0-4-4s0,0,0,0a44.48,44.48,0,0,0-1.54,6.69c0,.22.55.77,1.23,1.22,1.86,1.24,1.66,1.8-1.06,2.93a9.53,9.53,0,0,1-2.87.93.52.52,0,0,1-.5-.23,61.36,61.36,0,0,1,1.21-6.95c.75-3.68,1.37-7,1.37-7.3a3.72,3.72,0,0,0-1.07-1.71l-1.07-1.1.6-.81c1.13-1.53,4.23-4.65,4.61-4.65m0-7c-3.21,0-5.22,2-7,3.83a38.2,38.2,0,0,0-3.23,3.65l-.6.81a7,7,0,0,0,.35,8.77c-.21,1.07-.48,2.46-.82,4.1-1.6,7.79-1.93,9.42-.31,12a7.51,7.51,0,0,0,6.46,3.55A14,14,0,0,0,306,36a14.42,14.42,0,0,0,3.55-2A9.21,9.21,0,0,0,316,37.2h.25c1.72,0,5.89-.61,7.44-6.24.34-1.23.73-3.08,1.59-7.14l.25-1.2c.46-2.14.85-3.89,1.15-5.15a8.34,8.34,0,0,0,4.08-4.36,7.37,7.37,0,0,0-.86-6.79c-1.73-2.51-6.7-5.54-10.3-5.54h0a7.52,7.52,0,0,0-2.71.49A7,7,0,0,0,312.91,5c-.46-.51-.83-.9-1.13-1.21a8.23,8.23,0,0,0-6.2-3Z" fill="#fff"/><path d="M353,33.93a11.63,11.63,0,0,1-3.67-.4,14.19,14.19,0,0,1-7-5.44c-2.53-3.8-2.91-8.16-1.13-12.94C343.36,9.3,351.78,4,358.86,4h.7l1.78.1a3.49,3.49,0,0,1,3,2l1,2c1.35,2.81,2.89,6-.64,8.31a9.07,9.07,0,0,1-3.43,1.21,8.44,8.44,0,0,1-1.11.09c-2.36,0-3.47-1.45-4.57-3.06A8.06,8.06,0,0,0,354,15.88c-1.46,1.63-1.23,2.37-.66,3.4a1.35,1.35,0,0,0,1.39.82,7.77,7.77,0,0,0,3.19-.91c1.92-.9,2.9-1.28,4-1.28a3.86,3.86,0,0,1,3.31,1.82c1.12,1.83.47,3.79-1.42,7.51-2.26,4.45-3.31,5.14-3.81,5.46-1.63,1.07-5.09,1.23-7,1.23Z"/><path d="M358.86,7.47h.52l1.78.09,1,2c1.45,3,1.49,3.27.59,3.86a5.63,5.63,0,0,1-2,.67,4.22,4.22,0,0,1-.64.06c-.62,0-.86-.33-1.84-1.78-.85-1.25-1.49-1.88-1.9-1.88-1.13,0-3.57,1.49-5,3-2.21,2.47-2.56,4.81-1.11,7.43a4.8,4.8,0,0,0,4.45,2.63,11.24,11.24,0,0,0,4.68-1.24,8.36,8.36,0,0,1,2.49-.95.34.34,0,0,1,.33.17c.38.6-3.15,7.53-4.17,8.2-.61.4-3,.65-5.08.65a10.39,10.39,0,0,1-2.64-.24,10.92,10.92,0,0,1-5.12-4c-1.91-2.88-2.16-6-.76-9.78,1.68-4.51,8.87-8.9,14.4-8.9m0-7c-8.5,0-18.29,6.29-21,13.46-2.19,5.89-1.69,11.31,1.5,16.1a17.78,17.78,0,0,0,8.87,6.85,15.35,15.35,0,0,0,4.71.55c6.17,0,8.24-1.35,8.92-1.8,1.12-.73,2.53-1.93,5-6.81,1.61-3.16,3.61-7.1,1.3-10.89a7.81,7.81,0,0,0,2-6.59,17,17,0,0,0-1.8-4.81l-1-2A7,7,0,0,0,361.52.58L359.74.49c-.29,0-.58,0-.88,0Z" fill="#fff"/><path d="M365.23,33.69a4.75,4.75,0,0,1-3.42-1.22c-1.84-1.84-1.29-7.35-.43-8.68a6.18,6.18,0,0,1,2.93-2.14l.19-.14c.08-.89.08-3.37.08-5.77,0-7.7.34-8.33.74-9.07,1.3-2.44,3.76-2.44,5.23-2.44,3,0,4,.61,4.32.83C376.94,6.37,377,7.83,377,15.94v7.63a3.46,3.46,0,0,1-.36,1.55l-.86,1.77A12.41,12.41,0,0,1,369,33,11.63,11.63,0,0,1,365.23,33.69Z"/><path d="M370.55,7.73h.08A7,7,0,0,1,373,8c.37.24.45,1.57.46,7.92v7.64l-.87,1.77a8.86,8.86,0,0,1-4.81,4.38,8.34,8.34,0,0,1-2.56.47,1.45,1.45,0,0,1-.94-.21h0a10.93,10.93,0,0,1,0-4.3,4,4,0,0,1,1.33-.81,4.77,4.77,0,0,0,1.77-1.39c.63-.88.66-1.26.66-7.75a45,45,0,0,1,.32-7.42c.26-.48.64-.59,2.15-.59m0-7c-1.66,0-6,0-8.31,4.29-.77,1.45-1.15,2.51-1.15,10.72,0,1.2,0,2.57,0,3.65a8.14,8.14,0,0,0-2.63,2.51c-1,1.48-1.33,3.1-1.35,6,0,2.44.14,5,2.25,7.09a8,8,0,0,0,5.89,2.26,15.28,15.28,0,0,0,4.89-.87,16,16,0,0,0,8.77-7.9l.86-1.76a7,7,0,0,0,.72-3.1V15.93c0-3.62,0-5.42-.11-6.65-.09-1.52-.29-5.08-3.61-7.18-.65-.4-2.16-1.36-6.09-1.37h-.11Z" fill="#fff"/><path d="M386.31,33.7a11.32,11.32,0,0,1-4.48-1.06A13,13,0,0,1,378,29.71c-2.85-3.33-3-5.55-3.15-13.5-.14-7.38.05-8.42.64-9.5a4.72,4.72,0,0,1,4.61-2.45l1.32,0,2.37.09a3.5,3.5,0,0,1,3.37,3.43l.17,7.9a48.44,48.44,0,0,0,.28,5.74c.27.15.72.35,1.11.53l.25.12c3.65,1.68,2.42,8.18,2.41,8.24-.85,3.36-4,3.36-5,3.36Z"/><path d="M380.07,7.76l1.19,0,2.37.09.15,7.29c.19,8.7.09,8.45,3.7,10.11.49.23.8,2.92.47,4.21-.15.61-.36.71-1.58.71h-.05a7.94,7.94,0,0,1-3-.73h0a9.53,9.53,0,0,1-2.68-2c-2-2.28-2.16-3.28-2.31-11.28-.09-5,0-7.32.22-7.79s.45-.6,1.53-.6m0-7c-3.58,0-6.18,1.45-7.7,4.3-1,1.93-1.19,3.61-1.05,11.22s.21,11.29,4,15.71a16.37,16.37,0,0,0,5,3.82,14.76,14.76,0,0,0,5.95,1.39h.07c6.2,0,7.92-4.2,8.37-6,0-.09,1.93-8.86-3.85-12,0-1-.07-2.22-.09-3.52l0-.62-.15-7.29A7,7,0,0,0,383.9.89L381.53.8c-.6,0-1.08,0-1.46,0Z" fill="#fff"/><path d="M548,33.68c-7.76,0-8.14-.18-8.77-.44A3.84,3.84,0,0,1,537,30.77c-.27-.84-.85-4.66.42-6.67a3.72,3.72,0,0,1,1.81-1.48,5.55,5.55,0,0,1-1-4c.27-3.85,2-5.49,5.83-5.49h.37c3.71,0,6.72.26,8.85,2.64,1.69,1.89,1.76,3.22,1.76,6.05v.29a4.51,4.51,0,0,1,3.58,2.37c.87,1.63,1.29,5.82-.66,7.77-1.27,1.27-2.6,1.38-8.82,1.38Z"/><path d="M544.08,16.67h.34c3.82,0,5.3.39,6.27,1.47.82.92.87,1.14.87,3.72,0,3.67,0,3.71,2,3.71,1.32,0,1.72.12,2,.6.44.81.41,3.2,0,3.65-.24.25-2,.35-6.34.35H548c-3.91,0-7.27-.1-7.48-.18h0c-.43-.18-.54-3.39-.14-4,.15-.23,1.26-.41,3-.46l2.76-.09.1-1.61c.13-2.39-.23-2.86-2.22-2.86s-2.42-.41-2.31-2.06c.14-2,.34-2.23,2.34-2.23m0-7c-5.62,0-8.93,3.11-9.32,8.75a10.42,10.42,0,0,0,.22,3.15c-.16.2-.32.42-.47.65-2.14,3.38-1.18,8.45-.8,9.62a7.28,7.28,0,0,0,4.23,4.65c1.25.5,1.63.66,10.07.69h1.15c6.29,0,8.89,0,11.29-2.4,3.21-3.21,2.79-9.08,1.27-11.91a7.58,7.58,0,0,0-3.21-3.24,9.39,9.39,0,0,0-2.6-6.14c-3.07-3.44-7.15-3.77-11.42-3.81Z" fill="#fff"/><path d="M482.39,33.66c-5.56,0-6.41,0-7.58-1.18-2.27-2.26-.83-8.15-.81-8.2a3.65,3.65,0,0,1,3.06-2.53c.5-.05,5.05-.19,7-.25l2.91-.09V16.53l-9.81-.22A3.51,3.51,0,0,1,473.72,13l-.09-2.13c-.12-2.71.19-4,1.18-5s1.25-1.26,10.72-1.32h3.26c5.65,0,7.71.17,9.74,3.43,1.12,1.8,1.16,3.3,1.33,10.55.22,8.93.28,11.33-3.18,13.69-2,1.36-2.52,1.37-11.09,1.47Z"/><path d="M488.79,8c5.6,0,5.81.23,6.77,1.79.56.88.63,1.72.8,8.78.22,8.84.11,9.5-1.65,10.71-1.12.76-1.17.77-9.17.86l-3.14,0a41.88,41.88,0,0,1-5.11-.15h0c-.41-.4-.27-4.73.16-4.78.21,0,3.22-.13,6.69-.23l6.31-.19V13.11L483.84,13l-6.62-.15-.1-2.13a6.58,6.58,0,0,1,.16-2.37,76.13,76.13,0,0,1,8.27-.3h3.24m0-7h-3.28c-9.24.06-10.9.07-13.18,2.35S470,8.47,470.13,11l.09,2.13a7,7,0,0,0,3.88,6,7.27,7.27,0,0,0-3.4,4c0,.07-2.34,7.87,1.64,11.84,2.19,2.2,4,2.2,10.06,2.2l3.23,0c9-.11,10.14-.12,13-2.08,5-3.43,4.94-7.3,4.71-16.66-.19-7.85-.23-9.71-1.85-12.32C498.34,1,494.33,1,488.79,1Z" fill="#fff"/><path d="M501.77,33.67c-4.41,0-5.46,0-6.63-1.17-1-1-1.26-2.15-1.26-4.93V25.36A3.5,3.5,0,0,1,497,21.88l1.89-.2c1.3-.13,4.42-.21,6.67-.21h3l.12-5c.16-6.89.2-8.53,2.24-9.82.47-.29,1.32-.83,4.46-.83,2.08,0,4,.14,5.15,1.93.54.88.69,1.12.75,9,0,6.43,0,7.7-.88,9.73a11.78,11.78,0,0,1-5.94,6.09c-2.21,1-3.34,1-9.77,1.14Z"/><path d="M515.36,9.28a4.92,4.92,0,0,1,2.17.27c.1.15.2,3.38.23,7.16,0,6.31,0,7-.58,8.27A8.26,8.26,0,0,1,513,29.31c-1.52.68-2.06.73-8.4.83l-2.84,0a28.08,28.08,0,0,1-4.16-.15h0a7.81,7.81,0,0,1-.23-2.44V25.36l1.89-.2c1-.11,3.88-.19,6.31-.19H510l1-.9,1-.9.16-6.66c.12-5.46.23-6.7.61-6.94a7.54,7.54,0,0,1,2.59-.29m0-7c-3,0-4.78.39-6.32,1.37-3.22,2-3.53,5.5-3.64,6.81-.1,1.14-.17,2.74-.24,5.89l0,1.62c-2.31,0-5.19.09-6.57.23l-1.9.2a7,7,0,0,0-6.27,7v2.22c0,2.58.18,5.28,2.28,7.39s4.37,2.2,9.11,2.2l3,0c6.48-.1,8.22-.13,11.15-1.45a15.18,15.18,0,0,0,7.7-7.85c1.25-2.79,1.23-4.57,1.19-11.19-.07-8.09-.17-9-1.28-10.78-2.22-3.59-6.2-3.59-8.12-3.59Z" fill="#fff"/><path d="M501,16.72c-2.77,0-4.54-.07-5.86-1.38s-1.44-3.21-1.42-4.91c0-2,.08-4.63,3.63-5.55.31-.08,1.13-.29,5-.29H504l4.7.09a3.5,3.5,0,0,1,3.44,3.5v4.92a3.51,3.51,0,0,1-3.45,3.5l-5.28.09Z"/><path d="M502.38,8.09h1.54l4.7.09v4.92l-5.28.09-2.32,0c-2.32,0-3.13-.1-3.39-.36a4.06,4.06,0,0,1-.39-2.38c0-1.93.05-2,1-2.21a29.53,29.53,0,0,1,4.13-.18m0-7c-4.32,0-5.34.26-5.89.4-6.13,1.59-6.22,6.89-6.25,8.88,0,2.29.21,5.21,2.44,7.44,2.41,2.41,5.43,2.41,8.34,2.41l2.43,0,5.28-.09a7,7,0,0,0,6.89-7V8.19a7,7,0,0,0-6.88-7l-4.69-.09Z" fill="#fff"/><path d="M531.09,33.68c-6.1,0-7.82-.14-9.19-.74a10,10,0,0,1-5.22-4.6c-1.07-2.05-1.08-2.92-1.09-11.31,0-9.13,0-10.31,2-11.64.6-.38,1.45-.79,4.08-.79h.71l2.31.08A3.49,3.49,0,0,1,528.12,8l.06,1.15h9.25a3.5,3.5,0,0,1,3.49,3.64l-.18,4.47a3.48,3.48,0,0,1-3.39,3.35l-6.16.18-2.86.09s0,.67,0,.77c.79.05,1.86.08,2.91.1l7.31.18A3.5,3.5,0,0,1,542,25.28l.09,2.12c.06,1.56.18,4.16-1.94,5.49-.82.53-1.24.79-8.85.79Z"/><path d="M521.71,8.1h.61l2.31.08.08,1.54c.14,2.73-.3,2.93,3.9,2.93h8.82l-.09,2.23-.09,2.24-6.16.17c-3.39.1-6.2.2-6.26.23a25.18,25.18,0,0,0,0,3.28c.15,4.53-.26,4.28,7.42,4.47l6.23.16.09,2.13c.07,1.49,0,2.2-.31,2.38a56.58,56.58,0,0,1-7,.24h-.2c-5.21,0-7-.11-7.79-.45a6.63,6.63,0,0,1-3.52-3c-.65-1.23-.68-1.64-.69-9.68,0-7.14.06-8.45.46-8.7a6.43,6.43,0,0,1,2.16-.23m0-7c-2.75,0-4.48.39-6,1.35-3.3,2.13-3.49,5.74-3.57,7.28-.07,1.31-.09,3.22-.09,7.31,0,8.77,0,10.12,1.5,12.93a13.47,13.47,0,0,0,6.92,6.18c2.06.9,4.1,1,10.57,1h.21c7.87,0,9-.23,10.72-1.33,3.82-2.43,3.63-6.75,3.55-8.6l-.09-2.13a7,7,0,0,0-2.07-4.67,6.85,6.85,0,0,0,.84-3.05l.09-2.23.09-2.23a7,7,0,0,0-7-7.29h-6.28a7,7,0,0,0-6.29-4.46l-2.3-.08Z" fill="#fff"/><path d="M604.1,54c-.84,0-5.09,0-6.78-.19l-1.12-.11a3.51,3.51,0,0,1-3.14-3.55l.05-2.74c0-2.31.09-5.17,2.68-6.09.61-.22.81-.3,6.26-.3l7.56,0a3.52,3.52,0,0,1,2.51,1.09,3.46,3.46,0,0,1,1,2.55L613,47.43c-.14,3.5-.34,4-.74,4.65C611.12,54,609.91,54,604.16,54Z"/><path d="M602,44.49h1.41l6.16,0-.11,2.77a19.74,19.74,0,0,1-.25,3,38.84,38.84,0,0,1-5.14.17c-2.56,0-5.34-.05-6.4-.17l-1.13-.11.05-2.75a7.55,7.55,0,0,1,.36-2.86c.14,0,2.3-.08,5-.08m0-7c-5.85,0-6.21.07-7.4.49-4.87,1.73-5,6.86-5,9.32l0,2.75a7,7,0,0,0,6.26,7.09l1.12.12c1.76.18,5.58.2,7.14.2s2.77,0,3.75-.05c2-.06,5.39-.16,7.4-3.54.91-1.52,1.09-2.84,1.23-6.3l.12-2.77a7,7,0,0,0-7-7.29l-6.16,0Z" fill="#fff"/><path d="M541.37,18.24a7.64,7.64,0,0,1-3.16-.68,6.77,6.77,0,0,1-3.87-7.32A7.3,7.3,0,0,1,540.77,4a7.69,7.69,0,0,1,1-.06,7.1,7.1,0,0,1,5.44,2.38A7,7,0,0,1,548.78,12a7.4,7.4,0,0,1-7.41,6.26Z"/><path d="M541.72,7.47a3.44,3.44,0,0,1,3.59,4.05,3.9,3.9,0,0,1-3.95,3.22,4,4,0,0,1-1.71-.37c-3.21-1.45-2.11-6.46,1.51-6.87l.56,0M541.63,12a.9.9,0,0,0,.94-.74,1.28,1.28,0,0,0-.38-1,1,1,0,0,0-.64-.24,1,1,0,0,0-.75,1.63,1.06,1.06,0,0,0,.83.39M541.72.47a11.9,11.9,0,0,0-1.34.08,10.9,10.9,0,0,0-9.5,9.14,10.24,10.24,0,0,0,5.89,11.06,11,11,0,0,0,4.59,1,10.91,10.91,0,0,0,10.89-9.29A10.63,10.63,0,0,0,549.8,4,10.7,10.7,0,0,0,541.72.47Z" fill="#fff"/><path d="M552.81,25.08a3.5,3.5,0,0,1-3.4-2.65l-.2-.78s-.85-5.3,1.24-7.4c1.12-1.12,1.39-1.39,16.14-1.39,4.52,0,4.94.11,5.39.22,3.4.86,3.4,3.74,3.4,5.85v2.26a3.51,3.51,0,0,1-2.81,3.44l-1,.19c-1.18.23-7.54.26-10.22.26Z"/><path d="M566.6,16.36a45,45,0,0,1,4.53.12c.71.18.75.31.75,2.45v2.26l-1,.2c-.53.1-4.82.19-9.54.19H552.8l-.19-.79a9.23,9.23,0,0,1,.32-4.07c.19-.19,8.32-.36,13.67-.36m0-7c-2.71,0-6.14.05-8.94.11-5.81.15-7.57.19-9.68,2.31-3.59,3.59-2.18,10.65-2.16,10.72l.2.78a7,7,0,0,0,6.78,5.3h8.58c9.27,0,10.42-.23,10.91-.33l1-.19a7,7,0,0,0,5.63-6.87V18.93c0-2.11,0-7.72-6-9.24-.84-.21-1.51-.33-6.23-.33Z" fill="#fff"/><path d="M468.66,33.38c-2,0-3.61-.13-5.25-1.89l-.75-.79a3.53,3.53,0,0,1-1-2.37l-.09-10c-.1-11.85-.11-12.08,2.43-13.44.63-.34,1.55-.65,3.95-.65,2.65,0,3.93.34,4.89,1.3,1.13,1.13,1.17,1.39,1.24,9.21,0,2.39.07,4.52.12,5.95L476,20.5a3.87,3.87,0,0,1,.48,0A3.5,3.5,0,0,1,480,24v2.31c0,2-.13,4.06-1.69,5.35-2,1.64-8.15,1.75-9.36,1.75Z"/><path d="M468,7.78a6.45,6.45,0,0,1,2.42.28c.08.08.17,3.12.21,6.76s.14,7.3.24,8.14c.14,1.14.19,1.54,1.21,1.54a23.47,23.47,0,0,0,2.6-.28l1.77-.25v2.31c0,1.57-.14,2.42-.42,2.65-.53.44-4.28.94-7.15.95h-.23c-1.74,0-2-.1-2.69-.78h0l-.75-.8-.09-10c-.09-10-.09-10,.58-10.32a7.36,7.36,0,0,1,2.3-.24m0-7a11.23,11.23,0,0,0-5.6,1.07,8.28,8.28,0,0,0-4.26,7.34c-.09,1.52-.07,3.93,0,9.21l.09,10a7,7,0,0,0,1.9,4.73l.75.79c2.59,2.76,5.27,3,7.79,3h.26c5.67,0,9.57-.88,11.59-2.56,2.95-2.45,2.95-6.09,2.95-8V24a7,7,0,0,0-5.79-6.89c0-.73,0-1.5,0-2.32,0-1.81-.05-3.54-.09-4.87-.09-2.66-.15-4.76-2.17-6.78S470.44.78,468,.78Z" fill="#fff"/><path d="M626.27,61.09c-3.47,0-4.45-.59-4.82-.8-2.32-1.35-2.27-2.92-2.07-9.51s.38-8,2.07-9.09c.87-.59,1.82-.77,4.06-.77l1,0,2.61.08a3.5,3.5,0,0,1,3.4,3.46l.06,5.85a58.69,58.69,0,0,1-.16,7.29c-.73,3.47-3.82,3.47-5.67,3.47Z"/><path d="M625.52,44.42l.85,0,2.62.07.06,5.85c0,3.22,0,6.16-.08,6.55-.13.6-.28.68-2.25.68h-.43a10.83,10.83,0,0,1-3.07-.32c-.48-.28-.51-.84-.34-6.38.12-4,.3-6.15.53-6.3a7.7,7.7,0,0,1,2.11-.17m0-7c-2.59,0-4.32.22-6,1.36-3.33,2.24-3.42,5.26-3.62,11.9-.1,3.14-.13,4.63-.07,5.75a7.92,7.92,0,0,0,3.89,6.89c.7.4,2.15,1.25,6.56,1.27h.46a12.37,12.37,0,0,0,3.93-.44,7.57,7.57,0,0,0,5.17-5.81c.12-.58.3-1.44.23-8.05L636,44.44a7,7,0,0,0-6.79-6.92l-2.62-.08-1.06,0Z" fill="#fff"/><path d="M644.84,63.88a3.51,3.51,0,0,1-3.5-3.38l0-.7c-.21-6,.69-6.89,1.28-7.49,1.2-1.21,1.23-1.24,13.68-1.38,3,0,5.18-.06,6.79-.06,4.27,0,6.4,0,7.62,2.28.21.38.7,1.29.63,4.67l-.05,2.46a3.48,3.48,0,0,1-3.47,3.43Z"/><path d="M663.08,54.37c3.74,0,4.36.12,4.52.43a10.47,10.47,0,0,1,.22,3l-.05,2.46-11.46.09-11.47.08,0-.7a21.87,21.87,0,0,1,.27-4.91c.12-.12,5.17-.27,11.23-.34,3,0,5.15-.06,6.76-.06m0-7c-1.7,0-4,0-6.84.06s-5.81.09-8,.16c-4.19.12-6.1.18-8.15,2.26-1.4,1.41-2.54,3.14-2.3,10.07l0,.7a7,7,0,0,0,7,6.76h0l11.47-.08,11.46-.09a7,7,0,0,0,6.95-6.86l.05-2.46c.08-4.29-.65-5.66-1-6.4-2.21-4.12-6.14-4.12-10.7-4.12Z" fill="#fff"/><path d="M578.54,33.93c-1.54,0-3.85,0-5.12-2.37-.46-.86-1.93-6.53,1.16-8.45a3.25,3.25,0,0,1,1.38-.5h-.31c-5.25,0-6.35-2.48-6.35-4.55,0-1.75,2.26-9.49,3.18-10.9a6.57,6.57,0,0,1,2.91-2.39c.42-.16,1.29-.49,8.34-.58,1,0,1.95,0,2.74,0,4.74,0,6.87.28,9,3.11,1.32,1.78,1.33,2.9,1.43,10.19.1,8,.13,10.67-3.36,13.66-2.64,2.25-4.91,2.51-11.27,2.71-1.71,0-2.88.09-3.7.09Z"/><path d="M586.47,7.67c4.52,0,5.12.29,6.16,1.69.6.82.65,1.33.74,8.15.11,8.34-.06,9.18-2.13,11-1.66,1.41-2.94,1.68-9.11,1.87-1.65.05-2.79.09-3.59.09-1.63,0-1.83-.14-2-.52h0c-.37-.69-.43-3.61-.09-3.82.13-.08,2.51-.25,5.3-.37,4.71-.21,5.1-.28,5.77-.94s1-3,.36-3.38a15.91,15.91,0,0,0-3.12-.17h-2.08c-3,0-3.14-.31-3-2.49l.09-1.64,3.89-.19a27,27,0,0,0,4.23-.41c.43-.26.45-2.78,0-3.58-.29-.54-.68-.6-4.31-.6h-.49c-4.12,0-4.06.07-4.88,3.39s-.86,3.38-2.43,3.38h-.11c-2.16,0-2.86-.26-2.86-1.05a49.79,49.79,0,0,1,2.61-9,3.14,3.14,0,0,1,1.22-1,57.86,57.86,0,0,1,7.14-.35c1,0,1.93,0,2.7,0m0-7c-.8,0-1.72,0-2.78,0-7.67.09-8.67.47-9.55.81a9.9,9.9,0,0,0-4.58,3.74c-1.4,2.14-3.76,10.56-3.76,12.82a7.77,7.77,0,0,0,3.7,6.65,12.46,12.46,0,0,0-.3,3.27,10.94,10.94,0,0,0,1.14,5.24c2.25,4.21,6.57,4.21,8.2,4.21.86,0,2,0,3.81-.09,6.33-.2,9.81-.45,13.44-3.56,4.74-4.05,4.69-7.91,4.58-16.36-.1-7.71-.12-9.54-2.11-12.22C595.13,1,591.56.67,586.47.67Z" fill="#fff"/><path d="M603.64,62.26A64.77,64.77,0,0,1,597,62l-1.23-.19a3.5,3.5,0,0,1-2.95-3.6l.1-2.62c.12-3.14.39-4.2,1.3-5.13s1.43-1.25,8.82-1.35l6.2-.08a3.5,3.5,0,0,1,3.5,3.39l.09,2.89c.08,2.41.15,4.9-2,6.2-.81.5-1.18.73-7.28.73Z"/><path d="M609.28,52.55l.09,2.88c.06,2,0,3-.28,3.12a37.71,37.71,0,0,1-5.45.21c-2.55,0-5.2-.07-6-.2l-1.24-.19.11-2.62a12,12,0,0,1,.3-2.83,55.44,55.44,0,0,1,6.37-.29l6.15-.08m0-7h-.1l-6.16.08c-7.12.1-9,.12-11.27,2.4-1.94,2-2.18,4.34-2.3,7.45l-.1,2.61a7,7,0,0,0,5.91,7.19l1.23.2a63.37,63.37,0,0,0,7.14.28c6.1,0,7.38-.18,9.13-1.26,3.81-2.36,3.68-6.52,3.6-9.28l-.09-2.88a7,7,0,0,0-7-6.79Z" fill="#fff"/><path d="M602.93,74.31c-6,0-6.63-.2-7.18-.39C593,73,593,70,593,67.76c0-2.39,0-5.11,2.73-6.16.57-.22,1.1-.42,8.42-.42h2a29.49,29.49,0,0,0,4.14-.18,41.18,41.18,0,0,0,.4-6.09l0-1.17c.24-8.25.34-9.65,2.17-10.85.75-.49,1.58-.74,4-.74l1,0,2.61.08a3.5,3.5,0,0,1,3.4,3.5v8.93c0,8.24-.07,9.84-.85,11.48A13.33,13.33,0,0,1,612.86,74C611,74.3,603.75,74.31,602.93,74.31Z"/><path d="M616.9,45.65l.85,0,2.62.08v8.92c0,7.63-.08,9.09-.52,10a9.79,9.79,0,0,1-7.58,5.84c-1,.18-5.48.29-9.32.29a50.67,50.67,0,0,1-6.05-.2h0c-.27-.09-.38-1-.38-2.85,0-2.19.09-2.74.48-2.89s3.5-.19,7.17-.19h2c8.08,0,7.77-.36,8.07-10.84.16-5.34.34-7.86.59-8a7.79,7.79,0,0,1,2.12-.17m0-7c-2.56,0-4.27.21-6,1.31-3.08,2-3.32,5.27-3.47,7.42-.1,1.41-.19,3.46-.27,6.26l0,1.17c0,1,0,2-.09,2.87h-2.91c-8,0-8.54.22-9.67.65-5,1.91-5,7-5,9.43s0,7.7,5.1,9.47c1,.33,1.68.58,8.33.58a100.47,100.47,0,0,0,10.52-.39,16.72,16.72,0,0,0,12.72-9.77c1.17-2.49,1.17-4.71,1.18-13V45.75a7,7,0,0,0-6.79-7L618,38.67l-1.06,0Z" fill="#fff"/><path d="M684.35,74.34a3.51,3.51,0,0,1-3.22-2.12l-.79-1.83a19.67,19.67,0,0,0-1.1-2.12c-.08.08-.16.17-.25.25-4,4.1-6.49,5.82-11.58,5.82h-2.58a3.5,3.5,0,0,1-3.5-3.61l.18-5.7a3.48,3.48,0,0,1,3.16-3.37l1.85-.18a9.38,9.38,0,0,0,1.09-.17c1.31-1.18,5.06-4.91,8.08-8l-9.8-.1a3.5,3.5,0,0,1-3.46-3.37l-.09-2.56c-.11-3.24.32-4.44,1-5.33,1.31-1.58,3.23-1.58,6.42-1.58,1.28,0,3,0,5.2.06,6,.11,9.51.31,10.47.61A9.21,9.21,0,0,1,691,46.38a11.08,11.08,0,0,1-.14,9.18A19.11,19.11,0,0,1,688.21,59c2.21,3.15,5.38,8.86,5.38,11.39,0,3.94-4.14,3.94-6.37,3.94Z"/><path d="M669.81,43.88c1.27,0,2.94,0,5.14.06,4.69.09,9,.29,9.49.45,3.33,1,5.08,6.09,3.32,9.6a18.22,18.22,0,0,1-2.38,2.91l-1.88,1.92.8.85c2,2.07,5.79,9.19,5.79,10.73,0,.34-.59.44-2.87.44h-2.87L683.56,69c-1-2.3-3.32-5.87-3.83-5.87a19.51,19.51,0,0,0-3.24,2.94c-3.78,3.88-5.46,4.76-9.08,4.76h-2.58l.09-2.85h0l.08-2.85,1.85-.18a9.3,9.3,0,0,0,2.46-.51c.83-.46,13.4-13.12,13.39-13.49,0-1-.49-1.07-8.64-1.15l-8.13-.09-.09-2.55a7.14,7.14,0,0,1,.25-3c.18-.22,1-.32,3.72-.32m0-7c-3.62,0-6.75,0-9.11,2.85-1.69,2-2,4.55-1.86,7.68l.09,2.56a7,7,0,0,0,6.93,6.75l1.47,0L666,58l-1.69.16A7,7,0,0,0,658,64.92l-.09,2.85-.09,2.85a7,7,0,0,0,7,7.22h2.58a15.6,15.6,0,0,0,10.74-3.75,7,7,0,0,0,6.2,3.75h2.87a22.64,22.64,0,0,0,3.34-.17,7.37,7.37,0,0,0,6.53-7.27c0-3-2.33-7.58-4.51-11.1A13.14,13.14,0,0,0,694,57.12,14.59,14.59,0,0,0,694.25,45a12.67,12.67,0,0,0-7.74-7.29c-.72-.22-1.92-.6-11.44-.77-2.39,0-4-.06-5.26-.06Z" fill="#fff"/><circle cx="697.76" cy="46.21" r="5.94"/><path d="M697.76,43.77a2.44,2.44,0,1,1-2.44,2.44,2.44,2.44,0,0,1,2.44-2.44m0-7a9.44,9.44,0,1,0,9.44,9.44,9.45,9.45,0,0,0-9.44-9.44Z" fill="#fff"/><circle cx="691.93" cy="46.21" r="5.94"/><path d="M691.93,43.77a2.44,2.44,0,1,1-2.44,2.44,2.44,2.44,0,0,1,2.44-2.44m0-7a9.44,9.44,0,1,0,9.44,9.44,9.44,9.44,0,0,0-9.44-9.44Z" fill="#fff"/><path d="M628.31,74.31c-4.89,0-5.75-.34-6.26-.55-3-1.19-2.9-3.7-2.81-6.34l.09-2.7a3.51,3.51,0,0,1,3.4-3.39l5.38-.15a41,41,0,0,0,4.66-.32c.37-2.83.89-13,.74-14.83a4,4,0,0,1,2.48-4.8,21.66,21.66,0,0,1,5.45-.47c1.72,0,3.68,0,4.74,1.91a3.73,3.73,0,0,1,.2.4,4.21,4.21,0,0,1,.49,1.2,4,4,0,0,1-.08,2c-.06,1-.14,4.08-.14,8.27,0,8.87,0,9.6-1.07,11.73a13.65,13.65,0,0,1-9.44,7.57,49.53,49.53,0,0,1-7.83.49Z"/><path d="M641.44,44.26a4.52,4.52,0,0,1,1.69.13.34.34,0,0,0,.17.43.39.39,0,0,1,.08.56c-.13.2-.23,4.31-.23,9.14,0,8.49,0,8.82-.7,10.17a10.12,10.12,0,0,1-7.11,5.73,46.56,46.56,0,0,1-7,.39,23.55,23.55,0,0,1-4.94-.3c-.67-.27-.71-.41-.62-3l.09-2.7,5.39-.16c6-.17,6.95-.46,7.82-2.29.47-1,1.25-15.7.9-17-.11-.42,0-.73.25-.83a25.19,25.19,0,0,1,4.25-.26m0-7c-4.75,0-6.07.48-6.64.68A7.57,7.57,0,0,0,630,46.45c.08,1.71-.18,7.43-.46,11.17l-1.55.06-5.39.16a7,7,0,0,0-6.79,6.76l-.09,2.7a16.43,16.43,0,0,0,.17,4A7.71,7.71,0,0,0,620.75,77c1.09.44,2.41.8,7.55.8a48.31,48.31,0,0,0,8.65-.58,17,17,0,0,0,11.77-9.42c1.43-2.87,1.43-4.06,1.43-13.29,0-3.84.06-6.62.12-7.73a7.61,7.61,0,0,0,0-3.29,7.5,7.5,0,0,0-.75-2,5.07,5.07,0,0,0-.29-.57c-2.07-3.71-5.8-3.71-7.8-3.71Zm7.66,10.79Z" fill="#fff"/><path d="M412.59,22.31c-2.2,0-5.22,0-6.11-3A69.41,69.41,0,0,1,405.3,8.37c.44-3.88,3.56-4,5.83-4.08l1.1,0c1.07,0,3.89,0,4.86,2.62a100.73,100.73,0,0,1,1.59,11v.91a3.5,3.5,0,0,1-3.5,3.5Z"/><path d="M412.23,7.77c1,0,1.49.1,1.57.33.23.63,1.39,8.8,1.39,9.8v.91h-2.6c-2.21,0-2.62-.08-2.76-.54a79.32,79.32,0,0,1-1.06-9.5c.1-.89.11-.89,2.49-1l1,0m0-7L411,.8a12.5,12.5,0,0,0-4.39.66A7.53,7.53,0,0,0,401.82,8c-.25,2.15.86,10.77,1.3,12.28,1.64,5.56,7.12,5.56,9.47,5.56h2.6a7,7,0,0,0,7-7V17.9c0-1.27-1.15-10.39-1.82-12.22S417.74.77,412.23.77Z" fill="#fff"/><path d="M324.14,33.55a25.13,25.13,0,0,1-3.25-.09c-3.24-.45-3.84-2.56-3.95-3.45-.16-1.31.25-3.1,3-4.32.18-.7.4-1.9.54-2.61,0-.13.13-.67.25-1.29a3.58,3.58,0,0,1-1-2.43A4,4,0,0,1,322,15.65c.12-.49.26-1.15.35-1.58.15-.68.39-1.77.51-2.51a4.3,4.3,0,0,1-1.33-2.8,3.67,3.67,0,0,1,1-2.78c1.1-1.1,1.27-1.28,11.91-1.4l5.2,0c4,0,6.48,0,7.5,2.66.22.57.55,1.44-.22,5.15-.47,2.22-1.05,5-3.87,5.53a4.11,4.11,0,0,1-.78.07,3.39,3.39,0,0,1-.64-.05c0,.08-.21,1-.32,1.47a4,4,0,0,1,2.73,1.89c.69,1.1.78,2.12,0,5.94-.54,2.54-1.1,5.17-3.64,5.88C338.92,33.5,324.29,33.55,324.14,33.55Z"/><path d="M339.71,8c3.47,0,4.12.11,4.23.41a12,12,0,0,1-.38,3.18c-.43,2.06-.69,2.73-1.11,2.81h-.11a.63.63,0,0,1-.6-.47c-1.09-3.39-1.9-4.09-4.83-4.09h0a8.72,8.72,0,0,0-2.62.27c-.5.32-1.92,7.13-1.56,7.52a.28.28,0,0,0,.24.08,7.48,7.48,0,0,0,3.58-2c.64-.68,1.14-1,1.47-1,.54,0,.65.89.26,2.61-.16.71-.52,2.37-.79,3.68-.33,1.59-.63,2.36-1.07,2.36S335.6,22.9,335,22A3.77,3.77,0,0,0,332.54,20a.63.63,0,0,0-.46.18c-.35.36-1.87,7.26-1.66,7.6a5.36,5.36,0,0,0,2.13.23,11.71,11.71,0,0,0,3-.27,12.93,12.93,0,0,0,4.06-4c.33-.64.75-1,1.11-1a.53.53,0,0,1,.45.28,14.34,14.34,0,0,1-.48,3.38c-.47,2.21-.8,3.14-1.16,3.24-.55.15-10.35.34-15.33.34-1.47,0-2.52,0-2.79-.06-1.34-.18-1.26-.61.21-1.21s1.53-.87,2.33-5.05c.27-1.43.57-2.85.65-3.15s-.08-.63-.63-.84c-1-.39-1-.68.2-1.24.93-.44,1-.63,1.68-3.69.9-4.22.89-4.61-.13-5.43-.47-.37-.73-.79-.59-.93a89.9,89.9,0,0,1,9.46-.37l5.16,0m0-7h0c-1.31,0-3,0-5.24,0-10.47.12-12.08.14-14.35,2.44A7.12,7.12,0,0,0,318.06,9a7.6,7.6,0,0,0,1.09,3.46c-.07.36-.14.7-.19.91l0,.22a7.15,7.15,0,0,0-2.71,5.93,7.3,7.3,0,0,0,.81,3.07c-.05.23-.11.54-.17.85a7.31,7.31,0,0,0-3.37,7c.33,2.71,2.32,5.84,6.93,6.48a24.82,24.82,0,0,0,3.76.13c3.53,0,15.22,0,17.21-.6,4.58-1.27,5.55-5.81,6.12-8.52.75-3.51,1.11-5.86-.25-8.26,2.19-1.93,2.82-4.92,3.17-6.6.83-4,.65-5.6.07-7.12C348.6,1,343.88,1,339.71,1Z" fill="#fff"/><path d="M454.21,33.68a4.29,4.29,0,0,1-4.3-2.64c-.13-.36-.42-1.1-.29-3.92.09-2.13.19-4.34,3.12-5.48.1-1.12.14-3.22.19-5.73l.16-7.79a3.5,3.5,0,0,1,3-3.4l2.56-.35a12.65,12.65,0,0,1,1.72-.16c4.88,0,4.92,4.29,5,10.23l0,1.26c.06,6.21,0,8.29-.54,10.17a10.82,10.82,0,0,1-7.16,7.2,12.38,12.38,0,0,1-3.5.61Z"/><path d="M460.41,7.71c1.52,0,1.42,1.23,1.5,8,.06,6.08,0,7.8-.4,9.15a7.34,7.34,0,0,1-4.79,4.83,9.4,9.4,0,0,1-2.51.46c-.57,0-.93-.13-1-.4a11.74,11.74,0,0,1-.07-2.51c.09-2.06.11-2.1,1.08-2.43,2.09-.71,2.08-.64,2.25-9l.15-7.61,2.11-.29c.73-.09,1.28-.19,1.71-.19m0-7a14.26,14.26,0,0,0-2.21.2l-.43.06-2.11.28a7,7,0,0,0-6.07,6.8l-.15,7.61v.18c0,1.35-.05,2.66-.08,3.7-3,2.23-3.15,5.62-3.23,7.42-.16,3.56.27,4.67.52,5.33a7.8,7.8,0,0,0,7.57,4.89,16.1,16.1,0,0,0,4.5-.75,14.42,14.42,0,0,0,9.52-9.58c.67-2.33.75-4.48.68-11.18l0-1.27a41.07,41.07,0,0,0-.35-6.76A8.1,8.1,0,0,0,460.41.71Z" fill="#fff"/><path d="M414,33.36c-3.59,0-4.8,0-6-1.19-.85-.86-1.38-2.09-1.22-5.28.1-2.06.41-3.54,1.63-4.56.74-.61,1.32-1.1,7.06-1.22,1.14,0,2.51-.06,3.2-.12.3-.47.59-1.72,1.25-6.69,1-7.49,1.38-8,2.64-8.9.54-.38,1.22-.85,4.7-.86h2.39a3.5,3.5,0,0,1,3.5,3.5V8.9c0,1.09-.48,4.7-.5,4.85-.26,1.93-.67,5.13-.92,7.11a30.33,30.33,0,0,1-1.07,5.39,12.84,12.84,0,0,1-5.54,5.9c-2.09,1-3.3,1.08-8.63,1.19C415.59,33.36,414.74,33.36,414,33.36Z"/><path d="M429.65,8V8.9c0,.48-.21,2.45-.47,4.39s-.67,5.14-.92,7.13a28.8,28.8,0,0,1-.82,4.46A9.37,9.37,0,0,1,423.58,29c-1.34.66-1.95.73-7.16.83-.87,0-1.7,0-2.45,0a20.49,20.49,0,0,1-3.48-.14h0c-.4-.41-.27-4.34.16-4.69a21.66,21.66,0,0,1,4.9-.42c4.32-.1,4.55-.14,5.35-.88,1.3-1.2,1.59-2.25,2.49-9a41,41,0,0,1,1.17-6.5A10.42,10.42,0,0,1,427.27,8h2.38m0-7h-2.4c-3.38,0-5.13.4-6.7,1.49-2.84,2-3.18,4.53-4.1,11.31-.11.87-.33,2.46-.54,3.76h-.52c-5.58.12-7.39.52-9.21,2-2.65,2.2-2.82,5.49-2.9,7.07-.14,2.79,0,5.69,2.22,7.91s4.56,2.24,8.47,2.24c.79,0,1.67,0,2.58,0,5.27-.11,7.25-.14,10.1-1.54a16.16,16.16,0,0,0,7.22-7.67,26.78,26.78,0,0,0,1.33-6.34c.25-2,.66-5.15.92-7.07.16-1.2.53-4.12.53-5.32V8a7,7,0,0,0-7-7Z" fill="#fff"/><path d="M299.8,109.79a3.5,3.5,0,0,1-3.5-3.5V46.15a3.5,3.5,0,0,1,3.5-3.5h16.9a47.25,47.25,0,0,1,10.45,1,22.55,22.55,0,0,1,8.29,3.69,17.35,17.35,0,0,1,5.7,7.36A26.8,26.8,0,0,1,343,65.18a22.54,22.54,0,0,1-1.9,9.32,20.65,20.65,0,0,1-5.33,7.17,23.72,23.72,0,0,1-7.89,4.46,28.49,28.49,0,0,1-9.31,1.53h-1.37v18.59a3.51,3.51,0,0,1-3.48,3.5Zm17.9-41.74a6.13,6.13,0,0,0,3.69-.88c.22-.19.75-.61.75-2.08s-.5-1.77-.74-2a6.05,6.05,0,0,0-3.7-.88h-.49v5.79Z"/><path d="M316.71,46.15a43,43,0,0,1,9.64.94,18.9,18.9,0,0,1,7,3.1,13.8,13.8,0,0,1,4.55,5.91,23.22,23.22,0,0,1,1.59,9.07,18.9,18.9,0,0,1-1.59,7.88,17.15,17.15,0,0,1-4.43,6,20.32,20.32,0,0,1-6.74,3.79,25.08,25.08,0,0,1-8.17,1.34h-3V71.55h2.16a9.19,9.19,0,0,0,5.88-1.66,5.8,5.8,0,0,0,2.06-4.8,5.64,5.64,0,0,0-2.06-4.69,9.25,9.25,0,0,0-5.88-1.64h-4v47.49l-13.91,0V46.15h16.91m0-7H299.8a7,7,0,0,0-7,7v60.14a7,7,0,0,0,7,7h0l13.92,0a7,7,0,0,0,7-7V91.09A32,32,0,0,0,329,89.44a27.29,27.29,0,0,0,9-5.12,24.08,24.08,0,0,0,6.22-8.38,25.78,25.78,0,0,0,2.22-10.77,30.14,30.14,0,0,0-2.15-11.81,20.84,20.84,0,0,0-6.85-8.82,26.16,26.16,0,0,0-9.57-4.27,50.71,50.71,0,0,0-11.23-1.12Z" fill="#fff"/><rect x="373.24" y="66.66" width="38.73" height="15.53" rx="3.5"/><path d="M408.47,70.16v8.53H376.74V70.16h31.73m0-7H376.74a7,7,0,0,0-7,7v8.53a7,7,0,0,0,7,7h31.73a7,7,0,0,0,7-7V70.16a7,7,0,0,0-7-7Z" fill="#fff"/><path d="M421,109a3.5,3.5,0,0,1-2.48-5.94c5.24-5.36,9.18-9.49,11.71-12.26.7-.77,1.38-1.54,2-2.32a18.7,18.7,0,0,1-8.2-3,20.38,20.38,0,0,1-7.17-8.34,25.64,25.64,0,0,1-2.43-11.12,27.28,27.28,0,0,1,2.93-12.77,21.47,21.47,0,0,1,8.55-8.93,24.53,24.53,0,0,1,12.28-3.09,25.63,25.63,0,0,1,12.65,3.14,22.38,22.38,0,0,1,8.89,9.07,27.66,27.66,0,0,1,3.09,13.25,39.57,39.57,0,0,1-6.36,21.39,119.92,119.92,0,0,1-16.43,20,3.5,3.5,0,0,1-2.48,1Zm17.53-47.65a3.4,3.4,0,0,0-2.68,1.22,4.58,4.58,0,0,0-1.23,3.29,5.54,5.54,0,0,0,.59,2.51A3.87,3.87,0,0,0,436.57,70a3.43,3.43,0,0,0,1.91.54,3.72,3.72,0,0,0,2.91-1.28,4.68,4.68,0,0,0,1.29-3.39,4.43,4.43,0,0,0-.58-2.27,4.53,4.53,0,0,0-1.6-1.68A3.68,3.68,0,0,0,438.48,61.38Z"/><path d="M438.17,44.77a22.1,22.1,0,0,1,10.94,2.7,18.77,18.77,0,0,1,7.52,7.67,24.1,24.1,0,0,1,2.67,11.59,36,36,0,0,1-5.82,19.53,116.32,116.32,0,0,1-16,19.4L421,105.53q7.93-8.13,11.78-12.34a65.31,65.31,0,0,0,6.72-8.65l-.16-.17a11.08,11.08,0,0,1-4.42.8,15.86,15.86,0,0,1-9-2.56A16.92,16.92,0,0,1,420,75.67a22.07,22.07,0,0,1-2.09-9.62,23.73,23.73,0,0,1,2.53-11.14,18,18,0,0,1,7.18-7.5,20.94,20.94,0,0,1,10.55-2.64m.31,29.29A7.21,7.21,0,0,0,444,71.67a8.15,8.15,0,0,0,2.23-5.78,7.93,7.93,0,0,0-1-4A8.06,8.06,0,0,0,442.35,59a7.25,7.25,0,0,0-3.87-1.09,6.9,6.9,0,0,0-5.26,2.35,8.09,8.09,0,0,0-2.15,5.66A9.1,9.1,0,0,0,432,70a7.35,7.35,0,0,0,2.68,3,6.86,6.86,0,0,0,3.78,1.09m-.31-36.29a28,28,0,0,0-14,3.55,25,25,0,0,0-9.93,10.35,30.9,30.9,0,0,0-3.32,14.38,29,29,0,0,0,2.78,12.64,23.76,23.76,0,0,0,8.38,9.75,21.42,21.42,0,0,0,3.72,2c-2.44,2.61-5.73,6-9.82,10.22a7,7,0,0,0,5,11.89l16.54.13h.06a7,7,0,0,0,5-2.06A123.79,123.79,0,0,0,459.4,90a43,43,0,0,0,6.9-23.26,31.09,31.09,0,0,0-3.51-14.91,25.67,25.67,0,0,0-10.27-10.46,29,29,0,0,0-14.35-3.59Zm.29,27.11h0c.12,0,.13,0,.18,0a1.05,1.05,0,0,1,.4.43.94.94,0,0,1,.12.54,1.19,1.19,0,0,1-.35,1,.9.9,0,0,1-.17.16h-.21a.58.58,0,0,1-.16-.22,2.13,2.13,0,0,1-.22-1,1.13,1.13,0,0,1,.31-.93l.08-.08Z" fill="#fff"/><path d="M524.77,110.5a20.71,20.71,0,0,1-12-3.45,22.87,22.87,0,0,1-7.55-8.88,40.47,40.47,0,0,1-3.53-10.87,67.65,67.65,0,0,1,0-22.83,39.78,39.78,0,0,1,3.54-10.9,22.91,22.91,0,0,1,7.54-8.85,20.71,20.71,0,0,1,12-3.45A21.06,21.06,0,0,1,537,44.73a22.9,22.9,0,0,1,7.59,8.76,39.29,39.29,0,0,1,3.55,10.87,66.48,66.48,0,0,1,1,11.54,62.83,62.83,0,0,1-1.9,15.43,29.07,29.07,0,0,1-7.34,13.39C536.09,108.55,531,110.5,524.77,110.5Zm0-48.87a1.71,1.71,0,0,0-1.6.79,11.6,11.6,0,0,0-1.69,4.71,53.29,53.29,0,0,0-.62,8.77,53.4,53.4,0,0,0,.61,8.75,11.08,11.08,0,0,0,1.68,4.69,1.77,1.77,0,0,0,1.62.83c2.63,0,4.2-5.33,4.2-14.27S527.4,61.63,524.77,61.63Z"/><path d="M524.77,44.77A17.59,17.59,0,0,1,535,47.62a19.31,19.31,0,0,1,6.44,7.43A35.86,35.86,0,0,1,544.65,65a62.33,62.33,0,0,1,.94,10.93,58.74,58.74,0,0,1-1.8,14.57,25.26,25.26,0,0,1-6.44,11.79Q532.71,107,524.77,107a17.13,17.13,0,0,1-10-2.83,19.25,19.25,0,0,1-6.4-7.54,36.79,36.79,0,0,1-3.23-9.93,61.48,61.48,0,0,1-.92-10.8,62.15,62.15,0,0,1,.92-10.83,36.26,36.26,0,0,1,3.23-9.95,19.36,19.36,0,0,1,6.4-7.53,17.2,17.2,0,0,1,10-2.82m0,48.9q7.69,0,7.7-17.77t-7.7-17.77a5.17,5.17,0,0,0-4.44,2.25A14.68,14.68,0,0,0,518,66.54a54.87,54.87,0,0,0-.68,9.36,57,57,0,0,0,.66,9.33,14.4,14.4,0,0,0,2.31,6.18,5.21,5.21,0,0,0,4.44,2.26m0-55.9a24.14,24.14,0,0,0-14,4.07A26.33,26.33,0,0,0,502.07,52a43.76,43.76,0,0,0-3.85,11.85,71.33,71.33,0,0,0,0,24,44.21,44.21,0,0,0,3.84,11.8,26.49,26.49,0,0,0,8.7,10.22,24.14,24.14,0,0,0,14,4.07c7.22,0,13.13-2.3,17.58-6.83a32.47,32.47,0,0,0,8.23-15,66.38,66.38,0,0,0,2-16.29,70.57,70.57,0,0,0-1-12.15,42.83,42.83,0,0,0-3.87-11.82A26.29,26.29,0,0,0,539,41.85a24.51,24.51,0,0,0-14.18-4.08Zm.1,46a52.15,52.15,0,0,1-.51-7.89,50.11,50.11,0,0,1,.52-7.85,43.26,43.26,0,0,1,.59,7.85,42.41,42.41,0,0,1-.6,7.89Z" fill="#fff"/><path d="M568.16,110.5a20.68,20.68,0,0,1-12-3.45,22.87,22.87,0,0,1-7.55-8.88,40.84,40.84,0,0,1-3.54-10.87,66.34,66.34,0,0,1-1-11.4,67,67,0,0,1,1-11.43,40.47,40.47,0,0,1,3.54-10.9,22.92,22.92,0,0,1,7.55-8.85,20.68,20.68,0,0,1,12-3.45,21.1,21.1,0,0,1,12.19,3.46,22.9,22.9,0,0,1,7.59,8.76,39.72,39.72,0,0,1,3.54,10.87,66.48,66.48,0,0,1,1,11.54,62.83,62.83,0,0,1-1.9,15.43,29,29,0,0,1-7.33,13.39C579.47,108.55,574.4,110.5,568.16,110.5Zm0-48.87a1.71,1.71,0,0,0-1.61.79,11.6,11.6,0,0,0-1.68,4.71,52.27,52.27,0,0,0-.63,8.77,54.53,54.53,0,0,0,.61,8.75,11.07,11.07,0,0,0,1.69,4.69,1.75,1.75,0,0,0,1.62.83c2.63,0,4.19-5.33,4.19-14.27S570.79,61.63,568.16,61.63Z"/><path d="M568.16,44.77a17.61,17.61,0,0,1,10.21,2.85,19.39,19.39,0,0,1,6.44,7.43A36.19,36.19,0,0,1,588,65,63.31,63.31,0,0,1,589,75.9a58.74,58.74,0,0,1-1.79,14.57,25.34,25.34,0,0,1-6.44,11.79Q576.09,107,568.16,107a17.16,17.16,0,0,1-10-2.83,19.33,19.33,0,0,1-6.4-7.54,37.14,37.14,0,0,1-3.23-9.93,62.45,62.45,0,0,1-.92-10.8,63.14,63.14,0,0,1,.92-10.83,36.6,36.6,0,0,1,3.23-9.95,19.44,19.44,0,0,1,6.4-7.53,17.23,17.23,0,0,1,10-2.82m0,48.9q7.7,0,7.69-17.77t-7.69-17.77a5.18,5.18,0,0,0-4.45,2.25,14.82,14.82,0,0,0-2.29,6.16,55.91,55.91,0,0,0-.68,9.36,57,57,0,0,0,.66,9.33,14.53,14.53,0,0,0,2.31,6.18,5.24,5.24,0,0,0,4.45,2.26m0-55.9a24.12,24.12,0,0,0-14,4.07A26.35,26.35,0,0,0,545.45,52a44.11,44.11,0,0,0-3.85,11.85,70.93,70.93,0,0,0-1,12,69.42,69.42,0,0,0,1,12,43.86,43.86,0,0,0,3.84,11.8,26.32,26.32,0,0,0,8.7,10.22,24.12,24.12,0,0,0,14,4.07c7.21,0,13.13-2.3,17.58-6.83a32.45,32.45,0,0,0,8.22-15,65.9,65.9,0,0,0,2-16.29,70.57,70.57,0,0,0-1-12.15,43.15,43.15,0,0,0-3.86-11.82,26.4,26.4,0,0,0-8.74-10.08,24.5,24.5,0,0,0-14.17-4.08Zm.1,46a52,52,0,0,1-.52-7.89,51.36,51.36,0,0,1,.52-7.85,42.35,42.35,0,0,1,.59,7.85,43.52,43.52,0,0,1-.59,7.89Z" fill="#fff"/><path d="M481.63,110.5a27.52,27.52,0,0,1-11.37-2.43,21.4,21.4,0,0,1-9-7.42,19.88,19.88,0,0,1-3.48-11.59,19.56,19.56,0,0,1,2.66-9.83,22.42,22.42,0,0,1,3.42-4.54,17.92,17.92,0,0,1-4.6-12.32A22.87,22.87,0,0,1,461,53.13a18,18,0,0,1,5.25-6.84,21.47,21.47,0,0,1,7.46-3.86,30.38,30.38,0,0,1,8.48-1.16,22.12,22.12,0,0,1,15.25,5.52c4.21,3.76,6.35,9,6.35,15.49a18.86,18.86,0,0,1-4.27,11.86,21.08,21.08,0,0,1,3.75,4.72,20.38,20.38,0,0,1,2.39,10.2,20,20,0,0,1-2.14,9.24,20.68,20.68,0,0,1-5.69,6.86,24.63,24.63,0,0,1-7.74,4A28.34,28.34,0,0,1,481.63,110.5ZM482,84a3.7,3.7,0,1,0,3.33,3.68A3.53,3.53,0,0,0,482,84Zm0-23.65a2.88,2.88,0,1,0,2.56,2.86A2.72,2.72,0,0,0,482,60.38Z"/><path d="M482.23,44.77a18.68,18.68,0,0,1,12.92,4.63q5.18,4.62,5.18,12.88a15.14,15.14,0,0,1-1.67,6.88,12.88,12.88,0,0,1-4.3,5,.11.11,0,0,0,0,.18,20.28,20.28,0,0,1,5.91,6.24,16.86,16.86,0,0,1,1.93,8.46,16.34,16.34,0,0,1-1.75,7.63,17.06,17.06,0,0,1-4.72,5.7,21.14,21.14,0,0,1-6.64,3.46,24.75,24.75,0,0,1-7.46,1.15,24,24,0,0,1-9.93-2.12,17.94,17.94,0,0,1-7.56-6.22,16.43,16.43,0,0,1-2.85-9.6,15.93,15.93,0,0,1,2.2-8.09A18.37,18.37,0,0,1,469,74.9a.11.11,0,0,0,0-.18,14.94,14.94,0,0,1-6.26-12.35,19.24,19.24,0,0,1,1.47-7.82A14.6,14.6,0,0,1,468.47,49a18,18,0,0,1,6.26-3.23,26.76,26.76,0,0,1,7.5-1M482,69.61a6.37,6.37,0,1,0-6.06-6.37A6.22,6.22,0,0,0,482,69.61m0,25.28a7.19,7.19,0,1,0-6.84-7.18A7,7,0,0,0,482,94.89m.24-57.12a33.94,33.94,0,0,0-9.46,1.3,25,25,0,0,0-8.67,4.48,21.52,21.52,0,0,0-6.26,8.17,26.24,26.24,0,0,0-2.07,10.65,21.65,21.65,0,0,0,3.6,12.18,25.83,25.83,0,0,0-1.95,2.94,22.88,22.88,0,0,0-3.13,11.57,23.35,23.35,0,0,0,4.1,13.59,24.93,24.93,0,0,0,10.44,8.62,31,31,0,0,0,12.8,2.73,32.09,32.09,0,0,0,9.55-1.47,28.26,28.26,0,0,0,8.84-4.61,24.24,24.24,0,0,0,6.65-8,23.44,23.44,0,0,0,2.53-10.85,23.75,23.75,0,0,0-2.85-11.93,22.64,22.64,0,0,0-2.29-3.29c.3-.49.58-1,.84-1.52a22.09,22.09,0,0,0,2.43-10c0-7.45-2.6-13.71-7.52-18.1a25.52,25.52,0,0,0-17.58-6.41Z" fill="#fff"/><path d="M369.42,110.42a28.85,28.85,0,0,1-15.86-4.71,33.35,33.35,0,0,1-11.39-12.57,38.07,38.07,0,0,1,0-34.57,33.79,33.79,0,0,1,11.4-12.63,28.81,28.81,0,0,1,15.87-4.72,29.57,29.57,0,0,1,5.51.52,3.48,3.48,0,0,1,2.84,3.43V59.28a3.5,3.5,0,0,1-3.5,3.5,3.38,3.38,0,0,1-1.36-.28,8.84,8.84,0,0,0-3.49-.7A9.23,9.23,0,0,0,364,63.62a14.08,14.08,0,0,0-4.36,5.26,15.64,15.64,0,0,0-1.62,7,15.23,15.23,0,0,0,1.66,7A13.51,13.51,0,0,0,364,88.09a8.91,8.91,0,0,0,5.43,1.83,8.68,8.68,0,0,0,3.47-.7,3.49,3.49,0,0,1,4.88,3.21v14a3.5,3.5,0,0,1-2.84,3.44A29.57,29.57,0,0,1,369.42,110.42Z"/><path d="M369.42,44.72a25.89,25.89,0,0,1,4.85.45V59.28a12.36,12.36,0,0,0-4.85-1,12.73,12.73,0,0,0-7.5,2.47,17.71,17.71,0,0,0-5.46,6.54,19.35,19.35,0,0,0-2,8.55,18.81,18.81,0,0,0,2,8.55A17.25,17.25,0,0,0,362,91a12.37,12.37,0,0,0,7.46,2.47,12.16,12.16,0,0,0,4.85-1v14a25.61,25.61,0,0,1-18.81-3.69,29.76,29.76,0,0,1-10.2-11.28,34.53,34.53,0,0,1,0-31.3,30.11,30.11,0,0,1,10.2-11.32,25.29,25.29,0,0,1,14-4.15m0-7A32.29,32.29,0,0,0,351.66,43,37.29,37.29,0,0,0,339.08,56.9a41.57,41.57,0,0,0,0,37.84,36.94,36.94,0,0,0,12.61,13.91,32.29,32.29,0,0,0,17.76,5.27,33.06,33.06,0,0,0,6.16-.58,7,7,0,0,0,5.69-6.88v-14h-7L371.52,86a5.47,5.47,0,0,1-5.43-.71l-.08-.05a10.24,10.24,0,0,1-3.24-3.93,11.94,11.94,0,0,1-1.3-5.45,12.23,12.23,0,0,1,1.27-5.45,10.65,10.65,0,0,1,3.28-4,5.64,5.64,0,0,1,3.4-1.15,5.29,5.29,0,0,1,2.12.43,7,7,0,0,0,9.73-6.45V45.17a7,7,0,0,0-5.69-6.87,33.06,33.06,0,0,0-6.16-.58Z" fill="#fff"/><path id="path3346" d="M596.89,70.61c-.27-.09-.38-1-.38-2.85,0-2.19.09-2.74.48-2.89s3.5-.19,7.17-.19c10.1,0,9.71.42,10-10.84.16-5.34.34-7.86.59-8a11,11,0,0,1,3-.15l2.62.08v8.92c0,7.63-.08,9.09-.52,10a9.79,9.79,0,0,1-7.58,5.84c-1.87.33-14.47.4-15.37.09Zm26.47-.1c-.67-.27-.71-.41-.62-3l.09-2.7,5.39-.16c6-.17,6.95-.46,7.82-2.29.47-1,1.25-15.7.9-17-.11-.42,0-.73.25-.83.71-.26,6.09-.37,5.94-.13a.34.34,0,0,0,.17.43.39.39,0,0,1,.08.56c-.13.2-.23,4.31-.23,9.14,0,8.49,0,8.82-.7,10.17a10.12,10.12,0,0,1-7.11,5.73C633.35,70.89,624.46,71,623.36,70.51ZM664.92,68l.08-2.85,1.85-.18a9.3,9.3,0,0,0,2.46-.51c.83-.46,13.4-13.12,13.39-13.49,0-1-.49-1.07-8.64-1.15l-8.13-.09-.09-2.55a7.14,7.14,0,0,1,.25-3c.27-.33,2-.38,8.86-.26,4.69.09,9,.29,9.49.45,3.33,1,5.08,6.09,3.32,9.6a18.22,18.22,0,0,1-2.38,2.91l-1.88,1.92.8.85c2,2.07,5.79,9.19,5.79,10.73,0,.34-.59.44-2.87.44h-2.87L683.56,69c-1-2.3-3.32-5.87-3.83-5.87a19.51,19.51,0,0,0-3.24,2.94c-3.78,3.88-5.46,4.76-9.08,4.76h-2.58l.09-2.85Zm-20.1-8.31a21.87,21.87,0,0,1,.27-4.91c.12-.12,5.17-.27,11.23-.34,9.88-.11,11-.08,11.28.37a10.47,10.47,0,0,1,.22,3l-.05,2.46-11.46.09-11.47.08,0-.7Zm-47.23-1.12-1.24-.19.11-2.62a12,12,0,0,1,.3-2.83,55.44,55.44,0,0,1,6.37-.29l6.15-.08.09,2.88c.06,2,0,3-.28,3.12-.45.27-9.76.28-11.5,0Zm25.63-1.29c-.48-.28-.51-.84-.34-6.38.12-4,.3-6.15.53-6.3a10.92,10.92,0,0,1,3-.15l2.62.07.06,5.85c0,3.22,0,6.16-.08,6.55-.14.65-.3.69-2.68.68a10.83,10.83,0,0,1-3.07-.32Zm-25.53-7-1.13-.11.05-2.75a7.55,7.55,0,0,1,.36-2.86c.17-.06,3.08-.1,6.46-.08l6.16,0-.11,2.77a19.74,19.74,0,0,1-.25,3c-.14.23-9.39.23-11.54,0Zm-297.76-20a61.36,61.36,0,0,1,1.21-6.95c.75-3.68,1.37-7,1.37-7.3a3.72,3.72,0,0,0-1.07-1.71l-1.07-1.1.6-.81c1.13-1.53,4.23-4.65,4.61-4.65s.54.11,6.31,6.56c2.37,2.65,4.4,4.71,4.52,4.59s.73-2.63,1.36-5.57c.76-3.48,1.31-5.39,1.6-5.5.86-.33,5.08,2.12,4.82,2.79a4.56,4.56,0,0,1-1.69,1.14,8.41,8.41,0,0,0-1.85,1.09c-.17.21-1.07,4-2,8.34-2,9.47-1.88,9-2.61,9s-1.69-1.08-7.37-7.49c-2.08-2.34-3.88-4.14-4-4a44.48,44.48,0,0,0-1.54,6.69c0,.22.55.77,1.23,1.22,1.86,1.24,1.66,1.8-1.06,2.93C300.94,30.54,300.2,30.69,299.93,30.25Zm50.41-.06a10.92,10.92,0,0,1-5.12-4c-1.91-2.88-2.16-6-.76-9.78,1.73-4.65,9.33-9.18,14.92-8.89l1.78.09,1,2c1.45,3,1.49,3.27.59,3.86a5.63,5.63,0,0,1-2,.67c-1.19.16-1.22.13-2.48-1.72-.85-1.25-1.49-1.88-1.9-1.88-1.13,0-3.57,1.49-5,3-2.21,2.47-2.56,4.81-1.11,7.43,1.63,2.94,4.8,3.43,9.13,1.39,2.06-1,2.61-1.12,2.82-.78.38.6-3.15,7.53-4.17,8.2S351.89,30.67,350.34,30.19Zm226.17-.28c-.37-.69-.43-3.61-.09-3.82.13-.08,2.51-.25,5.3-.37,4.71-.21,5.1-.28,5.77-.94s1-3,.36-3.38a21.85,21.85,0,0,0-4-.16c-4.24.06-4.39,0-4.25-2.48l.09-1.64,3.89-.19a27,27,0,0,0,4.23-.41c.43-.26.45-2.78,0-3.58-.29-.54-.68-.6-4.31-.6-4.62,0-4.51-.06-5.37,3.39s-.86,3.39-2.54,3.38c-2.16,0-2.86-.26-2.86-1.05a49.79,49.79,0,0,1,2.61-9,3.14,3.14,0,0,1,1.22-1,57.86,57.86,0,0,1,7.14-.35c7-.09,7.64,0,8.86,1.67.6.82.65,1.33.74,8.15.11,8.34-.06,9.18-2.13,11-1.66,1.41-2.94,1.68-9.11,1.87-5,.16-5.32.14-5.62-.43ZM321.37,30c-1.34-.18-1.26-.61.21-1.21s1.53-.87,2.33-5.05c.27-1.43.57-2.85.65-3.15s-.08-.63-.63-.84c-1-.39-1-.68.2-1.24.93-.44,1-.63,1.68-3.69.9-4.22.89-4.61-.13-5.43-.47-.37-.73-.79-.59-.93a89.9,89.9,0,0,1,9.46-.37c8.08-.09,9.24,0,9.39.37a12,12,0,0,1-.38,3.18c-.43,2.06-.69,2.73-1.11,2.81a.62.62,0,0,1-.71-.46c-1.09-3.41-1.91-4.1-4.87-4.09a8.72,8.72,0,0,0-2.62.27c-.5.32-1.92,7.13-1.56,7.52s2.8-.82,3.82-1.91c1.69-1.8,2.36-1.18,1.73,1.59-.16.71-.52,2.37-.79,3.68-.6,2.87-1.09,3.05-2.46.91-.94-1.46-2.35-2.3-2.91-1.74a36.6,36.6,0,0,0-1.66,7.6c.2.33,4.21.3,5.09,0a12.93,12.93,0,0,0,4.06-4c.5-1,1.21-1.29,1.56-.72a14.34,14.34,0,0,1-.48,3.38c-.47,2.21-.8,3.14-1.16,3.24-.71.19-16.92.45-18.12.28Zm42.92,0a10.93,10.93,0,0,1,0-4.3,4,4,0,0,1,1.33-.81,4.77,4.77,0,0,0,1.77-1.39c.63-.88.66-1.26.66-7.75a45,45,0,0,1,.32-7.42c.27-.49.66-.59,2.23-.59A7,7,0,0,1,373,8c.37.24.45,1.57.46,7.92v7.64l-.87,1.77a8.86,8.86,0,0,1-4.81,4.38c-1.37.49-3.15.62-3.5.26Zm19-.52a9.53,9.53,0,0,1-2.68-2c-2-2.28-2.16-3.28-2.31-11.28-.09-5,0-7.32.22-7.79s.57-.65,2.72-.57l2.37.09.15,7.29c.19,8.7.09,8.45,3.7,10.11.49.23.8,2.92.47,4.21-.15.62-.37.71-1.63.71a7.94,7.94,0,0,1-3-.73Zm69.87.31a11.74,11.74,0,0,1-.07-2.51c.09-2.06.11-2.1,1.08-2.43,2.09-.71,2.08-.64,2.25-9l.15-7.61,2.11-.29c3.29-.44,3.11-.88,3.21,7.84.06,6.08,0,7.8-.4,9.15a7.34,7.34,0,0,1-4.79,4.83c-2,.59-3.33.61-3.54.06Zm24.11.23c-.41-.4-.27-4.73.16-4.78.21,0,3.22-.13,6.69-.23l6.31-.19V13.11L483.84,13l-6.62-.15-.1-2.13a6.58,6.58,0,0,1,.16-2.37,76.13,76.13,0,0,1,8.27-.3c8.79,0,8.89,0,10,1.78.56.88.63,1.72.8,8.78.22,8.84.11,9.5-1.65,10.71-1.12.76-1.17.77-9.17.86a77.7,77.7,0,0,1-8.25-.13Zm20.32,0a7.81,7.81,0,0,1-.23-2.44V25.36l1.89-.2c1-.11,3.88-.19,6.31-.19H510l1-.9,1-.9.16-6.66c.12-5.46.23-6.7.61-6.94.6-.38,4.53-.39,4.76,0,.1.15.2,3.38.23,7.16,0,6.31,0,7-.58,8.27A8.26,8.26,0,0,1,513,29.31c-1.52.68-2.06.73-8.4.83a55.44,55.44,0,0,1-7-.12Zm25.69-.29a6.63,6.63,0,0,1-3.52-3c-.65-1.23-.68-1.64-.69-9.68,0-7.14.06-8.45.46-8.7a8.29,8.29,0,0,1,2.77-.22l2.31.08.08,1.54c.16,3.2-.46,2.92,6.55,2.92h6.17l-.09,2.23-.09,2.24-6.16.17c-3.39.1-6.2.2-6.26.23a25.18,25.18,0,0,0,0,3.28c.15,4.53-.26,4.28,7.42,4.47l6.23.16.09,2.13c.07,1.49,0,2.2-.31,2.38a55.75,55.75,0,0,1-7.17.24C525.88,30.18,524.08,30.07,523.3,29.73Zm17.26.27c-.43-.18-.54-3.39-.14-4,.15-.23,1.26-.41,3-.46l2.76-.09.1-1.61c.13-2.39-.23-2.86-2.22-2.86s-2.42-.41-2.31-2.06c.14-2.07.36-2.25,2.68-2.22,3.82,0,5.3.39,6.27,1.47.82.92.87,1.14.87,3.72,0,3.67,0,3.71,2,3.71,1.32,0,1.72.12,2,.6.44.81.41,3.2,0,3.65-.27.27-2.33.36-7.46.35-3.91,0-7.27-.1-7.48-.18Zm-130.07-.28c-.4-.41-.27-4.34.16-4.69a21.66,21.66,0,0,1,4.9-.42c4.32-.1,4.55-.14,5.35-.88,1.3-1.2,1.59-2.25,2.49-9a41,41,0,0,1,1.17-6.5A10.42,10.42,0,0,1,427.27,8h2.38V8.9c0,.48-.21,2.45-.47,4.39s-.67,5.14-.92,7.13a28.8,28.8,0,0,1-.82,4.46A9.37,9.37,0,0,1,423.58,29c-1.34.66-1.95.73-7.16.83a40.06,40.06,0,0,1-5.93-.12Zm22.86-2.25V25h1.86a9.56,9.56,0,0,0,2.88-.43c1.79-.75,2-1.41,2-5.65V15.11h-4a22,22,0,0,1-4.62-.31c-.5-.27-.59-.66-.59-2.43,0-2.56-.18-2.48,5.24-2.48H440l.3-1,.29-1h4.87L445.82,9l.36,1.08,4.28.15,4.28.15V15h-4.2a26.65,26.65,0,0,0-4.41.2,26.27,26.27,0,0,0-.32,4.25c-.15,4.68-.57,6-2.57,8-1.76,1.75-3.05,2.22-6.74,2.42l-3.15.17V27.47ZM466,29.1l-.75-.8-.09-10c-.09-10-.09-10,.58-10.32s4.37-.31,4.72,0c.08.08.17,3.12.21,6.76s.14,7.3.24,8.14c.21,1.75.23,1.75,3.81,1.26l1.77-.25v2.31c0,1.57-.14,2.42-.42,2.65-.53.44-4.28.94-7.15.95-1.95,0-2.26-.07-2.92-.78Zm86.65-8.31a9.23,9.23,0,0,1,.32-4.07c.27-.27,17.17-.5,18.2-.24.71.18.75.31.75,2.45v2.26l-1,.2c-.53.1-4.82.19-9.54.19H552.8ZM393.7,21,389.3,21l.09-2.37.09-2.36,1-.2c.53-.11,4.78-.13,9.46,0l8.51.15v2.39c0,1.89-.1,2.43-.48,2.57S403.42,21.25,393.7,21Zm16.13-2.77a79.32,79.32,0,0,1-1.06-9.5c.1-.89.11-.89,2.49-1,1.74-.07,2.43,0,2.54.31.23.63,1.39,8.8,1.39,9.8v.91h-2.6c-2.21,0-2.62-.08-2.76-.54Zm129.82-3.9c-3.21-1.45-2.11-6.46,1.51-6.87a3.5,3.5,0,0,1,4.15,4A4,4,0,0,1,539.65,14.37Zm2.92-3.13a1.28,1.28,0,0,0-.38-1,1,1,0,0,0-1.39,1.39,1,1,0,0,0,1.77-.35ZM386.25,14a3.85,3.85,0,0,1-2-3.8c.89-4.08,6.81-4.3,7.7-.29a3.89,3.89,0,0,1-5.7,4.09Zm2.61-3.33c0-.7-.14-.92-.58-.92a1.14,1.14,0,0,0-1,1.52.77.77,0,0,0,.9.42c.54-.07.69-.3.69-1Zm108.77,2.21a4.06,4.06,0,0,1-.39-2.38c0-1.93.05-2,1-2.21a41.25,41.25,0,0,1,5.67-.17l4.7.09v4.92l-5.28.09C499.19,13.26,498,13.19,497.63,12.86ZM700.2,46.21a2.44,2.44,0,1,1-2.44-2.44A2.44,2.44,0,0,1,700.2,46.21Zm-5.83,0a2.44,2.44,0,1,1-2.44-2.44A2.44,2.44,0,0,1,694.37,46.21Z"/><path d="M315.54,84.16V71.55h2.16a9.19,9.19,0,0,0,5.88-1.66,5.8,5.8,0,0,0,2.06-4.8,5.64,5.64,0,0,0-2.06-4.69,9.25,9.25,0,0,0-5.88-1.64h-4v47.49l-13.91,0V46.15h16.91a43,43,0,0,1,9.64.94,18.9,18.9,0,0,1,7,3.1,13.8,13.8,0,0,1,4.55,5.91,23.22,23.22,0,0,1,1.59,9.07,18.9,18.9,0,0,1-1.59,7.88,17.15,17.15,0,0,1-4.43,6,20.32,20.32,0,0,1-6.74,3.79,25.08,25.08,0,0,1-8.17,1.34Z"/><path d="M376.74,78.69V70.16h31.73v8.53Z"/><path d="M437.53,105.66,421,105.53q7.93-8.13,11.78-12.34a65.31,65.31,0,0,0,6.72-8.65l-.16-.17a11.08,11.08,0,0,1-4.42.8,15.86,15.86,0,0,1-9-2.56A16.92,16.92,0,0,1,420,75.67a22.07,22.07,0,0,1-2.09-9.62,23.73,23.73,0,0,1,2.53-11.14,18,18,0,0,1,7.18-7.5,20.94,20.94,0,0,1,10.55-2.64,22.1,22.1,0,0,1,10.94,2.7,18.77,18.77,0,0,1,7.52,7.67,24.1,24.1,0,0,1,2.67,11.59,36,36,0,0,1-5.82,19.53A116.32,116.32,0,0,1,437.53,105.66Zm8.65-39.77a7.93,7.93,0,0,0-1-4A8.06,8.06,0,0,0,442.35,59a7.25,7.25,0,0,0-3.87-1.09,6.9,6.9,0,0,0-5.26,2.35,8.09,8.09,0,0,0-2.15,5.66A9.1,9.1,0,0,0,432,70a7.35,7.35,0,0,0,2.68,3,6.86,6.86,0,0,0,3.78,1.09A7.21,7.21,0,0,0,444,71.67,8.15,8.15,0,0,0,446.18,65.89Z"/><path d="M524.77,44.77A17.59,17.59,0,0,1,535,47.62a19.31,19.31,0,0,1,6.44,7.43A35.86,35.86,0,0,1,544.65,65a62.33,62.33,0,0,1,.94,10.93,58.74,58.74,0,0,1-1.8,14.57,25.26,25.26,0,0,1-6.44,11.79Q532.71,107,524.77,107a17.13,17.13,0,0,1-10-2.83,19.25,19.25,0,0,1-6.4-7.54,36.79,36.79,0,0,1-3.23-9.93,61.48,61.48,0,0,1-.92-10.8,62.15,62.15,0,0,1,.92-10.83,36.26,36.26,0,0,1,3.23-9.95,19.36,19.36,0,0,1,6.4-7.53A17.2,17.2,0,0,1,524.77,44.77Zm0,13.36a5.17,5.17,0,0,0-4.44,2.25A14.68,14.68,0,0,0,518,66.54a54.87,54.87,0,0,0-.68,9.36,57,57,0,0,0,.66,9.33,14.4,14.4,0,0,0,2.31,6.18,5.21,5.21,0,0,0,4.44,2.26q7.69,0,7.7-17.77T524.77,58.13Z"/><path d="M568.16,44.77a17.61,17.61,0,0,1,10.21,2.85,19.39,19.39,0,0,1,6.44,7.43A36.19,36.19,0,0,1,588,65,63.31,63.31,0,0,1,589,75.9a58.74,58.74,0,0,1-1.79,14.57,25.34,25.34,0,0,1-6.44,11.79Q576.09,107,568.16,107a17.16,17.16,0,0,1-10-2.83,19.33,19.33,0,0,1-6.4-7.54,37.14,37.14,0,0,1-3.23-9.93,62.45,62.45,0,0,1-.92-10.8,63.14,63.14,0,0,1,.92-10.83,36.6,36.6,0,0,1,3.23-9.95,19.44,19.44,0,0,1,6.4-7.53A17.23,17.23,0,0,1,568.16,44.77Zm0,13.36a5.18,5.18,0,0,0-4.45,2.25,14.82,14.82,0,0,0-2.29,6.16,55.91,55.91,0,0,0-.68,9.36,57,57,0,0,0,.66,9.33,14.53,14.53,0,0,0,2.31,6.18,5.24,5.24,0,0,0,4.45,2.26q7.7,0,7.69-17.77T568.16,58.13Z"/><path d="M462.77,62.37a19.24,19.24,0,0,1,1.47-7.82A14.6,14.6,0,0,1,468.47,49a18,18,0,0,1,6.26-3.23,26.76,26.76,0,0,1,7.5-1,18.68,18.68,0,0,1,12.92,4.63q5.18,4.62,5.18,12.88a15.14,15.14,0,0,1-1.67,6.88,12.88,12.88,0,0,1-4.3,5,.11.11,0,0,0,0,.18,20.28,20.28,0,0,1,5.91,6.24,16.86,16.86,0,0,1,1.93,8.46,16.34,16.34,0,0,1-1.75,7.63,17.06,17.06,0,0,1-4.72,5.7,21.14,21.14,0,0,1-6.64,3.46,24.75,24.75,0,0,1-7.46,1.15,24,24,0,0,1-9.93-2.12,17.94,17.94,0,0,1-7.56-6.22,16.43,16.43,0,0,1-2.85-9.6,15.93,15.93,0,0,1,2.2-8.09A18.37,18.37,0,0,1,469,74.9a.11.11,0,0,0,0-.18A14.94,14.94,0,0,1,462.77,62.37ZM482,56.88a6.37,6.37,0,1,0,6.06,6.36A6.22,6.22,0,0,0,482,56.88Zm0,23.65a7.19,7.19,0,1,0,6.83,7.18A7,7,0,0,0,482,80.53Z"/><path d="M374.27,59.28a12.36,12.36,0,0,0-4.85-1,12.73,12.73,0,0,0-7.5,2.47,17.71,17.71,0,0,0-5.46,6.54,19.35,19.35,0,0,0-2,8.55,18.81,18.81,0,0,0,2,8.55A17.25,17.25,0,0,0,362,91a12.37,12.37,0,0,0,7.46,2.47,12.16,12.16,0,0,0,4.85-1v14a25.61,25.61,0,0,1-18.81-3.69,29.76,29.76,0,0,1-10.2-11.28,34.53,34.53,0,0,1,0-31.3,30.11,30.11,0,0,1,10.2-11.32,25.29,25.29,0,0,1,14-4.15,25.89,25.89,0,0,1,4.85.45Z"/></g><g id="Layer_3" data-name="Layer 3"><rect x="367.57" y="83.9" width="11.17" height="8.5" fill="#fff"/><rect x="374.45" y="88.15" width="4.96" height="9.03" fill="#fff"/></g></svg>