<svg xmlns="http://www.w3.org/2000/svg" viewBox="0 0 1000 114"><title>logo_right</title><g id="Layer_2" data-name="Layer 2"><rect x="808.03" y="63.24" width="17.23" height="33.43" fill="#fff"/><rect x="853.54" y="63.24" width="18.49" height="28.5" fill="#fff"/><rect x="603.15" y="63.24" width="13.85" height="7.59" fill="#fff"/><rect x="603.15" y="63.24" width="13.85" height="7.59" fill="#fff"/><rect x="650.15" y="57" width="17.78" height="38.46" fill="#fff"/><rect x="726.15" y="58.13" width="14.11" height="15.32" fill="#fff"/><rect x="647.26" y="53.34" width="26.78" height="44.33" fill="#fff"/></g><g id="svg3336"><path d="M680.91,17.94a7.54,7.54,0,0,1-3.47-.85,7.31,7.31,0,0,1-3.81-7.66,7.53,7.53,0,0,1,7.43-5.93,7.17,7.17,0,0,1,5.7,11.64,7.57,7.57,0,0,1-5.85,2.8Z"/><path d="M681.06,7a3.62,3.62,0,0,1,3.68,2.89,3.81,3.81,0,0,1-3.83,4.55,4.12,4.12,0,0,1-1.86-.46,3.84,3.84,0,0,1-2-3.8,4,4,0,0,1,4-3.18m-.27,4.69.18,0c.54-.07.69-.3.69-1s-.14-.92-.58-.92a1.14,1.14,0,0,0-1,1.52.72.72,0,0,0,.72.44M681.06,0a11,11,0,0,0-10.85,8.68,10.81,10.81,0,0,0,5.63,11.52,11,11,0,0,0,13.65-2.86A10.67,10.67,0,0,0,681.06,0Z" fill="#fff"/><path d="M697.56,24.71c-2.26,0-5.79-.05-11.14-.17l-4.4-.09a3.5,3.5,0,0,1-3.42-3.64l.18-4.73a3.49,3.49,0,0,1,2.8-3.29l1-.2a26.65,26.65,0,0,1,4.83-.17c1.57,0,3.45,0,5.39.06l8.51.14a3.5,3.5,0,0,1,3.44,3.5v2.39c0,1.91,0,4.8-2.74,5.84C701.26,24.63,700.59,24.71,697.56,24.71Z"/><path d="M687.36,15.92c1.56,0,3.41,0,5.34.05l8.51.15v2.39c0,1.89-.1,2.43-.49,2.57a17.12,17.12,0,0,1-3.16.13c-2.27,0-5.85-.06-11.06-.17L682.1,21l.09-2.37.09-2.36,1-.2c.31-.06,1.91-.1,4.12-.1m0-7c-4.36,0-4.9.11-5.52.24l-1,.2a7,7,0,0,0-5.6,6.59l-.09,2.37-.09,2.36A7,7,0,0,0,682,28l4.4.09c5.36.12,8.93.17,11.21.17,3,0,4.27-.05,5.67-.59,5-1.91,5-7,5-9.11V16.12a7,7,0,0,0-6.88-7L692.82,9c-1.91,0-3.79-.06-5.46-.06Z" fill="#fff"/><path d="M726.15,33.48a3.5,3.5,0,0,1-3.5-3.5V25a3.49,3.49,0,0,1,3.5-3.5H728a8.24,8.24,0,0,0,1.35-.13c0-.51.07-1.33.07-2.45v-.28h-.52c-4.9,0-5.79-.47-6.27-.73-2.45-1.31-2.45-3.74-2.45-5.51v-.23a5.53,5.53,0,0,1,1.34-4.25c1.49-1.5,3.19-1.5,6.92-1.5h1.78a3.5,3.5,0,0,1,3.16-2h4.87a3.52,3.52,0,0,1,3.27,2.24l6.15.23A3.49,3.49,0,0,1,751,10.34V15a3.5,3.5,0,0,1-3.5,3.5h-5.4c0,.32,0,.67,0,1.05-.16,5.15-.73,7.49-3.59,10.35-2.65,2.65-5,3.22-9,3.43l-3.15.18Z"/><path d="M738.25,7.88,738.61,9,739,10l4.28.15,4.28.15V15h-4.21a26.58,26.58,0,0,0-4.4.2,25.65,25.65,0,0,0-.33,4.25c-.15,4.68-.56,6-2.56,8-1.76,1.75-3.06,2.22-6.74,2.42l-3.15.17V27.47h0V25H728a9.64,9.64,0,0,0,2.89-.43c1.79-.75,2-1.41,2-5.65V15.11h-4a22,22,0,0,1-4.62-.31c-.5-.27-.6-.66-.6-2.43,0-2.56-.17-2.48,5.25-2.48h3.86l.3-1,.29-1h4.87m0-7h-4.87a7,7,0,0,0-4.9,2h-.05c-4,0-6.87,0-9.39,2.52a8.85,8.85,0,0,0-2.36,6.74v.22c0,1.82,0,6,3.89,8.37A7,7,0,0,0,719.15,25v5a7,7,0,0,0,7,7h.37l3.16-.17c4.69-.25,7.89-1,11.31-4.46,3.15-3.16,4.15-6.06,4.49-10.38h2.06a7,7,0,0,0,7-7V10.34a7,7,0,0,0-6.75-7l-4.28-.16h-.06a7,7,0,0,0-5.2-2.31Z" fill="#fff"/><path d="M593.23,34a4,4,0,0,1-3.48-1.89c-.76-1.22-.89-1.44.76-9.5.54-2.65,1-4.75,1.16-5.93l-1-1a3.5,3.5,0,0,1-.3-4.53l.6-.8c.75-1,4.64-6.07,7.42-6.07,2,0,2,0,8.91,7.72,1.06-4.87,1.61-6.64,3.63-7.41a3.89,3.89,0,0,1,1.45-.26c2.3,0,6.26,2.34,7.41,4a3.81,3.81,0,0,1,.48,3.56c-.2.52-.67,1.73-3.48,3.05l-.35.17c-.33,1.29-.9,3.72-1.55,6.81l-.26,1.2c-.81,3.87-1.23,5.82-1.54,6.94-.67,2.44-2,3.67-4.06,3.67h-.18c-1.91,0-2.84-.68-7-5.3-.3,2.67-2.86,3.75-4.4,4.39A11.47,11.47,0,0,1,593.23,34Z"/><path d="M598.38,7.73c.43,0,.54.11,6.31,6.56a37.48,37.48,0,0,0,4.5,4.59h0a53.16,53.16,0,0,0,1.37-5.56c.76-3.49,1.31-5.4,1.6-5.51a.56.56,0,0,1,.2,0c1.17,0,4.86,2.19,4.62,2.82a4.56,4.56,0,0,1-1.69,1.14,8.41,8.41,0,0,0-1.85,1.09c-.17.21-1.07,4-2,8.34-1.83,8.67-1.88,9-2.43,9h-.17c-.63,0-1.69-1.08-7.37-7.49a26.5,26.5,0,0,0-4-4s0,0,0,0a44.48,44.48,0,0,0-1.54,6.69c0,.22.55.77,1.23,1.22,1.86,1.24,1.66,1.8-1.06,2.93a9.53,9.53,0,0,1-2.87.93.55.55,0,0,1-.51-.23,65.66,65.66,0,0,1,1.22-6.95c.75-3.68,1.37-7,1.37-7.3a3.72,3.72,0,0,0-1.07-1.71l-1.07-1.1.6-.81c1.13-1.53,4.23-4.65,4.61-4.65m0-7c-3.21,0-5.22,2-7,3.83a39.49,39.49,0,0,0-3.24,3.65l-.59.81a7,7,0,0,0,.35,8.77c-.21,1.07-.48,2.46-.82,4.1-1.6,7.79-1.93,9.42-.31,12a7.51,7.51,0,0,0,6.46,3.55A14.09,14.09,0,0,0,598.79,36a14.6,14.6,0,0,0,3.55-2,9.21,9.21,0,0,0,6.43,3.16H609c1.72,0,5.89-.61,7.44-6.24.34-1.23.73-3.08,1.59-7.14l.25-1.2c.46-2.14.85-3.89,1.15-5.15a8.26,8.26,0,0,0,4.07-4.36,7.34,7.34,0,0,0-.85-6.79C620.94,3.81,616,.78,612.37.78h0a7.52,7.52,0,0,0-2.71.49A7,7,0,0,0,605.71,5c-.47-.51-.83-.9-1.13-1.21a8.25,8.25,0,0,0-6.2-3Z" fill="#fff"/><path d="M645.77,33.93a11.76,11.76,0,0,1-3.67-.4,14.21,14.21,0,0,1-7-5.44c-2.53-3.8-2.91-8.16-1.13-12.94C636.15,9.3,644.58,4,651.66,4h.7l1.78.1a3.5,3.5,0,0,1,3,2l1,2c1.36,2.81,2.9,6-.63,8.31A9.07,9.07,0,0,1,654,17.57a8.44,8.44,0,0,1-1.11.09c-2.37,0-3.47-1.45-4.57-3.06a8.06,8.06,0,0,0-1.53,1.28c-1.47,1.63-1.23,2.37-.66,3.4a1.34,1.34,0,0,0,1.39.82,7.77,7.77,0,0,0,3.19-.91c1.92-.9,2.89-1.28,4-1.28A3.87,3.87,0,0,1,658,19.73c1.12,1.83.47,3.79-1.42,7.51-2.27,4.45-3.31,5.14-3.81,5.46-1.63,1.07-5.09,1.23-7,1.23Z"/><path d="M651.66,7.47h.52l1.78.09,1,2c1.46,3,1.5,3.27.6,3.86a5.63,5.63,0,0,1-2,.67,4.22,4.22,0,0,1-.64.06c-.62,0-.86-.33-1.84-1.78-.85-1.25-1.49-1.88-1.9-1.88-1.13,0-3.57,1.49-5,3C642,16,641.63,18.35,643.08,21a4.79,4.79,0,0,0,4.45,2.63,11.24,11.24,0,0,0,4.68-1.24,8.26,8.26,0,0,1,2.49-.95.34.34,0,0,1,.33.17c.37.6-3.15,7.53-4.17,8.2-.61.4-3,.65-5.09.65a10.35,10.35,0,0,1-2.63-.24,10.88,10.88,0,0,1-5.12-4c-1.91-2.88-2.16-6-.76-9.78,1.67-4.51,8.87-8.9,14.4-8.9m0-7c-8.5,0-18.3,6.29-21,13.46-2.2,5.89-1.69,11.31,1.49,16.1a17.8,17.8,0,0,0,8.88,6.85,15.26,15.26,0,0,0,4.7.55c6.18,0,8.25-1.35,8.93-1.8,1.12-.73,2.53-1.93,5-6.81,1.61-3.16,3.61-7.1,1.29-10.89a7.74,7.74,0,0,0,2-6.59,16.89,16.89,0,0,0-1.79-4.81l-1-2A7,7,0,0,0,654.32.58L652.54.49c-.29,0-.59,0-.88,0Z" fill="#fff"/><path d="M658,33.69a4.73,4.73,0,0,1-3.41-1.22c-1.84-1.84-1.29-7.35-.43-8.68a6.13,6.13,0,0,1,2.93-2.14l.18-.14c.09-.89.09-3.37.09-5.77,0-7.7.34-8.33.73-9.07,1.31-2.44,3.77-2.44,5.24-2.44,3,0,4,.61,4.32.83,2.07,1.31,2.07,2.77,2.09,10.88v7.63a3.46,3.46,0,0,1-.36,1.55l-.87,1.77A12.36,12.36,0,0,1,661.75,33,11.69,11.69,0,0,1,658,33.69Z"/><path d="M663.35,7.73h.08A7,7,0,0,1,665.8,8c.37.24.45,1.57.46,7.92v7.64l-.87,1.77a8.86,8.86,0,0,1-4.81,4.38,8.35,8.35,0,0,1-2.57.47,1.43,1.43,0,0,1-.93-.21h0a10.93,10.93,0,0,1,0-4.3,4,4,0,0,1,1.33-.81,4.77,4.77,0,0,0,1.77-1.39c.63-.88.66-1.26.66-7.75a45,45,0,0,1,.32-7.42c.26-.48.64-.59,2.15-.59m0-7c-1.66,0-6,0-8.31,4.29-.78,1.45-1.15,2.51-1.15,10.72,0,1.2,0,2.57,0,3.65a8.14,8.14,0,0,0-2.63,2.51c-1,1.48-1.33,3.1-1.35,6,0,2.44.14,5,2.25,7.09A8,8,0,0,0,658,37.2a15.34,15.34,0,0,0,4.9-.87,16,16,0,0,0,8.77-7.9l.86-1.76a7,7,0,0,0,.72-3.1V15.93c0-3.62,0-5.42-.11-6.65-.09-1.52-.3-5.08-3.61-7.18-.65-.4-2.16-1.36-6.09-1.37h-.11Z" fill="#fff"/><path d="M679.11,33.7a11.41,11.41,0,0,1-4.49-1.06,13,13,0,0,1-3.85-2.93c-2.85-3.33-3-5.55-3.15-13.5-.14-7.38,0-8.42.63-9.5a4.74,4.74,0,0,1,4.62-2.45l1.32,0,2.37.09a3.5,3.5,0,0,1,3.37,3.43l.16,7.9a50.06,50.06,0,0,0,.29,5.74c.26.15.72.35,1.1.53l.26.12c3.65,1.68,2.42,8.18,2.41,8.24-.85,3.36-4,3.36-5,3.36Z"/><path d="M672.87,7.76l1.19,0,2.37.09.15,7.29c.19,8.7.09,8.45,3.7,10.11.49.23.8,2.92.47,4.21-.15.61-.36.71-1.58.71h0a8,8,0,0,1-3-.73h0a9.48,9.48,0,0,1-2.67-2c-2-2.28-2.17-3.28-2.31-11.28-.1-5,0-7.32.22-7.79s.45-.6,1.53-.6m0-7c-3.59,0-6.18,1.45-7.7,4.3-1,1.93-1.19,3.61-1,11.22s.21,11.29,4,15.71a16.26,16.26,0,0,0,5,3.82,14.76,14.76,0,0,0,6,1.39h.07c6.19,0,7.92-4.2,8.37-6,0-.09,1.92-8.86-3.85-12,0-1-.07-2.22-.1-3.52V15l-.15-7.29A7,7,0,0,0,676.69.89L674.32.8c-.59,0-1.07,0-1.45,0Z" fill="#fff"/><path d="M840.82,33.68c-7.76,0-8.14-.18-8.77-.44a3.84,3.84,0,0,1-2.21-2.47c-.27-.84-.85-4.66.42-6.67a3.72,3.72,0,0,1,1.81-1.48,5.55,5.55,0,0,1-1-4c.26-3.85,2-5.49,5.82-5.49h.38c3.71,0,6.72.26,8.85,2.64,1.69,1.89,1.76,3.22,1.76,6.05v.29a4.52,4.52,0,0,1,3.58,2.37c.87,1.63,1.29,5.82-.66,7.77-1.27,1.27-2.6,1.38-8.82,1.38Z"/><path d="M836.88,16.67h.33c3.83,0,5.31.39,6.28,1.47.82.92.87,1.14.87,3.72,0,3.67,0,3.71,2,3.71,1.32,0,1.72.12,2,.6.44.81.4,3.2-.05,3.65-.25.25-2,.35-6.34.35h-1.13c-3.9,0-7.26-.1-7.48-.18h0c-.42-.18-.53-3.39-.13-4,.14-.23,1.26-.41,3-.46l2.76-.09.1-1.61c.13-2.39-.23-2.86-2.23-2.86s-2.41-.41-2.3-2.06c.14-2,.34-2.23,2.34-2.23m0-7c-5.62,0-8.93,3.11-9.32,8.75a10.42,10.42,0,0,0,.22,3.15,6.35,6.35,0,0,0-.47.65c-2.15,3.38-1.18,8.45-.8,9.62a7.29,7.29,0,0,0,4.22,4.65c1.26.5,1.64.66,10.08.69H842c6.29,0,8.89,0,11.29-2.4,3.21-3.21,2.79-9.08,1.27-11.91a7.58,7.58,0,0,0-3.21-3.24,9.44,9.44,0,0,0-2.6-6.14c-3.07-3.44-7.16-3.77-11.42-3.81Z" fill="#fff"/><path d="M775.18,33.66c-5.55,0-6.4,0-7.58-1.18-2.26-2.26-.82-8.15-.8-8.2a3.65,3.65,0,0,1,3.06-2.53c.5-.05,5-.19,7-.25l2.91-.09V16.53l-9.82-.22A3.5,3.5,0,0,1,766.52,13l-.09-2.13c-.12-2.71.19-4,1.18-5s1.25-1.26,10.72-1.32h3.26c5.65,0,7.71.17,9.74,3.43,1.12,1.8,1.16,3.3,1.33,10.55.22,8.93.27,11.33-3.18,13.69-2,1.36-2.52,1.37-11.1,1.47Z"/><path d="M781.59,8c5.6,0,5.8.23,6.77,1.79.55.88.63,1.72.8,8.78.21,8.84.11,9.5-1.65,10.71-1.13.76-1.18.77-9.17.86l-3.14,0a42.25,42.25,0,0,1-5.12-.15h0c-.4-.4-.26-4.73.17-4.78.21,0,3.22-.13,6.69-.23l6.31-.19V13.11L776.63,13,770,12.81l-.09-2.13a6.58,6.58,0,0,1,.16-2.37,76.13,76.13,0,0,1,8.27-.3h3.24m0-7h-3.28c-9.24.06-10.9.07-13.18,2.35s-2.31,5.11-2.2,7.62l.09,2.13a7,7,0,0,0,3.88,6,7.23,7.23,0,0,0-3.4,4c0,.07-2.34,7.87,1.63,11.84,2.2,2.2,4,2.2,10.07,2.2l3.22,0c9-.11,10.15-.12,13-2.08,5-3.43,4.93-7.3,4.71-16.66-.19-7.85-.23-9.71-1.86-12.32C791.14,1,787.13,1,781.59,1Z" fill="#fff"/><path d="M794.56,33.67c-4.4,0-5.45,0-6.62-1.17-1-1-1.26-2.15-1.26-4.93V25.36a3.5,3.5,0,0,1,3.13-3.48l1.9-.2c1.3-.13,4.41-.21,6.67-.21h3l.12-5c.16-6.89.19-8.53,2.24-9.82.46-.29,1.32-.83,4.46-.83,2.08,0,4,.14,5.14,1.93.55.88.69,1.12.75,9,.05,6.43,0,7.7-.88,9.73a11.76,11.76,0,0,1-5.93,6.09c-2.21,1-3.34,1-9.77,1.14Z"/><path d="M808.16,9.28a5,5,0,0,1,2.17.27c.09.15.2,3.38.22,7.16.05,6.31,0,7-.57,8.27a8.27,8.27,0,0,1-4.18,4.33c-1.51.68-2.06.73-8.39.83l-2.84,0a28,28,0,0,1-4.16-.15h0a7.81,7.81,0,0,1-.23-2.44V25.36l1.89-.2c1-.11,3.88-.19,6.31-.19h4.41l1-.9,1-.9.16-6.66c.12-5.46.23-6.7.61-6.94a7.5,7.5,0,0,1,2.59-.29m0-7c-2.95,0-4.78.39-6.32,1.37-3.22,2-3.53,5.5-3.64,6.81-.11,1.14-.17,2.74-.24,5.89l0,1.62c-2.31,0-5.19.09-6.58.23l-1.89.2a7,7,0,0,0-6.27,7v2.22c0,2.58.17,5.28,2.28,7.39s4.36,2.2,9.11,2.2l2.95,0c6.48-.1,8.22-.13,11.15-1.45a15.18,15.18,0,0,0,7.7-7.85c1.25-2.79,1.23-4.57,1.18-11.19-.06-8.09-.16-9-1.27-10.78-2.22-3.59-6.21-3.59-8.12-3.59Z" fill="#fff"/><path d="M793.82,16.72c-2.78,0-4.54-.07-5.86-1.38s-1.45-3.21-1.42-4.91c0-2,.07-4.63,3.63-5.55.31-.08,1.13-.29,5-.29h1.61l4.7.09a3.5,3.5,0,0,1,3.44,3.5v4.92a3.51,3.51,0,0,1-3.45,3.5l-5.28.09Z"/><path d="M795.18,8.09h1.54l4.69.09v4.92l-5.28.09-2.31,0c-2.32,0-3.13-.1-3.39-.36a4,4,0,0,1-.39-2.38c0-1.93.05-2,1-2.21a29.42,29.42,0,0,1,4.13-.18m0-7c-4.33,0-5.34.26-5.89.4-6.13,1.59-6.22,6.89-6.25,8.88,0,2.29.21,5.21,2.44,7.44,2.41,2.41,5.42,2.41,8.34,2.41l2.43,0,5.28-.09a7,7,0,0,0,6.88-7V8.19a7,7,0,0,0-6.87-7l-4.7-.09Z" fill="#fff"/><path d="M823.88,33.68c-6.09,0-7.81-.14-9.18-.74a10,10,0,0,1-5.22-4.6c-1.08-2.05-1.08-2.92-1.09-11.31,0-9.13,0-10.31,2.05-11.64.6-.38,1.45-.79,4.08-.79h.71l2.31.08A3.5,3.5,0,0,1,820.92,8L821,9.16h9.25a3.5,3.5,0,0,1,3.49,3.64l-.18,4.47a3.49,3.49,0,0,1-3.39,3.35l-6.16.18-2.86.09s0,.67,0,.77c.79.05,1.86.08,2.91.1l7.3.18a3.5,3.5,0,0,1,3.41,3.35l.09,2.12c.07,1.56.19,4.16-1.93,5.49-.83.53-1.24.79-8.85.79Z"/><path d="M814.51,8.1h.6l2.31.08.08,1.54c.15,2.73-.29,2.93,3.91,2.93h8.82l-.09,2.23-.1,2.24-6.15.17c-3.39.1-6.21.2-6.26.23a25.18,25.18,0,0,0,0,3.28c.14,4.53-.26,4.28,7.42,4.47l6.23.16.09,2.13c.06,1.49,0,2.2-.31,2.38a56.71,56.71,0,0,1-7,.24h-.2c-5.21,0-7-.11-7.8-.45a6.61,6.61,0,0,1-3.51-3c-.65-1.23-.68-1.64-.69-9.68,0-7.14.06-8.45.45-8.7a6.55,6.55,0,0,1,2.17-.23m0-7c-2.75,0-4.48.39-6,1.35-3.3,2.13-3.48,5.74-3.56,7.28-.07,1.31-.09,3.22-.09,7.31,0,8.77,0,10.12,1.49,12.93a13.55,13.55,0,0,0,6.92,6.18c2.06.9,4.11,1,10.58,1h.21c7.87,0,9-.23,10.72-1.33,3.82-2.43,3.63-6.75,3.55-8.6l-.09-2.13a7,7,0,0,0-2.07-4.67A7,7,0,0,0,837,17.4l.09-2.23.09-2.23a7,7,0,0,0-7-7.29H824a7,7,0,0,0-6.29-4.46l-2.31-.08Z" fill="#fff"/><path d="M896.9,54c-.84,0-5.1,0-6.78-.19L889,53.66a3.51,3.51,0,0,1-3.13-3.55l0-2.74c0-2.31.09-5.17,2.68-6.09.61-.22.81-.3,6.26-.3l7.55,0a3.52,3.52,0,0,1,3.49,3.64l-.12,2.78c-.14,3.5-.33,4-.73,4.65C903.91,54,902.71,54,897,54Z"/><path d="M894.82,44.49h1.41l6.16,0-.11,2.77a21.3,21.3,0,0,1-.25,3,38.84,38.84,0,0,1-5.14.17c-2.57,0-5.34-.05-6.4-.17l-1.13-.11,0-2.75a7.55,7.55,0,0,1,.36-2.86c.14,0,2.3-.08,5.05-.08m0-7c-5.85,0-6.22.07-7.4.49-4.87,1.73-5,6.86-5,9.32l0,2.75a7,7,0,0,0,6.27,7.09l1.12.12c1.76.18,5.58.2,7.14.2s2.77,0,3.75-.05c2-.06,5.39-.16,7.4-3.54.91-1.52,1.09-2.84,1.23-6.3l.11-2.77a7,7,0,0,0-7-7.29l-6.16,0Z" fill="#fff"/><path d="M834.16,18.24a7.63,7.63,0,0,1-3.15-.68,6.76,6.76,0,0,1-3.87-7.32A7.29,7.29,0,0,1,833.57,4a7.69,7.69,0,0,1,.95-.06A7.1,7.1,0,0,1,840,6.35,7,7,0,0,1,841.57,12a7.38,7.38,0,0,1-7.41,6.26Z"/><path d="M834.52,7.47a3.44,3.44,0,0,1,3.59,4.05,3.9,3.9,0,0,1-4,3.22,4,4,0,0,1-1.71-.37c-3.21-1.45-2.11-6.46,1.51-6.87a5.25,5.25,0,0,1,.56,0M834.43,12a.9.9,0,0,0,.94-.74,1.28,1.28,0,0,0-.38-1,1,1,0,0,0-.64-.24,1,1,0,0,0-.75,1.63,1.06,1.06,0,0,0,.83.39M834.51.47a12.19,12.19,0,0,0-1.34.08,10.89,10.89,0,0,0-9.49,9.14,10.23,10.23,0,0,0,5.89,11.06,11,11,0,0,0,4.59,1A10.89,10.89,0,0,0,845,12.45,10.6,10.6,0,0,0,842.59,4,10.68,10.68,0,0,0,834.51.47Z" fill="#fff"/><path d="M845.6,25.08a3.5,3.5,0,0,1-3.39-2.65l-.2-.78s-.85-5.3,1.24-7.4c1.12-1.12,1.38-1.39,16.14-1.39,4.52,0,4.94.11,5.39.22,3.4.86,3.4,3.74,3.4,5.85v2.26a3.51,3.51,0,0,1-2.82,3.44l-1,.19c-1.18.23-7.54.26-10.22.26Z"/><path d="M859.39,16.36a45.14,45.14,0,0,1,4.54.12c.71.18.75.31.75,2.45v2.26l-1,.2c-.53.1-4.83.19-9.54.19H845.6l-.19-.79a9.23,9.23,0,0,1,.32-4.07c.19-.19,8.32-.36,13.66-.36m0-7c-2.7,0-6.13.05-8.93.11-5.82.15-7.57.19-9.69,2.31-3.58,3.59-2.17,10.65-2.15,10.72l.19.78a7,7,0,0,0,6.79,5.3h8.58c9.27,0,10.42-.23,10.91-.33l1-.19a7,7,0,0,0,5.63-6.87V18.93c0-2.11,0-7.72-6-9.24-.85-.21-1.51-.33-6.24-.33Z" fill="#fff"/><path d="M761.46,33.38c-2,0-3.61-.13-5.26-1.89l-.74-.79a3.53,3.53,0,0,1-1-2.37l-.09-10c-.11-11.85-.11-12.08,2.43-13.44.63-.34,1.55-.65,3.95-.65,2.65,0,3.93.34,4.89,1.3,1.13,1.13,1.16,1.39,1.23,9.21,0,2.39.08,4.52.13,5.95l1.71-.24a3.87,3.87,0,0,1,.48,0,3.5,3.5,0,0,1,3.5,3.5v2.31c0,2-.13,4.06-1.68,5.35-2,1.64-8.15,1.75-9.37,1.75Z"/><path d="M760.8,7.78a6.39,6.39,0,0,1,2.41.28c.09.08.18,3.12.21,6.76s.15,7.3.25,8.14c.14,1.14.19,1.54,1.21,1.54a23.12,23.12,0,0,0,2.59-.28l1.77-.25v2.31c0,1.57-.13,2.42-.42,2.65-.52.44-4.27.94-7.14.95h-.24c-1.74,0-2.05-.1-2.69-.78h0l-.74-.8-.09-10c-.09-10-.09-10,.58-10.32a7.32,7.32,0,0,1,2.3-.24m0-7a11.23,11.23,0,0,0-5.6,1.07,8.28,8.28,0,0,0-4.26,7.34c-.09,1.52-.07,3.93,0,9.21l.09,10a6.94,6.94,0,0,0,1.9,4.73l.74.79c2.6,2.76,5.27,3,7.79,3h.27c5.67,0,9.57-.88,11.59-2.56,2.94-2.45,2.94-6.09,2.94-8V24a7,7,0,0,0-5.79-6.89c0-.73,0-1.5,0-2.32,0-1.81,0-3.54-.08-4.87-.09-2.66-.15-4.76-2.17-6.78S763.24.78,760.8.78Z" fill="#fff"/><path d="M919.07,61.09c-3.48,0-4.45-.59-4.82-.8-2.32-1.35-2.28-2.92-2.08-9.51s.39-8,2.08-9.09c.87-.59,1.82-.77,4.06-.77l1,0,2.62.08a3.49,3.49,0,0,1,3.39,3.46l.07,5.85a58.69,58.69,0,0,1-.16,7.29c-.73,3.47-3.82,3.47-5.67,3.47Z"/><path d="M918.32,44.42l.85,0,2.61.07.07,5.85c0,3.22,0,6.16-.09,6.55-.12.6-.27.68-2.24.68h-.44a10.8,10.8,0,0,1-3.06-.32c-.49-.28-.52-.84-.35-6.38.12-4,.31-6.15.53-6.3a7.85,7.85,0,0,1,2.12-.17m0-7c-2.6,0-4.32.22-6,1.36C909,41,908.88,44,908.68,50.68c-.1,3.14-.13,4.63-.07,5.75a7.93,7.93,0,0,0,3.88,6.89c.7.4,2.16,1.25,6.57,1.27h.46a12.37,12.37,0,0,0,3.93-.44,7.55,7.55,0,0,0,5.16-5.81c.13-.58.31-1.44.24-8.05l-.07-5.85A7,7,0,0,0,922,37.52l-2.61-.08-1.06,0Z" fill="#fff"/><path d="M937.64,63.88a3.51,3.51,0,0,1-3.5-3.38l0-.7c-.21-6,.69-6.89,1.28-7.49,1.2-1.21,1.22-1.24,13.68-1.38,3,0,5.18-.06,6.79-.06,4.26,0,6.4,0,7.62,2.28.21.38.69,1.29.63,4.67l0,2.46a3.49,3.49,0,0,1-3.47,3.43Z"/><path d="M955.88,54.37c3.74,0,4.36.12,4.52.43a10.47,10.47,0,0,1,.22,3l0,2.46-11.46.09-11.47.08,0-.7a21.66,21.66,0,0,1,.28-4.91c.12-.12,5.17-.27,11.23-.34,3,0,5.15-.06,6.76-.06m0-7c-1.7,0-4,0-6.84.06s-5.81.09-8,.16c-4.18.12-6.09.18-8.15,2.26-1.39,1.41-2.53,3.14-2.29,10.07l0,.7a7,7,0,0,0,7,6.76h.05l11.46-.08,11.47-.09a7,7,0,0,0,7-6.86l0-2.46c.08-4.29-.65-5.66-1-6.4-2.2-4.12-6.13-4.12-10.69-4.12Z" fill="#fff"/><path d="M871.33,33.93c-1.53,0-3.84,0-5.11-2.37-.46-.86-1.93-6.53,1.16-8.45a3.19,3.19,0,0,1,1.38-.5h-.31c-5.25,0-6.35-2.48-6.35-4.55,0-1.75,2.26-9.49,3.18-10.9a6.52,6.52,0,0,1,2.91-2.39c.42-.16,1.29-.49,8.34-.58,1,0,2,0,2.73,0,4.74,0,6.88.28,9,3.11,1.32,1.78,1.33,2.9,1.43,10.19.1,8,.13,10.67-3.36,13.66-2.64,2.25-4.92,2.51-11.27,2.71-1.71,0-2.88.09-3.71.09Z"/><path d="M879.27,7.67c4.52,0,5.12.29,6.16,1.69.6.82.65,1.33.74,8.15.1,8.34-.06,9.18-2.14,11-1.65,1.41-2.93,1.68-9.11,1.87-1.65.05-2.79.09-3.58.09-1.63,0-1.83-.14-2-.52h0c-.37-.69-.44-3.61-.09-3.82.13-.08,2.51-.25,5.29-.37,4.72-.21,5.11-.28,5.77-.94s1-3,.37-3.38a15.91,15.91,0,0,0-3.12-.17h-2.09c-3,0-3.13-.31-3-2.49l.1-1.64,3.88-.19a27.08,27.08,0,0,0,4.24-.41c.43-.26.45-2.78,0-3.58-.28-.54-.67-.6-4.3-.6h-.49c-4.12,0-4.06.07-4.88,3.39s-.86,3.38-2.44,3.38h-.1c-2.16,0-2.86-.26-2.86-1.05a49.79,49.79,0,0,1,2.61-9,3.14,3.14,0,0,1,1.22-1,57.86,57.86,0,0,1,7.14-.35c1,0,1.92,0,2.7,0m0-7c-.8,0-1.72,0-2.79,0-7.66.09-8.66.47-9.54.81a9.85,9.85,0,0,0-4.58,3.74C861,7.38,858.6,15.8,858.6,18.06a7.77,7.77,0,0,0,3.7,6.65A12,12,0,0,0,862,28a11.1,11.1,0,0,0,1.13,5.24c2.26,4.21,6.58,4.21,8.21,4.21.86,0,1.95,0,3.81-.09,6.33-.2,9.81-.45,13.44-3.56,4.73-4.05,4.68-7.91,4.58-16.36-.1-7.71-.13-9.54-2.12-12.22C887.93,1,884.36.67,879.27.67Z" fill="#fff"/><path d="M896.44,62.26a64.77,64.77,0,0,1-6.6-.24l-1.23-.19a3.51,3.51,0,0,1-3-3.6l.11-2.62c.12-3.14.39-4.2,1.3-5.13s1.43-1.25,8.82-1.35l6.2-.08a3.5,3.5,0,0,1,3.5,3.39l.09,2.89c.07,2.41.15,4.9-1.95,6.2-.81.5-1.18.73-7.28.73Z"/><path d="M902.08,52.55l.09,2.88c.06,2,0,3-.28,3.12a37.71,37.71,0,0,1-5.45.21c-2.55,0-5.2-.07-6.06-.2l-1.23-.19.1-2.62a12.36,12.36,0,0,1,.31-2.83,55.17,55.17,0,0,1,6.36-.29l6.16-.08m0-7H902l-6.16.08c-7.13.1-9,.12-11.27,2.4-1.94,2-2.18,4.34-2.3,7.45l-.1,2.61a7,7,0,0,0,5.91,7.19l1.23.2a63.37,63.37,0,0,0,7.14.28c6.1,0,7.38-.18,9.13-1.26,3.81-2.36,3.68-6.52,3.6-9.28l-.09-2.88a7,7,0,0,0-7-6.79Z" fill="#fff"/><path d="M895.73,74.31c-6.05,0-6.63-.2-7.18-.39-2.74-1-2.74-4-2.74-6.16,0-2.39,0-5.11,2.72-6.16.57-.22,1.1-.42,8.42-.42h2a29.35,29.35,0,0,0,4.14-.18,39.51,39.51,0,0,0,.41-6.09l0-1.17c.24-8.25.33-9.65,2.17-10.85.75-.49,1.58-.74,4-.74l1,0,2.62.08a3.49,3.49,0,0,1,3.39,3.5v8.93c0,8.24-.08,9.84-.85,11.48A13.36,13.36,0,0,1,905.66,74C903.78,74.3,896.55,74.31,895.73,74.31Z"/><path d="M909.7,45.65l.85,0,2.61.08v8.92c0,7.63-.09,9.09-.52,10a9.79,9.79,0,0,1-7.58,5.84c-1,.18-5.48.29-9.33.29a50.45,50.45,0,0,1-6-.2h0c-.27-.09-.38-1-.38-2.85,0-2.19.09-2.74.48-2.89s3.49-.19,7.16-.19h2c8.09,0,7.78-.36,8.08-10.84.16-5.34.34-7.86.58-8a8,8,0,0,1,2.13-.17m0-7c-2.57,0-4.27.21-6,1.31-3.08,2-3.32,5.27-3.47,7.42-.11,1.41-.2,3.46-.28,6.26l0,1.17c0,1-.05,2-.09,2.87H897c-8,0-8.54.22-9.67.65-5,1.91-5,7-5,9.43s0,7.7,5.09,9.47c1,.33,1.69.58,8.33.58a100.66,100.66,0,0,0,10.53-.39A16.72,16.72,0,0,0,919,67.65c1.17-2.49,1.17-4.71,1.18-13V45.75a7,7,0,0,0-6.79-7l-2.61-.08-1.06,0Z" fill="#fff"/><path d="M977.14,74.34a3.51,3.51,0,0,1-3.21-2.12l-.79-1.83a21.66,21.66,0,0,0-1.1-2.12c-.08.08-.16.17-.25.25-4,4.1-6.49,5.82-11.59,5.82h-2.57a3.5,3.5,0,0,1-3.5-3.61l.17-5.7a3.49,3.49,0,0,1,3.17-3.37l1.84-.18a9.59,9.59,0,0,0,1.1-.17c1.31-1.18,5.06-4.91,8.08-8l-9.8-.1a3.49,3.49,0,0,1-3.46-3.37l-.09-2.56c-.12-3.24.32-4.44,1.05-5.33,1.31-1.58,3.23-1.58,6.41-1.58,1.29,0,3,0,5.21.06,6,.11,9.51.31,10.47.61a9.21,9.21,0,0,1,5.55,5.33,11,11,0,0,1-.15,9.18A19.09,19.09,0,0,1,981,59c2.21,3.15,5.38,8.86,5.38,11.39,0,3.94-4.15,3.94-6.37,3.94Z"/><path d="M962.61,43.88c1.27,0,2.94,0,5.14.06,4.69.09,9,.29,9.49.45,3.32,1,5.07,6.09,3.32,9.6a18.22,18.22,0,0,1-2.38,2.91l-1.88,1.92.8.85c1.95,2.07,5.79,9.19,5.79,10.73,0,.34-.59.44-2.87.44h-2.88L976.35,69c-1-2.3-3.32-5.87-3.82-5.87a19.51,19.51,0,0,0-3.24,2.94c-3.78,3.88-5.46,4.76-9.09,4.76h-2.58l.09-2.85h0l.09-2.85,1.85-.18a9.5,9.5,0,0,0,2.46-.51C962.94,64,975.5,51.33,975.5,51c0-1-.5-1.07-8.64-1.15l-8.13-.09-.09-2.55a7.41,7.41,0,0,1,.24-3c.19-.22,1-.32,3.73-.32m0-7c-3.62,0-6.75,0-9.11,2.85-1.7,2-2,4.55-1.86,7.68l.09,2.56a7,7,0,0,0,6.92,6.75l1.48,0L958.82,58l-1.69.16a7,7,0,0,0-6.32,6.75l-.09,2.85-.09,2.85a7,7,0,0,0,7,7.22h2.58a15.58,15.58,0,0,0,10.74-3.75,7,7,0,0,0,6.2,3.75H980a22.64,22.64,0,0,0,3.34-.17,7.37,7.37,0,0,0,6.53-7.27c0-3-2.33-7.58-4.52-11.1a12.61,12.61,0,0,0,1.44-2.18A14.59,14.59,0,0,0,987.05,45a12.67,12.67,0,0,0-7.74-7.29c-.72-.22-1.92-.6-11.44-.77-2.39,0-4-.06-5.26-.06Z" fill="#fff"/><circle cx="990.56" cy="46.21" r="5.94"/><path d="M990.56,43.77a2.44,2.44,0,1,1-2.44,2.44,2.44,2.44,0,0,1,2.44-2.44m0-7a9.44,9.44,0,1,0,9.44,9.44,9.44,9.44,0,0,0-9.44-9.44Z" fill="#fff"/><circle cx="984.73" cy="46.21" r="5.94"/><path d="M984.72,43.77a2.44,2.44,0,1,1-2.44,2.44,2.45,2.45,0,0,1,2.44-2.44m0-7a9.44,9.44,0,1,0,9.45,9.44,9.45,9.45,0,0,0-9.45-9.44Z" fill="#fff"/><path d="M921.1,74.31c-4.88,0-5.74-.34-6.25-.55-3-1.19-2.9-3.7-2.81-6.34l.09-2.7a3.51,3.51,0,0,1,3.39-3.39l5.39-.15a41,41,0,0,0,4.66-.32c.37-2.83.89-13,.74-14.83a4,4,0,0,1,2.48-4.8,21.62,21.62,0,0,1,5.44-.47c1.73,0,3.68,0,4.75,1.91a3.62,3.62,0,0,1,.19.4,3.71,3.71,0,0,1,.49,1.2,3.91,3.91,0,0,1-.07,2c-.07,1-.15,4.08-.15,8.27,0,8.87,0,9.6-1.06,11.73a13.65,13.65,0,0,1-9.44,7.57,49.58,49.58,0,0,1-7.84.49Z"/><path d="M934.24,44.26c1,0,1.74,0,1.68.13a.35.35,0,0,0,.18.43.4.4,0,0,1,.08.56c-.13.2-.24,4.31-.24,9.14,0,8.49,0,8.82-.69,10.17a10.12,10.12,0,0,1-7.11,5.73,46.56,46.56,0,0,1-7,.39,23.74,23.74,0,0,1-5-.3c-.67-.27-.7-.41-.61-3l.09-2.7,5.38-.16c6-.17,7-.46,7.83-2.29.47-1,1.25-15.7.9-17-.11-.42,0-.73.24-.83a25.33,25.33,0,0,1,4.26-.26m0-7c-4.75,0-6.08.48-6.64.68a7.57,7.57,0,0,0-4.78,8.51c.07,1.71-.19,7.43-.46,11.17l-1.55.06-5.39.16a7,7,0,0,0-6.79,6.76l-.09,2.7a16.43,16.43,0,0,0,.17,4A7.67,7.67,0,0,0,913.55,77c1.09.44,2.41.8,7.55.8a48.14,48.14,0,0,0,8.64-.58,17,17,0,0,0,11.78-9.42c1.42-2.87,1.42-4.06,1.42-13.29,0-3.84.07-6.62.13-7.73a7.61,7.61,0,0,0,0-3.29,7.19,7.19,0,0,0-.76-2A5,5,0,0,0,942,41c-2.07-3.71-5.8-3.71-7.8-3.71Zm7.65,10.79h0Z" fill="#fff"/><path d="M705.39,22.31c-2.2,0-5.22,0-6.11-3a70.61,70.61,0,0,1-1.19-10.89c.45-3.88,3.56-4,5.84-4.08l1.1,0c1.06,0,3.89,0,4.85,2.62a98.48,98.48,0,0,1,1.6,11v.91a3.5,3.5,0,0,1-3.5,3.5Z"/><path d="M705,7.77c1,0,1.49.1,1.57.33.23.63,1.38,8.8,1.38,9.8v.91h-2.59c-2.21,0-2.62-.08-2.76-.54a79.32,79.32,0,0,1-1.06-9.5c.1-.89.11-.89,2.49-1l1,0m0-7L703.8.8a12.46,12.46,0,0,0-4.39.66A7.51,7.51,0,0,0,694.62,8c-.25,2.15.85,10.77,1.3,12.28,1.63,5.56,7.12,5.56,9.47,5.56H708a7,7,0,0,0,7-7V17.9c0-1.27-1.14-10.39-1.81-12.22S710.54.77,705,.77Z" fill="#fff"/><path d="M616.94,33.55a25.23,25.23,0,0,1-3.26-.09c-3.23-.45-3.83-2.56-3.94-3.45-.16-1.31.25-3.1,3-4.32.17-.7.4-1.9.54-2.61,0-.13.13-.67.25-1.29a3.64,3.64,0,0,1-1-2.43,4,4,0,0,1,2.34-3.71c.12-.49.26-1.15.35-1.58.15-.68.38-1.77.51-2.51a4.35,4.35,0,0,1-1.34-2.8,3.68,3.68,0,0,1,1-2.78c1.1-1.1,1.27-1.28,11.91-1.4l5.2,0c4,0,6.48,0,7.5,2.66.22.57.55,1.44-.23,5.15-.46,2.22-1,5-3.86,5.53a4.11,4.11,0,0,1-.78.07,3.39,3.39,0,0,1-.64-.05c0,.08-.21,1-.32,1.47a4.06,4.06,0,0,1,2.73,1.89c.68,1.1.77,2.12,0,5.94-.54,2.54-1.1,5.17-3.64,5.88C631.72,33.5,617.09,33.55,616.94,33.55Z"/><path d="M632.51,8c3.47,0,4.12.11,4.23.41a12,12,0,0,1-.38,3.18c-.43,2.06-.7,2.73-1.11,2.81h-.11a.65.65,0,0,1-.61-.47c-1.08-3.39-1.9-4.09-4.82-4.09h0a8.72,8.72,0,0,0-2.62.27c-.5.32-1.92,7.13-1.56,7.52a.28.28,0,0,0,.24.08,7.57,7.57,0,0,0,3.58-2q1-1,1.47-1c.54,0,.65.89.26,2.61-.16.71-.52,2.37-.79,3.68-.34,1.59-.63,2.36-1.07,2.36s-.78-.5-1.39-1.45A3.77,3.77,0,0,0,625.34,20a.63.63,0,0,0-.46.18,37.29,37.29,0,0,0-1.67,7.6,5.43,5.43,0,0,0,2.13.23,11.75,11.75,0,0,0,3-.27,12.93,12.93,0,0,0,4.06-4c.33-.64.75-1,1.1-1a.53.53,0,0,1,.46.28,14.34,14.34,0,0,1-.48,3.38c-.47,2.21-.81,3.14-1.16,3.24-.55.15-10.35.34-15.34.34-1.46,0-2.51,0-2.78-.06-1.34-.18-1.27-.61.21-1.21s1.53-.87,2.33-5.05c.27-1.43.57-2.85.65-3.15s-.09-.63-.63-.84c-1-.39-1-.68.2-1.24.93-.44,1-.63,1.67-3.69.91-4.22.9-4.61-.12-5.43-.47-.37-.74-.79-.59-.93a89.9,89.9,0,0,1,9.46-.37l5.16,0m0-7h0l-5.24,0c-10.47.12-12.08.14-14.35,2.44A7.12,7.12,0,0,0,610.86,9,7.6,7.6,0,0,0,612,12.43c-.07.36-.14.7-.19.91l0,.22A7.15,7.15,0,0,0,609,19.49a7.25,7.25,0,0,0,.8,3.07c0,.23-.1.54-.16.85a7.31,7.31,0,0,0-3.37,7c.33,2.71,2.32,5.84,6.93,6.48a24.73,24.73,0,0,0,3.75.13c3.54,0,15.22,0,17.21-.6,4.59-1.27,5.56-5.81,6.13-8.52.75-3.51,1.11-5.86-.25-8.26,2.19-1.93,2.82-4.92,3.17-6.6.83-4,.65-5.6.07-7.12C641.4,1,636.68,1,632.51,1Z" fill="#fff"/><path d="M747,33.68a4.29,4.29,0,0,1-4.3-2.64c-.14-.36-.42-1.1-.3-3.92.1-2.13.19-4.34,3.13-5.48.1-1.12.14-3.22.19-5.73l.16-7.79a3.49,3.49,0,0,1,3-3.4l2.57-.35a12.65,12.65,0,0,1,1.72-.16c4.88,0,4.92,4.29,5,10.23V15.7c.07,6.21,0,8.29-.53,10.17a10.84,10.84,0,0,1-7.16,7.2,12.49,12.49,0,0,1-3.5.61Z"/><path d="M753.21,7.71c1.51,0,1.42,1.23,1.49,8,.07,6.08,0,7.8-.4,9.15a7.33,7.33,0,0,1-4.78,4.83,9.4,9.4,0,0,1-2.51.46c-.57,0-.93-.13-1-.4a11.74,11.74,0,0,1-.07-2.51c.09-2.06.11-2.1,1.08-2.43,2.09-.71,2.07-.64,2.24-9l.16-7.61,2.11-.29c.73-.09,1.28-.19,1.71-.19m0-7a14.26,14.26,0,0,0-2.21.2l-.43.06-2.11.28a7,7,0,0,0-6.07,6.8l-.15,7.61v.18c0,1.35-.05,2.66-.09,3.7-3,2.23-3.14,5.62-3.22,7.42-.16,3.56.27,4.67.52,5.33A7.8,7.8,0,0,0,747,37.18a16.15,16.15,0,0,0,4.5-.75A14.44,14.44,0,0,0,761,26.85c.67-2.33.75-4.48.67-11.18V14.4a41.07,41.07,0,0,0-.35-6.76A8.1,8.1,0,0,0,753.21.71Z" fill="#fff"/><path d="M706.76,33.36c-3.58,0-4.79,0-6-1.19-.84-.86-1.38-2.09-1.21-5.28.1-2.06.41-3.54,1.63-4.56.74-.61,1.32-1.1,7.06-1.22,1.14,0,2.51-.06,3.19-.12.31-.47.59-1.72,1.26-6.69,1-7.49,1.38-8,2.64-8.9.54-.38,1.22-.85,4.7-.86h2.39A3.52,3.52,0,0,1,726,8V8.9c0,1.09-.48,4.7-.5,4.85-.26,1.93-.68,5.13-.92,7.11a30.4,30.4,0,0,1-1.08,5.39,12.74,12.74,0,0,1-5.54,5.9c-2.09,1-3.29,1.08-8.63,1.19C708.39,33.36,707.54,33.36,706.76,33.36Z"/><path d="M722.45,8V8.9c0,.48-.21,2.45-.47,4.39s-.68,5.14-.93,7.13a28.8,28.8,0,0,1-.82,4.46A9.29,9.29,0,0,1,716.38,29c-1.35.66-2,.73-7.17.83-.86,0-1.69,0-2.44,0a20.49,20.49,0,0,1-3.48-.14h0c-.4-.41-.27-4.34.15-4.69a21.86,21.86,0,0,1,4.91-.42c4.32-.1,4.55-.14,5.34-.88,1.3-1.2,1.6-2.25,2.5-9a39.73,39.73,0,0,1,1.17-6.5A10.31,10.31,0,0,1,720.07,8h2.38m0-7h-2.4c-3.38,0-5.14.4-6.7,1.49-2.85,2-3.19,4.53-4.1,11.31-.12.87-.33,2.46-.54,3.76h-.52c-5.59.12-7.4.52-9.22,2-2.64,2.2-2.81,5.49-2.89,7.07-.14,2.79,0,5.69,2.22,7.91s4.56,2.24,8.47,2.24c.79,0,1.67,0,2.58,0,5.27-.11,7.24-.14,10.1-1.54a16.2,16.2,0,0,0,7.22-7.67A26.78,26.78,0,0,0,728,21.29c.25-2,.66-5.15.92-7.07.16-1.2.53-4.12.53-5.32V8a7,7,0,0,0-7-7Z" fill="#fff"/><path d="M592.6,109.79a3.48,3.48,0,0,1-3.5-3.5V46.15a3.5,3.5,0,0,1,3.5-3.5h16.9a47.15,47.15,0,0,1,10.44,1,22.6,22.6,0,0,1,8.3,3.69,17.35,17.35,0,0,1,5.7,7.36,26.8,26.8,0,0,1,1.87,10.45,22.38,22.38,0,0,1-1.91,9.32,20.5,20.5,0,0,1-5.32,7.17,23.82,23.82,0,0,1-7.89,4.46,28.49,28.49,0,0,1-9.31,1.53H610v18.59a3.51,3.51,0,0,1-3.49,3.5Zm17.9-41.74a6.07,6.07,0,0,0,3.68-.88c.23-.19.76-.61.76-2.08s-.5-1.77-.74-2a6.09,6.09,0,0,0-3.7-.88H610v5.79Z"/><path d="M609.5,46.15a43.13,43.13,0,0,1,9.65.94,19.05,19.05,0,0,1,7,3.1,13.88,13.88,0,0,1,4.55,5.91,23.22,23.22,0,0,1,1.59,9.07,18.9,18.9,0,0,1-1.59,7.88,17.27,17.27,0,0,1-4.43,6,20.32,20.32,0,0,1-6.74,3.79,25.08,25.08,0,0,1-8.17,1.34h-3V71.55h2.16a9.19,9.19,0,0,0,5.88-1.66,5.8,5.8,0,0,0,2.06-4.8,5.64,5.64,0,0,0-2.06-4.69,9.25,9.25,0,0,0-5.88-1.64h-4v47.49l-13.91,0V46.15h16.9m0-7H592.6a7,7,0,0,0-7,7v60.14a7,7,0,0,0,7,7h0l13.91,0a7,7,0,0,0,7-7V91.09a31.83,31.83,0,0,0,8.31-1.65,27.24,27.24,0,0,0,9-5.12,24.21,24.21,0,0,0,6.22-8.38,25.78,25.78,0,0,0,2.22-10.77,30.14,30.14,0,0,0-2.15-11.81,20.86,20.86,0,0,0-6.86-8.82,26,26,0,0,0-9.57-4.27,50.59,50.59,0,0,0-11.23-1.12Z" fill="#fff"/><rect x="666.04" y="66.66" width="38.73" height="15.53" rx="3.5"/><path d="M701.27,70.16v8.53H669.54V70.16h31.73m0-7H669.54a7,7,0,0,0-7,7v8.53a7,7,0,0,0,7,7h31.73a7,7,0,0,0,7-7V70.16a7,7,0,0,0-7-7Z" fill="#fff"/><path d="M713.75,109a3.5,3.5,0,0,1-2.48-5.94c5.24-5.36,9.17-9.49,11.71-12.26.7-.77,1.37-1.54,2-2.32a18.79,18.79,0,0,1-8.21-3,20.43,20.43,0,0,1-7.16-8.34,25.64,25.64,0,0,1-2.43-11.12,27.4,27.4,0,0,1,2.92-12.77,21.56,21.56,0,0,1,8.56-8.93A24.52,24.52,0,0,1,731,41.27a25.6,25.6,0,0,1,12.65,3.14,22.4,22.4,0,0,1,8.9,9.07,27.66,27.66,0,0,1,3.09,13.25,39.49,39.49,0,0,1-6.37,21.39,119.81,119.81,0,0,1-16.42,20,3.5,3.5,0,0,1-2.48,1Zm17.53-47.65a3.4,3.4,0,0,0-2.68,1.22,4.58,4.58,0,0,0-1.23,3.29A5.54,5.54,0,0,0,728,68.4,3.87,3.87,0,0,0,729.37,70a3.41,3.41,0,0,0,1.91.54,3.72,3.72,0,0,0,2.91-1.28,4.68,4.68,0,0,0,1.29-3.39,4.43,4.43,0,0,0-.58-2.27,4.53,4.53,0,0,0-1.6-1.68A3.7,3.7,0,0,0,731.28,61.38Z"/><path d="M731,44.77a22.11,22.11,0,0,1,10.95,2.7,18.83,18.83,0,0,1,7.52,7.67,24.1,24.1,0,0,1,2.67,11.59,36,36,0,0,1-5.82,19.53,116.82,116.82,0,0,1-15.95,19.4l-16.55-.13q7.94-8.13,11.78-12.34a65.31,65.31,0,0,0,6.72-8.65l-.16-.17a11.1,11.1,0,0,1-4.43.8,15.85,15.85,0,0,1-9-2.56,16.92,16.92,0,0,1-5.94-6.94,21.93,21.93,0,0,1-2.09-9.62,23.73,23.73,0,0,1,2.53-11.14,18,18,0,0,1,7.18-7.5A20.93,20.93,0,0,1,731,44.77m.32,29.29a7.21,7.21,0,0,0,5.47-2.39A8.19,8.19,0,0,0,739,65.89a7.93,7.93,0,0,0-1-4A8.06,8.06,0,0,0,735.15,59a7.25,7.25,0,0,0-3.87-1.09A6.88,6.88,0,0,0,726,60.23a8,8,0,0,0-2.15,5.66,9,9,0,0,0,1,4.06,7.4,7.4,0,0,0,2.67,3,6.92,6.92,0,0,0,3.79,1.09M731,37.77a27.94,27.94,0,0,0-14,3.55A24.9,24.9,0,0,0,707,51.67a30.78,30.78,0,0,0-3.32,14.38,29.08,29.08,0,0,0,2.77,12.64,23.86,23.86,0,0,0,8.39,9.75,21.7,21.7,0,0,0,3.71,2c-2.43,2.61-5.72,6-9.81,10.22a7,7,0,0,0,5,11.89l16.55.13h.06a7,7,0,0,0,5-2.06A123.19,123.19,0,0,0,752.19,90a43,43,0,0,0,6.91-23.26,31.09,31.09,0,0,0-3.51-14.91,25.74,25.74,0,0,0-10.27-10.46A29,29,0,0,0,731,37.77Zm.29,27.11h0c.12,0,.13,0,.18,0a1.05,1.05,0,0,1,.4.43.94.94,0,0,1,.12.54,1.19,1.19,0,0,1-.35,1,.64.64,0,0,1-.18.16h-.21a.79.79,0,0,1-.15-.22,2.13,2.13,0,0,1-.22-1,1.13,1.13,0,0,1,.31-.93l.07-.08Z" fill="#fff"/><path d="M817.57,110.5a20.68,20.68,0,0,1-12-3.45A22.87,22.87,0,0,1,798,98.17a40.47,40.47,0,0,1-3.53-10.87,67.65,67.65,0,0,1,0-22.83A40.1,40.1,0,0,1,798,53.57a22.85,22.85,0,0,1,7.55-8.85,20.68,20.68,0,0,1,12-3.45,21.08,21.08,0,0,1,12.19,3.46,22.9,22.9,0,0,1,7.59,8.76,39.62,39.62,0,0,1,3.55,10.87,67.48,67.48,0,0,1,1,11.54A62.36,62.36,0,0,1,840,91.33a29,29,0,0,1-7.33,13.39C828.89,108.55,823.81,110.5,817.57,110.5Zm0-48.87a1.71,1.71,0,0,0-1.6.79,11.6,11.6,0,0,0-1.69,4.71,53.29,53.29,0,0,0-.62,8.77,53.4,53.4,0,0,0,.61,8.75A11.08,11.08,0,0,0,816,89.34a1.75,1.75,0,0,0,1.62.83c2.63,0,4.2-5.33,4.2-14.27S820.2,61.63,817.57,61.63Z"/><path d="M817.57,44.77a17.59,17.59,0,0,1,10.21,2.85,19.39,19.39,0,0,1,6.44,7.43A35.86,35.86,0,0,1,837.45,65a63.3,63.3,0,0,1,.94,10.93,58.74,58.74,0,0,1-1.8,14.57,25.26,25.26,0,0,1-6.44,11.79Q825.51,107,817.57,107a17.18,17.18,0,0,1-10-2.83,19.41,19.41,0,0,1-6.4-7.54,37.5,37.5,0,0,1-3.23-9.93A62.46,62.46,0,0,1,797,75.9a63.15,63.15,0,0,1,.91-10.83,36.94,36.94,0,0,1,3.23-9.95,19.52,19.52,0,0,1,6.4-7.53,17.25,17.25,0,0,1,10-2.82m0,48.9q7.7,0,7.7-17.77t-7.7-17.77a5.15,5.15,0,0,0-4.44,2.25,14.82,14.82,0,0,0-2.3,6.16,56,56,0,0,0-.67,9.36,57.1,57.1,0,0,0,.65,9.33,14.4,14.4,0,0,0,2.32,6.18,5.21,5.21,0,0,0,4.44,2.26m0-55.9a24.12,24.12,0,0,0-14,4.07A26.44,26.44,0,0,0,794.86,52,44.09,44.09,0,0,0,791,63.87a71.33,71.33,0,0,0,0,24,43.86,43.86,0,0,0,3.84,11.8,26.4,26.4,0,0,0,8.7,10.22,24.12,24.12,0,0,0,14,4.07c7.22,0,13.13-2.3,17.58-6.83a32.47,32.47,0,0,0,8.23-15,66.38,66.38,0,0,0,2-16.29,69.59,69.59,0,0,0-1-12.15,42.81,42.81,0,0,0-3.86-11.82,26.37,26.37,0,0,0-8.73-10.08,24.53,24.53,0,0,0-14.18-4.08Zm.1,46a52.15,52.15,0,0,1-.51-7.89,50.11,50.11,0,0,1,.52-7.85,43.26,43.26,0,0,1,.59,7.85,42.41,42.41,0,0,1-.6,7.89Z" fill="#fff"/><path d="M861,110.5a20.66,20.66,0,0,1-12-3.45,22.87,22.87,0,0,1-7.55-8.88,40.84,40.84,0,0,1-3.54-10.87,66.34,66.34,0,0,1-1-11.4,67,67,0,0,1,1-11.43,40.47,40.47,0,0,1,3.54-10.9,22.92,22.92,0,0,1,7.55-8.85,20.68,20.68,0,0,1,12-3.45,21.1,21.1,0,0,1,12.19,3.46,23,23,0,0,1,7.59,8.76,39.72,39.72,0,0,1,3.54,10.87,66.48,66.48,0,0,1,1,11.54,62.83,62.83,0,0,1-1.9,15.43A29.06,29.06,0,0,1,876,104.72C872.27,108.55,867.2,110.5,861,110.5Zm0-48.87a1.71,1.71,0,0,0-1.61.79,11.46,11.46,0,0,0-1.68,4.71A52.27,52.27,0,0,0,857,75.9a54.53,54.53,0,0,0,.61,8.75,10.94,10.94,0,0,0,1.69,4.69,1.75,1.75,0,0,0,1.62.83c2.62,0,4.19-5.33,4.19-14.27S863.58,61.63,861,61.63Z"/><path d="M861,44.77a17.56,17.56,0,0,1,10.2,2.85,19.23,19.23,0,0,1,6.44,7.43A35.86,35.86,0,0,1,880.83,65a62.33,62.33,0,0,1,.94,10.93A59.21,59.21,0,0,1,880,90.47a25.43,25.43,0,0,1-6.44,11.79Q868.89,107,861,107a17.16,17.16,0,0,1-10-2.83,19.25,19.25,0,0,1-6.4-7.54,37.14,37.14,0,0,1-3.23-9.93,62.45,62.45,0,0,1-.92-10.8,63.14,63.14,0,0,1,.92-10.83,36.6,36.6,0,0,1,3.23-9.95,19.36,19.36,0,0,1,6.4-7.53,17.23,17.23,0,0,1,10-2.82m0,48.9q7.69,0,7.69-17.77T861,58.13a5.18,5.18,0,0,0-4.45,2.25,14.68,14.68,0,0,0-2.29,6.16,55.91,55.91,0,0,0-.68,9.36,57,57,0,0,0,.66,9.33,14.53,14.53,0,0,0,2.31,6.18A5.23,5.23,0,0,0,861,93.67m0-55.9a24.15,24.15,0,0,0-14,4.07A26.41,26.41,0,0,0,838.25,52a44.11,44.11,0,0,0-3.85,11.85,71.33,71.33,0,0,0,0,24,44.57,44.57,0,0,0,3.84,11.8,26.49,26.49,0,0,0,8.7,10.22A24.15,24.15,0,0,0,861,114c7.21,0,13.13-2.3,17.57-6.83a32.47,32.47,0,0,0,8.23-15,65.9,65.9,0,0,0,2-16.29,70.57,70.57,0,0,0-1-12.15,43.15,43.15,0,0,0-3.86-11.82,26.4,26.4,0,0,0-8.74-10.08A24.5,24.5,0,0,0,861,37.77Zm.1,46a50.75,50.75,0,0,1-.52-7.89,51.36,51.36,0,0,1,.52-7.85,42.35,42.35,0,0,1,.59,7.85,43.52,43.52,0,0,1-.59,7.89Z" fill="#fff"/><path d="M774.43,110.5a27.52,27.52,0,0,1-11.37-2.43,21.4,21.4,0,0,1-9-7.42,19.88,19.88,0,0,1-3.48-11.59,19.56,19.56,0,0,1,2.66-9.83,22.76,22.76,0,0,1,3.41-4.54,18,18,0,0,1-4.59-12.32,22.7,22.7,0,0,1,1.77-9.24,17.93,17.93,0,0,1,5.24-6.84,21.47,21.47,0,0,1,7.46-3.86A30.5,30.5,0,0,1,775,41.27a22.14,22.14,0,0,1,15.25,5.52c4.21,3.76,6.35,9,6.35,15.49a18.86,18.86,0,0,1-4.27,11.86,21.08,21.08,0,0,1,3.75,4.72,20.38,20.38,0,0,1,2.39,10.2,20,20,0,0,1-2.14,9.24,20.68,20.68,0,0,1-5.69,6.86,24.74,24.74,0,0,1-7.74,4A28.34,28.34,0,0,1,774.43,110.5ZM774.78,84a3.7,3.7,0,1,0,3.34,3.68A3.53,3.53,0,0,0,774.78,84Zm0-23.65a2.88,2.88,0,1,0,2.56,2.86A2.72,2.72,0,0,0,774.78,60.38Z"/><path d="M775,44.77A18.68,18.68,0,0,1,788,49.4q5.17,4.62,5.18,12.88a15,15,0,0,1-1.68,6.88,12.94,12.94,0,0,1-4.29,5,.11.11,0,0,0,0,.18,20.28,20.28,0,0,1,5.91,6.24A16.86,16.86,0,0,1,795,89.06a16.34,16.34,0,0,1-1.75,7.63,17.09,17.09,0,0,1-4.73,5.7,20.93,20.93,0,0,1-6.64,3.46,24.64,24.64,0,0,1-7.45,1.15,23.91,23.91,0,0,1-9.93-2.12,17.94,17.94,0,0,1-7.56-6.22,16.43,16.43,0,0,1-2.85-9.6A16,16,0,0,1,756.28,81a18.5,18.5,0,0,1,5.54-6.07.11.11,0,0,0,0-.18,15,15,0,0,1-6.25-12.35A19.24,19.24,0,0,1,757,54.55,14.4,14.4,0,0,1,761.27,49a18,18,0,0,1,6.26-3.23,26.76,26.76,0,0,1,7.5-1m-.25,24.84a6.37,6.37,0,1,0-6-6.37,6.22,6.22,0,0,0,6,6.37m0,25.28A7.19,7.19,0,1,0,768,87.71a7,7,0,0,0,6.83,7.18M775,37.77a34,34,0,0,0-9.47,1.3,25.07,25.07,0,0,0-8.66,4.48,21.42,21.42,0,0,0-6.26,8.17,26.08,26.08,0,0,0-2.07,10.65,21.64,21.64,0,0,0,3.59,12.18,27.17,27.17,0,0,0-1.94,2.94,22.88,22.88,0,0,0-3.13,11.57,23.35,23.35,0,0,0,4.1,13.59,24.93,24.93,0,0,0,10.44,8.62,31,31,0,0,0,12.8,2.73,32.09,32.09,0,0,0,9.55-1.47,28.21,28.21,0,0,0,8.83-4.61,24.15,24.15,0,0,0,6.66-8A23.44,23.44,0,0,0,802,89.06a23.85,23.85,0,0,0-2.85-11.93,22.64,22.64,0,0,0-2.29-3.29c.29-.49.58-1,.84-1.52a22.09,22.09,0,0,0,2.43-10c0-7.45-2.6-13.71-7.52-18.1A25.52,25.52,0,0,0,775,37.77Z" fill="#fff"/><path d="M662.22,110.42a28.83,28.83,0,0,1-15.86-4.71A33.46,33.46,0,0,1,635,93.14a38.11,38.11,0,0,1,0-34.57,33.79,33.79,0,0,1,11.4-12.63,28.81,28.81,0,0,1,15.87-4.72,29.38,29.38,0,0,1,5.5.52,3.49,3.49,0,0,1,2.85,3.43V59.28a3.5,3.5,0,0,1-4.87,3.22,8.76,8.76,0,0,0-3.48-.7,9.21,9.21,0,0,0-5.47,1.82,14.08,14.08,0,0,0-4.36,5.26,15.65,15.65,0,0,0-1.63,7,15.24,15.24,0,0,0,1.67,7,13.57,13.57,0,0,0,4.35,5.25,8.94,8.94,0,0,0,5.44,1.83,8.71,8.71,0,0,0,3.47-.7,3.49,3.49,0,0,1,1.38-.29,3.5,3.5,0,0,1,3.5,3.5v14a3.5,3.5,0,0,1-2.84,3.44A29.57,29.57,0,0,1,662.22,110.42Z"/><path d="M662.22,44.72a25.89,25.89,0,0,1,4.85.45V59.28a12.36,12.36,0,0,0-4.85-1,12.71,12.71,0,0,0-7.5,2.47,17.62,17.62,0,0,0-5.46,6.54,19.36,19.36,0,0,0-2,8.55,18.82,18.82,0,0,0,2,8.55A17.07,17.07,0,0,0,654.76,91a12.37,12.37,0,0,0,7.46,2.47,12.2,12.2,0,0,0,4.85-1v14a25.61,25.61,0,0,1-18.81-3.69,29.87,29.87,0,0,1-10.21-11.28,34.61,34.61,0,0,1,0-31.3,30.21,30.21,0,0,1,10.21-11.32,25.26,25.26,0,0,1,14-4.15m0-7A32.29,32.29,0,0,0,644.46,43,37.32,37.32,0,0,0,631.87,56.9a41.61,41.61,0,0,0,0,37.84,36.94,36.94,0,0,0,12.61,13.91,32.29,32.29,0,0,0,17.76,5.27,33.06,33.06,0,0,0,6.16-.58,7,7,0,0,0,5.69-6.88v-14h-7L664.31,86a5.27,5.27,0,0,1-2.09.42,5.34,5.34,0,0,1-3.33-1.13l-.08-.05a10.24,10.24,0,0,1-3.24-3.93,12,12,0,0,1-1.31-5.45,12.24,12.24,0,0,1,1.28-5.45,10.65,10.65,0,0,1,3.28-4,5.64,5.64,0,0,1,3.4-1.15,5.29,5.29,0,0,1,2.12.43,7,7,0,0,0,9.73-6.45V45.17a7,7,0,0,0-5.69-6.87,33.06,33.06,0,0,0-6.16-.58Z" fill="#fff"/><path id="path3346" d="M889.69,70.61c-.27-.09-.38-1-.38-2.85,0-2.19.09-2.74.48-2.89s3.49-.19,7.16-.19c10.1,0,9.71.42,10-10.84.16-5.34.34-7.86.58-8a11.14,11.14,0,0,1,3-.15l2.61.08v8.92c0,7.63-.09,9.09-.52,10a9.79,9.79,0,0,1-7.58,5.84c-1.87.33-14.47.4-15.37.09Zm26.46-.1c-.67-.27-.7-.41-.61-3l.09-2.7,5.38-.16c6-.17,7-.46,7.83-2.29.47-1,1.25-15.7.9-17-.11-.42,0-.73.24-.83.72-.26,6.1-.37,5.94-.13a.35.35,0,0,0,.18.43.4.4,0,0,1,.08.56c-.13.2-.24,4.31-.24,9.14,0,8.49,0,8.82-.69,10.17a10.12,10.12,0,0,1-7.11,5.73C926.15,70.89,917.26,71,916.15,70.51ZM957.71,68l.09-2.85,1.85-.18a9.5,9.5,0,0,0,2.46-.51C962.94,64,975.5,51.33,975.5,51c0-1-.5-1.07-8.64-1.15l-8.13-.09-.09-2.55a7.41,7.41,0,0,1,.24-3c.28-.33,2-.38,8.87-.26,4.69.09,9,.29,9.49.45,3.32,1,5.07,6.09,3.32,9.6a18.22,18.22,0,0,1-2.38,2.91l-1.88,1.92.8.85c1.95,2.07,5.79,9.19,5.79,10.73,0,.34-.59.44-2.87.44h-2.88L976.35,69c-1-2.3-3.32-5.87-3.82-5.87a19.51,19.51,0,0,0-3.24,2.94c-3.78,3.88-5.46,4.76-9.09,4.76h-2.58l.09-2.85Zm-20.1-8.31a21.66,21.66,0,0,1,.28-4.91c.12-.12,5.17-.27,11.23-.34,9.88-.11,11-.08,11.28.37a10.47,10.47,0,0,1,.22,3l0,2.46-11.46.09-11.47.08,0-.7Zm-47.23-1.12-1.23-.19.1-2.62a12.36,12.36,0,0,1,.31-2.83,55.17,55.17,0,0,1,6.36-.29l6.16-.08.09,2.88c.06,2,0,3-.28,3.12-.45.27-9.76.28-11.51,0ZM916,57.27c-.49-.28-.52-.84-.35-6.38.12-4,.31-6.15.53-6.3a11,11,0,0,1,3-.15l2.61.07.07,5.85c0,3.22,0,6.16-.09,6.55-.13.65-.29.69-2.68.68a10.8,10.8,0,0,1-3.06-.32Zm-25.53-7-1.13-.11,0-2.75a7.55,7.55,0,0,1,.36-2.86c.17-.06,3.08-.1,6.46-.08l6.16,0-.11,2.77a21.3,21.3,0,0,1-.25,3c-.14.23-9.39.23-11.54,0Zm-297.77-20a65.66,65.66,0,0,1,1.22-6.95c.75-3.68,1.37-7,1.37-7.3a3.72,3.72,0,0,0-1.07-1.71l-1.07-1.1.6-.81c1.13-1.53,4.23-4.65,4.61-4.65s.54.11,6.31,6.56a34.78,34.78,0,0,0,4.51,4.59,53,53,0,0,0,1.37-5.57c.76-3.48,1.31-5.39,1.6-5.5.86-.33,5.08,2.12,4.82,2.79a4.56,4.56,0,0,1-1.69,1.14,8.41,8.41,0,0,0-1.85,1.09c-.17.21-1.07,4-2,8.34-2,9.47-1.87,9-2.6,9s-1.69-1.08-7.37-7.49c-2.08-2.34-3.89-4.14-4-4a44.48,44.48,0,0,0-1.54,6.69c0,.22.55.77,1.23,1.22,1.86,1.24,1.66,1.8-1.06,2.93C593.74,30.54,593,30.69,592.72,30.25Zm50.42-.06a10.88,10.88,0,0,1-5.12-4c-1.91-2.88-2.16-6-.76-9.78,1.73-4.65,9.33-9.18,14.92-8.89l1.78.09,1,2c1.46,3,1.5,3.27.6,3.86a5.63,5.63,0,0,1-2,.67c-1.19.16-1.22.13-2.48-1.72-.85-1.25-1.49-1.88-1.9-1.88-1.13,0-3.57,1.49-5,3C642,16,641.63,18.35,643.08,21c1.62,2.94,4.8,3.43,9.13,1.39,2-1,2.61-1.12,2.82-.78.37.6-3.15,7.53-4.17,8.2S644.69,30.67,643.14,30.19Zm226.17-.28c-.37-.69-.44-3.61-.09-3.82.13-.08,2.51-.25,5.29-.37,4.72-.21,5.11-.28,5.77-.94s1-3,.37-3.38a21.85,21.85,0,0,0-4-.16c-4.24.06-4.4,0-4.26-2.48l.1-1.64,3.88-.19a27.08,27.08,0,0,0,4.24-.41c.43-.26.45-2.78,0-3.58-.28-.54-.67-.6-4.3-.6-4.62,0-4.52-.06-5.37,3.39s-.87,3.39-2.54,3.38c-2.16,0-2.86-.26-2.86-1.05a49.79,49.79,0,0,1,2.61-9,3.14,3.14,0,0,1,1.22-1,57.86,57.86,0,0,1,7.14-.35c7-.09,7.64,0,8.86,1.67.6.82.65,1.33.74,8.15.1,8.34-.06,9.18-2.14,11-1.65,1.41-2.93,1.68-9.11,1.87-5,.16-5.31.14-5.61-.43ZM614.17,30c-1.34-.18-1.27-.61.21-1.21s1.53-.87,2.33-5.05c.27-1.43.57-2.85.65-3.15s-.09-.63-.63-.84c-1-.39-1-.68.2-1.24.93-.44,1-.63,1.67-3.69.91-4.22.9-4.61-.12-5.43-.47-.37-.74-.79-.59-.93a89.9,89.9,0,0,1,9.46-.37c8.08-.09,9.23,0,9.39.37a12,12,0,0,1-.38,3.18c-.43,2.06-.7,2.73-1.11,2.81a.64.64,0,0,1-.72-.46c-1.08-3.41-1.9-4.1-4.86-4.09a8.72,8.72,0,0,0-2.62.27c-.5.32-1.92,7.13-1.56,7.52s2.8-.82,3.82-1.91c1.69-1.8,2.36-1.18,1.73,1.59-.16.71-.52,2.37-.79,3.68-.6,2.87-1.09,3.05-2.46.91-.94-1.46-2.35-2.3-2.91-1.74a37.29,37.29,0,0,0-1.67,7.6c.21.33,4.22.3,5.1,0a12.93,12.93,0,0,0,4.06-4c.5-1,1.2-1.29,1.56-.72a14.34,14.34,0,0,1-.48,3.38c-.47,2.21-.81,3.14-1.16,3.24-.71.19-16.92.45-18.12.28Zm42.92,0a10.93,10.93,0,0,1,0-4.3,4,4,0,0,1,1.33-.81,4.77,4.77,0,0,0,1.77-1.39c.63-.88.66-1.26.66-7.75a45,45,0,0,1,.32-7.42c.26-.49.65-.59,2.23-.59A7,7,0,0,1,665.8,8c.37.24.45,1.57.46,7.92v7.64l-.87,1.77a8.86,8.86,0,0,1-4.81,4.38c-1.38.49-3.15.62-3.5.26Zm19-.52a9.48,9.48,0,0,1-2.67-2c-2-2.28-2.17-3.28-2.31-11.28-.1-5,0-7.32.22-7.79s.56-.65,2.72-.57l2.37.09.15,7.29c.19,8.7.09,8.45,3.7,10.11.49.23.8,2.92.47,4.21-.15.62-.37.71-1.63.71a8,8,0,0,1-3-.73Zm69.88.31a11.74,11.74,0,0,1-.07-2.51c.09-2.06.11-2.1,1.08-2.43,2.09-.71,2.07-.64,2.24-9l.16-7.61,2.11-.29c3.29-.44,3.11-.88,3.2,7.84.07,6.08,0,7.8-.4,9.15a7.33,7.33,0,0,1-4.78,4.83c-2,.59-3.33.61-3.54.06Zm24.1.23c-.4-.4-.26-4.73.17-4.78.21,0,3.22-.13,6.69-.23l6.31-.19V13.11L776.63,13,770,12.81l-.09-2.13a6.58,6.58,0,0,1,.16-2.37,76.13,76.13,0,0,1,8.27-.3c8.79,0,8.88,0,10,1.78.55.88.63,1.72.8,8.78.21,8.84.11,9.5-1.65,10.71-1.13.76-1.18.77-9.17.86a78.06,78.06,0,0,1-8.26-.13Zm20.33,0a7.81,7.81,0,0,1-.23-2.44V25.36l1.89-.2c1-.11,3.88-.19,6.31-.19h4.41l1-.9,1-.9.16-6.66c.12-5.46.23-6.7.61-6.94.6-.38,4.53-.39,4.76,0,.09.15.2,3.38.22,7.16.05,6.31,0,7-.57,8.27a8.27,8.27,0,0,1-4.18,4.33c-1.51.68-2.06.73-8.39.83a55.35,55.35,0,0,1-7-.12Zm25.68-.29a6.61,6.61,0,0,1-3.51-3c-.65-1.23-.68-1.64-.69-9.68,0-7.14.06-8.45.45-8.7a8.32,8.32,0,0,1,2.77-.22l2.31.08.08,1.54c.17,3.2-.46,2.92,6.56,2.92h6.17l-.09,2.23-.1,2.24-6.15.17c-3.39.1-6.21.2-6.26.23a25.18,25.18,0,0,0,0,3.28c.14,4.53-.26,4.28,7.42,4.47l6.23.16.09,2.13c.06,1.49,0,2.2-.31,2.38a55.75,55.75,0,0,1-7.17.24C818.68,30.18,816.88,30.07,816.09,29.73Zm17.26.27c-.42-.18-.53-3.39-.13-4,.14-.23,1.26-.41,3-.46l2.76-.09.1-1.61c.13-2.39-.23-2.86-2.23-2.86s-2.41-.41-2.3-2.06c.14-2.07.36-2.25,2.67-2.22,3.83,0,5.31.39,6.28,1.47.82.92.87,1.14.87,3.72,0,3.67,0,3.71,2,3.71,1.32,0,1.72.12,2,.6.44.81.4,3.2-.05,3.65-.27.27-2.33.36-7.47.35-3.9,0-7.26-.1-7.48-.18Zm-130.06-.28c-.4-.41-.27-4.34.15-4.69a21.86,21.86,0,0,1,4.91-.42c4.32-.1,4.55-.14,5.34-.88,1.31-1.2,1.6-2.25,2.5-9a39.73,39.73,0,0,1,1.17-6.5A10.31,10.31,0,0,1,720.07,8h2.38V8.9c0,.48-.21,2.45-.47,4.39s-.68,5.14-.93,7.13a28.8,28.8,0,0,1-.82,4.46A9.26,9.26,0,0,1,716.37,29c-1.34.66-1.94.73-7.16.83a40,40,0,0,1-5.92-.12Zm22.86-2.25V25H728a9.64,9.64,0,0,0,2.89-.43c1.79-.75,2-1.41,2-5.65V15.11h-4a22,22,0,0,1-4.62-.31c-.5-.27-.6-.66-.6-2.43,0-2.56-.17-2.48,5.25-2.48h3.86l.3-1,.29-1h4.87L738.61,9,739,10l4.28.15,4.28.15V15h-4.21a26.58,26.58,0,0,0-4.4.2,25.65,25.65,0,0,0-.33,4.25c-.15,4.68-.56,6-2.56,8-1.76,1.75-3.06,2.22-6.74,2.42l-3.15.17V27.47Zm32.6,1.63-.74-.8-.09-10c-.09-10-.09-10,.58-10.32s4.37-.31,4.71,0c.09.08.18,3.12.21,6.76s.15,7.3.25,8.14c.21,1.75.22,1.75,3.8,1.26l1.77-.25v2.31c0,1.57-.13,2.42-.42,2.65-.52.44-4.27.94-7.14.95-1.95,0-2.26-.07-2.93-.78Zm86.66-8.31a9.23,9.23,0,0,1,.32-4.07c.27-.27,17.16-.5,18.2-.24.71.18.75.31.75,2.45v2.26l-1,.2c-.53.1-4.83.19-9.54.19H845.6ZM686.5,21,682.1,21l.09-2.37.09-2.36,1-.2c.52-.11,4.78-.13,9.46,0l8.51.15v2.39c0,1.89-.1,2.43-.49,2.57S696.22,21.25,686.5,21Zm16.13-2.77a79.32,79.32,0,0,1-1.06-9.5c.1-.89.11-.89,2.49-1,1.74-.07,2.43,0,2.54.31.23.63,1.38,8.8,1.38,9.8v.91h-2.59c-2.21,0-2.62-.08-2.76-.54Zm129.82-3.9c-3.21-1.45-2.11-6.46,1.51-6.87a3.5,3.5,0,0,1,4.15,4A4,4,0,0,1,832.45,14.37Zm2.92-3.13a1.28,1.28,0,0,0-.38-1,1,1,0,0,0-1.39,1.39,1,1,0,0,0,1.77-.35ZM679.05,14a3.84,3.84,0,0,1-2-3.8c.89-4.08,6.81-4.3,7.69-.29A3.88,3.88,0,0,1,679.05,14Zm2.61-3.33c0-.7-.14-.92-.58-.92a1.14,1.14,0,0,0-1,1.52.77.77,0,0,0,.9.42c.54-.07.69-.3.69-1Zm108.77,2.21a4,4,0,0,1-.39-2.38c0-1.93.05-2,1-2.21a41.17,41.17,0,0,1,5.67-.17l4.69.09v4.92l-5.28.09C792,13.26,790.76,13.19,790.43,12.86ZM993,46.21a2.44,2.44,0,1,1-2.44-2.44A2.44,2.44,0,0,1,993,46.21Zm-5.83,0a2.45,2.45,0,1,1-2.45-2.44A2.45,2.45,0,0,1,987.17,46.21Z"/><path d="M608.34,84.16V71.55h2.16a9.19,9.19,0,0,0,5.88-1.66,5.8,5.8,0,0,0,2.06-4.8,5.64,5.64,0,0,0-2.06-4.69,9.25,9.25,0,0,0-5.88-1.64h-4v47.49l-13.91,0V46.15h16.9a43.13,43.13,0,0,1,9.65.94,19.05,19.05,0,0,1,7,3.1,13.88,13.88,0,0,1,4.55,5.91,23.22,23.22,0,0,1,1.59,9.07,18.9,18.9,0,0,1-1.59,7.88,17.27,17.27,0,0,1-4.43,6,20.32,20.32,0,0,1-6.74,3.79,25.08,25.08,0,0,1-8.17,1.34Z"/><path d="M669.54,78.69V70.16h31.73v8.53Z"/><path d="M730.33,105.66l-16.55-.13q7.94-8.13,11.78-12.34a65.31,65.31,0,0,0,6.72-8.65l-.16-.17a11.1,11.1,0,0,1-4.43.8,15.85,15.85,0,0,1-9-2.56,16.92,16.92,0,0,1-5.94-6.94,21.93,21.93,0,0,1-2.09-9.62,23.73,23.73,0,0,1,2.53-11.14,18,18,0,0,1,7.18-7.5A20.93,20.93,0,0,1,731,44.77a22.11,22.11,0,0,1,10.95,2.7,18.83,18.83,0,0,1,7.52,7.67,24.1,24.1,0,0,1,2.67,11.59,36,36,0,0,1-5.82,19.53A116.82,116.82,0,0,1,730.33,105.66ZM739,65.89a7.93,7.93,0,0,0-1-4A8.06,8.06,0,0,0,735.15,59a7.25,7.25,0,0,0-3.87-1.09A6.88,6.88,0,0,0,726,60.23a8,8,0,0,0-2.15,5.66,9,9,0,0,0,1,4.06,7.4,7.4,0,0,0,2.67,3,6.92,6.92,0,0,0,3.79,1.09,7.21,7.21,0,0,0,5.47-2.39A8.19,8.19,0,0,0,739,65.89Z"/><path d="M817.57,44.77a17.59,17.59,0,0,1,10.21,2.85,19.39,19.39,0,0,1,6.44,7.43A35.86,35.86,0,0,1,837.45,65a63.3,63.3,0,0,1,.94,10.93,58.74,58.74,0,0,1-1.8,14.57,25.26,25.26,0,0,1-6.44,11.79Q825.51,107,817.57,107a17.18,17.18,0,0,1-10-2.83,19.41,19.41,0,0,1-6.4-7.54,37.5,37.5,0,0,1-3.23-9.93A62.46,62.46,0,0,1,797,75.9a63.15,63.15,0,0,1,.91-10.83,36.94,36.94,0,0,1,3.23-9.95,19.52,19.52,0,0,1,6.4-7.53A17.25,17.25,0,0,1,817.57,44.77Zm0,13.36a5.15,5.15,0,0,0-4.44,2.25,14.82,14.82,0,0,0-2.3,6.16,56,56,0,0,0-.67,9.36,57.1,57.1,0,0,0,.65,9.33,14.4,14.4,0,0,0,2.32,6.18,5.21,5.21,0,0,0,4.44,2.26q7.7,0,7.7-17.77T817.57,58.13Z"/><path d="M861,44.77a17.56,17.56,0,0,1,10.2,2.85,19.23,19.23,0,0,1,6.44,7.43A35.86,35.86,0,0,1,880.83,65a62.33,62.33,0,0,1,.94,10.93A59.21,59.21,0,0,1,880,90.47a25.43,25.43,0,0,1-6.44,11.79Q868.89,107,861,107a17.16,17.16,0,0,1-10-2.83,19.25,19.25,0,0,1-6.4-7.54,37.14,37.14,0,0,1-3.23-9.93,62.45,62.45,0,0,1-.92-10.8,63.14,63.14,0,0,1,.92-10.83,36.6,36.6,0,0,1,3.23-9.95,19.36,19.36,0,0,1,6.4-7.53A17.23,17.23,0,0,1,861,44.77Zm0,13.36a5.18,5.18,0,0,0-4.45,2.25,14.68,14.68,0,0,0-2.29,6.16,55.91,55.91,0,0,0-.68,9.36,57,57,0,0,0,.66,9.33,14.53,14.53,0,0,0,2.31,6.18A5.23,5.23,0,0,0,861,93.67q7.69,0,7.69-17.77T861,58.13Z"/><path d="M755.57,62.37A19.24,19.24,0,0,1,757,54.55,14.4,14.4,0,0,1,761.27,49a18,18,0,0,1,6.26-3.23,26.76,26.76,0,0,1,7.5-1A18.68,18.68,0,0,1,788,49.4q5.17,4.62,5.18,12.88a15,15,0,0,1-1.68,6.88,12.94,12.94,0,0,1-4.29,5,.11.11,0,0,0,0,.18,20.28,20.28,0,0,1,5.91,6.24A16.86,16.86,0,0,1,795,89.06a16.34,16.34,0,0,1-1.75,7.63,17.09,17.09,0,0,1-4.73,5.7,20.93,20.93,0,0,1-6.64,3.46,24.64,24.64,0,0,1-7.45,1.15,23.91,23.91,0,0,1-9.93-2.12,17.94,17.94,0,0,1-7.56-6.22,16.43,16.43,0,0,1-2.85-9.6A16,16,0,0,1,756.28,81a18.5,18.5,0,0,1,5.54-6.07.11.11,0,0,0,0-.18A15,15,0,0,1,755.57,62.37Zm19.21-5.49a6.37,6.37,0,1,0,6.06,6.36A6.21,6.21,0,0,0,774.78,56.88Zm0,23.65a7.19,7.19,0,1,0,6.84,7.18A7,7,0,0,0,774.78,80.53Z"/><path d="M667.07,59.28a12.36,12.36,0,0,0-4.85-1,12.71,12.71,0,0,0-7.5,2.47,17.53,17.53,0,0,0-5.46,6.54,19.36,19.36,0,0,0-2,8.55,18.82,18.82,0,0,0,2,8.55A17.07,17.07,0,0,0,654.76,91a12.37,12.37,0,0,0,7.46,2.47,12.2,12.2,0,0,0,4.85-1v14a25.61,25.61,0,0,1-18.81-3.69,29.87,29.87,0,0,1-10.21-11.28,34.61,34.61,0,0,1,0-31.3,30.21,30.21,0,0,1,10.21-11.32,25.26,25.26,0,0,1,14-4.15,25.89,25.89,0,0,1,4.85.45Z"/></g><g id="Layer_3" data-name="Layer 3"><rect x="660.37" y="83.9" width="11.17" height="8.5" fill="#fff"/><rect x="667.24" y="88.15" width="4.96" height="9.03" fill="#fff"/></g></svg>