<svg id="Layer_1" data-name="Layer 1" xmlns="http://www.w3.org/2000/svg" viewBox="0 0 1000 114"><path d="M484,110.5a4.17,4.17,0,0,1-3.26-1.5c-.4-.46-.61-.78-2.77-6.29L473.69,91.8a6.06,6.06,0,0,1-2.31.46,6.46,6.46,0,0,1-3.33-1,6.64,6.64,0,0,1-3.18-5.91,7.25,7.25,0,0,1,.41-2c-.91-.39-2.1-.87-2.56-1a8.14,8.14,0,0,1-1.47-.55s-.41-.17-.45-.2l-.73-.32c-.33-.1-.69-.23-1.31-.47l-.42-.15-.88-.34c-.29-.13-1.15-.47-1.92-.76s-2.7-1.07-4.12-1.64c-2.43-1-4-1.65-4.72-3.66a4.16,4.16,0,0,1,.93-4.49c1.34-1.5,1.34-1.5,14.45-1.5h10.07l10.88-11c3.42-3.45,6.16-6.21,8.13-8.21-1.53-.65-18.58-7.39-20.06-7.93a13.77,13.77,0,0,1-1.55-.61l-.14-.06c-.3-.15-.59-.27-.76-.34l-.56-.19-.29-.11-.23-.09-.29-.12-.39-.13-.07,0-.68-.26c-.5-.21-1.79-.74-2.36-1a4.92,4.92,0,0,1-1.56-.57,3.24,3.24,0,0,1-.32-.17l-.52-.21-1.8-.7c-2.51-1-3.73-1.54-4.72-2.58A6.75,6.75,0,0,1,453,29.57a6.86,6.86,0,0,1,3.14-5.4l.64-.39a3.52,3.52,0,0,1,1.84-.53h58.57l6.14-6.09c7.28-7.24,7.87-7.83,10.36-9.31a41.09,41.09,0,0,1,9.24-4h0a10.89,10.89,0,0,1,2.68-.29h.48a6.94,6.94,0,0,1,6.61,3.63c2.16,4.12-.46,10.48-2.21,13.9-2.23,4.31-3.3,5.52-10.74,13l-6,6V98.53a3.5,3.5,0,0,1-.58,1.94l-.43.65a6.47,6.47,0,0,1-5.38,2.88l-.6,0c-4-.35-5-3.13-6.51-7-1.31-3.39-2.26-5.81-3.07-7.88L516.41,87c-.58-1.42-1.86-4.73-2.91-7.46-2.37-6.11-4.15-10.66-5.35-13.71-2,2-4.9,4.85-8.42,8.37L488.62,85.26v9.79c0,12.55,0,12.55-1.21,13.92A4.63,4.63,0,0,1,484,110.5Z" fill="#333"/><path d="M546.16,7c1.86,0,2.85.51,3.51,1.77,1,1.93.18,6-2.23,10.66-2,3.8-2.66,4.64-10.1,12.12l-7,7.07V98.53l-.43.65a2.88,2.88,0,0,1-2.46,1.32h-.3c-1.56-.14-2-.71-3.54-4.74-1.8-4.66-2.92-7.48-3.93-10.08-.59-1.45-1.88-4.79-2.9-7.44-4-10.31-7.22-18.49-7.3-18.57h0c-.12,0-5.6,5.4-12.21,12L485.12,83.81V95.05c0,10.18,0,11.27-.33,11.6a1.11,1.11,0,0,1-.81.35.72.72,0,0,1-.58-.25c-.12-.13-1.1-2.52-2.2-5.32s-2.44-6.28-3-7.73l-1.7-4.35c-.57-1.43-.77-1.74-1.31-2a1.37,1.37,0,0,0-.55-.19c-.24,0-.47.18-1.06.65a3.56,3.56,0,0,1-2.19,1,3,3,0,0,1-1.57-.49,3.1,3.1,0,0,1-1.45-2.68,3.39,3.39,0,0,1,1.14-2.38c.55-.59.57-.63.29-1.3a1.46,1.46,0,0,0-.9-.9,2,2,0,0,0-.51-.12c-.06,0-.09,0-.09,0s0,0,0,0-.08,0-.13-.1a32.31,32.31,0,0,0-4.62-1.94c-.12,0-.65-.26-1.19-.49s-1.06-.47-1.18-.51a10.64,10.64,0,0,1-1.21-.43c-.2-.06-.39-.14-.45-.16l-.69-.27c-.31-.14-1.25-.51-2.05-.8l-4-1.61c-2.15-.88-2.56-1.11-2.72-1.56a.75.75,0,0,1,.18-.94c.35-.4.55-.4,11.9-.4h11.53l11.9-12c6.54-6.58,11.88-12,11.84-12a1.14,1.14,0,0,0-.43-.14,2.13,2.13,0,0,1-.39-.1,1.09,1.09,0,0,0-.19-.1,3.23,3.23,0,0,1-.65-.23c-.27-.12-1-.41-1.57-.63l-1.46-.6c-.75-.36-20.26-8.07-20.52-8.11a12.35,12.35,0,0,1-1.21-.49,11.91,11.91,0,0,0-1.18-.5c-.09,0-.45-.16-.78-.28a4.8,4.8,0,0,0-.78-.29l-.75-.28a21.35,21.35,0,0,0-3.08-1.18h-.06a3.77,3.77,0,0,1-.52-.24c-.27-.15-.52-.29-.58-.31a2,2,0,0,1-.49-.18c-.22-.07-1.06-.41-1.86-.72-2.23-.86-3-1.25-3.47-1.74a3.24,3.24,0,0,1-.84-2.06,3.45,3.45,0,0,1,1.45-2.4l.67-.42h60l7.16-7.1c7.26-7.22,7.62-7.56,9.69-8.79a38.24,38.24,0,0,1,8.11-3.62,1.49,1.49,0,0,0,.54-.14S545,7,545.84,7h.32m0-7h-.63a15.72,15.72,0,0,0-3.26.36c-2.75.54-7.86,3-10.35,4.49-2.84,1.69-3.61,2.46-11,9.83l-5.11,5.06H458.66A7,7,0,0,0,455,20.8l-.65.4a10.34,10.34,0,0,0-4.79,8.37,10.33,10.33,0,0,0,2.71,6.82l.08.09c1.58,1.64,3.48,2.45,6,3.42l.73.29,1,.38.38.16.22.12a9,9,0,0,0,2.17.81l1.94.8.08,0,.81.3.06,0,.41.15h0a4.78,4.78,0,0,0,.48.19l.26.1.54.19.45.2.28.13c.76.32,1.31.56,1.85.73,1.47.55,9.55,3.73,15,5.88l-4.42,4.45-9.86,9.93h-8.61c-5.78,0-8.68,0-10.3.06a8.74,8.74,0,0,0-6.75,2.6,7.68,7.68,0,0,0-1.62,8c1.23,3.47,4.12,4.65,6.66,5.69l4.12,1.65.14,0c.72.26,1.49.57,1.66.64l.14.06c.62.26.87.35,1,.41l.42.14c.49.19.9.35,1.31.47l.4.19.28.12.28.12a13.21,13.21,0,0,0,1.52.6,10.18,10.18,0,0,0,4.95,8.74,10,10,0,0,0,5.07,1.42h.1l.19.49c.25.62.64,1.62,1.09,2.78.6,1.54,1.3,3.36,1.93,5,2.38,6.08,2.6,6.4,3.35,7.28A7.7,7.7,0,0,0,484,114a8.12,8.12,0,0,0,6-2.65l.06-.06c1.89-2.15,2-4.59,2-6.54.05-1.71.06-4.61.06-9.7V86.71L502.2,76.63,506.83,72c1,2.45,2.1,5.36,3.42,8.76,1.16,3,2.33,6,2.91,7.49l.84,2.12c.81,2.07,1.76,4.49,3.07,7.9,1.55,4,3.32,8.64,9.46,9.18.31,0,.62,0,.91,0a9.92,9.92,0,0,0,8.22-4.33l.07-.11.43-.65a7,7,0,0,0,1.17-3.88v-57l5-5c7.66-7.7,8.92-9.11,11.35-13.84,2.53-4.93,5-11.89,2.21-17.13C554.53,3,551.77,0,546.16,0Z" fill="#fff"/><path d="M544.17,7.1a1.49,1.49,0,0,1-.54.14,38.24,38.24,0,0,0-8.11,3.62c-2.07,1.23-2.43,1.57-9.69,8.79l-7.16,7.1h-60l-.67.42a3.45,3.45,0,0,0-1.45,2.4,3.24,3.24,0,0,0,.84,2.06c.47.49,1.24.88,3.47,1.74.8.31,1.64.65,1.86.72a2,2,0,0,0,.49.18c.06,0,.31.16.58.31a2.49,2.49,0,0,0,.53.24c.1-.06.69.16,3.13,1.17l.75.28a4.8,4.8,0,0,1,.78.29c.33.12.69.26.78.28a11.91,11.91,0,0,1,1.18.5,12.35,12.35,0,0,0,1.21.49c.26,0,19.77,7.75,20.52,8.11l1.46.6c.59.22,1.3.51,1.57.63a3.23,3.23,0,0,0,.65.23,1.09,1.09,0,0,1,.19.1,2.13,2.13,0,0,0,.39.1,1.14,1.14,0,0,1,.43.14s-5.3,5.46-11.84,12l-11.9,12H462.08c-11.35,0-11.55,0-11.9.4a.75.75,0,0,0-.18.94c.16.45.57.68,2.72,1.56l4,1.61c.8.29,1.74.66,2.05.8l.69.27c.06,0,.25.1.45.16a10.64,10.64,0,0,0,1.21.43c.12,0,.65.25,1.18.51s1.07.47,1.19.49a32.31,32.31,0,0,1,4.62,1.94c.08.09.16.13.16.05s.27,0,.6.08a1.46,1.46,0,0,1,.9.9c.28.67.26.71-.29,1.3a3.39,3.39,0,0,0-1.14,2.38,3.1,3.1,0,0,0,1.45,2.68c1.31.77,2.37.65,3.76-.46,1-.77,1-.77,1.61-.46s.74.57,1.31,2l1.7,4.35c.57,1.45,1.92,4.93,3,7.73s2.08,5.19,2.2,5.32a1,1,0,0,0,1.39-.1c.29-.33.33-1.42.33-11.6V83.81l12.14-12.13c6.65-6.66,12.15-12.08,12.21-12s3.29,8.26,7.3,18.57c1,2.65,2.31,6,2.9,7.44,1,2.6,2.13,5.42,3.93,10.08,1.55,4,2,4.6,3.54,4.74a2.89,2.89,0,0,0,2.76-1.31l.43-.65V38.62l7-7.07c7.44-7.48,8.14-8.32,10.1-12.12,2.41-4.69,3.25-8.73,2.23-10.66C549,7.44,547.91,7,545.84,7,545,7,544.19,7.08,544.17,7.1Z" fill="#333"/></svg>