<svg id="Ebene_2" data-name="Ebene 2" xmlns="http://www.w3.org/2000/svg" viewBox="0 0 1000 114"><path d="M408.8,3.5H591.2A3.54,3.54,0,0,1,594.7,7V107a3.54,3.54,0,0,1-3.5,3.5H408.8a3.54,3.54,0,0,1-3.5-3.5V7A3.54,3.54,0,0,1,408.8,3.5Z" fill="#fff"/><path d="M591.2,7V107H408.8V7H591.2m0-7H408.8a7,7,0,0,0-7,7V107a7,7,0,0,0,7,7H591.2a7,7,0,0,0,7-7V7A7,7,0,0,0,591.2,0Z" fill="#fff"/><rect x="408.8" y="7" width="182.4" height="100"/><path d="M498.9,83.8l25-24.7a1.42,1.42,0,0,0,.2-.6L498.9,77.6l25.7-26.7L498.9,70.5l24.6-26L498.9,64.6l23.7-26.7c-8.6-7.2-28.8-.8-46.4,14.9-18.4,16.4-26.9,36.9-19.1,45.6s29.1,2.6,47.5-13.8a87.46,87.46,0,0,0,12.6-13.9Z" fill="#5a97d0"/><path d="M487.7,62.4l-8.6-.1V84h8.6V78h8.4V91.2H475a4.41,4.41,0,0,1-4.1-4.1V59.3c0-3,1.4-4.1,4-4.1h21.2V69.6h-8.4Z" fill="#010101"/><path d="M542.6,29.5l-25,24.7a1.42,1.42,0,0,0-.2.6l25.2-19.1L516.9,62.4l25.7-19.6L518,68.8l24.6-20.1L518.9,75.4c8.6,7.2,28.8.8,46.4-14.9,18.4-16.4,26.9-36.9,19.1-45.6s-29.1-2.6-47.5,13.8a87.46,87.46,0,0,0-12.6,13.9Z" fill="#dead2c"/><path d="M571.2,54.4a4.49,4.49,0,0,1-4.1,4.1H546v-36h21.1a4.49,4.49,0,0,1,4.1,4.1Zm-16.8-3.2H563V29.5l-8.6.1Z" fill="#010101"/><path d="M425.3,14.3a3.78,3.78,0,0,1,3-2c2.5-.1,5,0,7.5,0a20.9,20.9,0,0,1-.1,2.5c1-1.1,2.1-2.6,3.8-2.5,3.5-.1,6.9,0,10.4,0V32.6h-7V18.1c-1.3-.1-1.9,1.1-2.5,2.1-2.5,4.2-5.2,8.2-7.7,12.4h-7.4c3-5,6.1-9.8,9.2-14.8-1.5.1-3.5-.4-4.7.9-2.9,4.6-5.8,9.3-8.7,13.9h-7.4C417.6,26.5,421.5,20.4,425.3,14.3Z" fill="#fff"/><path d="M453,14.7c.9-1.2,2.8-2.7,4.6-2.5h15.6v4.5c-3.9.1-7.7-.1-11.6.1-1.4.5-1.7,2.3-2.6,3.4h14.5c-1,1.3-1.9,2.7-2.8,4H458.9V28h14.3v4.4H451.6V20A8.19,8.19,0,0,1,453,14.7Z" fill="#fff"/><path d="M476.4,14.1a5.15,5.15,0,0,1,3.6-1.9h16.7c0,1.5,0,3-.1,4.6H485.7c-2.5-.1-3.5,2.6-4.2,4.5-.1,3-.6,3.1-.2,6.8,3.4.2,6.8.2,10.1.1a18.29,18.29,0,0,0,.2-3.3,38.66,38.66,0,0,0-4.8-.3c.8-1.4,1.7-2.9,2.5-4.4H498V30.3a6.53,6.53,0,0,1-.5,2c-6.7.3-13.3.1-20,.1-1.7.3-2.9-1.6-2.8-3.1,0-3.7-.1-7.4.1-11.1A8,8,0,0,1,476.4,14.1Z" fill="#fff"/><path d="M500,12.3c3.8-.1,7.5,0,11.3,0,2-.2,3.5,1.5,4.5,3,3.5,5.8,7.3,11.5,10.8,17.3h-7.7c-1-1.3-1.7-2.9-3.1-3.8-2.3-.1-4.5,0-6.8,0a36.16,36.16,0,0,1-2-3.3c.1,2.4,0,4.7,0,7.1h-7Zm7.1,4.4v7.6c2.1,0,4.1,0,6.2.1-1.3-2.1-2.4-4.2-3.8-6.3a3.34,3.34,0,0,0-2.4-1.4Z" fill="#fff"/></svg>