<svg id="Layer_1" data-name="Layer 1" xmlns="http://www.w3.org/2000/svg" viewBox="0 0 1000 114"><title>logo</title><path d="M732.36,10.91A17.7,17.7,0,0,1,750,28.56V85.44a17.7,17.7,0,0,1-17.64,17.65H267.63A17.69,17.69,0,0,1,250,85.44V28.56a17.69,17.69,0,0,1,17.63-17.65H732.36m0-7H267.63A24.76,24.76,0,0,0,243,28.54v56.9a24.76,24.76,0,0,0,24.61,24.65H732.36A24.75,24.75,0,0,0,757,85.46V28.56A24.76,24.76,0,0,0,732.38,3.91Z" fill="#fff"/><path d="M750,85.44a17.7,17.7,0,0,1-17.64,17.65H267.63A17.69,17.69,0,0,1,250,85.44V28.56a17.69,17.69,0,0,1,17.63-17.65H732.36A17.7,17.7,0,0,1,750,28.56Z"/><path d="M631.54,71.75,588.78,87.23h43l16.37-9M591.61,27h50.8L710,61.27H683.52L664.87,52.7l-11.5,4.68" fill="red"/><path d="M686.22,42.69,729,27.19H686l-16.37,9m56.57,51.2H675.34L607.72,53.16h26.52l18.65,8.57,11.5-4.68M271,26.58h33.67V67.71H271Zm0,46.18h86.32V85.34H271Zm54.71-46.18h40l27.36,23.05L373.3,64.16m2.94,2.29V85.34H407.8V66.45l61.07-39.87H439.38l-61,39.87M473,32.86l33.67,21V85.34H473m4.2-58.76,86.29,58.78h18.94V26.58H566.05V67.89L504.61,26.58" fill="#fc0"/></svg>