<svg xmlns="http://www.w3.org/2000/svg" viewBox="0 0 317.208 170.917"><linearGradient id="a" gradientUnits="userSpaceOnUse" x1="158.604" y1="170.917" x2="158.604"><stop offset="0" stop-color="#d0cece"/><stop offset=".358" stop-color="#cdcccb"/><stop offset=".645" stop-color="#c4c3c2"/><stop offset=".908" stop-color="#b5b4b3"/><stop offset="1" stop-color="#aeaead"/></linearGradient><path d="M0 64.938L2.083 164.5c0 3.529 2.888 6.417 6.417 6.417h300.208c3.529 0 6.417-2.888 6.417-6.417l2.083-99.563V3.5a3.5 3.5 0 0 0-3.5-3.5H3.5A3.5 3.5 0 0 0 0 3.5v61.438z" fill="url(#a)"/><path d="M315 55.625H3.021V3.45a2.304 2.304 0 0 1 2.304-2.304h307.371A2.304 2.304 0 0 1 315 3.45v52.175z" fill="#d3d1cf"/><linearGradient id="b" gradientUnits="userSpaceOnUse" x1="159.011" y1="158.976" x2="159.011" y2="68.152"><stop offset="0" stop-color="#d8d6d5"/><stop offset=".227" stop-color="#d4d2d1"/><stop offset=".461" stop-color="#c9c6c5"/><stop offset=".7" stop-color="#b7b2b0"/><stop offset=".939" stop-color="#9e9a97"/><stop offset="1" stop-color="#979390"/></linearGradient><path d="M17.465 158.976a1.705 1.705 0 0 1-1.696-1.665l-1.633-87.702c-.008-.386.137-.751.408-1.027s.633-.429 1.021-.429h286.891c.387 0 .749.152 1.02.428s.417.641.41 1.028l-1.633 87.702a1.707 1.707 0 0 1-1.696 1.666H17.465z" fill="url(#b)"/><path d="M300.556 158.125H17.465a.846.846 0 0 1-.846-.831l-1.343-72.138h287.469l-1.343 72.138a.846.846 0 0 1-.846.831zM302.456 69.003H15.565a.58.58 0 0 0-.579.59l.274 14.741h287.5l.274-14.741a.578.578 0 0 0-.578-.59z" fill="#dbdbdb"/><path d="M286.969 80.583h-26.521a.491.491 0 0 1-.49-.49v-4.938c0-.269.22-.49.49-.49h26.521c.269 0 .49.22.49.49v4.938a.492.492 0 0 1-.49.49z" fill="#cecdcb" stroke="#bcbcbc" stroke-width=".1" stroke-miterlimit="10"/><path d="M265.755 78.469h-3.375a.267.267 0 0 1-.266-.266v-1.156c0-.146.12-.266.266-.266h3.375c.146 0 .266.12.266.266v1.156c0 .146-.12.266-.266.266z" fill="#ca6685"/><g fill="#b2b1b1"><path d="M269.864 76.703h.813c.237 0 .407.066.512.198.077.099.116.224.116.374s-.039.273-.116.369c-.103.131-.273.197-.512.197h-.49v.708h-.323v-1.846zm.323.873h.472c.141 0 .238-.053.294-.159a.321.321 0 0 0 .029-.147c-.001-.111-.029-.189-.086-.235a.36.36 0 0 0-.23-.068h-.479v.609zM272.373 76.659c.269 0 .482.093.644.28.161.187.241.416.241.688 0 .272-.08.501-.24.687-.159.185-.374.277-.644.278s-.484-.091-.646-.276a1.017 1.017 0 0 1-.239-.687c0-.272.078-.5.234-.683a.843.843 0 0 1 .65-.287zm-.421 1.463c.093.138.233.207.422.207s.329-.069.422-.208c.093-.139.14-.304.14-.495s-.047-.356-.14-.495a.474.474 0 0 0-.421-.208.477.477 0 0 0-.423.209.86.86 0 0 0-.141.496.874.874 0 0 0 .141.494zM273.37 76.703h.328l.334 1.412h.005l.373-1.412h.331l.361 1.411h.007l.343-1.411h.328l-.509 1.846h-.33l-.369-1.411-.01-.002-.379 1.413h-.328l-.485-1.846zM275.993 76.703h1.328v.279h-1.005v.484h.93v.264h-.93v.541h1.023v.279h-1.347v-1.847zM279.08 78.063c0 .25.034.412.101.486h-.346a.312.312 0 0 1-.043-.131 2.061 2.061 0 0 1-.006-.169c0-.158-.025-.275-.077-.35-.052-.075-.148-.111-.29-.109h-.475v.76h-.323v-1.846h.879c.203 0 .355.044.457.131s.152.208.152.362-.043.275-.129.364c-.034.035-.067.061-.101.076l-.072.031v.005c.118.014.199.084.245.209.02.048.028.108.028.181zm-.607-.521c.211 0 .315-.098.315-.294 0-.158-.066-.249-.199-.271a.674.674 0 0 0-.121-.01h-.523v.576h.528zM280.944 76.659c.269 0 .482.093.644.28.161.187.241.416.241.688 0 .272-.08.501-.24.687-.159.185-.374.277-.644.278s-.484-.091-.646-.276a1.017 1.017 0 0 1-.239-.687c0-.272.078-.5.234-.683a.84.84 0 0 1 .65-.287zm-.422 1.463c.093.138.233.207.422.207s.329-.069.422-.208c.093-.139.14-.304.14-.495s-.047-.356-.14-.495a.474.474 0 0 0-.421-.208.477.477 0 0 0-.423.209.86.86 0 0 0-.141.496.874.874 0 0 0 .141.494zM282.109 76.703h.329l.843 1.36h.005v-1.36h.294v1.846h-.326l-.843-1.357h-.007v1.357h-.295v-1.846z"/></g><path d="M33.858 136.083h-12.82a.633.633 0 0 1-.632-.632v-17.986c0-.348.284-.632.632-.632h12.819c.348 0 .632.284.632.632v17.986a.632.632 0 0 1-.631.632z" fill="#cecdcb" stroke="#bcbcbc" stroke-width=".129" stroke-miterlimit="10"/><path d="M29.135 132.125H25.76a.267.267 0 0 1-.266-.266v-1.156c0-.146.12-.266.266-.266h3.375c.146 0 .266.12.266.266v1.156a.267.267 0 0 1-.266.266z" fill="#3f1f2c"/><g fill="#3f4249" stroke="#000" stroke-width=".25" stroke-miterlimit="10"><path d="M41.525 81H25.433a.477.477 0 0 1-.475-.475v-5.8c0-.261.214-.475.475-.475h16.091c.261 0 .475.214.475.475v5.8a.475.475 0 0 1-.474.475zM36.33 96.813H25.399a.442.442 0 0 1-.441-.441v-7.494c0-.242.198-.441.441-.441H36.33c.242 0 .441.198.441.441v7.494a.442.442 0 0 1-.441.441zM51.414 96.813H40.482a.442.442 0 0 1-.441-.441v-7.494c0-.242.198-.441.441-.441h10.931c.242 0 .441.198.441.441v7.494a.442.442 0 0 1-.44.441zM66.497 96.813H55.566a.442.442 0 0 1-.441-.441v-7.494c0-.242.198-.441.441-.441h10.931c.242 0 .441.198.441.441v7.494a.443.443 0 0 1-.441.441zM81.58 96.813H70.649a.442.442 0 0 1-.441-.441v-7.494c0-.242.198-.441.441-.441H81.58c.242 0 .441.198.441.441v7.494a.442.442 0 0 1-.441.441zM96.664 96.813H85.733a.442.442 0 0 1-.441-.441v-7.494c0-.242.198-.441.441-.441h10.931c.242 0 .441.198.441.441v7.494a.444.444 0 0 1-.441.441zM111.747 96.813h-10.931a.442.442 0 0 1-.441-.441v-7.494c0-.242.198-.441.441-.441h10.931c.242 0 .441.198.441.441v7.494a.442.442 0 0 1-.441.441zM126.831 96.813H115.9a.442.442 0 0 1-.441-.441v-7.494c0-.242.198-.441.441-.441h10.931c.242 0 .441.198.441.441v7.494a.444.444 0 0 1-.441.441zM141.914 96.813h-10.931a.442.442 0 0 1-.441-.441v-7.494c0-.242.198-.441.441-.441h10.931c.242 0 .441.198.441.441v7.494a.443.443 0 0 1-.441.441zM156.998 96.813h-10.931a.442.442 0 0 1-.441-.441v-7.494c0-.242.198-.441.441-.441h10.931c.242 0 .441.198.441.441v7.494a.444.444 0 0 1-.441.441zM172.081 96.813H161.15a.442.442 0 0 1-.441-.441v-7.494c0-.242.198-.441.441-.441h10.931c.242 0 .441.198.441.441v7.494a.443.443 0 0 1-.441.441zM187.164 96.813h-10.931a.442.442 0 0 1-.441-.441v-7.494c0-.242.198-.441.441-.441h10.931c.242 0 .441.198.441.441v7.494a.442.442 0 0 1-.441.441zM202.248 96.813h-10.931a.442.442 0 0 1-.441-.441v-7.494c0-.242.198-.441.441-.441h10.931c.242 0 .441.198.441.441v7.494a.444.444 0 0 1-.441.441zM217.331 96.813H206.4a.442.442 0 0 1-.441-.441v-7.494c0-.242.198-.441.441-.441h10.931c.242 0 .441.198.441.441v7.494a.442.442 0 0 1-.441.441zM58.471 111.608H47.54a.442.442 0 0 1-.441-.441v-7.494c0-.242.198-.441.441-.441h10.931c.242 0 .441.198.441.441v7.494a.442.442 0 0 1-.441.441zM73.554 111.608H62.623a.442.442 0 0 1-.441-.441v-7.494c0-.242.198-.441.441-.441h10.931c.242 0 .441.198.441.441v7.494a.442.442 0 0 1-.441.441zM88.638 111.608H77.706a.442.442 0 0 1-.441-.441v-7.494c0-.242.198-.441.441-.441h10.931c.242 0 .441.198.441.441v7.494a.442.442 0 0 1-.44.441zM103.721 111.608H92.79a.442.442 0 0 1-.441-.441v-7.494c0-.242.198-.441.441-.441h10.931c.242 0 .441.198.441.441v7.494a.442.442 0 0 1-.441.441zM118.805 111.608h-10.931a.442.442 0 0 1-.441-.441v-7.494c0-.242.198-.441.441-.441h10.931c.242 0 .441.198.441.441v7.494a.443.443 0 0 1-.441.441zM133.888 111.608h-10.931a.442.442 0 0 1-.441-.441v-7.494c0-.242.198-.441.441-.441h10.931c.242 0 .441.198.441.441v7.494a.442.442 0 0 1-.441.441zM148.971 111.608H138.04a.442.442 0 0 1-.441-.441v-7.494c0-.242.198-.441.441-.441h10.931c.242 0 .441.198.441.441v7.494a.442.442 0 0 1-.441.441zM164.055 111.608h-10.931a.442.442 0 0 1-.441-.441v-7.494c0-.242.198-.441.441-.441h10.931c.242 0 .441.198.441.441v7.494a.443.443 0 0 1-.441.441zM179.138 111.608h-10.931a.442.442 0 0 1-.441-.441v-7.494c0-.242.198-.441.441-.441h10.931c.242 0 .441.198.441.441v7.494a.442.442 0 0 1-.441.441zM194.222 111.608H183.29a.442.442 0 0 1-.441-.441v-7.494c0-.242.198-.441.441-.441h10.931c.242 0 .441.198.441.441v7.494a.442.442 0 0 1-.44.441zM209.305 111.608h-10.931a.442.442 0 0 1-.441-.441v-7.494c0-.242.198-.441.441-.441h10.931c.242 0 .441.198.441.441v7.494a.442.442 0 0 1-.441.441zM224.389 111.608h-10.931a.442.442 0 0 1-.441-.441v-7.494c0-.242.198-.441.441-.441h10.931c.242 0 .441.198.441.441v7.494a.443.443 0 0 1-.441.441zM239.472 111.608h-10.931a.442.442 0 0 1-.441-.441v-7.494c0-.242.198-.441.441-.441h10.931c.242 0 .441.198.441.441v7.494a.442.442 0 0 1-.441.441zM259.518 96.813h-10.931a.442.442 0 0 1-.441-.441v-7.494c0-.242.198-.441.441-.441h10.931c.242 0 .441.198.441.441v7.494a.444.444 0 0 1-.441.441zM239.469 96.813H221.5a.46.46 0 0 1-.458-.458v-7.46a.46.46 0 0 1 .458-.458h17.969a.46.46 0 0 1 .458.458v7.46a.46.46 0 0 1-.458.458zM94.067 81H77.975a.477.477 0 0 1-.475-.475v-5.8c0-.261.214-.475.475-.475h16.091c.261 0 .475.214.475.475v5.8a.475.475 0 0 1-.474.475zM120.338 81h-16.091a.477.477 0 0 1-.475-.475v-5.8c0-.261.214-.475.475-.475h16.091c.261 0 .475.214.475.475v5.8a.477.477 0 0 1-.475.475zM146.609 81h-16.091a.477.477 0 0 1-.475-.475v-5.8c0-.261.214-.475.475-.475h16.091c.261 0 .475.214.475.475v5.8a.477.477 0 0 1-.475.475zM187.233 81h-16.091a.477.477 0 0 1-.475-.475v-5.8c0-.261.214-.475.475-.475h16.091c.261 0 .475.214.475.475v5.8a.476.476 0 0 1-.475.475zM209.541 81h-10.488a.388.388 0 0 1-.386-.386v-5.978c0-.212.174-.386.386-.386h10.488c.212 0 .386.174.386.386v5.978a.388.388 0 0 1-.386.386zM224.541 81h-10.488a.388.388 0 0 1-.386-.386v-5.978c0-.212.174-.386.386-.386h10.488c.212 0 .386.174.386.386v5.978a.388.388 0 0 1-.386.386zM239.541 81h-10.488a.388.388 0 0 1-.386-.386v-5.978c0-.212.174-.386.386-.386h10.488c.212 0 .386.174.386.386v5.978a.388.388 0 0 1-.386.386zM67.796 81H51.704a.477.477 0 0 1-.475-.475v-5.8c0-.261.214-.475.475-.475h16.091c.261 0 .475.214.475.475v5.8a.475.475 0 0 1-.474.475zM43.375 111.608H25.397a.455.455 0 0 1-.453-.453v-7.469c0-.249.204-.453.453-.453h17.978c.249 0 .453.204.453.453v7.469a.455.455 0 0 1-.453.453zM47.997 126.083H37.066a.442.442 0 0 1-.441-.441v-7.494c0-.242.198-.441.441-.441h10.931c.242 0 .441.198.441.441v7.494a.442.442 0 0 1-.441.441zM63.08 126.083H52.149a.442.442 0 0 1-.441-.441v-7.494c0-.242.198-.441.441-.441H63.08c.242 0 .441.198.441.441v7.494a.442.442 0 0 1-.441.441zM78.164 126.083H67.232a.442.442 0 0 1-.441-.441v-7.494c0-.242.198-.441.441-.441h10.931c.242 0 .441.198.441.441v7.494a.442.442 0 0 1-.44.441zM93.247 126.083H82.316a.442.442 0 0 1-.441-.441v-7.494c0-.242.198-.441.441-.441h10.931c.242 0 .441.198.441.441v7.494a.442.442 0 0 1-.441.441zM108.331 126.083H97.399a.442.442 0 0 1-.441-.441v-7.494c0-.242.198-.441.441-.441h10.931c.242 0 .441.198.441.441v7.494a.442.442 0 0 1-.44.441zM123.414 126.083h-10.931a.442.442 0 0 1-.441-.441v-7.494c0-.242.198-.441.441-.441h10.931c.242 0 .441.198.441.441v7.494a.442.442 0 0 1-.441.441zM138.497 126.083h-10.931a.442.442 0 0 1-.441-.441v-7.494c0-.242.198-.441.441-.441h10.931c.242 0 .441.198.441.441v7.494a.442.442 0 0 1-.441.441zM153.581 126.083H142.65a.442.442 0 0 1-.441-.441v-7.494c0-.242.198-.441.441-.441h10.931c.242 0 .441.198.441.441v7.494a.442.442 0 0 1-.441.441zM168.664 126.083h-10.931a.442.442 0 0 1-.441-.441v-7.494c0-.242.198-.441.441-.441h10.931c.242 0 .441.198.441.441v7.494a.442.442 0 0 1-.441.441zM183.748 126.083h-10.931a.442.442 0 0 1-.441-.441v-7.494c0-.242.198-.441.441-.441h10.931c.242 0 .441.198.441.441v7.494a.443.443 0 0 1-.441.441zM198.831 126.083H187.9a.442.442 0 0 1-.441-.441v-7.494c0-.242.198-.441.441-.441h10.931c.242 0 .441.198.441.441v7.494a.442.442 0 0 1-.441.441zM213.915 126.083h-10.931a.442.442 0 0 1-.441-.441v-7.494c0-.242.198-.441.441-.441h10.931c.242 0 .441.198.441.441v7.494a.443.443 0 0 1-.441.441zM239.454 126.083h-21.37a.46.46 0 0 1-.458-.458v-7.459a.46.46 0 0 1 .458-.458h21.37a.46.46 0 0 1 .458.458v7.459a.459.459 0 0 1-.458.458zM32.914 126.083H21.982a.441.441 0 0 1-.44-.44v-7.495c0-.242.198-.44.44-.44h10.932c.242 0 .44.198.44.44v7.495c0 .242-.198.44-.44.44zM55.715 140.792H37.371a.453.453 0 0 1-.452-.452v-7.471c0-.249.203-.452.452-.452h18.344c.249 0 .452.203.452.452v7.471a.454.454 0 0 1-.452.452zM70.809 140.792H59.878a.442.442 0 0 1-.441-.441v-7.494c0-.242.198-.441.441-.441h10.931c.242 0 .441.198.441.441v7.494a.442.442 0 0 1-.441.441zM85.893 140.792H74.962a.442.442 0 0 1-.441-.441v-7.494c0-.242.198-.441.441-.441h10.931c.242 0 .441.198.441.441v7.494a.443.443 0 0 1-.441.441zM70.809 154.833H59.878a.442.442 0 0 1-.441-.441v-7.494c0-.242.198-.441.441-.441h10.931c.242 0 .441.198.441.441v7.494a.442.442 0 0 1-.441.441zM85.893 154.833H74.962a.442.442 0 0 1-.441-.441v-7.494c0-.242.198-.441.441-.441h10.931c.242 0 .441.198.441.441v7.494a.442.442 0 0 1-.441.441zM100.976 140.792H90.045a.442.442 0 0 1-.441-.441v-7.494c0-.242.198-.441.441-.441h10.931c.242 0 .441.198.441.441v7.494a.442.442 0 0 1-.441.441zM176.386 154.833H90.053a.45.45 0 0 1-.448-.448v-7.478a.45.45 0 0 1 .448-.448h86.333a.45.45 0 0 1 .448.448v7.478a.45.45 0 0 1-.448.448zM116.06 140.792h-10.931a.442.442 0 0 1-.441-.441v-7.494c0-.242.198-.441.441-.441h10.931c.242 0 .441.198.441.441v7.494a.444.444 0 0 1-.441.441zM131.143 140.792h-10.931a.442.442 0 0 1-.441-.441v-7.494c0-.242.198-.441.441-.441h10.931c.242 0 .441.198.441.441v7.494a.442.442 0 0 1-.441.441zM146.227 140.792h-10.931a.442.442 0 0 1-.441-.441v-7.494c0-.242.198-.441.441-.441h10.931c.242 0 .441.198.441.441v7.494a.444.444 0 0 1-.441.441zM161.31 140.792h-10.931a.442.442 0 0 1-.441-.441v-7.494c0-.242.198-.441.441-.441h10.931c.242 0 .441.198.441.441v7.494a.443.443 0 0 1-.441.441zM176.394 140.792h-10.931a.442.442 0 0 1-.441-.441v-7.494c0-.242.198-.441.441-.441h10.931c.242 0 .441.198.441.441v7.494a.444.444 0 0 1-.441.441zM191.477 140.792h-10.931a.442.442 0 0 1-.441-.441v-7.494c0-.242.198-.441.441-.441h10.931c.242 0 .441.198.441.441v7.494a.443.443 0 0 1-.441.441zM206.56 140.792h-10.931a.442.442 0 0 1-.441-.441v-7.494c0-.242.198-.441.441-.441h10.931c.242 0 .441.198.441.441v7.494a.442.442 0 0 1-.441.441zM227.995 140.792h-17.259a.466.466 0 0 1-.464-.464v-7.447c0-.255.209-.464.464-.464h17.259c.255 0 .464.209.464.464v7.447a.465.465 0 0 1-.464.464z"/></g><path d="M50.953 107.279c0-.63.182-1.157.545-1.581.176-.203.391-.365.645-.486s.541-.181.861-.179c.623 0 1.121.217 1.494.65.373.434.56.964.56 1.593 0 .49-.11.922-.331 1.297a1.564 1.564 0 0 1-.275.345l.551.483-.366.407-.624-.546a1.917 1.917 0 0 1-.964.256c-.35 0-.651-.059-.905-.176-.506-.237-.855-.635-1.049-1.196a2.602 2.602 0 0 1-.142-.867zm2.982 1.188c.248-.297.372-.68.372-1.15s-.108-.866-.325-1.188c-.217-.322-.542-.483-.976-.483-.436 0-.763.162-.981.486-.219.324-.327.708-.325 1.15s.11.825.325 1.145.541.48.979.48c.18 0 .34-.034.48-.103l-.431-.377.36-.413.522.453zM65.291 105.279h.762l.776 3.275h.012l.864-3.275h.77l.837 3.275h.015l.797-3.275h.762l-1.181 4.283h-.767l-.856-3.275-.024-.003-.877 3.279h-.762l-1.128-4.284zM81.609 105.279h3.082v.647h-2.332v1.122h2.159v.612h-2.159v1.254h2.376v.647h-3.126v-4.282zM99.832 108.434c0 .58.078.956.234 1.128h-.803c-.057-.092-.089-.193-.099-.305s-.015-.242-.015-.393c0-.367-.06-.638-.179-.812s-.344-.259-.674-.255h-1.102v1.764h-.75v-4.283h2.04c.472 0 .825.102 1.061.305s.354.483.354.841-.1.639-.298.844c-.08.082-.158.141-.235.176s-.133.06-.167.073v.012c.274.033.464.195.569.486.042.112.064.251.064.419zm-1.41-1.207c.488 0 .732-.228.732-.683 0-.367-.154-.577-.463-.63a1.607 1.607 0 0 0-.281-.023h-1.216v1.336h1.228zM111.605 105.279h3.469v.647h-1.362v3.636h-.75v-3.636h-1.356v-.647zM128.802 109.562h-.75v-1.679l-1.608-2.604h.87l1.134 1.919 1.116-1.919h.838l-1.6 2.604v1.679zM141.748 105.228h.75v2.496c0 .145.007.291.021.439.029.314.17.544.422.688.137.076.326.114.568.114.43 0 .718-.136.864-.407.066-.117.106-.25.12-.398s.021-.294.021-.437v-2.496h.75v2.742c0 .527-.16.938-.48 1.233-.305.273-.729.41-1.271.41-.545 0-.976-.141-1.292-.422s-.474-.688-.472-1.222v-2.74zM158.214 105.279h.75v4.283h-.75v-4.283zM173.671 105.178c.623 0 1.121.217 1.494.65s.56.966.56 1.597c0 .633-.186 1.164-.557 1.594-.371.428-.869.643-1.494.645s-1.124-.212-1.497-.642c-.371-.43-.557-.961-.557-1.594s.182-1.161.545-1.585c.176-.203.391-.365.645-.486s.541-.181.861-.179zm-.978 3.396c.215.32.541.48.979.48s.764-.161.979-.483c.217-.322.325-.705.325-1.148s-.108-.826-.325-1.148-.542-.483-.976-.483c-.436 0-.763.162-.981.486s-.327.708-.325 1.151.109.824.324 1.145zM187.083 105.279h1.89c.549 0 .944.153 1.187.46.18.23.27.52.27.867s-.09.633-.27.855c-.238.305-.634.457-1.187.457h-1.14v1.644h-.75v-4.283zm.75 2.027h1.096c.326 0 .554-.123.683-.369a.765.765 0 0 0 .067-.343c-.002-.258-.068-.439-.199-.545s-.31-.158-.536-.158h-1.11v1.415zM57.213 119.754h.797l1.649 4.283h-.803l-.401-1.134h-1.711l-.401 1.134h-.773l1.643-4.283zm-.263 2.578h1.307l-.642-1.84h-.018l-.647 1.84zM71.705 122.611c0 .313.101.543.301.691.201.15.458.226.77.226s.542-.062.69-.185a.574.574 0 0 0 .225-.449c.002-.174-.034-.3-.108-.379a.616.616 0 0 0-.296-.171l-.484-.134-.661-.183a1.95 1.95 0 0 1-.54-.219c-.326-.211-.489-.514-.489-.908s.155-.701.466-.92c.311-.219.687-.328 1.129-.328.443 0 .823.12 1.142.36.316.24.474.576.474 1.008h-.75c-.035-.504-.343-.756-.924-.756-.335 0-.572.097-.71.291-.051.075-.076.178-.076.309s.047.239.142.326a.913.913 0 0 0 .365.199c.469.117.881.226 1.236.327.269.085.475.227.618.423s.216.416.218.659c.004.447-.174.791-.533 1.032-.313.208-.715.312-1.208.312s-.897-.122-1.211-.366c-.348-.268-.525-.655-.533-1.163h.747zM85.949 119.754h1.775c.637 0 1.116.209 1.438.627.301.381.451.886.451 1.515s-.15 1.134-.451 1.515c-.33.418-.81.627-1.438.627h-1.775v-4.284zm.75 3.671h.738c.539 0 .924-.146 1.154-.439.182-.238.272-.603.272-1.093s-.091-.853-.272-1.087c-.223-.293-.607-.439-1.154-.439h-.738v3.058zM101.387 119.754h2.956v.647h-2.206v1.122h1.937v.612h-1.937v1.901h-.75v-4.282zM119.916 124.037h-.48l-.113-.504c-.201.229-.401.387-.6.475s-.444.132-.735.132a1.961 1.961 0 0 1-.817-.179c-.508-.238-.857-.637-1.048-1.195a2.631 2.631 0 0 1-.141-.867c0-.631.182-1.158.544-1.582a1.96 1.96 0 0 1 .644-.486c.254-.121.519-.181.796-.179.806 0 1.372.276 1.698.829.107.184.175.396.202.636h-.75a.894.894 0 0 0-.363-.627 1.144 1.144 0 0 0-.691-.226c-.459 0-.795.161-1.008.483-.215.322-.322.705-.322 1.148s.108.826.325 1.148.542.483.976.483c.377.008.669-.092.876-.299s.315-.499.325-.876h-1.143v-.571h1.825v2.257zM131.308 119.754h.75v1.705h1.948v-1.705h.75v4.283h-.75v-1.931h-1.948v1.931h-.75v-4.283zM149.459 122.606c0 .451-.081.791-.243 1.02-.215.309-.604.463-1.166.463-.428 0-.749-.125-.964-.375-.213-.25-.317-.583-.313-.999v-.229h.75v.223c0 .246.041.436.123.568s.236.199.463.199c.338 0 .53-.158.577-.475.016-.104.023-.222.023-.354v-2.944h.75v2.903zM161.349 119.754h.75v1.948l1.907-1.948h.923l-1.708 1.708 1.828 2.575h-.935l-1.403-2.045-.612.604v1.441h-.75v-4.283zM176.819 119.754h.75v3.636h2.177v.647h-2.927v-4.283zM63.782 134.463h3.258v.568l-2.496 3.067h2.555v.647h-3.51v-.612l2.496-3.023h-2.303v-.647zM78.568 134.463h.894l.973 1.512 1.014-1.512h.838l-1.415 2.063 1.518 2.221h-.911l-1.069-1.638-1.084 1.638h-.858l1.518-2.221-1.418-2.063zM95.571 138.236c.352 0 .62-.104.806-.313s.296-.479.331-.809h.75c-.032.521-.217.938-.554 1.251-.337.322-.767.483-1.289.483-.623 0-1.121-.215-1.494-.645-.371-.43-.557-.961-.557-1.594s.183-1.161.547-1.585c.177-.203.393-.365.647-.486s.524-.181.807-.179c.537 0 .974.131 1.31.393.335.262.528.619.577 1.072h-.768c-.104-.404-.322-.668-.656-.791a1.441 1.441 0 0 0-.466-.062c-.195 0-.375.046-.539.138s-.299.215-.404.369c-.209.307-.311.682-.305 1.125 0 .203.024.403.073.601.107.422.319.72.636.894.168.092.351.138.548.138zM108.773 134.463h.778l1.077 3.39.015.001 1.092-3.391h.681l-1.381 4.283h-.901l-1.361-4.283zM127.45 137.55c0 .553-.288.92-.864 1.102a2.388 2.388 0 0 1-.715.094h-1.966v-4.283h2.08c.385 0 .693.088.926.264.232.175.348.441.346.796 0 .435-.203.739-.609.913v.012a.947.947 0 0 1 .598.375c.136.193.204.436.204.727zm-2.795-1.297h1.222a.68.68 0 0 0 .451-.152c.119-.102.179-.254.179-.459s-.054-.35-.161-.436c-.107-.085-.264-.129-.469-.131h-1.222v1.178zm0 1.88h1.324c.229 0 .406-.059.533-.176.125-.117.188-.283.188-.498s-.063-.379-.188-.492c-.127-.113-.305-.171-.533-.173h-1.324v1.339zM139.054 134.463h.762l1.957 3.155h.012v-3.155h.683v4.283h-.759l-1.954-3.149h-.018v3.149h-.683v-4.283zM153.652 134.463h1.026l1.182 3.354h.015l1.152-3.354h1.011v4.283h-.683v-3.305h-.012l-1.188 3.305h-.619l-1.19-3.305h-.012v3.305h-.683v-4.283zM189.101 119.138h.695v.674h-.695v-.674zm0 1.855h.695v.674a.773.773 0 0 1-.19.52.85.85 0 0 1-.483.271v-.305a.385.385 0 0 0 .249-.183.532.532 0 0 0 .076-.303h-.347v-.674zM196.382 122.679h.695v.674h-.695v-.674zm0 1.856h.695v.674h-.695v-.674zM203.979 120.446h-.427v-.943h.875v.943c0 .38-.18.676-.537.885a1.28 1.28 0 0 1-.338.144v-.407c.284-.105.427-.312.427-.622zm.964 0v-.943h.875v.943c0 .38-.178.676-.533.885a1.265 1.265 0 0 1-.342.144v-.407c.289-.105.432-.312.428-.622h-.428zM211.603 122.265h.974v.943a1.08 1.08 0 0 1-.267.728 1.191 1.191 0 0 1-.677.379v-.427a.54.54 0 0 0 .349-.256.748.748 0 0 0 .106-.424h-.485v-.943z" fill="#fff"/><g fill="#fff"><path d="M224.4 120.914h1.413v.296h-1.069v.514h.99v.281h-.99v.575h1.09v.297H224.4v-1.963zM226.118 120.914h.35l.896 1.446h.006v-1.446h.313v1.963h-.348l-.896-1.443h-.008v1.443h-.313v-1.963zM227.929 120.914h1.59v.296h-.624v1.667h-.344v-1.667h-.622v-.296zM229.746 120.914h1.413v.296h-1.069v.514h.99v.281h-.99v.575h1.09v.297h-1.434v-1.963zM233.032 122.36c0 .266.036.438.107.517h-.368a.336.336 0 0 1-.046-.14 2.34 2.34 0 0 1-.006-.18c0-.168-.027-.292-.082-.372s-.158-.119-.309-.117h-.506v.809h-.344v-1.963h.936c.216 0 .378.046.486.14a.484.484 0 0 1 .162.385.535.535 0 0 1-.137.387.373.373 0 0 1-.107.081 2.435 2.435 0 0 1-.077.033v.006c.126.015.213.089.261.223.02.05.03.115.03.191zm-.646-.553c.224 0 .335-.104.335-.313 0-.168-.07-.265-.212-.289a.765.765 0 0 0-.129-.011h-.558v.612h.564z"/></g><g fill="#fff"><path d="M215.87 136.932c0 .143.046.249.138.317.093.069.21.104.353.104.144 0 .249-.028.316-.085a.264.264 0 0 0 .104-.206c.001-.08-.016-.137-.05-.173a.278.278 0 0 0-.136-.079l-.222-.062-.303-.083a.871.871 0 0 1-.247-.101.468.468 0 0 1-.225-.416c0-.181.071-.321.214-.422.143-.1.314-.15.518-.15s.377.055.523.166c.145.11.217.264.217.462h-.344c-.016-.231-.157-.347-.424-.347-.153 0-.262.044-.325.133a.251.251 0 0 0-.035.141c0 .06.021.11.065.149.042.04.098.07.167.091.215.054.403.104.566.15a.537.537 0 0 1 .283.194c.065.09.099.19.1.302a.529.529 0 0 1-.244.473.986.986 0 0 1-.554.143.88.88 0 0 1-.556-.168c-.159-.123-.24-.3-.244-.533h.345zM217.417 135.623h.344v.781h.894v-.781h.344v1.963h-.344v-.885h-.894v.885h-.344v-1.963zM219.409 135.623h.344v1.963h-.344v-1.963zM220.173 135.623h1.355v.296h-1.012v.514h.888v.281h-.888v.872h-.344v-1.963zM221.615 135.623h1.59v.296h-.624v1.667h-.344v-1.667h-.622v-.296z"/></g><g fill="#fff"><path d="M39.953 122.644c.161 0 .284-.048.369-.144s.136-.219.152-.371h.344a.819.819 0 0 1-.254.573.82.82 0 0 1-.591.222.864.864 0 0 1-.686-.295c-.17-.197-.255-.44-.255-.73s.084-.532.251-.726c.081-.093.18-.167.297-.223s.24-.083.37-.082c.246 0 .446.06.6.18.154.12.242.284.265.491h-.352c-.048-.185-.148-.306-.301-.362a.66.66 0 0 0-.214-.028c-.09 0-.172.021-.247.063s-.137.099-.186.169a.872.872 0 0 0-.14.516c0 .093.012.185.034.275.049.193.146.33.291.409a.53.53 0 0 0 .253.063zM40.935 120.915h1.59v.296H41.9v1.667h-.344v-1.667h-.622v-.296zM44.306 122.36c0 .266.036.438.107.517h-.368a.336.336 0 0 1-.046-.14 2.34 2.34 0 0 1-.006-.18c0-.168-.027-.292-.082-.372s-.158-.119-.309-.117h-.506v.809h-.344v-1.963h.936c.216 0 .378.046.486.14a.484.484 0 0 1 .162.385.535.535 0 0 1-.137.387.373.373 0 0 1-.107.081 2.435 2.435 0 0 1-.077.033v.006c.126.015.213.089.261.223.02.05.03.115.03.191zm-.646-.553c.224 0 .335-.104.335-.313 0-.168-.07-.265-.212-.289a.765.765 0 0 0-.129-.011h-.558v.612h.564zM44.688 120.915h.344v1.666h.998v.297h-1.342v-1.963z"/></g><g fill="#fff"><path d="M43.047 136.932c0 .143.046.249.138.317.093.069.21.104.353.104.144 0 .249-.028.316-.085a.264.264 0 0 0 .104-.206c.001-.08-.016-.137-.05-.173a.278.278 0 0 0-.136-.079l-.222-.062-.303-.083a.871.871 0 0 1-.247-.101.468.468 0 0 1-.225-.416c0-.181.071-.321.214-.422.143-.1.314-.15.518-.15s.377.055.523.166c.145.11.217.264.217.462h-.344c-.016-.231-.157-.347-.424-.347-.153 0-.262.044-.325.133a.251.251 0 0 0-.035.141c0 .06.021.11.065.149.042.04.098.07.167.091.215.054.403.104.566.15a.537.537 0 0 1 .283.194c.065.09.099.19.1.302a.529.529 0 0 1-.244.473.986.986 0 0 1-.554.143.88.88 0 0 1-.556-.168c-.159-.123-.24-.3-.244-.533h.345zM44.594 135.623h.344v.781h.894v-.781h.344v1.963h-.344v-.885h-.894v.885h-.344v-1.963zM46.586 135.623h.344v1.963h-.344v-1.963zM47.35 135.623h1.355v.296h-1.012v.514h.888v.281h-.888v.872h-.343v-1.963zM48.792 135.623h1.59v.296h-.624v1.667h-.344v-1.667h-.622v-.296z"/></g><g fill="#fff"><path d="M28.267 91.644h1.413v.296h-1.069v.514h.99v.281h-.99v.575h1.09v.297h-1.434v-1.963zM30.227 92.953c0 .143.046.249.138.317.093.069.21.104.353.104.144 0 .249-.028.316-.085a.264.264 0 0 0 .104-.206c.001-.08-.016-.137-.05-.173a.278.278 0 0 0-.136-.079l-.222-.062-.303-.083a.871.871 0 0 1-.247-.101.468.468 0 0 1-.225-.416c0-.181.071-.321.214-.422.143-.1.314-.15.518-.15s.377.055.523.166c.145.11.217.264.217.462h-.344c-.016-.231-.157-.347-.424-.347-.153 0-.262.044-.325.133a.251.251 0 0 0-.035.141c0 .06.021.11.065.149.042.04.098.07.167.091.215.054.403.104.566.15a.537.537 0 0 1 .283.194c.065.09.099.19.1.302a.529.529 0 0 1-.244.473.986.986 0 0 1-.554.143.88.88 0 0 1-.556-.168c-.159-.123-.24-.3-.244-.533h.345zM32.597 93.373c.161 0 .284-.048.369-.144s.136-.219.152-.371h.344a.819.819 0 0 1-.254.573.82.82 0 0 1-.591.222.864.864 0 0 1-.686-.295c-.17-.197-.255-.44-.255-.73s.084-.532.251-.726c.081-.093.18-.167.297-.223s.24-.083.37-.082c.246 0 .446.06.6.18.154.12.242.284.265.491h-.352c-.048-.185-.148-.306-.301-.362a.66.66 0 0 0-.214-.028c-.09 0-.172.021-.247.063s-.137.099-.186.169a.872.872 0 0 0-.14.516c0 .093.012.185.034.275.049.193.146.33.291.409a.53.53 0 0 0 .253.063z"/></g><g fill="#fff"><path d="M250.142 92.891c0 .116.037.202.111.257.075.056.17.084.286.084s.202-.023.257-.069a.213.213 0 0 0 .084-.167c.001-.065-.013-.112-.04-.141-.028-.03-.064-.051-.11-.064l-.18-.05-.246-.068a.744.744 0 0 1-.201-.082.378.378 0 0 1-.182-.337c0-.147.058-.261.174-.342a.704.704 0 0 1 .42-.122c.164 0 .306.045.424.134s.177.214.177.375h-.279c-.013-.188-.127-.281-.344-.281-.124 0-.213.036-.264.108a.194.194 0 0 0-.028.115c0 .048.018.089.053.121a.334.334 0 0 0 .136.074c.174.043.327.084.459.122a.435.435 0 0 1 .23.157c.053.073.08.155.08.245a.429.429 0 0 1-.198.384c-.116.077-.266.116-.449.116s-.333-.045-.45-.136a.526.526 0 0 1-.198-.433h.278zM251.403 91.829h1.146v.241h-.867v.417h.803v.228h-.803v.466h.883v.241h-1.162v-1.593zM252.808 91.829h.279v1.352h.809v.241h-1.088v-1.593zM254.088 91.829h1.146v.241h-.867v.417h.803v.228h-.803v.466h.883v.241h-1.162v-1.593zM256.155 93.232c.131 0 .23-.039.3-.117s.11-.178.123-.301h.279a.668.668 0 0 1-.206.465.666.666 0 0 1-.479.18.7.7 0 0 1-.556-.24.874.874 0 0 1-.207-.592c0-.235.067-.432.203-.589a.725.725 0 0 1 .541-.247c.2 0 .362.049.487.146a.56.56 0 0 1 .214.399h-.285c-.038-.15-.12-.249-.244-.294a.544.544 0 0 0-.173-.023.43.43 0 0 0-.35.188.7.7 0 0 0-.113.418c0 .076.009.15.026.223.04.157.119.268.237.333a.41.41 0 0 0 .203.051zM256.952 91.829h1.29v.241h-.507v1.352h-.279V92.07h-.504v-.241z"/></g><g fill="#fff"><path d="M176.044 77.943c0 .14.045.242.134.309.09.067.204.101.343.101.14 0 .242-.028.309-.083a.26.26 0 0 0 .101-.2c0-.078-.016-.134-.049-.169a.28.28 0 0 0-.132-.077 30.856 30.856 0 0 1-.216-.06l-.295-.082a.835.835 0 0 1-.24-.098c-.146-.094-.218-.229-.218-.405s.068-.313.207-.41.307-.146.504-.146.367.053.509.161a.531.531 0 0 1 .211.449h-.334c-.016-.225-.153-.337-.412-.337-.149 0-.255.043-.316.129a.24.24 0 0 0-.034.138.19.19 0 0 0 .063.145.407.407 0 0 0 .162.089c.209.052.393.101.552.146a.5.5 0 0 1 .372.482.514.514 0 0 1-.237.46c-.14.093-.319.139-.539.139s-.4-.055-.54-.164c-.155-.119-.234-.292-.238-.519h.333zM177.373 76.67h1.547v.289h-.607v1.621h-.334v-1.621h-.605v-.289zM179.955 76.625c.277 0 .499.096.666.29.166.193.249.431.249.712 0 .282-.083.519-.248.71-.165.191-.388.287-.666.288s-.501-.095-.668-.286c-.165-.191-.248-.428-.248-.71s.081-.518.243-.707a.862.862 0 0 1 .672-.297zm-.436 1.513c.096.143.241.214.437.214.194 0 .34-.072.436-.216a.893.893 0 0 0 .146-.512c0-.198-.049-.369-.146-.512s-.241-.215-.435-.215-.34.072-.438.217-.146.315-.146.513.05.368.146.511zM181.175 76.67h.842c.245 0 .421.068.529.205.08.103.12.232.12.387s-.04.282-.12.381c-.106.136-.282.204-.529.204h-.508v.733h-.334v-1.91zm.334.904h.488c.146 0 .247-.055.305-.165.02-.04.03-.091.03-.153-.001-.115-.031-.196-.089-.243a.374.374 0 0 0-.239-.071h-.495v.632z"/></g><g fill="#fff"><path d="M129.173 150.974c0 .143.046.249.138.317.093.069.21.104.353.104.144 0 .249-.028.316-.085a.264.264 0 0 0 .104-.206c.001-.08-.016-.137-.05-.173a.278.278 0 0 0-.136-.079l-.222-.062-.303-.083a.871.871 0 0 1-.247-.101.468.468 0 0 1-.225-.416c0-.181.071-.321.214-.422.143-.1.314-.15.518-.15s.377.055.523.166c.145.11.217.264.217.462h-.344c-.016-.231-.157-.347-.424-.347-.153 0-.262.044-.325.133a.251.251 0 0 0-.035.141c0 .06.021.11.065.149.042.04.098.07.167.091.215.054.403.104.566.15a.537.537 0 0 1 .283.194c.065.09.099.19.1.302a.529.529 0 0 1-.244.473.986.986 0 0 1-.554.143.88.88 0 0 1-.556-.168c-.159-.123-.24-.3-.244-.533h.345zM130.728 149.665h.866c.252 0 .434.07.544.21a.623.623 0 0 1 .124.397.6.6 0 0 1-.124.392c-.109.14-.29.209-.544.209h-.522v.753h-.344v-1.961zm.343.928h.503c.149 0 .254-.056.313-.169a.346.346 0 0 0 .031-.157c-.001-.118-.031-.201-.092-.25a.382.382 0 0 0-.245-.073h-.51v.649zM132.883 149.665h.365l.756 1.963h-.367l-.185-.52h-.784l-.184.52h-.354l.753-1.963zm-.121 1.181h.6l-.295-.844h-.008l-.297.844zM135.007 151.394c.161 0 .284-.048.369-.144s.136-.219.152-.371h.344a.819.819 0 0 1-.254.573.82.82 0 0 1-.591.222.864.864 0 0 1-.686-.295c-.17-.197-.255-.44-.255-.73s.084-.532.251-.726c.081-.093.18-.167.297-.223s.24-.083.37-.082c.246 0 .446.06.6.18.154.12.242.284.265.491h-.352c-.048-.185-.148-.306-.301-.362a.66.66 0 0 0-.214-.028c-.09 0-.172.021-.247.063s-.137.099-.186.169a.872.872 0 0 0-.14.516c0 .093.012.185.034.275.049.193.146.33.291.409a.53.53 0 0 0 .253.063zM136.176 149.665h1.413v.296h-1.069v.514h.99v.281h-.99v.575h1.09v.297h-1.434v-1.963z"/></g><g fill="#fff"><path d="M62.54 148.417h.317v1.541h.922v.274h-1.24v-1.815zM63.999 148.417h1.306v.274h-.988v.476h.915v.259h-.915v.531h1.007v.274H64v-1.814zM65.6 148.417h1.252v.274h-.935v.476h.821v.259h-.821v.806H65.6v-1.815zM66.933 148.417h1.469v.274h-.577v1.541h-.317v-1.541h-.575v-.274zM63.535 152.832h-.204l-.048-.213a.756.756 0 0 1-.254.201.774.774 0 0 1-.312.056.828.828 0 0 1-.79-.582 1.114 1.114 0 0 1-.06-.368c0-.267.077-.491.23-.67.075-.086.166-.155.273-.206s.22-.077.337-.076c.341 0 .581.117.719.351a.675.675 0 0 1 .085.27h-.317a.38.38 0 0 0-.154-.266.483.483 0 0 0-.293-.096c-.194 0-.337.068-.427.205a.86.86 0 0 0-.137.487c0 .188.046.35.138.486a.463.463 0 0 0 .413.205c.16.003.284-.039.371-.127a.518.518 0 0 0 .138-.371h-.484v-.242h.773v.956zM65.316 152.354c0 .246.033.405.1.478h-.34a.29.29 0 0 1-.042-.129 2.01 2.01 0 0 1-.006-.167c0-.156-.025-.27-.076-.344-.051-.074-.146-.11-.286-.108h-.467v.747h-.317v-1.815h.864c.2 0 .35.043.45.129.1.086.15.205.15.356a.493.493 0 0 1-.126.358.315.315 0 0 1-.099.074l-.071.031v.005c.116.014.196.083.241.206a.572.572 0 0 1 .025.179zm-.597-.512c.207 0 .311-.096.311-.289 0-.156-.065-.245-.196-.267a.764.764 0 0 0-.119-.01H64.2v.566h.519zM65.67 151.017h.8c.232 0 .4.065.503.195.076.098.114.22.114.367s-.038.268-.114.362c-.101.129-.269.194-.503.194h-.483v.696h-.317v-1.814zm.318.859h.464c.138 0 .235-.052.289-.157a.322.322 0 0 0 .029-.145c-.001-.109-.029-.186-.084-.231a.357.357 0 0 0-.227-.067h-.471v.6zM67.358 151.017h.318v.723h.826v-.723h.317v1.815h-.317v-.818h-.826v.818h-.318v-1.815z"/></g><g fill="#fff"><path d="M78.085 149.775c0 .246.033.405.1.478h-.34a.29.29 0 0 1-.042-.129 2.01 2.01 0 0 1-.006-.167c0-.156-.025-.27-.076-.344-.051-.074-.146-.11-.286-.108h-.467v.747h-.318v-1.815h.864c.2 0 .35.043.45.129.1.086.15.205.15.356a.493.493 0 0 1-.126.358.315.315 0 0 1-.099.074l-.071.031v.005c.116.014.196.083.241.206a.546.546 0 0 1 .026.179zm-.597-.511c.207 0 .311-.096.311-.289 0-.156-.065-.245-.196-.267a.764.764 0 0 0-.119-.01h-.515v.566h.519zM78.439 148.438h.317v1.815h-.317v-1.815zM80.728 150.253h-.204l-.048-.213a.756.756 0 0 1-.254.201.774.774 0 0 1-.312.056.828.828 0 0 1-.79-.582 1.114 1.114 0 0 1-.06-.368c0-.267.077-.491.23-.67.075-.086.166-.155.273-.206s.22-.077.337-.076c.341 0 .581.117.719.351a.675.675 0 0 1 .085.27h-.317a.38.38 0 0 0-.154-.266.483.483 0 0 0-.293-.096c-.194 0-.337.068-.427.205a.86.86 0 0 0-.137.487c0 .188.046.35.138.486a.463.463 0 0 0 .413.205c.16.003.284-.039.371-.127a.518.518 0 0 0 .138-.371h-.484v-.242h.773v.956zM81.066 148.438h.318v.723h.826v-.723h.317v1.815h-.317v-.818h-.826v.818h-.318v-1.815zM82.735 148.438h1.469v.274h-.577v1.541h-.317v-1.541h-.575v-.274zM78.492 152.853h-.204l-.048-.213a.756.756 0 0 1-.254.201.774.774 0 0 1-.312.056.828.828 0 0 1-.79-.582 1.114 1.114 0 0 1-.06-.368c0-.267.077-.491.23-.67.075-.086.166-.155.273-.206s.22-.077.337-.076c.341 0 .581.117.719.351a.675.675 0 0 1 .085.27h-.317a.38.38 0 0 0-.154-.266.483.483 0 0 0-.293-.096c-.194 0-.337.068-.427.205a.86.86 0 0 0-.137.487c0 .188.046.35.138.486a.463.463 0 0 0 .413.205c.16.003.284-.039.371-.127a.518.518 0 0 0 .138-.371h-.484v-.242h.773v.956zM80.272 152.375c0 .246.033.405.1.478h-.34a.29.29 0 0 1-.042-.129 2.01 2.01 0 0 1-.006-.167c0-.156-.025-.27-.076-.344-.051-.074-.146-.11-.286-.108h-.467v.747h-.317v-1.815h.864c.2 0 .35.043.45.129.1.086.15.205.15.356a.493.493 0 0 1-.126.358.315.315 0 0 1-.099.074l-.071.031v.005c.116.014.196.083.241.206a.548.548 0 0 1 .025.179zm-.597-.511c.207 0 .311-.096.311-.289 0-.156-.065-.245-.196-.267a.764.764 0 0 0-.119-.01h-.515v.566h.519zM80.627 151.038h.8c.232 0 .4.065.503.195.076.098.114.22.114.367s-.038.268-.114.362c-.101.129-.269.194-.503.194h-.483v.696h-.317v-1.814zm.317.86h.464c.138 0 .235-.052.289-.157a.322.322 0 0 0 .029-.145c-.001-.109-.029-.186-.084-.231a.357.357 0 0 0-.227-.067h-.471v.6zM82.314 151.038h.318v.723h.826v-.723h.317v1.815h-.317v-.818h-.826v.818h-.318v-1.815z"/></g><g fill="#fff"><path d="M24.698 121.245c.159 0 .281-.047.365-.142a.64.64 0 0 0 .15-.366h.34a.81.81 0 0 1-.251.567.812.812 0 0 1-.584.219.851.851 0 0 1-.677-.292c-.168-.195-.252-.436-.252-.722s.083-.526.248-.718a.896.896 0 0 1 .293-.221.824.824 0 0 1 .365-.081c.244 0 .441.059.594.178a.682.682 0 0 1 .261.486h-.348c-.047-.183-.146-.303-.297-.358a.645.645 0 0 0-.211-.028c-.088 0-.17.021-.244.063s-.135.097-.183.167a.859.859 0 0 0-.138.51c0 .092.011.183.033.272.049.191.145.326.288.405.076.04.159.061.248.061zM26.373 119.535h.361l.748 1.941h-.364l-.182-.514h-.775l-.182.514h-.351l.745-1.941zm-.119 1.168h.592l-.291-.834h-.008l-.293.834zM27.668 119.535h.856c.249 0 .428.069.538.208a.615.615 0 0 1 .122.393.597.597 0 0 1-.122.387c-.108.138-.287.208-.538.208h-.517v.745h-.34v-1.941zm.339.918h.497c.148 0 .251-.056.31-.167a.354.354 0 0 0 .03-.155c-.001-.117-.031-.199-.09-.247a.374.374 0 0 0-.243-.072h-.503v.641zM29.706 120.829c0 .142.045.246.136.313a.569.569 0 0 0 .349.102c.142 0 .246-.028.313-.084a.261.261 0 0 0 .102-.203c.001-.079-.015-.136-.049-.172a.287.287 0 0 0-.134-.078l-.219-.061-.299-.083a.904.904 0 0 1-.245-.099c-.148-.096-.222-.233-.222-.412s.071-.318.211-.417a.869.869 0 0 1 .512-.148.83.83 0 0 1 .517.163.54.54 0 0 1 .215.457h-.34c-.016-.228-.155-.342-.418-.342-.152 0-.259.044-.322.132-.023.034-.034.081-.034.14s.021.108.064.148a.42.42 0 0 0 .165.09c.212.053.399.102.561.148a.536.536 0 0 1 .28.192.5.5 0 0 1 .099.298.526.526 0 0 1-.241.468c-.142.094-.324.141-.548.141s-.407-.055-.549-.166c-.157-.121-.238-.297-.241-.527h.337zM23.843 122.316h.34v1.647h.986v.293h-1.326v-1.94zM26.229 122.269c.283 0 .508.098.677.294.169.197.253.438.253.724 0 .287-.084.528-.252.722a.851.851 0 0 1-.677.292.848.848 0 0 1-.678-.291c-.168-.195-.252-.436-.252-.722s.083-.526.247-.718a.892.892 0 0 1 .292-.221.892.892 0 0 1 .39-.08zm-.444 1.539c.098.145.245.218.443.218s.346-.073.444-.219a.911.911 0 0 0 .147-.521.91.91 0 0 0-.147-.52.499.499 0 0 0-.442-.219c-.197 0-.346.073-.445.22s-.148.321-.147.522a.92.92 0 0 0 .147.519zM28.275 124.026c.159 0 .281-.047.365-.142a.64.64 0 0 0 .15-.366h.34a.81.81 0 0 1-.251.567.812.812 0 0 1-.584.219.851.851 0 0 1-.677-.292c-.168-.195-.252-.436-.252-.722s.083-.526.248-.718a.896.896 0 0 1 .293-.221.824.824 0 0 1 .365-.081c.244 0 .441.059.594.178a.682.682 0 0 1 .261.486h-.348c-.047-.183-.146-.303-.297-.358a.645.645 0 0 0-.211-.028c-.088 0-.17.021-.244.063s-.135.097-.183.167a.859.859 0 0 0-.138.51c0 .092.011.183.033.272.049.191.145.326.288.405.076.04.159.061.248.061zM29.431 122.316h.34v.883l.864-.883h.418l-.774.774.828 1.167h-.423l-.636-.927-.278.273v.653h-.34v-1.94z"/></g><g fill="#fff"><path d="M200.811 76.734c.131 0 .231-.039.301-.117s.11-.179.123-.302h.28a.665.665 0 0 1-.207.467.666.666 0 0 1-.48.18c-.232 0-.419-.08-.558-.24s-.208-.358-.208-.595c0-.236.068-.433.204-.591a.735.735 0 0 1 .242-.182.678.678 0 0 1 .301-.066c.2 0 .363.049.488.146s.197.231.216.4h-.287c-.038-.151-.12-.249-.244-.295a.523.523 0 0 0-.375.028.435.435 0 0 0-.151.138.71.71 0 0 0-.113.42c0 .076.009.15.027.224.04.158.119.269.237.333.062.035.13.052.204.052zM201.763 75.326h.279v1.356h.813v.242h-1.092v-1.598zM203.231 76.392c0 .117.037.203.112.258.075.056.171.084.287.084s.202-.023.258-.069a.216.216 0 0 0 .084-.167c0-.065-.013-.112-.041-.141-.027-.03-.064-.051-.11-.064l-.181-.05-.246-.068a.73.73 0 0 1-.201-.082.38.38 0 0 1-.183-.339c0-.147.058-.261.174-.343.116-.082.256-.123.421-.123s.308.045.426.134c.118.09.177.215.177.376h-.279c-.014-.188-.128-.282-.345-.282-.125 0-.214.036-.266.108a.202.202 0 0 0-.028.115.16.16 0 0 0 .053.122c.035.032.08.057.137.074.175.044.328.084.461.122a.419.419 0 0 1 .311.404.43.43 0 0 1-.198.385.8.8 0 0 1-.451.116.713.713 0 0 1-.452-.136.526.526 0 0 1-.199-.434h.279zM204.921 75.288h.243l-.643 1.674h-.243l.643-1.674zM205.278 75.326h.279v.636h.728v-.636h.279v1.598h-.279v-.72h-.728v.72h-.279v-1.598zM206.896 75.326h.383l.441 1.251h.005l.43-1.251h.378v1.598h-.255v-1.233h-.005l-.442 1.233h-.231l-.444-1.233h-.004v1.233h-.255v-1.598zM202.052 79.734c.131 0 .231-.039.301-.117s.11-.179.123-.302h.28a.665.665 0 0 1-.207.467.666.666 0 0 1-.48.18c-.232 0-.419-.08-.558-.24s-.208-.358-.208-.595c0-.236.068-.433.204-.591a.735.735 0 0 1 .242-.182.678.678 0 0 1 .301-.066c.2 0 .363.049.488.146s.197.231.216.4h-.287c-.038-.151-.12-.249-.244-.295a.523.523 0 0 0-.375.028.435.435 0 0 0-.151.138.71.71 0 0 0-.113.42c0 .076.009.15.027.224.04.158.119.269.237.333a.41.41 0 0 0 .204.052zM203.684 78.288a.7.7 0 0 1 .558.243c.139.162.208.36.208.596a.877.877 0 0 1-.207.595.704.704 0 0 1-.558.24c-.233.001-.42-.079-.559-.239s-.208-.358-.208-.595c0-.236.068-.433.203-.591a.711.711 0 0 1 .563-.249zm-.366 1.266c.08.12.202.179.365.179s.285-.06.365-.18.121-.263.121-.428a.756.756 0 0 0-.121-.429c-.081-.12-.202-.18-.364-.18s-.284.061-.366.181a.739.739 0 0 0-.121.43c0 .166.041.308.121.427zM204.705 78.326h.705c.204 0 .352.057.442.172a.51.51 0 0 1 .101.323c0 .13-.033.236-.101.319-.089.114-.236.17-.442.17h-.426v.613h-.279v-1.597zm.279.756h.409c.121 0 .206-.046.255-.138a.281.281 0 0 0 .024-.128c0-.096-.025-.164-.074-.203s-.115-.059-.2-.059h-.414v.528zM206.895 79.924h-.28v-.626l-.6-.972h.324l.423.716.417-.716h.313l-.597.972v.626z"/></g><g fill="#fff"><path d="M217.575 75.326h.279v1.598h-.279v-1.598zM218.185 75.326h.284l.73 1.177h.004v-1.177h.255v1.598h-.283l-.729-1.175h-.007v1.175h-.255v-1.598zM219.997 76.392c0 .117.037.203.112.258.075.056.171.084.287.084s.202-.023.258-.069a.216.216 0 0 0 .084-.167c0-.065-.013-.112-.041-.141-.027-.03-.064-.051-.11-.064l-.181-.05-.246-.068a.73.73 0 0 1-.201-.082.38.38 0 0 1-.183-.339c0-.147.058-.261.174-.343.116-.082.256-.123.421-.123s.308.045.426.134c.118.09.177.215.177.376h-.279c-.014-.188-.128-.282-.345-.282-.125 0-.214.036-.266.108a.202.202 0 0 0-.028.115.16.16 0 0 0 .053.122c.035.032.08.057.137.074.175.044.328.084.461.122a.419.419 0 0 1 .311.404.43.43 0 0 1-.198.385.8.8 0 0 1-.451.116.713.713 0 0 1-.452-.136.526.526 0 0 1-.199-.434h.279zM215.915 78.326h.705c.204 0 .352.057.442.172a.51.51 0 0 1 .101.323c0 .13-.033.236-.101.319-.089.114-.236.17-.442.17h-.426v.613h-.279v-1.597zm.279.756h.409c.121 0 .206-.046.255-.138a.281.281 0 0 0 .024-.128c0-.096-.025-.164-.074-.203s-.115-.059-.2-.059h-.414v.528zM217.669 78.326h.298l.615 1.598h-.3l-.149-.423h-.639l-.149.423h-.289l.613-1.598zm-.098.962h.487l-.239-.687h-.007l-.241.687zM218.92 79.392c0 .117.037.203.112.258.075.056.171.084.287.084s.202-.023.258-.069a.216.216 0 0 0 .084-.167c0-.065-.013-.112-.041-.141-.027-.03-.064-.051-.11-.064l-.181-.05-.246-.068a.73.73 0 0 1-.201-.082.38.38 0 0 1-.183-.339c0-.147.058-.261.174-.343.116-.082.256-.123.421-.123s.308.045.426.134c.118.09.177.215.177.376h-.279c-.014-.188-.128-.282-.345-.282-.125 0-.214.036-.266.108a.202.202 0 0 0-.028.115.16.16 0 0 0 .053.122c.035.032.08.057.137.074.175.044.328.084.461.122a.419.419 0 0 1 .311.404.43.43 0 0 1-.198.385.8.8 0 0 1-.451.116.713.713 0 0 1-.452-.136.526.526 0 0 1-.199-.434h.279zM220.032 78.326h1.294v.242h-.508v1.356h-.28v-1.356h-.506v-.242zM221.513 78.326h1.149v.242h-.87v.418h.806v.229h-.806v.468h.887v.242h-1.166v-1.599z"/></g><g fill="#fff"><path d="M232.278 75.307h.662c.237 0 .416.078.536.234.112.142.169.331.169.565 0 .234-.057.423-.169.565-.123.156-.302.234-.536.234h-.662v-1.598zm.279 1.37h.275c.201 0 .345-.055.431-.164.068-.089.102-.225.102-.408 0-.183-.033-.318-.102-.405-.083-.109-.227-.164-.431-.164h-.275v1.141zM233.893 75.307h1.149v.242h-.87v.418h.806v.229h-.806v.468h.887v.242h-1.166v-1.599zM235.303 75.307h.279v1.356h.813v.242h-1.092v-1.598zM232.817 79.715c.131 0 .231-.039.301-.117s.11-.179.123-.302h.28a.665.665 0 0 1-.207.467.666.666 0 0 1-.48.18c-.232 0-.419-.08-.558-.24s-.208-.358-.208-.595c0-.236.068-.433.204-.591a.735.735 0 0 1 .242-.182.678.678 0 0 1 .301-.066c.2 0 .363.049.488.146s.197.231.216.4h-.287c-.038-.151-.12-.249-.244-.295a.523.523 0 0 0-.375.028.435.435 0 0 0-.151.138.71.71 0 0 0-.113.42c0 .076.009.15.027.224.04.158.119.269.237.333a.41.41 0 0 0 .204.052zM233.751 78.307h.279v.931c0 .054.003.109.008.164a.31.31 0 0 0 .157.257.433.433 0 0 0 .212.043c.16 0 .269-.051.322-.152a.357.357 0 0 0 .045-.148c.006-.055.008-.11.008-.163v-.931h.28v1.023c0 .197-.06.351-.18.46-.113.102-.271.153-.475.153s-.363-.052-.481-.157-.177-.257-.176-.456v-1.024zM235.232 78.307h1.294v.242h-.508v1.356h-.28v-1.356h-.506v-.242z"/></g><g fill="#fff"><path d="M135.88 75.283h1.479v.324h-1.104v.561h.969v.306h-.969v.951h-.375v-2.142zM138.262 75.671c.246 0 .424-.062.534-.185a.33.33 0 0 0 .076-.162h.28v2.101h-.375v-1.482h-.516v-.272zM140.521 75.283c.271 0 .467.123.589.368.091.185.136.426.136.724 0 .488-.119.817-.357.988a.61.61 0 0 1-.367.104.61.61 0 0 1-.368-.104c-.238-.175-.357-.504-.357-.988 0-.303.046-.544.136-.724.053-.109.127-.197.222-.266s.215-.102.366-.102zm.383 1.092c0-.537-.128-.806-.383-.806-.257 0-.385.269-.385.806 0 .38.065.627.197.742a.271.271 0 0 0 .188.064c.255 0 .383-.268.383-.806zM135.88 77.783h1.479v.324h-1.104v.561h.969v.306h-.969v.951h-.375v-2.142zM140.135 78.671c.094-.106.229-.16.406-.16.087 0 .171.018.253.053a.589.589 0 0 1 .334.371.831.831 0 0 1 .045.267.813.813 0 0 1-.17.516c-.135.167-.313.25-.535.25s-.402-.055-.539-.166-.209-.269-.217-.475h.342a.375.375 0 0 0 .117.264.387.387 0 0 0 .27.091c.255 0 .386-.154.391-.461 0-.197-.074-.332-.221-.403a.408.408 0 0 0-.18-.035c-.178 0-.291.064-.338.192h-.343l.226-1.15h1.086v.306h-.831l-.102.536.006.004z"/></g><g fill="#fff"><path d="M109.645 75.304h1.479v.324h-1.104v.561h.969v.306h-.969v.951h-.375v-2.142zM113.944 77.124c.053.053.125.079.217.079s.165-.024.219-.073c.055-.049.097-.11.127-.183s.051-.151.063-.234c.01-.083.019-.159.025-.229l-.007-.007a.46.46 0 0 1-.188.188.562.562 0 0 1-.268.065.624.624 0 0 1-.477-.193.71.71 0 0 1-.182-.512c0-.211.064-.384.191-.518.127-.135.304-.202.531-.202.397 0 .634.223.709.668.048.287.044.564-.013.831s-.182.462-.374.586c-.101.066-.229.1-.387.1s-.298-.054-.422-.163-.189-.245-.197-.41h.342a.327.327 0 0 0 .091.207zm-.129-1.106c0 .192.068.327.204.404a.351.351 0 0 0 .164.037.337.337 0 0 0 .282-.129.498.498 0 0 0 .098-.309.476.476 0 0 0-.1-.305c-.067-.084-.16-.126-.28-.126s-.212.042-.274.125a.488.488 0 0 0-.094.303zM109.645 77.804h1.479v.324h-1.104v.561h.969v.306h-.969v.951h-.375v-2.142zM114.938 79.448h-.252v.498h-.342v-.498h-.883v-.338l.883-1.264h.342v1.332h.252v.27zm-.593-.271v-.924h-.008l-.629.924h.637z"/></g><g fill="#fff"><path d="M83.371 75.283h1.479v.324h-1.104v.561h.969v.306h-.969v.951h-.375v-2.142zM87.189 76.806c0-.134.035-.247.104-.338a.5.5 0 0 1 .279-.184v-.006a.472.472 0 0 1-.233-.166.44.44 0 0 1-.08-.264c0-.177.06-.315.179-.416.12-.1.285-.15.494-.15.21 0 .374.05.492.149.119.1.178.238.178.417a.447.447 0 0 1-.079.264.47.47 0 0 1-.232.166v.006a.498.498 0 0 1 .382.494c-.001.22-.07.389-.209.509s-.315.18-.532.18a.796.796 0 0 1-.533-.177.599.599 0 0 1-.21-.484zm.455.288a.413.413 0 0 0 .286.103c.114 0 .21-.034.286-.103s.114-.162.114-.281c0-.121-.038-.214-.114-.278s-.172-.097-.286-.097c-.115 0-.21.033-.286.098s-.114.158-.113.277a.357.357 0 0 0 .113.281zm.286-1.54c-.091 0-.169.026-.233.08s-.098.129-.098.228.032.175.095.228a.364.364 0 0 0 .236.077.361.361 0 0 0 .237-.077c.062-.051.093-.126.093-.225s-.032-.176-.096-.231a.35.35 0 0 0-.234-.08zM83.371 77.783h1.479v.324h-1.104v.561h.969v.306h-.969v.951h-.375v-2.142zM88.587 78.338c0 .228-.1.376-.297.446v.006c.12.024.214.084.28.18a.552.552 0 0 1 .101.322c-.001.213-.073.379-.219.498s-.32.177-.525.177c-.351 0-.579-.144-.687-.432a.942.942 0 0 1-.052-.3h.342c-.003.128.029.234.096.319s.161.127.286.127c.124 0 .225-.032.302-.097s.116-.157.116-.278c0-.146-.059-.248-.175-.305-.082-.04-.207-.058-.376-.053v-.271c.209.007.351-.047.426-.162.026-.043.04-.102.04-.177s-.03-.139-.091-.191a.309.309 0 0 0-.209-.08c-.19-.001-.31.089-.357.271a.514.514 0 0 0-.019.156h-.341c.008-.204.073-.374.196-.51s.289-.204.499-.204c.174 0 .327.048.462.144a.483.483 0 0 1 .202.414z"/></g><g fill="#fff"><path d="M57.11 75.304h1.479v.324h-1.104v.561h.969v.306h-.969v.951h-.375v-2.142zM60.942 75.345h1.438v.286a3.027 3.027 0 0 0-.701 1.28 3.105 3.105 0 0 0-.083.535h-.375c.034-.48.203-.947.507-1.4a3.84 3.84 0 0 1 .303-.394h-1.088v-.307zM57.11 77.804h1.479v.324h-1.104v.561h.969v.306h-.969v.951h-.375v-2.142zM62.387 79.946h-1.434c.004-.322.158-.587.462-.795.068-.05.14-.098.214-.145.274-.173.414-.355.419-.544a.38.38 0 0 0-.053-.222c-.036-.049-.076-.086-.121-.111s-.104-.038-.175-.038-.13.014-.175.041c-.12.073-.184.234-.191.483h-.341c0-.239.063-.434.189-.584.127-.15.305-.226.533-.226.229 0 .406.074.53.222.097.118.145.26.145.424 0 .216-.098.407-.294.572a2.35 2.35 0 0 1-.291.215 4.194 4.194 0 0 0-.229.153c-.117.087-.188.17-.213.249h1.023v.306z"/></g><g fill="#fff"><path d="M30.833 75.304h1.479v.324h-1.104v.561h.969v.306h-.969v.951h-.375v-2.142zM35.469 76.064c.197 0 .356.066.476.2.12.133.181.303.181.509 0 .205-.064.375-.193.511s-.298.204-.506.204c-.413 0-.657-.223-.732-.668a2.176 2.176 0 0 1 .014-.829c.056-.269.18-.465.371-.589a.708.708 0 0 1 .391-.098c.158 0 .299.054.422.161s.188.245.194.412h-.341a.337.337 0 0 0-.093-.207.263.263 0 0 0-.193-.08c-.179-.001-.303.084-.37.256a1.038 1.038 0 0 0-.066.265l-.02.199.006.006a.439.439 0 0 1 .191-.188.553.553 0 0 1 .268-.064zm.213 1.014a.52.52 0 0 0 .102-.313c0-.19-.069-.321-.208-.393a.344.344 0 0 0-.161-.037.344.344 0 0 0-.277.122c-.066.081-.101.183-.101.306s.033.227.1.312.158.127.275.127a.318.318 0 0 0 .27-.124zM30.833 77.804h1.479v.324h-1.104v.561h.969v.306h-.969v.951h-.375v-2.142zM34.719 78.192c.246 0 .424-.062.534-.185a.33.33 0 0 0 .076-.162h.28v2.101h-.375v-1.482h-.516v-.272z"/></g><path d="M167.344 136.618l-1.524-1.179v-.379l1.524-1.182v.536l-1.121.835 1.121.833v.536zM174.154 137.157h.974v.943a1.08 1.08 0 0 1-.267.728 1.191 1.191 0 0 1-.677.379v-.427a.54.54 0 0 0 .349-.256.748.748 0 0 0 .106-.424h-.485v-.943zM182.504 135.249l-1.122-.835v-.536l1.524 1.182v.379l-1.524 1.179v-.536l1.122-.833zM189.716 138.157h.974v.943h-.974v-.943zM196.735 134.598c0-.37.106-.665.318-.886.212-.223.484-.334.817-.334.334 0 .603.09.808.271.207.181.31.422.308.723-.001.301-.095.536-.28.704-.054.049-.11.099-.169.149l-.168.149a.737.737 0 0 0-.142.168c-.082.126-.122.301-.122.522h-.569c0-.285.031-.494.092-.627.062-.135.167-.264.314-.388.057-.047.126-.103.207-.166.14-.112.21-.265.21-.458s-.052-.336-.153-.427a.511.511 0 0 0-.317-.144c-.201 0-.349.067-.443.202-.094.134-.141.315-.141.542h-.57zm.796 1.809h.625v.625h-.625v-.625zM205.2 136.56h.475l-1.25 3.257h-.475l1.25-3.257zM206.232 107.682h.67v.271h-.328v2.224h.328v.271h-.67v-2.766zM221.792 110.448h-.67v-.271h.328v-2.224h-.328v-.271h.67v2.766zM229.83 105.248c.171 0 .401.063.692.19l.341.144a.852.852 0 0 0 .313.073c.097 0 .195-.045.295-.135a.745.745 0 0 0 .121-.129l.112-.144.222.504a1.87 1.87 0 0 1-.343.375.666.666 0 0 1-.438.141c-.179 0-.39-.068-.635-.205s-.481-.204-.711-.202a.464.464 0 0 0-.324.135 1.074 1.074 0 0 0-.197.272l-.226-.504c.174-.344.433-.515.778-.515zM237.739 110.391h-.385l-1.014-2.642h.384l1.015 2.642z" fill="#fff"/><path fill="none" stroke="#fff" stroke-width=".25" stroke-miterlimit="10" d="M199.656 77.625h9.282M214.656 77.625h9.282M229.656 77.625h9.282"/><path d="M42.028 92.521h.604v.563h-.604v-.563zm.023-2.65h.563v.927l-.149 1.389h-.266l-.147-1.389v-.927zM49.027 92.912c.369 0 .637-.093.802-.278a.475.475 0 0 0 .114-.243h.419v3.151H49.8v-2.224h-.773v-.406zM58.655 90.577c.231 0 .402.108.513.326l.072-.258h.314l-.325 1.184a.745.745 0 0 0-.04.218c0 .062.032.092.095.092s.13-.025.201-.075c.148-.105.256-.276.324-.512.035-.119.053-.254.053-.407a1.005 1.005 0 0 0-.354-.769c-.227-.193-.52-.29-.879-.29-.357 0-.657.13-.899.389-.241.26-.362.593-.362 1 0 .409.125.743.376 1.002.25.261.569.391.956.391a1.37 1.37 0 0 0 1.014-.446h.316a1.523 1.523 0 0 1-.574.545 1.535 1.535 0 0 1-.738.193 1.81 1.81 0 0 1-.688-.13 1.61 1.61 0 0 1-.89-.905 1.784 1.784 0 0 1-.132-.686 1.562 1.562 0 0 1 .492-1.173c.149-.146.324-.262.523-.347s.406-.126.62-.125c.214 0 .411.032.591.097.371.132.641.362.811.689.082.163.123.348.123.556a1.374 1.374 0 0 1-.393.984c-.11.111-.227.195-.35.25s-.224.083-.303.081c-.079.002-.145-.02-.196-.063s-.08-.11-.085-.198h-.009c-.059.069-.133.129-.224.18s-.183.077-.277.077a.614.614 0 0 1-.47-.207.663.663 0 0 1-.191-.461c0-.168.024-.322.073-.459.104-.299.275-.513.512-.644a.815.815 0 0 1 .4-.099zm-.259 1.535c.179 0 .331-.092.457-.277a.98.98 0 0 0 .127-.262c.032-.095.048-.19.048-.285s-.035-.181-.104-.257c-.069-.078-.151-.117-.248-.117s-.183.026-.259.077-.142.115-.196.191-.096.16-.125.252-.044.19-.044.292c0 .104.031.194.095.27a.312.312 0 0 0 .249.116zM66.196 95.542h-2.15c.006-.483.237-.88.692-1.192.103-.075.209-.147.321-.217.413-.261.622-.533.63-.817 0-.149-.027-.26-.08-.333a.585.585 0 0 0-.183-.167.53.53 0 0 0-.262-.057.5.5 0 0 0-.262.062c-.181.11-.276.352-.286.726h-.512c0-.359.095-.651.285-.877.189-.226.456-.338.8-.338.343 0 .608.111.795.333.145.177.217.39.217.636 0 .324-.147.61-.441.858a3.624 3.624 0 0 1-.437.323 5.742 5.742 0 0 0-.343.23c-.175.13-.281.255-.319.374h1.536v.456zM74.097 92.139h-.43l-.132.945h-.359l.132-.945h-.5l-.132.945h-.359l.132-.945h-.422V91.8h.469l.082-.584h-.424v-.338h.471l.132-.945h.359l-.132.945h.5l.132-.945h.359l-.132.945h.387v.338h-.434l-.081.584h.382v.339zm-1.16-.923l-.081.584h.5l.082-.584h-.501zM81.189 93.161c0 .342-.148.565-.444.669v.009c.18.037.32.127.42.27a.826.826 0 0 1 .151.483c-.002.321-.111.569-.33.747a1.21 1.21 0 0 1-.788.266c-.525 0-.869-.216-1.029-.648a1.415 1.415 0 0 1-.077-.451h.512a.725.725 0 0 0 .143.479c.1.127.243.191.429.191s.338-.048.454-.145.174-.236.174-.417c0-.22-.087-.372-.262-.457-.124-.06-.312-.086-.564-.079v-.407c.313.011.526-.071.639-.243a.498.498 0 0 0 .06-.265.363.363 0 0 0-.137-.287.46.46 0 0 0-.313-.12c-.286-.001-.465.135-.537.408a.735.735 0 0 0-.026.234h-.512c.012-.306.11-.561.294-.765.185-.203.434-.305.749-.305.261 0 .492.072.694.215.2.146.3.352.3.618zM88.119 89.794v-.35h.193v.35c.45 0 .752.163.908.49.053.111.079.24.079.387h-.512c-.006-.152-.045-.268-.119-.348s-.192-.121-.356-.123v.948c.339.092.584.196.737.312.219.164.329.4.329.709 0 .308-.1.546-.298.716-.199.171-.455.263-.768.275v.352h-.193v-.352c-.328-.006-.593-.101-.793-.284-.202-.183-.3-.439-.294-.769h.512c-.006.422.186.637.576.646v-1.087c-.309-.085-.541-.185-.694-.299-.22-.164-.329-.391-.328-.679s.103-.51.304-.664c.199-.153.439-.23.717-.23zm0 .407c-.163 0-.288.034-.375.101s-.132.173-.132.318.053.257.16.336a.982.982 0 0 0 .347.145v-.9zm.193 2.553c.163-.012.296-.059.4-.141s.155-.213.154-.393c0-.216-.117-.366-.349-.45a2.897 2.897 0 0 0-.205-.064v1.048zM96.387 94.794h-.378v.747h-.512v-.747h-1.325v-.508l1.325-1.896h.512v1.998h.378v.406zm-.89-.406v-1.387h-.011l-.945 1.387h.956zM103.159 91.662c-.258 0-.451-.088-.58-.266-.114-.154-.171-.364-.171-.631 0-.404.137-.679.411-.824a.758.758 0 0 1 .34-.07c.253.001.444.09.574.266.118.155.178.364.178.628 0 .413-.135.688-.404.824a.77.77 0 0 1-.348.073zm-.348-.897c0 .286.061.471.183.556a.264.264 0 0 0 .16.048c.227 0 .344-.201.352-.604 0-.275-.06-.459-.18-.551a.26.26 0 0 0-.171-.05c-.229 0-.344.2-.344.601zm2.147-.94h.343l-1.742 3.366h-.352l1.751-3.366zm.459 3.322c-.258 0-.451-.088-.58-.266-.114-.154-.171-.364-.171-.631 0-.408.137-.683.411-.824a.758.758 0 0 1 .34-.07c.252.001.44.084.565.249.124.166.187.381.187.646 0 .413-.135.688-.404.824a.777.777 0 0 1-.348.072zm-.347-.897c0 .286.061.471.183.556a.264.264 0 0 0 .16.048c.173 0 .283-.122.332-.367.013-.073.02-.175.02-.305s-.019-.235-.057-.314a.483.483 0 0 0-.123-.169.26.26 0 0 0-.171-.05c-.23 0-.344.201-.344.601zM109.914 93.661c.14-.16.342-.239.609-.239.13 0 .257.026.38.079a.893.893 0 0 1 .501.556c.044.129.065.262.065.4 0 .302-.085.56-.255.773-.201.25-.468.375-.802.375s-.604-.083-.809-.248-.313-.403-.325-.712h.512c.015.173.073.305.176.396s.237.136.404.136c.384 0 .58-.231.587-.692 0-.296-.111-.498-.332-.604a.594.594 0 0 0-.268-.053c-.269 0-.438.096-.508.288h-.514l.338-1.725h1.628v.459h-1.246l-.152.804.011.007zM117.626 92.111l1.082-1.405h.431l1.082 1.405h-.612l-.686-.951-.683.951h-.614zM125.569 93.469c.297 0 .536.1.714.3.18.2.27.454.27.764 0 .308-.097.563-.29.767s-.446.305-.758.305c-.62 0-.986-.334-1.099-1.002-.072-.426-.065-.84.02-1.243s.271-.697.559-.884c.15-.098.345-.147.584-.147s.45.081.633.242a.828.828 0 0 1 .292.617h-.512a.493.493 0 0 0-.138-.31.393.393 0 0 0-.29-.121c-.268-.001-.454.126-.556.384a1.696 1.696 0 0 0-.099.397c-.013.129-.023.228-.028.298l.009.009a.665.665 0 0 1 .285-.283.874.874 0 0 1 .404-.093zm.321 1.521a.768.768 0 0 0 .151-.47c0-.286-.104-.482-.312-.589a.503.503 0 0 0-.242-.055.516.516 0 0 0-.415.182c-.102.122-.152.275-.152.459s.05.34.149.468c.1.127.237.191.413.191a.48.48 0 0 0 .408-.186zM132.763 90.584a.756.756 0 0 1 .787-.79c.353 0 .598.148.734.444a.826.826 0 0 1 .068.345c0 .329-.193.598-.58.807l.499.597c.05-.145.083-.288.099-.427h.451a1.797 1.797 0 0 1-.252.779l.617.743h-.631l-.292-.36a1.109 1.109 0 0 1-.901.424c-.297 0-.542-.085-.732-.255-.188-.17-.282-.401-.279-.694 0-.368.245-.675.736-.922a2.27 2.27 0 0 1-.244-.361.688.688 0 0 1-.08-.33zm.099 1.624c0 .173.049.305.147.396s.222.137.372.137a.615.615 0 0 0 .522-.244l.084-.111-.631-.777c-.05.029-.103.058-.158.087-.226.119-.338.289-.336.512zm.941-1.903a.299.299 0 0 0-.237-.104c-.099 0-.18.032-.244.096s-.098.153-.099.268c0 .115.065.248.195.398l.097.12c.12-.083.203-.148.248-.198a.449.449 0 0 0 .13-.307.413.413 0 0 0-.09-.273zM139.446 92.391h2.155v.428c-.524.589-.874 1.229-1.05 1.921a4.563 4.563 0 0 0-.125.802h-.563c.051-.721.305-1.421.76-2.101.141-.209.292-.406.455-.591h-1.633v-.459zM148.525 90.396h.56v.98l.892-.352.196.536-.936.308.576.772-.436.32-.58-.804-.556.804-.46-.32.572-.772-.908-.308.18-.536.9.352v-.98zM154.51 94.614c0-.201.051-.371.155-.508a.743.743 0 0 1 .418-.275v-.009a.72.72 0 0 1-.35-.249.657.657 0 0 1-.121-.396c0-.265.089-.473.268-.623.18-.15.427-.226.742-.226.314 0 .56.075.739.224.178.149.267.357.267.625 0 .151-.04.283-.12.396s-.196.195-.348.249v.009a.746.746 0 0 1 .573.739c-.002.329-.106.583-.313.764-.208.18-.475.27-.8.27-.323 0-.59-.088-.799-.266-.207-.177-.311-.419-.311-.724zm.681.431c.114.103.257.154.429.154s.315-.051.43-.154.172-.243.172-.422c0-.182-.058-.321-.172-.417s-.258-.145-.43-.145-.315.049-.429.147a.513.513 0 0 0-.169.416.53.53 0 0 0 .169.421zm.429-2.309a.538.538 0 0 0-.35.119.418.418 0 0 0-.145.342c0 .148.047.262.141.342a.54.54 0 0 0 .354.115.545.545 0 0 0 .357-.115c.092-.077.139-.189.139-.337s-.048-.263-.144-.346a.526.526 0 0 0-.352-.12zM163.295 89.839v.272a1.271 1.271 0 0 0-.451.314 1.095 1.095 0 0 0-.271.449 2.186 2.186 0 0 0-.068.601c0 .274.029.493.088.656.059.163.151.303.278.421s.269.212.424.284v.274c-.32-.1-.61-.289-.87-.569-.259-.279-.389-.636-.389-1.069 0-.386.113-.723.341-1.013.227-.289.533-.496.918-.62zM170.315 95.058a.439.439 0 0 0 .325.119.47.47 0 0 0 .327-.11.74.74 0 0 0 .191-.274c.045-.11.075-.227.092-.352.016-.125.029-.239.04-.343l-.012-.011a.695.695 0 0 1-.283.283.827.827 0 0 1-.399.098c-.293.001-.532-.096-.716-.291s-.275-.451-.273-.768c.001-.317.098-.576.288-.776.19-.203.456-.304.798-.304.596 0 .95.334 1.063 1.002.071.431.064.846-.021 1.246s-.271.693-.56.879c-.151.1-.345.149-.58.149a.934.934 0 0 1-.633-.244.837.837 0 0 1-.297-.615h.512a.496.496 0 0 0 .138.312zm-.194-1.658c0 .288.102.49.305.605a.513.513 0 0 0 .246.055.51.51 0 0 0 .425-.193.741.741 0 0 0 .145-.463c0-.18-.05-.333-.149-.458a.505.505 0 0 0-.42-.189.482.482 0 0 0-.41.187.721.721 0 0 0-.142.456zM185.788 92.329c.406 0 .701.184.884.552.136.277.204.639.204 1.086 0 .732-.179 1.226-.537 1.482-.141.104-.325.156-.551.156s-.409-.052-.551-.156c-.357-.262-.537-.756-.537-1.482 0-.455.068-.816.205-1.086.079-.163.189-.295.332-.398.142-.103.326-.154.551-.154zm.577 1.638c0-.807-.192-1.21-.576-1.21s-.575.403-.575 1.21c0 .569.098.94.294 1.113a.412.412 0 0 0 .281.097c.383 0 .576-.404.576-1.21zM192.145 91.159h3.345v.486h-3.345v-.486zM198.16 94.076h2.69v.486h-2.69v-.486zM208.154 89.86h.65v1.285h1.279v.65h-1.279v1.288h-.65v-1.288h-1.282v-.65h1.282V89.86zM215.063 94.177h-2.268v-.459h2.268v.459zm0 .909h-2.268v-.459h2.268v.459zM199.783 106.076a.27.27 0 0 0 .234-.111.169.169 0 0 0 .03-.108v-.617c0-.124.044-.223.131-.298a.39.39 0 0 1 .253-.113h.274v.271h-.158c-.063.001-.106.021-.126.06a.315.315 0 0 0-.032.15v.584a.283.283 0 0 1-.128.245.419.419 0 0 1-.2.07v.006c.138.011.234.064.289.161.026.043.039.1.039.171v.565c0 .099.024.162.073.191.021.013.05.019.085.019h.158v.271h-.274a.389.389 0 0 1-.253-.112.373.373 0 0 1-.131-.299v-.593c0-.085-.03-.147-.091-.185a.331.331 0 0 0-.174-.057v-.271zM214.517 107.323c.106 0 .159-.07.159-.21v-.583a.28.28 0 0 1 .129-.245.486.486 0 0 1 .2-.07v-.006a.38.38 0 0 1-.189-.053.31.31 0 0 1-.14-.28v-.566a.279.279 0 0 0-.021-.134c-.027-.05-.074-.075-.139-.076h-.157v-.271h.274c.084 0 .169.037.255.11a.375.375 0 0 1 .129.301v.594c0 .087.029.15.089.187s.118.056.175.056v.271a.268.268 0 0 0-.146.034c-.081.047-.12.108-.118.186v.616a.378.378 0 0 1-.129.299.391.391 0 0 1-.255.112h-.274v-.271h.158zM177.618 89.839c.373.126.676.33.909.608s.35.621.35 1.026c0 .392-.108.723-.324.995-.217.272-.528.486-.935.642v-.274c.19-.088.349-.199.473-.334s.208-.28.252-.435.065-.352.065-.591c0-.253-.024-.459-.073-.617a1.09 1.09 0 0 0-.279-.445 1.333 1.333 0 0 0-.438-.302v-.273z" fill="#fff"/><path fill="none" stroke="#fff" stroke-width=".25" stroke-miterlimit="10" d="M226.199 91.979v-1.336l-1.349.991-1.35.991 1.35.991 1.349.991v-1.336h11.271v-1.292zM38.672 108.067v1.336l1.349-.991 1.35-.991-1.35-.991-1.349-.991v1.336H27.401v1.292z"/><linearGradient id="c" gradientUnits="userSpaceOnUse" x1="272.628" y1="144.073" x2="272.628" y2="99.177"><stop offset="0" stop-color="#d1cfd2"/><stop offset="1" stop-color="#aaa5a0"/></linearGradient><linearGradient id="d" gradientUnits="userSpaceOnUse" x1="272.628" y1="144.573" x2="272.628" y2="98.677"><stop offset="0" stop-color="#d8d6d5"/><stop offset="1" stop-color="#979390"/></linearGradient><circle cx="272.628" cy="121.625" r="22.448" fill="url(#c)" stroke="url(#d)" stroke-miterlimit="10"/><g><path d="M19.759 35.456h71.28c.688 0 1.245.561 1.245 1.252v11.951c0 .692-.557 1.253-1.245 1.253h-71.28a1.249 1.249 0 0 1-1.245-1.253V36.708a1.25 1.25 0 0 1 1.245-1.252z" fill="#070308"/><path d="M61.332 36.792H90.05c.559 0 1.011.456 1.011 1.017v9.706c0 .562-.452 1.017-1.011 1.017H61.332a1.014 1.014 0 0 1-1.011-1.017v-9.706c0-.562.453-1.017 1.011-1.017z" fill="#707476"/><path d="M19.622 35.456v.45h71.703a.812.812 0 0 1 .807.815v12.076a.813.813 0 0 1-.807.815H19.622a.812.812 0 0 1-.807-.815V36.721a.813.813 0 0 1 .807-.815v-.9a1.713 1.713 0 0 0-1.708 1.716v12.076c0 .945.762 1.715 1.708 1.716h71.703a1.713 1.713 0 0 0 1.708-1.716V36.721c0-.945-.762-1.715-1.708-1.716H19.622v.451z" fill="#ccc"/><path fill="#e9e439" d="M53.922 45.492H24.227l.437.525 28.779.004z"/><path fill="#d17733" d="M54.613 44.663l-15.544.003-15.533-.003.508.609 15.018-.003 15.044.003.508-.609z"/><path fill="#c23435" d="M55.3 43.839H22.849l.503.604 15.717-.003 15.728.003z"/><path d="M24.722 42.251l-.453-.75c-.358-.526-.721-.758-1.333-.758h-1.432l-.5-.672h2.332l-.401-.756s-1.688-.027-2.495 0a.518.518 0 0 0-.488.75l.707.977c.313.342.532.438 1.261.457h1.391l.488.756h-2.27l.76.911 1.964-.008c.582-.002.597-.694.469-.907zM23.459 39.316l2.187 3.841h.885l-.885-1.658s.741.011 1.113-.014c.645.014.881-.174.692-.737l-.302-.677c-.283-.564-.405-.714-1.256-.755h-2.434zm1.439.756h1.266l.297.672h-1.254l-.309-.672zM31.286 43.157l-.27-.896s-1.058-.017-1.591-.007a43.8 43.8 0 0 1-.303-.756h1.592l-.208-.748h-1.652l-.305-.679h1.709l-.205-.762-1.867.007c-.463 0-.733.473-.646.761l.954 2.189c.299.569.582.804 1.126.872.61.074 1.666.019 1.666.019zM32.52 39.316s-.737-.01-1.218.01c-.466.008-.782.356-.707.752l.628 2.167c.198.483.601.912 1.161.905l.993.007-.168-.903h-1.051l-.642-2.183h1.151l-.147-.755zM32.858 40.072h.725l.618 3.085h.741l-.502-3.085h.566l-.096-.752-2.199-.004zM37.847 41.499c.344 0 .748-.399.742-.718-.018-.234-.016-.485-.042-.71-.074-.485-.589-.746-.976-.754-.791.017-2.381 0-2.381 0l.5 3.841h.827l-.32-3.085h1.435l.007.672h-.362c-.515 0-.56.381-.336.749.387.6 1.214 1.673 1.214 1.673h1.018c0-.001-.755-.912-1.326-1.668z" fill="#fff"/><path d="M39.183 39.245l-.167 3.913.844.008-.003-.912h1.16l-.041.913.769-.001s.288-1.472.282-2.414c.022-.831-.586-1.436-1.435-1.498-.465-.015-1.409-.009-1.409-.009zm1.931 1.499l.014.675-1.181-.007-.024-1.34c.843 0 1.165.183 1.191.672zM43.536 43.092c.479-.112.779-.482 1.101-1.163.816-1.719 1.226-2.613 1.226-2.613h-.915l-1.274 2.692c-.116.191-.318.263-.53.246.163-1.029.526-2.938.526-2.938h-.905s-.606 3.652-.606 3.85c.001.005.991.016 1.377-.074zM47.187 39.316l-1.042.004-1.11 3.846.98-.006zM47.72 39.32l-1.217 3.845h2.043c.604 0 1.331-.924 1.331-.924l1.053-2.187c.239-.542-.139-.738-.727-.728-.848-.01-2.483-.006-2.483-.006zm2.131.752L49 42.255s-.799-.008-1.199 0l.685-2.183h1.365zM52.948 42.254h-1.665l.364-.755h1.796l.364-.756h-1.771l.355-.671 1.901.001.385-.757s-1.344-.028-2.119.024c-.617.057-1.045.387-1.196.739l-1.016 2.182c-.281.582.091.878.416.888.598.019 1.735.011 1.735.011l.451-.906zM56.034 39.335c-.656.031-1.013.287-1.344.725-.437.581-1.364 2.206-1.364 2.206-.386.746.162.868.596.887l1.091.004c.488-.011.591-.049.824-.187.122-.072.382-.352.686-.718l1.582-2.176c.217-.298-.194-.759-.607-.747l-1.464.006zm-.323.737h1.435l-1.544 2.183h-1.32l1.429-2.183zM56.63 42.469v.101h.195v.513h.112v-.513h.196v-.101zM57.341 42.469l-.052.614h.105l.052-.4.15.4h.082l.145-.395.052.395h.108l-.052-.614h-.132l-.161.442-.164-.442z" fill="#fff"/><path d="M64.86 38.846c-.588 0-.971.054-1.149.161-.178.107-.319.337-.319.688 0 .422.13.683.285.78s.63.146 1.425.146c.944 0 1.563.12 1.856.361.294.241.494.716.494 1.425 0 .865-.214 1.428-.537 1.688-.323.261-1.018.391-2.085.391l-2.68-.084v-.937l2.758.017c.542 0 .89-.059 1.042-.176s.28-.387.28-.81c0-.325-.11-.543-.227-.654-.116-.111-.362-.166-.737-.166l-.679-.039c-.996 0-1.642-.12-1.939-.361s-.499-.732-.499-1.474c0-.787.222-1.308.562-1.561.34-.254 1.04-.381 2.1-.381.212.009 3.567.059 3.567.059l-.136.931c.001 0-3.239 0-3.382-.004z" fill="#070308"/><path d="M72.4 37.918h1.299l-2.084 6.509h-1.881l-2.065-6.509h1.27l1.212 3.688c.116.352.288.94.514 1.766l.146-.439c.064-.26.136-.511.213-.751.026-.084.087-.276.184-.576l1.192-3.688zM82.374 37.918h1.096v6.509h-1.096zM76.931 37.854v1.031h1.861c.514.006.833.055.954.146.129.097.194.356.194.779 0 .344-.062.566-.185.664-.086.068-.249.113-.484.134h-1.903v.97H79c.427 0 .703.054.833.165.129.11.194.343.194.694 0 .443-.072.725-.217.845-.114.094-.349.149-.702.169h-2.174v1.031h2.23v-.002c.754-.03 1.28-.162 1.576-.397.339-.27.509-.776.509-1.518 0-.495-.086-.848-.257-1.059-.146-.18-.389-.3-.728-.36l.001-.102c.301-.071.518-.2.65-.387.158-.225.236-.591.236-1.099 0-.644-.176-1.087-.528-1.332-.341-.236-.953-.355-1.831-.362v-.007h-1.861zM88.62 41.12c.314.089.54.224.677.406.165.218.248.564.248 1.039 0 .761-.165 1.272-.495 1.532s-.989.39-1.978.39c-1.021 0-1.707-.12-2.056-.361s-.524-.716-.524-1.425c0-.553.08-.941.238-1.166.135-.191.373-.33.712-.415l-.001-.105c-.313-.104-.528-.228-.648-.393-.142-.195-.213-.523-.213-.985 0-.696.16-1.166.48-1.41s.936-.366 1.848-.366c1.041 0 1.727.114 2.06.341.333.228.5.703.5 1.425 0 .455-.073.784-.218.985-.122.169-.335.303-.64.404l.01.104zm-1.635-2.253c-.543 0-.879.045-1.008.137-.129.091-.194.332-.194.722 0 .41.071.66.213.751.142.091.533.137 1.173.137.479 0 .781-.054.907-.161s.189-.369.189-.785c0-.358-.069-.581-.208-.668-.14-.089-.497-.133-1.072-.133zm.009 2.703c-.588 0-.952.05-1.091.151-.139.101-.208.363-.208.786 0 .436.071.703.213.8.142.097.53.146 1.164.146.569 0 .923-.055 1.062-.166.139-.111.208-.397.208-.859 0-.371-.079-.606-.237-.708-.158-.1-.529-.15-1.111-.15z" fill="#070308"/><path d="M74.999 40.288a.796.796 0 0 0 0 1.592.796.796 0 0 0 0-1.592z" fill="#923d82"/><path d="M62.445 45.948v.641h.146c.266 0 .399-.104.399-.313 0-.219-.133-.328-.399-.328h-.146zm-.42 1.77v-2.103h.53c.581 0 .871.212.871.637 0 .231-.078.404-.234.518-.138.1-.329.15-.571.15h-.177v.798h-.419zM63.473 47.718v-2.103h1.234v.332h-.814v.518h.745v.331h-.745v.591h.82v.331zM65.267 45.948v.566h.138c.295 0 .442-.097.442-.292 0-.113-.047-.19-.142-.232a.835.835 0 0 0-.301-.041h-.137zm-.419 1.77v-2.103h.453c.32 0 .541.022.661.066.215.078.323.247.323.504a.481.481 0 0 1-.431.487v.006c.093.008.167.08.222.218l.335.822h-.466l-.251-.656-.102-.168-.188-.05h-.135v.874h-.421zM67.621 45.655l-.04.347a1.042 1.042 0 0 0-.425-.091l-.218.061c-.074.051-.111.128-.111.232 0 .095.079.176.237.243.254.107.401.175.441.203a.54.54 0 0 1 .237.469c0 .217-.078.381-.234.491-.136.097-.319.146-.549.146-.138 0-.317-.027-.536-.083l.04-.379a.986.986 0 0 0 .473.129.47.47 0 0 0 .244-.063l.125-.208c0-.106-.079-.194-.237-.265a7.78 7.78 0 0 1-.441-.205.528.528 0 0 1-.237-.461c0-.219.075-.384.227-.497a.821.821 0 0 1 .502-.145c.185.001.352.026.502.076zM67.769 46.661c0-.329.087-.59.263-.782.181-.199.435-.298.762-.298.321 0 .574.1.757.301.177.195.266.455.266.779 0 .327-.087.588-.263.786-.184.206-.438.309-.76.309-.328 0-.583-.102-.765-.306-.174-.195-.26-.458-.26-.789zm.436 0c0 .213.044.387.133.523a.506.506 0 0 0 .454.238c.199 0 .35-.079.453-.238a.94.94 0 0 0 .133-.523.896.896 0 0 0-.138-.513c-.105-.158-.255-.237-.449-.237s-.344.079-.45.237a.911.911 0 0 0-.136.513zM69.923 47.718v-2.103h.514l.796 1.573h.006v-1.573h.4v2.103h-.511l-.799-1.572h-.006v1.572z" fill="#070308"/><path d="M72.983 46.905l-.303-.868h-.006l-.302.868h.611zm-1.347.813l.814-2.103h.473l.82 2.103h-.463l-.18-.482h-.847l-.183.482h-.434zM73.76 47.718v-2.103h.42v1.772h.811v.331zM77.08 47.335l.017.353a2.117 2.117 0 0 1-.475.066c-.351 0-.626-.086-.827-.26-.213-.183-.32-.447-.32-.791 0-.357.102-.634.307-.833.202-.194.482-.291.84-.291.167 0 .325.029.472.086l-.029.356a.906.906 0 0 0-.453-.112.656.656 0 0 0-.512.219.791.791 0 0 0-.188.542c0 .22.063.398.188.536a.67.67 0 0 0 .522.214.983.983 0 0 0 .458-.085z" fill="#070308"/><path d="M77.051 46.661c0-.329.087-.59.263-.782.182-.199.435-.298.762-.298.321 0 .574.1.757.301.177.195.266.455.266.779 0 .327-.088.588-.263.786-.184.206-.438.309-.76.309-.328 0-.582-.102-.764-.306-.175-.195-.261-.458-.261-.789zm.437 0c0 .213.044.387.133.523a.508.508 0 0 0 .455.238c.199 0 .35-.079.453-.238a.94.94 0 0 0 .133-.523.896.896 0 0 0-.138-.513c-.105-.158-.254-.237-.448-.237s-.344.079-.45.237a.888.888 0 0 0-.138.513zM79.225 47.718v-2.103h.67l.497 1.594h.006l.497-1.594h.669v2.103h-.4v-1.736h-.006l-.562 1.736h-.402l-.563-1.736-.006.006v1.73zM82.176 45.948v.641h.146c.266 0 .399-.104.399-.313 0-.219-.133-.328-.399-.328h-.146zm-.419 1.77v-2.103h.531c.581 0 .871.212.871.637 0 .231-.078.404-.233.518-.139.1-.329.15-.572.15h-.177v.798h-.42zM83.19 46.959v-1.344h.417v1.215c0 .395.145.593.434.593.29 0 .434-.198.434-.593v-1.215h.419v1.344c0 .53-.285.795-.854.795-.566 0-.85-.265-.85-.795zM85.493 47.718v-1.771h-.599v-.332h1.616v.332h-.598v1.771zM86.525 47.718v-2.103h1.233v.332h-.814v.518h.745v.331h-.745v.591h.82v.331zM88.319 45.948v.566h.137c.295 0 .443-.097.443-.292 0-.113-.047-.19-.142-.232a.835.835 0 0 0-.301-.041h-.137zm-.42 1.77v-2.103h.453c.32 0 .541.022.661.066.215.078.323.247.323.504a.481.481 0 0 1-.431.487v.006c.093.008.167.08.222.218l.334.822h-.466l-.251-.656-.103-.168-.188-.05h-.134v.874h-.42z" fill="#070308"/></g><linearGradient id="e" gradientUnits="userSpaceOnUse" x1="272.628" y1="103.667" x2="272.628" y2="139.583"><stop offset="0" stop-color="#21282b"/><stop offset="1" stop-color="#5b6065"/></linearGradient><circle cx="272.628" cy="121.625" r="17.958" fill="url(#e)" stroke="#000" stroke-width=".75" stroke-miterlimit="10"/><g><linearGradient id="f" gradientUnits="userSpaceOnUse" x1="260.878" y1="116.596" x2="260.878" y2="126.654"><stop offset="0" stop-color="#21282b"/><stop offset="1" stop-color="#72787e"/></linearGradient><circle cx="260.878" cy="121.625" r="5.029" fill="url(#f)"/><linearGradient id="g" gradientUnits="userSpaceOnUse" x1="260.878" y1="126.32" x2="260.878" y2="116.93"><stop offset="0" stop-color="#21282b"/><stop offset="1" stop-color="#72787e"/></linearGradient><circle cx="260.878" cy="121.625" r="4.695" fill="url(#g)"/><path fill="#141419" d="M259.518 120.828v-.941l-.906.9-.906.901.906.9.906.901v-.942h4.531v-1.719z"/><path fill="#656c75" d="M259.518 120.703v-.942l-.906.901-.906.9.906.901.906.9v-.941h4.531v-1.719z"/><path fill="#353a40" d="M259.518 120.766v-.942l-.906.9-.906.901.906.9.906.901v-.942h4.531v-1.718z"/><g><linearGradient id="h" gradientUnits="userSpaceOnUse" x1="239.331" y1="116.596" x2="239.331" y2="126.654" gradientTransform="matrix(-1 0 0 1 523.708 0)"><stop offset="0" stop-color="#21282b"/><stop offset="1" stop-color="#72787e"/></linearGradient><circle cx="284.378" cy="121.625" r="5.029" fill="url(#h)"/><linearGradient id="i" gradientUnits="userSpaceOnUse" x1="239.331" y1="126.32" x2="239.331" y2="116.93" gradientTransform="matrix(-1 0 0 1 523.708 0)"><stop offset="0" stop-color="#21282b"/><stop offset="1" stop-color="#72787e"/></linearGradient><circle cx="284.378" cy="121.625" r="4.695" fill="url(#i)"/><path fill="#141419" d="M285.737 120.828v-.941l.906.9.906.901-.906.9-.906.901v-.942h-4.531v-1.719z"/><path fill="#656c75" d="M285.737 120.703v-.942l.906.901.906.9-.906.901-.906.9v-.941h-4.531v-1.719z"/><path fill="#353a40" d="M285.737 120.766v-.942l.906.9.906.901-.906.9-.906.901v-.942h-4.531v-1.718z"/></g><g><linearGradient id="j" gradientUnits="userSpaceOnUse" x1="267.123" y1="120.889" x2="257.066" y2="120.889" gradientTransform="rotate(-90 273.604 121.865)"><stop offset="0" stop-color="#21282b"/><stop offset="1" stop-color="#72787e"/></linearGradient><circle cx="272.628" cy="133.375" r="5.029" fill="url(#j)"/><linearGradient id="k" gradientUnits="userSpaceOnUse" x1="257.399" y1="120.889" x2="266.79" y2="120.889" gradientTransform="rotate(-90 273.604 121.865)"><stop offset="0" stop-color="#21282b"/><stop offset="1" stop-color="#72787e"/></linearGradient><circle cx="272.628" cy="133.375" r="4.695" fill="url(#k)"/><path fill="#141419" d="M271.831 134.734h-.942l.901.907.9.906.901-.906.9-.907h-.941v-4.531h-1.719z"/><path fill="#656c75" d="M271.706 134.734h-.942l.9.907.901.906.9-.906.901-.907h-.942v-4.531h-1.718z"/><path fill="#353a40" d="M271.768 134.734h-.941l.9.907.901.906.9-.906.901-.907h-.942v-4.531h-1.719z"/></g><g><linearGradient id="l" gradientUnits="userSpaceOnUse" x1="233.085" y1="120.889" x2="243.143" y2="120.889" gradientTransform="matrix(0 1 1 0 151.739 -128.239)"><stop offset="0" stop-color="#21282b"/><stop offset="1" stop-color="#72787e"/></linearGradient><circle cx="272.628" cy="109.875" r="5.029" fill="url(#l)"/><linearGradient id="m" gradientUnits="userSpaceOnUse" x1="242.809" y1="120.889" x2="233.419" y2="120.889" gradientTransform="matrix(0 1 1 0 151.739 -128.239)"><stop offset="0" stop-color="#21282b"/><stop offset="1" stop-color="#72787e"/></linearGradient><circle cx="272.628" cy="109.875" r="4.695" fill="url(#m)"/><path fill="#141419" d="M271.831 108.516h-.942l.901-.907.9-.906.901.906.9.907h-.941v4.531h-1.719z"/><path fill="#656c75" d="M271.706 108.516h-.942l.9-.907.901-.906.9.906.901.907h-.942v4.531h-1.718z"/><path fill="#353a40" d="M271.768 108.516h-.941l.9-.907.901-.906.9.906.901.907h-.942v4.531h-1.719z"/></g></g><radialGradient id="n" cx="272.628" cy="121.625" r="10.083" gradientTransform="matrix(.866 -.5 .35 .6062 -6.044 184.208)" gradientUnits="userSpaceOnUse"><stop offset="0" stop-color="#be6b6c"/><stop offset=".233" stop-color="#ac554f"/><stop offset=".457" stop-color="#9d4139"/><stop offset=".665" stop-color="#92312a"/><stop offset=".852" stop-color="#8b2321"/><stop offset="1" stop-color="#891c1e"/></radialGradient><circle cx="272.628" cy="121.625" r="10.083" fill="url(#n)"/><path d="M5.812 61.667c-.782 0-1.378-.908-1.613-1.837l-1.178-4.204H315l-1.178 4.204c-.235.929-.831 1.837-1.613 1.837H5.812z" fill="#ececea"/><path fill="#d3d1cf" stroke="#bcbcbc" stroke-width=".099" stroke-miterlimit="10" d="M201.167 1.146h74V55.5h-74z"/><g><path fill="#dbdbdb" d="M210.667 32.667h52.75V51h-52.75z"/><path fill="#cccbc9" d="M205.896 51.917V31.75l4.771.917V51z"/><path fill="#cac9c7" d="M269.333 51.917V31.75l-5.916.917V51z"/><path fill="#c3beb8" d="M210.667 51h52.75l5.916.917h-63.437z"/><path fill="#f1efeb" d="M210.802 32.573h52.75l5.917-.917h-63.573z"/></g><g fill="#aaa9a9"><path d="M205.896 25.875h63.573v.76h-63.573zM205.896 21.813h63.573v.76h-63.573zM205.896 13.688h63.573v.76h-63.573zM205.896 5.563h63.573v.76h-63.573zM205.896 17.75h63.573v.76h-63.573zM205.896 9.625h63.573v.76h-63.573z"/></g><g fill="#dbdbdb"><path d="M205.896 18.51h63.573v1.75h-63.573zM205.896 10.385h63.573v1.75h-63.573zM205.896 26.635h63.573v1.75h-63.573zM205.896 22.573h63.573v1.75h-63.573zM205.896 14.448h63.573v1.75h-63.573zM205.896 6.323h63.573v1.75h-63.573z"/></g><g><g fill="none" stroke="#000" stroke-miterlimit="10"><path stroke-width=".15" d="M64.751 99.063h3.052v3.052h-3.052z"/><path stroke-width=".25" d="M66.277 102.115v-1.526h1.526M66.277 100.589h-1.526"/></g><path fill="none" stroke="#000" stroke-width=".15" stroke-miterlimit="10" d="M71.426 99.062v3.052h-3.052v-3.052z"/><path d="M71.426 102.115l-3.052-3.052h3.052z"/><g fill="none" stroke="#000" stroke-miterlimit="10"><path stroke-width=".15" d="M82.886 99.062v3.052h-3.052v-3.052z"/><path stroke-width=".25" d="M79.834 100.589h1.526v1.526"/><g><path stroke-width=".15" d="M83.458 99.063h3.052v3.052h-3.052z"/><path stroke-width=".25" d="M83.458 99.063l3.052 3.052"/></g></g><path fill="none" stroke="#000" stroke-width=".15" stroke-miterlimit="10" d="M94.918 99.063h3.052v3.052h-3.052z"/><path d="M96.444 100.589h1.526v1.526h-1.526z"/><path fill="none" stroke="#000" stroke-width=".15" stroke-miterlimit="10" d="M98.541 99.063h3.052v3.052h-3.052z"/><path d="M100.576 101.097v-.509h-.509v.509h-.509v-.509h-.509v.509h-.508v.509h.508v.509h.509v-.509h.509v.509h.509v-.509h.509v-.509h-.509zm-1.018.509h-.508v-.509h.509v.509zm1.018 0h-.509v-.509h.509v.509zM101.085 101.606h.509v.509h-.509zM101.085 100.589h.509v.509h-.509z"/><path d="M98.541 101.606h.001v.509h-.001zM98.541 100.589h.001v.509h-.001z"/><path fill="none" stroke="#000" stroke-width=".15" stroke-miterlimit="10" d="M110.001 99.079h3.052v3.052h-3.052z"/><path d="M110.001 100.605h3.052v1.526h-3.052z"/><path fill="none" stroke="#000" stroke-width=".15" stroke-miterlimit="10" d="M113.625 99.079h3.052v3.052h-3.052z"/><path d="M114.642 101.114h.509v-.509h-.509v-.509h.509v-.509h-.509v-.508h-.509v.508h-.509v.509h.509v.509h-.509v.509h.509v.509h.509v-.509zm-.509-1.018v-.509h.509v.509h-.509zm0 1.018v-.509h.509v.509h-.509z"/><path d="M113.625 101.622h.509v.509h-.509zM114.642 101.622h.509v.509h-.509zM113.625 99.078h.509v.001h-.509zM114.642 99.078h.509v.001h-.509z"/><path fill="none" stroke="#000" stroke-width=".15" stroke-miterlimit="10" d="M125.085 99.079h3.052v3.052h-3.052z"/><path d="M125.085 100.605h1.526v1.526h-1.526z"/><path fill="none" stroke="#000" stroke-width=".15" stroke-miterlimit="10" d="M128.708 99.079h3.052v3.052h-3.052z"/><path d="M130.743 101.113v-.509h-.509v.509h-.509v-.509h-.509v.509h-.508v.509h.508v.509h.509v-.509h.509v.509h.509v-.509h.509v-.509h-.509zm-1.018.509h-.509v-.509h.509v.509zm1.018 0h-.509v-.509h.509v.509zM131.252 101.622h.509v.509h-.509zM131.252 100.605h.509v.509h-.509z"/><path d="M128.708 101.622h.001v.509h-.001zM128.708 100.605h.001v.509h-.001z"/><g><path d="M129.216 99.587v.509h.509v.509h.509v-.509h.509v.509h.509v-.509h.508v-.509h-.508v-.509h-.509v.509h-.509v-.509h-.509v.509h-.509zm1.527 0h.509v.509h-.509v-.509zm-1.018 0h.509v.509h-.509v-.509z"/><path d="M128.708 100.096h.509v.509h-.509zM128.708 99.079h.509v.509h-.509zM131.76 100.096h.001v.509h-.001zM131.76 99.079h.001v.509h-.001z"/></g><g><path fill="none" stroke="#000" stroke-width=".15" stroke-miterlimit="10" d="M185.418 99.079h3.052v3.052h-3.052z"/><path d="M185.847 102.13h-.428v-3.052h.428zM188.47 102.13h-.428v-3.052h.428z"/><path d="M188.47 101.702v.428h-3.052v-.428zM188.47 99.079v.428h-3.052v-.428z"/><g><path d="M189.042 99.079h3.052v3.052h-3.052z"/></g></g><g><g fill="none" stroke="#000" stroke-miterlimit="10"><path stroke-width=".15" d="M54.277 113.538h3.052v3.052h-3.052z"/><path stroke-width=".25" d="M55.803 116.59v-1.526h1.526"/></g><path fill="none" stroke="#000" stroke-width=".15" stroke-miterlimit="10" d="M57.9 116.59v-3.052h3.053v3.052z"/><path d="M57.9 113.538l3.052 3.052H57.9z"/><path fill="none" stroke="#000" stroke-width=".25" stroke-miterlimit="10" d="M55.803 115.064v-1.526"/></g><g><g fill="none" stroke="#000" stroke-miterlimit="10"><path stroke-width=".15" d="M69.41 113.538h3.052v3.052H69.41z"/><path stroke-width=".25" d="M70.936 113.538v3.052M69.41 115.064h3.053"/></g><path fill="none" stroke="#000" stroke-width=".15" stroke-miterlimit="10" d="M76.086 116.59h-3.052v-3.053h3.052z"/><path d="M73.034 116.59l3.052-3.052v3.052z"/></g><g fill="none" stroke="#000" stroke-miterlimit="10"><path stroke-width=".15" d="M84.444 113.538h3.052v3.052h-3.052z"/><path stroke-width=".25" d="M85.97 113.538v3.052M84.444 115.064h3.052"/><g><path stroke-width=".15" d="M88.067 113.538h3.052v3.052h-3.052z"/><path stroke-width=".25" d="M88.067 116.59l3.052-3.052M88.067 113.538l3.052 3.052"/></g></g><g><path fill="none" stroke="#000" stroke-width=".15" stroke-miterlimit="10" d="M99.477 113.538h3.052v3.052h-3.052z"/><path d="M101.003 113.538h1.526v3.052h-1.526z"/><g fill="none" stroke="#000" stroke-miterlimit="10"><path stroke-width=".15" d="M103.101 113.538h3.052v3.052h-3.052z"/><circle cx="104.627" cy="115.064" r="1.48" stroke-width=".242"/></g></g><g><path fill="none" stroke="#000" stroke-width=".15" stroke-miterlimit="10" d="M114.51 113.538h3.052v3.052h-3.052z"/><path d="M114.51 113.538h1.526v1.526h-1.526zM116.036 115.064h1.526v1.526h-1.526z"/><g><path fill="none" stroke="#000" stroke-width=".15" stroke-miterlimit="10" d="M118.134 113.538h3.052v3.052h-3.052z"/><path d="M119.66 113.538h1.526v1.526h-1.526zM118.134 115.064h1.526v1.526h-1.526z"/></g></g><g><path fill="none" stroke="#000" stroke-width=".15" stroke-miterlimit="10" d="M129.544 113.538h3.052v3.052h-3.052z"/><path d="M129.544 113.538h1.526v3.052h-1.526z"/><g><path fill="none" stroke="#000" stroke-width=".15" stroke-miterlimit="10" d="M133.167 113.538h3.052v3.052h-3.052z"/><circle cx="134.693" cy="115.064" r="1.526"/></g></g><g><path fill="none" stroke="#000" stroke-width=".15" stroke-miterlimit="10" d="M144.577 113.538h3.052v3.052h-3.052z"/><path d="M144.577 113.538h.428v3.052h-.428z"/><path d="M144.576 116.59v-.429h3.052v.428z"/><g><path fill="none" stroke="#000" stroke-width=".15" stroke-miterlimit="10" d="M148.2 113.538h3.052v3.052H148.2z"/></g><path d="M151.252 115.064a1.526 1.526 0 0 1-1.526-1.526" fill="none" stroke="#000" stroke-width=".25" stroke-miterlimit="10"/></g><g><path fill="none" stroke="#000" stroke-width=".15" stroke-miterlimit="10" d="M174.643 113.538h3.052v3.052h-3.052zM178.267 113.538h3.052v3.052h-3.052z"/><path d="M174.643 116.59v-.428h3.052v.428zM178.71 116.59h-.427v-3.053h.428z"/></g><g fill="none" stroke="#000" stroke-miterlimit="10"><path stroke-width=".15" d="M62.006 131.298v-3.052h3.052v3.052z"/><path stroke-width=".25" d="M65.058 129.772h-1.526v-1.526"/><g><path stroke-width=".15" d="M65.63 128.246h3.052v3.052H65.63z"/><path stroke-width=".25" d="M67.156 128.246v3.052"/></g></g><g fill="none" stroke="#000" stroke-miterlimit="10"><path stroke-width=".15" d="M77.089 128.246h3.052v3.052h-3.052z"/><path stroke-width=".25" d="M78.616 131.298v-1.526h1.526"/><path stroke-width=".15" d="M80.713 128.246h3.052v3.052h-3.052z"/><path stroke-width=".25" d="M80.713 129.772h3.052M78.616 129.772h-1.527"/></g><g><g fill="none" stroke="#000" stroke-miterlimit="10"><path stroke-width=".15" d="M95.225 131.298h-3.052v-3.052h3.052z"/><path stroke-width=".25" d="M93.699 128.246v1.526h-1.526"/></g><path fill="none" stroke="#000" stroke-width=".15" stroke-miterlimit="10" d="M95.796 128.246h3.052v3.052h-3.052zM95.796 131.298l3.053-3.052"/></g><g><path fill="none" stroke="#000" stroke-width=".15" stroke-miterlimit="10" d="M107.256 131.298v-3.052h3.052v3.052z"/><path d="M108.782 128.246h1.526v1.526h-1.526z"/><path fill="none" stroke="#000" stroke-width=".15" stroke-miterlimit="10" d="M110.88 128.246h3.052v3.052h-3.052z"/><path d="M111.898 131.296v-.377l.016-.012a1.096 1.096 0 0 1-.055.004l-.055.001a.964.964 0 0 1-.654-.253.852.852 0 0 1-.198-.276.808.808 0 0 1-.072-.338.814.814 0 0 1 .271-.614l1.256-1.183 1.256 1.183a.841.841 0 0 1 .269.614c0 .12-.024.233-.072.337a.876.876 0 0 1-.197.276.958.958 0 0 1-.651.254l-.055-.001a1.096 1.096 0 0 1-.055-.004l.014.012v.377h-1.018z"/></g><g><path fill="none" stroke="#000" stroke-width=".15" stroke-miterlimit="10" d="M122.34 128.246h3.052v3.052h-3.052z"/><path d="M122.34 128.246h3.052v1.526h-3.052z"/><path fill="none" stroke="#000" stroke-width=".15" stroke-miterlimit="10" d="M125.963 128.246h3.052v3.052h-3.052z"/><path d="M128.15 128.246c.08 0 .156.012.23.035a.85.85 0 0 1 .382.247.988.988 0 0 1 .223.423 1.06 1.06 0 0 1-.034.623.977.977 0 0 1-.189.311l-1.273 1.413-1.273-1.413a.966.966 0 0 1-.189-.311 1.044 1.044 0 0 1-.034-.624c.021-.081.05-.158.087-.229a.91.91 0 0 1 .31-.344.832.832 0 0 1 .437-.131.79.79 0 0 1 .362.088.813.813 0 0 1 .154.106c.05.042.097.089.144.142.047-.053.095-.1.144-.142a.863.863 0 0 1 .154-.106.714.714 0 0 1 .365-.088z"/></g><g><path fill="none" stroke="#000" stroke-width=".15" stroke-miterlimit="10" d="M137.423 128.246h3.052v3.052h-3.052z"/><path d="M137.423 128.246h1.526v1.526h-1.526z"/><path fill="none" stroke="#000" stroke-width=".15" stroke-miterlimit="10" d="M141.047 128.246h3.052v3.052h-3.052z"/><path d="M141.047 129.774l1.524-1.528 1.528 1.528-1.528 1.524z"/></g><g><g fill="none" stroke="#000" stroke-miterlimit="10"><path stroke-width=".15" d="M152.507 128.246h3.052v3.052h-3.052z"/><path stroke-width=".25" d="M155.559 129.263h-3.052M155.559 130.281h-3.052"/></g><path fill="none" stroke="#000" stroke-width=".15" stroke-miterlimit="10" d="M156.13 128.246h3.052v3.052h-3.052z"/><path d="M157.18 131.298v-.376l.046-.038a.796.796 0 0 1-.118.024.831.831 0 0 1-.453-.059.871.871 0 0 1-.456-.456.848.848 0 0 1 .122-.872.866.866 0 0 1 .485-.3.889.889 0 0 1 .023-.343.811.811 0 0 1 .087-.205.905.905 0 0 1 .308-.308.865.865 0 0 1 .866 0 .905.905 0 0 1 .308.308.865.865 0 0 1 .11.548.836.836 0 0 1 .485.3.894.894 0 0 1 .14.249c.034.092.05.188.05.289a.826.826 0 0 1-.118.433.877.877 0 0 1-.308.308.827.827 0 0 1-.433.118.785.785 0 0 1-.119-.009 1.174 1.174 0 0 1-.118-.024l.046.038v.376h-.953z"/></g><g><g fill="none" stroke="#000" stroke-miterlimit="10"><path stroke-width=".15" d="M49.667 99.063h3.052v3.052h-3.052z"/><path stroke-width=".25" d="M51.194 102.115v-1.526h1.526"/></g><path fill="none" stroke="#000" stroke-width=".15" stroke-miterlimit="10" d="M53.291 99.063h3.052v3.052h-3.052z"/><path d="M56.343 99.063l-3.052 3.052v-3.052z"/></g><g><path fill="none" stroke="#000" stroke-width=".15" stroke-miterlimit="10" d="M159.61 116.59v-3.052h3.052v3.052z"/><path d="M159.61 116.59v-.428h3.052v.428z"/><path d="M162.662 116.59h-.428v-3.053h.428z"/><g><path fill="none" stroke="#000" stroke-width=".15" stroke-miterlimit="10" d="M163.234 113.538h3.052v3.052h-3.052z"/></g><path d="M164.76 113.538c0 .843-.683 1.526-1.526 1.526" fill="none" stroke="#000" stroke-width=".25" stroke-miterlimit="10"/></g><g><path fill="none" stroke="#000" stroke-width=".15" stroke-miterlimit="10" d="M173.387 102.13h-3.052v-3.052h3.052zM177.01 102.13h-3.051v-3.052h3.052z"/><path d="M173.387 99.079v.428h-3.052v-.428zM176.567 99.079h.428v3.052h-.428z"/></g><g><path fill="none" stroke="#000" stroke-width=".15" stroke-miterlimit="10" d="M158.319 102.052h-3.052V99h3.052z"/><path d="M158.319 102.052h-.428V99h.428z"/><path d="M158.319 99v.428h-3.052V99z"/><g><path fill="none" stroke="#000" stroke-width=".15" stroke-miterlimit="10" d="M158.89 102.052V99h3.052v3.052z"/></g><path d="M158.89 100.526c.843 0 1.526.683 1.526 1.526" fill="none" stroke="#000" stroke-width=".25" stroke-miterlimit="10"/></g><g><path fill="none" stroke="#000" stroke-width=".15" stroke-miterlimit="10" d="M143.22 99.079v3.052h-3.052v-3.052z"/><path d="M143.22 99.079v.428h-3.052v-.428z"/><path d="M140.168 99.079h.428v3.052h-.428z"/><g><path fill="none" stroke="#000" stroke-width=".15" stroke-miterlimit="10" d="M146.843 102.13h-3.052v-3.052h3.052z"/></g><path d="M145.318 102.131c0-.843.683-1.526 1.526-1.526" fill="none" stroke="#000" stroke-width=".25" stroke-miterlimit="10"/></g></g></svg>