<svg xmlns="http://www.w3.org/2000/svg" viewBox="0 0 136.118 56.811"><path d="M134.46 50.429H90.403v6.382h-1.456a.201.201 0 0 1-.202-.202V3.822A3.833 3.833 0 0 1 92.567 0h39.728a3.833 3.833 0 0 1 3.822 3.822V56.61c0 .112-.09.202-.202.202h-1.456v-6.383z" fill="#23231f"/><path d="M134.46 50.429H90.403V3.686A3.697 3.697 0 0 1 94.089 0h36.685a3.697 3.697 0 0 1 3.686 3.686v46.743z" fill="#282823"/><path d="M134.006 43.373h-43.15a.455.455 0 0 1-.453-.453v-.082c0-.249.204-.453.453-.453h43.15c.249 0 .453.204.453.453v.082a.453.453 0 0 1-.453.453z" fill="#1c1812"/><path d="M134.006 43.642h-43.15a.455.455 0 0 1-.453-.453v-.082c0-.249.204-.453.453-.453h43.15c.249 0 .453.204.453.453v.082a.453.453 0 0 1-.453.453z" fill="#23231f"/><path d="M134.006 46.44h-43.15a.455.455 0 0 1-.453-.453v-.082c0-.249.204-.453.453-.453h43.15c.249 0 .453.204.453.453v.082a.453.453 0 0 1-.453.453z" fill="#1c1812"/><path d="M134.006 46.71h-43.15a.455.455 0 0 1-.453-.453v-.082c0-.249.204-.453.453-.453h43.15c.249 0 .453.204.453.453v.082a.453.453 0 0 1-.453.453z" fill="#23231f"/><path d="M134.006 49.508h-43.15a.455.455 0 0 1-.453-.453v-.082c0-.249.204-.453.453-.453h43.15c.249 0 .453.204.453.453v.082a.453.453 0 0 1-.453.453z" fill="#1c1812"/><path d="M134.006 49.777h-43.15a.455.455 0 0 1-.453-.453v-.082c0-.249.204-.453.453-.453h43.15c.249 0 .453.204.453.453v.082a.453.453 0 0 1-.453.453z" fill="#23231f"/><path fill="#191612" d="M90.403 50.429h44.057v6.382H90.403z"/><linearGradient id="a" gradientUnits="userSpaceOnUse" x1="111.678" y1="53.216" x2="111.678" y2="50.429"><stop offset="0" stop-color="#a9a28f"/><stop offset="1" stop-color="#362a1c"/></linearGradient><path d="M124.96 53.216H98.397c-.575 0-1.045-.47-1.045-1.045v-1.742h28.653v1.742c0 .574-.47 1.045-1.045 1.045z" fill="url(#a)"/><g fill="#7c7257"><path d="M99.298 52.957h-.588a.212.212 0 0 1-.212-.212v-2.316h1.011v2.316a.21.21 0 0 1-.211.212zM101.101 52.957h-.588a.212.212 0 0 1-.212-.212v-2.316h1.011v2.316a.21.21 0 0 1-.211.212zM102.905 52.957h-.588a.212.212 0 0 1-.212-.212v-2.316h1.011v2.316a.21.21 0 0 1-.211.212zM104.708 52.957h-.588a.212.212 0 0 1-.212-.212v-2.316h1.011v2.316a.21.21 0 0 1-.211.212zM106.511 52.957h-.588a.212.212 0 0 1-.212-.212v-2.316h1.011v2.316a.21.21 0 0 1-.211.212zM108.315 52.957h-.588a.212.212 0 0 1-.212-.212v-2.316h1.011v2.316a.21.21 0 0 1-.211.212zM110.118 52.957h-.588a.212.212 0 0 1-.212-.212v-2.316h1.011v2.316a.21.21 0 0 1-.211.212zM111.922 52.957h-.588a.212.212 0 0 1-.212-.212v-2.316h1.011v2.316a.21.21 0 0 1-.211.212zM113.725 52.957h-.588a.212.212 0 0 1-.212-.212v-2.316h1.011v2.316a.21.21 0 0 1-.211.212zM115.529 52.957h-.588a.212.212 0 0 1-.212-.212v-2.316h1.011v2.316a.21.21 0 0 1-.211.212zM117.332 52.957h-.588a.212.212 0 0 1-.212-.212v-2.316h1.011v2.316a.21.21 0 0 1-.211.212zM119.136 52.957h-.588a.212.212 0 0 1-.212-.212v-2.316h1.011v2.316a.21.21 0 0 1-.211.212zM120.939 52.957h-.588a.212.212 0 0 1-.212-.212v-2.316h1.011v2.316a.21.21 0 0 1-.211.212zM122.743 52.957h-.588a.212.212 0 0 1-.212-.212v-2.316h1.011v2.316a.211.211 0 0 1-.211.212zM124.546 52.957h-.588a.212.212 0 0 1-.212-.212v-2.316h1.011v2.316a.21.21 0 0 1-.211.212z"/></g><path d="M118.948 11.753h-13.707a.97.97 0 0 1-.967-.967V3.889a.97.97 0 0 1 .967-.967h13.707a.97.97 0 0 1 .967.967v6.897a.97.97 0 0 1-.967.967z" fill="#15110e"/><path d="M119.001 11.753h-13.813a.916.916 0 0 1-.914-.914v-6.06c0-.503.411-.914.914-.914h13.813c.503 0 .914.411.914.914v6.06a.917.917 0 0 1-.914.914z" fill="#2d2d29"/><g fill="none" stroke="#23231f" stroke-width=".351" stroke-miterlimit="10"><path d="M105.161 4.967h13.866M105.161 6.517h13.866M105.161 8.068h13.866"/></g><g fill="#23231f"><path d="M107.337 10.32l-.151-.249c-.119-.175-.24-.252-.443-.252h-.476l-.167-.223h.775l-.133-.251s-.561-.009-.83 0a.172.172 0 0 0-.162.249l.235.325c.104.114.177.145.419.152h.463l.162.251h-.755l.253.303.653-.003c.194-.001.2-.231.157-.302zM106.917 9.344l.727 1.277h.294l-.294-.551s.246.004.37-.005c.214.005.293-.058.23-.245l-.1-.225c-.094-.188-.135-.237-.418-.251h-.809zm.478.252h.421l.099.223h-.417l-.103-.223zM109.519 10.621l-.09-.298s-.352-.006-.529-.002a17.477 17.477 0 0 1-.101-.251h.529l-.069-.249h-.549l-.101-.226h.568l-.068-.253-.621.002c-.154 0-.244.157-.215.253l.317.728c.099.189.193.267.374.29.204.025.555.006.555.006zM109.93 9.344s-.245-.003-.405.003c-.155.003-.26.118-.235.25l.209.721c.066.161.2.303.386.301l.33.002-.056-.3h-.35l-.213-.726h.383l-.049-.251zM110.042 9.596h.241l.206 1.025h.246l-.167-1.025h.188l-.032-.25-.731-.002zM111.701 10.07c.114 0 .249-.133.247-.239-.006-.078-.005-.161-.014-.236-.025-.161-.196-.248-.324-.251-.263.006-.792 0-.792 0l.166 1.277h.275l-.106-1.026h.477l.002.223h-.12c-.171 0-.186.127-.112.249.129.2.404.556.404.556h.338c0 .001-.251-.302-.441-.553z"/><path d="M112.145 9.321l-.055 1.301.281.003-.001-.303h.386l-.013.304h.256s.096-.489.094-.803c.007-.276-.195-.477-.477-.498-.157-.006-.471-.004-.471-.004zm.642.498l.005.224-.393-.002-.008-.445c.28 0 .387.061.396.223zM113.593 10.6c.159-.037.259-.16.366-.387.271-.572.407-.869.407-.869h-.304l-.424.895c-.038.063-.106.087-.176.082.054-.342.175-.977.175-.977h-.301s-.201 1.214-.201 1.28c0 .002.329.006.458-.024zM114.806 9.344l-.346.002-.369 1.278.326-.002zM114.983 9.346l-.405 1.279h.679c.201 0 .442-.307.442-.307l.35-.727c.08-.18-.046-.245-.242-.242-.28-.005-.824-.003-.824-.003zm.709.25l-.283.726s-.266-.003-.399 0l.228-.726h.454zM116.722 10.321h-.553l.121-.251h.597l.121-.251h-.589l.118-.223h.632l.128-.252s-.447-.009-.705.008c-.205.019-.347.129-.398.246l-.338.725c-.094.194.03.292.138.295.199.006.577.004.577.004l.151-.301zM117.748 9.351a.534.534 0 0 0-.447.241 10.82 10.82 0 0 0-.453.733c-.128.248.054.288.198.295l.363.001c.162-.004.196-.016.274-.062a1.45 1.45 0 0 0 .228-.239l.526-.724c.072-.099-.064-.252-.202-.248l-.487.003zm-.107.245h.477l-.514.726h-.439l.476-.726z"/></g><path d="M102.319 6.877h-6.643a2.264 2.264 0 0 0-2.257 2.257v26.544a2.264 2.264 0 0 0 2.257 2.257h33.511a2.264 2.264 0 0 0 2.257-2.257V9.133a2.264 2.264 0 0 0-2.257-2.257h-7.317v5.529c0 .628-.514 1.143-1.143 1.143h-17.266a1.147 1.147 0 0 1-1.143-1.143V6.877z" fill="#c57435"/><path d="M121.87 8.248h6.8c.697 0 1.268.561 1.268 1.247v24.842c0 1.124-.935 2.044-2.078 2.044H97.003c-1.143 0-2.078-.92-2.078-2.044V9.495c0-.686.571-1.247 1.268-1.247h6.126v4.158c0 .628.514 1.143 1.143 1.143h17.266c.628 0 1.143-.514 1.143-1.143V8.248z" fill="#dcd640"/><path d="M102.319 8.738h-5.285a1.36 1.36 0 0 0-1.356 1.356v24.237c0 .746.61 1.356 1.356 1.356h30.796a1.36 1.36 0 0 0 1.356-1.356V10.094a1.36 1.36 0 0 0-1.356-1.356h-5.959v3.667c0 .628-.514 1.143-1.143 1.143h-17.266a1.147 1.147 0 0 1-1.143-1.143V8.764" fill="#14141c"/><path fill="#dcd640" d="M124.119 33.106h-22.635l.334.4 21.936.003z"/><path fill="#c57435" d="M124.646 32.474l-11.848.002-11.84-.002.387.464 11.447-.003 11.467.003.387-.464z"/><path fill="#b53535" d="M125.169 31.846h-24.735l.383.46 11.98-.002 11.989.002z"/><path d="M101.861 30.635l-.345-.571c-.273-.401-.55-.578-1.016-.578h-1.092l-.381-.512h1.777l-.306-.576s-1.286-.02-1.902 0a.395.395 0 0 0-.372.572l.539.744c.239.261.406.333.961.348h1.06l.372.576h-1.73l.579.694 1.497-.006c.446-.001.457-.528.359-.691zM100.899 28.398l1.667 2.928h.675l-.675-1.264s.565.008.849-.01c.491.01.671-.132.528-.562l-.23-.516c-.215-.43-.309-.544-.957-.575h-1.857zm1.097.576h.965l.227.512h-.956l-.236-.512zM106.865 31.326l-.206-.683s-.806-.013-1.213-.005c-.06-.14-.231-.576-.231-.576h1.213l-.158-.57h-1.259l-.233-.518h1.303l-.156-.581-1.423.005c-.353 0-.559.36-.492.58l.727 1.669c.228.434.443.613.858.664.465.057 1.27.015 1.27.015zM107.805 28.398s-.562-.007-.928.007c-.355.006-.596.271-.539.573l.479 1.652c.151.368.458.695.885.69l.757.005-.128-.688h-.801l-.489-1.664h.878l-.114-.575zM108.063 28.974h.553l.471 2.352h.565l-.383-2.352h.432l-.073-.573-1.677-.003zM111.866 30.062c.262 0 .57-.304.565-.547-.013-.179-.012-.37-.032-.542-.057-.37-.449-.568-.744-.575-.603.013-1.815 0-1.815 0l.381 2.928h.63l-.244-2.352h1.094l.006.512h-.276c-.392 0-.427.291-.256.571.295.457.925 1.275.925 1.275h.776c.001 0-.575-.694-1.01-1.27z" fill="#fff"/><path d="M112.884 28.344l-.127 2.983.644.006-.002-.695h.884l-.031.696.586-.001s.219-1.122.215-1.84c.017-.633-.447-1.095-1.093-1.142-.356-.012-1.076-.007-1.076-.007zm1.472 1.142l.011.514-.9-.005-.019-1.021c.643 0 .888.14.908.512zM116.203 31.276c.365-.085.594-.368.839-.886.622-1.31.934-1.992.934-1.992h-.697l-.971 2.052c-.088.146-.242.2-.404.188.124-.785.401-2.24.401-2.24h-.69s-.462 2.784-.462 2.934c0 .004.755.013 1.05-.056zM118.985 28.398l-.794.003-.846 2.931.747-.004zM119.391 28.401l-.928 2.931h1.557c.461 0 1.014-.704 1.014-.704l.802-1.667c.182-.413-.106-.563-.554-.555-.644-.008-1.891-.005-1.891-.005zm1.625.573l-.648 1.664s-.609-.006-.914 0l.522-1.664h1.04zM123.376 30.638h-1.269l.278-.576h1.369l.278-.576h-1.35l.271-.512 1.449.001.293-.577s-1.025-.021-1.615.018c-.47.044-.796.295-.911.563l-.774 1.663c-.214.444.069.669.317.677.456.015 1.323.009 1.323.009l.341-.69zM125.729 28.413c-.5.023-.772.218-1.024.553-.333.443-1.04 1.682-1.04 1.682-.294.569.123.661.454.676l.831.003c.372-.008.45-.038.628-.143.093-.055.291-.268.523-.547l1.206-1.659c.166-.227-.148-.579-.463-.569l-1.115.004zm-.246.561h1.094l-1.177 1.664h-1.006l1.089-1.664zM126.183 30.801v.077h.148v.391h.086v-.391h.15v-.077zM126.725 30.801l-.04.468h.08l.04-.305.114.305h.063l.11-.301.04.301h.082l-.04-.468h-.1l-.123.337-.124-.337z" fill="#fff"/><g><g fill="#c2c1b9"><path d="M96.868 34.458a.528.528 0 0 1 .3-.279.602.602 0 0 1 .422 0 .524.524 0 0 1 .346.504.52.52 0 0 1-.168.394.547.547 0 0 1-.178.109.598.598 0 0 1-.6-.109.518.518 0 0 1-.168-.394.561.561 0 0 1 .046-.225zm.134.396a.388.388 0 0 0 .217.223.408.408 0 0 0 .537-.223.434.434 0 0 0 .033-.171.434.434 0 0 0-.121-.306.407.407 0 0 0-.666.135.481.481 0 0 0 0 .342zm.629.015a.248.248 0 0 1-.14.117.311.311 0 0 1-.318-.078.313.313 0 0 1-.063-.102.388.388 0 0 1-.001-.256.279.279 0 0 1 .158-.171.331.331 0 0 1 .225-.011.242.242 0 0 1 .167.21h-.113a.133.133 0 0 0-.052-.08.166.166 0 0 0-.097-.029.149.149 0 0 0-.126.057.238.238 0 0 0-.043.148c0 .028.004.055.012.08.008.026.02.048.035.067a.167.167 0 0 0 .054.045.152.152 0 0 0 .071.017c.041 0 .074-.01.1-.03a.118.118 0 0 0 .046-.083h.117a.32.32 0 0 1-.032.099zM98.724 35.2v-.658h-.255v-.155a.51.51 0 0 0 .104-.008.27.27 0 0 0 .09-.033.212.212 0 0 0 .103-.16h.164V35.2h-.206zM99.456 35.027a.12.12 0 0 0 .09.038.132.132 0 0 0 .093-.033.25.25 0 0 0 .058-.08.41.41 0 0 0 .031-.101c.006-.036.01-.068.012-.096l-.003-.003a.243.243 0 0 1-.098.087.314.314 0 0 1-.257-.002.3.3 0 0 1-.166-.182.41.41 0 0 1 .006-.266.349.349 0 0 1 .184-.196.357.357 0 0 1 .145-.029c.077 0 .141.015.191.046.05.03.09.071.119.12.03.05.051.106.062.169s.017.126.017.19a.798.798 0 0 1-.022.188.535.535 0 0 1-.07.17.345.345 0 0 1-.307.17.404.404 0 0 1-.122-.018.293.293 0 0 1-.207-.261h.195c.01.035.025.064.049.089zm.174-.331a.157.157 0 0 0 .081-.101.246.246 0 0 0-.001-.141.187.187 0 0 0-.032-.061c-.014-.018-.031-.032-.052-.043s-.043-.016-.07-.016a.128.128 0 0 0-.065.016.175.175 0 0 0-.08.101.269.269 0 0 0-.001.138.2.2 0 0 0 .028.061.142.142 0 0 0 .117.06.133.133 0 0 0 .075-.014zM100.065 34.322c.02-.035.047-.064.079-.087s.069-.041.109-.052a.435.435 0 0 1 .123-.017c.063 0 .116.01.159.029a.344.344 0 0 1 .105.07.246.246 0 0 1 .057.088.237.237 0 0 1-.02.217.203.203 0 0 1-.111.081v.003a.228.228 0 0 1 .14.086c.033.044.05.098.05.162a.281.281 0 0 1-.119.238.384.384 0 0 1-.122.059.502.502 0 0 1-.282.002.365.365 0 0 1-.123-.057.303.303 0 0 1-.087-.098.29.29 0 0 1-.033-.142c0-.065.017-.119.05-.162a.244.244 0 0 1 .141-.087v-.003a.184.184 0 0 1-.111-.077.235.235 0 0 1-.038-.132.275.275 0 0 1 .033-.121zm.148.642a.165.165 0 0 0 .095.089.206.206 0 0 0 .139 0 .167.167 0 0 0 .092-.089.178.178 0 0 0-.001-.136.162.162 0 0 0-.093-.084.185.185 0 0 0-.067-.012.2.2 0 0 0-.127.041c-.035.028-.052.067-.052.12a.153.153 0 0 0 .014.071zm.055-.404a.177.177 0 0 0 .109.034c.043 0 .08-.011.108-.034.029-.023.043-.056.043-.099a.178.178 0 0 0-.006-.044.13.13 0 0 0-.022-.046c-.011-.014-.027-.027-.046-.036s-.046-.014-.077-.014c-.02 0-.04.003-.059.009a.142.142 0 0 0-.084.07.144.144 0 0 0-.012.061.113.113 0 0 0 .046.099zM101.179 34.596a.232.232 0 0 0 .07-.017.127.127 0 0 0 .053-.04.108.108 0 0 0 .021-.07c0-.043-.014-.077-.043-.1s-.062-.035-.1-.035c-.052 0-.091.017-.118.051a.197.197 0 0 0-.038.13h-.195a.433.433 0 0 1 .028-.143.318.318 0 0 1 .181-.183.43.43 0 0 1 .264-.007c.041.012.077.03.109.054s.059.054.079.088.03.075.03.12a.243.243 0 0 1-.035.13.179.179 0 0 1-.107.077v.003c.056.013.1.04.132.081a.237.237 0 0 1 .048.149.313.313 0 0 1-.114.246.384.384 0 0 1-.12.064.48.48 0 0 1-.298-.003.316.316 0 0 1-.196-.187.403.403 0 0 1-.025-.156h.196c.001.027.005.053.013.077s.019.046.033.064a.154.154 0 0 0 .054.043.171.171 0 0 0 .077.016.166.166 0 0 0 .117-.043.147.147 0 0 0 .048-.117c0-.039-.007-.068-.022-.088a.13.13 0 0 0-.057-.044.256.256 0 0 0-.076-.016l-.079-.002v-.145a.23.23 0 0 0 .07.003zM102.26 34.945a.16.16 0 0 0 .05.059.212.212 0 0 0 .073.033.358.358 0 0 0 .217-.013.142.142 0 0 0 .051-.04.102.102 0 0 0 .02-.064.09.09 0 0 0-.027-.068.227.227 0 0 0-.07-.044.596.596 0 0 0-.098-.03c-.037-.009-.074-.018-.111-.029a1.058 1.058 0 0 1-.113-.035.37.37 0 0 1-.098-.054c-.029-.022-.052-.05-.07-.083s-.027-.074-.027-.121c0-.053.011-.099.034-.138a.31.31 0 0 1 .089-.098.398.398 0 0 1 .125-.058.512.512 0 0 1 .139-.019c.054 0 .106.006.156.018.05.012.094.032.132.059a.28.28 0 0 1 .092.104.315.315 0 0 1 .034.153h-.22a.19.19 0 0 0-.019-.077.136.136 0 0 0-.044-.048.185.185 0 0 0-.063-.025.384.384 0 0 0-.133-.001.169.169 0 0 0-.05.02c-.015.01-.027.022-.037.036s-.014.033-.014.055c0 .02.004.037.012.049a.104.104 0 0 0 .046.035.592.592 0 0 0 .094.032l.157.041c.019.004.046.011.08.021.034.01.068.026.102.048a.26.26 0 0 1 .125.232.325.325 0 0 1-.027.132.278.278 0 0 1-.082.105.408.408 0 0 1-.135.069.649.649 0 0 1-.352.004.421.421 0 0 1-.142-.066.338.338 0 0 1-.098-.114.34.34 0 0 1-.035-.165h.22a.159.159 0 0 0 .017.085zM103.493 34.166c.065 0 .12.009.165.028.045.019.082.044.111.075s.049.066.062.106a.396.396 0 0 1 0 .245.283.283 0 0 1-.173.181.425.425 0 0 1-.165.028h-.239v.371h-.227v-1.034h.466zm-.063.486a.456.456 0 0 0 .075-.006.18.18 0 0 0 .064-.022.125.125 0 0 0 .044-.047.167.167 0 0 0 .017-.08.17.17 0 0 0-.017-.08.125.125 0 0 0-.044-.047.157.157 0 0 0-.064-.022.456.456 0 0 0-.075-.006h-.177v.31h.177zM104.766 34.166v.191h-.546v.222h.501v.177h-.501v.254h.558v.19h-.785v-1.034h.773zM105.595 34.442a.23.23 0 0 0-.12-.095.26.26 0 0 0-.21.016.24.24 0 0 0-.087.08.367.367 0 0 0-.049.114.58.58 0 0 0 0 .259c.01.041.026.078.049.111a.245.245 0 0 0 .217.109c.07 0 .124-.021.163-.064a.298.298 0 0 0 .072-.168h.22a.53.53 0 0 1-.045.175.406.406 0 0 1-.235.217.544.544 0 0 1-.389-.012.463.463 0 0 1-.26-.284.65.65 0 0 1 0-.426.52.52 0 0 1 .1-.173.458.458 0 0 1 .16-.116.524.524 0 0 1 .214-.042.498.498 0 0 1 .297.097c.04.031.073.07.099.117a.418.418 0 0 1 .049.159h-.22a.171.171 0 0 0-.025-.074zM105.924 34.357v-.191h.847v.191h-.31v.843h-.227v-.843h-.31zM107.447 34.166a.3.3 0 0 1 .221.084.261.261 0 0 1 .061.09.289.289 0 0 1 .021.111.316.316 0 0 1-.038.158.238.238 0 0 1-.125.101v.003c.028.008.051.02.07.036a.222.222 0 0 1 .07.128.697.697 0 0 1 .014.136l.005.068a.35.35 0 0 0 .012.066.143.143 0 0 0 .024.053h-.228a.392.392 0 0 1-.023-.117 1.682 1.682 0 0 0-.013-.13.209.209 0 0 0-.049-.119c-.025-.025-.066-.038-.123-.038h-.228v.404h-.227v-1.034h.556zm-.081.467c.052 0 .091-.012.117-.035.026-.023.039-.061.039-.113 0-.05-.013-.087-.039-.109-.026-.023-.065-.034-.117-.034h-.249v.291h.249zM108.452 34.166l.387 1.034h-.236l-.078-.23h-.387l-.081.23h-.229l.391-1.034h.233zm.012.634l-.13-.379h-.003l-.135.379h.268zM109.086 35.2l-.335-1.034h.233l.23.727h.003l.233-.727h.235l-.343 1.034h-.256zM110.001 34.166V35.2h-.227v-1.034h.227zM110.648 34.166c.067 0 .129.011.186.032a.398.398 0 0 1 .149.096.44.44 0 0 1 .098.159.733.733 0 0 1 .007.434.437.437 0 0 1-.088.165.409.409 0 0 1-.146.109.485.485 0 0 1-.206.04h-.446v-1.034h.446zm-.016.843a.285.285 0 0 0 .096-.016c.031-.011.058-.028.083-.053s.043-.057.058-.096a.438.438 0 0 0 .022-.145.61.61 0 0 0-.015-.141.283.283 0 0 0-.05-.108.222.222 0 0 0-.092-.069.364.364 0 0 0-.141-.024h-.162v.652h.201zM112.048 34.166v.191h-.546v.222h.501v.177h-.501v.254h.558v.19h-.785v-1.034h.773zM112.204 34.472a.52.52 0 0 1 .1-.173.458.458 0 0 1 .16-.116.524.524 0 0 1 .214-.042c.08 0 .152.014.214.042a.454.454 0 0 1 .159.116.52.52 0 0 1 .1.173.65.65 0 0 1 0 .426.472.472 0 0 1-.473.325.544.544 0 0 1-.214-.041.463.463 0 0 1-.26-.284.627.627 0 0 1-.035-.211c0-.077.011-.149.035-.215zm.207.342c.01.041.026.078.049.111a.245.245 0 0 0 .217.109.245.245 0 0 0 .217-.109.346.346 0 0 0 .048-.111.532.532 0 0 0-.048-.373.248.248 0 0 0-.217-.11.26.26 0 0 0-.13.03.24.24 0 0 0-.087.08.367.367 0 0 0-.049.114.58.58 0 0 0 0 .259zM113.971 34.166V35.2h-.227v-1.034h.227zM114.397 34.166l.432.694h.003v-.694h.213V35.2h-.228l-.43-.692h-.003v.692h-.213v-1.034h.226zM115.163 34.357v-.191h.847v.191h-.31v.843h-.227v-.843h-.31zM116.903 34.166v.191h-.546v.222h.501v.177h-.501v.254h.558v.19h-.785v-1.034h.773zM117.626 34.166a.3.3 0 0 1 .221.084.261.261 0 0 1 .061.09.289.289 0 0 1 .021.111.316.316 0 0 1-.038.158.238.238 0 0 1-.125.101v.003c.028.008.051.02.07.036a.222.222 0 0 1 .07.128.697.697 0 0 1 .014.136l.005.068a.35.35 0 0 0 .012.066.143.143 0 0 0 .024.053h-.228a.392.392 0 0 1-.023-.117 1.682 1.682 0 0 0-.013-.13.209.209 0 0 0-.049-.119c-.025-.025-.066-.038-.123-.038h-.228v.404h-.227v-1.034h.556zm-.081.467c.052 0 .091-.012.117-.035s.039-.061.039-.113c0-.05-.013-.087-.039-.109-.026-.023-.065-.034-.117-.034h-.249v.291h.249zM118.34 34.166l.432.694h.003v-.694h.213V35.2h-.228l-.43-.692h-.003v.692h-.213v-1.034h.226zM119.703 34.166l.387 1.034h-.236l-.078-.23h-.387l-.081.23h-.229l.391-1.034h.233zm.013.634l-.13-.379h-.003l-.135.379h.268zM119.966 34.357v-.191h.847v.191h-.31v.843h-.227v-.843h-.31zM121.159 34.166V35.2h-.227v-1.034h.227zM121.349 34.472a.52.52 0 0 1 .1-.173.458.458 0 0 1 .16-.116.524.524 0 0 1 .214-.042c.08 0 .152.014.214.042a.454.454 0 0 1 .159.116.52.52 0 0 1 .1.173.65.65 0 0 1 0 .426.472.472 0 0 1-.473.325.544.544 0 0 1-.214-.041.463.463 0 0 1-.26-.284.65.65 0 0 1 0-.426zm.208.342c.01.041.026.078.049.111a.245.245 0 0 0 .217.109.245.245 0 0 0 .217-.109.346.346 0 0 0 .048-.111.532.532 0 0 0-.048-.373.248.248 0 0 0-.217-.11.26.26 0 0 0-.13.03.24.24 0 0 0-.087.08.367.367 0 0 0-.049.114.58.58 0 0 0 0 .259zM122.712 34.166l.432.694h.003v-.694h.213V35.2h-.228l-.43-.692h-.003v.692h-.213v-1.034h.226zM124.076 34.166l.387 1.034h-.236l-.078-.23h-.387l-.081.23h-.229l.391-1.034h.233zm.012.634l-.13-.379h-.003l-.135.379h.268zM124.779 34.166v.843h.504v.191h-.732v-1.034h.228zM126.041 34.166v.843h.504v.191h-.732v-1.034h.228zM126.459 34.357v-.191h.847v.191h-.31v.843h-.227v-.843h-.31zM127.871 34.166c.067 0 .129.011.186.032a.398.398 0 0 1 .149.096.44.44 0 0 1 .098.159.733.733 0 0 1 .007.434.437.437 0 0 1-.088.165.409.409 0 0 1-.146.109.485.485 0 0 1-.206.04h-.446v-1.034h.446zm-.016.843a.285.285 0 0 0 .096-.016c.031-.011.058-.028.083-.053s.043-.057.058-.096a.438.438 0 0 0 .022-.145.61.61 0 0 0-.015-.141.283.283 0 0 0-.05-.108.222.222 0 0 0-.092-.069.364.364 0 0 0-.141-.024h-.162v.652h.201zM128.713 34.977v.223h-.228v-.223h.228z"/></g></g><g fill="#c2c1b9"><path d="M97.813 10.301a.12.12 0 0 0 .037.043c.015.011.033.019.054.025s.042.008.065.008a.274.274 0 0 0 .096-.018.098.098 0 0 0 .037-.03.074.074 0 0 0 .015-.048.07.07 0 0 0-.02-.051.148.148 0 0 0-.052-.032.572.572 0 0 0-.073-.023l-.083-.021a.746.746 0 0 1-.084-.026.285.285 0 0 1-.073-.04.175.175 0 0 1-.052-.062.193.193 0 0 1-.02-.09.2.2 0 0 1 .025-.103.242.242 0 0 1 .066-.073.288.288 0 0 1 .092-.043.491.491 0 0 1 .219-.001c.037.009.07.023.098.043a.22.22 0 0 1 .093.191h-.163a.132.132 0 0 0-.015-.057.086.086 0 0 0-.033-.035.121.121 0 0 0-.047-.018.257.257 0 0 0-.098-.001.11.11 0 0 0-.037.015.087.087 0 0 0-.027.027.073.073 0 0 0-.011.041c0 .015.003.027.008.036a.081.081 0 0 0 .034.026c.017.008.04.016.07.024a8.051 8.051 0 0 0 .177.046c.026.008.051.02.076.036s.047.038.065.066a.192.192 0 0 1 .027.106.218.218 0 0 1-.081.176.286.286 0 0 1-.1.051.481.481 0 0 1-.261.002.318.318 0 0 1-.105-.049.24.24 0 0 1-.099-.208h.164a.174.174 0 0 0 .016.067zM98.714 9.723c.049 0 .095.008.138.024a.307.307 0 0 1 .184.189.492.492 0 0 1 .026.167.514.514 0 0 1-.022.155.314.314 0 0 1-.173.204.363.363 0 0 1-.153.03h-.331v-.769h.331zm-.012.626a.216.216 0 0 0 .071-.012.16.16 0 0 0 .061-.039.198.198 0 0 0 .043-.071.308.308 0 0 0 .016-.108.477.477 0 0 0-.011-.105.219.219 0 0 0-.037-.08.168.168 0 0 0-.068-.051.267.267 0 0 0-.105-.018h-.12v.484h.15z"/></g><g><path d="M21.09 23.538a8.815 8.815 0 1 0 0 17.63 8.815 8.815 0 1 0 0-17.63zm0 14.533a5.718 5.718 0 1 1 .001-11.435 5.718 5.718 0 0 1-.001 11.435zM51.575 21.133c-6.197 0-11.22 5.024-11.22 11.22 0 6.197 5.024 11.22 11.22 11.22 6.197 0 11.22-5.024 11.22-11.22 0-6.196-5.023-11.22-11.22-11.22zm0 16.936a5.718 5.718 0 1 1 .001-11.435 5.718 5.718 0 0 1-.001 11.435z" fill="#281e1c"/><path d="M51.575 28.265a4.087 4.087 0 1 0 0 8.174 4.087 4.087 0 0 0 0-8.174zm.25 7.495v-.744h-.486v.745a3.415 3.415 0 0 1-2.598-1.497l.646-.373-.243-.42-.646.373a3.406 3.406 0 0 1-.342-1.492c0-.539.125-1.049.347-1.502l.638.368.243-.42-.637-.368a3.415 3.415 0 0 1 2.587-1.487v.727h.485v-.726a3.415 3.415 0 0 1 2.582 1.487l-.63.364.243.42.631-.364c.222.453.347.963.347 1.502a3.4 3.4 0 0 1-.338 1.484l-.638-.368-.243.42.639.369a3.406 3.406 0 0 1-2.587 1.502zM21.089 28.265a4.087 4.087 0 1 0 0 8.174 4.087 4.087 0 0 0 0-8.174zm.236 7.497v-.745h-.486v.744a3.417 3.417 0 0 1-2.589-1.503l.639-.369-.243-.42-.638.368a3.4 3.4 0 0 1-.338-1.484c0-.539.125-1.048.347-1.502l.631.364.243-.42-.63-.364a3.413 3.413 0 0 1 2.582-1.487v.726h.485v-.727a3.417 3.417 0 0 1 2.587 1.487l-.637.368.243.42.638-.368c.222.453.347.963.347 1.502 0 .535-.123 1.041-.342 1.492l-.646-.373-.243.42.646.373a3.41 3.41 0 0 1-2.596 1.498z" fill="#e2e2df"/><path d="M71.726 40.758c.643.661.845.881.845.881s.11.073.092.386c-.018.312 0 10.264 0 10.576 0 .312-.092.312-.184.422-.092.11-.753.881-.753.881V40.758zM.938 40.758c-.643.661-.845.881-.845.881s-.11.073-.092.386c.018.312 0 10.264 0 10.576 0 .312.092.312.184.422.092.11.753.881.753.881V40.758z" fill="#959479"/><path d="M70.661 12.166H1.974c-.717 0-1.304.587-1.304 1.304v42.037c0 .717.587 1.304 1.304 1.304h68.688c.717 0 1.304-.587 1.304-1.304V13.47c0-.717-.587-1.304-1.305-1.304zM19.084 55.859a1.545 1.545 0 1 1 0-3.09 1.545 1.545 0 0 1 0 3.09zm2.005-19.628a3.878 3.878 0 1 1 0-7.755 3.878 3.878 0 0 1 0 7.755zm6.64 17.754a.561.561 0 0 1-.559.559h-1.709a.561.561 0 0 1-.559-.559v-1.544c0-.307.252-.559.559-.559h1.709c.307 0 .559.252.559.559v1.544zM44.563 35.49c0 .089-.084.163-.186.163H28.141c-.103 0-.186-.073-.186-.163v-6.635c0-.089.084-.163.186-.163h16.236c.103 0 .186.073.186.163v6.635zm3.199 18.495a.561.561 0 0 1-.559.559h-1.709a.561.561 0 0 1-.559-.559v-1.544c0-.307.252-.559.559-.559h1.709a.56.56 0 0 1 .559.559v1.544zm5.818 1.874a1.545 1.545 0 1 1 0-3.09 1.545 1.545 0 0 1 0 3.09zm-2.005-19.628a3.878 3.878 0 1 1 0-7.755 3.878 3.878 0 0 1 0 7.755z" fill="#afae99"/><path d="M44.634 28.459H27.883c-.106 0-.192.078-.192.174v7.08c0 .095.087.174.192.174h16.751c.106 0 .192-.078.192-.174v-7.08c.001-.096-.086-.174-.192-.174zm-.071 7.031c0 .089-.084.163-.186.163H28.141c-.103 0-.186-.073-.186-.163v-6.635c0-.089.084-.163.186-.163h16.236c.103 0 .186.073.186.163v6.635zM61.432 56.811c-.447-2.032-1.94-9.157-2.1-9.86-.164-.723-.46-1.315-1.38-1.315H14.713c-.92 0-1.216.592-1.38 1.315-.16.703-1.653 7.827-2.1 9.86h.684c.54-2.49 1.774-8.325 1.977-9.298.227-1.088.46-1.315 1.38-1.315h42.115c.92 0 1.153.227 1.38 1.315.203.973 1.437 6.808 1.977 9.298h.686z" fill="#959479"/><path d="M67.431 18.42c-.061-.07-2.26-2.365-2.355-2.466-.066-.071-.174-.073-.174-.073H7.761s-.107.002-.174.073c-.094.101-2.294 2.396-2.354 2.466-.095.109-.075.178-.075.178v24.587c0 .103.084.186.186.186H67.32a.187.187 0 0 0 .186-.186V18.598s.02-.069-.075-.178zM56.294 35.987c0 .596-.488 1.084-1.084 1.084H17.454a1.087 1.087 0 0 1-1.084-1.084v-7.27c0-.596.488-1.084 1.084-1.084H55.21c.596 0 1.084.488 1.084 1.084v7.27z" fill-rule="evenodd" clip-rule="evenodd" fill="#15110f"/><path d="M51.575 27.633H21.089a4.72 4.72 0 0 0 0 9.438h30.486a4.72 4.72 0 0 0 0-9.438zm-30.493 8.598a3.886 3.886 0 1 1 0-7.772 3.886 3.886 0 0 1 0 7.772zm23.745-.519c0 .095-.087.174-.192.174H27.883c-.106 0-.192-.078-.192-.174v-7.08c0-.095.087-.174.192-.174h16.751c.106 0 .192.078.192.174v7.08zm6.748.519a3.886 3.886 0 1 1 0-7.772 3.886 3.886 0 0 1 0 7.772z" fill-rule="evenodd" clip-rule="evenodd" fill="#a5a492"/><path fill="#d1792c" d="M56.294 30.781h11.212v3.146H56.294z"/><path d="M56.294 33.927v2.061c0 .596-.488 1.084-1.084 1.084h12.296v-3.143H56.294" fill="#d4ca23"/><path d="M56.294 30.779v-2.062c0-.596-.488-1.084-1.084-1.084h12.296v3.146H56.294z" fill="#c34d70"/><path fill="#d1792c" d="M16.369 33.926H5.157V30.78h11.212z"/><path d="M16.369 33.927v2.061c0 .596.488 1.084 1.084 1.084H5.156v-3.143h11.212" fill="#d4ca23"/><path d="M16.369 30.779v-2.062c0-.596.488-1.084 1.084-1.084H5.156v3.146h11.213z" fill="#c34d70"/><path fill="#d7d7cb" d="M7.321 18.315h6.884v6.884H7.321z"/><path d="M11.278 19.514L12.955 24h-1.024l-.34-.999H9.914L9.563 24H8.57l1.697-4.486h1.011zm.056 2.752l-.565-1.646h-.013l-.584 1.646h1.162z" fill="#15110f"/><path fill="#dcd640" d="M43.675 41.631H29.033l.216.259 14.19.002z"/><path fill="#c57435" d="M44.016 41.223l-7.665.001-7.658-.001.25.3 7.405-.002 7.418.002.25-.3z"/><path fill="#b53535" d="M44.354 40.816h-16l.248.298 7.749-.001 7.755.001z"/><path d="M29.277 40.033l-.223-.37c-.177-.26-.356-.374-.657-.374h-.707l-.247-.331h1.15l-.198-.373s-.832-.013-1.23 0a.256.256 0 0 0-.241.37l.349.482c.154.169.262.216.622.225h.686l.241.373h-1.119l.375.449.969-.004c.286-.001.294-.342.23-.447zM28.654 38.586l1.078 1.894h.436l-.436-.818s.365.005.549-.007c.318.007.434-.086.341-.364l-.149-.334c-.139-.278-.2-.352-.619-.372h-1.2zm.71.373h.624l.147.331h-.619l-.152-.331zM32.514 40.48l-.133-.442s-.521-.008-.784-.003c-.039-.091-.15-.373-.15-.373h.785l-.102-.369h-.814l-.15-.335h.843l-.101-.376-.92.003c-.228 0-.361.233-.318.375l.47 1.079c.147.28.287.397.555.43.298.038.819.011.819.011zM33.122 38.586s-.364-.005-.6.005c-.23.004-.385.176-.349.371l.31 1.069c.098.238.296.45.572.446l.49.003-.083-.445h-.518l-.317-1.076h.568l-.073-.373zM33.289 38.959h.357l.305 1.521h.366l-.248-1.521h.279l-.047-.371-1.084-.002zM35.749 39.662c.17 0 .369-.197.366-.354-.009-.116-.008-.239-.021-.35-.037-.239-.291-.368-.481-.372-.39.008-1.174 0-1.174 0l.247 1.894h.408l-.158-1.521h.708l.004.331h-.179c-.254 0-.276.188-.166.369.191.296.599.825.599.825h.502c-.001 0-.373-.449-.655-.822z" fill="#fff"/><path d="M36.408 38.551l-.082 1.929.416.004-.001-.449h.572l-.02.45.379-.001s.142-.726.139-1.19c.011-.41-.289-.708-.707-.738-.231-.008-.696-.005-.696-.005zm.952.739l.007.333-.582-.003-.012-.661c.415 0 .574.09.587.331zM38.554 40.448c.236-.055.384-.238.543-.573.402-.848.604-1.289.604-1.289h-.451l-.628 1.328c-.057.094-.157.13-.261.121.08-.508.26-1.449.26-1.449h-.446s-.299 1.801-.299 1.898c-.001.003.488.008.678-.036zM40.354 38.586l-.514.002-.547 1.896.483-.002zM40.617 38.588l-.6 1.896h1.007c.298 0 .656-.456.656-.456l.519-1.078c.118-.267-.068-.364-.358-.359-.418-.005-1.224-.003-1.224-.003zm1.051.371l-.419 1.076s-.394-.004-.591 0l.338-1.076h.672zM43.194 40.035h-.821l.18-.372h.886l.18-.373h-.873l.175-.331.937.001.19-.373s-.663-.014-1.045.012c-.304.028-.515.191-.59.365l-.501 1.076c-.139.287.045.433.205.438.295.009.856.006.856.006l.221-.449zM44.716 38.595c-.324.015-.5.141-.663.358-.215.286-.672 1.088-.672 1.088-.19.368.08.428.294.437l.538.002c.241-.005.291-.024.406-.092.06-.035.188-.174.338-.354l.78-1.073c.107-.147-.096-.374-.299-.368l-.722.002zm-.159.364h.708l-.762 1.076h-.651l.705-1.076zM45.01 40.141v.049h.096v.253h.055v-.253h.097v-.049zM45.361 40.141l-.026.302h.052l.026-.197.073.197h.041l.071-.195.026.195h.053l-.026-.302h-.064l-.08.218-.08-.218z" fill="#fff"/><g fill="#c2c1b9"><path d="M6.706 39.167a.503.503 0 0 1 .289-.269.562.562 0 0 1 .406 0 .503.503 0 0 1 .333.486.516.516 0 0 1-.162.38.516.516 0 0 1-.171.105.575.575 0 0 1-.577-.105.518.518 0 0 1-.162-.38c0-.08.015-.152.044-.217zm.129.382a.393.393 0 0 0 .209.215.396.396 0 0 0 .432-.085.416.416 0 0 0 .115-.295.425.425 0 0 0-.115-.295.395.395 0 0 0-.557 0 .405.405 0 0 0-.084.13.444.444 0 0 0 0 .33zm.606.014a.245.245 0 0 1-.223.128.308.308 0 0 1-.124-.023.3.3 0 0 1-.094-.066.318.318 0 0 1-.083-.22c0-.045.007-.087.02-.125a.265.265 0 0 1 .152-.164.31.31 0 0 1 .216-.01.235.235 0 0 1 .161.202h-.107a.121.121 0 0 0-.05-.076.157.157 0 0 0-.094-.029c-.053 0-.094.018-.122.055s-.042.085-.042.143a.248.248 0 0 0 .045.142.178.178 0 0 0 .052.043.14.14 0 0 0 .069.016c.039 0 .071-.01.096-.029a.12.12 0 0 0 .045-.08h.113a.248.248 0 0 1-.03.093zM8.494 39.883v-.634h-.246V39.1a.472.472 0 0 0 .1-.007A.222.222 0 0 0 8.5 39a.22.22 0 0 0 .035-.094h.158v.978h-.199zM9.201 39.716a.113.113 0 0 0 .087.037.128.128 0 0 0 .089-.032.215.215 0 0 0 .056-.076.404.404 0 0 0 .03-.097.935.935 0 0 0 .012-.092l-.003-.003a.235.235 0 0 1-.095.084.29.29 0 0 1-.125.025.297.297 0 0 1-.123-.027.285.285 0 0 1-.16-.176.385.385 0 0 1 .077-.369.335.335 0 0 1 .248-.104c.074 0 .135.014.183.044s.086.068.115.116c.029.048.049.102.06.163s.017.121.017.183a.792.792 0 0 1-.021.181.52.52 0 0 1-.067.164.366.366 0 0 1-.119.119.328.328 0 0 1-.177.046.368.368 0 0 1-.117-.018.269.269 0 0 1-.164-.137.337.337 0 0 1-.035-.115h.189c.005.032.02.06.043.084zm.167-.319a.135.135 0 0 0 .049-.04.162.162 0 0 0 .029-.057.261.261 0 0 0 .01-.069.196.196 0 0 0-.011-.067.185.185 0 0 0-.031-.059.147.147 0 0 0-.116-.057.123.123 0 0 0-.063.016.168.168 0 0 0-.048.04.17.17 0 0 0-.029.057.25.25 0 0 0-.001.133.188.188 0 0 0 .027.059.147.147 0 0 0 .047.042.13.13 0 0 0 .066.016.141.141 0 0 0 .071-.014zM9.787 39.036a.277.277 0 0 1 .076-.084.334.334 0 0 1 .106-.05.432.432 0 0 1 .272.012c.042.018.076.041.101.067a.248.248 0 0 1 .072.167.233.233 0 0 1-.035.127.193.193 0 0 1-.107.078v.003c.059.013.104.041.136.083s.047.094.047.155a.293.293 0 0 1-.031.136.293.293 0 0 1-.083.095c-.034.025-.074.044-.117.057s-.088.019-.134.019a.533.533 0 0 1-.138-.018.37.37 0 0 1-.119-.055.284.284 0 0 1-.084-.095.28.28 0 0 1-.032-.137c0-.062.016-.115.048-.156a.23.23 0 0 1 .136-.084v-.003a.178.178 0 0 1-.107-.074.223.223 0 0 1-.036-.127c0-.043.01-.082.029-.116zm.143.619a.15.15 0 0 0 .037.052.19.19 0 0 0 .188.033.153.153 0 0 0 .089-.085.181.181 0 0 0-.001-.13.15.15 0 0 0-.089-.082.197.197 0 0 0-.188.028.14.14 0 0 0-.05.115c0 .026.004.048.014.069zm.053-.389a.17.17 0 0 0 .105.033c.042 0 .077-.011.105-.033s.042-.054.042-.095a.17.17 0 0 0-.006-.043.119.119 0 0 0-.021-.044.124.124 0 0 0-.045-.035.176.176 0 0 0-.075-.014.18.18 0 0 0-.057.009.159.159 0 0 0-.048.026.114.114 0 0 0-.033.042.132.132 0 0 0-.012.059c0 .041.015.073.045.095zM10.861 39.3a.206.206 0 0 0 .067-.016.133.133 0 0 0 .052-.038.105.105 0 0 0 .02-.067.118.118 0 0 0-.042-.097.151.151 0 0 0-.096-.033.137.137 0 0 0-.114.05.19.19 0 0 0-.037.125h-.189a.422.422 0 0 1 .027-.137.3.3 0 0 1 .174-.176.395.395 0 0 1 .359.044.28.28 0 0 1 .076.085.23.23 0 0 1 .029.116.225.225 0 0 1-.034.125.169.169 0 0 1-.103.074v.003a.213.213 0 0 1 .127.078c.031.04.046.088.046.144a.296.296 0 0 1-.11.237.347.347 0 0 1-.116.061.446.446 0 0 1-.137.021.445.445 0 0 1-.15-.024.304.304 0 0 1-.188-.18.396.396 0 0 1-.024-.151h.189a.262.262 0 0 0 .013.075.169.169 0 0 0 .084.103c.021.01.046.015.075.015a.165.165 0 0 0 .113-.041.143.143 0 0 0 .046-.112c0-.037-.007-.065-.021-.085s-.033-.034-.055-.043a.216.216 0 0 0-.073-.015l-.076-.002V39.3a.386.386 0 0 0 .068 0zM11.903 39.637a.154.154 0 0 0 .048.056c.02.015.044.025.071.033a.333.333 0 0 0 .147.005.23.23 0 0 0 .063-.019.14.14 0 0 0 .049-.038.096.096 0 0 0 .019-.062.09.09 0 0 0-.026-.066.213.213 0 0 0-.068-.042.669.669 0 0 0-.095-.029c-.035-.008-.071-.018-.107-.028-.037-.01-.074-.02-.109-.034a.413.413 0 0 1-.095-.052.252.252 0 0 1-.068-.08.247.247 0 0 1-.026-.117.26.26 0 0 1 .033-.133.29.29 0 0 1 .086-.095.347.347 0 0 1 .12-.055.57.57 0 0 1 .284 0c.048.012.09.03.127.056a.295.295 0 0 1 .089.1c.022.04.033.089.033.147h-.212a.17.17 0 0 0-.019-.074.127.127 0 0 0-.043-.046c-.018-.012-.038-.019-.061-.024a.354.354 0 0 0-.128-.002.114.114 0 0 0-.048.02.1.1 0 0 0-.036.035.095.095 0 0 0-.014.053c0 .019.004.035.011.047.007.012.022.023.044.033s.052.02.091.031a6.383 6.383 0 0 0 .229.06.316.316 0 0 1 .184.132.244.244 0 0 1 .035.138.298.298 0 0 1-.027.127.279.279 0 0 1-.079.102.388.388 0 0 1-.13.066.655.655 0 0 1-.34.004.44.44 0 0 1-.137-.063.304.304 0 0 1-.094-.11.328.328 0 0 1-.034-.159h.212a.236.236 0 0 0 .021.083zM13.091 38.886a.42.42 0 0 1 .159.027.297.297 0 0 1 .107.072c.027.03.047.064.06.102a.366.366 0 0 1 0 .237.284.284 0 0 1-.167.174.42.42 0 0 1-.159.027h-.23v.357h-.219v-.997h.449zm-.06.469a.584.584 0 0 0 .073-.005.17.17 0 0 0 .062-.022.127.127 0 0 0 .043-.046.153.153 0 0 0 .016-.076.157.157 0 0 0-.016-.077.11.11 0 0 0-.043-.045.17.17 0 0 0-.062-.022.426.426 0 0 0-.073-.005h-.17v.299h.17zM14.318 38.886v.184h-.526v.213h.483v.17h-.483v.245h.538v.184h-.757v-.997h.745zM15.117 39.152a.225.225 0 0 0-.193-.106.254.254 0 0 0-.125.029.248.248 0 0 0-.084.077.352.352 0 0 0-.047.11.532.532 0 0 0 0 .249c.01.04.025.075.047.107a.237.237 0 0 0 .209.105c.067 0 .12-.02.157-.061a.28.28 0 0 0 .069-.162h.212a.5.5 0 0 1-.043.169.388.388 0 0 1-.226.209.522.522 0 0 1-.375-.012.453.453 0 0 1-.25-.273.609.609 0 0 1-.033-.203c0-.074.011-.144.033-.207a.447.447 0 0 1 .25-.279.505.505 0 0 1 .206-.04.5.5 0 0 1 .156.024c.049.016.093.039.131.069a.373.373 0 0 1 .143.265h-.212a.177.177 0 0 0-.025-.07zM15.434 39.07v-.184h.817v.184h-.299v.813h-.219v-.813h-.299zM16.903 38.886a.293.293 0 0 1 .213.081.258.258 0 0 1 .079.193c0 .059-.013.11-.037.152a.232.232 0 0 1-.121.098v.003a.17.17 0 0 1 .11.089.297.297 0 0 1 .025.069.632.632 0 0 1 .014.132c.001.021.002.043.005.065a.393.393 0 0 0 .011.063.15.15 0 0 0 .023.051h-.219a.366.366 0 0 1-.022-.113 1.55 1.55 0 0 0-.013-.125.198.198 0 0 0-.047-.115c-.024-.025-.064-.036-.119-.036h-.219v.389h-.219v-.997h.536zm-.079.45c.05 0 .088-.011.113-.033.025-.022.038-.059.038-.109 0-.048-.013-.083-.038-.105-.025-.022-.063-.033-.113-.033h-.24v.28h.24zM17.87 38.886l.373.997h-.227l-.076-.223h-.373l-.078.222h-.221l.377-.997h.225zm.013.611l-.126-.366h-.003l-.13.366h.259zM18.482 39.883l-.323-.997h.225l.222.701h.003l.225-.701h.226l-.331.997h-.247zM19.364 38.886v.997h-.219v-.997h.219zM19.987 38.886c.064 0 .124.01.18.031a.39.39 0 0 1 .239.245.618.618 0 0 1 .034.217.683.683 0 0 1-.028.201.404.404 0 0 1-.225.265.487.487 0 0 1-.199.038h-.43v-.997h.429zm-.015.812a.262.262 0 0 0 .092-.016.196.196 0 0 0 .08-.051.256.256 0 0 0 .056-.093.572.572 0 0 0 .006-.276.27.27 0 0 0-.048-.104.206.206 0 0 0-.089-.066.342.342 0 0 0-.136-.023h-.156v.629h.195zM21.337 38.886v.184h-.526v.213h.483v.17h-.483v.245h.538v.184h-.757v-.997h.745zM21.487 39.181a.447.447 0 0 1 .25-.279.505.505 0 0 1 .206-.04.453.453 0 0 1 .456.319.628.628 0 0 1 .033.207c0 .073-.011.14-.033.203a.459.459 0 0 1-.456.313.522.522 0 0 1-.206-.04.453.453 0 0 1-.25-.273.609.609 0 0 1-.033-.203.58.58 0 0 1 .033-.207zm.2.329c.01.04.025.075.047.107a.237.237 0 0 0 .209.105.26.26 0 0 0 .126-.029.236.236 0 0 0 .084-.076c.021-.032.037-.067.047-.107a.497.497 0 0 0-.047-.359.23.23 0 0 0-.084-.077.255.255 0 0 0-.126-.029.254.254 0 0 0-.125.029.248.248 0 0 0-.084.077.352.352 0 0 0-.047.11.532.532 0 0 0 0 .249zM6.956 40.562v.997h-.22v-.997h.22zM7.366 40.562l.416.669h.003v-.669h.205v.997h-.22l-.415-.667h-.002v.667h-.205v-.997h.218zM8.104 40.746v-.184h.817v.184h-.298v.813h-.22v-.813h-.299zM9.782 40.562v.184h-.527v.213h.483v.17h-.483v.245h.538v.184h-.757v-.997h.746zM10.478 40.562a.293.293 0 0 1 .213.081.258.258 0 0 1 .079.193c0 .059-.013.11-.037.152a.232.232 0 0 1-.121.098v.003a.17.17 0 0 1 .11.089.297.297 0 0 1 .025.069.632.632 0 0 1 .014.132c.001.021.002.043.005.065a.393.393 0 0 0 .011.063.15.15 0 0 0 .023.051h-.22a.366.366 0 0 1-.022-.113 1.55 1.55 0 0 0-.013-.125.198.198 0 0 0-.047-.115c-.024-.025-.064-.036-.119-.036h-.219v.389h-.219v-.997h.537zm-.078.45c.05 0 .088-.011.113-.033.025-.022.038-.059.038-.109 0-.048-.013-.083-.038-.105-.025-.022-.063-.033-.113-.033h-.24v.28h.24zM11.167 40.562l.416.669h.003v-.669h.206v.997h-.22l-.415-.667h-.003v.667h-.205v-.997h.218zM12.481 40.562l.373.997h-.227l-.075-.222h-.373l-.079.221h-.221l.377-.997h.225zm.012.611l-.126-.366h-.003l-.13.366h.259zM12.733 40.746v-.184h.817v.184h-.299v.813h-.219v-.813h-.299zM13.884 40.562v.997h-.219v-.997h.219zM14.067 40.857a.447.447 0 0 1 .25-.279.505.505 0 0 1 .206-.04.453.453 0 0 1 .456.319.628.628 0 0 1 .033.207c0 .073-.011.14-.033.203a.459.459 0 0 1-.456.313.522.522 0 0 1-.206-.04.453.453 0 0 1-.25-.273.609.609 0 0 1-.033-.203.58.58 0 0 1 .033-.207zm.2.329c.01.04.025.075.047.107a.237.237 0 0 0 .209.105.26.26 0 0 0 .126-.029.236.236 0 0 0 .084-.076.345.345 0 0 0 .047-.107.497.497 0 0 0-.047-.359.23.23 0 0 0-.084-.077.255.255 0 0 0-.126-.029.254.254 0 0 0-.125.029.248.248 0 0 0-.084.077.352.352 0 0 0-.047.11.532.532 0 0 0 0 .249zM15.381 40.562l.416.669h.003v-.669h.206v.997h-.22l-.415-.667h-.003v.667h-.205v-.997h.218zM16.695 40.562l.373.997h-.228l-.075-.222h-.373l-.078.222h-.221l.377-.997h.225zm.012.611l-.126-.366h-.003l-.13.366h.259zM17.373 40.562v.813h.486v.184h-.705v-.997h.219zM18.59 40.562v.813h.486v.184h-.706v-.997h.22zM18.992 40.746v-.184h.817v.184h-.299v.813h-.22v-.813h-.298zM20.353 40.562c.064 0 .124.01.18.031a.39.39 0 0 1 .239.245.618.618 0 0 1 .034.217.683.683 0 0 1-.028.201.404.404 0 0 1-.225.265.487.487 0 0 1-.199.038h-.43v-.997h.429zm-.016.812a.262.262 0 0 0 .092-.016.196.196 0 0 0 .08-.051c.023-.023.042-.055.056-.093s.021-.085.021-.14a.572.572 0 0 0-.015-.136.27.27 0 0 0-.048-.104.206.206 0 0 0-.089-.066.342.342 0 0 0-.136-.023h-.156v.629h.195zM21.164 41.344v.215h-.219v-.215h.219z"/></g><g fill="#c2c1b9"><path d="M66.417 26.131a.239.239 0 0 0 .085-.072.333.333 0 0 0 .048-.106.473.473 0 0 0 .016-.126.632.632 0 0 0-.007-.094.347.347 0 0 0-.028-.095.207.207 0 0 0-.058-.073.146.146 0 0 0-.093-.029.129.129 0 0 0-.098.039.323.323 0 0 0-.063.101c-.016.042-.031.09-.044.143a5.484 5.484 0 0 1-.042.161 1.47 1.47 0 0 1-.051.163.536.536 0 0 1-.079.143.37.37 0 0 1-.12.102.365.365 0 0 1-.175.039.388.388 0 0 1-.2-.049.439.439 0 0 1-.142-.129.573.573 0 0 1-.084-.18.772.772 0 0 1-.027-.201c0-.078.009-.153.026-.225a.557.557 0 0 1 .085-.192.427.427 0 0 1 .371-.182v.318a.265.265 0 0 0-.111.029.178.178 0 0 0-.069.064.262.262 0 0 0-.035.091.56.56 0 0 0-.011.112.37.37 0 0 0 .009.08c.005.026.015.05.029.072a.202.202 0 0 0 .052.053.142.142 0 0 0 .08.021c.03 0 .053-.005.071-.017a.146.146 0 0 0 .05-.066.813.813 0 0 0 .046-.136l.059-.227c.005-.028.016-.067.03-.116a.578.578 0 0 1 .07-.147.447.447 0 0 1 .129-.127.37.37 0 0 1 .206-.053.47.47 0 0 1 .191.04c.059.027.11.066.152.118a.56.56 0 0 1 .1.195.914.914 0 0 1 .035.269c0 .082-.01.162-.031.24a.595.595 0 0 1-.095.205.463.463 0 0 1-.404.192v-.318a.32.32 0 0 0 .127-.03zM65.29 24.378c0-.096.015-.186.046-.269a.597.597 0 0 1 .368-.358.936.936 0 0 1 .325-.051c.109 0 .209.014.302.042a.66.66 0 0 1 .239.127c.067.056.12.127.158.211s.058.184.058.298v.645H65.29v-.645zm1.219.023a.425.425 0 0 0-.023-.138.303.303 0 0 0-.076-.119.384.384 0 0 0-.14-.084.608.608 0 0 0-.209-.032.85.85 0 0 0-.204.022.423.423 0 0 0-.156.072.326.326 0 0 0-.099.133.53.53 0 0 0-.034.204v.235h.943v-.293z"/></g><g><circle cx="3.083" cy="14.597" r="1.284" fill="#989381"/><g fill="#6c6756"><path d="M3.186 15.571h-.207a.118.118 0 0 1-.118-.118V13.74c0-.065.053-.118.118-.118h.207c.065 0 .118.053.118.118v1.713a.118.118 0 0 1-.118.118z"/><path d="M4.057 14.493v.207a.118.118 0 0 1-.118.118H2.226a.118.118 0 0 1-.118-.118v-.207c0-.065.053-.118.118-.118h1.713c.065 0 .118.053.118.118z"/></g></g><g><circle cx="3.083" cy="54.38" r="1.284" fill="#989381"/><g fill="#6c6756"><path d="M3.186 53.406h-.207a.118.118 0 0 0-.118.118v1.713c0 .065.053.118.118.118h.207a.118.118 0 0 0 .118-.118v-1.713a.118.118 0 0 0-.118-.118z"/><path d="M4.057 54.484v-.207a.118.118 0 0 0-.118-.118H2.226a.118.118 0 0 0-.118.118v.207c0 .065.053.118.118.118h1.713a.118.118 0 0 0 .118-.118z"/></g></g><g><circle cx="69.535" cy="54.38" r="1.284" fill="#989381"/><g fill="#6c6756"><path d="M69.432 53.406h.207c.065 0 .118.053.118.118v1.713a.118.118 0 0 1-.118.118h-.207a.118.118 0 0 1-.118-.118v-1.713a.118.118 0 0 1 .118-.118z"/><path d="M68.56 54.484v-.207c0-.065.053-.118.118-.118h1.713c.065 0 .118.053.118.118v.207a.118.118 0 0 1-.118.118h-1.713a.119.119 0 0 1-.118-.118z"/></g></g><g><circle cx="69.535" cy="14.597" r="1.284" fill="#989381"/><g fill="#6c6756"><path d="M69.432 15.571h.207a.118.118 0 0 0 .118-.118V13.74a.118.118 0 0 0-.118-.118h-.207a.118.118 0 0 0-.118.118v1.713a.118.118 0 0 0 .118.118z"/><path d="M68.56 14.493v.207c0 .065.053.118.118.118h1.713a.118.118 0 0 0 .118-.118v-.207a.118.118 0 0 0-.118-.118h-1.713a.119.119 0 0 0-.118.118z"/></g></g><g><circle cx="36.332" cy="49.101" r="1.284" fill="#989381"/><g fill="#6c6756"><path d="M36.229 48.126h.207c.065 0 .118.053.118.118v1.713a.118.118 0 0 1-.118.118h-.207a.118.118 0 0 1-.118-.118v-1.713c0-.065.053-.118.118-.118z"/><path d="M35.358 49.204v-.207c0-.065.053-.118.118-.118h1.713c.065 0 .118.053.118.118v.207a.118.118 0 0 1-.118.118h-1.713a.118.118 0 0 1-.118-.118z"/></g></g></g></svg>