<svg xmlns="http://www.w3.org/2000/svg" xmlns:xlink="http://www.w3.org/1999/xlink" viewBox="0 0 1655.2 686.3"><defs><path id="a" d="M0 0h1655.2v688.7H0z"/></defs><clipPath id="b"><use xlink:href="#a" overflow="visible"/></clipPath><g clip-path="url(#b)"><path fill="#BBB" d="M3.61.035h1393c1.4 0 2.5 1.1 2.5 2.5v681.1c0 1.4-1.1 2.5-2.5 2.5H3.61c-1.4 0-2.5-1.1-2.5-2.5V2.535c0-1.4 1.1-2.5 2.5-2.5"/><path fill="#777" stroke="#777" stroke-width="2" stroke-linecap="round" stroke-linejoin="round" d="M1137 367.2h234v293h-234v-293z"/><path fill="#777" d="M79.934 278.529h916l-57.8 60h-916l57.8-60zM1.1 339.7h1398v5H1.1v-5z"/><path fill="#CCC" d="M1.1 344.7h1398v3H1.1v-3z"/><path fill="#777" d="M1.1 215.5h1398v5H1.1v-5z"/><path fill="#CCC" d="M1.1 220.5h1398v3H1.1v-3z"/></g><defs><path id="c" d="M1.1 681.1h1398v5H1.1z"/></defs><clipPath id="d"><use xlink:href="#c" overflow="visible"/></clipPath><g clip-path="url(#d)"><path fill="#777" d="M3.61.035h1393c1.4 0 2.5 1.1 2.5 2.5v681.1c0 1.4-1.1 2.5-2.5 2.5H3.61c-1.4 0-2.5-1.1-2.5-2.5V2.535c0-1.4 1.1-2.5 2.5-2.5"/></g><defs><path id="e" d="M1.1 0h1398v3H1.1z"/></defs><clipPath id="f"><use xlink:href="#e" overflow="visible"/></clipPath><g clip-path="url(#f)"><path fill="#CCC" d="M3.61.035h1393c1.4 0 2.5 1.1 2.5 2.5v681.1c0 1.4-1.1 2.5-2.5 2.5H3.61c-1.4 0-2.5-1.1-2.5-2.5V2.535c0-1.4 1.1-2.5 2.5-2.5"/></g><g><defs><path id="g" d="M0 0h1655.2v688.7H0z"/></defs><clipPath id="h"><use xlink:href="#g" overflow="visible"/></clipPath><g clip-path="url(#h)"><path fill="#777" stroke="#777" stroke-width="2" stroke-linecap="round" stroke-linejoin="round" d="M947.3 367.2h175v176h-175v-176z"/><path fill="#777" d="M27.05 367.256v234.7h72.7v58.6h702.1v-58.6h29.2v-58.7h101.4v-176H27.05z"/><path fill="none" stroke="#777" stroke-width="2" stroke-linecap="round" stroke-linejoin="round" d="M27.05 367.256v234.7h72.7v58.6h702.1v-58.6h29.2v-58.7h101.4v-176H27.05z"/><path fill="#FFF" d="M1110.3 254.3h-3.6v25h3.6v-25zM1103.957 254.222h1.9c0 11.6-.3 14.4-2.1 17.8s-6.8 6.8-11 7.2v-3.8c3.2-.5 6.1-2.2 8.6-6 2.6-3.8 2.7-12.8 2.6-15.2zM1112.949 254.222h-1.9c0 11.6.3 14.4 2.1 17.8s6.8 6.8 11 7.2v-3.8c-3.2-.5-6.1-2.2-8.6-6-2.6-3.8-2.7-12.8-2.6-15.2z"/><path fill="#152D7D" d="M1196.2 279.3h3.7v-25h-3.7v25zM1151.098 279.222h3.7v-21.3h5.2v-3.7h-14.1v3.7h5.2v21.3zM1182.13 259.109v20.1h-3.7v-21.3c0-2.6 1-3.7 3.7-3.7h4c3 0 6.7 2.3 6.7 7.3s-2.8 6.3-4.2 7.1c-.8.6-.7 1.1-.3 1.9l5.9 8.8h-4.4l-5.7-8.6c-1.1-1.7-.6-3.5.6-4.1.9-.5 4.5-1.4 4.5-4.7 0-3.1-1.9-3.8-3.3-3.8h-2.5c-.9-.1-1.3.2-1.3 1M1164.378 269.345l2.7-9.5 2.7 9.5h-5.4zm5.7-12.6c-.7-2.3-2.1-2.5-3-2.5s-2.4.2-3 2.5l-6.3 22.5h3.9l1.8-6.3h7.5l1.8 6.3h3.9c-.3 0-6.6-22.5-6.6-22.5zM1136.491 269.345l2.7-9.5 2.7 9.5h-5.4zm5.7-12.6c-.7-2.3-2.1-2.5-3-2.5s-2.4.2-3 2.5l-6.3 22.5h3.9l1.8-6.3h7.5l1.8 6.3h3.9c-.2 0-6.6-22.5-6.6-22.5z"/><path fill="#FFF" d="M1248.193 272.518l3.1-.3c.2 1.5.8 2.7 1.6 3.4.8.8 1.9 1.1 3 1.1 1.4 0 2.6-.5 3.6-1.6s1.5-2.5 1.5-4.3c0-1.7-.5-3-1.4-4-1-1-2.2-1.5-3.7-1.5-1 0-1.8.2-2.6.7-.8.4-1.4 1-1.8 1.7l-2.8-.4 2.3-12.4h12v2.8h-9.6l-1.3 6.5c1.5-1 3-1.5 4.6-1.5 2.1 0 3.9.7 5.3 2.2 1.5 1.5 2.2 3.3 2.2 5.6 0 2.2-.6 4.1-1.9 5.7-1.5 2-3.7 2.9-6.3 2.9-2.2 0-4-.6-5.4-1.8-1.4-1.1-2.2-2.8-2.4-4.8M1282.6 276.034v2.9h-16c0-.7.1-1.4.3-2.1.4-1.1 1.1-2.2 2-3.2.9-1.1 2.2-2.3 3.9-3.7 2.6-2.2 4.4-3.9 5.3-5.1.9-1.3 1.4-2.4 1.4-3.6s-.4-2.2-1.3-3c-.8-.8-1.9-1.2-3.3-1.2s-2.6.4-3.4 1.3c-.9.9-1.3 2-1.3 3.6l-3.1-.3c.2-2.3 1-4 2.4-5.2s3.2-1.8 5.5-1.8 4.2.6 5.5 1.9c1.4 1.3 2 2.9 2 4.8 0 1-.2 1.9-.6 2.9-.4.9-1.1 1.9-2 3-.9 1-2.4 2.5-4.6 4.3-1.8 1.5-2.9 2.5-3.4 3s-.9 1.1-1.3 1.6h12v-.1zM1288.886 266.89c0 4 .5 6.6 1.4 7.9.9 1.3 2.1 2 3.4 2 1.4 0 2.5-.7 3.4-2s1.4-4 1.4-7.9c0-4-.5-6.6-1.4-7.9s-2.1-2-3.5-2-2.5.6-3.3 1.7c-.9 1.6-1.4 4.3-1.4 8.2m-3.1 0c0-2.9.3-5.2.9-6.9.6-1.7 1.5-3.1 2.6-4 1.2-.9 2.6-1.4 4.4-1.4 1.3 0 2.4.3 3.4.8s1.8 1.3 2.4 2.3 1.1 2.2 1.5 3.6.5 3.3.5 5.7c0 2.8-.3 5.1-.9 6.9-.6 1.7-1.5 3.1-2.6 4-1.2 1-2.6 1.4-4.4 1.4-2.3 0-4.2-.8-5.5-2.5-1.5-2-2.3-5.3-2.3-9.9M1304.665 271.066l3-.3c.1 1.2.5 2.2 1 3s1.3 1.4 2.4 1.9 2.3.7 3.7.7c1.2 0 2.3-.2 3.2-.5.9-.4 1.6-.9 2.1-1.5s.7-1.3.7-2.1-.2-1.4-.7-2c-.4-.6-1.2-1-2.2-1.4-.6-.3-2.1-.6-4.3-1.2-2.2-.5-3.8-1-4.7-1.5-1.2-.6-2-1.4-2.6-2.3s-.9-1.9-.9-3c0-1.2.3-2.4 1-3.4.7-1.1 1.7-1.9 3-2.4s2.8-.8 4.4-.8c1.8 0 3.4.3 4.7.9 1.4.6 2.4 1.4 3.2 2.5.7 1.1 1.1 2.4 1.2 3.8l-3.1.2c-.2-1.5-.7-2.7-1.7-3.5-.9-.8-2.4-1.2-4.2-1.2-1.9 0-3.3.4-4.2 1.1-.9.7-1.3 1.6-1.3 2.6 0 .9.3 1.6.9 2.1.6.6 2.2 1.1 4.8 1.7 2.6.6 4.4 1.1 5.4 1.5 1.4.6 2.4 1.5 3.1 2.5s1 2.1 1 3.4c0 1.3-.4 2.5-1.1 3.6s-1.8 2-3.2 2.7-2.9.9-4.7.9c-2.2 0-4-.3-5.5-1-1.5-.6-2.6-1.6-3.5-2.9-.4-1-.8-2.5-.9-4.1M1334.477 278.852v-21.3h-8v-2.9h19.2v2.9h-8v21.3h-3.2zM1347 263.615v-9h6.7v1.5h-4.9v2h4.5v1.5h-4.5v2.4h5v1.5l-6.8.1z"/><path fill="#AAD400" d="M1285.327 302.24h32.8l-4.1 5.8h-32.8l4.1-5.8z"/><path fill="#777" d="M36.862 659.567h32.8l-4.1 5.8h-32.8l4.1-5.8z"/><path fill="none" stroke="#777" stroke-width="2" stroke-linecap="round" stroke-linejoin="round" d="M1094.106 251.909l-27.8 29.4 199.9.3.1-.1 77.4.1 27.8-29.4-199.9-.3-.1.1-77.4-.1z"/><path fill="#A8A8A8" d="M1139.1 544.4h55v55h-55v-55z"/><path fill="#ECECEC" d="M1148.648 547.983h35.9c3.3 0 6.1 2.7 6.1 6.1v35.9c0 3.3-2.7 6.1-6.1 6.1h-35.9c-3.3 0-6.1-2.7-6.1-6.1v-35.9c.1-3.4 2.8-6.1 6.1-6.1"/><path d="M1154.644 570.407h-3.2v-12.2c-1.2 1.1-2.6 1.9-4.2 2.5v-2.9c.8-.3 1.8-.8 2.8-1.6 1-.8 1.7-1.7 2-2.7h2.6v16.9z"/><path fill="#A8A8A8" d="M1197.4 544.4h55v55h-55v-55z"/><path fill="#ECECEC" d="M1206.988 547.983h35.9c3.3 0 6.1 2.7 6.1 6.1v35.9c0 3.3-2.7 6.1-6.1 6.1h-35.9c-3.3 0-6.1-2.7-6.1-6.1v-35.9c0-3.4 2.7-6.1 6.1-6.1"/><path d="M1215.609 567.418v3h-11.4c.1-1.1.5-2.2 1.1-3.2s1.8-2.4 3.6-4.1c1.5-1.4 2.4-2.3 2.7-2.8.4-.7.7-1.3.7-2s-.2-1.3-.6-1.7c-.4-.4-.9-.6-1.6-.6-.7 0-1.2.2-1.6.6-.4.4-.6 1.1-.7 2l-3.2-.3c.2-1.8.8-3.1 1.8-3.8 1-.8 2.3-1.2 3.8-1.2 1.7 0 3 .4 3.9 1.4 1 .9 1.4 2 1.4 3.4 0 .8-.1 1.5-.4 2.2-.3.7-.7 1.4-1.3 2.2-.4.5-1.1 1.2-2.1 2.2-1 .9-1.7 1.6-1.9 1.9-.3.3-.5.6-.7.9h6.5v-.1z"/><path fill="#A8A8A8" d="M1139.1 486.1h55v55h-55v-55z"/><path fill="#ECECEC" d="M1148.648 489.623h35.9c3.3 0 6.1 2.7 6.1 6.1v35.9c0 3.3-2.7 6.1-6.1 6.1h-35.9c-3.3 0-6.1-2.7-6.1-6.1v-35.9c.1-3.4 2.8-6.1 6.1-6.1"/><path d="M1152.693 505.854v-5.8l-3.9 5.8h3.9zm0 6.3v-3.4h-6.9v-2.8l7.3-10.8h2.7v10.7h2.1v2.9h-2.1v3.4h-3.1z"/><path fill="#A8A8A8" d="M1197.4 486.1h55v55h-55v-55z"/><path fill="#ECECEC" d="M1206.988 489.623h35.9c3.3 0 6.1 2.7 6.1 6.1v35.9c0 3.3-2.7 6.1-6.1 6.1h-35.9c-3.3 0-6.1-2.7-6.1-6.1v-35.9c0-3.4 2.7-6.1 6.1-6.1"/><path d="M1204.678 507.73l3.2-.3c.1.7.4 1.3.8 1.7.5.4 1 .6 1.6.6.7 0 1.3-.3 1.7-.8.5-.5.7-1.4.7-2.5 0-1-.2-1.8-.7-2.3s-1.1-.8-1.8-.8c-.9 0-1.8.4-2.5 1.2l-2.6-.4 1.7-8.8h8.6v3h-6.1l-.5 2.9c.7-.4 1.5-.5 2.2-.5 1.4 0 2.7.5 3.7 1.6 1 1 1.5 2.4 1.5 4.1 0 1.4-.4 2.6-1.2 3.7-1.1 1.5-2.6 2.2-4.6 2.2-1.6 0-2.8-.4-3.8-1.3-1.1-.7-1.7-1.9-1.9-3.3"/><path fill="#A8A8A8" d="M1139.1 427.8h55v55h-55v-55z"/><path fill="#ECECEC" d="M1148.648 431.363h35.9c3.3 0 6.1 2.7 6.1 6.1v35.9c0 3.3-2.7 6.1-6.1 6.1h-35.9c-3.3 0-6.1-2.7-6.1-6.1v-35.9c.1-3.4 2.8-6.1 6.1-6.1"/><path d="M1146.402 440.134v-3h11.1v2.4c-.9.9-1.8 2.2-2.8 3.9-.9 1.7-1.7 3.5-2.2 5.4s-.7 3.6-.7 5.1h-3.1c.1-2.3.5-4.7 1.4-7.2.9-2.4 2.1-4.6 3.7-6.5l-7.4-.1z"/><path fill="#A8A8A8" d="M1197.4 427.8h55v55h-55v-55z"/><path fill="#ECECEC" d="M1206.988 431.363h35.9c3.3 0 6.1 2.7 6.1 6.1v35.9c0 3.3-2.7 6.1-6.1 6.1h-35.9c-3.3 0-6.1-2.7-6.1-6.1v-35.9c0-3.4 2.7-6.1 6.1-6.1"/><path d="M1208.104 441.409c0 .6.2 1.2.5 1.5.4.4.9.5 1.5.5s1.1-.2 1.5-.5c.4-.4.6-.9.6-1.5s-.2-1.1-.5-1.5c-.4-.4-.8-.5-1.4-.5-.6 0-1.1.2-1.5.6-.5.3-.7.8-.7 1.4m-.3 7.3c0 .9.2 1.6.7 2.1s1 .8 1.7.8 1.2-.2 1.7-.7c.4-.5.7-1.2.7-2.1 0-.8-.2-1.4-.7-1.9-.4-.5-1-.7-1.7-.7-.8 0-1.4.3-1.8.8-.4.4-.6 1-.6 1.7m-.3-4c-.8-.4-1.4-.8-1.8-1.5-.4-.6-.6-1.3-.6-2 0-1.3.4-2.3 1.3-3.1.9-.8 2.1-1.2 3.8-1.2 1.6 0 2.9.4 3.7 1.2.9.8 1.3 1.9 1.3 3.1 0 .8-.2 1.5-.6 2.1s-1 1.1-1.7 1.4c.9.4 1.7.9 2.1 1.7.5.7.7 1.6.7 2.5 0 1.6-.5 2.8-1.5 3.8s-2.3 1.5-4 1.5c-1.5 0-2.8-.4-3.8-1.2-1.2-1-1.8-2.3-1.8-3.9 0-.9.2-1.8.7-2.5.5-.9 1.2-1.5 2.2-1.9"/><path fill="#A8A8A8" d="M1139.1 369.5h55v55h-55v-55z"/><path fill="#ECECEC" d="M1148.648 373.003h35.9c3.3 0 6.1 2.7 6.1 6.1v35.9c0 3.3-2.7 6.1-6.1 6.1h-35.9c-3.3 0-6.1-2.7-6.1-6.1v-35.9c.1-3.3 2.8-6.1 6.1-6.1"/><path d="M1155.072 400.444h-2.2c-1.2-1.8-2.1-3.6-2.7-5.5-.6-1.9-.9-3.8-.9-5.6 0-2.2.4-4.3 1.1-6.3.7-1.7 1.5-3.3 2.5-4.8h2.2c-1.1 2.3-1.8 4.3-2.2 6-.4 1.6-.6 3.4-.6 5.2 0 1.3.1 2.6.4 3.9.2 1.3.6 2.6 1 3.8.3.7.7 1.9 1.4 3.3"/><path fill="#A8A8A8" d="M1197.4 369.5h55v55h-55v-55z"/><path fill="#ECECEC" d="M1206.988 373.003h35.9c3.3 0 6.1 2.7 6.1 6.1v35.9c0 3.3-2.7 6.1-6.1 6.1h-35.9c-3.3 0-6.1-2.7-6.1-6.1v-35.9c0-3.3 2.7-6.1 6.1-6.1"/><path d="M1207.087 400.444c.6-1.4 1.1-2.4 1.4-3.2.3-.7.5-1.6.7-2.5s.4-1.9.5-2.7c.1-.9.2-1.7.2-2.6 0-1.8-.2-3.6-.6-5.2-.4-1.6-1.1-3.6-2.2-6h2.2c1.2 1.7 2.1 3.4 2.7 5.3.6 1.9 1 3.7 1 5.6 0 1.6-.3 3.3-.8 5.2-.6 2.1-1.5 4.1-2.9 6.1h-2.2z"/><path fill="#A8A8A8" d="M1255.7 486.1h55v55h-55v-55z"/><path fill="#ECECEC" d="M1265.328 489.623h35.9c3.3 0 6.1 2.7 6.1 6.1v35.9c0 3.3-2.7 6.1-6.1 6.1h-35.9c-3.3 0-6.1-2.7-6.1-6.1v-35.9c0-3.4 2.7-6.1 6.1-6.1"/><path d="M1266.592 506.41c0 1.1.2 1.9.7 2.4.5.6 1 .9 1.7.9.6 0 1.1-.2 1.5-.7.4-.5.6-1.2.6-2.3 0-1.1-.2-1.9-.6-2.4s-1-.8-1.6-.8-1.2.2-1.6.7c-.5.5-.7 1.2-.7 2.2m7.4-7.1l-3.1.3c-.1-.6-.3-1.1-.6-1.4-.3-.3-.7-.5-1.3-.5-.7 0-1.3.3-1.7.9-.5.6-.8 1.9-.9 3.8.8-1 1.8-1.4 3-1.4 1.4 0 2.5.5 3.5 1.5s1.4 2.4 1.4 4c0 1.7-.5 3.1-1.5 4.2-1 1-2.3 1.6-3.9 1.6-1.7 0-3.1-.7-4.2-2s-1.7-3.5-1.7-6.5c0-3.1.6-5.3 1.7-6.7 1.1-1.4 2.6-2.1 4.5-2.1 1.3 0 2.3.4 3.2 1.1.8.8 1.3 1.8 1.6 3.2"/><path fill="#A8A8A8" d="M1255.7 427.8h55v55h-55v-55z"/><path fill="#ECECEC" d="M1265.328 431.363h35.9c3.3 0 6.1 2.7 6.1 6.1v35.9c0 3.3-2.7 6.1-6.1 6.1h-35.9c-3.3 0-6.1-2.7-6.1-6.1v-35.9c0-3.4 2.7-6.1 6.1-6.1"/><path d="M1270.414 442.79c0-1-.2-1.9-.7-2.4-.5-.6-1-.9-1.7-.9-.6 0-1.1.2-1.5.7s-.6 1.2-.6 2.3.2 1.9.6 2.4c.4.5 1 .8 1.6.8s1.1-.2 1.6-.7c.5-.5.7-1.2.7-2.2m-7.4 7.1l3.1-.3c.1.6.3 1.1.6 1.4.3.3.8.5 1.3.5.7 0 1.2-.3 1.7-.9.5-.6.8-1.9.9-3.8-.8.9-1.8 1.4-3.1 1.4s-2.5-.5-3.4-1.5c-1-1-1.4-2.4-1.4-4 0-1.7.5-3.1 1.5-4.2s2.3-1.6 3.9-1.6c1.7 0 3.1.7 4.2 2s1.7 3.5 1.7 6.6-.6 5.3-1.7 6.7c-1.1 1.4-2.6 2.1-4.5 2.1-1.3 0-2.4-.4-3.2-1.1-.8-.8-1.3-1.9-1.6-3.3"/><path fill="#A8A8A8" d="M1255.7 369.5h55v55h-55v-55z"/><path fill="#ECECEC" d="M1265.328 373.003h35.9c3.3 0 6.1 2.7 6.1 6.1v35.9c0 3.3-2.7 6.1-6.1 6.1h-35.9c-3.3 0-6.1-2.7-6.1-6.1v-35.9c0-3.3 2.7-6.1 6.1-6.1"/><path d="M1265.184 395.795l4.2-17.5h2.4l-4.2 17.5h-2.4z"/><path fill="#A8A8A8" d="M1314 486.1h55v55h-55v-55z"/><path fill="#ECECEC" d="M1323.568 489.623h35.9c3.3 0 6.1 2.7 6.1 6.1v35.9c0 3.3-2.7 6.1-6.1 6.1h-35.9c-3.3 0-6.1-2.7-6.1-6.1v-35.9c.1-3.4 2.8-6.1 6.1-6.1"/><path d="M1325.387 509.696v-4.4h-4.4v-3h4.4v-4.4h3v4.4h4.4v3h-4.5v4.4h-2.9z"/><path fill="#A8A8A8" d="M1314 427.8h55v55h-55v-55z"/><path fill="#ECECEC" d="M1323.568 431.363h35.9c3.3 0 6.1 2.7 6.1 6.1v35.9c0 3.3-2.7 6.1-6.1 6.1h-35.9c-3.3 0-6.1-2.7-6.1-6.1v-35.9c.1-3.4 2.8-6.1 6.1-6.1"/><path d="M1324.2 446.1h6.4v3.2h-6.4v-3.2z"/><path fill="#A8A8A8" d="M1314 369.5h55v55h-55v-55z"/><path fill="#ECECEC" d="M1323.568 373.003h35.9c3.3 0 6.1 2.7 6.1 6.1v35.9c0 3.3-2.7 6.1-6.1 6.1h-35.9c-3.3 0-6.1-2.7-6.1-6.1v-35.9c.1-3.3 2.8-6.1 6.1-6.1"/><path d="M1327.167 393.234l-3.2-2.5c1-1.2 2.1-2.3 3.2-3.3l.8-.8c-.4-.1-1.4-.3-3.1-.7-1.2-.3-2-.5-2.4-.7l1.3-3.8c1.9.8 3.5 1.6 5 2.5-.3-2.3-.5-4.2-.5-5.7h3.8c0 1-.2 3-.6 5.7.3-.1.9-.4 1.8-.8 1.3-.6 2.5-1.1 3.6-1.5l1.1 3.9c-1.6.4-3.4.7-5.5 1l2.6 2.9c.5.6.9 1.1 1.2 1.4l-3.3 2.2-2.9-4.8c-.7 1.6-1.7 3.3-2.9 5"/><path fill="#A8A8A8" d="M1255.7 544.4h55v55h-55v-55z"/><path fill="#ECECEC" d="M1265.328 547.983h35.9c3.3 0 6.1 2.7 6.1 6.1v35.9c0 3.3-2.7 6.1-6.1 6.1h-35.9c-3.3 0-6.1-2.7-6.1-6.1v-35.9c0-3.4 2.7-6.1 6.1-6.1"/><path d="M1262.89 565.9l3.1-.4c.1.8.4 1.4.8 1.8s1 .6 1.6.6c.7 0 1.2-.3 1.7-.8s.7-1.2.7-2.1c0-.8-.2-1.5-.7-1.9-.4-.5-1-.7-1.6-.7-.4 0-.9.1-1.5.2l.4-2.6c.9 0 1.5-.2 2-.6s.7-.9.7-1.6c0-.6-.2-1-.5-1.4-.3-.3-.8-.5-1.4-.5s-1 .2-1.4.6-.6.9-.7 1.7l-3-.5c.2-1 .5-1.8.9-2.5.4-.6 1-1.1 1.8-1.4.8-.4 1.6-.5 2.5-.5 1.6 0 2.9.5 3.8 1.5.8.8 1.2 1.8 1.2 2.8 0 1.5-.8 2.7-2.4 3.6 1 .2 1.7.7 2.3 1.4s.9 1.6.9 2.6c0 1.5-.5 2.8-1.6 3.8s-2.4 1.6-4.1 1.6c-1.5 0-2.8-.4-3.8-1.3-1-.8-1.6-2-1.7-3.4"/><path fill="#A8A8A8" d="M1255.7 602.7h55v55h-55v-55z"/><path fill="#ECECEC" d="M1265.328 606.243h35.9c3.3 0 6.1 2.7 6.1 6.1v35.9c0 3.3-2.7 6.1-6.1 6.1h-35.9c-3.3 0-6.1-2.7-6.1-6.1v-35.9c0-3.4 2.7-6.1 6.1-6.1"/><path d="M1267 615.5h3.2v3.2h-3.2v-3.2z"/><path fill="#BBB" d="M81.02 281.347h86.2l-51.8 54.3h-86.2l51.8-54.3z"/><path fill="#FFF" d="M81.546 299.284v-13.2h9.1v2.2h-6.4v3.1h5.5v2.2h-5.5v5.6l-2.7.1zM98.684 299.284h-2.5v-9.5c-.9.9-2 1.5-3.3 1.9v-2.3c.7-.2 1.4-.6 2.2-1.2.8-.6 1.3-1.3 1.6-2.1h2.1v13.2h-.1z"/><path fill="#BBB" d="M172.34 281.347h86.2l-51.8 54.3h-86.2l51.8-54.3z"/><path fill="#FFF" d="M172.866 299.284v-13.2h9.1v2.2h-6.4v3.1h5.5v2.2h-5.5v5.6l-2.7.1zM192.062 296.965v2.4h-8.9c.1-.9.4-1.7.9-2.5s1.4-1.9 2.8-3.2c1.1-1.1 1.8-1.8 2.1-2.2.3-.5.5-1 .5-1.6s-.2-1-.5-1.3-.7-.5-1.3-.5c-.5 0-1 .2-1.3.5s-.5.8-.5 1.6l-2.5-.3c.1-1.4.6-2.4 1.4-3s1.8-.9 3-.9c1.3 0 2.3.4 3.1 1.1.7.7 1.1 1.6 1.1 2.6 0 .6-.1 1.2-.3 1.7s-.6 1.1-1 1.7c-.3.4-.9 1-1.7 1.7s-1.3 1.2-1.5 1.5c-.2.2-.4.5-.5.7h5.1z"/><path fill="#BBB" d="M263.56 281.347h86.2l-51.8 54.3h-86.2l51.8-54.3z"/><path fill="#FFF" d="M264.086 299.284v-13.2h9.1v2.2h-6.4v3.1h5.5v2.2h-5.5v5.6l-2.7.1zM274.67 295.787l2.5-.3c.1.6.3 1.1.6 1.4s.8.5 1.2.5c.5 0 1-.2 1.3-.6.4-.4.5-.9.5-1.6 0-.6-.2-1.1-.5-1.5s-.8-.6-1.3-.6c-.3 0-.7.1-1.2.2l.3-2.1c.7 0 1.2-.1 1.6-.4.4-.3.5-.7.5-1.3 0-.4-.1-.8-.4-1.1-.3-.3-.6-.4-1.1-.4-.4 0-.8.2-1.1.5s-.5.7-.6 1.3l-2.3-.4c.2-.8.4-1.4.7-1.9s.8-.9 1.4-1.1c.6-.3 1.2-.4 2-.4 1.2 0 2.2.4 3 1.2.6.6.9 1.4.9 2.2 0 1.2-.6 2.1-1.9 2.8.8.2 1.4.5 1.8 1.1.5.6.7 1.2.7 2 0 1.2-.4 2.1-1.3 3-.8.8-1.9 1.2-3.2 1.2-1.2 0-2.2-.3-3-1-.5-.7-.9-1.6-1.1-2.7"/><path fill="#BBB" d="M354.88 281.347h86.2l-51.8 54.3h-86.2l51.8-54.3z"/><path fill="#FFF" d="M355.406 299.284v-13.2h9.1v2.2h-6.4v3.1h5.5v2.2h-5.5v5.6l-2.7.1zM371.033 294.39v-4.5l-3 4.5h3zm0 4.9v-2.7h-5.4v-2.2l5.7-8.4h2.1v8.4h1.6v2.2h-1.6v2.7h-2.4z"/><path fill="#BBB" d="M446.1 281.347h86.2l-51.8 54.3h-86.2l51.8-54.3z"/><path fill="#FFF" d="M446.626 299.284v-13.2h9.1v2.2h-6.4v3.1h5.5v2.2h-5.5v5.6l-2.7.1zM457.41 295.901l2.5-.3c.1.6.3 1 .6 1.4s.8.5 1.2.5c.5 0 1-.2 1.3-.6.4-.4.5-1.1.5-1.9s-.2-1.4-.5-1.8c-.4-.4-.8-.6-1.4-.6-.7 0-1.4.3-2 1l-1.9-.4 1.3-6.9h6.7v2.4h-4.8l-.4 2.2c.6-.3 1.1-.4 1.7-.4 1.1 0 2.1.4 2.9 1.2.8.8 1.2 1.9 1.2 3.2 0 1.1-.3 2.1-.9 2.9-.9 1.2-2.1 1.7-3.6 1.7-1.2 0-2.2-.3-3-1-.8-.6-1.3-1.5-1.4-2.6"/><path fill="#BBB" d="M537.42 281.347h86.2l-51.8 54.3h-86.2l51.8-54.3z"/><path fill="#FFF" d="M537.946 299.284v-13.2h9.1v2.2h-6.4v3.1h5.5v2.2h-5.5v5.6l-2.7.1zM551.472 294.844c0 .8.2 1.5.6 1.9s.8.7 1.3.7.9-.2 1.2-.5c.3-.4.5-1 .5-1.8 0-.9-.2-1.5-.5-1.9s-.8-.6-1.3-.6-.9.2-1.2.6c-.4.3-.6.9-.6 1.6m5.7-5.5l-2.5.3c-.1-.5-.2-.9-.5-1.1s-.6-.4-1-.4c-.5 0-1 .2-1.4.7s-.6 1.5-.7 3c.6-.7 1.4-1.1 2.4-1.1 1.1 0 2 .4 2.7 1.2.8.8 1.1 1.8 1.1 3.1 0 1.4-.4 2.4-1.2 3.3-.8.8-1.8 1.2-3.1 1.2s-2.4-.5-3.3-1.6c-.9-1-1.3-2.7-1.3-5.1s.4-4.2 1.3-5.2c.9-1.1 2.1-1.6 3.5-1.6 1 0 1.8.3 2.5.8.9.6 1.4 1.4 1.5 2.5"/><path fill="#BBB" d="M628.64 281.347h86.2l-51.7 54.3h-86.2l51.7-54.3z"/><path fill="#FFF" d="M629.165 299.284v-13.2h9.1v2.2h-6.4v3.1h5.5v2.2h-5.5v5.6l-2.7.1zM639.921 288.625v-2.4h8.7v1.8c-.7.7-1.4 1.7-2.2 3-.7 1.3-1.3 2.7-1.7 4.2s-.6 2.8-.6 4h-2.4c0-1.8.4-3.7 1.1-5.6.7-1.9 1.7-3.6 2.9-5.1l-5.8.1z"/><path fill="#BBB" d="M719.96 281.347h86.2l-51.8 54.3h-86.2l51.8-54.3z"/><path fill="#FFF" d="M720.485 299.284v-13.2h9.1v2.2h-6.4v3.1h5.5v2.2h-5.5v5.6l-2.7.1zM733.896 289.625c0 .5.1.9.4 1.2.3.3.7.4 1.1.4.5 0 .9-.1 1.2-.4s.4-.7.4-1.2-.1-.9-.4-1.1c-.3-.3-.7-.4-1.1-.4-.5 0-.9.1-1.2.4-.3.3-.4.6-.4 1.1m-.3 5.7c0 .7.2 1.2.5 1.6.4.4.8.6 1.3.6s1-.2 1.3-.6.5-.9.5-1.6c0-.6-.2-1.1-.5-1.5-.4-.4-.8-.6-1.3-.6-.6 0-1.1.2-1.4.6-.2.5-.4 1-.4 1.5m-.2-3.1c-.7-.3-1.1-.7-1.4-1.1-.3-.5-.4-1-.4-1.6 0-1 .3-1.8 1-2.4.7-.6 1.7-1 2.9-1 1.3 0 2.2.3 2.9 1 .7.6 1 1.5 1 2.4 0 .6-.2 1.2-.5 1.6-.3.5-.8.8-1.3 1.1.7.3 1.3.7 1.7 1.3.4.6.6 1.2.6 2 0 1.2-.4 2.2-1.2 3s-1.8 1.1-3.1 1.1c-1.2 0-2.2-.3-3-.9-.9-.7-1.4-1.8-1.4-3.1 0-.7.2-1.4.5-2 .3-.7.9-1.1 1.7-1.4"/><path fill="#BBB" d="M811.18 281.347h86.2l-51.7 54.3h-86.2l51.7-54.3z"/><path fill="#FFF" d="M811.805 299.284v-13.2h9.1v2.2h-6.5v3.1h5.5v2.2h-5.5v5.6l-2.6.1zM828.189 290.753c0-.8-.2-1.4-.6-1.9-.4-.5-.8-.7-1.3-.7s-.9.2-1.2.6-.5 1-.5 1.8c0 .9.2 1.5.5 1.9s.8.6 1.3.6.9-.2 1.2-.6c.5-.4.6-1 .6-1.7m-5.7 5.5l2.5-.3c.1.5.2.9.5 1.1s.6.4 1 .4c.5 0 1-.2 1.3-.7.4-.5.6-1.5.7-3-.6.7-1.4 1.1-2.4 1.1s-1.9-.4-2.7-1.2c-.8-.8-1.1-1.8-1.1-3.1s.4-2.4 1.2-3.2c.8-.8 1.8-1.2 3-1.2 1.3 0 2.4.5 3.3 1.6.9 1 1.3 2.7 1.3 5.1s-.4 4.2-1.3 5.2c-.9 1.1-2.1 1.6-3.5 1.6-1 0-1.9-.3-2.5-.8-.7-.7-1.1-1.5-1.3-2.6"/><path fill="#BBB" d="M902.5 281.347h86.2l-51.8 54.3h-86.2l51.8-54.3z"/><path fill="#FFF" d="M904.338 300.13v-13.2h9.1v2.2h-6.4v3.1h5.5v2.2h-5.5v5.6l-2.7.1zM921.476 300.13h-2.5v-9.5c-.9.9-2 1.5-3.3 1.9v-2.3c.7-.2 1.4-.6 2.2-1.2s1.3-1.3 1.6-2.1h2.1v13.2h-.1zM929.527 288.96c-.3 0-.6.1-.8.3-.2.2-.4.5-.6 1-.2.7-.3 1.8-.3 3.3s.1 2.6.2 3.2c.2.6.4 1 .6 1.2.2.2.5.3.8.3s.6-.1.8-.3c.2-.2.4-.5.6-1.1.2-.6.3-1.7.3-3.3 0-1.6-.1-2.6-.2-3.2s-.4-1-.6-1.2c-.2-.1-.5-.2-.8-.2m0-2.1c1.3 0 2.3.5 3 1.4.9 1.1 1.3 2.9 1.3 5.4s-.4 4.3-1.3 5.4c-.7.9-1.7 1.4-3 1.4s-2.3-.5-3.1-1.5-1.2-2.7-1.2-5.3c0-2.5.4-4.3 1.3-5.4.7-.9 1.7-1.4 3-1.4"/><path fill="#A8A8A8" d="M1314.02 544.484v113.3h55v-113.3h-55z"/><path fill="#ECECEC" d="M1323.569 547.984c-3.4 0-6.1 2.7-6.1 6.1V648.284c0 3.4 2.7 6.1 6.1 6.1h35.9c3.4 0 6.1-2.7 6.1-6.1V554.084c0-3.4-2.7-6.1-6.1-6.1h-35.9z"/><path d="M1322.46 562.628v-9.8h7.3v1.7h-5.3v2.2h4.9v1.7h-4.9v2.7h5.5v1.7h-7.5v-.2zM1338.074 562.628h-1.9v-3.6c0-.8 0-1.3-.1-1.5s-.2-.4-.4-.5c-.2-.1-.4-.2-.7-.2-.3 0-.6.1-.9.3-.3.2-.4.4-.5.7-.1.3-.1.8-.1 1.6v3.2h-1.9v-7.1h1.8v1c.6-.8 1.4-1.2 2.4-1.2.4 0 .8.1 1.1.2.3.1.6.3.8.6.2.2.3.5.4.8s.1.7.1 1.3l-.1 4.4zM1343.32 555.533v1.5h-1.3v3.9c0 .1.1.2.2.2.1.1.2.1.3.1.2 0 .4-.1.8-.2l.2 1.5c-.4.2-.9.3-1.5.3-.3 0-.6-.1-.9-.2s-.5-.3-.6-.4c-.1-.2-.2-.4-.3-.7 0-.2-.1-.7-.1-1.3v-3.1h-.9v-1.6h.9v-1.4l1.9-1.1v2.5h1.3zM1348.858 558.47c0-.5-.2-1-.4-1.2-.3-.3-.6-.4-1-.4s-.8.1-1 .4c-.3.3-.4.7-.4 1.2h2.8zm-.1 1.9l1.9.3c-.2.7-.6 1.2-1.1 1.6s-1.2.5-2 .5c-1.2 0-2.2-.4-2.8-1.2-.5-.6-.7-1.5-.7-2.5 0-1.2.3-2.1.9-2.8.6-.7 1.4-1 2.3-1 1.1 0 1.9.4 2.5 1.1s.9 1.8.9 3.2h-4.7c0 .6.2 1 .5 1.3s.7.5 1.1.5c.3 0 .5-.1.7-.2.2-.2.4-.4.5-.8M1354.03 562.628h-1.9v-7.1h1.8v1c.3-.5.6-.8.8-.9.2-.2.5-.2.8-.2.4 0 .8.1 1.2.4l-.6 1.6c-.3-.2-.6-.3-.9-.3s-.5.1-.7.2-.3.4-.4.8-.2 1.2-.2 2.4v2.1h.1z"/><path fill="#A8A8A8" d="M1252.44 602.743h-113.3v55h113.3v-55z"/><path fill="#ECECEC" d="M1248.94 612.295c0-3.4-2.7-6.1-6.1-6.1H1148.64c-3.4 0-6.1 2.7-6.1 6.1v35.9c0 3.4 2.7 6.1 6.1 6.1H1242.84c3.4 0 6.1-2.7 6.1-6.1v-35.9z"/><path d="M1152.693 613.73c-.4 0-.7.1-1.1.4-.3.3-.5.7-.7 1.3-.2.8-.3 2.3-.3 4.2 0 2 .1 3.3.3 4.1.2.7.5 1.2.8 1.5.3.2.7.4 1 .4s.7-.1 1.1-.4c.3-.3.5-.7.7-1.3.2-.8.3-2.2.3-4.2s-.1-3.4-.3-4.1c-.2-.7-.5-1.2-.8-1.5-.2-.2-.6-.4-1-.4m0-2.7c1.6 0 2.9.6 3.8 1.8 1.1 1.4 1.7 3.7 1.7 6.9s-.6 5.5-1.7 6.9c-.9 1.2-2.2 1.7-3.8 1.7s-3-.6-4-1.9c-1-1.3-1.5-3.5-1.5-6.8 0-3.2.6-5.5 1.7-6.9.9-1.1 2.2-1.7 3.8-1.7"/><path fill="#777" d="M222.508.035h12.4l-200.8 195.4h-12.4l200.8-195.4zM242.508.035h12.4l-200.8 195.4h-12.4l200.8-195.4zM262.508.035h12.4l-200.8 195.4h-12.4l200.8-195.4zM282.508.035h12.4l-200.8 195.4h-12.4l200.8-195.4zM302.508.035h12.4l-200.8 195.4h-12.4l200.8-195.4zM322.508.035h12.4l-200.8 195.4h-12.4l200.8-195.4zM342.508.035h12.4l-200.8 195.4h-12.4l200.8-195.4zM362.508.035h12.4l-200.8 195.4h-12.4l200.8-195.4zM382.508.035h12.4l-200.8 195.4h-12.4l200.8-195.4zM402.508.035h12.4l-200.8 195.4h-12.4l200.8-195.4zM422.508.035h12.4l-200.8 195.4h-12.4l200.8-195.4zM442.508.035h12.4l-200.8 195.3h-12.4l200.8-195.3zM462.508.035h12.4l-200.8 195.3h-12.4l200.8-195.3zM482.508.035h12.4l-200.8 195.3h-12.4l200.8-195.3zM502.508.035h12.4l-200.8 195.3h-12.4l200.8-195.3zM522.508.035h12.4l-200.8 195.3h-12.4l200.8-195.3zM542.508.035h12.4l-200.8 195.3h-12.4l200.8-195.3zM562.508.035h12.4l-200.8 195.3h-12.4l200.8-195.3zM582.508.035h12.4l-200.8 195.3h-12.4l200.8-195.3zM602.508.035h12.4l-200.8 195.3h-12.4l200.8-195.3zM622.508.035h12.4l-200.8 195.3h-12.4l200.8-195.3zM642.508.035h12.4l-200.8 195.3h-12.4l200.8-195.3zM662.508.035h12.4l-200.8 195.3h-12.4l200.8-195.3zM682.508.035h12.4l-200.8 195.3h-12.4l200.8-195.3zM702.508.035h12.4l-200.8 195.3h-12.4l200.8-195.3zM722.508.035h12.4l-200.8 195.3h-12.4l200.8-195.3zM742.508.035h12.4l-200.8 195.3h-12.4l200.8-195.3zM762.508.035h12.4l-200.8 195.3h-12.4l200.8-195.3zM782.508.035h12.4l-200.8 195.3h-12.4l200.8-195.3zM802.508.035h12.4l-200.8 195.3h-12.4l200.8-195.3zM822.508.035h12.4l-200.8 195.3h-12.4l200.8-195.3zM842.508.035h12.4l-200.8 195.3h-12.4l200.8-195.3zM862.508.035h12.4l-200.8 195.3h-12.4l200.8-195.3zM882.508.035h12.4l-200.8 195.3h-12.4l200.8-195.3zM902.508.035h12.4l-200.8 195.3h-12.4l200.8-195.3zM922.508.035h12.4l-200.8 195.3h-12.4l200.8-195.3zM942.508.035h12.4l-200.8 195.3h-12.4l200.8-195.3zM962.508.035h12.4l-200.8 195.3h-12.4l200.8-195.3zM982.508.035h12.4l-200.8 195.3h-12.4l200.8-195.3zM1002.508.035h12.4l-200.8 195.3h-12.4l200.8-195.3zM1022.508.035h12.4l-200.8 195.3h-12.4l200.8-195.3zM1042.508.035h12.4l-200.8 195.3h-12.4l200.8-195.3zM1062.508.035h12.4l-200.8 195.3h-12.4l200.8-195.3zM1082.508.035h12.4l-200.8 195.3h-12.4l200.8-195.3zM1102.508.035h12.4l-200.8 195.3h-12.4l200.8-195.3zM1122.508.035h12.4l-200.8 195.3h-12.4l200.8-195.3zM1142.508.035h12.4l-200.8 195.3h-12.4l200.8-195.3zM1162.508.035h12.4l-200.8 195.3h-12.4l200.8-195.3zM1182.508.035h12.4l-200.8 195.3h-12.4l200.8-195.3zM1202.508.035h12.4l-200.8 195.3h-12.4l200.8-195.3zM1222.508.035h12.4l-200.8 195.3h-12.4l200.8-195.3zM1242.508.035h12.4l-200.8 195.3h-12.4l200.8-195.3zM1262.508.035h12.4l-200.8 195.3h-12.4l200.8-195.3zM1282.508.035h12.4l-200.8 195.3h-12.4l200.8-195.3zM1302.508.035h12.4l-200.8 195.3h-12.4l200.8-195.3zM1322.508.035h12.4l-200.8 195.3h-12.4l200.8-195.3zM1342.508.035h12.4l-200.8 195.3h-12.4l200.8-195.3z"/><path fill="#A8A8A8" d="M949 427.8h55v55h-55v-55z"/><path fill="#ECECEC" d="M958.542 431.363h35.9c3.3 0 6.1 2.7 6.1 6.1v35.9c0 3.3-2.7 6.1-6.1 6.1h-35.9c-3.3 0-6.1-2.7-6.1-6.1v-35.9c0-3.4 2.8-6.1 6.1-6.1"/><path d="M956.8 436.5h2v9.8h-2v-9.8zM967.083 446.286h-1.9v-3.6c0-.8 0-1.3-.1-1.5s-.2-.4-.4-.5-.4-.2-.7-.2-.6.1-.9.3c-.3.2-.4.4-.5.7s-.1.8-.1 1.6v3.2h-1.9v-7.1h1.8v1c.6-.8 1.4-1.2 2.3-1.2.4 0 .8.1 1.1.2.3.2.6.3.8.6.2.2.3.5.4.8.1.3.1.7.1 1.3v4.4zM968.382 444.313l1.9-.3c.1.4.2.6.5.8.2.2.6.3 1 .3.5 0 .9-.1 1.1-.3.2-.1.2-.3.2-.5 0-.1 0-.3-.1-.4-.1-.1-.3-.2-.6-.3-1.5-.3-2.5-.6-2.9-.9-.6-.4-.8-.9-.8-1.6 0-.6.2-1.1.7-1.6.5-.4 1.2-.6 2.3-.6 1 0 1.7.2 2.2.5s.8.8 1 1.4l-1.8.3c-.1-.3-.2-.5-.4-.6s-.5-.2-.9-.2c-.5 0-.9.1-1.1.2-.1.1-.2.2-.2.4 0 .1.1.2.2.3.2.1.8.3 1.8.5s1.7.5 2.1.8c.4.3.6.8.6 1.4 0 .7-.3 1.2-.8 1.7s-1.4.7-2.4.7-1.7-.2-2.3-.6c-.8-.2-1.2-.8-1.3-1.4M980.92 442.127c0-.5-.2-1-.4-1.2-.3-.3-.6-.4-1-.4s-.8.1-1 .4c-.3.3-.4.7-.4 1.2h2.8zm-.1 1.9l1.9.3c-.2.7-.6 1.2-1.1 1.6-.5.4-1.2.5-2 .5-1.2 0-2.2-.4-2.8-1.2-.5-.6-.7-1.5-.7-2.5 0-1.2.3-2.1.9-2.8.6-.7 1.4-1 2.3-1 1.1 0 1.9.4 2.5 1.1.6.7.9 1.8.9 3.2h-4.7c0 .6.2 1 .5 1.3s.7.5 1.1.5c.3 0 .5-.1.7-.2.2-.2.4-.4.5-.8M986.094 446.286h-1.9v-7.1h1.8v1c.3-.5.6-.8.8-.9.2-.2.5-.2.8-.2.4 0 .8.1 1.2.4l-.6 1.6c-.3-.2-.6-.3-.9-.3-.3 0-.5.1-.7.2-.2.1-.3.4-.4.8-.1.4-.2 1.2-.2 2.4l.1 2.1zM992.945 439.19v1.5h-1.3v3.9c0 .1.1.2.2.2.1.1.2.1.3.1.2 0 .4-.1.8-.2l.2 1.5c-.4.2-.9.3-1.5.3-.3 0-.6-.1-.9-.2-.3-.1-.5-.3-.6-.4-.1-.2-.2-.4-.3-.7 0-.2-.1-.7-.1-1.3v-3.1h-.9v-1.5h.9v-1.4l1.9-1.1v2.5h1.3v-.1z"/><path fill="#A8A8A8" d="M1065.6 486.1h55v55h-55v-55z"/><path fill="#ECECEC" d="M1075.122 489.623h35.9c3.3 0 6.1 2.7 6.1 6.1v35.9c0 3.3-2.7 6.1-6.1 6.1h-35.9c-3.3 0-6.1-2.7-6.1-6.1v-35.9c.1-3.4 2.8-6.1 6.1-6.1"/><path d="M1084.973 494.242l-2.4 2.4 5.1 5.1h-13.6v3.3h13.6l-5.1 5.1 2.4 2.4 9.1-9.2-9.1-9.1z"/><path fill="#A8A8A8" d="M949 486.1h55v55h-55v-55z"/><path fill="#ECECEC" d="M958.542 489.623h35.9c3.3 0 6.1 2.7 6.1 6.1v35.9c0 3.3-2.7 6.1-6.1 6.1h-35.9c-3.3 0-6.1-2.7-6.1-6.1v-35.9c0-3.4 2.8-6.1 6.1-6.1"/><path d="M966.092 494.242l2.4 2.4-5.1 5.1h13.6v3.3h-13.6l5.1 5.1-2.4 2.4-9.1-9.2 9.1-9.1z"/><path fill="#A8A8A8" d="M1007.3 427.8h55v55h-55v-55z"/><path fill="#ECECEC" d="M1016.882 431.363h35.9c3.3 0 6.1 2.7 6.1 6.1v35.9c0 3.3-2.7 6.1-6.1 6.1h-35.9c-3.3 0-6.1-2.7-6.1-6.1v-35.9c0-3.4 2.7-6.1 6.1-6.1"/><path d="M1032.938 443.888l-2.4 2.4-5.1-5.1v13.6h-3.3v-13.6l-5.1 5.1-2.4-2.4 9.2-9.1 9.1 9.1z"/><path fill="#A8A8A8" d="M1007.3 486.1h55v55h-55v-55z"/><path fill="#ECECEC" d="M1016.882 489.623h35.9c3.3 0 6.1 2.7 6.1 6.1v35.9c0 3.3-2.7 6.1-6.1 6.1h-35.9c-3.3 0-6.1-2.7-6.1-6.1v-35.9c0-3.4 2.7-6.1 6.1-6.1"/><path d="M1032.938 504.164l-2.4-2.4-5.1 5.1v-13.6h-3.3v13.6l-5.1-5.1-2.4 2.4 9.2 9.1 9.1-9.1z"/><path fill="#A8A8A8" d="M1065.6 427.8h55v55h-55v-55z"/><path fill="#ECECEC" d="M1075.122 431.363h35.9c3.3 0 6.1 2.7 6.1 6.1v35.9c0 3.3-2.7 6.1-6.1 6.1h-35.9c-3.3 0-6.1-2.7-6.1-6.1v-35.9c.1-3.4 2.8-6.1 6.1-6.1"/><path d="M1079.566 442.847l1.9.6c-.3 1.1-.8 1.9-1.5 2.4s-1.6.8-2.6.8c-1.3 0-2.4-.4-3.2-1.3-.8-.9-1.3-2.1-1.3-3.7s.4-2.9 1.3-3.8 2-1.4 3.3-1.4c1.2 0 2.2.4 2.9 1.1.4.4.8 1 1 1.8l-2 .5c-.1-.5-.4-.9-.7-1.2-.4-.3-.8-.4-1.3-.4-.7 0-1.3.3-1.8.8s-.7 1.4-.7 2.5c0 1.2.2 2.1.7 2.7.4.5 1 .8 1.7.8.5 0 1-.2 1.4-.5.5-.4.8-1 .9-1.7M1085.006 446.452h-1.9v-7.1h1.8v1c.3-.5.6-.8.8-.9.2-.2.5-.2.8-.2.4 0 .8.1 1.2.4l-.6 1.6c-.3-.2-.6-.3-.9-.3-.3 0-.5.1-.7.2-.2.1-.3.4-.4.8-.1.4-.2 1.2-.2 2.4l.1 2.1zM1088.6 436.6h1.9v9.8h-1.9v-9.8zM1073.334 460.252v-9.8h2v3.9h3.9v-3.9h2v9.8h-2v-4.3h-3.9v4.3h-2zM1084.659 456.704c0 .7.2 1.2.5 1.6s.8.6 1.2.6c.5 0 .9-.2 1.2-.6s.5-.9.5-1.6-.2-1.2-.5-1.6-.7-.6-1.2-.6-.9.2-1.2.6c-.3.3-.5.9-.5 1.6m-1.9-.1c0-.6.2-1.2.5-1.8.3-.6.7-1 1.3-1.3s1.2-.5 1.9-.5c1.1 0 2 .3 2.7 1s1 1.6 1 2.7-.3 2-1 2.7-1.6 1.1-2.6 1.1c-.7 0-1.3-.1-1.9-.4-.6-.3-1-.7-1.4-1.3-.3-.7-.5-1.4-.5-2.2M1091.468 453.056h1.7v1c.6-.8 1.4-1.1 2.2-1.1.5 0 .9.1 1.2.3.3.2.6.5.8.9.3-.4.7-.7 1-.9.4-.2.8-.3 1.2-.3.5 0 1 .1 1.3.3s.6.5.8.9c.1.3.2.8.2 1.5v4.6h-1.9v-4.1c0-.7-.1-1.2-.2-1.4-.2-.3-.4-.4-.8-.4-.3 0-.5.1-.7.2-.2.2-.4.4-.5.7-.1.3-.2.8-.2 1.5v3.4h-1.9v-3.9c0-.7 0-1.1-.1-1.3-.1-.2-.2-.4-.3-.4-.1-.1-.3-.1-.6-.1s-.6.1-.8.2c-.2.2-.4.4-.5.7-.1.3-.2.8-.2 1.5v3.5h-1.9v-7.3h.2zM1108.05 456.093c0-.5-.2-1-.4-1.2-.3-.3-.6-.4-1-.4s-.8.1-1 .4c-.3.3-.4.7-.4 1.2h2.8zm-.1 1.9l1.9.3c-.2.7-.6 1.2-1.1 1.6s-1.2.5-2 .5c-1.2 0-2.2-.4-2.8-1.2-.5-.6-.7-1.5-.7-2.5 0-1.2.3-2.1.9-2.8.6-.7 1.4-1 2.3-1 1.1 0 1.9.3 2.5 1.1.6.7.9 1.8.9 3.2h-4.7c0 .6.2 1 .5 1.3s.7.5 1.1.5c.3 0 .5-.1.7-.2.3-.2.4-.5.5-.8"/><path fill="#A8A8A8" d="M949 369.7h84.2v54.9H949v-54.9z"/><path fill="#ECECEC" d="M958.598 373.003h36.8c3.3 0 6.1 2.7 6.1 6.1v35.9c0 3.3-2.7 6.1-6.1 6.1h-36.8c-3.3 0-6.1-2.7-6.1-6.1v-35.9c.1-3.3 2.8-6.1 6.1-6.1"/><path fill="#ECECEC" d="M986.609 373.003h36.8c3.3 0 6.1 2.7 6.1 6.1v35.9c0 3.3-2.7 6.1-6.1 6.1h-36.8c-3.3 0-6.1-2.7-6.1-6.1v-35.9c.1-3.3 2.8-6.1 6.1-6.1"/><path d="M956.698 386.971v-9.8h2v3.9h3.9v-3.9h2v9.8h-2v-4.3h-3.9v4.3h-2zM970.914 382.812c0-.5-.2-1-.4-1.2-.3-.3-.6-.4-1-.4s-.8.1-1 .4c-.3.3-.4.7-.4 1.2h2.8zm-.1 1.9l1.9.3c-.2.7-.6 1.2-1.1 1.6-.5.4-1.2.5-2 .5-1.2 0-2.2-.4-2.8-1.2-.5-.6-.7-1.5-.7-2.5 0-1.2.3-2.1.9-2.8.6-.7 1.4-1 2.3-1 1.1 0 1.9.4 2.5 1.1.6.7.9 1.8.9 3.2h-4.7c0 .6.2 1 .5 1.3s.7.5 1.1.5c.3 0 .5-.1.7-.2.2-.2.4-.5.5-.8M974.3 377.1h1.9v9.8h-1.9v-9.8zM979.948 383.22c0 .8.2 1.4.5 1.8.3.4.7.6 1.2.6.4 0 .8-.2 1.1-.5.3-.4.4-.9.4-1.7 0-.7-.1-1.3-.4-1.7s-.7-.5-1.1-.5c-.5 0-.8.2-1.1.5-.5.3-.6.9-.6 1.5m-1.9-3.4h1.8v1c.2-.4.5-.7.9-.9s.8-.3 1.3-.3c.8 0 1.5.3 2.1 1 .6.6.9 1.6.9 2.7 0 1.2-.3 2.1-.9 2.8-.6.7-1.3 1-2.1 1-.4 0-.8-.1-1.1-.2-.3-.2-.7-.4-1-.8v3.6h-1.9v-9.9z"/><path fill="#A8A8A8" d="M1036.4 369.7h84.2v54.9h-84.2v-54.9z"/><path fill="#ECECEC" d="M1046.058 373.003h36.8c3.3 0 6.1 2.7 6.1 6.1v35.9c0 3.3-2.7 6.1-6.1 6.1h-36.8c-3.3 0-6.1-2.7-6.1-6.1v-35.9c.1-3.3 2.8-6.1 6.1-6.1"/><path fill="#ECECEC" d="M1074.068 373.003h36.8c3.3 0 6.1 2.7 6.1 6.1v35.9c0 3.3-2.7 6.1-6.1 6.1h-36.8c-3.3 0-6.1-2.7-6.1-6.1v-35.9c.1-3.3 2.8-6.1 6.1-6.1"/><path d="M1044.678 378.428h2v5.3c0 .8 0 1.4.1 1.6.1.4.3.7.6 1 .3.2.8.4 1.3.4.6 0 1-.1 1.3-.3s.5-.5.5-.9c.1-.3.1-.9.1-1.7v-5.4h2v5.2c0 1.2-.1 2-.2 2.5s-.3.9-.6 1.2-.7.6-1.2.8-1.1.3-1.9.3c-.9 0-1.7-.1-2.1-.3-.5-.2-.9-.5-1.2-.8s-.5-.7-.6-1.1c-.1-.6-.2-1.4-.2-2.5l.1-5.3zM1061.11 388.254h-1.9v-3.6c0-.8 0-1.3-.1-1.5s-.2-.4-.4-.5-.4-.2-.7-.2-.6.1-.9.3c-.3.2-.4.4-.5.7s-.1.8-.1 1.6v3.2h-1.9v-7.1h1.8v1c.6-.8 1.4-1.2 2.3-1.2.4 0 .8.1 1.1.2s.6.3.8.6c.2.2.3.5.4.8.1.3.1.7.1 1.3v4.4zM1064.544 384.53c0 .8.1 1.3.3 1.7.3.5.7.7 1.3.7.4 0 .8-.2 1.1-.6.3-.4.5-.9.5-1.7s-.1-1.4-.4-1.8c-.3-.4-.7-.5-1.1-.5-.4 0-.8.2-1.1.5-.4.4-.6 1-.6 1.7m5 3.7h-1.8v-1c-.3.4-.6.7-1 .9s-.8.3-1.2.3c-.8 0-1.5-.3-2.1-1s-.9-1.6-.9-2.8.3-2.1.9-2.8c.6-.6 1.3-.9 2.2-.9.8 0 1.5.3 2.1 1v-3.5h1.9c-.1 0-.1 9.8-.1 9.8zM1072.958 384.705c0 .7.2 1.2.5 1.6.3.4.8.6 1.2.6.5 0 .9-.2 1.2-.6.3-.4.5-.9.5-1.6 0-.7-.2-1.2-.5-1.6-.3-.4-.7-.6-1.2-.6s-.9.2-1.2.6c-.3.3-.5.8-.5 1.6m-1.9-.1c0-.6.2-1.2.5-1.8s.7-1 1.3-1.3 1.2-.5 1.9-.5c1.1 0 2 .4 2.7 1.1.7.7 1 1.6 1 2.7s-.3 2-1 2.7-1.6 1.1-2.6 1.1c-.7 0-1.3-.1-1.9-.4-.6-.3-1-.7-1.4-1.3-.4-.8-.5-1.5-.5-2.3"/><path fill="#A8A8A8" d="M845.7 369.7h84.2v54.9h-84.2v-54.9z"/><path fill="#ECECEC" d="M855.38 373.003h36.8c3.3 0 6.1 2.7 6.1 6.1v35.9c0 3.3-2.7 6.1-6.1 6.1h-36.8c-3.3 0-6.1-2.7-6.1-6.1v-35.9c0-3.3 2.7-6.1 6.1-6.1"/><path fill="#ECECEC" d="M883.39 373.003h36.8c3.3 0 6.1 2.7 6.1 6.1v35.9c0 3.3-2.7 6.1-6.1 6.1h-36.8c-3.3 0-6.1-2.7-6.1-6.1v-35.9c0-3.3 2.7-6.1 6.1-6.1"/><path d="M854.979 382.703v2.6h1.8c.7 0 1.2 0 1.4-.1.3-.1.5-.2.7-.4s.3-.5.3-.8-.1-.5-.2-.8c-.1-.2-.4-.4-.6-.5-.3-.1-.9-.1-1.8-.1h-1.6v.1zm0-4v2.3h2.7c.3 0 .6-.2.8-.4s.3-.4.3-.8c0-.3-.1-.6-.3-.7-.2-.2-.4-.3-.8-.3h-2.7v-.1zm-2-1.6h3.9c.8 0 1.4 0 1.7.1.4.1.7.2 1 .4s.6.5.8.8.3.7.3 1.2-.1.9-.4 1.3c-.2.4-.6.7-1 .9.6.2 1.1.5 1.4.9.3.4.5.9.5 1.5 0 .4-.1.9-.3 1.3-.2.4-.5.8-.9 1s-.8.4-1.3.5c-.3 0-1.1.1-2.4.1h-3.3v-10zM866.864 383.51c-.2.1-.6.2-1.1.3s-.9.2-1 .3c-.2.2-.4.4-.4.7s.1.5.3.7.4.3.8.3c.3 0 .7-.1 1-.3.2-.2.4-.4.4-.6 0-.2.1-.5.1-.9v-.5h-.1zm-2.6-1.5l-1.7-.3c.2-.7.5-1.2 1-1.5s1.2-.5 2.1-.5c.8 0 1.5.1 1.9.3s.7.5.9.8.3.9.3 1.7v2.2c0 .6 0 1.1.1 1.4.1.3.2.6.3 1h-1.9c0-.1-.1-.3-.2-.6 0-.1-.1-.2-.1-.2-.3.3-.7.5-1 .7-.4.2-.8.2-1.2.2-.7 0-1.3-.2-1.7-.6-.4-.4-.6-.9-.6-1.5 0-.4.1-.8.3-1.1s.5-.6.8-.7c.3-.2.8-.3 1.5-.4.9-.2 1.5-.3 1.8-.5v-.3c0-.4-.1-.6-.3-.8s-.5-.2-1-.2c-.3 0-.6.1-.8.2-.2.1-.3.4-.5.7M876.807 381.889l-1.9.3c-.1-.4-.2-.7-.4-.8-.2-.2-.5-.3-.9-.3-.5 0-.8.2-1.1.5s-.4.9-.4 1.6c0 .8.1 1.4.4 1.8.3.3.7.5 1.1.5.4 0 .6-.1.9-.3.2-.2.4-.6.5-1.1l1.9.3c-.2.9-.6 1.5-1.1 1.9s-1.3.6-2.2.6c-1 0-1.9-.3-2.5-1s-.9-1.6-.9-2.7c0-1.2.3-2.1.9-2.7.6-.7 1.5-1 2.5-1 .9 0 1.6.2 2.1.6.5.5.8 1.1 1.1 1.8M878.097 386.971v-9.8h1.9v5.2l2.2-2.5h2.3l-2.4 2.6 2.6 4.5h-2l-1.8-3.2-.9.9v2.3h-1.9zM885.138 384.898l1.9-.3c.1.4.2.6.5.8.2.2.6.3 1 .3.5 0 .9-.1 1.1-.3.2-.1.2-.3.2-.5 0-.1 0-.3-.1-.4-.1-.1-.3-.2-.6-.3-1.5-.3-2.5-.6-2.9-.9-.6-.4-.8-.9-.8-1.6 0-.6.2-1.1.7-1.6.5-.4 1.2-.6 2.3-.6 1 0 1.7.2 2.2.5s.8.8 1 1.4l-1.8.3c-.1-.3-.2-.5-.4-.6s-.5-.2-.9-.2c-.5 0-.9.1-1.1.2-.1.1-.2.2-.2.4 0 .1.1.2.2.3.2.1.8.3 1.8.5s1.7.5 2.1.8c.4.3.6.8.6 1.4 0 .7-.3 1.2-.8 1.7s-1.4.7-2.4.7-1.7-.2-2.3-.6c-.7-.2-1.1-.7-1.3-1.4M895.337 383.22c0 .8.2 1.4.5 1.8.3.4.7.6 1.2.6.4 0 .8-.2 1.1-.5.3-.4.4-.9.4-1.7 0-.7-.1-1.3-.4-1.7s-.7-.5-1.1-.5c-.5 0-.8.2-1.1.5-.5.3-.6.9-.6 1.5m-1.9-3.4h1.8v1c.2-.4.5-.7.9-.9s.8-.3 1.3-.3c.8 0 1.5.3 2.1 1 .6.6.9 1.6.9 2.7 0 1.2-.3 2.1-.9 2.8-.6.7-1.3 1-2.1 1-.4 0-.8-.1-1.1-.2-.3-.2-.7-.4-1-.8v3.6h-1.9v-9.9zM905.853 383.51c-.2.1-.6.2-1.1.3s-.9.2-1 .3c-.2.2-.4.4-.4.7s.1.5.3.7.4.3.8.3c.3 0 .7-.1 1-.3.2-.2.4-.4.4-.6 0-.2.1-.5.1-.9v-.5h-.1zm-2.6-1.5l-1.7-.3c.2-.7.5-1.2 1-1.5s1.2-.5 2.1-.5c.8 0 1.5.1 1.9.3s.7.5.9.8.3.9.3 1.7v2.2c0 .6 0 1.1.1 1.4.1.3.2.6.3 1h-1.9c0-.1-.1-.3-.2-.6 0-.1-.1-.2-.1-.2-.3.3-.7.5-1 .7-.4.2-.8.2-1.2.2-.7 0-1.3-.2-1.7-.6-.4-.4-.6-.9-.6-1.5 0-.4.1-.8.3-1.1s.5-.6.8-.7c.3-.2.8-.3 1.5-.4.9-.2 1.5-.3 1.8-.5v-.3c0-.4-.1-.6-.3-.8s-.5-.2-1-.2c-.3 0-.6.1-.8.2-.2.1-.3.4-.5.7M915.697 381.889l-1.9.3c-.1-.4-.2-.7-.4-.8-.2-.2-.5-.3-.9-.3-.5 0-.8.2-1.1.5s-.4.9-.4 1.6c0 .8.1 1.4.4 1.8.3.3.7.5 1.1.5.4 0 .6-.1.9-.3.2-.2.4-.6.5-1.1l1.9.3c-.2.9-.6 1.5-1.1 1.9s-1.3.6-2.2.6c-1 0-1.9-.3-2.5-1s-.9-1.6-.9-2.7c0-1.2.3-2.1.9-2.7.6-.7 1.5-1 2.5-1 .9 0 1.6.2 2.1.6.6.5.9 1.1 1.1 1.8M921.431 382.812c0-.5-.2-1-.4-1.2-.3-.3-.6-.4-1-.4s-.8.1-1 .4c-.3.3-.4.7-.4 1.2h2.8zm-.1 1.9l1.9.3c-.2.7-.6 1.2-1.1 1.6s-1.2.5-2 .5c-1.2 0-2.2-.4-2.8-1.2-.5-.6-.7-1.5-.7-2.5 0-1.2.3-2.1.9-2.8.6-.7 1.4-1 2.3-1 1.1 0 1.9.4 2.5 1.1.6.7.9 1.8.9 3.2h-4.7c0 .6.2 1 .5 1.3s.7.5 1.1.5c.3 0 .5-.1.7-.2.2-.2.4-.5.5-.8"/><path fill="#A8A8A8" d="M874.9 427.8h55v55h-55v-55z"/><path fill="#ECECEC" d="M884.443 431.363h35.9c3.3 0 6.1 2.7 6.1 6.1v35.9c0 3.3-2.7 6.1-6.1 6.1h-35.9c-3.3 0-6.1-2.7-6.1-6.1v-35.9c0-3.4 2.7-6.1 6.1-6.1"/><path d="M884.316 438.128v6.5h1.5c.6 0 1 0 1.2-.1.3-.1.6-.2.8-.4s.4-.5.5-.9.2-1 .2-1.8-.1-1.3-.2-1.8c-.1-.4-.3-.7-.6-1-.2-.2-.5-.4-.9-.5-.3-.1-.8-.1-1.6-.1h-.9v.1zm-2-1.7h3.6c.8 0 1.4.1 1.9.2.6.2 1.1.5 1.5.9s.7 1 .9 1.6.3 1.4.3 2.3c0 .8-.1 1.5-.3 2.1-.2.7-.6 1.3-1.1 1.7-.3.3-.8.6-1.4.8-.4.1-1 .2-1.8.2h-3.7c.1.1.1-9.8.1-9.8zM896.453 442.127c0-.5-.2-1-.4-1.2-.3-.3-.6-.4-1-.4s-.8.1-1 .4c-.3.3-.4.7-.4 1.2h2.8zm-.1 1.9l1.9.3c-.2.7-.6 1.2-1.1 1.6s-1.2.5-2 .5c-1.2 0-2.2-.4-2.8-1.2-.5-.6-.7-1.5-.7-2.5 0-1.2.3-2.1.9-2.8.6-.7 1.4-1 2.3-1 1.1 0 1.9.4 2.5 1.1.6.7.9 1.8.9 3.2h-4.7c0 .6.2 1 .5 1.3s.7.5 1.1.5c.3 0 .5-.1.7-.2.2-.2.4-.4.5-.8M899.9 436.5h1.9v9.8h-1.9v-9.8zM907.927 442.127c0-.5-.2-1-.4-1.2-.3-.3-.6-.4-1-.4s-.8.1-1 .4c-.3.3-.4.7-.4 1.2h2.8zm-.1 1.9l1.9.3c-.2.7-.6 1.2-1.1 1.6-.5.4-1.2.5-2 .5-1.2 0-2.2-.4-2.8-1.2-.5-.6-.7-1.5-.7-2.5 0-1.2.3-2.1.9-2.8.6-.7 1.4-1 2.3-1 1.1 0 1.9.4 2.5 1.1.6.7.9 1.8.9 3.2h-4.7c0 .6.2 1 .5 1.3s.7.5 1.1.5c.3 0 .5-.1.7-.2.2-.2.4-.4.5-.8M914.572 439.19v1.5h-1.3v3.9c0 .1.1.2.2.2.1.1.2.1.3.1.2 0 .4-.1.8-.2l.2 1.5c-.4.2-.9.3-1.5.3-.3 0-.6-.1-.9-.2-.3-.1-.5-.3-.6-.4-.1-.2-.2-.4-.3-.7 0-.2-.1-.7-.1-1.3v-3.1h-.9v-1.5h.9v-1.4l1.9-1.1v2.5h1.3v-.1zM920.109 442.127c0-.5-.2-1-.4-1.2-.3-.3-.6-.4-1-.4s-.8.1-1 .4c-.3.3-.4.7-.4 1.2h2.8zm-.1 1.9l1.9.3c-.2.7-.6 1.2-1.1 1.6-.5.4-1.2.5-2 .5-1.2 0-2.2-.4-2.8-1.2-.5-.6-.7-1.5-.7-2.5 0-1.2.3-2.1.9-2.8.6-.7 1.4-1 2.3-1 1.1 0 1.9.4 2.5 1.1.6.7.9 1.8.9 3.2h-4.7c0 .6.2 1 .5 1.3s.7.5 1.1.5c.3 0 .5-.1.7-.2.3-.2.4-.4.5-.8"/><path fill="#A8A8A8" d="M874.9 486.1h55v55h-55v-55z"/><path fill="#ECECEC" d="M884.443 489.623h35.9c3.3 0 6.1 2.7 6.1 6.1v35.9c0 3.3-2.7 6.1-6.1 6.1h-35.9c-3.3 0-6.1-2.7-6.1-6.1v-35.9c0-3.4 2.7-6.1 6.1-6.1"/><path d="M884.152 501.39v-2.5c.8-.9 1.8-1.3 2.9-1.3.4 0 .8 0 1.1.1s1 .3 1.9.7c.9.4 1.5.5 1.8.5.4 0 .8-.1 1.3-.3.5-.2.9-.6 1.4-1.1v2.6c-.3.3-.7.6-1.3.9-.5.3-1.1.4-1.7.4-.3 0-.6 0-.9-.1-.3-.1-.8-.3-1.5-.6-1-.4-1.8-.7-2.4-.7-.8.1-1.7.5-2.6 1.4M888.514 522.861l-.6 2.9h2.2l.6-2.9h-2.2zm-3.2 5h-1.3v-2.1h1.8l.6-2.9h-2.3v-2.2h2.8l.8-3.8h2.2l-.8 3.8h2.2l.8-3.8h2.3l-.8 3.8h1.3v2.2h-1.8l-.6 2.9h2.4v2.1h-2.8l-.8 3.8h-2.2l.8-3.8h-2.2l-.8 3.8h-2.2l.6-3.8z"/><path fill="#A8A8A8" d="M612.5 369.7h55v55h-55v-55z"/><path fill="#ECECEC" d="M622.063 373.208h35.9c3.3 0 6.1 2.7 6.1 6.1v35.9c0 3.3-2.7 6.1-6.1 6.1h-35.9c-3.3 0-6.1-2.7-6.1-6.1v-35.9c.1-3.4 2.8-6.1 6.1-6.1"/><path d="M625.13 396.75c.5-1 .8-1.8 1-2.3s.4-1.2.5-1.9c.2-.7.3-1.4.4-2s.1-1.3.1-2c0-1.4-.1-2.6-.4-3.8s-.8-2.7-1.6-4.4h1.6c.9 1.2 1.5 2.5 2 3.9s.7 2.8.7 4.2c0 1.2-.2 2.5-.6 3.8-.4 1.5-1.1 3-2.1 4.5h-1.6zM627.438 404.366c-.3 0-.5.1-.8.3-.2.2-.4.5-.5 1-.2.6-.2 1.7-.2 3.1 0 1.5.1 2.5.2 3 .1.6.3.9.6 1.1.2.2.5.3.8.3s.5-.1.8-.3c.2-.2.4-.5.5-1 .2-.6.2-1.7.2-3.1 0-1.5-.1-2.5-.2-3-.1-.6-.3-.9-.6-1.1-.3-.2-.5-.3-.8-.3m0-2c1.2 0 2.2.4 2.8 1.3.8 1 1.2 2.7 1.2 5.1 0 2.4-.4 4.1-1.2 5.1-.7.9-1.6 1.3-2.8 1.3-1.2 0-2.2-.5-2.9-1.4-.7-.9-1.1-2.6-1.1-5s.4-4.1 1.2-5.1c.6-.9 1.6-1.3 2.8-1.3"/><path fill="#A8A8A8" d="M670.8 369.7h55v55h-55v-55z"/><path fill="#ECECEC" d="M680.403 373.208h35.9c3.3 0 6.1 2.7 6.1 6.1v35.9c0 3.3-2.7 6.1-6.1 6.1h-35.9c-3.3 0-6.1-2.7-6.1-6.1v-35.9c0-3.4 2.7-6.1 6.1-6.1"/><path d="M681.1 389.6h13.5v2.1h-13.5v-2.1zM685.3 408.9h6.4v3.2h-6.4v-3.2z"/><path fill="#A8A8A8" d="M729.1 369.7h55v55h-55v-55z"/><path fill="#ECECEC" d="M738.643 373.208h35.9c3.3 0 6.1 2.7 6.1 6.1v35.9c0 3.3-2.7 6.1-6.1 6.1h-35.9c-3.3 0-6.1-2.7-6.1-6.1v-35.9c.1-3.4 2.8-6.1 6.1-6.1"/><path d="M743.536 390.276v-3.8h-3.8v-2.6h3.8v-3.8h2.6v3.8h3.9v2.6h-3.9v3.8h-2.6zM739.7 411.7H750v2.6h-10.3v-2.6zm0-4.4H750v2.6h-10.3v-2.6z"/><path fill="#A8A8A8" d="M787.4 369.7h55v55h-55v-55z"/><path fill="#ECECEC" d="M796.983 373.208h35.9c3.3 0 6.1 2.7 6.1 6.1v35.9c0 3.3-2.7 6.1-6.1 6.1h-35.9c-3.3 0-6.1-2.7-6.1-6.1v-35.9c0-3.4 2.7-6.1 6.1-6.1"/><path d="M796 377.9h15.7v2.4H796v-2.4zM802.1 405.6h3.8v3.8h-3.8v-3.8z"/><path fill="#A8A8A8" d="M379.3 369.7h55v55h-55v-55z"/><path fill="#ECECEC" d="M388.903 373.208h35.9c3.3 0 6.1 2.7 6.1 6.1v35.9c0 3.3-2.7 6.1-6.1 6.1h-35.9c-3.3 0-6.1-2.7-6.1-6.1v-35.9c0-3.4 2.7-6.1 6.1-6.1"/><path d="M388.666 385.707l3.4-7.2h2l3.3 7.2h-2.6l-1.8-4.4-1.8 4.4h-2.5zM391.537 410.46c0 .8.2 1.5.6 1.9s.8.7 1.3.7.9-.2 1.2-.5c.3-.4.5-1 .5-1.8 0-.9-.2-1.5-.5-1.9s-.8-.6-1.3-.6-.9.2-1.2.6c-.4.3-.6.9-.6 1.6m5.7-5.5l-2.4.3c-.1-.5-.2-.9-.5-1.1-.3-.2-.6-.4-1-.4-.5 0-1 .2-1.4.7s-.6 1.5-.7 3c.6-.7 1.4-1.1 2.3-1.1 1.1 0 2 .4 2.7 1.2.8.8 1.1 1.8 1.1 3.1s-.4 2.4-1.2 3.2c-.8.8-1.8 1.2-3 1.2-1.3 0-2.4-.5-3.3-1.6-.9-1-1.3-2.7-1.3-5.1 0-2.4.4-4.2 1.3-5.2.9-1.1 2.1-1.6 3.5-1.6 1 0 1.8.3 2.5.8s1.3 1.5 1.4 2.6"/><path fill="#A8A8A8" d="M437.6 369.7h55v55h-55v-55z"/><path fill="#ECECEC" d="M447.143 373.208h35.9c3.3 0 6.1 2.7 6.1 6.1v35.9c0 3.3-2.7 6.1-6.1 6.1h-35.9c-3.3 0-6.1-2.7-6.1-6.1v-35.9c.1-3.4 2.8-6.1 6.1-6.1"/><path d="M450.685 384.897l.7-.5c.5-.4.7-.7.7-1.1 0-.3-.1-.6-.3-.8-.2-.2-.5-.3-.9-.3s-.7.1-.9.3c-.2.2-.3.4-.3.7s.2.7.5 1.1l.5.6zm-.9 2.6c-.6.3-1 .6-1.2 1-.3.4-.4.8-.4 1.2 0 .5.2.9.5 1.3.3.3.8.5 1.4.5.4 0 .7-.1 1.1-.2.3-.1.7-.4 1.1-.7 0-.1-2.5-3.1-2.5-3.1zm7.5 4.2l-1.5 1.9c-.7-.3-1.4-.8-2-1.4-.5.5-1 .8-1.6 1s-1.2.3-2 .3c-1.6 0-2.7-.4-3.5-1.3-.6-.7-.9-1.5-.9-2.3s.2-1.5.7-2.2c.5-.6 1.2-1.2 2.1-1.7-.4-.5-.7-1-1-1.4-.2-.5-.3-.9-.3-1.3 0-.8.3-1.4.9-1.9s1.5-.8 2.6-.8 1.9.3 2.5.8c.6.6.9 1.2.9 2 0 .5-.2 1-.5 1.4-.3.5-.9 1-1.8 1.5l1.7 2.3c.2-.4.4-.8.5-1.4l2.2.5c-.2.8-.4 1.3-.6 1.7s-.3.7-.5.9c.3.3.6.5 1 .8.6.3.9.5 1.1.6M447.087 405.026v-2.2h8.2v1.7c-.7.7-1.4 1.6-2.1 2.9-.7 1.2-1.2 2.6-1.6 4s-.5 2.7-.5 3.8h-2.3c0-1.7.4-3.5 1.1-5.3s1.6-3.4 2.7-4.8l-5.5-.1z"/><path fill="#A8A8A8" d="M495.9 369.7h55v55h-55v-55z"/><path fill="#ECECEC" d="M505.483 373.208h35.9c3.3 0 6.1 2.7 6.1 6.1v35.9c0 3.3-2.7 6.1-6.1 6.1h-35.9c-3.3 0-6.1-2.7-6.1-6.1v-35.9c0-3.4 2.7-6.1 6.1-6.1"/><path d="M508.197 405.745c0 .5.1.9.4 1.1.3.3.6.4 1.1.4s.8-.1 1.1-.4c.3-.3.4-.6.4-1.1s-.1-.8-.4-1.1-.6-.4-1.1-.4-.8.1-1.1.4c-.2.3-.4.6-.4 1.1m-.2 5.4c0 .7.2 1.2.5 1.5.3.4.8.6 1.3.6s.9-.2 1.2-.5c.3-.4.5-.9.5-1.5s-.2-1.1-.5-1.4c-.3-.4-.7-.5-1.3-.5-.6 0-1 .2-1.3.6-.2.2-.4.7-.4 1.2m-.2-3c-.6-.3-1.1-.6-1.4-1.1s-.4-1-.4-1.5c0-.9.3-1.7 1-2.3s1.6-.9 2.8-.9c1.2 0 2.1.3 2.8.9.7.6 1 1.4 1 2.3 0 .6-.1 1.1-.5 1.6-.3.5-.7.8-1.3 1 .7.3 1.2.7 1.6 1.2s.5 1.2.5 1.9c0 1.2-.4 2.1-1.1 2.8s-1.7 1.1-2.9 1.1c-1.1 0-2.1-.3-2.8-.9-.9-.7-1.3-1.7-1.3-2.9 0-.7.2-1.3.5-1.9.2-.5.7-1 1.5-1.3"/><path fill="#A8A8A8" d="M554.2 369.7h55v55h-55v-55z"/><path fill="#ECECEC" d="M563.823 373.208h35.9c3.3 0 6.1 2.7 6.1 6.1v35.9c0 3.3-2.7 6.1-6.1 6.1h-35.9c-3.3 0-6.1-2.7-6.1-6.1v-35.9c0-3.4 2.7-6.1 6.1-6.1"/><path d="M570.51 396.757h-1.6c-.9-1.3-1.5-2.7-2-4.1s-.7-2.8-.7-4.1c0-1.6.3-3.2.8-4.7.5-1.3 1.1-2.5 1.9-3.5h1.6c-.8 1.7-1.3 3.2-1.6 4.4-.3 1.2-.4 2.5-.4 3.8 0 .9.1 1.9.3 2.9.2 1 .4 1.9.7 2.8.2.5.5 1.4 1 2.5M569.54 406.818c0-.8-.2-1.4-.5-1.8-.4-.4-.8-.6-1.2-.6-.4 0-.8.2-1.1.5-.3.3-.4.9-.4 1.7s.2 1.4.5 1.8c.3.4.7.6 1.2.6s.8-.2 1.2-.5c.2-.5.3-1 .3-1.7m-5.4 5.2l2.3-.3c.1.5.2.8.4 1.1.2.2.6.3.9.3.5 0 .9-.2 1.3-.7.3-.5.6-1.4.7-2.8-.6.7-1.4 1.1-2.3 1.1-1 0-1.8-.4-2.6-1.1-.7-.8-1.1-1.8-1.1-3 0-1.3.4-2.3 1.1-3.1.8-.8 1.7-1.2 2.9-1.2 1.3 0 2.3.5 3.1 1.5.8 1 1.2 2.6 1.2 4.8 0 2.3-.4 3.9-1.3 5-.8 1-2 1.5-3.3 1.5-1 0-1.8-.3-2.4-.8-.4-.5-.8-1.3-.9-2.3"/><path fill="#A8A8A8" d="M146.3 369.7h55v55h-55v-55z"/><path fill="#ECECEC" d="M155.903 373.208h35.9c3.3 0 6.1 2.7 6.1 6.1v35.9c0 3.3-2.7 6.1-6.1 6.1h-35.9c-3.3 0-6.1-2.7-6.1-6.1v-35.9c0-3.4 2.7-6.1 6.1-6.1"/><path d="M161.116 383.592l-.5-2.5v-2.2h2.8v2.2l-.4 2.5h-1.9zm-4 0l-.5-2.5v-2.2h2.8v2.2l-.4 2.5h-1.9zM164.138 412.807v2.4h-8.8c.1-.9.4-1.7.9-2.5s1.4-1.8 2.8-3.2c1.1-1.1 1.8-1.8 2.1-2.2.3-.5.5-1 .5-1.5 0-.6-.2-1-.5-1.3s-.7-.5-1.3-.5c-.5 0-1 .2-1.3.5s-.5.8-.5 1.6l-2.5-.3c.1-1.4.6-2.4 1.4-3s1.8-.9 3-.9c1.3 0 2.3.4 3.1 1.1.7.7 1.1 1.6 1.1 2.6 0 .6-.1 1.2-.3 1.7s-.6 1.1-1 1.7c-.3.4-.9 1-1.7 1.7-.8.7-1.3 1.2-1.5 1.5-.2.2-.4.5-.5.7h5v-.1z"/><path fill="#A8A8A8" d="M204.6 369.7h55v55h-55v-55z"/><path fill="#ECECEC" d="M214.143 373.208h35.9c3.3 0 6.1 2.7 6.1 6.1v35.9c0 3.3-2.7 6.1-6.1 6.1h-35.9c-3.3 0-6.1-2.7-6.1-6.1v-35.9c.1-3.4 2.8-6.1 6.1-6.1"/><path d="M222.362 389.445l1 2.1c-.3.2-.7.3-1.2.5-.4.1-.9.2-1.3.2-.5 0-1.3-.1-2.1-.4-.9-.3-1.6-.4-2-.4-.7 0-1.5.3-2.2.8l-1-2.2c.7-.5 1.2-1 1.5-1.5s.4-1.1.4-1.6v-.5h-1.9v-2h1.4c-.2-.7-.4-1.4-.4-2.1 0-.6.2-1.3.5-1.9.4-.6.9-1 1.5-1.3s1.4-.5 2.1-.5c1.2 0 2.1.3 2.8.9.7.6 1.1 1.4 1.3 2.6l-2.4.4c-.1-.6-.3-1.1-.6-1.4-.3-.3-.7-.4-1.1-.4-.5 0-.9.2-1.2.5s-.5.7-.5 1.2c0 .3 0 .6.1 1s.2.8.3 1.1h2.8v2h-2.3v.4c0 .5-.1.9-.3 1.3-.2.4-.5.9-1.1 1.6.3-.2.7-.3 1.2-.3h.6c.1 0 .3.1.7.2.7.2 1.2.3 1.5.3.5-.1 1.1-.2 1.9-.6M214.07 411.485l2.4-.3c.1.6.3 1.1.6 1.4.3.3.8.5 1.2.5.5 0 1-.2 1.3-.6.4-.4.5-.9.5-1.6 0-.6-.2-1.1-.5-1.5s-.8-.6-1.2-.6c-.3 0-.7.1-1.2.2l.3-2c.7 0 1.2-.1 1.6-.4.4-.3.5-.7.5-1.2 0-.4-.1-.8-.4-1.1-.3-.3-.6-.4-1-.4s-.8.1-1.1.4c-.3.3-.5.7-.6 1.3l-2.3-.4c.2-.8.4-1.4.7-1.9s.8-.8 1.4-1.1c.6-.3 1.2-.4 2-.4 1.2 0 2.2.4 3 1.2.6.6.9 1.4.9 2.2 0 1.1-.6 2.1-1.9 2.8.8.2 1.3.5 1.8 1.1s.7 1.2.7 2c0 1.1-.4 2.1-1.3 2.9-.8.8-1.9 1.2-3.1 1.2-1.2 0-2.2-.3-2.9-1-.8-.8-1.3-1.6-1.4-2.7"/><path fill="#A8A8A8" d="M262.9 369.7h55v55h-55v-55z"/><path fill="#ECECEC" d="M272.483 373.208h35.9c3.3 0 6.1 2.7 6.1 6.1v35.9c0 3.3-2.7 6.1-6.1 6.1h-35.9c-3.3 0-6.1-2.7-6.1-6.1v-35.9c0-3.4 2.7-6.1 6.1-6.1"/><path d="M277.011 390.76c.4-.1.8-.3 1.1-.6s.4-.7.4-1.2c0-.4-.1-.7-.3-1s-.6-.5-1.1-.7v3.5h-.1zm-1.3-9.4c-.3.1-.6.3-.8.6s-.3.6-.3.9c0 .3.1.6.3.9.2.3.5.5.9.7-.1-.1-.1-3.1-.1-3.1zm0 9.2v-3.7c-1.2-.3-2-.8-2.5-1.5s-.8-1.5-.8-2.4c0-1 .3-1.8.9-2.4.6-.7 1.4-1 2.4-1.1v-.9h1.3v.9c.9.1 1.7.4 2.2 1 .6.5.9 1.2 1.1 2.1l-2.2.3c-.1-.7-.5-1.2-1.1-1.4v3.5c1.4.4 2.4.9 2.9 1.5s.8 1.4.8 2.3c0 1.1-.3 2-1 2.7-.6.7-1.5 1.2-2.7 1.3v1.7h-1.3v-1.6c-1-.1-1.8-.5-2.5-1.1-.6-.6-1-1.5-1.2-2.7l2.3-.2c.1.5.3.9.5 1.2.3.1.6.4.9.5M277.04 410.357v-4.4l-3 4.4h3zm0 4.8v-2.6h-5.3v-2.2l5.6-8.2h2.1v8.2h1.6v2.2h-1.6v2.6h-2.4z"/><path fill="#A8A8A8" d="M321.2 369.7h55v55h-55v-55z"/><path fill="#ECECEC" d="M330.823 373.208h35.8c3.3 0 6.1 2.7 6.1 6.1v35.9c0 3.3-2.7 6.1-6.1 6.1h-35.8c-3.3 0-6.1-2.7-6.1-6.1v-35.9c0-3.4 2.7-6.1 6.1-6.1"/><path d="M338.863 390c0 .8.1 1.4.3 1.6.1.2.3.3.6.3s.5-.1.6-.3c.2-.3.3-.8.3-1.7 0-.8-.1-1.4-.3-1.7-.1-.2-.3-.3-.6-.3s-.5.1-.6.3c-.2.5-.3 1-.3 1.8m-1.9.1c0-1.1.2-2 .7-2.5s1.2-.8 2-.8c.9 0 1.5.3 2 .8s.7 1.4.7 2.5-.2 2-.7 2.5-1.2.8-2 .8c-.9 0-1.6-.3-2.1-.8-.4-.6-.6-1.4-.6-2.5m-3.9 3.3h-1.8l6.7-13.3h1.7l-6.6 13.3zm-2.7-10c0 .8.1 1.4.3 1.7.1.2.3.3.6.3s.5-.1.6-.3c.2-.3.3-.8.3-1.7 0-.8-.1-1.4-.3-1.6-.1-.2-.3-.3-.6-.3s-.5.1-.6.3c-.3.2-.3.7-.3 1.6m-1.9 0c0-1.1.2-2 .7-2.5s1.2-.8 2-.8c.9 0 1.6.3 2.1.8s.7 1.4.7 2.5-.2 2-.7 2.5-1.2.8-2 .8c-.9 0-1.6-.3-2.1-.8s-.7-1.4-.7-2.5M331.406 411.694l2.4-.2c.1.5.3 1 .6 1.3.3.3.7.5 1.2.5s.9-.2 1.3-.6c.3-.4.5-1 .5-1.9 0-.8-.2-1.4-.5-1.7-.3-.4-.8-.6-1.4-.6-.7 0-1.3.3-1.9.9l-2-.3 1.2-6.6h6.4v2.3h-4.6l-.4 2.1c.5-.3 1.1-.4 1.7-.4 1.1 0 2 .4 2.7 1.2s1.1 1.8 1.1 3c0 1-.3 2-.9 2.8-.8 1.1-2 1.7-3.4 1.7-1.2 0-2.1-.3-2.8-.9-.6-.7-1.1-1.6-1.2-2.6"/><path fill="#A8A8A8" d="M29.7 369.7h55v55h-55v-55z"/><path fill="#ECECEC" d="M39.323 373.208h35.9c3.3 0 6.1 2.7 6.1 6.1v35.9c0 3.3-2.7 6.1-6.1 6.1h-35.9c-3.3 0-6.1-2.7-6.1-6.1v-35.9c0-3.4 2.7-6.1 6.1-6.1"/><path fill="#A8A8A8" d="M88 369.7h55v55H88v-55z"/><path fill="#ECECEC" d="M97.563 373.208h35.9c3.3 0 6.1 2.7 6.1 6.1v35.9c0 3.3-2.7 6.1-6.1 6.1h-35.9c-3.3 0-6.1-2.7-6.1-6.1v-35.9c.1-3.4 2.8-6.1 6.1-6.1"/><path d="M98.8 389.6h2.5v2.5h-2.5v-2.5zm.6-.9l-.7-6.7v-3h2.7v3.1l-.6 6.7h-1.4v-.1zM102.308 415.125h-2.5v-9.5c-.9.9-2 1.5-3.3 1.9v-2.3c.7-.2 1.4-.6 2.1-1.2.8-.6 1.3-1.3 1.6-2.1h2v13.2h.1z"/><path fill="#A8A8A8" d="M583.4 427.8h55v55h-55v-55z"/><path fill="#ECECEC" d="M592.943 431.363h35.9c3.3 0 6.1 2.7 6.1 6.1v35.9c0 3.3-2.7 6.1-6.1 6.1h-35.9c-3.3 0-6.1-2.7-6.1-6.1v-35.9c0-3.4 2.7-6.1 6.1-6.1"/><path d="M597.448 446.912c0 1.8.4 3.2 1.3 4.2s1.9 1.4 3.2 1.4 2.4-.5 3.2-1.4c.8-.9 1.3-2.4 1.3-4.2 0-1.9-.4-3.3-1.2-4.2s-1.9-1.4-3.3-1.4-2.4.5-3.3 1.4c-.8.9-1.2 2.3-1.2 4.2m-3.4.1c0-1.7.2-3.1.7-4.2.4-.8.9-1.6 1.5-2.2.6-.7 1.3-1.1 2.1-1.5 1-.4 2.2-.6 3.5-.6 2.4 0 4.3.7 5.8 2.2 1.4 1.5 2.2 3.6 2.2 6.2s-.7 4.7-2.1 6.2c-1.4 1.5-3.3 2.2-5.7 2.2-2.4 0-4.3-.7-5.8-2.2-1.5-1.5-2.2-3.5-2.2-6.1"/><path fill="#A8A8A8" d="M641.7 427.8h55v55h-55v-55z"/><path fill="#ECECEC" d="M651.183 431.363h35.9c3.3 0 6.1 2.7 6.1 6.1v35.9c0 3.3-2.7 6.1-6.1 6.1h-35.9c-3.3 0-6.1-2.7-6.1-6.1v-35.9c.1-3.4 2.8-6.1 6.1-6.1"/><path d="M654.665 441.514v4.6h1.8c1.3 0 2.2-.1 2.6-.3.4-.2.8-.4 1-.8.2-.4.4-.8.4-1.3 0-.6-.2-1.1-.5-1.5s-.8-.6-1.3-.7c-.4-.1-1.2-.1-2.4-.1h-1.6v.1zm-3.2 13.5v-16.3h5.3c2 0 3.3.1 3.9.2.9.2 1.7.8 2.3 1.6s.9 1.9.9 3.2c0 1-.2 1.8-.5 2.5-.4.7-.8 1.2-1.4 1.6-.6.4-1.1.6-1.7.8-.8.2-1.9.2-3.4.2h-2.1v6.1c-.1.1-3.3.1-3.3.1z"/><path fill="#A8A8A8" d="M700 427.8h55v55h-55v-55z"/><path fill="#ECECEC" d="M709.523 431.363h35.9c3.3 0 6.1 2.7 6.1 6.1v35.9c0 3.3-2.7 6.1-6.1 6.1h-35.9c-3.3 0-6.1-2.7-6.1-6.1v-35.9c0-3.4 2.8-6.1 6.1-6.1"/><path d="M709.92 445.23v-2.1c.4 0 .7-.1.9-.2.2-.1.4-.3.5-.5.2-.2.3-.5.3-.9 0-.3.1-.7.1-1.4 0-1.1.1-1.9.2-2.3.1-.4.3-.8.6-1.1s.7-.5 1.2-.6c.3-.1.9-.2 1.6-.2h.5v2c-.6 0-1 0-1.2.1s-.3.2-.4.3c-.1.1-.1.4-.1.7 0 .4 0 1-.1 2 0 .6-.1 1-.2 1.4-.1.4-.3.6-.5.9-.2.2-.5.5-.9.7.3.2.6.4.8.7s.4.6.5.9c.1.4.2.9.2 1.5 0 .9.1 1.5.1 1.8 0 .4 0 .6.1.8.1.1.2.3.4.3.2.1.6.1 1.2.1v2.1h-.5c-.8 0-1.4-.1-1.8-.2-.4-.1-.8-.3-1-.6-.3-.3-.5-.6-.6-1.1s-.1-1.1-.1-2c0-1 0-1.7-.1-2-.1-.5-.3-.8-.6-1-.2.1-.6 0-1.1-.1M711.101 474.204v-16.1h4.3v1.9h-2v12.3h2v1.9h-4.3z"/><path fill="#A8A8A8" d="M758.3 427.8h55v55h-55v-55z"/><path fill="#ECECEC" d="M767.863 431.363h35.9c3.3 0 6.1 2.7 6.1 6.1v35.9c0 3.3-2.7 6.1-6.1 6.1h-35.9c-3.3 0-6.1-2.7-6.1-6.1v-35.9c0-3.4 2.7-6.1 6.1-6.1"/><path d="M775.03 445.23c-.4 0-.7.1-.9.2-.2.1-.4.3-.5.5s-.3.5-.3.9c0 .3-.1.7-.1 1.4 0 1.1-.1 1.9-.2 2.3-.1.4-.3.8-.6 1.1-.3.3-.7.5-1.2.6-.3.1-.9.2-1.6.2h-.5v-2.1c.6 0 1 0 1.2-.1s.3-.2.4-.3c.1-.1.1-.4.1-.7s0-1 .1-2c0-.6.1-1.1.2-1.4.1-.4.3-.7.5-.9s.5-.5.8-.7c-.4-.3-.7-.5-.9-.8-.3-.4-.5-.9-.5-1.4-.1-.4-.1-1.3-.1-2.6 0-.4 0-.7-.1-.9-.1-.1-.2-.3-.4-.3-.2-.1-.6-.1-1.2-.1v-2h.5c.8 0 1.4.1 1.8.2.4.1.8.3 1 .6.3.3.5.6.6 1.1.1.4.2 1.1.2 2 0 1 0 1.7.1 2 .1.5.3.8.6 1s.6.3 1.2.3v1.9h-.2zM773.904 458.149v16.1h-4.3v-1.9h2v-12.3h-2v-1.9h4.3z"/><path fill="#A8A8A8" d="M350.2 427.8h55v55h-55v-55z"/><path fill="#ECECEC" d="M359.683 431.363h35.9c3.3 0 6.1 2.7 6.1 6.1v35.9c0 3.3-2.7 6.1-6.1 6.1h-35.9c-3.3 0-6.1-2.7-6.1-6.1v-35.9c.1-3.4 2.8-6.1 6.1-6.1"/><path d="M364.821 455.845v-14.9h-5.3v-3h14.2v3h-5.3v14.9h-3.6z"/><path fill="#A8A8A8" d="M408.5 427.8h55v55h-55v-55z"/><path fill="#ECECEC" d="M418.023 431.363h35.9c3.3 0 6.1 2.7 6.1 6.1v35.9c0 3.3-2.7 6.1-6.1 6.1h-35.9c-3.3 0-6.1-2.7-6.1-6.1v-35.9c0-3.4 2.8-6.1 6.1-6.1"/><path d="M423.808 455.845v-7.5l-6.6-10.4h4.2l4.2 7.1 4.1-7.1h4.2l-6.6 10.4v7.5h-3.5z"/><path fill="#A8A8A8" d="M466.8 427.8h55v55h-55v-55z"/><path fill="#ECECEC" d="M476.363 431.363h35.9c3.3 0 6.1 2.7 6.1 6.1v35.9c0 3.3-2.7 6.1-6.1 6.1h-35.9c-3.3 0-6.1-2.7-6.1-6.1v-35.9c0-3.4 2.7-6.1 6.1-6.1"/><path d="M477.388 437.785h3.6v9.7c0 1.5 0 2.5.1 3 .2.7.5 1.3 1.1 1.8.6.4 1.4.7 2.4.7s1.8-.2 2.3-.6c.5-.4.8-.9.9-1.5s.2-1.6.2-3v-9.9h3.6v9.4c0 2.1-.1 3.7-.3 4.6-.2.9-.6 1.6-1.1 2.2-.5.6-1.2 1.1-2.1 1.5s-2 .5-3.4.5c-1.7 0-3-.2-3.9-.6-.9-.4-1.6-.9-2.1-1.5s-.8-1.3-1-2c-.2-1-.4-2.5-.4-4.5v-9.8h.1z"/><path fill="#A8A8A8" d="M525.1 427.8h55v55h-55v-55z"/><path fill="#ECECEC" d="M534.603 431.363h35.9c3.3 0 6.1 2.7 6.1 6.1v35.9c0 3.3-2.7 6.1-6.1 6.1h-35.9c-3.3 0-6.1-2.7-6.1-6.1v-35.9c.1-3.4 2.8-6.1 6.1-6.1"/><path d="M536.2 437.7h3.6v17.9h-3.6v-17.9z"/><path fill="#A8A8A8" d="M117.2 427.8h55v55h-55v-55z"/><path fill="#ECECEC" d="M126.683 431.363h35.9c3.3 0 6.1 2.7 6.1 6.1v35.9c0 3.3-2.7 6.1-6.1 6.1h-35.9c-3.3 0-6.1-2.7-6.1-6.1v-35.9c.1-3.4 2.8-6.1 6.1-6.1"/><path d="M139.185 450.788c.5-.5.8-1.2 1-2s.3-1.7.3-2.7c0-2.1-.5-3.6-1.4-4.6s-2.1-1.5-3.6-1.5-2.7.5-3.6 1.5-1.4 2.6-1.4 4.6c0 2.1.5 3.7 1.4 4.7s2.1 1.6 3.5 1.6c.5 0 1-.1 1.5-.3-.7-.5-1.5-.9-2.2-1.1l1-2.1c1.3.5 2.5 1.1 3.5 1.9m3 2.1c.9.6 1.9 1.1 2.9 1.5l-1.3 2.6c-.5-.2-1.1-.4-1.6-.7-.1-.1-.9-.6-2.4-1.6-1.2.5-2.5.8-3.9.8-2.8 0-4.9-.8-6.5-2.4s-2.3-3.9-2.3-6.8.8-5.2 2.3-6.8 3.7-2.4 6.4-2.4 4.8.8 6.3 2.4c1.6 1.6 2.3 3.9 2.3 6.8 0 1.5-.2 2.9-.6 4.1-.4.8-.9 1.6-1.6 2.5"/><path fill="#A8A8A8" d="M175.5 427.8h55v55h-55v-55z"/><path fill="#ECECEC" d="M185.023 431.363h35.9c3.3 0 6.1 2.7 6.1 6.1v35.9c0 3.3-2.7 6.1-6.1 6.1h-35.9c-3.3 0-6.1-2.7-6.1-6.1v-35.9c0-3.4 2.8-6.1 6.1-6.1"/><path d="M189.44 455.845l-4.3-17.9h3.7l2.7 12.3 3.3-12.3h4.3l3.1 12.5 2.7-12.5h3.6l-4.3 17.9h-3.8l-3.6-13.4-3.6 13.4h-3.8z"/><path fill="#A8A8A8" d="M233.8 427.8h55v55h-55v-55z"/><path fill="#ECECEC" d="M243.363 431.363h35.9c3.3 0 6.1 2.7 6.1 6.1v35.9c0 3.3-2.7 6.1-6.1 6.1h-35.9c-3.3 0-6.1-2.7-6.1-6.1v-35.9c0-3.4 2.7-6.1 6.1-6.1"/><path d="M243.617 455.845v-17.9h13.3v3h-9.7v4h9v3h-9v4.9h10v3h-13.6z"/><path fill="#A8A8A8" d="M292.1 427.8h55v55h-55v-55z"/><path fill="#ECECEC" d="M301.603 431.363h35.9c3.3 0 6.1 2.7 6.1 6.1v35.9c0 3.3-2.7 6.1-6.1 6.1h-35.9c-3.3 0-6.1-2.7-6.1-6.1v-35.9c.1-3.4 2.8-6.1 6.1-6.1"/><path d="M306.408 445.507h2.7c1.7 0 2.8-.1 3.2-.2.4-.1.8-.4 1-.8.2-.4.4-.8.4-1.3 0-.6-.2-1.1-.5-1.5s-.8-.6-1.4-.7c-.3 0-1.2-.1-2.6-.1h-2.8v4.6zm-3.6 10.4v-17.9h7.6c1.9 0 3.3.2 4.2.5.9.3 1.6.9 2.1 1.7s.8 1.8.8 2.8c0 1.3-.4 2.5-1.2 3.3s-2 1.4-3.5 1.7c.8.5 1.4 1 1.9 1.5s1.2 1.5 2.1 2.9l2.2 3.5h-4.3l-2.6-3.9c-.9-1.4-1.6-2.3-1.9-2.6-.3-.4-.7-.6-1.1-.7-.4-.1-1-.2-1.8-.2h-.7v7.5c-.2-.1-3.8-.1-3.8-.1z"/><path fill="#A8A8A8" d="M816.555 427.864v58.3h-43.4v55h98.4v-113.3h-55z"/><path fill="#ECECEC" d="M826.103 431.364c-3.4 0-6.1 2.7-6.1 6.1v52.3h-37.4c-.8 0-1.6.2-2.4.5-.2.1-.4.2-.5.3-.3.2-.7.4-1 .7-.4.4-.8.8-1.2 1.3-.2.3-.4.7-.6 1-.3.7-.5 1.5-.5 2.4v35.9c0 .4 0 .8.1 1.2 0 .2.1.4.1.6.1.2.1.4.2.6.2.4.3.7.6 1s.5.6.7.9l.4.4c.2.1.3.2.5.3.3.2.6.3.9.5.1 0 .1.1.2.1.2.1.4.1.6.2.2.1.4.1.6.1.2 0 .4.1.6.1h80c3.4 0 6.1-2.7 6.1-6.1V437.564c0-3.4-2.7-6.1-6.1-6.1l-35.8-.1z"/><path fill="#A8A8A8" d="M29.7 427.9h84.2v54.9H29.7v-54.9z"/><path fill="#ECECEC" d="M39.38 431.31h36.8c3.3 0 6.1 2.7 6.1 6.1v35.9c0 3.3-2.7 6.1-6.1 6.1h-36.8c-3.3 0-6.1-2.7-6.1-6.1v-35.9c0-3.4 2.7-6.1 6.1-6.1"/><path fill="#ECECEC" d="M67.39 431.31h36.8c3.3 0 6.1 2.7 6.1 6.1v35.9c0 3.3-2.7 6.1-6.1 6.1h-36.8c-3.3 0-6.1-2.7-6.1-6.1v-35.9c0-3.4 2.7-6.1 6.1-6.1"/><path d="M41.193 445.179v-8.2h-2.9v-1.7h7.8v1.7h-2.9v8.2h-2zM50.36 441.818c-.2.1-.6.2-1.1.3s-.9.2-1 .3c-.2.2-.4.4-.4.7s.1.5.3.7.4.3.8.3c.3 0 .7-.1 1-.3.2-.2.4-.4.4-.6 0-.2.1-.5.1-.9l-.1-.5zm-2.6-1.6l-1.7-.3c.2-.7.5-1.2 1-1.5s1.2-.5 2.1-.5c.8 0 1.5.1 1.9.3s.7.5.9.8.3.9.3 1.7v2.2c0 .6 0 1.1.1 1.4.1.3.2.6.3 1h-1.9c-.1-.1-.1-.3-.2-.6 0-.1-.1-.2-.1-.2-.3.3-.7.5-1 .7-.4.2-.8.2-1.2.2-.7 0-1.3-.2-1.7-.6-.4-.4-.6-.9-.6-1.5 0-.4.1-.8.3-1.1.2-.3.5-.6.8-.7.3-.2.8-.3 1.5-.4.9-.2 1.5-.3 1.8-.5v-.2c0-.4-.1-.6-.3-.8s-.5-.2-1-.2c-.3 0-.6.1-.8.2-.2.1-.3.3-.5.6M55.865 441.454c0 .7.1 1.3.3 1.6.3.5.8.8 1.3.8.4 0 .8-.2 1.1-.5.3-.4.4-.9.4-1.7s-.1-1.4-.4-1.8c-.3-.4-.7-.5-1.1-.5-.5 0-.8.2-1.1.5-.4.4-.5.9-.5 1.6m-1.9 3.7v-9.8h1.9v3.5c.6-.7 1.3-1 2.1-1 .9 0 1.6.3 2.2.9.6.6.9 1.5.9 2.7s-.3 2.2-.9 2.8c-.6.7-1.3 1-2.1 1-.4 0-.8-.1-1.2-.3s-.7-.5-1-.9v1c-.2.1-1.9.1-1.9.1z"/><path fill="#A8A8A8" d="M539.9 486.1h55v55h-55v-55z"/><path fill="#ECECEC" d="M549.494 489.623h35.9c3.3 0 6.1 2.7 6.1 6.1v35.9c0 3.3-2.7 6.1-6.1 6.1h-35.9c-3.3 0-6.1-2.7-6.1-6.1v-35.9c0-3.4 2.8-6.1 6.1-6.1"/><path d="M550.578 513.504v-17.9h3.6v7.9l7.3-7.9h4.9l-6.7 7 7.1 10.9h-4.7l-4.9-8.4-2.9 3v5.4h-3.7z"/><path fill="#A8A8A8" d="M598.2 486.1h55v55h-55v-55z"/><path fill="#ECECEC" d="M607.834 489.623h35.9c3.3 0 6.1 2.7 6.1 6.1v35.9c0 3.3-2.7 6.1-6.1 6.1h-35.9c-3.3 0-6.1-2.7-6.1-6.1v-35.9c0-3.4 2.7-6.1 6.1-6.1"/><path d="M608.927 513.462v-17.7h3.6v14.7h9v3h-12.6z"/><path fill="#A8A8A8" d="M656.5 486.1h55v55h-55v-55z"/><path fill="#ECECEC" d="M666.074 489.623h35.9c3.3 0 6.1 2.7 6.1 6.1v35.9c0 3.3-2.7 6.1-6.1 6.1h-35.9c-3.3 0-6.1-2.7-6.1-6.1v-35.9c.1-3.4 2.8-6.1 6.1-6.1"/><path d="M667.7 505.2h2.4v2.4h-2.4v-2.4zm0-6.7h2.4v2.4h-2.4v-2.4zM667.6 520.4h2.4v2.4h-2.4v-2.4zm0 6.6h2.4v1.7c0 .7-.1 1.2-.2 1.6-.1.4-.3.8-.7 1.1-.3.3-.8.6-1.3.8l-.5-1c.5-.2.8-.4 1-.7s.3-.7.3-1.1h-1.2l.2-2.4z"/><path fill="#A8A8A8" d="M714.8 486.1h55v55h-55v-55z"/><path fill="#ECECEC" d="M724.414 489.623h35.9c3.3 0 6.1 2.7 6.1 6.1v35.9c0 3.3-2.7 6.1-6.1 6.1h-35.9c-3.3 0-6.1-2.7-6.1-6.1v-35.9c0-3.4 2.7-6.1 6.1-6.1"/><path d="M729.681 505.476c0 .7.1 1.3.4 1.6.3.3.7.5 1.1.5.3 0 .6-.1.9-.2.2-.1.4-.3.6-.5.3-.3.6-.9.8-1.5.2-.7.3-1.3.3-1.9s-.2-1.1-.4-1.5c-.3-.3-.7-.5-1.1-.5-.5 0-.9.2-1.4.6-.4.4-.7.9-.9 1.6-.1.6-.3 1.2-.3 1.8m9.3 3.5h1.8c-.6 1.2-1.4 2.1-2.6 2.7-1.3.8-3 1.1-4.9 1.1s-3.5-.3-4.9-1c-1.4-.6-2.4-1.6-3.1-2.8-.7-1.2-1-2.6-1-4 0-1.6.4-3.1 1.1-4.5.8-1.4 1.8-2.4 3.1-3.1s2.8-1 4.5-1c1.4 0 2.7.3 3.8.8 1.1.6 2 1.4 2.6 2.4s.9 2.2.9 3.4c0 1.5-.4 2.8-1.3 3.9-1.1 1.5-2.6 2.2-4.3 2.2-.5 0-.8-.1-1.1-.2-.2-.2-.4-.4-.5-.7-.7.7-1.4 1-2.3 1-.9 0-1.7-.3-2.4-1-.6-.7-.9-1.5-.9-2.6 0-1.3.4-2.6 1.1-3.7.9-1.3 2.1-2 3.5-2 1 0 1.8.4 2.2 1.2l.2-.9h2.3l-1.3 6.1c-.1.4-.1.6-.1.8 0 .1 0 .2.1.3.1.1.1.1.2.1.3 0 .6-.2 1.1-.5.6-.4 1.1-1 1.4-1.7.4-.7.5-1.5.5-2.3 0-1.4-.5-2.6-1.5-3.5s-2.4-1.4-4.2-1.4c-1.5 0-2.9.3-3.9.9-1.1.6-1.9 1.5-2.4 2.7-.5 1.1-.8 2.3-.8 3.6 0 1.2.3 2.3.9 3.3.6 1 1.5 1.7 2.6 2.2s2.4.7 3.8.7 2.5-.2 3.5-.6c.9-.6 1.7-1.2 2.3-1.9M731.1 528.6h2.4v2.4h-2.4v-2.4z"/><path fill="#A8A8A8" d="M306.7 486.1h55v55h-55v-55z"/><path fill="#ECECEC" d="M316.334 489.623h35.9c3.3 0 6.1 2.7 6.1 6.1v35.9c0 3.3-2.7 6.1-6.1 6.1h-35.9c-3.3 0-6.1-2.7-6.1-6.1v-35.9c0-3.4 2.7-6.1 6.1-6.1"/><path d="M317.368 513.504v-17.9h12.3v3h-8.7v4.2h7.5v3h-7.5v7.6l-3.6.1z"/><path fill="#A8A8A8" d="M365 486.1h55v55h-55v-55z"/><path fill="#ECECEC" d="M374.574 489.623h35.9c3.3 0 6.1 2.7 6.1 6.1v35.9c0 3.3-2.7 6.1-6.1 6.1h-35.9c-3.3 0-6.1-2.7-6.1-6.1v-35.9c.1-3.4 2.8-6.1 6.1-6.1"/><path d="M383.322 506.967v-3h7.8v7.1c-.8.7-1.9 1.4-3.3 1.9-1.4.6-2.9.8-4.4.8-1.9 0-3.5-.4-4.9-1.2-1.4-.8-2.4-1.9-3.1-3.4s-1.1-3-1.1-4.8c0-1.9.4-3.5 1.2-5 .8-1.4 1.9-2.6 3.4-3.3 1.1-.6 2.6-.9 4.3-.9 2.2 0 4 .5 5.2 1.4 1.3.9 2.1 2.2 2.4 3.9l-3.6.7c-.3-.9-.7-1.6-1.4-2.1s-1.6-.8-2.6-.8c-1.6 0-2.8.5-3.8 1.5-.9 1-1.4 2.5-1.4 4.5 0 2.1.5 3.7 1.4 4.8.9 1.1 2.2 1.6 3.7 1.6.8 0 1.5-.1 2.3-.4s1.4-.7 2-1.1v-2.3l-4.1.1z"/><path fill="#A8A8A8" d="M423.3 486.1h55v55h-55v-55z"/><path fill="#ECECEC" d="M432.914 489.623h35.9c3.3 0 6.1 2.7 6.1 6.1v35.9c0 3.3-2.7 6.1-6.1 6.1h-35.9c-3.3 0-6.1-2.7-6.1-6.1v-35.9c0-3.4 2.7-6.1 6.1-6.1"/><path d="M433.968 513.504v-17.9h3.6v7h7.1v-7h3.6v17.9h-3.6v-7.8h-7.1v7.8h-3.6z"/><path fill="#A8A8A8" d="M481.6 486.1h55v55h-55v-55z"/><path fill="#ECECEC" d="M491.154 489.623h35.9c3.3 0 6.1 2.7 6.1 6.1v35.9c0 3.3-2.7 6.1-6.1 6.1h-35.9c-3.3 0-6.1-2.7-6.1-6.1v-35.9c.1-3.4 2.8-6.1 6.1-6.1"/><path d="M500.112 495.442h3.6v11.3c0 1.5-.1 2.6-.4 3.4-.3 1-1 1.9-1.9 2.5s-2.1.9-3.6.9c-1.8 0-3.1-.5-4.1-1.5s-1.4-2.4-1.4-4.4l3.4-.4c0 1 .2 1.7.5 2.2.4.6 1 1 1.8 1s1.4-.2 1.7-.7c.3-.5.5-1.4.5-2.9l-.1-11.4z"/><path fill="#A8A8A8" d="M132 486.1h55v55h-55v-55z"/><path fill="#ECECEC" d="M141.574 489.623h35.9c3.3 0 6.1 2.7 6.1 6.1v35.9c0 3.3-2.7 6.1-6.1 6.1h-35.9c-3.3 0-6.1-2.7-6.1-6.1v-35.9c.1-3.4 2.8-6.1 6.1-6.1"/><path d="M152.877 506.468l-2.5-6.6-2.4 6.6h4.9zm6.6 7.1h-3.9l-1.6-4.1h-7.2l-1.5 4.1h-3.8l7-17.9h3.8c.1 0 7.2 17.9 7.2 17.9z"/><path fill="#A8A8A8" d="M190.3 486.1h55v55h-55v-55z"/><path fill="#ECECEC" d="M199.914 489.623h35.9c3.3 0 6.1 2.7 6.1 6.1v35.9c0 3.3-2.7 6.1-6.1 6.1h-35.9c-3.3 0-6.1-2.7-6.1-6.1v-35.9c0-3.4 2.7-6.1 6.1-6.1"/><path d="M200.677 507.667l3.5-.3c.2 1.2.6 2 1.3 2.6.6.6 1.5.8 2.6.8 1.2 0 2-.2 2.6-.7s.9-1.1.9-1.7c0-.4-.1-.8-.4-1.1-.2-.3-.7-.6-1.3-.8-.4-.1-1.4-.4-2.9-.8-1.9-.5-3.3-1.1-4.1-1.8-1.1-1-1.6-2.2-1.6-3.6 0-.9.3-1.8.8-2.6s1.3-1.4 2.2-1.8c1-.4 2.1-.6 3.5-.6 2.2 0 3.9.5 5.1 1.5 1.1 1 1.7 2.3 1.8 3.9l-3.6.2c-.2-.9-.5-1.6-1-2s-1.3-.6-2.3-.6-1.9.2-2.5.6c-.4.3-.6.6-.6 1.1 0 .4.2.8.5 1.1.5.4 1.6.8 3.3 1.2 1.8.4 3.1.8 3.9 1.3.8.4 1.5 1.1 2 1.8s.7 1.7.7 2.9c0 1-.3 2-.9 2.9-.6.9-1.4 1.6-2.4 2s-2.3.7-3.9.7c-2.3 0-4-.5-5.2-1.6-1-1-1.7-2.6-2-4.6"/><path fill="#A8A8A8" d="M248.6 486.1h55v55h-55v-55z"/><path fill="#ECECEC" d="M258.154 489.623h35.9c3.3 0 6.1 2.7 6.1 6.1v35.9c0 3.3-2.7 6.1-6.1 6.1h-35.9c-3.3 0-6.1-2.7-6.1-6.1v-35.9c.1-3.4 2.8-6.1 6.1-6.1"/><path d="M262.938 498.698v11.9h2.7c1 0 1.7-.1 2.2-.2.6-.1 1.1-.4 1.5-.7.4-.4.7-.9.9-1.7.2-.8.4-1.9.4-3.3s-.1-2.4-.4-3.2c-.2-.7-.6-1.3-1-1.7-.4-.4-1-.7-1.7-.8-.5-.1-1.5-.2-3-.2l-1.6-.1zm-3.6-3.1h6.6c1.5 0 2.6.1 3.4.3 1 .3 1.9.9 2.7 1.6.8.8 1.3 1.8 1.7 2.9s.6 2.6.6 4.2c0 1.5-.2 2.7-.5 3.8-.4 1.3-1.1 2.4-1.9 3.2-.6.6-1.5 1.1-2.5 1.4-.8.3-1.9.4-3.2.4h-6.9v-17.8z"/><path fill="#A8A8A8" d="M510.6 544.4h55v55h-55v-55z"/><path fill="#ECECEC" d="M520.128 547.983h35.9c3.3 0 6.1 2.7 6.1 6.1v35.9c0 3.3-2.7 6.1-6.1 6.1h-35.9c-3.3 0-6.1-2.7-6.1-6.1v-35.9c.1-3.4 2.8-6.1 6.1-6.1"/><path d="M521.167 572.592v-17.9h5.4l3.2 12.2 3.2-12.2h5.4v17.9h-3.4v-14.1l-3.6 14.1h-3.5l-3.5-14.1v14.1h-3.2z"/><path fill="#A8A8A8" d="M568.9 544.4h55v55h-55v-55z"/><path fill="#ECECEC" d="M578.468 547.983h35.9c3.3 0 6.1 2.7 6.1 6.1v35.9c0 3.3-2.7 6.1-6.1 6.1h-35.9c-3.3 0-6.1-2.7-6.1-6.1v-35.9c0-3.4 2.7-6.1 6.1-6.1"/><path d="M587.523 564.485l-8.6-3.7v-2.1l8.6-3.7v2.4l-6 2.3 6 2.4v2.4zM582.004 585.364h2.4v1.7c0 .7-.1 1.2-.2 1.6s-.3.8-.7 1.1c-.3.3-.8.6-1.3.8l-.5-1c.5-.2.8-.4 1-.7s.3-.7.3-1.1h-1.2v-2.4h.2z"/><path fill="#A8A8A8" d="M627.2 544.4h55v55h-55v-55z"/><path fill="#ECECEC" d="M636.808 547.983h35.9c3.3 0 6.1 2.7 6.1 6.1v35.9c0 3.3-2.7 6.1-6.1 6.1h-35.9c-3.3 0-6.1-2.7-6.1-6.1v-35.9c0-3.4 2.7-6.1 6.1-6.1"/><path d="M637.811 564.279v-2.4l6-2.4-6-2.3v-2.4l8.6 3.7v2.1l-8.6 3.7zM640.9 585.2h2.4v2.4h-2.4v-2.4z"/><path fill="#A8A8A8" d="M685.5 544.4h55v55h-55v-55z"/><path fill="#ECECEC" d="M695.048 547.983h35.9c3.3 0 6.1 2.7 6.1 6.1v35.9c0 3.3-2.7 6.1-6.1 6.1h-35.9c-3.3 0-6.1-2.7-6.1-6.1v-35.9c.1-3.4 2.8-6.1 6.1-6.1"/><path d="M699.3 564.5h2.4v2.4h-2.4v-2.4zm2.2-.8h-2.2v-.6c0-.7.1-1.3.4-1.7.2-.5.7-1 1.4-1.5.7-.6 1.1-.9 1.3-1.1.2-.3.3-.6.3-.9 0-.5-.2-.9-.6-1.2-.4-.3-.9-.5-1.5-.5s-1.1.2-1.5.5-.7.9-.8 1.6l-2.2-.3c.1-1 .5-1.9 1.3-2.6.8-.7 1.9-1.1 3.2-1.1 1.4 0 2.5.4 3.3 1.1.8.7 1.2 1.6 1.2 2.5 0 .5-.1 1-.4 1.5-.3.5-.9 1.1-1.9 1.9-.5.4-.8.8-.9 1-.3.3-.4.7-.4 1.4M697.998 589.03l3.1-13h1.8l-3.1 13h-1.8z"/><path fill="#A8A8A8" d="M277.4 544.4h55v55h-55v-55z"/><path fill="#ECECEC" d="M286.968 547.983h35.9c3.3 0 6.1 2.7 6.1 6.1v35.9c0 3.3-2.7 6.1-6.1 6.1h-35.9c-3.3 0-6.1-2.7-6.1-6.1v-35.9c0-3.4 2.7-6.1 6.1-6.1"/><path d="M299.472 565.956l3.5 1.1c-.5 2-1.4 3.4-2.7 4.4-1.2.9-2.8 1.4-4.8 1.4-2.4 0-4.3-.8-5.9-2.4-1.5-1.6-2.3-3.8-2.3-6.7 0-3 .8-5.3 2.3-6.9s3.6-2.5 6.1-2.5c2.2 0 4 .6 5.3 1.9.8.8 1.4 1.9 1.8 3.3l-3.6.9c-.2-.9-.7-1.7-1.3-2.2-.7-.5-1.5-.8-2.4-.8-1.3 0-2.4.5-3.2 1.4-.8 1-1.2 2.5-1.2 4.6 0 2.3.4 3.9 1.2 4.8.8 1 1.9 1.4 3.2 1.4 1 0 1.8-.3 2.5-.9.7-.5 1.2-1.5 1.5-2.8"/><path fill="#A8A8A8" d="M335.7 544.4h55v55h-55v-55z"/><path fill="#ECECEC" d="M345.308 547.983h35.9c3.3 0 6.1 2.7 6.1 6.1v35.9c0 3.3-2.7 6.1-6.1 6.1h-35.9c-3.3 0-6.1-2.7-6.1-6.1v-35.9c0-3.4 2.7-6.1 6.1-6.1"/><path d="M350.885 572.592l-6.4-17.9h3.9l4.5 13.2 4.4-13.2h3.8l-6.4 17.9h-3.8z"/><path fill="#A8A8A8" d="M394 544.4h55v55h-55v-55z"/><path fill="#ECECEC" d="M403.548 547.983h35.9c3.3 0 6.1 2.7 6.1 6.1v35.9c0 3.3-2.7 6.1-6.1 6.1h-35.9c-3.3 0-6.1-2.7-6.1-6.1v-35.9c.1-3.4 2.8-6.1 6.1-6.1"/><path d="M408.192 564.732v4.8h3.4c1.3 0 2.1 0 2.5-.1.5-.1 1-.3 1.3-.7s.5-.9.5-1.5c0-.5-.1-1-.4-1.4s-.6-.6-1.1-.8c-.5-.2-1.6-.3-3.2-.3h-3zm0-7.1v4.1h2.4c1.4 0 2.3 0 2.6-.1.6-.1 1.1-.3 1.5-.6.4-.4.5-.8.5-1.4s-.2-1-.5-1.4c-.3-.3-.8-.6-1.4-.6-.4 0-1.4-.1-3.1-.1h-2v.1zm-3.6-3h7.2c1.4 0 2.5.1 3.2.2s1.3.4 1.9.7c.6.4 1 .9 1.4 1.5s.5 1.3.5 2.1-.2 1.6-.7 2.3c-.5.7-1.1 1.2-1.8 1.6 1.1.3 1.9.9 2.5 1.6.6.8.9 1.7.9 2.7 0 .8-.2 1.6-.6 2.4s-.9 1.4-1.6 1.8c-.7.5-1.5.7-2.4.8-.6.1-2.1.1-4.4.1h-6.1v-17.8z"/><path fill="#A8A8A8" d="M452.3 544.4h55v55h-55v-55z"/><path fill="#ECECEC" d="M461.888 547.983h35.9c3.3 0 6.1 2.7 6.1 6.1v35.9c0 3.3-2.7 6.1-6.1 6.1h-35.9c-3.3 0-6.1-2.7-6.1-6.1v-35.9c0-3.4 2.7-6.1 6.1-6.1"/><path d="M463.02 572.592v-17.9h3.5l7.3 12v-12h3.4v17.9h-3.6l-7.2-11.7v11.7h-3.4z"/><path fill="#A8A8A8" d="M102.7 544.4h55v55h-55v-55z"/><path fill="#ECECEC" d="M112.308 547.983h35.9c3.3 0 6.1 2.7 6.1 6.1v35.9c0 3.3-2.7 6.1-6.1 6.1h-35.9c-3.3 0-6.1-2.7-6.1-6.1v-35.9c0-3.4 2.7-6.1 6.1-6.1"/><path d="M115.3 554.1h1.9v16.4h-1.9v-16.4zM113.825 575.956h1.8l3.1 13h-1.8l-3.1-13z"/><path fill="#A8A8A8" d="M161 544.4h55v55h-55v-55z"/><path fill="#ECECEC" d="M170.548 547.983h35.9c3.3 0 6.1 2.7 6.1 6.1v35.9c0 3.3-2.7 6.1-6.1 6.1h-35.9c-3.3 0-6.1-2.7-6.1-6.1v-35.9c.1-3.4 2.8-6.1 6.1-6.1"/><path d="M171.465 572.592v-3.3l9.4-11.6h-8.3v-3h13.1v2.8l-9.8 12.1h10.2v3h-14.6z"/><path fill="#A8A8A8" d="M219.3 544.4h55v55h-55v-55z"/><path fill="#ECECEC" d="M228.888 547.983h35.9c3.3 0 6.1 2.7 6.1 6.1v35.9c0 3.3-2.7 6.1-6.1 6.1h-35.9c-3.3 0-6.1-2.7-6.1-6.1v-35.9c0-3.4 2.7-6.1 6.1-6.1"/><path d="M230.33 572.592l6.1-9.3-5.5-8.6h4.2l3.6 5.7 3.5-5.7h4.2l-5.6 8.7 6.1 9.2h-4.4l-4-6.2-4 6.2h-4.2z"/><path fill="#A8A8A8" d="M743.8 544.5h84.1v54.9h-84.1v-54.9z"/><path fill="#ECECEC" d="M753.443 547.83h36.8c3.3 0 6.1 2.7 6.1 6.1v35.9c0 3.3-2.7 6.1-6.1 6.1h-36.8c-3.3 0-6.1-2.7-6.1-6.1v-35.9c0-3.3 2.7-6.1 6.1-6.1"/><path fill="#ECECEC" d="M781.454 547.83h36.8c3.3 0 6.1 2.7 6.1 6.1v35.9c0 3.3-2.7 6.1-6.1 6.1h-36.8c-3.3 0-6.1-2.7-6.1-6.1v-35.9c0-3.3 2.7-6.1 6.1-6.1"/><path d="M752.497 558.975l1.9-.2c.1.6.4 1.1.7 1.4.4.3.8.5 1.4.5.6 0 1.1-.1 1.4-.4.3-.3.5-.6.5-1 0-.2-.1-.4-.2-.6-.1-.2-.4-.3-.7-.4-.2-.1-.8-.2-1.6-.4-1.1-.3-1.8-.6-2.2-1-.6-.5-.9-1.2-.9-2 0-.5.1-1 .4-1.4.3-.4.7-.8 1.2-1s1.2-.3 1.9-.3c1.2 0 2.2.3 2.8.8s1 1.3 1 2.2l-2 .1c-.1-.5-.3-.9-.5-1.1-.3-.2-.7-.3-1.3-.3s-1 .1-1.4.4c-.2.2-.3.4-.3.6s.1.4.3.6c.3.2.9.4 1.8.7 1 .2 1.7.5 2.1.7.5.2.8.6 1.1 1s.4.9.4 1.6c0 .6-.2 1.1-.5 1.6s-.8.9-1.3 1.1c-.6.2-1.3.4-2.1.4-1.2 0-2.2-.3-2.9-.9-.5-.8-.9-1.6-1-2.7M764.03 552.287v3.6c.6-.7 1.3-1.1 2.2-1.1.4 0 .8.1 1.2.2.3.2.6.4.8.6.2.3.3.5.4.8.1.3.1.8.1 1.4v4.2h-1.9v-3.8c0-.7 0-1.2-.1-1.4-.1-.2-.2-.4-.4-.5s-.4-.2-.7-.2-.6.1-.8.2c-.2.2-.4.4-.5.7-.1.3-.2.8-.2 1.4v3.6h-1.9v-9.8l1.8.1zM770.6 555h1.9v7.1h-1.9V555zm0-2.7h1.9v1.7h-1.9v-1.7zM773.54 555.017h1v-.5c0-.6.1-1 .2-1.3.1-.3.4-.5.7-.7s.8-.3 1.3-.3 1.1.1 1.6.2l-.3 1.3c-.3-.1-.6-.1-.9-.1-.3 0-.5.1-.6.2s-.2.4-.2.7v.5h1.4v1.5h-1.4v5.6h-1.9v-5.6h-1l.1-1.5zM782.18 555.017v1.5h-1.3v3.9c0 .1.1.2.2.2.1.1.2.1.3.1.2 0 .4-.1.8-.2l.2 1.5c-.4.2-.9.3-1.5.3-.3 0-.6-.1-.9-.2-.3-.1-.5-.3-.6-.4-.1-.2-.2-.4-.3-.7 0-.2-.1-.7-.1-1.3v-3.1h-.9v-1.5h.9v-1.4l1.9-1.1v2.5l1.3-.1z"/><path fill="#A8A8A8" d="M714.6 602.7h84.2v54.9h-84.2v-54.9z"/><path fill="#ECECEC" d="M724.316 606.086h36.8c3.3 0 6.1 2.7 6.1 6.1v35.9c0 3.3-2.7 6.1-6.1 6.1h-36.8c-3.3 0-6.1-2.7-6.1-6.1v-36c0-3.3 2.7-6 6.1-6"/><path fill="#ECECEC" d="M752.327 606.086h36.8c3.3 0 6.1 2.7 6.1 6.1v35.9c0 3.3-2.7 6.1-6.1 6.1h-36.8c-3.3 0-6.1-2.7-6.1-6.1v-36c0-3.3 2.7-6 6.1-6"/><path d="M729.387 616.349l1.9.6c-.3 1.1-.8 1.9-1.5 2.4s-1.6.8-2.6.8c-1.3 0-2.4-.4-3.2-1.3-.8-.9-1.3-2.1-1.3-3.7s.4-2.9 1.3-3.8 2-1.4 3.3-1.4c1.2 0 2.2.4 2.9 1.1.4.4.8 1 1 1.8l-2 .5c-.1-.5-.4-.9-.7-1.2-.4-.3-.8-.4-1.3-.4-.7 0-1.3.3-1.8.8s-.7 1.4-.7 2.5c0 1.2.2 2.1.7 2.7.4.5 1 .8 1.7.8.5 0 1-.2 1.4-.5.4-.4.7-1 .9-1.7M736.93 616.594c-.2.1-.6.2-1.1.3s-.9.2-1 .3c-.2.2-.4.4-.4.7s.1.5.3.7.4.3.8.3c.3 0 .7-.1 1-.3.2-.2.4-.4.5-.6 0-.2.1-.5.1-.9v-.5h-.2zm-2.5-1.6l-1.7-.3c.2-.7.5-1.2 1-1.5s1.2-.5 2.1-.5c.8 0 1.5.1 1.9.3s.7.5.9.8.3.9.3 1.7v2.2c0 .6 0 1.1.1 1.4.1.3.2.6.3 1h-1.9c0-.1-.1-.3-.2-.6 0-.1-.1-.2-.1-.2-.3.3-.7.5-1 .7-.4.2-.8.2-1.2.2-.7 0-1.3-.2-1.7-.6-.4-.4-.6-.9-.6-1.5 0-.4.1-.8.3-1.1s.5-.6.8-.7c.3-.2.8-.3 1.5-.4.9-.2 1.5-.3 1.8-.5v-.2c0-.4-.1-.6-.3-.8s-.5-.2-1-.2c-.3 0-.6.1-.8.2-.3.1-.4.3-.5.6M742.45 616.303c0 .8.2 1.4.5 1.8.3.4.7.6 1.2.6.4 0 .8-.2 1.1-.5.3-.4.4-.9.4-1.7 0-.7-.1-1.3-.4-1.7s-.7-.5-1.1-.5c-.5 0-.8.2-1.1.5-.5.3-.6.8-.6 1.5m-1.9-3.5h1.8v1c.2-.4.5-.7.9-.9s.8-.3 1.3-.3c.8 0 1.5.3 2.1 1 .6.6.9 1.6.9 2.7 0 1.2-.3 2.1-.9 2.8-.6.7-1.3 1-2.1 1-.4 0-.8-.1-1.1-.2-.3-.2-.7-.4-1-.8v3.6h-1.9v-9.9zM748.388 617.981l1.9-.3c.1.4.2.6.5.8.2.2.6.3 1 .3.5 0 .9-.1 1.1-.3.2-.1.2-.3.2-.5 0-.1 0-.3-.1-.4-.1-.1-.3-.2-.6-.3-1.5-.3-2.5-.6-2.9-.9-.6-.4-.8-.9-.8-1.6 0-.6.2-1.1.7-1.6.5-.4 1.2-.6 2.3-.6 1 0 1.7.2 2.2.5s.8.8 1 1.4l-1.8.3c-.1-.3-.2-.5-.4-.6s-.5-.2-.9-.2c-.5 0-.9.1-1.1.2-.1.1-.2.2-.2.4 0 .1.1.2.2.3.2.1.8.3 1.8.5s1.7.5 2.1.8c.4.3.6.8.6 1.4 0 .7-.3 1.2-.8 1.7s-1.4.7-2.4.7-1.7-.2-2.3-.6c-.8-.2-1.2-.8-1.3-1.4M760.546 619.954v-9.8h2v8.1h4.9v1.7h-6.9zM770.41 616.406c0 .7.2 1.2.5 1.6.3.4.8.6 1.2.6.5 0 .9-.2 1.2-.6.3-.4.5-.9.5-1.6 0-.7-.2-1.2-.5-1.6-.3-.4-.7-.6-1.2-.6s-.9.2-1.2.6c-.4.4-.5.9-.5 1.6m-2-.1c0-.6.2-1.2.5-1.8s.7-1 1.3-1.3 1.2-.5 1.9-.5c1.1 0 2 .4 2.7 1 .7.7 1 1.6 1 2.7s-.3 2-1 2.7-1.6 1.1-2.6 1.1c-.7 0-1.3-.1-1.9-.4-.6-.3-1-.7-1.4-1.3-.3-.7-.5-1.4-.5-2.2M783.506 614.972l-1.9.3c-.1-.4-.2-.7-.4-.8-.2-.2-.5-.3-.9-.3-.5 0-.8.2-1.1.5s-.4.9-.4 1.6c0 .8.1 1.4.4 1.8.3.3.7.5 1.1.5.4 0 .6-.1.9-.3.2-.2.4-.6.5-1l1.9.3c-.2.9-.6 1.5-1.1 1.9s-1.3.7-2.2.7c-1 0-1.9-.3-2.5-1s-.9-1.6-.9-2.7c0-1.2.3-2.1.9-2.7.6-.7 1.5-1 2.5-1 .9 0 1.6.2 2.1.6.5.2.9.8 1.1 1.6M784.896 619.954v-9.8h1.9v5.2l2.2-2.5h2.3l-2.4 2.6 2.6 4.5h-2l-1.8-3.2-.9.9v2.3h-1.9z"/><path fill="#A8A8A8" d="M189.7 602.6h521.6v55H189.7v-55z"/><path fill="#ECECEC" d="M221.463 606.139c-3.4 0-6.1 2.7-6.1 6.1v35.8c0 3.4 2.7 6.1 6.1 6.1h480.4c3.4 0 6.1-2.7 6.1-6.1v-35.9c0-3.4-2.7-6.1-6.1-6.1h-35.9l-444.5.1z"/><path fill="#ECECEC" d="M199.447 606.139h35.9c3.3 0 6.1 2.7 6.1 6.1v35.8c0 3.3-2.7 6.1-6.1 6.1h-35.9c-3.3 0-6.1-2.7-6.1-6.1v-35.9c0-3.3 2.7-6 6.1-6"/><path fill="#A8A8A8" d="M102.7 602.7h84.2v54.9h-84.2v-54.9z"/><path fill="#ECECEC" d="M112.364 606.086h36.8c3.3 0 6.1 2.7 6.1 6.1v35.9c0 3.3-2.7 6.1-6.1 6.1h-36.8c-3.3 0-6.1-2.7-6.1-6.1v-36c0-3.3 2.7-6 6.1-6"/><path fill="#ECECEC" d="M140.375 606.086h36.8c3.3 0 6.1 2.7 6.1 6.1v35.9c0 3.3-2.7 6.1-6.1 6.1h-36.8c-3.3 0-6.1-2.7-6.1-6.1v-36c0-3.3 2.7-6 6.1-6"/><path d="M116.345 617.316l-1.4-3.7-1.3 3.7h2.7zm3.6 3.9h-2.2l-.9-2.2h-3.8l-.8 2.2h-2.2l3.8-9.8h2.2c0-.1 3.9 9.8 3.9 9.8zM121 611.3h1.9v9.8H121v-9.8zM128.077 614.004v1.5h-1.3v3.9c0 .1.1.2.2.2.1.1.2.1.3.1.2 0 .4-.1.8-.2l.2 1.5c-.4.2-.9.3-1.5.3-.3 0-.6-.1-.9-.2-.3-.1-.5-.3-.6-.4-.1-.2-.2-.4-.3-.7 0-.2-.1-.7-.1-1.3v-3.1h-.9v-1.5h.9v-1.4l1.9-1.1v2.5l1.3-.1zM133.613 617.041c0-.5-.2-1-.4-1.2-.3-.3-.6-.4-1-.4s-.8.1-1 .4c-.3.3-.4.7-.4 1.2h2.8zm-.1 1.9l1.9.3c-.2.7-.6 1.2-1.1 1.6-.5.4-1.2.5-2 .5-1.2 0-2.2-.4-2.8-1.2-.5-.6-.7-1.5-.7-2.5 0-1.2.3-2.1.9-2.8s1.4-1 2.3-1c1.1 0 1.9.4 2.5 1.1.6.7.9 1.8.9 3.2h-4.7c0 .6.2 1 .5 1.3s.7.5 1.1.5c.3 0 .5-.1.7-.2.3-.2.4-.5.5-.8M138.887 621.2h-1.9V614h1.8v1c.3-.5.6-.8.8-.9.2-.2.5-.2.8-.2.4 0 .8.1 1.2.4l-.6 1.6c-.3-.2-.6-.3-.9-.3s-.5.1-.7.2c-.2.1-.3.4-.4.8-.1.4-.2 1.2-.2 2.4v2.2h.1zM148.911 621.2h-1.9v-3.6c0-.8 0-1.3-.1-1.5s-.2-.4-.4-.5c-.2-.1-.4-.2-.7-.2-.3 0-.6.1-.9.3s-.4.4-.5.7-.1.8-.1 1.6v3.2h-1.9V614h1.7v1c.6-.8 1.4-1.2 2.4-1.2.4 0 .8.1 1.1.2.3.2.6.3.8.6.2.2.3.5.4.8s.1.7.1 1.3v4.5zM154.69 617.74c-.2.1-.6.2-1.1.3s-.9.2-1 .3c-.2.2-.4.4-.4.7s.1.5.3.7c.2.2.4.3.8.3.3 0 .7-.1 1-.3.2-.2.4-.4.5-.6 0-.2.1-.5.1-.9v-.5h-.2zm-2.5-1.5l-1.7-.3c.2-.7.5-1.2 1-1.5s1.2-.5 2.1-.5c.8 0 1.5.1 1.9.3s.7.5.9.8.3.9.3 1.7v2.2c0 .6 0 1.1.1 1.4.1.3.2.6.3 1h-1.9c0-.1-.1-.3-.2-.6 0-.1-.1-.2-.1-.2-.3.3-.7.5-1 .7-.4.2-.8.2-1.2.2-.7 0-1.3-.2-1.7-.6-.4-.4-.6-.9-.6-1.5 0-.4.1-.8.3-1.1.2-.3.5-.6.8-.7.3-.2.8-.3 1.5-.4.9-.2 1.5-.3 1.8-.5v-.2c0-.4-.1-.6-.3-.8-.2-.2-.5-.2-1-.2-.3 0-.6.1-.8.2-.2 0-.4.2-.5.6M161.675 614.004v1.5h-1.3v3.9c0 .1.1.2.2.2.1.1.2.1.3.1.2 0 .4-.1.8-.2l.2 1.5c-.4.2-.9.3-1.5.3-.3 0-.6-.1-.9-.2-.3-.1-.5-.3-.6-.4-.1-.2-.2-.4-.3-.7 0-.2-.1-.7-.1-1.3v-3.1h-.9v-1.5h.9v-1.4l1.9-1.1v2.5l1.3-.1zM167.312 617.041c0-.5-.2-1-.4-1.2-.3-.3-.6-.4-1-.4s-.8.1-1 .4c-.3.3-.4.7-.4 1.2h2.8zm-.2 1.9l1.9.3c-.2.7-.6 1.2-1.1 1.6-.5.4-1.2.5-2 .5-1.2 0-2.2-.4-2.8-1.2-.5-.6-.7-1.5-.7-2.5 0-1.2.3-2.1.9-2.8s1.4-1 2.3-1c1.1 0 1.9.4 2.5 1.1.6.7.9 1.8.9 3.2h-4.7c0 .6.2 1 .5 1.3s.7.5 1.1.5c.3 0 .5-.1.7-.2.3-.2.4-.5.5-.8"/><path fill="#A8A8A8" d="M29.675 486.123v55h99v-55h-99z"/><path fill="#ECECEC" d="M39.324 489.623c-3.4 0-6.1 2.7-6.1 6.1v35.9c0 3.4 2.7 6.1 6.1 6.1h79.8c3.4 0 6.1-2.7 6.1-6.1v-35.9c0-3.4-2.7-6.1-6.1-6.1h-79.8z"/><path fill="#A8A8A8" d="M29.675 544.484v55h69.7v-55h-69.7z"/><path fill="#ECECEC" d="M39.323 547.983h35.9c3.3 0 6.1 2.7 6.1 6.1v35.9c0 3.3-2.7 6.1-6.1 6.1h-35.9c-3.3 0-6.1-2.7-6.1-6.1v-35.9c0-3.4 2.7-6.1 6.1-6.1"/><path fill="#ECECEC" d="M53.967 547.983h35.9c3.3 0 6.1 2.7 6.1 6.1v35.9c0 3.3-2.7 6.1-6.1 6.1h-35.9c-3.3 0-6.1-2.7-6.1-6.1v-35.9c0-3.4 2.7-6.1 6.1-6.1"/><path d="M784.5 498.56h1.5c1 0 1.5 0 1.8-.1.2-.1.4-.2.6-.4.1-.2.2-.4.2-.7 0-.3-.1-.6-.3-.8-.2-.2-.4-.3-.8-.4h-3v2.4zm-2 5.7v-9.8h4.2c1.1 0 1.8.1 2.3.3.5.2.9.5 1.1.9.3.5.4 1 .4 1.6 0 .7-.2 1.3-.7 1.8-.4.5-1.1.8-1.9.9.4.3.8.5 1.1.8s.7.8 1.1 1.6l1.2 1.9h-2.4l-1.4-2.1c-.5-.8-.9-1.2-1-1.4-.2-.2-.4-.3-.6-.4-.2-.1-.5-.1-1-.1h-.4v4.1c0-.1-2-.1-2-.1zM796.627 500.057c0-.5-.2-1-.4-1.2-.3-.3-.6-.4-1-.4s-.8.1-1 .4c-.3.3-.4.7-.4 1.2h2.8zm-.1 1.9l1.9.3c-.2.7-.6 1.2-1.1 1.6s-1.2.5-2 .5c-1.2 0-2.2-.4-2.8-1.2-.5-.6-.7-1.5-.7-2.5 0-1.2.3-2.1.9-2.8.6-.7 1.4-1 2.3-1 1.1 0 1.9.4 2.5 1.1s.9 1.8.9 3.2h-4.7c0 .6.2 1 .5 1.3s.7.5 1.1.5c.3 0 .5-.1.7-.2.3-.1.4-.4.5-.8M803.371 497.12v1.5h-1.3v3.9c0 .1.1.2.2.2.1.1.2.1.3.1.2 0 .4-.1.8-.2l.2 1.5c-.4.2-.9.3-1.5.3-.3 0-.6-.1-.9-.2-.3-.1-.5-.3-.6-.4-.1-.2-.2-.4-.3-.7 0-.2-.1-.7-.1-1.3v-3.1h-.9v-1.5h.9v-1.4l1.9-1.1v2.5l1.3-.1zM809.373 504.316v-1.1c-.3.4-.6.7-1 .9-.4.2-.9.3-1.3.3-.5 0-.9-.1-1.3-.3-.4-.2-.7-.5-.8-.9-.2-.4-.3-.9-.3-1.6v-4.5h1.9v3.3c0 1 0 1.6.1 1.8.1.2.2.4.4.5s.4.2.7.2.6-.1.9-.3c.3-.2.4-.4.5-.7.1-.3.1-.9.1-1.9v-3h1.9v7.1h-1.8v.2zM814.883 504.316h-1.9v-7.1h1.8v1c.3-.5.6-.8.8-.9.2-.2.5-.2.8-.2.4 0 .8.1 1.2.4l-.6 1.6c-.3-.2-.6-.3-.9-.3-.3 0-.5.1-.7.2s-.3.4-.4.8c-.1.4-.2 1.2-.2 2.4l.1 2.1zM824.906 504.316h-1.9v-3.6c0-.8 0-1.3-.1-1.5s-.2-.4-.4-.5-.4-.2-.7-.2-.6.1-.9.3c-.3.2-.4.4-.5.7-.1.3-.1.8-.1 1.6v3.2h-1.9v-7.1h1.8v1c.6-.8 1.4-1.2 2.3-1.2.4 0 .8.1 1.1.2s.6.3.8.6c.2.2.3.5.4.8.1.3.1.7.1 1.3v4.4zM38.376 558.975l1.9-.2c.1.6.4 1.1.7 1.4.4.3.8.5 1.4.5.6 0 1.1-.1 1.4-.4.3-.3.5-.6.5-1 0-.2-.1-.4-.2-.6-.1-.2-.4-.3-.7-.4-.2-.1-.8-.2-1.6-.4-1.1-.3-1.8-.6-2.2-1-.6-.5-.9-1.2-.9-2 0-.5.1-1 .4-1.4s.7-.8 1.2-1 1.2-.3 1.9-.3c1.2 0 2.2.3 2.8.8s1 1.3 1 2.2l-2 .1c-.1-.5-.3-.9-.5-1.1-.3-.2-.7-.3-1.3-.3s-1 .1-1.4.4c-.2.2-.3.4-.3.6s.1.4.3.6c.3.2.9.4 1.8.7 1 .2 1.7.5 2.1.7.5.2.8.6 1.1 1s.4.9.4 1.6c0 .6-.2 1.1-.5 1.6s-.8.9-1.3 1.1c-.6.2-1.3.4-2.1.4-1.2 0-2.2-.3-2.9-.9-.5-.8-.9-1.6-1-2.7M49.909 552.287v3.6c.6-.7 1.3-1.1 2.2-1.1.4 0 .8.1 1.2.2.3.2.6.4.8.6.2.3.3.5.4.8.1.3.1.8.1 1.4v4.2h-1.9v-3.8c0-.7 0-1.2-.1-1.4s-.2-.4-.4-.5-.4-.2-.7-.2-.6.1-.8.2c-.2.2-.4.4-.5.7-.1.3-.2.8-.2 1.4v3.6h-2v-9.8l1.9.1zM56.4 555h1.9v7.1h-1.9V555zm0-2.7h1.9v1.7h-1.9v-1.7zM59.42 555.017h1v-.5c0-.6.1-1 .2-1.3.1-.3.4-.5.7-.7s.8-.3 1.3-.3 1.1.1 1.6.2l-.3 1.3c-.3-.1-.6-.1-.9-.1-.3 0-.5.1-.6.2s-.2.4-.2.7v.5h1.4v1.5h-1.4v5.6h-1.9v-5.6h-1l.1-1.5zM68.06 555.017v1.5h-1.3v3.9c0 .1.1.2.2.2.1.1.2.1.3.1.2 0 .4-.1.8-.2l.2 1.5c-.4.2-.9.3-1.5.3-.3 0-.6-.1-.9-.2-.3-.1-.5-.3-.6-.4-.1-.2-.2-.4-.3-.7 0-.2-.1-.7-.1-1.3v-3.1h-.8v-1.5h.9v-1.4l1.9-1.1v2.5l1.2-.1zM44.988 500.746l1.9.6c-.3 1.1-.8 1.9-1.5 2.4s-1.6.8-2.6.8c-1.3 0-2.4-.4-3.2-1.3s-1.3-2.1-1.3-3.7.4-2.9 1.3-3.8 2-1.4 3.3-1.4c1.2 0 2.2.4 2.9 1.1.4.4.8 1 1 1.8l-2 .5c-.1-.5-.4-.9-.7-1.2-.4-.3-.8-.4-1.3-.4-.7 0-1.3.3-1.8.8s-.7 1.4-.7 2.5c0 1.2.2 2.1.7 2.7.4.5 1 .8 1.7.8.5 0 1-.2 1.4-.5.5-.5.7-1 .9-1.7M50.08 500.803c0 .7.2 1.2.5 1.6s.7.6 1.2.6.9-.2 1.2-.6.5-.9.5-1.6-.2-1.2-.5-1.6-.7-.6-1.2-.6-.9.2-1.2.6c-.3.3-.5.9-.5 1.6m-1.9-.1c0-.6.2-1.2.5-1.8.3-.6.7-1 1.3-1.3s1.2-.5 1.9-.5c1.1 0 2 .4 2.7 1 .7.7 1 1.6 1 2.7s-.3 2-1 2.7-1.6 1.1-2.6 1.1c-.7 0-1.3-.1-1.9-.4-.6-.3-1-.7-1.4-1.3-.4-.7-.5-1.4-.5-2.2M63.49 504.351h-1.9v-3.6c0-.8 0-1.3-.1-1.5s-.2-.4-.4-.5-.4-.2-.7-.2-.6.1-.9.3c-.3.2-.4.4-.5.7-.1.3-.1.8-.1 1.6v3.2h-1.9v-7.1h1.8v1c.6-.8 1.4-1.2 2.3-1.2.4 0 .8.1 1.1.2s.6.3.8.6c.2.2.3.5.4.8.1.3.1.7.1 1.3v4.4zM68.637 497.255v1.5h-1.3v3.9c0 .1.1.2.2.2.1.1.2.1.3.1.2 0 .4-.1.8-.2l.2 1.5c-.4.2-.9.3-1.5.3-.3 0-.6-.1-.9-.2-.3-.1-.5-.3-.6-.4-.1-.2-.2-.4-.3-.7 0-.2-.1-.7-.1-1.3v-3.1h-.8v-1.5h.9v-1.4l1.9-1.1v2.5l1.2-.1zM71.83 504.351h-1.9v-7.1h1.8v1c.3-.5.6-.8.8-.9.2-.2.5-.2.8-.2.4 0 .8.1 1.2.4l-.6 1.6c-.3-.2-.6-.3-.9-.3-.3 0-.5.1-.7.2s-.3.4-.4.8c-.1.4-.2 1.2-.2 2.4l.1 2.1zM76.863 500.803c0 .7.2 1.2.5 1.6.3.4.7.6 1.2.6s.9-.2 1.2-.6c.3-.4.5-.9.5-1.6s-.2-1.2-.5-1.6-.7-.6-1.2-.6-.9.2-1.2.6c-.4.3-.5.9-.5 1.6m-2-.1c0-.6.2-1.2.5-1.8.3-.6.7-1 1.3-1.3s1.2-.5 1.9-.5c1.1 0 2 .4 2.7 1 .7.7 1 1.6 1 2.7s-.3 2-1 2.7-1.6 1.1-2.6 1.1c-.7 0-1.3-.1-1.9-.4-.6-.3-1-.7-1.4-1.3-.3-.7-.5-1.4-.5-2.2M83.7 494.5h1.9v9.8h-1.9v-9.8zM38.37 388.25v-9.9h7.3v1.7h-5.3v2.2h4.9v1.7h-4.9v2.7h5.5v1.7l-7.5-.1zM46.865 386.178l1.9-.3c.1.4.2.6.5.8.2.2.6.3 1 .3.5 0 .9-.1 1.1-.3.2-.1.2-.3.2-.5 0-.1 0-.3-.1-.4-.1-.1-.3-.2-.6-.3-1.5-.3-2.5-.6-2.9-.9-.6-.4-.8-.9-.8-1.6 0-.6.2-1.1.7-1.6.5-.4 1.2-.6 2.3-.6 1 0 1.7.2 2.2.5s.8.8 1 1.4l-1.8.3c-.1-.3-.2-.5-.4-.6s-.5-.2-.9-.2c-.5 0-.9.1-1.1.2-.1.1-.2.2-.2.4 0 .1.1.2.2.3.2.1.8.3 1.8.5s1.7.5 2.1.8c.4.3.6.8.6 1.4 0 .7-.3 1.2-.8 1.7s-1.4.7-2.4.7-1.7-.2-2.3-.6c-.8-.2-1.2-.7-1.3-1.4M61.388 383.168l-1.9.3c-.1-.4-.2-.7-.4-.8-.2-.2-.5-.3-.9-.3-.5 0-.8.2-1.1.5-.3.3-.4.9-.4 1.6 0 .8.1 1.4.4 1.8.3.3.7.5 1.1.5.4 0 .7-.1.9-.3s.4-.6.5-1.1l1.9.3c-.2.9-.6 1.5-1.1 1.9s-1.3.6-2.2.6c-1 0-1.9-.3-2.5-1s-.9-1.6-.9-2.7c0-1.2.3-2.1.9-2.7.6-.7 1.5-1 2.5-1 .9 0 1.6.2 2.1.6.5.5.8 1.1 1.1 1.8M508.662 393.34l-3.2-2.5c1-1.2 2.1-2.3 3.2-3.3l.8-.8c-.4-.1-1.4-.3-3.1-.7-1.2-.3-2-.5-2.4-.7l1.3-3.8c1.9.8 3.5 1.6 5 2.5-.3-2.3-.5-4.2-.5-5.7h3.8c0 1-.2 3-.6 5.7.3-.1.9-.4 1.8-.8 1.3-.6 2.5-1.1 3.6-1.5l1.1 3.9c-1.6.4-3.4.7-5.5 1l2.6 2.9c.5.6.9 1.1 1.2 1.4l-3.3 2.2-2.9-4.8c-.7 1.6-1.7 3.3-2.9 5"/></g></g><path fill="none" d="M0 0h1655.2v688.7H0z"/><path fill="none" d="M0 0h1655.2v688.7H0z"/><path fill="none" d="M0 0h1655.2v688.7H0z"/><g><defs><path id="i" d="M1463.3 489.4h191.9v196.9h-191.9z"/></defs><clipPath id="j"><use xlink:href="#i" overflow="visible"/></clipPath><g opacity=".996" clip-path="url(#j)"><path fill="#3A61A6" d="M1637.2 665h11.2v8h-11.2v-8zm-171.6-175.6c-1.2 0-2.2 1-2.2 2.2V684c0 1.2 1 2.2 2.2 2.2H1653c1.2 0 2.2-1 2.2-2.2V512.3h-1.8v-7.4h1.8v-3.1l-14.8-12.4h-4v.6h-16l-.8.6-1.3.9h-130v-2.1h-22.7z"/></g><path fill="#FFF" d="M1486.3 575h145.9v111.3h-145.9V575z"/><g><linearGradient id="k" gradientUnits="userSpaceOnUse" x1="1054.215" y1="-1.847" x2="1055.215" y2="-1.847" gradientTransform="matrix(183.23 0 0 -183.23 -192549.344 184.377)"><stop offset="0" stop-color="#999"/><stop offset=".328" stop-color="#ececec"/><stop offset="1" stop-color="#999"/></linearGradient><path fill="url(#k)" d="M1512.2 489.3V553c0 1.9 1.5 3.4 3.4 3.4h97.2c1.9 0 3.4-1.5 3.4-3.4v-63.7h-104zm60.1 9.7h28.4v52.8h-28.4V499z"/></g><g><path fill="#D6D6D6" d="M1493.2 583.4h132.9v86h-132.9z"/><path fill="#999" d="M1507.7 587.2h-2.1v14.1h2.1v-14.1zm-3.5 0h1.1c0 6.3 0 8.1-1.1 9.9-1.1 1.8-3.9 3.9-6.3 3.9v-2.1c1.8-.4 3.5-1.4 4.9-3.5 1.4-1.4 1.4-6.7 1.4-8.2m4.9 0h-1.1c0 6.3 0 8.1 1.1 9.9s3.9 3.9 6.3 3.9v-2.1c-1.8-.4-3.5-1.4-4.9-3.5-1.4-1.4-1.4-6.7-1.4-8.2"/><path fill="#5479B6" d="M1556 601.4h2.1v-14.2h-2.1v14.2zm-25.4 0h2.1v-12h2.8v-2.2h-7.8v2.1h2.8l.1 12.1zm17.6-11.4v11.3h-2.1v-12c0-1.4.7-2.1 2.1-2.1h2.1c1.8 0 3.9 1.4 3.9 4.2s-1.4 3.5-2.5 3.9c-.4.4-.4.7 0 1.1l3.2 4.9h-2.5l-3.2-4.9c-.7-1.1-.4-2.1.4-2.5.4-.4 2.5-.7 2.5-2.5s-1.1-2.1-1.8-2.1h-1.4c-.7.1-.7.4-.7.7m-10.2 5.7l1.4-5.3 1.4 5.3h-2.8zm3.2-7c-.4-1.4-1.1-1.4-1.8-1.4s-1.4 0-1.8 1.4l-3.5 12.7h2.1l1.1-3.5h4.2l1.1 3.5h2.1l-3.5-12.7zm-18.7 7l1.4-5.3 1.4 5.3h-2.8zm3.1-7c-.4-1.4-1.1-1.4-1.8-1.4s-1.4 0-1.8 1.4l-3.5 12.7h2.2l1.1-3.5h4.2l1.1 3.5h2.1l-3.6-12.7z"/><path fill="#999" d="M1610.53 597.82c0 1.712-.749 2.995-2.086 3.958-1.123.749-2.835 1.337-4.546 1.337-.963 0-1.712 0-2.62-.214-.75-.214-1.712-.374-2.836-.749v-3.958c.963.375 1.338.589 1.872.75 1.337.374 2.247.588 2.835.588.963 0 1.498-.214 1.872-.375.374-.374.588-.214.588-.588 0-.589-.748-1.123-2.086-1.498-2.085-.588-2.62-1.123-3.209-1.337-1.497-.963-2.246-2.834-2.246-4.706 0-1.498.588-2.621 1.872-3.744 1.337-.963 2.835-1.498 4.707-1.498.962 0 1.711 0 2.46.214.749.214 1.497.374 2.46.749v3.958c-.963-.375-1.123-.75-1.872-.963-.749-.214-1.337-.374-2.086-.374-.588 0-1.337.213-1.711.374-.588.374-.749.749-.749 1.123 0 .749.588 1.337 1.712 1.712 2.246.588 2.834 1.123 3.209 1.337 1.711.695 2.46 2.032 2.46 3.904m12.676-7.755h-3.584v13.21h-5.295v-13.21h-3.583v-4.172h12.462v4.172z"/></g></g></svg>