<svg xmlns="http://www.w3.org/2000/svg" viewBox="0 0 1000 114"><title>logo</title><g id="Layer_2" data-name="Layer 2"><rect x="403.86" y="34.33" width="74" height="51.67" fill="#fff"/><rect x="546.19" y="27.67" width="51" height="58.33" fill="#fff"/></g><g id="Layer_1" data-name="Layer 1"><path d="M301.78,15.27V97.91H292V15.27h9.74m0-7H292a7,7,0,0,0-7,7V97.91a7,7,0,0,0,7,7h9.74a7,7,0,0,0,7-7V15.27a7,7,0,0,0-7-7Z" fill="#fff"/><path d="M288.89,15.39V51.07c0,25.63-16.61,46.49-37.27,47H250V86.22c18.34-3.38,32.41-22.91,32.41-46.51V15.39h6.48m0-7h-6.48a7,7,0,0,0-7,7V39.71c0,19.79-11.47,36.82-26.68,39.63A7,7,0,0,0,243,86.22V98.08a7,7,0,0,0,6.95,7h1.85c12.11-.31,23.36-6.26,31.68-16.75,8-10.08,12.41-23.31,12.41-37.27V15.39a7,7,0,0,0-7-7Z" fill="#fff"/><path d="M311.57,15.39V39.71c0,23.6,14.06,43.13,32.4,46.51V98.08h-1.62c-20.65-.53-37.26-21.39-37.26-47V15.39h6.48m0-7h-6.48a7,7,0,0,0-7,7V51.07c0,14,4.4,27.19,12.4,37.27,8.32,10.49,19.58,16.44,31.68,16.75H344a7,7,0,0,0,7-7V86.22a7,7,0,0,0-5.73-6.88C330,76.53,318.57,59.5,318.57,39.71V15.39a7,7,0,0,0-7-7Z" fill="#fff"/><path d="M389.56,15.34h0a13,13,0,0,1,8.76,3.41,17,17,0,0,1,4.86,7.76l21.88,71.82H406.84l-4.5-15.63H377.78l-4.73,15.63H354.81l22.73-72.76a16.52,16.52,0,0,1,4.26-7,11.06,11.06,0,0,1,7.76-3.18m-7.4,52.19h15.31L390.18,32l-8,35.49m7.42-59.19h0a18,18,0,0,0-12.66,5.18,23.6,23.6,0,0,0-6,10L348.13,96.25a7,7,0,0,0,6.68,9.08h18.24a7,7,0,0,0,6.69-5L383,89.7h14.09l3,10.57a7,7,0,0,0,6.73,5.06h18.23a7,7,0,0,0,6.69-9L409.89,24.5A23.9,23.9,0,0,0,403,13.57a19.87,19.87,0,0,0-13.45-5.23Z" fill="#fff"/><path d="M466.78,15.84V31.36H450.86V98.73H433V31.36H417V15.84h49.83m0-7H417a7,7,0,0,0-7,7V31.36a7,7,0,0,0,7,7H426V98.73a7,7,0,0,0,7,7h17.86a7,7,0,0,0,7-7V38.36h8.92a7,7,0,0,0,7-7V15.84a7,7,0,0,0-7-7Z" fill="#fff"/><path d="M493.89,15.34h0a12.94,12.94,0,0,1,8.75,3.41,16.93,16.93,0,0,1,4.87,7.76l21.87,71.82H511.16l-4.5-15.63H482.11l-4.74,15.63H459.14l22.73-72.76a16.5,16.5,0,0,1,4.25-7,11.1,11.1,0,0,1,7.77-3.18m-7.4,52.19H501.8L494.51,32l-8,35.49M493.9,8.34h0a18,18,0,0,0-12.67,5.18,23.68,23.68,0,0,0-6,10L452.46,96.25a7,7,0,0,0,6.68,9.08h18.23a7,7,0,0,0,6.7-5L487.3,89.7h14.09l3.05,10.57a7,7,0,0,0,6.72,5.06h18.23a7,7,0,0,0,6.7-9L514.22,24.5a23.9,23.9,0,0,0-6.86-10.93A19.88,19.88,0,0,0,493.9,8.34Z" fill="#fff"/><path d="M560.43,15.68a24.94,24.94,0,0,1,17.39,7.05q7.53,7.05,7.53,16.34A19.48,19.48,0,0,1,580.73,52a31.64,31.64,0,0,1-11.55,8.23L592,98.56H571.34L553,64.93c-.81-1.56-1.48-3-2-4.23a8.17,8.17,0,0,1-.78-2.94q0-5.41,8.68-8.87t8.7-8.64a9.86,9.86,0,0,0-2.5-6.24q-2.49-3-5.41-3H549.49V98.33H532.24V26.49q0-3.76,3.52-7.28c2.35-2.36,4.7-3.53,7-3.53h17.62m0-7H542.81c-4.27,0-8.31,1.88-12,5.58s-5.57,7.81-5.57,12.23V98.33a7,7,0,0,0,7,7h17.25a7,7,0,0,0,7-7V85.93l8.71,16a7,7,0,0,0,6.14,3.65H592A7,7,0,0,0,598,95L578.9,62.86a33.89,33.89,0,0,0,7.2-6.36A26.55,26.55,0,0,0,592.35,39c0-8.13-3.28-15.31-9.7-21.35a31.85,31.85,0,0,0-22.22-9ZM556.49,38h2.76a6.36,6.36,0,0,1,.44.48l.21.24a2.93,2.93,0,0,1,.65,1.29,11.8,11.8,0,0,1-4.06,2.35V38Z" fill="#fff"/><path d="M612.25,15.68v83h-18v-83h18m0-7h-18a7,7,0,0,0-7,7v83a7,7,0,0,0,7,7h18a7,7,0,0,0,7-7v-83a7,7,0,0,0-7-7Z" fill="#fff"/><path d="M665.47,15.49a81.18,81.18,0,0,1,11,.75,46,46,0,0,1,11.06,3.27V38.17c-4.36-1.93-5.58-3.4-8.75-4.41a31.49,31.49,0,0,0-9.53-1.51H669a15.8,15.8,0,0,0-7.86,2.09q-3.58,2.08-3.59,5.6,0,5.13,8.3,7.54c10.16,3,13.44,4.91,14.94,5.87q10,6.12,10,19.69,0,12.08-9.59,18.58-8.38,5.72-21.41,5.71h0a66.15,66.15,0,0,1-11.92-1.08A96.63,96.63,0,0,1,635,92.84V74.19c4.77,1.38,5.9,2.46,8.47,3.28q8.63,2.41,13.48,2.42,6.41,0,9.12-2.11c1.81-1.41,2.72-.45,2.72-2.55q0-4-9.71-7.17c-9.31-2.74-12.59-4.85-15-6.33-6.92-4.25-10.37-13.37-10.37-21.91q0-10.28,8.82-17.3t22.31-7h.61m0-7h-.64c-10.56,0-19.53,2.88-26.64,8.55-7.5,6-11.46,13.85-11.46,22.78,0,12,5.25,22.67,13.71,27.87l.09.06a45.08,45.08,0,0,0,6.31,3.38l-1.37-.37a17.62,17.62,0,0,1-1.81-.76,41.83,41.83,0,0,0-6.74-2.53,6.79,6.79,0,0,0-1.94-.28,7,7,0,0,0-7,7V92.84a7,7,0,0,0,4.74,6.62,101.26,101.26,0,0,0,13.8,3.66h.06a72.85,72.85,0,0,0,13.18,1.2l0-7v7c10.07,0,18.6-2.33,25.35-6.92,8.27-5.61,12.65-14,12.65-24.37,0-14.41-7.21-21.88-13.29-25.62-2.43-1.55-6.54-3.71-16.7-6.66a17,17,0,0,1-2.24-.81,8.74,8.74,0,0,1,3.44-.7h.23a24.4,24.4,0,0,1,7.39,1.17,12.64,12.64,0,0,1,2.81,1.39,45.57,45.57,0,0,0,5.27,2.76,7,7,0,0,0,9.83-6.4V19.51a7,7,0,0,0-4.19-6.41,52.52,52.52,0,0,0-12.75-3.77l-.17,0a88.72,88.72,0,0,0-12-.82Z" fill="#fff"/><path d="M750,18.17v19H733.47V98.32H708.63V37.14H692.1v-19H750m0-7H692.1a7,7,0,0,0-7,7v19a7,7,0,0,0,7,7h9.53V98.32a7,7,0,0,0,7,7h24.84a7,7,0,0,0,7-7V44.14H750a7,7,0,0,0,7-7v-19a7,7,0,0,0-7-7Z" fill="#fff"/><rect x="292.04" y="15.27" width="9.74" height="82.64" fill="#949494"/><path d="M250,98.08h1.62c20.66-.53,37.27-21.39,37.27-47V15.39h-6.48V39.71c0,23.6-14.07,43.13-32.41,46.51Z" fill="#949494"/><path d="M344,98.08h-1.62c-20.65-.53-37.26-21.39-37.26-47V15.39h6.48V39.71c0,23.6,14.06,43.13,32.4,46.51Z" fill="#949494"/><path d="M397.47,67.53,390.18,32l-8,35.49Zm27.6,30.8H406.84l-4.5-15.63H377.78l-4.73,15.63H354.81l22.73-72.76a16.52,16.52,0,0,1,4.26-7,11.08,11.08,0,0,1,7.77-3.18,13,13,0,0,1,8.76,3.41,17,17,0,0,1,4.86,7.76Z" fill="#5479b6"/><polygon points="466.79 31.36 450.87 31.36 450.87 98.73 433 98.73 433 31.36 416.95 31.36 416.95 15.84 466.79 15.84 466.79 31.36" fill="#5479b6"/><path d="M501.8,67.53,494.51,32l-8,35.49Zm27.59,30.8H511.16l-4.5-15.63H482.11l-4.74,15.63H459.14l22.73-72.76a16.5,16.5,0,0,1,4.25-7,11.1,11.1,0,0,1,7.78-3.18,12.94,12.94,0,0,1,8.75,3.41,16.93,16.93,0,0,1,4.87,7.76Z" fill="#5479b6"/><path d="M592,98.56H571.34L553,64.93c-.81-1.56-1.48-3-2-4.23a8.17,8.17,0,0,1-.78-2.94q0-5.41,8.68-8.87t8.7-8.64a9.86,9.86,0,0,0-2.5-6.24q-2.49-3-5.41-3H549.49V98.33H532.24V26.49q0-3.76,3.52-7.28c2.35-2.36,4.7-3.53,7-3.53h17.38a25,25,0,0,1,17.63,7.05q7.53,7.05,7.53,16.34A19.48,19.48,0,0,1,580.73,52a31.64,31.64,0,0,1-11.55,8.23Z" fill="#5479b6"/><rect x="594.27" y="15.68" width="17.99" height="83.01" fill="#5479b6"/><path d="M690.81,73q0,12.08-9.59,18.58-8.38,5.72-21.41,5.71a66.78,66.78,0,0,1-12-1.08A96.63,96.63,0,0,1,635,92.84V74.19c4.77,1.38,5.9,2.46,8.47,3.28q8.63,2.41,13.48,2.42,6.41,0,9.12-2.11c1.81-1.41,2.72-.45,2.72-2.55q0-4-9.71-7.17c-9.31-2.74-12.59-4.85-15-6.33-6.92-4.25-10.37-13.37-10.37-21.91q0-10.28,8.82-17.3t22.31-7a80.84,80.84,0,0,1,11.63.75,46,46,0,0,1,11.06,3.27V38.17c-4.36-1.93-5.58-3.4-8.75-4.41a31.49,31.49,0,0,0-9.53-1.51,15.9,15.9,0,0,0-8.11,2.09q-3.58,2.08-3.59,5.6,0,5.13,8.3,7.54c10.16,3,13.44,4.91,14.94,5.87Q690.82,59.47,690.81,73Z" fill="#949494"/><polygon points="750 37.14 733.47 37.14 733.47 98.32 708.63 98.32 708.63 37.14 692.1 37.14 692.1 18.17 750 18.17 750 37.14" fill="#949494"/></g></svg>