<svg id="Layer_1" data-name="Layer 1" xmlns="http://www.w3.org/2000/svg" viewBox="0 0 1000 114"><path d="M904.51,110.5a3.51,3.51,0,0,1-2.29-.86,3.51,3.51,0,0,1-4.74-.19l-6.94-7a3.49,3.49,0,0,1,0-5L901.11,87a3.48,3.48,0,0,1,1.76-1,3.54,3.54,0,0,1,1-1.76l2.12-2.12.21-.19a3.48,3.48,0,0,1,.85-3.58l2.71-2.72a3.52,3.52,0,0,1,4.89-.06L922,68.16c-3.82.31-8.69,1-11.66,1.51a3.81,3.81,0,0,1-.59,0,3.5,3.5,0,0,1-1.66-6.58c1.89-1,4.27-2.27,6.68-3.54s5.28-2.77,7.46-4c-2.58-2.21-6.63-5.35-9.4-7.49-8.69-6.72-9.4-7.27-9.28-9.55v-.12a3.52,3.52,0,0,1,3.17-3.2,2.06,2.06,0,0,1,.35,0c.86,0,1.13.08,6.56,2.2L893.26,17.06c-3.27-3.28-4.51-7-3.31-10a5.79,5.79,0,0,1,5.38-3.58h.12c1.75,0,4.49.66,7.59,3.77l23.88,23.87c-.1-1.29-.2-2.55-.26-3.79a3.49,3.49,0,0,1,2.46-3.53,3.67,3.67,0,0,1,1-.15,3.51,3.51,0,0,1,3,1.69c.75,1.25,1.44,2.53,2.1,3.76.89,1.65,1.75,3.26,2.74,4.74,1-3.83,1.71-7.58,2.43-11.47.48-2.67,1-5.42,1.62-8.28a3.49,3.49,0,0,1,2.62-2.74,3.27,3.27,0,0,1,.81-.1,3.48,3.48,0,0,1,3.12,1.92,3.44,3.44,0,0,1,.33,1h0c0,.12,0,.25.05.37h0v.25c0,3.43-.2,6.49-.38,9.45-.2,3.21-.38,6.17-.33,9.26a71.07,71.07,0,0,0,9.55-10.17,3.5,3.5,0,0,1,6.25,2.76s0,0,0,.05l18.9-18.9c3.11-3.11,5.85-3.76,7.59-3.76h.13A5.78,5.78,0,0,1,996,7.08c1.2,3,0,6.69-3.32,10L962,47.78a28,28,0,0,0,5.31.43c1.12,0,2.23,0,3.35-.07s2.36-.07,3.55-.07,2.32,0,3.34.12a3.5,3.5,0,0,1,.81,6.82c-2.26.73-5.22,1.55-8.07,2.34-2.12.59-4.81,1.33-7,2,2.22,1.5,5,3.25,6.88,4.42,1.44.9,2.81,1.76,3.94,2.5a3.5,3.5,0,0,1-1.84,6.43h-.89c-1,0-1.94,0-2.91-.07l3,3a3.5,3.5,0,0,1,4.89,0L979,78.39a3.5,3.5,0,0,1,1,2.48,3.43,3.43,0,0,1-.18,1.1l.21.2,2.11,2.11a3.56,3.56,0,0,1,1,1.77,3.47,3.47,0,0,1,1.76,1l2,2a3.51,3.51,0,0,1,4.75.18L995.47,93a3.5,3.5,0,0,1,.17,4.77,3.5,3.5,0,0,1-.19,4.74l-7,6.94a3.49,3.49,0,0,1-5,0L973,98.89a3.45,3.45,0,0,1-1-1.76,3.54,3.54,0,0,1-1.76-.95l-2.12-2.12-.19-.21a3.49,3.49,0,0,1-3.58-.85l-2.72-2.71a3.52,3.52,0,0,1-.06-4.89L950.77,74.56c.11,1.42.31,3.1.48,4.49.24,2.06.49,4.2.57,5.9a3.49,3.49,0,0,1-2.46,3.51,3.37,3.37,0,0,1-1,.16,3.49,3.49,0,0,1-3-1.67c-1-1.54-1.83-3.26-2.68-4.92s-1.72-3.34-2.58-4.71c-2.54,2.87-3.78,6-5.18,9.48-.35.89-.7,1.78-1.09,2.68a3.49,3.49,0,0,1-3.22,2.14,3.7,3.7,0,0,1-.8-.09,3.49,3.49,0,0,1-2.69-3.62c.1-1.64.15-3.48.15-5.39l-2.87,2.86a3.5,3.5,0,0,1,0,4.89L921.61,93a3.5,3.5,0,0,1-2.48,1,3.38,3.38,0,0,1-1.1-.18l-.2.21-2.11,2.11a3.46,3.46,0,0,1-1.77,1,3.42,3.42,0,0,1-1,1.77l-2,2a3.51,3.51,0,0,1,.84,2.28,3.45,3.45,0,0,1-1,2.47L907,109.47A3.47,3.47,0,0,1,904.51,110.5Z" fill="#333"/><path d="M990.53,7h.06c2.82,0,3.68,3.55-.34,7.57L921.85,83,917,78.14,928.9,66.25h0l6.6-6.6h0L938.16,57h0L943,52.16h0l2.72-2.72h0l12.86-12.86h0L985.42,9.74C987.35,7.8,989.17,7,990.53,7M895.45,7c1.37,0,3.19.81,5.12,2.74L930.84,40h0l9.43,9.43-4.83,4.84-39.7-39.7c-4-4-3.16-7.52-.35-7.57h.06m50,7.77h0m0,0c0,9.7-1.54,16.64-.09,26.34,6.18-6.15,10.7-9.54,15.24-15.69-.3,1.51-.59,3-.87,4.54L943,46.72,930.67,34.4c-.16-2.47-.39-4.9-.52-7.22,2.82,4.68,4.74,9.93,9.36,13.54,3.27-9,4-16.94,6-25.94m-38.36,24c.42,0,6.34,2.41,12.08,4.58l13.59,13.59-7.57,7.57a117.89,117.89,0,0,0-15.41,1.71c5.45-2.95,15-7.77,17.83-9.59,1.75-1.12-20.6-16.73-20.55-17.85h0m52.34,12a27.24,27.24,0,0,0,7.85,1c2.3,0,4.6-.14,6.9-.14,1,0,2,0,3.07.11-6.85,2.21-20.32,5.27-20.4,6.74s10.06,7.41,15.3,10.8h-.83c-2,0-4.07-.13-6.11-.27l-12-12,6.22-6.21m-8.93,8.93,9,9h0l9.5,9.5L964.14,83,945.68,64.52l4.84-4.83h0M943,67.18h0m0,0,4.23,4.23c-.39,2.6.88,9.64,1.07,13.71-2.65-4.3-4.86-10.34-7.94-12.9-6,4.83-7.37,10.17-9.79,15.9.16-2.54.2-5.58.11-8.62L943,67.18m-30.83,11,9.66,9.66-2.72,2.72-9.66-9.67,2.72-2.71h0m61.61,0h0m0,0h0l2.72,2.72-9.67,9.66-2.71-2.72h0l9.66-9.66m-65.39,6.48,7,6.94-2.12,2.12-6.94-7,2.11-2.11h0m69.16,0h0m0,0,2.12,2.12-7,6.94-2.11-2.11,6.94-7m-74,4.82h0m0,0,2.12,2.11-8.31,8.31,2.72,2.72,8.3-8.31,2.12,2.12L906,100.9l2.29,2.29L904.51,107l-2.29-2.29L900,107,893,100l10.57-10.57m78.83,0h0m0,0L986.9,94l2.29-2.29L993,95.49l-2.29,2.29L993,100,986,107,975.46,96.42l2.11-2.12,8.31,8.31,2.72-2.72-8.31-8.3,2.12-2.12M990.53,0c-2.4,0-6.1.83-10.06,4.79L965.16,20.1A6.73,6.73,0,0,0,963.44,19a6.84,6.84,0,0,0-2.82-.6A7,7,0,0,0,955,21.27a45.27,45.27,0,0,1-2.93,3.58l0-.38c.19-3,.38-6.12.39-9.66a7,7,0,0,0-6.22-7,6.81,6.81,0,0,0-.78,0,7,7,0,0,0-6.83,5.49c-.65,3-1.17,5.78-1.67,8.5-.15.81-.29,1.63-.45,2.43-.12-.21-.24-.42-.37-.63a7,7,0,0,0-11.95-.08L905.52,4.8c-4-4-7.66-4.79-10.07-4.79h-.18a9.23,9.23,0,0,0-8.57,5.77c-1.74,4.31-.21,9.45,4.09,13.75l13,13a7,7,0,0,0-3.73,5.66c0,.07,0,.13,0,.2-.19,3.84,2.41,6,4.93,8,1.52,1.24,3.55,2.82,5.71,4.49,1.43,1.11,3.38,2.62,5.26,4.1L913.2,56.5c-2.48,1.29-4.81,2.52-6.73,3.56a7,7,0,0,0,1.12,12.8,3.61,3.61,0,0,0-.35.33l-2.72,2.71a7,7,0,0,0-2,4.77l-1.12,1.12a7.18,7.18,0,0,0-1.17,1.55,6.94,6.94,0,0,0-1.55,1.17L888.06,95.08a7,7,0,0,0,0,9.9l7,6.94a7,7,0,0,0,5,2h0a7.09,7.09,0,0,1,4.55,0,6.94,6.94,0,0,0,5-2l3.81-3.81a7.06,7.06,0,0,0,1.89-6.47l.32-.31a7.43,7.43,0,0,0,1.17-1.55,7.12,7.12,0,0,0,1.54-1.17l1.13-1.13a6.93,6.93,0,0,0,4.76-2l2-2A6.92,6.92,0,0,0,929,94.94a7.34,7.34,0,0,0,1.6.18A7,7,0,0,0,937,90.84c.39-.92.75-1.84,1.12-2.74.57-1.43,1.09-2.74,1.65-3.94.8,1.55,1.63,3.14,2.55,4.63a7,7,0,0,0,13-4c0-.25,0-.5-.05-.76l2.08,2.07a7,7,0,0,0,1.84,6.67l2.71,2.72a7,7,0,0,0,4.77,2l1.12,1.12a7.61,7.61,0,0,0,1.55,1.17,7.18,7.18,0,0,0,1.17,1.55l10.57,10.57a7,7,0,0,0,9.9,0l6.94-7A7,7,0,0,0,1000,100a7.05,7.05,0,0,0-.36-2.24A7,7,0,0,0,998,90.54l-3.81-3.81a7,7,0,0,0-4.95-2h0a7,7,0,0,0-1.52.16l-.31-.32a7.43,7.43,0,0,0-1.55-1.17,7.12,7.12,0,0,0-1.17-1.54l-1.13-1.13a6.93,6.93,0,0,0-2-4.76l-2.58-2.58a7.57,7.57,0,0,0-.66-.61,7.15,7.15,0,0,0,.67-1.58,7,7,0,0,0-2.92-7.8c-1.17-.76-2.54-1.62-4-2.53l-.34-.22c2.76-.76,5.57-1.55,7.78-2.26A7,7,0,0,0,977.8,44.7c-1.1-.09-2.28-.13-3.6-.13s-2.48,0-3.66.07l-.48,0L995.2,19.52c4.3-4.3,5.83-9.44,4.08-13.75A9.21,9.21,0,0,0,990.75,0ZM945.47,21.78h0ZM943,74.18h0Z" fill="#fff"/><path d="M990.59,7c-1.37,0-3.21.78-5.17,2.74L958.57,36.59h0L945.71,49.44h0L943,52.16h0L938.15,57h0l-2.66,2.66h0l-6.6,6.6h0L917,78.14,921.85,83l68.4-68.4c4-4,3.16-7.52.34-7.57Zm-95.2,0c-2.81,0-3.67,3.55.35,7.57l39.7,39.7,4.83-4.84L930.84,40h0L900.57,9.75c-2-2-3.8-2.76-5.18-2.74Zm50.08,7.77c-2,9-2.69,16.94-6,25.94-4.62-3.61-6.54-8.86-9.36-13.54.13,2.32.36,4.75.52,7.22L943,46.72,959.75,30c.28-1.52.57-3,.87-4.54-4.54,6.15-9.06,9.54-15.24,15.69-1.45-9.7.06-16.64.09-26.34Zm-38.37,24h0c-.05,1.12,22.3,16.73,20.55,17.85-2.88,1.82-12.38,6.64-17.83,9.59a117.89,117.89,0,0,1,15.41-1.71l7.57-7.57L919.19,43.35c-5.77-2.19-11.73-4.61-12.09-4.58Zm52.35,12L953.23,57l12,12c2.32.16,4.63.3,6.94.26-5.24-3.39-15.37-9.34-15.3-10.8s13.55-4.53,20.4-6.74C971.33,51.22,965.32,52.5,959.45,50.76Zm-8.93,8.93-4.84,4.83L964.14,83,969,78.15l-9.5-9.5h0l-9-9ZM943,67.18,930.7,79.5c.09,3,0,6.08-.11,8.62,2.42-5.73,3.81-11.07,9.79-15.9,3.08,2.56,5.29,8.6,7.94,12.9-.19-4.07-1.46-11.11-1.07-13.71L943,67.18Zm-30.83,11-2.72,2.71,9.66,9.67,2.72-2.72-9.66-9.66Zm61.61,0-9.66,9.66h0l2.71,2.72,9.67-9.66-2.72-2.72Zm-65.39,6.48-2.11,2.11,6.94,7,2.12-2.12-7-6.94Zm69.16,0-6.94,7,2.11,2.11,7-6.94-2.12-2.12Zm-74,4.82L893,100l7,6.94,2.26-2.26,2.29,2.29,3.81-3.81L906,100.9l4.5-4.49-2.12-2.12-8.3,8.31-2.72-2.72,8.31-8.31-2.12-2.11Zm78.83,0-2.12,2.12,8.31,8.3-2.72,2.72-8.31-8.31-2.11,2.12L986,107,993,100l-2.26-2.26L993,95.49l-3.81-3.81L986.9,94l-4.49-4.5Z" fill="#333"/></svg>