<svg xmlns="http://www.w3.org/2000/svg" viewBox="0 0 1000 114"><g id="Layer_2" data-name="Layer 2"><rect x="900.94" y="22.13" width="83.4" height="70.47" fill="#fff" stroke="#333" stroke-miterlimit="10"/></g><g id="Layer_1" data-name="Layer 1"><path d="M943,110.5a74,74,0,0,1-10-.55,52.45,52.45,0,0,1-23.93-11,93.12,93.12,0,0,1-8.46-8.51A53.64,53.64,0,0,1,890,67c-.72-3.92-.72-16.08,0-20a52.57,52.57,0,0,1,11-23.93,89.66,89.66,0,0,1,8.52-8.47A53.22,53.22,0,0,1,933.08,4.08l3.06-.49A47.22,47.22,0,0,1,941,3.5h2.75c7.42.07,9.49.33,14.76,1.84a52.36,52.36,0,0,1,18.44,9.7,91.87,91.87,0,0,1,8.46,8.51A53.7,53.7,0,0,1,996,47c.73,3.92.73,16.08,0,20a53.68,53.68,0,0,1-10.53,23.41A92.53,92.53,0,0,1,976.93,99,52.57,52.57,0,0,1,953,110,75.36,75.36,0,0,1,943,110.5Zm6.61-12.64,1.2-.45A45.39,45.39,0,0,0,961.16,92L960,91.55c-1.77-.65-3.25-1.18-4.33-1.56l-.55.66a71.12,71.12,0,0,1-6.59,6.84ZM920.79,87.42c1.13.39,3.25,1.16,5.2,1.88l1.15.43c.44-1.13,1-2.59,1.61-4.32s1.22-3.33,1.7-4.64l-4.24-1.52-6.83-2.49a63,63,0,0,0,.55,6.71C920.08,84.4,920.44,86,920.79,87.42Zm19.1-11c1.89.73,4.53,1.7,6.23,2.32l6.9,2.52c1.35-2.1,3.44-5.69,4.87-8.52,1-1.9,2-4.1,2.72-5.81l-9.54-3.47-5.77-2.11C943.81,65.42,941.25,72.52,939.89,76.4Zm-30-10.85,2.81,1a89.75,89.75,0,0,1,3.58-15.79l-4.49-1.64-4.89-1.77-.06.22a52.37,52.37,0,0,0-1.69,16.27h0Zm60.15-3c1.89.67,4.42,1.59,5.76,2.08l3.56,1.3a51.8,51.8,0,0,0,1.74-16.46l-.31-.11c-1.37-.48-4.23-1.49-6.63-2.37l-.64-.24A100.74,100.74,0,0,1,970,62.54ZM925.65,46.39c4.13,1.52,11.29,4.1,15.34,5.54,1.46-4,4-11.1,5.33-15.09l-4.16-1.53-8.91-3.23,0,0a79.4,79.4,0,0,0-5.45,9.54C927.1,43.08,926.29,44.89,925.65,46.39Zm30.13-13.88c1.47.52,3.53,1.26,6.43,2.32l4.69,1.7a56.74,56.74,0,0,0-1.43-10.67c-1.21-.39-3.72-1.32-5.22-1.88l-1.16-.43c-.43,1.12-1,2.57-1.61,4.3S956.26,31.2,955.78,32.51ZM925.06,21.32l5.52,2a61.86,61.86,0,0,1,7.17-7.48c-.36-.15-.7-.28-1-.42-.2.09-.42.16-.64.24A43.38,43.38,0,0,0,925.06,21.32Z" fill="#333"/><path d="M941,7h2.73c7.16.07,8.86.29,13.81,1.71a49,49,0,0,1,17.18,9,91.35,91.35,0,0,1,8,8,50.45,50.45,0,0,1,9.83,21.86c.65,3.51.65,15.23,0,18.74a50.35,50.35,0,0,1-9.83,21.86,90.1,90.1,0,0,1-8,8,49.23,49.23,0,0,1-22.34,10.25,89.83,89.83,0,0,1-18.74,0,49.19,49.19,0,0,1-22.34-10.25,88.89,88.89,0,0,1-8-8,50.33,50.33,0,0,1-9.82-21.86c-.65-3.51-.65-15.23,0-18.74a49.19,49.19,0,0,1,10.25-22.34,88.78,88.78,0,0,1,8-8,49.37,49.37,0,0,1,21.86-9.78l3-.48c.25,0,2-.06,4.36-.06m-3.22,4.21a.35.35,0,0,0,.23-.07c.08-.06,0-.12-.21-.12h-.1c-.27,0-.34.07-.15.15a.59.59,0,0,0,.23,0m-6.14,16.12a6.17,6.17,0,0,0,1.52-1.63c2.57-3.44,8.24-8.82,11.12-10.55l.79-.48-2.83-1c-4.57-1.59-5.12-1.83-5.12-2.14a.36.36,0,0,0-.72,0c0,.17-.62.5-1.37.74a49.61,49.61,0,0,0-15.64,9c-1,.82-1.2,1.13-.93,1.27.6.36,12.9,4.78,13.18,4.78m25.13-8.69.87-2.29a18.85,18.85,0,0,0,.86-2.59c0-.14-.45-.43-1-.6a17.09,17.09,0,0,0-4.64-1,9.13,9.13,0,0,0-2.76.52A21.44,21.44,0,0,0,946,14.58a85.16,85.16,0,0,0,8.43,3.24l2.33.82m19.73,7.18-1.13-1.44a28.72,28.72,0,0,0-6.3-5.38c-1-.68-2.33-1.52-2.95-1.88L965,16.45,966.06,18a15.79,15.79,0,0,1,2.28,4.56c0,.17.67.53,1.52.82s2.64.93,4.06,1.46l2.57.94m-6.35,15.61.2-1.58a55.22,55.22,0,0,0-1.54-15.06l-.51-1.71-1.37-.43c-.74-.22-3.19-1.11-5.45-1.95s-4.2-1.53-4.32-1.53a76.66,76.66,0,0,0-3,7.49c-1.51,4.13-2.78,7.66-2.83,7.81a.21.21,0,0,0,.19.31c.19,0,4.44,1.51,9.47,3.34l9.12,3.31m-65.68,1,.22-.5a51.33,51.33,0,0,1,4.49-9.13,48.91,48.91,0,0,1,6.25-8.1l2-2.11-1.7-.63a15.61,15.61,0,0,0-2-.62c-.43,0-6,5.81-7.49,7.73a55.33,55.33,0,0,0-5.36,9.18,14.92,14.92,0,0,0-1,2.45c0,.05,1.08.46,2.3.91l2.21.82m83.72,5.47a.06.06,0,0,0,.05,0c.24-.21-1.65-6.15-2.81-8.86A50.88,50.88,0,0,0,978,26.9c-.31-.33-.5-.5-.56-.5s.15.44.73,1.34c2.88,4.54,5.21,11.08,6.41,18.11.15.82.24.92,1.88,1.52a9.68,9.68,0,0,0,1.77.52M943,56.33h0c.34-.31,7.79-21.41,7.62-21.55s-3.39-1.35-7.28-2.76-8.07-2.93-9.3-3.37l-2.21-.81-1.54,2.33a82.92,82.92,0,0,0-5.69,10,81.8,81.8,0,0,0-3.51,8.29c.17.14,21.64,7.9,21.91,7.9m38.64,14c.1,0,.14,0,.14-.07s.36-1.42.81-3a54.9,54.9,0,0,0,2-18l-.19-2.3-2.19-.75c-1.22-.43-4.3-1.51-6.84-2.45S970.7,42,970.65,42a6.62,6.62,0,0,0-.27,1.49A90.53,90.53,0,0,1,966,63.58l-.43,1.13,1.23.39c.67.21,4.2,1.49,7.83,2.81,5,1.83,6.64,2.4,7.07,2.4m-66,.94h0s.16-1.2.33-2.6a84.22,84.22,0,0,1,3.65-16.89,21,21,0,0,0,.89-3.14s-3.43-1.3-7.54-2.79-7.64-2.76-7.86-2.83L905,43c-.37,0-.56.55-1.48,3.58a55.63,55.63,0,0,0-1.83,17.54l.2,2.28,6.84,2.48c3.73,1.33,6.83,2.4,6.94,2.4m38.66,14.17.43-.5A89.7,89.7,0,0,0,961,74.3c1.87-3.7,4.27-9.25,4.1-9.42a20.48,20.48,0,0,0-2-.77l-10.88-4c-4.92-1.8-9-3.27-9-3.27s-7.62,20.88-7.64,21.29,1.7,1,9.32,3.84l9.37,3.41M909,86.91l-.88-1.37c-3-4.61-5.14-10.79-6.42-18.14-.14-.74-.29-.91-1.06-1.17-.48-.15-1.39-.48-2-.72l-1.13-.44.14.77c.07.41.48,2,.91,3.53a50.11,50.11,0,0,0,8.36,16.39,3.57,3.57,0,0,0,1.21.79l.88.36M973,92a.47.47,0,0,0,.19,0,58.35,58.35,0,0,0,6.56-7A55,55,0,0,0,985,75.86c1.58-3.56,1.63-3.2-.65-4L982,71a.23.23,0,0,0-.11,0c-.22,0-.42.36-.71,1.25a51.66,51.66,0,0,1-4.71,9.21,43,43,0,0,1-5.72,7.23l-2,2.09,2,.72A8.66,8.66,0,0,0,973,92m-43.87,2.13A78.26,78.26,0,0,0,932,86.6c1.52-4.11,2.79-7.64,2.86-7.81a.2.2,0,0,0-.19-.29c-.17,0-3.46-1.15-7.3-2.54l-9.18-3.34-2.19-.8-.14,2A61.29,61.29,0,0,0,916.48,84c.21,1.34.81,4,1.29,5.67.12.36.56.62,1.52.91.74.24,3.22,1.13,5.47,2s4.21,1.54,4.33,1.54m13.9,9.1a37.28,37.28,0,0,0,7.33-.6l.61-.14-.68-.24c-.36-.15-.62-.36-.6-.48A9.39,9.39,0,0,1,952,100.7a49.84,49.84,0,0,0,14.31-8.24c1.37-1.13,1.76-1.59,1.52-1.73s-3.2-1.22-6.68-2.47S954.75,86,954.65,86a19,19,0,0,0-2.24,2.45,60.21,60.21,0,0,1-9,8.77,10.19,10.19,0,0,0-1.73,1.37c-.05.19,2.81,1.32,6.65,2.59.65.24,1.11.92.61.92-.12,0-1,.16-2,.38a44.1,44.1,0,0,1-4.81.55l-3,.19,3.42,0H943M922.8,98.45c.19,0-.22-.47-1.06-1.38a16.29,16.29,0,0,1-3.63-5.69c-.26-.94-.43-1.08-1.39-1.42-.6-.19-2.14-.74-3.39-1.2s-2.55-.91-2.86-1l-.58-.17.58.8a39.31,39.31,0,0,0,9.44,8.5,17.48,17.48,0,0,0,2.89,1.57m8.24,3a16,16,0,0,0,2.4-.31,34.16,34.16,0,0,0,4.27-1.08c1.64-.63,2.72-1.25,2.5-1.42a26.71,26.71,0,0,0-2.74-1.08c-1.44-.55-3.84-1.42-5.33-1.92l-2.69-.94-1,2.67a27.67,27.67,0,0,0-1,2.93,4,4,0,0,0,1.68.77,6.21,6.21,0,0,0,1.86.38M941,0a39.4,39.4,0,0,0-5.35.13c-.35,0-1.76.27-3.14.5a56.08,56.08,0,0,0-25.11,11.22l0,0a95.29,95.29,0,0,0-9,9A56,56,0,0,0,886.6,46.38c-.81,4.36-.81,16.89,0,21.26a57,57,0,0,0,11.25,25l0,.06a93,93,0,0,0,9,9,56,56,0,0,0,25.52,11.73,94.55,94.55,0,0,0,21.27,0,56,56,0,0,0,25.52-11.74,95.08,95.08,0,0,0,9-9l0-.06a57,57,0,0,0,11.24-25c.81-4.37.81-16.9,0-21.28a57,57,0,0,0-11.24-25l0,0a95.29,95.29,0,0,0-9-9A56,56,0,0,0,959.47,2c-5.61-1.61-8-1.9-15.68-2Zm19.29,30.4c.16-.43.32-.88.49-1.33s.25-.7.37-1l1.35.49c.17.86.32,1.83.44,2.84l-2.65-1Zm-29.92,14c.2-.42.39-.84.58-1.23a69.88,69.88,0,0,1,3.75-6.83L941,38.59l.94.35c-.93,2.68-2,5.83-3,8.52l-8.53-3.08Zm44,16c.75-2.75,1.43-5.81,2-8.88l1.39.49a49.16,49.16,0,0,1-.86,9.3l-2.51-.91Zm-65.77,1A53.18,53.18,0,0,1,909.4,52l1.17.43,1.39.5c-.85,3-1.55,6-2.08,8.92l-1.33-.48Zm35.78,13c.95-2.66,2.08-5.81,3.06-8.52l2.48.9,4.82,1.76,1.17.42c-.36.76-.73,1.53-1.09,2.24-1,2-2.19,4.09-3.23,5.83l-4.23-1.54-3-1.09ZM923.76,84.76c-.17-.75-.31-1.42-.37-1.84s-.1-.65-.14-1l1.77.65.93.33c-.15.43-.31.87-.48,1.31l-.38,1.06-1.33-.48Z" fill="#fff"/></g></svg>