<?xml version="1.0" encoding="UTF-8" standalone="no"?>
<svg
   xmlns:dc="http://purl.org/dc/elements/1.1/"
   xmlns:cc="http://creativecommons.org/ns#"
   xmlns:rdf="http://www.w3.org/1999/02/22-rdf-syntax-ns#"
   xmlns:svg="http://www.w3.org/2000/svg"
   xmlns="http://www.w3.org/2000/svg"
   xmlns:sodipodi="http://sodipodi.sourceforge.net/DTD/sodipodi-0.dtd"
   xmlns:inkscape="http://www.inkscape.org/namespaces/inkscape"
   width="400"
   height="220.74825"
   version="1.1"
   id="svg61"
   sodipodi:docname="console.svg"
   inkscape:version="0.92.3 (2405546, 2018-03-11)">
  <metadata
     id="metadata65">
    <rdf:RDF>
      <cc:Work
         rdf:about="">
        <dc:format>image/svg+xml</dc:format>
        <dc:type
           rdf:resource="http://purl.org/dc/dcmitype/StillImage" />
      </cc:Work>
    </rdf:RDF>
  </metadata>
  <sodipodi:namedview
     pagecolor="#ffffff"
     bordercolor="#666666"
     borderopacity="1"
     objecttolerance="10"
     gridtolerance="10"
     guidetolerance="10"
     inkscape:pageopacity="0"
     inkscape:pageshadow="2"
     inkscape:window-width="1920"
     inkscape:window-height="1027"
     id="namedview63"
     showgrid="false"
     inkscape:zoom="2.5173001"
     inkscape:cx="195.17681"
     inkscape:cy="87.902212"
     inkscape:window-x="-8"
     inkscape:window-y="-8"
     inkscape:window-maximized="1"
     inkscape:current-layer="svg61" />
  <defs
     id="defs5">
    <clipPath
       id="a">
      <path
         d="M0 279.084h505.706V0H0v279.084z"
         id="path2" />
    </clipPath>
  </defs>
  <g
     clip-path="url(#a)"
     transform="matrix(0.79097456,0,0,-0.79097456,-2.3729237e-4,220.74827)"
     id="g59">
    <path
       fill="#bdbeb6"
       d="M480.8263.1879H24.5213S.0003-3.7351.0003 24.2719v175.553c0 1.54.915 2.932 2.329 3.543l9.347 4.035v63.072c0 1.161.645 2.226 1.674 2.764l11.171 5.845v-41.163l13.138-15.12v-72.245l-27.302-91.985v-31.501s-2.52-16.381 18.481-16.381h449.846s14.281-1.68 14.281 13.86v34.022l-23.589 91.985-.075 72.245 12.113 15.12-.008 41.163 11.474-5.685c.885-.439 1.446-1.342 1.446-2.33v-61.432l9.074-2.303c1.145-.291 1.947-1.322 1.947-2.503V32.6729s5.259-32.485-24.521-32.485"
       id="path7" />
    <path
       fill="#e4e6dc"
       d="M360.2375 267.8858c0 2.008-1.63 3.637-3.637 3.637h-204.065c-1.739 0-3.15-1.411-3.15-3.15v-11.206c-.008-.302 0-.487 0-.487v-18.759H24.5205v41.163h456.885l.009-41.163h-121.177v29.965z"
       id="path9" />
    <path
       fill="#d8dac5"
       d="M492.9637 58.5736v-34.02c0-15.55-14.28-13.87-14.28-13.87h-449.84c-21.01 0-18.49 16.39-18.49 16.39v31.5h482.61z"
       id="path11" />
    <path
       fill="#d4d4d0"
       d="M492.9637 58.5736h-482.61l27.31 91.98h431.71l23.59-91.98z"
       id="path13" />
    <path
       fill="#ddddd9"
       d="M149.3856 237.9213v-15.121H37.6596l-13.139 15.121h124.865zm332.0288 0l-12.113-15.121h-109.064v15.121h121.177z"
       id="path15" />
    <path
       fill="#e4e6dc"
       d="M469.3737 150.5536h-431.71v72.25h111.72v33.88s-.01.18 0 .48c.06 1.53.7 6.1 6.3 6.1h196.57s7.98.08 7.98-6.5v-33.96h109.07l.07-72.25z"
       id="path17" />
    <path
       fill="#d2d2d0"
       d="M360.2375 267.8858v-11.122c0 6.577-7.98 6.502-7.98 6.502h-196.572c-5.603 0-6.241-4.57-6.3-6.099v11.206c0 1.739 1.411 3.15 3.15 3.15h204.065c2.007 0 3.637-1.629 3.637-3.637"
       id="path19" />
    <path
       fill="#959995"
       d="M357.2937 254.3036v-93.81c0-2.24-1.81-4.06-4.05-4.06h-195.73c-2.25 0-4.07 1.82-4.07 4.06v93.81c0 2.24 1.82 4.06 4.07 4.06h195.73c2.24 0 4.05-1.82 4.05-4.06"
       id="path21" />
    <path
       fill="#7e7f80"
       d="M335.4561 224.6906v-19.531h-160.449v19.531c0 2.671 2.159 4.83 4.83 4.83h150.789c2.671 0 4.83-2.159 4.83-4.83m0-21.0012v-13.861c0-2.671-2.159-4.83-4.83-4.83h-150.789c-2.671 0-4.83 2.159-4.83 4.83v13.861h160.449z"
       id="path23" />
    <path
       fill="#252323"
       d="M335.456 203.957H175.007v2.127h160.449v-2.127z"
       id="path25" />
    <path
       fill="#e7e4b0"
       d="M141.824 153.494h-90.51v68.05h90.51v-68.05z"
       id="path27" />
    <path
       fill="#807e5a"
       d="M56.838 160.074h80.787v7.283H56.838v-7.283zm0 13.306h80.787v6.72H56.838v-6.72zm0 12.736h80.787v6.51H56.838v-6.51zm0 12.18h80.787v6.863H56.838v-6.863zm80.787 12.467H56.838v7.56h80.787v-7.56z"
       id="path29" />
    <path
       fill="#e6e3cf"
       d="M56.838 157.134h80.787v2.94H56.838v-2.94zm0 12.743h80.787v3.503H56.838v-3.503zm0 12.534h80.787v3.705H56.838v-3.705zm0 12.525h80.787v3.36H56.838v-3.36zm80.787 13.164H56.838v2.663h80.787V208.1z"
       id="path31" />
    <path
       fill="#e7e4b0"
       d="M458.174 153.494h-90.52v68.05h90.52v-68.05z"
       id="path33" />
    <path
       fill="#807e5a"
       d="M373.191 160.074h80.779v7.283h-80.779v-7.283zm0 13.306h80.779v6.72h-80.779v-6.72zm0 12.736h80.779v6.51h-80.779v-6.51zm0 12.18h80.779v6.863h-80.779v-6.863zm80.779 12.467h-80.779v7.56h80.779v-7.56z"
       id="path35" />
    <path
       fill="#e6e3cf"
       d="M373.191 157.134h80.779v2.94h-80.779v-2.94zm0 12.743h80.779v3.503h-80.779v-3.503zm0 12.534h80.779v3.705h-80.779v-3.705zm0 12.525h80.779v3.36h-80.779v-3.36zM453.97 208.1h-80.779v2.663h80.779V208.1z"
       id="path37" />
    <path
       fill="#26479e"
       d="M479.5237 62.7736h-453.84c-3.99 0-2.52 4.83-2.52 4.83l24.58 77.49h415.19s18.97-73.36 20.09-77.98c1.12-4.62-3.5-4.34-3.5-4.34"
       id="path39"
       style="fill:#000000" />
    <path
       fill="#d54955"
       d="M417.504 30.01h-40.045v23.244h40.045V30.01z"
       id="path41" />
    <path
       fill="#544044"
       d="M260.171 45.231h-9.459v4.729h9.459v-4.729z"
       id="path43" />
    <path
       fill="#ebebf2"
       d="M477.634 66.274H26.739v3.847h450.895v-3.847z"
       id="path45"
       style="fill:#bbbdbd;fill-opacity:1" />
    <path
       style="fill:#9a2025;stroke-width:0.79097456"
       d="M 31.269531 138.53906 L 29.042969 145.26367 L 371.26367 145.26367 L 369.39648 138.53906 L 31.269531 138.53906 z "
       transform="matrix(1.2642632,0,0,-1.2642632,3e-4,279.08391)"
       id="path47" />
    <path
       fill="#ebebf2"
       d="M467.0159 103.9337H39.5329l11.777 35.61h405.81l9.896-35.61z"
       id="path49"
       style="fill:#bbbdbd;fill-opacity:1" />
    <path
       fill="#9a2025"
       d="M83.3101 88.2984c1.627.001 3.255-.032 4.88.015.757.022.954-.235.921-.883-.03-.613.052-1.14-.936-1.127-2.857.037-5.715-.024-8.571.026-.967.016-1.338-.209-1.282-1.15.086-1.451.038-2.909.013-4.364-.01-.558.095-.876.833-.864 2.261.037 4.524.045 6.785.004.854-.015.869.416.828.967-.041.538.243 1.24-.815 1.227-1.269-.016-2.541.041-3.808-.015-.929-.04-.888.457-.882 1.039.005.565-.087 1.07.863 1.045 2.023-.053 4.048-.032 6.071-.008.662.007.911-.197.896-.823-.037-1.527-.034-3.055.006-4.582.018-.646-.203-.919-.937-.915-3.293.019-6.587-.013-9.88.014-1.251.01-2.193.851-2.218 2-.048 2.145-.044 4.292-.007 6.438.02 1.163.902 1.919 2.24 1.947 1.666.035 3.333.008 5 .009m-14.412.0008c1.588 0 3.18-.055 4.764.02.966.046.998-.4.981-1.055-.015-.614.059-1.115-.949-1.094-2.857.058-5.717.004-8.576.03-.775.007-1.246-.037-1.229-.968.016-.865.268-1.133 1.217-1.108 2.222.058 4.446.019 6.67.015 2.187-.004 2.858-.611 2.858-2.568-.001-.546.015-1.092.002-1.638-.031-1.269-.738-2.008-2.094-2.023-3.335-.036-6.671.007-10.006-.026-1.025-.011-.746.615-.775 1.112-.031.521-.094.997.796.985 2.938-.039 5.877-.001 8.816-.023.726-.006 1.192.041 1.148.911-.039.775-.048 1.321-1.167 1.296-2.38-.053-4.764-.013-7.146-.009-1.769.003-2.436.613-2.448 2.238-.004.582-.006 1.164.001 1.747.015 1.311.827 2.116 2.253 2.146 1.627.035 3.256.008 4.884.008v.004zm42.288-8.2956c1.347 0 2.694.023 4.04-.01.643-.016.925.144.908.786-.042 1.597-.042 3.195-.007 4.792.014.605-.277.736-.852.734-2.654-.011-5.308-.007-7.962.006-.58.003-.859-.16-.847-.751.031-1.597.031-3.195-.007-4.792-.016-.649.293-.793.925-.777 1.266.032 2.534.009 3.802.012m.131 8.328c1.588 0 3.176.027 4.763-.008 1.402-.031 2.231-.751 2.262-2.033.05-2.074.052-4.15-.005-6.223-.038-1.405-.945-2.113-2.703-2.16-1.706-.046-3.414-.011-5.122-.011-1.231 0-2.463-.039-3.692.012-1.847.076-2.63.861-2.634 2.555-.005 1.82-.018 3.64.006 5.46.022 1.699.752 2.379 2.598 2.414 1.508.029 3.018.006 4.527.006v-.012m15.1829-8.329c1.351 0 2.702.023 4.052-.01.623-.016.832.18.82.75-.032 1.601-.039 3.204 0 4.806.014.602-.16.838-.857.831-2.621-.029-5.244-.021-7.865 0-.656.005-.912-.196-.898-.821.038-1.601.033-3.204.004-4.806-.01-.557.177-.778.812-.761 1.309.035 2.621.01 3.932.011m.18 8.347c1.507 0 3.015.012 4.522-.003 1.538-.017 2.383-.682 2.437-2.103.077-2.034.076-4.073.008-6.107-.046-1.386-.93-2.097-2.461-2.106-3.094-.018-6.188-.02-9.282.001-1.621.011-2.411.729-2.434 2.212-.03 1.963-.034 3.927 0 5.89.024 1.455.859 2.195 2.45 2.216 1.587.021 3.173.005 4.76.005v-.005zm15.133-8.3477c1.307 0 2.615.026 3.921-.011.666-.019.902.182.887.804-.038 1.596-.029 3.194-.002 4.792.009.532-.129.795-.781.79-2.694-.021-5.387-.017-8.08.003-.563.004-.766-.179-.759-.693.023-1.67.025-3.341.002-5.01-.007-.527.224-.692.772-.682 1.346.022 2.693.007 4.04.007m-.029-1.978c-1.548 0-3.097-.025-4.645.008-1.564.033-2.333.729-2.357 2.168-.034 2.001-.035 4.004.006 6.004.031 1.484.767 2.134 2.354 2.142 3.136.015 6.273.013 9.409.006 1.39-.004 2.229-.595 2.287-1.866.098-2.179.103-4.367.006-6.546-.055-1.251-.879-1.858-2.296-1.897-1.586-.044-3.175-.01-4.764-.01v-.009zm-41.6621 6.1201c.001-1.091.036-2.184-.012-3.274-.029-.657.199-.95.939-.877.353.035.723-.042 1.069.016 1.224.203 1.354-.402 1.294-1.303-.041-.612-.269-.825-.929-.818-2.262.024-4.525.04-6.786-.004-.918-.017-.902.467-.907 1.05-.006.589-.009 1.03.902 1.05 2.288.049 2.287.092 2.287 2.226 0 1.091-.03 2.184.009 3.274.023.616-.227.873-.892.833-.355-.022-.714-.004-1.071-.001-1.125.009-1.63.752-1.191 1.7.153.329.424.278.685.279 1.27.008 2.541-.022 3.81.016.66.019.808-.257.799-.784-.022-1.127-.007-2.255-.006-3.383m-8.0717-1.7071c-.315 0-.632.022-.944-.005-.709-.06-1.074.109-1.067.872.006.722.271.969 1.031.905.547-.047 1.102.002 1.652-.017.645-.022 1.42.283 1.424-.852.004-1.092-.711-.886-1.388-.896-.236-.004-.472-.001-.708-.001v-.006z"
       id="path51"
       style="fill:#d6a763;fill-opacity:1" />
    <path
       fill="#fff"
       d="M167.3121 78.6168c-.773-.374-1.782-.561-3.027-.561-1.624 0-2.902.477-3.832 1.432-.93.955-1.395 2.227-1.395 3.817 0 1.694.523 3.067 1.569 4.12 1.046 1.054 2.403 1.58 4.071 1.58 1.034 0 1.905-.13 2.614-.391v-2.296c-.709.423-1.516.635-2.422.635-.994 0-1.796-.313-2.407-.938-.61-.625-.915-1.472-.915-2.54 0-1.024.288-1.839.864-2.447.576-.608 1.351-.912 2.325-.912.931 0 1.782.226 2.555.679v-2.178zm5.2791 5.5817c-.551 0-.98-.189-1.285-.569-.305-.379-.457-.915-.457-1.609 0-1.452.585-2.178 1.757-2.178 1.117 0 1.676.746 1.676 2.237 0 1.413-.564 2.119-1.691 2.119m-.059-6.143c-1.26 0-2.25.353-2.971 1.06-.721.706-1.082 1.665-1.082 2.875 0 1.251.374 2.229 1.122 2.935.748.707 1.759 1.06 3.034 1.06 1.255 0 2.24-.353 2.954-1.06.713-.706 1.07-1.64 1.07-2.802 0-1.255-.367-2.247-1.103-2.975-.736-.729-1.744-1.093-3.024-1.093m17.6458.1847h-2.326v4.312c0 1.097-.403 1.646-1.211 1.646-.383 0-.696-.165-.937-.494-.241-.33-.362-.741-.362-1.233v-4.231h-2.333v4.356c0 1.068-.396 1.602-1.189 1.602-.399 0-.717-.157-.956-.472-.238-.315-.358-.744-.358-1.285v-4.201h-2.333v7.56h2.333v-1.181h.03c.241.404.579.732 1.015.986.436.253.912.38 1.428.38 1.068 0 1.799-.47 2.193-1.41.576.94 1.423 1.41 2.54 1.41 1.644 0 2.466-1.014 2.466-3.042v-4.703zm4.142 3.9796v-.605c0-.522.138-.948.413-1.278.276-.33.638-.494 1.086-.494.531 0 .944.205 1.237.616.293.411.439.993.439 1.746 0 1.329-.517 1.994-1.551 1.994-.477 0-.867-.181-1.17-.543-.302-.362-.454-.84-.454-1.436m.066-3.101h-.029v-4.356h-2.333v11.038h2.333v-1.137h.029c.576.881 1.386 1.321 2.43 1.321.979 0 1.736-.335 2.27-1.007.534-.672.801-1.587.801-2.743 0-1.26-.311-2.272-.934-3.035-.622-.763-1.451-1.144-2.484-1.144-.911 0-1.605.354-2.083 1.063m14.1984-.8786h-2.326v1.152h-.037c-.576-.891-1.346-1.337-2.311-1.337-1.752 0-2.628 1.061-2.628 3.183v4.562h2.326v-4.356c0-1.068.423-1.602 1.27-1.602.418 0 .753.147 1.004.439.251.293.376.691.376 1.193v4.326h2.326v-7.56zm6.5342.0886c-.345-.182-.864-.273-1.558-.273-1.644 0-2.466.854-2.466 2.562v3.463h-1.225v1.72h1.225v1.632l2.326.664v-2.296h1.698v-1.72h-1.698v-3.057c0-.788.312-1.181.938-1.181.246 0 .499.071.76.214v-1.728zm5.9435 4.4595c0 1.083-.438 1.624-1.314 1.624-.374 0-.698-.155-.971-.465-.273-.31-.439-.696-.498-1.159h2.783zm2.163-1.432h-4.932c.079-1.098.771-1.647 2.075-1.647.832 0 1.563.197 2.193.591v-1.684c-.699-.374-1.607-.561-2.725-.561-1.22 0-2.168.339-2.842 1.016-.674.676-1.012 1.62-1.012 2.831 0 1.255.365 2.249 1.093 2.983.729.733 1.624 1.1 2.688 1.1 1.102 0 1.955-.327 2.558-.982.603-.655.904-1.543.904-2.665v-.982zm6.3203 2.3401c-.281.153-.608.229-.982.229-.507 0-.903-.186-1.189-.558-.285-.371-.428-.877-.428-1.517v-3.61h-2.333v7.56h2.333v-1.403h.03c.369 1.024 1.033 1.536 1.993 1.536.246 0 .438-.029.576-.088v-2.149zm14.3013 5.1314l-3.647-10.588h-2.703l-3.603 10.588h2.57l2.207-7.368c.118-.399.19-.751.214-1.056h.045c.034.33.111.691.229 1.085l2.192 7.339h2.496zM247.221 78.24h-2.333v7.56h2.333v-7.56zm-1.152 8.757c-.394 0-.716.117-.967.35-.251.234-.377.521-.377.861 0 .349.126.635.377.856.251.222.573.332.967.332.399 0 .723-.11.971-.332.249-.221.373-.507.373-.856 0-.355-.124-.645-.373-.872-.248-.226-.572-.339-.971-.339m8.225-5.0799v.569c0 .492-.143.9-.428 1.225-.286.325-.657.487-1.115.487-.517 0-.921-.203-1.211-.609-.29-.406-.436-.963-.436-1.672 0-.664.141-1.176.421-1.536.281-.359.67-.539 1.167-.539.472 0 .858.19 1.156.569.298.379.446.881.446 1.506m2.289-3.677h-2.333v1.041h-.03c-.531-.817-1.312-1.225-2.34-1.225-.945 0-1.706.333-2.282 1-.576.667-.864 1.598-.864 2.795 0 1.25.318 2.251.953 3.005.635.753 1.467 1.129 2.495 1.129.975 0 1.654-.349 2.038-1.048h.03v4.496h2.333v-11.193zm6.593 4.5482c0 1.083-.438 1.624-1.314 1.624-.374 0-.698-.155-.971-.465-.273-.31-.439-.696-.498-1.159h2.783zm2.163-1.432h-4.932c.079-1.098.771-1.647 2.075-1.647.832 0 1.563.197 2.193.591v-1.684c-.699-.374-1.607-.561-2.725-.561-1.22 0-2.168.339-2.842 1.016-.674.676-1.012 1.62-1.012 2.831 0 1.255.365 2.249 1.093 2.983.729.733 1.624 1.1 2.688 1.1 1.102 0 1.955-.327 2.558-.982.603-.655.904-1.543.904-2.665v-.982zm5.0504 2.8422c-.551 0-.98-.189-1.285-.569-.305-.379-.457-.915-.457-1.609 0-1.452.585-2.178 1.757-2.178 1.117 0 1.676.746 1.676 2.237 0 1.413-.564 2.119-1.691 2.119m-.059-6.143c-1.26 0-2.25.353-2.971 1.06-.722.706-1.082 1.665-1.082 2.875 0 1.251.374 2.229 1.122 2.935.748.707 1.759 1.06 3.034 1.06 1.255 0 2.24-.353 2.954-1.06.713-.706 1.07-1.64 1.07-2.802 0-1.255-.367-2.247-1.103-2.975-.736-.729-1.744-1.093-3.024-1.093m18.7312.8935c-1.034-.596-2.318-.893-3.854-.893-1.703 0-3.045.471-4.027 1.414-.982.942-1.474 2.24-1.474 3.894 0 1.664.537 3.02 1.61 4.068 1.073 1.049 2.5 1.573 4.282 1.573 1.123 0 2.112-.155 2.968-.465v-2.237c-.817.472-1.816.708-2.997.708-.99 0-1.795-.321-2.418-.963-.623-.642-.934-1.5-.934-2.573 0-1.088.279-1.93.838-2.525.559-.596 1.313-.894 2.263-.894.571 0 1.024.082 1.358.244v2.067h-2.119v1.905h4.504v-5.323zm5.9288 2.3627v.509l-1.373-.177c-.758-.098-1.137-.44-1.137-1.026 0-.266.092-.484.277-.653.185-.17.434-.255.749-.255.438 0 .795.151 1.071.454.275.303.413.685.413 1.148m2.193-3.071h-2.208v1.085h-.029c-.507-.847-1.258-1.27-2.252-1.27-.734 0-1.31.208-1.731.624-.421.416-.632.971-.632 1.665 0 1.467.869 2.313 2.606 2.54l2.053.273c0 .827-.448 1.24-1.344 1.24-.901 0-1.757-.268-2.569-.805v1.758c.325.167.769.315 1.333.443s1.076.192 1.539.192c2.156 0 3.234-1.076 3.234-3.227v-4.518zm13.8507-.0005h-2.326v4.312c0 1.097-.403 1.646-1.211 1.646-.383 0-.696-.165-.937-.494-.241-.33-.362-.741-.362-1.233v-4.231h-2.333v4.356c0 1.068-.396 1.602-1.189 1.602-.399 0-.717-.157-.956-.472-.238-.315-.358-.744-.358-1.285v-4.201h-2.333v7.56h2.333v-1.181h.03c.241.404.579.732 1.015.986.436.253.912.38 1.428.38 1.068 0 1.799-.47 2.193-1.41.576.94 1.423 1.41 2.54 1.41 1.644 0 2.466-1.014 2.466-3.042v-4.703zm6.4751 4.5481c0 1.083-.438 1.624-1.314 1.624-.374 0-.698-.155-.971-.465-.273-.31-.439-.696-.498-1.159h2.783zm2.163-1.432h-4.932c.079-1.098.771-1.647 2.075-1.647.832 0 1.563.197 2.193.591v-1.684c-.699-.374-1.607-.561-2.725-.561-1.22 0-2.168.339-2.842 1.016-.674.676-1.012 1.62-1.012 2.831 0 1.255.365 2.249 1.093 2.983.729.733 1.624 1.1 2.688 1.1 1.102 0 1.955-.327 2.558-.982.603-.655.904-1.543.904-2.665v-.982z"
       id="path53"
       style="fill:#bbbdbd;fill-opacity:1" />
    <path
       fill="#28479f"
       d="M216.1178 125.6644c0 1.087.39 2.026 1.171 2.817.781.791 1.873 1.186 3.277 1.186h10.674v-3.558h-10.674c-.593 0-.89-.148-.89-.445 0-.297.297-.445.89-.445h2.668c2.037 0 3.88-.825 5.531-2.476 1.65-1.65 2.475-3.642 2.475-5.975 0-2.312-.825-4.299-2.475-5.96-1.651-1.66-3.494-2.49-5.531-2.49h-11.564v3.558h10.675c1.641 0 2.94.484 3.899 1.453.959.968 1.438 2.115 1.438 3.439 0 1.345-.479 2.496-1.438 3.455-.959.959-2.258 1.438-3.899 1.438h-1.779c-1.404 0-2.496.39-3.277 1.171-.781.781-1.171 1.725-1.171 2.832m-4.448 0c0 2.313.826 4.3 2.476 5.96 1.651 1.661 3.494 2.491 5.53 2.491h11.564v-3.558h-10.674c-1.641 0-2.941-.485-3.899-1.453-.959-.969-1.439-2.116-1.439-3.44 0-1.344.48-2.496 1.439-3.454.958-.959 2.258-1.439 3.899-1.439h1.779c1.403 0 2.496-.39 3.276-1.171.781-.781 1.172-1.725 1.172-2.832 0-1.087-.391-2.026-1.172-2.817-.78-.79-1.873-1.186-3.276-1.186h-10.675v3.559h10.675c.593 0 .889.148.889.444 0 .297-.296.445-.889.445h-2.669c-2.036 0-3.879.826-5.53 2.476-1.65 1.651-2.476 3.642-2.476 5.975m25.7973-4.8926h11.564v-3.558h-8.006c0-.593.297-.89.89-.89h9.785v-3.558h-10.675c-2.372 0-3.558 1.186-3.558 3.558v4.448zm0 .89v4.447c0 2.372 1.186 3.559 3.558 3.559h10.675v-3.559h-9.785c-.593 0-.89-.296-.89-.889h8.006v-3.558h-11.564zm-4.448 4.447c0 5.338 2.669 8.006 8.006 8.006h10.675v-3.558h-10.675c-2.965 0-4.448-1.482-4.448-4.448v-9.785c0-2.965 1.483-4.448 4.448-4.448h10.675v-3.558h-10.675c-5.337 0-8.006 2.669-8.006 8.006v9.785zm24.9078.0003c0 2.372 1.186 3.558 3.558 3.558h10.675v-3.558h-9.785c-.593 0-.89-.297-.89-.89v-8.006c0-.593.297-.889.89-.889h1.779v.889h-1.779v3.559h5.337v-8.006h-6.227c-2.372 0-3.558 1.186-3.558 3.558v9.785zm-4.448 0c0 5.337 2.669 8.006 8.006 8.006h10.675v-3.558h-10.675c-2.965 0-4.448-1.483-4.448-4.448v-9.785c0-2.965 1.483-4.448 4.448-4.448h7.117v9.785h-6.227v3.558h9.785v-16.901h-10.675c-5.337 0-8.006 2.669-8.006 8.006v9.785z"
       id="path55" />
    <path
       fill="#28479f"
       d="M284.0206 120.4753l-1.631-4.151h3.262l-1.631 4.151zm-2.224-7.709v1.927l-2.52-6.375h-3.559l7.71 20.756c.099.395.296.593.593.593s.494-.198.593-.593l6.227-16.308h-9.044zm0-.89h10.527l-7.117 18.088c-.198.395-.593.593-1.186.593-.494 0-.89-.198-1.186-.593l-8.006-21.646h-3.558l8.302 22.832c.989 1.976 2.471 2.965 4.448 2.965 2.273 0 3.756-.989 4.448-2.965l8.599-22.832h-15.271v3.558z"
       id="path57" />
  </g>
  <path
     style="fill:#d6a763;fill-opacity:1;stroke-width:0.38864654"
     d="M 31.269531 138.53906 L 30.175781 141.84375 L 157.29102 141.84375 L 157.28711 141.85352 L 325.4375 141.85352 L 325.43555 141.84375 L 370.31445 141.84375 L 369.39648 138.53906 L 203.25781 138.53906 L 203.25391 138.54883 L 197.41016 138.54883 L 197.4082 138.53906 L 31.269531 138.53906 z "
     id="path47-6" />
</svg>
