<svg xmlns="http://www.w3.org/2000/svg" viewBox="-51 295.6 30 30">
  <path fill="#17569b" d="M-50.92005335 324.64060512h12.38222218c5.0711111 0 9.17777774-4.10666665 9.17777774-9.17777775s-4.10666665-9.14666663-9.17777774-9.14666663h-3.23555555c-.24888888 0-.46666666-.21777778-.46666666-.46666667 0-.28.21777778-.49777777.46666666-.49777777h12.35111107l.0311111-3.85777777H-41.7733867c-2.39555554 0-4.32444442 1.9288889-4.32444442 4.32444443 0 2.42666666 1.92888888 4.38666665 4.32444442 4.38666665h3.23555555c2.89333332 0 5.25777776 2.36444446 5.25777776 5.25777778 0 2.89333332-2.36444444 5.22666665-5.25777776 5.22666665h-12.38222218v3.9511111z"/>
  <path fill="#17569b" d="M-50.92005335 319.7872718h12.38222218c2.42666666 0 4.35555554-1.96 4.35555554-4.35555554 0-2.39555555-1.92888888-4.35555554-4.35555554-4.35555554h-3.23555555c-2.89333332 0-5.22666664-2.39555555-5.22666664-5.28888887s2.33333332-5.22666665 5.22666664-5.22666665h12.38222218l-.0311111-3.91999998h-12.35111108c-5.0711111 0-9.14666663 4.10666665-9.14666663 9.17777774 0 5.0711111 4.10666665 9.14666664 9.14666663 9.14666664h3.20444444c.2488889 0 .46666666.21777777.46666666.46666666 0 .2488889-.21777777.46666667-.46666666.46666667h-12.35111107v3.88888887z"/>
</svg>
