<svg xmlns="http://www.w3.org/2000/svg" viewBox="0 0 1000 114"><title>logo</title><g id="Layer_2" data-name="Layer 2"><rect x="296.87" y="43.56" width="30.3" height="28.64" fill="#fff"/><rect x="367.11" y="41.73" width="19.18" height="12.58" fill="#fff"/><rect x="464.69" y="53.92" width="25.51" height="21.9" fill="#fff"/></g><g id="Calque_1" data-name="Calque 1"><path d="M344.37,28.12a1,1,0,0,1,.15,1.92c-32.19,5.06-52.47,15.71-52.95,27.8-.28,7.16,6.67,14.56,19.58,20.83a1,1,0,0,1-.42,1.84h0a1,1,0,0,1-.42-.09c-13.84-6.73-21-14.56-20.68-22.66.27-6.67,5.71-13,15.74-18.21,9.53-5,23-8.92,38.85-11.42h.15m0-7a8.48,8.48,0,0,0-1.23.09c-16.64,2.62-30.81,6.81-41,12.13C286.48,41.53,282.89,51,282.64,57.48c-.31,7.73,3.71,19.08,24.61,29.24l.14.06a8,8,0,0,0,6.83-14.4c-11.74-5.7-15.77-11.25-15.65-14.27.21-5.35,13.16-15.83,47-21.15a8,8,0,0,0-1.23-15.84Z" fill="#fff"/><path d="M399.22,25.48h0a284.43,284.43,0,0,1,32.3,3.35,1,1,0,0,1,.81,1.11,1,1,0,0,1-1,.82h-.16a280.82,280.82,0,0,0-32.08-3.34,1,1,0,0,1,0-1.93m0-7a8,8,0,0,0-.35,15.93,273.88,273.88,0,0,1,31.27,3.25l.33,0a7.42,7.42,0,0,0,.94.06h0a8,8,0,0,0,1.28-15.84,291.41,291.41,0,0,0-33.1-3.43Z" fill="#fff"/><path d="M441.56,30.84l.19,0c16.26,3.44,29.91,8.26,39.47,13.92,10.07,6,15.28,12.72,15.06,19.54C496,73.55,485.8,81.56,467.57,87.6c-17.61,5.84-41.28,8.65-66.71,8.65h-.81c.27,0,.54-.57.81-.57,51.95,0,92.94-13.79,93.48-31.14.19-6.07-4.69-12.38-14.11-18S457.4,36.21,441.35,32.81a1,1,0,0,1-.75-1.19,1,1,0,0,1,1-.78m0-7a8,8,0,0,0-1.85,15.78l.19,0c15.2,3.22,27.91,7.7,36.76,12.94,8,4.74,10.76,9.16,10.68,11.73-.12,3.76-6.13,10.12-22.68,15.65-16.8,5.61-39.45,8.7-63.8,8.7a7.29,7.29,0,0,0-4.79,1.81,7,7,0,0,0,4,12.76h.81c27.32,0,51.15-3.11,68.91-9C491.62,87,502.89,77,503.27,64.54c.22-6.64-2.82-16.5-18.48-25.78-10.22-6-24.6-11.15-41.59-14.75l-.14,0a8.29,8.29,0,0,0-1.5-.14Z" fill="#fff"/><path d="M444.07,27,418.44,46.51l2.7,12.21-8.46-8.81-30.1,12,25.63-19.54-2.7-12.19L414,39l30.1-12m0-7a7,7,0,0,0-2.6.5L415.75,30.75l-5.19-5.4a7,7,0,0,0-11.88,6.36l1.73,7.83L378.34,56.36a7,7,0,0,0,6.84,12.07L410.9,58.16l5.19,5.4A7,7,0,0,0,428,57.2l-1.73-7.83,22.07-16.82A7,7,0,0,0,444.07,20Zm0,14Z" fill="#fff"/><path d="M463.65,52.4c.75,0,1.21.64,1,1.52a2.54,2.54,0,0,1-1.92,2l-11.22,1.79.13-.69a4.36,4.36,0,0,1,3.1-3.23l1.16-.18,4.6-.73,2.88-.46.23,0m0-7a8.78,8.78,0,0,0-1.35.11l-2.87.46-4.58.73-1.16.18a5.85,5.85,0,0,0-.75.16,11.36,11.36,0,0,0-8.08,8.39c0,.12-.05.23-.07.34l-.13.69a7,7,0,0,0,6.89,8.25,6.8,6.8,0,0,0,1.1-.09l11.22-1.78.55-.11a9.6,9.6,0,0,0,7.14-7.45V55.2a8.38,8.38,0,0,0-1.72-6.91,8.06,8.06,0,0,0-6.2-2.89Z" fill="#fff"/><path d="M396.63,63.47h0m0,0L394.3,76l-10.88,1.73a5.91,5.91,0,0,1-.78.07c-1.25,0-1.63-.71-1.32-2.36l1.33-7.14a3.27,3.27,0,0,1,3.1-3.11l10.88-1.72m-9.74,8.73a15.9,15.9,0,0,0,1.8-.29l1.71-.27.53-2.84-1.71.27c-1.83.29-2.51,0-2.87,1.84-.17,1,0,1.29.54,1.29m9.74-15.73h-.23a7.89,7.89,0,0,0-1,.11l-10.49,1.66a10.26,10.26,0,0,0-9.22,9.11l-1.27,6.81a9,9,0,0,0,1.69,7.71,8.28,8.28,0,0,0,6.52,2.93,11.37,11.37,0,0,0,1.88-.16l10.87-1.72a7,7,0,0,0,5.79-5.64L403.47,65a7.51,7.51,0,0,0,.16-1.51,7,7,0,0,0-6.9-7Zm0,14Z" fill="#fff"/><path d="M374.58,12.87c5.08,0,8.63,4.53,7.58,10.16l-1.64,8.84C379.38,38,373,44.54,367.14,45.47L356.22,47.2l-2.44,13.11,15-2.38c.22,0,.44,0,.67,0A8.76,8.76,0,0,1,376,60.83a15.22,15.22,0,0,1,8.73-5.22l4.06-.68-7,5.36,0,.36A7.56,7.56,0,0,0,377.84,66l-2.49,13.4c-.53,2.81.7,4.55,3.1,4.55a5.78,5.78,0,0,0,.9-.08l13.89-2.2-.58,3.09c-.91,4.9-6.18,9.6-10.87,10.34l-5.33.85-1.07,5.69,7-1.11c6.85-1.09,14.58-8,15.92-15.24l5.3-28.49-.14,0-8.33,1.32,17.58-6.35,4.88,5.76-3.88,20.87,5.93-.94,3.39-18.23,10.33-1.65a6.2,6.2,0,0,1,.79-.07c1.25,0,1.62.71,1.32,2.35L432.6,75.46l5.4-.86s3.85-20.54,4-21a2.9,2.9,0,0,0-3.11-2.31,5.72,5.72,0,0,0-.9.07L423,53.76l-1.87-4.13L437.76,47q.35,0,.69,0a8.76,8.76,0,0,1,6.08,2.45,13.87,13.87,0,0,1,7.7-4.72l15-2.38a6.58,6.58,0,0,1,1-.07c3.51,0,9.23,2.34,8.05,9.34l-.41,2.06a13.3,13.3,0,0,1-2.94,5.64l1.69,1.21L472.19,73.6l-26.1,4.14a6.6,6.6,0,0,1-1.17.1,7.11,7.11,0,0,1-2.72-.55l-.2,1.1-15.1,2.39L430,64.1c.23-1.22.42-1.54.08-1.54s-.61.12-1.32.23l-1.7.27L423.67,81.3l-21,3.33c-2.11,10.64-8.67,19.55-25.94,21.26l-7,1.11,2.87-15.39,5.33-.84c4.69-.74,7.76-1.32,8.19-3.65L374.43,89h-.2a6.6,6.6,0,0,1-1.16-.11l-.09.5-15.1,2.39L361,75.05c.23-1.22.42-1.54.08-1.54s-.61.12-1.31.23L358,74l-3.4,18.24L312.72,98.9a4.38,4.38,0,0,1-.5,0c-1.57,0-2.54-1.28-2.21-3.07l8.21-44.17a5.35,5.35,0,0,1,4-4.09l22-3.49,5.08-27.35L373.17,13a8.54,8.54,0,0,1,1.41-.11m-16.35,23.5,7.55-1.2a2.37,2.37,0,0,0,1.94-2l1.37-7.41c.18-.94-.21-1.48-1-1.48l-.31,0-7.55,1.21-2,10.82m90.11,36.54a4.2,4.2,0,0,0,.93-.1l18.15-2.88,1.08-5.84-16.08,2.56-.28,0a2.1,2.1,0,0,1-.56-.08,1.86,1.86,0,0,1-1.21-2.34l.2-1.29L465,60.67A7.67,7.67,0,0,0,470.39,55l.68-3.56c.45-2.39-.94-4.83-3-4.83a2.25,2.25,0,0,0-.44,0l-13.87,2.2a10.37,10.37,0,0,0-7.62,7.45L444,67.4a4.5,4.5,0,0,0,0,2,4.44,4.44,0,0,0,4.33,3.51M343.27,49.25,322.78,52.5l-7.73,41.6,24.8-3.93L341,83.9l-18.88,3,2.24-12L336.24,73l1.05-5.69-11.86,1.88,2.23-12L342.22,55l1-5.7m60.21,30.82,5.93-.93,4.45-23.94-5.8.92-.13,0-4.45,23.93M331.13,63.9l11.33-1.8L339.7,76.92l-11.32,1.8-.53,2.84,14-2.23,3.81-20.5-14,2.22-.53,2.85m13.58,25.5,5.93-.94L354,70.22l10.33-1.64a4.79,4.79,0,0,1,.79-.07c1.26,0,1.63.71,1.32,2.35L363.58,86.4l5.93-.94L373,66.8c.52-2.81-.71-4.55-3.1-4.55a5.72,5.72,0,0,0-.9.07L349.3,65.44l-.15,0L344.71,89.4M374.58,5.87h0a15.05,15.05,0,0,0-2.5.2L348.21,9.85a7,7,0,0,0-5.78,5.64L338.25,38,321.16,40.7a3.58,3.58,0,0,0-.45.09,12.35,12.35,0,0,0-9.33,9.46,1,1,0,0,0,0,.17l-8.21,44.17a9.76,9.76,0,0,0,2,8.07,9.23,9.23,0,0,0,7.11,3.28,10.79,10.79,0,0,0,1.6-.13l41.92-6.65a6.93,6.93,0,0,0,1.59-.45l.55,0a6.8,6.8,0,0,0,1.1-.09l5.3-.84-1.47,7.92a7,7,0,0,0,6.88,8.28,6.8,6.8,0,0,0,1.1-.09l6.81-1.07c15.85-1.63,26.34-9.2,30.63-22l16.53-2.62a7.16,7.16,0,0,0,1.6-.45,4.87,4.87,0,0,0,.54,0,8.26,8.26,0,0,0,1.1-.08l15.1-2.4a7.35,7.35,0,0,0,1.62-.46h.2a13.64,13.64,0,0,0,2.3-.19l26.07-4.14a7,7,0,0,0,5.78-5.63l2.45-13.11a6.9,6.9,0,0,0-.08-2.9,19.53,19.53,0,0,0,1.24-3.59l.06-.27.41-2.06a1.77,1.77,0,0,0,0-.2,14.41,14.41,0,0,0-3-12.17,15.71,15.71,0,0,0-11.94-5.34,13.34,13.34,0,0,0-2.13.16l-15,2.37-.43.08a21.08,21.08,0,0,0-7,3,15.63,15.63,0,0,0-5.24-.89c-.41,0-.83,0-1.24,0l-.55.06L420,42.71a7,7,0,0,0-4.48,2.68,7.2,7.2,0,0,0-2.78-.57,6.79,6.79,0,0,0-2.38.42L394.51,51a7,7,0,0,0-5.76-3,7.68,7.68,0,0,0-1.17.09l-4.06.69-.22,0a22.23,22.23,0,0,0-8,3.31,15.77,15.77,0,0,0-3-.88c7.19-3,13.62-10.43,15-18L389,24.31a16,16,0,0,0-3.2-13.22,14.56,14.56,0,0,0-11.26-5.22Zm12.79,59,2.57-2a7,7,0,0,0,5,2.32l-1.77,9.54a6.09,6.09,0,0,0-1,.09l-9.08,1.44,1.66-8.93v0a.59.59,0,0,1,.3-.42,7,7,0,0,0,2.34-2Z" fill="#fff"/><path d="M411.63,7c5.31,0,8.9,4.62,7.8,10.54L419,20.1l-12.54,2,.4-2.14c.18-1-.28-1.6-1.11-1.6l-.3,0-6.2,1a2.64,2.64,0,0,0-2.09,2.14L394,38.3c-.19,1,.27,1.6,1.11,1.6l.3,0,6.2-1a2.62,2.62,0,0,0,2.09-2.13L404,35.2l.91-.11,1.6,6.35-12.25,9.41-4,.63a8.92,8.92,0,0,1-1.52.13c-5.31,0-8.89-4.62-7.79-10.54l3.33-17.95C385.44,16.65,392,10,398.11,9l12-1.91A10,10,0,0,1,411.63,7m0-7A16.5,16.5,0,0,0,409,.21l-12,1.9c-9.07,1.44-17.89,10.29-19.65,19.73l-3.34,18a16.35,16.35,0,0,0,3.24,13.54,14.75,14.75,0,0,0,11.44,5.28,16.62,16.62,0,0,0,2.62-.21l4-.64a7,7,0,0,0,3.17-1.36L410.74,47a7,7,0,0,0,2.53-7.26l-1.6-6.35a7,7,0,0,0-3.51-4.48L420.05,27a7,7,0,0,0,5.78-5.62l.48-2.57a16.39,16.39,0,0,0-3.23-13.54A14.79,14.79,0,0,0,411.63,0ZM403,28.27v-.08l.11.06-.12,0Z" fill="#fff"/><path d="M416.52,33.21h0m0,0-.43,2.28a10.6,10.6,0,0,1-.72,2.12L411.52,34l5-.79m0-7h-.23a7.9,7.9,0,0,0-1,.1l-4.88.78a7,7,0,0,0-3.69,12l3.85,3.6a7,7,0,0,0,4.79,1.9,7.49,7.49,0,0,0,1.33-.13,7,7,0,0,0,5-3.92,18.13,18.13,0,0,0,1.2-3.53c0-.08,0-.16.05-.25l.39-2.05a7.61,7.61,0,0,0,.16-1.52,7,7,0,0,0-6.89-7Zm0,14Z" fill="#fff"/><path d="M538.54,50.68h12.29q5.45,0,10.89,0a10.53,10.53,0,0,1,6,2.2,11.52,11.52,0,0,1,4.2,5.53,11.06,11.06,0,0,1,.64,5.46,12.35,12.35,0,0,1-2.11,5.6A11.7,11.7,0,0,1,563,74.37a7.21,7.21,0,0,1-1.14.1H538.52c-.47,0-.6-.11-.59-.6q0-11.3,0-22.6c0-.49.14-.6.62-.6m3.58,1.76h-2c-.42,0-.55.09-.55.54q0,9.66,0,19.33c0,.44.11.55.53.55h17.24q2.25,0,4.5,0a8.34,8.34,0,0,0,3.89-1.15,9,9,0,0,0,2.69-2.19A13,13,0,0,0,570,67.05h0a10.78,10.78,0,0,0,.94-5.31,8.42,8.42,0,0,0-.49-2.33,10.09,10.09,0,0,0-3-4.46,9.05,9.05,0,0,0-6-2.48q-4.75,0-9.51,0h-9.8m-3.58-8.76a7.45,7.45,0,0,0-7.62,7.6c0,7.5,0,15.1,0,22.58a7.4,7.4,0,0,0,7.59,7.62h23.31a12.94,12.94,0,0,0,2.41-.22,18.58,18.58,0,0,0,12-7.77,19.55,19.55,0,0,0,3.29-8.7A18.8,18.8,0,0,0,571.9,47.3,17.47,17.47,0,0,0,562,43.72h-.25c-3.9,0-7.72,0-10.94,0H538.54Zm8,15.75h5.35c3.77,0,6.67,0,9.37,0a2,2,0,0,1,1.31.55l.27.25a3.08,3.08,0,0,1,.94,1.39.36.36,0,0,1,0,.11,1.65,1.65,0,0,1,.1.44v.08a3.69,3.69,0,0,1-.28,1.74,6.5,6.5,0,0,1-.65,1,2.19,2.19,0,0,1-.6.49l-.24.13a1.52,1.52,0,0,1-.59.19l-4.26,0H546.57V59.43Z" fill="#fff"/><path d="M588.75,55.23h10.4c3,0,5.93,0,8.89,0l.28,0a3.16,3.16,0,0,1,3.07,2.42,3.07,3.07,0,0,1-1.87,3.56,6.85,6.85,0,0,1-2,.32H588.84c-.45,0-.57-.11-.57-.57,0-1.75,0-3.5,0-5.24,0-.37.08-.5.47-.5m2,4.57H608a2.37,2.37,0,0,0,1.21-.33h0a1.34,1.34,0,0,0,.71-1.19A1.32,1.32,0,0,0,608.6,57H590.55c-.41,0-.56.1-.53.54A7.62,7.62,0,0,1,590,59c0,.58.1.77.72.77m-2-11.57a7.5,7.5,0,0,0-5.34,2.16,7.35,7.35,0,0,0-2.13,5.37c0,1.55,0,3.33,0,5.1a7.4,7.4,0,0,0,7.57,7.68h18.63a13.39,13.39,0,0,0,4.21-.67l.38-.13a10.13,10.13,0,0,0,6.15-11.67l0-.06a10.14,10.14,0,0,0-9.87-7.77l-.47,0-8.7,0h-10.4Z" fill="#fff"/><path d="M702.85,43.56c1,0,1.95,0,2.93,0h.15a4.38,4.38,0,0,1,4.32,3.68,4.57,4.57,0,0,1-3.06,5.43,3.91,3.91,0,0,1-1.23.2h-3.32l-.15,0a.72.72,0,0,0-.62.37h8c.33,0,.5,0,.49.46,0,1.07,0,2.14,0,3.21,0,.39-.12.54-.52.54H696.62c-.34,0-.43-.11-.42-.43,0-1.17-.06-2.33,0-3.49a4.43,4.43,0,0,1,3.12-4.39,5.16,5.16,0,0,1,1.41-.19h0c.47,0,.94,0,1.42,0h2c.79,0,1-.16,1-.64s-.35-.65-1-.65h-3.22c-1,0-2,0-3,0h0c-.41,0-.55-.11-.53-.55,0-1,0-1.9,0-2.85,0-.48.17-.7.67-.7h.68l4.14,0m-4.18,3.3h0l2,0h2.84a7.5,7.5,0,0,1,1.34.11,1.41,1.41,0,0,1-.19,2.8h-3.32a9.93,9.93,0,0,0-1.88.21,3.58,3.58,0,0,0-2.4,2.65,19.88,19.88,0,0,0-.24,3.45c0,.51.12.7.64.7h0c.85,0,1.69,0,2.54,0h9.07c.25,0,.33-.16.32-.46h0a15.88,15.88,0,0,1,0-1.69c0-.41-.08-.56-.5-.56h0c-.81,0-1.62,0-2.44,0h-5.6c-.33,0-.43-.13-.41-.48a1.78,1.78,0,0,1,1.74-1.51h3.92a1.84,1.84,0,0,0,.33,0l.27-.07a3.79,3.79,0,0,0,2.59-4.69,3.56,3.56,0,0,0-2.72-2.71,5.6,5.6,0,0,0-1.47-.2h-6.31c-.48,0-.74.13-.68.68a6.22,6.22,0,0,1,0,1.22c0,.42.07.56.49.56m4.18-10.3h-4.78a7.52,7.52,0,0,0-7.7,7.83c0,1,0,1.73,0,2.45a8,8,0,0,0,.07,1.41,11.39,11.39,0,0,0-1.22,5.11c0,.89,0,1.71,0,2.45,0,.37,0,.73,0,1.1a7.3,7.3,0,0,0,7.42,7.53h13.14a7.4,7.4,0,0,0,7.55-7.69c0-.78,0-1.83,0-2.85a7.75,7.75,0,0,0-.34-2.55,11.75,11.75,0,0,0-11-14.77h-.1c-.89,0-1.84,0-3,0Z" fill="#fff"/><path d="M577.15,59.52a5,5,0,0,1,2.21.51h0A3.13,3.13,0,0,1,581,63.36a3.17,3.17,0,0,1-2.8,2.83,2.19,2.19,0,0,1-.77.14h-.2c-2.11-.09-3.3-.9-3.82-2.46a3.42,3.42,0,0,1,3.2-4.32l.52,0m.1,5.06c.21,0,.42,0,.62,0a1.4,1.4,0,0,0,1.32-1h0a1.55,1.55,0,0,0-.28-1.7,1.59,1.59,0,0,0-1.26-.44h-1.38a1.5,1.5,0,0,0-1.39,1.46,1.73,1.73,0,0,0,1,1.56,5.92,5.92,0,0,0,1.32.14m-.1-12.06c-.33,0-.66,0-1,0a10.42,10.42,0,0,0-9.84,10.73,10.79,10.79,0,0,0,.36,2.4c0,.14.08.28.13.41,1.46,4.34,5.11,7,10,7.2l.64,0a9.4,9.4,0,0,0,2.37-.31,10.26,10.26,0,0,0,8.14-8.7,10.07,10.07,0,0,0-5.45-10.54l-.08,0a12.06,12.06,0,0,0-5.28-1.22Z" fill="#fff"/><path d="M552.84,55.23q3.46,0,6.93,0a6.62,6.62,0,0,1,4,1.62,7.11,7.11,0,0,1,2.69,6.61,7.33,7.33,0,0,1-4.93,6.27,4.68,4.68,0,0,1-1.57.28H544.32c-.41,0-.57-.08-.57-.56q0-6.84,0-13.69c0-.47.13-.57.57-.57h8.52M547.71,57H546c-.41,0-.52.11-.52.51q0,5.19,0,10.37c0,.5.18.56.6.56H560l.28,0,.18,0a5.73,5.73,0,0,0,4.33-6.84A5.2,5.2,0,0,0,559.67,57h-.31c-1.77,0-3.54,0-5.32,0h-6.33m5.13-8.75h-8.49a7.4,7.4,0,0,0-7.6,7.6c0,4.52,0,9.11,0,13.63a7.56,7.56,0,0,0,2.16,5.42,7.43,7.43,0,0,0,5.41,2.17H560a11.4,11.4,0,0,0,3.92-.69,14.33,14.33,0,0,0,9.53-12.07,14.14,14.14,0,0,0-5.19-12.8,13.69,13.69,0,0,0-8.07-3.21h-.27c-2.59,0-5.12,0-7,0Z" fill="#fff"/><path d="M582.93,50.57h21.31l5.37,0a7.89,7.89,0,0,1,7.6,6.09,7.56,7.56,0,0,1-.52,4.91,6.33,6.33,0,0,1-1.06,1.81h0a.49.49,0,0,0,0,.7,9.52,9.52,0,0,1,1.69,4.18h0a10.57,10.57,0,0,1,.12,1.49c0,1.4,0,2.8,0,4.2,0,.35-.06.5-.46.5h-6.79c-.37,0-.46-.12-.46-.49,0-1.65,0-3.3,0-4.95a2.65,2.65,0,0,0-2.22-2.51,10.41,10.41,0,0,0-1.48-.1H590.62c-.46,0-.61.09-.6.59,0,2.29,0,4.58,0,6.88,0,.48-.14.59-.59.59h0l-3.23,0-3.36,0h0c-.4,0-.5-.12-.5-.52q0-11.41,0-22.84c0-.49.17-.55.6-.55m1.67,22.28h.09c.47,0,.95,0,1.43,0s1,0,1.54,0h.05c.37,0,.47-.12.47-.52,0-2.33,0-4.66,0-7,0-.5.09-.68.64-.68h0c3.42,0,6.84,0,10.26,0h7.72a6.12,6.12,0,0,1,2,.35,4.35,4.35,0,0,1,2.65,3.69c0,1.22,0,2.45,0,3.67,0,.33.06.47.4.47h0c.54,0,1.07,0,1.61,0s1.07,0,1.6,0h0c.34,0,.41-.14.4-.47,0-1.21,0-2.41,0-3.61a5.9,5.9,0,0,0-.71-2.73,6.73,6.73,0,0,0-1.31-1.86c-.44-.46-.26-.68.09-1a6.23,6.23,0,0,0-4-10.82q-2.5,0-5,0l-7.35,0h-6.39c-2,0-4,0-6.08,0h0c-.61,0-.76.2-.71.77s0,1.13,0,1.69c0,5.83,0,11.65,0,17.48,0,.46.11.6.52.6m-1.66-29.28h0a7.41,7.41,0,0,0-7.6,7.55c0,7.6,0,15.28,0,22.83a7.36,7.36,0,0,0,7.5,7.53h.08l3.29,0,3.15,0h.11A7.4,7.4,0,0,0,597,73.81v-.38h5.69c0,.16,0,.32,0,.48a7.5,7.5,0,0,0,2.13,5.4,7.41,7.41,0,0,0,5.33,2.17H617a7.35,7.35,0,0,0,7.46-7.58c0-.7,0-1.38,0-2.06s0-1.43,0-2.14a17.73,17.73,0,0,0-.2-2.45,16.32,16.32,0,0,0-.88-3.38,14.67,14.67,0,0,0,.7-8.76,14.88,14.88,0,0,0-14.34-11.52l-5.45,0h-21.3Z" fill="#fff"/><path d="M629.75,50.68l.7,0h15.79a10.85,10.85,0,0,1,4.51,1.13,10.65,10.65,0,0,1,3.37,2.42,12,12,0,0,1,3.17,6.39,11.67,11.67,0,0,1-.84,6.7,11.47,11.47,0,0,1-3.77,4.73,11.9,11.9,0,0,1-4.45,2.09,10.12,10.12,0,0,1-2.32.31l-9,0-7,0A11.94,11.94,0,0,1,621.65,54,12,12,0,0,1,628,50.8a13.31,13.31,0,0,1,1.78-.12m3,1.64h-2.88a10.83,10.83,0,0,0-2.33.28,9.55,9.55,0,0,0-5.69,3.68,10.13,10.13,0,0,0-1.42,10,10,10,0,0,0,9.34,6.49h.13c1,0,2,0,3,0l4.88,0h7.66a13.1,13.1,0,0,0,2.93-.33,9.54,9.54,0,0,0,3.84-2,9.9,9.9,0,0,0,3.38-5.77,10.35,10.35,0,0,0-.69-6.33,9.92,9.92,0,0,0-2.72-3.57,9.15,9.15,0,0,0-5.87-2.35c-2.28,0-4.57,0-6.86,0h-6.69m-3-8.64a19.17,19.17,0,0,0-2.73.19l-.22,0a18.9,18.9,0,0,0-10,5,18.61,18.61,0,0,0-4.33,6.4,18.92,18.92,0,0,0,17.45,26.12l7,0,9,0H646a16.48,16.48,0,0,0,3.89-.52,18.68,18.68,0,0,0,6.94-3.26,18.86,18.86,0,0,0,7.35-18.19,18.93,18.93,0,0,0-5-10.06,17.49,17.49,0,0,0-5.45-3.93,17.91,17.91,0,0,0-7.32-1.8H630.59l-.84,0Zm3,15.64h6.69c2.71,0,4.77,0,6.69,0a2.14,2.14,0,0,1,1.36.55l.21.19a2.81,2.81,0,0,1,.81,1.06,3.32,3.32,0,0,1,.21,2.05s0,.06,0,.1a3,3,0,0,1-1,1.71l-.07.06a2.46,2.46,0,0,1-1,.52,6.55,6.55,0,0,1-1.25.13H632.88c-1.18,0-2.16,0-3.09,0A3,3,0,0,1,627,63.8l-.06-.15a3.12,3.12,0,0,1,.44-3.07.91.91,0,0,0,.11-.16,2.58,2.58,0,0,1,1.53-1l.18,0a2.69,2.69,0,0,1,.7-.09Z" fill="#fff"/><path d="M666.64,50.58h21a7.32,7.32,0,0,1,4.87,1.84,7.51,7.51,0,0,1,2.76,6q0,7.66,0,15.33c0,.46-.1.61-.56.61h0c-1.08,0-2.17,0-3.26,0s-2.17,0-3.26,0h0c-.48,0-.55-.17-.55-.63,0-4.69,0-9.39,0-14.09a2.7,2.7,0,0,0-2.47-2.82c-1.35-.08-2.7,0-4-.08H681c-.35,0-.31.24-.31.48v4.84q0,5.91,0,11.82c0,.43-.07.59-.53.59h0l-3.18,0-3.05,0h0c-.44,0-.54-.14-.54-.58,0-5.5,0-11,0-16.49,0-.48-.09-.67-.56-.67h-.09c-.35,0-.69,0-1,0h-2.1a4.47,4.47,0,0,0-1.58.29,2.51,2.51,0,0,0-1.52,2.47q0,7.11,0,14.22c0,.5-.13.62-.59.62h-6.65c-.36,0-.48-.1-.47-.48,0-5.42,0-10.84,0-16.25a6.73,6.73,0,0,1,1.76-4.24,7.57,7.57,0,0,1,3.79-2.49,8.3,8.3,0,0,1,2.27-.32m6.12,1.75H667a9.39,9.39,0,0,0-2.41.32,5.64,5.64,0,0,0-4.05,5c-.06,4.87,0,9.75,0,14.62,0,.34.12.42.42.42h0l1.75,0c.46,0,.93,0,1.39,0h.1c.44,0,.54-.17.54-.64q0-6.21,0-12.41a4.77,4.77,0,0,1,.68-2.5,4.39,4.39,0,0,1,3.71-2.06h.11l1.6,0h3.65c.5,0,.64.15.63.69,0,5.48,0,11,0,16.43,0,.44.07.62.5.62h.09c.44,0,.87,0,1.31,0s.87,0,1.31,0h.11c.45,0,.55-.2.55-.68,0-5.5,0-11,0-16.49,0-.44.11-.58.54-.58h5.4a4.66,4.66,0,0,1,2.38.68,4.31,4.31,0,0,1,2.06,3.81c0,4.2,0,8.39,0,12.59,0,.38.08.52.46.52h.05l1.63,0c.5,0,1,0,1.51,0H693c.42,0,.49-.18.49-.6,0-4.67,0-9.36,0-14a5.32,5.32,0,0,0-.73-2.83,5.8,5.8,0,0,0-5-2.93c-1.46,0-2.91,0-4.37,0l-6.36,0h-4.3m-6.12-8.75h0a15.2,15.2,0,0,0-4.19.59,14.48,14.48,0,0,0-7.16,4.64,13.74,13.74,0,0,0-3.46,8.48,2.18,2.18,0,0,0,0,.25c0,3.6,0,7.23,0,10.75,0,1.86,0,3.71,0,5.57a7.33,7.33,0,0,0,7.47,7.5h6.65a7.65,7.65,0,0,0,3.91-1,7.67,7.67,0,0,0,4.07,1.13H674l3,0,3.09,0h.12a7.56,7.56,0,0,0,4.06-1.13,7.65,7.65,0,0,0,3.88,1h.17l3.13,0,3.16,0h.14a7.42,7.42,0,0,0,7.56-7.66c0-5,0-10.15,0-15.2a14.79,14.79,0,0,0-14.63-14.93h-21Z" fill="#fff"/><path d="M515.43,50.68h8.28l11.84,0h0c.49,0,.67.08.65.62,0,1.71,0,3.42,0,5.13,0,.47-.13.57-.57.57H514.7a5.4,5.4,0,0,0-3.52,1.49,5.47,5.47,0,0,0-1.88,3.87,5.32,5.32,0,0,0,1.15,3.8A5.73,5.73,0,0,0,515,68.42h.15c6.79,0,13.59,0,20.39,0h0c.54,0,.65.16.64.67,0,1.63,0,3.26,0,4.89,0,.41-.11.52-.52.52H517.43l-4.06,0a11.28,11.28,0,0,1-7.59-2.94,10.91,10.91,0,0,1-3.69-6.46,12,12,0,0,1,1.08-7.81A12.33,12.33,0,0,1,507,52.82a10.78,10.78,0,0,1,4.68-1.89,28,28,0,0,1,3.77-.25m-1.83,1.77h-.23a7.92,7.92,0,0,0-1.61.16,7.72,7.72,0,0,0-.83.2,10.29,10.29,0,0,0-7,12.75A9.21,9.21,0,0,0,507,70.44a9.66,9.66,0,0,0,6.32,2.39l3.9,0h16.62c.49,0,.62-.15.58-.62a9.15,9.15,0,0,1,0-1.57c0-.52-.12-.63-.62-.63H514.52a6.36,6.36,0,0,1-1.07-.1,6.71,6.71,0,0,1-4.24-2.64,7.28,7.28,0,0,1-1-7.29,7.43,7.43,0,0,1,6.67-4.66c.4,0,.79,0,1.19,0h17.76c.54,0,.68-.16.64-.68h0a9.74,9.74,0,0,1,0-1.62c0-.52-.12-.64-.63-.64-6.74,0-13.48,0-20.22,0m1.83-8.77a36.65,36.65,0,0,0-4.68.3l-.14,0a18,18,0,0,0-7.69,3.12,19.33,19.33,0,0,0-6,7,19,19,0,0,0-1.72,12.26,17.91,17.91,0,0,0,6,10.44,18.29,18.29,0,0,0,12.19,4.68l4.08,0h18.22a7.35,7.35,0,0,0,7.55-7.59c0-1.85,0-3.33,0-4.67a7.51,7.51,0,0,0-2.13-5.59,8.08,8.08,0,0,0-1.09-.92,7.4,7.4,0,0,0,3.22-6.37c0-1.9,0-3.44,0-4.87a7.44,7.44,0,0,0-7.65-7.79l-11.84,0h-8.28Z" fill="#fff"/><path d="M631.72,55.22l.48,0h11.92a7.29,7.29,0,0,1,6.29,3.61,6.86,6.86,0,0,1,1,4.59,7.34,7.34,0,0,1-6.3,6.5,15.47,15.47,0,0,1-1.92.12H631.56A7.52,7.52,0,0,1,626,67.57a7.4,7.4,0,0,1,2.12-11.52,8.42,8.42,0,0,1,3.62-.83m.1,13.19h9.46c.8,0,1.6,0,2.39,0h.21a6.23,6.23,0,0,0,4.06-1.5h0a5.53,5.53,0,0,0,1.81-5.6,5.67,5.67,0,0,0-5.39-4.43h-7.61c-2,0-4,0-6,0A5,5,0,0,0,626.88,59a5.57,5.57,0,0,0-1.19,4.56,5.63,5.63,0,0,0,2.53,3.87,6.83,6.83,0,0,0,3.6,1m-.1-20.19h0a15.53,15.53,0,0,0-6.66,1.52l-.09,0a14.41,14.41,0,0,0-4.18,22.48A14.58,14.58,0,0,0,631.56,77h11.59a23.4,23.4,0,0,0,2.77-.17H646a14.33,14.33,0,0,0,12.28-12.58,13.83,13.83,0,0,0-1.92-9.06,14.33,14.33,0,0,0-12.28-7H632.4l-.68,0Z" fill="#fff"/><path d="M310.73,80.51a1,1,0,0,1-.42-.09c-13.84-6.73-21-14.56-20.68-22.66.27-6.67,5.71-13,15.74-18.21,9.53-5,23-8.92,38.85-11.42a1,1,0,0,1,.3,1.91c-32.19,5.06-52.47,15.71-52.95,27.8-.28,7.16,6.67,14.56,19.58,20.83a1,1,0,0,1-.42,1.84Z"/><path d="M431.42,30.76h-.16a280.82,280.82,0,0,0-32.08-3.34,1,1,0,1,1,.08-1.93h0a284.43,284.43,0,0,1,32.3,3.35,1,1,0,0,1,.81,1.11,1,1,0,0,1-1,.82Z"/><path d="M400.86,96.25h-.81c.27,0,.54-.57.81-.57,51.95,0,92.94-13.79,93.48-31.14.19-6.07-4.69-12.38-14.11-18S457.4,36.21,441.35,32.81a1,1,0,0,1-.75-1.19,1,1,0,0,1,1.15-.76c16.26,3.44,29.91,8.26,39.47,13.92,10.07,6,15.28,12.72,15.06,19.54C496,73.55,485.8,81.56,467.57,87.6,450,93.44,426.29,96.25,400.86,96.25Z"/><polygon points="418.44 46.51 444.07 26.98 413.97 39 405.51 30.2 408.21 42.39 382.58 61.93 412.68 49.91 421.14 58.72 418.44 46.51"/><path d="M386.35,70.91c.36-1.82,1-1.55,2.87-1.84l1.71-.27-.53,2.84-1.71.27C386.85,72.21,386.05,72.69,386.35,70.91Zm-3.7-2.61-1.33,7.14c-.36,2,.23,2.59,2.1,2.29L394.3,76l2.33-12.53-10.88,1.72A3.27,3.27,0,0,0,382.65,68.3Zm69-11.28-.13.69,11.22-1.79a2.54,2.54,0,0,0,1.92-2c.18-1-.39-1.64-1.27-1.5l-2.88.46-4.6.73-1.16.18a4.36,4.36,0,0,0-3.1,3.23ZM373,89.34l.09-.5a6.19,6.19,0,0,0,1.36.11l11.65-1.83c-.43,2.33-3.5,2.91-8.19,3.65l-5.33.84L369.69,107l7-1.11c17.27-1.71,23.83-10.62,25.94-21.26l21-3.33,3.39-18.24,1.7-.27c1.88-.3,1.6-.63,1.24,1.31l-3.1,16.68L442,78.39l.2-1.1a7,7,0,0,0,3.89.45l26.1-4.14,2.44-13.11-1.69-1.21a13.3,13.3,0,0,0,2.94-5.64l.41-2.06c1.3-7.73-5.83-9.79-9.08-9.27l-15,2.38a13.87,13.87,0,0,0-7.7,4.72A8.75,8.75,0,0,0,437.76,47l-16.68,2.64L423,53.76,438,51.37c2.16-.34,3.61.52,4,2.24-.16.45-4,21-4,21l-5.4.86,2.89-15.55c.36-1.95-.23-2.58-2.11-2.28l-10.33,1.65-3.39,18.23-5.93.94,3.88-20.87-4.88-5.76-17.58,6.35,8.33-1.32.14,0-5.3,28.49c-1.34,7.24-9.07,14.15-15.92,15.24l-7,1.11L376.46,96l5.33-.85c4.69-.74,10-5.44,10.87-10.34l.58-3.09-13.89,2.2c-3,.48-4.59-1.33-4-4.48L377.84,66a7.56,7.56,0,0,1,3.91-5.38l0-.36,7-5.36-4.06.68A15.22,15.22,0,0,0,376,60.83a8.74,8.74,0,0,0-7.2-2.9l-15,2.38,2.44-13.11,10.92-1.73c5.81-.93,12.24-7.46,13.38-13.6L382.16,23c1.15-6.14-3.17-11-9-10l-23.86,3.79-5.08,27.35-22,3.49a5.35,5.35,0,0,0-4,4.09L310,95.87c-.36,2,.85,3.32,2.71,3l41.92-6.65L358,74l1.71-.27c1.87-.3,1.59-.64,1.23,1.31l-3.1,16.68Zm-31.11-10-14,2.23.53-2.84,11.32-1.8,2.76-14.82-11.33,1.8.53-2.85,14-2.22ZM341,83.9l-1.17,6.27-24.8,3.93,7.73-41.6,20.49-3.25-1,5.7-14.56,2.31-2.23,12,11.86-1.88L336.24,73l-11.86,1.88-2.24,12Zm28.49,1.56-5.93.94,2.89-15.54c.36-2-.22-2.58-2.11-2.28L354,70.22l-3.39,18.24-5.93.94,4.44-23.93.15,0L369,62.32c3-.47,4.58,1.33,4,4.48Zm38.55-29.34,5.8-.92-4.45,23.94-5.93.93,4.45-23.93ZM444,67.4l2.06-11.07a10.37,10.37,0,0,1,7.62-7.45l13.87-2.2c2.34-.37,4,2.24,3.48,4.79L470.39,55A7.67,7.67,0,0,1,465,60.67L450.57,63l-.2,1.29a1.86,1.86,0,0,0,1.21,2.34,2,2,0,0,0,.84.06l16.08-2.56-1.08,5.84-18.15,2.88A4.43,4.43,0,0,1,444,69.4,4.5,4.5,0,0,1,444,67.4Zm-85.81-31,2-10.82,7.55-1.21c1-.15,1.5.41,1.3,1.46l-1.37,7.41a2.37,2.37,0,0,1-1.94,2Z"/><path d="M406.48,41.44l-1.6-6.35-.91.11-.29,1.56a2.62,2.62,0,0,1-2.09,2.13l-6.2,1c-1,.16-1.62-.49-1.41-1.58l3.13-16.8a2.64,2.64,0,0,1,2.09-2.14l6.2-1c1-.17,1.61.49,1.41,1.57l-.4,2.14,12.54-2,.48-2.56c1.2-6.47-3.2-11.38-9.32-10.42L398.11,9c-6.11,1-12.67,7.62-13.87,14.09l-3.33,18c-1.2,6.47,3.19,11.39,9.31,10.41l4-.63Z"/><path d="M415.37,37.61a10.6,10.6,0,0,0,.72-2.12l.43-2.28-5,.79Z"/><path d="M692.51,52.42a7.33,7.33,0,0,0-5-1.84H666.75a8,8,0,0,0-2.38.32,7.57,7.57,0,0,0-3.79,2.49,6.73,6.73,0,0,0-1.76,4.24c-.07,5.41,0,10.83,0,16.25,0,.39.11.48.48.48,2.2,0,4.39,0,6.59,0,.5,0,.64-.1.64-.62q0-7.11,0-14.22A2.51,2.51,0,0,1,668,57.05a4.46,4.46,0,0,1,1.74-.29c1,0,2,0,3,0,.54,0,.66.16.65.67,0,5.5,0,11,0,16.49,0,.45.1.59.57.58q3.12,0,6.23,0c.49,0,.56-.15.56-.59q0-5.91,0-11.82V57.23c0-.26,0-.5.37-.48,1.35.08,2.7,0,4,.08a2.7,2.7,0,0,1,2.47,2.82c0,4.7,0,9.4,0,14.09,0,.47.08.63.59.63,2.17,0,4.35,0,6.52,0,.5,0,.6-.14.6-.61q0-7.67,0-15.33A7.51,7.51,0,0,0,692.51,52.42ZM693,72.73c-1.05,0-2.1,0-3.14,0-.42,0-.51-.12-.51-.52,0-4.2,0-8.39,0-12.59a4.31,4.31,0,0,0-2.06-3.81,4.66,4.66,0,0,0-2.38-.68c-1.79,0-3.58,0-5.36,0-.47,0-.58.13-.58.58,0,5.5,0,11,0,16.49,0,.51-.11.7-.66.67a22.9,22.9,0,0,0-2.62,0c-.51,0-.59-.15-.59-.62,0-5.48,0-11,0-16.43,0-.57-.14-.7-.69-.69-1.73,0-3.46,0-5.19,0a4.4,4.4,0,0,0-3.82,2.06,4.77,4.77,0,0,0-.68,2.5q0,6.2,0,12.41c0,.51-.11.66-.64.63-1,0-2.09,0-3.14,0-.32,0-.44-.07-.44-.42,0-4.87,0-9.75,0-14.62a5.64,5.64,0,0,1,4.05-5,9.54,9.54,0,0,1,2.55-.32h9.9c3.58,0,7.15,0,10.73,0a5.8,5.8,0,0,1,5,2.93,5.32,5.32,0,0,1,.73,2.83c0,4.68,0,9.37,0,14,0,.44-.07.61-.56.59ZM535.55,50.68q-9.63,0-19.28,0a29.62,29.62,0,0,0-4.61.24A10.78,10.78,0,0,0,507,52.82a12.33,12.33,0,0,0-3.81,4.43,12,12,0,0,0-1.08,7.81,10.91,10.91,0,0,0,3.69,6.46,11.28,11.28,0,0,0,7.59,2.94c3.59,0,7.19,0,10.78,0,3.84,0,7.69,0,11.53,0,.41,0,.52-.11.52-.52,0-1.63,0-3.26,0-4.89,0-.51-.1-.68-.65-.67-6.8,0-13.6,0-20.39,0a5.76,5.76,0,0,1-4.71-2.27,5.32,5.32,0,0,1-1.15-3.8,5.47,5.47,0,0,1,1.88-3.87A5.4,5.4,0,0,1,514.7,57q10.47,0,20.92,0c.44,0,.59-.1.58-.57,0-1.71,0-3.42,0-5.13,0-.54-.16-.62-.65-.62Zm-1.1,4c0,.52-.1.68-.65.68-5.28,0-10.57,0-15.85,0-1,0-2.06,0-3.09,0A7.43,7.43,0,0,0,508.19,60a7.28,7.28,0,0,0,1,7.29,6.71,6.71,0,0,0,4.24,2.64,5.57,5.57,0,0,0,1.08.1c6.43,0,12.86,0,19.29,0,.5,0,.68.11.63.63a9.15,9.15,0,0,0,0,1.57c0,.48-.09.62-.59.62-3.52,0-7,0-10.55,0-3.32,0-6.64,0-10,0A9.66,9.66,0,0,1,507,70.44a9.21,9.21,0,0,1-3.12-4.88,10.29,10.29,0,0,1,7-12.75,7.72,7.72,0,0,1,.83-.2,7.59,7.59,0,0,1,1.84-.16c6.74,0,13.48,0,20.22,0,.51,0,.68.12.63.64a9.74,9.74,0,0,0,0,1.62Zm82.84,13.6a9.52,9.52,0,0,0-1.69-4.18.49.49,0,0,1,0-.7h0a6.33,6.33,0,0,0,1.06-1.81,7.56,7.56,0,0,0,.52-4.91,7.89,7.89,0,0,0-7.6-6.09c-4.35,0-8.7,0-13.05,0H582.93c-.43,0-.6.06-.6.55q0,11.42,0,22.84c0,.41.11.52.51.52q3.3,0,6.59,0c.47,0,.62-.09.62-.59,0-2.3,0-4.59,0-6.88,0-.5.15-.59.62-.59h15.2a10.33,10.33,0,0,1,1.67.1A2.65,2.65,0,0,1,609.73,69c0,1.65,0,3.3,0,4.95,0,.37.09.49.48.49,2.25,0,4.51,0,6.76,0,.41,0,.47-.15.47-.5,0-1.4,0-2.8,0-4.2a9.26,9.26,0,0,0-.12-1.49Zm-2.17,4.56q-1.61,0-3.21,0c-.37,0-.45-.12-.44-.47,0-1.22,0-2.45,0-3.67A4.35,4.35,0,0,0,608.83,65a6.34,6.34,0,0,0-2.07-.35q-9,0-18,0c-.56,0-.66.16-.65.67,0,2.33,0,4.66,0,7,0,.42-.11.53-.52.52-1,0-2,0-3,0-.48,0-.61-.11-.61-.6,0-5.83,0-11.65,0-17.48,0-.56,0-1.13,0-1.69s.1-.77.73-.77c4.16,0,8.32,0,12.47,0s8.24,0,12.36,0a6.23,6.23,0,0,1,4,10.82c-.35.34-.53.56-.09,1A6.73,6.73,0,0,1,614.85,66a5.9,5.9,0,0,1,.71,2.73c0,1.2,0,2.4,0,3.61,0,.34-.06.48-.44.47ZM567.73,52.92a10.53,10.53,0,0,0-6-2.2c-7.73-.06-15.46,0-23.18,0-.48,0-.62.11-.62.6q0,11.3,0,22.6c0,.49.13.6.6.6,4,0,7.89,0,11.83,0h11.36a6.52,6.52,0,0,0,1.25-.1,11.7,11.7,0,0,0,7.49-4.86,12.35,12.35,0,0,0,2.11-5.6,11.06,11.06,0,0,0-.64-5.46A11.52,11.52,0,0,0,567.73,52.92ZM570,67.05a13,13,0,0,1-1.58,2.43,9,9,0,0,1-2.69,2.19,8.34,8.34,0,0,1-3.89,1.15c-3.59.05-7.18,0-10.78,0s-7.3,0-10.95,0c-.43,0-.54-.11-.54-.55q0-9.66,0-19.33c0-.45.13-.54.55-.54,7.11,0,14.21,0,21.32,0a9.05,9.05,0,0,1,6,2.48,10.09,10.09,0,0,1,3,4.46,8.42,8.42,0,0,1,.49,2.33,10.78,10.78,0,0,1-.94,5.31Zm84.13-12.81a10.65,10.65,0,0,0-3.37-2.42,10.85,10.85,0,0,0-4.51-1.13c-2.83,0-5.67,0-8.51,0-2.42,0-4.85,0-7.28,0a13.69,13.69,0,0,0-2.48.1A12,12,0,0,0,621.65,54a11.73,11.73,0,0,0-2.7,4,11.93,11.93,0,0,0,11,16.47c5.32,0,10.65,0,16,0a10.12,10.12,0,0,0,2.32-.31,11.9,11.9,0,0,0,4.45-2.09,11.47,11.47,0,0,0,3.77-4.73,11.67,11.67,0,0,0,.84-6.7A12,12,0,0,0,654.12,54.24Zm1.45,10.37a9.9,9.9,0,0,1-3.38,5.77,9.54,9.54,0,0,1-3.84,2,13.2,13.2,0,0,1-3.37.32h-7.22c-2.63,0-5.25,0-7.87,0a10,10,0,0,1-9.47-6.49,10.13,10.13,0,0,1,1.42-10,9.55,9.55,0,0,1,5.69-3.68,10.83,10.83,0,0,1,2.33-.28c5.48,0,11-.05,16.43,0a9.15,9.15,0,0,1,5.87,2.35,9.92,9.92,0,0,1,2.72,3.57,10.35,10.35,0,0,1,.69,6.33Zm54.24-11.36c-2.41,0-4.82,0-7.22,0h-.72a.7.7,0,0,1,.77-.35H706a3.91,3.91,0,0,0,1.23-.2,4.57,4.57,0,0,0,3.06-5.43,4.39,4.39,0,0,0-4.47-3.68c-2.58-.08-5.16,0-7.74,0-.51,0-.69.21-.68.7,0,.95,0,1.9,0,2.85,0,.45.12.55.55.55,2.07,0,4.15,0,6.23,0,.69,0,1,.22,1,.65s-.26.64-1,.64c-1.13,0-2.26,0-3.38,0a5.16,5.16,0,0,0-1.41.19,4.43,4.43,0,0,0-3.12,4.39c-.08,1.16,0,2.32,0,3.49,0,.32.08.43.42.43h13.16c.41,0,.54-.14.53-.54,0-1.07,0-2.14,0-3.21,0-.41-.16-.46-.51-.46Zm-.31,3.06c0,.36-.1.51-.46.45h-5.82c-1.88,0-3.77,0-5.65,0-.56,0-.69-.18-.68-.7a19.88,19.88,0,0,1,.24-3.45,3.58,3.58,0,0,1,2.4-2.65,9.93,9.93,0,0,1,1.88-.21c1.1,0,2.21,0,3.32,0a1.41,1.41,0,0,0,.19-2.8,7.88,7.88,0,0,0-1.61-.11c-1.53,0-3.07,0-4.6,0-.45,0-.57-.13-.53-.56a6.22,6.22,0,0,0,0-1.22c-.06-.55.21-.69.7-.68h6.29a5.6,5.6,0,0,1,1.47.2,3.56,3.56,0,0,1,2.72,2.71A3.79,3.79,0,0,1,706.77,52l-.27.07a1.85,1.85,0,0,1-.47,0h-3.78a1.78,1.78,0,0,0-1.74,1.51c0,.37.09.5.48.48.75,0,1.51,0,2.27,0,1.9,0,3.8,0,5.7,0,.46,0,.57.13.54.56a15.88,15.88,0,0,0,0,1.69ZM579.36,60a5,5,0,0,0-2.73-.49,3.42,3.42,0,0,0-3.2,4.32c.52,1.56,1.71,2.37,3.82,2.46a2.28,2.28,0,0,0,1-.13,3.17,3.17,0,0,0,2.8-2.83A3.13,3.13,0,0,0,579.36,60Zm-.17,3.53a1.4,1.4,0,0,1-1.32,1,6,6,0,0,1-1.94-.11,1.73,1.73,0,0,1-1-1.56,1.5,1.5,0,0,1,1.39-1.46h.81c.6,0,1.27-.14,1.83.44a1.55,1.55,0,0,1,.28,1.7ZM608,55.26c-6.43,0-12.86,0-19.29,0-.39,0-.48.13-.47.5,0,1.74,0,3.49,0,5.24,0,.46.13.58.58.57,3.2,0,6.41,0,9.62,0h8.68a6.59,6.59,0,0,0,2.37-.31,3.07,3.07,0,0,0,1.87-3.56A3.15,3.15,0,0,0,608,55.26Zm1.16,4.2a2.3,2.3,0,0,1-1.25.33q-8.6,0-17.19,0c-.63,0-.79-.19-.74-.77a7.62,7.62,0,0,0,0-1.51c0-.45.12-.55.55-.54,3,0,6,0,9,0h9a1.32,1.32,0,0,1,1.34,1.28,1.34,1.34,0,0,1-.71,1.19Zm-45.43-2.57a6.62,6.62,0,0,0-4-1.62c-5.14-.08-10.29,0-15.44,0-.44,0-.58.1-.58.57q0,6.84,0,13.69c0,.49.16.56.59.56,2.61,0,5.21,0,7.81,0s5.13,0,7.69,0a4.62,4.62,0,0,0,1.69-.28,7.33,7.33,0,0,0,4.93-6.27A7.11,7.11,0,0,0,563.77,56.89ZM560.31,68.4a2.36,2.36,0,0,1-.46,0H553c-2.31,0-4.62,0-6.93,0-.42,0-.6-.06-.6-.56q0-5.18,0-10.37c0-.4.11-.51.52-.51,4.45,0,8.89,0,13.34,0a5.2,5.2,0,0,1,5.46,4.51,5.73,5.73,0,0,1-4.33,6.84Zm83.48-13.16H632.2a8.42,8.42,0,0,0-4.1.81A7.4,7.4,0,0,0,626,67.57,7.55,7.55,0,0,0,631.81,70h10.66a16.12,16.12,0,0,0,2.6-.11,7.34,7.34,0,0,0,6.3-6.5,6.86,6.86,0,0,0-1-4.59,7.29,7.29,0,0,0-6.62-3.6Zm4.15,11.66a6.23,6.23,0,0,1-4.27,1.5c-2,0-4,0-5.94,0s-3.76,0-5.65,0a6.83,6.83,0,0,1-3.86-1,5.63,5.63,0,0,1-2.53-3.87A5.54,5.54,0,0,1,626.88,59a5,5,0,0,1,3.91-2.08c4.52,0,9.05,0,13.57,0a5.67,5.67,0,0,1,5.39,4.43,5.53,5.53,0,0,1-1.81,5.6Z" fill="#0f0f0f" fill-rule="evenodd"/></g></svg>