<svg xmlns="http://www.w3.org/2000/svg" viewBox="0 0 1000 114"><title>logo_right</title><g id="Layer_2" data-name="Layer 2"><rect x="579.49" y="43.56" width="30.3" height="28.64" fill="#fff"/><rect x="649.73" y="41.73" width="19.18" height="12.58" fill="#fff"/><rect x="747.32" y="53.92" width="25.51" height="21.9" fill="#fff"/></g><g id="Calque_1" data-name="Calque 1"><path d="M627,28.12a1,1,0,0,1,.15,1.92C595,35.1,574.67,45.75,574.2,57.84c-.28,7.16,6.67,14.56,19.58,20.83a1,1,0,0,1,.44,1.3,1,1,0,0,1-.86.54h0a1.07,1.07,0,0,1-.43-.09c-13.84-6.73-21-14.56-20.67-22.66.26-6.67,5.7-13,15.74-18.21,9.52-5,23-8.92,38.84-11.42H627m0-7a8.48,8.48,0,0,0-1.23.09c-16.63,2.62-30.81,6.81-41,12.13-15.65,8.19-19.24,17.65-19.5,24.14-.3,7.73,3.71,19.08,24.61,29.24l.14.06a8,8,0,0,0,6.84-14.4c-11.75-5.7-15.78-11.25-15.66-14.27.21-5.35,13.17-15.83,47-21.15A8,8,0,0,0,627,21.12Z" fill="#fff"/><path d="M681.84,25.48h0a284.6,284.6,0,0,1,32.31,3.35,1,1,0,0,1,.8,1.11,1,1,0,0,1-1,.82h-.16a280.59,280.59,0,0,0-32.08-3.34,1,1,0,0,1,0-1.93m0-7a8,8,0,0,0-.34,15.93,273.71,273.71,0,0,1,31.26,3.25l.33,0a7.42,7.42,0,0,0,.94.06h0a8,8,0,0,0,1.28-15.84,291.88,291.88,0,0,0-33.1-3.43Z" fill="#fff"/><path d="M724.19,30.84l.18,0c16.26,3.44,29.91,8.26,39.48,13.92,10.06,6,15.27,12.72,15,19.54-.28,9.23-10.48,17.24-28.7,23.28-17.62,5.84-41.29,8.65-66.72,8.65h-.8c.26,0,.54-.57.8-.57,51.95,0,92.94-13.79,93.48-31.14.19-6.07-4.68-12.38-14.11-18S740,36.21,724,32.81a1,1,0,0,1-.76-1.19,1,1,0,0,1,1-.78m0-7a8,8,0,0,0-1.85,15.78l.18,0c15.2,3.22,27.91,7.7,36.76,12.94,8,4.74,10.76,9.16,10.69,11.73-.12,3.76-6.13,10.12-22.69,15.65-16.79,5.61-39.45,8.7-63.8,8.7a7.25,7.25,0,0,0-4.78,1.81,7,7,0,0,0,4,12.76h.8c27.32,0,51.15-3.11,68.92-9C774.24,87,785.51,77,785.9,64.54c.21-6.64-2.82-16.5-18.48-25.78-10.22-6-24.6-11.15-41.6-14.75l-.13,0a8.46,8.46,0,0,0-1.5-.14Z" fill="#fff"/><path d="M726.69,27,701.06,46.51l2.7,12.21-8.45-8.81-30.1,12,25.62-19.54-2.7-12.19,8.46,8.8,30.1-12m0-7a6.89,6.89,0,0,0-2.59.5L698.37,30.75l-5.19-5.4a7,7,0,0,0-11.88,6.36L683,39.54,661,56.36a7,7,0,0,0,4.25,12.57,6.89,6.89,0,0,0,2.59-.5l25.72-10.27,5.19,5.4A7,7,0,0,0,710.6,57.2l-1.74-7.83,22.08-16.82A7,7,0,0,0,726.69,20Zm0,14h0Z" fill="#fff"/><path d="M746.27,52.4c.75,0,1.21.64,1.05,1.52a2.57,2.57,0,0,1-1.92,2l-11.22,1.79.12-.69a4.36,4.36,0,0,1,3.1-3.23l1.16-.18,4.6-.73,2.88-.46.23,0m0-7a8.88,8.88,0,0,0-1.35.11l-2.86.46-4.59.73-1.16.18a6.69,6.69,0,0,0-.75.16,11.36,11.36,0,0,0-8.08,8.39c0,.12-.05.23-.07.34l-.12.69a7,7,0,0,0,6.89,8.25,6.68,6.68,0,0,0,1.09-.09l11.22-1.78.56-.11a9.61,9.61,0,0,0,7.13-7.45l0-.08a8.35,8.35,0,0,0-1.73-6.91,8,8,0,0,0-6.2-2.89Z" fill="#fff"/><path d="M679.25,63.47h0m0,0L676.92,76l-10.87,1.73a6.05,6.05,0,0,1-.79.07c-1.25,0-1.62-.71-1.32-2.36l1.33-7.14a3.29,3.29,0,0,1,3.1-3.11l10.88-1.72m-9.73,8.73a16.16,16.16,0,0,0,1.79-.29l1.71-.27.53-2.84-1.71.27c-1.83.29-2.5,0-2.86,1.84-.18,1,0,1.29.54,1.29m9.73-15.73H679a7.89,7.89,0,0,0-1,.11l-10.49,1.66a10.25,10.25,0,0,0-9.21,9.11l-1.27,6.81a9,9,0,0,0,1.68,7.71,8.28,8.28,0,0,0,6.52,2.93,11.48,11.48,0,0,0,1.89-.16L678,82.92a7,7,0,0,0,5.78-5.64L686.09,65a6.85,6.85,0,0,0,.16-1.51,7,7,0,0,0-6.89-7Zm0,14h0Z" fill="#fff"/><path d="M657.2,12.87c5.08,0,8.63,4.53,7.59,10.16l-1.65,8.84C662,38,655.57,44.54,649.76,45.47L638.85,47.2,636.4,60.31l15-2.38c.22,0,.45,0,.67,0a8.76,8.76,0,0,1,6.53,2.93,15.26,15.26,0,0,1,8.73-5.22l4.07-.68-7,5.36,0,.36A7.58,7.58,0,0,0,660.46,66L658,79.43c-.53,2.81.71,4.55,3.1,4.55a5.9,5.9,0,0,0,.91-.08l13.88-2.2-.58,3.09c-.9,4.9-6.17,9.6-10.87,10.34l-5.33.85L658,101.67l7-1.11c6.85-1.09,14.57-8,15.92-15.24l5.29-28.49-.13,0-8.33,1.32,17.57-6.35,4.89,5.76-3.89,20.87,5.93-.94,3.4-18.23L716,57.63a5.91,5.91,0,0,1,.78-.07c1.26,0,1.63.71,1.32,2.35l-2.89,15.55,5.4-.86s3.85-20.54,4-21a2.9,2.9,0,0,0-3.11-2.31,5.81,5.81,0,0,0-.9.07l-15,2.39-1.87-4.13L720.38,47q.35,0,.69,0a8.76,8.76,0,0,1,6.08,2.45,13.87,13.87,0,0,1,7.7-4.72l15-2.38a6.58,6.58,0,0,1,1-.07c3.51,0,9.23,2.34,8,9.34l-.41,2.06a13.19,13.19,0,0,1-2.94,5.64l1.7,1.21L754.81,73.6l-26.1,4.14a6.6,6.6,0,0,1-1.17.1,7,7,0,0,1-2.71-.55l-.21,1.1-15.1,2.39,3.1-16.68c.23-1.22.42-1.54.08-1.54s-.61.12-1.31.23l-1.71.27L706.29,81.3l-21,3.33c-2.11,10.64-8.67,19.55-25.93,21.26l-7,1.11,2.86-15.39,5.33-.84c4.69-.74,7.76-1.32,8.2-3.65L657.05,89h-.19a6.42,6.42,0,0,1-1.16-.11l-.1.5-15.09,2.39,3.1-16.68c.22-1.22.42-1.54.07-1.54s-.61.12-1.31.23l-1.71.27-3.39,18.24L595.34,98.9a4.22,4.22,0,0,1-.49,0c-1.57,0-2.54-1.28-2.22-3.07l8.22-44.17a5.32,5.32,0,0,1,4-4.09l22-3.49,5.08-27.35L655.8,13a8.42,8.42,0,0,1,1.4-.11m-16.35,23.5,7.56-1.2a2.35,2.35,0,0,0,1.93-2l1.37-7.41c.18-.94-.2-1.48-1-1.48l-.31,0-7.54,1.21-2,10.82M731,72.91a4.2,4.2,0,0,0,.93-.1l18.16-2.88,1.08-5.84L735,66.65l-.28,0a2.16,2.16,0,0,1-.56-.08A1.86,1.86,0,0,1,733,64.25l.2-1.29,14.41-2.29A7.69,7.69,0,0,0,753,55l.68-3.56c.44-2.39-1-4.83-3.05-4.83a2.25,2.25,0,0,0-.44,0l-13.86,2.2a10.39,10.39,0,0,0-7.63,7.45L726.67,67.4a4.36,4.36,0,0,0,0,2A4.45,4.45,0,0,0,731,72.91M625.9,49.25,605.41,52.5l-7.73,41.6,24.8-3.93,1.17-6.27-18.88,3,2.23-12L618.86,73l1.06-5.69-11.86,1.88,2.22-12L624.84,55l1.06-5.7m60.21,30.82,5.93-.93,4.45-23.94-5.8.92-.13,0-4.45,23.93M613.76,63.9l11.32-1.8-2.76,14.82L611,78.72l-.53,2.84,14-2.23,3.81-20.5-14,2.22-.53,2.85m13.57,25.5,5.93-.94,3.39-18.24L647,68.58a4.59,4.59,0,0,1,.78-.07c1.26,0,1.63.71,1.32,2.35L646.21,86.4l5.93-.94L655.6,66.8c.53-2.81-.71-4.55-3.1-4.55a5.81,5.81,0,0,0-.9.07l-19.68,3.12-.14,0L627.33,89.4M657.2,5.87h0a15,15,0,0,0-2.49.2L630.84,9.85a7,7,0,0,0-5.79,5.64L620.87,38,603.78,40.7a3.58,3.58,0,0,0-.45.09A12.37,12.37,0,0,0,594,50.25c0,.06,0,.11,0,.17l-8.21,44.17a9.79,9.79,0,0,0,2,8.07,9.23,9.23,0,0,0,7.12,3.28,10.65,10.65,0,0,0,1.59-.13l41.92-6.65a7.16,7.16,0,0,0,1.6-.45l.54,0a6.71,6.71,0,0,0,1.1-.09l5.31-.84-1.48,7.92a7,7,0,0,0,6.89,8.28,6.77,6.77,0,0,0,1.09-.09l6.82-1.07c15.85-1.63,26.34-9.2,30.62-22l16.54-2.62a7.08,7.08,0,0,0,1.59-.45,4.87,4.87,0,0,0,.54,0,8.14,8.14,0,0,0,1.1-.08l15.1-2.4a7.19,7.19,0,0,0,1.62-.46h.2a13.64,13.64,0,0,0,2.3-.19l26.07-4.14a7,7,0,0,0,5.79-5.63l2.44-13.11a7.07,7.07,0,0,0-.07-2.9,19.5,19.5,0,0,0,1.23-3.59,2.68,2.68,0,0,0,.07-.27l.41-2.06,0-.2a14.45,14.45,0,0,0-3-12.17,15.73,15.73,0,0,0-11.95-5.34,13.43,13.43,0,0,0-2.13.16l-15,2.37-.43.08a21,21,0,0,0-7,3,15.63,15.63,0,0,0-5.24-.89c-.41,0-.83,0-1.24,0l-.54.06-16.68,2.64a7,7,0,0,0-4.48,2.68,7.16,7.16,0,0,0-2.78-.57,6.79,6.79,0,0,0-2.38.42L677.13,51a7,7,0,0,0-5.76-3,7.65,7.65,0,0,0-1.16.09l-4.07.69-.21,0a22.23,22.23,0,0,0-8,3.31,16.09,16.09,0,0,0-3-.88c7.2-3,13.63-10.43,15-18l1.64-8.84a16,16,0,0,0-3.21-13.22A14.56,14.56,0,0,0,657.2,5.87Zm12.79,59,2.58-2a7,7,0,0,0,5,2.32L675.8,74.7a6,6,0,0,0-1,.09l-9.08,1.44,1.65-8.93v0a.58.58,0,0,1,.31-.42,7.08,7.08,0,0,0,2.33-2Z" fill="#fff"/><path d="M694.25,7c5.31,0,8.9,4.62,7.8,10.54l-.48,2.56-12.54,2,.4-2.14c.18-1-.27-1.6-1.1-1.6a1.53,1.53,0,0,0-.3,0l-6.21,1a2.64,2.64,0,0,0-2.09,2.14L676.6,38.3c-.18,1,.28,1.6,1.11,1.6l.3,0,6.2-1a2.63,2.63,0,0,0,2.1-2.13l.29-1.56.91-.11,1.59,6.35-12.24,9.41-4,.63a9,9,0,0,1-1.53.13c-5.3,0-8.89-4.62-7.79-10.54l3.33-17.95C668.07,16.65,674.62,10,680.74,9l12-1.91A10,10,0,0,1,694.25,7m0-7a16.5,16.5,0,0,0-2.61.21l-12,1.9C670.56,3.55,661.74,12.4,660,21.84l-3.33,18a16.39,16.39,0,0,0,3.23,13.54,14.78,14.78,0,0,0,11.44,5.28A16.75,16.75,0,0,0,674,58.4l4-.64a6.94,6.94,0,0,0,3.16-1.36L693.37,47a7,7,0,0,0,2.52-7.26l-1.6-6.35a7,7,0,0,0-3.51-4.48L702.67,27a7,7,0,0,0,5.78-5.62l.48-2.57A16.35,16.35,0,0,0,705.7,5.28,14.79,14.79,0,0,0,694.25,0Zm-8.66,28.27v-.08l.11.06-.12,0Z" fill="#fff"/><path d="M699.14,33.21h0m0,0-.43,2.28a10,10,0,0,1-.72,2.12L694.14,34l5-.79m0-7h-.23a7.9,7.9,0,0,0-1,.1l-4.87.78a7,7,0,0,0-3.69,12l3.85,3.6a7,7,0,0,0,4.78,1.9,7.49,7.49,0,0,0,1.33-.13,7,7,0,0,0,5-3.92,17.49,17.49,0,0,0,1.2-3.53,1.84,1.84,0,0,0,.05-.25l.39-2.05a7,7,0,0,0-6.73-8.52Zm0,14h0Z" fill="#fff"/><path d="M821.16,50.68h12.3q5.43,0,10.88,0a10.47,10.47,0,0,1,6,2.2,11.54,11.54,0,0,1,4.21,5.53,11.17,11.17,0,0,1,.63,5.46,12.34,12.34,0,0,1-2.1,5.6,11.75,11.75,0,0,1-7.49,4.86,7.31,7.31,0,0,1-1.14.1H821.15c-.47,0-.6-.11-.6-.6q0-11.3,0-22.6c0-.49.14-.6.61-.6m3.58,1.76h-2c-.42,0-.56.09-.56.54q0,9.66,0,19.33c0,.44.11.55.54.55H840l4.49,0a8.41,8.41,0,0,0,3.9-1.15A9,9,0,0,0,851,69.48a12.94,12.94,0,0,0,1.57-2.43h0a10.66,10.66,0,0,0,.94-5.31,8.41,8.41,0,0,0-.48-2.33A10.11,10.11,0,0,0,850,55a9,9,0,0,0-6-2.48q-4.75,0-9.51,0h-9.8m-3.58-8.76a7.44,7.44,0,0,0-7.61,7.6c0,7.5,0,15.1,0,22.58a7.42,7.42,0,0,0,7.6,7.62h23.31a12.91,12.91,0,0,0,2.4-.22,18.56,18.56,0,0,0,12-7.77,19.43,19.43,0,0,0,3.29-8.7,18.8,18.8,0,0,0-7.62-17.48,17.44,17.44,0,0,0-9.88-3.58h-.25c-3.89,0-7.71,0-10.93,0h-12.3Zm8,15.75h5.35c3.78,0,6.67,0,9.38,0a2,2,0,0,1,1.3.55l.28.25a3.25,3.25,0,0,1,.94,1.39.76.76,0,0,0,0,.11,1.64,1.64,0,0,1,.09.44v.08a3.83,3.83,0,0,1-.29,1.74,5.83,5.83,0,0,1-.65,1,2.19,2.19,0,0,1-.6.49,1.71,1.71,0,0,0-.23.13,1.56,1.56,0,0,1-.6.19l-4.25,0H829.19V59.43Z" fill="#fff"/><path d="M871.37,55.23h10.4q4.46,0,8.89,0l.28,0A3.17,3.17,0,0,1,894,57.66a3.09,3.09,0,0,1-1.88,3.56,6.76,6.76,0,0,1-2,.32H871.46c-.44,0-.57-.11-.56-.57,0-1.75,0-3.5,0-5.24,0-.37.08-.5.47-.5m2,4.57h17.25a2.34,2.34,0,0,0,1.21-.33h0a1.31,1.31,0,0,0-.6-2.47H873.17c-.41,0-.56.1-.52.54a9.52,9.52,0,0,1,0,1.51c-.06.58.1.77.71.77m-2-11.57A7.45,7.45,0,0,0,866,50.39a7.35,7.35,0,0,0-2.14,5.37c0,1.55,0,3.33,0,5.1a7.39,7.39,0,0,0,7.56,7.68h18.63a13.39,13.39,0,0,0,4.21-.67l.38-.13a10.12,10.12,0,0,0,6.15-11.67V56a10.14,10.14,0,0,0-9.88-7.77l-.47,0-8.7,0h-10.4Z" fill="#fff"/><path d="M985.47,43.56c1,0,2,0,2.94,0h.14a4.37,4.37,0,0,1,4.32,3.68,4.57,4.57,0,0,1-3,5.43,4,4,0,0,1-1.24.2h-3.32l-.15,0a.69.69,0,0,0-.61.37h8c.34,0,.5,0,.49.46,0,1.07,0,2.14,0,3.21,0,.39-.12.54-.52.54H979.24c-.34,0-.42-.11-.42-.43,0-1.17-.06-2.33,0-3.49A4.43,4.43,0,0,1,982,49.15a5.16,5.16,0,0,1,1.41-.19h0c.47,0,1,0,1.42,0h2c.79,0,1-.16,1-.64s-.35-.65-1-.65h-3.22c-1,0-2,0-3,0h0c-.41,0-.54-.11-.53-.55,0-1,0-1.9,0-2.85,0-.48.16-.7.66-.7h.68l4.14,0m-4.17,3.3h0l2,0h2.84a7.5,7.5,0,0,1,1.34.11,1.41,1.41,0,0,1-.19,2.8H984a9.74,9.74,0,0,0-1.87.21,3.57,3.57,0,0,0-2.4,2.65,19,19,0,0,0-.25,3.45c0,.51.12.7.65.7h0c.85,0,1.69,0,2.54,0h9.08c.25,0,.33-.16.31-.46h0a15.88,15.88,0,0,1,0-1.69c0-.41-.08-.56-.5-.56h0c-.82,0-1.63,0-2.45,0h-5.59c-.34,0-.44-.13-.42-.48a1.79,1.79,0,0,1,1.74-1.51h3.92a1.84,1.84,0,0,0,.33,0l.28-.07A3.78,3.78,0,0,0,992,47.31a3.56,3.56,0,0,0-2.72-2.71,5.6,5.6,0,0,0-1.47-.2h-6.3c-.49,0-.74.13-.69.68a6.22,6.22,0,0,1,0,1.22c0,.42.08.56.5.56m4.17-10.3h-4.78a7.52,7.52,0,0,0-7.7,7.83c0,1,0,1.73,0,2.45a8.06,8.06,0,0,0,.06,1.41,11.38,11.38,0,0,0-1.21,5.11c-.05.89,0,1.71,0,2.45,0,.37,0,.73,0,1.1a7.3,7.3,0,0,0,7.42,7.53h13.15a7.39,7.39,0,0,0,7.54-7.69c0-.78,0-1.83,0-2.85a7.75,7.75,0,0,0-.35-2.55,11.47,11.47,0,0,0,.15-5.47,11.34,11.34,0,0,0-11.19-9.3h-.1c-.89,0-1.84,0-3,0Z" fill="#fff"/><path d="M859.77,59.52A5,5,0,0,1,862,60h0a3.13,3.13,0,0,1,1.67,3.33,3.18,3.18,0,0,1-2.8,2.83,2.28,2.28,0,0,1-.77.14h-.21c-2.11-.09-3.29-.9-3.82-2.46a3.42,3.42,0,0,1,3.21-4.32l.51,0m.11,5.06.62,0a1.38,1.38,0,0,0,1.31-1h0a1.53,1.53,0,0,0-.28-1.7,1.56,1.56,0,0,0-1.25-.44h-1.39a1.48,1.48,0,0,0-1.38,1.46,1.71,1.71,0,0,0,1,1.56,5.8,5.8,0,0,0,1.32.14m-.11-12.06c-.33,0-.66,0-1,0a10.42,10.42,0,0,0-9.84,10.73,10.23,10.23,0,0,0,.35,2.4c0,.14.08.28.13.41,1.46,4.34,5.11,7,10,7.2.21,0,.42,0,.64,0a9.38,9.38,0,0,0,2.36-.31,10.23,10.23,0,0,0,8.14-8.7,10.06,10.06,0,0,0-5.44-10.54l-.08,0a12.13,12.13,0,0,0-5.29-1.22Z" fill="#fff"/><path d="M835.46,55.23c2.31,0,4.63,0,6.94,0a6.67,6.67,0,0,1,4,1.62,7.12,7.12,0,0,1,2.68,6.61,7.33,7.33,0,0,1-4.93,6.27,4.64,4.64,0,0,1-1.57.28H826.94c-.41,0-.57-.08-.56-.56q0-6.84,0-13.69c0-.47.13-.57.57-.57h8.51M830.33,57h-1.69c-.41,0-.51.11-.51.51q0,5.19,0,10.37c0,.5.18.56.6.56h13.93l.28,0,.18,0a5.72,5.72,0,0,0,4.33-6.84A5.19,5.19,0,0,0,842.3,57H842c-1.77,0-3.54,0-5.31,0h-6.34m5.13-8.75H827a7.39,7.39,0,0,0-7.6,7.6c0,4.52,0,9.11,0,13.63a7.38,7.38,0,0,0,7.56,7.59h15.64a11.4,11.4,0,0,0,3.92-.69A14.34,14.34,0,0,0,856,64.29a14.12,14.12,0,0,0-5.2-12.8,13.66,13.66,0,0,0-8.06-3.21h-.28c-2.59,0-5.12,0-7,0Z" fill="#fff"/><path d="M865.55,50.57h21.32l5.36,0a7.89,7.89,0,0,1,7.6,6.09,7.62,7.62,0,0,1-.51,4.91,6.33,6.33,0,0,1-1.06,1.81h0a.49.49,0,0,0,0,.7,9.52,9.52,0,0,1,1.69,4.18h0a10.57,10.57,0,0,1,.13,1.49c0,1.4,0,2.8,0,4.2,0,.35-.06.5-.45.5h-6.79c-.38,0-.47-.12-.47-.49,0-1.65,0-3.3,0-4.95a2.64,2.64,0,0,0-2.21-2.51,10.62,10.62,0,0,0-1.48-.1H873.25c-.46,0-.61.09-.61.59,0,2.29,0,4.58,0,6.88,0,.48-.14.59-.58.59h0l-3.22,0-3.36,0h0c-.39,0-.5-.12-.5-.52q0-11.41,0-22.84c0-.49.18-.55.6-.55m1.68,22.28h.08c.48,0,1,0,1.43,0s1,0,1.54,0h.05c.37,0,.47-.12.47-.52,0-2.33,0-4.66,0-7,0-.5.1-.68.64-.68h0c3.42,0,6.84,0,10.26,0h7.73a6.21,6.21,0,0,1,2,.35,4.39,4.39,0,0,1,2.65,3.69c0,1.22,0,2.45,0,3.67,0,.33.07.47.41.47h0c.53,0,1.07,0,1.6,0s1.07,0,1.6,0h0c.35,0,.41-.14.41-.47,0-1.21,0-2.41,0-3.61a5.78,5.78,0,0,0-.71-2.73,6.92,6.92,0,0,0-1.3-1.86c-.45-.46-.27-.68.08-1a6.23,6.23,0,0,0-4-10.82q-2.5,0-5,0l-7.34,0h-6.4c-2,0-4,0-6.07,0h0c-.61,0-.76.2-.71.77s0,1.13,0,1.69c0,5.83,0,11.65,0,17.48,0,.46.12.6.53.6m-1.67-29.28h0a7.41,7.41,0,0,0-7.6,7.55c0,7.6,0,15.28,0,22.83a7.36,7.36,0,0,0,7.5,7.53h.09l3.29,0,3.14,0h.12a7.4,7.4,0,0,0,7.58-7.67c0-.13,0-.26,0-.38h5.69c0,.16,0,.32,0,.48a7.35,7.35,0,0,0,7.47,7.57h6.79a7.35,7.35,0,0,0,7.45-7.58c0-.7,0-1.38,0-2.06s0-1.43,0-2.14a19.43,19.43,0,0,0-.2-2.45,17,17,0,0,0-.88-3.38,14.67,14.67,0,0,0,.69-8.76,14.87,14.87,0,0,0-14.33-11.52l-5.45,0H865.56Z" fill="#fff"/><path d="M912.38,50.68l.69,0h15.8a10.85,10.85,0,0,1,4.5,1.13,10.65,10.65,0,0,1,3.37,2.42,12.06,12.06,0,0,1,3.18,6.39,11.67,11.67,0,0,1-.85,6.7,11.53,11.53,0,0,1-3.76,4.73,11.94,11.94,0,0,1-4.46,2.09,10,10,0,0,1-2.32.31l-9,0-6.95,0a11.77,11.77,0,0,1-4.5-.9,11.9,11.9,0,0,1,2.52-22.76,13.34,13.34,0,0,1,1.79-.12m3,1.64h-2.87a10.68,10.68,0,0,0-2.33.28,9.58,9.58,0,0,0-5.7,3.68,10.13,10.13,0,0,0-1.42,10,10,10,0,0,0,9.34,6.49h.14c1,0,2,0,3,0l4.88,0h7.67A13.07,13.07,0,0,0,931,72.4a9.58,9.58,0,0,0,3.85-2,10,10,0,0,0,3.38-5.77,10.43,10.43,0,0,0-.7-6.33,10,10,0,0,0-2.71-3.57,9.2,9.2,0,0,0-5.87-2.35c-2.29,0-4.58,0-6.86,0h-6.7m-3-8.64a19.41,19.41,0,0,0-2.74.19l-.21,0a18.91,18.91,0,0,0,3.11,37.56l7,0,9,0h.1a16.4,16.4,0,0,0,3.88-.52,18.88,18.88,0,0,0,14.29-21.45,18.93,18.93,0,0,0-5-10.06,17.49,17.49,0,0,0-5.45-3.93,17.87,17.87,0,0,0-7.32-1.8H913.21l-.83,0Zm3,15.64h6.7c2.7,0,4.77,0,6.68,0a2.17,2.17,0,0,1,1.37.55l.21.19a2.89,2.89,0,0,1,.8,1.06,3.4,3.4,0,0,1,.22,2.05.3.3,0,0,0,0,.1,2.94,2.94,0,0,1-1,1.71l-.07.06a2.49,2.49,0,0,1-.94.52,6.55,6.55,0,0,1-1.25.13H915.5c-1.18,0-2.16,0-3.09,0a3,3,0,0,1-2.81-1.93l-.06-.15a3.14,3.14,0,0,1,.44-3.07l.12-.16a2.55,2.55,0,0,1,1.52-1l.18,0a2.74,2.74,0,0,1,.7-.09Z" fill="#fff"/><path d="M949.26,50.58h21a7.36,7.36,0,0,1,4.87,1.84,7.57,7.57,0,0,1,2.76,6q0,7.66,0,15.33c0,.46-.11.61-.57.61h0q-1.63,0-3.27,0l-3.26,0h0c-.47,0-.55-.17-.55-.63,0-4.69,0-9.39,0-14.09a2.7,2.7,0,0,0-2.46-2.82c-1.36-.08-2.71,0-4.06-.08h-.06c-.34,0-.3.24-.3.48v4.84c0,3.94,0,7.88,0,11.82,0,.43-.08.59-.54.59h0l-3.19,0-3.05,0h0c-.45,0-.55-.14-.55-.58,0-5.5,0-11,0-16.49,0-.48-.1-.67-.56-.67h-.1c-.34,0-.68,0-1,0h-2.09a4.56,4.56,0,0,0-1.59.29,2.51,2.51,0,0,0-1.52,2.47q0,7.11,0,14.22c0,.5-.13.62-.59.62h-6.64c-.37,0-.48-.1-.48-.48,0-5.42,0-10.84,0-16.25a6.75,6.75,0,0,1,1.77-4.24A7.53,7.53,0,0,1,947,50.9a8.23,8.23,0,0,1,2.26-.32m6.12,1.75h-5.74a9.39,9.39,0,0,0-2.41.32,5.66,5.66,0,0,0-4.05,5c0,4.87,0,9.75,0,14.62,0,.34.11.42.41.42h0l1.75,0c.47,0,.93,0,1.4,0h.1c.43,0,.54-.17.53-.64,0-4.14,0-8.28,0-12.41a4.69,4.69,0,0,1,.69-2.5,4.38,4.38,0,0,1,3.71-2.06h.1l1.61,0h3.65c.5,0,.63.15.63.69,0,5.48,0,11,0,16.43,0,.44.07.62.5.62h.09l1.31,0c.44,0,.88,0,1.31,0H961c.46,0,.55-.2.55-.68,0-5.5,0-11,0-16.49,0-.44.1-.58.54-.58h5.39a4.69,4.69,0,0,1,2.39.68,4.3,4.3,0,0,1,2.05,3.81c0,4.2,0,8.39,0,12.59,0,.38.08.52.47.52h0l1.63,0c.51,0,1,0,1.51,0h.07c.43,0,.5-.18.49-.6,0-4.67,0-9.36,0-14a5.33,5.33,0,0,0-.74-2.83,5.78,5.78,0,0,0-5-2.93c-1.46,0-2.91,0-4.37,0l-6.35,0h-4.31m-6.12-8.75h0a15.2,15.2,0,0,0-4.19.59,14.48,14.48,0,0,0-7.16,4.64,13.8,13.8,0,0,0-3.46,8.48c0,.09,0,.17,0,.25,0,3.6,0,7.23,0,10.75v5.57a7.33,7.33,0,0,0,7.48,7.5h6.64a8,8,0,0,1,8,.12h.11l3,0,3.09,0h.12a7.87,7.87,0,0,1,7.94-.11h.17l3.13,0,3.17,0h.13a7.43,7.43,0,0,0,7.57-7.66c0-5,0-10.15,0-15.2a14.49,14.49,0,0,0-5.23-11.42,14.3,14.3,0,0,0-9.4-3.51h-21Z" fill="#fff"/><path d="M798.05,50.68h8.28l11.85,0h0c.48,0,.66.08.65.62q-.06,2.56,0,5.13c0,.47-.14.57-.58.57H797.33a5.4,5.4,0,0,0-3.53,1.49,5.47,5.47,0,0,0-1.88,3.87,5.33,5.33,0,0,0,1.16,3.8,5.71,5.71,0,0,0,4.55,2.27h.15c6.8,0,13.59,0,20.39,0h0c.53,0,.64.16.64.67,0,1.63,0,3.26,0,4.89,0,.41-.1.52-.51.52H800.06l-4.07,0a11.3,11.3,0,0,1-7.59-2.94,10.85,10.85,0,0,1-3.68-6.46,11.86,11.86,0,0,1,1.08-7.81,12.24,12.24,0,0,1,3.81-4.43,10.7,10.7,0,0,1,4.67-1.89,28,28,0,0,1,3.77-.25m-1.83,1.77H796a7.82,7.82,0,0,0-1.6.16,8.52,8.52,0,0,0-.84.2,10.29,10.29,0,0,0-7,12.75,9.27,9.27,0,0,0,3.12,4.88A9.68,9.68,0,0,0,796,72.83l3.9,0h16.62c.49,0,.62-.15.58-.62a9.15,9.15,0,0,1,0-1.57c0-.52-.13-.63-.63-.63h-19.3a6.57,6.57,0,0,1-1.08-.1,6.71,6.71,0,0,1-4.24-2.64,7.28,7.28,0,0,1-1-7.29,7.41,7.41,0,0,1,6.66-4.66c.4,0,.8,0,1.19,0h17.76c.54,0,.68-.16.64-.68h0a9.74,9.74,0,0,1,0-1.62c0-.52-.13-.64-.64-.64-6.74,0-13.48,0-20.22,0m1.83-8.77a36.38,36.38,0,0,0-4.67.3l-.15,0a18,18,0,0,0-7.69,3.12,19.3,19.3,0,0,0-6,7,18.89,18.89,0,0,0-1.72,12.26,17.89,17.89,0,0,0,5.94,10.44A18.29,18.29,0,0,0,796,81.46l4.09,0h18.22a7.35,7.35,0,0,0,7.54-7.59c0-1.85,0-3.33,0-4.67a7.51,7.51,0,0,0-2.13-5.59,7,7,0,0,0-1.09-.92,7.35,7.35,0,0,0,3.23-6.37c0-1.9,0-3.44,0-4.87a7.61,7.61,0,0,0-2.1-5.54,7.5,7.5,0,0,0-5.55-2.25l-11.85,0h-8.28Z" fill="#fff"/><path d="M914.35,55.22l.47,0h11.92A7.29,7.29,0,0,1,933,58.84a6.86,6.86,0,0,1,1,4.59,7.27,7.27,0,0,1-2.33,4.64,7.36,7.36,0,0,1-4,1.86,15.47,15.47,0,0,1-1.92.12H914.19a7.54,7.54,0,0,1-5.59-2.47,7.41,7.41,0,0,1,2.12-11.52,8.46,8.46,0,0,1,3.63-.83m.09,13.19h9.47c.79,0,1.59,0,2.39,0h.21a6.22,6.22,0,0,0,4-1.5h0a5.51,5.51,0,0,0,1.81-5.6A5.65,5.65,0,0,0,927,56.87h-7.62l-6,0A5,5,0,0,0,909.5,59a5.61,5.61,0,0,0-1.19,4.56,5.7,5.7,0,0,0,2.53,3.87,6.86,6.86,0,0,0,3.6,1m-.09-20.19h0a15.46,15.46,0,0,0-6.66,1.52l-.09,0a14.4,14.4,0,0,0-4.19,22.48A14.6,14.6,0,0,0,914.19,77h11.58a23.57,23.57,0,0,0,2.78-.17h.12a14.43,14.43,0,0,0,7.69-3.61,14.26,14.26,0,0,0,4.58-9A13.89,13.89,0,0,0,939,55.23a14.35,14.35,0,0,0-12.29-7H915l-.67,0Z" fill="#fff"/><path d="M593.36,80.51a1.07,1.07,0,0,1-.43-.09c-13.84-6.73-21-14.56-20.67-22.66.26-6.67,5.7-13,15.74-18.21,9.52-5,23-8.92,38.84-11.42a1,1,0,0,1,1.11.81,1,1,0,0,1-.81,1.1C595,35.1,574.67,45.75,574.2,57.84c-.28,7.16,6.67,14.56,19.58,20.83a1,1,0,0,1,.44,1.3,1,1,0,0,1-.86.54Z"/><path d="M714,30.76h-.16a280.59,280.59,0,0,0-32.08-3.34,1,1,0,1,1,.08-1.93h0a284.6,284.6,0,0,1,32.31,3.35,1,1,0,0,1,.8,1.11,1,1,0,0,1-1,.82Z"/><path d="M683.48,96.25h-.8c.26,0,.54-.57.8-.57,51.95,0,92.94-13.79,93.48-31.14.19-6.07-4.68-12.38-14.11-18S740,36.21,724,32.81a1,1,0,0,1-.76-1.19,1,1,0,0,1,1.15-.76c16.26,3.44,29.91,8.26,39.48,13.92,10.06,6,15.27,12.72,15,19.54-.28,9.23-10.48,17.24-28.7,23.28C732.58,93.44,708.91,96.25,683.48,96.25Z"/><polygon points="701.06 46.51 726.69 26.98 696.59 39 688.13 30.2 690.83 42.39 665.21 61.93 695.31 49.91 703.76 58.72 701.06 46.51"/><path d="M669,70.91c.36-1.82,1-1.55,2.86-1.84l1.71-.27L673,71.64l-1.71.27C669.48,72.21,668.67,72.69,669,70.91Zm-3.71-2.61-1.33,7.14c-.36,2,.23,2.59,2.11,2.29L676.92,76l2.33-12.53-10.88,1.72A3.29,3.29,0,0,0,665.27,68.3ZM734.3,57l-.12.69,11.22-1.79a2.57,2.57,0,0,0,1.92-2c.18-1-.39-1.64-1.28-1.5l-2.88.46-4.6.73-1.16.18A4.36,4.36,0,0,0,734.3,57ZM655.6,89.34l.1-.5a6.1,6.1,0,0,0,1.35.11l11.66-1.83c-.44,2.33-3.51,2.91-8.2,3.65l-5.33.84L652.32,107l7-1.11c17.26-1.71,23.82-10.62,25.93-21.26l21-3.33,3.39-18.24,1.71-.27c1.88-.3,1.6-.63,1.23,1.31l-3.1,16.68,15.1-2.39.21-1.1a7,7,0,0,0,3.88.45l26.1-4.14,2.45-13.11-1.7-1.21a13.19,13.19,0,0,0,2.94-5.64l.41-2.06c1.31-7.73-5.82-9.79-9.08-9.27l-15,2.38a13.87,13.87,0,0,0-7.7,4.72A8.75,8.75,0,0,0,720.38,47L703.7,49.63l1.87,4.13,15-2.39c2.17-.34,3.62.52,4,2.24-.16.45-4,21-4,21l-5.4.86,2.89-15.55c.36-1.95-.23-2.58-2.1-2.28l-10.33,1.65-3.4,18.23-5.93.94,3.89-20.87-4.89-5.76-17.57,6.35,8.33-1.32.13,0L681,85.32c-1.35,7.24-9.07,14.15-15.92,15.24l-7,1.11L659.08,96l5.33-.85c4.7-.74,10-5.44,10.87-10.34l.58-3.09L662,83.9c-3,.48-4.6-1.33-4-4.48L660.46,66a7.58,7.58,0,0,1,3.92-5.38l0-.36,7-5.36-4.07.68a15.26,15.26,0,0,0-8.73,5.22,8.74,8.74,0,0,0-7.2-2.9l-15,2.38,2.45-13.11,10.91-1.73c5.81-.93,12.25-7.46,13.38-13.6L664.79,23c1.14-6.14-3.18-11-9-10l-23.87,3.79-5.08,27.35-22,3.49a5.32,5.32,0,0,0-4,4.09l-8.22,44.17c-.36,2,.86,3.32,2.71,3l41.93-6.65L640.66,74l1.71-.27c1.88-.3,1.6-.64,1.24,1.31l-3.1,16.68Zm-31.11-10-14,2.23.53-2.84,11.32-1.8,2.76-14.82-11.32,1.8.53-2.85,14-2.22Zm-.84,4.57-1.17,6.27-24.8,3.93,7.73-41.6,20.49-3.25L624.84,55l-14.56,2.31-2.22,12,11.86-1.88L618.86,73,607,74.92l-2.23,12Zm28.49,1.56-5.93.94,2.88-15.54c.37-2-.22-2.58-2.1-2.28l-10.34,1.64-3.39,18.24-5.93.94,4.45-23.93.14,0,19.68-3.12c3-.47,4.59,1.33,4,4.48Zm38.55-29.34,5.8-.92L692,79.14l-5.93.93,4.45-23.93Zm36,11.28,2.05-11.07a10.39,10.39,0,0,1,7.63-7.45l13.86-2.2c2.34-.37,4,2.24,3.49,4.79L753,55a7.69,7.69,0,0,1-5.42,5.64L733.19,63l-.2,1.29a1.86,1.86,0,0,0,1.21,2.34,2,2,0,0,0,.84.06l16.09-2.56-1.08,5.84-18.16,2.88a4.44,4.44,0,0,1-5.26-3.41A4.36,4.36,0,0,1,726.67,67.4Zm-85.82-31,2-10.82,7.54-1.21c1-.15,1.5.41,1.3,1.46l-1.37,7.41a2.35,2.35,0,0,1-1.93,2Z"/><path d="M689.1,41.44l-1.59-6.35-.91.11-.29,1.56a2.63,2.63,0,0,1-2.1,2.13l-6.2,1c-1,.16-1.61-.49-1.41-1.58l3.13-16.8a2.64,2.64,0,0,1,2.09-2.14l6.21-1c1-.17,1.6.49,1.4,1.57l-.4,2.14,12.54-2,.48-2.56c1.2-6.47-3.19-11.38-9.32-10.42L680.74,9c-6.12,1-12.67,7.62-13.88,14.09l-3.33,18c-1.2,6.47,3.19,11.39,9.32,10.41l4-.63Z"/><path d="M698,37.61a10,10,0,0,0,.72-2.12l.43-2.28-5,.79Z"/><path d="M975.14,52.42a7.33,7.33,0,0,0-5-1.84h-20.8a7.93,7.93,0,0,0-2.37.32,7.53,7.53,0,0,0-3.79,2.49,6.75,6.75,0,0,0-1.77,4.24c-.06,5.41,0,10.83,0,16.25,0,.39.11.48.49.48,2.19,0,4.39,0,6.58,0,.5,0,.65-.1.64-.62q0-7.11,0-14.22a2.51,2.51,0,0,1,1.52-2.47,4.52,4.52,0,0,1,1.74-.29c1,0,2,0,3,0,.55,0,.66.16.66.67,0,5.5,0,11,0,16.49,0,.45.1.59.57.58q3.12,0,6.24,0c.48,0,.56-.15.56-.59,0-3.94,0-7.88,0-11.82V57.23c0-.26-.05-.5.36-.48,1.35.08,2.7,0,4.06.08a2.7,2.7,0,0,1,2.46,2.82c0,4.7,0,9.4,0,14.09,0,.47.08.63.59.63,2.18,0,4.35,0,6.53,0,.49,0,.6-.14.6-.61q0-7.67,0-15.33A7.57,7.57,0,0,0,975.14,52.42Zm.45,20.31c-1,0-2.09,0-3.14,0-.42,0-.51-.12-.51-.52,0-4.2,0-8.39,0-12.59a4.3,4.3,0,0,0-2.05-3.81,4.69,4.69,0,0,0-2.39-.68c-1.78,0-3.57,0-5.36,0-.46,0-.57.13-.57.58,0,5.5,0,11,0,16.49,0,.51-.11.7-.66.67a22.9,22.9,0,0,0-2.62,0c-.51,0-.59-.15-.59-.62,0-5.48,0-11,0-16.43,0-.57-.14-.7-.7-.69-1.73,0-3.46,0-5.19,0a4.4,4.4,0,0,0-3.81,2.06,4.69,4.69,0,0,0-.69,2.5c0,4.13,0,8.27,0,12.41,0,.51-.11.66-.63.63-1,0-2.1,0-3.15,0-.31,0-.43-.07-.43-.42,0-4.87,0-9.75,0-14.62a5.66,5.66,0,0,1,4.05-5,9.54,9.54,0,0,1,2.55-.32h9.91c3.57,0,7.15,0,10.72,0a5.78,5.78,0,0,1,5,2.93,5.33,5.33,0,0,1,.74,2.83c0,4.68,0,9.37,0,14,0,.44-.07.61-.56.59ZM818.18,50.68q-9.64,0-19.29,0a29.62,29.62,0,0,0-4.61.24,10.7,10.7,0,0,0-4.67,1.89,12.24,12.24,0,0,0-3.81,4.43,11.86,11.86,0,0,0-1.08,7.81,10.85,10.85,0,0,0,3.68,6.46A11.3,11.3,0,0,0,796,74.46c3.6,0,7.19,0,10.78,0,3.85,0,7.69,0,11.54,0,.41,0,.52-.11.51-.52,0-1.63,0-3.26,0-4.89,0-.51-.11-.68-.66-.67-6.8,0-13.59,0-20.39,0a5.73,5.73,0,0,1-4.7-2.27,5.33,5.33,0,0,1-1.16-3.8,5.47,5.47,0,0,1,1.88-3.87A5.4,5.4,0,0,1,797.33,57q10.45,0,20.91,0c.45,0,.59-.1.59-.57q-.06-2.57,0-5.13c0-.54-.17-.62-.65-.62Zm-1.11,4c0,.52-.1.68-.65.68-5.28,0-10.56,0-15.85,0-1,0-2.06,0-3.09,0A7.41,7.41,0,0,0,790.82,60a7.28,7.28,0,0,0,1,7.29,6.71,6.71,0,0,0,4.24,2.64,5.64,5.64,0,0,0,1.08.1c6.43,0,12.86,0,19.29,0,.51,0,.69.11.64.63a9.15,9.15,0,0,0,0,1.57c0,.48-.09.62-.59.62-3.52,0-7,0-10.55,0-3.32,0-6.64,0-10,0a9.68,9.68,0,0,1-6.32-2.39,9.27,9.27,0,0,1-3.12-4.88,10.29,10.29,0,0,1,7-12.75,8.52,8.52,0,0,1,.84-.2,7.51,7.51,0,0,1,1.83-.16c6.74,0,13.48,0,20.22,0,.51,0,.68.12.64.64a9.74,9.74,0,0,0,0,1.62Zm82.84,13.6a9.52,9.52,0,0,0-1.69-4.18.49.49,0,0,1,0-.7h0a6.33,6.33,0,0,0,1.06-1.81,7.62,7.62,0,0,0,.51-4.91,7.89,7.89,0,0,0-7.6-6.09c-4.35,0-8.7,0-13.05,0H865.55c-.42,0-.6.06-.6.55q0,11.42,0,22.84c0,.41.11.52.52.52,2.19,0,4.39,0,6.58,0,.47,0,.62-.09.62-.59,0-2.3,0-4.59,0-6.88,0-.5.15-.59.62-.59h15.21a10.4,10.4,0,0,1,1.67.1A2.64,2.64,0,0,1,892.35,69c0,1.65,0,3.3,0,4.95,0,.37.1.49.48.49q3.39,0,6.76,0c.41,0,.47-.15.47-.5,0-1.4,0-2.8,0-4.2a10.57,10.57,0,0,0-.13-1.49Zm-2.17,4.56c-1.06,0-2.13,0-3.2,0-.38,0-.45-.12-.45-.47,0-1.22,0-2.45,0-3.67A4.39,4.39,0,0,0,891.46,65a6.4,6.4,0,0,0-2.08-.35q-9,0-18,0c-.55,0-.66.16-.65.67,0,2.33,0,4.66,0,7,0,.42-.11.53-.52.52-1,0-2,0-3,0-.48,0-.61-.11-.61-.6,0-5.83,0-11.65,0-17.48,0-.56,0-1.13,0-1.69s.11-.77.74-.77c4.15,0,8.31,0,12.47,0s8.23,0,12.35,0a6.23,6.23,0,0,1,4,10.82c-.35.34-.53.56-.08,1a6.92,6.92,0,0,1,1.3,1.86,5.78,5.78,0,0,1,.71,2.73c0,1.2,0,2.4,0,3.61,0,.34-.07.48-.45.47ZM850.35,52.92a10.47,10.47,0,0,0-6-2.2c-7.72-.06-15.45,0-23.18,0-.47,0-.61.11-.61.6q0,11.3,0,22.6c0,.49.13.6.61.6,3.94,0,7.88,0,11.82,0h11.36a6.69,6.69,0,0,0,1.26-.1,11.75,11.75,0,0,0,7.49-4.86,12.34,12.34,0,0,0,2.1-5.6,11.17,11.17,0,0,0-.63-5.46A11.54,11.54,0,0,0,850.35,52.92Zm2.26,14.13A12.94,12.94,0,0,1,851,69.48a9,9,0,0,1-2.69,2.19,8.41,8.41,0,0,1-3.9,1.15c-3.59.05-7.18,0-10.77,0s-7.3,0-10.95,0c-.44,0-.55-.11-.55-.55q0-9.66,0-19.33c0-.45.14-.54.56-.54,7.1,0,14.21,0,21.31,0A9,9,0,0,1,850,55a10.11,10.11,0,0,1,3,4.46,8.41,8.41,0,0,1,.48,2.33,10.66,10.66,0,0,1-.94,5.31Zm84.13-12.81a10.65,10.65,0,0,0-3.37-2.42,10.85,10.85,0,0,0-4.5-1.13c-2.84,0-5.68,0-8.51,0-2.43,0-4.86,0-7.29,0a13.73,13.73,0,0,0-2.48.1,11.91,11.91,0,0,0-2.52,22.76,11.77,11.77,0,0,0,4.5.9c5.32,0,10.64,0,16,0a10,10,0,0,0,2.32-.31,11.94,11.94,0,0,0,4.46-2.09,11.53,11.53,0,0,0,3.76-4.73,11.67,11.67,0,0,0,.85-6.7A12.06,12.06,0,0,0,936.74,54.24Zm1.46,10.37a10,10,0,0,1-3.38,5.77,9.58,9.58,0,0,1-3.85,2,13.16,13.16,0,0,1-3.37.32h-7.22c-2.62,0-5.25,0-7.86,0A10,10,0,0,1,903,66.24a10.13,10.13,0,0,1,1.42-10,9.58,9.58,0,0,1,5.7-3.68,10.68,10.68,0,0,1,2.33-.28c5.47,0,11-.05,16.43,0a9.2,9.2,0,0,1,5.87,2.35,10,10,0,0,1,2.71,3.57,10.43,10.43,0,0,1,.7,6.33Zm54.23-11.36c-2.41,0-4.81,0-7.22,0h-.71a.68.68,0,0,1,.76-.35h3.32a4,4,0,0,0,1.24-.2,4.57,4.57,0,0,0,3-5.43,4.38,4.38,0,0,0-4.46-3.68c-2.58-.08-5.17,0-7.75,0-.51,0-.68.21-.67.7,0,.95,0,1.9,0,2.85,0,.45.12.55.55.55,2.08,0,4.16,0,6.23,0,.69,0,1,.22,1,.65s-.26.64-1,.64c-1.13,0-2.25,0-3.38,0a5.16,5.16,0,0,0-1.41.19,4.43,4.43,0,0,0-3.12,4.39c-.08,1.16,0,2.32,0,3.49,0,.32.08.43.42.43H992.4c.41,0,.54-.14.54-.54,0-1.07,0-2.14,0-3.21,0-.41-.16-.46-.51-.46Zm-.31,3.06c0,.36-.09.51-.45.45h-5.83c-1.88,0-3.76,0-5.65,0-.55,0-.68-.18-.68-.7a19,19,0,0,1,.25-3.45,3.57,3.57,0,0,1,2.4-2.65,9.74,9.74,0,0,1,1.87-.21c1.1,0,2.21,0,3.32,0a1.41,1.41,0,0,0,.19-2.8,7.83,7.83,0,0,0-1.6-.11c-1.54,0-3.07,0-4.6,0-.46,0-.58-.13-.54-.56a6.22,6.22,0,0,0,0-1.22c0-.55.21-.69.71-.68h6.28a5.6,5.6,0,0,1,1.47.2A3.56,3.56,0,0,1,992,47.31,3.78,3.78,0,0,1,989.4,52l-.28.07a1.78,1.78,0,0,1-.46,0h-3.79a1.79,1.79,0,0,0-1.74,1.51c0,.37.09.5.48.48.76,0,1.51,0,2.27,0,1.9,0,3.81,0,5.71,0,.45,0,.56.13.53.56a15.88,15.88,0,0,0,0,1.69ZM862,60a5,5,0,0,0-2.72-.49,3.42,3.42,0,0,0-3.21,4.32c.53,1.56,1.71,2.37,3.82,2.46a2.35,2.35,0,0,0,1-.13,3.18,3.18,0,0,0,2.8-2.83A3.13,3.13,0,0,0,862,60Zm-.17,3.53a1.38,1.38,0,0,1-1.31,1,6,6,0,0,1-1.94-.11,1.71,1.71,0,0,1-1-1.56,1.48,1.48,0,0,1,1.38-1.46h.82c.59,0,1.27-.14,1.82.44a1.53,1.53,0,0,1,.28,1.7Zm28.85-8.3c-6.43,0-12.86,0-19.29,0-.39,0-.47.13-.47.5,0,1.74,0,3.49,0,5.24,0,.46.12.58.57.57,3.21,0,6.41,0,9.62,0h8.68a6.56,6.56,0,0,0,2.37-.31A3.09,3.09,0,0,0,894,57.66,3.17,3.17,0,0,0,890.66,55.26Zm1.16,4.2a2.3,2.3,0,0,1-1.25.33q-8.6,0-17.19,0c-.63,0-.79-.19-.73-.77a9.52,9.52,0,0,0,0-1.51c0-.45.12-.55.55-.54,3,0,6,0,9,0h9a1.31,1.31,0,0,1,.62,2.47ZM846.4,56.89a6.67,6.67,0,0,0-4-1.62c-5.15-.08-10.3,0-15.44,0-.45,0-.58.1-.58.57q0,6.84,0,13.69c0,.49.16.56.59.56,2.6,0,5.2,0,7.81,0s5.12,0,7.69,0a4.6,4.6,0,0,0,1.68-.28,7.33,7.33,0,0,0,4.93-6.27A7.12,7.12,0,0,0,846.4,56.89ZM842.93,68.4a2.34,2.34,0,0,1-.46,0h-6.82c-2.31,0-4.62,0-6.93,0-.42,0-.6-.06-.6-.56q0-5.18,0-10.37c0-.4.1-.51.51-.51,4.45,0,8.9,0,13.34,0a5.19,5.19,0,0,1,5.46,4.51,5.72,5.72,0,0,1-4.33,6.84Zm83.48-13.16H914.82a8.42,8.42,0,0,0-4.1.81,7.41,7.41,0,0,0-2.12,11.52A7.55,7.55,0,0,0,914.43,70h10.66a16.12,16.12,0,0,0,2.6-.11,7.36,7.36,0,0,0,4-1.86A7.27,7.27,0,0,0,934,63.43a6.86,6.86,0,0,0-1-4.59,7.28,7.28,0,0,0-6.62-3.6Zm4.15,11.66a6.2,6.2,0,0,1-4.26,1.5c-2,0-4,0-5.94,0s-3.77,0-5.65,0a6.86,6.86,0,0,1-3.87-1,5.7,5.7,0,0,1-2.53-3.87A5.57,5.57,0,0,1,909.5,59a5,5,0,0,1,3.91-2.08c4.53,0,9.05,0,13.58,0a5.65,5.65,0,0,1,5.38,4.43,5.51,5.51,0,0,1-1.81,5.6Z" fill="#0f0f0f" fill-rule="evenodd"/></g></svg>