<svg xmlns="http://www.w3.org/2000/svg" xmlns:xlink="http://www.w3.org/1999/xlink" viewBox="0 0 659.7 317.8"><defs><path id="a" d="M0-152.9h439v470.7H0z"/></defs><clipPath id="b"><use xlink:href="#a" overflow="visible"/></clipPath><g transform="matrix(1.48114 0 0 -1.48114 0 317.81)" clip-path="url(#b)"><path fill="#CAC2B5" d="M154.6 74.8H44.8c-1.6 0-2.8 1.3-2.8 2.8v9c0 1.6 1.3 2.8 2.8 2.8h109.8c1.6 0 2.8-1.3 2.8-2.8v-9c0-1.5-1.3-2.8-2.8-2.8"/><path fill="#EFEDE1" d="M181.3 83.2H19.2c-1.6 0-2.8 1.3-2.8 2.8v125.7c0 1.6 1.3 2.8 2.8 2.8h162.1c1.6 0 2.8-1.3 2.8-2.8V86c0-1.6-1.3-2.8-2.8-2.8"/><path fill="#D8D5CB" d="M173.2 95.3H27.3c-.8 0-1.4.6-1.4 1.4V201c0 .8.6 1.4 1.4 1.4h145.8c.8 0 1.4-.6 1.4-1.4V96.7c.1-.8-.6-1.4-1.3-1.4"/></g><linearGradient id="c" gradientUnits="userSpaceOnUse" x1="-97.933" y1=".706" x2="-96.933" y2=".706" gradientTransform="rotate(-90 -6414.673 -6469.176) scale(133.2318)"><stop offset="0" stop-color="#fff424"/><stop offset=".108" stop-color="#fac308"/><stop offset=".227" stop-color="#fac308"/><stop offset=".497" stop-color="#f3812f"/><stop offset=".636" stop-color="#ee5233"/><stop offset=".856" stop-color="#ea2c35"/><stop offset="1" stop-color="#ea2c35"/></linearGradient><path fill="url(#c)" d="M70.3 30.7c-11.5 0-21 9.4-21 21v91.2c0 11.5 9.4 21 21 21h156.4c11.5 0 21-9.4 21-21V51.7c0-11.5-9.4-21-21-21H70.3z"/><defs><path id="d" d="M0-152.9h439v470.7H0z"/></defs><clipPath id="e"><use xlink:href="#d" overflow="visible"/></clipPath><g transform="matrix(1.48114 0 0 -1.48114 0 317.81)" clip-path="url(#e)"><path fill="none" stroke="#4F4C4D" stroke-width=".25" stroke-miterlimit="10" d="M153.1 103.9H47.4c-7.8 0-14.2 6.4-14.2 14.2v61.6c0 7.8 6.4 14.2 14.2 14.2H153c7.8 0 14.2-6.4 14.2-14.2v-61.6c0-7.8-6.3-14.2-14.1-14.2z"/><path fill="#E4DCCB" d="M141.4 65.9H57.9l4.5 8.9h74.5l4.5-8.9z"/><path fill="#EFEDE0" d="M159.5 57.5H41.9v8.4h117.6v-8.4z"/><path fill="#E4DCCB" d="M191.6 0H8.5C3.8 0 0 3.8 0 8.5V49c0 4.7 3.8 8.5 8.5 8.5h183.1c4.7 0 8.5-3.8 8.5-8.5V8.5c0-4.7-3.8-8.5-8.5-8.5"/><path fill="#C0BA9F" d="M14.1 15.4c-1.2 0-2.2 1-2.2 2.2v22.3c0 1.2 1 2.2 2.2 2.2s2.2-1 2.2-2.2V17.6c0-1.2-1-2.2-2.2-2.2m8.1 0c-1.2 0-2.2 1-2.2 2.2v22.3c0 1.2 1 2.2 2.2 2.2s2.2-1 2.2-2.2V17.6c0-1.2-1-2.2-2.2-2.2m8 0c-1.2 0-2.2 1-2.2 2.2v22.3c0 1.2 1 2.2 2.2 2.2s2.2-1 2.2-2.2V17.6c0-1.2-1-2.2-2.2-2.2m8.1 0c-1.2 0-2.2 1-2.2 2.2v22.3c0 1.2 1 2.2 2.2 2.2s2.2-1 2.2-2.2V17.6c0-1.2-1-2.2-2.2-2.2m7.6 0c-1.2 0-2.2 1-2.2 2.2v22.3c0 1.2 1 2.2 2.2 2.2s2.2-1 2.2-2.2V17.6c0-1.2-1-2.2-2.2-2.2m8.2 0c-1.2 0-2.2 1-2.2 2.2v22.3c0 1.2 1 2.2 2.2 2.2s2.2-1 2.2-2.2V17.6c0-1.2-1-2.2-2.2-2.2"/><path fill="#666870" d="M188.5 8.2H70c-1.6 0-2.8 1.3-2.8 2.8v35.4c0 1.6 1.3 2.8 2.8 2.8h118.6c1.6 0 2.8-1.3 2.8-2.8V11c0-1.5-1.3-2.8-2.9-2.8"/><path fill="none" stroke="#4F4C4D" stroke-width=".5" stroke-miterlimit="10" d="M188.5 8.2H70c-1.6 0-2.8 1.3-2.8 2.8v35.4c0 1.6 1.3 2.8 2.8 2.8h118.6c1.6 0 2.8-1.3 2.8-2.8V11c0-1.5-1.3-2.8-2.9-2.8z"/><path fill="#201D1D" d="M122.4 25.8H74c-.8 0-1.4.6-1.4 1.4v3c0 .8.6 1.4 1.4 1.4h48.4c.8 0 1.4-.6 1.4-1.4v-3c0-.7-.6-1.4-1.4-1.4"/><path fill="#201D1D" d="M101.3 22.2H88.2v13.1h13.1V22.2z"/><path fill="#525458" d="M84.6 22.2H80v13.1h4.6V22.2z"/><path fill="#201D1D" d="M179.1 25.8h-48.4c-.8 0-1.4.6-1.4 1.4v3c0 .8.6 1.4 1.4 1.4h48.4c.8 0 1.4-.6 1.4-1.4v-3c0-.7-.6-1.4-1.4-1.4"/><path fill="#525458" d="M186.9 25.7h-3.1c-.8 0-1.4.6-1.4 1.4v3.1c0 .8.6 1.4 1.4 1.4h3.1c.8 0 1.4-.6 1.4-1.4v-3.1c0-.8-.6-1.4-1.4-1.4"/><path fill="#201D1D" d="M185.4 31.7h1.6c.8 0 1.4-.6 1.4-1.4v-3.1c0-.8-.6-1.4-1.4-1.4l-1.6-.1"/><path fill="#CAC2B5" d="M188.3 10.6h-5.9v5.9h5.9v-5.9z"/><path fill="#2C9D40" d="M187.8 11.3H186v1.8h1.8v-1.8z"/><path fill="#13110F" d="M132.4 179.3c-.1-.7-.1-1.5-.2-2.2 0-.5-.1-1.1-.1-1.6 0-.1 0-.2-.2-.2h-1.4c-.1 0-.1 0-.2-.1-.2-.6-.4-1.3-.5-1.9v-.6-2.4c0-.1-.1-.1-.1-.1h-1c-.1 0-.1 0-.1.1.1.8.1 1.6.2 2.4 0 .2 0 .5.1.7v.1c-.1 0-.1 0-.1-.1-.2-.4-.4-.7-.7-1.1-.1-.2-.2-.4-.4-.7-.3-.5-.6-1.1-.9-1.6-.5-.8-.9-1.6-1.4-2.4-.3-.6-.7-1.2-1-1.8l-.1-.2c-.3-.4-.9-.2-1.4-.2-.2 0-.5 0-.7.1s-.3.2-.4.4c0 .1-.1.2-.1.3v.1c-.2.8-.5 1.6-.7 2.4 0 .1 0 .1.1.1.4 0 .4 0 .4.4v2.9c0 .1 0 .2.2.2h1c.1 0 .2 0 .2-.1.1-.6.3-1.2.5-1.9.1-.3.2-.7.3-1 0-.1 0-.1.1-.1s.1.1.2.1c.5 1 1 1.9 1.6 2.9 0 .1.1.1.1.2.9 1.6 1.7 3.2 2.6 4.8 0 .1.1.1.2.1h1.6c.1 0 .1 0 .2.1.2.7.5 1.5.7 2.2 0 .1.1.1.2.1.4 0 .8-.1 1.1-.1 0 .1.1 0 .1-.3m-.4-4.3c-.1-.9-.2-1.7-.2-2.6 0-.5-.1-.9-.1-1.4 0-.4-.1-.8-.1-1.2-.1-.7-.1-1.3-.2-2 0-.3-.1-.5-.1-.8 0 0-.1-1.7-.1-2-.1-.3-.4-.3-.4-.3s-2.2.2-2.5.3-.2.3-.2.3l.1 1.5c.1.7.1 1.3.2 2 0 .3.1.6.1 1 0 .2 0 .2.2.2h1c.1 0 .2 0 .2.2V172.6c-.1.6.2 1.1.3 1.7.1.2.1.5.2.7 0 .1.1.1.1.1h1.4c.1 0 .1-.1.1-.1m-11.3-5.5l-.9 3v.1c-.2.7-.4 1.5-.7 2.2 0 .1 0 .1-.1.1s-.1-.1-.1-.1c-.1-.8-.2-1.5-.3-2.3-.1-.5-.1-1.1-.2-1.6 0-.3-.1-.7-.1-1 0-.1 0-.1-.1-.1H117c-.3.2-.7.2-1 .2-.2 0-.2 0-.2.2.1.8.2 1.6.4 2.3.2 1.1.3 2.2.5 3.3 0 .2.1.4.1.7 0 .1.1.1.1.1h1.1c.1 0 .1 0 .2.1.1.3.2.7.3 1 0 .1.1.1.2.1h2.6c.1 0 .1 0 .2-.1.4-1.6.9-3.2 1.3-4.8 0-.1 0-.1-.1-.1h-1.2c-.1 0-.1 0-.1-.1v-2.5-.8c0-.1 0-.2-.2-.2-.4 0-.4.1-.5.3m-2.5-.1c-.1-.3-.1-.7-.1-1 0-.1 0-.2-.1-.1-.7.1-1.3.2-2 .2-.1 0-.3 0-.4.1s0 .3 0 .4c0 .2.1.5.1.7 0 .1.1.1.2.1h.4c.2 0 .4 0 .6-.2.1-.1.2-.1.4-.1.3 0 .6 0 .9-.1 0 .2.1.1 0 0m-.2-1.4l-.3-1.8c0-.2-.2-.3-.3-.3-.7.1-1.3.1-2 .2-.2 0-.3.2-.3.3l.3 1.8c0 .1 0 .2.2.2.8-.1 1.6-.2 2.4-.4 0 .1.1 0 0 0m-3.2 8.3c0-.1 0-.1 0 0v-.2-.2V175.6v-.2c0-.1-.1-.1-.1-.1h-.9c-.1 0-.2 0-.1-.2 0-.2.1-.5-.2-.6-.1-.1-.1-.1-.1-.2v-.7-1.1c0-.1 0-.2.2-.2h.6c.1 0 .1 0 .1-.1l-.3-1.8c0-.1 0-.2-.1-.2s-.1-.1-.2-.1c-.3-.3-.6-.4-1-.4-.3 0-.8-.4-.8-.7v-.5c0-.1 0-.1-.1-.1-.6-.2-1.1-.4-1.7-.6-.1 0-.1 0-.2.1-.2.4-.5.8-.8 1.3 0 .1-.1.1-.1.2 0 .9 0 1.8-.2 2.6 0 .1 0 .1.1.2.4.3.8.6 1.1.9.1.1.1.1.2 0 .3-.6.7-1.2 1-1.8 0-.1 0-.2.1-.1.1 0 .1.1.1.2.1.7.2 1.5.3 2.2 0 .1.5 3.2.5 3.9v.1c0 .1 0 .1.1.1h.6c.1 0 .2 0 .3.1.2.1.3.3.3.6v.8c0 .2 0 .4.2.6.1.1 0 .2 0 .3v.3c.3.2.2.4.2.7s0 .3.3.4c.3.1.6.1.8.2.3.1.4 0 .3-.3v-.2-.2c-.1-.7-.2-1.5-.4-2.2.1-1 0-1.8-.1-2.5m-.3-1.3c-.1-.5-.2-.9-.2-1.4-.1-.3-.1-.7-.2-1 0-.1-.1-.1-.1-.1h-.6c-.1 0-.1 0-.1.1v1.5c0 .2 0 .4.2.5.1.1.1.3.1.4 0 .1 0 .1.1.1.3 0 .5 0 .8-.1 0 .1.1.1 0 0m-1.2-7.2c-.1-.3-.1-.6-.2-.9 0 0 0-.2-.1-.6 0-.4-.3-.4-.3-.4s-1.3-.3-1.5-.3c-.2-.1-.3.2-.3.2l-.4.8v.1c-.1.2-.3.5-.4.7-.1.1 0 .1.1.1.6.2 1.1.4 1.7.6.1 0 .1.1.1.2v.3c0 .3 0 .6.3.7.1.1.2.1.3.1.4 0 .7 0 .9.3 0 0 .1.1.2.1-.1-.6-.3-1.3-.4-2m-4.7 4.6c-.1.3-.3.6-.5.9-.6.8-1.4 1.2-2.3 1.4-.1 0-.2.1-.2.2-.4.6-.8 1.3-1.1 1.9-.1.1-.1.1.1.1h.7c.1 0 .1 0 .1.1v1c0 .1 0 .1.1.1h.5c.2 0 .4 0 .5.2.1.1.2 0 .3.1.3.1.5-.1.6-.4.6-1.1 1.2-2.2 1.9-3.3.2-.3.4-.7.6-1l.2-.3c.1-.1 0-.2-.1-.2-.4-.3-.7-.6-1-.9-.3-.1-.3-.1-.4.1m-1.1-5.7c0-.1-.1-.2-.2-.2-.7.1-1.4.2-2.2.3-.3 0-.2.2-.1.4.2.8.3 1.6.4 2.4 0 .4.1.7 0 1.1 0 .2-.1.4-.2.6-.4.3-.8.1-1-.3-.2-.5-.1-1-.2-1.4 0-.9 0-1.9.1-2.8 0-.2-.1-.2-.2-.2h-2.1c-.2 0-.3.1-.2.3v3.5c0 .2 0 .4-.1.6-.2.6-.5.7-1 .3-.1-.5-.1-1.1-.1-1.6 0-.9 0-1.8-.1-2.7 0-.2-.1-.3-.3-.3h-2c-.2 0-.3.1-.2.3v4.5c0 .6 0 1.2-.1 1.8 0 .2.1.3.3.3h1.7c.2 0 .3-.1.3-.2v-.3c0-.2.1-.2.2-.1.2.3.5.5.9.5.6.1 1.2 0 1.6-.5.1-.1.2-.1.3 0 .6.6 1.3.8 2.1.6.3 0 .7-.1 1-.2.5-.2.9-.7 1.1-1.2 0-.1.1-.2.1-.4.2-.4.2-.7.2-1.1.4-1.4.2-2.7 0-4m-3.4 10.7c-.3.5-.6.9-.8 1.4-.1.2-.1.3.2.4.9.2 1.7.4 2.6.5.2 0 .4 0 .4-.2.2-.3.3-.6.5-.9 0-.1 0-.1-.1-.1h-.3c-.2 0-.3 0-.4-.2 0-.1-.1-.1-.2-.1h-.6c-.2 0-.3-.1-.2-.3v-.9c0-.1 0-.1-.1-.1h-.4c-.3 0-.5.2-.6.5m8.3.8l.3 2.4c0 .3.2.4.4.5.2.1.5.1.7.1.1 0 .1 0 .1-.1v-.4c0-.1 0-.2-.1-.2-.1-.1-.2-.2-.2-.3 0-.2 0-.4-.2-.5-.1 0 0-.1 0-.2v-1.3c0-.2-.2-.4-.4-.4h-.3c-.4 0-.4 0-.3.4m4.3-1.3l.6 3.9c0 .2.2.3.4.3.7-.1 1.3-.1 2-.2h.4c.2 0 .4-.1.4-.4.2-.8.4-1.6.7-2.4 0-.1 0-.1-.1-.1h-2.7c-.1 0-.2 0-.2-.2-.1-.3-.2-.6-.3-1 0-.1-.1-.1-.2-.1h-.9c0 .1-.1.1-.1.2m12.7 2.8c.1.2.3.2.5.2h.6c.1 0 .1 0 .1-.1-.2-.7-.5-1.4-.7-2.1 0-.1 0-.1-.1-.1h-1.5c.3.7.7 1.4 1.1 2.1m-32.3-10.5c0-.8-.2-1.6-.3-2.4 0-.2-.1-.3-.4-.3-.7.1-1.3.2-2 .3-.2 0-.2.4-.1.5.2 1 .4 2 .4 3 0 .2 0 .4-.1.6-.1.2-.1.4-.3.5-.4.1-.7-.1-.8-.5-.1-.3-.1-.7-.1-1 0-1.1 0-2.1.1-3.2 0-.2 0-.3-.2-.3h-2c-.1 0-.2 0-.2.2V170.5c0 .1-.1.2-.1.4-.1.4-.4.5-.8.3-.2-.2-.2-.4-.2-.6 0-1.3 0-2.5-.1-3.8 0-.3-.1-.3-.3-.3h-1.8c-.4 0-.4.6-.4.7v6c0 .2.1.3.3.3h1.7c.2 0 .3-.1.3-.3v-.3c0-.1 0-.1.1-.2.1 0 .1 0 .2.1.2.3.5.5.9.5.6.1 1.2 0 1.6-.5.1-.1.2-.2.3 0 .8.8 1.7.8 2.7.6 1.1-.3 1.6-1.2 1.8-2.2 0-.2 0-.3.1-.5-.2-.4-.2-1-.3-1.5M86 166.4h-1.8c-.2 0-.3.1-.3.3v.1c0 .1 0 .2-.1.2s-.2-.1-.2-.1c-.7-.6-1.5-.6-2.4-.4-.6.1-1.2.4-1.6 1l-.1.1c-.3.4-.4.9-.5 1.4-.1 1 0 2 .1 2.9 0 .5.1 1 .2 1.4 0 .1.1.2.2.2h2.2c.3 0 .2-.2.2-.4-.1-.9-.3-1.8-.3-2.7v-1c0-.1.1-.4.2-.6.3-.3.7-.4 1.2-.3.4.2.7.5.7 1 0 1.1 0 2.2-.1 3.3v.7c0 .1.1.2.2.2H86c.1 0 .2-.1.2-.2v-.3c0-.6 0-1.2.1-1.8.1-1.6.1-3.3.2-4.9-.1-.1-.2-.1-.5-.1m-11.9 3.4c0-.1.2-.6.3-.7.6-.7 1.5-.5 2 .2.2.3.2.3.6.2s.7-.2 1.1-.3.4-.1.2-.5c-.3-1.2-1.4-2.2-2.7-2.3-1-.1-2 .1-2.8.8l-.3.3c-.1.1-.1.2-.1.2-.4.5-.6 1.1-.7 1.8-.1.9 0 1.9.4 2.7.5 1 1.4 1.5 2.5 1.6.5.1 1 0 1.5-.1.9-.2 1.6-.7 2-1.5.2-.2.2-.5.3-.7 0-.1 0-.2-.2-.3-.5-.1-1-.3-1.5-.4-.2 0-.2.1-.3.2-.3.5-.7.7-1.2.7s-.8-.3-1-.8c-.2-.3-.2-.7-.1-1.1m-4.5-2.8c-1.4-.8-3.6-.7-4.9.2-.3.2-.5.4-.7.7l-.1.1c-.2.3-.2.3 0 .6.3.3.5.6.8 1 .1.1.2.1.3 0 .5-.5 1.1-.8 1.8-1 .2-.1.5-.1.8-.1.4.1.6.4.4.8-.1.2-.2.3-.3.4-.8.6-1.7 1-2.4 1.7-.1.1-.2.2-.2.3-.6.6-.8 1.3-.8 2.1.1 1.4 1.1 2.3 2.4 2.5s2.5 0 3.6-.8c.1-.1.3-.2.4-.3l.1-.1c.1-.1.2-.1.2-.2.1-.1.1-.2 0-.3-.2-.4-.5-.7-.7-1.1-.1-.2-.2-.1-.3 0-.5.4-1 .7-1.6.9-.1 0-.3.1-.4.1-.4.1-.6-.1-.7-.4 0-.2.1-.4.3-.5.3-.3.7-.4 1.1-.6.4-.2.9-.5 1.2-.8.6-.4 1-1 1.2-1.7 0-.2.1-.3.1-.5-.1-1.3-.5-2.3-1.6-3m63.8 12.7c-.2.6-.6 1-1.3 1.1s-1.4.1-2.1.2c-.6.1-1.3-.2-1.6-.8-1-1.9-2.1-3.8-3.1-5.7-.4-.7-.8-1.4-1.2-2.2 0-.1 0-.2-.1-.2s-.1.1-.1.2c-.8 2.8-1.5 5.6-2.3 8.4v.1c-.2.7-.7 1.1-1.5 1.1-.7.1-1.3.1-2 .2-.5.1-1 .1-1.4-.3-.1-.1-.1 0-.1.1-.2.5-.7.8-1.3.7-.9-.2-1.8-.4-2.7-.5-.7-.1-1-.5-1.1-1.2-.1-.6-.2-1.1-.2-1.7-.2-1.2-.3-2.5-.5-3.7-.1-.4-.1-.9-.2-1.4-.1.1-.1.1-.1.2-1.1 2-2.2 3.9-3.3 5.9-.2.4-.7.7-1.1.6-1.1-.2-2.2-.4-3.3-.7-.8-.2-1.1-1-.7-1.7.7-1.2 1.5-2.5 2.2-3.7.1-.1.1-.1-.1-.2-.3-.1-.6-.1-.9-.3-.2-.1-.3-.1-.5 0-.4.2-.9.3-1.3.2-.5-.1-1 0-1.5.1-.6.1-1.2 0-1.8 0-.5 0-.9-.1-1.3-.5-.1-.1-.2-.1-.4 0-1.3.7-2.6.8-3.9.3-.2-.1-.3-.1-.5 0-.4.2-.9.3-1.4.2s-.9-.1-1.3.1h-.1c-.7 0-1.4 0-2.1-.1-.2 0-.4 0-.5.1-.2.2-.5.3-.8.3h-2.2c-.4 0-.7-.1-1-.3-.1-.1-.3-.1-.4-.1-.2.1-.4.2-.7.2h-2.2c-.4 0-.8-.2-1.1-.5-.2-.2-.3-.3-.5-.1-.8.6-1.7.8-2.7.9-1.1 0-2.1-.2-3-.8-.1-.1-.3-.3-.4-.2s0 .3 0 .4c.1.2 0 .4 0 .6-.1.3-.3.6-.5.8-1.7 1.5-3.6 2-5.7 1.4-1.9-.5-3-2.3-2.7-4.2.1-.8.4-1.4.9-2 .1-.2.1-.3 0-.5-.4-.4-.8-.9-1.1-1.4-.2-.3-.3-.7-.2-1.1.1-.3.3-.6.5-.9.3-.3.7-.7 1.1-1 .7-.6 1.6-.8 2.5-.9 1-.1 2 0 2.9.4.6.2 1.2.6 1.6 1.1.1.1.3.2.4 0 .7-.8 1.6-1.3 2.7-1.4 1.6-.3 2.9 0 4.1 1.2.1.1.3.2.4 0 .6-.8 1.4-1.2 2.4-1.3.6-.1 1.2-.1 1.8 0 .2.1.4.1.6 0 .4-.1.8-.1 1.2-.1.5 0 1.1-.1 1.6.1s1 .1 1.4.1c.6 0 1.2 0 1.8.1.3.1.6.1.9-.1.2-.1.5-.1.8-.1h1.6c.4 0 .8.1 1.1.3.3.2.5 0 .8 0 .5-.1 1.1-.1 1.6-.2.2 0 .4 0 .6.1s.4.1.5 0c.3-.1.6-.1.9-.1.7 0 1.5 0 2.2.1h.3c.3-.1.6-.2 1-.2h1.6c.4 0 .8.1 1.1.3.3.2.5 0 .8 0 .5-.1 1.1-.2 1.6-.2.7 0 1.3.2 1.4 1.2 0 .2.1.5.1.8.1-.2.3-.4.4-.6l.1-.1c.4-.6.7-1.2 1.1-1.8.1-.1.2-.1.3-.2.3-.1.6-.1.8 0l1.5.3c.6.1 1 .4 1.1 1.1.1-.3.2-.5.4-.6l.1-.1c.5-.4 1.1-.3 1.6-.4.4 0 .9-.1 1.3-.1.7 0 1.3.5 1.4 1.2.2 1.3.4 2.5.5 3.8v.1c.1-.4.2-.7.3-1.1.2-.8.4-1.6.7-2.4.2-.6.3-1.3.7-1.8.6-.5 1.3-.4 2-.5.4-.1.8 0 1.2.2.2.1.4.3.6.6.7 1.3 1.5 2.6 2.2 3.9 0 0 0 .1.1.1 0-.5-.1-1-.1-1.4 0-.6-.1-1.2-.2-1.8s-.1-1.2.4-1.7c.5-.4 1.1-.3 1.7-.4.5-.1.9-.1 1.4-.1.8-.1 1.6.5 1.6 1.3.1 1.3.2 2.6.4 4l.3 3.6c.1 1.3.2 2.7.4 4l.3 3c.6 0 .5.2.5.3"/><path fill="#6E6F71" d="M108.8 167.4c-.1-.3-.1-.5-.1-.8-.2-1-.8-1.2-1.4-1.2-.5 0-1.1.1-1.6.2-.3 0-.5.1-.8 0-.3-.2-.7-.3-1.1-.3h-1.6c-.3 0-.7.1-1 .2-.1 0-.2.1-.3 0-.7-.2-1.5-.1-2.2-.1-.3 0-.6 0-.9.1-.2.1-.4 0-.5 0-.2-.1-.4-.1-.6-.1-.5.1-1.1.1-1.6.2-.3 0-.5.1-.8 0-.3-.2-.7-.3-1.1-.3h-1.6c-.3 0-.5 0-.8.1-.3.2-.6.1-.9.1-.6-.1-1.2-.1-1.8-.1-.5 0-1 .1-1.4-.1-.5-.2-1.1-.1-1.6-.1-.4 0-.8-.1-1.2.1-.2.1-.4.1-.6 0-.6-.2-1.2-.1-1.8 0-.9.2-1.8.6-2.4 1.3-.1.2-.3.1-.4 0-1.2-1.1-2.6-1.4-4.1-1.2-1 .2-1.9.6-2.7 1.4-.1.2-.3.1-.4 0-.5-.5-1-.9-1.6-1.1-.9-.3-1.9-.5-2.9-.4-.9.1-1.8.4-2.5.9-.4.3-.7.6-1.1 1 0-.1.1-.2.2-.3.8-1.1 1.8-1.8 3.1-2.1 2-.4 3.8-.1 5.3 1.4.2.2.3.1.4 0 .6-.7 1.3-1.1 2.2-1.3 1.7-.4 3.2-.1 4.5 1.1.2.2.3.1.5 0 1-1.2 2.3-1.5 3.8-1.3.4.1.8.1 1.3 0 .6-.1 1.2 0 1.8 0 .4 0 .8.1 1.2.2h.3c1-.1 1.9-.1 2.9.1h.4c.2-.1.5-.2.8-.2h1.5c.5 0 1 0 1.4.3.1.1.2.1.3.1.4-.1.9-.1 1.3-.2.5-.1 1-.1 1.5.1h.2c.5-.2 1.1-.1 1.6-.1.4 0 .9 0 1.3.1.3.1.5.1.8 0 .1-.1.3-.1.4-.1.6-.1 1.2 0 1.8-.1.5 0 1 0 1.4.3.1.1.2.1.4 0 .7-.1 1.3-.2 2-.2.7-.1 1.2.3 1.4 1 .1.3.1.6.2.9-.6 0-.7.2-.8.5m24.6 12.3v-.4l-.3-3c-.1-1.3-.2-2.7-.4-4l-.3-3.6c-.1-1.3-.2-2.6-.4-4-.1-.8-.8-1.4-1.6-1.3-.5.1-.9.1-1.4.1-.6.1-1.2 0-1.7.4.1-.5.6-.9 1.2-.9.7-.1 1.4-.1 2-.2.6-.1 1.1 0 1.5.4.3.3.4.8.4 1.2.1 1.5.3 3.1.4 4.6.1 1.6.3 3.1.4 4.7.1 1.6.3 3.2.4 4.8.2.5.2.9-.2 1.2m-6.2-10.9c-.7-1.3-1.5-2.6-2.2-3.9-.1-.2-.3-.4-.6-.6-.4-.2-.8-.3-1.2-.2-.7.1-1.4 0-2 .5.2-.5.6-.9 1.1-1s1-.1 1.4-.2c.6-.1 1.3.2 1.6.8l1.2 2.1c.2.4.4.7.6 1.1 0 .5.1 1 .1 1.4 0 .1 0 .1 0 0m-7.8 1.2v-.1c-.2-1.3-.4-2.5-.5-3.8-.1-.7-.7-1.2-1.4-1.2-.4 0-.9 0-1.3.1-.6.1-1.2 0-1.6.4.1-.4.6-.9 1.1-.9.7-.1 1.3-.1 2-.2.9-.1 1.5.4 1.6 1.3.1 1.1.3 2.2.5 3.3 0 0 0 .1.1.1-.3.2-.4.6-.5 1m-5.3-4c-.1-.7-.5-1-1.1-1.1l-1.5-.3c-.3-.1-.6-.1-.8 0-.1.1-.2.1-.3.2 0-.1.1-.1.1-.2.3-.6.7-.7 1.4-.6.5.1 1.1.2 1.6.3.7.1.9.4 1.1 1-.3.2-.4.4-.5.7m10 6.5c-.7 2.6-1.4 5.1-2.1 7.7-.1.3-.2.5-.4.7v-.1c.8-2.8 1.5-5.6 2.3-8.4 0-.1 0-.2.1-.2s.1.1.1.2v.1M71.9 175c0-.2.1-.4 0-.6 0-.1-.1-.3 0-.4.1-.1.3.1.4.2 0 .3-.1.6-.4.8"/><path fill="#88CE26" d="M69.6 167c-1.4-.9-3.6-.7-4.9.2-.3.2-.5.4-.7.7l-.1.1c-.2.3-.2.3 0 .6.3.3.5.6.8 1 .1.1.2.1.3 0 .5-.5 1.1-.8 1.8-1 .2-.1.5-.1.8-.1.4.1.6.4.4.8-.1.2-.2.3-.3.4-.8.6-1.7 1-2.4 1.6-.1.1-.2.2-.2.3-.6.6-.8 1.3-.8 2.1.1 1.4 1.1 2.3 2.4 2.5s2.5 0 3.6-.8c.1-.1.3-.2.4-.3l.1-.1c.1-.1.2-.1.2-.2.1-.1.1-.2 0-.3-.2-.4-.5-.7-.7-1.1-.1-.2-.2-.1-.3 0-.5.4-1 .7-1.6.9-.1 0-.3.1-.4.1-.4.1-.6-.1-.7-.4 0-.2.1-.4.3-.5.3-.3.7-.4 1.1-.6.4-.2.9-.5 1.2-.8.6-.4 1-1 1.2-1.7 0-.2.1-.3.1-.5-.1-1.2-.5-2.2-1.6-2.9m8.7 1.8c-.3-1.2-1.4-2.2-2.7-2.3-1-.1-2 .1-2.8.8-.1 0-.2.2-.3.3-.1.1-.1.2-.1.2-.4.5-.6 1.1-.7 1.8-.1.9 0 1.9.4 2.7.5 1 1.4 1.5 2.5 1.6.5.1 1 0 1.5-.1.9-.2 1.6-.7 2-1.5.2-.2.2-.5.3-.7 0-.1 0-.2-.2-.3-.5-.1-1-.3-1.5-.4-.2 0-.2.1-.3.2-.3.5-.7.7-1.2.7s-.8-.3-1-.8c-.1-.4-.2-.7-.1-1.1 0-.1.2-.5.3-.7.6-.7 1.5-.5 2 .2.2.3.2.3.6.2s.7-.2 1.1-.3c.3-.1.3-.2.2-.5m7.7-2.4h-1.8c-.2 0-.3.1-.3.3v.1c0 .1 0 .2-.1.2s-.2-.1-.2-.1c-.7-.6-1.5-.6-2.4-.4-.6.1-1.2.4-1.6 1l-.1.1c-.3.4-.4.9-.5 1.4-.1 1 0 2 .1 2.9 0 .5.1 1 .2 1.4 0 .1.1.2.2.2h2.2c.3 0 .2-.2.2-.4-.1-.9-.3-1.8-.3-2.7v-1c0-.1.1-.4.2-.6.3-.3.7-.4 1.2-.3.4.2.7.5.7 1 0 1.1 0 2.2-.1 3.3v.7c0 .1.1.2.2.2H86c.1 0 .2-.1.2-.2v-.3c0-.6 0-1.2.1-1.8.1-1.6.1-3.3.2-4.9-.1-.1-.2-.1-.5-.1m21.5.3c0-.1-.1-.2-.2-.2-.7.1-1.4.2-2.2.3-.3 0-.2.2-.1.4.2.8.3 1.6.4 2.4 0 .4.1.7 0 1.1 0 .2-.1.4-.2.6-.4.3-.8.1-1-.3-.2-.5-.1-1-.2-1.4 0-.9 0-1.9.1-2.8 0-.2-.1-.2-.2-.2h-2.1c-.2 0-.3.1-.2.3v3.5c0 .2 0 .4-.1.6-.2.6-.5.7-1 .3-.1-.5-.1-1.1-.1-1.6 0-.9 0-1.8-.1-2.7 0-.2-.1-.3-.3-.3h-2c-.2 0-.3.1-.2.3v4.4c0 .6 0 1.2-.1 1.8 0 .2.1.3.3.3h1.7c.2 0 .3-.1.3-.2v-.3c0-.2.1-.2.2-.1.2.3.5.5.9.5.6.1 1.2 0 1.6-.5.1-.1.2-.1.3 0 .6.6 1.3.8 2.1.6.3 0 .7-.1 1-.2.5-.2.9-.7 1.1-1.2 0-.1.1-.2.1-.4.2-.4.2-.7.2-1.1.4-1.3.2-2.6 0-3.9m-10.4 2.5c0-.8-.2-1.6-.3-2.4 0-.2-.1-.3-.4-.3-.7.1-1.3.2-2 .3-.2 0-.2.4-.1.5.2 1 .4 2 .4 3 0 .2 0 .4-.1.6-.1.2-.1.4-.3.5-.4.1-.7-.1-.8-.5-.1-.3-.1-.7-.1-1 0-1.1 0-2.1.1-3.2 0-.2 0-.3-.2-.3h-2c-.1 0-.2 0-.2.2V170.5c0 .1-.1.2-.1.4-.1.4-.4.5-.8.3-.2-.2-.2-.4-.2-.6 0-1.3 0-2.5-.1-3.8 0-.3-.1-.3-.3-.3h-1.8c-.4 0-.4.6-.4.7v6c0 .2.1.3.3.3h1.7c.2 0 .3-.1.3-.3v-.3c0-.1 0-.1.1-.2.1 0 .1 0 .2.1.2.3.5.5.9.5.6.1 1.2 0 1.6-.5.1-.1.2-.2.3 0 .8.8 1.7.8 2.7.6 1.1-.3 1.6-1.2 1.8-2.2 0-.2 0-.3.1-.5-.2-.4-.2-1-.3-1.5"/><path fill="#FFF" d="M122.6 172.9c-.4 1.6-.9 3.2-1.3 4.8 0 .1-.1.1-.2.1h-2.6c-.1 0-.1 0-.2-.1-.1-.3-.2-.7-.3-1 0-.1-.1-.1-.2-.1h-1.1c-.1 0-.1 0-.1-.1 0-.2-.1-.4-.1-.7-.2-1.1-.3-2.2-.5-3.3-.1-.8-.2-1.6-.4-2.3 0-.2 0-.2.2-.2.4 0 .7 0 1-.2H118c.1 0 .1 0 .1.1 0 .3.1.7.1 1 .1.5.1 1.1.2 1.6.1.8.2 1.5.3 2.3 0 .1 0 .1.1.1s.1-.1.1-.1c.2-.8.4-1.5.7-2.2v-.1l.9-3c.1-.2.1-.3.4-.3.1 0 .2 0 .2.2v3.3c0 .1.1.1.1.1h1.2c.2-.1.3-.1.2.1m9.5 6.8c-.4 0-.8.1-1.1.1-.1 0-.1 0-.2-.1-.2-.7-.5-1.5-.7-2.2 0-.1-.1-.1-.2-.1h-1.6c-.1 0-.2 0-.2-.1-.9-1.6-1.7-3.2-2.6-4.8 0-.1-.1-.1-.1-.2-.5-1-1-1.9-1.6-2.9 0-.1-.1-.1-.2-.1s-.1.1-.1.1c-.1.3-.2.7-.3 1-.1.6-.3 1.2-.5 1.9 0 .1-.1.1-.2.1h-1c-.1 0-.2 0-.2-.2v-2.9c0-.4 0-.4-.4-.4-.1 0-.2 0-.1-.1.2-.8.5-1.6.7-2.4v-.1c0-.1.1-.2.1-.3.1-.2.2-.3.4-.4.2-.1.5-.1.7-.1.4 0 1.1-.2 1.4.2 0 0 .1.1.1.2.3.6.7 1.2 1 1.8.5.8.9 1.6 1.4 2.4.3.5.6 1.1.9 1.6.1.2.2.4.4.7.2.4.4.7.6 1.1 0 0 0 .1.1.1s0-.1 0-.1c0-.2 0-.5-.1-.7-.1-.8-.1-1.6-.2-2.4 0-.1 0-.1.1-.1h1c.1 0 .1 0 .1.1v3c.2.6.4 1.3.5 1.9 0 .1.1.1.2.1h1.4c.2 0 .2 0 .2.2 0 .5.1 1.1.1 1.6.1.7.1 1.5.2 2.2.3.2.2.3 0 .3m-10.9-1.6c-.2.8-.4 1.6-.7 2.4-.1.2-.2.3-.4.4h-.4c-.7.1-1.3.1-2 .2-.2 0-.4-.1-.4-.3l-.6-3.9c0-.1 0-.1.1-.1h.9c.1 0 .1 0 .2.1.1.3.2.6.3 1 0 .1.1.2.2.2h2.8c0-.1 0-.1 0 0m0 0c-.2.8-.4 1.6-.7 2.4-.1.2-.2.3-.4.4h-.4c-.7.1-1.3.1-2 .2-.2 0-.4-.1-.4-.3l-.6-3.9c0-.1 0-.1.1-.1h.9c.1 0 .1 0 .2.1.1.3.2.6.3 1 0 .1.1.2.2.2h2.8c0-.1 0-.1 0 0m-3.3-10c-.8.1-1.5.2-2.3.3-.1 0-.2 0-.2-.2l-.3-1.8c0-.2.1-.3.3-.3.7-.1 1.3-.1 2-.2.2 0 .3.1.3.3.2.5.2 1.2.2 1.9.2-.1.1 0 0 0m14 7h-1.4c-.1 0-.1 0-.1-.1-.1-.2-.1-.5-.2-.7-.1-.6-.4-1.1-.3-1.7v-.2-2.2c0-.1 0-.2-.2-.2h-1c-.2 0-.2-.1-.2-.2 0-.3 0-.6-.1-1-.1-.7-.1-1.3-.2-2l-.1-1.5s0-.2.2-.3c.3-.1 2.5-.3 2.5-.3s.3 0 .4.3c.1.3.1 2 .1 2 0 .3.1.5.1.8.1.7.1 1.3.2 2 0 .4.1.8.1 1.2 0 .5.1.9.1 1.4.1.9.2 1.7.2 2.6 0 0 0 .1-.1.1m-13.8-5.5h-1c-.1 0-.3 0-.4.1-.2.1-.4.2-.6.2h-.4c-.1 0-.1 0-.2-.1 0-.2-.1-.5-.1-.7 0-.1-.1-.3 0-.4.1-.1.3-.1.4-.1.7-.1 1.3-.2 2-.2.1 0 .1 0 .1.1 0 .3.1.7.2 1.1.2-.1.1 0 0 0m12.3 10.3h-.6c-.2 0-.4-.1-.5-.2l-1.2-2.1h1.5c.1 0 .1 0 .1.1.2.7.5 1.4.7 2.2.2-.1.1 0 0 0m-15.1 1.6c-.3-.1-.6-.1-.8-.2-.3-.1-.3-.1-.3-.4 0-.2.1-.5-.2-.7-.1 0 0-.2 0-.3s.1-.3 0-.3c-.2-.2-.2-.3-.2-.6v-.8c0-.2 0-.4-.3-.6-.1-.1-.2-.1-.3-.1h-.6c-.1 0-.1 0-.1-.1v-.1c-.1-.5-.1-.9-.2-1.4l-.3-2.4v-.1c-.1-.7-.2-1.5-.3-2.2 0-.1 0-.2-.1-.2s-.1.1-.1.1c-.3.6-.7 1.2-1 1.8-.1.1-.1.1-.2 0-.4-.3-.7-.6-1.1-.9-.1 0-.1-.1-.1-.2.2-.9.3-1.8.2-2.6 0-.1 0-.1.1-.2.3-.4.5-.8.8-1.3 0-.1.1-.1.2-.1.6.2 1.1.4 1.7.6.1 0 .1.1.1.1v.5c0 .3.4.8.8.7.4 0 .7.1 1 .4 0 0 .1.1.2.1s.1.1.1.2l.3 1.8c0 .1 0 .1-.1.1h-.6c-.1 0-.2 0-.2.2v1.8c0 .1 0 .2.1.2.2.1.2.4.2.6 0 .1 0 .2.1.2h.9c.1 0 .1 0 .1.1V176.1c.1.8.3 1.6.4 2.3s.2 1.5.4 2.2v.4c-.3.5-.3.6-.6.5m-5.4-8.1l-.2.3c-.2.3-.4.7-.6 1-.6 1.1-1.3 2.2-1.9 3.3-.2.3-.3.4-.6.4-.1 0-.2 0-.3-.1-.1-.2-.3-.2-.5-.2h-.5c-.1 0-.1 0-.1-.1v-1c0-.1 0-.1-.1-.1h-.7c-.1 0-.1 0-.1-.1.4-.6.8-1.3 1.1-1.9l.2-.2c.9-.2 1.7-.6 2.3-1.4.2-.3.4-.6.5-.9 0-.1.1-.1.2 0 .3.3.7.6 1 .9.3 0 .4 0 .3.1m3.6-3.6c-.2-.3-.6-.3-.9-.3-.1 0-.2 0-.3-.1-.3-.2-.4-.4-.3-.7v-.3c0-.1 0-.2-.1-.2-.6-.2-1.1-.4-1.7-.6-.1 0-.1-.1 0-.1.1-.2.3-.5.4-.7v-.1l.4-.8s.1-.3.3-.2c.2.1 1.5.3 1.5.3s.2 0 .3.4c0 .4.1.6.1.6.1.3.1.6.2.9.1.7.2 1.4.4 2.1-.2-.1-.3-.2-.3-.2m-6.5 8.9c-.2.3-.3.6-.5.9-.1.2-.3.2-.4.2-.9-.2-1.7-.4-2.6-.5-.2 0-.3-.2-.2-.4.3-.5.6-.9.8-1.4.2-.3.3-.5.6-.4h.4c.1 0 .1 0 .1.1v.9c0 .2 0 .3.2.3h.6c.1 0 .1 0 .2.1.1.2.2.2.4.2h.4c0-.1 0-.1 0 0m6.9 2v.4c0 .1 0 .1-.1.1-.2-.1-.5-.1-.7-.1-.3-.1-.4-.2-.4-.5l-.3-2.4c-.1-.4-.1-.4.4-.4h.3c.2 0 .4.2.4.4v1.5c.2.1.2.3.2.5 0 .1 0 .3.2.3v.2m.6-5.6h-.7c-.1 0-.1 0-.1-.1s.1-.3-.1-.4c-.2-.1-.2-.3-.2-.5v-.7-.8c0-.1 0-.1.1-.1h.6c.1 0 .1 0 .1.1.1.3.1.7.2 1 0 .5.1.9.1 1.5.1 0 0 0 0 0"/><path fill="#FEF6C6" d="M132 112.6H49.6c-.8 0-1.4.6-1.4 1.4v44.6c0 .8.6 1.4 1.4 1.4H132c.8 0 1.4-.6 1.4-1.4V114c0-.7-.6-1.4-1.4-1.4"/><path fill="#B43B2B" d="M160.1 154.8h-17.3c-.8 0-1.4.6-1.4 1.4v2.4c0 .8.6 1.4 1.4 1.4h17.3c.8 0 1.4-.6 1.4-1.4v-2.4c0-.8-.6-1.4-1.4-1.4m0-6.8h-17.3c-.8 0-1.4.6-1.4 1.4v2.4c0 .8.6 1.4 1.4 1.4h17.3c.8 0 1.4-.6 1.4-1.4v-2.4c0-.8-.6-1.4-1.4-1.4m0-9.4h-17.3c-.8 0-1.4.6-1.4 1.4v2.4c0 .8.6 1.4 1.4 1.4h17.3c.8 0 1.4-.6 1.4-1.4V140c0-.8-.6-1.4-1.4-1.4m0-6.2h-17.3c-.8 0-1.4.6-1.4 1.4v2.4c0 .8.6 1.4 1.4 1.4h17.3c.8 0 1.4-.6 1.4-1.4v-2.4c0-.8-.6-1.4-1.4-1.4m0-6.5h-17.3c-.8 0-1.4.6-1.4 1.4v2.4c0 .8.6 1.4 1.4 1.4h17.3c.8 0 1.4-.6 1.4-1.4v-2.4c0-.7-.6-1.4-1.4-1.4m0-9h-17.3c-.8 0-1.4.6-1.4 1.4v2.4c0 .8.6 1.4 1.4 1.4h17.3c.8 0 1.4-.6 1.4-1.4v-2.4c0-.8-.6-1.4-1.4-1.4"/><path fill="#F1ECE8" d="M97 154.8H50.7v2.6H97v-2.6zm0-4.2H50.7v2.6H97v-2.6z"/><path fill="#57A734" d="M130.9 146.6h-79v2.6h79v-2.6z"/><path fill="#F1ECE8" d="M97 142.5H50.7v2.6H97v-2.6zm0-3.9H50.7v2.6H97v-2.6z"/></g><g><path d="M425 317.8c-41.4 0-75-33.6-75-75s33.6-75 75-75 75 33.6 75 75-33.6 75-75 75zm11-75c0-6.1-5-11-11-11s-11 5-11 11c0 6.1 4.9 11 11 11s11-4.9 11-11z"/><path fill="#FFF" d="M425 169.1c-40.7 0-73.8 33-73.8 73.8s33 73.8 73.8 73.8 73.8-33 73.8-73.8-33.1-73.8-73.8-73.8zm56 116.6c-12.9 16.8-33.1 27.6-56 27.6s-43.1-10.8-56-27.6c-9.2-11.9-14.6-26.8-14.6-42.9 0-39 31.6-70.5 70.5-70.5s70.5 31.6 70.5 70.5c.2 16.2-5.3 31.1-14.4 42.9z"/><path d="M436 278.2l5 7.5h40c-12.9 16.8-33.1 27.6-56 27.6s-43.1-10.8-56-27.6h37.8"/><path fill="#5B8E7B" d="M441 285.7h40c9.2-11.9 14.6-26.8 14.6-42.9 0-39-31.6-70.5-70.5-70.5s-70.5 31.6-70.5 70.5c0 16.1 5.4 31 14.6 42.9H407m18-20.2c-12.6 0-22.7-10.2-22.7-22.7s10.1-22.7 22.7-22.7 22.7 10.2 22.7 22.7-10.1 22.7-22.7 22.7z"/><path fill="#96C93E" d="M425 220.2c-12.6 0-22.7 10.2-22.7 22.7s10.1 22.7 22.7 22.7 22.7-10.2 22.7-22.7-10.1-22.7-22.7-22.7zm0 43.6c-11.6 0-21-9.4-21-21s9.4-21 21-21 21 9.4 21 21-9.4 21-21 21z"/><path fill="#939598" d="M425 221.8c-11.6 0-21 9.4-21 21s9.4 21 21 21 21-9.4 21-21-9.4-21-21-21zm0 40.7c-10.9 0-19.7-8.8-19.7-19.7s8.8-19.7 19.7-19.7c10.9 0 19.7 8.8 19.7 19.7s-8.8 19.7-19.7 19.7z"/><path fill="#58595B" stroke="#383839" stroke-width="1.724" stroke-miterlimit="10" d="M425 223.1c-10.9 0-19.7 8.8-19.7 19.7s8.8 19.7 19.7 19.7c10.9 0 19.7-8.8 19.7-19.7 0-10.9-8.8-19.7-19.7-19.7zm0 30.1c-6.1 0-11-4.9-11-11s4.9-11 11-11 11 5 11 11c0 6.1-4.9 11-11 11z"/><path fill="#060706" d="M455.8 276.8c-.2-.5-.5-.9-1.1-1s-1.2-.1-1.8-.2c-.5-.1-1.1.2-1.4.7-.9 1.7-1.8 3.3-2.7 5-.3.6-.7 1.2-1 1.9 0 .1 0 .2-.1.2s-.1-.1-.1-.2c-.7-2.4-1.3-4.9-2-7.3v-.1c-.2-.6-.6-1-1.3-1-.6-.1-1.1-.1-1.7-.2-.4-.1-.9-.1-1.2.3-.1.1-.1 0-.1-.1-.2-.4-.6-.7-1.1-.6-.8.2-1.6.3-2.4.4-.6.1-.9.4-1 1-.1.5-.2 1-.2 1.5-.2 1-.3 2.2-.4 3.2-.1.3-.1.8-.2 1.2-.1-.1-.1-.1-.1-.2-1-1.7-1.9-3.5-2.9-5.1-.2-.3-.6-.6-1-.5-1 .2-1.9.3-2.9.6-.7.2-1 .9-.6 1.5.6 1 1.3 2.2 1.9 3.2.1.1 0 .1-.1.2-.3.1-.5.1-.8.3-.2.1-.3.1-.4 0-.3-.2-.8-.3-1.1-.2-.4.1-.9 0-1.3-.1-.5-.1-1 0-1.6 0-.4 0-.8.1-1.1.4-.1.1-.2.1-.3 0-1.1-.6-2.3-.7-3.4-.3-.2.1-.3.1-.4 0-.4-.2-.8-.3-1.2-.2-.4.1-.8.1-1.1-.1h-.1c-.6 0-1.2 0-1.8.1-.2 0-.3 0-.4-.1-.2-.2-.4-.3-.7-.3h-1.9c-.3 0-.6.1-.9.3-.1.1-.3.1-.3.1-.2-.1-.3-.2-.6-.2H409c-.3 0-.7.2-1 .4-.2.2-.3.3-.4.1-.7-.5-1.5-.7-2.4-.8-1 0-1.8.2-2.6.7-.1.1-.3.3-.3.2v-.3c.1-.2 0-.3 0-.5-.1-.3-.3-.5-.4-.7-1.5-1.3-3.1-1.7-5-1.2-1.7.4-2.6 2-2.4 3.7.1.7.3 1.2.8 1.7.1.2.1.3 0 .4-.3.3-.7.8-1 1.2-.2.3-.3.6-.2 1 .1.3.3.5.4.8.3.3.6.6 1 .9.6.5 1.4.7 2.2.8.9.1 1.7 0 2.5-.3.5-.2 1-.5 1.4-1 .1-.1.3-.2.3 0 .6.7 1.4 1.1 2.4 1.2 1.4.3 2.5 0 3.6-1 .1-.1.3-.2.3 0 .5.7 1.2 1 2.1 1.1.5.1 1 .1 1.6 0 .2-.1.3-.1.5 0 .3.1.7.1 1 .1.4 0 1 .1 1.4-.1s.9-.1 1.2-.1c.5 0 1 0 1.6-.1.3-.1.5-.1.8.1.2.1.4.1.7.1h1.4c.3 0 .7-.1 1-.3.3-.2.4 0 .7 0 .4.1 1 .1 1.4.2.2 0 .3 0 .5-.1s.3-.1.4 0c.3.1.5.1.8.1.6 0 1.3 0 1.9-.2h.3c.3.1.5.2.9.2h1.4c.3 0 .7-.1 1-.3s.4 0 .7 0c.4.1 1 .2 1.4.2.6 0 1.1-.2 1.2-1 0-.2.1-.4.1-.7.1.2.3.3.3.5l.1.1c.3.5.6 1 1 1.6.1.1.2.1.3.2.3.1.5.1.7 0 .4-.1.9-.2 1.3-.3.5-.1.9-.3 1-1 .1.3.2.4.3.5l.1.1c.4.3 1 .3 1.4.3.3 0 .8.1 1.1.1.6 0 1.1-.4 1.2-1 .2-1.1.3-2.2.4-3.3v-.1c.1.3.2.6.3 1 .2.7.3 1.4.6 2.1.2.5.3 1.1.6 1.6.5.4 1.1.3 1.7.4.3.1.7 0 1-.2.2-.1.3-.3.5-.5.6-1.1 1.3-2.3 1.9-3.4 0 0 0-.1.1-.1 0 .4-.1.9-.1 1.2 0 .5-.1 1-.1 1.6-.1.5-.1 1 .3 1.5.4.3 1 .3 1.5.3.4.1.8.1 1.2.1.7.1 1.4-.4 1.4-1.1.1-1.1.2-2.3.3-3.5.1-1 .2-2.1.3-3.1.1-1.1.2-2.4.3-3.5.1-.9.2-1.7.3-2.6.3.2.3 0 .3-.1zm-55.7 11.1c-1.2.7-3.1.6-4.3-.2-.3-.2-.4-.3-.6-.6l-.1-.1c-.2-.3-.2-.3 0-.5.3-.3.4-.5.7-.9.1-.1.2-.1.3 0 .4.4 1 .7 1.6.9.2.1.4.1.7.1.3-.1.5-.3.3-.7-.1-.2-.2-.3-.3-.3-.7-.5-1.5-.9-2.1-1.5-.1-.1-.2-.2-.2-.3-.5-.5-.7-1.1-.7-1.8.1-1.2 1-2 2.1-2.2s2.2 0 3.1.7c.1.1.3.2.3.3l.1.1c.1.1.2.1.2.2.1.1.1.2 0 .3-.2.3-.4.6-.6 1-.1.2-.2.1-.3 0-.4-.3-.9-.6-1.4-.8-.1 0-.3-.1-.3-.1-.3 0-.5.1-.6.3 0 .2.1.3.3.4.3.3.6.3 1 .5s.8.4 1 .7c.5.3.9.9 1 1.5 0 .2.1.3.1.4 0 1.1-.4 2-1.3 2.6zm3.9-2.5c0 .1 0 .1 0 0 0 .1.2.5.3.6.5.6 1.3.4 1.7-.2.2-.3.2-.3.5-.2s.6.2 1 .3c.3.1.3.1.2.4-.3 1-1.2 1.9-2.4 2-.9.1-1.7-.1-2.4-.7l-.3-.3c-.1-.1-.1-.2-.1-.2-.3-.4-.5-1-.6-1.6-.1-.8 0-1.6.3-2.4.4-.9 1.2-1.3 2.2-1.4.4-.1.9 0 1.3.1.8.2 1.4.6 1.7 1.3.2.2.2.4.3.6 0 .1 0 .2-.2.3-.4.1-.9.3-1.3.3-.2 0-.2-.1-.3-.2-.3-.4-.6-.6-1-.6s-.7.3-.9.7v1.2zm10.5 3h-1.6c-.2 0-.3-.1-.3-.3v-.1c0-.1 0-.2-.1-.2s-.2.1-.2.1c-.6.5-1.3.5-2.1.3-.5-.1-1-.3-1.4-.9l-.1-.1c-.3-.3-.3-.8-.4-1.2-.1-.9 0-1.7.1-2.5 0-.4.1-.9.2-1.2 0-.1.1-.2.2-.2h1.9c.3 0 .2.2.2.3-.1.8-.3 1.6-.3 2.4v.9c0 .1.1.3.2.5.3.3.6.3 1 .3.3-.2.6-.4.6-.9 0-1 0-1.9-.1-2.9v-.6c0-.1.1-.2.2-.2h1.9c.1 0 .2.1.2.2v.3c0 .5 0 1 .1 1.6.1 1.4.1 2.9.2 4.3-.2.1-.2.1-.4.1zm9.6-2.4c0 .7-.2 1.4-.3 2.1 0 .2-.1.3-.3.3-.6-.1-1.1-.2-1.7-.3-.2 0-.1-.3-.1-.4.2-.9.3-1.7.3-2.6 0-.2 0-.3-.1-.5s-.1-.3-.3-.4c-.3-.1-.6 0-.7.4-.1.3-.1.6-.1.9v2.8c0 .2 0 .3-.2.3h-1.7c-.1 0-.2 0-.2-.2v-1.6-1.8c0-.1 0-.2-.1-.3-.1-.3-.3-.4-.7-.3-.2.2-.2.3-.2.5 0 1.1 0 2.2-.1 3.3 0 .3-.1.3-.3.3h-1.6c-.3 0-.3-.5-.3-.6v-4.4-.8c0-.2.1-.3.3-.3h1.5c.2 0 .3.1.3.3v.3c0 .1 0 .1.1.2.1 0 .1 0 .2-.1.2-.3.4-.4.8-.4.5-.1 1 0 1.4.4.1.1.2.2.3 0 .7-.7 1.5-.7 2.4-.5 1 .3 1.4 1 1.6 1.9 0 .2 0 .3.1.4-.3.1-.3.7-.3 1.1zm28.1-9.2c.1-.2.3-.2.4-.2h.5c.1 0 .1 0 .1.1l-.6 1.8c0 .1 0 .1-.1.1h-1.3c.4-.5.7-1.2 1-1.8zm-11 2.5c.2-1.1.3-2.3.5-3.4 0-.2.2-.3.3-.3.6.1 1.1.1 1.7.2h.3c.2 0 .3.1.3.3.2.7.3 1.4.6 2.1 0 .1 0 .1-.1.1h-2.3c-.1 0-.2 0-.2.2-.1.3-.2.5-.3.9 0 .1-.1.1-.2.1h-.8c.2-.1.2-.1.2-.2zm-3.8-1.2l.3-2.1c0-.3.2-.3.3-.4s.4-.1.6-.1c.1 0 .1 0 .1.1v.3s0 .2-.1.2c-.1.1-.2.2-.2.3 0 .2 0 .3-.2.4-.1 0 0 .1 0 .2v1.1c0 .2-.2.3-.3.3h-.3c-.3.1-.3.1-.2-.3zm-7.2.7c-.3-.4-.5-.8-.7-1.2-.1-.2-.1-.3.2-.3.8-.2 1.5-.3 2.3-.4.2 0 .3 0 .3.2.2.3.3.5.4.8 0 .1 0 .1-.1.1h-.3c-.2 0-.3 0-.3.2 0 .1-.1.1-.2.1h-.5c-.2 0-.3.1-.2.3v.8c0 .1 0 .1-.1.1h-.3c-.3-.2-.4-.4-.5-.7zm3 9.4c0 .1-.1.2-.2.2-.6-.1-1.2-.2-1.9-.3-.3 0-.2-.2-.1-.3.2-.7.3-1.4.3-2.1 0-.3.1-.6 0-1 0-.2-.1-.3-.2-.5-.3-.3-.7-.1-.9.3-.2.4-.1.9-.2 1.2 0 .8 0 1.7.1 2.4 0 .2-.1.2-.2.2h-1.8c-.2 0-.3-.1-.2-.3v-3.1c0-.2 0-.3-.1-.5-.2-.5-.4-.6-.9-.3-.1.4-.1 1-.1 1.4 0 .8 0 1.6-.1 2.4 0 .2-.1.3-.3.3h-1.7c-.2 0-.3-.1-.2-.3v-.6V286.7v-.5-2.2c0-.5 0-1-.1-1.6 0-.2.1-.3.3-.3h1.5c.2 0 .3.1.3.2v.3c0 .2.1.2.2.1.2-.3.4-.4.8-.4.5-.1 1 0 1.4.4.1.1.2.1.3 0 .5-.5 1.1-.7 1.8-.5.3 0 .6.1.9.2.4.2.8.6 1 1 0 .1.1.2.1.3.2.3.2.6.2 1 .4 1.2.2 2.3 0 3.5zm1-5c-.1-.3-.3-.5-.4-.8-.5-.7-1.2-1-2-1.2-.1 0-.2-.1-.2-.2-.3-.5-.7-1.1-1-1.7-.1-.1-.1-.1.1-.1h.6c.1 0 .1 0 .1-.1v-.9c0-.1 0-.1.1-.1h.4c.1 0 .3 0 .4-.2.1-.1.2 0 .3-.1.3-.1.4.1.5.3.5 1 1 1.9 1.7 2.9.2.3.3.6.5.9l.2.3c.1.1 0 .2-.1.2-.3.3-.6.5-.9.8-.3.2-.3.2-.3 0zm4.1 4c-.1.3-.1.5-.2.8 0 0 0 .2-.1.5 0 .3-.3.3-.3.3s-1.1.3-1.3.3c-.2.1-.3-.2-.3-.2l-.3-.7v-.1c-.1-.2-.3-.4-.3-.6-.1-.1 0-.1 0-.1.5-.2 1-.3 1.5-.5.1 0 .1-.1.1-.2v-.3c0-.3 0-.5.3-.6.1-.1.2-.1.3-.1.3 0 .6 0 .8-.3 0 0 .1-.1.2-.1-.3.7-.3 1.3-.4 1.9zm1-6.3c-.1.4-.2.8-.2 1.2-.1.3-.1.6-.2.9 0 .1-.1.1-.1.1h-.5c-.1 0-.1 0-.1-.1V282.1v-.4c0-.2 0-.3.2-.4.1-.1.1-.3.1-.3s0-.1.1-.1c.3-.1.5-.1.7 0 0-.1 0-.1 0 0zm.2-1.1s0 .1 0 0V280.7c0 .1-.1.1-.1.1h-.8c-.1 0-.2 0-.1.2 0 .2.1.4-.2.5-.1 0-.1.1-.1.2v1.6c0 .1 0 .2.2.2h.5c.1 0 .1 0 .1.1-.1.5-.2 1-.3 1.6 0 .1 0 .2-.1.2s-.1.1-.2.1c-.3.3-.5.3-.9.3-.3 0-.7.3-.7.6v.4c0 .1 0 .1-.1.1-.5.2-1 .3-1.5.5-.1 0-.1 0-.2-.1-.2-.3-.4-.7-.7-1.1 0-.1-.1-.1-.1-.2 0-.8 0-1.6-.2-2.3 0-.1 0-.1.1-.2.3-.3.6-.5 1-.8.1-.1.1-.1.2 0 .3.5.6 1 .9 1.6 0 .1 0 .2.1.1.1 0 .1-.1.1-.2.1-.6.2-1.3.3-1.9 0-.1.4-2.8.4-3.4v-.1c0-.1 0-.1.1-.1h.5c.1 0 .2 0 .3-.1.2-.1.3-.3.3-.5v-.7c0-.2 0-.3.2-.5.1-.1 0-.2 0-.3v-.2c.3-.2.2-.3.2-.6s0-.3.3-.3.5-.1.7-.2c.3-.1.3 0 .3.3v.4c-.1.6-.2 1.3-.3 1.9.1.6-.1 1.2-.2 1.9zm2.9 7.2c-.1.5-.2 1-.3 1.6 0 .2-.2.3-.3.3-.6-.1-1.1-.1-1.7-.2-.2 0-.3-.2-.3-.3.1-.5.2-1 .3-1.6 0-.1 0-.2.2-.2.6.2 1.3.3 2.1.4 0-.1 0 0 0 0zm.1-1.2c-.1.3-.1.6-.1.9 0 .1 0 .2-.1.1-.6-.1-1.1-.2-1.7-.2-.1 0-.3 0-.3-.1v-.3c0-.2.1-.4.1-.6 0-.1.1-.1.2-.1h.3c.1 0 .3 0 .5.2.1.1.2.1.3.1.3-.1.6-.1.8 0 0-.2 0-.1 0 0zm2.1-.1c-.3-.9-.5-1.7-.8-2.6v-.1c-.2-.6-.3-1.3-.6-1.9 0-.1 0-.1-.1-.1s-.1.1-.1.1c-.1.7-.2 1.3-.3 2-.1.4-.1 1-.2 1.4 0 .3-.1.6-.1.9 0 .1 0 .1-.1.1h-1.1c-.3-.2-.6-.2-.9-.2-.2 0-.2 0-.2-.2.1-.7.2-1.4.3-2 .2-1 .3-1.9.4-2.9 0-.2.1-.3.1-.6 0-.1.1-.1.1-.1h1c.1 0 .1 0 .2-.1l.3-.9c0-.1.1-.1.2-.1h2.3c.1 0 .1 0 .2.1.3 1.4.8 2.8 1.1 4.2 0 .1 0 .1-.1.1h-1c-.1 0-.1 0-.1.1V285.8c0 .1 0 .2-.2.2-.1 0-.2-.1-.3-.3zm9.9-4.8c-.1.8-.2 1.5-.2 2.3 0 .4-.1.8-.1 1.2 0 .3-.1.7-.1 1-.1.6-.1 1.1-.2 1.7 0 .3-.1.4-.1.7 0 0-.1 1.5-.1 1.7-.1.3-.3.3-.3.3s-1.9-.2-2.2-.3c-.3-.1-.2-.3-.2-.3l.1-1.3c.1-.6.1-1.1.2-1.7 0-.3.1-.5.1-.9 0-.2 0-.2.2-.2h.9c.1 0 .2 0 .2-.2V283v-.2c-.1-.5.2-1 .3-1.5.1-.2.1-.4.2-.6 0-.1.1-.1.1-.1.3.2.7.2 1.2.3 0-.1 0 0 0 0zm.3-3.8c-.1.6-.1 1.3-.2 1.9 0 .4-.1 1-.1 1.4 0 .1 0 .2-.2.2h-1.2c-.1 0-.1 0-.2.1-.2.5-.3 1.1-.4 1.7v2.6c0 .1-.1.1-.1.1h-.9c-.1 0-.1 0-.1-.1.1-.7.1-1.4.2-2.1 0-.2 0-.4.1-.6v-.1c-.1 0-.1 0-.1.1-.2.3-.3.6-.6 1-.1.2-.2.3-.3.6-.3.4-.5 1-.8 1.4l-1.2 2.1c-.3.5-.6 1-.9 1.6l-.1.2c-.3.3-.8.2-1.2.2-.2 0-.4 0-.6-.1s-.3-.2-.3-.3c0-.1-.1-.2-.1-.3v-.1l-.6-2.1c0-.1 0-.1.1-.1.3 0 .3 0 .3-.3v-2.5c0-.1 0-.2.2-.2h.9c.1 0 .2 0 .2.1.1.5.3 1 .4 1.7l.3.9c0 .1 0 .1.1.1s.1-.1.2-.1c.4-.9.9-1.7 1.4-2.5 0-.1.1-.1.1-.2.8-1.4 1.5-2.8 2.3-4.2 0-.1.1-.1.2-.1h1.4c.1 0 .1 0 .2-.1.2-.6.4-1.3.6-1.9 0-.1.1-.1.2-.1.3 0 .7.1 1 .1-.3-.3-.2-.2-.2 0z"/><path fill="#757575" d="M402.2 280.9c0 .2.1.3 0 .5 0 .1-.1.3 0 .3s.3-.1.3-.2c-.1-.1-.2-.4-.3-.6zm45.4 2.2c-.6-2.3-1.2-4.4-1.8-6.7-.1-.3-.2-.4-.3-.6v.1c.7 2.4 1.3 4.9 2.1 7.2-.1.2-.1.3 0 .3s0-.1 0-.3c0 .1 0 .1 0 0zm-8.6 5.7c-.1.6-.4.9-1 1-.4.1-.9.2-1.3.3-.3.1-.5.1-.7 0-.1-.1-.2-.1-.3-.2 0 .1.1.1.1.2.3.5.6.6 1.2.5.4-.1 1-.2 1.4-.3.6-.1.8-.3 1-.9-.3-.2-.4-.4-.4-.6zm4.6-3.5c0 .1 0 .1 0 0-.2 1.2-.3 2.3-.4 3.4-.1.6-.6 1-1.2 1-.3 0-.8 0-1.1-.1-.5-.1-1 0-1.4-.3.1.3.5.8 1 .8.6.1 1.1.1 1.7.2.8.1 1.3-.3 1.4-1.1.1-1 .3-1.9.4-2.9 0 0 0-.1.1-.1-.3-.2-.4-.6-.5-.9zm6.7 1c-.6 1.1-1.3 2.3-1.9 3.4-.1.2-.3.3-.5.5-.3.2-.7.3-1 .2-.6-.1-1.2 0-1.7-.4.2.4.5.8 1 .9s.9.1 1.2.2c.5.1 1.1-.2 1.4-.7.3-.6.7-1.2 1-1.8.2-.3.3-.6.5-1-.1-.5 0-.9 0-1.3.1-.1.1-.1 0 0zm5.5-9.5v.3c-.1.9-.2 1.7-.3 2.6-.1 1.1-.2 2.4-.3 3.5-.1 1-.2 2.1-.3 3.1-.1 1.1-.2 2.3-.3 3.5-.1.7-.7 1.2-1.4 1.1-.4-.1-.8-.1-1.2-.1-.5-.1-1 0-1.5-.3.1.4.5.8 1 .8.6.1 1.2.1 1.7.2s1 0 1.3-.3.3-.7.3-1c.1-1.3.3-2.7.3-4 .1-1.4.3-2.7.3-4.1.1-1.4.3-2.8.3-4.2.4-.5.4-.8.1-1.1zm-21.5 10.8c-.1.3-.1.4-.1.7-.2.9-.7 1-1.2 1-.4 0-1-.1-1.4-.2-.3 0-.4-.1-.7 0-.3.2-.6.3-1 .3h-1.4c-.3 0-.6-.1-.9-.2-.1 0-.2-.1-.3 0-.6.2-1.3.1-1.9.2-.3 0-.5 0-.8-.1-.2-.1-.3 0-.4 0-.2.1-.3.1-.5.1-.4-.1-1-.1-1.4-.2-.3 0-.4-.1-.7 0-.3.2-.6.3-1 .3h-1.4c-.3 0-.4 0-.7-.1-.3-.2-.5-.1-.8-.1-.5.1-1 .1-1.6.1-.4 0-.9-.1-1.2.1-.4.2-1 .1-1.4.1-.3 0-.7.1-1-.1-.2-.1-.3-.1-.5 0-.5.2-1 .1-1.6 0-.8-.2-1.6-.5-2.1-1.1-.1-.2-.3-.1-.3 0-1 1-2.2 1.2-3.6 1-.9-.2-1.7-.5-2.4-1.2-.1-.2-.3-.1-.3 0-.4.4-.9.8-1.4 1-.8.3-1.7.4-2.5.3s-1.6-.3-2.2-.8c-.3-.3-.6-.5-1-.9 0 .1.1.2.2.3.7 1 1.6 1.6 2.7 1.8 1.7.3 3.3.1 4.6-1.2.2-.2.3-.1.3 0 .5.6 1.1 1 1.9 1.1 1.5.3 2.8.1 3.9-1 .2-.2.3-.1.4 0 .9 1 2 1.3 3.3 1.1.3-.1.7-.1 1.1 0 .5.1 1 0 1.6 0 .3 0 .7-.1 1-.2h.3c.9.1 1.7.1 2.5-.1h.3c.2.1.4.2.7.2h1.3c.4 0 .9 0 1.2-.3.1-.1.2-.1.3-.1.3.1.8.1 1.1.2.4.1.9.1 1.3-.1h.2c.4.2 1 .1 1.4.1.3 0 .8 0 1.1-.1.3-.1.4-.1.7 0 .1.1.3.1.3.1.5.1 1 0 1.6.1.4 0 .9 0 1.2-.3.1-.1.2-.1.3 0 .6.1 1.1.2 1.7.2.6.1 1-.3 1.2-.9.1-.3.1-.5.2-.8 0 .1-.1-.1-.2-.3z"/><path fill="#96C93E" d="M400.1 287.9c-1.2.7-3.1.6-4.3-.2-.3-.2-.4-.3-.6-.6l-.1-.1c-.2-.3-.2-.3 0-.5.3-.3.4-.5.7-.9.1-.1.2-.1.3 0 .4.4 1 .7 1.6.9.2.1.4.1.7.1.3-.1.5-.3.3-.7-.1-.2-.2-.3-.3-.3-.7-.5-1.5-.9-2.1-1.5-.1-.1-.2-.2-.2-.3-.5-.5-.7-1.1-.7-1.8.1-1.2 1-2 2.1-2.2s2.2 0 3.1.7c.1.1.3.2.3.3l.1.1c.1.1.2.1.2.2.1.1.1.2 0 .3-.2.3-.4.6-.6 1-.1.2-.2.1-.3 0-.4-.3-.9-.6-1.4-.8-.1 0-.3-.1-.3-.1-.3 0-.5.1-.6.3 0 .2.1.3.3.4.3.3.6.3 1 .5s.8.4 1 .7c.5.3.9.9 1 1.5 0 .2.1.3.1.4 0 1.1-.4 2-1.3 2.6zM407.8 286.3c-.3 1-1.2 1.9-2.4 2-.9.1-1.7-.1-2.4-.7-.1 0-.2-.2-.3-.3-.1-.1-.1-.2-.1-.2-.3-.4-.5-1-.6-1.6-.1-.8 0-1.6.3-2.4.4-.9 1.2-1.3 2.2-1.4.4-.1.9 0 1.3.1.8.2 1.4.6 1.7 1.3.2.2.2.4.3.6 0 .1 0 .2-.2.3-.4.1-.9.3-1.3.3-.2 0-.2-.1-.3-.2-.3-.4-.6-.6-1-.6s-.7.3-.9.7c-.1.3-.2.6-.1 1 0 .1.2.4.3.6.5.6 1.3.4 1.7-.2.2-.3.2-.3.5-.2s.6.2 1 .3c.3.3.3.4.3.6zM414.5 288.4h-1.6c-.2 0-.3-.1-.3-.3v-.1c0-.1 0-.2-.1-.2s-.2.1-.2.1c-.6.5-1.3.5-2.1.3-.5-.1-1-.3-1.4-.9l-.1-.1c-.3-.3-.3-.8-.4-1.2-.1-.9 0-1.7.1-2.5 0-.4.1-.9.2-1.2 0-.1.1-.2.2-.2h1.9c.3 0 .2.2.2.3-.1.8-.3 1.6-.3 2.4v.9c0 .1.1.3.2.5.3.3.6.3 1 .3.3-.2.6-.4.6-.9 0-1 0-1.9-.1-2.9v-.6c0-.1.1-.2.2-.2h1.9c.1 0 .2.1.2.2v.3c0 .5 0 1 .1 1.6.1 1.4.1 2.9.2 4.3-.2.1-.2.1-.4.1zM433.2 288.2c0 .1-.1.2-.2.2-.6-.1-1.2-.2-1.9-.3-.3 0-.2-.2-.1-.3.2-.7.3-1.4.3-2.1 0-.3.1-.6 0-1 0-.2-.1-.3-.2-.5-.3-.3-.7-.1-.9.3-.2.4-.1.9-.2 1.2 0 .8 0 1.7.1 2.4 0 .2-.1.2-.2.2h-1.8c-.2 0-.3-.1-.2-.3v-3.1c0-.2 0-.3-.1-.5-.2-.5-.4-.6-.9-.3-.1.4-.1 1-.1 1.4 0 .8 0 1.6-.1 2.4 0 .2-.1.3-.3.3h-1.7c-.2 0-.3-.1-.2-.3v-.6V286.7v-2.3-.3c0-.5 0-1-.1-1.6 0-.2.1-.3.3-.3h1.5c.2 0 .3.1.3.2v.3c0 .2.1.2.2.1.2-.3.4-.4.8-.4.5-.1 1 0 1.4.4.1.1.2.1.3 0 .5-.5 1.1-.7 1.8-.5.3 0 .6.1.9.2.4.2.8.6 1 1 0 .1.1.2.1.3.2.3.2.6.2 1 .4 1.1.2 2.2 0 3.4zM424.1 286c0 .7-.2 1.4-.3 2.1 0 .2-.1.3-.3.3-.6-.1-1.1-.2-1.7-.3-.2 0-.1-.3-.1-.4.2-.9.3-1.7.3-2.6 0-.2 0-.3-.1-.5s-.1-.3-.3-.4c-.3-.1-.6 0-.7.4-.1.3-.1.6-.1.9v2.8c0 .2 0 .3-.2.3h-1.7c-.1 0-.2 0-.2-.2v-1.6-1.8c0-.1 0-.2-.1-.3-.1-.3-.3-.4-.7-.3-.2.2-.2.3-.2.5 0 1.1 0 2.2-.1 3.3 0 .3-.1.3-.3.3h-1.6c-.3 0-.3-.5-.3-.6v-4.4-.8c0-.2.1-.3.3-.3h1.5c.2 0 .3.1.3.3v.3c0 .1 0 .1.1.2.1 0 .1 0 .2-.1.2-.3.4-.4.8-.4.5-.1 1 0 1.4.4.1.1.2.2.3 0 .7-.7 1.5-.7 2.4-.5 1 .3 1.4 1 1.6 1.9 0 .2 0 .3.1.4-.3.1-.3.7-.3 1.1z"/><path fill="#FFF" d="M453.2 276.7h-.5c-.2 0-.3.1-.4.2-.3.6-.7 1.2-1 1.8h1.3c.1 0 .1 0 .1-.1 0-.6.3-1.2.5-1.9.1 0 .1 0 0 0zm-10.7 8.9h-.9c-.1 0-.3 0-.3-.1-.2-.1-.3-.2-.5-.2h-.3c-.1 0-.1 0-.2.1 0 .2-.1.4-.1.6 0 .1-.1.3 0 .3s.3.1.3.1c.6.1 1.1.2 1.7.2.1 0 .1 0 .1-.1 0-.2.1-.5.2-.9 0 .1 0 0 0 0zm11.9-4.8h-1.2c-.1 0-.1 0-.1.1-.1.2-.1.4-.2.6-.1.5-.3 1-.3 1.5v2.1c0 .1 0 .2-.2.2h-.9c-.2 0-.2.1-.2.2 0 .3 0 .6-.1.9-.1.6-.1 1.1-.2 1.7l-.1 1.3s0 .2.2.3c.3.1 2.2.3 2.2.3s.3 0 .3-.3.1-1.7.1-1.7c0-.3.1-.4.1-.7.1-.6.1-1.1.2-1.7 0-.3.1-.7.1-1 0-.4.1-.8.1-1.2.2-1 .3-1.7.2-2.6.1.1.1 0 0 0zm-12.1 6.1c-.7-.1-1.3-.2-2-.3-.1 0-.2 0-.2.2-.1.5-.2 1-.3 1.6 0 .2.1.3.3.3.6.1 1.1.1 1.7.2.2 0 .3-.1.3-.3.1-.5.2-1 .2-1.7.1.1.1 0 0 0zm2.9-8.8c-.2-.7-.3-1.4-.6-2.1-.1-.2-.2-.3-.3-.3h-.3c-.6-.1-1.1-.1-1.7-.2-.2 0-.3.1-.3.3-.2 1.1-.3 2.3-.5 3.4 0 .1 0 .1.1.1h.8c.1 0 .1 0 .2-.1.1-.3.2-.5.3-.9 0-.1.1-.2.2-.2h2.1c0 .2 0 .1 0 0zm0 0c-.2-.7-.3-1.4-.6-2.1-.1-.2-.2-.3-.3-.3h-.3c-.6-.1-1.1-.1-1.7-.2-.2 0-.3.1-.3.3-.2 1.1-.3 2.3-.5 3.4 0 .1 0 .1.1.1h.8c.1 0 .1 0 .2-.1.1-.3.2-.5.3-.9 0-.1.1-.2.2-.2h2.1c0 .2 0 .1 0 0zm9.4-1.3c-.3 0-.7-.1-1-.1-.1 0-.1 0-.2.1-.2.6-.4 1.3-.6 1.9 0 .1-.1.1-.2.1h-1.4c-.1 0-.2 0-.2.1-.8 1.4-1.5 2.8-2.3 4.2 0 .1-.1.1-.1.2-.4.9-.9 1.7-1.4 2.5 0 .1-.1.1-.2.1s-.1-.1-.1-.1l-.3-.9c-.1-.5-.3-1-.4-1.7 0-.1-.1-.1-.2-.1h-.9c-.1 0-.2 0-.2.2v2.5c0 .3 0 .3-.3.3-.1 0-.2 0-.1.1l.6 2.1v.1c0 .1.1.2.1.3.1.2.2.3.3.3s.4.1.6.1c.3 0 1 .2 1.2-.2 0 0 .1-.1.1-.2.3-.5.6-1 .9-1.6l1.2-2.1c.3-.4.5-1 .8-1.4.1-.2.2-.3.3-.6.2-.3.3-.6.6-1 0 0 0-.1.1-.1s0 .1 0 .1c0 .2 0 .4-.1.6-.1.7-.1 1.4-.2 2.1 0 .1 0 .1.1.1h.9c.1 0 .1 0 .1-.1v-2.1-.5c.2-.5.3-1.1.4-1.7 0-.1.1-.1.2-.1h1.2c.2 0 .2 0 .2-.2 0-.4.1-1 .1-1.4.1-.6.1-1.3.2-1.9.4.1.3 0 .2 0zm-8.2 6c-.3-1.4-.8-2.8-1.1-4.2 0-.1-.1-.1-.2-.1h-2.3c-.1 0-.1 0-.2.1l-.3.9c0 .1-.1.1-.2.1h-1c-.1 0-.1 0-.1.1 0 .2-.1.3-.1.6-.2 1-.3 1.9-.4 2.9-.1.7-.2 1.4-.3 2 0 .2 0 .2.2.2.3 0 .6 0 .9.2h1.1c.1 0 .1 0 .1-.1 0-.3.1-.6.1-.9.1-.4.1-1 .2-1.4.1-.7.2-1.3.3-2 0-.1 0-.1.1-.1s.1.1.1.1c.2.6.3 1.3.6 1.9v.1c.3.9.5 1.7.8 2.6.1.2.1.3.3.3.1 0 .2 0 .2-.2v-.7-2.2c0-.1.1-.1.1-.1.3 0 .7 0 1.1-.1 0 .1 0 0 0 0zM439.2 280.8h-.6c-.1 0-.1 0-.1.1s.1.3-.1.3c-.2.1-.2.3-.2.4v1.3c0 .1 0 .1.1.1h.5c.1 0 .1 0 .1-.1.1-.3.1-.6.2-.9 0-.3.1-.6.1-1.2.1 0 .1 0 0 0zm-.4-4.8v-.3s0-.1-.1-.1c-.2.1-.4.1-.6.1-.3.1-.3.2-.3.4l-.3 2.1c-.1.3-.1.3.3.3h.3c.2 0 .3-.2.3-.3v-1.1-.2c.2-.1.2-.3.2-.4s0-.3.2-.3v-.2zm-6.1 1.7c-.2-.3-.3-.5-.4-.8-.1-.2-.3-.2-.3-.2-.8.2-1.5.3-2.3.4-.2 0-.3.2-.2.3.3.4.5.8.7 1.2.2.3.3.4.5.3h.3s.1 0 .1-.1v-.8c0-.2 0-.3.2-.3h.5c.1 0 .1 0 .2-.1.1-.2.2-.2.3-.2.1.3.2.3.4.3 0 .1 0 .1 0 0zm5.7 7.8c-.2.3-.5.3-.8.3-.1 0-.2 0-.3.1-.3.2-.3.3-.3.6v.3c0 .1 0 .2-.1.2-.5.2-1 .3-1.5.5-.1 0-.1.1 0 .1.1.2.3.4.3.6v.1l.3.7s.1.3.3.2 1.3-.3 1.3-.3.2 0 .3-.3c0-.3.1-.4.1-.5.1-.3.1-.5.2-.8.1-.6.2-1.2.2-1.8 0-.1 0-.1 0 0zm-3.1-3.2l-.2-.3c-.2-.3-.3-.6-.5-.9-.5-1-1.1-1.9-1.7-2.9-.2-.3-.3-.3-.5-.3-.1 0-.2 0-.3.1-.1.2-.3.2-.4.2h-.4c-.1 0-.1 0-.1.1v.9c0 .1 0 .1-.1.1h-.6c-.1 0-.1 0-.1.1.3.5.7 1.1 1 1.7l.2.2c.8.2 1.5.5 2 1.2.2.3.3.5.4.8 0 .1.1.1.2 0 .3-.3.6-.5.9-.8.2-.1.2-.1.2-.2zm4.6-7c-.3.1-.5.1-.7.2-.3.1-.3.1-.3.3 0 .2.1.4-.2.6-.1 0 0 .2 0 .2 0 .1.1.3 0 .3-.2.2-.2.3-.2.5v.7c0 .2 0 .3-.3.5-.1.1-.2.1-.3.1h-.5c-.1 0-.1 0-.1.1v.1c-.1.4-.1.8-.2 1.2l-.3 2.1v.1c-.1.6-.2 1.3-.3 1.9 0 .1 0 .2-.1.2s-.1-.1-.1-.1c-.3-.5-.6-1-.9-1.6-.1-.1-.1-.1-.2 0-.3.3-.6.5-1 .8-.1 0-.1.1-.1.2.2.8.3 1.6.2 2.3 0 .1 0 .1.1.2.3.3.4.7.7 1.1 0 .1.1.1.2.1.5-.2 1-.3 1.5-.5.1 0 .1-.1.1-.1v-.4c0-.3.3-.7.7-.6.3 0 .6-.1.9-.3 0 0 .1-.1.2-.1s.1-.1.1-.2c.1-.5.2-1 .3-1.6 0-.1 0-.1-.1-.1h-.5c-.1 0-.2 0-.2-.2v-1-.6c0-.1 0-.2.1-.2.2-.1.2-.3.2-.5 0-.1 0-.2.1-.2h.8c.1 0 .1 0 .1-.1V280.4v-.2-.2-.1c.1-.7.3-1.4.3-2s.2-1.3.3-1.9v-.1V275.6c.1-.3 0-.4-.3-.3z"/></g><g><path d="M585 317.9c-41.4 0-75-33.6-75-75s33.6-75 75-75 75 33.6 75 75-33.7 75-75 75zm11-75c0-6.1-5-11-11-11s-11 5-11 11c0 6.1 4.9 11 11 11 6 0 11-4.9 11-11z"/><path fill="#FFF" d="M585 169.2c-40.7 0-73.8 33-73.8 73.8s33 73.8 73.8 73.8 73.8-33 73.8-73.8-33.1-73.8-73.8-73.8zm56 116.6c-12.9 16.8-33.1 27.6-56 27.6s-43.1-10.8-56-27.6c-9.2-11.9-14.6-26.8-14.6-42.9 0-39 31.6-70.5 70.5-70.5s70.5 31.6 70.5 70.5c.1 16.2-5.4 31.1-14.4 42.9z"/><path d="M596 278.3l5 7.5h40c-12.9 16.8-33.1 27.6-56 27.6s-43.1-10.8-56-27.6h37.8"/><path fill="#9BA078" d="M601 285.8h40c9.2-11.9 14.6-26.8 14.6-42.9 0-39-31.6-70.5-70.5-70.5-39 0-70.5 31.6-70.5 70.5 0 16.1 5.4 31 14.6 42.9H567m18-20.2c-12.6 0-22.7-10.2-22.7-22.7s10.1-22.7 22.7-22.7 22.7 10.2 22.7 22.7-10.2 22.7-22.7 22.7z"/><path fill="#DBBD3B" d="M585 220.3c-12.6 0-22.7 10.2-22.7 22.7s10.1 22.7 22.7 22.7 22.7-10.2 22.7-22.7-10.2-22.7-22.7-22.7zm0 43.6c-11.6 0-21-9.4-21-21s9.4-21 21-21 21 9.4 21 21-9.5 21-21 21z"/><path fill="#939598" d="M585 221.9c-11.6 0-21 9.4-21 21s9.4 21 21 21 21-9.4 21-21-9.5-21-21-21zm0 40.7c-10.9 0-19.7-8.8-19.7-19.7 0-10.9 8.8-19.7 19.7-19.7 10.9 0 19.7 8.8 19.7 19.7s-8.9 19.7-19.7 19.7z"/><path fill="#58595B" stroke="#383839" stroke-width="1.724" stroke-miterlimit="10" d="M585 223.2c-10.9 0-19.7 8.8-19.7 19.7s8.8 19.7 19.7 19.7c10.9 0 19.7-8.8 19.7-19.7s-8.9-19.7-19.7-19.7zm0 30.1c-6.1 0-11-4.9-11-11s4.9-11 11-11 11 5 11 11c0 6.1-5 11-11 11z"/><path d="M553.7 281.6c-.1-1.3.3-2.1 1-2.3.7-.3 2.5-.4 4-.2s3.8.8 4.1 3.2c.5-.2 1.8-.6 2.8-.6 1 .1 2.1.5 2.6 1.1 1-1 3.6-1.3 4.5-.5-.2-1.6 1.2-2.5 2.2-2.4 1.1.1 2.1.6 2.2 2.4.8-.7 1.7-.5 2.1-.5-.1-1.8.6-2.8 1.9-2.8s2.3.9 2.2 2.6c.6-.1 1.6-.1 1.9.4.7-.5 2.7-.8 3.4.5 1.4-1.4 3.4-1 4.1-.5-.1-1.7.9-2.9 2.8-2.4-.1-1.3 1-2.1 2-1.9 1 .2 1.7 1.3 3.6 5.2 0-4.2-.1-4.8.3-5.4.3-.6 1.2-.9 1.9-.8.7 0 1.7.5 1.7 1.6 1-1.1 2.5.5 4.2 2.6.8-3.2 1.9-4.1 2.9-4s1.4.7 1.7 2.1c.3 1.3 1.3 6.8 1.5 7.8s.1 2-.8 2.2c-.9.3-2.6.5-3.4-1.1-.1.1-.9.4-1.5.3 0 1.3-1 2.1-1.8 2.2-.8 0-2.1.1-2.5-1.7-.4-1.8-.6-2.6-.6-2.7-.2 1.7-.3 3.5-1.5 4.2-1.2.6-2.3.7-3.5-1.1-1.2-1.8-3.1-5.5-3.1-5.6-.1.1-.1.3-.1.8s0 2.3.1 3.7c.1 1.4-.5 2.2-1.2 2.3s-1.5 0-1.9-.3c-.5.3-1.7.6-2.1.1-.4.2-1.6.6-3-.3-.1-.1-.4-.2-.6.1-.2.3-1.4.7-2.2.1-.3.1-1.2.5-2 0-.8-.6-1-.5-1.2-.4-.1.1-.8.7-1.7.7-.8-.1-.7-.2-1.1 0-.4.2-1.4.3-2.5-.4-.3-.1-.7-.3-.9-.1-.2.2-.7.6-1.4.6s-1.3-.2-1.5-.3-.5-.2-1 0-2 .5-3.1.1c-1-.4-1.5-.7-1.6-.8-.5.4-1.8 1-2.7 1.1-.9.1-2.1-.2-2.5-.6-.6.5-.6.6-1.5.6s-2.3.1-2.8-.8c-.1-.2-.3 0-.3.1s-.3.6-1.1.6-3.2.2-3.2-1.4.1-3.3.2-4.3c.1-1.3.1-1.9 0-3.1z"/><path fill="#DBBD3B" d="M560.5 286.1c-.4-.6.2-1 .9-1.6.7-.6.8-2.6-.5-3.5-1.2-.9-4.1-1.1-5.2-1-1.1.1-1.1.9-1 1.8.1 1 .1 2.7 0 6.6 0 1.2.7.9 1.5.9s1-.2 1-.7.2-1.3.7-1.3c.6 0 .9.7 1.2 1.4.3.7.7.7 2.3.6 1.6-.1-.4-2.7-.9-3.2zm-2.5-1.6c-1 0-1-.8-1-1.2 0-.3.4-1.2.9-1.1.6 0 .9.2 1.1.7.3.6 0 1.6-1 1.6z"/><path fill="#DBBD3B" d="M567.5 286.9c-.3-.5-1.1-.2-2.1.2-.5.2-.8.3-.9.1-.1-.2.5-.4 1.3-.7.9-.3 1.8-.8 1.9-1.6.1-.8-.7-1.9-2.6-2-1.9-.1-2.7 1.5-3 2.4-.3.9.1 2.6 1.1 3.4 1.1.8 2.3.4 3.5-.1s1.1-1.2.8-1.7zm-3.3-1.4c-.3-.5 0-1 .4-1.2.4-.2 1-.2 1.2.2.2.4 0 .9-.4 1-.4.3-1.1.3-1.2 0zM571.7 285c.6.5 1.4.6 1.6.3.2-.3.4-1-.3-1.6-.7-.5-2-.8-3.1-.4s-1.6 1.3-1.4 2.1c.2.8 1.4 1.1 1.8 1.3.5.2.7.4.6.6-.1.2-.5 0-.9-.2s-1.1-.5-1.3-.1c-.3.4-.5 1.1.4 1.7.9.5 2.2.8 3.3.3s1.2-1.4.9-2c-.2-.6-1.1-1-1.6-1.3-.5-.3-.9-.4-.8-.7-.1-.3.4-.2.8 0zM574 284.5c-.1-.4.2-1 .9-1.1.7-.1 1.2.4 1.1.9 0 .5-.2 1.7-.2 2.4 0 .8.2 1.4.2 1.8s-.5.7-1 .7c-.6 0-1 0-1.1-.7 0-.7.2-1.8.2-2.5-.1-.5-.1-1.1-.1-1.5z"/><ellipse fill="#DBBD3B" cx="575" cy="282" rx="1.1" ry="1.1"/><path fill="#DBBD3B" d="M582 285.3c0-1.2.3-2.8.3-4 0-1.2-.7-1.4-1.2-1.3-.6.1-.7.7-.6 1.5 0 1.3-.3 1.1-.7 1.1-2.6.2-3 1.5-3.3 2.7-.3 1.2.1 2.4.8 3.2.7.8 2.8.8 2.9.6.1-.2.3-.4.5-.1.2.3.7.3 1 .1.3-.2.5-.7.4-1.1-.1-.3-.1-1.5-.1-2.7zm-3 1.8c-.5 0-1-.5-1-1.2s.4-1.2 1-1.2c.5 0 1 .5 1 1.2s-.3 1.2-1 1.2zM582.7 287v-3.1c0-.4.6-1 1.2-1.1.6-.1 1.1-.1 1.1.7v2.8c0 .3.5.8.6 0 .1-.7.1-2.5.1-3s.5-.7 1-.7 1.2.2 1.1 1c-.1.8-.1 1.7-.1 2.4s.3 1.7.2 2.3-.5.9-.9.9-.8-.3-.9-.3c-.2-.1-1.2.6-2.1 0-1.2-.5-1.5-1.3-1.3-1.9zM593.3 287.5c-.2-1.2-.1-2 0-2.8.1-.9-.3-1.4-1.1-1.7-.8-.3-2.4 0-3 .7-.6.7-1 2.1-.9 3 .1.9.2 2 1.6 2.5 1.4.5 1.6-.3 1.9-.3s.5.4.9.4.8-.4.9-.8c-.1-.4-.3-.6-.3-1zm-2.5-.3c-.5 0-.9-.5-.9-1.2s.4-1.2.9-1.2.9.5.9 1.2c.1.7-.4 1.2-.9 1.2z"/><path fill="#9A5F1B" d="M596.5 279.9c-.4-1.2 1.1-2.3 1.8-.8.7 1.5 2.8 5.5 3.1 5.9.3.4.7.4.6-.6-.1-1 .1-5.7.1-6.1s.4-1 1.1-1 1.1.4 1 1.5c-.1 1.1-.3 7.1-.4 8.6-.1 1.5-1.9 3.4-3.3.8-1.3-2.5-3.7-7.4-4-8.3zM605 280.5c-.1-1.3.3-1.8.8-1.8.5-.1 2.3 1.9 3.3 3.6.6.8.7 1.1.9-.2s.7-3.1 1-3.7c.3-.6 1.6-1.4 1.9.4.3 1.7 1.5 6.6 1.7 7.5.1.9.3 1.7-.3 1.9-.6.2-1.5.5-1.8-.7-.3-1.2-.6-4.3-.7-4.5-.1-.2-.3-.1-.3.5-.1.6-.3 2.7-.3 3.1-.1.4-1 1.3-1.8-.1-.7-1.4-1.4-2.6-1.6-2.8s-.2.1-.2.5c.1.4.5 2.1.9 3 .4.9.4 2-.4 2.3-.8.2-1.4.3-1.7-1.8-.4-2-1.2-6.1-1.4-7.2z"/><path fill="#DBBD3B" d="M593.8 281.2c0-.6.4-1 .9-.9.6 0 1.5.1 1.4.9 0 .8-.2 4-.1 5.1v2.3c0 .3-.3.5-.9.5-.6 0-1.2.2-1.3-.6-.1-.8 0-3.1 0-4.1.2-.8 0-2.6 0-3.2z"/><path fill="#FFF8B6" d="M555 282.8c-.1-.9-.1-1.8.1-2.1s.7-.7 2.2-.6c1.5.2 2.6.4 3.7.9-1.5-.5-3.9-.6-4.7-.6-1 .1-1.3.3-1.3 2.4z"/><path fill="#F9D84B" d="M559.3 283.5c-.1.6-.3.9-.7 1.1-.4.1-1.1 0-1.3-.2.3.4 1 .4 1.5.3.4-.2.5-1 .5-1.2z"/><path fill="#FFF8B6" d="M562.3 285c.7-1.2 1.2-1.6 1.8-1.8s1.1-.2 2.1 0c-1.1-.1-2 0-2.4.3-.5.3-1.3 1.2-1.5 1.5zM565.8 285c-.1.4-.6.9-1.6.7 1 .5 1.6-.1 1.6-.7zM564.5 287.3c.1.1.4.1.8-.1.4-.1 1.1-.5 1.5-.4-.4 0-.5.2-.8.3s-1 .6-1.5.2zM568.5 285c.2-1.2 1.5-1.8 2.8-1.7-1-.1-2.5.5-2.8 1.7zM568.3 287.7c.1-.6.3-1 1.1-.7-.4-.1-.9 0-1.1.7zM575.3 283.6c-.4-.2-1.4 0-1.3 1.1.2-.9 1-1.2 1.3-1.1zM574 282.1c0-.6.5-1.4 1.5-1-.7-.2-1.5.3-1.5 1zM576.7 284.9c.8-1.8 1.5-2.1 3.3-2.2-1.7.2-2.7 1-3.3 2.2zM578.5 287c.6.6 1.4.1 1.6-.5-.1 1-1.3 1.1-1.6.5zM581.3 280.1c-.3-.1-.8.1-.8 1 .2-.8.5-1 .8-1zM582.8 284.6c.1-1.4.7-1.7 1.4-1.7-.7 0-1.4.5-1.4 1.7zM585 286.8c.2.2.6.1.6-.6.2.8-.3 1-.6.6zM585.7 283.8c0-.8.5-1 .9-1-.4.1-.8.5-.9 1zM588.5 285.2c.6-1.5 1.2-2.1 2.8-2.2-1 .2-1.8.5-2.8 2.2zM590.2 287c.5.4 1.2.5 1.5-.3 0 .7-.9 1-1.5.3zM593.8 281.9c0-1 0-1.7 1.3-1.5-.6 0-1.3.1-1.3 1.5z"/><path fill="#E08A34" d="M596.7 279.5c.1-.7.6-1.2 1.4-.8-.6-.1-1.3 0-1.4.8zM602.2 279.1c0-1.1.4-1.6 1.1-1.7-.6.2-1 .9-1.1 1.7zM605.2 279.7c.3-.8.6-1.1 1.3-.4-.7-.6-1-.3-1.3.4zM610.3 281c.7-2.5.9-2.9 1.3-3.1.4-.2.8.1.8.1-.4-.2-.9-.1-1.1.4-.3.4-1 2.4-1 2.6zM609.5 283c.2.1.5.1.6-.7-.1.6-.1 1-.6.7zM601.5 285.3c.4.3.7.3.8-.8 0 1.2-.5 1.3-.8.8z"/></g></svg>