<svg xmlns="http://www.w3.org/2000/svg" viewBox="0 0 29.999999 30">
  <g transform="matrix(0.24718069,0,0,0.24718069,-70.98146,-79.23096)">
    <radialGradient id="a" cx="-1.8301001" cy="817.7627" r="48.6665" gradientUnits="userSpaceOnUse" gradientTransform="matrix(0.9676,0,0,0.9871,331.0159,-417.9418)">
      <stop offset="0" stop-color="#f8bf0b"/>
      <stop offset=".49000001" stop-color="#fdce00"/>
      <stop offset="1" stop-color="#f8bf0b"/>
    </radialGradient>
    <path fill="url(#a)" fill-rule="evenodd" stroke="#4d4d4d" stroke-width=".40456235" d="M333.609 360.485c.486-.993 1.182-1.888 1.547-2.933.379-1.082.631-2.233.664-3.382.041-1.436.273-3.049-.443-4.285-.426-.738-3.618-2.731-4.642-2.932-2.798-.549-3.491 1.041-3.979 3.157-.159.69-.205 1.138-.441 1.804-.361 1.012-1.105 3.209-1.105 4.285 0 1.118 1.156 5.483 0 5.863-1.895.623-3.993.47-5.969.226-.563-.068-2.08.065-3.785-.368-2.841-.726-6.2-2.239-6.518-3.105-.834-2.286-4.193-3.696-4.861-5.525-.668-1.83-2.521-2.425-3.189-4.253-.333-.913-2.049-3.064-2.216-3.52-.333-.913-2.425-6.25-2.929-3.564-.251 1.341-1.006 3.1.09 4.843 1.298 2.064 3.205 5.386 3.883 6.401 1.908 2.855 8.204 8.197 9.514 9.465.622.602 3.231 1.737 5.181 2.813-.143.599-.273 1.205-.477 1.774-.406 1.142-.127 2.173-.221 3.384-.135 1.737-.236 3.455-.442 5.187-.235 1.983-1.464 4.243-1.665 7.161-.158 2.291-.471 5.441-.609 7.854-.189 3.336-.293 5.888.41 8.37-.241 2.927-1.717 7.268-3.587 9.506-.721.863-1.263 4.856-1.798 6.018-.692 1.503-1.928 3.998-1.964 5.848-.039 2.017-.548 5.05-1.142 6.871-.659 2.021-4.516 7.31-4.525 7.814-.084 4.37 4.869.6 4.911-1.585-.101-3.533 3.122-4.815 3.214-9.689.027-1.345 1.715-1.648 1.756-3.833.091-4.707-.564-4.026 2.158-7.188.898-1.045 2.379-4.524 3.338-7.553.622-1.967 1.174-4.512 3.703-5.014 1.678-.332 3.389.466 5.085.677 1.325.164 2.646.495 3.979.451.982-.032 1.894-.601 2.873-.677 1.911-.15 3.832 0 5.748 0 .693 0 1.426.146 2.152.268 1.385 2.138 1.279 5.849 1.929 8.381.202.79-.349 3.668-.419 7.099-.055 2.669.395 5.674.324 8.308-.059 2.178.414 4.22.472 5.975.046 1.401.101 2.63.226 3.621.276 2.181.896 3.218 2.531 2.456l.125-10.922c.326-2.851.502-6.078.135-9.242-.199-1.718.313-6.211-.543-9.759-.688-2.867-.154-7.469-1.673-9.882-.241-1.495-.732-2.941-1.058-4.421-.463-2.101-.873-4.212-1.327-6.314-.356-1.656-.812-3.292-1.105-4.961-.368-2.092-.735-4.193-.884-6.314-.146-2.1-.412-4.253 0-6.314.115-.576.43-1.105.788-1.619 2.556-.334 5.079-.915 6.175-1.304 1.709-.604 8.525-2.61 11.449-4.425 1.039-.646 4.582-2.349 5.92-4.753 0-1.031 2.408-1.625 2.752-3.011.688-2.771-2.064-.963-2.752-.254-.344.354-3.439 2.348-4.127 3.056-1.375 1.419-3.269 2.17-4.643 3.589-1.376 1.419-4.988.527-6.707 2.3-.874.902-4.104 1.145-8.055 1.315-2.698.117-3.636-.836-3.232-3.239z"/>
    <radialGradient id="b" cx="-16.794901" cy="794.64447" r="30.8197" gradientUnits="userSpaceOnUse" gradientTransform="matrix(0.9755,0,0,0.9755,345.9836,-436.2357)">
      <stop offset="0" stop-color="#f8bf0b"/>
      <stop offset=".49000001" stop-color="#fdce00"/>
      <stop offset="1" stop-color="#f8bf0b"/>
    </radialGradient>
    <path fill="url(#b)" fill-rule="evenodd" stroke="#4d4d4d" stroke-width=".40456235" d="M345.983 336.371c.513-1.539 3.464-3.85 5.004-4.747.771-.385 1.411-.642 1.411-1.54 0-.642-.256-1.155-.641-1.411-.386-.256-1.412-.256-1.412.256 0 1.797-1.924 2.182-2.822 3.08-.77.771-1.283 1.668-1.668 2.31-.898 1.412-2.31 2.694-3.85 3.85-.301.218-.479.448-.561.676-.891-.654-1.836-1.218-2.903-1.599-.876-.313-1.839-.673-2.872-1.03.076-.303.212-.479.434-.998.257-.77 1.155-1.283 1.283-2.053.129-1.027.257-2.054.642-2.823 0-.129.129-.77.129-1.154 0-1.027 1.282-2.311 1.282-3.336 0-.129 0-1.283-.128-1.283-1.026 0-1.283.256-1.411 1.283 0 .513-.129 1.283-.257 1.795-.257 1.156-1.54 1.412-1.54 2.824 0 1.667-1.41 2.95-1.41 4.618 0 .115-.077.436-.139.754-2.032-.655-4.279-1.234-6.597-1.385-.966-.063-1.945-.015-2.927.085-.357-1.87-.482-4.113.166-5.484.246-.519 0-1.154 0-1.924 0-.771 0-2.311-.385-2.695-.128-.128-1.539-1.282-1.539.77 0 1.668.898 3.336.514 5.004-.129.898-.514 1.54-.514 2.567 0 .523-.015 1.278-.027 1.992-1.564.232-3.119.517-4.619.629-1.305.099-2.568.147-3.766.249-.254-.885-.646-2.14-.826-2.229-.77-.385-1.026-1.539-1.026-2.694 0-.77-.513-1.411-.897-2.182-.385-.77-.514-.898-.514-2.053 0-.77.256-2.053-.643-2.053-1.154 0-1.667.257-1.667 1.54 0 .513.897 2.181 1.155 2.438.512.512.736 2.828.897 3.592.265 1.258 1.302 2.415 1.802 3.837-1.016.158-1.966.397-2.828.796-1.76.813-4.171 1.128-6.016 1.813l-.001-.001c-.277-.37-.912-1.441-.912-1.954 0-.643-.128-1.541-.385-2.053-.385-.643-1.797-1.926-1.797-2.823 0-.514.257-1.412-.513-1.412-1.412 0-1.283 1.669-.898 2.438.128.257.385.642.642.898v.256c.128.258.385.643.514.77.256.258.272.764.385 1.027.272.635.527 2.082 1.041 2.596l.257.385c0 .129.128.385.256.514.011.012.023.022.034.033-.468.312-.84.688-1.075 1.159-2.052 4.117 5.958-1.202 6.544-.946 2.053.897 2.565-1.165 6.03-1.187 1.925-.011 3.614-.243 5.17-.417 2.594-.288 5.074-.512 7.404-1.067 1.789-.426 1.539 1.537 5.004 1.517 1.154-.006 6.305 1.484 6.672 2.008.53.754 7.441 6.242 7.699 5.984.761-.005 1.521 1.912 2.781 3.288.756.825 2.02.964 2.65 1.754 1.153 1.444 1.934 2.469 3.035 1.963 1.424-.653 2.511-2.554-.043-4.018-.691-.397-1.309-.919-1.856-1.465.236-.663 1.287-2.093 1.899-2.093 1.156 0 1.027-.77 1.283-1.026.771-.77 2.182-2.182 2.823-2.822.192-.192.834-1.059.706-1.107-.423-.158 0-.818-.834-.818-1.412 0-3.593 3.85-4.876 4.234-.257 0-1.411 1.797-2.053 2.054-.097.048-.17.104-.224.168-.67-.793-1.187-1.433-1.572-1.54-2.869-.803-4.853-2.72-6.884-4.479.424-.688 2.453-2.921 2.78-3.903z"/>
  </g>
</svg>
