<svg xmlns="http://www.w3.org/2000/svg" viewBox="0 0 500 165.27358">
  <path fill="#d5d4cf" d="M155.35509 165.27357l145.52803-1.43963c1.06408 0 2.37852-.62593 3.12964-1.69001l3.06704-5.9463H3.6303767l3.0670425 5.9463c.8137051 1.06408 2.0655591 1.69001 3.1296351 1.69001l145.5280357 1.43963"/>
  <path fill="#e2e4e2" d="M155.04212 87.470841h153.28953c1.00149 0 1.7526.81371 1.7526 1.7526l-1.81519 65.158999c0 1.00148-.81371 1.7526-1.7526 1.7526H3.6303767c-1.0014832 0-1.7525956-.81371-1.7525956-1.7526L0 89.223441c0-1.00149.81370513-1.7526 1.7525957-1.7526H155.04212"/>
  <path fill="#bdbbb8" d="M266.7701 148.87428h.12518v1.43963l-.0626.12519s-.0626.0626-.12519.0626h-2.5663c-.0626 0-.12518 0-.12518-.0626l-.0626-.12519v-1.43963h.25037v1.18926h.87629v-1.00148h.25038v1.00148h1.00148v-1.18926h.43815zm-.56334-1.25185h.31297c.0626 0 .18777.0626.25037.12518.0626.0626.12518.12519.12518.18778.0626.0626.0626.18778.0626.31296v.25038l-.0626.0626-.0626.0626h-.31296v-.0626l.0626-.0626.0626-.0626v-.25037l-.0626-.0626c-.0626 0-.0626-.0626-.12519-.0626h-2.31593v-.25037l2.06556-.18778zm.56334-2.37852h.12518v1.43963l-.0626.12518s-.0626.0626-.12519.0626h-2.5663c-.0626 0-.12518 0-.12518-.0626l-.0626-.12518v-1.43963h.25037v1.18926h.87629v-1.00149h.25038v1.00149h1.00148v-1.18926h.43815zm-.25037-2.50371h.25037l.0626.0626c0 .0626.0626.12519.0626.18778 0 .0626.0626.12518.0626.25037v.31296c0 .18778 0 .37556-.0626.50074-.0626.12519-.12518.25037-.25037.37556-.12518.12519-.25037.18778-.43815.25037-.18777.0626-.37555.0626-.62592.0626-.25037 0-.43815 0-.62593-.0626s-.31296-.12518-.43815-.25037c-.12519-.12519-.25037-.25037-.31296-.37556-.0626-.12518-.12519-.31296-.12519-.50074v-.25037c0-.0626.0626-.12518.0626-.18778 0-.0626.0626-.12518.0626-.18777l.0626-.12519.0626-.0626h.31297l-.0626.0626c0 .0626-.0626.0626-.12518.12519-.0626.0626-.0626.12518-.12519.18777 0 .0626-.0626.18778-.0626.31297 0 .12518 0 .25037.0626.31296.0626.12519.12519.18778.25037.25037.12519.0626.18778.12519.37556.18778.18778.0626.31296.0626.50074.0626.18778 0 .31296 0 .50074-.0626.18778-.0626.25037-.12519.37556-.18778.12518-.0626.18778-.18778.18778-.25037.0626-.12519.0626-.25037.0626-.37556 0-.12518 0-.18777-.0626-.31296 0-.0626-.0626-.12518-.0626-.18778-.0626-.0626-.0626-.12518-.0626-.12518l-.0626-.0626h.0626l.12519.0626zm-2.12816-2.25334v.8763h2.56631v.31296l-.0626.0626h-2.50371v.81371l-.0626.0626h-.12518l-.0626-.0626h-.0626v-2.06556h.31296M45.129318 148.8117c.125186 0 .250371 0 .375557.0626.125185.0626.187778.12519.312963.18778.06259.0626.125186.18778.187778.31296.06259.12519.06259.25037.06259.43815v.31297h1.001483v.25037h-2.628893c-.06259 0-.125186 0-.125186-.0626l-.06259-.12518v-.81371c0-.0626 0-.12518.06259-.18777 0-.0626.06259-.12519.125186-.25038l.187778-.18777c.06259-.0626.125185-.12519.250371-.12519.06259.18778.125185.18778.25037.18778zm0 .37556c-.125185 0-.187778 0-.312963.0626l-.187778.18778c-.06259.0626-.06259.12518-.06259.18777v.56334h1.126669v-.31296c0-.12519 0-.18778-.06259-.31297 0-.0626-.06259-.12518-.125185-.18778-.06259-.0626-.125186-.0626-.187778-.12518 0-.0626-.06259-.0626-.187779-.0626zm.563335-3.38001c.250371 0 .438149 0 .625927.0626s.312963.12519.500741.25037c.125186.12519.250371.25037.312964.37556.06259.18778.125185.37556.125185.56333 0 .18778-.06259.37556-.125185.56334-.06259.12518-.125186.31296-.250371.37555-.125185.12519-.250371.18778-.438149.25037-.187778.0626-.375556.0626-.625927.0626s-.438149 0-.625927-.0626-.312963-.12518-.438149-.25037c-.125185-.12518-.250371-.25037-.312963-.37555-.06259-.18778-.125186-.37556-.125186-.56334 0-.18777.06259-.37555.125186-.56333.06259-.12519.125185-.31296.250371-.37556.125185-.12518.25037-.18778.438148-.25037.125186 0 .312964-.0626.563335-.0626zm0 .43815c-.187778 0-.312964 0-.438149.0626-.125186 0-.250371.0626-.375556.12519-.125186.0626-.187778.12518-.250371.25037-.06259.12518-.06259.25037-.06259.43815 0 .18777 0 .31296.06259.43815.06259.12518.125185.18777.250371.25037.125185.0626.25037.12518.375556.12518.125185 0 .250371.0626.438149.0626s.312963 0 .438149-.0626c.125185-.0626.25037-.0626.375556-.12518.125185-.0626.187778-.12519.250371-.25037.06259-.12519.06259-.25038.06259-.43815 0-.18778 0-.31297-.06259-.43815-.06259-.12519-.125186-.18778-.250371-.25037-.125186-.0626-.250371-.12519-.375556-.12519-.125186-.0626-.250371-.0626-.438149-.0626zm1.439632-3.56779v.31297h-.06259v.0626l-2.190744.56333 2.190744.56334v.0626h.06259v.37556l-.06259.0626v.0626l-2.628893.75112h-.125186l-.06259-.0626v-.25037l.06259-.0626.06259-.0626 2.378523-.62593-2.378523-.62593h-.06259l-.06259-.0626v-.25037h.06259v-.0626h.06259l2.378523-.68852-2.378523-.62593h-.06259l-.06259-.0626v-.25037l.06259-.0626h.125186l2.628893.75112v.0626l.06259.0626m-.125186-2.94186h.125186v1.43964l-.06259.12518s-.06259.0626-.125185.0626h-2.503708c-.06259 0-.125186 0-.125186-.0626l-.06259-.12518v-1.43964h.25037v1.18927h.876298v-1.00149h.250371v1.00149h1.001483v-1.18927h.375556zm.06259-2.5663l.06259.12519v.31296h-.06259l-.68852.25037c-.06259 0-.125185.0626-.187778.12519-.06259.0626-.125185.0626-.187778.12518-.06259.0626-.06259.12519-.125185.18778 0 .0626-.06259.12519-.06259.25037v.25037h1.189261v.25037h-2.5663c-.06259 0-.125186 0-.125186-.0626l-.06259-.12518v-.93889c0-.12519.06259-.18778.06259-.31297.06259-.0626.06259-.12518.125186-.18778.06259-.0626.125185-.12518.187778-.12518.06259 0 .187778-.0626.250371-.0626.125185 0 .187778 0 .25037.0626.06259 0 .125186.0626.187779.12518.06259.0626.125185.12519.125185.18778.06259.0626.06259.12519.125185.25037l.06259-.12518.125185-.12519c.06259-.0626.125186-.0626.125186-.0626.06259 0 .125185-.0626.187778-.0626l.625927-.25037.375556-.0626zm-2.002966.62593c-.125186 0-.187778 0-.312964.0626-.06259.0626-.125185.12519-.187778.25037v.62593h.938891v-.37555c0-.12519 0-.18778-.06259-.25038 0-.0626-.06259-.12518-.125185-.18777-.06259-.0626-.125186-.0626-.125186-.12519h-.125185zm254.940077-6.63483c-.12518.43815-.56333.8763-1.00148 1.06408-.31296.12519-1.94037.56333-7.6989 2.19075l-.8763.25037v-2.19075s1.56482-.43815 3.50519-.8763l3.50519-.87629-1.62741-.43815c-3.81815-1.00149-4.44408-1.18926-4.69445-1.31445-.37556-.18778-.62593-.43815-.68852-.81371-.0626-.18777-.0626-.62592 0-.8137.12518-.37556.37556-.68852.8137-.8763.25037-.12518 1.06408-.31296 4.19372-1.12667 1.06407-.25037 1.94037-.50074 1.94037-.50074s-1.25186-.37555-3.4426-.93889l-3.50519-.8763v-2.19074s.8763.25037 1.87778.50074c4.81964 1.31445 6.44705 1.81519 6.76001 1.94037.50074.25037.81371.62593.93889 1.06408.0626.18778.0626.56333 0 .75111-.0626.25037-.12518.37556-.37555.62593-.18778.18778-.25037.25037-.43815.31296-.31297.12519-.81371.31297-4.3189 1.25186-.8137.25037-1.50222.43815-1.50222.43815s.75111.25037 1.75259.50074c2.19075.62592 3.31741.93889 3.63038 1.00148.68852.18778 1.12667.62593 1.25185 1.12667v.8137zm-3.38-11.45446h-3.31742v-2.12815h6.63483v2.12815h-3.31741zm0-4.19371h-3.31742v-2.12815h6.63483v2.12815h-3.31741zm-4.50668 3.4426c-.12518.50074-.50074.8763-1.00148.93889-.56334.12518-1.12667-.31297-1.31445-.8763-.0626-.31296-.0626-.68852.12519-.93889.0626-.18778.31296-.43815.43815-.50074.50074-.31297 1.18926-.12519 1.50222.37555.25037.31297.31296.68852.25037 1.00149zm0-4.19371c-.12518.62592-.75111 1.06407-1.31444.93889-.43815-.0626-.81371-.43815-.9389-.8763-.0626-.31296-.0626-.68852.12519-.93889.0626-.18778.31296-.37556.43815-.50074.50074-.31297 1.18926-.12519 1.50222.37555.18778.31297.25037.68852.18778 1.00149z"/>
  <path fill="#eeefec" d="M152.35064 119.89386l-121.55503-1.75259-.438149-.12519c-3.442599-1.12667-5.946307-4.63186-5.946307-8.32483 0-3.56778 2.253337-6.50964 5.883714-7.6989l.438149-.12519 122.368733-2.941849h3.75556l122.43133 2.941849.43815.12519c3.63037 1.18926 5.88371 4.13112 5.88371 7.6989 0 3.69297-2.50371 7.19816-5.88371 8.26224l-.43815.12518-123.558 1.7526-3.38.0626z"/>
  <path fill="#91b9e3" d="M153.16434 102.05494L31.296351 104.9968c-5.758528 1.87778-4.131118 8.63779 0 10.01483l121.054289 1.7526h3.38l123.05726-1.7526c4.13111-1.37704 5.75853-8.13705 0-10.01483l-121.99318-2.94186h-3.63038z"/>
  <path d="M33.048947 105.56013c-5.695936 1.37704-4.131118 6.38446 0 7.38594l119.301693 1.25185c.8137.0626 1.81519 0 2.69148 0l121.99318-1.31444c4.13112-1.00149 5.69594-6.0089 0-7.38594l-121.99318-2.19075c-40.62266.62593-81.307917 1.50223-121.993173 2.25334z"/>
  <path fill="#bdbbb8" d="M72.920498 150.81466h-3.129635v-1.12667c0-.25037 0-.43815.06259-.50074.06259-.12519.125185-.18778.312963-.25038.125186-.0626.312964-.12518.500742-.12518.250371 0 .438149.0626.563334.18778.125186.12518.250371.31296.250371.56333.06259-.12518.125186-.18778.187778-.18778.125186-.12518.250371-.18777.375556-.25037l.876298-.43815v.43815l-.625927.31297c-.250371.12518-.438149.25037-.500741.31296l-.187778.18778c0 .0626-.06259.12518-.06259.25037v.37555h1.377039v.25038zm-1.752595-.31297v-.75111c0-.18778 0-.25037-.06259-.37556-.06259-.12518-.125185-.12518-.187778-.18777-.06259-.0626-.187778-.0626-.312964-.0626-.187778 0-.312963.0626-.375556.12519-.06259.0626-.125185.25037-.125185.43815v.8137h1.064076zm-1.001484-4.13112v1.50223h.938891v-1.43963h.375556v1.43963h1.064076v-1.56482h.375556v1.94037h-3.129635v-1.87778m2.128152-.43815l-.06259-.31296c.187778 0 .312964-.0626.375557-.12518.125185-.0626.187778-.12519.25037-.25037.06259-.12519.06259-.25038.06259-.37556 0-.18778-.06259-.37556-.125185-.50074-.125186-.12519-.250371-.18778-.375557-.18778-.06259 0-.187778 0-.25037.0626l-.187778.18778c-.06259.0626-.125186.25037-.187779.50074-.06259.25037-.125185.43815-.187778.50074l-.25037.25037c-.125186.0626-.250371.0626-.375557.0626-.250371 0-.438149-.0626-.625927-.25037-.187778-.18778-.250371-.37556-.250371-.68852 0-.18778.06259-.37556.125186-.50075.06259-.12518.187778-.25037.312963-.31296.125186-.0626.312964-.12518.500742-.12518v.31296c-.187778 0-.375556.0626-.438149.18778-.125185.12518-.125185.25037-.125185.43815 0 .18777.06259.31296.125185.43815.06259.12518.187778.12518.312964.12518.125185 0 .25037-.0626.312963-.12518.06259-.0626.125186-.25038.187778-.50075.06259-.25037.125186-.43815.187778-.56333.06259-.18778.187778-.25037.312964-.37556.125185-.0626.312963-.12518.438149-.12518.187778 0 .312963.0626.500741.12518.125186.0626.250371.18778.312964.31297.06259.12518.125185.31296.125185.50074 0 .31296-.125185.56333-.312963.75111-.125186.50074-.375556.56333-.68852.56333zm-1.752596-4.38148v1.56481h.938891v-1.43963h.375556v1.43963h1.064076v-1.62741h.375556v1.94038h-3.129635v-1.87778m0-.31297v-2.06556h.375556v.8763h2.754079v.31296h-2.754079v.8763"/>
  <path fill="#fff" d="M30.357461 156.19763l-.68852-17.08781c0-1.25185.93889-2.25334 2.128152-2.25334h6.071492c1.189261 0 2.128152 1.00149 2.128152 2.19075l.68852 17.1504H30.357461z"/>
  <path fill="#edefea" d="M34.238208 161.33023c-1.064076 0-1.502225-.81371-1.752595-1.31445l-.125186-.18778-2.002966-3.63037h10.327796l1.439632 2.50371c.250371.50074.250371 1.12666 0 1.56481-.312964.62593-1.064076 1.00149-1.815189 1.00149h-6.071492z"/>
  <path fill="#ebece7" d="M31.04598 156.19763l-.688519-17.02522c0-.56333.500741-1.06407 1.064076-1.06407h6.634826c.563334 0 1.064076.50074 1.064076 1.06407l.68852 17.02522H31.04598z"/>
  <path fill="#e4e4e2" d="M39.808959 156.19763H31.04598l1.940374 3.38c.312964.56334.438149.93889.938891.93889h6.885197c.500742 0 1.189261-.50074.93889-.93889l-1.940373-3.38z"/>
  <path fill="#b9bcbf" d="M31.671906 143.86687h3.880748v.56333h-3.880748z"/>
  <path fill="#b9bcbf" d="M32.485613 142.99057h.688519c.438149-.62593 1.126669-1.06408 1.940374-1.06408 1.251854 0 2.31593 1.00149 2.31593 2.31593 0 1.25186-1.001483 2.31593-2.31593 2.31593-.813705 0-1.502225-.43815-1.940374-1.06407v.0626h-.625927c.500742.93889 1.439632 1.56482 2.566301 1.56482 1.62741 0 2.879264-1.31445 2.879264-2.87927 0-1.62741-1.314446-2.87926-2.879264-2.87926-1.189261 0-2.190745.68852-2.628893 1.62741z"/>
  <path fill="#b2d42e" d="M35.239691 153.50614c-.312963 0-.625927-.12518-.876297-.37555-.250371-.25038-.375557-.56334-.375557-.8763 0-.68852.563335-1.18926 1.189262-1.18926.312963 0 .625927.12518.876298.37555.25037.25037.375556.56334.375556.8763s-.125186.62593-.375556.8763c-.187779.18778-.500742.31296-.813706.31296z"/>
  <path fill="#d2eb76" d="M35.239691 151.56577c-.438148 0-.751112.31296-.751112.75111 0 .18778.06259.37556.250371.56333.125185.12519.312963.25038.563334.25038.187778 0 .375556-.0626.563334-.25038.125186-.12518.250371-.31296.250371-.56333 0-.18778-.06259-.37556-.250371-.56333-.25037-.12519-.438148-.18778-.625927-.18778z"/>
  <path fill="#fff" d="M57.835657 156.19763l-.563334-17.08781c0-1.25185.813705-2.25334 1.877781-2.25334h5.257787c1.001483 0 1.877781 1.00149 1.877781 2.19075l.563334 17.1504h-9.013349z"/>
  <path fill="#edefea" d="M61.215663 161.33023c-.938891 0-1.314447-.81371-1.502225-1.31445l-.06259-.18778-1.752595-3.63037h9.013349l1.251854 2.50371c.250371.50074.250371 1.12666 0 1.56481-.312964.62593-.938891 1.00149-1.564818 1.00149h-5.382972z"/>
  <path fill="#ebece7" d="M58.398991 156.19763l-.563334-17.02522c0-.56333.438149-1.06407.938891-1.06407h5.758528c.500742 0 .938891.50074.938891 1.06407l.563334 17.02522h-7.63631z"/>
  <path fill="#e4e4e2" d="M66.035301 156.19763h-7.63631l1.690003 3.38c.250371.56334.375557.93889.813705.93889h6.0089c.438149 0 1.064076-.50074.813705-.93889l-1.690003-3.38z"/>
  <path fill="#fff" d="M279.53901 156.19763l.68852-17.08781c0-1.25185-1.00148-2.25334-2.19075-2.25334h-6.25927c-1.18926 0-2.19074 1.00149-2.19074 2.19075l-.68852 17.1504h10.64076z"/>
  <path fill="#edefea" d="M275.53308 161.33023c1.12666 0 1.56481-.81371 1.81518-1.31445l.12519-.18778 2.12815-3.63037h-10.70335l-1.50223 2.50371c-.31296.50074-.25037 1.12666 0 1.56481.37556.62593 1.12667 1.00149 1.87779 1.00149h6.25927z"/>
  <path fill="#ebece7" d="M278.91308 156.19763l.68852-17.02522c0-.56333-.50074-1.06407-1.12667-1.06407h-6.88519c-.62593 0-1.12667.50074-1.12667 1.06407l-.68852 17.02522h9.13853z"/>
  <path fill="#e4e4e2" d="M269.77455 156.19763h9.07594l-2.00297 3.38c-.31296.56334-.43815.93889-1.00148.93889h-7.13557c-.56333 0-1.25185-.50074-1.00148-.93889l2.06556-3.38z"/>
  <path fill="gray" d="M142.46099 136.10537v1.00148h25.16227v-1.00148h-25.16227"/>
  <path fill="#848381" d="M215.88223 156.19763h-.68852c0 1.00148-.62593 4.56927-1.62741 4.56927H96.643132c-1.001483 0-1.62741-3.56779-1.62741-4.56927h-.68852c0 1.00148.813706 4.88223 1.815189 4.88223H214.06704c1.00149 0 1.81519-3.94334 1.81519-4.88223"/>
  <path fill="#8a8b8a" d="M212.06408 135.60463H98.020172c-2.31593 0-3.818155 2.25334-3.818155 4.69445v15.89855h.68852l-.187778-15.71077c0-2.19074 1.251854-4.19371 3.25482-4.19371H142.3984v-.18778h25.16226v.18778h44.44082c2.00297 0 3.25482 2.00297 3.25482 4.19371l-.18777 15.71077h.68852v-15.89855c.12518-2.44111-1.37704-4.69445-3.69297-4.69445"/>
  <path fill="#595959" d="M167.62326 136.10537h-25.16227v.12519h25.16227v-.12519"/>
  <path fill="#bdbbb8" d="M272.84159 146.87132l2.81667-2.25334v4.50667m.81371-4.50668h.75112v4.50668h-.75112z"/>
  <path fill="#ebeae8" d="M155.04212 64.248951h113.79354c.62592 0 1.31444.18778 1.87778.50074l38.30673 22.90893H1.0640759L39.37081 64.749691c.563334-.31296 1.189261-.50074 1.877781-.50074H155.04212z"/>
  <path fill="#bdbbb8" d="M292.62088 84.591581H17.463364v-.0626l.06259-.0626c.25037-.18778 1.189261-.75111 4.506674-2.75408l24.849303-14.83447H263.26491l24.72411 14.83447c3.31742 2.00297 4.25631 2.5663 4.50668 2.75408l.12518.0626v.0626zm-274.719367-.18778H292.18273c-3.00444-1.81519-28.10412-16.83744-29.04301-17.40077H46.944527c-.876298.56333-26.038564 15.64817-29.043014 17.40077z"/>
  <path fill="#bdbbb8" d="M6.3218629 84.403801H17.588549v.18778H6.3218629zm286.2364171 0h11.26669v.18778h-11.26669z"/>
  <g transform="matrix(0.9756409,0,0,0.9756409,334.72643,0)">
    <path fill="#0f1317" d="M84.7 169.4C38 169.4 0 131.4 0 84.7S38 0 84.7 0s84.7 38 84.7 84.7-38 84.7-84.7 84.7zM84.7.1C38.1.1.1 38.1.1 84.7c0 46.6 37.9 84.5 84.5 84.5s84.5-37.9 84.5-84.5C169.2 38.1 131.3.1 84.7.1z"/>
    <path fill="#005c9b" d="M166.9 84.7c0 45.4-36.8 82.2-82.2 82.2-45.4 0-82.2-36.8-82.2-82.2 0-45.4 36.8-82.2 82.2-82.2 45.4 0 82.2 36.8 82.2 82.2zm-82.2-21c-11.6 0-21 9.4-21 21s9.4 21 21 21 21-9.4 21-21-9.4-21-21-21z"/>
    <path fill="#a299a1" d="M84.7 99.4c-8.1 0-14.7-6.6-14.7-14.7S76.6 70 84.7 70s14.7 6.6 14.7 14.7-6.6 14.7-14.7 14.7zm0-28.4C77.1 71 71 77.1 71 84.7c0 7.5 6.1 13.7 13.7 13.7 7.5 0 13.7-6.1 13.7-13.7S92.2 71 84.7 71z"/>
    <path fill="#a299a1" d="M84.7 96.5c-6.5 0-11.8-5.3-11.8-11.8 0-6.5 5.3-11.8 11.8-11.8 6.5 0 11.8 5.3 11.8 11.8 0 6.5-5.3 11.8-11.8 11.8zm0-22.7c-6 0-10.8 4.9-10.8 10.8 0 6 4.9 10.8 10.8 10.8 6 0 10.8-4.9 10.8-10.8s-4.8-10.8-10.8-10.8z"/>
    <path fill="#c1cdcc" d="M24.3 91.9c-.6-.2-1.2-.7-1.5-1.4-.2-.4-.8-2.7-3-10.7l-.3-1.2h3s.6 2.2 1.3 4.9l1.2 4.8.6-2.2c1.4-5.3 1.6-6.2 1.8-6.5.2-.5.6-.9 1.1-1 .3-.1.9-.1 1.1 0 .5.1 1 .5 1.2 1.1.1.3.4 1.5 1.6 5.8.4 1.5.7 2.7.7 2.7s.5-1.8 1.3-4.8l1.2-4.8h3s-.3 1.2-.7 2.6c-1.9 6.7-2.5 9-2.7 9.4-.3.7-.8 1.1-1.5 1.3-.3.1-.8.1-1.1 0-.4-.1-.6-.2-.9-.5-.2-.2-.3-.3-.4-.6-.2-.4-.4-1.1-1.7-6-.3-1.1-.6-2.1-.6-2.1s-.3 1.1-.7 2.5c-.8 3-1.3 4.6-1.4 5.1-.3.9-.8 1.5-1.5 1.7-.3 0-.9 0-1.1-.1zm15.8-4.6v-4.6H43v9.2h-2.8v-4.6zm5.8 0v-4.6h2.8v9.2h-2.8v-4.6zm4 4.1V91h-.2c-.2 0-.2 0-.2-.1v-.1h.9v.1c0 .1 0 .1-.2.1H50v1h-.1v-.6zm.6 0v-.5h.4l.1.3c.1.2.1.4.1.4 0 .1.1 0 .2-.4l.1-.3h.4v1h-.2v-.4c0-.4 0-.4-.2.1-.1.3-.1.3-.2.3s-.1 0-.2-.4l-.1-.4v.8h-.2v-.5zM41.2 81c-.7-.1-1.2-.7-1.3-1.3-.1-.8.4-1.6 1.2-1.8.4-.1.9-.1 1.3.1.2.1.6.4.7.7.4.7.2 1.7-.5 2.1-.4.2-1 .3-1.4.2zm5.8 0c-.8-.2-1.4-1-1.3-1.8.1-.6.6-1.2 1.2-1.3.4-.1.9-.1 1.3.1.2.1.5.4.7.6.4.7.2 1.7-.5 2.1-.4.3-1 .4-1.4.3zm-28.4-3.6"/>
    <circle cx="84.699997" cy="84.699997" r="21" fill="none" stroke="#2b84c6" stroke-miterlimit="10"/>
    <g fill="#c1cdcc">
      <path d="M74.8 152c-2.1 0-3.5-1.5-3.5-3.4s1.4-3.4 3.5-3.4h19.8c2.1 0 3.5 1.5 3.5 3.4s-1.4 3.4-3.5 3.4H74.8zm0-6c-1.7 0-2.7 1.2-2.7 2.6 0 1.4 1 2.6 2.7 2.6h19.8c1.7 0 2.7-1.1 2.7-2.6 0-1.4-1-2.6-2.7-2.6H74.8z"/>
      <path d="M73.9 146.9h1l1.3 2.2v-2.2h1v3.2h-1l-1.3-2.2v2.2h-1v-3.2zm8.5.4h.9v.4h.5v.3h-.5v2.1h-.9V148h-.5v-.3h.5v-.4zm-4.7.7h.9v2.1h-.9V148zm0-1.1h.9v.7h-.9v-.7zm16.4 1c-.8 0-1.4.5-1.4 1.2s.6 1.2 1.4 1.2c.8 0 1.4-.5 1.4-1.2s-.6-1.2-1.4-1.2m.4 1.2v.5c0 .3-.2.5-.4.5s-.4-.1-.4-.5v-.9c0-.3.2-.5.4-.5s.4.1.4.5v.4zm-2.9 0v-.4c0-.3-.2-.4-.4-.4-.1 0-.4.1-.4.4v.8c0 .3.2.4.4.4.1 0 .4-.1.4-.4v-.4zm-.1-2.2h.9v3.2h-.9v-.1c-.4.2-.8.2-1.1.1-.1 0-.6-.3-.6-1.1 0-.6.5-1.2 1.2-1.1.2 0 .4.1.5.2v-1.2zm-10.6 1c.4 0 1.1.2 1.1 1.1v1.2h-1v-1.4c0-.2-.2-.4-.4-.4-.3 0-.4.2-.4.4v1.4h-.9v-2.1h.9v.2c.1-.2.4-.4.7-.4m7.6 0c.4 0 1.1.2 1.1 1.1v1.2h-.9v-1.4c0-.2-.2-.4-.4-.4-.3 0-.4.2-.4.4v1.4H87V148h.9v.2c0-.1.3-.3.6-.3m-3 1.5v.1c0 .4-.2.5-.4.5-.1 0-.4-.1-.4-.5v-.4h1.8c0-.7-.6-1.2-1.4-1.2-.8 0-1.4.5-1.4 1.2s.6 1.2 1.4 1.2c.6 0 1.2-.4 1.3-.9h-.9zm-.8-.6c0-.2 0-.3.1-.4.1-.1.2-.2.3-.2.1 0 .3.1.3.2.1.1.1.2.1.4h-.8zm11-1.5c.1 0 .2 0 .2-.1s-.1-.1-.2-.1h-.1v.2h.1zm-.1.4h-.1v-.7h.3c.2 0 .3.1.3.2s-.1.2-.2.2l.2.3H96l-.2-.3h-.1l-.1.3z"/>
      <path d="M95.7 147.9c.3 0 .5-.2.5-.5s-.2-.5-.5-.5-.5.2-.5.5c0 .2.2.5.5.5m-.6-.6c0-.4.3-.6.6-.6s.6.3.6.6c0 .4-.3.6-.6.6-.3.1-.6-.2-.6-.6"/>
    </g>
    <path fill="#fff" d="M125.3 79.3c4.2 0 7.7 2.4 7.7 5.3s-3.4 5.3-7.7 5.3c-4.2 0-7.7-2.4-7.7-5.3.1-2.9 3.5-5.3 7.7-5.3z"/>
    <g fill="#a58353">
      <path d="M123.7 87.8h.2c0 .1 0 .1.1.2 0 0 .1.1.2.1h.2l.1-.1v-.1h-.3c-.1 0-.2-.1-.3-.1-.1-.1-.1-.1-.1-.3 0-.1 0-.2.1-.3.1-.1.2-.1.3-.1.1 0 .3 0 .3.1.1.1.1.2.1.3h-.2c0-.1 0-.1-.1-.1h-.4l-.1.1v.1h.4c.1 0 .2.1.3.1.1.1.1.2.1.3 0 .1 0 .3-.1.3s-.2.1-.4.1-.3 0-.4-.1v-.5zm1.9.1c0 .1-.1.2-.1.3-.1.1-.2.1-.3.1-.1 0-.2 0-.3-.1-.1-.1-.1-.2-.1-.4s0-.3.1-.4c.1-.1.2-.1.3-.1.1 0 .2 0 .3.1.1.1.1.2.1.4v.1l-.6-.1v.2l.1.1h.1l.1-.1.3-.1zm-.6-.3h.3c0-.1 0-.1-.1-.1l-.1-.1s-.1 0-.1.1v.1zm1.5.5s0 .1 0 0v.1h-.2v-.1l-.1.1h-.2c-.1 0-.2 0-.2-.1-.1-.1-.1-.1-.1-.2s0-.2.1-.2c0 0 .1-.1.3-.1h.1c.1 0 .2-.1.2-.1v-.1h-.2v.1h-.2c0-.1 0-.2.1-.3.1-.1.2-.1.3-.1h.2s.1 0 .1.1c0 0 0 .1.1.1v.2l-.3.6zm-.2-.3h-.4v.2h.1c.1 0 .1 0 .2-.1.1.1.1 0 .1-.1z"/>
      <path d="M126.7 88.2v-1.3h.2v1.3h-.2z"/>
    </g>
    <path fill="#a58353" d="M133.9 84.6l.9 1-1.3.8.4 1.5h-1.4l-.1 1.7-1.6-.4-.3 1.6-1.5-.6-.8 1.4-1.1-1-1 1.4-1.1-1.2-1.2 1.1-.8-1.3-1.4.8-.5-1.5-1.6.6-.2-1.4-1.5.1.2-1.5h-1.5l.3-1.6-1.2-.6.9-1-.8-1.5 1.3-.4-.4-1.6h1.5l.2-1.5 1.3.4.4-1.5 1.3.7.6-1.3 1.2.8.8-1.3 1.1 1.1 1-1 .9 1.3 1.3-.9.5 1.4 1.3-.6.3 1.5 1.6-.3v1.4l1.6.2-.5 1.4 1.4.6-.5 1.2zm-.9 0c0-2.9-3.4-5.3-7.7-5.3-4.2 0-7.7 2.4-7.7 5.3s3.4 5.3 7.7 5.3c4.2.1 7.7-2.3 7.7-5.3z"/>
    <path fill="#a58353" d="M122.8 81.9c0-.4.2-.4.3-.4.1 0 .3.1.3.4 0 .4-.2.4-.3.4-.1 0-.3 0-.3-.4zm-.3 0c0 .6.4.7.6.7.2 0 .6-.1.6-.7s-.4-.7-.6-.7c-.2 0-.6.1-.6.7zm1.7.6h-.2v-.8h-.1v-.2h.1v-.1c0-.2.1-.3.3-.3h.1v.2h-.1c-.1 0-.1 0-.1.1h.2v.2h-.2v.9zm.5 0h-.2v-.8h-.1v-.2h.1v-.1c0-.2.1-.3.3-.3h.1v.2h-.1c-.1 0-.1 0-.1.1h.2v.2h-.2v.9zm.5-.9v.9h-.2v-.9h.2zm0-.1h-.2v-.2h.2v.2zm1 .7c0 .1-.1.4-.4.4-.4 0-.4-.3-.4-.5 0-.3.1-.5.4-.5.1 0 .4.1.4.4h-.2c0-.1 0-.2-.2-.2s-.2.2-.2.3c0 .1 0 .3.2.3.1 0 .2-.1.2-.2h.2zm.4-.6v.9h-.2v-.9h.2zm0-.1h-.2v-.2h.2v.2zm.8.7c0 .1-.1.2-.2.2 0 0-.1 0-.1-.1s.1-.1.2-.1.1 0 .2-.1v.1h-.1zm.2-.4c0-.2-.2-.3-.4-.3s-.4 0-.4.3h.2c0-.1 0-.1.2-.1.1 0 .2 0 .2.1s0 .1-.1.1h-.2c-.2 0-.3.1-.3.3 0 .2.1.3.3.3.2 0 .2-.1.3-.1v.1h.3s-.1 0-.1-.1v-.6zm.4-.5v1.2h-.2v-1.2"/>
    <path fill="#a58353" d="M125.3 89.5c4 0 7.2-2.2 7.2-4.9s-3.2-4.9-7.2-4.9-7.2 2.2-7.2 4.9 3.3 4.9 7.2 4.9zm-7-4.9c0-2.6 3.1-4.7 7-4.7s7 2.1 7 4.7-3.1 4.7-7 4.7c-3.8.1-7-2.1-7-4.7z"/>
    <g fill="#a58353">
      <path d="M129.8 86.3c.8 0 1.5-.7 1.5-1.5s-.7-1.5-1.5-1.5h-9.1c-.8 0-1.5.7-1.5 1.5s.7 1.5 1.5 1.5h9.1zm-9.1-.4c-.6 0-1.1-.5-1.1-1.1 0-.6.5-1.1 1.1-1.1h9.1c.6 0 1.1.5 1.1 1.1 0 .6-.5 1.1-1.1 1.1h-9.1z"/>
      <path d="M120.3 85.5v-1.4h.4l.6.9v-.9h.5v1.4h-.5c0-.1-.6-.9-.6-.9v.9h-.4zm2.9-1c0 .1 0 .1 0 0h.2c.4-.1.5.1.6.1.2.1.1.6.1.9h-.5v-.7c0-.1-.1-.2-.2-.2s-.2 0-.2.2v.7h-.5v-1h.5z"/>
      <path d="M124.7 85.5h-.5v-.9h-.2v-.2h.2v-.1h.5v.1h.2v.2h-.2m.2.4c0-.3.3-.5.5-.5h.3c.1 0 .1 0 .2.1s.2.2.2.4h-.8c0 .1-.1.4.1.4.1 0 .1 0 .2-.1v-.2h.5c-.1.3-.4.4-.6.4-.1 0-.6 0-.6-.5zm.5-.1h.3v-.1c0-.1-.1-.1-.2-.1s-.2.1-.2.2c.1-.1.1-.1.1 0zm3.8.3c-.1-.1-.1-.3 0-.5l.3-.3c.1 0 .3-.1.5 0 .1 0 .3.1.4.3.1.1.1.4 0 .5-.1.1-.2.2-.3.2h-.5c-.2 0-.3 0-.4-.2zm.5.2c.1 0 .2-.1.2-.2v-.5c0-.1 0-.2-.2-.2s-.2.1-.2.2v.5c.1.1.1.2.2.2zm-.8.1h-.4v-.1c-.1.1-.6.1-.8-.2 0 0-.1-.3 0-.4.1-.2.4-.3.5-.3.1 0 .2.1.2.1v-.5h.4c.1-.1.1 1.4.1 1.4zm-.4-.2v-.6l-.1-.1c-.1 0-.1.1-.1.1v.4s0 .1.1.1c0 .2.1.1.1.1zm-6.5.2h.5v-1h-.5m0-.1h.5v-.3h-.5m4.7.4c.1.1.1.1 0 0h.2c.4-.1.5.1.6.1.2.1.1.6.1.9h-.5v-.7c0-.1-.1-.2-.2-.2s-.2 0-.2.2v.7h-.4v-1h.4z"/>
      <path d="M130.1 84.4v-.1h.2c-.1 0-.1 0-.2.1zm0-.1c.1 0 .1 0 0 0 .1 0 .1 0 0 0zm0 .1c-.1 0-.1 0-.1-.1s.1-.1.1-.1c.1 0 .1 0 .1.1.1.1 0 .1-.1.1zm0-.2c-.1 0-.1 0-.1.1s0 .1.1.1.1 0 .1-.1 0-.1-.1-.1z"/>
    </g>
    <path fill="#010101" d="M145.7 76.300003h11.7v16.799999h-11.7z"/>
    <path fill="#fff" d="M146.3 79.099998h10.5v10.4h-10.5zM146.8 90.5c0 .2-.1.4-.3.4-.3 0-.3-.2-.3-.4v-.1c0-.2 0-.4.3-.4.2 0 .3.1.3.2v.1h-.2c0-.1 0-.2-.1-.2s-.1.2-.1.2v.3c0 .1 0 .2.1.2s.1-.2.1-.2h.2v-.1zm.2-.2c0-.2 0-.4.3-.4s.3.2.3.4v.1c0 .2 0 .4-.3.4s-.3-.2-.3-.4v-.1zm.1.2c0 .1 0 .2.1.2s.1-.1.1-.2v-.2c0-.1 0-.2-.1-.2s-.1.2-.1.2v.2zm1.1-.6h.2v.9h-.2l-.1-.3c0-.1-.1-.2-.1-.4v.8h-.2V90h.2l.1.3c0 .1.1.2.1.4v-.8zm.7.1v.8h-.2V90h-.2v-.1h.6v.1m.6.4h-.3v.3h.3v.1h-.5v-.9h.5v.1h-.3v.3h.3m.6-.4h.2v.9h-.2l-.1-.3c0-.1-.1-.2-.1-.4v.8h-.2V90h.2l.1.3c0 .1.1.2.1.4v-.8zm.7.1v.8h-.2V90h-.2v-.1h.6v.1m.6.4v.4h-.2v-.9h.3c.2 0 .3.1.3.2s0 .2-.1.2c.1 0 .1.1.1.2v.3h-.2v-.2c0-.1 0-.1-.1-.2h-.1zm0-.1h.1c.1 0 .1 0 .1-.1s0-.1-.1-.1h-.1v.2zm.5.5l.2-.9h.2l.2.9h-.2v-.2h-.2v.2h-.2zm.3-.3h.2V90v.2l-.2.3zm.8-.5v.8h-.2V90h-.2v-.1h.6v.1m.6.4h-.3v.3h.3v.1h-.5v-.9h.5v.1h-.3v.3h.3m.2.5v-.9h.4s.1 0 .2.1c0 .1.1.2.1.3 0 .2 0 .4-.1.5h-.6zm.3-.1c.2 0 .2-.1.2-.4 0-.2 0-.3-.1-.3h-.1v.7zm.8.1v-.9h.3c.1 0 .2 0 .2.1v.2c0 .1 0 .2-.1.2.1 0 .1.1.1.2v.1c0 .1-.1.2-.2.2l-.3-.1zm.2-.1h.1l.1-.1c0-.1 0-.1-.1-.1h-.1v.2zm0-.4h.1v-.1c0-.1 0-.1-.1-.1h-.1l.1.2zm.7-.2v.1c0-.1 0-.1.1-.2l.1-.2h.2l-.3.5v.4h-.2v-.4l-.3-.5h.2l.2.3zm-8.4 1.8h-.9v.3h1.2v.3h-2v-1.4h1.9v.3h-1.1v.2h.9m2.2-.1l-.1-.1h-.2c-.2 0-.2 0-.2.1 0 .2 1.4.1 1.4.6 0 .3-.5.5-1.1.5-.6 0-1-.2-1.1-.5h.8l.1.1h.2c.2 0 .3 0 .3-.1 0-.2-1.4-.1-1.4-.6 0-.3.4-.4 1-.4.7 0 1 .2 1 .4h-.7zm2.3.5v.5h-.8v-1.4h1.1c.8 0 1.1.1 1.1.4 0 .2-.1.3-.4.3.3.1.4.1.4.4 0 .2 0 .2.1.2h-.8v-.2c0-.2-.1-.2-.4-.2h-.3zm0-.3h.3c.2 0 .4 0 .4-.1s-.1-.1-.3-.1h-.4v.2zm2.1.8v-1.4h1.1c.5 0 1 .1 1 .3 0 .1-.2.2-.3.3.3 0 .4.2.4.3 0 .3-.4.4-1 .4l-1.2.1zm.8-.6v.3h.3c.2 0 .3 0 .3-.1s-.2-.1-.4-.1h-.2v-.1zm0-.5v.2h.3c.2 0 .3 0 .3-.1s-.2-.1-.3-.1h-.3z"/>
    <path fill="#010101" d="M146.6 80c0-.3.3-.5.6-.5s.6.2.6.5-.3.6-.6.6c-.3-.1-.6-.3-.6-.6m1.1 0c0-.2-.2-.5-.5-.5s-.5.2-.5.5.2.5.5.5.5-.3.5-.5m-.6 0v.3h-.1v-.6h.2c.1 0 .3 0 .3.2 0 .1 0 .1-.1.2.1 0 .1.1.1.1v.2h-.1v-.2c-.2-.2-.2-.2-.3-.2m.1-.1c.1 0 .1 0 .1-.1 0 0 0-.1-.1-.1h-.1v.2h.1z"/>
    <path fill="#fff" d="M156.8 76.9h-.9v1.7h.9v-.4h-.5v-.3h.5v-.4h-.5v-.3h.5m-2 .4l.3 1h.5v-1.7h-.5l.1.9-.3-.9h-.5v1.7h.4v-1m-1.2-.7c-.4 0-.6.2-.6.5v.6c0 .4.1.6.6.6.4 0 .6-.2.6-.6v-.7c0-.3-.2-.4-.6-.4m.1 1.2c0 .1 0 .2-.1.2s-.2-.1-.2-.2v-.7c0-.1 0-.2.2-.2.1 0 .1.1.1.2v.7zm-1.3-1.2l-.2.5-.2-.5h-.5l.5 1v.7h.4v-.7l.4-1m-1.4 1.1c0-.1-.1-.2-.2-.2.2-.1.2-.2.2-.4 0-.3-.2-.5-.5-.5h-.6v1.7h.4v-.7h.1c.1 0 .1.1.1.2v.5h.5V78m-.6-.4h-.1v-.4c.2 0 .3 0 .3.2 0 .1-.1.2-.2.2m-1.8-.7v1.7h1v-.4h-.6v-.3h.6v-.4h-.6v-.3h.6v-.3m-2.5 0l.4 1.7h.5l.4-1.7h-.4l-.3 1.2-.2-1.2m-1.6 0v1.7h1v-.4h-.6v-.3h.6v-.4h-.6v-.3h.6v-.3"/>
    <path fill="#010101" d="M151.6 85.4l.2.9 3.8-.9.6 2.1-6.4 1.6-2.3-8 6.4-1.7.6 2.1-3.8 1 .3.8 3.8-.9.6 2.1"/>
    <path fill="none" d="M136.5 97.800003h20.9V105.6h-20.9z"/>
    <path fill="#010101" d="M156.7 98.3l-.8 1.4-.7-1.4h-.7c.1.2 1 1.9 1 1.9v1.1h.7v-1.1s.9-1.7 1.1-1.9h-.6z"/>
    <path fill="none" d="M136.5 97.800003h20.9V105.6h-20.9z"/>
    <path fill="#010101" d="M136.5 101.7h5.6v-3.9h-5.6v3.9zm1.3-.5h-.6v-2.9h.6c.7 0 1.2.7 1.2 1.4 0 .9-.5 1.5-1.2 1.5m3.6 0h-.6c-.7 0-1.2-.6-1.2-1.4 0-.8.6-1.4 1.2-1.4h.6v2.8z"/>
    <path fill="none" d="M136.5 97.800003h20.9V105.6h-20.9z"/>
    <path fill="#010101" d="M148.5 100.2c0 .5-.2.7-.7.7-.5 0-.7-.1-.7-.7v-.9c0-.5.2-.6.7-.6.5 0 .7.1.7.6v.9zm.3-1.8c-.2-.1-.6-.2-1-.2s-.8.1-1 .2c-.3.2-.4.4-.4.9v1c0 .4.1.7.4.9.2.1.5.2 1 .2s.8-.1 1-.2c.3-.2.4-.5.4-.9v-1c0-.4-.1-.7-.4-.9"/>
    <path fill="none" d="M136.5 97.800003h20.9V105.6h-20.9z"/>
    <path fill="#010101" d="M145.3 100.2c0 .5-.3.7-.5.7h-.8v-2.1h.8c.2 0 .5.1.5.6v.8zm-.5-1.9h-1.5v3h1.6c.8 0 1.1-.3 1.1-1.2v-.7c0-.8-.4-1.1-1.2-1.1"/>
    <path fill="none" d="M136.5 97.800003h20.9V105.6h-20.9z"/>
    <path fill="#010101" d="M149.7 98.3v3h2v-.5h-1.3v-2.5"/>
    <path fill="none" d="M136.5 97.800003h20.9V105.6h-20.9z"/>
    <path fill="#010101" d="M157.3 101c0 .1-.1.2-.2.2s-.2-.1-.2-.2.1-.2.2-.2.2.1.2.2m-.5 0c0 .2.1.3.3.3.2 0 .3-.1.3-.3 0-.2-.1-.3-.3-.3-.2 0-.3.1-.3.3m.2-.1h.1s0 .1-.1.1v-.1zm0 .1l.1.1h.1l-.1-.1s.1 0 .1-.1 0-.1-.1-.1h-.1v.3h.1l-.1-.1z"/>
    <path fill="none" d="M136.5 97.800003h20.9V105.6h-20.9z"/>
    <path fill="#010101" d="M153.7 99.7c.5 0 .7-.3.7-.7 0-.3-.1-.5-.3-.6-.1-.1-.3-.1-.6-.1H152v3h1.4c.4 0 .6-.1.7-.1.1-.1.3-.3.3-.7.1-.4 0-.8-.7-.8m-.4 1.2h-.6v-2.1h.7c.2 0 .4.2.4.4 0 .4-.2.4-.7.4v.4c.5 0 .8 0 .8.5 0 .1-.2.4-.6.4"/>
    <path fill="none" d="M136.5 97.800003h20.9V105.6h-20.9z"/>
    <path fill="none" d="M136.5 97.800003h20.9V105.6h-20.9z"/>
    <path fill="#010101" d="M141.3 104.3c0 .1 0 .1-.1.1l-.1.1h-.8v.6h-.4v-1.9h1c.2 0 .3 0 .4.1.1.1.1.2.1.4v.3c0 .2-.1.2-.1.3m-.3-.6v-.1h-.6v.7h.6v-.6zm1.7 1.4l-.4-.6h-.2v.6h-.4v-1.8h1.2c.1 0 .1.1.1.1l.1.1v.6c0 .1 0 .1-.1.1l-.1.1h-.3l.5.7-.4.1zm.1-1.3v-.1h-.6v.6h.5c.1 0 .2-.1.2-.2v-.3zm2.2 1.1c0 .1-.1.1-.1.2 0 0-.1.1-.2.1h-.9c-.1 0-.1 0-.2-.1 0 0-.1-.1-.1-.2v-1.4c0-.1.1-.1.1-.1s.1-.1.2-.1h.7c.2 0 .3 0 .4.1.1.1.1.2.1.4v1.1m-.4-1.2v-.1h-.7v1.2h.6v-.1l.1-1zm1.4-.5h.4v1.7h.8v.3H146m3.1-.2c0 .1-.1.1-.1.2 0 0-.1.1-.2.1h-.9c-.1 0-.1 0-.2-.1 0 0-.1-.1-.1-.2v-1.4c0-.1.1-.1.1-.1s.1-.1.2-.1h.7c.2 0 .3 0 .4.1.1.1.1.2.1.4v1.1m-.4-1.3v-.1h-.7v1.2h.6v-.1l.1-1zm1.9 1.5v-.1.1c-.1-.1-.2 0-.2 0h-.7c-.1 0-.1 0-.2-.1 0 0-.1-.1-.1-.2v-1.1c0-.1 0-.2.1-.3 0-.1.1-.1.1-.1.1 0 .1 0 .2-.1h.9c.1 0 .1 0 .2.1v.2h-1v1.2h.8v-.4h-.4v-.3h.8v1.1h-.5zm.7-1.9h.4v1.9h-.4zm2.1 1.9h-.7c-.2 0-.3 0-.4-.1-.1-.1-.1-.2-.1-.4v-1.2c0-.1.1-.1.1-.2 0 0 .1-.1.2-.1h.8c.1 0 .1 0 .2.1v.2h-.9v1.2h.9l-.1.5c0-.1 0 0 0 0m.99999-1.9h.4v1.9h-.4zm.80001 0h.4v1.9h-.4z"/>
    <path fill="#010101" d="M157.2 105.1v-2.5h-20.6s-.1 0-.1-.1c0 0 0-.1.1-.1h20.8v2.7s-.1.1-.2 0c.1.1 0 0 0 0"/>
  </g>
</svg>
