<svg xmlns="http://www.w3.org/2000/svg" xmlns:xlink="http://www.w3.org/1999/xlink" viewBox="880 -1552.8 29.999998 30">
  <defs>
    <path id="a" d="M922.8-54.4c0 631.9 161.2 1091.6 558.3 1441.8 154 135.6 354.9 203.3 582.4 203.3 227.7 0 428.5-67.7 582.4-203.3 397.3-350.2 558.4-809.8 558.4-1441.8 0-1029.1-418.4-1328-1140.9-1328-722.1-.1-1140.6 298.8-1140.6 1328"/>
  </defs>
  <clipPath id="c">
    <use width="100%" height="100%" xlink:href="#a" overflow="visible"/>
  </clipPath>
  <radialGradient id="b" cx="1897.1469" cy="-1477.5414" r="54.755798" gradientTransform="matrix(-18.7496,0,0,37.4992,37823.672,54400.789)" gradientUnits="userSpaceOnUse">
    <stop offset="0" stop-color="#FFF"/>
    <stop offset=".5749" stop-color="#FEE2D5"/>
    <stop offset="1" stop-color="#FDD3C2"/>
  </radialGradient>
  <path fill="url(#b)" d="M922.8-1382.5h2281.6v2973.2H922.8z" clip-path="url(#c)" transform="matrix(0.0095435,0,0,0.0095435,871.60143,-1537.9809)"/>
  <defs>
    <path id="d" d="M1949.8 12.8c9.2 191.2-5 361.8-19.6 386.1-54.9 91.8-100.2 156.4-85 204.6 23.7 74.9 153.2 154.1 218.4 154.1 65.3 0 194.8-79.2 218.5-154.1 15.1-48.2-30-112.8-85.1-204.6-14.6-24.4-28.8-194.9-19.6-386.1h-227.6z"/>
  </defs>
  <clipPath id="f">
    <use width="100%" height="100%" xlink:href="#d" overflow="visible"/>
  </clipPath>
  <radialGradient id="e" cx="1804.817" cy="-1528.3534" r="54.746601" gradientTransform="matrix(4.5572,0,0,9.1144,-6120.5171,14165.327)" gradientUnits="userSpaceOnUse">
    <stop offset="0" stop-color="#FFF"/>
    <stop offset=".5749" stop-color="#FEE2D5"/>
    <stop offset="1" stop-color="#FDD3C2"/>
  </radialGradient>
  <path fill="url(#e)" d="M1830 12.8h467.2v744.8H1830z" clip-path="url(#f)" transform="matrix(0.0095435,0,0,0.0095435,871.60143,-1537.9809)"/>
  <defs>
    <path id="g" d="M1186.1-194.4l210.6-36.3 531.4 101.9 36.1-175.4L1438.5-450z"/>
  </defs>
  <clipPath id="i">
    <use width="100%" height="100%" xlink:href="#g" overflow="visible"/>
  </clipPath>
  <radialGradient id="h" cx="1843.0747" cy="-1515.6445" r="54.730701" gradientTransform="matrix(17.0457,3.4922,-4.0349,19.6954,-35387.684,22568.584)" gradientUnits="userSpaceOnUse">
    <stop offset="0" stop-color="#9B7052"/>
    <stop offset=".1545" stop-color="#8A5D45"/>
    <stop offset=".4001" stop-color="#734434"/>
    <stop offset=".6304" stop-color="#633428"/>
    <stop offset=".8371" stop-color="#5A2A21"/>
    <stop offset="1" stop-color="#57261E"/>
  </radialGradient>
  <path fill="url(#h)" d="M1217.4-602.9L2027.3-437l-94.6 461.2-809.7-166" clip-path="url(#i)" transform="matrix(0.0095435,0,0,0.0095435,871.60143,-1537.9809)"/>
  <defs>
    <path id="j" d="M2163.1-304.2l36.1 175.4 531.4-101.9 210.7 36.3L2688.7-450z"/>
  </defs>
  <clipPath id="l">
    <use width="100%" height="100%" xlink:href="#j" overflow="visible"/>
  </clipPath>
  <radialGradient id="k" cx="1879.985" cy="-1521.6066" r="54.943401" gradientTransform="matrix(-17.1713,3.5179,4.0646,19.8405,40610.855,22725.9)" gradientUnits="userSpaceOnUse">
    <stop offset="0" stop-color="#9B7052"/>
    <stop offset=".1545" stop-color="#8A5D45"/>
    <stop offset=".4001" stop-color="#734434"/>
    <stop offset=".6304" stop-color="#633428"/>
    <stop offset=".8371" stop-color="#5A2A21"/>
    <stop offset="1" stop-color="#57261E"/>
  </radialGradient>
  <path fill="url(#k)" d="M2909.9-602.9L2100-437l94.6 461.2 809.8-166" clip-path="url(#l)" transform="matrix(0.0095435,0,0,0.0095435,871.60143,-1537.9809)"/>
  <path fill="none" stroke="#010101" stroke-width=".4497824" d="M888.63944-1528.2857h3.98346c.7339 0 2.06999-.7072 2.56911-1.2779" stroke-linecap="round" stroke-linejoin="round"/>
  <path fill="none" stroke="#010101" stroke-width=".45817974" d="M892.5685-1534.174c.5249.8751.95626 1.4926.81216 1.9526-.22714.7148-1.46302 1.4706-2.08431 1.4706-.62223 0-1.85907-.7558-2.0843-1.4706-.14506-.46.28631-1.0775.8112-1.9526.13934-.2339.27581-1.8601.18705-3.6848" stroke-linecap="round" stroke-linejoin="round"/>
  <path fill="#fff" d="M886.9197-1535.3842c1.57468 0 2.85256-1.2769 2.85256-2.8525 0 0-.46191-.091-.87228-.091h-3.96055c-.40942 0-.87228.091-.87228.091.00096 1.5756 1.27788 2.8525 2.85255 2.8525"/>
  <defs>
    <path id="m" d="M1397.6-36.3c-42.9 0-91.5 9.5-91.5 9.5 0 165.1 134 298.9 298.9 298.9 165 0 298.9-133.8 298.9-298.9 0 0-48.4-9.5-91.4-9.5h-414.9z"/>
  </defs>
  <clipPath id="n">
    <use width="100%" height="100%" xlink:href="#m" overflow="visible"/>
  </clipPath>
  <path fill="#010101" d="M1765.2-7.7c0 83.1-67.3 150.5-150.5 150.5S1464.1 75.4 1464.1-7.7s67.4-150.6 150.6-150.6c83.2 0 150.5 67.5 150.5 150.6" clip-path="url(#n)" transform="matrix(0.0095435,0,0,0.0095435,871.60143,-1537.9809)"/>
  <defs>
    <path id="o" d="M1397.6-36.3c-42.9 0-91.5 9.5-91.5 9.5 0 165.1 134 298.9 298.9 298.9 165 0 298.9-133.8 298.9-298.9 0 0-48.4-9.5-91.4-9.5h-414.9z"/>
  </defs>
  <clipPath id="p">
    <use width="100%" height="100%" xlink:href="#o" overflow="visible"/>
  </clipPath>
  <path fill="none" stroke="#010101" stroke-width="24.14229965" d="M1614.7-158.2c83.1 0 150.5 67.4 150.5 150.5s-67.4 150.5-150.5 150.5-150.5-67.4-150.5-150.5c-.1-83.1 67.3-150.5 150.5-150.5z" clip-path="url(#p)" transform="matrix(0.0095435,0,0,0.0095435,871.60143,-1537.9809)" stroke-linecap="round" stroke-linejoin="round"/>
  <path fill="none" stroke="#010101" stroke-width=".36633402" d="M886.9197-1535.3842c1.57468 0 2.85256-1.2769 2.85256-2.8525 0 0-.46191-.091-.87228-.091h-3.96055c-.40942 0-.87228.091-.87228.091.00096 1.5756 1.27788 2.8525 2.85255 2.8525z" stroke-linejoin="round"/>
  <path fill="#fff" d="M895.67205-1535.3842c-1.57468 0-2.85255-1.2769-2.85255-2.8525 0 0 .4619-.091.87323-.091h3.96055c.40942 0 .87228.091.87228.091-.002 1.5756-1.27883 2.8525-2.85351 2.8525"/>
  <defs>
    <path id="q" d="M2314.7-36.3c-43 0-91.5 9.5-91.5 9.5 0 165.1 133.9 298.9 298.9 298.9 165.1 0 298.9-133.8 298.9-298.9 0 0-48.4-9.5-91.3-9.5h-415z"/>
  </defs>
  <clipPath id="r">
    <use width="100%" height="100%" xlink:href="#q" overflow="visible"/>
  </clipPath>
  <path fill="#010101" d="M2362.1-7.7c0 83.1 67.3 150.5 150.4 150.5 83.2 0 150.6-67.4 150.6-150.5s-67.4-150.6-150.6-150.6c-83.1.1-150.4 67.5-150.4 150.6" clip-path="url(#r)" transform="matrix(0.0095435,0,0,0.0095435,871.60143,-1537.9809)"/>
  <defs>
    <path id="s" d="M2314.7-36.3c-43 0-91.5 9.5-91.5 9.5 0 165.1 133.9 298.9 298.9 298.9 165.1 0 298.9-133.8 298.9-298.9 0 0-48.4-9.5-91.3-9.5h-415z"/>
  </defs>
  <clipPath id="t">
    <use width="100%" height="100%" xlink:href="#s" overflow="visible"/>
  </clipPath>
  <path fill="none" stroke="#010101" stroke-width="24.14229965" d="M2512.6-158.2c83.1 0 150.5 67.4 150.5 150.5s-67.4 150.5-150.5 150.5-150.5-67.4-150.5-150.5 67.5-150.5 150.5-150.5z" clip-path="url(#t)" transform="matrix(0.0095435,0,0,0.0095435,871.60143,-1537.9809)" stroke-linecap="round" stroke-linejoin="round"/>
  <path fill="none" stroke="#010101" stroke-width=".36633402" d="M898.52365-1538.2367c0 1.5756-1.27692 2.9432-2.85255 2.9432-1.57564 0-2.85351-1.3676-2.85351-2.9432m-8.74948 0c0 1.5756 1.27692 2.9432 2.85255 2.9432 1.57468 0 2.85255-1.3676 2.85255-2.9432m5.89884 2.8525c-1.57468 0-2.85255-1.2769-2.85255-2.8525 0 0 .4619-.091.87323-.091h3.96055c.40942 0 .87228.091.87228.091-.002 1.5756-1.27883 2.8525-2.85351 2.8525z" stroke-linejoin="round"/>
  <path fill="#57261e" d="M902.57296-1537.6193c.19755-.104-.18419-5.1019-.67568-6.5783-.49245-1.4745-1.9192-8.3296-10.51599-8.3296s-10.11611 6.8551-10.60665 8.3296c-.49244 1.4754-.82933 6.3627-.76729 6.5783.0611.2157.98202.3074 1.31986.031.26722-.2186.28535-3.1637.21473-5.7194.58884-.3236 3.53778-2.2418 4.27549-3.1026-.33784.4304-.50294 1.6806-.60601 2.1186 5.99427.4915 8.50803-1.1967 10.53698-3.1341.79784 1.0451 4.05885 3.8098 5.10386 3.9024-.1546.6451.24813 5.8425.40083 6.0277.15365.1842.97726.058 1.31987-.1232"/>
  <defs>
    <path id="u" d="M952.2-680C900.7-525.4 874.8-13.3 881.3 9.2c6.5 22.6 83.8 32.2 119.2 3.2 28.1-22.9 29.9-331.5 22.4-599.3 61.7-33.9 389.8-234.9 467.2-325.1-35.5 45.1-47.1 176.4-58 222.3 628.2 51.5 905.1-125.6 1117.7-328.5 83.7 109.5 425.3 399.2 534.8 408.8C3068.5-541.7 3101 2.8 3117 22c4.4 5.2 13.1 8.1 24.2 9.1h21.7c28.4-1.9 62.3-10.9 83-21.9 2.8-1.5 4.4-12.1 5.2-29.8v-51.9c-3.9-155.7-36.7-489.5-76-607.7-51.5-154.3-210.6-872.6-1111.5-872.6-900.8 0-1059.9 718.2-1111.4 872.8"/>
  </defs>
  <clipPath id="w">
    <use width="100%" height="100%" xlink:href="#u" overflow="visible"/>
  </clipPath>
  <radialGradient id="v" cx="1879.9999" cy="-1593.2443" r="54.817101" gradientTransform="matrix(27.8629,0,0,13.9315,-50055.867,20970.738)" gradientUnits="userSpaceOnUse">
    <stop offset="0" stop-color="#9B7052"/>
    <stop offset=".1545" stop-color="#8A5D45"/>
    <stop offset=".4001" stop-color="#734434"/>
    <stop offset=".6304" stop-color="#633428"/>
    <stop offset=".8371" stop-color="#5A2A21"/>
    <stop offset="1" stop-color="#57261E"/>
  </radialGradient>
  <path fill="url(#v)" d="M874.9-1552.9h2376.3V41.4H874.9z" clip-path="url(#w)" transform="matrix(0.0095435,0,0,0.0095435,871.60143,-1537.9809)"/>
</svg>
