<svg xmlns="http://www.w3.org/2000/svg" viewBox="0 0 200 200"><path d="M100 200C44.8 200 0 155.2 0 100S44.8 0 100 0s100 44.8 100 100-44.8 100-100 100zm14.7-100c0-8.1-6.6-14.7-14.7-14.7S85.3 92 85.3 100c0 8.1 6.5 14.7 14.7 14.7s14.7-6.6 14.7-14.7z" fill="#08060a"/><path d="M188.566 53.559C171.825 21.73 138.425 0 100 0 44.817 0 0 44.817 0 100s44.817 100 100 100 100-44.817 100-100c0-16.224-3.874-31.551-10.746-45.107m0 0c-.227-.446-.456-.891-.688-1.333m-12.651 104.57c-17.479 22.765-44.919 37.5-75.915 37.5-30.996 0-58.333-14.634-75.915-37.5C11.687 142.073 4.37 121.85 4.37 100 4.37 47.154 47.154 4.37 100 4.37c52.845 0 95.63 42.785 95.63 95.63 0 21.85-7.317 42.073-19.715 58.13z" fill="#0e0f0f"/><path fill="#030306" d="M176.64 157.178H23.36M10.924 134.89h178.153"/><path d="M102.275 180.942c-.876 0-1.591-.791-1.591-1.768v-5.608c0-.971.71-1.762 1.586-1.762h5.224v-1.768h-5.235c-1.754 0-3.177 1.577-3.177 3.529v5.608c0 1.953 1.434 3.53 3.188 3.53l5.224.005v-8.31h-4.49v1.762h2.901v4.78h-3.63M80.387 182.721l5.055-.005c2.065 0 3.742-1.862 3.742-4.158 0-2.3-1.676-4.157-3.742-4.157l-1.313.005-.188-.211.188-.211h5.043l.002-1.757h-5.045c-.979 0-1.771.876-1.771 1.963s.793 1.968 1.771 1.968l1.317.016c1.185 0 2.144 1.066 2.144 2.385 0 1.314-.959 2.38-2.144 2.38h-5.057l-.002 1.782" fill="#7a7a62"/><path d="M80.389 180.521h5.057c.979 0 1.771-.881 1.771-1.963 0-1.087-.793-1.968-1.771-1.968l-1.317-.016c-1.185 0-2.144-1.066-2.144-2.385 0-1.314.959-2.38 2.144-2.38h5.045l-.002-1.772h-5.043c-2.066 0-3.742 1.862-3.742 4.157s1.676 4.158 3.742 4.158h1.306l.183.205-.183.201-5.048.005.002 1.758M93.101 180.948c-.876 0-1.593-.781-1.593-1.773v-5.624c0-.955.717-1.746 1.593-1.746h5.395v-1.768h-5.395c-1.754 0-3.177 1.577-3.177 3.529v5.608c0 1.953 1.422 3.53 3.177 3.53l5.371.005v-1.768l-5.371.007" fill="#7a7a62"/><path d="M91.893 173.566c0-.744.539-1.346 1.208-1.346h5.395v1.763h-4.649l-.375.417h3.875v1.762H91.89l.003-2.596M93.101 180.521c-.667 0-1.208-.602-1.208-1.346l-.002-2.596h5.456v1.768h-3.875l.375.412h4.625v1.762h-5.371M101.06 179.175c0 .744.541 1.356 1.21 1.356h3.263v-3.957h-2.524v1.772h.935l.005.412h-.933l-.373-.412-.005-3.952.375-.416h4.485l-.005-1.763-5.224.005c-.669 0-1.21.602-1.21 1.346v5.609M112.402 172.189l.489-.384.489.389 2.534 8.348h-3.711l.002-1.963h1.242l-.561-1.851-1.816 5.977h-1.876l3.208-10.516" fill="#7a7a62"/><path d="M116.426 180.942h-4.219v1.763h6.42l-3.339-11.012c-.294-1.071-1.256-1.857-2.4-1.857-1.142 0-2.105.786-2.397 1.857l-3.369 11.012h1.681L112.07 172l.816-.602.814.602 2.726 8.942M117.672 170.954h-.526l-.006 1.496h-.369l-.005-1.519h-.547l.005-.54h1.442zM119.614 172.45h-.369v-1.677l-.322 1.677h-.371l-.321-1.665v1.665h-.369v-2.059h.54l.337 1.576.337-1.576h.538zM177.728 94.812l-.008.167c-.02.178 0 .262-.512.262s-.492-.084-.512-.262a8.88 8.88 0 0 1-.012-.522c0-.147.005-.464.012-.521.02-.178 0-.262.512-.262s.492.084.512.262l.008.177h.7a5.082 5.082 0 0 0-.021-.36c-.04-.355.1-.695-1.198-.695-1.299 0-1.158.34-1.199.695a7.665 7.665 0 0 0-.023.705c.001.296.011.589.023.705.041.355-.1.695 1.199.695 1.298 0 1.158-.34 1.198-.695.008-.067.015-.196.019-.35h-.698zM169.424 93.127l-.683 1.997-.684-1.997-1.021-.005v2.679h.682v-1.996l.684 1.996h.683l.678-1.996v1.996h.684v-2.679zM178.582 93.122h1.963v.683h-.64v1.996h-.684v-1.996h-.639zM173.314 95.801l.784-2.682h1.019l.785 2.682h-.684l-.161-.554h-.896l.127-.435h.64l-.317-1.093-.613 2.082zM165.39 93.673c.512 0 .491.084.512.262a11.067 11.067 0 0 1 0 1.043c-.021.178 0 .262-.512.262-.513 0-.492-.084-.513-.262a12.59 12.59 0 0 1 0-1.043c.021-.178 0-.262.513-.262v-.617c-1.298 0-1.158.34-1.198.695a7.574 7.574 0 0 0-.024.705c.002.296.011.589.024.705.04.355-.1.695 1.198.695 1.299 0 1.159-.34 1.199-.695a9.34 9.34 0 0 0 .024-.705 8.383 8.383 0 0 0-.024-.705c-.04-.355.1-.695-1.199-.695v.617zM163.083 94.812l-.007.167c-.021.178 0 .262-.512.262-.513 0-.492-.084-.513-.262a12.59 12.59 0 0 1 0-1.043c.021-.178 0-.262.513-.262.512 0 .491.084.512.262l.007.177h.7a4.656 4.656 0 0 0-.02-.36c-.041-.355.1-.695-1.199-.695-1.298 0-1.158.34-1.198.695a7.574 7.574 0 0 0-.024.705c.002.296.011.589.024.705.04.355-.1.695 1.198.695 1.299 0 1.158-.34 1.199-.695a5.13 5.13 0 0 0 .019-.35h-.699zM172.11 95.188h-.414v-.611l.414-.002c.512 0 .496-.084.517-.262.006-.058.005-.01.004-.158 0-.148.002-.097-.004-.155-.021-.177-.005-.261-.517-.261l-.415.001.001 2.059h-.685v-2.677h1.099c1.299 0 1.156.341 1.204.695.006.042.006.236.006.34l-.006.339c-.033.356.095.692-1.204.692zM158.822 105.891l-4.276-.005a1.121 1.121 0 0 1-1.121-1.121v-6.51c0-.619.502-1.121 1.121-1.121l2.677-.003a.583.583 0 0 0 .582-.582l.008-2.603c0-.135.109-.244.244-.244h1.568c.135 0 .244.109.244.244l.017 11.701a.244.244 0 0 1-.244.244h-.82l-.02.581h1.07a.583.583 0 0 0 .582-.582V93.698a.582.582 0 0 0-.582-.582h-2.059a.581.581 0 0 0-.582.582l.003 2.609a.244.244 0 0 1-.244.244l-2.445-.004a1.71 1.71 0 0 0-1.709 1.708v6.51a1.71 1.71 0 0 0 1.709 1.708l4.257-.001.02-.581z" fill="#7a7a62"/><path d="M157.231 103.494v-4.212a.639.639 0 1 0-1.278 0v4.547a.639.639 0 1 0 1.278 0v-.335l.581.02v.315a1.22 1.22 0 1 1-2.44 0v-4.547a1.22 1.22 0 1 1 2.44 0v4.231l-.581-.019zM162.887 105.891h-.801a.244.244 0 0 1-.244-.244l.01-8.263c0-.135.109-.244.244-.244h1.569c.135 0 .244.109.244.244l.016 8.263a.243.243 0 0 1-.243.244h-.795v.579l1.025.001a.583.583 0 0 0 .583-.582v-8.754a.583.583 0 0 0-.583-.582h-2.059a.583.583 0 0 0-.582.582l-.001 8.751a.58.58 0 0 0 .58.582l1.036.002v-.579zM170.28 98.765l-1.724-.002a.961.961 0 0 0 0 1.921l2.361.006c.619 0 1.121.502 1.121 1.121l-.008 2.94a1.12 1.12 0 0 1-1.121 1.12l-4.688.009a.244.244 0 0 1-.244-.244v-1.139c0-.135.109-.244.244-.244l3.195-.011a.961.961 0 0 0 0-1.921l-2.313-.01a1.12 1.12 0 0 1-1.12-1.12v-2.938a1.12 1.12 0 0 1 1.12-1.121l4.347-.021c.135 0 .244.109.244.244v1.165a.244.244 0 0 1-.244.244l-1.17.001-.02.573h1.429a.581.581 0 0 0 .583-.58l.002-1.631a.583.583 0 0 0-.582-.583l-4.589.002c-.943 0-1.708.765-1.708 1.708v2.938c0 .943.765 1.708 1.708 1.708l2.313-.004a.386.386 0 1 1 0 .773l-3.444-.001a.583.583 0 0 0-.582.582v1.629c0 .321.261.582.582.582l4.938-.001c.943 0 1.708-.765 1.708-1.708l.008-2.94c0-.944-.765-1.708-1.708-1.708l-2.361.007a.386.386 0 1 1 0-.772h1.704l.019-.574zM178.968 100.381h.74a.244.244 0 0 0 .244-.244l-.003-1.882c0-.619-.502-1.121-1.121-1.121h-3.704a1.12 1.12 0 0 0-1.12 1.121v6.51a1.12 1.12 0 0 0 1.12 1.121h3.704c.619 0 1.121-.502 1.121-1.121l.003-1.789a.244.244 0 0 0-.244-.244h-1.397a.244.244 0 0 0-.244.244l.008.854c0 .674-.424 1.22-1.098 1.22s-1.099-.546-1.099-1.22v-4.547c0-.674.425-1.22 1.099-1.22s1.098.546 1.098 1.22l-.008.854c0 .135.109.244.244.244h.657l-.021.587h-.879a.583.583 0 0 1-.582-.583l.007-1.103c0-.353-.164-.639-.517-.639-.354 0-.518.286-.518.639v4.547c0 .353.164.639.518.639.353 0 .517-.286.517-.639l-.007-1.103c0-.321.261-.582.582-.582h1.887c.322 0 .582.261.582.582l-.001 2.038c0 .943-.765 1.708-1.708 1.708h-3.704a1.708 1.708 0 0 1-1.708-1.708v-6.51c0-.943.765-1.708 1.708-1.708h3.704c.943 0 1.708.765 1.708 1.708l.001 2.13c0 .321-.26.583-.582.583h-1.008l.021-.586z" fill="#7a7a62"/><path d="M100 73.7c-14.5 0-26.3 11.7-26.3 26.3 0 14.6 11.7 26.3 26.3 26.3s26.3-11.7 26.3-26.3c0-14.6-11.8-26.3-26.3-26.3zm0 41c-8.1 0-14.7-6.5-14.7-14.7s6.5-14.7 14.7-14.7 14.7 6.6 14.7 14.7c0 8.2-6.6 14.7-14.7 14.7z" fill="#d6d7d8"/><path d="M100 73.7v-1.15a27.385 27.385 0 0 0-19.399 8.011A27.346 27.346 0 0 0 72.551 100c-.001 7.61 3.053 14.482 8.012 19.438 4.956 4.958 11.828 8.013 19.438 8.012 7.61.001 14.482-3.054 19.438-8.012 4.958-4.956 8.013-11.828 8.012-19.438a27.35 27.35 0 0 0-8.05-19.439 27.39 27.39 0 0 0-19.4-8.011v2.299c13.869.001 25.15 11.186 25.151 25.151a25.053 25.053 0 0 1-25.151 25.15A25.052 25.052 0 0 1 74.851 100c0-13.965 11.282-25.15 25.15-25.151V73.7zm0 41v-1.15a13.508 13.508 0 0 1-13.55-13.551c.001-3.794 1.498-7.17 3.938-9.612 2.442-2.44 5.818-3.937 9.612-3.938A13.508 13.508 0 0 1 113.55 100 13.51 13.51 0 0 1 100 113.551v2.298c4.36.001 8.33-1.753 11.198-4.61a15.784 15.784 0 0 0 4.651-11.24 15.826 15.826 0 0 0-4.61-11.199 15.784 15.784 0 0 0-11.24-4.651c-4.406-.001-8.38 1.752-11.238 4.612-2.86 2.858-4.613 6.832-4.612 11.238a15.784 15.784 0 0 0 4.651 11.24 15.828 15.828 0 0 0 11.198 4.61V114.7z" fill="#3b3a3c"/><path d="M100 69.8c-16.7 0-30.2 13.6-30.2 30.2s13.5 30.2 30.2 30.2 30.2-13.601 30.2-30.2c0-16.6-13.5-30.2-30.2-30.2zm0 58.2c-15.5 0-28-12.601-28-28 0-15.4 12.6-28 28-28s28 12.6 28 28c0 15.399-12.5 28-28 28z" fill="#bbbdbf"/><path fill="#030408" d="M.82 113.14h.037"/><path d="M68.213 150.591a.985.985 0 0 0-.561-.392c-4.258-1.042-7.004-.893-8.22.474-.437.447-.702.88-.78 1.326-.094.446-.032.866.202 1.272h-.016c.172.311.438.595.781.853h.016c.281.202.577.365.92.501.233.107.78.175 1.653.188.172.014.5.014.999.014.437.014.78.014 1.029.027h.016c.78.014 1.572.08 1.826.148.252.068.697.471.732.65.036.179 0 0 0 0 .047.107.094.137.05.411-.046.273-.142.225-.268.36v-.015c-.141.108-.375.189-.702.271a9.518 9.518 0 0 1-1.685.176c-.655.014-1.311 0-1.981-.067a11.725 11.725 0 0 1-1.669-.285.974.974 0 0 0-.702.055.79.79 0 0 0-.467.474c-.078.203-.047.419.061.622a.969.969 0 0 0 .547.393c.562.162 1.232.27 2.012.352.765.067 1.513.095 2.262.081a12.234 12.234 0 0 0 2.091-.229c.811-.177 1.373-.447 1.669-.799h.016c.249-.271.436-.516.545-.731v-.015c.125-.27.188-.541.188-.824v-.027c-.016-.203.004-.5-.121-.784-.047-.148-.093-.23-.344-.703-.251-.471-.831-.772-1.845-.962h-.016c-.499-.081-1.216-.149-2.137-.176-.265-.014-.624-.014-1.092-.027-.467 0-.795 0-.967-.014-.499-.013-.826-.027-.951-.054a1.921 1.921 0 0 1-.453-.244 1.201 1.201 0 0 1-.312-.324v-.014a.28.28 0 0 1-.047-.271 1.1 1.1 0 0 1 .359-.54c.936-.785 3.026-.785 6.286.027.25.053.484.04.702-.081.235-.108.39-.271.453-.487.078-.203.046-.406-.079-.61zM77.392 149.905a1.041 1.041 0 0 0-.671-.23h-6.24c-.249 0-.483.082-.655.23a.74.74 0 0 0-.28.582v6.767c0 .216.094.42.28.568a.94.94 0 0 0 .655.244h6.24a.98.98 0 0 0 .671-.244.749.749 0 0 0 .265-.568.778.778 0 0 0-.265-.583 1.047 1.047 0 0 0-.671-.23h-5.303v-1.758h3.899a.98.98 0 0 0 .671-.244.749.749 0 0 0 .265-.568.78.78 0 0 0-.265-.582 1.036 1.036 0 0 0-.671-.23h-3.899V151.3h5.303a.985.985 0 0 0 .671-.244.728.728 0 0 0 .265-.568.782.782 0 0 0-.265-.583zM88.164 150.863a.86.86 0 0 0-.388-.558c-1.712-1.073-3.589-1.276-5.403-.999-.715.146-.947.132-1.729.47-.78.337-1.324.963-1.324.963-.374.353-.576.783-.825 1.354s-.249.855-.279 1.56a4.87 4.87 0 0 0 .31 1.969 4.267 4.267 0 0 0 1.075 1.617v-.016a4.495 4.495 0 0 0 1.712 1.072c.669.25 1.401.382 2.195.382 1.868 0 3.224-.368 4.064-1.102.981-.749 1.385-1.88 1.23-3.393-.016-.234-.124-.412-.296-.573a.99.99 0 0 0-.639-.221H83.82a.955.955 0 0 0-.655.25.828.828 0 0 0-.28.631.8.8 0 0 0 .28.617.907.907 0 0 0 .655.264h3.115c-.063.44-.266.81-.577 1.087-.607.455-1.556.676-2.849.676a4.486 4.486 0 0 1-1.51-.25l-.016-.014a2.796 2.796 0 0 1-1.044-.647 2.639 2.639 0 0 1-.654-.983 3.265 3.265 0 0 1-.202-1.307c.015-.499.078-.771.186-1.107.079-.251.203-.455.374-.617 0 0 .278-.377.748-.581.47-.205.81-.265 1.386-.396h.016c1.371-.294 2.678-.044 3.94.763a.973.973 0 0 0 .699.133c.25-.059.452-.177.592-.382a.823.823 0 0 0 .14-.662zM99.952 158.001a.748.748 0 0 0 .187-.609c-.982-5.643-2.745-8.404-5.303-8.269-2.557-.136-4.336 2.531-5.289 7.998a.706.706 0 0 0 .172.596.885.885 0 0 0 .608.325c.25.039.483-.015.702-.15a.829.829 0 0 0 .375-.528c.117-.679.246-1.307.384-1.881h6.056c.157.65.304 1.367.438 2.15a.78.78 0 0 0 .374.529.937.937 0 0 0 .687.147.907.907 0 0 0 .609-.308zm-7.7-4.141c.683-2.003 1.546-3.04 2.583-3.112 1.005.071 1.859 1.109 2.542 3.112h-5.125z" fill="#7a7a62"/><path d="M63.886 158.68c-.631 0-1.254-.027-1.905-.085-.871-.092-1.524-.206-2.06-.36a1.187 1.187 0 0 1-.671-.481c-.148-.275-.173-.54-.08-.782a.999.999 0 0 1 .586-.589c.24-.12.566-.149.867-.063a11.6 11.6 0 0 0 1.626.276c.599.061 1.259.08 1.948.066a9.182 9.182 0 0 0 1.639-.172c.314-.078.504-.149.604-.227l.041-.025.081-.059c.042-.028.054-.035.071-.144a.66.66 0 0 0 .014-.18l-.014-.018v-.002l-.031-.069-.015-.075-.001-.006c-.028-.104-.393-.445-.578-.496-.206-.056-.938-.125-1.763-.14-.161-.008-.326-.011-.52-.015a43.89 43.89 0 0 1-.528-.013c-.494.001-.829 0-1.011-.015-.886-.013-1.459-.082-1.738-.211a4.311 4.311 0 0 1-.921-.497l-.056-.028c-.374-.279-.655-.588-.836-.915l-.021-.067a1.886 1.886 0 0 1-.183-1.325c.081-.465.353-.931.831-1.418.72-.811 1.965-1.225 3.692-1.225 1.291 0 2.893.232 4.76.688.308.089.531.245.693.48.165.266.196.523.098.772-.071.251-.268.463-.561.598-.152.086-.34.134-.542.134-.101 0-.208-.013-.319-.036-3.14-.781-5.21-.804-6.077-.076a.913.913 0 0 0-.296.443l.014.117.032.063c.049.071.13.151.243.238.096.072.223.142.375.203.158.026.665.039.886.045.176.014.505.014.961.014.206.006.385.009.545.012.22.005.406.008.561.017.842.023 1.587.085 2.148.176l.037.004c1.084.202 1.721.542 2.002 1.07l.048.091c.215.405.26.489.309.644.105.237.114.488.122.689l.006.133v.041c0 .3-.063.586-.193.873l-.014.045c-.113.222-.301.476-.576.774l-.052.041c-.338.368-.927.646-1.754.825-.61.13-1.328.209-2.136.236-.131.005-.26.006-.388.006zm-3.618-2.02a.69.69 0 0 0-.305.07.594.594 0 0 0-.364.361.57.57 0 0 0 .051.48.732.732 0 0 0 .415.29c.505.146 1.131.255 1.967.343.758.067 1.489.094 2.23.08a11.925 11.925 0 0 0 2.042-.225c.756-.165 1.275-.408 1.541-.724l.06-.05c.218-.241.37-.445.463-.62l.011-.034a1.75 1.75 0 0 0 .171-.75v-.028l-.007-.134c-.006-.181-.014-.387-.099-.58-.044-.137-.081-.206-.29-.601l-.047-.09c-.216-.405-.747-.675-1.67-.849l-.029-.003c-.377-.062-1.049-.143-2.102-.173a17.663 17.663 0 0 0-.549-.016c-.162-.003-.343-.006-.543-.012-.475.001-.797 0-.979-.015-.592-.015-.853-.03-.985-.059l-.04-.012a2.143 2.143 0 0 1-.507-.274 1.418 1.418 0 0 1-.365-.383l-.017-.037a.455.455 0 0 1-.046-.392c.059-.224.201-.438.416-.625 1.012-.849 3.18-.851 6.507-.022.189.04.369.026.519-.058.199-.092.31-.21.356-.37.062-.159.041-.308-.057-.467a.759.759 0 0 0-.434-.3c-1.818-.444-3.378-.671-4.628-.671-1.581 0-2.706.363-3.343 1.079-.428.438-.667.84-.735 1.235-.088.416-.028.792.18 1.155l.023.065c.149.246.368.479.652.698l.049.025c.271.195.547.346.869.473.132.061.491.155 1.564.172.179.014.503.014.995.014.2.006.375.01.53.013.201.004.372.007.514.015.803.014 1.615.081 1.894.157.296.081.802.503.881.779l.013.026c.055.111.087.204.044.471-.041.246-.135.326-.244.398l-.071.058-.104.063c-.154.096-.37.174-.711.26a9.696 9.696 0 0 1-1.741.183 16.73 16.73 0 0 1-.448.005c-.562 0-1.073-.023-1.564-.073-.657-.07-1.23-.168-1.708-.291l-.225-.03zM76.72 158.262h-6.24c-.321 0-.612-.108-.821-.307a.89.89 0 0 1-.34-.701v-6.767c0-.279.117-.521.347-.721.214-.186.503-.287.813-.287h6.24c.31 0 .586.095.822.281.229.216.339.455.339.726a.906.906 0 0 1-.331.707c-.232.2-.511.302-.83.302H71.64v1.366h3.674c.312 0 .588.095.823.282.229.217.338.457.338.727s-.118.521-.331.707c-.231.2-.51.302-.831.302h-3.674v1.366h5.079c.309 0 .585.094.822.28.23.219.339.46.339.729a.93.93 0 0 1-.332.708c-.227.199-.506.3-.827.3zm-6.24-8.391a.757.757 0 0 0-.497.174.554.554 0 0 0-.214.442v6.767c0 .167.074.317.207.424a.71.71 0 0 0 .504.192h6.24a.74.74 0 0 0 .512-.187.565.565 0 0 0 .199-.43.592.592 0 0 0-.206-.45.793.793 0 0 0-.505-.167h-5.303c-.125 0-.225-.088-.225-.196v-1.758c0-.108.101-.196.225-.196h3.899a.736.736 0 0 0 .512-.187.567.567 0 0 0 .199-.43.59.59 0 0 0-.206-.449.784.784 0 0 0-.505-.168h-3.899c-.125 0-.225-.088-.225-.195v-1.759c0-.108.101-.196.225-.196h5.303c.202 0 .365-.06.513-.188a.54.54 0 0 0 .199-.429.593.593 0 0 0-.206-.448.792.792 0 0 0-.506-.167h-6.24zM83.508 158.874a6.526 6.526 0 0 1-2.283-.398 4.708 4.708 0 0 1-1.739-1.069l-.05-.034a4.489 4.489 0 0 1-1.123-1.688 4.991 4.991 0 0 1-.321-2.037l.005-.115c.026-.624.04-.938.289-1.507.259-.594.473-1.044.87-1.419.01-.012.571-.651 1.389-1.005.632-.273.922-.325 1.363-.405.122-.022.256-.047.415-.079a9.695 9.695 0 0 1 1.481-.118c1.508 0 2.889.387 4.104 1.147.26.17.425.406.479.685a.99.99 0 0 1-.173.8c-.159.232-.403.391-.724.465l-.241.023c-.228 0-.444-.062-.645-.185-1.202-.77-2.454-1.013-3.757-.733l-.039.006-.212.048c-.436.098-.724.162-1.104.328-.41.178-.658.509-.66.512l-.024.027a1.214 1.214 0 0 0-.322.535c-.107.334-.164.59-.178 1.062-.016.46.048.877.189 1.238.136.354.339.661.607.914.268.265.582.459.965.599l.054.027c.419.146.897.222 1.386.222 1.237 0 2.146-.212 2.702-.628.22-.196.375-.447.456-.743h-2.846c-.322 0-.615-.117-.826-.332a.975.975 0 0 1-.334-.744c0-.299.111-.549.34-.765.215-.201.506-.312.82-.312h4.047c.3 0 .558.088.79.271.239.222.352.442.37.707.161 1.568-.278 2.766-1.306 3.551-.872.758-2.293 1.149-4.214 1.149zm-3.796-1.819l.059.04c.451.455.999.798 1.626 1.019a6.002 6.002 0 0 0 2.111.368c1.797 0 3.111-.352 3.905-1.044.938-.717 1.315-1.772 1.165-3.236-.012-.176-.084-.315-.236-.456a.734.734 0 0 0-.475-.159H83.82a.711.711 0 0 0-.491.187.651.651 0 0 0-.22.498c0 .189.076.358.213.478a.68.68 0 0 0 .497.207h3.115l.168.066.055.153a1.953 1.953 0 0 1-.64 1.2c-.663.498-1.642.734-3.009.734-.57 0-1.107-.089-1.596-.264l-.057-.029a3.02 3.02 0 0 1-1.086-.684 2.819 2.819 0 0 1-.699-1.051 3.458 3.458 0 0 1-.213-1.376c.015-.509.08-.798.194-1.154.086-.272.225-.503.413-.685.062-.079.356-.432.825-.636.423-.185.746-.257 1.192-.357l.236-.053.045-.007c1.424-.299 2.804-.029 4.101.802.121.073.248.11.383.11l.139-.013a.706.706 0 0 0 .444-.29.644.644 0 0 0 .111-.529.67.67 0 0 0-.301-.433c-1.495-.936-3.268-1.263-5.229-.962-.15.031-.288.057-.413.079-.42.076-.674.122-1.254.373-.721.312-1.24.899-1.245.905-.356.339-.545.736-.793 1.307-.223.509-.234.765-.26 1.382l-.005.115a4.66 4.66 0 0 0 .299 1.899c.217.574.544 1.077.973 1.496zM99.18 158.52c-.235 0-.463-.07-.661-.202a.972.972 0 0 1-.458-.647 33.587 33.587 0 0 0-.4-1.991h-5.69a29.94 29.94 0 0 0-.345 1.714 1.024 1.024 0 0 1-.46.654c-.28.175-.571.236-.879.188a1.102 1.102 0 0 1-.75-.403.875.875 0 0 1-.213-.735c.968-5.562 2.821-8.31 5.525-8.168l.165-.005c2.609 0 4.358 2.761 5.347 8.439a.923.923 0 0 1-.226.753 1.15 1.15 0 0 1-.767.39l-.188.013zm-7.392-3.234h6.056c.106 0 .198.065.22.155.16.658.308 1.386.441 2.162a.588.588 0 0 0 .282.398.686.686 0 0 0 .515.115.693.693 0 0 0 .472-.236.562.562 0 0 0 .141-.466c-.958-5.5-2.667-8.228-5.066-8.096l-.198-.005c-2.334 0-3.977 2.637-4.882 7.836a.526.526 0 0 0 .128.447.665.665 0 0 0 .458.25l.13.011a.767.767 0 0 0 .414-.127.63.63 0 0 0 .284-.404c.115-.665.245-1.302.385-1.885.022-.089.114-.155.22-.155zm5.589-1.229h-5.125l-.18-.079-.036-.173c.718-2.107 1.627-3.171 2.78-3.252h.036c1.124.08 2.021 1.144 2.741 3.252l-.036.173-.18.079zm-4.821-.393h4.518c-.623-1.709-1.395-2.646-2.239-2.72-.883.075-1.649.989-2.279 2.72zM114.824 150.519a.99.99 0 0 0-.565-.395c-4.294-1.051-7.063-.901-8.29.478-.441.45-.708.887-.787 1.337a1.75 1.75 0 0 0 .204 1.283h-.016c.174.313.441.6.787.858h.016c.283.205.582.369.928.506.235.109.787.178 1.667.19.174.014.504.014 1.006.014.441.014.787.014 1.039.028h.016c.786.014 1.585.08 1.841.148.255.071.704.476.738.657.036.181 0 0 0 0 .047.108.096.138.05.413-.046.278-.144.228-.27.364v-.014c-.143.108-.378.189-.708.273a9.576 9.576 0 0 1-1.699.177c-.661.015-1.321 0-1.998-.067a11.646 11.646 0 0 1-1.683-.287.98.98 0 0 0-.708.055.793.793 0 0 0-.471.477c-.079.205-.047.423.062.628a.98.98 0 0 0 .552.396c.565.164 1.242.273 2.03.355.771.067 1.524.096 2.28.082.818-.027 1.526-.11 2.108-.232.816-.179 1.385-.45 1.684-.806h.016c.251-.272.439-.52.551-.737v-.014c.126-.273.188-.546.188-.832v-.027c-.016-.204.005-.503-.121-.791-.048-.149-.094-.232-.347-.708-.254-.477-.839-.78-1.861-.971h-.016c-.503-.083-1.227-.15-2.154-.177-.268-.014-.629-.014-1.101-.028-.472 0-.802 0-.976-.014-.503-.013-.833-.027-.959-.054a2.014 2.014 0 0 1-.457-.246 1.233 1.233 0 0 1-.314-.327v-.014a.285.285 0 0 1-.047-.273 1.11 1.11 0 0 1 .362-.545c.944-.792 3.052-.792 6.339.027.253.054.488.041.708-.082.236-.108.394-.273.457-.491.077-.204.046-.409-.081-.614zM117.38 158.484a.844.844 0 0 0 .378-.532c.119-.685.248-1.317.387-1.896h6.109c.159.656.306 1.379.441 2.169a.78.78 0 0 0 .377.532c.205.137.44.191.692.15a.93.93 0 0 0 .613-.313c.156-.191.22-.383.188-.614-.99-5.69-2.769-8.474-5.349-8.337-2.579-.137-4.357 2.552-5.333 8.064a.67.67 0 0 0 .173.601.885.885 0 0 0 .614.327.98.98 0 0 0 .71-.151zm1.234-4.066c.689-2.02 1.561-3.064 2.605-3.138 1.023.071 1.882 1.118 2.567 3.138h-5.172zM134.637 150.283a1.048 1.048 0 0 0-.677-.232h-8.179c-.253 0-.488.082-.662.232a.747.747 0 0 0-.283.587c0 .218.096.422.283.573a.946.946 0 0 0 .662.246h3.145v6.276c0 .219.095.424.283.574a.95.95 0 0 0 .661.245.986.986 0 0 0 .676-.245.752.752 0 0 0 .269-.574v-6.277h3.146a.985.985 0 0 0 .676-.245.752.752 0 0 0 .268-.573.786.786 0 0 0-.268-.587zM145.659 150.12a.987.987 0 0 0-.677-.246.946.946 0 0 0-.66.246.717.717 0 0 0-.284.572v4.053c0 .314-.063.614-.203.888-.126.286-.33.519-.567.736a2.618 2.618 0 0 1-.849.491c-.313.123-.66.177-1.022.177h-1.4c-.361 0-.691-.053-1.021-.177-.331-.108-.598-.286-.85-.491a2.595 2.595 0 0 1-.566-.724v-.013a2.132 2.132 0 0 1-.203-.888v-4.053a.75.75 0 0 0-.269-.572.981.981 0 0 0-.676-.246.946.946 0 0 0-.661.246.715.715 0 0 0-.283.572v4.053c0 .533.126 1.037.347 1.528h.016c.22.479.551.887.96 1.256.424.354.896.641 1.445.847.552.204 1.134.3 1.764.3h1.399a5.15 5.15 0 0 0 1.777-.3h-.016a4.94 4.94 0 0 0 1.448-.847c.408-.369.738-.777.976-1.256v.015a3.5 3.5 0 0 0 .347-1.543v-4.053a.773.773 0 0 0-.272-.571zM146.926 150.128c-.167.149-.268.325-.268.541v7.049a.73.73 0 0 0 .284.568c.201.162.452.244.72.244.284 0 .519-.082.702-.244a.697.697 0 0 0 .302-.568v-6.29c2.158-.107 3.813-.013 4.967.271.87.23 1.339.61 1.388 1.139.018.42-.183.719-.602.896-.67.244-1.656.312-2.96.189a1.136 1.136 0 0 0-.637.121.838.838 0 0 0-.418.407.68.68 0 0 0-.033.515c.066.177.201.312.386.42l5.019 2.981c.218.134.468.189.736.148a.97.97 0 0 0 .669-.326.73.73 0 0 0 .185-.596.837.837 0 0 0-.402-.542l-2.659-1.572a5.466 5.466 0 0 0 1.004-.298c1.138-.462 1.707-1.247 1.725-2.345.066-1.301-.871-2.195-2.776-2.684-1.489-.406-3.715-.502-6.676-.298a1.07 1.07 0 0 0-.656.274zM158.546 150.269a.724.724 0 0 0-.173.464v7.097c0 .219.094.424.283.573a.945.945 0 0 0 .66.245.985.985 0 0 0 .676-.245.748.748 0 0 0 .269-.573v-5.062l6.244 5.621c.142.123.298.205.488.245.188.027.361.014.55-.04a.94.94 0 0 0 .426-.313.695.695 0 0 0 .157-.451v-7.097a.78.78 0 0 0-.269-.586 1.049 1.049 0 0 0-.676-.232c-.251 0-.486.083-.66.232-.188.164-.283.354-.283.586v5.063l-6.229-5.636a1.239 1.239 0 0 0-.489-.232 1.079 1.079 0 0 0-.55.056.795.795 0 0 0-.424.285z" fill="#7a7a62"/><path d="M110.465 158.676c-.635 0-1.264-.028-1.924-.086-.875-.092-1.534-.207-2.078-.363a1.196 1.196 0 0 1-.676-.486c-.149-.277-.174-.545-.081-.788.095-.269.3-.475.59-.594.247-.12.574-.15.875-.063.447.115 1 .21 1.639.278.613.061 1.276.08 1.964.065a9.221 9.221 0 0 0 1.654-.172c.21-.053.48-.13.609-.229l.039-.024.084-.061c.042-.028.054-.035.072-.145.015-.093.018-.145.015-.182l-.047-.09-.016-.076-.001-.006c-.029-.104-.396-.449-.583-.501-.207-.055-.946-.125-1.777-.14a19.08 19.08 0 0 0-.536-.016c-.156-.003-.33-.007-.522-.013-.499.001-.835.001-1.019-.014-.895-.014-1.474-.083-1.754-.213a4.41 4.41 0 0 1-.929-.502l-.056-.028c-.377-.283-.661-.594-.843-.924l-.022-.067a1.906 1.906 0 0 1-.185-1.336c.082-.469.356-.938.837-1.431.726-.816 1.981-1.234 3.723-1.234 1.302 0 2.917.234 4.8.694.311.09.536.248.699.484.165.268.197.526.1.779-.073.254-.271.468-.566.604a1.111 1.111 0 0 1-.547.135c-.103 0-.207-.012-.32-.035-3.166-.789-5.254-.812-6.128-.078a.908.908 0 0 0-.298.448l.015.117.032.063c.05.072.132.152.245.24.097.072.225.142.379.205.165.026.69.039.894.044.177.015.509.015.969.015.221.007.412.01.581.014.208.004.385.007.533.015.853.025 1.604.086 2.167.178l.038.004c1.092.203 1.734.546 2.019 1.08l.05.094c.216.406.261.49.31.646.106.239.116.493.123.696l.006.134.001.04c0 .303-.064.591-.194.882l-.015.044c-.114.226-.305.481-.581.782l-.052.041c-.341.371-.936.65-1.769.832-.62.131-1.345.211-2.155.238-.132.005-.26.006-.388.006zm-3.652-2.036a.696.696 0 0 0-.309.07.597.597 0 0 0-.366.364.58.58 0 0 0 .051.484.745.745 0 0 0 .418.292c.513.148 1.145.258 1.984.347.77.067 1.505.093 2.249.08a12.142 12.142 0 0 0 2.061-.227c.763-.167 1.286-.412 1.554-.73l.061-.05c.22-.242.373-.447.467-.625l.012-.033c.116-.252.173-.499.173-.758l-.007-.162c-.007-.184-.015-.39-.101-.586-.045-.138-.08-.207-.29-.602l-.05-.094c-.218-.409-.754-.682-1.685-.856l-.028-.003c-.379-.063-1.055-.143-2.12-.174-.149-.008-.321-.011-.522-.015a38.077 38.077 0 0 1-.58-.014c-.479 0-.804 0-.988-.015-.584-.014-.857-.03-.992-.059l-.041-.012a2.235 2.235 0 0 1-.511-.276 1.407 1.407 0 0 1-.369-.388l-.016-.037a.452.452 0 0 1-.046-.394c.059-.223.205-.444.419-.631 1.02-.856 3.208-.859 6.562-.022.19.041.371.026.523-.059.2-.093.313-.212.359-.373.062-.161.041-.312-.059-.473a.766.766 0 0 0-.438-.301c-1.833-.449-3.407-.678-4.667-.678-1.594 0-2.729.366-3.371 1.089-.432.441-.672.847-.742 1.245-.088.42-.028.798.182 1.165l.023.065c.149.247.371.483.658.704l.049.025c.273.198.552.35.876.478.133.062.495.157 1.578.174.179.013.506.013 1.002.013.199.007.37.01.525.013.207.004.383.008.528.016.266.005 1.778.123 1.909.157.3.084.81.509.89.788l.013.026c.055.112.088.205.044.474-.041.249-.137.33-.246.403l-.071.057-.104.063c-.154.096-.373.174-.719.261a9.83 9.83 0 0 1-1.757.186 17.542 17.542 0 0 1-2.029-.069c-.665-.07-1.244-.17-1.722-.294l-.224-.029zM125.603 159.119c-.24 0-.465-.069-.668-.205a.977.977 0 0 1-.463-.652 34.066 34.066 0 0 0-.401-2.008h-5.74a32.241 32.241 0 0 0-.349 1.728 1.032 1.032 0 0 1-.464.66 1.242 1.242 0 0 1-.676.204l-.208-.017a1.102 1.102 0 0 1-.76-.406.84.84 0 0 1-.211-.752c1.004-5.676 2.829-8.371 5.569-8.226l.166-.005c2.631 0 4.396 2.783 5.393 8.51.039.283-.034.522-.229.759-.205.23-.462.361-.769.395l-.19.015zm-7.458-3.261h6.109c.107 0 .199.065.223.157.157.649.306 1.384.442 2.181a.59.59 0 0 0 .284.4c.166.11.336.146.521.117a.708.708 0 0 0 .475-.241.567.567 0 0 0 .143-.47c-.966-5.545-2.678-8.295-5.109-8.163l-.199-.004c-2.339 0-3.995 2.658-4.923 7.901a.495.495 0 0 0 .128.45.662.662 0 0 0 .461.251l.143.013c.141 0 .267-.04.407-.127a.64.64 0 0 0 .286-.407c.117-.674.248-1.315.389-1.9.021-.092.113-.158.22-.158zm5.641-1.243h-5.172l-.182-.079-.035-.175c.725-2.124 1.642-3.196 2.804-3.278h.036c1.14.079 2.045 1.152 2.767 3.279l-.035.174-.183.079zm-4.866-.394h4.56c-.632-1.748-1.393-2.67-2.261-2.742-.89.074-1.663.996-2.299 2.742z" fill="#7a7a62"/><path d="M129.871 158.983c-.322 0-.617-.11-.828-.31a.9.9 0 0 1-.343-.708v-6.079h-2.919a1.19 1.19 0 0 1-.828-.31.896.896 0 0 1-.343-.707c0-.28.117-.525.35-.727.217-.188.509-.29.822-.29h8.179c.314 0 .593.096.829.283.231.218.342.461.341.733a.935.935 0 0 1-.334.713c-.23.201-.512.304-.836.304h-2.919v6.079a.934.934 0 0 1-.336.714 1.227 1.227 0 0 1-.835.305zm-4.09-8.734a.77.77 0 0 0-.502.175.564.564 0 0 0-.215.446c0 .17.072.317.209.428.139.131.31.194.508.194h3.146c.126 0 .228.088.228.197v6.276c0 .171.072.318.209.429.139.131.31.193.508.193.204 0 .369-.06.516-.188a.571.571 0 0 0 .202-.435v-6.277c0-.108.102-.197.227-.197h3.146c.205 0 .369-.06.516-.188a.568.568 0 0 0 .201-.434.594.594 0 0 0-.207-.453.8.8 0 0 0-.51-.168h-8.182zM141.397 158.873h-1.399a5.254 5.254 0 0 1-1.852-.315 5.11 5.11 0 0 1-1.515-.886c-.447-.403-.769-.817-.986-1.269l-.043-.058a3.845 3.845 0 0 1-.362-1.601v-4.053c0-.282.127-.538.358-.72.195-.187.489-.296.813-.296.327 0 .601.099.836.303a.933.933 0 0 1 .335.713v4.053c0 .269.063.542.188.814l.011.034c.124.229.287.434.51.64.275.223.507.357.765.442.303.112.6.164.942.164h1.399c.346 0 .659-.054.93-.16.268-.088.507-.228.787-.455.251-.232.412-.439.511-.663.126-.246.188-.518.188-.816v-4.053c0-.281.128-.536.358-.719.196-.188.49-.297.813-.297.324 0 .605.102.837.304a.94.94 0 0 1 .337.71v4.055c0 .578-.119 1.107-.364 1.619l-.029.044a4.426 4.426 0 0 1-.991 1.259c-.457.38-.933.662-1.46.867l-.049.024a5.39 5.39 0 0 1-1.868.316zM136 156.146l.039.054c.195.425.493.814.911 1.192.42.35.871.613 1.373.802.516.19 1.063.284 1.674.284h1.399c.584 0 1.119-.087 1.632-.265l.041-.02a4.704 4.704 0 0 0 1.381-.808c.405-.367.709-.759.923-1.191l.024-.037c.204-.445.305-.909.305-1.413v-4.053a.573.573 0 0 0-.203-.432.746.746 0 0 0-.518-.189.7.7 0 0 0-.494.183.552.552 0 0 0-.223.438v4.053c0 .354-.075.681-.224.969-.116.264-.306.511-.609.791a2.92 2.92 0 0 1-.933.541 3.051 3.051 0 0 1-1.104.189h-1.4c-.4 0-.764-.063-1.111-.193-.391-.128-.694-.35-.913-.528a2.843 2.843 0 0 1-.62-.786l-.018-.052a2.293 2.293 0 0 1-.206-.931v-4.053a.569.569 0 0 0-.2-.433.75.75 0 0 0-.517-.188.712.712 0 0 0-.494.182.54.54 0 0 0-.223.439v4.053a3.5 3.5 0 0 0 .308 1.402zM147.663 158.728c-.33 0-.633-.103-.873-.296a.913.913 0 0 1-.356-.715v-7.048c0-.254.111-.482.331-.68.229-.202.499-.313.801-.332 2.987-.205 5.255-.104 6.759.307 2.019.518 3.007 1.486 2.936 2.881-.019 1.175-.643 2.022-1.855 2.516a4.543 4.543 0 0 1-.566.194l2.254 1.332c.271.17.437.395.497.669a.909.909 0 0 1-.226.752 1.213 1.213 0 0 1-.825.404l-.196.014c-.248 0-.482-.066-.696-.197l-5.016-2.979c-.239-.141-.394-.312-.474-.521-.071-.25-.056-.466.042-.657.104-.217.278-.388.518-.5.216-.116.464-.162.76-.146 1.27.119 2.221.059 2.857-.174.326-.138.477-.364.462-.706-.04-.433-.441-.748-1.227-.956-1.092-.27-2.669-.363-4.675-.272v6.101a.892.892 0 0 1-.381.721c-.216.186-.506.288-.851.288zm2.67-8.779c-.821 0-1.742.034-2.734.103a.828.828 0 0 0-.512.215c-.137.123-.202.251-.202.402v7.049c0 .162.076.313.213.425.154.124.35.189.564.189a.789.789 0 0 0 .542-.185c.158-.119.235-.264.235-.43v-6.29c0-.104.094-.191.214-.197 2.154-.107 3.855-.013 5.041.278.975.258 1.495.699 1.553 1.313.021.506-.231.88-.729 1.09-.729.266-1.759.333-3.083.208l-.083-.003a.827.827 0 0 0-.411.096.636.636 0 0 0-.327.314.502.502 0 0 0-.022.391c.042.112.137.213.291.305l5.021 2.982a.831.831 0 0 0 .57.117c.233-.023.396-.103.526-.252a.548.548 0 0 0 .141-.45.63.63 0 0 0-.31-.407l-2.655-1.569-.095-.199.17-.157c.384-.08.697-.173.957-.282 1.06-.431 1.581-1.14 1.597-2.17.063-1.212-.793-2.024-2.613-2.491-.958-.263-2.256-.395-3.859-.395zM167.178 158.846l-.222-.017a1.307 1.307 0 0 1-.61-.299l-5.858-5.274v4.573a.933.933 0 0 1-.336.714c-.23.2-.512.303-.835.303s-.617-.11-.827-.31a.89.89 0 0 1-.343-.707v-7.097c0-.211.07-.399.215-.577.106-.154.299-.285.533-.358a1.34 1.34 0 0 1 .662-.064c.23.051.421.141.603.279l5.853 5.294v-4.573c0-.279.117-.524.35-.726.218-.188.509-.291.82-.291s.59.096.828.284c.232.218.344.46.344.732v7.097a.88.88 0 0 1-.199.565 1.14 1.14 0 0 1-.517.38 1.604 1.604 0 0 1-.461.072zm-6.917-6.277l.163.061 6.244 5.622c.114.099.236.16.379.19.101.014.267.009.427-.036a.701.701 0 0 0 .305-.233.517.517 0 0 0 .121-.344v-7.097a.595.595 0 0 0-.208-.452.801.801 0 0 0-.51-.169.768.768 0 0 0-.501.176.562.562 0 0 0-.216.446v5.063l-.142.184-.248-.046-6.229-5.636a.974.974 0 0 0-.381-.178l-.122-.007a.752.752 0 0 0-.278.05c-.155.05-.265.121-.325.209a.546.546 0 0 0-.14.361v7.096c0 .172.071.319.208.427.14.132.311.194.509.194.204 0 .367-.06.516-.188a.562.562 0 0 0 .201-.433v-5.062l.141-.184.086-.014zM171.337 149.849h-.655l-.007 1.633h-.459l-.007-1.658h-.68l.007-.591h1.793zM173.752 151.482h-.459v-1.83l-.399 1.83h-.462l-.399-1.817v1.817h-.459v-2.249h.672l.419 1.722.418-1.722h.669zM51.762 158.103h-.679l-.007 1.632h-.477l-.007-1.658h-.707l.007-.591h1.861zM54.27 159.735h-.477v-1.83l-.415 1.83h-.479l-.415-1.817v1.817h-.477v-2.249h.698l.435 1.722.435-1.722h.695zM34.468 149.951c-.643.279-1.251.569-1.811.865-1.243.662-2.261 1.354-2.94 2.171-.679.818-.976 1.949-.414 2.896.479.805 1.506 1.077 2.426 1.084.92.009 1.932-.18 3.068-.467 2.273-.571 5.015-1.571 7.716-2.533 2.701-.963 5.368-1.889 7.313-2.304.97-.208 1.769-.271 2.182-.219l.32.088.031.059c.096.355.049.581-.199.926s-.755.769-1.529 1.208c-.251.144-.531.288-.833.433-.134 1.127-.678 2.144-.858 2.471 1.079-.426 2.026-.86 2.825-1.313.929-.526 1.675-1.086 2.176-1.781.5-.693.699-1.56.476-2.385a2.013 2.013 0 0 0-.808-1.117c-.395-.268-.849-.396-1.303-.453-.904-.116-1.874.017-2.974.252-2.201.471-4.896 1.421-7.603 2.387-2.71.965-5.431 1.947-7.508 2.47-1.038.262-1.92.4-2.474.396-.553-.006-.575-.083-.575-.085-.159-.266-.151-.416.244-.892.379-.456 1.154-1.038 2.197-1.605.269-1.388.47-1.856.855-2.552z" fill="#7a7a62"/><path d="M41.721 145.995l-.277.013c.541.44 1.038.842 1.24 1.029.389.358 1.905 1.595 2.39 2.045a98.2 98.2 0 0 0 1.769 1.531c.398.333.261.07.78.528.849.749 1.479 1.376 2.247 2.04l-.037-.625c-.32-.534-.995-.876-1.474-1.239-.298-.226-.563-.329-.777-.531l-.721-.663c-.071-.088-2.76-2.491-4.535-4.105l-.605-.023zm-.868.045l-.805.112c.74.613 1.568 1.268 1.845 1.524.385.356 1.921 1.51 2.402 1.96.327.296 1.116.967 1.573 1.349.401.334.445.336.964.796 1.01.894 1.719 1.684 2.71 2.496l.218.185c.05-.255.081-.513.1-.771a316.867 316.867 0 0 0-2.518-1.936c-.299-.226-.563-.331-.777-.531l-.721-.663c-.082-.096-3.274-2.949-4.991-4.521zm2.407.093c.64.563 2.518 2.151 2.956 2.559.323.296 1.464 1.236 1.921 1.62.398.333-.012-.065.507.393.37.328.696.629 1.013.924l-.211-.672-.125-.09c-.298-.226-.563-.331-.777-.531l-.087-.168c-.065-.077-2.394-2.135-4.29-3.828a8.959 8.959 0 0 0-.907-.207zm-3.713.134l-.652.188c.806.683 1.866 1.514 2.187 1.81.385.358 1.917 1.512 2.402 1.961.326.296.948.78 1.405 1.163.398.333.28.387.799.847 1.013.894 2.051 1.818 3.04 2.632l.736.639.214-.708a205.298 205.298 0 0 0-3.164-2.457c-.298-.226-.441-.438-.659-.639l-.824-.532c-.09-.106-3.908-3.463-5.484-4.904zm-1.088.339l-.727.321c.816.713 2.093 1.662 2.456 1.999.387.358 1.957 1.587 2.441 2.036.326.297.466.318.923.701.398.333.79.64 1.309 1.099 1.013.894 2.023 2.028 3.012 2.842.404.33.777.706 1.069 1.024.146-.252.28-.511.395-.775-.957-.774-2.505-2.021-3.702-2.923-.298-.226-.373-.439-.59-.64l-1.063-.579c-.094-.108-4.213-3.861-5.523-5.105zm7.169.289a78.694 78.694 0 0 1 1.548 1.344c.233.212.889.716 1.417 1.129a7.816 7.816 0 0 0-2.965-2.473zm-8.202.2l-.592.361.002.002c.813.717 1.823 1.496 2.191 1.84.387.356 2.118 1.586 2.602 2.035.326.296.333.276.79.659.398.333.923.683 1.442 1.141 1.013.893 2.023 2.028 3.012 2.843a41.789 41.789 0 0 1 1.582 1.369l.333-.477c-1.134-.968-3.813-3.268-5.032-4.402l-.904-.445c-.099-.117-4.39-3.932-5.426-4.926zm-.825.519l-.553.438.168.357c.794.657 1.935 1.496 2.305 1.84.387.356 2.116 1.586 2.601 2.036.325.297.333.275.79.658 1.175.982 3.043 2.699 4.398 3.966.6.56 1.15 1.004 1.439 1.231l.51-.553c-.255-.196-4.544-3.522-6.051-4.93l-.894-.722c-.093-.105-3.445-3.126-4.713-4.321zm-.809.663l-.519.541c.783.658 2.103 1.706 2.499 2.073.385.356 1.314 1.006 1.798 1.455.325.296.936.844 1.393 1.228 1.175.983 3.067 2.758 4.426 4.025.746.698 1.271 1.175 1.43 1.32l.696-.553c-.485-.409-4.908-4.159-6.376-5.531l-.387-.149c-.1-.119-4.069-3.547-4.96-4.409zm-.665.724l-.473.651c.712.545 2.261 1.84 2.673 2.222.344.32.55.468.821.72l.657.585c.325.296.114.045.57.428 1.813 1.519 6.146 5.334 6.675 5.8l.681-.426c-.572-.484-4.889-4.146-6.34-5.502l-.859-.452c-.097-.116-3.408-3.07-4.405-4.026zm-.547.766a6.83 6.83 0 0 0-.464.873c.656.512 2.293 1.927 2.777 2.272.429.308.493.381.765.633.235.297.732.493.906.638 1.816 1.521 5.967 5.268 6.458 5.714.305-.121.597-.258.879-.41-.681-.546-5.621-4.514-7.069-5.866l-1.181-1.066c-.099-.12-2.291-2.021-3.071-2.788zm-.509.993a6.894 6.894 0 0 0-.275.822c.575.453 2.334 2.095 2.847 2.438.496.333.134.146.406.398l-.078-.37c.325.297.782.774 1.239 1.158 1.776 1.486 5.259 4.522 5.821 5.016l.73-.229c-.646-.551-5.557-4.726-7.009-6.082l-.46-.265c-.003-.089-2.491-2.158-3.221-2.886zm-.303.934a6.528 6.528 0 0 0-.202 1.565c.005 3.611 2.984 6.671 6.995 7.185-1.509-1.267-4.048-3.42-5.069-4.421l-.875.025c-.028-.845-.185-1.229-.123-1.227.048.002.229.239.706.678.805.742 4.017 3.55 5.649 4.975.289.03.582.047.874.05l.584-.026c-1.217-1.049-4.302-3.723-5.546-4.885l-1.536-.938-1.445-1.522c.221.093 1.068.837 1.66 1.234.496.333.775.457 1.047.709l.499.446c.325.296.743.726 1.209 1.098 1.543 1.236 3.596 3.056 4.463 3.832.364-.038.721-.1 1.075-.181-.817-.678-5.599-4.655-7.022-5.985l-.48-.182c-.003-.093-1.708-1.67-2.417-2.384l-.046-.046z" fill="#7a7a62"/><path d="M36.929 158.001c-2.804.407-4.529.336-4.529.336-.587-.03-1.091.374-1.117.898-.026.525.435.968 1.024.983 0 0 2.411.091 6.118-.551-.309-.455-.943-.998-1.496-1.666zM48.739 146.666a31.27 31.27 0 0 0-3.133.211c1.022.522 1.364.993 2.179 1.699 2.085-.109 3.375.06 3.375.06.581.085 1.128-.272 1.215-.793.084-.521-.326-1.004-.911-1.072.001 0-1.028-.131-2.725-.105zM92.822 186.048l-.525 2.469h-.325l.424-1.991-1.097 1.991h-.325l-.248-2.004-.426 2.004h-.325l.525-2.469h.449l.263 2.106 1.161-2.106zM94.752 188.517h-.355l-.095-.738h-.945l-.417.738h-.34l1.422-2.469h.389l.341 2.469zm-.486-.999l-.133-1.086-.633 1.086h.766zM97.326 187.261a1.822 1.822 0 0 1-.494.931c-.221.217-.439.325-.654.325h-1.077l.525-2.469h1.002c.189 0 .353.064.491.193.165.155.248.375.248.657 0 .113-.014.234-.041.363zm-.319 0c.025-.12.038-.23.038-.332 0-.194-.046-.343-.139-.445s-.223-.154-.39-.154h-.634l-.402 1.906h.718c.19 0 .358-.091.505-.274.14-.177.241-.41.304-.701zM99.788 186.048l-.061.281H98.33l-.166.779h1.342l-.057.281h-1.342l-.179.846h1.453l-.061.282h-1.771l.525-2.469zM101.626 186.048l-.525 2.469h-.318l.525-2.469zM104.098 186.048l-.525 2.469h-.362l-.83-1.972-.42 1.972h-.318l.525-2.469h.378l.81 1.993.424-1.993zM107.315 186.048l-.061.281h-1.397l-.166.779h1.343l-.057.281h-1.342l-.18.846h1.454l-.061.282h-1.771l.525-2.469zM109.739 186.048l-.386 1.809a.86.86 0 0 1-.308.474 1.203 1.203 0 0 1-.789.261c-.28 0-.492-.068-.636-.206a.537.537 0 0 1-.176-.41l.014-.118.386-1.809h.319l-.384 1.798-.006.072c0 .111.05.208.15.29a.6.6 0 0 0 .39.122.832.832 0 0 0 .468-.143.583.583 0 0 0 .262-.365l.378-1.774h.318zM155.372 113.626h-.982v.496h.864v.373h-.864v.936h-.406v-2.178h1.388zM157.451 114.36c0 .344-.089.617-.265.824s-.405.311-.688.311c-.302 0-.538-.111-.71-.336-.16-.207-.241-.475-.241-.805 0-.316.076-.578.228-.785.176-.234.422-.352.74-.352.295 0 .526.113.696.338.16.212.24.479.24.805zm-.388 0c0-.234-.051-.418-.151-.551a.491.491 0 0 0-.418-.201.48.48 0 0 0-.408.199c-.101.133-.15.313-.15.541 0 .238.052.424.155.559a.508.508 0 0 0 .431.203.46.46 0 0 0 .392-.207c.099-.138.149-.318.149-.543zM159.382 115.431h-.438a.822.822 0 0 1-.055-.252v-.328l-.035-.191c-.034-.059-.102-.09-.2-.09h-.482v.861h-.407v-2.178h1.111c.123 0 .229.047.32.139.11.109.165.264.165.465a.576.576 0 0 1-.29.525c.141.084.213.178.217.281l.021.531.073.152v.085zm-.409-1.547c0-.172-.077-.258-.233-.258h-.568v.57h.561l.167-.098.073-.214zM162.031 114.815c0 .178-.063.33-.188.457-.149.15-.358.227-.626.227a.72.72 0 0 1-.533-.219.682.682 0 0 1-.22-.494v-1.533h.406v1.539l.102.225a.364.364 0 0 0 .254.092c.266 0 .398-.105.398-.316v-1.539h.406v1.561zM163.933 114.788c0 .227-.072.402-.218.525s-.35.186-.611.186c-.236 0-.424-.063-.561-.188-.138-.127-.217-.301-.239-.525h.395c.028.234.176.352.442.352a.508.508 0 0 0 .295-.076l.11-.209c0-.16-.093-.26-.276-.299l-.482-.102c-.133-.027-.24-.092-.323-.193s-.125-.221-.125-.357c0-.213.066-.381.199-.502s.315-.182.547-.182c.249 0 .442.061.581.182s.206.295.205.518h-.38a.337.337 0 0 0-.123-.252.469.469 0 0 0-.3-.092c-.231 0-.347.094-.347.281 0 .121.078.199.235.234l.418.096c.189.045.325.104.406.18.102.095.152.236.152.423zM165.714 115.431h-1.477v-2.178h1.43v.373h-1.024v.496h.946v.373h-.946v.563h1.071zM169.111 113.253l-.554 2.178h-.365l-.327-1.657-.325 1.657h-.367l-.553-2.178h.43l.304 1.631.296-1.631h.431l.294 1.648.304-1.648zM169.316 113.253h.407v2.178h-.407zM171.517 113.626h-.577v1.805h-.407v-1.805h-.599v-.373h1.583zM173.333 115.431h-.407v-.987h-.783v.987h-.406v-2.178h.406v.818h.783v-.818h.407zM175.979 113.948c0 .201-.055.369-.163.504s-.233.201-.374.201h-.566v.777h-.406v-2.178h.93c.191 0 .336.063.434.186s.145.293.145.51zm-.394-.025l-.064-.215-.182-.082h-.464v.654h.475l.168-.115.067-.242zM177.976 115.431h-.415l-.139-.436h-.733l-.135.436h-.413l.688-2.178h.469l.678 2.178zm-.65-.811l-.261-.846-.243.846h.504zM179.597 115.431h-1.352v-2.178h.406v1.805h.946zM154.41 119.013h-.415l-.139-.436h-.732l-.135.436h-.414l.688-2.176h.47l.677 2.176zm-.65-.809l-.261-.848-.244.848h.505zM156.253 119.013h-.402l-.799-1.52v1.52h-.406v-2.176h.401l.8 1.492v-1.492h.406zM158.264 117.849c0 .326-.074.604-.222.834-.142.221-.306.33-.493.33h-.922v-2.176h.951c.157 0 .305.082.442.248.163.197.244.451.244.764zm-.409.035c0-.176-.033-.33-.1-.463-.071-.139-.159-.209-.266-.209h-.456v1.428h.374c.132 0 .239-.066.323-.201.084-.135.125-.319.125-.555zM160.717 117.21h-.981v.496h.864v.373h-.864v.934h-.406v-2.176h1.387zM162.62 119.013h-.438a.824.824 0 0 1-.055-.25v-.328l-.035-.191c-.034-.061-.102-.09-.2-.09h-.482v.859h-.407v-2.176h1.111c.123 0 .229.045.32.137.11.109.165.266.165.467a.576.576 0 0 1-.29.525c.141.082.213.176.217.279l.021.531.073.152v.085zm-.41-1.547c0-.17-.077-.256-.233-.256h-.568v.57h.561l.167-.1.073-.214zM164.433 119.013h-1.476v-2.176h1.43v.373h-1.024v.496h.945v.373h-.945v.561h1.07zM166.341 119.013h-.402l-.799-1.52v1.52h-.406v-2.176h.401l.8 1.492v-1.492h.406zM168.366 118.271c-.025.271-.119.479-.281.617-.15.127-.348.191-.591.191-.268 0-.479-.104-.635-.311s-.233-.488-.233-.842c0-.328.077-.596.23-.801a.798.798 0 0 1 .675-.326c.24 0 .438.072.594.215s.236.328.241.559h-.388a.422.422 0 0 0-.14-.285.42.42 0 0 0-.297-.113.436.436 0 0 0-.38.205c-.094.137-.14.324-.14.559 0 .232.046.418.138.553a.425.425 0 0 0 .369.205.43.43 0 0 0 .445-.426h.393zM170.245 119.013h-.408v-.985h-.783v.985h-.406v-2.176h.406v.818h.783v-.818h.408zM172.892 118.372c0 .227-.072.4-.218.525-.146.123-.35.184-.611.184-.236 0-.424-.063-.561-.188-.138-.125-.217-.301-.239-.525h.395c.028.234.176.352.442.352a.508.508 0 0 0 .295-.076l.11-.207c0-.162-.093-.262-.276-.299l-.482-.102a.549.549 0 0 1-.448-.552c0-.213.066-.379.199-.5.133-.123.315-.184.547-.184.249 0 .442.063.581.184s.206.293.205.516h-.38a.33.33 0 0 0-.123-.25.458.458 0 0 0-.3-.094c-.231 0-.347.094-.347.281 0 .121.078.199.235.236l.418.096c.189.043.325.104.406.178.102.095.152.238.152.425zM174.673 119.013h-1.477v-2.176h1.43v.373h-1.024v.496h.946v.373h-.946v.561h1.071zM176.649 118.271c-.025.271-.119.479-.281.617-.15.127-.348.191-.591.191-.268 0-.479-.104-.635-.311s-.233-.488-.233-.842c0-.328.077-.596.23-.801a.798.798 0 0 1 .675-.326c.24 0 .438.072.594.215s.236.328.241.559h-.388a.422.422 0 0 0-.14-.285.42.42 0 0 0-.297-.113.436.436 0 0 0-.38.205c-.094.137-.14.324-.14.559 0 .232.046.418.138.553a.425.425 0 0 0 .369.205.43.43 0 0 0 .445-.426h.393zM178.652 119.013h-.415l-.139-.436h-.733l-.135.436h-.413l.688-2.176h.469l.678 2.176zm-.651-.809l-.261-.848-.243.848h.504zM180.807 119.013h-.407v-1.768l-.353 1.768h-.406l-.352-1.758v1.758h-.407v-2.176h.595l.367 1.666.371-1.666h.592zM158.588 121.954c0 .227-.073.402-.219.525-.145.123-.349.186-.61.186-.237 0-.424-.063-.562-.188a.781.781 0 0 1-.238-.525h.394c.029.234.177.352.443.352a.505.505 0 0 0 .294-.076l.11-.209c0-.16-.092-.26-.276-.299l-.482-.102a.546.546 0 0 1-.322-.193.544.544 0 0 1-.125-.357c0-.213.066-.381.199-.502s.314-.182.546-.182c.25 0 .443.061.582.182.138.121.206.295.204.518h-.379a.335.335 0 0 0-.124-.252.466.466 0 0 0-.299-.092c-.231 0-.348.094-.348.281 0 .121.079.199.236.234l.417.096c.189.045.325.104.406.18.103.095.153.236.153.423zM160.369 122.597h-1.477v-2.178h1.431v.373h-1.025v.496h.946v.373h-.946v.563h1.071zM162.418 122.604h-.247l-.049-.268a.712.712 0 0 1-.626.324.792.792 0 0 1-.621-.297c-.182-.215-.273-.488-.273-.824 0-.352.087-.631.262-.842a.856.856 0 0 1 .692-.314c.249 0 .449.066.599.199a.851.851 0 0 1 .264.525h-.372c-.074-.238-.237-.357-.489-.357a.491.491 0 0 0-.412.203c-.104.137-.155.318-.155.547 0 .23.055.422.163.572a.488.488 0 0 0 .758.084.563.563 0 0 0 .169-.361h-.456v-.371h.795v1.18zM164.5 122.597h-.415l-.139-.436h-.732l-.135.436h-.414l.688-2.178h.47l.677 2.178zm-.65-.811l-.261-.846-.244.846h.505zM167.023 121.954c0 .227-.072.402-.218.525s-.35.186-.611.186c-.236 0-.424-.063-.561-.188-.138-.127-.217-.301-.239-.525h.395c.028.234.176.352.442.352a.508.508 0 0 0 .295-.076l.11-.209c0-.16-.093-.26-.276-.299l-.482-.102c-.133-.027-.24-.092-.323-.193s-.125-.221-.125-.357c0-.213.066-.381.199-.502s.315-.182.547-.182c.249 0 .442.061.581.182s.206.295.205.518h-.38a.337.337 0 0 0-.123-.252.469.469 0 0 0-.3-.092c-.231 0-.347.094-.347.281 0 .121.078.199.235.234l.418.096c.189.045.325.104.406.18.102.095.152.236.152.423zM169.018 122.597h-.415l-.139-.436h-.733l-.135.436h-.413l.688-2.178h.469l.678 2.178zm-.65-.811l-.261-.846-.243.846h.504zM170.691 120.792h-.578v1.805h-.406v-1.805h-.599v-.373h1.583zM172.498 121.981c0 .178-.062.33-.187.457-.15.15-.358.227-.626.227a.723.723 0 0 1-.534-.219.682.682 0 0 1-.22-.494v-1.533h.407v1.539l.102.225a.361.361 0 0 0 .253.092c.266 0 .398-.105.398-.316v-1.539h.406v1.561zM174.517 122.597h-.438a.822.822 0 0 1-.055-.252v-.328l-.035-.191c-.034-.059-.102-.09-.2-.09h-.482v.861h-.407v-2.178h1.111c.123 0 .229.047.32.139.11.109.165.264.165.465a.576.576 0 0 1-.29.525c.141.084.213.178.217.281l.021.531.073.152v.085zm-.409-1.547c0-.172-.077-.258-.233-.258h-.568v.57h.561l.167-.098.073-.214zM176.431 122.597h-.402l-.799-1.522v1.522h-.406v-2.178h.401l.8 1.494v-1.494h.406zM161.975 125.538c0 .227-.073.4-.219.525-.145.123-.349.184-.61.184-.237 0-.424-.063-.562-.188s-.217-.301-.238-.525h.394c.029.234.177.352.443.352a.505.505 0 0 0 .294-.076l.11-.207c0-.162-.092-.262-.276-.299l-.482-.102a.546.546 0 0 1-.322-.193.545.545 0 0 1-.125-.359c0-.213.066-.379.199-.5.133-.123.314-.184.546-.184.25 0 .443.063.582.184.138.121.206.293.204.516h-.379a.328.328 0 0 0-.124-.25.456.456 0 0 0-.299-.094c-.231 0-.348.094-.348.281 0 .121.079.199.236.236l.417.096c.189.043.325.104.406.178.102.095.153.238.153.425zM163.826 124.003l-.631 1.367v.809h-.407v-.809l-.651-1.367h.453l.401.934.38-.934zM165.59 125.538c0 .227-.072.4-.218.525-.146.123-.35.184-.611.184-.236 0-.424-.063-.561-.188-.138-.125-.217-.301-.239-.525h.395c.028.234.176.352.442.352a.508.508 0 0 0 .295-.076l.11-.207c0-.162-.093-.262-.276-.299l-.482-.102a.549.549 0 0 1-.448-.552c0-.213.066-.379.199-.5.133-.123.315-.184.547-.184.249 0 .442.063.581.184s.206.293.205.516h-.38a.33.33 0 0 0-.123-.25.458.458 0 0 0-.3-.094c-.231 0-.347.094-.347.281 0 .121.078.199.235.236l.418.096c.189.043.325.104.406.178.103.095.152.238.152.425zM167.301 124.376h-.578v1.803h-.406v-1.803h-.599v-.373h1.583zM169.028 126.179h-1.478v-2.176h1.431v.373h-1.024v.496h.946v.373h-.946v.561h1.071zM171.248 126.179h-.407v-1.768l-.352 1.768h-.406l-.353-1.758v1.758h-.407v-2.176h.595l.368 1.666.37-1.666h.592zM173.12 125.538c0 .227-.072.4-.218.525-.146.123-.35.184-.611.184-.236 0-.424-.063-.561-.188-.138-.125-.217-.301-.239-.525h.395c.028.234.176.352.442.352a.508.508 0 0 0 .295-.076l.11-.207c0-.162-.093-.262-.276-.299l-.482-.102a.549.549 0 0 1-.448-.552c0-.213.066-.379.199-.5.133-.123.315-.184.547-.184.249 0 .442.063.581.184s.206.293.205.516h-.38a.33.33 0 0 0-.123-.25.458.458 0 0 0-.3-.094c-.231 0-.347.094-.347.281 0 .121.078.199.235.236l.418.096c.189.043.325.104.406.178.102.095.152.238.152.425zM177.429 120.37h-.213v.604h-.15v-.604h-.221v-.125h.584zM178.218 120.974h-.15v-.592l-.13.592h-.149l-.131-.59v.59h-.15v-.729h.22l.135.557.137-.557h.218z" fill="#7a7a62"/></svg>