<svg xmlns="http://www.w3.org/2000/svg" width="500" height="181.9744">
  <defs>
    <clipPath id="a">
      <path d="M0 792h612V0H0v792z"/>
    </clipPath>
    <clipPath id="b">
      <path d="M0 792h612V0H0v792z"/>
    </clipPath>
  </defs>
  <g clip-path="url(#a)" transform="matrix(0.60344717,0,0,-0.60344717,-28.735649,309.5862)">
    <path fill="#303d59" d="M570.5806 268.5715c-.897-18.048-16.502-27.826-32.795-34.667-25.978-10.913-44.631-16.614-72.538-19.666-64-7-105.334.666-170.334 7.666-16.86 1.816-60.316-2-83.217-5.333-30.764-4.478-58.726-3.925-89.783-4.667-33.792-.796-57.17 17.608-64.333 52.049-16.333 78.534-12.667 158.413 11.633 220.609 8.764 22.432 18.91 25.335 43.366 25.342l202.48 3.125h1.375c68.335 0 136.224-.898 204.567-.975 20.343-.031 33.236-8.549 38.322-24.193l.309-8.17.239-6.377.07-1.94.24-6.291.061-1.732.232-6.021.101-2.713.201-5.503.123-3.169.178-4.746.132-3.493c.061-58.782 12.269-110.377 9.371-169.135"/>
    <path fill="#f5e8d1" d="M480.75 282.56c-2.9-13.69-2.27-16.54-16.75-18.16-15.94-1.77-51.81-7.38-67.75-8.5-5.08-.35-36.12-5.38-43.84-4.58-5.75.6-2 7.83-10 12.83-3.92 2.46-14.89 1.86-22.41 2.25-4.78.25-8.28-.72-10.7-2.19-.41-.24-.79-.5-1.14-.76-2.02-1.57-3.06-3.47-3.32-5.04-.26-1.59-6.68-3.92-8.59-.01-1.83 3.75-6.04 7.75-11.67 7.67-22.47-.33-34.78.03-57.25-.08-5.96-.03-12.51 1.34-17.5-3.17-5.05-4.57-3.82-9.24-5.6-12.58-1.2-2.25-10.52-2.74-16.21-1.53-7.62 1.63-8.99 8.19-10.94 16.19-7.67 31.47-12.45 64.16-13.33 96.13-.17 5.84-.01 16.02-.01 21.87-.15 33.56 5.46 61.52 13.51 94.26 6 24.41 6.75 26.64 31.93 26.63 85.07 0 156.98-2.14 237.57-12.55 19.59-2.53 24.75-3.69 28-15.34 5.16-18.5 9.32-40.74 11.5-59.33 5.33-45.5 4.16-88.33-5.5-134.01"/>
    <path fill="#4f6185" d="M68.5333 306.7496c0 24.326 19.72 44.046 44.046 44.046s44.046-19.72 44.046-44.046-19.72-44.046-44.046-44.046-44.046 19.72-44.046 44.046m5.2884 141.196c0 24.326 19.72 44.046 44.046 44.046s44.046-19.72 44.046-44.046-19.72-44.046-44.046-44.046-44.046 19.72-44.046 44.046"/>
    <path fill="#93a9b5" d="M554.8449 313.4161c0-3.769.69-15.377-9.321-16.695-4.558-.601-17.129 13.541-17.345 16.896-.263 4.127 12.637 17.012 17.074 16.394 10.017-1.384 9.592-12.826 9.592-16.595m-26.1791-29.665c-1.637-9.45-11.527-9.291-17.004-9.291-5.478 0-15.369-.454-16.827 9.191-.631 4.176 12.251 17.545 17.561 17.545 5.768 0 16.976-13.369 16.27-17.445"/>
    <path fill="#354269" d="M88.8723 328.0583l-4.122 5.926s-.773 2.447 0 2.19l.773-.258s2.576-1.417 3.349-2.19c.773-.773 11.207-10.112 12.818-11.465 1.61-1.353 7.697-7.109 11.159-7.15 3.8-.044 6.715 2.641 8.776 4.058 2.061 1.417 19.033 14.686 19.033 14.686s1.933 1.159 2.834.386c.902-.773-.515-2.962-.515-2.962s-20.531-20.032-21.352-22.061c-.821-2.029-1.371-4.186.096-6.763 2.12-3.724 6.137-6.952 9.131-9.855 0 0 10.08-10.66 10.837-11.562.757-.902 1.546-2.576.515-3.349-1.03-.773-8.792 5.829-8.792 5.829s-13.145 10.306-14.975 11.594c-1.831 1.288-6.055 3.865-11.208.386-5.153-3.478-22.823-17.876-22.823-17.876s-1.975-.711-2.49 0c-.516.711 20.289 21.773 20.289 21.773s3.053 3.232 2.963 6.699c-.097 3.724-.064 4.122-3.027 7.343-2.963 3.22-13.269 14.621-13.269 14.621m5.4788 141.1959l-4.122 5.926s-.773 2.447 0 2.19l.773-.258s2.576-1.417 3.349-2.19c.773-.773 11.207-10.112 12.818-11.465 1.61-1.353 7.697-7.109 11.159-7.15 3.8-.044 6.715 2.641 8.776 4.058 2.061 1.417 19.033 14.686 19.033 14.686s1.933 1.159 2.834.386c.902-.772-.515-2.962-.515-2.962s-20.531-20.032-21.352-22.061c-.821-2.029-1.371-4.186.096-6.763 2.12-3.724 6.137-6.952 9.131-9.855 0 0 10.08-10.66 10.837-11.562.757-.902 1.546-2.576.515-3.349-1.03-.773-8.792 5.829-8.792 5.829s-13.145 10.306-14.975 11.594c-1.831 1.288-6.055 3.865-11.208.386-5.153-3.478-22.823-17.876-22.823-17.876s-1.975-.711-2.49 0c-.516.711 20.289 21.773 20.289 21.773s3.053 3.232 2.963 6.699c-.097 3.724-.064 4.122-3.027 7.343-2.963 3.22-13.269 14.621-13.269 14.621"/>
    <path fill="#f5e8d1" d="M237.257 247.2211H219.31c-3.387 0-6.157 2.771-6.157 6.157s2.77 6.157 6.157 6.157h17.947c3.386 0 6.157-2.771 6.157-6.157s-2.771-6.157-6.157-6.157m46.7973 0h-17.947c-3.387 0-6.157 2.771-6.157 6.157s2.77 6.157 6.157 6.157h17.947c3.386 0 6.157-2.771 6.157-6.157s-2.771-6.157-6.157-6.157"/>
    <path fill="#f36f40" d="M335.0543 247.2211h-17.947c-3.387 0-6.157 2.771-6.157 6.157s2.77 6.157 6.157 6.157h17.947c3.386 0 6.157-2.771 6.157-6.157s-2.771-6.157-6.157-6.157"/>
    <path fill="#93a9b5" d="M118.6972 320.1271s3.568 3.347 9.538 9.547c5.024 5.217 2.899 11.787-.766 13.707-3.381 1.771-4.259 2.211-13.243 2.235-10.197.027-11.904-.438-15.362-2.512-3.907-2.344-4.992-8.503-1.449-12.561l9.983-10.015c2.903-3.161 8.1-3.261 11.299-.401m-19.3681-7.5274s-3.347 3.568-9.547 9.538c-5.217 5.024-11.787 2.899-13.707-.766-1.771-3.381-2.211-4.259-2.235-13.243-.027-10.197.438-11.904 2.512-15.362 2.344-3.907 8.503-4.992 12.561-1.449l10.015 9.983c3.161 2.903 3.261 8.1.401 11.299m7.7851-19.8833s-3.568-3.347-9.538-9.547c-5.024-5.217-2.899-11.787.766-13.707 3.381-1.771 4.259-2.211 13.243-2.235 10.197-.027 11.904.438 15.362 2.512 3.907 2.344 4.992 8.503 1.449 12.561l-9.983 10.015c-2.903 3.161-8.1 3.261-11.299.401m19.3681 7.5274s3.347-3.568 9.547-9.538c5.217-5.024 11.787-2.899 13.707.766 1.771 3.381 2.211 4.259 2.235 13.243.027 10.197-.438 11.904-2.512 15.362-2.344 3.907-8.503 4.992-12.561 1.449l-10.015-9.983c-3.161-2.903-3.261-8.1-.401-11.299m-2.2153 161.248s3.568 3.347 9.538 9.547c5.024 5.217 2.899 11.787-.766 13.707-3.381 1.771-4.259 2.211-13.243 2.235-10.197.027-11.904-.438-15.362-2.512-3.907-2.344-4.992-8.503-1.449-12.561l9.983-10.015c2.903-3.161 8.1-3.261 11.299-.401m-19.3681-7.5275s-3.347 3.568-9.547 9.538c-5.217 5.024-11.787 2.899-13.707-.766-1.771-3.381-2.211-4.259-2.235-13.243-.027-10.197.438-11.904 2.512-15.362 2.344-3.907 8.503-4.992 12.561-1.449l10.015 9.983c3.161 2.903 3.261 8.1.401 11.299m7.7852-19.8833s-3.568-3.347-9.538-9.547c-5.024-5.217-2.899-11.787.766-13.707 3.381-1.771 4.259-2.211 13.243-2.235 10.197-.027 11.904.438 15.362 2.512 3.907 2.344 4.992 8.503 1.449 12.561l-9.983 10.015c-2.903 3.161-8.1 3.261-11.299.401m19.368 7.5275s3.347-3.568 9.547-9.538c5.217-5.024 11.787-2.899 13.707.766 1.771 3.381 2.211 4.259 2.235 13.243.027 10.197-.438 11.904-2.512 15.362-2.344 3.907-8.503 4.992-12.561 1.449l-10.015-9.983c-3.161-2.903-3.261-8.1-.401-11.299"/>
    <path fill="#cbcacb" d="M560.2276 474.9999l-36.629 2.381c-1.098 0-2.002.904-2.002 2.001 0 .549.224 1.052.587 1.407.364.363.866.588 1.415.588h36.389l.24-6.377zm.3091-8.2317c-.093-.046-.193-.077-.294-.077l-36.644 2.38c-1.098 0-2.002.905-2.002 2.002 0 .549.224 1.044.587 1.407.364.363.866.587 1.415.587h36.582c.039 0 .078 0 .116-.007l.24-6.292zm.2937-7.7525c-.185-.193-.379-.309-.587-.309l-36.645 2.38c-1.098 0-2.002.897-2.002 1.995 0 .548.224 1.051.588 1.414.363.363.865.587 1.414.587h36.583c.139 0 .286-.015.417-.046l.232-6.021zm.3015-8.2162c-.263-.441-.564-.727-.889-.727l-36.644 2.381c-1.098 0-2.002.904-2.002 2.002 0 .549.224 1.043.587 1.407.363.363.866.587 1.415.587h36.582c.263 0 .518-.054.75-.147l.201-5.503zm.3014-7.9148c-.325-.75-.734-1.314-1.19-1.314l-36.645 2.381c-1.097 0-2.002.904-2.002 2.002 0 .548.224 1.043.588 1.406.363.364.865.588 1.414.588h36.583c.394 0 .765-.116 1.074-.317l.178-4.746z"/>
    <path fill="#354876" d="M559.344 476.738h-7.472v3.221h7.472v-3.221zm0-8.47h-7.472v3.221h7.472v-3.221zm0-7.987h-7.472v3.221h7.472v-3.221zm0-8.631h-7.472v3.221h7.472v-3.221zm0-8.502h-7.472v3.221h7.472v-3.221z"/>
    <path fill="#2d3442" d="M522.9503 404.8408s9.275-16.489 20.611-26.28c11.337-9.79 14.686-19.838 14.686-29.371v-40.965s.258-30.724-25.249-39.935c-29.611-10.693-176.485-22.93-176.485-22.93s132.686 8.502 178.031 20.611c25.686 6.86 30.239 32.774 30.531 56.167.222 17.903-1.317 34.569-2.19 38.646-1.546 7.214-13.14 16.489-19.324 21.9-6.183 5.41-17.004 15.974-20.611 22.157"/>
    <path fill="#aa8958" d="M203.5902 495.5398c.942.615 1.517 1.869 2.832 1.835.475-.012.95-.001 1.484-.001-.65-2.877-1.276-5.647-1.908-8.445 1.466.544 1.43.585 1.897 2.135.466 1.546.854 3.11 1.218 4.683.157.682 1.303 1.631 1.953 1.622.782-.011 1.568.07 2.361-.057-.62-2.768-1.232-5.497-1.883-8.402 1.001.614 1.725 1.168 1.906 2.324.207 1.321.54 2.62.813 3.93.195.935 1.047 1.289 1.529 1.969.281.396.693.219 1.05.234.576.024 1.153.007 1.754.007-.634-2.7-1.255-5.297-1.849-7.9-.134-.583-.079-.483-.78-1.285l-.852-.778c-.551-.503-1.104-.822-1.887-.813-3.848.044-7.697.02-11.546.02 0 .219 1.867 8.895 1.908 8.922m113.7393-8.429h-3.762c.269 1.059.536 2.129.812 3.197.351 1.362.05 1.795-1.26 1.797-.308.001-.616 0-.987 0-.308-1.129-.6-2.269-.933-3.395-.372-1.262-1.168-1.896-2.378-1.862-.692.018-1.416-.181-2.087.149.289 1.492 1.691 5.96 1.869 6.645h5.683c.684 0 1.369-.032 2.05.008.783.046 1.371-.311 1.881-.886 0-.732-.603-4.454-.888-5.653m-59.9756 4.9754c-2.754.067-3.282-.16-3.451-1.44 2.03-.246 2.154-.197 3.451 1.44m3.112-.687c.869.87 1.817 1.321 2.679 1.913.377.259.789.346 1.247.339 1.614-.024 3.229-.023 4.844-.002.524.007.976-.104 1.432-.405.791-.52.99-1.135.469-1.926-.313-.474-.735-.831-1.285-.996-1.015-.302-2.01-.335-3.004.048.036.195.043.265.062.332.113.407.633.749.194 1.245-.218.247-1.14.17-1.543-.014-.926-.421-1.198-1.305-1.359-2.207-.173-.972-.554-1.873-.692-2.845h-3.853c.287 1.448.565 2.85.857 4.322-.514-.194-.751-.582-1.035-.868-1.175-1.181-2.553-1.487-4.102-1.314-.606.068-1.224.011-1.805.011-.174-.301-.135-.538-.05-.846h4.993c-.716-.859-1.46-1.58-2.59-1.571-1.511.011-3.023-.005-4.535.009-.294.002-.574-.013-.886.138-1.008.488-1.428.751-1.006 2.208.314 1.085.405 2.248 1.29 3.035.59.525 1.224.994 1.822 1.508.252.217.526.12.786.122 1.924.012 3.848.009 5.772.006 1.047-.002 1.269-.245 1.297-1.405.005-.219.001-.438.001-.837"/>
    <path fill="#aa8958" d="M266.4366 486.7109c.681.725 1.338 1.401 1.965 2.106.229.257.489.219.754.213 2.67-.065 5.344.137 8.012-.1.571-.05.813.274 1.043 1.419-1.173 0-2.33.082-3.472-.021-1.325-.119-2.222.699-2.121 2.278.113 1.767.887 3.071 2.195 4.062.231.175.517.281.85.279 2.74-.022 5.48-.013 8.393-.013-.602-.652-1.111-1.174-1.584-1.73-.251-.294-.547-.243-.848-.244-1.099-.003-2.199.006-3.299-.003-1.086-.009-1.514-.412-1.776-1.754 1.208 0 2.394-.013 3.578.004.8.012 1.465-.311 1.931-.966.466-.655.362-1.493.241-2.208-.235-1.379-.909-2.517-2.152-3.161-.298-.155-.601-.266-.959-.265-4.159.017-8.318.011-12.477.014-.056 0-.113.036-.274.09m25.0824 1.9277c.93.457 1.577 1.109 1.819 2.259.298 1.421.799 1.746 1.45 2.502.386.447.902.186 1.358.235.333.036.673.007 1.027.007-.146-1.583-.698-2.973-.853-4.454-.075-.719-2.2-1.949-2.59-2.397-.17-.195-.363-.171-.562-.171-3.673-.001-7.346.001-11.019.006-.062 0-.124.051-.232.098.239 1.555.605 3.097.916 4.642.184.909 1.096 1.435 1.72 2.093.36.381.845.137 1.272.176.371.034.748.007 1.247.007-.144-1.796-.711-3.444-1.041-5.101.15-.153.201-.018.279.008 1.463.479 1.589 1.832 1.789 3.122.163 1.049 1.141 1.969 2.149 1.971.652.001 1.305 0 1.957-.007.064-.001.127-.048.191-.074-.281-1.591-.96-5.001-.877-4.922m-45.3514 3.3403c-.604.193-1.015.125-1.419.12-.681-.009-1.488-.396-1.731-1.362-.18-.719-.495-1.645-.222-2.51 1.499-.144 2.378.08 2.949 1.555.228.591.423 1.445.423 2.197m5.555 4.076c-.561-.837-.964-1.571-1.489-2.189-.625-.736-.724-1.631-.911-2.522-.325-1.55-.681-3.093-1.044-4.726h-4.106c-1.167 0-2.335-.005-3.502.001-1.396.006-2.065.794-1.848 2.259.097.654.302 1.299.522 1.922.209.596.303.855.818 1.315.374.333 0 0 1.395 1.039.874.57.779.512 1.282.496.857-.029 1.716.005 2.574-.013.497-.011.861.066 1.226.608.852 1.264.548.833.852 1.264.17.24.347.551.716.548 1.118-.006 2.236-.002 3.515-.002m-30.3878-7.8659c2.219.001 2.99 1.582 2.939 3.854-2.097.359-3.394-.715-2.939-3.854m6.35 1.363c-.131-.575-.419-.999-.866-1.31-.696-.483-1.412-.932-2.098-1.43-.282-.205-.569-.194-.871-.194-1.65 0-3.304-.076-4.949.022-1.456.088-2.043.994-1.674 2.348.129.473.228.973.39 1.412.239.648.45 1.294 1.12 1.777 1.196.977.779.679 1.196.977.44.314.89.533 1.484.511 1.751-.065 3.505-.022 5.258-.023 1.32-.001 1.906-.799 1.512-2.156-.095-.329-.423-1.586-.502-1.934m76.2587 2.3939c-.92.255-1.688.363-2.355-.496-.301-.387-.601-.79-.829-1.207-.206-.375-.376-.895-.023-1.357.4-.524.947-.79 1.534-.938.386-.097.59.125.7.572.274 1.113.621 2.206.973 3.426m2.422-4.889c-2.683 0-5.388-.011-8.093.008-.687.004-1.437 1.021-1.511 1.879-.164 1.902.695 3.146 2.169 4.072.723.453 1.444.658 2.286.641 2.33-.044 4.662-.015 7.017-.015-.101-.622-1.421-5.136-1.868-6.585m-77.5039 5.9092c.191.523.371.683.842.681 2.44-.011 4.881.029 7.32-.023.952-.02 1.641-.587 1.608-1.706-.041-1.381-.489-2.644-.763-3.956-.057-.271-.005-.572-.173-.864h-3.457c.169 1.014.276 1.993.519 2.931.095.364.13.707.125 1.06-.009.679-.291.984-.916 1.012-.477.021-.955.004-1.461.004-.273-1.119-.513-2.211-.809-3.285-.353-1.278-1.286-1.981-2.541-1.983-1.791-.003-1.753-.012-1.359 1.834.131.615.771 3.491 1.065 4.295m26.9416-226.9935l-21.205 21.257.831.829 22.095-22.127-1.721.041zm-45.1226-2.3748l-22.66 22.715 1.016 1.013 22.66-22.715-1.016-1.013z"/>
    <path fill="#43426f" d="M309.3 264.21c-.41-.24-.79-.5-1.14-.76l-23.37 23.42.94.93 23.57-23.59z"/>
    <path fill="#aa8958" d="M194.895 282.9113c-.655.658-.754 1.576-.132 2.316l.72-.723c-.272-.331-.252-.644.055-.952.297-.299.684-.326.943-.069.146.145.222.342.194.536-.028.193-.054.249-.367.924-.318.68-.249 1.303.204 1.754.57.568 1.507.534 2.106-.068.6-.602.678-1.461.08-2.127l-.715.718c.223.263.218.541-.013.773-.227.228-.534.234-.748.021-.132-.131-.174-.314-.12-.533.021-.079.026-.095.252-.575.482-1.03.372-1.553-.115-2.038-.653-.651-1.674-.63-2.344.043m6.5131-.3703c-.715.718-1.785.74-2.482.046-.683-.679-.665-1.769.04-2.477.706-.709 1.751-.715 2.443-.026.692.689.689 1.764-.001 2.457m-3.08-3.077c-1.093 1.097-1.135 2.787-.097 3.821 1.052 1.048 2.722.999 3.831-.114 1.062-1.067 1.08-2.751.052-3.775-1.053-1.049-2.703-1.02-3.786.068m3.7148-3.7303c-.73.733-.786 1.725.13 2.638l2.281 2.271.69-.693-2.281-2.271c-.56-.558-.524-.955-.172-1.309.343-.344.74-.392 1.305.171l2.281 2.271.69-.693-2.281-2.271c-.921-.917-1.908-.852-2.643-.114m4.2771-4.1682l1.061 4.169-2.617-2.606-.69.693 3.601 3.586.786-.789-1.081-4.158 2.622 2.611.69-.693-3.601-3.587-.771.774zm6.013-.4042c-.109.324-.307.601-.745 1.041l-.136.136-2.325-2.315.151-.152c.413-.414.749-.654 1.068-.75.507-.159 1.099.017 1.533.449.463.461.631 1.062.454 1.591m-2.265-2.96c-.448.158-.839.443-1.403 1.009l-.866.87 3.601 3.587.851-.855c.585-.586.94-1.119 1.062-1.582.216-.822-.057-1.678-.739-2.358-.726-.723-1.658-.976-2.506-.671"/>
    <path fill="#a18b68" d="M460.5508 291.7463l-266.205-.592c-2.778 0-4.562.663-5.099 4.667-1.592 11.888-3.75 23.833-5.916 44.12-2.085 19.527-1.389 60.638 1.416 82.426 2.806 21.787 4.063 25.848 7.563 37.975 1.004 3.479 1.91 5.437 4.687 5.437h257.25c2.778 0 4.782-.875 6.558-4.625 1.776-3.75 5.919-24.887 7.692-41.75 1.774-16.862 3.823-41.746 3.75-60.75 0 0-.625-38.635-6.666-61.878-1.387-5.334-2.252-5.03-5.03-5.03"/>
    <path fill="#312f36" d="M452.7473 299.2381h-251.722c-.642 0-1.167.525-1.167 1.167v158.71c0 .641.525 1.166 1.167 1.166h251.722c.642 0 1.167-.525 1.167-1.166v-158.71c0-.642-.525-1.167-1.167-1.167"/>
    <path fill="#4692b7" d="M268.1572 472.0387c.054-.627-.244-1.02-.788-1.432-.984-.747-2.083-.689-3.205-.659-1.011.028-1.964.305-2.81.79-.509.293-.774.769-.795 1.386-.057 1.656.45 3.216.875 4.789.444 1.648.926 3.289 1.441 4.92.307.972.886 1.807 1.694 2.522.615.544 1.234.428 1.882.149.593-.256.976-.603.981-1.312.007-1.122-.442-2.124-.81-3.141-.759-2.098-1.402-4.224-2.012-6.359-.352-1.232.374-1.824 1.756-1.529.595.127 1.261.52 1.804-.136l-.013.012zm-18.2118-2.4431c-.086.225-.299.162-.477.174-1.759.118-3.325 1.368-3.53 3.199-.118 1.062-.026 2.085.206 3.112.399 1.77 1.78 2.683 3.488 3.264.573.195 1.17.384 1.807.365.733-.023.934-.23.695-.851-.319-.83-.724-1.631-1.042-2.461-.318-.832-.564-1.676-.593-2.579-.038-1.21.582-1.921 1.609-2.254 1.123-.364 2.481.098 3.159.996.385.511.466 1.08.606 1.67.177.745-.068 1.388-.194 2.075-.122.665-.515 1.072-1.182 1.321-.273.102-.619.159-.753.542 1.349.863 2.872 1.167 4.48.985.623-.07 1.227-.385 1.514-1.024.39-.865.626-1.728.337-2.666-.093-.299-.059-.63-.139-.934-.552-2.081-2.163-3.271-4.189-4.047-1.115-.428-2.285-.739-3.52-.727-.107.001-.157-.079-.194-.16h-2.088z"/>
    <path fill="#4692b7" d="M272.1531 469.5956c-.28.35-.702.112-1.049.211-1.16.328-2.068.933-2.675 1.907-.074.118-.079.289-.272.325l.013-.012c-.186.822-.236 1.654-.19 2.49.132 2.397 1.464 4.206 3.942 4.897.529.147 1.073.282 1.64.297.479.012.661-.184.689-.623.045-.685-.418-1.203-.679-1.765-.505-1.092-.77-2.227-1.014-3.372-.191-.896.585-2.004 1.564-2.287 1.883-.543 3.642.274 3.894 2.513.066.585.04 1.187-.104 1.8-.235.993-.79 1.591-1.836 1.846-.083.021-.148.099-.273.187.128.235.324.372.576.499 1.196.602 2.484.77 3.814.663.931-.074 1.943-.942 1.988-1.814.044-.882.089-1.768-.107-2.669-.385-1.774-1.638-2.859-3.198-3.727-1.354-.754-2.842-1.157-4.436-1.192-.159-.003-.316-.008-.389-.174h-1.898zm-34.2105.1413c-2.648.031-4.738.59-6.343 2.175-1.083 1.068-1.633 2.366-1.804 3.855-.186 1.614.153 3.056 1.192 4.327.872 1.066 1.991 1.907 3.282 2.538 1.538.753 3.137 1.367 4.849 1.688 1.569.295 3.139.393 4.747.137.726-.116 1.487-.141 2.233-.208.424-.039.695-.176.591-.587-.294-1.162-.307-2.366-.699-3.52-.161-.472-.388-.902-.623-1.329-.268-.488-1.009-.489-1.286-.006-.302.527-.559 1.083-.759 1.65-.107.305-.241.607-.424.85-.611.81-1.288 1.128-2.372.907-2.593-.529-4.03-2.164-5.128-4.156-.476-.861-.736-1.815-.644-2.821.13-1.411.892-2.734 2.454-3.107.596-.142 1.148-.061 1.744.05 1.361.254 2.536.757 3.451 1.733.484.516 1.199.559 1.844.724.312.079.518-.113.572-.433.182-1.077-.26-1.963-1.15-2.583-1.364-.95-3.984-2.051-5.727-1.884m55.948 4.3364c-.4.274-.451.578-.63.809-.582.75-1.3.996-2.27.752-1.729-.435-2.794-1.552-3.587-2.947-.276-.484-.523-.983-.809-1.462-.507-.845-1.891-1.296-2.776-.867-.343.167-.661.425-.664.879-.005.752.025 1.49.297 2.211.489 1.296.939 2.6 1.256 3.945.103.437.366.861.64 1.24.492.68 2.438.809 3.001.21.457-.486.348-1.084.265-1.656-.019-.132-.164-.249.028-.452 2.06 1.605 4.158 3.196 7.272 2.937-.186-2.043-1.18-3.755-2.023-5.599"/>
    <path fill="#aa8958" d="M241.7007 284.3368c.101-.399.343-.887.729-1.27.572-.568 1.197-.606 1.62-.18.391.394.383.848.016 1.648-.465.945-.548 1.735.042 2.329.652.657 1.695.59 2.537-.246.443-.44.665-.859.752-1.156l-.595-.291c-.067.215-.231.627-.623 1.016-.591.587-1.158.466-1.443.179-.391-.394-.321-.85.053-1.668.459-1.002.49-1.716-.124-2.335-.646-.651-1.7-.722-2.721.292-.417.414-.755.986-.837 1.366l.594.316zm7.1349-.95l-1.317 1.308.46.462 3.205-3.182-.46-.463-1.323 1.314-3.725-3.752-.565.561 3.725 3.752zm2.0227-5.9822l.781 1.634c.177.371.361.685.539.992l-.013.013c-.313-.186-.638-.372-.976-.546l-1.635-.798 1.304-1.295zm-1.842.984l-1.765-.879-.579.574 5.656 2.754.675-.669-2.708-5.682-.597.593.853 1.785-1.535 1.524zm4.699-2.8521l.572-.568c.597-.593 1.293-.65 1.771-.168.54.544.371 1.183-.214 1.776-.269.268-.487.434-.601.499l-1.528-1.539zm1.347 2.475c.339-.224.775-.595 1.16-.978.597-.593.877-1.082.911-1.587.032-.405-.131-.814-.454-1.139-.553-.556-1.279-.568-1.884-.266l-.018-.018c.222-.444.123-.942-.209-1.482-.442-.728-.743-1.237-.815-1.489l-.578.574c.048.189.311.648.711 1.294.449.709.435 1.158-.054 1.68l-.527.523-1.813-1.826-.559.555 4.129 4.159zm3.9345-4.7138l-1.317 1.308.46.463 3.205-3.183-.46-.463-1.323 1.314-3.725-3.752-.565.561 3.725 3.752z"/>
    <path fill="#43426f" d="M294.6429 286.8155c.085-.148.218-.31.394-.491.638-.656 1.338-.754 1.905-.203.543.528.422 1.176-.161 1.776-.231.238-.425.401-.54.471l-1.598-1.553zm1.453 2.47c.298-.221.669-.529 1.094-.967.522-.537.783-1.049.806-1.512.03-.421-.135-.849-.501-1.205-.372-.361-.774-.533-1.194-.528-.578-.003-1.186.317-1.702.848-.158.163-.298.319-.389.473l-1.646-1.6-.529.543 4.061 3.948zm1.5244-5.631c-.878-.853-1.191-2.105-.359-2.961.838-.862 2.086-.597 3.019.31.817.794 1.246 2.061.365 2.967-.874.9-2.122.561-3.025-.316m3.243-3.203c-1.414-1.375-3.021-1.222-4.065-.148-1.081 1.112-.999 2.711.245 3.92 1.305 1.269 2.966 1.268 4.059.143 1.118-1.15.981-2.729-.239-3.915m-.7406-3.4343l3.071 5.064.559-.575-1.594-2.521c-.39-.623-.793-1.234-1.117-1.694l.012-.012c.476.328 1.091.671 1.761 1.043l2.62 1.453.553-.569-1.587-2.539c-.373-.593-.751-1.18-1.123-1.663l.012-.013c.536.351 1.109.678 1.748 1.044l2.614 1.459.541-.556-5.27-2.801-.553.568 1.624 2.612c.397.641.714 1.119 1.074 1.579l-.012.012c-.481-.322-.975-.62-1.657-.979l-2.723-1.481-.553.569zm8.5193-4.9092l-1.591 1.637-1.482-1.44 1.773-1.825-.445-.433-2.302 2.369 4.11 3.994 2.211-2.274-.445-.432-1.682 1.73-1.299-1.262 1.591-1.637-.439-.427zm1.6544-1.19l.541-.556c.564-.581 1.234-.647 1.703-.191.531.516.38 1.135-.173 1.715-.255.263-.461.426-.571.49l-1.5-1.458zm1.344 2.363c.322-.221.735-.585 1.099-.96.565-.581.826-1.057.849-1.544.024-.391-.141-.782-.458-1.09-.543-.528-1.243-.528-1.821-.226l-.018-.018c.206-.432.102-.91-.228-1.425-.44-.694-.739-1.18-.812-1.421l-.547.562c.049.182.312.619.709 1.236.445.676.44 1.108-.021 1.62l-.498.512-1.781-1.731-.528.544 4.055 3.941z"/>
    <path fill="#373535" d="M544.447 314.1029l-.589 2.864-1.537-2.864h2.126zm2.683-4.013h-1.88l-.529 2.584h-3.158l-1.399-2.584h-1.784l5.065 9.031h1.6l2.085-9.031zm-35.8964-26.2942h1.777c1.153 0 1.786.396 1.897 1.189.029.206.024.383-.014.534-.038.15-.123.274-.255.372-.132.098-.316.171-.551.219-.234.048-.534.072-.899.072h-1.62l-.335-2.386zm.551 3.917h1.613c.524 0 .921.079 1.192.236.27.157.431.42.483.789.023.164.015.308-.025.431s-.118.226-.237.308c-.118.082-.278.142-.48.181-.202.038-.456.058-.761.058h-1.504l-.281-2.003zm4.853-2.728c-.127-.902-.511-1.585-1.153-2.047-.642-.462-1.536-.694-2.685-.694h-3.466l1.268 9.024h3.302c.483 0 .914-.056 1.293-.168.378-.112.692-.272.94-.482.249-.209.428-.465.539-.765.11-.301.139-.64.085-1.019-.053-.383-.171-.715-.352-.998-.181-.283-.435-.533-.762-.752.204-.105.375-.231.514-.379s.249-.314.331-.496c.081-.182.134-.377.157-.584.023-.208.019-.421-.011-.64M122.0081 476.3475l-5.332-1.007-2.3-2.299-1.023 1.023 2.299 2.3 1.003 5.336 1.235-1.235-.767-3.658 3.65.775 1.235-1.235zm-2.3492-8.5889l-.982.982 3.891 3.89c-.395.185-.85.535-1.364 1.049l.825.824c.806-.806 1.572-.964 2.295-.472l.804-.804-5.469-5.469zm-25.4922-16.9463l-5.332-1.007-2.3-2.299-1.023 1.023 2.299 2.3 1.003 5.336 1.235-1.235-.767-3.658 3.65.775 1.235-1.235zm-.9074-5.8543l1.699 1.699-2.776-.622 1.077-1.077zm.771-2.544l-.68.68-1.201-1.202-.978.978 1.201 1.201-2.15 2.151.775.774 5.896 1.173.766-.767-3.422-3.422.679-.679-.886-.887zm26.4635-18.0131l-5.332-1.007-2.3-2.299-1.023 1.023 2.299 2.3 1.003 5.336 1.235-1.235-.767-3.658 3.65.775 1.235-1.235zm2.4196-5.1624c-.097-.097-.206-.185-.327-.265-.122-.08-.251-.147-.388-.201-.136-.054-.278-.092-.424-.114-.147-.022-.293-.024-.44-.004.058-.185.085-.374.081-.566-.004-.192-.035-.38-.093-.565-.058-.185-.139-.364-.244-.535-.105-.171-.23-.328-.373-.472-.254-.254-.535-.441-.841-.559-.307-.119-.618-.173-.933-.162-.315.011-.626.086-.934.226-.308.139-.59.337-.847.594-.26.26-.456.539-.589.837-.132.299-.203.602-.211.912-.008.309.048.618.168.926.12.308.304.6.553.876l1.015-1.015c-.124-.124-.224-.259-.3-.404-.076-.145-.122-.293-.137-.443-.015-.151.003-.3.054-.448.051-.148.141-.286.271-.416.125-.124.26-.216.406-.274.147-.058.295-.083.446-.076.15.007.299.045.447.116.148.07.287.17.417.3.132.133.234.274.304.425.071.15.106.304.106.462 0 .157-.035.315-.106.474-.07.159-.181.314-.333.466l-.415.415.825.824.315-.315c.259-.259.522-.385.787-.377.265.008.515.13.75.365.207.207.31.418.308.632-.001.214-.101.42-.3.619-.411.412-.911.381-1.5-.091l-1.002 1.003c.295.234.592.404.89.509.299.105.591.151.877.139.286-.012.56-.081.822-.205.262-.124.504-.297.725-.518.249-.249.437-.509.566-.781.128-.272.199-.544.211-.816.012-.272-.032-.536-.133-.792-.1-.255-.259-.491-.474-.706m-11.2907-88.3775l-1.251 1.251.621 3.489-3.488-.622-1.264 1.264 4.972.779.7 4.487 1.247-1.247-.53-3.008 3.016.522 1.247-1.247-4.491-.696-.779-4.972zm3.1199-3.1198l-.982.982 3.891 3.89c-.395.185-.85.535-1.364 1.049l.825.824c.806-.806 1.572-.964 2.295-.472l.804-.804-5.469-5.469zm24.1463-25.2543l-1.251 1.251.621 3.489-3.488-.622-1.264 1.264 4.972.779.7 4.487 1.247-1.247-.53-3.008 3.016.522 1.247-1.247-4.491-.696-.779-4.972zm4.0562-4.0562l-3.663 3.663c.473.472.955.758 1.446.857.266.05.582.079.949.087.368.009.792-.012 1.272-.062.426-.044.794-.072 1.104-.085.311-.012.581-.002.81.031.23.033.429.092.599.176.17.085.328.2.474.346.232.232.348.477.348.734s-.121.506-.364.75c-.1.099-.215.174-.346.225-.131.051-.272.072-.423.062-.15-.009-.308-.049-.472-.12-.164-.07-.331-.178-.499-.325l-1.003 1.003c.29.246.592.431.905.557.314.126.625.187.935.184.309-.002.612-.068.909-.196.297-.129.574-.322.831-.578.276-.277.482-.563.619-.86.137-.297.208-.589.214-.876.005-.288-.049-.565-.162-.833s-.282-.514-.506-.738c-.207-.207-.425-.37-.654-.489-.229-.118-.478-.201-.746-.248-.249-.039-.584-.062-1.007-.071-.422-.008-.91.013-1.462.063-.163.013-.377.026-.64.039-.264.012-.555-.008-.873-.06l2.321-2.32-.916-.916zM111.6227 274.63l-1.251 1.251.621 3.489-3.488-.622-1.264 1.264 4.972.779.7 4.487 1.247-1.247-.53-3.008 3.016.522 1.247-1.247-4.491-.696-.779-4.972zm7.8887.3066c-.097-.097-.206-.185-.327-.265-.122-.08-.251-.147-.388-.201-.136-.054-.278-.092-.424-.114-.147-.022-.293-.024-.44-.004.058-.185.085-.374.081-.566-.004-.192-.035-.38-.093-.565-.058-.185-.139-.363-.244-.535-.105-.171-.23-.328-.373-.472-.254-.254-.535-.441-.841-.559-.307-.119-.618-.173-.933-.162-.315.011-.626.086-.934.226-.308.139-.59.337-.847.594-.26.26-.456.539-.589.837-.132.299-.203.602-.211.912-.008.309.048.618.168.926.12.308.304.6.553.876l1.015-1.015c-.124-.124-.224-.259-.3-.404-.076-.145-.122-.293-.137-.443-.015-.151.003-.3.054-.448.051-.148.141-.286.271-.416.125-.124.26-.216.406-.274.147-.058.295-.083.446-.076.15.007.299.045.447.116.148.07.287.17.417.3.132.133.234.274.304.425.071.15.106.304.106.462 0 .157-.035.315-.106.474-.07.159-.182.314-.333.466l-.415.415.825.824.315-.315c.259-.259.522-.385.787-.377.265.008.515.13.75.365.207.207.31.418.308.632-.001.214-.101.42-.3.619-.412.412-.911.381-1.5-.091l-1.002 1.003c.295.234.592.404.89.509.299.105.591.151.877.139.286-.012.56-.081.822-.205.262-.124.504-.297.725-.518.249-.249.437-.509.566-.781.128-.272.199-.544.211-.816.012-.272-.032-.536-.133-.792-.1-.255-.259-.491-.474-.706m-35.9156 29.4108l-1.251 1.251.621 3.489-3.488-.622-1.264 1.264 4.972.779.7 4.487 1.247-1.247-.53-3.008 3.016.522 1.247-1.247-4.491-.696-.779-4.972zm4.5616-.3853l1.699 1.699-2.776-.622 1.077-1.077zm.771-2.544l-.68.68-1.201-1.202-.978.978 1.201 1.201-2.15 2.151.775.774 5.896 1.173.766-.767-3.422-3.422.679-.679-.886-.887zm59.0897 148.837l-5.332-1.007-2.3-2.299-1.023 1.023 2.299 2.3 1.003 5.336 1.235-1.235-.767-3.658 3.65.775 1.235-1.235zm-1.4128-9.5253l-3.663 3.663c.473.472.955.758 1.446.857.266.05.582.079.949.087.368.009.792-.012 1.272-.062.426-.044.794-.072 1.104-.085.311-.012.581-.002.81.031.23.033.429.092.599.176.17.085.328.2.474.346.232.232.348.477.348.734s-.121.506-.364.75c-.1.099-.215.174-.346.225-.131.051-.272.072-.423.063-.15-.01-.308-.05-.472-.121-.164-.07-.331-.178-.499-.325l-1.003 1.003c.29.246.592.431.905.557.314.126.625.187.935.184.309-.002.612-.068.909-.196.297-.129.574-.322.831-.578.276-.277.482-.563.619-.86.137-.297.208-.589.214-.876.005-.288-.049-.565-.162-.833s-.282-.514-.506-.738c-.207-.207-.425-.37-.654-.489-.229-.118-.478-.201-.746-.248-.249-.039-.584-.062-1.007-.071-.422-.008-.91.013-1.462.063-.163.013-.377.027-.64.039-.264.012-.555-.008-.873-.06l2.321-2.32-.916-.916z"/>
  </g>
  <g clip-path="url(#b)" transform="matrix(0.60344717,0,0,-0.60344717,227.29683,197.98687)">
    <path fill="#d4d4d4" d="M442.8982 81.9012c0-3.203-2.649-5.851-5.851-5.851h-241.54c-3.264 0-5.851 2.648-5.851 5.851v83.511c0 3.202 2.587 5.85 5.851 5.85h241.54c3.202 0 5.851-2.648 5.851-5.85v-83.511zm-178.23 108.083h105.497c3.879 0 7.082-3.14 7.082-7.02 0-3.88-3.203-7.083-7.082-7.083h-105.497c-3.88 0-7.021 3.203-7.021 7.083 0 3.88 3.141 7.02 7.021 7.02m180.262 4.866h-256.567c-3.819 0-6.96-3.079-6.96-6.898V75.5582c0-2.71 1.54-5.05 3.819-6.159.924-.554 2.032-.8 3.141-.8h256.567c3.141 0 5.789 2.093 6.651 4.926.185.616.308 1.355.308 2.033v112.394c0 3.819-3.079 6.898-6.959 6.898"/>
    <path fill="#d4d4d4" d="M442.898 30.107H194.029V63.24h248.869V30.107zm4.188 8.253v16.012h4.557l-.061 19.154c-.863-2.834-3.511-4.927-6.652-4.927H188.363c-1.109 0-2.217.246-3.141.8V54.372h4.557V38.36s-6.158-1.047-4.557-6.036c1.601-5.05 4.557-5.789 4.557-5.789h257.307s2.956.739 4.557 5.789c1.602 4.989-4.557 6.036-4.557 6.036"/>
    <path fill="#f4f4f5" d="M442.8982 165.4119v-83.511c0-3.202-2.649-5.85-5.851-5.85h-241.54c-3.264 0-5.851 2.648-5.851 5.85v83.511c0 3.203 2.587 5.851 5.851 5.851h241.54c3.202 0 5.851-2.648 5.851-5.851"/>
    <path fill="#bababa" d="M377.2472 182.9641c0-3.88-3.203-7.083-7.082-7.083h-105.497c-3.88 0-7.021 3.203-7.021 7.083 0 3.88 3.141 7.021 7.021 7.021h105.497c3.879 0 7.082-3.141 7.082-7.021"/>
    <path fill="#969b9b" d="M442.898 54.495H194.029v8.745h248.869v-8.745z"/>
    <path fill="#4e4f4f" d="M291.52 30.107h4.249v24.388h-4.249V30.107zm142.14 0h4.249v24.388h-4.249V30.107zm-7.945 0h4.003v24.388h-4.003V30.107zm-8.19 0h3.941v24.388h-3.941V30.107zm-8.007 0h4.249v24.388h-4.249V30.107zm-7.944 0h4.003v24.388h-4.003V30.107zm-8.191 0h4.003v24.388h-4.003V30.107zm-8.622 0h4.249v24.388h-4.249V30.107zm-7.945 0h4.003v24.388h-4.003V30.107zm-8.191 0h3.941v24.388h-3.941V30.107zm-7.944 0h4.188v24.388h-4.188V30.107zm-7.945 0h3.942v24.388h-3.942V30.107zm-8.253 0h4.003v24.388h-4.003V30.107zm-8.437 0h4.188v24.388h-4.188V30.107zm-7.944 0h3.942v24.388h-3.942V30.107zm-8.253 0h4.003v24.388h-4.003V30.107zm-7.945 0h4.249v24.388h-4.249V30.107zm-7.944 0h3.941v24.388h-3.941V30.107zm-20.693 0h4.003v24.388h-4.003V30.107zm-8.191 0h4.249v24.388h-4.249V30.107zm-15.889 0h3.942v24.388h-3.942V30.107zm-8.253 0h4.249v24.388h-4.249V30.107zm-8.191 0h4.249v24.388h-4.249V30.107zm-8.191 0h3.942v24.388h-3.942V30.107zm-8.191 0h4.188v24.388h-4.188V30.107zm-7.76 0h3.757v24.388h-3.757V30.107zm-8.19 0h4.003v24.388h-4.003V30.107zm-8.191 0h4.249v24.388h-4.249V30.107zm-4.004 0h-4.188v24.388h4.188V30.107z"/>
    <path fill="#485551" d="M295.769 30.107h3.942v24.388h-3.942V30.107zm-32.641 0h4.249v24.388h-4.249V30.107zm174.782 0h4.988v24.388h-4.988V30.107zm-8.191 0h3.942v24.388h-3.942V30.107zm-8.253 0h4.249v24.388h-4.249V30.107zm-7.698 0h3.757v24.388h-3.757V30.107zm-8.191 0h3.941v24.388h-3.941V30.107zm-8.191 0h4.188v24.388h-4.188V30.107zm-8.376 0h4.372v24.388h-4.372V30.107zm-8.191 0h3.942v24.388h-3.942V30.107zm-8.252 0h4.249v24.388h-4.249V30.107zm-7.699 0h3.757v24.388h-3.757V30.107zm-8.19 0h4.003v24.388h-4.003V30.107zm-8.191 0h4.249v24.388h-4.249V30.107zm-8.253 0h4.249v24.388h-4.249V30.107zm-8.191 0h4.003v24.388h-4.003V30.107zm-8.191 0h4.249v24.388h-4.249V30.107zm-7.698 0h3.695v24.388h-3.695V30.107zm-8.253 0h4.003v24.388h-4.003V30.107zm-8.19 0h4.249v24.388h-4.249V30.107zm-12.441 0h4.249v24.388h-4.249V30.107zm-7.944 0h3.941v24.388h-3.941V30.107zm-8.191 0h3.942v24.388h-3.942V30.107zm-3.757 0h3.757v24.388h-3.757V30.107zm-12.194 0h4.003v24.388h-4.003V30.107zm-8.191 0h3.941v24.388h-3.941V30.107zm-8.499 0h4.249v24.388h-4.249V30.107zm-7.945 0h4.003v24.388h-4.003V30.107zm-8.191 0h4.003v24.388h-4.003V30.107zm-7.944 0h4.188v24.388h-4.188V30.107zm-7.945 0h3.942v24.388h-3.942V30.107zm-4.249 0h-4.003v24.388h4.003V30.107z"/>
    <path fill="#eb3f3f" d="M230.3743 146.6943c.386.636.473 1.3.534 1.962.05.54-.065 1.07-.181 1.597-.397 1.806-1.304 3.337-2.55 4.675-.432.465-.884.913-1.385 1.314-.681.547-1.399 1.032-2.163 1.445-.965.522-1.992.899-3.068 1.109-.615.12-1.252.214-1.874.19-.555-.021-1.12-.105-1.67-.255-1.374-.377-2.414-1.18-3.05-2.444-.549-1.091-.611-2.28-.373-3.459.212-1.045.617-2.039 1.187-2.943.716-1.135 1.556-2.166 2.614-3.02.68-.549 1.382-1.055 2.143-1.476 1.703-.941 3.512-1.493 5.479-1.399.54.026 1.071.126 1.572.349-.159.024-.315.029-.47.023-.925-.035-1.781.227-2.601.621-1.382.665-2.466 1.677-3.236 2.986-.592 1.007-.902 2.113-.595 3.298.164.637.502 1.155 1.053 1.556.886.646 1.896.633 2.882.525.805-.088 1.58-.401 2.294-.822 1.035-.61 1.925-1.38 2.572-2.396.62-.974 1.041-2.019.865-3.216-.008-.053.01-.111.021-.22m-9.693 19.448c.275-.208.616-.121.916-.167 1.589-.244 3.102-.721 4.574-1.346 1.473-.625 2.882-1.381 4.21-2.265.902-.6 1.776-1.249 2.597-1.969.464-.405.894-.848 1.375-1.238.465-.378.836-.873 1.236-1.325.547-.615 1.05-1.273 1.51-1.96.912-1.362 1.603-2.828 1.954-4.432.099-.454.208-.932.066-1.518-.064.556-.102 1.014-.254 1.444-.276.78-.695 1.485-1.189 2.146-.455.608-.944 1.189-1.511 1.695-.753.672-1.55 1.282-2.431 1.791-.862.499-1.773.859-2.726 1.112-.777.205-1.574.305-2.391.224 0-.137.112-.196.208-.261.65-.438 1.246-.942 1.83-1.466.437-.392.844-.803 1.238-1.239.72-.8 1.36-1.655 1.93-2.564.763-1.219 1.303-2.539 1.637-3.934.274-1.147.331-2.31.159-3.488-.183-1.258-.625-2.413-1.334-3.45-.684-1-1.585-1.773-2.653-2.376-1.071-.605-2.209-.999-3.394-1.263-.519-.116-1.052-.187-1.589-.236-.768-.072-1.535-.148-2.305-.167-.926-.023-1.836.126-2.752.259-.926.133-1.813.386-2.691.676-1.722.571-3.339 1.368-4.898 2.297-1.011.602-1.975 1.269-2.896 1.991-1.063.833-2.061 1.754-2.959 2.765-1.178 1.326-2.248 2.737-2.982 4.371-.387.861-.688 1.744-.835 2.685-.061.389-.065.763-.044 1.149.076-.379.14-.758.222-1.134.172-.795.602-1.456 1.028-2.117.384-.595.881-1.107 1.357-1.626.425-.462.926-.862 1.428-1.243.667-.504 1.376-.959 2.14-1.301 1.072-.48 2.176-.878 3.375-.889.233-.002.439-.147.683-.101.119.022.247-.002.314.145-1.253.83-2.365 1.834-3.371 2.945-.81.894-1.491 1.889-2.11 2.93-.739 1.244-1.175 2.594-1.504 3.984-.154.649-.119 1.323-.127 1.99-.022 1.749.562 3.312 1.559 4.697.891 1.238 2.123 2.086 3.545 2.673.834.344 1.69.597 2.56.79.547.121 1.113.22 1.685.226.109.001.255-.076.325.09h3.285z"/>
    <path fill="#393738" d="M196.6893 135.4315c.43.264.694.803 1.294.788.217-.005.435-.001.679-.001-.297-1.235-.583-2.425-.872-3.626.67.233.653.251.867.917.213.664.39 1.335.556 2.011.072.293.596.701.893.697.358-.005.717.03 1.079-.025-.283-1.189-.563-2.361-.86-3.609.457.264.788.502.871.999.095.567.246 1.125.371 1.688.09.401.479.553.699.845.129.17.317.094.48.101.264.01.527.002.802.002-.29-1.159-.574-2.274-.845-3.392-.061-.251-.036-.208-.357-.552l-.389-.334c-.252-.216-.505-.353-.863-.35-1.759.019-3.518.009-5.277.009 0 .094.853 3.821.872 3.832m51.9881-3.6202h-1.719c.122.455.245.914.371 1.373.16.585.022.771-.576.772h-.451c-.141-.485-.275-.975-.427-1.458-.17-.542-.534-.814-1.087-.8-.316.008-.647-.078-.954.064.132.641.773 2.56.855 2.854h2.597c.313 0 .626-.014.937.004.358.019.627-.134.86-.381 0-.314-.276-1.913-.406-2.428m-27.4137 2.1369c-1.259.029-1.5-.069-1.577-.618.927-.106.984-.085 1.577.618m1.422-.295c.398.374.831.567 1.225.821.172.112.361.149.57.146.738-.01 1.476-.01 2.214-.001.24.003.446-.045.655-.174.361-.223.452-.487.214-.827-.143-.203-.336-.357-.587-.427-.464-.131-.919-.145-1.373.02.016.084.019.114.028.142.052.175.289.322.089.535-.1.106-.522.073-.706-.006-.423-.181-.547-.56-.621-.948-.079-.417-.253-.804-.316-1.222h-1.761c.131.622.258 1.224.391 1.857-.234-.084-.343-.25-.473-.373-.537-.507-1.167-.639-1.875-.564-.277.029-.559.004-.824.004-.08-.129-.062-.231-.023-.363h2.282c-.328-.369-.668-.678-1.184-.675-.691.005-1.382-.002-2.073.004-.134.001-.262-.006-.405.059-.461.21-.653.323-.46.949.144.466.185.965.59 1.303.27.226.559.427.833.648.115.093.24.052.359.052.879.006 1.759.004 2.638.003.479-.001.58-.105.593-.604.002-.094 0-.188 0-.359"/>
    <path fill="#393738" d="M225.4153 131.6395c.311.312.611.602.898.904.105.111.224.095.345.092 1.22-.028 2.442.059 3.662-.043.261-.022.372.118.477.61-.537 0-1.065.035-1.587-.009-.606-.052-1.016.3-.97.978.052.759.406 1.319 1.004 1.745.105.075.236.12.388.119 1.252-.009 2.505-.005 3.836-.005-.275-.28-.507-.504-.724-.743-.114-.126-.25-.105-.387-.105-.503-.001-1.006.003-1.508-.001-.497-.004-.692-.177-.812-.754.552 0 1.094-.005 1.636.002.365.005.669-.134.882-.415.213-.281.166-.641.11-.948-.107-.592-.415-1.081-.983-1.358-.137-.066-.275-.114-.439-.113-1.901.007-3.802.004-5.703.006-.025 0-.051.015-.125.038m11.4646.828c.425.196.721.476.831.97.137.611.366.75.663 1.075.177.192.412.08.621.101.152.015.307.003.469.003-.066-.68-.319-1.277-.39-1.913-.034-.309-1.005-.837-1.183-1.03-.078-.083-.166-.073-.257-.073-1.679-.001-3.358 0-5.037.003-.028 0-.057.021-.106.042.109.667.276 1.329.419 1.993.084.391.501.617.786.899.165.164.386.059.581.076.17.014.342.003.571.003-.067-.772-.326-1.479-.477-2.191.069-.066.093-.008.128.003.669.206.726.787.818 1.341.074.451.521.846.982.847.298 0 .596 0 .894-.003.03-.001.059-.021.088-.032-.129-.683-.439-2.148-.401-2.114m-20.7292 1.4346c-.276.083-.464.054-.649.051-.311-.003-.68-.17-.791-.584-.082-.309-.226-.707-.101-1.079.685-.061 1.087.035 1.347.668.105.254.194.621.194.944m2.539 1.751c-.256-.36-.441-.675-.68-.941-.286-.316-.331-.7-.417-1.083-.149-.666-.311-1.328-.477-2.03h-1.877c-.533 0-1.067-.002-1.6.001-.638.003-.945.341-.845.97.044.281.138.558.238.826.096.255.139.367.374.564.171.144 0 0 .638.447.399.245.356.22.586.213.392-.013.784.002 1.176-.006.228-.005.394.028.561.261.389.543.25.358.389.543.078.103.159.237.328.236.51-.003 1.021-.001 1.606-.001m-13.8896-3.3788c1.014 0 1.367.679 1.343 1.655-.958.155-1.551-.307-1.343-1.655m2.902.586c-.059-.248-.191-.43-.395-.563-.318-.208-.646-.401-.959-.615-.129-.087-.26-.083-.398-.083-.755 0-1.511-.033-2.262.01-.666.037-.934.427-.766 1.008.059.203.105.418.178.607.11.278.206.555.512.763.547.419.356.291.547.419.201.135.407.229.678.22.801-.028 1.603-.01 2.404-.01.603-.001.871-.343.691-.926-.044-.141-.194-.681-.23-.83m34.8569 1.0276c-.421.109-.771.156-1.077-.213-.137-.166-.274-.339-.379-.518-.093-.162-.171-.385-.01-.583.183-.225.433-.34.701-.403.177-.042.27.054.32.246.126.478.284.947.445 1.471m1.107-2.1c-1.226 0-2.463-.005-3.699.003-.314.002-.657.439-.691.808-.075.817.318 1.351.992 1.748.33.195.66.283 1.045.276 1.065-.019 2.13-.007 3.207-.007-.046-.267-.65-2.205-.854-2.828m-35.4256 2.5382c.087.225.17.293.385.292 1.115-.004 2.231.013 3.346-.009.435-.009.75-.253.735-.733-.019-.593-.224-1.136-.349-1.699-.026-.117-.002-.246-.079-.371h-1.58c.077.435.126.856.237 1.259.043.156.059.303.057.455-.004.292-.133.423-.418.434-.219.009-.437.002-.668.002-.125-.48-.235-.949-.37-1.411-.161-.549-.588-.85-1.162-.851-.818-.002-.801-.006-.621.787.06.264.353 1.5.487 1.845"/>
    <path fill="#efac50" d="M215.1564 120.8331c-.05.143-.174.102-.277.11-1.023.075-1.933.866-2.052 2.025-.069.672-.015 1.319.119 1.969.232 1.121 1.035 1.698 2.028 2.066.333.123.68.243 1.05.231.427-.014.543-.146.405-.539-.186-.525-.422-1.032-.606-1.557-.185-.527-.328-1.061-.345-1.632-.022-.766.339-1.216.936-1.427.652-.23 1.442.062 1.836.63.224.324.271.684.352 1.057.103.472-.04.879-.113 1.314-.071.42-.299.678-.687.836-.159.064-.359.1-.437.343.784.546 1.669.738 2.604.623.362-.044.713-.244.88-.648.227-.547.364-1.094.196-1.687-.054-.189-.034-.399-.081-.591-.321-1.318-1.257-2.07-2.435-2.562-.648-.27-1.328-.468-2.047-.46-.062.001-.09-.05-.112-.101h-1.214z"/>
    <path fill="#7b9ac8" d="M228.0667 120.8331c-.163.221-.408.071-.61.133-.674.208-1.202.591-1.555 1.207-.043.075-.046.184-.158.206l.008-.008c-.109.521-.138 1.048-.111 1.576.077 1.518.851 2.662 2.291 3.099.308.094.625.179.954.189.279.007.384-.117.401-.395.026-.433-.243-.761-.395-1.117-.294-.691-.447-1.409-.589-2.134-.112-.567.339-1.268.909-1.447 1.094-.344 2.117.173 2.263 1.59.039.371.024.751-.06 1.14-.136.628-.459 1.007-1.067 1.168-.048.013-.087.063-.159.118.075.149.188.235.335.316.695.381 1.444.487 2.217.42.541-.048 1.13-.597 1.155-1.149.026-.558.053-1.118-.061-1.689-.224-1.122-.953-1.809-1.86-2.359-.787-.477-1.652-.732-2.578-.754-.093-.002-.184-.005-.227-.11h-1.103z"/>
    <path fill="#00a9e6" d="M208.1787 120.9225c-1.539.019-2.755.373-3.688 1.376-.629.677-.949 1.498-1.048 2.441-.108 1.021.089 1.933.693 2.738.507.674 1.158 1.207 1.908 1.606.894.476 1.823.865 2.819 1.069.912.186 1.825.248 2.759.086.422-.073.865-.089 1.298-.132.247-.024.405-.111.344-.371-.171-.735-.178-1.498-.407-2.228-.093-.299-.225-.571-.362-.841-.156-.309-.586-.309-.747-.004-.176.334-.325.686-.441 1.044-.063.193-.141.385-.247.539-.355.512-.749.713-1.379.573-1.507-.334-2.342-1.369-2.981-2.629-.277-.546-.428-1.149-.374-1.786.075-.893.518-1.73 1.426-1.966.347-.09.668-.039 1.014.031.791.161 1.475.479 2.006 1.097.282.327.698.354 1.072.458.182.05.302-.072.333-.274.106-.681-.151-1.242-.669-1.635-.792-.601-2.315-1.298-3.329-1.192"/>
    <path fill="#e56565" d="M225.7438 122.3794c.032-.397-.142-.645-.458-.907-.572-.472-1.211-.436-1.863-.416-.588.017-1.142.192-1.634.5-.296.185-.45.486-.462.877-.033 1.048.262 2.035.508 3.031.259 1.043.539 2.081.838 3.113.179.615.516 1.144.985 1.596.358.345.718.272 1.094.095.345-.162.568-.382.57-.83.005-.711-.256-1.345-.47-1.988-.441-1.328-.815-2.673-1.17-4.025-.205-.78.217-1.154 1.021-.968.345.081.733.329 1.049-.086l-.008.008z"/>
    <path fill="#d78fac" d="M240.7037 123.667c-.233.174-.262.366-.366.512-.339.475-.756.631-1.32.476-1.005-.276-1.624-.982-2.085-1.865-.16-.307-.304-.622-.471-.925-.294-.535-1.099-.821-1.613-.549-.2.105-.384.269-.386.556-.003.476.014.943.173 1.4.283.82.545 1.645.73 2.496.06.276.213.545.372.785.285.431 1.417.512 1.744.133.266-.308.203-.686.154-1.048-.011-.084-.095-.158.017-.286 1.197 1.015 2.417 2.023 4.227 1.859-.108-1.294-.686-2.377-1.176-3.544"/>
  </g>
</svg>
