<svg xmlns="http://www.w3.org/2000/svg" viewBox="0 0 500 235.6"><path fill="#CDCDCD" d="M259.5 156.7c0-43.6 35.4-79 79-79s79 35.4 79 79-35.4 79-79 79-79-35.4-79-79zm79-11.7c-6.6 0-11.9 5.2-11.9 11.7s5.3 11.7 11.9 11.7 11.9-5.2 11.9-11.7S345 145 338.5 145z"/><path fill="#020202" d="M261.9 156.7c0-42.3 34.3-76.6 76.6-76.6s76.6 34.3 76.6 76.6-34.3 76.6-76.6 76.6c-42.4 0-76.6-34.3-76.6-76.6zm76.3-11.7c-6.6 0-11.9 5.3-11.9 11.9s5.3 11.9 11.9 11.9 11.9-5.3 11.9-11.9-5.3-11.9-11.9-11.9z"/><path fill="#030303" d="M368.5 156.7v65.6c-9.2 4.2-19.3 6.6-30.1 6.6s-20.9-2.4-30.1-6.6v-65.6c0 16.6 13.5 30.1 30.1 30.1s30.1-13.5 30.1-30.1z"/><path fill="#FFF" d="M331 209.9c.3-.1.5-.2.7-.3s.4-.1.7-.2.5-.1.7-.1.6.1.8.2c.2.1.3.3.5.4s.2.2.2.4v.2c0 .1-.1.1-.1.2s-.1.2-.2.2-.1.1-.2.2-.2.1-.3.1-.3 0-.4.1c-.5.1-1 .1-1.2.2s-.4.1-.6.2c-.2.1-.3.2-.4.3-.2.1-.2.2-.3.3s-.2.3-.2.4c0 .2-.1.3-.1.6s.1.6.2.9c.1.3.4.5.7.6s.7.3 1.2.3h.5c.2 0 .3-.1.6-.1.1-.1.3-.2.5-.3l.3-.3v.7h1.2c-.1-.5-.2-.5-.1-.9 0-.6-.1-1.8 0-2.6v-.8c0-.2-.1-.6-.2-.9s-.2-.3-.3-.6c-.2-.2-.5-.5-.8-.5-.3-.1-.5-.1-.9-.1s-.8 0-1.2.1-.6.1-1 .3c-.3.3-.3.6-.3.8zm2.9 4.2c-.1 0-.2.2-.3.2-.2.1-.3.1-.5.2-.2 0-.3.1-.5.1-.3 0-.5-.1-.6-.2s-.2-.1-.3-.2c-.1-.2-.3-.4-.3-.6v-.6c0-.1.1-.2.2-.3l.3-.3c.2-.1.3-.1.6-.2.1-.1.3-.1.6-.1.2 0 .5 0 .6-.1.1 0 .2 0 .3-.1s.2-.1.2-.1.1-.1.3-.2v1.3s0 .5-.2.8c-.1.3-.4.4-.4.4zm19-4.3c.3-.1.5-.2.7-.3.2-.1.4-.1.7-.2s.5-.1.7-.1.6.1.8.2c.2.1.3.3.5.4s.1.3.2.5v.2c0 .1-.1.1-.1.1s-.1.2-.2.2-.1.1-.2.2-.2.1-.3.1-.3 0-.4.1c-.6.1-1 .1-1.2.2s-.4.1-.6.2c-.2.1-.3.2-.4.3-.2.1-.2.2-.3.3s-.1.3-.2.5-.1.3-.1.6.1.6.2.9.4.5.7.6c.3.1.7.3 1.2.3h.5c.2 0 .3-.1.6-.1.1-.1.3-.2.5-.3l.3-.3v.7h1.2c-.1-.5-.2-.5-.2-.9v-3.3c0-.2-.1-.6-.2-.9s-.2-.4-.3-.6-.5-.5-.8-.5-.5-.2-.9-.2-.8.1-1.2.1c-.3.1-.6.1-1 .2-.2.3-.2.6-.2.8zm2.8 4.3c-.1 0-.2.2-.3.2-.2.1-.3.1-.5.2-.2 0-.3.1-.5.1-.3 0-.5-.1-.7-.2s-.2-.1-.3-.2-.3-.4-.3-.6v-.6c.1-.1.1-.2.2-.3.1-.1.2-.2.4-.3.1-.1.3-.1.6-.2.1-.1.3-.1.6-.1.1 0 .5 0 .6-.1.1 0 .2-.1.3-.1.1-.1.2-.1.3-.1l.2-.2v1.3s0 .5-.2.8l-.4.4zm-19.1 1l.1-.5v-1.3l-.1-3.6c0-.3-.2-.7-.2-.9.2 0 .6-.1.7-.1.1-.1.3-.1.5-.1v.8c.1-.2.3-.3.5-.4.1-.1.2-.1.3-.3.2-.1.3-.1.5-.2.3 0 .5-.1.7-.1.2 0 .3 0 .5.1.2 0 .3.1.5.2s.3.2.3.2l.3.3c0 .1.3-.3.6-.5s.7-.3 1.2-.3c.3 0 .9 0 1.2.1s.6.2.8.4.2.3.3.4c.2.2.2.7.2.9v3.9c0 .3.1.3.1.6h-1.2c.2-.5.1-.3.1-.6v-3.6c0-.2-.1-.5-.1-.7-.1-.1-.3-.4-.4-.5s-.3-.1-.4-.2-.4-.1-.6-.1c-.1 0-.3 0-.5.1s-.2.1-.3.2c-.1.1-.2.1-.3.2-.1.1-.2.2-.2.4-.1.1-.1.4-.1.6v3.6l.2.6h-1.3c0-.5.1-.1.1-.6v-3.6c0-.2-.1-.3-.1-.5-.1-.1-.1-.3-.2-.5s-.3-.3-.5-.4c-.1-.1-.3-.1-.5-.1s-.3 0-.5.1-.3.1-.5.3l-.3.3c-.1.2-.2.2-.2.5-.1.3-.1 1.6-.1 2.5v1.4c0 .3.1.3.1.6h-.6c0 .4-.3.4-.6.4zm15.2-1.2c0 .1 0 .2-.1.4 0 .2-.1.3-.1.5-.3.1-.6.2-.8.2s-.9.1-1.2.1c-.4 0-.9-.1-1.2-.2s-.8-.4-1.1-.7-.6-.6-.7-1c-.1-.4-.2-.8-.2-1.3 0-.6.1-.9.2-1.4s.6-1 1-1.3 1.4-.6 2.1-.6c.5 0 1.2.1 1.7.2 0 .4.1.6.1.8-.3-.1-.7-.3-.9-.3-.2 0-.5-.1-.7-.1-.3 0-1 .2-1.3.3s-.5.3-.7.6c-.2.2-.3.6-.3.9s-.1.3-.1.7c0 .5.1.9.2 1.3.2.3.4.7.7.9.3.2.7.4 1.2.4.4.1 1.3.1 2.2-.4zm6.5.9l-.1-.4c0-.1-.1-.3-.2-.6.7.4 1.5.7 2 .7.3 0 .6-.1.7-.2s.3-.2.5-.3c.1-.1.2-.3.2-.4 0-.1.1-.2 0-.3 0-.1-.1-.3-.1-.4l-.3-.3c-.1-.1-.4-.2-.8-.4-.3-.2-.9-.3-1.1-.5-.2-.1-.5-.3-.6-.5s-.2-.3-.3-.5c-.1-.2 0-.4 0-.6 0-.3.2-.5.3-.7.2-.3.4-.4.7-.5s.7-.2 1.1-.2c.5 0 .9.1 1.5.2 0 .3-.1.6 0 .8-.4-.3-.9-.4-1.3-.4-.2 0-.5.1-.7.1s-.4.3-.5.4c-.1.1-.1.2-.1.4 0 .1 0 .3.1.3 0 .1.3.3.4.4.2.1.1.1.3.1.2 0 .6.3 1 .5.5.2.9.5 1 .6.1.1.3.3.4.6.1.2.1.3.1.5s-.1.3-.1.4c0 .3-.1.4-.2.6-.2.3-.5.5-.8.6s-.7.2-1.1.2h-.8c-.2 0-.5-.1-.6-.1-.3 0-.4 0-.6-.1zm7.8-.5c-.1.2-.1.3-.1.7-.3.1-.3.1-.5.1h-.5c-.3 0-.6 0-.8-.1-.2-.1-.3-.2-.5-.5s-.2-.7-.2-1.1v-4h-.7v-.6h.7v-1.1c0-.2-.1-.3-.2-.5.3-.1.9-.2 1.2-.3 0 .6.1 1.5.1 1.8h1.6v.6l-.5-.1h-1.2v3.8c0 .3.1.7.1.9.1.2.2.2.3.3s.3.1.4.1h.3c.1.1.2.1.5 0zm-40.6-3.4h3.3v-.3c0-.1-.1-.3-.2-.4-.1-.2-.2-.3-.3-.3-.1-.1-.3-.2-.5-.3s-.4-.1-.6-.1-.4.1-.6.1c-.2.1-.3.2-.5.3s-.3.2-.3.4c-.1.2-.2.3-.2.5v.1c-.1-.1-.1-.2-.1 0zm4.2 3.1c0 .2-.1.5-.1.9-.3.1-1 .3-1.2.3h-.8c-.5 0-1-.1-1.4-.2-.3-.1-.7-.4-1-.7s-.6-.7-.7-1.1-.2-.8-.2-1.3c0-.6.1-.9.3-1.4.2-.5.6-.9 1-1.3s1-.5 1.7-.5c.3 0 .7 0 1.1.1s.6.2.8.5.4.5.5.8.2.3.2.7c.1.2.1.5.1.6h-4.5v.5c0 .5.1.9.3 1.3.2.3.4.6.7.8s.7.3 1.2.3c.3.2 1.2 0 2-.3zm-9.4 1.2c0-.1.1-.3.1-.4 0-2 0-3.6-.1-4.8v-.6l-.2-.5c.2 0 .5-.1.6-.1s.5-.1.6-.1v1.2c.1-.3.2-.2.3-.4l.4-.4c.1-.1.3-.2.5-.2s.3-.1.5-.1h.7c.3.1.6.1.7.2 0 .2-.3.9-.3.9s-.3 0-.5-.1-.4-.1-.6-.1c-.2 0-.5.1-.7.1-.2.1-.3.2-.5.3s-.2.3-.3.6c-.1.2-.1 0-.1.3v3.9l.1.3h-1.2zm-7.8-.7h1.4c.3 0 .7 0 1.2-.1s.7-.2 1-.3.6-.3.9-.5c.3-.3.5-.6.7-.9s.3-.7.3-1.2.1-.9.1-1.3c0-.5-.2-.9-.3-1.3s-.3-.9-.7-1.2c-.3-.3-.6-.5-1-.6-.3-.1-.9-.3-1.6-.3-.4 0-.9 0-1.2.1-.3 0-.5.1-.8.1v7.5zm-1.6.7l.2-.6V207c0-.2-.1-.5-.2-.9h3.9c.7.1.9.1 1.3.2.3.1 1 .5 1.3.7s.6.5.9.8.3.5.5.9c.2.6.3 1.2.3 1.7.1.7 0 1.3-.2 2s-.7 1.2-1.2 1.7-1 .7-1.6.9c-.6.1-1.3.3-2 .3h-1.7l-1.5-.1z"/><path fill="#3E649F" d="M339.8 199.6c0-.6-.3-.6-.5-.6-.2-.1-.7.1-1.2-.1-.6-.1-.9-.9-.7-1.3.3-1.1 1-1.2 1.4-1.2.4 0 1.1.1 2 .8.4.3.6 1.3.6 1.8 0 .6 0 1.4-.4 1.8-.6.6-2.2 1.2-3.1 1.2-3.5-.4-3.4-3.7-3.4-3.7s-.3-1.4.9-2.9c.1-.1.2-.4.3-.5s.2-.2.4-.3c.1-.1.3-.2.5-.3.4-.2.8-.5 1.2-.6.6-.2 1.2-.2 1.7-.2 1.4.1 3.1.9 3.9 2.1.1.2.2.3.3.5s.2.5.4.8c.2.5.1.3.3 1.2.1.6.2.9.2 1.3 0 .2.1.3.1.6 0 .6.1.8-.1 1.3-.2.9-.7 1.7-1.2 2.1-.8.7-1.5 1-1.9 1.2s-.6.2-1.2.5c-.5.2-.9.2-1.8.2-1 0-1.7-.1-2-.1-1.7-.5-2.3-.8-3.1-1.4-1.9-1.5-2.3-4.4-2.3-4.4s-.2-1.5.1-3.1c.2-.8 1-2.4 1.5-2.9.4-.5 1.3-1.3 1.9-1.6s1.4-.8 2.3-1.1c.5-.2.8-.2 1.8-.3 1.2-.1 2.9.3 4 .6s2.1 1 2.5 1.6c.5.6 1.7 2.2 1.8 2.6.2.3.7 2.2.8 2.4s.1 1 1 1c.7-.1.5-.9.5-1.1-.1-.2-.3-1.6-.4-2s-.7-1.4-.8-1.6c-.1-.1-.6-1-1.1-1.7-.4-.5-.7-1-1.2-1.3-.8-.5-1.8-1-1.8-1s-1.7-.6-2.6-.7c-.8-.1-1.6-.3-3-.2s-2.1.5-2.6.7-1.7.7-2.5 1.4c-.9.7-.6.3-1 .9s-.6.6-.9 1.1c-.3.5-1 1.8-1.2 2.6-.1.3-.3.9-.3 1.4-.1.5-.1.9-.1 1.3.1.7.1.8.1.8s.3 1.5.5 2.1c.2.6.5 1.4 1.7 2.8s2.3 1.7 2.8 1.8c.4.2 1.8.6 3.7.7 2.2.1 2.7-.5 3.1-.6.4-.2 1.7-.7 2.8-1.7s1.4-2.1 1.4-2.1c.3-.9.4-2.2.1-3.5-.2-.9-.3-1.7-.5-2.2-.3-.9-.7-1.4-1-1.9-.2-.4-1-1-1.5-1.3-.2-.1-.5-.3-.7-.5-.3-.1-.7-.2-1.2-.3-.5-.1-1-.2-1.6-.2-.5-.1-.8 0-1 0-.2 0-1 .1-2 .6-.6.3-1.2.6-1.8 1.3-.2.2-.4.5-.5.7-1.5 2-.9 4.3-.9 4.3s.3 3.1 2.9 3.9c1 .3 1.8.3 2.5.2 1.2-.2 2-.6 2.6-.9s1-.8 1.3-1.4c.2-.5.3-1 .3-1.4 0-.3 0-.6-.1-.9-.2-.9-.5-1.7-1.2-2.4l-.2-.2c-.1-.1-.3-.2-.3-.2-.6-.3-1.3-.5-2.2-.5-.3 0-.8.1-1.1.2-1 .5-1.6 1.4-1.6 2.7.1 1.2 1.2 1.8 1.3 2-.1-.3 2.2.4 2.3-.7z"/><path fill="#FFF" d="M346.8 229.9h-6.7c-.6 0-1-.2-1.4-.5v.5h-2.2c-.8 0-1.4-.3-1.6-.9-.1.1-.2.3-.3.4-.3.3-.7.5-1.2.5H331v-2.1h.5c-.3-.3-.5-.8-.5-1.3s.2-.9.5-1.3.7-.5 1.2-.5h2.4v.5c.3-.3.7-.5 1.4-.5h2.2v.5c.3-.3.7-.5 1.4-.5h2.2v2.4l.6-1.7c.3-.6.7-.7 1.1-.7.5 0 .9.3 1.1.7l1.7 4.5z"/><path fill="#174B9A" d="M331.3 226.5c0-.4.2-.7.5-1s.6-.5 1-.5h2v.6H333c-.3 0-.5.1-.7.2s-.2.3-.2.6.1.5.2.6c.2.2.4.2.7.2h.3c.2 0 .5.1.6.2.1.1.2.3.2.5s-.1.3-.2.5c-.1.1-.3.2-.6.2h-1.8v-.6h1.8c.1 0 .2 0 .2-.1s-.1-.1-.2-.1h-.5c-.3 0-.7-.2-1-.5-.3 0-.5-.4-.5-.8zm.8 0c0-.2.1-.3.2-.5.1-.1.3-.2.6-.2h1.8v.6h-1.8c-.1 0-.2 0-.2.1s.1.1.2.1h.5c.3 0 .7.2 1 .5s.5.6.5 1-.2.7-.5 1-.6.5-1 .5h-2v-.6h1.8c.3 0 .5-.1.7-.2s.2-.3.2-.6-.1-.5-.2-.6c-.2-.2-.4-.2-.7-.2h-.3c-.2 0-.5-.1-.6-.2-.1-.3-.2-.5-.2-.7zm3-.1c0-.9.5-1.4 1.4-1.4h1.8v.6h-1.8c-.5 0-.8.3-.8.8v1.7c0 .5.3.8.8.8h1.8v.6h-1.8c-.9 0-1.4-.5-1.4-1.4v-1.7zm.8.8v-.8c0-.4.2-.6.6-.6h1.8v.6h-1.7c-.1 0-.2.1-.2.2h1.4v.6h-1.9zm0 .1h2v.6h-1.4c0 .1.1.2.2.2h1.7v.6h-1.8c-.4 0-.6-.2-.6-.6l-.1-.8zm2.7-.9c0-.9.5-1.4 1.4-1.4h1.8v.6H340c-.5 0-.8.3-.8.8v1.7c0 .5.3.8.8.8h1.3v-1.7h-1.1v-.6h1.7v2.9h-1.8c-.9 0-1.4-.5-1.4-1.4l-.1-1.7zm.8 0c0-.4.2-.6.6-.6h1.8v.6h-1.7c-.1 0-.2.1-.2.2v1.4c0 .1.1.2.2.2h.3v-.2h-.3v-.6h.9v1.4h-1c-.4 0-.6-.2-.6-.6v-1.8z"/><path fill="#174B9A" d="M343.6 228.9h1.8l-1.3-3.2c-.1-.1-.1-.1-.2-.1s-.2.1-.2.1l-1.4 3.8h-.6l1.4-4c.2-.3.5-.5.8-.5.4 0 .6.2.8.5l1.5 4h-2.6v-.6zm0-.1v-.3l-.5 1.1h-.6l1.3-3.6c0-.1.1-.1.1-.1l.1.1 1.1 2.9h-1.5zm.4-1.4l-.3.7h.6l-.3-.7z"/><path fill="#32507C" d="M410.6 156.7c0 29.1-17.2 54.2-42 65.6v-65.6c0 16.6-13.5 30.1-30.1 30.1s-30.1-13.5-30.1-30.1v65.6c-24.8-11.4-42-36.5-42-65.6 0-39.8 32.3-72.2 72.2-72.2 39.7 0 72 32.3 72 72.2zm-72.1-11.8c-6.6 0-11.9 5.3-11.9 11.8s5.3 11.8 11.9 11.8 11.9-5.3 11.9-11.8-5.4-11.8-11.9-11.8z"/><path fill="#9F9F9F" d="M368.5 156.7c0 16.6-13.5 30.1-30.1 30.1s-30.1-13.5-30.1-30.1 13.5-30.1 30.1-30.1 30.1 13.5 30.1 30.1zm-30-11.9c-6.6 0-11.9 5.4-11.9 12s5.3 12 11.9 12 11.9-5.4 11.9-12-5.4-12-11.9-12z"/><path fill="#181818" d="M311.2 156.7c0-15.1 12.2-27.3 27.3-27.3s27.3 12.2 27.3 27.3-12.2 27.3-27.3 27.3-27.3-12.2-27.3-27.3zm27.3 11.8c6.6 0 11.9-5.3 11.9-11.9s-5.3-11.9-11.9-11.9-11.9 5.3-11.9 11.9 5.3 11.9 11.9 11.9z"/><g transform="matrix(.57587 0 0 .57587 197.518 218.817)"><path fill="#DEDFDE" d="M424.2 21.9v-183.7c11.9-5.4 26.4-8.6 41.9-8.6 15.6 0 30 3.2 41.9 8.6V22c-11.9 4.6-26.4 7.2-42 7.2-15.4 0-29.9-2.7-41.8-7.3"/><ellipse fill="#C1C3C2" cx="466.1" cy="-150" rx="13.4" ry="12.3"/><path fill="#56727D" d="M494-49.7h-55.7c-4.8 0-8.7-3.9-8.7-8.7v-43.7c0-4.8 3.9-8.7 8.7-8.7H494c4.8 0 8.7 3.9 8.7 8.7v43.7c-.1 4.8-4 8.7-8.7 8.7z"/><path fill="#353360" d="M438.9-61h7.1v10.7h-7.1V-61z"/><path fill="#353360" d="M438.6-61h6.8v10.3h-6.8V-61z"/><path fill="#56727D" d="M438.9-60.6h6.4v9.2h-6.4v-9.2z"/><path fill="#353360" d="M439.3-52.4h2.1v.3h-2.1v-.3zm3.6 0h1.8v.3h-1.8v-.3zm-3.6-1.1h2.1v.3h-2.1v-.3zm3.6 0h1.8v.3h-1.8v-.3zm-3.6-1h5.3v.3h-5.3v-.3zm3.6-1.5h1.8v.3h-1.8v-.3zm.3-1.1h1.4v.3h-1.4v-.3zm.7-1h.7v.3h-.7v-.3z"/><path fill="#56727D" stroke="#353360" stroke-miterlimit="10" d="M445.1-60.8h-7l-2.4 5.3h7l2.4-5.3z"/><path fill="#353360" d="M439.3-61.7h.7v1.8h-.7v-1.8zm1.4 0h.7v1.8h-.7v-1.8zm1.4 0h.7v1.8h-.7v-1.8zm1.5 0h.7v1.8h-.7v-1.8z"/><path fill="#4A6787" d="M431.9-108.1h68.3v45.4h-68.3v-45.4z"/><g fill="#363264"><path d="M451.9-73.9h5.7v5.7h-5.7v-5.7zm5.7-5.7h5.7v5.7h-5.7v-5.7z"/><path d="M457.6-85.3h5.7v5.7h-5.7v-5.7z"/><path d="M451.9-85.3h5.7v5.7h-5.7v-5.7zm11.4 0h5.7v5.7h-5.7v-5.7zm0-5.7h5.7v5.7h-5.7V-91zm0-5.7h5.7v5.7h-5.7v-5.7zm-5.7 0h5.7v5.7h-5.7v-5.7zM451.9-96.7h5.7v5.7h-5.7v-5.7zM451.9-102.4h5.7v5.7h-5.7v-5.7zm0 11.4h5.7v5.7h-5.7V-91zm-5.7 0h5.7v5.7h-5.7V-91zm-5.7 5.7h5.7v5.7h-5.7v-5.7zm34.2 11.4h5.7v5.7h-5.7v-5.7zm-5.7-5.7h5.7v5.7H469v-5.7zM469-85.3h5.7v5.7H469v-5.7zm5.7 0h5.7v5.7h-5.7v-5.7zM469-96.7h5.7v5.7H469v-5.7zm5.7 0h5.7v5.7h-5.7v-5.7zM474.7-102.4h5.7v5.7h-5.7v-5.7zm0 11.4h5.7v5.7h-5.7V-91zm5.7 0h5.7v5.7h-5.7V-91zm5.7 5.7h5.7v5.7h-5.7v-5.7z"/></g><path fill="#2F3338" d="M465.2-40.4c-.2 0-.4 0-.5-.1s-.3-.1-.4-.2v-.7c.1.2.3.3.4.4.2.1.3.1.5.1s.4-.1.5-.2c.1-.1.2-.3.2-.5s0-.3-.1-.4c-.1-.1-.2-.2-.3-.2-.1 0-.2-.1-.3-.1-.1 0-.2-.1-.3-.1-.1 0-.2-.1-.3-.1-.1-.1-.2-.1-.2-.2-.1-.1-.1-.2-.1-.3s-.1-.3-.1-.4c0-.3.1-.6.3-.8.2-.2.4-.3.7-.3.2 0 .3 0 .5.1.1 0 .3.1.4.2v.7c-.1-.1-.2-.2-.4-.3-.2-.1-.3-.1-.5-.1s-.3.1-.4.2c-.1.1-.2.3-.2.5s0 .3.1.4c.1.1.2.2.3.2.1 0 .2.1.3.1.1 0 .2.1.3.1.2.1.4.2.4.4.1.2.1.4.1.7 0 .2 0 .3-.1.5 0 .2-.1.3-.2.4l-.3.3c.1-.3-.1-.3-.3-.3zm3.2-.1h-1.7v-4.1h.4v3.7h1.3v.4zm.3 0v-4.1h1.8v.5H469v1.1h1.4v.5H469v1.5h1.5v.5h-1.8zm2.3 0v-4.1h1.8v.5h-1.5v1.1h1.4v.5h-1.4v1.5h1.5v.5H471zm4.1-2.9c0 .2 0 .4-.1.5 0 .2-.1.3-.2.4-.1.1-.2.2-.4.3-.1.1-.3.1-.5.1h-.2v1.5h-.4v-4.1h.7c.2 0 .3 0 .4.1.1 0 .2.1.3.2.1.1.2.2.3.4.1.2.1.4.1.6zm-.4 0c0-.1 0-.3-.1-.4-.1-.1-.1-.2-.2-.3s-.1-.1-.2-.1h-.5v1.7h.3c.2 0 .3 0 .4-.1.1 0 .2-.1.2-.2.1-.1.1-.2.1-.3v-.3zm11.1 2.9h-.4v-3.6l-.8 2.4h-.2l-.8-2.4v3.6h-.4v-4.1h.5l.7 2.3.7-2.3h.5v4.1h.2zm2.7-3.6c.1.2.2.4.3.7.1.3.1.6.1.9 0 .3 0 .6-.1.9-.1.3-.1.5-.3.7-.1.2-.3.3-.4.4-.2.1-.3.1-.5.1s-.4 0-.5-.1c-.2-.1-.3-.2-.4-.4s-.2-.4-.3-.7c-.1-.3-.1-.6-.1-.9 0-.3 0-.7.1-.9.1-.3.1-.5.3-.7.1-.2.3-.3.4-.4.2-.1.3-.1.5-.1s.4 0 .5.1c.2 0 .3.2.4.4zm0 1.5c0-.3 0-.5-.1-.7 0-.2-.1-.4-.2-.5s-.2-.3-.3-.3c-.1-.1-.2-.1-.4-.1-.1 0-.3 0-.4.1l-.3.3c-.1.1-.1.3-.2.5 0 .2-.1.5-.1.7 0 .5.1 1 .2 1.2.2.3.4.4.7.4.3 0 .5-.1.7-.4.3-.2.4-.6.4-1.2zm3.1.1c0 .4-.1.7-.2 1-.1.3-.3.5-.4.7-.1.1-.3.2-.5.3-.2 0-.4.1-.6.1h-.7v-4.1h.7c.3 0 .5 0 .7.1s.3.1.4.2c.2.2.3.4.4.7.2.2.2.5.2 1zm-.4-.1c0-.3 0-.6-.1-.8s-.2-.4-.3-.5c-.1-.1-.2-.2-.3-.2-.1 0-.3-.1-.4-.1h-.4v3.2h.3c.2 0 .3 0 .5-.1.1 0 .3-.1.4-.2.1-.1.2-.3.3-.5v-.8zm.9 2.1v-4.1h1.8v.5h-1.5v1.1h1.4v.5h-1.4v1.5h1.5v.5h-1.8zm-16.2 47l1.7-4.9h.8l1.7 4.9h-.7l-.4-1.4h-1.9l-.4 1.4h-.8zm2.8-2l-.8-2.3-.8 2.3h1.6zM503.3.9c0 .2 0 .5-.1.6-.1.2-.2.3-.4.5l-.6.3c-.2.1-.5.1-.8.1H500v-4.9h2.1c.2 0 .3.1.5.2s.3.2.4.4.1.3.1.5-.1.4-.2.6c-.1.2-.3.3-.5.4.3.1.5.2.7.4s.2.6.2.9zm-.9-2.2c0-.1 0-.2-.1-.3 0-.1-.1-.2-.2-.2-.1-.1-.2-.1-.4-.1h-1.1v1.4h1.2c.1 0 .2-.1.3-.1.1-.1.2-.1.2-.3 0-.1.1-.2.1-.4zm.2 2.3c0-.2 0-.3-.1-.5l-.3-.3c-.1-.1-.2-.1-.3-.1h-1.2v1.8h1.2c.2 0 .3-.1.4-.2l.3-.3V1z"/><path fill="#A7A8A8" d="M506-110.8h-79.8c10.2-1.3 24.3-2.1 39.9-2.1 15.6 0 29.7.8 39.9 2.1zm0 61.1h-79.8c10.2 1.3 24.3 2.1 39.9 2.1 15.6 0 29.7-.8 39.9-2.1z"/><circle fill="#C1C3C2" cx="478.5" cy="-10.1" r="8.4"/><circle fill="#646FA4" cx="478.5" cy="-10.1" r="7.1"/><circle fill="#C1C3C2" cx="470.1" cy="-29.3" r="5.3"/><circle fill="#646FA4" cx="470.1" cy="-29.3" r="4.1"/><path fill="#C1C3C2" d="M494.5-24h-7c-3 0-5.3-2.4-5.3-5.3 0-3 2.4-5.3 5.3-5.3h7"/><circle fill="#646FA4" cx="487.5" cy="-29.3" r="4.1"/><path fill="#A7A8A8" d="M422.8-160.7h1.5V20h-1.5v-180.7z"/><path fill="#A7A8A8" d="M508-141v1.1h.1c-11.9-6.1-26.4-9.9-41.9-9.9-15.6 0-30 3.8-41.9 9.9v-1.1c11.9-6.1 26.4-9.9 41.9-9.9s30 3.8 41.8 9.9m-98.7 0h13.5v1.1h-13.5v-1.1z"/><path fill="#DEDFDE" d="M409-141h13.8v-17.9c0-1.6-1.3-2.9-2.9-2.9-6 0-10.9 4.9-10.9 10.9v9.9zm3.5 158l10.2 3.6v-160.5h-13.8V13.4c.1 1.9 1.6 2.9 3.6 3.6z"/><path fill="#DEDFDE" d="M409-10.1V6.8c-1.1 0-2-3.8-2-8.5 0-4.6.9-8.4 2-8.4z"/><path fill="#A7A8A8" d="M508-160.7h1.5V20H508v-180.7zm1.5 19.7H523v1.1h-13.5v-1.1z"/><path fill="#DEDFDE" d="M523.3-141h-13.8v-17.9c0-1.6 1.3-2.9 2.9-2.9 6 0 10.9 4.9 10.9 10.9v9.9zm-3.6 157.9l-10.2 3.6V-140h13.8V13.3c0 2-1.6 3-3.6 3.6zm3.6-27.1V6.7c1.1 0 2-3.8 2-8.5-.1-4.6-.9-8.4-2-8.4z"/><circle fill="#C1C3C2" cx="502.4" cy="-15.3" r="8.4"/><circle fill="#646FA4" cx="502.4" cy="-15.3" r="7.1"/><path fill="#C1C3C2" d="M423.4-20.5c0 10.3 7.2 18.6 17.3 18.6 10.1 0 19.1-10.9 19.1-21.2S454.1-39 444-39c-10.1 0-20.6 8.3-20.6 18.5z"/><circle fill="#A7A8A8" cx="439.8" cy="-18.3" r="16.4"/><circle fill="#646FA4" cx="439.4" cy="-18.3" r="15.3"/><g fill="none" stroke="#A7A8A8" stroke-miterlimit="10"><circle cx="439.4" cy="-18.3" r="1.2"/><path d="M433.8-32.5v4.9c0 1.9-1.6 3.5-3.5 3.5h-5m-.1 11.5h4.9c1.9 0 3.5 1.6 3.5 3.5v5m11.5 0V-9c0-1.9 1.6-3.5 3.5-3.5h5m.1-11.5h-4.9c-1.9 0-3.5-1.6-3.5-3.5v-5"/></g><path fill="#2F3338" d="M467.2-126.1c.3-.1.5-.2.7-.3.2-.1.4-.1.6-.2.3-.1.4-.1.7-.1.3 0 .6.1.8.1.2.1.3.3.4.4s.1.2.1.4v.2c0 .1-.1.1-.1.2-.1.1-.1.2-.2.2l-.2.2c-.1.1-.2.1-.3.1-.1.1-.3 0-.4.1-.5.1-.9.1-1.1.2s-.4.1-.5.2c-.2.1-.3.2-.4.3-.2.1-.2.2-.3.4-.1.1-.2.3-.2.4 0 .2-.1.4-.1.5 0 .3 0 .6.2.8.1.3.4.5.7.6.3.1.6.3 1.1.3h.5c.2 0 .3-.1.6-.1.1-.1.3-.2.5-.4l.3-.3v.6h1.1c-.1-.5-.2-.5-.1-.8 0-.6-.1-1.8 0-2.4v-.8c0-.2-.1-.6-.2-.8-.1-.2-.2-.3-.3-.6-.2-.2-.5-.4-.8-.5s-.5-.1-.8-.1h-1.1c-.3.1-.6.1-1 .3-.2.4-.2.7-.2.9zm2.8 4s-.2.1-.3.2c-.2.1-.3.1-.5.2h-.5c-.3 0-.5-.1-.6-.2-.2-.1-.2-.1-.3-.2-.1-.1-.3-.4-.3-.6v-.4c0-.1.1-.2.2-.3.1-.1.2-.2.4-.3.2-.1.3-.1.5-.2.1-.1.3-.1.6-.1.1 0 .5 0 .6-.1.1 0 .2 0 .3-.1.1 0 .2-.1.2-.1s.1-.1.3-.2v1.2s0 .5-.2.8l-.4.4zm17.8-4.1c.3-.1.5-.2.6-.3.2-.1.4-.1.6-.1.3 0 .5-.1.7-.1.3 0 .6.1.8.2.2.1.3.3.5.4.1.1.1.2.2.5v.2c0 .1-.1.1-.1.1-.1.1-.1.2-.2.2s-.1.1-.2.2c-.1 0-.2.1-.3.1-.1.1-.3 0-.4.1-.5.1-.9.1-1.1.2s-.4.1-.6.2-.3.2-.4.3c-.2.1-.2.2-.3.3-.1.1-.1.3-.2.4 0 .2-.1.4-.1.5 0 .3.1.6.2.8.1.3.4.5.7.6.3.1.7.3 1.2.3h.5c.2 0 .3-.1.6-.1.1-.1.3-.2.5-.4l.3-.3v.6h1.1c-.1-.5-.1-.5-.1-.8v-3.2c0-.2-.1-.6-.2-.8-.1-.2-.2-.4-.4-.6-.1-.2-.5-.4-.8-.5s-.5-.1-.8-.1-.8 0-1.1.1c-.3.1-.6.1-1 .2-.2.4-.1.6-.2.8zm2.8 4.1c-.1 0-.2.2-.3.2-.2 0-.3.1-.4.2h-.5c-.3 0-.5-.1-.6-.2-.2-.1-.2 0-.3-.2-.1-.2-.3-.4-.3-.6v-.4c0-.1.1-.2.2-.3.1-.1.2-.2.4-.3.1-.1.3-.1.5-.2.1 0 .3-.1.6-.1.1 0 .5 0 .6-.1.1 0 .2 0 .3-.1.1 0 .2-.1.3-.1l.2-.2v1.2s0 .5-.2.8c-.3.2-.5.4-.5.4zm-18.1.9l.1-.4v-1.2l-.1-3.4c0-.3-.2-.7-.2-.8.2 0 .6-.1.7-.1h.4v.8c.1-.2.3-.3.4-.4s.2-.1.4-.3c.2-.1.3-.1.5-.2h.7c.2 0 .3 0 .5.1.2 0 .3.1.4.2s.3.2.3.2l.3.3c0 .1.3-.3.6-.5s.7-.3 1.1-.3c.3 0 .8 0 1.1.1.3.1.6.2.8.4.2.2.2.3.3.4.2.2.2.6.2.8v3.7c0 .3.1.3.1.6h-1.2c.1-.5.1-.3.1-.6v-3.3c0-.2-.1-.5-.1-.6-.1-.1-.3-.4-.4-.5s-.3-.1-.4-.2-.4-.1-.6-.1c-.1 0-.3 0-.5.1-.1 0-.2.1-.3.1-.1.1-.2.1-.3.2-.1.1-.2.2-.2.4-.1.1-.1.4-.1.6v3.4l.2.6h-1.2c0-.5.1-.1.1-.6v-3.5c0-.2 0-.3-.1-.4 0-.1-.1-.3-.2-.4s-.3-.3-.5-.4c-.1-.1-.3-.1-.5-.1s-.3 0-.5.1-.3.1-.4.3l-.3.3c-.1.2-.2.2-.2.5-.1.3-.1 1.5-.1 2.3v1.3c0 .3.1.4.1.6h-.6c.1-.1-.2-.1-.4-.1zm14.3-1.1v.4c0 .2-.1.3-.1.5-.3.1-.5.2-.8.2h-1.1c-.4 0-.8-.1-1.2-.2-.3-.1-.8-.4-1-.6-.3-.3-.6-.5-.7-.9s-.2-.8-.2-1.2c0-.6.1-.8.2-1.3.2-.5.6-.9 1-1.2.4-.3 1.3-.6 2-.6.5 0 1.1.1 1.6.2 0 .4.1.6.1.8-.4-.1-.7-.3-.9-.3-.2 0-.5-.1-.7-.1-.3 0-1 .2-1.2.3-.3.1-.5.3-.6.6-.2.2-.3.6-.4.9s-.1.4-.1.7c0 .5.1.9.2 1.2.1.3.4.7.7.9.3.2.7.4 1.1.4.5-.2 1.3-.2 2.1-.7zm6.2.9l-.1-.4c0-.1-.1-.3-.2-.6.7.4 1.4.7 1.9.7.3 0 .5-.1.7-.2s.4-.2.5-.4c.1-.1.2-.3.2-.4v-.3c0-.1-.1-.3-.1-.4l-.4-.4c-.1-.1-.4-.2-.8-.4-.4-.1-.8-.3-1-.5-.2-.1-.5-.3-.6-.5s-.2-.3-.3-.5v-.6c0-.3.2-.5.3-.7.1-.3.4-.4.7-.5.3-.1.7-.2 1.1-.2.5 0 .9.1 1.4.2 0 .3-.1.5 0 .8-.4-.3-.8-.4-1.3-.4-.2 0-.5 0-.7.1s-.4.3-.5.4-.1.2-.1.4c0 .1 0 .3.1.4 0 .1.3.3.4.4.2.1.1.1.3.1s.6.3 1 .4c.4.2.8.5.9.6s.3.3.4.6c.1.2.1.3.1.5s-.1.3-.1.4c0 .3 0 .4-.2.6-.1.3-.4.5-.8.6-.3.1-.7.2-1.1.2h-.8c-.2 0-.4-.1-.6-.1 0 .2-.1.2-.3.1zm7.3-.5c0 .2-.1.3-.1.6-.3.1-.4.1-.5.1h-.4c-.3 0-.6 0-.8-.1-.2-.1-.4-.2-.5-.4-.1-.2-.2-.7-.2-1.1v-3.7h-.7v-.5h.7v-1c0-.2-.1-.4-.2-.5.4-.1.9-.2 1.1-.3 0 .6.1 1.4.1 1.8h1.5v.6l-.4-.1h-1.1v3.6c0 .3 0 .7.1.8 0 .2.1.2.3.3.1.1.3.1.4.1h.3c.1-.1.2-.1.4-.2zm-38.3-3.2h3.2v-.3c0-.1-.1-.3-.2-.4-.1-.2-.2-.3-.3-.4-.1-.1-.3-.2-.4-.3-.2-.1-.4-.1-.6-.1s-.4.1-.6.1c-.2.1-.4.2-.5.3-.2.1-.3.2-.4.4-.1.2-.2.3-.2.5v.2zm3.9 2.9c0 .2-.1.5-.1.9-.4.1-.9.3-1.2.4h-.8c-.5 0-.9-.1-1.3-.2s-.7-.4-1-.7c-.3-.3-.5-.6-.7-1-.1-.4-.2-.8-.2-1.2 0-.6.1-.8.3-1.4.2-.5.6-.9 1-1.2.4-.3.9-.4 1.6-.4.3 0 .7 0 1 .1s.6.2.8.4c.2.2.4.5.5.8s.2.3.2.7v.6h-4.3v.4c0 .4.1.9.3 1.2.2.4.4.6.7.8.3.2.7.4 1.1.4.6-.1 1.4-.3 2.1-.6zm-8.8 1.2c0-.1.1-.3.1-.4 0-1.9 0-3.4-.1-4.6v-.5l-.2-.4c.2 0 .4 0 .6-.1.1 0 .5-.1.6-.1v1.1c.1-.3.2-.2.3-.4l.4-.4c.1-.1.3-.2.4-.2.2 0 .3-.1.5-.1h.6c.4 0 .6.1.6.2 0 .2-.3.8-.3.8s-.3 0-.5-.1-.4-.1-.6-.1-.5.1-.6.1c-.2.1-.3.2-.5.3-.1.2-.2.3-.3.6-.1.2-.1 0-.1.3v3.6l.1.3h-.6c.1 0-.2.1-.4.1zm-7.4-.7h1.3c.3 0 .7 0 1.1-.1s.6-.2.9-.3c.3-.1.6-.3.8-.5.3-.3.5-.6.7-.9.1-.3.3-.7.3-1.1.1-.4.1-.8.1-1.2 0-.5-.2-.8-.3-1.2-.1-.4-.4-.9-.7-1.2-.4-.3-.6-.5-1-.6-.4-.1-.9-.3-1.5-.3-.4 0-.9 0-1.1.1-.3 0-.5.1-.8.1l.2 7.2zm-1.5.7l.2-.6v-7.2c0-.2-.1-.4-.2-.8h3.8c.6 0 .8.1 1.3.2.3.1 1 .4 1.3.6s.6.4.8.8c.2.3.3.4.5.8.2.5.3 1.1.3 1.6.1.7 0 1.3-.2 1.9-.2.7-.7 1.1-1.1 1.6s-.9.7-1.5.9c-.6.1-1.2.3-1.9.3h-1.8l-1.5-.1zm-8.6-2.8c0-.5-.2-.4-.4-.5-.2 0-.6.1-.9 0-.4-.1-.7-.7-.6-1 .2-.8.8-.9 1.1-.9.3 0 .8 0 1.5.6.3.3.5 1 .5 1.4 0 .5 0 1-.3 1.4-.5.5-1.7.9-2.4.9-2.7-.3-2.6-2.9-2.6-2.9s-.2-1.1.7-2.3c.1-.1.2-.3.3-.4.1-.1.2-.1.3-.2.1-.1.2-.1.3-.2.3-.2.6-.3.9-.4.5-.1.9-.2 1.3-.2 1.1 0 2.3.6 3 1.6l.3.3c.1.1.2.4.3.6.1.4.1.2.3.9.1.4.2.7.2 1v.4c0 .5.1.6 0 1-.2.6-.6 1.3-.9 1.6-.6.6-1.1.8-1.5.9-.3.2-.5.2-.9.3-.4.2-.6.2-1.4.2-.7 0-1.3 0-1.5-.1-1.3-.4-1.8-.6-2.3-1.1-1.5-1.1-1.8-3.4-1.8-3.4s-.2-1.1.1-2.3c.1-.6.8-1.8 1.2-2.3.3-.4 1-1 1.5-1.2.4-.3 1-.6 1.8-.8.3-.1.6-.2 1.4-.2.9 0 2.3.2 3 .4.8.3 1.6.8 2 1.2s1.3 1.7 1.4 2c.2.3.6 1.7.6 1.9 0 .2.1.8.7.8s.4-.7.4-.8c0-.1-.2-1.2-.3-1.5-.1-.3-.5-1.1-.6-1.2 0-.1-.5-.8-.8-1.3-.3-.4-.6-.8-.9-1-.6-.4-1.4-.7-1.4-.7s-1.3-.5-2-.5c-.6-.1-1.2-.2-2.3-.1-1.1.1-1.7.4-2 .5-.4.2-1.3.6-1.9 1.1-.7.5-.5.3-.8.7-.3.4-.5.5-.7.8s-.8 1.4-.9 2c-.1.3-.2.7-.3 1.1 0 .3-.1.7 0 1 .1.6 0 .6 0 .6s.3 1.1.4 1.6c.2.4.4 1.1 1.3 2.1s1.8 1.3 2.1 1.4c.3.1 1.4.5 2.9.5 1.7 0 2.1-.3 2.4-.5.3-.1 1.3-.6 2.1-1.3.8-.7 1.1-1.6 1.1-1.7.2-.6.3-1.7.1-2.7-.1-.7-.3-1.3-.4-1.7-.2-.7-.5-1.1-.7-1.4-.2-.3-.8-.8-1.2-1-.2-.1-.3-.2-.6-.3-.2-.1-.6-.2-.9-.3-.3-.1-.8-.2-1.2-.2h-.7c-.2 0-.7.1-1.5.5-.4.2-.9.5-1.4 1-.2.2-.3.4-.4.5-1.1 1.6-.7 3.3-.7 3.3s.2 2.3 2.3 3c.7.2 1.4.2 1.9.2.9-.1 1.6-.5 2-.7.5-.2.8-.6 1-1s.2-.8.2-1.1c0-.2 0-.5-.1-.7-.1-.7-.4-1.3-.9-1.8l-.2-.1c-.1-.1-.2-.1-.3-.2-.5-.3-1-.4-1.7-.4-.3 0-.6.1-.8.2-.8.4-1.3 1.1-1.2 2.1 0 .9.9 1.4 1 1.5-.5-.1 1.4.4 1.4-.5z"/></g><path fill="#A7A8A8" d="M222.3.2l-29.2 61.5-1-1.4L220.5 0c.7 0 1.3.1 1.8.2m-190.5 60l-1 1.4L1.6.1c.5 0 1-.1 1.8-.1l28.4 60.2z"/><path fill="#E4E5E4" d="M220.5 0l-28.4 60.2c-17.7-25.2-47-41.7-80.2-41.7S49.5 35 31.7 60.2L3.3 0h217.2"/><path fill="#DEDFDE" d="M223.9 4.9v175.6s-.1 45.6-3.1 49c-1.4 1.7-27 4-53 5-27.7 1.2-55.8 1.2-55.8 1.2s-28.2 0-55.8-1.2c-26-1.1-51.6-3.4-53-5-3-3.5-3.1-49-3.1-49V4.9C.1 1.6.1.6 1.6.2l29.2 61.5 1-1.4c17.8-25.2 47-41.7 80.2-41.7s62.4 16.5 80.2 41.7l1 1.4L222.4.2c1.5.3 1.5 1.3 1.5 4.7"/><path fill="#E4E5E4" d="M188.4 116.7c0 42.2-34.2 76.5-76.4 76.5s-76.4-34.3-76.4-76.5c0-11.9 2.7-23.1 7.5-33.1C55.4 58 81.7 40.2 112 40.2c30.5 0 56.9 17.9 69.1 43.8 4.6 9.9 7.3 21 7.3 32.7"/><path fill="#A7A8A8" d="M209.9 116.7c0 54.2-43.9 98.1-98 98.1s-98-43.9-98-98.1c0-20.4 6.2-39.3 16.8-55l1-1.4.8 1.7c-10.7 15.5-17 34.4-17 54.7 0 53.3 43.2 96.5 96.4 96.5s96.3-43.2 96.3-96.5c0-20.3-6.3-39.2-17-54.7l.8-1.7 1 1.4c10.7 15.6 16.9 34.6 16.9 55"/><path fill="#A7A8A8" d="M192.1 60.2l-.8 1.7c-17.4-25.2-46.4-41.8-79.4-41.8s-62 16.5-79.4 41.7l-.8-1.7c17.8-25.2 47-41.7 80.2-41.7s62.5 16.6 80.2 41.8"/><path fill="#D65725" d="M104 214.5l7.9 17 7.9-17"/><path fill="#A7A8A8" d="M14.7 211.3c-4.4-11.6-3.6-16.1 1.7-19.4 7.8-4.8 20.5 8.3 22 15.4 1.6 7.7-2.4 14.6-8.6 15.6-6.2 1.1-12.6-4.9-15.1-11.6"/><path fill="#BBB" d="M16.2 212c-1.3-7.1 2.7-13.6 8.9-14.7s12.2 3.8 13.5 10.8-2.7 13.6-8.9 14.7c-6.1 1.1-12.2-3.7-13.5-10.8"/><path fill="#C1C3C2" d="M19.5 211.5c-.9-5 1.9-9.6 6.3-10.4s8.6 2.7 9.5 7.7-1.9 9.6-6.3 10.4c-4.3.7-8.6-2.7-9.5-7.7"/><path fill="#E4E5E4" d="M181 84c-12.2-25.9-38.6-43.8-69.1-43.8-30.3 0-56.6 17.7-68.9 43.4L32.6 61.9C49.9 36.7 79 20.2 111.9 20.2s62 16.6 79.4 41.8L181 84z"/><path fill="#A7A8A8" d="M209.2 211.3c4.4-11.6 3.6-16.1-1.8-19.4-7.8-4.8-20.4 8.3-21.9 15.4-1.6 7.7 2.4 14.6 8.6 15.6 6.2 1.1 12.5-4.9 15.1-11.6"/><path fill="#BBB" d="M207.6 212c1.3-7.1-2.7-13.6-8.9-14.7-6.2-1.1-12.2 3.8-13.5 10.8-1.3 7.1 2.7 13.6 8.9 14.7s12.3-3.7 13.5-10.8"/><path fill="#C1C3C2" d="M194.8 219.1c-4.4-.7-7.2-5.4-6.3-10.4.9-5 5.2-8.4 9.5-7.7 4.4.8 7.2 5.4 6.3 10.4-.9 5.1-5.1 8.5-9.5 7.7M12.4 162.2c0-1.3 1.1-2.3 2.3-2.3 1.3 0 2.3 1.1 2.3 2.3 0 1.3-1.1 2.3-2.3 2.3-1.3.1-2.3-1-2.3-2.3m-9.3-44c0-1.3 1.1-2.3 2.3-2.3 1.3 0 2.3 1 2.3 2.3s-1.1 2.3-2.3 2.3c-1.3 0-2.3-1-2.3-2.3m2.3 22.4c0-1.3 1.1-2.3 2.3-2.3 1.3 0 2.3 1 2.3 2.3s-1.1 2.3-2.3 2.3c-1.2 0-2.3-1-2.3-2.3m7-66.4c0 1.3 1.1 2.3 2.3 2.3 1.3 0 2.3-1.1 2.3-2.3 0-1.3-1.1-2.3-2.3-2.3-1.3-.1-2.3 1-2.3 2.3m-7 21.6c0 1.3 1.1 2.3 2.3 2.3C9 98.1 10 97 10 95.8c0-1.3-1.1-2.3-2.3-2.3-1.2 0-2.3 1-2.3 2.3m206.1 66.4c0-1.3-1.1-2.3-2.3-2.3-1.3 0-2.3 1.1-2.3 2.3 0 1.3 1.1 2.3 2.3 2.3 1.3.1 2.3-1 2.3-2.3m9.2-44c0-1.3-1.1-2.3-2.3-2.3-1.3 0-2.3 1-2.3 2.3s1.1 2.3 2.3 2.3c1.3 0 2.3-1 2.3-2.3m-2.3 22.4c0-1.3-1.1-2.3-2.3-2.3-1.3 0-2.3 1-2.3 2.3s1.1 2.3 2.3 2.3c1.3 0 2.3-1 2.3-2.3m-6.9-66.4c0 1.3-1.1 2.3-2.3 2.3-1.3 0-2.3-1.1-2.3-2.3 0-1.3 1.1-2.3 2.3-2.3 1.3-.1 2.3 1 2.3 2.3m6.9 21.6c0 1.3-1.1 2.3-2.3 2.3-1.3 0-2.3-1.1-2.3-2.3 0-1.3 1.1-2.3 2.3-2.3 1.3 0 2.3 1 2.3 2.3"/><path fill="#DEDFDE" d="M137.5 96.6v6.6c0 1.5-1.2 2.7-2.7 2.7H91.6c-1.5 0-2.7-1.2-2.7-2.7v-6.6c0-1.5 1.2-2.7 2.7-2.7h5.3c1.3 0 2.4-1.1 2.4-2.4v-6.2c0-7.8 6-14.5 13.8-14.8 8.3-.4 15.2 6.2 15.2 14.5v6.6c0 1.3 1.1 2.4 2.4 2.4h4.2c1.4-.1 2.6 1.1 2.6 2.6"/><path d="M109.6 102.1s-.1.1-.2.1-.3.1-.4.1h-.4c-.2 0-.4 0-.5-.1-.1-.1-.1 0-.2-.2-.1-.1-.2-.3-.2-.5v-.3c0-.1 0-.1.1-.2s.1-.2.3-.3c.1 0 .2-.1.4-.1.1 0 .2 0 .5-.1H109.6s.1 0 .2-.1.1 0 .2-.1v.9s0 .4-.1.6c-.1.2-.3.3-.3.3m-2.1-3.2c.2-.1.4-.1.5-.2.1 0 .3-.1.5-.1h.6c.2 0 .4.1.6.1.1 0 .3.2.3.3.1.1.1.1.1.3v.1s0 .1-.1.1l-.1.1-.1.1c-.1 0-.1 0-.2.1s-.2 0-.3 0c-.4 0-.7.1-.9.1-.2 0-.3.1-.4.1-.1 0-.2.1-.3.2-.1.1-.1.2-.2.3 0 .1-.1.2-.1.3v.4c0 .2 0 .4.1.6.1.2.3.4.5.5.2.1.5.2.9.2h.4c.1 0 .2 0 .5-.1.1-.1.2-.1.4-.3l.2-.2v.5h.9c-.1-.4-.1-.4-.1-.6v-2.5c0-.2-.1-.5-.1-.6 0-.1-.1-.3-.3-.4s-.4-.3-.6-.4c-.2 0-.4-.1-.6-.1h-.8c-.2 0-.4.1-.8.2-.5.6-.5.8-.5.9m18.2 3.1s-.1.1-.2.1-.2.1-.3.1h-.4c-.2 0-.4 0-.5-.1-.1-.1-.1 0-.2-.2-.1-.1-.2-.3-.2-.5v-.3c0-.1 0-.1.1-.2s.1-.2.3-.3c.1 0 .2-.1.4-.1.1 0 .2 0 .5-.1H125.8c.1 0 .1 0 .2-.1s.1 0 .2-.1v.9s0 .4-.1.6c-.3.2-.4.3-.4.3m-2.1-3.1c.2-.1.4-.1.5-.2.1 0 .3-.1.5-.1h.6c.2 0 .5.1.6.1.1 0 .3.2.4.3.1.1.1.2.1.4v.1l-.1.1-.1.1s-.1.1-.2.1c0 0-.1 0-.2.1h-.3c-.4 0-.7.1-.9.1-.2 0-.3.1-.4.1-.1 0-.2.1-.3.2-.1.1-.1.1-.2.3 0 .1-.1.2-.1.3 0 .1-.1.3-.1.4 0 .2 0 .4.1.6.1.2.3.4.5.5.2.1.5.2.9.2h.4c.1 0 .3 0 .5-.1.1-.1.3-.1.4-.3l.2-.2v.5h.9c-.1-.4-.1-.4-.1-.6v-2.5c0-.2-.1-.5-.1-.6 0-.1-.1-.3-.3-.4-.1-.1-.4-.3-.6-.4-.2 0-.4-.1-.6-.1h-.8c-.3 0-.4.1-.8.2-.4.4-.4.6-.4.8m-12 3.8l.1-.3v-3.5c0-.2-.1-.5-.1-.6.1 0 .4 0 .6-.1h.3v.6c.1-.2.3-.2.3-.3 0-.1.1-.1.3-.2.1-.1.2-.1.4-.1h.9c.1 0 .2.1.3.1.1 0 .2.1.3.2.1.1.1.1.2.3 0 0 .2-.2.5-.4s.6-.3.9-.3c.2 0 .6 0 .8.1s.5.2.6.3c.1.1.1.2.3.3.1.1.2.5.2.6v2.9c0 .2 0 .2.1.5h-.9c.1-.4.1-.3.1-.5v-2.6c0-.2 0-.4-.1-.5 0-.1-.2-.3-.3-.4-.1-.1-.2-.1-.3-.1h-.8c-.1 0-.2 0-.3.1-.1 0-.1.1-.2.2 0 .1-.1.2-.2.3v3.2l.1.4h-1v-3.2-.3c0-.1-.1-.3-.2-.3-.1-.1-.3-.3-.4-.3-.1 0-.3-.1-.4-.1s-.2 0-.4.1c-.1 0-.2.1-.3.2-.1.1-.2.1-.3.3 0 .1-.1.1-.1.4v2.8c0 .2.1.3.1.5h-.7c0-.3-.2-.3-.4-.3m11.1-.8v.3c0 .1 0 .3-.1.4-.2 0-.4.1-.6.1h-.8c-.3 0-.6 0-.9-.1-.3-.1-.6-.3-.8-.5-.2-.2-.4-.4-.6-.7-.1-.3-.2-.6-.2-.9 0-.5 0-.6.2-1.1.1-.4.5-.7.8-1 .3-.2 1-.4 1.6-.4.4 0 .9 0 1.2.2v.6c-.3-.1-.6-.2-.7-.3h-.5c-.3 0-.8.1-1 .2-.2.1-.4.2-.5.4s-.2.4-.3.7c0 .3-.1.3 0 .6 0 .4.1.6.2.9.1.3.3.5.6.6.2.1.5.3.8.3.4.1 1 .1 1.6-.3m4.8.7l-.1-.3s-.1-.2-.1-.5c.5.3 1.1.5 1.5.5.2 0 .4-.1.6-.1.1 0 .3-.1.4-.3 0-.1.1-.2.1-.3v-.2s0-.2-.1-.3l-.3-.3c-.1 0-.3-.2-.6-.3-.3-.1-.6-.2-.8-.4-.1-.1-.4-.2-.5-.4-.1-.1-.1-.2-.2-.4v-.4c0-.2.1-.4.2-.6.1-.2.3-.3.6-.4.2-.1.5-.1.8-.1.4 0 .7.1 1.1.1v.6c-.3-.2-.6-.3-1-.3-.2 0-.4 0-.5.1s-.3.2-.4.3c0 .1-.1.2-.1.3v.3s.2.3.3.3c.1 0 .1 0 .2.1.1 0 .5.2.8.3.3.1.6.4.7.5.1.1.2.2.3.5 0 .1.1.3.1.4v.3c0 .2 0 .3-.1.5s-.3.4-.6.5c-.3.1-.5.2-.8.2h-.6c-.2 0-.3-.1-.5-.1-.1 0-.2 0-.4-.1m5.8-.4c0 .1-.1.2-.1.5-.2 0-.3.1-.4.1h-.3c-.3 0-.5 0-.6-.1-.1-.1-.3-.2-.4-.3-.1-.1-.1-.6-.1-.8v-2.9h-.6v-.4h.6v-.8c0-.1-.1-.3-.1-.4.3 0 .6-.2.8-.2v1.4h1.2v.5h-1.2v2.8c0 .2 0 .5.1.6l.2.2h.5c.1-.1.1-.2.4-.2m-26.8-.3c0 .2-.1.4-.1.6-.3.1-.7.2-.9.3h-.6c-.4 0-.7-.1-1-.2-.3-.1-.6-.3-.8-.5-.2-.2-.4-.5-.5-.8-.1-.3-.1-.6-.1-.9 0-.5 0-.6.2-1.1s.5-.7.8-.9c.3-.2.7-.3 1.2-.3.3 0 .6 0 .8.1l.6.3c.1.2.3.4.4.6.1.3.1.3.1.6v.5h-3.4v.3c0 .3 0 .6.2.9s.3.5.6.6c.3.1.6.3.9.3.4 0 1.1-.1 1.6-.4m-3.1-2.2h2.4v-.3c0-.1 0-.2-.1-.3 0-.1-.1-.2-.3-.3-.1-.1-.2-.1-.3-.2h-.5c-.2 0-.3 0-.4.1s-.3.1-.4.2l-.3.3c-.1.1-.1.2-.1.4v.1m-3.8 3.2c0-.1.1-.2.1-.3v-4l-.1-.3h.9v.8c.1-.2.1-.2.2-.3 0-.1.2-.2.3-.3.1 0 .2-.1.3-.2.1 0 .2-.1.4-.1h.5c.3 0 .4.1.5.1 0 .1-.2.6-.2.6s-.2 0-.4-.1h-.4c-.1 0-.4 0-.5.1s-.3.1-.4.3-.1.3-.2.4v3l.1.3h-.7c0-.1-.2 0-.4 0m-6.9 0l.1-.5v-5.6c0-.2-.1-.3-.2-.6h3c.5 0 .6 0 1 .1.3 0 .7.3 1 .5.2.1.5.3.6.6.2.3.3.3.4.6.1.4.3.8.3 1.2 0 .6 0 1-.2 1.5s-.5.9-.9 1.2c-.3.4-.7.6-1.2.6-.4.1-.9.2-1.5.2h-1.3l-1.1.2zm1.2-.5h1.8c.2 0 .5-.1.7-.2.2-.1.4-.2.6-.4.2-.2.4-.4.5-.6.1-.3.2-.5.3-.8s.1-.6.1-.9c0-.4-.1-.6-.2-.9-.1-.3-.3-.7-.5-.9-.3-.2-.5-.4-.8-.5-.3-.1-.7-.2-1.2-.2h-1.4l.1 5.4z"/><path fill="#3E649F" d="M113.9 86.7c0-.8-.4-.7-.6-.7-.3 0-.9.1-1.5 0-.7-.1-1.1-1.1-1-1.6.4-1.3 1.2-1.5 1.8-1.5.5 0 1.3 0 2.4 1 .5.4.8 1.6.8 2.2 0 .8 0 1.7-.5 2.2-.8.8-2.8 1.5-3.9 1.5-4.5-.5-4.3-4.7-4.3-4.7s-.4-1.8 1.2-3.7c.1-.1.3-.5.5-.7s.3-.2.5-.4c.2-.1.4-.2.6-.4.5-.3 1-.6 1.5-.7.8-.2 1.5-.3 2.1-.3 1.8 0 3.8 1.1 4.8 2.6.1.2.3.4.4.6.3.2.4.6.6 1 .2.6.1.4.4 1.4.2.7.3 1.2.3 1.7v.7c0 .8.1 1 0 1.6-.3 1.1-.9 2.1-1.5 2.6-1 1-1.9 1.2-2.4 1.5s-.7.3-1.4.6-1.1.3-2.3.3-2.2-.1-2.5-.1c-2.1-.6-2.9-1-3.8-1.8-2.4-1.9-2.9-5.6-2.9-5.6s-.3-1.9.1-3.8c.2-1.1 1.3-3 1.9-3.7.5-.6 1.7-1.6 2.4-2 .7-.5 1.7-1.1 2.9-1.4.6-.2 1-.3 2.3-.3 1.5 0 3.7.3 5 .7 1.3.4 2.6 1.3 3.2 2 .6.7 2.1 2.8 2.3 3.2.3.4.9 2.7 1 3 0 .3.2 1.3 1.2 1.3.9-.1.6-1.2.6-1.3 0-.2-.4-2-.5-2.5-.1-.5-.9-1.8-1.1-2-.1-.1-.7-1.2-1.4-2.1-.5-.6-1-1.2-1.5-1.6-1-.6-2.3-1.2-2.3-1.2s-2.2-.7-3.3-.9c-1-.1-2-.3-3.8-.2-1.8.1-2.7.6-3.4.8-.6.3-2.1.9-3.2 1.8s-.7.5-1.3 1.1c-.6.6-.7.8-1.2 1.4-.4.6-1.2 2.2-1.6 3.3-.1.5-.3 1.2-.4 1.8-.1.6-.1 1.1 0 1.6.1 1 0 1 0 1s.5 1.8.7 2.6c.3.7.6 1.8 2.1 3.5s2.9 2.1 3.5 2.4c.5.2 2.3.8 4.7.9 2.7 0 3.5-.6 3.9-.7.5-.2 2.2-.9 3.5-2.2 1.3-1.2 1.8-2.6 1.8-2.7.4-1.1.5-2.8.1-4.4-.2-1.1-.4-2.1-.6-2.8-.4-1.2-.9-1.8-1.2-2.4s-1.3-1.2-1.9-1.6c-.3-.2-.6-.4-1-.6-.4-.2-.9-.3-1.5-.4-.6-.1-1.3-.3-1.9-.3h-1.2c-.3 0-1.2.1-2.5.8-.7.4-1.5.8-2.3 1.7-.3.3-.5.6-.7.9-1.8 2.5-1.2 5.4-1.2 5.4s.3 3.8 3.7 4.9c1.2.4 2.3.4 3.1.3 1.5-.2 2.5-.8 3.3-1.2.7-.4 1.3-1 1.6-1.7.3-.6.4-1.3.3-1.8 0-.3 0-.7-.1-1.2-.1-1.2-.5-2.3-1.4-3.1l-.3-.2c-.2-.1-.3-.2-.5-.3-.8-.4-1.6-.6-2.8-.6-.4 0-1 .1-1.3.3-1.3.6-2.1 1.8-2 3.4 0 1.4 1.4 2.2 1.7 2.4.1 0 3.1.7 3.2-.6"/><path fill="#C1C3C2" d="M102.6 211.4h18.6l9.7-20.9c-6.1 1.6-12.4 2.4-19 2.4-6.5 0-12.9-.8-19-2.4l9.7 20.9"/><path fill="#8C8C8C" d="M20.5 210h.3c.5 0 .8-.2.8-.7 0-.4-.3-.6-.8-.6h-.4l.1 1.3zm-.4-1.5h.8c.4 0 .7.1.9.3.2.1.3.4.3.7 0 .3-.1.5-.2.7-.2.2-.6.4-1 .4h-.3v1.3h-.5v-3.4zm2.8 1.5c0 .7.4 1.3 1 1.3s1-.6 1-1.3c0-.6-.3-1.3-1-1.3s-1 .7-1 1.3m2.5 0c0 1.1-.7 1.7-1.5 1.7-.9 0-1.5-.6-1.5-1.7s.6-1.7 1.5-1.7c.9.1 1.5.7 1.5 1.7m1.1 1.7l-.8-3.2h.5l.4 1.6c.1.4.2.8.2 1.1 0-.3.1-.7.3-1.1l.4-1.6h.4l.4 1.7c.1.4.2.8.2 1.1 0-.4.1-.7.3-1.1l.4-1.6h.4l-.9 3.2h-.4l-.4-1.7c-.1-.4-.2-.7-.2-1.1 0 .3-.1.6-.2 1.1l-.5 1.7-.5-.1zm5.2-1.6h-1.2v1.2h1.4v.4H30v-3.2h1.8v.4h-1.3v1h1.2v.2zm1.1-.1h.4c.5 0 .7-.2.7-.6 0-.4-.3-.6-.7-.6h-.4v1.2zm-.4-1.5h.8c.5 0 .7.1.9.3.2.1.3.4.3.6 0 .4-.3.7-.6.8.2.1.4.3.5.6.1.5.2.8.2.9H34c0-.1-.1-.4-.2-.8-.1-.5-.3-.6-.6-.6h-.4v1.4h-.4v-3.2zm158.8 1.5c0 .7.4 1.4 1.2 1.4.7 0 1.2-.7 1.2-1.5 0-.7-.4-1.4-1.2-1.4s-1.2.8-1.2 1.5m2.7 0c0 1.2-.7 1.9-1.7 1.9-.9 0-1.6-.7-1.6-1.8s.7-1.8 1.7-1.8c1-.1 1.6.6 1.6 1.7m1.1 0h.4c.6 0 .9-.3.9-.7s-.3-.7-.8-.7h-.4l-.1 1.4zm-.5-1.7c.2 0 .5-.1.9-.1.5 0 .8.1 1 .3.2.2.3.4.3.7s-.1.6-.3.7c-.2.3-.6.4-1.1.4h-.4v1.4h-.5v-3.4h.1zm4.7 1.9h-1.4v1.3h1.5v.4h-2v-3.6h1.9v.4h-1.5v1.1h1.4v.4h.1zm.7 1.6v-3.6h.5l1.2 1.8c.3.4.5.8.6 1.2v-3h.4v3.6h-.5L201 210c-.2-.4-.5-.8-.6-1.2v3h-.5z"/></svg>