<svg xmlns="http://www.w3.org/2000/svg" width="209.92635" height="200.00032">
  <path fill="#dedfde" d="M67.87709 59.889029l-.0085-.004c-.03743-.0219-.204816-.113-.492266-.26979h-.0021c-.300162-.16103-.730983-.3941-1.283281-.68579 0 0-.0021 0-.0021-.002-.0021 0-.0021-.002-.0042-.002-.370082-.19564-.794546-.41952-1.268449-.6653-.158909-.0826-.322056-.16809-.492266-.25708-.624337-.32418-1.320712-.68296-2.088421-1.0707-.141253-.0734-.282505-.14549-.428702-.21965-.06921-.0346-.141253-.0713-.213291-.10876-.291687-.14761-.593968-.29804-.902605-.45484-.233067-.11512-.472491-.23447-.714033-.35454-.3609-.1801-.730982-.36514-1.113777-.55442-.12854-.0636-.259199-.12854-.39127-.19139-.646231-.31994-1.320713-.64835-2.019208-.98595-.0092-.004-.01766-.008-.02613-.0127-.271912-.13278-.548767-.26556-.827035-.39833-.01059-.004-.02189-.0106-.03249-.0155-.422346-.20411-.853167-.40893-1.292462-.61798-.3157-.14973-.637756-.30228-.966169-.45625-1.211948-.57278-2.484635-1.16251-3.805348-1.76283-.197754-.0911-.397626-.18292-.600324-.27191-.476728-.21753-.959106-.43506-1.449253-.65259-.208347-.0961-.421639-.18928-.637049-.28533-.311463-.13914-.626456-.27827-.944275-.41952-.400451-.17657-.807259-.35455-1.216186-.53323-.315699-.13702-.633518-.27403-.953455-.41316-2.971957-1.28399-6.10918-2.58281-9.35093-3.84702-.354544-.13914-.711207-.27615-1.070695-.41529-.295925-.113-.593968-.22882-.89413-.34183-.467546-.17798-.937918-.35666-1.409702-.5304-.557242-.20905-1.118015-.41599-1.681613-.62293-.504979-.18433-1.012076-.36725-1.519173-.54594-.11724-.0431-.236599-.0847-.358782-.12783-1.185817-.42235-2.377989-.83339-3.576519-1.23384h-.0028c-.208347-.072-.41952-.14126-.630693-.21118-7.773843-2.5715-15.7150701-4.65569-23.04961697-5.63315-.06285745-.28675-.05861987-.6088.024013-.97253.53746656-2.37799 2.01920747-4.14223 3.83147967-5.62821 6.3055213-5.16773 13.7050443-8.27035 21.2260443-11.12436 10.0805-3.82512 20.432204-6.73422 30.915274-9.2124998 5.782886-1.36803 11.60956-2.5369 17.455303-3.60265 4.103392-.74864 8.226558-1.43372 12.367381-1.93446 3.463517-.41952 6.924914-.88353 10.408206-1.18158C101.05883.65804918 105.73006.34234918 110.42106.15942918c2.56727-.10029 5.1416-.23025 7.69545-.11301 4.17543.19352 8.35298.38704 12.51923.77478 2.72618.25213002 5.46295.42587002 8.18277.73098002 3.25093.36302 6.48632.86376 9.71253 1.43159 4.14295.72675 8.18065 1.78403 12.07994 3.34204 2.89568 1.15686 5.60208 2.68875 8.15875 4.4770098.62434.43788.88071 1.12296 1.12014 1.81721 1.34048 3.85762 2.23673 7.83882 3.19654 11.79884.89837 3.71142 1.72753 7.4412 2.57575 11.16603.072.31287.15255.86588.17656 1.19005-.0134-.009-.024-.0155-.0374-.0219-.70273-.43718-1.42029-.90967-2.1428-1.38852-2.9091-1.81227-5.95098-3.43738-9.10303-4.85556-9.61225-4.32586-20.2733-6.72998-31.49583-6.72998-8.40029 0-16.4856 1.34684-24.05039 3.83783-.2027.0678-.40681.1349-.6095.2027-11.187213 3.78769-21.219687 10.07979-29.428588 18.21313-4.205799 4.16413-7.934871 8.81346-11.093988 13.85689M108.41523 199.90134c-3.70082-.0565-7.40588-.3941-11.102458-.76559-2.93735-.29592-5.876819-.57702-8.805694-.94004-3.14146-.39197-6.278683-.83551-9.403193-1.34684-5.043428-.8228-10.073437-1.71693-15.075195-2.77209-6.316115-1.3313-12.589147-2.83494-18.818392-4.52503-4.287726-1.1618-8.54367-2.43943-12.753707-3.84278-4.832255-1.6124-9.632022-3.32862-14.27288-5.45659-3.91835-1.79744-7.81975-3.62031-11.3574238-6.11553-2.4344904-1.71481-4.7298469-3.58359-6.17203702-6.27516-.30722464-.57207-.5657171-1.17946-.48308426-1.86241-.0459071-.0932-.08051404-.18504-.11088337-.2698.41528296-.0523.83339097-.10876 1.25291145-.16738.4484774-.0636.8983673-.12854 1.3489634-.19846.6073866-.0953 1.2161858-.19564 1.82781-.30228.050145-.008.1002895-.017.1497279-.0261.4159892-.0734.833391-.14973 1.2536178-.22813.39127-.0742.7853651-.15043 1.1794601-.22883 26.1282198-5.18044 55.7806948-20.36652 60.2972498-22.72967-.0021-.004-.0021-.008-.0042-.0127.22883-.12006.426584-.22176.58973-.30722 7.290759 11.58837 17.593025 21.09397 29.805028 27.41856 4.658509 2.4133 9.593179 4.36259 14.747489 5.78783.0261.008.0544.0148.0826.0212 6.51599 1.79744 13.38016 2.75725 20.46893 2.75725 1.45137 0 2.89144-.0396 4.32092-.12218h.006c.0826-.002.16526-.006.2486-.0127h.004c2.67815-.15679 5.31958-.45059 7.91721-.87717h.002c.008 0 .0177-.002.0261-.004h.002c11.06998-1.81439 21.34399-5.99406 30.286-12.00366-.1349.30723-.31782.59609-.57631.85953-.29593 2.62165-1.00502 5.15854-1.58627 7.72157-.96617 4.25595-2.20213 8.44833-3.17466 12.69792-.66106 2.89144-2.67603 4.2404-4.96503 5.57595-4.90994 2.86531-10.26483 4.41697-15.77157 5.54417-4.3753.89625-8.80499 1.45984-13.23891 1.93586-3.15064.33972-6.33377.38068-9.48865.70697-6.21159.64624-12.43872.45908-18.65666.36585"/>
  <path fill="#a7a8a8" d="M133.83624 137.26627c-8.08531-.14337-15.30403-2.83706-21.60036-7.89814-6.35991-5.11265-10.66317-11.6357-12.527707-19.58328-2.574331-10.968271-.613743-21.178721 6.093637-30.257741 5.65082-7.65025 13.3046-12.31653 22.6972-14.04405 2.38717-.44 4.79553-.62222 7.22154-.62222 20.77827.002 41.55584.002 62.33411-.003h.0657c.38279 0 1.12437.009 1.69009.0113.0261.0431.048.0869.072.13066.24578.45907.48521.92026.71757 1.38357-6.84864-.006-15.95661-.004-22.71626-.004-14.13799 0-28.27385-.0113-42.41113.006-5.99194.006-11.70137 1.26845-16.9927 4.14012-5.97004 3.23539-10.6109 7.82822-13.95506 13.75943-3.46775 6.15508-4.797648 12.7869-4.24041 19.751361.60951 7.61705 3.52214 14.3315 8.61571 20.07554 5.30687 5.98276 11.92102 9.64474 19.74501 11.14343 1.736.33336 3.49389.54665 5.27579.52687 3.29825-.0325 6.60357.10453 9.89334-.0629 4.92548-.25284 9.85379.0148 14.7708-.21753 4.81671-.22882 9.63626.0127 14.44238-.21541 4.99752-.23942 9.99928.0106 14.98832-.22671 3.3597-.16102 9.12705-.0763 12.59551-.16738-.25708.51133-.52264 1.02055-.79455 1.52553h-1.87513c-2.64778-.005-5.2998-.0982-7.94123.0431-5.06955.27191-10.14547-.006-15.21079.22883-4.74539.21965-9.49218-.0155-14.23121.20835-4.99964.2373-10.00211-.008-14.99257.22883-3.91199.18504-7.82398.20905-11.72962.13913M.06646778 165.70722c0-.006-.0021188-.0106-.0021188-.0148-.18292226-.57278.0176566-.96193.68507564-1.35603 3.68598948-2.16046 7.70251018-3.49812 11.72962538-4.7927 5.019414-1.6124 10.103806-3.04188 15.280011-4.025 1.822866-.34818 2.454266-1.24231 2.861074-2.8526 1.522704-6.05267 2.861073-12.14702 3.857611-18.30423.67872-4.1952 1.224661-8.41371 1.609575-12.64988.335475-3.6641.677307-7.32325.883536-11.00006.202697-3.60971.335475-7.22366.350306-10.833371.01554-4.00734-.151846-8.02386-.430821-12.02485-.314993-4.56458-.726745-9.12916-1.303056-13.66832-.954868-7.54501-2.164697-15.05118-3.990389-22.44646-.456952-1.85606-1.000775-3.69447-1.370857-5.56536-.02613-.1243-.0565-.2373-.09323-.33971l-4.854149-1.80592c-5.713672-1.30729-11.385675-2.78056-16.9425564-4.6797-2.3970585-.82068-4.7319657-1.79956-6.9051386-3.13087-.6660066-.40681-1.13143426-.88353-1.2663306-1.52553 7.3338406.97677 15.2757746 3.06166 23.0496166 5.63316.210467.0699.419521.13914.630694.21117h.0021c1.19853.40046 2.391409.8115 3.577225 1.23314.121478.0438.240836.0855.358782.12854.509216.1808 1.013488.36373 1.518467.54594.563598.20694 1.125078.41387 1.681613.62222.472491.17657.942156.35313 1.410409.53111.300162.113.598205.22883.894129.34183.358782.13914.713326.27615 1.069989.41528 3.242456 1.26422 6.379679 2.56304 9.351636 3.84702.319937.13914.63705.27615.952749.41317.408927.17868.815735.35666 1.216186.53323.317819.14125.633519.28038.944275.41952.21541.096.428702.18927.637756.28533.48944.21753.972525.43505 1.449252.65258.201992.089.401864.18081.600324.27192.658944.30016 1.307294.5982 1.942931.89201.15891.0742.317113.14831.473903.21964.313581.14832.624337.29169.931562.43506.151847.072.304399.14408.456952.21541.328413.15467.650469.30723.966169.45696.439296.20905.870117.41598 1.291756.61798.0113.004.02189.0113.03319.0155.278268.1349.554417.26768.826329.39834.0092.004.01766.008.02613.0127.698495.33971 1.372977.66812 2.019208.98594.132777.0629.263436.12784.391976.1914.380676.18928.752171.37432 1.113778.55442.241542.12006.480965.23942.713326.35454.309343.15679.611624.30935.903311.45484.07133.0374.143371.0742.213292.10876.14549.0742.288861.14832.427995.21965.768415.38774 1.464791.74652 2.089128 1.07069.169503.089.33265.17445.491559.25708.474609.24578.898367.46967 1.26845.6653.0021 0 .0021.002.0042.002 0 .002.0021.002.0021.002.553004.29169.983825.52476 1.283987.68578h.0021c.287449.15679.454834.2479.491559.2698l.0085.004c-.254254.40469-.504272.81362-.750051 1.22466-1.138497-.5982-17.608563-9.22238-34.087104-15.02716 0 0 6.707385 28.57118 6.744817 53.6287l-.06356-.0911c0 25.107671-6.744817 55.180371-6.744817 55.180371 16.437578-5.78925 32.934482-14.00945 34.152786-14.62036.271912.452.545942.89836.826329 1.34401-.163147.0855-.360901.18716-.589024.30723-6.105648 3.16124-35.02714 17.70391-60.2937185 22.74239-.3940951.0784-.7874839.15467-1.1794601.22883-.4195206.0784-.8376286.15467-1.2529115.22812-.050145.009-.1002895.0177-.1504342.0261-.6116242.10664-1.2204234.20693-1.82781.30228-.4498899.0699-.900486.1356-1.3489634.19846-.41952055.0586-.83762857.11512-1.25291153.16738"/>
  <path fill="#e4e5e4" d="M39.727686 99.602369l.06286.0911c-.03673-25.05752-6.744817-53.6287-6.744817-53.6287 16.479247 5.80478 32.949313 14.42896 34.087104 15.02716-.151847.25497-.3044.50922-.452009.7663-4.676171 7.98713-7.950409 16.89171-9.486532 26.38036l.803022.35242.276149.11936c-.04096.26767-.08263.53747-.121477.80726-.02401.16103-.04803.32417-.06992.4852-.0042.0311-.0085.0593-.01342.0876-.03885.2825-.07557.56572-.113003.85034-.04732.36796-.09111.73734-.132777 1.10742-.03885.34819-.07557.69638-.110884 1.04457-.0042.0544-.01059.11088-.01483.16526-.0332.33901-.06356.67872-.09181 1.02055-.36302-.20693-.726746-.41104-1.094003-.6095-2.103959-1.15333-4.2623-2.21061-6.442536-3.23963-1.286106-.60457-1.709864-.40893-1.794615 1.00995-.178685 3.06519-.520516 6.12401-.450596 9.200501-.0784 3.11391.289568 6.20735.450596 9.30996.07133 1.35109.502153 1.56861 1.738114 1.06858 2.247331-.91179 4.42121-1.95141 6.529407-3.10473.365138-.19988.730982-.40469 1.091883-.61163.05438.62646.117946 1.25362.18716 1.87584.02401.22388.05015.44565.0784.67024.0678.56289.144078 1.12437.224592 1.68373.02543.18081.05156.35879.07981.53959.0092.0671.01978.13701.03108.20482l-.324175.14125-.757114.33053c1.498691 9.46676 4.727728 18.36073 9.350929 26.34363.206935.35878.417402.71615.630694 1.0707-1.218305.61091-17.714503 8.83111-34.15208 14.62036 0 0 6.744817-30.0727 6.744817-55.180371"/>
  <path fill="#a7a8a8" d="M133.05949 177.5127c-7.08877 0-13.95294-.95981-20.46893-2.75655-.0282-.006-.0565-.0134-.0826-.0219-5.15431-1.42524-10.08898-3.37453-14.747491-5.78713-12.212033-6.32528-22.514299-15.83088-29.805058-27.41855-5.404328-8.58958-9.157413-18.32612-10.808657-28.75905l.757115-.33053.324175-.14125c.156084 1.01631.334769 2.02556.530404 3.02845.05933.30228.120064.60527.185041.90755.07628.3722.15679.7437.241542 1.11378.03743.1695.07628.33971.115121.50922.01554.065.03108.13066.04591.19351.07204.30864.148315.61586.223885.9245.06568.26132.130659.52264.19846.78325.03673.14196.07628.28533.113003.42658.03461.1349.07204.26767.108764.40257.09111.33971.185041.6766.282506 1.01137.05721.19634.113708.39198.172328.58761.0784.26556.15679.53111.239423.79455.07133.23236.143372.46543.219648.69567.09746.31146.197754.6201.302281.92944.07416.22177.148315.44565.226004.66813.185041.5417.376439 1.08129.577018 1.61875.08899.24578.182922.49368.276149.73946.0042.0106.0085.0219.01271.0325.09817.25496.196342.51133.29875.76629.105939.27192.21541.54383.326294.81362.03461.0869.06921.17162.10382.25637.06356.15044.124303.30017.189279.4506.104527.25214.213292.50498.322056.755.102408.23942.206935.47672.311462.71332.254255.56784.513454 1.12932.779009 1.68868.158909.33477.319938.67024.485203 1.00077.163147.33265.328413.66389.497916.99442.113002.21965.226711.4393.341832.65683.06286.12218.126421.24366.191397.36372.0064.0127.01271.0261.02189.0388.07416.14125.149728.28321.226004.42446.811497 1.50293 1.673139 2.9762 2.582806 4.41627.0784.1243.156791.24648.235186.36796.158203.25214.322056.50498.487322.75288.221767.33971.445652.6766.674481 1.01137.02119.0332.04308.0636.06498.096.08051.11936.163147.24154.247898.3609.08263.12218.165266.24154.250018.36161.13984.20199.281092.40257.424464.60032.283212.40045.572073.79596.865879 1.19005.104527.14338.211173.28534.317819.42659.01978.0283.04167.0544.06286.0826.07416.10029.150434.19775.226711.29804.09111.12148.185041.24366.280386.36585.298043.38491.598206.76771.903311 1.14626l.0064.006c.306518.3828.61798.76135.930855 1.13567.156791.18928.3157.37644.474609.56148.167385.19564.334769.39198.50286.58549.153965.17586.306518.35031.46119.52193.258492.29381.51981.58338.783246.87012.167385.18504.336888.36796.509216.55089.101702.11088.206229.22176.310756.33265.44424.46966.89413.93368 1.348963 1.39275l.06286.0628c5.411391 5.43047 11.642754 10.04731 18.491392 13.6436 4.806129 2.52419 9.919469 4.54975 15.269419 6.00113 6.33801 1.72328 13.00655 2.64142 19.8905 2.64142.96617 0 1.92951-.0177 2.88509-.0544 3.76579-.14196 7.46026-.55724 11.06785-1.22961 10.72391-1.99731 20.65186-6.25325 29.27392-12.26214 8.60723-5.99194 15.91141-13.72906 21.40049-22.69508.7444-1.21406 1.45561-2.45214 2.13009-3.71141.27191-.50498.53747-1.0142.79455-1.52553 5.22776-10.28249 8.17147-21.9203 8.17147-34.24601 0-12.329951-2.94795-23.974121-8.18277-34.262971-.23236-.46331-.47178-.9245-.71756-1.38357-.024-.0438-.0459-.0876-.072-.13066-.002-.004-.004-.006-.006-.0113-.15679-.29098-.31358-.58054-.47461-.86799-.10241-.18928-.20905-.37644-.3157-.5636-.10594-.1914-.21541-.3828-.32629-.57208-.0586-.1024-.11724-.20411-.17798-.30651-.1243-.21753-.25284-.43506-.38562-.65259-.0713-.1243-.14761-.25072-.22389-.37432-.18716-.31358-.37855-.62646-.57207-.9358-.20199-.32418-.40681-.64623-.61586-.96617-.0367-.0607-.0763-.12148-.11512-.1801-.19776-.30722-.40045-.61374-.60527-.91602-.226-.34183-.45907-.67872-.69355-1.01631-.23095-.33689-.46825-.67237-.7098-1.00502-.0388-.0565-.0798-.11512-.12571-.17444-.1349-.18928-.27403-.38068-.41317-.56784-.17232-.23448-.34818-.46966-.52475-.70273-.13278-.17798-.26767-.35455-.40469-.53041-.14761-.19634-.29804-.38985-.45271-.58337-.30228-.38703-.6088-.77053-.92026-1.15121-.15397-.1914-.31076-.38067-.46967-.56783-.15467-.18928-.31358-.37856-.47461-.56572-.48308-.56996-.97464-1.13355-1.4775-1.68797-.15397-.17657-.31288-.35031-.4739-.52193-.62858-.6879-1.27269-1.3645-1.93022-2.02839-.20623-.20835-.41317-.4174-.62434-.62434-.28886-.28674-.58055-.57207-.87647-.85246-.002-.002-.004-.005-.004-.005-.29381-.28251-.58973-.56077-.88989-.83763-.30016-.27827-.60315-.55442-.90755-.82633-.3044-.27403-.61163-.54594-.92026-.81361-.2479-.21541-.4958-.4287-.74652-.63988-.50004-.42446-1.00502-.83974-1.51635-1.24867-.25426-.20694-.51134-.40893-.76983-.61163-4.76304-3.72483-9.98233-6.89242-15.5611-9.40107-9.47312-4.26442-19.98161-6.63817-31.04523-6.63817-5.03707 0-9.95832.49156-14.72065 1.4316-14.51442 2.85895-27.53863 9.86438-37.787927 19.73371-4.741147 4.56246-8.888326 9.73654-12.312292 15.39513-.557242.92026-1.096827 1.85394-1.614518 2.80033-.08475.15044-.165266.30228-.247899.45484-.08334.15255-.163147.3044-.243661.45695-.168091.3157-.333356.63069-.496503.94851-.161028.3157-.322056.63281-.478847.95275-.134896.27191-.267674.54382-.397626.81644-.0678.13914-.134896.28039-.200579.42164-.09323.19352-.185041.38986-.27403.58549-.04096.0869-.08263.17586-.121478.26556-.09605.20623-.189278.41316-.281092.6201-.317819.70909-.624337 1.42241-.918143 2.14492-.07628.18504-.151847.37008-.223886.55724-.08263.19987-.163146.40045-.239423.60244-.171622.43294-.337594.87012-.497916 1.31012-.04803.1236-.09393.25002-.137721.37644-.27403.74794-.534642 1.50293-.783246 2.26428-.113003.33972-.221767.67943-.326294 1.02055-.05862.18504-.115121.36797-.169503.55301-.05226.16738-.102409.33265-.149728.50003-.09393.3157-.18716.63352-.274737.95134-.02613.0847-.05014.1695-.07133.25425-.05226.18716-.104527.37644-.154672.5636-.293806 1.08553-.56148 2.17812-.805141 3.2806-.04803.21117-.09323.42022-.137015.6314-.0085.0388-.01766.0784-.02401.11724-.02613.11512-.05014.23094-.07133.34607-.03743.17374-.07416.34818-.106646.51981-.04591.22388-.0897.45059-.130659.67448-.0113.0544-.02189.10664-.03037.16103-.02613.14125-.05226.28321-.0784.42446-.04591.25002-.09182.50215-.132778.755-.05226.30651-.104527.61303-.152553.92026l-.276149-.12007v-.002l-.803022-.3503c1.664664-10.28461 5.371841-19.88344 10.689299-28.37132 3.159117-5.04342 6.888188-9.69276 11.093988-13.85689 8.208901-8.13262 18.241375-14.42472 29.428587-18.21312.2027-.0671.40752-.1349.60951-.20199 7.56479-2.4917 15.65009-3.83784 24.05039-3.83784 11.22253 0 21.88358 2.40412 31.49582 6.72928 3.15276 1.41818 6.19393 3.044 9.10303 4.85627.72251.47814 1.44008.95063 2.14281 1.38781.0134.006.024.0134.0374.0219 20.55792 13.79615 34.0871 37.2547 34.0871 63.872361 0 26.60283-13.51364 50.04795-34.05037 63.84481l-.002.002c-8.94201 6.00889-19.21602 10.18855-30.286 12.00295h-.002c-.008.002-.0177.004-.0261.004h-.002c-2.59763.42659-5.23906.72039-7.91721.87718h-.004c-.0833.006-.16597.0106-.2486.0127h-.006c-1.42948.0833-2.86955.12218-4.32092.12218"/>
  <path fill="#c1c3c2" d="M133.92106 135.78241c-1.7819.0198-3.53979-.19351-5.27579-.52687-7.82398-1.49869-14.43814-5.16067-19.74501-11.14343-5.09357-5.74404-8.00691-12.45849-8.61571-20.07554-.557238-6.964461.77195-13.596281 4.24041-19.751361 3.34416-5.93121 7.98502-10.52404 13.95506-13.75943 5.29133-2.87167 11.00006-4.13376 16.992-4.14012 14.13798-.0177 28.27384-.006 42.41183-.006 6.75965 0 15.86762-.002 22.71626.004 5.23482 10.28885 8.18277 21.93302 8.18277 34.262971 0 12.32571-2.94371 23.96352-8.17147 34.24601-3.46846.0911-9.23581.006-12.59551.16738-4.98904.23731-9.9908-.0127-14.98832.22671-4.80612.22813-9.62567-.0134-14.44238.21541-4.91701.23237-9.84532-.0353-14.7715.21753-3.28907.16739-6.59439.0304-9.89264.0629"/>
  <path fill="#dedfde" d="M133.05949 176.37046c-20.96543 0-39.939909-8.52036-53.651309-22.28615-11.048081-11.09187-18.680671-25.59287-21.180137-41.78679-.254961-1.64065-.454834-3.30037-.601031-4.9735 2.717702-1.55378 5.324521-3.29825 7.837407-5.20446 1.420296-1.07917 1.372976-1.32283.01483-2.452151-2.469097-2.05593-5.123235-3.80111-7.880488-5.3676.154672-1.87513.378557-3.73331.668125-5.56748 1.555899-9.84248 5.008821-19.05499 9.971735-27.25047 3.423966-5.65929 7.571145-10.83337 12.312292-15.39584 10.249297-9.86862 23.273506-16.87475 37.787926-19.73371 4.76233-.94003 9.68358-1.43159 14.72065-1.43159 11.06362 0 21.57211 2.37375 31.04523 6.63817 5.57877 2.50865 10.79806 5.67624 15.5611 9.40107 8.26117 6.45808 15.14512 14.59494 20.1384 23.89855.002.004.004.006.006.0106-.56572-.002-1.3073-.0106-1.6908-.0106h-.065c-20.77828.004-41.55655.004-62.33412.002-2.42601 0-4.83508.18292-7.22154.62222-9.3926 1.72752-17.04638 6.39451-22.69719 14.04405-6.70739 9.07972-8.667978 19.29017-6.094353 30.257741 1.864533 7.94829 6.168503 14.47063 12.528413 19.58398 6.29634 5.06038 13.51506 7.75407 21.60036 7.89744 3.90493.0699 7.81693.0459 11.72892-.13913 4.99116-.23731 9.99363.008 14.99327-.22813 4.73832-.22459 9.48582.0106 14.23121-.20905 5.06532-.23519 10.14124.0431 15.2108-.22883 2.64072-.14125 5.29344-.0473 7.94122-.0431h1.87513c-.67448 1.25926-1.38569 2.49734-2.13009 3.71141-13.30671 21.73809-37.27447 36.24121-64.62735 36.24121"/>
  <path fill="#a7a8a8" d="M48.267895 100.64163c.137015 2.63013.288156 5.26025.404689 7.89109.07416 1.65265.370082 1.85959 1.901261 1.25926 5.12253-2.00861 9.7535-4.87745 14.182479-8.09872.837628-.61021.808671-.87153.02542-1.53118-4.358352-3.671861-9.355167-6.264561-14.492528-8.626301-1.141322-.52476-1.499397-.38209-1.584855.8913-.182922 2.73607-.295218 5.47708-.436471 8.214551m-.44989.0205c-.07133-3.077191.269793-6.136011.44989-9.201201.08334-1.41817.509216-1.61522 1.794616-1.00854 5.442466 2.56515 10.7571 5.33441 15.417733 9.21462 1.358145 1.130021 1.404758 1.373681-.01695 2.452851-4.77646 3.62525-9.89122 6.66289-15.458696 8.92011-1.234549.50004-1.666076.28251-1.736702-1.06787-.162441-3.10261-.528285-6.19605-.44989-9.30997"/>
  <path fill="#c1c3c2" d="M48.268036 100.64255c.141253-2.738181.253549-5.479191.436471-8.215261.08546-1.27339.443534-1.41605 1.584855-.8913 5.137361 2.36174 10.134176 4.95444 14.492528 8.626301.78254.65965.812203.92097-.02542 1.53048-4.428979 3.22197-9.060655 6.09011-14.182478 8.09943-1.531886.60032-1.82781.39268-1.901262-1.25927-.117239-2.63154-.26838-5.26096-.404689-7.89038"/>
  <path fill="#a7a8a8" d="M168.14617 100.86884c0-5.944621-.0968-11.892071.0459-17.833161.06-2.5037-2.07642-4.58506-4.53492-4.56105-10.58336.10453-21.16955.10241-31.7529.005-2.72265-.0247-4.54128 2.24238-4.52433 4.56317.0876 11.88924.0897 23.779181 0 35.668421-.0184 2.4684 1.81934 4.68465 4.69807 4.67264 10.51202-.0431 21.02405-.0494 31.53608.008 2.36668.0127 4.62955-1.97895 4.57305-4.58083-.12995-5.97852-.041-11.96128-.041-17.94262m-19.67792 26.19531c-5.9086 0-11.8172.00071-17.7265 0-2.7961-.0007-4.35483-1.26633-5.06321-3.94519-.55512-2.10184-1.83063-12.0877-1.75718-22.05661.0763-10.368651 1.52129-20.719651 1.94222-22.243771.6759-2.44508 2.23462-3.73825 4.76516-3.74319 11.99871-.0233 25.56321-.0191 37.56192-.003 2.29183.003 5.04696 10.32699 5.04696 25.860551 0 15.36123-2.88438 26.12681-5.04201 26.12892-6.05339.006-13.67326.002-19.72736.002"/>
  <path fill="#c1c3c2" d="M128.47549 100.91072c0 5.65576-.001 11.31152.00071 16.96798.00071 2.63366 1.60393 4.25383 4.26371 4.25595 10.04236.01 20.08543.01 30.1285 0 2.68592-.003 4.23829-1.57992 4.2397-4.28491.006-11.31151.006-22.623741-.00071-33.935251-.001-2.64284-1.60957-4.28773-4.26512-4.29267-10.04307-.0191-20.08614-.0191-30.1285-.00071-2.62024.005-4.23617 1.69433-4.23758 4.32163-.003 5.65646-.00071 11.31222-.00071 16.967981m39.67083-.0417c0 5.98064-.089 11.9641.041 17.94192.0565 2.60258-2.20637 4.59354-4.57306 4.58082-10.51202-.0572-21.02476-.0508-31.53678-.008-2.87803.012-4.71643-2.20425-4.69736-4.67264.0897-11.88924.0876-23.779901 0-35.668431-.017-2.32149 1.80168-4.5886 4.52362-4.56317 10.58406.0975 21.16954.0989 31.75361-.005 2.4585-.024 4.59495 2.05734 4.53491 4.56034-.14266 5.94179-.0459 11.88853-.0459 17.833861"/>
  <path fill="#4a4a4c" d="M128.47549 100.91072c0-5.655761-.002-11.311521.00071-16.967981.001-2.6273 1.61734-4.31668 4.23758-4.32163 10.04236-.0184 20.08543-.0184 30.1285.00071 2.65555.005 4.26371 1.64983 4.26512 4.29267.007 11.31151.006 22.623741.00071 33.935251-.001 2.70499-1.55378 4.28208-4.2397 4.28491-10.04307.01-20.08614.01-30.1285 0-2.65978-.002-4.263-1.62229-4.26371-4.25595-.002-5.65646-.00071-11.31222-.00071-16.96798"/>
  <path fill="#6d6d6d" d="M140.78376 160.80469c4.70018 0 8.50977 3.81029 8.50977 8.50977 0 4.70019-3.80959 8.51048-8.50977 8.51048s-8.50977-3.81029-8.50977-8.51048c0-4.69948 3.80959-8.50977 8.50977-8.50977"/>
  <path fill="#02aa46" d="M140.78376 161.41978c4.36047 0 7.89532 3.53485 7.89532 7.89532 0 4.35976-3.53485 7.89461-7.89532 7.89461-4.36047 0-7.89532-3.53485-7.89532-7.89461 0-4.36047 3.53485-7.89532 7.89532-7.89532"/>
  <path fill="#6d6d6d" d="M106.19133 160.80469c4.70018 0 8.50977 3.81029 8.50977 8.50977 0 4.70019-3.80959 8.51048-8.50977 8.51048-4.70019 0-8.509774-3.81029-8.509774-8.51048 0-4.69948 3.809584-8.50977 8.509774-8.50977"/>
  <path fill="#e23434" d="M106.19133 161.41978c4.36047 0 7.89532 3.53485 7.89532 7.89532 0 4.35976-3.53485 7.89461-7.89532 7.89461-4.36048 0-7.895324-3.53485-7.895324-7.89461 0-4.36047 3.534844-7.89532 7.895324-7.89532"/>
  <path fill="#6d6d6d" d="M123.4423 142.81051c4.70018 0 8.50977 3.81029 8.50977 8.50977 0 4.70018-3.80959 8.51048-8.50977 8.51048s-8.50977-3.8103-8.50977-8.51048c0-4.69948 3.80959-8.50977 8.50977-8.50977"/>
  <path fill="#f2e825" d="M123.4423 143.37368c4.38872 0 7.94688 3.55816 7.94688 7.94688s-3.55816 7.94688-7.94688 7.94688-7.94688-3.55816-7.94688-7.94688 3.55816-7.94688 7.94688-7.94688"/>
  <path fill="#6d6d6d" d="M123.4423 178.25244c4.70018 0 8.50977 3.81029 8.50977 8.50977 0 4.70018-3.80959 8.51047-8.50977 8.51047s-8.50977-3.81029-8.50977-8.51047c0-4.69948 3.80959-8.50977 8.50977-8.50977"/>
  <path fill="#3f6c9e" d="M123.4423 179.01902c4.27643 0 7.74347 3.46705 7.74347 7.74347 0 4.27643-3.46704 7.74347-7.74347 7.74347s-7.74347-3.46704-7.74347-7.74347c0-4.27642 3.46704-7.74347 7.74347-7.74347"/>
  <path fill="#e4e5e4" d="M141.61142 3.7861292c12.80456 0 23.18452 10.3799598 23.18452 23.1845198s-10.37996 23.18451-23.18452 23.18451c-12.80455 0-23.18451-10.37995-23.18451-23.18451s10.37996-23.1845198 23.18451-23.1845198"/>
  <path fill="#a7a8a8" d="M141.61142 10.905129c8.87279 0 16.06609 7.19259 16.06609 16.06608 0 8.87279-7.1933 16.06538-16.06609 16.06538-8.87278 0-16.06608-7.19259-16.06608-16.06538 0-8.87349 7.1933-16.06608 16.06608-16.06608"/>
  <path fill="#c1c3c2" d="M141.61142 13.255219c7.57468 0 13.71564 6.14096 13.71564 13.71564 0 7.57468-6.14096 13.71564-13.71564 13.71564-7.57467 0-13.71563-6.14096-13.71563-13.71564 0-7.57468 6.14096-13.71564 13.71563-13.71564"/>
  <path fill="#dedfde" d="M186.80509 117.22371h-4.41344c-.98665 0-1.79391-.80726-1.79391-1.7932V86.435569c0-.98665.80726-1.79391 1.79391-1.79391h4.41344c.98665 0 1.7932.80726 1.7932 1.79391v3.5412c0 .88424.71686 1.6011 1.60181 1.6011h4.20014c5.23695 0 9.73867 4.02994 9.97598 9.261231.25284 5.58019-4.19309 10.17373-9.71042 10.17373h-4.4657c-.88495 0-1.60181.71756-1.60181 1.60181v2.81587c0 .98594-.80655 1.7932-1.7932 1.7932"/>
  <path d="M183.13343 98.541349c-.0127-.0261-.0777-.10453-.0918-.13207-.0268-.10453-.0664-.17092-.0791-.2359-.0134-.0784-.0254-.17162-.0254-.25072 0-.13137.0388-.23589.0918-.31641.0515-.0925.0268-.0925.11936-.1582.077-.0523.20976-.14408.31499-.14408.0798-.0141.14549-.0141.22459.0127.053.0134.10523.0402.1582.0791.053.0523.11866.10594.17163.18433.0402.0791.0523.14549.10452.27686.0268.0657.041.1582.0537.30369.012.0777.012.23589.0381.28957.0141.0523.0141.10594.0417.14478.0261.0395.0396.0925.0523.11936.0254.0254.0395.0657.10523.13066l-.6321-.0127s-.26414-.0127-.40893-.10594c-.15961-.0925-.23872-.18504-.23872-.18504m2.10961-1.43513c.065.14408.10524.25002.14479.34183.0261.0932.0515.19775.0791.32912.0268.13207.0396.22459.0396.35666 0 .13137-.0516.29098-.0784.39551-.0268.0925-.13207.17092-.21117.22459-.0657.0664-.10594.0784-.21046.0784h-.10594c-.0395-.0127-.0523-.0395-.0918-.0664-.0396-.0268-.0791-.0523-.10523-.0918-.0268-.0268-.053-.0671-.0791-.10594-.0268-.053-.0395-.10452-.0664-.1589-.0261-.0523-.0134-.13137-.0396-.20906-.0403-.26414-.0523-.47461-.0925-.59397-.0389-.11865-.0657-.19775-.10594-.27685-.0388-.0918-.0791-.13137-.14408-.21117-.0664-.0791-.11865-.10453-.18504-.14338-.065-.041-.13207-.0805-.20976-.10664-.0798-.0134-.18434-.0389-.27686-.0389-.15891 0-.29098.0254-.43506.10453-.13136.0657-.25001.19775-.31711.34325-.0657.14407-.14408.32911-.14408.59326v.25001c.0127.0798.0396.1575.0657.3044.053.0657.10523.1575.18433.26273.0918.0925.14479.14549.14479.14549h-.32912v.56643c.2373-.053.26343-.0784.43435-.0657.29098 0 .92379-.0261 1.26562-.0134.34325 0 .25002-.0134.39551-.0134.11865 0 .31641-.053.42093-.0925.10594-.0403.17233-.10594.29098-.17163.0925-.0791.2246-.26414.26415-.40892.0402-.1575.0657-.26415.0657-.43365 0-.15891-.0134-.39551-.0254-.56713-.0261-.1582-.0671-.29027-.13277-.51486-.17304 0-.31853 0-.40964-.012m-2.06955 12.204161c-.0141-.0395-.0791-.10523-.0932-.14478-.0254-.0925-.0664-.1582-.0791-.22389-.012-.0932-.0254-.17162-.0254-.25072 0-.13137.0388-.25002.0925-.32912.0523-.0798.0261-.0798.11866-.14549.0791-.0664.21046-.1582.3164-.1582.0784 0 .14549 0 .22459.0134.0523.0261.10524.041.15609.0918.0537.0537.11936.10594.17374.18575.0388.0657.0516.14408.10453.27544.0254.0537.0395.1582.0515.30369.0141.0664.0141.23731.041.29098.0127.0389.0261.0918.0395.13137.0261.0523.0395.0918.0523.13066.0268.0261.041.053.10523.12006h-.6321s-.25002-.0141-.40893-.10594c-.15961-.0932-.2373-.18504-.2373-.18504m2.1089-1.43654c.0657.13137.10453.23731.14549.32912.0261.0911.0516.21047.0777.32912.0254.13137.0403.2373.0403.35596 0 .13136-.0523.30298-.0791.3948-.0268.10523-.13136.17233-.21117.2373-.0657.0664-.12995.0664-.23589.0798-.041 0-.0664 0-.10523-.0141-.0417-.0134-.0268-.0268-.0671-.053-.0388-.0261-.0784-.053-.10523-.0925-.0254-.0268-.0516-.0657-.0791-.11866-.0254-.0403-.0396-.0925-.0657-.14549-.0268-.0657-.0127-.13136-.0395-.20905-.0403-.27756-.0523-.48803-.0918-.59326-.0403-.12007-.0671-.19846-.10594-.29098-.0403-.0791-.0791-.13207-.1462-.21047-.0657-.0798-.10452-.10594-.17021-.14549-.0657-.0396-.14549-.0664-.22459-.0932-.0791-.0254-.18433-.0523-.27685-.0523-.1575.0134-.29098.0268-.43436.10594-.13136.0784-.25001.19775-.3164.34324-.0657.15679-.14549.34325-.14549.60668v.2359c.0141.0932.0396.17091.0664.30228.0523.0671.10594.17232.18292.26414.0939.10594.1462.15891.1462.15891h-.32912v.56572c.23659-.0516.26414-.0777.43505-.0777.29028.0127.92239-.0141 1.26422-.0141.34324.0141.25001 0 .39621 0 .11795-.0127.31711-.0516.42023-.0918.10664-.0403.18574-.10453.29098-.18434.0932-.0657.22459-.25002.26485-.40822.0395-.14478.0763-.25002.0763-.42093 0-.15891-.0247-.40893-.0374-.56784-.0268-.17091-.0664-.28957-.11865-.51416-.18504-.0113-.32912.002-.42164-.0113m-2.61029-8.014321l.22318.0657.62081.0141 1.77978-.0395c.15821 0 .34183-.0925.42094-.0925 0 .0925.0268.289571.0678.380681.0254.0664.0254.15891.0254.2253h-.40892c.11865.0657.13065.17021.19775.22459.0664.0388.0664.0925.13136.18363.0544.0798.0544.13136.0798.2373.0134.13207.0254.22389.0254.34254 0 .0791-.0127.1582-.0389.2373-.0127.0791-.053.1568-.0925.22389-.0261.0657-.0791.13137-.11936.17021-.0537.0537-.0791.10665-.17091.15891-.0268.0134.14408.13136.2366.30299.0925.17162.17232.36937.17232.58054 0 .13137-.0141.43436-.0664.56572-.053.13207-.12007.31711-.21118.39622-.0918.0791-.13136.10452-.21117.17091-.0918.0925-.32912.12007-.42093.12007-.10524 0-.26415.0127-.4619.0127h-1.46196c-.14479 0-.15821.0395-.31712.0664v-.60668c.25002.0784.17233.0664.31712.0664l1.3306.012c.18504 0 .29027 0 .43505-.012.11724 0 .26415-.0396.32912-.0664.0657-.0268.19846-.14549.25002-.19776.053-.0537.0664-.13136.0939-.21117.0388-.0657.0388-.19775.0388-.28886 0-.0671-.0127-.17233-.0268-.23801-.0254-.0523-.0396-.11865-.0784-.17233-.0395-.0516-.053-.10453-.11865-.1575-.053-.0396-.11794-.0784-.19705-.11865-.0678-.0261-.18574-.0261-.30439-.0388-.13137 0-.30229.0127-.48662 0h-1.29176l-.29098.0918v-.63352c.26415 0 .0268.041.3037.041h1.8045c.10594-.0134.14549-.0254.22459-.041.0664-.0254.17162-.065.22318-.11724.0678-.0537.17233-.17233.19987-.25143.0388-.0657.0657-.17091.0657-.26343 0-.10524-.0141-.15891-.0537-.25073-.0396-.0791-.0523-.15749-.13137-.22318-.0657-.0671-.0798-.11935-.18292-.17232-.10594-.0403-.0791-.0791-.25284-.0918-.17021-.0268-.7896-.0403-1.21124-.0403-.25073.0134-.4739.0134-.68508.0134-.13136 0-.18363.0664-.30298.0664v-.30299c-.001-.0523-.001-.223171-.001-.342531m.56734 7.486671c-.041 0-.10593-.0141-.19775-.0261-.0932-.0141-.17233-.0396-.26414-.053-.0395-.13136-.0791-.27615-.0925-.40751-.0134-.12007-.0254-.46119-.0254-.56784 0-.19775.0388-.43576.0911-.60668.0671-.17091.18504-.3948.32912-.52687.13207-.13137.27756-.29098.48803-.35596.21117-.0657.40892-.11794.6321-.11794.31712-.0134.42235.0395.6985.11794.27685.0925.48803.31711.64623.51416.15891.20976.29027.68578.29027 1.04174 0 .26414-.0395.57914-.11865.84328-.18504.0134-.28957.0268-.40893.041.0678-.18504.14691-.35666.17233-.46189.0141-.11866.0395-.26415.0395-.35596 0-.17092-.0798-.51345-.14407-.64553-.0678-.13136-.15891-.23659-.29099-.32982-.11865-.0791-.29027-.14549-.46119-.18363-.17232-.0403-.18433-.0523-.36866-.0403-.23731.0134-.44848.0523-.63282.11936-.17162.0784-.35525.19776-.44777.36867-.10594.15891-.19846.35596-.19846.56713 0 .19634.0261.61798.26414 1.06575m-.44804 3.20227l.20976-.0523c.0268 0 .1582-.0523.30369-.0784-.19775.35525-.34254.72534-.34254 1.00149 0 .13136.0516.27685.0784.36867.0396.0925.10594.18433.18363.2373.0671.041.14549.0918.21188.10594.0403.0127.10452.0254.14407.0127.0403-.0127.15821-.0268.19846-.0657.0396-.0268.13066-.13207.18434-.18434.0388-.053.11865-.19775.19775-.39621.0777-.18363.1575-.43506.2366-.52617.0671-.0939.1582-.25072.23731-.31711.0798-.0657.1582-.10594.23589-.14549.0805-.0254.19916 0 .29239-.0134.13137 0 .26414.0791.38138.15821.13207.0784.19776.21046.26415.36867.0508.1589.0932.34324.0932.55441 0 .2366-.0544.46119-.10594.75217-.15891.012-.27756-.0275-.40892-.0141.13136-.19917.21046-.43577.21046-.65895 0-.12006-.0254-.2373-.0523-.34324-.0403-.10594-.13137-.21047-.19775-.26414-.0657-.0396-.12007-.0657-.19776-.0657-.053 0-.13136.0134-.18433.0388-.0403.0141-.17092.13207-.19776.19846-.0402.0925-.0268.053-.0523.13136-.0134.0932-.13137.3037-.22459.51346-.10453.2253-.2366.42305-.3037.48803-.0664.0664-.15679.14549-.3164.19846-.0791.0395-.17092.0515-.2366.0515-.11865 0-.13136-.0261-.21047-.0261-.14549.0141-.19846-.0254-.3164-.10523-.13137-.0777-.25002-.22459-.31641-.3948-.0657-.17163-.11936-.34254-.11936-.55371 0-.0925-.0127-.29028 0-.40822.0134-.11866.0537-.2246.0664-.31712.0127-.077.0127-.12924.0537-.24931m.26406 3.849c-.10594-.0261-.15961-.053-.32912-.0664-.041-.13137-.0537-.18434-.0537-.26344-.0127-.0671.0134-.14549.0134-.21188 0-.17021.0141-.30228.0657-.4068.053-.10594.11865-.18505.2253-.23731.10452-.0664.36867-.10664.5523-.10664h.12006c.0664 0 .11865-.012.4732 0l1.37227-.012v-.3828h.27615l.0141.3828c.0763.012.34183 0 .53959 0 .0932 0 .18363-.0537.23801-.0932.0388.18434.11865.44919.14337.56643-.30228 0-.75076.0268-.92097.0268l-.0141.79102c-.13208-.0127-.18434 0-.30299.0141l.0268-.22459v-.58055l-1.72682-.012h-.14549c-.1582.012-.35525.0247-.43435.0657-.0791.0254-.10594.0777-.14549.14408-.0268.0657-.0403.13207-.0403.19775v.17233c-.0007.0523.012.0918.053.2366m.16929-17.964951c-.11794-.0127-.26273-.053-.44706-.0657-.0523-.18363-.1582-.47461-.18504-.60597-.0127-.13137-.0127-.26344-.0127-.3948 0-.23731.0523-.47532.11865-.67307.0664-.18363.19705-.37008.35595-.51416.1575-.14549.32983-.27686.52617-.34325.21047-.0657.40893-.0791.63211-.0925.31711-.0127.43576.0403.71191.13278.26414.10453.4619.30228.6201.51416.15891.21047.22389.47461.22389.81644 0 .17233-.0127.36867-.065.52758-.0537.1575-.11936.29027-.22459.3948-.11865.10523-.2366.19846-.39551.26414-.17162.0664-.17162.0798-.36867.10594-.0932.0254-.23801.0254-.31711.0254l-.0127-2.25298h-.2253c-.22459.0127-.44777.0396-.63281.13066-.18434.0932-.31641.21117-.40752.38209-.0925.17232-.18433.38279-.18433.59467.001.25072.10594.68507.28956 1.05374m1.49163-2.06794v1.64701c.13066 0 .0918 0 .17021-.0134.0664-.012.13207-.0388.21118-.0784.0784-.0396.13065-.10524.18433-.17162.0664-.0664.10453-.13137.14549-.22389.0268-.0798.0395-.21188.0395-.31711 0-.10524-.0275-.19776-.0671-.29098-.0388-.10453-.0784-.18363-.14479-.24931-.0537-.0798-.11865-.13137-.19775-.18434-.0791-.053-.15891-.0925-.2366-.10523l-.0261-.0134s0 .0134-.0784.0007m-2.12366-2.54509c.0671 0 .1462.0537.19846.0537 1.00077.0134 1.76566 0 2.39847-.0268l.27756-.0127.22389-.0925c.0141.0925.0261.22459.0395.29027.0134.0657.0395.2366.0395.3157h-.56784c.13278.0671.12007.0791.18504.13137.0678.0402.14408.13207.19846.19775.0395.0671.0925.13137.11936.22459.0254.0791.065.15821.065.25073 0 .0791.0141.14478 0 .32982-.0261.18292-.065.28957-.0784.32983-.0791.0127-.42234-.13207-.42234-.13207s.0141-.14549.0664-.26415c.0261-.11865.0261-.19634.0261-.29027 0-.10453-.0261-.23589-.0657-.32912-.041-.0784-.0939-.17092-.17092-.23589-.0791-.0671-.17233-.10594-.29027-.14549-.0932-.041-.0141-.0268-.15891-.041-.15821-.012-1.56861 0-1.89844.0141l-.17021.0523v-.3164c0-.0523-.0148-.19776-.0148-.3037m-.012-4.6518l.30299.10594h3.74178c.12007-.0141.2246-.0523.42306-.11936-.0141.26414.0134.69849.0134.88283 0 .10523-.0134.27756-.0134.51416 0 .2373 0 .44848-.0141.553-.0254.32983-.0396.42306-.10453.65965-.0395.17092-.22459.50004-.32982.65895-.10594.14478-.22459.30228-.3948.42164-.17162.11724-.22459.17162-.42164.26273-.27827.10594-.56784.17233-.83127.17233-.3828.0268-.65895-.0134-1.00149-.11936-.34324-.11724-.59326-.35525-.81785-.57914-.2373-.22459-.36867-.47461-.44848-.76418-.0657-.28956-.13136-.61868-.13136-.98806v-.8574l.0275-.80373zm.35596.77901c-.0141.2486-.0141.46048-.0141.67095 0 .17233.0141.38279.0268.56713.0268.19704.0925.32912.14549.47531.053.14479.13066.28957.26415.42094.13136.14549.29027.25001.44847.34395.17162.0777.35525.14478.56643.17021.21117.0395.42234.0537.6321.0537.23731-.0141.42305-.0791.6201-.14619.21047-.0657.4619-.18363.60668-.35526.14408-.18433.26273-.3164.3157-.51416.053-.18433.13278-.46048.13278-.76417 0-.19776-.0141-.44919-.0275-.56784-.0134-.13136-.0268-.2373-.0268-.40892l-3.69023.0544z"/>
  <path fill="#3e649f" d="M193.46635 101.421c.52829 0 .47602-.25143.50145-.42235.0268-.18363-.0664-.6201.0268-1.013491.0918-.47531.75076-.72604 1.06716-.64694.91038.23731 1.02903.830571 1.00148 1.238791-.0134.31711-.0395.90967-.67236 1.635-.28957.32912-1.05445.52687-1.4888.54029-.53959.0141-1.14697-.0134-1.48881-.32912-.55371-.51416-1.0269-1.8723-1.00148-2.635771.31641-2.99244 3.13581-2.8865 3.13581-2.8865s1.21266-.23801 2.50512.77759c.10523.0798.35596.21118.46048.31641.11865.10523.14549.18363.25143.31641.0918.11865.1575.25001.2366.38209.19775.32911.38068.68507.48662 1.02761.1582.514861.19775 1.028321.18504 1.437251-.0396 1.23808-.71192 2.5828-1.75366 3.25587-.14407.10453-.25001.18363-.38208.27615-.14549.0925-.39551.21047-.69779.32912-.44919.15891-.26414.10452-.94993.27685-.48732.11866-.79172.17233-1.10671.19776-.14479.0141-.30228.0261-.47461.041-.54029.0127-.67236.0777-1.094-.041-.7105-.18434-1.41112-.63352-1.77908-1.00219-.64623-.65894-.84469-1.26421-1.02761-1.62088-.18505-.35595-.21118-.50074-.36938-.96122-.17162-.46048-.19846-.71191-.19846-1.53047.0127-.803031.053-1.461971.10523-1.659021.39551-1.43795.65895-1.9507 1.16039-2.57009 1.26422-1.60816 3.74249-1.93799 3.74249-1.93799s1.26422-.17091 2.58281.10453c.6985.15891 1.97683.85811 2.4917 1.26704.43364.34183 1.06787 1.13214 1.35814 1.60675.30228.47461.69779 1.14767.93439 1.92527.12995.38138.18433.67236.22459 1.541071.0388 1.00219-.22459 2.47898-.48803 3.34769-.27685.91037-.87011 1.73952-1.3306 2.16258-.47531.43364-1.88501 1.39699-2.17529 1.55448-.29027.17233-1.83205.63281-2.04322.67237-.19705.0402-.89554.11865-.8567.80443.0544.63211.7776.44706.91038.43435.13207-.0268 1.3306-.25002 1.66042-.35666.32912-.0918 1.19924-.57843 1.37015-.69779.10665-.053.83128-.50074 1.3977-.93439.42234-.33053.84469-.64764 1.05516-1.0036.43364-.67165.81714-1.52835.81714-1.52835s.50145-1.46267.59327-2.22826c.0791-.65895.22317-1.36945.14549-2.54255-.0791-1.173111-.39622-1.819341-.56713-2.252981-.18505-.42305-.60739-1.3977-1.19924-2.12374-.59467-.72533-.30369-.50074-.73804-.89625-.43506-.38208-.55372-.50074-.9238-.76347-.38209-.26414-1.4888-.82986-2.23956-1.04244-.30369-.0777-.76488-.22318-1.21265-.28957-.38139-.0523-.75147-.0664-1.05446-.0254-.64623.0657-.65894.0388-.65894.0388s-1.2515.30299-1.75295.46119c-.48661.17092-1.21265.39551-2.3462 1.41041-1.12084 1.02761-1.42312 1.96341-1.56861 2.31937-.13208.35595-.55301 1.55519-.57985 3.137221-.0402 1.83205.36867 2.30666.50074 2.63648.14549.34183.6201 1.46267 1.46268 2.35892.84257.89554 1.75294 1.18582 1.81862 1.21266.71192.24931 1.84618.32912 2.95289.10452.75076-.1582 1.3984-.27685 1.85889-.42234.79031-.26414 1.23878-.57984 1.59474-.81644.32912-.21047.83057-.87083 1.08129-1.27905.11724-.19775.26344-.38208.36938-.64552.11865-.26414.19634-.60739.28956-1.0149.0925-.38209.18434-.88354.21118-1.30518.0261-.36867.0127-.68437.0127-.81785 0-.18433-.10594-.816441-.553-1.659721-.25073-.47461-.54171-.97606-1.10672-1.54177-.18504-.17233-.40893-.32983-.59326-.46119-1.7134-1.25221-3.62525-.79102-3.62525-.79102s-2.58351.22318-3.32156 2.49029c-.25002.80443-.26414 1.50363-.19705 2.096891.13137.98877.5403 1.7134.79031 2.20072.26273.50145.68578.87012 1.14768 1.06787.42164.19776.86941.2366 1.23808.22389.22459-.0127.50074-.0127.79102-.0657.73734-.13136 1.47609-.3955 2.02839-1.04173l.13277-.19846c.0791-.11866.13207-.22318.18434-.3157.29027-.55301.39551-1.09471.43506-1.84547-.0134-.27756-.0664-.685081-.18434-.909671-.43506-.89695-1.22678-1.38357-2.2664-1.34472-.97535.0395-1.48951.94921-1.63429 1.10671-.0141.0148-.52758 2.030511.39409 2.084191"/>
  <path fill="#a7a8a8" d="M99.32566 54.235389h-8.61924c-.533935 0-.971819-.43789-.971819-.97394v-10.15819H79.574294c-.533935 0-.973937-.43788-.973937-.97394v-8.61712c0-.53605.440002-.97394.973937-.97394h10.160307v-10.15818c0-.53606.437884-.97394.971819-.97394h8.61924c.536054 0 .97394.43788.97394.97394v10.15818h10.15819c.53605 0 .97393.43789.97393.97394v8.61712c0 .53606-.43788.97394-.97393.97394H100.2996v10.15819c0 .53605-.437886.97394-.97394.97394"/>
  <path fill="#c1c3c2" d="M98.85353 53.307429h-7.674966c-.475315 0-.865173-.38986-.865173-.86729v-9.91594h-9.915233c-.475316 0-.866586-.38986-.866586-.86659v-7.67355c0-.47744.39127-.86729.866586-.86729h9.915233v-9.91595c0-.47672.389858-.86658.865173-.86658h7.674966c.477434 0 .867292.38986.867292.86658v9.91595h9.912408c.47743 0 .86729.38985.86729.86729v7.67284c0 .47744-.38986.8673-.86729.8673h-9.912408v9.91594c0 .47743-.389858.86729-.867292.86729"/>
  <path fill="#7f7f7f" d="M44.666233 94.741079c-.10382.1907-.189984.46896-.189984.76206 0 .43435.202697.68861.496503.68861.271911 0 .427996-.17586.579136-.62081.168091-.53676.414577-.8687.824916-.8687.453421 0 .790309.42446.790309 1.06434 0 .33689-.06921.58125-.142666.72745l-.306518-.11724c.05156-.10735.137721-.327.137721-.62504 0-.44919-.237304-.6201-.435764-.6201-.272618 0-.406102.20058-.56148.6547-.189985.55654-.427995.83975-.855285.83975-.449183 0-.837628-.37573-.837628-1.15262 0-.31711.08193-.66389.185747-.83975l.314993.10735zm2.133623 3.09188v-1.00148h.319231v2.43732h-.319231v-1.00643h-2.591281v-.42941h2.591281zm-1.382088 3.047961l.838335-.32206c.189279-.0734.362313-.12218.53111-.17162v-.009c-.173034-.0494-.350306-.10241-.526872-.16598l-.842573-.322761v.991601zm-.293805-1.079181l-.915318-.34183v-.43929l2.910512 1.118011v.51275l-2.910512 1.12296v-.45413l.915318-.35172v-1.166751zm.630552 2.881771v.43506c0 .45413.220354.74228.553004.74228.375732 0 .539586-.30793.544529-.75711 0-.20552-.01766-.35172-.03461-.42023h-1.062927zm1.326363-.42446c.03884.2147.06003.52193.06003.81503 0 .45412-.07345.74722-.237304.95275-.129953.16597-.328413.25849-.553005.25849-.384207 0-.639168-.27333-.742989-.6201h-.01271c-.07769.25425-.28533.40539-.587611.48379-.406101.10735-.686488.18504-.798784.25355v-.4393c.08193-.0537.33265-.12713.694963-.21965.401864-.0982.553005-.27403.566424-.65965v-.40045h-1.261387v-.42446h2.872374zm-.281022 3.29669v-1.00148h.319231v2.43732h-.319231v-1.00643h-2.591281v-.42941h2.591281z"/>
  <path fill="#b1b2b5" d="M152.48216 21.798679c-.21117.0918-.30793.33759-.21682.54877.0918.21117.33759.30793.54877.21611.21117-.0918.30863-.33688.21682-.54806-.0918-.21188-.3376-.30863-.54877-.21682m-2.29535.99583c-.21118.0918-.30794.3376-.21612.54877.0911.21117.33689.30793.54806.21682.21117-.0918.30864-.33759.21682-.54877-.0918-.21117-.33759-.30793-.54876-.21682m-2.47122 1.07282c-.21117.0918-.30793.33688-.21612.54806.0911.21188.33689.30863.54806.21682.21188-.0918.30864-.33759.21683-.54877-.0918-.21117-.3376-.30793-.54877-.21611m-1.92951 1.29175c.0918.21117-.005.45695-.21683.54877-.21117.0918-.45624-.006-.54806-.21682-.0918-.21118.005-.45696.21612-.54806.21117-.0918.45695.005.54877.21611m-15.04553 6.98424c.21117-.0918.30863-.33759.21682-.54876-.0918-.21118-.3376-.30864-.54877-.21683-.21117.0918-.30793.3376-.21682.54877.0918.21117.33759.30793.54877.21682m2.29535-.99654c.21117-.0918.30793-.33688.21682-.54806-.0918-.21188-.33759-.30863-.54876-.21682-.21118.0918-.30864.33759-.21683.54877.0918.21117.3376.30793.54877.21611m2.47122-1.0721c.21117-.0918.30793-.3376.21611-.54877-.0911-.21117-.33688-.30793-.54806-.21612-.21117.0911-.30863.33689-.21682.54806.0918.21118.33759.30864.54877.21683m1.92951-1.29247c-.0918-.21117.006-.45624.21682-.54806.21118-.0918.45696.005.54806.21612.0918.21188-.005.45695-.21611.54877-.21118.0918-.45696-.005-.54877-.21683m9.34669 9.05925c-.0911-.21118-.33689-.30793-.54806-.21612-.21117.0911-.30864.33689-.21682.54806.0918.21117.33759.30864.54876.21682.21118-.0918.30794-.33759.21612-.54876m-.99583-2.29536c-.0918-.21117-.33759-.30793-.54877-.21612-.21117.0918-.30793.33689-.21611.54806.0918.21188.33688.30864.54806.21683.21188-.0918.30863-.33689.21682-.54877m-1.07211-2.47122c-.0918-.21117-.33759-.30793-.54877-.21611-.21117.0918-.30793.33688-.21682.54876.0918.21118.3376.30793.54877.21612.21117-.0918.30793-.33689.21682-.54877m-1.29246-1.92951c-.21117.0918-.45695-.005-.54806-.21612-.0918-.21117.005-.45695.21612-.54876.21117-.0918.45695.005.54876.21682.0918.21117-.006.45625-.21682.54806m-6.98353-15.04553c.0918.21188.33688.30864.54806.21682.21188-.0918.30863-.33759.21682-.54876-.0918-.21118-.33689-.30794-.54877-.21612-.21117.0911-.30793.33689-.21611.54806m.99583 2.29536c.0918.21117.33759.30863.54876.21682.21118-.0918.30793-.3376.21612-.54877-.0911-.21117-.33689-.30793-.54806-.21611-.21117.0911-.30864.33688-.21682.54806m1.07281 2.47121c.0911.21117.33689.30864.54806.21682.21117-.0918.30864-.33759.21682-.54876-.0918-.21117-.33759-.30793-.54876-.21682-.21117.0918-.30793.33759-.21612.54876m1.29176 1.92951c.21117-.0911.45695.006.54876.21683.0911.21117-.006.45695-.21682.54876-.21117.0911-.45695-.006-.54877-.21682-.0918-.21117.006-.45695.21683-.54877m10.0247-4.62673c-.16244.16315-.16244.42658 0 .58973.16315.16315.42659.16315.58973 0 .16315-.16244.16315-.42658 0-.58973-.16244-.16244-.42658-.16315-.58973 0m-1.76919 1.76919c-.16314.16244-.16314.42658 0 .58973.16244.16315.42659.16315.58973 0 .16244-.16315.16244-.42658 0-.58973-.16314-.16315-.42729-.16315-.58973 0m-1.90479 1.90479c-.16315.16245-.16315.42659 0 .58973.16244.16245.42658.16245.58973 0 .16244-.16314.16244-.42728 0-.58973-.16315-.16314-.42729-.16314-.58973 0m-12.7523 13.92964c.16315-.16315.16315-.42729 0-.58973-.16244-.16315-.42658-.16315-.58973-.00071-.16314.16315-.16314.42729 0 .58973.16315.16315.42659.16315.58973.00071m1.76919-1.76919c.16315-.16315.16315-.42729 0-.58973-.16244-.16315-.42658-.16315-.58973 0-.16244.16244-.16244.42658 0 .58973.16315.16244.42729.16244.58973 0m1.9048-1.90479c.16314-.16315.16314-.42729.0007-.58973-.16314-.16315-.42729-.16315-.58973 0-.16314.16244-.16314.42658-.0007.58973.16314.16244.42729.16244.58973 0m13.34061 3.08496c-.16244-.16244-.42658-.16244-.58973 0-.16244.16314-.16244.42729 0 .58973.16315.16314.42729.16314.58973 0 .16315-.16244.16315-.42659 0-.58973m-1.76919-1.76919c-.16244-.16315-.42658-.16315-.58973 0-.16244.16314-.16244.42658 0 .58973.16315.16314.42729.16314.58973 0 .16315-.16244.16315-.42659 0-.58973m-1.90409-1.9048c-.16314-.16314-.42729-.16314-.58973 0-.16314.16244-.16314.42659 0 .58973.16244.16244.42659.16244.58973 0 .16244-.16314.16244-.42729 0-.58973m-13.92963-12.75229c.16244.16315.42658.16315.58973 0 .16244-.16244.16244-.42658 0-.58973-.16315-.16244-.42729-.16244-.58973 0-.16315.16315-.16315.42729 0 .58973m1.76919 1.76919c.16244.16315.42658.16315.58973.00071.16244-.16315.16244-.42729 0-.58973-.16315-.16315-.42729-.16315-.58973-.00071-.16315.16315-.16315.42729 0 .58973m1.90479 1.9055c.16244.16244.42658.16244.58973 0 .16244-.16315.16244-.42729 0-.58973-.16315-.16315-.42729-.16315-.58973 0-.16315.16244-.16315.42658 0 .58973m9.40602-6.71374c-.0897.21188.0106.45624.22247.54594.21259.089.45695-.0106.54594-.22318.0897-.21188-.0106-.45625-.22247-.54594-.21259-.089-.45695.0106-.54594.22318m-.9697 2.30665c-.0897.21188.0106.45625.22247.54595.21259.089.45695-.0106.54594-.22318.0897-.21188-.0106-.45696-.22247-.54595-.21259-.089-.45695.0106-.54594.22318m-1.04386 2.48323c-.0897.21188.01.45624.22247.54594.21259.089.45696-.0106.54595-.22318.0897-.21188-.0106-.45695-.22248-.54594-.21258-.089-.45695.0106-.54594.22318m-.50145 2.2671c.21259.0897.31217.33407.22318.54594-.0897.21259-.33406.31217-.54594.22318-.21258-.089-.31217-.33406-.22318-.54594.0897-.21258.33406-.31217.54594-.22318m-6.04208 15.4481c.0897-.21258-.01-.45695-.22247-.54594-.21259-.0897-.45696.0106-.54595.22248-.0897.21258.0106.45695.22248.54594.21258.0897.45695-.01.54594-.22248m.9697-2.30665c.0897-.21259-.01-.45695-.22247-.54594-.21259-.089-.45696.0106-.54595.22247-.0897.21258.0106.45695.22248.54665.21258.089.45695-.0106.54594-.22318m1.04456-2.48322c.089-.21259-.0106-.45696-.22318-.54595-.21188-.0897-.45695.0106-.54594.22248-.089.21258.0106.45695.22247.54594.21259.0897.45696-.01.54665-.22247m.50074-2.26782c-.21258-.089-.31217-.33335-.22318-.54594.0897-.21188.33407-.31217.54665-.22247.21188.089.31146.33335.22248.54594-.089.21188-.33407.31217-.54595.22247m13.01644.0833c-.21258-.089-.45695.0106-.54594.22248-.0897.21258.01.45695.22247.54594.21259.0897.45695-.01.54594-.22248.0897-.21258-.0106-.45695-.22247-.54594m-2.30666-.9697c-.21258-.089-.45695.0106-.54594.22248-.0897.21258.0106.45695.22247.54664.21259.089.45696-.0106.54595-.22318.0897-.21258-.0106-.45695-.22248-.54594m-2.48322-1.04386c-.21258-.0897-.45695.0106-.54594.22248-.0897.21258.0106.45695.22247.54594.21259.0897.45695-.01.54594-.22247.0897-.21259-.0106-.45696-.22247-.54595m-2.26781-.50144c-.089.21258-.33336.31217-.54594.22318-.21259-.089-.31217-.33407-.22318-.54594.0897-.21259.33406-.31217.54665-.22318.21187.0897.31146.33406.22247.54594m-15.4481-6.04138c.21258.089.45695-.0106.54664-.22318.089-.21188-.0106-.45695-.22317-.54594-.21188-.089-.45696.0106-.54595.22318-.089.21188.0106.45624.22248.54594m2.30665.9697c.21259.089.45696-.0106.54594-.22318.0897-.21188-.01-.45695-.22247-.54594-.21258-.089-.45695.0106-.54594.22318-.0897.21188.0106.45624.22247.54594m2.48323 1.04386c.21258.089.45695-.0106.54594-.22318.0897-.21188-.01-.45625-.22248-.54594-.21258-.089-.45695.0106-.54594.22318-.089.21187.0106.45624.22248.54594m2.26781.50074c.089-.21259.33406-.31217.54594-.22248.21259.089.31217.33336.22318.54595-.0897.21188-.33406.31216-.54594.22247-.21259-.089-.31217-.33336-.22318-.54594m-7.836 2.18094c.23025 0 .4167-.18716.4167-.4174s-.18645-.4167-.4167-.4167c-.23024 0-.41669.18646-.41669.4167 0 .23024.18645.4174.41669.4174m2.5023 0c.23024 0 .41669-.18716.41669-.4174s-.18645-.4167-.41669-.4167c-.23025 0-.41741.18646-.41741.4167 0 .23024.18716.4174.41741.4174m2.69368 0c.23025 0 .4167-.18716.4167-.4174s-.18645-.4167-.4167-.4167c-.23024 0-.4174.18646-.4174.4167 0 .23024.18716.4174.4174.4174m18.86642-.8341c-.23024 0-.41669.18646-.41669.4167 0 .23024.18645.4174.41669.4174s.4174-.18716.4174-.4174-.18716-.4167-.4174-.4167m-2.50229 0c-.23024 0-.41669.18646-.41669.4167 0 .23024.18645.4174.41669.4174.23095 0 .4174-.18716.4174-.4174s-.18645-.4167-.4174-.4167m-2.69369 0c-.23024 0-.41669.18646-.41669.4167 0 .23024.18645.4174.41669.4174s.4174-.18716.4174-.4174-.18716-.4167-.4174-.4167m-7.25191-11.6145c0 .23024.18645.4174.41669.4174.23025 0 .41741-.18716.41741-.4174s-.18716-.4167-.41741-.4167c-.23024 0-.41669.18646-.41669.4167m0 2.50229c0 .23024.18645.4167.41669.4167.23025 0 .41741-.18646.41741-.4167 0-.23024-.18716-.4174-.41741-.4174-.23024 0-.41669.18716-.41669.4174m0 2.69369c0 .23024.18645.4174.41669.4174.23025 0 .41741-.18716.41741-.4174s-.18716-.4167-.41741-.4167c-.23024 0-.41669.18646-.41669.4167m.8341 18.86642c0-.23024-.18716-.4167-.41741-.4167-.23024 0-.41669.18646-.41669.4167 0 .23024.18645.4174.41669.4174.23025 0 .41741-.18716.41741-.4174m0-2.50159c0-.23024-.18716-.4174-.41741-.4174-.23024 0-.41669.18716-.41669.4174s.18645.4167.41669.4167c.23025 0 .41741-.18646.41741-.4167m0-2.69369c0-.23095-.18716-.4174-.41741-.4174-.23024 0-.41669.18645-.41669.4174 0 .23024.18645.4167.41669.4167.23025 0 .41741-.18646.41741-.4167"/>
  <path fill="#b5aa1d" d="M119.72693 153.07824l1.64206-.94569c.62858-.38844 1.03539-.62857 1.46621-.86305v-.0212c-.43082-.20976-.82563-.41881-1.47539-.80443l-1.63288-.89343v-1.10247l3.75873 2.27346 3.67187-2.18447v1.11236l-1.74377.98312c-.48379.27403-.85952.48308-1.25644.68366v.0311c.44353.20905.78254.39692 1.25644.67448l1.74377 1.01349v1.10318l-3.61678-2.26145-3.81382 2.31654v-1.11519z"/>
  <path fill="#036d2e" d="M137.12835 168.72756h3.15134l4.27925-2.34762v1.09047l-2.05169 1.04739c-.56077.28674-1.01349.50568-1.53118.73663v.0247c.48379.20905.97041.4619 1.53118.74864l2.05169 1.06858v1.09117l-4.26653-2.48958h-3.16406v-.9704z"/>
  <path fill="#a02727" d="M105.56281 170.40698l2.13786-.72674c.4838-.16668.92733-.27757 1.35603-.38845v-.0219c-.44071-.11089-.89342-.23095-1.34331-.3722l-2.15058-.73028v2.23956zm-.74863-2.43661l-2.33844-.77336v-.9923l7.4306 2.52631v1.15827l-7.4306 2.53549v-1.0255l2.33844-.79525v-2.63366z"/>
  <path fill="#264560" d="M120.45862 185.37772c-.0339.18787-.0431.46543-.0431.80373 0 .9923.36372 1.90762 1.44501 1.90762 1.01349 0 1.4323-.86871 1.4323-1.9168v-.79455h-2.83423zm3.56169 0v.87153c0 1.01419.52969 1.60816 1.24443 1.60816.87153 0 1.21336-.65894 1.21336-1.62935 0-.44071-.0339-.69637-.0678-.85034h-2.38999zm3.04046-.9584c.089.41952.15679 1.08129.15679 1.75295 0 .9584-.16597 1.57779-.5417 2.03969-.28675.38491-.72745.61586-1.31295.61586-.71474 0-1.3426-.47391-1.62935-1.25645h-.0219c-.17869.70556-.76065 1.53401-1.86383 1.53401-.64058 0-1.12437-.25567-1.4881-.62858-.4739-.51769-.69284-1.35532-.69284-2.56938 0-.66248.0431-1.16746.0862-1.4881h7.30771z"/>
  <path fill="#a7a8a8" d="M95.015977 33.276949c2.509354 0 4.543393 2.03403 4.543393 4.54339 0 2.51006-2.034039 4.5441-4.543393 4.5441-2.509355 0-4.543394-2.03404-4.543394-4.5441 0-2.50936 2.034039-4.54339 4.543394-4.54339"/>
</svg>
