<svg id="Calque_1" data-name="Calque 1" xmlns="http://www.w3.org/2000/svg" viewBox="0 0 283.181 297.23388"><title>controller</title><path d="M84.7979,201.1266l-.0062.0123c-.0308.0524-.16019.2896-.382.6962v.0031c-.228.4251-.5576,1.0351-.9704,1.8175l-.003.0031-.0031.0062c-.2773.5237-.5946,1.1244-.94269,1.796-.11711.2249-.23721.4559-.36351.6962-.459.8841-.9674,1.8699-1.5157,2.9574-.1047.2002-.2064.4005-.3112.6069-.0492.0985-.10159.2002-.154.3018-.2094.4129-.422.8411-.6438,1.2785-.1633.3296-.3327.6685-.5022,1.0104-.25559.5114-.5175,1.0351-.7855,1.5773-.0893.1818-.1817.3666-.27109.5545q-.67921,1.3725-1.39551,2.8588l-.01849.037c-.18791.3851-.37581.7763-.56371,1.1706-.0062.0154-.0154.0308-.0216.0462-.2896.5977-.5792,1.2076-.8749,1.8299q-.3189.67005-.6469,1.3678c-.8102,1.7159-1.6451,3.518-2.4953,5.388-.1294.2803-.2588.5637-.3851.8502q-.46215,1.012-.9242,2.0517c-.1355.2957-.268.5976-.4036.9026q-.29565.66075-.5945,1.337c-.2495.5668-.5021,1.1429-.7547,1.7221q-.29115.6699-.5854,1.3493c-1.8175,4.2081-3.6566,8.6503-5.4465,13.2404-.1971.5021-.3912,1.0074-.5883,1.5157-.1602.4189-.3235.841-.4837,1.2661-.25259.6623-.5052,1.3277-.7517,1.9962q-.44355,1.183-.8811,2.3813-.39269,1.07205-.7732,2.1503c-.06159.1663-.1201.3358-.1817.5083q-.89655,2.51835-1.7467,5.0645v.0031c-.1017.2957-.2003.5945-.2989.8934a184.17141,184.17141,0,0,0-7.9756,32.6359,3.13167,3.13167,0,0,1-1.377-.0339,14.47638,14.47638,0,0,1-7.9696-5.4249c-7.3164-8.9276-11.7094-19.4048-15.75109-30.0544A349.7721,349.7721,0,0,1,11.0112,217.7249c-1.93769-8.1883-3.592-16.4381-5.1015-24.7157-1.0597-5.81-2.0301-11.6478-2.7386-17.5102-.59459-4.9043-1.2508-9.8055-1.6728-14.7376C.93151,154.1443.4848,147.5302.226,140.8884c-.1417-3.6351-.3266-7.2795-.1602-10.8961.2742-5.9117.5484-11.8264,1.09671-17.7258.35729-3.86.60379-7.7354,1.03509-11.5861.5145-4.6025,1.223-9.1833,2.027-13.7519A85.84084,85.84084,0,0,1,8.95651,69.825,57.24353,57.24353,0,0,1,15.2963,58.2728a4.77146,4.77146,0,0,1,2.5723-1.5866c5.46191-1.8976,11.0995-3.1668,16.7061-4.5254,5.2556-1.2722,10.5357-2.446,15.8097-3.6474a13.9659,13.9659,0,0,1,1.68511-.2495.46749.46749,0,0,0-.03081.0523c-.61919.9951-1.2877,2.0117-1.9654,3.0344a109.09784,109.09784,0,0,0-10.9701,91.5371c.0955.2865.1911.5761.2865.8626a109.24114,109.24114,0,0,0,45.4082,57.3763Z" transform="translate(0.00001 0)" fill="#999a9c"/><path d="M283.0409,143.7287c-.0801,5.2402-.5576,10.4864-1.0843,15.7204-.419,4.1588-.8164,8.3207-1.3309,12.4672q-.83175,6.6726-1.9069,13.3143c-1.1644,7.1409-2.4305,14.2632-3.9246,21.3456q-2.8281,13.4145-6.40769,26.6441-2.46766,9.10785-5.44031,18.0585a200.53314,200.53314,0,0,1-7.7262,20.2088c-2.5446,5.5481-5.1261,11.0717-8.6596,16.0807-2.4275,3.4472-5.0738,6.6973-8.8844,8.7397a4.423,4.423,0,0,1-2.6371.6839,3.70538,3.70538,0,0,1-.382.1571q-.11085-.8826-.2372-1.7744-.13395-.9519-.2803-1.91-.20325-1.28925-.4281-2.5877l-.037-.2126q-.15718-.8826-.3235-1.7744-.1572-.83175-.3235-1.6697c-7.3349-36.995-28.8375-78.9805-32.1831-85.3759l-.0184.0062c-.1695-.3235-.3142-.6038-.4344-.8348a109.34562,109.34562,0,0,0,38.8218-42.2012,107.89942,107.89942,0,0,0,8.1944-20.8804c.0123-.0369.0215-.077.0308-.117a108.87193,108.87193,0,0,0,3.9032-28.9824q0-3.082-.1726-6.1181v-.0092q-.00465-.17565-.01849-.3512v-.0061A108.18674,108.18674,0,0,0,249.909,91.1397v-.0031a.15807.15807,0,0,0-.0061-.0369v-.0031a108.18281,108.18281,0,0,0-16.9957-42.882,4.0041,4.0041,0,0,1,1.2168.8163,100.87,100.87,0,0,1,10.9331,2.2458c6.0257,1.3678,11.962,3.1176,17.97841,4.4946,4.09409.9365,6.00409,3.7891,7.89559,7.0299,4.0571,6.953,6.2536,14.5343,7.8493,22.3314,1.2693,6.195,2.06711,12.4672,2.7418,18.7454.4805,4.4608.5391,8.9677,1.0012,13.4346C283.4384,126.1077,283.1734,134.9244,283.0409,143.7287Z" transform="translate(0.00001 0)" fill="#999a9c"/><path d="M194.35651,107.7349a51.18008,51.18008,0,0,1-38.91111,48.3224c-15.5294,3.6444-29.9866.8687-42.842-8.6287a49.85674,49.85674,0,0,1-19.8853-32.1369,56.30845,56.30845,0,0,1-.881-10.2245q.0045-44.1297-.0031-88.2594v-.0924c0-.5422.0122-1.5927.0154-2.3936.0616-.037.1232-.0678.1848-.1017q.975-.52215,1.95931-1.0166c-.00931,9.6977-.00621,22.5932-.00621,32.1646q0,30.0267.00921,60.0502A49.72406,49.72406,0,0,0,99.859,129.4779a49.16544,49.16544,0,0,0,19.4816,19.759,49.03193,49.03193,0,0,0,56.3905-6.1951A48.54339,48.54339,0,0,0,191.51,115.0853a37.45078,37.45078,0,0,0,.74551-7.4705c-.04621-4.6702.14789-9.3496-.08931-14.0075-.3573-6.9745.0216-13.9521-.3081-20.9142-.3235-6.8205.0185-13.644-.305-20.4491-.3388-7.0761.0155-14.1584-.3203-21.2223-.228-4.7564-.1079-12.9231-.23729-17.8336q1.086.54525,2.15949,1.1244V16.968c-.0061,3.7491-.1386,7.5044.0616,11.2442.3851,7.1778-.0092,14.3649.3235,21.5365.3112,6.7188-.02159,13.4407.2957,20.1503.3359,7.0792-.01229,14.1615.3235,21.2284C194.4212,96.6663,194.4551,102.2053,194.35651,107.7349Z" transform="translate(0.00001 0)" fill="#5e5e60"/><path d="M234.6261,297.1398c-.0092,0-.0153.003-.0215.003-.8102.2588-1.3616-.0246-1.9192-.9703-3.0591-5.2186-4.9536-10.9054-6.7866-16.6076a182.03631,182.03631,0,0,1-5.6991-21.6351c-.4929-2.5815-1.759-3.4749-4.0387-4.051-8.5702-2.1564-17.199-4.051-25.9171-5.4619-5.93939-.9611-11.9127-1.7344-17.9107-2.2796-5.18769-.4744-10.3693-.9581-15.5755-1.2507-5.1107-.2866-10.2276-.4745-15.3383-.496-5.6745-.0216-11.3613.2156-17.0265.6099-6.4631.4467-12.9262,1.029-19.35239,1.8453a278.03246,278.03246,0,0,0-31.78261,5.6498c-2.6277.647-5.2308,1.4171-7.8802,1.9408a3.60427,3.60427,0,0,0-.4806.1325l-2.5568,6.8728a238.3688,238.3688,0,0,1-6.6264,23.9887,48.75926,48.75926,0,0,1-4.433,9.7778,3.45743,3.45743,0,0,1-2.1595,1.7929,184.16325,184.16325,0,0,1,7.9757-32.6359c.0985-.2988.1971-.5945.2988-.8934v-.003q.8502-2.5461,1.7467-5.0646c.0616-.1725.1201-.3419.1818-.5082.2557-.7209.5144-1.4356.7732-2.1503q.4389-1.19685.881-2.3813.37425-1.00275.7517-1.9963c.16021-.4251.3234-.8471.4836-1.2661.1972-.5083.3913-1.0104.5885-1.5156,1.7897-4.5901,3.6289-9.0324,5.4465-13.2405q.29565-.6792.5852-1.3493c.2527-.5791.5053-1.1552.7548-1.722.2003-.4498.3974-.8965.59461-1.337.13549-.305.268-.6069.40359-.9026q.462-1.0398.9241-2.0517c.12631-.2865.2557-.5699.3851-.8503q.63765-1.4001,1.263-2.751c.1048-.2248.2095-.4497.31121-.6715.20939-.4436.41279-.8842.61609-1.3185q.15255-.32355.305-.647.32805-.69765.64691-1.3677.44353-.93345.87489-1.8299c.00611-.0154.0154-.0308.0215-.0462.1911-.3944.379-.7856.5638-1.1707l.0185-.0369q.72075-1.48335,1.3955-2.8588c.0893-.1879.18181-.3728.2711-.5545q.402-.80865.7856-1.5773c.1693-.3419.3388-.6808.50211-1.0104.22179-.4375.43739-.8657.64389-1.2785.0523-.1017.1047-.2033.154-.3019.1047-.2064.2094-.4097.31111-.6069.54839-1.0874,1.05669-2.0732,1.51569-2.9573.12631-.2403.2464-.4714.3634-.6963.3482-.6715.6655-1.2723.9427-1.796l.0031-.0061.00311-.0031c.41279-.7825.74239-1.3924.97039-1.8176v-.003c.2218-.4067.3512-.6439.382-.6963l.0061-.0123q.8595.5406,1.7344,1.0628c-.8471,1.6112-13.0586,24.9314-21.2777,48.2639,0,0,40.4545-9.4975,75.93381-9.5499l-.12941.0893c35.5502,0,78.1303,9.5499,78.1303,9.5499a474.78178,474.78178,0,0,0-20.7016-48.3562c.64071-.3851,1.2723-.7733,1.90371-1.1707.12019.2311.265.5114.43449.8349,4.4761,8.6441,25.0668,49.5946,32.20151,85.3697q.16634.8364.32349,1.6697.16635.89175.3234,1.7744l.037.2126q.2265,1.2984.4282,2.5877.1479.95655.2804,1.9099C234.4721,295.9599,234.5523,296.5514,234.6261,297.1398Z" transform="translate(0.00001 0)" fill="#6d6d6d"/><path d="M141.0281,240.9834l.12941-.0893c-35.47931.0524-75.93381,9.5499-75.93381,9.5499,8.2191-23.3325,20.4306-46.6527,21.2777-48.2639.3604.2157.7209.4313,1.0844.6408a108.04228,108.04228,0,0,0,37.3524,13.4314l.499-1.1367.1694-.3913c.37891.0586.76091.1171,1.14291.1726.228.0338.459.0677.687.0985.04319.0062.08319.0124.12319.0185.4005.0555.801.1078,1.2045.1602.5206.0678,1.04431.1294,1.5681.1879q.7392.08325,1.4786.1572c.077.0061.1572.0154.2342.0215.4805.0462.9611.0893,1.4448.1294-.2927.5145-.5823,1.0289-.8626,1.5495-1.6327,2.979-3.12979,6.0349-4.587,9.1217-.8564,1.8206-.5792,2.4214,1.4294,2.5415,4.3406.2526,8.6719.7363,13.0279.6377,4.4083.1109,8.789-.4097,13.18191-.6377,1.91309-.1016,2.22109-.7116,1.51259-2.4614a88.83413,88.83413,0,0,0-4.3961-9.2449c-.2834-.5175-.5729-1.0351-.8656-1.5465.8872-.077,1.7744-.1663,2.6555-.2649.3173-.0339.6315-.0708.9488-.1109.7979-.0955,1.5927-.2033,2.3843-.3173.2558-.037.5084-.0739.7641-.114.0955-.0123.1941-.0277.2896-.0431l.2002.459.4682,1.0721a108.09515,108.09515,0,0,0,37.3-13.2405q.76245-.4389,1.5157-.8933a474.78178,474.78178,0,0,1,20.7016,48.3562S176.5783,240.9834,141.0281,240.9834Z" transform="translate(0.00001 0)" fill="#a4a4a5"/><path d="M251.3416,108.8347a108.87193,108.87193,0,0,1-3.9032,28.9824c-.0093.04-.0185.0801-.0308.117a107.89942,107.89942,0,0,1-8.1944,20.8804,109.34562,109.34562,0,0,1-38.8218,42.2012,108.14407,108.14407,0,0,1-40.7194,15.3044l-.4683-1.072-.2003-.4591q2.15805-.3327,4.2883-.7516c.4282-.0832.8564-.1694,1.2846-.2619.5267-.1078,1.0536-.2218,1.5773-.3419.2403-.0524.4805-.1078.7208-.1633.0924-.0216.1849-.0431.2742-.0647.4374-.1017.8718-.2095,1.3093-.3173.36961-.0924.7393-.1848,1.1089-.2803.2003-.0524.4036-.1078.6038-.1602.1911-.0493.37891-.1017.57-.154q.7209-.1941,1.4324-.4005c.2773-.0801.55451-.1602.8318-.2434.3759-.1109.75171-.2218,1.1244-.3388.3297-.1017.65931-.2034.9858-.3112.44051-.1386.878-.2803,1.3154-.4282.3143-.1047.6316-.2095.9458-.3204q1.15065-.3927,2.2919-.8163c.3482-.1263.69941-.2588,1.04741-.3913l.04629-.0185c.3604-.1386.7239-.2772,1.0844-.422.385-.151.7701-.305,1.1521-.4621.12321-.0493.2434-.0986.3635-.1479.2126-.0893.4252-.1756.63771-.268.35729-.1478.71469-.3019,1.069-.4559.33889-.1448.67459-.2927,1.01039-.4405.804-.3605,1.5988-.7271,2.39061-1.1029.47439-.2249.94869-.4528,1.417-.687q.70694-.3465,1.40779-.7054c.31121-.1602.6223-.3204.9304-.4837.1725-.0893.3451-.1787.5145-.2711a.50365.50365,0,0,0,.0554-.0308c.2002-.1047.4005-.2125.6007-.3204q3.193-1.7235,6.2537-3.6566c.1756-.1109.3481-.2218.5206-.3327.3573-.2249.7147-.456,1.06591-.6901q.72089-.4713,1.43249-.955c.0462-.0308.0893-.0616.13551-.0924.16939-.114.34189-.231.51139-.3512.1725-.1171.342-.2341.5113-.3543q.4299-.29565.8504-.6007.85005-.60075,1.685-1.2261c.2033-.1478.4035-.2988.6038-.4497.04-.0278.077-.0586.117-.0894.1417-.1047.2804-.2125.42211-.3204q.25873-.194.51749-.3973.81795-.63315,1.62351-1.2785l.00929-.0092q.8133-.6516,1.6081-1.3185c.268-.2218.5329-.4467.7948-.6716.2772-.2372.5544-.4744.8286-.7116.2496-.2188.496-.4344.7394-.6531q.62385-.5499,1.2322-1.109c.2619-.2372.52061-.4775.7794-.7209.1571-.1448.31421-.2927.4713-.4405q.9981-.94275,1.9716-1.91l.08931-.0893A107.60153,107.60153,0,0,0,237.488,158.6173a106.77522,106.77522,0,0,0,12.2362-49.7826c0-1.3678-.0246-2.7325-.077-4.0849a107.25084,107.25084,0,0,0-51.2366-87.4214q-2.5785-1.58025-5.2556-3.0159-1.072-.57765-2.15949-1.1244a107.37263,107.37263,0,0,0-97.002.0154q-.98431.4944-1.95931,1.0166c-.0616.0339-.1232.0647-.1848.1017l-.0154.0092c-.4128.2218-.8226.4436-1.2292.6716-.268.1448-.5329.2957-.7979.4467-.2711.1509-.5422.3049-.8102.4621-.1448.0831-.2896.1663-.4344.2526q-.462.2634-.9241.5452c-.17569.1017-.3543.2095-.5299.3173-.4436.265-.8872.5361-1.3247.8102q-.6885.42975-1.3677.8719c-.0863.0523-.1726.1078-.2558.1632-.4343.2804-.8687.5669-1.2969.8564-.4836.3204-.9611.65-1.4386.9827q-.71625.4899-1.4233,1.0043c-.0801.0555-.1632.114-.2464.1787-.268.191-.5391.3881-.804.5853-.3328.2434-.6655.4929-.9951.7424-.2526.188-.5021.379-.7516.573-.2773.2095-.5514.4221-.82569.6408q-.82232.6423-1.62961,1.3031-.40665.32805-.804.6654c-.2681.2187-.536.4436-.801.6716q-1.21065,1.02585-2.3905,2.0917c-.2495.2187-.496.4436-.7394.6716q-1.4601,1.33545-2.8711,2.7325c-.2957.2926-.5915.5853-.8841.8841q-.61005.61455-1.2077,1.2415l-.0061.0061q-.6006.62385-1.186,1.26-.59145.63765-1.1707,1.2846-.58215.64695-1.1521,1.3031-.4575.5268-.90569,1.0567-.90107,1.06275-1.76821,2.1472c-.29279.3604-.5792.7239-.8657,1.0905A107.28278,107.28278,0,0,0,87.0529,200.6152q1.95465,1.1829,3.9647,2.2858c.2125.1201.4282.2341.64391.3512s.43119.231.64679.345q.6702.3558,1.34321.7024c.44669.228.89639.4559,1.34939.6777q.5775.2865,1.1552.5638c.1971.0955.3973.191.5976.2834.2741.1325.5514.2618.8287.3881.1232.0586.2495.1171.3758.1725q.4389.2034.878.3975,1.50646.67455,3.0374,1.3c.26191.1078.5237.2156.7887.3173.2834.117.5668.231.8533.3388q.91965.3651,1.8545.7055c.1757.0678.3543.1325.533.1941q1.58955.58215,3.2069,1.109c.4806.1602.9611.3142,1.4448.4621.2618.0832.5206.1632.7824.2403.2372.0739.4714.1448.7086.2125.44671.1325.8964.265,1.3463.3882q.18015.0555.36041.1017c.26489.0739.53289.1478.79789.2187q2.3058.62385,4.6455,1.1398c.2988.0678.59461.1325.8934.1941.0554.0123.1108.0246.1663.0339q.24495.05535.4898.1016c.2465.0524.4929.1048.7363.151.3173.0647.6377.1263.955.1848.077.0154.1509.0308.2279.0431q.30045.0555.6008.1109c.3542.0647.7116.1294,1.069.188.4343.0739.8686.1478,1.30311.2156l-.16951.3912h-.0031l-.496,1.1368a109.01758,109.01758,0,0,1-85.5792-72.5113c-.0954-.2865-.191-.5761-.2865-.8626A108.67382,108.67382,0,0,1,50.0733,51.3506c.6777-1.0227,1.34621-2.0393,1.9654-3.0344a.46749.46749,0,0,1,.03081-.0523,108.85846,108.85846,0,0,1,180.83459-.0524l.0031.0031a108.18281,108.18281,0,0,1,16.9957,42.882v.0031a.15807.15807,0,0,1,.0061.0369v.0031a108.18674,108.18674,0,0,1,1.24151,11.2104v.0061q.01394.17565.01849.3512v.0092Q251.3445,105.7526,251.3416,108.8347Z" transform="translate(0.00001 0)" fill="#6d6d6d"/><path d="M192.25551,107.6148a37.45078,37.45078,0,0,1-.74551,7.4705,48.54339,48.54339,0,0,1-15.7789,27.9565,49.03193,49.03193,0,0,1-56.3905,6.1951,49.16544,49.16544,0,0,1-19.4816-19.759,49.72406,49.72406,0,0,1-5.86249-24.0596q-.03691-30.02655-.00921-60.0502c0-9.5714-.0031-22.4669.00621-32.1646a107.37263,107.37263,0,0,1,97.002-.0154c.12939,4.9105.00929,13.0772.23729,17.8336.3358,7.0639-.0185,14.1462.3203,21.2223.3235,6.8051-.0185,13.6286.305,20.4491.3297,6.9621-.0492,13.9397.3081,20.9142C192.4034,98.2652,192.2093,102.9446,192.25551,107.6148Z" transform="translate(0.00001 0)" fill="#6e7175"/><path d="M249.7242,108.8347A107.24957,107.24957,0,0,1,159.0034,214.789q-3.484.54075-7.0422.8503a102.79369,102.79369,0,0,0-7.3688-11.0963c-1.52789-2.0117-1.873-1.9439-3.4718-.0216a75.91005,75.91005,0,0,0-7.5999,11.1579q-3.98325-.32805-7.88319-.9457A107.24194,107.24194,0,0,1,91.834,14.331l.0154-.0092c-.0032.8009-.0154,1.8514-.0154,2.3936v.0924q.00915,44.1297.0031,88.2594a56.30845,56.30845,0,0,0,.881,10.2245,49.85674,49.85674,0,0,0,19.8853,32.1369c12.8554,9.4974,27.3126,12.2731,42.842,8.6287a51.18008,51.18008,0,0,0,38.91111-48.3224c.09859-5.5296.06469-11.0686-.19721-16.6075-.33579-7.0669.0124-14.1492-.3235-21.2284-.31729-6.7096.0155-13.4315-.2957-20.1503-.3327-7.1716.0616-14.3587-.3235-21.5365-.2002-3.7398-.0677-7.4951-.0616-11.2442V14.3125q2.67555,1.4325,5.2556,3.0159A107.149,107.149,0,0,1,249.7242,108.8347Z" transform="translate(0.00001 0)" fill="#999a9c"/><path d="M142.529,229.5279c-4.3578.1012-8.6881-.382-13.0284-.6371-2.0077-.1179-2.2865-.7204-1.4284-2.5408,3.632-7.7052,7.5531-15.2309,13.04731-21.8301,1.60039-1.9223,1.94519-1.9883,3.47259.024a95.52361,95.52361,0,0,1,12.6301,21.888c.7088,1.7482.4007,2.3595-1.5114,2.4595C151.3177,229.1209,146.9381,229.6393,142.529,229.5279Zm-.0294-.6366c3.7244-.1936,7.4478-.4075,11.1734-.5734,2.3394-.1042,2.633-.5231,1.7826-2.6914a90.47457,90.47457,0,0,0-11.4674-20.0809c-.8633-1.1867-1.2333-1.1449-2.1674-.0363-5.19929,6.1707-8.8699,13.2459-12.2142,20.5198-.743,1.6161-.5406,2.1235,1.2621,2.244C134.743,228.5321,138.624,228.691,142.4996,228.8913Z" transform="translate(0.00001 0)" fill="#5e5e60"/><path d="M142.5009,228.8911c-3.8769-.2001-7.7579-.359-11.6322-.618-1.8027-.1205-2.0051-.6279-1.2621-2.244,3.3443-7.2739,7.01491-14.3491,12.2142-20.5198.9341-1.1086,1.3041-1.1504,2.1674.0363a90.47457,90.47457,0,0,1,11.4674,20.0809c.8504,2.1683.5568,2.5872-1.7826,2.6914C149.9474,228.4838,146.224,228.6977,142.5009,228.8911Z" transform="translate(0.00001 0)" fill="#6e7175"/><path d="M179.91151,87.0171q0,12.5493-.00031,25.0988c-.0006,3.9599-1.7934,6.1668-5.5858,7.169-2.9763.7866-17.1155,2.5924-31.2301,2.4884-14.6806-.1082-29.3369-2.1539-31.49479-2.7504-3.46211-.957-5.29351-3.1634-5.30041-6.7461-.03259-16.9891-.0268-36.1956-.0041-53.1848.0043-3.2448,14.6219-7.1458,36.6166-7.1458,21.74991,0,36.9932,4.0842,36.9961,7.1388C179.9169,67.6566,179.91151,78.4455,179.91151,87.0171ZM142.8213,59.1554c-8.4173,0-16.8379.1372-25.2503-.0651a6.4185,6.4185,0,0,0-6.4574,6.4211q.22125,22.478.0067,44.9593a6.36884,6.36884,0,0,0,6.461,6.4057q25.25055-.18585,50.5029-.0001a6.45559,6.45559,0,0,0,6.6164-6.6515q-.09135-22.32585.0112-44.6523a6.49512,6.49512,0,0,0-6.486-6.4754C159.7612,59.2811,151.2899,59.1554,142.8213,59.1554Z" transform="translate(0.00001 0)" fill="#595b5b"/><path d="M142.8213,59.1554c8.4686,0,16.9399.1257,25.4045-.0583a6.49512,6.49512,0,0,1,6.486,6.4754q-.12165,22.32555-.0112,44.6523a6.45559,6.45559,0,0,1-6.6164,6.6515q-25.2504-.1908-50.5029.0001a6.36884,6.36884,0,0,1-6.461-6.4057q.20715-22.4784-.0067-44.9593a6.4185,6.4185,0,0,1,6.4574-6.4211C125.9834,59.2926,134.404,59.1554,142.8213,59.1554Zm.0593,56.1698q12.0123,0,24.0246-.001c3.729-.0014,6.0231-2.271,6.0268-6.0366q.02055-21.32955-.0003-42.6591c-.0037-3.8035-2.2369-6.0014-6.067-6.0034q-24.0246-.0123-48.04919.0008c-3.74181.0024-6.07131,2.2796-6.07841,6.0394q-.03975,21.32955-.0001,42.6591c.0069,3.7097,2.3983,5.998,6.1189,5.9997Q130.86835,115.3295,142.8806,115.3252Z" transform="translate(0.00001 0)" fill="#b1b2b5"/><path d="M142.8806,115.3252q-12.0123,0-24.0247-.0011c-3.7206-.0017-6.112-2.29-6.1189-5.9997q-.03915-21.32955.0001-42.6591c.0071-3.7598,2.3366-6.037,6.07841-6.0394q24.02458-.015,48.04919-.0008c3.8301.002,6.0633,2.1999,6.067,6.0034q.021,21.32955.0003,42.6591c-.0037,3.7656-2.2978,6.0352-6.0268,6.0366Q154.8929,115.329,142.8806,115.3252Z" transform="translate(0.00001 0)" fill="#4a4a4c"/><circle cx="239.73411" cy="97.8979" r="12.0495" fill="#6d6d6d"/><circle cx="239.73413" cy="97.89788" r="11.17869" transform="translate(9.39119 216.21344) rotate(-49.40043)" fill="#02aa46"/><circle cx="239.73411" cy="146.8774" r="12.0495" fill="#6d6d6d"/><circle cx="239.73413" cy="146.87743" r="11.17862" transform="translate(38.44042 343.15853) rotate(-75.77212)" fill="#e23434"/><circle cx="214.25611" cy="122.4517" r="12.0495" fill="#6d6d6d"/><circle cx="214.25611" cy="122.4517" r="11.2521" fill="#f2e825"/><circle cx="264.43833" cy="122.4517" r="12.04949" fill="#6d6d6d"/><circle cx="264.43833" cy="122.4517" r="10.96404" fill="#3f6c9e"/><circle cx="38.18899" cy="96.726" r="32.82721" fill="#b1b2b5"/><circle cx="38.18902" cy="96.726" r="22.7475" fill="#5e5e60"/><circle cx="38.18901" cy="96.726" r="19.42" fill="#6e7175"/><path d="M165.9782,32.7362v6.2494a2.54682,2.54682,0,0,1-2.5394,2.5394H122.385a2.54683,2.54683,0,0,1-2.5394-2.5394V32.7362a2.54683,2.54683,0,0,1,2.5394-2.5394h5.0143a2.26719,2.26719,0,0,0,2.26721-2.2672V21.9817A14.007,14.007,0,0,1,142.7794,7.857a13.76125,13.76125,0,0,1,14.4053,13.7492v6.3234a2.26725,2.26725,0,0,0,2.2672,2.2672h3.9869A2.54682,2.54682,0,0,1,165.9782,32.7362Z" transform="translate(0.00001 0)" fill="#76797c"/><g id="Logo"><path d="M137.4934,34.948c.2048-.0925.3549-.1491.4843-.2049.1321-.0377.2803-.0736.4663-.1123a2.29725,2.29725,0,0,1,.5051-.0557,2.44978,2.44978,0,0,1,.5598.1105.7147.7147,0,0,1,.3181.2992.33563.33563,0,0,1,.11051.2983v.1501c-.018.0557-.05571.0737-.09351.1294a.498.498,0,0,1-.1303.1491,1.05976,1.05976,0,0,1-.1501.1123c-.0746.0378-.1482.0557-.2247.0935-.0736.0378-.1859.0198-.29639.0566a7.4278,7.4278,0,0,0-.84021.1303,2.827,2.827,0,0,0-.3927.1501,1.10133,1.10133,0,0,0-.2983.2049.81379.81379,0,0,0-.2039.2615,1.3928,1.3928,0,0,0-.1501.2973,2.34943,2.34943,0,0,0-.0557.3918,1.19286,1.19286,0,0,0,.1482.6155,1.04975,1.04975,0,0,0,.4862.4494,1.90006,1.90006,0,0,0,.8402.2039h.354c.11231-.018.2228-.0557.4305-.0926.0934-.0755.2227-.1491.3719-.2614.1312-.1303.2058-.2049.2058-.2049v.4663h.8024a1.63386,1.63386,0,0,1-.0925-.6155c0-.4115-.03779-1.3074-.01979-1.7917,0-.4862-.01891-.354-.01891-.5598a2.13051,2.13051,0,0,0-.1303-.5966,3.50782,3.50782,0,0,0-.2435-.4116,1.41253,1.41253,0,0,0-.5787-.3739,2.17458,2.17458,0,0,0-.61459-.0934c-.22471,0-.55981.0189-.80241.0359a6.23633,6.23633,0,0,0-.7288.1878A5.59344,5.59344,0,0,1,137.4934,34.948Zm2.0325,2.9869c-.0369.0179-.1483.1104-.187.1303-.1482.0377-.2416.0934-.3341.1113a2.129,2.129,0,0,1-.355.0369.80008.80008,0,0,1-.4475-.1303c-.1312-.0736-.1312-.0378-.2246-.169a.97753.97753,0,0,1-.2039-.4465.59805.59805,0,0,1,.0179-.3181.66576.66576,0,0,1,.1123-.2238,1.6845,1.6845,0,0,1,.2606-.2426c.1123-.0576.2058-.0746.3918-.1482a1.58365,1.58365,0,0,1,.4304-.0755,2.44333,2.44333,0,0,0,.40971-.0548.65659.65659,0,0,0,.20579-.0585,1.22912,1.22912,0,0,1,.1681-.0746,1.8555,1.8555,0,0,0,.1859-.1482l-.01879.8949a1.453,1.453,0,0,1-.14921.5787A1.40685,1.40685,0,0,1,139.5259,37.9349Z" transform="translate(0.00001 0)"/><path d="M152.7393,34.8923c.186-.0934.3361-.1482.4663-.2058.1294-.0378.2983-.0736.4664-.1104a2.55176,2.55176,0,0,1,.5041-.0567,2.26047,2.26047,0,0,1,.5588.1114c.1492.0387.24361.1869.3361.2993.09351.0934.09351.1841.1124.3341a.37976.37976,0,0,1-.01989.1492c-.01881.0585-.03771.0378-.07451.0944a.52591.52591,0,0,1-.1313.1492.74491.74491,0,0,1-.168.1123c-.0566.0359-.13119.0557-.2058.0935-.09339.0377-.186.0179-.29639.0556a6.19079,6.19079,0,0,0-.84021.1303c-.1699.0567-.2804.0944-.4116.1492a1.3999,1.3999,0,0,0-.2983.2077.76827.76827,0,0,0-.2058.2407,1.65953,1.65953,0,0,0-.13209.3181,1.36667,1.36667,0,0,0-.07371.3918,1.42291,1.42291,0,0,0,.1501.6155,1.11969,1.11969,0,0,0,.4852.4474,2.06745,2.06745,0,0,0,.8591.2058h.3342c.1322-.0198.2426-.0556.4286-.0934.0944-.0746.24351-.1501.3738-.2596.1501-.1331.22471-.2068.22471-.2068v.4664h.80149a2.29973,2.29973,0,0,1-.11049-.6165c.01789-.4106-.01981-1.3055-.01981-1.7898a4.55793,4.55793,0,0,0,0-.5608,2.8803,2.8803,0,0,0-.1303-.5956,1.66723,1.66723,0,0,0-.2605-.4116,1.19463,1.19463,0,0,0-.5787-.3748,2,2,0,0,0-.59569-.1086c-.22471,0-.57871.0359-.80431.0538-.24169.0378-.40969.0935-.7278.1681C152.7393,34.5572,152.7582,34.7611,152.7393,34.8923Zm2.0344,2.9859c-.0558.0199-.14919.1124-.2049.1322-.1312.0359-.2237.0935-.3172.1114a2.68951,2.68951,0,0,1-.3549.0368.85709.85709,0,0,1-.4664-.1312c-.1123-.0746-.1123-.0368-.20579-.168a.85264.85264,0,0,1-.22371-.4484,1.8094,1.8094,0,0,1,.0189-.3182.70451.70451,0,0,1,.1302-.2209,1.758,1.758,0,0,1,.2625-.2454,3.68565,3.68565,0,0,1,.3898-.1482,1.51794,1.51794,0,0,1,.4305-.0727,2.72618,2.72618,0,0,0,.4116-.0586c.0557-.0179.1303-.0368.186-.0557a1.43458,1.43458,0,0,1,.185-.0745c.0378-.0378.0755-.0576.1699-.1482v.8949a1.568,1.568,0,0,1-.1491.5787A1.39427,1.39427,0,0,1,154.7737,37.8782Z" transform="translate(0.00001 0)"/><path d="M141.3922,38.5881l.0934-.3162.01991-.8789-.05671-2.5196a5.10135,5.10135,0,0,0-.1302-.5966,1.76928,1.76928,0,0,0,.539-.0953.96414.96414,0,0,1,.3181-.0359v.5787c.0935-.1681.2417-.1851.3182-.2804.05561-.0935.1312-.0935.2605-.186a.83818.83818,0,0,1,.33611-.1123,4.29144,4.29144,0,0,1,.48429-.0368,1.03968,1.03968,0,0,1,.336.0557.94527.94527,0,0,1,.3172.1302.787.787,0,0,1,.2417.169.98058.98058,0,0,1,.2247.2426c.0188.0378.1859-.2039.4286-.3351a1.75675,1.75675,0,0,1,.8222-.2436,2.98673,2.98673,0,0,1,.8015.0935,1.62528,1.62528,0,0,1,.5607.2993c.1114.1293.1482.1859.2417.2983a1.03813,1.03813,0,0,1,.1699.5966c0,.1491.0179.3738.0179.6542v2.0693a2.12958,2.12958,0,0,0,.0944.4493h-.859c.1104-.354.0934-.2435.0934-.4493l.018-1.8833c0-.2625,0-.4116-.018-.6165a1.46062,1.46062,0,0,0-.0934-.4663,1.68179,1.68179,0,0,0-.2804-.354.751.751,0,0,0-.2983-.1322.95839.95839,0,0,0-.4097-.0557,1.84992,1.84992,0,0,0-.337.0387,1.45033,1.45033,0,0,0-.2436.1105.92661.92661,0,0,0-.22279.168,1.86041,1.86041,0,0,0-.168.2794,2.13573,2.13573,0,0,0-.05571.4305c0,.186.0179.4286,0,.6891v1.8296l.1303.4115h-.8968c0-.3738.0575-.0377.0575-.4295V35.6032c-.0188-.1501-.0358-.2058-.0575-.3182a.98668.98668,0,0,0-.1662-.3162,1.03463,1.03463,0,0,0-.3559-.2823.78952.78952,0,0,0-.3729-.0934.75194.75194,0,0,0-.3549.0764.77936.77936,0,0,0-.3163.186c-.0953.0925-.169.1123-.2435.2587-.0576.15-.1124.1123-.1303.3577-.03779.2408-.0566,1.1187-.0566,1.7153.01881.355.01881.6712.01881.9695,0,.186.09349.2606.09349.4296h-.4286C141.8028,38.5881,141.5612,38.5881,141.3922,38.5881Z" transform="translate(0.00001 0)"/><path d="M151.9926,37.7848c0,.0576-.0198.1501-.0368.2804-.0199.1312-.0567.2435-.0756.3738a3.33606,3.33606,0,0,1-.5768.1312c-.16989.0189-.6532.0359-.8043.0359a3.215,3.215,0,0,1-.8581-.1293,2.14852,2.14852,0,0,1-.7467-.4664,1.75212,1.75212,0,0,1-.5041-.691,2.94884,2.94884,0,0,1-.1662-.8949,2.44957,2.44957,0,0,1,.1662-.9884,2.10935,2.10935,0,0,1,.7288-.9157,2.90716,2.90716,0,0,1,1.47451-.4107,4.37551,4.37551,0,0,1,1.19419.1681c.0189.2624.03781.4097.0576.5786-.2615-.0953-.505-.2076-.6542-.2435-.1671-.0198-.3738-.0557-.5032-.0557a2.90042,2.90042,0,0,0-.9147.2039,1.25573,1.25573,0,0,0-.4664.4116,2.04188,2.04188,0,0,0-.2605.6532,1.23637,1.23637,0,0,0-.0567.5221,3.12616,3.12616,0,0,0,.169.8959,1.33954,1.33954,0,0,0,.5221.6343,1.48863,1.48863,0,0,0,.8024.2804A3.245,3.245,0,0,0,151.9926,37.7848Z" transform="translate(0.00001 0)"/><path d="M156.5267,38.4192l-.0736-.2974c0-.0378-.07459-.2237-.1114-.4295a3.28326,3.28326,0,0,0,1.4179.4852,1.95511,1.95511,0,0,0,.522-.1114.79311.79311,0,0,0,.3361-.2596,1.1435,1.1435,0,0,0,.1501-.3002.398.398,0,0,0,.0179-.2039.81537.81537,0,0,0-.0934-.2813c-.03779-.0557-.187-.1851-.2606-.2606a2.98233,2.98233,0,0,0-.5607-.2804,3.96848,3.96848,0,0,1-.7458-.3351,2.78347,2.78347,0,0,1-.4484-.3361,1.6488,1.6488,0,0,1-.2058-.3341,3.20038,3.20038,0,0,1-.0189-.4135,1.04257,1.04257,0,0,1,.2237-.54.99286.99286,0,0,1,.5221-.3738,2.521,2.521,0,0,1,.7844-.1322,6.18572,6.18572,0,0,1,1.0649.1501c.0179.2247-.03869.3927-.0198.5787a1.73677,1.73677,0,0,0-.9327-.2983,2.00456,2.00456,0,0,0-.48619.0746.98854.98854,0,0,0-.37381.2794.51088.51088,0,0,0-.0935.2804.68233.68233,0,0,0,.0557.2605.80206.80206,0,0,0,.2804.2804,1.13762,1.13762,0,0,0,.186.0736,5.66806,5.66806,0,0,1,.7278.3181,2.86146,2.86146,0,0,1,.691.4305,1.0733,1.0733,0,0,1,.28041.4475.775.775,0,0,1,.07359.3351c0,.168-.0377.186-.0377.2983a.56612.56612,0,0,1-.1482.4484,1.13755,1.13755,0,0,1-.5598.4475,2.09154,2.09154,0,0,1-.7836.169c-.1312,0-.4116.0179-.5777,0-.168-.0189-.3181-.0756-.4494-.0944A1.63237,1.63237,0,0,1,156.5267,38.4192Z" transform="translate(0.00001 0)"/><path d="M161.97651,38.0453a2.14582,2.14582,0,0,0-.09441.4664,1.13,1.13,0,0,1-.3729.0755,1.6745,1.6745,0,0,1-.2992-.0189,1.30207,1.30207,0,0,1-.5768-.0934.689.689,0,0,1-.3361-.3182,1.88039,1.88039,0,0,1-.1501-.7826v-.1699a6.619,6.619,0,0,1,0-.6702l-.0179-1.9428h-.5419v-.3908l.5419-.0199c.0179-.1085,0-.4843,0-.7637a.61517.61517,0,0,0-.1313-.337c.2606-.0557.6354-.168.8015-.2039,0,.4286.0387,1.063.0387,1.3046l1.1196.0198a1.59349,1.59349,0,0,0,.01991.4286l-.31821-.0377h-.8213l-.0179,2.445v.2058a2.28034,2.28034,0,0,0,.09341.6155c.03589.1123.11049.1501.204.2058a.74416.74416,0,0,0,.28029.0566h.2436A1.20237,1.20237,0,0,0,161.97651,38.0453Z" transform="translate(0.00001 0)"/><path d="M133.6116,35.6938h2.3326a.76662.76662,0,0,0-.0188-.2417,1.16428,1.16428,0,0,0-.1114-.2983.82685.82685,0,0,0-.2436-.2615.95634.95634,0,0,0-.3162-.2058,1.63386,1.63386,0,0,0-.4494-.0557,1.031,1.031,0,0,0-.4116.0944.91423.91423,0,0,0-.353.2058.93539.93539,0,0,0-.2615.2794.90245.90245,0,0,0-.14919.3352l-.01891.0368S133.62951,35.5824,133.6116,35.6938Zm2.9283,2.1117c-.0179.1671-.0746.372-.0925.6335-.2605.0736-.6721.2237-.8581.2615-.186.0179-.37379.0179-.55979.0179a3.0599,3.0599,0,0,1-.95251-.168,1.88024,1.88024,0,0,1-.7279-.5041,2.1401,2.1401,0,0,1-.4861-.7449,3.57824,3.57824,0,0,1-.1312-.8949,2.271,2.271,0,0,1,.1878-1.0082,2.08913,2.08913,0,0,1,.7278-.8779,1.8433,1.8433,0,0,1,1.1565-.3172,2.48583,2.48583,0,0,1,.7467.0925,1.38172,1.38172,0,0,1,.5598.3181,1.97514,1.97514,0,0,1,.3738.5598,1.55214,1.55214,0,0,1,.1501.5221,1.98323,1.98323,0,0,1,.0359.4493l-3.1898.018v.3181a2.3432,2.3432,0,0,0,.185.8968,1.25048,1.25048,0,0,0,.5409.5768,1.84917,1.84917,0,0,0,.8411.2605A3.89163,3.89163,0,0,0,136.5399,37.8055Z" transform="translate(0.00001 0)"/><path d="M130.0083,38.7005c0-.0954.0755-.2068.0755-.2813.0198-1.417,0-2.4998-.0378-3.3957l-.0179-.3927-.1312-.3172c.1312-.0198.3181-.0368.41161-.0557a3.068,3.068,0,0,1,.44649-.0566v.8043a.88738.88738,0,0,1,.1859-.2624,1.362,1.362,0,0,1,.2804-.2804,1.28206,1.28206,0,0,1,.3181-.169,1.136,1.136,0,0,1,.355-.0925,3.46451,3.46451,0,0,1,.4673,0,2.34378,2.34378,0,0,1,.4663.1114,2.5632,2.5632,0,0,1-.1869.5976,1.42272,1.42272,0,0,1-.3738-.0935,1.64837,1.64837,0,0,0-.4107-.0378,1.31611,1.31611,0,0,0-.4663.0935,1.09118,1.09118,0,0,0-.3342.2417,1.20231,1.20231,0,0,0-.2058.4115c-.0576.1322-.0377.0199-.0576.2247-.0179.2238,0,2.2213.0199,2.6876l.0736.2417h-.4475C130.3642,38.6797,130.1584,38.7005,130.0083,38.7005Z" transform="translate(0.00001 0)"/><path d="M124.5244,38.2134c.3522.0198.6524.0198.9507.0198.2435,0,.5418-.0198.80241-.0378a2.92138,2.92138,0,0,0,.67309-.2058,1.57528,1.57528,0,0,0,.5966-.3738,2.63683,2.63683,0,0,0,.4862-.6353,2.68167,2.68167,0,0,0,.2416-.8024,4.86272,4.86272,0,0,0,.0756-.895,3.14915,3.14915,0,0,0-.2068-.8779,1.904,1.904,0,0,0-.5031-.8591,2.03468,2.03468,0,0,0-.7279-.4465,3.86731,3.86731,0,0,0-1.0818-.1878c-.2804,0-.6363.0198-.8043.0387a4.97457,4.97457,0,0,1-.5787.0377Zm-1.1026.5041.1501-.4286V32.9901a3.0381,3.0381,0,0,0-.1689-.5985c.3738.0198.9893-.0189,1.2498-.0189.1492,0,.39271.0189.7279.0189.336,0,.6353,0,.7835.0198a3.87316,3.87316,0,0,1,.9336.1482,4.02627,4.02627,0,0,1,.93271.4664,2.44394,2.44394,0,0,1,.59759.5598,3.28945,3.28945,0,0,1,.3719.5966,3.39746,3.39746,0,0,1,.2436,1.1772,3.53544,3.53544,0,0,1-.169,1.4179,3.09312,3.09312,0,0,1-.8194,1.1583,2.23237,2.23237,0,0,1-1.0828.6344,6.1723,6.1723,0,0,1-1.399.186h-1.2131Z" transform="translate(0.00001 0)"/><path d="M143.6031,23.3045c0-.7477-.3559-.6741-.59759-.7099a7.86,7.86,0,0,1-1.43591-.0378,1.39915,1.39915,0,0,1-.9157-1.5114,1.60633,1.60633,0,0,1,1.754-1.4179,3.41633,3.41633,0,0,1,2.3148.9516,3.51185,3.51185,0,0,1,.7656,2.108,3.0919,3.0919,0,0,1-.4664,2.108,6.12093,6.12093,0,0,1-3.7317,1.4188,4.32953,4.32953,0,0,1-4.0866-4.4406,4.69342,4.69342,0,0,1,1.1007-3.5467,6.76213,6.76213,0,0,1,.4474-.6523,2.8692,2.8692,0,0,1,.4485-.3559,5.34808,5.34808,0,0,1,.5409-.3351,6.95065,6.95065,0,0,1,1.4547-.6892,6.37976,6.37976,0,0,1,2.0353-.2615,5.91542,5.91542,0,0,1,4.6097,2.4828c.1482.2039.2605.354.3908.5409a6.31306,6.31306,0,0,1,.4663.9884,8.38929,8.38929,0,0,1,.3918,1.3443,9.58036,9.58036,0,0,1,.2804,1.5671c.0198.2058.0368.4286.0576.6721a4.18165,4.18165,0,0,1-.0576,1.5491,6.0252,6.0252,0,0,1-1.4189,2.5187,7.349,7.349,0,0,1-2.2949,1.4557,8.0762,8.0762,0,0,1-1.3613.5229,5.12918,5.12918,0,0,1-2.16649.2804,15.63845,15.63845,0,0,1-2.34971-.1482,8.49507,8.49507,0,0,1-3.6392-1.6435c-2.2769-1.7899-2.7433-5.2988-2.7433-5.2988a12.153,12.153,0,0,1,.14821-3.6571,12.11813,12.11813,0,0,1,1.79369-3.5278,10.73,10.73,0,0,1,2.2751-1.923,11.24559,11.24559,0,0,1,2.7253-1.3235,6.87824,6.87824,0,0,1,2.1826-.3172,17.02231,17.02231,0,0,1,4.7399.6901,7.44742,7.44742,0,0,1,3.0615,1.8842,28.488,28.488,0,0,1,2.2014,3.0804,21.544,21.544,0,0,1,.9516,2.8924c.0576.2795.168,1.2688,1.1394,1.2131.895-.0764.63351-1.1007.6146-1.2886-.0378-.1869-.354-1.8842-.50409-2.3506a11.60843,11.60843,0,0,0-.98841-1.9409,20.412,20.412,0,0,0-1.3235-1.9786,6.09981,6.09981,0,0,0-1.4207-1.4944,19.0232,19.0232,0,0,0-2.1637-1.1564,21.82765,21.82765,0,0,0-3.1549-.8402,16.10321,16.10321,0,0,0-3.6005-.2058,9.07737,9.07737,0,0,0-3.1899.8024,13.4763,13.4763,0,0,0-3.0067,1.6983c-1.0271.8421-.7089.4305-1.26869,1.045a13.55146,13.55146,0,0,0-1.08191,1.3084,14.17644,14.17644,0,0,0-1.4755,3.171,16.13523,16.13523,0,0,0-.4097,1.7172,5.74635,5.74635,0,0,0-.0368,1.4925,3.45493,3.45493,0,0,1,.0557.9327s.4286,1.7728.65321,2.4827a8.52162,8.52162,0,0,0,1.99659,3.322,7.95217,7.95217,0,0,0,3.2843,2.2203,13.662,13.662,0,0,0,4.4416.8213,6.49362,6.49362,0,0,0,3.7326-.7089,11.55938,11.55938,0,0,0,3.34-2.0712,6.66211,6.66211,0,0,0,1.7172-2.5753,8.50311,8.50311,0,0,0,.1482-4.181c-.2238-1.063-.3918-1.9796-.5976-2.632a8.51461,8.51461,0,0,0-1.1564-2.2571,7.09269,7.09269,0,0,0-1.8107-1.5312,6.12307,6.12307,0,0,0-.9147-.523,8.16581,8.16581,0,0,0-1.4368-.4106,11.66517,11.66517,0,0,0-1.8475-.2984c-.522-.0368-.9695-.0179-1.1583-.0179a6.04365,6.04365,0,0,0-2.3496.7826,8.39056,8.39056,0,0,0-2.1835,1.5671,8.5453,8.5453,0,0,0-.6533.8402,6.71253,6.71253,0,0,0-1.1196,5.1326s.3162,3.6581,3.5259,4.7031a7.11252,7.11252,0,0,0,2.9689.2794,9.07823,9.07823,0,0,0,3.1162-1.1196,3.33334,3.33334,0,0,0,1.5124-1.6246,3.8155,3.8155,0,0,0,.3162-1.7531,8.60415,8.60415,0,0,0-.0925-1.1205,4.66505,4.66505,0,0,0-1.4755-2.8717l-.2804-.1879c-.168-.1123-.3162-.1869-.4474-.2605a5.91015,5.91015,0,0,0-2.6131-.6165,3.62242,3.62242,0,0,0-1.2876.2615,3.23962,3.23962,0,0,0-1.9041,3.2087,3.24654,3.24654,0,0,0,1.5671,2.3138C140.6728,23.8822,143.5276,24.6091,143.6031,23.3045Z" transform="translate(0.00001 0)" fill="#3e649f"/></g><path d="M76.7929,156.5985v12.2043a1.3815,1.3815,0,0,1-1.3789,1.3757H61.0307v14.3864a1.38411,1.38411,0,0,1-1.3789,1.3789H47.4507a1.38418,1.38418,0,0,1-1.3789-1.3789V170.1785H31.6886a1.3815,1.3815,0,0,1-1.3789-1.3757V156.5985a1.38217,1.38217,0,0,1,1.3789-1.3789H46.0718V140.8363a1.38209,1.38209,0,0,1,1.3789-1.3788H59.6518a1.382,1.382,0,0,1,1.3789,1.3788v14.3833H75.414A1.38217,1.38217,0,0,1,76.7929,156.5985Z" transform="translate(0.00001 0)" fill="#5e5e60"/><path d="M75.479,157.267v10.8673a1.2301,1.2301,0,0,1-1.2278,1.225H60.2113l.0001,14.0382a1.23252,1.23252,0,0,1-1.22789,1.2278H48.1191a1.23252,1.23252,0,0,1-1.2279-1.2278V169.3593H32.8514a1.23011,1.23011,0,0,1-1.2278-1.225V157.267a1.23063,1.23063,0,0,1,1.2278-1.2278H46.8912V142.0037a1.23069,1.23069,0,0,1,1.2278-1.2278H58.98351a1.23068,1.23068,0,0,1,1.22779,1.2278v14.0355H74.2512A1.23062,1.23062,0,0,1,75.479,157.267Z" transform="translate(0.00001 0)" fill="#6e7175"/><g id="START"><path d="M134.145,233.9909a2.34178,2.34178,0,0,0,1.0788.2693c.6152,0,.97471-.2876.97471-.7034,0-.3854-.24881-.6056-.87811-.8195-.7605-.2386-1.2308-.5872-1.2308-1.1681,0-.642.6017-1.1192,1.5075-1.1192a2.34167,2.34167,0,0,1,1.0301.2019l-.16569.4341a2.04817,2.04817,0,0,0-.88511-.1955c-.6363,0-.8782.3363-.8782.6176,0,.3854.2834.5749.9266.7951.7882.269,1.1892.6053,1.1892,1.2109,0,.636-.5324,1.1862-1.6317,1.1862a2.65982,2.65982,0,0,1-1.1895-.2629Z" transform="translate(0.00001 0)" fill="#7f7f7f"/><path d="M138.5228,230.9699h-1.4175v-.4525h3.4503v.4525h-1.4245v3.6693h-.6083Z" transform="translate(0.00001 0)" fill="#7f7f7f"/><path d="M141.3101,233.3426l-.484,1.2966h-.6222l1.5833-4.1218h.726l1.5905,4.1218h-.64319l-.49791-1.2966Zm1.5283-.4158-.4564-1.1865c-.1038-.2689-.173-.5135-.2422-.7521h-.0138c-.0692.2446-.145.4955-.235.7461l-.4563,1.1925Z" transform="translate(0.00001 0)" fill="#7f7f7f"/><path d="M144.7893,230.5725a7.05509,7.05509,0,0,1,1.1547-.0858,2.08278,2.08278,0,0,1,1.3483.3364.97216.97216,0,0,1,.3664.7828,1.10941,1.10941,0,0,1-.8781,1.052v.0183a1.05163,1.05163,0,0,1,.6847.8316,5.97234,5.97234,0,0,0,.3595,1.1314h-.6224a4.90171,4.90171,0,0,1-.3111-.9846c-.1384-.5686-.3872-.7828-.9335-.8012h-.5671v1.7858h-.6014Zm.6014,1.8775h.6155c.6432,0,1.0512-.312,1.0512-.7828,0-.5322-.4357-.7644-1.07189-.7707a2.79252,2.79252,0,0,0-.59481.049Z" transform="translate(0.00001 0)" fill="#7f7f7f"/><path d="M149.45751,230.9699H148.0399v-.4525h3.4503v.4525h-1.4244v3.6693h-.60829Z" transform="translate(0.00001 0)" fill="#7f7f7f"/></g><path d="M47.8672,96.1356a.59045.59045,0,1,0,.5905.5904A.59036.59036,0,0,0,47.8672,96.1356Zm3.8142,0a.59045.59045,0,1,0,.5904.5904A.59045.59045,0,0,0,51.6814,96.1356Zm3.5426,0a.59045.59045,0,1,0,.59051.5904A.59042.59042,0,0,0,55.224,96.1356ZM28.5107,97.3165a.59045.59045,0,1,0-.5904-.5905A.59053.59053,0,0,0,28.5107,97.3165Zm-3.8141,0a.59045.59045,0,1,0-.5904-.5905A.59053.59053,0,0,0,24.6966,97.3165Zm-3.5427,0a.59045.59045,0,1,0-.59039-.5905A.59053.59053,0,0,0,21.1539,97.3165ZM37.59851,87.0478a.59045.59045,0,1,0,.59049-.5905A.59044.59044,0,0,0,37.59851,87.0478Zm0-3.8142a.59045.59045,0,1,0,.59049-.5904A.59052.59052,0,0,0,37.59851,83.2336Zm0-3.5427a.59045.59045,0,1,0,.59049-.5904A.59052.59052,0,0,0,37.59851,79.6909Zm1.18089,26.7133a.59045.59045,0,1,0-.5904.5905A.59036.59036,0,0,0,38.7794,106.4042Zm0,3.8142a.59045.59045,0,1,0-.5904.5904A.59045.59045,0,0,0,38.7794,110.2184Zm0,3.5427a.59045.59045,0,1,0-.5904.5904A.59045.59045,0,0,0,38.7794,113.7611ZM35.6918,102.666a.59043.59043,0,1,1,.7731-.3154A.59039.59039,0,0,1,35.6918,102.666Zm-.70929,3.2107a.59044.59044,0,1,0-.77311.3155A.59044.59044,0,0,0,34.98251,105.8767Zm-1.47811,3.5161a.5905.5905,0,1,0-.7732.3155A.59061.59061,0,0,0,33.5044,109.3928Zm-1.373,3.2658a.59043.59043,0,1,0-.7731.3155A.59042.59042,0,0,0,32.1314,112.6586ZM40.6862,90.786a.59045.59045,0,1,1-.7732.3155A.59051.59051,0,0,1,40.6862,90.786Zm.7092-3.2107a.5905.5905,0,1,0,.7732-.3155A.59047.59047,0,0,0,41.3954,87.5753Zm1.4782-3.5161a.59045.59045,0,1,0,.7731-.3154A.59055.59055,0,0,0,42.8736,84.0592Zm1.373-3.2658a.59045.59045,0,1,0,.7731-.3155A.59035.59035,0,0,0,44.2466,80.7934ZM44.129,99.2232a.59043.59043,0,1,1-.31549-.7731A.59042.59042,0,0,1,44.129,99.2232Zm3.2107.7093a.59045.59045,0,1,0,.3155.7731A.59044.59044,0,0,0,47.3397,99.9325Zm3.516,1.4781a.59043.59043,0,1,0,.3155.7732A.59051.59051,0,0,0,50.8557,101.4106Zm3.2659,1.373a.59045.59045,0,1,0,.3155.7731A.59054.59054,0,0,0,54.1216,102.7836ZM32.2489,94.2288a.5905.5905,0,1,1,.3155.7731A.59062.59062,0,0,1,32.2489,94.2288Zm-3.2106-.7093a.59043.59043,0,1,0-.3155-.7731A.59038.59038,0,0,0,29.0383,93.5195Zm-3.5161-1.4781a.59045.59045,0,1,0-.3155-.7732A.59039.59039,0,0,0,25.5222,92.0414Zm-3.2658-1.373a.59043.59043,0,1,0-.3155-.7731A.59044.59044,0,0,0,22.2564,90.6684Zm9.506,13.3182a.59047.59047,0,1,0-.835-.0001A.59062.59062,0,0,0,31.7624,103.9866Zm-2.6972,2.6968a.59047.59047,0,1,0-.835-.0001A.5904.5904,0,0,0,29.0652,106.6834Zm-2.5053,2.5048a.5904.5904,0,1,0-.835,0A.59039.59039,0,0,0,26.5599,109.1882ZM44.6156,89.4654a.59044.59044,0,1,0,.835.0001A.59051.59051,0,0,0,44.6156,89.4654Zm2.6972-2.6968a.59043.59043,0,1,0,.835.0001A.59052.59052,0,0,0,47.3128,86.7686Zm2.5052-2.5048a.59047.59047,0,1,0,.8351,0A.5904.5904,0,0,0,49.818,84.2638Zm-4.36849,18.8888a.59043.59043,0,1,0,0,.835A.59049.59049,0,0,0,45.44951,103.1526Zm2.69679,2.6972a.59043.59043,0,1,0,0,.835A.59049.59049,0,0,0,48.1463,105.8498Zm2.5049,2.5053a.59043.59043,0,1,0,0,.835A.5904.5904,0,0,0,50.6512,108.3551ZM30.9284,90.2994a.59044.59044,0,1,0,.00011-.835A.59049.59049,0,0,0,30.9284,90.2994Zm-2.6968-2.6972a.59043.59043,0,1,0,.0001-.835A.59049.59049,0,0,0,28.2316,87.6022ZM25.7267,85.097a.59047.59047,0,1,0,.0001-.8351A.59052.59052,0,0,0,25.7267,85.097ZM32.278,99.2912a.59045.59045,0,1,1,.7767.3066A.59043.59043,0,0,1,32.278,99.2912Zm-2.7322,1.8294a.59045.59045,0,1,0-.7767-.3066A.59055.59055,0,0,0,29.5458,101.1206Zm-3.4989,1.5184a.59045.59045,0,1,0-.7767-.3066A.59047.59047,0,0,0,26.0469,102.639Zm-3.2499,1.4103a.59045.59045,0,1,0-.7767-.3066A.59034.59034,0,0,0,22.797,104.0493ZM44.1,94.1608a.59045.59045,0,1,1-.7767-.3066A.59047.59047,0,0,1,44.1,94.1608Zm2.7322-1.8293a.59041.59041,0,1,0,.7767.3065A.59039.59039,0,0,0,46.8322,92.3315Zm3.4988-1.5184a.59043.59043,0,1,0,.7767.3065A.59034.59034,0,0,0,50.331,90.8131Zm3.2499-1.4104a.59045.59045,0,1,0,.7767.3066A.59052.59052,0,0,0,53.5809,89.4027ZM40.7542,102.637a.59045.59045,0,1,1,.3066-.7767A.59046.59046,0,0,1,40.7542,102.637Zm1.82931,2.7322a.59046.59046,0,1,0-.30661.7767A.59049.59049,0,0,0,42.58351,105.3692Zm1.51839,3.4989a.59045.59045,0,1,0-.3066.7767A.59039.59039,0,0,0,44.1019,108.8681Zm1.4104,3.2498a.59047.59047,0,1,0-.3066.7767A.59038.59038,0,0,0,45.5123,112.1179ZM35.6238,90.815a.59045.59045,0,1,1-.3066.7767A.59053.59053,0,0,1,35.6238,90.815Zm-1.8294-2.7322a.59045.59045,0,1,0,.3066-.7767A.59046.59046,0,0,0,33.7944,88.0828ZM32.276,84.5839a.59045.59045,0,1,0,.3066-.7767A.59043.59043,0,0,0,32.276,84.5839Zm-1.4103-3.2498a.59045.59045,0,1,0,.3066-.7767A.59048.59048,0,0,0,30.8657,81.3341Z" transform="translate(0.00001 0)" fill="#b1b2b5"/><path d="M216.7447,127.7123l-1.33919-2.3249c-.54961-.8899-.88981-1.4657-1.22141-2.0764h-.0305c-.2966.6107-.5932,1.1691-1.1385,2.0894l-1.265,2.3119h-1.56159l3.21919-5.3217-3.0927-5.1995h1.5747l1.3915,2.4689c.3882.6848.6848,1.217.9684,1.7797h.0436c.2966-.6281.5627-1.108.95531-1.7797l1.43509-2.4689h1.5616l-3.20169,5.121,3.28019,5.4002Z" transform="translate(0.00001 0)" fill="#b5aa1d"/><path d="M238.9026,103.0736V98.6113l-3.3239-6.0589h1.5442l1.4831,2.9051c.4056.7939.7153,1.4351,1.04251,2.1679h.03489c.2966-.6848.6543-1.374,1.06-2.1679l1.5136-2.9051h1.5442l-3.5246,6.0414v4.4798Z" transform="translate(0.00001 0)" fill="#036d2e"/><path d="M237.8301,148.8272l-1.0949,3.3108h-1.4046l3.57691-10.5212h1.64009l3.59,10.5212H242.685l-1.1254-3.3108Zm3.45041-1.0599L240.251,144.74c-.23549-.6848-.3926-1.313-.5496-1.9193h-.0305c-.1571.6238-.3272,1.265-.5278,1.9019l-1.0338,3.0447Z" transform="translate(0.00001 0)" fill="#a02727"/><path d="M261.121,117.3285a12.99545,12.99545,0,0,1,2.482-.2225,4.3398,4.3398,0,0,1,2.8877.7677,2.207,2.207,0,0,1,.8724,1.8583,2.49812,2.49812,0,0,1-1.7797,2.3075v.0305a2.71735,2.71735,0,0,1,2.1723,2.6391,2.84187,2.84187,0,0,1-.8899,2.1068,5.2799,5.2799,0,0,1-3.6379.9815,16.23011,16.23011,0,0,1-2.1069-.1221Zm1.3566,4.3053h1.2345c1.4351,0,2.277-.7503,2.277-1.7623,0-1.2344-.9335-1.7186-2.30759-1.7186a5.71225,5.71225,0,0,0-1.20391.096Zm0,5.0425a7.168,7.168,0,0,0,1.1385.0611c1.4046,0,2.7001-.5147,2.7001-2.0458,0-1.4351-1.2301-2.0283-2.7132-2.0283h-1.1254Z" transform="translate(0.00001 0)" fill="#264560"/><path d="M47.1178,162.7006a6.4335,6.4335,0,1,1,6.4335,6.4335A6.43345,6.43345,0,0,1,47.1178,162.7006Z" transform="translate(0.00001 0)" fill="#656566"/></svg>