<svg xmlns="http://www.w3.org/2000/svg" viewBox="0 0 1000 114"><title>logo_right</title><g id="Layer_2" data-name="Layer 2"><rect x="614.38" y="35.57" width="44" height="44" fill="#fff"/><rect x="715.38" y="65.57" width="29" height="14" fill="#fff"/><rect x="750.38" y="62.57" width="22" height="20" fill="#fff"/><rect x="865.38" y="50.57" width="58" height="29" fill="#fff"/><rect x="933.38" y="60.57" width="27" height="22" fill="#fff"/><rect x="948.38" y="50.57" width="27" height="17" fill="#fff"/></g><g id="Calque_1" data-name="Calque 1"><path d="M758.74,91.6a22.66,22.66,0,0,1-9.87-2.36,14.09,14.09,0,0,1-6.5-6,15.41,15.41,0,0,1-1.89-7.8,19.51,19.51,0,0,1,.48-3.81c0-.25.09-.49.13-.72a2.72,2.72,0,0,1,.13-.49,17,17,0,0,1,1.85-3.72l.12-.21a10.79,10.79,0,0,1,2.65-3.25l.46-.39a12.32,12.32,0,0,1,3.29-2.14A31.82,31.82,0,0,1,753.9,59a30,30,0,0,1,5.42-1c1-.12,2.13-.26,3.32-.43a11,11,0,0,1,2-.34l.38,0a11.77,11.77,0,0,1,1.24-.51l.63-.25a7.92,7.92,0,0,0,.77-.56,5.81,5.81,0,0,1,.46-.38c.09-.11.26-.36.39-.55s.25-.35.36-.49V54.1c0-.2,0-.34,0-.44l-.07-.07a2.86,2.86,0,0,1-.42-.5A6.63,6.63,0,0,0,767,51.46l-.75-.2a17.56,17.56,0,0,0-3.8-.74,20,20,0,0,0-4.36.48c-1.64.35-3,.67-4.19,1l-1.34.56c-.92.38-2,.81-3.24,1.38a3.46,3.46,0,0,1-1.44.31,3.51,3.51,0,0,1-3.47-4c.14-1,.14-3,.15-5v-.34a3.49,3.49,0,0,1,2.52-3.34l.86-.25a57.16,57.16,0,0,1,6.84-1.73l.33,0c1.58-.11,5.55-.36,8.28-.36a25.24,25.24,0,0,1,7,1A17.72,17.72,0,0,1,778,45.1a3.09,3.09,0,0,1,.4.57c.31.55.62,1,1,1.5a15,15,0,0,1,1.7,3.07,24.63,24.63,0,0,1,1.54,7.23,8.84,8.84,0,0,0,0,1.09,36.47,36.47,0,0,1,.15,4.51.57.57,0,0,1,0,.13c-.11,3,0,7.62.1,11.72,0,2.34.1,4.54.1,6.09a2.44,2.44,0,0,1,0,.27,6.77,6.77,0,0,0,.34,3c.14.58.32,1.28.52,2.18a3.5,3.5,0,0,1-3.42,4.26h-8a3.51,3.51,0,0,1-2.78-1.37c-.31.22-.59.41-.81.59a3.53,3.53,0,0,1-1.58.73c-1,.18-1.81.37-2.49.53s-1.24.3-1.88.4a3.41,3.41,0,0,1-.55,0Zm-3-13c.26.11.57.27,1,.5l.21.13a4.62,4.62,0,0,0,2.56.73,18,18,0,0,0,2.93-.32,6.12,6.12,0,0,0,.77-.28c.47-.18,1-.4,1.72-.61l.31-.23.9-.65a12.38,12.38,0,0,0,1.74-2.34l.08-.13a11.11,11.11,0,0,0,.94-4l.06-2.84-.64.13-.27,0a12.76,12.76,0,0,1-3.41.55c-.45,0-.88.06-1.2.11a1.07,1.07,0,0,1-.25,0,17.16,17.16,0,0,0-3.3.52c-.89.35-1.57.58-2.15.78a11.24,11.24,0,0,0-1.3.48,10.68,10.68,0,0,0-1.35,1.28c-.11.13-.23.25-.34.37a2.78,2.78,0,0,0-.44.85c0,.09,0,.18-.07.26a2.53,2.53,0,0,0-.05,1.46,4.18,4.18,0,0,1,.05.61,11.84,11.84,0,0,0,1.36,2.4Z" fill="#3e649f"/><path d="M763.41,42.7a22,22,0,0,1,6.15.93,14.15,14.15,0,0,1,5.79,3.74c.94,1.69,1.87,2.62,2.44,4.13a21.22,21.22,0,0,1,1.31,6c0,2.06.19.73.19,5.6-.18,4.85.19,13.82.19,17.94-.18,2.42.18,2.8.93,6.16h-8V82.5l-2.06,2c-1.5,1.13-2.79,1.86-3.73,2.62-2.07.37-3.18.75-4.3.93h-3.55a18.94,18.94,0,0,1-8.41-2,10.5,10.5,0,0,1-4.87-4.49A12,12,0,0,1,744,75.39a23.41,23.41,0,0,1,.56-3.92,13.79,13.79,0,0,1,1.5-3,8.13,8.13,0,0,1,2-2.62,11,11,0,0,1,3-2,26.82,26.82,0,0,1,3.93-1.5c1.68-.57,4.67-.74,8.41-1.31,1.11-.37,2.23-.19,3-.57s1.5-.55,2.25-.93a11.27,11.27,0,0,0,1.5-1.13,4.69,4.69,0,0,0,1.3-1.49c.38-.56.76-.74.94-1.29V54.1a3.34,3.34,0,0,0-1.11-3c-.76-1.13-1.87-2.61-3.18-3a24.47,24.47,0,0,0-5.61-1.1,23.45,23.45,0,0,0-5.05.55c-1.86.39-3.35.75-4.67,1.13-1.29.56-2.8,1.12-4.85,2a56.38,56.38,0,0,0,.18-5.81,60.44,60.44,0,0,1,7.3-1.88c2.43-.17,5.78-.36,8-.36m-3.93,40.74a21.16,21.16,0,0,0,3.55-.37c.93-.18,1.86-.74,3.35-1.12.38-.2,1.5-1.12,1.87-1.3a14.39,14.39,0,0,0,2.63-3.38c1.31-2,1.49-5.8,1.49-5.8l.19-9A20.05,20.05,0,0,1,770.7,64a13.48,13.48,0,0,0-1.69.74,6.47,6.47,0,0,1-2.06.59c-.75.37-3,.37-4.1.55a16.33,16.33,0,0,0-4.31.75c-1.86.74-2.79.91-3.92,1.49A16.78,16.78,0,0,0,752,70.55a6.54,6.54,0,0,0-1.12,2.24,6,6,0,0,0-.18,3.18c0,1.49,1.3,3.37,2,4.47.94,1.31.94,1,2.25,1.69a8,8,0,0,0,4.48,1.31m3.93-47.74c-2.84,0-6.91.26-8.52.37l-.67.08A59.1,59.1,0,0,0,747,38l-.85.25a7,7,0,0,0-5,6.69v.32c0,1.88,0,3.81-.12,4.61a7,7,0,0,0,6.6,7.9,16.19,16.19,0,0,0-3.5,2.38l-.43.35a14.51,14.51,0,0,0-3.47,4.21l-.11.2a20.31,20.31,0,0,0-2.15,4.38,6.67,6.67,0,0,0-.26,1c0,.2-.08.43-.12.66a23,23,0,0,0-.54,4.47,18.86,18.86,0,0,0,2.29,9.44,17.52,17.52,0,0,0,8.12,7.58,25.78,25.78,0,0,0,11.35,2.69h3.55a6.8,6.8,0,0,0,1.1-.09c.78-.13,1.48-.3,2.15-.46s1.35-.32,2.28-.49a6.93,6.93,0,0,0,1.66-.51,7.05,7.05,0,0,0,2.9.62h8a7,7,0,0,0,6.83-8.52c-.2-.94-.38-1.66-.54-2.26a4.09,4.09,0,0,1-.24-1.84,4.87,4.87,0,0,0,0-.54c0-1.59-.05-3.81-.1-6.17-.1-4-.2-8.64-.1-11.51,0-.09,0-.17,0-.26a46.09,46.09,0,0,0-.16-4.87,4.21,4.21,0,0,1,0-.73A27.74,27.74,0,0,0,784.35,49a18,18,0,0,0-2.09-3.81c-.3-.45-.56-.83-.79-1.25a7,7,0,0,0-.8-1.15,21,21,0,0,0-9.27-5.94l-.09,0a28.27,28.27,0,0,0-7.9-1.16Zm-6.1,19.06,1.53-.33a15.86,15.86,0,0,1,3.63-.41h.09l-.63.14c-1.06.16-2.06.28-3,.4l-1.59.2Zm3.78,18.39a18.21,18.21,0,0,1,2.37-.3,4.43,4.43,0,0,0,.51-.06l.91-.08.28,0a4.84,4.84,0,0,1-.24.9l-.1.16a9,9,0,0,1-1,1.44l-.52.38c-.54.19-1,.36-1.37.51l-.36.14a13.41,13.41,0,0,1-2.07.22,1.08,1.08,0,0,1-.63-.15,4.78,4.78,0,0,0-.42-.26l-.33-.18c-.16-.25-.33-.52-.44-.73s0-.2,0-.3c.22-.23.44-.47.63-.64l.58-.21c.59-.19,1.33-.44,2.27-.82Z" fill="#fff"/><path d="M911.34,91.06a24,24,0,0,1-9.87-2.3l-.17-.08a14.59,14.59,0,0,1-6.42-5.88l-.06-.09a17.71,17.71,0,0,1-1.93-7.56c0-.1,0-.2,0-.29a16.71,16.71,0,0,1,.91-5,18.59,18.59,0,0,1,1.65-3.9,11,11,0,0,1,2.84-3.32,17,17,0,0,1,3.61-2.49c.08,0,.17-.08.25-.12,1.43-.6,2.64-1,4.3-1.56a26.44,26.44,0,0,1,5.6-1c1-.12,2.05-.25,3.21-.41a10.11,10.11,0,0,1,2-.34l.44-.05c.33-.15.66-.29,1-.41s.46-.19.55-.24l.25-.14a4.52,4.52,0,0,0,.88-.55,4.94,4.94,0,0,1,.44-.36s.24-.34.38-.56.22-.31.33-.44l0-.12c0-.3-.07-.65-.11-.84a1.71,1.71,0,0,1-.18-.2l-.49-.61a7.27,7.27,0,0,0-1.13-1.25l-.23-.06A19.5,19.5,0,0,0,914.9,50a22.64,22.64,0,0,0-4.38.5l-.43.1c-1.38.3-2.69.59-3.71.87l-1.16.49c-1,.4-2,.82-3.13,1.4a3.5,3.5,0,0,1-3.61-.29,3.49,3.49,0,0,1-1.42-3.34,17.55,17.55,0,0,0,.05-2.08c0-1,0-2.23.08-3.61a3.49,3.49,0,0,1,2.69-3.19c1.08-.25,2-.48,2.8-.69a47.3,47.3,0,0,1,4.75-1,2.06,2.06,0,0,1,.26,0l1.61-.14c2.14-.18,4.81-.41,6.72-.41a20.81,20.81,0,0,1,6.08,1l.8.23a15.41,15.41,0,0,1,7.7,5l.3.41a17.76,17.76,0,0,1,2.76,4.55,32.37,32.37,0,0,1,1.51,6.83c0,.12,0,.24,0,.37,0,.57,0,.82,0,1.06a35,35,0,0,1,0,4.62c0,1.84,0,4.27.11,6.84.1,4.15.2,8.45.09,11.08a9,9,0,0,0,.42,2.86c.17.64.37,1.42.6,2.49A3.5,3.5,0,0,1,933,90.12h-8a3.47,3.47,0,0,1-2.82-1.43c-.4.26-.77.49-1,.68a3.52,3.52,0,0,1-1.48.68c-.76.16-1.38.31-1.95.44-.83.2-1.61.39-2.51.53a4.73,4.73,0,0,1-.52,0Zm-3-13c.23.12.57.31,1,.59a5,5,0,0,0,2.73.73,18.83,18.83,0,0,0,2.39-.24l.55-.08a7.79,7.79,0,0,0,.77-.3c.46-.18,1-.41,1.66-.62l.28-.2a10.07,10.07,0,0,1,1.07-.75A12,12,0,0,0,920.49,75a11.82,11.82,0,0,0,1-4.14v-3l-.68.19a12.1,12.1,0,0,1-3.54.63c-.37,0-.93.07-1.1.11l-.43.06a14.83,14.83,0,0,0-3.16.43l-.14.06c-.89.35-1.62.59-2.21.79a8.25,8.25,0,0,0-1.13.41,10.81,10.81,0,0,0-1.37,1.29l-.64.67a2.33,2.33,0,0,0-.34.64l0,.11a18.19,18.19,0,0,0-.08,2.17,7.61,7.61,0,0,0,1.43,2.25l.16.21Z" fill="#3e649f"/><path d="M916,42a20.23,20.23,0,0,1,6,1.08,12,12,0,0,1,5.8,3.76,16.4,16.4,0,0,1,2.6,4.12,28.56,28.56,0,0,1,1.31,6,45.21,45.21,0,0,1,0,5.61c0,4.85.38,13.81.2,17.92,0,2.43.36,2.82,1.1,6.17h-8V82s-.75.74-2.25,2.07c-1.3,1.1-2.8,1.85-3.74,2.6-1.86.38-3,.74-4.29.94h-3.35a20.8,20.8,0,0,1-8.6-2.06A11.28,11.28,0,0,1,897.88,81a14.3,14.3,0,0,1-1.5-6.16,13.71,13.71,0,0,1,.74-3.93,16.56,16.56,0,0,1,1.32-3.18,7.78,7.78,0,0,1,2.06-2.41,14.32,14.32,0,0,1,3-2.08c1.31-.55,2.42-.93,4.12-1.49,1.49-.57,4.48-.74,8.41-1.31,1.11-.37,2-.18,3-.55.74-.38,1.49-.58,2.06-.94a8.08,8.08,0,0,0,1.68-1.12,5.25,5.25,0,0,0,1.31-1.5c.37-.56.56-.36.75-.94a3.81,3.81,0,0,0,.2-1.5c-.19-1.5-.19-2.41-1.13-3.34-.92-1.13-1.87-2.61-3.36-3a23,23,0,0,0-5.6-1.11,25.45,25.45,0,0,0-5,.57c-1.68.36-3.38.72-4.67,1.1-1.3.58-2.81,1.13-4.67,2.06.19-1.31,0-3.35.16-6,3.19-.75,4.87-1.31,7.29-1.68,2.26-.18,5.8-.54,8-.54m-3.91,40.89a26.8,26.8,0,0,0,3.55-.37c.94-.18,1.86-.76,3.18-1.12.55-.19,1.49-1.12,2-1.32a13.83,13.83,0,0,0,2.62-3.36,15.68,15.68,0,0,0,1.5-5.8V62c-1,.9-1.33,1.1-1.7,1.48a14.44,14.44,0,0,0-1.86.75c-.55.19-1.3.37-1.86.55-.75.39-3.18.39-4.12.59a15.18,15.18,0,0,0-4.31.73,34.9,34.9,0,0,0-3.9,1.48A17.6,17.6,0,0,0,904.63,70a7,7,0,0,0-1.3,2.21,18,18,0,0,0-.19,3.18c0,1.51,1.3,3.37,2.24,4.49.93,1.32.93.94,2.06,1.68a8.54,8.54,0,0,0,4.67,1.32M916,35c-2.06,0-4.7.22-7,.43l-1.59.13a4.6,4.6,0,0,0-.52.06,50.89,50.89,0,0,0-5.08,1.11c-.8.2-1.68.43-2.73.67a7,7,0,0,0-5.38,6.39c-.1,1.49-.09,2.79-.09,3.83,0,.57,0,1.35,0,1.6a7,7,0,0,0,6.42,8,21.37,21.37,0,0,0-4,2.8,14.34,14.34,0,0,0-3.57,4.19,23.34,23.34,0,0,0-1.95,4.53s0,.06,0,.09a19.83,19.83,0,0,0-1.08,6.07c0,.19,0,.39,0,.59a20.87,20.87,0,0,0,2.34,9l.12.19a18.17,18.17,0,0,0,8,7.28L900,92l.08,0a27.33,27.33,0,0,0,11.23,2.58h3.35a7.4,7.4,0,0,0,1-.08c1-.16,1.94-.37,2.81-.58.56-.14,1.15-.28,1.83-.42A6.83,6.83,0,0,0,922,93a7,7,0,0,0,3,.67h8a7,7,0,0,0,6.84-8.5c-.25-1.13-.46-2-.62-2.6a5.87,5.87,0,0,1-.32-1.93c.11-2.75,0-7.06-.09-11.23,0-2.51-.11-4.9-.11-6.69a37.84,37.84,0,0,0,0-5c0-.21,0-.34,0-.79,0-.25,0-.5,0-.75a36.07,36.07,0,0,0-1.73-7.73,21,21,0,0,0-3.23-5.39l-.28-.37a18.9,18.9,0,0,0-9.64-6.36l-.73-.21A23.94,23.94,0,0,0,916,35Zm-4.75,18.88a18.2,18.2,0,0,1,3.63-.42h.21l-.57.13c-1,.15-2,.27-2.91.37l-1.78.22,1-.22.41-.09Zm5.51,18.34.8-.08h.2a6.58,6.58,0,0,1-.33,1.1,10.74,10.74,0,0,1-.9,1.28c-.27.17-.51.35-.72.51-.53.18-1,.37-1.35.52l-.27.11-.2,0a16.62,16.62,0,0,1-1.9.21,2.21,2.21,0,0,1-.81-.15l-.57-.36a9.1,9.1,0,0,1-.59-.8c0-.07,0-.14,0-.21l.15-.16.62-.64.42-.14c.6-.19,1.41-.46,2.39-.85.25,0,.87-.14,2.32-.26.24,0,.49-.06.73-.1Z" fill="#fff"/><path d="M842.79,90.69a3.5,3.5,0,0,1-3.34-4.54c.25-.81.44-1.38.58-1.8s.16-.5.21-.65,0-.7,0-1l.18-18.89c0-2.52,0-3.93-.17-5.83,0-.1,0-.2,0-.3a11.16,11.16,0,0,0-.66-3.29,16.6,16.6,0,0,0-2-2.37c-.17-.08-.57-.2-.86-.29l-.87-.28a3.43,3.43,0,0,1-.52-.23,13.81,13.81,0,0,0-2.44-.14,14.73,14.73,0,0,0-2.31.25l-.71.27a5,5,0,0,0-.73.31,10.84,10.84,0,0,1-1,.67,2.62,2.62,0,0,0-.49.34,14.43,14.43,0,0,0-1.2,2c-.07.33-.14,1.18-.18,1.76s-.07.91-.11,1.37,0,1,0,1.62c0,1.55.09,3.3,0,5.22V82.53l1.15,3.6a3.53,3.53,0,0,1-.52,3.13,3.49,3.49,0,0,1-2.82,1.43h-9a3.5,3.5,0,0,1-3.5-3.5,7.54,7.54,0,0,1,.57-3.57c0-.18,0-.42,0-.73V57.53c-.11-.79-.21-1.25-.33-1.82,0-.19-.08-.39-.12-.61a9.5,9.5,0,0,0-.79-1.7,3.2,3.2,0,0,1-.25-.27,8,8,0,0,0-2-1.71,3,3,0,0,1-.61-.28A4.5,4.5,0,0,0,806,50.7a4.05,4.05,0,0,0-2.09.44c-.34.17-.69.31-1,.45-.66.27-.8.34-.91.47a3.33,3.33,0,0,1-.25.28c-.42.4-.79.69-1.09.93s-.48.38-.6.61a8,8,0,0,1-.87,1.58l0,.07a5.53,5.53,0,0,0-.09.72c0,.09,0,.19,0,.29-.31,2-.52,10.13-.53,16.53.19,3.61.19,6.76.19,9.8a2.72,2.72,0,0,0,.27,1,8.79,8.79,0,0,1,.67,3.26,3.5,3.5,0,0,1-3.5,3.5h-4.29c-.67,0-3.14,0-4.86,0a3.51,3.51,0,0,1-3.36-4.49l.81-2.72.18-8.26L784,50.08a11.72,11.72,0,0,0-.66-3,10.31,10.31,0,0,1-.65-3.07,3.5,3.5,0,0,1,3.5-3.5,15.44,15.44,0,0,0,4-.65l.17-.07a12.51,12.51,0,0,1,4.43-.59A3.5,3.5,0,0,1,798,41.33a4.76,4.76,0,0,0,.54-.34,9.19,9.19,0,0,1,3.77-1.5l.82-.18a3.11,3.11,0,0,1,.44-.07l.74-.08a37.81,37.81,0,0,1,4.48-.31,14.08,14.08,0,0,1,4.22.65,12.92,12.92,0,0,1,3.9,1.58,11.41,11.41,0,0,1,3.33,2.37l0,0a14.4,14.4,0,0,1,2.33-1.59,20.51,20.51,0,0,1,9.9-2.86c.65,0,6.4,0,9.31,1.18l.49.19c2.18.86,4.89,1.93,6.48,3.76.7.81,1.12,1.35,1.55,1.9.25.32.5.65.84,1,2.51,2.68,2.59,7.73,2.59,8.31s0,1.3.06,2.13c0,1.21.12,2.72.12,4.42V82.69a3.27,3.27,0,0,0,.24,1.35,15.18,15.18,0,0,1,.65,2.57,3.5,3.5,0,0,1-3.45,4.08Z" fill="#3e649f"/><path d="M808.78,42.35a10.34,10.34,0,0,1,3.36.56,9.25,9.25,0,0,1,3.18,1.3,8,8,0,0,1,2.42,1.69A10.14,10.14,0,0,1,820,48.33a.05.05,0,0,0,.06,0c.37,0,2-2.18,4.23-3.4a17.61,17.61,0,0,1,8.23-2.43c1.86,0,6.15.2,8,.93s4.49,1.7,5.62,3,1.48,1.86,2.41,3c1.32,1.31,1.71,4.67,1.71,6,0,1.49.18,3.74.18,6.55V82.69c0,2.06.56,2.25.94,4.5h-8.6c1.11-3.55.94-2.44.94-4.5l.18-18.85c0-2.63,0-4.12-.18-6.17a14.47,14.47,0,0,0-.94-4.67A16.82,16.82,0,0,0,840,49.45a7.61,7.61,0,0,0-3-1.32c-.94-.56-2.81-.56-4.1-.56a18.44,18.44,0,0,0-3.38.39,14.94,14.94,0,0,0-2.44,1.11,9.18,9.18,0,0,0-2.23,1.68,18.94,18.94,0,0,0-1.68,2.8,21.18,21.18,0,0,0-.56,4.31c0,1.86.18,4.29,0,6.89V83.07l1.31,4.12h-9c0-3.74.58-.38.58-4.3V57.31c-.19-1.51-.36-2.06-.58-3.19A10,10,0,0,0,813.28,51a10.41,10.41,0,0,0-3.56-2.83A7.9,7.9,0,0,0,806,47.2a7.47,7.47,0,0,0-3.55.76c-1.13.56-2.23.74-3.17,1.86-1,.93-1.69,1.13-2.43,2.59-.58,1.5-1.13,1.13-1.31,3.58-.38,2.41-.57,11.2-.57,17.17.19,3.56.19,6.72.19,9.71,0,1.86.94,2.61.94,4.3h-4.29c-.75,0-3.17,0-4.86,0l.94-3.17.2-8.8L787.5,50c0-2.25-1.31-4.85-1.31-6a17.84,17.84,0,0,0,5.4-1,9.64,9.64,0,0,1,3.18-.36v5.79c.94-1.68,2.42-1.85,3.19-2.81.56-.93,1.31-.93,2.61-1.86a8.44,8.44,0,0,1,3.36-1.12,42.63,42.63,0,0,1,4.85-.37m0-7a41.73,41.73,0,0,0-4.85.33l-.74.08a6.89,6.89,0,0,0-.89.15l-.71.16a13.44,13.44,0,0,0-2.89.85,7,7,0,0,0-3.93-1.2,15.79,15.79,0,0,0-5.69.82l-.22.09a13.79,13.79,0,0,1-2.67.4,7,7,0,0,0-7,7,13.28,13.28,0,0,0,.81,4.11,13.58,13.58,0,0,1,.5,1.9v.12l.56,25.06-.17,7.71-.67,2.27a7,7,0,0,0,6.71,9c2.21,0,4.11,0,4.94,0h4.21a7,7,0,0,0,7-7,12.27,12.27,0,0,0-.89-4.48.61.61,0,0,0-.05-.12c0-2.85,0-6-.19-9.59,0-7.38.26-14.46.49-15.9,0-.11,0-.23,0-.34s.3-.52.46-.85.73-.59,1.19-1l0,0c.3-.12.71-.29,1.16-.5l.31-.13H806a1.47,1.47,0,0,1,.34,0c.21.12.44.23.66.33a5.42,5.42,0,0,1,.82.74,2.09,2.09,0,0,1,.14.17c.08.16.17.39.26.6s0,.23.07.35c.1.48.17.81.25,1.33V82.89a12.16,12.16,0,0,0-.58,4.3,7,7,0,0,0,7,7h9a7,7,0,0,0,6.67-9.11l-1-3.09V65c.13-2,.08-3.91,0-5.43,0-.48,0-.94,0-1.37s.07-.84.1-1.25,0-.66.08-.94.21-.38.31-.54.49-.3.79-.5l.19-.07.46-.18a12.43,12.43,0,0,1,1.35-.13c.38,0,1,0,1.43,0l.39.15.92.3c.29.32.58.67.78.92a8.23,8.23,0,0,1,.31,1.7c0,.2,0,.4,0,.61a55.21,55.21,0,0,1,.16,5.52l-.18,18.82v.55l0,.08-.59,1.85a7,7,0,0,0,6.68,9.09h8.6a7,7,0,0,0,6.9-8.16,19.46,19.46,0,0,0-.78-3.1l-.06-.18V62c0-1.77-.07-3.32-.12-4.57,0-.8-.06-1.5-.06-2,0-1.17-.18-7-3.45-10.61l-.73-.91c-.42-.53-.89-1.14-1.64-2-2.17-2.5-5.32-3.74-7.85-4.74l-.47-.19c-3.38-1.33-9-1.43-10.62-1.43A24.24,24.24,0,0,0,821,38.81l-.5.28a14,14,0,0,0-2-1.13,16.32,16.32,0,0,0-4.62-1.85,17.31,17.31,0,0,0-5.1-.76Z" fill="#fff"/><path d="M878.1,90.87a35.46,35.46,0,0,1-9.61-1.45l-.26-.09c-1.72-.67-6-2.55-8.72-5.5l-.42-.41c-1.93-1.93-4.34-4.33-5.45-7.9a33.34,33.34,0,0,1-1.82-9.91,23.54,23.54,0,0,1,1.29-9.19c.15-.53.33-1.1.51-1.74a1.42,1.42,0,0,1,0-.16c1.62-4.86,5.35-8.31,8.42-10.78,3.64-2.76,11-4.88,16.95-4.88a46.7,46.7,0,0,1,13,1.83,3.52,3.52,0,0,1,2.49,3.1c.16,2.27.32,3.65.49,5.1l.07.53a3.5,3.5,0,0,1-3.48,3.91,3.57,3.57,0,0,1-1.2-.21c-1-.38-2-.78-3-1.16-1.19-.48-2.31-.93-3-1.12L883,50.66a28.69,28.69,0,0,0-3-.32A26.48,26.48,0,0,0,872.37,52,9,9,0,0,0,869,55a17.07,17.07,0,0,0-2,5.29l-.23.94a7.65,7.65,0,0,0-.26,3.29,28.26,28.26,0,0,0,1.44,7.87,10,10,0,0,0,3.65,4.6l.27.16a11.38,11.38,0,0,0,6.1,2.22,28.86,28.86,0,0,0,13.46-3.33,3.51,3.51,0,0,1,3.45.09,3.5,3.5,0,0,1,1.7,3,13.33,13.33,0,0,1-.22,2c-.06.37-.12.77-.18,1.24-.13.85-.29,1.55-.44,2.17s-.25,1.1-.32,1.62a3.51,3.51,0,0,1-2.46,2.85,36.77,36.77,0,0,1-6.41,1.44C884.58,90.7,879.55,90.87,878.1,90.87Z" fill="#3e649f"/><path d="M879,42.36A43.71,43.71,0,0,1,891,44c.18,2.63.37,4.1.57,5.79-2.62-.95-5.05-2.08-6.55-2.44-1.67-.19-3.74-.55-5-.55a29,29,0,0,0-9.16,2A12.53,12.53,0,0,0,866.16,53a20.57,20.57,0,0,0-2.61,6.54,12.49,12.49,0,0,0-.56,5.22,30.77,30.77,0,0,0,1.69,9c1.1,2.43,2.8,5,5.22,6.35a15,15,0,0,0,8,2.81,32.54,32.54,0,0,0,15.11-3.74c0,.57-.2,1.5-.37,2.8s-.57,2.44-.76,3.75A34.25,34.25,0,0,1,886.15,87c-1.7.19-6.54.36-8,.36a32,32,0,0,1-8.59-1.3A21.31,21.31,0,0,1,862,81.4c-1.86-1.87-4.12-3.93-5-6.91a29.76,29.76,0,0,1-1.66-9c-.2-4.49.56-6,1.66-9.9,1.32-3.93,4.5-6.91,7.3-9.16,3-2.25,9.71-4.11,14.76-4.11m0-7c-5.67,0-14.25,1.94-19,5.53l-.16.12c-3.17,2.55-7.61,6.61-9.54,12.41,0,.1-.07.21-.1.31-.18.62-.34,1.18-.5,1.69a27.14,27.14,0,0,0-1.43,10.27,36.49,36.49,0,0,0,2,10.87c1.36,4.4,4.23,7.25,6.32,9.33l.37.37a28.34,28.34,0,0,0,10,6.33,4.56,4.56,0,0,0,.52.18,39,39,0,0,0,10.63,1.6c1.55,0,6.73-.17,8.82-.4a39.57,39.57,0,0,0,7-1.57,7,7,0,0,0,4.92-5.7c0-.38.16-.82.27-1.33.16-.68.34-1.46.48-2.37,0,0,0-.09,0-.14,0-.43.11-.81.17-1.14a16.7,16.7,0,0,0,.26-2.57,7,7,0,0,0-3.4-6,6.91,6.91,0,0,0-3.6-1,7.08,7.08,0,0,0-3.29.81,25.3,25.3,0,0,1-11.82,2.93,8.26,8.26,0,0,1-4.17-1.64l-.53-.32a6.78,6.78,0,0,1-2.08-2.85A25.37,25.37,0,0,1,870,64.37v-.06a5,5,0,0,1,.17-2.24c.07-.27.15-.59.23-1A13.91,13.91,0,0,1,871.94,57a5.51,5.51,0,0,1,2-1.81,24.46,24.46,0,0,1,6-1.31c.43,0,1.74.18,2.52.28l1.13.16c.57.18,1.63.61,2.43.93s2,.79,3.1,1.2a7.14,7.14,0,0,0,2.4.42A7,7,0,0,0,898.52,49l-.06-.55c-.17-1.47-.33-2.75-.48-4.93a7,7,0,0,0-5-6.2,50.49,50.49,0,0,0-14-2Z" fill="#fff"/><path d="M948.41,90.78c-.94,0-1.69,0-2.32-.1a24,24,0,0,1-3.15-.63,14.24,14.24,0,0,0-1.47-.33l-.68-.1a16.78,16.78,0,0,1-3.48-.81A3.47,3.47,0,0,1,935,86.34l-.74-3c0-.11,0-.23-.07-.34s-.1-.33-.16-.55a30.62,30.62,0,0,1-.93-3.63,3.5,3.5,0,0,1,3.44-4.12,3.57,3.57,0,0,1,1.71.44c5,2.81,9.58,4.42,12.49,4.42a14,14,0,0,0,3.52-.76l.5-.15a4.75,4.75,0,0,0,1.64-1.22l.14-.23a11.09,11.09,0,0,0,.87-1.61c0-.11,0-.2.08-.31a2,2,0,0,0,.08-.31c-.05-.18-.09-.38-.14-.59s-.13-.62-.2-.86-.81-.8-1.17-1.15-.6-.56-.85-.8a30.26,30.26,0,0,0-4.66-2.25c-.77-.33-1.56-.63-2.35-.94a23.23,23.23,0,0,1-6-2.89c-.3-.22-.65-.45-1-.69a19.23,19.23,0,0,1-4-3.21,20,20,0,0,1-2.5-4,4.71,4.71,0,0,1-.21-.52,10.28,10.28,0,0,1-.31-3.46,8.23,8.23,0,0,0,0-1.24,4.19,4.19,0,0,1,0-.5c0-2.75,1.4-5.22,2.78-7.28,1.68-2.77,4.3-4,6.83-5.09l.28-.11A28.76,28.76,0,0,1,953,37.91,46.71,46.71,0,0,1,961.9,39l2.38.44a3.51,3.51,0,0,1,2.88,3.17,20.57,20.57,0,0,1-.12,3.73,10.07,10.07,0,0,0-.09,2,3.51,3.51,0,0,1-3.48,3.85,3.55,3.55,0,0,1-1.93-.58,13.94,13.94,0,0,0-7.41-2.41,16.29,16.29,0,0,0-3.78.58,6.83,6.83,0,0,0-2,1.5c-.3.53-.3.63-.3.77a3.57,3.57,0,0,0,.21,1.09,7.24,7.24,0,0,0,1.13,1.15l.75.34.14.06.36.11a24.08,24.08,0,0,1,4.92,2c.93.45,1.92.93,2.91,1.37a31.5,31.5,0,0,1,8,5.07,14.22,14.22,0,0,1,3.54,5.59,11.36,11.36,0,0,1,1,4.68,10.19,10.19,0,0,1-.32,2.65,1.7,1.7,0,0,0,0,.25,8.91,8.91,0,0,1-2,6.39l-.05.07a14.81,14.81,0,0,1-7.29,5.86,24.47,24.47,0,0,1-9.11,1.93l-1.37,0C950.12,90.75,949.25,90.78,948.41,90.78Z" fill="#3e649f"/><path d="M953,41.41c3.35,0,6.54.77,10.66,1.5.18,2.25-.39,3.94-.2,5.8a17.42,17.42,0,0,0-9.34-3,20.08,20.08,0,0,0-4.87.75,9.92,9.92,0,0,0-3.74,2.79,5.13,5.13,0,0,0-.93,2.81,7,7,0,0,0,.55,2.61A8.09,8.09,0,0,0,948,57.49a12.06,12.06,0,0,0,1.86.73c1.33.2,4.31,1.87,7.29,3.19A28.57,28.57,0,0,1,964,65.72a10.68,10.68,0,0,1,2.8,4.48,7.7,7.7,0,0,1,.74,3.35c0,1.68-.38,1.86-.38,3,.2,2.06-.36,2.81-1.48,4.49a11.45,11.45,0,0,1-5.61,4.48,21,21,0,0,1-7.84,1.69c-.87,0-2.41.08-3.84.08a18.83,18.83,0,0,1-1.94-.08c-1.68-.19-3.19-.76-4.5-1a16.63,16.63,0,0,1-3.53-.75l-.74-3c0-.38-.75-2.24-1.12-4.3,5,2.81,10.28,4.86,14.2,4.86A19.44,19.44,0,0,0,956,82a7.93,7.93,0,0,0,3.37-2.6,11.69,11.69,0,0,0,1.5-3,4,4,0,0,0,.18-2c-.18-.58-.38-2.25-.94-2.82-.37-.56-1.87-1.85-2.6-2.61a30.24,30.24,0,0,0-5.62-2.8c-2.61-1.11-6.17-2.23-7.46-3.36-1.33-.94-3.56-2.24-4.49-3.36A16.49,16.49,0,0,1,937.88,56c-.36-1.13,0-2.81-.19-4.14,0-1.86,1.11-3.74,2.24-5.4,1.1-1.87,3-2.81,5.22-3.75A25.5,25.5,0,0,1,953,41.41m0-7a32.38,32.38,0,0,0-10,1.66,5,5,0,0,0-.54.21c-2.12.88-6,2.51-8.43,6.43-1.67,2.48-3.34,5.51-3.34,9.17a6.8,6.8,0,0,0,.06.9c0,.15,0,.48,0,.72a13.37,13.37,0,0,0,.47,4.63,7.33,7.33,0,0,0,.43,1,22.76,22.76,0,0,0,2.93,4.67,21.36,21.36,0,0,0,4.78,3.9l.85.57A26.4,26.4,0,0,0,947,71.67c.79.3,1.54.59,2.18.86l.13,0a32,32,0,0,1,3.8,1.79l.61.57.1.1-.16.27-.16.1-.2.06a13.31,13.31,0,0,1-2.5.61c-1.77,0-5.53-1-10.79-4a6.92,6.92,0,0,0-3.41-.89,7,7,0,0,0-6.89,8.23,34.71,34.71,0,0,0,1,4c0,.11.07.22.1.31s0,.26.08.39l.74,3a7,7,0,0,0,4.55,4.95,19.52,19.52,0,0,0,4.13,1l.52.08.13,0c.21,0,.71.16,1.11.26a25.31,25.31,0,0,0,3.61.71,23.7,23.7,0,0,0,2.72.13c.91,0,1.79,0,2.58,0l1.26,0A27.65,27.65,0,0,0,962.61,92a18.5,18.5,0,0,0,9-7.24h0a12.24,12.24,0,0,0,2.61-8,13.52,13.52,0,0,0,.35-3.2,15.06,15.06,0,0,0-1.24-6A17.8,17.8,0,0,0,969,60.8c-2-2-5.89-4.32-8.94-5.74l-.13-.06c-.91-.4-1.87-.86-2.8-1.31l-1.83-.87a11.1,11.1,0,0,1,4.32,1.73A7,7,0,0,0,970.43,48a10.64,10.64,0,0,1,.09-1.28,22.48,22.48,0,0,0,.12-4.36A7,7,0,0,0,964.9,36c-.82-.14-1.6-.29-2.35-.43A49.79,49.79,0,0,0,953,34.41Z" fill="#fff"/><path d="M987.74,90.73a11.91,11.91,0,0,1-1.75-.16c-.24,0-.56-.08-.67-.08a16.3,16.3,0,0,1-7.33-1.3,10.29,10.29,0,0,1-4.87-4.62c-1.53-2.61-1.94-7.35-1.94-9.53v-1.7c0-.18,0-.35,0-.56a61.74,61.74,0,0,1,0-6.2L971,50.68h-2a3.5,3.5,0,0,1-3.5-3.5V43.26a3.5,3.5,0,0,1,3.37-3.49l2.12-.08c0-.39,0-.78,0-1.12,0-1.07,0-2.17,0-3.15a3.06,3.06,0,0,0-.65-1.31,3.51,3.51,0,0,1,2.1-5.49c1.37-.29,3.15-.77,4.72-1.19,1.33-.36,2.48-.67,3.3-.85a3.64,3.64,0,0,1,.74-.07,3.5,3.5,0,0,1,3.5,3.5c0,2.38.12,5.42.23,8.1,0,.53,0,1,.06,1.52l7.86.13a3.51,3.51,0,0,1,3.43,3.84,9.27,9.27,0,0,0,.09,2.74l.1.8A3.51,3.51,0,0,1,993,51.05a2.82,2.82,0,0,1-.41,0l-3-.35h-4.54l-.16,21v1.9l0,.38a28.31,28.31,0,0,0,.56,4.39,1.46,1.46,0,0,1,.1.23l.32.19a3.69,3.69,0,0,0,1.28.23h2.54c.17,0,.88-.21,1.63-.42l.67-.19a3.5,3.5,0,0,1,4.35,4.2c-.1.42-.21.8-.31,1.16a12.62,12.62,0,0,0-.55,3,3.51,3.51,0,0,1-2.45,3.06,15.48,15.48,0,0,1-4.48.91A8,8,0,0,1,987.74,90.73Z" fill="#3e649f"/><path d="M981.21,30c0,4.29.38,10.64.38,13.06l11.21.19a15.87,15.87,0,0,0,.2,4.29l-3.18-.37h-8.23l-.18,24.47v2.06c.18,2.25.36,5,.94,6.16.36,1.13,1.11,1.51,2,2.06a7.43,7.43,0,0,0,2.81.57h2.53a12.92,12.92,0,0,0,3.26-.75,21.05,21.05,0,0,0-.94,4.67,11.3,11.3,0,0,1-3.74.76,3.45,3.45,0,0,1-.57,0c-.8,0-1.67-.24-2.42-.24a13,13,0,0,1-5.78-.94,6.88,6.88,0,0,1-3.36-3.18c-.94-1.48-1.5-5.23-1.5-7.83V73.33a65.76,65.76,0,0,1,0-6.7l-.18-19.45h-5.43V43.26l5.43-.19c.18-1.09,0-4.85,0-7.65a6.13,6.13,0,0,0-1.32-3.37c2.61-.56,6.36-1.69,8-2m0-7a7.36,7.36,0,0,0-1.48.15c-.9.2-2.09.52-3.47.89s-3.26.88-4.54,1.15a7,7,0,0,0-4.22,10.93v.31a7,7,0,0,0-5.43,6.82v3.92A7,7,0,0,0,967.56,54l.12,12.52c-.14,4-.07,5.5,0,6.43,0,.14,0,.25,0,.37V75c0,.74.06,7.19,2.37,11.21a13.74,13.74,0,0,0,6.38,6.07A19.41,19.41,0,0,0,985.18,94l.31,0a13.94,13.94,0,0,0,2.25.2,10,10,0,0,0,1.1-.06,18.7,18.7,0,0,0,5.28-1.06A7,7,0,0,0,999,87a9.53,9.53,0,0,1,.43-2.3c.11-.4.22-.81.34-1.28a7,7,0,0,0-6.8-8.67,6.8,6.8,0,0,0-1.89.27l-.69.19-1,.29h-.77c-.07-.65-.12-1.34-.16-1.83l0-.23V71.68l.13-17.5h.86l2.77.33a7.81,7.81,0,0,0,.83,0,7,7,0,0,0,7-7.82c0-.3-.07-.58-.1-.85a6.66,6.66,0,0,1-.08-2,7,7,0,0,0-6.84-7.66l-4.57-.09c-.08-2.15-.15-4.37-.15-6.17a7,7,0,0,0-7-7Z" fill="#fff"/><path d="M723.24,92a34.26,34.26,0,0,1-10.65-1.86,22.26,22.26,0,0,1-8.77-6,24.76,24.76,0,0,1-5.59-8.69,39.43,39.43,0,0,1-1.49-9.86,24,24,0,0,1,1.68-10.3l.38-1.11.06-.18c1.51-3.8,4.27-7.17,8.44-10.3,3.51-2.64,7.86-3.88,13.68-3.88a27.32,27.32,0,0,1,8.58,1.11,17,17,0,0,1,7,4l.14.15A22.72,22.72,0,0,1,741,51.66l.49,1.24a15.16,15.16,0,0,1,1.22,4.66,22.77,22.77,0,0,1,.42,5.17,3.49,3.49,0,0,1-3.48,3.5l-28.43.16a19.89,19.89,0,0,0,1.47,7.14,9.11,9.11,0,0,0,3.92,4.23c2.75,1.48,5,2.2,6.78,2.2,2.86,0,8.54-1.33,13.38-3.74a3.48,3.48,0,0,1,3.56.26,3.52,3.52,0,0,1,1.48,3.25c-.09.78-.23,1.57-.38,2.41a32.9,32.9,0,0,0-.54,3.79,3.48,3.48,0,0,1-2.54,3.13c-1,.29-2.32.72-3.59,1.13-2,.66-4,1.29-5.25,1.55-.12,0-.24,0-.36.06C727.15,92,725.16,92,723.24,92Zm4.89-37.28c-.06-.1-.11-.22-.17-.33a5.57,5.57,0,0,0-1.43-1.4l-.08-.07-.27-.24a5.92,5.92,0,0,0-1.93-1.26,14.22,14.22,0,0,0-3.26-.34,6.81,6.81,0,0,0-2.75.67l-.14.06A6,6,0,0,0,715.83,53a3.44,3.44,0,0,1-.55.46,4.7,4.7,0,0,0-1.23,1.22Z" fill="#3e649f"/><path d="M721,43.29a24.74,24.74,0,0,1,7.47.93,13.85,13.85,0,0,1,5.61,3.18A20.08,20.08,0,0,1,737.8,53a15.53,15.53,0,0,1,1.5,5.22,19.89,19.89,0,0,1,.36,4.5l-31.93.18V66.1a23.51,23.51,0,0,0,1.85,9A12.58,12.58,0,0,0,715,80.85c2.44,1.31,5.42,2.61,8.42,2.61,3.56,0,9.71-1.51,14.94-4.11-.18,1.68-.75,3.73-.93,6.35-2.61.73-6.73,2.23-8.59,2.61-1.86.18-3.74.18-5.6.18a30.51,30.51,0,0,1-9.54-1.68,18.82,18.82,0,0,1-7.28-5,21.46,21.46,0,0,1-4.87-7.45,35.79,35.79,0,0,1-1.31-9c-.18-4.5.57-6.17,1.88-10.09a20.88,20.88,0,0,1,7.28-8.79c3-2.25,6.73-3.18,11.58-3.18M709,58.21h23.35a7.93,7.93,0,0,0-.18-2.41,11.47,11.47,0,0,0-1.12-3,8.25,8.25,0,0,0-2.44-2.62,9.66,9.66,0,0,0-3.16-2.06,16.35,16.35,0,0,0-4.5-.56,10.28,10.28,0,0,0-4.12,1,9.13,9.13,0,0,0-3.54,2.06,9.19,9.19,0,0,0-2.61,2.8,8.93,8.93,0,0,0-1.5,3.35l-.19.37s.19,0,0,1.11M721,36.29c-6.62,0-11.64,1.46-15.79,4.59-4.69,3.52-7.83,7.38-9.58,11.8-.05.12-.09.24-.14.37-.12.38-.25.74-.36,1.09a27.23,27.23,0,0,0-1.87,11.49s0,.09,0,.14a42.45,42.45,0,0,0,1.62,10.63s0,.09,0,.13a28.56,28.56,0,0,0,6.34,10,25.69,25.69,0,0,0,10.09,6.91l.13,0a37.63,37.63,0,0,0,11.77,2c2,0,4.08,0,6.27-.21a5.42,5.42,0,0,0,.72-.11,55.92,55.92,0,0,0,5.64-1.65c1.24-.4,2.52-.82,3.47-1.09a7,7,0,0,0,5.08-6.26,29.61,29.61,0,0,1,.48-3.4c.16-.86.32-1.75.42-2.67a7,7,0,0,0-10.08-7,32.73,32.73,0,0,1-11.86,3.37,12,12,0,0,1-5.06-1.78A5.5,5.5,0,0,1,715.85,72a8.62,8.62,0,0,1-.66-2.08l24.51-.14a7,7,0,0,0,7-7,27,27,0,0,0-.47-5.81,18.67,18.67,0,0,0-1.42-5.33c-.12-.3-.27-.66-.44-1.1a1.22,1.22,0,0,0-.07-.17,26.64,26.64,0,0,0-5-7.55l-.29-.3a20.76,20.76,0,0,0-8.33-4.88,30.66,30.66,0,0,0-9.71-1.3Z" fill="#fff"/><path d="M673,91.81a3.5,3.5,0,0,1-3.5-3.5,7.67,7.67,0,0,1,.65-2.83c0-.1.08-.2.11-.29.17-12.5,0-23.45-.38-33.54l-.15-3.3-1.08-2.61a3.51,3.51,0,0,1,2.71-4.8c.59-.09,1.28-.17,1.95-.26s1.6-.19,2-.27a33.58,33.58,0,0,1,5.17-.64,3.51,3.51,0,0,1,3.42,2.77l0,0a12.39,12.39,0,0,1,3.35-1.66l.64-.22a11.19,11.19,0,0,1,3.94-.86l.81,0c.48,0,1-.05,1.74-.05s1.52,0,2.4.09l.22,0A27.23,27.23,0,0,1,702.18,41l.13,0a3.52,3.52,0,0,1,2.35,2.76c.11.69.33,2.11-2.11,7.9a3.48,3.48,0,0,1-3.22,2.14,2,2,0,0,1-.34,0,17.84,17.84,0,0,1-4.45-1.06,13.82,13.82,0,0,0-3.06-.23,9.76,9.76,0,0,0-3.2.61,7.6,7.6,0,0,0-2.15,1.51,8.9,8.9,0,0,0-1.41,3,2.49,2.49,0,0,1-.11.29l-.24.52-.06.67c-.14,1.78,0,20.53.19,26l.61,2a3.5,3.5,0,0,1-3.35,4.51h-4.48c-.26,0-.71,0-1.23.07C675.12,91.74,674,91.81,673,91.81Z" fill="#3e649f"/><path d="M694.4,43.19c.57,0,1.26,0,2.13.08a23.49,23.49,0,0,1,4.67,1.12c.18,1.11-1.87,6-1.87,6a14.39,14.39,0,0,1-3.74-.93,16.47,16.47,0,0,0-4.11-.38,13.31,13.31,0,0,0-4.67.93,11.11,11.11,0,0,0-3.35,2.42,12.24,12.24,0,0,0-2.06,4.12c-.57,1.33-.38.2-.57,2.25-.18,2.24,0,22.24.19,26.91l.74,2.41h-4.48c-.74,0-2.8.21-4.31.21,0-1,.76-2.07.76-2.81.2-14.19,0-25-.38-34l-.18-3.93-1.31-3.17c1.31-.2,3.18-.37,4.12-.56a30.28,30.28,0,0,1,4.47-.57v8.06a8.58,8.58,0,0,1,1.86-2.63,13.6,13.6,0,0,1,2.81-2.81,12.69,12.69,0,0,1,3.18-1.69,11.4,11.4,0,0,1,3.55-.93c.75,0,1.41-.08,2.55-.08m0-7c-.83,0-1.47,0-1.94.06l-.61,0a14.45,14.45,0,0,0-5.14,1.07l-.49.17c-.43.14-.84.28-1.23.44a6.94,6.94,0,0,0-4.54-1.68,36.83,36.83,0,0,0-5.87.71c-.3.06-1.15.16-1.72.23s-1.43.17-2.05.27a7,7,0,0,0-5.42,9.59l.84,2,.13,2.7c.41,9.84.54,20.55.38,32.69a10.57,10.57,0,0,0-.77,3.8,7,7,0,0,0,7,7c1.12,0,2.33-.08,3.31-.14l1-.07h4.44a7,7,0,0,0,6.7-9L688,84.52c-.18-5.75-.32-22.88-.19-25.15l0,0c.08-.19.16-.39.22-.58a7.52,7.52,0,0,1,.75-1.79,5.1,5.1,0,0,1,.93-.59,6.59,6.59,0,0,1,1.76-.31,11.87,11.87,0,0,1,2.1.11,21.65,21.65,0,0,0,5.08,1.17c.22,0,.45,0,.67,0a7,7,0,0,0,6.45-4.28c2.83-6.72,2.53-8.58,2.33-9.81a7,7,0,0,0-4.7-5.53l-.11,0a30.77,30.77,0,0,0-5.78-1.37l-.46-.05c-1-.07-1.83-.1-2.66-.1Z" fill="#fff"/><path d="M618.32,92.37,606.92,92a3.49,3.49,0,0,1-3.18-4.65L605,83.6V31.37a24.45,24.45,0,0,0-1.19-4.16l-.32-.94a3.5,3.5,0,0,1,3.32-4.61H607c.64,0,1.44.05,2.35.05,2,0,4.18-.07,6.13-.14,1.55-.05,2.88-.1,3.84-.1.64,0,1.43,0,2.39.07,1.32.05,3,.12,4.9.12,3.61,0,6.47,0,8.2.21a41.52,41.52,0,0,1,9.85,1.58c3.35.8,8.76,4.05,10.4,5.14l.14.09A27.62,27.62,0,0,1,662,35.11c.4.6.74,1.07,1.05,1.5a26.29,26.29,0,0,1,3,5,2.29,2.29,0,0,1,.1.23,37.53,37.53,0,0,1,2.67,12.9A38.86,38.86,0,0,1,667,70.1l0,.1c-1.85,5.41-5.33,9.2-9,12.93a25.65,25.65,0,0,1-12.4,7.25l-.15,0a65.14,65.14,0,0,1-14.78,2Zm3.21-12.29c2.13,0,4.12,0,6.06,0,2.21,0,4.89-.17,7.67-.36a18.73,18.73,0,0,0,4.45-1.31c.49-.19,1-.38,1.47-.56a12.25,12.25,0,0,0,4.66-2.9l.15-.14a22.77,22.77,0,0,0,4.1-5.38,23.7,23.7,0,0,0,2.06-6.83l0-.23a45.62,45.62,0,0,0,.7-8.21,27.79,27.79,0,0,0-1.83-7.59l0-.17c-1-3.15-2.44-5.73-4-7l-.85-.67c-2-1.6-3.34-2.65-5.11-3.12a35.61,35.61,0,0,0-9.93-1.77c-2.64,0-6.09.19-7.67.37l-.66.07-2,.19Z" fill="#3e649f"/><path d="M619.36,25c1.5,0,3.93.19,7.29.19s6.36,0,7.84.2a38.7,38.7,0,0,1,9.35,1.48c2.42.56,7.09,3.18,9.33,4.67a24.56,24.56,0,0,1,6,5.6,33.13,33.13,0,0,1,3.72,6,34.16,34.16,0,0,1,2.44,11.79,35.37,35.37,0,0,1-1.69,14.19c-1.67,4.87-5,8.41-8.21,11.6A22.37,22.37,0,0,1,644.58,87a62.12,62.12,0,0,1-14,1.86H618.44L607,88.48l1.5-4.29v-53a30.07,30.07,0,0,0-1.69-6c.76,0,1.63.05,2.54.05,3.57,0,7.9-.24,10-.24m8.23,58.67c2.44,0,5.43-.2,8-.38a29.74,29.74,0,0,0,6.73-2.06,15.93,15.93,0,0,0,6-3.75,26.23,26.23,0,0,0,4.86-6.36,26.62,26.62,0,0,0,2.42-8,48.41,48.41,0,0,0,.76-9,31.8,31.8,0,0,0-2.07-8.79c-.93-3-2.6-6.53-5-8.59-2.61-2-4.48-3.73-7.28-4.47a38.54,38.54,0,0,0-10.83-1.89c-2.81,0-6.37.2-8.06.39a49.24,49.24,0,0,1-5.79.38l.77,52.31c3.52.2,6.53.2,9.51.2M619.36,18c-1,0-2.38.05-4,.1-1.92.07-4.11.14-6,.14-.85,0-1.58,0-2.17,0h-.37a7,7,0,0,0-6.64,9.22l.32,1a28.38,28.38,0,0,1,1,3.31V83l-1.11,3.17a7,7,0,0,0,6.37,9.31l11.4.39h12.38a68.14,68.14,0,0,0,15.56-2l.29-.07a29.09,29.09,0,0,0,14-8.22c3-3.05,7.56-7.63,9.81-14.21l.06-.2a42,42,0,0,0,2-16.52,41.16,41.16,0,0,0-2.9-14c-.06-.15-.12-.3-.19-.45a29.85,29.85,0,0,0-3.3-5.57c-.3-.41-.62-.87-1-1.41l0-.06a30.87,30.87,0,0,0-7.59-7.25l-.27-.18c-.07-.05-6.8-4.47-11.45-5.61a45,45,0,0,0-10.38-1.67,84.09,84.09,0,0,0-8.55-.23c-1.87,0-3.47-.07-4.76-.12-1,0-1.79-.07-2.53-.07Zm5,19.69c1.62-.15,4.53-.3,6.75-.3A32.59,32.59,0,0,1,640,39l.15,0c1,.27,2,1,3.83,2.48l.8.63a12.83,12.83,0,0,1,2.8,5.27l.06.19.06.17a25.29,25.29,0,0,1,1.64,6.57,41.08,41.08,0,0,1-.64,7.46c0,.15,0,.3-.07.45A19.22,19.22,0,0,1,647,67.86a19.19,19.19,0,0,1-3.34,4.4l-.29.28a8.83,8.83,0,0,1-3.41,2.09l-1.5.57a15.94,15.94,0,0,1-3.55,1.09c-2.19.15-5.09.35-7.3.35H625l-.57-39Z" fill="#fff"/><path d="M537.94,110.5l-1.73,0A68.7,68.7,0,0,1,514,106.36l-.73-.29A40.62,40.62,0,0,1,497,94.9c-7-7.85-8.85-13.1-10.06-16.57l-.18-.52c-1.09-3.45-3.08-11.68-3.17-12a3.48,3.48,0,0,1-.06-1.32c0-.31,0-1.22-.28-3.53a30.68,30.68,0,0,1,.19-8,57.2,57.2,0,0,1,1.6-7c.15-.57.3-1.1.42-1.57A70,70,0,0,1,493,28.22a52.22,52.22,0,0,1,4.18-5.17l1.21-1.36a13.34,13.34,0,0,1,3.06-2.81,36.18,36.18,0,0,0,3.38-2.56c5.17-4.21,11.76-7.1,14.93-8.49l.29-.12,1-.42a44.62,44.62,0,0,1,15.17-3.63c1.59-.11,3.15-.16,4.66-.16a76.22,76.22,0,0,1,10.87.86c.76.11,1.5.21,2.23.29,5.45.66,15.29,4,15.7,4.16l.3.12a92.17,92.17,0,0,1,10.69,5.71c2.79,1.67,5.07,4.59,7.26,7.41l.4.51a103.38,103.38,0,0,1,6.54,9.75c1,1.52,4.24,7.24,5,10,.6,1.9,1.56,6.72,2.33,10.72l.14.77c0,.11,0,.23.06.34l0,.18c.21,1.29.75,4.72-1.26,7.3a6.68,6.68,0,0,1-4.87,2.48c-.29,0-.48,0-.66,0-3.14,0-7.15-1.44-8.43-8.3l0-.26C586.89,54,584,44.38,583.1,42.9l-.07-.12a134.45,134.45,0,0,0-10-13.94,32.27,32.27,0,0,0-13-8A81.06,81.06,0,0,0,540,17.73l-1.26,0c-5.75.27-7.28.61-9.38,1.33l-.11,0A50.53,50.53,0,0,0,517.16,25a48,48,0,0,0-9.94,8.35c-2.68,3.37-7,11.42-7.86,15.37a54.6,54.6,0,0,0-.65,16.13c0,.15,2.19,15.39,11.73,22.89,3.82,3.1,6.81,4.64,16.05,7.18a75.24,75.24,0,0,0,10.29.58c5.17,0,6.45-.15,9-1.11.85-.29,1.49-.51,2.06-.69a22.58,22.58,0,0,0,4-1.62c.51-.26,1.08-.52,1.7-.81a26.81,26.81,0,0,0,8.37-5.5,25,25,0,0,0,5.8-10.34,8.84,8.84,0,0,0,.29-3.74c0-.71-.1-1.53-.13-2.56l-.08-1c-.06-.72-.11-1.4-.18-2a43,43,0,0,0-1.24-7L566,57.48a24.38,24.38,0,0,0-1-3.32l-.36-1a28.59,28.59,0,0,0-1.86-4c-.41-.58-.78-1.1-1.2-1.67l-.57-.78-.11-.15c-3.72-5.77-11.56-10-19.07-10.2H541a26.75,26.75,0,0,0-7.68,1.1,29.76,29.76,0,0,0-6.14,2.93l-.82.48a11.51,11.51,0,0,0-1.4.88c-.37.29-.71.53-1,.75a2.54,2.54,0,0,0-.63.5l-.15.15c-.18.21-.65,1-.91,1.37a14.6,14.6,0,0,1-.89,1.36c-5.71,7.26-4.63,13.82-4.58,14.1a4.9,4.9,0,0,1,.06.77c-.05,1.59,0,15.68,16.14,17.47h.18c4.54,0,12.27-2.94,14.76-5.63,1.43-1.55,1.32-6.06,1.28-7.54-.08-2.6-1.37-6.52-2.45-7.48-4-3.44-7-3.57-8.83-3.65l-.54,0c-1.57,0-3.31.49-4.26,4.14-.08.71.81,2.71,1.63,2.86l.13,0a8.82,8.82,0,0,0,2,.2c.66,0,1.3,0,1.87-.08s1.1-.06,1.54-.06a7.13,7.13,0,0,1,1.09.07l.25,0c4.62.41,5.59,3.93,5.59,6.81a1.48,1.48,0,0,1,0,.21c-.12,2.1-1.33,7-10,7-.07,0-8.11-.28-9.93-2l-.44-.33c-2.14-1.58-7.81-5.8-8.1-13.07a19,19,0,0,1,11-18.51,20.77,20.77,0,0,1,7.52-1.61h.35c5.95.31,10,1.28,13.86,3.33l.51.28c.53.29,1.2.65,1.93,1.14l1.34.9a3.81,3.81,0,0,1,.32.24c5.7,4.87,7.4,11.29,8.19,15.69a35.8,35.8,0,0,1,.44,4.75c0,.34,0,.68,0,1a21.51,21.51,0,0,1-1.8,10,19.33,19.33,0,0,1-8.75,9.39l-.84.43a44.47,44.47,0,0,1-15.13,5.26,41.22,41.22,0,0,1-4.47.26,37.07,37.07,0,0,1-11.13-1.72c-16.43-5.35-18.91-22.7-19.18-25.13a35.3,35.3,0,0,1,6-27l.12-.17A40.37,40.37,0,0,1,512.26,34l.09-.1a43.55,43.55,0,0,1,11.21-8.06c6.14-3.25,10.94-4.12,12.8-4.12H537l1.54,0c1.28,0,2.44,0,3.56.12a58.65,58.65,0,0,1,9.35,1.51,41.25,41.25,0,0,1,7.38,2.13,21.63,21.63,0,0,1,3.72,2c.35.23.69.45,1,.65,2,1.26,7.69,5.16,9.76,8.4l.24.36a43.15,43.15,0,0,1,5.63,11.14c.83,2.65,1.51,5.92,2.28,9.71.21,1,.43,2.09.66,3.19,1.54,7.58,1.22,15.9-.82,21.74l-.06.15a35.42,35.42,0,0,1-9,13.47c-6.46,6.08-14.3,9.41-16.87,10.51-.36.14-.64.28-1,.44C552,108.48,548,110.5,537.94,110.5Z" fill="#3e649f"/><path d="M540.89,7a90.25,90.25,0,0,1,12.68,1.13c5.15.62,15,4,15,4a91.26,91.26,0,0,1,10.28,5.49c2.39,1.42,4.53,4.26,6.75,7.1a96.78,96.78,0,0,1,6.28,9.4c.81,1.16,4.08,7,4.7,9.22S598.79,53.61,599,54.5s1.34,5.76-2.92,6.12h-.36c-4.28,0-4.78-4.48-5-5.77s-3.36-11.79-4.52-13.74a135.28,135.28,0,0,0-10.46-14.64,35.44,35.44,0,0,0-14.54-8.95A84.08,84.08,0,0,0,540,14.23l-1.4,0c-5.84.27-7.8.64-10.37,1.51a53.35,53.35,0,0,0-13,6.29c-3.19,1.95-8.5,6.22-10.8,9.13C501.72,34.65,497,43.24,496,47.94a57.76,57.76,0,0,0-.71,17.38s2.22,16.67,13,25.17c4.17,3.37,7.62,5.15,17.29,7.81a73.82,73.82,0,0,0,11.17.7c5.5,0,7.19-.18,10.29-1.33a38.54,38.54,0,0,0,6.46-2.48c2.4-1.24,6.48-2.57,10.91-6.92a28.62,28.62,0,0,0,6.74-12c.8-2.84.36-3.73.27-7.36-.1-1.16-.18-2.22-.27-3.2a46.42,46.42,0,0,0-1.33-7.44,39.84,39.84,0,0,0-1.87-6.39,29.45,29.45,0,0,0-2.21-4.69c-.62-.89-1.15-1.6-1.86-2.57-4.52-7-13.57-11.53-21.9-11.8h-1a30.11,30.11,0,0,0-8.71,1.25,33.41,33.41,0,0,0-6.91,3.28A25.68,25.68,0,0,0,522.81,39a13.54,13.54,0,0,0-2.13,1.69,31.66,31.66,0,0,0-2.12,3.1c-6.83,8.69-5.23,16.85-5.23,16.85s-.71,19,19.41,21.1h.41c5.19,0,14-3.11,17.32-6.75,2.13-2.29,2.31-6.38,2.22-10-.09-2.92-1.43-8.06-3.64-10-4.88-4.26-8.86-4.43-11-4.52-.22,0-.44,0-.67,0-2.69,0-6.19,1.13-7.66,6.76-.53,2.13,1.16,6.56,4.35,7.18a12.31,12.31,0,0,0,2.81.29c1.34,0,2.57-.14,3.42-.14a5,5,0,0,1,.59,0c1.15.17,2.84-.18,2.84,3.37-.17,2.92-3.25,3.7-6.49,3.7a31.13,31.13,0,0,1-7.53-1c-1.06-1-7.18-4.43-7.44-11-.26-7,3-12.32,9-15.24a17.07,17.07,0,0,1,6.12-1.24c5.05.26,8.7,1,12.41,2.92.63.35,1.33.71,2.13,1.24l1.33.89c4.35,3.72,6.13,8.69,7,13.65a42.49,42.49,0,0,1,.44,5.32,18.24,18.24,0,0,1-1.5,8.33,15.81,15.81,0,0,1-7.19,7.72c-3.28,1.68-8.15,4.43-14.8,5.32a36.39,36.39,0,0,1-4,.23,33.73,33.73,0,0,1-10.1-1.56c-15.24-5-16.75-22.34-16.75-22.34a31.92,31.92,0,0,1,5.32-24.39,41.26,41.26,0,0,1,3.11-4A39.57,39.57,0,0,1,525.2,29c5.67-3,9.92-3.72,11.16-3.72l2.2,0c.94,0,2.08,0,3.3.1a55.3,55.3,0,0,1,8.78,1.42,38.87,38.87,0,0,1,6.83,2,28.92,28.92,0,0,1,4.34,2.49c2.75,1.68,7.19,5,8.6,7.27a40.34,40.34,0,0,1,5.5,10.72c1,3.1,1.77,7.46,2.84,12.51,1.51,7.44,1,15.07-.71,19.86a31.65,31.65,0,0,1-8.15,12.23c-6,5.67-13.57,8.87-15.87,9.84-2.11.85-5.12,3.39-16.08,3.39l-1.65,0a65,65,0,0,1-21.11-3.9,37.83,37.83,0,0,1-15.6-10.55c-6.82-7.63-8.33-12.51-9.48-15.78S487,65,487,65s.18-.08-.26-4.43a27.65,27.65,0,0,1,.17-7.09,79.18,79.18,0,0,1,2-8.15,67.2,67.2,0,0,1,7-15.07A63,63,0,0,1,501,24c2.66-2.92,1.15-1,6-5s11.44-6.82,14.28-8.07a43.27,43.27,0,0,1,15.15-3.81c1.6-.1,3.07-.15,4.43-.15m0-7c-1.58,0-3.23.06-4.89.17a48.23,48.23,0,0,0-16.26,3.88l-1,.4-.25.1-.16.07c-3.31,1.45-10.2,4.47-15.74,9A35.72,35.72,0,0,1,499.51,16a16.64,16.64,0,0,0-3.69,3.32l-.08.1-1.2,1.36a53.63,53.63,0,0,0-4.38,5.41l-.06.08a73.44,73.44,0,0,0-8,17.14c0,.05,0,.11-.05.16L481.66,45A61.69,61.69,0,0,0,480,52.41v.07a33.77,33.77,0,0,0-.19,8.85c.17,1.76.23,2.62.24,3a6.87,6.87,0,0,0,.17,2.29c.09.35,2.11,8.7,3.23,12.26a1.72,1.72,0,0,1,.07.21l.15.41c1.22,3.51,3.26,9.37,10.73,17.72l.05.06A44.51,44.51,0,0,0,512,109.33l.58.23.21.08A72.33,72.33,0,0,0,536.17,114l1.77,0c10.83,0,15.54-2.34,18.07-3.59l.62-.3.13,0c2.74-1.17,11-4.68,17.92-11.19a38.91,38.91,0,0,0,9.89-14.79v0l.07-.18C586.7,78,587.18,69.93,586,62.37a11.17,11.17,0,0,0,9.7,5.26c.25,0,.5,0,.77,0h.19A10.25,10.25,0,0,0,604,63.79c3-3.78,2.22-8.47,2-10l0-.12c0-.18,0-.36-.08-.54s-.08-.39-.15-.75c-1.18-6.17-1.89-9.4-2.41-11.06-1-3.26-4.23-9-5.39-10.8a105.66,105.66,0,0,0-6.74-10l0-.06-.4-.51c-2.38-3.05-4.84-6.21-8.17-8.22a97.55,97.55,0,0,0-11.11-5.94c-.2-.09-.39-.16-.59-.23-1.08-.37-10.71-3.63-16.42-4.32-.72-.09-1.44-.18-2.18-.29A80.83,80.83,0,0,0,540.89,0Zm-3.78,57.41.27,0h.38c.43,0,.88,0,1.38.1l-.59,0c-.53,0-1.06.06-1.57.07l.13-.21Z" fill="#fff"/><path d="M747.9,50.75c2.05-.93,3.56-1.49,4.85-2,1.32-.38,2.81-.74,4.67-1.13a23.45,23.45,0,0,1,5.05-.55,24.47,24.47,0,0,1,5.61,1.1c1.31.39,2.42,1.87,3.18,3a3.34,3.34,0,0,1,1.11,3v1.51c-.18.55-.56.73-.94,1.29a4.69,4.69,0,0,1-1.3,1.49,11.27,11.27,0,0,1-1.5,1.13c-.75.38-1.49.56-2.25.93s-1.86.2-3,.57c-3.74.57-6.73.74-8.41,1.31a26.82,26.82,0,0,0-3.93,1.5,11,11,0,0,0-3,2,8.13,8.13,0,0,0-2,2.62,13.79,13.79,0,0,0-1.5,3,23.41,23.41,0,0,0-.56,3.92,12,12,0,0,0,1.48,6.17,10.5,10.5,0,0,0,4.87,4.49,18.94,18.94,0,0,0,8.41,2h3.55c1.12-.18,2.23-.56,4.3-.93.94-.76,2.23-1.49,3.73-2.62l2.06-2v4.67h8c-.75-3.36-1.11-3.74-.93-6.16,0-4.12-.37-13.09-.19-17.94,0-4.87-.19-3.54-.19-5.6a21.22,21.22,0,0,0-1.31-6c-.57-1.51-1.5-2.44-2.44-4.13a14.15,14.15,0,0,0-5.79-3.74,22,22,0,0,0-6.15-.93c-2.25,0-5.6.19-8,.36a60.44,60.44,0,0,0-7.3,1.88A56.38,56.38,0,0,1,747.9,50.75Zm20.35,29.9c-.37.18-1.49,1.1-1.87,1.3-1.49.38-2.42.94-3.35,1.12a21.16,21.16,0,0,1-3.55.37A8,8,0,0,1,755,82.13c-1.31-.73-1.31-.38-2.25-1.69-.74-1.1-2-3-2-4.47a6,6,0,0,1,.18-3.18A6.54,6.54,0,0,1,752,70.55a16.78,16.78,0,0,1,2.61-2.43c1.13-.58,2.06-.75,3.92-1.49a16.33,16.33,0,0,1,4.31-.75c1.11-.18,3.35-.18,4.1-.55a6.47,6.47,0,0,0,2.06-.59A13.48,13.48,0,0,1,770.7,64a20.05,20.05,0,0,0,1.86-1.49l-.19,9s-.18,3.75-1.49,5.8A14.39,14.39,0,0,1,768.25,80.65Z"/><path d="M900.52,50.19c1.86-.93,3.37-1.48,4.67-2.06,1.29-.38,3-.74,4.67-1.1a25.45,25.45,0,0,1,5-.57,23,23,0,0,1,5.6,1.11c1.49.39,2.44,1.87,3.36,3,.94.93.94,1.84,1.13,3.34a3.81,3.81,0,0,1-.2,1.5c-.19.58-.38.38-.75.94a5.25,5.25,0,0,1-1.31,1.5A8.08,8.08,0,0,1,921.05,59c-.57.36-1.32.56-2.06.94-.94.37-1.86.18-3,.55-3.93.57-6.92.74-8.41,1.31-1.7.56-2.81.94-4.12,1.49a14.32,14.32,0,0,0-3,2.08,7.78,7.78,0,0,0-2.06,2.41,16.56,16.56,0,0,0-1.32,3.18,13.71,13.71,0,0,0-.74,3.93,14.3,14.3,0,0,0,1.5,6.16,11.28,11.28,0,0,0,4.86,4.48,20.8,20.8,0,0,0,8.6,2.06h3.35c1.32-.2,2.43-.56,4.29-.94.94-.75,2.44-1.5,3.74-2.6C924.22,82.69,925,82,925,82v4.67h8c-.74-3.35-1.1-3.74-1.1-6.17.18-4.11-.2-13.07-.2-17.92a45.21,45.21,0,0,0,0-5.61,28.56,28.56,0,0,0-1.31-6,16.4,16.4,0,0,0-2.6-4.12,12,12,0,0,0-5.8-3.76A20.23,20.23,0,0,0,916,42c-2.25,0-5.79.36-8,.54-2.42.37-4.1.93-7.29,1.68C900.52,46.84,900.71,48.88,900.52,50.19Zm20.37,29.89c-.56.2-1.5,1.13-2,1.32-1.32.36-2.24.94-3.18,1.12a26.8,26.8,0,0,1-3.55.37,8.54,8.54,0,0,1-4.67-1.32c-1.13-.74-1.13-.36-2.06-1.68-.94-1.12-2.24-3-2.24-4.49a18,18,0,0,1,.19-3.18,7,7,0,0,1,1.3-2.21,17.6,17.6,0,0,1,2.63-2.46,34.9,34.9,0,0,1,3.9-1.48,15.18,15.18,0,0,1,4.31-.73c.94-.2,3.37-.2,4.12-.59.56-.18,1.31-.36,1.86-.55a14.44,14.44,0,0,1,1.86-.75c.37-.38.75-.58,1.7-1.48v9a15.68,15.68,0,0,1-1.5,5.8A13.83,13.83,0,0,1,920.89,80.08Z"/><path d="M786.93,87.19l.94-3.17.2-8.8L787.5,50c0-2.25-1.31-4.85-1.31-6a17.84,17.84,0,0,0,5.4-1,9.64,9.64,0,0,1,3.18-.36v5.79c.94-1.68,2.42-1.85,3.19-2.81.56-.93,1.31-.93,2.61-1.86a8.44,8.44,0,0,1,3.36-1.12,42.63,42.63,0,0,1,4.85-.37,10.34,10.34,0,0,1,3.36.56,9.25,9.25,0,0,1,3.18,1.3,8,8,0,0,1,2.42,1.69A10.14,10.14,0,0,1,820,48.33c.19.38,1.86-2,4.29-3.36a17.61,17.61,0,0,1,8.23-2.43c1.86,0,6.15.2,8,.93s4.49,1.7,5.62,3,1.48,1.86,2.41,3c1.32,1.31,1.71,4.67,1.71,6,0,1.49.18,3.74.18,6.55V82.69c0,2.06.56,2.25.94,4.5h-8.6c1.11-3.55.94-2.44.94-4.5l.18-18.85c0-2.63,0-4.12-.18-6.17a14.47,14.47,0,0,0-.94-4.67A16.82,16.82,0,0,0,840,49.45a7.61,7.61,0,0,0-3-1.32c-.94-.56-2.81-.56-4.1-.56a18.44,18.44,0,0,0-3.38.39,14.94,14.94,0,0,0-2.44,1.11,9.18,9.18,0,0,0-2.23,1.68,18.94,18.94,0,0,0-1.68,2.8,21.18,21.18,0,0,0-.56,4.31c0,1.86.18,4.29,0,6.89V83.07l1.31,4.12h-9c0-3.74.58-.38.58-4.3V57.31c-.19-1.51-.36-2.06-.58-3.19A10,10,0,0,0,813.28,51a10.41,10.41,0,0,0-3.56-2.83A7.9,7.9,0,0,0,806,47.2a7.47,7.47,0,0,0-3.55.76c-1.13.56-2.23.74-3.17,1.86-1,.93-1.69,1.13-2.43,2.59-.58,1.5-1.13,1.13-1.31,3.58-.38,2.41-.57,11.2-.57,17.17.19,3.56.19,6.72.19,9.71,0,1.86.94,2.61.94,4.3h-4.29C791,87.19,788.62,87.19,786.93,87.19Z"/><path d="M893.05,79.15c0,.57-.2,1.5-.37,2.8s-.57,2.44-.76,3.75A34.25,34.25,0,0,1,886.15,87c-1.7.19-6.54.36-8,.36a32,32,0,0,1-8.59-1.3A21.31,21.31,0,0,1,862,81.4c-1.86-1.87-4.12-3.93-5-6.91a29.76,29.76,0,0,1-1.66-9c-.2-4.49.56-6,1.66-9.9,1.32-3.93,4.5-6.91,7.3-9.16,3-2.25,9.71-4.11,14.76-4.11A43.71,43.71,0,0,1,891,44c.18,2.63.37,4.1.57,5.79-2.62-.95-5.05-2.08-6.55-2.44-1.67-.19-3.74-.55-5-.55a29,29,0,0,0-9.16,2A12.53,12.53,0,0,0,866.16,53a20.57,20.57,0,0,0-2.61,6.54,12.49,12.49,0,0,0-.56,5.22,30.77,30.77,0,0,0,1.69,9c1.1,2.43,2.8,5,5.22,6.35a15,15,0,0,0,8,2.81A32.54,32.54,0,0,0,893.05,79.15Z"/><path d="M938.44,85.5l-.74-3c0-.38-.75-2.24-1.12-4.3,5,2.81,10.28,4.86,14.2,4.86A19.44,19.44,0,0,0,956,82a7.93,7.93,0,0,0,3.37-2.6,11.69,11.69,0,0,0,1.5-3,4,4,0,0,0,.18-2c-.18-.58-.38-2.25-.94-2.82-.37-.56-1.87-1.85-2.6-2.61a30.24,30.24,0,0,0-5.62-2.8c-2.61-1.11-6.17-2.23-7.46-3.36-1.33-.94-3.56-2.24-4.49-3.36A16.49,16.49,0,0,1,937.88,56c-.36-1.13,0-2.81-.19-4.14,0-1.86,1.11-3.74,2.24-5.4,1.1-1.87,3-2.81,5.22-3.75A25.5,25.5,0,0,1,953,41.41c3.35,0,6.54.77,10.66,1.5.18,2.25-.39,3.94-.2,5.8a17.42,17.42,0,0,0-9.34-3,20.08,20.08,0,0,0-4.87.75,9.92,9.92,0,0,0-3.74,2.79,5.13,5.13,0,0,0-.93,2.81,7,7,0,0,0,.55,2.61A8.09,8.09,0,0,0,948,57.49a12.06,12.06,0,0,0,1.86.73c1.33.2,4.31,1.87,7.29,3.19A28.57,28.57,0,0,1,964,65.72a10.68,10.68,0,0,1,2.8,4.48,7.7,7.7,0,0,1,.74,3.35c0,1.68-.38,1.86-.38,3,.2,2.06-.36,2.81-1.48,4.49a11.45,11.45,0,0,1-5.61,4.48,21,21,0,0,1-7.84,1.69c-1.31,0-4.12.18-5.78,0s-3.19-.76-4.5-1A16.63,16.63,0,0,1,938.44,85.5Z"/><path d="M993,81.75a21.05,21.05,0,0,0-.94,4.67,11.3,11.3,0,0,1-3.74.76,16.63,16.63,0,0,1-3-.19,13,13,0,0,1-5.78-.94,6.88,6.88,0,0,1-3.36-3.18c-.94-1.48-1.5-5.23-1.5-7.83V73.33a65.76,65.76,0,0,1,0-6.7l-.18-19.45h-5.43V43.26l5.43-.19c.18-1.09,0-4.85,0-7.65a6.13,6.13,0,0,0-1.32-3.37c2.61-.56,6.36-1.69,8-2,0,4.29.38,10.64.38,13.06l11.21.19a15.87,15.87,0,0,0,.2,4.29l-3.18-.37h-8.23l-.18,24.47v2.06c.18,2.25.36,5,.94,6.16.36,1.13,1.11,1.51,2,2.06a7.43,7.43,0,0,0,2.81.57h2.44A12,12,0,0,0,993,81.75Z"/><path d="M709,58.21h23.35a7.93,7.93,0,0,0-.18-2.41,11.47,11.47,0,0,0-1.12-3,8.25,8.25,0,0,0-2.44-2.62,9.66,9.66,0,0,0-3.16-2.06,16.35,16.35,0,0,0-4.5-.56,10.28,10.28,0,0,0-4.12,1,9.13,9.13,0,0,0-3.54,2.06,9.19,9.19,0,0,0-2.61,2.8,8.93,8.93,0,0,0-1.5,3.35l-.19.37S709.22,57.1,709,58.21Zm29.32,21.14c-.18,1.68-.75,3.73-.93,6.35-2.61.73-6.73,2.23-8.59,2.61-1.86.18-3.74.18-5.6.18a30.51,30.51,0,0,1-9.54-1.68,18.82,18.82,0,0,1-7.28-5,21.46,21.46,0,0,1-4.87-7.45,35.79,35.79,0,0,1-1.31-9c-.18-4.5.57-6.17,1.88-10.09a20.88,20.88,0,0,1,7.28-8.79c3-2.25,6.73-3.18,11.58-3.18a24.74,24.74,0,0,1,7.47.93,13.85,13.85,0,0,1,5.61,3.18A20.08,20.08,0,0,1,737.8,53a15.53,15.53,0,0,1,1.5,5.22,19.89,19.89,0,0,1,.36,4.5l-31.93.18V66.1a23.51,23.51,0,0,0,1.85,9A12.58,12.58,0,0,0,715,80.85c2.44,1.31,5.42,2.61,8.42,2.61C727,83.44,733.13,82,738.36,79.35Z"/><path d="M673,88.31c0-1,.76-2.07.76-2.81.2-14.19,0-25-.38-34l-.18-3.93-1.31-3.17c1.31-.2,3.18-.37,4.12-.56a30.28,30.28,0,0,1,4.47-.57v8.06a8.58,8.58,0,0,1,1.86-2.63,13.6,13.6,0,0,1,2.81-2.81,12.69,12.69,0,0,1,3.18-1.69,11.4,11.4,0,0,1,3.55-.93,36.22,36.22,0,0,1,4.68,0,23.49,23.49,0,0,1,4.67,1.12c.18,1.11-1.87,6-1.87,6a14.39,14.39,0,0,1-3.74-.93,16.47,16.47,0,0,0-4.11-.38,13.31,13.31,0,0,0-4.67.93,11.11,11.11,0,0,0-3.35,2.42,12.24,12.24,0,0,0-2.06,4.12c-.57,1.33-.38.2-.57,2.25-.18,2.24,0,22.24.19,26.91l.74,2.41h-4.48C676.54,88.1,674.48,88.31,673,88.31Z"/><path d="M618.08,83.44c3.52.2,6.53.2,9.51.2,2.44,0,5.43-.2,8-.38a29.74,29.74,0,0,0,6.73-2.06,15.93,15.93,0,0,0,6-3.75,26.23,26.23,0,0,0,4.86-6.36,26.62,26.62,0,0,0,2.42-8,48.41,48.41,0,0,0,.76-9,31.8,31.8,0,0,0-2.07-8.79c-.93-3-2.6-6.53-5-8.59-2.61-2-4.48-3.73-7.28-4.47a38.54,38.54,0,0,0-10.83-1.89c-2.81,0-6.37.2-8.06.39a49.24,49.24,0,0,1-5.79.38Zm-11,5,1.5-4.29v-53a30.07,30.07,0,0,0-1.69-6c3.74.2,9.9-.19,12.51-.19,1.5,0,3.93.19,7.29.19s6.36,0,7.84.2a38.7,38.7,0,0,1,9.35,1.48c2.42.56,7.09,3.18,9.33,4.67a24.56,24.56,0,0,1,6,5.6,33.13,33.13,0,0,1,3.72,6,34.16,34.16,0,0,1,2.44,11.79,35.37,35.37,0,0,1-1.69,14.19c-1.67,4.87-5,8.41-8.21,11.6A22.37,22.37,0,0,1,644.58,87a62.12,62.12,0,0,1-14,1.86H618.44Z"/><path d="M543.73,67.88c0-3.55-1.69-3.2-2.84-3.37s-4.17.44-6.82-.18c-3.19-.62-4.88-5-4.35-7.18,1.6-6.12,5.59-6.92,8.33-6.73,2.14.09,6.12.26,11,4.52,2.21,2,3.55,7.09,3.64,10,.09,3.63-.09,7.72-2.22,10-3.46,3.73-12.59,6.92-17.73,6.75-20.12-2.13-19.41-21.1-19.41-21.1s-1.6-8.16,5.23-16.85a31.66,31.66,0,0,1,2.12-3.1A13.54,13.54,0,0,1,522.81,39a25.68,25.68,0,0,1,2.57-1.59,33.41,33.41,0,0,1,6.91-3.28A30.55,30.55,0,0,1,542,32.86c8.33.27,17.38,4.79,21.9,11.8.71,1,1.24,1.68,1.86,2.57a29.45,29.45,0,0,1,2.21,4.69,39.84,39.84,0,0,1,1.87,6.39,46.42,46.42,0,0,1,1.33,7.44c.09,1,.17,2,.27,3.2.09,3.63.53,4.52-.27,7.36a28.62,28.62,0,0,1-6.74,12c-4.43,4.35-8.51,5.68-10.91,6.92A38.54,38.54,0,0,1,547,97.67c-3.1,1.15-4.79,1.33-10.29,1.33a73.82,73.82,0,0,1-11.17-.7c-9.67-2.66-13.12-4.44-17.29-7.81-10.81-8.5-13-25.17-13-25.17A57.76,57.76,0,0,1,496,47.94c1.06-4.7,5.77-13.29,8.52-16.76,2.3-2.91,7.61-7.18,10.8-9.13a53.35,53.35,0,0,1,13-6.29c2.57-.87,4.53-1.24,10.37-1.51,6.74-.26,16.67,1.51,22.52,3.28a35.44,35.44,0,0,1,14.54,9,135.28,135.28,0,0,1,10.46,14.64c1.16,2,4.26,12.32,4.52,13.74s.8,6,5.41,5.76c4.26-.36,3-5.23,2.92-6.12s-1.68-9-2.39-11.17-3.89-8.06-4.7-9.22a96.78,96.78,0,0,0-6.28-9.4c-2.22-2.84-4.36-5.68-6.75-7.1a91.26,91.26,0,0,0-10.28-5.49s-9.84-3.37-15-4c-4.43-.53-9.21-1.5-17.11-1A43.27,43.27,0,0,0,521.31,11c-2.84,1.25-9.4,4.09-14.28,8.07s-3.37,2-6,5a63,63,0,0,0-5.14,6.21,67.2,67.2,0,0,0-7,15.07,79.18,79.18,0,0,0-2,8.15,27.65,27.65,0,0,0-.17,7.09c.44,4.35.26,4.43.26,4.43s2,8.43,3.11,11.8,2.66,8.15,9.48,15.78a37.83,37.83,0,0,0,15.6,10.55,65,65,0,0,0,21.11,3.9c12.32.27,15.51-2.48,17.73-3.37s9.84-4.17,15.87-9.84A31.65,31.65,0,0,0,578,81.54c1.68-4.79,2.22-12.42.71-19.86-1.07-5-1.86-9.41-2.84-12.51a40.34,40.34,0,0,0-5.5-10.72c-1.41-2.22-5.85-5.59-8.6-7.27a28.92,28.92,0,0,0-4.34-2.49,38.87,38.87,0,0,0-6.83-2,55.3,55.3,0,0,0-8.78-1.42c-2.48-.17-4.6-.08-5.5-.08-1.24,0-5.49.71-11.16,3.72a39.57,39.57,0,0,0-10.37,7.44,41.26,41.26,0,0,0-3.11,4,31.92,31.92,0,0,0-5.32,24.39s1.51,17.37,16.75,22.34a34,34,0,0,0,14.11,1.33c6.65-.89,11.52-3.64,14.8-5.32a15.81,15.81,0,0,0,7.19-7.72,18.24,18.24,0,0,0,1.5-8.33,42.49,42.49,0,0,0-.44-5.32c-.88-5-2.66-9.93-7-13.65L552,47.22c-.8-.53-1.5-.89-2.13-1.24-3.71-1.95-7.36-2.66-12.41-2.92a17.07,17.07,0,0,0-6.12,1.24c-6,2.92-9.3,8.25-9,15.24.26,6.56,6.38,10,7.44,11C529.81,70.63,543.37,74.08,543.73,67.88Z" fill="#3e649f"/></g></svg>