<svg xmlns="http://www.w3.org/2000/svg" viewBox="0 0 1000 114"><title>logo_right</title><g id="Layer_2" data-name="Layer 2"><rect x="623.88" y="30.34" width="35.33" height="52.91" fill="#fff"/><rect x="714.88" y="62.39" width="67.28" height="18.31" fill="#fff"/><rect x="867.1" y="50.39" width="109.61" height="32.66" fill="#fff"/></g><g id="Layer_1" data-name="Layer 1"><path d="M766.29,42.85a22,22,0,0,1,6.08.92,14,14,0,0,1,5.71,3.69c.93,1.67,1.85,2.59,2.41,4.08a20.77,20.77,0,0,1,1.29,5.92c0,2,.19.72.19,5.53-.18,4.79.19,13.65.19,17.72-.18,2.38.18,2.76.92,6.08h-7.9V82.18l-2,2c-1.49,1.12-2.76,1.84-3.69,2.59-2,.36-3.14.74-4.24.92h-3.51a18.71,18.71,0,0,1-8.3-2,10.34,10.34,0,0,1-4.81-4.43,11.88,11.88,0,0,1-1.46-6.09,22.84,22.84,0,0,1,.55-3.87,13.73,13.73,0,0,1,1.48-3,8.17,8.17,0,0,1,2-2.58,10.73,10.73,0,0,1,3-2A26.73,26.73,0,0,1,758,62.28c1.66-.56,4.61-.73,8.3-1.29,1.13-.37,2.22-.2,3-.56s1.48-.55,2.22-.92A11.5,11.5,0,0,0,773,58.39a4.53,4.53,0,0,0,1.28-1.47c.38-.55.75-.73.93-1.27V54.16a3.31,3.31,0,0,0-1.1-3c-.75-1.11-1.84-2.57-3.14-3a24.17,24.17,0,0,0-5.53-1.08,23.25,23.25,0,0,0-5,.54c-1.84.39-3.31.74-4.61,1.12s-2.77,1-4.79,2a54.56,54.56,0,0,0,.18-5.72,61.81,61.81,0,0,1,7.2-1.85c2.37-.17,5.68-.36,7.9-.36m-3.94,40.21h.09a21.77,21.77,0,0,0,3.51-.37c.92-.18,1.83-.73,3.31-1.11.37-.19,1.48-1.1,1.84-1.28a14.08,14.08,0,0,0,2.6-3.3c1.29-2,1.47-5.72,1.47-5.72l.19-8.89a19.75,19.75,0,0,1-1.84,1.47,14,14,0,0,0-1.68.73,6.31,6.31,0,0,1-2,.59c-.74.36-2.95.36-4,.54a15.73,15.73,0,0,0-4.25.74c-1.84.73-2.76.9-3.88,1.47a16.69,16.69,0,0,0-2.57,2.4A6.46,6.46,0,0,0,754,72.54a6,6,0,0,0-.18,3.14c0,1.45,1.25,3.33,2,4.41.93,1.3.93,1,2.22,1.67a7.86,7.86,0,0,0,4.33,1.3m3.94-47.21c-2.82,0-6.81.26-8.39.38a5.57,5.57,0,0,0-.82.1A65.74,65.74,0,0,0,749,38.41a7,7,0,0,0-4.83,6.8,48.84,48.84,0,0,1-.16,5,7,7,0,0,0,6.42,7.56,17.74,17.74,0,0,0-4,2.78,14.8,14.8,0,0,0-3.37,4.3,21,21,0,0,0-2,4.1,6.82,6.82,0,0,0-.23.77,30.72,30.72,0,0,0-.72,5.05,1,1,0,0,1,0,.17,18.83,18.83,0,0,0,2.33,9.69A17.44,17.44,0,0,0,750.4,92a25.83,25.83,0,0,0,11.29,2.66h3.53a6.92,6.92,0,0,0,1.11-.09c.77-.13,1.46-.29,2.13-.46s1.33-.32,2.23-.48a4.58,4.58,0,0,1,4.49.16h7.9a7,7,0,0,0,6.83-8.53c-.2-.91-.38-1.61-.53-2.2a4.07,4.07,0,0,1-.24-1.84c0-.17,0-.34,0-.51,0-1.56,0-3.74-.1-6-.09-4-.2-8.56-.09-11.41V63a42.48,42.48,0,0,0-.16-4.82,5.24,5.24,0,0,1,0-.71c0-.16,0-.32,0-.48A27.86,27.86,0,0,0,787,49.07a18,18,0,0,0-2.07-3.8c-.29-.43-.55-.81-.77-1.21a6.78,6.78,0,0,0-1-1.37,21.06,21.06,0,0,0-8.58-5.55l-.24-.07a28.42,28.42,0,0,0-8-1.22ZM762.05,54.5a15.27,15.27,0,0,1,2.51-.33l-2.51.33Zm1.76,18.57a9.27,9.27,0,0,1,2.22-.36,8.14,8.14,0,0,0,.85-.08l.89-.08H768a5.31,5.31,0,0,1-.22.8l-.11.19a7.23,7.23,0,0,1-1,1.3l-.52.38c-.54.18-1,.36-1.35.5l-.36.14a14.51,14.51,0,0,1-2.09.21,1,1,0,0,1-.49-.15l-.43-.26-.27-.15c-.15-.23-.29-.46-.39-.65s0-.23,0-.35c.18-.18.37-.36.57-.53l.53-.18c.53-.18,1.18-.4,2-.72Z" fill="#fff"/><path d="M917,42.14a19.9,19.9,0,0,1,5.91,1.08,11.92,11.92,0,0,1,5.73,3.71A16.24,16.24,0,0,1,931.18,51a28,28,0,0,1,1.3,5.92,46.54,46.54,0,0,1,0,5.54c0,4.79.37,13.63.19,17.69,0,2.4.36,2.79,1.09,6.09h-7.9V81.63l-2.29,2c-1.28,1.08-2.76,1.82-3.69,2.56-1.84.38-2.93.73-4.24.93h-3.3a20.54,20.54,0,0,1-8.5-2,11.12,11.12,0,0,1-4.79-4.42,14,14,0,0,1-1.48-6.09,13.19,13.19,0,0,1,.73-3.88,16.24,16.24,0,0,1,1.3-3.14,7.87,7.87,0,0,1,2-2.38,14.75,14.75,0,0,1,3-2c1.3-.54,2.39-.92,4.07-1.47,1.47-.56,4.43-.73,8.31-1.29,1.12-.37,2-.18,3-.55.73-.37,1.47-.57,2-.92a8,8,0,0,0,1.62-1.14,5.22,5.22,0,0,0,1.29-1.48c.37-.55.56-.36.74-.93a3.54,3.54,0,0,0,.2-1.48c-.19-1.48-.19-2.38-1.11-3.3-.91-1.11-1.85-2.57-3.32-3a23.18,23.18,0,0,0-5.53-1.1,25.71,25.71,0,0,0-4.94.57c-1.65.35-3.33.71-4.61,1.08-1.28.58-2.77,1.12-4.61,2,.19-1.3,0-3.31.19-5.9,3.15-.74,4.81-1.29,7.2-1.66,2.18-.17,5.67-.53,7.9-.53m-3.9,40.37h.1a25.77,25.77,0,0,0,3.51-.36c.93-.18,1.84-.75,3.14-1.11.49-.19,1.42-1.1,2-1.3a13.64,13.64,0,0,0,2.64-3.27,15.42,15.42,0,0,0,1.48-5.73V61.86c-.94.89-1.31,1.08-1.68,1.46a13.21,13.21,0,0,0-1.83.74c-.55.19-1.29.36-1.84.54-.74.39-3.14.39-4.07.58a15,15,0,0,0-4.25.73,32.43,32.43,0,0,0-3.85,1.46,17.1,17.1,0,0,0-2.6,2.43A6.85,6.85,0,0,0,904.52,72a17.37,17.37,0,0,0-.19,3.14c0,1.47,1.28,3.32,2.21,4.43.92,1.3.92.93,2,1.66a8.45,8.45,0,0,0,4.51,1.3M917,35.14c-2.08,0-4.82.24-7,.43l-1.45.13-.49,0a49.68,49.68,0,0,0-5.08,1.11c-.78.2-1.64.42-2.66.66a7,7,0,0,0-5.38,6.31c-.11,1.54-.11,2.87-.11,3.94,0,.52,0,1.25,0,1.48a7,7,0,0,0,6.15,7.94,21.63,21.63,0,0,0-3.78,2.66,14.62,14.62,0,0,0-3.67,4.38,23.69,23.69,0,0,0-1.83,4.36,20.49,20.49,0,0,0-1.06,5.75c0,.12,0,.25,0,.38a21.15,21.15,0,0,0,2.21,9.1l.22.41a18.08,18.08,0,0,0,7.82,7.2,27.23,27.23,0,0,0,11.37,2.72h3.45a6.19,6.19,0,0,0,1.05-.08,28.34,28.34,0,0,0,2.79-.58c.55-.13,1.13-.27,1.8-.41a6.73,6.73,0,0,0,1.57-.52,6.89,6.89,0,0,0,3,.68h7.9a7,7,0,0,0,6.83-8.51c-.24-1.09-.44-1.88-.6-2.51a6.24,6.24,0,0,1-.32-1.93c.11-2.72,0-7-.08-11.08-.06-2.46-.11-4.78-.11-6.54a53.08,53.08,0,0,0,0-6.18c0-.11,0-.21,0-.32a35.21,35.21,0,0,0-1.62-7.39c-.07-.2-.14-.4-.23-.6a22.82,22.82,0,0,0-3.66-5.8A18.71,18.71,0,0,0,925,36.55a26.77,26.77,0,0,0-7.83-1.41ZM912.62,53.9a18.14,18.14,0,0,1,2.64-.33c-.94.13-1.83.23-2.64.33Zm5.2,18.16.78-.07h.06a8.23,8.23,0,0,1-.42,1.21,6.37,6.37,0,0,1-.7.92c-.3.2-.57.4-.8.57-.49.18-.91.35-1.26.5l-.3.12a19.14,19.14,0,0,1-2.14.21,1.42,1.42,0,0,1-.7-.2l-.46-.29a6.54,6.54,0,0,1-.55-.75v-.16c.23-.24.47-.48.72-.7.75-.31,1.52-.58,2.28-.82l.07,0a7.88,7.88,0,0,1,2.26-.39,7.48,7.48,0,0,0,1.16-.12Z" fill="#fff"/><path d="M811.12,42.41a10,10,0,0,1,3.31.55,9.09,9.09,0,0,1,3.14,1.28A7.86,7.86,0,0,1,820,45.91a10.13,10.13,0,0,1,2.23,2.48.08.08,0,0,0,.07,0c.36,0,1.94-2.11,4.17-3.36a17.51,17.51,0,0,1,8.13-2.4c1.83,0,6.07.2,7.89.92s4.44,1.68,5.55,3,1.46,1.84,2.38,3c1.31,1.29,1.69,4.61,1.69,5.92,0,1.47.18,3.69.18,6.47v20.4c0,2,.55,2.23.93,4.45h-8.49c1.09-3.51.92-2.41.92-4.45l.18-18.61c0-2.59,0-4.06-.18-6.09a14.27,14.27,0,0,0-.92-4.61,16.92,16.92,0,0,0-2.75-3.5,7.52,7.52,0,0,0-3-1.31c-.93-.55-2.78-.55-4.05-.55a17.91,17.91,0,0,0-3.34.39,14.48,14.48,0,0,0-2.41,1.09,9.36,9.36,0,0,0-2.2,1.66,19.8,19.8,0,0,0-1.66,2.76,21.16,21.16,0,0,0-.55,4.26c0,1.84.18,4.24,0,6.8V82.69l1.29,4.07h-8.88c0-3.7.57-.38.57-4.25V57.26c-.19-1.49-.35-2-.57-3.15A9.68,9.68,0,0,0,815.56,51a10.27,10.27,0,0,0-3.51-2.8,7.87,7.87,0,0,0-3.68-.95h-.25a7.32,7.32,0,0,0-3.25.76c-1.12.55-2.2.73-3.13,1.83-1,.92-1.67,1.12-2.4,2.56-.57,1.48-1.12,1.11-1.29,3.53-.38,2.38-.57,11.06-.57,17,.19,3.51.19,6.63.19,9.58,0,1.84.93,2.58.93,4.25h-4.24c-.8,0-3.15,0-4.82,0l.93-3.13.2-8.69L790.11,50c0-2.22-1.3-4.79-1.3-5.92a18,18,0,0,0,5.34-1,9.27,9.27,0,0,1,2.62-.37h.51v5.72c.93-1.66,2.39-1.83,3.15-2.77.56-.92,1.3-.92,2.58-1.84a8.37,8.37,0,0,1,3.32-1.11,42.71,42.71,0,0,1,4.79-.36h0m0-7H811a46.28,46.28,0,0,0-5.51.42A15,15,0,0,0,801.19,37a6.9,6.9,0,0,0-3.53-1.19l-.89,0a16.41,16.41,0,0,0-4.56.64l-.38.12a10.42,10.42,0,0,1-3.22.6,7,7,0,0,0-6.8,7,13.22,13.22,0,0,0,.81,4.11,14.51,14.51,0,0,1,.49,1.86v.11l.56,24.74-.17,7.59-.67,2.24a7,7,0,0,0,6.71,9c2.17,0,4,0,4.9,0h4.16a7,7,0,0,0,7-7,12.09,12.09,0,0,0-.89-4.46s0-.07,0-.11c0-2.8,0-6-.19-9.45,0-7.28.26-14.26.48-15.68,0-.1,0-.21,0-.31s.3-.52.46-.85.64-.51,1-.89l.09-.08,0,0c.34-.14.82-.33,1.35-.59a.24.24,0,0,1,.14,0h.19a.93.93,0,0,1,.37.1l.31.16a3.28,3.28,0,0,1,1.08.84,3,3,0,0,1,.34.6c0,.16.07.3.1.45.1.47.17.79.24,1.3V82.48a12.29,12.29,0,0,0-.57,4.28,7,7,0,0,0,7,7h8.88a7,7,0,0,0,6.68-9.12l-1-3V64.83c.13-2,.08-3.86,0-5.36,0-.56,0-1.09,0-1.57a13,13,0,0,1,.21-2c.1-.17.2-.35.31-.52l.21-.12.14-.08a7.58,7.58,0,0,1,.86-.42,11,11,0,0,1,1.52-.15c.37,0,.93,0,1.3,0a7.53,7.53,0,0,0,1.25.38,10.16,10.16,0,0,1,.75,1,7,7,0,0,1,.3,1.82c0,.12,0,.25,0,.37.15,1.72.15,3,.15,5.45l-.18,18.58v.06c0,.17,0,.32,0,.46l0,.06c-.15.43-.34,1-.6,1.84a7,7,0,0,0,6.69,9.09h8.49a7,7,0,0,0,6.9-8.17,19.65,19.65,0,0,0-.77-3l-.06-.17V61.91c0-1.75-.07-3.29-.12-4.52,0-.79-.06-1.48-.06-2,0-1.16-.17-6.93-3.4-10.52-.25-.3-.44-.56-.63-.8-.44-.57-.94-1.22-1.75-2.16-2.17-2.49-5.47-3.78-7.89-4.73l-.38-.15c-3.3-1.3-8.85-1.41-10.46-1.41h-.29A24.33,24.33,0,0,0,822.94,39l-.22.12a16.55,16.55,0,0,0-1.78-1,16,16,0,0,0-4.66-1.89,17,17,0,0,0-5.16-.79Z" fill="#fff"/><path d="M880.5,42.46a42.72,42.72,0,0,1,11.79,1.66c.18,2.59.37,4,.57,5.71-2.59-.94-5-2-6.47-2.41-1.65-.18-3.69-.54-4.94-.54a28.4,28.4,0,0,0-9,2A12.33,12.33,0,0,0,867.77,53a20.12,20.12,0,0,0-2.58,6.46,12.31,12.31,0,0,0-.55,5.15,30.27,30.27,0,0,0,1.67,8.89,13.34,13.34,0,0,0,5.15,6.27,14.78,14.78,0,0,0,7.9,2.77,32.12,32.12,0,0,0,15-3.72c0,.56-.2,1.48-.37,2.76s-.56,2.41-.75,3.71a33.57,33.57,0,0,1-5.7,1.28c-1.67.19-6.45.36-7.89.36a31.56,31.56,0,0,1-8.48-1.29,21,21,0,0,1-7.47-4.6c-1.84-1.85-4.07-3.88-4.94-6.82a29.28,29.28,0,0,1-1.63-8.89c-.2-4.43.55-5.92,1.63-9.77,1.31-3.88,4.45-6.82,7.21-9,3-2.23,9.59-4.06,14.57-4.06m0-7h0c-5.57,0-14,1.91-18.77,5.46l-.18.14c-3.14,2.52-7.53,6.54-9.46,12.27,0,.11-.07.22-.1.33-.17.61-.34,1.15-.49,1.66a26.77,26.77,0,0,0-1.41,10.27,36.09,36.09,0,0,0,2,10.79c1.32,4.31,4.13,7.11,6.19,9.15l.44.45.13.12a27.91,27.91,0,0,0,9.94,6.14l.38.12a38.22,38.22,0,0,0,10.36,1.56h.1c1.52,0,6.61-.17,8.67-.4l.17,0A41.38,41.38,0,0,0,895.32,92a7,7,0,0,0,4.81-5.67c0-.31.14-.72.25-1.18a24,24,0,0,0,.51-2.62c.06-.42.12-.8.17-1.13a16.31,16.31,0,0,0,.26-2.54,7,7,0,0,0-10.27-6.19,25.24,25.24,0,0,1-11.5,2.91,7.75,7.75,0,0,1-4-1.45,7.91,7.91,0,0,0-.68-.44,6.58,6.58,0,0,1-2.06-2.76,23.43,23.43,0,0,1-1.18-6.53,3.87,3.87,0,0,0,0-.48,5.26,5.26,0,0,1,.24-2.23,5.89,5.89,0,0,0,.2-.75,13.26,13.26,0,0,1,1.62-4.11,5.28,5.28,0,0,1,1.69-1.57,21.75,21.75,0,0,1,6.23-1.34c.48,0,1.56.18,2.22.27l1.22.16c.55.18,1.55.58,2.32.89.94.38,2,.81,3.13,1.21a7,7,0,0,0,9.34-7.4l-.06-.5c-.18-1.45-.33-2.71-.47-4.87a7,7,0,0,0-5.07-6.26,49.92,49.92,0,0,0-13.7-1.92Z" fill="#fff"/><path d="M953.51,41.56c3.3,0,6.45.76,10.52,1.48.18,2.22-.38,3.89-.2,5.73a17.23,17.23,0,0,0-9.22-3,20.08,20.08,0,0,0-4.81.74,9.86,9.86,0,0,0-3.69,2.76,5.1,5.1,0,0,0-.92,2.77,6.94,6.94,0,0,0,.55,2.58,7.93,7.93,0,0,0,2.83,2.78,10.85,10.85,0,0,0,1.84.73c1.31.19,4.25,1.84,7.19,3.14a28.72,28.72,0,0,1,6.77,4.26A10.65,10.65,0,0,1,967.13,70a7.61,7.61,0,0,1,.73,3.31c0,1.66-.37,1.84-.37,3,.19,2-.36,2.78-1.47,4.44a11.26,11.26,0,0,1-5.53,4.42,20.84,20.84,0,0,1-7.74,1.67c-.87,0-2.39.08-3.79.08a18.42,18.42,0,0,1-1.92-.08c-1.64-.18-3.15-.75-4.44-1a16.43,16.43,0,0,1-3.47-.7l-.73-3c0-.38-.74-2.21-1.11-4.25,4.94,2.78,10.15,4.8,14,4.8a18.94,18.94,0,0,0,5.16-1.05,7.75,7.75,0,0,0,3.32-2.56,11.33,11.33,0,0,0,1.49-3,4,4,0,0,0,.17-2c-.17-.57-.37-2.22-.92-2.78-.37-.56-1.85-1.83-2.57-2.58A30.27,30.27,0,0,0,952.41,66c-2.58-1.09-6.09-2.2-7.37-3.31-1.31-.93-3.51-2.21-4.43-3.32a16.09,16.09,0,0,1-2-3.41c-.36-1.11,0-2.77-.19-4.08,0-1.84,1.1-3.7,2.21-5.34,1.09-1.84,3-2.77,5.16-3.7a25.18,25.18,0,0,1,7.75-1.28m0-7h-.06a32.05,32.05,0,0,0-9.9,1.64,4.65,4.65,0,0,0-.52.2c-2.89,1.22-6.14,2.82-8.33,6.37-1.65,2.46-3.31,5.45-3.31,9.11a6.54,6.54,0,0,0,.06.89c0,.15,0,.47,0,.71a13.08,13.08,0,0,0,.48,4.61,5.89,5.89,0,0,0,.26.7,23.26,23.26,0,0,0,2.91,4.87l.15.18a21.29,21.29,0,0,0,4.8,3.91l.79.53a25.94,25.94,0,0,0,6.69,3.31c.79.3,1.53.59,2.16.86l.29.11a22.65,22.65,0,0,1,3.65,1.75l.56.53,0,0a.35.35,0,0,0-.05.08,1.18,1.18,0,0,1-.22.17,12.22,12.22,0,0,1-2.8.57c-1.84-.08-5.46-1.13-10.4-3.9a7,7,0,0,0-10.32,7.34,34,34,0,0,0,1,4l.09.31c0,.12.05.25.08.37l.73,3a7,7,0,0,0,4.68,5,23.26,23.26,0,0,0,4.53,1l.87.22a25,25,0,0,0,3.87.8,25.41,25.41,0,0,0,2.68.12c.89,0,1.77,0,2.54,0l1.25,0h.14a27.75,27.75,0,0,0,10.2-2.17,18.45,18.45,0,0,0,8.77-7.06l.1-.15a12.11,12.11,0,0,0,2.55-7.94,13.13,13.13,0,0,0,.35-3.14,14.71,14.71,0,0,0-1.2-5.89,17.61,17.61,0,0,0-4.46-6.93l-.3-.28a35.25,35.25,0,0,0-7.74-5,7,7,0,0,0,9.64-7.19,9.72,9.72,0,0,1,.09-1.23,23.12,23.12,0,0,0,.12-4.34,7,7,0,0,0-5.76-6.33l-2.4-.45a50,50,0,0,0-9.34-1.14ZM960.63,55l-.18-.08c-.91-.4-1.85-.86-2.76-1.3l-1.08-.52a10.14,10.14,0,0,1,3.29,1.47,7.74,7.74,0,0,0,.73.43Z" fill="#fff"/><path d="M981.33,30.34c0,4.24.37,10.51.37,12.9l11.07.18a15.45,15.45,0,0,0,.2,4.24l-3.14-.36H981.7l-.17,24.15v2c.17,2.22.35,4.93.92,6.08.36,1.12,1.1,1.49,2,2a7.34,7.34,0,0,0,2.77.57h2.41a12.38,12.38,0,0,0,3.39-.78,20.06,20.06,0,0,0-.93,4.61,11.39,11.39,0,0,1-3.69.75h-.45a16.22,16.22,0,0,1-2.51-.19l-.85,0a12.88,12.88,0,0,1-4.86-1,6.76,6.76,0,0,1-3.32-3.14c-.93-1.46-1.48-5.16-1.48-7.73V73.07c-.11-2.2-.11-4.41,0-6.61l-.18-19.2h-5.36V43.39l5.36-.19c.18-1.08,0-4.79,0-7.56a6,6,0,0,0-1.3-3.32c2.58-.56,6.28-1.67,7.9-2M993,81.39h0m-11.67-58a7.07,7.07,0,0,0-1.3.12c-1,.2-2.43.57-4,1-1.36.36-2.9.77-4,1a7,7,0,0,0-4.22,10.92v.19a7,7,0,0,0-5.37,6.81v3.87a7,7,0,0,0,5.43,6.82l.11,12.24c-.11,2.3-.11,4.63,0,6.93v1.51c0,.74.07,7.18,2.37,11.15A13.81,13.81,0,0,0,976.89,92l.17.07a19.71,19.71,0,0,0,7.51,1.48h.52a22.44,22.44,0,0,0,2.84.17h.64a17.9,17.9,0,0,0,6-1.22A7,7,0,0,0,999,86.59a14,14,0,0,1,.56-2.87,7,7,0,0,0-6.45-9.33h-.59a6.8,6.8,0,0,0-2.21.51,5.67,5.67,0,0,1-1.08.26h-.58c-.06-.63-.11-1.29-.15-1.76V71.48l.12-17.18h.77l2.74.31a7.34,7.34,0,0,0,.81,0,7,7,0,0,0,6.88-8.27,8.74,8.74,0,0,1-.11-2.34,7,7,0,0,0-6.85-7.62l-4.41-.08c-.08-2.09-.15-4.25-.15-6a7,7,0,0,0-7-7Z" fill="#fff"/><path d="M725.1,43.41a24.69,24.69,0,0,1,6.67.93,13.72,13.72,0,0,1,5.54,3.14A20.12,20.12,0,0,1,741,53a15.45,15.45,0,0,1,1.48,5.16,18.89,18.89,0,0,1,.35,4.44l-31.52.18v3.16a23.17,23.17,0,0,0,1.83,8.88,12.37,12.37,0,0,0,5.35,5.68,18.34,18.34,0,0,0,8.31,2.57c3.53,0,9.55-1.43,14.71-4-.18,1.65-.74,3.67-.92,6.25-2.57.72-6.64,2.2-8.48,2.57-1.83.18-3.69.18-5.53.18a30.31,30.31,0,0,1-9.42-1.66A18.56,18.56,0,0,1,710,81.45a21.2,21.2,0,0,1-4.81-7.36,35.11,35.11,0,0,1-1.29-8.89c-.18-4.44.56-6.09,1.85-10A20.67,20.67,0,0,1,713,46.56c3-2.22,6.64-3.14,11.43-3.14h.71M712.59,57.09h0s.21,0,0,1.06h23.06a7.93,7.93,0,0,0-.18-2.38,11.2,11.2,0,0,0-1.11-3,8.11,8.11,0,0,0-2.4-2.58,9.63,9.63,0,0,0-3.12-2,16.52,16.52,0,0,0-4.2-.55h-.25a10.11,10.11,0,0,0-4.07,1,9,9,0,0,0-3.49,2,9.11,9.11,0,0,0-2.58,2.77,8.87,8.87,0,0,0-1.48,3.3l-.19.37M725.1,36.41h-.81c-6.42,0-11.33,1.44-15.41,4.46a27.56,27.56,0,0,0-9.51,11.54q-.14.3-.24.6l-.35,1a27,27,0,0,0-1.86,11.34A42.4,42.4,0,0,0,698.47,76c.06.22.13.44.21.65a28,28,0,0,0,6.26,9.65,25.63,25.63,0,0,0,9.77,6.65l.2.08a37.3,37.3,0,0,0,11.61,2h.1c2,0,4,0,6.21-.21a6,6,0,0,0,.72-.11,55.26,55.26,0,0,0,5.48-1.6c1.25-.41,2.55-.83,3.49-1.09a7,7,0,0,0,5.1-6.26,30.72,30.72,0,0,1,.47-3.35c.16-.85.32-1.72.42-2.63a7,7,0,0,0-10.12-7,31,31,0,0,1-11.59,3.28,11.92,11.92,0,0,1-5-1.74A5.36,5.36,0,0,1,719.57,72a15.75,15.75,0,0,1-.74-2.23l24.08-.13a7,7,0,0,0,7-6.76,26.84,26.84,0,0,0-.42-5.73A22.27,22.27,0,0,0,747.37,50a26.68,26.68,0,0,0-5-7.38l-.28-.28a20.78,20.78,0,0,0-8.37-4.74,31.52,31.52,0,0,0-8.61-1.21Z" fill="#fff"/><path d="M741.59,79h0m0,0,0,0v0h0m0-7h-.05a7,7,0,0,0-6.93,6l0,.22a7,7,0,1,0,7-6.24Zm0,14h0Z" fill="#fff"/><path d="M698,43.32c.77,0,1.54,0,2.31.08a23.45,23.45,0,0,1,4.61,1.1c.18,1.1-1.84,5.92-1.84,5.92a13.92,13.92,0,0,1-3.7-.91,15.93,15.93,0,0,0-3.51-.39h-.54a13.19,13.19,0,0,0-4.61.92,10.74,10.74,0,0,0-3.31,2.39,12.08,12.08,0,0,0-2,4.07c-.56,1.31-.37.19-.56,2.22-.18,2.21,0,22,.19,26.57l.73,2.38H681.2c-.83,0-2.74.19-4.14.19,0-1,.75-2,.75-2.77.2-14,0-24.68-.37-33.57l-.18-3.88L676,44.51c1.29-.2,3.13-.36,4.06-.55a28.57,28.57,0,0,1,4.42-.56v8a8.41,8.41,0,0,1,1.83-2.59A13.56,13.56,0,0,1,689.06,46a12.79,12.79,0,0,1,3.14-1.67,11.17,11.17,0,0,1,3.5-.91c.77,0,1.54-.08,2.31-.08m0-7c-.92,0-1.85,0-2.76.09l-.21,0a18.06,18.06,0,0,0-5.45,1.38l-.62.25a7,7,0,0,0-4.52-1.66h-.37a37.1,37.1,0,0,0-5.45.7c-.26,0-1.11.15-1.67.22l-2.05.27a7,7,0,0,0-5.41,9.59l.82,2,.12,2.66c.41,9.73.54,20.29.38,32.23a10.65,10.65,0,0,0-.76,3.79,7,7,0,0,0,7,7c1,0,2.07-.06,3-.12l1.12-.07h4.55a7,7,0,0,0,6.69-9.06L692,84.13c-.17-5.75-.3-22.64-.17-24.82l0-.05a6.24,6.24,0,0,0,.3-.86,5.22,5.22,0,0,1,.64-1.4,3.65,3.65,0,0,1,.76-.52,6,6,0,0,1,1.93-.35h.43a9.28,9.28,0,0,1,1.58.14,21.31,21.31,0,0,0,4.86,1.12,6.78,6.78,0,0,0,.77,0,7,7,0,0,0,6.45-4.3c2.8-6.68,2.5-8.53,2.3-9.75a7,7,0,0,0-4.59-5.48,29.48,29.48,0,0,0-6-1.44l-.48-.05c-.91-.06-1.84-.09-2.76-.09Z" fill="#fff"/><path d="M624.14,25.32c1.48,0,3.88.19,7.2.19s6.28,0,7.74.19a38.39,38.39,0,0,1,9.23,1.46c2.39.56,7,3.14,9.21,4.61a24.37,24.37,0,0,1,5.93,5.53,32.91,32.91,0,0,1,3.67,5.93,33.9,33.9,0,0,1,2.41,11.64,35.05,35.05,0,0,1-1.67,14c-1.65,4.81-4.94,8.3-8.11,11.45A22,22,0,0,1,649,86.57a61.36,61.36,0,0,1-13.82,1.84h-12L612,88l1.48-4.23V31.43a29.6,29.6,0,0,0-1.67-5.92c.75,0,1.61,0,2.51,0,3.52,0,7.79-.24,9.84-.24m8.09,57.93c2.41,0,5.36-.19,7.9-.37a29.82,29.82,0,0,0,6.64-2,15.65,15.65,0,0,0,5.92-3.7,25.55,25.55,0,0,0,4.8-6.28,26,26,0,0,0,2.39-7.9,47.19,47.19,0,0,0,.75-8.88,31.2,31.2,0,0,0-2-8.68c-.92-3-2.57-6.45-4.94-8.48-2.57-2-4.42-3.68-7.19-4.41a38,38,0,0,0-10.69-1.87c-2.77,0-6.29.2-8,.38a47.34,47.34,0,0,1-5.71.38l.74,51.66c3.47.19,6.45.19,9.39.19m-8.09-64.93c-1,0-2.36,0-3.91.1-1.9.07-4.06.14-5.93.14-.84,0-1.56,0-2.14,0h-.37a7,7,0,0,0-6.5,9.58,23,23,0,0,1,1.17,4v50.5l-1.09,3.11A7,7,0,0,0,611.72,95l11.22.41h12.37a69,69,0,0,0,15.4-2,29.05,29.05,0,0,0,14-8.13c3.6-3.59,7.62-7.94,9.72-14.08l0-.06a41.81,41.81,0,0,0,2-16.61,40.69,40.69,0,0,0-2.9-13.86c-.06-.14-.12-.29-.19-.43A39.76,39.76,0,0,0,669,33a31.33,31.33,0,0,0-7.61-7.1c-1.83-1.22-7.4-4.56-11.28-5.54a45.83,45.83,0,0,0-10.47-1.67c-1.81-.2-4.39-.21-8.29-.21-1.85,0-3.42-.07-4.69-.12-.95,0-1.77-.07-2.51-.07Zm5.05,19.6c1.49-.13,4.15-.28,6.48-.28a31.22,31.22,0,0,1,8.62,1.52l.39.11c.9.24,1.82.94,3.51,2.27l1,.78a12.87,12.87,0,0,1,2.71,5.15c.05.17.11.33.17.49a24,24,0,0,1,1.56,6.47,40.68,40.68,0,0,1-.64,7.3c0,.09,0,.19,0,.28a19.58,19.58,0,0,1-1.68,5.65,19.15,19.15,0,0,1-3.42,4.43l-.09.09a8.87,8.87,0,0,1-3.29,2c-.18.06-.35.13-.53.21a22,22,0,0,1-4.71,1.48c-2.46.17-5,.33-7,.33h-2.49l-.55-38.33Z" fill="#fff"/><path d="M546.57,7.62a91.54,91.54,0,0,1,12.67,1.12c5.09.62,14.81,3.95,14.81,3.95a91.48,91.48,0,0,1,10.15,5.42c2.36,1.4,4.47,4.21,6.66,7a94.24,94.24,0,0,1,6.2,9.28,64.41,64.41,0,0,1,4.64,9.1c.7,2.15,2.28,10.15,2.36,11s1.32,5.69-2.88,6h-.34c-4.24,0-4.75-4.33-5-5.69s-3.32-11.59-4.47-13.57a132.14,132.14,0,0,0-10.32-14.45A35.06,35.06,0,0,0,566.69,18a83.22,83.22,0,0,0-20.87-3.26l-1.36,0c-5.77.27-7.7.64-10.24,1.49a52.88,52.88,0,0,0-12.84,6.21,50.78,50.78,0,0,0-10.66,9C508,34.88,503.36,43.37,502.31,48a57.11,57.11,0,0,0-.74,17.16S503.73,81.62,514.4,90c4.12,3.32,7.53,5.08,17.07,7.71a73.72,73.72,0,0,0,10.06.69h1c5.43,0,7.1-.18,10.16-1.32a37.76,37.76,0,0,0,6.44-2.4c2.37-1.23,6.4-2.54,10.77-6.84A28.21,28.21,0,0,0,576.52,76c.79-2.81.36-3.69.27-7.27-.1-1.19-.18-2.17-.27-3.16a44.75,44.75,0,0,0-1.31-7.35,39.21,39.21,0,0,0-1.84-6.3,28.48,28.48,0,0,0-2.19-4.64c-.61-.87-1.13-1.55-1.83-2.53-4.47-6.92-13.4-11.39-21.63-11.65l-.93,0a30.19,30.19,0,0,0-8.65,1.27,33,33,0,0,0-6.82,3.24,24.41,24.41,0,0,0-2.54,1.57,13.2,13.2,0,0,0-2.1,1.62,31.86,31.86,0,0,0-2.1,3.06c-6.74,8.58-5.16,16.64-5.16,16.64s-.7,18.72,19.16,20.83h.4c5.13,0,13.78-3.08,17.11-6.67,2.1-2.25,2.28-6.29,2.19-9.87-.09-2.87-1.41-7.9-3.59-9.87-4.82-4.21-8.75-4.38-10.87-4.47l-.68,0c-2.65,0-6.09,1.12-7.54,6.67-.52,2.15,1.15,6.48,4.3,7.09a12.27,12.27,0,0,0,2.82.28c1.34,0,2.56-.14,3.37-.14a2.83,2.83,0,0,1,.54,0c1.13.16,2.8-.18,2.8,3.32-.16,2.88-3.22,3.65-6.4,3.65a30,30,0,0,1-7.37-1c-1-1-7.09-4.38-7.35-10.86a15.17,15.17,0,0,1,8.89-15.05,16.9,16.9,0,0,1,6-1.22c5,.25,8.59,1,12.25,2.88.63.35,1.32.7,2.11,1.23l1.25.83c4.29,3.68,6,8.54,6.91,13.48a42.08,42.08,0,0,1,.44,5.25,18,18,0,0,1-1.48,8.23,15.61,15.61,0,0,1-7.1,7.62c-3.24,1.66-8,4.37-14.61,5.25a33.41,33.41,0,0,1-13.94-1.31c-15-4.91-16.53-22.06-16.53-22.06a31.51,31.51,0,0,1,5.25-24.08,41.76,41.76,0,0,1,3.07-3.95,39.16,39.16,0,0,1,10.24-7.34c5.6-3,9.79-3.68,11-3.68l2.21,0c.92,0,2,0,3.22.1A55.36,55.36,0,0,1,556.22,27,38.55,38.55,0,0,1,563,29a27.92,27.92,0,0,1,4.28,2.46c2.72,1.66,7.1,5,8.49,7.18a39.7,39.7,0,0,1,5.43,10.58c1,3.06,1.75,7.41,2.81,12.35,1.49,7.35,1,14.88-.7,19.61a31.27,31.27,0,0,1-8,12.14A53.3,53.3,0,0,1,559.58,103c-2.09.84-5.05,3.34-15.87,3.34h-1.63a64.12,64.12,0,0,1-20.84-3.86A37.37,37.37,0,0,1,505.83,92.1c-6.73-7.53-8.26-12.25-9.36-15.58s-3.07-11.65-3.07-11.65.18-.08-.25-4.37a27.32,27.32,0,0,1,.16-7,78.77,78.77,0,0,1,2-8,66.23,66.23,0,0,1,6.91-14.88,60.73,60.73,0,0,1,5.08-6.13c2.59-3,1.1-1,5.92-4.94s11.29-6.73,14.1-8a42.85,42.85,0,0,1,15-3.79c1.52-.09,2.92-.13,4.23-.13m0-7c-1.51,0-3.08.05-4.67.15a49.46,49.46,0,0,0-17.47,4.38l-.16.07c-3.26,1.43-10.06,4.42-15.5,8.86a35.36,35.36,0,0,1-3,2.26,15.5,15.5,0,0,0-3.69,3.39,71.69,71.69,0,0,0-5.56,6.73c-.09.13-.18.26-.26.4a73.27,73.27,0,0,0-7.65,16.45l0,.11a85,85,0,0,0-2.15,8.77,2,2,0,0,0,0,.24,34.12,34.12,0,0,0-.21,8.8c.17,1.76.23,2.63.24,3a6.93,6.93,0,0,0,.16,2.26c.21.89,2.08,8.72,3.24,12.23v.05c1.24,3.76,3.11,9.42,10.77,18a44.47,44.47,0,0,0,18.27,12.35A71.09,71.09,0,0,0,542,113.36c.58,0,1.18,0,1.75,0,10.71,0,15.37-2.31,17.87-3.55l.61-.3a59.91,59.91,0,0,0,17.86-11.11,38.45,38.45,0,0,0,9.8-14.85l0-.07c2-5.76,2.51-13.65,1.36-21.07a11.38,11.38,0,0,0,9.61,5.15c.23,0,.46,0,.7,0h.23a10.19,10.19,0,0,0,7.28-3.78c2.94-3.74,2.25-8.23,2-9.92l0-.15a119.94,119.94,0,0,0-2.66-12.37A68.2,68.2,0,0,0,603,30.71a102.24,102.24,0,0,0-6.57-9.81l-.07-.09-.36-.46c-2.38-3.06-4.85-6.22-8.18-8.22a97.1,97.1,0,0,0-10.89-5.81,4.35,4.35,0,0,0-.63-.25c-1.06-.37-10.57-3.59-16.22-4.28-.74-.09-1.47-.18-2.22-.29a80.27,80.27,0,0,0-11.3-.88ZM543,57.44h.59l-.61,0,0,0Z" fill="#fff"/><g id="Calque_1" data-name="Calque 1"><path d="M751,50.78c2-.92,3.51-1.47,4.79-2s2.77-.73,4.61-1.12a23.25,23.25,0,0,1,5-.54,24.17,24.17,0,0,1,5.53,1.08c1.3.39,2.39,1.85,3.14,3a3.31,3.31,0,0,1,1.1,3v1.49c-.18.54-.55.72-.93,1.27A4.53,4.53,0,0,1,773,58.39a11.5,11.5,0,0,1-1.48,1.12c-.74.37-1.47.55-2.22.92s-1.84.19-3,.56c-3.69.56-6.64.73-8.3,1.29a26.73,26.73,0,0,0-3.88,1.48,10.73,10.73,0,0,0-3,2,8.17,8.17,0,0,0-2,2.58,13.73,13.73,0,0,0-1.48,3,22.84,22.84,0,0,0-.55,3.87,11.88,11.88,0,0,0,1.46,6.09,10.34,10.34,0,0,0,4.81,4.43,18.71,18.71,0,0,0,8.3,2h3.51c1.1-.18,2.2-.56,4.24-.92.93-.75,2.2-1.47,3.69-2.59l2-2v4.61h7.9c-.74-3.32-1.1-3.7-.92-6.08,0-4.07-.37-12.93-.19-17.72,0-4.81-.19-3.49-.19-5.53a20.77,20.77,0,0,0-1.29-5.92c-.56-1.49-1.48-2.41-2.41-4.08a14,14,0,0,0-5.71-3.69,22,22,0,0,0-6.08-.92c-2.22,0-5.53.19-7.9.36a61.81,61.81,0,0,0-7.2,1.85A54.56,54.56,0,0,1,751,50.78ZM771.1,80.3c-.36.18-1.47,1.09-1.84,1.28-1.48.38-2.39.93-3.31,1.11a21.77,21.77,0,0,1-3.51.37,8,8,0,0,1-4.42-1.3c-1.29-.72-1.29-.37-2.22-1.67-.73-1.08-2-3-2-4.41a6,6,0,0,1,.18-3.14,6.46,6.46,0,0,1,1.06-2.21,16.69,16.69,0,0,1,2.57-2.4c1.12-.57,2-.74,3.88-1.47a15.73,15.73,0,0,1,4.25-.74c1.1-.18,3.31-.18,4-.54a6.31,6.31,0,0,0,2-.59,14,14,0,0,1,1.68-.73,19.75,19.75,0,0,0,1.84-1.47l-.19,8.89S775,75,773.7,77A14.08,14.08,0,0,1,771.1,80.3Z"/><path d="M901.69,50.23c1.84-.92,3.33-1.46,4.61-2,1.28-.37,3-.73,4.61-1.08a25.71,25.71,0,0,1,4.94-.57,23.18,23.18,0,0,1,5.53,1.1c1.47.39,2.41,1.85,3.32,3,.92.92.92,1.82,1.11,3.3a3.54,3.54,0,0,1-.2,1.48c-.18.57-.37.38-.74.93a5.22,5.22,0,0,1-1.29,1.48A8,8,0,0,1,922,58.93c-.56.35-1.3.55-2,.92-.93.37-1.84.18-3,.55-3.88.56-6.84.73-8.31,1.29-1.68.55-2.77.93-4.07,1.47a14.75,14.75,0,0,0-3,2,7.87,7.87,0,0,0-2,2.38,16.24,16.24,0,0,0-1.3,3.14,13.19,13.19,0,0,0-.73,3.88,14,14,0,0,0,1.48,6.09,11.12,11.12,0,0,0,4.79,4.42,20.54,20.54,0,0,0,8.5,2h3.3c1.31-.2,2.4-.55,4.24-.93.93-.74,2.41-1.48,3.69-2.56l2.29-2v4.61h7.9c-.73-3.3-1.09-3.69-1.09-6.09.18-4.06-.19-12.9-.19-17.69a46.54,46.54,0,0,0,0-5.54,28,28,0,0,0-1.3-5.92,16.24,16.24,0,0,0-2.56-4.07,11.92,11.92,0,0,0-5.73-3.71A19.9,19.9,0,0,0,917,42.14c-2.23,0-5.72.36-7.9.53-2.39.37-4.05.92-7.2,1.66C901.69,46.92,901.88,48.93,901.69,50.23ZM921.8,79.74c-.55.2-1.48,1.11-2,1.3-1.3.36-2.21.93-3.14,1.11a25.77,25.77,0,0,1-3.51.36,8.45,8.45,0,0,1-4.61-1.3c-1.11-.73-1.11-.36-2-1.66-.93-1.11-2.21-3-2.21-4.43a17.37,17.37,0,0,1,.19-3.14,6.85,6.85,0,0,1,1.28-2.18,17.1,17.1,0,0,1,2.6-2.43,32.43,32.43,0,0,1,3.85-1.46,15,15,0,0,1,4.25-.73c.93-.19,3.33-.19,4.07-.58.55-.18,1.29-.35,1.84-.54a13.21,13.21,0,0,1,1.83-.74c.37-.38.74-.57,1.68-1.46v8.88a15.42,15.42,0,0,1-1.48,5.73A13.64,13.64,0,0,1,921.8,79.74Z"/><path d="M789.54,86.76l.93-3.13.2-8.69L790.11,50c0-2.22-1.3-4.79-1.3-5.92a18,18,0,0,0,5.34-1,9.73,9.73,0,0,1,3.13-.36v5.72c.93-1.66,2.39-1.83,3.15-2.77.56-.92,1.3-.92,2.58-1.84a8.37,8.37,0,0,1,3.32-1.11,42.71,42.71,0,0,1,4.79-.36,10,10,0,0,1,3.31.55,9.09,9.09,0,0,1,3.14,1.28A7.86,7.86,0,0,1,820,45.91a10.13,10.13,0,0,1,2.23,2.48c.19.38,1.84-2,4.24-3.32a17.51,17.51,0,0,1,8.13-2.4c1.83,0,6.07.2,7.89.92s4.44,1.68,5.55,3,1.46,1.84,2.38,3c1.31,1.29,1.69,4.61,1.69,5.92,0,1.47.18,3.69.18,6.47v20.4c0,2,.55,2.23.93,4.45h-8.49c1.09-3.51.92-2.41.92-4.45l.18-18.61c0-2.59,0-4.06-.18-6.09a14.27,14.27,0,0,0-.92-4.61,16.92,16.92,0,0,0-2.75-3.5,7.52,7.52,0,0,0-3-1.31c-.93-.55-2.78-.55-4.05-.55a17.91,17.91,0,0,0-3.34.39,14.48,14.48,0,0,0-2.41,1.09,9.36,9.36,0,0,0-2.2,1.66,19.8,19.8,0,0,0-1.66,2.76,21.16,21.16,0,0,0-.55,4.26c0,1.84.18,4.24,0,6.8V82.69l1.29,4.07h-8.88c0-3.7.57-.38.57-4.25V57.26c-.19-1.49-.35-2-.57-3.15A9.68,9.68,0,0,0,815.56,51a10.27,10.27,0,0,0-3.51-2.8,7.87,7.87,0,0,0-3.68-.95,7.21,7.21,0,0,0-3.5.75c-1.12.55-2.2.73-3.13,1.83-1,.92-1.67,1.12-2.4,2.56-.57,1.48-1.12,1.11-1.29,3.53-.38,2.38-.57,11.06-.57,17,.19,3.51.19,6.63.19,9.58,0,1.84.93,2.58.93,4.25h-4.24C793.56,86.76,791.21,86.76,789.54,86.76Z"/><path d="M894.32,78.82c0,.56-.2,1.48-.37,2.76s-.56,2.41-.75,3.71a33.57,33.57,0,0,1-5.7,1.28c-1.67.19-6.45.36-7.89.36a32,32,0,0,1-8.48-1.29,21,21,0,0,1-7.47-4.6c-1.84-1.85-4.07-3.88-4.94-6.82a29.28,29.28,0,0,1-1.63-8.89c-.2-4.43.55-5.92,1.63-9.77,1.31-3.88,4.45-6.82,7.21-9,3-2.23,9.59-4.06,14.57-4.06a42.72,42.72,0,0,1,11.79,1.66c.18,2.59.37,4,.57,5.71-2.59-.94-5-2-6.47-2.41-1.65-.18-3.69-.54-4.94-.54a28.66,28.66,0,0,0-9,2A12.45,12.45,0,0,0,867.77,53a20.12,20.12,0,0,0-2.58,6.46,12.31,12.31,0,0,0-.55,5.15,30.27,30.27,0,0,0,1.67,8.89,13.34,13.34,0,0,0,5.15,6.27,14.78,14.78,0,0,0,7.9,2.77A32.12,32.12,0,0,0,894.32,78.82Z"/><path d="M939.13,85.09l-.73-3c0-.38-.74-2.21-1.11-4.25,4.94,2.78,10.15,4.8,14,4.8a18.94,18.94,0,0,0,5.16-1.05,7.75,7.75,0,0,0,3.32-2.56,11.33,11.33,0,0,0,1.49-3,4,4,0,0,0,.17-2c-.17-.57-.37-2.22-.92-2.78-.37-.56-1.85-1.83-2.57-2.58A30.27,30.27,0,0,0,952.41,66c-2.58-1.09-6.09-2.2-7.37-3.31-1.31-.93-3.51-2.21-4.43-3.32a16.09,16.09,0,0,1-2-3.41c-.36-1.11,0-2.77-.19-4.08,0-1.84,1.1-3.7,2.21-5.34,1.09-1.84,3-2.77,5.16-3.7a25.18,25.18,0,0,1,7.75-1.28c3.3,0,6.45.76,10.52,1.48.18,2.22-.38,3.89-.2,5.73a17.23,17.23,0,0,0-9.22-3,20.08,20.08,0,0,0-4.81.74,9.86,9.86,0,0,0-3.69,2.76,5.1,5.1,0,0,0-.92,2.77,6.94,6.94,0,0,0,.55,2.58,7.93,7.93,0,0,0,2.83,2.78,10.85,10.85,0,0,0,1.84.73c1.31.19,4.25,1.84,7.19,3.14a28.72,28.72,0,0,1,6.77,4.26A10.65,10.65,0,0,1,967.13,70a7.61,7.61,0,0,1,.73,3.31c0,1.66-.37,1.84-.37,3,.19,2-.36,2.78-1.47,4.44a11.26,11.26,0,0,1-5.53,4.42,20.84,20.84,0,0,1-7.74,1.67c-1.3,0-4.07.17-5.71,0s-3.15-.75-4.44-1A16.43,16.43,0,0,1,939.13,85.09Z"/><path d="M993,81.39a20.06,20.06,0,0,0-.93,4.61,11.39,11.39,0,0,1-3.69.75,17.19,17.19,0,0,1-3-.19,12.83,12.83,0,0,1-5.71-.93,6.76,6.76,0,0,1-3.32-3.14c-.93-1.46-1.48-5.16-1.48-7.73V73.07c-.11-2.2-.11-4.41,0-6.61l-.18-19.2h-5.36V43.39l5.36-.19c.18-1.08,0-4.79,0-7.56a6,6,0,0,0-1.3-3.32c2.58-.56,6.28-1.67,7.9-2,0,4.24.37,10.51.37,12.9l11.07.18a15.45,15.45,0,0,0,.2,4.24l-3.14-.36H981.7l-.17,24.15v2c.17,2.22.35,4.93.92,6.08.36,1.12,1.1,1.49,2,2a7.34,7.34,0,0,0,2.77.57h2.41A12.38,12.38,0,0,0,993,81.39Z"/><path d="M712.6,58.15h23.06a7.93,7.93,0,0,0-.18-2.38,11.2,11.2,0,0,0-1.11-3,8.11,8.11,0,0,0-2.4-2.58,9.63,9.63,0,0,0-3.12-2,16.3,16.3,0,0,0-4.45-.55,10.11,10.11,0,0,0-4.07,1,9,9,0,0,0-3.49,2,9.11,9.11,0,0,0-2.58,2.77,8.87,8.87,0,0,0-1.48,3.3l-.19.37S712.82,57.05,712.6,58.15ZM741.55,79c-.18,1.66-.74,3.68-.92,6.27-2.57.72-6.64,2.2-8.48,2.57-1.83.18-3.69.18-5.53.18a30.31,30.31,0,0,1-9.42-1.66A18.56,18.56,0,0,1,710,81.45a21.2,21.2,0,0,1-4.81-7.36,35.11,35.11,0,0,1-1.29-8.89c-.18-4.44.56-6.09,1.85-10A20.67,20.67,0,0,1,713,46.56c3-2.22,6.64-3.14,11.43-3.14a24.55,24.55,0,0,1,7.38.92,13.72,13.72,0,0,1,5.54,3.14A20.12,20.12,0,0,1,741,53a15.45,15.45,0,0,1,1.48,5.16,18.89,18.89,0,0,1,.35,4.44l-31.52.18v3.16a23.17,23.17,0,0,0,1.83,8.88,12.37,12.37,0,0,0,5.35,5.68,18.34,18.34,0,0,0,8.31,2.57c3.54,0,9.59-1.44,14.75-4Z"/><path d="M677.06,87.86c0-1,.75-2,.75-2.77.2-14,0-24.68-.37-33.57l-.18-3.88L676,44.51c1.29-.2,3.13-.36,4.06-.55a28.57,28.57,0,0,1,4.42-.56v8a8.41,8.41,0,0,1,1.83-2.59A13.56,13.56,0,0,1,689.06,46a12.79,12.79,0,0,1,3.14-1.67,11.17,11.17,0,0,1,3.5-.91,35.61,35.61,0,0,1,4.62,0,23.45,23.45,0,0,1,4.61,1.1c.18,1.1-1.84,5.92-1.84,5.92a13.92,13.92,0,0,1-3.7-.91,16.22,16.22,0,0,0-4-.38,13.19,13.19,0,0,0-4.61.92,10.74,10.74,0,0,0-3.31,2.39,12.08,12.08,0,0,0-2,4.07c-.56,1.31-.37.19-.56,2.22-.18,2.21,0,22,.19,26.57l.73,2.38h-4.42C680.56,87.66,678.52,87.86,677.06,87.86Z"/><path d="M622.84,83.06c3.47.19,6.45.19,9.39.19,2.41,0,5.36-.19,7.9-.37a29.82,29.82,0,0,0,6.64-2,15.65,15.65,0,0,0,5.92-3.7,25.55,25.55,0,0,0,4.8-6.28,26,26,0,0,0,2.39-7.9,47.19,47.19,0,0,0,.75-8.88,31.2,31.2,0,0,0-2-8.68c-.92-3-2.57-6.45-4.94-8.48-2.57-2-4.42-3.68-7.19-4.41a38,38,0,0,0-10.69-1.87c-2.77,0-6.29.2-8,.38a47.34,47.34,0,0,1-5.71.38ZM612,88l1.48-4.23V31.43a29.6,29.6,0,0,0-1.67-5.92c3.69.19,9.78-.19,12.35-.19,1.48,0,3.88.19,7.2.19s6.28,0,7.74.19a38.39,38.39,0,0,1,9.23,1.46c2.39.56,7,3.14,9.21,4.61a24.37,24.37,0,0,1,5.93,5.53,32.91,32.91,0,0,1,3.67,5.93,33.9,33.9,0,0,1,2.41,11.64,35.05,35.05,0,0,1-1.67,14c-1.65,4.81-4.94,8.3-8.11,11.45A22,22,0,0,1,649,86.57a61.36,61.36,0,0,1-13.82,1.84h-12Z"/><path d="M549.43,67.69c0-3.5-1.67-3.16-2.8-3.32s-4.12.43-6.73-.18c-3.15-.61-4.82-4.94-4.3-7.09,1.58-6,5.52-6.83,8.22-6.65,2.12.09,6,.26,10.87,4.47,2.18,2,3.5,7,3.59,9.87.09,3.58-.09,7.62-2.19,9.87-3.42,3.69-12.43,6.84-17.51,6.67-19.86-2.11-19.16-20.83-19.16-20.83s-1.58-8.06,5.16-16.64a31.86,31.86,0,0,1,2.1-3.06,13.2,13.2,0,0,1,2.1-1.62,24.41,24.41,0,0,1,2.54-1.57,33,33,0,0,1,6.82-3.24,30.16,30.16,0,0,1,9.58-1.25c8.23.26,17.16,4.73,21.63,11.65.7,1,1.22,1.66,1.83,2.53a28.48,28.48,0,0,1,2.19,4.64,39.21,39.21,0,0,1,1.84,6.3,44.75,44.75,0,0,1,1.31,7.35c.09,1,.17,2,.27,3.16.09,3.58.52,4.46-.27,7.27a28.21,28.21,0,0,1-6.65,11.84c-4.37,4.3-8.4,5.61-10.77,6.84a37.76,37.76,0,0,1-6.44,2.4c-3.06,1.14-4.73,1.32-10.16,1.32a72.7,72.7,0,0,1-11-.69c-9.54-2.63-13-4.39-17.07-7.71-10.67-8.4-12.83-24.85-12.83-24.85A57.11,57.11,0,0,1,502.31,48c1.05-4.64,5.7-13.13,8.41-16.55a50.78,50.78,0,0,1,10.66-9,52.88,52.88,0,0,1,12.84-6.21c2.54-.85,4.47-1.22,10.24-1.49,6.65-.25,16.46,1.49,22.23,3.24a35.06,35.06,0,0,1,14.36,8.89,132.14,132.14,0,0,1,10.32,14.45c1.15,2,4.21,12.17,4.47,13.57s.79,5.92,5.34,5.68c4.2-.35,3-5.16,2.88-6s-1.66-8.88-2.36-11a64.41,64.41,0,0,0-4.64-9.1,94.24,94.24,0,0,0-6.2-9.28c-2.19-2.8-4.3-5.61-6.66-7a91.48,91.48,0,0,0-10.15-5.42s-9.72-3.33-14.81-3.95c-4.38-.52-9.1-1.48-16.9-1a42.85,42.85,0,0,0-15,3.79c-2.81,1.23-9.28,4-14.1,8s-3.33,2-5.92,4.94a60.73,60.73,0,0,0-5.08,6.13,66.23,66.23,0,0,0-6.91,14.88,78.77,78.77,0,0,0-2,8,27.32,27.32,0,0,0-.16,7c.43,4.29.25,4.37.25,4.37s2,8.32,3.07,11.65,2.63,8,9.36,15.58a37.37,37.37,0,0,0,15.41,10.41,64.12,64.12,0,0,0,20.84,3.86c12.16.26,15.31-2.45,17.5-3.33a53.3,53.3,0,0,0,15.67-9.72,31.27,31.27,0,0,0,8-12.14c1.66-4.73,2.19-12.26.7-19.61-1.06-4.94-1.84-9.29-2.81-12.35a39.7,39.7,0,0,0-5.43-10.58c-1.39-2.2-5.77-5.52-8.49-7.18A27.92,27.92,0,0,0,563,29a38.55,38.55,0,0,0-6.74-2,55.36,55.36,0,0,0-8.67-1.41c-2.45-.16-4.54-.08-5.43-.08-1.23,0-5.42.71-11,3.68a39.16,39.16,0,0,0-10.24,7.34,41.76,41.76,0,0,0-3.07,3.95,31.51,31.51,0,0,0-5.25,24.08S514,81.74,529.07,86.65A33.55,33.55,0,0,0,543,88c6.56-.88,11.37-3.59,14.61-5.25a15.61,15.61,0,0,0,7.1-7.62,18,18,0,0,0,1.48-8.23,42.08,42.08,0,0,0-.44-5.25c-.87-4.94-2.62-9.8-6.91-13.48l-1.25-.83c-.79-.53-1.48-.88-2.11-1.23-3.66-1.92-7.26-2.63-12.25-2.88a16.9,16.9,0,0,0-6,1.22,15.17,15.17,0,0,0-8.89,15.05c.26,6.48,6.3,9.87,7.35,10.86C535.69,70.41,549.08,73.81,549.43,67.69Z" fill="#3e649f"/></g></g></svg>