<svg id="Layer_1" data-name="Layer 1" xmlns="http://www.w3.org/2000/svg" viewBox="0 0 105 105"><title>icon_empty</title><path d="M78.42473,69.02773a16.62041,16.62041,0,0,0,2.86133-2.70135q8.95018-9.53532,17.87011-19.1c1.29-1.379,1.12891-2.21344-.67578-2.5946-2.84961-.60218-5.71875-1.1352-8.60254-1.544-2.02441-.28711-4.12011-.13422-6.124-.5011-5.15039-.94269-10.251-2.157-15.40723-3.05682a3.18882,3.18882,0,0,1-2.79687-2.03351c-.27637-.68115-.51172-1.38422-.84766-2.03565C62.88078,31.92208,61.0634,28.38112,59.19035,24.87c-2.52343-4.72834-5.05371-9.4538-7.67676-14.12665-.6416-1.14209-1.76074-1.50275-2.6748-.18628A45.37885,45.37885,0,0,0,46.121,14.96023c-1.31934,2.45983-2.49219,4.9978-3.794,7.4674-1.97461,3.74646-4.30762,7.33753-5.92578,11.22846-1.48047,3.55884-3.32715,5.93445-7.43945,6.44409-5.4502.67566-10.8418,1.81348-16.26465,2.72266-3.71387.6228-7.4502,1.12207-11.14942,1.82135C-.15144,44.96541-.47371,46.214.69133,47.55758Q2.73039,49.91158,4.915,52.14c5.14942,5.26972,10.28613,10.55414,15.51367,15.74628,1.93946,1.92639,3.167,3.64313,2.25879,6.75055-.94238,3.22815-.78027,6.76361-1.30859,10.13214-.9082,5.78937-2.01856,11.54688-2.93359,17.33533a3.63849,3.63849,0,0,0,.61035,2.66339c.31738.3678,1.69043.15295,2.3955-.19379,7.87012-3.87048,15.7002-7.82086,23.54493-11.742,1.68457-.84216,3.38476-1.65326,5.17382-2.52509.6709.39258,1.21.75092,1.78516,1.03723q13.51758,6.73161,27.05859,13.41236a2.37429,2.37429,0,0,0,2.05274.01861,2.52439,2.52439,0,0,0,.68457-2.03314c-.65918-4.368-1.52051-8.70563-2.17285-13.07458-.84375-5.65869-1.55957-11.33667-2.31738-17.00812C77.07707,71.28176,76.9384,69.99135,78.42473,69.02773Z" fill="#fff"/></svg>