<svg xmlns="http://www.w3.org/2000/svg" width="1000" height="114" viewBox="0 0 1000 114"><g id="Layer_3" data-name="Layer 3"><rect x="440.79" y="19.97" width="69.26" height="16.76" fill="#fff"/><rect x="452.51" y="53.88" width="73.72" height="32.91" fill="#fff"/><path d="M660.84,53.56V40.13h-5.61V27.61h-5.74V11.12H622.88V27.61h-6V40.13h-28.3v-10h2.21V12.48H571.62v8.85h-5.74v4.45h-3.14v4.51h-4.82v6.6h-4.21v3.24H547V57h31.91v9.62h42.57V57h27.39v5.47h14.74V53.56ZM566.4,38.46h1.16V32h3V28.35h1v1.83h2.48v10h-7.7Z" fill="#fff"/></g><g id="Layer_2" data-name="Layer 2"><path d="M380.25,8.11V22.65H363.63v42.7H347.41V22.65h-16l.13-14.54h48.68m0-7H331.57a7,7,0,0,0-7,6.94l-.13,14.53a7,7,0,0,0,7,7.07h9v35.7a7,7,0,0,0,7,7h16.22a7,7,0,0,0,7-7V29.65h9.62a7,7,0,0,0,7-7V8.11a7,7,0,0,0-7-7Z" fill="#fff"/><path d="M400.76,8.11V65.48H384.53l.26-57.37h16m0-7h-16a7,7,0,0,0-7,7l-.26,57.37a7,7,0,0,0,7,7h16.23a7,7,0,0,0,7-7V8.11a7,7,0,0,0-7-7Z" fill="#fff"/><path d="M420.1,29.14V40.43H405.69V29.14H420.1m0-7H405.69a7,7,0,0,0-7,7V40.43a7,7,0,0,0,7,7H420.1a7,7,0,0,0,7-7V29.14a7,7,0,0,0-7-7Z" fill="#fff"/><path d="M445.88,7.75c6.1,0,11,1,14.67,2.93A21.18,21.18,0,0,1,469.38,20q3.3,6.39,3.3,16.86,0,15.4-6.94,22.57t-19.23,7.16A33.64,33.64,0,0,1,435,65a17.79,17.79,0,0,1-7-4.6,20.58,20.58,0,0,1-4.28-7.57l16.83-2a8.12,8.12,0,0,0,2.24,4.66,5.74,5.74,0,0,0,3.86,1.36A7.07,7.07,0,0,0,453.07,53q1.67-2.84,2.49-12a20.79,20.79,0,0,1-6.23,4.27,18.7,18.7,0,0,1-7.39,1.36,19.16,19.16,0,0,1-13.82-5.43,18.29,18.29,0,0,1-5.63-13.74,19.29,19.29,0,0,1,2.87-10.32,18.29,18.29,0,0,1,7.89-7,29.5,29.5,0,0,1,12.63-2.38m.75,29.14a7.93,7.93,0,0,0,5.94-2.44q2.37-2.45,2.37-7a10.09,10.09,0,0,0-2.49-7.24,8.08,8.08,0,0,0-6.07-2.61A7.35,7.35,0,0,0,440.79,20q-2.22,2.37-2.22,7.1t2.31,7.3a7.46,7.46,0,0,0,5.75,2.52M445.88.75a36.42,36.42,0,0,0-15.63,3.06,25.19,25.19,0,0,0-10.85,9.7,26.31,26.31,0,0,0-3.91,14,25.13,25.13,0,0,0,7.39,18.4A7,7,0,0,0,417.13,55a27.49,27.49,0,0,0,5.78,10.12,24.78,24.78,0,0,0,9.68,6.41c3.62,1.36,8.17,2,13.92,2,10.12,0,18.29-3.13,24.26-9.29s8.91-15.33,8.91-27.44c0-8.19-1.34-14.76-4.09-20.07A28,28,0,0,0,463.83,4.49C459.07,2,453.2.75,445.88.75Zm.75,29.14c-.36,0-.4,0-.58-.24,0,0-.48-.54-.48-2.58a5,5,0,0,1,.36-2.34.58.58,0,0,1,.1-.09,1.39,1.39,0,0,1,.35,0,1.14,1.14,0,0,1,1,.44,4.07,4.07,0,0,1,.56,2.41,3.68,3.68,0,0,1-.4,2.12c-.17.18-.3.31-.91.31Z" fill="#fff"/><path d="M498.38,7.75q9.14,0,14.66,2.93A21.07,21.07,0,0,1,521.87,20q3.3,6.39,3.3,16.86,0,15.4-6.93,22.57T499,66.58A33.64,33.64,0,0,1,487.53,65a17.75,17.75,0,0,1-7-4.6,20.3,20.3,0,0,1-4.28-7.57l16.82-2a8.12,8.12,0,0,0,2.24,4.66,5.78,5.78,0,0,0,3.87,1.36A7.06,7.06,0,0,0,505.56,53q1.67-2.84,2.5-12a20.79,20.79,0,0,1-6.23,4.27,18.75,18.75,0,0,1-7.4,1.36,19.12,19.12,0,0,1-13.81-5.43A18.25,18.25,0,0,1,475,27.5a19.2,19.2,0,0,1,2.87-10.32,18.29,18.29,0,0,1,7.89-7,29.43,29.43,0,0,1,12.63-2.38m.75,29.14a7.93,7.93,0,0,0,5.94-2.44q2.35-2.45,2.36-7a10.09,10.09,0,0,0-2.49-7.24,8.06,8.06,0,0,0-6.06-2.61A7.32,7.32,0,0,0,493.29,20q-2.22,2.37-2.22,7.1c0,3.19.76,5.62,2.3,7.3a7.49,7.49,0,0,0,5.76,2.52M498.38.75a36.42,36.42,0,0,0-15.63,3.06,25.27,25.27,0,0,0-10.86,9.7,26.3,26.3,0,0,0-3.9,14,25.09,25.09,0,0,0,7.39,18.4A7,7,0,0,0,469.63,55a27.47,27.47,0,0,0,5.77,10.12,24.86,24.86,0,0,0,9.68,6.41c3.62,1.36,8.18,2,13.92,2,10.13,0,18.29-3.13,24.26-9.29s8.91-15.33,8.91-27.44c0-8.19-1.33-14.76-4.08-20.07A28.1,28.1,0,0,0,516.32,4.49C511.57,2,505.7.75,498.38.75Zm.75,29.14c-.37,0-.4,0-.59-.24,0,0-.47-.54-.47-2.58a5.08,5.08,0,0,1,.35-2.34l.11-.09a1.29,1.29,0,0,1,.35,0,1.12,1.12,0,0,1,1,.44,4.07,4.07,0,0,1,.56,2.41,3.82,3.82,0,0,1-.39,2.12c-.18.18-.31.31-.91.31Z" fill="#fff"/><path d="M554,8,528,67h-7L546,8H554m0-7H546a7,7,0,0,0-6.45,4.26l-25,59.07A7,7,0,0,0,521,74h7a7,7,0,0,0,6.4-4.18l26-59.07A7,7,0,0,0,554,1Zm0,14Z" fill="#fff"/><path d="M575,68V57.37H544.16V41.68L576.07,6.25h17.56v35h7.64V57.37h-7.64V68Zm3.89-14.53h0V64.11h10.86V53.48h7.64V45.11h-7.64v-35H577.8l-29.74,33V53.48m30.82-8.37H556.24l22.64-24.88m-13.83,21H575V30.29l-9.94,10.93Z" fill="none" stroke="#fff" stroke-linecap="round" stroke-linejoin="round" stroke-width="7"/><path d="M648.05,68l-3-9.39H626.48l-3,9.39H600L624.45,7.22h23.16L672.06,68Zm-.21-13.29,3,9.39h15.4L645,11.12h-17.9l-21.32,53h14.9l3-9.39h22.79v2l-1.85.6,1.85-.6v-2Zm-2.63-8.41H626.46l9.33-28.66m-4,24.77h8l-4-12.24-4,12.24Z" fill="none" stroke="#fff" stroke-linecap="round" stroke-linejoin="round" stroke-width="7"/><path d="M360,80.23a12.18,12.18,0,0,1,6.4,1.52,6.87,6.87,0,0,1,3.19,4.33l-4,.48a5,5,0,0,0-2-2.81,6.2,6.2,0,0,0-3.48-.94,7.25,7.25,0,0,0-5,1.7q-1.92,1.69-1.92,5.37t1.86,5.43A6.93,6.93,0,0,0,359.93,97a6.73,6.73,0,0,0,4-1.14,5.18,5.18,0,0,0,2-3.48l4,.4a7.62,7.62,0,0,1-3.36,5A11.7,11.7,0,0,1,360,99.58,12,12,0,0,1,352,97.09a8.74,8.74,0,0,1-3-7.12,10.31,10.31,0,0,1,1.29-5.24,7.94,7.94,0,0,1,3.92-3.38A14.47,14.47,0,0,1,360,80.23m0-7a21.69,21.69,0,0,0-8.49,1.68,14.86,14.86,0,0,0-7.25,6.33A17.32,17.32,0,0,0,342.05,90c0,6.55,3,10.42,5.53,12.51a18.84,18.84,0,0,0,12.39,4.1,18.62,18.62,0,0,0,10.53-3,14.63,14.63,0,0,0,6.33-9.4,7,7,0,0,0-.91-5.11,7.07,7.07,0,0,0,.46-4.69,13.83,13.83,0,0,0-6.32-8.6A19,19,0,0,0,360,73.23Z" fill="#fff"/><path d="M383.21,80.23a12.61,12.61,0,0,1,8.1,2.5,8.36,8.36,0,0,1,3.14,6.91,9.86,9.86,0,0,1-1.39,5.62A9,9,0,0,1,389,98.44a14.57,14.57,0,0,1-5.8,1.14,12.6,12.6,0,0,1-8.16-2.5,8.66,8.66,0,0,1-3.11-7.18c0-3.43,1.24-6,3.71-7.61a13.32,13.32,0,0,1,7.56-2.06m0,16.77a7.35,7.35,0,0,0,5-1.78,6.87,6.87,0,0,0,2-5.42,6.56,6.56,0,0,0-2-5.21,8.12,8.12,0,0,0-10.1,0,6.68,6.68,0,0,0-2,5.31,6.73,6.73,0,0,0,2,5.33A7.39,7.39,0,0,0,383.21,97m0-23.77a20.27,20.27,0,0,0-11.43,3.22,15.56,15.56,0,0,0-6.84,13.45,15.52,15.52,0,0,0,5.73,12.65,19.54,19.54,0,0,0,12.54,4,21.52,21.52,0,0,0,8.54-1.7,15.91,15.91,0,0,0,7.1-5.68,16.68,16.68,0,0,0,2.6-9.56,15.26,15.26,0,0,0-5.79-12.39,19.43,19.43,0,0,0-12.45-4Zm-.08,16.6h.14a1,1,0,0,0,0,.17h-.13v-.17Z" fill="#fff"/><path d="M424.36,80.23a8.74,8.74,0,0,1,5.5,1.52,5.65,5.65,0,0,1,1.92,4.7V99.16h-4V87.5a6.6,6.6,0,0,0-.4-2.71,2.89,2.89,0,0,0-1.43-1.34,5.67,5.67,0,0,0-2.45-.5,6.6,6.6,0,0,0-4.2,1.3,4.91,4.91,0,0,0-1.68,4.15V99.16H413.5v-12A3.66,3.66,0,0,0,409.25,83a7.33,7.33,0,0,0-3.18.69,4.39,4.39,0,0,0-2.12,2,9.06,9.06,0,0,0-.65,3.87v9.61h-4.08V80.65h3.65v2.59a8,8,0,0,1,3-2.18,10.33,10.33,0,0,1,4.27-.83,9.79,9.79,0,0,1,4.38.85,5,5,0,0,1,2.41,2.39,9.41,9.41,0,0,1,7.42-3.24m0-7a17.16,17.16,0,0,0-7,1.43,17,17,0,0,0-7.18-1.43,18,18,0,0,0-5.21.73,7.1,7.1,0,0,0-2.07-.31h-3.65a7,7,0,0,0-7,7V99.16a7,7,0,0,0,7,7h4.08a7,7,0,0,0,5.1-2.21,7,7,0,0,0,5.1,2.21h4.07a7,7,0,0,0,5.08-2.19,7,7,0,0,0,5.08,2.19h4a7,7,0,0,0,7-7V86.45a12.38,12.38,0,0,0-4.57-10.18,15.44,15.44,0,0,0-9.85-3Z" fill="#fff"/><path d="M448.5,80.23a11.68,11.68,0,0,1,5.43,1.22,8.25,8.25,0,0,1,3.55,3.44,10.1,10.1,0,0,1,1.2,4.87,9.92,9.92,0,0,1-1.33,5.12,8.62,8.62,0,0,1-3.84,3.48,12.08,12.08,0,0,1-5.31,1.22,9.61,9.61,0,0,1-3.65-.67,8.23,8.23,0,0,1-2.66-1.67v9h-4.07V80.65h3.71v2.4a8.66,8.66,0,0,1,3-2.12,10.21,10.21,0,0,1,4-.7M447.93,97a6.65,6.65,0,0,0,4.65-1.77q1.94-1.77,1.93-5.48a6.93,6.93,0,0,0-1.88-5.3,6.38,6.38,0,0,0-4.52-1.76,6.52,6.52,0,0,0-4.6,1.87,7.08,7.08,0,0,0-2,5.45q0,3.57,1.87,5.28A6.53,6.53,0,0,0,447.93,97m.57-23.77a18.27,18.27,0,0,0-5.09.67,7.29,7.29,0,0,0-1.88-.25h-3.71a7,7,0,0,0-7,7v25.6a7,7,0,0,0,7,7h4.07a7,7,0,0,0,7-6.69,19,19,0,0,0,7.66-1.89,15.52,15.52,0,0,0,6.86-6.27,17.49,17.49,0,0,0,.24-16.83,15.16,15.16,0,0,0-6.49-6.34,18.62,18.62,0,0,0-8.65-2Z" fill="#fff"/><path d="M483,80.65V99.16h-3.64V96.44a9.71,9.71,0,0,1-7.62,3.14,12.19,12.19,0,0,1-4-.63A6.74,6.74,0,0,1,465,97.37,5.33,5.33,0,0,1,463.74,95a12.72,12.72,0,0,1-.24-2.92V80.65h4.07V90.91a13.85,13.85,0,0,0,.25,3.31,3.31,3.31,0,0,0,1.63,2,6.12,6.12,0,0,0,3.07.7,8.32,8.32,0,0,0,3.44-.72,4.56,4.56,0,0,0,2.27-2,7.78,7.78,0,0,0,.67-3.62V80.65H483m0-7H478.9a7,7,0,0,0-5.67,2.89,7,7,0,0,0-5.66-2.89H463.5a7,7,0,0,0-7,7V92.12a18.06,18.06,0,0,0,.49,4.75,12.12,12.12,0,0,0,2.91,5.3,13.55,13.55,0,0,0,5.58,3.41,19.41,19.41,0,0,0,6.23,1,18.75,18.75,0,0,0,5.43-.77,6.93,6.93,0,0,0,2.19.35H483a7,7,0,0,0,7-7V80.65a7,7,0,0,0-7-7Z" fill="#fff"/><path d="M494.15,74.18v6.47h4.09v2.44h-4.09V93.91a4.4,4.4,0,0,0,.21,1.73,1.54,1.54,0,0,0,.71.61,3.38,3.38,0,0,0,1.39.22,17.16,17.16,0,0,0,1.78-.12l.59,2.77a18.88,18.88,0,0,1-3.07.28,8.73,8.73,0,0,1-3.44-.54,3.46,3.46,0,0,1-1.72-1.42,8.83,8.83,0,0,1-.5-3.7V83.09h-3V80.65h3V76.06l4-1.88m0-7a7.11,7.11,0,0,0-2.95.65l-4.05,1.88a7,7,0,0,0-3.94,5.13,7,7,0,0,0-3.1,5.81v2.44a7,7,0,0,0,3,5.73v4.92c0,3.27.42,5.41,1.41,7.15a10.34,10.34,0,0,0,5,4.37,15.24,15.24,0,0,0,6.27,1.14A25.86,25.86,0,0,0,500,106a7,7,0,0,0,5.73-8.36l-.59-2.77A7,7,0,0,0,501.15,90v-.52a7,7,0,0,0,4.09-6.37V80.65a7,7,0,0,0-4.09-6.37v-.1a7,7,0,0,0-7-7Z" fill="#fff"/><path d="M512.09,80.23A11.9,11.9,0,0,1,520,82.76,8.69,8.69,0,0,1,523,89.87c0,.18,0,.46,0,.83H505.08a6.28,6.28,0,0,0,2.24,4.68,7.74,7.74,0,0,0,5,1.62,7.6,7.6,0,0,0,3.82-.91,6.21,6.21,0,0,0,2.51-2.89l4.21.4A8.06,8.06,0,0,1,519.19,98a13.54,13.54,0,0,1-6.87,1.57c-3.52,0-6.3-.84-8.36-2.51a8.5,8.5,0,0,1-3.09-7A8.89,8.89,0,0,1,504,82.81a12.29,12.29,0,0,1,8.1-2.58m-6.79,7.89h13.42a5.47,5.47,0,0,0-1.54-3.5,7.1,7.1,0,0,0-5-1.81,7.6,7.6,0,0,0-4.72,1.44,5.21,5.21,0,0,0-2.12,3.87m6.79-14.89a19.19,19.19,0,0,0-12.56,4.18,15.76,15.76,0,0,0-5.66,12.65,15.42,15.42,0,0,0,5.68,12.45c3.33,2.7,7.62,4.07,12.77,4.07a20.43,20.43,0,0,0,10.4-2.52,15.16,15.16,0,0,0,6.77-8.15,7,7,0,0,0,.29-3.49A6.76,6.76,0,0,0,530,91c0-.5,0-.87,0-1.12a15.59,15.59,0,0,0-5.59-12.51,18.82,18.82,0,0,0-12.34-4.13Z" fill="#fff"/><path d="M536.82,80.23a9.75,9.75,0,0,1,4.18,1l-1.4,2.91a7.22,7.22,0,0,0-3-.68,4.65,4.65,0,0,0-2.39.62,3.44,3.44,0,0,0-1.52,1.72,9.66,9.66,0,0,0-.68,3.66v9.69H528V80.65h3.66v2.8a8.34,8.34,0,0,1,2.59-2.59,5.54,5.54,0,0,1,2.62-.63m0-7a12.81,12.81,0,0,0-3.78.56,7.46,7.46,0,0,0-1.43-.14H528a7,7,0,0,0-7,7V99.16a7,7,0,0,0,7,7H532a7,7,0,0,0,7-7v-8l.58,0a7,7,0,0,0,6.31-4l1.4-2.91a7,7,0,0,0-3.3-9.36,16.7,16.7,0,0,0-7.19-1.69Z" fill="#fff"/><polygon points="331.57 8.11 380.25 8.11 380.25 22.65 363.63 22.65 363.63 65.35 347.41 65.35 347.41 22.65 331.44 22.65 331.57 8.11" fill="#919191"/><polygon points="384.79 8.11 400.76 8.11 400.76 65.48 384.53 65.48 384.79 8.11" fill="#919191"/><rect x="405.69" y="29.14" width="14.41" height="11.29" fill="#919191"/><path d="M423.78,52.84l16.83-2a8.12,8.12,0,0,0,2.24,4.66,5.74,5.74,0,0,0,3.86,1.36A7.07,7.07,0,0,0,453.07,53q1.67-2.84,2.49-12a20.79,20.79,0,0,1-6.23,4.27,18.7,18.7,0,0,1-7.39,1.36,19.16,19.16,0,0,1-13.82-5.43,18.29,18.29,0,0,1-5.63-13.74,19.29,19.29,0,0,1,2.87-10.32,18.29,18.29,0,0,1,7.89-7,29.5,29.5,0,0,1,12.63-2.38c6.1,0,11,1,14.67,2.93A21.18,21.18,0,0,1,469.38,20q3.3,6.39,3.3,16.86,0,15.4-6.94,22.57t-19.23,7.16A33.64,33.64,0,0,1,435,65a17.79,17.79,0,0,1-7-4.6A20.58,20.58,0,0,1,423.78,52.84Zm31.16-25.38a10.09,10.09,0,0,0-2.49-7.24,8.08,8.08,0,0,0-6.07-2.61A7.35,7.35,0,0,0,440.79,20q-2.22,2.37-2.22,7.1t2.31,7.3a7.46,7.46,0,0,0,5.75,2.52,7.93,7.93,0,0,0,5.94-2.44Q454.94,32,454.94,27.46Z" fill="#919191"/><path d="M476.28,52.84l16.82-2a8.12,8.12,0,0,0,2.24,4.66,5.78,5.78,0,0,0,3.87,1.36A7.06,7.06,0,0,0,505.56,53q1.67-2.84,2.5-12a20.79,20.79,0,0,1-6.23,4.27,18.75,18.75,0,0,1-7.4,1.36,19.12,19.12,0,0,1-13.81-5.43A18.25,18.25,0,0,1,475,27.5a19.2,19.2,0,0,1,2.87-10.32,18.29,18.29,0,0,1,7.89-7,29.43,29.43,0,0,1,12.63-2.38q9.14,0,14.66,2.93A21.07,21.07,0,0,1,521.87,20q3.3,6.39,3.3,16.86,0,15.4-6.93,22.57T499,66.58A33.64,33.64,0,0,1,487.53,65a17.75,17.75,0,0,1-7-4.6A20.3,20.3,0,0,1,476.28,52.84Zm31.15-25.38a10.09,10.09,0,0,0-2.49-7.24,8.06,8.06,0,0,0-6.06-2.61A7.32,7.32,0,0,0,493.29,20q-2.22,2.37-2.22,7.1c0,3.19.76,5.62,2.3,7.3a7.49,7.49,0,0,0,5.76,2.52,7.93,7.93,0,0,0,5.94-2.44Q507.42,32,507.43,27.46Z" fill="#919191"/><polygon points="546.01 7.98 553.95 7.98 527.99 67.04 520.96 67.04 546.01 7.98" fill="#919191"/><path d="M575,68V57.37H544.16V41.68L576.07,6.25h17.56v35h7.64V57.37h-7.64V68Zm3.89-14.53h0V64.11h10.86V53.48h7.64V45.11h-7.64v-35H577.8l-29.74,33V53.48m30.82-8.37H556.24l22.64-24.88m-13.83,21H575V30.29l-9.94,10.93Z" fill="#919191"/><path d="M648.05,68l-3-9.39H626.48l-3,9.39H600L624.45,7.22h23.16L672.06,68Zm-.21-13.29,3,9.39h15.4L645,11.12h-17.9l-21.32,53h14.9l3-9.39h22.79v2l-1.85.6,1.85-.6v-2Zm-2.63-8.41H626.46l9.33-28.66m-4,24.77h8l-4-12.24-4,12.24Z" fill="#919191"/><path d="M366,92.38l4,.4a7.62,7.62,0,0,1-3.36,5A11.7,11.7,0,0,1,360,99.58,12,12,0,0,1,352,97.09a8.74,8.74,0,0,1-3-7.12,10.31,10.31,0,0,1,1.29-5.24,7.94,7.94,0,0,1,3.92-3.38A14.47,14.47,0,0,1,360,80.23a12.18,12.18,0,0,1,6.4,1.52,6.87,6.87,0,0,1,3.19,4.33l-4,.48a5,5,0,0,0-2-2.81,6.2,6.2,0,0,0-3.48-.94,7.25,7.25,0,0,0-5,1.7q-1.92,1.69-1.92,5.37t1.86,5.43A6.93,6.93,0,0,0,359.93,97a6.73,6.73,0,0,0,4-1.14A5.18,5.18,0,0,0,366,92.38Z" fill="#919191"/><path d="M371.94,89.9c0-3.43,1.24-6,3.71-7.61a13.32,13.32,0,0,1,7.56-2.06,12.61,12.61,0,0,1,8.1,2.5,8.36,8.36,0,0,1,3.14,6.91,9.86,9.86,0,0,1-1.39,5.62A9,9,0,0,1,389,98.44a14.57,14.57,0,0,1-5.8,1.14,12.6,12.6,0,0,1-8.16-2.5A8.66,8.66,0,0,1,371.94,89.9Zm4.19,0a6.73,6.73,0,0,0,2,5.33,8.09,8.09,0,0,0,10.11,0,6.87,6.87,0,0,0,2-5.42,6.56,6.56,0,0,0-2-5.21,8.12,8.12,0,0,0-10.1,0A6.68,6.68,0,0,0,376.13,89.9Z" fill="#919191"/><path d="M399.22,99.16V80.65h3.65v2.59a8,8,0,0,1,3-2.18,10.33,10.33,0,0,1,4.27-.83,9.79,9.79,0,0,1,4.38.85,5,5,0,0,1,2.41,2.39,9.41,9.41,0,0,1,7.42-3.24,8.74,8.74,0,0,1,5.5,1.52,5.65,5.65,0,0,1,1.92,4.7V99.16h-4V87.5a6.6,6.6,0,0,0-.4-2.71,2.89,2.89,0,0,0-1.43-1.34,5.67,5.67,0,0,0-2.45-.5,6.6,6.6,0,0,0-4.2,1.3,4.91,4.91,0,0,0-1.68,4.15V99.16H413.5v-12A3.66,3.66,0,0,0,409.25,83a7.33,7.33,0,0,0-3.18.69,4.39,4.39,0,0,0-2.12,2,9.06,9.06,0,0,0-.65,3.87v9.61Z" fill="#919191"/><path d="M437.82,106.25V80.65h3.71v2.4a8.66,8.66,0,0,1,3-2.12,10.21,10.21,0,0,1,4-.7,11.68,11.68,0,0,1,5.43,1.22,8.25,8.25,0,0,1,3.55,3.44,10.1,10.1,0,0,1,1.2,4.87,9.92,9.92,0,0,1-1.33,5.12,8.62,8.62,0,0,1-3.84,3.48,12.08,12.08,0,0,1-5.31,1.22,9.61,9.61,0,0,1-3.65-.67,8.23,8.23,0,0,1-2.66-1.67v9ZM441.51,90q0,3.57,1.87,5.28A6.53,6.53,0,0,0,447.93,97a6.65,6.65,0,0,0,4.65-1.77q1.94-1.77,1.93-5.48a6.93,6.93,0,0,0-1.88-5.3,6.38,6.38,0,0,0-4.52-1.76,6.52,6.52,0,0,0-4.6,1.87A7.08,7.08,0,0,0,441.51,90Z" fill="#919191"/><path d="M479.33,99.16V96.44a9.71,9.71,0,0,1-7.62,3.14,12.19,12.19,0,0,1-4-.63A6.74,6.74,0,0,1,465,97.37,5.33,5.33,0,0,1,463.74,95a12.72,12.72,0,0,1-.24-2.92V80.65h4.07V90.91a13.85,13.85,0,0,0,.25,3.31,3.31,3.31,0,0,0,1.63,2,6.12,6.12,0,0,0,3.07.7,8.32,8.32,0,0,0,3.44-.72,4.56,4.56,0,0,0,2.27-2,7.78,7.78,0,0,0,.67-3.62V80.65H483V99.16Z" fill="#919191"/><path d="M498.24,96.35l.59,2.77a18.88,18.88,0,0,1-3.07.28,8.73,8.73,0,0,1-3.44-.54,3.46,3.46,0,0,1-1.72-1.42,8.83,8.83,0,0,1-.5-3.7V83.09h-3V80.65h3V76.06l4-1.88v6.47h4.09v2.44h-4.09V93.91a4.4,4.4,0,0,0,.21,1.73,1.54,1.54,0,0,0,.71.61,3.38,3.38,0,0,0,1.39.22A17.16,17.16,0,0,0,498.24,96.35Z" fill="#919191"/><path d="M518.67,93.2l4.21.4A8.06,8.06,0,0,1,519.19,98a13.54,13.54,0,0,1-6.87,1.57c-3.52,0-6.3-.84-8.36-2.51a8.5,8.5,0,0,1-3.09-7A8.89,8.89,0,0,1,504,82.81a12.29,12.29,0,0,1,8.1-2.58A11.9,11.9,0,0,1,520,82.76,8.69,8.69,0,0,1,523,89.87c0,.18,0,.46,0,.83H505.08a6.28,6.28,0,0,0,2.24,4.68,7.74,7.74,0,0,0,5,1.62,7.6,7.6,0,0,0,3.82-.91A6.21,6.21,0,0,0,518.67,93.2ZM505.3,88.12h13.42a5.47,5.47,0,0,0-1.54-3.5,7.1,7.1,0,0,0-5-1.81,7.6,7.6,0,0,0-4.72,1.44A5.21,5.21,0,0,0,505.3,88.12Z" fill="#919191"/><path d="M528,99.16V80.65h3.66v2.8a8.34,8.34,0,0,1,2.59-2.59,5.54,5.54,0,0,1,2.62-.63,9.75,9.75,0,0,1,4.18,1l-1.4,2.91a7.22,7.22,0,0,0-3-.68,4.65,4.65,0,0,0-2.39.62,3.44,3.44,0,0,0-1.52,1.72,9.66,9.66,0,0,0-.68,3.66v9.69Z" fill="#919191"/></g></svg>