<svg xmlns="http://www.w3.org/2000/svg" width="30" height="30">
  <g fill-rule="evenodd">
    <path d="M3.4532717 2.3015h7.0941713v3.704h3.515699V2.427h10.735417v3.5157h3.264576v10.861h-3.264576v3.7668h-3.452911v3.5156h-3.515692v3.453h-7.156958v-3.453H7.2828669v-3.6602l-3.7040406.022v-3.4561H.06313453V5.8797H3.5160456z"/>
    <path fill="red" d="M3.5238966 5.8878h7.0274654v3.6648h3.590249V5.9897h10.656948v10.7827H21.22008v3.7353h-3.735418v3.4844h-6.874445v-3.5157H7.2828669v-3.6413H3.5788263z"/>
    <path fill="maroon" d="M10.60238 20.484h6.869719v3.507h-6.864177zm10.727566.0551h-3.853134v-3.7747l3.851867.01zm3.471683-3.7662h-3.468717l.0055-10.7954h3.471627z"/>
    <path fill="#f9f9f9" d="M3.5116556 5.9154h3.7684852v7.4513H3.5538814z"/>
  </g>
</svg>
