<svg xmlns="http://www.w3.org/2000/svg" width="1000" height="114" viewBox="0 0 1000 114"><g id="Layer_2" data-name="Layer 2"><rect x="826.18" y="57" width="154.91" height="46.04" fill="#fff"/></g><g id="Layer_1" data-name="Layer 1"><path d="M987.5,7a5.5,5.5,0,0,1,5.5,5.5V55.58a5.49,5.49,0,0,1-5.5,5.49H808.67a5.49,5.49,0,0,1-5.5-5.49V12.5a5.5,5.5,0,0,1,5.5-5.5H987.5m0-7H808.67a12.52,12.52,0,0,0-12.5,12.5V55.58a12.51,12.51,0,0,0,12.5,12.49H987.5A12.51,12.51,0,0,0,1000,55.58V12.5A12.52,12.52,0,0,0,987.5,0Z" fill="#fff"/><path d="M867.6,95.5V107H815.83V95.5H867.6m0-7H815.83a7,7,0,0,0-7,7V107a7,7,0,0,0,7,7H867.6a7,7,0,0,0,7-7V95.5a7,7,0,0,0-7-7Z" fill="#fff"/><path d="M924,95.5V107H872.2V95.5H924m0-7H872.2a7,7,0,0,0-7,7V107a7,7,0,0,0,7,7H924a7,7,0,0,0,7-7V95.5a7,7,0,0,0-7-7Z" fill="#fff"/><path d="M980.34,95.5V107H928.57V95.5h51.77m0-7H928.57a7,7,0,0,0-7,7V107a7,7,0,0,0,7,7h51.77a7,7,0,0,0,7-7V95.5a7,7,0,0,0-7-7Z" fill="#fff"/><path d="M841.73,65.53v5.18H831.37V88.85h-5.18V70.71H815.83V65.53h25.9m0-7h-25.9a7,7,0,0,0-7,7v5.18a7,7,0,0,0,7,7h3.36V88.85a7,7,0,0,0,7,7h5.18a7,7,0,0,0,7-7V77.71h3.36a7,7,0,0,0,7-7V65.53a7,7,0,0,0-7-7Z" fill="#fff"/><path d="M866.27,65.53q7.77,0,7.77,7.1a8.73,8.73,0,0,1-1.11,5A9.16,9.16,0,0,1,874,82.37v6.48h-5.18V82.37a2.29,2.29,0,0,0-2.59-2.59H853.32v9.07h-5.18V65.53h18.13M853.32,74.6h15.54V70.71H853.32V74.6m12.95-16.07H848.14a7,7,0,0,0-7,7V88.85a7,7,0,0,0,7,7h5.18a7,7,0,0,0,7-7V86.78h1.54v2.07a7,7,0,0,0,7,7H874a7,7,0,0,0,7-7V82.37a18.32,18.32,0,0,0-.58-4.74,19.62,19.62,0,0,0,.58-5c0-8.56-5.79-14.1-14.77-14.1Z" fill="#fff"/><path d="M921.13,75.89v3.89h-9V75.89h9m0-7h-9a7,7,0,0,0-7,7v3.89a7,7,0,0,0,7,7h9a7,7,0,0,0,7-7V75.89a7,7,0,0,0-7-7Z" fill="#fff"/><path d="M945.08,65.53q6.63,0,7.61,5.18a11,11,0,0,1,.16,2,7.66,7.66,0,0,1-1.22,4.53l-.16-.2-.11-.13-.1-.11-.12-.14-.15-.14-.14-.13-.14-.12-.16-.13-.11-.09-.2-.13-.22-.14-.17-.11-.07,0-.38-.18a1.39,1.39,0,0,0-.28-.12l-.14-.06-.14,0-.24-.08-.28-.09-.14,0-.19,0-.27-.06-.28-.06-.35-.06-.65-.07-.3,0h0l-.36,0-.68,0h2.59V70.71H932.13V74.6h13l.68,0,.36,0h0l.3,0,.65.07.35.06.28.06.27.06.19,0,.14,0,.28.09.24.08.14,0,.14.06a1.39,1.39,0,0,1,.28.12l.38.18.07,0,.17.11.22.14.2.13.11.09.16.13.14.12.14.13.15.14.12.14.1.11.11.13a7.46,7.46,0,0,1,1.38,4.73q0,7.13-7.77,7.13H934.72q-6.59,0-7.59-5.18a10.94,10.94,0,0,1-.18-2,7.47,7.47,0,0,1,1.19-4.43l.15.19A7.32,7.32,0,0,1,927,72.76q0-7.23,7.77-7.23h10.36M928.66,77.8l.11.1-.11-.1-.12-.13.12.13m.54.47.12.1-.12-.1-.09-.07.09.07m.72.49,0,0,0,0-.07-.05.07.05m.94.42-.18-.06.18.06m.63.21h0l.25.06-.25-.06h0m1.2.25-.32-.06.32.06m1,.1-.3,0,.3,0m-1.54,3.93h15.54V79.78H932.13v3.89m13-25.14H934.72c-9,0-14.77,5.59-14.77,14.23a16.54,16.54,0,0,0,.57,4.43,16.48,16.48,0,0,0-.57,4.43,17.51,17.51,0,0,0,.31,3.39c1.32,6.78,6.73,10.84,14.46,10.84h10.36c9,0,14.77-5.55,14.77-14.13a16.82,16.82,0,0,0-.59-4.53,16.77,16.77,0,0,0,.59-4.53,18.53,18.53,0,0,0-.26-3.13.5.5,0,0,0,0-.12c-1.29-6.81-6.71-10.88-14.49-10.88Z" fill="#fff"/><path d="M972.57,65.53q7.77,0,7.77,7.77v7.78q0,7.77-7.77,7.77H964.8q-7.77,0-7.77-7.77V73.3q0-7.77,7.77-7.77h7.77M964.8,83.67h7.77a2.29,2.29,0,0,0,2.59-2.59V73.3a2.29,2.29,0,0,0-2.59-2.59H964.8a2.29,2.29,0,0,0-2.59,2.59v7.78a2.29,2.29,0,0,0,2.59,2.59m7.77-25.14H964.8c-9.11,0-14.77,5.66-14.77,14.77v7.78c0,9.11,5.66,14.77,14.77,14.77h7.77c9.11,0,14.77-5.66,14.77-14.77V73.3c0-9.11-5.66-14.77-14.77-14.77Z" fill="#fff"/><path d="M902.93,65.69c2.15,0,4.13,1,4.13,6.48h-6.32c0-1.2-.63-2-2.82-2h-9.43c-1.57,0-2.15.12-2.15,2.57,0,2.12,1,2.27,2,2.27h15.37c2.56,0,5,2.6,5,6.63S906.75,89,902.62,89H884.91c-2.09,0-5.39-1-5.39-7.91h6.69c0,1.67.94,2.82,2.25,2.82h12c.94,0,1.25-.68,1.25-1.62s.42-3-1.46-3H885.59a6.36,6.36,0,0,1-6.12-6.64c0-5.12,3.35-7,5.7-7h17.76m0-7H885.17c-6.16,0-12.7,4.91-12.7,14a14.06,14.06,0,0,0,.91,5.06,6.93,6.93,0,0,0-.86,3.36c0,11,6.67,14.91,12.39,14.91h17.71c7.69,0,13.06-5.94,13.06-14.44a15.16,15.16,0,0,0-1.89-7.46,7.35,7.35,0,0,0,.27-2c0-12.51-8.52-13.48-11.13-13.48Z" fill="#fff"/><g id="Layer_2-2" data-name="Layer 2"><rect x="811.66" y="14.6" width="174.78" height="39.13" fill="#fff"/><path d="M857.25,37.49a2.88,2.88,0,1,0,2.87-2.88A2.86,2.86,0,0,0,857.25,37.49Zm83.4-2.88a2.88,2.88,0,1,0,2.88,2.88A2.88,2.88,0,0,0,940.65,34.61Zm-100.09,0a2.88,2.88,0,1,0,2.88,2.88A2.87,2.87,0,0,0,840.56,34.61ZM987.5,7H808.67a5.5,5.5,0,0,0-5.5,5.5V55.58a5.49,5.49,0,0,0,5.5,5.49H987.5a5.49,5.49,0,0,0,5.5-5.49V12.5A5.5,5.5,0,0,0,987.5,7ZM827.33,43.82l-3.45-5.76v5.76H817V22h10.35a6.64,6.64,0,0,1,6.91,6.9c0,4.6-3.46,5.75-4.61,5.75l5.76,9.21Zm11.51,0c-2.3,0-4.6-2.31-4.6-5.76a4.43,4.43,0,0,1,4.6-4.58l2.3,0c2.3,0,1.15-2.3,0-2.3h-4.6v-4.6h9.2c2.3,0,3.16,2.3,3.16,4.6s.29,12.66.29,12.66Zm29.91,0h-9.2c-6.91,0-8.06-5.76-8.06-9.21,0-2.11,1.15-8,8.06-8h2.3V22h6.9V43.82Zm8,0h-5.75V26.56h5.75Zm9.78,0a8.63,8.63,0,1,1,8.63-8.63A8.64,8.64,0,0,1,886.58,43.82Zm29.34-15q-3.45,0-3.45,3.45v4.6c0,4.6-1.15,6.91-10.36,6.91V36.91c2.3,0,4.61,0,4.61-3.45V27.71c0-2.3,1.15-5.75,9.2-5.75Zm17.26,15h-6.91V33.46c0-1.15-2.3-1.15-2.3,0V43.82h-5.75V22H924v5.75c2.3-2.3,9.21-1.15,9.21,3.45Zm5.75,0c-2.3,0-4.6-2.31-4.6-5.76a4.43,4.43,0,0,1,4.6-4.58l2.3,0c2.3,0,1.15-2.3,0-2.3h-4.6v-4.6h9.2c2.3,0,3.16,2.3,3.16,4.6s.29,12.66.29,12.66Zm28.71-7.7h-6a2.87,2.87,0,1,0,0,2.7h5.28a8.63,8.63,0,1,1,.8-3.63C967.69,35.5,967.67,35.81,967.64,36.12Zm9.25,7.7-2.3-6.91h-1.15v6.91h-4.6V22h4.6v9.2h1.15l2.3-3.45h5.76l-3.46,5.75,4.61,10.36ZM824.46,30a2.88,2.88,0,1,0,2.87,2.88A2.88,2.88,0,0,0,824.46,30Zm62.12,4.6a2.88,2.88,0,1,0,2.88,2.88A2.87,2.87,0,0,0,886.58,34.61Z"/><rect x="815.83" y="95.5" width="51.77" height="11.5" fill="#ce2027"/><rect x="872.2" y="95.5" width="51.77" height="11.5" fill="#0f7c3e"/><rect x="928.57" y="95.5" width="51.77" height="11.5" fill="#233d98"/><path d="M815.83,65.53h25.9v5.18H831.37V88.85h-5.18V70.71H815.83Z"/><path d="M853.32,79.78v9.07h-5.18V65.53h18.13q7.77,0,7.77,7.1a8.73,8.73,0,0,1-1.11,5A9.16,9.16,0,0,1,874,82.37v6.48h-5.18V82.37a2.29,2.29,0,0,0-2.59-2.59Zm0-5.18h15.54V70.71H853.32Z"/><path d="M912.18,79.78V75.89h9v3.89Z"/><path d="M952.69,70.71H932.13V74.6h13q7.77,0,7.77,7.12t-7.77,7.13H934.72q-6.59,0-7.59-5.18h20.54V79.78H934.72q-7.77,0-7.77-7,0-7.23,7.77-7.23h10.36Q951.71,65.53,952.69,70.71Zm-25.56,13a10.94,10.94,0,0,1-.18-2,7.47,7.47,0,0,1,1.19-4.43q1.86,2.59,6.58,2.59h-2.59v3.89Zm24.5-6.48a7.66,7.66,0,0,0,1.22-4.53,11,11,0,0,0-.16-2h-5V74.6h-2.59C948.2,74.6,950.39,75.46,951.63,77.19Z"/><path d="M957,81.08V73.3q0-7.77,7.77-7.77h7.77q7.77,0,7.77,7.77v7.78q0,7.77-7.77,7.77H964.8Q957,88.85,957,81.08Zm15.54,2.59a2.29,2.29,0,0,0,2.59-2.59V73.3a2.29,2.29,0,0,0-2.59-2.59H964.8a2.29,2.29,0,0,0-2.59,2.59v7.78a2.29,2.29,0,0,0,2.59,2.59Z"/><path d="M879.52,81.11h6.69c0,1.67.94,2.82,2.25,2.82h12c.94,0,1.25-.68,1.25-1.62s.42-3-1.46-3H885.59a6.36,6.36,0,0,1-6.12-6.64c0-5.12,3.35-7,5.7-7h17.76c2.15,0,4.13,1,4.13,6.48h-6.32c0-1.2-.63-2-2.82-2h-9.43c-1.57,0-2.15.12-2.15,2.57S887.75,75,888.8,75h14.92c2.56,0,5,2.6,5,6.63S906.75,89,902.62,89H884.91C882.82,89,879.52,88,879.52,81.11Z"/></g></g></svg>