<svg xmlns="http://www.w3.org/2000/svg" viewBox="0 0 1000 114"><g id="Layer_2" data-name="Layer 2"><polygon points="988.66 30.89 790.19 30.89 790.19 25.1 510.02 25.1 510.02 92.85 790.19 92.85 790.19 92.5 822.19 92.5 822.19 70.04 988.66 70.04 988.66 30.89" fill="#fff"/></g><g id="Layer_1" data-name="Layer 1"><path d="M619.32,63.78a3.5,3.5,0,0,1-3.5-3.5v-50a3.5,3.5,0,0,1,3.5-3.5H629a3.5,3.5,0,0,1,3.5,3.5V47.64h9.07a3.5,3.5,0,0,1,3.5,3.5v9.14a3.5,3.5,0,0,1-3.5,3.5Z" fill="#ea2c27"/><path d="M629,10.31V51.14h12.57v9.14H619.32v-50H629m0-7h-9.69a7,7,0,0,0-7,7v50a7,7,0,0,0,7,7h22.26a7,7,0,0,0,7-7V51.14a7,7,0,0,0-7-7H636V10.31a7,7,0,0,0-7-7Z" fill="#fff"/><path d="M702.24,64.72a28.88,28.88,0,1,1,25.59-42.2,3.5,3.5,0,0,1-3.1,5.11l-11.5-.08a3.48,3.48,0,0,1-2.31-.89A12.44,12.44,0,1,0,711,45a3.56,3.56,0,0,1,2.34-.92L724.81,44a3.51,3.51,0,0,1,3.1,5.12A28.84,28.84,0,0,1,702.24,64.72Z" fill="#ea2c27"/><path d="M702.24,10.47a25.35,25.35,0,0,1,22.49,13.66l-11.48-.08a15.93,15.93,0,1,0,.08,23.5l11.48-.08a25.38,25.38,0,1,1-22.57-37m0-7A32.38,32.38,0,1,0,731,50.7a7,7,0,0,0-6.21-10.23h0l-11.48.08a7,7,0,0,0-4.68,1.84,9.07,9.07,0,0,1-6.05,2.38,8.93,8.93,0,1,1,6-15.49,7,7,0,0,0,4.61,1.77l11.48.08h.05a7,7,0,0,0,6.21-10.23,32.23,32.23,0,0,0-28.7-17.43Z" fill="#fff"/><path d="M646.81,63.78a3.5,3.5,0,0,1-3.5-3.5V42.92l-15.63-31a3.49,3.49,0,0,1,3.12-5.08h10.78a3.49,3.49,0,0,1,3.13,1.94l7,14,6.73-14a3.5,3.5,0,0,1,3.15-2h10.62a3.5,3.5,0,0,1,3.13,5.07l-15.63,31V60.28a3.5,3.5,0,0,1-3.5,3.5Z" fill="#ea2c27"/><path d="M672.18,10.31l-16,31.78V60.28h-9.37V42.09l-16-31.78h10.78l10.15,20.46,9.83-20.46h10.62m0-7H661.56a7,7,0,0,0-6.3,4l-3.63,7.54L647.85,7.2a7,7,0,0,0-6.27-3.89H630.8a7,7,0,0,0-6.25,10.15l15.26,30.29V60.28a7,7,0,0,0,7,7h9.37a7,7,0,0,0,7-7V43.75l15.25-30.29a7,7,0,0,0-6.25-10.15Zm0,14h0Z" fill="#fff"/><path d="M540.7,63.78a3.5,3.5,0,0,1-3.5-3.5V56H525.08l-4.19,6.26A3.5,3.5,0,0,1,518,63.78H507.36a3.5,3.5,0,0,1-2.86-5.51l35-50a3.53,3.53,0,0,1,2.87-1.49h7.34a3.5,3.5,0,0,1,3.5,3.5v50a3.5,3.5,0,0,1-3.5,3.5ZM537.2,39.6v-.4l-.29.4Z" fill="#ea2c27"/><path d="M549.76,10.31v50H540.7V52.47H523.21L518,60.28H507.36l35.06-50h7.34M530,43.1H540.7V28.5L530,43.1M549.76,3.31h-7.34a7,7,0,0,0-5.73,3l-35.06,50a7,7,0,0,0,5.73,11H518a7,7,0,0,0,5.82-3.1L527,59.47h6.75v.81a7,7,0,0,0,7,7h9.06a7,7,0,0,0,7-7v-50a7,7,0,0,0-7-7Z" fill="#fff"/><path d="M493,63.78a3.5,3.5,0,0,1-3.5-3.5v-50a3.5,3.5,0,0,1,3.5-3.5h26.54a3.5,3.5,0,0,1,3.5,3.5V19.6a3.5,3.5,0,0,1-3.5,3.5H505.79v4.17h13.75a3.49,3.49,0,0,1,3.5,3.5v9.6a3.5,3.5,0,0,1-3.5,3.5H505.79V60.28a3.5,3.5,0,0,1-3.5,3.5Z" fill="#ea2c27"/><path d="M519.54,10.31V19.6H502.29V30.77h17.25v9.6H502.29V60.28H493v-50h26.54m0-7H493a7,7,0,0,0-7,7v50a7,7,0,0,0,7,7h9.29a7,7,0,0,0,7-7V47.37h10.25a7,7,0,0,0,7-7v-9.6a7,7,0,0,0-2.77-5.59,7,7,0,0,0,2.77-5.58V10.31a7,7,0,0,0-7-7Z" fill="#fff"/><path d="M594.73,63.78a3.5,3.5,0,0,1-3.5-3.5V51.1l-4.87,10.64a3.51,3.51,0,0,1-3.18,2h-9.45a3.51,3.51,0,0,1-3.21-2.09l-4.38-10v8.56a3.5,3.5,0,0,1-3.5,3.5h-9.37a3.5,3.5,0,0,1-3.5-3.5v-50a3.5,3.5,0,0,1,3.5-3.5h10.46a3.51,3.51,0,0,1,3.21,2.09l11.64,26.34,11.7-26.35a3.51,3.51,0,0,1,3.2-2.08H604a3.5,3.5,0,0,1,3.5,3.5v50a3.5,3.5,0,0,1-3.5,3.5Z" fill="#ea2c27"/><path d="M604,10.31v50h-9.29V35.06L583.18,60.28h-9.45L562.64,35.06V60.28h-9.37v-50h10.46l14.84,33.57,14.91-33.57H604m0-7H593.48a7,7,0,0,0-6.4,4.16L578.59,26.6,570.14,7.48a7,7,0,0,0-6.41-4.17H553.27a7,7,0,0,0-7,7v50a7,7,0,0,0,7,7h9.37a7,7,0,0,0,5.54-2.73,7,7,0,0,0,5.55,2.73h9.45a7,7,0,0,0,5.77-3,7,7,0,0,0,5.78,3H604a7,7,0,0,0,7-7v-50a7,7,0,0,0-7-7Z" fill="#fff"/><rect x="603.49" y="6.81" width="16.68" height="56.97" rx="3.5" fill="#ea2c27"/><path d="M616.67,10.31v50H607v-50h9.68m0-7H607a7,7,0,0,0-7,7v50a7,7,0,0,0,7,7h9.68a7,7,0,0,0,7-7v-50a7,7,0,0,0-7-7Z" fill="#fff"/><path d="M819.51,63.78a3.5,3.5,0,0,1-3.5-3.5V51.2l-4.79,10.53A3.49,3.49,0,0,1,808,63.78h-9.45a3.5,3.5,0,0,1-3.2-2.08l-4.47-10.09v8.67a3.5,3.5,0,0,1-3.5,3.5h-9.29a3.5,3.5,0,0,1-3.5-3.5v-50a3.5,3.5,0,0,1,3.5-3.5h10.46A3.51,3.51,0,0,1,791.8,8.9l11.57,26.32L815.06,8.89a3.52,3.52,0,0,1,3.2-2.08h10.62a3.5,3.5,0,0,1,3.5,3.5v50a3.5,3.5,0,0,1-3.5,3.5Z" fill="#ea2c27"/><path d="M828.88,10.31v50h-9.37V35.06L808,60.28h-9.44L787.42,35.06V60.28h-9.29v-50h10.46l14.76,33.57,14.91-33.57h10.62m0-7H818.26a7,7,0,0,0-6.39,4.16l-8.49,19.09L795,7.49a7,7,0,0,0-6.41-4.18H778.13a7,7,0,0,0-7,7v50a7,7,0,0,0,7,7h9.29A7,7,0,0,0,793,64.5a7,7,0,0,0,5.58,2.78H808a7,7,0,0,0,5.74-3,7,7,0,0,0,5.74,3h9.37a7,7,0,0,0,7-7v-50a7,7,0,0,0-7-7Z" fill="#fff"/><path d="M982.77,64.48a3.5,3.5,0,0,1-3-1.74l-9.4-16.17V60.9a3.5,3.5,0,0,1-3.5,3.5h-9.29a3.5,3.5,0,0,1-3.5-3.5V10.78a3.5,3.5,0,0,1,3.5-3.5h20.51A19.92,19.92,0,0,1,987,44l8.9,15.22a3.49,3.49,0,0,1-3,5.26Zm-5.39-34.09a3.42,3.42,0,0,0,0-6.59h-7v6.59Z" fill="#ea2c27"/><path d="M977.77,10.78a16.43,16.43,0,0,1,4.37,31.78L992.92,61H982.77L967.7,35.06h-.86V60.9h-9.29V10.78h20.22M966.84,33.89h10.93a6.92,6.92,0,0,0,0-13.59H966.84V33.89M977.77,3.78H957.55a7,7,0,0,0-7,7V60.9a7,7,0,0,0,7,7h9.29a7,7,0,0,0,7-7V59.55l2.88,5a7,7,0,0,0,6,3.48h10.15a7,7,0,0,0,6-10.53l-7.32-12.52A23.41,23.41,0,0,0,978.35,3.8l-.58,0Z" fill="#fff"/><path d="M929.13,64.4a3.5,3.5,0,0,1-3.5-3.5V10.78a3.5,3.5,0,0,1,3.5-3.5h26a3.5,3.5,0,0,1,3.5,3.5v9.13a3.5,3.5,0,0,1-3.5,3.5H941.92v4.95h13.21a3.5,3.5,0,0,1,3.5,3.5v9.37a3.5,3.5,0,0,1-3.5,3.5H941.92v3.46h13.21a3.5,3.5,0,0,1,3.5,3.5V60.9a3.5,3.5,0,0,1-3.5,3.5Z" fill="#ea2c27"/><path d="M955.13,10.78v9.13H938.42v12h16.71v9.37H938.42V51.69h16.71V60.9h-26V10.78h26m0-7h-26a7,7,0,0,0-7,7V60.9a7,7,0,0,0,7,7h26a7,7,0,0,0,7-7V51.69a7,7,0,0,0-2.35-5.23,7,7,0,0,0,2.35-5.23V31.86a7,7,0,0,0-3.35-6,7,7,0,0,0,3.35-6V10.78a7,7,0,0,0-7-7Z" fill="#fff"/><path d="M882.91,65.11A19.81,19.81,0,0,1,863,46.83a2.83,2.83,0,0,1,0-.29V10.78a3.5,3.5,0,0,1,3.5-3.5h9.61a3.5,3.5,0,0,1,3.5,3.5V46.14a3.41,3.41,0,0,0,6.58,0V10.78a3.5,3.5,0,0,1,3.5-3.5h9.61a3.5,3.5,0,0,1,3.5,3.5V46.54a2.83,2.83,0,0,1,0,.29A19.81,19.81,0,0,1,882.91,65.11Z" fill="#ea2c27"/><path d="M899.31,10.78V46.54a16.46,16.46,0,0,1-32.8,0V10.78h9.61V39.2h0v7.34a6.91,6.91,0,0,0,13.58,0V10.78h9.61m0-7H889.7a7,7,0,0,0-6.79,5.3,7,7,0,0,0-6.79-5.3h-9.61a7,7,0,0,0-7,7V46.54a5.63,5.63,0,0,0,0,.58,23.45,23.45,0,0,0,46.74,0,5.63,5.63,0,0,0,0-.58V10.78a7,7,0,0,0-7-7Z" fill="#fff"/><path d="M749.87,64.87a29,29,0,1,1,29-29A29.06,29.06,0,0,1,749.87,64.87Zm0-41.69a12.66,12.66,0,1,0,12.66,12.66A12.68,12.68,0,0,0,749.87,23.18Z" fill="#ea2c27"/><path d="M749.87,10.31a25.53,25.53,0,0,1,0,51.06h0a25.53,25.53,0,1,1,0-51.06m0,41.69a16.16,16.16,0,1,0-16.16-16.16A16.14,16.14,0,0,0,749.87,52m0-48.69A32.53,32.53,0,1,0,782.4,35.88,32.56,32.56,0,0,0,749.87,3.31Zm0,41.69A9.16,9.16,0,1,1,759,35.84,9.17,9.17,0,0,1,749.87,45Z" fill="#fff"/><path d="M832.08,63.78a3.5,3.5,0,0,1-3.5-3.5v-50a3.5,3.5,0,0,1,3.5-3.5h17a20,20,0,0,1,0,39.77H845V60.28a3.5,3.5,0,0,1-3.5,3.5ZM848.39,30a3.41,3.41,0,0,0,0-6.59H845V30Z" fill="#ea2c27"/><path d="M848.79,10.31a16.45,16.45,0,0,1,0,32.79h-7.34V60.28h-9.37v-50h16.71M841.45,33.5h7.34a6.92,6.92,0,0,0,0-13.59h-7.34V33.5m7.34-30.19H832.08a7,7,0,0,0-7,7v50a7,7,0,0,0,7,7h9.37a7,7,0,0,0,7-7V50.1h.34l.58,0a23.3,23.3,0,0,0,21.49-23.37A23.31,23.31,0,0,0,849.37,3.33l-.58,0Z" fill="#fff"/><path d="M908.83,64.4a3.5,3.5,0,0,1-3.5-3.5V23.73h-4.7a3.5,3.5,0,0,1-3.5-3.5V10.78a3.5,3.5,0,0,1,3.5-3.5h26.16a3.5,3.5,0,0,1,3.5,3.5v9.45a3.5,3.5,0,0,1-3.5,3.5h-5V60.9a3.5,3.5,0,0,1-3.5,3.5Z" fill="#ea2c27"/><path d="M926.79,10.78v9.45h-8.51V60.9h-9.45V20.23h-8.2V10.78h26.16m0-7H900.63a7,7,0,0,0-7,7v9.45a7,7,0,0,0,7,7h1.2V60.9a7,7,0,0,0,7,7h9.45a7,7,0,0,0,7-7V27.23h1.51a7,7,0,0,0,7-7V10.78a7,7,0,0,0-7-7Z" fill="#fff"/><path d="M602.94,107.12H588a3.48,3.48,0,0,1-3.5-3.55l.07-5.7A3.51,3.51,0,0,1,588,94.41l3,0,4,0,4,0c1,0,1.93,0,2.88,0,.49,0,1.51-.72,2.58-2.24a2.48,2.48,0,0,1,.19-.26c.53-.63.76-1.45.9-3.23,0-1.46,0-2.91,0-4.35s0-3.07,0-4.62a3.49,3.49,0,0,1,3.49-3.41h4.38a3.5,3.5,0,0,1,3.5,3.5V92a16.08,16.08,0,0,1-9.4,14.28c-.18.07-.36.14-.54.19A16,16,0,0,1,602.94,107.12Z" fill="#ea2c27"/><path d="M613.55,79.8V92a11.43,11.43,0,0,1-3.2,8,10.86,10.86,0,0,1-4.14,3,12.88,12.88,0,0,1-3.28.56H588l.07-5.7h0l2.9,0c2.66,0,5.38,0,8.06,0,1,0,2,0,2.94,0,2.27-.08,4.14-2,5.39-3.75,1.25-1.48,1.56-3.2,1.72-5.3.07-3,0-6,.07-9.06h4.38m0-7h-4.38a7,7,0,0,0-7,6.82c0,1.61,0,3.18,0,4.71s0,2.8,0,4.17a7.64,7.64,0,0,1-.17,1.27l-.3.4a5.93,5.93,0,0,1-.61.75h-2l-4,0-4.07,0-3,0a7,7,0,0,0-6.88,6.91l-.07,5.7a7,7,0,0,0,7,7.09h14.91a19.48,19.48,0,0,0,5.08-.79,7.53,7.53,0,0,0,1.07-.38,18.49,18.49,0,0,0,6.76-5.07A18.26,18.26,0,0,0,620.55,92V79.8a7,7,0,0,0-7-7Z" fill="#fff"/><rect x="611.92" y="85.43" width="36.2" height="13.01" rx="3.5" fill="#ea2c27"/><path d="M644.62,88.93v6h-29.2v-6h29.2m0-7h-29.2a7,7,0,0,0-7,7v6a7,7,0,0,0,7,7h29.2a7,7,0,0,0,7-7v-6a7,7,0,0,0-7-7Z" fill="#fff"/><path d="M655.55,107.11a3.5,3.5,0,0,1-3.5-3.5V97.83a3.5,3.5,0,0,1,3.5-3.5h21.88V90.17h-21a3.5,3.5,0,0,1-3.5-3.5V79.8a3.5,3.5,0,0,1,3.5-3.5H686a3.5,3.5,0,0,1,3.5,3.5v23.81a3.5,3.5,0,0,1-3.5,3.5Z" fill="#ea2c27"/><path d="M686,79.8v23.81H655.55V97.83h25.38V86.67H656.41V79.8H686m0-7H656.41a7,7,0,0,0-7,7v6.87a7,7,0,0,0,2.38,5.26,7,7,0,0,0-3.24,5.9v5.78a7,7,0,0,0,7,7H686a7,7,0,0,0,7-7V79.8a7,7,0,0,0-7-7Z" fill="#fff"/><path d="M707.79,107.12h-20a3.46,3.46,0,0,1-2.49-1,3.51,3.51,0,0,1-1-2.51l.08-5.7a3.49,3.49,0,0,1,3.43-3.45l3.56,0,6,0,6,0c1.31,0,2.49,0,3.43,0,.48,0,1.51-.72,2.57-2.24a2.56,2.56,0,0,1,.2-.26c.53-.63.76-1.45.9-3.23,0-1.46,0-2.91,0-4.35s0-3.07,0-4.62A3.5,3.5,0,0,1,714,76.3h4.37a3.5,3.5,0,0,1,3.5,3.5V92a16.08,16.08,0,0,1-9.4,14.28,4.76,4.76,0,0,1-.53.19A16.11,16.11,0,0,1,707.79,107.12Z" fill="#ea2c27"/><path d="M718.4,79.8V92a11.38,11.38,0,0,1-3.2,8,10.71,10.71,0,0,1-4.14,3,12.73,12.73,0,0,1-3.27.56h-20l.08-5.7,3.49,0c3.65,0,8.34,0,12,0,1.33,0,2.53,0,3.49,0,2.26-.08,4.14-2,5.39-3.75a8.64,8.64,0,0,0,1.71-5.3c.08-3,0-6,.08-9.06h4.37m0-7H714a7,7,0,0,0-7,6.82c0,1.61,0,3.18,0,4.71s0,2.8,0,4.17a7.64,7.64,0,0,1-.17,1.27,3.79,3.79,0,0,0-.3.4,5.93,5.93,0,0,1-.61.75h-2.52l-6,0-6,0-3.61,0a7,7,0,0,0-6.88,6.91l-.08,5.7a7,7,0,0,0,7,7.09h20a19.55,19.55,0,0,0,5.08-.79,8.53,8.53,0,0,0,1.07-.38A19.56,19.56,0,0,0,725.4,92V79.8a7,7,0,0,0-7-7Z" fill="#fff"/><path d="M827.05,107.19q-3.42,0-6.86,0l-6.9,0-6.89,0a3.5,3.5,0,0,1-3.5-3.5V98.08a3.5,3.5,0,0,1-2.11-3.21v-6.8a3.51,3.51,0,0,1,2-3.17,8.7,8.7,0,0,0,1.67-.92,11.94,11.94,0,0,0,.29-4,3.5,3.5,0,0,1,3.47-3.62q4.35,0,8.76,0l8.81,0,8.69,0a3.49,3.49,0,0,1,3.5,3.5V95.34c0,7.37-7.58,11.85-10.91,11.85Z" fill="#ea2c27"/><path d="M817,79.84c5.84,0,11.73,0,17.5,0V95.34c0,5.38-6,8.35-7.41,8.35-2.3,0-4.59,0-6.9,0-4.6,0-9.21,0-13.79,0V97.91c1.64,0,3.52,0,5.48,0,3.93,0,8.18,0,11.46,0,2.26,0,4.68-.78,5.39-1.87L813,96.12,813,89.4h16.4c.15-2.5-1.56-2.11-3-2.26h-14c-1,3.67-3.83,7.73-8,7.73v-6.8a7.24,7.24,0,0,0,3.2-2.26c.86-1.64.86-3.75.78-5.93q4.34,0,8.73,0m0-7c-3.31,0-6.18,0-8.79,0a7,7,0,0,0-6.94,7.25c0,.31,0,1,0,1.62a7,7,0,0,0-4,6.32v6.8a6.93,6.93,0,0,0,2.11,5v3.82a7,7,0,0,0,7,7l6.9,0,6.89,0c2.56,0,4.79,0,6.82,0h.08c5.08,0,14.41-5.83,14.41-15.35V79.88a7,7,0,0,0-7-7l-8.68,0-8.82,0Z" fill="#fff"/><path d="M493,76.58a3.49,3.49,0,0,1-3.5-3.5V68.24a3.5,3.5,0,0,1,3.5-3.5H993a3.5,3.5,0,0,1,1.5,6.66l-10.15,4.84a3.39,3.39,0,0,1-1.5.34Z" fill="#ea2c27"/><path d="M993,68.24h0m0,0-10.15,4.84H493V68.24H993m0-7H493a7,7,0,0,0-7,7v4.84a7,7,0,0,0,7,7H982.85a7,7,0,0,0,3-.68l10-4.77A7,7,0,0,0,993,61.24Zm0,14Z" fill="#fff"/><path d="M496.35,107.11a3.5,3.5,0,0,1-3.5-3.5V97.83a3.5,3.5,0,0,1,3.5-3.5h15.71a5.05,5.05,0,0,0,3.12-3.13c.08-.36.15-.73.2-1.11H493.23a3.5,3.5,0,0,1-3.5-3.5V79.8a3.5,3.5,0,0,1,3.5-3.5h30.92a3.5,3.5,0,0,1,3.5,3.5c0,1,0,2,.06,3.06.14,5.28.32,11.84-2.88,17-2,3.68-5.52,5.52-8.67,7a3.52,3.52,0,0,1-1.46.32Z" fill="#ea2c27"/><path d="M524.15,79.8c0,5.7.94,13.12-2.34,18.27-1.49,2.81-4.37,4.29-7.11,5.54H496.35V97.83h16c2.81-.39,5.23-2.89,6.17-5.62a22.43,22.43,0,0,0,.54-5.62H493.23V79.8h30.92m0-7H493.23a7,7,0,0,0-7,7v6.79a7,7,0,0,0,4.83,6.66,7,7,0,0,0-1.71,4.58v5.78a7,7,0,0,0,7,7H514.7a6.93,6.93,0,0,0,2.91-.63c2.64-1.21,7.51-3.43,10.25-8.38,3.7-6,3.5-13.12,3.35-18.84,0-1.06-.06-2.05-.06-3a7,7,0,0,0-7-7Z" fill="#fff"/><rect x="579.99" y="76.3" width="12.47" height="22.22" rx="3.5" fill="#ea2c27"/><path d="M589,79.8V95h-5.46V79.8H589m0-7h-5.46a7,7,0,0,0-7,7V95a7,7,0,0,0,7,7H589a7,7,0,0,0,7-7V79.8a7,7,0,0,0-7-7Z" fill="#fff"/><path d="M525.48,107a3.49,3.49,0,0,1-3.5-3.5V97.91a3.49,3.49,0,0,1,2.23-3.26,3.51,3.51,0,0,1-2.31-3.3V85.19a3.5,3.5,0,0,1,3.5-3.5h25.06a3.5,3.5,0,0,1,3.5,3.57c0,.7,0,1.45,0,2.22,0,3.59,0,7.66-1.63,10.54a2.33,2.33,0,0,1-.17.26c-2.33,3.33-6.58,3.64-9.53,3.67-1,2.79-3.32,5.08-6.21,5.08Z" fill="#ea2c27"/><path d="M550.46,85.19h0m0,0c-.08,3.67.31,8.51-1.17,11.08-2,2.89-7.57,2-9.52,2.27,0,2.34-1.64,5-3.36,5H525.48V97.91l8.9-.08c1.25,0,1.17-3,1.17-5H545.7c0-.94-1.09-1.49-2.66-1.49H525.4V85.19h25.06m0-7H525.4a7,7,0,0,0-7,7v6.16a7,7,0,0,0,.85,3.36,7,7,0,0,0-.77,3.2v5.62a7,7,0,0,0,7,7h10.93a9.92,9.92,0,0,0,8.43-5.16c3.34-.26,7.49-1.25,10.18-5.07l.34-.53c2.13-3.7,2.11-8.27,2.09-12.31,0-.67,0-1.33,0-1.95v-.32a7,7,0,0,0-7-7Zm0,14h0Z" fill="#fff"/><path d="M582.08,107.11l-.37,0-30.3-3.28a3.5,3.5,0,0,1-3.12-3.48V94.09a3.49,3.49,0,0,1,3.5-3.5,2.36,2.36,0,0,1,.38,0L582.47,94a3.51,3.51,0,0,1,3.11,3.48v6.17a3.51,3.51,0,0,1-1.16,2.61A3.55,3.55,0,0,1,582.08,107.11Z" fill="#ea2c27"/><path d="M551.79,94.09l30.29,3.35v6.17l-30.29-3.28V94.09m0-7a7,7,0,0,0-7,7v6.24a7,7,0,0,0,6.25,7l30.29,3.28a6.28,6.28,0,0,0,.75,0,7,7,0,0,0,7-7V97.44a7,7,0,0,0-6.23-7l-30.29-3.36a6.74,6.74,0,0,0-.77,0Z" fill="#fff"/><path d="M582.08,93.14a2.43,2.43,0,0,1-.38,0l-30.3-3.35a3.51,3.51,0,0,1-3.11-3.48V80.11a3.51,3.51,0,0,1,3.5-3.5l.38,0,30.29,3.28a3.49,3.49,0,0,1,3.12,3.48v6.25a3.51,3.51,0,0,1-3.5,3.5Z" fill="#ea2c27"/><path d="M551.79,80.11l30.29,3.28v6.25l-30.29-3.36V80.11m0-7a7,7,0,0,0-7,7v6.17a7,7,0,0,0,6.23,7l30.29,3.35a6.78,6.78,0,0,0,.77,0,7,7,0,0,0,7-7V83.39a7,7,0,0,0-6.24-7l-30.3-3.28a6.28,6.28,0,0,0-.75,0Z" fill="#fff"/><path d="M582.08,100l-.37,0-30.3-3.28a3.51,3.51,0,0,1-3.12-3.48V87a3.51,3.51,0,0,1,3.5-3.5l.38,0,30.29,3.28a3.49,3.49,0,0,1,3.12,3.48v6.25a3.51,3.51,0,0,1-3.5,3.5Z" fill="#ea2c27"/><path d="M551.79,87l30.29,3.28v6.25l-30.29-3.28V87m0-7a7,7,0,0,0-7,7v6.25a7,7,0,0,0,6.25,7l30.29,3.28c.25,0,.5,0,.75,0a7,7,0,0,0,7-7V90.26a7,7,0,0,0-6.24-7L552.54,80a6.28,6.28,0,0,0-.75,0Z" fill="#fff"/><path d="M751.59,107.11a3.5,3.5,0,0,1-3.5-3.5v-5.7A3.51,3.51,0,0,1,751,94.45a3.49,3.49,0,0,1-.69-2.08V86.12a3.5,3.5,0,0,1,3.5-3.5h17.72a3.5,3.5,0,0,1,3.5,3.5v8.29h1.42a3.5,3.5,0,0,1,3.5,3.5v5.7a3.5,3.5,0,0,1-3.5,3.5Z" fill="#ea2c27"/><path d="M771.57,86.12V97.91h4.92v5.7h-24.9v-5.7h15.53V92.37H753.85V86.12h17.72m0-7H753.85a7,7,0,0,0-7,7v6.25c0,.13,0,.25,0,.38a7,7,0,0,0-2.27,5.16v5.7a7,7,0,0,0,7,7h24.9a7,7,0,0,0,7-7v-5.7a7,7,0,0,0-4.92-6.68V86.12a7,7,0,0,0-7-7Z" fill="#fff"/><path d="M724.1,107.19a3.66,3.66,0,0,1-.57,0c-4-.66-7.07-5.63-7.07-9.46s0-8,0-12c0-2,0-3.93,0-5.83a3.5,3.5,0,0,1,3.5-3.5h4.46a3.5,3.5,0,0,1,3.5,3.5v2.74h10.21a7.48,7.48,0,0,1,14.77,1.71,6.37,6.37,0,0,1-.07,1,3.48,3.48,0,0,1,1.09,2.53c0,.49,0,1,0,1.53,0,1.19,0,2.42,0,3.63a3.47,3.47,0,0,1-1.12,2.41,3.53,3.53,0,0,1,1.05,2.5v5.78a3.5,3.5,0,0,1-3.5,3.5Z" fill="#ea2c27"/><path d="M724.42,79.88v6.24H740c1.25,0,1.17,1.72,1.8,1.72h1.79a3.8,3.8,0,0,1-2.18-3.51,4,4,0,1,1,8,0,4,4,0,0,1-2.19,3.51h3.2c0,1.56.08,3.36,0,5H724.49c0,2,.63,4.53,2.66,5l23.19.08v5.78H724.1c-1.87-.31-4.13-3.44-4.13-6-.08-5.78,0-12,0-17.8h4.45m21.08,6.55a2.11,2.11,0,0,0,0-4.21,2.15,2.15,0,0,0-2.11,2.11,2.09,2.09,0,0,0,2.11,2.1M724.42,72.88H720a7,7,0,0,0-7,7c0,1.9,0,3.84,0,5.81,0,4,0,8.13,0,12,0,5.31,4.12,11.88,10,12.85a6.38,6.38,0,0,0,1.15.1h26.24a7,7,0,0,0,7-7V97.91a7,7,0,0,0-.44-2.44,7,7,0,0,0,.51-2.3c.06-1.33,0-2.67,0-3.85,0-.51,0-1,0-1.48a7,7,0,0,0-1-3.63,11,11,0,0,0-20.65-5.09h-4.37a7,7,0,0,0-7-6.24Z" fill="#fff"/><rect x="684.45" y="76.3" width="24.8" height="13.71" rx="3.5" fill="#ea2c27"/><path d="M705.76,79.8v6.71H688V79.8h17.81m0-7H688a7,7,0,0,0-7,7v6.71a7,7,0,0,0,7,7h17.81a7,7,0,0,0,7-7V79.8a7,7,0,0,0-7-7Z" fill="#fff"/><rect x="769.95" y="85.43" width="36.2" height="13.01" rx="3.5" fill="#ea2c27"/><path d="M802.65,88.93v6h-29.2v-6h29.2m0-7h-29.2a7,7,0,0,0-7,7v6a7,7,0,0,0,7,7h29.2a7,7,0,0,0,7-7v-6a7,7,0,0,0-7-7Z" fill="#fff"/><path d="M493,10.31h26.54V19.6H502.29V30.77h17.25v9.6H502.29V60.28H493m56.76,0H540.7V52.47H523.21L518,60.28H507.36l35.06-50h7.34ZM540.7,43V28.5L530,43.1H540.7Zm12.57-32.71h10.46l14.84,33.57,14.91-33.57H604v50h-9.29V35.06L583.18,60.28h-9.45L562.64,35.06V60.28h-9.37m224.86-50h10.46l14.76,33.57,14.91-33.57h10.62v50h-9.37V35.06L808,60.28h-9.44L787.42,35.06V60.28h-9.29M607,10.31h9.68v50H607Zm12.33,0H629V51.14h12.57v9.14H619.32m11.48-50h10.78l10.15,20.46,9.83-20.46h10.62l-16,31.78V60.28h-9.37V42.09m77.92-18a25.34,25.34,0,1,0,.08,23.34l-11.48.08a15.93,15.93,0,1,1-.08-23.5Z" fill="#ea2c27"/><path d="M749.87,61.37A25.53,25.53,0,1,1,775.4,35.84a25.54,25.54,0,0,1-25.53,25.53ZM766,35.84A16.16,16.16,0,1,0,749.87,52,16.19,16.19,0,0,0,766,35.84Zm82.76-25.53a16.45,16.45,0,0,1,0,32.79h-7.34V60.28h-9.37v-50Zm-7.34,9.6V33.5h7.34a6.92,6.92,0,0,0,0-13.59Zm125.39,41h-9.29V10.78h20.22a16.43,16.43,0,0,1,4.37,31.78L992.92,61H982.77L967.7,35.06h-.86V60.9Zm10.93-27a6.92,6.92,0,0,0,0-13.59H966.84V33.89ZM876.12,39.2v7.34a6.91,6.91,0,0,0,13.58,0V10.78h9.61V46.54a16.46,16.46,0,0,1-32.8,0V10.78h9.61V39.2Zm32.71,21.7h9.45V20.23h8.51V10.78H900.63v9.45h8.2m46.3,40.67h-26V10.78h26v9.13H938.42v12h16.71v9.37H938.42V51.69h16.71M493,68.24v4.84H982.85L993,68.24M524.15,79.8c0,5.7.94,13.12-2.34,18.27-1.49,2.81-4.37,4.29-7.11,5.54H496.35V97.83h16c2.81-.39,5.23-2.88,6.17-5.62a22.43,22.43,0,0,0,.54-5.62H493.23V79.8Zm63.94,18.11c4.53-.08,9.3.08,13.9,0,2.27-.08,4.14-2,5.39-3.75,1.25-1.48,1.56-3.2,1.72-5.3.07-3,0-6,.07-9.06h4.38V92a11.43,11.43,0,0,1-3.2,8,10.86,10.86,0,0,1-4.14,3,11.34,11.34,0,0,1-3.67.55H588l.07-5.7ZM812.33,87.14c-1,3.67-3.83,7.73-8,7.73v-6.8a7.24,7.24,0,0,0,3.2-2.26c.86-1.64.86-3.75.78-5.93,8.67-.08,17.57,0,26.23,0V95.34c0,5.38-6,8.35-7.41,8.35-6.88-.08-13.82,0-20.69,0V97.91c4.91-.08,12,0,16.94,0,2.26,0,4.68-.78,5.39-1.87L813,96.12,813,89.4h16.4c.15-2.5-1.56-2.11-3-2.26ZM525.48,103.61v-5.7l8.9-.08c1.25,0,1.17-3,1.17-5H545.7c0-.94-1.09-1.49-2.66-1.49H525.4V85.19h25.06c-.08,3.67.31,8.51-1.17,11.08-2,2.89-7.57,2-9.52,2.27,0,2.34-1.64,5-3.36,5H525.48Zm26.31-17.33,30.29,3.36V83.39l-30.29-3.28m0,13.12,30.29,3.28V90.26L551.79,87m0,13.35,30.29,3.28V97.44l-30.29-3.35m31.7-14.29H589V95h-5.46Zm31.93,9.13h29.2v6h-29.2ZM686,79.8H656.41v6.87h24.52V97.83H655.55v5.78H686m1.88-5.7c4.52-.08,14.44.08,19,0,2.26-.08,4.14-2,5.39-3.75a8.64,8.64,0,0,0,1.71-5.3c.08-3,0-6,.08-9.06h4.37V92a11.38,11.38,0,0,1-3.2,8,10.71,10.71,0,0,1-4.14,3,11.34,11.34,0,0,1-3.67.55H687.8l.08-5.7Z" fill="#ea2c27"/><path d="M688,79.8h17.81v6.71H688Zm36.54,13h25.92c.08-1.64,0-3.44,0-5h-3.2a4,4,0,0,0,2.19-3.51,4,4,0,1,0-8,0,3.8,3.8,0,0,0,2.18,3.51h-1.79c-.63,0-.55-1.72-1.8-1.72H724.42V79.88H720c0,5.77-.08,12,0,17.8,0,2.57,2.26,5.7,4.13,6h26.24V97.91l-23.19-.08c-2-.46-2.66-3-2.66-5Zm21-10.62a2.11,2.11,0,1,1-2.11,2.11A2.15,2.15,0,0,1,745.5,82.22Zm26.07,3.9H753.85v6.25h13.27v5.54H751.59v5.7h24.9v-5.7h-4.92" fill="#ea2c27"/><path d="M773.45,88.93h29.2v6h-29.2Z" fill="#ea2c27"/></g></svg>