<svg id="Layer_1" data-name="Layer 1" xmlns="http://www.w3.org/2000/svg" viewBox="0 0 1000 114"><title>logo_right</title><path d="M659,48.26h0m0,0-3.37,9.38c-2,.31-3.65.66-5.73.83-2.24.16-4.32.33-6.67.33-.13.16-2.48,6.91-2.48,6.91h-6.12s2.36-6.59,2.45-6.91c-2-.17-4.3-.17-6.12-.33a50.67,50.67,0,0,1-5.48-.83h-.13l3.26-9.38h6.15s-2.08,5.93-2.21,6.25c1.69.17,4,.17,6,.34,0-.17.39-1.49.39-1.49h6.12s-.25,1.15-.39,1.49c2.22,0,3.92-.17,6-.34.13-.16,2.23-6.25,2.23-6.25H659m0-7h-6.12A7,7,0,0,0,646.28,46c-.06.15-.11.31-.16.46a7.59,7.59,0,0,0-1.07-.08H641.5a7.13,7.13,0,0,0-1-2.14,7,7,0,0,0-5.72-3h-6.15A7,7,0,0,0,622,46l-3.26,9.37a7,7,0,0,0,5.82,9.26c1,.2,2.06.38,3.09.52a7,7,0,0,0,7,7.59h6.12a7,7,0,0,0,6.61-4.7c.27-.78.56-1.61.84-2.4l1.82-.13.39,0c1.94-.15,3.51-.42,5-.68l1.3-.22A7,7,0,0,0,662.21,60l3.3-9.16a7,7,0,0,0-6.5-9.59Zm0,14h0Z" fill="#fff"/><path d="M549.54,48.26s-4.56,12.67-4.82,13c2.86.17,5.86.33,8.86.33,3.26,0,6.38-.16,9.38-.33v0c2.21-.15,4.17-.49,6-.66l.27-.16-1.31,4h-.13c-1.95.31-4,.65-6.12.82-3,.16-6.26.33-9.39.33s-6.12-.17-9-.33a55.5,55.5,0,0,1-5.6-.8h-.13l5.86-16.13h6.13m19.68,12.16h0M549.54,41.26h-6.13a7,7,0,0,0-6.58,4.61L531,62a7,7,0,0,0,5.83,9.36c1.93.36,3.89.63,5.84.81l.25,0H543c2.93.16,6,.33,9.24.33s6.92-.19,9.76-.34h.2c2.21-.18,4.36-.52,6.26-.83a7,7,0,0,0,6.07-4.78l1.23-3.73a6.87,6.87,0,0,0,.43-2.41,7,7,0,0,0-7-7h-.19a7,7,0,0,0-1.94.32l-1.32.16c-1.12.14-2.18.28-3.29.35l-.47,0c-2.45.14-4.87.26-7.33.28.42-1.17.9-2.48,1.42-3.94a7,7,0,0,0-6.58-9.38Z" fill="#fff"/><path d="M600,48.26c3.38,0,5.86.35,8.47.52a50.41,50.41,0,0,1,5.47.8h.15l-5.74,15.79H602.2s2.21-6.07,2.47-6.58H587.74c0,.33-2.37,6.58-2.37,6.58h-6.12L585,49.6h.13c2-.31,4-.65,6.13-.82,2.73-.19,5.33-.52,8.72-.52m-1.3,4.11h-1.12a75,75,0,0,0-7.49.37,21.32,21.32,0,0,0-.91,2.46H606v0l.9-2.46a68.6,68.6,0,0,0-6.88-.34h-1.32M600,41.26c-2.73,0-5,.19-7,.36l-2.18.17h-.1c-2.18.18-4.3.51-6.16.81h-.09a7,7,0,0,0-6,4.58L572.67,63a7,7,0,0,0,6.58,9.39h6.12a7,7,0,0,0,6.55-4.52c.29-.76.55-1.44.78-2.06h2.51a7,7,0,0,0,7,6.58h6.12a7,7,0,0,0,6.58-4.61L620.63,52a7,7,0,0,0-5.85-9.36c-1.88-.36-3.79-.63-5.69-.8l-.21,0-2.29-.18c-1.87-.16-4-.35-6.62-.35Z" fill="#fff"/><path d="M921.45,48.26a81.73,81.73,0,0,1,9.12.52,51.07,51.07,0,0,1,5.49.78h.25l-5.86,16h-6.12S928.89,53,929,52.7q-3.63-.35-7.26-.35l-1.61,0h-1.39q-3.94,0-7.86.36c-.13.15-4.69,12.82-4.69,12.82h-6.13l6.25-17.28h6.13a1.89,1.89,0,0,0-.13.52,84.34,84.34,0,0,1,9.12-.52m0-7h0c-2.33,0-4.68.1-7,.29a6.81,6.81,0,0,0-2-.29h-6.13a7,7,0,0,0-6.58,4.62L893.5,63.16a7,7,0,0,0,6.58,9.38h6.13a7,7,0,0,0,6.58-4.63l3.08-8.5c1,0,1.93,0,2.89,0h.36c-.4,1.11-.86,2.36-1.37,3.76a7,7,0,0,0,6.58,9.4h6.12A7,7,0,0,0,937,67.93l5.86-16a7,7,0,0,0-6.06-9.4c-1.83-.34-3.69-.6-5.55-.77a89.5,89.5,0,0,0-9.82-.55Z" fill="#fff"/><path d="M978.33,48.26a78.37,78.37,0,0,1,8.93.52,52.83,52.83,0,0,1,5.6.82v0H993l-5.35,14.79h-.13c-2,.31-4,.66-6.12.82-3,.17-6.26.33-9.39.33s-6.12-.16-9-.33a55.3,55.3,0,0,1-5.59-.8h-.13l1.44-3.79h.13c1.56.14,3.52.49,5.47.66,2.86.16,5.86.33,9.12.33s6.24-.17,9.24-.33c0-.16.65-2.14.78-2.47H965.11l1.3-3.62h18.48a17.62,17.62,0,0,1,.79-2.46q-3.63-.35-7.26-.35l-1.61,0-1.56,0q-3.84,0-7.67.35a54.87,54.87,0,0,0-6,.65h-.39l1.44-3.76h.14c2-.31,4-.65,6.12-.82a88.86,88.86,0,0,1,9.37-.52h.07M993,49.58h0m-14.67-8.32h-.07a96.2,96.2,0,0,0-10,.55c-2.15.18-4.25.51-6.11.8h0a7,7,0,0,0-6,4.48l-1.44,3.76a7,7,0,0,0-.25,4.24,7,7,0,0,0-2.22,3l-1.44,3.78a7,7,0,0,0,5.81,9.45c1.92.36,3.88.64,5.83.81l.23,0c3.25.19,6.19.34,9.39.34s6.64-.17,9.77-.34H982c2.15-.17,4.23-.5,6.07-.79l.19,0a7,7,0,0,0,6-4.6l5.26-14.58a7,7,0,0,0-6-9.58c-1.82-.34-3.67-.6-5.5-.78a86.62,86.62,0,0,0-9.66-.55Z" fill="#fff"/><path d="M514.5,48.26a84.2,84.2,0,0,1,9.12.52,50.23,50.23,0,0,1,5.46.8h.13l-2.86,8.06h-.14c-.13.17-3.65,1.16-16.29,1.16h-8.21c-.15.32-2.6,6.9-2.6,6.9H493s4.43-12.16,4.69-12.67a4.74,4.74,0,0,1-1.3.18,2.75,2.75,0,0,1-.4,0l1.31-3.59c2.22-.31,5.86-.65,7.81-.82h.4c2.32-.19,5.86-.52,9-.52m-1.34,4.12-1.61,0c-2.54,0-5.09.12-7.62.35a19.61,19.61,0,0,0-.91,2.46h8.08c4,0,7.42-.16,10.16-.32,0-.17.65-1.81.77-2.14q-3.64-.35-7.31-.35l-1.56,0m1.35-11.12h0c-3,0-6.24.27-8.59.46l-.68.06h-.12l-.6,0c-1.24.11-5.5.49-8.19.87a7,7,0,0,0-5.6,4.54l-1.3,3.59a7,7,0,0,0-.09,4.55l-2.91,7.95A7,7,0,0,0,493,72.7h6.11a7,7,0,0,0,6.55-4.55c.3-.78.6-1.58.89-2.35h3.37a132.13,132.13,0,0,0,13.59-.56,25.23,25.23,0,0,0,4.48-.79,7,7,0,0,0,5-4.47l2.87-8.06a7,7,0,0,0-5.84-9.3c-1.86-.36-3.75-.63-5.63-.81a92.23,92.23,0,0,0-9.83-.55Z" fill="#fff"/><path d="M730.41,48.26a81.73,81.73,0,0,1,9.12.52,49.87,49.87,0,0,1,5.46.8h.26l-1.43,3.78h-.13a52.94,52.94,0,0,0-5.47-.63c-2-.17-4-.33-6.12-.33-.14.17-4.83,13.34-4.83,13.34h-6.11S725.85,52.91,726,52.4c-2.21,0-4.3.16-6.25.33a58.34,58.34,0,0,0-6,.65h-.25l1.43-3.78H715c1.82-.31,3.9-.65,6-.82a88.9,88.9,0,0,1,9.38-.52m0-7h0a95.82,95.82,0,0,0-10,.55c-2.11.17-4.16.49-6.08.81a7,7,0,0,0-5.93,4.5l-1.43,3.79a7,7,0,0,0,6.55,9.47h.25a7.29,7.29,0,0,0,1.23-.1l.79-.13-1.16,3.18a7,7,0,0,0,6.57,9.41h6.11a7,7,0,0,0,6.6-4.66c1-2.91,2.14-6,3-8.44l.75.06h.14a47.44,47.44,0,0,1,4.74.55,6.52,6.52,0,0,0,1.17.1h.13a7,7,0,0,0,6.54-4.51l1.44-3.79a7,7,0,0,0-6-9.46c-1.82-.35-3.68-.61-5.52-.79a89.86,89.86,0,0,0-9.84-.55Z" fill="#fff"/><path d="M772,48.26c3.38,0,5.86.35,8.46.52a50.59,50.59,0,0,1,5.48.8h.26l-5.86,15.79H774.2s2.34-6.07,2.47-6.58H759.86c-.13.33-2.47,6.58-2.47,6.58h-6.13l5.88-15.77c2-.31,4-.65,6.13-.82,2.72-.19,5.33-.52,8.72-.52m-1.31,4.11h-1.12a74.63,74.63,0,0,0-7.48.37,19.61,19.61,0,0,0-.91,2.46H778v0c.13-.32.78-2.13.91-2.47a69,69,0,0,0-6.89-.34h-1.32M772,41.26c-2.73,0-5,.19-7,.36l-2.18.17h-.09c-2.19.18-4.32.51-6.19.81l-.46.07a7,7,0,0,0-5.47,4.48L744.7,62.93a7,7,0,0,0,6.56,9.44h6.13a7,7,0,0,0,6.55-4.54c.23-.61.49-1.32.77-2h2.5a6.93,6.93,0,0,0,1.21,3.54,7,7,0,0,0,5.78,3h6.13a7,7,0,0,0,6.56-4.56L792.75,52a7,7,0,0,0-6-9.41,55.66,55.66,0,0,0-5.61-.79l-.2,0c-.76,0-1.51-.11-2.28-.18-1.87-.16-4-.35-6.62-.35Z" fill="#fff"/><path d="M813.57,48.26a81.73,81.73,0,0,1,9.12.52,50.64,50.64,0,0,1,5.48.82h.26L827,53.38h-.13a53,53,0,0,0-5.47-.65c-2-.17-3.92-.33-6.13-.33-.13.17-4.83,13.34-4.83,13.34h-6.12S809,52.91,809.15,52.4c-2.09,0-4.31.16-6.26.33a58.65,58.65,0,0,0-6,.65h-.26l1.44-3.78h.12c1.95-.31,3.91-.65,6-.82a88.9,88.9,0,0,1,9.38-.52m0-7h0a95.82,95.82,0,0,0-10,.55c-2,.16-3.81.45-5.56.73l-.48.08a7,7,0,0,0-6,4.5l-1.43,3.79a7,7,0,0,0,6.54,9.47h.26a7.09,7.09,0,0,0,1.22-.1l.8-.13c-.38,1.06-.78,2.13-1.16,3.18a7,7,0,0,0,6.57,9.41h6.12a7,7,0,0,0,6.6-4.65c1-2.92,2.14-6,3-8.45l.74.06h.13a47.15,47.15,0,0,1,4.74.57,6.94,6.94,0,0,0,1.2.1H827a7,7,0,0,0,6.55-4.52L835,52.07a7,7,0,0,0-6-9.45c-1.83-.36-3.69-.63-5.54-.81a90,90,0,0,0-9.85-.55Z" fill="#fff"/><path d="M688.19,48.26a81.73,81.73,0,0,1,9.12.52,50.8,50.8,0,0,1,5.49.81h.26l-1.43,3.79h-.15a50.87,50.87,0,0,0-5.48-.66q-3.74-.34-7.47-.34h-3.22q-3.84,0-7.67.34c0,.17-.65,2-.78,2.47H701l-3.38,9.23c-2,.31-4,.66-6.13.82-3.13.17-6.24.33-9.38.33s-6.13-.16-9.12-.33a54.65,54.65,0,0,1-5.48-.82h-.13l1.31-3.78h.13c1.69.14,3.51.49,5.6.65,2.74.17,5.89.34,9,.34s6.24-.17,9.24-.34c.13-.16.78-2.14.91-2.46H669.29l3.39-9.23h.13c2-.31,3.91-.65,6-.82a89,89,0,0,1,9.38-.52m0-7h0a96,96,0,0,0-10,.55c-2,.16-3.8.45-5.54.73l-.49.08a7,7,0,0,0-6,4.57l-3.39,9.23a7.25,7.25,0,0,0-.29,1,7.61,7.61,0,0,0-.39.93l-1.31,3.78a7,7,0,0,0,5.89,9.24c2.17.41,4,.68,5.71.84h.24c3,.17,6.19.34,9.51.34s6.55-.17,9.69-.33H692c2.14-.17,4.22-.5,6-.79l.61-.09a7,7,0,0,0,5.49-4.51l3.39-9.23a6.66,6.66,0,0,0,.27-1,6.71,6.71,0,0,0,.35-.77l1.44-3.78a7,7,0,0,0-6-9.47c-1.83-.35-3.69-.62-5.55-.8a89.72,89.72,0,0,0-9.84-.55Z" fill="#fff"/><path d="M876.62,48.26a79.6,79.6,0,0,1,9,.52,52.78,52.78,0,0,1,5.6.8h.13L886,64.39h-.13c-2,.3-4,.65-6,.82-3.13.16-6.26.33-9.52.33s-6.12-.17-9-.33c-2-.17-3.79-.49-5.61-.82h-.13L861,49.6h.14c2-.31,4-.65,6.12-.82a89.2,89.2,0,0,1,9.38-.52m-1.43,4.11h-1.31q-3.9,0-7.79.37c-.14.16-3,8.23-3.13,8.55,2.74.17,5.75.33,8.86.33s6.23-.16,9.24-.33v0c0-.17,2.86-8.22,3-8.56q-3.62-.35-7.26-.35l-1.6,0m1.43-11.11h0a96.16,96.16,0,0,0-10,.55c-2.15.18-4.23.51-6.07.8h-.08a7,7,0,0,0-6,4.6L849.06,62a7,7,0,0,0,5.9,9.34c1.75.32,3.71.65,5.83.83l.19,0c3.24.18,6.18.34,9.38.34,3.45,0,6.72-.18,9.89-.34l.22,0c2-.16,4-.49,5.84-.78l.26,0a7,7,0,0,0,6-4.6L897.93,52a7,7,0,0,0-5.84-9.33c-1.9-.36-3.84-.63-5.76-.81a87.51,87.51,0,0,0-9.71-.55Z" fill="#fff"/><path d="M846.8,48.43h0m0,0-6.26,17.28h-6.12l6.22-17.28h6.16m0-7h-6.16a7,7,0,0,0-6.58,4.62l-6.23,17.28a7,7,0,0,0,6.59,9.38h6.12a7,7,0,0,0,6.58-4.62L853.3,51a7,7,0,0,0-6.5-9.6Zm0,14Z" fill="#fff"/><path d="M563,61.26c-3,.17-6.12.33-9.38.33-3,0-6-.16-8.86-.33.26-.33,4.82-13,4.82-13h-6.13l-5.86,16.13h.13a55.5,55.5,0,0,0,5.6.8c2.87.16,5.87.33,9,.33s6.39-.17,9.39-.33c2.08-.17,4.17-.51,6.12-.82h.13l1.31-4-.27.16c-1.82.17-3.78.51-6,.66M739.53,48.78a81.73,81.73,0,0,0-9.12-.52,88.9,88.9,0,0,0-9.38.52c-2.09.17-4.17.51-6,.82h-.13l-1.43,3.78h.25a58.34,58.34,0,0,1,6-.65c1.95-.17,4-.33,6.25-.33-.13.51-4.82,13.34-4.82,13.34h6.11S732,52.57,732.1,52.4c2.08,0,4.17.16,6.12.33a52.94,52.94,0,0,1,5.47.63h.13l1.43-3.78H745A49.87,49.87,0,0,0,739.53,48.78Zm-42.22,0a81.73,81.73,0,0,0-9.12-.52,89,89,0,0,0-9.38.52c-2.09.17-4,.51-6,.82h-.13l-3.39,9.23h24.24c-.13.32-.78,2.3-.91,2.46-3,.17-6.13.34-9.24.34s-6.25-.17-9-.34c-2.09-.16-3.91-.51-5.6-.65h-.13l-1.31,3.78h.13a54.65,54.65,0,0,0,5.48.82c3,.17,6,.33,9.12.33s6.25-.16,9.38-.33c2.09-.16,4.17-.51,6.13-.82L701,55.19H676.86c.13-.51.78-2.3.78-2.47a89.07,89.07,0,0,1,9.24-.33,81.68,81.68,0,0,1,9.12.33,50.87,50.87,0,0,1,5.48.66h.15l1.43-3.79h-.26A50.8,50.8,0,0,0,697.31,48.78Zm-46.65,5.73c-2.08.17-3.78.34-6,.34.14-.34.39-1.49.39-1.49h-6.12s-.39,1.32-.39,1.49c-1.95-.17-4.3-.17-6-.34.13-.32,2.21-6.25,2.21-6.25h-6.15l-3.26,9.38h.13a50.67,50.67,0,0,0,5.48.83c1.82.16,4.16.16,6.12.33-.09.32-2.45,6.91-2.45,6.91h6.12s2.35-6.75,2.48-6.91c2.35,0,4.43-.17,6.67-.33,2.08-.17,3.78-.52,5.73-.83L659,48.26h-6.11S650.79,54.35,650.66,54.51Zm-42.22-5.73c-2.61-.17-5.09-.52-8.47-.52s-6,.33-8.72.52c-2.09.17-4.17.51-6.13.82H585l-5.75,15.77h6.12s2.37-6.25,2.37-6.58h16.93c-.26.51-2.47,6.58-2.47,6.58h6.12l5.74-15.79h-.15A50.41,50.41,0,0,0,608.44,48.78ZM606,55.19H589.15a21.32,21.32,0,0,1,.91-2.46,77.28,77.28,0,0,1,8.61-.36,70.1,70.1,0,0,1,8.2.33l-.9,2.46Zm174.48-6.41c-2.6-.17-5.08-.52-8.46-.52s-6,.33-8.72.52c-2.09.17-4.18.51-6.13.82l-5.88,15.77h6.13s2.34-6.25,2.47-6.58h16.81c-.13.51-2.47,6.58-2.47,6.58h6.13l5.86-15.79h-.26A50.59,50.59,0,0,0,780.45,48.78ZM778,55.19H761.17a19.61,19.61,0,0,1,.91-2.46,77.1,77.1,0,0,1,8.6-.36,70.35,70.35,0,0,1,8.21.33c-.13.34-.78,2.15-.91,2.47Zm152.59-6.41a81.73,81.73,0,0,0-9.12-.52,84.34,84.34,0,0,0-9.12.52,1.89,1.89,0,0,1,.13-.52h-6.13l-6.25,17.28h6.13s4.56-12.67,4.69-12.82a83.94,83.94,0,0,1,9.25-.35,77.27,77.27,0,0,1,8.87.33c-.13.33-4.69,12.82-4.69,12.82h6.12l5.86-16h-.25A51.07,51.07,0,0,0,930.57,48.78Zm62.29.82a52.83,52.83,0,0,0-5.6-.82,77.34,77.34,0,0,0-9-.52,88.86,88.86,0,0,0-9.37.52c-2.09.17-4.17.51-6.12.82h-.14l-1.44,3.76h.39a54.87,54.87,0,0,1,6-.65,83.66,83.66,0,0,1,9.23-.33,77.27,77.27,0,0,1,8.87.33,17.62,17.62,0,0,0-.79,2.46H966.41l-1.3,3.62h18.37c-.13.33-.78,2.31-.78,2.47-3,.16-6.12.33-9.24.33s-6.26-.17-9.12-.33c-2-.17-3.91-.52-5.47-.66h-.13l-1.44,3.79h.13a55.3,55.3,0,0,0,5.59.8c2.87.17,5.87.33,9,.33s6.39-.16,9.39-.33c2.08-.16,4.16-.51,6.12-.82h.13L993,49.58h-.14Zm-107.24-.82a79.6,79.6,0,0,0-9-.52,89.2,89.2,0,0,0-9.38.52c-2.09.17-4.17.51-6.12.82H861l-5.34,14.79h.13c1.82.33,3.65.65,5.61.82,2.86.16,5.86.33,9,.33s6.39-.17,9.52-.33c2-.17,4-.52,6-.82H886l5.35-14.81h-.13A52.78,52.78,0,0,0,885.62,48.78Zm-4.56,12.5c-3,.17-6.13.33-9.24.33s-6.12-.16-8.86-.33c.13-.32,3-8.39,3.13-8.55a81.25,81.25,0,0,1,9.1-.36,77,77,0,0,1,8.86.33c-.13.34-3,8.39-3,8.56Zm-58.37-12.5a81.73,81.73,0,0,0-9.12-.52,88.9,88.9,0,0,0-9.38.52c-2.09.17-4.05.51-6,.82h-.12l-1.44,3.78h.26a59,59,0,0,1,6-.65c2-.17,4.17-.33,6.26-.33-.14.51-4.83,13.34-4.83,13.34h6.12s4.7-13.17,4.83-13.34c2.21,0,4.17.16,6.13.33a53,53,0,0,1,5.47.65H827l1.43-3.78h-.26A50.64,50.64,0,0,0,822.69,48.78Zm11.73,16.93h6.12l6.26-17.28h-6.16ZM523.62,48.78a84.2,84.2,0,0,0-9.12-.52c-3.13,0-6.67.33-9,.52h-.4c-1.95.17-5.59.51-7.81.82L496,53.19a4.65,4.65,0,0,0,1.7-.16c-.26.51-4.69,12.67-4.69,12.67h6.11s2.45-6.58,2.6-6.9h8.21c12.64,0,16.16-1,16.29-1.16h.14l2.86-8.06h-.13A50.23,50.23,0,0,0,523.62,48.78Zm-2.36,6.07c-2.74.16-6.12.32-10.16.32H503a19.61,19.61,0,0,1,.91-2.46,83.66,83.66,0,0,1,9.23-.33,77.27,77.27,0,0,1,8.87.33C521.91,53,521.26,54.68,521.26,54.85Z"/></svg>