<svg xmlns="http://www.w3.org/2000/svg" xmlns:xlink="http://www.w3.org/1999/xlink" viewBox="0 0 1000 114"><defs><radialGradient id="Degradado_sin_nombre" cx="139.85" cy="653.41" r="172.67" gradientTransform="translate(-0.04 -642.13)" gradientUnits="userSpaceOnUse"><stop offset="0" stop-color="#fff"/><stop offset="1"/></radialGradient><radialGradient id="Degradado_sin_nombre_2" cx="195.51" cy="-713.39" r="44.07" gradientTransform="matrix(1, 0, 0, -1, -0.18, -677.24)" gradientUnits="userSpaceOnUse"><stop offset="0.04" stop-color="#fff"/><stop offset="0.23" stop-color="#6e93e1"/><stop offset="1" stop-color="#363499"/></radialGradient><radialGradient id="Degradado_sin_nombre-2" cx="62.72" cy="-462.58" r="381.79" gradientTransform="matrix(1, 0, 0, -1, -0.09, -281.76)" xlink:href="#Degradado_sin_nombre"/><linearGradient id="Degradado_sin_nombre_10" x1="289.58" y1="1129.32" x2="352.89" y2="1066.01" gradientTransform="translate(-0.13 -1037.61)" gradientUnits="userSpaceOnUse"><stop offset="0" stop-color="#999"/><stop offset="0.98" stop-color="#f3f3f3"/></linearGradient><linearGradient id="Degradado_sin_nombre_10-2" x1="356.84" y1="1123.96" x2="418.48" y2="1062.32" xlink:href="#Degradado_sin_nombre_10"/><linearGradient id="Degradado_sin_nombre_10-3" x1="415.45" y1="1130.49" x2="483.29" y2="1062.64" xlink:href="#Degradado_sin_nombre_10"/><linearGradient id="Degradado_sin_nombre_10-4" x1="493.57" y1="1133.12" x2="559.99" y2="1066.7" xlink:href="#Degradado_sin_nombre_10"/><linearGradient id="Degradado_sin_nombre_10-5" x1="586.7" y1="1130.46" x2="651.75" y2="1065.42" xlink:href="#Degradado_sin_nombre_10"/><linearGradient id="Degradado_sin_nombre_10-6" x1="661.62" y1="1138.4" x2="731.96" y2="1068.06" xlink:href="#Degradado_sin_nombre_10"/><linearGradient id="Degradado_sin_nombre_10-7" x1="709.88" y1="1122.58" x2="775.65" y2="1056.81" xlink:href="#Degradado_sin_nombre_10"/><linearGradient id="Degradado_sin_nombre_10-8" x1="778.61" y1="1128.68" x2="845.1" y2="1062.18" xlink:href="#Degradado_sin_nombre_10"/><linearGradient id="Degradado_sin_nombre_10-9" x1="854.31" y1="1131.61" x2="921.28" y2="1064.64" xlink:href="#Degradado_sin_nombre_10"/><linearGradient id="Degradado_sin_nombre_10-10" x1="927.5" y1="1131.08" x2="992.54" y2="1066.03" xlink:href="#Degradado_sin_nombre_10"/></defs><title>logo_right</title><g id="Layer_2" data-name="Layer 2"><rect x="423.35" y="35.36" width="54.43" height="34.44" fill="#fff"/><rect x="498.24" y="38.47" width="39.74" height="20.41" fill="#fff"/><rect x="682.28" y="42.81" width="26.39" height="18.32" fill="#fff"/><rect x="862.28" y="42.81" width="44" height="17.28" fill="#fff"/><rect x="715.47" y="45" width="26.22" height="33.19" fill="#fff"/><rect x="398.86" y="41.89" width="12.68" height="9.33" fill="#fff"/><rect x="404.78" y="63.64" width="7.33" height="9.17" fill="#fff"/><rect x="917.78" y="66.81" width="6.04" height="6.04" fill="#fff"/></g><g id="Capa_1" data-name="Capa 1"><path d="M187.38,110.5a53.41,53.41,0,0,1-25.69-6.6l-1.69.25a146.84,146.84,0,0,1-17.77,1.18c-4.21,0-7.71-.22-11.1-.44l-1.49-.09c-7.67-.48-11.76-4.07-11.52-10.11.12-3.08,2.59-9,11.09-9.62a21.65,21.65,0,0,1,2.3-.09c1.22,0,2.85,0,4.73.09,1.67.05,3.63.1,5.7.13q-1.4-2.25-2.57-4.62l-.89.14-1.3.2-.61-3.45.5,3.47-.15,0a71.72,71.72,0,0,1-9.76.75c-7.47,0-13.1-1.61-16.73-4.77l2.22-2.7-2.33,2.61c-.31-.28-.56-.52-.81-.78l-.24-.26c-.22-.24-.42-.48-.62-.73s-.18-.23-.26-.34c-.21-.29-.42-.6-.61-.91a1.76,1.76,0,0,1-.14-.23.56.56,0,0,1,0-.08c-2.75-4.81-1.92-11.95,2.12-18.21,3.49-5.42,5.87-7.63,10.84-11.74a85,85,0,0,1,15.59-9.85c1.16-.59,2.57-1.27,4.12-2a53.44,53.44,0,0,1,73.68-21.15c3.42-.41,6.8-.74,10.07-1,3.68-.23,6.86-.34,9.74-.34a94.33,94.33,0,0,1,10.38.54,11.7,11.7,0,0,1,7.67,3.56A9.62,9.62,0,0,1,254,20.75a9.83,9.83,0,0,1-3.55,6.51l-.11.1c-2.59,2-6.66,2.15-7.85,2.15-.36,0-.71,0-1,0-2.95-.2-5.77-.32-8.42-.34.63,1,1.23,2.08,1.79,3.15,3.39-.58,6.06-.88,7.49-1,.95-.09,2.93-.28,5.24-.28,6.91,0,12.17,1.64,15.64,4.89,6.24,5.83,4.35,16.64-.74,24.29-4.49,6.75-11,14.07-27.87,22A53.3,53.3,0,0,1,187.38,110.5Zm53.18-59.34c.13,1.23.23,2.46.28,3.68a27.39,27.39,0,0,0,3.85-4.26C243.43,50.71,242.05,50.9,240.56,51.16Z" fill="#484848"/><path d="M187.38,7a49.75,49.75,0,0,1,25.82,7.19c3.78-.48,7.44-.84,11-1.09s6.71-.33,9.51-.33a91.45,91.45,0,0,1,10.08.53,8.45,8.45,0,0,1,5.3,2.33,6.13,6.13,0,0,1,1.39,4.71,6.45,6.45,0,0,1-2.33,4.25c-1.29,1-3.76,1.42-5.71,1.42-.28,0-.55,0-.8,0-1.28-.09-5.17-.35-9.65-.35-2,0-3.91.05-5.62.16a50.5,50.5,0,0,1,6.43,10.41c4.48-.87,8-1.28,9.8-1.45h0c.9-.08,2.76-.26,4.9-.26,6,0,10.45,1.33,13.25,3.94,4.76,4.46,2.9,13.53-1.27,19.8C255.22,64.7,248.88,71.75,232,79.5a49.92,49.92,0,0,1-69.65,20.76l-2.87.43a143.12,143.12,0,0,1-17.26,1.14c-4.07,0-7.53-.22-10.88-.43l-1.49-.09c-8.48-.53-8.3-5-8.24-6.48.07-2,1.83-5.89,7.92-6.27a14.89,14.89,0,0,1,2-.08c1.2,0,2.79,0,4.63.09,2.47.07,5.54.15,8.68.15,1.38,0,2.67,0,3.9,0a50.29,50.29,0,0,1-7.3-12h0c-.6.12-1.24.24-1.9.35l-.25,0-1.31.22-1.26.19-.24,0a67.36,67.36,0,0,1-9.28.72c-6.63,0-11.46-1.32-14.43-3.91l-.12-.09c-.2-.18-.39-.37-.57-.56l-.18-.19c-.16-.18-.31-.36-.46-.55l-.19-.23c-.17-.24-.33-.49-.48-.74l-.06-.09h0c-2.12-3.63-1.33-9.52,2-14.64s5.36-7,10.13-10.94a81.59,81.59,0,0,1,14.94-9.43c1.36-.69,3.1-1.53,5.09-2.45A50,50,0,0,1,187.38,7m49.74,55.12c9.06-6,12.48-11.78,13.07-15.09a20.33,20.33,0,0,0-2.34-.13,54.58,54.58,0,0,0-9.75,1.15l-1.42.32-.05,0a49.86,49.86,0,0,1,.76,8.61,48.08,48.08,0,0,1-.27,5.12M126.78,66a41.9,41.9,0,0,0,6.18-.53h.11l1.51-.25.34-.06,1.45-.28.48-.09,1.11-.25a49.42,49.42,0,0,1-.57-7.55,50.21,50.21,0,0,1,.31-5.52,82.18,82.18,0,0,0-7.29,4.9c-3.25,2.46-6.68,6.35-6.89,9.36a15.07,15.07,0,0,0,3.26.28m60.6-66a56.76,56.76,0,0,0-49.64,29c-1.18.56-2.26,1.09-3.18,1.55a88.82,88.82,0,0,0-16.23,10.28c-5.17,4.26-7.82,6.73-11.56,12.54-4.74,7.34-5.61,15.89-2.23,21.83a.75.75,0,0,1,.07.12,3.37,3.37,0,0,0,.21.34q.36.58.75,1.11c.11.16.23.3.34.44.26.33.51.63.77.92l.3.31c.31.33.64.65,1,.94l.18.16a23.08,23.08,0,0,0,11.93,5.11,13.08,13.08,0,0,0-5.44,9.86c-.31,8,5.22,13.15,14.8,13.74l1.49.1c3.27.2,7,.44,11.32.44a150.69,150.69,0,0,0,18.09-1.19l.19,0,.55-.08a56.93,56.93,0,0,0,76-22.69c16.9-8.11,23.59-15.71,28.26-22.74,5.91-8.88,7.88-21.62.22-28.79a21.6,21.6,0,0,0-11-5.23,13.32,13.32,0,0,0,0-16.94l0,0c-2.68-3.17-7-4.55-10-4.78a98.12,98.12,0,0,0-10.71-.56c-2.95,0-6.2.11-9.95.35-3,.2-6,.48-9.14.84a56.86,56.86,0,0,0-27.28-7Z" fill="#fff"/><path d="M323.27,96.37a125,125,0,0,1-12.57-.64,72.65,72.65,0,0,1-13.95-2.81,11.25,11.25,0,0,1-6.23-5.11c0-.09-.1-.18-.14-.27a11.08,11.08,0,0,1-.66-8.35,10.37,10.37,0,0,1,5.46-6.32,10.13,10.13,0,0,1,4.89-1.22,10.67,10.67,0,0,1,3.32.52,61.94,61.94,0,0,0,9.81,1.9,82.23,82.23,0,0,0,9.44.49l2.55,0a48.43,48.43,0,0,0,9.7-1.14,10.9,10.9,0,0,0,2.44-.91,2.74,2.74,0,0,1-.09-.39v0a9.35,9.35,0,0,0-1.56-1.53,68,68,0,0,0-10.17-.82h-.11c-1-.05-1.93-.07-3.07-.1H322l-3.25-.09h-1.51c-2.3,0-4,0-5.1-.11-6.27-.12-10.14-.7-12.48-1.9a30.57,30.57,0,0,1-6.28-3.84,4.41,4.41,0,0,1-.75-.53,24.63,24.63,0,0,1-6.22-7.85,4.91,4.91,0,0,1-.34-.95,19,19,0,0,1-1.27-11.39c.62-4.05,2.61-8,6.06-12.06,5.34-6.82,14.21-10.28,26.38-10.28,8.6,0,19.18,1.74,31.46,5.19l.16,0a11.36,11.36,0,0,1,6.34,5.05c0,.05.05.1.08.14a10.4,10.4,0,0,1,.9,8.34A10.32,10.32,0,0,1,351,45.77a10,10,0,0,1-5.24,1.45,12.19,12.19,0,0,1-2.87-.36l-.14,0c-10-2.86-18.29-4.31-24.61-4.31-5.19,0-9,1-11,2.91a3.91,3.91,0,0,0-.6.77c.12.12.27.27.46.43a5.53,5.53,0,0,0,1.11.72c.6.06,1.9.14,4.75.22h.21c1,.09,3.12.09,5.85.09h.11l3.46.09c1.43,0,2.67.06,3.73.12a100.86,100.86,0,0,1,14,1.32l.45.06c8.18,1.75,13,4.87,15.34,9.84l.31.68a32.31,32.31,0,0,1,2.13,5.1,18.35,18.35,0,0,1,.95,6c0,.34,0,.62,0,.88v.5a20.6,20.6,0,0,1-1.38,7.47,4,4,0,0,1-.24.71,30.25,30.25,0,0,1-4.17,6.49,6,6,0,0,1-.6.63c-2.68,3.15-7,5.48-12.86,7a74.65,74.65,0,0,1-14.41,1.83Z" fill="#484848"/><path d="M317.28,24.08c8.28,0,18.55,1.7,30.52,5.06a7.8,7.8,0,0,1,4.44,3.53,6.83,6.83,0,0,1,.63,5.68,6.86,6.86,0,0,1-3.6,4.39,6.38,6.38,0,0,1-3.47,1,8.93,8.93,0,0,1-2.05-.26c-10.39-3-18.95-4.45-25.57-4.45-6.2,0-10.69,1.3-13.38,3.89a6.73,6.73,0,0,0-1.9,3.26A1,1,0,0,0,303,47a1.33,1.33,0,0,1,.21.47,8,8,0,0,0,1.55,1.75,10.4,10.4,0,0,0,2.41,1.49c1,.19,4.26.29,5.68.33,1.13.1,3.24.1,6.16.1l3.49.09c1.41,0,2.61.06,3.6.12a95.19,95.19,0,0,1,13.77,1.29l.24,0c6.95,1.48,11,4,12.84,7.87l.3.67a28.37,28.37,0,0,1,2,4.73A15.09,15.09,0,0,1,356,71c0,.36,0,.69,0,1v.3a17.32,17.32,0,0,1-1.24,6.42,1.35,1.35,0,0,1-.09.32,26.78,26.78,0,0,1-3.69,5.7,1.55,1.55,0,0,1-.33.3c-2.17,2.71-5.95,4.75-11.25,6.07a70.15,70.15,0,0,1-13.69,1.73l-2.49,0a117.8,117.8,0,0,1-12.21-.63,67.62,67.62,0,0,1-13.21-2.65,7.73,7.73,0,0,1-4.3-3.53,7.57,7.57,0,0,1-.51-5.75A6.89,6.89,0,0,1,296.79,76a6.63,6.63,0,0,1,3.28-.83,7.24,7.24,0,0,1,2.28.36,65,65,0,0,0,10.43,2,85.39,85.39,0,0,0,9.86.52l2.63,0a51.19,51.19,0,0,0,10.5-1.26,10.55,10.55,0,0,0,3.88-1.67,1.51,1.51,0,0,1,.26-.18,6.41,6.41,0,0,1,.52-.43c.27-.21.34-.26.46-1.06a6,6,0,0,0,.09-1.32.6.6,0,0,1-.09-.13h0a1.6,1.6,0,0,1-.2-.51l-.1-.56v0a9.37,9.37,0,0,0-3.71-3.65,61.07,61.07,0,0,0-11.3-1c-1-.06-2.09-.08-3.33-.11L318.85,66h-1.59c-2.31,0-3.93,0-4.89-.11-5.68-.1-9.36-.6-11.14-1.55a27.33,27.33,0,0,1-5.91-3.65,1.48,1.48,0,0,1-.35-.21,21.24,21.24,0,0,1-5.37-6.73,1.48,1.48,0,0,1-.13-.5,15.68,15.68,0,0,1-1.18-9.74c.52-3.42,2.26-6.84,5.32-10.43,4.62-5.95,12.6-9,23.67-9m0-7c-13.27,0-23.06,3.89-29.09,11.57-3.84,4.53-6.07,9-6.8,13.69a22.73,22.73,0,0,0,1.4,13.12,8.63,8.63,0,0,0,.5,1.31,28.15,28.15,0,0,0,7.1,9,8.77,8.77,0,0,0,1.05.76A33.77,33.77,0,0,0,295.13,69a14.46,14.46,0,0,0-1.55.71,13.91,13.91,0,0,0-7.2,8.4A14.49,14.49,0,0,0,287.21,89c.09.18.18.36.28.53a14.65,14.65,0,0,0,8.13,6.67,74.36,74.36,0,0,0,14.6,3l.13,0a129.12,129.12,0,0,0,12.92.66l2.59,0H326a77,77,0,0,0,15.07-1.93c6.52-1.63,11.4-4.28,14.56-7.9a9,9,0,0,0,.79-.84l0-.05a33.72,33.72,0,0,0,4.63-7.24,8.59,8.59,0,0,0,.39-1.07,24.2,24.2,0,0,0,1.54-8.51v-.38c0-.13,0-.26,0-.4s0-.44,0-.69v-.06a22.15,22.15,0,0,0-1.12-7,37.19,37.19,0,0,0-2.26-5.45l0,0-.3-.65a18.24,18.24,0,0,0-7.73-8.19,11,11,0,0,0,1.22-.65,13.77,13.77,0,0,0,6.79-8.47,13.8,13.8,0,0,0-1.18-11,2.54,2.54,0,0,0-.16-.28A14.77,14.77,0,0,0,350,22.49l-.31-.09c-12.59-3.53-23.49-5.32-32.41-5.32Z" fill="#fff"/><path d="M365.54,93.3A11.08,11.08,0,0,1,354.6,82.38V32.64a10.89,10.89,0,0,1,10.94-10.91h40a11.2,11.2,0,0,1,7.62,3l.21.21a11.06,11.06,0,0,1,3.11,7.72,10.62,10.62,0,0,1-3.15,7.67,10.86,10.86,0,0,1-7.79,3.24H376.49v3.05h20.05a11.15,11.15,0,0,1,7.64,3l.21.2a11.09,11.09,0,0,1,3.1,7.72,10.77,10.77,0,0,1-3.15,7.67,10.89,10.89,0,0,1-7.8,3.24H376.49v3h29.06a11.2,11.2,0,0,1,7.61,3l.24.24a11.16,11.16,0,0,1,3.09,7.72,10.71,10.71,0,0,1-3.16,7.68,10.86,10.86,0,0,1-7.78,3.23Z" fill="#484848"/><path d="M405.55,25.23a7.23,7.23,0,0,1,7.44,7.4,7.1,7.1,0,0,1-2.12,5.2A7.35,7.35,0,0,1,405.55,40H373V50.09h23.55A7.26,7.26,0,0,1,404,57.51a7.41,7.41,0,0,1-7.45,7.41H373V75h32.56A7.23,7.23,0,0,1,413,82.39a7.23,7.23,0,0,1-2.13,5.2,7.31,7.31,0,0,1-5.31,2.21h-40a7,7,0,0,1-5.26-2.26,6.94,6.94,0,0,1-2.18-5.16V32.64a7.2,7.2,0,0,1,2.23-5.3,7.29,7.29,0,0,1,5.21-2.11h40m0-7h-40A14.41,14.41,0,0,0,351.1,32.64V82.38A14.56,14.56,0,0,0,365.54,96.8h40A14.39,14.39,0,0,0,420,82.39a14.79,14.79,0,0,0-4-10.09c-.15-.16-.31-.31-.47-.46a14.72,14.72,0,0,0-9-3.85l.32-.31A14.25,14.25,0,0,0,411,57.51a14.67,14.67,0,0,0-4-10.09l-.41-.41a14.3,14.3,0,0,0,9.24-4.2A14.08,14.08,0,0,0,420,32.63a14.66,14.66,0,0,0-4-10.09,5.81,5.81,0,0,0-.43-.43,14.6,14.6,0,0,0-10-3.88Z" fill="#fff"/><path d="M449.06,97.79a40.66,40.66,0,0,1-16-3.2A33.15,33.15,0,0,1,421,86.15a3.71,3.71,0,0,1-.58-.54,36.92,36.92,0,0,1-7.94-13.68,45,45,0,0,1-2.24-16.2l0-.84c.18-4.66.28-7.47,2.08-12.2,1.74-4.57,3.31-8.32,6.25-11.52a31.75,31.75,0,0,1,10-8.19,32.92,32.92,0,0,1,9.56-3.27c.77-.16,1.6-.33,2.58-.56l.19,0a58.27,58.27,0,0,1,10.1-.92,47.63,47.63,0,0,1,28.36,9.1,11.29,11.29,0,0,1,4.48,7.28,11.74,11.74,0,0,1-1.58,8.31,11,11,0,0,1-6.71,5l-.19,0a10.46,10.46,0,0,1-8.41-1.74c-5.13-3.77-10.16-5.58-15.45-5.58a24.28,24.28,0,0,0-5.79.72l-.41.08-1.15.3a28.3,28.3,0,0,0-6.39,2.16,8.44,8.44,0,0,0-2.87,2.55h0a4.72,4.72,0,0,1-.51.65,5.89,5.89,0,0,0-1.26,2.49,24.58,24.58,0,0,0-1,7,22.39,22.39,0,0,0,1,7.88,15,15,0,0,0,3.15,5.48,13,13,0,0,0,5,3.54,4.65,4.65,0,0,1,.59.3,20.91,20.91,0,0,0,7.29,1.26c6.29,0,11.13-1.06,14.13-3.07H451.06a10.34,10.34,0,0,1-7.86-3.56,11.2,11.2,0,0,1-3.08-7.86,11.42,11.42,0,0,1,3.11-8A10.57,10.57,0,0,1,451.06,49H477a10.72,10.72,0,0,1,7.41,2.9l.21.2a11.48,11.48,0,0,1,3.31,7.33c1.12,12.65-2.07,22.38-9.47,28.92C472.17,94.63,462.28,97.79,449.06,97.79Z" fill="#484848"/><path d="M450.94,21.69a44.22,44.22,0,0,1,26.32,8.44,7.76,7.76,0,0,1,3.07,5A8.1,8.1,0,0,1,479.22,41a7.44,7.44,0,0,1-4.64,3.42,7.32,7.32,0,0,1-1.54.17,7.14,7.14,0,0,1-4.14-1.36q-8.46-6.23-17.46-6.21a27.58,27.58,0,0,0-6.62.82l-.25,0-1.36.35a31.93,31.93,0,0,0-7.08,2.42,11.93,11.93,0,0,0-4.23,3.76,1.49,1.49,0,0,1-.15.2,9.31,9.31,0,0,0-2.07,3.94,28.24,28.24,0,0,0-1.14,7.8,25.77,25.77,0,0,0,1.22,9.1,18.2,18.2,0,0,0,3.89,6.72,16.39,16.39,0,0,0,6.18,4.4,1.55,1.55,0,0,1,.35.21,24.37,24.37,0,0,0,8.88,1.62c7.93,0,13.76-1.55,17.32-4.62a11.49,11.49,0,0,0,2.92-5.45H451.06a6.87,6.87,0,0,1-5.3-2.45,7.64,7.64,0,0,1-2.14-5.47,7.93,7.93,0,0,1,2.18-5.62,7.11,7.11,0,0,1,5.26-2.29H477a7.29,7.29,0,0,1,5.07,2,8,8,0,0,1,2.37,5.2c1,11.54-1.79,20.33-8.38,26.11-5.58,5.59-14.68,8.45-27,8.45a37,37,0,0,1-14.64-2.92,29.85,29.85,0,0,1-11.14-7.86,1.59,1.59,0,0,1-.33-.25,33.75,33.75,0,0,1-7.2-12.42,41.88,41.88,0,0,1-2.06-15l0-.84c.17-4.59.26-6.9,1.85-11.08,1.67-4.37,3-7.67,5.58-10.43a28.42,28.42,0,0,1,8.91-7.39,29.34,29.34,0,0,1,8.73-3c.78-.16,1.64-.34,2.66-.58a54.55,54.55,0,0,1,9.49-.87m0-7a62.25,62.25,0,0,0-10.71,1l-.39.08c-.92.22-1.71.39-2.47.54A36.67,36.67,0,0,0,427,19.85a34.66,34.66,0,0,0-11,9c-3.32,3.64-5,7.68-6.88,12.58-2,5.26-2.12,8.46-2.3,13.31l0,.84A48.68,48.68,0,0,0,409.1,73a40.61,40.61,0,0,0,8.71,15,9.69,9.69,0,0,0,.73.7,36.77,36.77,0,0,0,13.19,9.12,44,44,0,0,0,17.33,3.46c14.13,0,24.82-3.48,31.79-10.34,5.7-5.07,12.07-14.67,10.57-31.74a14.86,14.86,0,0,0-4.25-9.47c-.13-.14-.27-.27-.41-.4a15.1,15.1,0,0,0-3.32-2.3,15.44,15.44,0,0,0,1.74-2.32A15.18,15.18,0,0,0,487.24,34V34a14.87,14.87,0,0,0-5.79-9.45l-.1-.08a51.07,51.07,0,0,0-30.4-9.75Zm-5,30.1.4-.08.13,0a20.84,20.84,0,0,1,4.95-.62,19.5,19.5,0,0,1,7.4,1.48h-7.78a14,14,0,0,0-10.39,4.53,14.8,14.8,0,0,0-4.05,10.38,15.43,15.43,0,0,0,1,5.47,12.3,12.3,0,0,1-1.22-2.64,18.91,18.91,0,0,1-.86-6.68,21,21,0,0,1,.89-6.13,2.81,2.81,0,0,1,.46-1.07,8.4,8.4,0,0,0,.84-1.07A5.21,5.21,0,0,1,439.25,47a25.43,25.43,0,0,1,5.68-1.89l1-.27Z" fill="#fff"/><path d="M549.53,95.19A10.37,10.37,0,0,1,543.22,93a10.7,10.7,0,0,1-4.3-6.93s0-.09,0-.13c-.62-4.12-1.28-8-2-11.66H506.19c-.57,3-1.12,6.27-1.63,9.63,0,0,0,.07,0,.11a11.06,11.06,0,0,1-4.27,7l-.09.06a10.81,10.81,0,0,1-6.38,2.15,11.22,11.22,0,0,1-8.91-4.48,10.6,10.6,0,0,1-2-8c6.37-41.93,19-63.15,37.63-63.15.41,0,.81,0,1.22,0l1.1,0c18.75,0,31.1,21.27,37.74,65,0,0,0,.08,0,.12a11,11,0,0,1-2.09,8l-.07.1A10.63,10.63,0,0,1,551.27,95,9.64,9.64,0,0,1,549.53,95.19ZM531.1,52.49c-4.1-10.68-7.92-12.63-9.45-13-2.13.4-5.78,2.79-9.67,13Z" fill="#484848"/><path d="M520.5,21.13c.42,0,.84,0,1.27,0,.23,0,.64,0,1.05,0,16.73,0,27.94,20.3,34.28,62.05a7.51,7.51,0,0,1-1.45,5.54,7,7,0,0,1-4.91,2.86,6.24,6.24,0,0,1-1.21.11,6.9,6.9,0,0,1-4.23-1.49,7.2,7.2,0,0,1-2.94-4.76c-.79-5.26-1.64-10.16-2.56-14.64H503.32c-.8,3.93-1.55,8.16-2.22,12.61a7.52,7.52,0,0,1-3,4.8,7.36,7.36,0,0,1-4.34,1.5,7,7,0,0,1-1.29-.12,6.86,6.86,0,0,1-4.81-3,7.1,7.1,0,0,1-1.37-5.4c6.06-39.9,17.51-60.1,34.16-60.1M507.06,56h29c-4-12.56-8.94-19.46-14.36-20-5.66.54-10.57,7.27-14.61,20M520.5,14.13c-11,0-20.12,6.27-27.14,18.63-6.19,10.9-10.75,26.41-13.94,47.41a.78.78,0,0,1,0,.16,14.46,14.46,0,0,0,12.05,16.18,14.55,14.55,0,0,0,2.36.2,14.24,14.24,0,0,0,8.41-2.8l.18-.13a14.64,14.64,0,0,0,5.59-9.1,1.85,1.85,0,0,1,0-.23q.51-3.42,1.08-6.65H534c.5,2.76,1,5.66,1.43,8.68,0,.08,0,.17,0,.26a14.31,14.31,0,0,0,5.65,9.09,14.47,14.47,0,0,0,20-2.83,1.3,1.3,0,0,0,.15-.2,14.48,14.48,0,0,0,2.72-10.43l0-.24c-3.32-21.9-7.92-37.94-14-49-7-12.6-16.1-19-27.17-19q-.62,0-1.11,0l-1.21,0ZM517.35,49c1.75-3.43,3.26-5.06,4.22-5.69.78.57,2.31,2.05,4.17,5.69Z" fill="#fff"/><path d="M621.88,96.34a124.82,124.82,0,0,1-12.68-.65,72.86,72.86,0,0,1-14.07-2.83,11.24,11.24,0,0,1-6.27-5.15,2.15,2.15,0,0,1-.14-.26,11.16,11.16,0,0,1-.67-8.4,10.49,10.49,0,0,1,5.5-6.36,10.31,10.31,0,0,1,4.92-1.22,10.8,10.8,0,0,1,3.34.53,61.22,61.22,0,0,0,9.89,1.91,83,83,0,0,0,9.42.5c.88,0,1.77,0,2.66,0a48.88,48.88,0,0,0,9.8-1.15,10.75,10.75,0,0,0,2.49-.93c0-.15-.07-.3-.1-.46h0a9.08,9.08,0,0,0-1.6-1.57,68,68,0,0,0-10.26-.83H624c-1,0-2-.07-3.17-.1h-.15c-1,0-2.1,0-3.32-.1h-1.58c-2.29,0-4,0-5.07-.11-6.34-.12-10.24-.71-12.6-1.92a30.47,30.47,0,0,1-6.34-3.88,4.72,4.72,0,0,1-.71-.5,24.68,24.68,0,0,1-6.29-7.93,5,5,0,0,1-.35-1,19.26,19.26,0,0,1-1.28-11.47c.63-4.09,2.63-8.06,6.11-12.15C594.61,23.44,603.55,20,615.82,20c8.66,0,19.33,1.76,31.72,5.23l.15,0a11.43,11.43,0,0,1,6.38,5.07l.09.15a10.49,10.49,0,0,1,.91,8.38,10.35,10.35,0,0,1-5.22,6.47,9.93,9.93,0,0,1-5.27,1.47,12.23,12.23,0,0,1-2.89-.36l-.13,0C631.46,43.49,623.1,42,616.73,42c-5.24,0-9.07,1-11.07,2.94a3.83,3.83,0,0,0-.62.8l.47.44a5.69,5.69,0,0,0,1.15.74c.6.06,1.91.14,4.77.22h.24c1,.09,3.15.09,5.89.09h.12c1.4,0,2.61.08,3.68.1,1.38,0,2.56.06,3.55.12a101.4,101.4,0,0,1,14.14,1.32c.15,0,.33,0,.51.08,8.18,1.75,13.07,4.89,15.4,9.89l.32.7a33.79,33.79,0,0,1,2.14,5.12,18.83,18.83,0,0,1,1,6.1l0,.38c0,.17,0,.34,0,.5h0c0,.21,0,.46,0,.51a21,21,0,0,1-1.39,7.5,4.23,4.23,0,0,1-.24.71,30.4,30.4,0,0,1-4.21,6.54,4.38,4.38,0,0,1-.6.62c-2.69,3.17-7.05,5.53-13,7a74.72,74.72,0,0,1-14.53,1.85Z" fill="#484848"/><path d="M615.82,23.46c8.34,0,18.7,1.72,30.77,5.1a7.89,7.89,0,0,1,4.49,3.56,7,7,0,0,1,.63,5.73,6.9,6.9,0,0,1-3.62,4.44,6.55,6.55,0,0,1-3.51,1,9,9,0,0,1-2.06-.26c-10.48-3-19.11-4.49-25.79-4.49-6.25,0-10.78,1.31-13.49,3.92a6.81,6.81,0,0,0-1.92,3.29,1,1,0,0,0,.1.86,1.63,1.63,0,0,1,.2.47,8.17,8.17,0,0,0,1.57,1.76,10.36,10.36,0,0,0,2.43,1.51c1.06.2,4.43.29,5.73.33,1.14.1,3.27.1,6.21.1,1.42,0,2.64.08,3.73.1,1.33,0,2.47.06,3.42.11a98.77,98.77,0,0,1,13.89,1.31.83.83,0,0,1,.24,0c7,1.49,11.12,4,12.94,7.94l.32.69a29.13,29.13,0,0,1,2,4.74,15.49,15.49,0,0,1,.79,5.12q0,.52,0,1a2.81,2.81,0,0,1,0,.29,17.44,17.44,0,0,1-1.25,6.48,1.44,1.44,0,0,1-.09.33,26.71,26.71,0,0,1-3.72,5.74,1.24,1.24,0,0,1-.34.31c-2.18,2.72-6,4.78-11.34,6.11a70.29,70.29,0,0,1-13.81,1.76l-2.49,0c-4.07,0-8.1-.21-12.34-.63a68.58,68.58,0,0,1-13.32-2.68A7.74,7.74,0,0,1,591.89,86a7.63,7.63,0,0,1-.52-5.79,7,7,0,0,1,3.78-4.36,6.77,6.77,0,0,1,3.32-.84,7.37,7.37,0,0,1,2.3.37,65.48,65.48,0,0,0,10.51,2,88.36,88.36,0,0,0,9.84.52c.91,0,1.83,0,2.75,0a52.54,52.54,0,0,0,10.6-1.26,11.72,11.72,0,0,0,3.91-1.69,2.2,2.2,0,0,1,.25-.17c.2-.19.39-.33.54-.45s.34-.26.46-1.06a5.53,5.53,0,0,0,.09-1.33,1.52,1.52,0,0,1-.3-.67l-.09-.56a.06.06,0,0,1,0,0A9.58,9.58,0,0,0,635.58,67a61.88,61.88,0,0,0-11.4-1c-1.06-.06-2.15-.08-3.43-.11-1,0-2.11,0-3.35-.1h-1.62c-2.32,0-3.94,0-4.91-.11-5.73-.1-9.44-.61-11.24-1.57a27.4,27.4,0,0,1-6-3.68,1.71,1.71,0,0,1-.35-.21,21.3,21.3,0,0,1-5.41-6.79,1.5,1.5,0,0,1-.14-.5,15.87,15.87,0,0,1-1.19-9.82c.53-3.45,2.29-6.9,5.37-10.52,4.66-6,12.7-9.07,23.87-9.07m0-7c-13.37,0-23.22,3.92-29.3,11.65-3.86,4.56-6.1,9.07-6.84,13.77a22.87,22.87,0,0,0,1.42,13.21,7.93,7.93,0,0,0,.51,1.33,28.27,28.27,0,0,0,7.15,9l0,0a8.36,8.36,0,0,0,1,.69,33.17,33.17,0,0,0,3.86,2.62,13.31,13.31,0,0,0-1.67.76A14,14,0,0,0,584.71,78a14.57,14.57,0,0,0,.84,10.93c.08.18.18.35.27.52A14.65,14.65,0,0,0,594,96.17a75.16,75.16,0,0,0,14.7,3l.14,0c4.47.44,8.74.66,13,.66l2.64,0h.12a78.1,78.1,0,0,0,15.19-1.94c6.57-1.64,11.48-4.31,14.66-8a8.11,8.11,0,0,0,.85-.91A33.49,33.49,0,0,0,660,81.73a7.56,7.56,0,0,0,.39-1.07,24.31,24.31,0,0,0,1.55-8.57c0-.26,0-.5,0-.77,0-.12,0-.25,0-.38v-.35h0a22,22,0,0,0-1.12-7.07,37.44,37.44,0,0,0-2.3-5.52l-.31-.68a18.3,18.3,0,0,0-7.86-8.27,14.16,14.16,0,0,0,1.33-.71,13.84,13.84,0,0,0,6.82-8.51,13.94,13.94,0,0,0-1.19-11,2.75,2.75,0,0,0-.17-.29,14.84,14.84,0,0,0-8.28-6.59l-.31-.1c-12.69-3.56-23.68-5.36-32.66-5.36Z" fill="#fff"/><path d="M718.93,99.6a10.4,10.4,0,0,1-6.36-2.18,10.76,10.76,0,0,1-4.33-7s0-.09,0-.14c-.63-4.21-1.3-8.16-2-11.78h-31c-.58,3.06-1.14,6.32-1.66,9.74a.52.52,0,0,1,0,.11,11.15,11.15,0,0,1-4.28,7l-.1.07a10.52,10.52,0,0,1-8.2,2,11,11,0,0,1-9.17-12.57c6.58-42.68,19-63.42,37.82-63.42.42,0,.86,0,1.29,0s.67,0,1.1,0c18.9,0,31.34,21.44,38,65.54,0,0,0,.07,0,.11a11,11,0,0,1-2.09,8,.76.76,0,0,1-.08.11,10.8,10.8,0,0,1-7.15,4.22A11.32,11.32,0,0,1,718.93,99.6Zm-18.53-43c-3-7.85-6.38-12.54-9.58-13.12-2.15.38-5.86,2.78-9.81,13.12Z" fill="#484848"/><path d="M689.58,24.94c.44,0,.88,0,1.33,0a10.29,10.29,0,0,1,1.06,0c16.87,0,28.19,20.46,34.58,62.56a7.51,7.51,0,0,1-1.47,5.58A7.19,7.19,0,0,1,720.15,96a6.59,6.59,0,0,1-1.22.11,6.9,6.9,0,0,1-4.28-1.51,7.19,7.19,0,0,1-3-4.79c-.8-5.39-1.67-10.33-2.58-14.77H672.31c-.8,3.94-1.55,8.21-2.24,12.71a7.7,7.7,0,0,1-3,4.85,7.29,7.29,0,0,1-4.34,1.5,7.82,7.82,0,0,1-1.33-.12,6.88,6.88,0,0,1-4.87-3,6.78,6.78,0,0,1-1.35-5.53c6.27-40.66,17.54-60.52,34.37-60.51M676.09,60.08h29.23c-4.05-12.84-8.93-19.62-14.5-20.15-5.71.54-10.66,7.32-14.73,20.15m13.48-42.14c-11.07,0-20.23,6.24-27.22,18.55C656.19,47.32,651.6,63,648.3,84.28a14.5,14.5,0,0,0,12.12,16.62,15.81,15.81,0,0,0,2.34.19,14.24,14.24,0,0,0,8.4-2.8l.2-.15A14.67,14.67,0,0,0,677,89a1.43,1.43,0,0,0,0-.22c.36-2.33.73-4.59,1.11-6.76h25.22c.49,2.77,1,5.71,1.44,8.8,0,.09,0,.18,0,.27a14.31,14.31,0,0,0,5.7,9.14,14,14,0,0,0,8.43,2.86,14.57,14.57,0,0,0,2.3-.19,14.18,14.18,0,0,0,9.38-5.53c.06-.08.12-.15.17-.23a14.53,14.53,0,0,0,2.72-10.47l0-.23c-3.35-22.08-8-38.24-14.15-49.4-7-12.68-16.21-19.11-27.35-19.11l-1.11,0-1.28,0h0Zm-3.2,35.14c1.85-3.65,3.45-5.31,4.43-5.91.91.6,2.46,2.27,4.28,5.91Z" fill="#fff"/><path d="M746.29,98.6a11.13,11.13,0,0,1-11-11V46.43H720.07a11.13,11.13,0,0,1-11-11,11,11,0,0,1,11-11h52.44a11.22,11.22,0,0,1,7.67,3l.21.2a11.13,11.13,0,0,1,3.12,7.78,11,11,0,0,1-11,11H757.3V87.62a11,11,0,0,1-11,11Z" fill="#484848"/><path d="M772.51,28a7.3,7.3,0,0,1,7.5,7.47,7.46,7.46,0,0,1-7.5,7.48H753.8V87.62a7.49,7.49,0,0,1-7.51,7.48A7.14,7.14,0,0,1,741,92.83a7,7,0,0,1-2.2-5.21V42.93H720.07a7.11,7.11,0,0,1-5.31-2.28,7,7,0,0,1-2.2-5.2,7.33,7.33,0,0,1,2.24-5.34A7.45,7.45,0,0,1,720.07,28h52.44m0-7H720.07a14.4,14.4,0,0,0-10.18,4.14l0,0a14.25,14.25,0,0,0-4.29,10.29,14,14,0,0,0,4.25,10.15,14,14,0,0,0,10.26,4.33h11.71V87.62a14.63,14.63,0,0,0,14.51,14.48A14.49,14.49,0,0,0,760.8,87.62V49.93h11.71A14.48,14.48,0,0,0,787,35.45a14.67,14.67,0,0,0-4-10.14,5.55,5.55,0,0,0-.42-.42,14.68,14.68,0,0,0-10-3.91Z" fill="#fff"/><path d="M811.21,97.79A33.17,33.17,0,0,1,798,95.19,35.52,35.52,0,0,1,787.21,88l-.09-.1a33.52,33.52,0,0,1-6.85-10,4.51,4.51,0,0,1-.49-.92,35.21,35.21,0,0,1-2.57-13.06V34.15a11.13,11.13,0,0,1,11-11,11,11,0,0,1,11,11V63.94a12.67,12.67,0,0,0,.95,4.69,2.83,2.83,0,0,1,.11.31,14.31,14.31,0,0,0,2.45,3.45,11.31,11.31,0,0,0,3.66,2.47.94.94,0,0,1,.15.06,11.44,11.44,0,0,0,4.66.92h9A10.91,10.91,0,0,0,824.7,75l.2-.08a11.71,11.71,0,0,0,3.81-2.55,11.32,11.32,0,0,0,2.48-3.66c0-.05,0-.11.07-.17a10.87,10.87,0,0,0,.9-4.57V34.15a10.48,10.48,0,0,1,3.33-7.77,10.52,10.52,0,0,1,7.68-3.2,11,11,0,0,1,11,10.92V63.94a33.74,33.74,0,0,1-2.6,13.25,4.83,4.83,0,0,1-.35.68,35.74,35.74,0,0,1-6.91,10l-.1.1a36.08,36.08,0,0,1-10.08,6.92,5.58,5.58,0,0,1-.69.35,34.16,34.16,0,0,1-13.28,2.57Z" fill="#484848"/><path d="M843.17,26.68a7.49,7.49,0,0,1,7.52,7.46v29.8a30.28,30.28,0,0,1-2.33,11.9,1.35,1.35,0,0,1-.19.33,32.36,32.36,0,0,1-6.36,9.25,32.71,32.71,0,0,1-9.36,6.38,1.57,1.57,0,0,1-.31.18,30.86,30.86,0,0,1-12,2.31h-9A29.78,29.78,0,0,1,799.34,92a32.11,32.11,0,0,1-9.71-6.51,30,30,0,0,1-6.32-9.33,1.19,1.19,0,0,1-.28-.42,31.77,31.77,0,0,1-2.32-11.77V34.15a7,7,0,0,1,2.3-5.29,7,7,0,0,1,5.2-2.18,7.46,7.46,0,0,1,7.51,7.47V63.94a16.12,16.12,0,0,0,1.2,6,2.41,2.41,0,0,1,.08.25,17.46,17.46,0,0,0,3.26,4.7,14.65,14.65,0,0,0,4.9,3.25,14.82,14.82,0,0,0,6,1.21h9a14.51,14.51,0,0,0,6-1.18,15.18,15.18,0,0,0,5-3.34,15,15,0,0,0,3.28-4.88,14.49,14.49,0,0,0,1.2-6V34.15a7,7,0,0,1,2.3-5.29,7,7,0,0,1,5.21-2.18m0-7a14.63,14.63,0,0,0-14.51,14.47V63.94a7.55,7.55,0,0,1-.59,3.14c-.05.11-.1.23-.14.34a7.87,7.87,0,0,1-1.69,2.43,8,8,0,0,1-2.58,1.77l-.39.16a7.62,7.62,0,0,1-3.09.56h-9a7.81,7.81,0,0,1-3.28-.64l-.29-.12a7.43,7.43,0,0,1-2.43-1.67,10.59,10.59,0,0,1-1.69-2.34,2,2,0,0,0-.08-.22,9.3,9.3,0,0,1-.71-3.41V34.15a14.46,14.46,0,0,0-14.51-14.47,14.61,14.61,0,0,0-14.5,14.47V63.94a38.72,38.72,0,0,0,2.8,14.32,8.71,8.71,0,0,0,.67,1.33,37.28,37.28,0,0,0,7.42,10.74l.18.18a39.11,39.11,0,0,0,11.8,7.9,36.76,36.76,0,0,0,14.63,2.88h9a37.66,37.66,0,0,0,14.63-2.84,7.94,7.94,0,0,0,1-.48,39.61,39.61,0,0,0,10.87-7.49,1.89,1.89,0,0,0,.2-.2,39.44,39.44,0,0,0,7.5-10.79,8.93,8.93,0,0,0,.46-.93,37.2,37.2,0,0,0,2.88-14.62V34.06a14.49,14.49,0,0,0-14.52-14.38Z" fill="#fff"/><path d="M860.35,96.72a11.51,11.51,0,0,1-8-3.11A10.57,10.57,0,0,1,849,85.79V34a10.48,10.48,0,0,1,3.11-7.43,11.43,11.43,0,0,1,7.41-3.5c6.42-.5,12.44-.76,17.87-.76,11,0,20,1.07,26.74,3.17,18.2,5.35,21.62,16.33,21.27,24.62-.14,9.13-4.21,16.17-11.81,20.48l9.2,6.24A11.28,11.28,0,0,1,927.42,84a1.18,1.18,0,0,1,0,.2,10.89,10.89,0,0,1-2.12,8.08,11,11,0,0,1-7.6,4.34,11.06,11.06,0,0,1-8.24-2L877.4,72.74A10.77,10.77,0,0,1,873,67.11c0-.08,0-.16-.07-.24a10.86,10.86,0,0,1,5.24-12.4,11.22,11.22,0,0,1,5.88-1.55l1,0h.15a66.05,66.05,0,0,0,7.08.42A25.77,25.77,0,0,0,901.67,52c.58-.29.94-.58.91-1.78-.18-1.56-2-2.87-5.39-3.9-4.9-1.39-11.64-2.1-20-2.1-1.76,0-3.59,0-5.49.1v41.5a10.27,10.27,0,0,1-3.56,7.86A10.89,10.89,0,0,1,860.35,96.72Z" fill="#484848"/><path d="M877.36,25.78c10.68,0,19.27,1,25.7,3C916,32.59,922.33,39.72,921.88,50c-.13,8.64-4.13,14.87-11.9,18.49a27.73,27.73,0,0,1-3.63,1.44l14.45,9.79A7.66,7.66,0,0,1,924,84.6a7.43,7.43,0,0,1-1.45,5.53,7.5,7.5,0,0,1-5.29,3,8.15,8.15,0,0,1-1.26.1,7.57,7.57,0,0,1-4.46-1.46l-32.16-21.9a7.31,7.31,0,0,1-3-3.84,7.35,7.35,0,0,1,3.58-8.5,7.67,7.67,0,0,1,4.14-1.09c.24,0,.48,0,.73,0a70.83,70.83,0,0,0,7.46.44,28.56,28.56,0,0,0,10.86-1.72,5,5,0,0,0,3-5.19c-.27-3.18-2.84-5.5-7.87-7-5.28-1.49-12.32-2.25-21-2.25q-4.25,0-9,.24V85.79a6.86,6.86,0,0,1-2.44,5.29,7.45,7.45,0,0,1-5.45,2.14,8.09,8.09,0,0,1-5.6-2.18,7.09,7.09,0,0,1-2.28-5.25V34a7,7,0,0,1,2.12-5,7.81,7.81,0,0,1,5.14-2.44q9.59-.76,17.63-.76m0-7c-5.51,0-11.62.26-18.15.78a14.82,14.82,0,0,0-9.61,4.51,14,14,0,0,0-4.13,9.9V85.79A14,14,0,0,0,850,96.15a15.21,15.21,0,0,0,10.38,4.07,14.54,14.54,0,0,0,10.21-4,13.93,13.93,0,0,0,4.68-10.43V75.5l.22.15,32.08,21.86a14.71,14.71,0,0,0,8.45,2.7,15,15,0,0,0,2.24-.17,14.39,14.39,0,0,0,9.87-5.66l0,0a14.34,14.34,0,0,0,2.79-10.64c0-.13,0-.27-.07-.41a14.67,14.67,0,0,0-6-9.28l-.16-.11-5-3.37c5.86-4.94,9-11.85,9.13-20.35.32-7.83-2.39-21.77-23.78-28.08-7.06-2.2-16.39-3.31-27.73-3.31ZM875.24,47.7h2c8,0,14.35.66,19,2h0a34.71,34.71,0,0,1-4,.21,64.42,64.42,0,0,1-6.71-.4l-.29,0c-.4,0-.8,0-1.19,0a14.7,14.7,0,0,0-7.63,2c-.41.23-.81.48-1.19.74V47.7Z" fill="#fff"/><path d="M985.46,97.59a12.32,12.32,0,0,1-2-.17l-.25,0a11.52,11.52,0,0,1-5.56-3.11l-31.6-32.62v25a10.76,10.76,0,0,1-3.19,7.73,10.87,10.87,0,0,1-7.81,3.24,10.57,10.57,0,0,1-7.77-3.29,10.43,10.43,0,0,1-3.23-7.68V34.44A10.65,10.65,0,0,1,926,28.27a10,10,0,0,1,5-3.95,10.49,10.49,0,0,1,4.22-.84,12,12,0,0,1,1.9.15l.3.06a12.51,12.51,0,0,1,5.31,2.82,2.09,2.09,0,0,1,.22.2l31.5,32.68v-25a11,11,0,0,1,11-11,11.24,11.24,0,0,1,7.66,3l.21.21a11.15,11.15,0,0,1,3.14,7.77V86.62a10.55,10.55,0,0,1-1.87,6.11,11,11,0,0,1-4.76,4l-.35.13A12.28,12.28,0,0,1,985.46,97.59Z" fill="#484848"/><path d="M985.49,27A7.31,7.31,0,0,1,993,34.44V86.62a7,7,0,0,1-1.28,4.15,7.42,7.42,0,0,1-3.31,2.79A8.47,8.47,0,0,1,984,94a8.1,8.1,0,0,1-3.91-2.2L942.57,53V86.62a7.48,7.48,0,0,1-7.5,7.47,7.1,7.1,0,0,1-5.31-2.28,6.93,6.93,0,0,1-2.19-5.19V34.44a7.11,7.11,0,0,1,1.37-4.25,6.58,6.58,0,0,1,3.42-2.63,7.11,7.11,0,0,1,2.9-.58,8.78,8.78,0,0,1,1.35.11,9,9,0,0,1,3.86,2.05L978,68.06V34.44a7.31,7.31,0,0,1,2.24-5.34A7.44,7.44,0,0,1,985.49,27m0-7A14.46,14.46,0,0,0,971,34.44V50.72L945.51,24.28c-.14-.14-.28-.28-.43-.41a16,16,0,0,0-6.77-3.57q-.3-.07-.6-.12a15.38,15.38,0,0,0-2.45-.2,14.22,14.22,0,0,0-5.54,1.09,13.55,13.55,0,0,0-6.63,5.27,14.13,14.13,0,0,0-2.52,8.1V86.62a14.61,14.61,0,0,0,14.5,14.47,14.46,14.46,0,0,0,14.5-14.47V70.28L975.1,96.64l.11.11a15,15,0,0,0,7.2,4l.5.11a15.5,15.5,0,0,0,7.72-.68,5.8,5.8,0,0,0,.69-.27,14.51,14.51,0,0,0,6.21-5.25,14.1,14.1,0,0,0,2.47-8.06V34.44a14.69,14.69,0,0,0-4.08-10.15,4.16,4.16,0,0,0-.42-.42,14.69,14.69,0,0,0-10-3.9Z" fill="#fff"/><g id="Ebene_1" data-name="Ebene 1"><path d="M130,55.85a88.6,88.6,0,0,1,13.27-8.21,162.26,162.26,0,0,1,18-8v.1c6.58-2.49,13.55-4.78,20.8-6.78A205.8,205.8,0,0,1,204,27.89a157.38,157.38,0,0,1,21.09-2.67,121.67,121.67,0,0,1,16.68.09c2,.14,4.79-.28,6-1.23a5.74,5.74,0,0,0,2.1-3.82,5.43,5.43,0,0,0-1.24-4.2,7.81,7.81,0,0,0-4.87-2.1,108.35,108.35,0,0,0-19.46-.19,201.7,201.7,0,0,0-22.43,2.86c-7.54,1.33-15.17,3.15-22.81,5.25s-14.88,4.48-21.75,7.06c-7.16,2.77-14.89,6.27-19.28,8.49a81.71,81.71,0,0,0-14.81,9.35c-4.78,3.94-6.8,5.83-10,10.79s-3.93,10.58-2,13.95c5.07,8.66,23.14,5.82,30,4.49,5.53-1.15,12.31-2.7,20.42-5,5.91-1.81,13.45-4.2,22.61-7.25L207,56.33q12.47-4.15,20.33-6.3c6.4-1.91,17.75-4.62,23.6-3.56-.3,3.67-4.85,13.47-25.13,22.55a253.21,253.21,0,0,1-25.19,9.64h-.1c-7.15,2.28-14.5,4.29-22,6.1-7.35,1.72-14.22,3-20.81,4l.1-.09c-10.36,1.44-25.25.16-28.19.54-5.82.37-7.24,4-7.3,5.63s-.14,5.31,7.62,5.79a136.34,136.34,0,0,0,29.49-.61c9-1.33,14.13-2.38,21.66-4.1h.1c7.83-1.91,15.46-4,22.9-6.4a225.64,225.64,0,0,0,26.53-10.11c17.8-8,24.21-15.28,28.38-21.56s5.7-14.9,1.37-18.94c-5-4.64-14.39-3.81-17.63-3.51A107.38,107.38,0,0,0,224.19,39c-5.34,1.53-12.22,3.63-20.81,6.49l-22.71,7.44c-9.06,3-16.41,5.35-22.23,7.06-7.73,2.3-14.12,4-19.47,5.06-12.2,2.81-16.13,1.24-16.13,1.24C122.68,62.76,126.74,58.32,130,55.85Z" fill="url(#Degradado_sin_nombre)"/><path d="M142.23,101.83c-4.07,0-7.53-.22-10.88-.43l-1.49-.09c-8.48-.53-8.3-5-8.24-6.48.07-2,1.83-5.89,7.92-6.27a14.89,14.89,0,0,1,2-.08c1.2,0,2.79,0,4.63.09,2.47.07,5.54.15,8.68.15a95.42,95.42,0,0,0,12.86-.7.65.65,0,0,1,.31,0c7.67-1.23,14.14-2.48,20.34-3.94,8-1.91,15.17-3.91,22-6.09a.63.63,0,0,1,.19,0,246.77,246.77,0,0,0,25-9.58c17.95-8,23.86-16.92,24.66-21.38a20.33,20.33,0,0,0-2.34-.13c-5.68,0-14.22,2-20.32,3.77-5.19,1.41-12,3.53-20.3,6.29L184.51,64.4c-7.9,2.64-15.52,5.08-22.63,7.26-6.87,1.94-13.56,3.57-20.48,5a76.37,76.37,0,0,1-14.24,1.55c-8.47,0-14-2.14-16.49-6.36-2.12-3.63-1.33-9.52,2-14.64s5.36-7,10.13-10.94a81.59,81.59,0,0,1,14.94-9.43c4.18-2.12,12-5.69,19.34-8.52s14.53-5.08,21.81-7.08c8.35-2.3,15.83-4,22.87-5.27a202.68,202.68,0,0,1,22.5-2.87c3.6-.22,6.71-.33,9.51-.33a91.45,91.45,0,0,1,10.08.53,8.45,8.45,0,0,1,5.3,2.33,6.13,6.13,0,0,1,1.39,4.71,6.45,6.45,0,0,1-2.33,4.25c-1.47,1.13-4.49,1.53-6.51,1.39-1.28-.09-5.17-.35-9.65-.35-2.55,0-4.88.08-6.93.25a157.22,157.22,0,0,0-21,2.67,202.26,202.26,0,0,0-21.8,5c-7,1.94-14,4.21-20.75,6.76a.66.66,0,0,1-.34,0,159.54,159.54,0,0,0-17.62,7.85,86.85,86.85,0,0,0-13.17,8.15c-3.25,2.46-6.68,6.35-6.89,9.37a16,16,0,0,0,3.25.27,56.34,56.34,0,0,0,12-1.65c5-1,10.93-2.53,19.43-5.05,5.79-1.71,13.17-4.11,22.22-7.06l22.71-7.44c7.6-2.53,14.6-4.72,20.83-6.5a107.78,107.78,0,0,1,18.63-3.57c.9-.08,2.76-.26,4.9-.26,6,0,10.45,1.33,13.25,3.94,4.76,4.46,2.9,13.53-1.27,19.8-4.4,6.62-10.92,13.84-28.66,21.8a228.58,228.58,0,0,1-26.6,10.14c-7.13,2.29-14.64,4.38-22.95,6.41l-.16,0h0c-7.8,1.77-12.79,2.79-21.64,4.09A143.12,143.12,0,0,1,142.23,101.83Zm-10.72-12a15.5,15.5,0,0,0-1.84.07c-5.19.33-6.66,3.41-6.72,5s-.18,4.65,7,5.09l1.49.1c3.33.21,6.77.43,10.8.43a141.82,141.82,0,0,0,17.08-1.13c8.82-1.3,13.79-2.31,21.6-4.09l.14,0h0c8.25-2,15.7-4.09,22.78-6.36A226,226,0,0,0,230.3,78.82C247.75,71,254.12,64,258.41,57.49c3.92-5.89,5.54-14.27,1.47-18.09-2.55-2.37-6.69-3.58-12.34-3.58-2.08,0-3.9.18-4.78.26a105.48,105.48,0,0,0-18.38,3.52c-6.21,1.78-13.2,4-20.78,6.48l-22.72,7.45c-9.06,3-16.45,5.36-22.25,7.07-8.54,2.53-14.56,4.09-19.53,5.07a56.92,56.92,0,0,1-12.33,1.69,12.21,12.21,0,0,1-4.17-.49.67.67,0,0,1-.42-.58c-.19-4.08,4.57-8.81,7.42-11A88.35,88.35,0,0,1,143,47.05a160.46,160.46,0,0,1,18.1-8,.6.6,0,0,1,.35,0c6.69-2.51,13.59-4.75,20.51-6.66a203.23,203.23,0,0,1,21.92-5.07A157.83,157.83,0,0,1,225,24.55c2.07-.17,4.44-.26,7-.26,4.52,0,8.45.27,9.74.36.23,0,.47,0,.71,0a9.34,9.34,0,0,0,4.87-1.12,5,5,0,0,0,1.85-3.37,4.8,4.8,0,0,0-1.09-3.7,7.18,7.18,0,0,0-4.4-1.85,105.4,105.4,0,0,0-19.38-.2A200.11,200.11,0,0,0,202,17.29c-7,1.24-14.44,2.95-22.75,5.23-7.25,2-14.55,4.36-21.7,7S142.48,35.92,138.32,38a80.08,80.08,0,0,0-14.69,9.27c-4.76,3.92-6.7,5.73-9.86,10.63-3,4.64-3.8,10.09-2,13.25,2.21,3.78,7.37,5.69,15.34,5.69a74.33,74.33,0,0,0,14-1.52c6.88-1.42,13.54-3,20.37-5,7.08-2.17,14.69-4.61,22.58-7.24l22.72-7.45c8.3-2.76,15.15-4.89,20.35-6.3,3-.9,13.36-3.82,20.69-3.82a17.69,17.69,0,0,1,3.2.25.67.67,0,0,1,.55.71c-.1,1.24-1.66,12.42-25.52,23.1a249.61,249.61,0,0,1-25.25,9.66.69.69,0,0,1-.2,0c-6.82,2.18-14,4.17-22,6.09-6.35,1.48-13,2.76-20.86,4a.56.56,0,0,1-.34,0,99.23,99.23,0,0,1-12.62.66c-3.15,0-6.24-.08-8.71-.15C134.28,89.85,132.7,89.81,131.51,89.81Z" fill="#333"/><g id="Ebene_2" data-name="Ebene 2"><circle cx="187.38" cy="57" r="48.67" fill="url(#Degradado_sin_nombre_2)"/><path d="M187.38,107a50,50,0,1,1,50-50A50.06,50.06,0,0,1,187.38,107Zm0-97.33A47.34,47.34,0,1,0,234.72,57,47.38,47.38,0,0,0,187.38,9.67Z" fill="#33317a"/></g><g id="Ebene_4" data-name="Ebene 4"><path d="M141.27,76c5.53-1.14,12.31-2.7,20.42-5,5.91-1.81,22.61-7.25,22.61-7.25L207,56.33q12.47-4.15,20.33-6.3s7.85-2.07,9.19-2.31c-.48-4.95-3.32-10.91-3.32-10.91-2.87.56-5.94,1.27-9,2.15-5.34,1.53-12.21,3.63-20.8,6.49l-22.71,7.44c-9.07,3-16.42,5.35-22.24,7.06A193.05,193.05,0,0,1,138,65.24S139.06,72.33,141.27,76Z" fill="url(#Degradado_sin_nombre-2)"/></g><g id="Ebene_3" data-name="Ebene 3"><path d="M126.78,67.35a12.38,12.38,0,0,1-4.18-.48.67.67,0,0,1-.37-.87.66.66,0,0,1,.86-.37s4,1.43,15.73-1.26c5-1,10.93-2.53,19.43-5.05,5.79-1.71,13.17-4.11,22.22-7.06l22.71-7.44c7.59-2.53,14.6-4.72,20.83-6.5a107.78,107.78,0,0,1,18.63-3.57.67.67,0,0,1,.12,1.33,105.48,105.48,0,0,0-18.38,3.52c-6.21,1.78-13.2,4-20.78,6.48l-22.72,7.45c-9.06,3-16.45,5.35-22.25,7.07-8.54,2.53-14.56,4.09-19.53,5.07A55.86,55.86,0,0,1,126.78,67.35Z" fill="#333"/><path d="M127.23,78.19c-7,0-13.7-1.45-16.56-6.34a.66.66,0,0,1,.24-.91.67.67,0,0,1,.91.24c4.51,7.71,20.3,5.93,29.32,4.17,6.88-1.42,13.54-3,20.36-5,5.83-1.78,22.43-7.19,22.59-7.24L206.8,55.7c8.31-2.77,15.16-4.9,20.36-6.31,0,0,3.21-.9,9.21-2.31,5.65-1.33,10.29-1.82,13.41-1.42a.67.67,0,1,1-.17,1.32c-2.07-.27-6-.24-12.93,1.39-6,1.41-9.13,2.3-9.16,2.3-5.19,1.41-12,3.53-20.3,6.29l-22.71,7.45c-.17,0-16.78,5.46-22.63,7.25-6.87,1.94-13.56,3.57-20.48,5A77.25,77.25,0,0,1,127.23,78.19Z" fill="#333"/></g><path d="M351,33.4a6.36,6.36,0,0,0-3.59-2.88C320.11,22.86,302.5,24,294.71,34c-2.8,3.28-4.5,6.46-5,9.74A14.37,14.37,0,0,0,291,53.11h-.1a19.58,19.58,0,0,0,5,6.26h.1a25.84,25.84,0,0,0,5.9,3.69c1.5.79,5,1.29,10.6,1.38,1.1.11,3.2.11,6.4.11,2.8.1,5,.1,6.6.19h.1c5,.11,10.08.59,11.71,1.09s4.47,3.46,4.69,4.79h0a4.15,4.15,0,0,1,.32,3c-.3,2-.91,1.65-1.72,2.65v-.11a12.06,12.06,0,0,1-4.5,2,53.16,53.16,0,0,1-10.8,1.29,90.51,90.51,0,0,1-12.7-.5,66.53,66.53,0,0,1-10.7-2.09,6.06,6.06,0,0,0-7.5,3.88,6.12,6.12,0,0,0,.4,4.58,6.26,6.26,0,0,0,3.5,2.88,67.38,67.38,0,0,0,12.9,2.59,116.06,116.06,0,0,0,14.5.59,69.31,69.31,0,0,0,13.4-1.68c5.2-1.3,8.81-3.29,10.7-5.88h.1a25.22,25.22,0,0,0,3.5-5.38v-.1a16,16,0,0,0,1.2-6.06v-.2a18.35,18.35,0,0,0-.77-5.77,34,34,0,0,0-2.2-5.17c-1.62-3.46-5.33-5.68-11.83-7.07h-.1A93.58,93.58,0,0,0,326,52.8c-1.7-.1-4-.1-7-.21s-5.1,0-6.2-.1a43.36,43.36,0,0,1-6.1-.39,11.86,11.86,0,0,1-2.9-1.79,8.58,8.58,0,0,1-2-2.38v-.11a2.3,2.3,0,0,1-.31-2,8.4,8.4,0,0,1,2.31-4c6-5.76,19.4-5.76,40.3.2a6.17,6.17,0,0,0,7.4-4.17A5.41,5.41,0,0,0,351,33.4Z" fill="url(#Degradado_sin_nombre_10)"/><path d="M409.85,28.36a6.14,6.14,0,0,0-4.3-1.69h-40a5.93,5.93,0,0,0-4.2,1.69,5.77,5.77,0,0,0-1.8,4.28V82.38a6.15,6.15,0,0,0,6,6h40a6,6,0,0,0,6-6,6.1,6.1,0,0,0-1.7-4.28,6.18,6.18,0,0,0-4.3-1.69h-34V63.48h25a5.81,5.81,0,0,0,4.3-1.79,5.87,5.87,0,0,0,1.71-4.18,5.83,5.83,0,0,0-6-6h-25V38.6h34a5.84,5.84,0,0,0,4.29-1.79,5.68,5.68,0,0,0,1.7-4.18A6.11,6.11,0,0,0,409.85,28.36Z" fill="url(#Degradado_sin_nombre_10-2)"/><path d="M478.91,35.4a6.41,6.41,0,0,0-2.49-4.1c-11-7.89-23-9.38-34.64-7.34-4.59,1.08-6.07,1-11.09,3.45a27.35,27.35,0,0,0-8.48,7.08c-2.39,2.59-3.69,5.76-5.29,10s-1.59,6.29-1.79,11.47a40.43,40.43,0,0,0,2,14.47A32,32,0,0,0,424,82.28v-.12A28.47,28.47,0,0,0,435,90a35.35,35.35,0,0,0,14.07,2.82q18,0,26.05-8.11c6.29-5.5,8.88-13.81,7.89-24.93a6.49,6.49,0,0,0-1.9-4.22A5.82,5.82,0,0,0,477,54H451.06a5.68,5.68,0,0,0-4.2,1.83,6.53,6.53,0,0,0-1.8,4.64,6.29,6.29,0,0,0,1.8,4.54,5.45,5.45,0,0,0,4.2,1.94h20a13.56,13.56,0,0,1-3.7,8c-3.89,3.35-10,5-18.26,5a25.48,25.48,0,0,1-9.68-1.84l-.1-.1a17.83,17.83,0,0,1-6.69-4.76A19.63,19.63,0,0,1,428.4,66a27.13,27.13,0,0,1-1.3-9.61,29.69,29.69,0,0,1,1.19-8.14,10.79,10.79,0,0,1,2.4-4.54,13.61,13.61,0,0,1,4.8-4.27c3-1.5,5.19-1.94,8.88-2.91h.1c8.79-2.16,17.17-.33,25.26,5.61a5.62,5.62,0,0,0,4.48,1,6,6,0,0,0,3.8-2.81A6.69,6.69,0,0,0,478.91,35.4Z" fill="url(#Degradado_sin_nombre_10-3)"/><path d="M554.48,87.88a6,6,0,0,0,1.2-4.48q-9.45-62.24-34-60.79c-16.39-1-27.8,18.61-33.9,58.8a5.7,5.7,0,0,0,1.1,4.38,5.53,5.53,0,0,0,3.9,2.39,5.75,5.75,0,0,0,4.5-1.11,6.14,6.14,0,0,0,2.4-3.88c.75-5,1.58-9.6,2.46-13.83H541q1.51,7.17,2.81,15.81a5.82,5.82,0,0,0,2.4,3.89,5.38,5.38,0,0,0,4.4,1.09A5.62,5.62,0,0,0,554.48,87.88ZM505.12,57.44c4.37-14.73,9.91-22.35,16.55-22.89,6.45.53,11.92,8.16,16.31,22.89Z" fill="url(#Degradado_sin_nombre_10-4)"/><path d="M323.27,92.87a117.8,117.8,0,0,1-12.21-.63,67.62,67.62,0,0,1-13.21-2.65,7.73,7.73,0,0,1-4.3-3.53,7.57,7.57,0,0,1-.51-5.75,7.5,7.5,0,0,1,9.31-4.8,65,65,0,0,0,10.43,2,91,91,0,0,0,12.49.49,51.19,51.19,0,0,0,10.5-1.26,10.55,10.55,0,0,0,3.88-1.67,1.51,1.51,0,0,1,.26-.18,6.41,6.41,0,0,1,.52-.43c.27-.21.34-.26.46-1.06a6,6,0,0,0,.09-1.32.6.6,0,0,1-.09-.13h0a1.6,1.6,0,0,1-.2-.51l-.1-.56v0a9.37,9.37,0,0,0-3.71-3.65,61.07,61.07,0,0,0-11.3-1c-1-.06-2.09-.08-3.33-.11L318.85,66c-3.16,0-5.31,0-6.48-.11-5.68-.1-9.36-.6-11.14-1.55a27.33,27.33,0,0,1-5.91-3.65,1.48,1.48,0,0,1-.35-.21,21.24,21.24,0,0,1-5.37-6.73,1.48,1.48,0,0,1-.13-.5,15.68,15.68,0,0,1-1.18-9.74c.52-3.42,2.26-6.84,5.32-10.43,4.62-5.95,12.6-9,23.67-9,8.28,0,18.55,1.7,30.52,5.06a7.8,7.8,0,0,1,4.44,3.53,6.83,6.83,0,0,1,.63,5.68,6.86,6.86,0,0,1-3.6,4.39,6.38,6.38,0,0,1-3.47,1h0a8.93,8.93,0,0,1-2.05-.26c-20.12-5.75-33.4-5.91-38.95-.56a6.73,6.73,0,0,0-1.9,3.26A1,1,0,0,0,303,47a1.33,1.33,0,0,1,.21.47,8,8,0,0,0,1.55,1.75,10.4,10.4,0,0,0,2.41,1.49c1,.19,4.26.29,5.68.33,1.13.1,3.24.1,6.16.1l3.49.09c1.41,0,2.61.06,3.6.12a95.19,95.19,0,0,1,13.77,1.29l.24,0c6.95,1.48,11,4,12.84,7.87l.3.67a28.37,28.37,0,0,1,2,4.73A15.09,15.09,0,0,1,356,71c0,.36,0,.69,0,1v.3a17.32,17.32,0,0,1-1.24,6.42,1.35,1.35,0,0,1-.09.32,26.78,26.78,0,0,1-3.69,5.7,1.55,1.55,0,0,1-.33.3c-2.17,2.71-5.95,4.75-11.25,6.07a70.15,70.15,0,0,1-13.69,1.73ZM300.07,78a3.94,3.94,0,0,0-2,.52,4.11,4.11,0,0,0-2.33,2.66,4.46,4.46,0,0,0,3,5.66,65.84,65.84,0,0,0,12.62,2.52,116.67,116.67,0,0,0,14.29.59,68,68,0,0,0,13.09-1.65c4.85-1.21,8.18-3,9.88-5.33a1.48,1.48,0,0,1,.39-.36,24.76,24.76,0,0,0,3-4.56,1.49,1.49,0,0,1,.07-.25,14.41,14.41,0,0,0,1.09-5.52v-.2c0-.24,0-.6,0-1a12.68,12.68,0,0,0-.64-4.26,27.4,27.4,0,0,0-1.85-4.42l-.31-.66c-1.38-3-4.78-5-10.7-6.24l-.19,0A92.19,92.19,0,0,0,326,54.24c-1-.06-2.15-.08-3.52-.11L319,54c-3.05,0-5.11,0-6.28-.11a39.09,39.09,0,0,1-6.31-.43l-.26-.08a13.48,13.48,0,0,1-3.25-2,9.92,9.92,0,0,1-2.34-2.82,1.48,1.48,0,0,1-.1-.27,3.73,3.73,0,0,1-.3-2.88,9.62,9.62,0,0,1,2.67-4.59c6.48-6.24,20.38-6.26,41.71-.17a4.73,4.73,0,0,0,5.61-3.14,4.09,4.09,0,0,0-.36-3.44,4.94,4.94,0,0,0-2.79-2.2C335.3,28.63,325.3,27,317.28,27c-10.14,0-17.35,2.67-21.43,7.93-2.75,3.22-4.28,6.17-4.72,9.09a13,13,0,0,0,1.16,8.49,1.16,1.16,0,0,1,.14.48,18.38,18.38,0,0,0,4.18,5.13,1.13,1.13,0,0,1,.32.19,24.12,24.12,0,0,0,5.57,3.48c.84.44,3.15,1.14,10,1.26,1.14.1,3.22.1,6.38.1l3.39.09c1.29,0,2.39.06,3.3.11,5.14.1,10.35.6,12.14,1.15s5.14,3.7,5.64,5.74l.09.19a5.42,5.42,0,0,1,.28,3.46,3.78,3.78,0,0,1-1.56,2.93,2.24,2.24,0,0,0-.45.42,1.4,1.4,0,0,1-.67.46,15,15,0,0,1-4.56,1.91,55.46,55.46,0,0,1-11.17,1.35c-.95,0-1.91,0-2.87,0a85.54,85.54,0,0,1-10-.54,67.31,67.31,0,0,1-10.94-2.14A4.49,4.49,0,0,0,300.07,78Z" fill="#484848"/><path d="M405.55,89.8h-40a7,7,0,0,1-5.26-2.26,6.94,6.94,0,0,1-2.18-5.16V32.64a7.2,7.2,0,0,1,2.23-5.3,7.29,7.29,0,0,1,5.21-2.11h40a7.23,7.23,0,0,1,7.44,7.4,7.1,7.1,0,0,1-2.12,5.2A7.35,7.35,0,0,1,405.55,40H373V50.09h23.55A7.26,7.26,0,0,1,404,57.51a7.41,7.41,0,0,1-7.45,7.41H373V75h32.56A7.23,7.23,0,0,1,413,82.39a7.23,7.23,0,0,1-2.13,5.2A7.31,7.31,0,0,1,405.55,89.8Zm-40-61.69a4.52,4.52,0,0,0-3.19,1.27A4.37,4.37,0,0,0,361,32.64V82.38a4.14,4.14,0,0,0,1.33,3.12,4.23,4.23,0,0,0,3.23,1.42h40a4.54,4.54,0,0,0,4.56-4.54,4.36,4.36,0,0,0-4.56-4.53h-34a1.45,1.45,0,0,1-1.45-1.44V63.48A1.45,1.45,0,0,1,371.55,62h25a4.51,4.51,0,0,0,4.56-4.53,4.68,4.68,0,0,0-1.32-3.31A4.62,4.62,0,0,0,396.54,53h-25a1.44,1.44,0,0,1-1.45-1.44V38.6a1.45,1.45,0,0,1,1.45-1.44h34a4.41,4.41,0,0,0,3.28-1.38,4.21,4.21,0,0,0,1.27-3.15,4.35,4.35,0,0,0-4.55-4.52Z" fill="#484848"/><path d="M449.06,94.29a37,37,0,0,1-14.64-2.92,29.85,29.85,0,0,1-11.14-7.86,1.59,1.59,0,0,1-.33-.25,33.75,33.75,0,0,1-7.2-12.42,41.88,41.88,0,0,1-2.06-15l0-.84c.17-4.59.26-6.9,1.86-11.08,1.66-4.37,3-7.67,5.57-10.43a28.42,28.42,0,0,1,8.91-7.39,29.34,29.34,0,0,1,8.73-3c.78-.16,1.64-.34,2.66-.58a54.55,54.55,0,0,1,9.49-.87,44.22,44.22,0,0,1,26.32,8.44,7.76,7.76,0,0,1,3.07,5A8.1,8.1,0,0,1,479.22,41a7.44,7.44,0,0,1-4.64,3.42,7.32,7.32,0,0,1-1.54.17h0a7.14,7.14,0,0,1-4.14-1.36q-11.55-8.49-24.08-5.39l-.25,0-1.36.35a31.93,31.93,0,0,0-7.08,2.42,11.93,11.93,0,0,0-4.23,3.76,1.49,1.49,0,0,1-.15.2,9.31,9.31,0,0,0-2.07,3.94,28.24,28.24,0,0,0-1.14,7.8,25.77,25.77,0,0,0,1.22,9.1,18.2,18.2,0,0,0,3.89,6.72,16.39,16.39,0,0,0,6.18,4.4,1.55,1.55,0,0,1,.35.21,24.37,24.37,0,0,0,8.88,1.62c7.93,0,13.76-1.55,17.32-4.62a11.49,11.49,0,0,0,2.92-5.45H451.06a6.87,6.87,0,0,1-5.3-2.45,7.64,7.64,0,0,1-2.14-5.47,7.93,7.93,0,0,1,2.18-5.62,7.11,7.11,0,0,1,5.26-2.29H477a7.29,7.29,0,0,1,5.07,2,8,8,0,0,1,2.37,5.2c1,11.54-1.79,20.33-8.38,26.11C470.48,91.43,461.38,94.29,449.06,94.29ZM424.72,80.92a1.2,1.2,0,0,1,.38.3,27,27,0,0,0,10.43,7.48,33.92,33.92,0,0,0,13.53,2.71c11.52,0,19.94-2.58,25-7.68,6-5.27,8.43-13,7.47-23.79a5.07,5.07,0,0,0-1.51-3.35A4.32,4.32,0,0,0,477,55.42H451.06a4.28,4.28,0,0,0-3.15,1.37,5.11,5.11,0,0,0-1.41,3.66A4.88,4.88,0,0,0,447.87,64a4.07,4.07,0,0,0,3.19,1.52h20a1.43,1.43,0,0,1,1.08.49,1.38,1.38,0,0,1,.35,1.13,15,15,0,0,1-4.1,8.83c-4.24,3.66-10.52,5.4-19.29,5.4a26.78,26.78,0,0,1-10.23-2,1.31,1.31,0,0,1-.36-.21,19.11,19.11,0,0,1-7-5A20.93,20.93,0,0,1,427,66.42a28.66,28.66,0,0,1-1.37-10.12,31,31,0,0,1,1.25-8.48,12.32,12.32,0,0,1,2.64-5,15.13,15.13,0,0,1,5.29-4.67,34.29,34.29,0,0,1,7.65-2.63l1.51-.39a1.45,1.45,0,0,1,.29,0c9.13-2.2,18-.22,26.29,5.88a4.17,4.17,0,0,0,2.46.82h0a4.19,4.19,0,0,0,3.73-2.23,5.26,5.26,0,0,0,.71-3.89,4.94,4.94,0,0,0-1.93-3.17C466,25.57,454.61,23.17,442,25.38c-1,.23-1.85.41-2.65.58a26.89,26.89,0,0,0-8,2.75,26.15,26.15,0,0,0-8,6.65c-2.28,2.49-3.49,5.42-5.08,9.61-1.43,3.74-1.5,5.62-1.67,10.16l0,.84a39,39,0,0,0,1.92,14A30.84,30.84,0,0,0,424.72,80.92Z" fill="#484848"/><path d="M549.53,91.69h0a6.9,6.9,0,0,1-4.23-1.49,7.2,7.2,0,0,1-2.94-4.76c-.79-5.26-1.64-10.16-2.56-14.64H503.32c-.8,3.93-1.55,8.16-2.22,12.61a7.52,7.52,0,0,1-3,4.8,7.11,7.11,0,0,1-5.63,1.38,6.86,6.86,0,0,1-4.81-3,7.1,7.1,0,0,1-1.37-5.4c6.21-40.9,18.09-61.1,35.43-60.06.23,0,.64,0,1.05,0,16.73,0,27.94,20.3,34.28,62.05a7.51,7.51,0,0,1-1.45,5.54,7,7,0,0,1-4.91,2.86A6.24,6.24,0,0,1,549.53,91.69ZM502.14,67.92H541a1.45,1.45,0,0,1,1.41,1.14c1,4.84,2,10.18,2.82,15.9A4.39,4.39,0,0,0,547,87.89a4,4,0,0,0,3.3.84,4.23,4.23,0,0,0,3-1.74,4.55,4.55,0,0,0,.91-3.42c-6.14-40.43-17.11-60.49-32.48-59.52l-1.27,0c-15,0-25.49,19.38-31.3,57.6a4.27,4.27,0,0,0,.82,3.29A4.11,4.11,0,0,0,493,86.75a5.48,5.48,0,0,0,.83.08,4.45,4.45,0,0,0,2.65-.93,4.71,4.71,0,0,0,1.82-3c.74-4.89,1.57-9.57,2.47-13.86A1.44,1.44,0,0,1,502.14,67.92Zm35.84-9H505.12A1.45,1.45,0,0,1,503.73,57c4.61-15.5,10.44-23.32,17.83-23.91h.23c7.2.59,13,8.41,17.57,23.91A1.45,1.45,0,0,1,538,58.88ZM507.06,56h29c-4-12.56-8.94-19.46-14.36-20C516,36.54,511.1,43.27,507.06,56Z" fill="#484848"/><path d="M649.83,32.87A6.5,6.5,0,0,0,646.2,30c-27.53-7.72-45.28-6.62-53.15,3.52-2.82,3.31-4.54,6.52-5,9.83a14.45,14.45,0,0,0,1.31,9.43h-.11a20,20,0,0,0,5,6.32h.1a26,26,0,0,0,5.95,3.71c1.51.8,5,1.31,10.69,1.4,1.11.1,3.23.1,6.45.1,2.83.1,5,.1,6.66.21h.1c5,.1,10.16.59,11.8,1.09s4.51,3.5,4.74,4.83h0a4.12,4.12,0,0,1,.31,3c-.29,2-.92,1.67-1.72,2.68V76a12.39,12.39,0,0,1-4.54,2,53.3,53.3,0,0,1-10.9,1.31,91.94,91.94,0,0,1-12.8-.5,66.55,66.55,0,0,1-10.79-2.11,5.59,5.59,0,0,0-4.54.4,5.51,5.51,0,0,0-3,3.51,6.19,6.19,0,0,0,.39,4.61,6.39,6.39,0,0,0,3.54,2.91,67.3,67.3,0,0,0,13,2.61,118,118,0,0,0,14.62.6,69.74,69.74,0,0,0,13.52-1.7c5.23-1.31,8.87-3.31,10.79-5.92h.1a25.92,25.92,0,0,0,3.53-5.43v-.1a16,16,0,0,0,1.21-6.11v-.2a18.43,18.43,0,0,0-.78-5.82,34.06,34.06,0,0,0-2.22-5.21c-1.63-3.49-5.38-5.73-11.93-7.13h-.1a95,95,0,0,0-13.81-1.3c-1.72-.1-4-.1-7.06-.21s-5.14,0-6.26-.1a43.57,43.57,0,0,1-6.15-.4,12.33,12.33,0,0,1-2.92-1.8,8.46,8.46,0,0,1-2-2.41v-.1a2.34,2.34,0,0,1-.3-2,8.34,8.34,0,0,1,2.32-4c6-5.82,19.56-5.82,40.63.21a5.59,5.59,0,0,0,4.54-.6,5.52,5.52,0,0,0,2.93-3.62A5.49,5.49,0,0,0,649.83,32.87Z" fill="url(#Degradado_sin_nombre_10-5)"/><path d="M666.21,91.43a6.22,6.22,0,0,0,2.42-3.91c.77-5,1.6-9.69,2.49-13.94h39.16q1.53,7.23,2.83,16a5.79,5.79,0,0,0,2.42,3.91,5.47,5.47,0,0,0,4.44,1.1,5.75,5.75,0,0,0,3.93-2.3,6.14,6.14,0,0,0,1.21-4.52Q715.59,25,690.82,26.43,666,24.92,656.63,85.72a5.39,5.39,0,0,0,1.11,4.41,5.52,5.52,0,0,0,3.94,2.41A5.65,5.65,0,0,0,666.21,91.43Zm7.91-29.9q6.63-22.26,16.71-23.06,9.84.78,16.45,23.06Z" fill="url(#Degradado_sin_nombre_10-6)"/><path d="M776.84,31.14a6.15,6.15,0,0,0-4.33-1.71H720.07a5.94,5.94,0,0,0-4.24,1.71A5.81,5.81,0,0,0,714,35.45a6.19,6.19,0,0,0,6.05,6h20.17V87.62a5.61,5.61,0,0,0,1.81,4.22,5.68,5.68,0,0,0,4.24,1.81,6,6,0,0,0,6.05-6V41.47h20.17a6,6,0,0,0,6-6A6.09,6.09,0,0,0,776.84,31.14Z" fill="url(#Degradado_sin_nombre_10-7)"/><path d="M847.5,29.94a5.85,5.85,0,0,0-4.33-1.81,5.64,5.64,0,0,0-4.24,1.81,5.57,5.57,0,0,0-1.82,4.21V63.94a15.84,15.84,0,0,1-1.3,6.53,16.78,16.78,0,0,1-9.08,9,15.93,15.93,0,0,1-6.55,1.3h-9a16.27,16.27,0,0,1-6.55-1.3,16.61,16.61,0,0,1-5.44-3.62,19,19,0,0,1-3.64-5.32v-.09a17.64,17.64,0,0,1-1.3-6.53V34.15a6,6,0,0,0-6.06-6A5.64,5.64,0,0,0,784,29.94a5.54,5.54,0,0,0-1.82,4.21V63.94a30.59,30.59,0,0,0,2.22,11.24h.1a28.57,28.57,0,0,0,6.16,9.23,30.57,30.57,0,0,0,9.27,6.22,28.26,28.26,0,0,0,11.3,2.21h9a29.1,29.1,0,0,0,11.4-2.21h-.1a31,31,0,0,0,9.28-6.22A30.72,30.72,0,0,0,847,75.18v.1a28.82,28.82,0,0,0,2.23-11.34V34.15A6,6,0,0,0,847.5,29.94Z" fill="url(#Degradado_sin_nombre_10-8)"/><path d="M855.63,30a5.52,5.52,0,0,0-1.71,4V85.79A5.68,5.68,0,0,0,855.74,90a6.7,6.7,0,0,0,4.61,1.79A6.11,6.11,0,0,0,864.86,90a5.4,5.4,0,0,0,1.92-4.19V39.56c13.84-.8,24.45-.1,31.85,2,5.58,1.69,8.58,4.48,8.9,8.37a6.48,6.48,0,0,1-3.86,6.58c-4.29,1.8-10.62,2.3-19,1.39a6.54,6.54,0,0,0-4.08.9,5.75,5.75,0,0,0-2.68,3,5.63,5.63,0,0,0-.21,3.78,5.93,5.93,0,0,0,2.47,3.09l32.18,21.92a6.14,6.14,0,0,0,4.71,1.09,6.1,6.1,0,0,0,5.48-6.78,6.17,6.17,0,0,0-2.58-4L902.93,69.34a31.15,31.15,0,0,0,6.43-2.19c7.3-3.4,10.95-9.17,11.06-17.24.43-9.56-5.58-16.14-17.8-19.73-9.55-3-23.81-3.69-42.8-2.19A6.35,6.35,0,0,0,855.63,30Z" fill="url(#Degradado_sin_nombre_10-9)"/><path d="M930.13,31A5.77,5.77,0,0,0,929,34.44V86.62a5.59,5.59,0,0,0,1.81,4.21,5.67,5.67,0,0,0,4.24,1.8,6,6,0,0,0,6-6V49.4l40,41.33a6.49,6.49,0,0,0,3.13,1.8,7.22,7.22,0,0,0,3.53-.29,6.12,6.12,0,0,0,2.72-2.31,5.56,5.56,0,0,0,1-3.32V34.44a6.1,6.1,0,0,0-1.72-4.31,6.19,6.19,0,0,0-4.33-1.71,6,6,0,0,0-4.24,1.71,5.86,5.86,0,0,0-1.81,4.31V71.67L939.51,30.23a7.37,7.37,0,0,0-3.13-1.7,6.08,6.08,0,0,0-3.53.4A5.19,5.19,0,0,0,930.13,31Z" fill="url(#Degradado_sin_nombre_10-10)"/><path d="M621.88,92.84c-4.07,0-8.1-.21-12.34-.63a68.58,68.58,0,0,1-13.32-2.68A7.74,7.74,0,0,1,591.89,86a7.63,7.63,0,0,1-.52-5.79,7,7,0,0,1,3.78-4.36,7.11,7.11,0,0,1,5.62-.47,65.48,65.48,0,0,0,10.51,2,91.6,91.6,0,0,0,12.59.48,52.54,52.54,0,0,0,10.6-1.26,11.72,11.72,0,0,0,3.91-1.69,2.2,2.2,0,0,1,.25-.17c.2-.19.39-.33.54-.45s.34-.26.46-1.06a5.53,5.53,0,0,0,.09-1.33,1.52,1.52,0,0,1-.3-.67l-.09-.56a.06.06,0,0,1,0,0A9.58,9.58,0,0,0,635.58,67a61.88,61.88,0,0,0-11.4-1c-1.06-.06-2.15-.08-3.43-.11-1,0-2.11,0-3.35-.1-3.19,0-5.35,0-6.53-.1-5.73-.1-9.44-.61-11.24-1.57a27.4,27.4,0,0,1-6-3.68,1.71,1.71,0,0,1-.35-.21,21.3,21.3,0,0,1-5.41-6.79,1.5,1.5,0,0,1-.14-.5,15.87,15.87,0,0,1-1.19-9.82c.53-3.45,2.29-6.9,5.37-10.52,4.66-6,12.7-9.07,23.87-9.07,8.34,0,18.7,1.72,30.77,5.1a7.89,7.89,0,0,1,4.49,3.56,7,7,0,0,1,.63,5.73,6.9,6.9,0,0,1-3.62,4.44,6.55,6.55,0,0,1-3.51,1h0a9,9,0,0,1-2.06-.26c-20.3-5.8-33.68-6-39.28-.57a6.81,6.81,0,0,0-1.92,3.29,1,1,0,0,0,.1.86,1.63,1.63,0,0,1,.2.47,8.17,8.17,0,0,0,1.57,1.76,10.36,10.36,0,0,0,2.43,1.51c1.06.2,4.43.29,5.73.33,1.14.1,3.27.1,6.21.1,1.42,0,2.64.08,3.73.1,1.33,0,2.47.06,3.42.11a98.77,98.77,0,0,1,13.89,1.31.83.83,0,0,1,.24,0c7,1.49,11.12,4,12.94,7.94l.32.69a29.13,29.13,0,0,1,2,4.74,15.49,15.49,0,0,1,.79,5.12q0,.52,0,1a2.81,2.81,0,0,1,0,.29,17.44,17.44,0,0,1-1.25,6.48,1.44,1.44,0,0,1-.09.33,26.71,26.71,0,0,1-3.72,5.74,1.24,1.24,0,0,1-.34.31c-2.18,2.72-6,4.78-11.34,6.11a70.29,70.29,0,0,1-13.81,1.76Zm-23.42-15a4,4,0,0,0-2,.52,4.18,4.18,0,0,0-2.35,2.67,4.49,4.49,0,0,0,3,5.71,65.88,65.88,0,0,0,12.73,2.55,119.11,119.11,0,0,0,14.41.59,67.57,67.57,0,0,0,13.21-1.67c4.89-1.22,8.24-3,10-5.36a1.52,1.52,0,0,1,.39-.37,23.76,23.76,0,0,0,3-4.59,1.09,1.09,0,0,1,.07-.25A14.58,14.58,0,0,0,652,72.09c0-.43,0-.8,0-1.19a12.71,12.71,0,0,0-.65-4.3,26.45,26.45,0,0,0-1.86-4.43l-.31-.69c-1.4-3-4.83-5-10.8-6.29l-.19,0a91.23,91.23,0,0,0-13.59-1.28c-1-.06-2.06-.08-3.35-.11-1.1,0-2.33-.05-3.71-.1-3.07,0-5.16,0-6.34-.11a41.64,41.64,0,0,1-6.36-.42l-.26-.1a13.33,13.33,0,0,1-3.27-2,9.87,9.87,0,0,1-2.37-2.84,1.48,1.48,0,0,1-.1-.27,3.79,3.79,0,0,1-.3-2.9,9.84,9.84,0,0,1,2.69-4.64q9.81-9.43,42.07-.16a4.25,4.25,0,0,0,3.35-.43,4.51,4.51,0,0,0,1.93-6.22,4.94,4.94,0,0,0-2.81-2.22c-11.75-3.29-21.84-5-29.92-5-10.22,0-17.49,2.7-21.61,8-2.77,3.24-4.31,6.22-4.76,9.16a13.1,13.1,0,0,0,1.17,8.56,1.33,1.33,0,0,1,.14.48A18.52,18.52,0,0,0,595,57.75a1.15,1.15,0,0,1,.31.18,23.88,23.88,0,0,0,5.62,3.51c.85.45,3.18,1.16,10.12,1.28,1.15.1,3.25.1,6.42.1l3.37.09c1.32,0,2.45.06,3.39.11,1.7,0,11.4.9,12.23,1.16,1.93.61,5.19,3.74,5.7,5.79l.09.2a5.48,5.48,0,0,1,.28,3.48,3.81,3.81,0,0,1-1.58,3,2.24,2.24,0,0,0-.45.42,1.4,1.4,0,0,1-.67.46,15.11,15.11,0,0,1-4.61,1.93,56,56,0,0,1-11.26,1.36c-1,0-2,0-3,0a86.55,86.55,0,0,1-10-.55,68.32,68.32,0,0,1-11-2.16A4.77,4.77,0,0,0,598.46,77.87Z" fill="#484848"/><path d="M718.93,96.1a6.9,6.9,0,0,1-4.28-1.51,7.19,7.19,0,0,1-3-4.79c-.8-5.39-1.67-10.33-2.58-14.77H672.31c-.8,3.94-1.55,8.21-2.24,12.71a7.7,7.7,0,0,1-3,4.85,7.29,7.29,0,0,1-4.34,1.5h0a7.82,7.82,0,0,1-1.33-.12,6.88,6.88,0,0,1-4.87-3,6.78,6.78,0,0,1-1.35-5.53c6.43-41.72,18.14-61.54,35.7-60.47a10.29,10.29,0,0,1,1.06,0c16.87,0,28.19,20.46,34.58,62.56a7.51,7.51,0,0,1-1.47,5.58A7.19,7.19,0,0,1,720.15,96,6.59,6.59,0,0,1,718.93,96.1Zm-47.81-24h39.16a1.47,1.47,0,0,1,1.43,1.15c1,4.78,2,10.17,2.84,16a4.29,4.29,0,0,0,1.82,2.94,4,4,0,0,0,3.33.87,4.39,4.39,0,0,0,3-1.77,4.57,4.57,0,0,0,.91-3.46c-6.19-40.76-17.16-61-32.75-60l-1.28,0c-15,0-25.61,19.54-31.56,58.09a4,4,0,0,0,.82,3.31,4.15,4.15,0,0,0,3,1.85,5.56,5.56,0,0,0,.91.09h0a4.32,4.32,0,0,0,2.61-.94,4.7,4.7,0,0,0,1.83-3c.75-5,1.59-9.67,2.5-14A1.45,1.45,0,0,1,671.12,72.13ZM707.28,63H674.12a1.45,1.45,0,0,1-1.39-1.87c4.64-15.61,10.53-23.5,18-24.1a1.77,1.77,0,0,1,.23,0c7.31.58,13.11,8.47,17.73,24.1A1.44,1.44,0,0,1,707.28,63Zm-31.19-2.91h29.23c-4.05-12.84-8.93-19.62-14.5-20.15C685.11,40.47,680.16,47.25,676.09,60.08Z" fill="#484848"/><path d="M746.29,95.1A7.14,7.14,0,0,1,741,92.83a7,7,0,0,1-2.2-5.21V42.93H720.07a7.11,7.11,0,0,1-5.31-2.28,7,7,0,0,1-2.2-5.2,7.33,7.33,0,0,1,2.24-5.34A7.45,7.45,0,0,1,720.07,28h52.44a7.3,7.3,0,0,1,7.5,7.47,7.46,7.46,0,0,1-7.5,7.48H753.8V87.62a7.49,7.49,0,0,1-7.51,7.48ZM720.07,30.89a4.53,4.53,0,0,0-3.22,1.28,4.4,4.4,0,0,0-1.38,3.28,4.16,4.16,0,0,0,1.34,3.15A4.28,4.28,0,0,0,720.07,40h20.16a1.46,1.46,0,0,1,1.46,1.46V87.62A4.15,4.15,0,0,0,743,90.77a4.28,4.28,0,0,0,3.25,1.43,4.59,4.59,0,0,0,4.61-4.58V41.47A1.45,1.45,0,0,1,752.34,40h20.17a4.41,4.41,0,0,0,3.3-1.38,4.46,4.46,0,0,0,1.29-3.19,4.38,4.38,0,0,0-4.59-4.56Z" fill="#484848"/><path d="M820.18,94.29h-9A29.78,29.78,0,0,1,799.34,92a32.11,32.11,0,0,1-9.71-6.51,30,30,0,0,1-6.32-9.33,1.19,1.19,0,0,1-.28-.42,31.77,31.77,0,0,1-2.32-11.77V34.15a7,7,0,0,1,2.3-5.29,7,7,0,0,1,5.2-2.18,7.46,7.46,0,0,1,7.51,7.47V63.94a16.12,16.12,0,0,0,1.2,6,2.41,2.41,0,0,1,.08.25,17.46,17.46,0,0,0,3.26,4.7,14.65,14.65,0,0,0,4.9,3.25,14.82,14.82,0,0,0,6,1.21h9a14.51,14.51,0,0,0,6-1.18,15.18,15.18,0,0,0,5-3.34,15,15,0,0,0,3.28-4.88,14.49,14.49,0,0,0,1.2-6V34.15a7,7,0,0,1,2.3-5.29,7,7,0,0,1,5.21-2.18,7.49,7.49,0,0,1,7.52,7.46v29.8a30.28,30.28,0,0,1-2.33,11.9,1.35,1.35,0,0,1-.19.33,32.36,32.36,0,0,1-6.36,9.25,32.71,32.71,0,0,1-9.36,6.38,1.57,1.57,0,0,1-.31.18A30.86,30.86,0,0,1,820.18,94.29Zm-34.6-20a1,1,0,0,1,.25.39,27.12,27.12,0,0,0,5.85,8.76,29.2,29.2,0,0,0,8.8,5.9,27,27,0,0,0,10.73,2.09h9a28,28,0,0,0,10.47-1.94.93.93,0,0,1,.26-.15,29.55,29.55,0,0,0,8.85-5.94,29.16,29.16,0,0,0,5.92-8.76,1.82,1.82,0,0,1,.15-.27,27.51,27.51,0,0,0,1.95-10.39V34.15a4.59,4.59,0,0,0-4.61-4.57A4.21,4.21,0,0,0,840,30.92a4.25,4.25,0,0,0-1.43,3.23V63.94a17.25,17.25,0,0,1-1.43,7.12,17.69,17.69,0,0,1-3.91,5.82,18.32,18.32,0,0,1-6,4,17.19,17.19,0,0,1-7.07,1.4h-9a18.48,18.48,0,0,1-13-5.3,20.51,20.51,0,0,1-4-5.79,1.23,1.23,0,0,1-.12-.37,19.18,19.18,0,0,1-1.32-6.85V34.15a4.56,4.56,0,0,0-4.6-4.57,4.74,4.74,0,0,0-4.59,4.57V63.94A28.74,28.74,0,0,0,785.58,74.25Z" fill="#484848"/><path d="M860.35,93.22a8.09,8.09,0,0,1-5.6-2.18,7.09,7.09,0,0,1-2.28-5.25V34a7,7,0,0,1,2.12-5,7.81,7.81,0,0,1,5.14-2.44c19.14-1.51,33.68-.76,43.33,2.25C916,32.59,922.33,39.72,921.88,50c-.13,8.64-4.13,14.87-11.9,18.49a27.73,27.73,0,0,1-3.63,1.44l14.45,9.79A7.66,7.66,0,0,1,924,84.6a7.43,7.43,0,0,1-1.45,5.53,7.5,7.5,0,0,1-5.29,3,8.15,8.15,0,0,1-1.26.1,7.57,7.57,0,0,1-4.46-1.46l-32.16-21.9a7.31,7.31,0,0,1-3-3.84,7.35,7.35,0,0,1,3.58-8.5,8,8,0,0,1,4.87-1.07c8.14.88,14.24.43,18.32-1.28a5,5,0,0,0,3-5.19c-.26-3.18-2.83-5.5-7.86-7-7-2-17.11-2.67-30-2V85.79a6.86,6.86,0,0,1-2.44,5.29A7.45,7.45,0,0,1,860.35,93.22Zm17.13-64.54c-5.27,0-11.17.25-17.54.76A4.89,4.89,0,0,0,856.67,31a4.06,4.06,0,0,0-1.3,3V85.79a4.28,4.28,0,0,0,1.36,3.13,5.25,5.25,0,0,0,3.62,1.39A4.62,4.62,0,0,0,863.82,89a4,4,0,0,0,1.51-3.16V39.56a1.46,1.46,0,0,1,1.37-1.46c13.82-.79,24.72-.09,32.32,2,6.25,1.9,9.59,5.14,10,9.65a8,8,0,0,1-4.67,8c-4.68,2-11.28,2.45-19.77,1.53l-.53,0a4.85,4.85,0,0,0-2.64.7,4.4,4.4,0,0,0-2.09,2.31,4.18,4.18,0,0,0-.15,2.88A4.44,4.44,0,0,0,881,67.44l32.18,21.93a4.74,4.74,0,0,0,3.66.86,4.6,4.6,0,0,0,3.38-1.85,4.44,4.44,0,0,0,.9-3.31,4.68,4.68,0,0,0-2-3l-17-11.53a1.46,1.46,0,0,1,.48-2.62,30.23,30.23,0,0,0,6.14-2.08c6.79-3.16,10.13-8.38,10.24-16,.39-8.91-5.09-14.89-16.76-18.32C896.07,29.65,887.75,28.68,877.48,28.68Z" fill="#484848"/><path d="M985.46,94.09A8.78,8.78,0,0,1,984,94a8.1,8.1,0,0,1-3.91-2.2L942.57,53V86.62a7.48,7.48,0,0,1-7.5,7.47,7.1,7.1,0,0,1-5.31-2.28,6.93,6.93,0,0,1-2.19-5.19V34.44a7.11,7.11,0,0,1,1.37-4.25,6.58,6.58,0,0,1,3.42-2.63,7.57,7.57,0,0,1,4.25-.47,9,9,0,0,1,3.86,2.05L978,68.06V34.44a7.31,7.31,0,0,1,2.24-5.34A7.44,7.44,0,0,1,985.49,27,7.31,7.31,0,0,1,993,34.44V86.62a7,7,0,0,1-1.28,4.15,7.42,7.42,0,0,1-3.31,2.79A8.87,8.87,0,0,1,985.46,94.09ZM941.12,48a1.45,1.45,0,0,1,1,.44l40,41.33a5,5,0,0,0,2.42,1.4,6.42,6.42,0,0,0,2.74-.26,4.61,4.61,0,0,0,2-1.72,4.13,4.13,0,0,0,.77-2.52V34.44a4.64,4.64,0,0,0-1.33-3.32,4.72,4.72,0,0,0-3.27-1.25,4.54,4.54,0,0,0-3.22,1.3,4.38,4.38,0,0,0-1.38,3.28V71.67A1.46,1.46,0,0,1,980,73a1.48,1.48,0,0,1-1.6-.34L938.46,31.24a5.9,5.9,0,0,0-2.44-1.3,5.25,5.25,0,0,0-.78-.05,4.14,4.14,0,0,0-1.78.37,3.84,3.84,0,0,0-2.09,1.53,4.36,4.36,0,0,0-.89,2.66V86.62a4.1,4.1,0,0,0,1.33,3.13,4.27,4.27,0,0,0,3.26,1.43,4.57,4.57,0,0,0,4.6-4.56V49.4a1.45,1.45,0,0,1,.9-1.35A1.52,1.52,0,0,1,941.12,48Z" fill="#484848"/></g></g></svg>