<svg xmlns="http://www.w3.org/2000/svg" width="192.77509" height="200">
  <defs>
    <clipPath id="a">
      <path d="M0 366.069h352.845V0H0v366.069z"/>
    </clipPath>
  </defs>
  <g clip-path="url(#a)" transform="matrix(0.54634509,0,0,-0.54634509,-5.3889988e-7,200)">
    <path fill="#515151" d="M293.8449 36.3554h12.5s26 39 26 147.75-26 147.75-26 147.75h-12.5"/>
    <path fill="#a3a3a3" d="M238.0109 357.6894c-23.332 4.998-63.715 10.999-111.334 5.999-38.535-4.046-51.408-21.029-51.582-30.583-.314-17.259 43.146-29.602 68.25-34.751 39-8 49-7.333 49-7.333l45.666 66.668z"/>
    <path fill="none" stroke="#a3a3a3" stroke-miterlimit="10" d="M238.0109 357.6894c-23.332 4.998-63.715 10.999-111.334 5.999-38.535-4.046-51.408-21.029-51.582-30.583-.314-17.259 43.146-29.602 68.25-34.751 39-8 49-7.333 49-7.333l45.666 66.668z" stroke-linecap="round" stroke-linejoin="round"/>
    <path fill="#a3a3a3" d="M238.0119 8.3798c-23.333-4.998-63.715-10.999-111.334-5.999-38.536 4.046-51.409 21.029-51.583 30.583-.314 17.259 43.147 29.601 68.25 34.751 39 8 49 7.333 49 7.333l45.667-66.668z"/>
    <path fill="none" stroke="#a3a3a3" stroke-miterlimit="10" d="M238.0119 8.3798c-23.333-4.998-63.715-10.999-111.334-5.999-38.536 4.046-51.409 21.029-51.583 30.583-.314 17.259 43.147 29.601 68.25 34.751 39 8 49 7.333 49 7.333l45.667-66.668z" stroke-linecap="round" stroke-linejoin="round"/>
    <path fill="#b2b2b2" d="M.0109 183.1581c-1-27 67.001-40.198 126.668-49.864 56.959-9.228 53-14 60-48.667 3.808-18.856-2.001-76.667 62.333-77 64.334-.333 71.333 95.333 71.333 95.333l17.5 9s15 38.198 15 71.198c0 33-15 71.197-15 71.197l-17.5 9s-7 95.666-71.334 95.333c-64.334-.333-58.525-58.144-62.332-77-7-34.667-3.041-39.439-60-48.667-59.667-9.666-127.668-22.863-126.668-49.863"/>
    <path fill="#a3a3a3" d="M246.3449 264.1073c-19.969 0-36.154 16.187-36.154 36.154 0 19.968 16.185 36.155 36.154 36.155 19.967 0 36.154-16.187 36.154-36.155 0-19.967-16.187-36.154-36.154-36.154"/>
    <path fill="none" stroke="#a3a3a3" stroke-miterlimit="10" d="M246.3449 264.1073c-19.969 0-36.154 16.187-36.154 36.154 0 19.968 16.185 36.155 36.154 36.155 19.967 0 36.154-16.187 36.154-36.155 0-19.967-16.187-36.154-36.154-36.154z" stroke-linecap="round" stroke-linejoin="round"/>
    <path fill="#515151" d="M218.3468 293.6112v12.485c0 1.379 1.121 2.5 2.498 2.5h16.961v16.553c0 1.375 1.123 2.497 2.5 2.497h12.484c1.379 0 2.498-1.119 2.498-2.497v-16.553h16.553c1.381 0 2.5-1.121 2.5-2.5v-12.485c0-1.377-1.119-2.497-2.5-2.497h-16.553v-15.74c0-1.378-1.119-2.497-2.498-2.497h-12.484c-1.377 0-2.496 1.119-2.496 2.497v15.74h-16.963c-1.379 0-2.5 1.12-2.5 2.497"/>
    <path fill="#a3a3a3" d="M239.8517 166.3329c-9.864 0-17.861 7.997-17.861 17.861 0 9.865 7.997 17.862 17.86 17.862 9.865 0 17.861-7.997 17.861-17.862 0-9.864-7.996-17.861-17.86-17.861"/>
    <path fill="none" stroke="#a3a3a3" stroke-miterlimit="10" d="M239.8517 166.3329c-9.864 0-17.861 7.997-17.861 17.861 0 9.865 7.997 17.862 17.86 17.862 9.865 0 17.861-7.997 17.861-17.862 0-9.864-7.996-17.861-17.86-17.861z" stroke-linecap="round" stroke-linejoin="round"/>
    <path fill="#515151" d="M164.3664 144.8329c-21.738 0-39.361 17.623-39.361 39.361 0 21.739 17.623 39.362 39.361 39.362 21.738 0 39.361-17.623 39.361-39.362 0-21.738-17.623-39.361-39.361-39.361"/>
    <path fill="#a3a3a3" d="M226.0507 100.1405l-2.23 2.309 8.416 8.13 2.231-2.309-8.417-8.13zm38.4602-63.3603c-14.634 0-26.499 11.865-26.499 26.5s11.865 26.5 26.499 26.5c14.636 0 26.5-11.865 26.5-26.5s-11.864-26.5-26.5-26.5"/>
    <path fill="#afafaf" d="M264.5109 37.7802c-14.082 0-25.499 11.417-25.499 25.5s11.417 25.5 25.499 25.5c14.084 0 25.5-11.417 25.5-25.5s-11.416-25.5-25.5-25.5"/>
    <path fill="#3d3d3d" d="M246.3449 294.4413c-3.215 0-5.82 2.605-5.82 5.82 0 3.215 2.605 5.821 5.82 5.821 3.215 0 5.82-2.606 5.82-5.821s-2.605-5.82-5.82-5.82m-13.2285 10.2578v-8.875l-9.543 4.438 9.543 4.437z"/>
    <path fill="none" stroke="#3d3d3d" stroke-miterlimit="10" d="M233.1164 304.6991v-8.875l-9.543 4.438 9.543 4.437z" stroke-linejoin="round"/>
    <path fill="#3d3d3d" d="M259.5734 295.8241v8.875l9.543-4.438-9.543-4.437z"/>
    <path fill="none" stroke="#3d3d3d" stroke-miterlimit="10" d="M259.5734 295.8241v8.875l9.543-4.438-9.543-4.437z" stroke-linejoin="round"/>
    <path fill="#3d3d3d" d="M250.7824 313.4902h-8.875l4.438 9.543 4.437-9.543z"/>
    <path fill="none" stroke="#3d3d3d" stroke-miterlimit="10" d="M250.7824 313.4902h-8.875l4.438 9.543 4.437-9.543z" stroke-linejoin="round"/>
    <path fill="#3d3d3d" d="M241.9074 287.0331h8.875l-4.438-9.543-4.437 9.543z"/>
    <path fill="none" stroke="#3d3d3d" stroke-miterlimit="10" d="M241.9074 287.0331h8.875l-4.438-9.543-4.437 9.543z" stroke-linejoin="round"/>
    <path fill="#ca2e39" d="M239.8517 170.1933c-7.732 0-14.001 6.269-14.001 14.001 0 7.732 6.268 14.001 14 14.001 7.733 0 14.002-6.269 14.002-14.001 0-7.732-6.269-14.001-14.001-14.001"/>
    <path fill="#00935c" d="M243.1203 103.3661c-8.191 0-14.833 6.642-14.833 14.834s6.642 14.834 14.833 14.834c8.193 0 14.834-6.642 14.834-14.834s-6.641-14.834-14.834-14.834"/>
    <path fill="#e1c245" d="M264.5109 73.5292c-5.354 0-9.693 4.34-9.693 9.693 0 5.354 4.339 9.694 9.693 9.694 5.353 0 9.693-4.34 9.693-9.694 0-5.353-4.34-9.693-9.693-9.693m0-39.8838c-5.354 0-9.693 4.34-9.693 9.693 0 5.354 4.339 9.694 9.693 9.694 5.353 0 9.693-4.34 9.693-9.694 0-5.353-4.34-9.693-9.693-9.693m-10.2481 29.6348c0-5.354-4.34-9.693-9.693-9.693-5.354 0-9.694 4.339-9.694 9.693 0 5.354 4.34 9.693 9.694 9.693 5.353 0 9.693-4.339 9.693-9.693m39.8848 0c0-5.354-4.34-9.693-9.693-9.693-5.354 0-9.694 4.339-9.694 9.693 0 5.354 4.34 9.693 9.694 9.693 5.353 0 9.693-4.339 9.693-9.693"/>
    <path fill="#212121" d="M147.8507 201.0556l16.76 6.739 16.617-7.086 6.739-16.758-7.086-16.618-16.759-6.739-16.617 7.086-6.739 16.759 7.085 16.617z"/>
    <path fill="#143f9e" d="M216.3878 76.455c-8.192 0-14.834 6.642-14.834 14.834s6.642 14.834 14.834 14.834 14.834-6.642 14.834-14.834-6.642-14.834-14.834-14.834"/>
    <path fill="#b2b2b2" d="M164.3664 165.3329c-10.417 0-18.861 8.444-18.861 18.861s8.443 18.862 18.861 18.862c10.416 0 18.861-8.445 18.861-18.862 0-10.417-8.444-18.861-18.861-18.861"/>
    <path fill="#a3a3a3" d="M164.3664 169.4357c-8.151 0-14.759 6.608-14.759 14.759 0 8.15 6.607 14.758 14.759 14.758 8.15 0 14.758-6.608 14.758-14.758 0-8.151-6.607-14.759-14.758-14.759"/>
    <path fill="#b2b2b2" d="M164.3664 170.3329c-7.655 0-13.861 6.206-13.861 13.861 0 7.656 6.205 13.862 13.861 13.862 7.654 0 13.861-6.206 13.861-13.862 0-7.655-6.206-13.861-13.861-13.861"/>
    <path fill="#a3a3a3" d="M164.3664 173.2927c-6.021 0-10.902 4.881-10.902 10.902 0 6.02 4.881 10.901 10.902 10.901 6.02 0 10.901-4.881 10.901-10.901 0-6.021-4.881-10.902-10.901-10.902"/>
    <path fill="#b2b2b2" d="M164.3664 174.2636c-5.484 0-9.931 4.446-9.931 9.931 0 5.484 4.447 9.93 9.931 9.93 5.484 0 9.931-4.446 9.931-9.93 0-5.485-4.447-9.931-9.931-9.931"/>
    <path fill="#a3a3a3" d="M164.3664 177.905c-3.474 0-6.289 2.816-6.289 6.289 0 3.474 2.815 6.289 6.289 6.289 3.473 0 6.289-2.815 6.289-6.289 0-3.473-2.816-6.289-6.289-6.289"/>
    <path fill="#b2b2b2" d="M164.3664 178.9745c-2.883 0-5.22 2.337-5.22 5.22 0 2.883 2.337 5.219 5.22 5.219 2.883 0 5.22-2.336 5.22-5.219 0-2.883-2.337-5.22-5.22-5.22"/>
    <path fill="#a3a3a3" fill-rule="evenodd" d="M299.7648 183.1513v-31.522c0-.555.039-1.106.137-1.655.777-4.401 5.144-7.33 9.484-6.355 3.715.834 6.272 4.012 6.272 7.816.003 21.145.001 42.289 0 63.434 0 1.866-.579 3.533-1.733 5-2.674 3.397-7.721 3.996-11.1 1.3-2.072-1.652-3.06-3.83-3.06-6.47v-31.548zm18.352.001c0-10.516-.004-21.033.003-31.549.002-1.947-.416-3.782-1.421-5.453-1.719-2.853-4.229-4.586-7.536-5.049-5.058-.707-9.759 2.253-11.343 7.076-.362 1.104-.51 2.239-.51 3.399.002 18.676.002 37.353.002 56.029 0 2.504-.02 5.008.008 7.51.048 4.697 3.404 8.851 7.974 9.92 5.303 1.238 10.59-1.717 12.309-6.884.373-1.12.515-2.272.515-3.45-.003-10.516-.001-21.032-.001-31.549"/>
    <path fill="#a3a3a3" fill-rule="evenodd" d="M305.8742 209.6484h.275c2.028 0 4.053-.004 6.08.006.219 0 .272-.058.268-.272-.012-.804-.01-1.61-.002-2.416.002-.168-.041-.216-.213-.215-3.058.004-6.115.004-9.172-.001-.183 0-.232.048-.23.23.01.814.01 1.629 0 2.443-.004.174.062.259.197.347 2.147 1.38 4.289 2.765 6.432 4.149.08.051.16.104.236.205h-.264c-2.095 0-4.191.006-6.287-.007-.273-.003-.322.078-.316.329.016.77.012 1.542.002 2.311-.002.185.031.254.238.253 3.047-.007 6.096-.007 9.145.001.209 0 .234-.07.232-.25-.008-.875-.01-1.75.002-2.625.002-.18-.062-.275-.209-.367-2.141-1.352-4.281-2.711-6.42-4.066.002-.019.004-.037.006-.055m.1562-48.0762c.459 0 .92-.009 1.377.002.654.017 1.1.444 1.117 1.057.02.63-.394 1.138-1.041 1.162-.959.036-1.92.023-2.881.006-.414-.008-.658-.258-.732-.677-.049-.282-.057-.568-.01-.853.076-.447.336-.685.795-.694.459-.009.918-.002 1.375-.003m2.943-.002c.944 0 1.842.003 2.741-.002.25 0 .572.106.728-.04.158-.147.045-.475.047-.723.008-.631-.002-1.264.006-1.897.002-.169-.026-.237-.219-.236-3.058.005-6.117.005-9.174.001-.164-.001-.224.034-.222.211.009.824.002 1.647.005 2.469 0 .093-.044.203.129.226.155.018.026.128.008.174-.195.512-.316 1.044-.344 1.591-.062 1.308.559 2.265 1.616 2.946 2.396 1.543 4.711-.032 5.203-1.898.236-.9.07-1.748-.373-2.552-.041-.075-.082-.148-.151-.27m-.4449 11.8594c.125-.326.295-.596.453-.869.963-1.674.197-3.602-1.262-4.574-.199-.131-.421-.186-.666-.185-1.384.006-2.769.006-4.154-.001-.17-.001-.24.024-.238.219.012.84.012 1.68.002 2.519-.002.184.051.23.228.229 1.352-.008 2.703-.004 4.053-.004.66 0 1.27.803 1.104 1.451-.053.202-.137.391-.231.576-.221.44-.519.668-1.06.652-1.29-.038-2.581-.008-3.87-.017-.187-.002-.226.05-.224.229.01.814.01 1.629 0 2.442-.004.185.051.228.23.228 2.018-.006 4.035-.007 6.053 0 .191 0 .223-.065.221-.237-.008-.804-.012-1.61.002-2.416.006-.217-.071-.265-.26-.244-.117.014-.236.002-.381.002m.2031 24.1641c.141-.264.246-.5.387-.716.883-1.378.562-3.046-.502-4.169-.477-.502-.998-.793-1.731-.763-1.236.048-2.476.02-3.715.006-.248-.003-.296.076-.291.304.012.797.012 1.594 0 2.391-.005.213.049.276.268.275 1.324-.012 2.65-.006 3.975-.006.728 0 1.332.807 1.132 1.516-.054.191-.136.371-.228.547-.219.414-.506.642-1.025.627-1.272-.038-2.547-.004-3.819-.02-.262-.004-.31.074-.305.317.016.779.012 1.558.002 2.337-.002.174.036.239.225.238 2.027-.007 4.053-.005 6.08-.001.156 0 .205-.037.203-.201-.008-.823-.008-1.645 0-2.467.002-.164-.033-.238-.211-.219-.129.015-.26.004-.445.004m-2.6934-43.1797v-.001c-.623 0-1.244.008-1.867-.003-.449-.007-.699-.225-.799-.664-.055-.23-.049-.464-.033-.697.035-.564.328-.862.889-.865 1.203-.01 2.404-.013 3.607 0 .697.005 1.121.434 1.121 1.09-.002.704-.414 1.128-1.127 1.139-.598.009-1.193.001-1.791.001m3.565-1.158c-.004-1.04-.292-2.012-.938-2.861-1.383-1.817-3.732-1.858-5.186-.096-1.351 1.64-1.365 4.268-.029 5.922 1.443 1.787 3.906 1.73 5.266-.123.613-.839.879-1.789.887-2.842m-2.4575 28.4138v-.416c0-.75 0-.75.758-.699.607.042 1.035.489 1.051 1.105.017.617-.344 1.051-.95 1.117-.24.026-.484.004-.724.014-.129.005-.137-.064-.135-.162.002-.32 0-.639 0-.959m-1.082-1.552c0 .814-.006 1.628.002 2.441.002.173-.029.24-.221.236-.537-.015-1.074-.002-1.609-.008-.563-.006-.86-.294-.897-.859-.015-.225-.019-.449.032-.671.109-.468.382-.692.863-.702.242-.006.484-.008.726 0 .123.004.166-.03.164-.157-.003-.874-.005-1.749 0-2.624.002-.208-.105-.148-.211-.108-.79.305-1.369.854-1.8 1.572-1.018 1.698-.834 4.037.433 5.512 1.391 1.615 3.578 1.621 4.971.012 1.467-1.695 1.445-4.539-.047-6.186-.578-.64-1.287-1.031-2.158-1.121-.189-.019-.258.014-.254.222.012.813.006 1.628.006 2.441m.0839 10.1057c1.006 0 2.01.005 3.014-.005.187-.002.234.055.226.233-.011.363.002.728-.006 1.091-.004.139.026.196.182.2.691.021.691.027.691-.67 0-.225.008-.451-.002-.676-.005-.135.034-.18.174-.176.336.01.674-.004 1.012.006.146.004.189-.041.188-.189-.006-.857-.006-1.714 0-2.572.001-.156-.038-.213-.202-.206-.328.013-.658-.004-.986.007-.148.005-.191-.044-.186-.189.01-.38-.003-.762.006-1.143.004-.145-.039-.186-.185-.188-.69-.01-.686-.016-.69.675-.004.275.116.639-.052.795-.149.136-.508.045-.776.045-1.803.002-3.603.005-5.406-.004-.213-.001-.275.052-.272.27.014.822.012 1.646.002 2.469-.002.179.041.234.229.232 1.012-.01 2.025-.005 3.039-.005m-.0117 11.8448c-1.004 0-2.01.005-3.014-.006-.195-.002-.246.048-.242.243.01.806.01 1.611 0 2.416-.002.179.047.235.231.235 2.017-.007 4.035-.007 6.052 0 .19.001.227-.058.225-.234-.008-.814-.008-1.629 0-2.443.002-.166-.039-.217-.213-.216-1.014.009-2.025.005-3.039.005m4.6309 1.4511c0 .416.004.832-.004 1.248-.004.148.045.191.189.188.459-.008.92-.006 1.379 0 .119 0 .164-.03.164-.16-.005-.856-.005-1.714 0-2.572 0-.127-.041-.16-.162-.159-.468.007-.935.009-1.404 0-.148-.004-.168.057-.166.182.006.425.004.849.004 1.273m-1.0391-54.8593c-.006-.674.576-1.266 1.248-1.27.717-.003 1.326.573 1.326 1.256.002.711-.56 1.246-1.31 1.248-.709.003-1.26-.535-1.264-1.234m2.81-.005c.003-.8-.716-1.493-1.552-1.495-.787-.001-1.498.706-1.498 1.49 0 .807.679 1.483 1.494 1.485.857.002 1.555-.661 1.556-1.48"/>
    <path fill="#a3a3a3" fill-rule="evenodd" d="M311.0382 148.706c-.017-.179-.008-.332.219-.335.256-.006.242.173.256.355.019.203-.057.233-.242.241-.227.01-.272-.08-.233-.261m.035.49c.043.001.088.005.131-.001.176-.017.445.087.508-.051.094-.214.072-.494-.008-.735-.098-.286-.525-.382-.758-.152-.127.124-.203.1-.322.024-.07-.045-.152-.137-.231.01-.08.154.071.143.129.193.047.039.102.069.157.092.146.063.093.19.092.293 0 .15-.124.076-.194.088-.084.011-.176-.018-.174.123.002.139.094.115.178.116.164.001.328 0 .492 0"/>
    <path fill="#a3a3a3" d="M337.8449 111.9599l-75.75 6.24 58.25-15.24 17.5 9zm0 142.4072l-75.75-6.24 58.25 15.24 17.5-9z"/>
  </g>
</svg>
