<svg id="Layer_1" data-name="Layer 1" xmlns="http://www.w3.org/2000/svg" viewBox="0 0 105 105"><title>icon_filled</title><path d="M50.16933,90.30681c-1.78822.87177-3.48853,1.68292-5.17336,2.52507-7.84475,3.92112-15.675,7.87151-23.54465,11.742-.70506.34677-2.07833.56157-2.39616.19378a3.63969,3.63969,0,0,1-.60958-2.6634c.91473-5.78841,2.02541-11.54593,2.93342-17.33531.52832-3.36854.3659-6.90395,1.30893-10.13215.90776-3.10742-.32-4.82416-2.25953-6.75055C15.20087,62.69413,10.06477,57.40969,4.91479,52.14Q2.73747,49.91205.6909,47.55759c-1.16437-1.34359-.84267-2.5922.8566-2.91341,3.69917-.69925,7.43565-1.19855,11.14987-1.82134,5.42224-.9092,10.81454-2.047,16.26481-2.72263,4.11151-.50968,5.95824-2.88529,7.43866-6.44411,1.61859-3.891,3.95171-7.482,5.92653-11.22846,1.30176-2.4696,2.47464-5.00757,3.79379-7.46742a45.25484,45.25484,0,0,1,2.71752-4.40312c.914-1.31647,2.03348-.9558,2.6746.18626C54.13649,15.41621,56.667,20.14167,59.19,24.87c1.87345,3.51111,3.6913,7.052,5.51252,10.5907.33527.65144.57088,1.35446.84768,2.03563a3.18788,3.18788,0,0,0,2.79677,2.03354c5.1562.89973,10.25689,2.11411,15.40653,3.05677,2.00452.36694,4.0995.214,6.12446.50113,2.88319.40882,5.75316.9418,8.60295,1.544,1.80376.38116,1.96543,1.21555.67516,2.59461q-8.93512,9.55-17.87034,19.1a16.5902,16.5902,0,0,1-2.86121,2.70132c-1.48643.96365-1.34759,2.25405-1.1636,3.63145.75764,5.67145,1.47343,11.3494,2.31758,17.00811.65175,4.36895,1.51351,8.7065,2.17217,13.07456a2.52288,2.52288,0,0,1-.68444,2.03313,2.37443,2.37443,0,0,1-2.05284-.01861Q65.45529,98.10927,51.9552,91.344C51.3802,91.05767,50.841,90.69935,50.16933,90.30681Z" fill="#e3d319"/><rect x="38.88999" y="47.18766" width="5.66053" height="19.74555" rx="2.83026"/><rect x="55.77223" y="47.18766" width="5.66053" height="19.74555" rx="2.83026"/><rect x="40.72718" y="50.11448" width="1.89209" height="6.08783" rx="0.94604" fill="#fff"/><rect x="57.65645" y="50.11448" width="1.89209" height="6.08783" rx="0.94604" fill="#fff"/></svg>