<svg xmlns="http://www.w3.org/2000/svg" viewBox="0 0 1000 114"><g id="Layer_2" data-name="Layer 2"><rect x="457.85" y="70.3" width="36.52" height="22.55" fill="#fff"/></g><g id="Layer_1" data-name="Layer 1"><text transform="translate(607.28 94.64)" font-size="2.49" fill="#e62246" stroke="#fff" stroke-linecap="round" stroke-linejoin="round" stroke-width="7" font-family="ArialMT, Arial" style="isolation:isolate">I hate bugs!</text><path d="M332.92,110.25a3.5,3.5,0,0,1-3.5-3.5V67.1a3.5,3.5,0,0,1,3.5-3.5h6.35V56.88a3.49,3.49,0,0,1,3.5-3.5h39.77a3.49,3.49,0,0,1,3.5,3.5v30a3.49,3.49,0,0,1-3.5,3.5H356.12v16.33a3.5,3.5,0,0,1-3.5,3.5Z" fill="#1e2c52"/><path d="M382.54,56.88V86.93H352.62v19.82h-19.7V67.1h9.85V56.88h39.77m0-7H342.77a7,7,0,0,0-7,7V60.1h-2.85a7,7,0,0,0-7,7v39.65a7,7,0,0,0,7,7h19.7a7,7,0,0,0,7-7V93.93h22.92a7,7,0,0,0,7-7V56.88a7,7,0,0,0-7-7Z" fill="#fff"/><path d="M392.77,110.5a3.5,3.5,0,0,1-3.5-3.5V96.65a3.5,3.5,0,0,1,3.5-3.5H399V70.6h-6.22a3.5,3.5,0,0,1-3.5-3.5V56.88a3.49,3.49,0,0,1,3.5-3.5h39.4a3.5,3.5,0,0,1,3.5,3.5V67.1a3.5,3.5,0,0,1-3.5,3.5h-6.23V93.15h6.23a3.5,3.5,0,0,1,3.5,3.5V107a3.5,3.5,0,0,1-3.5,3.5Z" fill="#1e2c52"/><path d="M432.17,56.88V67.1h-9.73V96.65h9.73V107h-39.4V96.65h9.72V67.1h-9.72V56.88h39.4m0-7h-39.4a7,7,0,0,0-7,7V67.1a7,7,0,0,0,7,7h2.72V89.65h-2.72a7,7,0,0,0-7,7V107a7,7,0,0,0,7,7h39.4a7,7,0,0,0,7-7V96.65a7,7,0,0,0-7-7h-2.73V74.1h2.73a7,7,0,0,0,7-7V56.88a7,7,0,0,0-7-7Z" fill="#fff"/><path d="M442.64,110.25a3.5,3.5,0,0,1-3.5-3.5V67.1a3.5,3.5,0,0,1,3.5-3.5h6.48V56.88a3.5,3.5,0,0,1,3.5-3.5h29.92a3.49,3.49,0,0,1,3.5,3.5V67.1a3.5,3.5,0,0,1-3.5,3.5H466.09V93.15h16.45a3.5,3.5,0,0,1,3.5,3.5v10.1a3.5,3.5,0,0,1-3.5,3.5Z" fill="#1e2c52"/><path d="M482.54,56.88V67.1h-20V96.65h20v10.1h-39.9V67.1h10V56.88h29.92m0-7H452.62a7,7,0,0,0-7,7V60.1h-3a7,7,0,0,0-7,7v39.65a7,7,0,0,0,7,7h39.9a7,7,0,0,0,7-7V96.65a7,7,0,0,0-7-7h-13V74.1h13a7,7,0,0,0,7-7V56.88a7,7,0,0,0-7-7Z" fill="#fff"/><path d="M492.52,110.25a3.5,3.5,0,0,1-3.5-3.5V67.1a3.5,3.5,0,0,1,3.5-3.5H499V56.88a3.5,3.5,0,0,1,3.5-3.5h39.9a3.49,3.49,0,0,1,3.5,3.5V96.65a3.5,3.5,0,0,1-3.5,3.5h-6.72v6.6a3.5,3.5,0,0,1-3.5,3.5Z" fill="#1e2c52"/><path d="M542.39,56.88V96.65H532.17v10.1H492.52V67.1h10V56.88h39.9m0-7h-39.9a7,7,0,0,0-7,7V60.1h-3a7,7,0,0,0-7,7v39.65a7,7,0,0,0,7,7h39.65a7,7,0,0,0,7-7v-3.1h3.22a7,7,0,0,0,7-7V56.88a7,7,0,0,0-7-7Z" fill="#fff"/><rect x="548.99" y="73.45" width="26.7" height="16.85" rx="3.5" fill="#1e2c52"/><path d="M572.19,77V86.8h-19.7V77h19.7m0-7h-19.7a7,7,0,0,0-7,7V86.8a7,7,0,0,0,7,7h19.7a7,7,0,0,0,7-7V77a7,7,0,0,0-7-7Z" fill="#fff"/><path d="M582.29,110.25a3.5,3.5,0,0,1-3.5-3.5V77a3.5,3.5,0,0,1,3.5-3.5h6.48V56.88a3.5,3.5,0,0,1,3.5-3.5H632a3.49,3.49,0,0,1,3.5,3.5v49.87a3.5,3.5,0,0,1-3.5,3.5Z" fill="#1e2c52"/><path d="M632,56.88v49.87H582.29V77h10V56.88H632m0-7H592.27a7,7,0,0,0-7,7V70h-3a7,7,0,0,0-7,7v29.8a7,7,0,0,0,7,7H632a7,7,0,0,0,7-7V56.88a7,7,0,0,0-7-7Z" fill="#fff"/><path d="M647.13,65.36a3.5,3.5,0,0,1-3.5-3.5v-10a3.5,3.5,0,0,1,1-2.48l19.82-19.82a3.5,3.5,0,0,1,2.48-1h10a3.5,3.5,0,0,1,3.5,3.5V42a3.5,3.5,0,0,1-3.5,3.5h-6.47v6.35a3.5,3.5,0,0,1-3.5,3.5h-6.48v6.47a3.5,3.5,0,0,1-3.5,3.5Z" fill="#1e2c52"/><path d="M676.93,32.06V42H667v9.85H657v10h-9.85v-10L667,32.06h10m0-7H667a7,7,0,0,0-5,2.05L642.18,46.94a7,7,0,0,0-2,5v10a7,7,0,0,0,7,7H657a7,7,0,0,0,7-7v-3h3a7,7,0,0,0,7-7V49h3a7,7,0,0,0,7-7v-10a7,7,0,0,0-7-7Z" fill="#fff"/><path d="M323.07,100.15a3.5,3.5,0,0,1-3.5-3.5V57a3.5,3.5,0,0,1,3.5-3.5h6.35V46.78a3.49,3.49,0,0,1,3.5-3.5h39.77a3.49,3.49,0,0,1,3.5,3.5V76.83a3.5,3.5,0,0,1-3.5,3.5H346.27V96.65a3.5,3.5,0,0,1-3.5,3.5Zm26.3-36.68V60.38h-3.1v3.09Z" fill="#fef1e8"/><path d="M372.69,46.78V76.83H342.77V96.65h-19.7V57h9.85V46.78h39.77M342.77,67h10.1V56.88h-10.1V67m29.92-27.2H332.92a7,7,0,0,0-7,7V50h-2.85a7,7,0,0,0-7,7V96.65a7,7,0,0,0,7,7h19.7a7,7,0,0,0,7-7V83.83h22.92a7,7,0,0,0,7-7v-30a7,7,0,0,0-7-7Z" fill="#fff"/><path d="M383,100.28a3.5,3.5,0,0,1-3.5-3.5V86.55a3.5,3.5,0,0,1,3.5-3.5h6.23V60.5H383a3.5,3.5,0,0,1-3.5-3.5V46.78a3.5,3.5,0,0,1,3.5-3.5h39.4a3.49,3.49,0,0,1,3.5,3.5V57a3.5,3.5,0,0,1-3.5,3.5h-6.22V83.05h6.22a3.5,3.5,0,0,1,3.5,3.5V96.78a3.5,3.5,0,0,1-3.5,3.5Z" fill="#fef1e8"/><path d="M422.44,46.78V57h-9.72V86.55h9.72V96.78H383V86.55h9.73V57H383V46.78h39.4m0-7H383a7,7,0,0,0-7,7V57a7,7,0,0,0,7,7h2.73V79.55H383a7,7,0,0,0-7,7V96.78a7,7,0,0,0,7,7h39.4a7,7,0,0,0,7-7V86.55a7,7,0,0,0-7-7h-2.72V64h2.72a7,7,0,0,0,7-7V46.78a7,7,0,0,0-7-7Z" fill="#fff"/><path d="M432.79,100a3.5,3.5,0,0,1-3.5-3.5V57a3.5,3.5,0,0,1,3.5-3.5h6.48V46.78a3.49,3.49,0,0,1,3.5-3.5h29.8a3.5,3.5,0,0,1,3.5,3.5V57a3.5,3.5,0,0,1-3.5,3.5H456.24V83.05h16.33a3.5,3.5,0,0,1,3.5,3.5v10a3.5,3.5,0,0,1-3.5,3.5Z" fill="#fef1e8"/><path d="M472.57,46.78V57H452.74V86.55h19.83v10H432.79V57h10V46.78h29.8m0-7h-29.8a7,7,0,0,0-7,7V50h-3a7,7,0,0,0-7,7V96.53a7,7,0,0,0,7,7h39.78a7,7,0,0,0,7-7v-10a7,7,0,0,0-7-7H459.74V64h12.83a7,7,0,0,0,7-7V46.78a7,7,0,0,0-7-7Z" fill="#fff"/><path d="M482.67,100.15a3.5,3.5,0,0,1-3.5-3.5V57a3.5,3.5,0,0,1,3.5-3.5h6.47V46.78a3.5,3.5,0,0,1,3.5-3.5h39.9a3.49,3.49,0,0,1,3.5,3.5v39.9a3.5,3.5,0,0,1-3.5,3.5h-6.72v6.47a3.5,3.5,0,0,1-3.5,3.5Zm26.42-17.22V60.38H506V82.93Z" fill="#fef1e8"/><path d="M532.54,46.78v39.9H522.32v10H482.67V57h10V46.78h39.9m-30,39.65h10.1V56.88h-10.1V86.43m30-46.65h-39.9a7,7,0,0,0-7,7V50h-3a7,7,0,0,0-7,7V96.65a7,7,0,0,0,7,7h39.65a7,7,0,0,0,7-7v-3h3.22a7,7,0,0,0,7-7V46.78a7,7,0,0,0-7-7Z" fill="#fff"/><rect x="539.02" y="63.35" width="26.7" height="16.85" rx="3.5" fill="#fef1e8"/><path d="M562.22,66.85V76.7h-19.7V66.85h19.7m0-7h-19.7a7,7,0,0,0-7,7V76.7a7,7,0,0,0,7,7h19.7a7,7,0,0,0,7-7V66.85a7,7,0,0,0-7-7Z" fill="#fff"/><path d="M572.44,100.15a3.5,3.5,0,0,1-3.5-3.5V66.85a3.5,3.5,0,0,1,3.5-3.5h6.48V46.78a3.5,3.5,0,0,1,3.5-3.5h39.77a3.49,3.49,0,0,1,3.5,3.5V96.65a3.5,3.5,0,0,1-3.5,3.5Zm36.15-17.1v-3h-12.7v3Zm0-19.82v-3h-12.7v3Z" fill="#fef1e8"/><path d="M622.19,46.78V96.65H572.44V66.85h10V46.78h39.77m-29.8,20h19.7v-10h-19.7v10m0,19.82h19.7v-10h-19.7v10m29.8-46.77H582.42a7,7,0,0,0-7,7V59.85h-3a7,7,0,0,0-7,7v29.8a7,7,0,0,0,7,7h49.75a7,7,0,0,0,7-7V46.78a7,7,0,0,0-7-7Z" fill="#fff"/><path d="M642.14,60.13a3.5,3.5,0,0,1-3.5-3.5V50.28h-6.35a3.5,3.5,0,0,1-3.5-3.5V40.3h-6.47a3.5,3.5,0,0,1-3.5-3.5v-10a3.5,3.5,0,0,1,3.5-3.5h6.47V17a3.5,3.5,0,0,1,3.5-3.5h6.35V7a3.5,3.5,0,0,1,3.5-3.5h10a3.5,3.5,0,0,1,3.5,3.5v6.48h6.47a3.49,3.49,0,0,1,3.5,3.5v6.35h6.48a3.5,3.5,0,0,1,3.5,3.5v10a3.5,3.5,0,0,1-3.5,3.5h-6.48v6.48a3.5,3.5,0,0,1-3.5,3.5h-6.47v6.35a3.5,3.5,0,0,1-3.5,3.5Z" fill="#fef1e8"/><path d="M652.12,7V17h10v9.85h10v10h-10v10h-10v9.85h-10V46.78h-9.85v-10h-10v-10h10V17h9.85V7h10m0-7h-10a7,7,0,0,0-7,7v3h-2.85a7,7,0,0,0-7,7v2.85h-3a7,7,0,0,0-7,7v10a7,7,0,0,0,7,7h3v3a7,7,0,0,0,7,7h2.85v2.85a7,7,0,0,0,7,7h10a7,7,0,0,0,7-7V53.78h3a7,7,0,0,0,7-7v-3h3a7,7,0,0,0,7-7v-10a7,7,0,0,0-7-7h-3V17a7,7,0,0,0-7-7h-3V7a7,7,0,0,0-7-7Z" fill="#fff"/><rect x="638.64" y="3.5" width="16.98" height="16.98" rx="3.5" fill="#e62052"/><path d="M652.12,7V17h-10V7h10m0-7h-10a7,7,0,0,0-7,7V17a7,7,0,0,0,7,7h10a7,7,0,0,0,7-7V7a7,7,0,0,0-7-7Z" fill="#fff"/><rect x="648.62" y="13.48" width="16.97" height="16.98" rx="3.5" fill="#fbccab"/><path d="M662.09,17V27h-10V17h10m0-7h-10a7,7,0,0,0-7,7V27a7,7,0,0,0,7,7h10a7,7,0,0,0,7-7V17a7,7,0,0,0-7-7Z" fill="#fff"/><rect x="658.59" y="23.33" width="16.98" height="16.98" rx="3.5" fill="#ee77a6"/><path d="M672.07,26.83v10h-10v-10h10m0-7h-10a7,7,0,0,0-7,7v10a7,7,0,0,0,7,7h10a7,7,0,0,0,7-7v-10a7,7,0,0,0-7-7Z" fill="#fff"/><rect x="648.62" y="33.3" width="16.97" height="16.98" rx="3.5" fill="#83779c"/><path d="M662.09,36.8v10h-10v-10h10m0-7h-10a7,7,0,0,0-7,7v10a7,7,0,0,0,7,7h10a7,7,0,0,0,7-7v-10a7,7,0,0,0-7-7Z" fill="#fff"/><rect x="638.64" y="43.28" width="16.98" height="16.98" rx="3.5" fill="#4fa5dc"/><path d="M652.12,46.78v10h-10v-10h10m0-7h-10a7,7,0,0,0-7,7v10a7,7,0,0,0,7,7h10a7,7,0,0,0,7-7v-10a7,7,0,0,0-7-7Z" fill="#fff"/><rect x="628.79" y="33.3" width="16.98" height="16.98" rx="3.5" fill="#5cb130"/><path d="M642.27,36.8v10h-10v-10h10m0-7h-10a7,7,0,0,0-7,7v10a7,7,0,0,0,7,7h10a7,7,0,0,0,7-7v-10a7,7,0,0,0-7-7Z" fill="#fff"/><rect x="618.82" y="23.33" width="16.97" height="16.98" rx="3.5" fill="#feec2d"/><path d="M632.29,26.83v10h-10v-10h10m0-7h-10a7,7,0,0,0-7,7v10a7,7,0,0,0,7,7h10a7,7,0,0,0,7-7v-10a7,7,0,0,0-7-7Z" fill="#fff"/><rect x="628.79" y="13.48" width="16.98" height="16.98" rx="3.5" fill="#f6a117"/><path d="M642.27,17V27h-10V17h10m0-7h-10a7,7,0,0,0-7,7V27a7,7,0,0,0,7,7h10a7,7,0,0,0,7-7V17a7,7,0,0,0-7-7Z" fill="#fff"/><text transform="translate(607.28 94.64)" font-size="2.49" fill="#e62246" font-family="ArialMT, Arial" style="isolation:isolate">I hate bugs!</text><polygon points="342.77 56.88 342.77 67.1 332.92 67.1 332.92 106.75 352.62 106.75 352.62 86.92 382.54 86.92 382.54 56.88 342.77 56.88" fill="#1e2c52"/><polygon points="402.49 67.1 402.49 96.65 392.77 96.65 392.77 107 432.17 107 432.17 96.65 422.44 96.65 422.44 67.1 432.17 67.1 432.17 56.88 392.77 56.88 392.77 67.1 402.49 67.1" fill="#1e2c52"/><polygon points="482.54 96.65 482.54 106.75 442.64 106.75 442.64 67.1 452.62 67.1 452.62 56.88 482.54 56.88 482.54 67.1 462.59 67.1 462.59 96.65 482.54 96.65" fill="#1e2c52"/><polygon points="502.49 56.88 502.49 67.1 492.52 67.1 492.52 106.75 532.17 106.75 532.17 106.63 532.17 96.65 542.39 96.65 542.39 56.88 502.49 56.88" fill="#1e2c52"/><rect x="552.49" y="76.95" width="19.7" height="9.85" fill="#1e2c52"/><polygon points="592.27 56.88 592.27 67.1 592.27 76.95 582.29 76.95 582.29 106.75 632.04 106.75 632.04 56.88 592.27 56.88" fill="#1e2c52"/><polygon points="666.96 32.06 647.13 51.89 647.13 61.86 656.98 61.86 656.98 51.89 666.96 51.89 666.96 42.04 676.93 42.04 676.93 32.06 666.96 32.06" fill="#1e2c52"/><path d="M332.92,46.78V57h-9.85V96.65h19.7V76.83h29.92v-30ZM352.87,67h-10.1V56.88h10.1Z" fill="#fef1e8"/><polygon points="392.77 57 392.77 86.55 383.04 86.55 383.04 96.78 422.44 96.78 422.44 86.55 412.72 86.55 412.72 57 422.44 57 422.44 46.78 383.04 46.78 383.04 57 392.77 57" fill="#fef1e8"/><polygon points="472.57 86.55 472.57 96.53 432.79 96.53 432.79 57 442.77 57 442.77 46.78 472.57 46.78 472.57 57 452.74 57 452.74 86.55 472.57 86.55" fill="#fef1e8"/><path d="M492.64,46.78V57h-10V96.65h39.65v-10h10.22V46.78Zm20,39.65h-10.1V56.88h10.1Z" fill="#fef1e8"/><rect x="542.52" y="66.85" width="19.7" height="9.85" fill="#fef1e8"/><path d="M582.42,46.78V66.85h-10v29.8h49.75V46.78Zm29.67,39.77h-19.7v-10h19.7Zm0-19.82h-19.7v-10h19.7Z" fill="#fef1e8"/><polygon points="642.14 7 652.12 7 652.12 16.98 662.1 16.98 662.1 26.82 672.07 26.82 672.07 36.8 662.1 36.8 662.1 46.78 652.12 46.78 652.12 56.63 642.14 56.63 642.14 46.78 632.29 46.78 632.29 36.8 622.32 36.8 622.32 26.82 632.29 26.82 632.29 16.98 642.14 16.98 642.14 7" fill="#fef1e8"/><rect x="642.14" y="7" width="9.98" height="9.98" fill="#e62052"/><rect x="652.12" y="16.98" width="9.98" height="9.98" fill="#fbccab"/><rect x="662.09" y="26.83" width="9.98" height="9.98" fill="#ee77a6"/><rect x="652.12" y="36.8" width="9.98" height="9.98" fill="#83779c"/><rect x="642.14" y="46.78" width="9.98" height="9.98" fill="#4fa5dc"/><rect x="632.29" y="36.8" width="9.98" height="9.98" fill="#5cb130"/><rect x="622.32" y="26.83" width="9.98" height="9.98" fill="#feec2d"/><rect x="632.29" y="16.98" width="9.98" height="9.98" fill="#f6a117"/></g></svg>