<svg xmlns="http://www.w3.org/2000/svg" viewBox="0 0 117.57543 200">
  <path fill="#1b1d1f" d="M33.685137 101.49035c.07753-.85286.07753-2.248444 0-3.101304 0 0-.310131-6.04755-1.007924-9.92418-1.007924-6.04754-2.791174-12.01755-5.427283-17.5999-3.411436-7.133-9.381447-11.6299-16.591981-14.57614-3.0237719-1.24052-5.8149462-2.79117-7.675729-5.65988-3.6440331-5.81494-3.87663094-11.707422-.9303914-17.832498 2.4810437-5.194686 6.280142-9.45898 10.4669034-13.335611 10.234306-9.458979 22.174329-15.7391209 35.82007-18.3752299 10.621968-2.093381 21.011339-1.318055 30.780449 3.721565 6.667805 3.411436 11.474828 8.6836539 15.506524 14.8087299 6.977935 10.621969 11.784965 22.174329 15.584055 34.191884 3.17884 9.92418 5.42729 20.00342 6.51274 30.39279.54273 4.72949.54273 9.53651.85286 14.34353v2.946244c-.31013 4.80702-.31013 9.61405-.85286 14.34354-1.16299 10.31183-3.41143 20.46861-6.51274 30.39278-3.79909 12.01756-8.68365 23.56992-15.584055 34.19189-4.031696 6.12507-8.916251 11.39729-15.506524 14.80873-9.76911 5.03962-20.158481 5.73741-30.780449 3.72156-13.723274-2.63611-25.585764-8.99378-35.82007-18.37523-4.1867614-3.87663-7.9858597-8.14092-10.4669034-13.33561-2.94623954-6.12508-2.7911743-12.09509.9303914-17.8325 1.8607828-2.86871 4.6519571-4.34183 7.675729-5.58235 7.210534-2.94624 13.103013-7.52066 16.591981-14.65366 2.636109-5.58235 4.419359-11.55236 5.427283-17.59991.620261-4.03169 1.007924-10.07924 1.007924-10.07924zm73.035733-26.748754zm.31013 6.9004s.0775 0 0 0zm-.31013 11.55236z"/>
  <path fill="#151515" d="M87.105111 177.31725c.620261-3.7991.232598-7.44313-.232598-11.1647-2.325979-16.74704-10.311838-30.62538-21.864198-42.64294-4.651957-4.80702-10.234306-6.97793-17.134709-5.97001-9.071316 1.39559-15.506524 9.92418-13.723273 18.91796.465195 2.48105 1.628185 4.88456 2.791174 7.21054 1.705717 3.5665 3.876631 6.9004 5.504816 10.54443 3.721565 8.52859 7.288066 17.13471 10.777034 25.81836 3.101304 7.67573 8.373522 11.3973 16.669513 11.55236 8.838718.0775 15.816654-5.65988 17.212241-14.266zm-32.5637 4.10923c-.232598-.38766-.387663-.77533-.542728-1.24052-1.938316-4.96209-3.721566-10.00171-5.892479-14.88626-3.101305-6.97794-6.590273-13.80081-10.001708-20.70121-1.78325-3.48897-3.644033-6.90041-3.644033-11.00963.07753-8.29599 6.20261-14.80873 14.421067-15.66159 7.210534-.77533 12.560284 2.24844 17.057176 7.28806 7.055468 7.90833 13.103013 16.43692 16.669513 26.51616 1.78325 5.03962 4.186761 14.57613 4.031696 21.08887.232598 4.57442-1.240522 8.60612-4.419359 12.63782-2.636109 3.3339-7.675729 4.72949-11.474828 5.11715-.31013 0-.542728.0775-.852858.0775-4.264294.0775-10.466904-.46519-15.351459-9.22638z"/>
  <path fill="#181a1c" d="M69.89287 190.80793c-4.264294 0-10.466904-.62026-15.351459-9.38145-.232598-.38766-.387663-.77533-.542728-1.24052-1.938316-4.96209-3.721566-10.00171-5.892479-14.88626-3.101305-6.97794-6.590273-13.80081-10.001708-20.70121-1.78325-3.48897-3.644033-6.90041-3.644033-11.00963.07753-8.29599 6.20261-14.80873 14.421067-15.66159 7.210534-.77533 12.560284 2.24844 17.057176 7.28806 7.055468 7.90833 13.103013 16.43692 16.669513 26.51616 1.78325 5.03962 4.186761 14.57613 4.031696 21.08887.232598 4.57442-1.240522 8.60612-4.419359 12.63782-2.636109 3.3339-7.675729 4.72949-11.474828 5.11715-.31013.15506-.620261.2326-.852858.2326z"/>
  <path fill="#191919" d="M88.500698 150.8011c-2.093381-4.41936-4.031696-8.91625-5.970012-13.41315-.232597-.62026-.31013-1.31805-.31013-1.55065 0-2.94624 1.705718-4.96209 4.264294-5.50481 2.481044-.54273 4.496892.38766 5.582348 2.8687 1.860783 4.18676 3.799099 8.37352 5.582349 12.56029 1.628185 3.79909-.07753 7.21053-3.721566 7.75326-2.325978.31013-4.419359-.6978-5.427283-2.71364z"/>
  <path fill="#0069b5" d="M94.315644 150.18084c-1.162989.62026-2.636109.38766-3.411435-1.47312l-5.582348-11.86249c-.155066-.38767-.310131-.77533-.387663-1.16299-.155066-1.16299.542728-2.40352 1.550652-2.71365 1.162989-.38766 2.015848.0775 2.713642 1.00793.232597.31013 3.954163 8.68365 5.582348 12.48275 1.085457 2.09338.310131 3.3339-.465196 3.72157z"/>
  <path fill="#a7a6a6" d="M94.625775 135.8373c-.07753-.15506-.07753-.2326-.07753-.38766 0-.0775 0-.2326.07753-.31013 0-.0775.07753-.15507.155065-.2326.07753-.0775.155065-.15507.232598-.15507l.155065.31013c-.07753 0-.07753.0775-.155065.15507 0 .0775-.07753.0775-.07753.15507v.15506c0 .0775 0 .15507.07753.15507 0 .0775.07753.0775.07753.15506 0 .0775.07753.0775.07753.0775s.07753 0 .07753.0775h.07753l.07753-.0775v-.31013c0-.0775 0-.15506-.07753-.23259v-.54273c0-.0775.07753-.15507.07753-.15507l.155065-.15506c.07753 0 .155065-.0775.232598-.0775.07753 0 .155065 0 .232598.0775.07753.0775.155065.0775.232598.15506.07753.0775.07753.15507.155065.2326.07753.0775.07753.2326.07753.31013v.31013c0 .0775-.07753.15507-.155066.2326-.07753.0775-.155065.15506-.232597.15506l-.155066-.31013c.232598-.0775.232598-.31013.155066-.54273-.07753-.0775-.07753-.15506-.155066-.23259-.07753-.0775-.155065-.0775-.232598 0 0 0-.07753 0-.07753.0775v.93039c0 .0775 0 .15507-.07753.15507 0 .0775-.07753.0775-.07753.15506-.07753.0775-.07753.0775-.155066.0775-.07753 0-.155065.0775-.232597.0775-.07753 0-.155066 0-.232598-.0775-.07753-.0775-.155066-.0775-.232598-.15506.07753-.0775.07753-.15507 0-.2326zm2.636109 1.78325l-.232598-.54273-1.550652.62026-.155066-.38766 1.550653-.62026-.232598-.54273.31013-.15506.620261 1.47312-.31013.15506zm-.775326 2.48105l-.155066-.38767.465196-.46519-.31013-.62026h-.620261l-.155066-.38767 2.170914-.0775.155065.31013-1.550652 1.62819zm.542728-1.00793l.465196-.46519h-.697794l.232598.46519zm.232598 2.86871l-.155065-.38767.465195-.38766.07753-.0775s0-.0775.07753-.0775v-.2326l-.155066-.38766-.775326.31013-.155065-.31013 1.860783-.77533.387663.85286c0 .0775.07753.0775.07753.15506 0 .0775 0 .0775.07753.15507v.31013c0 .0775 0 .0775-.07753.15506l-.07753.0775-.07753.0775-.07753.0775c-.07753.0775-.232598.0775-.310131.0775-.07753 0-.232598-.0775-.31013-.15506 0 .0775-.07753.2326-.232598.31013l-.620261.2326zm.542728-1.70572l.232598.4652c0 .0775.07753.0775.07753.15506 0 .0775.07753.0775.07753.0775h.232598c.07753 0 .155065-.0775.155065-.15506 0-.0775 0-.15507-.07753-.2326l-.232598-.46519-.465196.15506zm1.705718 2.71364l-.232598-.54273-1.550652.62026-.155066-.38766 1.550653-.62026-.232598-.54273.31013-.15506.620261 1.47312-.31013.15506z"/>
  <path fill="#191919" d="M63.302597 75.516916c-17.057176 0-30.857982-13.8008-30.857982-30.78045 0-16.979639 13.800806-30.780445 30.857982-30.780445s30.857982 13.800806 30.857982 30.780445c0 16.97965-13.878339 30.78045-30.857982 30.78045zM88.2681 44.658936c0-13.800804-11.24223-24.965501-25.043036-24.965501-13.800806 0-24.965503 11.24223-24.965503 24.965501 0 13.72328 11.24223 24.96551 25.043036 24.96551 13.800806 0 24.965503-11.1647 24.965503-24.96551z"/>
  <g fill="#a4a4a4" transform="matrix(0.77532618,0,0,0.77532618,0.03598048,1.5010454e-4)">
    <path d="M120.7 57.6l-6.2-2.8v5.7"/>
    <circle cx="106" cy="31.5" r="1.3"/>
    <circle cx="106" cy="83.699997" r="1.3"/>
    <circle cx="57.099998" cy="83.699997" r="1.3"/>
    <circle cx="57.099998" cy="31.5" r="1.3"/>
    <path d="M81.5 18.4l-2.8 6.2h5.7m-42.1 33l6.2 2.9v-5.7m33.2 42l2.9-6.2h-5.7"/>
  </g>
  <path fill="#151617" d="M57.720249 179.48817c-2.481044-6.20261-4.72949-12.48276-7.443132-18.5303-2.868707-6.43521-6.202609-12.71535-9.458979-18.99549-2.481044-4.88456-2.325979-6.51274-1.705718-10.23431.465196-2.71364 3.101305-6.97793 6.667805-8.68365 1.938316-.93039 4.186762-1.31806 6.357675-1.16299 4.962088.4652 7.830794 3.02377 9.924175 6.28014 7.753262 11.86249 13.413143 24.73291 18.220165 37.99098.852859 2.24845 1.783251 4.65196 2.093381 6.97794 1.085457 7.83079-4.419359 14.18847-12.327686 14.4986-6.047544.15507-10.001708-2.48104-12.327686-8.14092z"/>
  <circle cx="61.441811" cy="155.29799" r="8.9162512" fill="#121212"/>
  <circle cx="61.441811" cy="155.29799" r="7.6757288" fill="#262626"/>
  <path fill="#ee3724" d="M62.294673 157.08124c.155065.15506.465196.2326.775326.0775l.310131-.15506c.620261-.31013.697793-.77533.387663-1.39559l-1.47312-3.10131-.542728.2326-2.325979 1.08546-.542728.31013 1.47312 3.1013c.31013.6978.775326.85286 1.395587.62026l.31013-.15506c.155065-.15507.310131-.31013.232598-.62026zm-1.395587-.0775l-.155065-.38767-1.007924-2.17091.852858-.38766 1.007924 2.17091.155066.38766c.155065.2326 0 .4652-.232598.62026-.310131.0775-.465196.0775-.620261-.23259zm1.47312-.6978l-1.16299-2.55857.852859-.38767 1.162989 2.55858c.155066.2326 0 .46519-.232597.62026-.310131.15507-.465196.0775-.620261-.2326z"/>
  <circle cx="57.332584" cy="157.31383" r=".85285884" fill="#191919"/>
  <circle cx="51.285038" cy="134.90691" r="8.9162512" fill="#121212"/>
  <circle cx="51.285038" cy="134.90691" r="7.6757288" fill="#262626"/>
  <path fill="#ee3724" d="M51.672704 138.16328l-.31013-.69779.697793-1.08546-1.162989-2.48104-1.240522-.0775-.31013-.69779 4.419359.38766.465196 1.00793-2.558577 3.64403zm.775327-2.24845l1.007924-1.47312-.232598-.46519-1.705718-.0775.930392 2.01584z"/>
  <circle cx="69.815338" cy="175.534" r="8.9162512" fill="#121212"/>
  <circle cx="69.815338" cy="175.534" r="7.6757288" fill="#262626"/>
  <path fill="#ee3724" d="M71.210924 176.46439l-.620261-1.47312c-.387663-1.00792-.775326-.77532-1.550652-.38766s-1.240522.38766-.852859 1.39559l1.085457 2.63611-.620261.23259-1.085457-2.6361c-.542728-1.39559 0-1.70572 1.162989-2.24845 1.16299-.4652 1.860783-.62026 2.403512.77533l1.085456 2.6361-.620261.2326-.387663-1.16299z"/>
  <path fill="#a7a6a6" d="M75.010022 142.58264l-.31013-.69779-1.938316.85285-.232597-.46519 1.938315-.85286-.31013-.69779.387663-.15507.852859 1.86078-.387664.15507zm-.852858 3.25637l-.232598-.4652.542728-.54273s.07753-.0775.07753-.15506c0-.0775.07753-.0775.07753-.15507v-.31013l-.232598-.46519-.930391.46519-.232598-.46519 2.325979-1.08546.465195 1.00793c0 .0775.07753.15506.07753.15506 0 .0775.07753.0775.07753.15507v.31013c0 .0775 0 .0775-.07753.15506 0 .0775-.07753.0775-.07753.15507 0 0-.07753.0775-.155065.0775-.07753 0-.07753.0775-.155065.0775-.155065.0775-.31013.0775-.387663.0775-.155065 0-.232598-.0775-.387663-.15506 0 .15506-.07753.2326-.232598.38766l-.542728.77533zm.620261-2.24845l.232597.54273c0 .0775.07753.15507.07753.15507 0 .0775.07753.0775.07753.0775h.155065c.07753 0 .07753 0 .155065-.0775.07753-.0775.155065-.0775.155065-.2326 0-.0775 0-.2326-.07753-.31013l-.310131-.62026-.465195.46519zm-.232598 3.10131l-.232598-.4652 2.325978-1.08545.232598.46519-2.325978 1.08546zm.697793 1.55065c-.07753-.15507-.155065-.31013-.155065-.4652 0-.15506 0-.31013.07753-.46519.07753-.15507.155065-.31013.31013-.38766.155065-.0775.310131-.2326.465196-.31013.155065-.0775.387663-.15507.542728-.15507s.310131 0 .465196.0775.31013.15507.387663.2326c.155065.0775.232598.2326.31013.38766.07753.15507.07753.31013.155066.38767v.38766c0 .15506-.07753.2326-.155066.31013-.07753.0775-.155065.15507-.31013.2326l-.232598-.4652c.07753-.0775.155065-.0775.155065-.15506 0-.0775.07753-.15507.07753-.15507v-.2326c0-.0775 0-.15506-.07753-.23259-.07753-.0775-.07753-.15507-.155065-.2326-.07753-.0775-.155065-.0775-.232598-.15507h-.31013c-.07753 0-.232598.0775-.387663.0775-.155066.0775-.232598.15506-.310131.23259-.07753.0775-.155065.15507-.155065.2326 0 .0775-.07753.15507-.07753.31013 0 .15507 0 .2326.07753.31013.07753.15507.155065.2326.232598.31013.07753.0775.232598.15507.31013.15507l.232598-.0775-.232598-.54273.387663-.15507.465196 1.00793-1.240522.54272-.155065-.31013.155065-.15506c-.07753-.0775-.232598-.15507-.31013-.2326-.155065-.0775-.232598-.15506-.310131-.31013zm1.16299 2.63611c-.07753-.15507-.155066-.31013-.155066-.4652 0-.15506 0-.31013.07753-.46519.07753-.15507.155065-.31013.31013-.38767.155066-.15506.310131-.23259.465196-.31013.155065-.0775.387663-.15506.542728-.15506.155066 0 .310131 0 .465196.0775s.310131.15507.387663.2326c.155065.0775.232598.2326.310131.38766.07753.15507.07753.31013.155065.38767v.38766c0 .15506-.07753.2326-.155065.31013-.07753.0775-.155066.15506-.310131.2326l-.232598-.4652c.07753-.0775.155066-.0775.155066-.15506.07753-.0775.07753-.0775.07753-.15507v-.2326c0-.0775 0-.15506-.07753-.23259-.07753-.0775-.07753-.15507-.155066-.2326-.07753-.0775-.155065-.0775-.232597-.15507-.07753-.0775-.232598 0-.310131 0-.07753 0-.232598.0775-.387663.0775-.155065.0775-.232598.15507-.310131.2326-.07753.0775-.155065.15507-.155065.2326-.07753.0775-.07753.15507-.07753.31013 0 .15507 0 .2326.07753.31013.07753.15507.155065.2326.232598.31013.07753.0775.232598.15507.310131.15507l.232597-.0775-.232597-.54272.387663-.15507.465195 1.00792-1.240522.54273-.155065-.31013.155065-.15506c-.07753-.0775-.232597-.15507-.31013-.2326-.155065-.0775-.232598-.2326-.31013-.31013zm1.628185 3.3339l-.852859-1.78325 2.325978-1.08546.775326 1.70572-.387663.15507-.620261-1.31806-.542728.2326.542728 1.24052-.387663.15507-.542728-1.24052-.620261.31013.620261 1.31805-.31013.31013zm1.085456 2.40351l-.232598-.46519.542729-.54273s.07753-.0775.07753-.15507c0-.0775.07753-.0775.07753-.15506v-.15507s0-.0775-.07753-.15506l-.232598-.4652-.930391.4652-.232598-.4652 2.325979-1.08545.465195 1.00792c0 .0775.07753.15506.07753.15506s.07753.0775.07753.15507v.31013c0 .0775 0 .0775-.07753.15507 0 .0775-.07753.0775-.07753.15506 0 .0775-.07753.0775-.155065.0775-.07753 0-.07753.0775-.155065.0775-.155065.0775-.310131.0775-.387663.0775-.155065 0-.232598-.0775-.387663-.15507 0 .15507-.07753.2326-.232598.38767l-.465196.77532zm.620261-2.17091l.232598.54273c0 .0775.07753.15506.07753.15506 0 .0775.07753.0775.07753.0775h.155065c.07753 0 .07753 0 .155066-.0775.07753-.0775.155065-.0775.155065-.23259 0-.0775 0-.2326-.07753-.31014l-.31013-.62026-.465196.4652z"/>
  <ellipse cx="63.380127" cy="44.736469" fill="#1b1d1f" rx="25.043036" ry="24.965504"/>
  <path fill="#0a0a0a" d="M63.302597 25.275784c10.854567 0 19.383155 8.683653 19.383155 19.538222 0 10.62197-8.761186 19.38315-19.460688 19.38315-10.777033 0-19.538219-8.83872-19.538219-19.53822.07753-10.699499 8.838718-19.383152 19.615752-19.383152zm18.375231 19.460682c0-10.311833-7.98586-18.375226-18.297698-18.375226-10.389371-.07753-18.530296 8.063393-18.530296 18.297696 0 10.31184 8.140925 18.45277 18.452763 18.45277 10.234306 0 18.375231-8.14093 18.375231-18.37524z"/>
  <path fill="#313336" d="M81.832893 44.658936c0-10.311836-7.98586-18.375228-18.297698-18.452761-10.389371 0-18.530296 8.063392-18.530296 18.375231 0 10.31184 8.140925 18.45276 18.452763 18.45276 10.156773.0775 18.297698-8.14092 18.375231-18.37523z"/>
  <path fill="#242629" d="M75.087555 33.416708l-2.791174 1.318055 1.47312 1.550652m-21.786666-2.868707l1.318054 2.868707 1.47312-1.550652M51.82777 56.521426l2.868706-1.39558-1.473119-1.47312m21.786665 3.02377l-1.395587-2.79118-1.473119 1.47312"/>
  <path fill="#181818" d="M63.225064 61.793646h-2.481043c-1.240522-.0775-1.860783-.69779-1.938316-1.93831-.155065-1.62819-.31013-3.33391-.620261-4.96209-.620261-2.79118-2.481044-4.57443-5.272218-5.19469-1.550652-.31013-3.101305-.46519-4.651957-.62026-1.705717-.15506-2.170913-.46519-2.248446-2.17091 0-.77533-.07753-1.47312-.07753-2.24845 0-.77532 0-1.47312.07753-2.24844.07753-1.628189.542729-2.015852 2.248446-2.170917 1.550652-.155065 3.101305-.310131 4.651957-.620261 2.791174-.620261 4.574425-2.403511 5.272218-5.194685.387663-1.628185.542729-3.25637.620261-4.962088.07753-1.240522.697794-1.938316 1.938316-1.938316h4.962087c1.240522.07753 1.860783.697794 1.938316 1.938316.155065 1.628185.31013 3.333903.620261 4.962088.620261 2.791174 2.481043 4.574424 5.272218 5.194685 1.550652.31013 3.101304.465196 4.651957.620261 1.705717.155065 2.170913.465196 2.248446 2.170917 0 .77532.07753 1.47312.07753 2.24844 0 .77533 0 1.47312-.07753 2.24845-.07753 1.62818-.542729 2.01585-2.248446 2.17091-1.550653.15507-3.101305.31013-4.651957.62026-2.791175.62026-4.574425 2.40351-5.272218 5.19469-.387663 1.62818-.542729 3.25637-.620261 4.96209-.07753 1.24052-.697794 1.93831-1.938316 1.93831h-2.481044z"/>
  <g fill="#212121">
    <path d="M59.5810311 28.3770883h7.2880661v32.48616693h-7.2880661z"/>
    <path d="M47.020747 41.01490503h32.48616693v7.2880661H47.020747z"/>
  </g>
  <circle cx="63.225063" cy="44.658939" r="3.5665004" fill="#151617"/>
  <g fill="#a7a6a6">
    <path d="M64.6981839 111.5695874v-3.72156566h.8528588v2.5585764c.54272832-.15506524 1.00792402-.31013048 1.47311973-.4651957 1.16298927-.3876631 2.24844592-.69779357 3.4114352-1.08545666.31013047-.07753262.62026094-.3876631.69779356-.62026095.0775326-.3876631-.3101305-.54272832-.6977936-.62026094-1.7057176-.5427284-3.4889678-1.1629893-5.1946854-1.7057176-.3876631-.1550653-.5427284-.3101305-.5427284-.6977936v-3.4114352c0-1.1629893.7753261-1.9383155 1.9383154-1.9383155h3.2563699c1.2405219 0 1.9383154.7753261 1.9383154 1.9383154v3.1013047h-.9303914v-2.636109c0-1.2405219-.3101305-1.5506524-1.628185-1.5506524H66.869097c-.8528588 0-1.3180545.387663-1.3180545 1.2405218v2.015848h2.86870687v-1.7057176h.8528588v2.636109h-3.7215656v.1550652c1.7057176.5427283 3.41143516 1.08545663 5.11715276 1.7057176 1.00792402.31013044 1.3955871.9303914 1.2405219 1.8607828-.07753264.5427283-.3876631.9303914-.93039144 1.08545662-2.0933807.69779353-4.1092288 1.3180545-6.2026095 2.01584803 0-.07753263 0-.07753263-.0775326-.15506524zm0-23.18225278h.9303914v2.9462395c0 .77532617.62026095 1.3955871 1.39558713 1.47311973.77532618 0 1.39558713-.54272833 1.47311974-1.39558712V90.4031827c.07753262-.46519572.54272833-.8528588 1.08545666-.8528588.54272832 0 1.00792403.38766308 1.08545665.8528588v3.17883733h-.93039142V90.4807153h-.31013047v.93039143c0 1.08545665-.6977936 1.93831545-1.7832503 2.24844592-1.3180545.31013047-2.7911743-.62026095-2.8687069-1.93831545-.0775326-1.16298927-.0775326-2.24844592-.0775326-3.33390258z"/>
    <path d="M65.93870578 88.38733462h.93039142v3.10130472h.23259785v-.9303914c0-.93039143.4651957-1.55065237 1.2405219-1.93831546.8528588-.3876631 1.70571758-.31013047 2.48104376.15506523.5427284.3876631.8528588.8528588.9303915 1.4731198v3.3339026h-.9303914v-2.9462395c0-1.007924-.9303914-1.628185-1.8607828-1.3180545-.5427283.1550653-.9303914.6977936-.9303914 1.3180545v.9303914c-.0775326.4651957-.5427283.8528588-1.0854566.8528588s-1.0854566-.3876631-1.0854566-.8528588c.0775326-1.007924.0775326-2.0933806.0775326-3.1788373zm5.89247897 10.93209914h-.8528588v-2.94623948c0-1.00792404-.3876631-1.39558713-1.39558712-1.39558713h-2.5585764c-1.00792403 0-1.39558712.3876631-1.39558712 1.3180545v2.9462395h-.9303914v-3.48896782c.0775326-.8528588.8528588-1.55065236 1.7057176-1.62818497h3.7215657c.7753262 0 1.628185.69779356 1.628185 1.47311974.0775326 1.3180545.0775326 2.48104377.0775326 3.72156566zm-7.13300086 6.66780515c1.9383154.620261 3.8766309 1.2405219 5.7374137 1.8607829.1550652.0775326.3101305.1550653.3101305.3101305 0 .0775327-.1550653.2325979-.2325979.3101305-1.5506524.5427283-3.0237721 1.007924-4.6519571 1.5506524v-2.0933807c.2325978 0 .3876631-.0775326.6202609-.0775326v-.0775326c-.3876631-.1550652-.6977936-.2325978-1.0854567-.3876631-.7753262-.3101304-.7753262-.3101304-.6977936-1.3955871zm2.2484459 1.8607829v.7753262c.3876631-.0775326.6977935-.2325978 1.007924-.3101304v-.1550652c-.3101305-.0775326-.620261-.2325978-1.0079241-.3101304zm.1550652-4.9620875c.0775326-.3101304.1550652-.4651957.1550652-.6202609h.7753261v1.3955871h-2.0933807c0-.6977935-.0775326-1.3955871 0-2.0933807 0-.1550652.3876631-.4651957.5427283-.4651957 1.1629892-.0775326 2.2484459 0 3.4114352 0 .3876631 0 .6202609.2325979.6202609.620261v3.1788374h-.9303914v-2.3259785c0-.4651957-.1550653-.6202609-.620261-.6202609h-1.5506523c-.620261-.0775326-.6977936.23259787-.3101305.93039143z"/>
    <path d="M66.9466298 96.29566166c-.15506522 1.00792403 0 2.01584807-.0775326 3.0237721h-.8528588v-3.4114352c0-.15506523.3876631-.4651957.62026094-.4651957.4651957-.07753262.93039142 0 1.47311974 0v3.17883734h-.8528588v-2.24844592c-.15506523 0-.23259785 0-.31013047-.07753262zm3.64403306 3.0237721h-.8528588c-.15506523-1.00792403.07753262-2.01584807-.15506523-3.0237721h-.23259786v2.24844592h-.8528588v-3.17883734c.54272833 0 1.08545666-.0775326 1.62818498 0 .15506524 0 .4651957.31013048.4651957.4651957v3.48896782z"/>
  </g>
  <path fill="#a7a6a6" d="M107.26359 68.538986c.0775 0 .15507-.0775.15507-.0775.0775-.0775.0775-.0775.0775-.15507 0-.0775.0775-.0775.0775-.15506v-.2326c0-.0775-.0775-.15507-.0775-.2326 0-.0775-.15506-.15507-.2326-.15507-.0775-.0775-.15506-.0775-.31013-.0775h-.31013c-.15506 0-.23259.0775-.31013.15507-.0775.0775-.15506.0775-.23259.15506-.0775.0775-.0775.15507-.0775.2326v.31013c0 .0775.0775.15507.0775.15507l.15506.15506s.0775.0775.15507.0775h.23259c.0775.15507.0775.2326.0775.4652h-.38767c-.0775 0-.23259-.0775-.31013-.15507l-.2326-.23259c-.0775-.0775-.0775-.2326-.15506-.31013 0-.15507-.0775-.31013 0-.4652 0-.15507.0775-.31013.15506-.38766.0775-.0775.15507-.2326.31014-.31013.15506-.0775.31013-.15507.46519-.15507.15507-.0775.31013-.0775.4652 0 .15506 0 .31013.0775.38766.15507.15507.0775.2326.15506.31013.31013.0775.15506.15507.23259.15507.46519v.38767s-.0775.23259-.0775.31013l-.23259.23259c-.0775.0775-.15507.15507-.31014.15507.0775-.31013.0775-.38766 0-.62026zm1.24053 1.78325v.46519c0 .15507-.0775.31013-.15507.38767-.0775.15506-.15506.2326-.31013.31013-.15506.0775-.31013.15506-.46519.15506-.15507 0-.31014.0775-.4652 0-.15507 0-.31013-.0775-.38766-.15506-.15507-.0775-.2326-.15507-.31013-.31013-.0775-.15507-.15507-.2326-.15507-.38767v-.46519s.0775-.31013.15507-.38766c.0775-.15507.15506-.2326.31013-.31013.15506-.0775.31013-.15507.46519-.15507.15507 0 .31013-.0775.4652 0 .15506 0 .31013.0775.38766.15507.15507.0775.2326.15506.31013.31013.0775.0775.15507.23259.15507.38766zm-1.93832.38766c0 .0775.0775.15507.0775.2326.0775.0775.15507.15506.2326.15506.0775.0775.15507.0775.31013.0775h.31013c.15507 0 .2326-.0775.31013-.15507.0775-.0775.15507-.15506.2326-.15506.0775 0 .0775-.15507.0775-.2326v-.31013c0-.0775-.0775-.15507-.0775-.2326-.0775-.0775-.15506-.15506-.2326-.15506-.0775-.0775-.15506-.0775-.31013-.0775h-.31013c-.15506 0-.2326.0775-.31013.15507-.0775.0775-.15506.15506-.2326.15506-.0775 0-.0775.15507-.0775.2326v.31013zm.38766 3.7991c0-.15507-.0775-.2326-.0775-.38766.54273-.0775.85286-.15507 1.47312-.31013-.62026-.0775-.93039-.15507-1.55065-.2326 0-.15507-.0775-.2326-.0775-.38766.54272-.31013.77532-.4652 1.31805-.77533-.54273.0775-.85286.15506-1.47312.31013 0-.15507-.0775-.2326-.0775-.38766.93039-.15507 1.31805-.31013 2.24844-.4652.0775.2326.0775.31013.0775.54273-.62026.31013-.93039.54273-1.47312.85286.69779.0775 1.00792.15506 1.70571.2326.0775.23259.0775.31013.0775.54272-.77533.2326-1.24052.31013-2.17092.4652zm2.40352.15507c.0775.38766.0775.54272.15506.93039v.46519s0 .15507-.0775.2326c0 .0775-.0775.15507-.0775.15507l-.15507.15506s-.15507.0775-.2326.0775c-.2326.0775-.46519 0-.54273-.15506-.0775-.15507-.23259-.31013-.31013-.62026 0-.15507-.0775-.31013-.0775-.4652-.31013.0775-.54273.0775-.85286.15507 0-.15507-.0775-.2326-.0775-.4652.85286-.2326 1.31805-.31013 2.24845-.46519zm-1.00793.62026c0 .15506.0775.31013.0775.46519 0 .0775 0 .15507.0775.2326 0 .0775.0775.0775.0775.15507l.0775.0775h.15507c.0775 0 .0775 0 .15506-.0775l.0775-.0775v-.31013c0-.15506-.0775-.31013-.0775-.46519-.2326-.0775-.31013-.0775-.62026 0zm-.77532 2.8687v-.38766c0-.0775 0-.2326.0775-.31013.0775-.0775.0775-.15507.15506-.15507.0775-.0775.15507-.0775.2326-.15506.0775 0 .15507-.0775.2326-.0775.0775 0 .15506 0 .2326-.0775.54272-.0775.77532-.15506 1.31805-.23259 0 .15506.0775.23259.0775.46519-.54272.0775-.77532.15507-1.31805.2326-.15507 0-.2326.0775-.31013.0775-.0775 0-.15507.0775-.15507.15507 0 .0775-.0775.0775-.0775.15506v.2326c0 .0775 0 .15507.0775.2326l.15507.15506c.0775 0 .15506.0775.2326.0775h.31013c.54273-.0775.77532-.15507 1.31805-.2326 0 .15506.0775.2326.0775.46519-.54272.0775-.77532.15507-1.31805.2326h-.4652c-.15506 0-.23259-.0775-.31013-.0775l-.23259-.2326c-.2326-.15506-.31013-.31013-.31013-.54273zm2.40351 2.94624c-.0775-.31013-.0775-.46519-.0775-.69779-.77532.0775-1.16299.15506-1.86078.2326 0-.15507 0-.2326-.0775-.4652.77532-.0775 1.16299-.15506 1.86078-.2326-.0775-.31013-.0775-.46519-.0775-.69779.15506 0 .2326 0 .38766-.0775.0775.77532.15507 1.16299.2326 1.86078-.15507 0-.2326 0-.38766.0775zm-1.62819 2.32598c-.0775-.69779-.15506-1.08546-.2326-1.78325.93039-.15506 1.39559-.15506 2.24845-.31013.0775.69779.15506 1.00792.2326 1.70572-.15507 0-.2326 0-.38767.0775-.0775-.54273-.0775-.77533-.15506-1.31805-.2326 0-.31013.0775-.54273.0775.0775.46519.0775.69779.15507 1.24052-.15507 0-.2326 0-.38767.0775-.0775-.46519-.0775-.69779-.15506-1.24052-.2326 0-.38767.0775-.62026.0775.0775.54273.0775.77533.15506 1.31806-.0775.0775-.15506.0775-.31013.0775zm.2326 2.48105c0-.15507 0-.31014-.0775-.4652.23259-.0775.38766-.15507.62026-.31013.0775 0 .0775-.0775.0775-.0775l.0775-.0775s0-.0775.0775-.15506v-.15507c0-.15506 0-.31013-.0775-.46519-.38766.0775-.54273.0775-.93039.0775 0-.15507 0-.2326-.0775-.4652.93039-.0775 1.39559-.15506 2.24844-.23259.0775.38766.0775.62026.15507 1.08545v.4652c0 .0775-.0775.0775-.0775.15506 0 .0775-.0775.0775-.0775.0775s-.0775.0775-.15506.0775c-.0775 0-.0775.0775-.15507.0775h-.15506c-.15507 0-.2326 0-.38766-.0775l-.2326-.2326c-.0775.0775-.15507.2326-.31013.31013-.15507.15507-.31013.2326-.54273.38767zm1.16299-1.70572c0 .2326.0775.31013.0775.54273v.23259c0 .0775 0 .0775.0775.15507l.0775.0775h.15506c.0775 0 .15507-.0775.2326-.15506.0775-.0775.0775-.15507.0775-.31013 0-.2326-.0775-.38767-.0775-.62027-.2326 0-.38766 0-.62026.0775zm1.39559 4.72949c-.9304-.31013-1.39559-.4652-2.32598-.6978v-.38766c.85286-.4652 1.31805-.69779 2.17091-1.08546 0 .15507 0 .31013.0775.4652-.69779.31013-1.00792.4652-1.62818.77533.69779.23259 1.08545.31013 1.78325.46519-.0775.2326-.0775.31013-.0775.4652zm-2.17092.93039v-.4652c.93039-.0775 1.39559-.0775 2.32598-.15506v.46519c-1.00792.0775-1.47312.0775-2.32598.15507zm1.31806 2.40351c-.77533.0775-1.16299-.31013-1.24053-1.08546 0-.31013 0-.46519-.0775-.77532.93039-.0775 1.39559-.0775 2.32598-.15507 0 .31013 0 .4652.0775.77533 0 .77532-.38766 1.16299-1.08545 1.24052zm-.0775-.4652c.0775 0 .2326 0 .31013-.0775.0775 0 .15507-.0775.2326-.15506.0775-.0775.0775-.15507.15507-.2326v-.6978c-.62026.0775-.93039.0775-1.47312.0775v.31013c0 .15506 0 .2326.0775.38766.0775.0775.0775.15507.15507.2326.0775.0775.15506.0775.23259.0775.0775.0775.2326.0775.31013.0775zm-1.00792 2.71365c0-.6978-.0775-1.08546-.0775-1.78325.93039-.0775 1.39558-.0775 2.32598-.15507 0 .69779.0775 1.08546.0775 1.78325h-.38766c0-.54273 0-.77533-.0775-1.31805h-.54273c0 .46519 0 .69779.0775 1.24052h-.38767c0-.4652 0-.6978-.0775-1.24052h-.62026c0 .54272 0 .77532.0775 1.31805-.15506.15507-.23259.15507-.38766.15507zm2.40351 1.47312c0 .15506 0 .31013-.0775.46519-.0775.15507-.15507.2326-.2326.38766-.0775.0775-.2326.15507-.38766.2326-.15507.0775-.31013.0775-.4652.0775-.15506 0-.31013 0-.46519-.0775-.15507-.0775-.31013-.15506-.38767-.2326-.0775-.0775-.15506-.23259-.23259-.31013-.0775-.0775-.0775-.31013-.0775-.46519 0-.15507 0-.31013.0775-.4652.0775-.15506.15506-.2326.23259-.38766.0775-.0775.2326-.15507.38767-.2326.15506-.0775.31013-.0775.46519-.0775.15507 0 .31013 0 .4652.0775.15506.0775.31013.15507.38766.2326.0775.0775.15507.2326.2326.38766 0 .0775.0775.2326.0775.38767zm-2.01585 0c0 .0775 0 .15506.0775.31013.0775.0775.0775.15506.15506.23259.0775.0775.15507.0775.2326.15507.0775 0 .2326.0775.31013.0775.15506 0 .2326 0 .31013-.0775.0775-.0775.15507-.0775.2326-.15507.0775-.0775.15506-.15506.15506-.23259 0-.0775.0775-.15507.0775-.2326 0-.0775 0-.15507-.0775-.31013-.0775-.15507-.0775-.15507-.15506-.2326-.0775-.0775-.15507-.0775-.2326-.15507-.0775 0-.2326-.0775-.31013-.0775-.15507 0-.2326 0-.31013.0775-.0775 0-.15507.0775-.2326.15507-.0775.0775-.15506.15506-.15506.2326-.0775.0775-.0775.15506-.0775.2326zm-.31013 3.5665c0-.15507 0-.31013.0775-.4652.0775-.15507.15506-.2326.23259-.38766.0775-.0775.2326-.15507.38767-.2326.15506-.0775.31013-.0775.46519-.0775.15507 0 .31013 0 .4652.0775.15506.0775.2326.15506.38766.2326.0775.0775.15507.23259.2326.38766.0775.15507.0775.31013.0775.4652 0 .15506 0 .31013-.0775.38766-.0775.155064-.0775.232604-.15507.310134l-.23259.2326s-.2326.0775-.31013.0775v-.4652c.0775 0 .15506 0 .15506-.0775s.0775-.0775.15507-.155064c0-.0775.0775-.0775.0775-.15507v-.2326c0-.0775 0-.23259-.0775-.31013-.0775-.0775-.0775-.15506-.15507-.2326-.0775-.0775-.15506-.0775-.2326-.15506-.0775 0-.2326-.0775-.31013-.0775-.15506 0-.2326 0-.31013.0775-.0775 0-.15506.0775-.2326.15506-.0775.0775-.15506.15507-.15506.2326 0 .0775-.0775.15507-.0775.31013 0 .15507 0 .2326.0775.38767.0775.155064.0775.155064.2326.232594h.23259v-.542724h.38767v1.007924h-1.24052v-.31013c.0775 0 .0775 0 .15506-.0775-.0775-.0775-.15506-.15507-.15506-.310134-.0775-.0775-.0775-.15507-.0775-.31013zm0 3.488964v-.46519c.2326-.0775.38767-.15507.6978-.2326v-.77533c-.2326-.0775-.38767-.15506-.62026-.23259v-.4652c.93039.38766 1.39558.54273 2.32597.93039v.38766c-1.00792.31014-1.47312.54273-2.40351.85286zm1.00793-.85286c.31013-.0775.46519-.15506.69779-.31013-.31013-.0775-.4652-.15506-.69779-.31013v.62026zm-1.08546 3.33391v-.38767c.62026 0 .85286 0 1.47312.0775-.54273-.2326-.85286-.31013-1.47312-.54273v-.38766c.62026-.15507.93039-.2326 1.47312-.4652-.62026 0-.85286 0-1.47312-.0775v-.38767c.93039 0 1.39559 0 2.32598.0775v.54273c-.69779.23259-1.00793.31013-1.62819.46519.62026.2326 1.00793.38766 1.62819.62026v.54273c-.93039 0-1.39559-.0775-2.32598-.0775zm-.15507 2.32598c.0775-.6978.0775-1.08546.0775-1.78325.93039.0775 1.39558.0775 2.32598.0775 0 .69779-.0775 1.08546-.0775 1.78325h-.38766c0-.54273.0775-.77533.0775-1.31806h-.54273c0 .4652 0 .6978-.0775 1.24053h-.38766c0-.4652.0775-.6978.0775-1.24053h-.62026c0 .54273-.0775.77533-.0775 1.31806-.15507-.0775-.2326-.0775-.38767-.0775zm1.31806 3.02377h.15506c.0775 0 .0775-.0775.15507-.0775.0775-.0775.0775-.0775.0775-.15507 0-.0775.0775-.15507.0775-.2326v-.31013s-.0775-.15506-.15507-.2326c-.0775-.0775-.15507-.0775-.2326-.15506-.0775 0-.2326-.0775-.31013-.0775h-.31013c-.0775 0-.15506.0775-.2326.0775-.0775.0775-.15506.0775-.15506.15506-.0775.0775-.0775.15507-.0775.2326v.2326c0 .0775.0775.15506.0775.15506 0 .0775.0775.0775.15506.15507.0775 0 .15507.0775.2326.0775v.4652c-.15506 0-.2326-.0775-.38766-.15507l-.2326-.23259c-.0775-.0775-.0775-.15507-.15507-.31014 0-.0775-.0775-.23259 0-.38766 0-.15506.0775-.31013.0775-.46519.0775-.15507.15506-.2326.2326-.31013.0775-.0775.23259-.15507.38766-.15507.15506-.0775.31013-.0775.46519-.0775.15507 0 .31013.0775.4652.0775.15507.0775.2326.15507.38766.2326.0775.0775.15507.2326.2326.38766.0775.15507.0775.31013.0775.4652 0 .15506 0 .23259-.0775.38766-.0775.0775-.0775.2326-.15506.31013-.0775.0775-.15507.15507-.31013.2326-.0775.0775-.2326.0775-.31014.0775-.15506-.15506-.15506-.2326-.15506-.38766zm.69779 1.93831c0 .15507-.0775.31013-.15506.4652-.0775.15506-.15507.2326-.31013.31013-.0775.0775-.2326.15506-.38767.2326-.15506.0775-.31013.0775-.46519 0-.15507 0-.31013-.0775-.4652-.15507-.15506-.0775-.2326-.15506-.38766-.2326-.0775-.0775-.15507-.23259-.2326-.38766-.0775-.15506-.0775-.31013-.0775-.46519 0-.15507.0775-.31013.15506-.4652.0775-.15507.15507-.2326.31013-.31013.0775-.0775.2326-.15507.38767-.2326.15506-.0775.31013-.0775.46519-.0775.15507 0 .31013.0775.4652.15506.15506.0775.2326.15507.38766.2326.0775.0775.15507.2326.2326.38767.0775.23259.0775.38766.0775.54272zm-2.01585-.15506v.31013c0 .0775.0775.15506.15507.2326.0775.0775.15507.15506.2326.15506.0775.0775.2326.0775.31013.0775h.31013c.0775 0 .15506-.0775.2326-.15506.0775-.0775.15506-.15507.15506-.2326.0775-.0775.0775-.15506.0775-.2326v-.31013c0-.0775-.0775-.15506-.15506-.23259-.0775-.0775-.15507-.15507-.2326-.15507-.0775 0-.2326-.0775-.31013-.0775h-.31013c-.0775 0-.15506.0775-.2326.15506-.0775.0775-.15506.15507-.15506.2326 0 .0775-.0775.15507-.0775.2326zm-.69779 3.41143c0-.15506 0-.23259.0775-.38766.62026-.31013 1.00793-.54273 1.62819-.85286-.62026-.0775-.93039-.0775-1.55065-.15506 0-.15507 0-.2326.0775-.38767.93039.0775 1.39559.15507 2.24845.2326 0 .15507 0 .2326-.0775.38766-.62026.38767-1.00792.54273-1.62818.85286.62026.0775.93039.0775 1.55065.15507 0 .15506 0 .2326-.0775.38766-.85286-.0775-1.31806-.15506-2.24845-.2326zm1.62819 2.48105c0-.31013.0775-.4652.0775-.6978-.77533-.0775-1.16299-.15506-1.86078-.23259 0-.15507 0-.2326.0775-.4652.77532.0775 1.16299.15507 1.86078.2326 0-.31013.0775-.4652.0775-.6978.15507 0 .2326 0 .38767.0775-.0775.77532-.15507 1.16299-.2326 1.86078-.15507-.0775-.2326-.0775-.38766-.0775zm-2.17092 2.01585c0-.15507.0775-.31014.0775-.4652.23259-.0775.38766-.0775.62026-.15507.0775 0 .0775 0 .15506-.0775.0775 0 .0775-.0775.0775-.0775l.0775-.0775s0-.0775.0775-.15507c0-.15506.0775-.31013.0775-.46519-.38766-.0775-.54273-.0775-.93039-.15507 0-.15506 0-.2326.0775-.4652.93039.15507 1.39559.15507 2.24845.31014-.0775.38766-.0775.62026-.15507 1.08545v.15507c0 .0775 0 .0775-.0775.15506 0 .0775-.0775.0775-.0775.15507 0 .0775-.0775.0775-.0775.15506 0 0-.0775.0775-.15507.0775-.0775 0-.0775.0775-.15506.0775h-.31013c-.15507 0-.2326-.0775-.31014-.15507-.0775-.0775-.15506-.15506-.15506-.31013-.0775.0775-.2326.15507-.38766.15507-.31013.15506-.4652.2326-.6978.2326zm1.47312-1.31806c0 .2326-.0775.31013-.0775.54273v.38766l.0775.0775s.0775 0 .15507.0775c.0775 0 .15506 0 .2326-.0775.0775-.0775.0775-.15506.0775-.31013 0-.23259.0775-.38766.0775-.62026-.15506-.0775-.31013-.0775-.54273-.0775zm.54273 3.10131c0 .15506-.0775.31013-.15506.46519-.0775.15507-.15507.2326-.31013.31013-.15507.0775-.2326.15507-.38767.15507h-.46519c-.15507 0-.31013-.0775-.4652-.15507-.15506-.0775-.2326-.15506-.31013-.31013-.0775-.0775-.15506-.2326-.15506-.38766 0-.15507-.0775-.31013 0-.4652.0775-.15506.0775-.31013.15506-.46519.0775-.15507.15507-.2326.31013-.31013.15507-.0775.2326-.15507.38766-.15507h.4652c.15506 0 .31013.0775.4652.15507.15506.0775.23259.15506.31013.31013.0775.15506.15506.23259.15506.38766.0775.15507.0775.31013 0 .4652zm-1.93831-.31013v.31013c0 .0775.0775.15506.15506.23259.0775.0775.15507.15507.2326.15507.0775 0 .2326.0775.31013.0775h.31013c.0775 0 .2326-.0775.2326-.0775.0775-.0775.15506-.0775.15506-.15507.0775-.0775.0775-.15506.0775-.23259v-.31013c0-.0775-.0775-.15507-.15507-.2326-.0775-.0775-.15507-.15507-.2326-.15507-.0775-.0775-.2326-.0775-.31013-.0775h-.31013s-.2326.0775-.31013.0775c-.0775 0-.15506.0775-.15506.15507.0775.0775 0 .15506 0 .2326zm-.85286 3.02377c.0775-.62026.15506-.85286.23259-1.47312.9304.15506 1.39559.2326 2.24845.38766 0 .15507-.0775.2326-.0775.4652-.77533-.15507-1.16299-.2326-1.86078-.31013-.0775.38766-.0775.62026-.15507 1.08545-.15507-.15506-.2326-.15506-.38766-.15506zm2.01584 1.70571c-.0775.38767-.0775.54273-.15506.85286 0 .0775 0 .15507-.0775.2326 0 .0775-.0775.15507-.0775.2326 0 .0775-.0775.15506-.15506.15506l-.15507.15507s-.15506.0775-.23259.0775h-.2326c-.2326-.0775-.38766-.15506-.4652-.31013-.0775-.15506-.0775-.38766-.0775-.69779 0-.15507.0775-.31013.0775-.4652-.31013-.0775-.54273-.0775-.85286-.15506 0-.15507.0775-.2326.0775-.38767 1.00792 0 1.39558.0775 2.32597.31013zm-1.08545.2326c0 .15507-.0775.31013-.0775.4652v.38766c0 .0775.0775.0775.0775.0775s.0775.0775.15506.0775h.15507l.0775-.0775s.0775-.0775.0775-.15506c0-.0775 0-.0775.0775-.15507 0-.15506.0775-.31013.0775-.46519-.2326-.0775-.38766-.15507-.62026-.15507zm-2.01585 3.41144c.0775-.15507.0775-.31013.0775-.4652.31013-.0775.38767-.0775.6978-.0775.0775-.31013.0775-.4652.15506-.77533-.2326-.15506-.38766-.23259-.62026-.38766 0-.15506.0775-.2326.0775-.4652.85286.54273 1.24053.77533 2.09338 1.31806 0 .15506-.0775.2326-.0775.38766-.93039.2326-1.39559.31013-2.40351.4652zm1.16299-.62026c.31013-.0775.4652-.0775.77533-.15507-.2326-.15506-.38767-.2326-.62027-.38766-.0775.2326-.0775.31013-.15506.54273zm-.54273 3.1013c-.77533-.15506-1.00792-.62026-.85286-1.39559.0775-.31013.0775-.46519.15507-.77532.93039.2326 1.31805.31013 2.24844.54273-.0775.31013-.0775.46519-.15506.77532-.15507.6978-.62026 1.00793-1.39559.85286zm.0775-.46519c.0775 0 .2326.0775.31013 0 .0775 0 .15507 0 .2326-.0775.0775-.0775.15507-.0775.2326-.15506.0775-.0775.0775-.2326.15507-.31013 0-.15507.0775-.2326.0775-.31013-.62026-.15507-.85286-.2326-1.47312-.31013 0 .15506-.0775.15506-.0775.31013 0 .15506-.0775.2326 0 .38766.0775.15507.0775.15507.0775.2326.0775.0775.15506.15506.2326.15506.0775 0 .15506.0775.23259.0775z"/>
</svg>
