<svg id="Calque_1" data-name="Calque 1" xmlns="http://www.w3.org/2000/svg" viewBox="0 0 257.8739 151.72777"><title>controller</title><path d="M130.93375,108.37015c-1.09841-.05916-2.89581-.05915-3.99422,0,0,0-7.80965.42059-12.76007,1.27567a86.52086,86.52086,0,0,0-22.67079,6.99891c-9.28315,4.42724-15.14246,12.05646-18.93941,21.37488-1.60854,3.94319-3.53478,7.5334-7.24595,9.89831-7.45779,4.74495-15.14751,4.98193-23.01881,1.1749-6.71146-3.24229-12.20773-8.083-17.19465-13.49863C12.94238,122.39309,4.75851,107.06911,1.365,89.39536-1.26214,75.72026-.32425,62.37294,6.17546,49.7416c4.40709-8.57215,11.20429-14.85,19.12594-20.04872,13.66-8.96042,28.56544-15.21306,44.06085-20.14455a201.23165,201.23165,0,0,1,39.15961-8.42088C114.65345.45679,120.85565.39629,127.02257.0282L127.31846.011c.89007-.00606,2.34671-.00606,3.237,0l.29589.01718c6.16692.36809,12.36912.42859,18.50071,1.09925a201.2315,201.2315,0,0,1,39.15961,8.42088c15.49541,4.93149,30.40083,11.18413,44.06085,20.14455,7.92165,5.19876,14.71885,11.47657,19.12594,20.04872,6.49971,12.63134,7.4376,25.97866,4.81051,39.65376-3.39355,17.67375-11.57742,32.99773-23.7449,46.19883-4.98692,5.41558-10.48319,10.25634-17.19465,13.49863-7.8713,3.807-15.561,3.57005-23.01881-1.1749-3.71117-2.36491-5.63741-5.95512-7.24595-9.89831-3.79694-9.31842-9.65626-16.94764-18.93941-21.37488a86.52086,86.52086,0,0,0-22.67079-6.99891C138.744,108.79074,130.93375,108.37015,130.93375,108.37015Z" transform="translate(0 -0.00648)" fill="#1b1d1f"/><path d="M96.40642,14.09355v.005l.00252.005-.00252-.005Z" transform="translate(0 -0.00648)" fill="#1b1d1f"/><path d="M105.27861,13.70527c-.00139,0-.00139-.00454,0-.01008s.00365-.01563.005-.01008A.03547.03547,0,0,1,105.27861,13.70527Z" transform="translate(0 -0.00648)" fill="#1b1d1f"/><path d="M120.19919,14.11118c-.00693-.00139-.0092-.00479-.005-.00755a.05246.05246,0,0,1,.02018-.00756c.00138.00139.00867.00593.01006.01008S120.20612,14.11257,120.19919,14.11118Z" transform="translate(0 -0.00648)" fill="#1b1d1f"/><path d="M228.67027,39.47005a48.85618,48.85618,0,0,0-14.4466.33783c-21.61694,3.0154-39.53776,13.26666-55.013,28.20741-6.22238,6.00557-9.04109,13.2213-7.66451,22.06573,1.81527,11.71358,12.76746,20.0084,24.38019,17.7393a39.49329,39.49329,0,0,0,9.33861-3.59526c4.59368-2.21361,8.92512-5.01219,13.58938-7.05437,11.01267-4.82057,22.12118-9.43439,33.26-13.94738,9.85793-3.99865,14.7138-10.811,14.91545-21.47577C247.2466,50.26088,239.75859,41.21474,228.67027,39.47005Zm5.33494,41.98841a12.95012,12.95012,0,0,1-1.5632.73116c-6.40388,2.52122-12.91369,4.78527-19.17642,7.609-8.9957,4.0491-17.825,8.46625-26.65433,12.87838-4.518,2.259-8.86459,4.70461-14.17429,4.66426-10.67484-.08571-19.07556-7.97711-20.24037-18.62173-1.0135-9.263,2.9196-16.17111,9.44451-21.99007,10.19076-9.09151,21.22867-16.88208,34.2432-21.53123,6.47959-2.30942,18.78309-5.36513,27.15858-5.21387,5.90979-.31262,11.10851,1.58334,16.33752,5.73326,4.25074,3.37339,6.13156,9.89326,6.63082,14.83485.03527.36809.05041.7362.05041,1.10429C246.03641,67.143,245.30528,75.16547,234.00521,81.45846Z" transform="translate(0 -0.00648)" fill="#151515"/><path d="M246.06164,61.65678c-.02523,5.48618-.75636,13.50869-12.05643,19.80168a12.95012,12.95012,0,0,1-1.5632.73116c-6.40388,2.52122-12.91369,4.78527-19.17642,7.609-8.9957,4.0491-17.825,8.46625-26.65433,12.87838-4.518,2.259-8.86459,4.70461-14.17429,4.66426-10.67484-.08571-19.07556-7.97711-20.24037-18.62173-1.0135-9.263,2.9196-16.17111,9.44451-21.99007,10.19076-9.09151,21.22867-16.88208,34.2432-21.53123,6.47959-2.30942,18.78309-5.36513,27.15858-5.21387,5.90979-.31262,11.10851,1.58334,16.33752,5.73326,4.25074,3.37339,6.13156,9.89326,6.63082,14.83485C246.0465,60.92058,246.06164,61.28869,246.06164,61.65678Z" transform="translate(0 -0.00648)" fill="#181a1c"/><path d="M194.48755,37.59929c-5.71811,2.65737-11.50682,5.1685-17.29052,7.6847a8.22165,8.22165,0,0,1-2.02707.43365c-3.807-.0353-6.36356-2.16323-7.08967-5.45593A5.92517,5.92517,0,0,1,171.731,33.046c5.37523-2.44055,10.7656-4.86092,16.20638-7.16027,4.92648-2.08253,9.258.0807,9.9992,4.83571A6.29117,6.29117,0,0,1,194.48755,37.59929Z" transform="translate(0 -0.00648)" fill="#191919"/><path d="M193.73057,30.14405c.83515,1.54425.457,3.37214-1.89189,4.38947-5.07542,2.42845-10.18476,4.78619-15.28971,7.15258a6.052,6.052,0,0,1-1.51722.506,3.2526,3.2526,0,0,1-3.54735-2.03146,2.927,2.927,0,0,1,1.2525-3.50606c.371-.277,11.15484-5.06379,16.12739-7.23575C191.6348,28.09556,193.16632,29.10074,193.73057,30.14405Z" transform="translate(0 -0.00648)" fill="#0069b5"/><path d="M175.17454,29.71769a1.50037,1.50037,0,0,1-.48047.124.96979.96979,0,0,1-.40234-.05175.84277.84277,0,0,1-.32031-.20313,1.13827,1.13827,0,0,1-.22852-.33691l.43555-.18506a.61611.61611,0,0,0,.15625.19726.59085.59085,0,0,0,.19727.10059.61032.61032,0,0,0,.22168.01465.98855.98855,0,0,0,.42089-.17041.642.642,0,0,0,.12891-.12842.35436.35436,0,0,0,.05664-.1416.28672.28672,0,0,0-.02148-.147.25246.25246,0,0,0-.08789-.11231.30788.30788,0,0,0-.1504-.0459.96642.96642,0,0,0-.23144.00879c-.09277.0127-.2041.03125-.335.05908a2.48817,2.48817,0,0,1-.40039.04346.97408.97408,0,0,1-.30664-.03955.56641.56641,0,0,1-.22266-.13232.664.664,0,0,1-.15234-.23047.654.654,0,0,1-.05567-.30616.70107.70107,0,0,1,.08594-.29834.97243.97243,0,0,1,.2168-.26269,1.40518,1.40518,0,0,1,.73926-.30859.93949.93949,0,0,1,.36328.03613.81314.81314,0,0,1,.30273.17627.92567.92567,0,0,1,.22363.31592l-.43164.18261a.47164.47164,0,0,0-.6709-.20117.68386.68386,0,0,0-.30371.21631.24965.24965,0,0,0-.03027.25244.17855.17855,0,0,0,.06445.08008.25993.25993,0,0,0,.11133.03613.6636.6636,0,0,0,.168-.00049,2.34668,2.34668,0,0,0,.23242-.03759c.0791-.01563.16016-.0293.24219-.04395a2.45676,2.45676,0,0,1,.25-.03027,1.441,1.441,0,0,1,.24414.00586.81156.81156,0,0,1,.22559.06152.63341.63341,0,0,1,.19238.13379.71119.71119,0,0,1,.14648.229.75094.75094,0,0,1,.0625.3335.79678.79678,0,0,1-.08984.31787.98475.98475,0,0,1-.22266.27832A1.33833,1.33833,0,0,1,175.17454,29.71769Z" transform="translate(0 -0.00648)" fill="#a7a6a6"/><path d="M177.45775,26.3505l-.74805.31836.8457,1.99317-.45117.1914-.8457-1.99316-.7461.3164-.17578-.415,1.94532-.82618Z" transform="translate(0 -0.00648)" fill="#a7a6a6"/><path d="M180.71849,27.31925l-.501.21289-.55664-.57715-.8418.35791.041.79493-.47559.20166-.09668-2.80078.42774-.18165Zm-1.3584-.68652-.61621-.63965.04785.88086Z" transform="translate(0 -0.00648)" fill="#a7a6a6"/><path d="M183.06517,26.32316l-.48438.20508-.50781-.55762a.60463.60463,0,0,0-.11914-.09668.492.492,0,0,0-.28711-.0708.43907.43907,0,0,0-.15137.03564l-.48242.20459.41113.96778-.44921.19091-1.02246-2.4082,1.0791-.458c.06445-.02734.126-.05273.18554-.07421a1.22623,1.22623,0,0,1,.17578-.05079.88743.88743,0,0,1,.17481-.01513.58091.58091,0,0,1,.17871.02978.643.643,0,0,1,.15137.06983.70957.70957,0,0,1,.12988.10058.879.879,0,0,1,.18555.27051.71147.71147,0,0,1,.05273.42236.73713.73713,0,0,1-.18945.36768.89366.89366,0,0,1,.4082.26416Zm-2.208-.69385.59766-.25342a1.14139,1.14139,0,0,0,.20019-.10449.3971.3971,0,0,0,.11817-.11475.249.249,0,0,0,.03808-.13378.44715.44715,0,0,0-.03906-.16114.29628.29628,0,0,0-.2002-.19384.554.554,0,0,0-.33886.05566l-.64453.273Z" transform="translate(0 -0.00648)" fill="#a7a6a6"/><path d="M184.405,23.40226l-.749.31738.84668,1.99317-.45117.1914-.84571-1.99316-.74609.31641-.17578-.415,1.94531-.8252Z" transform="translate(0 -0.00648)" fill="#a7a6a6"/><path d="M97.38934,70.18411A39.74637,39.74637,0,1,1,57.643,30.37145,39.77952,39.77952,0,0,1,97.38934,70.18411ZM57.643,37.92154A32.27775,32.27775,0,1,0,89.8541,70.19922,32.24443,32.24443,0,0,0,57.643,37.92154Z" transform="translate(0 -0.00648)" fill="#191919"/><polygon points="57.611 31.005 54.765 37.199 60.458 37.199 57.611 31.005" fill="#a4a4a4"/><circle cx="31.49254" cy="45.74448" r="1.33299" fill="#a4a4a4"/><circle cx="83.7303" cy="45.74448" r="1.33299" fill="#a4a4a4"/><circle cx="83.7303" cy="94.641" r="1.33299" fill="#a4a4a4"/><circle cx="31.49254" cy="94.641" r="1.33299" fill="#a4a4a4"/><polygon points="18.424 70.193 24.617 73.039 24.617 67.346 18.424 70.193" fill="#a4a4a4"/><polygon points="57.611 109.38 60.458 103.187 54.765 103.187 57.611 109.38" fill="#a4a4a4"/><polygon points="96.799 70.013 90.606 67.167 90.606 72.859 96.799 70.013" fill="#a4a4a4"/><path d="M231.45371,77.3186c-7.98222,3.18683-16.10054,6.06607-23.9314,9.58064-8.32508,3.73646-16.42327,7.99228-24.54663,12.16236-6.3081,3.18683-8.39063,3.04061-13.2213,2.20355-3.50952-.61012-9.0209-4.00875-11.20428-8.61752a15.61178,15.61178,0,0,1-1.47744-8.15866c.61517-6.36861,3.91294-10.095,8.073-12.81791,15.28363-10.00923,31.8682-17.25017,48.952-23.47255a45.71956,45.71956,0,0,1,9.026-2.71788c10.05964-1.422,18.294,5.71814,18.71249,15.90892C242.15375,69.22044,238.81061,74.3839,231.45371,77.3186Z" transform="translate(0 -0.00648)" fill="#151617"/><circle cx="200.26182" cy="72.56402" r="11.48031" fill="#121212"/><circle cx="200.26182" cy="72.56402" r="9.94961" fill="#262626"/><path d="M202.61466,71.39988a.88323.88323,0,0,0,.11341-1.01114l-.17258-.38715c-.35594-.75389-.9744-.9203-1.84906-.50734l-3.95271,1.8662.34169.74532,1.42178,3.01141.36428.74995,3.95271-1.8662c.87467-.413,1.13719-1.00044.78322-1.75016l-.18925-.37925A.87147.87147,0,0,0,202.61466,71.39988Zm-.07423,1.828-.5123.24188-2.75707,1.29154-.53293-1.12876,2.7865-1.3156.48289-.21779c.33323-.15733.58833-.04858.76335.32212C202.94983,72.80027,202.87367,73.07052,202.54043,73.22784Zm-.89278-1.891-3.26545,1.54173-.53293-1.12876,3.26545-1.54173c.33323-.15733.59031-.04439.76926.33463C202.061,70.91762,201.98088,71.17955,201.64765,71.33688Z" transform="translate(0 -0.00648)" fill="#ee3724"/><circle cx="202.86494" cy="77.86559" r="1.06299" fill="#191919"/><circle cx="174.02931" cy="85.59927" r="11.48031" fill="#121212"/><circle cx="174.02931" cy="85.59927" r="9.94961" fill="#262626"/><path d="M178.20686,85.13566l-.85476.408-1.37768-.896-3.242,1.5474-.13254,1.61682-.89205.42577.48773-5.66666,1.25851-.60069Zm-2.90551-1.02946-1.87852-1.27164-.55159.26327-.114,2.22264Z" transform="translate(0 -0.00648)" fill="#ee3724"/><circle cx="226.39359" cy="61.71754" r="11.48031" fill="#121212"/><circle cx="226.39359" cy="61.71754" r="9.94961" fill="#262626"/><path d="M227.63892,59.94318l-1.91936.79074c-1.28723.5243-.96355.99179-.543,2.01846s.51548,1.58491,1.79876,1.05931l3.39547-1.3907.3154.77006-3.38977,1.39274c-1.79342.73745-2.24856.02852-2.87927-1.51138-.63079-1.54012-.813-2.36958.966-3.10428l3.41087-1.397.31275.76361Z" transform="translate(0 -0.00648)" fill="#ee3724"/><path d="M183.864,55.07051l-.9336.43066,1.14551,2.48633-.5625.25977L182.3679,55.76l-.92968.42774-.23829-.51563,2.42676-1.11816Z" transform="translate(0 -0.00648)" fill="#a7a6a6"/><path d="M188.0554,56.15449l-.60351.27832-.66211-.68554a.66273.66273,0,0,0-.15528-.11719.63126.63126,0,0,0-.17675-.06836.57777.57777,0,0,0-.18848-.01074.55057.55057,0,0,0-.18945.0498l-.60157.27735.55567,1.208-.55957.25782L184.09056,54.34l1.3457-.61914c.08008-.03711.15723-.07129.23242-.10059a1.3024,1.3024,0,0,1,.21973-.07031,1.00312,1.00312,0,0,1,.2207-.02734.74106.74106,0,0,1,.22657.03125.91021.91021,0,0,1,.19336.081,1.059,1.059,0,0,1,.16894.124,1.11847,1.11847,0,0,1,.1377.15625,1.02168,1.02168,0,0,1,.10449.17774.90221.90221,0,0,1,.08594.5332.93628.93628,0,0,1-.22754.46973,1.12538,1.12538,0,0,1,.52636.31933Zm-2.81445-.792.74512-.34375a1.49947,1.49947,0,0,0,.249-.13965.50584.50584,0,0,0,.14453-.14941.29916.29916,0,0,0,.042-.1709.54334.54334,0,0,0-.05371-.20215.3823.3823,0,0,0-.26074-.23633.71243.71243,0,0,0-.42773.082l-.80274.37012Z" transform="translate(0 -0.00648)" fill="#a7a6a6"/><path d="M189.17259,55.63984l-.55664.25684-1.38379-3.00293.55762-.25781Z" transform="translate(0 -0.00648)" fill="#a7a6a6"/><path d="M191.20286,54.76289a1.71136,1.71136,0,0,1-.64746.16309,1.45619,1.45619,0,0,1-.60449-.10352,1.56605,1.56605,0,0,1-.52246-.35156,2.18676,2.18676,0,0,1-.58887-1.27832,1.5439,1.5439,0,0,1,.07324-.624,1.4286,1.4286,0,0,1,.31348-.51954,1.69778,1.69778,0,0,1,.53711-.37793,1.71507,1.71507,0,0,1,.53809-.15429,1.44659,1.44659,0,0,1,.50976.02832,1.23722,1.23722,0,0,1,.44531.21,1.21055,1.21055,0,0,1,.33692.38574l-.5752.26563a.70966.70966,0,0,0-.18164-.21582.614.614,0,0,0-.23828-.11133.75381.75381,0,0,0-.28223-.00879,1.12876,1.12876,0,0,0-.3164.09765.98116.98116,0,0,0-.3252.2334.83122.83122,0,0,0-.18359.33106,1.04957,1.04957,0,0,0-.0293.41113,1.57393,1.57393,0,0,0,.14258.47559,1.55543,1.55543,0,0,0,.2666.41211,1.06224,1.06224,0,0,0,.333.248.85168.85168,0,0,0,.373.0791.97656.97656,0,0,0,.3916-.09277,1.409,1.409,0,0,0,.44238-.30273.905.905,0,0,0,.2168-.41114l-.14453-.31445-.74414.34277-.23828-.5166,1.29785-.59765.74609,1.62109-.43066.19824-.16993-.18262a1.17277,1.17277,0,0,1-.28027.36719A1.84976,1.84976,0,0,1,191.20286,54.76289Z" transform="translate(0 -0.00648)" fill="#a7a6a6"/><path d="M194.55736,53.218a1.68282,1.68282,0,0,1-.64747.16211,1.45842,1.45842,0,0,1-.60449-.10254,1.57906,1.57906,0,0,1-.52246-.35254,1.9733,1.9733,0,0,1-.39844-.58691,2.034,2.034,0,0,1-.19043-.69043,1.54377,1.54377,0,0,1,.07325-.624,1.44582,1.44582,0,0,1,.31347-.5205,1.71345,1.71345,0,0,1,.53711-.37793,1.76827,1.76827,0,0,1,.53809-.1543,1.43041,1.43041,0,0,1,.51074.0293,1.255,1.255,0,0,1,.44434.209,1.23708,1.23708,0,0,1,.33691.38672l-.57519.26465a.71763.71763,0,0,0-.18165-.21485.60341.60341,0,0,0-.2373-.11132.759.759,0,0,0-.2832-.00879,1.16779,1.16779,0,0,0-.31641.09668.99719.99719,0,0,0-.32519.23437.834.834,0,0,0-.1836.33008,1.03828,1.03828,0,0,0-.02832.41211,1.71957,1.71957,0,0,0,.4082.88672,1.04737,1.04737,0,0,0,.333.248.84974.84974,0,0,0,.373.08008.96212.96212,0,0,0,.3916-.09375,1.38037,1.38037,0,0,0,.44238-.30176.91447.91447,0,0,0,.2168-.41113l-.14453-.31445-.74414.3418-.23828-.51563,1.29785-.59766.74609,1.6211-.43164.19824-.16992-.18359a1.173,1.173,0,0,1-.2793.36816A1.83181,1.83181,0,0,1,194.55736,53.218Z" transform="translate(0 -0.00648)" fill="#a7a6a6"/><path d="M198.8513,51.18184l-2.29492,1.05761-1.38379-3.0039,2.23047-1.02735.23828.51661-1.66992.76855.3125.67969,1.5625-.72071.23535.5127-1.5625.71973.35937.77929,1.73536-.79883Z" transform="translate(0 -0.00648)" fill="#a7a6a6"/><path d="M202.03294,49.716l-.60351.27832-.66211-.68457a.68111.68111,0,0,0-.15528-.11817.60847.60847,0,0,0-.36523-.0791.5634.5634,0,0,0-.19043.05078l-.60059.27735.55567,1.207-.55957.25781-1.38282-3.00391,1.34375-.61914c.081-.03711.15821-.07031.23243-.10058a1.40721,1.40721,0,0,1,.2207-.07032,1.05022,1.05022,0,0,1,.2207-.02734.73929.73929,0,0,1,.22559.03125.99792.99792,0,0,1,.19336.081,1.01668,1.01668,0,0,1,.16894.124,1.10891,1.10891,0,0,1,.13868.15527,1.06707,1.06707,0,0,1,.10449.17871.909.909,0,0,1,.085.53321.94267.94267,0,0,1-.22656.46972,1.13109,1.13109,0,0,1,.52539.31934Zm-2.81543-.792.7461-.34375a1.38453,1.38453,0,0,0,.248-.13964.49168.49168,0,0,0,.14453-.14844.31309.31309,0,0,0,.043-.17188.5242.5242,0,0,0-.05468-.20117.37761.37761,0,0,0-.26075-.2373.70519.70519,0,0,0-.42675.083l-.80274.36914Z" transform="translate(0 -0.00648)" fill="#a7a6a6"/><ellipse cx="57.70269" cy="70.01319" rx="32.21107" ry="32.27768" fill="#1b1d1f"/><path d="M32.59882,70.08488a25.104,25.104,0,0,1,50.20772.06283,25.10406,25.10406,0,1,1-50.20772-.06283ZM57.72464,46.44627A23.74683,23.74683,0,1,0,81.43248,70.12541,23.39395,23.39395,0,0,0,57.72464,46.44627Z" transform="translate(0 -0.00648)" fill="#0a0a0a"/><path d="M57.63707,46.2729A23.74683,23.74683,0,1,0,81.34491,69.952,23.39394,23.39394,0,0,0,57.63707,46.2729Z" transform="translate(0 -0.00648)" fill="#313336"/><polygon points="43.079 54.893 44.842 58.576 46.761 56.657 43.079 54.893" fill="#242629"/><polygon points="43.079 84.769 46.761 83.006 44.842 81.087 43.079 84.769" fill="#242629"/><polygon points="72.87 84.903 71.106 81.221 69.187 83.14 72.87 84.903" fill="#242629"/><polygon points="73.138 55.066 69.455 56.829 71.374 58.748 73.138 55.066" fill="#242629"/><path d="M79.72623,70.19922c-.00087,1.07246-.0063,2.14675-.04018,3.21394-.05042,1.62368-.89249,2.35481-2.54138,2.47583a42.676,42.676,0,0,0-6.36356.832,8.3889,8.3889,0,0,0-6.69133,6.76193,44.82367,44.82367,0,0,0-.81182,5.97023c-.18657,2.17329-.64545,2.78849-2.76325,2.85906q-1.44928.05085-2.9033.05161-1.4529-.00187-2.90329-.05161c-2.1178-.07057-2.57668-.68577-2.76325-2.85906a44.82533,44.82533,0,0,0-.81183-5.97023A8.3889,8.3889,0,0,0,44.44171,76.721a42.67587,42.67587,0,0,0-6.36355-.832c-1.64889-.121-2.491-.85215-2.54138-2.47583-.03389-1.06719-.03931-2.14148-.04018-3.21394.00087-1.07246.00629-2.14675.04018-3.21394.05041-1.62369.89249-2.35482,2.54138-2.47583a42.67587,42.67587,0,0,0,6.36355-.832A8.38891,8.38891,0,0,0,51.133,56.91551a44.82525,44.82525,0,0,0,.81183-5.97024c.18657-2.17329.64545-2.78848,2.76325-2.85905q1.44928-.05087,2.90329-.05161,1.4529.00187,2.9033.05161c2.1178.07057,2.57668.68576,2.76325,2.85905a44.8236,44.8236,0,0,0,.81182,5.97024,8.38891,8.38891,0,0,0,6.69133,6.76193,42.676,42.676,0,0,0,6.36356.832c1.64889.121,2.491.85214,2.54138,2.47583C79.71993,68.05247,79.72536,69.12676,79.72623,70.19922Z" transform="translate(0 -0.00648)" fill="#181818"/><rect x="36.63738" y="65.5184" width="41.94806" height="9.43439" fill="#212121"/><rect x="36.63738" y="65.48203" width="41.94806" height="9.43439" transform="translate(-12.58781 127.80415) rotate(-90)" fill="#212121"/><path d="M62.258,70.19671a4.64661,4.64661,0,1,1-4.64409-4.6441A4.64616,4.64616,0,0,1,62.258,70.19671Z" transform="translate(0 -0.00648)" fill="#151617"/><g id="SEGA"><path d="M143.94077,68.31177h-4.7829V67.19312h3.27835c-.23839-.721-.43566-1.30763-.62642-1.89658-.47549-1.468-.91972-2.94818-1.44213-4.39767a1.43874,1.43874,0,0,0-.77954-.85815c-.52526-.12214-.69575.42294-.84158.874-.72721,2.2494-1.47533,4.49164-2.17894,6.749a.81639.81639,0,0,1-.94031.69462c-1.46729-.04-2.93632-.00363-4.4045-.01683a2.38686,2.38686,0,0,1-2.49262-2.52619c-.02922-1.38676-.0317-2.77535.00037-4.162a2.3711,2.3711,0,0,1,2.48045-2.53684c1.32329-.01881,2.647-.00394,4.01738-.00394v1.1777c-1.13737,0-2.26828.00021-3.39918,0-1.59541-.00037-1.96151.385-1.96188,2.06695-.00023,1.04679-.00472,2.09361.00132,3.14036.00645,1.11962.51642,1.66544,1.57028,1.6766.85546.00905,1.71108.00184,2.6105.00184V63.52483h-2.17736v-1.136h3.39269V67.199l.18527.02171q1.07645-3.31723,2.15236-6.63467a1.95849,1.95849,0,0,1,2.37777-1.5919,1.66078,1.66078,0,0,1,1.39842,1.16754c.87881,2.65573,1.73112,5.321,2.59012,7.98389C143.98148,68.18522,143.95408,68.239,143.94077,68.31177Z" transform="translate(0 -0.00648)" fill="#a7a6a6"/><path d="M113.96714,68.33622V67.17187c1.27606,0,2.52737.01391,3.77825-.00429a1.82343,1.82343,0,0,0,.10035-3.64547c-.41806-.02934-.84164.011-1.2574-.03393a1.32329,1.32329,0,0,1-1.106-1.36965,1.26783,1.26783,0,0,1,1.108-1.35745c1.36825-.0399,2.73831-.01217,4.14378-.01217v1.15194h-4.02266l-.00379.38745c.38358.017.767.0411,1.15076.0499a2.86593,2.86593,0,0,1,2.85145,2.30729,2.94815,2.94815,0,0,1-2.54148,3.67925C116.798,68.38171,115.42371,68.33622,113.96714,68.33622Z" transform="translate(0 -0.00648)" fill="#a7a6a6"/><path d="M113.95569,66.715V65.51221h4.03675l.00127-.338c-.4116-.01663-.82307-.04126-1.23481-.04837a2.68222,2.68222,0,0,1-2.522-1.63756,3.0273,3.0273,0,0,1,.24322-3.16576,2.41865,2.41865,0,0,1,1.92175-1.1726c1.41814-.04555,2.83858-.01269,4.31366-.01269v1.1537c-1.27409,0-2.549-.02149-3.82289.00607a1.809,1.809,0,0,0-1.70428,2.39807,1.84958,1.84958,0,0,0,1.72678,1.2456c.39523.02333.79434-.00612,1.1874.03407a1.33741,1.33741,0,0,1,1.12834,1.3537,1.30116,1.30116,0,0,1-1.09771,1.37465C116.76408,66.74163,115.39331,66.715,113.95569,66.715Z" transform="translate(0 -0.00648)" fill="#a7a6a6"/><path d="M128.14021,59.15224v1.138c-1.26181,0-2.51129-.001-3.76078.00027-1.31379.00135-1.77171.46567-1.78026,1.82563-.00689,1.09449-.00291,2.18912.00528,3.28362.00944,1.26351.49458,1.77241,1.6861,1.77561,1.25271.00337,2.50544.00076,3.80539.00076v1.16851c-.9348,0-1.8554.00191-2.776-.0007-.58206-.00164-1.166.01921-1.74573-.02174a2.33174,2.33174,0,0,1-2.06741-2.19154c-.03971-1.604-.03691-3.21062-.00052-4.81483a2.2342,2.2342,0,0,1,1.87339-2.14C124.95118,59.08779,126.53051,59.15224,128.14021,59.15224Z" transform="translate(0 -0.00648)" fill="#a7a6a6"/><path d="M136.74641,68.28562c.81148-2.50662,1.60019-4.959,2.40823-7.40449a.74269.74269,0,0,1,.39821-.416c.08876-.0322.338.1594.3845.29787.659,1.96033,1.29567,3.92886,1.95574,5.95055h-2.73983l-.08467-.80808-.11767-.0427c-.15613.45377-.31625.9061-.46762,1.3616C138.08173,68.4327,138.08323,68.43325,136.74641,68.28562Zm2.342-2.89564h.96118l-.40332-1.25015-.16563.01048Z" transform="translate(0 -0.00648)" fill="#a7a6a6"/><path d="M132.67359,65.27225l-.80814-.23641V64.00157h1.77687v2.7093c-.90846,0-1.81192.05154-2.70307-.03514a.99179.99179,0,0,1-.607-.73413c-.06088-1.45787-.043-2.92-.0258-4.38037a.75111.75111,0,0,1,.8-.81693c1.34973-.013,2.69965-.00448,4.10963-.00448v1.158c-1.01521,0-2.01161.0286-3.00557-.01058-.60967-.024-.8451.19871-.80637.84158.0409.679.00263,1.36284.011,2.04441C131.42512,65.58645,131.80072,65.78213,132.67359,65.27225Z" transform="translate(0 -0.00648)" fill="#a7a6a6"/><path d="M124.24622,65.46853c1.254.23395,2.55321-.011,3.85328.13588V66.709c-1.48707,0-2.94526.036-4.39845-.03678-.23195-.01162-.57919-.48522-.63195-.79068a11.40909,11.40909,0,0,1-.02945-1.87192h4.13752v1.09206h-2.89263Z" transform="translate(0 -0.00648)" fill="#a7a6a6"/><path d="M128.14053,60.75081v1.09725c-1.29031.18347-2.61341-.11736-3.881.163l.0129.30175h2.90689v1.14634h-4.12684a15.929,15.929,0,0,1,.03086-2.05544.92733.92733,0,0,1,.64281-.62389C125.18477,60.72253,126.64651,60.75081,128.14053,60.75081Z" transform="translate(0 -0.00648)" fill="#a7a6a6"/></g><path d="M88.42729,13.417a.61476.61476,0,0,0-.11667-.21881.5816.5816,0,0,0-.18217-.14469.6402.6402,0,0,0-.2321-.06494.81716.81716,0,0,0-.2623.01953.88174.88174,0,0,0-.32885.14576A.71527.71527,0,0,0,87.09,13.409a.90942.90942,0,0,0-.09108.35565,1.68455,1.68455,0,0,0,.205.8628.95059.95059,0,0,0,.23832.27789.71727.71727,0,0,0,.30133.136.89781.89781,0,0,0,.60041-.10929.60332.60332,0,0,0,.17752-.163.59007.59007,0,0,0,.0964-.2204.79654.79654,0,0,0,.00711-.27307c.22443-.05115.3367-.07654.56125-.127a1.3222,1.3222,0,0,1-.01968.48792,1.08734,1.08734,0,0,1-.18463.39816,1.16674,1.16674,0,0,1-.32581.29557,1.473,1.473,0,0,1-.44441.17858,1.52417,1.52417,0,0,1-.5945.02753,1.25353,1.25353,0,0,1-.50305-.19705,1.37248,1.37248,0,0,1-.38748-.4035,1.90836,1.90836,0,0,1-.24451-.59217,1.86531,1.86531,0,0,1-.04933-.639,1.37185,1.37185,0,0,1,.16789-.53708,1.2578,1.2578,0,0,1,.36829-.40421,1.534,1.534,0,0,1,.55064-.23987,1.39147,1.39147,0,0,1,.47232-.02972,1.2444,1.2444,0,0,1,.42775.12579,1.16023,1.16023,0,0,1,.34693.269,1.13449,1.13449,0,0,1,.22659.40052C88.76677,13.33983,88.65358,13.36543,88.42729,13.417Z" transform="translate(0 -0.00648)" fill="#a7a6a6"/><path d="M90.65755,11.83083a1.54077,1.54077,0,0,1,.59893-.015,1.33833,1.33833,0,0,1,.51728.20822,1.403,1.403,0,0,1,.3948.41108,1.7255,1.7255,0,0,1,.23255.59133,1.744,1.744,0,0,1,.02066.62989,1.42726,1.42726,0,0,1-.19471.53384,1.35969,1.35969,0,0,1-.38351.40125,1.59249,1.59249,0,0,1-1.14163.24466,1.3545,1.3545,0,0,1-.51367-.20777,1.417,1.417,0,0,1-.39585-.40777,1.75473,1.75473,0,0,1-.239-.58628,1.72916,1.72916,0,0,1-.02945-.63669,1.397,1.397,0,0,1,.19379-.53668,1.33874,1.33874,0,0,1,.38861-.4006A1.54589,1.54589,0,0,1,90.65755,11.83083Zm.53372,2.51043a.87279.87279,0,0,0,.33148-.14331.781.781,0,0,0,.22964-.25793.95992.95992,0,0,0,.1102-.35632,1.36526,1.36526,0,0,0-.02575-.44059,1.34779,1.34779,0,0,0-.154-.41583.93635.93635,0,0,0-.24557-.27988.77853.77853,0,0,0-.314-.13946.87013.87013,0,0,0-.35669.00488.88668.88668,0,0,0-.33331.14337.80316.80316,0,0,0-.23328.25827.92542.92542,0,0,0-.11175.35715,1.333,1.333,0,0,0,.02829.43869,1.34977,1.34977,0,0,0,.15735.41251.96977.96977,0,0,0,.2471.28006.78324.78324,0,0,0,.31305.14209A.85591.85591,0,0,0,91.19127,14.34126Z" transform="translate(0 -0.00648)" fill="#a7a6a6"/><path d="M96.07643,13.82152c-.21368.03961-.3205.05957-.53406.09979L95.191,12.05559c-.11606.79468-.17273,1.19211-.28335,1.98648-.18476.03549-.2771.05334-.4618.08932-.3973-.6961-.59732-1.04388-.99987-1.73822.14785.74491.2218,1.11747.36959,1.86219-.21249.04217-.31875.06344-.53112.10626-.23435-1.16239-.3516-1.744-.58594-2.90646.29-.05848.435-.08741.72513-.14469.44043.77457.65912,1.16266,1.09335,1.9397.11475-.88324.17371-1.325.295-2.20828.28968-.05487.43457-.082.7244-.13572C95.75239,12.07216,95.86046,12.65559,96.07643,13.82152Z" transform="translate(0 -0.00648)" fill="#a7a6a6"/><path d="M96.26909,10.772c.4599-.08325.69-.12418,1.15023-.20447a2.69275,2.69275,0,0,1,.30439-.036,1.53345,1.53345,0,0,1,.28857.00882,1.10261,1.10261,0,0,1,.25922.06479.70911.70911,0,0,1,.21652.13269.74766.74766,0,0,1,.16275.21326,1.01342,1.01342,0,0,1,.09674.30459.86341.86341,0,0,1-.16986.74872,1.361,1.361,0,0,1-.815.38089c-.24426.04257-.3664.06409-.61054.10751l.19526,1.098c-.2201.03916-.33011.0589-.55011.09876C96.586,12.52269,96.48033,11.93883,96.26909,10.772Zm.79413,1.22076c.24877-.04425.37319-.06616.62207-.10953a1.07243,1.07243,0,0,0,.25622-.07321.47374.47374,0,0,0,.16171-.11209.32586.32586,0,0,0,.07645-.14987.49431.49431,0,0,0,.00018-.18829.38827.38827,0,0,0-.08184-.19406.33616.33616,0,0,0-.14777-.09852.54449.54449,0,0,0-.19531-.02575,1.65233,1.65233,0,0,0-.22434.02411c-.2453.04278-.36789.06436-.61307.108Z" transform="translate(0 -0.00648)" fill="#a7a6a6"/><path d="M100.83366,13.0533a1.82842,1.82842,0,0,1-.48422.02069,1.05581,1.05581,0,0,1-.35257-.0964.75547.75547,0,0,1-.2439-.18781,1.0828,1.0828,0,0,1-.1596-.25192,1.5121,1.5121,0,0,1-.09772-.28876q-.03474-.15165-.05942-.3c-.11035-.67074-.16556-1.00616-.27591-1.67676.22409-.03689.33615-.05514.56034-.09133.10791.66861.16186,1.00305.2698,1.67181a1.63953,1.63953,0,0,0,.10758.39914.57828.57828,0,0,0,.16262.22507.42.42,0,0,0,.21851.0877,1.184,1.184,0,0,0,.54416-.08682.41117.41117,0,0,0,.17972-.15152.58527.58527,0,0,0,.08264-.26279,1.65756,1.65756,0,0,0-.02133-.41177c-.10315-.66949-.15476-1.0043-.25791-1.67367.22595-.03483.339-.05207.565-.08619.10141.672.15217,1.00812.25358,1.68027a2.56077,2.56077,0,0,1,.02862.55475.99123.99123,0,0,1-.12677.437.85488.85488,0,0,1-.325.31064A1.68212,1.68212,0,0,1,100.83366,13.0533Z" transform="translate(0 -0.00648)" fill="#a7a6a6"/><path d="M104.55064,9.98161c-.37393.0503-.56088.076-.9346.12821.136.97259.204,1.4591.33991,2.43155-.22184.031-.33277.04669-.55454.07843-.139-.972-.20849-1.45835-.3475-2.43048-.372.05319-.558.08026-.92984.13537l-.07471-.50424c.97263-.14416,1.45929-.213,2.43332-.344Z" transform="translate(0 -0.00648)" fill="#a7a6a6"/><path d="M107.60206,12.06938c-.908.10816-1.36175.1651-2.26867.28479-.15512-1.1756-.23276-1.76382-.38788-2.93945.89557-.1182,1.34366-.1745,2.24029-.28162l.06046.50614c-.66959.08-1.0043.12155-1.67331.20773l.08557.66446c.624-.08035.93607-.1192,1.56052-.19418l.0603.50232c-.62274.07473-.934.11349-1.55618.19363l.09833.76327c.6878-.08862,1.03189-.13125,1.72027-.21325Z" transform="translate(0 -0.00648)" fill="#a7a6a6"/><path d="M110.75111,11.72237c-.23907.02423-.35861.03653-.59765.06155-.14722-.309-.22107-.46341-.36933-.77212a.65124.65124,0,0,0-.099-.14463.55844.55844,0,0,0-.13208-.10766.5727.5727,0,0,0-.15936-.06336.5265.5265,0,0,0-.17862-.01c-.23975.02619-.35962.03946-.59924.06647l.1333,1.18393c-.22165.02493-.33246.0376-.554.06323l-.34085-2.94525c.54117-.06262.81186-.09293,1.35339-.15152.08112-.00879.15793-.01556.23145-.02a1.37515,1.37515,0,0,1,.21274.0029.96771.96771,0,0,1,.19943.03989.72064.72064,0,0,1,.18756.0914.783.783,0,0,1,.14362.12555.82565.82565,0,0,1,.10907.15274.9068.9068,0,0,1,.07379.17209.93425.93425,0,0,1,.0376.1817.803.803,0,0,1-.08518.477.85339.85339,0,0,1-.33468.33423,1.00284,1.00284,0,0,1,.35873.42221C110.50612,11.2184,110.588,11.38637,110.75111,11.72237ZM108.55876,10.246c.29806-.03357.44711-.05.74527-.08237a1.42318,1.42318,0,0,0,.25583-.04819.46674.46674,0,0,0,.16891-.08575.27562.27562,0,0,0,.087-.13294.47885.47885,0,0,0,.01227-.18786.33672.33672,0,0,0-.15543-.27527.65138.65138,0,0,0-.395-.051c-.32248.03489-.48367.05268-.806.089Z" transform="translate(0 -0.00648)" fill="#a7a6a6"/><path d="M114.7166,8.39082c-.3797,1.21891-.56565,1.8292-.9299,3.0499-.20487.01727-.30726.026-.51206.04388-.56592-1.141-.85266-1.71078-1.43359-2.84738.24234-.0227.36355-.03384.606-.05572.41135.85153.615,1.278,1.01847,2.1319.25454-.91025.38391-1.3653.64667-2.27457C114.3539,8.41924,114.47478,8.40962,114.7166,8.39082Z" transform="translate(0 -0.00648)" fill="#a7a6a6"/><path d="M115.89473,11.27553c-.22147.016-.33222.02423-.55365.041-.08936-1.18243-.13407-1.774-.22345-2.95645.22507-.017.33764-.02533.56274-.04162C115.76613,9.50111,115.809,10.09282,115.89473,11.27553Z" transform="translate(0 -0.00648)" fill="#a7a6a6"/><path d="M118.98912,9.57768a1.34423,1.34423,0,0,1-1.4408,1.58564c-.39285.02484-.58926.03781-.982.06478-.0813-1.183-.122-1.77484-.20331-2.95785.39923-.02744.59888-.04062.9982-.06586C118.393,8.13915,118.93562,8.60106,118.98912,9.57768Zm-.5726.03226a1.652,1.652,0,0,0-.06793-.39911.68985.68985,0,0,0-.17362-.29111.7034.7034,0,0,0-.30969-.17028,1.44828,1.44828,0,0,0-.47589-.03608c-.17124.01084-.25687.01633-.42807.02759l.12741,1.9412c.16937-.01111.25409-.01658.42349-.02729a1.39052,1.39052,0,0,0,.46085-.09607.70289.70289,0,0,0,.28418-.2117.73128.73128,0,0,0,.13784-.31918A1.74469,1.74469,0,0,0,118.41652,9.60994Z" transform="translate(0 -0.00648)" fill="#a7a6a6"/><path d="M121.9409,10.93926c-.91232.0354-1.36841.056-2.28033.1029-.061-1.1842-.09143-1.77667-.15241-2.96088.90054-.04635,1.35095-.06674,2.25186-.102l.02.50934c-.67282.02634-1.00921.04105-1.68182.07358l.03238.66916c.62729-.03034.941-.04416,1.56842-.06909l.02011.50549c-.62573.02484-.93854.03864-1.56409.06888l.0372.76865c.69147-.03345,1.03726-.04853,1.729-.07535Z" transform="translate(0 -0.00648)" fill="#a7a6a6"/><path d="M123.76149,7.865a1.52569,1.52569,0,0,1,.58865.09372,1.33115,1.33115,0,0,1,.46863.29852,1.40344,1.40344,0,0,1,.31232.47574,1.73183,1.73183,0,0,1,.12112.62365,1.75024,1.75024,0,0,1-.09317.62314,1.42791,1.42791,0,0,1-.28659.48969,1.352,1.352,0,0,1-.44748.32513,1.57576,1.57576,0,0,1-1.16077.03372,1.34675,1.34675,0,0,1-.465-.29745,1.418,1.418,0,0,1-.31375-.47275,1.76347,1.76347,0,0,1-.12827-.61984,1.7378,1.7378,0,0,1,.08573-.63144,1.39831,1.39831,0,0,1,.286-.49265,1.33129,1.33129,0,0,1,.45211-.32348A1.53,1.53,0,0,1,123.76149,7.865Zm.0704,2.5654a.86507.86507,0,0,0,.35007-.08085.77784.77784,0,0,0,.27109-.21206.96162.96162,0,0,0,.172-.33045,1.37125,1.37125,0,0,0,.05408-.43792,1.35436,1.35436,0,0,0-.07587-.43683.93721.93721,0,0,0-.18991-.3197.7742.7742,0,0,0-.28207-.194.8617.8617,0,0,0-.34982-.05984.87751.87751,0,0,0-.35184.0806.79847.79847,0,0,0-.27463.2117.92664.92664,0,0,0-.17355.33093,1.34063,1.34063,0,0,0-.05124.43649,1.35773,1.35773,0,0,0,.07968.43418.97164.97164,0,0,0,.19131.32019.77946.77946,0,0,0,.28061.1965A.84816.84816,0,0,0,123.83189,10.43041Z" transform="translate(0 -0.00648)" fill="#a7a6a6"/><path d="M128.36693,10.85149a1.54917,1.54917,0,0,1-.59272-.10749,1.32325,1.32325,0,0,1-.46032-.307,1.41845,1.41845,0,0,1-.30078-.47949,1.92843,1.92843,0,0,1-.01334-1.26166,1.37892,1.37892,0,0,1,.29425-.48337,1.30365,1.30365,0,0,1,.459-.30917,1.56881,1.56881,0,0,1,.59238-.11023,1.6305,1.6305,0,0,1,.50806.07522,1.31919,1.31919,0,0,1,.41449.2161,1.11375,1.11375,0,0,1,.28842.33764,1.08616,1.08616,0,0,1,.13074.4419c-.23148-.00095-.3472-.00125-.57868-.00147a.62476.62476,0,0,0-.06845-.24322.54627.54627,0,0,0-.15436-.1807.70376.70376,0,0,0-.23239-.11306,1.0771,1.0771,0,0,0-.30026-.03836.91767.91767,0,0,0-.35971.06985.759.759,0,0,0-.2778.20181.92763.92763,0,0,0-.17877.32553,1.52361,1.52361,0,0,0,.00668.87693.96176.96176,0,0,0,.18222.32489.77283.77283,0,0,0,.27856.20343.88331.88331,0,0,0,.35733.06982,1.26892,1.26892,0,0,0,.47821-.08194.81747.81747,0,0,0,.33478-.25278l.00043-.31054c-.2977-.0004-.4465-.00031-.74417.00052l-.00141-.50977c.52082-.00143.78119-.00122,1.302.00107-.00281.63983-.00425.95981-.00711,1.59955-.17154-.00077-.2573-.001-.42887-.00138l-.07046-.213a1.0607,1.0607,0,0,1-.36924.19409A1.68889,1.68889,0,0,1,128.36693,10.85149Z" transform="translate(0 -0.00648)" fill="#a7a6a6"/><path d="M132.913,10.8477c-.24863-.00546-.37293-.008-.62158-.01263-.12427-.34137-.18671-.51206-.31223-.85327-.41977-.00708-.62964-.01-1.04947-.01462-.12866.33765-.19269.50656-.32022.84439-.236-.0022-.3541-.00311-.59018-.00455.466-1.18295.70276-1.774,1.18369-2.95395.21594.00269.32391.00418.53985.00748C132.219,9.05376,132.453,9.65151,132.913,10.8477Zm-1.10025-1.33941c-.13986-.37806-.21021-.567-.35157-.9448-.14382.37384-.21542.56082-.35781.93494C131.3871,9.50182,131.529,9.5038,131.81273,9.50829Z" transform="translate(0 -0.00648)" fill="#a7a6a6"/><path d="M136.089,10.94585c-.21628-.00858-.3244-.0127-.54071-.02066.02793-.75873.04187-1.13825.06973-1.89713-.28775.74933-.43029,1.12436-.71273,1.87467-.18723-.0062-.28083-.00919-.46805-.0149-.23242-.76672-.35-1.15-.58786-1.9161-.02051.75909-.03076,1.13873-.05133,1.8977-.21555-.0058-.32334-.00857-.53891-.01373.02856-1.18543.04281-1.77847.0712-2.9639.29428.00705.4414.0109.73568.01914.257.85269.38391,1.27948.63437,2.13317.306-.836.46051-1.25378.77286-2.08834.2934.01046.44009.016.73346.02764C136.15974,9.16826,136.13618,9.761,136.089,10.94585Z" transform="translate(0 -0.00648)" fill="#a7a6a6"/><path d="M139.09831,11.09059c-.91174-.05148-1.36774-.07434-2.27991-.11429.052-1.18463.078-1.77728.1297-2.96194.90079.03943,1.35111.06192,2.2515.11243l-.02854.50891c-.67239-.03772-1.00869-.055-1.68133-.08655l-.03134.66919c.62732.02942.94092.04547,1.568.08026l-.028.5051c-.62537-.0347-.93811-.05072-1.56366-.08l-.03608.76868c.6915.03241,1.0372.05029,1.72846.08932Z" transform="translate(0 -0.00648)" fill="#a7a6a6"/><path d="M142.952,9.40038a.63559.63559,0,0,0-.04617-.24353.58869.58869,0,0,0-.13028-.19211.63945.63945,0,0,0-.20124-.13074.81019.81019,0,0,0-.25482-.059.87078.87078,0,0,0-.35519.04184.71108.71108,0,0,0-.2796.17993.90276.90276,0,0,0-.19141.31268,1.69486,1.69486,0,0,0-.06015.88474.94423.94423,0,0,0,.14416.336.70547.70547,0,0,0,.24588.21908.88775.88775,0,0,0,.6023.07343.60385.60385,0,0,0,.2167-.10315.59046.59046,0,0,0,.15662-.182.81239.81239,0,0,0,.0874-.25873c.22824.01761.34238.02662.57059.04493a1.33788,1.33788,0,0,1-.16284.46017,1.1,1.1,0,0,1-.293.32562,1.1691,1.1691,0,0,1-.3967.18589,1.46082,1.46082,0,0,1-.47473.03894,1.50309,1.50309,0,0,1-.57245-.14975,1.23722,1.23722,0,0,1-.41925-.33722,1.35918,1.35918,0,0,1-.24856-.50015,1.90694,1.90694,0,0,1-.05723-.638,1.86355,1.86355,0,0,1,.14176-.62488,1.366,1.366,0,0,1,.31778-.4632,1.24573,1.24573,0,0,1,.46881-.277,1.5148,1.5148,0,0,1,.59351-.066,1.37886,1.37886,0,0,1,.45724.11148,1.24741,1.24741,0,0,1,.36911.24683,1.17413,1.17413,0,0,1,.25006.35959,1.147,1.147,0,0,1,.097.44961C143.29719,9.42717,143.18214,9.41814,142.952,9.40038Z" transform="translate(0 -0.00648)" fill="#a7a6a6"/><path d="M145.53959,8.54573a1.53105,1.53105,0,0,1,.57392.16293,1.3425,1.3425,0,0,1,.43039.35206,1.4182,1.4182,0,0,1,.25406.50949,1.74209,1.74209,0,0,1,.04641.63366,1.76,1.76,0,0,1-.16656.6077,1.44353,1.44353,0,0,1-.343.45224,1.36306,1.36306,0,0,1-.48337.26971,1.57881,1.57881,0,0,1-1.15762-.10427,1.33879,1.33879,0,0,1-.42679-.35056,1.40352,1.40352,0,0,1-.25564-.50668,1.75207,1.75207,0,0,1-.0539-.63071,1.727,1.727,0,0,1,.1601-.61682,1.39,1.39,0,0,1,.34265-.45523,1.327,1.327,0,0,1,.48761-.26755A1.52876,1.52876,0,0,1,145.53959,8.54573Zm-.2344,2.55576a.86951.86951,0,0,0,.35751-.03873.78264.78264,0,0,0,.29462-.17837.97043.97043,0,0,0,.21014-.30771,1.38491,1.38491,0,0,0,.10572-.42844,1.354,1.354,0,0,0-.02356-.44278.93812.93812,0,0,0-.15085-.34.77937.77937,0,0,0-.25736-.22616.86682.86682,0,0,0-.34057-.101.8772.8772,0,0,0-.35922.03827.7899.7899,0,0,0-.298.17761.91906.91906,0,0,0-.21173.308,1.3389,1.3389,0,0,0-.10269.42734,1.35642,1.35642,0,0,0,.02765.44058.97117.97117,0,0,0,.1521.34064.77548.77548,0,0,0,.25555.22842A.84719.84719,0,0,0,145.30519,11.10149Z" transform="translate(0 -0.00648)" fill="#a7a6a6"/><path d="M149.66667,11.99974c-.20905-.0242-.3136-.03613-.52271-.05972-.44088-.84763-.66439-1.271-1.1173-2.11606-.083.78867-.12458,1.18308-.20768,1.97159-.21393-.02252-.32092-.03363-.53491-.05551.12079-1.17966.18112-1.76987.3017-2.94956.21353.02185.32025.03293.53375.05539.45337.84656.677,1.27069,1.11838,2.12.089-.78958.13348-1.18448.22238-1.97391.21893.02466.32837.03717.54721.0625C149.87126,10.23244,149.80308,10.82179,149.66667,11.99974Z" transform="translate(0 -0.00648)" fill="#a7a6a6"/><path d="M152.85747,9.92113c-.374-.04938-.5611-.07358-.93534-.121-.12344.97424-.18518,1.46157-.30871,2.43569-.22214-.02816-.33326-.042-.55545-.06954.12051-.97449.18075-1.462.30117-2.43662-.37277-.04608-.55917-.06866-.93209-.11282l.0599-.5062c.9755.11551,1.46292.17655,2.4372.30515Z" transform="translate(0 -0.00648)" fill="#a7a6a6"/><path d="M155.54353,12.778c-.238-.03552-.35705-.05307-.59518-.08777-.06665-.33575-.10022-.50363-.16791-.83941a.619.619,0,0,0-.06043-.16459.56258.56258,0,0,0-.2406-.23764.52566.52566,0,0,0-.1708-.05377c-.239-.03375-.35855-.05041-.59766-.08337l-.1626,1.18027c-.22113-.03046-.33172-.04554-.55291-.07532.15826-1.1752.23736-1.76319.39553-2.93842.54023.07273.81025.11011,1.35.18686.08038.01145.15756.024.22952.03772a1.38439,1.38439,0,0,1,.20569.0553.98.98,0,0,1,.18369.08786.72114.72114,0,0,1,.15945.13483.7858.7858,0,0,1,.10843.1571.88124.88124,0,0,1,.06818.17493.90716.90716,0,0,1,.02917.185.89768.89768,0,0,1-.0083.18536.80612.80612,0,0,1-.20029.44128.854.854,0,0,1-.40722.24137,1.003,1.003,0,0,1,.244.49768C155.43007,12.2292,155.46809,12.41216,155.54353,12.778Zm-1.763-1.97159c.29733.041.446.06177.74323.104a1.437,1.437,0,0,0,.2601.01638.46439.46439,0,0,0,.185-.04144.27227.27227,0,0,0,.11718-.10739.48748.48748,0,0,0,.05823-.17905.33647.33647,0,0,0-.08295-.30508.65124.65124,0,0,0-.37069-.14688c-.32144-.04575-.48218-.06827-.80381-.11258Z" transform="translate(0 -0.00648)" fill="#a7a6a6"/><path d="M157.8474,10.08638a1.53639,1.53639,0,0,1,.5628.2016,1.32661,1.32661,0,0,1,.40659.38049,1.41808,1.41808,0,0,1,.21966.52564,1.7173,1.7173,0,0,1,.00372.6354,1.75676,1.75676,0,0,1-.20748.595,1.42775,1.42775,0,0,1-.37342.42788,1.34687,1.34687,0,0,1-.50143.23624,1.58477,1.58477,0,0,1-1.1503-.18271,1.34115,1.34115,0,0,1-.40308-.37872,1.41874,1.41874,0,0,1-.22143-.52289,1.77159,1.77159,0,0,1-.01139-.633,1.72335,1.72335,0,0,1,.2016-.60458,1.40476,1.40476,0,0,1,.37323-.43094,1.32994,1.32994,0,0,1,.50556-.23385A1.5385,1.5385,0,0,1,157.8474,10.08638Zm-.40659,2.53412a.87365.87365,0,0,0,.36005-.01434.77567.77567,0,0,0,.30654-.158.95238.95238,0,0,0,.23084-.29276,1.38156,1.38156,0,0,0,.13455-.42029,1.35032,1.35032,0,0,0,.00629-.44339.93761.93761,0,0,0-.1279-.34948.78175.78175,0,0,0-.24207-.24317.86668.86668,0,0,0-.33368-.12384.88428.88428,0,0,0-.36172.01377.79149.79149,0,0,0-.30994.157.93368.93368,0,0,0-.23239.293,1.33675,1.33675,0,0,0-.1315.4194,1.35441,1.35441,0,0,0-.002.44147.97089.97089,0,0,0,.12912.35022.78576.78576,0,0,0,.24008.24527A.85131.85131,0,0,0,157.44081,12.6205Z" transform="translate(0 -0.00648)" fill="#a7a6a6"/><path d="M161.27241,13.72728c-.761-.1387-1.14175-.206-1.90381-.33652.20014-1.16876.30018-1.75357.50028-2.92239.22394.03836.33585.05768.55966.09674-.1687.96732-.25305,1.45126-.42175,2.41867.54309.09473.81448.14313,1.357.242Z" transform="translate(0 -0.00648)" fill="#a7a6a6"/><path d="M163.47194,11.12245c.45923.08811.68875.13291,1.14752.224a2.68892,2.68892,0,0,1,.29724.07617,1.55451,1.55451,0,0,1,.26636.11231,1.09763,1.09763,0,0,1,.21881.1539.70361.70361,0,0,1,.15445.2019.758.758,0,0,1,.07516.2576,1.01241,1.01241,0,0,1-.01947.319.864.864,0,0,1-.42868.63706,1.36229,1.36229,0,0,1-.89856.06137c-.24347-.04837-.36523-.07233-.60882-.11988l-.21347,1.09461c-.21961-.04285-.32941-.06409-.54911-.10623C163.13679,12.86974,163.24846,12.287,163.47194,11.12245Zm.30124,1.425c.24817.0484.37225.07285.6203.12213a1.07279,1.07279,0,0,0,.26571.02411.4781.4781,0,0,0,.19141-.04626.32138.32138,0,0,0,.12549-.11219.50519.50519,0,0,0,.068-.17556.38814.38814,0,0,0-.0065-.21054.33643.33643,0,0,0-.10251-.14518.54949.54949,0,0,0-.17312-.09445,1.6402,1.6402,0,0,0-.2182-.05841c-.24451-.04858-.36673-.07263-.61136-.12036C163.86873,12.05742,163.83687,12.22072,163.77318,12.54744Z" transform="translate(0 -0.00648)" fill="#a7a6a6"/><path d="M168.23808,15.13933c-.24417-.05451-.36624-.08154-.61056-.13522-.05561-.35929-.08368-.539-.14054-.89838-.41256-.08984-.61892-.13416-1.03189-.22159-.19308.30573-.28934.45871-.48129.7648-.23227-.04877-.34845-.07294-.58084-.12091.69134-1.068,1.04056-1.601,1.7464-2.663.21237.04525.31854.06805.53082.114C167.90538,13.243,168.019,13.8755,168.23808,15.13933Zm-.82236-1.53079c-.06375-.39838-.096-.59757-.16128-.99594-.21518.33819-.32242.50741-.53623.84616C166.99733,13.51811,167.13679,13.54808,167.41572,13.60854Z" transform="translate(0 -0.00648)" fill="#a7a6a6"/><path d="M171.3828,14.33025a1.34888,1.34888,0,0,1-1.84363,1.1047c-.38584-.08917-.57886-.13321-.965-.22021.26062-1.15674.39087-1.7356.65167-2.8924.39255.08847.58872.13324.9809.22385A1.33143,1.33143,0,0,1,171.3828,14.33025Zm-.56147-.13385a1.64247,1.64247,0,0,0,.04886-.40192.68328.68328,0,0,0-.084-.32889.71518.71518,0,0,0-.24982-.25223,1.46,1.46,0,0,0-.44842-.17141c-.16819-.03885-.25229-.0582-.42051-.09665-.17343.75857-.2601,1.138-.43347,1.89651.16645.03806.24964.05719.416.09561a1.40632,1.40632,0,0,0,.4718.0405.71372.71372,0,0,0,.33469-.12106.73.73,0,0,0,.22436-.26615A1.71052,1.71052,0,0,0,170.82133,14.1964Z" transform="translate(0 -0.00648)" fill="#a7a6a6"/></svg>