<svg id="Layer_1" data-name="Layer 1" xmlns="http://www.w3.org/2000/svg" viewBox="0 0 105 105"><title>icon_filled</title><path d="M0,62.82a23,23,0,0,0,1.45-2.23c1.06-2.05,2.35-3.85,4.65-4.65h0a21.72,21.72,0,0,1-.82,3.27c-1,2.42-.64,3.3,1.9,3.94a13.39,13.39,0,0,1,2,.81,28.05,28.05,0,0,0-2.85.81c-.8.31-2,.09-2.09,1.5C3.53,67.64,2.83,69,2.15,70.37c-.46.93,0,1.27.88,1.23l.8,2.67.72.79.77,1.52C2.66,75.9,2,73.45.79,71.49a12.8,12.8,0,0,0-.79-1Z" fill="#e7e4e1"/><path d="M82.39,39.22c2.65,0,5.31,0,8,0a3.78,3.78,0,0,1,1,.31,4.28,4.28,0,0,1-1.07.41c-.82.06-1.65,0-2.46,0a9.86,9.86,0,0,0-1.8.5c.43.87.49,2.09,1.82,2.14A21.36,21.36,0,0,0,92,42.49a44.12,44.12,0,0,0,5.48-1.42A19.59,19.59,0,0,0,100,39.92v.77l-.76.7-.92.38a25.45,25.45,0,0,0-4.2,1c-3.88,1.63-7.76,2.61-11.74.54a3.94,3.94,0,0,1-1.66-2.07c-.31-.87.46-1.29,1.32-1.42C82.18,39.8,82.27,39.43,82.39,39.22Z" fill="#e7e4e1"/><path d="M56.87,7.86l.38,1.9-.68.4-2.76-.39.77-1.91Z" fill="#f1ece9"/><path d="M99.24,41.39l.76-.7v1.52h-.19l-.18,0-.42-.4Z" fill="#b2aea9"/><path d="M17.09,91.15a10.63,10.63,0,0,1-5.64-6.42c-.63-1.76-1-3.61-1.55-5.42l.33-2.75.47-.24.78.59a3.8,3.8,0,0,0,1.73,3.86,5.93,5.93,0,0,1,1.71,1.44c1.12,1.87,2.94,2.73,4.77,3.61A1.59,1.59,0,0,0,22.15,85L23,84.6l.33-.38.64-.85,2.43-3.79.11-.53.32-1.29,1.45-.07.84,1.91-.78,2.33-.05,1.12c-.34.43-.7.85-1,1.29-1.34,1.78-1.95,4.21-4.18,5.21a41.6,41.6,0,0,1-4.74,1.53Z" fill="#f9ebaf"/><path d="M74.43,98c-2,1.11-3.88,2.35-5.92,3.3C63.3,103.78,57.69,104.53,52,105c-.16,0-.34-.15-.51-.24L58.79,101q1.71-1.37,3.44-2.71a16.48,16.48,0,0,0,3.9.07,12.47,12.47,0,0,0,5-1.87c1-.79,2.27-1.07,3.21-2.09s2.57-1.25,3.91-1.84L76.34,96h0L76,96.8h0Z" fill="#f2dc9c"/><path d="M10.23,76.56,9.9,79.31,5.32,76.58l-.77-1.52-.72-.79L3,71.6h.05l.73-1.54c.5-2.24,2.26-3.37,5.35-3.42l3.45.36H14.5l.77.38,2.66.4-.38,1.14H15.26l-.36,0,0,.11c-1.66-.53-2.62.71-3.75,1.5-1.69-.37-2,1.33-3,2s-.8,2.44,0,3.26A12.19,12.19,0,0,1,9.31,77C10.24,78.22,9.78,76.33,10.23,76.56Z" fill="#b2aea9"/><path d="M98.07,70.45c.5,4.77-2.11,8-5.6,10.55-2.32,1.67-5.11,2.7-7.69,4l-3.06.73-1.17.06-1.15,0c.15-.46.17-1.16.48-1.32a37.43,37.43,0,0,1,5.69-2.7c2.13-.7,3.2-2.23,4.12-4l.77-.77C92,76,93.45,75,94.9,74c.17-.12.1-.59.14-.9v-.38L95.8,72l.77-1.14Z" fill="#cac4c2"/><path d="M30.16,100.2C28,99,25.87,97.74,23.76,96.44A7.49,7.49,0,0,1,22.41,95l1.63-.1c1.21.62,2.47,1.84,3.63,1.75A38.24,38.24,0,0,0,34.54,95a2.61,2.61,0,0,0,.8-.5,4.8,4.8,0,0,1,7,2,12.65,12.65,0,0,1-11.42,3.44C30.71,99.81,30.42,100.07,30.16,100.2Z" fill="#e1cc90"/><path d="M24,94.89l-1.63.1-2.26-1.92.09-.55,2-.15c.21.2.39.51.63.57a9.35,9.35,0,0,0,8.93-2.64,28.54,28.54,0,0,0,3.47-4.8c.5-.73.93-1.52,1.4-2.28.42.89.85,1.77,1.25,2.67s.47,2,1.82,2.13l.78,1.13L42,91.46A22.35,22.35,0,0,1,39.23,90c-1-.76-1.93-1.17-2.92.05a12,12,0,0,1-2.46,2.7c-1.16.75-3,.75-3.83,1.69-1.29,1.42-2.56,1-3.94.79C25.4,95.14,24.72,95,24,94.89Z" fill="#c8b276"/><path d="M50.42,104.73c-2.55-.22-5.1-.4-7.64-.68a39.51,39.51,0,0,1-11.88-3.43l6.5,0c.64.67,1,.48,1.14-.38l1.15-.38.76-.37h0c2,.17,4.23-.75,5.55,1.6a.47.47,0,0,0,.34.17c2.55.32,4.75,2.23,7.5,1.67-.61.27-1.25.5-1.84.81S50.94,104.39,50.42,104.73Z" fill="#f2dc9c"/><path d="M95,72.75v.38l-4.58,3.81-.77.77c-1.74.91-3.5,1.79-5.21,2.76-1.43.82-2.74,1.9-4.24,2.58a11,11,0,0,1-3.14.39c.13-.87.25-1.74.39-2.61.19-1.27,1.07-2,2.21-1.76,3.13.76,5.46-1.24,7.91-2.34,2.3-1,4.13-3.14,6.15-4.79,1.87-1.51,1.68-3.63,1.66-5.7l1.89,1.18.48.85,0,.11-.07.09-1.2,2.37L95.8,72Z" fill="#b2aea9"/><path d="M92.75,51.37l-.34.41-.83,1.07c-.61.77-1.27,1.51-1.8,2.33a4.94,4.94,0,0,0-.37,1.42,1.07,1.07,0,0,1-.14.16l-1.43.43c0-.56,0-1.13-.1-1.69-.11-.8.1-2-1-2-1.32,0-2.9-.66-3.92.86,0,.08-.24,0-.36.08a2.11,2.11,0,0,1-.36-.09L81.75,54l-2.34-3.12,0-1.09a9.21,9.21,0,0,1,2,1.57,1.85,1.85,0,0,0,2.91.53,4,4,0,0,1,1.18-.55,15.66,15.66,0,0,0,6.09-3A29,29,0,0,1,95.42,46h0c-.82,1.14-1.6,2.3-2.46,3.41C92.47,50.08,92,50.64,92.75,51.37Z" fill="#6c6c68"/><path d="M20.24,92.52l-.09.55-1.83-1.26,0-.73A41.6,41.6,0,0,0,23,89.55c2.23-1,2.84-3.43,4.18-5.21.33-.44.69-.86,1-1.29,1.31.67,2.58,1.38,3.46-.65.14-.33,1-.35,1.55-.51l-.8,2.7-.76.78h0a6.54,6.54,0,0,0-1.34,1.16c-2.2,3.29-5,5.4-9.19,5.34C20.87,91.86,20.56,92.29,20.24,92.52Z" fill="#e1cc90"/><path d="M89.41,56.6l4.14,3.09a20.65,20.65,0,0,0,.81,2.71c.81,1.8.67,2.06-1.17,2.37a2.13,2.13,0,0,0-1.47,1.08c-.62,2.49-2.64,3.77-4.3,5.39s-3.25,1.28-5,.35a4.12,4.12,0,0,1,.9-.74c2.68-1.08,5.09-2.42,6.37-5.24a3.59,3.59,0,0,1,1.68-1.32c.91-.47,1.23-1,.7-1.94-1-1.72-1.81-3.49-2.71-5.24,0-.11-.07-.23-.11-.35A1.07,1.07,0,0,0,89.41,56.6Z" fill="#6c6c68"/><path d="M82.44,71.59c1.73.93,3.37,1.2,5-.35s3.68-2.9,4.3-5.39a2.13,2.13,0,0,1,1.47-1.08c1.84-.31,2-.57,1.17-2.37a20.65,20.65,0,0,1-.81-2.71,13.59,13.59,0,0,1,4.13,7.71l-.37,0-1.89-1.18-1.2-.63L93.88,67a42.93,42.93,0,0,0-4.25,4c-1.49,1.87-3,2.93-5.42,1.82-.85-.4-1.7-.82-2.54-1.23Z" fill="#85827d"/><path d="M39.69,99.83l-1.15.38-1.14.38-6.5,0-.74-.42c.26-.13.55-.39.78-.35a12.65,12.65,0,0,0,11.42-3.44l2.2-1.55.11.56a12.8,12.8,0,0,1-1.35,1.72c-.9.83-1.91,1.55-2.87,2.32h0Z" fill="#c8b276"/><path d="M83.23,88.8A15.53,15.53,0,0,1,76,97.18V96.8h0l.38-.77h0a6.17,6.17,0,0,0,1.52-1.22c1-1.46,1.81-3,2.71-4.51l.36-.75h0Z" fill="#f9ebaf"/><path d="M83.23,88.8l-2.3.75.79-3.81L84.78,85Z" fill="#f2dc9c"/><path d="M92.75,51.37c-.74-.73-.28-1.29.21-1.93.86-1.11,1.64-2.27,2.46-3.41l1.48,0Z" fill="#85827d"/><path d="M96.9,46l-1.48,0h0l0-1.12.07-.7,2.94-1.87.15,1.22Z" fill="#6c6c68"/><path d="M50.42,104.73c.52-.34,1-.73,1.58-1s1.23-.54,1.84-.81l1.12-.37,1.12-.41,2.67-1.53,0,.45-7.27,3.72Z" fill="#d5bf82"/><path d="M96.57,70.84l1.2-2.37,0,0,.33.4v1.53Z" fill="#bcb7b3"/><path d="M98.6,43.56l-.15-1.22.59-.56.17,0,.42.4Z" fill="#85827d"/><path d="M76,96.8v.38L74.43,98Z" fill="#d5bf82"/><path d="M18.3,91.08l0,.73-1.23-.66Z" fill="#d9d8d3"/><path d="M91.58,52.85l.83-1.07Z" fill="#85827d"/><path d="M97.31,67.42l.37,0,.11.87Z" fill="#96938e"/><path d="M98.06,68.92l-.33-.4Z" fill="#b2aea9"/><path d="M29,30.69a6.24,6.24,0,0,1,4.6-1.42,1.82,1.82,0,0,1,0,.33l-1.18.24,1.23.14.71,0c.27.45.44,1.13.83,1.29a28,28,0,0,0,3.38,1c.38.83,1.12,1.68,1.09,2.5a64.6,64.6,0,0,1-.84,8.57,8.47,8.47,0,0,1-1.91,4.13,18.89,18.89,0,0,1-5.29,4,7.12,7.12,0,0,1-4.71.34,20.82,20.82,0,0,0-7-1.29,10.11,10.11,0,0,1-3.69-.32C15.3,50,14.61,49,13.81,48.33l0-.63.44-.83h0l.3-.41v0l.78-1.12a1.27,1.27,0,0,0,.32-.13A7,7,0,0,1,16,46c1.06,2.92,2.63,3.58,5.64,2.54a40.89,40.89,0,0,1,4.31-1c0,2,.8,2.93,2.7,3a10.72,10.72,0,0,0,1.7,0c1.94-.22,4.17-2.78,4.31-4.94.1-1.67-.63-2.45-3-3.18l1.17-2.12c1-1.83,2.22-3.63.76-5.79l-.1-.71L33,33.07l-1.18-.81-2.33-.78h0Z" fill="#0473de"/><path d="M35.89,27.16l3.4-1.38a32.26,32.26,0,0,0,5.6,1.11c5.14.16,10.29.08,15.43,0a5.68,5.68,0,0,0,1.88-.7l1.87.6.07.13c.53.92.86,1.72-.79,1.58-.15,0-.5.49-.47.53.75.94-.15,1-.66,1.28a20.81,20.81,0,0,1-9.22,2,.92.92,0,0,1-.33,0c-.22-.25-.42-.71-.67-.74-2.58-.3-5.17-.54-7.76-.8l-9.16-2.67Z" fill="#0553d4"/><path d="M31.77,32.26l1.18.81.24.72c-.07.64-1.41-1.68-1,.47a2.76,2.76,0,0,1-1.1,2.33c-4,2.11-8.21,3.19-12.72,1.47a26.79,26.79,0,0,0-3.46-.82l-1.23-.92-1.11-3.26,1.94-.77h0a2.24,2.24,0,0,0,1.74,2.38,6.4,6.4,0,0,1,1.42.47c2.14,1.46,4.56,1.46,7,1.31a13,13,0,0,0,3.82-.91c.59-.23,1-1,1.42-1.54C30.37,33.25,30.46,32.11,31.77,32.26Z" fill="#b2aea9"/><path d="M62.2,26.21a5.68,5.68,0,0,1-1.88.7c-5.14.06-10.29.14-15.43,0a32.26,32.26,0,0,1-5.6-1.11l3.87-1.19L45.94,24l2.92-.11,4.66.1,1.48.31,3.47.45a.66.66,0,0,0,.31.06Z" fill="#0473de"/><path d="M23.66,29.62l5,1.14.8.73h0c-.54.62-1.05,1.26-1.64,1.83s-1.06,1.17-1.6,1.18c-3.65.07-7.44.69-10.61-2-.25-.21-.72-.15-1.09-.22h0a3,3,0,0,0-2.64-1.9l0-2.68.37.39c.11,1.27,1,1.14,1.92,1.12h.76c1.48,2.07,3.83,2.15,6,2.47A8.15,8.15,0,0,0,24,31.18c1.22-.33.53-.62-.06-.92C23.81,30.17,23.77,29.84,23.66,29.62Z" fill="#cac4c2"/><path d="M53.81,9.77l2.76.39.69,3.43-.46,1.14-.71.75c-.69.49-1.4.95-2.06,1.48-.89.7-1.68,1.53-2.61,2.17-.38.26-1.24.4-1.48.17a2.26,2.26,0,0,1-.44-1.6c0-.65.35-1.29-.64-1.44Z" fill="#fdfdfc"/><path d="M13.67,36.32l1.23.92c0,.31,0,.76.17.89a10.24,10.24,0,0,0,6.64,2.35c2.57-.22,5.27-.06,7.79-1.33,2.13-1.06,4-2.73,4.11-4.61,1.46,2.16.24,4-.76,5.79l-.07-.47-.37-1.25c-.11.37-.23.75-.34,1.13a.54.54,0,0,0,0,.18c-.57,0-1.26-.12-1.68.15-2.2,1.43-4.7,1.72-7.19,2-2,.19-4,.72-5.89-.48a12.24,12.24,0,0,0-2.55-.92L13.67,38Z" fill="#96938e"/><path d="M13.67,38l1.09,2.63.43,2.72-5.29.41L8.47,42.58l-.82-1.53-.8-1.23c-.61-1,0-1.35.89-1.42C9.71,38.25,11.69,38.13,13.67,38Z" fill="#f1ece9"/><path d="M56.09,15.48l.71-.75.43,1.14c-.22.11-.56.18-.62.35C55.27,20,53,22.89,48.86,23.86L45.94,24l-1.28-.09L47,20.08c.34.31.9.58,1,1,.42,1.68,1.21,1.38,2.24.58.53-.41,1.18-.66,1.74-1A9.88,9.88,0,0,0,56.09,15.48Z" fill="#e7e4e1"/><path d="M56.09,15.48a9.88,9.88,0,0,1-4.17,5.1c-.56.38-1.21.63-1.74,1-1,.8-1.82,1.1-2.24-.58-.09-.38-.65-.65-1-1l1.91-3.82c1,.15.67.79.64,1.44a2.26,2.26,0,0,0,.44,1.6c.24.23,1.1.09,1.48-.17.93-.64,1.72-1.47,2.61-2.17C54.69,16.43,55.4,16,56.09,15.48Z" fill="#f1ece9"/><path d="M23.66,29.62c.11.22.15.55.32.64.59.3,1.28.59.06.92a8.15,8.15,0,0,1-3.15.52c-2.17-.32-4.52-.4-6-2.47.64-.06,1.27-.15,1.91-.18l4.58-.21Z" fill="#d9d8d3"/><path d="M35.08,28.11l9.16,2.67v.45l-1.48,1-1.08-.32L34.33,30l-.71,0,0-.38a1.82,1.82,0,0,0,0-.33l1-1.14Z" fill="#052f95"/><path d="M21.38,28.84l-4.58.21c-.64,0-1.27.12-1.91.18h-.76l-.41-1.15c.3-.37.68-1.09.89-1C16.88,27.57,19.13,28.22,21.38,28.84Z" fill="#e7e4e1"/><path d="M10.68,52.13c-1-1.25.07-1.52.89-1.92l.54.44-.77,2.29c-.46,1.11.52.55.86.74-.17.23-.29.6-.52.68-1.23.45-2.48.86-3.74,1.23A16,16,0,0,1,6.11,56h0A16.5,16.5,0,0,1,9.18,54.1c1.07-.37,1.68-.78,1.51-2l.59-.47-.13-.13Z" fill="#e7e4e1"/><path d="M12.11,50.65l-.54-.44-1.9-3.75,3,1,.72.07.41.14,0,.63Z" fill="#96938e"/><path d="M12.64,47.49l-3-1L7.55,41.91l.08-.08.84.75L9.9,43.76c-.09,1.12.72,1.35,1.54,1.57l.77.71.4.76Z" fill="#b2aea9"/><path d="M11.86,30.39a3,3,0,0,1,2.64,1.9l-1.94.77Z" fill="#bcb7b3"/><path d="M13.72,28.07l.41,1.15c-.87,0-1.81.15-1.92-1.12l.78,0Z" fill="#d9d8d3"/><path d="M44.66,23.88l1.28.09-2.78.62Z" fill="#d9d8d3"/><path d="M13,28.08l-.78,0-.37-.39.65-.7Z" fill="#e7e4e1"/><path d="M35.08,28.11l-.49,0,1.3-1Z" fill="#0534b8"/><path d="M6.85,39.82l.8,1.23,0,.41H7.2Z" fill="#cac4c2"/><path d="M29.42,31.49l-.8-.73a.84.84,0,0,1,.35-.07Z" fill="#bcb7b3"/><path d="M7.2,41.46h.42a1.53,1.53,0,0,1,0,.37l-.08.08Z" fill="#b2aea9"/><path d="M99,41.78l-.59.56-2.94,1.87-.88.26c-.66.2-1.65-.42-1.89.79-1.42.2-2.84.43-4.26.6-3.4.4-6.83,1-9.85-1.37L77.85,40,79,38.79l3.43.43c-.12.21-.21.58-.35.6-.86.13-1.63.55-1.32,1.42a3.94,3.94,0,0,0,1.66,2.07c4,2.07,7.86,1.09,11.74-.54a25.45,25.45,0,0,1,4.2-1Z" fill="#cac4c2"/><path d="M53,32.32a20.81,20.81,0,0,0,9.22-2c.51-.25,1.41-.34.66-1.28,0,0,.32-.55.47-.53,1.65.14,1.32-.66.79-1.58l6.47,3.81c-.42.31-.42,1.11-1.36.86a2.47,2.47,0,0,0-1.9.47,4.58,4.58,0,0,1-3.28,1c-1.77-.06-3.54,0-5.32,0l-.74.09L55,33Z" fill="#0545ce"/><path d="M79,38.79,77.85,40h-.29c-.15.31-.46.64-.44.94.16,2.3-.55,4.68.62,6.9.14.26-.08.7-.13,1-.18-.27-.35-.54-.55-.8-1.06-1.43-.34-3.75-2.27-4.72-2.22-1.11-1.62-3.52-2.51-5.25a1.27,1.27,0,0,1,.39-1c1.34,0,2.25-1.42,3.66-1h0l.74.77,1,.77Z" fill="#0545ce"/><path d="M57.26,13.59l-.69-3.43.68-.4L59.11,14c-.09.22-.3.45-.27.65a26.26,26.26,0,0,1-.37,10.07L55,24.27c.5,0,1,0,1.52,0,.11,0,.22-.15.33-.23-1.5-.72.15-1.31.28-1.55,1.51-2.63.72-5.45.84-8.19C58,14.06,57.51,13.82,57.26,13.59Z" fill="#a4a09e"/><path d="M58.75,33.07c1.78,0,3.55-.06,5.32,0a4.58,4.58,0,0,0,3.28-1,2.47,2.47,0,0,1,1.9-.47c.94.25.94-.55,1.36-.86l1.56,1.16.39,1-2.72.89-.76,0-5,.06-3-.1Z" fill="#0534b8"/><path d="M72.56,32.92l-.39-1,4.6-.71c1.2-.19,1.61.37,1.41,1.51-1.62.26-1,2-1.88,2.81a.29.29,0,0,0-.32,0l-1.41-1Z" fill="#a4a09e"/><path d="M58.47,24.72a26.26,26.26,0,0,0,.37-10.07c0-.2.18-.43.27-.65L61,18.94c-1.36,1.19-.42,2.59-.33,3.89.16,2.16.17,2.2-1.93,2A.66.66,0,0,1,58.47,24.72Z" fill="#85827d"/><path d="M58.78,24.78c2.1.25,2.09.21,1.93-2-.09-1.3-1-2.7.33-3.89l3,7.87-1.87-.6Z" fill="#6c6c68"/><path d="M76.3,35.52c.89-.77.26-2.55,1.88-2.81l-.12,4.94-1-.77-.74-.77h0l-.15-.4A.76.76,0,0,0,76.3,35.52Z" fill="#6c6c68"/><path d="M6.11,56a16,16,0,0,0,1.83-.36c1.26-.37,2.51-.78,3.74-1.23.23-.08.35-.45.52-.68l.82-.37h4.15l1.15.37-.57.85h.82l1.28-.09a13.69,13.69,0,0,0,1.48.75,13.5,13.5,0,0,1,3.13,1.12c2.12,1.48,4.09,3.18,6.1,4.8a1.92,1.92,0,0,1,.52.67c-.77.82.08.85.47,1.28a9.4,9.4,0,0,1,1.1,2.3,10.51,10.51,0,0,1-2.1.5c-2.42.07-4.85,0-7.27,0h-.76c-.41-.25-.8-.68-1.24-.73a26.73,26.73,0,0,0-3,0h-1.9V64c1.47,0,2.93-.07,4.39,0,.79,0,1.55.48,2.34.53,1.14.08,2.29-.07,3.43,0s2.14.21,3.2.21c.36,0,.72-.33,1.07-.51l-.76-.95L29,61.9a4.52,4.52,0,0,0-.79-1C26.8,60,25.29,59.19,24,58.16A7.25,7.25,0,0,0,20,56.48,20.82,20.82,0,0,0,9.7,58.19c-1.1.44-1.41,1.12-1,2.41.61,1.75,1.56,2.49,3.38,2.24a6.83,6.83,0,0,1,2.47,0c.54.13,1,.71,1.45,1.09l-3.83,0H9.16a13.39,13.39,0,0,0-2-.81c-2.54-.64-2.93-1.52-1.9-3.94A21.72,21.72,0,0,0,6.11,56Z" fill="#f1ece9"/><path d="M17.93,67.8l-2.66-.4L14.5,67H12.61a2,2,0,0,0-3.45-.36c-3.09,0-4.85,1.18-5.35,3.42l-.73,1.54H3c-.92,0-1.34-.3-.88-1.23.68-1.37,1.38-2.73,2.07-4.09,1.31-.38,2.6-.8,3.91-1.15,3.43-.92,6.56.79,9.84,1.21.55.07,1,.93,1.51,1.43Z" fill="#cac4c2"/><path d="M19.48,67.77c-.5-.5-1-1.36-1.51-1.43-3.28-.42-6.41-2.13-9.84-1.21-1.31.35-2.6.77-3.91,1.15,0-1.41,1.29-1.19,2.09-1.5A28.05,28.05,0,0,1,9.16,64h3.05l4.2,1.13h1.9c.71.77,2.56,1.1,4.21.76h.76c.07,1,.73,1.12,1.55,1.16a12.69,12.69,0,0,1,1.89.39,5.37,5.37,0,0,1-1.8.7c-1.44,0-2.88-.21-4.32-.33Z" fill="#d9d8d3"/><path d="M3.83,74.27l.72.79Z" fill="#cac4c2"/><path d="M99,41.78h-.72l.92-.38,0,.44Z" fill="#6c6c68"/><path d="M26.36,79.58l-2.43,3.79-6.72-2.65L15.75,79.4l-.35-.21L15,78.67a6.74,6.74,0,0,0,.13-1.26,14.93,14.93,0,0,1,1.63-7.65l.73.2.41.13,9.23,3.77-.37,3.9-.32,1.29Z" fill="#0d0c0b"/><path d="M29.08,79.6l-.84-1.91c0-2,0-2,2-2,.22,0,.46-.41.69-.63l1.16.63.89.47.11,0h.12l.4,0,.86.4-.2,3a.81.81,0,0,0-.31,0,5.42,5.42,0,0,1-4.51,0Z" fill="#c8b276"/><path d="M15,78.67l.37.52-.18.43c-.08.27-.33.66-.24.81a16,16,0,0,0,2.36,3.18c1.32,1.15,2.84,2.21,4.81,1.38a1.59,1.59,0,0,1-2.46.83c-1.83-.88-3.65-1.74-4.77-3.61a5.93,5.93,0,0,0-1.71-1.44,3.8,3.8,0,0,1-1.73-3.86l2.22.84Z" fill="#e1cc90"/><path d="M10.23,76.56c-.45-.23,0,1.66-.92.4A12.19,12.19,0,0,0,8.09,75.8c-.79-.82-.88-2.62,0-3.26s1.32-2.4,3-2l-.07,1-.34,4.76Z" fill="#96938e"/><path d="M10.7,76.32,11,71.56c1.13.86,3,1,2.78,3.1l-.12,3.09-2.22-.84Z" fill="#9f8e5f"/><path d="M29.41,79.61a5.42,5.42,0,0,0,4.51,0l-.66,2.27c-.53.16-1.41.18-1.55.51-.88,2-2.15,1.32-3.46.65l.05-1.12Z" fill="#d5bf82"/><path d="M22.15,85c-2,.83-3.49-.23-4.81-1.38A16,16,0,0,1,15,80.43c-.09-.15.16-.54.24-.81l.53-.22,1.46,1.32a1.87,1.87,0,0,0,1.1,2.14,7.6,7.6,0,0,0,4.6,1.34l.05.4Z" fill="#9f8e5f"/><path d="M22.91,84.2a7.6,7.6,0,0,1-4.6-1.34,1.87,1.87,0,0,1-1.1-2.14l6.72,2.65c-.21.29-.43.57-.64.85Z" fill="#534f47"/><path d="M30.89,75.08c-.23.22-.47.64-.69.63-1.94,0-1.94-.07-2,2l-1.45.07.37-3.9Z" fill="#9f8e5f"/><path d="M29.41,79.61,28.3,81.93l.78-2.33Z" fill="#e1cc90"/><path d="M26.36,79.58l.11-.53Z" fill="#b2aea9"/><path d="M22.91,84.2l.38,0L23,84.6C22.94,84.47,22.93,84.33,22.91,84.2Z" fill="#e1cc90"/><path d="M78.26,92.6c-1.34.59-3,.87-3.91,1.84s-2.2,1.3-3.21,2.09a12.47,12.47,0,0,1-5,1.87,16.48,16.48,0,0,1-3.9-.07l4.2-6.1.75-1.16a6.6,6.6,0,0,0,1.89.49,12.49,12.49,0,0,0,2.52-.5c1.56-.35,3.13-.68,4.67-1.09,1.31-.35,2.59-.79,3.89-1.19v.76Z" fill="#e1cc90"/><path d="M66.43,92.23l-4.2,6.1q-1.73,1.35-3.44,2.71l0-.45c.64-.75,1.33-1.46,1.9-2.26,1.07-1.51,2.08-3.06,3.11-4.59l1.87-2.67.78.38Z" fill="#c8b276"/><path d="M78.26,92.6l1.88-3.06h.41l0,.76c-.9,1.51-1.74,3-2.71,4.51A6.17,6.17,0,0,1,76.34,96Z" fill="#d5bf82"/><path d="M76.34,96,76,96.8Z" fill="#d5bf82"/><path d="M30.89,75.08l-3.73-1.22-9.23-3.77L17.52,70l-.73-.2L16,69.3c0-.12,0-.24,0-.37h1.52l4.24.75h1.08c-.15.4-1.4.91.14,1.15.78.12,1.54.43,2.31.61,1.36.32,2.73.61,4.1.91h1.09c0,1.6,1.35,1.3,2.3,1.53l3,1.17,1.18.75,1.35,1.4c.31.32.61.65.91,1l-4.85-1.6-.86-.4-.4,0h-.12l-.11,0-.89-.47Z" fill="#d2c8b5"/><path d="M13.82,74.66c.25-2.09-1.65-2.24-2.78-3.1l.07-1c1.13-.79,2.09-2,3.75-1.5l.43.37c-.27,1.5-.51,3-.83,4.5C14.4,74.18,14,74.4,13.82,74.66Z" fill="#6c6c68"/><path d="M21.79,69.69l-4.24-.75.38-1.14,1.55,0,1.12,0Z" fill="#bcb7b3"/><path d="M9.16,66.65a2,2,0,0,1,3.45.36Z" fill="#bcb7b3"/><path d="M3.08,71.61l.73-1.54Z" fill="#bcb7b3"/><path d="M14.5,67l.77.38Z" fill="#bcb7b3"/><path d="M15.29,69.38,14.86,69l0-.11.36,0h.39v.37A1.55,1.55,0,0,1,15.29,69.38Z" fill="#a4a09e"/><path d="M15.26,68.92a2.17,2.17,0,0,1-.36,0Z" fill="#bcb7b3"/><path d="M15.65,69.3v-.37H16c0,.13,0,.25,0,.37A.59.59,0,0,1,15.65,69.3Z" fill="#bcb7b3"/><path d="M77.1,83.44a11,11,0,0,0,3.14-.39c1.5-.68,2.81-1.76,4.24-2.58,1.71-1,3.47-1.85,5.21-2.76-.92,1.8-2,3.33-4.12,4a37.43,37.43,0,0,0-5.69,2.7c-.31.16-.33.86-.48,1.32l0,.73H77.86l-6.86,0c-1.09-1.13-2.6-1.2-4-1.47-2-.4-4-.56-6.05-.84a1.27,1.27,0,0,1-.64-.35c-.38-.34-.73-.73-1.08-1.11a11.36,11.36,0,0,1,1.79-.59c.88-.14,1.79-.14,2.69-.2l1.91.38,1.52.38h4.58a23.21,23.21,0,0,0,3,1.46c.3.11.83-.45,1.25-.7Z" fill="#bcb7b3"/><path d="M79.38,86.49l0-.73,1.15,0-.4,3c-1.3.4-2.58.84-3.89,1.19-1.54.41-3.11.74-4.67,1.09a12.49,12.49,0,0,1-2.52.5,6.6,6.6,0,0,1-1.89-.49l-.1-.08.11-1.44.71-.82,0-.72a27.34,27.34,0,0,0,3.67.63c2.33.1,4.71.14,6.26-2.14h1.52Z" fill="#d5bf82"/><path d="M90.46,76.94,95,73.13c0,.31,0,.78-.14.9C93.45,75,92,76,90.46,76.94Z" fill="#bcb7b3"/><path d="M80.15,88.78l.4-3,1.17-.06-.79,3.81h-.79Z" fill="#c8b276"/><path d="M95,72.75,95.8,72Z" fill="#bcb7b3"/><path d="M44.56,94.86l-2.2,1.55a4.8,4.8,0,0,0-7-2,2.61,2.61,0,0,1-.8.5,38.24,38.24,0,0,1-6.87,1.68c-1.16.09-2.42-1.13-3.63-1.75.68.11,1.36.25,2,.33,1.38.18,2.65.63,3.94-.79.86-.94,2.67-.94,3.83-1.69A12,12,0,0,0,36.31,90c1-1.22,1.87-.81,2.92-.05A22.35,22.35,0,0,0,42,91.46h0l2.69,2.66Z" fill="#d5bf82"/><path d="M33.26,81.89l.66-2.27a.81.81,0,0,1,.31,0c.72-.24,1.5.23,2.19-.75s1.78-.42,1.69.88A18.29,18.29,0,0,0,39.69,88c-1.35-.08-1.42-1.24-1.82-2.13s-.83-1.78-1.25-2.67c-.47.76-.9,1.55-1.4,2.28a28.54,28.54,0,0,1-3.47,4.8,9.35,9.35,0,0,1-8.93,2.64c-.24-.06-.42-.37-.63-.57,1.85-.54,3.88-.77,5.51-1.69,2-1.11,3.83-2.68,4-5.31h0l.76-.78Z" fill="#9f8e5f"/><path d="M39.69,88a18.29,18.29,0,0,1-1.58-8.27c.09-1.3-1-1.83-1.69-.88s-1.47.51-2.19.75l.2-3,4.85,1.6a2.36,2.36,0,0,1,0,.28c0,.31-.06.63-.11.94-.8,4.67.95,8.41,5.09,10.09a3.12,3.12,0,0,1,2.29,2.37L46.54,93a.69.69,0,0,0,0,.32l-.75.8-.4-.36.11-.73c-.1-.5,0-1.29-.32-1.46-1.52-.88-3.12-1.61-4.69-2.38Z" fill="#534f47"/><path d="M31.71,85.37c-.18,2.63-2,4.2-4,5.31-1.63.92-3.66,1.15-5.51,1.69l-2,.15c.32-.23.63-.66.94-.65,4.15.06,7-2.05,9.19-5.34A6.54,6.54,0,0,1,31.71,85.37Z" fill="#f2dc9c"/><path d="M40.47,89.15c1.57.77,3.17,1.5,4.69,2.38.29.17.22,1,.32,1.46L42,91.47h0Z" fill="#9f8e5f"/><path d="M63.76,93.74c-1,1.53-2,3.08-3.11,4.59-.57.8-1.26,1.51-1.9,2.26l-2.67,1.53c-.66-.65-1-.37-1.12.41l-1.12.37c-2.75.56-5-1.35-7.5-1.67a.47.47,0,0,1-.34-.17c-1.32-2.35-3.59-1.43-5.55-1.6,1-.77,2-1.49,2.87-2.32a12.8,12.8,0,0,0,1.35-1.72l.76-.53c1.54.55,2.68-.29,3.82-1.13H50C54.59,95.72,59.18,96,63.76,93.74Z" fill="#e1cc90"/><path d="M37.4,100.59l1.14-.38C38.4,101.07,38,101.26,37.4,100.59Z" fill="#e1cc90"/><path d="M39.69,99.83l.76-.37Z" fill="#e1cc90"/><path d="M65.65,82.29l-1.91-.38c-1.14-.36-2.34-1.15-3.41-1-3.46.51-6.5-1-9.72-1.64-2.36-.45-4.62-1.47-7.1-1.17h-.76l-1.52-.39L37,75.82l-1.18-.75c.65-1.1,1.37-1.61,2.52-.49.35.33,1,.33,1.57.45,2.34.57,3.9-1.31,5.87-1.9l5.73.38c1.12,1.46,2.67.63,4,.64.33,0,.66-1.1,1-1.69a1.12,1.12,0,0,1,.34-.43c1.78-1,1.39-2.4.75-3.86l.74-.31L62.58,69c0,.06,0,.14.06.18,1.79,1.42,4.71,1.42,5.37,4.28,0,.13.31.2.48.29,2.27,1.2,4.81.87,7.23,1.2a1,1,0,0,0,.81-.4c.87-1.39,2-1.08,3.33-.79,1.16.26,2.54-.32,3.39,1,.07.12.34.17.52.17,2,0,4.14.6,5.16-2,.18-.46.86-.71,1.27-1.1C91.7,70.49,94,69.67,93.88,67l.34-1.4,1.2.63c0,2.07.21,4.19-1.66,5.7-2,1.65-3.85,3.76-6.15,4.79-2.45,1.1-4.78,3.1-7.91,2.34-1.14-.28-2,.49-2.21,1.76-.14.87-.26,1.74-.39,2.61H76c-1.27-1-2.76-.76-4.21-.76H67.17C66.91,81.57,66.32,81.76,65.65,82.29Z" fill="#a4a09e"/><path d="M89.27,56.76c0,.12.08.24.11.35,0,1.91,0,3.81-.07,5.72L88.56,64v0L87,65.14c-.48-.1-1-.18-1.45-.31l-4.65-1.27-.76-2.66c.77.19,1.76.6,1.47-.87a14.4,14.4,0,0,0-1.12-4,8.21,8.21,0,0,1-1.12-5.12L81.75,54l.31.33a2.11,2.11,0,0,0,.36.09c1.25,1.15,2.45,2.35,3.76,3.43.81.66,1.39.21,1.66-.7Z" fill="#052f95"/><path d="M79.41,50.92A8.21,8.21,0,0,0,80.53,56a14.4,14.4,0,0,1,1.12,4c.29,1.47-.7,1.06-1.47.87a2.22,2.22,0,0,1,0-.37L79.4,59l-2.29-4.59A5.83,5.83,0,0,0,77,52.53c-1.19-3-2.41-6-3.77-8.94A23.6,23.6,0,0,0,71,40.29l-.81-1.88c.07-1-.33-2.27,1.34-2.57.39-.07.65-.82,1-1.25l2-.08,1.41,1a.55.55,0,0,0,.2.2l.15.4c-1.41-.39-2.32,1.06-3.66,1a1.27,1.27,0,0,0-.39,1c.89,1.73.29,4.14,2.51,5.25,1.93,1,1.21,3.29,2.27,4.72.2.26.37.53.55.8,0-.35.27-.79.13-1-1.17-2.22-.46-4.6-.62-6.9,0-.3.29-.63.44-.94l-.08,3.86.22,1.36.19.44.37,1.15.34.79.77,2.25Z" fill="#0534b8"/><path d="M79.37,49.83l-.77-2.25a3.58,3.58,0,0,1,.41-.36c.4.35.77.73,1.15,1.1s.78,1.12,1.21,1.16a23.72,23.72,0,0,0,4.84,0,7.83,7.83,0,0,0,2.35-1.14l1.13,0,.78-.75,1.15-1.13.74-.35c.93.57,1-.17,1.2-.77l1.09-.43.79,0,0,1.12a29,29,0,0,0-3.82,2.35,15.66,15.66,0,0,1-6.09,3,4,4,0,0,0-1.18.55,1.85,1.85,0,0,1-2.91-.53A9.21,9.21,0,0,0,79.37,49.83Z" fill="#85827d"/><path d="M87.84,57.19c-.27.91-.85,1.36-1.66.7-1.31-1.08-2.51-2.28-3.76-3.43.12,0,.31,0,.36-.08,1-1.52,2.6-.84,3.92-.86,1.14,0,.93,1.18,1,2C87.81,56.06,87.81,56.63,87.84,57.19Z" fill="#534f47"/><path d="M82.06,54.37,81.75,54Z" fill="#534f47"/><path d="M32.46,84.59l-.76.78Z" fill="#f2dc9c"/><path d="M89.31,62.83c0-1.91,0-3.81.07-5.72.9,1.75,1.76,3.52,2.71,5.24.53,1,.21,1.47-.7,1.94a3.59,3.59,0,0,0-1.68,1.32c-1.28,2.82-3.69,4.16-6.37,5.24a4.12,4.12,0,0,0-.9.74l-.77.06-4.6-.43c.37-.25.74-.7,1.11-.7a12.25,12.25,0,0,0,6.87-2.38c1.51-1,3.24-2,3.52-4.17v0Z" fill="#534f47"/><path d="M77.07,71.22l4.6.43c.84.41,1.69.83,2.54,1.23,2.39,1.11,3.93.05,5.42-1.82a42.93,42.93,0,0,1,4.25-4c.14,2.66-2.18,3.48-3.68,4.91-.41.39-1.09.64-1.27,1.1-1,2.58-3.19,2-5.16,2-.18,0-.45,0-.52-.17-.85-1.35-2.23-.77-3.39-1-1.31-.29-2.46-.6-3.33.79a1,1,0,0,1-.81.4c-2.42-.33-5,0-7.23-1.2-.17-.09-.45-.16-.48-.29-.66-2.86-3.58-2.86-5.37-4.28,0,0,0-.12-.06-.18l8.06,1.69c.61,1.54,3.28,1.85,4.56.52Z" fill="#96938e"/><path d="M45.43,94.89l-.76.53-.11-.56.11-.73.7-.41.4.36Z" fill="#9f8e5f"/><path d="M80.55,89.55h.38l-.36.75Z" fill="#f2dc9c"/><path d="M95.44,44.91l-.79,0,0-.41.88-.26Z" fill="#a4a09e"/><path d="M55,102.53c.14-.78.46-1.06,1.12-.41Z" fill="#f2dc9c"/><path d="M12.11,50.65l1.7-2.32c.8.67,1.49,1.63,2.41,1.94a10.11,10.11,0,0,0,3.69.32,20.82,20.82,0,0,1,7,1.29,7.12,7.12,0,0,0,4.71-.34,18.89,18.89,0,0,0,5.29-4,8.47,8.47,0,0,0,1.91-4.13,64.6,64.6,0,0,0,.84-8.57c0-.82-.71-1.67-1.09-2.5,2.27,0,3.51,1.81,3,4.31-.42,1.91-1.24,3.78-1.3,5.7-.11,3-1.88,5.07-3.61,7.19-.73.89-1.49,1.76-2.24,2.63l-1.53.77-8.43.79c-4.22-1.19-8.54-.61-12.82-.81a.28.28,0,0,0-.23.06Z" fill="#0553d4"/><path d="M15.19,43.35l-.43-2.72a12.24,12.24,0,0,1,2.55.92c1.91,1.2,3.92.67,5.89.48,2.49-.24,5-.53,7.19-2,.42-.27,1.11-.11,1.68-.15l.71-.06.07.47-1.17,2.12-3,2.9a3.11,3.11,0,0,0-.93-.15c-1.08.16-2.14.48-3.22.54a12.79,12.79,0,0,1-2.12-.46c-1.88-.27-3.77-.51-5.67-.7a3.1,3.1,0,0,0-1,.32l-.13-.41Z" fill="#85827d"/><path d="M34.35,52.13c.75-.87,1.51-1.74,2.24-2.63,1.73-2.12,3.5-4.14,3.61-7.19.06-1.92.88-3.79,1.3-5.7.55-2.5-.69-4.27-3-4.31a28,28,0,0,1-3.38-1c-.39-.16-.56-.84-.83-1.29l7.36,1.93,1.08.32c1.88.35,1.44,1.86,1.54,3.1l-.07,1.07-.66,2-.11,1.83-.65,2-.08,0c-.24.16-.65.28-.7.49-.55,2.13-1,4.29-1.55,6.43l-2.27,1.51-.83.71a.7.7,0,0,1-.32,0l-1.19.75a.85.85,0,0,1-.32,0l-1.2,0Z" fill="#0545ce"/><path d="M28.71,45.35l3-2.9c2.39.73,3.12,1.51,3,3.18-.14,2.16-2.37,4.72-4.31,4.94a10.72,10.72,0,0,1-1.7,0c-1.9-.1-2.68-1-2.7-3Z" fill="#51a9e8"/><path d="M28.71,45.35,26,47.55a40.89,40.89,0,0,0-4.31,1c-3,1-4.58.38-5.64-2.54a7,7,0,0,0-.4-.83.47.47,0,0,1,.09-.28,3.1,3.1,0,0,1,1-.32c1.9.19,3.79.43,5.67.7a12.79,12.79,0,0,0,2.12.46c1.08-.06,2.14-.38,3.22-.54A3.11,3.11,0,0,1,28.71,45.35Z" fill="#6c6c68"/><path d="M33.61,34.54c-.08,1.88-2,3.55-4.11,4.61-2.52,1.27-5.22,1.11-7.79,1.33a10.24,10.24,0,0,1-6.64-2.35c-.18-.13-.12-.58-.17-.89a26.79,26.79,0,0,1,3.46.82c4.51,1.72,8.7.64,12.72-1.47a2.76,2.76,0,0,0,1.1-2.33c-.4-2.15.94.17,1-.47l.32,0Z" fill="#a4a09e"/><path d="M14.5,32.29c.37.07.84,0,1.09.22,3.17,2.67,7,2.05,10.61,2,.54,0,1.11-.72,1.6-1.18s1.1-1.21,1.64-1.83l2.33.78c-1.31-.15-1.4,1-1.91,1.74-.39.58-.83,1.31-1.42,1.54a13,13,0,0,1-3.82.91c-2.4.15-4.82.15-7-1.31a6.4,6.4,0,0,0-1.42-.47A2.24,2.24,0,0,1,14.5,32.29Z" fill="#bcb7b3"/><path d="M15.73,44.9a.47.47,0,0,0-.09.28,1.27,1.27,0,0,1-.32.13l-.78,1.12v0l-.3.41h0l-.85.69-.72-.07,0-.69-.4-.76-.77-.71c.17-.19.42-.56.5-.53,1.29.58,2.45-.14,3.66-.31Z" fill="#cac4c2"/><path d="M14.54,46.43l.78-1.12Z" fill="#b2aea9"/><path d="M13.36,47.56l.85-.69-.44.83Z" fill="#bcb7b3"/><path d="M33.57,29.6l0,.38-1.23-.14Z" fill="#0545ce"/><path d="M33.51,33.83l-.32,0L33,33.07Z" fill="#85827d"/><path d="M14.24,46.88l.3-.41Z" fill="#a4a09e"/><path d="M44.25,31.23v-.45c2.59.26,5.18.5,7.76.8.25,0,.45.49.67.74H48.84L47,32.26Z" fill="#0545ce"/><path d="M48.84,32.33h3.83a.92.92,0,0,0,.33,0L55,33l-3.84.75-1.91,0-1.16-.2Z" fill="#041575"/><path d="M57.26,13.59c.25.23.71.47.71.69-.12,2.74.67,5.56-.84,8.19-.13.24-1.78.83-.28,1.55-.11.08-.22.23-.33.23-.51,0-1,0-1.52,0L53.52,24c.1-.28.12-.65.31-.81a27.44,27.44,0,0,0,2.31-2.69c.92-1,.77-3,1.09-4.59l-.43-1.14Z" fill="#bcb7b3"/><path d="M57.23,15.87c-.32,1.57-.17,3.55-1.09,4.59a27.44,27.44,0,0,1-2.31,2.69c-.19.16-.21.53-.31.81l-4.66-.1c4.14-1,6.41-3.82,7.75-7.64C56.67,16.05,57,16,57.23,15.87Z" fill="#d9d8d3"/><path d="M32.78,39.86l-.71.06a.54.54,0,0,1,0-.18c.11-.38.23-.76.34-1.13Z" fill="#9f8e5f"/><path d="M15.6,44.49c-1.21.17-2.37.89-3.66.31-.08,0-.33.34-.5.53-.82-.22-1.63-.45-1.54-1.57l5.29-.41Z" fill="#d9d8d3"/><path d="M7.63,41.83a1.53,1.53,0,0,0,0-.37l0-.41.82,1.53Z" fill="#d9d8d3"/><path d="M44.25,31.23l2.75,1c-1.3-.1-2.22.14-2,1.81,0,.39-.44.85-.69,1.28-.1-1.24.34-2.75-1.54-3.1Z" fill="#041575"/><path d="M13,53.31l-.82.37c-.34-.19-1.32.37-.86-.74a.28.28,0,0,1,.23-.06Z" fill="#51a9e8"/><path d="M10.68,52.13l.47-.59.13.13-.59.47Z" fill="#fdfefd"/><path d="M12.21,46l.4.76Z" fill="#bcb7b3"/><path d="M92.36,46.08l-.74.35c-.73.13-1.47.24-2.2.39A14.32,14.32,0,0,1,86,47.5a52.89,52.89,0,0,1-5.84-.92c-1.15-.2-1.52-1-1.51-2.06l0,0c3,2.34,6.45,1.77,9.85,1.37,1.42-.17,2.84-.4,4.26-.6l0,0Z" fill="#b2aea9"/><path d="M77.48,43.84,77.56,40h.29l.78,4.51,0,0-.8,0Z" fill="#b2aea9"/><path d="M94.63,44.47l0,.41-1.09.43-.8,0,0,0C93,44.05,94,44.67,94.63,44.47Z" fill="#b2aea9"/><path d="M51.15,33.79,55,33l3,.12c.81,1.31,2.07.4,3.09.63l3,.1a4.37,4.37,0,0,0,5-.06l.76,0c.66.2,1.68-.49,1.92.77l-.74,0-.79.74A1.8,1.8,0,0,0,69.47,38a1.11,1.11,0,0,1,0,.37l-.06,0a4.64,4.64,0,0,0-.79-.42c-1.15-.32-.37.4-.37.71l-1.19-.26c-.09-1.86-.63-2.28-3-2.33h0l-3.07-.72-5.7-.83c-1-1.28-2.29-.56-3.47-.69Z" fill="#021164"/><path d="M61.1,33.79c-1-.23-2.28.68-3.09-.63l.74-.09Z" fill="#041575"/><path d="M76.34,36.11l.74.77Z" fill="#0534b8"/><path d="M71.76,34.58c-.24-1.26-1.26-.57-1.92-.77l2.72-.89,2,1.59-2,.08Z" fill="#041575"/><path d="M69.08,33.83a4.37,4.37,0,0,1-5,.06Z" fill="#041575"/><path d="M76.18,35.71a.55.55,0,0,1-.2-.2.29.29,0,0,1,.32,0A.76.76,0,0,1,76.18,35.71Z" fill="#0545ce"/><path d="M16,64c-.48-.38-.91-1-1.45-1.09a6.83,6.83,0,0,0-2.47,0c-1.82.25-2.77-.49-3.38-2.24-.45-1.29-.14-2,1-2.41A20.82,20.82,0,0,1,20,56.48,7.25,7.25,0,0,1,24,58.16c1.33,1,2.84,1.82,4.24,2.76a4.52,4.52,0,0,1,.79,1l1.09,1.34.76.95c-.35.18-.71.51-1.07.51-1.06,0-2.13-.18-3.2-.21s-2.29.12-3.43,0c-.79,0-1.55-.48-2.34-.53-1.46-.1-2.92,0-4.39,0Z" fill="#fdfdfc"/><path d="M26.72,67.43A12.69,12.69,0,0,0,24.83,67c-.82,0-1.48-.17-1.55-1.16,2.42,0,4.85,0,7.27,0a10.51,10.51,0,0,0,2.1-.5,9.4,9.4,0,0,0-1.1-2.3c-.39-.43-1.24-.46-.47-1.28a1.92,1.92,0,0,0-.52-.67c-2-1.62-4-3.32-6.1-4.8a13.5,13.5,0,0,0-3.13-1.12,13.69,13.69,0,0,1-1.48-.75h0l2.37-.15.08-.08c.13,1,.55.66,1,.22l1.13.29v.48a.39.39,0,0,0-.13.06s0,.07,0,.1l.16-.16,1.38,0,.53.09c-.13.29-.43.77-.36.83,1.33,1.11,2.64,2.25,4.07,3.24,1.9,1.32,3.93,2.45,5.8,3.79a2.71,2.71,0,0,1,1,1.88c0,1.07-1,.61-1.58.67-.24,0-.47.18-.72.23l-7.06,1.54Z" fill="#e7e4e1"/><path d="M24.42,54.71l-1.13-.29-1-.22-.08.08-1.35-.38-1.41-.3-2.29-.29H13l-1.45-.43c4.28.2,8.6-.38,12.82.81l.47.77-.07.18A.94.94,0,0,1,24.42,54.71Z" fill="#052f95"/><path d="M22.52,65.88c-1.65.34-3.5,0-4.21-.76a26.73,26.73,0,0,1,3,0C21.72,65.2,22.11,65.63,22.52,65.88Z" fill="#e7e4e1"/><path d="M16,64h.37v1.14L12.21,64Z" fill="#e7e4e1"/><path d="M19.46,53.6l1.41.3-1,.53h0l-1.28.09h-.82l.57-.85Z" fill="#e7e4e1"/><path d="M19.46,53.6l-1.14.08-1.15-.37Z" fill="#51a9e8"/><path d="M26.72,67.43h.74a4.28,4.28,0,0,0,4,1.47c2.61-.17,5.2-.54,7.81-.69,1.31-.08,1.75-.54,1.21-1.76a8.89,8.89,0,0,0-.88-1.6c-.74-1-1.58-2-2.3-3-.14-.19.07-.62.12-.94l1.52.36,1.15.39h0c-.11.86.28,1.23,1.13,1.14h0a6.57,6.57,0,0,0,1.15,1.65c1.33,1,2.77,1.93,4.14,2.93s1,1.84-.24,2.73c-2.34,1.68-5,.93-7.45,1-1.33,0-2.58-.36-3.73.62a.94.94,0,0,1-.86,0c-1.46-.89-2.65-.45-3.73.67H29.42c-.28-.37-.5-.92-.87-1.08-1.31-.53-2.67-1-4-1.35a10.1,10.1,0,0,0-1.65-.24H21.79L20.6,67.8c1.44.12,2.88.33,4.32.33A5.37,5.37,0,0,0,26.72,67.43Z" fill="#cac4c2"/><path d="M15.65,69.3a.59.59,0,0,0,.37,0l.77.46a14.93,14.93,0,0,0-1.63,7.65A6.74,6.74,0,0,1,15,78.67l-1.33-.92.12-3.09c.22-.26.58-.48.64-.78.32-1.49.56-3,.83-4.5A1.55,1.55,0,0,0,15.65,69.3Z" fill="#534f47"/><path d="M15.75,79.4l-.53.22.18-.43Z" fill="#534f47"/><path d="M17.52,70l.41.13Z" fill="#534f47"/><path d="M32.05,75.71l.89.47Z" fill="#9f8e5f"/><path d="M33.17,76.16l.4,0Z" fill="#9f8e5f"/><path d="M66.43,92.23l0-.78.67-.46.1.08Z" fill="#d5bf82"/><path d="M63.76,93.74c-4.58,2.25-9.17,2-13.76,0V93L51.13,93l.79-.7.76,0A6.44,6.44,0,0,0,54.16,92a38.92,38.92,0,0,1,3.89-1.67c1.3-.36,2.78-.14,4.07-.53a4.2,4.2,0,0,1,3.57.49l-.06.76Z" fill="#d5bf82"/><path d="M65.63,91.07l.06-.76c.26-.63.49-1.28.77-1.9s.7-1.37,1.06-2l.48.11L67.93,88l0,.72-.71.82L67.08,91l-.67.46Z" fill="#9f8e5f"/><path d="M30.51,72.37c1.08-1.12,2.27-1.56,3.73-.67a.94.94,0,0,0,.86,0c1.15-1,2.4-.6,3.73-.62,2.48,0,5.11.71,7.45-1,1.26-.89,1.48-1.83.24-2.73s-2.81-1.89-4.14-2.93a6.57,6.57,0,0,1-1.15-1.65,4.28,4.28,0,0,1,1.43.32c1.92,1.26,3.79,2.62,5.7,3.9a5.18,5.18,0,0,0,1.22.43,5.69,5.69,0,0,0-.52,1c0,.11.23.4.41.48.7.31,1.33,1,2.23.35a1,1,0,0,1,.88.15,10.13,10.13,0,0,1,.29,3c0,.42-.87.74-1.34,1.11l-5.73-.38a2.33,2.33,0,0,0-.63-.35c-1.44-.28-2.89-.56-4.34-.76a6.78,6.78,0,0,0-2,0,23,23,0,0,1-3.23.63,3.13,3.13,0,0,0-2.78,1.2C31.86,73.67,30.55,74,30.51,72.37Z" fill="#bcb7b3"/><path d="M32.81,73.9a3.13,3.13,0,0,1,2.78-1.2,23,23,0,0,0,3.23-.63,6.78,6.78,0,0,1,2,0c1.45.2,2.9.48,4.34.76a2.33,2.33,0,0,1,.63.35c-2,.59-3.53,2.47-5.87,1.9-.53-.12-1.22-.12-1.57-.45-1.15-1.12-1.87-.61-2.52.49Z" fill="#b2aea9"/><path d="M22.87,69.7a10.1,10.1,0,0,1,1.65.24c1.36.4,2.72.82,4,1.35.37.16.59.71.87,1.08-1.37-.3-2.74-.59-4.1-.91-.77-.18-1.53-.49-2.31-.61C21.47,70.61,22.72,70.1,22.87,69.7Z" fill="#bcb7b3"/><path d="M42.75,78.09h.76l-.14,1.6-4-1.22a2.36,2.36,0,0,0,0-.28c-.3-.33-.6-.66-.91-1L37,75.82l4.21,1.88,1.05,1Z" fill="#bcb7b3"/><path d="M43.37,79.7l.14-1.6c2.48-.3,4.74.72,7.1,1.17,3.22.6,6.26,2.15,9.72,1.64,1.07-.15,2.27.64,3.41,1-.9.06-1.81.06-2.69.2a11.36,11.36,0,0,0-1.79.59c.35.38.7.77,1.08,1.11a1.27,1.27,0,0,0,.64.35c2,.28,4.06.44,6.05.84,1.37.27,2.88.34,4,1.47H68l-.48-.11c-.24-.19-.46-.51-.72-.55-2.28-.31-4.57-.57-6.85-.85l-1.55-.4-2.31-.72c-.73-.22-1.45-.44-2.17-.68Z" fill="#b2aea9"/><path d="M68,86.47h3l6.86,0c-1.55,2.28-3.93,2.24-6.26,2.14A27.34,27.34,0,0,1,67.93,88Z" fill="#c8b276"/><path d="M71.75,82.68c1.45,0,2.94-.25,4.21.76-.42.25-.95.81-1.25.7A23.21,23.21,0,0,1,71.75,82.68Z" fill="#b2aea9"/><path d="M65.65,82.29c.67-.53,1.26-.72,1.52.38Z" fill="#b2aea9"/><path d="M79.38,86.49h0Z" fill="#c8b276"/><path d="M67.19,89.55l.71-.82Z" fill="#c8b276"/><path d="M45.37,93.72l-.7.41L42,91.47,45.48,93Z" fill="#c8b276"/><path d="M43.37,79.7l10.55,3.46c.72.24,1.44.46,2.17.68a7.05,7.05,0,0,1-.33,1.62,8.29,8.29,0,0,1-7.34,4.8c-1.13.08-1.82.36-1.82,1.59v0a3.12,3.12,0,0,0-2.29-2.37c-4.14-1.68-5.89-5.42-5.09-10.09,0-.31.07-.63.11-.94Z" fill="#0d0c0b"/><path d="M58.4,84.56,60,85a31.33,31.33,0,0,1-2.83,3.69,53.14,53.14,0,0,1-4.44,3.59l-.76,0-.79.7L50,93,46.54,93l.05-1.08v0c1.89-.44,3.82-.72,5.64-1.34C55.18,89.51,56.85,87.07,58.4,84.56Z" fill="#9f8e5f"/><path d="M45.43,94.89l.34-.81.75-.8,2.73.48C48.11,94.6,47,95.44,45.43,94.89Z" fill="#d5bf82"/><path d="M49.25,93.76l-2.73-.48a.69.69,0,0,1,0-.32L50,93v.75Z" fill="#c8b276"/><path d="M70.64,70.73,62.58,69l-4.21-1.18-.71-.25-.43-.15L50.77,65l-.43-.18h0l-1-.44L48.42,64l-.75-.33-7.21-2.78-1-.45L37,59.22l1.94-.2.71.11,1.24.6c2.62.15,2.62.15,2.6-2.2-.13-1.18.59-2.53-.68-3.49l-.15-1.88h.84l0,.74c.26,1,.48,2,.79,2.94.11.34.48.59.73.88l.79,2.67,1.06,2,.44.72.78.73.74,0c.57,1.36,1.78.5,2.67.76h0l1.92.74.75,0a8.73,8.73,0,0,0,6.11,1.52h0a2.86,2.86,0,0,0,2.41,1.54c1.22.08,2.42.58,3.62.59s2.84,1,3.91-.61h0l.75-.77,0-.74c.24-.18.65-.35.67-.55.06-.91,0-1.79,1.28-1.94.12,0,.21-.42.29-.65a9.71,9.71,0,0,1,.93-2.59A3.13,3.13,0,0,0,74.41,57a41.78,41.78,0,0,1-1.12-4.86,3.83,3.83,0,0,1,.21-1.26,5.45,5.45,0,0,0,.67.89c.44.41,1,.76,1.43,1.13l.06.71a2,2,0,0,0,0,.75c1.22,3.15,1.83,6.53,3.61,9.45a17.57,17.57,0,0,0,2.36,3.06,3,3,0,0,0,3.9-.21L87,65.14,88.57,64c-.28,2.13-2,3.17-3.52,4.17a12.25,12.25,0,0,1-6.87,2.38c-.37,0-.74.45-1.11.7l-1.87,0Zm1.86-2.58v.79c.07.17.11.48.21.5A9.79,9.79,0,0,0,78.78,69a.8.8,0,0,0,.3-.69c-.66-1.72-1.29-3.45-2.1-5.1-.56-1.15-1.47-1.13-2,0C74.09,64.81,73.31,66.49,72.5,68.15Z" fill="#050741"/><path d="M50.77,65l6.46,2.47-.44.55.84.15h0c.64,1.46,1,2.87-.75,3.86a1.12,1.12,0,0,0-.34.43c-.33.59-.66,1.69-1,1.69-1.35,0-2.9.82-4-.64.47-.37,1.29-.69,1.34-1.11a10.13,10.13,0,0,0-.29-3,1,1,0,0,0-.88-.15c-.9.68-1.53,0-2.23-.35-.18-.08-.45-.37-.41-.48a5.69,5.69,0,0,1,.52-1A5.18,5.18,0,0,1,48.36,67c-1.91-1.28-3.78-2.64-5.7-3.9a4.28,4.28,0,0,0-1.43-.32h0l-1.13-1.14h0l.38-.76,7.21,2.78.75.33.85.34,1,.44h0Z" fill="#b2aea9"/><path d="M42.75,78.09l-.47.64-1.05-1Z" fill="#b2aea9"/><path d="M57.66,67.61l.71.25-.74.31h0Z" fill="#b2aea9"/><path d="M85.49,66.64a3,3,0,0,1-3.9.21,17.57,17.57,0,0,1-2.36-3.06c-1.78-2.92-2.39-6.3-3.61-9.45a2,2,0,0,1,0-.75l1.45.82L79.4,59l.75,1.53a2.22,2.22,0,0,0,0,.37l.76,2.66A6.19,6.19,0,0,0,85.49,66.64Z" fill="#021164"/><path d="M85.49,66.64a6.19,6.19,0,0,1-4.55-3.08l4.65,1.27c.48.13,1,.21,1.45.31Z" fill="#041575"/><path d="M89.31,62.83,88.56,64Z" fill="#050741"/><path d="M77.81,44.5l.8,0c0,1.06.36,1.86,1.51,2.06A52.89,52.89,0,0,0,86,47.5a14.32,14.32,0,0,0,3.46-.68c.73-.15,1.47-.26,2.2-.39l-1.15,1.13-.78.75-1.13,0a15.76,15.76,0,0,1-8.4,0c-.38-.37-.75-.75-1.15-1.1a3.58,3.58,0,0,0-.41.36l-.34-.79-.37-1.15-.19-.44Z" fill="#a4a09e"/><path d="M77.11,54.41l-1.45-.82-.06-.71-.75-1.71q-1.89-4.48-3.79-9L71,40.72l0-.43a23.6,23.6,0,0,1,2.19,3.3c1.36,2.94,2.58,5.94,3.77,8.94A5.83,5.83,0,0,1,77.11,54.41Z" fill="#052f95"/><path d="M71.76,34.58h.76c-.32.43-.58,1.18-1,1.25-1.67.3-1.27,1.53-1.34,2.57l-.7,0a1.11,1.11,0,0,0,0-.37,1.8,1.8,0,0,1,.76-2.66L71,34.6Z" fill="#052f95"/><path d="M69.51,38.37l.7,0L71,40.29l0,.43-.36.7-.83-1.52-.81-1,.48-.45Z" fill="#041575"/><path d="M80.15,60.53,79.4,59Z" fill="#052f95"/><path d="M77.81,44.5l-.11.7-.22-1.36Z" fill="#0553d4"/><path d="M77.89,45.64l.37,1.15Z" fill="#85827d"/><path d="M80.16,48.32a15.76,15.76,0,0,0,8.4,0,7.83,7.83,0,0,1-2.35,1.14,23.72,23.72,0,0,1-4.84,0C80.94,49.44,80.56,48.72,80.16,48.32Z" fill="#96938e"/><path d="M92.76,45.28l.8,0c-.18.6-.27,1.34-1.2.77Z" fill="#a4a09e"/><path d="M89.69,48.31l.78-.75Z" fill="#96938e"/><path d="M70.64,70.73l4.56.52C73.92,72.58,71.25,72.27,70.64,70.73Z" fill="#85827d"/><path d="M24.86,54.46l-.47-.77,8.43-.79h0l0,.79h0l-1.56.73-.75,0c-.29-.15-.59-.44-.86-.42-.89.08-1.78.27-2.67.42Z" fill="#0545ce"/><path d="M32.82,52.9l1.53-.77v.8a.65.65,0,0,1-.31,0l-1.21-.05Z" fill="#0545ce"/><path d="M34.05,53a.65.65,0,0,0,.31,0l1.2-.75a.85.85,0,0,0,.32,0l1.19-.75a.7.7,0,0,0,.32,0l.83-.71,2.27-1.51c.24-.17.64-.29.69-.51.55-2.13,1-4.27,1.56-6.41l.08,0,.65-2,.11-1.83.66-2,.07-1.07c.25-.43.74-.89.69-1.28-.22-1.67.7-1.91,2-1.81l1.84.07-.76,1.3-.75,0c-.77-1.24-1.33-.47-1.46.31-.36,2.12-.54,4.27-.8,6.4a.5.5,0,0,1,0,.32c-.26.34-.7.66-.75,1a25.94,25.94,0,0,0,0,2.79h0c-.26.29-.73.56-.73.86a26.82,26.82,0,0,0,.16,3,.81.81,0,0,1,.12.29l0,1.25v0l-.09.75-.27,1.5h-.84l-.57-.42c.18-.52.36-1,.52-1.56,0,0-.19-.08-.29-.13L42,51.38l-1.93.74h0l-.88.72-2.64,1.52a.82.82,0,0,0-.27.06l-.44.34,0,0-2.2,2-.5.84L27,55.29l.09-.11a12.12,12.12,0,0,0,2,0,6.73,6.73,0,0,0,1.44-.68l.75,0,1.56-.73h0Z" fill="#021164"/><path d="M42.74,42.21c-.51,2.14-1,4.28-1.56,6.41,0,.22-.45.34-.69.51.51-2.14,1-4.3,1.55-6.43C42.09,42.49,42.5,42.37,42.74,42.21Z" fill="#0534b8"/><path d="M44.24,36.42l-.66,2Z" fill="#041575"/><path d="M43.47,40.24l-.65,2Z" fill="#041575"/><path d="M35.56,52.18l-1.2.75v-.78Z" fill="#0534b8"/><path d="M37.07,51.4l-1.19.75Z" fill="#0534b8"/><path d="M38.22,50.64l-.83.71Z" fill="#0534b8"/><path d="M47.33,33.66l.75,0,1.16.2a10,10,0,0,0,2.15,1.47c1.7.61,3.48,1.06,5.24,1.5s3.5.78,5.25,1.17l3.38.34-4.2.11-4.61.31,0,0-3.73,1.68L50.34,43.7l-.28.3-.53,2a2,2,0,0,0,.06,3.07l-.18,2c-.44-.35-.9-.69-1.33-1-1.14-1-1.95-.74-2.71.62-.18.33-.74.45-1.13.67l-.48-.72.09-.75L43.94,48l.35-3.47h0l.78-3.82a.5.5,0,0,0,0-.32c.25-.75.49-1.5.74-2.25C46.32,36.63,46.83,35.15,47.33,33.66Z" fill="#0553d4"/><path d="M61.88,38c-1.75-.39-3.51-.73-5.25-1.17s-3.54-.89-5.24-1.5a10,10,0,0,1-2.15-1.47l1.91,0,.74.07,3.47.69,5.7.83c.74,1.46,2,.44,3.07.72h0a3.54,3.54,0,0,0,.48.71,5.6,5.6,0,0,0,.8.54,9,9,0,0,1-1,.27C63.56,37.76,62.72,37.86,61.88,38Z" fill="#0545ce"/><path d="M61.06,38.42l4.2-.11,1.84.12,1.19.26.68.16.81,1a.38.38,0,0,0-.33,0l-.42.31-.06.41-1,.88-.78.45-.41.14-.27,0L66,41.59l-.37.58-3,1.57H61.45c-.42-.36-.85-.71-1.26-1.08s-1-1.06-.14-1.68c1.21-.87.17-1.3-.39-1.61a4.83,4.83,0,0,0-1.65-.2l-1.6-.45,0,0Z" fill="#fdfdfc"/><path d="M67.1,38.43l-1.84-.12L61.88,38c.84-.11,1.68-.21,2.51-.35a9,9,0,0,0,1-.27,5.6,5.6,0,0,1-.8-.54,3.54,3.54,0,0,1-.48-.71C66.47,36.15,67,36.57,67.1,38.43Z" fill="#0534b8"/><path d="M64.13,36.1c-1-.28-2.33.74-3.07-.72Z" fill="#0534b8"/><path d="M55.36,34.55l-3.47-.69C53.07,34,54.41,33.27,55.36,34.55Z" fill="#052f95"/><path d="M69,38.85l-.68-.16c0-.31-.78-1,.37-.71a4.64,4.64,0,0,1,.79.42Z" fill="#050741"/><path d="M71,34.6l-.79.74Z" fill="#041575"/><path d="M27,55.29l6.07,2.26,1,.66-1.28.62a10.76,10.76,0,0,0,1.39,0,2.06,2.06,0,0,0,.68-.31l1,.45-1,.3c.18.31.28.77.55.88a6.92,6.92,0,0,0,1.59.34l.39.39c0,.32-.26.75-.12.94.72,1,1.56,2,2.3,3a8.89,8.89,0,0,1,.88,1.6c.54,1.22.1,1.68-1.21,1.76-2.61.15-5.2.52-7.81.69a4.28,4.28,0,0,1-4-1.47l7.06-1.54c.25,0,.48-.2.72-.23.62-.06,1.59.4,1.58-.67a2.71,2.71,0,0,0-1-1.88c-1.87-1.34-3.9-2.47-5.8-3.79-1.43-1-2.74-2.13-4.07-3.24-.07-.06.23-.54.36-.83Z" fill="#d9d8d3"/><path d="M27,55.29l-.68,0-.53-.09-1-.51.07-.18,2.16,0,.09.7Z" fill="#021164"/><path d="M19.85,54.43l1-.53,1.35.38Z" fill="#f1ece9"/><path d="M22.3,54.2l1,.22C22.85,54.86,22.43,55.2,22.3,54.2Z" fill="#f1ece9"/><path d="M24.79,54.64l1,.51-1.38,0h0v-.48A.94.94,0,0,0,24.79,54.64Z" fill="#f1ece9"/><path d="M24.43,55.19l-.16.16s0-.08,0-.1a.39.39,0,0,1,.13-.06Z" fill="#f1ece9"/><path d="M37.41,60.92,37,60.53V59.44a.25.25,0,0,1,0-.22l2.43,1.24-.49.82Z" fill="#b2aea9"/><path d="M38.93,61.28l.49-.82,1,.45-.38.76Z" fill="#bcb7b3"/><path d="M40.09,61.68l1.13,1.14C40.37,62.91,40,62.54,40.09,61.68Z" fill="#bcb7b3"/><path d="M52.68,92.24a53.14,53.14,0,0,0,4.44-3.59A31.33,31.33,0,0,0,60,85c2.28.28,4.57.54,6.85.85.26,0,.48.36.72.55-.36.68-.73,1.36-1.06,2s-.51,1.27-.77,1.9a4.2,4.2,0,0,0-3.57-.49c-1.29.39-2.77.17-4.07.53A38.92,38.92,0,0,0,54.16,92,6.44,6.44,0,0,1,52.68,92.24Z" fill="#c8b276"/><path d="M51.13,93l.79-.7Z" fill="#c8b276"/><path d="M58.4,84.56c-1.55,2.51-3.22,5-6.16,6-1.82.62-3.75.9-5.64,1.34,0-1.23.69-1.51,1.82-1.59a8.29,8.29,0,0,0,7.34-4.8,7.05,7.05,0,0,0,.33-1.62Z" fill="#534f47"/><path d="M44.24,51.38c.39-.22.95-.34,1.13-.67.76-1.36,1.57-1.58,2.71-.62.43.36.89.7,1.33,1l.18-2,0,0,.17,0H50l.41,1.37.4.88L52,53.64l.68.79.76.81,1.7,1.84,3.65,2,.9.63h.13l.13,0c-.42.27-.87.81-1.23.76-2-.31-3.93-.8-5.91-1.13-.68-.12-1.75-.2-2,.17-.77,1-1.94.34-2.41.63-1.41.89-1.76-.34-2.51-.77L45,56.72l-.78-3.81Z" fill="#0545ce"/><path d="M54.19,64.37l-.75,0c-.26-1.24-1.24-.6-1.92-.74h0l-.38-.76h0c2.83.26,5.65.52,8.47.82.28,0,.52.37.81.43a31,31,0,0,0,3.66.69,16.07,16.07,0,0,0,3-.11,2.28,2.28,0,0,0,.8-.39c-.64-.85-.5-2.49-2.25-2.21l-3-1.56-.05-.69A8.49,8.49,0,0,0,71,51.39c.53,1.33,1,2.67,1.6,4,.8,1.84.44,3-1,4.55a9.27,9.27,0,0,0-2,3.53c-.16.52.85,1.38,1.32,2.09a.87.87,0,0,1,.09.36l0,.74-.75.77h0a16.48,16.48,0,0,1-1.87-.1c-2.7-.45-5.38-.94-8.07-1.42h0c-.17-.24-.29-.65-.5-.7-1.35-.32-2.71-.6-4.08-.83A8.69,8.69,0,0,0,54.19,64.37Z" fill="#041575"/><path d="M71,65.9a.87.87,0,0,0-.09-.36c-.47-.71-1.48-1.57-1.32-2.09a9.27,9.27,0,0,1,2-3.53c1.4-1.54,1.76-2.71,1-4.55-.57-1.31-1.07-2.65-1.6-4l-.06-9.08.16-.13q1.91,4.5,3.79,9l.75,1.71c-.48-.37-1-.72-1.43-1.13a5.45,5.45,0,0,1-.67-.89,3.83,3.83,0,0,0-.21,1.26A41.78,41.78,0,0,0,74.41,57a3.13,3.13,0,0,1-.23,3.19,9.71,9.71,0,0,0-.93,2.59c-.08.23-.17.63-.29.65-1.23.15-1.22,1-1.28,1.94C71.66,65.55,71.25,65.72,71,65.9Z" fill="#021164"/><path d="M62.63,60.5l3,1.56c-.23.25-.44.69-.7.72-1.82.19-3.64-.93-5.48,0-.11.06-.34-.13-.52-.18a10.07,10.07,0,0,0-2.12-.51c-1.9-.06-3.8,0-5.71,0l-.37,0c-.35-.26-.69-.69-1.06-.73a24,24,0,0,0-2.81,0l-1.06-2c.75.43,1.1,1.66,2.51.77.47-.29,1.64.38,2.41-.63.29-.37,1.36-.29,2-.17,2,.33,3.93.82,5.91,1.13.36,0,.81-.49,1.23-.76l1.13.07Z" fill="#0534b8"/><path d="M72.5,68.15c.81-1.66,1.59-3.34,2.44-5,.57-1.1,1.48-1.12,2,0,.81,1.65,1.44,3.38,2.1,5.1a.8.8,0,0,1-.3.69,9.79,9.79,0,0,1-6.07.45c-.1,0-.14-.33-.21-.5.6.13,1.2.27,1.8.37,1,.17.81-.2.58-1C74.2,66.14,73.27,68.31,72.5,68.15Z" fill="#021164"/><path d="M40.05,52.12,42,51.38a.92.92,0,0,0,.1.36l.57.42L42.8,54l.68,3.49c0,2.35,0,2.35-2.6,2.2l-.46-.67,0-.07a12.29,12.29,0,0,0,1.4-2.24C42.53,55,41.51,52.6,40.05,52.12Z" fill="#0545ce"/><path d="M60.3,65.89c2.69.48,5.37,1,8.07,1.42a16.48,16.48,0,0,0,1.87.1c-1.07,1.6-2.6.61-3.91.61s-2.4-.51-3.62-.59A2.86,2.86,0,0,1,60.3,65.89Z" fill="#021164"/><path d="M34.06,58.21l-1-.66.5-.84,3,1.16,1.52.42a.92.92,0,0,0,.29,0l.49.7-1.94.2a.25.25,0,0,0,0,.22L35.88,59l-1-.45Z" fill="#041575"/><path d="M54.19,64.37a8.69,8.69,0,0,1,1.53,0c1.37.23,2.73.51,4.08.83.21,0,.33.46.5.7A8.73,8.73,0,0,1,54.19,64.37Z" fill="#021164"/><path d="M72.5,68.15c.77.16,1.7-2,2.38.21.23.75.41,1.12-.58,1-.6-.1-1.2-.24-1.8-.37Z" fill="#041575"/><path d="M46.88,61.36a24,24,0,0,1,2.81,0c.37,0,.71.47,1.06.73H47.32Z" fill="#052f95"/><path d="M44.25,52.91,45,56.72c-.25-.29-.62-.54-.73-.88-.31-1-.53-2-.79-2.94Z" fill="#021164"/><path d="M48.08,62.08h2.67l.37,0,0,.74h-2.3l-.74,0Z" fill="#041575"/><path d="M43.48,57.53,42.8,54C44.07,55,43.35,56.35,43.48,57.53Z" fill="#021164"/><path d="M48.84,62.84h2.29l.38.76C50.62,63.34,49.41,64.2,48.84,62.84Z" fill="#021164"/><path d="M44.25,52.91h-.74l0-.74.27-1.5.48.72Z" fill="#041575"/><path d="M38.93,59l-.49-.7c.73.07,1.7-.58,2,.67l0,.07-.78.07Z" fill="#0545ce"/><path d="M51.52,63.61c.68.14,1.66-.5,1.92.74Z" fill="#021164"/><path d="M39.64,59.13l.78-.07.46.67Z" fill="#041575"/><path d="M70.24,67.41l.75-.77Z" fill="#021164"/><path d="M57.66,67.61l0,.55L56.79,68l.44-.55Z" fill="#96938e"/><path d="M48.08,62.08l0,.73-.78-.73Z" fill="#021164"/><path d="M50.32,64.8l-1-.44Z" fill="#534f47"/><path d="M48.42,64l-.75-.33Z" fill="#534f47"/><path d="M50.77,65l-.43-.18Z" fill="#534f47"/><path d="M70.61,41.42l.36-.7.09,1.46-.16.13a.67.67,0,0,0-.28-.06Z" fill="#050741"/><path d="M70.61,41.42v.83c0,2.52-.07,5-.1,7.57-.73.29-1.45.59-2.19.85-1.37.51-2.11.09-2.29-1.31,0-.3,0-.62,0-.93-.06-.63-.2-1.06-.83-.34a5,5,0,0,1-.71.58c.44-.86.86-1.74,1.31-2.6s.89-1.58,1.34-2.38c0-.11,0-.22,0-.34l.69-.86.08-1,1-.88.49-.35a1.53,1.53,0,0,0,0-.37.38.38,0,0,1,.33,0Z" fill="#85827d"/><path d="M27.11,55.18l-.09-.7c.89-.15,1.78-.34,2.67-.42.27,0,.57.27.86.42a6.73,6.73,0,0,1-1.44.68A12.12,12.12,0,0,1,27.11,55.18Z" fill="#0534b8"/><path d="M32.86,53.7l-1.56.73Z" fill="#0534b8"/><path d="M34.05,53l-1.19.74,0-.79Z" fill="#0534b8"/><path d="M40.47,59c-.33-1.25-1.3-.6-2-.67a.92.92,0,0,1-.29,0l-1.52-.42-3-1.16,2.2-2c.75,2.35,2.7,3.21,4.56,1.87A2.09,2.09,0,0,0,41,54.74,1.31,1.31,0,0,0,39,53.9a9.55,9.55,0,0,1-2.49.46l2.64-1.52.88-.72h0c1.46.48,2.48,2.91,1.82,4.63A12.29,12.29,0,0,1,40.47,59Z" fill="#0553d4"/><path d="M36.54,54.36A9.55,9.55,0,0,0,39,53.9a1.31,1.31,0,0,1,1.95.84,2.09,2.09,0,0,1-.63,1.87c-1.86,1.34-3.81.48-4.56-1.87l0,0,.44-.34A.82.82,0,0,1,36.54,54.36Z" fill="#0473de"/><path d="M47.33,33.66c-.5,1.49-1,3-1.52,4.46-.25.75-.49,1.5-.74,2.25.26-2.13.44-4.28.8-6.4C46,33.19,46.56,32.42,47.33,33.66Z" fill="#041575"/><path d="M44.29,44.51,43.94,48l-.22.35a26.82,26.82,0,0,1-.16-3C43.56,45.07,44,44.8,44.29,44.51Z" fill="#041575"/><path d="M45.06,40.69l-.78,3.82a25.94,25.94,0,0,1,0-2.79C44.36,41.35,44.8,41,45.06,40.69Z" fill="#041575"/><path d="M42.08,51.74a.92.92,0,0,1-.1-.36l.33-1.33c.1.05.3.12.29.13C42.44,50.7,42.26,51.22,42.08,51.74Z" fill="#041575"/><path d="M43.72,48.33l.22-.35-.09,1.93v0l0-1.25A.81.81,0,0,0,43.72,48.33Z" fill="#0473de"/><path d="M40.06,52.12l-.88.72Z" fill="#0545ce"/><path d="M43.84,48.62l0,1.25Z" fill="#0553d4"/><path d="M36.27,54.42l-.44.34Z" fill="#0553d4"/><path d="M61.45,43.73H62.6A14.26,14.26,0,0,1,61,45.24a10.21,10.21,0,0,1-1.82.79,5.45,5.45,0,0,1-1.47.28,17.82,17.82,0,0,1-4-.5,10.16,10.16,0,0,1-2.52-1.7c0-.12,0-.24,0-.36,2,.17,1.48-1.26,1.55-2.34l.59-.31-.55-.34c0-.12,0-.24,0-.37l3.73-1.68,1.6.45c-.7.22-1.42.42-2.11.67a3.35,3.35,0,0,0-1.7,3.24c.17,1.38,1.09,1.52,2.21,1.45a1.93,1.93,0,0,1,1.1.18C59.19,45.79,60.33,44.82,61.45,43.73Z" fill="#e7e4e1"/><path d="M52.68,40.39c0,.13,0,.25,0,.37l0,.65c-.07,1.08.4,2.51-1.55,2.34H50.4l-.06-.06Z" fill="#d9d8d3"/><path d="M49.59,49.11A2,2,0,0,1,49.53,46l.11,3Z" fill="#0545ce"/><path d="M49.64,49.07l-.11-3,.53-2,0,1.24,0,1.56v2.29h-.18Z" fill="#96938e"/><path d="M61.06,38.42l-4.61.31Z" fill="#e7e4e1"/><path d="M50,45.24l0-1.24.28-.3.06.06Z" fill="#d9d8d3"/><path d="M61.45,43.73c-1.12,1.09-2.26,2.06-3.94,1a1.93,1.93,0,0,0-1.1-.18c-1.12.07-2-.07-2.21-1.45a3.35,3.35,0,0,1,1.7-3.24c.69-.25,1.41-.45,2.11-.67a4.83,4.83,0,0,1,1.65.2c.56.31,1.6.74.39,1.61-.85.62-.42,1.17.14,1.68S61,43.37,61.45,43.73Z" fill="#f1ece9"/><path d="M67.17,43.35c0,.12,0,.23,0,.34a30,30,0,0,0-2.43,2c-3.08,3.15-6.37,5.66-11.18,5a8,8,0,0,0-2.72.64l-.4-.88c0-1.1-.45-2.37,1.58-1.47a7.94,7.94,0,0,0,3.48.41c.49,0,.95-.69,1.42-1.06l.76,0,1.15-.75a15.86,15.86,0,0,0,3-1.38c1.72-1.26,3.31-2.71,5-4.08l.41-.14,0,.59Z" fill="#b2aea9"/><path d="M66.75,42.11c-1.64,1.37-3.23,2.82-5,4.08a15.86,15.86,0,0,1-3,1.38l-.4,0L59.16,46A10.21,10.21,0,0,0,61,45.24a14.26,14.26,0,0,0,1.62-1.5l3-1.57.86-.11Z" fill="#cac4c2"/><path d="M67.18,42.56l0-.59.78-.45-.08,1Z" fill="#cac4c2"/><path d="M66.48,42.06l-.86.11.37-.58Z" fill="#e7e4e1"/><path d="M69.45,39.92a1.53,1.53,0,0,1,0,.37L69,40.23Z" fill="#cac4c2"/><path d="M69,40.23l.43.06-.49.35Z" fill="#96938e"/><path d="M35.88,59l1.15.43v1.09a6.92,6.92,0,0,1-1.59-.34c-.27-.11-.37-.57-.55-.88Z" fill="#cac4c2"/><path d="M34.06,58.21l.79.35a2.06,2.06,0,0,1-.68.31,10.76,10.76,0,0,1-1.39,0Z" fill="#cac4c2"/><path d="M70.52,49.82c0-2.52.06-5,.1-7.57a.67.67,0,0,1,.28.06L71,51.39a8.49,8.49,0,0,1-8.38,8.42H61.05l-1.13-.07-.13,0h-.13l-.9-.63-3.65-2A15.87,15.87,0,0,0,58,56.2c2.34-1.21,4.54-2.52,7.44-1.53a4.18,4.18,0,0,0,3.38-.88A4.27,4.27,0,0,0,70.52,49.82Z" fill="#534f47"/><path d="M70.52,49.82a4.27,4.27,0,0,1-1.75,4,4.18,4.18,0,0,1-3.38.88c-2.9-1-5.1.32-7.44,1.53a15.87,15.87,0,0,1-2.84.88l-1.7-1.84,0-.84h.74a24.16,24.16,0,0,0,4.7-.78c2.26-.82,4.47-1.9,5.22-4.54l.38-.4a5,5,0,0,0,.71-.58c.63-.72.77-.29.83.34,0,.31,0,.63,0,.93.18,1.4.92,1.82,2.29,1.31C69.07,50.41,69.79,50.11,70.52,49.82Z" fill="#6c6c68"/><path d="M64.48,48.67l-.38.4a3.93,3.93,0,0,0-1,.47c-2,1.68-4.06,3.31-6.92,3.46-.69,0-1.34.91-2,1.39h-.74l-.79-.72-.68,0-1.17-2.3a8,8,0,0,1,2.72-.64c4.81.68,8.1-1.83,11.18-5a30,30,0,0,1,2.43-2c-.45.8-.91,1.58-1.34,2.38S64.92,47.81,64.48,48.67Z" fill="#96938e"/><path d="M56.88,48.34c-.47.37-.93,1-1.42,1.06A7.94,7.94,0,0,1,52,49c-2-.9-1.63.37-1.58,1.47L50,49.09V46.8c.38.5.77.56,1.15,0l.77.76h.76c.31,1.22,1.3,1.17,2.22,1.12A16.88,16.88,0,0,0,56.88,48.34Z" fill="#bcb7b3"/><path d="M52.65,53.68l.79.72,0,.84-.76-.81Z" fill="#85827d"/><path d="M52.65,53.68v.75L52,53.64Z" fill="#6c6c68"/><path d="M58.76,59.09l.9.63Z" fill="#0534b8"/><path d="M51.14,62.83l0-.74c1.91,0,3.81-.06,5.71,0A10.07,10.07,0,0,1,59,62.6c.18,0,.41.24.52.18,1.84-.93,3.66.19,5.48,0,.26,0,.47-.47.7-.72,1.75-.28,1.61,1.36,2.25,2.21a2.28,2.28,0,0,1-.8.39,16.07,16.07,0,0,1-3,.11,31,31,0,0,1-3.66-.69c-.29-.06-.53-.4-.81-.43C56.79,63.35,54,63.09,51.14,62.83Z" fill="#052f95"/><path d="M61.05,59.8h1.53l.05.69Z" fill="#052f95"/><path d="M36.63,57.87l1.52.42Z" fill="#0534b8"/><path d="M67.18,42.56l.68-.07-.69.86Z" fill="#96938e"/><path d="M51.91,47.56l-.77-.76,0-2.69a10.16,10.16,0,0,0,2.52,1.7,17.82,17.82,0,0,0,4,.5A5.45,5.45,0,0,0,59.16,46l-.77,1.52H52.67L52.2,47Z" fill="#d9d8d3"/><path d="M51.16,44.11l0,2.69c-.38.56-.77.5-1.15,0l0-1.56.37-1.48h.74C51.14,43.87,51.15,44,51.16,44.11Z" fill="#cac4c2"/><path d="M52.69,41.41l0-.65.55.34Z" fill="#f9ebaf"/><path d="M52.67,47.56H58l-.37.77-.76,0a16.88,16.88,0,0,1-2,.34C54,48.73,53,48.78,52.67,47.56Z" fill="#cac4c2"/><path d="M57.64,48.32l.37-.77h.38l.4,0Z" fill="#bcb7b3"/><path d="M54.18,54.39c.67-.48,1.32-1.36,2-1.39,2.86-.15,4.88-1.78,6.92-3.46a3.93,3.93,0,0,1,1-.47c-.75,2.64-3,3.72-5.22,4.54A24.16,24.16,0,0,1,54.18,54.39Z" fill="#85827d"/><path d="M51.91,47.56,52.2,47l.47.61Z" fill="#cac4c2"/></svg>