<svg id="Capa_1" data-name="Capa 1" xmlns="http://www.w3.org/2000/svg" xmlns:xlink="http://www.w3.org/1999/xlink" viewBox="0 0 354.33333 119.68261"><defs><radialGradient id="Degradado_sin_nombre_19" cx="37.09351" cy="72.72916" r="10.88331" gradientUnits="userSpaceOnUse"><stop offset="0" stop-color="#1b1c1b"/><stop offset="1" stop-color="#232323"/></radialGradient><linearGradient id="Degradado_sin_nombre_17" x1="177.16667" y1="8.875" x2="177.16667" gradientUnits="userSpaceOnUse"><stop offset="0" stop-color="#2c232d"/><stop offset="0.5" stop-color="#312c39"/><stop offset="1" stop-color="#2c232d"/></linearGradient></defs><title>controller</title><path d="M143.41667,8.51563V.98438A.98727.98727,0,0,0,142.43229,0H10.125A10.15477,10.15477,0,0,0,0,10.125v87.75c.75,8.20833,6,12.625,13.16667,14,32.875,5.125,114.08593,8.0069,164,7.79688,49.91406.21,131.125-2.67188,164-7.79688,7.16666-1.375,12.41666-5.79167,13.16666-14V10.125A10.15477,10.15477,0,0,0,344.20833,0H211.90105a.98727.98727,0,0,0-.98438.98438V8.75a.7522.7522,0,0,1-.75.75h-66a.7522.7522,0,0,1-.75-.75Z" fill="#2b2b2d"/><path d="M71.54166,7.19122v109.7471c-23.85531-1.283-45.07233-2.98952-58.375-5.06332C6,110.5.75,106.08333,0,97.875V17.04255c0-5.41823,4.16876-9.85133,9.26392-9.85133Z" fill="#232323"/><path d="M282.79167,7.19122v109.7471c23.85531-1.283,45.07233-2.98952,58.375-5.06332,7.16666-1.375,12.41666-5.79167,13.16666-14V17.04255c0-5.41823-4.16876-9.85133-9.26392-9.85133Z" fill="#232323"/><path d="M71.54166,116.93832V7.19122A14.65737,14.65737,0,0,1,75,4.81252V117.12043Q73.26227,117.03085,71.54166,116.93832Z" fill="#1b1c1e"/><path d="M282.79167,116.93832V7.19122a14.65716,14.65716,0,0,0-3.45833-2.3787V117.12043Q281.07107,117.03085,282.79167,116.93832Z" fill="#1b1c1e"/><path d="M37.09351,70.58322l-8.52339-8.5234c-.39232-.39231-1.19074-.23-1.78332.36262s-.75494,1.391-.36262,1.78332l8.52339,8.5234-8.52339,8.52339c-.39232.39232-.23,1.19074.36262,1.78332s1.391.75494,1.78332.36262l8.52339-8.52339,8.5234,8.52339c.39232.39232,1.19074.23,1.78332-.36262s.75494-1.391.36262-1.78332l-8.5234-8.52339,8.5234-8.5234c.39232-.39231.23-1.19073-.36262-1.78332s-1.391-.75493-1.78332-.36262Z" fill="url(#Degradado_sin_nombre_19)"/><path d="M45.09351,62.05013v-8.446a2.31929,2.31929,0,0,0-2.3125-2.3125H31.406a2.31931,2.31931,0,0,0-2.31251,2.3125v8.446a1.287,1.287,0,0,0,.377.91l7.62305,7.62306,7.62306-7.623A1.287,1.287,0,0,0,45.09351,62.05013Z" fill="#06090e"/><path d="M26.41449,64.72916h-8.446a2.3193,2.3193,0,0,0-2.3125,2.3125v11.375a2.3193,2.3193,0,0,0,2.3125,2.3125h8.446a1.287,1.287,0,0,0,.91-.37695l7.623-7.62305-7.623-7.623A1.287,1.287,0,0,0,26.41449,64.72916Z" fill="#06090e"/><path d="M29.09342,83.40818v8.446a2.3193,2.3193,0,0,0,2.3125,2.3125h11.375a2.3193,2.3193,0,0,0,2.3125-2.3125v-8.446a1.287,1.287,0,0,0-.377-.91l-7.62306-7.623-7.62305,7.623A1.287,1.287,0,0,0,29.09342,83.40818Z" fill="#06090e"/><path d="M47.77254,64.72925h8.446a2.3193,2.3193,0,0,1,2.3125,2.3125v11.375a2.3193,2.3193,0,0,1-2.3125,2.3125h-8.446a1.287,1.287,0,0,1-.91-.37695l-7.62306-7.62305,7.62306-7.623A1.287,1.287,0,0,1,47.77254,64.72925Z" fill="#06090e"/><path d="M30.07145,62.3584a.43367.43367,0,0,1-.12744-.30811V53.604a1.4635,1.4635,0,0,1,1.46191-1.46191h11.375A1.4635,1.4635,0,0,1,44.24284,53.604v8.44629a.43367.43367,0,0,1-.12744.30811l-7.022,7.022Z" fill="#1b1c1b"/><path d="M26.72276,79.75122a.43369.43369,0,0,1-.30811.12744H17.96836a1.4635,1.4635,0,0,1-1.46191-1.46191v-11.375a1.46351,1.46351,0,0,1,1.46191-1.46192h8.44629a.43365.43365,0,0,1,.30811.12745l7.022,7.022Z" fill="#1b1c1b"/><path d="M44.11549,83.09992a.43364.43364,0,0,1,.12744.3081v8.44629A1.46351,1.46351,0,0,1,42.781,93.31623H31.406a1.46351,1.46351,0,0,1-1.46191-1.46192V83.408a.43364.43364,0,0,1,.12744-.3081l7.022-7.022Z" fill="#1b1c1b"/><path d="M47.46427,79.75131a.43369.43369,0,0,0,.30811.12744h8.44629a1.4635,1.4635,0,0,0,1.46191-1.46191v-11.375a1.46351,1.46351,0,0,0-1.46191-1.46192H47.77238a.43365.43365,0,0,0-.30811.12745l-7.022,7.022Z" fill="#1b1c1b"/><rect x="1" y="18.5" width="71.13542" height="2.16667" rx="0.73223" fill="#1c1c1e"/><rect x="1" y="23.66667" width="71.13542" height="2.16667" rx="0.73223" fill="#1c1c1e"/><rect x="1" y="28.83333" width="71.13542" height="2.16667" rx="0.73223" fill="#1c1c1e"/><rect x="1" y="34" width="71.13542" height="2.16667" rx="0.73223" fill="#1c1c1e"/><path d="M36.51018,54.47917l-3.05932,6.11864a.65219.65219,0,0,0,.58333.94386h6.11865a.65219.65219,0,0,0,.58333-.94386l-3.05932-6.11864A.65219.65219,0,0,0,36.51018,54.47917Z" fill="#121212"/><path d="M18.84352,73.31249l6.11865,3.05932a.65218.65218,0,0,0,.94385-.58333V69.66983a.65218.65218,0,0,0-.94385-.58333l-6.11865,3.05932A.65219.65219,0,0,0,18.84352,73.31249Z" fill="#121212"/><path d="M37.67676,90.97915l3.05932-6.11865a.65218.65218,0,0,0-.58333-.94385H34.0341a.65218.65218,0,0,0-.58333.94385l3.05932,6.11865A.65219.65219,0,0,0,37.67676,90.97915Z" fill="#121212"/><path d="M55.34351,73.31258,49.22486,76.3719a.65218.65218,0,0,1-.94385-.58333V69.66992a.65218.65218,0,0,1,.94385-.58333l6.11865,3.05932A.65219.65219,0,0,1,55.34351,73.31258Z" fill="#121212"/><path d="M75,4.81252H279.33334V117.12043c-34.29537,1.76787-73.421,2.6724-102.16667,2.55145C148.421,119.79283,109.29536,118.8883,75,117.12043Z" fill="#26272b"/><path d="M76.66667,104.36628a.71088.71088,0,0,0,.62657.708,858.46706,858.46706,0,0,0,99.87343,5.57482,858.46689,858.46689,0,0,0,99.87342-5.57482.71088.71088,0,0,0,.62658-.708V19.211a.711.711,0,0,0-.711-.711H77.37765a.711.711,0,0,0-.711.711Z" fill="#313133"/><rect x="143.41667" y="1.4375" width="67.5" height="8.00002"/><path d="M144.09167,7.95539a.94574.94574,0,0,0,.96469.91961H209.277a.94574.94574,0,0,0,.96468-.91961V.91961A.94574.94574,0,0,0,209.277,0H145.05636a.94574.94574,0,0,0-.96469.91961Z" fill="url(#Degradado_sin_nombre_17)"/><path d="M89.48487,30.08773a2.52211,2.52211,0,0,1-1.25554.35286,2.43687,2.43687,0,0,1,0-4.87373,2.52165,2.52165,0,0,1,1.25554.35153V23.3001a5.582,5.582,0,0,0-1.25554-.17158,4.8745,4.8745,0,1,0,0,9.749,5.58194,5.58194,0,0,0,1.25554-.17149V30.08773Z" fill="#f4f1f0"/><polygon points="89.485 27.796 91.535 27.796 93.361 25.971 89.485 25.971 89.485 27.796" fill="#f4f1f0"/><path d="M93.36118,30.03609l-1.82583-1.8245H89.48487v1.8245Z" fill="#f4f1f0"/><path d="M104.02156,27.66453a.86788.86788,0,0,0-.72409.35978,1.77608,1.77608,0,0,0,0,1.89736.91693.91693,0,0,0,1.453.00454,1.81953,1.81953,0,0,0,0-1.90673.87915.87915,0,0,0-.72892-.355Zm45.493,2.68791a2.05511,2.05511,0,0,0,.39754.03293,3.15372,3.15372,0,0,0,.72862-.09425,4.59738,4.59738,0,0,0,.79054-.28849v1.12646a4.61874,4.61874,0,0,1-.80474.20813,5.16456,5.16456,0,0,1-.87029.07069c-.081,0-.161-.00484-.242-.00484a2.65852,2.65852,0,0,1-1.72216-.65793,2.41752,2.41752,0,0,1-.705-1.8454,2.26181,2.26181,0,0,1,.65249-1.704,2.42558,2.42558,0,0,1,1.76052-.63437h.0142a2.24183,2.24183,0,0,1,1.70857.6531,2.59677,2.59677,0,0,1,.6105,1.85024v.38364h-3.228a.93024.93024,0,0,0,.38818.69086,1.2595,1.2595,0,0,0,.52109.21327Zm0-1.83121h.92346a1.18291,1.18291,0,0,0-.29392-.72861.83621.83621,0,0,0-.62954-.26493h-.00483a.79938.79938,0,0,0-.6241.26493,1.23835,1.23835,0,0,0-.29846.72861Zm-9.64,1.76053a.86952.86952,0,0,0,.72439-.35525,1.794,1.794,0,0,0,0-1.90673.912.912,0,0,0-1.44817.00454,1.75175,1.75175,0,0,0,0,1.89736A.87908.87908,0,0,0,139.87457,30.28176Zm0-3.71982a2.76662,2.76662,0,0,1,1.94057.64374,2.59913,2.59913,0,0,1,0,3.54944,3.24594,3.24594,0,0,1-3.88053,0,2.59913,2.59913,0,0,1,0-3.54944A2.76466,2.76466,0,0,1,139.87457,26.56194Zm6.86236.05166-.08036,1.35876a1.397,1.397,0,0,0-.213-.05709,1.6606,1.6606,0,0,0-.27973-.01873,1.01218,1.01218,0,0,0-.84673.35977,1.6992,1.6992,0,0,0-.28909,1.06484v1.95868h-1.576V26.68489h1.41072v.87543a1.825,1.825,0,0,1,.5818-.75279,1.401,1.401,0,0,1,.81894-.24589c.08036,0,.22716.01873.445.04713Zm-12.96227,3.56848a.88157.88157,0,0,0,.70506-.32625,1.44987,1.44987,0,0,0,.25555-.90866,1.385,1.385,0,0,0-.26976-.89929.88613.88613,0,0,0-.69085-.33169h-.0426a.7867.7867,0,0,0-.66246.34589,1.471,1.471,0,0,0-.26009.90382,1.38152,1.38152,0,0,0,.26009.88963.83566.83566,0,0,0,.69569.32625l.00937.0003Zm0-3.54884a1.69,1.69,0,0,1,.97.68632V24.57909h1.576v6.70135h-1.41494v-.918a1.84868,1.84868,0,0,1-.69086.73345,1.63128,1.63128,0,0,1-.44013.1894,2.08248,2.08248,0,0,1-.52985.06676,1.85046,1.85046,0,0,1-1.4814-.6673,2.63415,2.63415,0,0,1-.56278-1.76535,2.53188,2.53188,0,0,1,.54858-1.71824,1.85883,1.85883,0,0,1,1.4814-.6389,1.99079,1.99079,0,0,1,.544.071Zm-5.96337,3.64852a.87844.87844,0,0,0,.72923-.35524,1.81958,1.81958,0,0,0,0-1.90673.91692.91692,0,0,0-1.453.00453,1.77773,1.77773,0,0,0,0,1.89736A.892.892,0,0,0,127.81129,30.28176Zm0-3.71981a2.78637,2.78637,0,0,1,1.9451.64373,2.59913,2.59913,0,0,1,0,3.54944,2.7643,2.7643,0,0,1-1.9451.64374,2.73112,2.73112,0,0,1-1.93512-.64374,2.5991,2.5991,0,0,1,0-3.54944A2.75193,2.75193,0,0,1,127.81129,26.562Zm-23.78973,4.83661a2.7521,2.7521,0,0,1-1.94026-.64374,2.61065,2.61065,0,0,1,0-3.54944,3.2532,3.2532,0,0,1,3.88535,0,2.59829,2.59829,0,0,1,0,3.54944A2.76427,2.76427,0,0,1,104.02156,31.39856Zm8.09726-3.8615a1.92213,1.92213,0,0,1,.68633-.715,1.76831,1.76831,0,0,1,.92286-.25073,1.52893,1.52893,0,0,1,1.24.51625,2.291,2.291,0,0,1,.43046,1.50436v2.68791h-1.55209V28.91877a1.40217,1.40217,0,0,0-.18-.79054.62315.62315,0,0,0-.54435-.25073.71447.71447,0,0,0-.6105.322,1.53525,1.53525,0,0,0-.22233.87482v2.20549h-1.56659V28.91877a1.406,1.406,0,0,0-.17521-.79055.62052.62052,0,0,0-.54888-.25072.71182.71182,0,0,0-.60567.322,1.47462,1.47462,0,0,0-.232.87483v2.20548h-1.55692V26.68489H109.014v.82377a1.95274,1.95274,0,0,1,.67666-.69629,1.79823,1.79823,0,0,1,.91349-.24136,1.68686,1.68686,0,0,1,.92286.25073,1.55765,1.55765,0,0,1,.59177.71532Zm8.92074,0a1.91909,1.91909,0,0,1,.686-.715,1.78108,1.78108,0,0,1,.92286-.25073,1.5188,1.5188,0,0,1,1.2352.51625,2.291,2.291,0,0,1,.43077,1.50436v2.68791h-1.54786V28.91877a1.4024,1.4024,0,0,0-.17974-.79054.61746.61746,0,0,0-.54435-.25073.72043.72043,0,0,0-.6105.322,1.53525,1.53525,0,0,0-.22233.87482v2.20549H119.643V28.91877a1.45214,1.45214,0,0,0-.17037-.79055.63524.63524,0,0,0-.55372-.25072.71221.71221,0,0,0-.60567.322,1.47469,1.47469,0,0,0-.232.87483v2.20548h-1.55692V26.68489h1.41494v.82377a1.87856,1.87856,0,0,1,.67666-.69629,1.77438,1.77438,0,0,1,.91349-.24136,1.68277,1.68277,0,0,1,.91832.25073,1.5613,1.5613,0,0,1,.59178.71532Zm-20.37321-2.272-.142,1.29683a3.1029,3.1029,0,0,0-.71956-.312,2.96936,2.96936,0,0,0-.76668-.10452,1.99331,1.99331,0,0,0-1.47657.54465,1.93214,1.93214,0,0,0-.55371,1.45271,1.95181,1.95181,0,0,0,.56308,1.46267,2.06889,2.06889,0,0,0,1.4956.54405,3.46465,3.46465,0,0,0,.74765-.08972,4.27823,4.27823,0,0,0,.77121-.26976l.09938,1.39108a7.39012,7.39012,0,0,1-.88963.18457,7.13381,7.13381,0,0,1-.89929.06132,3.74405,3.74405,0,0,1-2.63112-.86606,3.123,3.123,0,0,1-.94642-2.41846,3.05151,3.05151,0,0,1,.93222-2.34716,3.53676,3.53676,0,0,1,2.52237-.8709,5.84026,5.84026,0,0,1,1.01288.08489,4.19936,4.19936,0,0,1,.88056.25586Z" fill="#f4f1f0"/><path d="M255.90664,29.94494V26.43738c0-.92742.3373-1.36243,1.32171-1.36243h.95618c.44948,0,.422-.02831.422-.55063V23.50958c0-.49322.11217-.60885.50594-.60885h.84324c.64712,0,.64712,0,.64712.75358v7.04421c0,.57974-.08394.57974-.7593.57974h-2.10848C256.38511,31.27826,255.90664,31.191,255.90664,29.94494Zm4.32914-6.69574H258.9423v1.42064c0,.66706,0,.75359-.75929.75359h-.78753c-1.06836,0-1.20954.23205-1.20954,1.10127v3.2755c0,.89911.25336,1.15948.81577,1.15948l3.23331-.02832V23.2492Zm-2.7266,6.116V26.95892c0-.57975.16865-.98564.70283-.98564.56241,0,.73106.4641.73106,1.01474V29.3943c0,.49243-.11218,1.01474-.73106,1.01474-.50671-.00078-.70283-.43579-.70283-1.04385Zm.25183-2.40627V29.307c0,.3768.28158.72448.53418.72448.22511,0,.30906-.20295.30906-.63795V26.988c0-.49321-.08395-.66706-.3373-.66706a.60574.60574,0,0,0-.50594.638Zm10.82627,2.95691V26.40828a1.17705,1.17705,0,0,1,1.29348-1.33333H271.568c.87224,0,1.43465.31937,1.43465,1.18938v1.04306c0,.37679-.11217.46411-.47847.46411h-.7593c-.422,0-.58988-.14553-.58988-.435v-.435c0-.29026-.14118-.49321-.3373-.49321-.30906,0-.422.17463-.422.81179V29.307c0,.46332.11218.66626.36553.66626.22436,0,.39377-.17384.39377-.52231v-.60728c0-.26116.14117-.37679.39376-.37679h1.01266a.41462.41462,0,0,1,.422.46411v1.07217a1.173,1.173,0,0,1-1.01265,1.2759h-2.24966C268.78417,31.27826,268.58728,30.66942,268.58728,29.91583Zm2.925-3.10323v.55064h1.18129V26.23208c0-.60885-.30906-.8118-1.09659-.8118h-1.659c-.87223,0-1.01188.31858-1.01188,1.073v3.39113c0,.92821.30906,1.04384,1.09659,1.04384h1.82842c.61888,0,.84324-.40589.84324-1.07216V28.8413H271.5123v.55064c0,.60806-.3373.95653-.7593.95653-.36553,0-.61889-.31858-.61889-.86922V26.95656c0-.579.28159-.89833.67536-.89833a.75211.75211,0,0,1,.70282.75437Zm-7.7601.81337V26.58291c0-1.07295.25336-1.508,1.37818-1.508h2.081c.64712,0,.67536,0,.67536.46411v.66706c0,.55063-.02824.55063-.70283.55063h-1.1813c-.422,0-.64712,0-.64712.203,0,.26116.22512.26116.64712.26116h.928a1.1252,1.1252,0,0,1,1.15306,1.246v1.39232c0,1.10127-.39377,1.42064-1.54607,1.42064h-2.13747c-.59065,0-.64712,0-.64712-.40668v-.81258c0-.34769.08394-.46411.422-.46411h1.63153c.44948,0,.61889-.08653.61889-.26116,0-.26037-.16941-.31858-.61889-.31858h-1.01265c-.98594,0-1.04165-.69459-1.04165-1.39075Zm2.27866,2.31661h-1.99707v.98563H266.565c1.06835,0,1.18053-.26115,1.18053-.92821V28.11682c0-.31858-.53418-.52231-.81577-.52231h-.87223c-.73107,0-.98366-.14474-.98366-.579,0-.31858.22436-.60884.73106-.60884h1.77119v-.98643h-2.44654c-.7593,0-1.09736.11564-1.09736,1.01475v1.13116c0,.75358.19689,1.13038.95618,1.13038h.92871c.36553,0,.84324.08731.84324.60884a.67506.67506,0,0,1-.72953.63717Zm-1.35071-7.04185v1.65191h.39376V23.39316l.45024,1.15948h.36553l.44947-1.15948v1.15948h.39453V22.90073h-.64712l-.33805,1.014-.393-1.014Zm-3.489,7.50753V25.6838c0-.49321.05647-.60885.53418-.60885h.89971c.56241,0,.56241.02911.56241.72527v4.84009c0,.63874-.14118.63874-.53418.63874h-.90047c-.56165-.00079-.56165-.00079-.56165-.87079Zm1.65977-4.98483h-1.32171v5.53625l1.32171-.02832Zm5.5959-.87079.56394-1.65191h.58912l.53418,1.65191h-.40674l-.09386-.26116h-.65017l-.087.26116Zm.873-1.2177-.22435.638h.44947Zm-5.65314-.46253c.61889,0,.73107.23205.73107.86922,0,.667-.3373.8409-.67536.8409-.57615,0-.84324-.17306-.84324-.8118,0-.69537.19688-.89832.78753-.89832Zm.36554.75359c0-.31859-.16942-.4059-.3373-.4059-.30754,0-.39377.12586-.39377.49242,0,.391.09844.54041.3663.52468.21977-.01258.36476-.03776.36476-.6112Zm7.19233.31936c-.02518.22655-.02289.28948-.21978.28948-.33729,0-.39376-.17463-.39376-.49321,0-.4059.16865-.46332.36553-.46332s.264.01809.27243.17542l.34569-.00079c0-.435-.16941-.55064-.70359-.55064-.47771,0-.70283.23206-.70283.8118,0,.7819.30906.86922.87224.86922.422,0,.493-.18014.5235-.63874l-.35943.00078Zm-4.1002-1.04463h.64712c.50594,0,.75929.08653.75929.55064,0,.638-.16941.66626-.95618.66626v.435h-.45023V22.90073Zm.95312.63559c0-.26037-.05189-.28869-.50212-.28869v.55064C268.02563,23.79827,268.07752,23.71016,268.07752,23.53632Zm3.65913-.63559v.3469h.45024v1.305h.39376v-1.305h.42124v-.3469ZM262.242,23.90918c-.02518.22655-.02289.28948-.219.28948-.3373,0-.39453-.17385-.39453-.49243,0-.4059.16941-.46411.36553-.46411s.2648.0181.27243.17542l.34646-.00157c0-.435-.16865-.55064-.70283-.55064-.47847,0-.70359.23205-.70359.811,0,.78269.30982.86922.87224.86922.422,0,.493-.18014.52349-.63795l-.36019.00157Z" fill="#f4f1f0"/><line x1="83.35416" y1="35.70833" x2="273.00342" y2="35.70833" fill="none" stroke="#f4f1f0" stroke-miterlimit="10" stroke-width="0.75"/><path d="M159.03,28.69109a.76785.76785,0,0,0-.168-.18995.78694.78694,0,0,0-.49463-.17236.88325.88325,0,0,0-.43213.09815.82277.82277,0,0,0-.28808.26416,1.16546,1.16546,0,0,0-.16065.37646,1.87432,1.87432,0,0,0-.05029.437,1.73755,1.73755,0,0,0,.05029.41992,1.13823,1.13823,0,0,0,.16065.36719.82547.82547,0,0,0,.28808.26172.88327.88327,0,0,0,.43213.09863.69778.69778,0,0,0,.54-.21142.97856.97856,0,0,0,.23779-.55664h.72949a1.74757,1.74757,0,0,1-.14892.58056,1.39069,1.39069,0,0,1-.3169.4419,1.348,1.348,0,0,1-.46045.27832,1.69083,1.69083,0,0,1-.58105.0957,1.7558,1.7558,0,0,1-.708-.13672,1.51785,1.51785,0,0,1-.53027-.37695,1.66732,1.66732,0,0,1-.33154-.564,2.072,2.072,0,0,1-.11475-.69824,2.14627,2.14627,0,0,1,.11475-.71289,1.722,1.722,0,0,1,.33154-.57373,1.51613,1.51613,0,0,1,.53027-.38379,1.83839,1.83839,0,0,1,1.24317-.05761,1.45524,1.45524,0,0,1,.45117.23779,1.282,1.282,0,0,1,.3291.38623,1.38315,1.38315,0,0,1,.16309.52783h-.7295A.62478.62478,0,0,0,159.03,28.69109Z" fill="#f4f1f0"/><path d="M161.86637,27.77654a1.76673,1.76673,0,0,1,.6167.10546,1.34663,1.34663,0,0,1,.49463.3169,1.46088,1.46088,0,0,1,.32617.52832,2.128,2.128,0,0,1,.11768.74365,2.37876,2.37876,0,0,1-.0957.69141,1.53,1.53,0,0,1-.29053.54687,1.36858,1.36858,0,0,1-.48486.3628,1.64419,1.64419,0,0,1-.68409.13183h-1.47851V27.77654ZM161.81364,30.57a.96986.96986,0,0,0,.31689-.05273.69465.69465,0,0,0,.27344-.1753.874.874,0,0,0,.1919-.31884,1.39739,1.39739,0,0,0,.07226-.48,2.02188,2.02188,0,0,0-.05029-.46826.9293.9293,0,0,0-.166-.35743.7329.7329,0,0,0-.30468-.228,1.21728,1.21728,0,0,0-.46778-.07911h-.5376V30.57Z" fill="#f4f1f0"/><path d="M163.67643,28.41032v-.63378h2.80811v.63378h-1.02735v2.79346h-.75341V28.41032Z" fill="#f4f1f0"/><path d="M167.62174,31.20378l-1.10888-3.42724h.773l.76318,2.40966h.00977l.77246-2.40966h.77783l-1.1377,3.42724Z" fill="#f4f1f0"/><path d="M173.08415,27.77654a1.10677,1.10677,0,0,1,.415.07421.9546.9546,0,0,1,.31689.20411.88686.88686,0,0,1,.20166.30029.96023.96023,0,0,1,.06983.36719,1.02717,1.02717,0,0,1-.12745.523.79778.79778,0,0,1-.415.33593V29.591a.588.588,0,0,1,.23047.11767.65126.65126,0,0,1,.14844.187.86886.86886,0,0,1,.084.23779,2.05745,2.05745,0,0,1,.03613.25928c.00342.0542.00635.11816.00976.19189.00293.07373.00879.14893.01661.22559a1.49279,1.49279,0,0,0,.03857.21826.50344.50344,0,0,0,.0791.17529h-.75342a1.32081,1.32081,0,0,1-.07715-.38867c-.00927-.15039-.02392-.29443-.043-.43213a.683.683,0,0,0-.16309-.39355.56247.56247,0,0,0-.4082-.125h-.75342v1.33935H171.236V27.77654Zm-.269,1.55029a.5692.5692,0,0,0,.38916-.11524.47681.47681,0,0,0,.1294-.374.45731.45731,0,0,0-.1294-.36279.582.582,0,0,0-.38916-.1128h-.82519v.96485Z" fill="#f4f1f0"/><path d="M177.26481,27.77654v.63378h-1.80957v.73438h1.66065v.58545h-1.66065V30.57h1.84766v.63379h-2.60157V27.77654Z" fill="#f4f1f0"/><path d="M178.87272,27.77654l.80127,2.35693h.00977l.7583-2.35693h1.061v3.42724h-.70556V28.77507h-.00977l-.83984,2.42871h-.58106L178.527,28.799h-.00977v2.40478h-.70556V27.77654Z" fill="#f4f1f0"/><path d="M182.13151,28.79167a1.72217,1.72217,0,0,1,.33154-.57373,1.51617,1.51617,0,0,1,.53028-.38379,1.87685,1.87685,0,0,1,1.41845,0,1.52027,1.52027,0,0,1,.52784.38379,1.72217,1.72217,0,0,1,.33154.57373,2.14627,2.14627,0,0,1,.11474.71289,2.072,2.072,0,0,1-.11474.69824,1.66749,1.66749,0,0,1-.33154.564,1.52186,1.52186,0,0,1-.52784.37695,1.90788,1.90788,0,0,1-1.41845,0,1.51789,1.51789,0,0,1-.53028-.37695,1.66749,1.66749,0,0,1-.33154-.564,2.072,2.072,0,0,1-.11475-.69824A2.14627,2.14627,0,0,1,182.13151,28.79167Zm.689,1.13281a1.13821,1.13821,0,0,0,.16064.36719.82542.82542,0,0,0,.28809.26172.99594.99594,0,0,0,.86425,0,.82542.82542,0,0,0,.28809-.26172,1.13842,1.13842,0,0,0,.16064-.36719,1.73706,1.73706,0,0,0,.0503-.41992,1.87379,1.87379,0,0,0-.0503-.437,1.16566,1.16566,0,0,0-.16064-.37646.82272.82272,0,0,0-.28809-.26416,1.00033,1.00033,0,0,0-.86425,0,.82272.82272,0,0,0-.28809.26416,1.16544,1.16544,0,0,0-.16064.37646,1.87379,1.87379,0,0,0-.0503.437A1.73706,1.73706,0,0,0,182.82048,29.92448Z" fill="#f4f1f0"/><path d="M185.631,28.41032v-.63378h2.80811v.63378h-1.02735v2.79346h-.75341V28.41032Z" fill="#f4f1f0"/><path d="M191.39616,27.77654v.63378h-1.80957v.73438h1.66064v.58545h-1.66064V30.57h1.84765v.63379h-2.60156V27.77654Z" fill="#f4f1f0"/><path d="M195.47575,28.69109a.76785.76785,0,0,0-.168-.18995.78694.78694,0,0,0-.49463-.17236.88325.88325,0,0,0-.43213.09815.82277.82277,0,0,0-.28808.26416,1.16546,1.16546,0,0,0-.16065.37646,1.87432,1.87432,0,0,0-.05029.437,1.73755,1.73755,0,0,0,.05029.41992,1.13823,1.13823,0,0,0,.16065.36719.82547.82547,0,0,0,.28808.26172.88327.88327,0,0,0,.43213.09863.69777.69777,0,0,0,.54-.21142.97856.97856,0,0,0,.23779-.55664h.7295a1.74782,1.74782,0,0,1-.14893.58056,1.39069,1.39069,0,0,1-.3169.4419,1.3481,1.3481,0,0,1-.46044.27832,1.69092,1.69092,0,0,1-.58106.0957,1.7558,1.7558,0,0,1-.708-.13672,1.51785,1.51785,0,0,1-.53027-.37695,1.66749,1.66749,0,0,1-.33154-.564,2.072,2.072,0,0,1-.11475-.69824,2.14627,2.14627,0,0,1,.11475-.71289,1.72217,1.72217,0,0,1,.33154-.57373,1.51613,1.51613,0,0,1,.53027-.38379,1.83839,1.83839,0,0,1,1.24317-.05761,1.45524,1.45524,0,0,1,.45117.23779,1.282,1.282,0,0,1,.3291.38623,1.383,1.383,0,0,1,.16309.52783h-.7295A.62478.62478,0,0,0,195.47575,28.69109Z" fill="#f4f1f0"/><path d="M196.80046,28.79167a1.722,1.722,0,0,1,.33154-.57373,1.51613,1.51613,0,0,1,.53027-.38379,1.87687,1.87687,0,0,1,1.41846,0,1.52014,1.52014,0,0,1,.52783.38379,1.722,1.722,0,0,1,.33154.57373,2.14627,2.14627,0,0,1,.11475.71289,2.072,2.072,0,0,1-.11475.69824,1.66732,1.66732,0,0,1-.33154.564,1.52172,1.52172,0,0,1-.52783.37695,1.90791,1.90791,0,0,1-1.41846,0,1.51785,1.51785,0,0,1-.53027-.37695,1.66732,1.66732,0,0,1-.33154-.564,2.072,2.072,0,0,1-.11475-.69824A2.14627,2.14627,0,0,1,196.80046,28.79167Zm.689,1.13281a1.13823,1.13823,0,0,0,.16065.36719.82547.82547,0,0,0,.28808.26172.996.996,0,0,0,.86426,0,.82547.82547,0,0,0,.28808-.26172,1.13823,1.13823,0,0,0,.16065-.36719,1.73755,1.73755,0,0,0,.05029-.41992,1.87432,1.87432,0,0,0-.05029-.437,1.16546,1.16546,0,0,0-.16065-.37646.82277.82277,0,0,0-.28808-.26416,1.00036,1.00036,0,0,0-.86426,0,.82277.82277,0,0,0-.28808.26416,1.16546,1.16546,0,0,0-.16065.37646,1.87432,1.87432,0,0,0-.05029.437A1.73755,1.73755,0,0,0,197.48942,29.92448Z" fill="#f4f1f0"/><path d="M201.31755,27.77654l1.43017,2.29931h.00977V27.77654h.70556v3.42724h-.75341l-1.42579-2.29443h-.00976v2.29443h-.70557V27.77654Z" fill="#f4f1f0"/><path d="M203.85612,28.41032v-.63378h2.80762v.63378h-1.02735v2.79346h-.75195V28.41032Z" fill="#f4f1f0"/><path d="M208.9069,27.77654a1.11218,1.11218,0,0,1,.415.07421.95735.95735,0,0,1,.31641.20411.89519.89519,0,0,1,.20214.30029.96934.96934,0,0,1,.06934.36719,1.037,1.037,0,0,1-.12695.523.79836.79836,0,0,1-.416.33593V29.591a.58466.58466,0,0,1,.23047.11767.67147.67147,0,0,1,.14941.187.88535.88535,0,0,1,.084.23779,2.14722,2.14722,0,0,1,.03613.25928q.00439.0813.00879.19189c.00391.07373.00879.14893.01758.22559a1.49341,1.49341,0,0,0,.03809.21826.50326.50326,0,0,0,.0791.17529h-.75391a1.322,1.322,0,0,1-.07617-.38867q-.01466-.22559-.04395-.43213a.67976.67976,0,0,0-.16308-.39355.55984.55984,0,0,0-.40723-.125h-.75391v1.33935h-.7539V27.77654Zm-.26953,1.55029a.567.567,0,0,0,.38867-.11524.47519.47519,0,0,0,.12988-.374.45579.45579,0,0,0-.12988-.36279.57967.57967,0,0,0-.38867-.1128h-.8252v.96485Z" fill="#f4f1f0"/><path d="M210.48991,28.79167a1.69643,1.69643,0,0,1,.33105-.57373,1.50736,1.50736,0,0,1,.53028-.38379,1.87563,1.87563,0,0,1,1.418,0,1.51769,1.51769,0,0,1,.52832.38379,1.69643,1.69643,0,0,1,.33105.57373,2.13385,2.13385,0,0,1,.11524.71289,2.06,2.06,0,0,1-.11524.69824,1.64282,1.64282,0,0,1-.33105.564,1.51929,1.51929,0,0,1-.52832.37695,1.90664,1.90664,0,0,1-1.418,0,1.509,1.509,0,0,1-.53028-.37695,1.64282,1.64282,0,0,1-.33105-.564,2.06,2.06,0,0,1-.11524-.69824A2.13385,2.13385,0,0,1,210.48991,28.79167Zm.68848,1.13281a1.10836,1.10836,0,0,0,.16113.36719.81287.81287,0,0,0,.28808.26172.99384.99384,0,0,0,.86329,0,.81287.81287,0,0,0,.28808-.26172,1.10836,1.10836,0,0,0,.16113-.36719,1.762,1.762,0,0,0,.05079-.41992,1.90055,1.90055,0,0,0-.05079-.437,1.13522,1.13522,0,0,0-.16113-.37646.81031.81031,0,0,0-.28808-.26416.99822.99822,0,0,0-.86329,0,.81031.81031,0,0,0-.28808.26416,1.13522,1.13522,0,0,0-.16113.37646,1.90055,1.90055,0,0,0-.05079.437A1.762,1.762,0,0,0,211.17839,29.92448Z" fill="#f4f1f0"/><path d="M215.01139,27.77654V30.57h1.66993v.63379h-2.42383V27.77654Z" fill="#f4f1f0"/><path d="M217.85807,27.77654V30.57H219.528v.63379h-2.42383V27.77654Z" fill="#f4f1f0"/><path d="M222.51432,27.77654v.63378h-1.80957v.73438h1.66016v.58545h-1.66016V30.57h1.84766v.63379h-2.60156V27.77654Z" fill="#f4f1f0"/><path d="M224.90983,27.77654a1.11218,1.11218,0,0,1,.415.07421.95735.95735,0,0,1,.31641.20411.89534.89534,0,0,1,.20214.30029.96934.96934,0,0,1,.06934.36719,1.037,1.037,0,0,1-.12695.523.79836.79836,0,0,1-.416.33593V29.591a.58466.58466,0,0,1,.23047.11767.67147.67147,0,0,1,.14941.187.88535.88535,0,0,1,.084.23779,2.14722,2.14722,0,0,1,.03613.25928q.00439.0813.00879.19189c.00391.07373.00879.14893.01758.22559a1.49476,1.49476,0,0,0,.03808.21826.50345.50345,0,0,0,.07911.17529h-.75391a1.322,1.322,0,0,1-.07617-.38867q-.01466-.22559-.04395-.43213a.67982.67982,0,0,0-.16308-.39355.55984.55984,0,0,0-.40723-.125h-.75391v1.33935h-.7539V27.77654Zm-.26953,1.55029a.567.567,0,0,0,.38867-.11524.47519.47519,0,0,0,.12988-.374.45579.45579,0,0,0-.12988-.36279.57967.57967,0,0,0-.38867-.1128h-.8252v.96485Z" fill="#f4f1f0"/><path d="M156.03361,42.12061v.541H154.4882v.62744h1.41846v.5H154.4882v.71778h1.57812v.541h-2.22216V42.12061Z" fill="#f4f1f0"/><path d="M156.99308,44.32617a.46068.46068,0,0,0,.1416.166.60592.60592,0,0,0,.207.09424.977.977,0,0,0,.24609.03076,1.24933,1.24933,0,0,0,.18408-.01416.64244.64244,0,0,0,.18457-.05518.39932.39932,0,0,0,.14356-.11279.28472.28472,0,0,0,.05761-.18262.25708.25708,0,0,0-.07617-.19287.61073.61073,0,0,0-.19873-.123,2.03367,2.03367,0,0,0-.27881-.08593q-.156-.03663-.31543-.082a2.70327,2.70327,0,0,1-.31982-.10058,1.10457,1.10457,0,0,1-.27881-.15332.72961.72961,0,0,1-.19922-.23584.719.719,0,0,1-.07568-.34229.76824.76824,0,0,1,.09619-.3916.873.873,0,0,1,.25244-.27685,1.0977,1.0977,0,0,1,.35254-.16407,1.495,1.495,0,0,1,.39355-.05322,1.8666,1.8666,0,0,1,.44092.05127,1.09782,1.09782,0,0,1,.375.166.83932.83932,0,0,1,.26026.293.89756.89756,0,0,1,.09619.43261H158.059a.52.52,0,0,0-.05518-.21728.36725.36725,0,0,0-.125-.13526.53177.53177,0,0,0-.17871-.06982,1.09357,1.09357,0,0,0-.21923-.02051.76793.76793,0,0,0-.15577.0166.42577.42577,0,0,0-.1416.05713.36691.36691,0,0,0-.10449.10254.27593.27593,0,0,0-.041.15576.26273.26273,0,0,0,.03321.13965.289.289,0,0,0,.1289.09863,1.6358,1.6358,0,0,0,.26661.08985q.16992.04541.44482.11474c.05469.01123.13037.03077.22754.05957a1.10336,1.10336,0,0,1,.28906.13721.87423.87423,0,0,1,.248.25244.71587.71587,0,0,1,.10449.40381.88993.88993,0,0,1-.07812.373.80959.80959,0,0,1-.23145.29736,1.11828,1.11828,0,0,1-.38135.19483,1.806,1.806,0,0,1-.52685.06933,1.85023,1.85023,0,0,1-.46924-.05908,1.18336,1.18336,0,0,1-.40186-.18652.92352.92352,0,0,1-.27685-.32422.96476.96476,0,0,1-.09815-.46729h.62305A.536.536,0,0,0,156.99308,44.32617Z" fill="#f4f1f0"/><path d="M161.03947,42.90137a.6362.6362,0,0,0-.14356-.16162.64446.64446,0,0,0-.19482-.10889.66925.66925,0,0,0-.22754-.03906.75489.75489,0,0,0-.36865.084.69622.69622,0,0,0-.24609.22559.97766.97766,0,0,0-.13721.32177,1.59925,1.59925,0,0,0-.04346.37354,1.485,1.485,0,0,0,.04346.3584.96285.96285,0,0,0,.13721.314.69875.69875,0,0,0,.24609.22315.74949.74949,0,0,0,.36865.084.59668.59668,0,0,0,.46143-.18017.83506.83506,0,0,0,.20312-.47559h.623a1.49151,1.49151,0,0,1-.12695.49609,1.18275,1.18275,0,0,1-.271.377,1.14543,1.14543,0,0,1-.39355.23779,1.4407,1.4407,0,0,1-.4961.082,1.49488,1.49488,0,0,1-.60449-.1167,1.2908,1.2908,0,0,1-.45313-.32178,1.42147,1.42147,0,0,1-.28271-.48193,1.75971,1.75971,0,0,1-.09863-.59619,1.82,1.82,0,0,1,.09863-.60889,1.45971,1.45971,0,0,1,.28271-.49023,1.30015,1.30015,0,0,1,.45313-.32813,1.57056,1.57056,0,0,1,1.062-.04882,1.23673,1.23673,0,0,1,.38525.20263,1.10228,1.10228,0,0,1,.28077.33008,1.1903,1.1903,0,0,1,.13965.45117h-.62354A.52657.52657,0,0,0,161.03947,42.90137Z" fill="#f4f1f0"/><path d="M163.65959,42.12061l1.09472,2.92724h-.66845l-.22168-.65185h-1.09424l-.23.65185h-.64746l1.10693-2.92724Zm.03662,1.79541-.36914-1.07373h-.00782l-.38134,1.07373Z" fill="#f4f1f0"/><path d="M166.32853,42.12061a1.22028,1.22028,0,0,1,.46729.07959.88221.88221,0,0,1,.314.21142.81238.81238,0,0,1,.17627.29932,1.12121,1.12121,0,0,1,0,.69482.81239.81239,0,0,1-.17627.30127.876.876,0,0,1-.314.21143,1.22047,1.22047,0,0,1-.46729.07959h-.67627v1.0498h-.644V42.12061Zm-.17627,1.37744a1.3167,1.3167,0,0,0,.21338-.0166.48477.48477,0,0,0,.18018-.06348.34343.34343,0,0,0,.125-.1333.55979.55979,0,0,0,0-.45069.3435.3435,0,0,0-.125-.1333.4934.4934,0,0,0-.18018-.06347,1.3167,1.3167,0,0,0-.21338-.0166h-.5v.87744Z" fill="#f4f1f0"/><path d="M169.93254,42.12061v.541h-1.54541v.62744h1.41845v.5h-1.41845v.71778h1.57812v.541h-2.22217V42.12061Z" fill="#f4f1f0"/><path d="M177.5772,45.02539a1.081,1.081,0,0,1-.42237.08789,1.49488,1.49488,0,0,1-.60449-.1167,1.29067,1.29067,0,0,1-.45312-.32178,1.42133,1.42133,0,0,1-.28272-.48193,1.75971,1.75971,0,0,1-.09863-.59619,1.82,1.82,0,0,1,.09863-.60889,1.45957,1.45957,0,0,1,.28272-.49023,1.3,1.3,0,0,1,.45312-.32813,1.479,1.479,0,0,1,.60449-.11865,1.43132,1.43132,0,0,1,.437.06738,1.252,1.252,0,0,1,.38134.19922,1.0742,1.0742,0,0,1,.416.7666H177.774a.615.615,0,0,0-.2212-.36914.6446.6446,0,0,0-.398-.123.75491.75491,0,0,0-.36865.084.69631.69631,0,0,0-.24609.22559.97766.97766,0,0,0-.13721.32177,1.59925,1.59925,0,0,0-.04346.37354,1.485,1.485,0,0,0,.04346.3584.96285.96285,0,0,0,.13721.314.69884.69884,0,0,0,.24609.22315.74951.74951,0,0,0,.36865.084.62792.62792,0,0,0,.69727-.63135h-.648v-.47949h1.23v1.58252H178.024l-.06543-.332A.96257.96257,0,0,1,177.5772,45.02539Z" fill="#f4f1f0"/><path d="M181.14409,42.12061v.541h-1.54541v.62744h1.41846v.5h-1.41846v.71778h1.57813v.541h-2.22217V42.12061Z" fill="#f4f1f0"/><path d="M182.251,42.12061l1.22216,1.96386h.00782V42.12061h.603v2.92724h-.644l-1.21728-1.96h-.0083v1.96h-.603V42.12061Z" fill="#f4f1f0"/><path d="M185.29351,42.12061v2.38623h1.42675v.541h-2.0708V42.12061Z" fill="#f4f1f0"/><path d="M187.0523,42.98779a1.45955,1.45955,0,0,1,.28271-.49023,1.30015,1.30015,0,0,1,.45313-.32813,1.6054,1.6054,0,0,1,1.21142,0,1.306,1.306,0,0,1,.45117.32813,1.45957,1.45957,0,0,1,.28272.49023,1.83245,1.83245,0,0,1,.09863.60889,1.77182,1.77182,0,0,1-.09863.59619,1.42133,1.42133,0,0,1-.28272.48193,1.29639,1.29639,0,0,1-.45117.32178,1.63026,1.63026,0,0,1-1.21142,0,1.2908,1.2908,0,0,1-.45313-.32178,1.42131,1.42131,0,0,1-.28271-.48193,1.75972,1.75972,0,0,1-.09864-.59619A1.82,1.82,0,0,1,187.0523,42.98779Zm.58837.96729a.96285.96285,0,0,0,.13721.314.69878.69878,0,0,0,.2461.22315.8522.8522,0,0,0,.73779,0,.70306.70306,0,0,0,.24609-.22315.97334.97334,0,0,0,.13721-.314,1.4847,1.4847,0,0,0,.043-.3584,1.59912,1.59912,0,0,0-.043-.37354.98806.98806,0,0,0-.13721-.32177.70047.70047,0,0,0-.24609-.22559.8522.8522,0,0,0-.73779,0,.69625.69625,0,0,0-.2461.22559.97766.97766,0,0,0-.13721.32177,1.59979,1.59979,0,0,0-.04345.37354A1.48548,1.48548,0,0,0,187.64067,43.95508Z" fill="#f4f1f0"/><path d="M192.14849,42.90137a.6362.6362,0,0,0-.14356-.16162.64458.64458,0,0,0-.19482-.10889.66925.66925,0,0,0-.22754-.03906.75489.75489,0,0,0-.36865.084.69625.69625,0,0,0-.2461.22559.97764.97764,0,0,0-.1372.32177,1.59925,1.59925,0,0,0-.04346.37354,1.485,1.485,0,0,0,.04346.3584.96283.96283,0,0,0,.1372.314.69878.69878,0,0,0,.2461.22315.74949.74949,0,0,0,.36865.084.59664.59664,0,0,0,.46142-.18017.83506.83506,0,0,0,.20313-.47559h.62305a1.49151,1.49151,0,0,1-.127.49609,1.18272,1.18272,0,0,1-.271.377,1.14547,1.14547,0,0,1-.39356.23779,1.44064,1.44064,0,0,1-.49609.082,1.49488,1.49488,0,0,1-.60449-.1167,1.2908,1.2908,0,0,1-.45313-.32178,1.42147,1.42147,0,0,1-.28271-.48193,1.75972,1.75972,0,0,1-.09864-.59619,1.82,1.82,0,0,1,.09864-.60889,1.45971,1.45971,0,0,1,.28271-.49023,1.30015,1.30015,0,0,1,.45313-.32813,1.57056,1.57056,0,0,1,1.062-.04882,1.23673,1.23673,0,0,1,.38525.20263,1.10239,1.10239,0,0,1,.28076.33008,1.19013,1.19013,0,0,1,.13965.45117h-.62353A.52673.52673,0,0,0,192.14849,42.90137Z" fill="#f4f1f0"/><path d="M193.95269,42.12061V43.334l1.14355-1.21337H195.9l-1.144,1.15625,1.25488,1.771h-.80762l-.88183-1.31592-.36865.373v.94287h-.644V42.12061Z" fill="#f4f1f0"/><path d="M205.33317,43.241a.63635.63635,0,0,0-.14355-.16162.64706.64706,0,0,0-.19532-.10889.66715.66715,0,0,0-.22754-.03906.75161.75161,0,0,0-.36816.084.69219.69219,0,0,0-.24609.22559.96824.96824,0,0,0-.1377.32177,1.6257,1.6257,0,0,0-.043.37354,1.50953,1.50953,0,0,0,.043.3584.95347.95347,0,0,0,.1377.314.69467.69467,0,0,0,.24609.22315.74625.74625,0,0,0,.36816.084.59777.59777,0,0,0,.46192-.18017.84162.84162,0,0,0,.20312-.47559h.623a1.49151,1.49151,0,0,1-.12695.49609,1.18388,1.18388,0,0,1-.27149.377,1.14085,1.14085,0,0,1-.39355.23779,1.44066,1.44066,0,0,1-.4961.082,1.49653,1.49653,0,0,1-.60449-.1167,1.29527,1.29527,0,0,1-.45312-.32178,1.42026,1.42026,0,0,1-.28223-.48193,1.75971,1.75971,0,0,1-.09863-.59619,1.82,1.82,0,0,1,.09863-.60889,1.4585,1.4585,0,0,1,.28223-.49023,1.30455,1.30455,0,0,1,.45312-.32813,1.572,1.572,0,0,1,1.0625-.04882,1.23948,1.23948,0,0,1,.38477.20263,1.111,1.111,0,0,1,.28125.33008,1.199,1.199,0,0,1,.13965.45117h-.624A.52584.52584,0,0,0,205.33317,43.241Z" fill="#f4f1f0"/><path d="M207.756,42.46021a1.51414,1.51414,0,0,1,.52735.08984,1.15014,1.15014,0,0,1,.42187.271,1.23685,1.23685,0,0,1,.27832.45069,1.81739,1.81739,0,0,1,.10059.63574,2.02984,2.02984,0,0,1-.082.59033,1.29236,1.29236,0,0,1-.248.46729,1.15225,1.15225,0,0,1-.41406.30957,1.39708,1.39708,0,0,1-.584.11279h-1.26269V42.46021Zm-.04492,2.38623a.82372.82372,0,0,0,.27051-.04541.58671.58671,0,0,0,.2334-.14942.75238.75238,0,0,0,.16406-.27295,1.19667,1.19667,0,0,0,.06152-.40967,1.72823,1.72823,0,0,0-.043-.3999.7989.7989,0,0,0-.1416-.30566.62772.62772,0,0,0-.25976-.19434,1.036,1.036,0,0,0-.40039-.06787h-.459v1.84522Z" fill="#f4f1f0"/><path d="M210.81462,42.39038l-1.14356,3.0625h-.46387l1.13965-3.0625Z" fill="#f4f1f0"/><path d="M210.82243,43.00122v-.541h2.39844v.541h-.877v2.38623h-.64355V43.00122Z" fill="#f4f1f0"/><path d="M214.19255,45.38745l-.94727-2.92724h.66016l.65234,2.0581h.00781l.66016-2.0581h.66406l-.97168,2.92724Z" fill="#f4f1f0"/><path d="M223.09709,44.4126a.7992.7992,0,0,1-.13086.32178.78763.78763,0,0,1-.2959.25048,1.133,1.133,0,0,1-.52051.1001,1.23855,1.23855,0,0,1-.35644-.05127.8883.8883,0,0,1-.30762-.15967.79723.79723,0,0,1-.21778-.27881.94294.94294,0,0,1-.08105-.4121v-.2544h.582v.13135a1.11966,1.11966,0,0,0,.01563.19678.43529.43529,0,0,0,.05761.1538.29076.29076,0,0,0,.11328.10059.409.409,0,0,0,.18653.03662.35842.35842,0,0,0,.19629-.04492.25736.25736,0,0,0,.10058-.1167.47886.47886,0,0,0,.03711-.15576c.00391-.05615.00586-.11035.00586-.16211V42.09229h.64356v2.00488A1.88253,1.88253,0,0,1,223.09709,44.4126Z" fill="#f4f1f0"/><path d="M223.66349,42.95947a1.4585,1.4585,0,0,1,.28223-.49023,1.30464,1.30464,0,0,1,.45312-.32813,1.60667,1.60667,0,0,1,1.21192,0,1.30618,1.30618,0,0,1,.45117.32813,1.4585,1.4585,0,0,1,.28223.49023,1.83245,1.83245,0,0,1,.09863.60889,1.77182,1.77182,0,0,1-.09863.59619,1.42026,1.42026,0,0,1-.28223.48193,1.29657,1.29657,0,0,1-.45117.32178,1.63155,1.63155,0,0,1-1.21192,0,1.29523,1.29523,0,0,1-.45312-.32178,1.42026,1.42026,0,0,1-.28223-.48193,1.748,1.748,0,0,1-.09863-.59619A1.808,1.808,0,0,1,223.66349,42.95947Zm.58789.96729a.95347.95347,0,0,0,.1377.314.69467.69467,0,0,0,.24609.22315.85115.85115,0,0,0,.73731,0,.69467.69467,0,0,0,.24609-.22315.97423.97423,0,0,0,.1377-.314,1.50953,1.50953,0,0,0,.043-.3584,1.62569,1.62569,0,0,0-.043-.37354.98884.98884,0,0,0-.1377-.32177.69219.69219,0,0,0-.24609-.22559.85115.85115,0,0,0-.73731,0,.69219.69219,0,0,0-.24609.22559.96824.96824,0,0,0-.1377.32177,1.6257,1.6257,0,0,0-.043.37354A1.50953,1.50953,0,0,0,224.25138,43.92676Z" fill="#f4f1f0"/><path d="M226.56584,42.09229h.72168l.68457,1.15625.68066-1.15625h.7168L228.28361,43.896v1.12353h-.64355V43.87988Z" fill="#f4f1f0"/><path d="M230.89982,42.02246l-1.14453,3.0625h-.46289l1.13965-3.0625Z" fill="#f4f1f0"/><path d="M232.04338,42.09229l.68457,2.01318h.00781l.64844-2.01318h.90625v2.92724h-.60352V42.94482h-.00781l-.71778,2.07471h-.49609l-.7168-2.0542h-.00879v2.0542h-.60253V42.09229Z" fill="#f4f1f0"/><path d="M234.82756,42.95947a1.45831,1.45831,0,0,1,.28222-.49023,1.30468,1.30468,0,0,1,.45313-.32813,1.60665,1.60665,0,0,1,1.21191,0,1.306,1.306,0,0,1,.45117.32813,1.4585,1.4585,0,0,1,.28223.49023,1.83245,1.83245,0,0,1,.09863.60889,1.77182,1.77182,0,0,1-.09863.59619,1.42026,1.42026,0,0,1-.28223.48193,1.29639,1.29639,0,0,1-.45117.32178,1.63153,1.63153,0,0,1-1.21191,0,1.29527,1.29527,0,0,1-.45313-.32178,1.42007,1.42007,0,0,1-.28222-.48193,1.74778,1.74778,0,0,1-.09864-.59619A1.80773,1.80773,0,0,1,234.82756,42.95947Zm.58789.96729a.95346.95346,0,0,0,.13769.314.69467.69467,0,0,0,.24609.22315.85115.85115,0,0,0,.73731,0,.69467.69467,0,0,0,.24609-.22315.97423.97423,0,0,0,.1377-.314,1.50953,1.50953,0,0,0,.043-.3584,1.6257,1.6257,0,0,0-.043-.37354.98884.98884,0,0,0-.1377-.32177.69219.69219,0,0,0-.24609-.22559.85115.85115,0,0,0-.73731,0,.69219.69219,0,0,0-.24609.22559.96823.96823,0,0,0-.13769.32177,1.6257,1.6257,0,0,0-.043.37354A1.50953,1.50953,0,0,0,235.41545,43.92676Z" fill="#f4f1f0"/><path d="M240.19865,44.7959a1.61238,1.61238,0,0,1-1.83887.00244,1.11872,1.11872,0,0,1-.32617-.88574V42.09229h.64355V43.9126a1.32157,1.32157,0,0,0,.02051.2334.45377.45377,0,0,0,.26856.34668.73936.73936,0,0,0,.31347.05517.60222.60222,0,0,0,.47559-.15381.728.728,0,0,0,.13184-.48144V42.09229h.64355V43.9126A1.11052,1.11052,0,0,1,240.19865,44.7959Z" fill="#f4f1f0"/><path d="M241.5756,44.29785a.47031.47031,0,0,0,.1416.166.61016.61016,0,0,0,.207.09424.97711.97711,0,0,0,.2461.03076,1.25074,1.25074,0,0,0,.18457-.01416.65184.65184,0,0,0,.18457-.05518.3992.3992,0,0,0,.14355-.11279.28467.28467,0,0,0,.05762-.18262.25708.25708,0,0,0-.07617-.19287.61862.61862,0,0,0-.19922-.123,2.0472,2.0472,0,0,0-.27832-.08593c-.10449-.02442-.209-.05176-.31543-.082a2.711,2.711,0,0,1-.32031-.10058,1.10989,1.10989,0,0,1-.27832-.15332.72961.72961,0,0,1-.19922-.23584.71329.71329,0,0,1-.07617-.34229.76353.76353,0,0,1,.09668-.3916.8771.8771,0,0,1,.252-.27685,1.10258,1.10258,0,0,1,.35254-.16407,1.50041,1.50041,0,0,1,.39355-.05322,1.8708,1.8708,0,0,1,.44141.05127,1.098,1.098,0,0,1,.375.166.83331.83331,0,0,1,.25977.293.89763.89763,0,0,1,.09668.43262H242.642a.52732.52732,0,0,0-.05567-.21728.36331.36331,0,0,0-.125-.13526.52774.52774,0,0,0-.17871-.06982,1.08866,1.08866,0,0,0-.21875-.02051.77265.77265,0,0,0-.15625.0166.42979.42979,0,0,0-.1416.05713.36678.36678,0,0,0-.10449.10254.27593.27593,0,0,0-.041.15576.26725.26725,0,0,0,.03321.13965.28891.28891,0,0,0,.1289.09863,1.66938,1.66938,0,0,0,.2666.08985q.16994.04541.44532.11474c.05468.01123.12988.03077.22754.05957a1.11072,1.11072,0,0,1,.28906.13721.88045.88045,0,0,1,.24805.25244.71982.71982,0,0,1,.10449.40381.89748.89748,0,0,1-.07813.373.80954.80954,0,0,1-.23144.29736,1.11631,1.11631,0,0,1-.38184.19483,1.80258,1.80258,0,0,1-.52637.06933,1.854,1.854,0,0,1-.46972-.05908,1.18523,1.18523,0,0,1-.40137-.18652.92484.92484,0,0,1-.27734-.32422.96474.96474,0,0,1-.09766-.46729h.62305A.54219.54219,0,0,0,241.5756,44.29785Z" fill="#f4f1f0"/><path d="M245.934,42.09229v.541h-1.5459v.62744h1.41895v.5H244.3881v.71778h1.57813v.541h-2.22168V42.09229Z" fill="#f4f1f0"/><path d="M258.23129,39.376a1.22291,1.22291,0,0,1,.46778.07959.8802.8802,0,0,1,.31347.21142.8069.8069,0,0,1,.17676.29932,1.13077,1.13077,0,0,1,0,.69482.80694.80694,0,0,1-.17676.30127.87392.87392,0,0,1-.31347.21143,1.2231,1.2231,0,0,1-.46778.07959h-.67578v1.0498H256.911V39.376Zm-.17578,1.37744a1.315,1.315,0,0,0,.21289-.0166.48723.48723,0,0,0,.18067-.06348.34343.34343,0,0,0,.125-.1333.56513.56513,0,0,0,0-.45068.34346.34346,0,0,0-.125-.13331.49591.49591,0,0,0-.18067-.06347,1.315,1.315,0,0,0-.21289-.0166h-.5v.87744Z" fill="#f4f1f0"/><path d="M259.618,40.24316a1.4585,1.4585,0,0,1,.28223-.49023,1.30455,1.30455,0,0,1,.45312-.32813,1.60667,1.60667,0,0,1,1.21192,0,1.30618,1.30618,0,0,1,.45117.32813,1.4585,1.4585,0,0,1,.28223.49023,1.83275,1.83275,0,0,1,.09863.60889,1.77207,1.77207,0,0,1-.09863.59619,1.4204,1.4204,0,0,1-.28223.48194,1.29668,1.29668,0,0,1-.45117.32177,1.63155,1.63155,0,0,1-1.21192,0,1.29524,1.29524,0,0,1-.45312-.32177,1.4204,1.4204,0,0,1-.28223-.48194,1.74777,1.74777,0,0,1-.09863-.59619A1.80777,1.80777,0,0,1,259.618,40.24316Zm.58789.96729a.95347.95347,0,0,0,.1377.314.69467.69467,0,0,0,.24609.22315.85115.85115,0,0,0,.73731,0,.69467.69467,0,0,0,.24609-.22315.974.974,0,0,0,.13769-.314,1.50953,1.50953,0,0,0,.043-.3584,1.62555,1.62555,0,0,0-.043-.37353.98857.98857,0,0,0-.13769-.32178.69237.69237,0,0,0-.24609-.22559.85115.85115,0,0,0-.73731,0,.69237.69237,0,0,0-.24609.22559.96821.96821,0,0,0-.1377.32178,1.62555,1.62555,0,0,0-.043.37353A1.50953,1.50953,0,0,0,260.2059,41.21045Z" fill="#f4f1f0"/><path d="M264.98422,42.30322l-.49609-1.99267h-.00879l-.48731,1.99267h-.65234l-.77441-2.92724h.64355l.46289,1.99267h.00879l.50781-1.99267h.60352l.5,2.01709h.00781l.47949-2.01709h.63184l-.78711,2.92724Z" fill="#f4f1f0"/><path d="M268.89535,39.376v.541h-1.54492v.62744h1.418v.5h-1.418v.71778h1.57813v.541H266.7059V39.376Z" fill="#f4f1f0"/><path d="M270.94125,39.376a.93433.93433,0,0,1,.3545.06347.82127.82127,0,0,1,.27148.17432.76221.76221,0,0,1,.17187.25586.83357.83357,0,0,1,.05958.314.88028.88028,0,0,1-.1084.44678.68588.68588,0,0,1-.35547.28711v.0083a.495.495,0,0,1,.19726.1001.57173.57173,0,0,1,.127.16016.74773.74773,0,0,1,.07226.20312,1.90933,1.90933,0,0,1,.03028.22119c.00293.04639.00586.10108.00781.16406.00293.063.00781.127.01465.19239a1.22111,1.22111,0,0,0,.0332.187.42038.42038,0,0,0,.06738.14941h-.64355a1.10268,1.10268,0,0,1-.06543-.332c-.00879-.12842-.02051-.25146-.03711-.36914a.58294.58294,0,0,0-.13965-.33594.479.479,0,0,0-.34863-.10693h-.64356v1.144h-.64355V39.376Zm-.22949,1.32422a.48435.48435,0,0,0,.332-.09864.40638.40638,0,0,0,.11133-.31982.38929.38929,0,0,0-.11133-.30957.49446.49446,0,0,0-.332-.09619h-.70508v.82422Z" fill="#f4f1f0"/><path d="M182.66753,62.7085a.9378.9378,0,0,1,.35449.06347.819.819,0,0,1,.271.17432.75514.75514,0,0,1,.17187.25586.82432.82432,0,0,1,.05957.314.88028.88028,0,0,1-.10839.44678.68268.68268,0,0,1-.355.28711v.0083a.49631.49631,0,0,1,.19678.1001.56459.56459,0,0,1,.12744.16015.74726.74726,0,0,1,.07178.20313,1.911,1.911,0,0,1,.03076.22119c.00244.04639.00537.10108.00782.16406.00292.063.00781.127.01464.19239a1.28576,1.28576,0,0,0,.03272.187.43822.43822,0,0,0,.06738.14941h-.64355a1.13337,1.13337,0,0,1-.06543-.332q-.01245-.19263-.03711-.36914a.5829.5829,0,0,0-.13916-.33594.479.479,0,0,0-.34864-.10693H181.733v1.144h-.644V62.7085Zm-.22949,1.32421a.4852.4852,0,0,0,.332-.09863.408.408,0,0,0,.11084-.31982.39081.39081,0,0,0-.11084-.30957.49533.49533,0,0,0-.332-.09619H181.733v.82421Z" fill="#f4f1f0"/><path d="M186.23833,62.7085v.541h-1.54541V63.877h1.41846v.5h-1.41846v.71778h1.57813v.541h-2.22217V62.7085Z" fill="#f4f1f0"/><path d="M188.85405,65.63574l-.49609-1.99267h-.0083l-.48779,1.99267H187.21l-.7749-2.92724h.64355l.46338,1.99267h.0083l.5083-1.99267h.603l.5,2.01709h.0083l.47949-2.01709h.63135l-.78711,2.92724Z" fill="#f4f1f0"/><path d="M201.672,62.71069a1.22042,1.22042,0,0,1,.46728.07959.88237.88237,0,0,1,.314.21143.81252.81252,0,0,1,.17627.29932,1.12141,1.12141,0,0,1,0,.69482.81253.81253,0,0,1-.17627.30127.876.876,0,0,1-.314.21142,1.22023,1.22023,0,0,1-.46728.07959h-.67627v1.04981h-.644V62.71069Zm-.17627,1.37744a1.3167,1.3167,0,0,0,.21338-.0166.48465.48465,0,0,0,.18017-.06347.34343.34343,0,0,0,.125-.1333.55968.55968,0,0,0,0-.45069.34343.34343,0,0,0-.125-.1333.49347.49347,0,0,0-.18017-.06348,1.3167,1.3167,0,0,0-.21338-.0166h-.5v.87744Z" fill="#f4f1f0"/><path d="M203.73055,62.71069v2.38623h1.42676v.541h-2.0708V62.71069Z" fill="#f4f1f0"/><path d="M206.97762,62.71069l1.09473,2.92725h-.668l-.22168-.65186H206.088l-.22949.65186H205.211l1.10645-2.92725Zm.03711,1.79541-.36914-1.07373h-.00781l-.38184,1.07373Z" fill="#f4f1f0"/><path d="M207.70711,62.71069h.72168l.68457,1.15625.68067-1.15625h.71777l-1.08691,1.80371v1.12354h-.64356V64.49829Z" fill="#f4f1f0"/><path d="M212.0411,62.64087l-1.14356,3.0625h-.46386l1.13965-3.0625Z" fill="#f4f1f0"/><path d="M213.59872,62.71069a1.22308,1.22308,0,0,1,.46777.07959.88026.88026,0,0,1,.31348.21143.807.807,0,0,1,.17675.29932,1.13077,1.13077,0,0,1,0,.69482.80705.80705,0,0,1-.17675.30127.87394.87394,0,0,1-.31348.21142,1.22289,1.22289,0,0,1-.46777.07959h-.67579v1.04981h-.64453V62.71069Zm-.17579,1.37744a1.315,1.315,0,0,0,.2129-.0166.48724.48724,0,0,0,.18066-.06347.34343.34343,0,0,0,.125-.1333.56515.56515,0,0,0,0-.45069.34343.34343,0,0,0-.125-.1333.49612.49612,0,0,0-.18066-.06348,1.315,1.315,0,0,0-.2129-.0166h-.5v.87744Z" fill="#f4f1f0"/><path d="M216.17,62.71069l1.09472,2.92725h-.66894l-.22168-.65186h-1.09375l-.23047.65186h-.64746l1.10742-2.92725Zm.03613,1.79541-.36914-1.07373h-.00782l-.38085,1.07373Z" fill="#f4f1f0"/><path d="M219.671,65.41431a1.61237,1.61237,0,0,1-1.83887.00244,1.12205,1.12205,0,0,1-.32617-.88574V62.71069h.64356V64.531a1.32043,1.32043,0,0,0,.02051.23339.45927.45927,0,0,0,.26855.34668.7412.7412,0,0,0,.31445.05518.60362.60362,0,0,0,.47559-.15381.7338.7338,0,0,0,.13086-.48144V62.71069h.64355V64.531A1.10728,1.10728,0,0,1,219.671,65.41431Z" fill="#f4f1f0"/><path d="M221.04891,64.91626a.45144.45144,0,0,0,.1416.166.60151.60151,0,0,0,.207.09423.97666.97666,0,0,0,.2461.03077,1.248,1.248,0,0,0,.18359-.01416.6336.6336,0,0,0,.18457-.05518.39932.39932,0,0,0,.14356-.11279.28474.28474,0,0,0,.05761-.18262.25706.25706,0,0,0-.07617-.19287.60281.60281,0,0,0-.19824-.123,2.02179,2.02179,0,0,0-.2793-.08594c-.10351-.02441-.209-.05175-.31543-.082a2.69559,2.69559,0,0,1-.31933-.10058,1.09953,1.09953,0,0,1-.2793-.15332.68609.68609,0,0,1-.27441-.57813.773.773,0,0,1,.0957-.3916.86889.86889,0,0,1,.25293-.27686,1.09274,1.09274,0,0,1,.35254-.16406,1.4896,1.4896,0,0,1,.39355-.05322,1.86247,1.86247,0,0,1,.44043.05127,1.09781,1.09781,0,0,1,.375.166.84551.84551,0,0,1,.26074.293.8975.8975,0,0,1,.09571.43262h-.62305a.51285.51285,0,0,0-.05469-.21728.37138.37138,0,0,0-.125-.13526.53587.53587,0,0,0-.17871-.06982,1.09866,1.09866,0,0,0-.21972-.02051.7632.7632,0,0,0-.15528.0166.42111.42111,0,0,0-.1416.05713.36678.36678,0,0,0-.10449.10254.27591.27591,0,0,0-.041.15576.25831.25831,0,0,0,.03321.13965.28912.28912,0,0,0,.1289.09863,1.60349,1.60349,0,0,0,.2666.08985c.11329.03027.26172.06835.44434.11474.05469.01123.13086.03076.22754.05957a1.09609,1.09609,0,0,1,.28906.13721.8681.8681,0,0,1,.24805.25244.712.712,0,0,1,.10449.40381.88249.88249,0,0,1-.07812.37305.80967.80967,0,0,1-.23145.29736,1.12009,1.12009,0,0,1-.38086.19482,1.80908,1.80908,0,0,1-.52734.06934,1.84636,1.84636,0,0,1-.46875-.05908,1.18134,1.18134,0,0,1-.40235-.18653.922.922,0,0,1-.27636-.32422.96472.96472,0,0,1-.09864-.46728h.62305A.53.53,0,0,0,221.04891,64.91626Z" fill="#f4f1f0"/><path d="M225.40731,62.71069v.541h-1.5459v.62744h1.41895v.5h-1.41895v.71777h1.57813v.541h-2.22168V62.71069Z" fill="#f4f1f0"/><path d="M240.05544,62.74341v.541h-1.41407v.67676H239.867v.5h-1.22559v1.20947h-.64453V62.74341Z" fill="#f4f1f0"/><path d="M242.48708,62.74341v.541h-1.415v.67676h1.22558v.5H241.072v1.20947h-.64356V62.74341Z" fill="#f4f1f0"/><path d="M263.70329,65.70875,262.756,62.7815h.66016l.65137,2.05811h.00878l.66016-2.05811h.66406l-.97168,2.92725Z" fill="#f4f1f0"/><path d="M265.62223,63.64869a1.4585,1.4585,0,0,1,.28223-.49023,1.30464,1.30464,0,0,1,.45312-.32813,1.60667,1.60667,0,0,1,1.21192,0,1.30618,1.30618,0,0,1,.45117.32813,1.4585,1.4585,0,0,1,.28223.49023,1.83245,1.83245,0,0,1,.09863.60889,1.77182,1.77182,0,0,1-.09863.59619,1.42026,1.42026,0,0,1-.28223.48193,1.2967,1.2967,0,0,1-.45117.32178,1.63155,1.63155,0,0,1-1.21192,0,1.29536,1.29536,0,0,1-.45312-.32178,1.42026,1.42026,0,0,1-.28223-.48193,1.748,1.748,0,0,1-.09863-.59619A1.808,1.808,0,0,1,265.62223,63.64869Zm.58789.96729a.95347.95347,0,0,0,.1377.314.69467.69467,0,0,0,.24609.22315.85115.85115,0,0,0,.73731,0,.69467.69467,0,0,0,.24609-.22315.97423.97423,0,0,0,.1377-.314,1.50953,1.50953,0,0,0,.043-.3584,1.6257,1.6257,0,0,0-.043-.37354.98874.98874,0,0,0-.1377-.32177.69219.69219,0,0,0-.24609-.22559.85115.85115,0,0,0-.73731,0,.69219.69219,0,0,0-.24609.22559.96816.96816,0,0,0-.1377.32177,1.6257,1.6257,0,0,0-.043.37354A1.50953,1.50953,0,0,0,266.21012,64.616Z" fill="#f4f1f0"/><path d="M269.48454,62.7815v2.38624h1.42676v.541H268.84V62.7815Z" fill="#f4f1f0"/><path d="M208.33464,84.94434a.46045.46045,0,0,0,.1416.166.60578.60578,0,0,0,.207.09424.97652.97652,0,0,0,.24609.03076,1.248,1.248,0,0,0,.18408-.01416.64234.64234,0,0,0,.18457-.05517.39945.39945,0,0,0,.14356-.1128.2847.2847,0,0,0,.05762-.18261.25705.25705,0,0,0-.07618-.19288.61061.61061,0,0,0-.19873-.123,2.03251,2.03251,0,0,0-.2788-.08594q-.156-.03662-.31543-.082a2.70346,2.70346,0,0,1-.31983-.10059,1.10474,1.10474,0,0,1-.27881-.15332.72973.72973,0,0,1-.19922-.23584.719.719,0,0,1-.07568-.34228.76834.76834,0,0,1,.09619-.3916.873.873,0,0,1,.25244-.27686,1.09768,1.09768,0,0,1,.35254-.16406,1.49465,1.49465,0,0,1,.39356-.05322,1.8671,1.8671,0,0,1,.44091.05126,1.09782,1.09782,0,0,1,.375.166.83941.83941,0,0,1,.26026.293.89758.89758,0,0,1,.09619.43262h-.623a.52.52,0,0,0-.05517-.21729.36723.36723,0,0,0-.125-.13525.532.532,0,0,0-.17871-.06983,1.09377,1.09377,0,0,0-.21924-.0205.767.767,0,0,0-.15576.0166.42526.42526,0,0,0-.1416.05713.36691.36691,0,0,0-.1045.10253.276.276,0,0,0-.041.15577.26278.26278,0,0,0,.0332.13965.28917.28917,0,0,0,.12891.09863,1.63542,1.63542,0,0,0,.2666.08984q.16992.04542.44482.11475c.05469.01123.13037.03076.22754.05957a1.10336,1.10336,0,0,1,.28906.13721.87385.87385,0,0,1,.24805.25244.71577.71577,0,0,1,.10449.40381.89.89,0,0,1-.07812.373.80962.80962,0,0,1-.23145.29737,1.11848,1.11848,0,0,1-.38134.19482,1.80573,1.80573,0,0,1-.52686.06934,1.85029,1.85029,0,0,1-.46924-.05909,1.18339,1.18339,0,0,1-.40185-.18652.92327.92327,0,0,1-.27686-.32422.96474.96474,0,0,1-.09814-.46728h.623A.53587.53587,0,0,0,208.33464,84.94434Z" fill="#f4f1f0"/><path d="M210.2736,83.27979v-.541H212.672v.541h-.87744V85.666H211.151V83.27979Z" fill="#f4f1f0"/><path d="M212.98014,83.606a1.45961,1.45961,0,0,1,.28272-.49024,1.3,1.3,0,0,1,.45312-.32812,1.60542,1.60542,0,0,1,1.21143,0,1.30616,1.30616,0,0,1,.45117.32812,1.45961,1.45961,0,0,1,.28272.49024,1.83239,1.83239,0,0,1,.09863.60888,1.77192,1.77192,0,0,1-.09863.5962,1.42143,1.42143,0,0,1-.28272.48193,1.2967,1.2967,0,0,1-.45117.32178,1.63028,1.63028,0,0,1-1.21143,0,1.2908,1.2908,0,0,1-.45312-.32178,1.42143,1.42143,0,0,1-.28272-.48193,1.76006,1.76006,0,0,1-.09863-.5962A1.82019,1.82019,0,0,1,212.98014,83.606Zm.58838.96728a.96291.96291,0,0,0,.13721.314.69881.69881,0,0,0,.24609.22314.85213.85213,0,0,0,.7378,0,.703.703,0,0,0,.24609-.22314.9734.9734,0,0,0,.13721-.314,1.4847,1.4847,0,0,0,.043-.3584,1.599,1.599,0,0,0-.043-.37353.988.988,0,0,0-.13721-.32178.70044.70044,0,0,0-.24609-.22558.85213.85213,0,0,0-.7378,0,.69628.69628,0,0,0-.24609.22558.97762.97762,0,0,0-.13721.32178,1.59917,1.59917,0,0,0-.04345.37353A1.485,1.485,0,0,0,213.56852,84.57324Z" fill="#f4f1f0"/><path d="M217.51872,82.73877a1.22045,1.22045,0,0,1,.46728.07959.88224.88224,0,0,1,.314.21143.81256.81256,0,0,1,.17627.29931,1.12144,1.12144,0,0,1,0,.69483.81261.81261,0,0,1-.17627.30127.876.876,0,0,1-.314.21142,1.22045,1.22045,0,0,1-.46728.07959h-.67627V85.666h-.64405V82.73877Zm-.17627,1.37744a1.3167,1.3167,0,0,0,.21338-.0166.48454.48454,0,0,0,.18017-.06348.34336.34336,0,0,0,.125-.1333.55966.55966,0,0,0,0-.45068.34336.34336,0,0,0-.125-.1333.49335.49335,0,0,0-.18017-.06348,1.3167,1.3167,0,0,0-.21338-.0166h-.5v.87744Z" fill="#f4f1f0"/><path d="M157.22157,82.8042v.541h-1.54541v.62745h1.41846v.5h-1.41846v.71777h1.57813v.541h-2.22217V82.8042Z" fill="#f4f1f0"/><path d="M158.3285,82.8042l1.22217,1.96387h.00781V82.8042h.603v2.92725h-.644l-1.21729-1.96h-.0083v1.96h-.603V82.8042Z" fill="#f4f1f0"/><path d="M160.49745,83.34521v-.541h2.39844v.541h-.87744v2.38624h-.64356V83.34521Z" fill="#f4f1f0"/><path d="M165.42128,82.8042v.541h-1.54541v.62745h1.41845v.5h-1.41845v.71777H165.454v.541h-2.22217V82.8042Z" fill="#f4f1f0"/><path d="M167.46766,82.8042a.93785.93785,0,0,1,.3545.06348.81884.81884,0,0,1,.271.17431.755.755,0,0,1,.17188.25586.82433.82433,0,0,1,.05957.314.88024.88024,0,0,1-.1084.44677.68265.68265,0,0,1-.355.28711v.0083a.49644.49644,0,0,1,.19678.1001.56484.56484,0,0,1,.12744.16016.74706.74706,0,0,1,.07177.20312,1.911,1.911,0,0,1,.03077.22119c.00244.04639.00537.10108.00781.16407.00293.063.00781.12695.01465.19238a1.28553,1.28553,0,0,0,.03271.187.43809.43809,0,0,0,.06739.14942H167.767a1.13384,1.13384,0,0,1-.06543-.332q-.01245-.19262-.03711-.36914a.5828.5828,0,0,0-.13916-.33593.479.479,0,0,0-.34863-.10694h-.64356v1.144h-.644V82.8042Zm-.22949,1.32422a.48525.48525,0,0,0,.332-.09863A.408.408,0,0,0,167.681,83.71a.39081.39081,0,0,0-.11084-.30957.49539.49539,0,0,0-.332-.09619h-.70508v.82422Z" fill="#f4f1f0"/><path d="M90.382,45.11328V43.252h-.72168v-.439a1.34991,1.34991,0,0,0,.29346-.02246.76359.76359,0,0,0,.2539-.09424.626.626,0,0,0,.19092-.17822.63878.63878,0,0,0,.10254-.27491h.46338v2.87012Z" fill="#f4f1f0"/><path d="M113.13666,42.91772a1.06838,1.06838,0,0,1,.19678-.36914.89941.89941,0,0,1,.33008-.24609,1.12231,1.12231,0,0,1,.457-.08789,1.14482,1.14482,0,0,1,.37549.06152.9674.9674,0,0,1,.31347.17627.833.833,0,0,1,.21533.28272.86939.86939,0,0,1,.08008.37744.91158.91158,0,0,1-.06982.373.978.978,0,0,1-.18457.27636,1.56378,1.56378,0,0,1-.26026.21973q-.14574.09815-.293.19482-.148.096-.28711.207a1.27491,1.27491,0,0,0-.2461.25831H115.121v.5h-2.10743a1.19706,1.19706,0,0,1,.07178-.43457,1.15746,1.15746,0,0,1,.19483-.33008,1.69532,1.69532,0,0,1,.28906-.26856q.16626-.123.35058-.25.09448-.06591.20069-.1333a1.30319,1.30319,0,0,0,.19482-.1499.78851.78851,0,0,0,.14795-.18408.45877.45877,0,0,0,.05908-.23389.4087.4087,0,0,0-.43017-.44287.37611.37611,0,0,0-.21533.05957.43962.43962,0,0,0-.14161.15576.71939.71939,0,0,0-.07568.21338,1.20641,1.20641,0,0,0-.02246.23145h-.55762A1.37263,1.37263,0,0,1,113.13666,42.91772Z" fill="#f4f1f0"/><path d="M138.12809,43.35059a.64721.64721,0,0,0,.19873-.04737.37955.37955,0,0,0,.15186-.11279.3051.3051,0,0,0,.05957-.19678.3404.3404,0,0,0-.12305-.28271.43876.43876,0,0,0-.2832-.09864.39748.39748,0,0,0-.334.14551.56548.56548,0,0,0-.10888.36719h-.55323a1.21494,1.21494,0,0,1,.08008-.40381.92566.92566,0,0,1,.20069-.314.89006.89006,0,0,1,.30957-.20264,1.07847,1.07847,0,0,1,.40185-.07178,1.20052,1.20052,0,0,1,.34424.05127.97808.97808,0,0,1,.30957.15381.82986.82986,0,0,1,.22363.25.66505.66505,0,0,1,.08594.34033.67457.67457,0,0,1-.10058.36866.50179.50179,0,0,1-.30127.21728v.0083a.62534.62534,0,0,1,.373.22949.67279.67279,0,0,1,.13526.42237.8877.8877,0,0,1-.08789.40185.87548.87548,0,0,1-.23584.29541,1.04242,1.04242,0,0,1-.34034.18018,1.38434,1.38434,0,0,1-.84228-.0083.91966.91966,0,0,1-.33838-.20264.90628.90628,0,0,1-.21533-.32617,1.15119,1.15119,0,0,1-.07178-.44287h.55371a.81491.81491,0,0,0,.03662.21972.54079.54079,0,0,0,.09424.18018.44867.44867,0,0,0,.15381.12109.49965.49965,0,0,0,.21973.04493.4791.4791,0,0,0,.332-.1211.491.491,0,0,0,.07177-.58008.3676.3676,0,0,0-.1621-.125.6733.6733,0,0,0-.21534-.04492c-.07763-.00439-.15234-.00635-.22363-.00635v-.40966A1.25685,1.25685,0,0,0,138.12809,43.35059Z" fill="#f4f1f0"/><path d="M88.99447,64.97168v-.5332l1.24658-1.67285h.52051V64.4917h.38134v.48h-.38134v.66406h-.55323v-.66406Zm1.20166-1.47607-.74219.99609h.75439v-.99609Z" fill="#f4f1f0"/><path d="M113.793,63.19214l-.11474.65186.00781.0083a.72213.72213,0,0,1,.25439-.17041.9485.9485,0,0,1,.68457.02685.827.827,0,0,1,.27686.209.90672.90672,0,0,1,.17236.30957,1.192,1.192,0,0,1,.05908.37939.984.984,0,0,1-.08593.41162,1.04566,1.04566,0,0,1-.23145.33008,1.02128,1.02128,0,0,1-.33838.21534,1.04658,1.04658,0,0,1-.41015.07177,1.43508,1.43508,0,0,1-.39942-.05517.99541.99541,0,0,1-.33838-.17041.8461.8461,0,0,1-.23584-.28467.89007.89007,0,0,1-.09228-.396h.582a.47635.47635,0,0,0,.148.314.45994.45994,0,0,0,.32373.1167.45009.45009,0,0,0,.207-.04688.503.503,0,0,0,.15576-.123.55988.55988,0,0,0,.09864-.17626.63781.63781,0,0,0,.03466-.207.65594.65594,0,0,0-.03271-.20947.4841.4841,0,0,0-.09863-.17187.45819.45819,0,0,0-.15577-.11475.50037.50037,0,0,0-.209-.041.511.511,0,0,0-.25391.05518.59205.59205,0,0,0-.18457.17432h-.5249l.28272-1.58692h1.603v.48Z" fill="#f4f1f0"/><path d="M138.45174,63.20654a.33877.33877,0,0,0-.25391-.10644.38011.38011,0,0,0-.26074.09228.67749.67749,0,0,0-.166.22559,1.21057,1.21057,0,0,0-.08984.28467,1.79466,1.79466,0,0,0-.0332.271l.0083.00782a.69575.69575,0,0,1,.27881-.24561.90686.90686,0,0,1,.73.00586.899.899,0,0,1,.29931.21533.83179.83179,0,0,1,.168.29932,1.11763,1.11763,0,0,1,.05322.34033,1.16036,1.16036,0,0,1-.07177.41211.991.991,0,0,1-.20459.332.94976.94976,0,0,1-.31787.22119,1.14174,1.14174,0,0,1-.94727-.04883,1.00288,1.00288,0,0,1-.34033-.33838,1.39958,1.39958,0,0,1-.17627-.47363,2.94754,2.94754,0,0,1-.04932-.53906,2.36467,2.36467,0,0,1,.06152-.5332,1.56672,1.56672,0,0,1,.19678-.48145,1.11167,1.11167,0,0,1,.34864-.35058.95139.95139,0,0,1,.5205-.13526,1.08282,1.08282,0,0,1,.34473.05322.89.89,0,0,1,.28271.15381.79638.79638,0,0,1,.20118.248,1.00007,1.00007,0,0,1,.10254.34033h-.55372A.495.495,0,0,0,138.45174,63.20654Zm-.48975.937a.40879.40879,0,0,0-.14551.1167.51508.51508,0,0,0-.08642.17041.70893.70893,0,0,0-.02832.20313.63374.63374,0,0,0,.03076.19434.54178.54178,0,0,0,.08984.17236.44731.44731,0,0,0,.14551.12109.42186.42186,0,0,0,.19678.04492.37847.37847,0,0,0,.187-.04492.46344.46344,0,0,0,.13721-.11914.51613.51613,0,0,0,.08593-.168.66131.66131,0,0,0,.02881-.19287.73113.73113,0,0,0-.02685-.19873.56324.56324,0,0,0-.07959-.17236.41177.41177,0,0,0-.1377-.12256.38641.38641,0,0,0-.19482-.04736A.45474.45474,0,0,0,137.962,64.14355Z" fill="#f4f1f0"/><path d="M160.902,63.43848a1.26682,1.26682,0,0,1,.22754-.457.81992.81992,0,0,1,.33447-.2461,1.15336,1.15336,0,0,1,.81152,0,.83215.83215,0,0,1,.33643.2461,1.2453,1.2453,0,0,1,.22949.457,2.515,2.515,0,0,1,.084.70312,2.6156,2.6156,0,0,1-.084.71973,1.2458,1.2458,0,0,1-.22949.46094.83222.83222,0,0,1-.33643.24609,1.15336,1.15336,0,0,1-.81152,0,.82.82,0,0,1-.33447-.24609,1.2672,1.2672,0,0,1-.22754-.46094,2.63422,2.63422,0,0,1-.084-.71973A2.533,2.533,0,0,1,160.902,63.43848Zm.50635,1.00048a1.64532,1.64532,0,0,0,.05127.33594.7234.7234,0,0,0,.13769.27686.3289.3289,0,0,0,.27051.11474.34132.34132,0,0,0,.27685-.11474.712.712,0,0,0,.13916-.27686,1.58042,1.58042,0,0,0,.05127-.33594q.00805-.17431.0083-.29736c0-.04931-.001-.10889-.002-.17822a1.948,1.948,0,0,0-.0166-.21533,1.969,1.969,0,0,0-.041-.21924.65661.65661,0,0,0-.08007-.19483.43524.43524,0,0,0-.13526-.13964.36364.36364,0,0,0-.20068-.05323.3524.3524,0,0,0-.19873.05323.429.429,0,0,0-.13135.13964.74493.74493,0,0,0-.08008.19483,1.5336,1.5336,0,0,0-.041.21924c-.0083.07373-.0127.1455-.01416.21533-.00147.06933-.002.12891-.002.17822Q161.40055,64.26465,161.40837,64.439Z" fill="#f4f1f0"/><path d="M90.64876,83.90283a3.39682,3.39682,0,0,0-.291.61133,4.37048,4.37048,0,0,0-.18018.65576,3.59116,3.59116,0,0,0-.06787.61914h-.62305a3.91664,3.91664,0,0,1,.30127-1.23828A4.394,4.394,0,0,1,90.45,83.46045H89.0887V82.919h1.96v.50048A2.04051,2.04051,0,0,0,90.64876,83.90283Z" fill="#f4f1f0"/><path d="M113.18972,83.19385a.78289.78289,0,0,1,.22363-.2461,1.00326,1.00326,0,0,1,.30957-.14795,1.26561,1.26561,0,0,1,.34864-.04882,1.10618,1.10618,0,0,1,.45068.082.93107.93107,0,0,1,.29736.19873.71564.71564,0,0,1,.16211.25.70444.70444,0,0,1,.04932.23974.66515.66515,0,0,1-.105.37305.57576.57576,0,0,1-.31348.23v.00781a.65464.65464,0,0,1,.39795.24414.74334.74334,0,0,1,.13916.457.81512.81512,0,0,1-.09228.39795.84361.84361,0,0,1-.24366.2788,1.101,1.101,0,0,1-.34472.166,1.42935,1.42935,0,0,1-.39356.05518,1.58107,1.58107,0,0,1-.40381-.05127,1.04729,1.04729,0,0,1-.34863-.16163.839.839,0,0,1-.24609-.2788.82949.82949,0,0,1-.0918-.40186.7337.7337,0,0,1,.14111-.45947.68318.68318,0,0,1,.39991-.2461v-.00781a.53486.53486,0,0,1-.31592-.21728.71157.71157,0,0,1-.02051-.71338Zm.41846,1.81592a.46388.46388,0,0,0,.27051.25244.5698.5698,0,0,0,.19677.03467.53009.53009,0,0,0,.19483-.03467.48859.48859,0,0,0,.15576-.09864.43.43,0,0,0,.10449-.1538.50814.50814,0,0,0,.03711-.19678.43992.43992,0,0,0-.03906-.18653.4556.4556,0,0,0-.10645-.1455.48212.48212,0,0,0-.15576-.09424.54271.54271,0,0,0-.19092-.03272.56532.56532,0,0,0-.36084.1167.40719.40719,0,0,0-.14746.33838A.47873.47873,0,0,0,113.60818,85.00977Zm.15576-1.14161a.50694.50694,0,0,0,.30762.0962.48287.48287,0,0,0,.30713-.0962.33526.33526,0,0,0,.123-.28076.53881.53881,0,0,0-.01611-.125.35125.35125,0,0,0-.06348-.12939.36266.36266,0,0,0-.13134-.10254.50332.50332,0,0,0-.21924-.041.512.512,0,0,0-.166.02686.4481.4481,0,0,0-.1416.07568.337.337,0,0,0-.09619.12305.39642.39642,0,0,0-.03516.17236A.327.327,0,0,0,113.76394,83.86816Z" fill="#f4f1f0"/><path d="M137.63493,85.24561a.33982.33982,0,0,0,.25439.10644.37709.37709,0,0,0,.26221-.09228.68594.68594,0,0,0,.16406-.22559,1.15772,1.15772,0,0,0,.08838-.28467,2.65116,2.65116,0,0,0,.03467-.27051l-.0083-.0083a.69456.69456,0,0,1-.27881.2461.87617.87617,0,0,1-.36865.07373.86546.86546,0,0,1-.36084-.08008.899.899,0,0,1-.29932-.21533.82906.82906,0,0,1-.16846-.29932,1.13087,1.13087,0,0,1-.05322-.34033,1.1623,1.1623,0,0,1,.07178-.41211.9669.9669,0,0,1,.52295-.55518.999.999,0,0,1,.41015-.082,1.0223,1.0223,0,0,1,.53907.12891.99717.99717,0,0,1,.33789.34033,1.42191,1.42191,0,0,1,.17676.47754,2.96238,2.96238,0,0,1,.04882.53711,2.3641,2.3641,0,0,1-.06152.5332,1.55265,1.55265,0,0,1-.19678.48194,1.08767,1.08767,0,0,1-.34814.34814.96538.96538,0,0,1-.521.1333,1.11994,1.11994,0,0,1-.34424-.05127.83819.83819,0,0,1-.2832-.15381.81986.81986,0,0,1-.20068-.25.99493.99493,0,0,1-.10254-.33593h.55371A.49274.49274,0,0,0,137.63493,85.24561Zm.49219-.937a.41364.41364,0,0,0,.14355-.1167.51377.51377,0,0,0,.08594-.17041.70829.70829,0,0,0,.02881-.20263.63451.63451,0,0,0-.03077-.19483.5479.5479,0,0,0-.09033-.17236.4484.4484,0,0,0-.1455-.12109.42045.42045,0,0,0-.19678-.04493.37959.37959,0,0,0-.18457.04493.44736.44736,0,0,0-.13916.11914.522.522,0,0,0-.08643.168.66354.66354,0,0,0-.02832.19287.74738.74738,0,0,0,.02637.19873.5584.5584,0,0,0,.08008.17236.41675.41675,0,0,0,.1372.123.394.394,0,0,0,.19483.04687A.45372.45372,0,0,0,138.12712,84.30859Z" fill="#f4f1f0"/><path d="M86.62377,44.34985h7.37778a.29426.29426,0,0,1,.29426.29426V58.85588a.29426.29426,0,0,1-.29426.29426H86.62328a.29426.29426,0,0,1-.29426-.29426V44.64461A.29475.29475,0,0,1,86.62377,44.34985Z" transform="translate(142.06242 -38.56242) rotate(90)" fill="#151106"/><rect x="83.47917" y="48.33333" width="13.66667" height="6.83333" rx="1.02083" fill="#c7bcae"/><path d="M110.37868,44.34985h7.37778a.29426.29426,0,0,1,.29426.29426V58.85588a.29426.29426,0,0,1-.29426.29426h-7.37827a.29426.29426,0,0,1-.29426-.29426V44.64461A.29475.29475,0,0,1,110.37868,44.34985Z" transform="translate(165.81733 -62.31733) rotate(90)" fill="#151106"/><rect x="107.23407" y="48.33333" width="13.66667" height="6.83333" rx="1.02083" fill="#c7bcae"/><path d="M134.13358,44.34985h7.37778a.29426.29426,0,0,1,.29426.29426V58.85588a.29426.29426,0,0,1-.29426.29426h-7.37827a.29426.29426,0,0,1-.29426-.29426V44.64461A.29475.29475,0,0,1,134.13358,44.34985Z" transform="translate(189.57222 -86.07222) rotate(90)" fill="#151106"/><rect x="130.98897" y="48.33333" width="13.66667" height="6.83333" rx="1.02083" fill="#c7bcae"/><path d="M157.88847,44.34985h7.37778a.29426.29426,0,0,1,.29426.29426V58.85588a.29426.29426,0,0,1-.29426.29426H157.888a.29426.29426,0,0,1-.29426-.29426V44.64461A.29475.29475,0,0,1,157.88847,44.34985Z" transform="translate(213.32712 -109.82712) rotate(90)" fill="#151106"/><rect x="154.74387" y="48.33333" width="13.66667" height="6.83333" rx="1.02083" fill="#c7bcae"/><path d="M181.64337,44.34985h7.37778a.29426.29426,0,0,1,.29426.29426V58.85588a.29426.29426,0,0,1-.29426.29426h-7.37827a.29426.29426,0,0,1-.29426-.29426V44.64461A.29475.29475,0,0,1,181.64337,44.34985Z" transform="translate(237.08202 -133.58202) rotate(90)" fill="#151106"/><rect x="178.49877" y="48.33333" width="13.66667" height="6.83333" rx="1.02083" fill="#c7bcae"/><path d="M205.39827,44.34985h7.37778a.29426.29426,0,0,1,.29426.29426V58.85588a.29426.29426,0,0,1-.29426.29426h-7.37827a.29426.29426,0,0,1-.29426-.29426V44.64461A.29475.29475,0,0,1,205.39827,44.34985Z" transform="translate(260.83692 -157.33692) rotate(90)" fill="#151106"/><rect x="202.25366" y="48.33333" width="13.66667" height="6.83333" rx="1.02083" fill="#c7bcae"/><path d="M229.15317,44.34985h7.37778a.29426.29426,0,0,1,.29426.29426V58.85588a.29426.29426,0,0,1-.29426.29426h-7.37827a.29426.29426,0,0,1-.29426-.29426V44.64461A.29475.29475,0,0,1,229.15317,44.34985Z" transform="translate(284.59181 -181.09181) rotate(90)" fill="#151106"/><rect x="226.00856" y="48.33333" width="13.66667" height="6.83333" rx="1.02083" fill="#c7bcae"/><path d="M257.7993,44.46655h13.59548a.39544.39544,0,0,1,.39544.39544V58.87141a.39544.39544,0,0,1-.39544.39544H257.79865a.39544.39544,0,0,1-.39544-.39544V44.86265A.3961.3961,0,0,1,257.7993,44.46655Z" transform="translate(316.46341 -212.73001) rotate(90)" fill="#151106"/><rect x="257.76343" y="48.55013" width="13.66667" height="6.63314" rx="1.00577" fill="#f62717"/><path d="M86.62377,64.84985h7.37778a.29426.29426,0,0,1,.29426.29426V79.35588a.29426.29426,0,0,1-.29426.29426H86.62328a.29426.29426,0,0,1-.29426-.29426V65.14461A.29475.29475,0,0,1,86.62377,64.84985Z" transform="translate(162.56242 -18.06242) rotate(90)" fill="#151106"/><rect x="83.47917" y="68.83333" width="13.66667" height="6.83333" rx="1.02083" fill="#c7bcae"/><path d="M110.37868,64.84985h7.37778a.29426.29426,0,0,1,.29426.29426V79.35588a.29426.29426,0,0,1-.29426.29426h-7.37827a.29426.29426,0,0,1-.29426-.29426V65.14461A.29475.29475,0,0,1,110.37868,64.84985Z" transform="translate(186.31733 -41.81733) rotate(90)" fill="#151106"/><rect x="107.23407" y="68.83333" width="13.66667" height="6.83333" rx="1.02083" fill="#c7bcae"/><path d="M134.13358,64.84985h7.37778a.29426.29426,0,0,1,.29426.29426V79.35588a.29426.29426,0,0,1-.29426.29426h-7.37827a.29426.29426,0,0,1-.29426-.29426V65.14461A.29475.29475,0,0,1,134.13358,64.84985Z" transform="translate(210.07222 -65.57222) rotate(90)" fill="#151106"/><rect x="130.98897" y="68.83333" width="13.66667" height="6.83333" rx="1.02083" fill="#c7bcae"/><path d="M157.88847,64.84985h7.37778a.29426.29426,0,0,1,.29426.29426V79.35588a.29426.29426,0,0,1-.29426.29426H157.888a.29426.29426,0,0,1-.29426-.29426V65.14461A.29475.29475,0,0,1,157.88847,64.84985Z" transform="translate(233.82712 -89.32712) rotate(90)" fill="#151106"/><rect x="154.74387" y="68.83333" width="13.66667" height="6.83333" rx="1.02083" fill="#c7bcae"/><path d="M181.64337,64.84985h7.37778a.29426.29426,0,0,1,.29426.29426V79.35588a.29426.29426,0,0,1-.29426.29426h-7.37827a.29426.29426,0,0,1-.29426-.29426V65.14461A.29475.29475,0,0,1,181.64337,64.84985Z" transform="translate(257.58202 -113.08202) rotate(90)" fill="#151106"/><rect x="178.49877" y="68.83333" width="13.66667" height="6.83333" rx="1.02083" fill="#c7bcae"/><path d="M209.27482,61.04131h7.24189a.36216.36216,0,0,1,.36216.36216V83.09655a.36215.36215,0,0,1-.36215.36215h-7.24249a.36216.36216,0,0,1-.36216-.36216V61.40406A.36276.36276,0,0,1,209.27482,61.04131Z" transform="translate(285.14546 -140.64546) rotate(90)" fill="#151106"/><rect x="202.54542" y="68.83333" width="20.70034" height="6.83333" rx="1.25635" fill="#c7bcae"/><path d="M236.72118,64.84985H244.099a.29426.29426,0,0,1,.29426.29426V79.35588a.29426.29426,0,0,1-.29426.29426H236.7207a.29426.29426,0,0,1-.29426-.29426V65.14461A.29475.29475,0,0,1,236.72118,64.84985Z" transform="translate(312.65983 -168.15983) rotate(90)" fill="#151106"/><rect x="233.57658" y="68.83333" width="13.66667" height="6.83333" rx="1.02083" fill="#c7bcae"/><path d="M260.90807,64.84985h7.37778a.29426.29426,0,0,1,.29426.29426V79.35588a.29426.29426,0,0,1-.29426.29426h-7.37827a.29426.29426,0,0,1-.29426-.29426V65.14461A.29475.29475,0,0,1,260.90807,64.84985Z" transform="translate(336.84671 -192.34671) rotate(90)" fill="#151106"/><rect x="257.76346" y="68.83333" width="13.66667" height="6.83333" rx="1.02083" fill="#c7bcae"/><path d="M86.62377,85.34985h7.37778a.29426.29426,0,0,1,.29426.29426V99.85588a.29426.29426,0,0,1-.29426.29426H86.62328a.29426.29426,0,0,1-.29426-.29426V85.64461A.29475.29475,0,0,1,86.62377,85.34985Z" transform="translate(183.06242 2.43758) rotate(90)" fill="#151106"/><rect x="83.47917" y="89.33333" width="13.66667" height="6.83333" rx="1.02083" fill="#c7bcae"/><path d="M110.37868,85.34985h7.37778a.29426.29426,0,0,1,.29426.29426V99.85588a.29426.29426,0,0,1-.29426.29426h-7.37827a.29426.29426,0,0,1-.29426-.29426V85.64461A.29475.29475,0,0,1,110.37868,85.34985Z" transform="translate(206.81733 -21.31733) rotate(90)" fill="#151106"/><rect x="107.23407" y="89.33333" width="13.66667" height="6.83333" rx="1.02083" fill="#c7bcae"/><path d="M134.13358,85.34985h7.37778a.29426.29426,0,0,1,.29426.29426V99.85588a.29426.29426,0,0,1-.29426.29426h-7.37827a.29426.29426,0,0,1-.29426-.29426V85.64461A.29475.29475,0,0,1,134.13358,85.34985Z" transform="translate(230.57222 -45.07222) rotate(90)" fill="#151106"/><rect x="130.98897" y="89.33333" width="13.66667" height="6.83333" rx="1.02083" fill="#c7bcae"/><path d="M157.88847,85.34985h7.37778a.29426.29426,0,0,1,.29426.29426V99.85588a.29426.29426,0,0,1-.29426.29426H157.888a.29426.29426,0,0,1-.29426-.29426V85.64461A.29475.29475,0,0,1,157.88847,85.34985Z" transform="translate(254.32712 -68.82712) rotate(90)" fill="#151106"/><rect x="154.74387" y="89.33333" width="13.66667" height="6.83333" rx="1.02083" fill="#c7bcae"/><path d="M209.27482,81.54131h7.24189a.36216.36216,0,0,1,.36216.36216v21.69309a.36215.36215,0,0,1-.36215.36215h-7.24249a.36216.36216,0,0,1-.36216-.36216V81.90406A.36276.36276,0,0,1,209.27482,81.54131Z" transform="translate(305.64546 -120.14546) rotate(90)" fill="#151106"/><rect x="202.54542" y="89.33333" width="20.70034" height="6.83333" rx="1.25635" fill="#c7bcae"/><path d="M260.90807,85.34985h7.37778a.29426.29426,0,0,1,.29426.29426V99.85588a.29426.29426,0,0,1-.29426.29426h-7.37827a.29426.29426,0,0,1-.29426-.29426V85.64461A.29475.29475,0,0,1,260.90807,85.34985Z" transform="translate(357.34671 -171.84671) rotate(90)" fill="#151106"/><rect x="257.76346" y="89.33333" width="13.66667" height="6.83333" rx="1.02083" fill="#c7bcae"/><rect x="257.76343" y="55.7334" width="13.66667" height="2.67285" rx="0.28293" fill="#26272b"/><rect x="257.76343" y="45.32715" width="13.66667" height="2.67285" rx="0.28293" fill="#26272b"/><line x1="178.17879" y1="59.33333" x2="247.80998" y2="59.33333" fill="none" stroke="#f4f1f0" stroke-miterlimit="10" stroke-width="0.75"/><line x1="192.73216" y1="72.25" x2="201.52865" y2="72.25" fill="none" stroke="#f4f1f0" stroke-miterlimit="10" stroke-width="0.75"/><line x1="224.10416" y1="72.25" x2="232.84181" y2="72.25" fill="none" stroke="#f4f1f0" stroke-miterlimit="10" stroke-width="0.75"/><path d="M201.68677,92.75H186.52083a.85416.85416,0,0,1-.85416-.85417V76.2334" fill="none" stroke="#f4f1f0" stroke-miterlimit="10" stroke-width="0.75"/><path d="M240.242,76.2334V91.89985a.85014.85014,0,0,1-.85015.85015H224.10416" fill="none" stroke="#f4f1f0" stroke-miterlimit="10" stroke-width="0.75"/><line x1="252.25" y1="41.25" x2="252.25" y2="97.18751" fill="none" stroke="#f4f1f0" stroke-miterlimit="10" stroke-width="0.75"/><line x1="256.47916" y1="60.53125" x2="271.99686" y2="60.53125" fill="none" stroke="#f4f1f0" stroke-miterlimit="10" stroke-width="0.75"/><line x1="173.33366" y1="41.25" x2="173.33366" y2="97.18751" fill="none" stroke="#f4f1f0" stroke-miterlimit="10" stroke-width="0.75"/><path d="M260.93554,64.90232l-.22-.13346a1.74392,1.74392,0,0,0,.18525-.78483,1.52792,1.52792,0,1,0-3.04738,0,1.74379,1.74379,0,0,0,.18525.78483l-.22.13346a2.03773,2.03773,0,0,1-.217-.91829,1.854,1.854,0,0,1,1.77287-1.917h.00516a1.854,1.854,0,0,1,1.77287,1.917A2.03773,2.03773,0,0,1,260.93554,64.90232Z" fill="#f4f1f0"/><path d="M258.695,65.84031c0-.32081-.2075-.69846-.388-.69846s-.37627.30475-.37627.62556.30157.65143.4821.65143S258.695,66.16112,258.695,65.84031Z" fill="#f4f1f0"/><path d="M260.05909,65.84031c0-.32081.2075-.69846.388-.69846s.37628.30475.37628.62556-.30157.65143-.4821.65143S260.05909,66.16112,260.05909,65.84031Z" fill="#f4f1f0"/><rect x="282.19792" y="18.5" width="71.13542" height="2.16667" rx="0.73223" fill="#1c1c1e"/><rect x="282.19792" y="23.66667" width="71.13542" height="2.16667" rx="0.73223" fill="#1c1c1e"/><rect x="282.19792" y="28.83333" width="71.13542" height="2.16667" rx="0.73223" fill="#1c1c1e"/><rect x="282.19792" y="34" width="71.13542" height="2.16667" rx="0.73223" fill="#1c1c1e"/><path d="M301.45264,62.46022l1.335,3.56982h-.81446l-.2705-.79492h-1.335l-.28028.79492h-.78906l1.34961-3.56982Zm.04492,2.18994-.44922-1.31006h-.01074l-.46485,1.31006Z" fill="#f4f1f0"/><path d="M333.807,62.46022a2.20158,2.20158,0,0,1,.46484.04492,1.00835,1.00835,0,0,1,.36035.14746.69468.69468,0,0,1,.23242.27246.96224.96224,0,0,1,.082.41992.787.787,0,0,1-.12207.4502.89985.89985,0,0,1-.3623.29492.85964.85964,0,0,1,.49219.33252,1.09469,1.09469,0,0,1,.05761,1.04.90323.90323,0,0,1-.2832.32226,1.245,1.245,0,0,1-.4043.18506,1.82875,1.82875,0,0,1-.46777.06006h-1.72949V62.46022Zm-.10059,1.44482a.56344.56344,0,0,0,.3457-.1001.37719.37719,0,0,0,.13477-.3247.41164.41164,0,0,0-.04492-.20508.336.336,0,0,0-.12012-.125.49828.49828,0,0,0-.17285-.0625,1.1284,1.1284,0,0,0-.20215-.01758h-.73535v.835Zm.0459,1.51514a1.07537,1.07537,0,0,0,.21973-.02246.53809.53809,0,0,0,.18457-.0752.381.381,0,0,0,.12793-.14258.49655.49655,0,0,0,.04687-.23.46435.46435,0,0,0-.1543-.39258.66375.66375,0,0,0-.41015-.11718h-.85547v.98Z" fill="#f4f1f0"/><path d="M301.04248,95.48438A12.19263,12.19263,0,1,1,313.23584,83.2915,12.20661,12.20661,0,0,1,301.04248,95.48438Z" fill="#1b1c1e"/><circle cx="301.04297" cy="83.29167" r="10.20833" fill="#232227"/><path d="M333.62142,95.48438A12.19263,12.19263,0,1,1,345.81478,83.2915,12.20661,12.20661,0,0,1,333.62142,95.48438Z" fill="#1b1c1e"/><circle cx="333.62191" cy="83.29167" r="10.20833" fill="#232227"/><path d="M185.71268,72.0284l3.35025-.6697a.226.226,0,0,1,.27027.2216v1.3394a.226.226,0,0,1-.27027.2216l-3.35025-.6697A.226.226,0,0,1,185.71268,72.0284Z" fill="#f0f2f1"/><path d="M181.51268,72.0284l3.35025-.6697a.226.226,0,0,1,.27027.2216v1.3394a.226.226,0,0,1-.27027.2216l-3.35025-.6697A.226.226,0,0,1,181.51268,72.0284Z" fill="#f0f2f1"/><rect x="216.15317" y="70.60938" width="1.65625" height="3.28125" rx="0.275" fill="#f0f2f1"/><rect x="218.76493" y="70.60938" width="1.65625" height="3.28125" rx="0.275" fill="#f0f2f1"/><path d="M210.92335,71.91726l-5.09579-.98037a.33885.33885,0,0,0-.40287.33275v1.96074a.33885.33885,0,0,0,.40287.33275l5.09579-.98037A.33885.33885,0,0,0,210.92335,71.91726Z" fill="#f0f2f1"/><rect x="210.81747" y="90.98438" width="4.15625" height="3.53125" rx="0.42243" fill="#f0f2f1"/><path d="M240.0479,72.02841l-3.35024-.6697a.226.226,0,0,0-.27028.2216v1.3394a.226.226,0,0,0,.27028.2216l3.35024-.6697A.226.226,0,0,0,240.0479,72.02841Z" fill="#f0f2f1"/><path d="M244.2479,72.02841l-3.35024-.6697a.226.226,0,0,0-.27028.2216v1.3394a.226.226,0,0,0,.27028.2216l3.35024-.6697A.226.226,0,0,0,244.2479,72.02841Z" fill="#f0f2f1"/><path d="M264.37989,70.95856,263.03325,73.291a.25043.25043,0,0,0,.21688.37564h2.69327a.25043.25043,0,0,0,.21688-.37564l-1.34663-2.33245A.25043.25043,0,0,0,264.37989,70.95856Z" fill="#f0f2f1"/><path d="M264.37991,94.04144,263.03328,91.709a.25042.25042,0,0,1,.21688-.37564h2.69327a.25043.25043,0,0,1,.21688.37564l-1.34664,2.33245A.25043.25043,0,0,1,264.37991,94.04144Z" fill="#f0f2f1"/></svg>