<?xml version="1.0" encoding="utf-8"?>
<!-- Generator: Adobe Illustrator 22.0.0, SVG Export Plug-In . SVG Version: 6.00 Build 0)  -->
<svg version="1.1" id="Capa_1" xmlns="http://www.w3.org/2000/svg" xmlns:xlink="http://www.w3.org/1999/xlink" x="0px" y="0px"
	 viewBox="0 0 85 85" style="enable-background:new 0 0 85 85;" xml:space="preserve">
<g>
	<circle style="fill:#909090;" cx="42.5" cy="42.5" r="42.426"/>
	<g>
		<path style="fill:#D2D2D2;" d="M34.935,0.668L42.5,42.5l7.565-41.832C45.022-0.223,39.978-0.223,34.935,0.668"/>
		<path style="fill:#D2D2D2;" d="M84.332,50.214c0.89-5.044,0.89-10.087,0-15.131l-41.684,7.565L84.332,50.214"/>
		<path style="fill:#D2D2D2;" d="M77.509,18.469c-1.483-2.077-3.115-4.154-4.895-5.934c-1.78-1.78-3.709-3.412-5.785-4.747
			L42.648,42.5L77.509,18.469z"/>
		<path style="fill:#D2D2D2;" d="M42.648,42.797L66.68,77.509c2.077-1.483,4.154-3.115,5.934-4.895
			c1.78-1.78,3.412-3.709,4.747-5.637L42.648,42.797"/>
		<path style="fill:#D2D2D2;" d="M18.172,7.64c-2.077,1.483-4.005,2.967-5.785,4.747c-1.928,1.928-3.56,3.857-5.044,5.934
			L42.352,42.5L18.172,7.64"/>
		<path style="fill:#D2D2D2;" d="M7.64,66.828c1.335,1.928,2.967,3.857,4.747,5.637c1.928,1.928,3.857,3.56,5.934,4.895
			l24.031-34.712L7.64,66.828"/>
		<path style="fill:#D2D2D2;" d="M42.5,42.945l-7.565,41.387c5.044,0.89,10.087,0.89,15.131,0L42.5,42.945"/>
		<path style="fill:#D2D2D2;" d="M0.668,35.083c-0.89,5.044-0.89,10.087,0,15.131l41.536-7.565L0.668,35.083"/>
	</g>
	<circle style="fill:#737373;" cx="42.5" cy="42.5" r="29.965"/>
</g>
</svg>
