<svg id="Layer_1" data-name="Layer 1" xmlns="http://www.w3.org/2000/svg" viewBox="0 0 1000 114"><path d="M512.34,110.5a3.52,3.52,0,0,0-3.9,0H491.56a3.52,3.52,0,0,0-3.9,0h-34.2A3.5,3.5,0,0,1,450,107V41.63a3,3,0,0,1,0-.42,3.5,3.5,0,0,1-3-4.16l6.14-30.74a3.51,3.51,0,0,1,3.44-2.81h86.84a3.51,3.51,0,0,1,3.44,2.81L553,37.05a3.5,3.5,0,0,1-3,4.16,3,3,0,0,1,0,.42V107a3.5,3.5,0,0,1-3.5,3.5Z" fill="#333"/><path d="M543.42,7l6.15,30.74H518.12L500,19.61,481.88,37.74H450.43L456.58,7h86.84M500,25.12l16.51,16.51h30V107h-34.2V88.17a12.13,12.13,0,0,0-3.9-9.25,13.07,13.07,0,0,0-16.88,0,12.13,12.13,0,0,0-3.9,9.25V107h-34.2V41.63h30L500,25.12M487.66,65.87h24.68V45.8L500,33.47,487.66,45.8V65.87m31.17,0H540V44.66H518.83V65.87m-58.87,0h21.21V44.66H460V65.87m58.87,34.64H540V79.29H518.83v21.22m-58.87,0h21.21V79.29H460v21.22M500,39l8.44,8.44V62H491.56V47.42L500,39m36.15,9.58v6.49H522.73V48.56h13.42m-58.88,0v6.49H463.85V48.56h13.42M536.15,59v3H522.73V59h13.42m-58.88,0v3H463.85V59h13.42M500,79.73a8.89,8.89,0,0,1,5.85,2.1,8,8,0,0,1,2.59,6.34V107H491.56V88.17a8,8,0,0,1,2.59-6.34,8.89,8.89,0,0,1,5.85-2.1m36.15,3.46V96.61H522.73V83.19h13.42m-58.88,0V96.61H463.85V83.19h13.42M543.42,0H456.58a7,7,0,0,0-6.87,5.63l-6.15,30.73A7,7,0,0,0,445,42.17a6.7,6.7,0,0,0,1.44,1.33V107a7,7,0,0,0,7,7h34.2a7.18,7.18,0,0,1,3.9,0h16.88a7.18,7.18,0,0,1,3.9,0h34.2a7,7,0,0,0,7-7V43.5A6.7,6.7,0,0,0,555,42.17a7,7,0,0,0,1.46-5.81L550.29,5.63A7,7,0,0,0,543.42,0Z" fill="#fff"/><path d="M456.58,7l-6.15,30.74h31.45L500,19.61l18.12,18.13h31.45L543.42,7ZM500,25.12,483.49,41.63h-30V107h34.2V88.17a12.13,12.13,0,0,1,3.9-9.25,13.07,13.07,0,0,1,16.88,0,12.13,12.13,0,0,1,3.9,9.25V107h34.2V41.63h-30Zm0,8.35L512.34,45.8V65.87H487.66V45.8ZM500,39l-8.44,8.44V62h16.88V47.42Zm-40,5.68h21.21V65.87H460Zm58.87,0H540V65.87H518.83Zm-55,3.9v6.49h13.42V48.56Zm58.88,0v6.49h13.42V48.56ZM463.85,59v3h13.42V59Zm58.88,0v3h13.42V59ZM460,79.29h21.21v21.22H460Zm58.87,0H540v21.22H518.83ZM500,79.73a8.89,8.89,0,0,0-5.85,2.1,8,8,0,0,0-2.59,6.34V107h16.88V88.17a8,8,0,0,0-2.59-6.34A8.89,8.89,0,0,0,500,79.73Zm-36.15,3.46V96.61h13.42V83.19Zm58.88,0V96.61h13.42V83.19Z" fill="#333"/></svg>