<svg id="Layer_1" data-name="Layer 1" xmlns="http://www.w3.org/2000/svg" viewBox="0 0 1000 114"><path d="M450.7,110.5a5.41,5.41,0,0,1-4.93-2.43,5.59,5.59,0,0,1-1.9-.75c-3-1.79-2.92-5.36-2.88-9.14a46,46,0,0,0-.17-4.72c-.65-5.08-.76-9.75-.8-35.69s-.06-27.88.8-29.1a7.06,7.06,0,0,0,.25-.82l.35-1.45a3.48,3.48,0,0,1,1.6-2.18l1.77-1.07c1.15-.69,6.57-3.5,11.15-5.8,5.12-2.59,10.42-5.37,11.82-6.22a26.15,26.15,0,0,1,4.94-2.42L475,8.13a9.67,9.67,0,0,1,2.57-.35,13.26,13.26,0,0,1,4.64.94,83,83,0,0,1,10,5c1.79,1.34,7.21,4.65,9.88,6.08l.31-.17a10.24,10.24,0,0,0,.93-.67c.83-.73,3.83-2.74,5.7-3.95l2.9-1.9,3.94-2.58a42.67,42.67,0,0,0,4-3.06c2.62-2.3,3.82-3.2,5.32-3.66a7.3,7.3,0,0,1,2-.35h.07c2.17,0,4.36,1.72,5.22,2.62a18.2,18.2,0,0,0,3.38,2.57,82.34,82.34,0,0,1,7.76,5.5,12.76,12.76,0,0,0,1.51,1c2.51,1.4,6.12,3.65,7.59,4.73,3.89,2.87,5.16,3.92,6.06,5.3l.61.91a3.51,3.51,0,0,1,.59,1.94v7.19c0,3.81-.13,8.66-.28,10.58s-.27,7.41-.27,14.66c0,25.38-.82,32.87-2,36.31a7.48,7.48,0,0,0-.46,3.43c0,3.4-.37,5.89-2.2,7.82a5.53,5.53,0,0,1-4,1.72,6.79,6.79,0,0,1-4.85-2.22,8.55,8.55,0,0,1-3.69-3.17,8.82,8.82,0,0,1-2.58-2.13,3.47,3.47,0,0,0-.62-.61c-1.07-.7-5.34-4.82-6.63-6.06-2.61-2.55-5-4.78-6-5.63a2.23,2.23,0,0,0-.24.19c-.76.59-1.74,1.28-2.24,1.62l-.15.09c-.27.17-.54.37-.63.44a8.84,8.84,0,0,1-1.77,1.22c-.23.15-1,.68-1.75,1.33a24.48,24.48,0,0,1-3.13,2.28A14.14,14.14,0,0,0,515,98.25a37.85,37.85,0,0,1-3.21,2.51c-1,.69-2.41,1.81-3.19,2.47-2.12,1.77-5.17,3.87-7.77,3.87h-.3a4.66,4.66,0,0,1-3.53-1.68,44.67,44.67,0,0,1-6.7-3.88,34.75,34.75,0,0,0-3.23-2.16c-1.26-.71-4.23-2.52-6.6-4s-4.5-2.71-5.39-3.2l0,0c-3.78,2.54-6.94,5.25-16.92,14.53a23.61,23.61,0,0,1-3.8,3.09,9,9,0,0,1-3.51.7Zm83.18-66.93a3.59,3.59,0,0,1,1.8,1.11l.48.56a3.34,3.34,0,0,1,.88-1.88,4.48,4.48,0,0,1-2.81-1.23A3.43,3.43,0,0,1,533.88,43.57Z" fill="#333"/><path d="M527.28,7A5.19,5.19,0,0,1,530,8.53a21.16,21.16,0,0,0,4.2,3.2,82.18,82.18,0,0,1,7.14,5.07,16.55,16.55,0,0,0,2.15,1.46c2.5,1.39,5.95,3.56,7.21,4.49,3.72,2.74,4.67,3.56,5.22,4.4l.62.93v7.19c0,4-.13,8.6-.27,10.31-.17,2-.28,7.36-.28,14.93,0,21.07-.56,31.54-1.8,35.19a10.8,10.8,0,0,0-.64,4.55c0,3-.33,4.45-1.24,5.4a2,2,0,0,1-1.45.65,3.61,3.61,0,0,1-2.48-1.31,2.18,2.18,0,0,0-1.09-.69c-.42,0-1.48-1-2.21-2.06a3.33,3.33,0,0,0-1.15-.95,5.31,5.31,0,0,1-1.48-1.24,7,7,0,0,0-1.48-1.37c-.45-.29-3.17-2.81-6-5.59s-5.91-5.6-6.73-6.22l-1.5-1.13-.8.42a13.08,13.08,0,0,0-1.9,1.29c-.6.46-1.5,1.1-2,1.43a8.27,8.27,0,0,0-1.22.89,4.46,4.46,0,0,1-1,.68,21.69,21.69,0,0,0-2.31,1.71,21,21,0,0,1-2.61,1.92,16.74,16.74,0,0,0-2.1,1.55,36,36,0,0,1-2.92,2.28c-1,.71-2.54,1.9-3.42,2.65-2.24,1.87-4.36,3-5.51,3h-.09c-.66,0-.93-.17-1.11-.55s-.28-.51-.37-.51c-.6,0-5.44-2.65-6.75-3.71a35.28,35.28,0,0,0-3.69-2.48c-1.17-.67-4.09-2.44-6.48-3.94s-5.07-3.05-5.93-3.49l-1.55-.82-1.77,1.19c-4,2.66-7.23,5.47-17.34,14.87a24.42,24.42,0,0,1-3,2.52,5.53,5.53,0,0,1-1.94.33h-.14c-1.31,0-1.82-.32-2.25-1.35a2.43,2.43,0,0,0-1.73-1.09.48.48,0,0,0-.22,0l-.07,0a2.09,2.09,0,0,1-.79-.33c-.95-.57-1.19-1.88-1.15-6.08a49.35,49.35,0,0,0-.2-5.2c-.62-4.82-.73-9.4-.77-35.26,0-23.11,0-26.87.26-27.2a6.9,6.9,0,0,0,.69-1.86l.35-1.48,1.77-1.06c1-.58,5.88-3.15,10.93-5.69s10.48-5.4,12.05-6.35a23,23,0,0,1,4-2l2.33-.6a6.12,6.12,0,0,1,1.67-.23A9.76,9.76,0,0,1,481,12a85.24,85.24,0,0,1,9.18,4.58,111,111,0,0,0,11.44,6.92l1,.47.42-.45a4,4,0,0,1,1.06-.77,12.35,12.35,0,0,0,1.55-1.11c.48-.42,2.87-2.08,5.3-3.65l6.86-4.49a47.91,47.91,0,0,0,4.45-3.36c2.39-2.1,3.23-2.7,4-2.94a4,4,0,0,1,1-.2h0m-4.64,41.93c2.33,0,6-.56,7.23-1.23a7.63,7.63,0,0,1,1.77-.47L533,47l.84,1a9.92,9.92,0,0,1,1.33,2,9.77,9.77,0,0,0,.62,1.1,8.72,8.72,0,0,1,.75,1.33c2.41,4.76,3,5.35,5.15,5.4h.21c.73,0,.91-.13,1.52-.84.75-.89.75-.91.26-2.79a19.16,19.16,0,0,0-2.16-4.42,14.74,14.74,0,0,1-.78-1.33A8.38,8.38,0,0,0,540,47a2.22,2.22,0,0,1-.31-.79c-.14-.67-.11-.69,1.17-.95a4.35,4.35,0,0,0,1.39-.49,11,11,0,0,1,2.28-.75,15.44,15.44,0,0,0,2.43-.78l.76-.62a2.47,2.47,0,0,0,.7-1.32,2.71,2.71,0,0,0-1.55-3.08,4.33,4.33,0,0,0-1.32-.15c-1.6,0-3.89.36-4.18.75a25.7,25.7,0,0,1-3.92,1h-.16a.93.93,0,0,1-.72-.37c-.22-.24-.56-.64-.78-.86a8.21,8.21,0,0,1-.82-1.39,17.37,17.37,0,0,0-2.61-4.34c-.59-.62-1-.9-1.43-.9a1.86,1.86,0,0,0-.84.26,3.35,3.35,0,0,0-1.33,2.3.78.78,0,0,1-.22.62,1.19,1.19,0,0,0-.22.8c0,.35.11.64.22.64s.22.2.22.44a12.08,12.08,0,0,0,1,2.52,14.39,14.39,0,0,1,1,2.41c0,.18-.53.47-1.37.71a6.8,6.8,0,0,0-1.51.58,18.93,18.93,0,0,1-4.4.64,1.9,1.9,0,0,0-1.41.53,8.67,8.67,0,0,1-1.26.95,1.79,1.79,0,0,0-.82,1,1.17,1.17,0,0,1-.36.69c-.31.22.47,1.28,1.24,1.65a4.49,4.49,0,0,0,1.8.24m3.87,6.67a1.74,1.74,0,0,0,1.23-.49,9.68,9.68,0,0,1,1.38-1,2.43,2.43,0,0,0,.73-.53c0-.09.35-.38.77-.64,1.37-.85,1.9-2.9.88-3.37-.31-.13-.55-.33-.55-.44s-.29-.18-.66-.18-.67.09-.67.23-.44.46-1,.79a3.1,3.1,0,0,0-1,.73c0,.09-.26.31-.57.47a4.06,4.06,0,0,0-1.86,2.92c0,.46.11.84.22.84a.22.22,0,0,1,.18.26c-.05.18.24.31.71.36h.2M473,56.75c.25,0,.42-.09.42-.2s.4-.25.91-.34a3.22,3.22,0,0,0,1.86-1.12,3.82,3.82,0,0,1,1.26-1c.55,0,1.68-1.19,2.08-2.21a6.9,6.9,0,0,1,.55-1.2c.11-.11-.13-.44-.51-.73a2.64,2.64,0,0,0-1.15-.5,8.57,8.57,0,0,0-2.79,1.32,4,4,0,0,1-.88.56,10.2,10.2,0,0,0-1.64,1.21,2.63,2.63,0,0,0-.95,1.86c-.15,1.24.27,2.35.84,2.35m16,7.43s.12-.07.2-.2a.79.79,0,0,1,.53-.38.33.33,0,0,0,.33-.33c0-.18.09-.33.2-.33.27,0-.24-2.12-.68-3a4.29,4.29,0,0,0-.82-1,1.23,1.23,0,0,1-.47-.73c0-.33-.24-.64-2.23-2.78-.54-.57-1-.86-1.35-.86s-.74.3-1.13.9c-.62,1-.73,1.31-.4,1.31.11,0,.27.24.33.53a8,8,0,0,0,.91,1.63,7.54,7.54,0,0,1,.78,1.33,4.2,4.2,0,0,0,.77,1.08,4.65,4.65,0,0,1,.77,1.13c0,.36,1.33,1.37,1.8,1.37.22,0,.42.14.42.27s0,.09,0,.09m28.23,1.65a1.43,1.43,0,0,0,1-.3,3.19,3.19,0,0,1,.64-.51,29,29,0,0,0,3.07-2.52,4.79,4.79,0,0,0,1.55-3c0-.36-.22-.62-.66-.86a2.43,2.43,0,0,0-1.19-.31,3.62,3.62,0,0,0-1,.17c-.87.27-2,.91-2,1.13s-.18.24-.38.31a4.7,4.7,0,0,0-2.17,2.3c-.22.51-.46.93-.6.93s-.15.09-.06.2a.27.27,0,0,1-.11.35c-.4.25-.25.95.33,1.55a2.44,2.44,0,0,0,1.62.57m-55.55.56a3.87,3.87,0,0,0,1.4-.27c1.08-.42,1.35-.62,2.81-2.08,1.26-1.28,1.61-1.79,1.83-2.76.16-.66.11-.84-.29-1.11a1.72,1.72,0,0,0-1-.31,2.85,2.85,0,0,0-1.68.65c-.49.35-1.18.81-1.55,1a5.85,5.85,0,0,0-2.68,3.32,3.6,3.6,0,0,0,0,1.17,1.43,1.43,0,0,0,1.17.38m42.31,9a5.25,5.25,0,0,0,1.89-.33,8.5,8.5,0,0,0,1.88-1.38,14.09,14.09,0,0,1,1.79-1.46c1.79-1.08,2.59-2.38,2.32-3.82a1.07,1.07,0,0,0-.84-1,3.87,3.87,0,0,0-1.2-.2,4.08,4.08,0,0,0-2.74,1.16,8.52,8.52,0,0,1-1.46,1.06c-.28.13-.53.33-.53.44s-.35.35-.77.55a1.67,1.67,0,0,0-.91.89.63.63,0,0,1-.55.51c-.22,0-.42.13-.42.31a.42.42,0,0,1-.24.39c-.14.05-.29.53-.36,1.11-.11.91-.07,1.06.47,1.39a3.24,3.24,0,0,0,1.67.36M496.24,75a2.27,2.27,0,0,0,.72-.12c.68-.24.7-.26.61-1.28s-1.1-2.94-1.59-2.94a4.23,4.23,0,0,1-1.08-.88,2,2,0,0,0-1.88-.89,2.3,2.3,0,0,0-1,.11c0,.07,0,.2-.07.31a.66.66,0,0,1-.17.38c-.36.33-.16,1,.66,2.25C493.75,74,495,75,496.24,75m-42.06-1.09a3.85,3.85,0,0,0,1.06-.24,4.23,4.23,0,0,0,2.61-2.55,1.49,1.49,0,0,1,.35-.79c.45-.29.16-.82-.57-1.13a2.86,2.86,0,0,0-1.12-.28,3.77,3.77,0,0,0-1.27.3c-1.77.62-2.74,2.48-2,3.85.3.59.53.84,1,.84M527.28,0h-.12a10.78,10.78,0,0,0-3,.53c-2.28.72-4,2.13-6.53,4.36A42.61,42.61,0,0,1,514,7.65l-4,2.59-2.89,1.9s-3.37,2.18-5.23,3.56c-2.62-1.52-6.18-3.72-7.55-4.74a84.45,84.45,0,0,0-10.94-5.53,16.48,16.48,0,0,0-5.83-1.15,13,13,0,0,0-3.52.48l-2.17.56A26.07,26.07,0,0,0,466,8.11c-1.2.73-6.13,3.35-11.61,6.11-3.8,1.91-10,5.08-11.4,6l-1.75,1A7,7,0,0,0,438,25.59L437.67,27a1,1,0,0,1-.05.16c-1,1.8-1,3.81-1.09,8.36,0,3.64,0,9.66,0,22.23,0,26.13.15,30.86.83,36.13.07.56.16,2.49.14,4.22,0,4.18-.1,9.36,4.53,12.16l.07,0a9.81,9.81,0,0,0,1.64.79,8.94,8.94,0,0,0,7,2.88h.14a12.14,12.14,0,0,0,5.07-1.07c.4-.2,1.62-.81,4.65-3.68,8.21-7.63,11.7-10.73,14.72-12.94.93.55,2.1,1.25,3.38,2,2.38,1.5,5.37,3.31,6.7,4.06a31.9,31.9,0,0,1,2.82,1.88h0a41.29,41.29,0,0,0,6.81,4.07,8.14,8.14,0,0,0,5.3,2.22h.06l.5,0c2.93,0,6.3-1.57,10-4.67l0,0c.7-.6,2.06-1.67,2.89-2.25l.06,0c.23-.16,2.24-1.6,3.49-2.72a11.76,11.76,0,0,1,1-.74,27.56,27.56,0,0,0,3.61-2.62c.55-.45,1.06-.83,1.3-1A11.71,11.71,0,0,0,525.41,95l.2-.14a3,3,0,0,0,.3-.19l.28-.2c1.06,1,2.38,2.23,3.81,3.62,5.12,5,6.47,6,7,6.36l0,0a12.87,12.87,0,0,0,2.91,2.58,12,12,0,0,0,4.16,3.51,10.24,10.24,0,0,0,6.76,2.72,9,9,0,0,0,6.51-2.81c2.8-2.93,3.18-6.65,3.18-10.24a4.85,4.85,0,0,1,.28-2.31c1.31-3.87,2.13-11.48,2.16-37.43,0-8.42.13-12.91.25-14.31v-.08c.16-2,.29-6.9.29-10.85V28.08a7,7,0,0,0-1.18-3.88l-.62-.93c-1.24-1.89-2.88-3.19-6.88-6.15-1.59-1.18-5.31-3.5-8-5a8.76,8.76,0,0,1-1-.68,86,86,0,0,0-8.22-5.82,14.91,14.91,0,0,1-2.53-1.89c-.39-.41-3.67-3.75-7.8-3.75Zm-1.72,59.68Z" fill="#fff"/><path d="M526.26,7.2c-.79.24-1.63.84-4,2.94a47.91,47.91,0,0,1-4.45,3.36L510.93,18c-2.43,1.57-4.82,3.23-5.3,3.65a12.35,12.35,0,0,1-1.55,1.11,4,4,0,0,0-1.06.77l-.42.45-1-.47a111,111,0,0,1-11.44-6.92A85.24,85.24,0,0,0,481,12a7.94,7.94,0,0,0-5.08-.49l-2.33.6a23,23,0,0,0-4,2c-1.57,1-7,3.81-12.05,6.35s-10,5.11-10.93,5.69l-1.77,1.06-.35,1.48a6.9,6.9,0,0,1-.69,1.86c-.26.33-.31,4.09-.26,27.2,0,25.86.15,30.44.77,35.26a49.35,49.35,0,0,1,.2,5.2c0,4.2.2,5.51,1.15,6.08.38.22.75.38.86.31.4-.24,1.71.44,1.95,1,.44,1.06,1,1.37,2.39,1.35a5.53,5.53,0,0,0,1.94-.33,24.42,24.42,0,0,0,3-2.52c10.11-9.4,13.38-12.21,17.34-14.87l1.77-1.19,1.55.82c.86.44,3.52,2,5.93,3.49s5.31,3.27,6.48,3.94a35.28,35.28,0,0,1,3.69,2.48c1.31,1.06,6.15,3.71,6.75,3.71.09,0,.26.22.37.51s.45.51,1.11.55c1.13.07,3.3-1.1,5.6-3,.88-.75,2.41-1.94,3.42-2.65a36,36,0,0,0,2.92-2.28,16.74,16.74,0,0,1,2.1-1.55,21,21,0,0,0,2.61-1.92,21.69,21.69,0,0,1,2.31-1.71,4.46,4.46,0,0,0,1-.68,8.27,8.27,0,0,1,1.22-.89c.49-.33,1.39-1,2-1.43a13.08,13.08,0,0,1,1.9-1.29l.8-.42,1.5,1.13c.82.62,3.85,3.41,6.73,6.22s5.59,5.3,6,5.59a7,7,0,0,1,1.48,1.37,5.31,5.31,0,0,0,1.48,1.24,3.33,3.33,0,0,1,1.15.95c.73,1.07,1.79,2.06,2.21,2.06a2.18,2.18,0,0,1,1.09.69c1.39,1.46,2.92,1.72,3.93.66s1.24-2.37,1.24-5.4a10.8,10.8,0,0,1,.64-4.55c1.24-3.65,1.77-14.12,1.8-35.19,0-7.57.11-13,.28-14.93.14-1.71.27-6.35.27-10.31V28.08l-.62-.93c-.55-.84-1.5-1.66-5.22-4.4-1.26-.93-4.71-3.1-7.21-4.49a16.55,16.55,0,0,1-2.15-1.46,82.18,82.18,0,0,0-7.14-5.07,21.16,21.16,0,0,1-4.2-3.2A5.13,5.13,0,0,0,527.26,7,4,4,0,0,0,526.26,7.2Zm6.08,25.7A17.37,17.37,0,0,1,535,37.24a8.21,8.21,0,0,0,.82,1.39c.22.22.56.62.78.86a.91.91,0,0,0,.88.36,25.7,25.7,0,0,0,3.92-1c.4-.53,4.47-1,5.5-.6a2.71,2.71,0,0,1,1.55,3.08,2.47,2.47,0,0,1-.7,1.32l-.76.62a15.44,15.44,0,0,1-2.43.78,11,11,0,0,0-2.28.75,4.35,4.35,0,0,1-1.39.49c-1.28.26-1.31.28-1.17.95A2.22,2.22,0,0,0,540,47a8.38,8.38,0,0,1,.79,1.33,14.74,14.74,0,0,0,.78,1.33,19.16,19.16,0,0,1,2.16,4.42c.49,1.88.49,1.9-.26,2.79s-.82.86-1.73.84c-2.19,0-2.74-.64-5.15-5.4a8.72,8.72,0,0,0-.75-1.33,9.77,9.77,0,0,1-.62-1.1,9.92,9.92,0,0,0-1.33-2L533,47l-1.39.26a7.63,7.63,0,0,0-1.77.47c-1.62.91-7.85,1.61-9,1-.77-.37-1.55-1.43-1.24-1.65a1.17,1.17,0,0,0,.36-.69,1.79,1.79,0,0,1,.82-1,8.67,8.67,0,0,0,1.26-.95,1.9,1.9,0,0,1,1.41-.53,18.93,18.93,0,0,0,4.4-.64,6.8,6.8,0,0,1,1.51-.58c.84-.24,1.37-.53,1.37-.71a14.39,14.39,0,0,0-1-2.41,12.08,12.08,0,0,1-1-2.52c0-.24-.09-.44-.22-.44s-.22-.29-.22-.64a1.19,1.19,0,0,1,.22-.8.78.78,0,0,0,.22-.62,3.35,3.35,0,0,1,1.33-2.3C531,31.8,531.42,31.93,532.34,32.9ZM531,49.18c0,.11.24.31.55.44,1,.47.49,2.52-.88,3.37-.42.26-.77.55-.77.64a2.43,2.43,0,0,1-.73.53,9.68,9.68,0,0,0-1.38,1,1.77,1.77,0,0,1-1.43.49c-.47-.05-.76-.18-.71-.36a.22.22,0,0,0-.18-.26c-.11,0-.22-.38-.22-.84a4.06,4.06,0,0,1,1.86-2.92c.31-.16.57-.38.57-.47a3.1,3.1,0,0,1,1-.73c.55-.33,1-.68,1-.79s.31-.23.67-.23S531,49.09,531,49.18ZM479.59,50c.38.29.62.62.51.73a6.9,6.9,0,0,0-.55,1.2c-.4,1-1.53,2.21-2.08,2.21a3.82,3.82,0,0,0-1.26,1,3.22,3.22,0,0,1-1.86,1.12c-.51.09-.91.23-.91.34s-.17.2-.42.2c-.57,0-1-1.11-.84-2.35a2.63,2.63,0,0,1,.95-1.86,10.2,10.2,0,0,1,1.64-1.21,4,4,0,0,0,.88-.56,8.57,8.57,0,0,1,2.79-1.32A2.64,2.64,0,0,1,479.59,50ZM486,55.4c2,2.14,2.23,2.45,2.23,2.78a1.23,1.23,0,0,0,.47.73,4.29,4.29,0,0,1,.82,1c.44.87.95,3,.68,3-.11,0-.2.15-.2.33a.33.33,0,0,1-.33.33.79.79,0,0,0-.53.38c-.13.22-.24.26-.24.11s-.2-.27-.42-.27c-.47,0-1.8-1-1.8-1.37a4.65,4.65,0,0,0-.77-1.13,4.2,4.2,0,0,1-.77-1.08,7.54,7.54,0,0,0-.78-1.33,8,8,0,0,1-.91-1.63c-.06-.29-.22-.53-.33-.53-.33,0-.22-.36.4-1.31C484.33,54.25,484.94,54.25,486,55.4Zm36.74,3.23c.44.24.66.5.66.86a4.79,4.79,0,0,1-1.55,3A29,29,0,0,1,518.81,65a3.19,3.19,0,0,0-.64.51,2.24,2.24,0,0,1-2.59-.27c-.58-.6-.73-1.3-.33-1.55a.27.27,0,0,0,.11-.35c-.09-.11-.05-.2.06-.2s.38-.42.6-.93a4.7,4.7,0,0,1,2.17-2.3c.2-.07.38-.2.38-.31s1.12-.86,2-1.13A2.7,2.7,0,0,1,522.77,58.63ZM467.4,60.17c.4.27.45.45.29,1.11-.22,1-.57,1.48-1.83,2.76-1.46,1.46-1.73,1.66-2.81,2.08s-2.28.34-2.57-.11a3.6,3.6,0,0,1,0-1.17,5.85,5.85,0,0,1,2.68-3.32c.37-.2,1.06-.66,1.55-1A2.26,2.26,0,0,1,467.4,60.17ZM511,67.38a1.07,1.07,0,0,1,.84,1c.27,1.44-.53,2.74-2.32,3.82a14.09,14.09,0,0,0-1.79,1.46A8.5,8.5,0,0,1,505.85,75a4.67,4.67,0,0,1-3.56,0c-.54-.33-.58-.48-.47-1.39.07-.58.22-1.06.36-1.11a.42.42,0,0,0,.24-.39c0-.18.2-.31.42-.31a.63.63,0,0,0,.55-.51,1.67,1.67,0,0,1,.91-.89c.42-.2.77-.46.77-.55s.25-.31.53-.44a8.52,8.52,0,0,0,1.46-1.06A3.84,3.84,0,0,1,511,67.38Zm-53.37,1.84c.73.31,1,.84.57,1.13a1.49,1.49,0,0,0-.35.79,4.23,4.23,0,0,1-2.61,2.55c-1.26.42-1.57.33-2-.6-.7-1.37.27-3.23,2-3.85A2.59,2.59,0,0,1,457.63,69.22Zm37.27.58a4.23,4.23,0,0,0,1.08.88c.49,0,1.53,1.88,1.59,2.94s.07,1-.61,1.28c-1.46.47-2.95-.48-4.54-2.94-.82-1.24-1-1.92-.66-2.25a.66.66,0,0,0,.17-.38c0-.11.05-.24.07-.31a2.3,2.3,0,0,1,1-.11A2,2,0,0,1,494.9,69.8Z" fill="#333"/></svg>