<svg xmlns="http://www.w3.org/2000/svg" xmlns:xlink="http://www.w3.org/1999/xlink" viewBox="0 0 708.96 500.074"><path d="M440.586 267.742h41.662s.073 32.129.073 50.329c0 18.2.236 161.618.236 161.618 0 10.473-8.433 18.994-18.906 19.101-39.693.407-134.994 1.283-219.03 1.283s-179.337-.876-219.03-1.283c-10.473-.107-18.906-8.628-18.906-19.101 0 0 .236-143.418.236-161.618 0-18.2.074-50.329.074-50.329h41.662" fill="#369ccd"/><path d="M244.462 498.304l219.068-1.151c9.204-.048 16.639-7.523 16.639-16.727v-91.572l-.489-117.287a1.579 1.579 0 0 0-1.579-1.572h-37.676l-2.043 1.114h-62.958l-1.486.743v217.265c0 1.682-.593 3.335-1.758 4.548-.568.592-1.239 1.047-1.957 1.047l-125.763-.743-125.763.743c-.718 0-1.388-.455-1.957-1.047-1.165-1.213-1.758-2.866-1.758-4.548V271.854l-1.486-.743H50.541l-2.043-1.114H10.822a1.58 1.58 0 0 0-1.579 1.572l-.488 117.286v91.572c0 9.204 7.435 16.678 16.639 16.727l219.068 1.15z" fill="#9bddf8"/><path d="M244.622 497.721l219.068-1.151c9.204-.048 16.639-7.523 16.639-16.727v-91.572l-.489-117.287a1.579 1.579 0 0 0-1.579-1.572h-37.676l-2.043 1.114h-62.958l-1.486.743v217.265c0 1.682-.593 3.335-1.758 4.548-.568.591-1.239 1.047-1.957 1.047l-125.763-.743-125.763.743c-.718 0-1.388-.455-1.957-1.047-1.165-1.213-1.758-2.867-1.758-4.548V271.271l-1.486-.743H50.701l-2.043-1.114H10.982a1.58 1.58 0 0 0-1.579 1.572l-.489 117.286v91.572c0 9.204 7.435 16.678 16.639 16.727l219.069 1.15z" fill="#1f8abe"/><circle cx="397.929" cy="342.462" r="14.114" fill="#050d24"/><circle cx="397.929" cy="342.462" r="12.731" fill="#204861"/><linearGradient id="a" gradientUnits="userSpaceOnUse" x1="404.615" y1="349.148" x2="390.628" y2="335.161"><stop offset="0" stop-color="#1f8abe"/><stop offset="1" stop-color="#38abce"/></linearGradient><circle cx="397.929" cy="342.462" r="10.86" fill="url(#a)"/><path d="M388.341 345.097c0-7.091 5.749-12.84 12.84-12.84.171 0 .337.019.506.026a10.81 10.81 0 0 0-3.757-.681c-5.998 0-10.86 4.862-10.86 10.86 0 2.125.62 4.101 1.675 5.776a12.76 12.76 0 0 1-.404-3.141z" fill="#b8ffff"/><circle cx="425.332" cy="315.245" r="14.114" fill="#050d24"/><circle cx="425.332" cy="315.245" r="12.731" fill="#204861"/><linearGradient id="b" gradientUnits="userSpaceOnUse" x1="430.811" y1="320.723" x2="418.161" y2="308.073"><stop offset="0" stop-color="#1f8abe"/><stop offset="1" stop-color="#38abce"/></linearGradient><circle cx="425.332" cy="315.245" r="10.86" fill="url(#b)"/><path d="M415.744 317.88c0-7.091 5.749-12.84 12.84-12.84.171 0 .337.019.506.026a10.81 10.81 0 0 0-3.757-.681c-5.998 0-10.86 4.862-10.86 10.86 0 2.125.62 4.101 1.675 5.776a12.76 12.76 0 0 1-.404-3.141z" fill="#b8ffff"/><circle cx="425.332" cy="369.103" r="14.114" fill="#050d24"/><circle cx="425.332" cy="369.103" r="12.731" fill="#204861"/><linearGradient id="c" gradientUnits="userSpaceOnUse" x1="433.597" y1="377.367" x2="419.849" y2="363.619"><stop offset="0" stop-color="#1f8abe"/><stop offset="1" stop-color="#38abce"/></linearGradient><circle cx="425.332" cy="369.103" r="10.86" fill="url(#c)"/><path d="M415.744 371.738c0-7.091 5.749-12.84 12.84-12.84.171 0 .337.019.506.026a10.81 10.81 0 0 0-3.757-.681c-5.998 0-10.86 4.862-10.86 10.86 0 2.125.62 4.101 1.675 5.776a12.765 12.765 0 0 1-.404-3.141z" fill="#b8ffff"/><circle cx="452.902" cy="342.462" r="14.114" fill="#050d24"/><circle cx="452.902" cy="342.462" r="12.731" fill="#204861"/><linearGradient id="d" gradientUnits="userSpaceOnUse" x1="459.216" y1="348.776" x2="444.612" y2="334.172"><stop offset="0" stop-color="#1f8abe"/><stop offset="1" stop-color="#38abce"/></linearGradient><circle cx="452.902" cy="342.462" r="10.86" fill="url(#d)"/><path d="M443.313 345.097c0-7.091 5.749-12.84 12.84-12.84.171 0 .337.019.506.026a10.81 10.81 0 0 0-3.757-.681c-5.998 0-10.86 4.862-10.86 10.86 0 2.125.62 4.101 1.675 5.776a12.807 12.807 0 0 1-.404-3.141z" fill="#b8ffff"/><path d="M244.751 4.706l228.656 5.425 11.616 9.789 1.935 214.939a3.329 3.329 0 0 1-3.323 3.359l-477.824.874a3.33 3.33 0 0 1-3.334-3.432L9.224 16.949l15.397-9.256 220.13-2.987z" fill="#1b1c1b"/><g fill="#474747"><circle cx="53.484" cy="109.096" r="1.857"/><circle cx="53.484" cy="120.796" r="1.857"/><circle cx="53.484" cy="132.497" r="1.857"/><circle cx="65.184" cy="120.796" r="1.857"/><circle cx="41.783" cy="120.796" r="1.857"/></g><g fill="#383838"><circle cx="435.044" cy="109.096" r="1.857"/><circle cx="435.044" cy="120.796" r="1.857"/><circle cx="435.044" cy="132.497" r="1.857"/><circle cx="423.344" cy="120.796" r="1.857"/><circle cx="446.744" cy="120.796" r="1.857"/></g><linearGradient id="e" gradientUnits="userSpaceOnUse" x1="242.55" y1="21.551" x2="249.849" y2="31.075"><stop offset="0" stop-color="#1c1c1c"/><stop offset="1" stop-color="#2c3332"/></linearGradient><circle cx="244.526" cy="24.129" r="7.856" fill="url(#e)"/><circle cx="244.622" cy="24.267" r="7.438" fill="#202423"/><linearGradient id="f" gradientUnits="userSpaceOnUse" x1="242.787" y1="20.637" x2="246.792" y2="28.559"><stop offset="0" stop-color="#1c1c1c"/><stop offset="1" stop-color="#2c3332"/></linearGradient><circle cx="244.622" cy="24.267" r="5.091" fill="url(#f)"/><circle cx="244.622" cy="24.267" r="4.558" fill="#1d1f1f"/><circle cx="244.622" cy="24.267" r=".864" fill="#14100d"/><g fill="#14100d"><circle cx="53.301" cy="108.768" r="1.857"/><circle cx="53.301" cy="120.468" r="1.857"/><circle cx="53.301" cy="132.169" r="1.857"/><circle cx="65.001" cy="120.468" r="1.857"/><circle cx="41.601" cy="120.468" r="1.857"/></g><g fill="#14100d"><circle cx="434.861" cy="108.768" r="1.857"/><circle cx="434.861" cy="120.468" r="1.857"/><circle cx="434.861" cy="132.169" r="1.857"/><circle cx="423.161" cy="120.468" r="1.857"/><circle cx="446.562" cy="120.468" r="1.857"/></g><path d="M10.689 60.544l1.49-.568a3.245 3.245 0 0 0 2.085-3.034V30.469c0-1.348-.83-2.556-2.085-3.034l-1.49-.568v33.677zM478.554 60.544l-1.49-.568a3.245 3.245 0 0 1-2.085-3.034V30.469c0-1.348.83-2.556 2.085-3.034l1.49-.568v33.677z" fill="#383838"/><path d="M9.657 60.544l1.496-.568a3.244 3.244 0 0 0 2.094-3.034V30.469a3.246 3.246 0 0 0-2.094-3.034l-1.496-.568v33.677z" fill="#1a1c1b"/><path d="M479.586 60.544l-1.496-.568a3.244 3.244 0 0 1-2.094-3.034V30.469c0-1.348.834-2.556 2.094-3.034l1.496-.568v33.677z" fill="#141414"/><path d="M244.622 226.077H385.05a2.792 2.792 0 0 0 2.792-2.792V53.431a2.792 2.792 0 0 0-2.792-2.792H104.194a2.792 2.792 0 0 0-2.792 2.792v169.854a2.792 2.792 0 0 0 2.792 2.792h140.428z" fill="#14100d"/><path d="M244.622 222.363h138.942a.192.192 0 0 0 .192-.192V54.545a.192.192 0 0 0-.192-.192H105.679a.192.192 0 0 0-.192.192V222.17c0 .106.086.192.192.192h138.943z" fill="#212121"/><path d="M468.903 265.811l.41-1.929h-9.23v-28.145H28.229v28.145h-8.298l.41 1.929-16.503-.092 5.36 4.226H50.474v-.036h1.94l.04.46c.06.696.643 1.23 1.343 1.23h381.65c.7 0 1.283-.534 1.343-1.23l.04-.46h1.94v.036H480.046l5.492-4.226-16.635.092z" fill="#0a304c"/><path d="M477.235 231.527H436.926c-.748 0-1.354.606-1.354 1.354v.506a.372.372 0 0 1-.369.371l-190.581.241-190.581-.241a.371.371 0 0 1-.369-.371v-.506c0-.748-.606-1.354-1.354-1.354H12.009a.37.37 0 0 0-.37.37v2.473c0 .205.166.37.37.37h37.875a.37.37 0 0 1 .37.383l-.705 20.211h390.146l-.705-20.211a.37.37 0 0 1 .37-.383h37.875a.37.37 0 0 0 .37-.37v-2.473a.37.37 0 0 0-.37-.37z" fill="#17668e"/><path d="M438.004 244.872l.539 8.942H50.701l.582-9.656c-.001-.001 386.721-.799 386.721.714z" fill="#57a9d0"/><circle cx="63.596" cy="334.227" r="46.801" fill="#23537f"/><linearGradient id="g" gradientUnits="userSpaceOnUse" x1="46.822" y1="314.287" x2="89.413" y2="363.316"><stop offset="0" stop-color="#1a75a1"/><stop offset="1" stop-color="#499fc9"/></linearGradient><circle cx="64.629" cy="334.786" r="46.801" fill="url(#g)"/><linearGradient id="h" gradientUnits="userSpaceOnUse" x1="89.786" y1="312.104" x2="29.366" y2="366.581"><stop offset="0" stop-color="#1f8abe"/><stop offset=".478" stop-color="#81c8eb"/><stop offset="1" stop-color="#1f8abe"/></linearGradient><circle cx="64.629" cy="334.786" r="43.086" fill="url(#h)"/><circle cx="64.629" cy="334.786" r="38.312" fill="#136697"/><circle cx="65.372" cy="335.529" r="37.348" fill="#1f8abe"/><circle cx="67.986" cy="338.885" r="28.242" fill="#255373"/><linearGradient id="i" gradientUnits="userSpaceOnUse" x1="77.838" y1="356.219" x2="51.59" y2="313.628"><stop offset="0" stop-color="#787878"/><stop offset="1" stop-color="#bfbfbf"/></linearGradient><circle cx="64.629" cy="334.786" r="27.115" fill="url(#i)"/><linearGradient id="j" gradientUnits="userSpaceOnUse" x1="77.537" y1="349.971" x2="52.037" y2="319.971"><stop offset="0" stop-color="#8c8c8c"/><stop offset="1" stop-color="#c4c4c4"/></linearGradient><circle cx="64.629" cy="334.786" r="25.474" fill="url(#j)"/><linearGradient id="k" gradientUnits="userSpaceOnUse" x1="54.511" y1="320.756" x2="72.36" y2="345.504"><stop offset="0" stop-color="#919191"/><stop offset="1" stop-color="#bfbfbf"/></linearGradient><circle cx="64.629" cy="334.786" r="21.172" fill="url(#k)"/><path d="M94.508 413.514H76.289c-.73 0-1.322-.592-1.322-1.322v-18.219c0-.559-.453-1.012-1.012-1.012H53.942c-.559 0-1.012.453-1.012 1.012v18.219c0 .73-.592 1.322-1.322 1.322H33.389c-.559 0-1.012.453-1.012 1.012v20.014c0 .559.453 1.012 1.012 1.012h18.219c.73 0 1.322.592 1.322 1.322v18.219c0 .559.453 1.012 1.012 1.012h20.014c.559 0 1.012-.453 1.012-1.012v-18.219c0-.73.592-1.322 1.322-1.322h18.219c.559 0 1.012-.453 1.012-1.012v-20.014a1.013 1.013 0 0 0-1.013-1.012z" fill="#14100d"/><path d="M93.444 415H74.382a.9.9 0 0 1-.9-.9v-19.062a.59.59 0 0 0-.591-.591H55.006a.59.59 0 0 0-.591.591V414.1a.9.9 0 0 1-.9.9H34.453a.59.59 0 0 0-.591.591v17.886a.59.59 0 0 0 .591.591h19.062a.9.9 0 0 1 .9.9v19.062a.59.59 0 0 0 .591.591h17.886a.59.59 0 0 0 .591-.591v-19.062a.9.9 0 0 1 .9-.9h19.062a.59.59 0 0 0 .591-.591V415.59a.592.592 0 0 0-.592-.59z" fill="#78bddb"/><defs><path id="l" d="M94.035 433.476a.59.59 0 0 1-.591.591H74.382a.9.9 0 0 0-.9.9v19.062a.59.59 0 0 1-.591.591H55.006a.59.59 0 0 1-.591-.591v-19.062a.9.9 0 0 0-.9-.9H34.453a.59.59 0 0 1-.591-.591V415.59a.59.59 0 0 1 .591-.591h19.062a.9.9 0 0 0 .9-.9v-19.062a.59.59 0 0 1 .591-.591h17.886a.59.59 0 0 1 .591.591V414.1a.9.9 0 0 0 .9.9h19.203a.45.45 0 0 1 .45.45v18.026z"/></defs><use xlink:href="#l" overflow="visible" fill="#22698c"/><clipPath id="m"><use xlink:href="#l" overflow="visible"/></clipPath><path clip-path="url(#m)" fill="none" stroke="#b8ffff" stroke-width="7.429" stroke-linecap="round" stroke-linejoin="round" stroke-miterlimit="10" d="M55.901 437.517v11.734M68.113 395.933H56.812a.912.912 0 0 0-.912.912v18.42c0 .674-.547 1.221-1.221 1.221H36.26a.912.912 0 0 0-.912.912v11.301M88.666 416.486H76.932"/><linearGradient id="n" gradientUnits="userSpaceOnUse" x1="47.629" y1="402.012" x2="72.391" y2="436.184"><stop offset="0" stop-color="#1f8abe"/><stop offset="1" stop-color="#38abce"/></linearGradient><path d="M91.637 416.486h-18.42a1.221 1.221 0 0 1-1.221-1.221v-18.42a.912.912 0 0 0-.912-.912H56.812a.912.912 0 0 0-.912.912v18.42c0 .674-.547 1.221-1.221 1.221H36.26a.912.912 0 0 0-.912.912v14.272c0 .504.408.912.912.912h18.42c.674 0 1.221.547 1.221 1.221v18.42c0 .504.408.912.912.912h14.272a.912.912 0 0 0 .912-.912v-18.42c0-.674.547-1.221 1.221-1.221h18.42a.912.912 0 0 0 .912-.912v-14.272a.913.913 0 0 0-.913-.912z" fill="url(#n)"/><g fill="#d0effe"><path d="M63.949 412.586a.681.681 0 0 1-.681-.681v-10.772a.681.681 0 0 1 1.362 0v10.772a.682.682 0 0 1-.681.681zM63.949 436.481a.681.681 0 0 0-.681.681v10.772a.681.681 0 0 0 1.362 0v-10.772a.682.682 0 0 0-.681-.681zM75.896 424.533c0-.376.305-.681.681-.681h10.772a.681.681 0 0 1 0 1.362H76.577a.68.68 0 0 1-.681-.681zM52.001 424.533a.681.681 0 0 0-.681-.681H40.548a.681.681 0 0 0 0 1.362H51.32a.68.68 0 0 0 .681-.681z"/></g><path d="M386.581 477.045h12.421a3.447 3.447 0 0 0 3.447-3.447v-12.421a3.447 3.447 0 0 0-3.447-3.447h-12.421a3.447 3.447 0 0 0-3.447 3.447v12.421a3.447 3.447 0 0 0 3.447 3.447z" fill="#00132d"/><path d="M385.838 475.627h13.907c.71 0 1.286-.576 1.286-1.286v-13.907c0-.71-.576-1.286-1.286-1.286h-13.907c-.71 0-1.286.576-1.286 1.286v13.907c0 .71.576 1.286 1.286 1.286z" fill="#3c9fd5"/><path d="M115.145 271.271h258.954v217.265c0 1.682-.593 3.335-1.758 4.548L115.145 271.271z" fill="#23537f"/><path d="M121.065 496.329l123.557.649 123.35-.656c.304-.002 3.188-.994 4.37-2.661s1.573-4.313 1.758-5.341l-255.649 5.65c-.001 1.798 2.319 2.358 2.614 2.359z" fill="#23537f"/><path d="M363.481 494.131H118.859c-.718 0-1.388-.455-1.957-1.047-1.165-1.213-1.758-2.867-1.758-4.548V271.271l255.655 219.027s-.878 3.833-7.318 3.833z" fill="#50abd5"/><path d="M244.622 493.388h120.835a6.166 6.166 0 0 0 6.166-6.166V274.923a2.29 2.29 0 0 0-2.29-2.29H119.911a2.29 2.29 0 0 0-2.291 2.29v212.299a6.166 6.166 0 0 0 6.166 6.166h120.836z" fill="#1f8abe"/><path d="M365.629 275.356H123.615c-.986 0-1.785.799-1.785 1.785v187.647h245.583V277.141c0-.986-.799-1.785-1.784-1.785z" fill="#268fc3"/><path d="M367.599 464.973H121.645V277.141c0-1.087.884-1.97 1.97-1.97h242.014c1.087 0 1.97.884 1.97 1.97v187.832zm-245.583-.371h245.212V277.141c0-.881-.717-1.599-1.599-1.599H123.615a1.6 1.6 0 0 0-1.599 1.599v187.461z" fill="#1e1e1e"/><path d="M244.622 458.473h113.656c.943 0 1.707-.764 1.707-1.707V285.627a2.47 2.47 0 0 0-2.47-2.47H131.729a2.47 2.47 0 0 0-2.47 2.47v171.139c0 .943.764 1.707 1.707 1.707h113.656z" fill="#a6d2e8"/><path d="M244.622 457.73h113.656c.943 0 1.707-.764 1.707-1.707V284.884a2.47 2.47 0 0 0-2.47-2.47H131.729a2.47 2.47 0 0 0-2.47 2.47v171.139c0 .943.764 1.707 1.707 1.707h113.656z" fill="#14100d"/><path fill="#212121" d="M244.622 453.134h111.277V286.499H133.345v166.635z"/><path d="M126.138 491.717h236.968a4.127 4.127 0 0 0 4.122-4.122v-22.621H122.016v22.621a4.127 4.127 0 0 0 4.122 4.122z" fill="#2088bd"/><path d="M126.138 491.717h236.968a4.127 4.127 0 0 0 4.122-4.122v-22.621H122.016v22.621a4.127 4.127 0 0 0 4.122 4.122z" fill="#2088bd"/><path d="M121.645 464.602v22.993a4.499 4.499 0 0 0 4.493 4.493h236.968a4.499 4.499 0 0 0 4.493-4.493v-22.993H121.645zm245.768.557v22.435a4.308 4.308 0 0 1-4.308 4.308H126.138a4.308 4.308 0 0 1-4.308-4.308v-22.807h245.583v.372z" fill="#1e1e1e"/><path d="M121.83 465.159v22.435a4.308 4.308 0 0 0 4.308 4.308h236.968a4.308 4.308 0 0 0 4.308-4.308v-22.807H121.83v.372zm.186-.186h245.212v22.621a4.127 4.127 0 0 1-4.122 4.122H126.138a4.127 4.127 0 0 1-4.122-4.122v-22.621z" fill="#1e1e1e"/><linearGradient id="o" gradientUnits="userSpaceOnUse" x1="168.26" y1="481.378" x2="168.26" y2="474.771"><stop offset="0" stop-color="#1f8abe"/><stop offset="1" stop-color="#38abce"/></linearGradient><path fill="url(#o)" stroke="#136b96" stroke-width=".594" stroke-miterlimit="10" d="M143.745 473.648h49.029v10.825h-49.029z"/><linearGradient id="p" gradientUnits="userSpaceOnUse" x1="244.462" y1="481.378" x2="244.462" y2="474.771"><stop offset="0" stop-color="#1f8abe"/><stop offset="1" stop-color="#38abce"/></linearGradient><path fill="url(#p)" stroke="#136b96" stroke-width=".594" stroke-miterlimit="10" d="M219.947 473.648h49.029v10.825h-49.029z"/><linearGradient id="q" gradientUnits="userSpaceOnUse" x1="320.984" y1="481.378" x2="320.984" y2="474.771"><stop offset="0" stop-color="#1f8abe"/><stop offset="1" stop-color="#38abce"/></linearGradient><path fill="url(#q)" stroke="#136b96" stroke-width=".594" stroke-miterlimit="10" d="M296.47 473.648h49.029v10.825H296.47z"/><path d="M48.632 263.718l-.098-15.353.99-11.024-27.167-.065C8.863 237.244 0 247.244 0 259.58v3.891l48.632.247" fill="#40a6d6"/><path fill="#1a5d88" d="M48.632 263.718l.026 4.024H6.995L0 263.47l48.632.248"/><path fill="#0d79ad" d="M17.829 261.613h30.79l.039 6.129H19.129z"/><path d="M17.829 260.87v-8.391a3.824 3.824 0 0 1 3.678-3.821l27.028-1.035.085 13.248H17.829z" fill="#a0e1f1"/><path d="M17.829 261.613v-8.391a3.824 3.824 0 0 1 3.678-3.821l27.028-1.035.085 13.248H17.829z" fill="#14699d"/><path d="M440.612 263.718l.098-15.353-.99-11.024 27.167-.065c13.494-.032 22.357 9.967 22.357 22.303v3.891l-48.632.248" fill="#40a6d6"/><path fill="#1a5d88" d="M440.612 263.718l-.026 4.024h41.662l6.996-4.272-48.632.248"/><path fill="#0d79ad" d="M471.415 261.613h-30.79l-.039 6.129h29.529z"/><path d="M471.415 260.87v-8.391a3.824 3.824 0 0 0-3.678-3.821l-27.028-1.035-.085 13.248h30.791z" fill="#a0e1f1"/><path d="M471.415 261.613v-8.391a3.824 3.824 0 0 0-3.678-3.821l-27.028-1.035-.085 13.248h30.791z" fill="#14699d"/><path d="M6.941 297.132h-.534v5.432H5.59a.483.483 0 0 0-.483.483v2.006c0 .267.216.483.483.483h.817v5.711h.517l.017-14.115z" fill="#9dd1eb"/><path fill="#4ea9d0" d="M482.682 145.436h3.315v50.186h-3.315z"/><path fill="#1d3d51" d="M483.768 145.436h2.009v50.186h-2.009z"/><path fill="#1a7292" d="M485.254 145.436h2.009v50.186h-2.009z"/><path fill="#aeafaf" d="M468.376 157.563h4.361v26.042z"/><g><path d="M482.138 145.436h5.125V24.762c0-11.761-11.02-22.781-22.781-22.781C452.934 1.877 350.334.325 244.622 0 138.91.325 36.31 1.877 24.762 1.981c-11.761 0-22.781 11.02-22.781 22.781v209.979a1.49 1.49 0 0 0 1.491 1.491h6.186v-.062H6.024V25.11c0-9.529 8.399-18.032 17.927-18.161l220.13-2.987 220.13 2.987c9.528.129 17.927 8.632 17.927 18.161v120.326" fill="#1a7292"/><path d="M482.138 144.693V24.367c0-9.529-8.399-18.032-17.927-18.161 0 0-124.653-3.73-220.13-3.73s-220.13 3.73-220.13 3.73c-9.528.129-17.927 8.632-17.927 18.161v211.06h3.633V25.753c0-8.205 8.282-15.6 14.857-15.6h440.214c6.576 0 14.857 7.395 14.857 15.6v118.94h2.553z" fill="#93cbe1"/><path d="M482.138 145.436V25.11c0-9.529-8.399-18.032-17.927-18.161l-220.13-2.987-220.13 2.987c-9.528.129-17.927 8.632-17.927 18.161v211.06h3.633V26.496c0-8.205 8.282-15.6 14.857-15.6h440.214c6.576 0 14.857 7.395 14.857 15.6v118.94h2.553z" fill="#409fcb"/><path d="M486.81 145.105h-5.803v21.805h5.803c.272 0 .492-.22.492-.492v-20.821a.492.492 0 0 0-.492-.492z" fill="#a8a8b4"/><path d="M487.449 145.105h-.422v21.805h.422c.055 0 .099-.22.099-.492v-20.821c0-.272-.044-.492-.099-.492z" fill="#545c67"/><path fill="#d1ced5" d="M481.007 145.105h2.333v21.805h-2.333z"/><path d="M481.007 145.105l-1.741.629a.479.479 0 0 0-.316.45v19.647c0 .202.126.382.316.45l1.741.629v-21.805z" fill="#65656d"/><path d="M484.083 155.958h3.889c.15 0 .271.101.271.227v1.955c0 .125-.121.227-.271.227h-3.889v-2.409z" fill="#434550"/><path d="M484.083 155.958l-3.75.401c-.122.013-.214.1-.214.203v1.2c0 .103.091.19.214.203l3.75.401v-2.408z" fill="#5d5f62"/><path d="M484.083 155.215h3.889c.15 0 .271.101.271.227v1.955c0 .125-.121.227-.271.227h-3.889v-2.409z" fill="#85868f"/><path d="M484.083 155.215l-3.75.401c-.122.013-.214.1-.214.203v1.2c0 .103.091.19.214.203l3.75.401v-2.408z" fill="#d6d7e0"/></g><g><path d="M482.138 195.622h5.125v39.119a1.49 1.49 0 0 1-1.491 1.491h-6.186v-.062h2.552v-40.548" fill="#1a7292"/></g><path d="M465.074 250.872l.121 4.011a.59.59 0 0 0 .572.572l4.391.131a.59.59 0 0 0 .607-.59v-2.232c0-1.29-1.159-2.35-2.449-2.35l-2.619-.149a.591.591 0 0 0-.623.607z" fill="#a0e1f1"/><path d="M464.34 250.217l.13 4.32c.01.336.28.606.616.616l4.728.141a.635.635 0 0 0 .654-.635v-2.404c0-1.389-1.248-2.531-2.637-2.531l-2.82-.16a.635.635 0 0 0-.671.653z" fill="#1b1c1b"/><path d="M464.826 250.617l.121 4.011a.59.59 0 0 0 .572.572l4.391.131a.59.59 0 0 0 .607-.59v-2.232c0-1.29-1.159-2.35-2.449-2.35l-2.619-.149a.59.59 0 0 0-.623.607z" fill="#00feff"/><path fill="#367d9c" d="M483.791 318.334l-.292-2.481h-.729v-2.818h1.021l-.292-2.481h-.729v-6.761h-.827v26.997h.827v-7.157h1.021l-.292-2.481h-.729v-2.818z"/><path d="M9.393 274.118h41.308v-2.847l-2.043-1.114H10.927c-.847 0-1.534.687-1.534 1.534v2.427zM479.851 274.118h-41.308v-2.847l2.043-1.114h37.731c.847 0 1.534.687 1.534 1.534v2.427z" fill="#19537d"/><path d="M9.393 273.375h41.308v-2.847l-2.043-1.114H10.927c-.847 0-1.534.687-1.534 1.534v2.427zM479.851 273.375h-41.308v-2.847l2.043-1.114h37.731c.847 0 1.534.687 1.534 1.534v2.427z" fill="#55aede"/><path fill="#8ac2e1" d="M479.586 195.622h2.552v40.548h-2.552z"/><g><defs><path id="r" d="M385.838 475.627h13.907c.71 0 1.286-.576 1.286-1.286v-13.907c0-.71-.576-1.286-1.286-1.286h-13.907c-.71 0-1.286.576-1.286 1.286v13.907c0 .71.576 1.286 1.286 1.286z"/></defs><use xlink:href="#r" overflow="visible" fill="#22698c"/><clipPath id="s"><use xlink:href="#r" overflow="visible"/></clipPath><path clip-path="url(#s)" fill="none" stroke="#b8ffff" stroke-width="2.229" stroke-linecap="round" stroke-linejoin="round" stroke-miterlimit="10" d="M398.272 460.013h-12.855v12.896"/></g><linearGradient id="t" gradientUnits="userSpaceOnUse" x1="400.746" y1="475.342" x2="385.623" y2="460.219"><stop offset="0" stop-color="#1f8abe"/><stop offset="1" stop-color="#38abce"/></linearGradient><path d="M386.22 474.762h13.143c.444 0 .803-.36.803-.803v-13.143a.803.803 0 0 0-.803-.803H386.22a.803.803 0 0 0-.803.803v13.143c0 .444.359.803.803.803z" fill="url(#t)"/><path d="M438.004 244.872l-.39-6.473s-.743-2.971-2.414-2.971H244.622 54.044c-1.671 0-2.414 2.971-2.414 2.971l-.347 5.758 386.721.715z" fill="#409fcb"/><g><path d="M50.655 268.17a1.361 1.361 0 0 0 1.355 1.244h385.222a1.36 1.36 0 0 0 1.355-1.244l.597-6.928H50.058l.597 6.928z" fill="#204e6d"/></g><g><path fill="#215b87" d="M50.058 261.242h389.128l.509-5.906H49.549z"/></g><g><g fill="#e3f4f5"><path d="M155.503 481.821c-.846 0-1.514-.276-2.005-.83l.392-.501c.434.501.979.752 1.637.752.423 0 .733-.092.932-.274.199-.183.298-.394.298-.634a.684.684 0 0 0-.317-.588 2.33 2.33 0 0 0-.775-.332c-.306-.076-.61-.159-.913-.251s-.56-.243-.771-.454c-.211-.212-.317-.489-.317-.834 0-.428.169-.778.509-1.05.339-.271.77-.407 1.292-.407.767 0 1.383.246 1.848.736l-.391.478c-.371-.417-.875-.626-1.512-.626-.313 0-.57.077-.771.23a.722.722 0 0 0-.302.6c0 .183.077.334.231.454.154.12.345.209.572.267.227.057.475.129.744.215s.517.178.744.274.417.252.572.466c.154.214.231.473.231.775 0 .423-.158.784-.474 1.084-.317.301-.802.45-1.454.45zM161.979 481.727h-3.422v-5.223h3.422v.579h-2.772v1.684h2.717v.579h-2.717v1.802h2.772v.579zM166.16 481.727h-3.078v-5.223h.65v4.644h2.427v.579zM170.608 481.727h-3.422v-5.223h3.422v.579h-2.772v1.684h2.717v.579h-2.717v1.802h2.772v.579zM174.272 481.821c-.763 0-1.401-.252-1.915-.756-.515-.503-.771-1.152-.771-1.945 0-.794.257-1.442.771-1.946s1.152-.756 1.915-.756c.84 0 1.5.345 1.981 1.034l-.541.306a1.656 1.656 0 0 0-.615-.553 1.727 1.727 0 0 0-.826-.207c-.58 0-1.06.198-1.441.595-.381.397-.572.906-.572 1.527 0 .616.192 1.124.576 1.522.384.399.862.6 1.437.6.292 0 .567-.07.826-.212.259-.141.463-.323.615-.548l.548.298c-.505.694-1.168 1.041-1.988 1.041zM179.19 481.727h-.65v-4.644h-1.652v-.579h3.962v.579h-1.66v4.644z"/></g><g fill="#e3f4f5"><path d="M243.263 481.727h-.65v-2.396h-3.054v2.396h-.65v-5.223h.65v2.247h3.054v-2.247h.65v5.223zM248.894 481.054c-.485.512-1.109.768-1.872.768s-1.385-.256-1.868-.768c-.483-.511-.724-1.156-.724-1.934s.241-1.423.724-1.935 1.105-.768 1.868-.768 1.386.256 1.872.768.728 1.156.728 1.935c0 .777-.243 1.423-.728 1.934zm-1.872.188c.574 0 1.039-.2 1.394-.6.355-.398.532-.906.532-1.522s-.177-1.124-.532-1.523c-.355-.399-.82-.599-1.394-.599-.58 0-1.044.198-1.394.595-.35.397-.525.906-.525 1.527 0 .616.175 1.124.525 1.522.35.4.814.6 1.394.6zM255.902 481.727h-.65v-4.393l-1.77 4.393h-.267l-1.777-4.393v4.393h-.65v-5.223h.932l1.629 4.024 1.621-4.024h.932v5.223zM260.702 481.727h-3.422v-5.223h3.422v.579h-2.772v1.684h2.717v.579h-2.717v1.802h2.772v.579z"/></g><g fill="#adadad"><path d="M457.842 184.262c-.485.512-1.109.767-1.871.767s-1.385-.255-1.867-.767c-.483-.512-.725-1.156-.725-1.934s.241-1.422.725-1.934c.482-.512 1.105-.768 1.867-.768s1.386.256 1.871.768c.486.512.729 1.156.729 1.934s-.243 1.422-.729 1.934zm-1.871.188c.574 0 1.039-.2 1.394-.599.355-.399.533-.907.533-1.523 0-.616-.178-1.124-.533-1.523-.354-.399-.819-.599-1.394-.599-.579 0-1.044.198-1.394.595-.35.396-.524.906-.524 1.527 0 .616.175 1.124.524 1.523s.815.599 1.394.599zM460.387 184.935h-.65v-5.223h3.423v.58h-2.772v1.684h2.717v.58h-2.717v2.379zM464.858 184.935h-.65v-5.223h3.423v.58h-2.772v1.684h2.717v.58h-2.717v2.379z"/></g><g fill="#008255"><path d="M442.969 173.328c-.409 0-.775-.069-1.098-.208s-.575-.321-.758-.547l.529-.67c.155.165.35.295.585.392.235.097.471.145.706.145.282 0 .501-.055.656-.166a.51.51 0 0 0 .233-.434.443.443 0 0 0-.227-.413c-.15-.087-.391-.13-.72-.13-.296 0-.491.005-.586.014v-.903c.057.005.252.007.586.007.584 0 .875-.167.875-.501a.454.454 0 0 0-.247-.413c-.164-.097-.374-.145-.628-.145-.461 0-.86.163-1.199.487l-.501-.628c.441-.499 1.042-.748 1.799-.748.551 0 .984.115 1.303.346.317.231.476.542.476.932 0 .282-.101.519-.303.709s-.445.312-.728.363c.278.028.531.143.759.342.229.2.343.462.343.787 0 .409-.17.742-.509.999-.336.255-.787.383-1.346.383zM447.584 173.243h-1.863v-4.707h1.856c.738 0 1.339.216 1.803.649.463.433.695 1 .695 1.701 0 .71-.23 1.281-.691 1.711-.462.431-1.062.646-1.8.646zm-.007-.882c.451 0 .81-.141 1.076-.423.266-.282.398-.633.398-1.051 0-.428-.128-.78-.385-1.055s-.617-.413-1.083-.413h-.861v2.943h.855z"/></g><g fill="#e3f4f5"><path d="M310.456 481.821c-.846 0-1.514-.276-2.004-.83l.392-.501c.433.501.979.752 1.636.752.423 0 .733-.092.933-.274.198-.183.297-.394.297-.634a.683.683 0 0 0-.316-.588 2.339 2.339 0 0 0-.775-.332c-.306-.076-.609-.159-.912-.251s-.561-.243-.771-.454c-.212-.212-.317-.489-.317-.834 0-.428.17-.778.509-1.05.34-.271.771-.407 1.292-.407.768 0 1.384.246 1.849.736l-.392.478c-.371-.417-.875-.626-1.512-.626-.313 0-.57.077-.771.23a.724.724 0 0 0-.301.6c0 .183.076.334.23.454s.345.209.572.267c.227.057.475.129.743.215.27.086.518.178.744.274.228.097.418.252.571.466.154.214.231.473.231.775 0 .423-.158.784-.474 1.084-.318.301-.801.45-1.454.45zM315.405 481.727h-.65v-4.644h-1.651v-.579h3.962v.579h-1.66v4.644zM322.03 481.727h-.744l-.462-1.167h-2.6l-.462 1.167h-.744l2.106-5.223h.807l2.099 5.223zm-1.394-1.738l-1.112-2.819-1.104 2.819h2.216zM326.657 481.727h-.767l-1.324-2.075h-1.049v2.075h-.65v-5.223h2.099c.486 0 .881.144 1.187.431s.458.668.458 1.143c0 .449-.132.807-.396 1.073s-.586.415-.967.446l1.409 2.13zm-1.77-2.646c.309 0 .561-.094.756-.282a.959.959 0 0 0 .294-.721c0-.297-.099-.537-.294-.72s-.447-.274-.756-.274h-1.37v1.997h1.37zM329.657 481.727h-.65v-4.644h-1.651v-.579h3.962v.579h-1.66v4.644z"/></g><g fill="#e3f4f5"><path d="M406.583 470.089h-.65v-5.223h2.099c.507 0 .906.151 1.198.454.293.303.438.676.438 1.119 0 .444-.147.817-.442 1.12s-.692.454-1.194.454h-1.448v2.076zm1.37-2.655c.309 0 .559-.093.752-.278s.29-.424.29-.717c0-.292-.097-.53-.29-.716s-.443-.278-.752-.278h-1.37v1.989h1.37zM414.937 469.415c-.485.512-1.109.768-1.871.768s-1.385-.256-1.867-.768c-.483-.511-.725-1.156-.725-1.934s.241-1.423.725-1.935c.482-.512 1.105-.768 1.867-.768s1.386.256 1.871.768c.486.512.729 1.156.729 1.935 0 .778-.243 1.423-.729 1.934zm-1.871.188c.574 0 1.039-.2 1.394-.6.355-.398.533-.906.533-1.522s-.178-1.124-.533-1.523c-.354-.399-.819-.599-1.394-.599-.579 0-1.044.198-1.394.595-.35.397-.524.906-.524 1.527 0 .616.175 1.124.524 1.522.35.4.815.6 1.394.6zM421.375 470.089h-.705l-1.151-4.213-1.151 4.213h-.704l-1.488-5.223h.721l1.159 4.354 1.198-4.354h.54l1.198 4.354 1.15-4.354h.729l-1.496 5.223zM427.169 470.089h-3.422v-5.223h3.422v.579h-2.772v1.684h2.716v.579h-2.716v1.802h2.772v.579zM432.148 470.089h-.767l-1.324-2.075h-1.049v2.075h-.65v-5.223h2.099c.486 0 .881.144 1.187.431s.458.668.458 1.143c0 .449-.132.807-.396 1.073s-.586.415-.967.446l1.409 2.13zm-1.769-2.647c.309 0 .561-.094.756-.282a.959.959 0 0 0 .294-.721c0-.297-.099-.537-.294-.72s-.447-.274-.756-.274h-1.37v1.997h1.37z"/></g><path d="M398.525 346.64h-1.176v-3.996l-3.727-5.455h1.374l2.933 4.393 2.934-4.393h1.374l-3.712 5.455v3.996zM429.994 319.807h-1.431l-3.019-4.024-3.017 4.024h-1.432l3.685-4.846-3.472-4.605h1.431l2.805 3.77 2.792-3.77h1.444l-3.471 4.591 3.685 4.86zM457.861 346.64h-1.347l-.836-2.111h-4.704l-.836 2.111h-1.346l3.812-9.451h1.459l3.798 9.451zm-2.522-3.146l-2.012-5.102-1.998 5.102h4.01zM426.503 373.595h-4.307v-9.451h4.208c.813 0 1.457.223 1.935.666.477.444.715 1.025.715 1.743 0 .566-.16 1.046-.481 1.438a2.002 2.002 0 0 1-1.176.73c.5.075.933.34 1.296.793.364.454.546.964.546 1.53 0 .766-.243 1.382-.729 1.85-.489.467-1.157.701-2.007.701zm-.298-5.357c.52 0 .921-.142 1.204-.425s.426-.646.426-1.091-.145-.81-.433-1.099c-.288-.288-.688-.432-1.197-.432h-2.833v3.046h2.833zm.071 4.308c.547 0 .975-.146 1.282-.439.307-.292.46-.688.46-1.189 0-.454-.153-.839-.46-1.155-.308-.316-.735-.475-1.282-.475h-2.905v3.259h2.905z" fill="#fbffff"/></g><g fill="none" stroke="#e3f4f5" stroke-width="1.486" stroke-linecap="round" stroke-linejoin="round" stroke-miterlimit="10"><path d="M395.161 464.089a3.907 3.907 0 1 1-4.828 0M392.747 462.838v4.415"/></g><path d="M230.494 473.838l-4.992 5.353h1.468v4.723h7.048v-4.723h1.468l-4.992-5.353zm1.322 8.108h-2.643v-2.44h2.643v2.44z" fill="#e3f4f5"/><g><path d="M704.11 348.522H562.022a4.022 4.022 0 0 0-4.022 4.022V478.54h1.703a.92.92 0 0 1 .92.92v7.327c0 6.181 5.011 11.192 11.192 11.192h124.571c.668 0 1.209-.541 1.209-1.209v-8.507a.74.74 0 0 1 .74-.74h1.952V383.679c0-.921.746-1.667 1.667-1.667h3.565c1.9 0 3.44-1.54 3.44-3.44v-25.199a4.849 4.849 0 0 0-4.849-4.851z" fill="#dadada"/><path d="M704.11 348.522H562.022a4.022 4.022 0 0 0-4.022 4.022v1.622a4.022 4.022 0 0 1 4.022-4.022H704.11a4.85 4.85 0 0 1 4.85 4.85v-1.622a4.85 4.85 0 0 0-4.85-4.85z" fill="#ededed"/><path d="M685.573 485.317H578.152l-10.651-9.533v-118a4.247 4.247 0 0 1 4.247-4.247h113.825a4.247 4.247 0 0 1 4.247 4.247v122.745c0 2.346-1.901 4.247-4.247 4.788z" fill="#b8b9b9"/><path d="M685.932 378.054H571.389v-15.866a4.765 4.765 0 0 1 4.765-4.765h105.582a4.196 4.196 0 0 1 4.196 4.196v16.435z" fill="#fff"/><path d="M620.367 487.697l8.086 6.054a.098.098 0 0 0 .115 0l8.086-6.054a.095.095 0 0 0-.057-.172h-16.173c-.091 0-.13.117-.057.172z" fill="#bababa"/><path d="M697.596 488.265v8.507c0 .668-.541 1.209-1.209 1.209H571.815c-6.181 0-11.192-5.011-11.192-11.192v-7.327a.92.92 0 0 0-.92-.92H558v7.194c0 7.919 6.42 14.339 14.339 14.339h124.692a3.256 3.256 0 0 0 3.256-3.256v-9.293h-1.952a.738.738 0 0 0-.739.739z" fill="#e0e0e0"/><path d="M700.287 487.525h-1.952a.74.74 0 0 0-.74.74v8.507c0 .668-.541 1.209-1.209 1.209H571.815c-6.181 0-11.192-5.011-11.192-11.192v-7.327a.92.92 0 0 0-.92-.92H558" fill="none" stroke="#a1a1a1" stroke-width=".432" stroke-linejoin="round" stroke-miterlimit="10"/><path d="M685.573 353.537H571.748a4.247 4.247 0 0 0-4.247 4.247v117.999l.432-.417V357.784a3.818 3.818 0 0 1 3.814-3.814h113.825a3.818 3.818 0 0 1 3.814 3.814h.432a4.244 4.244 0 0 0-4.245-4.247z" fill="#737373"/><path fill="#9e9e9e" d="M689.387 357.784v122.729l.433.016V357.784z"/><path d="M689.387 480.529c0 1.993-1.622 3.818-3.864 4.355H578.318l-10.384-9.294-.432.193 10.651 9.533h107.421c2.345-.541 4.247-2.442 4.247-4.787h-.434z" fill="#ededed"/><path d="M571.389 474.024l9.869 8.555h100.273c2.43 0 4.401-1.97 4.401-4.401v-13.582H571.389v9.428z" fill="#fff"/><path fill="#f5f5f5" d="M571.389 379.55h114.543v85.047H571.389z"/><g fill="#3e3e44"><path d="M591.039 470.647h.752v4.499h1.49v.752h-2.242v-5.251zM596.319 470.647h.723l1.135 3.164h.015v-3.164h.752v5.251h-.708l-1.15-3.156h-.015v3.156h-.752v-5.251zM603.037 470.647h.626l1.173 5.251h-.752l-.221-1.128h-1.025l-.221 1.128h-.752l1.172-5.251zm.317 1.512h-.015l-.369 1.903h.752l-.368-1.903zM607.757 473.479h2.22v.752h-2.22v-.752zM615.625 474.725a1.209 1.209 0 0 1-.347.853c-.108.11-.234.198-.379.265s-.301.1-.468.1c-.143 0-.288-.02-.435-.059a1.045 1.045 0 0 1-.69-.583 1.37 1.37 0 0 1-.114-.597v-2.892c0-.172.03-.331.089-.479.059-.147.142-.275.25-.384.108-.108.237-.193.387-.255a1.31 1.31 0 0 1 .498-.092c.172 0 .332.031.479.092.147.062.275.147.383.259.108.11.193.243.255.398.061.154.092.323.092.505v.295h-.752v-.251a.616.616 0 0 0-.125-.384.409.409 0 0 0-.339-.162c-.187 0-.311.059-.372.174a.92.92 0 0 0-.092.438v2.685c0 .152.033.28.1.383.066.104.186.155.357.155a.594.594 0 0 0 .159-.025.421.421 0 0 0 .269-.247.651.651 0 0 0 .044-.259v-.258h.752v.325zM619.312 471.355h-.87v-.708h2.492v.708h-.87v4.543h-.752v-4.543zM623.848 470.647h1.209c.885 0 1.327.514 1.327 1.542 0 .305-.048.566-.144.785s-.264.395-.505.527l.812 2.396h-.796l-.701-2.242h-.45v2.242h-.752v-5.25zm.751 2.346h.428c.133 0 .239-.019.317-.056s.139-.09.181-.158a.678.678 0 0 0 .085-.255c.015-.101.022-.218.022-.35 0-.133-.007-.25-.022-.351a.643.643 0 0 0-.092-.258.42.42 0 0 0-.195-.159.895.895 0 0 0-.332-.052h-.391v1.639zM629.541 473.479h2.22v.752h-2.22v-.752zM635.854 470.647h.626l1.173 5.251h-.752l-.221-1.128h-1.025l-.222 1.128h-.752l1.173-5.251zm.317 1.512h-.016l-.368 1.903h.752l-.368-1.903zM640.558 471.887c0-.211.037-.398.11-.561.074-.162.171-.296.292-.401.12-.106.255-.186.405-.24a1.33 1.33 0 0 1 .907 0c.149.055.285.134.405.24.121.105.218.239.291.401.074.162.111.35.111.561v2.772c0 .207-.037.387-.111.539l.465.376-.383.457-.443-.361a1.099 1.099 0 0 1-.372.206 1.309 1.309 0 0 1-.87-.015 1.257 1.257 0 0 1-.405-.239 1.166 1.166 0 0 1-.292-.398 1.345 1.345 0 0 1-.11-.564v-2.773zm.752 2.772c0 .183.051.316.151.402a.531.531 0 0 0 .52.1l-.34-.273.384-.457.303.243v-2.787c0-.182-.051-.315-.151-.402-.102-.086-.221-.129-.358-.129s-.257.043-.357.129c-.101.087-.151.221-.151.402v2.772zM646.325 470.647h2.242v.708h-1.489v1.542h1.298v.707h-1.298v1.542h1.489v.752h-2.242v-5.251zM651.634 470.647h1.129c.206 0 .388.027.546.081a1.135 1.135 0 0 1 .693.771c.05.184.074.434.074.748 0 .231-.014.429-.041.594a1.224 1.224 0 0 1-.173.461 1.096 1.096 0 0 1-.413.401c-.172.097-.398.145-.679.145h-.383v2.05h-.753v-5.251zm.753 2.493h.361a.772.772 0 0 0 .354-.066c.084-.045.146-.104.185-.181s.063-.169.07-.276a5.614 5.614 0 0 0 0-.712c-.008-.11-.029-.207-.066-.288s-.095-.145-.174-.191a.664.664 0 0 0-.339-.07h-.391v1.784zM657.188 473.479h2.22v.752h-2.22v-.752zM665.786 475.898h-.708l-.575-3.407h-.015l-.568 3.407h-.708l-.781-5.251h.796l.377 3.334h.015l.59-3.334h.575l.612 3.415h.015l.361-3.415h.796l-.782 5.251zM669.489 471.887c0-.211.037-.398.11-.561.074-.162.171-.296.292-.401.12-.106.255-.186.405-.24a1.33 1.33 0 0 1 .907 0c.149.055.285.134.405.24.121.105.218.239.291.401.074.162.111.35.111.561v2.772c0 .217-.037.405-.111.564a1.15 1.15 0 0 1-.291.398 1.31 1.31 0 0 1-1.717 0 1.166 1.166 0 0 1-.292-.398 1.345 1.345 0 0 1-.11-.564v-2.772zm.752 2.772c0 .183.051.316.151.402s.22.129.357.129.257-.043.358-.129c.101-.086.151-.22.151-.402v-2.772c0-.182-.051-.315-.151-.402-.102-.086-.221-.129-.358-.129s-.257.043-.357.129c-.101.087-.151.221-.151.402v2.772zM675.255 470.647h1.21c.885 0 1.327.514 1.327 1.542 0 .305-.048.566-.144.785s-.265.395-.505.527l.811 2.396h-.796l-.701-2.242h-.449v2.242h-.753v-5.25zm.753 2.346h.428a.745.745 0 0 0 .316-.056.407.407 0 0 0 .181-.158c.042-.069.07-.154.085-.255s.022-.218.022-.35c0-.133-.008-.25-.022-.351s-.045-.187-.092-.258-.112-.125-.195-.159a.895.895 0 0 0-.332-.052h-.391v1.639z"/></g><path d="M630.771 372.033a.21.21 0 0 1-.209.208h-3.99a.209.209 0 0 1-.21-.208v-2.887c0-.115.093-.208.21-.208h3.99c.115 0 .21.093.21.208v2.887zm-.173-3.96h-4.063a1.07 1.07 0 0 0-1.066 1.068v2.9c0 .585.478 1.065 1.066 1.065h4.063a1.07 1.07 0 0 0 1.067-1.066v-2.899a1.07 1.07 0 0 0-1.067-1.068" fill="#919396"/><path d="M641.704 367.25s2.991-.479 2.991-2.34c0-1.82-3.185-2.566-6.573-2.566-3.058 0-5.068.374-5.068.374v1.654c1.388-.336 2.715-.622 4.525-.622 1.942 0 3.424.58 3.424 1.398 0 .987-1.466 1.551-4.62 1.551h-1.45v1.488h1.347c3.322 0 5.212.5 5.212 1.72 0 1.088-1.688 1.75-3.793 1.75-1.835 0-3.514-.392-4.876-.77v1.784c.654.112 2.39.461 5.622.461 3.581 0 6.696-1.15 6.696-3.18 0-1.703-2.159-2.702-3.437-2.702" fill="#bf2424"/><path d="M583.996 363.737v3.73h-.933v-5.035h.796l3.775 3.667v-3.667h.921v5.035h-.728l-3.83-3.73zM593.34 363.737v3.73h-.931v-5.035h.795l3.775 3.667v-3.667h.921v5.035h-.728l-3.831-3.73zM612.71 363.737v3.73h-.932v-5.035h.795l3.775 3.667v-3.667h.921v5.035h-.728l-3.831-3.73zM590.774 362.432h.172v5.034h-.932v-5.034h.76zM604.248 362.432h.172v.866h-2.248v4.168h-.968v-4.168h-2.247v-.866h5.291zM610.22 362.432h.174v.866H606.4v1.13h3.091v.866h-3.09v1.305h3.994v.867h-4.918v-5.034h4.743zM622.451 366.6h-2.863v-3.302h2.863c.896 0 1.215.89 1.215 1.65 0 .762-.319 1.651-1.215 1.651m1.53-3.432c-.364-.48-.904-.736-1.556-.736h-3.735v5.035h3.735c.652 0 1.192-.255 1.556-.736.341-.448.522-1.063.522-1.784 0-.716-.18-1.334-.522-1.779M630.771 366.392a.208.208 0 0 1-.209.207h-3.99a.208.208 0 0 1-.21-.207v-2.887c0-.114.093-.207.21-.207h3.99c.115 0 .21.093.21.207v2.887zm-.173-3.96h-4.063a1.07 1.07 0 0 0-1.066 1.068v2.9a1.07 1.07 0 0 0 1.066 1.067h4.063a1.07 1.07 0 0 0 1.067-1.067v-2.9a1.07 1.07 0 0 0-1.067-1.068M660.89 370.995c.966.38 3.007.69 4.6.69 1.742 0 2.466-.597 2.466-1.348 0-.674-.67-1.07-2.597-1.775-2.574-.951-4.46-1.7-4.46-3.39 0-1.751 2.27-2.78 5.734-2.78 1.86 0 2.498.118 3.68.334l.008 1.66c-1.16-.22-2.188-.6-3.785-.6-1.71 0-2.44.544-2.44 1.104 0 .813 1.122 1.2 3.093 1.903 2.742.982 4.268 1.739 4.268 3.394 0 1.703-1.91 2.932-6.22 2.932-1.77 0-2.99-.117-4.347-.335v-1.79zM651.715 363.858h-2.05v7.764h2.05c3.15 0 5.135-1.346 5.135-3.866 0-2.519-1.987-3.898-5.135-3.898m5.506 8.487c-1.016.459-2.934.751-4.613.751h-6.41v-10.683h6.41c1.68 0 3.597.295 4.613.754 2.47 1.115 3.275 2.899 3.275 4.589.001 1.691-.797 3.473-3.275 4.589M672.326 371.641h-.337v-.18h.895v.18h-.342v1.004h-.216v-1.004zM674.023 372.162c-.007-.153-.016-.338-.014-.497h-.006a5.852 5.852 0 0 1-.14.454l-.174.513h-.165l-.158-.506a5.488 5.488 0 0 1-.119-.461h-.004a23.07 23.07 0 0 1-.022.505l-.026.476h-.203l.08-1.185h.285l.155.476c.042.139.08.28.11.412h.004c.031-.13.072-.275.117-.414l.163-.475h.282l.07 1.185h-.212l-.023-.483z" fill="#221d1f"/><g><path fill="#a17d47" d="M669.326 460.876l1.969 1.817 1.352-2.113 1.999 1.487 1.131-2.351 2.272 1.02.489-2.41 2.495.369-.165-2.349 2.28-.074-.651-2.42 2.061-.994-1.477-2.041 1.359-2.067-2.186-.948.73-2.213-2.43-.197.025-2.378-2.455.486-.427-2.335-2.273 1.071-.772-2.242-1.992 1.432-1.365-2.033-1.969 1.797-1.969-1.797-1.368 2.033-1.991-1.432-.772 2.242-2.276-1.071-.424 2.335-2.453-.486.023 2.378-2.43.197.729 2.213-2.187.948 1.361 2.067-1.477 2.041 2.061.994-.652 2.42 2.278.074-.163 2.349 2.498-.369.488 2.41 2.268-1.02 1.132 2.351 2-1.487 1.355 2.113z"/><path d="M669.298 459.762c6.835 0 12.374-3.909 12.374-8.729 0-4.823-5.539-8.731-12.374-8.731-6.831 0-12.371 3.909-12.371 8.731 0 4.821 5.541 8.729 12.371 8.729" fill="#fff"/><path d="M669.298 459.762c6.835 0 12.374-3.909 12.374-8.729 0-4.823-5.539-8.731-12.374-8.731-6.831 0-12.371 3.909-12.371 8.731 0 4.821 5.541 8.729 12.371 8.729z" fill="none" stroke="#a17d47" stroke-width=".026"/><path d="M669.298 458.87c6.301 0 11.412-3.508 11.412-7.836 0-4.33-5.111-7.837-11.412-7.837-6.297 0-11.409 3.509-11.409 7.837s5.112 7.836 11.409 7.836" fill="#fff"/><path d="M658.045 451.034c0-4.237 5.047-7.683 11.254-7.683s11.257 3.446 11.257 7.683-5.051 7.681-11.257 7.681c-6.206.002-11.254-3.444-11.254-7.681m-.309 0c0 4.405 5.187 7.991 11.564 7.991 6.379 0 11.568-3.586 11.568-7.991 0-4.408-5.189-7.992-11.568-7.992-6.375 0-11.564 3.584-11.564 7.992" fill="#a17d47"/><g fill="#a17d47"><path d="M669.298 453.486h-7.346a2.345 2.345 0 0 1-2.345-2.349l.541.001a1.81 1.81 0 0 0 1.805 1.808h7.346v.54h-.001z"/><path d="M669.294 448.793h-7.341a2.346 2.346 0 0 0-2.345 2.348h.541c0-1.008.813-1.807 1.805-1.807h7.341l-.001-.541zM669.294 453.486h7.346a2.345 2.345 0 0 0 2.348-2.345h-.545c0 .997-.814 1.805-1.805 1.805h-7.343v.54z"/><path d="M669.24 448.793h7.399a2.35 2.35 0 0 1 2.348 2.351h-.545c0-1.008-.814-1.81-1.805-1.81h-7.398l.001-.541z"/></g><g fill="#a17d47"><path d="M662.087 450.639l1.017 1.627h.071v-.623l-1.016-1.632h-.072z"/><path d="M661.458 450.011h.678v2.255h-.678zM663.126 450.011h.678v2.255h-.678z"/></g><g fill="#a17d47"><path d="M664.203 450.011h.678v.398h-.678zM664.203 450.742h.678v1.526h-.678z"/></g><g fill="#a17d47"><path d="M667.717 450.335h.668v1.931h-.668z"/><path d="M667.338 450.609h1.431v.161h-1.431z"/></g><path d="M670.667 451.773c-.182.331-.459.54-.972.54-.616 0-1.014-.321-1.014-.809 0-.485.456-.801 1.014-.801.602 0 1.01.33 1.011.791l-.001.02h-1.312v-.236h.571v-.162c0-.158-.126-.282-.268-.282s-.268.126-.268.282l-.001.388.001.393v.003c0 .156.126.281.268.281a.277.277 0 0 0 .268-.281c0-.043-.003-.082-.003-.127h.706zM676.143 451.113l-.003.385c0 .122 0 .286.003.402.004.156.124.284.266.284.142 0 .265-.124.265-.281l.003.014.003-.412h.744c0 .528-.457.804-1.014.804-.56 0-1.017-.279-1.017-.804 0-.487.456-.806 1.017-.806.557 0 1.014.272 1.014.806h-.744c0-.127-.001-.285-.003-.405l-.003.013c0-.155-.124-.282-.265-.282-.14-.001-.266.125-.266.282" fill="#a17d47"/><g fill="#a17d47"><path d="M674.765 451.516c0-.437-.321-.793-.765-.793-.443 0-.767.356-.767.793 0 .435.324.793.767.793.444-.001.765-.358.765-.793l-.301-.003c0 .104-.007.307-.007.353 0 .116-.116.217-.243.217-.13 0-.245-.098-.245-.217 0-.046-.007-.246-.007-.35 0-.108.007-.312.007-.353 0-.12.114-.221.245-.221.127 0 .243.107.243.221 0 .04.007.243.007.35l.301.003z"/><path d="M674.451 451.047v-1.036h.678v2.255h-.678v-.286c.09-.182.088-.786 0-.933"/></g><g fill="#a17d47"><path d="M665.287 450.742h.68v1.526h-.68z"/><path d="M665.934 451.043v.418c.006-.036.033-.104.033-.2 0-.174.146-.312.327-.312.179 0 .323.139.323.312h.001v1.005h.678v-.869h-.001c.001-.019.016-.178-.051-.308a.756.756 0 0 0-.668-.415c-.276 0-.459.101-.642.255v.114z"/></g><g fill="#a17d47"><path d="M670.976 450.742h.68v1.526h-.68z"/><path d="M671.621 451.043v.418c.003-.036.036-.104.036-.2 0-.174.145-.312.323-.312.179 0 .324.139.324.312v1.005h.68v-.869c0-.019.013-.178-.052-.308a.76.76 0 0 0-.668-.415c-.272 0-.457.101-.641.255l-.002.114z"/></g><g fill="#a17d47"><path d="M666.974 456.126c0 .108.055.32.415.32.198 0 .415-.049.415-.256 0-.152-.15-.197-.362-.246l-.211-.048c-.318-.075-.625-.146-.625-.582 0-.221.12-.609.761-.609.605 0 .767.398.768.639h-.396c-.012-.088-.045-.298-.405-.298-.158 0-.344.058-.344.236 0 .156.127.188.208.208l.482.119c.272.067.519.176.519.531 0 .593-.606.648-.78.648-.719 0-.846-.417-.846-.661l.401-.001zM669.362 455.854c-.022-.236-.174-.308-.299-.308-.181 0-.276.116-.298.308h.597zm.378.453c-.101.352-.392.464-.645.464-.414 0-.729-.195-.729-.798 0-.181.062-.741.706-.741.286 0 .687.139.687.806v.071h-1.005c.013.108.035.356.343.356.11 0 .22-.056.252-.158h.391zM670.823 456.023c-.038.026-.1.054-.259.075-.145.027-.263.062-.263.223 0 .135.104.176.181.176.168 0 .341-.11.341-.291v-.183zm.378.427c0 .171.038.21.084.227v.056h-.414a.614.614 0 0 1-.038-.171.6.6 0 0 1-.476.21c-.218 0-.444-.123-.444-.422 0-.288.182-.434.43-.47l.346-.055c.061-.006.135-.032.135-.113 0-.163-.155-.171-.253-.171-.191 0-.224.116-.236.204h-.372c.042-.448.354-.512.654-.512.208 0 .586.064.586.424v.793h-.002zM671.556 454.757h.386v1.975h-.386z"/><g><path d="M665.631 447.125c.226 0 .54-.136.54-.69 0-.555-.314-.693-.54-.693-.223 0-.535.137-.535.693 0 .554.314.69.535.69m0-1.731c.265 0 .952.114.952 1.042s-.687 1.042-.952 1.042c-.257 0-.949-.113-.949-1.042.002-.928.692-1.042.949-1.042M667.33 446.233h.252v-.273h-.252v-.061c0-.117.003-.162.135-.162h.106v-.311c-.032-.001-.084-.004-.197-.004-.265 0-.428.114-.428.419v.119h-.214v.273h.214v1.191h.385v-1.191h-.001zM668.247 446.233h.252v-.273h-.252v-.061c0-.117.003-.162.135-.162h.107v-.311c-.032-.001-.085-.004-.2-.004-.262 0-.427.114-.427.419v.119h-.213v.273h.213v1.191h.385v-1.191zM669.115 447.425h-.386v-1.464h.386v1.464zm0-1.641h-.386v-.359h.386v.359zM670.743 446.891a.629.629 0 0 1-.67.573c-.55 0-.677-.422-.677-.732 0-.473.207-.81.703-.81.231 0 .612.104.647.561h-.389c-.019-.097-.078-.25-.256-.237-.243 0-.307.242-.307.422 0 .161.007.479.299.479.195 0 .259-.188.259-.255l.391-.001zM671.41 447.425h-.385v-1.464h.385v1.464zm0-1.641h-.385v-.359h.385v.359zM672.589 446.71c-.039.029-.103.055-.262.08-.143.026-.262.061-.262.22 0 .136.104.175.181.175.168 0 .341-.108.341-.289l.002-.186zm.375.427c0 .174.038.214.088.227v.059h-.418a.61.61 0 0 1-.036-.175.592.592 0 0 1-.472.214c-.221 0-.448-.126-.448-.427 0-.289.181-.434.428-.469l.347-.055c.061-.006.135-.032.135-.113 0-.163-.153-.172-.255-.172-.194 0-.227.119-.236.204h-.372c.043-.448.353-.512.654-.512.207 0 .581.064.581.424l.004.795zM673.321 445.449h.386v1.976h-.386z"/></g></g><g fill="#a17d47"><path d="M679.983 459.486v.138h-.391v1.025h-.159v-1.025h-.392v-.138zM680.124 459.486h.227l.334.984.333-.984h.224v1.163h-.15v-.687l.001-.119.001-.178-.331.984h-.156l-.334-.984v.038l.001.13c.003.059.003.103.003.129v.687h-.15l-.003-1.163z"/></g></g><g fill="#181822"><path d="M610.726 457.668h1.001l1.385 2.241-.001-2.241h.994v3.213h-.992l-1.393-2.241v2.241h-.995zM619.506 457.998h.967v.433h.523v.317h-.523l.001 2.133h-.968l.001-2.133h-.526v-.317h.526zM614.658 458.744h.966v2.137h-.966zM614.656 457.667h.968v.657h-.968zM631.981 459.796v.453c0 .341-.201.481-.395.481s-.396-.141-.396-.481v-.461l.001-.446c0-.339.202-.479.395-.479s.395.139.395.479l.001.455-.001-.001zm-.388-1.198c-.78 0-1.412.537-1.412 1.2 0 .663.633 1.2 1.412 1.2.78 0 1.412-.537 1.412-1.2 0-.662-.632-1.2-1.412-1.2zM628.912 457.668h.954v3.214h-.955v-.124a1.16 1.16 0 0 1-1.112.08 1.14 1.14 0 0 1-.661-1.059c0-.564.532-1.18 1.229-1.119.229.02.392.104.547.191-.002-.496-.002-1.183-.002-1.183zm.007 2.134v-.382c0-.33-.228-.415-.378-.415-.154 0-.379.084-.379.415v.761c0 .33.225.417.379.417.151 0 .379-.086.379-.417l-.001-.379zM617.887 458.645c.361-.01 1.094.226 1.089 1.072v1.163h-.96v-1.403c0-.186-.178-.393-.442-.393-.263 0-.459.207-.459.393l.001 1.403h-.959v-2.137l.96-.001v.225a1.17 1.17 0 0 1 .77-.322zM625.74 458.645c.361-.01 1.094.226 1.089 1.072v1.163h-.96v-1.403c0-.186-.178-.393-.442-.393-.263 0-.459.207-.459.393l.001 1.403h-.959l.001-2.137.959-.001v.225c.185-.175.451-.312.77-.322zM621.897 459.489c-.001-.187.003-.312.064-.419a.394.394 0 0 1 .68 0c.061.107.064.232.063.419h-.807zm.802.645l.001.13c0 .391-.257.478-.4.478s-.404-.087-.404-.478l.001-.441h1.82c0-.663-.64-1.212-1.426-1.212s-1.423.537-1.423 1.2c0 .663.637 1.2 1.423 1.2.652 0 1.203-.372 1.371-.877h-.963zM633.156 457.907c.156 0 .234.053.234.158 0 .072-.045.127-.12.145l.123.245h-.148l-.105-.224h-.065v.224h-.134v-.548h.215zm-.013-.214a.495.495 0 1 0 .001.991.495.495 0 0 0-.001-.991zm.4.495a.4.4 0 1 1-.8 0 .4.4 0 0 1 .8 0zm-.469-.038h.065c.076 0 .113-.023.113-.078 0-.057-.039-.082-.12-.082h-.059v.16h.001z"/><path d="M611.601 462.693c-2.173-.001-3.624-1.54-3.624-3.407s1.455-3.424 3.621-3.419h20.468c2.166-.005 3.621 1.552 3.621 3.419s-1.452 3.406-3.624 3.407h-20.462zm.007-5.986c-1.72.003-2.776 1.153-2.776 2.575 0 1.422 1.049 2.581 2.776 2.575h20.448c1.727.006 2.776-1.153 2.776-2.575 0-1.422-1.056-2.571-2.776-2.575h-20.448z"/></g><g><path d="M576.026 434.137h19.931v28.556h-19.931z"/><g fill="#fff"><path d="M577.078 438.841h17.814v17.714h-17.814zM577.986 458.314l-.007.091c-.015.289-.115.512-.459.512-.507 0-.538-.309-.538-.732v-.226c.013-.406.046-.703.538-.703.274.003.428.139.449.41a.54.54 0 0 1 .007.121h-.303c-.013-.102-.003-.293-.153-.293-.243 0-.222.279-.222.403v.437c0 .132.011.344.222.344.168 0 .15-.26.156-.362h.31v-.002zM578.218 457.958c.012-.406.046-.703.538-.703.493 0 .525.298.538.703v.226c0 .423-.032.733-.538.733-.505 0-.538-.309-.538-.733v-.226zm.316.374c0 .131.01.343.222.343.219 0 .222-.216.222-.369v-.404c0-.126.007-.409-.222-.409-.241 0-.222.279-.222.402v.437zM580.313 457.293h.309v1.584h-.322l-.241-.565a5.415 5.415 0 0 1-.219-.63h-.004c.011.133.024.292.034.454.009.157.015.314.015.442v.299h-.308v-1.584h.319l.239.578c.078.183.146.371.22.629h.004a26.07 26.07 0 0 1-.031-.451 7.654 7.654 0 0 1-.016-.445l.001-.311zM580.809 457.293h1.026v.234h-.358v1.351h-.309v-1.351h-.359zM582.011 458.878v-1.585h.867v.234h-.559v.398h.516v.233h-.516v.488h.559v.232zM583.857 457.293h.308v1.584h-.321l-.239-.565a5.225 5.225 0 0 1-.22-.63h-.004c.011.133.024.292.034.454.01.157.015.314.015.442v.299h-.309v-1.584h.319l.24.578c.08.183.144.371.22.629h.004a18.866 18.866 0 0 1-.031-.451 7.654 7.654 0 0 1-.016-.445v-.311zM584.353 457.293h1.026v.234h-.359v1.351h-.308v-1.351h-.359zM586.418 458.194v.684h-.309v-1.585h.583c.267 0 .468.088.468.38 0 .173-.045.354-.251.382v.006c.183.023.237.133.237.288 0 .064-.009.452.066.5v.03h-.34c-.036-.101-.029-.298-.032-.4-.001-.098 0-.23-.105-.261-.084-.024-.173-.023-.261-.023l-.056-.001zm0-.231h.242c.101-.006.18-.067.18-.229 0-.177-.077-.206-.192-.208h-.229v.437zM587.328 458.878l.394-1.584h.414l.374 1.584h-.328l-.081-.401h-.361l-.081.401h-.331zm.459-.633h.264l-.083-.451c-.015-.074-.021-.144-.031-.219a1.607 1.607 0 0 0-.011-.107h-.003a.717.717 0 0 0-.011.107c-.011.074-.018.145-.032.219l-.093.451zM588.569 457.293h1.027v.234h-.359v1.351h-.308v-1.351h-.36zM589.772 458.878v-1.585h.867v.234h-.558v.398h.513v.233h-.513v.488h.558v.232zM590.89 458.878v-1.584h.642c.074 0 .225.03.319.178.07.111.088.288.088.547 0 .313 0 .676-.251.82a.504.504 0 0 1-.229.039h-.569zm.441-.232c.275 0 .293-.14.293-.598 0-.376-.041-.522-.225-.522h-.202v1.12h.134zM592.769 458.878v-1.585h.496c.133 0 .264.007.35.117.07.087.083.177.083.284 0 .138-.032.274-.198.333v.004c.171.024.239.163.239.369a.702.702 0 0 1-.022.193c-.066.201-.185.286-.403.286l-.545-.001zm.372-.233c.065 0 .131.006.187-.015.083-.037.093-.142.093-.22 0-.17-.035-.244-.225-.244h-.119v.48h.064zm-.009-.711c.076 0 .171.004.221-.057.028-.041.032-.093.032-.171 0-.117-.025-.175-.167-.178h-.142v.406h.056zM594.385 457.708c.032.079.059.16.072.244h.005c.023-.124.065-.211.101-.298l.146-.36h.337l-.435.91v.674h-.307v-.674l-.428-.91h.336l.173.414zM577.037 461.688v-2.343h3.325v.549h-1.99v.335h1.684v.545h-1.684v.368h2.067v.546zM583.783 460.027c-.021-.079-.096-.131-.192-.159a1.183 1.183 0 0 0-.345-.043c-.293 0-.426.051-.426.135 0 .349 2.345.133 2.345.982 0 .543-.788.807-1.908.807-1.076 0-1.778-.36-1.806-.782h1.279c.028.084.108.146.222.184.107.039.247.059.379.059.334 0 .556-.062.556-.172 0-.354-2.346-.111-2.346-1.005 0-.499.749-.748 1.768-.748 1.132 0 1.647.333 1.744.741l-1.27.001zM587.602 460.873v.815h-1.337v-2.342h1.925c1.358 0 1.806.213 1.806.668 0 .271-.209.496-.684.573.43.091.691.147.691.621 0 .305-.018.409.14.409v.071h-1.353c-.034-.052-.067-.202-.067-.41 0-.306-.091-.405-.713-.405h-.408zm0-.514h.525c.414 0 .635-.061.635-.223 0-.164-.225-.243-.538-.243h-.622v.466zM591.3 461.688v-2.342h1.948c.918 0 1.649.126 1.649.59 0 .241-.273.417-.532.51.441.065.678.284.678.536 0 .524-.695.706-1.755.706H591.3zm1.336-.978v.431h.583c.33 0 .579-.039.579-.215 0-.205-.31-.216-.737-.216h-.425zm0-.816v.391h.556c.265 0 .459-.07.459-.205 0-.183-.263-.185-.543-.185h-.472v-.001zM594.115 437.427v-.621h.907v-.574h-.907v-.531h.937v-.58h-1.663V438h1.668v-.573zM592.244 436.732h-.011l-.562-1.611h-.746V438h.688l-.066-1.603.009-.007.563 1.61h.742v-2.879h-.688zM589.516 435.071c-.635 0-.989.306-.989.857v1.174c0 .649.254.986.989.986.736 0 .977-.337.977-.986v-1.174c0-.551-.344-.857-.977-.857m.25 2.086c0 .166-.017.41-.25.41-.234 0-.265-.244-.265-.41v-1.181c0-.178.031-.388.261-.388.237 0 .254.21.254.388v1.181zM587.12 436.064h-.01l-.363-.943h-.733l.73 1.67V438h.724v-1.209l.747-1.67h-.724zM585.75 436.955c-.011-.199-.156-.33-.357-.37v-.012c.305-.125.383-.348.383-.654 0-.57-.299-.798-.89-.798h-1.062v2.88h.726v-1.137h.242c.168.015.223.128.247.306.018.177.001.414.015.668.003.055.02.11.041.163h.792v-.038a.2.2 0 0 1-.07-.096c-.041-.186-.046-.682-.067-.912m-.952-.607h-.247v-.706c.355-.006.507.006.507.347 0 .18-.05.359-.26.359M582.42 436.806h.909v-.574h-.909v-.531h.94v-.579h-1.664V438h1.71v-.573h-.986zM580.238 437.142h-.008l-.371-2.021h-.725l.671 2.88h.854l.678-2.88h-.726zM577.853 436.806h.916v-.574h-.916v-.531h.945v-.579h-1.674V438h1.723v-.573h-.994z"/></g><path d="M579.104 442.261l11.012-2.789 1.01 3.564-6.493 1.646.416 1.459 6.491-1.643 1.013 3.565-6.496 1.644.434 1.537 6.495-1.644 1.01 3.565-11.011 2.789zM577.602 440.424c0-.515.458-.935 1.031-.935.567 0 1.024.42 1.024.935 0 .521-.456.941-1.024.941-.574.001-1.031-.42-1.031-.941m1.873 0c0-.424-.375-.77-.842-.77-.469 0-.85.346-.85.77 0 .428.381.776.85.776.467.001.842-.347.842-.776m-1.062.066v.475h-.188v-1.106h.392c.222 0 .447.055.447.306 0 .126-.081.227-.241.258v.005c.163.029.185.099.204.218.018.104.03.219.072.319h-.242c-.014-.062-.032-.135-.041-.199-.011-.094-.011-.184-.067-.234-.046-.043-.109-.038-.175-.043l-.161.001m.201-.174c.176-.005.219-.075.219-.156 0-.083-.043-.128-.194-.128h-.226v.284h.201z"/></g></g></svg>