<svg xmlns="http://www.w3.org/2000/svg" viewBox="0 0 1000 114"><title>logo</title><g id="Calque_1" data-name="Calque 1"><rect x="396.08421" y="20.10922" width="18.73472" height="17.3334" stroke-width="7" stroke="#fff" stroke-linecap="round" stroke-linejoin="round" fill="#fff"/><rect x="444.37441" y="13.60222" width="158.3049" height="33.5581" stroke-width="7" stroke="#fff" stroke-linecap="round" stroke-linejoin="round" fill="#fff"/></g><g id="Calque_2" data-name="Calque 2"><path d="M422.51911,66.33622q-4.12065,0-8.24018-.0381a31.39761,31.39761,0,0,1-9.211-61.2314,32.3071,32.3071,0,0,1,10.34668-1.562c14.9316.0049,64.7031.00528,64.7031.00528l64.09669.003q20.231,0,40.4649-.01318a31.34092,31.34092,0,0,1,16.4345,4.3174c8.7139,5.249,13.83013,12.894,15.20413,22.7236a31.43612,31.43612,0,0,1-21.35643,34.2383,32.24053,32.24053,0,0,1-10.1992,1.5425c-38.2217-.0039-150.30079-.0039-150.30079-.0039C432.47421,66.31772,424.51231,66.33622,422.51911,66.33622Zm-7.5449-49.2329a17.80283,17.80283,0,0,0-17.8106,15.77,17.42868,17.42868,0,0,0,3.6514,12.9741,17.60592,17.60592,0,0,0,14.6172,6.8887l169.18159-.0014a21.77242,21.77242,0,0,0,3.8252-.3086,17.6161,17.6161,0,0,0,11.667-7.6895,17.37271,17.37271,0,0,0,2.5781-13.5391,17.6956,17.6956,0,0,0-17.5517-14.0927l-82.56347-.0039Z" fill="#fe0000" fill-rule="evenodd"/><path d="M584.7086,7a27.69144,27.69144,0,0,1,14.5995,3.81542c7.65283,4.6091,12.3041,11.3425,13.5439,20.2101a27.75185,27.75185,0,0,1-18.98207,30.4277,28.95193,28.95193,0,0,1-9.10873,1.3686h-.00527q-48.6833-.00525-97.36432-.0039-16.25952,0-32.5114.00008-10.20525,0-20.419-.00008c-3.9761,0-7.9514.01808-11.9275.01808q-4.1088,0-8.2179-.03768a27.89764,27.89764,0,0,1-8.1428-54.4107,29.003,29.003,0,0,1,9.23992-1.3829h.01338q22.6602.0072,45.3197.0059,19.65375,0,39.3076-.0009,21.90615,0,43.80979.0031,20.4081,0,40.8183-.01282h.0269M415.432,56.236q16.926-.00087,33.8501-.00078,25.38675,0,50.77582.0004,42.2779,0,84.55587-.0011a25.33694,25.33694,0,0,0,4.437-.3624,21.30276,21.30276,0,0,0-3.9185-42.2672q-40.883-.00438-81.76209-.004-44.19615,0-88.396.0025A21.29819,21.29819,0,0,0,398.07821,48.03a21.1089,21.1089,0,0,0,17.3538,8.206M584.7087,0h-.027q-20.4129.01533-40.8183.01282L521.9593.01132,500.05361.00972l-19.654.0005L460.746.01062q-22.6587,0-45.3175-.0059a35.77387,35.77387,0,0,0-11.4657,1.741,34.89748,34.89748,0,0,0,10.2786,68.0522c2.4477.02608,5.0826.0382,8.2923.0382q2.99,0,5.9798-.00912,2.97375-.00687,5.9477-.00908l20.419.00008h32.5114q48.6819,0,97.36359.00382a35.67364,35.67364,0,0,0,11.2986-1.7179,34.75113,34.75113,0,0,0,23.7308-38.0472A34.21763,34.21763,0,0,0,602.9196,4.819,34.75611,34.75611,0,0,0,584.7087,0Zm-169.278,49.236a14.12407,14.12407,0,0,1-11.8794-5.57008,14.293,14.293,0,0,1,2.3432-19.9122,14.1619,14.1619,0,0,1,9.0797-3.1503l88.396-.0025q40.88264,0,81.76129.004A14.25606,14.25606,0,0,1,599.269,31.964a13.90554,13.90554,0,0,1-2.0769,10.833,14.14174,14.14174,0,0,1-9.3614,6.18232,18.345,18.345,0,0,1-3.2169.2552l-84.55587.0011L474.67,49.23542l-25.3879-.0002-33.8505.00078Z" fill="#fff"/><path d="M566.1841,89.15362a4.11059,4.11059,0,0,1-3.0244-1.1963,3.8738,3.8738,0,0,1-.5107-.6377c-.7754,1.2266-2.1738,1.8135-4.24807,1.8135-.29783,0-1.42973-.01512-1.69723-.01512-.3155,0-.6299.00482-.9444.02442-.1201.0073-.23137.0102-.3369.0102a3.99834,3.99834,0,0,1-2.9267-1.1665,3.8583,3.8583,0,0,1-.4493-.5415,3.88813,3.88813,0,0,1-.4404.5303,4.06154,4.06154,0,0,1-2.9775,1.1743c-.042,0-.1758-.0029-.2188-.0044-.5312-.019-1.0654-.0259-1.6006-.0259-.65717,0-1.3154.0103-1.9716.022-.02057.0005-.0889.001-.1094.001a3.885,3.885,0,0,1-4.0235-4.0381q.0249-7.22835-.0029-14.4619a3.96231,3.96231,0,0,1,1.1338-2.8955,3.89455,3.89455,0,0,1,2.8398-1.1275l10.77063.0039c1.02827,0,2.05557.0064,3.08387.0127,1.0137.0064,2.0274.0127,3.04113.0127,1.31727,0,2.63467-.0107,3.95107-.0464l.2158-.0029a8.2604,8.2604,0,0,1,8.1338,8.3765c-.1074,2.7607-.0683,5.61858-.0312,8.3818l.01953,1.4732a4.20841,4.20841,0,0,1-1.168,3.1323,4.10143,4.10143,0,0,1-3.01263,1.186s-.1846-.0019-.2842-.0063c-.4961-.0205-.9971-.0332-1.4981-.0332-.457,0-.914.0102-1.36907.0346C566.4097,89.15022,566.2935,89.15362,566.1841,89.15362Z" fill="#fe0000" fill-rule="evenodd"/><path d="M565.7381,70.09892a4.76605,4.76605,0,0,1,4.6363,4.7417c-.1292,3.3397-.055,6.6876-.0143,10.0317.0072.6214-.1787.7765-.6803.7765q-.0636,0-.1338-.0031c-.5495-.0232-1.1002-.03672-1.6506-.03672-.51847,0-1.0366.012-1.5531.03952-.0561.0031-.1088.0047-.1585.0047-.5311,0-.7047-.187-.6956-.82422.0421-3.04188.02-6.08488.0172-9.12718-.0007-1.56-.5307-2.0899-2.0797-2.0903q-.5343,0-1.0684-.0001-.267,0-.5341.0001c-1.4155.0022-1.93527.5128-1.9375,1.9161q-.00435,4.3197-.0007,8.63938c0,1.46622,0,1.46622-1.484,1.46622-.5667,0-1.1342-.015-1.7009-.015-.3854,0-.7704.007-1.1543.0303q-.0658.004-.1238.0041c-.5017,0-.5864-.2278-.5817-.7432.027-3.1119.0142-6.2242.0128-9.3361-.0014-1.3811-.5713-1.9589-1.9268-1.9618q-.4905-.00045-.9811-.0007-.41475,0-.83.0011c-1.35327.0039-1.8589.4946-1.861,1.8368-.0058,3.15828-.0172,6.317.0121,9.475.0047.549-.1353.7252-.6377.7252q-.0438,0-.0914-.0018c-.5748-.0206-1.1499-.0282-1.7254-.0282-.6788,0-1.3578.0105-2.0361.0225l-.0482.0004c-.365,0-.5244-.0822-.5231-.5235q.0246-7.2459-.0028-14.4919c-.0018-.4661.20233-.5075.4742-.5075.0573,0,.1178.0019.1799.0019q3.4536.00285,6.9067.00218,1.8414,0,3.68353-.00008c2.04287,0,4.086.0254,6.129.0254,1.34807,0,2.69617-.0111,4.04327-.0478.0402-.0011.0799-.0016.1199-.0016m.0001-7c-.1041,0-.2074.0014-.312.0042-1.1301.0308-2.3542.0452-3.85127.0452-1.007,0-2.014-.00632-3.02113-.0126-1.036-.0064-2.072-.0128-3.10787-.0128l-1.842.00008H551.7624q-3.4509,0-6.9011-.00218l-.1855-.0019a7.42466,7.42466,0,0,0-5.31987,2.1576,7.50167,7.50167,0,0,0-2.15423,5.3762c.0199,4.3714.0208,9.0936.0028,14.4419a7.49755,7.49755,0,0,0,2.1547,5.3818,7.38611,7.38611,0,0,0,5.3683,2.1654c.04143,0,.131-.00082.17243-.0015.63627-.0112,1.27427-.0214,1.91187-.0214.4916,0,.98313.00608,1.47413.0237.118.0043.23267.0063.34277.0063a7.802,7.802,0,0,0,3.4074-.7542,7.77661,7.77661,0,0,0,3.3859.7579c.1727,0,.3564-.0052.55193-.0172.19257-.0117.42407-.0173.72617-.0173.2523,0,.5049.0036.7575.007.3145.0041.6291.0081.9434.0081a9.45048,9.45048,0,0,0,4.2276-.7988,7.84216,7.84216,0,0,0,3.5552.8188c.1695,0,.3492-.0047.5403-.0151.3602-.0192.7576-.02912,1.1713-.02912.4246,0,.868.00992,1.3556.03052.1461.0063.2911.0093.4288.0093a7.52828,7.52828,0,0,0,5.5013-2.2259,7.6534,7.6534,0,0,0,2.1785-5.6318l-.0188-1.4348c-.0388-2.8599-.0755-5.5611.0283-8.2451a11.75929,11.75929,0,0,0-11.6309-12.0123Z" fill="#fff"/><path d="M563.2291,110.37282c-.543-.0214-1.085-.0307-1.627-.0307-.583,0-1.166.0107-1.748.0288-.03717.0015-.1407.0029-.1778.0029a3.96551,3.96551,0,0,1-2.89837-1.1494,3.827,3.827,0,0,1-.43753-.5249,3.79891,3.79891,0,0,1-.43647.5229,3.96845,3.96845,0,0,1-2.90433,1.1524c-.0342,0-.127-.0015-.1612-.0024q-.93165-.02865-1.8574-.0298-.873,0-1.74507.0302c-.042.0015-.15923.0039-.20123.0039a3.98672,3.98672,0,0,1-2.9189-1.1586,3.76147,3.76147,0,0,1-.4776-.587c-.75,1.14988-2.07127,1.73-3.957,1.73l-1.9121-.0054c-.45117,0-.9033.003-1.3545.0127-.0264.0005-.09367.0015-.1201.0015a3.89348,3.89348,0,0,1-2.8379-1.1274,3.937,3.937,0,0,1-1.126-2.8794q.02055-7.2363-.0058-14.4702a3.96837,3.96837,0,0,1,1.1298-2.9078,3.91417,3.91417,0,0,1,2.8877-1.1308l10.836.0044c1.0185,0,2.0371.0078,3.05663.0156,1.001.0078,2.001.0156,3.002.0156,1.52437,0,2.77237-.0185,3.92577-.0586l.2558-.0044a8.1335,8.1335,0,0,1,5.7559,2.4956,7.98253,7.98253,0,0,1,2.3349,5.7876c-.0625,2.6788-.042,5.4322-.0215,8.0948l.0137,1.9795a4.1046,4.1046,0,0,1-1.1445,3.038,3.98683,3.98683,0,0,1-2.91207,1.1548S563.275,110.37482,563.2291,110.37282Z" fill="#fe0000" fill-rule="evenodd"/><path d="M559.4181,91.32722a4.75021,4.75021,0,0,1,4.5925,4.7014c-.0792,3.3902-.0285,6.7838-.0093,10.176.0028.466-.0688.6729-.5559.6729-.0249,0-.0511-.0006-.0782-.0017-.5866-.0236-1.1744-.0339-1.7625-.0339-.6206,0-1.2414.0115-1.8611.03108-.0231.00082-.0454.00112-.0669.00112-.4404,0-.5415-.1609-.5386-.61812.022-3.13618.01283-6.27278.0113-9.40958-.0014-1.4372-.5456-1.9896-1.9568-1.99042-.44167,0-.8836-.00308-1.32567-.00308q-.4175,0-.83523.0052a1.37379,1.37379,0,0,0-1.4697,1.3498,11.237,11.237,0,0,0-.0258,1.1833c-.0022,2.9506-.0114,5.901.0085,8.8519.0028.45-.084.6315-.54377.6315l-.05893-.0009q-.979-.02985-1.9589-.031-.9369,0-1.87317.0325c-.02593.001-.05073.0015-.07463.0015-.4862,0-.5658-.199-.5623-.6711.0213-3.1133.0128-6.227.00993-9.3399-.00143-1.4801-.52993-2.00972-1.99533-2.00972q-.5346,0-1.0698-.00058-.4062,0-.8128.0014c-1.179.0035-1.7296.5456-1.7325,1.7503-.0085,3.0201-.0028,6.0406-.0028,9.0612,0,1.1926,0,1.1926-1.1884,1.1926-.6345,0-1.2688-.0053-1.903-.0053-.4808,0-.9617.0031-1.442.0138l-.0411.0005c-.357,0-.46527-.1138-.4645-.4982.0135-4.8323.0199-9.6649-.0057-14.4972-.0033-.4954.2017-.5203.52193-.5203l.09787.0003q2.9625.006,5.9249.0049,2.40435,0,4.8087-.0006c2.0191,0,4.0386.03118,6.0572.03118,1.35,0,2.6998-.014,4.0481-.06048.0449-.00152.0895-.0023.1344-.0023m0-7c-.1251,0-.24917.0021-.3744.0064-1.1149.0385-2.3246.05638-3.8081.05638-.9912,0-1.98267-.00778-2.9742-.01538-1.0277-.0079-2.0554-.0158-3.083-.0158l-2.4056.0003-2.403.0003q-2.95545,0-5.911-.0048l-.11187-.0004a7.377,7.377,0,0,0-5.37683,2.1657,7.51464,7.51464,0,0,0-2.145,5.4009c.0265,4.98518.0183,9.8828.0056,14.4314a7.351,7.351,0,0,0,7.4645,7.5177c.05173,0,.14473-.0011.1964-.0022.42933-.0096.858-.0121,1.2867-.0121l.9219.0027.9811.0026a9.44155,9.44155,0,0,0,3.9039-.7721,7.77406,7.77406,0,0,0,3.4501.7879c.1068,0,.21763-.002.3333-.0062.5111-.0184,1.0569-.0278,1.6145-.0278q.87315,0,1.7459.0278c.0963.0028.1857.0041.27193.0041a7.76463,7.76463,0,0,0,3.33867-.737,7.76064,7.76064,0,0,0,3.3371.7365c.0943,0,.19223-.0014.2938-.0047.5405-.0172,1.0875-.0275,1.6342-.0275.5161,0,1.0144.0095,1.481.0283.1266.005.2458.0073.3597.0073a7.4369,7.4369,0,0,0,7.5558-7.71452l-.0138-1.99988c-.02047-2.752-.04-5.3514.0213-7.97112a11.45348,11.45348,0,0,0-3.32977-8.315,11.65334,11.65334,0,0,0-8.26083-3.54978Z" fill="#fff"/><path d="M504.55821,89.14922a3.98469,3.98469,0,0,1-4.1338-4.28222c-.3252.00052-1.7129.00052-2.0821-.00048l.003.1338a3.97821,3.97821,0,0,1-1.0987,2.9731,3.93325,3.93325,0,0,1-2.9052,1.1709c-.02448,0-.087-.001-.1114-.0014q-.9477-.0198-1.8925-.0196-.97275,0-1.9434.0181h-.0029a3.89985,3.89985,0,0,1-4.11328-4.0606c.00578-1.1821-.001-2.3637-.00882-3.5454-.0127-2.3086-.0273-4.6963.0537-7.0761.0703-2.02932.9229-4.9185,4.58112-7.1704a4.794,4.794,0,0,1,2.55068-.67l9.0372.0098q1.1484,0,2.2959-.01372h.0029a6.29444,6.29444,0,0,1,4.3828,1.64312,9.13739,9.13739,0,0,1,3.3213,7.27488c-.0801,2.70212-.05078,5.48932-.0215,8.18512l.01272,1.2172a4.096,4.096,0,0,1-1.14942,3.043,4.03683,4.03683,0,0,1-2.9619,1.168s-.1641-.002-.2022-.0034c-.5742-.0176-1.1543-.02792-1.7353-.02792-.5469,0-1.0948.00932-1.6407.02982Z" fill="#fe0000" fill-rule="evenodd"/><path d="M504.88571,70.11412a2.7239,2.7239,0,0,1,1.9216.7226,5.74076,5.74076,0,0,1,2.18962,4.5905c-.095,3.1784-.04222,6.3614-.01072,9.5425.0054.5396-.152.6768-.612.6768-.0284,0-.0579-.0006-.0886-.0016q-.926-.02838-1.85368-.0298-.88458,0-1.76772.032c-.0374.0014-.07328.0022-.1076.0022-.483,0-.66168-.1498-.6323-.7099.0514-.9962-.005-1.9968.0229-2.9951.0119-.4238-.0726-.594-.5388-.594l-.02048.0001q-1.95543.0183-3.911.0174-2.04993,0-4.09962-.0152h-.0168c-.4028,0-.5472.0913-.533.5299.0328,1.06648-.0072,2.1363.0192,3.204.0097.4066-.0955.55748-.5046.55748l-.0388-.00038q-.9789-.02085-1.9588-.0203-1.00605,0-2.0119.0188l-.0363.0003c-.3929,0-.5207-.1237-.5186-.5459.0165-3.5061-.0764-7.01552.0436-10.518a5.31754,5.31754,0,0,1,2.9173-4.3092,1.32751,1.32751,0,0,1,.7146-.1505c.1029,0,.2062.0031.3073.0031q1.4982.00135,2.9958.0012,1.2888,0,2.5775-.0002c1.0473,0,2.0945.0055,3.1418.0055.7871,0,1.5744-.0031,2.3614-.014l.0487-.0003m-9.5269,7.7704.0543-.0006c.5844-.0108,1.169-.01392,1.7539-.01392.7206,0,1.4416.00462,2.1625.00462h.0456c.7349,0,1.47-.0032,2.2052-.0032.6322,0,1.26462.0024,1.8969.0111l.0253.0002c.3405,0,.4585-.1023.4439-.4655-.0286-.7177.0122-1.4375-.01348-2.1546a1.60761,1.60761,0,0,0-1.67972-1.6482q-1.45275-.0084-2.9054-.00842-1.43205,0-2.86488.00842a1.47482,1.47482,0,0,0-1.64042,1.6297c-.0207.6948.0292,1.3926-.0165,2.0846-.03.4635.1437.5558.5328.5558m9.5269-14.7704c-.0315,0-.1117.0006-.1432.00088-.7569.01052-1.5119.01342-2.2669.01342l-1.5526-.0028-1.5892-.0027-1.2894.00008-1.288.00012-2.9894-.0012-.0497-.0007-.2641-.0025a8.22814,8.22814,0,0,0-4.387,1.19128c-5.2397,3.22692-6.1592,7.66712-6.2408,10.02672-.0841,2.45628-.0698,4.88328-.056,7.2304.0068,1.1656.0139,2.3313.0084,3.4965a7.3913,7.3913,0,0,0,7.5185,7.5788c.04162,0,.1195-.0006.161-.00142q.94515-.01707,1.8872-.01768.90495,0,1.8093.01868c.0498.001.1385.002.1883.002a7.50364,7.50364,0,0,0,5.067-1.89748,7.61535,7.61535,0,0,0,5.1475,1.9028q.17865,0,.3731-.0072c.4988-.0188,1.0005-.027,1.50222-.027.54628,0,1.09268.0098,1.63828.0265.1.0032.2041.0049.304.0049a7.46741,7.46741,0,0,0,7.6116-7.7463l-.0125-1.2066c-.03-2.7878-.0583-5.421.0205-8.0573a12.61043,12.61043,0,0,0-4.4574-9.9605,9.67536,9.67536,0,0,0-6.6507-2.5617Z" fill="#fff"/><path d="M466.63821,89.14092c-.5205-.0112-1.039-.0156-1.5586-.0156-.5781,0-1.1562.0054-1.7343.01268h-.001a3.94361,3.94361,0,0,1-2.8955-1.15038,3.86791,3.86791,0,0,1-1.086-2.8755l.0059-.2505H457.273l.00592.1929a3.83681,3.83681,0,0,1-3.94142,4.0869c-.7481-.0103-1.42-.0151-2.0928-.0151q-.99465,0-1.9903.0146h-.0029a3.84022,3.84022,0,0,1-4.0137-3.9946q.0147-7.251-.0058-14.5259a3.85749,3.85749,0,0,1,4.00492-4.002c1.43158.0044,5.82028.0049,5.82028.0049l5.6494.0039q1.607,0,3.2139-.0136h.0009a6.17145,6.17145,0,0,1,4.1924,1.5732c3.49712,3.1011,4.3223,7.5059,2.1768,11.3555a7.17682,7.17682,0,0,1,.3594,2.541c-.0225.9971-.0137,2.001,0,3.0044a3.83136,3.83136,0,0,1-3.9102,4.0547C466.71441,89.14242,466.66361,89.14142,466.63821,89.14092Z" fill="#fe0000" fill-rule="evenodd"/><path d="M463.98541,70.11352a2.598,2.598,0,0,1,1.8047.69c2.2297,1.9782,2.9131,4.7238,1.2513,7.35748a2.06793,2.06793,0,0,0-.19,2.21572,3.33449,3.33449,0,0,1,.3,1.6226c-.0243,1.044-.015,2.0895-.00148,3.1343.00408.3153-.02512.50838-.40992.50838l-.0265-.00028q-.81375-.01758-1.6278-.0163c-.5952,0-1.1906.0055-1.7857.0131l-.0189.0001c-.319,0-.4267-.119-.419-.4439.018-.7423.0222-1.4865-.0013-2.2285a1.4756,1.4756,0,0,0-1.6661-1.6033q-1.50525-.00225-3.0106-.0026-1.386,0-2.772.0033a1.48969,1.48969,0,0,0-1.6325,1.5765q-.0342,1.1136.0015,2.2292c.0119.3551-.0956.4723-.44418.4723l-.02432-.0002q-1.0365-.01515-2.0735-.0153-1.01865,0-2.0371.0153l-.02408.0002c-.35272,0-.44162-.12662-.44022-.4762q.01515-7.2795-.0057-14.5597c-.002-.4619.2013-.4871.503-.487l.0905.00028q2.00415.00558,4.0083.00452,1.7226,0,3.4453-.0006c1.3129,0,2.6254.0043,3.938.0043q1.61895,0,3.2377-.0136l.0306-.0001m-7.5254,7.7651c.60292,0,1.2058-.004,1.809-.004h.0398c.6255,0,1.2508.00338,1.8763.00338q.5925,0,1.1852-.00578a1.31618,1.31618,0,0,0,1.49262-1.4355c.015-.3942.01418-.7891.00068-1.183a1.49165,1.49165,0,0,0-1.70468-1.6404q-.16488-.0009-.32972-.0008c-.8768,0-1.754.0163-2.6307.0163-.5675,0-1.1349-.00682-1.70158-.0294-.187-.0075-.36162-.0115-.52512-.0115-1.9621,0-2.281.5846-2.19788,2.8163a1.34492,1.34492,0,0,0,1.47258,1.4666c.4045.006.8089.0078,1.2135.0078m7.5254-14.7651-.099.00048q-1.5849.01563-3.1693.01322l-1.9573-.00222-1.9807-.00208-1.7243.0003-1.721.0003q-1.9947,0-3.989-.00452l-.1098-.00038a7.36085,7.36085,0,0,0-5.3568,2.1578A7.4753,7.4753,0,0,0,441.732,70.636c.0213,4.95372.0153,9.90362.0057,14.51482a7.33467,7.33467,0,0,0,7.44022,7.4908c.03428,0,.09268-.0004.127-.0009q.96927-.0147,1.93418-.0146.986,0,1.9715.0146c.034.0005.0924.0009.12632.0009a7.44231,7.44231,0,0,0,4.98468-1.8491,7.40772,7.40772,0,0,0,4.9595,1.8461c.0365,0,.09182-.0003.1283-.0009.5456-.007,1.111-.0123,1.6763-.0123.49222,0,.9844.004,1.4763.0147.0505.0011.1275.00188.178.00188a7.3265,7.3265,0,0,0,7.4093-7.60068c-.012-.9334-.022-1.92632.0002-2.8791a11.44666,11.44666,0,0,0-.1571-2.2416,12.43832,12.43832,0,0,0-3.5567-14.3533,9.58553,9.58553,0,0,0-6.4503-2.4538Z" fill="#fff"/><path d="M381.86093,89.14092q-2.79933-.00945-5.59182-.0083-3.44385-.00225-6.8887-.0142a8.12879,8.12879,0,0,1-4.7773-1.5776,6.60883,6.60883,0,0,1-2.8233-5.415q-.0102-2.576-.0068-5.1602,0-3.26655-.0137-6.5337a3.85745,3.85745,0,0,1,4.0078-4.0088c1.50882.00488,6.1797.0054,6.1797.0054l5.7705.002q2.001,0,4-.0123a4.04034,4.04034,0,0,1,3.0518,1.209,3.9682,3.9682,0,0,1,1.0625,3.0269,16.72334,16.72334,0,0,0-.0029,1.9673,4.18318,4.18318,0,0,1-.9073,3.0683,4.54263,4.54263,0,0,1,.1289,1.4878,10.028,10.028,0,0,0,0,1.3911,4.42672,4.42672,0,0,1-.165,1.6148,4.05711,4.05711,0,0,1,.9404,3.084c-.0341.4404-.0195.9677-.0039,1.5263l.0069.26128a3.927,3.927,0,0,1-1.09178,2.92872,3.887,3.887,0,0,1-2.86332,1.1572Z" fill="#fe0000" fill-rule="evenodd"/><path d="M381.76431,69.91822c.4225,0,.59462.0939.5708.5647a20.37952,20.37952,0,0,0,.0015,2.36808c.0381.58172-.1004.77792-.7114.77792l-.03528-.0002c-1.605-.0178-3.21012-.0225-4.81542-.0225-1.7392,0-3.4785.0055-5.21758.0057-.112,0-.22432-.0032-.33632-.0032-.0973,0-.1943.0024-.29068.0114a1.35426,1.35426,0,1,0,.07018,2.7052c.65382.0079,1.3075.0102,1.9613.0102.8791,0,1.7584-.0041,2.63752-.0041.98138.0002,1.963.00658,2.94448.00658.8069,0,1.6139-.00428,2.42052-.01978l.04588-.0005c.466,0,.5816.1546.5494.6168a13.52705,13.52705,0,0,0,0,1.88c.0334.4737-.0939.6146-.5754.6146l-.0224-.00012q-2.43615-.01932-4.8721-.01608-2.3715,0-4.7431.0032l-.03028.0001-.094-.0001a1.62917,1.62917,0,0,0-.69552.1086,1.51482,1.51482,0,0,0-.9502,1.5397,1.6,1.6,0,0,0,1.5396,1.2644q2.55975.0045,5.1192.006,2.7006,0,5.4017-.0139l.0261-.0001c.4966,0,.7204.093.6749.6661a20.801,20.801,0,0,0-.0083,2.1585c.0084.34058-.071.4953-.4547.4953h-.0052c-4.1574-.0143-8.3148-.0011-12.4719-.0225a4.59484,4.59484,0,0,1-2.7298-.9038,3.11449,3.11449,0,0,1-1.3883-2.5981c-.01458-3.90132.0036-7.8035-.0197-11.7056-.0025-.4635.201-.4873.5045-.4873l.0919.0003q2.0577.00615,4.1151.005,1.91385,0,3.828-.0008,1.9731,0,3.9462.0023,1.99845,0,3.9969-.0119l.0219-.0001m0-7-.0788.0004c-1.3087.0093-2.6245.0116-3.94.0116l-1.967-.0011-1.9792-.0012-1.9163.0004-1.9117.0004q-2.0475,0-4.0946-.0049l-.1124-.0004a7.3618,7.3618,0,0,0-5.3615,2.1604,7.47389,7.47389,0,0,0-2.14288,5.365c.01288,2.1701.01288,4.3365.013,6.5027q.00012,2.5956.00658,5.191a10.16369,10.16369,0,0,0,4.2611,8.2258,11.60394,11.60394,0,0,0,6.8215,2.2498q3.492.018,6.9852.0144,2.74905.0015,5.4982.0082a7.34948,7.34948,0,0,0,7.4818-7.66872l-.0077-.29258c-.0118-.4351-.024-.8851-.004-1.1371a7.72,7.72,0,0,0-.7668-4.1192,8.454,8.454,0,0,0-.00688-1.1003,6.5041,6.5041,0,0,1,.00058-.9049,8.51262,8.51262,0,0,0,.0142-.9386,7.89,7.89,0,0,0,.7649-4.0866,13.51825,13.51825,0,0,1,.00432-1.5523,7.40047,7.40047,0,0,0-7.56162-7.9222Z" fill="#fff"/><path d="M533.7271,110.37332c-.9287-.0136-1.8574-.0171-2.78517-.0171l-9.14843.0049a8.67178,8.67178,0,0,1-4.332-1.083,6.81831,6.81831,0,0,1-3.6289-6.1743q.0336-5.62275-.003-11.2481a3.98068,3.98068,0,0,1,4.1524-4.2211c2.6484.0131,5.26659.019,7.88569.019s5.2393-.0059,7.8584-.01762a4.08846,4.08846,0,0,1,3.086,1.22762,4.03574,4.03574,0,0,1,1.0654,3.1157,17.345,17.345,0,0,0-.001,2.0288,4.049,4.049,0,0,1-.8818,2.9346,4.509,4.509,0,0,1,.11523,1.521,8.59287,8.59287,0,0,0,.002,1.33828,4.3747,4.3747,0,0,1-.16513,1.59382,4.03747,4.03747,0,0,1,.9248,3.0464,12.08526,12.08526,0,0,0,.0039,1.6064,3.92534,3.92534,0,0,1-4.0615,4.3257C533.7964,110.37432,533.7447,110.37382,533.7271,110.37332Z" fill="#fe0000" fill-rule="evenodd"/><path d="M517.982,91.13462h.0131q3.93573.01935,7.87159.0189,3.9372,0,7.8747-.01752h.0141c.5308,0,.65343.15812.62643.66212a20.72578,20.72578,0,0,0,.00227,2.4374c.0364.5451-.1671.6317-.6404.6317l-.0274-.0001q-2.6088-.0159-5.2174-.0135-2.5818,0-5.16407.0039h-.00623c-.091,0-.1822-.0029-.2731-.0029a1.39723,1.39723,0,0,0-.5448.08538,1.36424,1.36424,0,0,0-.87987,1.42932,1.38172,1.38172,0,0,0,1.35827,1.1634c.443.0085.886.0109,1.3292.0109.6019,0,1.2041-.0045,1.8059-.0045,1.2034.0002,2.4061.0043,3.6092.0043,1.0729,0,2.1462-.0033,3.2195-.0158l.043-.0002c.4661,0,.6726.0963.62693.6359a12.21225,12.21225,0,0,0-.00283,1.8792c.0352.498-.1477.6122-.6125.6122l-.0146-.0001q-2.40705-.015-4.8136-.0125-2.2957,0-4.59247.0024c-.108,0-.216-.0038-.32363-.0038-.078,0-.1558.002-.2333.0089a1.53755,1.53755,0,0,0-1.412,1.4575,1.5666,1.5666,0,0,0,1.5155,1.43088q2.54835.00513,5.0968.00672,2.74725,0,5.494-.01572h.02363c.48667,0,.67627.10182.63477.63812a15.45756,15.45756,0,0,0-.0014,2.0882c.0278.4694-.0988.6186-.5685.6186l-.0342-.0002c-.94767-.014-1.8949-.0178-2.8425-.0178-1.0963,0-2.1929.005-3.28917.005H521.7937a5.17763,5.17763,0,0,1-2.60659-.6284,3.327,3.327,0,0,1-1.8547-3.1074q.0333-5.64318-.0028-11.2874c-.0029-.5106.0837-.7031.6524-.7031m0-7a7.47274,7.47274,0,0,0-7.6523,7.7432c.0219,4.2587.0228,7.8208.0029,11.206a10.31741,10.31741,0,0,0,5.4027,9.2385,12.12448,12.12448,0,0,0,6.05839,1.5386h5.85323l1.66067-.0025,1.6285-.0025c.913,0,1.8257.0035,2.73883.01708.03447.00052.10337.00092.13787.00092a7.419,7.419,0,0,0,7.5562-8.033,8.60632,8.60632,0,0,1-.0066-1.1416,7.67746,7.67746,0,0,0-.753-4.0555,8.37429,8.37429,0,0,0-.0067-1.0954,5.22012,5.22012,0,0,1-.0057-.7838,8.49379,8.49379,0,0,0,.0252-1.0423,7.70881,7.70881,0,0,0,.7465-3.9527,13.70681,13.70681,0,0,1,.0035-1.6024,7.47785,7.47785,0,0,0-2.0178-5.7088,7.58254,7.58254,0,0,0-5.5986-2.32242c-2.6592.01152-5.2745.01752-7.8891.01752q-3.91916,0-7.83739-.0188l-.0473-.0001Z" fill="#fff"/><path d="M439.54161,89.13412q-3.59475-.0015-7.1905-.0132a8.08071,8.08071,0,0,1-4.8965-1.648,6.67379,6.67379,0,0,1-2.7246-5.4033c.0078-3.874.0118-7.74462-.0097-11.6152a3.87073,3.87073,0,0,1,4.0341-4.0347c1.3956.00828,2.7442.01028,4.0938.01028l7.9531.00142c1.2774,0,2.5547-.0029,3.8311-.0161h.001a4.06325,4.06325,0,0,1,3.0849,1.2212,4.00926,4.00926,0,0,1,1.0537,3.0796,15.3757,15.3757,0,0,0-.0019,1.98288,4.08061,4.08061,0,0,1-.91018,3.02342,4.70237,4.70237,0,0,1,.13088,1.6187,8.2017,8.2017,0,0,0,.0019,1.269,4.33607,4.33607,0,0,1-.1592,1.566,4.05225,4.05225,0,0,1,.9366,2.999c-.0371.6157-.0176,1.313,0,1.9282a3.8157,3.8157,0,0,1-3.9229,4.0366S441.30521,89.13462,439.54161,89.13412Z" fill="#fe0000" fill-rule="evenodd"/><path d="M444.69611,69.91532c.4652,0,.6074.1234.5809.6072a18.98878,18.98878,0,0,0,.00292,2.4377c.04208.57978-.18662.66178-.676.66178l-.02682-.00008q-2.58435-.0153-5.1693-.0127-2.50245,0-5.0052.0027c-1.1869,0-1.91168.5149-1.9153,1.35508-.0036.83772.7305,1.36442,1.904,1.36442,1.6109.0002,3.2219.0052,4.833.0052,1.5249,0,3.0499-.0045,4.5744-.0217l.03222-.0002c.57848,0,.71738.1836.672.7351a11.6696,11.6696,0,0,0-.00152,1.81c.0337.4718-.1429.5657-.56748.5657l-.02022-.0001q-2.38665-.01335-4.77378-.0115-2.387,0-4.77372.0044c-.0966,0-.1932-.0035-.2897-.0035a1.42534,1.42534,0,0,0-.5344.0817,1.52541,1.52541,0,0,0-1.0256,1.4904,1.59034,1.59034,0,0,0,1.5376,1.3419q2.56875.005,5.1369.0075,2.728,0,5.4561-.02h.0195c.526,0,.6385.1588.6097.6549-.0443.7406-.0258,1.4865-.0049,2.22878.0084.32832-.0852.44-.4253.44h-.0033c-4.1578-.01178-8.3163.00142-12.4741-.01928a4.55665,4.55665,0,0,1-2.7915-.9313,3.14346,3.14346,0,0,1-1.347-2.6167c.0073-3.8789.0114-7.7584-.01-11.63772-.0027-.45528.1559-.51518.5336-.51518h.0249q2.01135.01215,4.0224.01,1.996,0,3.99182-.0019c1.344,0,2.68768.0036,4.03158.0036q1.92165,0,3.8433-.0161l.0283-.0001m0-7-.1014.0005q-1.8816.01875-3.7702.0157l-2.0064-.0018-2.02518-.0018-2.00092.001-1.9909.0009q-1.99,0-3.9804-.00982l-.0669-.00018a7.39815,7.39815,0,0,0-5.3921,2.1684,7.48536,7.48536,0,0,0-2.1414,5.3892c.0218,3.9541.0168,7.8899.0099,11.5821a10.10239,10.10239,0,0,0,4.1045,8.1978,11.54381,11.54381,0,0,0,6.9996,2.3633q3.60675.018,7.2149.01338,2.637.00078,5.27372.006a7.3143,7.3143,0,0,0,7.44608-7.62158c-.0156-.5553-.0328-1.1673-.0052-1.6292a7.77022,7.77022,0,0,0-.7702-3.9868,8.31313,8.31313,0,0,0-.0101-1.04242,4.71191,4.71191,0,0,1-.00558-.719,8.77709,8.77709,0,0,0,.021-1.13858,7.73009,7.73009,0,0,0,.76268-4.04842,12.207,12.207,0,0,1,.0049-1.54918,7.41379,7.41379,0,0,0-7.5704-7.9895Z" fill="#fff"/><path d="M590.4527,89.14192q-2.97225-.011-5.9522-.0073-3.18885-.00075-6.3798-.0093a8.18719,8.18719,0,0,1-4.8663-1.57232,6.60817,6.60817,0,0,1-2.8261-5.40328l.001-1.1714c.0029-3.5059.0058-7.0122-.0127-10.5181a3.874,3.874,0,0,1,4.0322-4.0415c1.4092.00928,2.7754.01128,4.1416.01128l7.9756.00192q1.87939,0,3.7578-.0156h.0019a4.05921,4.05921,0,0,1,3.0801,1.2183,4.00962,4.00962,0,0,1,1.0586,3.0747,12.99993,12.99993,0,0,0-.0059,1.8593,4.12314,4.12314,0,0,1-.9111,3.1485,4.73471,4.73471,0,0,1,.125,1.6274,8.407,8.407,0,0,0,.0029,1.2739,4.32671,4.32671,0,0,1-.1562,1.5494,4.05239,4.05239,0,0,1,.9414,3.0429,17.52008,17.52008,0,0,0,.002,1.7837,3.86445,3.86445,0,0,1-3.9844,4.1475Z" fill="#fe0000" fill-rule="evenodd"/><path d="M590.3888,69.91612c.46113,0,.6067.1223.5802.6075a15.87077,15.87077,0,0,0,.0043,2.3667c.0611.6508-.1973.7335-.7319.7335l-.0459-.0002q-2.5206-.01815-5.0403-.0152-2.532,0-5.0641.0035c-1.1869,0-1.914.5153-1.9175,1.354-.0043.83408.73633,1.3655,1.9054,1.3655,1.6044.0002,3.2088.0052,4.8134.0052,1.5314,0,3.063-.0045,4.5941-.022l.0338-.0002c.57763,0,.7114.1829.66463.7322a11.87523,11.87523,0,0,0-.00153,1.81038c.03253.45862-.123.56922-.5583.56922l-.01717-.0001q-2.41775-.01425-4.83563-.01212-2.39055,0-4.7812.00362c-.0745,0-.1489-.0017-.22317-.0017a1.44176,1.44176,0,0,0-.53243.07808,1.54956,1.54956,0,0,0-1.03757,1.48612,1.617,1.617,0,0,0,1.60677,1.3494q2.58315.00345,5.16623.0059,2.67806,0,5.35677-.0169l.0257-.0001c.5021,0,.6521.1302.6156.6449a20.203,20.203,0,0,0-.0043,2.1596c.0143.3797-.0825.5192-.4891.5192h-.0065c-4.1107-.015-8.2227-.0004-12.3348-.0168a4.66266,4.66266,0,0,1-2.8059-.89132,3.09078,3.09078,0,0,1-1.4004-2.58408c.00293-3.9028.0093-7.8056-.0113-11.7081-.0022-.4455.1387-.5231.5323-.5231h.0196q2.036.01365,4.0712.01128,1.97119,0,3.943-.00208c1.3635,0,2.727.0037,4.0907.0037q1.89195,0,3.7842-.0154l.0311-.0001m.0004-7h-.0004l-.1105.0006c-1.2271.0119-2.4661.0149-3.7048.0149l-2.036-.0018-2.0547-.0019-1.9772.001-1.9658.00108q-2.0124,0-4.0247-.01108l-.0661-.0002a7.398,7.398,0,0,0-5.3873,2.1672,7.49208,7.49208,0,0,0-2.145,5.3898c.0183,3.4444.0153,6.8858.0124,10.32728l-.0011,1.34172a10.03275,10.03275,0,0,0,4.2508,8.2267,11.66974,11.66974,0,0,0,6.93113,2.2539q3.1615.0126,6.33.009,3.00205.0003,6.00367.0078a7.36218,7.36218,0,0,0,7.516-7.783c-.0179-.4767-.03467-1.0184-.0075-1.4092a7.70978,7.70978,0,0,0-.77617-4.0554,8.35129,8.35129,0,0,0-.01-1.0321,4.87689,4.87689,0,0,1-.00593-.7257,8.90989,8.90989,0,0,0,.0258-1.133,7.79156,7.79156,0,0,0,.7568-4.2678,10.18334,10.18334,0,0,1,.015-1.3128,7.4157,7.4157,0,0,0-7.5684-8.007Z" fill="#fff"/><path d="M490.29351,110.451c-.7519-.03178-1.5019-.04058-2.2529-.04058-.5996,0-1.1983.0059-1.7979.0118-.622.00578-1.2441.0117-1.8652.0117l-3.6318-.0034c-1.05378,0-2.1084.0024-3.1622.0127h-.0009a4.04073,4.04073,0,0,1-3.05668-1.2144,3.98372,3.98372,0,0,1-1.05862-3.0459,16.54563,16.54563,0,0,0,0-1.897,4.03761,4.03761,0,0,1,1.0498-3.1216,3.87977,3.87977,0,0,1,.5274-.4692q-.33687-.4014-.6543-.8506c-1.6738-2.3677-1.0742-6.66452.5898-8.5224a9.25516,9.25516,0,0,1,7.1348-3.4263l.1729.0015c1.7568.0312,3.5126.0419,5.2705.0419,1.88372,0,3.7685-.01222,5.6523-.0244l1.4648-.0092a4.1341,4.1341,0,0,1,3.14262,1.25238,4.0798,4.0798,0,0,1,1.05368,3.15722,14.50871,14.50871,0,0,0,0,1.7964,3.99788,3.99788,0,0,1-1.0488,3.084,3.91682,3.91682,0,0,1-.4434.4043,7.78036,7.78036,0,0,1,1.5,4.3599,7.14785,7.14785,0,0,1-2.2236,5.9301,8.86555,8.86555,0,0,1-6.0205,2.5679S490.40871,110.45582,490.29351,110.451Z" fill="#fe0000" fill-rule="evenodd"/><path d="M482.11551,91.39572c.03642,0,.0733.00028.1101.001,1.7798.0317,3.5594.0424,5.3398.0424,2.3767,0,4.7544-.0192,7.1307-.0335h.017c.5419,0,.6989.1531.6657.6895a17.87022,17.87022,0,0,0,0,2.2282c.0297.5026-.1517.6035-.6103.6035l-.0152-.0001q-3.2559-.01545-6.5117-.012-1.636,0-3.2715.0004-.85635,0-1.7133-.0005c-.0556,0-.1114-.0004-.167-.0004a2.33643,2.33643,0,0,0-.8642.1175,1.28156,1.28156,0,0,0-.0321,2.4792,2.44759,2.44759,0,0,0,.9593.134l.0683-.0001q2.25315-.00375,4.5059-.0046,1.614,0,3.2284.0039a4.72794,4.72794,0,0,1,4.4248,4.3895,3.76064,3.76064,0,0,1-1.0448,3.2355,5.45745,5.45745,0,0,1-3.6994,1.6888q-.09762,0-.1977-.0042c-.7988-.0334-1.59838-.0434-2.3986-.0434-1.2202,0-2.4415.0234-3.6617.0234-1.2073,0-2.4139-.0034-3.6206-.0034q-1.6035,0-3.2073.01268l-.024.00022c-.4324,0-.5876-.1164-.5638-.579a20.04317,20.04317,0,0,0-.00138-2.2978c-.034-.5351.15418-.6482.65108-.6482l.0167.0001q2.99625.0171,5.9926.0141,2.75145,0,5.503-.0023c.1154,0,.231.0024.3464.0024.0938,0,.1874-.0016.2806-.0074a1.619,1.619,0,0,0,1.539-1.504,1.5397,1.5397,0,0,0-1.5147-1.3555c-.6701-.0143-1.3404-.018-2.0109-.018-.6902,0-1.3804.0039-2.0706.0039l-.1691-.0001q-1.07685-.00075-2.1547-.0021-.734,0-1.4675.0032l-.02788.0001a5.5491,5.5491,0,0,1-4.62832-2.7303,4.60455,4.60455,0,0,1,.34132-4.1649,5.87222,5.87222,0,0,1,4.52758-2.2617m.0005-7h-.0005a12.7314,12.7314,0,0,0-9.7399,4.58928c-2.56068,2.85582-3.1809,7.94882-1.61268,11.51092A7.7209,7.7209,0,0,0,469.975,104.51a13.01755,13.01755,0,0,1-.00308,1.48812,7.40747,7.40747,0,0,0,7.55418,7.9451l.093-.0005q1.56615-.01485,3.1383-.0124l1.8.00168,1.8206.00172c.6325,0,1.2652-.006,1.8981-.012.5879-.00572,1.1759-.0114,1.7636-.0114.82722,0,1.4965.0119,2.1063.0373q.24825.01035.49.0103a12.28613,12.28613,0,0,0,8.3401-3.4482,10.57912,10.57912,0,0,0,3.4026-8.6233,11.04334,11.04334,0,0,0-.8311-3.9608,7.65882,7.65882,0,0,0,.819-4.0155,10.92358,10.92358,0,0,1-.0019-1.3705,7.6057,7.6057,0,0,0-1.9979-5.7798,7.52052,7.52052,0,0,0-5.6537-2.3542l-.0661.0002-1.4438.0091c-1.8791.01208-3.7588.0242-5.6378.0242-1.9466,0-3.6526-.0135-5.2153-.0413l-.2341-.0021Z" fill="#fff"/><path d="M447.4,110.50032c-.70408,0-1.4112-.0171-2.1182-.0342-.6494-.01612-1.2988-.0322-1.9463-.0322l-3.6172-.0044c-1.0117,0-2.02338.0029-3.0351.0146h-.002a4.133,4.133,0,0,1-3.2119-1.2729,4.04942,4.04942,0,0,1-1.0215-3.1797,11.34752,11.34752,0,0,0-.001-1.6528,4.08451,4.08451,0,0,1,1.0528-3.1665,3.8132,3.8132,0,0,1,.5234-.4654,11.195,11.195,0,0,1-.8447-1.2016c-1.624-2.6553-.7031-6.7613,1.207-8.6573a9.46987,9.46987,0,0,1,6.834-2.9575l.2178.0025c1.7216.0366,3.4443.0483,5.167.0483,1.5791,0,3.1591-.0098,4.7382-.0195l2.3389-.01372a4.081,4.081,0,0,1,3.13672,1.25052,4.02236,4.02236,0,0,1,1.03518,3.1304,13.75011,13.75011,0,0,0,0,1.7734,4.04516,4.04516,0,0,1-1.0469,3.1294,3.77312,3.77312,0,0,1-.4092.3755,6.14331,6.14331,0,0,1,1.2373,2.3657,8.07279,8.07279,0,0,1-7.4082,10.4448c-.8525.0835-1.75.1226-2.82518.1226Z" fill="#fe0000" fill-rule="evenodd"/><path d="M441.21981,91.39022c.047,0,.0946.0005.1422.0015,1.7507.0374,3.5013.0495,5.2528.0495,2.3608,0,4.7227-.022,7.0834-.0334h.0191c.4872,0,.6825.0974.6443.638a17.19164,17.19164,0,0,0-.0021,2.2286c.0311.5005-.0919.6564-.6144.6564l-.0197-.0001q-3.06585-.02145-6.131-.0171-1.9761,0-3.9521.0012-.70857,0-1.4176-.0006l-.1592-.0003a2.23006,2.23006,0,0,0-.87058.1236,1.28252,1.28252,0,0,0-.00572,2.478,2.35342,2.35342,0,0,0,.9218.1293h.038l.1907-.0002c1.4734,0,2.9479.0271,4.4213.0271,1.0421,0,2.0837-.0135,3.1236-.05972q.0435-.00192.0877-.00188c1.621,0,3.9682,1.9243,4.2573,3.1362.7855,3.2965-.8299,5.8018-4.3464,6.1478-.8232.08088-1.6518.10588-2.4829.10588-1.3529,0-2.7123-.06628-4.0651-.06628-1.1956,0-2.3912-.0041-3.5868-.0041q-1.5522,0-3.104.0145l-.0422.0003c-.4847,0-.7128-.096-.6656-.6705a14.81435,14.81435,0,0,0,.0029-2.159c-.03458-.5364.1183-.6984.6641-.6984l.0201.0001q2.9256.02007,5.8503.0168,2.8596,0,5.7196-.004c.0842,0,.1688.0011.2534.0011a3.69072,3.69072,0,0,0,.4421-.0208,1.62356,1.62356,0,0,0,1.3919-1.5046,1.59684,1.59684,0,0,0-1.4004-1.3327,4.07456,4.07456,0,0,0-.4652-.0206c-.0768,0-.1537.0007-.2304.0007h-.1255c-1.4734,0-2.947.0153-4.4202.0153-.9938,0-1.9879-.007-2.98138-.0303a5.3171,5.3171,0,0,1-4.49352-2.8577,4.37153,4.37153,0,0,1,.6871-4.3484,5.95344,5.95344,0,0,1,4.3683-1.9412m.0002-7h-.0002a12.85569,12.85569,0,0,0-9.3004,3.9739,11.40716,11.40716,0,0,0-2.1731,12.1391,7.79972,7.79972,0,0,0-.7923,4.0623,8.01788,8.01788,0,0,1,.006,1.1371,7.46488,7.46488,0,0,0,7.6422,8.2418l.11072-.0006c1.01758-.0113,2.02658-.0142,3.03548-.0142l1.7814.002,1.8054.0021c.6194,0,1.2404.0159,1.8613.0311.7351.018,1.47042.03518,2.2038.03518,1.1924,0,2.1988-.04428,3.1672-.13938a11.55909,11.55909,0,0,0,10.47142-14.7368,8.19161,8.19161,0,0,0-.44082-1.3223,7.73538,7.73538,0,0,0,.7479-3.9613,10.21,10.21,0,0,1-.0017-1.3029,7.4411,7.4411,0,0,0-7.627-8.1295l-.0628.0001-2.2968.0133c-1.581.01-3.1622.02-4.7429.02-1.9525,0-3.5741-.0153-5.1033-.0479-.0974-.0021-.195-.0031-.2915-.0031Z" fill="#fff"/><path d="M405.44293,89.14332c-.50972-.02-1.02342-.0292-1.53712-.0292q-.80715,0-1.6113.0292c-.042.0015-.1758.0044-.2168.0044a4.02722,4.02722,0,0,1-2.9522-1.1655,4.10434,4.10434,0,0,1-1.1513-3.0444c.0234-2.4346.0195-4.8657.0166-7.2969l-.001-.5288-3.6396-.001c-.0088,2.5445-.0127,5.1514.0205,7.708a4.21,4.21,0,0,1-1.167,3.1372,4.12283,4.12283,0,0,1-3.0352,1.1924l-.2412-.0049c-.5205-.0185-1.042-.0254-1.5635-.0254-.6455,0-1.291.0108-1.9355.023-.0215.0005-.0879.001-.11038.001a3.88928,3.88928,0,0,1-4.02152-4.0381q.02355-7.2378-.0009-14.46832a3.879,3.879,0,0,1,4.0547-4.01948c1.4111.0063,2.7744.0078,4.1376.0078l3.7657-.0015c.7578,0,1.5156.0074,2.27342.01418.73538.00682,1.47168.01422,2.207.01422.89948,0,1.79888-.0108,2.69728-.0459.1045-.0039.207-.0059.3106-.0059a8.00323,8.00323,0,0,1,5.7812,2.4878,8.17962,8.17962,0,0,1,2.3457,5.8945c-.09178,2.9522-.0547,5.9976-.0176,8.9424l.0117.9356a4.18052,4.18052,0,0,1-1.1591,3.1098,4.07638,4.07638,0,0,1-2.9942,1.1797C405.70851,89.14922,405.53571,89.14732,405.44293,89.14332Z" fill="#fe0000" fill-rule="evenodd"/><path d="M401.74141,70.09952a4.75733,4.75733,0,0,1,4.62952,4.7718c-.105,3.3408-.04792,6.6873-.00792,10.0302.0073.603-.1662.7476-.6549.7476-.0398,0-.0816-.001-.1256-.0027q-.83745-.033-1.67658-.0322-.86838,0-1.73642.0315c-.0319.0012-.0625.0017-.0918.0017-.4616,0-.6084-.1475-.60378-.6791.03068-3.1344.01578-6.2691.01438-9.4036-.0008-1.3412-.6042-1.9478-1.9583-1.9514q-1.6392-.0045-3.2787-.00432-1.80855,0-3.6171.004c-1.2494.00282-1.77428.51632-1.7782,1.77822-.0104,3.158-.026,6.3159.0143,9.4732.0083.62758-.1795.7843-.7011.7843-.0369,0-.0756-.0008-.1159-.0023-.5631-.0203-1.1268-.0278-1.6907-.0278-.6669,0-1.334.0105-2.00068.0231l-.04512.0004c-.3726,0-.5216-.0978-.5202-.5299q.023-7.2447-.001-14.489c-.0018-.468.197-.5068.55332-.5068l.03328.0001q2.0631.0093,4.126.0076,1.87275,0,3.74572-.0012c1.493,0,2.98708.02808,4.48.02808.94518,0,1.88988-.01128,2.83358-.04808q.0873-.00345.1739-.0034m0-7q-.22272,0-.4476.0088c-.7472.0291-1.56088.04268-2.55988.04268-.72442,0-1.44922-.00688-2.174-.01378-.76882-.00722-1.53752-.0143-2.306-.0143l-1.87622.0006-1.8695.0006q-2.0475,0-4.0948-.0075l-.06448-.0002a7.37469,7.37469,0,0,0-7.55332,7.5343c.0168,4.6438.0171,9.3677.001,14.43928a7.3854,7.3854,0,0,0,7.5202,7.55212c.0454,0,.1359-.0008.1813-.0017.6183-.0117,1.2416-.0218,1.8645-.0218.4799,0,.9595.006,1.4387.0233.1273.0046.2504.0068.3679.0068a7.55186,7.55186,0,0,0,5.5259-2.234c.1503-.1523.30482-.322.4587-.5096.163.2002.3268.3802.4859.5407a7.55863,7.55863,0,0,0,5.438,2.2016c.10922,0,.2228-.0019.3416-.0061q.7416-.0264,1.4867-.0271.7011,0,1.4014.02678c.1392.00552.2734.00812.4007.00812a7.50459,7.50459,0,0,0,5.4856-2.2202,7.62369,7.62369,0,0,0,2.1687-5.6126l-.0117-.95632c-.03778-3.03388-.0734-5.89938.0167-8.76878a11.70016,11.70016,0,0,0-3.3313-8.4403,11.47821,11.47821,0,0,0-8.2947-3.5514Z" fill="#fff"/><path d="M536.48693,89.15022a4.05231,4.05231,0,0,1-2.97273-1.1734,4.14021,4.14021,0,0,1-1.1562-3.0737c.0234-2.3589.0205-4.7178.0166-7.0766v-.7144l-3.6582-.001c-.0079,2.60788-.0098,5.19.0136,7.7715a4.16514,4.16514,0,0,1-1.16007,3.0913,4.062,4.062,0,0,1-2.97763,1.1753c-.041,0-.164-.0019-.205-.0034-.5469-.02-1.0899-.0269-1.6338-.0269-.6729,0-1.3457.0108-2.01857.022H520.732a3.87521,3.87521,0,0,1-4.0693-4.021q.01755-7.2393-.003-14.477a3.88634,3.88634,0,0,1,4.0576-4.02592c1.377.00582,2.71389.00732,4.04979.00732l11.2491-.0005a8.03335,8.03335,0,0,1,8.2021,8.1738q.00585,1.9959.002,3.9927c-.001,2.0562-.002,4.1123.0127,6.168a4.09136,4.09136,0,0,1-1.1475,3.0293,4.0018,4.0018,0,0,1-2.9287,1.1601c-.041,0-.1602-.0024-.2022-.0039-.5498-.0195-1.0976-.0307-1.6455-.0307q-.7851,0-1.5693.0317C536.649,89.14822,536.566,89.15022,536.48693,89.15022Z" fill="#fe0000" fill-rule="evenodd"/><path d="M520.72051,70.11672l.022.0001q2.03913.00885,4.078.0073,1.89964,0,3.7991-.0012,2.33715,0,4.6742-.0018,1.357,0,2.7143.0025a4.539,4.539,0,0,1,4.7106,4.6827c.0085,3.3922-.0093,6.7845.0143,10.1766.0033.49108-.1092.665-.5765.665-.02457,0-.0504-.0005-.077-.0015q-.884-.03213-1.7695-.033-.858,0-1.7148.0344-.05685.00225-.1084.0023c-.4825,0-.634-.1582-.6286-.7122.03073-3.1136.01573-6.2273.0142-9.3403-.0014-1.3733-.6134-1.9818-2.006-1.98462q-1.7349-.00357-3.4693-.00338-1.68075,0-3.3616.0027c-1.2875.0024-1.8117.5163-1.8153,1.82168-.01,3.16022-.0186,6.32032.01,9.47972.00473.5417-.1196.7356-.637.7356q-.0402,0-.0836-.0015c-.5846-.0211-1.16967-.0287-1.7552-.0287-.6928,0-1.3859.0106-2.07829.0223l-.0288.0002c-.372,0-.48538-.125-.4847-.5129q.01815-7.2501-.0029-14.49872c-.0013-.46848.1948-.51328.5608-.51328m.00042-7h-.00042a7.38073,7.38073,0,0,0-7.5608,7.5321c.016,4.2968.0169,8.89.0029,14.4624a7.36894,7.36894,0,0,0,7.4847,7.5304c.0382,0,.1053-.0005.14349-.0011.6562-.0111,1.31013-.0214,1.9636-.0214.5013,0,1.0022.0061,1.5027.0241.1204.0043.2303.0061.3361.0061a7.59264,7.59264,0,0,0,5.4631-2.2116c.1588-.1602.3223-.33972.485-.53972.1631.20082.3272.38122.4865.54212a7.58231,7.58231,0,0,0,5.459,2.21c.1235,0,.2529-.0025.3889-.0079.4668-.01922.9467-.0288,1.4343-.0288q.758,0,1.5152.0284c.12.00418.2278.0061.3313.0061a7.44984,7.44984,0,0,0,7.5763-7.71292c-.0143-2.05788-.0132-4.11528-.0122-6.17258q.00105-1.98675-.0019-3.9736a11.59444,11.59444,0,0,0-11.6961-11.6652q-1.3635-.00285-2.7288-.0025l-2.3412.00088-2.333.00092-1.9028.0006-1.8963.0006q-2.02365,0-4.04757-.0072l-.052-.0002Z" fill="#fff"/><path d="M609.9918,89.15072a4.01633,4.01633,0,0,1-2.9385-1.1656,4.14507,4.14507,0,0,1-1.15237-3.0752c.01757-2.4594.01467-4.9218.01177-7.3837l-.001-.4151h-3.6436c-.0039,2.6167-.0078,5.23388.0127,7.8506a4.08568,4.08568,0,0,1-1.1426,3.03028,3.99235,3.99235,0,0,1-2.9238,1.15722c-.0391,0-.1523-.0019-.1914-.0034-.5674-.0191-1.1348-.0264-1.7012-.0264-.6748,0-1.3486.0103-2.0234.022h-.0029a3.86776,3.86776,0,0,1-4.0655-4.0161q.019-7.23855-.0029-14.4766a3.88155,3.88155,0,0,1,4.043-4.0342c1.3906.0083,2.7392.0098,4.0879.0098l11.206-.0005a8.0173,8.0173,0,0,1,8.1895,8.1763v3.2622c-.002,2.2988-.003,4.5976.0107,6.896a4.09628,4.09628,0,0,1-1.1406,3.0351,3.97943,3.97943,0,0,1-2.9121,1.1568s-.1758-.0029-.2227-.0049c-.5488-.0225-1.0957-.0342-1.6435-.0342q-.81015,0-1.6182.0342C610.1763,89.14772,610.0416,89.15072,609.9918,89.15072Z" fill="#fe0000" fill-rule="evenodd"/><path d="M594.2723,70.11442h.0197q2.0534.0123,4.1061.0101,1.88525,0,3.7709-.0016,2.3166,0,4.6326-.0015,1.3779,0,2.7559.0022a4.51137,4.51137,0,0,1,4.6956,4.6791c.0029,3.3922-.0093,6.7848.0114,10.1767.00343.4703-.0704.6705-.5528.6705-.0259,0-.053-.0005-.0813-.0017q-.892-.0369-1.7864-.03722-.8841,0-1.7673.03752c-.03.0013-.0586.0019-.086.0019-.50877,0-.5936-.2188-.5902-.7139.0221-3.0901.0122-6.1802.0107-9.2707-.0015-1.48582-.5735-2.0521-2.07027-2.0539q-1.78984-.00165-3.57933-.00192-1.5909,0-3.1823.00232c-1.2776.0024-1.8075.5363-1.8097,1.8261-.0035,3.18358-.0135,6.3665.0108,9.5499.004.4856-.09047.6608-.567.6608q-.0354,0-.07347-.0013c-.60443-.0206-1.20933-.0283-1.81473-.0283-.6959,0-1.39227.0102-2.0882.0226l-.0329.0003c-.3703,0-.4749-.1229-.47417-.50842q.01931-7.249-.00293-14.49868c-.0013-.45432.1615-.5209.5453-.5209m0-7a7.41192,7.41192,0,0,0-5.3921,2.164,7.49118,7.49118,0,0,0-2.1532,5.3763c.0168,4.3445.0177,8.937.00293,14.4606a7.35858,7.35858,0,0,0,7.47417,7.5271c.0416,0,.1161-.0006.1576-.00142.6543-.01168,1.30923-.02138,1.9635-.02138.526,0,1.0516.0063,1.57673.0242.11237.0036.21387.0053.31137.0053a7.52533,7.52533,0,0,0,5.4108-2.19312c.1555-.15658.3155-.33218.47483-.52718.15837.1935.31737.3676.472.52318a7.56012,7.56012,0,0,0,5.41977,2.19842c.1214,0,.2478-.0025.3803-.0081.4875-.0209.9812-.03132,1.473-.03132.4925,0,.996.01052,1.4966.03122.1345.0055.2555.0077.3711.0077a7.43332,7.43332,0,0,0,7.5526-7.7214c-.0141-2.3016-.0127-4.6118-.0115-6.9218l.0003-3.2099a11.44085,11.44085,0,0,0-11.6828-11.6732q-1.3839-.00255-2.7686-.0022l-2.3197.0007-2.313.0008-1.89007.0008-1.88083.0008q-2.0322,0-4.0643-.01l-.0615-.0001Z" fill="#fff"/><path d="M467.30621,110.44272q-.9492-.0198-1.8955-.0191-.96975,0-1.9404.0181c-.0215.0005-.083.001-.1035.001a3.88753,3.88753,0,0,1-4.00788-4.1231c.00688-.3013.00978-.6035.01078-.9062a7.55064,7.55064,0,0,1-4.9707-2.5835,6.89,6.89,0,0,1-2.0059-5.0274,17.23111,17.23111,0,0,0,.0176-1.7466c-.00678-.3378-.0147-.6752-.0147-1.0122l.003-.9101c.00292-.6939.0058-1.3877-.0088-2.0811a3.96532,3.96532,0,0,1,1.0986-2.979,3.91588,3.91588,0,0,1,2.8867-1.166c.0293,0,.1006.001.1299.00148.586.01512,1.1729.021,1.7598.021q.9594,0,1.9189-.01908h.0039a3.864,3.864,0,0,1,4.0655,4.0464c-.0127.9824-.0147,1.9644-.0127,2.9463q.5991.00357,1.1972.00338.55965,0,1.1182-.00288c.0029-.9199.002-1.8394-.0156-2.7588a4.0983,4.0983,0,0,1,1.124-3.0718,3.98057,3.98057,0,0,1,2.9268-1.1714c.0478,0,.1767.003.2246.00488.5107.02052,1.0254.02832,1.539.02832.6221,0,1.2442-.0112,1.8662-.0239.0245-.0005.1065-.0015.1309-.0015a3.907,3.907,0,0,1,4.0439,4.1094l-.0117.82468c-.02538,1.79592-.0488,3.49172.01762,5.18752a7.10864,7.10864,0,0,1-2.18072,4.961,7.47586,7.47586,0,0,1-4.8076,2.4223q.0015.45555.0098.9117a3.98059,3.98059,0,0,1-1.1084,2.9599,3.93454,3.93454,0,0,1-2.8955,1.1577C467.39511,110.44412,467.32961,110.44322,467.30621,110.44272Z" fill="#fe0000" fill-rule="evenodd"/><path d="M470.59121,91.40242q.0387.00015.0809.0018c.5606.0226,1.122.0311,1.6837.0311.6462,0,1.2928-.01132,1.9385-.025l.0579-.0007c.38872,0,.5502.0987.5441.5605-.02638,2.0661-.0728,4.1353.0085,6.1985.0599,1.4969-2.16,3.7481-3.638,3.7481a1.33225,1.33225,0,0,1-.1648-.0099,7.488,7.488,0,0,0-.9135-.0482c-.4607,0-.9248.0252-1.38658.0252-.115,0-.22982-.0016-.34432-.0055q-.0306-.00105-.0592-.001c-.3822,0-.5011.1434-.4929.5516.0242,1.323-.00858,2.6466.0185,3.9699.0083.4184-.109.5453-.50608.5453l-.04092-.0004q-.98445-.02085-1.9696-.0203-1.0002,0-2.001.0189l-.0401.0004c-.3913,0-.5181-.1224-.50838-.545.02848-1.3229-.00562-2.6469.01918-3.9703.0075-.4017-.0944-.5511-.4793-.5511-.0205,0-.04188.0004-.064.0013-.1246.0048-.2495.0066-.3746.0066-.457,0-.9159-.0248-1.3719-.0248a7.46969,7.46969,0,0,0-.8973.0467,1.37982,1.37982,0,0,1-.1664.0098c-1.5141,0-3.7738-2.2973-3.6429-3.81192.0871-1.01408.0164-2.04178.0157-3.06368,0-1.0216.0157-2.0436-.0072-3.0648-.0097-.3896.0639-.5682.4873-.5682l.0405.0005q.9255.0237,1.85192.0224.98967,0,1.97948-.0196l.0348-.0003c.3655,0,.4749.1198.4701.5038-.0207,1.6015-.0121,3.204-.00638,4.8062a1.54592,1.54592,0,0,0,1.57108,1.6654q1.563.0216,3.12692.0214,1.50132,0,3.00258-.0189a1.57017,1.57017,0,0,0,1.6019-1.715c.005-1.5326.0207-3.0655-.0093-4.5973-.0089-.4673.0654-.6735.5511-.6735m.0003-7h-.0003a7.54455,7.54455,0,0,0-5.1772,1.9795,7.45962,7.45962,0,0,0-5.1304-1.9716c-.0434,0-.1216.00068-.165.0015-.6145.01118-1.2323.0184-1.84968.0184q-.837,0-1.67342-.0201c-.0595-.0016-.1594-.0028-.2189-.0028a7.38072,7.38072,0,0,0-7.4853,7.7414c.0145.6471.0107,1.3104.0077,1.9738l-.0026.9178c.0002.3679.0076.7313.01552,1.0946.01158.536.02258,1.0423-.00552,1.37a10.15712,10.15712,0,0,0,2.9134,7.6912,11.94985,11.94985,0,0,0,4.2319,3.0093,7.347,7.347,0,0,0,7.3146,5.7373c.0443,0,.1287-.0008.1731-.00172.6196-.01128,1.244-.01758,1.868-.01758q.9114,0,1.822.0187c.0492.0011.1392.002.1884.002a7.34056,7.34056,0,0,0,7.3086-5.7269,12.12041,12.12041,0,0,0,4.0183-2.7991,10.37954,10.37954,0,0,0,3.1545-7.5295c-.0627-1.5917-.0396-3.2367-.0151-4.9783l.0116-.8509a7.40286,7.40286,0,0,0-7.5435-7.6498l-.2131.00238c-.5898.01262-1.1868.02332-1.7833.02332-.5196,0-.9781-.00832-1.4017-.0254-.1218-.0051-.2449-.0075-.3626-.0075Z" fill="#fff"/><path d="M415.45661,89.15562a4.03238,4.03238,0,0,1-2.9512-1.1719,4.26336,4.26336,0,0,1-1.1582-3.1421c.0196-2.5767.0176-5.1567.01472-7.7368l-.22462-.001c-.6827,0-1.3663.0044-2.0489.0181-.0234.0005-.0869.0014-.1113.0014a3.95327,3.95327,0,0,1-2.9521-1.1997,4.00015,4.00015,0,0,1-1.0723-3.041,16.18627,16.18627,0,0,0,.0029-1.8852,3.93713,3.93713,0,0,1,4.125-4.3843c1.3994.0097,2.7324.0122,4.0664.0122l8.4405.0049c1.2363,0,2.4726-.0054,3.7089-.0254.0186-.0005.084-.001.1026-.001a4.02421,4.02421,0,0,1,4.1914,4.5225,17.94285,17.94285,0,0,0,.0019,1.8476,3.86219,3.86219,0,0,1-3.9785,4.146h0c-.8525-.0107-1.62988-.0151-2.4072-.0151-.0078,2.5927-.0098,5.1865.0088,7.78018a4.177,4.177,0,0,1-1.1621,3.09432,4.04419,4.04419,0,0,1-2.96,1.1709c-.0508,0-.1992-.0034-.249-.0059-.541-.0234-1.0801-.0381-1.6201-.0381-.4795,0-.958.0113-1.4356.0396C415.67141,89.15262,415.56111,89.15562,415.45661,89.15562Z" fill="#fe0000" fill-rule="evenodd"/><path d="M425.39961,70.104c.60632,0,.73932.20322.6997.77952a20.83645,20.83645,0,0,0-.0036,2.22848c.0153.39022-.1089.50832-.4831.50832l-.0275-.0002q-1.1961-.016-2.39218-.0153-1.10268,0-2.20562.0103c-1.1926.0107-1.2669.0764-1.2725,1.2626-.0143,3.344-.02288,6.6884.0007,10.032.0033.53528-.1095.74028-.6229.74028-.0308,0-.0632-.00068-.097-.00218-.589-.0259-1.1794-.0417-1.7696-.0417-.5483,0-1.0964.0136-1.6426.0456-.0448.0026-.0869.004-.1266.004-.5457,0-.6137-.2512-.6097-.7842.0257-3.3207.0144-6.6423.0115-9.963-.0015-1.207-.0858-1.29052-1.3141-1.29552-.7998-.00318-1.5993-.00878-2.3988-.00878-.7099,0-1.4196.0044-2.1289.01878l-.0383.00042c-.4379,0-.5481-.1535-.5287-.5878a18.97683,18.97683,0,0,0-.0044-2.2975c-.0416-.5534.1822-.6253.6341-.6253l.0409.00018q2.0124.015,4.0241.01262,2.0634,0,4.1272-.0027c1.4399,0,2.8797.00708,4.3197.00708,1.2539,0,2.508-.00538,3.76152-.02568l.04668-.00032m0-7c-.0382,0-.123.00072-.1611.00132-1.21458.0196-2.431.02468-3.6471.02468q-1.07145,0-2.1426-.00348-1.08855-.0027-2.1771-.0036l-2.0706.0013-2.0566.0014q-1.986,0-3.9718-.0124l-.0932-.0004a7.43232,7.43232,0,0,0-7.6145,8.1495,13.071,13.071,0,0,1-.0077,1.4472,7.53173,7.53173,0,0,0,2.0362,5.6318,7.41986,7.41986,0,0,0,4.3698,2.2075c-.0009,1.4251-.0051,2.8554-.016,4.2685a7.49338,7.49338,0,0,0,7.6095,7.8384c.1686,0,.3478-.0049.5384-.0161.3846-.02262.788-.0335,1.2308-.0335.4486,0,.9268.0114,1.46192.03488.14478.00632.27788.009.40468.009a7.495,7.495,0,0,0,7.6228-7.78318c-.0101-1.4351-.0142-2.8821-.01448-4.3184a7.33968,7.33968,0,0,0,6.38938-7.711c-.0206-.5203-.0357-1.0576-.007-1.481a7.51647,7.51647,0,0,0-7.6837-8.25242Z" fill="#fff"/><path d="M480.43411,89.14432c-.5351-.019-1.0693-.0268-1.6045-.0268-.6015,0-1.2041.0097-1.8056.0254-.0293.0004-.1074.0014-.1377.0014a3.95556,3.95556,0,0,1-2.8926-1.1474,4.0005,4.0005,0,0,1-1.1357-2.962c.0156-2.6425.0146-5.2856.0117-7.9292q-1.1499,0-2.29878.0137h-.002a4.01331,4.01331,0,0,1-3.03612-1.1992,3.94613,3.94613,0,0,1-1.0606-3.002,19.58662,19.58662,0,0,0,0-2.0053,3.934,3.934,0,0,1,4.1055-4.2998c1.3945.0097,2.73922.0122,4.084.0122l8.3633.0019q1.91895,0,3.8378-.0175h.002a4.1676,4.1676,0,0,1,3.2217,1.2685,4.09293,4.09293,0,0,1,1.0459,3.188,17.47592,17.47592,0,0,0,.001,1.9067,3.86187,3.86187,0,0,1-3.9864,4.146c-.8467-.0092-1.6328-.0141-2.4179-.0146v.0493c-.003,2.5933-.0059,5.187.0156,7.7808a4.10757,4.10757,0,0,1-1.1504,3.0468,4.02962,4.02962,0,0,1-2.9531,1.1665C480.60021,89.14772,480.47521,89.14582,480.43411,89.14432Z" fill="#fe0000" fill-rule="evenodd"/><path d="M486.93871,70.10922c.528,0,.7448.1185.7023.7093a20.37789,20.37789,0,0,0-.0043,2.2974c.0169.39908-.1224.503-.4891.503l-.0244-.0001q-1.2252-.0141-2.45028-.0143-1.10793,0-2.21592.0121c-1.1327.0121-1.22408.1185-1.2255,1.2468-.0014,3.36658-.0142,6.7327.0135,10.0992.0041.52238-.1273.6853-.6038.6853q-.04065,0-.0846-.0015c-.5766-.0203-1.1535-.0288-1.73068-.0288-.63022,0-1.26072.0101-1.89072.026l-.0494.0006c-.4205,0-.5304-.147-.5276-.587.02-3.4129.0128-6.8255.01-10.2384-.0015-1.10982-.08-1.1965-1.1754-1.2041q-1.146-.008-2.2921-.0091-1.1874,0-2.3743.0142l-.0324.0003c-.3864,0-.547-.0964-.52608-.5356a22.55071,22.55071,0,0,0-.00142-2.3671c-.0281-.5062.1628-.6045.6105-.6045l.0251.00008q2.04765.015,4.0949.01242,2.06145,0,4.1235-.0025c1.3968,0,2.7932.0042,4.19.0042,1.2963,0,2.5929-.0036,3.8892-.0177l.039-.0002m0-7-.1132.0006c-1.2727.0138-2.5441.0173-3.815.0173l-2.0844-.00212-2.1056-.00208-2.0682.0013-2.0553.0012q-2.02212,0-4.04408-.0122l-.07592-.0003a7.4294,7.4294,0,0,0-7.5998,7.9919,15.67574,15.67574,0,0,1-.001,1.63718,7.48623,7.48623,0,0,0,2.02372,5.59362,7.40689,7.40689,0,0,0,4.37158,2.20938q-.0015,2.23563-.0132,4.47132a7.4045,7.4045,0,0,0,7.5275,7.628c.0579,0,.1652-.0014.22312-.0028.57368-.01452,1.14548-.0239,1.717-.0239.49508,0,.98978.0071,1.48438.0245.1167.004.2261.0058.3309.0058a7.46671,7.46671,0,0,0,7.6035-7.741c-.01178-1.4432-.0161-2.9043-.0171-4.3584a7.33774,7.33774,0,0,0,6.4029-7.7281,14.49966,14.49966,0,0,1-.00758-1.498,7.49435,7.49435,0,0,0-7.68422-8.2132Z" fill="#fff"/><path d="M627.5328,89.14532c-.5371-.0205-1.0684-.0288-1.5987-.0288-.6025,0-1.2041.0107-1.8056.0264-.0303.0004-.1075.0014-.1377.0014a3.95129,3.95129,0,0,1-2.8877-1.1455,4.01134,4.01134,0,0,1-1.1397-2.9639c.0147-2.645.0137-5.2866.0118-7.9282l-.19727-.0005q-1.02109,0-2.041.0132h-.003a4.06271,4.06271,0,0,1-3.09473-1.2153,3.96931,3.96931,0,0,1-1.0527-3.04,19.59733,19.59733,0,0,0,0-2.0054,3.9145,3.9145,0,0,1,4.0693-4.2451c1.4072.0092,2.7695.0117,4.1319.0117l8.2636.0005q2.02005,0,4.0391-.0142h.001a4.06481,4.06481,0,0,1,3.0781,1.2251,4.0191,4.0191,0,0,1,1.0615,3.082,15.988,15.988,0,0,0-.001,1.8335,4.06943,4.06943,0,0,1-1.0537,3.1402,4.0033,4.0033,0,0,1-3.0156,1.2343s-.127-.0014-.1592-.0024c-.6699-.0186-1.3408-.0244-2.0127-.0244h-.165c-.00387,2.6099-.00487,5.2192.0156,7.8286a4.12824,4.12824,0,0,1-1.1553,3.0591,4.01958,4.01958,0,0,1-2.9404,1.1616C627.7007,89.14922,627.5748,89.14682,627.5328,89.14532Z" fill="#fe0000" fill-rule="evenodd"/><path d="M634.1425,70.11142c.4707,0,.6198.1371.5931.6193a19.51935,19.51935,0,0,0,.0007,2.2284c.0289.48588-.08337.6676-.5757.6676l-.0613-.0009c-.70237-.0194-1.4053-.02582-2.1086-.02582-.7832,0-1.56677.00792-2.34977.01472-1.22193.0104-1.31193.1029-1.31333,1.3084-.0043,3.3447-.0143,6.6891.0114,10.0334.0034.5087-.1063.6929-.5952.6929-.0266,0-.0544-.0006-.0832-.0016-.5756-.0222-1.1515-.0311-1.72767-.0311-.63193,0-1.264.0108-1.89523.0269l-.04877.0007c-.42853,0-.52753-.161-.52543-.59432.0185-3.36778.0121-6.73538.0093-10.103-.0015-1.28328-.0514-1.33038-1.3283-1.334-.78657-.00248-1.5731-.00648-2.3595-.00648-.70007,0-1.40007.0032-2.0997.0136l-.0458.0004c-.3977,0-.5845-.0876-.5583-.5631a23.17266,23.17266,0,0,0,.0014-2.3678c-.0233-.4678.1419-.5763.5741-.5763h.02q2.069.01425,4.1371.0119,2.0421,0,4.0843-.0023,2.0778,0,4.1551.003,2.03325,0,4.0668-.0144l.0225-.0001m0-7-.0778.0004q-2.00925.017-4.0115.0141l-2.0699-.0015-2.0852-.0015-2.048.0012-2.03617.0011q-2.0445,0-4.08893-.0117l-.0683-.0002a7.40984,7.40984,0,0,0-7.5655,7.9239,16.19385,16.19385,0,0,1,.0003,1.6392,7.371,7.371,0,0,0,6.38443,7.8642q-.00124,2.23545-.01233,4.4709a7.40707,7.40707,0,0,0,7.52533,7.6328c.06137,0,.17157-.0015.23287-.0031.566-.0145,1.1387-.0245,1.71113-.0245.48647,0,.97287.0072,1.45887.0259.13.0048.2434.0068.352.0068a7.46476,7.46476,0,0,0,7.59513-7.7399c-.01113-1.4461-.01553-2.9071-.01663-4.3628a7.41723,7.41723,0,0,0,6.40163-8.0038,12.50959,12.50959,0,0,1,.00117-1.4273,7.43121,7.43121,0,0,0-7.5826-8.0042Z" fill="#fff"/><path d="M504.62161,110.37722a4.09675,4.09675,0,0,1-3.0068-1.1836,4.20966,4.20966,0,0,1-1.16888-3.1264c.02928-2.57422.02338-5.1455.01748-7.7168h-.1513c-.7061,0-1.4121.0034-2.11818.0161-.02052.00048-.07912.001-.10062.001a3.90778,3.90778,0,0,1-4.0381-4.2456,20.08138,20.08138,0,0,0-.0009-2.0147,3.90454,3.90454,0,0,1,4.0605-4.2573c1.4023.0088,2.7588.0112,4.1152.0112l8.42092.0005q1.95417,0,3.90918-.0122h.001a4.05035,4.05035,0,0,1,3.0957,1.2285,3.99814,3.99814,0,0,1,1.0547,3.0747c-.0322.5767-.0322,1.2217.001,2.02538a3.88971,3.88971,0,0,1-4.0157,4.188c-.7373-.01168-1.3828-.01458-2.0283-.01458l-.35058.0004-.001.3199c-.00482,2.4609-.00972,4.92228.02148,7.3828a4.21187,4.21187,0,0,1-1.1679,3.1357,4.10408,4.10408,0,0,1-3.0157,1.187q-.13032,0-.2754-.0058-.747-.03225-1.4902-.0318-.74415,0-1.48828.0318C504.80431,110.37532,504.71051,110.37722,504.62161,110.37722Z" fill="#fe0000" fill-rule="evenodd"/><path d="M514.61141,91.34912c.4474,0,.6344.1013.6064.6036-.0443.78728-.0343,1.58-.0021,2.3685.0174.4219-.1203.5444-.5167.5444l-.0353-.0003c-.65878-.011-1.3173-.0139-1.9761-.0139-.80468,0-1.6096.0045-2.4145.00458-1.45118.00112-1.4526.00192-1.4526,1.48622-.0014,3.25178-.0229,6.5045.0179,9.756.0072.6202-.1746.7789-.6833.7789-.0407,0-.0837-.00112-.1287-.003q-.81735-.0348-1.6369-.0348-.81885,0-1.6368.0348-.069.003-.1312.0031c-.50358,0-.6824-.15822-.6758-.7744.0386-3.3676.0178-6.7369.0129-10.1049-.0014-1.063-.0829-1.1387-1.1584-1.1408-.828-.00212-1.656-.007-2.4839-.007-.7286,0-1.4571.0038-2.1852.0167l-.0377.0003c-.4286,0-.563-.1346-.5422-.582a23.536,23.536,0,0,0-.0014-2.3685c-.0253-.4713.1428-.5671.5666-.567h.0218q2.0634.01395,4.1266.0116,2.08335,0,4.1668-.0024,2.0811,0,4.1622.0027,1.99545,0,3.9913-.0123l.0263-.0001m0-7-.0891.0004c-1.3019.0096-2.61538.012-3.9285.012l-2.0745-.0014-2.0877-.0013-2.0893.00118-2.0775.00122q-2.04,0-4.0798-.0114l-.0686-.0002a7.39819,7.39819,0,0,0-7.55648,7.942c.02738.5118.02708,1.0716-.00092,1.6628a7.51679,7.51679,0,0,0,2.0324,5.6239,7.42713,7.42713,0,0,0,4.377,2.2133c-.0007,1.4141-.0063,2.83238-.0223,4.2309a7.53012,7.53012,0,0,0,7.6754,7.8547c.1368,0,.2805-.003.4321-.0095.4402-.0188.8907-.0284,1.3359-.0284s.8958.0096,1.3391.0285c.153.0064.2934.00918.4265.00918a7.53217,7.53217,0,0,0,5.5047-2.22658,7.65616,7.65616,0,0,0,2.17812-5.6339c-.01752-1.3974-.02332-2.8152-.02412-4.2256a7.36369,7.36369,0,0,0,6.396-7.7578c-.0281-.6875-.0291-1.2243-.0031-1.6869a7.42814,7.42814,0,0,0-7.59529-7.9971Z" fill="#fff"/><path d="M512.938,89.14482a3.92055,3.92055,0,0,1-2.8662-1.1406,3.96364,3.96364,0,0,1-1.12588-2.9351c.01458-1.8032.01258-3.6025.01068-5.4018l.0019-3.7158c.004-1.7168.0079-3.4332-.0175-5.1499a4.05091,4.05091,0,0,1,1.1308-3.0235,4.00345,4.00345,0,0,1,2.9473-1.1689c.0361,0,.1543.0019.1894.0029.5391.0166,1.0811.0225,1.6231.0225.6328,0,1.2666-.0083,1.8994-.0191h.002a3.88856,3.88856,0,0,1,4.07319,4.0117q-.019,7.2444.001,14.4707a3.89266,3.89266,0,0,1-4.02539,4.0435s-.0801-.0005-.1006-.001q-.939-.01605-1.8809-.0176-.86415,0-1.73038.0205C513.04161,89.14382,512.96731,89.14482,512.938,89.14482Z" fill="#fe0000" fill-rule="evenodd"/><path d="M513.01961,70.10922c.0261,0,.05332.0004.0815.0012.576.01758,1.1526.0243,1.7295.0243.6532,0,1.3068-.0086,1.9598-.0196l.0307-.0002c.3685,0,.4849.124.4849.5122q-.0192,7.24095.0014,14.48188c.0014.43532-.1507.53212-.524.53212l-.0423-.0004c-.6458-.01072-1.2918-.01772-1.9379-.01772q-.9105,0-1.8206.02122l-.0449.0006c-.4039,0-.4949-.14682-.4914-.5512.0192-2.4134.0092-4.8273.0092-7.2408,0-2.367.0193-4.7344-.0143-7.1014-.008-.5112.1355-.6423.5784-.6422m0-7.0001a7.43818,7.43818,0,0,0-7.5776,7.7521c.0237,1.6671.01992,3.4019.0162,5.0796l-.0027,1.912.0013,1.8536c.0019,1.7772.0039,3.5544-.0103,5.3315a7.37532,7.37532,0,0,0,7.4912,7.6069c.0577,0,.16022-.0013.2178-.0027q.82365-.0204,1.6477-.01912c.6073,0,1.2146.00672,1.82172.01672.03868.0007.11978.0014.15848.0014a7.38772,7.38772,0,0,0,7.52389-7.5559c-.0146-4.5171-.0151-9.2407-.0013-14.4396a7.33849,7.33849,0,0,0-7.48489-7.5307c-.0403,0-.1113.0006-.1516.0013-.61058.0102-1.225.0185-1.8389.0185-.5058,0-1.0112-.0056-1.5163-.021-.1018-.0031-.2002-.0046-.2947-.0046Z" fill="#fff"/><path d="M416.03771,51.385c-.9542-.02048-1.9063-.02828-2.8584-.02828-1.0752,0-2.15038.01028-3.2256.0235h-.003a3.96589,3.96589,0,0,1-4.2187-4.1426q.02775-12.2601-.001-24.51762a3.94641,3.94641,0,0,1,4.1358-4.13378c1.2578.0117,2.4453.0186,3.6337.0186q1.69785,0,3.3946-.0205h.0009a4.538,4.538,0,0,1,3.9874,2.1865q2.2953,3.6342,4.5966,7.2646-.00435-2.6088-.0146-5.2177a4.15188,4.15188,0,0,1,1.165-3.066,4.09111,4.09111,0,0,1,3.0147-1.1694c.0176,0,.084.0005.1015.001q1.5366.0249,3.0674.0234,1.65975,0,3.3213-.0205h.001a3.91448,3.91448,0,0,1,4.1181,4.0825q-.0219,12.29235.001,24.5874a3.9282,3.9282,0,0,1-4.0898,4.125c-1.1455-.01312-2.2178-.02-3.291-.02q-1.62015,0-3.2412.022h-.002a4.43274,4.43274,0,0,1-3.9248-2.1494q-2.6103-4.0584-5.2324-8.1172.00435,2.9472.0224,5.896a4.29624,4.29624,0,0,1-1.1894,3.1811,4.20664,4.20664,0,0,1-3.1055,1.19338C416.17731,51.387,416.06211,51.38552,416.03771,51.385Z" fill="#fe0000" fill-rule="evenodd"/><path d="M429.64461,22.08242l.0482.0004q1.56195.02535,3.1236.0239,1.67865,0,3.358-.0203l.0227-.0001c.4331,0,.5586.1205.5572.5751q-.02145,12.30015.0007,24.6017c.0007.4794-.12508.6182-.5883.6182l-.03078-.0002q-1.63173-.01968-3.26342-.0202-1.64415,0-3.2882.0227l-.02438.0002a.956.956,0,0,1-.90542-.5365q-5.55435-8.6334-11.1315-17.252a2.20361,2.20361,0,0,0-.547-.6296v.7038c0,5.6218-.0165,11.2439.0207,16.8657.0041.7032-.1933.8519-.7959.8519-.02888,0-.0588-.0003-.0896-.001-.9771-.02112-1.95428-.0292-2.9316-.0292-1.0901,0-2.1803.01008-3.2701.0239l-.0409.0003c-.4635,0-.6375-.1008-.6369-.6373q.029-12.2655-.0006-24.5325c-.00218-.5448.1786-.6251.6331-.6251l.0374.0002q1.78875.01755,3.5777.01858,1.73055,0,3.461-.02138l.02562-.0002a1.00683,1.00683,0,0,1,.95918.55758q5.44395,8.61948,10.9122,17.22492c.0471-.0068.0957-.01292.1428-.02v-.7356c0-5.4361.01-10.8726-.0143-16.30832-.0027-.56988.1454-.71958.6788-.71958m.0002-7h-.0002a7.543,7.543,0,0,0-5.4964,2.2024,7.4,7.4,0,0,0-.7855.9314,7.96587,7.96587,0,0,0-6.39678-3.1328c-.03372,0-.093.0004-.12682.0009-1.1127.0144-2.2363.02068-3.3598.02068q-1.7547,0-3.5092-.01818l-.1059-.0006a7.44084,7.44084,0,0,0-7.6331,7.6527c.0201,7.9162.0202,16.1587.0006,24.4884a7.45494,7.45494,0,0,0,7.6369,7.6538c.0281,0,.0969-.0004.125-.0008,1.0647-.0134,2.12532-.0235,3.186-.0235q1.3905,0,2.7806.0277l.2406.0026a7.65475,7.65475,0,0,0,5.5894-2.2267,7.42954,7.42954,0,0,0,1.0768-1.3742,7.94547,7.94547,0,0,0,6.69292,3.5976c.02958,0,.08358-.0003.11318-.0007,1.0735-.0153,2.1365-.0222,3.1994-.0222q1.5894,0,3.1787.0197c.0282.00038.0873.0007.1155.0007a7.433,7.433,0,0,0,7.5883-7.6279c-.0148-8.0895-.01508-16.3583-.0007-24.5798a7.40411,7.40411,0,0,0-7.5572-7.5873l-.0798.0003c-1.1133.0122-2.2073.0201-3.301.0201q-1.50495,0-3.0098-.023c-.0378-.0006-.12358-.0013-.1617-.0013Z" fill="#fff"/><path d="M552.7095,51.93192a11.98283,11.98283,0,0,1-10.3662-5.9497,12.53828,12.53828,0,0,1-1.416-11.5527,12.869,12.869,0,0,1,8.55763-7.6812,12.14893,12.14893,0,0,1,3.08887-.4048,11.87834,11.87834,0,0,1,1.87013.14848q.0015-1.16742.00677-2.32718c-.0039-.0444-.0156-.13182-.0263-.2192a4.9094,4.9094,0,0,1,1.0791-4.1065,4.287,4.287,0,0,1,3.2422-1.3349,8.99116,8.99116,0,0,1,1.0293.0742c.082.0098.163.022.2412.0264.4775-.0074,1.0156-.00882,1.55373-.00882l1.71867.00192c.583,0,1.1651-.00192,1.7461-.0102h.0039a3.93334,3.93334,0,0,1,4.1836,4.102q-.02775,12.28935-.0029,24.5889a3.89734,3.89734,0,0,1-4.0469,4.1021c-1.0879-.0118-2.1142-.0142-3.1406-.0142H558.607c-.12007.0078-.2285.0127-.335.0127a4.02522,4.02522,0,0,1-1.0078-.1265,16.88286,16.88286,0,0,1-3.9082.6636q-.32805.01545-.6455.0156Z" fill="#fe0000" fill-rule="evenodd"/><path d="M558.74593,22.00412c.38817,0,.84107.0996,1.22667.0996l.0245-.0001c.523-.0061,1.0459-.0077,1.5689-.0077.57193,0,1.1436.002,1.7154.002.6013,0,1.2028-.0022,1.804-.0108l.0489-.0003c.4185,0,.5894.0874.5881.5899q-.0277,12.3036-.00347,24.6072c.00077.4332-.08923.59708-.547.59708l-.02233-.00018c-1.0443-.01182-2.08867-.0143-3.1334-.0143q-1.1295,0-2.259.0013-.61455,0-1.229-.0016h-.0034c-.0831,0-.171.0129-.2534.0129-.1653,0-.3088-.0515-.3482-.3604-.019-.151-.07-.20072-.133-.20072-.1097,0-.2558.15072-.33327.18032a13.76709,13.76709,0,0,1-4.26923.92168q-.24255.01173-.47877.01162a8.53336,8.53336,0,0,1-7.42333-4.3451,9.023,9.023,0,0,1,5.0898-13.9534,8.5983,8.5983,0,0,1,2.1986-.2897,9.59318,9.59318,0,0,1,4.6486,1.2863c.2.1096.3971.2228.7235.4056,0-2.5295-.00717-4.9412.0049-7.3532.00293-.66812-.282-1.5344.1086-1.9518a.89632.89632,0,0,1,.68633-.2262m-3.726,23.3307a6.29064,6.29064,0,0,0,1.04937-.0871,2.00487,2.00487,0,0,0,1.86463-2.1303c.02427-1.22942.00567-2.4602.00647-3.69042,0-1.23008.0242-2.46128-.00647-3.69038a2.867,2.867,0,0,0-2.83093-2.9983c-.0385-.0012-.0767-.0018-.1148-.0018a2.86332,2.86332,0,0,0-3.006,2.79448c-.09427,2.57272-.0592,5.15222-.0128,7.72712a1.93693,1.93693,0,0,0,1.8139,1.9646,7.06677,7.06677,0,0,0,1.23663.1121m3.72637-30.3307h-.00037A7.73851,7.73851,0,0,0,550.8571,22.94a15.83649,15.83649,0,0,0-2.264.42382,16.42706,16.42706,0,0,0-10.9286,9.7979,15.95309,15.95309,0,0,0,1.736,14.715,15.52694,15.52694,0,0,0,13.30843,7.5549q.4015,0,.81307-.01962a20.19166,20.19166,0,0,0,3.9078-.57938,7.61254,7.61254,0,0,0,.8416.0465c.1448,0,.293-.0046.44253-.0126l1.04327.0013,1.1354-.0006,1.1236-.0007c1.0182,0,2.0362.0024,3.054.0139l.10173.00058a7.40993,7.40993,0,0,0,7.547-7.60888c-.01413-9.4516-.013-17.2624.00347-24.5796a7.56073,7.56073,0,0,0-2.1676-5.4303,7.45094,7.45094,0,0,0-5.4205-2.1754c-.0321,0-.113.0006-.1451.001-.5717.00818-1.1398.01-1.7078.01l-.846-.0009-.8694-.001q-.696,0-1.3917.0055a11.64883,11.64883,0,0,0-1.428-.0973Z" fill="#fff"/><path d="M540.6041,51.96612c-1.1163-.0156-2.2256-.0225-3.336-.0225q-1.66845,0-3.3379.0205h-.0019a3.93869,3.93869,0,0,1-4.15137-4.1396c.01557-2.8892.01367-5.7808.01167-8.6724l-.0009-1.5654c-.0596.0269-.1202.0552-.17877.083.05667,2.2139.04787,4.3589.03907,6.437-.0059,1.2432-.0107,2.4868-.002,3.7295a3.92262,3.92262,0,0,1-4.07907,4.1284c-1.15623-.0141-2.23343-.0205-3.31153-.0205q-1.61565,0-3.23139.0196h-.002a3.937,3.937,0,0,1-4.1504-4.1333q.0249-8.10063-.0019-16.2076a3.93211,3.93211,0,0,1,4.1025-4.1079c1.1895.0117,2.31149.021,3.43259.021q1.50735,0,3.0147-.0263c.0215-.0005.0869-.001.10843-.001a4.3146,4.3146,0,0,1,2.09567.501,11.75312,11.75312,0,0,1,5.07233-1.1431,13.43952,13.43952,0,0,1,10.95207,6.0933,6.56861,6.56861,0,0,1,1.082,3.7387q-.019,5.55405.00393,11.1157a4.06186,4.06186,0,0,1-1.13863,3.0015,3.99739,3.99739,0,0,1-2.9229,1.1509C540.6578,51.96662,540.6187,51.96662,540.6041,51.96612Z" fill="#fe0000" fill-rule="evenodd"/><path d="M532.69593,30.36672a9.90246,9.90246,0,0,1,8.03907,4.5341,3.103,3.103,0,0,1,.495,1.7821q-.01935,5.57355.0043,11.1479c.0014.4464-.0628.6357-.5617.6357l-.0254-.0001q-1.6848-.02355-3.37-.0229-1.6944,0-3.3887.0207l-.02957.0002c-.468,0-.58533-.1457-.58243-.6187.02-3.6232.0121-7.24672.0107-10.87a3.39832,3.39832,0,0,0-3.2881-3.03072,2.43776,2.43776,0,0,0-.6076.07522,7.82626,7.82626,0,0,0-1.5447.616,2.77151,2.77151,0,0,0-1.7475,2.8441c.105,3.4575.0221,6.9204.0465,10.3808.0027.4853-.1271.6034-.5781.6034l-.0375-.0003q-1.64141-.0201-3.2835-.02022-1.6329,0-3.26529.02022l-.0337.0003c-.4673,0-.5781-.1509-.5762-.6198q.02475-8.1177-.002-16.23472c-.0021-.502.166-.59508.6006-.59508l.0341.0002c1.134.0116,2.26809.0206,3.40239.0206q1.53885,0,3.0779-.02672l.0431-.00038c.5445,0,.666.2026.6118.7006a10.11363,10.11363,0,0,0-.00647,1.0177,16.2529,16.2529,0,0,0,2.33377-1.2107,8.40435,8.40435,0,0,1,4.22923-1.1495m.00017-7h-.0001a15.36226,15.36226,0,0,0-5.1347.8904,8.19642,8.19642,0,0,0-2.0337-.2485c-.0414,0-.1259.0008-.1673.0015-.9895.0187-1.9717.0256-2.9537.0256-1.1105,0-2.22059-.0089-3.33079-.0202l-.1057-.0006a7.465,7.465,0,0,0-5.4368,2.182,7.565,7.565,0,0,0-2.1637,5.443c.0188,5.13208.0195,10.4272.0019,16.1834a7.42723,7.42723,0,0,0,7.5762,7.6412c.0326,0,.0989-.00052.1316-.001,1.0483-.013,2.10789-.01952,3.16739-.01952q1.599,0,3.1976.01972c.02863.00028.0947.0008.1234.0008a7.59473,7.59473,0,0,0,4.1543-1.1623,7.66114,7.66114,0,0,0,4.13693,1.1622c.02787,0,.08537-.0003.11327-.0007q1.65165-.01965,3.305-.0202,1.6365,0,3.2722.0222c.0326.0005.0906.0009.1232.0009a7.41848,7.41848,0,0,0,7.5616-7.6574c-.0167-3.4799-.0181-7.1074-.00427-11.1021a10.13052,10.13052,0,0,0-1.671-5.6899,16.97461,16.97461,0,0,0-13.86293-7.6505Z" fill="#fff"/><path d="M460.41461,51.385q-1.44-.02922-2.8809-.02728c-1.0927,0-2.1865.0098-3.2793.022h-.0009a3.94508,3.94508,0,0,1-4.1739-4.1094q.0294-8.15115.003-16.2905a3.88589,3.88589,0,0,1,4.0185-4.0576c1.1533.0112,2.251.0166,3.3487.0166q1.63035,0,3.2587-.0152h.001a4.44122,4.44122,0,0,1,2.0948.4776,12.00205,12.00205,0,0,1,5.0644-1.1255,13.01936,13.01936,0,0,1,8.96,3.6806,9.17871,9.17871,0,0,1,3.1377,7.316c-.10648,2.7153-.0704,5.5283-.0352,8.249l.0195,1.5386a4.059,4.059,0,0,1-4.2529,4.3242c-.0195,0-.1025-.0005-.1221-.001q-1.5615-.0264-3.125-.0259-1.5849,0-3.1689.0264c-.0195.0005-.08688.001-.1065.001a4.01479,4.01479,0,0,1-4.19038-4.2442c.02148-2.6753.01858-5.3457.01658-8.0166l-.0019-2.1489c-.0635.0288-.1319.061-.2041.0972.0498,1.9985.0429,3.9516.0351,5.8442-.0049,1.3706-.00968,2.7412.0069,4.1113a4.238,4.238,0,0,1-1.168,3.1582,4.1762,4.1762,0,0,1-3.0977,1.20118C460.54741,51.387,460.439,51.38552,460.41461,51.385Z" fill="#fe0000" fill-rule="evenodd"/><path d="M467.86871,29.77592a9.59607,9.59607,0,0,1,6.5498,2.7185,5.72707,5.72707,0,0,1,2.0511,4.6405c-.13,3.3169-.05568,6.6424-.0186,9.9638.0075.6448-.1912.7855-.75508.7855l-.06192-.0006q-1.5912-.02655-3.1827-.0264-1.6143,0-3.2282.02678l-.04818.00042c-.53342,0-.69372-.1507-.68952-.7206.0278-3.554.0142-7.1083.0142-10.6623a3.35757,3.35757,0,0,0-3.3081-3.14352,2.79331,2.79331,0,0,0-.7553.10272,7.48941,7.48941,0,0,0-1.4712.617,2.72726,2.72726,0,0,0-1.6797,2.7488c.1022,3.4114.0108,6.8287.0522,10.243.0089.6694-.1821.8176-.7669.8176-.0266,0-.0541-.0003-.0823-.001-.9865-.0206-1.9732-.0283-2.9603-.0283-1.1037,0-2.2079.0097-3.3113.0219l-.0326.0002c-.4417,0-.6059-.1048-.6044-.6026q.02883-8.1534.0028-16.3068c-.0007-.4148.0979-.5482.5169-.5482l.0223.0001q1.64715.0168,3.2949.0164,1.6623,0,3.3246-.0154l.0262-.0001c.4202,0,.6126.0991.5594.566a11.42939,11.42939,0,0,0-.0086,1.1938c.7056-.3768,1.339-.6624,1.9168-1.0327a8.512,8.512,0,0,1,4.6337-1.3745m.0007-7h-.0001a15.44581,15.44581,0,0,0-5.13738.8796,8.18027,8.18027,0,0,0-1.96452-.2322l-.0894.0004q-1.63035.01485-3.2614.0151-1.61235,0-3.2238-.016l-.0934-.0005a7.38006,7.38006,0,0,0-7.5169,7.5603c.0158,5.9813.0148,11.3013-.0027,16.2699a7.5763,7.5763,0,0,0,2.1692,5.446,7.46973,7.46973,0,0,0,5.4351,2.1814l.1087-.0006c1.07912-.012,2.1574-.0215,3.2352-.0215.9384,0,1.8763.00718,2.8142.0268l.2284.00238a7.8336,7.8336,0,0,0,4.3248-1.21418,7.72465,7.72465,0,0,0,4.27952,1.2116c.03688,0,.12208-.0007.15908-.0012q1.563-.026,3.1173-.026,1.53315,0,3.0657.0255l.17892.0015a7.552,7.552,0,0,0,7.75458-7.8676l-.019-1.5415c-.0361-2.7984-.0701-5.4416.0327-8.066a12.654,12.654,0,0,0-4.22528-9.9904,16.50511,16.50511,0,0,0-11.36962-4.6428Z" fill="#fff"/><path d="M580.1822,52.514a16.05433,16.05433,0,0,1-10.084-3.439,12.13549,12.13549,0,0,1,.459-19.66848,16.179,16.179,0,0,1,9.667-3.05952,15.90729,15.90729,0,0,1,9.8164,3.23092,12.43344,12.43344,0,0,1,5.11033,9.5943,12.45361,12.45361,0,0,1-4.74413,9.7993A16.06462,16.06462,0,0,1,580.1822,52.514Zm.4736-17.98928-1.0361-.002" fill="#fe0000" fill-rule="evenodd"/><path d="M580.2482,29.84672a12.43255,12.43255,0,0,1,7.6729,2.517c4.8761,3.7108,4.9861,10.0124.2599,13.9066a13.02035,13.02035,0,0,1-15.88407.0815,8.64,8.64,0,0,1,.32987-14.1226,12.6376,12.6376,0,0,1,7.6214-2.3825m-3.1079,9.5614h.0043c0,1.6704-.0201,3.3408.0071,5.0105a2.01976,2.01976,0,0,0,1.781,2.1453,5.0237,5.0237,0,0,0,1.1327.1144c.2458,0,.4921-.0118.7378-.02732a2.18388,2.18388,0,0,0,2.3245-2.38738q.0375-4.8366,0-9.6738a2.77833,2.77833,0,0,0-2.92377-3.0066h-.00423a2.808,2.808,0,0,0-3.0537,3.0229c-.0236,1.6005-.0057,3.2012-.0057,4.802m3.10963-16.5614-.05063.0002a19.606,19.606,0,0,0-11.7108,3.7366,15.63166,15.63166,0,0,0-.589,25.2147,20.012,20.012,0,0,0,24.7337-.12622,15.92781,15.92781,0,0,0,6.0172-12.56728,15.90844,15.90844,0,0,0-6.4901-12.3114,19.29937,19.29937,0,0,0-11.8861-3.9465l-.02427-.0001Zm3.89527,11.8627h0Zm-7.0006,11.6987h0Z" fill="#fff"/><path d="M504.00251,52.51692a16.08412,16.08412,0,0,1-10.51658-3.7695,11.96652,11.96652,0,0,1-.03912-18.6353,16.03639,16.03639,0,0,1,10.5313-3.76612,15.84022,15.84022,0,0,1,10.7041,3.94582,12.27181,12.27181,0,0,1,4.13572,8.0239,4.18341,4.18341,0,0,1-.57422,2.7446,3.95135,3.95135,0,0,1-.1904,2.5801,13.10228,13.10228,0,0,1-5.7002,6.6177,16.20476,16.20476,0,0,1-8.3496,2.2588Z" fill="#fe0000" fill-rule="evenodd"/><path d="M503.97781,29.84622a12.45921,12.45921,0,0,1,8.3534,3.03878,8.817,8.817,0,0,1,3.0052,5.78892c.0503.4982-.0313.6834-.5583.6834l-.0358-.00032c-1.0032-.01428-2.0063-.01808-3.0098-.01808-1.1795,0-2.3594.0053-3.539.0053-1.15258,0-2.305.0037-3.4579.0037q-1.54515,0-3.0909-.0141l-.0355-.0001c-.4364,0-.6068.09528-.5936.5947.0378,1.43858.0021,2.8798.0178,4.3191a2.183,2.183,0,0,0,2.3039,2.4028c.2378.0155.476.0273.7139.0273a4.69693,4.69693,0,0,0,1.0885-.113,2.183,2.183,0,0,0,1.884-2.31562c.015-.64948.0186-1.30078-.0014-1.95038-.0107-.32162.0758-.4403.4154-.4403h.0074q1.84725.0111,3.6944.01168,1.6704,0,3.3413-.01168h.0119c.545,0,.3844.28768.2781.5663a9.58979,9.58979,0,0,1-4.2185,4.8327,13.063,13.063,0,0,1-14.7843-1.1637,8.47365,8.47365,0,0,1-.0307-13.3349,12.62188,12.62188,0,0,1,8.2405-2.9125m-2.55288,6.5944.03348-.0002q.57045-.0057,1.1413-.0048c.4774,0,.9548.0016,1.4317.0016h1.1127c2.01382,0,2.01382,0,1.8753-2.0324a2.93351,2.93351,0,0,0-2.9601-2.8195c-.0375-.001-.0746-.0015-.1116-.0015a2.71671,2.71671,0,0,0-2.8856,2.5507c-.0701.642-.0137,1.2972-.038,1.9453-.013.327.157.3608.40082.3608m2.55288-13.5944a19.53311,19.53311,0,0,0-12.82088,4.6191,15.46228,15.46228,0,0,0,.04618,23.9351,20.057,20.057,0,0,0,22.95082,1.8593,16.49421,16.49421,0,0,0,7.15037-8.3223,7.64154,7.64154,0,0,0,.5552-3.317,7.90091,7.90091,0,0,0,.44143-3.65,15.88739,15.88739,0,0,0-5.26822-10.2715,19.32971,19.32971,0,0,0-13.0549-4.8527Z" fill="#fff"/><path d="M488.26321,51.38412q-1.59075-.02568-3.1787-.0249-1.6728,0-3.3457.0215h-.00188a3.93868,3.93868,0,0,1-4.16212-4.1441c.0175-1.9853.0156-3.97362.0127-5.9624,0,0-.0059-6.28222-.004-7.3345l-.081.0005a3.88759,3.88759,0,0,1-3.9883-3.88522c-.042-1.37058-.0889-2.87408,1.1631-4.16458a4.26949,4.26949,0,0,1,2.9062-1.2607,3.8625,3.8625,0,0,1,1.0821-2.5454,3.92015,3.92015,0,0,1,2.9004-1.1661c1.1767.0084,2.3105.0127,3.4443.0127q1.7226,0,3.4453-.0136a4.0041,4.0041,0,0,1,3.002,1.1884,3.87887,3.87887,0,0,1,1.07132,2.4834c.03508-.0004.08488-.0009.10738-.0009a3.8632,3.8632,0,0,1,3.9599,3.9472,5.17455,5.17455,0,0,1-1.19428,4.1065,4.27806,4.27806,0,0,1-2.873,1.2544l-.001.6699c-.00392,4.1904-.00782,8.3809.01268,12.57078a4.01071,4.01071,0,0,1-4.1778,4.248C488.34531,51.385,488.28181,51.38462,488.26321,51.38412Z" fill="#fe0000" fill-rule="evenodd"/><path d="M488.501,24.41732c.40592,0,.553.1061.53692.5415-.035.8815.01,1.766-.01932,2.6483-.0124.3848.1066.4994.4615.4994l.0441-.00052c.3181-.008.6364-.01018.9548-.01018.3826,0,.7653.00318,1.1478.00318.3214,0,.6428-.00228.964-.01048l.0452-.0006c.3551,0,.4541.1192.4604.49908.0286,1.84572.0414,1.83352-1.81248,1.85142l-.02552.0001c-.4251,0-.9283-.1053-1.3563-.1053a.97773.97773,0,0,0-.75.2423c-.36418.3964-.1221,1.3641-.1221,2.0793-.0042,4.8333-.0128,9.6663.0107,14.4994.0028.558-.1307.7306-.678.7306l-.044-.0004q-1.61-.02625-3.2203-.025-1.70055,0-3.4013.0217l-.03018.0002c-.45792,0-.59682-.1239-.59252-.6104.025-2.7181.0114-5.4372.0114-8.1556,0-2.6959-.0128-5.3911.0128-8.08632.0041-.46928-.1283-.60858-.5426-.60858-.026,0-.0533.0005-.0815.00158-.3417.01252-.68358.01592-1.0258.01592-.4032,0-.8067-.0047-1.2101-.0047-.2302,0-.4605.0015-.6906.0064l-.0457.00038c-.3382,0-.4778-.08958-.49-.491-.0571-1.85228-.0721-1.85188,1.7968-1.85188.3575,0,.7154-.0069,1.073-.0069.24682,0,.4934.0033.7395.0145q.0339.00135.0649.0014c.3101,0,.4185-.114.4079-.4657-.02648-.9056.0101-1.8128-.0172-2.718-.0112-.3909.1094-.5043.49-.5043h.0164q1.72665.0129,3.45332.013,1.72362,0,3.44748-.0137l.0166-.0001m.0003-7h-.0003l-.0666.0003c-1.1369.0092-2.2673.0135-3.39748.0135q-1.70073,0-3.40132-.0128l-.0684-.0002a7.4487,7.4487,0,0,0-5.4137,2.2288,7.35511,7.35511,0,0,0-1.4088,2.074,7.34057,7.34057,0,0,0-2.5806,1.7335,8.52169,8.52169,0,0,0-2.1499,6.6665,7.42146,7.42146,0,0,0,4.0695,6.5307q.00033.2238.0005.4477l.0016,2.016.0018,2.131c.0027,1.9869.00532,3.9739-.0129,5.9603a7.42919,7.42919,0,0,0,7.59222,7.6747l.11248-.0006q1.6596-.01965,3.319-.0213,1.55328,0,3.1058.0241c.0381.0006.1203.0013.1585.0013a7.50323,7.50323,0,0,0,7.6779-7.7657c-.0171-3.529-.017-7.1158-.0142-10.629a7.38128,7.38128,0,0,0,1.8819-1.4055,8.55988,8.55988,0,0,0,2.1878-6.5681,7.3703,7.3703,0,0,0-4.8186-6.9737,7.34006,7.34006,0,0,0-1.3002-1.8662,7.49376,7.49376,0,0,0-5.476-2.2593Z" fill="#fff"/><path d="M448.62551,51.38262q-1.56585-.02265-3.1318-.022-1.63035,0-3.25878.0196H442.233a3.95161,3.95161,0,0,1-4.16408-4.1377q.02337-8.08965-.002-16.2036a4.04338,4.04338,0,0,1,1.14458-2.96492,4.00252,4.00252,0,0,1,2.9512-1.15178c1.1337.0122,2.1943.0175,3.2558.0175q1.64655,0,3.293-.0171h.001a3.912,3.912,0,0,1,4.1152,4.1006c-.0166,2.042-.0147,4.0845-.0127,6.127l-.001,4.09178c-.0029,1.98482-.0058,3.96922.0147,5.95312a3.95255,3.95255,0,0,1-4.1104,4.1885C448.70071,51.38362,448.64211,51.38312,448.62551,51.38262Z" fill="#fe0000" fill-rule="evenodd"/><path d="M442.16041,30.42222l.0358.0002q1.6152.0177,3.2312.0174,1.65915,0,3.3189-.0171l.0257-.0001c.4265,0,.5591.1156.5556.5712-.0228,2.7175-.0114,5.43518-.0114,8.1529,0,2.695-.015,5.3897.0129,8.0838.0055.50948-.1214.6527-.6108.6527l-.0413-.0003q-1.596-.0231-3.192-.0221-1.6446,0-3.2888.01918l-.03028.00022c-.45612,0-.59972-.1338-.59752-.6168q.0246-8.1177-.0014-16.2373c-.00208-.493.1483-.6039.5934-.6039m0-7a7.428,7.428,0,0,0-7.5933,7.634c.0183,5.1341.01882,10.4303.0014,16.1861a7.44115,7.44115,0,0,0,7.59742,7.6379l.11208-.0007c1.0656-.0117,2.1364-.0188,3.20692-.0188q1.54557,0,3.09048.0215c.0339.0005.109.001.1429.001a7.44673,7.44673,0,0,0,7.6104-7.7283c-.0202-1.9526-.0174-3.9625-.0146-5.9063l.0021-2.1019-.0015-2.0438c-.0021-2.01692-.0043-4.0337.0126-6.0506a7.403,7.403,0,0,0-7.555-7.6297l-.09038.00038c-1.08912.011-2.172.01682-3.25452.01682q-1.57785,0-3.15448-.017l-.11252-.0006Z" fill="#fff"/><path d="M442.03671,30.23662a3.89244,3.89244,0,0,1-2.8643-1.1543,3.93855,3.93855,0,0,1-1.1006-2.92632c.0215-1.19138.0157-2.38858.002-3.58538a3.81245,3.81245,0,0,1,3.916-3.9815c1.1729.00788,2.3154.0113,3.457.0113q1.7154,0,3.4287-.0108a3.81457,3.81457,0,0,1,3.9483,3.9766c-.0176,1.2227-.0235,2.4375.001,3.6514a3.8292,3.8292,0,0,1-3.9551,4.0166c-.5781-.0074-1.0703-.0093-1.5625-.0093l-3.7901-.0025c-.455,0-.9101.003-1.36418.0127C442.12651,30.23562,442.06211,30.23662,442.03671,30.23662Z" fill="#fe0000" fill-rule="evenodd"/><path d="M441.98841,22.08932h.0092q1.7232.01125,3.4465.0112,1.72635,0,3.453-.0109h.00782c.33408,0,.42268.1098.41848.4353-.0172,1.2544-.0229,2.5096.0021,3.7637.0076.382-.144.4458-.4562.4458l-.0336-.0003c-.5053-.0073-1.0106-.0093-1.5159-.0093-.6332,0-1.2666.00318-1.8993.00318-.6333-.00018-1.26658-.00538-1.9-.00538-.4817,0-.96358.003-1.4451.0136l-.0386.0005c-.36788,0-.4731-.1333-.4663-.511.0229-1.2313.0171-2.4628.0029-3.694-.0043-.3195.0729-.4424.415-.4424m0-7a7.31058,7.31058,0,0,0-7.4144,7.5352c.011.9554.0208,2.2256-.0023,3.4711a7.35995,7.35995,0,0,0,7.4651,7.6411c.0547,0,.1479-.0011.2027-.0024.4203-.0092.8508-.0117,1.281-.0117l.9373.0026.9606.00278.9688-.00158.9326-.0016c.4718,0,.9436.0018,1.4154.0086.0335.0005.10072.001.1341.001a7.32608,7.32608,0,0,0,7.4548-7.584c-.0201-1.0083-.0205-2.1295-.0014-3.5298a7.30952,7.30952,0,0,0-7.4174-7.531l-.0565.0002c-1.1316.007-2.2684.0107-3.4047.0107q-1.70055,0-3.4007-.011l-.055-.0002Z" fill="#fff"/><path d="M500.05361,7.00972Q542.368,7.00972,584.6817,7a27.69913,27.69913,0,0,1,14.6264,3.81542c7.65283,4.6091,12.3041,11.3425,13.5439,20.2101a27.75175,27.75175,0,0,1-18.98207,30.4277,28.95789,28.95789,0,0,1-9.114,1.3686q-75.1485-.008-150.29472-.0039c-6.7152,0-13.431.0518-20.1454-.0196a27.89764,27.89764,0,0,1-8.1428-54.4107,29.013,29.013,0,0,1,9.2533-1.3829Q457.74056,7.01807,500.05361,7.00972Zm.00432,49.2259q42.2779,0,84.55587-.0011a25.33694,25.33694,0,0,0,4.437-.3624,21.30276,21.30276,0,0,0-3.9185-42.2672q-85.0788-.00915-170.15809-.0015A21.29819,21.29819,0,0,0,398.07821,48.03a21.1089,21.1089,0,0,0,17.3538,8.206Q457.74431,56.23378,500.05793,56.23562Z" fill="#fe0000" fill-rule="evenodd"/><path d="M555.44593,70.12292c3.39067,0,6.78357.07,10.17227-.0224a4.75987,4.75987,0,0,1,4.7562,4.7401c-.1292,3.3397-.0549,6.6876-.0143,10.0317.00783.6738-.2114.7994-.8141.7734-1.067-.045-2.1389-.0539-3.2037.0028-.6556.0357-.8641-.1228-.8541-.81952.0421-3.04188.02-6.08488.0172-9.12718-.0007-1.56-.5307-2.0899-2.0797-2.0903q-.8013,0-1.6025,0c-1.4155.0022-1.93527.5128-1.9375,1.9161q-.00435,4.3197-.0007,8.63938c0,1.46622,0,1.46622-1.484,1.46622-.952,0-1.9068-.0425-2.8552.0153-.61187.03748-.7106-.1839-.7055-.7391.027-3.1119.0142-6.2242.0128-9.3361-.0014-1.3811-.5713-1.9589-1.9268-1.9618q-.90525-.0009-1.8111.0004c-1.35327.0039-1.8589.4946-1.861,1.8368-.0058,3.15828-.0172,6.317.0122,9.475.0049.5809-.1521.7444-.7292.7234-1.2526-.045-2.5081-.0278-3.7615-.0057-.3992.0068-.5727-.0629-.5713-.5231q.0246-7.2459-.0028-14.4919c-.0021-.5646.2978-.506.6541-.5056Q550.15085,70.125,555.44593,70.12292Z" fill="#030303" fill-rule="evenodd"/><path d="M549.1784,91.35882c3.3694,0,6.7409.0868,10.1053-.0293a4.742,4.742,0,0,1,4.7269,4.6991c-.0792,3.3902-.0285,6.7838-.0093,10.176.0029.4899-.07637.69338-.6341.6712-1.2055-.0485-2.4167-.041-3.6236-.00282-.4971.01612-.6085-.13748-.6055-.617.022-3.13618.01283-6.27278.0113-9.40958-.0014-1.4372-.5456-1.9896-1.9568-1.99042-.7198,0-1.4404-.00818-2.1609.00212a1.37379,1.37379,0,0,0-1.4697,1.3498,11.237,11.237,0,0,0-.0258,1.1833c-.0021,2.9506-.0114,5.901.0085,8.8519.003.4685-.0914.646-.6027.6306-1.2769-.0389-2.5559-.0442-3.83207.0015-.55283.0203-.64063-.1743-.63693-.6696.0213-3.1133.0128-6.227.00993-9.3399-.00143-1.4801-.52993-2.00972-1.99533-2.00972-.6271,0-1.2548-.00168-1.8826.00082-1.179.0035-1.7296.5456-1.7325,1.7503-.0085,3.0201-.0028,6.0406-.0028,9.0612,0,1.1926,0,1.1926-1.1884,1.1926-1.1155,0-2.231-.0164-3.345.0085-.3899.00858-.50637-.0989-.5056-.4977.0135-4.8323.0199-9.6649-.0057-14.4972-.0036-.5442.2441-.5206.6198-.52Q543.81165,91.36532,549.1784,91.35882Z" fill="#030303" fill-rule="evenodd"/><path d="M499.33381,70.12292c1.8346,0,3.6693.0168,5.5032-.0085a2.73473,2.73473,0,0,1,1.9703.7223,5.74076,5.74076,0,0,1,2.18962,4.5905c-.095,3.1784-.04222,6.3614-.01072,9.5425.00572.5728-.1721.6921-.7006.6752-1.2062-.0371-2.416-.0432-3.6214.0022-.5642.0214-.77128-.1078-.7399-.7077.0514-.9962-.005-1.9968.0229-2.9952.0121-.4299-.0751-.5988-.55928-.5938-2.67012.025-5.34112.0207-8.01062.0022-.4156-.0025-.5641.0853-.5498.5299.0328,1.06648-.0072,2.1363.0192,3.204.01.4192-.1021.5666-.5434.5571-1.3226-.0283-2.6473-.0254-3.9707-.0015-.4214.0075-.557-.1107-.5549-.5456.0165-3.5061-.0764-7.01552.0436-10.518a5.31754,5.31754,0,0,1,2.9173-4.3092,1.90317,1.90317,0,0,1,1.0219-.1474Q496.54781,70.12447,499.33381,70.12292Zm.0413,7.7517c1.367,0,2.7345-.011,4.1021.0079.36.005.4842-.0932.4692-.4653-.0286-.7177.0122-1.4375-.01348-2.1546a1.60761,1.60761,0,0,0-1.67972-1.6482q-2.88465-.01665-5.77028,0a1.47482,1.47482,0,0,0-1.64042,1.6297c-.0207.6948.0292,1.3926-.0165,2.0846-.0313.4845.16.5634.5871.5552C496.73281,77.85932,498.054,77.875,499.37511,77.87462Z" fill="#030303" fill-rule="evenodd"/><path d="M456.77911,70.12292c2.3924,0,4.78482.0143,7.1757-.0093a2.60109,2.60109,0,0,1,1.8353.6899c2.2297,1.9782,2.9131,4.7238,1.2513,7.35748a2.06793,2.06793,0,0,0-.19,2.21572,3.33449,3.33449,0,0,1,.3,1.6226c-.0243,1.044-.015,2.0895-.00148,3.1343.00428.32238-.02642.517-.43642.5081-1.13758-.0246-2.2759-.0178-3.4135-.0032-.3336.0047-.4457-.11252-.4379-.4438.018-.7423.0222-1.4865-.0013-2.2285a1.4756,1.4756,0,0,0-1.6661-1.6033q-2.8914-.00438-5.7826.0007a1.48969,1.48969,0,0,0-1.6325,1.5765q-.0342,1.1136.0015,2.2292c.0121.3632-.1006.4775-.4685.4721q-2.05452-.03-4.1106,0c-.3728.0057-.4657-.1186-.4643-.476q.01515-7.2795-.0057-14.5597c-.0022-.50672.2428-.4878.5935-.48672C451.81,70.12582,454.29521,70.12292,456.77911,70.12292Zm1.5297,7.7517c1.0205,0,2.041.009,3.0615-.0024a1.31618,1.31618,0,0,0,1.49262-1.4355c.015-.3942.01418-.7891.00068-1.183a1.49161,1.49161,0,0,0-1.70468-1.6404c-1.554-.0082-3.11012.0479-4.662-.0139-2.43162-.0975-2.81292.3871-2.723,2.8048a1.34492,1.34492,0,0,0,1.47258,1.4666C456.267,77.88582,457.28751,77.87432,458.30881,77.87462Z" fill="#030303" fill-rule="evenodd"/><path d="M373.79931,69.92792c2.6477,0,5.2954.0093,7.9431-.0096.43852-.0032.617.08568.5927.5646a20.37952,20.37952,0,0,0,.0015,2.36808c.0389.59272-.10568.78522-.74668.77772-3.344-.0371-6.68872-.0172-10.033-.0168-.20932,0-.41972-.0111-.627.0082a1.35426,1.35426,0,1,0,.07018,2.7052c1.533.0186,3.0659.0061,4.59882.0061,1.78818.0004,3.57718.0211,5.365-.0132.50428-.0101.62848.1392.59528.6163a13.52705,13.52705,0,0,0,0,1.88c.0339.481-.0978.6188-.5978.61448-3.205-.02538-6.4101-.01318-9.6152-.01288a1.91883,1.91883,0,0,0-.8198.1086,1.51482,1.51482,0,0,0-.9502,1.5397,1.6,1.6,0,0,0,1.5396,1.2644c3.5069.006,7.01412.0125,10.5209-.0079.515-.0032.7473.0829.701.666a20.801,20.801,0,0,0-.0083,2.1585c.00852.3421-.0717.4967-.4599.4953-4.1574-.0143-8.3148-.0011-12.4719-.0225a4.59484,4.59484,0,0,1-2.7298-.9038,3.11449,3.11449,0,0,1-1.3883-2.5981c-.01458-3.90132.0036-7.8035-.0197-11.7056-.0028-.5088.2429-.48772.5964-.487C368.50393,69.93152,371.15171,69.92792,373.79931,69.92792Z" fill="#030303" fill-rule="evenodd"/><path d="M527.64693,106.86092H521.7937a5.17763,5.17763,0,0,1-2.60659-.6284,3.32675,3.32675,0,0,1-1.8546-3.1074q.03315-5.64318-.0029-11.2874c-.0029-.5145.085-.706.6655-.7031q7.87259.03855,15.74629.00138c.5428-.00278.6678.15362.6406.66212a20.71065,20.71065,0,0,0,.0022,2.4374c.0371.55548-.175.6348-.6678.6316-3.4601-.02112-6.9208-.0118-10.38147-.0096a2.09374,2.09374,0,0,0-.82413.08248,1.36424,1.36424,0,0,0-.87987,1.42932,1.38172,1.38172,0,0,0,1.35827,1.1634c1.0448.02,2.0903.0064,3.1351.0064,2.2767.0003,4.552.015,6.8287-.0115.4964-.0057.717.0797.66993.6357a12.21225,12.21225,0,0,0-.00283,1.8792c.0356.5032-.1515.61448-.6271.6121-3.13507-.01962-6.2702-.0104-9.40607-.0101-.18643,0-.37263-.0114-.55693.0051a1.53755,1.53755,0,0,0-1.412,1.4575,1.5666,1.5666,0,0,0,1.5155,1.43088c3.5307.007,7.0615.01382,10.5908-.009.5042-.00318.70063.09322.6584.63812a15.45756,15.45756,0,0,0-.0014,2.0882c.0285.4806-.105.6256-.6027.6184C531.7346,106.84342,529.6908,106.86092,527.64693,106.86092Z" fill="#030303" fill-rule="evenodd"/><path d="M436.79293,69.92792c2.62518,0,5.25038.0137,7.87488-.0125.4878-.0049.6363.11358.6092.6071a18.98878,18.98878,0,0,0,.00292,2.4377c.04278.5903-.195.6646-.70282.6617-3.3907-.02-6.783-.0107-10.1745-.01-1.1869,0-1.91168.5149-1.9153,1.35508-.0036.83772.7305,1.36442,1.904,1.36442,3.1357.0004,6.2723.0189,9.4074-.0165.6056-.0068.7505.1732.70422.7349a11.6696,11.6696,0,0,0-.00152,1.81c.0343.47918-.14848.5685-.5877.5656-3.1823-.0178-6.3652-.0107-9.5475-.0071a2.157,2.157,0,0,0-.8241.0782,1.52541,1.52541,0,0,0-1.0256,1.4904,1.59034,1.59034,0,0,0,1.5376,1.3419c3.5315.0068,7.0622.01718,10.593-.0125.5427-.0039.6584.1528.6292.6549-.0443.7406-.0258,1.4865-.0049,2.22878.00852.32932-.0858.44072-.4286.44-4.1578-.01178-8.3163.00142-12.4741-.01928a4.55665,4.55665,0,0,1-2.7915-.9313,3.14346,3.14346,0,0,1-1.347-2.6167c.0073-3.8789.0114-7.7584-.01-11.63772-.0028-.46518.1629-.51768.5585-.51518C431.45031,69.93582,434.122,69.92792,436.79293,69.92792Z" fill="#030303" fill-rule="evenodd"/><path d="M582.4828,69.92792c2.6245,0,5.2497.0137,7.8749-.0117.4857-.0054.6384.1114.6113.6074a15.87077,15.87077,0,0,0,.0043,2.3667c.0628.6691-.2121.73768-.7777.7333-3.3686-.0242-6.7366-.0124-10.1045-.0117-1.1869,0-1.914.5153-1.9175,1.354-.0043.83408.73633,1.3655,1.9054,1.3655,3.1358.0004,6.2723.0189,9.4075-.0168.6063-.0071.7462.1721.69843.732a11.87523,11.87523,0,0,0-.00153,1.81038c.0329.46452-.1271.572-.57547.56912-3.20513-.0189-6.411-.0107-9.61683-.0085a2.01638,2.01638,0,0,0-.7556.07638,1.54956,1.54956,0,0,0-1.03757,1.48612,1.617,1.617,0,0,0,1.60677,1.3494c3.50723.0047,7.0151.0146,10.523-.011.5227-.0044.6784.1214.6413.6448a20.203,20.203,0,0,0-.0043,2.1596c.0144.3817-.0835.5207-.4956.5192-4.1107-.015-8.2227-.0004-12.3348-.0168a4.66266,4.66266,0,0,1-2.8059-.89132,3.09078,3.09078,0,0,1-1.4004-2.58408c.00293-3.9028.0093-7.8056-.0113-11.7081-.0022-.45282.1434-.5256.5519-.5231C577.1403,69.93652,579.8111,69.92792,582.4828,69.92792Z" fill="#030303" fill-rule="evenodd"/><path d="M484.378,106.93372c-2.2767,0-4.5519-.0121-6.8279.00928-.4507.00432-.612-.10778-.5878-.57878a20.04317,20.04317,0,0,0-.00138-2.2978c-.03432-.541.15848-.6506.66778-.6481,3.8313.0218,7.66422.0118,11.4956.0118.2092,0,.4193.00788.627-.005a1.619,1.619,0,0,0,1.539-1.504,1.5397,1.5397,0,0,0-1.5147-1.3555c-1.4161-.0303-2.83368-.0128-4.2506-.0142-1.2069-.0008-2.4153-.005-3.6222.0011a5.54306,5.54306,0,0,1-4.6562-2.7302,4.60455,4.60455,0,0,1,.34132-4.1649,5.85272,5.85272,0,0,1,4.63768-2.2607c4.1556.0739,8.3141.0339,12.4705.0089.5556-.0032.7163.1475.6827.6895a17.87022,17.87022,0,0,0,0,2.2282c.03.5081-.1557.6056-.6255.6034-3.8322-.0182-7.66438-.0096-11.4965-.0121a2.77581,2.77581,0,0,0-1.0312.1171,1.28156,1.28156,0,0,0-.0321,2.4792,2.61433,2.61433,0,0,0,1.0276.1339q3.86715-.00645,7.7343-.0007a4.72794,4.72794,0,0,1,4.4248,4.3895,3.76064,3.76064,0,0,1-1.0448,3.2355,5.35974,5.35974,0,0,1-3.8971,1.6846C488.42151,106.86942,486.39841,106.93372,484.378,106.93372Z" fill="#030303" fill-rule="evenodd"/><path d="M443.33521,106.93372c-2.23028,0-4.46128-.0143-6.6908.0104-.5136.0053-.7563-.0793-.7078-.6702a14.81435,14.81435,0,0,0,.0029-2.159c-.035-.543.1221-.7023.6842-.6983,3.8571.02638,7.7134.0142,11.5699.0128a5.83327,5.83327,0,0,0,.6955-.0197,1.62356,1.62356,0,0,0,1.3919-1.5046,1.59684,1.59684,0,0,0-1.4004-1.3327,6.10329,6.10329,0,0,0-.6956-.0199c-2.5095-.00152-5.019.0438-7.52708-.015a5.3171,5.3171,0,0,1-4.49352-2.8577,4.37153,4.37153,0,0,1,.6871-4.3484,5.94063,5.94063,0,0,1,4.5105-1.9397c4.1106.0878,8.2241.036,12.3362.0161.5013-.0025.7021.0903.6634.638a17.19164,17.19164,0,0,0-.0021,2.2286c.0315.5067-.095.6602-.6341.6563-3.8336-.0268-7.6672-.0132-11.5007-.0165a2.63673,2.63673,0,0,0-1.02978.1233,1.28252,1.28252,0,0,0-.00572,2.478,2.44205,2.44205,0,0,0,.9598.1293c2.5788-.0043,5.16192.0814,7.7356-.03282a5.54551,5.54551,0,0,1,4.345,3.13432c.7855,3.2965-.8299,5.8018-4.3464,6.1478C447.72011,107.10662,445.51911,106.93372,443.33521,106.93372Z" fill="#030303" fill-rule="evenodd"/><path d="M394.25393,70.12292c2.43808,0,4.87908.075,7.31358-.02a4.74823,4.74823,0,0,1,4.80342,4.7684c-.105,3.3408-.04792,6.6873-.00792,10.0302.00792.652-.1957.7681-.7805.7449-1.1362-.0447-2.276-.0411-3.413-.0007-.5341.0189-.7005-.1121-.69558-.6774.03068-3.1344.01578-6.2691.01438-9.4036-.0008-1.3412-.6042-1.9478-1.9583-1.9514q-3.44712-.0096-6.8958-.00032c-1.2494.00282-1.77428.51632-1.7782,1.77822-.0104,3.158-.026,6.3159.0143,9.4732.0089.672-.2071.8041-.817.782-1.229-.0443-2.461-.0279-3.69138-.0047-.40572.0076-.56672-.0803-.56532-.5295q.023-7.2447-.001-14.489c-.0019-.4824.2095-.5088.5866-.5067C389.00611,70.12822,391.63011,70.12292,394.25393,70.12292Z" fill="#030303" fill-rule="evenodd"/><path d="M528.6196,70.12292c2.463,0,4.9262-.0046,7.3885.0007a4.539,4.539,0,0,1,4.7106,4.6827c.0085,3.3922-.0093,6.7845.0143,10.1766.0035.51708-.1214.6824-.6535.6635-1.1605-.0422-2.3245-.04642-3.4843.0014-.5685.0229-.7427-.1164-.737-.7099.03073-3.1136.01573-6.2273.0142-9.3403-.0014-1.3733-.6134-1.9818-2.006-1.98462q-3.4161-.007-6.8309-.00068c-1.2875.0024-1.8117.5163-1.8153,1.82168-.01,3.16022-.0186,6.32032.01,9.47972.005.5698-.1328.7548-.7206.7341-1.2762-.0461-2.5559-.0279-3.83349-.0064-.395.0064-.51418-.115-.5135-.5127q.01815-7.2501-.0029-14.49872c-.0013-.47778.2028-.51488.5828-.51318C523.3684,70.12822,525.9943,70.12292,528.6196,70.12292Z" fill="#030303" fill-rule="evenodd"/><path d="M602.169,70.12292c2.4631,0,4.9255-.00392,7.3886.0007a4.51135,4.51135,0,0,1,4.6955,4.6791c.0029,3.3922-.0093,6.7848.0114,10.1767.0036.49558-.0785.6913-.6341.6688-1.1827-.049-2.3703-.0504-3.5537.0003-.5855.0247-.67977-.1903-.6762-.712.0221-3.0901.0122-6.1802.0107-9.2707-.0015-1.48582-.5735-2.0521-2.07027-2.0539q-3.38075-.00315-6.76163.0004c-1.2776.0024-1.8075.5363-1.8097,1.8261-.0035,3.18358-.0135,6.3665.0109,9.5499.0041.5095-.1001.6773-.64057.6595-1.29923-.0442-2.60173-.0289-3.90293-.0057-.39707.0072-.5078-.1114-.50707-.50812q.01931-7.249-.00293-14.49868c-.0013-.462.1671-.5231.565-.5209C596.91793,70.13012,599.5431,70.12292,602.169,70.12292Z" fill="#030303" fill-rule="evenodd"/><path d="M455.89641,95.04032c0-1.0216.0157-2.0436-.0072-3.0648-.01-.4017.0686-.5791.5278-.5677,1.2762.0325,2.5545.026,3.8314.0028.39352-.0075.5099.1075.5049.5035-.0207,1.6015-.0121,3.204-.00638,4.8062a1.54592,1.54592,0,0,0,1.57108,1.6654q3.06375.0423,6.1295.0025a1.57017,1.57017,0,0,0,1.6019-1.715c.005-1.5326.0207-3.0655-.0093-4.5973-.0093-.4921.0736-.6946.632-.6717,1.2055.0486,2.4153.03178,3.6222.0061.43062-.00932.6084.07568.602.5598-.02638,2.0661-.0728,4.1353.0085,6.1985.0622,1.5536-2.3317,3.92-3.8028,3.7382-.86908-.10682-1.7632.0015-2.6444-.0285-.4293-.0147-.56068.122-.5521.5506.0242,1.323-.00858,2.6466.0185,3.9699.0086.4324-.117.5535-.547.5449-1.3226-.0279-2.6466-.02572-3.9706-.0014-.4228.0082-.55848-.1078-.54848-.5446.02848-1.3229-.00562-2.6469.01918-3.9703.0079-.4231-.1056-.5663-.5433-.5498-.8806.0335-1.774-.0768-2.6438.0285-1.5083.1825-3.94508-2.231-3.8093-3.80212C455.96781,97.08992,455.89711,96.06222,455.89641,95.04032Z" fill="#030303" fill-rule="evenodd"/><path d="M417.27171,70.12292c2.6937,0,5.38822.025,8.08122-.0186.64628-.01032.787.1883.74638.7792a20.83641,20.83641,0,0,0-.0036,2.22848c.0157.39962-.115.51382-.5106.50812-1.5326-.0207-3.06518-.0185-4.5978-.005-1.1926.0107-1.2669.0764-1.2725,1.2626-.0143,3.344-.02288,6.6884.0007,10.032.0035.5674-.12358.7638-.7199.7381a33.36343,33.36343,0,0,0-3.4122.0039c-.662.0389-.7406-.2085-.7363-.7802.0257-3.3207.0144-6.6423.0115-9.963-.0015-1.207-.0858-1.29052-1.3141-1.29552-1.5097-.00608-3.0194-.02068-4.5277.01-.46988.00892-.587-.14068-.567-.58738a18.97683,18.97683,0,0,0-.0044-2.2975c-.0428-.5698.1957-.62912.675-.62512C411.83771,70.13332,414.55431,70.12292,417.27171,70.12292Z" fill="#030303" fill-rule="evenodd"/><path d="M478.82051,70.12292c2.6931,0,5.3861.0157,8.0792-.0135.5563-.0057.7849.1039.7413.7091a20.37789,20.37789,0,0,0-.0043,2.2974c.01722.4078-.1285.5074-.5135.5028q-2.3331-.02685-4.6662-.0021c-1.1327.0121-1.22408.1185-1.2255,1.2468-.0014,3.36658-.0142,6.7327.0135,10.0992.0044.552-.1427.7027-.6884.6838-1.2062-.0425-2.4145-.0332-3.6214-.0028-.4614.01138-.5799-.1297-.577-.5864.02-3.4129.0128-6.8255.01-10.2384-.0015-1.10982-.08-1.1965-1.1754-1.2041-1.5555-.011-3.1117-.015-4.6664.0051-.4099.0053-.5799-.084-.55848-.5353a22.5507,22.5507,0,0,0-.00142-2.3671c-.02858-.5156.17-.608.6356-.60442C473.34161,70.13292,476.08111,70.12292,478.82051,70.12292Z" fill="#030303" fill-rule="evenodd"/><path d="M625.8981,70.12292c2.7409,0,5.4817.0118,8.2219-.0114.4885-.0043.6428.1293.6157.6192a19.49642,19.49642,0,0,0,.0006,2.2284c.0301.5054-.0927.6817-.637.6667-1.4847-.041-2.9723-.0239-4.45837-.0111-1.22193.0104-1.31193.1029-1.31333,1.3084-.0043,3.3447-.0143,6.6891.0114,10.0334.0036.5363-.1186.712-.6784.6913-1.2069-.0464-2.4161-.035-3.6229-.0042-.4699.0121-.5763-.1443-.5742-.59362.0186-3.36778.0121-6.73538.0093-10.103-.0015-1.28328-.0514-1.33038-1.3283-1.334-1.4868-.00468-2.9737-.015-4.4592.00712-.4292.0064-.6313-.0693-.6041-.5627a23.17266,23.17266,0,0,0,.0014-2.3678c-.0236-.4749.1471-.57962.5941-.5763C620.4177,70.13222,623.1578,70.12292,625.8981,70.12292Z" fill="#030303" fill-rule="evenodd"/><path d="M506.43161,91.35882c2.7174,0,5.4355.0104,8.1535-.0096.4664-.0039.6613.0914.6327.6035-.0443.78728-.0343,1.58-.0021,2.3685.0179.4341-.1285.5513-.552.5441-1.4633-.02432-2.9266-.0096-4.3906-.00932-1.45118.00112-1.4526.00192-1.4526,1.48622-.0014,3.25178-.0229,6.5045.0179,9.756.0078.6699-.205.8013-.812.7759-1.0898-.0464-2.1839-.0464-3.2737,0-.6041.026-.8141-.1043-.807-.7713.0386-3.3676.0178-6.7369.0129-10.1049-.0014-1.063-.0829-1.1387-1.1584-1.1408-1.5568-.0039-3.1137-.0178-4.6691.0097-.4585.0078-.6013-.1215-.5799-.5817a23.536,23.536,0,0,0-.0014-2.3685c-.0257-.4792.1486-.5702.5884-.567C500.90271,91.36812,503.66721,91.35882,506.43161,91.35882Z" fill="#030303" fill-rule="evenodd"/><path d="M512.45551,77.85282c0-2.367.0193-4.7344-.0143-7.1014-.0085-.5413.1529-.65642.6599-.641,1.2283.0375,2.4595.0254,3.6893.0047.3928-.0068.5156.1132.5156.512q-.0192,7.24095.0014,14.48188c.00152.45132-.1621.53882-.5663.53172-1.2526-.0208-2.5066-.0275-3.7585.0035-.4421.01078-.5399-.1317-.5363-.5506C512.46551,82.68022,512.45551,80.26632,512.45551,77.85282Z" fill="#030303" fill-rule="evenodd"/><path d="M428.98011,39.84592v-.7356c0-5.4361.01-10.8726-.0143-16.30832-.0028-.58668.1543-.72808.727-.71918,2.1603.0351,4.3206.02718,6.4816.0036.4514-.0042.5813.1125.5799.575q-.02145,12.30015.0007,24.6017c.0007.4898-.1307.6241-.61908.618q-3.27588-.0396-6.55162.0025a.9587.9587,0,0,1-.9298-.5363q-5.55435-8.63355-11.1315-17.252a2.20361,2.20361,0,0,0-.547-.6296v.7038c0,5.6218-.0165,11.2439.0207,16.8657.0043.737-.21278.8649-.8855.8509-2.0668-.0446-4.1349-.0314-6.2017-.0053-.4942.0057-.6784-.085-.6778-.637q.029-12.2655-.0006-24.5325c-.00218-.5595.1885-.6291.6705-.6249,2.346.0229,4.6927.0275,7.0387-.0028a1.01036,1.01036,0,0,1,.9848.55738q5.44395,8.61948,10.9122,17.22492C428.88441,39.85912,428.933,39.853,428.98011,39.84592Z" fill="#fe0000" fill-rule="evenodd"/><path d="M557.9461,31.53532c0-2.5295-.00717-4.9412.0049-7.3532.00293-.66812-.282-1.5344.1086-1.9518.397-.4252,1.2726-.1192,1.9375-.1267,1.6961-.0197,3.3929.0078,5.0883-.0165.4542-.0064.6384.06788.637.5896q-.0277,12.3036-.00347,24.6071c.00077.44018-.09213.6023-.56923.597-2.2067-.025-4.4149-.0082-6.6215-.0146-.2501-.0011-.5457.1177-.605-.3475-.0521-.4138-.3442-.0671-.46627-.0204a13.76709,13.76709,0,0,1-4.26923.92168,8.51557,8.51557,0,0,1-7.9021-4.33348,8.99751,8.99751,0,0,1,11.937-12.9568C557.4226,31.23932,557.6197,31.35252,557.9461,31.53532Zm-.0057,7.89168c0-1.23008.0242-2.46128-.00647-3.69038a2.9787,2.9787,0,0,0-5.95173-.20562c-.09427,2.57272-.0592,5.15222-.0128,7.72712a1.93693,1.93693,0,0,0,1.8139,1.9646,6.65728,6.65728,0,0,0,2.286.025,2.00487,2.00487,0,0,0,1.86463-2.1303C557.9582,41.888,557.9396,40.65722,557.9404,39.427Z" fill="#fe0000" fill-rule="evenodd"/><path d="M526.13293,32.72692a16.23934,16.23934,0,0,0,2.33377-1.2108c4.4877-2.5853,9.6596-.53,12.2683,3.3847a3.103,3.103,0,0,1,.495,1.7821q-.01935,5.57355.0043,11.1479c.0014.4538-.065.642-.5871.6356q-3.3784-.04725-6.7587-.0022c-.4927.0061-.6149-.1357-.612-.6185.02-3.6232.0121-7.24672.0107-10.87a3.35316,3.35316,0,0,0-3.8957-2.9555,7.82626,7.82626,0,0,0-1.5447.616,2.77151,2.77151,0,0,0-1.7475,2.8441c.105,3.4575.0221,6.9204.0465,10.3808.0028.4985-.1343.6095-.6156.6031q-3.27375-.0402-6.54879,0c-.4957.0072-.6119-.1396-.6099-.6195q.02475-8.1177-.002-16.23472c-.0022-.51488.1748-.59958.6347-.59488,2.15972.0221,4.32059.0346,6.48029-.00612.5813-.01068.7105.18932.6549.70022A10.11363,10.11363,0,0,0,526.13293,32.72692Z" fill="#fe0000" fill-rule="evenodd"/><path d="M461.31821,32.18312c.7056-.3768,1.339-.6624,1.9168-1.0327a9.00779,9.00779,0,0,1,11.1835,1.344,5.72707,5.72707,0,0,1,2.0511,4.6405c-.13,3.3169-.05568,6.6424-.0186,9.9638.0078.6678-.2057.7949-.817.7849q-3.205-.05355-6.4109.00038c-.572.00892-.742-.13348-.7377-.72018.0278-3.554.0142-7.1083.0142-10.6623a3.32979,3.32979,0,0,0-4.0634-3.0408,7.48941,7.48941,0,0,0-1.4712.617,2.72726,2.72726,0,0,0-1.6797,2.7488c.1022,3.4114.0108,6.8287.0522,10.243.0093.6998-.2.8299-.8492.8166-2.0896-.0436-4.1813-.0296-6.2716-.0064-.4663.005-.6385-.0925-.637-.6024q.02883-8.15355.0028-16.3068c-.0007-.4221.1015-.5528.5392-.5481q3.309.0336,6.6195.001c.4385-.004.6399.0893.5856.5659A11.42939,11.42939,0,0,0,461.31821,32.18312Z" fill="#fe0000" fill-rule="evenodd"/><path d="M580.2482,29.84672a12.43255,12.43255,0,0,1,7.6729,2.517c4.8761,3.7108,4.9861,10.0124.2599,13.9066a13.0206,13.0206,0,0,1-15.88407.0815,8.64,8.64,0,0,1,.32987-14.1226A12.6376,12.6376,0,0,1,580.2482,29.84672Zm-3.1079,9.5614h.0043c0,1.6704-.0201,3.3408.0071,5.0105a2.01976,2.01976,0,0,0,1.781,2.1453,6.47111,6.47111,0,0,0,1.8705.08708,2.18388,2.18388,0,0,0,2.3245-2.38738q.0375-4.8366,0-9.6738a2.77861,2.77861,0,0,0-2.928-3.0066,2.808,2.808,0,0,0-3.0537,3.0229C577.1224,36.20662,577.1403,37.80732,577.1403,39.40812Z" fill="#fe0000" fill-rule="evenodd"/><path d="M508.19351,39.34422c-2.1825,0-4.36558.0132-6.5488-.0104-.4627-.005-.6427.0818-.6291.5946.0378,1.43858.0021,2.8798.0178,4.3191a2.183,2.183,0,0,0,2.3039,2.4028,6.05653,6.05653,0,0,0,1.8024-.0857,2.183,2.183,0,0,0,1.884-2.31562c.015-.64948.0186-1.30078-.0014-1.95038-.0107-.3239.0771-.442.4228-.4403q3.5178.021,7.0357,0c.5592-.0042.39712.28568.29.5663a9.58979,9.58979,0,0,1-4.2185,4.8327,13.05434,13.05434,0,0,1-14.7843-1.1637,8.47365,8.47365,0,0,1-.0307-13.3349,13.05585,13.05585,0,0,1,16.5939.12628,8.81673,8.81673,0,0,1,3.0052,5.78892c.0514.5092-.035.6914-.5941.68308C512.55981,39.326,510.37661,39.34422,508.19351,39.34422Zm-4.1621-2.907h1.1127c2.01382,0,2.01382,0,1.8753-2.0324a2.93351,2.93351,0,0,0-2.9601-2.8195,2.73,2.73,0,0,0-2.9972,2.5492c-.0701.642-.0137,1.2972-.038,1.9453-.0135.3417.17282.36318.4343.3606C502.316,36.43192,503.17441,36.43722,504.03141,36.43722Z" fill="#fe0000" fill-rule="evenodd"/><path d="M481.08581,39.11532c0-2.6959-.0128-5.3911.0128-8.08632.0044-.49878-.1456-.62488-.6241-.607-.9741.03572-1.951-.00288-2.9265.01752-.3714.0078-.5229-.07152-.5357-.4906-.0571-1.8522-.0721-1.8518,1.7968-1.8518.6042,0,1.20982-.0197,1.8125.0075.36.0157.4842-.089.4728-.4642-.02648-.9056.0101-1.8129-.0172-2.718-.0114-.39642.1129-.5075.5064-.5043q3.4503.02565,6.9008-.0007c.41852-.0029.5699.1.55352.5414-.035.8815.01,1.766-.01932,2.6483-.0129.4003.1164.5082.5056.49888,1.022-.02568,2.0453.00862,3.0666-.01748.392-.01.49912.1029.5056.49848.0286,1.84572.0414,1.83352-1.81248,1.85142-.73412.0075-1.714-.3167-2.13182.1371-.36418.3964-.1221,1.3641-.1221,2.0793-.0042,4.8333-.0128,9.6663.0107,14.4993.0029.5727-.13778.7395-.722.7303-2.2067-.0361-4.41478-.02942-6.6216-.0033-.482.0054-.627-.1132-.6227-.6102C481.09941,44.55282,481.08581,41.83372,481.08581,39.11532Z" fill="#fe0000" fill-rule="evenodd"/><path d="M449.31621,39.14672c0,2.6949-.015,5.3897.0129,8.0838.0057.52348-.1285.6603-.6521.6524-2.1602-.0314-4.3212-.0268-6.4808-.00292-.48.00582-.63-.12308-.6278-.61658q.0246-8.1177-.0014-16.2373c-.0022-.506.1564-.6095.6292-.6037q3.2736.03585,6.5501.0003c.447-.0046.5849.1064.5813.571C449.30481,33.71132,449.31621,36.429,449.31621,39.14672Z" fill="#fe0000" fill-rule="evenodd"/><path d="M445.42051,26.728c-1.1148-.00028-2.2302-.01638-3.3451.00822-.3992.0093-.512-.1199-.5049-.5105.0229-1.2313.0171-2.4628.0029-3.694-.0043-.3224.0743-.4446.4242-.4424q3.44925.0225,6.8995.0003c.3406-.0017.4305.1072.4263.4353-.0172,1.2544-.0229,2.5096.0021,3.7636.0078.3956-.1549.4499-.4898.4456C447.69721,26.71772,446.55821,26.728,445.42051,26.728Z" fill="#fe0000" fill-rule="evenodd"/></g></svg>