<svg xmlns="http://www.w3.org/2000/svg" viewBox="0 0 1000 114"><title>logo</title><g id="Layer_2" data-name="Layer 2"><rect x="362.98758" y="52.44766" width="41.05634" height="36.2464" stroke-width="7" stroke="#fff" stroke-linecap="round" stroke-linejoin="round" fill="#fff"/><rect x="392.35428" y="23.11433" width="32.63476" height="57.66667" stroke-width="7" stroke="#fff" stroke-linecap="round" stroke-linejoin="round" fill="#fff"/><rect x="400.27402" y="17.44766" width="31.11805" height="12" stroke-width="7" stroke="#fff" stroke-linecap="round" stroke-linejoin="round" fill="#fff"/></g><g id="Ebene_1" data-name="Ebene 1"><path d="M592.48734,86.26106a1.23506,1.23506,0,0,1,1.25159,1.53088l-.766,3.89892h-1.87732l.41449-2.57526a.83266.83266,0,0,0-.835-1.0443,1.30931,1.30931,0,0,0-1.25158,1.0443l-.3454,1.88038a1.12976,1.12976,0,0,0,.20624.6969,30.88937,30.88937,0,0,1,2.71441,4.5216c.05793.1504.09143.22352.06708.27942-.06909.50892-.766,3.96388-.766,3.96388a1.85,1.85,0,0,1-1.73816,1.4608H586.639a1.17973,1.17973,0,0,1-1.18445-1.4608l.69886-3.96388h2.01751l-.48352,2.85254a.88694.88694,0,0,0,.83094,1.11236,1.39133,1.39133,0,0,0,1.25561-1.11236l.41651-2.29688c-.37281-.96-2.83527-4.45862-2.99378-5.2896a1.96588,1.96588,0,0,1-.13715-.97424c.02137-.41346.55573-2.99274.55573-2.99274h.07214v-.2052l.067-.1402v-.06806l.06708-.0711v-.06806l.06909-.06812v-.071l.069-.06812.07111-.0711v-.067h.06707l.07111-.06908.06708-.07112.06909-.06708v-.0711h.069l.06708-.067.06708-.06908h.0711l.06909-.06806h.069l.0691-.06806h.20825l.08734-.0833h3.40515M588.17093,96.4939h.005m4.3114-17.23284h-3.40515a8.43714,8.43714,0,0,0-3.45853.83863q-.0514.02463-.10254.05015a8.73769,8.73769,0,0,0-3.93457,3.9085q-.05373.10524-.10379.21212a7.00066,7.00066,0,0,0-.42459,1.06937l-.00467.01384a7.02477,7.02477,0,0,0-.29266,1.01925,26.24832,26.24832,0,0,0-.692,4.05166l-.00366.07982a10.04953,10.04953,0,0,0,.15415,2.27484,6.9837,6.9837,0,0,0-.95963,2.49928l-.69452,3.93941a8.17605,8.17605,0,0,0,8.07379,9.70065h2.92267a8.893,8.893,0,0,0,8.6055-7.10423c.494-2.44937.68878-3.49336.7717-3.97544a7.03766,7.03766,0,0,0,.03689-2.54561,6.98806,6.98806,0,0,0,.86585-2.253l.766-3.89892a8.23206,8.23206,0,0,0-8.1203-9.88034Z" fill="#fff"/><path d="M648.71872,86.26106h.005m-.005,0-.34948,1.88036h-1.18451l-2.434,13.7782h-2.2959l2.434-13.7782H643.7064l.34741-1.88036h4.66491m.005-7h-4.66992a7,7,0,0,0-6.88349,5.72818l-.34741,1.88036a6.99953,6.99953,0,0,0,.46436,4.06385l-1.72565,9.76843a7,7,0,0,0,6.89325,8.21774h2.2959a7,7,0,0,0,6.89328-5.78228l1.79669-10.17075a6.98129,6.98129,0,0,0,1.81064-3.54607l.30728-1.65326a7.00572,7.00572,0,0,0-6.83493-8.5062Z" fill="#fff"/><path d="M631.24686,86.26106a1.24164,1.24164,0,0,1,1.25153,1.53088l-.766,3.89892h-1.87934l.41852-2.57526a.83262.83262,0,0,0-.835-1.0443,1.304,1.304,0,0,0-1.25153,1.0443l-.34747,1.88038a.9475.9475,0,0,0,.20624.6969,31.99864,31.99864,0,0,1,2.71441,4.5216.5458.5458,0,0,1,.07111.27942c-.09552.50892-.6969,3.96388-.6969,3.96388a1.8619,1.8619,0,0,1-1.74219,1.4608h-2.98968a1.18152,1.18152,0,0,1-1.18659-1.4608l.6969-3.96388h2.0196l-.48664,2.85352a.89861.89861,0,0,0,.835,1.11242,1.39387,1.39387,0,0,0,1.25159-1.11242l.4165-2.29688c-.381-.96-2.83123-4.45862-2.99176-5.2896a2.00735,2.00735,0,0,1-.13916-.9742c.02131-.41344.55774-2.99278.55774-2.99278l.067-.069v-.13616l.06909-.1402V87.3805l.06909-.0711v-.06806l.069-.06806V87.1012l.0691-.06812.06909-.0711v-.067h.0711l.065-.06908.06909-.07112.069-.06708.06909-.0711.06909-.067.069-.06908h.0691l.0711-.06806h.06708l.06909-.06806h.20618l.09143-.0833h3.40527m-4.3164,10.23284h.005m4.3114-17.23284h-3.40527a8.429,8.429,0,0,0-3.49512.85625l-.06625.03265a8.7023,8.7023,0,0,0-3.946,3.92862q-.03.0593-.0589.11911a7.00214,7.00214,0,0,0-.44308,1.083q-.04134.1183-.07837.23795a7.007,7.007,0,0,0-.23346.85,26.11928,26.11928,0,0,0-.6951,4.058q-.00393.076-.00616.152a10.36911,10.36911,0,0,0,.15667,2.20222,6.98327,6.98327,0,0,0-.95919,2.501l-.69281,3.94063a8.178,8.178,0,0,0,8.07675,9.69615h2.98968A8.901,8.901,0,0,0,637.01,101.761q.00975-.05136.01871-.10286c.00037-.0022.58716-3.3759.68045-3.873a6.999,6.999,0,0,0,.12015-1.2913,7.51127,7.51127,0,0,0-.09479-1.19945,6.98566,6.98566,0,0,0,.86658-2.25417l.766-3.89892q.01474-.07494.0278-.15018a8.2377,8.2377,0,0,0-8.148-9.73012Z" fill="#fff"/><path d="M613.64585,86.26105h.005m-.005,0-5.15045,9.0473-1.25153,6.6103H605.0181l1.11542-7.09888-1.04938-8.55872h2.50617l.34741,5.91644,3.19995-5.91644h2.50818m.005-7h-2.51318a7.02431,7.02431,0,0,1-3.54736,0h-2.50617a7,7,0,0,0-6.948,7.85188l.93027,7.58723-.96347,6.13193a7,7,0,0,0,6.91516,8.08656h2.22577a7,7,0,0,0,6.87784-5.69784l1.03439-5.46359,4.479-7.86778a7.00066,7.00066,0,0,0-5.98423-10.62839Zm-.005,14h0Z" fill="#fff"/><path d="M517.61179,86.81976l-.27936,1.94642h-2.22575l-.90315,4.8731h2.15669l-.27937,1.6711h-2.2237L512.952,100.6h2.22376l-.34749,1.9474h-4.38243l3.06085-15.72768h4.1051M515.17576,100.6h.005m2.431-20.78028h-4.1051a7,7,0,0,0-6.87108,5.66278l-3.06085,15.72768a7,7,0,0,0,6.87108,8.33722h4.38243a7,7,0,0,0,6.89116-5.7704l.30714-1.72131a7.0638,7.0638,0,0,0-.02223-3.01385,6.98336,6.98336,0,0,0,.98071-2.57732l.27936-1.6711a6.99744,6.99744,0,0,0-.00011-2.30906,6.97909,6.97909,0,0,0,.99713-2.72374l.27936-1.94642a7,7,0,0,0-6.929-7.99448Z" fill="#fff"/><path d="M540.4343,86.81977l-2.92059,15.72461h-1.94843l-.766-9.1184-1.81128,9.1184h-2.2959l2.99274-15.72461h1.94847l1.0453,8.21125,1.52991-8.21125h2.22577m0-7h-2.22577a7.0442,7.0442,0,0,1-2.57521,0h-1.94847a7,7,0,0,0-6.87656,5.69124l-2.99275,15.72461a7,7,0,0,0,6.87657,8.30876h2.2959a7.0472,7.0472,0,0,1,2.57727,0h1.94843a7,7,0,0,0,6.88229-5.72172l2.92061-15.72461a7,7,0,0,0-6.88231-8.27828Z" fill="#fff"/><path d="M559.01658,86.81977h.005m-.005,0-.34748,1.9464h-1.18243l-2.43611,13.77924h-2.22777l2.43811-13.77924h-1.25157l.34442-1.9464h4.66283m.005-7h-4.66783a7,7,0,0,0-6.89293,5.78028l-.34442,1.9464a7.00013,7.00013,0,0,0,.52243,4.121l-1.709,9.65833a7,7,0,0,0,6.89293,8.21964h2.22777a7,7,0,0,0,6.89311-5.78134l1.79883-10.17474a6.98027,6.98027,0,0,0,1.81766-3.59294l.30706-1.72a7.0058,7.0058,0,0,0-6.84564-8.45658Z" fill="#fff"/><path d="M387.342,15.42054c.94776,0,2.95716,2.16986,2.78447,3.1319L386.43687,36.0193c-.1717.9041-1.39174,2.99072-2.29384,2.99072h-5.35974l-.07006-.06812h-.27838v-.07006h-.13915l-.07111-.06806h-.0691l-.069-.07012-.06907-.069h-.06911v-.0711l-.07-.0691-.07009-.07012v-.069l-.06907-.06908-.07112-.07014v-.14021l-.06909-.069v-.1382l-.0711-.06908v-.0691c0-.11578-.01222-.28949,0-.41852l4.1762-21.3637a2.168,2.168,0,0,1,1.32264-.55768H387.342m0-7h-4.31543a9.02732,9.02732,0,0,0-5.77728,2.158,7,7,0,0,0-2.41531,4.05672L370.6578,35.999q-.06629.33885-.09887.683a9.12951,9.12951,0,0,0-.03118,1.14244v.00512a6.99783,6.99783,0,0,0,.4151,2.37467q.02145.06588.04424.13142a7.00278,7.00278,0,0,0,.94508,1.92308q.053.08188.10826.16221a7.93593,7.93593,0,0,0,3.1245,2.71188,8.62772,8.62772,0,0,0,3.61836.87722H384.143c5.60188,0,8.548-5.68519,9.1464-8.56148l3.68592-17.44938q.02215-.1047.041-.21a8.93363,8.93363,0,0,0-2.33069-7.4684c-1.21845-1.4566-3.79269-3.9002-7.34368-3.9002Z" fill="#fff"/><path d="M490.82235,86.81976l.4145,9.1164,3.97-9.04528h2.50206l-2.64325,15.65656h-1.94841l1.25151-8.28132-3.48242,8.28132h-1.3907l-.41649-8.4886-1.52991,8.4886h-2.22778l2.92572-15.72768h2.57518m0-7h-2.57518a7,7,0,0,0-6.88193,5.7198l-2.92572,15.72768a7,7,0,0,0,6.88193,8.2802h2.22778a7.065,7.065,0,0,1,1.9464,0h1.3907a7.01205,7.01205,0,0,1,2.23091,0h1.94841a7,7,0,0,0,6.90233-5.8347l2.64323-15.65656a7,7,0,0,0-6.90231-8.1653h-2.50206a7.01818,7.01818,0,0,1-4.38449-.07112Z" fill="#fff"/><path d="M442.80332,15.42055c.94879,0,2.96832,2.16986,2.78142,3.13188l-3.6906,17.39674c-.16052.91126-2.42694,3.06182-3.33716,3.06182h-3.8288a1.32136,1.32136,0,0,1-1.39074-1.2495,3.37777,3.37777,0,0,1,0-.41853l4.10614-21.36371.067-.06909.07115-.0691.13709-.07006h.06811l.07007-.0691.06909-.06907h.069l.0691-.07009h.07111l.13715-.068h.2052v-.07014h.0092v-.004h4.31642m0-7H438.4869a6.985,6.985,0,0,0-2.45073.441l-.04115.014a8.23609,8.23609,0,0,0-1.86226.87417,6.99976,6.99976,0,0,0-1.42751,1.06944l-.07117.0691q-.07488.07271-.14758.14762l-.067.06908A7.0001,7.0001,0,0,0,430.5694,14.658l-4.10614,21.36371q-.042.2186-.07007.43955a8.53635,8.53635,0,0,0-.05429,1.44263q.00406.20073.01966.401a8.31536,8.31536,0,0,0,8.36962,7.706h3.8288c4.49625,0,9.34342-4.74921,10.18407-8.60929l.0007.00015,3.6906-17.39675q.01246-.05872.02391-.11767a8.856,8.856,0,0,0-2.24294-7.49211c-1.2238-1.48445-3.81381-3.97477-7.41-3.97477Z" fill="#fff"/><path d="M666.45981,86.26105l-.34942,1.88038h-2.15668l-.97217,4.94116h2.22577l-.34949,1.599h-2.15869l-.90314,5.28858h2.15467l-.27527,1.94848H659.2208l3.06482-15.6576h4.17419m-2.50915,13.70912h.005m2.50415-20.70912h-4.17419a7,7,0,0,0-6.86963,5.65534l-3.06482,15.6576a7,7,0,0,0,6.86963,8.34466h4.45459a7,7,0,0,0,6.93115-6.02076l.24414-1.72808a7.06959,7.06959,0,0,0-.07074-2.75474,6.98806,6.98806,0,0,0,.91645-2.23884l.34948-1.599a6.9974,6.9974,0,0,0,.04068-2.78928,6.98573,6.98573,0,0,0,.906-2.36764l.34942-1.88038a7,7,0,0,0-6.88217-8.27888Z" fill="#fff"/><path d="M655.53818,15.14215a3.89707,3.89707,0,0,1,3.96393,4.7309L650.73417,66.151a6.00581,6.00581,0,0,1-5.63709,4.802h-4.036l10.37-55.81081h4.10711m0-7h-4.10711a7,7,0,0,0-6.88221,5.72124l-10.37,55.81081a7,7,0,0,0,6.8822,8.27876h4.036a13.05989,13.05989,0,0,0,12.52216-10.5382l8.7605-46.23866q.01067-.05636.02044-.11288a10.89073,10.89073,0,0,0-10.862-12.92107Z" fill="#fff"/><path d="M688.93589,86.26105l-2.6413,15.6576h-1.94842l1.24957-8.27936-3.48041,8.27936h-1.39276l-.41443-8.49066-1.53192,8.49066h-2.29791l2.99579-15.6576h2.57519l.41449,9.0473,3.968-8.97722,2.50415-.07008m.00033-7c-.06537,0-.13058.00091-.19613.00274l-2.50418.07008a6.43148,6.43148,0,0,1-4.18662-.07282H679.4741a7,7,0,0,0-6.87528,5.68454l-2.99579,15.6576a7,7,0,0,0,6.87528,8.31546h2.29791a7.06462,7.06462,0,0,1,1.94635,0h1.39276a7.01239,7.01239,0,0,1,2.23084,0h1.94842a7,7,0,0,0,6.9025-5.83562l2.64129-15.6576a7,7,0,0,0-6.90216-8.16438Z" fill="#fff"/><path d="M687.54715,15.14215a3.8521,3.8521,0,0,1,3.8949,4.7309L683.09464,66.151a5.86515,5.86515,0,0,1-5.49786,4.802c-2.62909,0-3.72419-2.176-3.27411-4.802L682.604,19.87305l.06708-.20923.0711-.20929.06708-.27733.06909-.20924.07111-.27838.067-.20929.07117-.20923.13715-.20727.069-.20924.14123-.20928.06909-.20824.13916-.20931.14118-.13914.13721-.20826.14117-.20924.20825-.1402.13916-.14019.14124-.13916.20624-.14019.21026-.13922.14124-.13916.20617-.14019.21033-.069.20819-.13922.14124-.07006.27527-.07013.20825-.06806h.20825l.20825-.07007h.27936l.21326-.064h.27935m0-7h-.27935a13.12955,13.12955,0,0,0-3.07044.47612l-.05017.01279a6.99927,6.99927,0,0,0-1.38306.51269l-.14123.07006q-.10854.05385-.21509.1114a6.99993,6.99993,0,0,0-1.0282.57882l-.2062.14019q-.27937.19-.53922.406l-.01788.01216a6.998,6.998,0,0,0-.86435.69363,6.99961,6.99961,0,0,0-1.482,1.58539,6.99452,6.99452,0,0,0-.45581.61063l-.13916.20931a6.99691,6.99691,0,0,0-.52411.937q-.12354.2261-.23022.46088a7.00319,7.00319,0,0,0-.46021,1.05785l-.07116.20923q-.02019.05937-.03931.1191l-.067.20929q-.06385.19938-.11569.40228l-.01166.04559q-.08189.25063-.14477.50691l-.00568.01764-.06708.20924a7.00032,7.00032,0,0,0-.22464.90372l-8.28131,46.2779-.00885.05057a11.36455,11.36455,0,0,0,2.283,9.42791,10.11586,10.11586,0,0,0,7.89051,3.55657,12.80794,12.80794,0,0,0,12.394-10.60052l8.34012-46.23682.00885-.05a11.10554,11.10554,0,0,0-2.363-9.08414,10.95769,10.95769,0,0,0-8.42954-3.83936Z" fill="#fff"/><path d="M331.74051,86.81977l-2.99376,15.72461h-1.94746l-.76592-9.1184-1.80824,9.1184h-2.2979L324.921,86.81977h1.94844l1.04326,8.21125,1.52992-8.21125h2.2979m0-7h-2.2979a7.04428,7.04428,0,0,1-2.57318,0H324.921a7,7,0,0,0-6.87648,5.69081l-2.99376,15.7246a7,7,0,0,0,6.87648,8.3092h2.2979a7.04726,7.04726,0,0,1,2.57416,0h1.94746a7,7,0,0,0,6.87648-5.6908L338.617,88.129a7,7,0,0,0-6.87648-8.3092Z" fill="#fff"/><path d="M390.12546,86.81977a1.24989,1.24989,0,0,1,1.18348,1.599l-1.04328,5.56592c-.11578.60346-1.17536,1.0951-1.7412,1.32366h.28038v.06806h.27838l.069.06806h.20928v.06812h.1402v.0711h.069a2.542,2.542,0,0,1,.13818.765c0,.09344-1.11444,6.19372-1.11444,6.19372h-2.01746s1.07782-5.47962,1.11438-5.70514a2.98225,2.98225,0,0,0-.06908-.7649.94256.94256,0,0,0-.20924-.6278h-1.39276l-1.32166,7.09784h-2.01848l2.99272-15.7226h4.45252m-3.4793,7.09582h.834a1.2672,1.2672,0,0,0,.767-.62676L389.01,89.392c.03656-.22454-.3474-.69794-.55566-.69794l-.9021.00208a.41717.41717,0,0,0-.2804.14118l-.9041,4.72986v.07116a.26743.26743,0,0,0,.27838.27728m3.4793-14.09582h-4.45252a7,7,0,0,0-6.87654,5.69108l-2.99272,15.7226a7,7,0,0,0,6.87654,8.30892h2.01848a7.02863,7.02863,0,0,1,1.87836,0h2.01746a7,7,0,0,0,6.886-5.742c.96493-5.28193,1.17189-6.41476,1.21628-7.0104a7.70665,7.70665,0,0,0,.44344-1.4863l1.04884-5.59526a8.38927,8.38927,0,0,0-1.75292-6.93572,8.16279,8.16279,0,0,0-6.31074-2.9529Z" fill="#fff"/><path d="M370.22361,86.81976l-.34845,1.94642h-2.15772l-.97419,4.8731H368.901l-.27839,1.6711h-2.15667L365.5618,100.6h2.15667l-.27733,1.9474h-4.45356l3.0608-15.72768h4.17523M367.71847,100.6h.005m2.50013-20.78028h-4.17523a7,7,0,0,0-6.87111,5.6628l-3.06079,15.72768a7,7,0,0,0,6.8711,8.3372h4.45356a7,7,0,0,0,6.93007-6.013l.246-1.72721a7.0693,7.0693,0,0,0-.0704-2.76646,6.98172,6.98172,0,0,0,.98063-2.58011l.27838-1.6711a6.99679,6.99679,0,0,0-.00035-2.30272,6.9822,6.9822,0,0,0,.96015-2.487l.34846-1.94642a7,7,0,0,0-6.89046-8.23358Z" fill="#fff"/><path d="M309.82115,86.81976l-.27936,1.94642H307.316l-.90418,4.8731h2.15772l-.27936,1.6711h-2.22674l-.834,5.28966h2.15668l-.34846,1.9474h-4.45356L305.715,86.81976h4.10614M307.38609,100.6h.005m2.43006-20.78028H305.715a7,7,0,0,0-6.86528,5.63332l-3.13094,15.72768a7,7,0,0,0,6.86528,8.36668h4.45356a7,7,0,0,0,6.89056-5.767l.308-1.72128a7.064,7.064,0,0,0-.02178-3.01841,6.98244,6.98244,0,0,0,.98-2.57615l.27936-1.6711a6.99786,6.99786,0,0,0-.0001-2.309,6.97951,6.97951,0,0,0,.99714-2.72376l.27936-1.94642a7,7,0,0,0-6.929-7.99448Z" fill="#fff"/><path d="M471.96274,86.81977l-2.92267,15.72461H467.0226l-.6969-9.1184-1.81134,9.1184h-2.2938l2.99076-15.72461h1.95044L468.203,95.031l1.534-8.21125h2.22577m0-7H469.737a7.0442,7.0442,0,0,1-2.57521,0h-1.95044a7,7,0,0,0-6.87671,5.69207l-2.99078,15.7246a7,7,0,0,0,6.87673,8.30794h2.2938a7.049,7.049,0,0,1,2.50824,0h2.01747a7.00005,7.00005,0,0,0,6.88215-5.72084l2.92266-15.7246a7,7,0,0,0-6.88214-8.27917Z" fill="#fff"/><path d="M350.39084,86.81977h.005m-.005,0-.27734,1.9464H348.93l-2.50514,13.77924h-2.22478l2.434-13.77924h-1.25256l.4165-1.9464h4.59276m.005-7h-4.59776A7,7,0,0,0,338.953,85.355l-.4165,1.9464a6.99959,6.99959,0,0,0,.47613,4.36949l-1.70582,9.65683a7,7,0,0,0,6.89328,8.21766h2.22478a7,7,0,0,0,6.8871-5.74788l1.85145-10.18372a6.98079,6.98079,0,0,0,1.88-3.8602l.24591-1.72582a7.00581,7.00581,0,0,0-6.89357-8.208Z" fill="#fff"/><path d="M449.2764,86.81977h.005m-.005,0-2.99377,15.72461H444.3342l2.92469-15.72461h2.01751m.005-7h-2.02252a7,7,0,0,0-6.882,5.72l-2.92467,15.7246a7,7,0,0,0,6.882,8.28h1.94843a7,7,0,0,0,6.87648-5.6908l2.95047-15.49712a7.00571,7.00571,0,0,0-6.82817-8.53669Zm-.005,14h0Z" fill="#fff"/><path d="M431.39206,86.81977l-.835,15.72461h-2.64532l.34741-3.6195h-1.599l-1.32369,3.6195h-2.36387l5.77416-15.72461h2.64532M427.28592,97.395h1.11342l.3474-3.967-1.46082,3.967m4.10614-17.57521h-2.64532a7,7,0,0,0-6.571,4.58711l-5.77417,15.7246a7,7,0,0,0,6.571,9.4129h2.36387a7.01142,7.01142,0,0,1,2.57527,0H430.557a7,7,0,0,0,6.99016-6.6288l.835-15.7246a7,7,0,0,0-6.99016-7.37121Zm0,14h0Z" fill="#fff"/><path d="M410.23564,86.81977h.005m-.005,0-.27734,1.9464h-1.18146l-2.50618,13.77924h-2.22675l2.435-13.77924H405.2274l.34637-1.9464h4.66187m.005-7h-4.66687a7,7,0,0,0-6.89171,5.77356l-.34638,1.9464a7.00019,7.00019,0,0,0,.52183,4.12907l-1.70679,9.65847a7,7,0,0,0,6.89319,8.21814h2.22675a7,7,0,0,0,6.887-5.74738l1.85273-10.18645a6.98056,6.98056,0,0,0,1.8779-3.858l.24591-1.72582a7.00581,7.00581,0,0,0-6.89357-8.208Z" fill="#fff"/><path d="M336.82169,81.20287a8.86541,8.86541,0,0,1-8.94531-10.64453L339.0087,6.40209a3.49942,3.49942,0,0,1,3.44824-2.90185h8.90821a3.50021,3.50021,0,0,1,3.44629,4.11181L344.17765,67.52319h2.84814L358.15128,6.37377a3.49981,3.49981,0,0,1,3.44336-2.87353h8.34961a3.50042,3.50042,0,0,1,3.44141,4.13818L361.48771,71.79955a11.852,11.852,0,0,1-11.374,9.40332Z" fill="#fc0c18"/><path d="M369.94426,7,358.04642,71.16223a8.35023,8.35023,0,0,1-7.93292,6.54016H336.82187a5.37137,5.37137,0,0,1-5.49787-6.54016L342.45689,7H351.365L340.29818,69.35089A1.38327,1.38327,0,0,0,341.691,71.023h6.61226a2.09814,2.09814,0,0,0,1.94745-1.67213L361.59482,7h8.34944M351.365,7h.005m18.57424-7h-8.34944a6.99261,6.99261,0,0,0-5.11318,2.219A6.97643,6.97643,0,0,0,351.37,0h-8.91313A7,7,0,0,0,335.56,5.80331l-11.1329,64.16221a12.36186,12.36186,0,0,0,12.39482,14.73687H350.1135a15.24457,15.24457,0,0,0,14.81355-12.25292L376.82692,8.27631A7,7,0,0,0,369.94426,0Zm0,14h0Z" fill="#fff"/><path d="M304.183,81.19994a8.86348,8.86348,0,0,1-8.94434-10.64355l3.13184-17.95215a3.49963,3.49963,0,0,1,3.44775-2.89844H311.143a3.50266,3.50266,0,0,1,1.77588.48389c-.99072-1.66162-2.0625-3.40088-2.95361-4.84717-3.9043-6.33594-5.90235-9.70459-6.58741-11.92285a11.88679,11.88679,0,0,1-.95263-6.01465,4.50659,4.50659,0,0,1,.07568-.67236,3.57513,3.57513,0,0,1,.06494-.47217,3.45852,3.45852,0,0,1,.09961-.69043l.07129-.49365a3.44189,3.44189,0,0,1,.146-.61279l.03906-.11719.08642-.66553a3.581,3.581,0,0,1,.0752-.40625l.22852-.915.0415-.33984a3.5597,3.5597,0,0,1,.07861-.42285l.13916-.55616.10205-.45849.19434-1.10791c.01465-.0835.03271-.16651.05322-.24854l.12744-.50635s.14258-.64306.15088-.67626l.08838-.35157.04395-.3457a3.50509,3.50509,0,0,1,.10888-.52979l.07129-.24707.03369-.24023a3.45836,3.45836,0,0,1,.10205-.48242l.084-.29151.03564-.2163a3.49507,3.49507,0,0,1,.12207-.50293,3.4331,3.4331,0,0,1,.07764-.40918,3.42653,3.42653,0,0,1,.10547-.48047c.01074-.05225.02246-.104.03564-.15528a3.473,3.473,0,0,1,.09961-.45752A12.18919,12.18919,0,0,1,316.85,3.50024h13.77686a9.16393,9.16393,0,0,1,7.11914,3.2373,9.57061,9.57061,0,0,1,1.88525,7.94287l-3.269,17.45655a3.50035,3.50035,0,0,1-3.44043,2.85546h-9.39356a3.48953,3.48953,0,0,1-.72216-.07519c.80712,1.28076,1.76123,2.82959,2.89355,4.70752,3.88672,6.44531,5.33691,9.24463,5.87842,10.67627a5.90224,5.90224,0,0,1,.66894,2.86474c.00537.41993.021,1.55469-3.48047,18.69434a11.77358,11.77358,0,0,1-11.291,9.33984Zm10.46-28.03027a3.522,3.522,0,0,1-.05713.66553l-2.36621,12.94385a.6395.6395,0,0,0,.06055.46484.6471.6471,0,0,0,.46338.13476c1.07519,0,1.38867-1.63769,1.42089-1.82421.02344-.125,1.31739-6.98438,1.72657-9.84571A19.78241,19.78241,0,0,0,314.643,53.16967ZM318.9047,29.3a17.57409,17.57409,0,0,1,1.18848,1.5166l2.00439-11.543a2.85286,2.85286,0,0,0,.04492-.62646,2.40251,2.40251,0,0,0-1.98389,1.81689q-.00877.05127-.019.10254c-.62305,3.07862-1.32226,6.8584-1.39111,7.72949A5.55163,5.55163,0,0,0,318.9047,29.3Z" fill="#fc0c18"/><path d="M330.6271,7c3.81763,0,6.30653,3.139,5.566,7.02576L332.922,31.49256h-9.39374l2.01753-11.62047c.45208-2.62606-.64406-4.7309-3.27008-4.7309a5.85633,5.85633,0,0,0-5.567,4.7309s-1.48314,7.32945-1.46185,8.42052c.01527,1.09814.41755,2.91447.90619,3.2,1.13471.68269,12.24726,19.02619,12.24726,20.3905,0,0,.33324.13008.34642,1.32269.01624,1.18444-3.40924,17.95442-3.40924,17.95442a8.26379,8.26379,0,0,1-7.86181,6.54016H304.18307a5.37074,5.37074,0,0,1-5.49687-6.54016l3.1319-17.95442h9.32471l-2.366,12.94313a3.89463,3.89463,0,0,0,3.96692,4.72992c2.625,0,4.417-2.1039,4.8701-4.72992,0,0,1.472-7.79169,1.80927-10.439.35955-2.64026-12.12848-19.98213-12.804-23.72863-.53029-.43177-.767-2.753-.69587-4.45461v-.13818l.07-.13915v-.27935l.0691-.20929v-.34839l.06806-.13924V26.0638l.07013-.48664.14013-.41749.07013-.48664.07008-.55668.13819-.55768.14018-.55566.068-.55671.13916-.55574.14021-.62676.20824-1.18348.14021-.55668.13813-.62581.14018-.55669.07014-.55566.14018-.48658.06808-.48663.13916-.48658.06908-.4165.07007-.20928.07014-.20827v-.20929l.069-.13915v-.20929l.07013-.13916v-.14019l.07006-.13919v-.21026l.0691-.06907v-.20827A8.73333,8.73333,0,0,1,316.84989,7H330.6271M311.14281,53.20575h.005M330.6271,0H316.84989a15.779,15.779,0,0,0-15.05478,12.54238q-.07152.27485-.12077.55587-.08731.32131-.14384.65005-.03588.15973-.06427.32107a6.99671,6.99671,0,0,0-.15176.69447l-.00358.0216-.02919.102a7.005,7.005,0,0,0-.20165.95022l-.00285.00989a7.0006,7.0006,0,0,0-.21847,1.06134l-.017.13447-.03653.14505q-.02519.1-.04739.20063l-.11589.52506-.115.4565q-.06206.24631-.10611.49663l-.18044,1.0255-.08584.38374-.11756.46947a7.00174,7.00174,0,0,0-.15795.851l-.01469.12018-.0326.12921-.14537.58648a6.99678,6.99678,0,0,0-.15065.80923l-.04134.32839a6.99887,6.99887,0,0,0-.22224,1.00825l-.04985.34588a7.00277,7.00277,0,0,0-.13574.90639q-.0159.09644-.02909.19321a6.99977,6.99977,0,0,0-.13424,1.36428v.00239a15.3245,15.3245,0,0,0,1.26665,7.52943c.85684,2.43383,2.72876,5.64278,6.19665,11.2855H301.8181a7,7,0,0,0-6.89587,5.7971l-3.13189,17.95442a12.36139,12.36139,0,0,0,12.39273,14.74306h13.29261a15.18619,15.18619,0,0,0,14.73081-12.19117c3.5663-17.46172,3.55081-18.58124,3.53958-19.39936a9.43882,9.43882,0,0,0-.89591-4.09284c-.68974-1.76138-2.2441-4.69085-5.74721-10.5244h3.819a7,7,0,0,0,6.88039-5.71147L343.0735,15.3143a13.04392,13.04392,0,0,0-2.63106-10.808A12.64984,12.64984,0,0,0,330.6271,0Z" fill="#fff"/><path d="M361.037,81.20092a3.49972,3.49972,0,0,1-3.43847-4.15332L371.02921,6.34692a3.49982,3.49982,0,0,1,3.43848-2.84668H394.581a9.03858,9.03858,0,0,1,7.11035,3.22851,9.5904,9.5904,0,0,1,1.89307,7.94824l-4.87452,25.13916a11.7953,11.7953,0,0,1-11.29785,9.374H378.9628l-5.58105,29.168a3.49939,3.49939,0,0,1-3.4375,2.84277ZM382.9003,35.51a2.26807,2.26807,0,0,0,.12256-.26074l3.44873-16.32861h-1.77636L381.45206,35.51Z" fill="#fc0c18"/><path d="M394.5811,7c3.81657,0,6.29937,3.1319,5.56389,7.02779l-4.87108,25.12237a8.2799,8.2799,0,0,1-7.86181,6.54016H376.06894l-6.12468,32.01105h-8.90711L374.46786,7H394.5811M377.94828,38.66463h.06908l.0691.069.069.07013h.06911l.0711.068h.13916v.07005h.27836l.07009.06814H384.143c.90211,0,2.12213-2.08664,2.29382-2.99074l3.68963-17.46684c.17269-.96206-1.83671-3.13193-2.78447-3.13193h-4.31543a2.16792,2.16792,0,0,0-1.32263.55769l-4.17621,21.36371c-.0122.129,0,.30274,0,.41852v.06909l.07111.06911v.13818l.06908.069V38.246l.0711.07013.06911.0691v.069l.07.07013.07008.06908v.07113M394.5811,0H374.46786a7,7,0,0,0-6.877,5.6936L354.16012,76.395a7,7,0,0,0,6.877,8.3064h8.90711a7,7,0,0,0,6.87528-5.68455l5.03706-26.3265h5.5555a15.197,15.197,0,0,0,14.73776-12.22794L407.017,15.36024A13.09459,13.09459,0,0,0,404.38581,4.495,12.64568,12.64568,0,0,0,394.5811,0Z" fill="#fff"/><rect x="293.58634" y="80.32592" width="404.20947" height="30.17383" rx="3.5" fill="#fc0c18"/><path d="M694.29557,83.826V107H297.08623V83.826H694.29557m-5.35968,2.43507-2.50412.07006-3.968,8.97721-.41446-9.04727H679.4741l-2.99579,15.6576h2.29791l1.532-8.49067.4144,8.49067h1.39279l3.48041-8.2794-1.2496,8.2794h1.94839l2.64133-15.6576m-29.71506,15.6576h4.45453l.27527-1.94853H661.796l.90313-5.28854h2.15866l.34946-1.599h-2.22571l.97211-4.9412h2.15668l.34945-1.88033h-4.17419l-3.06479,15.6576m-10.50214-15.6576h-4.66485l-.34741,1.88033h1.18246l-2.434,13.7782h2.29587l2.434-13.7782h1.18448l.34945-1.88033m-21.43988,14.1988a.89866.89866,0,0,1-.835-1.11247l.4866-2.85346h-2.01953l-.69693,3.96386a1.1815,1.1815,0,0,0,1.18659,1.4608h2.98968a1.862,1.862,0,0,0,1.74219-1.4608s.60141-3.455.69687-3.96386a.5454.5454,0,0,0-.07108-.27947,32.00411,32.00411,0,0,0-2.71438-4.5216.94751.94751,0,0,1-.20627-.69687l.34747-1.8804a1.304,1.304,0,0,1,1.25153-1.04433.83261.83261,0,0,1,.835,1.04433l-.41846,2.57527h1.87934l.76593-3.89894a1.24158,1.24158,0,0,0-1.25147-1.53086h-3.40533l-.0914.08327H627.544l-.06906.06806h-.06708l-.0711.06807h-.0691l-.06906.06907-.06906.06706-.06906.07107-.06906.06707-.06906.07113-.065.06907h-.07113V86.962l-.06906.07107-.06916.06813v.07207l-.069.06806v.06807l-.06906.07107v.06807l-.06912.1402v.1362l-.067.069s-.53646,2.57933-.55774,2.9928a2.00741,2.00741,0,0,0,.13913.9742c.16056.831,2.61081,4.32966,2.99183,5.2896l-.41654,2.29686a1.39388,1.39388,0,0,1-1.25162,1.11247m-13.633-14.1988H611.1377l-3.2,5.9164-.34738-5.9164h-2.50614l1.04932,8.55873-1.11539,7.09887h2.2258l1.25153-6.61033,5.15039-9.04727M588.51835,100.4588a.8869.8869,0,0,1-.83094-1.11233l.48355-2.85253h-2.01754l-.69886,3.96386a1.17975,1.17975,0,0,0,1.18445,1.4608h2.92267a1.85,1.85,0,0,0,1.73816-1.4608s.69693-3.455.766-3.96386c.02432-.05594-.00912-.12907-.06708-.27947a30.88919,30.88919,0,0,0-2.71438-4.5216,1.1296,1.1296,0,0,1-.20627-.69687l.3454-1.8804a1.30928,1.30928,0,0,1,1.25158-1.04433.8327.8327,0,0,1,.835,1.04433l-.41449,2.57527H592.973l.766-3.89894a1.23506,1.23506,0,0,0-1.25159-1.53086h-3.40521l-.08734.08327h-.20819l-.06913.06806h-.069l-.06915.06807h-.071l-.06708.06907-.06714.06706h-.069v.07107l-.06906.06707-.06714.07113-.07108.06907h-.067V86.962l-.07114.07107-.069.06813v.07107l-.06912.06807v.06806l-.06708.07114v.06806l-.067.1402v.2052h-.07211s-.53439,2.57927-.55576,2.99274a1.966,1.966,0,0,0,.13715.9742c.15854.831,2.621,4.3296,2.99381,5.2896l-.41654,2.29693a1.39137,1.39137,0,0,1-1.25561,1.11233m-29.5018-13.639h-4.66279l-.34446,1.9464h1.2516l-2.43814,13.7792h2.2278l2.43614-13.7792h1.1824l.34745-1.9464m-18.58226,0h-2.22573l-1.52994,8.2112-1.04527-8.2112h-1.94853l-2.99272,15.7246H532.988l1.81126-9.1184.766,9.1184h1.94839l2.9206-15.7246m-29.98847,15.7276h4.38248l.34746-1.94733H512.952l.90512-5.28967h2.22368l.27939-1.67113h-2.15666l.90313-4.87307h2.22574l.27933-1.9464h-4.10507l-3.06087,15.7276m-25.12439,0h2.2278l1.52992-8.48853.41648,8.48853h1.39073l3.4824-8.28126-1.25154,8.28126h1.94841l2.64327-15.65653h-2.50208l-3.97,9.04527-.41446-9.11634h-2.57521l-2.92572,15.7276M471.96276,86.8198H469.737L468.203,95.031l-1.04126-8.2112h-1.95041l-2.99079,15.7246h2.2938l1.81133-9.1184.69693,9.1184h2.01747l2.92267-15.7246m-27.62854,15.7246h1.94841l2.9938-15.7246h-2.01754l-2.92467,15.7246m-21.36166,0h2.36393l1.32367-3.61953h1.599l-.34747,3.61953H430.557l.83506-15.7246h-2.64534l-5.77419,15.7246M410.23562,86.8198h-4.66186l-.3464,1.9464h1.25153l-2.435,13.7792h2.22681l2.50612-13.7792h1.18148l.27732-1.9464m-27.55539,15.72254h2.01846l1.32167-7.0978h1.39273a.94239.94239,0,0,1,.20927.6278,2.9821,2.9821,0,0,1,.06907.76486c-.03654.22554-1.11434,5.70514-1.11434,5.70514h2.01741s1.11446-6.10027,1.11446-6.19367a2.54136,2.54136,0,0,0-.1382-.765h-.069V95.5126h-.1402v-.06813h-.20933l-.069-.06807h-.27841v-.06806h-.28039c.56586-.22854,1.62546-.7202,1.74126-1.32367L391.309,88.4188a1.24991,1.24991,0,0,0-1.18347-1.599H385.673l-2.99273,15.72254m-19.69267.00506h4.4536l.27734-1.94733h-2.15667l.90406-5.28967h2.15673l.27834-1.67113h-2.15767l.97414-4.87307h2.15773l.34846-1.9464h-4.17526l-3.0608,15.7276M350.39082,86.8198h-4.59273l-.41653,1.9464h1.2526l-2.43407,13.7792h2.2248L348.93,88.7662h1.18347l.27733-1.9464m-18.65033,0h-2.29786l-1.52994,8.2112-1.04326-8.2112H324.921l-2.9938,15.7246h2.29793l1.8082-9.1184.76593,9.1184h1.94747l2.99373-15.7246m-29.1564,15.7276h4.45354l.34846-1.94733h-2.15666l.834-5.28967h2.2268l.27933-1.67113h-2.15773l.9042-4.87307h2.22573l.2794-1.9464H305.715l-3.13094,15.7276m342.3048-14.406h.005m-89.633.6248h.005m-148.787,0h.005m-59.84973,0h.005M694.29557,76.826H297.08623a7,7,0,0,0-7,7V107a7,7,0,0,0,7,7H694.29557a7,7,0,0,0,7-7V83.826a7,7,0,0,0-7-7ZM428.25916,105.92487h0Z" fill="#fff"/><path d="M427.28605,100.89526a3.49978,3.49978,0,0,1-3.28418-4.71l1.46093-3.9668a3.49967,3.49967,0,0,1,3.28223-2.29,3.54678,3.54678,0,0,1,.76611.084,3.50156,3.50156,0,0,1,2.72266,3.72168l-.34766,3.9668a3.50037,3.50037,0,0,1-3.48681,3.19434Z" fill="#fc0c18"/><path d="M428.74672,93.428h.005m-.005,0-.34739,3.967h-1.1134l1.46079-3.967m-.00351-7.001a7.00738,7.00738,0,0,0-6.62179,4.7356l-1.40427,3.81346a7,7,0,0,0,6.56878,9.41889h1.1134a7,7,0,0,0,6.97331-6.38933l.32915-3.75857a7.0722,7.0722,0,0,0,.04745-.81908,6.9983,6.9983,0,0,0-6.513-6.9835q-.24741-.01755-.49305-.01747Zm.00351,14.001h0Z" fill="#fff"/><path d="M669.38468,81.20092a8.94061,8.94061,0,0,1-7-3.1377,9.14724,9.14724,0,0,1-1.87695-7.51269L670.45792,13.427a12.15109,12.15109,0,0,1,11.5918-9.92675h15.1709A9.16052,9.16052,0,0,1,704.33585,6.738a9.57336,9.57336,0,0,1,1.8877,7.94385L695.44132,71.8103a11.85627,11.85627,0,0,1-11.374,9.39062Zm8.38281-14.43359a2.58592,2.58592,0,0,0-.03711.67871,2.43925,2.43925,0,0,0,1.916-1.89551L687.998,19.25219a.689.689,0,0,0-.05371-.50732.41761.41761,0,0,0-.26172-.09522,3.46933,3.46933,0,0,1-.376.04736c-.05566.01221-.11035.02246-.166.03174l-.04883.0249c-.06055.0459-.30664.2129-.30664.2129s-.09863.09863-.13672.1333c-.02734.03955-.05566.07861-.085.1167-.03613.07128-.07422.14111-.11523.21-.04688.11084-.09961.21923-.15723.3247l-.01856.07422c-.0205.082-.04492.16406-.07128.24463l-.02442.07275-.0332.1377c-.02539.10205-.05469.20215-.08789.30127l-.04688.13818Z" fill="#fc0c18"/><path d="M697.22025,7c3.80951,0,6.30554,3.139,5.56494,7.02779L692.00181,71.16121a8.35608,8.35608,0,0,1-7.93494,6.54016H669.3845a5.32684,5.32684,0,0,1-5.43085-6.54016l9.95245-57.13342A8.6589,8.6589,0,0,1,682.04929,7h15.171M677.59678,70.953a5.86513,5.86513,0,0,0,5.49786-4.802l8.34741-46.2779a3.85209,3.85209,0,0,0-3.8949-4.73089h-.27935l-.21326.064h-.27936l-.20825.07008h-.20825l-.20825.068-.27527.07014-.14124.07005-.20819.13924-.21033.069-.20617.14019-.14124.13916-.21026.13923-.20624.14019-.14124.13916-.13916.14021-.20825.14018-.14117.20924-.13721.20826-.14118.13916-.13916.20929-.06909.20823-.14123.20929-.069.20924-.13715.20727-.07117.20923-.067.20929-.07111.27839-.06909.20922-.06708.27734-.0711.20929-.06708.20923L674.32267,66.151c-.45008,2.626.645,4.802,3.27411,4.802M697.22025,0h-15.171a15.733,15.733,0,0,0-15.03775,12.81742l-9.954,57.1425a12.31559,12.31559,0,0,0,12.327,14.74145h14.68237a15.252,15.252,0,0,0,14.81454-12.24745l10.78232-57.12787a13.05169,13.05169,0,0,0-2.63122-10.81892A12.64739,12.64739,0,0,0,697.22025,0Z" fill="#fff"/><path d="M392.35441,81.2019a3.50066,3.50066,0,0,1-3.43409-4.17578l13.916-70.70166a3.49975,3.49975,0,0,1,3.43408-2.82422h18.71875a3.5,3.5,0,0,1,3.457,4.04736l-1.38867,8.76758a3.50015,3.50015,0,0,1-3.457,2.95263h-7.01318l-2.98389,14.92041h5.61035a3.50014,3.50014,0,0,1,3.43945,4.14844l-1.39062,7.37744a3.50009,3.50009,0,0,1-3.43945,2.85157h-6.92383l-2.853,16.86767h5.73975a3.50022,3.50022,0,0,1,3.45654,4.04883l-1.3916,8.76855a3.50007,3.50007,0,0,1-3.45655,2.95118Z" fill="#fc0c18"/><path d="M424.98906,7,423.60038,15.768H413.718l-4.38347,21.92039h9.87934l-1.39076,7.37722h-9.88134l-4.03706,23.86784H413.786l-1.39171,8.76892H392.35427L406.27067,7h18.71839M413.786,68.93341h.005M424.98906,0H406.27067a7,7,0,0,0-6.86821,5.64813l-13.9164,70.70231a7,7,0,0,0,6.86821,8.35187h20.04005a7,7,0,0,0,6.91348-5.90276l1.3563-8.5458a7.00582,7.00582,0,0,0-6.87306-8.32036h-1.60292l1.66906-9.86784h3.96591a7,7,0,0,0,6.87884-5.70319l1.39076-7.3772a7,7,0,0,0-6.87884-8.29683h-1.34094l1.58386-7.92039h4.14361a7,7,0,0,0,6.91382-5.905l1.38868-8.768A7,7,0,0,0,424.98906,0Zm0,14h0Z" fill="#fff"/><path d="M386.6464,97.41576a3.78233,3.78233,0,0,1-3.77881-3.77734,4.28348,4.28348,0,0,1,.0625-.72852l.9043-4.72949a3.49762,3.49762,0,0,1,1.00976-1.86426,3.90073,3.90073,0,0,1,2.708-1.12011l.895-.002a3.94726,3.94726,0,0,1,3.02051,1.46973,4.04856,4.04856,0,0,1,.99707,3.292c-.00635.03614-.78321,4.00586-.78321,4.00586a4.55838,4.55838,0,0,1-4.20117,3.4541Z" fill="#fc0c18"/><path d="M388.45439,88.694c.20824,0,.59222.4734.55566.69794l-.76288,3.89684a1.2673,1.2673,0,0,1-.767.62678h-.834a.26745.26745,0,0,1-.27838-.27729v-.07117l.90411-4.72985a.41713.41713,0,0,1,.2804-.14118l.90211-.00207m0-7-.01609,0-.90211.00208a7.37624,7.37624,0,0,0-5.11411,2.09343,7,7,0,0,0-2.02571,3.73348l-.90411,4.72985a6.99867,6.99867,0,0,0-.12449,1.31425v.07117a7.28608,7.28608,0,0,0,7.27838,7.27729h.834a8.08631,8.08631,0,0,0,7.63661-6.28195h0l.76287-3.89683q.02147-.10959.0394-.21982a7.5891,7.5891,0,0,0-1.78547-6.1208,7.48521,7.48521,0,0,0-5.67918-2.70217Z" fill="#fff"/><path d="M554.21378,81.2019a3.50009,3.50009,0,0,1-3.44629-4.11133l10.26563-57.82178h-1.39063A3.50134,3.50134,0,0,1,556.204,15.113l1.67188-8.76856a3.50056,3.50056,0,0,1,3.43848-2.84423H582.328a3.50033,3.50033,0,0,1,3.457,4.04931l-1.39356,8.76856a3.50082,3.50082,0,0,1-3.457,2.95068h-2.43261L567.82023,78.32494a3.50048,3.50048,0,0,1-3.44434,2.877Z" fill="#fc0c18"/><path d="M582.32767,7l-1.39276,8.769h-5.35663l-11.202,61.93334H554.21352L565.20933,15.769h-5.567L561.31443,7h21.01324m0-7H561.31443a7,7,0,0,0-6.87612,5.68884l-1.6721,8.769a7,7,0,0,0,4.18628,7.77372l-9.63118,54.24712a7,7,0,0,0,6.89221,8.22366h10.16274a7,7,0,0,0,6.88824-5.7541l10.1644-56.19651a7.00057,7.00057,0,0,0,6.41937-5.88471l1.39276-8.769A7,7,0,0,0,582.32767,0Zm0,14h0Z" fill="#fff"/><path d="M616.84562,81.2019a3.50046,3.50046,0,0,1-3.48926-3.22168l-1.28711-16.14258-3.34668,16.55762a3.49976,3.49976,0,0,1-3.43066,2.80664H594.99405a3.49906,3.49906,0,0,1-3.43847-4.15332L604.98722,6.34692a3.5002,3.5002,0,0,1,3.43847-2.84668h8.97559a3.50079,3.50079,0,0,1,3.47363,3.06836l1.81153,14.57763,2.75781-14.7876a3.49919,3.49919,0,0,1,3.44043-2.85839h10.2998A3.49961,3.49961,0,0,1,642.623,7.65356L629.19132,78.35522a3.50022,3.50022,0,0,1-3.43848,2.84668Z" fill="#fc0c18"/><path d="M639.18479,7,625.753,77.70233H616.8458l-3.27008-40.98718-8.28339,40.98718H594.99454L608.42533,7h8.97619l4.59272,36.9522L628.88486,7h10.29993m0-7H628.88486a6.99951,6.99951,0,0,0-5.74167,2.99464A6.99806,6.99806,0,0,0,617.40152,0h-8.97619a7,7,0,0,0-6.87705,5.69363L588.1175,76.396a7,7,0,0,0,6.877,8.30637h10.29779A7.00033,7.00033,0,0,0,611.069,81.657a6.9963,6.9963,0,0,0,5.77676,3.04536H625.753a7,7,0,0,0,6.877-5.69353L646.0618,8.30649A7,7,0,0,0,639.18479,0Zm0,14h0Z" fill="#fff"/><path d="M571.89151,81.2019a3.50132,3.50132,0,0,1-3.43457-4.17578l13.917-70.70166a3.50027,3.50027,0,0,1,3.43457-2.82422h18.71972a3.50022,3.50022,0,0,1,3.457,4.04882l-1.39257,8.76758a3.50126,3.50126,0,0,1-3.457,2.95117h-7.00489L593.1962,34.18822h5.626a3.501,3.501,0,0,1,3.43945,4.14942l-1.39258,7.37744a3.50047,3.50047,0,0,1-3.43945,2.85059h-6.92969l-2.90332,16.86767h5.72754a3.50022,3.50022,0,0,1,3.457,4.04883l-1.39257,8.76855a3.50082,3.50082,0,0,1-3.457,2.95118Z" fill="#fc0c18"/><path d="M604.52842,7l-1.3927,8.76794h-9.88343L588.941,37.68835h9.88135l-1.39276,7.37722h-9.87933l-4.10712,23.86784h9.88135l-1.39276,8.76892h-20.04L585.808,7h18.7204m-11.204,61.93339h.005M604.52842,0H585.808a6.99994,6.99994,0,0,0-6.8682,5.64813L565.02341,76.35046a7,7,0,0,0,6.86823,8.35187h20.04a7,7,0,0,0,6.91336-5.90195l1.3573-8.54571a7.00583,7.00583,0,0,0-6.8729-8.32126h-1.57895l1.69806-9.86784h3.981a7,7,0,0,0,6.87848-5.7014l1.39276-7.37721a7,7,0,0,0-6.87848-8.29861h-1.37045l1.5578-7.92039h4.12607a7,7,0,0,0,6.91333-5.90186l1.39273-8.768A7,7,0,0,0,604.52842,0Zm0,14h0Z" fill="#fff"/><path d="M416.849,81.20092a3.49961,3.49961,0,0,1-3.439-4.14941L426.76944,6.35033a3.49913,3.49913,0,0,1,3.439-2.85009h20.1123a9.042,9.042,0,0,1,7.11817,3.23486,9.57391,9.57391,0,0,1,1.88525,7.94531l-4.87158,25.13477a8.16764,8.16764,0,0,1-4.105,5.24219c.13086.2041.24756.39794.353.57226.061.10108.11425.19287.16162.26416a8.35408,8.35408,0,0,1,1.07763,4.66016h-.00146c-.03809.57031-.45654,3.08886-5.06592,27.7876a3.49958,3.49958,0,0,1-3.44043,2.85839h-8.90918a3.50044,3.50044,0,0,1-3.43652-4.16308c1.855-9.60742,4.67383-24.31348,4.83789-25.45606a10.31226,10.31226,0,0,0-.19043-2.39062h-1.02246L429.1962,78.35131a3.49947,3.49947,0,0,1-3.439,2.84961ZM437.83439,35.511a6.01145,6.01145,0,0,0,.72363-.70264l3.3706-15.88769H440.4423l-3.189,16.59033Z" fill="#fc0c18"/><path d="M450.32071,7c3.81763,0,6.30547,3.1319,5.56495,7.02674l-4.86908,25.12245c-.512,2.6981-5.315,4.35294-7.8669,5.35663h.62884a16.07824,16.07824,0,0,1,2.64534,1.32468,7.13059,7.13059,0,0,1,1.53392,2.0165,5.29925,5.29925,0,0,1,.48464,2.57421c0,.43074-5.01032,27.27911-5.01032,27.27911H434.523s4.75832-24.64392,4.87311-25.67705a13.33829,13.33829,0,0,0-.21031-3.41029,4.97086,4.97086,0,0,0-1.04126-2.92266h-6.33287l-6.05459,32.01105h-8.90813L430.20858,7h20.11213M434.72818,39.011h3.8288c.91023,0,3.17662-2.15058,3.33716-3.06184l3.69063-17.39671c.18686-.96206-1.83266-3.13193-2.78145-3.13193h-4.31639v.00406h-.00925v.0701h-.20518l-.13715.06809h-.07111l-.06909.07005h-.069l-.06911.0691-.07.06908h-.06813l-.13709.07008-.07115.06908-.067.0691L433.33745,37.343a3.37532,3.37532,0,0,0,0,.4185,1.32133,1.32133,0,0,0,1.39073,1.24953M450.32071,0H430.20858a7,7,0,0,0-6.87829,5.70029L409.97063,76.40166a7,7,0,0,0,6.87829,8.29971h8.90813a6.98636,6.98636,0,0,0,4.38358-1.54251,7.00067,7.00067,0,0,0,4.38234,1.54146h8.90913a7,7,0,0,0,6.88121-5.71587c4.62447-24.78074,5.07946-27.40451,5.12423-28.30382h.00007l.00022-.006c.002-.04238.00317-.081.00381-.118a13.03748,13.03748,0,0,0-.64793-4.52114,10.29873,10.29873,0,0,0,3.10015-5.58135l4.86391-25.0955a13.07638,13.07638,0,0,0-2.62306-10.85592A12.64966,12.64966,0,0,0,450.32071,0Z" fill="#fff"/><path d="M630.413,81.2019a3.49907,3.49907,0,0,1-3.43848-4.15332L640.40909,6.34692a3.50022,3.50022,0,0,1,3.43848-2.84668h20.03906a9.03622,9.03622,0,0,1,7.10547,3.22412,9.5999,9.5999,0,0,1,1.90137,7.94922L662.10831,71.81127a11.85627,11.85627,0,0,1-11.374,9.39063Zm14.86035-13.76075a2.59392,2.59392,0,0,0,2.0127-1.8916l8.77734-46.32763a.60719.60719,0,0,0-.06641-.44434.62806.62806,0,0,0-.459-.13525h-1.19727Z" fill="#fc0c18"/><path d="M663.88663,7c3.81763,0,6.29737,3.13189,5.56592,7.02874L658.6691,71.16217a8.347,8.347,0,0,1-7.93493,6.54016H630.41276L643.84757,7h20.03906M641.06107,70.95294h4.036a6.00579,6.00579,0,0,0,5.63709-4.802l8.76794-46.2779a3.89706,3.89706,0,0,0-3.96393-4.73089h-4.10711l-10.37,55.81079M663.88663,0H643.84757a7,7,0,0,0-6.87695,5.69323L623.5358,76.39557a7,7,0,0,0,6.877,8.30676h20.32141a15.252,15.252,0,0,0,14.81454-12.24747L676.33112,15.327A13.0882,13.0882,0,0,0,673.6868,4.48975,12.646,12.646,0,0,0,663.88663,0Z" fill="#fff"/><path d="M486.22648,81.2019a3.49966,3.49966,0,0,1-3.48877-3.22168L481.44913,61.8435l-3.34326,16.55176a3.49937,3.49937,0,0,1-3.43066,2.80664h-10.23a3.49973,3.49973,0,0,1-3.43848-4.15332l13.4331-70.70166a3.50022,3.50022,0,0,1,3.43848-2.84668h8.90576a3.5,3.5,0,0,1,3.47315,3.06836l1.8291,14.71093,2.811-14.92724a3.50013,3.50013,0,0,1,3.43946-2.85205h10.22949a3.49961,3.49961,0,0,1,3.43848,4.15332L498.57413,78.35522a3.49982,3.49982,0,0,1-3.43847,2.84668Z" fill="#fc0c18"/><path d="M508.5665,7,495.13572,77.70233h-8.90911L482.9545,36.71515l-8.27937,40.98718H464.44535L477.87813,7h8.90613l4.59377,36.9522L498.33672,7H508.5665m0-7H498.33672a7.00014,7.00014,0,0,0-5.7762,3.0446A6.99834,6.99834,0,0,0,486.78426,0h-8.90613a7,7,0,0,0-6.877,5.69345L457.56838,76.39578a6.99995,6.99995,0,0,0,6.877,8.30655h10.22978a7.00043,7.00043,0,0,0,5.77571-3.0439,6.99694,6.99694,0,0,0,5.77577,3.0439h8.90911a7,7,0,0,0,6.877-5.69363L515.44353,8.30638A7,7,0,0,0,508.5665,0Zm0,14h0Z" fill="#fff"/><path d="M499.79874,81.2019a3.49973,3.49973,0,0,1-3.43848-4.15332L509.789,6.34692a3.5002,3.5002,0,0,1,3.43847-2.84668h8.90625a3.49948,3.49948,0,0,1,3.43848,4.15283L512.14444,78.35522A3.49942,3.49942,0,0,1,508.706,81.2019Z" fill="#fc0c18"/><path d="M522.13346,7h.005m-.005,0L508.70572,77.70233h-8.90716L513.22733,7h8.90613m.005-7h-8.91113a7,7,0,0,0-6.87706,5.69381L492.92151,76.39615a7,7,0,0,0,6.877,8.30618h8.90716a7,7,0,0,0,6.87708-5.69392L528.96738,8.53335A7.0057,7.0057,0,0,0,522.13846,0Zm-.005,14h0Z" fill="#fff"/><path d="M535.21671,81.2019a3.50046,3.50046,0,0,1-3.48926-3.22168l-1.28711-16.1377-3.34472,16.55274A3.49977,3.49977,0,0,1,523.665,81.2019h-10.2998a3.49907,3.49907,0,0,1-3.43848-4.15332L523.35538,6.34692a3.49943,3.49943,0,0,1,3.43848-2.84668h8.98047A3.50079,3.50079,0,0,1,539.248,6.5686l1.81152,14.57421,2.75586-14.78418a3.49968,3.49968,0,0,1,3.44043-2.85839h10.29981a3.49959,3.49959,0,0,1,3.43847,4.15332L547.56437,78.35522a3.50023,3.50023,0,0,1-3.43848,2.84668Z" fill="#fc0c18"/><path d="M557.5557,7,544.126,77.70233h-8.9091l-3.27008-40.98718-8.28141,40.98718H513.3655L526.79421,7h8.98029l4.59271,36.9522L547.25585,7H557.5557m0-7H547.25585a6.9991,6.9991,0,0,0-5.74068,2.99322A6.99717,6.99717,0,0,0,535.7745,0h-8.98029a7,7,0,0,0-6.877,5.69381L506.48845,76.39615a7,7,0,0,0,6.877,8.30618h10.29986a6.99982,6.99982,0,0,0,5.77572-3.0439,6.99652,6.99652,0,0,0,5.77577,3.0439h8.9091a7,7,0,0,0,6.877-5.69371L564.43274,8.3063A7,7,0,0,0,557.5557,0Zm0,14h0Z" fill="#fff"/><path id="polyline2177" d="M316.84991,7a8.73337,8.73337,0,0,0-8.21126,7.02777V14.236l-.06908.06908v.21028l-.07009.13917v.14019l-.0701.13918v.20927l-.06908.13917v.20927l-.07009.20825-.0701.20927-.06908.41651-.13917.4866-.06807.4866-.14019.4866-.07009.55568-.14019.5567-.13816.62577-.14019.5567-.20826,1.18348-.14019.62679-.13917.55568-.06807.5567-.14017.55567-.13816.55772-.0701.55669-.07009.4866-.14019.41752-.0701.4866V26.273l-.06806.13918v.34844l-.06908.20926v.27937l-.0701.13917v.13816c-.07111,1.70158.16559,4.02283.69587,4.45458.67555,3.74652,13.16362,21.0884,12.804,23.72864-.33727,2.64735-1.80926,10.43906-1.80926,10.43906-.45307,2.626-2.24506,4.72988-4.87006,4.72988a3.89465,3.89465,0,0,1-3.967-4.72988l2.366-12.94317h-9.32465L298.6862,71.16018a5.37073,5.37073,0,0,0,5.49686,6.54016h13.29263a8.26378,8.26378,0,0,0,7.8618-6.54016s3.42551-16.76995,3.40926-17.95445c-.01321-1.19263-.34642-1.32266-.34642-1.32266,0-1.36431-11.11258-19.70783-12.2473-20.3905-.48863-.28546-.89091-2.10183-.90615-3.2-.02134-1.091,1.46183-8.42053,1.46183-8.42053a5.85635,5.85635,0,0,1,5.567-4.7309c2.626,0,3.72215,2.10488,3.27008,4.7309l-2.01751,11.62051H332.922l3.2711-17.46683C336.93362,10.139,334.44474,7,330.62712,7Zm25.607,0L331.324,71.16222a5.37139,5.37139,0,0,0,5.49788,6.54016h13.29161a8.35019,8.35019,0,0,0,7.93291-6.54016L369.94425,7h-8.34941l-11.3442,62.35092a2.0981,2.0981,0,0,1-1.94741,1.67212h-6.61229a1.38325,1.38325,0,0,1-1.39276-1.67212L351.365,7Zm32.011,0L361.03712,77.70135h8.90713l6.12468-32.011h11.34318a8.27994,8.27994,0,0,0,7.8618-6.54016L400.145,14.02777C400.88046,10.13192,398.3977,7,394.58108,7H374.4679Zm31.80277,0L392.35429,77.70237h20.04l1.39174-8.769h-9.88135l4.037-23.86782h9.88135l1.39073-7.37723h-9.87932L413.718,15.768h9.88236L424.98905,7Zm23.93791,0L416.8489,77.70135H425.757l6.05458-32.011h6.33291a4.97086,4.97086,0,0,1,1.04126,2.92265,13.33767,13.33767,0,0,1,.21029,3.41027c-.1148,1.03313-4.87312,25.67707-4.87312,25.67707h8.90917s5.01026-26.84837,5.01026-27.2791a5.29945,5.29945,0,0,0-.48457-2.57421,7.13076,7.13076,0,0,0-1.534-2.0165,16.07491,16.07491,0,0,0-2.64532-1.32469h-.62883c2.55186-1.00368,7.35489-2.65853,7.86689-5.35667l4.86905-25.12241C456.62621,10.13192,454.13836,7,450.32073,7Zm47.6696,0L464.44536,77.70237h10.2298l8.27932-40.98722,3.27212,40.98722h8.90915L508.56651,7H498.33672L491.378,43.95219,486.78429,7Zm35.34915,0L499.79858,77.70237h8.90713L522.13344,7Zm13.56692,0L513.3655,77.70237h10.29989l8.28137-40.98722,3.27007,40.98722H544.126L557.55572,7H547.25583l-6.88861,36.95219L535.77452,7Zm34.52019,0-1.67211,8.769h5.567l-10.99576,61.9334h10.16274l11.202-61.9334h5.35668L582.32767,7ZM585.808,7,571.89165,77.70237h20.04l1.39276-8.769h-9.88134l4.10715-23.86782h9.87933l1.39275-7.37723H588.941L593.25231,15.768h9.88338L604.52845,7Zm22.61728,0L594.99452,77.70237h10.29784l8.28338-40.98722,3.27007,40.98722H625.753L639.18477,7H628.88488l-6.89063,36.95219L617.40152,7ZM643.8476,7,630.41274,77.70237h20.32142a8.34707,8.34707,0,0,0,7.93494-6.54016l10.78343-57.13343C670.184,10.13192,667.70425,7,663.88662,7Zm38.20172,0a8.65883,8.65883,0,0,0-8.14319,7.02777L663.95368,71.1612a5.32682,5.32682,0,0,0,5.43083,6.54016h14.68234a8.35609,8.35609,0,0,0,7.93495-6.54016l10.7834-57.13343C703.52577,10.139,701.02978,7,697.22028,7Zm-30.61827,8.14218h4.10715a3.89707,3.89707,0,0,1,3.96392,4.7309l-8.768,46.27786a6.00582,6.00582,0,0,1-5.63707,4.802h-4.036Zm35.83677,0h.27936a3.852,3.852,0,0,1,3.89485,4.7309l-8.34739,46.27786a5.86514,5.86514,0,0,1-5.49787,4.802c-2.62908,0-3.72415-2.176-3.27413-4.802L682.604,19.87308l.06706-.20927.07112-.20927.067-.27733.06908-.20927.07111-.27835.06706-.20927.07112-.20927.13715-.20723.06907-.20927.14122-.20927.06907-.20826.13917-.20926.14121-.13918.13715-.20825.14121-.20927.20824-.14019.13917-.14019.14121-.13917.20623-.14019.21028-.13918.14122-.13917.20622-.14019.21029-.06908.20824-.13917.14121-.0701.2753-.07009.20823-.06807h.20824l.20824-.07009h.27936Zm-304.24123.27835H387.342c.9478,0,2.95718,2.16989,2.78449,3.13192l-3.68964,17.46683c-.17169.90412-1.39173,2.99071-2.29382,2.99071h-5.35971l-.07009-.06806h-.27835v-.0701h-.13917l-.07112-.06806h-.06907l-.06907-.0701-.06908-.06908h-.06907v-.0711l-.07009-.06908-.0701-.0701v-.06908l-.06907-.06908-.07112-.07009v-.14019l-.06907-.06908v-.13816l-.07112-.06908v-.06908c0-.1158-.01218-.28952,0-.41854l4.17624-21.3637A2.16788,2.16788,0,0,1,383.02659,15.42053Zm55.46029,0h4.31642c.94883,0,2.96836,2.16989,2.78145,3.13192l-3.69064,17.39673c-.16051.91124-2.42692,3.06183-3.33713,3.06183h-3.8288a1.32135,1.32135,0,0,1-1.39073-1.24951,3.37989,3.37989,0,0,1,0-.41854l4.10613-21.3637.067-.06908.07112-.06908.13714-.0701h.06806l.0701-.06908.06907-.06907h.06907l.06907-.0701h.07112l.13714-.06806h.2052v-.0701h.00917ZM297.08621,83.826V107H694.2956V83.826Zm291.996,2.435h3.40521a1.235,1.235,0,0,1,1.25154,1.53091l-.766,3.89889h-1.87732l.41447-2.57522a.83266.83266,0,0,0-.835-1.04432,1.30926,1.30926,0,0,0-1.25154,1.04432l-.34539,1.88037a1.1295,1.1295,0,0,0,.20622.69688,30.8881,30.8881,0,0,1,2.7144,4.52162c.05791.15035.09142.22349.06706.27937-.06908.50895-.766,3.96391-.766,3.96391a1.85,1.85,0,0,1-1.73814,1.46082H586.639a1.17975,1.17975,0,0,1-1.18449-1.46082l.69891-3.96391h2.0175l-.48356,2.85257a.887.887,0,0,0,.831,1.11237,1.39131,1.39131,0,0,0,1.2556-1.11237l.41651-2.29688c-.37282-.96-2.83527-4.45864-2.99375-5.28963a1.96483,1.96483,0,0,1-.13715-.97421c.02133-.41346.55568-2.99275.55568-2.99275h.07214v-.20521l.067-.14019v-.06806l.06706-.07111v-.06807l.06907-.06806v-.0711l.06907-.06807.07112-.07111V86.895h.06706l.07112-.06908.067-.07111.06908-.06705V86.6166h.06907l.06706-.06705.067-.06908h.07112l.06907-.06806h.06908l.06907-.06807h.20824Zm16.002,0h2.50616l.34744,5.91641,3.2-5.91641h2.50818l-5.15046,9.04731-1.25154,6.61026h-2.22578l1.11541-7.09888Zm22.75748,0h3.40524a1.24164,1.24164,0,0,1,1.25155,1.53091l-.766,3.89889h-1.87936l.41853-2.57522a.83266.83266,0,0,0-.835-1.04432,1.304,1.304,0,0,0-1.25154,1.04432l-.34744,1.88037a.94732.94732,0,0,0,.20623.69688,31.99627,31.99627,0,0,1,2.71439,4.52162.54543.54543,0,0,1,.07112.27937c-.09549.50895-.69689,3.96391-.69689,3.96391a1.86193,1.86193,0,0,1-1.74221,1.46082h-2.98969a1.18149,1.18149,0,0,1-1.18653-1.46082l.69689-3.96391h2.01955l-.48661,2.85357a.89858.89858,0,0,0,.835,1.11237,1.39378,1.39378,0,0,0,1.25154-1.11237l.41651-2.29688c-.38095-.96-2.83121-4.45865-2.99174-5.28963a2.00774,2.00774,0,0,1-.13917-.97421c.02133-.41346.55773-2.99275.55773-2.99275l.067-.06908v-.13613l.06908-.14019v-.06806l.06907-.07111v-.06807l.06907-.06806v-.0721l.06907-.06807.06907-.07111V86.895h.07112l.065-.06908.06908-.07111.06907-.06705.06907-.07111.06907-.06705.06907-.06908h.06908l.07111-.06806h.06706l.06907-.06807h.20623Zm16.21222,0h4.66488l-.34946,1.88037h-1.18448l-2.434,13.77821h-2.29587l2.434-13.77822h-1.18248Zm18.2318,0h4.17421l-.34945,1.88037h-2.15667l-.97219,4.94118h2.22578l-.34946,1.599h-2.15872l-.90311,5.28861h2.15466l-.2753,1.94843h-4.45459Zm17.18847,0h2.57523l.41446,9.04731,3.968-8.97722,2.50411-.07009-2.64127,15.65757h-1.94843l1.24953-8.27932-3.48036,8.27932h-1.39276l-.41446-8.49062-1.53192,8.49062h-2.29789Zm-373.7591.55872h4.10613l-.27936,1.9464H307.316l-.90412,4.87312h2.1577l-.27936,1.6711h-2.22679l-.834,5.28962h2.15669l-.34845,1.94742h-4.45356Zm19.206,0h1.94844l1.04329,8.21126,1.5299-8.21126h2.29789l-2.99376,15.72462h-1.94742l-.766-9.11843-1.80824,9.11843h-2.2979Zm20.8771,0h4.59275l-.27734,1.9464H348.93l-2.50513,13.77924h-2.22475l2.434-13.77924h-1.25256Zm20.25031,0h4.17522l-.34845,1.9464h-2.15769l-.97422,4.87312h2.1577l-.27835,1.6711h-2.15669L365.56179,100.6h2.15669l-.27733,1.94742h-4.45357Zm19.62454,0h4.45255a1.2499,1.2499,0,0,1,1.18348,1.599l-1.04329,5.56594c-.11581.60343-1.17536,1.09511-1.7412,1.32368h.28038v.06806h.27835l.06907.06807h.20926v.06806h.14019v.07111h.06907a2.54146,2.54146,0,0,1,.13816.76495c0,.09346-1.1144,6.19374-1.1144,6.19374H386.577s1.07784-5.47958,1.11441-5.70511a2.98251,2.98251,0,0,0-.06907-.76494.94275.94275,0,0,0-.20927-.62781h-1.39275l-1.32164,7.09787h-2.01853Zm19.90085,0h4.66182l-.27732,1.9464h-1.18145l-2.50614,13.77924H404.0439l2.435-13.77924H405.2274Zm23.173,0h2.64532l-.835,15.72462H427.9117l.34742-3.61954h-1.599l-1.32367,3.61954h-2.36392Zm18.51215,0h2.0175l-2.99376,15.72462H444.3342Zm17.95241,0h1.95047L468.203,95.031l1.534-8.21126h2.22576L469.0401,102.5444h-2.01751L466.3257,93.426l-1.81129,9.11843h-2.29383Zm23.03583,0h2.57523l.41446,9.1164,3.97-9.04529h2.5021l-2.64328,15.65656h-1.94843l1.25154-8.28136-3.4824,8.28136h-1.39071l-.41651-8.4886-1.52991,8.4886h-2.22779Zm25.25954,0h4.10511l-.27936,1.9464h-2.22577l-.90312,4.87312h2.15668l-.27936,1.6711h-2.22373L512.952,100.6h2.22373l-.34744,1.94742h-4.38245Zm20.17819,0h1.94844l1.04532,8.21126,1.52991-8.21126h2.22577l-2.92062,15.72462h-1.94843l-.766-9.11843L532.988,102.5444h-2.29587Zm20.66886,0h4.66283l-.34744,1.9464h-1.18247l-2.43606,13.77924H552.8228l2.43807-13.77924h-1.25154ZM387.55228,88.69609a.41709.41709,0,0,0-.28038.1412l-.90412,4.72988v.07111a.26745.26745,0,0,0,.27835.27734h.834a1.26734,1.26734,0,0,0,.767-.62679l.76292-3.89687c.03657-.2245-.34742-.69789-.55567-.69789l-.90211.002ZM428.74675,93.428l-1.46082,3.967h1.11338Z" fill="#fc0c18"/></g></svg>