<svg xmlns="http://www.w3.org/2000/svg" viewBox="0 0 1000 107"><title>logo_right</title><g id="Layer_2" data-name="Layer 2"><rect x="779.66" y="48.97" width="11.69" height="49.44" fill="#fff"/><rect x="859.91" y="54.99" width="12.44" height="15.11" fill="#fff"/><rect x="899.24" y="8.54" width="13.68" height="89.86" fill="#fff"/><rect x="937.46" y="6.36" width="12.37" height="93.37" fill="#fff"/><rect x="976.13" y="6.36" width="11.82" height="92.04" fill="#fff"/><rect x="820.46" y="4.81" width="11.92" height="23.6" fill="#fff"/></g><g id="Layer_1" data-name="Layer 1"><path d="M806.19,4.81H824c-1.41.93-2.59,1.76-3.81,2.51A1.28,1.28,0,0,0,819.49,9q3.59,15.57,7.08,31.15c.09.37.19.72.28,1.08.37,0,.36-.25.4-.45q3.84-16,7.67-31.95a1.05,1.05,0,0,0-.53-1.37c-1.29-.77-2.52-1.64-4-2.59h12.79c-1.38.92-2.62,1.79-3.91,2.59a2.15,2.15,0,0,0-1,1.42q-4.83,19.5-9.69,39a6.37,6.37,0,0,0,.25,3.08q3.61,16.08,7.28,32.15,1.68,7.4,3.31,14.82a2.65,2.65,0,0,0,1.35,1.91c1.2.68,2.32,1.49,3.73,2.4H826.68c1.45-1,2.69-1.83,4-2.61a1.06,1.06,0,0,0,.57-1.37q-4-17.82-8-35.67c-.09-.39-.19-.79-.37-1.5-.59,2.28-1.11,4.26-1.62,6.24-2.6,10.14-5.18,20.29-7.83,30.41a1.63,1.63,0,0,0,.89,2.23c1.11.62,2.13,1.39,3.42,2.25H805.24a9.51,9.51,0,0,1,2.45-1.67,5.31,5.31,0,0,0,2.79-3.88q5.12-20.58,10.45-41.12a7.19,7.19,0,0,0-.27-3.52Q815.88,30.3,811,8.61a1.63,1.63,0,0,0-.82-1.12l-4-2.68Zm75,97.45H864.17c1.44-1,2.59-1.78,3.81-2.51a1.91,1.91,0,0,0,1-1.9q-.06-11.79,0-23.58c0-1-.29-1.34-1.33-1.33-3.95.06-7.9,0-11.85,0-.93,0-1.15-.23-1-1.16q6.33-30.1,12.61-60.21c.42-2,.88-4,1.28-6,.11-.52.26-.82.85-.82,2.48,0,5,0,7.45,0,.85,0,.55.47.43.87Q875.8,11,874.11,16.47,866,42.65,857.84,68.82c-.09.28-.14.57-.23,1h10.77c.84,0,.59-.63.6-1.06,0-5.15,0-10.3,0-15.45a2,2,0,0,1,1.06-2c2.23-1.36,4.42-2.82,6.63-4.24.36.42.21.85.21,1.24,0,6.77,0,13.53,0,20.3,0,1,.27,1.3,1.26,1.24,1.5-.08,3,0,4.51,0,.7,0,.91.24.89.91-.07,2.82.35,2.24-2.2,2.3-1.17,0-2.33,0-3.5,0-.64,0-.95.13-.95.87q0,12.3,0,24.59a1.26,1.26,0,0,0,.71,1.16c1.25.82,2.48,1.65,3.72,2.48C881.27,102.12,881.24,102.19,881.22,102.26ZM996.5,45.85c-.2-.1-.21-.29-.22-.48-.23-4.53-.58-9.06-1.12-13.57a78.93,78.93,0,0,0-4.11-18.4c-1.09-2.93-2.34-5.79-4.66-8a5.1,5.1,0,0,0-7.89.44,22.53,22.53,0,0,0-3.66,6.31A70.59,70.59,0,0,0,970.94,27a150.1,150.1,0,0,0-2,22.4,174.27,174.27,0,0,0,.86,22.38A129.71,129.71,0,0,0,972.6,89a32.47,32.47,0,0,0,4.74,11.24c2.88,4,6.78,4.13,9.93.35,2.84-3.41,4.22-7.51,5.38-11.68A118.59,118.59,0,0,0,996.31,63a5.18,5.18,0,0,0,.07-1.36V58.94a9,9,0,0,1,.12-2.26V50.14a8.64,8.64,0,0,1-.12-2.21c.06-.54-.13-1.1.12-1.63Zm-8.63,24c-.07,5-.17,9.92-.46,14.86-.24,4.19-.4,8.4-1.73,12.44a7,7,0,0,1-1.21,2.4,2.46,2.46,0,0,1-4.12-.07,8.3,8.3,0,0,1-1.41-3.76,79.79,79.79,0,0,1-1.13-11.64c-.39-9.72-.52-19.45-.44-29.18,0-4.51-.06-9,0-13.53.09-6,.19-12.1.46-18.14a77.21,77.21,0,0,1,1.29-12.86,7.28,7.28,0,0,1,1.11-2.69,2.6,2.6,0,0,1,4.37-.31,9.56,9.56,0,0,1,1.92,5.09,102.53,102.53,0,0,1,1.2,13.67c.33,8.64.18,17.28.21,25.92,0,5.94,0,11.87-.07,17.8Zm-67.38-15.3a170.57,170.57,0,0,0-.9-19.28,95,95,0,0,0-3.42-18.77c-1.12-3.6-2.35-7.16-4.79-10.12-3.1-3.75-6.6-3.63-9.5.26-2.65,3.57-4,7.7-5.12,11.93-2.63,10-3.48,20.3-3.78,30.63a160.46,160.46,0,0,0,.82,21.59,130,130,0,0,0,2.76,17.77c1.07,4.31,2.42,8.53,5.2,12.12,2.53,3.26,6.08,3.47,9,.52a19.84,19.84,0,0,0,4-6.71c2.71-6.66,3.89-13.69,4.72-20.77a144.4,144.4,0,0,0,1-19.17Zm-8.44,6.49c-.06,7.13-.18,14.27-.46,21.4a66.47,66.47,0,0,1-1.51,13.62,9.44,9.44,0,0,1-1.39,3.3,2.51,2.51,0,0,1-4.39,0c-1.2-1.74-1.39-3.8-1.64-5.79-.65-5-.81-10.09-1-15.16-.28-7.82-.09-15.63-.13-23.45,0-6.61-.09-13.23,0-19.84.1-5.75.19-11.49.67-17.22A43.9,43.9,0,0,1,903.3,10a6.7,6.7,0,0,1,1-2.26c1.37-1.88,3.42-1.86,4.72.08a12.83,12.83,0,0,1,1.72,5.42A133.23,133.23,0,0,1,911.9,30.3C912.12,40.56,912.15,50.82,912.05,61.08Zm45-29.17A79.38,79.38,0,0,0,953,13.51c-1.12-3-2.38-5.94-4.78-8.2-2.23-2.09-4.63-2.19-7-.23s-3.44,4.44-4.49,7.06c-3.19,7.91-4.34,16.27-5.19,24.68a142.74,142.74,0,0,0-.71,16.67,154.62,154.62,0,0,0,1.1,20.19A116,116,0,0,0,934.47,89a32.65,32.65,0,0,0,4.73,11.25c2.92,4.06,7,4.13,10.08.22,2.72-3.4,4.1-7.41,5.23-11.51,2.74-9.91,3.55-20.07,3.82-30.28A182.56,182.56,0,0,0,957,31.91Zm-7.31,38.83c-.13,5.78-.14,11.57-.66,17.33-.29,3.28-.51,6.59-1.73,9.71a6.65,6.65,0,0,1-.35.83c-.59,1.1-1.32,2.09-2.72,2s-2.24-1.13-2.74-2.36a21.31,21.31,0,0,1-1.2-5.82c-.79-7.47-.86-15-1-22.49-.1-5-.06-10-.1-15,0-4-.06-8.05,0-12.07.1-6.49.2-13,.46-19.48a78.42,78.42,0,0,1,1.29-13,7.41,7.41,0,0,1,1.22-2.89,2.56,2.56,0,0,1,4.16-.29c1.38,1.44,1.71,3.33,2,5.16a104.36,104.36,0,0,1,1.2,13.44c.34,8.72.18,17.44.21,26.15C949.83,58.28,949.86,64.51,949.73,70.74ZM785,103.5c-7.76,0-14-22.39-14-50s7.38-50,15.14-50h0a6.16,6.16,0,0,1,5.22,2.39,29.75,29.75,0,0,1,2.09,3.26c.5-.36.59-.9.85-1.33.77-1.33,1.18-2.85,2.31-4,.35.17.26.51.26.79V34.55a1.22,1.22,0,0,1-.06.27c-.38-.16-.35-.51-.42-.81-1.73-7-3.44-14.06-5.2-21.07a14.35,14.35,0,0,0-2.27-5c-1.56-2.15-3.77-2.1-5.24.13a17,17,0,0,0-2.16,6.81,137.28,137.28,0,0,0-1.43,16.81c-.52,12.07-.43,24.13-.34,36.19,0,5.19.19,10.37.45,15.55a57.7,57.7,0,0,0,1.53,12.26,10.86,10.86,0,0,0,1.55,3.6,2.68,2.68,0,0,0,4.35.38c1.52-1.48,1.85-3.47,2.21-5.43a41.09,41.09,0,0,0,.48-7.52q0-17.37,0-34.74a1.76,1.76,0,0,0-.94-1.72c-1.24-.76-2.43-1.6-3.94-2.6h4.78c2.33,0,4.66,0,7,0,.74,0,1.06.21,1,1a5.23,5.23,0,0,0,0,.56q0,26.4,0,52.8a2.07,2.07,0,0,1-.31,1.54L793.2,90.27c-.39,2-.6,4-1.15,6-.62,2.23-1.43,4.38-3.31,5.89A5,5,0,0,1,785,103.3" fill="#efe464" stroke="#fff" stroke-linecap="round" stroke-linejoin="round" stroke-width="7"/><path d="M996.28,58.94c.09-.75-.24-1.54.22-2.26v2.26C996.43,59,996.36,59,996.28,58.94Z" fill="#f1e87a"/><path d="M996.5,50.14c-.44-.72-.15-1.51-.21-2.27.07-.09.14-.09.21,0Z" fill="#f5ed99"/><path d="M996.5,47.88h-.21c.07-.52-.24-1.1.21-1.57Z" fill="#f7f2ba"/><path d="M996.31,61.66l0-1.36c.07-.11.14-.11.21,0v1.35C996.44,61.74,996.38,61.75,996.31,61.66Z" fill="#f7f2b8"/><path d="M996.31,61.66l.19,0V63h-.19V61.66Z" fill="#fbf9e1"/><path d="M996.5,60.29h-.21V58.94h.22Z" fill="#f5ee9c"/><path d="M806.19,4.81H824c-1.41.93-2.59,1.76-3.81,2.51A1.28,1.28,0,0,0,819.49,9q3.59,15.57,7.08,31.15c.09.37.19.72.28,1.08.37,0,.36-.25.4-.45q3.84-16,7.67-31.95a1.05,1.05,0,0,0-.53-1.37c-1.29-.77-2.52-1.64-4-2.59h12.79c-1.38.92-2.62,1.79-3.91,2.59a2.15,2.15,0,0,0-1,1.42q-4.83,19.5-9.69,39a6.37,6.37,0,0,0,.25,3.08q3.61,16.08,7.28,32.15,1.68,7.4,3.31,14.82a2.65,2.65,0,0,0,1.35,1.91c1.2.68,2.32,1.49,3.73,2.4H826.68c1.45-1,2.69-1.83,4-2.61a1.06,1.06,0,0,0,.57-1.37q-4-17.82-8-35.67c-.09-.39-.19-.79-.37-1.5-.59,2.28-1.11,4.26-1.62,6.24-2.6,10.14-5.18,20.29-7.83,30.41a1.63,1.63,0,0,0,.89,2.23c1.11.62,2.13,1.39,3.42,2.25H805.24a9.51,9.51,0,0,1,2.45-1.67,5.31,5.31,0,0,0,2.79-3.88q5.12-20.58,10.45-41.12a7.19,7.19,0,0,0-.27-3.52Q815.88,30.3,811,8.61a1.63,1.63,0,0,0-.82-1.12l-4-2.68Zm75,97.45H864.17c1.44-1,2.59-1.78,3.81-2.51a1.91,1.91,0,0,0,1-1.9q-.06-11.79,0-23.58c0-1-.29-1.34-1.33-1.33-3.95.06-7.9,0-11.85,0-.93,0-1.15-.23-1-1.16q6.33-30.1,12.61-60.21c.42-2,.88-4,1.28-6,.11-.52.26-.82.85-.82,2.48,0,5,0,7.45,0,.85,0,.55.47.43.87Q875.8,11,874.11,16.47,866,42.65,857.84,68.82c-.09.28-.14.57-.23,1h10.77c.84,0,.59-.63.6-1.06,0-5.15,0-10.3,0-15.45a2,2,0,0,1,1.06-2c2.23-1.36,4.42-2.82,6.63-4.24.36.42.21.85.21,1.24,0,6.77,0,13.53,0,20.3,0,1,.27,1.3,1.26,1.24,1.5-.08,3,0,4.51,0,.7,0,.91.24.89.91-.07,2.82.35,2.24-2.2,2.3-1.17,0-2.33,0-3.5,0-.64,0-.95.13-.95.87q0,12.3,0,24.59a1.26,1.26,0,0,0,.71,1.16c1.25.82,2.48,1.65,3.72,2.48C881.27,102.12,881.24,102.19,881.22,102.26ZM996.5,45.85c-.2-.1-.21-.29-.22-.48-.23-4.53-.58-9.06-1.12-13.57a78.93,78.93,0,0,0-4.11-18.4c-1.09-2.93-2.34-5.79-4.66-8a5.1,5.1,0,0,0-7.89.44,22.53,22.53,0,0,0-3.66,6.31A70.59,70.59,0,0,0,970.94,27a150.1,150.1,0,0,0-2,22.4,174.27,174.27,0,0,0,.86,22.38A129.71,129.71,0,0,0,972.6,89a32.47,32.47,0,0,0,4.74,11.24c2.88,4,6.78,4.13,9.93.35,2.84-3.41,4.22-7.51,5.38-11.68A118.59,118.59,0,0,0,996.31,63a5.18,5.18,0,0,0,.07-1.36V58.94a9,9,0,0,1,.12-2.26V50.14a8.64,8.64,0,0,1-.12-2.21c.06-.54-.13-1.1.12-1.63Zm-8.63,24c-.07,5-.17,9.92-.46,14.86-.24,4.19-.4,8.4-1.73,12.44a7,7,0,0,1-1.21,2.4,2.46,2.46,0,0,1-4.12-.07,8.3,8.3,0,0,1-1.41-3.76,79.79,79.79,0,0,1-1.13-11.64c-.39-9.72-.52-19.45-.44-29.18,0-4.51-.06-9,0-13.53.09-6,.19-12.1.46-18.14a77.21,77.21,0,0,1,1.29-12.86,7.28,7.28,0,0,1,1.11-2.69,2.6,2.6,0,0,1,4.37-.31,9.56,9.56,0,0,1,1.92,5.09,102.53,102.53,0,0,1,1.2,13.67c.33,8.64.18,17.28.21,25.92,0,5.94,0,11.87-.07,17.8Zm-67.38-15.3a170.57,170.57,0,0,0-.9-19.28,95,95,0,0,0-3.42-18.77c-1.12-3.6-2.35-7.16-4.79-10.12-3.1-3.75-6.6-3.63-9.5.26-2.65,3.57-4,7.7-5.12,11.93-2.63,10-3.48,20.3-3.78,30.63a160.46,160.46,0,0,0,.82,21.59,130,130,0,0,0,2.76,17.77c1.07,4.31,2.42,8.53,5.2,12.12,2.53,3.26,6.08,3.47,9,.52a19.84,19.84,0,0,0,4-6.71c2.71-6.66,3.89-13.69,4.72-20.77a144.4,144.4,0,0,0,1-19.17Zm-8.44,6.49c-.06,7.13-.18,14.27-.46,21.4a66.47,66.47,0,0,1-1.51,13.62,9.44,9.44,0,0,1-1.39,3.3,2.51,2.51,0,0,1-4.39,0c-1.2-1.74-1.39-3.8-1.64-5.79-.65-5-.81-10.09-1-15.16-.28-7.82-.09-15.63-.13-23.45,0-6.61-.09-13.23,0-19.84.1-5.75.19-11.49.67-17.22A43.9,43.9,0,0,1,903.3,10a6.7,6.7,0,0,1,1-2.26c1.37-1.88,3.42-1.86,4.72.08a12.83,12.83,0,0,1,1.72,5.42A133.23,133.23,0,0,1,911.9,30.3C912.12,40.56,912.15,50.82,912.05,61.08Zm45-29.17A79.38,79.38,0,0,0,953,13.51c-1.12-3-2.38-5.94-4.78-8.2-2.23-2.09-4.63-2.19-7-.23s-3.44,4.44-4.49,7.06c-3.19,7.91-4.34,16.27-5.19,24.68a142.74,142.74,0,0,0-.71,16.67,154.62,154.62,0,0,0,1.1,20.19A116,116,0,0,0,934.47,89a32.65,32.65,0,0,0,4.73,11.25c2.92,4.06,7,4.13,10.08.22,2.72-3.4,4.1-7.41,5.23-11.51,2.74-9.91,3.55-20.07,3.82-30.28A182.56,182.56,0,0,0,957,31.91Zm-7.31,38.83c-.13,5.78-.14,11.57-.66,17.33-.29,3.28-.51,6.59-1.73,9.71a6.65,6.65,0,0,1-.35.83c-.59,1.1-1.32,2.09-2.72,2s-2.24-1.13-2.74-2.36a21.31,21.31,0,0,1-1.2-5.82c-.79-7.47-.86-15-1-22.49-.1-5-.06-10-.1-15,0-4-.06-8.05,0-12.07.1-6.49.2-13,.46-19.48a78.42,78.42,0,0,1,1.29-13,7.41,7.41,0,0,1,1.22-2.89,2.56,2.56,0,0,1,4.16-.29c1.38,1.44,1.71,3.33,2,5.16a104.36,104.36,0,0,1,1.2,13.44c.34,8.72.18,17.44.21,26.15C949.83,58.28,949.86,64.51,949.73,70.74ZM785,103.5c-7.76,0-14-22.39-14-50s7.38-50,15.14-50h0a6.16,6.16,0,0,1,5.22,2.39,29.75,29.75,0,0,1,2.09,3.26c.5-.36.59-.9.85-1.33.77-1.33,1.18-2.85,2.31-4,.35.17.26.51.26.79V34.55a1.22,1.22,0,0,1-.06.27c-.38-.16-.35-.51-.42-.81-1.73-7-3.44-14.06-5.2-21.07a14.35,14.35,0,0,0-2.27-5c-1.56-2.15-3.77-2.1-5.24.13a17,17,0,0,0-2.16,6.81,137.28,137.28,0,0,0-1.43,16.81c-.52,12.07-.43,24.13-.34,36.19,0,5.19.19,10.37.45,15.55a57.7,57.7,0,0,0,1.53,12.26,10.86,10.86,0,0,0,1.55,3.6,2.68,2.68,0,0,0,4.35.38c1.52-1.48,1.85-3.47,2.21-5.43a41.09,41.09,0,0,0,.48-7.52q0-17.37,0-34.74a1.76,1.76,0,0,0-.94-1.72c-1.24-.76-2.43-1.6-3.94-2.6h4.78c2.33,0,4.66,0,7,0,.74,0,1.06.21,1,1a5.23,5.23,0,0,0,0,.56q0,26.4,0,52.8a2.07,2.07,0,0,1-.31,1.54L793.2,90.27c-.39,2-.6,4-1.15,6-.62,2.23-1.43,4.38-3.31,5.89A5,5,0,0,1,785,103.3" fill="#efe464"/></g></svg>