<svg xmlns="http://www.w3.org/2000/svg" viewBox="0 0 1000 106.36"><title>logo</title><g id="Layer_2" data-name="Layer 2"><rect x="395.93" y="48.65" width="11.69" height="49.44" fill="#fff"/><rect x="476.17" y="54.67" width="12.44" height="15.11" fill="#fff"/><rect x="515.51" y="8.22" width="13.68" height="89.86" fill="#fff"/><rect x="553.73" y="6.04" width="12.37" height="93.37" fill="#fff"/><rect x="592.4" y="6.04" width="11.82" height="92.04" fill="#fff"/><rect x="436.73" y="4.49" width="11.92" height="23.6" fill="#fff"/></g><g id="Layer_1" data-name="Layer 1"><path d="M422.46,4.49h17.77c-1.41.93-2.59,1.76-3.81,2.51a1.3,1.3,0,0,0-.67,1.65q3.58,15.57,7.09,31.15c.08.37.19.72.28,1.08.37,0,.35-.25.4-.45q3.84-16,7.67-31.95a1.06,1.06,0,0,0-.54-1.38c-1.28-.76-2.51-1.63-4-2.58h12.79c-1.38.92-2.62,1.79-3.91,2.59a2.11,2.11,0,0,0-1,1.42q-4.83,19.5-9.69,39a6.37,6.37,0,0,0,.25,3.08q3.62,16.08,7.28,32.15,1.68,7.4,3.31,14.82a2.65,2.65,0,0,0,1.35,1.91c1.2.68,2.32,1.49,3.73,2.4H443c1.45-1,2.69-1.83,4-2.61a1.07,1.07,0,0,0,.57-1.37q-4-17.84-8-35.67c-.09-.39-.2-.79-.37-1.5C438.49,63,438,65,437.47,67c-2.6,10.14-5.18,20.29-7.83,30.41a1.63,1.63,0,0,0,.88,2.23c1.11.62,2.14,1.39,3.43,2.25H421.51a9.35,9.35,0,0,1,2.45-1.67,5.31,5.31,0,0,0,2.79-3.88q5.12-20.58,10.45-41.12a7.31,7.31,0,0,0-.27-3.52Q432.13,30,427.31,8.29a1.63,1.63,0,0,0-.82-1.12l-4-2.68Zm75,97.45h-17c1.43-1,2.59-1.79,3.81-2.51a1.9,1.9,0,0,0,1-1.9q0-11.79,0-23.58c0-1-.28-1.35-1.32-1.33-3.95.06-7.9,0-11.85,0-.93,0-1.15-.23-1-1.16q6.33-30.11,12.6-60.21c.43-2,.89-4,1.29-6,.11-.52.26-.82.85-.82,2.48,0,5,0,7.44,0,.86,0,.56.46.43.87q-1.68,5.43-3.38,10.86Q482.24,42.33,474.1,68.5c-.08.28-.13.57-.22.94h10.77c.83,0,.59-.63.59-1.06,0-5.15,0-10.3,0-15.46a2,2,0,0,1,1-2c2.24-1.37,4.42-2.82,6.64-4.24.36.42.21.85.21,1.24,0,6.76,0,13.53,0,20.3,0,1,.27,1.29,1.26,1.24,1.5-.09,3,0,4.51,0,.7,0,.91.23.89.91-.07,2.82.34,2.24-2.21,2.3-1.16,0-2.33,0-3.49,0-.64,0-.95.13-.95.87q0,12.28,0,24.59a1.27,1.27,0,0,0,.72,1.16c1.25.81,2.48,1.65,3.72,2.48A1.8,1.8,0,0,1,497.48,101.94ZM612.77,45.53c-.2-.1-.21-.29-.22-.48-.23-4.54-.58-9.06-1.12-13.57a78.93,78.93,0,0,0-4.11-18.4c-1.1-2.93-2.35-5.79-4.66-8a5.11,5.11,0,0,0-7.9.44,22.6,22.6,0,0,0-3.65,6.31,70.05,70.05,0,0,0-3.9,14.87,150.25,150.25,0,0,0-2,22.41,176.1,176.1,0,0,0,.87,22.38,129.71,129.71,0,0,0,2.77,17.2,32.09,32.09,0,0,0,4.74,11.24c2.88,4,6.78,4.13,9.93.35,2.83-3.41,4.22-7.51,5.38-11.68a118.58,118.58,0,0,0,3.65-25.9,4.79,4.79,0,0,0,.08-1.36V58.61a8.93,8.93,0,0,1,.12-2.25V49.82a8.64,8.64,0,0,1-.12-2.21c.06-.55-.13-1.1.12-1.63Zm-8.63,24c-.07,5-.17,9.91-.46,14.86-.24,4.18-.41,8.4-1.73,12.44a6.82,6.82,0,0,1-1.22,2.4,2.45,2.45,0,0,1-4.11-.07,8.18,8.18,0,0,1-1.41-3.76,81.21,81.21,0,0,1-1.14-11.64c-.39-9.72-.51-19.45-.44-29.18,0-4.51,0-9,0-13.54.09-6,.18-12.09.45-18.13a77.23,77.23,0,0,1,1.3-12.86,7.43,7.43,0,0,1,1.1-2.69,2.61,2.61,0,0,1,4.38-.31c1.29,1.44,1.61,3.29,1.92,5.09A102.52,102.52,0,0,1,604,25.84c.33,8.65.18,17.29.21,25.93,0,5.93,0,11.87-.07,17.8Zm-67.39-15.3a166,166,0,0,0-.9-19.28,93.29,93.29,0,0,0-3.42-18.77c-1.11-3.6-2.34-7.16-4.78-10.12-3.1-3.75-6.6-3.63-9.5.26-2.65,3.56-4,7.7-5.12,11.92-2.63,10-3.49,20.31-3.78,30.64a160.46,160.46,0,0,0,.82,21.59,128.09,128.09,0,0,0,2.76,17.76c1.07,4.32,2.41,8.54,5.2,12.12,2.53,3.27,6.07,3.48,9,.53a19.86,19.86,0,0,0,4.05-6.71c2.71-6.66,3.89-13.69,4.72-20.77a142.8,142.8,0,0,0,1-19.17Zm-8.43,6.48c-.06,7.14-.19,14.28-.47,21.41a66.46,66.46,0,0,1-1.5,13.62,9.35,9.35,0,0,1-1.4,3.3,2.5,2.5,0,0,1-4.38,0c-1.2-1.74-1.39-3.8-1.64-5.79-.65-5-.81-10.09-1-15.16-.29-7.82-.09-15.63-.13-23.45,0-6.61-.09-13.23,0-19.85.1-5.74.19-11.48.66-17.21a44.82,44.82,0,0,1,1.08-7.9,6.63,6.63,0,0,1,1-2.26c1.37-1.88,3.42-1.86,4.71.07A12.79,12.79,0,0,1,527,12.92,133.23,133.23,0,0,1,528.17,30C528.39,40.24,528.41,50.5,528.32,60.75Zm45-29.16a79.38,79.38,0,0,0-4.08-18.4c-1.13-3-2.39-5.94-4.78-8.2-2.23-2.09-4.63-2.2-7-.23S554,9.2,553,11.81c-3.19,7.92-4.34,16.28-5.19,24.69a142.74,142.74,0,0,0-.71,16.67,154.62,154.62,0,0,0,1.1,20.19,114.64,114.64,0,0,0,2.55,15.3,32.53,32.53,0,0,0,4.73,11.24c2.91,4.07,6.95,4.14,10.08.22,2.71-3.39,4.1-7.4,5.23-11.5,2.73-9.91,3.55-20.07,3.82-30.28a183.89,183.89,0,0,0-1.29-26.75ZM566,70.42c-.12,5.78-.13,11.57-.65,17.33-.3,3.28-.51,6.59-1.73,9.71a8.58,8.58,0,0,1-.35.83c-.59,1.1-1.32,2.09-2.72,2S558.3,99.2,557.8,98a21.38,21.38,0,0,1-1.2-5.82c-.8-7.47-.86-15-1-22.49-.1-5-.06-10-.1-15,0-4-.06-8.05,0-12.07.1-6.49.2-13,.46-19.48a78.64,78.64,0,0,1,1.29-13,7.43,7.43,0,0,1,1.22-2.88A2.56,2.56,0,0,1,562.64,7c1.38,1.44,1.71,3.33,2,5.16a102.63,102.63,0,0,1,1.21,13.44c.33,8.72.18,17.44.21,26.15C566.1,58,566.13,64.19,566,70.42ZM401.28,103.18c-7.76,0-14-22.39-14-50s7.38-50,15.14-50h0a6.16,6.16,0,0,1,5.22,2.39,27.44,27.44,0,0,1,2.08,3.26c.51-.36.6-.9.85-1.34.77-1.32,1.19-2.84,2.32-3.95.35.17.26.51.26.79V34.23a1.54,1.54,0,0,1-.07.27c-.37-.17-.34-.51-.41-.81-1.73-7-3.44-14.06-5.2-21.08a14.52,14.52,0,0,0-2.27-5c-1.56-2.15-3.77-2.09-5.24.14a16.91,16.91,0,0,0-2.17,6.81,141.17,141.17,0,0,0-1.43,16.81c-.51,12.06-.42,24.13-.34,36.19,0,5.18.2,10.37.45,15.55A58.18,58.18,0,0,0,398,95.36a10.91,10.91,0,0,0,1.56,3.6,2.67,2.67,0,0,0,4.34.39c1.53-1.48,1.86-3.47,2.22-5.43a41.08,41.08,0,0,0,.47-7.52q0-17.37,0-34.74a1.76,1.76,0,0,0-.94-1.72c-1.24-.76-2.43-1.6-3.94-2.6h4.78c2.33,0,4.66,0,7,0,.73,0,1.05.2.95,1a5.23,5.23,0,0,0,0,.56q0,26.4,0,52.8a2.12,2.12,0,0,1-.31,1.54l-4.61-13.24c-.39,2-.61,4-1.15,6-.62,2.23-1.43,4.38-3.31,5.89a5,5,0,0,1-3.73,1.16" fill="#efe464" stroke="#fff" stroke-linecap="round" stroke-linejoin="round" stroke-width="7"/><path d="M612.55,58.62c.09-.75-.24-1.54.22-2.26v2.26C612.7,58.72,612.62,58.72,612.55,58.62Z" fill="#f1e87a"/><path d="M612.77,49.81c-.44-.72-.15-1.5-.21-2.26.07-.1.14-.09.21,0Z" fill="#f5ed99"/><path d="M612.77,47.56h-.21c.07-.52-.25-1.1.21-1.57Z" fill="#f7f2ba"/><path d="M612.58,61.34l0-1.36c.07-.11.14-.11.21,0v1.35C612.71,61.42,612.65,61.42,612.58,61.34Z" fill="#f7f2b8"/><path d="M612.58,61.34l.19,0v1.36h-.19V61.34Z" fill="#fbf9e1"/><path d="M612.77,60h-.21V58.62h.22Z" fill="#f5ee9c"/><path d="M422.46,4.49h17.77c-1.41.93-2.59,1.76-3.81,2.51a1.3,1.3,0,0,0-.67,1.65q3.58,15.57,7.09,31.15c.08.37.19.72.28,1.08.37,0,.35-.25.4-.45q3.84-16,7.67-31.95a1.06,1.06,0,0,0-.54-1.38c-1.28-.76-2.51-1.63-4-2.58h12.79c-1.38.92-2.62,1.79-3.91,2.59a2.11,2.11,0,0,0-1,1.42q-4.83,19.5-9.69,39a6.37,6.37,0,0,0,.25,3.08q3.62,16.08,7.28,32.15,1.68,7.4,3.31,14.82a2.65,2.65,0,0,0,1.35,1.91c1.2.68,2.32,1.49,3.73,2.4H443c1.45-1,2.69-1.83,4-2.61a1.07,1.07,0,0,0,.57-1.37q-4-17.84-8-35.67c-.09-.39-.2-.79-.37-1.5C438.49,63,438,65,437.47,67c-2.6,10.14-5.18,20.29-7.83,30.41a1.63,1.63,0,0,0,.88,2.23c1.11.62,2.14,1.39,3.43,2.25H421.51a9.35,9.35,0,0,1,2.45-1.67,5.31,5.31,0,0,0,2.79-3.88q5.12-20.58,10.45-41.12a7.31,7.31,0,0,0-.27-3.52Q432.13,30,427.31,8.29a1.63,1.63,0,0,0-.82-1.12l-4-2.68Zm75,97.45h-17c1.43-1,2.59-1.79,3.81-2.51a1.9,1.9,0,0,0,1-1.9q0-11.79,0-23.58c0-1-.28-1.35-1.32-1.33-3.95.06-7.9,0-11.85,0-.93,0-1.15-.23-1-1.16q6.33-30.11,12.6-60.21c.43-2,.89-4,1.29-6,.11-.52.26-.82.85-.82,2.48,0,5,0,7.44,0,.86,0,.56.46.43.87q-1.68,5.43-3.38,10.86Q482.24,42.33,474.1,68.5c-.08.28-.13.57-.22.94h10.77c.83,0,.59-.63.59-1.06,0-5.15,0-10.3,0-15.46a2,2,0,0,1,1-2c2.24-1.37,4.42-2.82,6.64-4.24.36.42.21.85.21,1.24,0,6.76,0,13.53,0,20.3,0,1,.27,1.29,1.26,1.24,1.5-.09,3,0,4.51,0,.7,0,.91.23.89.91-.07,2.82.34,2.24-2.21,2.3-1.16,0-2.33,0-3.49,0-.64,0-.95.13-.95.87q0,12.28,0,24.59a1.27,1.27,0,0,0,.72,1.16c1.25.81,2.48,1.65,3.72,2.48A1.8,1.8,0,0,1,497.48,101.94ZM612.77,45.53c-.2-.1-.21-.29-.22-.48-.23-4.54-.58-9.06-1.12-13.57a78.93,78.93,0,0,0-4.11-18.4c-1.1-2.93-2.35-5.79-4.66-8a5.11,5.11,0,0,0-7.9.44,22.6,22.6,0,0,0-3.65,6.31,70.05,70.05,0,0,0-3.9,14.87,150.25,150.25,0,0,0-2,22.41,176.1,176.1,0,0,0,.87,22.38,129.71,129.71,0,0,0,2.77,17.2,32.09,32.09,0,0,0,4.74,11.24c2.88,4,6.78,4.13,9.93.35,2.83-3.41,4.22-7.51,5.38-11.68a118.58,118.58,0,0,0,3.65-25.9,4.79,4.79,0,0,0,.08-1.36V58.61a8.93,8.93,0,0,1,.12-2.25V49.82a8.64,8.64,0,0,1-.12-2.21c.06-.55-.13-1.1.12-1.63Zm-8.63,24c-.07,5-.17,9.91-.46,14.86-.24,4.18-.41,8.4-1.73,12.44a6.82,6.82,0,0,1-1.22,2.4,2.45,2.45,0,0,1-4.11-.07,8.18,8.18,0,0,1-1.41-3.76,81.21,81.21,0,0,1-1.14-11.64c-.39-9.72-.51-19.45-.44-29.18,0-4.51,0-9,0-13.54.09-6,.18-12.09.45-18.13a77.23,77.23,0,0,1,1.3-12.86,7.43,7.43,0,0,1,1.1-2.69,2.61,2.61,0,0,1,4.38-.31c1.29,1.44,1.61,3.29,1.92,5.09A102.52,102.52,0,0,1,604,25.84c.33,8.65.18,17.29.21,25.93,0,5.93,0,11.87-.07,17.8Zm-67.39-15.3a166,166,0,0,0-.9-19.28,93.29,93.29,0,0,0-3.42-18.77c-1.11-3.6-2.34-7.16-4.78-10.12-3.1-3.75-6.6-3.63-9.5.26-2.65,3.56-4,7.7-5.12,11.92-2.63,10-3.49,20.31-3.78,30.64a160.46,160.46,0,0,0,.82,21.59,128.09,128.09,0,0,0,2.76,17.76c1.07,4.32,2.41,8.54,5.2,12.12,2.53,3.27,6.07,3.48,9,.53a19.86,19.86,0,0,0,4.05-6.71c2.71-6.66,3.89-13.69,4.72-20.77a142.8,142.8,0,0,0,1-19.17Zm-8.43,6.48c-.06,7.14-.19,14.28-.47,21.41a66.46,66.46,0,0,1-1.5,13.62,9.35,9.35,0,0,1-1.4,3.3,2.5,2.5,0,0,1-4.38,0c-1.2-1.74-1.39-3.8-1.64-5.79-.65-5-.81-10.09-1-15.16-.29-7.82-.09-15.63-.13-23.45,0-6.61-.09-13.23,0-19.85.1-5.74.19-11.48.66-17.21a44.82,44.82,0,0,1,1.08-7.9,6.63,6.63,0,0,1,1-2.26c1.37-1.88,3.42-1.86,4.71.07A12.79,12.79,0,0,1,527,12.92,133.23,133.23,0,0,1,528.17,30C528.39,40.24,528.41,50.5,528.32,60.75Zm45-29.16a79.38,79.38,0,0,0-4.08-18.4c-1.13-3-2.39-5.94-4.78-8.2-2.23-2.09-4.63-2.2-7-.23S554,9.2,553,11.81c-3.19,7.92-4.34,16.28-5.19,24.69a142.74,142.74,0,0,0-.71,16.67,154.62,154.62,0,0,0,1.1,20.19,114.64,114.64,0,0,0,2.55,15.3,32.53,32.53,0,0,0,4.73,11.24c2.91,4.07,6.95,4.14,10.08.22,2.71-3.39,4.1-7.4,5.23-11.5,2.73-9.91,3.55-20.07,3.82-30.28a183.89,183.89,0,0,0-1.29-26.75ZM566,70.42c-.12,5.78-.13,11.57-.65,17.33-.3,3.28-.51,6.59-1.73,9.71a8.58,8.58,0,0,1-.35.83c-.59,1.1-1.32,2.09-2.72,2S558.3,99.2,557.8,98a21.38,21.38,0,0,1-1.2-5.82c-.8-7.47-.86-15-1-22.49-.1-5-.06-10-.1-15,0-4-.06-8.05,0-12.07.1-6.49.2-13,.46-19.48a78.64,78.64,0,0,1,1.29-13,7.43,7.43,0,0,1,1.22-2.88A2.56,2.56,0,0,1,562.64,7c1.38,1.44,1.71,3.33,2,5.16a102.63,102.63,0,0,1,1.21,13.44c.33,8.72.18,17.44.21,26.15C566.1,58,566.13,64.19,566,70.42ZM401.28,103.18c-7.76,0-14-22.39-14-50s7.38-50,15.14-50h0a6.16,6.16,0,0,1,5.22,2.39,27.44,27.44,0,0,1,2.08,3.26c.51-.36.6-.9.85-1.34.77-1.32,1.19-2.84,2.32-3.95.35.17.26.51.26.79V34.23a1.54,1.54,0,0,1-.07.27c-.37-.17-.34-.51-.41-.81-1.73-7-3.44-14.06-5.2-21.08a14.52,14.52,0,0,0-2.27-5c-1.56-2.15-3.77-2.09-5.24.14a16.91,16.91,0,0,0-2.17,6.81,141.17,141.17,0,0,0-1.43,16.81c-.51,12.06-.42,24.13-.34,36.19,0,5.18.2,10.37.45,15.55A58.18,58.18,0,0,0,398,95.36a10.91,10.91,0,0,0,1.56,3.6,2.67,2.67,0,0,0,4.34.39c1.53-1.48,1.86-3.47,2.22-5.43a41.08,41.08,0,0,0,.47-7.52q0-17.37,0-34.74a1.76,1.76,0,0,0-.94-1.72c-1.24-.76-2.43-1.6-3.94-2.6h4.78c2.33,0,4.66,0,7,0,.73,0,1.05.2.95,1a5.23,5.23,0,0,0,0,.56q0,26.4,0,52.8a2.12,2.12,0,0,1-.31,1.54l-4.61-13.24c-.39,2-.61,4-1.15,6-.62,2.23-1.43,4.38-3.31,5.89a5,5,0,0,1-3.73,1.16" fill="#efe464"/></g></svg>