<svg id="Layer_1" data-name="Layer 1" xmlns="http://www.w3.org/2000/svg" viewBox="0 0 105 105"><title>icon_empty</title><path d="M24.911,61.5836H74.73308l-24.911-43.41641Z" fill="#fff"/><path d="M49.82205,26.7082V18.1673l24.911,43.4164-7.47333-4.62629-17.4377-30.2491Z" fill="#fff"/><path d="M24.911,61.5836l7.47333-4.62629H67.25975l7.47333,4.62629Z" fill="#fff"/><path d="M0,105H49.82205L24.911,61.5836Z" fill="#fff"/><path d="M24.911,70.1245V61.5836L49.82205,105l-7.47333-4.62629L24.911,70.12461Z" fill="#fff"/><path d="M0,105l7.47333-4.62629H42.34872L49.82205,105Z" fill="#fff"/><path d="M49.82205,105H99.64411l-24.911-43.4164Z" fill="#fff"/><path d="M75.089,70.1245V61.5836L100,105l-7.47333-4.62629L75.089,70.12461Z" fill="#fff"/><path d="M49.82205,105l7.47333-4.62629h34.8754L99.64411,105Z" fill="#fff"/></svg>