<svg id="Layer_1" data-name="Layer 1" xmlns="http://www.w3.org/2000/svg" viewBox="0 0 1000 114"><path d="M926.9,110.5a4.19,4.19,0,0,1-3.27-1.5c-.4-.46-.61-.78-2.77-6.29-.64-1.64-4.07-10.44-4.26-10.91a6,6,0,0,1-2.31.46,6.52,6.52,0,0,1-3.33-1,6.64,6.64,0,0,1-3.18-5.91,7.25,7.25,0,0,1,.41-2c-.9-.39-2.1-.87-2.55-1a7.87,7.87,0,0,1-1.47-.55l-.46-.2-.73-.32c-.32-.1-.69-.23-1.3-.47l-.43-.15-.87-.34c-.29-.13-1.16-.47-1.93-.76s-2.7-1.07-4.12-1.64c-2.42-1-4-1.65-4.72-3.66a4.18,4.18,0,0,1,.93-4.49c1.35-1.5,1.35-1.5,14.45-1.5h10.08l10.87-11c3.43-3.45,6.17-6.21,8.13-8.21-1.53-.65-18.57-7.39-20.06-7.93a14.57,14.57,0,0,1-1.55-.61l-.14-.06c-.29-.15-.59-.27-.76-.34L911,40l-.29-.11-.24-.09-.29-.12-.39-.13-.06,0-.68-.26c-.51-.21-1.79-.74-2.37-1a4.92,4.92,0,0,1-1.56-.57,3.24,3.24,0,0,1-.32-.17l-.52-.21-1.8-.7c-2.51-1-3.72-1.54-4.72-2.58A6.74,6.74,0,0,1,896,29.57a6.85,6.85,0,0,1,3.13-5.4l.64-.39a3.52,3.52,0,0,1,1.84-.53h58.57l6.14-6.09c7.28-7.24,7.88-7.83,10.37-9.31a41,41,0,0,1,9.23-4h0a10.76,10.76,0,0,1,2.68-.29h.47a6.93,6.93,0,0,1,6.61,3.63c2.17,4.12-.46,10.48-2.21,13.9-2.22,4.31-3.3,5.52-10.73,13l-6,6V98.53a3.51,3.51,0,0,1-.59,1.94l-.43.65a6.47,6.47,0,0,1-5.37,2.88l-.6,0c-4-.35-5-3.13-6.51-7-1.32-3.39-2.26-5.81-3.08-7.88L959.32,87c-.57-1.42-1.85-4.73-2.9-7.46-2.38-6.11-4.16-10.66-5.36-13.71-2,2-4.9,4.85-8.42,8.37L931.53,85.26v9.79c0,12.55,0,12.55-1.21,13.92A4.6,4.6,0,0,1,926.9,110.5Z" fill="#333"/><path d="M989.07,7c1.87,0,2.85.51,3.52,1.77,1,1.93.17,6-2.23,10.66-2,3.8-2.67,4.64-10.1,12.12l-7,7.07V98.53l-.43.65a2.91,2.91,0,0,1-2.46,1.32h-.3c-1.57-.14-2-.71-3.55-4.74-1.8-4.66-2.91-7.48-3.93-10.08-.59-1.45-1.88-4.79-2.9-7.44-4-10.31-7.22-18.49-7.3-18.57h0c-.12,0-5.59,5.4-12.21,12L928,83.81V95.05c0,10.18,0,11.27-.33,11.6a1.09,1.09,0,0,1-.8.35.72.72,0,0,1-.59-.25c-.12-.13-1.1-2.52-2.19-5.32s-2.45-6.28-3-7.73-1.33-3.41-1.7-4.35c-.57-1.43-.76-1.74-1.31-2a1.37,1.37,0,0,0-.55-.19c-.24,0-.47.18-1.06.65a3.53,3.53,0,0,1-2.19,1,3,3,0,0,1-1.56-.49,3.08,3.08,0,0,1-1.45-2.68,3.37,3.37,0,0,1,1.13-2.38c.55-.59.57-.63.3-1.3a1.48,1.48,0,0,0-.9-.9,2.13,2.13,0,0,0-.52-.12c-.06,0-.09,0-.09,0s0,0,0,0-.08,0-.13-.1a31.83,31.83,0,0,0-4.62-1.94c-.11,0-.64-.26-1.19-.49s-1.06-.47-1.17-.51a9.74,9.74,0,0,1-1.22-.43l-.45-.16-.68-.27c-.32-.14-1.26-.51-2.06-.8l-4-1.61c-2.15-.88-2.57-1.11-2.72-1.56a.74.74,0,0,1,.17-.94c.36-.4.55-.4,11.9-.4h11.53l11.9-12c6.54-6.58,11.89-12,11.85-12a1.21,1.21,0,0,0-.43-.14,2.09,2.09,0,0,1-.4-.1s-.11-.06-.19-.1a3.46,3.46,0,0,1-.65-.23c-.27-.12-1-.41-1.56-.63s-1.26-.51-1.47-.6c-.75-.36-20.26-8.07-20.51-8.11a12.15,12.15,0,0,1-1.22-.49c-.53-.25-1.06-.47-1.17-.5s-.45-.16-.79-.28a4.8,4.8,0,0,0-.78-.29c-.1,0-.45-.16-.74-.28a21.12,21.12,0,0,0-3.09-1.18h0a2.9,2.9,0,0,1-.52-.24c-.28-.15-.53-.29-.59-.31a2.19,2.19,0,0,1-.49-.18c-.21-.07-1.06-.41-1.86-.72-2.23-.86-3-1.25-3.46-1.74a3.24,3.24,0,0,1-.84-2.06,3.43,3.43,0,0,1,1.44-2.4l.67-.42h60l7.17-7.1c7.26-7.22,7.61-7.56,9.69-8.79a38,38,0,0,1,8.1-3.62,1.58,1.58,0,0,0,.55-.14s.78-.06,1.66-.1h.32m0-7h-.63a15.72,15.72,0,0,0-3.26.36c-2.75.54-7.85,3-10.35,4.49-2.84,1.69-3.61,2.46-11,9.83l-5.11,5.06H901.57a7,7,0,0,0-3.68,1.05l-.65.4a10.33,10.33,0,0,0-4.78,8.37,10.28,10.28,0,0,0,2.71,6.82l.08.09c1.57,1.64,3.47,2.45,6,3.42l.73.29,1,.38.38.16.23.12a8.78,8.78,0,0,0,2.16.81l1.94.8.09,0c.27.11.58.22.81.3l.06,0c.13.06.27.1.41.15h0a3.85,3.85,0,0,0,.47.19l.26.1.54.19a5,5,0,0,1,.46.2l.27.13c.77.32,1.31.56,1.85.73,1.47.55,9.55,3.73,15,5.88l-4.42,4.45-9.85,9.93H905c-5.77,0-8.67,0-10.3.06a8.75,8.75,0,0,0-6.75,2.6,7.68,7.68,0,0,0-1.62,8c1.24,3.47,4.12,4.65,6.67,5.69l4.12,1.65.14,0c.72.26,1.49.57,1.66.64l.13.06c.62.26.87.35,1,.41l.43.14c.48.19.9.35,1.3.47l.4.19.28.12.28.12a12.64,12.64,0,0,0,1.53.6,10.11,10.11,0,0,0,10,10.16h.1l.2.49L915.67,99l1.93,5c2.38,6.08,2.6,6.4,3.35,7.28A7.72,7.72,0,0,0,926.9,114a8.1,8.1,0,0,0,6-2.65l.06-.06c1.9-2.15,2-4.59,2-6.54,0-1.71.06-4.61.06-9.7V86.71l10.09-10.08L949.75,72l3.41,8.76c1.17,3,2.33,6,2.92,7.49l.83,2.12c.81,2.07,1.76,4.49,3.08,7.9,1.55,4,3.31,8.64,9.46,9.18.31,0,.61,0,.91,0a9.9,9.9,0,0,0,8.21-4.33l.07-.11.43-.65a7,7,0,0,0,1.18-3.88v-57l5-5c7.65-7.7,8.91-9.11,11.35-13.84,2.53-4.93,4.95-11.89,2.2-17.13C997.45,3,994.69,0,989.07,0Z" fill="#fff"/><path d="M987.09,7.1a1.58,1.58,0,0,1-.55.14,38,38,0,0,0-8.1,3.62c-2.08,1.23-2.43,1.57-9.69,8.79l-7.17,7.1h-60l-.67.42a3.43,3.43,0,0,0-1.44,2.4,3.24,3.24,0,0,0,.84,2.06c.47.49,1.23.88,3.46,1.74.8.31,1.65.65,1.86.72a2.19,2.19,0,0,0,.49.18c.06,0,.31.16.59.31a2.28,2.28,0,0,0,.53.24c.09-.06.68.16,3.13,1.17.29.12.64.24.74.28a4.8,4.8,0,0,1,.78.29c.34.12.69.26.79.28s.64.25,1.17.5a12.15,12.15,0,0,0,1.22.49c.25,0,19.76,7.75,20.51,8.11.21.09.88.37,1.47.6s1.29.51,1.56.63a3.46,3.46,0,0,0,.65.23c.08,0,.16.06.19.1a2.09,2.09,0,0,0,.4.1,1.21,1.21,0,0,1,.43.14s-5.31,5.46-11.85,12l-11.9,12H905c-11.35,0-11.54,0-11.9.4a.74.74,0,0,0-.17.94c.15.45.57.68,2.72,1.56l4,1.61c.8.29,1.74.66,2.06.8l.68.27.45.16a9.74,9.74,0,0,0,1.22.43c.11,0,.64.25,1.17.51s1.08.47,1.19.49A31.83,31.83,0,0,1,911,80.88c.08.09.16.13.16.05s.27,0,.61.08a1.48,1.48,0,0,1,.9.9c.27.67.25.71-.3,1.3a3.37,3.37,0,0,0-1.13,2.38,3.08,3.08,0,0,0,1.45,2.68c1.31.77,2.36.65,3.75-.46,1-.77,1-.77,1.61-.46s.74.57,1.31,2c.37.94,1.14,2.9,1.7,4.35s1.92,4.93,3,7.73,2.07,5.19,2.19,5.32a1,1,0,0,0,1.39-.1c.29-.33.33-1.42.33-11.6V83.81l12.14-12.13c6.65-6.66,12.15-12.08,12.21-12s3.29,8.26,7.3,18.57c1,2.65,2.31,6,2.9,7.44,1,2.6,2.13,5.42,3.93,10.08,1.55,4,2,4.6,3.55,4.74a2.91,2.91,0,0,0,2.76-1.31l.43-.65V38.62l7-7.07c7.43-7.48,8.14-8.32,10.1-12.12,2.4-4.69,3.24-8.73,2.23-10.66C991.88,7.44,990.83,7,988.75,7,987.87,7,987.11,7.08,987.09,7.1Z" fill="#333"/></svg>