<svg xmlns="http://www.w3.org/2000/svg" viewBox="0 0 1000 114.00003"><title>logo</title><g id="Layer_2" data-name="Layer 2"><rect x="338.0761" y="50.43441" width="60.47833" height="35.17153" fill="#fff"/><rect x="430.35492" y="44.80927" width="44.94552" height="24.81706" fill="#fff"/><rect x="603.58376" y="24.22865" width="55.83013" height="26.20576" fill="#fff"/><rect x="545.07822" y="31.24249" width="49.30014" height="64.64646" fill="#fff"/><rect x="529.07822" y="17.53382" width="106.97144" height="62.63256" fill="#fff"/></g><g id="Calque_1" data-name="Calque 1"><path d="M328.98518,19.963v3.70368l-4.71382-1.85187,4.71382-1.85181m-.00056-7a6.995,6.995,0,0,0-2.55893.48474l-4.71382,1.85181a7,7,0,0,0-.00009,13.03055l4.71381,1.85187a7,7,0,0,0,9.55958-6.51526V19.963a7.00006,7.00006,0,0,0-7.00055-7Z" fill="#fff"/><rect x="359.90656" y="14.03384" width="15.36865" height="20.38965" rx="3.5" fill="#999"/><path d="M371.77509,17.53378V30.92349h-8.36853V17.53378h8.36853m0-7h-8.36853a7,7,0,0,0-7,7V30.92349a7,7,0,0,0,7,7h8.36853a7,7,0,0,0,7-7V17.53378a7,7,0,0,0-7-7Z" fill="#fff"/><path d="M343.32209,19.36a3.49986,3.49986,0,0,1-3.5-3.5V10.839a3.49985,3.49985,0,0,1,3.5-3.5h46.86377c1.60644,0,6.84765.61426,6.84765,8.521a3.49986,3.49986,0,0,1-3.5,3.5Z" fill="#999"/><path d="M390.18592,10.839q3.34888,0,3.34739,5.02112H343.322V10.839h46.86388m0-7H343.322a7,7,0,0,0-7,7v5.02112a7,7,0,0,0,7,7h50.21127a7,7,0,0,0,7-7c0-8.30408-5.19694-12.02112-10.34739-12.02112Z" fill="#fff"/><rect x="339.82209" y="14.03384" width="15.36865" height="20.38965" rx="3.5" fill="#999"/><path d="M351.69062,17.53378V30.92349H343.322V17.53378h8.36859m0-7H343.322a7,7,0,0,0-7,7V30.92349a7,7,0,0,0,7,7h8.36859a7,7,0,0,0,7-7V17.53378a7,7,0,0,0-7-7Z" fill="#fff"/><rect x="381.66486" y="14.03384" width="15.36865" height="20.38965" rx="3.5" fill="#999"/><path d="M393.53333,17.53378V30.92349h-8.36859V17.53378h8.36859m0-7h-8.36859a7,7,0,0,0-7,7V30.92349a7,7,0,0,0,7,7h8.36859a7,7,0,0,0,7-7V17.53378a7,7,0,0,0-7-7Z" fill="#fff"/><path d="M401.90168,34.42349c-1.60645,0-6.84717-.61426-6.84717-8.521V17.53384a3.49986,3.49986,0,0,1,3.5-3.5h8.36865a3.49815,3.49815,0,0,1,2.98633,1.67383H428.681a3.49986,3.49986,0,0,1,3.5,3.5v3.7085a3.4981,3.4981,0,0,1,1.67383,2.98633v5.021a3.49985,3.49985,0,0,1-3.5,3.5Z" fill="#999"/><path d="M406.923,17.53378a1.479,1.479,0,0,0,1.6737,1.67371h20.08455v5.02112H406.923a1.479,1.479,0,0,0,1.6737,1.67376h21.75823v5.02112H401.90186q-3.34892,0-3.3474-5.02112V17.53378H406.923m0-7h-8.36852a7,7,0,0,0-7,7v8.36859c0,8.30408,5.19693,12.02112,10.3474,12.02112h28.45305a7,7,0,0,0,7-7V25.90237a6.97279,6.97279,0,0,0-1.67368-4.54229V19.20749a7,7,0,0,0-7-7h-17.216a6.97279,6.97279,0,0,0-4.54229-1.67371Z" fill="#fff"/><rect x="395.05451" y="7.33902" width="38.80029" height="12.021" rx="3.5" fill="#999"/><path d="M430.35491,10.839v5.02112H398.55446V10.839h31.80045m0-7H398.55446a7,7,0,0,0-7,7v5.02112a7,7,0,0,0,7,7h31.80045a7,7,0,0,0,7-7V10.839a7,7,0,0,0-7-7Z" fill="#fff"/><path d="M435.37629,19.36a3.49986,3.49986,0,0,1-3.5-3.5c0-7.90674,5.24072-8.521,6.84716-8.521h31.8003a3.49986,3.49986,0,0,1,3.5,3.5V15.86a3.49987,3.49987,0,0,1-3.5,3.5Z" fill="#999"/><path d="M470.52393,10.839v5.02112H435.37606q0-5.02113,3.34741-5.02112h31.80046m0-7H438.72347c-5.15047,0-10.34741,3.717-10.34741,12.02112a7,7,0,0,0,7,7h35.14787a7,7,0,0,0,7-7V10.839a7,7,0,0,0-7-7Z" fill="#fff"/><path d="M438.72345,34.42349c-1.60644,0-6.84716-.61426-6.84716-8.521V17.53384a3.49986,3.49986,0,0,1,3.5-3.5h8.36816a3.49986,3.49986,0,0,1,3.5,3.5V22.4025h1.36865V19.20767a3.49987,3.49987,0,0,1,3.5-3.5h15.06348c5.25586,0,8.521,3.26514,8.521,8.521V25.9025c0,7.90673-5.24072,8.521-6.84716,8.521Z" fill="#999"/><path d="M443.74457,17.53378v8.36859h16.73706c1.11481,0,1.67371-.28094,1.67371-.83685s-.5589-.83691-1.67371-.83691H452.1131V19.20749h15.06342q5.02112,0,5.02112,5.02112v1.67376q0,5.02113-3.34742,5.02112H438.72345q-3.34893,0-3.34741-5.02112V17.53378h8.36853m0-7H435.376a7,7,0,0,0-7,7v8.36859c0,8.30408,5.197,12.02112,10.34741,12.02112h30.12677c5.15046,0,10.34742-3.717,10.34742-12.02112V24.22861c0-7.19022-4.83091-12.02112-12.02112-12.02112H452.1131a6.9723,6.9723,0,0,0-3.097.72061,6.98363,6.98363,0,0,0-5.27155-2.39432Z" fill="#fff"/><path d="M477.21857,19.36a3.49987,3.49987,0,0,1-3.5-3.5c0-7.90674,5.24121-8.521,6.84766-8.521h28.45263c1.60645,0,6.84766.61426,6.84766,8.521a3.50017,3.50017,0,0,1-3.5,3.5Z" fill="#999"/><path d="M509.01923,10.839q3.3489,0,3.34741,5.02112H477.21875q0-5.02113,3.34742-5.02112h28.45306m0-7H480.56617c-5.15046,0-10.34742,3.717-10.34742,12.02112a7,7,0,0,0,7,7h35.14789a7,7,0,0,0,7-7c0-8.30408-5.197-12.02112-10.34741-12.02112Z" fill="#fff"/><path d="M503.99836,34.42349a3.49984,3.49984,0,0,1-3.49659-3.34717H487.26105a3.49986,3.49986,0,0,1-3.5-3.5V22.55484a3.49986,3.49986,0,0,1,3.5-3.5h13.23731v-1.521a3.50017,3.50017,0,0,1,3.5-3.5h8.36816a3.50017,3.50017,0,0,1,3.5,3.5V30.92349a3.50017,3.50017,0,0,1-3.5,3.5Z" fill="#999"/><path d="M512.36664,17.53378V30.92349h-8.36853V27.57608H487.261V22.5549h16.73712V17.53378h8.36853m0-7h-8.36853a7.00343,7.00343,0,0,0-6.71637,5.02112H487.261a7,7,0,0,0-7,7v5.02118a7,7,0,0,0,7,7h10.76447a6.9963,6.9963,0,0,0,5.97265,3.34741h8.36853a7,7,0,0,0,7-7V17.53378a7,7,0,0,0-7-7Z" fill="#fff"/><rect x="473.71857" y="14.03384" width="15.36865" height="20.38965" rx="3.5" fill="#999"/><path d="M485.58728,17.53378V30.92349h-8.36853V17.53378h8.36853m0-7h-8.36853a7,7,0,0,0-7,7V30.92349a7,7,0,0,0,7,7h8.36853a7,7,0,0,0,7-7V17.53378a7,7,0,0,0-7-7Z" fill="#fff"/><rect x="513.888" y="14.03384" width="15.36816" height="20.38965" rx="3.5" fill="#999"/><path d="M525.75629,17.53378V30.92349h-8.36853V17.53378h8.36853m0-7h-8.36853a7,7,0,0,0-7,7V30.92349a7,7,0,0,0,7,7h8.36853a7,7,0,0,0,7-7V17.53378a7,7,0,0,0-7-7Z" fill="#fff"/><path d="M527.43,34.42349a3.50017,3.50017,0,0,1-3.5-3.5v-5.021a3.50017,3.50017,0,0,1,3.5-3.5h13.2373V17.53384a3.50017,3.50017,0,0,1,3.5-3.5h8.36817a3.50018,3.50018,0,0,1,3.5,3.5V25.9025c0,7.90673-5.24122,8.521-6.84766,8.521Z" fill="#999"/><path d="M552.53565,17.53378v8.36859q0,5.02113-3.34741,5.02112H527.43V25.90237h16.73712V17.53378h8.36853m0-7h-8.36853a7,7,0,0,0-7,7v1.36859H527.43a7,7,0,0,0-7,7v5.02112a7,7,0,0,0,7,7h21.75824c5.15045,0,10.34741-3.717,10.34741-12.02112V17.53378a7,7,0,0,0-7-7Z" fill="#fff"/><path d="M517.388,19.36a3.50018,3.50018,0,0,1-3.5-3.5V10.839a3.50017,3.50017,0,0,1,3.5-3.5h31.79981c1.60644,0,6.84766.61426,6.84766,8.521a3.50018,3.50018,0,0,1-3.5,3.5Z" fill="#999"/><path d="M549.18824,10.839q3.3489,0,3.34741,5.02112H517.38776V10.839h31.80048m0-7H517.38776a7,7,0,0,0-7,7v5.02112a7,7,0,0,0,7,7h35.14789a7,7,0,0,0,7-7c0-8.30408-5.197-12.02112-10.34741-12.02112Z" fill="#fff"/><path d="M586.01007,34.42349a3.50179,3.50179,0,0,1-1.9414-.58789L579.929,31.07632H567.59894a3.50017,3.50017,0,0,1-3.5-3.5V22.55484a3.50017,3.50017,0,0,1,3.5-3.5h13.23731v-1.521a3.50017,3.50017,0,0,1,3.5-3.5h8.36816a3.50017,3.50017,0,0,1,3.5,3.5v5.021a11.34491,11.34491,0,0,1-.89551,4.78223l1.01074.67431a3.5,3.5,0,0,1-1.9414,6.41211Z" fill="#999"/><path d="M592.70465,17.53378V22.5549q0,5.02121-3.34741,5.02118l5.02112,3.34741h-8.36853l-5.02112-3.34741H567.599V22.5549h15.06342a1.479,1.479,0,0,0,1.6737-1.6737V17.53378h8.36853m0-7h-8.36853a7.00344,7.00344,0,0,0-6.71637,5.02112H567.599a7,7,0,0,0-7,7v5.02118a7,7,0,0,0,7,7h11.27027l3.25766,2.17175a6.99982,6.99982,0,0,0,3.8829,1.17566h8.36853a7.00042,7.00042,0,0,0,4.98773-11.91217,16.85733,16.85733,0,0,0,.33856-3.45642V17.53378a7,7,0,0,0-7-7Z" fill="#fff"/><rect x="554.05695" y="14.03384" width="15.36816" height="20.38965" rx="3.5" fill="#999"/><path d="M565.9253,17.53378V30.92349h-8.36853V17.53378h8.36853m0-7h-8.36853a7,7,0,0,0-7,7V30.92349a7,7,0,0,0,7,7h8.36853a7,7,0,0,0,7-7V17.53378a7,7,0,0,0-7-7Z" fill="#fff"/><path d="M557.557,19.36a3.50017,3.50017,0,0,1-3.5-3.5c0-7.90674,5.24121-8.521,6.84765-8.521h28.45313c1.60645,0,6.84668.61426,6.84668,8.521a3.50017,3.50017,0,0,1-3.5,3.5Z" fill="#999"/><path d="M589.35724,10.839q3.34891,0,3.34741,5.02112H557.55677q0-5.02113,3.34741-5.02112h28.45306m0-7H560.90418c-5.15045,0-10.34741,3.717-10.34741,12.02112a7,7,0,0,0,7,7h35.14788a7,7,0,0,0,7-7c0-8.30408-5.197-12.02112-10.34741-12.02112Z" fill="#fff"/><rect x="595.89972" y="7.33902" width="15.36816" height="27.08447" rx="3.5" fill="#999"/><path d="M607.768,10.839V30.92349h-8.36853V10.839H607.768m0-7h-8.36853a7,7,0,0,0-7,7V30.92349a7,7,0,0,0,7,7H607.768a7,7,0,0,0,7-7V10.839a7,7,0,0,0-7-7Z" fill="#fff"/><path d="M641.00324,19.36a3.49992,3.49992,0,0,1-2.91211-5.44141l3.34766-5.021a3.50085,3.50085,0,0,1,2.9121-1.55859h10.042a3.49993,3.49993,0,0,1,2.91211,5.44141l-3.34766,5.021a3.50088,3.50088,0,0,1-2.91211,1.5586Z" fill="#999"/><path d="M654.39277,10.839h.005m-.005,0-3.34742,5.02112H641.00312l3.34741-5.02112h10.04224m.005-7H644.35053a7,7,0,0,0-5.82437,3.11709l-3.34738,5.02112a7,7,0,0,0,5.82434,10.88291h10.04223a7,7,0,0,0,5.82437-3.1171l3.25571-4.88357A6.99988,6.99988,0,0,0,654.39777,3.839Zm-.005,14h0Z" fill="#fff"/><path d="M617.80988,19.36a3.4996,3.4996,0,0,1-2.91211-1.5586l-3.34668-5.021A3.49971,3.49971,0,0,1,614.4632,7.339h10.042a3.50087,3.50087,0,0,1,2.91211,1.55859l3.34766,5.021A3.49992,3.49992,0,0,1,627.85285,19.36Z" fill="#999"/><path d="M624.50513,10.839l3.34741,5.02112H617.81031L614.46283,10.839h10.0423m0-7h-10.0423a7,7,0,0,0-5.82431,10.883L611.986,19.743a7,7,0,0,0,5.82431,3.117h10.04223a7,7,0,0,0,5.82434-10.88291l-3.34741-5.02112A7,7,0,0,0,624.50513,3.839Z" fill="#fff"/><path d="M627.85285,34.42349a3.49916,3.49916,0,0,1-2.96778-1.645l-8.36914-13.38965a3.49955,3.49955,0,0,1,2.96778-5.355h10.043a3.49917,3.49917,0,0,1,2.96777,1.645l2.05273,3.28467,2.05371-3.28467a3.49918,3.49918,0,0,1,2.96778-1.645h10.042a3.49955,3.49955,0,0,1,2.96777,5.355l-8.36816,13.38965a3.49914,3.49914,0,0,1-2.96777,1.645Z" fill="#999"/><path d="M649.61072,17.53378l-8.36853,13.38971H627.85254L619.484,17.53378h10.04224l5.02112,8.03382,5.02112-8.03382h10.04223m0-7H639.56849a7,7,0,0,0-5.02112,2.12247,7,7,0,0,0-5.02112-2.12247H619.484a7,7,0,0,0-5.936,10.71l8.36853,13.38971a7,7,0,0,0,5.936,3.29h13.38965a7,7,0,0,0,5.936-3.29l8.36853-13.38971a7,7,0,0,0-5.936-10.71Zm0,14h0Z" fill="#fff"/><rect x="655.91437" y="7.33902" width="38.7998" height="12.021" rx="3.5" fill="#999"/><path d="M691.21436,10.839v5.02112H659.41388V10.839h31.80048m0-7H659.41388a7,7,0,0,0-7,7v5.02112a7,7,0,0,0,7,7h31.80048a7,7,0,0,0,7-7V10.839a7,7,0,0,0-7-7Z" fill="#fff"/><path d="M662.76105,34.42349c-1.60646,0-6.84668-.61426-6.84668-8.521V17.53384a3.50017,3.50017,0,0,1,3.5-3.5h8.36817a3.49812,3.49812,0,0,1,2.98632,1.67383h18.77149a3.50017,3.50017,0,0,1,3.5,3.5v3.7085a3.49813,3.49813,0,0,1,1.67383,2.98633v5.021a3.50017,3.50017,0,0,1-3.5,3.5Z" fill="#999"/><path d="M667.78241,17.53378a1.479,1.479,0,0,0,1.67377,1.67371h20.08447v5.02112H667.78241a1.479,1.479,0,0,0,1.67377,1.67376h21.75818v5.02112H662.7613q-3.34892,0-3.34742-5.02112V17.53378h8.36853m0-7h-8.36853a7,7,0,0,0-7,7v8.36859c0,8.30408,5.197,12.02112,10.34742,12.02112h28.45306a7,7,0,0,0,7-7V25.90237a6.97265,6.97265,0,0,0-1.67371-4.54229V19.20749a7,7,0,0,0-7-7H672.32471a6.97288,6.97288,0,0,0-4.5423-1.67371Z" fill="#fff"/><path d="M343.32209,56.46841a3.49985,3.49985,0,0,1-3.5-3.5V36.65005a3.49986,3.49986,0,0,1,3.5-3.5h85.57714c11.79493,0,18.291,7.03809,18.291,19.81836a3.49985,3.49985,0,0,1-3.5,3.5Z" fill="#999"/><path d="M428.89905,36.64993q14.7896,0,14.79108,16.31867H343.322V36.64993h85.577m0-7H343.322a7,7,0,0,0-7,7V52.9686a7,7,0,0,0,7,7h100.3681a7,7,0,0,0,7-7c0-14.81934-7.94255-23.31867-21.79108-23.31867Z" fill="#fff"/><path d="M343.32209,105.425a3.50017,3.50017,0,0,1-3.5-3.5V85.60562a3.50017,3.50017,0,0,1,3.5-3.5h18.21582a3.48236,3.48236,0,0,1-.58594-1.93945V63.84781a3.50017,3.50017,0,0,1,3.5-3.5H410.9383c2.83935,0,2.83935-.77149,2.83935-1.93945a3.49986,3.49986,0,0,1,3.5-3.5h26.4126a3.49985,3.49985,0,0,1,3.5,3.5V85.60562c0,12.78027-6.49609,19.81934-18.291,19.81934Zm71.0332-21.46582" fill="#999"/><path d="M443.69013,58.40817V85.60593q0,16.31864-14.79108,16.31866H343.322V85.60593h68.67289q5.28107,0,5.28253-2.71979,0-2.71674-5.28253-2.71979H364.45217V63.84769h46.48626q6.339,0,6.339-5.43952h26.41268m0-7H417.27745a7.00249,7.00249,0,0,0-6.8254,5.43952H364.45217a7,7,0,0,0-7,7V78.60593H343.322a7,7,0,0,0-7,7v16.31866a7,7,0,0,0,7,7h85.577c13.84853,0,21.79108-8.49933,21.79108-23.31866V58.40817a7,7,0,0,0-7-7ZM411.788,56.77753l0,0,0,0Zm1.3963,21.74676-.00007,0,.00007,0Zm0,8.7237Z" fill="#fff"/><path d="M454.25519,105.425a3.50018,3.50018,0,0,1-3.5-3.5V80.16617c0-12.78028,6.8711-19.81836,19.34766-19.81836H522.928c1.41309,0,1.78223-.07715,1.78223-1.93945a3.50017,3.50017,0,0,1,3.5-3.5h26.41309a3.50017,3.50017,0,0,1,3.5,3.5v5.43945c0,9.27637-3.62012,15.52734-10.376,18.25781h6.876a3.50049,3.50049,0,0,1,3.5,3.5V101.925a3.5005,3.5005,0,0,1-3.5,3.5Z" fill="#999"/><path d="M554.62323,58.40817v5.43952q0,16.31873-15.84759,16.31866H480.66779q-5.281,0-5.28247,5.43958h79.23791v16.31866H454.25518V80.16635q0-16.31863,15.84761-16.31866H522.928q5.28114,0,5.28254-5.43952h26.41265m0-7H528.21058a7.00251,7.00251,0,0,0-6.82544,5.43952H470.10279c-14.52,0-22.84761,8.49929-22.84761,23.31866v21.75824a7,7,0,0,0,7,7H554.62323a7,7,0,0,0,7-7V85.60593a7.00246,7.00246,0,0,0-4.33453-6.47464c2.83557-3.84583,4.33453-8.99552,4.33453-15.2836V58.40817a7,7,0,0,0-7-7Z" fill="#fff"/><path d="M454.25519,56.46841a3.49986,3.49986,0,0,1-3.5-3.5V36.65005a3.49987,3.49987,0,0,1,3.5-3.5H538.7757c12.47656,0,19.34766,7.03809,19.34766,19.81836a3.50017,3.50017,0,0,1-3.5,3.5Z" fill="#999"/><path d="M538.77564,36.64993q15.84759,0,15.84759,16.31867H454.25518V36.64993h84.52046m0-7H454.25518a7,7,0,0,0-7,7V52.9686a7,7,0,0,0,7,7H554.62323a7,7,0,0,0,7-7c0-14.81934-8.32763-23.31867-22.84759-23.31867Z" fill="#fff"/><path d="M636.05011,56.46841a3.4999,3.4999,0,0,1-1.998-6.37353l23.46875-16.31836a3.50268,3.50268,0,0,1,1.998-.62647h31.69532a3.5,3.5,0,0,1,1.99414,6.37647L669.66339,55.84488a3.4986,3.4986,0,0,1-1.99414.62353Z" fill="#999"/><path d="M691.21436,36.64993h.005m-.005,0-23.545,16.31867H636.04969l23.46948-16.31867h31.69519m.005-7H659.51917a7,7,0,0,0-3.99616,1.25275L632.05353,47.22137a7,7,0,0,0,3.99616,12.74723h31.61969a7,7,0,0,0,3.98751-1.24674l23.4401-16.246a6.99984,6.99984,0,0,0-3.87763-12.826Zm-.005,14h0Z" fill="#fff"/><path d="M588.73371,56.46841a3.4986,3.4986,0,0,1-1.99414-.62353l-23.5459-16.31836a3.5,3.5,0,0,1,1.99414-6.37647h31.69531a3.50271,3.50271,0,0,1,1.99805.62647l23.46972,16.31836a3.4999,3.4999,0,0,1-1.998,6.37353Z" fill="#999"/><path d="M596.88349,36.64993,620.353,52.9686H588.73328l-23.545-16.31867h31.69519m0-7H565.1883a7,7,0,0,0-3.98749,12.75327l23.545,16.31866a6.99991,6.99991,0,0,0,3.98749,1.24674H620.353a7,7,0,0,0,3.99613-12.74723L600.87964,30.90268a7,7,0,0,0-3.99615-1.25275Z" fill="#fff"/><path d="M659.21711,105.425a3.49586,3.49586,0,0,1-1.99512-.625L628.20148,84.66031,599.18,104.8a3.49586,3.49586,0,0,1-1.99512.625H565.49054a3.49993,3.49993,0,0,1-1.99707-6.374l42.72559-29.68554-11.63477-8.083a3.49986,3.49986,0,0,1,1.99707-6.374h63.23926a3.49985,3.49985,0,0,1,1.99707,6.374l-11.63476,8.083,42.72656,29.68554a3.49993,3.49993,0,0,1-1.99707,6.374Z" fill="#999"/><path d="M659.82105,58.40817h.005m-.005,0L644.04889,69.365l46.86362,32.55963H659.21735l-31.016-21.52508-31.01605,21.52508H565.49015L612.35376,69.365,596.58161,58.40817h63.23944m.005-7H596.58161a7,7,0,0,0-3.99375,12.74893l7.49714,5.2082L561.4961,96.17587a7,7,0,0,0,3.99405,12.74872h31.69516a7.00009,7.00009,0,0,0,3.991-1.24921l27.025-18.75531,27.025,18.75531a7.00015,7.00015,0,0,0,3.991,1.24921h31.69516a7,7,0,0,0,3.99405-12.74872L656.31766,69.3653,663.71,64.22989a6.99984,6.99984,0,0,0-3.884-12.82172Zm-.005,14h0Z" fill="#fff"/><path d="M328.98517,110.50015a3.50075,3.50075,0,0,1-3.26269-2.23047,13.11518,13.11518,0,0,1-16.57813-1.59863,12.0804,12.0804,0,0,1-3.86133-8.76172V84.7775a3.50017,3.50017,0,0,1,3.5-3.5h4.04053a3.50017,3.50017,0,0,1,3.5,3.5V96.89859a2.41008,2.41008,0,0,0,.61133,1.93945,2.00822,2.00822,0,0,0,2.894.0127,2.44458,2.44458,0,0,0,.606-1.95215V94.87906a8.43783,8.43783,0,0,1,2.3584-6.19727,8.03013,8.03013,0,0,1,11.34375-.01562,8.4144,8.4144,0,0,1,2.38867,6.21289v12.12109a3.50017,3.50017,0,0,1-3.5,3.5Z" fill="#2b3990"/><path d="M312.82354,84.7778V96.899a5.94505,5.94505,0,0,0,1.64986,4.42761,5.50894,5.50894,0,0,0,7.82958,0A5.98524,5.98524,0,0,0,323.9347,96.899V94.87881a5.02328,5.02328,0,0,1,1.33124-3.72052,4.53019,4.53019,0,0,1,6.41284,0,4.98979,4.98979,0,0,1,1.3468,3.72052V107h-4.0404V94.87881q0-1.0101-.505-1.01007t-.50506,1.01007v3.03034a8.69079,8.69079,0,0,1-2.81274,6.27948,9.57008,9.57008,0,0,1-13.5509,0,8.66934,8.66934,0,0,1-2.82832-6.27948V84.7778h4.0404m0-7h-4.0404a7,7,0,0,0-7,7V97.90915a15.66412,15.66412,0,0,0,4.89386,11.24448A16.29,16.29,0,0,0,318.37916,114a16.49957,16.49957,0,0,0,6.52909-1.30911A6.96854,6.96854,0,0,0,328.98518,114h4.0404a7,7,0,0,0,7-7V94.87881a11.833,11.833,0,0,0-3.42948-8.70248,11.53,11.53,0,0,0-16.28348.0358c-.16052.16028-.32437.33392-.48908.5213V84.7778a7,7,0,0,0-7-7Z" fill="#fff"/><path d="M334.03547,110.50015a3.50017,3.50017,0,0,1-3.5-3.5V94.87906a2.41063,2.41063,0,0,0-.61084-1.93945,2.01046,2.01046,0,0,0-2.895-.01172,2.51248,2.51248,0,0,0-.605,1.95117v2.01953a8.44224,8.44224,0,0,1-2.35938,6.19824,8.02953,8.02953,0,0,1-11.34424.0127,8.40594,8.40594,0,0,1-2.3872-6.21094V84.7775a3.50017,3.50017,0,0,1,3.5-3.5h4.04052A3.50076,3.50076,0,0,1,321.137,83.508a13.11517,13.11517,0,0,1,16.57812,1.59863,12.08146,12.08146,0,0,1,3.86084,8.76172v13.13183a3.50017,3.50017,0,0,1-3.5,3.5Z" fill="#2b3990"/><path d="M328.48016,84.7778a9.26351,9.26351,0,0,1,6.76763,2.81146,8.669,8.669,0,0,1,2.82832,6.27948V107h-4.04039V94.87881a5.945,5.945,0,0,0-1.64987-4.42761,5.509,5.509,0,0,0-7.82957,0,5.98574,5.98574,0,0,0-1.63172,4.42761V96.899a5.02333,5.02333,0,0,1-1.33124,3.72058,4.53019,4.53019,0,0,1-6.41284,0,4.98984,4.98984,0,0,1-1.3468-3.72058V84.7778h4.0404V96.899q0,1.0101.50508,1.01013t.505-1.01013V93.86874a8.691,8.691,0,0,1,2.81274-6.27948,9.24011,9.24011,0,0,1,6.78326-2.81146m0-7a16.49986,16.49986,0,0,0-6.5291,1.30914,6.96872,6.96872,0,0,0-4.077-1.30914h-4.0404a7,7,0,0,0-7,7V96.899a11.83307,11.83307,0,0,0,3.42948,8.70254,11.53006,11.53006,0,0,0,16.28348-.03579c.16052-.16028.32437-.33393.48908-.52131V107a7,7,0,0,0,7,7h4.04039a7,7,0,0,0,7-7V93.86874a15.66393,15.66393,0,0,0-4.89393-11.24456,16.28976,16.28976,0,0,0-11.702-4.84638Z" fill="#fff"/><path d="M317.87433,86.258c-8.00195,0-12.59131-4.58887-12.59131-12.59083V61.54507a3.50018,3.50018,0,0,1,3.5-3.5h4.04053a3.50017,3.50017,0,0,1,3.5,3.5V73.66714c0,1.4336.11572,1.54981,1.55078,1.54981h11.11084c1.43457,0,1.5503-.11621,1.5503-1.54981V61.54507a3.50017,3.50017,0,0,1,3.5-3.5H338.076a3.50017,3.50017,0,0,1,3.5,3.5V73.66714c0,8.002-4.58935,12.59083-12.59082,12.59083Z" fill="#2b3990"/><path d="M338.07611,61.5455V73.66672q0,9.09091-9.09094,9.09088H317.87409q-9.0909,0-9.09094-9.09088V61.5455h4.04039V73.66672q0,5.0505,5.05055,5.05047h11.11108q5.05051,0,5.05054-5.05047V61.5455h4.0404m0-7h-4.0404a7,7,0,0,0-7,7V71.71719h-7.21218V61.5455a7,7,0,0,0-7-7h-4.04039a7,7,0,0,0-7,7V73.66672c0,9.9252,6.16569,16.09088,16.09094,16.09088h11.11108c9.92525,0,16.09094-6.16568,16.09094-16.09088V61.5455a7,7,0,0,0-7-7Z" fill="#fff"/><path d="M317.87433,81.20718c-4.65136,0-7.54052-2.88964-7.54052-7.54V61.54507a3.50017,3.50017,0,0,1,3.5-3.5h4.04052a3.5005,3.5005,0,0,1,3.46875,3.03028h1.58155a3.50017,3.50017,0,0,1,3.5,3.5V77.70718a3.50017,3.50017,0,0,1-3.5,3.5Z" fill="#2b3990"/><path d="M317.87408,61.5455V72.65665a.89278.89278,0,0,0,1.01009,1.01007V64.57584h4.04039V77.70712h-5.05048q-4.0404,0-4.0404-4.0404V61.5455h4.0404m0-7h-4.0404a7,7,0,0,0-7,7V73.66672c0,6.6036,4.4368,11.0404,11.0404,11.0404h5.05048a7,7,0,0,0,7-7V64.57584a7.001,7.001,0,0,0-6.25746-6.96109,6.99266,6.99266,0,0,0-5.793-3.06925Z" fill="#fff"/><path d="M323.93488,81.20718a3.50017,3.50017,0,0,1-3.5-3.5V64.57535a3.50017,3.50017,0,0,1,3.5-3.5h1.58154a3.5005,3.5005,0,0,1,3.46875-3.03028h4.04053a3.50017,3.50017,0,0,1,3.5,3.5V73.66714c0,4.6504-2.88916,7.54-7.54053,7.54Z" fill="#2b3990"/><path d="M333.02558,61.5455V73.66672q0,4.0404-4.0404,4.0404H323.9347V64.57584h4.04039v9.09088a.89278.89278,0,0,0,1.01009-1.01007V61.5455h4.0404m0-7h-4.0404a6.99263,6.99263,0,0,0-5.793,3.06925,7.001,7.001,0,0,0-6.25747,6.96109V77.70712a7,7,0,0,0,7,7h5.05048c6.6036,0,11.0404-4.4368,11.0404-11.0404V61.5455a7,7,0,0,0-7-7Z" fill="#fff"/><path d="M317.87433,63.02554c-8.00195,0-12.59131-4.58935-12.59131-12.59131V38.31314a3.49987,3.49987,0,0,1,3.5-3.5h4.04053a3.49823,3.49823,0,0,1,3.03027,1.74756,3.49824,3.49824,0,0,1,3.03028-1.74756H338.076a3.49986,3.49986,0,0,1,3.5,3.5V50.43423c0,8.002-4.58935,12.59131-12.59082,12.59131ZM328.98517,51.985c1.43457,0,1.5503-.11573,1.5503-1.55079V45.85367h-4.11084v3.5708a3.492,3.492,0,0,1-1.11377,2.56055Z" fill="#2b3990"/><path d="M338.07611,38.3132V50.43442q0,9.09091-9.09094,9.09088H317.87409q-9.0909,0-9.09094-9.09088V38.3132h4.04039V50.43442q0,5.0505,5.05055,5.05047h11.11108q5.05051,0,5.05054-5.05047V42.35361H322.92456v7.07068h-4.04041V38.3132h19.192m0-7h-19.192a6.97383,6.97383,0,0,0-3.0303.68811,6.97384,6.97384,0,0,0-3.03031-.68811h-4.04039a7,7,0,0,0-7,7V50.43442c0,9.9252,6.16569,16.09088,16.09094,16.09088h11.11108c9.92525,0,16.09094-6.16568,16.09094-16.09088V38.3132a7,7,0,0,0-7-7Z" fill="#fff"/><path d="M317.87433,57.97476c-4.65136,0-7.54052-2.88916-7.54052-7.54053V38.31314a3.49986,3.49986,0,0,1,3.5-3.5h4.04052a3.49986,3.49986,0,0,1,3.5,3.5V40.9772a3.49113,3.49113,0,0,1,2.56055-1.11377h9.09082a3.49986,3.49986,0,0,1,3.5,3.5v7.0708c0,4.65137-2.88916,7.54053-7.54053,7.54053Z" fill="#2b3990"/><path d="M317.87409,38.3132V49.42429a.8928.8928,0,0,0,1.01006,1.01013h9.091a.8928.8928,0,0,0,1.01006-1.01013V47.40408h-1.01006v2.02021h-4.04042V43.36368h9.09089v7.07074q0,4.0404-4.04041,4.0404H317.87409q-4.0404,0-4.0404-4.0404V38.3132h4.0404m0-7h-4.0404a7,7,0,0,0-7,7V50.43442c0,6.6036,4.4368,11.0404,11.0404,11.0404h11.11108c6.60359,0,11.04041-4.4368,11.04041-11.0404V43.36368a7,7,0,0,0-7-7H324.599a7.0029,7.0029,0,0,0-6.72494-5.05048Z" fill="#fff"/><path d="M338.0755,39.79312a3.49169,3.49169,0,0,1-1.1958-.21094l-25.92578-9.42773a3.4156,3.4156,0,0,1-.36914-.15869,8.89167,8.89167,0,0,1-5.30176-8.18115,8.34065,8.34065,0,0,1,5.71094-8.35352l25.84863-9.73633a3.5,3.5,0,0,1,4.7334,3.27539V24.34a3.49986,3.49986,0,0,1-3.5,3.5h-1.84082l3.05518,1.12988a3.50029,3.50029,0,0,1,2.28564,3.28271v4.04053a3.50025,3.50025,0,0,1-3.50049,3.5ZM330.88166,25.86a3.48869,3.48869,0,0,1-.34619-1.52V17.52554l-10.75147,4.23Z" fill="#2b3990"/><path d="M338.07611,7V24.34012h-4.0404V12.38724l-20.53877,8.08081a1.35836,1.35836,0,0,0-.6734,1.3468,1.60264,1.60264,0,0,0,.6734,1.3468l24.57917,9.09094V36.293l-25.926-9.42761a5.39239,5.39239,0,0,1-3.367-5.05054q0-3.87139,3.367-5.05048L338.07611,7m-.00054-7a6.99442,6.99442,0,0,0-2.46665.44925l-25.86228,9.74036a11.813,11.813,0,0,0-7.96349,11.62524,12.39182,12.39182,0,0,0,7.23633,11.31146,7.00139,7.00139,0,0,0,.73848.31763l25.926,9.42761a7,7,0,0,0,9.39219-6.57855V32.25259a6.99241,6.99241,0,0,0-1.2248-3.95565,6.9679,6.9679,0,0,0,1.2248-3.95682V7a7.00005,7.00005,0,0,0-7.00054-7Z" fill="#fff"/><path d="M338.0755,34.74234a3.49622,3.49622,0,0,1-1.21826-.21924L313.41877,25.818a4.1393,4.1393,0,0,1-.019-8.00048l18.37744-7.01661a3.50026,3.50026,0,0,1,4.74854,3.27v8.75489l2.8374,1.12158A3.50063,3.50063,0,0,1,341.576,27.2023v4.04a3.50021,3.50021,0,0,1-3.50049,3.5Z" fill="#2b3990"/><path d="M333.02558,14.07077V24.34012H330.837l7.23907,2.86194v4.0404l-23.569-8.75421c-.44806-.11267-.6734-.33667-.6734-.6734s.22534-.56073.6734-.6734l18.5185-7.07068m-4.0404,9.596V19.963l-4.71382,1.85181,4.71382,1.85187m4.03983-16.596a6.99459,6.99459,0,0,0-2.49633.46051l-18.28245,6.98053a7.6338,7.6338,0,0,0,.04233,14.61972l23.35025,8.67294a7,7,0,0,0,9.4373-6.562v-4.0404a7,7,0,0,0-4.42639-6.50974l-.62414-.24676V14.07077a7.0001,7.0001,0,0,0-7.00057-7Z" fill="#fff"/><g id="Megadrive32x"><path d="M343.322,15.86011V10.839h46.86385q3.34892,0,3.34742,5.02113Zm0,15.06338V17.53382h8.36855V30.92349Zm20.08451,0V17.53382h8.36854V30.92349Zm21.75821,0V17.53382h8.36855V30.92349Z" fill="#999"/><path d="M398.55443,15.86011V10.839H430.3549v5.02113Zm0,10.04225V17.53382H406.923a1.479,1.479,0,0,0,1.67371,1.67371h20.0845v5.02112H406.923a1.479,1.479,0,0,0,1.67371,1.67371H430.3549v5.02113h-28.453Q398.55294,30.92349,398.55443,25.90236Z" fill="#999"/><path d="M435.376,15.86011q0-5.02113,3.34741-5.02113h31.80047v5.02113Zm0,10.04225V17.53382h8.36854v8.36854h16.73709c1.11481,0,1.67371-.28094,1.67371-.83685s-.5589-.83686-1.67371-.83686h-8.36855V19.20753h15.06338q5.02113,0,5.02113,5.02112v1.67371q0,5.02113-3.34742,5.02113H438.72344Q435.37454,30.92349,435.376,25.90236Z" fill="#999"/><path d="M477.21875,15.86011q0-5.02113,3.34741-5.02113h28.453q3.34891,0,3.34742,5.02113Zm0,15.06338V17.53382h8.36854V30.92349Zm26.77934,0V27.57607H487.261V22.55494h16.73709V17.53382h8.36854V30.92349Z" fill="#999"/><path d="M517.38776,15.86011V10.839h31.80046q3.34892,0,3.34742,5.02113Zm0,15.06338V17.53382h8.36854V30.92349Zm31.80046,0H527.43V25.90236H544.1671V17.53382h8.36854v8.36854Q552.53564,30.92349,549.18822,30.92349Z" fill="#999"/><path d="M557.55677,15.86011q0-5.02113,3.34741-5.02113h28.453q3.34892,0,3.34742,5.02113Zm0,15.06338V17.53382h8.36854V30.92349ZM567.599,27.57607V22.55494H582.6624a1.479,1.479,0,0,0,1.67371-1.6737V17.53382h8.36854v5.02112q0,5.02113-3.34742,5.02113l5.02113,3.34742h-8.36855l-5.02112-3.34742Z" fill="#999"/><path d="M599.39948,30.92349V10.839H607.768V30.92349Z" fill="#999"/><path d="M617.81028,15.86011,614.46286,10.839h10.04226l3.34741,5.02113Zm10.04225,15.06338L619.484,17.53382h10.04225l5.02113,8.0338,5.02112-8.0338h10.04226L641.2422,30.92349ZM641.0031,15.86011l3.34742-5.02113h10.04225l-3.34742,5.02113Z" fill="#999"/><path d="M659.4139,15.86011V10.839h31.80047v5.02113Zm0,10.04225V17.53382h8.36854a1.479,1.479,0,0,0,1.67371,1.67371h20.08451v5.02112H667.78244a1.479,1.479,0,0,0,1.67371,1.67371h21.75822v5.02113H662.76132Q659.41241,30.92349,659.4139,25.90236Z" fill="#999"/><path d="M343.322,52.96862V36.65h85.577q14.78963,0,14.79108,16.31866Zm0,48.956V85.60594h68.67289q5.28108,0,5.28253-2.71977,0-2.71679-5.28253-2.71978H364.45216V63.84773h46.48627q6.339,0,6.339-5.43955h26.41265V85.60594q0,16.31866-14.79108,16.31866Z" fill="#999"/><path d="M454.25517,52.96862V36.65h84.52048q15.84759,0,15.84759,16.31866Zm0,27.19777q0-16.31867,15.84759-16.31866h52.8253q5.28108,0,5.28253-5.43955h26.41265v5.43955q0,16.31866-15.84759,16.31866H480.66782q-5.28108,0-5.28253,5.43955h79.238V101.9246H454.25517Z" fill="#999"/><path d="M588.73329,52.96862,565.1883,36.65h31.69518L620.353,52.96862Zm70.484,48.956-31.016-21.52509-31.016,21.52509H565.49016L612.35374,69.365,596.58162,58.40818h63.23943L644.04892,69.365l46.86359,32.55961ZM659.51919,36.65h31.69518l-23.545,16.31866H636.04966Z" fill="#999"/></g><g id="Sega"><path d="M318.37913,107.00007a9.26343,9.26343,0,0,1-6.76767-2.81145,8.66909,8.66909,0,0,1-2.82829-6.27946V84.77785h4.04041V96.89906a5.945,5.945,0,0,0,1.64983,4.42761,5.509,5.509,0,0,0,7.82958,0,5.98549,5.98549,0,0,0,1.6317-4.42761v-2.0202a5.02328,5.02328,0,0,1,1.33126-3.72054,4.53015,4.53015,0,0,1,6.41285,0,4.98979,4.98979,0,0,1,1.3468,3.72054v12.12121h-4.04041V94.87886q0-1.01012-.505-1.01011t-.505,1.01011v3.0303a8.69078,8.69078,0,0,1-2.81274,6.27946A9.23983,9.23983,0,0,1,318.37913,107.00007Zm0-5.05051a4.39554,4.39554,0,0,1-3.19865-1.33,4.98982,4.98982,0,0,1-1.3468-3.72054V84.77785h4.0404V96.89906q0,1.0101.505,1.0101t.50505-1.0101V93.86875a8.69077,8.69077,0,0,1,2.81275-6.27946,9.57,9.57,0,0,1,13.55089,0,8.66914,8.66914,0,0,1,2.82828,6.27946v13.13132h-4.0404V94.87886a5.945,5.945,0,0,0-1.64983-4.42761,5.50894,5.50894,0,0,0-7.82958,0,5.98546,5.98546,0,0,0-1.6317,4.42761v2.0202a5.02331,5.02331,0,0,1-1.33126,3.72054A4.376,4.376,0,0,1,318.37913,101.94956Z" fill="#2b3990"/><path d="M317.87408,82.75764q-9.0909,0-9.09091-9.09091V61.54552h4.04041V73.66673q0,5.05051,5.0505,5.05051h11.11111q5.05052,0,5.05051-5.05051V61.54552h4.0404V73.66673q0,9.09091-9.09091,9.09091Zm5.05051-5.0505h-5.05051q-4.0404,0-4.0404-4.04041V61.54552h4.0404V72.65663a.89281.89281,0,0,0,1.0101,1.0101V64.57582h4.04041Zm1.0101,0V64.57582h4.0404v9.09091a.89281.89281,0,0,0,1.0101-1.0101V61.54552h4.04041V73.66673q0,4.04041-4.04041,4.04041Z" fill="#2b3990"/><path d="M317.87408,59.52532q-9.0909,0-9.09091-9.09091V38.3132h4.04041V50.43441q0,5.0505,5.0505,5.05051h11.11111q5.05052,0,5.05051-5.05051V42.3536H322.92459v7.07071h-4.04041V38.3132H338.0761V50.43441q0,9.09091-9.09091,9.09091Zm0-5.05051q-4.0404,0-4.0404-4.0404V38.3132h4.0404V49.42431a.89281.89281,0,0,0,1.0101,1.0101h9.09091a.89281.89281,0,0,0,1.0101-1.0101v-2.0202h-1.0101v2.0202h-4.0404V43.3637h9.09091v7.07071q0,4.0404-4.04041,4.0404Z" fill="#2b3990"/><path d="M334.0357,24.34013V12.38727L313.497,20.46808a1.35829,1.35829,0,0,0-.6734,1.3468,1.60259,1.60259,0,0,0,.6734,1.3468l24.57912,9.09091V36.293l-25.92592-9.42761a5.39225,5.39225,0,0,1-3.367-5.05051q0-3.87141,3.367-5.0505L338.0761,7.00007V24.34013Zm-1.0101,0H330.837l7.23906,2.862v4.0404l-23.569-8.75421c-.44807-.11266-.6734-.3367-.6734-.6734s.22533-.56073.6734-.6734l18.51852-7.07071Zm-8.75421-2.52525,4.7138,1.85185V19.963Z" fill="#2b3990"/></g></g></svg>