<svg xmlns="http://www.w3.org/2000/svg" viewBox="0 0 400 385.044"><path d="M7.782 71.37c-3.158-5.684 9.449-62.527 9.449-62.527s3.76-7.579 23.052-7.579C50.497 1.263 135.028 0 215.11 0c71.152 0 138.795 1.263 147.682 1.263 18.892 0 22.05 12.632 22.05 12.632s10.105 47.18 8.842 54.948S10.94 77.054 7.782 71.37" fill="#1d1d1b"/><linearGradient id="a" gradientUnits="userSpaceOnUse" x1="-57.898" y1="51.595" x2="-57.898" y2="385.044" gradientTransform="matrix(-1 0 0 1 142.102 0)"><stop offset="0" stop-color="#b5b1ad"/><stop offset=".029" stop-color="#b0aba7"/><stop offset=".139" stop-color="#a19c96"/><stop offset=".275" stop-color="#97908b"/><stop offset=".467" stop-color="#918a84"/><stop offset="1" stop-color="#8f8882"/></linearGradient><path d="M200 385.044c74.773 0 182.057-4.195 191.835-4.195s7.968-8.842 7.968-8.842.197-113.686.197-153.688-3.875-97.054-3.875-97.054l-2.452-60.001s-1.839-6.947-12.258-6.947c-10.419 0-89.482-2.722-181.416-2.722S29.003 54.317 18.584 54.317 6.326 61.264 6.326 61.264l-2.452 60.001s-3.875 57.053-3.875 97.054.197 153.687.197 153.687-1.81 8.842 7.968 8.842 117.063 4.196 191.836 4.196z" fill="url(#a)"/><path d="M364.631 113.686H93.047c-5.558 0-10.105-4.547-10.105-10.105V70.107c0-5.558 4.547-10.105 10.105-10.105h271.584c5.558 0 10.105 4.547 10.105 10.105v33.474c.001 5.558-4.547 10.105-10.105 10.105m0 248.847H93.047c-5.558 0-10.105-4.547-10.105-10.105V163.582c0-5.558 4.547-10.105 10.105-10.105h271.584c5.558 0 10.105 4.547 10.105 10.105v188.846c.001 5.558-4.547 10.105-10.105 10.105" fill="#1d1d1b"/><path d="M246.84 101.686h-91.908a2.534 2.534 0 0 1-2.526-2.526V72.822a2.533 2.533 0 0 1 2.526-2.526h91.908a2.533 2.533 0 0 1 2.526 2.526V99.16a2.534 2.534 0 0 1-2.526 2.526z" fill="#111" stroke="#fff" stroke-width=".25" stroke-miterlimit="10"/><g fill="#1d1d1b"><path d="M18.982 83.85l-1.192 2.185-4.469-8.204h2.385l3.276 6.019zm-.89-2.738l1.79-3.281h2.384l-2.982 5.466-1.192-2.185zM22.96 77.83h2.09v8.205h-2.09v-8.204zM26.103 77.83h2.09v8.205h-2.09v-8.204zm2.687 2.048v-2.047h.891c1.156 0 2.14.399 2.953 1.199.814.8 1.22 1.767 1.22 2.902 0 1.13-.406 2.098-1.22 2.902-.814.8-1.798 1.2-2.953 1.2h-.891v-2.055h.891c.576 0 1.066-.2 1.474-.6.411-.4.618-.882.618-1.448s-.207-1.048-.618-1.448a2.014 2.014 0 0 0-1.474-.607c0 .002-.891.002-.891.002zM34.914 77.83h2.09v8.205h-2.09v-8.204zm2.687 0h3.277v2.048H37.6v-2.047zm0 6.15h3.277v2.055H37.6v-2.054zm0-3.074h3.277v2.054H37.6v-2.054zM48.173 82.222h2.097c-.06 1.012-.465 1.883-1.213 2.613-.814.8-1.799 1.2-2.953 1.2-1.15 0-2.135-.4-2.953-1.2-.744-.731-1.147-1.602-1.207-2.613h2.097c.06.446.258.832.59 1.158.406.4.897.6 1.473.6.575 0 1.068-.2 1.48-.6.332-.326.529-.712.59-1.158zm-4.132-.585h-2.097c.06-1.007.463-1.875 1.207-2.606.818-.8 1.802-1.2 2.953-1.2 1.155 0 2.139.4 2.953 1.2.748.73 1.153 1.6 1.213 2.606h-2.097a1.985 1.985 0 0 0-.589-1.158 2.05 2.05 0 0 0-1.48-.6c-.576 0-1.067.2-1.474.6a1.98 1.98 0 0 0-.589 1.158zM51.33 77.83h2.09v8.205h-2.09v-8.204zm2.687 2.048v-2.047h.968c.72 0 1.335.25 1.845.751.51.502.765 1.104.765 1.807 0 .712-.255 1.319-.765 1.82a2.537 2.537 0 0 1-1.845.752h-.968v-2.055h.968a.497.497 0 0 0 .364-.144.501.501 0 0 0 .154-.373.485.485 0 0 0-.154-.358.489.489 0 0 0-.364-.151h-.968zM62.477 82.753l-1.789 3.282h-2.385l2.982-5.467 1.192 2.185zm.87.496l-1.768-3.233 1.192-2.185 4.476 8.204h-2.385l-.4-.731h-2.785l1.115-2.055h.555zM71.821 83.967v2.054a4.007 4.007 0 0 1-2.658-1.186c-.814-.805-1.22-1.772-1.22-2.902 0-1.136.406-2.103 1.22-2.902a4.01 4.01 0 0 1 2.658-1.186v2.054c-.453.06-.846.253-1.178.579a1.98 1.98 0 0 0-.61 1.455c0 .566.204 1.048.61 1.448.332.33.725.526 1.178.586zm2.035-3.179a2.106 2.106 0 0 0-.259-.31 2.04 2.04 0 0 0-1.178-.579v-2.054c1.024.06 1.908.454 2.652 1.186.196.197.372.404.526.62l-1.74 1.137zm1.74 3.427c-.154.216-.33.422-.526.62-.744.731-1.628 1.126-2.652 1.186v-2.054c.449-.06.842-.255 1.178-.587.099-.097.185-.198.26-.303l1.74 1.138z"/></g><g fill="#1d1d1b"><path d="M17.338 96.408v2.172c-1.02-.063-1.9-.481-2.637-1.254-.807-.85-1.21-1.873-1.21-3.068 0-1.2.403-2.223 1.21-3.068.738-.772 1.617-1.19 2.637-1.253v2.171c-.45.063-.84.267-1.169.613-.403.427-.605.94-.605 1.537s.202 1.108.605 1.53c.33.35.72.557 1.17.62zm2.019-3.36a2.115 2.115 0 0 0-.258-.327 1.986 1.986 0 0 0-1.17-.613v-2.171c1.017.063 1.894.48 2.632 1.253.194.209.368.428.522.656l-1.726 1.202zm1.726 3.622a5.248 5.248 0 0 1-.522.656c-.738.773-1.615 1.19-2.631 1.254v-2.172c.445-.063.835-.27 1.169-.62.097-.101.183-.208.258-.32l1.726 1.202zM28.452 94.564h2.081a4.208 4.208 0 0 1-1.204 2.762c-.807.846-1.784 1.268-2.93 1.268-1.14 0-2.118-.423-2.93-1.268a4.224 4.224 0 0 1-1.196-2.762h2.08c.06.472.256.88.585 1.225.404.422.89.634 1.462.634s1.06-.212 1.468-.634c.33-.345.524-.753.584-1.225zm-4.099-.619h-2.08a4.216 4.216 0 0 1 1.196-2.755c.812-.845 1.79-1.268 2.93-1.268 1.146 0 2.123.423 2.93 1.268a4.2 4.2 0 0 1 1.204 2.755h-2.08a2.146 2.146 0 0 0-.585-1.224c-.409-.423-.898-.634-1.469-.634s-1.058.211-1.461.634c-.33.35-.524.758-.585 1.224zM31.584 92.4v-2.478l4.44 3.097 4.433-3.097v.008l.007-.008-.007 8.672H38.39v-4.606l-2.366 1.815-4.44-3.403zm2.074 2.208v3.987h-2.074V93.02l2.074 1.588zM41.494 89.922h2.073v8.672h-2.073v-8.672zm2.665 2.165v-2.165h.96c.715 0 1.325.265 1.83.794.506.53.76 1.166.76 1.91 0 .753-.254 1.394-.76 1.924-.505.529-1.115.794-1.83.794h-.96v-2.172h.96a.481.481 0 0 0 .362-.153.549.549 0 0 0 .154-.393.53.53 0 0 0-.154-.38.47.47 0 0 0-.362-.16h-.96zM52.9 89.922h2.073v5.422c0 .899-.303 1.664-.911 2.295-.538.564-1.172.877-1.9.94v-2.193c.162-.053.308-.146.438-.277.2-.209.3-.464.3-.765v-5.422zm-1.33 6.464v2.194c-.732-.063-1.366-.376-1.9-.94-.607-.632-.91-1.397-.91-2.296v-5.422h2.073v5.422c0 .301.1.557.3.766.13.135.275.228.438.276zM57.507 92.706h2.074l-.008 5.888h-2.067v-5.888zm-1.482-2.784h5.031v2.165h-5.031v-2.165zM62.093 89.922h2.074v8.672h-2.074v-8.672zm2.665 0h3.25v2.165h-3.25v-2.165zm0 6.5h3.25v2.172h-3.25v-2.171zm0-3.25h3.25v2.172h-3.25v-2.172zM69.052 89.922h2.074v8.672h-2.074v-8.672zm2.665 2.165v-2.165h.96c.715 0 1.325.265 1.831.794.506.53.759 1.166.759 1.91 0 .753-.253 1.394-.759 1.924-.506.529-1.116.794-1.83.794h-.96v-2.172h.96a.481.481 0 0 0 .362-.153.549.549 0 0 0 .153-.393.53.53 0 0 0-.153-.38.47.47 0 0 0-.362-.16h-.96zm1.183 3.716c.381 0 .736-.068 1.065-.204l1.301 2.995h-2.073l-1.211-2.79h.918z"/></g><g fill="#e20613"><path d="M306.107 68.76h6.612v3.37h-6.612v-3.37zm6.339 4.332a6.694 6.694 0 0 1-1.427 2.118c-1.29 1.315-2.85 1.973-4.676 1.973s-3.384-.658-4.675-1.973-1.937-2.904-1.937-4.765.646-3.45 1.937-4.765 2.85-1.973 4.675-1.973 3.385.658 4.676 1.973c.315.321.592.661.832 1.02l-2.75 1.878a3.946 3.946 0 0 0-.415-.52c-.648-.655-1.43-.982-2.343-.982s-1.694.33-2.342.992c-.643.654-.964 1.447-.964 2.377s.321 1.726.964 2.387c.648.655 1.43.982 2.342.982a3.13 3.13 0 0 0 2.05-.722h4.053zM323.439 68.039l-2.56 9.144h-3.542l2.56-9.144h3.542zm-7.765-.963v-3.369h8.983l-.944 3.37h-8.039zM335.964 70.926h3.325c-.1 1.655-.743 3.084-1.926 4.283-1.291 1.316-2.85 1.973-4.676 1.973s-3.385-.657-4.676-1.973c-1.178-1.2-1.817-2.628-1.918-4.283h3.325c.095.725.407 1.357.936 1.896.642.661 1.42.992 2.333.992s1.694-.33 2.342-.992c.53-.539.841-1.17.935-1.896zm-6.546-.962h-3.325c.1-1.656.74-3.084 1.918-4.284 1.29-1.315 2.85-1.973 4.676-1.973s3.385.658 4.676 1.973c1.183 1.2 1.826 2.628 1.926 4.284h-3.325a3.288 3.288 0 0 0-.935-1.906c-.649-.655-1.43-.982-2.343-.982s-1.69.327-2.333.982a3.29 3.29 0 0 0-.935 1.906zM350.624 70.926h3.325c-.1 1.655-.743 3.084-1.927 4.283-1.29 1.316-2.85 1.973-4.675 1.973s-3.385-.657-4.676-1.973c-1.178-1.2-1.817-2.628-1.918-4.283h3.325c.095.725.407 1.357.936 1.896.642.661 1.42.992 2.333.992s1.694-.33 2.342-.992c.53-.539.841-1.17.935-1.896zm-6.546-.962h-3.325c.1-1.656.74-3.084 1.918-4.284 1.29-1.315 2.85-1.973 4.676-1.973s3.385.658 4.675 1.973c1.184 1.2 1.827 2.628 1.927 4.284h-3.325a3.288 3.288 0 0 0-.935-1.906c-.649-.655-1.43-.982-2.343-.982s-1.69.327-2.333.982a3.293 3.293 0 0 0-.935 1.906zM365.285 70.926h3.325c-.1 1.655-.743 3.084-1.927 4.283-1.29 1.316-2.85 1.973-4.676 1.973s-3.385-.657-4.676-1.973c-1.177-1.2-1.817-2.628-1.917-4.283h3.325c.094.725.406 1.357.935 1.896.642.661 1.42.992 2.333.992s1.694-.33 2.343-.992c.529-.539.84-1.17.935-1.896zm-6.546-.962h-3.325c.1-1.656.74-3.084 1.917-4.284 1.291-1.315 2.85-1.973 4.676-1.973s3.385.658 4.676 1.973c1.184 1.2 1.826 2.628 1.927 4.284h-3.325a3.288 3.288 0 0 0-.936-1.906c-.648-.655-1.43-.982-2.342-.982s-1.691.327-2.333.982a3.29 3.29 0 0 0-.935 1.906z"/></g><g fill="#f2f2f2"><path d="M329.174 102.523h2.72c.808 0 1.428.18 1.859.542.434.358.651.87.651 1.534 0 .668-.216 1.182-.651 1.544-.432.358-1.051.537-1.86.537h-1.08v2.208h-1.639v-6.365zm1.639 1.19v1.777h.906c.318 0 .563-.077.736-.23.173-.156.26-.376.26-.66 0-.285-.087-.504-.26-.657-.173-.153-.418-.23-.736-.23h-.906zM335.557 102.523h1.639v2.426h2.417v-2.426h1.638v6.365h-1.638v-2.698h-2.417v2.698h-1.639v-6.365zM342.859 102.523h1.638v6.365h-1.638v-6.365zM346.11 102.523h1.638v5.125h2.876v1.24h-4.514v-6.365zM351.658 102.523h1.639v6.365h-1.639v-6.365zM354.91 102.523h2.719c.808 0 1.428.18 1.86.542.433.358.65.87.65 1.534 0 .668-.216 1.182-.65 1.544-.433.358-1.052.537-1.86.537h-1.081v2.208h-1.639v-6.365zm1.638 1.19v1.777h.906c.318 0 .563-.077.736-.23.173-.156.26-.376.26-.66 0-.285-.087-.504-.26-.657-.173-.153-.418-.23-.736-.23h-.906zM365.713 102.724v1.347a5.88 5.88 0 0 0-1.02-.354 4.01 4.01 0 0 0-.94-.12c-.393 0-.681.054-.87.163s-.28.275-.28.503c0 .17.062.304.187.4.128.095.358.176.69.244l.697.14c.706.143 1.209.36 1.506.648s.447.702.447 1.237c0 .701-.209 1.225-.626 1.568-.414.341-1.048.511-1.902.511-.402 0-.807-.038-1.213-.115a7.478 7.478 0 0 1-1.216-.341v-1.385c.405.216.797.38 1.174.49.38.108.747.162 1.098.162.358 0 .632-.06.822-.179a.57.57 0 0 0 .284-.511c0-.2-.065-.353-.195-.46-.128-.109-.385-.205-.77-.291l-.635-.141c-.636-.136-1.101-.354-1.396-.653-.292-.298-.438-.7-.438-1.206 0-.633.203-1.12.612-1.462s.996-.512 1.761-.512c.349 0 .708.027 1.077.081.371.052.753.13 1.146.236z"/></g><path d="M99.976 90.897h-14.28v10.174c0 3.137.145 4.519 1.527 6.253 1.445 1.795 3.487 2.724 5.654 2.724 2.043 0 4.21-.929 5.654-2.765 1.341-1.692 1.445-2.992 1.445-6.211V90.897zm-13.888.412h13.517v9.864c0 2.848-.083 4.189-1.465 5.923-1.218 1.527-3.137 2.497-5.283 2.497-2.126 0-4.148-1.011-5.386-2.6-1.341-1.733-1.383-2.93-1.383-6.129v-9.555zm13.187 11.557c0-3.508-2.848-6.376-6.418-6.376-3.57 0-6.438 2.868-6.438 6.376 0 3.57 2.868 6.439 6.397 6.439 3.57-.001 6.459-2.89 6.459-6.439zm-10.752-9.225c0-.949-.867-.949-1.919-.949v2.414h.66v-.536c.826 0 1.259-.33 1.259-.929zm.908-.949h-.599v2.414h.599v-.908h.64v.908h.64v-2.414h-.64v.887h-.64v-.887zm2.477 0h-.598v2.414h.598v-2.414zm1.238 0h-.619v2.414h1.259v-.536h-.64v-1.878zm1.589 0h-.619v2.414h.619v-2.414zm2.538.949c0-.949-.97-.949-1.898-.949v2.414h.619v-.536c.701 0 1.279-.227 1.279-.929zm.248.929v.578c.207.021.33.041.475.041.743 0 1.094-.351 1.094-.867 0-.784-.887-.537-.887-.867 0-.103.144-.165.413-.165h.227v-.599c-.887 0-1.403.124-1.403.743 0 .846.949.681.949.949 0 .103-.206.186-.495.186h-.373zm-10.628 7.78c.578-.248.97-.351 1.424-.351 1.279 0 1.672.825 3.075.825 1.052 0 1.898-.825 3.116-.825 1.032 0 2.043.805 2.848.805.764 0 1.259-.268 1.465-.392l.021.248c-.392.289-.764.454-1.403.454-1.135 0-1.816-.825-2.951-.825-1.218 0-1.96.846-3.095.846-1.259 0-1.878-.805-3.033-.805-.475 0-1.094.145-1.465.289v-.269h-.002zm3.013-4.643c.66-.351.846-.413 1.341-.557l-.165 1.032-1.073.186-.103-.661zm0 4.292l.248-1.775 1.981-.33-.702-.124.165-1.114 1.156-.248-1.156-.227-.165-1.094c.578-.124.867-.165 1.362-.165 3.24 0 5.365 2.249 5.985 5.035-.309.227-.722.413-1.383.413-1.176 0-1.713-.825-3.013-.825-1.28 0-1.837.867-3.054.867-.661 0-1.073-.165-1.424-.413zm.103-3.508l1.073.165.124 1.052-1.052-.144-.145-1.073zm-3.137 4.622c.949-.31 1.073-.351 1.445-.351 1.3 0 1.795.825 3.054.825 1.011 0 1.94-.867 3.095-.867 1.073 0 1.672.825 2.951.825.433 0 .825-.103 1.424-.33v.227c-.516.31-.867.413-1.486.413-1.28 0-1.816-.805-2.91-.805-1.3 0-1.878.825-3.096.825-1.176 0-1.878-.805-3.095-.805-.31 0-.702.083-1.362.289l-.02-.246zm.062.681c.557-.206.908-.289 1.341-.289 1.238 0 1.837.846 3.054.846 1.156 0 1.878-.846 3.095-.846.578 0 .991.144 1.362.392l-.206 1.651-2.002.371.702.165-.124 1.073-1.218.248 1.218.309.186.97a5.38 5.38 0 0 1-1.383.165c-3.136.001-5.571-2.186-6.025-5.055zm0-1.919c.165-.867.289-1.197.66-1.878l1.898.227.186 1.672c-.66-.268-.991-.351-1.321-.351-.494 0-1.031.165-1.423.33zm7.574 4.251l1.073.124.103 1.011-1.052-.103-.124-1.032zm.062 2.477l.062-.887 1.073-.206.103.557c-.433.267-.619.35-1.238.536zm-7.306-15.312c.371 0 .516.062.516.33 0 .31-.144.392-.516.392v-.722zm8.73 0c.371 0 .537.021.537.371 0 .289-.227.351-.537.351v-.722zm.041 10.73c.516.165.949.268 1.444.268.433 0 .681-.062 1.28-.33a4.91 4.91 0 0 1-.619 1.775l-1.96-.186-.145-1.527zm.041 3.921l.103-1.692 1.775-.248c-.516.888-.887 1.3-1.878 1.94zm-8.357-8.151c.516-.805.97-1.362 1.981-1.981l-.206 1.754-1.775.227z" fill="#f5f5f5"/><path d="M360.639 189.453H100.834c-3.471 0-6.311-2.84-6.311-6.311v-11.658c0-3.471 2.84-6.311 6.311-6.311h259.805c3.471 0 6.311 2.84 6.311 6.311v11.658c0 3.471-2.84 6.311-6.311 6.311z" fill="none" stroke="#fff" stroke-width="1.267" stroke-miterlimit="10"/><path d="M98.143 182.528v-7.905a3.526 3.526 0 0 1 3.526-3.526h17.466a3.526 3.526 0 0 1 3.526 3.526v7.905a3.526 3.526 0 0 1-3.526 3.526h-17.466a3.526 3.526 0 0 1-3.526-3.526z" fill="none" stroke="#fff" stroke-width=".944" stroke-miterlimit="10"/><path d="M119.137 185.044h-17.471a2.525 2.525 0 0 1-2.518-2.518v-7.901a2.525 2.525 0 0 1 2.518-2.518h17.471a2.525 2.525 0 0 1 2.518 2.518v7.901a2.525 2.525 0 0 1-2.518 2.518z" fill="#fff"/><path d="M124.938 182.528v-7.905a3.526 3.526 0 0 1 3.526-3.526h17.466a3.526 3.526 0 0 1 3.526 3.526v7.905a3.526 3.526 0 0 1-3.526 3.526h-17.466a3.526 3.526 0 0 1-3.526-3.526z" fill="none" stroke="#fff" stroke-width=".944" stroke-miterlimit="10"/><path d="M145.931 185.044H128.46a2.525 2.525 0 0 1-2.518-2.518v-7.901a2.525 2.525 0 0 1 2.518-2.518h17.471a2.525 2.525 0 0 1 2.518 2.518v7.901a2.525 2.525 0 0 1-2.518 2.518z" fill="#fff"/><path d="M151.731 182.528v-7.905a3.526 3.526 0 0 1 3.526-3.526h17.466a3.526 3.526 0 0 1 3.526 3.526v7.905a3.526 3.526 0 0 1-3.526 3.526h-17.466a3.526 3.526 0 0 1-3.526-3.526z" fill="none" stroke="#fff" stroke-width=".944" stroke-miterlimit="10"/><path d="M172.725 185.044h-17.471a2.525 2.525 0 0 1-2.518-2.518v-7.901a2.525 2.525 0 0 1 2.518-2.518h17.471a2.525 2.525 0 0 1 2.518 2.518v7.901a2.525 2.525 0 0 1-2.518 2.518z" fill="#fff"/><path d="M178.525 182.528v-7.905a3.526 3.526 0 0 1 3.526-3.526h17.466a3.526 3.526 0 0 1 3.526 3.526v7.905a3.526 3.526 0 0 1-3.526 3.526h-17.466a3.526 3.526 0 0 1-3.526-3.526z" fill="none" stroke="#fff" stroke-width=".944" stroke-miterlimit="10"/><path d="M199.519 185.044h-17.471a2.525 2.525 0 0 1-2.518-2.518v-7.901a2.525 2.525 0 0 1 2.518-2.518h17.471a2.525 2.525 0 0 1 2.518 2.518v7.901a2.525 2.525 0 0 1-2.518 2.518z" fill="#fff"/><path d="M205.319 182.528v-7.905a3.526 3.526 0 0 1 3.526-3.526h17.466a3.526 3.526 0 0 1 3.526 3.526v7.905a3.526 3.526 0 0 1-3.526 3.526h-17.466a3.526 3.526 0 0 1-3.526-3.526z" fill="none" stroke="#fff" stroke-width=".944" stroke-miterlimit="10"/><path d="M226.313 185.044h-17.471a2.525 2.525 0 0 1-2.518-2.518v-7.901a2.525 2.525 0 0 1 2.518-2.518h17.471a2.525 2.525 0 0 1 2.518 2.518v7.901a2.525 2.525 0 0 1-2.518 2.518z" fill="#fff"/><path d="M232.113 182.528v-7.905a3.526 3.526 0 0 1 3.526-3.526h17.465a3.526 3.526 0 0 1 3.526 3.526v7.905a3.526 3.526 0 0 1-3.526 3.526h-17.465a3.526 3.526 0 0 1-3.526-3.526z" fill="none" stroke="#fff" stroke-width=".944" stroke-miterlimit="10"/><path d="M253.106 185.044h-17.471a2.525 2.525 0 0 1-2.518-2.518v-7.901a2.525 2.525 0 0 1 2.518-2.518h17.471a2.525 2.525 0 0 1 2.518 2.518v7.901a2.524 2.524 0 0 1-2.518 2.518z" fill="#fff"/><path d="M258.906 182.528v-7.905a3.526 3.526 0 0 1 3.526-3.526h17.466a3.526 3.526 0 0 1 3.526 3.526v7.905a3.526 3.526 0 0 1-3.526 3.526h-17.466a3.526 3.526 0 0 1-3.526-3.526z" fill="none" stroke="#fff" stroke-width=".944" stroke-miterlimit="10"/><path d="M279.9 185.044h-17.47a2.525 2.525 0 0 1-2.518-2.518v-7.901a2.525 2.525 0 0 1 2.518-2.518h17.47a2.525 2.525 0 0 1 2.518 2.518v7.901a2.525 2.525 0 0 1-2.518 2.518z" fill="#fff"/><path d="M285.7 182.528v-7.905a3.526 3.526 0 0 1 3.526-3.526h17.466a3.526 3.526 0 0 1 3.526 3.526v7.905a3.526 3.526 0 0 1-3.526 3.526h-17.466a3.526 3.526 0 0 1-3.526-3.526z" fill="none" stroke="#fff" stroke-width=".944" stroke-miterlimit="10"/><path d="M306.694 185.044h-17.471a2.525 2.525 0 0 1-2.518-2.518v-7.901a2.525 2.525 0 0 1 2.518-2.518h17.471a2.525 2.525 0 0 1 2.518 2.518v7.901a2.525 2.525 0 0 1-2.518 2.518z" fill="#fff"/><path d="M312.494 182.528v-7.905a3.526 3.526 0 0 1 3.526-3.526h17.466a3.526 3.526 0 0 1 3.526 3.526v7.905a3.526 3.526 0 0 1-3.526 3.526H316.02a3.526 3.526 0 0 1-3.526-3.526z" fill="none" stroke="#fff" stroke-width=".944" stroke-miterlimit="10"/><path d="M333.488 185.044h-17.471a2.525 2.525 0 0 1-2.518-2.518v-7.901a2.525 2.525 0 0 1 2.518-2.518h17.471a2.525 2.525 0 0 1 2.518 2.518v7.901a2.525 2.525 0 0 1-2.518 2.518z" fill="#fff"/><path d="M339.288 182.528v-7.905a3.526 3.526 0 0 1 3.526-3.526h17.465a3.526 3.526 0 0 1 3.526 3.526v7.905a3.526 3.526 0 0 1-3.526 3.526h-17.465a3.526 3.526 0 0 1-3.526-3.526z" fill="none" stroke="#fff" stroke-width=".944" stroke-miterlimit="10"/><path d="M360.282 185.044h-17.471a2.525 2.525 0 0 1-2.518-2.518v-7.901a2.525 2.525 0 0 1 2.518-2.518h17.471a2.525 2.525 0 0 1 2.518 2.518v7.901a2.525 2.525 0 0 1-2.518 2.518z" fill="#fff"/><g><path d="M360.639 221.639H100.834c-3.471 0-6.311-2.84-6.311-6.311V203.67c0-3.471 2.84-6.311 6.311-6.311h259.805c3.471 0 6.311 2.84 6.311 6.311v11.658c0 3.471-2.84 6.311-6.311 6.311z" fill="none" stroke="#fff" stroke-width="1.262" stroke-miterlimit="10"/><path d="M101.677 217.389a3.538 3.538 0 0 1-3.534-3.534v-6.627a3.538 3.538 0 0 1 3.534-3.534h17.566a3.538 3.538 0 0 1 3.534 3.534v6.627a3.538 3.538 0 0 1-3.534 3.534h-17.566z" fill="#8f5240"/><path d="M119.243 216.38h-17.566a2.532 2.532 0 0 1-2.524-2.524v-6.627a2.532 2.532 0 0 1 2.524-2.524h17.566a2.532 2.532 0 0 1 2.524 2.524v6.627a2.532 2.532 0 0 1-2.524 2.524z" fill="#fff"/><path d="M128.458 217.389a3.538 3.538 0 0 1-3.534-3.534v-6.627a3.538 3.538 0 0 1 3.534-3.534h17.565a3.538 3.538 0 0 1 3.534 3.534v6.627a3.538 3.538 0 0 1-3.534 3.534h-17.565z" fill="#8f5240"/><path d="M146.024 216.38h-17.566a2.532 2.532 0 0 1-2.524-2.524v-6.627a2.532 2.532 0 0 1 2.524-2.524h17.566a2.532 2.532 0 0 1 2.524 2.524v6.627a2.532 2.532 0 0 1-2.524 2.524z" fill="#fff"/><path d="M155.239 217.389a3.538 3.538 0 0 1-3.534-3.534v-6.627a3.538 3.538 0 0 1 3.534-3.534h17.565a3.538 3.538 0 0 1 3.534 3.534v6.627a3.538 3.538 0 0 1-3.534 3.534h-17.565z" fill="#8f5240"/><path d="M172.805 216.38h-17.566a2.532 2.532 0 0 1-2.524-2.524v-6.627a2.532 2.532 0 0 1 2.524-2.524h17.566a2.532 2.532 0 0 1 2.524 2.524v6.627a2.532 2.532 0 0 1-2.524 2.524z" fill="#fff"/><path d="M182.02 217.389a3.538 3.538 0 0 1-3.534-3.534v-6.627a3.538 3.538 0 0 1 3.534-3.534h17.565a3.538 3.538 0 0 1 3.535 3.534v6.627a3.538 3.538 0 0 1-3.535 3.534H182.02z" fill="#8f5240"/><path d="M199.586 216.38H182.02a2.532 2.532 0 0 1-2.524-2.524v-6.627a2.532 2.532 0 0 1 2.524-2.524h17.566a2.532 2.532 0 0 1 2.524 2.524v6.627a2.532 2.532 0 0 1-2.524 2.524z" fill="#fff"/><path d="M208.801 217.389a3.538 3.538 0 0 1-3.534-3.534v-6.627a3.538 3.538 0 0 1 3.534-3.534h17.566a3.538 3.538 0 0 1 3.534 3.534v6.627a3.538 3.538 0 0 1-3.534 3.534h-17.566z" fill="#8f5240"/><path d="M226.367 216.38h-17.566a2.532 2.532 0 0 1-2.524-2.524v-6.627a2.532 2.532 0 0 1 2.524-2.524h17.566a2.532 2.532 0 0 1 2.524 2.524v6.627a2.532 2.532 0 0 1-2.524 2.524z" fill="#fff"/><path d="M235.582 217.389a3.538 3.538 0 0 1-3.534-3.534v-6.627a3.538 3.538 0 0 1 3.534-3.534h17.566a3.538 3.538 0 0 1 3.534 3.534v6.627a3.538 3.538 0 0 1-3.534 3.534h-17.566z" fill="#8f5240"/><path d="M253.147 216.38h-17.566a2.532 2.532 0 0 1-2.524-2.524v-6.627a2.532 2.532 0 0 1 2.524-2.524h17.566a2.532 2.532 0 0 1 2.524 2.524v6.627a2.53 2.53 0 0 1-2.524 2.524z" fill="#fff"/><path d="M262.363 217.389a3.538 3.538 0 0 1-3.534-3.534v-6.627a3.538 3.538 0 0 1 3.534-3.534h17.566a3.538 3.538 0 0 1 3.534 3.534v6.627a3.538 3.538 0 0 1-3.534 3.534h-17.566z" fill="#8f5240"/><path d="M279.928 216.38h-17.566a2.532 2.532 0 0 1-2.524-2.524v-6.627a2.532 2.532 0 0 1 2.524-2.524h17.566a2.532 2.532 0 0 1 2.524 2.524v6.627a2.53 2.53 0 0 1-2.524 2.524z" fill="#fff"/><path d="M289.144 217.389a3.538 3.538 0 0 1-3.534-3.534v-6.627a3.538 3.538 0 0 1 3.534-3.534h17.565a3.538 3.538 0 0 1 3.534 3.534v6.627a3.538 3.538 0 0 1-3.534 3.534h-17.565z" fill="#8f5240"/><path d="M306.709 216.38h-17.566a2.532 2.532 0 0 1-2.524-2.524v-6.627a2.532 2.532 0 0 1 2.524-2.524h17.566a2.532 2.532 0 0 1 2.524 2.524v6.627a2.53 2.53 0 0 1-2.524 2.524z" fill="#fff"/><path d="M315.925 217.389a3.538 3.538 0 0 1-3.534-3.534v-6.627a3.538 3.538 0 0 1 3.534-3.534h17.565a3.538 3.538 0 0 1 3.534 3.534v6.627a3.538 3.538 0 0 1-3.534 3.534h-17.565z" fill="#8f5240"/><path d="M333.49 216.38h-17.566a2.532 2.532 0 0 1-2.524-2.524v-6.627a2.532 2.532 0 0 1 2.524-2.524h17.566a2.532 2.532 0 0 1 2.524 2.524v6.627a2.53 2.53 0 0 1-2.524 2.524z" fill="#fff"/><path d="M342.706 217.389a3.538 3.538 0 0 1-3.534-3.534v-6.627a3.538 3.538 0 0 1 3.534-3.534h17.565a3.538 3.538 0 0 1 3.534 3.534v6.627a3.538 3.538 0 0 1-3.534 3.534h-17.565z" fill="none" stroke="#fff" stroke-width=".947" stroke-miterlimit="10"/><path d="M360.271 216.38h-17.566a2.532 2.532 0 0 1-2.524-2.524v-6.627a2.532 2.532 0 0 1 2.524-2.524h17.566a2.532 2.532 0 0 1 2.524 2.524v6.627a2.53 2.53 0 0 1-2.524 2.524z" fill="#e20613"/></g><g><path d="M360.639 349.752H100.834c-3.471 0-6.311-2.84-6.311-6.311v-97.487c0-3.471 2.84-6.311 6.311-6.311h259.805c3.471 0 6.311 2.84 6.311 6.311v97.487c0 3.471-2.84 6.311-6.311 6.311z" fill="none" stroke="#fff" stroke-width="1.262" stroke-miterlimit="10"/><path d="M101.255 260.725a3.538 3.538 0 0 1-3.534-3.534v-7.889a3.538 3.538 0 0 1 3.534-3.534h17.565a3.538 3.538 0 0 1 3.534 3.534v7.889a3.538 3.538 0 0 1-3.534 3.534h-17.565z" fill="none" stroke="#fff" stroke-width=".947" stroke-miterlimit="10"/><path d="M118.821 259.715h-17.566a2.532 2.532 0 0 1-2.524-2.524v-7.889a2.532 2.532 0 0 1 2.524-2.524h17.566a2.532 2.532 0 0 1 2.524 2.524v7.889a2.532 2.532 0 0 1-2.524 2.524z" fill="#fff"/><path d="M128.176 260.725a3.538 3.538 0 0 1-3.534-3.534v-7.889a3.538 3.538 0 0 1 3.534-3.534h17.566a3.538 3.538 0 0 1 3.534 3.534v7.889a3.538 3.538 0 0 1-3.534 3.534h-17.566z" fill="none" stroke="#fff" stroke-width=".947" stroke-miterlimit="10"/><path d="M145.742 259.715h-17.566a2.532 2.532 0 0 1-2.524-2.524v-7.889a2.532 2.532 0 0 1 2.524-2.524h17.566a2.532 2.532 0 0 1 2.524 2.524v7.889a2.532 2.532 0 0 1-2.524 2.524z" fill="#fff"/><path d="M155.098 260.725a3.538 3.538 0 0 1-3.534-3.534v-7.889a3.538 3.538 0 0 1 3.534-3.534h17.565a3.538 3.538 0 0 1 3.534 3.534v7.889a3.538 3.538 0 0 1-3.534 3.534h-17.565z" fill="none" stroke="#fff" stroke-width=".947" stroke-miterlimit="10"/><path d="M172.663 259.715h-17.566a2.532 2.532 0 0 1-2.524-2.524v-7.889a2.532 2.532 0 0 1 2.524-2.524h17.566a2.532 2.532 0 0 1 2.524 2.524v7.889a2.532 2.532 0 0 1-2.524 2.524z" fill="#fff"/><path d="M182.018 260.725a3.538 3.538 0 0 1-3.534-3.534v-7.889a3.538 3.538 0 0 1 3.534-3.534h17.566a3.537 3.537 0 0 1 3.533 3.534v7.889a3.537 3.537 0 0 1-3.533 3.534h-17.566z" fill="none" stroke="#fff" stroke-width=".947" stroke-miterlimit="10"/><path d="M199.584 259.715h-17.566a2.532 2.532 0 0 1-2.524-2.524v-7.889a2.532 2.532 0 0 1 2.524-2.524h17.566a2.532 2.532 0 0 1 2.524 2.524v7.889a2.531 2.531 0 0 1-2.524 2.524z" fill="#fff"/><path d="M208.939 260.725a3.538 3.538 0 0 1-3.534-3.534v-7.889a3.538 3.538 0 0 1 3.534-3.534h17.566a3.538 3.538 0 0 1 3.534 3.534v7.889a3.538 3.538 0 0 1-3.534 3.534h-17.566z" fill="none" stroke="#fff" stroke-width=".947" stroke-miterlimit="10"/><path d="M226.505 259.715H208.94a2.532 2.532 0 0 1-2.524-2.524v-7.889a2.532 2.532 0 0 1 2.524-2.524h17.566a2.532 2.532 0 0 1 2.524 2.524v7.889a2.532 2.532 0 0 1-2.525 2.524z" fill="#fff"/><path d="M235.861 260.725a3.538 3.538 0 0 1-3.534-3.534v-7.889a3.538 3.538 0 0 1 3.534-3.534h17.566a3.538 3.538 0 0 1 3.534 3.534v7.889a3.538 3.538 0 0 1-3.534 3.534h-17.566z" fill="none" stroke="#fff" stroke-width=".947" stroke-miterlimit="10"/><path d="M253.426 259.715H235.86a2.532 2.532 0 0 1-2.524-2.524v-7.889a2.532 2.532 0 0 1 2.524-2.524h17.566a2.532 2.532 0 0 1 2.524 2.524v7.889a2.53 2.53 0 0 1-2.524 2.524z" fill="#fff"/><path d="M262.782 260.725a3.538 3.538 0 0 1-3.534-3.534v-7.889a3.538 3.538 0 0 1 3.534-3.534h17.566a3.538 3.538 0 0 1 3.534 3.534v7.889a3.538 3.538 0 0 1-3.534 3.534h-17.566z" fill="none" stroke="#fff" stroke-width=".947" stroke-miterlimit="10"/><path d="M280.347 259.715h-17.566a2.532 2.532 0 0 1-2.524-2.524v-7.889a2.532 2.532 0 0 1 2.524-2.524h17.566a2.532 2.532 0 0 1 2.524 2.524v7.889a2.53 2.53 0 0 1-2.524 2.524z" fill="#fff"/><path d="M289.704 260.725a3.538 3.538 0 0 1-3.534-3.534v-7.889a3.538 3.538 0 0 1 3.534-3.534h17.565a3.538 3.538 0 0 1 3.534 3.534v7.889a3.538 3.538 0 0 1-3.534 3.534h-17.565z" fill="none" stroke="#fff" stroke-width=".947" stroke-miterlimit="10"/><path d="M307.269 259.715h-17.566a2.532 2.532 0 0 1-2.524-2.524v-7.889a2.532 2.532 0 0 1 2.524-2.524h17.566a2.532 2.532 0 0 1 2.524 2.524v7.889a2.532 2.532 0 0 1-2.524 2.524z" fill="#fff"/><path d="M316.624 260.725a3.538 3.538 0 0 1-3.534-3.534v-7.889a3.538 3.538 0 0 1 3.534-3.534h17.566a3.538 3.538 0 0 1 3.534 3.534v7.889a3.538 3.538 0 0 1-3.534 3.534h-17.566z" fill="none" stroke="#fff" stroke-width=".947" stroke-miterlimit="10"/><path d="M334.19 259.715h-17.566a2.532 2.532 0 0 1-2.524-2.524v-7.889a2.532 2.532 0 0 1 2.524-2.524h17.566a2.532 2.532 0 0 1 2.524 2.524v7.889a2.532 2.532 0 0 1-2.524 2.524z" fill="#fff"/><path d="M114.693 286.81a3.538 3.538 0 0 1-3.534-3.534v-7.889a3.538 3.538 0 0 1 3.534-3.534h17.565a3.538 3.538 0 0 1 3.534 3.534v7.889a3.538 3.538 0 0 1-3.534 3.534h-17.565z" fill="none" stroke="#fff" stroke-width=".947" stroke-miterlimit="10"/><path d="M132.259 285.801h-17.566a2.532 2.532 0 0 1-2.524-2.524v-7.889a2.532 2.532 0 0 1 2.524-2.524h17.566a2.532 2.532 0 0 1 2.524 2.524v7.889a2.532 2.532 0 0 1-2.524 2.524z" fill="#fff"/><path d="M141.509 286.81a3.538 3.538 0 0 1-3.534-3.534v-7.889a3.538 3.538 0 0 1 3.534-3.534h17.565a3.538 3.538 0 0 1 3.534 3.534v7.889a3.538 3.538 0 0 1-3.534 3.534h-17.565z" fill="none" stroke="#fff" stroke-width=".947" stroke-miterlimit="10"/><path d="M159.074 285.801h-17.566a2.532 2.532 0 0 1-2.524-2.524v-7.889a2.532 2.532 0 0 1 2.524-2.524h17.566a2.532 2.532 0 0 1 2.524 2.524v7.889a2.532 2.532 0 0 1-2.524 2.524z" fill="#fff"/><path d="M168.323 286.81a3.538 3.538 0 0 1-3.534-3.534v-7.889a3.538 3.538 0 0 1 3.534-3.534h17.565a3.538 3.538 0 0 1 3.534 3.534v7.889a3.538 3.538 0 0 1-3.534 3.534h-17.565z" fill="none" stroke="#fff" stroke-width=".947" stroke-miterlimit="10"/><path d="M185.889 285.801h-17.566a2.532 2.532 0 0 1-2.524-2.524v-7.889a2.532 2.532 0 0 1 2.524-2.524h17.566a2.532 2.532 0 0 1 2.524 2.524v7.889a2.532 2.532 0 0 1-2.524 2.524z" fill="#fff"/><path d="M195.139 286.81a3.538 3.538 0 0 1-3.534-3.534v-7.889a3.538 3.538 0 0 1 3.534-3.534h17.566a3.538 3.538 0 0 1 3.534 3.534v7.889a3.538 3.538 0 0 1-3.534 3.534h-17.566z" fill="none" stroke="#fff" stroke-width=".947" stroke-miterlimit="10"/><path d="M212.704 285.801h-17.566a2.532 2.532 0 0 1-2.524-2.524v-7.889a2.532 2.532 0 0 1 2.524-2.524h17.566a2.532 2.532 0 0 1 2.524 2.524v7.889a2.53 2.53 0 0 1-2.524 2.524z" fill="#fff"/><path d="M221.954 286.81a3.538 3.538 0 0 1-3.534-3.534v-7.889a3.538 3.538 0 0 1 3.534-3.534h17.565a3.538 3.538 0 0 1 3.534 3.534v7.889a3.538 3.538 0 0 1-3.534 3.534h-17.565z" fill="none" stroke="#fff" stroke-width=".947" stroke-miterlimit="10"/><path d="M239.52 285.801h-17.566a2.532 2.532 0 0 1-2.524-2.524v-7.889a2.532 2.532 0 0 1 2.524-2.524h17.566a2.532 2.532 0 0 1 2.524 2.524v7.889a2.532 2.532 0 0 1-2.524 2.524z" fill="#fff"/><path d="M248.77 286.81a3.538 3.538 0 0 1-3.534-3.534v-7.889a3.538 3.538 0 0 1 3.534-3.534h17.565a3.538 3.538 0 0 1 3.534 3.534v7.889a3.538 3.538 0 0 1-3.534 3.534H248.77z" fill="none" stroke="#fff" stroke-width=".947" stroke-miterlimit="10"/><path d="M266.335 285.801h-17.566a2.532 2.532 0 0 1-2.524-2.524v-7.889a2.532 2.532 0 0 1 2.524-2.524h17.566a2.532 2.532 0 0 1 2.524 2.524v7.889a2.532 2.532 0 0 1-2.524 2.524z" fill="#fff"/><path d="M275.584 286.81a3.538 3.538 0 0 1-3.534-3.534v-7.889a3.538 3.538 0 0 1 3.534-3.534h17.566a3.538 3.538 0 0 1 3.534 3.534v7.889a3.538 3.538 0 0 1-3.534 3.534h-17.566z" fill="none" stroke="#fff" stroke-width=".947" stroke-miterlimit="10"/><path d="M293.15 285.801h-17.566a2.532 2.532 0 0 1-2.524-2.524v-7.889a2.532 2.532 0 0 1 2.524-2.524h17.566a2.532 2.532 0 0 1 2.524 2.524v7.889a2.532 2.532 0 0 1-2.524 2.524z" fill="#fff"/><path d="M302.399 286.81a3.538 3.538 0 0 1-3.534-3.534v-7.889a3.538 3.538 0 0 1 3.534-3.534h17.566a3.538 3.538 0 0 1 3.534 3.534v7.889a3.538 3.538 0 0 1-3.534 3.534h-17.566z" fill="none" stroke="#fff" stroke-width=".947" stroke-miterlimit="10"/><path d="M319.965 285.801H302.4a2.532 2.532 0 0 1-2.524-2.524v-7.889a2.532 2.532 0 0 1 2.524-2.524h17.566a2.532 2.532 0 0 1 2.524 2.524v7.889a2.532 2.532 0 0 1-2.525 2.524z" fill="#fff"/><path d="M329.215 286.81a3.538 3.538 0 0 1-3.534-3.534v-7.889a3.538 3.538 0 0 1 3.534-3.534h17.566a3.538 3.538 0 0 1 3.534 3.534v7.889a3.538 3.538 0 0 1-3.534 3.534h-17.566z" fill="none" stroke="#fff" stroke-width=".947" stroke-miterlimit="10"/><path d="M346.781 285.801h-17.566a2.532 2.532 0 0 1-2.524-2.524v-7.889a2.532 2.532 0 0 1 2.524-2.524h17.566a2.532 2.532 0 0 1 2.524 2.524v7.889a2.532 2.532 0 0 1-2.524 2.524z" fill="#fff"/><path d="M128.577 312.475a3.538 3.538 0 0 1-3.534-3.534v-7.889a3.538 3.538 0 0 1 3.534-3.534h17.565a3.538 3.538 0 0 1 3.534 3.534v7.889a3.538 3.538 0 0 1-3.534 3.534h-17.565z" fill="none" stroke="#fff" stroke-width=".947" stroke-miterlimit="10"/><path d="M146.143 311.465h-17.566a2.532 2.532 0 0 1-2.524-2.524v-7.889a2.532 2.532 0 0 1 2.524-2.524h17.566a2.532 2.532 0 0 1 2.524 2.524v7.889a2.532 2.532 0 0 1-2.524 2.524z" fill="#fff"/><path d="M155.393 312.475a3.538 3.538 0 0 1-3.534-3.534v-7.889a3.538 3.538 0 0 1 3.534-3.534h17.565a3.538 3.538 0 0 1 3.534 3.534v7.889a3.538 3.538 0 0 1-3.534 3.534h-17.565z" fill="none" stroke="#fff" stroke-width=".947" stroke-miterlimit="10"/><path d="M172.958 311.465h-17.566a2.532 2.532 0 0 1-2.524-2.524v-7.889a2.532 2.532 0 0 1 2.524-2.524h17.566a2.532 2.532 0 0 1 2.524 2.524v7.889a2.532 2.532 0 0 1-2.524 2.524z" fill="#fff"/><path d="M182.208 312.475a3.538 3.538 0 0 1-3.534-3.534v-7.889a3.538 3.538 0 0 1 3.534-3.534h17.565a3.538 3.538 0 0 1 3.535 3.534v7.889a3.538 3.538 0 0 1-3.535 3.534h-17.565z" fill="none" stroke="#fff" stroke-width=".947" stroke-miterlimit="10"/><path d="M199.773 311.465h-17.566a2.532 2.532 0 0 1-2.524-2.524v-7.889a2.532 2.532 0 0 1 2.524-2.524h17.566a2.532 2.532 0 0 1 2.524 2.524v7.889a2.53 2.53 0 0 1-2.524 2.524z" fill="#fff"/><path d="M209.023 312.475a3.538 3.538 0 0 1-3.534-3.534v-7.889a3.538 3.538 0 0 1 3.534-3.534h17.566a3.538 3.538 0 0 1 3.534 3.534v7.889a3.538 3.538 0 0 1-3.534 3.534h-17.566z" fill="none" stroke="#fff" stroke-width=".947" stroke-miterlimit="10"/><path d="M226.589 311.465h-17.566a2.532 2.532 0 0 1-2.524-2.524v-7.889a2.532 2.532 0 0 1 2.524-2.524h17.566a2.532 2.532 0 0 1 2.524 2.524v7.889a2.532 2.532 0 0 1-2.524 2.524z" fill="#fff"/><path d="M235.838 312.475a3.538 3.538 0 0 1-3.534-3.534v-7.889a3.538 3.538 0 0 1 3.534-3.534h17.565a3.538 3.538 0 0 1 3.534 3.534v7.889a3.538 3.538 0 0 1-3.534 3.534h-17.565z" fill="none" stroke="#fff" stroke-width=".947" stroke-miterlimit="10"/><path d="M253.404 311.465h-17.566a2.532 2.532 0 0 1-2.524-2.524v-7.889a2.532 2.532 0 0 1 2.524-2.524h17.566a2.532 2.532 0 0 1 2.524 2.524v7.889a2.532 2.532 0 0 1-2.524 2.524z" fill="#fff"/><path d="M195.053 340.191a3.538 3.538 0 0 1-3.534-3.534v-7.889a3.538 3.538 0 0 1 3.534-3.534h70.578a3.538 3.538 0 0 1 3.534 3.534v7.889a3.538 3.538 0 0 1-3.534 3.534h-70.578z" fill="none" stroke="#824c40" stroke-width=".947" stroke-miterlimit="10"/><path d="M265.63 339.181h-70.578a2.532 2.532 0 0 1-2.524-2.524v-7.889a2.532 2.532 0 0 1 2.524-2.524h70.578a2.532 2.532 0 0 1 2.524 2.524v7.889a2.53 2.53 0 0 1-2.524 2.524z" fill="#fff"/><path d="M262.654 312.475a3.538 3.538 0 0 1-3.534-3.534v-7.889a3.538 3.538 0 0 1 3.534-3.534h17.565a3.538 3.538 0 0 1 3.534 3.534v7.889a3.538 3.538 0 0 1-3.534 3.534h-17.565z" fill="none" stroke="#fff" stroke-width=".947" stroke-miterlimit="10"/><path d="M280.219 311.465h-17.566a2.532 2.532 0 0 1-2.524-2.524v-7.889a2.532 2.532 0 0 1 2.524-2.524h17.566a2.532 2.532 0 0 1 2.524 2.524v7.889a2.532 2.532 0 0 1-2.524 2.524z" fill="#fff"/><path d="M289.468 312.475a3.538 3.538 0 0 1-3.534-3.534v-7.889a3.538 3.538 0 0 1 3.534-3.534h17.566a3.538 3.538 0 0 1 3.534 3.534v7.889a3.538 3.538 0 0 1-3.534 3.534h-17.566z" fill="none" stroke="#fff" stroke-width=".947" stroke-miterlimit="10"/><path d="M307.034 311.465h-17.566a2.532 2.532 0 0 1-2.524-2.524v-7.889a2.532 2.532 0 0 1 2.524-2.524h17.566a2.532 2.532 0 0 1 2.524 2.524v7.889a2.53 2.53 0 0 1-2.524 2.524z" fill="#fff"/><path d="M316.284 312.475a3.538 3.538 0 0 1-3.534-3.534v-7.889a3.538 3.538 0 0 1 3.534-3.534h17.566a3.538 3.538 0 0 1 3.534 3.534v7.889a3.538 3.538 0 0 1-3.534 3.534h-17.566z" fill="none" stroke="#fff" stroke-width=".947" stroke-miterlimit="10"/><path d="M333.849 311.465h-17.566a2.532 2.532 0 0 1-2.524-2.524v-7.889a2.532 2.532 0 0 1 2.524-2.524h17.566a2.532 2.532 0 0 1 2.524 2.524v7.889a2.53 2.53 0 0 1-2.524 2.524z" fill="#fff"/><path d="M343.099 312.475a3.538 3.538 0 0 1-3.534-3.534v-7.889a3.538 3.538 0 0 1 3.534-3.534h17.566a3.538 3.538 0 0 1 3.534 3.534v7.889a3.538 3.538 0 0 1-3.534 3.534h-17.566z" fill="none" stroke="#fff" stroke-width=".947" stroke-miterlimit="10"/><path d="M360.665 311.465h-17.566a2.532 2.532 0 0 1-2.524-2.524v-7.889a2.532 2.532 0 0 1 2.524-2.524h17.566a2.532 2.532 0 0 1 2.524 2.524v7.889a2.532 2.532 0 0 1-2.524 2.524z" fill="#fff"/><path d="M343.545 260.725a3.538 3.538 0 0 1-3.534-3.534v-7.889a3.538 3.538 0 0 1 3.534-3.534h17.566a3.538 3.538 0 0 1 3.534 3.534v7.889a3.538 3.538 0 0 1-3.534 3.534h-17.566z" fill="none" stroke="#fff" stroke-width=".947" stroke-miterlimit="10"/><path d="M361.111 259.715h-17.566a2.532 2.532 0 0 1-2.524-2.524v-7.889a2.532 2.532 0 0 1 2.524-2.524h17.566a2.532 2.532 0 0 1 2.524 2.524v7.889a2.532 2.532 0 0 1-2.524 2.524zM94.523 327.243h94.612v10.939H94.523zM271.969 327.243h94.612v10.939h-94.612z" fill="#fff"/></g></svg>