<svg xmlns="http://www.w3.org/2000/svg" viewBox="0 0 1000 114"><title>logo</title><g id="Layer_2" data-name="Layer 2"><rect x="355.93" y="37" width="58" height="45.5" fill="#fff"/><rect x="488.27" y="40" width="47.67" height="38.69" fill="#fff"/></g><g id="Layer_1" data-name="Layer 1"><path d="M286.43,94.5a3.5,3.5,0,0,1-3.08-1.84l-36.44-68A3.5,3.5,0,0,1,250,19.5h19.43a3.52,3.52,0,0,1,3.09,1.84l26.72,49.89a3.53,3.53,0,0,1,0,3.31l-9.72,18.12a3.52,3.52,0,0,1-3.09,1.84Z" fill="#1d1d1b"/><path d="M269.43,23l26.72,49.89L286.43,91,250,23h19.43m0-7H250a7,7,0,0,0-6.17,10.3l36.43,68A7,7,0,0,0,286.43,98h0a7,7,0,0,0,6.17-3.69l9.72-18.11a7,7,0,0,0,0-6.62L275.6,19.69A7,7,0,0,0,269.43,16Z" fill="#fff"/><path d="M298.58,71.82A3.51,3.51,0,0,1,295.49,70l-9.71-18.12a3.45,3.45,0,0,1,0-3.3l14.57-27.21a3.5,3.5,0,0,1,3.08-1.84h19.43A3.5,3.5,0,0,1,326,24.65L301.66,70a3.49,3.49,0,0,1-3.08,1.85Z" fill="#1d1d1b"/><path d="M322.86,23h0m0,0L298.58,68.32,288.86,50.2,303.43,23h19.43m0-7H303.43a7,7,0,0,0-6.17,3.69l-14.57,27.2a7,7,0,0,0,0,6.62l9.72,18.12a7,7,0,0,0,6.17,3.69h0a7,7,0,0,0,6.17-3.7l24.19-45.14A7,7,0,0,0,322.87,16Zm0,14h0Z" fill="#fff"/><path d="M327.82,94.5a3.5,3.5,0,0,1-3.5-3.5V23a3.5,3.5,0,0,1,3.5-3.5h17.05a3.5,3.5,0,0,1,2.48,1,3.54,3.54,0,0,1,1,2.48l-.05,68a3.49,3.49,0,0,1-3.5,3.49Z" fill="#1d1d1b"/><path d="M344.87,23h0m0,0-.05,68h-17V23h17.05m0-7H327.82a7,7,0,0,0-7,7V91a7,7,0,0,0,7,7h17a7,7,0,0,0,7-7l.05-67.82V23a7,7,0,0,0-7-7Zm0,14h0Z" fill="#fff"/><path d="M352.1,94.5a3.5,3.5,0,0,1-3.5-3.5V23a3.5,3.5,0,0,1,3.5-3.5h17a3.5,3.5,0,0,1,2.48,1,3.54,3.54,0,0,1,1,2.48l0,68a3.49,3.49,0,0,1-3.5,3.49Z" fill="#1d1d1b"/><path d="M369.15,23h0m0,0,0,68h-17V23h17m0-7H352.11a7,7,0,0,0-7,7V91a7,7,0,0,0,7,7h17a7,7,0,0,0,7-7l0-67.82V23a7,7,0,0,0-7-7Zm0,14h0Z" fill="#fff"/><path d="M381.2,94.5H374a3.49,3.49,0,0,1-3.5-3.5V74a3.5,3.5,0,0,1,3.5-3.5h7.29a13.5,13.5,0,0,0,0-27H374a3.5,3.5,0,0,1-3.5-3.5V23a3.49,3.49,0,0,1,3.5-3.5h7.81a36.45,36.45,0,0,1,26,11,36.37,36.37,0,0,1,11,26.52,36.37,36.37,0,0,1-11,26.52,36.45,36.45,0,0,1-26,11Z" fill="#1d1d1b"/><path d="M381.78,23A32.78,32.78,0,0,1,405.3,33a32.78,32.78,0,0,1,10,24,32.78,32.78,0,0,1-10,24,32.78,32.78,0,0,1-23.52,10H374V74h7.29a17,17,0,0,0,0-34H374V23h7.81m0-7H374a7,7,0,0,0-7,7V40a7,7,0,0,0,7,7h7.29a10,10,0,0,1,0,20H374a7,7,0,0,0-7,7V91a7,7,0,0,0,7,7h7.81a41,41,0,0,0,40.48-41,39.92,39.92,0,0,0-12-29,40,40,0,0,0-28.47-12Z" fill="#fff"/><path d="M422.64,94.5a3.5,3.5,0,0,1-3.5-3.5V23a3.5,3.5,0,0,1,3.5-3.5h17.05a3.5,3.5,0,0,1,2.48,1,3.54,3.54,0,0,1,1,2.48l-.05,68a3.5,3.5,0,0,1-3.5,3.49Z" fill="#1d1d1b"/><path d="M439.69,23h0m0,0-.05,68h-17V23h17.05m0-7H422.64a7,7,0,0,0-7,7V91a7,7,0,0,0,7,7h17a7,7,0,0,0,7-7l.05-67.82V23a7,7,0,0,0-7-7Zm0,14Z" fill="#fff"/><rect x="441.01" y="19.5" width="33.71" height="24" rx="3.5" fill="#1d1d1b"/><path d="M471.22,23V40H444.5V23h26.72m0-7H444.5a7,7,0,0,0-7,7V40a7,7,0,0,0,7,7h26.72a7,7,0,0,0,7-7V23a7,7,0,0,0-7-7Z" fill="#fff"/><rect x="441.01" y="70.5" width="33.71" height="24" rx="3.5" fill="#1d1d1b"/><path d="M471.22,74V91H444.5V74h26.72m0-7H444.5a7,7,0,0,0-7,7V91a7,7,0,0,0,7,7h26.72a7,7,0,0,0,7-7V74a7,7,0,0,0-7-7Z" fill="#fff"/><rect x="441.01" y="45" width="33.71" height="24" rx="3.5" fill="#1d1d1b"/><path d="M471.22,48.5v17H444.5v-17h26.72m0-7H444.5a7,7,0,0,0-7,7v17a7,7,0,0,0,7,7h26.72a7,7,0,0,0,7-7v-17a7,7,0,0,0-7-7Z" fill="#fff"/><path d="M512.6,94.51a37.22,37.22,0,0,1-26.51-11,35.92,35.92,0,0,1-10.89-23.9,3.53,3.53,0,0,1,1-2.6,3.49,3.49,0,0,1,2.54-1.09h17.1a3.5,3.5,0,0,1,3.47,3A12.77,12.77,0,0,0,503,66.48a13.45,13.45,0,0,0,19.07.11l.11-.11A12.77,12.77,0,0,0,526,59a3.5,3.5,0,0,1,3.47-3h17.1a3.49,3.49,0,0,1,3.49,3.69,35.79,35.79,0,0,1-11,23.95A37.23,37.23,0,0,1,512.6,94.51Z" fill="#1d1d1b"/><path d="M546.56,59.43h0m0,0a32.46,32.46,0,0,1-9.91,21.62,34,34,0,0,1-48.09,0,32.56,32.56,0,0,1-9.86-21.62h17.1A16.23,16.23,0,0,0,500.61,69a16.95,16.95,0,0,0,24,.08l.08-.08a16.23,16.23,0,0,0,4.81-9.57h17.1m0-7h-17.1a7,7,0,0,0-6.94,6.09A9.26,9.26,0,0,1,519.78,64l-.09.09-.06.06a9.95,9.95,0,0,1-14.06-.06l-.09-.09a9.29,9.29,0,0,1-2.74-5.45,7,7,0,0,0-6.94-6.09H478.7a7,7,0,0,0-7,7.38A39.43,39.43,0,0,0,483.65,86a41,41,0,0,0,57.9,0,39.35,39.35,0,0,0,12-26c0-.2,0-.4,0-.6a7,7,0,0,0-7-7Zm0,14Z" fill="#fff"/><path d="M529.46,58.07a3.49,3.49,0,0,1-3.46-3,13.56,13.56,0,0,0-13.35-11.6,13.91,13.91,0,0,0-1.93.13,13.59,13.59,0,0,0-11.46,11.47,3.49,3.49,0,0,1-3.46,3H478.7A3.49,3.49,0,0,1,476.16,57a3.53,3.53,0,0,1-1-2.6,35.85,35.85,0,0,1,10.93-23.94,37.48,37.48,0,0,1,53,0,35.7,35.7,0,0,1,10.93,23.9,3.49,3.49,0,0,1-3.49,3.69Z" fill="#1d1d1b"/><path d="M512.61,23a33.89,33.89,0,0,1,24,10,32.46,32.46,0,0,1,9.91,21.62h-17.1A17,17,0,0,0,512.65,40a16.51,16.51,0,0,0-2.42.17A17,17,0,0,0,495.8,54.57H478.7A32.51,32.51,0,0,1,488.56,33a33.9,33.9,0,0,1,24.05-10m0-7a40.73,40.73,0,0,0-29,12A39.44,39.44,0,0,0,471.71,54.2a7,7,0,0,0,7,7.37h17.1a7,7,0,0,0,6.93-6,10,10,0,0,1,8.49-8.49,9.82,9.82,0,0,1,1.43-.1,10,10,0,0,1,9.88,8.59,7,7,0,0,0,6.93,6h17.1a7,7,0,0,0,7-7.38,39.37,39.37,0,0,0-12-26.24,40.74,40.74,0,0,0-28.94-12Z" fill="#fff"/><rect x="550.49" y="19.5" width="24" height="75.01" rx="3.5" fill="#1d1d1b"/><path d="M571,23V91H554V23h17m0-7H554a7,7,0,0,0-7,7V91a7,7,0,0,0,7,7h17a7,7,0,0,0,7-7V23a7,7,0,0,0-7-7Z" fill="#fff"/><path d="M575.85,69a3.5,3.5,0,0,1-3.5-3.5v-17a3.5,3.5,0,0,1,3.5-3.5H585a.6.6,0,0,0,.47-.18.72.72,0,0,0,.26-.53.76.76,0,0,0-.74-.79h-9.13a3.5,3.5,0,0,1-3.5-3.5V23a3.5,3.5,0,0,1,3.5-3.5h9.45a24.74,24.74,0,0,1,24.41,24.73A24.72,24.72,0,0,1,585.31,69Z" fill="#1d1d1b"/><path d="M585.31,23A20.42,20.42,0,0,1,600,29.21a20.43,20.43,0,0,1,6.22,15A20.49,20.49,0,0,1,600,59.29,20.46,20.46,0,0,1,585.3,65.5h-9.45v-17H585a4.23,4.23,0,0,0,4.17-4.28A4.22,4.22,0,0,0,585,40h-9.13V23h9.46m0-7h-9.46a7,7,0,0,0-7,7V40a7,7,0,0,0,1.44,4.25,7,7,0,0,0-1.44,4.25v17a7,7,0,0,0,7,7h9.45a28.22,28.22,0,0,0,27.91-28.28A28.24,28.24,0,0,0,585.31,16Z" fill="#fff"/><path d="M609.85,94.5a3.5,3.5,0,0,1-3.08-5.15L631.06,44a3.5,3.5,0,0,1,6.17,0l9.71,18.12a3.45,3.45,0,0,1,0,3.3L632.37,92.66a3.52,3.52,0,0,1-3.09,1.84Z" fill="#1d1d1b"/><path d="M634.15,45.68l9.71,18.12L629.28,91H609.85l24.3-45.32m0-7h0a7,7,0,0,0-6.17,3.7L603.68,87.7A7,7,0,0,0,609.85,98h19.43a7,7,0,0,0,6.17-3.69L650,67.11a7,7,0,0,0,0-6.62l-9.71-18.11a7,7,0,0,0-6.17-3.7Z" fill="#fff"/><path d="M663.29,94.5a3.52,3.52,0,0,1-3.09-1.84l-2.26-4.23H637.4a3.5,3.5,0,0,1-3.09-5.15l9.09-17a3.49,3.49,0,0,1,1.83-1.62L633.49,42.77a3.53,3.53,0,0,1,0-3.31l9.71-18.12a3.52,3.52,0,0,1,3.09-1.84h0a3.5,3.5,0,0,1,3.08,1.84l36.43,68a3.5,3.5,0,0,1-3.08,5.15Z" fill="#1d1d1b"/><path d="M646.29,23l36.43,68H663.29L660,84.93H637.4l9.08-17H651L636.57,41.11,646.29,23m0-7a7,7,0,0,0-6.17,3.69l-9.71,18.12a7,7,0,0,0,0,6.61l10.4,19.41a7.18,7.18,0,0,0-.5.8l-9.09,17a7,7,0,0,0,6.18,10.3h18.45l1.27,2.38A7,7,0,0,0,663.29,98h19.43a7,7,0,0,0,6.17-10.3l-36.43-68A7,7,0,0,0,646.29,16Z" fill="#fff"/><path d="M719.06,94.4a35.93,35.93,0,0,1-23.9-10.88,36.43,36.43,0,0,1-11-26.52,36.35,36.35,0,0,1,11-26.52,35.88,35.88,0,0,1,23.9-10.88h.19a3.5,3.5,0,0,1,3.5,3.5V40.14a3.5,3.5,0,0,1-3,3.47,12.89,12.89,0,0,0-7.52,3.78l-.08.07A13,13,0,0,0,708.18,57v.11a12.79,12.79,0,0,0,3.92,9.41l.11.11a12.74,12.74,0,0,0,7.5,3.81,3.5,3.5,0,0,1,3,3.47v17a3.5,3.5,0,0,1-3.5,3.5Z" fill="#1d1d1b"/><path d="M719.25,23.09V40.14A17.06,17.06,0,0,0,704.68,57a16.29,16.29,0,0,0,5,12,16.16,16.16,0,0,0,9.57,4.86v17a32.6,32.6,0,0,1-21.62-9.86,32.77,32.77,0,0,1-10-24,32.77,32.77,0,0,1,10-24,32.6,32.6,0,0,1,21.62-9.86m0-7h-.38A39.47,39.47,0,0,0,692.68,28a39.89,39.89,0,0,0-12,29,40,40,0,0,0,12,29,39.47,39.47,0,0,0,26.19,11.9h.38a7,7,0,0,0,7-7v-17a7,7,0,0,0-6.08-6.94,9.18,9.18,0,0,1-5.43-2.76l-.21-.21a9.32,9.32,0,0,1-2.85-6.84V56.9A9.46,9.46,0,0,1,714.55,50l.15-.15a9.33,9.33,0,0,1,5.47-2.75,7,7,0,0,0,6.08-6.94v-17a7,7,0,0,0-7-7Z" fill="#fff"/><path d="M735.86,51A3.49,3.49,0,0,1,733,49.5a14.06,14.06,0,0,0-1.71-2.06,13.12,13.12,0,0,0-7.61-3.83,3.5,3.5,0,0,1-3-3.47v-17a3.5,3.5,0,0,1,3.5-3.5h.19a35.91,35.91,0,0,1,23.94,10.92,38.48,38.48,0,0,1,4.65,5.62,3.48,3.48,0,0,1-.95,4.88L737.8,50.44A3.47,3.47,0,0,1,735.86,51Z" fill="#1d1d1b"/><path d="M724.11,23.09A32.56,32.56,0,0,1,745.72,33,35.22,35.22,0,0,1,750,38.11l-14.14,9.42A17,17,0,0,0,733.73,45a16.52,16.52,0,0,0-9.62-4.82v-17m0-7a7,7,0,0,0-7,7V40.14a7,7,0,0,0,6.07,6.94,9.51,9.51,0,0,1,5.54,2.77l.07.07a10.11,10.11,0,0,1,1.29,1.55,7,7,0,0,0,5.79,3.06,6.92,6.92,0,0,0,3.87-1.18l14.14-9.42a7,7,0,0,0,1.91-9.76A42.74,42.74,0,0,0,750.71,28,39.46,39.46,0,0,0,724.49,16.1Z" fill="#fff"/><path d="M724.11,94.41a3.5,3.5,0,0,1-3.5-3.5V73.85a3.5,3.5,0,0,1,3-3.47,12.84,12.84,0,0,0,7.55-3.81,15.12,15.12,0,0,0,1.8-2.12A3.5,3.5,0,0,1,735.86,63a3.45,3.45,0,0,1,1.94.59L751.94,73a3.48,3.48,0,0,1,.95,4.88,38.67,38.67,0,0,1-4.7,5.67A35.86,35.86,0,0,1,724.3,94.4Z" fill="#1d1d1b"/><path d="M735.86,66.47,750,75.89a35.22,35.22,0,0,1-4.28,5.16,32.56,32.56,0,0,1-21.61,9.86V73.85A16.33,16.33,0,0,0,733.73,69a19.81,19.81,0,0,0,2.13-2.53m0-7a7,7,0,0,0-5.72,3,12.23,12.23,0,0,1-1.36,1.6,1.14,1.14,0,0,1-.11.11,9.29,9.29,0,0,1-5.49,2.77,7,7,0,0,0-6.08,6.94V90.91a7,7,0,0,0,7,7h.38A39.46,39.46,0,0,0,750.71,86a42.74,42.74,0,0,0,5.08-6.13,7,7,0,0,0-1.91-9.76l-14.14-9.42a6.92,6.92,0,0,0-3.87-1.18Z" fill="#fff"/><g id="Capa_1" data-name="Capa 1"><path id="path3904" d="M296.15,72.89,286.43,91,250,23h19.43Z" fill="#1d1d1b"/><path id="path2987" d="M288.86,50.2,303.43,23h19.43L298.58,68.32Z" fill="#1d1d1b"/><path id="path2989" d="M327.82,23h17.05l-.05,68h-17Z" fill="#1d1d1b"/><path id="path3908" d="M352.11,23h17l0,68h-17Z" fill="#1d1d1b"/><path id="path2991" d="M374,40V23h7.29a32.76,32.76,0,0,1,24,10,32.78,32.78,0,0,1,10,24,32.78,32.78,0,0,1-10,24,32.76,32.76,0,0,1-24,10H374V74h7.29a17,17,0,0,0,0-34Z" fill="#1d1d1b"/><path id="path3916" d="M422.64,23h17.05l-.05,68h-17Z" fill="#1d1d1b"/><path id="path3914" d="M444.5,23h26.72V40H444.5Z" fill="#1d1d1b"/><path id="path3912" d="M444.5,74h26.72V91H444.5Z" fill="#1d1d1b"/><path id="path2993" d="M444.5,48.5h26.72v17H444.5Z" fill="#1d1d1b"/><path id="path3920" d="M529.46,59.43h17.1a32.46,32.46,0,0,1-9.91,21.62,34,34,0,0,1-48.09,0,32.56,32.56,0,0,1-9.86-21.62h17.1A16.23,16.23,0,0,0,500.61,69a16.94,16.94,0,0,0,24,.08l.08-.08A16.23,16.23,0,0,0,529.46,59.43Z" fill="#1d1d1b"/><path id="path2995" d="M495.8,54.57H478.7A32.51,32.51,0,0,1,488.56,33a34,34,0,0,1,48.09,0,32.46,32.46,0,0,1,9.91,21.62h-17.1a17,17,0,0,0-33.66,0Z" fill="#1d1d1b"/><path id="path3924" d="M554,23h17V91H554Z" fill="#1d1d1b"/><path id="path2997" d="M575.85,40V23H585a21.22,21.22,0,0,1,21.23,21.22A20.49,20.49,0,0,1,600,59.29a20.46,20.46,0,0,1-15,6.21h-9.13v-17H585a4.23,4.23,0,0,0,4.23-4.28A4.22,4.22,0,0,0,585,40Z" fill="#1d1d1b"/><path id="path3928" d="M643.86,63.8,629.28,91H609.85l24.3-45.32Z" fill="#1d1d1b"/><path id="path2999" d="M651,67.93,636.58,41.11,646.29,23l36.43,68H663.29L660,84.93H637.4l9.08-17Z" fill="#1d1d1b"/><path id="path3934" d="M719.25,73.86v17a32.6,32.6,0,0,1-21.62-9.86,32.77,32.77,0,0,1-10-24,32.77,32.77,0,0,1,10-24,32.6,32.6,0,0,1,21.62-9.86V40.14A17.06,17.06,0,0,0,704.68,57a16.29,16.29,0,0,0,5,12A16.16,16.16,0,0,0,719.25,73.86Z" fill="#1d1d1b"/><path id="path3932" d="M735.86,47.53A17,17,0,0,0,733.73,45a16.52,16.52,0,0,0-9.62-4.82v-17A32.56,32.56,0,0,1,745.72,33,35.22,35.22,0,0,1,750,38.11Z" fill="#1d1d1b"/><path id="path3001" d="M750,75.89a35.22,35.22,0,0,1-4.28,5.16,32.56,32.56,0,0,1-21.61,9.86V73.85A16.33,16.33,0,0,0,733.73,69a19.81,19.81,0,0,0,2.13-2.53Z" fill="#1d1d1b"/></g></g></svg>