<svg xmlns="http://www.w3.org/2000/svg" viewBox="0 0 1000 114"><title>logo</title><g id="Layer_2" data-name="Layer 2"><rect x="393.34" y="38" width="77.56" height="19" fill="#fff"/><rect x="287.34" y="66.89" width="50.74" height="20.99" fill="#fff"/></g><g id="Layer_1" data-name="Layer 1"><path d="M354.57,80a2.62,2.62,0,0,1,.69.11v3a5.38,5.38,0,0,0-1.14-.11h0c-2.32,0-3.1,1.67-3.1,3.7V91.8h-3.17l-.07-11.53h3.11v2.15A4.07,4.07,0,0,1,354.57,80m0-7h-.09a11,11,0,0,0-2.69.36,6.69,6.69,0,0,0-.9-.06h-3.11a7,7,0,0,0-7,7l.07,11.53a7,7,0,0,0,7,7H351a7,7,0,0,0,7-7V89.46a7.45,7.45,0,0,0,1.66-1A7,7,0,0,0,362.26,83v-3a7,7,0,0,0-4.88-6.67,9.66,9.66,0,0,0-2.77-.44Z" fill="#fff"/><path d="M307,80h.2c3.61,0,5.24,2.92,5.24,6.21,0,3.1-1.7,6-5.06,6h-.11a4.11,4.11,0,0,1-3.38-1.77v5.43h-3.19V80.27h3v1.48h0A3.82,3.82,0,0,1,307,80m-.5,9.77c2.06,0,2.77-1.86,2.77-3.74l0,.08c0-1.83-.73-3.72-2.76-3.72s-2.75,1.85-2.75,3.72.71,3.66,2.77,3.66M307,73a11.06,11.06,0,0,0-2.71.34,5.44,5.44,0,0,0-.57,0h-3a7,7,0,0,0-7,7V95.79a7,7,0,0,0,7,7h3.19a7,7,0,0,0,6.32-4c5.42-1.3,9.23-6.3,9.23-12.63,0-7.59-5.07-13.12-12.07-13.2Z" fill="#fff"/><path d="M332.66,80c2.73,0,5.22,1.43,5.43,4.38l-3.11,0a2.16,2.16,0,0,0-2.15-2h-.18c-2,0-2.7,2-2.7,3.74s.65,3.64,2.64,3.64h.08a2.44,2.44,0,0,0,2.44-2.33h3.05a5.17,5.17,0,0,1-5.56,4.74h-.23a5.6,5.6,0,0,1-5.59-5.37h0v-.55c0-3.59,2.15-6.25,5.89-6.25m5.5,7.43h0M332.66,73c-7.46,0-12.89,5.57-12.89,13.25v.55c0,.09,0,.19,0,.29h0a12.57,12.57,0,0,0,12.59,12.08h.37a12.1,12.1,0,0,0,12.32-10.53,8,8,0,0,0,.1-1.21,7.07,7.07,0,0,0-.2-1.67,7.38,7.38,0,0,0,.12-1.88c-.45-6.3-5.67-10.88-12.42-10.88Z" fill="#fff"/><path d="M344,76.74v3.53h2.33v2.12H344V88c0,1.07.27,1.35,1.34,1.35h0a5.34,5.34,0,0,0,1-.1v2.48a12,12,0,0,1-1.7.11h-.15c-1.94,0-3.64-.45-3.64-2.74V82.32h-1.92V80.2h1.92V76.74H344m0-7h-3.17a7,7,0,0,0-6.84,5.48,7,7,0,0,0-2.08,5v2.12a7,7,0,0,0,1.92,4.82v2c0,4.85,3.29,9.74,10.64,9.74h.15a19.85,19.85,0,0,0,2.67-.18,7,7,0,0,0,6-6.93V89.28a7,7,0,0,0-.9-3.43,7,7,0,0,0,.91-3.46V80.27a7,7,0,0,0-2.59-5.43,7,7,0,0,0-6.74-5.1Z" fill="#fff"/><path d="M292.06,75.46c3.32,0,6.38,1.45,6.38,5.13h-3.39c-.11-1.92-1.47-2.41-3.15-2.41-1.11,0-2.4.47-2.4,1.81s.77,1.38,4.75,2.41c1.16.29,4.73,1,4.73,4.66,0,2.91-2.33,5.1-6.63,5.1-3.52,0-6.83-1.74-6.78-5.66l3.39,0c0,2.12,1.65,2.94,3.52,2.94,1.23,0,3.11-.35,3.11-2s-2.39-2-4.74-2.63-4.74-1.56-4.74-4.54c0-3.25,3.1-4.81,5.95-4.81m0-7c-7.39,0-12.95,5.08-12.95,11.81a12,12,0,0,0,.33,2.85,7,7,0,0,0-.87,3.29A12.14,12.14,0,0,0,282,95.18a14.32,14.32,0,0,0,10.34,4c8.95,0,13.63-6.09,13.63-12.1a11.85,11.85,0,0,0-.85-4.4,7.05,7.05,0,0,0,.31-2.07c0-7.14-5.5-12.13-13.38-12.13Z" fill="#fff"/><path d="M319.61,80c3.93,0,5.82,3.3,5.61,6.85h-8.29c.09,2,1.07,2.92,2.83,2.92h.14a2.6,2.6,0,0,0,2.36-1.5H325a5.17,5.17,0,0,1-5,3.9l-.42,0c-3.63,0-5.89-2.5-5.89-6.06A5.72,5.72,0,0,1,319.61,80m2.47,4.84c-.29-1.61-1-2.45-2.52-2.45h-.15a2.48,2.48,0,0,0-2.48,2.33v.11l5.15,0M319.61,73a12.7,12.7,0,0,0-12.89,13.09c0,7.48,5.3,12.93,12.63,13.06l.68,0A12.19,12.19,0,0,0,331.83,90a7.42,7.42,0,0,0,.21-1.62,5.81,5.81,0,0,0,.16-1.12,14,14,0,0,0-3.54-10.46A12.24,12.24,0,0,0,319.61,73Z" fill="#fff"/><path d="M278.5,75.79h0m0,0-5.09,7.59L279,91.7h-4.13l-3.48-5.51L267.8,91.7h-4l5.58-8.32-5.12-7.59h4.05l3.11,5.09,3.23-5.09h3.84m0-7h-3.84a7,7,0,0,0-3.17.76,7,7,0,0,0-3.17-.76h-4.05a7,7,0,0,0-5.8,10.92L261,83.39l-3,4.41a7,7,0,0,0,5.81,10.9h4a7,7,0,0,0,3.51-.94,7,7,0,0,0,3.52.94H279a7,7,0,0,0,5.82-10.88l-2.95-4.43,2.39-3.56a7,7,0,0,0-5.72-11Z" fill="#fff"/><path d="M322.85,18.21V25h-7.27V18.21h7.27m0-7h-7.27a7,7,0,0,0-7,7V25a7,7,0,0,0,7,7h7.27a7,7,0,0,0,7-7V18.21a7,7,0,0,0-7-7Z" fill="#fff"/><path d="M322.85,28.89V64.37h-7.27V28.89h7.27m0-7h-7.27a7,7,0,0,0-7,7V64.37a7,7,0,0,0,7,7h7.27a7,7,0,0,0,7-7V28.89a7,7,0,0,0-7-7Z" fill="#fff"/><path d="M310.88,28.76v6.8H257.43l.33,7.41h53.43V64.38H250.5V57.55h53.4V49.79H250.5l-.34-21h60.72m0-7H250.16a7,7,0,0,0-7,7.11l.34,21a6.94,6.94,0,0,0,1.17,3.77,7,7,0,0,0-1.17,3.88v6.82a7,7,0,0,0,7,7h60.69a7,7,0,0,0,7-7V43A7,7,0,0,0,317,39a7,7,0,0,0,.91-3.46v-6.8a7,7,0,0,0-7-7Z" fill="#fff"/><path d="M263.19,75.78v2.77l-8.54,10.26h8.77v2.94H250V89l8.53-10.24h-7.86V75.78h12.52m0-7H250.67a7,7,0,0,0-7,7v2.94a7,7,0,0,0,1.82,4.72l-.87,1A7,7,0,0,0,243,89v2.79a7,7,0,0,0,7,7h13.42a7,7,0,0,0,7-7V88.81a7,7,0,0,0-2.32-5.21l.47-.57a7,7,0,0,0,1.62-4.48V75.78a7,7,0,0,0-7-7Z" fill="#fff"/><path d="M367.29,80.2V91.8h-3V90.2h-.06a4.14,4.14,0,0,1-3.5,1.92h0c-3.37,0-4.21-1.9-4.21-4.75V80.2h3.16v6.51c0,1.9.56,2.84,2,2.84,1.72,0,2.46-1,2.46-3.31v-6h3.17m0-7h-3.17a7.26,7.26,0,0,0-2.25.36,7.15,7.15,0,0,0-2.24-.36h-3.16a7,7,0,0,0-7,7v7.17c0,8.66,6,11.74,11.19,11.75h0a11.47,11.47,0,0,0,2.82-.35c.24,0,.49,0,.74,0h3a7,7,0,0,0,7-7V80.2a7,7,0,0,0-7-7Z" fill="#fff"/><path d="M464.17,18.21V64.38H456.9V18.21h7.27m0-7H456.9a7,7,0,0,0-7,7V64.37a7,7,0,0,0,7,7h7.27a7,7,0,0,0,7-7V18.21a7,7,0,0,0-7-7Z" fill="#fff"/><path d="M540.42,28.89V64.37h-7.31V28.89h7.31m0-7h-7.31a7,7,0,0,0-7,7V64.37a7,7,0,0,0,7,7h7.31a7,7,0,0,0,7-7V28.89a7,7,0,0,0-7-7Z" fill="#fff"/><path d="M528.78,28.89V64.4H468.05v-21h53.41V35.7H468.05V28.89h60.73M475.35,57.55h46.11V49.79h-46.1v7.76m53.43-35.66H468.05a7,7,0,0,0-7,7V35.7a7,7,0,0,0,1.17,3.87,7,7,0,0,0-1.17,3.88v21a7,7,0,0,0,7,7h60.73a7,7,0,0,0,7-7V28.89a7,7,0,0,0-7-7Z" fill="#fff"/><path d="M540.42,18.21V25h-7.31V18.21h7.31m0-7h-7.31a7,7,0,0,0-7,7V25a7,7,0,0,0,7,7h7.31a7,7,0,0,0,7-7V18.21a7,7,0,0,0-7-7Z" fill="#fff"/><path d="M605.51,28.89V35.7H552.09V64.4h-7.28V28.89h60.7m0-7h-60.7a7,7,0,0,0-7,7V64.37a7,7,0,0,0,7,7h7.28a7,7,0,0,0,7-7V42.7h46.42a7,7,0,0,0,7-7V28.89a7,7,0,0,0-7-7Z" fill="#fff"/><path d="M387.45,28.89V64.37h-7.28V35.66H334V64.37h-7.27V28.89h60.7m0-7h-60.7a7,7,0,0,0-7,7V64.37a7,7,0,0,0,7,7H334a7,7,0,0,0,7-7V42.66h32.15V64.37a7,7,0,0,0,7,7h7.28a7,7,0,0,0,7-7V28.89a7,7,0,0,0-7-7Z" fill="#fff"/><path d="M376.64,79.94a3.43,3.43,0,0,1,3.08,1.93A4.17,4.17,0,0,1,383.19,80c2.46,0,4.22,1.14,4.22,4.13V91.8h-3.17V85.26c0-1.55-.13-2.81-1.94-2.81s-2.12,1.47-2.12,2.92V91.8H377V85.33c0-1.34.08-2.88-1.93-2.88-.62,0-2.14.4-2.14,2.66V91.8h-3.16V80.27h3v1.56h.05A4.13,4.13,0,0,1,376.29,80h.35m0-7h-.54a11.5,11.5,0,0,0-2.63.36c-.23,0-.46,0-.7,0h-3a7,7,0,0,0-7,7V91.8a7,7,0,0,0,7,7H373a7.24,7.24,0,0,0,2-.3,7.12,7.12,0,0,0,2,.3h3.16a7.12,7.12,0,0,0,2-.3,7.17,7.17,0,0,0,2,.3h3.17a7,7,0,0,0,7-7V84.08c0-6.56-4.61-11.13-11.22-11.13h-.06a11.38,11.38,0,0,0-3.25.51,10.37,10.37,0,0,0-3.24-.52Z" fill="#fff"/><path d="M452.08,28.89V35.7H398.64V57.55h53.44v6.83H391.32V28.89h60.76m0-7H391.32a7,7,0,0,0-7,7V64.37a7,7,0,0,0,7,7h60.76a7,7,0,0,0,7-7V57.55a7,7,0,0,0-7-7H405.64V42.7h46.44a7,7,0,0,0,7-7V28.89a7,7,0,0,0-7-7Z" fill="#fff"/><path d="M659.38,20.12h0m0,0-53,53H576.21l53-53h30.17m0-7H629.21a7,7,0,0,0-5,2.06l-53,53a7,7,0,0,0,5,12h30.17a7,7,0,0,0,5-2.06l52.93-52.94a7,7,0,0,0-4.87-12Zm0,14h0Z" fill="#fff"/><path d="M689.62,20.12h0m0,0-53,53H606.47l53-53h30.17m0-7H659.45a7,7,0,0,0-5,2.06l-53,53a7,7,0,0,0,5,12h30.17a7,7,0,0,0,5-2.06L694.5,25.15a7,7,0,0,0-4.87-12Zm0,14h0Z" fill="#fff"/><path d="M719.83,20.12h0m0,0-53,53H636.66l53-53h30.17m0-7H689.66a7,7,0,0,0-4.95,2.06l-53,53a7,7,0,0,0,4.95,12h30.16a7,7,0,0,0,4.95-2.06l52.94-52.94a7,7,0,0,0-4.87-12Zm0,14h0Z" fill="#fff"/><path d="M750,20.12h0m0,0-53,53H666.84l53-53H750m0-7H719.85a7,7,0,0,0-5,2.06l-53,53a7,7,0,0,0,5,12H697a7,7,0,0,0,5-2.06l52.91-52.94a7,7,0,0,0-4.87-12Zm0,14Z" fill="#fff"/><path d="M250.5,64.37V57.55h53.4V49.79H250.5l-.34-21h60.72v6.8H257.43l.33,7.41h53.43V64.38H250.5Zm65.08,0V28.89h7.27V64.37Zm11.17,0V28.89h60.7V64.37h-7.28V35.66H334V64.37Zm64.57,0V28.89h60.76V35.7H398.64V57.55h53.44v6.83H391.32Zm65.58,0V18.21h7.27V64.38H456.9Zm76.21,0V28.89h7.31V64.37Zm11.7,0V28.89h60.7V35.7H552.09V64.4h-7.28ZM468.05,28.89V35.7h53.41v7.75H468.05v21h60.73V28.89Zm53.41,28.66H475.35V49.79h46.1ZM315.58,25V18.21h7.27V25Zm217.53,0V18.21h7.31V25ZM250,89l8.53-10.24h-7.86V75.78h12.52v2.77l-8.54,10.26h8.77v2.94H250Zm19.39-5.58-5.12-7.59h4.05l3.11,5.09,3.23-5.09h3.84l-5.09,7.59L279,91.7h-4.13l-3.48-5.51L267.8,91.7h-4ZM289,86.48c0,2.12,1.65,2.94,3.52,2.94,1.23,0,3.11-.35,3.11-2s-2.39-2-4.74-2.63-4.74-1.56-4.74-4.54c0-3.25,3.1-4.81,5.95-4.81,3.32,0,6.38,1.45,6.38,5.13h-3.39c-.11-1.92-1.47-2.41-3.15-2.41-1.11,0-2.4.47-2.4,1.81s.77,1.38,4.75,2.41c1.16.29,4.73,1,4.73,4.66,0,2.91-2.33,5.1-6.63,5.1-3.52,0-6.83-1.74-6.78-5.66Zm11.75-6.21h3v1.48h0A3.84,3.84,0,0,1,307.21,80c3.61,0,5.24,2.92,5.24,6.21,0,3.1-1.7,6-5.06,6a4.1,4.1,0,0,1-3.49-1.77h0v5.43h-3.19Zm8.54,5.8c0-1.83-.73-3.72-2.76-3.72s-2.75,1.85-2.75,3.72.71,3.66,2.77,3.66,2.77-1.86,2.77-3.74Zm7.68.78c.09,2,1.07,2.92,2.83,2.92a2.61,2.61,0,0,0,2.5-1.5H325a5.16,5.16,0,0,1-5.43,3.88c-3.63,0-5.89-2.5-5.89-6.06A5.72,5.72,0,0,1,319.61,80c3.93,0,5.82,3.3,5.61,6.85Zm5.15-2c-.29-1.61-1-2.45-2.52-2.45a2.49,2.49,0,0,0-2.63,2.32h0v.11Zm12.9-.47a2.16,2.16,0,0,0-2.32-2h0c-2,0-2.7,2-2.7,3.74s.65,3.64,2.64,3.64a2.44,2.44,0,0,0,2.52-2.33h3.05a5.17,5.17,0,0,1-5.56,4.74,5.6,5.6,0,0,1-5.82-5.37h0v-.55c0-3.59,2.15-6.25,5.89-6.25,2.73,0,5.22,1.43,5.43,4.38Zm9-4.1h2.33v2.12H344V88c0,1.07.27,1.35,1.34,1.35a5.34,5.34,0,0,0,1-.1v2.48a12.68,12.68,0,0,1-1.85.11c-1.94,0-3.64-.45-3.64-2.74V82.32h-1.92V80.2h1.92V76.74H344Zm3.83,0h3.11v2.15h0A4.07,4.07,0,0,1,354.57,80a2.62,2.62,0,0,1,.69.11v3a4.8,4.8,0,0,0-1.14-.11c-2.32,0-3.1,1.67-3.1,3.7V91.8h-3.17ZM367.29,91.8h-3V90.2h-.06a4.14,4.14,0,0,1-3.53,1.92c-3.37,0-4.21-1.9-4.21-4.75V80.2h3.16v6.51c0,1.9.56,2.84,2,2.84,1.72,0,2.46-1,2.46-3.31v-6h3.17Zm2.5-11.53h3v1.56h.05A4.15,4.15,0,0,1,376.34,80a3.43,3.43,0,0,1,3.38,1.92A4.17,4.17,0,0,1,383.19,80c2.46,0,4.22,1.14,4.22,4.13V91.8h-3.17V85.26c0-1.55-.13-2.81-1.94-2.81s-2.12,1.47-2.12,2.92V91.8H377V85.33c0-1.34.08-2.88-1.93-2.88-.62,0-2.14.4-2.14,2.66V91.8h-3.16Z"/><path d="M629.21,20.12l-53,53h30.17l53-53" fill="#ca2825"/><path d="M659.45,20.12l-53,53h30.17l53-53" fill="#fdc601"/><path d="M689.66,20.12l-53,53h30.16l53-53" fill="#009c37"/><path d="M719.85,20.12l-53,53H697l53-53" fill="#02559c"/></g></svg>