<svg id="Layer_1" data-name="Layer 1" xmlns="http://www.w3.org/2000/svg" viewBox="0 0 1000 114.00001"><title>logo</title><rect x="369.35445" y="30.97" width="81.32001" height="26.03" fill="#fff"/><path d="M267.58445,105.66c-6.53,0-11.1-4.65-11.1-11.32a11,11,0,0,1,10.65422-11.33523q.22283-.0069.44578-.00477a10.23,10.23,0,0,1,7.65,3.18,12.52,12.52,0,0,1,3.06,9.37,3.71969,3.71969,0,0,1-.28,1.17,3.50994,3.50994,0,0,1-.15,1.54A10.15,10.15,0,0,1,267.58445,105.66Z" fill="#02559c"/><path d="M267.58445,86.49c5.06,0,7.5,4.26,7.22,8.83h-10.73c.11,2.59,1.38,3.77,3.65,3.77a3.36,3.36,0,0,0,3.22-1.93h3.59a6.68,6.68,0,0,1-7,5c-4.69,0-7.6-3.22-7.6-7.82s3.08-7.85,7.6-7.85m-3.51,6.24h6.74c-.37-2.07-1.26-3.16-3.25-3.16a3.21,3.21,0,0,0-3.38524,3.02462q-.00381.06763-.00476.13538m3.51-13.24c-8.32,0-14.6,6.38-14.6,14.85s6.14,14.82,14.6,14.82a13.61,13.61,0,0,0,13.61-9.82,7.00005,7.00005,0,0,0,.34-2.12,6.46976,6.46976,0,0,0,.25-1.46,16,16,0,0,0-4-12,13.79,13.79,0,0,0-10.2-4.29Z" fill="#fff"/><path d="M276.69445,70a3.5,3.5,0,0,1-3.5-3.5V20.77a3.5,3.5,0,0,1,3.5-3.5h78.23a3.5,3.5,0,0,1,3.5,3.5V66.5a3.5,3.5,0,0,1-3.5,3.5h-9.38a3.5,3.5,0,0,1-3.5-3.5V33h-52.48V66.51a3.5,3.5,0,0,1-3.5,3.5Z" fill="#02559c"/><path d="M354.92446,20.77V66.5h-9.38v-37h-59.48v37h-9.37V20.77h78.23m0-7h-78.23a7,7,0,0,0-7,7V66.5a7,7,0,0,0,7,7h9.37a7,7,0,0,0,7-7v-30h45.48v30a7,7,0,0,0,7,7h9.38a7,7,0,0,0,7-7V20.77A7,7,0,0,0,354.92446,13.77Z" fill="#fff"/><rect x="258.79445" y="3.5" width="16.37" height="15.8" rx="3.5" fill="#02559c"/><path d="M271.66445,7v8.8h-9.37V7h9.37m0-7h-9.37a7,7,0,0,0-7,7v8.8a7,7,0,0,0,7,7h9.37a7,7,0,0,0,7-7V7A7,7,0,0,0,271.66445,0Z" fill="#fff"/><path d="M178.40445,70a3.5,3.5,0,0,1-3.5-3.5V57.7a3.5,3.5,0,0,1,3.5-3.5h65.36v-3h-65.36a3.51,3.51,0,0,1-3.5-3.45l-.43-27.1a3.53,3.53,0,0,1,1-2.51,3.46005,3.46005,0,0,1,2.49-1h78.23a3.49,3.49,0,0,1,3.5,3.48q0,.01,0,.02v8.77a3.5,3.5,0,0,1-3.5,3.5h-65.19l.12,2.54h65.51a3.5,3.5,0,0,1,3.5,3.5v27.6a3.5,3.5,0,0,1-3.5,3.5h0Z" fill="#02559c"/><path d="M256.19445,20.6v8.77h-68.85l.42,9.54h68.87v27.6h-78.23v-8.8h68.85v-10h-68.85l-.43-27.11h78.22m0-7h-78.22a7,7,0,0,0-7.00086,6.99913q0,.05544.00086.11087l.43,27.08a7,7,0,0,0,2.12,4.9,7,7,0,0,0-2.12,5V66.5a7,7,0,0,0,7,7h78.23a7,7,0,0,0,7-7V38.91a7,7,0,0,0-2.11-5,7,7,0,0,0,1.67-4.54V20.6A7,7,0,0,0,256.19445,13.6Z" fill="#fff"/><path d="M284.25445,105.67a10.7,10.7,0,0,1-11.004-10.38713q-.01057-.36641.004-.73287c0-6.81,4.56-11.56,11.09-11.56,5.81,0,10.12,3.66,10.48,8.9a3.5099,3.5099,0,0,1-.56,2.15,3.49005,3.49005,0,0,1,.62,2.49C294.15445,102.08,289.98445,105.67,284.25445,105.67Zm.1-11.71v.57l.18-.33a2.50051,2.50051,0,0,1-.18-.2Z" fill="#02559c"/><path d="M284.34446,86.49c3.51,0,6.73,1.84,7,5.64h-4a2.78,2.78,0,0,0-2.98265-2.56137l-.01735.00137c-2.61,0-3.48,2.65-3.48,4.83s.84,4.69,3.4,4.69a3.15,3.15,0,0,0,3.25-3h3.93c-.51,3.94-3.25,6.1-7.16,6.1a7.22,7.22,0,0,1-7.50553-6.9227q-.0141-.34857.00553-.6973c0-4.63,2.76-8.06,7.59-8.06m7.07,9.58h0m-7.08-16.58c-8.46,0-14.59,6.33-14.59,15.06a14.24,14.24,0,0,0,13.85239,14.61733q.32373.0087.64761.00267c7.38,0,13-4.77,14.06-11.89a6.99976,6.99976,0,0,0,.11-1.21,7.19,7.19,0,0,0-.33-2.13,7.25014,7.25014,0,0,0,.22-2.28c-.49-7.17-6.23-12.17-14-12.17Z" fill="#fff"/><path d="M209.76445,105.26a3.5,3.5,0,0,1-3-1.63l-1.55-2.46-1.6,2.49a3.52,3.52,0,0,1-3,1.6h-5.05a3.49,3.49,0,0,1-2.91-5.44l5.88-8.8-5.29-7.83a3.5,3.5,0,0,1,2.9-5.46h5.23a3.48,3.48,0,0,1,3,1.67l1.1,1.78,1.16-1.83a3.52,3.52,0,0,1,3-1.62h4.94a3.5,3.5,0,0,1,2.91,5.45l-5.34,7.82,5.86,8.78a3.49,3.49,0,0,1-2.91,5.44Z" fill="#02559c"/><path d="M214.51445,81.23h0m0,0-6.58,9.77,7.16,10.73h-5.33l-4.48-7.1-4.58,7.1h-5.14l7.2-10.73-6.61-9.78h5.23l4,6.56,4.17-6.56h4.94m0-7h-4.92a7.06,7.06,0,0,0-4.1,1.32,7.06,7.06,0,0,0-4.1-1.32h-5.23a7,7,0,0,0-5.8,10.92l4,5.88-4.58,6.85a7,7,0,0,0,5.82,10.89h5.09a7,7,0,0,0,4.53-1.66,7,7,0,0,0,4.56,1.66h5.38a7,7,0,0,0,5.82-10.88l-4.56-6.83,3.88-5.78a7,7,0,0,0-5.71-11Zm0,14Z" fill="#fff"/><rect x="258.79445" y="17.27" width="16.37" height="52.73" rx="3.5" fill="#02559c"/><path d="M271.66445,20.77V66.5h-9.37V20.77h9.37m0-7h-9.37a7,7,0,0,0-7,7V66.5a7,7,0,0,0,7,7h9.37a7,7,0,0,0,7-7V20.77A7,7,0,0,0,271.66445,13.77Z" fill="#fff"/><path d="M243.13446,110.5a3.5,3.5,0,0,1-3.5-3.5V86.9a3.5,3.5,0,0,1,3.5-3.5h3.88a3.40014,3.40014,0,0,1,1.16.19,9.29,9.29,0,0,1,3.33-.59c6.14,0,10.26,4.61,10.26,11.49,0,6.47-4.22,11.18-10,11.18a8.72391,8.72391,0,0,1-1-.06V107a3.5,3.5,0,0,1-3.5,3.5Zm7.49-16.86a4.91108,4.91108,0,0,0,0,.73,3.92036,3.92036,0,0,0,.06.75,7.36927,7.36927,0,0,0,0-.75A5.00065,5.00065,0,0,0,250.62445,93.64Z" fill="#02559c"/><path d="M251.50445,86.5c4.66,0,6.76,3.76,6.76,8,0,4-2.19,7.68-6.53,7.68a5.29,5.29,0,0,1-4.46-2.25h-.06V107h-4.08V86.9h3.88v1.9h.06a4.93,4.93,0,0,1,4.43-2.3m-.86,12.59c2.67,0,3.53-2.3,3.53-4.72s-.94-4.8-3.56-4.8-3.54,2.39-3.54,4.8.92,4.72,3.57,4.72m.86-19.59a13.47045,13.47045,0,0,0-3.52.46,7.66006,7.66006,0,0,0-1-.06h-3.85a7,7,0,0,0-7,7h0V107a7,7,0,0,0,7,7h4.08a7,7,0,0,0,6.72-5c6.59-1.07,11.33-7,11.33-14.5C265.26446,85.67,259.60446,79.5,251.50445,79.5Z" fill="#fff"/><path d="M299.50446,105.44c-7.39,0-8.19-4.92-8.19-7V93a3.5,3.5,0,0,1-2.47-3.35V86.9a3.5,3.5,0,0,1,2.47-3.35V82.44a3.5,3.5,0,0,1,3.5-3.5h4.09a3.5,3.5,0,0,1,3.5,3.5v1a3.51,3.51,0,0,1,3,3.47v2.73a3.5,3.5,0,0,1-3,3.46v2a3.48,3.48,0,0,1,1.69.74,3.52006,3.52006,0,0,1,1.3,2.72v3.19a3.5,3.5,0,0,1-2.91,3.45A17.17063,17.17063,0,0,1,299.50446,105.44Z" fill="#02559c"/><path d="M298.90445,82.44V86.9h3v2.73h-3V97c0,1.38.34,1.73,1.72,1.73a6.0696,6.0696,0,0,0,1.27-.12v3.19a14.9987,14.9987,0,0,1-2.39.15c-2.5,0-4.69-.58-4.69-3.54V89.64h-2.47V86.9h2.47V82.44h4.09m0-7h-4.09a7,7,0,0,0-6.93,6.07,7,7,0,0,0-2.54,5.39v2.73a7,7,0,0,0,2.47,5.34V98.4c0,4.86,3.06,10.54,11.69,10.54a20.94009,20.94009,0,0,0,3.57-.25,7,7,0,0,0,5.82-6.9V98.6a6.99994,6.99994,0,0,0-1.63-4.49,6.92006,6.92006,0,0,0,1.63-4.48V86.9a7,7,0,0,0-3.13-5.83,7,7,0,0,0-6.86-5.63Z" fill="#fff"/><path d="M232.35445,105.75a13,13,0,0,1-9.39-3.49,10,10,0,0,1-2.85-7.35,3.5,3.5,0,0,1,2-3.15,8.32994,8.32994,0,0,1-1.35-4.76c0-6.37,5.62-9.71,11.17-9.71,7,0,11.73,4.07,11.73,10.12a3.48,3.48,0,0,1-1.2,2.59,8.62,8.62,0,0,1,1.93,5.64C244.39445,100.69,240.67446,105.75,232.35445,105.75Z" fill="#02559c"/><path d="M231.97445,80.74c4.29,0,8.23,1.87,8.23,6.62h-4.37c-.14-2.48-1.9-3.11-4.06-3.11-1.43,0-3.1.61-3.1,2.33s1,1.78,6.13,3.11c1.49.37,6.09,1.32,6.09,6,0,3.76-3,6.58-8.54,6.58-4.54,0-8.8-2.24-8.74-7.3h4.37c0,2.73,2.12,3.79,4.54,3.79,1.58,0,4-.45,4-2.56s-3.08-2.58-6.1-3.39-6.12-2-6.12-5.84c0-4.2,4-6.21,7.67-6.21m0-7c-8.36,0-14.67,5.68-14.67,13.21a13,13,0,0,0,.58,4,7,7,0,0,0-1.27,3.94,13.41,13.41,0,0,0,3.86,9.85,16.43,16.43,0,0,0,11.88,4.53c10.68,0,15.54-7,15.54-13.58a12.70995,12.70995,0,0,0-1.26-5.55,6.8799,6.8799,0,0,0,.57-2.76c0-8-6.26-13.62-15.23-13.62Z" fill="#fff"/><path d="M177.76445,105.26a3.5,3.5,0,0,1-3.5-3.5V98.2a3.53006,3.53006,0,0,1,.81-2.2l6.21-7.43h-2.66a3.5,3.5,0,0,1-3.5-3.5V81.28a3.5,3.5,0,0,1,3.5-3.5h16.14a3.5,3.5,0,0,1,3.5,3.5h0v3.57a3.45993,3.45993,0,0,1-.81,2.24l-6.21,7.43h3.81a3.5,3.5,0,0,1,3.5,3.5v3.79a3.5,3.5,0,0,1-3.5,3.5Z" fill="#02559c"/><path d="M194.76445,81.23V84.8l-11,13.2h11.3v3.79h-17.3V98.2l11-13.2h-10.14V81.21h16.14m0-7h-16.14a7,7,0,0,0-7,7V85a7,7,0,0,0,3.14,5.87l-2.37,2.84a7,7,0,0,0-1.63,4.49v3.56a7,7,0,0,0,7,7h17.31a7,7,0,0,0,7-7V98a7,7,0,0,0-3.92-6.29l2-2.39a6.99993,6.99993,0,0,0,1.61-4.52V81.23a7,7,0,0,0-7-7Z" fill="#fff"/><path d="M458.81444,70a3.5,3.5,0,0,1-3.5-3.5V39.57a3.5,3.5,0,0,1,3.5-3.5h65.35V33h-65.35a3.5,3.5,0,0,1-3.5-3.5V20.77a3.5,3.5,0,0,1,3.5-3.5h78.28a3.5,3.5,0,0,1,3.5,3.5V66.51a3.5,3.5,0,0,1-3.5,3.5Zm65.35-15.8v-3h-52.4v3Z" fill="#02559c"/><path d="M537.09444,20.77V66.51h-78.28V39.57h68.85v-10h-68.85v-8.8h78.28m-68.85,36.94h59.42v-10h-59.42v10m68.85-43.94h-78.28a7,7,0,0,0-7,7v8.77a7.00011,7.00011,0,0,0,2.12,5,6.94,6.94,0,0,0-2.12,5V66.51a7,7,0,0,0,7,7h78.28a7,7,0,0,0,7-7V20.77a7,7,0,0,0-7-7Z" fill="#fff"/><rect x="539.17446" y="17.27" width="16.42999" height="52.73" rx="3.5" fill="#02559c"/><path d="M552.10445,20.77V66.5h-9.43V20.77h9.43m0-7h-9.43a7,7,0,0,0-7,7V66.5a7,7,0,0,0,7,7h9.43a7,7,0,0,0,7-7V20.77A7,7,0,0,0,552.10445,13.77Z" fill="#fff"/><rect x="539.17446" y="3.5" width="16.42999" height="15.8" rx="3.5" fill="#02559c"/><path d="M552.10445,7v8.8h-9.43V7h9.43m0-7h-9.43a7,7,0,0,0-7,7v8.8a7,7,0,0,0,7,7h9.43a7,7,0,0,0,7-7V7A7,7,0,0,0,552.10445,0Z" fill="#fff"/><path d="M557.76445,70a3.5,3.5,0,0,1-3.5-3.5V20.77a3.5,3.5,0,0,1,3.5-3.5h78.23a3.5,3.5,0,0,1,3.5,3.5v8.77a3.5,3.5,0,0,1-3.5,3.5h-65.35V66.51a3.5,3.5,0,0,1-3.5,3.5Z" fill="#02559c"/><path d="M635.99446,20.77v8.77h-68.85v37h-9.38V20.77h78.23m0-7h-78.23a7,7,0,0,0-7,7V66.5a7,7,0,0,0,7,7h9.38a7,7,0,0,0,7-7v-30h61.85a7,7,0,0,0,7-7V20.77A7,7,0,0,0,635.99446,13.77Z" fill="#fff"/><path d="M303.84446,105.26a3.5,3.5,0,0,1-3.5-3.5V86.9a3.5,3.5,0,0,1,3.5-3.5h3.92a3.59029,3.59029,0,0,1,1.43.3,8.62,8.62,0,0,1,3.37-.7,6.37038,6.37038,0,0,1,2,.34,3.48,3.48,0,0,1,2.35,3.3v3.8a3.49,3.49,0,0,1-4.28,3.41,4.22023,4.22023,0,0,0-.69-.06,2.0886,2.0886,0,0,0-.34,0,3.14,3.14,0,0,0-.18,1.24v6.7a3.5,3.5,0,0,1-3.5,3.5Z" fill="#02559c"/><path d="M312.53446,86.5a2.91015,2.91015,0,0,1,.89.14v3.8a7.1505,7.1505,0,0,0-1.47-.15c-3,0-4,2.16-4,4.77v6.7h-4.09V86.9h3.9v2.76h0a5.26,5.26,0,0,1,4.75-3.16m0-7a12.05978,12.05978,0,0,0-3.5.52,6.99954,6.99954,0,0,0-1.3-.12h-3.89a7,7,0,0,0-7,7v14.87a7,7,0,0,0,7,7h4.09a7,7,0,0,0,7-7V97.28a7.13,7.13,0,0,0,2.86-1.36,7,7,0,0,0,2.63-5.47v-3.8a7,7,0,0,0-4.64-6.65,9.78,9.78,0,0,0-3.18-.53Z" fill="#fff"/><rect x="440.94445" y="3.5" width="16.37" height="66.51" rx="3.5" fill="#02559c"/><path d="M453.81444,7V66.51h-9.37V7h9.37m0-7h-9.37a7,7,0,0,0-7,7V66.5a7,7,0,0,0,7,7h9.37a7,7,0,0,0,7-7V7A7,7,0,0,0,453.81444,0Z" fill="#fff"/><path d="M350.83446,105.26a3.48,3.48,0,0,1-2.61-1.17,3.5,3.5,0,0,1-2.62,1.17h-4.08a3.49993,3.49993,0,0,1-2.62-1.17,3.5,3.5,0,0,1-2.62,1.17h-4.08a3.5,3.5,0,0,1-3.5-3.5V86.9a3.5,3.5,0,0,1,3.5-3.5h3.85a3.59,3.59,0,0,1,1.24.22,9.16,9.16,0,0,1,3.36-.63,8.8,8.8,0,0,1,4.52,1.15,8.74,8.74,0,0,1,4.31-1.15c5.51,0,8.94,3.38,8.94,8.82v9.95a3.5,3.5,0,0,1-3.5,3.5Z" fill="#02559c"/><path d="M349.48445,86.49c3.17,0,5.44,1.47,5.44,5.32v9.95h-4.09V93.34c0-2-.17-3.63-2.5-3.63s-2.73,1.9-2.73,3.77v8.28h-4.08V93.42c0-1.72.11-3.71-2.48-3.71-.8,0-2.76.52-2.76,3.43v8.62h-4.08V86.9h3.85v2h.06a5.37,5.37,0,0,1,4.54-2.42,4.41,4.41,0,0,1,4.35,2.48,5.38,5.38,0,0,1,4.48-2.48m0-7a12.29012,12.29012,0,0,0-4.31.79,12.77013,12.77013,0,0,0-4.52-.79,12.63,12.63,0,0,0-3.49.49,8.05024,8.05024,0,0,0-1.11-.08h-3.85a7,7,0,0,0-7,7v14.86a7,7,0,0,0,7,7h4.08a7.09985,7.09985,0,0,0,2.62-.5,7.09991,7.09991,0,0,0,2.62.5h4.08a7.09982,7.09982,0,0,0,2.62-.5,7.09,7.09,0,0,0,2.61.5h4.09a7,7,0,0,0,7-7V91.8c0-7.37-5-12.32-12.44-12.32Z" fill="#fff"/><path d="M320.46445,105.67c-3.33,0-8.93-1.25-8.93-9.63V86.9a3.49,3.49,0,0,1,3.48-3.5q.01,0,.02,0h4.08a3.49,3.49,0,0,1,2.89,1.52,3.49,3.49,0,0,1,2.89-1.52h4.09a3.5,3.5,0,0,1,3.5,3.5h0v14.86a3.5,3.5,0,0,1-3.5,3.5h-3.89a3.61956,3.61956,0,0,1-1.27-.23A9.17033,9.17033,0,0,1,320.46445,105.67Z" fill="#02559c"/><path d="M319.11446,86.9v8.39c0,2.45.72,3.66,2.62,3.66,2.21,0,3.16-1.24,3.16-4.26V86.9h4.09v14.86h-3.89V99.69h-.08a5.32,5.32,0,0,1-4.55,2.48c-4.34,0-5.43-2.45-5.43-6.13V86.9h4.08m0-7h-4.08a7,7,0,0,0-7,7h0V96c0,9.68,6.42,13.13,12.43,13.13a12.40939,12.40939,0,0,0,3.51-.5,6.99919,6.99919,0,0,0,1.12.09h3.89a7,7,0,0,0,7-7V86.9a7,7,0,0,0-7-7h-4.09a7.00008,7.00008,0,0,0-2.89.62A7.00012,7.00012,0,0,0,319.11446,79.9Z" fill="#fff"/><path d="M359.92446,70a3.5,3.5,0,0,1-3.5-3.5V20.77a3.5,3.5,0,0,1,3.5-3.5h78.28a3.5,3.5,0,0,1,3.5,3.5v8.77a3.5,3.5,0,0,1-3.5,3.5h-65.35V54.21h65.35a3.5,3.5,0,0,1,3.5,3.5v8.8a3.5,3.5,0,0,1-3.5,3.5Z" fill="#02559c"/><path d="M438.20446,20.77v8.77h-68.85V57.71h68.85v8.8h-78.28V20.77h78.28m0-7h-78.28a7,7,0,0,0-7,7V66.5a7,7,0,0,0,7,7h78.28a7,7,0,0,0,7-7V57.7a7,7,0,0,0-7-7h-61.85V36.54h61.85a7,7,0,0,0,7-7V20.77A7,7,0,0,0,438.20446,13.77Z" fill="#fff"/><path d="M598.22444,81.31a3.5,3.5,0,0,1-2.48-6L664.07445,7a3.46,3.46,0,0,1,2.47-1h38.89a3.5,3.5,0,0,1,2.48,6l-68.33,68.34a3.5,3.5,0,0,1-2.48,1Z" fill="#02559c"/><path d="M705.43444,9.47h0m0,0-68.33,68.34h-38.88l68.32-68.34h38.89m0-7h-38.9a7,7,0,0,0-4.95,2.05l-68.32,68.34a7,7,0,0,0,4.95,12h38.88a7,7,0,0,0,5-2l68.22-68.36a7,7,0,0,0-4.87-12Zm0,14Z" fill="#fff"/><path d="M637.19445,81.31a3.5,3.5,0,0,1-2.47-6L703.04448,7a3.5,3.5,0,0,1,2.48-1h38.89a3.5,3.5,0,0,1,2.47,6l-68.33,68.34a3.46005,3.46005,0,0,1-2.47,1Z" fill="#02559c"/><path d="M744.41448,9.47h0m0,0-68.33,68.34h-38.89l68.33-68.34h38.89m0-7h-38.89a6.99994,6.99994,0,0,0-5,2.05l-68.33,68.34a7,7,0,0,0,4.95,12h38.89a7,7,0,0,0,4.95-2l68.3-68.36a7,7,0,0,0-4.87-12Z" fill="#fff"/><path d="M676.14446,81.31a3.5,3.5,0,0,1-2.48-6L741.99443,7a3.5,3.5,0,0,1,2.47-1h38.89a3.5,3.5,0,0,1,2.48,6l-68.33,68.34a3.5,3.5,0,0,1-2.48,1Z" fill="#02559c"/><path d="M783.35448,9.47h0m0,0-68.33,68.34h-38.88l68.32-68.34h38.89m0-7h-38.89a6.99991,6.99991,0,0,0-5,2.05l-68.32,68.34a7,7,0,0,0,4.95,12h38.88a7,7,0,0,0,5-2L788.23442,14.5a7,7,0,0,0-4.87-12Zm0,14Z" fill="#fff"/><path d="M715.04448,81.31a3.5,3.5,0,0,1-2.48-6L780.89446,7a3.5,3.5,0,0,1,2.48-1h38.88a3.5,3.5,0,0,1,2.48,6l-68.33,68.34a3.46,3.46,0,0,1-2.47,1Z" fill="#02559c"/><path d="M822.25444,9.47h0m0,0-68.32,68.34h-38.89l68.33-68.34h38.88m0-7H783.37444a6.99993,6.99993,0,0,0-5,2.05l-68.33,68.34a7,7,0,0,0,4.95,12h38.89a7,7,0,0,0,5-2l68.25-68.36a7,7,0,0,0-4.87-12Zm0,14Z" fill="#fff"/><path d="M178.40445,66.5V57.71h68.85v-10h-68.85l-.43-27.11h78.22v8.77h-68.85l.42,9.54h68.87v27.6h-78.23Zm83.89,0V20.77h9.37V66.5Zm14.4,0V20.77h78.23V66.5h-9.38v-37h-59.48v37Zm83.23,0V20.77h78.28v8.77h-68.85V57.71h68.85v8.8h-78.28Zm84.52,0V7h9.37V66.51h-9.37Zm98.23,0V20.77h9.43V66.5Zm15.09,0V20.77h78.23v8.77h-68.85v37h-9.38Zm-98.95-45.73v8.77h68.85v10h-68.85V66.51h78.28V20.77Zm68.85,36.94h-59.42v-10h59.42Zm-265.37-41.91V7h9.37v8.8Zm280.38,0V7h9.43v8.8Zm-364.91,82.4,11-13.2h-10.14V81.21h16.14v3.57l-11,13.22h11.3v3.79h-17.3Zm25-7.2-6.61-9.78h5.23l4,6.56,4.17-6.56h4.94l-6.56,9.78,7.16,10.73h-5.33l-4.48-7.1-4.58,7.1h-5.14Zm25.22,4c0,2.73,2.12,3.79,4.54,3.79,1.58,0,4-.45,4-2.56s-3.08-2.58-6.1-3.39-6.12-2-6.12-5.84c0-4.2,4-6.21,7.67-6.21,4.29,0,8.23,1.87,8.23,6.62h-4.37c-.14-2.48-1.9-3.11-4.06-3.11-1.43,0-3.1.61-3.1,2.33s1,1.78,6.13,3.11c1.49.37,6.09,1.32,6.09,6,0,3.76-3,6.58-8.54,6.58-4.54,0-8.8-2.24-8.74-7.3Zm15.15-8h3.88v1.9h.06a4.93,4.93,0,0,1,4.43-2.3c4.66,0,6.76,3.76,6.76,8,0,4-2.19,7.68-6.53,7.68a5.29,5.29,0,0,1-4.46-2.25h-.06V107h-4.08Zm11,7.47c0-2.36-.94-4.8-3.56-4.8s-3.54,2.39-3.54,4.8.92,4.72,3.57,4.72,3.57-2.4,3.57-4.82Zm9.9.95c.11,2.59,1.38,3.77,3.65,3.77a3.36,3.36,0,0,0,3.22-1.93h3.59a6.68,6.68,0,0,1-7,5c-4.69,0-7.6-3.22-7.6-7.82s3.08-7.85,7.6-7.85c5.06,0,7.5,4.26,7.22,8.83Zm6.64-2.59c-.37-2.07-1.26-3.16-3.25-3.16a3.21,3.21,0,0,0-3.38525,3.02462q-.0038.06764-.00475.13538Zm16.62-.6a2.78,2.78,0,0,0-2.98264-2.56137l-.01736.00138c-2.61,0-3.48,2.65-3.48,4.83s.84,4.69,3.4,4.69a3.15,3.15,0,0,0,3.25-3h3.93c-.51,3.94-3.25,6.1-7.16,6.1a7.22,7.22,0,0,1-7.50553-6.9227q-.01409-.34857.00553-.6973c0-4.63,2.76-8.06,7.59-8.06,3.51,0,6.73,1.84,7,5.64Zm11.57-5.23h3v2.73h-3V97c0,1.38.34,1.73,1.72,1.73a6.06945,6.06945,0,0,0,1.27-.12v3.19a14.9985,14.9985,0,0,1-2.39.15c-2.5,0-4.69-.58-4.69-3.54V89.64h-2.47V86.9h2.47V82.44h4.09Zm4.94,0h3.96v2.76h0a5.26,5.26,0,0,1,4.75-3.16,2.91015,2.91015,0,0,1,.89.14v3.8a7.15036,7.15036,0,0,0-1.47-.15c-3,0-4,2.16-4,4.77v6.7h-4.09Zm25.14,14.86h-3.89V99.79h-.08a5.32,5.32,0,0,1-4.55,2.48c-4.34,0-5.43-2.45-5.43-6.13V86.9h4.08v8.39c0,2.45.72,3.66,2.62,3.66,2.21,0,3.16-1.24,3.16-4.26V86.9h4.09Zm3.22-14.86h3.85v2h.06a5.37,5.37,0,0,1,4.54-2.42,4.41,4.41,0,0,1,4.35,2.48,5.38,5.38,0,0,1,4.48-2.48c3.17,0,5.44,1.47,5.44,5.32v9.95h-4.09V93.43c0-2-.17-3.63-2.5-3.63s-2.73,1.9-2.73,3.77v8.28h-4.08V93.51c0-1.72.11-3.71-2.48-3.71-.8,0-2.76.52-2.76,3.43v8.62h-4.08Z"/><path d="M666.54445,9.47l-68.32,68.34h38.88l68.33-68.34" fill="#ca2825"/><path d="M705.52446,9.47l-68.33,68.34h38.89l68.33-68.34" fill="#fdc601"/><path d="M744.46447,9.47l-68.32,68.34h38.88l68.33-68.34" fill="#009c37"/><path d="M783.37444,9.47l-68.33,68.34h38.89l68.32-68.34" fill="#02559c"/></svg>