<svg id="Layer_1" data-name="Layer 1" xmlns="http://www.w3.org/2000/svg" viewBox="0 0 100 100"><title>game_info_releasedate</title><path d="M96.65359,19.52046A5.80569,5.80569,0,0,0,91.12526,15.361H85.25034v9.11794a8.81257,8.81257,0,0,1-17.62513,0V15.361H32.34557v9.11794a8.81256,8.81256,0,1,1-17.62512,0V15.361H8.87492a5.80022,5.80022,0,0,0-5.52833,4.15951H3V91.12508A5.8771,5.8771,0,0,0,8.87492,97H91.12508A5.8771,5.8771,0,0,0,97,91.12508V19.52046ZM91.12508,91.12508H8.87492V44.125H91.12508Z" fill="#fff"/><path d="M23.5332,27.41653a2.93849,2.93849,0,0,0,2.93745-2.93746V5.93746a2.93746,2.93746,0,1,0-5.87491,0V24.47907A2.93849,2.93849,0,0,0,23.5332,27.41653Z" fill="#fff"/><path d="M76.4376,27.41653a2.94229,2.94229,0,0,0,2.93746-2.93746V5.93746a2.93746,2.93746,0,1,0-5.87492,0V24.47907A2.94229,2.94229,0,0,0,76.4376,27.41653Z" fill="#fff"/><polygon points="21.97 52.968 34.692 52.968 34.692 59.154 21.97 59.154 21.97 52.968 21.97 52.968" fill="#fff"/><polygon points="44.204 52.968 56.809 52.968 56.809 59.154 44.204 59.154 44.204 52.968 44.204 52.968" fill="#fff"/><polygon points="66.321 52.968 78.808 52.968 78.808 59.154 66.321 59.154 66.321 52.968 66.321 52.968" fill="#fff"/><polygon points="21.97 65.69 34.692 65.69 34.692 71.767 21.97 71.767 21.97 65.69 21.97 65.69" fill="#fff"/><polygon points="44.204 65.69 56.809 65.69 56.809 71.767 44.204 71.767 44.204 65.69 44.204 65.69" fill="#fff"/><polygon points="66.321 65.69 78.808 65.69 78.808 71.767 66.321 71.767 66.321 65.69 66.321 65.69" fill="#fff"/><polygon points="21.97 78.061 34.692 78.061 34.692 84.48 21.97 84.48 21.97 78.061 21.97 78.061" fill="#fff"/><polygon points="44.204 78.061 56.809 78.061 56.809 84.48 44.204 84.48 44.204 78.061 44.204 78.061" fill="#fff"/><polygon points="66.321 78.061 78.808 78.061 78.808 84.48 66.321 84.48 66.321 78.061 66.321 78.061" fill="#fff"/></svg>