<svg xmlns="http://www.w3.org/2000/svg" viewBox="0 0 975.50394 334.50394"><title>controller</title><g id="Calque_2" data-name="Calque 2"><path d="M21.25979,4.252H954.24417a17.0078,17.0078,0,0,1,17.0078,17.0078v291.9844a17.0078,17.0078,0,0,1-17.0078,17.0078H21.25979A17.00782,17.00782,0,0,1,4.252,313.24415V21.25979A17.00782,17.00782,0,0,1,21.25979,4.252Z" fill="#231f20" stroke="#363436" stroke-miterlimit="10" stroke-width="8.50394"/></g><g id="Calque_4" data-name="Calque 4"><path d="M916.90528,28.252H572.252v14a49,49,0,0,1-98,0v-14H58.59868A28.34625,28.34625,0,0,0,30.252,56.5987V274.9053A28.34657,28.34657,0,0,0,58.59868,303.252h858.3066A28.34691,28.34691,0,0,0,945.252,274.9053V56.5987A28.34659,28.34659,0,0,0,916.90528,28.252Z" transform="translate(-0.00003 -0.00003)" fill="#231f20" stroke="#363436" stroke-miterlimit="10" stroke-width="2.83465"/></g><g id="Calque_5" data-name="Calque 5"><path d="M839.252,112.5323a56.99847,56.99847,0,0,0-56.52152,49.7197h-13.957a56.98675,56.98675,0,0,0-113.043,0h-11.957a56.98675,56.98675,0,0,0-113.043,0h-13.957a56.98646,56.98646,0,0,0-113.04249,0H339.99859a96.99771,96.99771,0,1,0-.0772,15h63.8653a56.9888,56.9888,0,0,0,112.9301,0h14.0704a56.98851,56.98851,0,0,0,112.9296,0h12.0704a56.9885,56.9885,0,0,0,112.92959,0h14.0704A56.99534,56.99534,0,1,0,839.252,112.5323Z" transform="translate(-0.00003 -0.00003)" fill="#fff"/></g><g id="Calque_6" data-name="Calque 6"><circle cx="242.41847" cy="168.25197" r="86" fill="#231f20" stroke="#363436" stroke-miterlimit="10" stroke-width="5.66929"/><circle cx="460.01566" cy="170.01567" r="46" fill="#231f20" stroke="#302e2f" stroke-miterlimit="10" stroke-width="5.66929"/><path d="M495.44929,170.0157a35.4331,35.4331,0,1,1-35.4336-35.4326A35.43356,35.43356,0,0,1,495.44929,170.0157Z" transform="translate(-0.00003 -0.00003)" fill="#231f20" stroke="#414042" stroke-miterlimit="10" stroke-width="5.66929"/><circle cx="587.01566" cy="170.01567" r="46" fill="#231f20" stroke="#302e2f" stroke-miterlimit="10" stroke-width="5.66929"/><path d="M622.44929,170.0157a35.4331,35.4331,0,1,1-35.4336-35.4326A35.43356,35.43356,0,0,1,622.44929,170.0157Z" transform="translate(-0.00003 -0.00003)" fill="#231f20" stroke="#414042" stroke-miterlimit="10" stroke-width="5.66929"/><circle cx="712.01565" cy="170.01567" r="46" fill="#231f20" stroke="#302e2f" stroke-miterlimit="10" stroke-width="5.66929"/><path d="M747.44928,170.0157a35.4331,35.4331,0,1,1-35.4336-35.4326A35.43355,35.43355,0,0,1,747.44928,170.0157Z" transform="translate(-0.00003 -0.00003)" fill="#231f20" stroke="#414042" stroke-miterlimit="10" stroke-width="5.66929"/><circle cx="839.33005" cy="170.01567" r="46" fill="#231f20" stroke="#302e2f" stroke-miterlimit="10" stroke-width="5.66929"/><path d="M874.76368,170.0157a35.4331,35.4331,0,1,1-35.4336-35.4326A35.4335,35.4335,0,0,1,874.76368,170.0157Z" transform="translate(-0.00003 -0.00003)" fill="#231f20" stroke="#414042" stroke-miterlimit="10" stroke-width="5.66929"/></g><g id="Calque_7" data-name="Calque 7"><circle cx="242.41847" cy="168.75197" r="54" fill="#231f20" stroke="#363436" stroke-miterlimit="10" stroke-width="14.1732"/><circle cx="242.41847" cy="168.50197" r="26.5" fill="#6d6e71" stroke="#414042" stroke-miterlimit="10" stroke-width="2.83465"/></g><g id="Calque_8" data-name="Calque 8"><polygon points="661.951 52.245 652.533 65.455 642.58 52.171 628.415 52.057 652.532 84.699 675.379 52.352 661.951 52.245" fill="none" stroke="#0072bc" stroke-miterlimit="10" stroke-width="1.41732"/><path d="M743.82228,78.7979a19.59142,19.59142,0,0,1-14.2842,5.9248c-10.2832,0-18.61808-7.3955-18.61808-16.52,0-9.125,8.33488-16.521,18.61808-16.521a19.55,19.55,0,0,1,14.4551,6.1103l-7.6875,6.6573a8.24826,8.24826,0,0,0-6.7676-3.3277c-4.4062,0-7.9785,3.1714-7.9785,7.0811,0,3.9101,3.5723,7.0801,7.9785,7.0801a8.2468,8.2468,0,0,0,6.7676-3.3272Z" transform="translate(-0.00003 -0.00003)" fill="none" stroke="#0072bc" stroke-miterlimit="10" stroke-width="1.41732"/><polygon points="775.233 52.18 748.047 52.18 745.68 63.444 755.295 63.444 755.295 84.426 767.987 84.426 767.987 63.444 777.602 63.444 775.233 52.18" fill="none" stroke="#0072bc" stroke-miterlimit="10" stroke-width="1.41732"/><path d="M782.10838,52.2164V84.3628h13.0108V60.9454h5.7109c1.7461.9858,1.58792,2.2534,1.58792,2.2534.95118,4.7871-4.60252,3.9419-4.60252,3.9419v9.4336l5.5537,7.8276h15.2334l-8.4092-13.3188a12.63,12.63,0,0,0,4.2832-3.379c1.7442-2.1118.9531-7.1801.9531-7.1801-.7959-8.4483-10.3154-8.3076-10.3154-8.3076Z" transform="translate(-0.00003 -0.00003)" fill="none" stroke="#0072bc" stroke-miterlimit="10" stroke-width="1.41732"/><polygon points="851.351 61.367 848.02 52.111 830.818 52.111 820.506 52.111 820.506 61.367 820.506 75.178 820.506 80.448 820.506 84.435 848.02 84.435 851.351 75.178 830.818 75.178 830.818 71.777 841.251 71.777 841.251 64.484 830.818 64.484 830.818 61.367 851.351 61.367" fill="none" stroke="#0072bc" stroke-miterlimit="10" stroke-width="1.41732"/><polygon points="708.937 61.367 705.567 52.111 688.172 52.111 677.743 52.111 677.743 61.367 677.743 75.178 677.743 80.448 677.743 84.435 705.567 84.435 708.937 75.178 688.172 75.178 688.172 71.777 698.724 71.777 698.724 64.485 688.172 64.485 688.172 61.367 708.937 61.367" fill="none" stroke="#0072bc" stroke-miterlimit="10" stroke-width="1.41732"/><polygon points="896.556 52.239 880.969 52.318 873.94 59.938 866.906 52.318 851.321 52.239 866.178 68.348 851.323 84.448 866.925 84.369 873.94 76.763 880.954 84.369 896.554 84.448 881.698 68.348 896.556 52.239" fill="none" stroke="#0072bc" stroke-miterlimit="10" stroke-width="1.41732"/><polygon points="661.951 52.245 652.533 65.455 642.58 52.171 628.415 52.057 652.532 84.699 675.379 52.352 661.951 52.245" fill="none" stroke="#0072bc" stroke-miterlimit="10" stroke-width="1.41732"/><path d="M743.82228,78.7979a19.59142,19.59142,0,0,1-14.2842,5.9248c-10.2832,0-18.61808-7.3955-18.61808-16.52,0-9.125,8.33488-16.521,18.61808-16.521a19.55,19.55,0,0,1,14.4551,6.1103l-7.6875,6.6573a8.24826,8.24826,0,0,0-6.7676-3.3277c-4.4062,0-7.9785,3.1714-7.9785,7.0811,0,3.9101,3.5723,7.0801,7.9785,7.0801a8.2468,8.2468,0,0,0,6.7676-3.3272Z" transform="translate(-0.00003 -0.00003)" fill="none" stroke="#0072bc" stroke-miterlimit="10" stroke-width="1.41732"/><polygon points="775.233 52.18 748.047 52.18 745.68 63.444 755.295 63.444 755.295 84.426 767.987 84.426 767.987 63.444 777.602 63.444 775.233 52.18" fill="none" stroke="#0072bc" stroke-miterlimit="10" stroke-width="1.41732"/><path d="M782.10838,52.2164V84.3628h13.0108V60.9454h5.7109c1.7461.9858,1.58792,2.2534,1.58792,2.2534.95118,4.7871-4.60252,3.9419-4.60252,3.9419v9.4336l5.5537,7.8276h15.2334l-8.4092-13.3188a12.63,12.63,0,0,0,4.2832-3.379c1.7442-2.1118.9531-7.1801.9531-7.1801-.7959-8.4483-10.3154-8.3076-10.3154-8.3076Z" transform="translate(-0.00003 -0.00003)" fill="none" stroke="#0072bc" stroke-miterlimit="10" stroke-width="1.41732"/><polygon points="851.351 61.367 848.02 52.111 830.818 52.111 820.506 52.111 820.506 61.367 820.506 75.178 820.506 80.448 820.506 84.435 848.02 84.435 851.351 75.178 830.818 75.178 830.818 71.777 841.251 71.777 841.251 64.484 830.818 64.484 830.818 61.367 851.351 61.367" fill="none" stroke="#0072bc" stroke-miterlimit="10" stroke-width="1.41732"/><polygon points="708.937 61.367 705.567 52.111 688.172 52.111 677.743 52.111 677.743 61.367 677.743 75.178 677.743 80.448 677.743 84.435 705.567 84.435 708.937 75.178 688.172 75.178 688.172 71.777 698.724 71.777 698.724 64.485 688.172 64.485 688.172 61.367 708.937 61.367" fill="none" stroke="#0072bc" stroke-miterlimit="10" stroke-width="1.41732"/><polygon points="896.556 52.239 880.969 52.318 873.94 59.938 866.906 52.318 851.321 52.239 866.178 68.348 851.323 84.448 866.925 84.369 873.94 76.763 880.954 84.369 896.554 84.448 881.698 68.348 896.556 52.239" fill="none" stroke="#0072bc" stroke-miterlimit="10" stroke-width="1.41732"/><polygon points="81.252 57.239 88.781 57.239 93.729 71.312 98.143 57.239 105.791 57.239 105.791 83.127 100.55 83.127 100.55 66.975 95.268 83.127 91.991 83.127 86.842 66.975 86.842 83.127 81.252 83.127 81.252 57.239 81.252 57.239" fill="#ed1c24" fill-rule="evenodd"/><path d="M108.6426,57.2393h11.1011c3.5117,0,7.2378,2.8975,7.2222,6.3565-.0152,3.3793-2.5948,4.8935-4.3262,5.7612a7.204,7.204,0,0,1,4.9282,6.7602,7.64134,7.64134,0,0,1-7.8242,7.0098H108.6426V57.2393Zm5.4165,3.6411h3.4776c5.3164,0,5.1045,6.2608.2675,6.2608h-3.7451V60.8804Zm.0674,10.6382h3.4776c5.3159,0,5.104,7.7568.267,7.7568h-3.7446V71.5186Z" transform="translate(-0.00003 -0.00003)" fill="#0095da" fill-rule="evenodd"/><path d="M149.6324,71.1504a3.93555,3.93555,0,1,1-3.9356-3.9355A3.93518,3.93518,0,0,1,149.6324,71.1504Z" transform="translate(-0.00003 -0.00003)" fill="#ed1c24" fill-rule="evenodd"/><path d="M170.6221,71.1504a3.93555,3.93555,0,1,1-3.9355-3.9355A3.93516,3.93516,0,0,1,170.6221,71.1504Z" transform="translate(-0.00003 -0.00003)" fill="#ed1c24" fill-rule="evenodd"/><path d="M191.6119,71.1504a3.93555,3.93555,0,1,1-3.9356-3.9355A3.93524,3.93524,0,0,1,191.6119,71.1504Z" transform="translate(-0.00003 -0.00003)" fill="#ed1c24" fill-rule="evenodd"/><path d="M332.18749,70.1504a3.9355,3.9355,0,1,1-3.93549-3.9355A3.93548,3.93548,0,0,1,332.18749,70.1504Z" transform="translate(-0.00003 -0.00003)" fill="#ed1c24" fill-rule="evenodd"/><path d="M354.18749,70.1832a3.9355,3.9355,0,1,1-3.93549-3.9356A3.93546,3.93546,0,0,1,354.18749,70.1832Z" transform="translate(-0.00003 -0.00003)" fill="#ed1c24" fill-rule="evenodd"/><path d="M375.17729,70.1832a3.93555,3.93555,0,1,1-3.9356-3.9356A3.93548,3.93548,0,0,1,375.17729,70.1832Z" transform="translate(-0.00003 -0.00003)" fill="#ed1c24" fill-rule="evenodd"/><path d="M396.20369,70.1832a3.93555,3.93555,0,1,1-3.9356-3.9356A3.93522,3.93522,0,0,1,396.20369,70.1832Z" transform="translate(-0.00003 -0.00003)" fill="#ed1c24" fill-rule="evenodd"/><path d="M417.19389,70.1832a3.9358,3.9358,0,1,1-3.9356-3.9356A3.93548,3.93548,0,0,1,417.19389,70.1832Z" transform="translate(-0.00003 -0.00003)" fill="#ed1c24" fill-rule="evenodd"/><path d="M438.18319,70.1832a3.93555,3.93555,0,1,1-3.9356-3.9356A3.93554,3.93554,0,0,1,438.18319,70.1832Z" transform="translate(-0.00003 -0.00003)" fill="#ed1c24" fill-rule="evenodd"/><path d="M459.17239,70.1832a3.93555,3.93555,0,1,1-3.9355-3.9356A3.93514,3.93514,0,0,1,459.17239,70.1832Z" transform="translate(-0.00003 -0.00003)" fill="#ed1c24" fill-rule="evenodd"/><path d="M604.252,71.1504a3.93556,3.93556,0,1,1-3.93551-3.9355A3.93517,3.93517,0,0,1,604.252,71.1504Z" transform="translate(-0.00003 -0.00003)" fill="#ed1c24" fill-rule="evenodd"/><path d="M625.24219,71.1504a3.93555,3.93555,0,1,1-3.9355-3.9355A3.93516,3.93516,0,0,1,625.24219,71.1504Z" transform="translate(-0.00003 -0.00003)" fill="#ed1c24" fill-rule="evenodd"/></g><g id="Calque_9" data-name="Calque 9"><text transform="translate(448.40626 279.0176)" font-size="36.75" fill="#ed1c24" font-family="Arial-Black, Arial" font-weight="800">1</text><text transform="translate(575.40627 279.0176)" font-size="36.75" fill="#ed1c24" font-family="Arial-Black, Arial" font-weight="800">2</text><text transform="translate(701.40627 279.0176)" font-size="36.75" fill="#ed1c24" font-family="Arial-Black, Arial" font-weight="800">3</text><text transform="translate(830.40627 279.0176)" font-size="36.75" fill="#ed1c24" font-family="Arial-Black, Arial" font-weight="800">4</text></g></svg>