<svg xmlns="http://www.w3.org/2000/svg" version="1" viewBox="0 0 68.58074 200.00002">
  <path stroke="#2e2e2f" stroke-width="1.74348855" stroke-miterlimit="10" d="M4.3587627 199.12826c-1.925979 0-3.48701842-1.56104-3.48701842-3.48702V4.3587643c0-1.92577 1.56103942-3.48702002 3.48701842-3.48702002H64.221978c1.925774 0 3.487019 1.56125002 3.487019 3.48702002V195.64124c0 1.92598-1.561245 3.48702-3.487019 3.48702H4.3587627z"/>
  <path stroke="#2e2e2f" stroke-width=".58115608" stroke-miterlimit="10" d="M62.788463 187.98591v-70.66153h-2.870312c-5.548312 0-10.04609-4.49778-10.04609-10.04609s4.497778-10.046086 10.04609-10.046086h2.870312v-85.21811c0-3.2098297-2.601938-5.8117697-5.811766-5.8117697H12.218906c-3.2096237 0-5.8117661 2.60194-5.8117661 5.8117697V187.98612c0 3.20962 2.6019373 5.81176 5.8117661 5.81176h44.757791c3.209828-.0002 5.811766-2.60214 5.811766-5.81197z"/>
  <path fill="#fff" d="M45.509188 172.06532c0-5.94811-4.444882-10.85449-10.193706-11.58806v-2.8615c5.748824-.73357 10.193706-5.64016 10.193706-11.58806 0-5.9479-4.444882-10.85449-10.193706-11.58806v-2.45145c5.748824-.73357 10.193706-5.64017 10.193706-11.58807s-4.444882-10.85449-10.193706-11.58806v-2.86149c5.748824-.73357 10.193706-5.64017 10.193706-11.588066 0-5.9481-4.444882-10.85469-10.193706-11.58806v-13.06648c10.313439-.73562 18.452002-9.33445 18.452002-19.83528 0-10.98346-8.903706-19.88716-19.887158-19.88716-10.983247 0-19.887158 8.9037-19.887158 19.88716 0 10.43091 8.031132 18.98526 18.24698 19.81929v13.09375c-5.705154.77293-10.103496 5.65964-10.103496 11.57658 0 5.916936 4.398342 10.803646 10.103496 11.576576v2.88466c-5.705154.77294-10.103496 5.65944-10.103496 11.57658 0 5.91715 4.398342 10.80365 10.103496 11.57658v2.47462c-5.705154.77294-10.103496 5.65944-10.103496 11.57658 0 5.91715 4.398342 10.80365 10.103496 11.57659v2.88466c-5.705154.77293-10.103496 5.65943-10.103496 11.57658 0 6.4541 5.232168 11.68627 11.686268 11.68627s11.686268-5.23258 11.686268-11.68668z"/>
  <g stroke-width="5.66930008" stroke-miterlimit="10" transform="matrix(0,0.20502225,-0.20502225,0,68.580751,-5.7249069e-6)">
    <circle cx="242.418" cy="168.252" r="86" stroke="#2e2e2f"/>
    <circle cx="460.01599" cy="170.01601" r="46" stroke="#222223"/>
    <circle cx="460.01599" cy="170.01601" r="35.432999" stroke="#414042"/>
    <circle cx="587.01599" cy="170.01601" r="46" stroke="#222223"/>
    <circle cx="587.01599" cy="170.01601" r="35.432999" stroke="#414042"/>
    <circle cx="712.01599" cy="170.01601" r="46" stroke="#222223"/>
    <circle cx="712.01599" cy="170.01601" r="35.432999" stroke="#414042"/>
    <circle cx="839.33002" cy="170.01601" r="46" stroke="#222223"/>
    <circle cx="839.33099" cy="170.01601" r="35.432999" stroke="#414042"/>
  </g>
  <g stroke-miterlimit="10" transform="matrix(0,0.20502225,-0.20502225,0,68.580751,-5.7249069e-6)">
    <circle cx="242.418" cy="168.752" r="54" stroke="#2e2e2f" stroke-width="14.17319965"/>
    <circle cx="242.418" cy="168.502" r="26.5" fill="#6d6e71" stroke="#414042" stroke-width="2.83459997"/>
  </g>
  <g transform="matrix(0,0.20502225,-0.20502225,0,68.580751,-5.7249069e-6)">
    <g fill="none" stroke="#0072bc" stroke-width="1.41729999" stroke-miterlimit="10">
      <path d="M652.532 84.699l22.847-32.347-13.428-.107-9.418 13.21-9.953-13.284-14.165-.114zm91.29-5.901c-3.415 3.622-8.547 5.925-14.284 5.925-10.283 0-18.618-7.396-18.618-16.52 0-9.125 8.335-16.521 18.618-16.521 5.835 0 11.042 2.381 14.455 6.11l-7.688 6.657c-1.411-1.998-3.915-3.328-6.768-3.328-4.406 0-7.979 3.171-7.979 7.081 0 3.91 3.572 7.08 7.979 7.08 2.853 0 5.356-1.329 6.768-3.327l7.517 6.843zm11.473 5.628h12.692V63.444h9.615l-2.369-11.264h-27.186l-2.367 11.264h9.615zm26.813-32.21v32.146h13.011V60.945h5.711c1.746.986 1.588 2.253 1.588 2.253.951 4.787-4.603 3.942-4.603 3.942v9.434l5.554 7.828h15.233l-8.409-13.319c2.537-1.126 4.283-3.379 4.283-3.379 1.744-2.112.953-7.18.953-7.18-.796-8.448-10.315-8.308-10.315-8.308h-23.006zm38.398 9.151v23.068h27.514l3.331-9.257h-20.533v-3.401h10.433v-7.293h-10.433v-3.117h20.533l-3.331-9.256h-27.514zm-142.763 0v23.068h27.824l3.37-9.257h-20.765v-3.401h10.552v-7.292h-10.552v-3.118h20.765l-3.37-9.256h-27.824z"/>
      <path d="M851.321 52.239l14.857 16.109-14.855 16.1 15.602-.079 7.015-7.606 7.014 7.606 15.6.079-14.856-16.1 14.858-16.109-15.587.079-7.029 7.62-7.034-7.62z"/>
      <path d="M652.532 84.699l22.847-32.347-13.428-.107-9.418 13.21-9.953-13.284-14.165-.114zm91.29-5.901c-3.415 3.622-8.547 5.925-14.284 5.925-10.283 0-18.618-7.396-18.618-16.52 0-9.125 8.335-16.521 18.618-16.521 5.835 0 11.042 2.381 14.455 6.11l-7.688 6.657c-1.411-1.998-3.915-3.328-6.768-3.328-4.406 0-7.979 3.171-7.979 7.081 0 3.91 3.572 7.08 7.979 7.08 2.853 0 5.356-1.329 6.768-3.327l7.517 6.843zm11.473 5.628h12.692V63.444h9.615l-2.369-11.264h-27.186l-2.367 11.264h9.615zm26.813-32.21v32.146h13.011V60.945h5.711c1.746.986 1.588 2.253 1.588 2.253.951 4.787-4.603 3.942-4.603 3.942v9.434l5.554 7.828h15.233l-8.409-13.319c2.537-1.126 4.283-3.379 4.283-3.379 1.744-2.112.953-7.18.953-7.18-.796-8.448-10.315-8.308-10.315-8.308h-23.006zm38.398 9.151v23.068h27.514l3.331-9.257h-20.533v-3.401h10.433v-7.293h-10.433v-3.117h20.533l-3.331-9.256h-27.514zm-142.763 0v23.068h27.824l3.37-9.257h-20.765v-3.401h10.552v-7.292h-10.552v-3.118h20.765l-3.37-9.256h-27.824z"/>
      <path d="M851.321 52.239l14.857 16.109-14.855 16.1 15.602-.079 7.015-7.606 7.014 7.606 15.6.079-14.856-16.1 14.858-16.109-15.587.079-7.029 7.62-7.034-7.62z"/>
    </g>
    <g fill-rule="evenodd" clip-rule="evenodd">
      <path fill="#ed1c24" d="M105.791 57.239v25.888h-5.241V66.975l-5.282 16.152h-3.277l-5.149-16.152v16.152h-5.59V57.239h7.529l4.948 14.074 4.414-14.074"/>
      <path fill="#0095da" d="M108.643 57.239h11.101c3.512 0 7.238 2.897 7.222 6.356-.015 3.379-2.595 4.894-4.326 5.761 2.801.702 5.05 4.008 4.928 6.76-.154 3.496-3.248 7.01-7.824 7.01h-11.101V57.239zm5.416 3.641h3.478c5.316 0 5.104 6.261.268 6.261h-3.745V60.88h-.001zm.067 10.639h3.478c5.316 0 5.104 7.757.267 7.757h-3.745v-7.757z"/>
    </g>
    <circle cx="145.69701" cy="71.150002" r="3.9360001" fill="#ed1c24" fill-rule="evenodd" clip-rule="evenodd"/>
    <circle cx="166.687" cy="71.150002" r="3.9360001" fill="#ed1c24" fill-rule="evenodd" clip-rule="evenodd"/>
    <circle cx="187.67599" cy="71.150002" r="3.9360001" fill="#ed1c24" fill-rule="evenodd" clip-rule="evenodd"/>
    <circle cx="328.25201" cy="70.150002" r="3.9360001" fill="#ed1c24" fill-rule="evenodd" clip-rule="evenodd"/>
    <circle cx="350.25201" cy="70.182999" r="3.9360001" fill="#ed1c24" fill-rule="evenodd" clip-rule="evenodd"/>
    <circle cx="371.242" cy="70.182999" r="3.9360001" fill="#ed1c24" fill-rule="evenodd" clip-rule="evenodd"/>
    <circle cx="392.26801" cy="70.182999" r="3.9360001" fill="#ed1c24" fill-rule="evenodd" clip-rule="evenodd"/>
    <circle cx="413.258" cy="70.182999" r="3.9360001" fill="#ed1c24" fill-rule="evenodd" clip-rule="evenodd"/>
    <circle cx="434.24799" cy="70.182999" r="3.9360001" fill="#ed1c24" fill-rule="evenodd" clip-rule="evenodd"/>
    <circle cx="455.237" cy="70.182999" r="3.9360001" fill="#ed1c24" fill-rule="evenodd" clip-rule="evenodd"/>
    <circle cx="600.31598" cy="71.150002" r="3.9360001" fill="#ed1c24" fill-rule="evenodd" clip-rule="evenodd"/>
    <circle cx="621.30701" cy="71.150002" r="3.9360001" fill="#ed1c24" fill-rule="evenodd" clip-rule="evenodd"/>
  </g>
  <path fill="#ed1c24" d="M16.861224 95.638154h-5.48537v-1.51593h3.594245c-.186365-.24521-.337261-.48263-.452484-.71184-.115222-.22922-.225729-.51686-.331111-.86273h1.228904c.164222.51009.361864.90619.592309 1.18831.230445.2819.515221.50271.853507.66201v1.24018zm-5.48537 27.027256v-4.49572c.443873.0517.861504.20789 1.252686.46909.390978.2612.852893.75099 1.38513 1.4698.326191.43895.573858.71983.743206.84244.169143.1226.329676.1837.482007.1837.164223 0 .304663-.0605.421321-.18206.116248-.12158.174679-.27412.174679-.45802 0-.19129-.06007-.34751-.180215-.46909-.120143-.12138-.332341-.20297-.636389-.24459l.121579-1.50077c.42173.0588.750996.16669.987592.32353.236595.15684.418245.37847.544539.66407.126294.28559.18944.68128.18944 1.18646 0 .52732-.06007.93757-.180214 1.23075-.120348.29297-.304868.52362-.553765.69154-.248897.16791-.527932.25197-.836901.25197-.328856 0-.642745-.0964-.941872-.28888-.299333-.19251-.627983-.54249-.986157-1.05033-.208508-.30158-.354484-.50332-.437723-.60502-.08344-.10189-.192516-.22142-.327625-.35878v2.33971h-1.221318zm3.833711 22.90078l.253818-1.41649c.451049.11768.797126.34423 1.037412.67903.240491.3348.360634.80861.360634 1.42203 0 .70384-.131214 1.21271-.393642 1.5266-.262429.31389-.59231.47093-.989643.47093-.23311 0-.443873-.064-.632698-.19128-.189031-.12773-.354484-.32025-.496769-.57755-.05146.20851-.111737.36781-.180215.47811-.110507.17899-.255663.3184-.436082.41763-.180215.0992-.395488.14905-.645615.14905-.313889 0-.614862-.082-.903123-.24643-.288056-.16443-.510095-.40103-.665912-.70999-.155612-.30918-.233521-.71512-.233521-1.21763 0-.49062.05761-.8775.172834-1.16084.115428-.28313.283956-.51624.505995-.69892.221834-.18288.500869-.32311.836901-.42132l.198666 1.49748c-.301587.0589-.51071.15008-.627368.27391-.116452.12384-.174679.2815-.174679.47299 0 .20092.0734.36842.220604.5021.147206.13367.343412.20072.588619.20072.250332 0 .443873-.0644.581238-.19334.137365-.12855.206048-.30323.206048-.52424 0-.11768-.02952-.27945-.08836-.48549l1.070626.0771c-.0123.0834-.01825.14865-.01825.19498 0 .19621.06253.36002.187595.49123.124859.13101.2735.19662.445104.19662.164428 0 .295437-.0488.393642-.147.09821-.0982.147206-.23311.147206-.40492 0-.17652-.0533-.32004-.159917-.43055-.107022-.1105-.294002-.18534-.561146-.2245zm-2.825616 27.56996v-2.72987h1.232388l3.244887 2.72967v1.30599h-3.314799v.67698h-1.162476v-.67698h-1.008095v-1.30599h1.008095zm1.162476 0h1.697379l-1.697379-1.44233v1.44233z"/>
</svg>
