<svg xmlns="http://www.w3.org/2000/svg" viewBox="0 0 30.000001 29.999999">
  <g fill="#666">
    <path d="M11.53374926 14.74804136c.00358452-.01324713 0-.46738986 0-.46738986l-.07169034.46738986-2.63041217 9.73866545H6.3630054l-2.62308728-9.7386654c-.02836444-.0375595-.08291144-.47674074-.08291144-.47674074v.47674077l-.00950676 9.73866546H.05409944V4.1897683H4.4936018l3.000085 11.0332995.05657303.3260352.05657304-.3260352L10.5314871 4.1897683h4.6372742v20.29709435h-3.63127167l-.00374037-9.7388213"/>
    <path fill-rule="evenodd" d="M20.3621032 7.5515778c.21491518-.0282086 1.03467866-.01511732 1.03467866-.01511732.76506063-.00950676 2.36110584.72173473 2.33476743 2.23097228-.033975 2.06530525-1.6149029 2.4912394-2.3328973 2.50261634 0 0-.825374.01496146-1.03654885.01496146V7.5515778m.02462407 8.33478152c.33351594-.00763658 1.08158907.00732488 1.08158907.00732488 1.4076243.01137695 2.86995142.90470095 2.841587 2.5082269-.0321048 1.92597662-1.5414982 2.6569064-2.77192268 2.66095847 0 0-.83098458.01870183-1.15327942.0054547l.00202605-5.18196495zM16.7649623 4.16904042l4.8654365.00389623c3.50893057.0035845 5.8754911 2.60220357 5.74753943 5.4551675-.08493747 1.9278468-.8705701 3.34295182-1.8524161 4.15523457 2.00327752 1.2757764 2.8397168 3.78197724 2.4251596 5.91897284-.68588956 3.53308708-3.60290725 4.76927793-6.25233294 4.76927793h-4.9220095l-.01137696-20.3025491z" clip-rule="evenodd"/>
  </g>
</svg>
