<svg xmlns="http://www.w3.org/2000/svg" viewBox="0 0 1000 114"><g id="Layer_2" data-name="Layer 2"><rect x="465.78" y="69.09" width="69.11" height="33.02" fill="#fff"/></g><g id="Layer_1" data-name="Layer 1"><path d="M445,110.5a3.51,3.51,0,0,1-2.59-5.86l3.12-3.41A223.78,223.78,0,0,0,479,53.88c-.56,0-1.11.07-1.67.07h0a25.23,25.23,0,1,1,21.75-12.46h17.18a3.5,3.5,0,0,1,3.29,2.31l.49,1.35c5.24,14.52,16.6,30.28,27.59,45.52,2.62,3.64,5.34,7.4,7.94,11.11l2.26,3.21A3.5,3.5,0,0,1,555,110.5Zm95.21-11.07-1.58-2.2C532.53,88.74,526.25,80,520.86,71.3a3.46,3.46,0,0,1-1.11.71,3.65,3.65,0,0,1-1.29.25,3.46,3.46,0,0,1-2.7-1.28l-5.14-6.22-3.38,8.86A3.5,3.5,0,0,1,504,75.88l-.44,0a3.51,3.51,0,0,1-3-3.08l-.34-3-.31.61a3.51,3.51,0,0,1-3.11,1.9h0a3.52,3.52,0,0,1-3.1-2L492,67.08l-1.4,3.11a3.49,3.49,0,0,1-3.19,2.07,3,3,0,0,1-.42,0,3.49,3.49,0,0,1-3-2.85l-.22-1.22a236.46,236.46,0,0,1-22,31.27Z" fill="#333"/><path d="M477.33,7a21.72,21.72,0,0,1,18,33.94l-10.65,0-.51,1.28c-1,2.55-2.23,5.21-3.6,7.93a21.47,21.47,0,0,1-3.2.26,21.73,21.73,0,1,1,0-43.45m38.93,38,.49,1.35c6.67,18.49,22.28,38,36,57.45L555,107H445l3.11-3.41a222,222,0,0,0,38.53-57.41l.55-1.19h29m-62.09,57.94h92.9C536.65,88.3,525.33,73.56,517.81,58.8l.64,10-9-10.86L504,72.38l-1.63-14.49-5.61,10.86-4.86-9.9-4.45,9.9-2-10.88a228.91,228.91,0,0,1-31.29,45.06M477.33,0a28.73,28.73,0,0,0-4.06,57.17A222.75,222.75,0,0,1,443,98.87l-3.12,3.41A7,7,0,0,0,445,114H555a7,7,0,0,0,5.73-11l-2.25-3.21c-2.62-3.73-5.34-7.5-8-11.14C539.63,73.58,528.41,58,523.33,44l-.48-1.34A7,7,0,0,0,516.26,38H504.52A28.74,28.74,0,0,0,477.33,0ZM504,79.38a7,7,0,0,0,6.53-4.51l1.24-3.24,1.31,1.58a6.93,6.93,0,0,0,6.42,2.47c4.33,6.83,9.14,13.59,13.93,20.25H469.08a238.23,238.23,0,0,0,14.77-21.15,7.08,7.08,0,0,0,2.72.92,6.18,6.18,0,0,0,.85.06A7,7,0,0,0,492.08,74a6.93,6.93,0,0,0,4.58,1.77h.07a6.35,6.35,0,0,0,1.07-.08,7,7,0,0,0,5.29,3.65,6.65,6.65,0,0,0,.89.06Z" fill="#fff"/><path d="M477.33,7A21.73,21.73,0,0,0,455.6,28.73h0a21.73,21.73,0,0,0,21.73,21.72,21.47,21.47,0,0,0,3.2-.26c1.37-2.72,2.59-5.38,3.6-7.93l.51-1.28,10.65,0A21.72,21.72,0,0,0,477.33,7Zm9.9,38-.55,1.19a222,222,0,0,1-38.53,57.41L445,107H555l-2.25-3.21c-13.68-19.48-29.29-39-36-57.45L516.26,45Zm-1.77,12.88,2,10.88,4.45-9.9,4.86,9.9,5.61-10.86L504,72.38l5.52-14.49,9,10.86-.64-10c7.52,14.76,18.84,29.5,29.26,44.13h-92.9a228.91,228.91,0,0,0,31.29-45.06Z" fill="#333"/></g></svg>