<svg id="Layer_1" data-name="Layer 1" xmlns="http://www.w3.org/2000/svg" viewBox="0 0 1000 114"><title>logo</title><rect x="397.56" y="9.86" width="48.36" height="93.86" fill="#fff"/><g id="Capa_1" data-name="Capa 1"><path d="M443,109.2a3.5,3.5,0,0,1-1.94-6.42l1.23-.82,1.49-1L438.87,79.4c-1.81,7.1-3.68,14.41-5.57,21.62.5.32,1,.65,1.48,1s.71.49,1.11.75a3.5,3.5,0,0,1-1.94,6.42H421.51a3.5,3.5,0,0,1-2.49-6,13,13,0,0,1,3.33-2.31c.37-.2.69-.36,1-1.62,3.66-14.71,7.34-29.06,10.46-41.15a3.78,3.78,0,0,0-.2-1.45l-.1-.44q-2.28-10.32-4.57-20.62-2.44-11-4.89-22.06l-3.53-2.35a3.5,3.5,0,0,1,1.94-6.41h17.77A3.52,3.52,0,0,1,443.47,7a3.48,3.48,0,0,1,3.22-2.14h12.79a3.5,3.5,0,0,1,1.94,6.41l-1.16.78c-.81.55-1.59,1.08-2.38,1.58l-.09.38c-3.1,12.52-6.3,25.47-9.5,38.2a4.62,4.62,0,0,0,.18,1l.09.41Q451,64.38,453.42,75.1l2.42,10.69c1.1,4.88,2.2,9.76,3.27,14.64.83.48,1.6,1,2.41,1.54l1.21.8a3.5,3.5,0,0,1-1.91,6.43ZM439.47,13q1.95,8.49,3.87,17,2-8.49,4.08-17c-.48-.3-.95-.62-1.43-.94l-1.22-.82a3.51,3.51,0,0,1-1.31-1.59,3.53,3.53,0,0,1-1.3,1.56L441,12C440.44,12.38,440,12.71,439.47,13Z" fill="#efe464"/><path d="M440.23,8.31c-1.41.93-2.59,1.76-3.81,2.51a1.28,1.28,0,0,0-.66,1.65q3.58,15.57,7.08,31.15c.08.37.19.73.28,1.08h0c.34,0,.33-.26.37-.45l7.67-31.95A1,1,0,0,0,450.7,11l-.08,0c-1.28-.77-2.51-1.64-4-2.59h12.79c-1.38.92-2.62,1.79-3.91,2.59a2.12,2.12,0,0,0-1,1.42q-4.83,19.5-9.69,39a6.44,6.44,0,0,0,.25,3.08q3.62,16.08,7.28,32.15c1.11,4.93,2.23,9.87,3.31,14.82a2.65,2.65,0,0,0,1.35,1.91c1.2.68,2.32,1.49,3.73,2.4H443c1.45-1,2.69-1.83,4-2.61a1.07,1.07,0,0,0,.57-1.37q-4-17.83-8-35.67c-.09-.39-.19-.79-.38-1.5l-1.61,6.24c-2.6,10.14-5.18,20.29-7.83,30.41a1.64,1.64,0,0,0,.76,2.18l.12,0c1.11.62,2.14,1.39,3.43,2.25H421.51A9.44,9.44,0,0,1,424,104a5.32,5.32,0,0,0,2.79-3.88Q431.88,79.55,437.2,59a7.3,7.3,0,0,0-.27-3.53q-4.8-21.69-9.62-43.38a1.7,1.7,0,0,0-.82-1.12l-4-2.68h17.77m19.25,0h0m-19.25-7h-17.8a7,7,0,0,0-3.88,12.83l1.24.83,1.12.74q2.3,10.38,4.6,20.75T430.09,57l.11.48a1.44,1.44,0,0,0,.08.33c-3.08,11.92-6.68,26-10.26,40.37a15.19,15.19,0,0,0-3.48,2.58,7,7,0,0,0,5,11.92H434a7,7,0,0,0,4.49-1.62A7,7,0,0,0,443,112.7h17.87a7,7,0,0,0,3.81-12.87c-.41-.26-.79-.52-1.16-.77l-1.25-.83c-1-4.4-2-8.76-3-13.21q-1.2-5.34-2.42-10.68Q454.41,63.61,452,52.88l-.1-.45v-.07c3-12.19,6.1-24.56,9.1-36.57l1.27-.86,1-.7a7,7,0,0,0-3.78-12.89h-12.8a7,7,0,0,0-3.2.77,7.11,7.11,0,0,0-3.26-.8Zm3.2,13.28Zm-3.2.72Zm-2.92,84.2q.68-2.58,1.34-5.16l1.14,5-.71.48a5.52,5.52,0,0,0-.62.46,7.62,7.62,0,0,0-.64-.48l-.51-.34Z" fill="#fff"/><path d="M480.44,109.26a3.5,3.5,0,0,1-1.94-6.42c.44-.28.84-.56,1.23-.83l2-1.34V80h-9.62a4.19,4.19,0,0,1-4.42-5.38q4.81-22.95,9.61-45.91l3-14.3c.17-.84.36-1.68.54-2.51.25-1.17.51-2.34.74-3.51a4.25,4.25,0,0,1,4.27-3.63h7.42a4,4,0,0,1,3.43,1.64,3.9,3.9,0,0,1,.38,3.75C496.43,12.3,493.72,21,493.72,21l-9.64,31c.12-.09.25-.17.38-.25,1.56-1,3.15-2,4.68-3L491,47.56a3.56,3.56,0,0,1,1.9-.55,3.48,3.48,0,0,1,2.67,1.24,4.69,4.69,0,0,1,1,3.53v18H499A4.22,4.22,0,0,1,502.1,71a4.33,4.33,0,0,1,1.17,3.25v.91c0,4.19-2.66,4.81-4.24,4.81h-2.36v20.74l1.82,1.21,1.05.71a3.49,3.49,0,0,1,1.34,4.14v.12a3.62,3.62,0,0,1-3.32,2.36Zm1.31-39.49V59.51l-3.19,10.26Z" fill="#efe464"/><path d="M493.35,8.24c.82,0,.53.47.4.87q-1.68,5.43-3.38,10.86-8.13,26.18-16.27,52.35c-.08.28-.13.57-.22,1h10.77c.83,0,.59-.63.59-1.06V56.81a2,2,0,0,1,1-2c2.24-1.36,4.42-2.82,6.64-4.24.36.42.21.85.21,1.24v20.3c0,.93.23,1.25,1,1.25H499c.64,0,.83.26.81.91,0,2.09.16,2.31-.75,2.31H494c-.58,0-.85.17-.85.87V102a1.3,1.3,0,0,0,.72,1.17c1.25.81,2.48,1.64,3.72,2.47l-.08.21h-17c1.43-1,2.59-1.78,3.81-2.51a1.91,1.91,0,0,0,1-1.9V77.9c0-1-.27-1.33-1.25-1.33h-12c-.89,0-1.1-.25-.91-1.16q6.33-30.1,12.6-60.21c.43-2,.89-4,1.29-6,.11-.51.26-.82.84-.82h7.44m0-7h-7.48a7.75,7.75,0,0,0-7.7,6.44c-.23,1.15-.48,2.3-.73,3.45-.19.85-.37,1.69-.55,2.54l-3,14.62Q469.08,51.23,464.3,74a7.68,7.68,0,0,0,5.48,9.36,8,8,0,0,0,2.28.24h6.2V98.93l-.49.34-1.2.81a7,7,0,0,0,3.87,12.83h17a7,7,0,0,0,6.55-4.53v-.21a7,7,0,0,0-2.66-8.29l-1-.7-.28-.18V83.53c2.19-.32,6.62-1.76,6.63-8.22v-.82a7.62,7.62,0,0,0-6.63-8V51.94A8,8,0,0,0,498.26,46a7,7,0,0,0-5.35-2.48,6.91,6.91,0,0,0-2.69.54l6.84-22,1.43-4.62,1.92-6.16a7.38,7.38,0,0,0-.82-6.9,7.49,7.49,0,0,0-6.24-3.13Z" fill="#fff"/><path d="M598.63,110.34c-3,0-5.75-1.62-7.86-4.55a35.79,35.79,0,0,1-5.3-12.43,135.31,135.31,0,0,1-2.85-17.66,179.64,179.64,0,0,1-.89-22.84,154.4,154.4,0,0,1,2-22.92,72.78,72.78,0,0,1,4.1-15.62,26,26,0,0,1,4.24-7.26,8.59,8.59,0,0,1,12-1.55,8.48,8.48,0,0,1,1,.85c2.92,2.8,4.38,6.28,5.52,9.31a81.2,81.2,0,0,1,4.3,19.21c.49,4,.85,8.35,1.11,13.14a3.54,3.54,0,0,1,.26,1.33V66.5a3.44,3.44,0,0,1-.26,1.31,120.29,120.29,0,0,1-3.72,25.53c-1.23,4.44-2.81,9.08-6.06,13-2.76,3.31-5.66,4-7.6,4Zm.19-95.68a73,73,0,0,0-1.22,12.25c-.27,6.1-.36,12.18-.45,18.05V58.44c-.08,10.25.07,19.74.44,29a77,77,0,0,0,1.08,11.13,2.62,2.62,0,0,0,.11.57,44.08,44.08,0,0,0,1.38-10.35l.05-.78c.26-4.62.37-9.22.45-14.71.09-6.43.09-12.86.07-17.73V48.44c0-6.13,0-12.48-.21-18.68a102.54,102.54,0,0,0-1.15-13.21,14.58,14.58,0,0,0-.47-2.18Z" fill="#efe464"/><path d="M598.88,7.23a5.42,5.42,0,0,1,3.77,1.66c2.32,2.22,3.57,5.08,4.67,8a78.93,78.93,0,0,1,4.11,18.4c.54,4.51.89,9,1.12,13.57,0,.19,0,.38.22.48V66.5h-.19a119.2,119.2,0,0,1-3.66,25.9c-1.16,4.17-2.54,8.27-5.38,11.68a6.57,6.57,0,0,1-4.91,2.75c-1.78,0-3.54-1-5-3.1a32.28,32.28,0,0,1-4.74-11.24,129.71,129.71,0,0,1-2.77-17.2,176,176,0,0,1-.87-22.38,150.14,150.14,0,0,1,2-22.4,70.14,70.14,0,0,1,3.9-14.88,22.6,22.6,0,0,1,3.65-6.31,5.42,5.42,0,0,1,4.12-2.1m-.18,96.94a2.69,2.69,0,0,0,2-1.08A6.9,6.9,0,0,0,602,100.7c1.32-4,1.49-8.27,1.73-12.45.29-4.94.39-9.9.46-14.86.09-5.93.09-11.86.07-17.8,0-8.64.12-17.28-.21-25.92A102.59,102.59,0,0,0,602.8,16c-.31-1.8-.63-3.65-1.92-5.09a2.61,2.61,0,0,0-3.65-.53,2.67,2.67,0,0,0-.73.84,7.54,7.54,0,0,0-1.1,2.69,77,77,0,0,0-1.3,12.86c-.26,6-.36,12.09-.45,18.13-.07,4.51,0,9,0,13.54-.07,9.73,0,19.46.44,29.18a81.21,81.21,0,0,0,1.14,11.64,8.14,8.14,0,0,0,1.41,3.76,2.72,2.72,0,0,0,2.08,1.15M598.88.23a12.36,12.36,0,0,0-9.45,4.56A29.47,29.47,0,0,0,584.62,13a77.13,77.13,0,0,0-4.31,16.35,156.1,156.1,0,0,0-2.07,23.45,179.19,179.19,0,0,0,.91,23.28,134,134,0,0,0,2.93,18.13,39,39,0,0,0,5.85,13.61c2.78,3.87,6.58,6,10.7,6a13.45,13.45,0,0,0,10.29-5.28c3.67-4.41,5.41-9.47,6.74-14.29a122.09,122.09,0,0,0,3.82-25.78,7.11,7.11,0,0,0,.29-2V49.35a7.11,7.11,0,0,0-.29-2c-.26-4.69-.62-8.91-1.1-12.89a85.22,85.22,0,0,0-4.5-20c-1.37-3.66-3.09-7.47-6.39-10.62a12.47,12.47,0,0,0-8.61-3.6Z" fill="#fff"/><path d="M522.66,110.32a9.4,9.4,0,0,1-7.4-4c-3.23-4.17-4.71-8.92-5.83-13.42a132.28,132.28,0,0,1-2.85-18.24,167.57,167.57,0,0,1-.83-22.06c.25-8.66.91-20.06,3.9-31.42,1.15-4.39,2.64-9,5.69-13.13,2.71-3.6,5.66-4.37,7.66-4.37s4.66.7,7.4,4,4.24,7.48,5.43,11.31a97.58,97.58,0,0,1,3.56,19.47,171.46,171.46,0,0,1,.91,19.62,148.75,148.75,0,0,1-1,19.57c-.78,6.6-2,14.34-5,21.69a23.18,23.18,0,0,1-4.8,7.85,9.64,9.64,0,0,1-6.85,3.12Zm.27-95.86a36.89,36.89,0,0,0-.89,6.36l-.07.87c-.46,5.54-.56,11.25-.65,16.77v.21c-.08,4.59-.06,9.27,0,13.79V66.33c0,5.07,0,10.32.14,15.45v.76c.17,4.65.35,9.46.94,14.08l.05.41a21.68,21.68,0,0,0,.36,2.26c.05-.17.1-.34.14-.54a62.25,62.25,0,0,0,1.41-12.91c.24-6.21.38-12.78.46-21.3.1-11.06,0-21.09-.15-30.67a128.16,128.16,0,0,0-1.14-16.61A16.61,16.61,0,0,0,522.93,14.46Z" fill="#efe464"/><path d="M522.94,7.18c1.59,0,3.2.91,4.71,2.74,2.44,3,3.67,6.52,4.78,10.12a93.42,93.42,0,0,1,3.42,18.77,167.7,167.7,0,0,1,.9,19.28,144.42,144.42,0,0,1-1,19.17c-.83,7.08-2,14.11-4.72,20.77a20,20,0,0,1-4,6.71,6.14,6.14,0,0,1-4.36,2.08,5.92,5.92,0,0,1-4.63-2.61c-2.79-3.58-4.13-7.8-5.2-12.12A129.87,129.87,0,0,1,510,74.33a162.12,162.12,0,0,1-.81-21.59c.29-10.33,1.15-20.6,3.78-30.63,1.11-4.23,2.47-8.37,5.12-11.93,1.48-2,3.13-3,4.79-3m-.17,97A2.73,2.73,0,0,0,525,102.9a9.28,9.28,0,0,0,1.4-3.3A66.14,66.14,0,0,0,527.85,86c.28-7.13.41-14.27.47-21.4.09-10.26.06-20.52-.15-30.78A131.86,131.86,0,0,0,527,16.74a12.7,12.7,0,0,0-1.73-5.42,2.87,2.87,0,0,0-2.36-1.47,3,3,0,0,0-2.35,1.39,6.74,6.74,0,0,0-1,2.26,44.82,44.82,0,0,0-1.08,7.9c-.47,5.73-.56,11.48-.66,17.22-.11,6.61,0,13.23,0,19.84,0,7.82-.16,15.63.13,23.45.19,5.07.35,10.13,1,15.16.25,2,.44,4.05,1.64,5.79a2.72,2.72,0,0,0,2.2,1.31M523,.17c-2.27,0-6.64.76-10.4,5.82-3.42,4.58-5,9.59-6.28,14.33-3.07,11.7-3.76,23.36-4,32.21a171.2,171.2,0,0,0,.85,22.53A136.08,136.08,0,0,0,506,93.78c1.21,4.88,2.83,10,6.46,14.72a12.8,12.8,0,0,0,10.17,5.32,13.23,13.23,0,0,0,9.34-4.16,26.29,26.29,0,0,0,5.55-9c3.15-7.74,4.39-15.77,5.19-22.6a150.2,150.2,0,0,0,1-20,171.23,171.23,0,0,0-.93-20A102.07,102.07,0,0,0,539.12,18c-1.29-4.16-2.82-8.56-6.07-12.49C529.44,1.1,525.56.18,522.94.18Z" fill="#fff"/><path d="M560.53,110.33c-3,0-5.79-1.62-7.91-4.57a36.35,36.35,0,0,1-5.28-12.42,120.09,120.09,0,0,1-2.63-15.75A159.17,159.17,0,0,1,543.59,57a146.2,146.2,0,0,1,.73-17c.79-7.85,1.93-17,5.42-25.63,1.13-2.8,2.57-6,5.49-8.44a8.23,8.23,0,0,1,11.62.38h0c3,2.81,4.49,6.39,5.66,9.51A83.44,83.44,0,0,1,576.78,35a188.08,188.08,0,0,1,1.32,27.26c-.23,8.66-.88,20-3.94,31.12-1.19,4.29-2.72,8.81-5.87,12.76-2.17,2.71-4.92,4.2-7.76,4.2Zm.15-95.64a74.62,74.62,0,0,0-1.21,12.39c-.25,6.1-.35,12.32-.45,18.35V64.31c0,3,0,6,.07,9v2.17c.12,6.6.25,13.42,1,20a25.51,25.51,0,0,0,.55,3.59,33.08,33.08,0,0,0,1.16-7.2l.06-.74c.41-4.55.5-9.26.58-13.81L562.5,74c.13-5.84.11-11.81.09-17.58v-8.1c0-6.22,0-12.65-.21-18.93a97.65,97.65,0,0,0-1.16-13,17.5,17.5,0,0,0-.46-2.15,2.6,2.6,0,0,1-.08.42Z" fill="#efe464"/><path d="M560.86,7.17a5.28,5.28,0,0,1,3.59,1.64c2.4,2.26,3.66,5.2,4.78,8.2a79,79,0,0,1,4.08,18.4,183.89,183.89,0,0,1,1.29,26.75c-.27,10.21-1.08,20.38-3.82,30.28-1.13,4.1-2.52,8.11-5.23,11.51-1.53,1.92-3.29,2.88-5,2.88a6.43,6.43,0,0,1-5.06-3.1,32.77,32.77,0,0,1-4.73-11.25,114.5,114.5,0,0,1-2.55-15.29,154.94,154.94,0,0,1-1.1-20.2,142.74,142.74,0,0,1,.71-16.67c.85-8.41,2-16.77,5.19-24.68a16.39,16.39,0,0,1,4.48-7.06,5.3,5.3,0,0,1,3.39-1.41m-.21,97c1.33,0,2-1,2.6-2a6.71,6.71,0,0,0,.36-.83c1.22-3.12,1.43-6.43,1.73-9.71.52-5.76.53-11.55.65-17.33.14-6.23.11-12.46.09-18.7,0-8.71.12-17.43-.21-26.15A102.65,102.65,0,0,0,564.66,16c-.31-1.83-.64-3.72-2-5.16a2.78,2.78,0,0,0-2-.93,2.69,2.69,0,0,0-2.17,1.22A7.41,7.41,0,0,0,557.26,14,78.78,78.78,0,0,0,556,27c-.27,6.49-.36,13-.46,19.48-.07,4,0,8,0,12.07,0,5,0,10,.11,15,.14,7.51.2,15,1,22.5a21,21,0,0,0,1.2,5.81c.49,1.23,1.27,2.3,2.74,2.36h.11m.21-104a12.17,12.17,0,0,0-7.88,3C549.62,6,547.87,9.59,546.49,13c-3.66,9.1-4.84,18.5-5.66,26.59A151,151,0,0,0,540.09,57a160.2,160.2,0,0,0,1.15,21A120.1,120.1,0,0,0,544,94.21a39.14,39.14,0,0,0,5.83,13.6c2.79,3.88,6.6,6,10.75,6,3.92,0,7.65-2,10.49-5.52,3.55-4.43,5.22-9.35,6.51-14,3.16-11.46,3.84-23.1,4.07-32a190.86,190.86,0,0,0-1.34-27.77,86.83,86.83,0,0,0-4.48-20c-1.3-3.5-3-7.51-6.53-10.84A12.1,12.1,0,0,0,560.86.17Z" fill="#fff"/><path d="M414.08,110.5a3.84,3.84,0,0,1-.48,0,3.51,3.51,0,0,1-2.83-2.32l-1-2.79a11.15,11.15,0,0,1-2.6,3,8.72,8.72,0,0,1-4.8,2,3.55,3.55,0,0,1-1.12.18c-12.06,0-17.55-27.73-17.55-53.5s6.48-53.28,18.5-53.48h.55a9.6,9.6,0,0,1,6.54,2.64,9,9,0,0,1,1-1.26,3.55,3.55,0,0,1,4-.64,4,4,0,0,1,2.2,4V38.13a3.75,3.75,0,0,1-.16,1.1,3.43,3.43,0,0,1-3.36,2.68,3.47,3.47,0,0,1-1.45-.31,4.07,4.07,0,0,1-2.42-3.23L407.91,33Q406,25.16,404,17.29a11.27,11.27,0,0,0-1.43-3.39,15.59,15.59,0,0,0-1.39,5,134.2,134.2,0,0,0-1.39,16.39c-.19,4.35-.29,8.73-.35,13.12a3.53,3.53,0,0,1,2.22-.8h11.82a4.34,4.34,0,0,1,3.4,1.43,4.16,4.16,0,0,1,1,3.31v53.09A5.18,5.18,0,0,1,417,109,3.5,3.5,0,0,1,414.08,110.5ZM399.42,53.83c0,5.89,0,11.76.05,17.53,0,4.93.18,10,.45,15.4a54.51,54.51,0,0,0,1.41,11.52,12.17,12.17,0,0,0,.57,1.67,11.28,11.28,0,0,0,.69-2.67v-.17a37.86,37.86,0,0,0,.42-6.89V56.29c-.68-.43-1.34-.88-2-1.35l-1.28-.86Z" fill="#efe464"/><path d="M402.78,7a6.16,6.16,0,0,1,4.81,2.4,28.54,28.54,0,0,1,2.08,3.26c.51-.35.6-.9.85-1.33.77-1.33,1.19-2.85,2.32-4,.35.17.26.51.26.79V38a1.31,1.31,0,0,1-.06.27c-.37-.16-.34-.51-.41-.8-1.73-7-3.44-14.06-5.2-21.08a14.2,14.2,0,0,0-2.28-5,2.9,2.9,0,0,0-5.23.13,16.91,16.91,0,0,0-2.17,6.81,141.17,141.17,0,0,0-1.43,16.81c-.51,12.07-.42,24.13-.34,36.19,0,5.19.2,10.37.45,15.55A58,58,0,0,0,398,99.19a11.1,11.1,0,0,0,1.56,3.6,2.84,2.84,0,0,0,2.28,1.32,3,3,0,0,0,2.06-.94c1.52-1.48,1.85-3.47,2.21-5.43a41.14,41.14,0,0,0,.48-7.52V55.48a1.77,1.77,0,0,0-.94-1.72c-1.25-.75-2.44-1.59-3.94-2.6h11.83c.69,0,1,.23.89,1a5.42,5.42,0,0,0,0,.57v52.79a2.09,2.09,0,0,1-.31,1.54c-1.58-4.53-3.1-8.88-4.61-13.23-.39,2-.61,4-1.15,6-.63,2.23-1.43,4.37-3.31,5.88a5.1,5.1,0,0,1-3.19,1.2,4.86,4.86,0,0,1-.54,0V107c-7.76,0-14-22.39-14-50S394.7,7,402.46,7h.41m0-7h-.7C395,.17,389.28,6.74,385.3,19.55c-3.21,10.31-5,23.6-5,37.43,0,14,1.56,27.21,4.38,37.25C388.36,107.33,394,114,401.35,114a7,7,0,0,0,1.77-.23,12,12,0,0,0,5.72-2.2,7,7,0,0,0,4.35,2.36,6.73,6.73,0,0,0,1,.07,7,7,0,0,0,5.74-3,8.74,8.74,0,0,0,1.57-5.69V52.67a.54.54,0,0,0,0-.18,7.57,7.57,0,0,0-5.19-7.92,7,7,0,0,0,3.62-4.52,7.48,7.48,0,0,0,.27-2V8.27A7.54,7.54,0,0,0,416,1.1a7,7,0,0,0-7,.47A12.88,12.88,0,0,0,402.78,0ZM403,44.16c.06-2.9.14-5.79.27-8.67.08-1.87.16-3.69.26-5.46.31,1.26.62,2.52.92,3.76L405.78,39a7.63,7.63,0,0,0,3.4,5.15H403Z" fill="#fff"/><path d="M612.55,62.44c.09-.75-.24-1.54.22-2.26v2.26C612.7,62.54,612.62,62.54,612.55,62.44Z" fill="#f1e87a"/><path d="M612.77,53.64c-.44-.72-.15-1.51-.21-2.27q.11-.13.21,0Z" fill="#f5ed99"/><path d="M612.77,51.38h-.21c.07-.52-.24-1.1.21-1.57Z" fill="#f7f2ba"/><path d="M612.58,65.16V63.8q.09-.16.21,0v1.35C612.71,65.24,612.65,65.25,612.58,65.16Z" fill="#f7f2b8"/><path d="M612.58,65.16h.19V66.5h-.19Z" fill="#fbf9e1"/><path d="M612.77,63.79h-.21V62.43h.22Z" fill="#f5ee9c"/><path d="M422.46,8.31h17.77c-1.41.93-2.59,1.76-3.81,2.51a1.28,1.28,0,0,0-.66,1.65q3.58,15.57,7.08,31.15c.08.37.19.73.28,1.08.37,0,.35-.25.4-.45l7.67-31.95a1,1,0,0,0-.46-1.34l-.08,0c-1.28-.77-2.51-1.64-4-2.59h12.79c-1.38.92-2.62,1.79-3.91,2.59a2.12,2.12,0,0,0-1,1.42q-4.83,19.5-9.69,39a6.44,6.44,0,0,0,.25,3.08q3.62,16.08,7.28,32.15c1.11,4.93,2.23,9.87,3.31,14.82a2.65,2.65,0,0,0,1.35,1.91c1.2.68,2.32,1.49,3.73,2.4H443c1.45-1,2.69-1.83,4-2.61a1.07,1.07,0,0,0,.57-1.37q-4-17.83-8-35.67c-.09-.39-.19-.79-.38-1.5l-1.61,6.24c-2.6,10.14-5.18,20.29-7.83,30.41a1.64,1.64,0,0,0,.76,2.18l.12,0c1.11.62,2.14,1.39,3.43,2.25H421.51A9.44,9.44,0,0,1,424,104a5.32,5.32,0,0,0,2.79-3.88Q431.88,79.55,437.2,59a7.3,7.3,0,0,0-.27-3.53q-4.8-21.69-9.62-43.38a1.7,1.7,0,0,0-.82-1.12Z" fill="#ffd500"/><path d="M497.48,105.76h-17c1.43-1,2.59-1.78,3.81-2.51a1.91,1.91,0,0,0,1-1.9V77.77c0-1-.28-1.34-1.32-1.33-4,.06-7.9,0-11.85,0-.93,0-1.15-.23-1-1.16q6.33-30.11,12.6-60.21c.43-2,.89-4,1.29-6,.11-.52.26-.82.85-.82h7.44c.86,0,.56.47.43.87q-1.68,5.43-3.38,10.86-8.13,26.18-16.27,52.35c-.08.28-.13.57-.22,1h10.77c.83,0,.59-.63.59-1.06V56.82a2,2,0,0,1,1-2c2.24-1.36,4.42-2.82,6.64-4.24.36.42.21.85.21,1.24v20.3c0,1,.27,1.3,1.26,1.24,1.5-.08,3,0,4.51,0,.7,0,.91.24.89.91-.07,2.82.34,2.24-2.21,2.3H494c-.64,0-.95.13-.95.87V102a1.3,1.3,0,0,0,.72,1.17c1.25.81,2.48,1.64,3.72,2.47Z" fill="#ffd500"/><path d="M612.77,49.35c-.2-.1-.21-.29-.22-.48-.23-4.53-.58-9.06-1.12-13.57a78.93,78.93,0,0,0-4.11-18.4c-1.1-2.93-2.35-5.79-4.67-8a5.11,5.11,0,0,0-7.21-.33,5.51,5.51,0,0,0-.68.77,22.6,22.6,0,0,0-3.65,6.31,70.14,70.14,0,0,0-3.9,14.88,150.14,150.14,0,0,0-2,22.4,176,176,0,0,0,.87,22.38,129.71,129.71,0,0,0,2.77,17.2,32.28,32.28,0,0,0,4.74,11.24c2.88,4,6.78,4.13,9.93.35,2.84-3.41,4.22-7.51,5.38-11.68a119.2,119.2,0,0,0,3.66-25.9,5.18,5.18,0,0,0,.07-1.36V62.43a8.93,8.93,0,0,1,.12-2.25V53.64a9.09,9.09,0,0,1-.12-2.21c.06-.55-.13-1.1.12-1.63Zm-8.63,24c-.07,5-.17,9.92-.46,14.86-.24,4.18-.41,8.4-1.73,12.45a7,7,0,0,1-1.22,2.39,2.45,2.45,0,0,1-3.4.66,2.35,2.35,0,0,1-.71-.73,8.14,8.14,0,0,1-1.41-3.76,81.21,81.21,0,0,1-1.14-11.64c-.39-9.72-.51-19.45-.44-29.18V44.86c.09-6,.19-12.09.45-18.13a77,77,0,0,1,1.3-12.86,7.54,7.54,0,0,1,1.1-2.69,2.61,2.61,0,0,1,3.54-1,2.57,2.57,0,0,1,.84.73c1.29,1.44,1.61,3.29,1.92,5.09A103.3,103.3,0,0,1,604,29.67c.33,8.64.18,17.28.21,25.92,0,5.94,0,11.87-.07,17.8Z" fill="#ffd500"/><path d="M536.75,58.09a167.7,167.7,0,0,0-.9-19.28A93.23,93.23,0,0,0,532.43,20c-1.11-3.6-2.34-7.16-4.78-10.12-3.1-3.75-6.6-3.63-9.5.26-2.65,3.56-4,7.7-5.12,11.93-2.63,10-3.49,20.3-3.78,30.63a162.12,162.12,0,0,0,.81,21.59,129.87,129.87,0,0,0,2.77,17.76c1.07,4.32,2.41,8.54,5.2,12.12,2.53,3.27,6.07,3.48,9,.53a20.05,20.05,0,0,0,4-6.7c2.71-6.66,3.89-13.69,4.72-20.77A145.73,145.73,0,0,0,536.75,58.09Zm-8.43,6.49c-.06,7.13-.19,14.27-.47,21.4a66.38,66.38,0,0,1-1.5,13.62,9.28,9.28,0,0,1-1.4,3.3,2.5,2.5,0,0,1-4.38,0c-1.2-1.74-1.39-3.8-1.64-5.79-.65-5-.81-10.09-1-15.16-.29-7.82-.09-15.63-.13-23.45,0-6.61-.09-13.23,0-19.84.1-5.74.19-11.49.66-17.22a44.82,44.82,0,0,1,1.08-7.9,6.74,6.74,0,0,1,1-2.26c1.37-1.88,3.42-1.86,4.71.08A12.7,12.7,0,0,1,527,16.74a133.36,133.36,0,0,1,1.18,17.06Q528.48,49.19,528.32,64.58Z" fill="#ffd500"/><path d="M573.31,35.41A79,79,0,0,0,569.23,17c-1.12-3-2.38-5.94-4.78-8.2-2.23-2.09-4.63-2.2-7-.23S554,13,553,15.64c-3.19,7.91-4.34,16.27-5.19,24.68A140.76,140.76,0,0,0,547.09,57a154.94,154.94,0,0,0,1.1,20.2,114.5,114.5,0,0,0,2.55,15.29,32.77,32.77,0,0,0,4.73,11.25c2.91,4.06,6.95,4.13,10.08.22,2.71-3.4,4.1-7.41,5.23-11.51,2.74-9.9,3.55-20.07,3.82-30.28A184.09,184.09,0,0,0,573.31,35.41ZM566,74.24c-.12,5.78-.13,11.57-.65,17.33-.3,3.28-.51,6.59-1.73,9.71a6.71,6.71,0,0,1-.36.83c-.58,1.1-1.31,2.09-2.71,2a3.26,3.26,0,0,1-2.74-2.36A21,21,0,0,1,556.6,96c-.8-7.48-.86-15-1-22.5-.1-5-.06-10-.11-15V46.43c.1-6.49.19-13,.46-19.48a78.78,78.78,0,0,1,1.29-13,7.22,7.22,0,0,1,1.22-2.88,2.56,2.56,0,0,1,3.52-.85,2.63,2.63,0,0,1,.64.56c1.38,1.44,1.71,3.33,2,5.16a102.63,102.63,0,0,1,1.21,13.44c.33,8.72.18,17.44.21,26.15C566.1,61.78,566.13,68,566,74.24Z" fill="#ffd500"/><path d="M401.28,107c-7.76,0-14-22.39-14-50s7.38-50,15.14-50h0a6.16,6.16,0,0,1,5.22,2.39,28.54,28.54,0,0,1,2.08,3.26c.51-.35.6-.9.85-1.33.77-1.33,1.19-2.85,2.32-4,.35.17.26.51.26.79V38a1.31,1.31,0,0,1-.06.27c-.37-.16-.34-.51-.41-.8-1.73-7-3.44-14.06-5.2-21.08a14.2,14.2,0,0,0-2.28-5c-1.55-2.15-3.76-2.1-5.23.13a16.91,16.91,0,0,0-2.17,6.81,141.17,141.17,0,0,0-1.43,16.81c-.51,12.07-.42,24.13-.34,36.19,0,5.19.2,10.37.45,15.55A58.64,58.64,0,0,0,398,99.19a11.1,11.1,0,0,0,1.56,3.6,2.67,2.67,0,0,0,3.65,1,2.76,2.76,0,0,0,.69-.58c1.52-1.48,1.85-3.47,2.21-5.43a41.14,41.14,0,0,0,.48-7.52V55.48a1.77,1.77,0,0,0-.94-1.72c-1.25-.75-2.44-1.59-3.94-2.6h11.77c.73,0,1,.21.95,1a5.42,5.42,0,0,0,0,.57v52.79a2.09,2.09,0,0,1-.31,1.54c-1.58-4.53-3.1-8.88-4.61-13.23-.39,2-.61,4-1.15,6-.63,2.23-1.43,4.37-3.31,5.88a5,5,0,0,1-3.73,1.17" fill="#ffd500"/></g></svg>