<svg xmlns="http://www.w3.org/2000/svg" viewBox="0 0 30 30"><path d="M8.77 1.298h12.461V17.48H8.77V1.298z" fill="#282828"/><path d="M7.556 3.779h14.889v11.274H7.556V3.779z" fill="#4c4c4c"/><path d="M16.199 26.22h5.032v3.783h-5.032V26.22z" fill="#282828"/><path d="M11.29 1.298h7.417V16.24H11.29V1.298z" fill="#4c4c4c"/><path d="M7.561 27.434H13.8v2.569H7.561v-2.569z" fill="#282828"/><path d="M8.768 26.22H13.8v3.783H8.768V26.22zm7.431 1.214h6.239v2.569h-6.239v-2.569z" fill="#282828"/><path d="M8.77 2.592h12.458v13.672H8.77V2.592z" fill="#4c4c4c"/><path d="M22.445 6.315h1.295v7.444h-1.295V6.315zm-16.184 0h1.295v7.444H6.261V6.315z" fill="#b1b1b1"/><path d="M8.77 17.479h12.458v8.741H8.77v-8.741z" fill="#4d4d4d"/><path d="M13.787 17.479h2.401v2.497h-2.401v-2.497z" fill="#1c1c1c"/><path fill="#282828" d="M8.77 17.479h1.296v1.296H8.77z"/><path d="M10.066 17.479h1.296v1.296h-1.296v-1.296zM8.77 18.776h1.296v1.296H8.77v-1.296z" fill="#e5e5e5"/><path d="M7.556 22.503h2.509v1.209H7.556v-1.209z" fill="#b1b1b1"/><path d="M7.556 21.281h2.509v1.222H7.556v-1.222zm0-1.209H8.77v1.209H7.556v-1.209z" fill="#e5e5e5"/><path d="M7.561 23.712h2.504v1.254H7.561v-1.254z" fill="#282828"/><path d="M8.77 24.966h1.296v1.254H8.77v-1.254z" fill="#fff"/><path d="M10.065 24.975h1.296v1.254h-1.296v-1.254zm9.87-7.5h1.296v1.296h-1.296v-1.296z" fill="#282828"/><path d="M18.639 17.475h1.296v1.296h-1.296v-1.296zm1.296 1.297h1.296v1.296h-1.296v-1.296z" fill="#e5e5e5"/><path d="M19.935 22.498h2.509v1.209h-2.509v-1.209z" fill="#b1b1b1"/><path d="M19.935 21.277h2.509v1.222h-2.509v-1.222zm1.296-1.209h1.209v1.209h-1.209v-1.209z" fill="#e5e5e5"/><path d="M19.935 23.707h2.509v1.254h-2.509v-1.254z" fill="#282828"/><path d="M19.935 24.962h1.296v1.254h-1.296v-1.254z" fill="#fff"/><path d="M18.64 24.97h1.296v1.254H18.64V24.97z" fill="#282828"/><path d="M10.065 26.22h9.871v2.515h-9.871V26.22z" fill="#1c1c1c"/><path fill="#1c1c1c" d="M8.77 27.434h5.029v1.301H8.77zM16.199 27.434h5.029v1.301h-5.029v-1.301z"/><path d="M6.261 20.072h1.295v3.619H6.261v-3.619zm1.295-1.296H8.77v1.296H7.556v-1.296zm13.672-.004h1.214v1.296h-1.214v-1.296zm1.214 1.306h1.295v3.619h-1.295v-3.619zM11.29.003h7.417v1.295H11.29V.003zM8.77 1.298h2.52v1.295H8.77V1.298zm9.937 0h2.52v1.295h-2.52V1.298zm2.524 1.294h1.214v1.187h-1.214V2.592zm-13.675 0H8.77v1.187H7.556V2.592zM6.261 3.779h1.295v2.535H6.261V3.779zm16.184 0h1.295v2.535h-1.295V3.779zm1.295 2.549h1.295v7.431H23.74V6.328zm-18.773.007h1.295v7.431H4.967V6.335z" fill="#282828"/><path d="M6.261 13.759h1.295v1.295H6.261v-1.295zm1.295 1.295H8.77v1.214H7.556v-1.214zm14.888-1.323h1.295v1.295h-1.295v-1.295zm-1.213 1.295h1.214v1.214h-1.214v-1.214z" fill="#282828"/><path d="M10.038 7.596h7.417v8.672h-7.417V7.596z" fill="#b1b1b1"/><path d="M12.512 6.368h2.487v9.9h-2.487v-9.9z" fill="#b1b1b1"/><path d="M8.77 8.815h12.458v6.239H8.77V8.815z" fill="#b1b1b1"/><path d="M10.038 8.823h3.722v4.909h-3.722V8.823zm6.149-.008h3.722v4.917h-3.722V8.815z" fill="#e5e5e5"/><path d="M8.77 8.823h2.495v1.227H8.77V8.823zm9.912 0h2.549v1.227h-2.549V8.823z" fill="#b1b1b1"/><path d="M12.492 10.05h1.268v2.495h-1.268V10.05zm3.695 0h1.268v2.495h-1.268V10.05z" fill="#282828"/><path d="M10.038 13.731h9.872v2.55h-9.872v-2.55z" fill="#b1b1b1"/><path d="M13.76 13.732h2.428v1.322H13.76v-1.322z" fill="#333"/><path fill="#282828" d="M13.799 23.724H16.2v5.012h-2.401z"/></svg>