<svg id="Layer_1" data-name="Layer 1" xmlns="http://www.w3.org/2000/svg" viewBox="0 0 105 105"><title>icon_empty</title><path d="M99.97269,52.51605a6.78845,6.78845,0,0,0,.00457-1.03278q.00805-1.8068.01612-3.61365-.1052-.18456-.21015-.36841-.072-.64133-.144-1.28387-1.21417-4.44416-2.42774-8.88745-.0823-.26724-.16442-.53412-.1052-.34369-.21088-.68823-.1052-.28592-.21-.57172-.13532-.32666-.27124-.65338c-.03583-.05981-.07172-.11963-.107-.17944l-.05121-.05524q-.06692-.09915-.13342-.19812a31.03638,31.03638,0,0,0-1.94183-4.10724c-1.75818-2.6745-3.69373-5.23248-5.55652-7.83819-3.05542-2.90155-5.927-6.03321-9.20734-8.65308A39.41866,39.41866,0,0,0,60.51724,5.54675c-5.23242-.786-10.60718-.62769-15.91974-.86493-.24316-.01087-.49719.22149-.74652.34057q-2.08823.37409-4.177.7483a.20881.20881,0,0,0-.076.07073q-1.30893.33325-2.61737.66645-.364.074-.72723.14764l-.2851.06586q-.60625.159-1.21216.31781Q29.47465,9.5145,24.19235,11.99023q-.30029.19629-.60058.39221Q21.37683,13.947,19.16153,15.5122l-.298.27362q-.16361.18522-.32714.37055-.16929.12423-.338.24835a.22045.22045,0,0,0-.08673.12189q-.208.11086-.4154.22168-2.31307,2.39328-4.62738,4.78662-.26157.15774-.52252.31451-1.0774,1.27607-2.15619,2.55408-.15089.19152-.30121.38263c-13.23078,17.11181-13.47449,42.126-.57709,59.2716l-.02173.04712.05078-.00439.11579.20019-.01044.03882.04083-.00647q.07873.09934.15851.19922l.03711.0304c.89826,1.09826,1.77008,2.22021,2.70007,3.29162a48.35894,48.35894,0,0,0,32.42377,16.848,47.90911,47.90911,0,0,0,23.563-3.20288A52.23773,52.23773,0,0,0,88.413,87.33917,50.98961,50.98961,0,0,0,98.66507,68.33141c.0271-.12133.05414-.24273.08111-.36309q.5106-2.54738,1.02143-5.0968l.05572-.02369-.04742-.03326c.04272-.07379.08557-.14826.12848-.22266l.056.03693-.03253-.05811Q99.94985,57.54357,99.97269,52.51605Zm-79.532.335.27771-3.25507.13227-.8313q.1106-.29332.22094-.58575c1.1319-2.8443,2.10035-5.7691,3.43341-8.517A25.05347,25.05347,0,0,1,34.45218,29.3308c4.3667-2.63,9.14923-4.592,14.55029-3.94116,3.464.41742,7.06152.21118,10.402,1.06043,5.54767,1.41028,10.02752,4.8006,13.77063,9.124A27.96549,27.96549,0,0,1,80.071,54.39227,33.77139,33.77139,0,0,1,77.414,66.88079c-1.46405,3.52094-4.33893,6.4552-6.5918,9.64807l-.09484.1557c-.04072.096-.082.19288-.12323.28962q-.81684.67629-1.63318,1.35186l-.00238.00177-.061.04181c-.06525.0492-.13049.09845-.196.147l-.02716.01837-.04645.03857-.553.41095-.0567.01575q-.40924.3175-.8194.63544-1.08013.53082-2.16028,1.06158l-.20672.15845-.00946.0061-.21949.1723-8.59051,3.25708.49811.23468q-.249-.11736-.49854-.23468-5.78851.01117-11.57617.02222l.44659.531q.539.047,1.0777.09381l-1.0777-.09375-.44659-.531q-1.40717-.3013-2.81439-.60254l-2.09174-.81274-.0003.00232-.00208-.0008a17.94383,17.94383,0,0,1-1.6911-.97888c-3.49115-2.53924-6.9657-5.10138-10.44568-7.656q-.34276-.45081-.68561-.90149l-.192.30615q.09594-.15307.19207-.3067-.09567-.13862-.19152-.27619Q24.14,68.74436,21.75656,64.40215c-.19879-.23834-.40918-.46868-.58527-.72277.17609.25409.38648.48443.58527.72259l-.02759-.244q-.69407-5.41351-1.38818-10.8269c-.07184-1.132-.18231-2.26367-.23657-3.39569.05426,1.132.16479,2.26361.23669,3.39514Q20.391,53.09026,20.4407,52.85107ZM53.9462,84.97845q.99939-.06133,1.99823-.1225l-.00019.00012Q54.94523,84.91723,53.9462,84.97845ZM73.01889,74.9909c.5415-.43671,1.079-.87671,1.59778-1.33191C74.09787,74.11419,73.56045,74.55419,73.01889,74.9909ZM8.906,29.30468l.00177.00263c-.03486.0473-.08753.09423-.089.14276C8.82028,29.40075,8.87485,29.35308,8.906,29.30468Z" fill="#fff"/><path d="M18.86355,15.78582l-.36706.288q-.14868.16535-.298.33087.16837-.12405.33777-.24823Z" fill="#fff"/><path d="M51.1271,25.96887l-.1416-.03492c.00794.02118.01471.05976.02393.06037A.49476.49476,0,0,0,51.1271,25.96887Z" fill="#fff"/></svg>