<svg xmlns="http://www.w3.org/2000/svg" viewBox="0 0 1000 114"><title>logo_right</title><g id="Layer_2" data-name="Layer 2"><rect x="822.8" y="65.81" width="22.17" height="18.8" fill="#fff"/><rect x="895.8" y="45.42" width="24.04" height="43.69" fill="#fff"/><rect x="936.21" y="50.94" width="17" height="17" fill="#fff"/></g><g id="Calque_1" data-name="Calque 1"><path d="M798.65,52.22a4.07,4.07,0,0,1-3-1.37l-.14-.15-3.67-3.77c-1.79-1.83-3.65-3.72-5.45-5.64a3.45,3.45,0,0,1-.94-2.36q-.06-6.21-.05-12.41c0-2.84,0-5.69,0-8.53a3.56,3.56,0,0,1,.87-2.33L795.6,5a3.56,3.56,0,0,1,2.63-1.19l19.17,0A3.51,3.51,0,0,1,820,4.94L829.2,15.2a3.48,3.48,0,0,1,.9,2.34c0,2.16,0,4.32,0,6.48,0,1.95,0,3.9,0,5.86a3.5,3.5,0,0,1-3.5,3.49h-1.3l-11.82,0h0a3.53,3.53,0,0,1-2.47-1,3.46,3.46,0,0,1-1-2.47s0-4.78,0-5.39h-3.39c0,2.55,0,5.1,0,7.64a3.51,3.51,0,0,1,3.13,3.48v5.09c0,2.66,0,5.33,0,8a3.5,3.5,0,0,1-3.5,3.49h-1.76l-4.81,0Z" fill="#0093ae"/><path d="M817.4,7.28l9.2,10.25c0,4.12,0,8.23,0,12.34l-13.13,0c0-3,0-5.92,0-8.88H803.08c0,4.87,0,9.73,0,14.6h.13l3,0c0,4.36,0,8.72,0,13.07h-1.78l-4.82,0h-1c-.27,0-.44-.28-.63-.44-3-3.14-6.11-6.21-9.08-9.38-.07-7,0-13.95-.07-20.93l9.36-10.65,19.17,0m0-7h0l-19.17,0A7,7,0,0,0,793,2.7l-9.36,10.65A7.08,7.08,0,0,0,781.87,18c0,2.83,0,5.67,0,8.5,0,4.08,0,8.3.05,12.45a7,7,0,0,0,1.89,4.73c1.82,1.94,3.69,3.84,5.49,5.69q1.83,1.86,3.65,3.75l.21.21a7.5,7.5,0,0,0,5.47,2.38h7.59a7,7,0,0,0,7-7c0-2.66,0-5.33,0-8V36.9h.27l11.09,0h2a7,7,0,0,0,7-7c0-1.95,0-3.89,0-5.84,0-2.16,0-4.33,0-6.49a7.05,7.05,0,0,0-1.79-4.69l-9.2-10.25A7,7,0,0,0,817.4.28Z" fill="#fff"/><path d="M842.35,83.09a4.23,4.23,0,0,1-3.11-1.4L829.12,71.5a3.47,3.47,0,0,1-1-2.45q0-19.36-.07-38.71l0-23.08a3.45,3.45,0,0,1,1-2.47,3.5,3.5,0,0,1,2.47-1l14.09,0a3.5,3.5,0,0,1,3.5,3.5l0,21.13q0,17.14.06,34.31h.52a3.5,3.5,0,0,1,3.42,3.5c0,4.45,0,8.9,0,13.36a3.51,3.51,0,0,1-3.42,3.51c-1.36,0-2.71,0-4.06,0h-3.3Z" fill="#0093ae"/><path d="M845.57,7.23q.06,29.48.11,58.94H848c.55,0,1.09,0,1.64,0,0,4.46,0,8.91,0,13.37-1.34,0-2.67,0-4,0h-3.27a.78.78,0,0,1-.57-.31L831.6,69q-.08-30.9-.11-61.78l14.08,0m0-7h0l-14.08,0a7,7,0,0,0-7,7q0,11.58,0,23.17,0,19.31.07,38.61a7,7,0,0,0,2,4.92l10.08,10.14a7.65,7.65,0,0,0,5.63,2.48h3.27c1.24,0,2.7,0,4.16,0a7,7,0,0,0,6.85-7c0-4.44,0-8.89,0-13.34a7,7,0,0,0-3.94-6.3q0-15.75-.06-31.48,0-10.59,0-21.18a7,7,0,0,0-7-7Z" fill="#fff"/><path d="M853.23,83a3.5,3.5,0,0,1-3.5-3.49h0q0-6.66,0-13.33a3.5,3.5,0,0,1,3.46-3.5h.23c0-11.76-.1-55.48-.1-55.48a3.54,3.54,0,0,1,1-2.48,3.5,3.5,0,0,1,2.47-1l14.09,0a3.5,3.5,0,0,1,3.5,3.49q0,11.57,0,23.11,0,19.37.05,38.73a3.47,3.47,0,0,1-1,2.4c-2,2.13-4.08,4.23-6.09,6.26-1.4,1.42-2.81,2.84-4.19,4.28a3.52,3.52,0,0,1-2.5,1.06l-5.42,0Z" fill="#0093ae"/><path d="M870.88,7.19c0,20.61.1,41.22.09,61.83-3.36,3.55-6.86,7-10.26,10.5-2.5,0-5,0-7.48,0q0-6.67,0-13.34h3.69q0-29.49-.1-59l14.08,0m0-7h0l-12.43,0h-1.65a7,7,0,0,0-7,7l0,19.56q0,16.63,0,33.26a7,7,0,0,0-3.68,6.16q0,6.67,0,13.36a7,7,0,0,0,7,7h2.24l5.27,0a6.94,6.94,0,0,0,5-2.13c1.38-1.43,2.78-2.84,4.18-4.25,2-2,4.1-4.16,6.13-6.31A7,7,0,0,0,878,69c0-12.93,0-26.07-.05-38.78q0-11.53,0-23.06a7,7,0,0,0-7-7Z" fill="#fff"/><path d="M875.58,83a3.5,3.5,0,0,1-3.5-3.49L872,7.19a3.5,3.5,0,0,1,3.5-3.51l14.08,0A3.5,3.5,0,0,1,893,7.15l.13,72.32A3.51,3.51,0,0,1,889.67,83Z" fill="#0093ae"/><path d="M889.53,7.16q.08,36.17.13,72.32l-14.08,0q-.06-36.16-.13-72.32l14.08,0m0-7h0l-14.08,0a7,7,0,0,0-7,7l.07,36.1.06,36.22a7,7,0,0,0,7,7h14.09a7,7,0,0,0,7-7L896.6,43.3l-.07-36.16a7,7,0,0,0-7-7Z" fill="#fff"/><path d="M893.42,58.42a3.5,3.5,0,0,1-3.5-3.5h3.5l-3.5-.06,0-13.64a3.5,3.5,0,0,1,3.49-3.51H896l0-13.36h-2.6a3.5,3.5,0,0,1-3.5-3.49l0-13.7a3.54,3.54,0,0,1,1-2.48,3.5,3.5,0,0,1,2.47-1H903.4a3.48,3.48,0,0,1,2.46,1c1.59,1.58,3.18,3.14,4.77,4.7q2.77,2.72,5.51,5.44a3.48,3.48,0,0,1,1,2.47l.05,27.46a3.5,3.5,0,0,1-1,2.48q-2.76,2.76-5.54,5.5L906,57.37a3.54,3.54,0,0,1-2.46,1Z" fill="#0093ae"/><path d="M903.4,7.14c3.41,3.39,6.87,6.73,10.27,10.13l.05,27.46c-3.39,3.41-6.84,6.77-10.24,10.17l-10.06,0q0-6.86,0-13.71h6.09l0-20.36h-6.1q0-6.85,0-13.7H903.4m0-7H893.33a7,7,0,0,0-7,7V20.87a7,7,0,0,0,6.11,6.93v6.47a7,7,0,0,0-6.08,7l0,13.7a7,7,0,0,0,7,7H903.5a7.06,7.06,0,0,0,4.93-2l4.63-4.6c1.88-1.86,3.76-3.71,5.62-5.58a7,7,0,0,0,2-5l-.05-27.46a7,7,0,0,0-2-5q-2.75-2.73-5.52-5.44c-1.59-1.56-3.19-3.13-4.77-4.7a7,7,0,0,0-4.93-2Z" fill="#fff"/><path d="M918.4,82.93a3.5,3.5,0,0,1-3.5-3.5l-.13-72.32a3.5,3.5,0,0,1,3.5-3.5l31-.06a3.5,3.5,0,0,1,3.5,3.5l0,13.7a3.52,3.52,0,0,1-3.5,3.51l-13.44,0L936,62.19l13.44,0a3.5,3.5,0,0,1,3.5,3.49l0,13.71a3.5,3.5,0,0,1-3.5,3.5Z" fill="#0093ae"/><path d="M949.29,7.05l0,13.71-16.94,0q0,22.44.08,44.91l16.93,0,0,13.7-31,.06q-.06-36.17-.13-72.32l31-.06m0-7h0l-20,0-11,0a7,7,0,0,0-7,7l.07,36.09.06,36.23a7,7,0,0,0,7,7h0l11.25,0,19.77,0a7,7,0,0,0,7-7l0-7V65.66a7,7,0,0,0-7-7h0l-9.8,0h-.14V48l0-20.22h9.94a7,7,0,0,0,7-7l0-6.06V7a7,7,0,0,0-7-7Z" fill="#fff"/><path d="M954.17,82.87a3.51,3.51,0,0,1-3.5-3.5l-.12-72.32A3.5,3.5,0,0,1,954,3.55l14.09,0a3.48,3.48,0,0,1,3.5,3.5l.13,72.32a3.5,3.5,0,0,1-3.5,3.5Z" fill="#0093ae"/><path d="M968.13,7q.07,36.17.13,72.32l-14.09,0-.12-72.32,14.08,0m0-7h0L954,.05a7,7,0,0,0-7,7l.06,36.22.06,36.1a7,7,0,0,0,7,7h0l14.08,0a7,7,0,0,0,7-7L975.13,7a7,7,0,0,0-7-7Z" fill="#fff"/><path d="M978.73,82.82a3.5,3.5,0,0,1-3.5-3.49l-.05-25.43h-3.54a3.5,3.5,0,0,1-3.5-3.5l0-13.7a3.48,3.48,0,0,1,3.5-3.5h3.54l0-9h-3.54a3.5,3.5,0,0,1-3.5-3.5l0-13.7a3.48,3.48,0,0,1,3.5-3.5l11,0a3.46,3.46,0,0,1,2.48,1L995.38,15a3.46,3.46,0,0,1,1,2.45q0,4.43,0,8.85c0,2.7,0,5.4,0,8.1a3.44,3.44,0,0,1-1,2.41l-6.17,6.51,1.23,1.22c1.63,1.61,3.31,3.28,4.93,5a3.52,3.52,0,0,1,1,2.4q.06,8.39.05,16.79,0,5.3,0,10.6A3.5,3.5,0,0,1,993,82.8Z" fill="#0093ae"/><path d="M982.57,7l10.32,10.45c0,5.65,0,11.3,0,17l-8.51,9c2.82,2.87,5.74,5.65,8.52,8.55.07,9.13,0,18.26.07,27.38l-14.27,0q0-14.46-.05-28.92h-7l0-13.71h7l0-16h-7l0-13.7,11,0m0-7h0l-11,0a7,7,0,0,0-7,7v.61l0,13.09a7,7,0,0,0,7,7h0v2h0a7,7,0,0,0-7,7v.06l0,13.64a7,7,0,0,0,7,7h.05v7.45l0,14.47a7,7,0,0,0,7,7h0l14.27,0a7,7,0,0,0,7-7q0-5.26,0-10.54c0-5.52,0-11.23-.05-16.86A7,7,0,0,0,998,47.08c-1.25-1.31-2.53-2.59-3.79-3.84l3.81-4a6.94,6.94,0,0,0,1.92-4.83c0-2.71,0-5.41,0-8.11q0-4.43,0-8.84a7,7,0,0,0-2-4.9L987.54,2.08a7,7,0,0,0-5-2.08Z" fill="#fff"/><path d="M936.23,51.69a3.5,3.5,0,0,1-3.5-3.5l0-13.7A3.5,3.5,0,0,1,936.2,31l10.29,0a3.51,3.51,0,0,1,3.5,3.5l0,13.7a3.54,3.54,0,0,1-1,2.48,3.5,3.5,0,0,1-2.47,1Z" fill="#0093ae"/><path d="M946.49,34.46q0,6.85,0,13.71l-10.28,0q0-6.86,0-13.71l10.28,0m0-7H936.2a7,7,0,0,0-7,7V48.2a7,7,0,0,0,7,7h10.29a7,7,0,0,0,7-7l0-13.71a7,7,0,0,0-7-7Z" fill="#fff"/><path d="M798.12,83.13a3.49,3.49,0,0,1-2.6-1.16l-9.2-10.25a3.44,3.44,0,0,1-.89-2.34c0-2.06,0-4.11,0-6.16s0-4.13,0-6.19a3.49,3.49,0,0,1,3.49-3.49c4.37,0,8.75,0,13.12,0h0a3.5,3.5,0,0,1,3.5,3.49c0,1.48,0,5.08,0,5.39h3.38l0-10.3a3.51,3.51,0,0,1-2.35-3.31V44.67c0-3,0-6,0-9a3.54,3.54,0,0,1,1-2.48,3.5,3.5,0,0,1,2.46-1h6.85a4,4,0,0,1,2.84,1.22c.06.06.13.12.19.19,1.71,1.77,3.44,3.53,5.16,5.3l3.8,3.91A4.09,4.09,0,0,1,830.11,46s0,17.79,0,22.91a3.51,3.51,0,0,1-.87,2.32L819.92,81.9a3.54,3.54,0,0,1-2.62,1.19Z" fill="#0093ae"/><path d="M815.35,35.71h1.54c.22,0,.36.22.51.34l9,9.26a.62.62,0,0,1,.2.56q0,11.53,0,23.06l-9.36,10.65-19.17,0-9.19-10.25c0-4.11,0-8.23,0-12.34,4.37,0,8.75,0,13.12,0,0,3,0,5.93,0,8.89h10.38l0-17.08h-.33c-.67,0-1.35,0-2,0,0-4.35,0-8.71,0-13.06h5.31m0-7H810a7,7,0,0,0-7,7c0,3,0,6,0,9.05v4a7.2,7.2,0,0,0,.12,1.32A7.11,7.11,0,0,0,802,50h0c-4.37,0-8.74,0-13.11,0a7,7,0,0,0-7,7c0,2.08,0,4.15,0,6.22s0,4.09,0,6.13a7,7,0,0,0,1.79,4.69l9.19,10.25a7,7,0,0,0,5.21,2.32h0l19.17,0a7,7,0,0,0,5.24-2.38l9.35-10.65a7,7,0,0,0,1.75-4.64l0-15.42V46.09a7.67,7.67,0,0,0-2.24-5.71l-3.77-3.87c-1.72-1.77-3.45-3.54-5.17-5.32l-.31-.3a7.43,7.43,0,0,0-5.23-2.17h-1.54Z" fill="#fff"/><path d="M821.5,110.5a8.92,8.92,0,0,1-6.25-2.4,6.87,6.87,0,0,1-2.13-5.12V98.32q0-4,0-8.08a7.27,7.27,0,0,1,4.7-6.57,10.13,10.13,0,0,1,4.11-.73h.45l20.68,0a3.5,3.5,0,0,1,3.5,3.49v3.81a3.51,3.51,0,0,1-.84,2.28,3.5,3.5,0,0,1,.85,2.29l0,12.18a3.5,3.5,0,0,1-3.5,3.5Zm3.37-10.81h1.92a3.47,3.47,0,0,1-.17-1.07v-3.8a3.47,3.47,0,0,1,.16-1.07h-1.92Z" fill="#0093ae"/><path d="M843,86.41c0,1.26,0,2.54,0,3.8l-21.7,0,0,12.94,16.94,0c0-1.52,0-3,0-4.57l-8.19,0v-3.8l12.94,0,0,12.18-21.51,0h-.07a5.51,5.51,0,0,1-3.83-1.43,3.35,3.35,0,0,1-1-2.55q0-6.39,0-12.77a3.8,3.8,0,0,1,2.55-3.35,6.69,6.69,0,0,1,2.76-.46h.39l20.74,0m0-7h-9.42l-11.27,0h-.44a13.66,13.66,0,0,0-5.46,1,10.8,10.8,0,0,0-6.85,9.81c0,2.7,0,5.41,0,8.11,0,1.52,0,3,0,4.58a10.38,10.38,0,0,0,3.21,7.69A12.4,12.4,0,0,0,821.5,114h7.88l13.71,0a7,7,0,0,0,7-7l0-12.18a7,7,0,0,0-.39-2.29,7,7,0,0,0,.38-2.28V86.4a7,7,0,0,0-7-7Z" fill="#fff"/><path d="M847.65,110.46a3.52,3.52,0,0,1-3.5-3.5l0-20.55a3.5,3.5,0,0,1,3.5-3.51l20.75,0a8.53,8.53,0,0,1,7.59,4,7.51,7.51,0,0,1,.86,4.08v.55c0,.43,0,.86,0,1.29,0,.79,0,1.6,0,2.47,0,0,0,.09,0,.14a7.14,7.14,0,0,1-3.74,5.43l3.3,3.69a3.5,3.5,0,0,1-2.6,5.83l-5.9,0a3.51,3.51,0,0,1-2.61-1.16L864.1,108q-2.67-3-5.32-5.94H855.9v4.88a3.5,3.5,0,0,1-3.49,3.51Z" fill="#0093ae"/><path d="M868.44,86.36a5,5,0,0,1,4.47,2.3,5.47,5.47,0,0,1,.4,2.84c0,1.19.05,2.39,0,3.59a3.93,3.93,0,0,1-2.65,3,6.88,6.88,0,0,1-2.7.41h-1.69l7.47,8.35-5.89,0q-3.75-4.17-7.48-8.36h-8V107h-4.75l0-20.55,20.76,0h.07m-16.06,8.41,16.18,0c0-1.52,0-3,0-4.57l-16.17,0v4.57m16.06-15.41h-.09l-20.75,0a7,7,0,0,0-7,7l0,20.56a7,7,0,0,0,7,7h4.77a7,7,0,0,0,6.91-6l2.25,2.5,1,1.16a7,7,0,0,0,5.21,2.33h0l5.89,0a7,7,0,0,0,5.2-11.66l-.94-1a10.14,10.14,0,0,0,2.25-5.39,2.64,2.64,0,0,0,0-.28c.06-1,.05-1.91,0-2.72,0-.4,0-.79,0-1.19V91A10.91,10.91,0,0,0,879,85.18a12,12,0,0,0-10.55-5.82Z" fill="#fff"/><path d="M875.82,110.4a3.5,3.5,0,0,1-3.15-5c1.25-2.53,2.5-5.07,3.74-7.6q3.2-6.48,6.35-13a3.5,3.5,0,0,1,3.14-2l9.43,0a3.51,3.51,0,0,1,3.14,2q3.06,6.21,6.13,12.39,2,4.06,4,8.13a3.49,3.49,0,0,1-3.12,5l-5.53,0a3.5,3.5,0,0,1-3.13-2l-2.66-5.35-3.55-7.17c-1.16,2.37-2.33,4.75-3.5,7.12l-2.67,5.42a3.5,3.5,0,0,1-3.13,2Z" fill="#0093ae"/><path d="M895.33,86.33c3.37,6.85,6.78,13.68,10.17,20.52H900q-4.14-8.35-8.27-16.71h-2.16c-2.72,5.59-5.48,11.16-8.22,16.75h-5.51q5-10.28,10.09-20.55l9.42,0m0-7h0l-9.42,0a7,7,0,0,0-6.28,3.93q-3.15,6.45-6.33,12.89l-3.76,7.65a7,7,0,0,0,6.29,10.08h5.52a7,7,0,0,0,6.27-3.92q1.35-2.74,2.71-5.49l.33-.68.36.72,2.7,5.44a7,7,0,0,0,6.27,3.89h5.53a7,7,0,0,0,6.26-10.1l-4-8q-3.1-6.26-6.2-12.52a7,7,0,0,0-6.28-3.91Z" fill="#fff"/><path d="M907.79,110.35a3.54,3.54,0,0,1-2.48-1,3.5,3.5,0,0,1-1-2.47l0-20.56a3.5,3.5,0,0,1,3.49-3.5l24.18,0a3.5,3.5,0,0,1,3.5,3.49v3.8a3.51,3.51,0,0,1-2.67,3.41,3.55,3.55,0,0,1,.2,1.17v3.8a3.51,3.51,0,0,1-3.5,3.51L916,102v4.79a3.57,3.57,0,0,1-3.49,3.59Z" fill="#0093ae"/><path d="M931.92,86.26c0,1.27,0,2.53,0,3.8l-19.42,0c0,1.52,0,3,0,4.57l16.94,0v3.81l-16.94,0c0,2.79,0,5.58,0,8.37h-4.75q0-10.27,0-20.55l24.17,0m0-7h0l-12.28,0-11.89,0a7,7,0,0,0-7,7l0,10.28,0,10.27a7,7,0,0,0,7,7h4.76a7,7,0,0,0,7-7v-1.38h9.94a7,7,0,0,0,7-7v-3a7,7,0,0,0,2.47-5.34V86.24a7,7,0,0,0-7-7Z" fill="#fff"/><path d="M933.71,110.29a3.49,3.49,0,0,1-2.5-5.94l8.25-8.44-2-2c-1.77-1.73-3.54-3.46-5.3-5.21a3.5,3.5,0,0,1,2.46-6h7a3.52,3.52,0,0,1,2.45,1l4,3.93.34-.33c1.21-1.21,2.47-2.46,3.77-3.67a3.48,3.48,0,0,1,2.37-.93l7,0a3.49,3.49,0,0,1,2.48,6c-1.56,1.58-3.15,3.14-4.74,4.7L956.69,96l8.34,8.3a3.5,3.5,0,0,1-2.47,6h-7a3.48,3.48,0,0,1-2.39-.94c-1.52-1.41-3-2.88-4.45-4.3l-.61-.61-.61.61c-1.44,1.43-2.92,2.9-4.44,4.32a3.46,3.46,0,0,1-2.38,1Z" fill="#0093ae"/><path d="M961.57,86.22h0m0,0c-3.25,3.27-6.59,6.46-9.84,9.75l10.83,10.77h-7c-2.54-2.36-5-4.84-7.46-7.24-2.49,2.4-4.91,4.9-7.43,7.27l-7,0L944.4,95.87c-3.24-3.22-6.54-6.38-9.78-9.61l7,0,6.48,6.33c2.18-2.09,4.27-4.28,6.48-6.33l7,0m0-7h0l-7,0a7,7,0,0,0-4.74,1.87c-.59.55-1.17,1.1-1.74,1.66l-1.57-1.53a7,7,0,0,0-4.89-2h0l-7,0a7,7,0,0,0-4.92,12c1.61,1.6,3.24,3.2,4.83,4.75l-5.81,5.93a7,7,0,0,0,5,11.89h0l7,0a7.05,7.05,0,0,0,4.77-1.89c.9-.85,1.79-1.71,2.66-2.57.87.85,1.76,1.71,2.67,2.56a7,7,0,0,0,4.77,1.87h7a7,7,0,0,0,4.94-12L961.66,96l.1-.09c1.54-1.51,3.13-3.08,4.7-4.65a7,7,0,0,0-4.88-12Zm0,14h0Z" fill="#fff"/><path d="M766.42,41.1a3.92,3.92,0,0,1-3.87-3.36c-2.32-14.59-6.77-19.46-8.55-19.53h0c-1,0-3.15,1.34-5.58,6.38a3.91,3.91,0,0,1-7.44-1.7,3.78,3.78,0,0,1,.4-1.73c4.32-8.91,9.21-10.78,12.57-10.78h.34c2.91.11,7.13,1.68,10.74,8.56,2.3,4.39,4.12,10.49,5.25,17.63a3.88,3.88,0,0,1-.69,2.9A4,4,0,0,1,767,41.06C766.84,41.08,766.6,41.1,766.42,41.1Z" fill="#0093ae"/><path d="M754,13.88h.21c2.84.1,5.53,2.42,7.77,6.69,2.13,4.06,3.82,9.78,4.9,16.55a.42.42,0,0,1-.35.47h-.06a.41.41,0,0,1-.41-.35c-2.18-13.71-6.73-22.34-11.88-22.54H754c-3,0-6.09,3-8.69,8.36a.43.43,0,0,1-.38.24.43.43,0,0,1-.41-.42.39.39,0,0,1,0-.18c2.79-5.78,6.05-8.83,9.43-8.83m0-7c-4.36,0-10.61,2.21-15.71,12.74a7.42,7.42,0,0,0,3.41,9.94l.08,0a7.52,7.52,0,0,0,3.16.71,7.37,7.37,0,0,0,6.64-4.12l0-.08a17.23,17.23,0,0,1,2.32-3.74c1.37,1.81,3.7,6.52,5.21,16a7.43,7.43,0,0,0,7.32,6.27,7.65,7.65,0,0,0,1.16-.09A7.41,7.41,0,0,0,773.74,36c-1.19-7.51-3.13-14-5.61-18.69C763.74,9,758.25,7,754.42,6.89Z" fill="#fff"/><path d="M766.18,78.2c-.18,0-.42,0-.6,0a3.92,3.92,0,0,1-3.31-3.87,4.34,4.34,0,0,1,.05-.63,117.63,117.63,0,0,0,1.36-13.28,3.87,3.87,0,0,1,3.91-3.73h.12a4,4,0,0,1,3.79,4.07,127.07,127.07,0,0,1-1.45,14.19,3.9,3.9,0,0,1-3.87,3.29Z" fill="#0093ae"/><path d="M767.59,60.15h0a.42.42,0,0,1,.4.43,119.65,119.65,0,0,1-1.41,13.77.41.41,0,0,1-.41.35h-.06a.43.43,0,0,1-.35-.41v-.07a120.39,120.39,0,0,0,1.4-13.67.42.42,0,0,1,.42-.4" fill="#fff"/><path d="M751.41,105.45c-5.55-.16-10-5.07-13.16-14.6-2.54-7.62-3.89-17.83-3.91-29.53V61a3.5,3.5,0,0,1,3.48-3.52h0A3.52,3.52,0,0,1,740.7,59a3.64,3.64,0,0,1,.88,2.35c0,23.66,6.49,36.23,9.94,36.33h0c.93,0,2.65-1.13,4.52-4.3,2.2-3.73,4.08-9.09,5.44-15.53a3.92,3.92,0,0,1,3.84-3.11,4.26,4.26,0,0,1,.8.09,3.91,3.91,0,0,1,3,4.61c-1.54,7.33-3.72,13.52-6.31,17.91-4,6.74-8.27,8.16-11.17,8.16Z" fill="#0093ae"/><path d="M737.84,61c0,.12.24.23.24.34,0,22.14,5.94,39.6,13.34,39.82h.13c2.55,0,5.18-2.08,7.51-6s4.4-9.73,5.85-16.58a.43.43,0,0,1,.41-.33h.09a.42.42,0,0,1,.32.49c-1.45,6.93-3.49,12.75-5.9,16.83s-5.3,6.44-8.15,6.44h-.17c-3.93-.11-7.35-4.45-9.94-12.21-2.5-7.51-3.71-17.59-3.73-28.42V61m0-7h0a7,7,0,0,0-7,7v.35c0,12.06,1.44,22.65,4.09,30.62,3.69,11.07,9.2,16.79,16.38,17h.37c3.81,0,9.36-1.72,14.18-9.88,2.79-4.72,5.11-11.27,6.73-19a7.53,7.53,0,0,0-1.1-5.65,7.44,7.44,0,0,0-4.68-3.14,7.84,7.84,0,0,0-1.49-.15,7.43,7.43,0,0,0-7.26,5.89c-1.27,6-3,11.12-5,14.46a13.53,13.53,0,0,1-1.39,2c-.94-1.22-2.41-3.87-3.76-8.76a91.65,91.65,0,0,1-2.8-23.46,7.14,7.14,0,0,0-1.61-4.49A7,7,0,0,0,737.84,54Z" fill="#fff"/><path d="M737.84,64.47a3.5,3.5,0,0,1-3.5-3.5v-.41a3.49,3.49,0,0,1,3.49-3.5h0a3.5,3.5,0,0,1,3.5,3.49V61A3.5,3.5,0,0,1,737.84,64.47Z" fill="#0093ae"/><path d="M737.84,60.56V61h0v-.41m0-7h0a7,7,0,0,0-7,7V61a7,7,0,0,0,7,7h0a7,7,0,0,0,7-7v-.43a7,7,0,0,0-7-7Z" fill="#fff"/><path d="M767.39,83.17a3.49,3.49,0,0,1-2.78-1.37l-7-9.13-3,.67a3.35,3.35,0,0,1-.76.09,3.5,3.5,0,0,1-2.43-6l2.05-2L749.2,54.81a3.5,3.5,0,0,1,6-3.43l7,9.12,3-.67a3.92,3.92,0,0,1,.76-.08,3.5,3.5,0,0,1,2.43,6l-2,2,4.27,10.63a3.5,3.5,0,0,1-3.25,4.8Z" fill="#0093ae"/><path d="M752.45,53.5l8.35,10.9L766,63.25l-3.74,3.61,5.14,12.81L759,68.77l-5.19,1.16,3.74-3.61L752.45,53.5M766,63.25h0M752.45,46.5a7,7,0,0,0-6.5,9.61l3.39,8.44-.35.34a7,7,0,0,0,4.86,12,7.23,7.23,0,0,0,1.52-.17l.83-.19,5.63,7.36a7,7,0,0,0,12-6.86l-3.38-8.44.27-.27a7,7,0,0,0-4.31-12.1H766l-.56,0a6.76,6.76,0,0,0-1.11.18l-.68.15L758,49.25a7,7,0,0,0-5.56-2.75Z" fill="#fff"/><path d="M756.07,92a4.22,4.22,0,0,1-.79-.07,4.6,4.6,0,0,1-3.67-3.72l-.77-4.77a3.49,3.49,0,0,1,3.46-4,3.68,3.68,0,0,1,.66.06l.3.06a5.27,5.27,0,0,1,4.16,4.18l.6,3.7A4,4,0,0,1,756.07,92Z" fill="#0093ae"/><path d="M754.3,82.89l.29,0A1.87,1.87,0,0,1,756,84.26l.08.5.31,1.95.2,1.23a.46.46,0,0,1-.49.56h-.15a1.1,1.1,0,0,1-.85-.82l-.77-4.78m0-7A7,7,0,0,0,747.39,84l.77,4.78a8,8,0,0,0,6.49,6.59,7.6,7.6,0,0,0,7.14-2.49,7.48,7.48,0,0,0,1.68-6l-.19-1.22-.32-2-.07-.47a8.82,8.82,0,0,0-7-7.11l-.27,0a7.37,7.37,0,0,0-1.32-.12Z" fill="#fff"/><path d="M757.69,97a7.73,7.73,0,0,1-1.34-.11l-1-.19a7.06,7.06,0,0,1-1.63-.52,3.08,3.08,0,0,1-.61.06,3.36,3.36,0,0,1-.63-.06l-5.59-1a3.5,3.5,0,0,1-2.82-2.89L742.3,81.13a7.26,7.26,0,0,1-.08-1,3.58,3.58,0,0,1-.2-.71L741,73a3.39,3.39,0,0,1,0-.71,3.67,3.67,0,0,1-.18-.67l-1.08-6.74c-5.48-1.94-8.73-6.5-9.45-13.36l-.46-2.89a3.49,3.49,0,0,1,4.09-4l2.65.49-.24-1.54a4.12,4.12,0,0,1,0-.7,4,4,0,0,1-.18-.68l-2.86-17.86a4.46,4.46,0,0,1,4.46-5.24,5.47,5.47,0,0,1,.9.08l18.84,3.47A5.78,5.78,0,0,1,762,27.23l1.11,6.92,9.24,1.69a3.52,3.52,0,0,1,2.82,2.89l1.63,10.17a6.87,6.87,0,0,1-1.5,5.55,7.09,7.09,0,0,1-5.41,2.42,8.11,8.11,0,0,1-1.46-.14L764.63,56A11.56,11.56,0,0,1,758,51.72a9.23,9.23,0,0,1,.64,2.12l.29,1.69a3.52,3.52,0,0,1-1.14,3.22l2.32,6.4a3.42,3.42,0,0,1,.06,2.21,3.55,3.55,0,0,1,1,2l1.14,7.11a6.74,6.74,0,0,1-.27,3,8.36,8.36,0,0,1,1.25,3.15l1,6.4a7.39,7.39,0,0,1-1.64,5.73A6.44,6.44,0,0,1,757.69,97Zm-7.06-38.82a3.54,3.54,0,0,1,.76-1.57l-.53-.69a3.33,3.33,0,0,1-.89-1l-3-.55s.52,3.21.52,3.24Z" fill="#0093ae"/><path d="M737.65,22.57l.28,0,18.83,3.46a2.3,2.3,0,0,1,1.75,1.72l1.5,9.36,11.66,2.15,1.63,10.17a3.31,3.31,0,0,1-3.45,3.91,4.85,4.85,0,0,1-.83-.08l-3.76-.69c-2.62-.49-5.41-3.22-5.81-5.7l-.74-4.65-5.59-1,1,6.38a3.73,3.73,0,0,1-1.24,3.07,6.44,6.44,0,0,1,2.23,3.72l.3,1.73-2.29-3-.15,0a3.25,3.25,0,0,0-2.3-1.66l-5.71-1a2.4,2.4,0,0,0-.52,0c-1,0-1.56.66-1.39,1.76l.95,5.92-1.31-.25a6.11,6.11,0,0,1-4.42-4.62l-.37-2.28-2.42-.44.48,3a9,9,0,0,0,6.5,6.78l12.15,2.23v-.05l-.57-3.56,2.72,7.49-2.45,2.09-8.9-1.64.41,2.52,7.77,1.43.71,4.41c.1.65-.06.94-.57.94a2.17,2.17,0,0,1-.4,0l-6.63-1.22.37,2.3s8.76,1.63,8.95,1.7c.73-.17,1.1-.79,1-1.72l-1-6.4,1.76-.8,1.14,7.1a3.75,3.75,0,0,1-1,2.89,5.89,5.89,0,0,1,2,3.28l1,6.38c.21,1.28-.51,3.94-3.18,3.94a5.17,5.17,0,0,1-.76-.06l-.88-.18A5.6,5.6,0,0,1,753.64,92l-.51.73-5.59-1-1.78-11.13a2.93,2.93,0,0,1,.19-1.65l-.47-.09-1-6.43,7.11,1.31c.31.06.49.11.58.11s.06-.14,0-.64l-.12-.73L744.23,71l-1.44-9c-4.53-.89-8.34-3.68-9.08-11l-.48-3,6.56,1.21.37,2.27c.32,2,.57,3.31,1.56,3.49l-.79-5a2.09,2.09,0,0,1,.05-.57l-.22,0-1-6.44,7.11,1.31c.32.06.49.11.58.11s.06-.14,0-.63l-.11-.73-7.78-1.44-2.86-17.86a1,1,0,0,1,1-1.18m5.41,13.24-1.29-8,5.1.94.81,5.06,2.43.45-.81-5.06,5.1.94,1,6.2,2.43.45L756.43,28l-17.74-3.26,1.7,10.56,2.67.5m10.68,2-1-6-1.22-.22.78,4.82L746,35.24l-.78-4.83L744,30.19l1,6,8.74,1.61M749,46.68a2.17,2.17,0,0,1-.41,0L742,45.42l.4,2.53,8,1.46a2.32,2.32,0,0,0,.51.05c1,0,1.57-.66,1.39-1.76l-1.34-8.38v-.06l-10.2-1.88.4,2.53,7.78,1.43.7,4.4c.11.65-.05.94-.56.94m19,1.06c.33,0,.5-.21.44-.57L767.94,44l-4.62-.85.52,3.22a1,1,0,0,0,.84.82l3.16.58.18,0M755.34,66.83l-.4-2.47V64.3l-10.2-1.88.41,2.53,10.2,1.88m-3.75,23.29-1.1-6.86a.76.76,0,0,1,.81-.89.75.75,0,0,1,.21,0l.55.08,1,6.14a3.24,3.24,0,0,0,2.4,2.3l1.52.29a1.72,1.72,0,0,0,.39,0c.94,0,1.79-.65,1.65-1.52l-.94-5.91a4.46,4.46,0,0,0-3.18-3.25l-4.72-.86a2.28,2.28,0,0,0-.44,0,1.88,1.88,0,0,0-1.87,2.28l1.24,7.73,2.49.46M737.65,15.57h0a8,8,0,0,0-7.91,9.3l2.6,16.23a7,7,0,0,0-6,8l.45,2.8c.79,7.34,4.2,12.64,9.77,15.37l.77,4.81c0,.23.09.46.15.68a5.35,5.35,0,0,0,.08.7l1,6.43a6.6,6.6,0,0,0,.17.77c0,.32,0,.64.1,1l1.79,11.15a7,7,0,0,0,5.65,5.77l5.58,1a6.91,6.91,0,0,0,1.27.12h.1a11.62,11.62,0,0,0,1.49.4l.85.16.21,0a11.28,11.28,0,0,0,1.91.16A9.91,9.91,0,0,0,765.36,97a10.87,10.87,0,0,0,2.42-8.56l-1-6.38a11.3,11.3,0,0,0-1-3.13,9.87,9.87,0,0,0,0-3l-1.15-7.12a6.88,6.88,0,0,0-.85-2.4,6.93,6.93,0,0,0-.42-2.44l-1.69-4.65c.07-.13.14-.27.2-.41a12.14,12.14,0,0,0,2.12.59l3.77.69a11.38,11.38,0,0,0,2.09.2,10.56,10.56,0,0,0,8.07-3.65,10.34,10.34,0,0,0,2.29-8.38l-1.63-10.16a7,7,0,0,0-5.64-5.78l-6.8-1.25-.72-4.48a9.26,9.26,0,0,0-7.37-7.49L739.2,15.71a9.21,9.21,0,0,0-1.55-.14Z" fill="#fff"/><path d="M751.81,63a3.47,3.47,0,0,1-.64-.06l-5.34-1A3.5,3.5,0,0,1,743,59.06l-.75-4.63a4.29,4.29,0,0,1,.89-3.6,4,4,0,0,1,3.14-1.4,5.43,5.43,0,0,1,1,.1l3,.56a4.89,4.89,0,0,1,4.15,4.22l.74,4.62A3.51,3.51,0,0,1,751.81,63Z" fill="#0093ae"/><path d="M746.29,52.93a2,2,0,0,1,.4,0l3,.56a1.4,1.4,0,0,1,1.32,1.32l.75,4.64-5.35-1-.74-4.63c-.11-.66,0-.94.57-.94m3.24,4.13-.12-.73c-.12-.78,0-1.07-.78-1.22a1.28,1.28,0,0,0-.26,0c-.45,0-.28.34-.17,1l.11.73,1.22.22m-3.24-11.13a7.58,7.58,0,0,0-5.8,2.62A7.76,7.76,0,0,0,738.8,55l.75,4.63a7,7,0,0,0,5.64,5.78l5.35,1a6.75,6.75,0,0,0,1.27.12,7,7,0,0,0,6.91-8.12L758,53.74a8.32,8.32,0,0,0-7-7.09L748,46.08a9.86,9.86,0,0,0-1.67-.15Z" fill="#fff"/><path d="M772.28,72.75a8.77,8.77,0,0,1-1.52-.14l-1.08-.2a3.5,3.5,0,0,1-2.84-2.89l-.62-3.91a3.48,3.48,0,0,1-1.46.77l-2.7.68a3.62,3.62,0,0,1-.86.11,3.48,3.48,0,0,1-2.77-1.37l-4-5.21a3.51,3.51,0,0,1-.68-1.57l-.28-1.71A6.92,6.92,0,0,1,755,51.62a7.18,7.18,0,0,1,5.48-2.43,8.77,8.77,0,0,1,1.52.14l7.65,1.41c4.22.77,8.19,4.71,8.84,8.78l.82,5.11a6.9,6.9,0,0,1-1.52,5.68,7.15,7.15,0,0,1-5.48,2.44Z" fill="#0093ae"/><path d="M760.45,52.69a4.67,4.67,0,0,1,.89.08L769,54.18c2.76.51,5.6,3.29,6,5.9l.82,5.11a3.4,3.4,0,0,1-3.55,4.06,5.65,5.65,0,0,1-.89-.08L770.3,69l-.86-5.35.92.17.17,0a.48.48,0,0,0,.5-.62l-.43-2.64a1.12,1.12,0,0,0-.91-.89l-7.16-1.32-.18,0a.48.48,0,0,0-.49.62l.42,2.64a1.14,1.14,0,0,0,.91.9l.67.12,0,.38-2.7.69-4-5.22-.27-1.7a3.39,3.39,0,0,1,3.54-4.06m0-7a10.63,10.63,0,0,0-8.14,3.66,10.5,10.5,0,0,0-2.32,8.5l.29,1.73a6.9,6.9,0,0,0,1.36,3.15l4,5.21a7,7,0,0,0,5.55,2.73,6.76,6.76,0,0,0,1.72-.22l.51-.13a7,7,0,0,0,5.62,5.54l1.1.19a11.64,11.64,0,0,0,2.13.2,10.67,10.67,0,0,0,8.14-3.66,10.51,10.51,0,0,0,2.32-8.5L781.92,59c-.89-5.51-6-10.64-11.67-11.68l-7.64-1.4a11.35,11.35,0,0,0-2.16-.2Z" fill="#fff"/><path d="M764.71,71.44a3.55,3.55,0,0,1-.64-.06l-1-.18a6.39,6.39,0,0,1-1.29-.39l-.17-.07a3.51,3.51,0,0,1-1.36-5.68l1.54-1.64a3.49,3.49,0,0,1,2.56-1.11,3.6,3.6,0,0,1,1,.15,3.5,3.5,0,0,1,2.43,2.8l.34,2.13a3.49,3.49,0,0,1-3.46,4Z" fill="#0093ae"/><path d="M764.37,65.81l.34,2.13-1-.18a4.36,4.36,0,0,1-.9-.31l1.53-1.64m0-7A7,7,0,0,0,759.26,61l-1.53,1.64A7,7,0,0,0,760.43,74l.05,0a9.79,9.79,0,0,0,2,.59l1,.18a6.83,6.83,0,0,0,1.27.12,7,7,0,0,0,6.92-8.11l-.34-2.12a7,7,0,0,0-4.87-5.59,6.83,6.83,0,0,0-2-.31Z" fill="#fff"/><path d="M817.4,7.28l9.2,10.25c0,4.12,0,8.23,0,12.34l-13.13,0c0-3,0-5.92,0-8.88H803.08c0,4.87,0,9.73,0,14.6l3.12,0c0,4.36,0,8.72,0,13.07-2.52,0-5,0-7.57,0-.28,0-.45-.27-.65-.44-3-3.14-6.11-6.21-9.08-9.38-.07-7,0-13.95-.07-20.93l9.36-10.65Z" fill="#0093ae"/><path d="M831.6,69q-.08-30.9-.11-61.78l14.08,0q.06,29.48.11,58.94c1.31,0,2.62,0,3.93,0,0,4.46,0,8.91,0,13.37-2.39,0-4.79,0-7.18,0a.71.71,0,0,1-.67-.3Z" fill="#0093ae"/><path d="M856.8,7.21l14.08,0c0,20.61.1,41.22.09,61.83-3.36,3.55-6.86,7-10.26,10.5-2.5,0-5,0-7.48,0q0-6.67,0-13.34h3.69Q856.86,36.7,856.8,7.21Z" fill="#0093ae"/><path d="M875.45,7.18l14.08,0,.13,72.32-14.08,0Z" fill="#0093ae"/><path d="M903.4,7.14c3.41,3.39,6.87,6.73,10.27,10.13l.05,27.46c-3.39,3.41-6.84,6.77-10.24,10.17l-10.06,0,0-13.71h6.09l0-20.36h-6.1l0-13.7Z" fill="#0093ae"/><path d="M918.27,7.11l31-.06,0,13.71-16.94,0,.08,44.91,16.93,0,0,13.7-31,.06Z" fill="#0093ae"/><path d="M954.05,7.05l14.08,0,.13,72.32-14.09,0Z" fill="#0093ae"/><path d="M984.41,43.37c2.82,2.87,5.74,5.65,8.52,8.55.07,9.13,0,18.26.07,27.38l-14.27,0-.05-28.92h-7l0-13.71h7l0-16h-7l0-13.7,11,0,10.32,10.45c0,5.65,0,11.3,0,17Z" fill="#0093ae"/><path d="M936.21,34.48l10.28,0,0,13.71-10.28,0Z" fill="#0093ae"/><path d="M817.29,79.59l-19.17,0-9.19-10.25c0-4.11,0-8.23,0-12.34,4.37,0,8.75,0,13.12,0,0,3,0,5.93,0,8.89,3.46,0,6.92,0,10.38,0l0-17.08c-.79,0-1.57,0-2.35,0,0-4.35,0-8.71,0-13.06,2.27,0,4.54,0,6.81,0,.24,0,.39.21.55.34l9,9.26a.62.62,0,0,1,.2.56q0,11.53,0,23.06Z" fill="#0093ae"/><path d="M843.08,107l-21.51,0a5.53,5.53,0,0,1-3.9-1.43,3.38,3.38,0,0,1-1-2.55q0-6.39,0-12.77a3.8,3.8,0,0,1,2.55-3.35,7.35,7.35,0,0,1,3.15-.46l20.74,0v3.8l-21.7,0,0,12.94,16.94,0V98.59l-8.19,0v-3.8l12.94,0Z" fill="#0093ae"/><path d="M847.61,86.4l20.76,0a5,5,0,0,1,4.54,2.29,5.47,5.47,0,0,1,.4,2.84c0,1.19.05,2.39,0,3.59a3.93,3.93,0,0,1-2.65,3c-1.39.57-2.92.36-4.39.41l7.47,8.35-5.89,0q-3.75-4.17-7.48-8.36h-8V107h-4.75Zm4.77,3.8v4.57l16.18,0V90.17Z" fill="#0093ae"/><path d="M900,106.86q-4.14-8.35-8.27-16.71h-2.16c-2.72,5.59-5.48,11.16-8.22,16.75h-5.51q5-10.28,10.09-20.55l9.42,0c3.37,6.85,6.78,13.68,10.17,20.52Z" fill="#0093ae"/><path d="M907.75,86.3l24.17,0v3.8l-19.42,0v4.57l16.94,0v3.81l-16.94,0v8.37h-4.75Z" fill="#0093ae"/><path d="M962.56,106.74h-7c-2.54-2.36-5-4.84-7.46-7.24-2.49,2.4-4.91,4.9-7.43,7.27l-7,0L944.4,95.87c-3.24-3.22-6.54-6.38-9.78-9.61l7,0,6.48,6.33c2.18-2.09,4.27-4.28,6.48-6.33l7,0c-3.25,3.27-6.59,6.46-9.84,9.75Z" fill="#0093ae"/><path d="M744.48,22.89a.39.39,0,0,1,0-.18c2.85-5.9,6.19-9,9.64-8.82,2.84.1,5.53,2.42,7.77,6.69,2.13,4.06,3.82,9.78,4.9,16.55a.42.42,0,0,1-.35.47.41.41,0,0,1-.47-.35c-2.18-13.71-6.73-22.34-11.88-22.54-3-.11-6.21,2.85-8.86,8.36a.42.42,0,0,1-.56.19A.41.41,0,0,1,744.48,22.89Z" fill="#0093ae"/><path d="M765.77,74.29v-.07a120.39,120.39,0,0,0,1.4-13.67.41.41,0,0,1,.43-.4.42.42,0,0,1,.4.43,119.65,119.65,0,0,1-1.41,13.77.42.42,0,0,1-.47.35A.43.43,0,0,1,765.77,74.29Z" fill="#0093ae"/><path d="M737.84,61.32V61h0c0,.12.24.23.24.34,0,22.14,5.94,39.6,13.34,39.82,2.59.07,5.27-2,7.64-6s4.4-9.73,5.85-16.58a.42.42,0,0,1,.82.17c-1.45,6.93-3.49,12.75-5.9,16.83-2.53,4.3-5.41,6.52-8.32,6.43-3.93-.11-7.35-4.45-9.94-12.21C739.07,82.23,737.86,72.15,737.84,61.32Z" fill="#0093ae"/><polygon points="759.04 68.77 767.39 79.67 762.25 66.86 765.99 63.25 760.79 64.4 752.45 53.5 757.59 66.32 753.85 69.93 759.04 68.77" fill="#0093ae"/><path d="M748.63,55.11c.77.15.66.44.78,1.22l.12.73-1.22-.22-.11-.73C748.07,55.33,747.87,55,748.63,55.11Zm1.11-1.58-3-.56c-.83-.15-1.1.1-1,.9l.74,4.63,5.35,1-.75-4.64A1.4,1.4,0,0,0,749.74,53.53Zm4.85,29.41-.29,0,.77,4.78a1.1,1.1,0,0,0,.85.82c.42.07.7-.17.64-.55l-.2-1.23-.31-1.95-.08-.5A1.87,1.87,0,0,0,754.59,82.94ZM740.76,49.43l.22,0a2.09,2.09,0,0,0-.05.57l.79,5c-1-.18-1.24-1.49-1.56-3.49l-.37-2.27L733.23,48l.48,3c.74,7.35,4.55,10.14,9.08,11l1.44,9L752,72.45l.12.73c.12.8.27.68-.56.53l-7.11-1.31,1,6.43.47.09a2.93,2.93,0,0,0-.19,1.65l1.78,11.13,5.59,1,.51-.73a5.6,5.6,0,0,0,2.41,1.25l.88.18a3.33,3.33,0,0,0,3.94-3.88l-1-6.38a5.89,5.89,0,0,0-2-3.28,3.75,3.75,0,0,0,1-2.89l-1.14-7.1-1.76.8,1,6.4c.15.93-.22,1.55-1,1.72-.19-.07-8.95-1.7-8.95-1.7l-.37-2.3L753.35,76c.83.16,1.1-.09,1-.89l-.71-4.41-7.77-1.43-.41-2.52,8.9,1.64,2.45-2.09-2.72-7.49.57,3.56v.05l-12.15-2.23a9,9,0,0,1-6.5-6.78l-.48-3,2.42.44.37,2.28a6.11,6.11,0,0,0,4.42,4.62l1.31.25-.95-5.92c-.2-1.27.57-2,1.91-1.71l5.71,1a3.25,3.25,0,0,1,2.3,1.66l.15,0,2.29,3-.3-1.73a6.44,6.44,0,0,0-2.23-3.72,3.73,3.73,0,0,0,1.24-3.07l-1-6.38,5.59,1,.74,4.65c.4,2.48,3.19,5.21,5.81,5.7l3.76.69c2.62.48,4.68-1.36,4.28-3.83l-1.63-10.17L760,37.14l-1.5-9.36a2.3,2.3,0,0,0-1.75-1.72L737.93,22.6c-.83-.15-1.41.36-1.28,1.15l2.86,17.86,7.78,1.44.11.73c.13.8.28.68-.56.52L739.73,43ZM745,36.16l-1-6,1.21.22.78,4.83,6.32,1.16-.78-4.82,1.22.22,1,6Zm-1.94-.35-2.67-.5-1.7-10.56L756.43,28l1.39,8.73-2.43-.45-1-6.2-5.1-.94.81,5.06-2.43-.45-.81-5.06-5.1-.94ZM742.41,48l-.4-2.53,6.62,1.22c.83.15,1.1-.1,1-.9l-.7-4.4-7.78-1.43-.4-2.53,10.2,1.88v.06l1.34,8.38c.21,1.27-.56,2-1.9,1.71Zm12.53,16.41.4,2.47L745.14,65l-.41-2.53,10.2,1.88ZM750.17,79.7l4.72.86a4.46,4.46,0,0,1,3.18,3.25l.94,5.91c.16,1-1,1.69-2,1.48l-1.52-.29a3.24,3.24,0,0,1-2.4-2.3l-1-6.14-.55-.08a.79.79,0,0,0-1,.87l1.1,6.86-2.49-.46-1.24-7.73A1.89,1.89,0,0,1,750.17,79.7Zm13.15-36.6,4.62.85.52,3.22c.06.42-.17.64-.62.55l-3.16-.58a1,1,0,0,1-.84-.82Z" fill="#0093ae"/><path d="M761.2,63.67l2.7-.69,0-.38-.67-.12a1.14,1.14,0,0,1-.91-.9l-.42-2.64c-.07-.44.2-.69.67-.6l7.16,1.32a1.12,1.12,0,0,1,.91.89l.43,2.64c.07.44-.21.69-.67.6l-.92-.17L770.3,69l1.09.2c2.76.51,4.85-1.37,4.44-4L775,60.08c-.42-2.61-3.26-5.39-6-5.9l-7.65-1.41c-2.76-.51-4.85,1.37-4.43,4l.27,1.7Z" fill="#0093ae"/><path d="M762.84,67.45a4.36,4.36,0,0,0,.9.31l1,.18-.34-2.13Z" fill="#0093ae"/></g></svg>